<svg width="1024" height="1024" viewBox="0 0 1024 1024" fill="none" xmlns="http://www.w3.org/2000/svg">
<path d="M464.591 150.146C477.937 139.179 489.772 129.619 504.598 120.546C613.689 53.7815 759.55 61.4991 855.889 147.448C860.997 152.005 879.936 168.426 881.074 174.589C859.759 169.757 848.124 183.892 830.86 193.534C799.213 173.188 742.799 164.321 706.404 172.373C696.318 174.604 685.513 177.71 675.953 181.649C668.938 184.54 660.168 189.262 652.996 191.041C635.131 184.022 622.543 164.676 601.735 174.14C582.079 183.08 576.695 209.721 585.587 227.97C590.724 238.513 598.332 246.155 606.839 253.647C605.189 262.612 604.139 270.116 603.877 279.372L603.14 279.708C585.004 288.094 561.53 306.677 540.452 306.595C540.494 305.267 540.505 303.938 540.484 302.609C540.346 295.75 537.417 285.125 535.946 278.121C526.124 231.339 499.459 183.353 464.555 150.402L464.591 150.146Z" fill="#FBF8CC"/>
<path d="M182.065 436.302C171.065 427.774 156.06 411.659 148.042 400.305C126.936 370.417 115.35 335.685 112.775 299.294C109.192 247.412 126.45 196.244 160.725 157.131C195.488 116.743 244.863 91.8057 298.001 87.7997C342.258 84.6773 391.422 97.8548 428.761 121.744C443.098 130.916 452.017 139.242 464.591 150.146L464.555 150.402C459.484 153.78 454.882 158.074 450.204 162.542C415.745 195.45 389.91 240.587 377.182 286.416C376.551 288.686 376.098 292.262 376.276 294.506C285.594 303.045 214.884 349.434 182.065 436.302Z" fill="#FDE4CF"/>
<path d="M376.276 294.506C376.098 292.262 376.551 288.686 377.182 286.416C389.91 240.587 415.745 195.45 450.204 162.542C454.882 158.074 459.484 153.78 464.555 150.402C499.459 183.353 526.124 231.339 535.946 278.121C537.417 285.125 540.346 295.75 540.484 302.609C540.505 303.938 540.494 305.267 540.452 306.595C517.763 307.687 491.762 303.599 469.208 300.661C437.611 296.545 408.175 293.102 376.276 294.506Z" fill="#FDD6AE"/>
<path d="M830.86 193.534C848.124 183.892 859.759 169.757 881.074 174.589C893.788 178.937 901.417 185.166 903.183 199.506C905.064 224.849 894.273 250.37 870.318 261.387C875.786 311.509 870.888 347.869 837.644 388.787C834.918 392.143 831.964 395.737 828.943 398.833C822.958 404.728 817.937 409.283 811.638 414.881C810.526 415.776 810.095 415.95 809.31 417.113C789.909 435.469 779.016 445.107 752.464 450.913L751.34 450.089C775.451 445.033 787.018 435.948 803.809 418.893C810.57 411.778 819.525 404.481 826.983 396.844C845.83 377.718 861.874 348.58 866.835 322.495C872.853 290.853 870.398 246.741 852.263 219.374C836.553 195.667 806.922 182.6 779.971 177.007C738.651 168.431 691.475 171.054 655.501 194.98L654.607 193.853C651.369 192.701 648.152 191.812 645.205 190.111C632.46 182.754 617.122 168.62 601.341 176.726C583.458 185.911 579.758 210.995 588.617 227.718C592.38 234.822 597.66 240.466 603.195 246.151C605.048 248.045 608.122 250.898 609.557 252.871C601.529 284.483 610.419 328.444 626.3 356.742C628.684 360.99 636.788 372.838 640.315 376.056C643.161 380.809 656.562 391.703 661.42 395.999C658.009 394.632 656.186 393.226 653.163 391.15C649.361 388.261 645.884 385.559 642.402 382.252C617.137 358.267 604.759 316.37 603.998 282.196C596.47 287.111 578.456 297.273 570.219 300.424C539.63 312.126 523.437 323.595 503.097 349.449C487.929 370.341 477.587 394.338 472.817 419.71C472.277 422.67 470.889 431.708 470.99 434.718L469.987 434.981C470.843 405.611 479.822 384.154 493.387 359.069C495.885 355.064 498.026 351.734 500.804 347.884C513.819 331.878 525.235 319.201 544.07 309.321C491.408 311.016 439.465 295.262 385.935 296.835C276.646 300.047 187.789 374.338 172.712 484.236C171.41 494.074 170.476 503.956 169.913 513.864C169.686 517.475 169.538 524.788 169.102 528.061C168.582 524.209 170.721 520.704 167.018 519.435C166.645 495.276 172.836 465.972 179.677 442.847L182.065 436.302C214.884 349.434 285.594 303.045 376.276 294.506C408.175 293.102 437.611 296.545 469.208 300.661C491.762 303.599 517.763 307.687 540.452 306.595C561.53 306.677 585.004 288.094 603.14 279.708L603.877 279.372C604.139 270.116 605.189 262.612 606.839 253.647C598.332 246.155 590.724 238.513 585.587 227.97C576.695 209.721 582.079 183.08 601.735 174.14C622.543 164.676 635.131 184.022 652.996 191.041C660.168 189.262 668.938 184.54 675.953 181.649C685.513 177.71 696.318 174.604 706.404 172.373C742.799 164.321 799.213 173.188 830.86 193.534ZM832.932 195.161L844.534 205.156C845.982 204.941 845.797 204.623 847.064 203.205L848.074 204.061L846.307 206.025C846.448 208.172 853.348 214.544 855.149 217.265C859.329 223.581 861.892 229.987 864.612 236.991C865.687 237.576 865.108 237.466 866.356 237.283L867.123 237.586L865.474 238.257C865.318 238.84 869.631 256.501 870.138 259.687C872.571 258.298 874.989 256.883 877.434 255.342C901.196 240.359 915.487 183.958 878.134 176.504C860.433 172.972 846.76 185.686 832.932 195.161Z" fill="url(#paint0_linear_6_5975)"/>
<path d="M638.587 209.209C643.26 203.631 649.572 199.111 655.501 194.98C691.475 171.054 738.651 168.431 779.971 177.007C806.922 182.6 836.553 195.667 852.263 219.374C870.398 246.741 872.853 290.853 866.835 322.495C861.874 348.58 845.83 377.718 826.983 396.844C816.554 395.762 812.637 392.737 803.745 389.993C799.156 388.577 778.274 391.824 772.624 392.808C767.657 394.492 756.053 394.177 752.185 390.38L752.329 388.672C773.021 394.237 788.676 386.179 793.012 364.765C793.224 362.243 793.304 361.761 792.697 359.328L792.242 359.369L791.568 361.457C788.123 370.805 785.773 377.969 777.589 384.314C776.63 381.759 776.082 379.268 774.959 376.488C771.91 368.94 767.61 363.218 762.876 356.725C775.908 333.302 753.077 323.425 733.73 325.368C722.866 326.459 713.365 328.153 710.406 340.448C705.006 336.581 706.048 327.716 709.76 322.996C716.828 314.009 730.038 310.397 740.966 308.213C751.812 306.044 763.464 304.353 774.598 302.331C774.839 302.852 775.092 303.367 775.356 303.876C776.019 305.127 777.173 307.388 778.402 307.752L778.77 306.832C776.634 302.792 774.59 298.534 772.697 294.39C766.883 281.662 752.577 272.671 738.555 273.025C731.178 273.211 722.487 274.259 716.97 279.727C715.491 280.938 715.272 281.943 713.753 283.112C708.797 287.137 695.478 301.116 693.26 306.75C692.289 307.925 689.948 311.55 689.757 312.947C687.777 316.786 687.173 321.607 685.929 325.975L685.94 326.572C685.296 328.32 684.593 330.084 684.144 331.886C679.533 331.602 662.952 322.555 658.876 319.102C656.262 316.887 646.578 305.305 644.921 304.82C643.893 307.719 645.724 305.598 645.244 310.086C643.977 306.838 641.412 296.358 640.343 292.475L639.774 292L640.02 291.587L639.777 291.148C639.517 293.638 641.543 302.093 642.16 305.116C638.681 301.143 640.674 292.124 637.618 290.378C636.889 290.673 636.456 290.81 635.662 290.95L635.301 292.426C632.669 293.922 631.948 293.526 631.895 297.011L632.549 297.708C634.256 297.605 635.028 297.583 636.727 297.702C638.822 299.56 637.404 302.687 638.353 305.575L637.18 306.007C636.963 303.367 636.841 301.501 636.316 298.883L635.884 299.716C633.521 300.613 632.639 299.918 630.667 298.692C631.106 296.563 632.067 289.274 631.257 287.441C630.224 289.556 630.061 291.563 629.669 293.898C627.904 287.029 633.313 285.52 632.427 281.619C629.318 280.769 627.476 283.479 626.862 286.201L626.686 287.006C625.287 285.276 624.981 280.617 625.521 278.448L626.054 278.532C625.959 280.452 625.974 280.532 626.322 282.43L626.683 282.12C627.425 279.046 628.14 274.616 627.765 271.472C627.027 272.595 626.579 275.705 626.268 277.217C625.672 275.348 626.152 274.012 625.773 271.988C624.861 267.117 622.102 261.751 618.106 258.708C616.125 257.198 615.443 258.383 614.062 255.591L614.165 255.446L615.651 255.42C616.714 256.308 617.402 257.055 618.713 257.301L618.787 254.982L619.268 254.535C621.198 257.318 620.018 261.551 625.039 263.997C625.836 264.385 625.944 265.239 626.31 266.131L626.837 266.082C626.388 264.681 626.282 264.716 626.542 263.303C627.821 262.256 627.132 262.402 628.568 262.508C629.055 263.45 629.067 263.469 629.771 264.262C629.108 264.98 631.736 248.952 632.669 246.578L633.4 246.52C634.565 247.948 632.478 248.777 633.262 250.658C633.793 248.644 634.128 247.709 634.201 245.654L633.419 245.851C632.746 244.738 632.227 243.963 631.49 242.913C627.372 242.32 620.28 241.662 616.247 241.745C615.39 243.854 612.912 249.246 611.601 250.848L611.441 249.691C612.852 247.325 613.874 245.021 615.04 242.534C615.784 240.645 617.149 238.378 618.163 236.562C626.219 222.807 627.975 220.906 638.587 209.209ZM712.459 193.111C710.89 193.374 708.164 193.601 707.029 194.517C709.439 194.653 710.819 194.205 713.156 193.684C714.793 193.244 717.729 192.579 718.833 191.456C716.837 191.35 714.422 192.421 712.459 193.111ZM767.991 197.928C765.835 197.322 761.141 196.59 759.05 197.331L759.418 198.119C762.307 198.648 765.168 198.848 767.991 197.928ZM838.248 348.774C838.82 347.152 838.857 347.241 838.806 345.544L838.34 345.599L837.485 347.627C836.197 351.187 831.364 362.101 830.82 364.299L830.914 364.402C834.598 359.935 836.452 354.2 838.248 348.774ZM772.68 182.057C774.957 183.437 788.935 189.523 790.922 189.573C787.981 186.849 776.284 181.944 772.68 182.057ZM741.509 184.358C741.487 185.978 741.144 186.721 741.938 187.636L742.692 187.181C742.583 185.678 742.829 185.391 741.509 184.358ZM747.46 188.406L747.288 189.853C748.62 190.571 748.715 190.352 750.367 190.329L750.94 189.711C750.247 188.672 748.749 188.596 747.46 188.406ZM794.641 191.48C797.379 193.094 802.584 195.74 805.789 195.483C802.838 193.804 798.056 191.394 794.641 191.48ZM723.293 202.725L722.212 202.991L722.226 203.603C724.705 203.976 725.057 203.789 727.585 203.26L728.705 203.243L728.528 202.805C726.128 202.4 725.72 202.431 723.293 202.725ZM716.704 204.206C714.429 204.455 713.846 204.127 712.308 205.285L712.393 205.831C713.904 205.586 715.636 205.499 716.835 204.659L716.704 204.206ZM760.581 204.447L761.57 205.289C761.888 205.246 762.632 205.181 762.891 205.074C762.161 204.5 761.684 204.084 760.581 204.447ZM838.605 218.371C840.202 220.568 848.332 232.489 849.26 233.173C847.545 228.283 842.983 220.93 838.605 218.371ZM782.968 232.186C772.975 233.24 767.276 236.116 763.601 245.82C771.407 234.717 778.738 232.135 791.817 235.257C800.793 238.59 803.019 241.144 810.118 247.357C803.485 237.302 795.044 232.572 782.968 232.186ZM690.884 232.638C681.285 234.518 676.096 237.335 670.265 245.392C677.542 239.5 681.302 235.917 691.203 234.352C701.819 233.511 704.755 234.879 711.773 242.272C712.036 241.271 711.991 241.585 711.4 240.598C707.027 233.305 698.637 231.689 690.884 232.638ZM639.213 233.858C637.771 236.374 635.484 240.178 635.696 243.107C636.865 240.826 639.651 236.202 639.213 233.858ZM632.325 252.363C631.392 255.424 629.596 261.999 631.231 264.792C631.651 261.964 632.775 255.059 632.325 252.363ZM851.958 254.814C852.372 257.523 853.253 265.373 854.493 267.18C854.665 264.107 854.57 256.689 851.958 254.814ZM787.351 260.056C783.171 261.239 780.648 262.418 778.471 266.544C776.895 269.543 776.604 273.054 777.667 276.271C780.311 284.043 787.983 284.926 794.821 282.258C798.594 279.37 801.251 276.102 802.747 271.278C803.068 270.241 802.126 269.079 801.486 268.146L802.001 267.63L803.725 267.741C805.177 264.473 796.369 261.137 793.946 260.31C792.044 259.66 789.353 259.923 787.351 260.056ZM685.265 260.592C681.581 261.905 676.168 263.993 674.204 267.529L674.244 268.339C675.703 268.326 675.817 268.179 677.221 267.677C676.432 271.957 674.079 272.797 678.262 279.378C680.165 282.373 682.155 283.295 685.362 284.645C692.561 285.413 698.88 282.792 699.56 274.783C699.87 270.953 698.573 267.166 695.98 264.329C692.857 260.967 689.632 260.242 685.265 260.592ZM639.632 272.345C638.401 275.244 637.405 282.215 639.215 284.875C639.367 282.445 640.077 274.247 639.632 272.345ZM849.182 277.368C848.361 281.203 847.59 286.332 846.995 290.22C846.544 293.166 843.497 304.9 844.156 306.537C845.716 301.998 851.71 281.202 849.182 277.368ZM854.983 281.785C854.391 285.754 852.581 296.707 853.696 300.207C855.086 297.07 856.38 284.896 854.983 281.785ZM781.333 284.806L778.871 285.167L778.519 285.645C780.44 286.05 780.505 285.949 782.383 285.693L784.342 285.461L784.731 284.93C783.042 284.564 782.987 284.639 781.333 284.806ZM841.779 298.389C840.697 300.37 838.998 302.882 839.824 305.167C840.552 303.294 841.938 300.301 841.779 298.389ZM850.501 306.75C849.921 308.822 848.116 315.82 848.7 317.502L848.951 317.515C850.187 314.354 851.153 310.985 851.22 307.573L850.501 306.75ZM777.259 309.277C778.285 311.462 782.818 317.777 784.706 319.102C783.798 316.31 780.155 310.027 777.259 309.277ZM835.201 310.868C834.638 312.569 832.196 320.052 833.245 321.118C834.635 317.81 835.793 315.228 835.782 311.557L835.201 310.868ZM782.774 320.714C783.793 323.079 785.555 327.281 787.184 329.16C786.193 326.283 785.261 322.183 782.774 320.714ZM828.171 320.852C826.946 324.352 825.68 327.6 825.042 331.257L825.641 332.164C826.814 329.173 828.35 324.966 828.742 321.789L828.171 320.852ZM844.974 331.258C844.371 333.479 841.587 348.965 842.223 350.701C843.577 346.962 847.088 334.696 844.974 331.258ZM818.678 364.312C816.834 369.779 814.955 373.672 813.076 378.782L813.562 379.357C816.338 376.444 818.948 369.484 819.359 365.482C819.098 364.916 819.089 364.684 818.678 364.312ZM810.027 371.361C808.493 374.92 802.687 385.605 804.029 388.365C806.337 384.592 810.923 375.698 810.027 371.361Z" fill="#F3F6F7"/>
<path d="M654.607 193.853C650.132 197.934 643.746 201.969 638.658 206.391C634.589 200.078 631.13 195.02 623.002 193.508C611.553 191.379 601.768 194.594 599.418 207.187C597.46 217.674 604.366 232.843 615.373 235.667L616.462 236.067C615.813 238.051 615.129 240.371 614.345 242.272C613.558 243.854 611.067 248.239 611.441 249.691L611.601 250.848C599.995 279.832 612.541 330.572 627.444 356.968C629.692 360.951 639.686 373.31 640.315 376.056C636.788 372.838 628.684 360.99 626.3 356.742C610.419 328.444 601.529 284.483 609.557 252.871C608.122 250.898 605.048 248.045 603.195 246.151C597.66 240.466 592.38 234.822 588.617 227.718C579.758 210.995 583.458 185.911 601.341 176.726C617.122 168.62 632.46 182.754 645.205 190.111C648.152 191.812 651.369 192.701 654.607 193.853Z" fill="#CEF2CE"/>
<path d="M847.064 203.205C845.797 204.623 845.982 204.941 844.534 205.156L832.932 195.161C846.76 185.686 860.433 172.972 878.134 176.504C915.487 183.958 901.196 240.359 877.434 255.342C874.989 256.883 872.571 258.298 870.138 259.687C869.631 256.501 865.318 238.84 865.474 238.257L867.123 237.586C876.234 235.944 882.963 221.864 883.469 213.227C884.73 191.699 858.675 191.852 847.064 203.205Z" fill="#CEF2CE"/>
<path d="M790.922 189.573C788.935 189.523 774.957 183.437 772.68 182.057C776.284 181.944 787.981 186.849 790.922 189.573Z" fill="#0C1216"/>
<path d="M742.692 187.181L741.938 187.636C741.144 186.721 741.487 185.978 741.509 184.358C742.829 185.391 742.583 185.678 742.692 187.181Z" fill="#2E2C32"/>
<path d="M750.367 190.329C748.715 190.352 748.62 190.571 747.288 189.853L747.46 188.406C748.749 188.596 750.247 188.672 750.94 189.711L750.367 190.329Z" fill="#1E2037"/>
<path d="M712.459 193.111C714.422 192.421 716.837 191.35 718.833 191.456C717.729 192.579 714.793 193.244 713.156 193.684L712.459 193.111Z" fill="#4A4F55"/>
<path d="M805.789 195.483C802.584 195.74 797.379 193.094 794.641 191.48C798.056 191.394 802.838 193.804 805.789 195.483Z" fill="#0C1216"/>
<path d="M638.658 206.391C643.746 201.969 650.132 197.934 654.607 193.853L655.501 194.98C649.572 199.111 643.26 203.631 638.587 209.209L637.396 207.364C632.719 200.6 628.845 196.483 620.203 194.959C610.533 193.254 602.093 197.211 601.333 207.734C600.368 220.444 606.894 227.92 616.054 235.119L615.373 235.667C604.366 232.843 597.46 217.674 599.418 207.187C601.768 194.594 611.553 191.379 623.002 193.508C631.13 195.02 634.589 200.078 638.658 206.391Z" fill="#0C1216"/>
<path d="M713.156 193.684C710.819 194.205 709.439 194.653 707.029 194.517C708.164 193.601 710.89 193.374 712.459 193.111L713.156 193.684Z" fill="#9EA6AC"/>
<path d="M616.054 235.119C606.894 227.92 600.368 220.444 601.333 207.734C602.093 197.211 610.533 193.254 620.203 194.959C628.845 196.483 632.719 200.6 637.396 207.364C628.426 214.694 620.489 224.355 616.054 235.119Z" fill="#B9FBC0"/>
<path d="M847.064 203.205C858.675 191.852 884.73 191.699 883.469 213.227C882.963 221.864 876.234 235.944 867.123 237.586L866.356 237.283C867.385 236.686 868.401 236.065 869.401 235.42C880.7 228.056 889.505 204.077 872.588 197.919C863.861 194.743 854.857 198.628 848.074 204.061L847.064 203.205Z" fill="#0C1216"/>
<path d="M759.418 198.119L759.05 197.331C761.141 196.59 765.835 197.322 767.991 197.928L759.418 198.119Z" fill="#4A4F55"/>
<path d="M848.074 204.061C854.857 198.628 863.861 194.743 872.588 197.919C889.505 204.077 880.7 228.056 869.401 235.42C868.401 236.065 867.385 236.686 866.356 237.283C865.108 237.466 865.687 237.576 864.612 236.991C861.892 229.987 859.329 223.581 855.149 217.265C853.348 214.544 846.448 208.172 846.307 206.025L848.074 204.061Z" fill="#B9FBC0"/>
<path d="M759.418 198.119L767.991 197.928C765.168 198.848 762.307 198.648 759.418 198.119Z" fill="#6D7D6F"/>
<path d="M903.183 199.506C905.44 201.162 908.603 206.376 910.126 208.95C950.392 277.032 948.568 363.628 912.373 432.998C907.775 441.811 903.177 449.183 896.892 456.826C884.756 444.118 866.621 426.605 852.866 415.819C848.724 412.518 844.46 409.375 840.082 406.395C836.943 404.294 831.427 401.256 828.943 398.833C831.964 395.737 834.918 392.143 837.644 388.787C870.888 347.869 875.786 311.509 870.318 261.387C894.273 250.37 905.064 224.849 903.183 199.506Z" fill="#FBF8CC"/>
<path d="M727.585 203.26C725.057 203.789 724.705 203.976 722.226 203.603L722.212 202.991L723.293 202.725C725.72 202.431 726.128 202.4 728.528 202.805L728.705 203.243L727.585 203.26Z" fill="#6E6B6B"/>
<path d="M712.393 205.831L712.308 205.285C713.846 204.127 714.429 204.455 716.704 204.206L716.835 204.659C715.636 205.499 713.904 205.586 712.393 205.831Z" fill="#2E2C32"/>
<path d="M762.891 205.074C762.632 205.181 761.888 205.246 761.57 205.289L760.581 204.447C761.684 204.084 762.161 204.5 762.891 205.074Z" fill="#6E6B6B"/>
<path d="M637.396 207.364L638.587 209.209C627.975 220.906 626.219 222.807 618.163 236.562L616.462 236.067L615.373 235.667L616.054 235.119C620.489 224.355 628.426 214.694 637.396 207.364Z" fill="url(#paint1_linear_6_5975)"/>
<path d="M849.26 233.173C848.332 232.489 840.202 220.568 838.605 218.371C842.983 220.93 847.545 228.283 849.26 233.173Z" fill="#0C1216"/>
<path d="M763.601 245.82C767.276 236.116 772.975 233.24 782.968 232.186C795.044 232.572 803.485 237.302 810.118 247.357C803.019 241.144 800.793 238.59 791.817 235.257C778.738 232.135 771.407 234.717 763.601 245.82Z" fill="#1E2037"/>
<path d="M670.265 245.392C676.096 237.335 681.285 234.518 690.884 232.638C698.637 231.689 707.027 233.305 711.4 240.598C711.991 241.585 712.036 241.271 711.773 242.272C704.755 234.879 701.819 233.511 691.203 234.352C681.302 235.917 677.542 239.5 670.265 245.392Z" fill="#1E2037"/>
<path d="M635.696 243.107C635.484 240.178 637.771 236.374 639.213 233.858C639.651 236.202 636.865 240.826 635.696 243.107Z" fill="#2E2C32"/>
<path d="M616.462 236.067L618.163 236.562C617.149 238.378 615.784 240.645 615.04 242.534L614.345 242.272C615.129 240.371 615.813 238.051 616.462 236.067Z" fill="#2E2C32"/>
<path d="M611.601 250.848C612.912 249.246 615.39 243.854 616.247 241.745C620.28 241.662 627.372 242.32 631.49 242.913C632.227 243.963 632.746 244.738 633.419 245.851L634.201 245.654C634.128 247.709 633.793 248.644 633.262 250.658C632.478 248.777 634.565 247.948 633.4 246.52L632.669 246.578C631.736 248.952 629.108 264.98 629.771 264.262C629.067 263.469 629.055 263.45 628.568 262.508C627.132 262.402 627.821 262.256 626.542 263.303C626.282 264.716 626.388 264.681 626.837 266.082L626.31 266.131C625.944 265.239 625.836 264.385 625.039 263.997C620.018 261.551 621.198 257.318 619.268 254.535L618.787 254.982L618.713 257.301C617.402 257.055 616.714 256.308 615.651 255.42L614.165 255.446L614.062 255.591C615.443 258.383 616.125 257.198 618.106 258.708C622.102 261.751 624.861 267.117 625.773 271.988C626.152 274.012 625.672 275.348 626.268 277.217C626.236 277.451 626.143 278.359 626.054 278.532L625.521 278.448C624.981 280.617 625.287 285.276 626.686 287.006L626.862 286.201C627.476 283.479 629.318 280.769 632.427 281.619C633.313 285.52 627.904 287.029 629.669 293.898C629.827 295.285 629.943 297.621 630.667 298.692C632.639 299.918 633.521 300.613 635.884 299.716C635.175 302.458 635.465 305.398 636.146 308.123L636.725 308.542C637.093 307.324 637.105 307.275 637.18 306.007L638.353 305.575C637.404 302.687 638.822 299.56 636.727 297.702C635.028 297.583 634.256 297.605 632.549 297.708L631.895 297.011C631.948 293.526 632.669 293.922 635.301 292.426L635.662 290.95C636.456 290.81 636.889 290.673 637.618 290.378C640.674 292.124 638.681 301.143 642.16 305.116C645.126 313.425 645.742 318.713 650.591 326.611C649.422 322.872 645.666 313.201 645.244 310.086C645.724 305.598 643.893 307.719 644.921 304.82C646.578 305.305 656.262 316.887 658.876 319.102C662.952 322.555 679.533 331.602 684.144 331.886L684.739 332.944C684.664 335.075 683.661 337.212 684.583 339.199C685.406 336.01 685.393 335.231 685.445 332.024C685.988 329.72 687.513 328.065 687.325 326.549L685.94 326.572L685.929 325.975C687.558 324.279 691.14 317.338 691.662 315.108C690.572 315.746 690.891 315.656 689.702 315.976L689.757 312.947C689.948 311.55 692.289 307.925 693.26 306.75C693.884 306.158 696.052 303.141 696.906 302.218C700.005 298.867 712.581 286.499 713.753 283.112C715.272 281.943 715.491 280.938 716.97 279.727C719.548 278.533 722.527 277.092 725.12 276.249C744.534 269.938 765.576 278.237 773.13 297.782C773.799 299.513 774.234 300.436 774.598 302.331C763.464 304.353 751.812 306.044 740.966 308.213C730.038 310.397 716.828 314.009 709.76 322.996C706.048 327.716 705.006 336.581 710.406 340.448C710.507 358.244 720.403 363.873 735.941 369.113C736.425 372.47 736.215 377.759 736.035 381.125C724.245 386.765 706.455 391.422 695.195 382.312C686.875 375.58 685.157 367.97 683.926 357.924C684.026 355.27 684.222 353.269 683.78 350.636L683.416 350.675L682.609 352.862C680.776 368.302 683.443 376.807 696.075 386.794C698.959 397.057 705.809 405.749 715.112 410.954C725.416 416.773 734.231 417.582 745.753 416.945C746.198 417.981 746.327 418.997 747.43 419.249C759.923 422.1 775.732 422.724 788.446 421.721C793.584 421.315 797.823 418.044 803.809 418.893C787.018 435.948 775.451 445.033 751.34 450.089C747.615 450.467 744.519 450.565 740.766 450.656C745.827 451.866 747.307 451.677 752.464 450.913C779.016 445.107 789.909 435.469 809.31 417.113C810.495 432.898 781.568 465.476 768.984 474.768C767.106 476.154 763.181 478.622 761.873 479.978C758.766 481.932 739.619 492.989 739.187 494.259C745.758 491.203 754.426 486.043 761.11 482.48C773.314 475.31 782.366 466.799 790.872 455.721C792.143 454.066 795.601 449.473 797.245 448.735C789.204 467.002 779.346 486.359 767.896 502.686C761.308 512.079 752.115 522.713 744.88 531.9C732.082 547.665 729.141 554.438 721.206 573.016C718.53 570.183 720.264 554.469 719.912 549.105C718.683 530.4 713.792 511.7 709 493.642C707.191 486.823 704.271 479.864 702.635 473.137L702.516 472.633C702.139 471.353 701.19 470.42 700.325 469.362C700.389 463.941 695.513 448.933 692.892 444.028C686.008 431.141 675.425 418.027 662.849 410.295C657.426 406.96 650.715 404.792 645.174 401.517L644.805 401.294C648.265 398.066 651.735 395.584 653.163 391.15C656.186 393.226 658.009 394.632 661.42 395.999C656.562 391.703 643.161 380.809 640.315 376.056C639.686 373.31 629.692 360.951 627.444 356.968C612.541 330.572 599.995 279.832 611.601 250.848ZM616.038 293.356C615.764 287.537 615.862 273.98 615.015 269.427L614.779 269.302C613.728 280.272 614.847 288.087 615.655 298.719C615.493 300.005 615.698 300.26 616.055 301.539C616.814 298.334 616.67 296.59 616.038 293.356ZM633.322 341.042C629.98 335.327 630.206 330.334 627.672 325.394C625.819 328.988 631.281 346.658 636.189 348.276C637.285 349.471 636.622 349.119 638.265 349.326C641.723 354.145 644.721 361.75 649.69 367.946C648.334 362.443 648.081 361.757 645.061 357.251L645.977 360.022C643.696 356.757 638.312 345.113 636.199 344.146L636.071 343.636C635.084 342.839 634.786 342.139 634.069 341.047L633.322 341.042ZM647.17 356.049C649.82 362.301 653.676 369.382 658.839 373.892C659.978 375.477 662.226 379.05 663.957 379.488L664.443 378.988C663.336 374.867 656.342 366.433 653.487 363.169C651.164 360.068 650.151 358.533 647.17 356.049ZM619.233 310.887C618.772 315.757 618.756 327.67 623.487 330.17C623.3 326.376 621.417 322.649 620.829 318.764C620.58 317.121 620.007 311.781 619.233 310.887ZM663.006 370.386C663.706 375.288 671.446 382.374 675.862 383.139C672.275 380.042 665.565 371.504 663.006 370.386Z" fill="#98F5E1"/>
<path d="M611.441 249.691C611.067 248.239 613.558 243.854 614.345 242.272L615.04 242.534C613.874 245.021 612.852 247.325 611.441 249.691Z" fill="#9EA6AC"/>
<path d="M631.231 264.792C629.596 261.999 631.392 255.424 632.325 252.363C632.775 255.059 631.651 261.964 631.231 264.792Z" fill="#4A4F55"/>
<path d="M854.493 267.18C853.253 265.373 852.372 257.523 851.958 254.814C854.57 256.689 854.665 264.107 854.493 267.18Z" fill="#2E2C32"/>
<path d="M794.821 282.258C787.983 284.926 780.311 284.043 777.667 276.271C776.604 273.054 776.895 269.543 778.471 266.544C780.648 262.418 783.171 261.239 787.351 260.056C789.353 259.923 792.044 259.66 793.946 260.31C796.369 261.137 805.177 264.473 803.725 267.741L802.001 267.63L801.486 268.146C802.126 269.079 803.068 270.241 802.747 271.278C801.251 276.102 798.594 279.37 794.821 282.258ZM793.23 262.509C783.497 262.245 779.797 264.737 779.341 274.877L780.406 276.486C784.95 284.717 795.714 281.531 798.422 273.33C800.2 268.8 796.616 264.999 793.23 262.509Z" fill="#1E2037"/>
<path d="M685.362 284.645C682.155 283.295 680.165 282.373 678.262 279.378C674.079 272.797 676.432 271.957 677.221 267.677C675.817 268.179 675.703 268.326 674.244 268.339L674.204 267.529C676.168 263.993 681.581 261.905 685.265 260.592C689.632 260.242 692.857 260.967 695.98 264.329C698.573 267.166 699.87 270.953 699.56 274.783C698.88 282.792 692.561 285.413 685.362 284.645ZM694.125 279.74C704.62 272.545 689.245 255.445 679.807 268.039C679.963 272.664 679.149 279.922 684.454 281.582C687.577 282.397 691.918 282.472 694.125 279.74Z" fill="#1E2037"/>
<path d="M793.23 262.509L792.932 263.796C789.065 263.15 787.583 263.571 784.054 265.324C781.853 267.372 780.905 269.372 781.008 272.439C780.513 273.843 780.408 273.787 779.341 274.877C779.797 264.737 783.497 262.245 793.23 262.509Z" fill="#8B8EAD"/>
<path d="M792.932 263.796L793.23 262.509C796.616 264.999 800.2 268.8 798.422 273.33L798.108 273.388L797.945 269.403C797.366 268.202 794.211 265.274 792.932 263.796Z" fill="#C4C7C7"/>
<path d="M694.125 279.74C702.016 266.881 684.84 259.113 681.404 268.195C682.726 267.735 683.572 267.365 684.838 266.804C683.625 270.82 679.159 267.521 681.489 276.871C682.504 279.038 682.646 279.372 684.372 281.007L684.454 281.582C679.149 279.922 679.963 272.664 679.807 268.039C689.245 255.445 704.62 272.545 694.125 279.74Z" fill="#8B8EAD"/>
<path d="M784.054 265.324C787.583 263.571 789.065 263.15 792.932 263.796C794.211 265.274 797.366 268.202 797.945 269.403L794.461 273.15C794.594 269.959 794.282 267.549 790.528 267.059L789.553 267.494L789.092 268.727C789.977 269.964 790.301 270.089 791.51 270.988C791.888 272.4 791.711 273.094 791.562 274.529L792.108 274.69L794.15 273.352C792.899 276.081 792.88 275.161 794.158 278.086C790.625 280.295 789.096 280.741 785.004 279.736C784.748 277.539 784.532 277 785.18 274.968C784.769 273.339 784.256 272.538 783.521 271.024C785.077 269.355 786.241 269.285 786.432 267.658C785.362 266.747 784.981 266.334 784.054 265.324Z" fill="url(#paint2_linear_6_5975)"/>
<path d="M684.838 266.804C683.572 267.365 682.726 267.735 681.404 268.195C684.84 259.113 702.016 266.881 694.125 279.74C689.914 280.863 688.518 282.165 684.372 281.007C682.646 279.372 682.504 279.038 681.489 276.871L683.152 275.236C685.579 276.032 687.272 277.086 689.572 275.515C690.561 274.455 690.36 274.649 691.107 273.367C692.699 271.236 692.64 271.951 692.82 269.665C691.876 268.106 691.332 268.037 689.674 267.291C688.38 266.652 686.273 266.343 684.838 266.804Z" fill="#1E2037"/>
<path d="M781.008 272.439C780.905 269.372 781.853 267.372 784.054 265.324C784.981 266.334 785.362 266.747 786.432 267.658C786.241 269.285 785.077 269.355 783.521 271.024L783.43 270.184C782.016 270.807 782.051 271.123 781.008 272.439Z" fill="#1E2037"/>
<path d="M684.838 266.804C686.273 266.343 688.38 266.652 689.674 267.291L689.492 267.974C691.286 269.484 691.602 269.194 691.866 270.922C691.247 272.166 691.193 271.996 691.107 273.367C690.36 274.649 690.561 274.455 689.572 275.515C688.779 272.069 686.453 268.765 682.965 271.984C682.453 274.091 682.451 273.044 683.152 275.236L681.489 276.871C679.159 267.521 683.625 270.82 684.838 266.804Z" fill="#424263"/>
<path d="M794.461 273.15L794.15 273.352L792.108 274.69L791.562 274.529C791.711 273.094 791.888 272.4 791.51 270.988C790.301 270.089 789.977 269.964 789.092 268.727L789.553 267.494L790.528 267.059C794.282 267.549 794.594 269.959 794.461 273.15Z" fill="#F3F6F7"/>
<path d="M691.107 273.367C691.193 271.996 691.247 272.166 691.866 270.922C691.602 269.194 691.286 269.484 689.492 267.974L689.674 267.291C691.332 268.037 691.876 268.106 692.82 269.665C692.64 271.951 692.699 271.236 691.107 273.367Z" fill="#9EA6AC"/>
<path d="M615.655 298.719C614.847 288.087 613.728 280.272 614.779 269.302L615.015 269.427C615.862 273.98 615.764 287.537 616.038 293.356C615.936 294.99 615.87 297.143 615.655 298.719Z" fill="#4A4F55"/>
<path d="M781.008 272.439C782.051 271.123 782.016 270.807 783.43 270.184L783.521 271.024C784.256 272.538 784.769 273.339 785.18 274.968C783.737 274.958 782.746 274.938 781.29 274.819C780.853 275.755 780.973 275.291 780.87 276.193L780.406 276.486L779.341 274.877C780.408 273.787 780.513 273.843 781.008 272.439Z" fill="#FFEDE1"/>
<path d="M794.461 273.15L797.945 269.403L798.108 273.388C796.728 275.537 796.144 276.432 794.158 278.086C792.88 275.161 792.899 276.081 794.15 273.352L794.461 273.15Z" fill="#424263"/>
<path d="M683.152 275.236C682.451 273.044 682.453 274.091 682.965 271.984C686.453 268.765 688.779 272.069 689.572 275.515C687.272 277.086 685.579 276.032 683.152 275.236Z" fill="#F3F6F7"/>
<path d="M626.268 277.217C626.579 275.705 627.027 272.595 627.765 271.472C628.14 274.616 627.425 279.046 626.683 282.12L626.322 282.43C625.974 280.532 625.959 280.452 626.054 278.532C626.143 278.359 626.236 277.451 626.268 277.217Z" fill="#4A4F55"/>
<path d="M639.215 284.875C637.405 282.215 638.401 275.244 639.632 272.345C640.077 274.247 639.367 282.445 639.215 284.875Z" fill="#2E2C32"/>
<path d="M716.97 279.727C722.487 274.259 731.178 273.211 738.555 273.025C752.577 272.671 766.883 281.662 772.697 294.39C774.59 298.534 776.634 302.792 778.77 306.832L778.402 307.752C777.173 307.388 776.019 305.127 775.356 303.876C775.092 303.367 774.839 302.852 774.598 302.331C774.234 300.436 773.799 299.513 773.13 297.782C765.576 278.237 744.534 269.938 725.12 276.249C722.527 277.092 719.548 278.533 716.97 279.727Z" fill="#0C1216"/>
<path d="M794.158 278.086C796.144 276.432 796.728 275.537 798.108 273.388L798.422 273.33C795.714 281.531 784.95 284.717 780.406 276.486L780.87 276.193C782.632 278.051 782.89 278.381 785.004 279.736C789.096 280.741 790.625 280.295 794.158 278.086Z" fill="#8B8EAD"/>
<path d="M780.87 276.193C780.973 275.291 780.853 275.755 781.29 274.819C782.746 274.938 783.737 274.958 785.18 274.968C784.532 277 784.748 277.539 785.004 279.736C782.89 278.381 782.632 278.051 780.87 276.193Z" fill="#1E2037"/>
<path d="M844.156 306.537C843.497 304.9 846.544 293.166 846.995 290.22C847.59 286.332 848.361 281.203 849.182 277.368C851.71 281.202 845.716 301.998 844.156 306.537Z" fill="#0C1216"/>
<path d="M684.372 281.007C688.518 282.165 689.914 280.863 694.125 279.74C691.918 282.472 687.577 282.397 684.454 281.582L684.372 281.007Z" fill="#4E4C72"/>
<path d="M853.696 300.207C852.581 296.707 854.391 285.754 854.983 281.785C856.38 284.896 855.086 297.07 853.696 300.207Z" fill="#0C1216"/>
<path d="M503.097 349.449C523.437 323.595 539.63 312.126 570.219 300.424C578.456 297.273 596.47 287.111 603.998 282.196C604.759 316.37 617.137 358.267 642.402 382.252C645.884 385.559 649.361 388.261 653.163 391.15C651.735 395.584 648.265 398.066 644.805 401.294C642.41 399.549 634.314 395.551 631.231 395.153C628.26 389.724 625.39 384.242 622.622 378.707L622.032 378.516L622.029 378.366C624.103 384.077 626.687 388.492 629.411 393.898L628.821 394.604C624.201 396.262 610.104 385.9 604.681 383.82C603.691 379.074 602.757 374.317 601.878 369.549L601.451 366.16C601.245 364.096 601.325 362.858 600.327 361.113C599.812 362.34 600.154 363.484 600.344 364.849C600.506 366.363 600.642 368.114 600.936 369.581C601.51 374.742 602.347 379.036 603.33 384.108C598.524 384.537 589.202 380.623 585.299 377.888C584.354 376.632 584.508 374.432 584.435 372.737C584.467 359.921 587.994 347.885 591.644 335.734C591.804 335.202 593.656 325.628 593.657 325.499C591.693 328.693 585.604 356.616 584.36 362.479C583.787 365.182 583.047 373.292 582.861 376.397C578.488 375.485 571.319 372.261 567.07 370.419C551.23 363.553 535.261 357.99 518.619 353.372C514.335 352.183 506.809 351.236 503.097 349.449Z" fill="#CEF2CE"/>
<path d="M693.26 306.75C695.478 301.116 708.797 287.137 713.753 283.112C712.581 286.499 700.005 298.867 696.906 302.218C696.052 303.141 693.884 306.158 693.26 306.75Z" fill="#0C1216"/>
<path d="M782.383 285.693C780.505 285.949 780.44 286.05 778.519 285.645L778.871 285.167L781.333 284.806C782.987 284.639 783.042 284.564 784.731 284.93L784.342 285.461L782.383 285.693Z" fill="#C4C7C7"/>
<path d="M629.669 293.898C630.061 291.563 630.224 289.556 631.257 287.441C632.067 289.274 631.106 296.563 630.667 298.692C629.943 297.621 629.827 295.285 629.669 293.898Z" fill="#0C1216"/>
<path d="M642.16 305.116C641.543 302.093 639.517 293.638 639.777 291.148L640.02 291.587L639.774 292L640.343 292.475C641.412 296.358 643.977 306.838 645.244 310.086C645.666 313.201 649.422 322.872 650.591 326.611C645.742 318.713 645.126 313.425 642.16 305.116Z" fill="#0C1216"/>
<path d="M616.038 293.356C616.67 296.59 616.814 298.334 616.055 301.539C615.698 300.26 615.493 300.005 615.655 298.719C615.87 297.143 615.936 294.99 616.038 293.356Z" fill="#829B8E"/>
<path d="M500.804 347.884C488.897 345.556 468.187 342.147 455.886 342.106C410.026 341.953 363.148 355.131 320.434 370.878C296.202 379.812 272.101 390.483 249.061 401.906C243.532 404.647 238.061 406.887 232.533 409.546C230.555 410.498 226.586 413.692 224.648 412.886C237.103 381.508 270.177 349.582 300.985 336.279C302.977 335.424 304.978 334.592 306.988 333.782C298.881 333.939 276.394 348.723 269.97 353.765C264.002 358.497 258.369 363.639 253.114 369.152C240.658 382.131 228.031 399.651 221.814 416.666C215.467 415.16 207.715 425.739 200.953 427.498L200.735 427.395L200.947 426.753C203.917 417.986 208.236 410.501 212.864 402.591L212.433 402.392C204.364 412.442 200.307 423.744 195.761 435.641C194.023 441.298 192.794 447.535 192.982 453.483C191.782 462.408 192.136 470.538 191.248 478.721C190.552 483.06 188.432 491.536 188.54 495.214C188.59 507.203 189.649 519.166 191.706 530.977C192.712 536.512 194.338 542.254 195.29 547.557C191.439 547.671 187.351 547.874 183.525 547.676L183.279 546.706C181.506 540.208 179.888 526.66 178.886 519.513C178.449 515.84 177.684 507.146 176.694 504.042L177.097 504.654L176.407 504.974L177.245 505.086L176.374 505.558L177.377 505.534L176.364 506.114V506.386L177.558 506.231L177.614 506.466L176.381 507.188L177.726 506.939L177.78 507.178L176.419 507.973C176.541 509.204 177.514 519.9 177.714 520.402C178.899 531.572 180.594 537.182 182.467 547.541L182.361 547.928C178.167 547.602 172.454 544.305 170.113 545.384L169.749 546.891C169.319 544.613 169.163 530.999 169.102 528.061C169.538 524.788 169.686 517.475 169.913 513.864C170.476 503.956 171.41 494.074 172.712 484.236C187.789 374.338 276.646 300.047 385.935 296.835C439.465 295.262 491.408 311.016 544.07 309.321C525.235 319.201 513.819 331.878 500.804 347.884ZM409.911 314.488C404.933 314.511 402.992 314.601 398.307 316.836C401.922 316.395 406.543 315.963 409.992 315.128C412.931 315.032 418.186 314.563 420.775 315.645C423.855 316.796 427.474 316.955 430.778 317.287C429.826 316.106 422.573 315.137 420.919 314.907C418.369 314.303 412.791 314.477 409.911 314.488ZM380.934 317.907L377.963 318.55L377.838 318.876C381.265 319.058 383.174 319.023 386.606 318.289C387.319 318.378 386.948 318.412 387.711 318.112C385.636 317.112 383.132 317.475 380.934 317.907ZM360.029 319.857L357.277 320.394C355.328 320.415 351.677 320.263 350.298 321.565C352.389 322.018 355.25 321.356 357.467 321.02L359.483 321.039C361.365 321.045 363.656 321.249 365.336 320.554C364.022 319.782 361.675 319.912 360.029 319.857ZM318.538 344.729C300.025 350.119 286.84 360.537 273.08 373.69C271.828 374.886 266.051 380.049 265.597 381.293C267.058 380.966 270.745 377.207 271.998 376.033C285.259 363.614 301.073 350.219 318.965 345.434C320.659 345.043 322.246 344.87 323.602 343.848C321.875 343.591 320.251 344.241 318.538 344.729ZM332.464 328.211C326.726 328.612 324.337 329.041 318.832 330.766C322.899 330.553 326.463 330.214 330.517 329.771C334.7 329.6 339.52 329.528 343.612 328.94C339.533 328.492 336.573 328.311 332.464 328.211Z" fill="url(#paint3_linear_6_5975)"/>
<path d="M635.884 299.716L636.316 298.883C636.841 301.501 636.963 303.367 637.18 306.007C637.105 307.275 637.093 307.324 636.725 308.542L636.146 308.123C635.465 305.398 635.175 302.458 635.884 299.716Z" fill="#0C1216"/>
<path d="M839.824 305.167C838.998 302.882 840.697 300.37 841.779 298.389C841.938 300.301 840.552 303.294 839.824 305.167Z" fill="#4A4F55"/>
<path d="M848.951 317.515L848.7 317.502C848.116 315.82 849.921 308.822 850.501 306.75L851.22 307.573C851.153 310.985 850.187 314.354 848.951 317.515Z" fill="#0C1216"/>
<path d="M784.706 319.102C782.818 317.777 778.285 311.462 777.259 309.277C780.155 310.027 783.798 316.31 784.706 319.102Z" fill="#0C1216"/>
<path d="M623.487 330.17C618.756 327.67 618.772 315.757 619.233 310.887C620.007 311.781 620.58 317.121 620.829 318.764C621.417 322.649 623.3 326.376 623.487 330.17Z" fill="#11272C"/>
<path d="M833.245 321.118C832.196 320.052 834.638 312.569 835.201 310.868L835.782 311.557C835.793 315.228 834.635 317.81 833.245 321.118Z" fill="#0C1216"/>
<path d="M689.757 312.947L689.702 315.976C690.891 315.656 690.572 315.746 691.662 315.108C691.14 317.338 687.558 324.279 685.929 325.975C687.173 321.607 687.777 316.786 689.757 312.947Z" fill="#1E2037"/>
<path d="M398.307 316.836C402.992 314.601 404.933 314.511 409.911 314.488L409.992 315.128C406.543 315.963 401.922 316.395 398.307 316.836Z" fill="#0C1216"/>
<path d="M409.911 314.488C412.791 314.477 418.369 314.303 420.919 314.907L420.775 315.645C418.186 314.563 412.931 315.032 409.992 315.128L409.911 314.488Z" fill="#FDE4CF"/>
<path d="M420.919 314.907C422.573 315.137 429.826 316.106 430.778 317.287C427.474 316.955 423.855 316.796 420.775 315.645L420.919 314.907Z" fill="#2E2C32"/>
<path d="M380.934 317.907C383.132 317.475 385.636 317.112 387.711 318.112C386.948 318.412 387.319 318.378 386.606 318.289C384.93 318.094 382.666 318.019 380.934 317.907Z" fill="#6E6B6B"/>
<path d="M386.606 318.289C383.174 319.023 381.265 319.058 377.838 318.876L377.963 318.55L380.934 317.907C382.666 318.019 384.93 318.094 386.606 318.289Z" fill="#0C1216"/>
<path d="M357.277 320.394L360.029 319.857L359.483 321.039L357.467 321.02L357.277 320.394Z" fill="#6E6B6B"/>
<path d="M360.029 319.857C361.675 319.912 364.022 319.782 365.336 320.554C363.656 321.249 361.365 321.045 359.483 321.039L360.029 319.857Z" fill="#0C1216"/>
<path d="M357.467 321.02C355.25 321.356 352.389 322.018 350.298 321.565C351.677 320.263 355.328 320.415 357.277 320.394L357.467 321.02Z" fill="#FDE4CF"/>
<path d="M787.184 329.16C785.555 327.281 783.793 323.079 782.774 320.714C785.261 322.183 786.193 326.283 787.184 329.16Z" fill="#6E6B6B"/>
<path d="M825.641 332.164L825.042 331.257C825.68 327.6 826.946 324.352 828.171 320.852L828.742 321.789C828.35 324.966 826.814 329.173 825.641 332.164Z" fill="#0C1216"/>
<path d="M636.189 348.276C631.281 346.658 625.819 328.988 627.672 325.394C630.206 330.334 629.98 335.327 633.322 341.042C634.259 343.433 635.191 345.918 636.189 348.276Z" fill="#081829"/>
<path d="M584.435 372.737C582.483 383.903 588.116 411.499 592.397 422.307C595.549 430.073 599.571 437.458 604.386 444.319C609.577 451.722 619.494 462.883 626.392 469.32L624.916 469.579C619.937 464.979 615.639 460.9 610.921 456.019C590.828 435.231 581.714 405.156 582.861 376.397C583.047 373.292 583.787 365.182 584.36 362.479C585.604 356.616 591.693 328.693 593.657 325.499C593.656 325.628 591.804 335.202 591.644 335.734C587.994 347.885 584.467 359.921 584.435 372.737Z" fill="#11272C"/>
<path d="M710.406 340.448C713.365 328.153 722.866 326.459 733.73 325.368C753.077 323.425 775.908 333.302 762.876 356.725C754.722 365.431 749.466 365.038 740.005 369.611L735.941 369.113C720.403 363.873 710.507 358.244 710.406 340.448ZM720.092 331.8C712.878 335.391 713.307 342.765 714.17 349.736C716.188 355.02 717.354 356.692 722.141 360.193C728.3 363.604 730.729 364.594 737.541 366.435C737.404 362.275 734.872 351.692 737.568 348.415C739.914 345.561 749.428 344.248 752.346 347.336L752.236 348.245C749.827 350.361 743.311 350.564 739.742 351.024L740.183 366.521C752.423 362.954 764.323 356.593 763.52 341.993C763.383 339.489 763.139 337.024 761.23 335.214C754.163 325.853 729.626 327.227 720.092 331.8Z" fill="url(#paint4_linear_6_5975)"/>
<path d="M685.94 326.572L687.325 326.549C687.513 328.065 685.988 329.72 685.445 332.024L684.739 332.944L684.144 331.886C684.593 330.084 685.296 328.32 685.94 326.572Z" fill="#0C1216"/>
<path d="M318.832 330.766C324.337 329.041 326.726 328.612 332.464 328.211C336.573 328.311 339.533 328.492 343.612 328.94C339.52 329.528 334.7 329.6 330.517 329.771C326.463 330.214 322.899 330.553 318.832 330.766Z" fill="#1E2037"/>
<path d="M720.092 331.8C729.626 327.227 754.163 325.853 761.23 335.214C759.57 334.606 756.182 332.258 752.628 331.053C746.64 329.023 722.236 332.565 720.092 331.8Z" fill="#8B8EAD"/>
<path d="M714.17 349.736C713.307 342.765 712.878 335.391 720.092 331.8C722.236 332.565 746.64 329.023 752.628 331.053C756.182 332.258 759.57 334.606 761.23 335.214C763.139 337.024 763.383 339.489 763.52 341.993C764.323 356.593 752.423 362.954 740.183 366.521L739.742 351.024C743.311 350.564 749.827 350.361 752.236 348.245L752.346 347.336C749.428 344.248 739.914 345.561 737.568 348.415C734.872 351.692 737.404 362.275 737.541 366.435C730.729 364.594 728.3 363.604 722.141 360.193L723.052 359.024C723.412 359.545 723.153 359.247 723.963 359.783C724.878 358.652 725.66 355.563 726.138 354.027L729.581 350.652C731.552 350.718 731.437 350.235 732.093 348.633C729.061 345.118 726.303 345.883 722.066 346.018C720.657 344.88 721.413 345.082 719.854 344.875C717.527 345.789 715.67 347.746 714.17 349.736Z" fill="#4E4C72"/>
<path d="M842.223 350.701C841.587 348.965 844.371 333.479 844.974 331.258C847.088 334.696 843.577 346.962 842.223 350.701Z" fill="#0C1216"/>
<path d="M684.739 332.944L685.445 332.024C685.393 335.231 685.406 336.01 684.583 339.199C683.661 337.212 684.664 335.075 684.739 332.944Z" fill="#365C61"/>
<path d="M224.648 412.886C218.485 425.451 213.182 454.958 212.933 469.217C212.176 472.594 211.737 478.068 212.914 481.311L213.041 484.402L212.59 484.325C211.939 481.405 211.947 476.324 211.957 473.215C212.015 453.144 215.288 435.543 221.814 416.666C228.031 399.651 240.658 382.131 253.114 369.152C258.369 363.639 264.002 358.497 269.97 353.765C276.394 348.723 298.881 333.939 306.988 333.782C304.978 334.592 302.977 335.424 300.985 336.279C270.177 349.582 237.103 381.508 224.648 412.886Z" fill="#2E2C32"/>
<path d="M633.322 341.042L634.069 341.047C634.786 342.139 635.084 342.839 636.071 343.636L636.199 344.146L638.265 349.326C636.622 349.119 637.285 349.471 636.189 348.276C635.191 345.918 634.259 343.433 633.322 341.042Z" fill="#8EECF5"/>
<path d="M224.648 412.886C226.586 413.692 230.555 410.498 232.533 409.546C238.061 406.887 243.532 404.647 249.061 401.906C272.101 390.483 296.202 379.812 320.434 370.878C363.148 355.131 410.026 341.953 455.886 342.106C468.187 342.147 488.897 345.556 500.804 347.884C498.026 351.734 495.885 355.064 493.387 359.069C492.447 358.828 491.425 358.259 490.671 358.911C484.123 364.583 478.86 371.732 472.744 377.997C440.089 411.452 406.255 443.363 371 474.087C368.449 476.31 365.903 478.58 363.295 480.735C342.849 497.516 320.627 512.009 297.027 523.953C284.37 530.349 273.351 533.654 260.502 539.02C254.753 523.741 250.306 512.425 246.7 496.493C246.238 492.845 246.293 488.941 245.601 485.481C244.978 472.954 245.585 460.395 247.414 447.986C243.482 460.28 243.989 470.022 244.515 482.732C244.807 486.394 245.163 493.698 245.736 497.039C249.162 512.752 253.107 524.742 259.095 539.821C244.486 544.218 229.425 546.937 214.201 547.925C209.467 548.246 200.597 547.639 196.602 548.55C196.144 544.531 193.996 537.365 193.36 532.769C191.712 520.844 189.205 504.642 189.43 492.871C190.195 488.047 191.455 482.834 192.519 478.028C193.288 470.855 193.441 464.393 193.603 457.212C194.773 448.6 193.254 445.741 196.42 436.766C197.157 434.735 199.724 429.153 200.735 427.395L200.953 427.498C207.715 425.739 215.467 415.16 221.814 416.666C215.288 435.543 212.015 453.144 211.957 473.215C211.947 476.324 211.939 481.405 212.59 484.325C212.507 486.482 212.326 487.3 212.98 489.299L213.464 489.355C213.706 487.585 213.55 486.14 213.041 484.402L212.914 481.311C213.104 477.67 212.95 472.937 212.933 469.217C213.182 454.958 218.485 425.451 224.648 412.886Z" fill="#CEF2CE"/>
<path d="M318.538 344.729C320.251 344.241 321.875 343.591 323.602 343.848C322.246 344.87 320.659 345.043 318.965 345.434L318.538 344.729Z" fill="#B09C91"/>
<path d="M636.199 344.146C638.312 345.113 643.696 356.757 645.977 360.022L645.061 357.251C648.081 361.757 648.334 362.443 649.69 367.946C644.721 361.75 641.723 354.145 638.265 349.326L636.199 344.146Z" fill="#0C1216"/>
<path d="M714.17 349.736C715.67 347.746 717.527 345.789 719.854 344.875C721.413 345.082 720.657 344.88 722.066 346.018C723.547 351.127 728.553 351.475 732.093 348.633C731.437 350.235 731.552 350.718 729.581 350.652C727.6 350.517 726.449 350.109 724.864 350.893C724.743 352.06 724.8 351.996 725.287 353.085C724.554 355.309 724.073 356.892 723.052 359.024L722.141 360.193C717.354 356.692 716.188 355.02 714.17 349.736Z" fill="#424263"/>
<path d="M318.965 345.434C301.073 350.219 285.259 363.614 271.998 376.033C270.745 377.207 267.058 380.966 265.597 381.293C266.051 380.049 271.828 374.886 273.08 373.69C286.84 360.537 300.025 350.119 318.538 344.729L318.965 345.434Z" fill="#2E2C32"/>
<path d="M837.485 347.627L838.34 345.599L838.806 345.544C838.857 347.241 838.82 347.152 838.248 348.774L837.485 347.627Z" fill="#4A4F55"/>
<path d="M722.066 346.018C726.303 345.883 729.061 345.118 732.093 348.633C728.553 351.475 723.547 351.127 722.066 346.018Z" fill="#1F0F10"/>
<path d="M837.485 347.627L838.248 348.774C836.452 354.2 834.598 359.935 830.914 364.402L830.82 364.299C831.364 362.101 836.197 351.187 837.485 347.627Z" fill="#0C1216"/>
<path d="M470.99 434.718C470.889 431.708 472.277 422.67 472.817 419.71C477.587 394.338 487.929 370.341 503.097 349.449C506.809 351.236 514.335 352.183 518.619 353.372C535.261 357.99 551.23 363.553 567.07 370.419C571.319 372.261 578.488 375.485 582.861 376.397C581.714 405.156 590.828 435.231 610.921 456.019C615.639 460.9 619.937 464.979 624.916 469.579C627.415 471.849 628.094 472.446 631.036 474.225C629.293 472.164 628.431 471.146 626.392 469.32C619.494 462.883 609.577 451.722 604.386 444.319C599.571 437.458 595.549 430.073 592.397 422.307C588.116 411.499 582.483 383.903 584.435 372.737C584.508 374.432 584.354 376.632 585.299 377.888C589.202 380.623 598.524 384.537 603.33 384.108C613.32 427.619 643.864 466.075 677.479 494.313C678.827 495.78 681.872 499.049 683.743 499.494C683.118 497.571 679.796 495.065 678.149 493.817C653.622 472.264 627.159 439.333 612.595 409.72C609.349 403.119 606.342 391.296 604.681 383.82C610.104 385.9 624.201 396.262 628.821 394.604L629.411 393.898C632.442 398.996 638.026 409.219 641.295 413.473C654.425 430.559 683.194 463.325 702.516 472.633L702.635 473.137C704.271 479.864 707.191 486.823 709 493.642C713.792 511.7 718.683 530.4 719.912 549.105C720.264 554.469 718.53 570.183 721.206 573.016C717.954 581.619 714.821 590.265 710.445 598.45C698.279 621.206 676.829 642.442 653.447 653.376C645.658 657.019 637.313 658.993 629.569 662.033C628.102 658.891 634.064 644.619 635.161 640.844C638.533 629.242 649.133 611.823 652.524 601.634C661.125 575.79 663.211 534.971 650.809 510.16C645.619 499.777 640.924 493.973 632.363 486.406L632.744 486.985C636.718 492.964 642.605 498.649 645.92 504.979C659.026 530.005 658.83 558.951 653.927 586.022C650.907 602.702 643.157 614.882 636.5 629.955C623.596 659.173 620.79 688.662 620.969 720.241C620.455 720.59 619.941 720.939 619.427 721.288C616.512 727.478 612.937 735.449 609.912 741.36C591.956 776.457 559.719 815.784 522.722 831.298C518.352 799.592 515.91 767.496 505.026 736.984C501.091 725.952 495.228 715.79 490.498 705.037C485.433 693.521 482.814 682.122 479.404 670.179C465.141 620.23 466.138 567.655 482.221 517.981C484.181 512.054 486.534 506.265 489.267 500.652C490.574 497.94 492.425 494.941 493.483 492.286L493.083 492.291C489.498 497 487.187 501.157 484.93 506.656C458.632 570.746 462.69 640.337 487.112 703.588C456.132 701.787 425.311 700.125 395.632 690.099C375.211 683.201 355.81 673.921 336.548 664.302C333.666 662.863 329.709 659.429 326.45 657.509L326.104 657.77C329.591 662.164 341.312 669.018 346.423 671.779C379.296 689.541 404.711 697.824 441.264 702.576C440.97 704.349 440.409 706.08 439.919 707.814C438.896 710.326 438.897 711.41 438.649 714.085L437.648 719.844C436.004 730.319 434.339 740.414 431.951 750.747C426.772 773.156 418.71 795.327 433.81 815.957C437.505 820.925 442.373 825.458 447.79 828.484C458.217 834.309 473.785 835.419 478.776 848.08C480.75 853.089 480.993 858.17 475.343 860.405C476.234 848.063 467.136 838.939 455.012 838.378C454.491 838.355 453.97 838.336 453.448 838.321L453.872 838.525C464.413 843.534 473.953 846.068 473.512 860.842C470.807 863.557 467.85 864.495 464.326 865.879C468.194 855.356 460.38 844.877 450.847 840.806C448.471 839.791 444.053 838.145 441.527 839.13C442.387 839.73 442.405 839.53 443.442 839.812C450.512 841.783 457.265 847.176 460.962 853.528C463.461 857.821 464.165 860.787 462.734 865.448C460.449 867.724 451.142 871.045 448.087 870.253L447.639 869.619C449.63 856.56 442.963 842.863 428.001 845.33L427.983 845.701C438.297 847.19 442.803 850.784 445.958 861.01C445.674 864.367 445.988 867.749 445.865 871.128L432.794 873.395C432.588 871.419 432.417 869.69 432.073 867.736C430.656 853.546 420.497 850.264 408.591 847.85C420.405 853.191 427.027 854.329 430.173 868.919C429.665 873.914 427.701 874.485 422.818 874.28C391.559 872.967 344.24 873.195 342 831.392C341.375 819.719 343.04 810.568 336.708 799.86C327.695 783.266 331.649 766.49 333.195 748.27C334.909 729.274 333.733 710.129 329.707 691.486L328.528 686.842L328.172 686.698C328.24 689.244 328.405 690.795 328.754 693.325C331.702 710.595 332.446 728.17 330.967 745.628C329.817 758.715 327.727 768.898 328.671 782.296C329.741 797.473 338.991 804.313 339.203 818.972C333.31 821.953 327.861 824.339 321.545 826.381C318.62 827.327 314.927 828.636 313.038 831.148C312.344 830.363 311.68 829.551 311.048 828.715C305.965 822.036 302.571 812.941 300.084 805.005C288.447 767.861 303.257 739.861 313.207 705.86C317.002 693.012 319.723 679.872 321.343 666.575C321.7 663.473 321.493 660.128 321.406 656.991L320.793 656.097C320.331 657.714 320.523 659.109 320.592 660.798L320.258 664.853C317.594 681.089 312.878 699.033 307.544 714.572C293.406 755.758 283.722 787.642 307.598 828.459C302.297 829.993 290.472 831.734 284.965 832.496C264.526 835.323 230.11 839.794 210.713 834.371C206.491 833.16 202.482 831.303 198.83 828.864C196.151 827.092 194.603 825.503 191.517 824.401C191.908 812.844 195.892 798.705 197.331 786.929C207.242 705.865 175.311 626.976 169.749 546.891L170.113 545.384C172.454 544.305 178.167 547.602 182.361 547.928C182.522 549.534 182.499 551.376 183.254 552.661C183.581 550.537 183.566 549.851 183.525 547.676C187.351 547.874 191.439 547.671 195.29 547.557C197.282 556.775 199.5 562.996 202.471 571.741C203.272 573.89 204.474 576.291 205.46 578.396C204.931 575.974 203.951 573.225 203.179 570.835C201.069 565.978 198.073 553.964 196.602 548.55C200.597 547.639 209.467 548.246 214.201 547.925C229.425 546.937 244.486 544.218 259.095 539.821C272.686 576.169 287.816 611.78 301.754 647.978C302.6 650.174 303.803 653.373 304.388 655.582C305.418 658.537 306.214 661.057 307.676 663.835C306.905 660.327 306.521 658.529 305.257 655.193C292.958 617.273 275.651 576.349 260.502 539.02C273.351 533.654 284.37 530.349 297.027 523.953C320.627 512.009 342.849 497.516 363.295 480.735C365.903 478.58 368.449 476.31 371 474.087C406.255 443.363 440.089 411.452 472.744 377.997C478.86 371.732 484.123 364.583 490.671 358.911C491.425 358.259 492.447 358.828 493.387 359.069C479.822 384.154 470.843 405.611 469.987 434.981L470.08 441.022C470.11 441.93 469.96 441.554 470.426 442.186C471.078 440 470.96 439.115 470.975 436.784L470.99 434.718ZM296.014 553.602C296.05 551.641 296.363 545.757 295.176 544.363C294.848 546.542 294.934 547.83 294.978 550.055C294.953 564.571 301.339 586.412 306.896 599.956L307.293 600.245C306.629 596.673 304.893 593.607 304.044 590.462C301.775 582.061 295.932 561.558 296.014 553.602ZM313.596 555.48C313.607 554.203 313.769 552.456 312.867 551.568C312.27 553.099 312.602 553.864 312.925 555.485C313.005 557.077 313.022 559.454 313.455 560.892C313.771 566.241 319.218 590.953 322.306 593.953C322.166 592.591 319.957 585.847 319.378 583.65C317.295 576.058 315.617 568.36 314.351 560.59L313.596 555.48ZM488.23 557.097C487.954 559.543 487.803 561.626 487.664 564.069L489.479 557.445C490.765 551.513 492.712 546.214 494.584 540.454C490.878 546.463 489.143 550.049 488.23 557.097ZM353.666 591.683C353.26 590.477 352.545 587.834 351.796 587.062C352.006 589.377 352.205 590.4 352.753 592.665C358.656 608.94 361.903 613.739 373.597 626.999C374.643 628.149 376.052 630.039 377.418 630.378C376.781 628.665 375.824 627.937 374.536 626.636C364.597 617.122 358.222 604.5 353.666 591.683ZM195.708 604.789C191.684 592.583 187.691 580.542 184.6 568.061C183.998 565.631 183.326 563.07 182.563 560.691C182.941 570.467 187.334 584.489 190.667 593.784C191.726 596.737 194.111 602.413 194.842 605.112C195.708 607.299 196.276 609.196 197.722 611.034C197.581 609.128 196.435 606.644 195.708 604.789ZM192.754 627.402C192.445 624.608 191.01 616.082 190.126 613.592L189.988 613.693L189.964 614.174C189.789 617.288 190.977 624.419 191.891 627.476C193.956 644.101 197.283 659.624 203.542 675.21C204.292 677.125 204.691 678.493 205.931 680.128C205.982 678.355 204.781 675.545 204.147 673.756C200.552 666.842 194.448 636.495 192.754 627.402ZM491.965 628.92L495.117 605.004C491.376 614.202 490.811 620.063 490.974 630.08L490.87 631.563L491.222 633.853L491.668 634.045C491.975 632.885 492.018 632.797 492.161 631.601L491.965 628.92ZM355.939 636.626C353.706 631.719 352.459 628.583 350.753 623.505C350.98 628.012 353.36 633.555 355.356 637.599C358.421 644.203 370.039 664.412 375.901 667.893C375.849 667.574 367.941 657.131 367.014 655.792C362.633 649.47 359.367 643.443 355.939 636.626ZM502.581 659.804C502.478 652.63 502.406 646.613 501.533 639.449C499.47 650.276 500.16 658.628 502.168 669.539L502.236 670.352L502.621 670.622C503.258 668.255 502.857 662.322 502.581 659.804ZM514.609 700.783C514.347 697.967 513.195 679.993 511.833 678.838C510.951 685.633 512.99 698.414 514.086 705.63C514.005 706.907 513.839 708.469 514.467 709.529C515.34 706.115 515.147 704.258 514.609 700.783ZM218.179 746.081C216.52 741.513 208.629 712.759 207.294 711.49L206.945 712.133C207.32 715.494 209.65 722.033 210.756 725.473C212.988 732.276 215.13 739.109 217.179 745.969C217.646 747.925 217.937 749.923 219.045 751.567C219.282 749.899 218.596 747.794 218.179 746.081ZM205.408 746.255C205.22 744.676 205.13 742.271 204.312 741.059C203.917 742.911 204.332 746.317 204.915 748.06C205.733 753.625 206.458 759.204 207.091 764.794C207.388 768.254 207.612 772.305 208.406 775.642C208.483 772.703 208.799 767.18 208.217 764.52C207.671 757.764 206.283 752.697 205.408 746.255ZM535.288 755.087C530.704 740.882 526.412 725.249 521.315 711.347C523.2 723.589 527.43 733.737 531.088 745.485C531.96 748.284 533.722 752.888 534.36 755.577C535.044 757.468 536.353 760.787 536.892 762.616C537.783 765.264 538.173 766.866 539.704 769.23L539.658 768.232L539.416 768.765L539.845 768.893L539.868 769.234L539.313 768.553L539.666 768.141C539.138 766.079 538.453 764.353 537.714 762.367L535.288 755.087ZM334.478 681.207C337.453 688.909 340.962 696.798 343.053 704.762C347.712 722.512 349.485 742.633 351.124 760.972C351.484 765.5 351.899 772.512 352.852 776.753C352.968 773.079 352.894 764.694 352.125 761.101C349.029 736.86 349.151 701.466 334.478 681.207ZM330.047 570.381C331.694 580.488 339.516 605.44 346.626 612.132C342.478 603.682 339.635 597.75 336.457 588.818C335.363 585.746 331.108 572.334 330.047 570.381ZM494.277 572.393C489.556 580.115 487.081 588.533 487.492 598.262C487.554 598.379 487.616 598.496 487.678 598.613C488.281 595.618 494.262 572.158 494.277 572.393ZM324.918 603.295C326.356 613.929 335.091 639.192 342.473 647.031C340.801 642.379 335.42 634.213 333.116 627.829C331.494 623.333 325.981 605.003 324.918 603.295ZM383.583 620.819C393.398 639.524 405.837 656.761 419.909 672.476C421.914 674.714 426.989 680.501 429.563 681.675C416.579 666.939 403.856 652.763 393.666 635.901C391.952 633.065 385.552 622.114 383.583 620.819ZM377.984 643.925C381.674 652.557 401.946 680.417 409.668 683.075C401.476 674.706 395.074 668.199 388.118 658.725C385.963 655.789 379.586 645.634 377.984 643.925ZM211.57 668.895C212.843 679.024 216.22 689.123 217.835 699.022L218.391 699.616C218.728 694.959 213.608 672.92 211.57 668.895Z" fill="url(#paint5_linear_6_5975)"/>
<path d="M682.609 352.862L683.416 350.675L683.78 350.636C684.222 353.269 684.026 355.27 683.926 357.924C683.149 357.109 682.867 354.243 682.609 352.862Z" fill="#11272C"/>
<path d="M725.287 353.085C724.8 351.996 724.743 352.06 724.864 350.893C726.449 350.109 727.6 350.517 729.581 350.652L726.138 354.027L725.287 353.085Z" fill="#5F5C7F"/>
<path d="M696.075 386.794C683.443 376.807 680.776 368.302 682.609 352.862C682.867 354.243 683.149 357.109 683.926 357.924C685.157 367.97 686.875 375.58 695.195 382.312C706.455 391.422 724.245 386.765 736.035 381.125C736.215 377.759 736.425 372.47 735.941 369.113L740.005 369.611C739.828 373.394 739.584 377.347 739.524 381.117C751.242 385.243 765.723 391.364 777.589 384.314C785.773 377.969 788.123 370.805 791.568 361.457C792.022 362.482 792.627 363.74 793.012 364.765C788.676 386.179 773.021 394.237 752.329 388.672C747.447 387.259 743.319 385.781 738.564 384.056C724.146 389.282 713.035 393.998 697.942 387.626C703.843 400.166 710.889 407.254 723.975 411.983C742.875 418.814 761.042 412.376 774.195 397.942C774.767 397.313 774.608 397.478 775.328 397.031C774.777 400.884 768.524 406.606 765.416 408.925C759.621 413.176 752.867 415.93 745.753 416.945C734.231 417.582 725.416 416.773 715.112 410.954C705.809 405.749 698.959 397.057 696.075 386.794Z" fill="#1E2037"/>
<path d="M725.287 353.085L726.138 354.027C725.66 355.563 724.878 358.652 723.963 359.783C723.153 359.247 723.412 359.545 723.052 359.024C724.073 356.892 724.554 355.309 725.287 353.085Z" fill="#5F5C7F"/>
<path d="M740.005 369.611C749.466 365.038 754.722 365.431 762.876 356.725C767.61 363.218 771.91 368.94 774.959 376.488C776.082 379.268 776.63 381.759 777.589 384.314C765.723 391.364 751.242 385.243 739.524 381.117C739.584 377.347 739.828 373.394 740.005 369.611Z" fill="#98F5E1"/>
<path d="M658.839 373.892C653.676 369.382 649.82 362.301 647.17 356.049C650.151 358.533 651.164 360.068 653.487 363.169C656.342 366.433 663.336 374.867 664.443 378.988L663.957 379.488C662.226 379.05 659.978 375.477 658.839 373.892C659.131 373.314 658.971 373.713 659.093 372.627C657.393 369.355 653.546 364.192 651.057 361.406L650.785 362.127C653.169 366.04 657.065 370.22 658.839 373.892Z" fill="#11272C"/>
<path d="M791.568 361.457L792.242 359.369L792.697 359.328C793.304 361.761 793.224 362.243 793.012 364.765C792.627 363.74 792.022 362.482 791.568 361.457Z" fill="#2E2C32"/>
<path d="M600.344 364.849C600.154 363.484 599.812 362.34 600.327 361.113C601.325 362.858 601.245 364.096 601.451 366.16L600.344 364.849Z" fill="#72B6A2"/>
<path d="M658.839 373.892C657.065 370.22 653.169 366.04 650.785 362.127L651.057 361.406C653.546 364.192 657.393 369.355 659.093 372.627C658.971 373.713 659.131 373.314 658.839 373.892Z" fill="#A3C4F3"/>
<path d="M813.562 379.357L813.076 378.782C814.955 373.672 816.834 369.779 818.678 364.312C819.089 364.684 819.098 364.916 819.359 365.482C818.948 369.484 816.338 376.444 813.562 379.357Z" fill="#0C1216"/>
<path d="M600.344 364.849L601.451 366.16L601.878 369.549L600.936 369.581C600.642 368.114 600.506 366.363 600.344 364.849Z" fill="#365C61"/>
<path d="M600.936 369.581L601.878 369.549C602.757 374.317 603.691 379.074 604.681 383.82C606.342 391.296 609.349 403.119 612.595 409.72C627.159 439.333 653.622 472.264 678.149 493.817L677.479 494.313C643.864 466.075 613.32 427.619 603.33 384.108C602.347 379.036 601.51 374.742 600.936 369.581Z" fill="#11272C"/>
<path d="M675.862 383.139C671.446 382.374 663.706 375.288 663.006 370.386C665.565 371.504 672.275 380.042 675.862 383.139Z" fill="#081829"/>
<path d="M804.029 388.365C802.687 385.605 808.493 374.92 810.027 371.361C810.923 375.698 806.337 384.592 804.029 388.365Z" fill="#1E2037"/>
<path d="M629.411 393.898C626.687 388.492 624.103 384.077 622.029 378.366L622.032 378.516L622.622 378.707C625.39 384.242 628.26 389.724 631.231 395.153C645.623 421.857 675.96 451.394 700.325 469.362C701.19 470.42 702.139 471.353 702.516 472.633C683.194 463.325 654.425 430.559 641.295 413.473C638.026 409.219 632.442 398.996 629.411 393.898Z" fill="#11272C"/>
<path d="M752.329 388.672L752.185 390.38C756.053 394.177 767.657 394.492 772.624 392.808C774.328 394.572 774.737 394.763 775.328 397.031C774.608 397.478 774.767 397.313 774.195 397.942C761.042 412.376 742.875 418.814 723.975 411.983C710.889 407.254 703.843 400.166 697.942 387.626C713.035 393.998 724.146 389.282 738.564 384.056C743.319 385.781 747.447 387.259 752.329 388.672Z" fill="#98F5E1"/>
<path d="M772.624 392.808C778.274 391.824 799.156 388.577 803.745 389.993C812.637 392.737 816.554 395.762 826.983 396.844C819.525 404.481 810.57 411.778 803.809 418.893C797.823 418.044 793.584 421.315 788.446 421.721C775.732 422.724 759.923 422.1 747.43 419.249C746.327 418.997 746.198 417.981 745.753 416.945C752.867 415.93 759.621 413.176 765.416 408.925C768.524 406.606 774.777 400.884 775.328 397.031C774.737 394.763 774.328 394.572 772.624 392.808Z" fill="#CEF2CE"/>
<path d="M631.231 395.153C634.314 395.551 642.41 399.549 644.805 401.294L645.174 401.517C650.715 404.792 657.426 406.96 662.849 410.295C675.425 418.027 686.008 431.141 692.892 444.028C695.513 448.933 700.389 463.941 700.325 469.362C675.96 451.394 645.623 421.857 631.231 395.153Z" fill="#B9FBC0"/>
<path d="M811.638 414.881C817.937 409.283 822.958 404.728 828.943 398.833C831.427 401.256 836.943 404.294 840.082 406.395C844.46 409.375 848.724 412.518 852.866 415.819C866.621 426.605 884.756 444.118 896.892 456.826C874.402 485.559 837.11 518.405 804.21 537.046C803.721 537.324 802.642 536.777 802.07 536.576C803.427 521.847 805.065 508.94 805.831 493.914L808.075 447.57C808.354 442.473 808.48 436.391 808.896 431.452C809.444 424.965 813.203 422.697 811.638 414.881Z" fill="#CEF2CE"/>
<path d="M200.735 427.395C199.724 429.153 197.157 434.735 196.42 436.766L195.761 435.641C200.307 423.744 204.364 412.442 212.433 402.392L212.864 402.591C208.236 410.501 203.917 417.986 200.947 426.753L200.735 427.395Z" fill="#1E2037"/>
<path d="M809.31 417.113C810.095 415.95 810.526 415.776 811.638 414.881C813.203 422.697 809.444 424.965 808.896 431.452C808.48 436.391 808.354 442.473 808.075 447.57L805.831 493.914C805.065 508.94 803.427 521.847 802.07 536.576C797.462 573.596 791.619 604.313 780.273 639.839C766.265 683.705 745.295 726.905 745.521 773.666C745.682 787.305 747.933 800.848 750.799 814.117C755.246 828.37 758.059 832.053 771.544 838.912C783.778 845.134 801.755 851.638 806.385 865.946C811.273 881.049 791.313 887.45 781.122 890.285C752.552 898.233 723.34 898.592 695.692 887.21C693.733 886.352 690.987 885.395 688.843 885.291C687.793 883.454 687.812 883.363 687.712 881.2C690.418 882.203 693.114 883.231 695.801 884.283C717.11 894.68 752.469 895.868 775.379 889.27C777.669 875.627 769.316 870.452 759.76 862.938C771.203 867.077 780.55 875.009 778.512 888.413C782.461 887.249 786.39 886.017 790.297 884.718C799.043 870.455 784.359 864.817 775.207 858.753C775.67 858.868 776.133 858.988 776.594 859.112C789.587 862.62 798.243 869.322 793.586 883.937C826.865 862.968 775.624 845.088 761.769 836.274C750.345 829.006 748.397 817.266 746.279 804.614C743.592 791.107 742.835 774.207 743.433 760.504C746.904 720.94 760.077 691.259 772.688 654.181C785.504 616.5 793.329 584.827 798.252 545.338C799.258 542.158 801.147 517.32 801.449 512.922L806.411 434.632C804.688 437.863 803.042 440.906 801.186 444.061L800.535 444.013C800 444.808 797.79 448.199 797.245 448.735C795.601 449.473 792.143 454.066 790.872 455.721C782.366 466.799 773.314 475.31 761.11 482.48C761.535 481.584 761.621 480.965 761.873 479.978C763.181 478.622 767.106 476.154 768.984 474.768C781.568 465.476 810.495 432.898 809.31 417.113Z" fill="#161E48"/>
<path d="M469.987 434.981L470.99 434.718L470.975 436.784L470.08 441.022L469.987 434.981Z" fill="#4B8778"/>
<path d="M192.982 453.483C192.794 447.535 194.023 441.298 195.761 435.641L196.42 436.766C193.254 445.741 194.773 448.6 193.603 457.212L192.982 453.483Z" fill="#6D7D6F"/>
<path d="M801.186 444.061C803.042 440.906 804.688 437.863 806.411 434.632L801.449 512.922C801.147 517.32 799.258 542.158 798.252 545.338L797.563 544.283C794.889 544.168 771.321 562.501 768 565.328C738.674 590.293 738.037 628.26 732.642 663.265C729.879 681.002 725.244 699.717 720.681 717.147C717.505 729.359 715.815 739.592 711.86 751.972L711.604 752.053C699.852 746.88 690.009 740.627 679.35 733.504C673.341 729.488 665.416 717.41 660.445 716.742C660.447 715.192 660.285 713.655 660.158 712.109C659.314 698.752 662.711 674.828 664.353 660.826C660.094 672.848 659.143 696.276 658.906 709.005C653.539 707.813 641.381 685.596 637.749 680.823C636.837 680.486 636.078 680.206 635.472 679.983C635.507 678.311 635.809 676.13 635.993 674.432C636.203 672.384 636.274 671.769 636.118 669.742C635.316 670.588 634.979 672.696 634.625 674.017C630.517 688.817 633.961 720.736 638.212 734.802C643.412 752.004 647.905 766.24 649.898 784.247C650.942 793.463 651.511 802.726 651.603 812.001C651.66 823.783 650.92 834.542 652.837 846.209C621.348 813.441 622.072 736.142 624.424 693.18C624.913 684.243 625.649 674.045 627.89 665.366C628.188 664.213 628.953 664.204 629.922 663.823C633.675 663.317 639.603 661.33 643.333 660.036C672.538 649.9 698.84 625.917 713.274 598.71C718.505 588.851 721.4 577.57 725.634 567.275C731.417 552.608 736.421 544.781 745.692 532.6C753.188 523.789 764.128 511.154 770.666 501.964C782.637 485.14 793.573 463.14 801.186 444.061Z" fill="#8EECF5"/>
<path d="M470.08 441.022L470.975 436.784C470.96 439.115 471.078 440 470.426 442.186C469.96 441.554 470.11 441.93 470.08 441.022Z" fill="#72B6A2"/>
<path d="M189.227 820.336C188.732 818.822 183.31 815.771 181.776 814.724C100.438 759.2 62.186 652.466 94.679 558.645C107.429 521.831 129.203 489.465 157.105 462.012C162.832 456.377 172.473 446.349 179.677 442.847C172.836 465.972 166.645 495.276 167.018 519.435C164.743 553.924 171.015 586.581 177.595 620.13C189.041 678.486 203.693 739.942 192.496 799.457C191.206 806.32 190.558 813.467 189.227 820.336Z" fill="#8EECF5"/>
<path d="M797.245 448.735C797.79 448.199 800 444.808 800.535 444.013L801.186 444.061C793.573 463.14 782.637 485.14 770.666 501.964C764.128 511.154 753.188 523.789 745.692 532.6L744.88 531.9C752.115 522.713 761.308 512.079 767.896 502.686C779.346 486.359 789.204 467.002 797.245 448.735Z" fill="#0C1216"/>
<path d="M244.515 482.732C243.989 470.022 243.482 460.28 247.414 447.986C245.585 460.395 244.978 472.954 245.601 485.481L244.515 482.732Z" fill="#2E2C32"/>
<path d="M740.766 450.656C744.519 450.565 747.615 450.467 751.34 450.089L752.464 450.913C747.307 451.677 745.827 451.866 740.766 450.656Z" fill="#365C61"/>
<path d="M192.982 453.483L193.603 457.212C193.441 464.393 193.288 470.855 192.519 478.028L191.248 478.721C192.136 470.538 191.782 462.408 192.982 453.483Z" fill="#0C1216"/>
<path d="M626.392 469.32C628.431 471.146 629.293 472.164 631.036 474.225C628.094 472.446 627.415 471.849 624.916 469.579L626.392 469.32Z" fill="#4B8778"/>
<path d="M212.914 481.311C211.737 478.068 212.176 472.594 212.933 469.217C212.95 472.937 213.104 477.67 212.914 481.311Z" fill="#6D7D6F"/>
<path d="M191.248 478.721L192.519 478.028C191.455 482.834 190.195 488.047 189.43 492.871L188.54 495.214C188.432 491.536 190.552 483.06 191.248 478.721Z" fill="#6D7D6F"/>
<path d="M761.11 482.48C754.426 486.043 745.758 491.203 739.187 494.259C739.619 492.989 758.766 481.932 761.873 479.978C761.621 480.965 761.535 481.584 761.11 482.48Z" fill="#11272C"/>
<path d="M244.515 482.732L245.601 485.481C246.293 488.941 246.238 492.845 246.7 496.493L245.736 497.039C245.163 493.698 244.807 486.394 244.515 482.732Z" fill="#4A4F55"/>
<path d="M212.59 484.325L213.041 484.402C213.55 486.14 213.706 487.585 213.464 489.355L212.98 489.299C212.326 487.3 212.507 486.482 212.59 484.325Z" fill="#829B8E"/>
<path d="M632.363 486.406C640.924 493.973 645.619 499.777 650.809 510.16C663.211 534.971 661.125 575.79 652.524 601.634C649.133 611.823 638.533 629.242 635.161 640.844C634.064 644.619 628.102 658.891 629.569 662.033L629.165 663.285L629.922 663.823C628.953 664.204 628.188 664.213 627.89 665.366C625.649 674.045 624.913 684.243 624.424 693.18C622.072 736.142 621.348 813.441 652.837 846.209C650.92 834.542 651.66 823.783 651.603 812.001C651.511 802.726 650.942 793.463 649.898 784.247C647.905 766.24 643.412 752.004 638.212 734.802C633.961 720.736 630.517 688.817 634.625 674.017L635.993 674.432C635.809 676.13 635.507 678.311 635.472 679.983C634.576 697.072 635.14 710.168 638.747 727.172C641.206 738.76 644.88 749.073 647.779 760.356C650.372 770.829 652.136 781.491 653.053 792.241C653.769 799.86 654.111 807.509 654.078 815.161C653.991 824.72 653.264 834.455 654.746 843.917C655.631 849.568 658.868 851.632 663.109 854.739C670.233 860.249 685.603 871.764 687.712 881.2C687.812 883.363 687.793 883.454 688.843 885.291L688.978 886.335L687.433 887.093L686.937 885.473C679.223 864.531 662.581 860.774 650.718 848.158C623.148 818.837 621.063 757.785 620.969 720.241C620.79 688.662 623.596 659.173 636.5 629.955C643.157 614.882 650.907 602.702 653.927 586.022C658.83 558.951 659.026 530.005 645.92 504.979C642.605 498.649 636.718 492.964 632.744 486.985L632.363 486.406Z" fill="#161E48"/>
<path d="M441.264 702.576C404.711 697.824 379.296 689.541 346.423 671.779C341.312 669.018 329.591 662.164 326.104 657.77L326.45 657.509C329.709 659.429 333.666 662.863 336.548 664.302C355.81 673.921 375.211 683.201 395.632 690.099C425.311 700.125 456.132 701.787 487.112 703.588C462.69 640.337 458.632 570.746 484.93 506.656C487.187 501.157 489.498 497 493.083 492.291L493.483 492.286C492.425 494.941 490.574 497.94 489.267 500.652C486.534 506.265 484.181 512.054 482.221 517.981C466.138 567.655 465.141 620.23 479.404 670.179C482.814 682.122 485.433 693.521 490.498 705.037C495.228 715.79 501.091 725.952 505.026 736.984C515.91 767.496 518.352 799.592 522.722 831.298C524.565 846.147 526.129 866.52 530.684 880.397C535.682 895.626 559.33 900.337 572.157 905.268C578.837 907.714 587.72 911.103 594.556 912.707C599.712 913.931 604.996 914.537 610.295 914.513C615.55 893.144 596.789 893.305 583.245 886.563C592.021 887.742 604.99 890.128 610.814 897.485C613.555 900.91 614.73 905.329 614.053 909.662C613.749 911.553 613.05 912.927 612.202 914.62C619.803 914.54 625.637 913.737 632.874 913.401L635.216 913.151C641.008 912.515 646.812 912.039 652.373 910.292C659.454 900.092 656.749 886.446 645.788 880.193C644.021 879.185 640.246 878.399 639.169 877.043C641.282 876.244 648.441 879.244 650.293 880.597C660.496 888.051 662.145 899.919 655.301 909.844C661.526 908.866 666.739 907.734 671.995 904.11C679.568 888.22 667.286 877.277 656.179 868.57C666.791 872.786 672.401 878.595 676.109 889.26C677.664 897.158 675.399 898.105 675.796 902.731C678.491 902.901 681.837 900.825 683.746 899.003C687.028 895.872 687.334 891.379 687.433 887.093L688.978 886.335C692.1 901.107 682.714 902.966 671.816 907.78C657.626 913.896 641.437 915.241 626.226 916.502C610.544 917.801 595.547 917.62 580.806 911.442C577.006 909.85 572.278 908.577 568.357 907.164C548.32 899.943 533.042 898.092 526.151 875.515C523.654 862.414 521.843 847.795 520.355 834.596C517.031 803.584 512.997 768.582 502.968 739.09C499.382 728.543 492.532 717.337 488.256 705.997C472.046 704.829 457.616 704.037 441.264 702.576Z" fill="#161E48"/>
<path d="M188.54 495.214L189.43 492.871C189.205 504.642 191.712 520.844 193.36 532.769C193.996 537.365 196.144 544.531 196.602 548.55C198.073 553.964 201.069 565.978 203.179 570.835L202.471 571.741C199.5 562.996 197.282 556.775 195.29 547.557C194.338 542.254 192.712 536.512 191.706 530.977C189.649 519.166 188.59 507.203 188.54 495.214Z" fill="#0C1216"/>
<path d="M677.479 494.313L678.149 493.817C679.796 495.065 683.118 497.571 683.743 499.494C681.872 499.049 678.827 495.78 677.479 494.313Z" fill="#72B6A2"/>
<path d="M245.736 497.039L246.7 496.493C250.306 512.425 254.753 523.741 260.502 539.02C275.651 576.349 292.958 617.273 305.257 655.193L304.388 655.582C303.803 653.373 302.6 650.174 301.754 647.978C287.816 611.78 272.686 576.169 259.095 539.821C253.107 524.742 249.162 512.752 245.736 497.039Z" fill="#081829"/>
<path d="M178.886 519.513L177.714 520.402C177.514 519.9 176.541 509.204 176.419 507.973L177.78 507.178L177.726 506.939L176.381 507.188L177.614 506.466L177.558 506.231L176.364 506.386V506.114L177.377 505.534L176.374 505.558L177.245 505.086L176.407 504.974L177.097 504.654L176.694 504.042C177.684 507.146 178.449 515.84 178.886 519.513Z" fill="#6D7D6F"/>
<path d="M167.018 519.435C170.721 520.704 168.582 524.209 169.102 528.061C169.163 530.999 169.319 544.613 169.749 546.891C175.311 626.976 207.242 705.865 197.331 786.929C195.892 798.705 191.908 812.844 191.517 824.401C191.257 828.288 191.049 832.124 191.05 835.854C191.055 857.704 208.782 875.268 229.377 879.76C230.321 879.966 237.359 881.677 237.812 881.908C239.935 883.838 249.872 884.359 253.121 884.458L253.574 884.142L254.046 884.138C260.612 884.132 274.087 886.182 279.87 883.844L281.826 884.388C289.039 884.629 296.256 884.045 303.336 882.647C303.332 877.12 301.666 870.102 299.372 865.077C295.02 855.546 289.859 852.905 280.87 849.456C300.443 852.538 303.771 865.307 306.187 882.432C311.238 882.014 314.563 881.522 319.421 880.196C321.759 874.709 321.377 868.173 319.04 862.786C315.095 853.692 309.279 850.302 300.897 846.707C309.91 844.921 321.146 856.956 322.638 865.502C323.609 871.064 323.728 873.299 322.738 878.892C326.604 877.912 332.221 876.726 334.406 873.256C340.015 864.353 329.611 851.731 323.601 845.887C317.618 840.07 312.304 834.862 307.598 828.459C283.722 787.642 293.406 755.758 307.544 714.572C312.878 699.033 317.594 681.089 320.258 664.853L321.343 666.575C319.723 679.872 317.002 693.012 313.207 705.86C303.257 739.861 288.447 767.861 300.084 805.005C302.571 812.941 305.965 822.036 311.048 828.715C311.68 829.551 312.344 830.363 313.038 831.148C319.247 838.016 325.565 843.57 331.654 850.072C335.386 855.246 339.045 862.009 338.699 868.534C338.226 877.451 331.075 879.159 323.995 880.964C300.656 886.913 274.837 887.978 250.898 886.02C231.378 884.423 211.385 879.872 198.552 863.931C187.238 850.006 187.603 837.157 189.227 820.336C190.558 813.467 191.206 806.32 192.496 799.457C203.693 739.942 189.041 678.486 177.595 620.13C171.015 586.581 164.743 553.924 167.018 519.435Z" fill="#161E48"/>
<path d="M177.714 520.402L178.886 519.513C179.888 526.66 181.506 540.208 183.279 546.706L182.467 547.541C180.594 537.182 178.899 531.572 177.714 520.402Z" fill="#0C1216"/>
<path d="M721.206 573.016C729.141 554.438 732.082 547.665 744.88 531.9L745.692 532.6C736.421 544.781 731.417 552.608 725.634 567.275C721.4 577.57 718.505 588.851 713.274 598.71C698.84 625.917 672.538 649.9 643.333 660.036C639.603 661.33 633.675 663.317 629.922 663.823L629.165 663.285L629.569 662.033C637.313 658.993 645.658 657.019 653.447 653.376C676.829 642.442 698.279 621.206 710.445 598.45C714.821 590.265 717.954 581.619 721.206 573.016Z" fill="url(#paint6_linear_6_5975)"/>
<path d="M488.23 557.097C489.143 550.049 490.878 546.463 494.584 540.454C492.712 546.214 490.765 551.513 489.479 557.445L488.23 557.097Z" fill="#0C1216"/>
<path d="M294.978 550.055C294.934 547.83 294.848 546.542 295.176 544.363C296.363 545.757 296.05 551.641 296.014 553.602L294.978 550.055Z" fill="#72B6A2"/>
<path d="M711.86 751.972C715.815 739.592 717.505 729.359 720.681 717.147C725.244 699.717 729.879 681.002 732.642 663.265C738.037 628.26 738.674 590.293 768 565.328C771.321 562.501 794.889 544.168 797.563 544.283L798.252 545.338C793.329 584.827 785.504 616.5 772.688 654.181C760.077 691.259 746.904 720.94 743.433 760.504C742.671 759.998 741.358 759.192 740.472 759.02C730.617 757.107 721.456 754.943 711.86 751.972Z" fill="#E9E1FB"/>
<path d="M183.279 546.706L183.525 547.676C183.566 549.851 183.581 550.537 183.254 552.661C182.499 551.376 182.522 549.534 182.361 547.928L182.467 547.541L183.279 546.706Z" fill="#548990"/>
<path d="M294.978 550.055L296.014 553.602C295.932 561.558 301.775 582.061 304.044 590.462C304.893 593.607 306.629 596.673 307.293 600.245L306.896 599.956C301.339 586.412 294.953 564.571 294.978 550.055Z" fill="#365C61"/>
<path d="M312.925 555.485C312.602 553.864 312.27 553.099 312.867 551.568C313.769 552.456 313.607 554.203 313.596 555.48L312.925 555.485Z" fill="#72B6A2"/>
<path d="M312.925 555.485L313.596 555.48L314.351 560.59L313.455 560.892C313.022 559.454 313.005 557.077 312.925 555.485Z" fill="#365C61"/>
<path d="M487.664 564.069C487.803 561.626 487.954 559.543 488.23 557.097L489.479 557.445L487.664 564.069Z" fill="#365C61"/>
<path d="M182.563 560.691C183.326 563.07 183.998 565.631 184.6 568.061C187.691 580.542 191.684 592.583 195.708 604.789L194.842 605.112C194.111 602.413 191.726 596.737 190.667 593.784C187.334 584.489 182.941 570.467 182.563 560.691Z" fill="#0C1216"/>
<path d="M313.455 560.892L314.351 560.59C315.617 568.36 317.295 576.058 319.378 583.65C319.957 585.847 322.166 592.591 322.306 593.953C319.218 590.953 313.771 566.241 313.455 560.892Z" fill="#11272C"/>
<path d="M346.626 612.132C339.516 605.44 331.694 580.488 330.047 570.381C331.108 572.334 335.363 585.746 336.457 588.818C339.635 597.75 342.478 603.682 346.626 612.132Z" fill="#0C1216"/>
<path d="M203.179 570.835C203.951 573.225 204.931 575.974 205.46 578.396C204.474 576.291 203.272 573.89 202.471 571.741L203.179 570.835Z" fill="#365C61"/>
<path d="M487.678 598.613C487.616 598.496 487.554 598.379 487.492 598.262C487.081 588.533 489.556 580.115 494.277 572.393C494.262 572.158 488.281 595.618 487.678 598.613Z" fill="#081829"/>
<path d="M353.666 591.683L352.753 592.665C352.205 590.4 352.006 589.377 351.796 587.062C352.545 587.834 353.26 590.477 353.666 591.683Z" fill="#365C61"/>
<path d="M352.753 592.665L353.666 591.683C358.222 604.5 364.597 617.122 374.536 626.636L373.597 626.999C361.903 613.739 358.656 608.94 352.753 592.665Z" fill="#11272C"/>
<path d="M342.473 647.031C335.091 639.192 326.356 613.929 324.918 603.295C325.981 605.003 331.494 623.333 333.116 627.829C335.42 634.213 340.801 642.379 342.473 647.031Z" fill="#548990"/>
<path d="M195.708 604.789C196.435 606.644 197.581 609.128 197.722 611.034C196.276 609.196 195.708 607.299 194.842 605.112L195.708 604.789Z" fill="#365C61"/>
<path d="M491.965 628.92L490.974 630.08C490.811 620.063 491.376 614.202 495.117 605.004L491.965 628.92Z" fill="#081829"/>
<path d="M191.891 627.476C190.977 624.419 189.789 617.288 189.964 614.174L189.988 613.693L190.126 613.592C191.01 616.082 192.445 624.608 192.754 627.402L191.891 627.476Z" fill="#6AAEBC"/>
<path d="M429.563 681.675C426.989 680.501 421.914 674.714 419.909 672.476C405.837 656.761 393.398 639.524 383.583 620.819C385.552 622.114 391.952 633.065 393.666 635.901C403.856 652.763 416.579 666.939 429.563 681.675Z" fill="#0C1216"/>
<path d="M355.939 636.626L355.356 637.599C353.36 633.555 350.98 628.012 350.753 623.505C352.459 628.583 353.706 631.719 355.939 636.626Z" fill="#447988"/>
<path d="M373.597 626.999L374.536 626.636C375.824 627.937 376.781 628.665 377.418 630.378C376.052 630.039 374.643 628.149 373.597 626.999Z" fill="#72B6A2"/>
<path d="M191.891 627.476L192.754 627.402C194.448 636.495 200.552 666.842 204.147 673.756L203.542 675.21C197.283 659.624 193.956 644.101 191.891 627.476Z" fill="#0C1216"/>
<path d="M490.974 630.08L491.965 628.92L492.161 631.601L490.87 631.563L490.974 630.08Z" fill="#4B8778"/>
<path d="M490.87 631.563L492.161 631.601C492.018 632.797 491.975 632.885 491.668 634.045L491.222 633.853L490.87 631.563Z" fill="#72B6A2"/>
<path d="M355.356 637.599L355.939 636.626C359.367 643.443 362.633 649.47 367.014 655.792C367.941 657.131 375.849 667.574 375.901 667.893C370.039 664.412 358.421 644.203 355.356 637.599Z" fill="#11272C"/>
<path d="M501.533 639.449C502.406 646.613 502.478 652.63 502.581 659.804C502.454 662.989 502.377 666.377 502.168 669.539C500.16 658.628 499.47 650.276 501.533 639.449Z" fill="#081829"/>
<path d="M409.668 683.075C401.946 680.417 381.674 652.557 377.984 643.925C379.586 645.634 385.963 655.789 388.118 658.725C395.074 668.199 401.476 674.706 409.668 683.075Z" fill="#26434C"/>
<path d="M305.257 655.193C306.521 658.529 306.905 660.327 307.676 663.835C306.214 661.057 305.418 658.537 304.388 655.582L305.257 655.193Z" fill="#365C61"/>
<path d="M321.406 656.991C321.158 658.233 320.927 659.589 320.592 660.798C320.523 659.109 320.331 657.714 320.793 656.097L321.406 656.991Z" fill="#6AAEBC"/>
<path d="M320.592 660.798C320.927 659.589 321.158 658.233 321.406 656.991C321.493 660.128 321.7 663.473 321.343 666.575L320.258 664.853L320.592 660.798Z" fill="#26434C"/>
<path d="M502.581 659.804C502.857 662.322 503.258 668.255 502.621 670.622L502.236 670.352L502.168 669.539C502.377 666.377 502.454 662.989 502.581 659.804Z" fill="#4B8778"/>
<path d="M658.906 709.005C659.143 696.276 660.094 672.848 664.353 660.826C662.711 674.828 659.314 698.752 660.158 712.109L659.729 714.35L658.985 713.635L658.906 709.005Z" fill="#0C1216"/>
<path d="M218.391 699.616L217.835 699.022C216.22 689.123 212.843 679.024 211.57 668.895C213.608 672.92 218.728 694.959 218.391 699.616Z" fill="#11272C"/>
<path d="M634.625 674.017C634.979 672.696 635.316 670.588 636.118 669.742C636.274 671.769 636.203 672.384 635.993 674.432L634.625 674.017Z" fill="#0C1216"/>
<path d="M204.147 673.756C204.781 675.545 205.982 678.355 205.931 680.128C204.691 678.493 204.292 677.125 203.542 675.21L204.147 673.756Z" fill="#365C61"/>
<path d="M514.086 705.63C512.99 698.414 510.951 685.633 511.833 678.838C513.195 679.993 514.347 697.967 514.609 700.783L514.086 705.63Z" fill="#11272C"/>
<path d="M635.472 679.983C636.078 680.206 636.837 680.486 637.749 680.823C641.381 685.596 653.539 707.813 658.906 709.005L658.985 713.635C659.173 716.685 659.231 721.175 660.077 723.947C660.71 722.261 660.479 718.661 660.445 716.742C665.416 717.41 673.341 729.488 679.35 733.504C690.009 740.627 699.852 746.88 711.604 752.053C705.453 773.901 696.404 810.097 695.418 832.145L694.968 832.622C688.851 835.669 670.162 849.924 663.109 854.739C658.868 851.632 655.631 849.568 654.746 843.917C653.264 834.455 653.991 824.72 654.078 815.161C654.111 807.509 653.769 799.86 653.053 792.241C652.136 781.491 650.372 770.829 647.779 760.356C644.88 749.073 641.206 738.76 638.747 727.172C635.14 710.168 634.576 697.072 635.472 679.983Z" fill="#98F5E1"/>
<path d="M351.124 760.972C349.485 742.633 347.712 722.512 343.053 704.762C340.962 696.798 337.453 688.909 334.478 681.207C349.151 701.466 349.029 736.86 352.125 761.101L351.124 760.972Z" fill="#0C1216"/>
<path d="M329.707 691.486L328.754 693.325C328.405 690.795 328.24 689.244 328.172 686.698L328.528 686.842L329.707 691.486Z" fill="#26434C"/>
<path d="M328.754 693.325L329.707 691.486C333.733 710.129 334.909 729.274 333.195 748.27C331.649 766.49 327.695 783.266 336.708 799.86C343.04 810.568 341.375 819.719 342 831.392C344.24 873.195 391.559 872.967 422.818 874.28C427.701 874.485 429.665 873.914 430.173 868.919C430.489 870.57 430.503 870.945 431.169 872.522C431.787 871.33 431.458 870.091 431.841 868.602L432.073 867.736C432.417 869.69 432.588 871.419 432.794 873.395L445.865 871.128C445.988 867.749 445.674 864.367 445.958 861.01L446.635 861.516C446.65 863.484 446.44 868.866 447.047 870.31L447.639 869.619L448.087 870.253C451.142 871.045 460.449 867.724 462.734 865.448L464.326 865.879C467.85 864.495 470.807 863.557 473.512 860.842C474.808 861.02 474.196 861.099 475.343 860.405C480.993 858.17 480.75 853.089 478.776 848.08C473.785 835.419 458.217 834.309 447.79 828.484C442.373 825.458 437.505 820.925 433.81 815.957C418.71 795.327 426.772 773.156 431.951 750.747C434.339 740.414 436.004 730.319 437.648 719.844L438.783 721.623C437.75 731.199 436.484 740.759 434.465 750.449C429.411 774.703 420.574 793.824 436.936 815.799C450.611 834.167 470.088 827.857 481.147 846.406C483.434 852.685 483.563 859.013 477.548 862.914C466.301 870.21 452.065 872.416 439.078 874.69C436.376 875.164 429.041 875.609 427.108 876.278C408.652 877.543 381.507 875.553 364.563 868.4C359.265 866.163 355.467 863.443 351.037 859.854C350.549 858.816 347.827 854.682 347.087 853.557C343.659 848.35 342.438 845.601 340.466 839.783C339.028 832.081 339.098 826.705 339.203 818.972C338.991 804.313 329.741 797.473 328.671 782.296C327.727 768.898 329.817 758.715 330.967 745.628C332.446 728.17 331.702 710.595 328.754 693.325Z" fill="#161E48"/>
<path d="M514.609 700.783C515.147 704.258 515.34 706.115 514.467 709.529C513.839 708.469 514.005 706.907 514.086 705.63L514.609 700.783Z" fill="#72B6A2"/>
<path d="M441.264 702.576C457.616 704.037 472.046 704.829 488.256 705.997C492.532 717.337 499.382 728.543 502.968 739.09C512.997 768.582 517.031 803.584 520.355 834.596C515.26 836.178 482.379 845.424 481.147 846.406C470.088 827.857 450.611 834.167 436.936 815.799C420.574 793.824 429.411 774.703 434.465 750.449C436.484 740.759 437.75 731.199 438.783 721.623C439.057 719.105 439.312 716.584 439.548 714.062C440.093 711.919 439.936 710.032 439.919 707.814C440.409 706.08 440.97 704.349 441.264 702.576Z" fill="#98F5E1"/>
<path d="M439.919 707.814C439.936 710.032 440.093 711.919 439.548 714.062L438.649 714.085C438.897 711.41 438.896 710.326 439.919 707.814Z" fill="#447988"/>
<path d="M217.179 745.969C215.13 739.109 212.988 732.276 210.756 725.473C209.65 722.033 207.32 715.494 206.945 712.133L207.294 711.49C208.629 712.759 216.52 741.513 218.179 746.081L217.179 745.969Z" fill="#0C1216"/>
<path d="M660.158 712.109C660.285 713.655 660.447 715.192 660.445 716.742C660.479 718.661 660.71 722.261 660.077 723.947C659.231 721.175 659.173 716.685 658.985 713.635L659.729 714.35L660.158 712.109Z" fill="#548990"/>
<path d="M438.649 714.085L439.548 714.062C439.312 716.584 439.057 719.105 438.783 721.623L437.648 719.844L438.649 714.085Z" fill="#081829"/>
<path d="M521.315 711.347C526.412 725.249 530.704 740.882 535.288 755.087L534.36 755.577C533.722 752.888 531.96 748.284 531.088 745.485C527.43 733.737 523.2 723.589 521.315 711.347Z" fill="#0C1216"/>
<path d="M522.722 831.298C559.719 815.784 591.956 776.457 609.912 741.36C612.937 735.449 616.512 727.478 619.427 721.288C619.941 720.939 620.455 720.59 620.969 720.241C621.063 757.785 623.148 818.837 650.718 848.158C662.581 860.774 679.223 864.531 686.937 885.473C685.874 887.414 685.947 888.233 683.934 888.611C681.27 889.112 678.811 888.774 676.109 889.26C672.401 878.595 666.791 872.786 656.179 868.57C667.286 877.277 679.568 888.22 671.995 904.11C666.739 907.734 661.526 908.866 655.301 909.844C662.145 899.919 660.496 888.051 650.293 880.597C648.441 879.244 641.282 876.244 639.169 877.043C640.246 878.399 644.021 879.185 645.788 880.193C656.749 886.446 659.454 900.092 652.373 910.292C646.812 912.039 641.008 912.515 635.216 913.151C636.725 909.716 638.212 906.708 638.47 902.934C639.126 893.344 631.467 885.571 622.504 883.584C619.546 882.928 616.799 882.822 613.78 882.684C615.946 883.463 618.122 884.215 620.306 884.941C634.836 889.918 638.33 899.599 632.874 913.401C625.637 913.737 619.803 914.54 612.202 914.62C613.05 912.927 613.749 911.553 614.053 909.662C614.73 905.329 613.555 900.91 610.814 897.485C604.99 890.128 592.021 887.742 583.245 886.563C596.789 893.305 615.55 893.144 610.295 914.513C604.996 914.537 599.712 913.931 594.556 912.707C587.72 911.103 578.837 907.714 572.157 905.268C559.33 900.337 535.682 895.626 530.684 880.397C526.129 866.52 524.565 846.147 522.722 831.298Z" fill="#CEF2CE"/>
<path d="M205.408 746.255L204.915 748.06C204.332 746.317 203.917 742.911 204.312 741.059C205.13 742.271 205.22 744.676 205.408 746.255Z" fill="#6AAEBC"/>
<path d="M217.179 745.969L218.179 746.081C218.596 747.794 219.282 749.899 219.045 751.567C217.937 749.923 217.646 747.925 217.179 745.969Z" fill="#548990"/>
<path d="M204.915 748.06L205.408 746.255C206.283 752.697 207.671 757.764 208.217 764.52L207.091 764.794C206.458 759.204 205.733 753.625 204.915 748.06Z" fill="#11272C"/>
<path d="M711.604 752.053L711.86 751.972C721.456 754.943 730.617 757.107 740.472 759.02C741.358 759.192 742.671 759.998 743.433 760.504C742.835 774.207 743.592 791.107 746.279 804.614C739.383 806.237 729.453 813.345 722.824 816.837C716.351 820.247 709.714 823.813 703.291 827.331C701.144 828.507 697.171 831.304 695.418 832.145C696.404 810.097 705.453 773.901 711.604 752.053Z" fill="#FBF8CC"/>
<path d="M535.288 755.087L537.714 762.367L536.892 762.616C536.353 760.787 535.044 757.468 534.36 755.577L535.288 755.087Z" fill="#365C61"/>
<path d="M351.124 760.972L352.125 761.101C352.894 764.694 352.968 773.079 352.852 776.753C351.899 772.512 351.484 765.5 351.124 760.972Z" fill="#447988"/>
<path d="M537.714 762.367C538.453 764.353 539.138 766.079 539.666 768.141L539.313 768.553L539.868 769.234L539.845 768.893L539.416 768.765L539.658 768.232L539.704 769.23C538.173 766.866 537.783 765.264 536.892 762.616L537.714 762.367Z" fill="#72B6A2"/>
<path d="M208.217 764.52C208.799 767.18 208.483 772.703 208.406 775.642C207.612 772.305 207.388 768.254 207.091 764.794L208.217 764.52Z" fill="#365C61"/>
<path d="M750.799 814.117L751.258 813.932C758.38 811.001 764.935 806.46 772.404 803.995C796.373 796.083 820.752 798.208 843.928 807.183C893.54 826.394 921.829 883.733 900.494 934.251C890.463 957.818 871.495 976.445 847.75 986.047C820.709 996.903 790.466 996.59 763.655 985.176C733.521 972.41 716.003 950.43 703.382 920.692C700.035 912.805 695.254 895.474 695.692 887.21C723.34 898.592 752.552 898.233 781.122 890.285C791.313 887.45 811.273 881.049 806.385 865.946C801.755 851.638 783.778 845.134 771.544 838.912C758.059 832.053 755.246 828.37 750.799 814.117Z" fill="#FFCFD2"/>
<path d="M746.279 804.614C748.397 817.266 750.345 829.006 761.769 836.274C775.624 845.088 826.865 862.968 793.586 883.937C798.243 869.322 789.587 862.62 776.594 859.112C776.133 858.988 775.67 858.868 775.207 858.753C784.359 864.817 799.043 870.455 790.297 884.718C786.39 886.017 782.461 887.249 778.512 888.413C780.55 875.009 771.203 867.077 759.76 862.938C769.316 870.452 777.669 875.627 775.379 889.27C752.469 895.868 717.11 894.68 695.801 884.283C696.321 878.747 694.79 872.918 694.708 867.659C694.542 857.098 693.783 842.945 694.968 832.622L695.418 832.145C697.171 831.304 701.144 828.507 703.291 827.331C709.714 823.813 716.351 820.247 722.824 816.837C729.453 813.345 739.383 806.237 746.279 804.614ZM735.677 867.411C745.028 873.64 751.253 877.075 751.083 889.578L751.498 889.679L751.777 889.379C753.29 884.911 753.49 882.632 751.5 878.154C749.194 872.967 741.44 867.505 735.677 867.411Z" fill="#E9E1FB"/>
<path d="M313.038 831.148C314.927 828.636 318.62 827.327 321.545 826.381C327.861 824.339 333.31 821.953 339.203 818.972C339.098 826.705 339.028 832.081 340.466 839.783C338.905 844.615 340.394 847.822 338.659 852.412C335.962 850.931 334.529 849.681 331.654 850.072C325.565 843.57 319.247 838.016 313.038 831.148Z" fill="#A3C4F3"/>
<path d="M191.517 824.401C194.603 825.503 196.151 827.092 198.83 828.864C202.482 831.303 206.491 833.16 210.713 834.371C230.11 839.794 264.526 835.323 284.965 832.496C290.472 831.734 302.297 829.993 307.598 828.459C312.304 834.862 317.618 840.07 323.601 845.887C329.611 851.731 340.015 864.353 334.406 873.256C332.221 876.726 326.604 877.912 322.738 878.892C323.728 873.299 323.609 871.064 322.638 865.502C321.146 856.956 309.91 844.921 300.897 846.707C309.279 850.302 315.095 853.692 319.04 862.786C321.377 868.173 321.759 874.709 319.421 880.196C314.563 881.522 311.238 882.014 306.187 882.432C303.771 865.307 300.443 852.538 280.87 849.456C289.859 852.905 295.02 855.546 299.372 865.077C301.666 870.102 303.332 877.12 303.336 882.647C296.256 884.045 289.039 884.629 281.826 884.388C284.094 880.236 283.338 878.588 282.194 874.282C277.893 858.095 270.394 852.434 254.925 847.901C264.95 853.071 271.78 855.684 277.077 866.567C279.885 872.337 281.981 877.429 279.87 883.844C274.087 886.182 260.612 884.132 254.046 884.138L253.574 884.142C257.025 869.976 252.062 861.248 240.811 853.243C249.796 863 255.232 869.325 252.087 883.564L237.812 881.908C237.359 881.677 230.321 879.966 229.377 879.76C208.782 875.268 191.055 857.704 191.05 835.854C191.049 832.124 191.257 828.288 191.517 824.401Z" fill="#E9E1FB"/>
<path d="M663.109 854.739C670.162 849.924 688.851 835.669 694.968 832.622C693.783 842.945 694.542 857.098 694.708 867.659C694.79 872.918 696.321 878.747 695.801 884.283C693.114 883.231 690.418 882.203 687.712 881.2C685.603 871.764 670.233 860.249 663.109 854.739Z" fill="#A3C4F3"/>
<path d="M481.147 846.406C482.379 845.424 515.26 836.178 520.355 834.596C521.843 847.795 523.654 862.414 526.151 875.515C520.202 877.589 514.73 882.169 508.004 884.245C483.816 891.708 452.203 887.626 428.94 879.079C428.526 878.177 428.328 877.654 428.008 876.713L427.108 876.278C429.041 875.609 436.376 875.164 439.078 874.69C452.065 872.416 466.301 870.21 477.548 862.914C483.563 859.013 483.434 852.685 481.147 846.406Z" fill="#CEF2CE"/>
<path d="M462.734 865.448C464.165 860.787 463.461 857.821 460.962 853.528C457.265 847.176 450.512 841.783 443.442 839.812C442.405 839.53 442.387 839.73 441.527 839.13C444.053 838.145 448.471 839.791 450.847 840.806C460.38 844.877 468.194 855.356 464.326 865.879L462.734 865.448Z" fill="url(#paint7_linear_6_5975)"/>
<path d="M475.343 860.405C474.196 861.099 474.808 861.02 473.512 860.842C473.953 846.068 464.413 843.534 453.872 838.525L453.448 838.321C453.97 838.336 454.491 838.355 455.012 838.378C467.136 838.939 476.234 848.063 475.343 860.405Z" fill="#081829"/>
<path d="M340.466 839.783C342.438 845.601 343.659 848.35 347.087 853.557C347.827 854.682 350.549 858.816 351.037 859.854C347.948 858.72 341.618 854.351 338.659 852.412C340.394 847.822 338.905 844.615 340.466 839.783Z" fill="#8EECF5"/>
<path d="M445.958 861.01C442.803 850.784 438.297 847.19 427.983 845.701L428.001 845.33C442.963 842.863 449.63 856.56 447.639 869.619L447.047 870.31C446.44 868.866 446.65 863.484 446.635 861.516L445.958 861.01Z" fill="#081829"/>
<path d="M279.87 883.844C281.981 877.429 279.885 872.337 277.077 866.567C271.78 855.684 264.95 853.071 254.925 847.901C270.394 852.434 277.893 858.095 282.194 874.282C283.338 878.588 284.094 880.236 281.826 884.388L279.87 883.844Z" fill="#161E48"/>
<path d="M408.591 847.85C420.497 850.264 430.656 853.546 432.073 867.736L431.841 868.602C431.458 870.091 431.787 871.33 431.169 872.522C430.503 870.945 430.489 870.57 430.173 868.919C427.027 854.329 420.405 853.191 408.591 847.85Z" fill="#161E48"/>
<path d="M237.812 881.908L252.087 883.564C255.232 869.325 249.796 863 240.811 853.243C252.062 861.248 257.025 869.976 253.574 884.142L253.121 884.458C249.872 884.359 239.935 883.838 237.812 881.908Z" fill="#39205E"/>
<path d="M751.777 889.379L751.498 889.679L751.083 889.578C751.253 877.075 745.028 873.64 735.677 867.411C741.44 867.505 749.194 872.967 751.5 878.154C753.49 882.632 753.29 884.911 751.777 889.379Z" fill="#161E48"/>
<path d="M632.874 913.401C638.33 899.599 634.836 889.918 620.306 884.941C618.122 884.215 615.946 883.463 613.78 882.684C616.799 882.822 619.546 882.928 622.504 883.584C631.467 885.571 639.126 893.344 638.47 902.934C638.212 906.708 636.725 909.716 635.216 913.151L632.874 913.401Z" fill="#161E48"/>
<path d="M686.937 885.473L687.433 887.093C687.334 891.379 687.028 895.872 683.746 899.003C681.837 900.825 678.491 902.901 675.796 902.731C675.399 898.105 677.664 897.158 676.109 889.26C678.811 888.774 681.27 889.112 683.934 888.611C685.947 888.233 685.874 887.414 686.937 885.473Z" fill="#8EECF5"/>
<defs>
<linearGradient id="paint0_linear_6_5975" x1="664.963" y1="527.86" x2="424.783" y2="210.046" gradientUnits="userSpaceOnUse">
<stop stop-color="#0B1E38"/>
<stop offset="1" stop-color="#2C2251"/>
</linearGradient>
<linearGradient id="paint1_linear_6_5975" x1="624.636" y1="220.476" x2="629.243" y2="223.162" gradientUnits="userSpaceOnUse">
<stop stop-color="#1A2538"/>
<stop offset="1" stop-color="#201A42"/>
</linearGradient>
<linearGradient id="paint2_linear_6_5975" x1="783.378" y1="274.404" x2="795.93" y2="267.9" gradientUnits="userSpaceOnUse">
<stop stop-color="#131136"/>
<stop offset="1" stop-color="#282F48"/>
</linearGradient>
<linearGradient id="paint3_linear_6_5975" x1="374.598" y1="495.803" x2="322.195" y2="308.098" gradientUnits="userSpaceOnUse">
<stop stop-color="#CEF1C3"/>
<stop offset="1" stop-color="#FFDFD4"/>
</linearGradient>
<linearGradient id="paint4_linear_6_5975" x1="738.425" y1="368.504" x2="738.127" y2="325.968" gradientUnits="userSpaceOnUse">
<stop stop-color="#1F1B21"/>
<stop offset="1" stop-color="#24193B"/>
</linearGradient>
<linearGradient id="paint5_linear_6_5975" x1="721.305" y1="538.294" x2="157.516" y2="703.905" gradientUnits="userSpaceOnUse">
<stop stop-color="#ADFFC5"/>
<stop offset="1" stop-color="#AAEEFF"/>
</linearGradient>
<linearGradient id="paint6_linear_6_5975" x1="678.398" y1="587.199" x2="703.968" y2="617.82" gradientUnits="userSpaceOnUse">
<stop stop-color="#001116"/>
<stop offset="1" stop-color="#0F224B"/>
</linearGradient>
<linearGradient id="paint7_linear_6_5975" x1="452.647" y1="852.814" x2="459.75" y2="848.112" gradientUnits="userSpaceOnUse">
<stop stop-color="#0A1C25"/>
<stop offset="1" stop-color="#031E42"/>
</linearGradient>
</defs>
</svg>
