<svg width="1024" height="1024" viewBox="0 0 1024 1024" fill="none" xmlns="http://www.w3.org/2000/svg">
<path d="M715.3 269.924C709.843 262.083 704.733 252.655 698.705 245.289C665.15 205.271 615.957 170.252 564.289 159.71C547.83 156.352 532.321 157.575 516.003 157.366C467.63 156.744 420.454 170.099 380.633 197.834C335.762 229.085 309.609 281.867 301.037 334.881C294.144 376.326 298.312 403.878 314.749 442.08C308.812 443.666 302.952 444.562 297.161 446.357C294.083 446.754 290.824 447.104 287.792 447.696C286.197 447.621 284.181 447.757 282.544 447.823C283.465 444.225 284.055 442.414 282.232 438.851C279.506 433.523 269.031 432.105 267.538 439.065C266.936 441.871 269.096 444.215 270.733 446.38C266.768 445.746 265.796 445.714 261.973 444.291C268.238 431.491 251.422 423.484 251.041 437.974L250.081 437.973C247.498 435.635 243.812 434.272 240.654 432.794C226.404 426.125 211.6 422.896 195.872 424.099L196.048 408.39C204.042 404.228 205.017 396.841 196.188 393.515C195.469 390.985 199.521 376.488 200.356 373.293C209.34 373.419 215.16 365.183 205.928 359.723C208.99 355.424 210.478 350.751 213.233 346.318C216.043 342.054 220.526 346.315 222.788 340.389C225.785 332.975 211.981 327.527 209.396 334.871C208.548 337.281 210.071 341.022 211.541 342.959C208.934 347.627 205.693 353.756 203.459 358.562C199.725 357.427 196.498 358.559 195.636 362.847C194.877 366.623 195.978 368.151 198.163 371.163C195.922 378.701 193.923 386.31 192.171 393.978C184.193 398.243 188.064 403.829 193.605 407.696C193.296 413.975 193.398 419.507 193.213 425.615L192.336 426.025C185.239 425.748 180.124 432.278 175.123 434.39C158.978 379.122 159.5 330.818 173.582 274.755C189.901 209.784 225.056 137.91 293.518 115.576C355.526 95.465 400.22 153.953 458.861 155.248C475.06 155.605 494.573 147.401 509.809 142.177C578.265 118.706 647.758 56.5258 723.873 68.625C738.649 70.8844 752.911 75.7276 766.007 82.9328C819.493 112.372 853.067 176.854 869.36 233.656C886.757 294.306 887.403 364.708 879.616 426.953C878.243 437.935 877.103 449.327 874.786 460.148C866.431 458.502 857.675 456.886 849.157 456.72C825.89 456.268 802.662 461.403 781.491 470.986C772.677 474.975 764.689 480.711 758.119 487.819C757.956 478.26 760.408 461.313 761.142 451.246C763.95 412.712 769.587 370.717 758.916 332.935C753.847 314.984 742.536 290.768 728.288 278.563C723.922 274.823 720.212 272.698 715.3 269.924ZM237.064 296.491C227.773 300.707 230.459 309.338 238.594 311.546C239.034 311.664 239.476 311.774 239.92 311.877C247.036 308.053 247.508 297.657 237.064 296.491ZM244.969 328.974C237.976 333.371 238.905 341.385 247.916 342.928C253.301 339.756 254.124 329.307 244.969 328.974ZM248.983 360.007C237.988 366.355 246.978 373.376 255.116 373.931C263.139 370.071 262.277 364.203 255.168 360.059C253.195 360.039 250.928 359.958 248.983 360.007ZM215.552 387.555C205.782 390.674 210.503 402.129 218.877 403.307C227.331 399.332 223.999 388.621 215.552 387.555ZM263.398 394.09C251.35 396.223 257.625 406.344 265.905 409.585C268.219 408.731 270.442 408.008 271.621 405.637C272.56 403.718 272.615 401.484 271.771 399.521C270.353 396.233 266.875 394.265 263.398 394.09ZM233.303 412.941C226.262 418.156 227.333 426.395 235.825 427.281C243.71 422.124 242.118 413.655 233.303 412.941Z" fill="url(#paint0_linear_6_9263)"/>
<path d="M314.749 442.08C298.312 403.878 294.144 376.326 301.037 334.881C309.609 281.867 335.762 229.085 380.633 197.834C420.454 170.099 467.63 156.744 516.003 157.366C532.321 157.575 547.83 156.352 564.289 159.71C615.957 170.252 665.15 205.271 698.705 245.289C704.733 252.655 709.843 262.083 715.3 269.924C737.396 312.063 745.898 353.857 745.807 401.516C745.782 414.876 748.007 428.879 747.373 442.351C746.314 475.235 739.423 509.85 730.981 541.533C729.096 547.241 727.27 552.944 725.123 558.56L722.821 564.956C721.798 568.124 720.8 571.309 719.666 574.438L718.551 577.623L711.578 595.955C710.709 597.782 710.073 599.173 709.349 601.058L705.101 610.502C703.408 613.815 701.755 617.148 700.144 620.501C696.991 626.131 693.726 631.831 690.655 637.493C688.617 640.314 686.513 643.925 684.664 646.941C673.444 660.64 666.047 671.349 650.245 681.171L643.661 684.587C637.733 687.312 627.543 692.124 621.283 692.824C609.448 710.327 598.629 726.506 588.3 744.988C580.659 758.66 573.836 772.393 565.822 785.862C542.325 825.35 506.871 860.814 460.41 870.472C444.194 873.843 422.75 872.444 407.121 866.54C403.762 865.181 400.461 863.684 397.225 862.054C367.366 846.956 351.374 821.859 343.886 790.028C333.195 744.581 352.242 703.246 356.02 658.096C360.394 605.824 358.762 562.605 342.428 512.631L341.877 510.6C335.187 488.052 324.087 463.56 314.749 442.08ZM457.95 166.09C404.92 179.294 358.772 207.582 331.451 255.676C314.579 285.374 302.154 325.41 300.567 359.531C299.661 375.992 301.252 392.494 305.284 408.479C308.092 419.369 311.87 429.987 316.573 440.203C320.207 448.586 324.588 457.573 327.925 465.821C344.108 505.823 358.223 546.479 360.149 589.984C361.295 615.874 360.63 644.365 357.506 670.037C352.481 711.339 336.252 748.511 346.617 790.755C349.977 804.451 353.549 814.613 361.261 826.524C371.745 842.979 387.139 855.719 405.263 862.943C405.675 863.107 406.089 863.265 406.505 863.416C409.977 864.894 414.396 866.186 418.046 867.046C482.216 882.161 537.023 832.152 566.231 780.269C578.175 759.052 588.562 737.016 602.206 716.711C607.568 708.73 613.033 700.859 618.547 692.974C613.669 692.752 606.69 693.076 602.946 690.144C605.207 689.476 617.165 690.272 620.173 690.407C622.047 687.828 623.711 685.357 625.473 682.702C628.838 679.659 638.116 663.138 640.981 658.179C654.506 633.581 670.232 610.626 681.364 584.44C683.957 579.378 686.434 572.819 688.402 567.452L690.916 559.999C696.966 546.714 704.552 516.165 707.364 501.65C709.989 483.958 715.427 464.738 716.44 446.937C719.566 392.019 713.87 325.472 682.919 278.704C679.369 272.615 672.038 263.704 667.455 258.351C660.092 248.404 644.341 233.411 634.645 225.854C602.16 200.535 573.675 187.81 531.884 187.089C514.358 186.786 505.197 186.379 487.089 188.497C463.183 192.65 449.418 199.274 428.154 210.184C398.743 225.274 371.556 242.548 352.134 270.133C330.204 301.281 319.723 341.401 326.342 379.168C328.996 394.309 334.223 408.534 340.543 422.482C345.914 433.945 352.241 444.293 358.422 455.35C369.177 474.588 377.885 493.96 383.346 515.396C391.801 548.586 392.094 583.858 388.278 617.751C386.611 632.563 383.824 647.302 381.278 661.973C375.248 692.551 365.684 722.002 368.002 753.7C368.27 757.366 369.063 764.449 370.238 767.877C376.008 798.279 393.368 827.091 426.064 832.635C428.272 833.003 430.499 833.253 432.734 833.386C464.232 835.434 496.688 820.432 519.927 799.831L520.57 801.127C514.802 806.395 509.52 811.078 502.912 815.392C483.552 828.028 456.685 836.596 433.491 835.475C430.685 835.364 427.894 835.016 425.147 834.436C401.08 829.661 387.539 817.052 376.941 795.672C358.346 759.44 365.217 721.4 373.774 683.822C388.669 617.772 398.228 545.999 369.127 482.308C359.973 462.272 347.831 444.053 338.749 424.283C331.772 408.834 326.259 394.332 323.546 377.513C317.375 339.26 328.683 297.861 351.411 266.779C371.119 239.778 398.394 222.973 427.503 207.932C449.989 196.313 464.514 190.225 489.83 186.251C510.895 184.334 533.941 184.694 554.966 187.157C606.806 193.23 655.955 235.437 684.587 277.005C706.178 309.355 713.307 342.777 717.336 380.586C719.913 404.04 720.217 427.687 718.242 451.199C716.757 467.015 713.404 483.882 710.281 499.543C706.51 519.407 701.249 538.96 694.543 558.035L692.169 565.469C689.789 572.085 687.51 577.514 684.604 583.953C682.487 587.566 680.476 591.786 678.578 595.558C676.139 600.47 673.456 605.652 671.138 610.591C670.173 612.334 669.039 614.261 668.189 616.038C666.253 619.321 664.385 622.643 662.584 626.002C660.963 628.736 650.471 646.199 649.717 648.481C646.47 652.993 641.487 662.725 638.332 668.039C636.229 671.237 633.473 675.177 631.571 678.41C629.218 681.141 625.258 687.26 623.069 690.457C629.188 688.027 637.146 685.098 642.872 682.049C644.664 681.17 645.862 680.44 647.569 679.39C659.861 674.065 673.943 657.775 681.404 646.609C682.671 645.491 685.956 639.963 686.854 638.425C689.478 634.914 693.875 626.076 695.887 622.054C696.64 621.082 699.259 615.722 699.981 614.302C701.826 610.572 703.568 606.668 705.313 602.881L707.417 597.978C709.974 591.671 712.465 585.337 714.888 578.977C715.225 578.285 716.152 575.615 716.466 574.768C717.609 572.445 719.466 566.667 720.403 564L722.375 558.381L727.188 544.096C737.56 513.502 742.9 474.881 744.751 442.67C745.273 430.325 743.684 417.825 743.62 405.525C743.376 358.443 736.251 310.417 711.985 269.321C694.665 235.746 658.373 207.203 627.032 187.809C587.139 163.123 555.3 157.297 509.199 160.044C488.92 161.253 478.749 161.164 457.95 166.09Z" fill="black"/>
<path d="M457.95 166.09C478.749 161.164 488.92 161.253 509.199 160.044C555.3 157.297 587.139 163.123 627.032 187.809C658.373 207.203 694.665 235.746 711.985 269.321L711.547 269.32C709.011 269.294 707.159 268.785 704.942 268.76C695.683 268.656 691.208 271.451 684.587 277.005C655.955 235.437 606.806 193.23 554.966 187.157C533.941 184.694 510.895 184.334 489.83 186.251L488.368 185.91C484.836 179.799 463.368 172.664 457.95 166.09Z" fill="#CFBAF0"/>
<path d="M316.573 440.203C311.87 429.987 308.092 419.369 305.284 408.479C301.252 392.494 299.661 375.992 300.567 359.531C302.154 325.41 314.579 285.374 331.451 255.676C358.772 207.582 404.92 179.294 457.95 166.09C463.368 172.664 484.836 179.799 488.368 185.91L489.83 186.251C464.514 190.225 449.989 196.313 427.503 207.932C398.394 222.973 371.119 239.778 351.411 266.779C328.683 297.861 317.375 339.26 323.546 377.513C326.259 394.332 331.772 408.834 338.749 424.283C331.159 429.306 323.891 435.696 316.573 440.203Z" fill="#FDE4CF"/>
<path d="M487.089 188.497C505.197 186.379 514.358 186.786 531.884 187.089C573.675 187.81 602.16 200.535 634.645 225.854C644.341 233.411 660.092 248.404 667.455 258.351C659.807 255.532 642.127 250.376 634.553 251.346C628.898 244.794 622.505 238.917 615.502 233.831C594.991 219.013 559.01 211.031 533.782 209.993C528.582 209.779 523.48 209.531 518.335 210.454L518.671 210.333L518.638 210.459C516.516 210.882 516.33 210.97 514.368 211.939L504.184 212.622C503.798 208.316 501.365 208.481 497.816 206.019C490.832 201.174 489.445 196.294 487.089 188.497Z" fill="#CFBAF0"/>
<path d="M340.543 422.482C334.223 408.534 328.996 394.309 326.342 379.168C319.723 341.401 330.204 301.281 352.134 270.133C371.556 242.548 398.743 225.274 428.154 210.184C449.418 199.274 463.183 192.65 487.089 188.497C489.445 196.294 490.832 201.174 497.816 206.019C501.365 208.481 503.798 208.316 504.184 212.622C462.737 217.944 429.612 237.03 403.673 269.637C374.635 306.138 374.017 350.874 397.365 390.29C391.618 393.339 386.327 395.396 380.35 398.692C366.951 406.083 353.823 415.237 340.543 422.482Z" fill="#FDE4CF"/>
<path d="M514.368 211.939C516.33 210.97 516.516 210.882 518.638 210.459L518.671 210.333L518.335 210.454C523.48 209.531 528.582 209.779 533.782 209.993C559.01 211.031 594.991 219.013 615.502 233.831C622.505 238.917 628.898 244.794 634.553 251.346C636.127 254.065 639.034 258.47 639.459 261.314C601.001 227.679 566.134 212.006 514.368 211.939Z" fill="#F1C0E8"/>
<path d="M504.184 212.622L514.368 211.939C566.134 212.006 601.001 227.679 639.459 261.314C661.312 284.125 674.19 306.539 687.792 334.951C708.335 386.955 705.853 420.981 690.522 474.334C684.113 496.639 677.698 517.782 667.966 539.256C660.632 555.439 650.983 578.153 640.996 592.637C630.262 608.207 618.714 621.378 608.234 637.712L607.447 636.157C617.375 620.244 628.514 607.537 638.41 592.262C651.58 571.935 662.501 545.067 671.956 522.647C679.08 505.754 682.992 489.422 688.189 472.309C703.077 423.295 705.175 381.778 683.957 333.807C672.342 308.984 656.868 282.288 637.128 263.06C626.007 252.526 623.203 252.194 610.35 245.147C588.91 233.393 562.77 223.866 538.123 224.435C511.492 225.049 487.575 236.9 465.9 251.377C464.007 252.641 453.615 259.546 452.218 258.987C454.938 254.488 461.26 251.408 465.837 248.489C482.552 237.827 497.317 229.236 516.874 224.47C544.919 217.636 571.572 224.631 597.456 235.579C601.002 237.079 603.831 239.02 607.151 240.51L607.325 240.137C577.589 219.718 529.666 210.168 494.558 216.635C456.804 223.779 423.41 245.571 401.669 277.252C386.238 299.821 380.32 325.073 385.484 352.116C387.923 364.643 392.523 376.649 399.076 387.6C400.973 391.162 404.833 395.688 407.461 398.91C409.537 394.133 411.436 390.326 413.812 385.732C415.575 383.706 420.102 375.662 422.93 372.208C435.718 356.588 451.263 345.144 470.366 338.385C495.417 329.522 525.256 328.67 550.712 336.098C558.898 338.487 566.73 342.113 574.383 345.717C590.406 353.8 605.489 367.191 618.131 379.847C620.534 360.616 637.582 362.429 643.198 348.398C647.84 336.802 632.145 330.202 625.907 324.306C623.099 321.652 622.047 319.681 620.381 316.252C613.136 292.116 603.816 300.15 585.28 291.481C570.788 284.702 560.841 263.196 542.295 264.993C510.21 268.101 501.614 307.4 477.152 321.527C457.542 332.851 431.205 330.617 415.841 350.306C415.117 351.189 415.239 351.034 414.181 351.474L414.304 350.484C417.039 346.427 419.873 344.435 423.43 341.449C438.975 328.4 463.66 329.057 479.185 318.332C500.037 303.492 507.813 274.689 533.393 265.233C557.962 256.151 566.981 279.11 583.766 288.936C601.781 299.482 613.493 289.839 621.685 315.151C626.21 325.685 632.501 326.408 640.511 333.311C645.145 337.305 646.943 343.872 644.766 349.679C640.037 362.335 616.336 365.919 620.686 382.138C621.163 383.913 626.315 389.663 627.723 391.331C653.051 421.35 665.116 462.067 662.287 500.664C653.361 562.024 633.12 604.673 581.311 641.208C556.168 658.939 533.556 673.581 515.44 699.362C491.665 733.192 502.19 789.649 461.27 808.978C452.883 813.001 443.493 814.452 434.283 813.147C425.934 811.892 417.643 807.777 412.522 800.911C411.074 798.97 409.091 795.907 408.936 793.455L409.478 792.955C410.262 793.997 410.331 794.317 410.871 795.351C420.522 813.825 444.605 815.908 461.611 807.145C475.862 799.802 483.934 789.281 488.481 774.028C501.702 729.919 499.008 706.798 534.529 672.788C538.433 669.707 542.287 666.564 546.09 663.359C557.463 654.67 568.859 646.913 580.312 638.437C630.008 601.657 651.047 563.061 659.414 501.984C660.699 484.16 659.93 471.369 655.997 453.851C654.682 448.84 653.183 443.88 651.502 438.98C638.291 400.607 605.267 363.854 568.841 346.096C538.449 331.643 503.592 329.715 471.791 340.729C446.898 349.279 426.387 367.312 414.72 390.905C413.185 394.205 410.96 398.647 409.842 402.002C463.35 458.514 523.173 402.428 576.697 442.602C569.39 425.427 551.252 409.848 534.881 401.351C532.645 400.127 520.853 395.185 520.346 394.595C524.047 393.4 531.879 397.746 535.372 399.536C537.383 400.57 539.375 401.639 541.348 402.743C554.638 411.435 565.663 420.064 574.511 433.751C576.537 436.886 578.079 442.609 579.802 444.984C589.903 458.912 594.216 467.106 598.474 483.764C599.535 491.373 600.385 498.046 600.433 505.798C600.578 529.595 590.807 559.138 576.503 578.18C575.495 579.513 574.466 580.829 573.415 582.128C539.037 617.21 518.585 594.129 486.069 619.823C480.155 624.497 470.504 636.781 466.69 643.657C457.925 659.456 453.614 683.255 430.804 683.388C424.99 683.407 419.434 680.988 415.487 676.719C411.311 672.261 409.579 666.333 408.614 660.439C405.409 635.151 412.945 593.81 424.576 571.409C443.889 534.212 456.965 506.697 425.079 471.589C419.624 465.582 413.195 458.705 408.843 451.575C398.836 435.176 401.529 419.849 405.977 402.156C402.908 398.123 400.202 394.519 397.365 390.29C374.017 350.874 374.635 306.138 403.673 269.637C429.612 237.03 462.737 217.944 504.184 212.622ZM408.442 404.852C399.866 434.331 405.806 458.758 438.675 467.762C461.202 473.932 482.931 479.967 494.708 502.324C502.815 516.997 499.552 532.495 493.5 547.261C490.907 553.587 478.4 573.651 472.772 577.629L471.691 577.567C471.427 576.873 471.176 576.731 471.691 576.115C486.23 558.728 502.211 533.348 494.856 509.724C491.001 497.342 479.2 485.371 467.471 480.018C453.018 473.141 439.06 471.324 424.29 464.942C442.503 479.522 466.034 491.096 469.272 516.829C471.029 530.798 463.076 544.782 454.298 555.047C440.918 570.694 428.945 585.261 419.527 603.858C411.534 620.028 409.801 632.942 410.785 650.986C411.362 661.569 412.036 673.197 422.854 678.659C427.591 681.09 433.13 681.425 438.126 679.583C453.088 674.063 457.143 654.553 464.301 642.46C475.074 624.262 489.704 608.473 511.24 604.423C519.288 602.91 527.274 601.968 535.346 600.658C550.545 597.655 566.443 588.294 575.222 575.209C596.021 544.208 604.678 503.9 590.59 468.595C575.939 431.878 542.943 427.099 507.446 430.256C469.473 433.633 437.462 434.049 408.442 404.852ZM430.364 472.885C436.427 481.825 441.547 488.607 444.837 499.024C453.513 526.495 437.353 550.125 426.162 574.13C421.124 584.927 417.289 596.245 414.726 607.88C417.096 603.333 419.642 598.163 422.201 593.772C426.967 585.755 430.341 580.511 436.218 573.01C450.163 555.215 472.126 537.106 465.708 511.834C461.179 493.998 445.308 483.175 431.015 473.208C430.798 473.1 430.581 472.993 430.364 472.885Z" fill="black"/>
<path d="M637.128 263.06C635.794 265.671 637.05 272.198 637.149 276.017C637.504 289.754 630.552 304.905 621.685 315.151C613.493 289.839 601.781 299.482 583.766 288.936C566.981 279.11 557.962 256.151 533.393 265.233C507.813 274.689 500.037 303.492 479.185 318.332C463.66 329.057 438.975 328.4 423.43 341.449C419.873 344.435 417.039 346.427 414.304 350.484L414.181 351.474C415.239 351.034 415.117 351.189 415.841 350.306C431.205 330.617 457.542 332.851 477.152 321.527C501.614 307.4 510.21 268.101 542.295 264.993C560.841 263.196 570.788 284.702 585.28 291.481C603.816 300.15 613.136 292.116 620.381 316.252C612.575 323.191 607.489 328.295 598.203 333.604C594.415 335.769 575.65 344.201 574.383 345.717C566.73 342.113 558.898 338.487 550.712 336.098C525.256 328.67 495.417 329.522 470.366 338.385C451.263 345.144 435.718 356.588 422.93 372.208C420.102 375.662 415.575 383.706 413.812 385.732C410.785 386.128 400.588 386.25 399.076 387.6C392.523 376.649 387.923 364.643 385.484 352.116C380.32 325.073 386.238 299.821 401.669 277.252C423.41 245.571 456.804 223.779 494.558 216.635C529.666 210.168 577.589 219.718 607.325 240.137L607.151 240.51C603.831 239.02 601.002 237.079 597.456 235.579C571.572 224.631 544.919 217.636 516.874 224.47C497.317 229.236 482.552 237.827 465.837 248.489C461.26 251.408 454.938 254.488 452.218 258.987C453.615 259.546 464.007 252.641 465.9 251.377C487.575 236.9 511.492 225.049 538.123 224.435C562.77 223.866 588.91 233.393 610.35 245.147C623.203 252.194 626.007 252.526 637.128 263.06Z" fill="#F1C0E8"/>
<path d="M634.553 251.346C642.127 250.376 659.807 255.532 667.455 258.351C672.038 263.704 679.369 272.615 682.919 278.704C674.979 293.757 691.37 329.463 687.792 334.951C674.19 306.539 661.312 284.125 639.459 261.314C639.034 258.47 636.127 254.065 634.553 251.346Z" fill="#EEEFFA"/>
<path d="M621.685 315.151C630.552 304.905 637.504 289.754 637.149 276.017C637.05 272.198 635.794 265.671 637.128 263.06C656.868 282.288 672.342 308.984 683.957 333.807C680.14 336.047 675.838 337.015 672.081 339.057C639.854 356.571 645.371 372.918 656.055 402.413C664.854 426.705 676.329 456.592 677.068 482.545C677.2 488.723 670.173 503.032 663.001 501.91C662.651 501.388 662.474 501.24 662.287 500.664C665.116 462.067 653.051 421.35 627.723 391.331C626.315 389.663 621.163 383.913 620.686 382.138C616.336 365.919 640.037 362.335 644.766 349.679C646.943 343.872 645.145 337.305 640.511 333.311C632.501 326.408 626.21 325.685 621.685 315.151Z" fill="#EEEFFA"/>
<path d="M711.985 269.321C736.251 310.417 743.376 358.443 743.62 405.525C743.684 417.825 745.273 430.325 744.751 442.67C742.9 474.881 737.56 513.502 727.188 544.096C719.804 546.053 705.055 552.854 699.186 557.053C697.359 557.846 696.531 558.41 694.543 558.035C701.249 538.96 706.51 519.407 710.281 499.543C713.404 483.882 716.757 467.015 718.242 451.199C720.217 427.687 719.913 404.04 717.336 380.586C713.307 342.777 706.178 309.355 684.587 277.005C691.208 271.451 695.683 268.656 704.942 268.76C707.159 268.785 709.011 269.294 711.547 269.32L711.985 269.321Z" fill="#8EECF5"/>
<path d="M715.3 269.924C720.212 272.698 723.922 274.823 728.288 278.563C742.536 290.768 753.847 314.984 758.916 332.935C769.587 370.717 763.95 412.712 761.142 451.246C760.408 461.313 757.956 478.26 758.119 487.819C755.771 506.521 751.145 533.686 730.981 541.533C739.423 509.85 746.314 475.235 747.373 442.351C748.007 428.879 745.782 414.876 745.807 401.516C745.898 353.857 737.396 312.063 715.3 269.924Z" fill="#8EECF5"/>
<path d="M682.919 278.704C713.87 325.472 719.566 392.019 716.44 446.937C715.427 464.738 709.989 483.958 707.364 501.65C704.552 516.165 696.966 546.714 690.916 559.999C687.306 561.227 682.026 562.869 678.78 564.652C666.537 571.379 651.448 583.31 646.728 596.956C642.836 603.07 636.748 611.165 633.682 617.456C623.967 637.386 612.924 655.901 602.019 675.122L601.52 676.877C591.758 690.428 583.17 708.596 575.281 723.471C572.241 729.201 566.74 738.389 564.188 743.895C562.535 745.957 561.232 748.563 559.813 750.825C554.346 759.542 549.826 767.451 542.786 775.078C533.945 784.195 530.903 790.084 519.927 799.831C496.688 820.432 464.232 835.434 432.734 833.386C430.499 833.253 428.272 833.003 426.064 832.635C429.677 829.321 445.241 825.947 450.962 823.651C475.017 813.999 495.825 798.042 512.335 778.14C514.106 776.006 516.019 773.272 518.181 771.638C518.849 771.708 520.269 771.57 521.004 771.525C523.343 780.373 499.804 801.808 492.874 805.935C488.32 808.647 479.616 813.737 476.257 817.215L476.418 817.637C489.803 814.042 513.255 795.072 523.286 784.851C526.748 781.323 539.992 763.714 542.657 762.362L539.976 769.931C544.22 763.95 546.711 756.347 549.726 749.637C555.536 737.556 560.84 721.835 568.339 710.817C580.37 693.144 590.739 677.587 597.618 656.998C599.285 652.007 605.201 642.584 608.234 637.712C618.714 621.378 630.262 608.207 640.996 592.637C650.983 578.153 660.632 555.439 667.966 539.256C677.698 517.782 684.113 496.639 690.522 474.334C705.853 420.981 708.335 386.955 687.792 334.951C691.37 329.463 674.979 293.757 682.919 278.704Z" fill="#8EECF5"/>
<path d="M239.92 311.877C239.476 311.774 239.034 311.664 238.594 311.546C230.459 309.338 227.773 300.707 237.064 296.491C247.508 297.657 247.036 308.053 239.92 311.877Z" fill="#F5C37A"/>
<path d="M574.383 345.717C575.65 344.201 594.415 335.769 598.203 333.604C607.489 328.295 612.575 323.191 620.381 316.252C622.047 319.681 623.099 321.652 625.907 324.306C632.145 330.202 647.84 336.802 643.198 348.398C637.582 362.429 620.534 360.616 618.131 379.847C605.489 367.191 590.406 353.8 574.383 345.717Z" fill="#EEEFFA"/>
<path d="M247.916 342.928C238.905 341.385 237.976 333.371 244.969 328.974C254.124 329.307 253.301 339.756 247.916 342.928Z" fill="#F5C37A"/>
<path d="M203.459 358.562C205.693 353.756 208.934 347.627 211.541 342.959C210.071 341.022 208.548 337.281 209.396 334.871C211.981 327.527 225.785 332.975 222.788 340.389C220.526 346.315 216.043 342.054 213.233 346.318C210.478 350.751 208.99 355.424 205.928 359.723C205.151 359.453 204.217 358.939 203.459 358.562Z" fill="#F5C37A"/>
<path d="M414.72 390.905C426.387 367.312 446.898 349.279 471.791 340.729C503.592 329.715 538.449 331.643 568.841 346.096C605.267 363.854 638.291 400.607 651.502 438.98C653.183 443.88 654.682 448.84 655.997 453.851C652.388 456.539 644.94 463.726 640.408 461.375L639.969 462.281C639.812 453.684 630.532 435.628 625.173 428.686C620.755 423.022 615.689 417.894 610.079 413.406C602.241 407.108 593.783 402.516 585.501 396.967C564.932 383.185 543.542 368.667 518.395 365.226C504.002 363.256 488.22 364.28 474.271 368.38C471.6 369.166 467.456 369.938 465.272 371.64L465.825 372.061C468.633 371.656 470.095 370.753 472.678 370.024C500.605 362.142 526.504 364.426 552.253 377.733C564.643 384.137 572.834 390.261 583.665 397.091C616.804 417.989 626.83 424.111 639.2 461.524C637.322 461.33 636.278 460.744 634.812 459.638C628.614 454.964 623.207 448.407 617.911 442.717C611.538 435.868 604.85 429.209 597.537 423.361C587.06 414.984 573.35 407.157 560.214 404.05C555.906 403.031 545.236 400.336 541.348 402.743C539.375 401.639 537.383 400.57 535.372 399.536C531.879 397.746 524.047 393.4 520.346 394.595C520.853 395.185 532.645 400.127 534.881 401.351C532.419 403.726 518.267 404.237 514.322 404.648L476.83 408.751C464.87 410.16 452.052 412.802 440.378 413.282C428.439 413.676 422.17 407.27 418.307 396.694C417.596 394.746 416.366 392.232 414.72 390.905Z" fill="url(#paint1_linear_6_9263)"/>
<path d="M683.957 333.807C705.175 381.778 703.077 423.295 688.189 472.309C682.992 489.422 679.08 505.754 671.956 522.647C662.501 545.067 651.58 571.935 638.41 592.262C628.514 607.537 617.375 620.244 607.447 636.157C603.577 642.547 599.645 649.071 596.641 655.92C592.81 664.961 589.705 673.962 585.206 682.725C579.301 694.228 570.432 703.63 564.3 714.97C557.816 726.965 552.644 739.776 547.15 752.242C545.69 755.554 544.271 759.16 542.657 762.362C539.992 763.714 526.748 781.323 523.286 784.851C513.255 795.072 489.803 814.042 476.418 817.637L476.257 817.215C479.616 813.737 488.32 808.647 492.874 805.935C499.804 801.808 523.343 780.373 521.004 771.525C521.105 771.207 521.207 770.888 521.308 770.569C523.537 765.785 527.495 757.323 529.744 752.887C533.046 746.378 546.158 702.404 545.742 699.267L545.051 699.074C543.2 702.092 540.904 712.617 539.939 716.5C534.905 736.751 528.297 753.309 518.181 771.638C516.019 773.272 514.106 776.006 512.335 778.14C495.825 798.042 475.017 813.999 450.962 823.651C445.241 825.947 429.677 829.321 426.064 832.635C393.368 827.091 376.008 798.279 370.238 767.877L370.819 767.247L370.364 767.815L371.306 768.65C371.857 767.004 372.184 755.761 372.535 752.8C373.904 741.255 375.054 727.238 378.17 716.109C379.302 715.938 392.246 709.452 394.499 709.143C394.769 708.811 395.038 708.478 395.307 708.146C406.125 744.422 447.894 749.801 476.147 730.923C470.325 732.057 464.95 735.187 459.32 736.917C444.717 741.406 428.295 741.157 415.047 732.881C406.088 727.287 399.68 718.403 397.199 708.137C417.457 706.879 448.168 691.16 467.854 685.669C481.806 681.777 496.871 682.829 511.181 679.449C516.87 678.105 530.107 672.843 534.529 672.788C499.008 706.798 501.702 729.919 488.481 774.028C483.934 789.281 475.862 799.802 461.611 807.145C444.605 815.908 420.522 813.825 410.871 795.351C410.331 794.317 410.262 793.997 409.478 792.955L408.936 793.455C409.091 795.907 411.074 798.97 412.522 800.911C417.643 807.777 425.934 811.892 434.283 813.147C443.493 814.452 452.883 813.001 461.27 808.978C502.19 789.649 491.665 733.192 515.44 699.362C533.556 673.581 556.168 658.939 581.311 641.208C633.12 604.673 653.361 562.024 662.287 500.664C662.474 501.24 662.651 501.388 663.001 501.91C670.173 503.032 677.2 488.723 677.068 482.545C676.329 456.592 664.854 426.705 656.055 402.413C645.371 372.918 639.854 356.571 672.081 339.057C675.838 337.015 680.14 336.047 683.957 333.807Z" fill="#90DBF4"/>
<path d="M198.163 371.163C195.978 368.151 194.877 366.623 195.636 362.847C196.498 358.559 199.725 357.427 203.459 358.562C204.217 358.939 205.151 359.453 205.928 359.723C215.16 365.183 209.34 373.419 200.356 373.293C199.96 372.781 198.697 371.664 198.163 371.163Z" fill="#FAE495"/>
<path d="M255.116 373.931C246.978 373.376 237.988 366.355 248.983 360.007C250.928 359.958 253.195 360.039 255.168 360.059C262.277 364.203 263.139 370.071 255.116 373.931Z" fill="#F5C37A"/>
<path d="M639.2 461.524C626.83 424.111 616.804 417.989 583.665 397.091C572.834 390.261 564.643 384.137 552.253 377.733C526.504 364.426 500.605 362.142 472.678 370.024C470.095 370.753 468.633 371.656 465.825 372.061L465.272 371.64C467.456 369.938 471.6 369.166 474.271 368.38C488.22 364.28 504.002 363.256 518.395 365.226C543.542 368.667 564.932 383.185 585.501 396.967C593.783 402.516 602.241 407.108 610.079 413.406C615.689 417.894 620.755 423.022 625.173 428.686C630.532 435.628 639.812 453.684 639.969 462.281L639.2 461.524Z" fill="#75336A"/>
<path d="M198.163 371.163C198.697 371.664 199.96 372.781 200.356 373.293C199.521 376.488 195.469 390.985 196.188 393.515C194.769 394.044 193.682 393.948 192.171 393.978C193.923 386.31 195.922 378.701 198.163 371.163Z" fill="#F5C37A"/>
<path d="M399.076 387.6C400.588 386.25 410.785 386.128 413.812 385.732C411.436 390.326 409.537 394.133 407.461 398.91C404.833 395.688 400.973 391.162 399.076 387.6Z" fill="#CFBAF0"/>
<path d="M218.877 403.307C210.503 402.129 205.782 390.674 215.552 387.555C223.999 388.621 227.331 399.332 218.877 403.307Z" fill="#F5C37A"/>
<path d="M397.365 390.29C400.202 394.519 402.908 398.123 405.977 402.156C401.529 419.849 398.836 435.176 408.843 451.575C413.195 458.705 419.624 465.582 425.079 471.589C456.965 506.697 443.889 534.212 424.576 571.409C412.945 593.81 405.409 635.151 408.614 660.439C404.065 663.64 400.813 667.842 397.507 672.249C386.732 686.61 382.521 699.058 378.17 716.109C375.054 727.238 373.904 741.255 372.535 752.8C372.184 755.761 371.857 767.004 371.306 768.65L370.364 767.815L370.819 767.247L370.238 767.877C369.063 764.449 368.27 757.366 368.002 753.7C365.684 722.002 375.248 692.551 381.278 661.973C383.824 647.302 386.611 632.563 388.278 617.751C392.094 583.858 391.801 548.586 383.346 515.396C377.885 493.96 369.177 474.588 358.422 455.35C352.241 444.293 345.914 433.945 340.543 422.482C353.823 415.237 366.951 406.083 380.35 398.692C386.327 395.396 391.618 393.339 397.365 390.29Z" fill="#98F5E1"/>
<path d="M414.72 390.905C416.366 392.232 417.596 394.746 418.307 396.694C422.17 407.27 428.439 413.676 440.378 413.282C452.052 412.802 464.87 410.16 476.83 408.751L514.322 404.648C518.267 404.237 532.419 403.726 534.881 401.351C551.252 409.848 569.39 425.427 576.697 442.602C523.173 402.428 463.35 458.514 409.842 402.002C410.96 398.647 413.185 394.205 414.72 390.905Z" fill="#EEEFFA"/>
<path d="M193.605 407.696C188.064 403.829 184.193 398.243 192.171 393.978C193.682 393.948 194.769 394.044 196.188 393.515C205.017 396.841 204.042 404.228 196.048 408.39L193.605 407.696Z" fill="#FAE495"/>
<path d="M265.905 409.585C257.625 406.344 251.35 396.223 263.398 394.09C266.875 394.265 270.353 396.233 271.771 399.521C272.615 401.484 272.56 403.718 271.621 405.637C270.442 408.008 268.219 408.731 265.905 409.585Z" fill="#F5C37A"/>
<path d="M541.348 402.743C545.236 400.336 555.906 403.031 560.214 404.05C573.35 407.157 587.06 414.984 597.537 423.361C604.85 429.209 611.538 435.868 617.911 442.717C623.207 448.407 628.614 454.964 634.812 459.638C636.278 460.744 637.322 461.33 639.2 461.524L639.969 462.281L640.408 461.375C644.94 463.726 652.388 456.539 655.997 453.851C659.93 471.369 660.699 484.16 659.414 501.984C645.258 504.289 642.535 503.495 628.404 501.045C627.815 498.357 627.611 496.278 626.023 494.065L625.413 494.027C625.048 496.189 625.795 497.886 626.421 500.042C618.358 499.927 606.916 488.675 598.474 483.764C594.216 467.106 589.903 458.912 579.802 444.984C578.079 442.609 576.537 436.886 574.511 433.751C565.663 420.064 554.638 411.435 541.348 402.743Z" fill="#EEEFFA"/>
<path d="M424.29 464.942C439.06 471.324 453.018 473.141 467.471 480.018C479.2 485.371 491.001 497.342 494.856 509.724C502.211 533.348 486.23 558.728 471.691 576.115C471.176 576.731 471.427 576.873 471.691 577.567L472.772 577.629C478.4 573.651 490.907 553.587 493.5 547.261C499.552 532.495 502.815 516.997 494.708 502.324C482.931 479.967 461.202 473.932 438.675 467.762C405.806 458.758 399.866 434.331 408.442 404.852C437.462 434.049 469.473 433.633 507.446 430.256C542.943 427.099 575.939 431.878 590.59 468.595C604.678 503.9 596.021 544.208 575.222 575.209C566.443 588.294 550.545 597.655 535.346 600.658C527.274 601.968 519.288 602.91 511.24 604.423C489.704 608.473 475.074 624.262 464.301 642.46C457.143 654.553 453.088 674.063 438.126 679.583C433.13 681.425 427.591 681.09 422.854 678.659C412.036 673.197 411.362 661.569 410.785 650.986C409.801 632.942 411.534 620.028 419.527 603.858C428.945 585.261 440.918 570.694 454.298 555.047C463.076 544.782 471.029 530.798 469.272 516.829C466.034 491.096 442.503 479.522 424.29 464.942ZM553.393 436.576C537.138 443.143 517.942 466.516 508.223 480.925C504.193 479.332 494.246 477.577 489.902 478.138L489.098 478.679C489.585 481.552 502.337 481.119 506.016 483.456C516.339 490.012 523.708 498.464 534.074 505.522C537.128 507.308 545.8 512.505 549.294 512.281C548.645 510.528 545.566 508.962 543.92 508.286C529.962 502.547 520.636 490.573 509.001 481.918C512.806 479.249 517.059 473.419 520.085 469.695C527.337 460.772 534.197 451.662 543.472 444.654C546.44 442.381 550.726 439.876 553.295 437.319L553.393 436.576ZM580.254 480.271C578.947 483.127 579.525 489.56 579.477 492.937C579.168 515.006 584.676 538.904 564.554 554.348C560.833 557.203 556.441 559.881 552.111 561.708C549.829 562.671 549.044 562.212 546.865 563.889C546.635 565.166 546.519 564.582 547.156 565.65C557.177 562.921 564.05 559.332 571.395 551.403C587.25 534.287 580.859 509.363 581.929 488.306C582.045 486.026 582.014 483.221 581.606 481.043C581.203 480.801 580.668 480.443 580.254 480.271Z" fill="#98F5E1"/>
<path d="M193.605 407.696L196.048 408.39L195.872 424.099L195.952 424.306L193.213 425.615C193.398 419.507 193.296 413.975 193.605 407.696Z" fill="#FAE495"/>
<path d="M235.825 427.281C227.333 426.395 226.262 418.156 233.303 412.941C242.118 413.655 243.71 422.124 235.825 427.281Z" fill="#F5C37A"/>
<path d="M195.872 424.099C211.6 422.896 226.404 426.125 240.654 432.794C243.812 434.272 247.498 435.635 250.081 437.973C244.121 437.767 240.711 437.401 241.909 444.801C231.952 440.575 223.914 437.789 213.024 436.491C209.554 436.078 206.123 436.104 202.876 435.681L202.445 435.621C204.44 430.423 200.79 425.932 195.952 424.306L195.872 424.099Z" fill="#B9FBC0"/>
<path d="M193.213 425.615L195.952 424.306C200.79 425.932 204.44 430.423 202.445 435.621C201.274 436.428 198.092 438.337 197.257 439.281L196.161 439.23C195.733 438.684 194.113 438.189 193.313 437.862C190.02 433.156 189.362 430.906 192.336 426.025L193.213 425.615Z" fill="#7CD88A"/>
<path d="M316.573 440.203C323.891 435.696 331.159 429.306 338.749 424.283C347.831 444.053 359.973 462.272 369.127 482.308C398.228 545.999 388.669 617.772 373.774 683.822C365.217 721.4 358.346 759.44 376.941 795.672C387.539 817.052 401.08 829.661 425.147 834.436C420.648 840.368 412.869 841.453 409.292 849.76C407.397 854.161 407.842 860.553 406.505 863.416C406.089 863.265 405.675 863.107 405.263 862.943C387.139 855.719 371.745 842.979 361.261 826.524C353.549 814.613 349.977 804.451 346.617 790.755C336.252 748.511 352.481 711.339 357.506 670.037C360.63 644.365 361.295 615.874 360.149 589.984C358.223 546.479 344.108 505.823 327.925 465.821C324.588 457.573 320.207 448.586 316.573 440.203Z" fill="#98F5E1"/>
<path d="M175.123 434.39C180.124 432.278 185.239 425.748 192.336 426.025C189.362 430.906 190.02 433.156 193.313 437.862C184.922 436.904 182.809 449.386 174.942 434.804L175.123 434.39Z" fill="#B9FBC0"/>
<path d="M251.041 437.974C251.422 423.484 268.238 431.491 261.973 444.291C260.058 443.922 257.362 442.873 255.428 442.209L251.041 437.974Z" fill="#F5C37A"/>
<path d="M270.733 446.38C269.096 444.215 266.936 441.871 267.538 439.065C269.031 432.105 279.506 433.523 282.232 438.851C284.055 442.414 283.465 444.225 282.544 447.823C277.575 448.274 275.411 448.222 270.733 446.38Z" fill="#F5C37A"/>
<path d="M476.552 907.985C466.618 914.619 453.227 919.727 442.141 924.508C383.936 949.469 316.902 964.913 254.963 944.265C191.046 922.958 148.505 869.503 118.155 811.753C104.161 785.125 91.5926 753.036 84.557 723.722C71.0233 667.334 72.1234 604.62 90.12 549.291C103.862 508.312 134.983 454.598 174.942 434.804C182.809 449.386 184.922 436.904 193.313 437.862C194.113 438.189 195.733 438.684 196.161 439.23C195.372 445.55 201.126 457.429 200.014 462.109L199.627 462.344C192.271 466.87 197.583 473.741 205.323 474.5C209.304 482.85 214.122 490.291 217.734 498.554C218.148 499.502 218.181 502.586 218.202 503.709C219.877 505.972 220.803 507.431 223.362 508.759C226.64 515.95 235.639 521.332 240.701 527.24C243.039 529.908 244.416 531.32 247.634 533.118C258.939 540.887 266.031 545.52 278.116 552.256C281.867 556.302 282.792 557.64 288.416 558.153C294.403 560.125 305.713 563.615 311.185 566.237C319.887 572.096 328.622 573.179 339.095 573.71C340.994 574.119 345.345 574.258 347.305 573.804C350.026 573.175 349.752 569.275 349.323 567.189C349.054 565.878 347.937 564.666 346.559 564.371C341.639 563.317 336.573 562.707 331.621 561.778C321.949 560.117 300.716 554.713 292.805 549.659C289.876 544.538 285.752 544.51 280.39 543.661C277.539 542.483 256.316 528.88 254.944 527.117C255.413 519.374 249.302 518.995 243.541 520.43C240.154 517.837 232.836 510.242 229.799 507.024C234.513 500.045 227.726 494.204 220.011 497.903C211.913 484.746 205.323 470.882 201.016 456.008C199.571 451.014 198.846 444.395 197.52 440.108L197.257 439.281C198.092 438.337 201.274 436.428 202.445 435.621L202.876 435.681C206.123 436.104 209.554 436.078 213.024 436.491C223.914 437.789 231.952 440.575 241.909 444.801C246.387 448.075 249.426 451.464 254.606 447.539C262.367 448.641 276.872 454.735 284.716 455.019C285.293 455.582 285.899 456.114 286.531 456.613C297.078 464.821 310.406 453.874 297.161 446.357C302.952 444.562 308.812 443.666 314.749 442.08C324.087 463.56 335.187 488.052 341.877 510.6C338.454 510.299 333.812 507.572 330.616 506.073C309.437 496.136 292.628 480.047 275.182 464.889C274.335 464.152 274.516 464.043 273.648 464.382C275.235 466.763 282.191 472.956 284.659 475.138C299.029 487.846 323.846 508.018 342.428 512.631C358.762 562.605 360.394 605.824 356.02 658.096C352.242 703.246 333.195 744.581 343.886 790.028C351.374 821.859 367.366 846.956 397.225 862.054C400.461 863.684 403.762 865.181 407.121 866.54C411.589 892.131 456.39 900.841 476.552 907.985ZM184.167 461.767C179.855 462.421 177.649 465.551 178.908 469.82C179.952 473.356 181.457 474.105 184.587 475.735C185.144 478.476 189.846 496.036 189.127 496.989C188.54 497.767 187.904 498.241 187.163 498.858C185.668 500.103 184.352 501.292 184.188 503.383C184.044 505.229 184.943 507.526 186.153 508.903C187.502 510.438 189.983 511.281 191.989 511.262C193.103 511.251 194.233 511.092 195.338 510.954C196.419 515.344 202.605 531.478 205.569 534.039C204.982 535.337 204.619 535.787 203.727 536.848C203.691 539.341 204.108 541.636 206.082 543.371C215.129 551.324 218.622 535.612 209.601 534.065L207.058 533.452C203.693 530.155 198.626 515.669 196.723 510.598C203.022 503.548 199.4 500.078 192.116 496.63C189.689 491.439 187.341 481.383 185.714 475.337C190.964 470.854 193.813 466.209 186.184 461.972C185.065 458.613 185.418 452.465 183.761 447.16C183.335 451.797 183.048 457.23 184.167 461.767ZM219.035 460.187C218.909 464.158 225.866 474.383 229.29 476.553C229.001 474.992 222.016 463.467 220.575 460.842L219.035 460.187ZM235.06 472.506C233.18 474.113 231.679 475.377 229.94 477.161C232.496 482.035 233.787 484.543 239.842 484.31C247.803 479.608 243.417 471.81 235.06 472.506ZM262.295 505.685C264.609 508.783 290.738 526.282 294.273 526.653C291.313 523.922 282.238 518.47 278.223 515.827C274.006 513.051 266.849 507.662 262.886 505.47L262.295 505.685ZM212.116 545.761C213.379 548.844 215.4 551.702 217.235 554.485C228.062 570.904 240.595 586.244 254.416 600.232C256.043 601.878 259.961 606.269 262.145 606.662C259.337 602.103 252.749 596.985 249.047 592.66C239.403 581.392 229.741 570.3 221.333 558.049C218.969 554.606 215.172 546.859 212.116 545.761Z" fill="#98F5E1"/>
<path d="M508.223 480.925C517.942 466.516 537.138 443.143 553.393 436.576L553.295 437.319C550.726 439.876 546.44 442.381 543.472 444.654C534.197 451.662 527.337 460.772 520.085 469.695C517.059 473.419 512.806 479.249 509.001 481.918C520.636 490.573 529.962 502.547 543.92 508.286C545.566 508.962 548.645 510.528 549.294 512.281C545.8 512.505 537.128 507.308 534.074 505.522C523.708 498.464 516.339 490.012 506.016 483.456C502.337 481.119 489.585 481.552 489.098 478.679L489.902 478.138C494.246 477.577 504.193 479.332 508.223 480.925Z" fill="black"/>
<path d="M241.909 444.801C240.711 437.401 244.121 437.767 250.081 437.973L251.041 437.974L255.428 442.209C255.505 444.732 255.372 445.116 254.606 447.539C249.426 451.464 246.387 448.075 241.909 444.801Z" fill="#7CD88A"/>
<path d="M205.323 474.5C197.583 473.741 192.271 466.87 199.627 462.344L200.014 462.109C201.126 457.429 195.372 445.55 196.161 439.23L197.257 439.281L197.52 440.108C198.846 444.395 199.571 451.014 201.016 456.008C205.323 470.882 211.913 484.746 220.011 497.903C227.726 494.204 234.513 500.045 229.799 507.024C227.061 508.428 226.417 508.44 223.362 508.759C220.803 507.431 219.877 505.972 218.202 503.709C218.181 502.586 218.148 499.502 217.734 498.554C214.122 490.291 209.304 482.85 205.323 474.5Z" fill="url(#paint2_linear_6_9263)"/>
<path d="M255.428 442.209C257.362 442.873 260.058 443.922 261.973 444.291C265.796 445.714 266.768 445.746 270.733 446.38C275.411 448.222 277.575 448.274 282.544 447.823C284.181 447.757 286.197 447.621 287.792 447.696C284.498 449.242 283.942 451.818 284.716 455.019C276.872 454.735 262.367 448.641 254.606 447.539C255.372 445.116 255.505 444.732 255.428 442.209Z" fill="#B9FBC0"/>
<path d="M287.792 447.696C290.824 447.104 294.083 446.754 297.161 446.357C310.406 453.874 297.078 464.821 286.531 456.613C285.899 456.114 285.293 455.582 284.716 455.019C283.942 451.818 284.498 449.242 287.792 447.696Z" fill="#7CD88A"/>
<path d="M184.167 461.767C183.048 457.23 183.335 451.797 183.761 447.16C185.418 452.465 185.065 458.613 186.184 461.972L184.167 461.767Z" fill="#B9FBC0"/>
<path d="M758.119 487.819C764.689 480.711 772.677 474.975 781.491 470.986C802.662 461.403 825.89 456.268 849.157 456.72C857.675 456.886 866.431 458.502 874.786 460.148L874.904 460.424C870.738 476.533 867.59 494.348 864.012 510.759C855.789 548.568 847.29 586.316 838.516 624C835.308 637.247 831.18 650.152 827.102 663.119C825.986 666.667 820.981 681.269 820.607 684.405L820.304 684.774C813.028 687.789 803.718 691.572 796.241 693.94C797.41 687.875 799.18 679.202 801.023 673.582C808.491 650.806 817.872 628.182 809.522 604.1C808.471 601.068 804.32 594.206 804.582 591.765L803.437 591.866C802.338 591.092 801.128 589.614 800.195 588.583C778.784 566.141 755.372 560.178 725.123 558.56C727.27 552.944 729.096 547.241 730.981 541.533C751.145 533.686 755.771 506.521 758.119 487.819Z" fill="#FFCFD2"/>
<path d="M229.29 476.553C225.866 474.383 218.909 464.158 219.035 460.187L220.575 460.842C222.016 463.467 229.001 474.992 229.29 476.553Z" fill="#B9FBC0"/>
<path d="M874.904 460.424C927.014 476.611 940.539 527.63 925.277 575.846C910.064 623.911 865.946 661.531 822.195 683.636C821.67 683.899 821.14 684.155 820.607 684.405C820.981 681.269 825.986 666.667 827.102 663.119C831.18 650.152 835.308 637.247 838.516 624C847.29 586.316 855.789 548.568 864.012 510.759C867.59 494.348 870.738 476.533 874.904 460.424Z" fill="#FAE495"/>
<path d="M184.587 475.735C181.457 474.105 179.952 473.356 178.908 469.82C177.649 465.551 179.855 462.421 184.167 461.767L186.184 461.972C193.813 466.209 190.964 470.854 185.714 475.337C187.341 481.383 189.689 491.439 192.116 496.63C199.4 500.078 203.022 503.548 196.723 510.598C198.626 515.669 203.693 530.155 207.058 533.452L209.601 534.065C207.826 534.161 207.274 533.855 205.569 534.039C202.605 531.478 196.419 515.344 195.338 510.954C194.233 511.092 193.103 511.251 191.989 511.262C189.983 511.281 187.502 510.438 186.153 508.903C184.943 507.526 184.044 505.229 184.188 503.383C184.352 501.292 185.668 500.103 187.163 498.858C187.904 498.241 188.54 497.767 189.127 496.989C189.846 496.036 185.144 478.476 184.587 475.735Z" fill="#7CD88A"/>
<path d="M341.877 510.6L342.428 512.631C323.846 508.018 299.029 487.846 284.659 475.138C282.191 472.956 275.235 466.763 273.648 464.382C274.516 464.043 274.335 464.152 275.182 464.889C292.628 480.047 309.437 496.136 330.616 506.073C333.812 507.572 338.454 510.299 341.877 510.6Z" fill="#7CD88A"/>
<path d="M229.94 477.161C231.679 475.377 233.18 474.113 235.06 472.506C243.417 471.81 247.803 479.608 239.842 484.31C233.787 484.543 232.496 482.035 229.94 477.161Z" fill="#7CD88A"/>
<path d="M414.726 607.88C417.289 596.245 421.124 584.927 426.162 574.13C437.353 550.125 453.513 526.495 444.837 499.024C441.547 488.607 436.427 481.825 430.364 472.885C430.581 472.993 430.798 473.1 431.015 473.208C445.308 483.175 461.179 493.998 465.708 511.834C472.126 537.106 450.163 555.215 436.218 573.01C430.341 580.511 426.967 585.755 422.201 593.772C419.642 598.163 417.096 603.333 414.726 607.88Z" fill="#98F5E1"/>
<path d="M547.156 565.65C546.519 564.582 546.635 565.166 546.865 563.889C549.044 562.212 549.829 562.671 552.111 561.708C556.441 559.881 560.833 557.203 564.554 554.348C584.676 538.904 579.168 515.006 579.477 492.937C579.525 489.56 578.947 483.127 580.254 480.271C580.668 480.443 581.203 480.801 581.606 481.043C582.014 483.221 582.045 486.026 581.929 488.306C580.859 509.363 587.25 534.287 571.395 551.403C564.05 559.332 557.177 562.921 547.156 565.65Z" fill="black"/>
<path d="M598.474 483.764C606.916 488.675 618.358 499.927 626.421 500.042C629.904 519.706 627.006 539.968 618.15 557.867C616.158 561.868 611.686 568.423 610.243 571.708L610.735 572.026C612.44 570.382 613.896 568.293 615.208 566.322C627.859 547.326 631.831 523.384 628.404 501.045C642.535 503.495 645.258 504.289 659.414 501.984C651.047 563.061 630.008 601.657 580.312 638.437C568.859 646.913 557.463 654.67 546.09 663.359C547.003 659.118 550.185 654.408 551.591 650.049C554.818 640.044 556.519 632.306 560.086 621.987C564.163 610.189 571.543 595.769 574.478 583.576C574.626 582.962 573.998 582.655 573.415 582.128C574.466 580.829 575.495 579.513 576.503 578.18C590.807 559.138 600.578 529.595 600.433 505.798C600.385 498.046 599.535 491.373 598.474 483.764Z" fill="#90DBF4"/>
<path d="M626.421 500.042C625.795 497.886 625.048 496.189 625.413 494.027L626.023 494.065C627.611 496.278 627.815 498.357 628.404 501.045C631.831 523.384 627.859 547.326 615.208 566.322C613.896 568.293 612.44 570.382 610.735 572.026L610.243 571.708C611.686 568.423 616.158 561.868 618.15 557.867C627.006 539.968 629.904 519.706 626.421 500.042Z" fill="black"/>
<path d="M294.273 526.653C290.738 526.282 264.609 508.783 262.295 505.685L262.886 505.47C266.849 507.662 274.006 513.051 278.223 515.827C282.238 518.47 291.313 523.922 294.273 526.653Z" fill="#7CD88A"/>
<path d="M223.362 508.759C226.417 508.44 227.061 508.428 229.799 507.024C232.836 510.242 240.154 517.837 243.541 520.43C241.641 523.308 240.968 523.776 240.701 527.24C235.639 521.332 226.64 515.95 223.362 508.759Z" fill="#B9FBC0"/>
<path d="M243.541 520.43C249.302 518.995 255.413 519.374 254.944 527.117C253.792 531.943 252.294 532.038 247.634 533.118C244.416 531.32 243.039 529.908 240.701 527.24C240.968 523.776 241.641 523.308 243.541 520.43Z" fill="#7CD88A"/>
<path d="M247.634 533.118C252.294 532.038 253.792 531.943 254.944 527.117C256.316 528.88 277.539 542.483 280.39 543.661C276.745 545.958 277.66 548.358 278.116 552.256C266.031 545.52 258.939 540.887 247.634 533.118Z" fill="#B9FBC0"/>
<path d="M205.569 534.039C207.274 533.855 207.826 534.161 209.601 534.065C218.622 535.612 215.129 551.324 206.082 543.371C204.108 541.636 203.691 539.341 203.727 536.848C204.619 535.787 204.982 535.337 205.569 534.039Z" fill="#7CD88A"/>
<path d="M278.116 552.256C277.66 548.358 276.745 545.958 280.39 543.661C285.752 544.51 289.876 544.538 292.805 549.659C292.117 553.703 291.147 555.123 288.416 558.153C282.792 557.64 281.867 556.302 278.116 552.256Z" fill="#7CD88A"/>
<path d="M699.186 557.053C705.055 552.854 719.804 546.053 727.188 544.096L722.375 558.381C715.104 557.716 706.595 557.46 699.186 557.053Z" fill="#FFCFD2"/>
<path d="M262.145 606.662C259.961 606.269 256.043 601.878 254.416 600.232C240.595 586.244 228.062 570.904 217.235 554.485C215.4 551.702 213.379 548.844 212.116 545.761C215.172 546.859 218.969 554.606 221.333 558.049C229.741 570.3 239.403 581.392 249.047 592.66C252.749 596.985 259.337 602.103 262.145 606.662Z" fill="#7CD88A"/>
<path d="M292.805 549.659C300.716 554.713 321.949 560.117 331.621 561.778C336.573 562.707 341.639 563.317 346.559 564.371C347.937 564.666 349.054 565.878 349.323 567.189C349.752 569.275 350.026 573.175 347.305 573.804C345.345 574.258 340.994 574.119 339.095 573.71L339.53 572.722C338.955 569.907 338.654 567.307 336.637 565.199C331.806 564.126 319.182 564.132 313.712 563.483C312.618 563.354 311.886 565.13 311.185 566.237C305.713 563.615 294.403 560.125 288.416 558.153C291.147 555.123 292.117 553.703 292.805 549.659Z" fill="#B9FBC0"/>
<path d="M694.543 558.035C696.531 558.41 697.359 557.846 699.186 557.053C706.595 557.46 715.104 557.716 722.375 558.381L720.403 564C715.198 562.499 704.444 562.593 698.943 563.786C696.819 564.246 694.178 565.19 692.169 565.469L694.543 558.035Z" fill="#E68882"/>
<path d="M722.821 564.956L725.123 558.56C755.372 560.178 778.784 566.141 800.195 588.583C799.8 588.933 796.089 593.583 795.974 594.056L796.829 593.965C799.333 593.693 801.93 593.75 803.437 591.866L804.582 591.765C804.32 594.206 808.471 601.068 809.522 604.1C817.872 628.182 808.491 650.806 801.023 673.582C799.18 679.202 797.41 687.875 796.241 693.94C794.851 698.316 793.253 703.616 790.984 707.57C784.691 718.541 772.334 728.941 761.196 734.677C751.189 739.83 742.079 742.241 731.239 744.379C701.186 746.528 677.534 738.09 659.239 713.704C656.846 710.514 653.61 707.059 651.595 703.651C649.362 699.876 647.898 695.251 645.789 691.371L645.347 690.567C644.921 688.387 644.734 686.509 643.661 684.587L650.245 681.171C651.124 687.456 653.248 691.011 655.996 696.602C667.884 671.228 691.517 647.296 719.122 639.877C744.666 633.012 776.63 629.734 792.522 605.614C794.334 602.865 798.198 598.041 796.684 594.691L795.269 594.504C790.041 596.53 783.981 602.244 779.286 605.624C773.275 609.951 767.659 613.794 761.115 617.382C739.829 629.055 714.794 630.826 693.462 642.115C690.953 643.443 687.165 646.131 684.664 646.941C686.513 643.925 688.617 640.314 690.655 637.493C692.336 637.499 704.247 632.218 707.141 631.333C732.651 623.526 753.438 620.605 775.241 603.466C772.501 603.648 762.617 604.268 760.462 604.726C747.142 607.557 711.351 613.765 700.144 620.501C701.755 617.148 703.408 613.815 705.101 610.502C705.373 610.592 705.644 610.681 705.915 610.77C712.249 609.929 720.512 607.822 726.721 606.841C738.309 605.009 749.505 601.979 761.071 600.398C766.193 599.697 773.652 600.933 778.826 599.774C780.332 599.436 785.403 596.176 786.956 595.216C781.171 595.192 774.501 595.071 768.941 593.301C747.935 586.613 742.333 576.919 718.551 577.623L719.666 574.438C750.84 571.114 761.144 598.773 793.421 590.905C774.89 570.014 748.698 567.582 722.821 564.956ZM800.299 601.899C782.537 627.451 761.85 635.952 732.186 641.093C708.655 645.171 695.907 652.509 680.091 670.018C671.525 679.502 663.621 689.457 659.205 701.763L664.892 708.809C665.954 710.174 667.209 711.702 668.208 713.081C677.666 687.018 702.233 666.211 726.408 653.837C746.865 643.366 771.385 639.066 791.336 627.254C798.184 623.2 805.963 608.622 800.299 601.899ZM805.271 617.821C783.596 651.716 743.045 662.59 715.656 689.881C709.375 696.14 696.093 723.117 694.781 731.92C695.47 733.24 695.991 733.258 697.531 733.71C700.091 734.494 702.706 735.358 705.312 735.935C714.456 717.782 720.66 706.122 735.82 691.572C743.121 684.607 750.925 678.19 759.169 672.373C774.8 661.546 802.555 648.029 805.736 627.475C806.161 624.728 806.15 620.519 805.271 617.821ZM780.989 637.629C755.049 645.285 734.089 652.283 711.665 667.615C690.053 682.392 679.775 692.43 671.14 717.323L675.353 721.438L679.979 725.456C687.658 702.143 722.82 675.026 744.081 662.934C754.224 657.165 773.33 646.095 781.314 637.939L780.989 637.629ZM803.789 643.888C800.366 646.871 797.026 650.033 793.705 653.154C783.562 662.686 771.149 668.95 759.906 676.906C742.468 689.247 725.516 705.176 715.73 724.392C714.567 726.714 710.552 734.358 710.32 736.531L711.083 736.965C714.037 737.337 716.986 737.745 719.931 738.189C734.275 716.907 751.289 697.01 771.309 680.833C779.177 674.475 788.974 669.98 796.438 663.313C799.245 660.805 804.554 647.366 803.789 643.888ZM794.511 669.868C788.512 673.515 773.942 683.857 768.902 688.116C759.762 695.839 729.491 728.124 725.776 737.089C726.304 737.787 726.015 737.599 726.493 737.836C732.146 736.881 731.627 736.661 734.682 731.604C746.708 711.699 764.01 694.361 783.404 681.602C787.279 679.052 795.635 676.072 795.596 671.366C795.01 670.122 795.422 670.379 794.511 669.868ZM791.076 683.869C771.249 694.752 749.829 715.561 738.616 735.338L739.047 735.894L739.613 735.945C744.616 734.807 750.342 733.743 757.274 730.03C773.493 721.342 791.43 704.683 791.89 684.621C791.828 684.451 791.765 684.281 791.702 684.111L791.076 683.869ZM704.237 696.983C698.534 702.011 684.799 719.942 683.735 726.929C684.685 727.939 684.632 727.869 685.905 728.444L691.13 731.146C693.099 723.727 695.394 716.537 698.156 709.36C699.18 706.699 704.316 698.592 704.237 696.983Z" fill="#E68882"/>
<path d="M646.728 596.956C651.448 583.31 666.537 571.379 678.78 564.652C682.026 562.869 687.306 561.227 690.916 559.999L688.402 567.452C685.442 566.688 682.689 568.852 680.139 570.332C662.526 580.555 650.107 595.669 647.713 615.92C652.877 609.192 674.282 586.879 681.364 584.44C670.232 610.626 654.506 633.581 640.981 658.179C639.849 656.868 639.2 656.613 637.91 654.945C637.532 647.637 640.19 639.916 640.944 632.983C642.319 620.337 643.919 609.431 646.728 596.956Z" fill="url(#paint3_linear_6_9263)"/>
<path d="M692.169 565.469C694.178 565.19 696.819 564.246 698.943 563.786C704.444 562.593 715.198 562.499 720.403 564C719.466 566.667 717.609 572.445 716.466 574.768C705.533 576.69 697.075 579.712 686.932 584.161C686.09 584.531 685.372 584.261 684.604 583.953C687.51 577.514 689.789 572.085 692.169 565.469Z" fill="#FFCFD2"/>
<path d="M311.185 566.237C311.886 565.13 312.618 563.354 313.712 563.483C319.182 564.132 331.806 564.126 336.637 565.199C338.654 567.307 338.955 569.907 339.53 572.722L339.095 573.71C328.622 573.179 319.887 572.096 311.185 566.237Z" fill="#7CD88A"/>
<path d="M722.821 564.956C748.698 567.582 774.89 570.014 793.421 590.905C761.144 598.773 750.84 571.114 719.666 574.438C720.8 571.309 721.798 568.124 722.821 564.956Z" fill="#FFCFD2"/>
<path d="M647.713 615.92C650.107 595.669 662.526 580.555 680.139 570.332C682.689 568.852 685.442 566.688 688.402 567.452C686.434 572.819 683.957 579.378 681.364 584.44C674.282 586.879 652.877 609.192 647.713 615.92Z" fill="#FFCFD2"/>
<path d="M684.604 583.953C685.372 584.261 686.09 584.531 686.932 584.161C697.075 579.712 705.533 576.69 716.466 574.768C716.152 575.615 715.225 578.285 714.888 578.977C710.135 577.419 696.765 584.807 692.198 586.734C685.94 589.374 683.758 593.11 679.64 596.239L678.578 595.558C680.476 591.786 682.487 587.566 684.604 583.953Z" fill="#EAAAAF"/>
<path d="M718.551 577.623C742.333 576.919 747.935 586.613 768.941 593.301C774.501 595.071 781.171 595.192 786.956 595.216C785.403 596.176 780.332 599.436 778.826 599.774C773.652 600.933 766.193 599.697 761.071 600.398C749.505 601.979 738.309 605.009 726.721 606.841C720.512 607.822 712.249 609.929 705.915 610.77C705.644 610.681 705.373 610.592 705.101 610.502L709.349 601.058C720.666 598.11 732.691 596.273 744.395 597.51C750.193 598.123 756.373 599.376 762.147 599.547L762.87 599.564C750.991 593.714 736.783 592.001 723.698 593.5C719.827 593.944 715.295 596.082 711.578 595.955L718.551 577.623Z" fill="#FFCFD2"/>
<path d="M678.578 595.558L679.64 596.239C683.758 593.11 685.94 589.374 692.198 586.734C696.765 584.807 710.135 577.419 714.888 578.977C712.465 585.337 709.974 591.671 707.417 597.978C700.537 600.338 680.089 607.88 674.66 612.243C672.835 611.864 672.5 611.91 671.138 610.591C673.456 605.652 676.139 600.47 678.578 595.558Z" fill="#FFCFD2"/>
<path d="M573.415 582.128C573.998 582.655 574.626 582.962 574.478 583.576C571.543 595.769 564.163 610.189 560.086 621.987C556.519 632.306 554.818 640.044 551.591 650.049C550.185 654.408 547.003 659.118 546.09 663.359C542.287 666.564 538.433 669.707 534.529 672.788C530.107 672.843 516.87 678.105 511.181 679.449C496.871 682.829 481.806 681.777 467.854 685.669C448.168 691.16 417.457 706.879 397.199 708.137C396.057 703.11 396.311 695.464 395.053 692.101L394.867 692.029C393.313 696.944 394.393 703.23 395.307 708.146C395.038 708.478 394.769 708.811 394.499 709.143C392.246 709.452 379.302 715.938 378.17 716.109C382.521 699.058 386.732 686.61 397.507 672.249C400.813 667.842 404.065 663.64 408.614 660.439C409.579 666.333 411.311 672.261 415.487 676.719C419.434 680.988 424.99 683.407 430.804 683.388C453.614 683.255 457.925 659.456 466.69 643.657C470.504 636.781 480.155 624.497 486.069 619.823C518.585 594.129 539.037 617.21 573.415 582.128ZM510.842 623.736C509.413 633.667 503.993 644.358 496.825 651.395C495.47 652.725 492.173 655.208 492.488 656.457L492.917 656.622C499.572 651.836 514.702 631.977 511.617 624.178L510.842 623.736Z" fill="#EEEFFA"/>
<path d="M795.974 594.056C796.089 593.583 799.8 588.933 800.195 588.583C801.128 589.614 802.338 591.092 803.437 591.866C801.93 593.75 799.333 593.693 796.829 593.965L795.974 594.056Z" fill="#D6716B"/>
<path d="M709.349 601.058C710.073 599.173 710.709 597.782 711.578 595.955C715.295 596.082 719.827 593.944 723.698 593.5C736.783 592.001 750.991 593.714 762.87 599.564L762.147 599.547C756.373 599.376 750.193 598.123 744.395 597.51C732.691 596.273 720.666 598.11 709.349 601.058Z" fill="#E68882"/>
<path d="M795.269 594.504L796.684 594.691C798.198 598.041 794.334 602.865 792.522 605.614C776.63 629.734 744.666 633.012 719.122 639.877C691.517 647.296 667.884 671.228 655.996 696.602C653.248 691.011 651.124 687.456 650.245 681.171C666.047 671.349 673.444 660.64 684.664 646.941C687.165 646.131 690.953 643.443 693.462 642.115C714.794 630.826 739.829 629.055 761.115 617.382C767.659 613.794 773.275 609.951 779.286 605.624C783.981 602.244 790.041 596.53 795.269 594.504Z" fill="#FFCFD2"/>
<path d="M602.019 675.122C612.924 655.901 623.967 637.386 633.682 617.456C636.748 611.165 642.836 603.07 646.728 596.956C643.919 609.431 642.319 620.337 640.944 632.983C640.19 639.916 637.532 647.637 637.91 654.945C639.2 656.613 639.849 656.868 640.981 658.179C638.116 663.138 628.838 679.659 625.473 682.702L624.815 682.679C615.575 682.827 609.124 681.379 602.019 675.122Z" fill="#FFCFD2"/>
<path d="M674.66 612.243C680.089 607.88 700.537 600.338 707.417 597.978L705.313 602.881C696.744 603.851 680.054 615.262 672.471 619.863C669.053 621.937 666.591 624.442 662.584 626.002C664.385 622.643 666.253 619.321 668.189 616.038L669.562 616.251C671.731 615.178 672.889 613.886 674.66 612.243Z" fill="#E68882"/>
<path d="M659.205 701.763C663.621 689.457 671.525 679.502 680.091 670.018C695.907 652.509 708.655 645.171 732.186 641.093C761.85 635.952 782.537 627.451 800.299 601.899C805.963 608.622 798.184 623.2 791.336 627.254C771.385 639.066 746.865 643.366 726.408 653.837C702.233 666.211 677.666 687.018 668.208 713.081C667.209 711.702 665.954 710.174 664.892 708.809L659.205 701.763Z" fill="#FFCFD2"/>
<path d="M662.584 626.002C666.591 624.442 669.053 621.937 672.471 619.863C680.054 615.262 696.744 603.851 705.313 602.881C703.568 606.668 701.826 610.572 699.981 614.302C695.867 615.197 681.562 621.901 679.957 625.838C683.605 623.588 685.741 620.58 689.24 620.586L690.258 621.164L690.611 622.595C688.562 625.69 676.748 629.402 675.723 632.211C672.81 634.956 667.19 637.996 663.712 640.415C656.642 645.333 653.821 651.282 648.932 657.845C647.017 657.698 647.305 662.706 645.311 664.193C645.419 661.729 644.55 661.177 644.618 659.139C646.472 656.298 649.185 651.76 649.717 648.481C650.471 646.199 660.963 628.736 662.584 626.002Z" fill="#EAAAAF"/>
<path d="M690.655 637.493C693.726 631.831 696.991 626.131 700.144 620.501C711.351 613.765 747.142 607.557 760.462 604.726C762.617 604.268 772.501 603.648 775.241 603.466C753.438 620.605 732.651 623.526 707.141 631.333C704.247 632.218 692.336 637.499 690.655 637.493Z" fill="#FFCFD2"/>
<path d="M668.189 616.038C669.039 614.261 670.173 612.334 671.138 610.591C672.5 611.91 672.835 611.864 674.66 612.243C672.889 613.886 671.731 615.178 669.562 616.251L668.189 616.038Z" fill="#EAAAAF"/>
<path d="M675.723 632.211C676.748 629.402 688.562 625.69 690.611 622.595L690.258 621.164L689.24 620.586C685.741 620.58 683.605 623.588 679.957 625.838C681.562 621.901 695.867 615.197 699.981 614.302C699.259 615.722 696.64 621.082 695.887 622.054C692.587 622.202 679.747 629.977 675.723 632.211Z" fill="#E68882"/>
<path d="M697.531 733.71C695.991 733.258 695.47 733.24 694.781 731.92C696.093 723.117 709.375 696.14 715.656 689.881C743.045 662.59 783.596 651.716 805.271 617.821C806.15 620.519 806.161 624.728 805.736 627.475C802.555 648.029 774.8 661.546 759.169 672.373C750.925 678.19 743.121 684.607 735.82 691.572C720.66 706.122 714.456 717.782 705.312 735.935C702.706 735.358 700.091 734.494 697.531 733.71Z" fill="#FFCFD2"/>
<path d="M675.723 632.211C679.747 629.977 692.587 622.202 695.887 622.054C693.875 626.076 689.478 634.914 686.854 638.425C674.264 643.752 656.997 655.285 647.686 665.499L645.761 667.574C646.69 664.302 647.522 660.93 648.932 657.845C653.821 651.282 656.642 645.333 663.712 640.415C667.19 637.996 672.81 634.956 675.723 632.211Z" fill="#FFCFD2"/>
<path d="M492.917 656.622L492.488 656.457C492.173 655.208 495.47 652.725 496.825 651.395C503.993 644.358 509.413 633.667 510.842 623.736L511.617 624.178C514.702 631.977 499.572 651.836 492.917 656.622Z" fill="black"/>
<path d="M542.657 762.362C544.271 759.16 545.69 755.554 547.15 752.242C552.644 739.776 557.816 726.965 564.3 714.97C570.432 703.63 579.301 694.228 585.206 682.725C589.705 673.962 592.81 664.961 596.641 655.92C599.645 649.071 603.577 642.547 607.447 636.157L608.234 637.712C605.201 642.584 599.285 652.007 597.618 656.998C590.739 677.587 580.37 693.144 568.339 710.817C560.84 721.835 555.536 737.556 549.726 749.637C546.711 756.347 544.22 763.95 539.976 769.931L542.657 762.362Z" fill="#051E1C"/>
<path d="M671.14 717.323C679.775 692.43 690.053 682.392 711.665 667.615C734.089 652.283 755.049 645.285 780.989 637.629L781.314 637.939C773.33 646.095 754.224 657.165 744.081 662.934C722.82 675.026 687.658 702.143 679.979 725.456L675.353 721.438L671.14 717.323Z" fill="#FFCFD2"/>
<path d="M645.761 667.574L647.686 665.499C656.997 655.285 674.264 643.752 686.854 638.425C685.956 639.963 682.671 645.491 681.404 646.609C674.927 644.825 648.375 670.242 646.804 678.505C647.059 678.8 647.314 679.095 647.569 679.39C645.862 680.44 644.664 681.17 642.872 682.049C641.221 679.79 640.908 679.082 640.375 676.36C640.205 673.884 639.415 670.267 638.332 668.039C641.487 662.725 646.47 652.993 649.717 648.481C649.185 651.76 646.472 656.298 644.618 659.139C644.55 661.177 645.419 661.729 645.311 664.193C647.305 662.706 647.017 657.698 648.932 657.845C647.522 660.93 646.69 664.302 645.761 667.574Z" fill="#E68882"/>
<path d="M711.083 736.965L710.32 736.531C710.552 734.358 714.567 726.714 715.73 724.392C725.516 705.176 742.468 689.247 759.906 676.906C771.149 668.95 783.562 662.686 793.705 653.154C797.026 650.033 800.366 646.871 803.789 643.888C804.554 647.366 799.245 660.805 796.438 663.313C788.974 669.98 779.177 674.475 771.309 680.833C751.289 697.01 734.275 716.907 719.931 738.189C716.986 737.745 714.037 737.337 711.083 736.965Z" fill="#FFCFD2"/>
<path d="M647.569 679.39C647.314 679.095 647.059 678.8 646.804 678.505C648.375 670.242 674.927 644.825 681.404 646.609C673.943 657.775 659.861 674.065 647.569 679.39Z" fill="#EAAAAF"/>
<path d="M638.332 668.039C639.415 670.267 640.205 673.884 640.375 676.36C638.259 677.109 633.474 679.22 631.571 678.41C633.473 675.177 636.229 671.237 638.332 668.039Z" fill="#FDE4CF"/>
<path d="M726.493 737.836C726.015 737.599 726.304 737.787 725.776 737.089C729.491 728.124 759.762 695.839 768.902 688.116C773.942 683.857 788.512 673.515 794.511 669.868C795.422 670.379 795.01 670.122 795.596 671.366C795.635 676.072 787.279 679.052 783.404 681.602C764.01 694.361 746.708 711.699 734.682 731.604C731.627 736.661 732.146 736.881 726.493 737.836Z" fill="#FFCFD2"/>
<path d="M601.52 676.877L602.019 675.122C609.124 681.379 615.575 682.827 624.815 682.679C617.803 687.314 607.241 681.532 601.52 676.877Z" fill="black"/>
<path d="M631.571 678.41C633.474 679.22 638.259 677.109 640.375 676.36C640.908 679.082 641.221 679.79 642.872 682.049C637.146 685.098 629.188 688.027 623.069 690.457C625.258 687.26 629.218 681.141 631.571 678.41Z" fill="url(#paint4_linear_6_9263)"/>
<path d="M601.52 676.877C607.241 681.532 617.803 687.314 624.815 682.679L625.473 682.702C623.711 685.357 622.047 687.828 620.173 690.407C617.165 690.272 605.207 689.476 602.946 690.144C590.315 699.349 579.46 721.329 570.859 734.446C569.457 736.584 565.829 742.489 564.188 743.895C566.74 738.389 572.241 729.201 575.281 723.471C583.17 708.596 591.758 690.428 601.52 676.877Z" fill="#FFCFD2"/>
<path d="M739.613 735.945L739.047 735.894L738.616 735.338C749.829 715.561 771.249 694.752 791.076 683.869L791.702 684.111C791.765 684.281 791.828 684.451 791.89 684.621C791.43 704.683 773.493 721.342 757.274 730.03C750.342 733.743 744.616 734.807 739.613 735.945Z" fill="#FFCFD2"/>
<path d="M621.283 692.824C627.543 692.124 637.733 687.312 643.661 684.587C644.734 686.509 644.921 688.387 645.347 690.567C644.138 692.915 642.529 694.872 641.091 697.139C637.621 702.63 634.216 708.162 630.876 713.733C619.309 733.341 609.615 755.239 599.25 775.545C592.996 787.796 587.734 800.24 580.696 812.095C561.614 848.066 542.258 871.652 506.433 892.669C500.479 896.149 494.401 899.412 488.211 902.453C485.842 903.631 479.369 906.641 477.402 907.903L476.552 907.985C456.39 900.841 411.589 892.131 407.121 866.54C422.75 872.444 444.194 873.843 460.41 870.472C506.871 860.814 542.325 825.35 565.822 785.862C573.836 772.393 580.659 758.66 588.3 744.988C598.629 726.506 609.448 710.327 621.283 692.824Z" fill="#B9FBC0"/>
<path d="M796.241 693.94C803.718 691.572 813.028 687.789 820.304 684.774C812.682 701.697 806.469 717.721 798.106 734.502C771.105 788.678 740.516 840.831 695.172 881.896C671.037 903.753 644.798 913.336 613.718 920.501C577.879 928.762 544.38 925.799 509.197 915.967C498.881 913.111 487.482 911.406 477.402 907.903C479.369 906.641 485.842 903.631 488.211 902.453C494.401 899.412 500.479 896.149 506.433 892.669C542.258 871.652 561.614 848.066 580.696 812.095C592.849 817.071 603.054 821.017 616.633 818.926C651.941 813.489 684.822 786.233 711.081 763.323C716.04 758.996 727.748 749.012 731.239 744.379C742.079 742.241 751.189 739.83 761.196 734.677C772.334 728.941 784.691 718.541 790.984 707.57C793.253 703.616 794.851 698.316 796.241 693.94Z" fill="#FDE4CF"/>
<path d="M564.188 743.895C565.829 742.489 569.457 736.584 570.859 734.446C579.46 721.329 590.315 699.349 602.946 690.144C606.69 693.076 613.669 692.752 618.547 692.974C613.033 700.859 607.568 708.73 602.206 716.711C588.562 737.016 578.175 759.052 566.231 780.269C537.023 832.152 482.216 882.161 418.046 867.046C414.396 866.186 409.977 864.894 406.505 863.416C407.842 860.553 407.397 854.161 409.292 849.76C412.869 841.453 420.648 840.368 425.147 834.436C427.894 835.016 430.685 835.364 433.491 835.475C456.685 836.596 483.552 828.028 502.912 815.392C509.52 811.078 514.802 806.395 520.57 801.127C526.844 795.002 539.16 782.478 542.786 775.078C549.826 767.451 554.346 759.542 559.813 750.825C561.232 748.563 562.535 745.957 564.188 743.895Z" fill="#B9FBC0"/>
<path d="M645.347 690.567L645.789 691.371C647.898 695.251 649.362 699.876 651.595 703.651C653.61 707.059 656.846 710.514 659.239 713.704C677.534 738.09 701.186 746.528 731.239 744.379C727.748 749.012 716.04 758.996 711.081 763.323C684.822 786.233 651.941 813.489 616.633 818.926C603.054 821.017 592.849 817.071 580.696 812.095C587.734 800.24 592.996 787.796 599.25 775.545C609.615 755.239 619.309 733.341 630.876 713.733C634.216 708.162 637.621 702.63 641.091 697.139C642.529 694.872 644.138 692.915 645.347 690.567Z" fill="#FFCFD2"/>
<path d="M395.307 708.146C394.393 703.23 393.313 696.944 394.867 692.029L395.053 692.101C396.311 695.464 396.057 703.11 397.199 708.137C399.68 718.403 406.088 727.287 415.047 732.881C428.295 741.157 444.717 741.406 459.32 736.917C464.95 735.187 470.325 732.057 476.147 730.923C447.894 749.801 406.125 744.422 395.307 708.146Z" fill="black"/>
<path d="M685.905 728.444C684.632 727.869 684.685 727.939 683.735 726.929C684.799 719.942 698.534 702.011 704.237 696.983C704.316 698.592 699.18 706.699 698.156 709.36C695.394 716.537 693.099 723.727 691.13 731.146L685.905 728.444Z" fill="#FFCFD2"/>
<path d="M521.004 771.525C520.269 771.57 518.849 771.708 518.181 771.638C528.297 753.309 534.905 736.751 539.939 716.5C540.904 712.617 543.2 702.092 545.051 699.074L545.742 699.267C546.158 702.404 533.046 746.378 529.744 752.887C527.495 757.323 523.537 765.785 521.308 770.569C521.207 770.888 521.105 771.207 521.004 771.525Z" fill="black"/>
<path d="M519.927 799.831C530.903 790.084 533.945 784.195 542.786 775.078C539.16 782.478 526.844 795.002 520.57 801.127L519.927 799.831Z" fill="#051E1C"/>
<defs>
<linearGradient id="paint0_linear_6_9263" x1="161.377" y1="368.07" x2="870.318" y2="236.251" gradientUnits="userSpaceOnUse">
<stop stop-color="#FDE5BA"/>
<stop offset="1" stop-color="#DDD4FB"/>
</linearGradient>
<linearGradient id="paint1_linear_6_9263" x1="562.101" y1="343.434" x2="527.683" y2="443.82" gradientUnits="userSpaceOnUse">
<stop stop-color="#FFBADD"/>
<stop offset="1" stop-color="#B9F6FF"/>
</linearGradient>
<linearGradient id="paint2_linear_6_9263" x1="221.959" y1="463.084" x2="200.298" y2="486.503" gradientUnits="userSpaceOnUse">
<stop stop-color="#52B96F"/>
<stop offset="1" stop-color="#7DDB8C"/>
</linearGradient>
<linearGradient id="paint3_linear_6_9263" x1="645.681" y1="601.444" x2="671.145" y2="610.813" gradientUnits="userSpaceOnUse">
<stop stop-color="#EB8F8D"/>
<stop offset="1" stop-color="#DFAAAD"/>
</linearGradient>
<linearGradient id="paint4_linear_6_9263" x1="630.89" y1="679.779" x2="633.356" y2="685.167" gradientUnits="userSpaceOnUse">
<stop stop-color="#D69593"/>
<stop offset="1" stop-color="#D3B2B9"/>
</linearGradient>
</defs>
</svg>
