<svg width="1024" height="1024" viewBox="0 0 1024 1024" fill="none" xmlns="http://www.w3.org/2000/svg">
<path d="M356.93 178.491C363.216 153.097 385.306 140.924 405.812 128.136C415.208 122.275 422.337 116.957 432.464 111.702C479.047 87.5268 520.18 93.0027 567.876 108.927C581.914 113.595 598.097 120.777 611.438 126.874C635.995 138.099 669.465 144.366 681.005 171.805C686.403 184.638 692.821 197.323 698.388 209.912C707.685 230.938 713.758 262.465 713.516 285.829C713.586 311.426 710.684 328.773 704.772 353.783C720.042 363.787 723.205 383.615 721.001 400.761C719.021 416.174 711.003 432.368 707.194 447.486C701.869 467.611 701.242 500.751 670.129 492.588C668.264 504.981 666.373 516.691 662.989 528.776C660.77 536.7 657.809 543.882 655.34 551.533L654.519 551.781C653.81 550.896 653.616 550.765 652.592 550.278C652.335 545.734 651.61 549.192 650.78 545.592L651.302 545.076L652.566 545.704C655.194 543.901 656.678 537.015 656.375 533.771L656.302 533.071C656.843 532.566 658.238 531.344 658.42 530.691C662.445 516.264 666.53 494.451 667.6 479.858C668.245 478.533 669.539 465.213 669.276 463.472L668.44 463.371C670.913 454.659 674.816 415.854 674.539 407.119C675.141 403.168 675.352 389.731 673.56 386.278C661.256 362.57 670.841 341.69 654.193 318.538C651.819 313.99 648.98 309.704 646.903 304.947C641.334 292.189 648.719 277.223 648.381 264.837C647.781 242.774 632.95 214.127 617.89 198.611C592.623 172.579 564.679 182.108 534.189 191.765C525.072 194.653 515.203 197.696 505.482 198.471C496.855 199.171 488.172 198.54 479.738 196.601C472.504 194.982 464.278 192.342 457.017 192.55C439.208 193.06 423.659 203.196 410.148 213.902C407.365 216.108 401.206 220.256 398.929 222.597C390.295 227.581 380.266 233.074 369.869 230.297C368.479 229.938 367.126 229.445 365.831 228.825C353.88 260.209 348.982 296.111 349.231 329.464C349.302 338.93 350.724 382.942 347.036 388.78L346.038 387.481C345.773 391.313 346.046 396.011 346.185 399.909C346.446 407.255 345.875 415.858 346.922 423.096C349.695 442.266 353.483 463.663 358.42 482.399C358.922 485.917 362.093 508.387 363.711 509.886C365.096 509.613 365.124 509.433 366.294 508.578L366.598 510.519L365.97 510.711C365.256 510.935 364.901 511.067 364.226 511.35C364.017 513.927 367.081 527.688 368.916 530.724C368.924 530.737 370.704 532.339 370.872 532.492C370.277 533.187 369.978 533.587 369.625 534.432C372.355 546.037 376.091 556.747 381.395 567.41C382.504 569.639 383.987 572.619 384.807 574.933C382.789 577.132 390.927 582.575 390.865 587.179L390.274 587.488C382.307 580.553 373.739 552.838 370.757 550.682C368.219 545.744 363.48 523.917 361.665 517.159C359.933 510.186 358.471 503.148 357.281 496.062C350.335 494.141 345.859 492.285 341.414 486.418C341.361 486.241 341.308 486.064 341.256 485.887L341.006 484.997C338.786 477.255 338.859 462.861 338.138 453.868C334.115 429.775 324.404 406.328 320.708 382.182C319.139 371.933 321.763 356.623 336.019 362.708C334.472 356.307 333.313 349.494 331.662 343.143C325.502 319.447 321.043 297.876 321.064 273.201C321.068 267.897 322.301 261.437 322.346 256.247C322.415 248.284 321.68 243.658 322.878 235.531C324.097 230.766 324.654 226.806 326.18 221.894C332.228 202.418 341.65 191.256 356.93 178.491ZM560.119 110.272C518.205 95.982 480.405 93.0306 438.547 112.855C436.499 113.826 434.399 114.9 432.444 116.052C450.355 112.175 460.341 110.999 476.843 120.697C444.327 112.464 426.934 120.021 399.085 136.616C378.76 148.729 359.571 165.065 359.104 190.259C367.411 176.944 378.261 161.194 395.29 159.009C376.313 169.539 366.87 181.761 357.871 201.124C357.702 198.058 357.367 186.569 356.311 184.381C351.585 186.762 344.335 195.34 341.16 199.723C333.856 209.809 329.755 221.288 327.284 233.399L326.496 236.802C325.469 243.65 325.536 252.297 325.537 259.264C326.809 256.23 328.606 250.077 332.132 249.649C332.727 250.396 332.868 250.2 332.511 250.86C317.254 279.002 329.578 313.2 335.647 342.362C338.118 354.234 341.241 367.407 344.378 379.859C347.195 360.698 345.389 352.457 345.043 334.019C344.458 302.842 348.832 263.823 360.579 234.585C361.23 232.759 362.543 229.944 363.338 228.078C361.073 226.597 359.534 225.487 357.4 223.849C356.436 222.335 355.078 220.856 354.304 219.4L355.228 218.647C355.722 219.352 356.03 219.821 356.477 220.537L357.433 220.655C361.235 222.95 368.078 227.1 372.433 227.594C392.138 229.829 408.069 208.065 424.215 199.289C437.799 191.906 445.766 189.066 460.835 188.905C463.938 189.331 467.035 189.796 470.126 190.3C481.872 193.142 490.893 195.524 503.202 194.705C516.503 193.82 528.946 189.318 541.422 185.42C579.109 173.646 603.898 172.951 629.614 206.078C629.915 206.466 629.774 206.354 630.12 206.543C632.368 210.099 638.771 220.137 639.981 223.654C640.328 225.733 640.751 227.763 642.803 228.78C649.477 244.87 654.067 256.945 651.31 274.409C648.683 290.213 645.609 299.194 655.526 313.279C659.728 319.246 663.821 327.146 666.194 334.038C672.512 353.74 667.176 364.46 676.704 383.697C679.746 379.011 681.485 376.351 685.231 372.227C687.673 369.539 694.986 362.601 696.424 359.951C706.693 341.032 709.886 304.603 709.57 283.804C709.469 260.175 703.017 230.823 693.86 208.962C691.451 203.095 687.755 197.634 685.237 191.852C679.744 179.235 674.361 163.23 662.789 154.727C649.702 145.111 632.212 140.311 617.29 133.823C598.54 125.671 579.671 116.371 560.119 110.272ZM706.057 359.406C703.189 362.293 700.418 362.287 697.612 364.366C688.891 370.828 683.22 380.102 678.439 389.664C678.727 396.137 679.079 402.496 678.968 408.978C689.188 412.836 695.466 424.236 691.107 434.288C686.798 444.224 678.98 450.8 674.472 460.385C672.612 466.349 672.059 481.178 670.986 488.419C698.525 497.268 698.199 461.539 703.918 444.791C708.477 431.44 712.8 418.179 716.417 404.549C719.331 393.571 717.242 364.842 706.057 359.406ZM330.18 363.906C327.886 365.412 324.733 368.078 324.669 371.04C323.989 402.797 342.536 432.605 342.096 464.873C341.954 475.302 341.512 486.209 352.266 490.7C354.036 491.11 354.532 491.588 355.802 490.979C356.499 486.282 345.707 441.22 344.431 432.983C343.428 426.51 342.539 421.792 342.332 414.021C341.988 401.145 344.028 389.059 339.797 376.756C338.676 373.495 338.189 370.278 335.997 367.275C334.802 365.638 333.57 364.466 331.521 364.017C331.015 363.906 330.669 363.917 330.18 363.906ZM678.749 412.712C676.605 426.26 676.398 440.972 674.358 454.414L679.637 446.778C687.546 435.433 696.208 424.335 680.539 413.813C679.955 413.426 679.358 413.059 678.749 412.712Z" fill="#673C45"/>
<path d="M567.876 108.927C572.091 107.094 583.057 104.925 588.126 103.705C713.544 73.5317 870.249 127.023 924.11 250.884C949.673 309.668 949.506 376.316 925.81 435.457C920.299 449.213 913.048 461.824 906.778 475.124C906.25 474.71 905.565 474.063 905.304 473.417C900.186 460.75 894.634 447.52 888.164 435.515C871.718 404.823 850.444 376.975 825.158 353.037C818.1 346.251 809.867 338.244 802.361 332.111C776.056 311.025 745.871 295.301 713.516 285.829C713.758 262.465 707.685 230.938 698.388 209.912C692.821 197.323 686.403 184.638 681.005 171.805C669.465 144.366 635.995 138.099 611.438 126.874C598.097 120.777 581.914 113.595 567.876 108.927Z" fill="#CFBAF0"/>
<path d="M432.444 116.052C434.399 114.9 436.499 113.826 438.547 112.855C480.405 93.0306 518.205 95.982 560.119 110.272C557.394 113.777 532.1 117.997 520.674 129.473C517.308 127.013 514.423 124.862 510.805 122.745C513.973 126.199 516.488 128.511 519.957 131.654C515.931 135.301 511.789 138.812 507.705 142.397C504.572 145.146 501.426 148.505 498.144 150.972C488.981 140.349 487.372 134.573 480.456 124.471C482.789 134.322 489.06 143.969 495.405 151.734C492.427 156.438 483.096 171.511 479.989 174.889C463.919 162.237 457.433 134.892 431.405 138.136C428.585 138.316 426.433 138.61 423.835 139.797C426.705 140.147 433.934 139.495 437.462 139.463C459.377 145.094 462.547 163.477 478.709 177.685C477.081 180.177 471.806 189.368 470.126 190.3C467.035 189.796 463.938 189.331 460.835 188.905C459.883 187.374 460.169 184.103 460.834 182.489L460.371 181.871C454.472 175.797 447.719 173.583 439.41 173.324C406.723 172.302 396.946 210.146 367.41 215.906C364.357 216.501 354.565 217.41 353.392 219.547C353.864 221.479 355.786 222.676 357.4 223.849C359.534 225.487 361.073 226.597 363.338 228.078C362.543 229.944 361.23 232.759 360.579 234.585C355.454 233.765 347.642 230.929 343.048 228.566C339.556 228.468 336.144 229.356 333.019 230.896C331.344 231.822 329.664 232.74 327.979 233.649L327.284 233.399C329.755 221.288 333.856 209.809 341.16 199.723C344.335 195.34 351.585 186.762 356.311 184.381C357.367 186.569 357.702 198.058 357.871 201.124C366.87 181.761 376.313 169.539 395.29 159.009C378.261 161.194 367.411 176.944 359.104 190.259C359.571 165.065 378.76 148.729 399.085 136.616C426.934 120.021 444.327 112.464 476.843 120.697C460.341 110.999 450.355 112.175 432.444 116.052ZM395.765 181.554C387.54 188.146 360.279 204.744 356.75 209.848L356.772 210.961C368.121 204.848 389.117 193.052 395.747 182.273L395.765 181.554Z" fill="#FFEDE1"/>
<path d="M560.119 110.272C579.671 116.371 598.54 125.671 617.29 133.823C632.212 140.311 649.702 145.111 662.789 154.727C674.361 163.23 679.744 179.235 685.237 191.852C687.755 197.634 691.451 203.095 693.86 208.962C703.017 230.823 709.469 260.175 709.57 283.804C700.718 283.978 686.197 279.337 677.131 277.672C668.246 276.041 660.298 275.209 651.31 274.409C654.067 256.945 649.477 244.87 642.803 228.78C644.653 229.319 648.793 235.166 650.811 237.108C654.346 240.508 658.683 242.551 662.972 244.946C658.272 239.213 652.286 233.792 647.471 228.065C645.148 225.302 643.708 223.515 639.981 223.654C638.771 220.137 632.368 210.099 630.12 206.543C638.064 214.735 650.458 224.605 662.427 218.651C655.567 217.726 653.733 217.563 647.242 215.078C641.875 213.023 634.098 205.617 630.888 205.368L630.12 206.543C629.774 206.354 629.915 206.466 629.614 206.078C603.898 172.951 579.109 173.646 541.422 185.42C528.946 189.318 516.503 193.82 503.202 194.705C490.893 195.524 481.872 193.142 470.126 190.3C471.806 189.368 477.081 180.177 478.709 177.685C487.253 184.302 500.279 189.623 511.255 187.573C512.433 187.587 515.864 187.358 516.602 186.675C514.458 186.16 511.051 186.376 508.743 186.407C496.975 184.967 489.406 182.481 479.989 174.889C483.096 171.511 492.427 156.438 495.405 151.734C497.442 153.791 499.482 155.833 501.559 157.851C518.974 174.78 542.59 176.651 565.108 170.245C570.535 168.459 575.055 166.992 580.318 164.727C576.066 165.507 568.709 167.719 564.091 168.824C537.519 173.662 517.356 170.961 498.144 150.972C501.426 148.505 504.572 145.146 507.705 142.397C511.789 138.812 515.931 135.301 519.957 131.654C541.781 151.743 563.118 161.486 592.166 149.272C587.075 150.331 581.916 151.036 576.727 151.382C554.962 152.788 536.753 143.605 520.674 129.473C532.1 117.997 557.394 113.777 560.119 110.272Z" fill="#F1C0E8"/>
<path d="M510.805 122.745C514.423 124.862 517.308 127.013 520.674 129.473C536.753 143.605 554.962 152.788 576.727 151.382C581.916 151.036 587.075 150.331 592.166 149.272C563.118 161.486 541.781 151.743 519.957 131.654C516.488 128.511 513.973 126.199 510.805 122.745Z" fill="#673C45"/>
<path d="M480.456 124.471C487.372 134.573 488.981 140.349 498.144 150.972C517.356 170.961 537.519 173.662 564.091 168.824L565.108 170.245C542.59 176.651 518.974 174.78 501.559 157.851C499.482 155.833 497.442 153.791 495.405 151.734C489.06 143.969 482.789 134.322 480.456 124.471Z" fill="#673C45"/>
<path d="M431.405 138.136C457.433 134.892 463.919 162.237 479.989 174.889C489.406 182.481 496.975 184.967 508.743 186.407C506.967 186.47 506.389 186.414 504.656 186.964C507.207 187.527 508.672 187.492 511.255 187.573C500.279 189.623 487.253 184.302 478.709 177.685C462.547 163.477 459.377 145.094 437.462 139.463C435.195 138.245 433.746 139.88 431.405 138.136Z" fill="url(#paint0_linear_6_9764)"/>
<path d="M437.462 139.463C433.934 139.495 426.705 140.147 423.835 139.797C426.433 138.61 428.585 138.316 431.405 138.136C433.746 139.88 435.195 138.245 437.462 139.463Z" fill="#673B33"/>
<path d="M564.091 168.824C568.709 167.719 576.066 165.507 580.318 164.727C575.055 166.992 570.535 168.459 565.108 170.245L564.091 168.824Z" fill="#382232"/>
<path d="M357.4 223.849C355.786 222.676 353.864 221.479 353.392 219.547C354.565 217.41 364.357 216.501 367.41 215.906C396.946 210.146 406.723 172.302 439.41 173.324C447.719 173.583 454.472 175.797 460.371 181.871C457.081 181.637 451.843 178.686 448.362 177.691C416.082 168.463 401.965 205.067 378.99 215.566C376.039 216.933 372.946 217.969 369.766 218.655C367.277 219.177 358.647 219.888 357.433 220.655L356.477 220.537C356.03 219.821 355.722 219.352 355.228 218.647L354.304 219.4C355.078 220.856 356.436 222.335 357.4 223.849Z" fill="#673B33"/>
<path d="M460.371 181.871L460.834 182.489C460.169 184.103 459.883 187.374 460.835 188.905C445.766 189.066 437.799 191.906 424.215 199.289C408.069 208.065 392.138 229.829 372.433 227.594C368.078 227.1 361.235 222.95 357.433 220.655C358.647 219.888 367.277 219.177 369.766 218.655C372.946 217.969 376.039 216.933 378.99 215.566C401.965 205.067 416.082 168.463 448.362 177.691C451.843 178.686 457.081 181.637 460.371 181.871Z" fill="#FDE4CF"/>
<path d="M356.772 210.961L356.75 209.848C360.279 204.744 387.54 188.146 395.765 181.554L395.747 182.273C389.117 193.052 368.121 204.848 356.772 210.961Z" fill="url(#paint1_linear_6_9764)"/>
<path d="M398.929 222.597C401.206 220.256 407.365 216.108 410.148 213.902C423.659 203.196 439.208 193.06 457.017 192.55C464.278 192.342 472.504 194.982 479.738 196.601C488.172 198.54 496.855 199.171 505.482 198.471C515.203 197.696 525.072 194.653 534.189 191.765C564.679 182.108 592.623 172.579 617.89 198.611C632.95 214.127 647.781 242.774 648.381 264.837C648.719 277.223 641.334 292.189 646.903 304.947C648.98 309.704 651.819 313.99 654.193 318.538L653.407 318.463C651.347 316.284 649.86 312.684 648.42 310.078C643.899 301.895 642.972 295.535 644.686 286.35C645.148 283.874 645.812 279.955 645.817 277.452C641.509 271.008 548.072 274.045 536.118 275.143C518.5 276.761 499.97 277.73 481.659 277.087C475.286 276.863 443.843 270.224 441.927 271.416C441.951 272.499 442.07 273.179 441.629 274.144C440.124 277.437 439.925 282.261 439.41 285.989C438.183 294.88 437.552 303.537 437.389 312.509C437.283 318.346 437.751 325.321 437.406 330.973L437.029 330.721C434.354 287.016 446.213 233.944 466.739 195.284L467.053 194.7L466.571 194.149C455.538 193.394 448.377 193.404 438.11 197.657C423.523 203.7 412.868 213.556 400.264 222.575C399.819 222.582 399.374 222.59 398.929 222.597Z" fill="#FDE4CF"/>
<path d="M511.255 187.573C508.672 187.492 507.207 187.527 504.656 186.964C506.389 186.414 506.967 186.47 508.743 186.407C511.051 186.376 514.458 186.16 516.602 186.675C515.864 187.358 512.433 187.587 511.255 187.573Z" fill="#382232"/>
<path d="M365.831 228.825C367.126 229.445 368.479 229.938 369.869 230.297C380.266 233.074 390.295 227.581 398.929 222.597C399.374 222.59 399.819 222.582 400.264 222.575C412.868 213.556 423.523 203.7 438.11 197.657C448.377 193.404 455.538 193.394 466.571 194.149L467.053 194.7L466.739 195.284C446.213 233.944 434.354 287.016 437.029 330.721L437.406 330.973C437.751 325.321 437.283 318.346 437.389 312.509C437.552 303.537 438.183 294.88 439.41 285.989C439.925 282.261 440.124 277.437 441.629 274.144C442.07 273.179 441.951 272.499 441.927 271.416C443.843 270.224 475.286 276.863 481.659 277.087C499.97 277.73 518.5 276.761 536.118 275.143C548.072 274.045 641.509 271.008 645.817 277.452C645.812 279.955 645.148 283.874 644.686 286.35C642.972 295.535 643.899 301.895 648.42 310.078C649.86 312.684 651.347 316.284 653.407 318.463L654.193 318.538C670.841 341.69 661.256 362.57 673.56 386.278C675.352 389.731 675.141 403.168 674.539 407.119C673.124 409.109 670.747 451.858 669.249 457.201C668.35 460.405 663.906 468.096 664.707 470.099C655.142 475.181 657.732 474.3 654.288 484.238C652.464 487.561 648.401 488.024 649.146 492.586C649.762 496.351 645.633 498.3 643.364 500.831C636.714 508.247 629.432 512.975 621.767 518.902C620.024 519.797 621.179 518.549 620.187 519.052C616.424 520.957 609.308 525.121 604.885 524.359C604.501 523.816 604.083 523.178 603.58 522.76C595.694 516.214 605.548 510.126 604.554 504.1C602.325 500.315 582.396 484.087 577.532 479.775C566.641 470.122 556.672 458.039 545.232 449.259C544.011 448.321 540.024 447.417 538.315 447.827C537.205 449.179 537.613 448.384 537.503 450.486C544.265 456.971 549.653 465.627 546.25 475.306C544.812 479.397 537.742 485.298 533.18 483.013C531.499 480.538 532.455 478.597 531.534 476.728C527.49 468.52 506.765 483.257 505.684 487.442C493.078 499.073 472.024 473.706 464.803 478.117C464.607 481.188 486.194 491.395 489.506 492.884C490.58 497.239 490.703 498.129 486.542 500.588L489.242 500.478C489.366 501.395 489.297 501.863 489.265 502.792C486.967 503.689 485.901 502.639 483.451 502.367C483.071 502.325 480.526 503.623 479.822 503.819C481.991 504.72 485.066 502.449 486.637 505.592C485.843 509.33 482.492 508.339 483.889 511.279L486.124 512.124L486.275 512.512C484.931 514.102 484.818 513.732 484.584 515.46L485.423 516.56C486.366 516.666 487.307 516.784 488.247 516.916C488.725 518.224 488.773 517.608 488.434 518.795C481.702 520.557 478.392 520.241 470.253 522.685L470.824 523.243C461.65 527.048 453.613 529.063 443.775 530.564C438.157 531.422 430.625 528.138 427.821 530.458L427.922 531.222C429.17 531.768 430.412 532.326 431.65 532.893L431.852 533.607C430.765 534.101 430.004 534.393 429.017 535.065L429.096 535.692C429.656 536.022 430.212 536.424 430.797 536.591C433.52 537.113 433.185 534.664 435.299 535.851C438.874 537.857 443.347 541.992 446.382 544.634C461.68 557.949 468.084 559.442 486.68 563.491C487.275 564.719 487.384 571.923 487.023 573.173C482.6 574.85 473.155 569.522 469.232 573.75L468.948 575.266C471.188 578.112 482.018 577.151 485.881 578.753C486.596 580.994 489.379 595.111 489.409 597.047L489.023 597.549C486.992 597.669 484.112 597.708 482.243 598.274L482.724 598.361C476.63 599.246 472.714 598.77 466.742 598.747C464.264 596.384 455.754 591.084 452.669 589.705C448.79 587.971 428.485 569.551 427.103 569.215C420.228 563.413 405.765 549.085 399.331 542.374L396.826 539.53L395.4 537.529C388.217 528.611 382.039 520.945 375.392 511.671C374.033 509.606 372.135 507.111 370.66 505.065C370.348 503.718 367.104 498.353 366.252 496.899C365.209 493.885 360.216 485.523 358.42 482.399C353.483 463.663 349.695 442.266 346.922 423.096C345.875 415.858 346.446 407.255 346.185 399.909C346.046 396.011 345.773 391.313 346.038 387.481L347.036 388.78C350.724 382.942 349.302 338.93 349.231 329.464C348.982 296.111 353.88 260.209 365.831 228.825ZM588.038 332.711C571.984 333.723 544.492 334.95 532.342 346.892C530.065 349.129 527.817 354.577 528.675 357.851C530.757 359.178 536.688 356.679 539.242 355.888C554.108 351.288 569.128 349.996 584.632 348.575C602.117 348.197 611.913 349.161 629.069 353.9C632.548 354.861 639.787 358.344 642.596 358.73C646.323 350.417 620.917 339.464 615.196 337.08C606.558 333.48 597.344 332.036 588.038 332.711ZM398.855 335.704C383.273 337.402 372.909 341.629 368.617 358.54C368.009 360.937 366.855 364.899 367.62 367.23C369.198 367.261 376.126 361.75 378.375 360.722C392.844 354.116 409.172 355.039 424.689 355.587C436.139 356.774 446.249 358.733 457.388 361.478C458.7 361.801 459.77 361.826 460.919 361.151C461.293 359.274 459.8 356.322 458.75 354.834C451.49 344.538 434.552 339.359 422.853 337.127C417.504 336.106 404.035 334.901 398.855 335.704ZM571.255 361.692C562.266 362.743 554.633 364.101 546.953 369.192C544.294 370.955 541.606 371.79 540.913 375.321L541.342 376.352L542.042 376.518C543.979 375.221 548.155 372.19 549.932 371.222C560.807 365.3 574.699 363.64 586.755 365.934C587.792 366.137 588.822 366.38 589.84 366.665C599.387 369.272 612.564 377.048 620.121 376.112L620.177 375.616C617.937 374.064 613.621 372.477 610.937 371.179C599.973 365.877 583.775 359.421 571.255 361.692ZM465.777 366.376C465.853 370.121 469.272 375.513 470.333 379.322C476.012 399.706 474.572 422.266 464.879 441.43C458.33 454.378 441.638 470.345 455.506 485.556C459.205 489.614 466.378 491.667 471.603 489.443C467.135 485.022 464.419 487.537 460.181 485.08C442.957 474.495 461.145 455.052 467.184 444.172C477.3 425.945 478.305 404.314 474.651 384.261C473.924 380.269 470.37 367.01 465.777 366.376ZM423.762 367.213C411.651 368.088 399.17 369.71 391.108 379.587C388.949 382.232 386.002 384.919 385.579 388.259C386.193 389.712 385.706 389.202 386.979 389.934C388.266 389.653 388.672 388.983 389.297 387.722C392.874 380.5 401.957 374.748 409.637 372.845C420.145 370.409 434.465 369.628 444.779 374.407C447.301 375.576 449.876 380.78 454.03 381.046C455.574 379.365 454.122 377.306 452.611 376.158C444.022 369.624 434.545 366.821 423.762 367.213ZM568.689 370.609C562.281 371.714 558.307 373.609 552.731 376.976C549.521 378.914 545.488 381.626 541.658 380.286C540.736 379.369 540.797 379.429 540.307 378.217C537.206 381.174 536.315 393.059 538.605 396.107C540.137 396.541 540.006 396.226 541.848 395.539L541.662 394.576C540.862 390.321 540.877 388.845 541.043 384.515C544.428 384.353 547.422 383.973 550.771 384.391C559.938 385.534 569.96 390.511 579.124 390.313C593.384 389.629 593.825 388.437 606.946 384.015C611.259 386.001 616.85 388.547 621.741 387.913L622.42 387.253C621.175 384.873 613.437 384.967 611.365 383.688C609.186 382.342 608.148 379.601 605.273 378.957C588.701 370.851 586.662 369.859 568.689 370.609ZM421.341 375.71C413.291 376.39 392.868 382.057 390.237 389.926L390.526 390.627C392.22 390.925 395.311 389.945 396.669 389.038C397.234 388.66 397.783 388.259 398.315 387.835C408.342 391.361 417.957 393.138 428.623 391.945C441.118 391.033 449.415 391.22 461.71 390.978C452.86 379.73 435.352 373.812 421.341 375.71ZM545.401 394.986C553.886 409.046 591.2 411.595 603.841 404.658L603.366 403.066C601.826 402.343 599.167 403.449 597.329 403.742C585.252 405.664 574.01 406.161 562.263 402.218C557.259 400.538 549.665 394.772 545.401 394.986ZM439.743 400.465C431.887 405.077 427.429 406.281 418.214 405.665C416.066 405.522 414.125 404.766 413.33 406.012C414.14 406.956 414.109 406.994 415.153 407.636C421.75 409.148 438.126 409.354 440.949 401.743L440.634 400.873L439.743 400.465ZM445.505 461.669C436.415 473.167 427.664 482.305 415.612 490.786C413.438 492.316 408.343 495.047 407.697 497.499C408.339 498.513 407.892 498.217 408.876 498.63C419.805 492.691 429.842 484.836 438.365 475.78C440.371 473.65 447.286 465.251 446.985 462.536C446.173 461.917 446.43 462.001 445.505 461.669ZM453.19 488.882C442.657 494.77 429.905 501.569 421.257 509.44C412.003 517.863 410.268 534.462 416.123 545.036C417.18 546.945 418.254 548.694 420.525 549.205C421.393 544.488 418.686 543.897 417.622 539.844C412.974 522.143 418.898 513.792 433.165 504.061C437.599 501.036 454.324 492.695 455.192 489.992C454.283 488.772 454.884 489.2 453.19 488.882Z" fill="#FBF8CC"/>
<path d="M630.12 206.543L630.888 205.368C634.098 205.617 641.875 213.023 647.242 215.078C653.733 217.563 655.567 217.726 662.427 218.651C650.458 224.605 638.064 214.735 630.12 206.543Z" fill="#673C45"/>
<path d="M639.981 223.654C643.708 223.515 645.148 225.302 647.471 228.065C652.286 233.792 658.272 239.213 662.972 244.946C658.683 242.551 654.346 240.508 650.811 237.108C648.793 235.166 644.653 229.319 642.803 228.78C640.751 227.763 640.328 225.733 639.981 223.654Z" fill="#673C45"/>
<path d="M333.019 230.896C336.144 229.356 339.556 228.468 343.048 228.566C340.345 230.101 338.702 230.306 335.755 232.284C334.524 231.924 334.108 231.571 333.019 230.896Z" fill="#A1C7A5"/>
<path d="M343.048 228.566C347.642 230.929 355.454 233.765 360.579 234.585C348.832 263.823 344.458 302.842 345.043 334.019C345.389 352.457 347.195 360.698 344.378 379.859C341.241 367.407 338.118 354.234 335.647 342.362C329.578 313.2 317.254 279.002 332.511 250.86C332.868 250.2 332.727 250.396 332.132 249.649C328.606 250.077 326.809 256.23 325.537 259.264C325.536 252.297 325.469 243.65 326.496 236.802C330.464 235.539 332.456 234.999 335.755 232.284C338.702 230.306 340.345 230.101 343.048 228.566Z" fill="#C8F3DE"/>
<path d="M327.284 233.399L327.979 233.649C329.664 232.74 331.344 231.822 333.019 230.896C334.108 231.571 334.524 231.924 335.755 232.284C332.456 234.999 330.464 235.539 326.496 236.802L327.284 233.399Z" fill="#B9FBC0"/>
<path d="M170.028 650.913C164.154 645.252 157.501 635.243 152.674 628.429C125.162 589.585 109.312 552.085 99.3974 505.699C86.9838 447.623 92.6426 386.178 125.413 335.421C156.365 287.482 214.018 256.77 268.471 244.151C285.695 240.159 305.583 239.123 322.878 235.531C321.68 243.658 322.415 248.284 322.346 256.247C322.301 261.437 321.068 267.897 321.064 273.201C321.043 297.876 325.502 319.447 331.662 343.143C333.313 349.494 334.472 356.307 336.019 362.708C321.763 356.623 319.139 371.933 320.708 382.182C324.404 406.328 334.115 429.775 338.138 453.868C329.181 457.098 320.697 462.708 312.506 467.253C266.074 493.016 234.616 540.235 221.841 591.077C220.45 596.612 219.437 603.147 217.845 608.497C203.375 618.647 181.539 637.566 170.028 650.913Z" fill="#C8F3DE"/>
<path d="M651.31 274.409C660.298 275.209 668.246 276.041 677.131 277.672C686.197 279.337 700.718 283.978 709.57 283.804C709.886 304.603 706.693 341.032 696.424 359.951C694.986 362.601 687.673 369.539 685.231 372.227C681.485 376.351 679.746 379.011 676.704 383.697C667.176 364.46 672.512 353.74 666.194 334.038C663.821 327.146 659.728 319.246 655.526 313.279C645.609 299.194 648.683 290.213 651.31 274.409Z" fill="url(#paint2_linear_6_9764)"/>
<path d="M713.516 285.829C745.871 295.301 776.056 311.025 802.361 332.111C809.867 338.244 818.1 346.251 825.158 353.037C850.444 376.975 871.718 404.823 888.164 435.515C894.634 447.52 900.186 460.75 905.304 473.417C905.565 474.063 906.25 474.71 906.778 475.124L906.848 475.412L906.171 476.178C902.407 480.501 895.97 490.546 892.104 495.662C881.021 510.542 868.736 524.489 855.374 537.361C845.828 546.442 835.774 554.974 825.263 562.916C821.076 566.092 805.587 576.558 803.898 580.384C774.924 574.039 739.831 576.132 710.571 580.981C701.748 582.443 691.467 585.264 682.502 587.106C676.958 580.174 661.929 555.904 655.34 551.533C657.809 543.882 660.77 536.7 662.989 528.776C666.373 516.691 668.264 504.981 670.129 492.588C701.242 500.751 701.869 467.611 707.194 447.486C711.003 432.368 719.021 416.174 721.001 400.761C723.205 383.615 720.042 363.787 704.772 353.783C710.684 328.773 713.586 311.426 713.516 285.829Z" fill="#FFCFD2"/>
<path d="M584.632 348.575C569.128 349.996 554.108 351.288 539.242 355.888C536.688 356.679 530.757 359.178 528.675 357.851C527.817 354.577 530.065 349.129 532.342 346.892C544.492 334.95 571.984 333.723 588.038 332.711C597.344 332.036 606.558 333.48 615.196 337.08C620.917 339.464 646.323 350.417 642.596 358.73C639.787 358.344 632.548 354.861 629.069 353.9C611.913 349.161 602.117 348.197 584.632 348.575ZM588.25 336.213C571.123 337.17 541.61 337.899 531.687 353.612C544.388 349.499 566.027 346.202 579.621 345.377C602.906 343.323 614.749 346.807 636.471 352.722C621.848 342.239 606.39 335.637 588.25 336.213Z" fill="#543C37"/>
<path d="M424.689 355.587C409.172 355.039 392.844 354.116 378.375 360.722C376.126 361.75 369.198 367.261 367.62 367.23C366.855 364.899 368.009 360.937 368.617 358.54C372.909 341.629 383.273 337.402 398.855 335.704C404.035 334.901 417.504 336.106 422.853 337.127C434.552 339.359 451.49 344.538 458.75 354.834C459.8 356.322 461.293 359.274 460.919 361.151C459.77 361.826 458.7 361.801 457.388 361.478C446.249 358.733 436.139 356.774 424.689 355.587ZM439.211 345.227C426.691 338.805 400.76 337.246 386.949 341.434C376.628 344.564 373.108 352.379 370.467 361.984C389.994 349.927 418.802 349.341 440.587 354.211C445.954 355.151 450.702 356.497 455.95 357.912C451.444 351.619 446.138 348.31 439.211 345.227Z" fill="#673B33"/>
<path d="M531.688 353.612C541.611 337.899 571.123 337.17 588.25 336.213C606.39 335.637 621.848 342.239 636.471 352.722C614.749 346.807 602.906 343.323 579.621 345.377C566.027 346.202 544.389 349.499 531.688 353.612Z" fill="#B9FBC0"/>
<path d="M370.467 361.984C373.108 352.379 376.628 344.564 386.949 341.434C400.76 337.246 426.691 338.805 439.211 345.227C439.577 347.486 440.135 352.317 440.587 354.211C418.802 349.341 389.994 349.927 370.467 361.984Z" fill="#FAD79E"/>
<path d="M439.211 345.227C446.138 348.31 451.444 351.619 455.95 357.912C450.702 356.497 445.954 355.151 440.587 354.211C440.135 352.317 439.577 347.486 439.211 345.227Z" fill="#A8884A"/>
<path d="M678.439 389.664C683.22 380.102 688.891 370.828 697.612 364.366C700.418 362.287 703.189 362.293 706.057 359.406C717.242 364.842 719.331 393.571 716.417 404.549C712.8 418.179 708.477 431.44 703.918 444.791C698.199 461.539 698.525 497.268 670.986 488.419C672.059 481.178 672.612 466.349 674.472 460.385C678.98 450.8 686.798 444.224 691.107 434.288C695.466 424.236 689.188 412.836 678.968 408.978C679.079 402.496 678.727 396.137 678.439 389.664ZM708.061 368.091C705.114 376.295 702.317 375.65 696.45 381.059C693.378 383.89 681.224 399.407 682.561 402.647C685.439 402.137 695.035 387.816 698.099 384.355C701.004 381.273 704.007 378.284 707.103 375.394C707.821 382.665 708.273 389.642 707.662 396.941C707.424 399.785 707.662 402.129 708.593 404.836L709.241 405.216C712.712 400.842 711.911 372.576 709.442 368.798L708.061 368.091Z" fill="#FDE4CF"/>
<path d="M589.84 366.665C588.822 366.38 587.792 366.137 586.755 365.934C574.699 363.64 560.807 365.3 549.932 371.222C548.155 372.19 543.979 375.221 542.042 376.518L541.342 376.352L540.913 375.321C541.606 371.79 544.294 370.955 546.953 369.192C554.633 364.101 562.266 362.743 571.255 361.692C583.775 359.421 599.973 365.877 610.937 371.179C613.621 372.477 617.937 374.064 620.177 375.616L620.121 376.112C612.564 377.048 599.387 369.272 589.84 366.665Z" fill="#543C37"/>
<path d="M352.266 490.7C341.512 486.209 341.954 475.302 342.096 464.873C342.536 432.605 323.989 402.797 324.669 371.04C324.733 368.078 327.886 365.412 330.18 363.906C330.669 363.917 331.015 363.906 331.521 364.017C333.57 364.466 334.802 365.638 335.997 367.275C338.189 370.278 338.676 373.495 339.797 376.756C344.028 389.059 341.988 401.145 342.332 414.021C342.539 421.792 343.428 426.51 344.431 432.983C345.707 441.22 356.499 486.282 355.802 490.979C354.532 491.588 354.036 491.11 352.266 490.7Z" fill="#FAD79E"/>
<path d="M471.603 489.443C466.378 491.667 459.205 489.614 455.506 485.556C441.638 470.345 458.33 454.378 464.879 441.43C474.572 422.266 476.012 399.706 470.333 379.322C469.272 375.513 465.853 370.121 465.777 366.376C470.37 367.01 473.924 380.269 474.651 384.261C478.305 404.314 477.3 425.945 467.184 444.172C461.145 455.052 442.957 474.495 460.181 485.08C464.419 487.537 467.135 485.022 471.603 489.443Z" fill="#543C37"/>
<path d="M409.637 372.845C401.957 374.748 392.874 380.5 389.297 387.722C388.672 388.983 388.266 389.653 386.979 389.934C385.706 389.202 386.193 389.712 385.579 388.259C386.002 384.919 388.949 382.232 391.108 379.587C399.17 369.71 411.651 368.088 423.762 367.213C434.545 366.821 444.022 369.624 452.611 376.158C454.122 377.306 455.574 379.365 454.03 381.046C449.876 380.78 447.301 375.576 444.779 374.407C434.465 369.628 420.145 370.409 409.637 372.845Z" fill="#673B33"/>
<path d="M698.099 384.355C695.035 387.816 685.439 402.137 682.561 402.647C681.224 399.407 693.378 383.89 696.45 381.059C702.317 375.65 705.114 376.295 708.061 368.091L709.442 368.798C711.911 372.576 712.712 400.842 709.241 405.216L708.593 404.836C707.662 402.129 707.424 399.785 707.662 396.941C708.273 389.642 707.821 382.665 707.103 375.394C704.007 378.284 701.004 381.273 698.099 384.355Z" fill="#673C45"/>
<path d="M541.043 384.515C540.877 388.845 540.862 390.321 541.662 394.576L541.848 395.539C540.006 396.226 540.137 396.541 538.605 396.107C536.315 393.059 537.206 381.174 540.307 378.217C540.797 379.429 540.736 379.369 541.658 380.286C545.488 381.626 549.521 378.914 552.731 376.976C558.307 373.609 562.281 371.714 568.689 370.609C586.662 369.859 588.701 370.851 605.273 378.957C608.148 379.601 609.186 382.342 611.365 383.688C613.437 384.967 621.175 384.873 622.42 387.253L621.741 387.913C616.85 388.547 611.259 386.001 606.946 384.015C593.825 388.437 593.384 389.629 579.124 390.313C569.96 390.511 559.938 385.534 550.771 384.391C547.422 383.973 544.428 384.353 541.043 384.515ZM566.598 375.109C567.238 380.677 569.328 385.892 576.464 385.625C579.188 385.523 581.326 383.597 582.863 381.411C583.104 379.387 583.532 377.965 582.674 376.172L581.922 375.702C580.22 376.754 577.796 379.995 575.936 379.419C569.809 377.521 574.82 375.078 566.598 375.109ZM562.814 375.539C558.452 376.933 555.098 379.089 551.236 381.513C552.199 381.742 555.907 382.54 556.625 382.807C559.73 383.646 562.698 384.516 565.878 385.017C564.804 382.488 563.465 376.187 562.814 375.539ZM591.818 377.186C588.305 382.902 587.453 384.203 582.241 388.268C585.024 387.854 589.054 387.363 591.673 386.659C595.81 385.412 598.514 384.556 602.388 382.583C599.239 380.905 595.009 378.5 591.818 377.186Z" fill="#543C37"/>
<path d="M582.863 381.411C581.326 383.597 579.188 385.523 576.464 385.625C569.328 385.892 567.238 380.677 566.598 375.109C574.82 375.078 569.809 377.521 575.936 379.419C577.796 379.995 580.22 376.754 581.922 375.702L582.674 376.172C583.532 377.965 583.104 379.387 582.863 381.411Z" fill="#FFEDE1"/>
<path d="M398.315 387.835C397.783 388.259 397.234 388.66 396.669 389.038C395.311 389.945 392.22 390.925 390.526 390.627L390.237 389.926C392.868 382.057 413.291 376.39 421.341 375.71C435.352 373.812 452.86 379.73 461.71 390.978C449.415 391.22 441.118 391.033 428.623 391.945C417.957 393.138 408.342 391.361 398.315 387.835ZM426.308 388.093C422.208 384.992 426.589 381.684 425.602 379.321C421.571 380.127 420.101 385.036 423.178 387.88C424.606 388.213 424.956 388.357 426.438 388.44C433.976 388.879 444.608 387.421 453.466 387.671C444.145 381.26 442.756 380.037 431.646 379.276C432.373 384.647 431.652 386.707 426.308 388.093ZM413.51 379.464C408.916 381.275 405.585 382.808 401.58 385.778C403.38 386.308 405.278 386.912 407.092 387.344C411.369 388.01 413.487 388.043 417.861 388.06C415.948 384.988 415.948 384.613 415.196 381.15L414.982 380.187C414.943 379.993 414.904 379.8 414.866 379.606C414.539 379.564 413.801 379.44 413.51 379.464Z" fill="#543C37"/>
<path d="M551.236 381.513C555.098 379.089 558.452 376.933 562.814 375.539C563.465 376.187 564.804 382.488 565.878 385.017C562.698 384.516 559.73 383.646 556.625 382.807C555.907 382.54 552.199 381.742 551.236 381.513Z" fill="#FFEDE1"/>
<path d="M582.241 388.268C587.453 384.203 588.305 382.902 591.818 377.186C595.009 378.5 599.239 380.905 602.388 382.583C598.514 384.556 595.81 385.412 591.673 386.659C589.054 387.363 585.024 387.854 582.241 388.268Z" fill="#FFEDE1"/>
<path d="M426.438 388.44C424.956 388.357 424.606 388.213 423.178 387.88C420.101 385.036 421.571 380.127 425.602 379.321C426.589 381.684 422.208 384.992 426.308 388.093L426.438 388.44Z" fill="#FFEDE1"/>
<path d="M426.308 388.093C431.652 386.707 432.373 384.647 431.646 379.276C442.756 380.037 444.145 381.26 453.466 387.671C444.608 387.421 433.976 388.879 426.438 388.44L426.308 388.093Z" fill="#FBF8CC"/>
<path d="M401.58 385.778C405.585 382.808 408.916 381.275 413.51 379.464C413.801 379.44 414.539 379.564 414.866 379.606C414.904 379.8 414.943 379.993 414.982 380.187L415.196 381.15C415.948 384.613 415.948 384.988 417.861 388.06C413.487 388.043 411.369 388.01 407.092 387.344C405.278 386.912 403.38 386.308 401.58 385.778Z" fill="#FBF8CC"/>
<path d="M603.841 404.658C591.2 411.595 553.886 409.046 545.401 394.986C549.665 394.772 557.259 400.538 562.263 402.218C574.01 406.161 585.252 405.664 597.329 403.742C599.167 403.449 601.826 402.343 603.366 403.066L603.841 404.658Z" fill="#543C37"/>
<path d="M415.153 407.636C414.109 406.994 414.14 406.956 413.33 406.012C414.125 404.766 416.066 405.522 418.214 405.665C427.429 406.281 431.887 405.077 439.743 400.465L440.634 400.873L440.949 401.743C438.126 409.354 421.75 409.148 415.153 407.636Z" fill="#543C37"/>
<path d="M621.767 518.902C629.432 512.975 636.714 508.247 643.364 500.831C645.633 498.3 649.762 496.351 649.146 492.586C648.401 488.024 652.464 487.561 654.288 484.238C657.732 474.3 655.142 475.181 664.707 470.099C663.906 468.096 668.35 460.405 669.249 457.201C670.747 451.858 673.124 409.109 674.539 407.119C674.816 415.854 670.913 454.659 668.44 463.371L669.276 463.472C669.539 465.213 668.245 478.533 667.6 479.858L666.743 478.982L666.976 478.155C667.448 476.445 668.149 474.582 667.59 472.965C665.889 472.166 666.163 472.465 663.998 472.631C663.214 473.921 663.429 473.958 663.394 475.611L663.065 475.389C662.764 473.439 663.056 473.243 662.004 471.937C660.72 472.36 655.628 480.901 656.007 483.383L656.619 484.041L658.154 483.988C656.43 485.736 653.934 488.844 652.547 490.146L652.181 491.551C651.448 490.258 651.581 490.09 650.486 489.364L649.971 489.982C650.239 492.491 650.839 492.266 653.227 493.073C652.705 493.315 652.275 493.49 651.743 493.705C651.231 495.208 651.399 495.197 651.88 496.765L652.878 497.327C649.741 498.173 652.439 494.94 649.609 497.565L649.589 498.23C649.45 501.998 649.056 501.388 645.185 502.022C643.625 503.351 643.583 504.403 642.871 506.606L642.657 506.738L640.721 504.924L639.996 505.448C639.462 511.921 634.529 507.903 633.422 514.695C630.895 515.656 624.483 517.547 623.446 519.739L623.619 520.637C624.703 521.157 624.305 521.046 625.514 521.221L624.973 521.898C622.741 521.862 622.63 520.827 621.767 518.902Z" fill="#98F5E1"/>
<path d="M674.358 454.414C676.398 440.972 676.605 426.26 678.749 412.712C679.358 413.059 679.955 413.426 680.539 413.813C696.208 424.335 687.546 435.433 679.637 446.778L674.358 454.414Z" fill="#FDE4CF"/>
<path d="M621.768 518.902C622.631 520.827 622.741 521.862 624.973 521.898L625.514 521.221C624.305 521.046 624.703 521.157 623.619 520.637L623.446 519.739C624.483 517.547 630.895 515.656 633.422 514.695C634.529 507.903 639.462 511.921 639.996 505.448L640.721 504.924L642.657 506.738L642.871 506.606C643.583 504.403 643.625 503.351 645.185 502.022C649.056 501.388 649.45 501.998 649.589 498.23L649.609 497.565C652.439 494.94 649.741 498.173 652.878 497.327L651.88 496.765C651.399 495.197 651.231 495.208 651.743 493.705C652.275 493.49 652.705 493.315 653.227 493.073C650.839 492.266 650.239 492.491 649.971 489.982L650.486 489.364C651.581 490.09 651.449 490.258 652.182 491.551L652.547 490.146C653.934 488.844 656.43 485.736 658.154 483.988L656.619 484.041L656.007 483.383C655.628 480.901 660.721 472.36 662.005 471.937C663.057 473.243 662.764 473.439 663.065 475.389L663.394 475.611C663.429 473.958 663.214 473.921 663.998 472.631C666.163 472.465 665.889 472.166 667.59 472.965C668.149 474.582 667.448 476.445 666.976 478.155L666.743 478.982L667.6 479.858C666.53 494.451 662.445 516.264 658.42 530.691C658.238 531.344 656.843 532.566 656.302 533.071L656.375 533.771C656.678 537.015 655.194 543.901 652.566 545.704L651.302 545.076L650.781 545.592C651.611 549.192 652.335 545.734 652.592 550.278L652.193 551.158C651.055 552.719 650.068 554.43 648.383 555.269C649.349 558.223 647.338 561.2 644.437 561.807L644.026 562.455L645.193 562.911C645.131 564.608 642.27 569.678 640.419 569.972C640.359 572.304 640.51 574.073 637.951 575.337C635.264 574.788 634.835 573.954 633.365 576.806L633.536 577.589C634.581 577.711 635.415 577.813 636.447 578.01L636.198 579.147C634.716 580.076 635.521 579.804 633.65 579.835C633.237 582.209 633.622 582.226 632.287 583.764L632.066 582.995C630.87 581.225 631.63 581.789 629.928 580.973C628.56 581.561 628.19 582.084 627.156 583.128C626.256 583.27 625.431 583.404 624.525 583.509C624.276 584.415 624.045 585.325 623.832 586.24C623.308 585.533 623.244 585.468 622.479 584.94L621.034 585.183C620.32 588.447 615.582 589.25 615.235 592.984C616.604 593.957 615.854 593.734 617.578 593.614L619.13 592.615L619.786 596.222C618.458 597.997 619.283 597.523 617.487 598.076C614.858 596.933 614.637 595.329 613.279 595.498C611.783 598.504 613.718 601.534 611.707 605.541C609.566 609.349 608.335 609.649 604.112 609.575L603.55 610.16C604.506 610.981 604.455 610.925 605.512 611.579C604.055 618.193 597.076 611.155 598.342 617.631C596.25 616.786 595.594 617.093 593.25 617.437L592.659 618.054C595.545 619.768 594.573 618.438 597.431 618.666C595.651 620.728 592.96 622.626 590.713 624.225L588.823 623.297C587.522 623.854 588.029 623.42 587.432 624.8L588.299 626.421L588.079 626.888C584.343 625.785 583.631 628.217 578.735 628.04L578.316 628.581C579.205 630.401 579.499 630.216 579.211 631.8C576.406 632.347 576.453 629.928 574.457 632.705C574.483 634.172 574.503 634.957 574.33 636.446L573.261 637.252C570.381 636.71 571.35 633.587 567.524 636.281C565.409 637.769 562.569 640.31 560.854 642.227C559.97 641.166 560.285 641.589 559.991 640.048C558.094 638.354 555.52 638.753 552.995 638.841C551.44 640.688 554.303 645.337 547.077 643.794L545.141 643.378C544.041 643.992 543.784 644.787 543.178 645.911C538.87 645.587 537.225 642.759 534.738 642.723C533.246 646.077 538.579 647.728 534.249 652.38L533.801 652.208L533.727 651.534C533.538 649.923 533.628 649.007 532.628 647.782C530.598 647.338 529.217 648.233 528.423 650.142C529.328 651.381 530.001 651.854 530.164 653.164C528.033 653.172 525.26 652.589 523.451 651.363C522.642 648.6 524.768 649.489 523.888 647.199C522.149 646.409 522.987 646.442 521.308 646.863C518.792 649.471 518.509 652.645 521.232 655.246C520.233 656.351 520.14 656.282 518.769 656.947C517.264 655.557 517.698 656.379 517.331 654.445C517.876 653.198 518.336 652.332 518.562 650.977C515.773 647.556 508.822 652.422 507.391 655.142C507.748 656.606 508.32 656.86 509.499 657.821C507.78 658.719 505.965 658.44 504.938 656.733C505.138 654.753 505.853 653.753 505.166 652.515L497.378 650.422C496.621 651.783 496.785 651.864 496.597 653.467C495.498 654.517 494.999 654.982 493.347 654.545C492.086 656.08 491.944 656.484 490.004 656.978C488.58 656.3 489.132 656.786 488.272 655.485L488.573 654.61L487.491 653.998C485.381 651.481 481.771 651.489 485.067 647.184C487.931 644.873 485.567 645.326 485.884 643.11L488.541 641.173C489.317 639.762 489.142 639.737 488.927 638.086C488.186 637.414 487.4 636.861 486.563 636.314C486.54 633.382 487.168 636.268 488.735 633.231C487.299 631.037 487.376 633.211 485.443 631.538L485.424 630.347C490.101 625.619 489.962 626.76 488.264 620.965C487.961 619.931 488.058 611.794 488.059 610.3C489.065 609.651 488.771 609.94 489.419 608.854L488.957 607.902C486.834 607.107 486.055 607.272 485.82 605.007C488.476 602.487 487.69 601.948 490.569 600.885C495.499 600.578 505.641 601.981 511.122 602.334C519.389 602.867 528.901 605.543 537.204 606.267C542.131 606.696 548.661 606.265 553.79 606.253C558.487 600.322 563.37 597.51 568.698 592.351C570.687 590.425 570.225 583.453 571.69 582.204C574.88 579.485 578.131 578.106 580.281 574.13C580.773 571.213 578.968 569.57 579.604 567.824C583.014 565.854 587.838 553.508 589.222 549.487C590.419 550.691 590.52 550.47 592.423 550.319C592.438 548.891 592.675 549.521 591.924 548.339L590.402 548.412C590.246 547.883 589.982 540.892 589.635 538.622C587.781 534.125 586.316 530.75 584.104 526.416C584.809 525.309 584.686 525.767 584.716 524.476C583.701 523.594 579.002 519.291 578.223 519.314C570.257 519.553 565.072 520.987 556.799 520.627C545.937 520.154 537.16 516.607 526.752 516.556C522.582 516.536 515.573 518.772 511.108 519.37C503.91 520.335 497.132 520.002 489.904 519.874C491.356 519.712 491.762 519.569 493.139 519.179C493.187 517.541 493.435 518.232 492.455 517.007C491.281 516.652 491.182 516.697 490.126 516.121L491.666 515.733C492.172 514.369 492.87 513.028 492.691 511.646L490.668 510.526C490.07 508.257 492.516 507.633 492.572 506.703C492.836 502.352 494.121 498.196 494.3 493.92C510.858 494.144 511.808 483.242 524.941 479.361C527.419 479.864 529.88 481.213 531.337 478.793C529.55 472.816 520.452 476.118 517.026 478.605C513.268 481.334 509.882 484.621 506.081 487.18L505.684 487.442C506.765 483.257 527.49 468.52 531.534 476.728C532.455 478.597 531.499 480.538 533.18 483.013C537.742 485.298 544.812 479.397 546.25 475.306C549.653 465.627 544.265 456.971 537.503 450.486C537.613 448.384 537.205 449.179 538.315 447.827C540.024 447.417 544.011 448.321 545.232 449.259C556.672 458.039 566.641 470.122 577.532 479.775C582.396 484.087 602.325 500.315 604.554 504.1C605.548 510.126 595.694 516.214 603.58 522.76C604.083 523.178 604.501 523.816 604.885 524.359C609.308 525.121 616.424 520.957 620.187 519.052C621.179 518.549 620.025 519.797 621.768 518.902ZM539.318 448.04C537.71 450.674 540.536 452.07 542.514 454.366C547.992 460.724 549.316 468.358 546.635 476.274C543.395 485.588 534.947 483.169 530.182 486.123L530.102 486.891C532.114 488.055 536.251 487.387 538.418 486.838C542.698 485.784 546.36 483.024 548.552 479.2C552.86 471.604 550.784 463.682 547.629 456.264C556.285 465.229 566.569 475.828 575.639 484.269C583.849 491.227 592.483 497.626 599.973 505.3C600.806 506.152 602.642 506.654 603.806 506.718L604.245 506.38C604.076 504.555 601.096 501.526 599.676 500.346C581.568 485.293 564.92 469.364 548.212 452.834C546.074 450.718 542.229 448.781 539.318 448.04ZM504.843 503.978C505.775 507.899 505.178 509.324 503.372 513.348C504.085 515.764 507.892 515.214 510.286 515.586C509.546 513.268 509.486 513.101 509.612 510.736C509.049 509.412 508.917 509.52 507.632 508.768C508.796 507.042 508.77 507.614 508.812 505.823C507.547 504.346 506.787 504.112 504.843 503.978ZM601.035 555.379C599.407 556.168 598.518 556.219 597.786 557.496L598.349 558.403C600.113 557.391 600.607 557.491 601.502 555.997L601.035 555.379ZM604.124 572.801C602.17 574.132 602.182 573.688 601.353 575.517C601.91 577.488 602.964 578.045 604.552 579.654C605.832 577.956 606.762 576.452 606.618 574.247C605.802 572.934 605.84 572.718 604.124 572.801ZM525.948 612.754C521.824 618.58 525.905 620.179 531.016 621.076C531.74 619.689 532.288 619.047 532.036 617.527C530.926 616.791 530.671 616.794 529.378 616.392C528.241 615.225 528.366 615.229 527.976 613.613C526.784 612.808 527.292 612.959 525.948 612.754Z" fill="#8EECF5"/>
<path d="M547.629 456.264C550.784 463.682 552.86 471.604 548.552 479.2C546.36 483.024 542.698 485.784 538.418 486.838C536.251 487.387 532.114 488.055 530.102 486.891L530.182 486.123C534.947 483.169 543.395 485.588 546.635 476.274C549.316 468.358 547.992 460.724 542.514 454.366C540.536 452.07 537.71 450.674 539.318 448.04C542.229 448.781 546.074 450.718 548.212 452.834C564.92 469.364 581.568 485.293 599.676 500.346C601.096 501.526 604.076 504.555 604.245 506.38L603.806 506.718C602.642 506.654 600.806 506.152 599.973 505.3C592.483 497.626 583.849 491.227 575.639 484.269C566.569 475.828 556.285 465.229 547.629 456.264Z" fill="#21454E"/>
<path d="M217.845 608.497C219.437 603.147 220.45 596.612 221.841 591.077C234.616 540.235 266.074 493.016 312.506 467.253C320.697 462.708 329.181 457.098 338.138 453.868C338.859 462.861 338.786 477.255 341.006 484.997L341.256 485.887C341.308 486.064 341.361 486.241 341.414 486.418C341.368 498.595 350.461 512.415 361.665 517.159C363.48 523.917 368.219 545.744 370.757 550.682C372.36 556.561 380.258 574.42 383.376 579.78C352.173 596.124 347.867 607.884 331.287 637.615C310.498 645.692 290.024 654.559 269.91 664.197C253.385 672.24 237.646 681.034 221.384 689.411C213.758 673.176 215.091 626.468 217.845 608.497Z" fill="#DFD5F9"/>
<path d="M408.876 498.63C407.892 498.217 408.339 498.513 407.697 497.499C408.343 495.047 413.438 492.316 415.612 490.786C427.664 482.305 436.415 473.167 445.505 461.669C446.43 462.001 446.173 461.917 446.985 462.536C447.286 465.251 440.371 473.65 438.365 475.78C429.842 484.836 419.805 492.691 408.876 498.63Z" fill="#543C37"/>
<path d="M505.684 487.442L506.081 487.18C509.882 484.621 513.268 481.334 517.026 478.605C520.452 476.118 529.55 472.816 531.337 478.793C529.88 481.213 527.419 479.864 524.941 479.361C511.808 483.242 510.858 494.144 494.3 493.92C492.653 493.617 491.137 493.265 489.506 492.884C486.194 491.395 464.607 481.188 464.803 478.117C472.024 473.706 493.078 499.073 505.684 487.442Z" fill="#3C4350"/>
<path d="M803.898 580.384C805.587 576.558 821.076 566.092 825.263 562.916C835.774 554.974 845.828 546.442 855.374 537.361C868.736 524.489 881.021 510.542 892.104 495.662C895.97 490.546 902.407 480.501 906.171 476.178L906.848 475.412C909.459 482.041 912.171 495.264 913.535 502.344C922.814 552.601 920.801 604.292 907.641 653.674C906.048 659.758 903.708 670.776 900.955 676.204C897.245 664.095 892.086 652.478 885.591 641.606C867.538 611.189 838.159 589.173 803.898 580.384Z" fill="#FBF8CC"/>
<path d="M358.42 482.399C360.216 485.523 365.209 493.885 366.252 496.899C365.598 498.542 365.244 499.084 365.322 500.872C367.185 503.773 368.261 503.391 368.335 505.95L367.279 507.76L367 507.794L366.294 508.578C365.124 509.433 365.096 509.613 363.711 509.886C362.093 508.387 358.922 485.917 358.42 482.399Z" fill="#FDA8C2"/>
<path d="M341.414 486.418C345.859 492.285 350.335 494.141 357.281 496.062C358.471 503.148 359.933 510.186 361.665 517.159C350.461 512.415 341.368 498.595 341.414 486.418Z" fill="#FDE4CF"/>
<path d="M420.525 549.205C418.254 548.694 417.18 546.945 416.123 545.036C410.268 534.462 412.003 517.863 421.257 509.44C429.905 501.569 442.657 494.77 453.19 488.882C454.884 489.2 454.283 488.772 455.192 489.992C454.324 492.695 437.599 501.036 433.165 504.061C418.898 513.792 412.974 522.143 417.622 539.844C418.686 543.897 421.393 544.488 420.525 549.205Z" fill="#543C37"/>
<path d="M489.506 492.884C491.137 493.265 492.653 493.617 494.3 493.92C494.121 498.196 492.836 502.352 492.572 506.703C492.516 507.633 490.07 508.257 490.668 510.526L492.691 511.646C492.87 513.028 492.172 514.369 491.666 515.733L490.126 516.121C491.182 516.697 491.281 516.652 492.455 517.007C493.435 518.232 493.187 517.541 493.139 519.179C491.762 519.569 491.356 519.712 489.904 519.874C481.899 520.238 478.62 521.362 470.824 523.243L470.253 522.685C478.392 520.241 481.702 520.557 488.434 518.795C488.773 517.608 488.725 518.224 488.247 516.916C487.307 516.784 486.366 516.666 485.423 516.56L484.584 515.46C484.818 513.732 484.931 514.102 486.275 512.512L486.124 512.124L483.889 511.279C482.492 508.339 485.843 509.33 486.637 505.592C485.066 502.449 481.991 504.72 479.822 503.819C480.526 503.623 483.071 502.325 483.451 502.367C485.901 502.639 486.967 503.689 489.265 502.792C489.297 501.863 489.366 501.395 489.242 500.478L486.542 500.588C490.703 498.129 490.58 497.239 489.506 492.884Z" fill="#C8F3DE"/>
<path d="M367.279 507.76L368.335 505.95C368.261 503.391 367.185 503.773 365.322 500.872C365.244 499.084 365.598 498.542 366.252 496.899C367.104 498.353 370.348 503.718 370.66 505.065C369.536 506.919 369.383 506.908 367.279 507.76Z" fill="#FEA2CF"/>
<path d="M510.286 515.586C507.892 515.214 504.085 515.764 503.372 513.348C505.178 509.324 505.775 507.899 504.843 503.978C506.787 504.112 507.547 504.346 508.812 505.823C508.77 507.614 508.796 507.042 507.632 508.768C508.917 509.52 509.049 509.412 509.612 510.736C509.486 513.101 509.546 513.268 510.286 515.586Z" fill="#71E1CA"/>
<path d="M367.279 507.76C369.383 506.908 369.536 506.919 370.66 505.065C372.135 507.111 374.033 509.606 375.392 511.671C373.059 511.838 372.032 512.316 370.238 511.328C369.459 509.041 369.433 508.625 367 507.794L367.279 507.76Z" fill="#FDA8C2"/>
<path d="M366.294 508.578L367 507.794C369.433 508.625 369.459 509.041 370.238 511.328C372.032 512.316 373.059 511.838 375.392 511.671C382.039 520.945 388.217 528.611 395.4 537.529C393.603 537.801 393.394 537.511 392.301 538.53C393.471 539.76 394.764 539.805 396.406 540.467L396.826 539.53L399.331 542.374C397.237 543.465 397.608 543.693 395.658 543.498C392.399 540.381 391.069 536.329 387.898 536.008C386.642 537.01 386.409 537.962 385.771 539.442C383.521 540.23 381.935 536.208 378.143 543.483C379.935 544.205 381.747 543.221 384.239 543.334C384.921 545.021 385.177 544.795 384.709 546.094C383.173 546.52 381.978 546.795 380.416 547.112L380.293 547.662C383.975 551.77 382.733 548.32 385.143 551.283L384.987 552.218C382.657 553.142 379.767 551.196 377.063 551.279C379.025 554.014 380.443 552.372 381.843 555.814L381.604 556.586C380.748 556.778 380.178 556.893 379.298 557.039C380.288 560.332 382.871 558.223 381.223 562.489L381.693 562.595C381.534 562.851 381.375 563.108 381.216 563.365C382.957 560.771 383.868 556.38 384.793 555.501C386.465 555.124 385.679 555.01 387.21 555.969C387.946 557.616 387.86 556.8 387.612 558.484C386.656 559.323 385.991 559.211 384.684 559.346L384.249 560.546C385.306 562.665 385.34 561.945 384.936 563.855C383.567 563.92 384.112 563.956 382.746 563.304L382.558 564.032C383.346 565.178 383.948 565.925 384.449 567.239C383.396 570.57 384.299 574.515 387.948 576.467C389.6 577.35 390.431 575.715 393.163 577.454L393.537 578.435L392.516 580.068L392.752 580.895L393.455 580.764C394.373 578.876 394.08 578.576 395.53 578.008C397.505 578.399 396.876 577.878 397.885 579.123C396.273 583.361 393.093 581.695 390.614 583.617C389.035 581.587 388.764 580.677 388.128 578.266C387.865 577.272 386.336 577.373 384.807 574.933C383.987 572.619 382.504 569.639 381.395 567.41C376.091 556.747 372.355 546.037 369.625 534.432C369.978 533.587 370.277 533.187 370.872 532.492C370.704 532.339 368.924 530.737 368.916 530.724C367.081 527.688 364.017 513.927 364.226 511.35C364.901 511.067 365.256 510.935 365.97 510.711L366.598 510.519L366.294 508.578Z" fill="#FEA2CF"/>
<path d="M470.824 523.243C478.62 521.362 481.899 520.238 489.904 519.874C497.132 520.002 503.91 520.335 511.108 519.37C515.573 518.772 522.582 516.536 526.752 516.556C537.16 516.607 545.937 520.154 556.799 520.627C565.072 520.987 570.257 519.553 578.223 519.314C579.002 519.291 583.701 523.594 584.716 524.476C584.686 525.767 584.809 525.309 584.104 526.416C586.316 530.75 587.781 534.125 589.635 538.622C589.982 540.892 590.246 547.883 590.402 548.412L591.924 548.339C592.675 549.521 592.438 548.891 592.423 550.319C590.52 550.47 590.419 550.691 589.222 549.487C587.355 541.628 582.801 531.718 578.149 525.126C551.052 550.999 528.024 566.619 488.735 562.563C472.447 561.591 459.306 554.797 447.291 544.079C443.465 540.666 439.011 536.281 434.252 534.468C432.247 534.893 432.587 535.062 430.797 536.591C430.212 536.424 429.656 536.022 429.096 535.692L429.017 535.065C430.004 534.393 430.765 534.101 431.852 533.607L431.65 532.893C430.412 532.326 429.17 531.768 427.922 531.222L427.821 530.458C430.625 528.138 438.157 531.422 443.775 530.564C453.613 529.063 461.65 527.048 470.824 523.243ZM490.154 522.383C472.778 524.505 465.166 529.822 449.441 532.757L488.409 535.656C496.169 536.819 504.87 537.246 512.585 535.701C517.569 534.703 524.799 532.267 529.554 531.716C543.306 530.121 555.46 527.977 568.981 525.235C570.752 524.852 572.173 524.699 573.304 523.521C571.965 522.904 570.827 523.206 569.322 523.356C563.018 523.698 552.327 523.63 546.78 522.168C532.576 518.422 524.553 518.592 510.232 522.293C505.372 523.549 495.731 522.82 490.154 522.383ZM487.903 538.849C473.704 537.603 455.283 537.035 441.874 535.286C454.5 547.641 468.345 556.601 486.144 559.308C488.265 559.84 497.852 560.222 500.055 560.224C528.066 560.249 550.952 547.417 570.355 527.924C556.393 531.491 543.724 532.693 529.645 534.861C522.205 536.404 515.044 539.732 507.393 540.223C500.994 540.634 494.276 539.575 487.903 538.849Z" fill="#3C4350"/>
<path d="M490.154 522.383C495.731 522.82 505.372 523.549 510.232 522.293C524.553 518.592 532.576 518.422 546.78 522.168C552.327 523.63 563.018 523.698 569.322 523.356L568.981 525.235C555.46 527.977 543.306 530.121 529.554 531.716C524.799 532.267 517.569 534.703 512.585 535.701C504.87 537.246 496.169 536.819 488.409 535.656C488.759 531.604 489.599 526.494 490.154 522.383Z" fill="#98F5E1"/>
<path d="M449.441 532.757C465.166 529.822 472.778 524.505 490.154 522.383C489.599 526.494 488.759 531.604 488.409 535.656L449.441 532.757Z" fill="#FFEDE1"/>
<path d="M569.322 523.356C570.827 523.206 571.965 522.904 573.304 523.521C572.173 524.699 570.752 524.852 568.981 525.235L569.322 523.356Z" fill="#98F5E1"/>
<path d="M578.149 525.126C582.801 531.718 587.355 541.628 589.222 549.487C587.838 553.508 583.014 565.854 579.604 567.824C578.968 569.57 580.773 571.213 580.281 574.13C578.131 578.106 574.88 579.485 571.69 582.204C570.225 583.453 570.687 590.425 568.698 592.351C563.37 597.51 558.487 600.322 553.79 606.253C548.661 606.265 542.131 606.696 537.204 606.267C528.901 605.543 519.389 602.867 511.122 602.334C505.641 601.981 495.499 600.578 490.569 600.885L490.078 599.306C490.537 593.2 487.599 584.992 487.24 577.718C501.364 579.967 516.902 579.582 531.026 576.198C532.531 575.837 533.017 575.364 533.634 574.256L533.177 573.368C531.418 572.636 525.396 573.94 523.109 574.317C511.35 576.252 500.524 576.144 488.698 574.661C488.626 570.681 488.709 566.555 488.735 562.563C528.024 566.619 551.052 550.999 578.149 525.126Z" fill="#98F5E1"/>
<path d="M487.903 538.849C494.276 539.575 500.994 540.634 507.393 540.223C515.044 539.732 522.205 536.404 529.645 534.861C543.724 532.693 556.393 531.491 570.355 527.924C550.952 547.417 528.066 560.249 500.055 560.224C497.852 560.222 488.265 559.84 486.144 559.308L487.039 559.016C487.56 557.52 487.699 542.141 487.903 538.849Z" fill="#98F5E1"/>
<path d="M430.797 536.591C432.587 535.062 432.247 534.893 434.252 534.468C439.011 536.281 443.465 540.666 447.291 544.079C459.306 554.797 472.447 561.591 488.735 562.563C488.709 566.555 488.626 570.681 488.698 574.661C484.351 574.072 473.412 572.021 470.077 574.091L469.778 574.76C472.045 576.804 483.467 577.273 487.24 577.718C487.599 584.992 490.537 593.2 490.078 599.306C487.406 599.449 475.711 599.899 473.772 600.368C471.876 604.156 475.73 602.911 472.007 606.828C471.891 608.464 471.971 608.397 472.556 609.963L472.184 610.168C470.956 608.97 470.378 607.883 469.305 606.821C466.236 604.492 467.456 599.521 464.448 597.733C450.642 589.529 438.149 581.255 427.103 569.215C428.485 569.551 448.79 587.971 452.669 589.705C455.754 591.084 464.264 596.384 466.742 598.747C472.714 598.77 476.63 599.246 482.724 598.361L482.243 598.274C484.112 597.708 486.992 597.669 489.023 597.549L489.409 597.047C489.379 595.111 486.596 580.994 485.881 578.753C482.018 577.151 471.188 578.112 468.948 575.266L469.232 573.75C473.155 569.522 482.6 574.85 487.023 573.173C487.384 571.923 487.275 564.719 486.68 563.491C468.084 559.442 461.68 557.949 446.382 544.634C443.347 541.992 438.874 537.857 435.299 535.851C433.185 534.664 433.52 537.113 430.797 536.591Z" fill="#C8F3DE"/>
<path d="M399.331 542.374C405.765 549.085 420.228 563.413 427.103 569.215C438.149 581.255 450.642 589.529 464.448 597.733C467.456 599.521 466.236 604.492 469.305 606.821C469.751 611.39 472.096 617.88 475.559 621.317C474.296 622.572 474.817 622.322 473.293 622.983L472.639 622.641C472.355 621.665 472.28 621.507 472.144 620.504L472.105 620.548L472.246 622.254L471.682 622.769L471.452 624.134C469.199 622.013 468.396 622.271 469.053 619.314L468.428 617.884C466.257 617.233 464.609 617.893 463.908 620.08C466.096 624.536 470.871 620.697 468.302 626.939L468.507 627.895C469.993 628.559 470.921 628.809 472.458 629.283L472.039 630.562C470.52 631.299 470.271 631.333 468.694 631.747C468.176 632.569 468.164 632.304 468.112 633.144C469.266 632.809 468.973 632.923 469.999 632.359L470.473 633.096C469.452 637.164 469.02 637.913 469.421 642.38C468.246 643.518 466.856 644.113 466.174 645.445C466.707 646.423 466.634 646.233 467.408 647.073C467.331 648.097 467.255 648.505 467.042 649.514C464.618 648.751 460.126 646.779 457.974 645.425C455.835 644.078 458.81 644.081 458.394 641.36C457.183 641.051 457.765 641.053 456.648 641.28L455.859 643.269C453.274 644.246 451.562 642.258 450.943 639.992C450.303 638.593 450.81 639.067 449.661 638.282L448.357 639.591C445.004 639.617 434.622 630.268 431.553 627.705C433.452 626.104 434.323 625.765 434.126 623.178L433.116 622.507C431.011 622.314 429.72 623.296 427.78 624.307L425.997 622.888C427.777 622.002 427.952 621.897 427.933 620.076C426.966 618.373 426.934 618.461 425.372 617.437C424.687 618.756 424.471 619.02 423.345 619.992C414.486 611.588 395.892 593.779 390.614 583.617C393.093 581.695 396.273 583.361 397.885 579.123C396.876 577.878 397.505 578.399 395.53 578.008C394.08 578.576 394.372 578.876 393.454 580.764L392.752 580.895L392.516 580.068L393.536 578.435L393.163 577.454C390.431 575.715 389.6 577.35 387.948 576.467C384.299 574.515 383.396 570.57 384.449 567.239C383.948 565.925 383.346 565.178 382.558 564.032L382.746 563.304C384.112 563.956 383.567 563.92 384.936 563.855C385.34 561.945 385.306 562.665 384.249 560.546L384.684 559.346C385.991 559.211 386.656 559.323 387.612 558.484C387.86 556.8 387.946 557.616 387.21 555.969C385.679 555.01 386.465 555.124 384.793 555.501C383.868 556.38 382.957 560.771 381.216 563.365C381.375 563.108 381.534 562.851 381.693 562.595L381.223 562.489C382.871 558.223 380.288 560.332 379.298 557.039C380.178 556.893 380.748 556.778 381.604 556.586L381.842 555.814C380.442 552.372 379.025 554.014 377.062 551.279C379.766 551.196 382.657 553.142 384.987 552.218L385.143 551.283C382.733 548.32 383.975 551.77 380.293 547.662L380.415 547.112C381.977 546.795 383.173 546.52 384.709 546.094C385.177 544.795 384.921 545.021 384.239 543.334C381.747 543.221 379.935 544.205 378.143 543.483C381.935 536.208 383.521 540.23 385.771 539.442C386.409 537.962 386.642 537.01 387.898 536.008C391.069 536.329 392.399 540.381 395.658 543.498C397.608 543.693 397.237 543.465 399.331 542.374ZM410.514 565.372L409.707 566.534C410.104 568.61 410.91 568.746 413.016 569.24C414.455 567.327 414.273 568.296 414.178 566.373C412.939 565.332 412.149 565.472 410.514 565.372Z" fill="#F1C0E8"/>
<path d="M441.874 535.286C455.283 537.035 473.704 537.603 487.903 538.849C487.699 542.141 487.56 557.52 487.039 559.016L486.144 559.308C468.345 556.601 454.5 547.641 441.874 535.286Z" fill="#FFEDE1"/>
<path d="M396.826 539.53L396.406 540.467C394.764 539.805 393.471 539.76 392.301 538.53C393.394 537.511 393.603 537.801 395.4 537.529L396.826 539.53Z" fill="#FDA8C2"/>
<path d="M370.757 550.682C373.739 552.838 382.307 580.553 390.274 587.488L390.865 587.179C390.927 582.575 382.789 577.132 384.807 574.933C386.336 577.373 387.865 577.272 388.128 578.266C388.764 580.677 389.035 581.587 390.614 583.617C395.892 593.779 414.486 611.588 423.345 619.992C423.902 620.576 425.653 622.322 425.998 622.888L427.78 624.307C428.725 625.177 430.589 626.999 431.554 627.705C434.623 630.268 445.004 639.617 448.357 639.591L449.661 638.282C450.81 639.067 450.303 638.593 450.943 639.992C451.562 642.258 453.275 644.246 455.86 643.269L456.649 641.28C457.766 641.053 457.183 641.051 458.394 641.36C458.81 644.081 455.835 644.078 457.974 645.425C460.126 646.779 464.618 648.751 467.042 649.514C469.797 650.82 472.668 651.852 475.519 652.934L479.871 654.458C481.355 654.964 483.129 655.517 484.533 656.136L483.94 656.401C486.37 657.231 487.928 657.77 490.483 658.302C490.479 658.313 490.475 658.324 490.471 658.335L490.192 659.406C488.327 658.928 486.765 658.268 484.983 658.549L484.96 658.996C457.374 653.084 433.981 636.324 414.697 616.548C409.433 611.149 403.594 606.12 399 600.049C398.823 604.209 398.064 615.887 398.434 619.471C399.274 627.606 400.931 653.249 405.034 659.412C432.125 700.105 480.768 711.429 526.521 706.259C553.581 702.002 575.199 697.817 599.091 682.73C625.178 666.257 633.198 652.987 639.68 623.812C641.799 614.597 643.599 605.311 645.077 595.972C645.979 590.177 646.814 579.322 648.343 574.161C648.462 574.389 648.345 574.225 648.927 574.718C650.037 569.96 650.529 564.731 651.735 560.132L652.657 559.655C651.637 562.866 651.501 568.081 651.27 571.598L651.948 571.877C646.171 615.255 639.879 651.77 620.278 691.308C610.459 711.115 598.94 731.152 591.093 751.595C600.908 746.529 608.884 744.662 620.07 744.558C625.638 744.944 633.923 745.519 639.048 747.772C639.977 749.405 653.769 754.148 656.628 756.483C657.121 756.886 661.638 759.275 662.683 759.904C672.297 765.691 679.541 774.514 687.925 781.465L688.965 781.48C690.305 780.118 693.17 764.138 693.671 761.255C696.655 743.578 698.616 725.744 699.545 707.841C699.615 706.378 699.894 696.191 700.257 695.839L700.749 696.532L700.165 697.52C701.227 699.013 702.208 697.832 702.178 698.839C701.381 725.583 698.212 753.382 691.681 779.344C691.016 781.987 692.364 784.013 689.781 785.911C686.725 784.856 685.497 780.701 683.181 778.892C675.379 772.801 668.064 766.049 659.751 760.651C653.304 756.466 645.819 753.872 639.234 750.181L638.488 750.47L638.41 751.034C630.674 748.609 626.05 747.669 617.879 747.775C607.472 748.404 599.075 749.996 590.194 755.852L590.025 756.531C588.409 763.124 588.313 769.916 587.53 776.561C586.919 781.75 587.308 790.986 582.072 793.698C571.504 799.172 559.197 802.029 548.352 806.814C509.833 823.808 462.157 857.908 458.328 903.343L457.744 905.037L457.126 903.395L455.944 903.086L455.543 902.388C455.685 894.938 455.905 889.731 457.302 882.429C460.399 866.568 466.07 857.516 474.231 843.91C466.809 836.209 459.311 828.582 451.737 821.03C431.831 802.347 409.158 786.853 384.519 775.096C377.077 771.462 369.438 768.782 362.23 765.231C362.66 759.429 366.193 744.528 367.481 737.795C349.8 735.498 323.172 742.117 305.776 745.906C300.133 747.134 288.707 750.145 283.439 749.419C282.793 748.894 282.559 748.57 282.279 747.757C278.365 736.382 311.101 678.775 317.681 666.136C321.954 657.929 326.018 649.615 329.871 641.203C292.033 656.152 256.611 674.031 220.955 693.388C212.413 698.41 188.523 711.991 182.158 718.466C162.912 738.048 149.561 774.639 139.359 800.406C137.99 803.862 134.019 814.354 133.128 817.672C130.228 824.071 127.379 832.264 124.981 838.947C124.153 836.977 132.089 813.786 133.369 809.89C133.551 809.213 133.739 808.537 133.933 807.862C141.472 781.522 160.478 733.369 180.86 714.9C189.043 707.485 211.352 694.964 221.384 689.411C237.646 681.034 253.385 672.24 269.91 664.197C290.024 654.559 310.498 645.692 331.287 637.615C347.867 607.884 352.173 596.124 383.376 579.78C380.258 574.42 372.36 556.561 370.757 550.682ZM398.32 646.002L397.549 638.235C396.999 641.729 396.976 643.416 396.942 646.972C397.018 656.167 397.48 662.786 400.084 671.704C408.354 700.03 423.978 723.776 437.962 749.375C450.712 772.712 463.295 795.351 476.718 818.31L483.29 831.207L491.317 820.868C499.977 809.624 507.784 800.785 516.682 790.011C527.223 779.932 540.743 763.378 550.385 752.058C572.413 726.606 597.376 702.121 615.978 674.116C593.029 695.181 559.535 705.544 529.023 708.874C496.296 713.085 462.09 709.606 433.369 691.526C424.269 685.798 407.192 670.541 402.345 660.572C400.42 656.613 399.217 650.439 398.32 646.002ZM470.005 813.23C457.017 790.777 444.331 768.151 431.954 745.356C417.58 719.236 397.67 689.309 394.11 658.797C391.989 640.622 395.893 616.311 396.246 597.717C395.392 596.28 394.419 594.516 393.408 593.236C381.336 631.434 378.823 662.23 374.857 701.804C372.67 723.62 370.939 742.059 365.41 763.457C399.325 776.463 431.715 796.141 457.3 822.078C463.57 828.372 470.325 835.116 476.083 841.847C477.911 839.333 479.733 836.595 481.501 834.022C477.428 828.013 473.692 819.759 470.005 813.23ZM501.008 830.881C508.976 825.931 516.485 820.392 524.391 815.38C536.863 807.473 550.97 802.409 564.778 797.434C570.575 795.346 581.888 792.972 583.002 786.256C584.858 775.063 584.51 763.438 587.909 752.504C593.977 733.315 604.303 716.165 613.365 698.331C619.644 685.736 625.229 672.806 630.097 659.601C626.213 664.288 622.279 670.22 618.823 675.301C596.272 708.466 566.967 736.105 541.49 766.998C523.429 788.897 503.342 807.733 487.347 831.557C475.81 848.741 463.454 862.983 459.626 884.248C470.315 860.801 477.97 849.505 498.515 832.806L501.008 830.881ZM384.958 582.218C373.708 587.765 363.696 593.521 355.9 603.696C340.115 624.298 329.477 649.041 318.11 672.306C307.407 694.214 288.176 723.099 284.553 747.27L289.602 745.98C316.262 740.615 340.682 732.936 367.994 735.179C373.795 697.096 374.314 657.608 382.634 619.719C384.834 609.702 387.768 600.192 390.71 590.402C389.555 588.577 386.36 583.264 384.958 582.218Z" fill="#3C4350"/>
<path d="M652.592 550.278C653.616 550.765 653.81 550.896 654.519 551.781L655.34 551.533C661.929 555.904 676.958 580.174 682.502 587.106L682.572 587.49C679.871 587.74 678.572 587.65 675.895 587.493L676.158 587.152L677.534 586.749C676.64 580.281 659.365 562.898 655.605 557.239L654.495 554.91L654.345 553.9C653.574 553.019 652.87 552.112 652.193 551.158L652.592 550.278Z" fill="#875E63"/>
<path d="M648.383 555.269C650.068 554.43 651.055 552.719 652.193 551.158C652.87 552.112 653.574 553.019 654.345 553.9L654.495 554.91C653.311 560.62 652.682 566.101 651.948 571.877L651.27 571.598C651.501 568.081 651.637 562.866 652.657 559.655L651.735 560.132C650.529 564.731 650.037 569.96 648.927 574.718C648.345 574.225 648.462 574.389 648.343 574.161C648.716 570.077 649.269 566.449 649.9 562.391L649.392 563.115C645.396 568.906 643.057 575.931 637.798 582.602C631.145 591.04 625.273 597.57 617.583 605.213C593.367 629.281 565.027 652.987 530.704 659.953C520.513 662.021 510.742 662.152 500.492 661.83L499.637 661.666C497.789 659.128 497.964 659.179 494.991 657.923L496.67 657.19C497.278 657.587 497.878 657.998 498.468 658.422C501.986 658.314 500.972 656.453 502.336 656.824C507.574 658.247 508.704 660.075 514.885 658.961C515.814 657.588 515.671 657.434 517.027 656.699L518.297 657.832C520.697 658.284 527.548 656.79 530.134 656.267C530.365 655.543 530.581 654.923 530.847 654.212L531.904 654.138L533.381 655.452C535.349 655.831 534.649 655.769 536.755 654.979C538.038 653.473 535.382 653.888 535.543 651.566C536.88 650.756 536.185 650.93 537.669 650.923C538.754 652.091 538.671 652.08 540.076 652.792C543.135 653.046 545.743 652.816 546.048 649.579C546.994 648.374 546.377 648.802 548.119 648.508C549.015 649.277 548.967 649.252 549.992 649.901C552.001 649.323 556.599 647.75 558.059 646.277L557.496 646.11C556.187 646.836 556.722 646.747 555.34 646.822L555.178 645.948C557.066 644.186 565.407 645.515 566.798 641.673C565.774 640.453 565.891 640.901 565.469 639.51L566.255 639.171C567.594 640.027 568.243 640.621 569.826 640.771L570.363 640.239L570.351 639.33L567.768 637.969L567.569 637.232L568.91 636.295C570.825 636.37 570.712 636.815 572.519 638.519C575.104 637.204 580.245 633.505 582.286 631.443C581.665 630.577 581.959 631.024 581.404 630.101C583.106 628.644 584.818 629.876 588.079 626.888L588.299 626.421L587.432 624.8C588.029 623.42 587.522 623.854 588.823 623.297L590.713 624.225C592.96 622.626 595.651 620.728 597.431 618.666C597.573 618.325 598.041 617.937 598.342 617.631C597.076 611.155 604.055 618.193 605.512 611.579C604.455 610.925 604.506 610.981 603.55 610.16L604.112 609.575C608.335 609.649 609.566 609.349 611.707 605.541C615.446 604.301 613.041 603.859 614.119 601.666L615.602 601.323L615.711 600.997L613.643 599.54L613.707 598.789L614.68 598.008C615.988 598.724 615.723 598.698 616.605 600.112L616.877 600.555C621.552 599.188 619.79 595.583 621.528 592.903C622.398 592.953 623.227 593.116 624.078 593.298C625.447 592.426 625.533 591.898 626.211 590.43L627.702 589.491L629.873 586.649C630.323 585.052 629.979 584.509 629.464 582.924L629.278 582.368C630.541 582.01 630.516 582.334 632.066 582.995L632.287 583.764C633.622 582.226 633.237 582.209 633.65 579.835C635.521 579.804 634.716 580.076 636.198 579.147L636.447 578.01C635.415 577.813 634.581 577.711 633.536 577.589L633.365 576.806C634.835 573.954 635.264 574.788 637.951 575.337C640.51 574.073 640.358 572.304 640.418 569.972C642.269 569.678 645.131 564.608 645.193 562.911L644.026 562.455L644.437 561.807C647.338 561.2 649.349 558.223 648.383 555.269Z" fill="#21454E"/>
<path d="M598.349 558.403L597.786 557.496C598.518 556.219 599.407 556.168 601.035 555.379L601.502 555.997C600.607 557.491 600.113 557.391 598.349 558.403Z" fill="#1FB3AF"/>
<path d="M654.495 554.91L655.605 557.239C653.196 564.696 658.39 577.374 660.333 585.14C660.497 585.795 661.044 586.221 661.623 586.525C662.505 590.919 660.402 600.06 659.772 604.778C657.45 622.168 653.254 638.581 647.43 655.163C636.703 685.702 622.591 711.521 620.07 744.558C608.884 744.662 600.908 746.529 591.093 751.595C598.94 731.152 610.459 711.115 620.278 691.308C639.879 651.77 646.171 615.255 651.948 571.877C652.682 566.101 653.311 560.62 654.495 554.91Z" fill="#8EECF5"/>
<path d="M655.605 557.239C659.365 562.898 676.64 580.281 677.534 586.749L676.158 587.152C675.818 586.118 675.792 586.108 675.308 585.145C671.986 583.936 665.33 585.778 661.623 586.525C661.044 586.221 660.497 585.795 660.333 585.14C658.39 577.374 653.196 564.696 655.605 557.239Z" fill="#FFCFD2"/>
<path d="M648.343 574.161C646.814 579.322 645.979 590.177 645.077 595.972C643.599 605.311 641.799 614.597 639.68 623.812C633.198 652.987 625.178 666.257 599.091 682.73C575.199 697.817 553.581 702.002 526.521 706.259C525.482 703.589 522.651 699.29 521.277 696.586C515.687 685.589 505.852 672.372 500.492 661.83C510.742 662.152 520.513 662.021 530.704 659.953C565.027 652.987 593.367 629.281 617.583 605.213C625.273 597.57 631.145 591.04 637.798 582.602C643.057 575.931 645.396 568.906 649.392 563.115L649.9 562.391C649.269 566.449 648.716 570.077 648.343 574.161Z" fill="#8EECF5"/>
<path d="M413.016 569.24C410.91 568.746 410.104 568.61 409.707 566.534L410.514 565.372C412.149 565.472 412.94 565.332 414.179 566.373C414.274 568.296 414.455 567.327 413.016 569.24Z" fill="#FDA8C2"/>
<path d="M487.24 577.718C483.467 577.273 472.045 576.804 469.778 574.76L470.077 574.091C473.412 572.021 484.351 574.072 488.698 574.661C500.524 576.144 511.35 576.252 523.109 574.317C525.396 573.94 531.418 572.636 533.177 573.368L533.634 574.256C533.017 575.364 532.531 575.837 531.026 576.198C516.902 579.582 501.364 579.967 487.24 577.718Z" fill="url(#paint3_linear_6_9764)"/>
<path d="M604.552 579.654C602.964 578.045 601.911 577.488 601.354 575.517C602.183 573.688 602.171 574.132 604.125 572.801C605.841 572.718 605.802 572.934 606.618 574.247C606.762 576.452 605.832 577.956 604.552 579.654Z" fill="#71E1CA"/>
<path d="M682.502 587.106C691.467 585.264 701.748 582.443 710.571 580.981C739.831 576.132 774.924 574.039 803.898 580.384C838.159 589.173 867.538 611.189 885.591 641.606C892.086 652.478 897.245 664.095 900.955 676.204L901.916 679.564C896.979 684.1 891.582 705.698 887.271 712.855C886.545 714.06 884.953 718.127 884.442 719.546C876.443 708.235 869.854 699.778 858.868 690.969C845.914 680.583 834.502 676.253 820.377 669.118C801.261 659.461 780.806 651.585 761.782 642.288C744.264 632.911 726.958 623.134 710.329 612.215C703.161 607.508 694.191 602.45 688.003 596.525C686.893 595.462 684.149 589.834 682.872 587.93L682.572 587.49L682.502 587.106Z" fill="#71E1CA"/>
<path d="M632.066 582.995C630.516 582.334 630.541 582.01 629.278 582.368L629.464 582.924C629.979 584.509 630.323 585.052 629.873 586.649L627.702 589.491C626.633 587.88 626.667 587.077 626.444 585.229L625.592 584.294C624.744 585.763 625.35 588.99 626.211 590.43C625.533 591.898 625.447 592.426 624.078 593.298C623.227 593.116 622.398 592.953 621.528 592.903C619.79 595.583 621.552 599.188 616.877 600.555L616.605 600.112C615.723 598.698 615.988 598.724 614.68 598.008L613.707 598.789L613.643 599.54L615.711 600.997L615.602 601.323L614.119 601.666C613.041 603.859 615.446 604.301 611.707 605.541C613.718 601.534 611.783 598.504 613.279 595.498C614.637 595.329 614.858 596.933 617.487 598.076C619.283 597.523 618.458 597.997 619.786 596.222L619.129 592.615L617.578 593.614C615.854 593.734 616.604 593.957 615.235 592.984C615.582 589.25 620.32 588.447 621.034 585.183L622.478 584.94C623.243 585.468 623.308 585.533 623.832 586.24C624.045 585.325 624.276 584.415 624.525 583.509C625.431 583.404 626.256 583.27 627.156 583.128C628.19 582.084 628.56 581.561 629.928 580.973C631.63 581.789 630.87 581.225 632.066 582.995Z" fill="#71E1CA"/>
<path d="M284.553 747.27C288.176 723.099 307.407 694.214 318.11 672.306C329.477 649.041 340.115 624.298 355.9 603.696C363.696 593.521 373.708 587.765 384.958 582.218C386.36 583.264 389.555 588.577 390.71 590.402C387.768 600.192 384.834 609.702 382.634 619.719C374.314 657.608 373.795 697.096 367.994 735.179C340.682 732.936 316.262 740.615 289.602 745.98L284.553 747.27Z" fill="#DFD5F9"/>
<path d="M626.211 590.43C625.35 588.99 624.744 585.763 625.592 584.294L626.444 585.229C626.667 587.077 626.633 587.88 627.702 589.491L626.211 590.43Z" fill="#007C75"/>
<path d="M661.623 586.525C665.33 585.778 671.986 583.936 675.308 585.145C675.792 586.108 675.818 586.118 676.158 587.152L675.895 587.493C675.921 589.681 678.931 591.891 680.681 593.706C685.616 598.825 687.747 604.903 689.506 611.672C701.116 656.374 701.118 703.256 694.633 748.763C693.278 758.271 691.197 772 688.575 781.09C676.376 768.545 656.211 751.487 639.048 747.772C633.923 745.519 625.638 744.944 620.07 744.558C622.591 711.521 636.703 685.702 647.43 655.163C653.254 638.581 657.45 622.168 659.772 604.778C660.402 600.06 662.505 590.919 661.623 586.525Z" fill="#71E1CA"/>
<path d="M688.575 781.09C691.197 772 693.278 758.271 694.633 748.763C701.118 703.256 701.116 656.374 689.506 611.672C687.747 604.903 685.616 598.825 680.681 593.706C678.931 591.891 675.921 589.681 675.895 587.493C678.572 587.65 679.871 587.74 682.572 587.49L682.872 587.93C684.149 589.834 686.893 595.462 688.003 596.525C694.191 602.45 703.161 607.508 710.329 612.215C726.958 623.134 744.264 632.911 761.782 642.288C780.806 651.585 801.261 659.461 820.377 669.118C834.502 676.253 845.914 680.583 858.868 690.969C869.854 699.778 876.443 708.235 884.442 719.546C887.471 723.979 892.71 732.255 894.947 736.945C910.054 768.615 929.757 833.896 925.578 868.329L924.481 865.405C924.53 861.808 922.982 849.203 922.383 845.459C916.366 807.838 903.656 754.192 882.209 722.878C875.159 712.999 867.243 702.72 857.589 695.19C828.821 672.753 791.707 662.367 759.759 645.719C736.956 633.837 710.999 618.27 690.599 602.871C708.329 658.297 705.748 728.708 691.34 785.523C691.124 785.824 690.907 786.125 690.69 786.426C689.212 786.563 687.85 786.202 686.843 785.074C673.38 769.97 657.363 758.713 638.41 751.034L638.488 750.47L639.234 750.181C645.819 753.872 653.304 756.466 659.751 760.651C668.064 766.049 675.379 772.801 683.181 778.892C685.497 780.701 686.725 784.856 689.781 785.911C692.364 784.013 691.016 781.987 691.681 779.344C698.212 753.382 701.381 725.583 702.178 698.839C702.208 697.832 701.227 699.013 700.165 697.52L700.749 696.532L700.257 695.839C699.894 696.191 699.615 706.378 699.545 707.841C698.616 725.744 696.655 743.578 693.671 761.255C693.17 764.138 690.305 780.118 688.965 781.48L687.925 781.465C679.541 774.514 672.297 765.691 662.683 759.904C661.638 759.275 657.121 756.886 656.628 756.483C653.769 754.148 639.977 749.405 639.048 747.772C656.211 751.487 676.376 768.545 688.575 781.09Z" fill="url(#paint4_linear_6_9764)"/>
<path d="M470.005 813.23C464.441 813.645 461.183 818.073 457.3 822.078C431.715 796.141 399.325 776.463 365.41 763.457C370.939 742.059 372.67 723.62 374.857 701.804C378.823 662.23 381.336 631.434 393.408 593.236C394.419 594.516 395.392 596.28 396.246 597.717C395.893 616.311 391.989 640.622 394.11 658.797C397.67 689.309 417.58 719.236 431.954 745.356C444.331 768.151 457.017 790.777 470.005 813.23Z" fill="#DFD5F9"/>
<path d="M469.305 606.821C470.378 607.883 470.956 608.97 472.184 610.168L472.556 609.963C471.971 608.397 471.891 608.464 472.007 606.828C475.73 602.911 471.876 604.156 473.772 600.368C475.711 599.899 487.406 599.449 490.078 599.306L490.569 600.885C487.69 601.948 488.476 602.487 485.82 605.007C486.055 607.272 486.834 607.107 488.957 607.902L489.419 608.854C488.771 609.94 489.065 609.651 488.059 610.3C488.058 611.794 487.961 619.931 488.264 620.965C489.962 626.76 490.101 625.619 485.424 630.347L485.443 631.538C487.376 633.211 487.299 631.037 488.735 633.231C487.168 636.268 486.54 633.382 486.563 636.314C487.4 636.861 488.186 637.414 488.927 638.086C489.142 639.737 489.317 639.762 488.541 641.173L485.884 643.11C485.567 645.326 487.931 644.873 485.067 647.184C485.074 646.019 485.026 646.009 484.691 644.877C483.504 644.265 483.392 644.363 482.782 643.222C481.677 640.088 480.161 640.068 479.149 636.455C478.894 636.069 478.411 634.955 478.194 634.489C478.751 631.36 479.145 626.794 478.375 623.677C478.084 622.503 476.666 621.932 475.559 621.317C472.096 617.88 469.751 611.39 469.305 606.821Z" fill="url(#paint5_linear_6_9764)"/>
<path d="M399 600.049C403.594 606.12 409.433 611.149 414.697 616.548C433.981 636.324 457.374 653.084 484.96 658.996C489.466 660.178 494.982 661.002 499.637 661.666L500.492 661.83C505.852 672.372 515.687 685.589 521.277 696.586C522.651 699.29 525.482 703.589 526.521 706.259C480.768 711.429 432.125 700.105 405.034 659.412C400.931 653.249 399.274 627.606 398.434 619.471C398.064 615.887 398.823 604.209 399 600.049Z" fill="#F1C0E8"/>
<path d="M690.599 602.871C710.999 618.27 736.956 633.837 759.759 645.719C791.707 662.367 828.821 672.753 857.589 695.19C867.243 702.72 875.159 712.999 882.209 722.878C878.304 727.555 875.583 735.288 872.146 740.487C829.142 805.544 758.542 856.22 688.012 887.695L687.416 887.282C686.876 886.305 681.578 879.988 680.608 878.792C676.602 873.823 672.689 868.78 668.871 863.664C656.416 847.03 646.597 828.901 638.092 810.047C630.711 793.686 624.626 778.53 622.053 760.64C621.478 756.645 621.53 752.508 620.58 748.65C620.451 748.125 618.473 747.905 617.879 747.775C626.05 747.669 630.674 748.609 638.41 751.034C657.363 758.713 673.38 769.97 686.843 785.074C687.85 786.202 689.212 786.563 690.69 786.426C690.907 786.125 691.124 785.824 691.34 785.523C705.748 728.708 708.329 658.297 690.599 602.871Z" fill="#71E1CA"/>
<path d="M170.028 650.913C181.539 637.566 203.375 618.647 217.845 608.497C215.091 626.468 213.758 673.176 221.384 689.411C211.352 694.964 189.043 707.485 180.86 714.9C160.478 733.369 141.472 781.522 133.933 807.862C133.739 808.537 133.551 809.213 133.369 809.89C129.658 805.858 128.767 795.084 128.046 789.377C122.582 746.168 132.774 704.363 156.469 668.008C160.128 662.394 165.682 656.298 170.028 650.913Z" fill="#FDE4CF"/>
<path d="M531.016 621.076C525.905 620.179 521.824 618.58 525.948 612.754C527.292 612.959 526.784 612.808 527.976 613.613C528.366 615.229 528.241 615.225 529.378 616.392C530.671 616.794 530.926 616.791 532.036 617.527C532.288 619.047 531.74 619.689 531.016 621.076Z" fill="#71E1CA"/>
<path d="M597.431 618.666C594.573 618.438 595.545 619.768 592.659 618.054L593.25 617.437C595.594 617.093 596.25 616.786 598.342 617.631C598.041 617.937 597.573 618.325 597.431 618.666Z" fill="#1FB3AF"/>
<path d="M423.345 619.992C424.471 619.02 424.688 618.756 425.373 617.437C426.935 618.461 426.966 618.373 427.933 620.076C427.952 621.897 427.778 622.002 425.998 622.888C425.653 622.322 423.902 620.576 423.345 619.992Z" fill="#E199D7"/>
<path d="M467.042 649.514C467.255 648.505 467.331 648.097 467.408 647.073C466.634 646.233 466.708 646.423 466.175 645.445C466.857 644.113 468.246 643.518 469.421 642.38C469.02 637.913 469.452 637.164 470.473 633.096L469.999 632.359C468.973 632.923 469.266 632.809 468.112 633.144C468.164 632.304 468.176 632.569 468.694 631.747C470.271 631.333 470.52 631.299 472.039 630.562L472.458 629.283C470.921 628.809 469.993 628.559 468.507 627.895L468.302 626.939C470.871 620.697 466.096 624.536 463.908 620.08C464.609 617.893 466.258 617.233 468.429 617.884L469.054 619.314C468.397 622.271 469.199 622.013 471.452 624.134C472.593 628.416 474.355 632.529 476.741 636.265C478.195 636.913 477.426 636.782 479.149 636.455C480.161 640.068 481.677 640.088 482.782 643.222C481.869 643.568 481.288 643.755 480.315 643.84C479.277 645.278 479.763 646.165 478.845 647.605C476.335 647.65 476.879 647.282 475.049 648.453C474.733 649.73 475.408 651.023 476.112 652.08L475.519 652.934C472.668 651.852 469.797 650.82 467.042 649.514Z" fill="#CFBAF0"/>
<path d="M475.559 621.317C476.666 621.932 478.084 622.503 478.375 623.677C479.145 626.794 478.751 631.36 478.194 634.489C478.411 634.955 478.894 636.069 479.149 636.455C477.426 636.782 478.195 636.913 476.741 636.265C474.355 632.529 472.593 628.416 471.452 624.134L471.682 622.769L472.246 622.254L472.105 620.548L472.144 620.504C472.28 621.507 472.355 621.665 472.639 622.641L473.293 622.983C474.817 622.322 474.296 622.572 475.559 621.317Z" fill="#E4E6EE"/>
<path d="M427.78 624.307C429.72 623.296 431.011 622.314 433.116 622.507L434.126 623.178C434.323 625.765 433.453 626.104 431.554 627.705C430.589 626.999 428.725 625.177 427.78 624.307Z" fill="#E199D7"/>
<path d="M493.347 654.545C494.999 654.982 495.498 654.517 496.597 653.467C496.785 651.864 496.621 651.783 497.378 650.422L505.166 652.515C505.853 653.753 505.138 654.753 504.938 656.733C505.965 658.44 507.78 658.719 509.499 657.821C508.32 656.86 507.748 656.606 507.391 655.142C508.822 652.422 515.773 647.556 518.562 650.977C518.336 652.332 517.876 653.198 517.331 654.445C517.698 656.379 517.264 655.557 518.769 656.947C520.14 656.282 520.233 656.351 521.232 655.246C518.509 652.645 518.792 649.471 521.308 646.863C522.987 646.442 522.149 646.409 523.888 647.199C524.768 649.489 522.642 648.6 523.451 651.363C525.26 652.589 528.033 653.172 530.164 653.164C530.001 651.854 529.328 651.381 528.423 650.142C529.217 648.233 530.598 647.338 532.628 647.782C533.628 649.007 533.538 649.923 533.727 651.534L533.801 652.208L534.249 652.38C538.579 647.728 533.246 646.077 534.738 642.723C537.225 642.759 538.87 645.587 543.178 645.911C543.784 644.787 544.041 643.992 545.141 643.378L547.077 643.794C554.303 645.337 551.44 640.688 552.995 638.841C555.52 638.753 558.094 638.354 559.991 640.048C560.285 641.589 559.97 641.166 560.854 642.227C562.569 640.31 565.409 637.769 567.524 636.281C571.35 633.587 570.381 636.71 573.261 637.252L574.33 636.446C574.503 634.957 574.483 634.172 574.457 632.705C576.453 629.928 576.406 632.347 579.211 631.8C579.499 630.216 579.205 630.401 578.316 628.581L578.735 628.04C583.631 628.217 584.343 625.785 588.079 626.888C584.818 629.876 583.106 628.644 581.404 630.101C581.959 631.024 581.665 630.577 582.286 631.443C580.245 633.505 575.104 637.204 572.519 638.519C570.712 636.815 570.825 636.37 568.91 636.295L567.569 637.232L567.768 637.969L570.351 639.33L570.363 640.239L569.826 640.771C568.243 640.621 567.594 640.027 566.255 639.171L565.469 639.51C565.891 640.901 565.774 640.453 566.798 641.673C565.407 645.515 557.066 644.186 555.178 645.948L555.34 646.822C556.722 646.747 556.187 646.836 557.496 646.11L558.059 646.277C556.599 647.75 552.001 649.323 549.992 649.901C548.967 649.252 549.015 649.277 548.119 648.508C546.377 648.802 546.994 648.374 546.048 649.579C545.743 652.816 543.135 653.046 540.076 652.792C538.671 652.08 538.754 652.091 537.669 650.923C536.185 650.93 536.88 650.756 535.543 651.566C535.382 653.888 538.038 653.473 536.755 654.979C534.649 655.769 535.349 655.831 533.381 655.452L531.904 654.138L530.847 654.212C530.581 654.923 530.365 655.543 530.134 656.267C527.548 656.79 520.697 658.284 518.297 657.832L517.027 656.699C515.671 657.434 515.814 657.588 514.885 658.961C508.704 660.075 507.574 658.247 502.336 656.824C500.972 656.453 501.986 658.314 498.468 658.422C497.878 657.998 497.278 657.587 496.67 657.19L494.991 657.923H493.722C492.841 656.833 493.237 656.43 493.347 654.545Z" fill="#71E1CA"/>
<path d="M398.32 646.002L396.942 646.972C396.976 643.416 396.999 641.729 397.549 638.235L398.32 646.002Z" fill="#CFBAF0"/>
<path d="M220.955 693.388C256.611 674.031 292.033 656.152 329.871 641.203C326.018 649.615 321.954 657.929 317.681 666.136C311.101 678.775 278.365 736.382 282.279 747.757C282.559 748.57 282.793 748.894 283.439 749.419C288.707 750.145 300.133 747.134 305.776 745.906C323.172 742.117 349.8 735.498 367.481 737.795C366.193 744.528 362.66 759.429 362.23 765.231C369.438 768.782 377.077 771.462 384.519 775.096C409.158 786.853 431.831 802.347 451.737 821.03C446.359 826.634 444.884 831.883 444.996 839.567C445.072 843.336 445.522 847.088 446.342 850.767C447.284 855.115 454.839 880.147 457.302 882.429C455.905 889.731 455.685 894.938 455.543 902.388C441.821 898.852 418.866 890.077 405.921 884.695C390.516 877.417 374.821 870.62 360.02 862.099C302.69 829.095 261.417 787.926 233.331 727.972C230.798 722.636 228.612 717.142 226.787 711.524C224.947 705.664 223.351 698.98 220.955 693.388Z" fill="#DFD5F9"/>
<path d="M478.845 647.605C479.763 646.165 479.277 645.278 480.315 643.84C481.288 643.755 481.869 643.568 482.782 643.222C483.392 644.363 483.504 644.265 484.691 644.877C485.026 646.009 485.074 646.019 485.067 647.184C481.771 651.489 485.381 651.481 487.491 653.998L486.267 654.4L485.573 655.836L484.533 656.136C483.129 655.517 481.355 654.964 479.871 654.458C479.442 651.049 481.288 649.912 478.845 647.605Z" fill="#E4E6EE"/>
<path d="M396.942 646.972L398.32 646.002C399.217 650.439 400.42 656.613 402.345 660.572C407.192 670.541 424.269 685.798 433.369 691.526C462.09 709.606 496.296 713.085 529.023 708.874C532.641 714.812 540.868 728.772 541.463 735.287L541.039 736.367C536.96 746.158 517.628 783.193 516.682 790.011C507.784 800.785 499.977 809.624 491.317 820.868C487.014 819.072 481.387 817.797 476.718 818.31C463.295 795.351 450.712 772.712 437.962 749.375C423.978 723.776 408.354 700.03 400.084 671.704C397.48 662.786 397.018 656.167 396.942 646.972Z" fill="#F1C0E8"/>
<path d="M475.519 652.934L476.112 652.08C475.408 651.023 474.733 649.73 475.049 648.453C476.879 647.282 476.335 647.65 478.845 647.605C481.288 649.912 479.442 651.049 479.871 654.458L475.519 652.934Z" fill="#DFD5F9"/>
<path d="M484.533 656.136L485.573 655.836L486.267 654.4L487.491 653.998L488.573 654.61L488.272 655.485C489.132 656.786 488.58 656.3 490.004 656.978C491.944 656.484 492.086 656.08 493.347 654.545C493.237 656.43 492.841 656.833 493.722 657.923H494.991C497.964 659.179 497.789 659.128 499.637 661.666C494.982 661.002 489.466 660.178 484.96 658.996L484.983 658.549C486.765 658.268 488.327 658.928 490.192 659.406L490.471 658.335C490.475 658.324 490.479 658.313 490.483 658.302C487.928 657.77 486.37 657.231 483.94 656.401L484.533 656.136Z" fill="#193D57"/>
<path d="M501.008 830.881C498.981 829.802 497.154 828.59 494.923 828.28L494.59 828.906C495.721 831.105 496.777 831.111 498.515 832.806C477.97 849.505 470.315 860.801 459.626 884.248C463.454 862.983 475.81 848.741 487.347 831.557C503.342 807.733 523.429 788.897 541.49 766.998C566.967 736.105 596.272 708.466 618.823 675.301C622.279 670.22 626.213 664.288 630.097 659.601C625.229 672.806 619.644 685.736 613.365 698.331C604.303 716.165 593.977 733.315 587.909 752.504C584.51 763.438 584.858 775.063 583.002 786.256C581.888 792.972 570.575 795.346 564.778 797.434C550.97 802.409 536.863 807.473 524.391 815.38C516.485 820.392 508.976 825.931 501.008 830.881ZM563.213 766.022C556.651 770.771 555.319 779.644 564.947 779.519C570.339 775.742 572.641 766.354 565.373 765.973C564.653 765.939 563.931 765.955 563.213 766.022Z" fill="#8EECF5"/>
<path d="M529.023 708.874C559.535 705.544 593.029 695.181 615.978 674.116C597.376 702.121 572.413 726.606 550.385 752.058C549.217 750.964 546.156 749.38 544.635 748.523C543.588 745.847 541.501 739.017 541.039 736.367L541.463 735.287C540.868 728.772 532.641 714.812 529.023 708.874Z" fill="#8EECF5"/>
<path d="M901.916 679.564C907.204 698.012 912.325 714.48 920.684 731.91C928.735 748.7 939.361 764.665 946.003 782.032C973.989 855.204 938.103 926.929 862.64 948.06C822.472 959.339 779.455 953.987 743.275 933.21C724.993 922.885 701.141 904.147 688.012 887.695C758.542 856.22 829.142 805.544 872.146 740.487C875.583 735.288 878.304 727.555 882.209 722.878C903.656 754.192 916.366 807.838 922.383 845.459C922.982 849.203 924.53 861.808 924.481 865.405C924.472 867.693 924.311 869.04 925.05 871.237C925.731 870.017 925.569 869.777 925.578 868.329C929.757 833.896 910.054 768.615 894.947 736.945C892.71 732.255 887.471 723.979 884.442 719.546C884.953 718.127 886.545 714.06 887.271 712.855C891.582 705.698 896.979 684.1 901.916 679.564Z" fill="#98F5E1"/>
<path d="M133.128 817.672C134.019 814.354 137.99 803.862 139.359 800.406C149.561 774.639 162.912 738.048 182.158 718.466C188.523 711.991 212.413 698.41 220.955 693.388C223.351 698.98 224.947 705.664 226.787 711.524C228.612 717.142 230.798 722.636 233.331 727.972C261.417 787.926 302.69 829.095 360.02 862.099C374.821 870.62 390.516 877.417 405.921 884.695C402.275 886.071 396.549 887.391 392.619 888.51C362.338 897.13 331.129 896.333 300.13 899.79C276.634 902.41 256.751 907.472 232.755 907.111C191.583 907.348 161.346 878.431 145.02 842.938C143.265 839.123 135.637 819.963 133.128 817.672Z" fill="#FDE4CF"/>
<path d="M516.682 790.011C517.628 783.193 536.96 746.158 541.039 736.367C541.501 739.017 543.588 745.847 544.635 748.523C546.156 749.38 549.217 750.964 550.385 752.058C540.743 763.378 527.223 779.932 516.682 790.011Z" fill="#DFD5F9"/>
<path d="M590.194 755.852C599.075 749.996 607.472 748.404 617.879 747.775C618.473 747.905 620.451 748.125 620.58 748.65C621.53 752.508 621.478 756.645 622.053 760.64C624.626 778.53 630.711 793.686 638.092 810.047C646.597 828.901 656.416 847.03 668.871 863.664C672.689 868.78 676.602 873.823 680.608 878.792C681.578 879.988 686.876 886.305 687.416 887.282C678.32 890.526 670.188 893.991 660.875 896.864C610.081 912.52 556.576 917.391 503.79 911.166C494.897 910.147 486.049 908.767 477.267 907.028C471.331 905.839 464.196 903.954 458.328 903.343C462.157 857.908 509.833 823.808 548.352 806.814C559.197 802.029 571.504 799.172 582.072 793.698C587.308 790.986 586.919 781.75 587.53 776.561C588.313 769.916 588.409 763.124 590.025 756.531L590.194 755.852Z" fill="#8EECF5"/>
<path d="M564.947 779.519C555.319 779.644 556.651 770.771 563.213 766.022C563.931 765.955 564.653 765.939 565.373 765.973C572.641 766.354 570.339 775.742 564.947 779.519ZM563.855 768.359C561.63 770.213 560.735 770.779 560.397 773.739C561.221 776.083 561.933 776.196 564.378 776.472C566.794 774.767 568.299 772.472 566.883 769.495C565.246 768.153 566.182 768.609 563.855 768.359Z" fill="#193D57"/>
<path d="M564.378 776.472C561.933 776.196 561.22 776.083 560.396 773.739C560.734 770.779 561.629 770.213 563.854 768.359C566.181 768.609 565.246 768.153 566.883 769.495C568.299 772.472 566.794 774.767 564.378 776.472Z" fill="#8EECF5"/>
<path d="M457.3 822.078C461.183 818.073 464.441 813.645 470.005 813.23C473.692 819.759 477.428 828.013 481.501 834.022C479.733 836.595 477.911 839.333 476.083 841.847C470.325 835.116 463.57 828.372 457.3 822.078Z" fill="#A3C4F3"/>
<path d="M476.718 818.31C481.387 817.797 487.014 819.072 491.317 820.868L483.29 831.207L476.718 818.31Z" fill="#A3C4F3"/>
<path d="M451.737 821.03C459.311 828.582 466.809 836.209 474.231 843.91C466.07 857.516 460.399 866.568 457.302 882.429C454.839 880.147 447.284 855.115 446.342 850.767C445.522 847.088 445.072 843.336 444.996 839.567C444.884 831.883 446.359 826.634 451.737 821.03Z" fill="#A3C4F3"/>
<path d="M498.515 832.806C496.777 831.111 495.721 831.105 494.59 828.906L494.923 828.28C497.154 828.59 498.981 829.802 501.008 830.881L498.515 832.806Z" fill="#90DBF4"/>
<path d="M924.481 865.405L925.578 868.329C925.569 869.777 925.731 870.017 925.05 871.237C924.311 869.04 924.472 867.693 924.481 865.405Z" fill="#789682"/>
<path d="M455.944 903.086L457.126 903.395L457.744 905.037C457.644 906.764 457.482 908.721 457.44 910.427C457.162 912.66 456.899 915.432 456.514 917.602C455.699 912.933 455.805 907.809 455.944 903.086Z" fill="#543C37"/>
<path d="M456.514 917.602C456.899 915.432 457.162 912.66 457.44 910.427C457.562 915.06 457.719 917.558 456.878 922.172C456.21 920.292 456.395 919.659 456.514 917.602Z" fill="#B4ABAB"/>
<defs>
<linearGradient id="paint0_linear_6_9764" x1="460.248" y1="169.552" x2="475.753" y2="155.448" gradientUnits="userSpaceOnUse">
<stop stop-color="#772E3A"/>
<stop offset="1" stop-color="#654A54"/>
</linearGradient>
<linearGradient id="paint1_linear_6_9764" x1="377.417" y1="198.158" x2="374.84" y2="193.779" gradientUnits="userSpaceOnUse">
<stop stop-color="#70353B"/>
<stop offset="1" stop-color="#78504C"/>
</linearGradient>
<linearGradient id="paint2_linear_6_9764" x1="659.263" y1="330.02" x2="716.904" y2="312.235" gradientUnits="userSpaceOnUse">
<stop stop-color="#FFE1C2"/>
<stop offset="1" stop-color="#FFD8DD"/>
</linearGradient>
<linearGradient id="paint3_linear_6_9764" x1="500.424" y1="568.497" x2="502.662" y2="580.459" gradientUnits="userSpaceOnUse">
<stop stop-color="#4E3E3F"/>
<stop offset="1" stop-color="#254244"/>
</linearGradient>
<linearGradient id="paint4_linear_6_9764" x1="811.512" y1="870.631" x2="794.716" y2="581.885" gradientUnits="userSpaceOnUse">
<stop stop-color="#6F4D32"/>
<stop offset="1" stop-color="#876B3B"/>
</linearGradient>
<linearGradient id="paint5_linear_6_9764" x1="470.037" y1="618.303" x2="487.87" y2="620.513" gradientUnits="userSpaceOnUse">
<stop stop-color="#DFFCF2"/>
<stop offset="1" stop-color="#ACFEFD"/>
</linearGradient>
</defs>
</svg>
