<svg width="1024" height="1024" viewBox="0 0 1024 1024" fill="none" xmlns="http://www.w3.org/2000/svg">
<path d="M572.982 131.351C560.799 132.81 556.383 132.934 544.576 131.558C501.27 126.51 492.662 93.7185 459.193 73.6713C452.21 69.4883 445.651 66.867 438.037 64.0304C434.827 62.8348 426.174 61.7583 424.773 59.8784L425.245 58.7256C428.772 56.1698 441.123 55.6518 446.037 55.2052C498.883 50.5133 542.482 73.0289 575.241 113.438C577.998 116.839 590.964 129.416 590.858 132.307C588.498 133.373 583.925 130.952 581.591 129.957C578.916 130.486 575.715 130.914 572.982 131.351ZM452.264 57.7103C447.254 57.9909 438.136 58.296 433.608 59.4692C437.364 59.9787 445.504 60.9931 448.764 62.023C487.717 74.3299 540.219 97.8723 573.219 121.005C575.674 122.599 581.144 126.728 583.68 126.285C583.164 124.802 576.671 118.431 575.113 116.771C558.82 99.4075 541.348 81.2033 519.688 70.5869C502.679 62.2508 470.717 55.3612 452.264 57.7103ZM447.184 64.5358C459.834 70.1957 470.838 77.6734 480.981 87.1171C488.285 93.9173 494.876 101.42 502.099 108.313C524.407 129.603 548.393 131.935 577.387 128.235L578.146 127.64C576.737 125.899 572.768 123.947 570.509 122.404C555.665 112.267 543.883 105.89 527.276 97.505C502.458 84.974 474.806 72.1754 447.856 64.5812C447.632 64.5661 447.408 64.5509 447.184 64.5358Z" fill="#D2A3AD"/>
<path d="M433.605 59.4694C438.133 58.2962 447.251 57.9911 452.261 57.7105C470.714 55.3614 502.676 62.251 519.685 70.5871C541.345 81.2035 558.817 99.4078 575.11 116.771C576.668 118.431 583.161 124.802 583.677 126.285C581.141 126.728 575.671 122.599 573.216 121.005C540.216 97.8725 487.714 74.3302 448.761 62.0233C445.501 60.9934 437.361 59.9789 433.605 59.4694Z" fill="#E6DFD5"/>
<path d="M577.387 128.235C548.393 131.935 524.407 129.603 502.099 108.313C494.876 101.42 488.285 93.9174 480.981 87.1172C470.838 77.6735 459.834 70.1958 447.184 64.5359C447.408 64.551 447.632 64.5662 447.856 64.5813C474.806 72.1755 502.458 84.9741 527.276 97.5051C543.883 105.89 555.665 112.267 570.509 122.404C572.768 123.947 576.737 125.899 578.146 127.64L577.387 128.235Z" fill="#E6DFD5"/>
<path d="M344.017 99.3478C335.117 107.779 327.124 117.217 318.048 125.51C299.964 142.037 277.274 148.116 255.251 157.273C248.077 160.255 236.511 169.907 230.173 171.261C228.262 170.111 229.017 164.612 229.171 162.401C229.316 163.718 229.455 165.015 229.575 166.336L230.17 166.449L231.457 165.438C233.109 164.261 237.392 159.537 239.379 157.692C262.187 136.517 289.629 122.25 316.147 106.072L321.998 103.142C323.721 102.22 324.53 101.505 326.075 100.279C326.335 100.204 328.789 99.4694 328.744 99.4744C334.904 98.7948 356.371 83.7698 360.512 84.6154C360.093 86.6315 347.515 95.8578 344.017 99.3478ZM239.781 161.06C236.518 163.694 235.301 164.874 232.615 168.174C235.336 166.222 238.015 164.488 240.228 161.968C250.924 155.062 273.243 147.419 285.495 142.362C313.468 130.815 324.45 115.014 344.79 95.0775C340.119 97.0267 336.668 99.4177 332.29 101.681C326.303 104.776 320.522 107.815 314.637 111.126C290.604 124.651 258.971 140.945 239.781 161.06Z" fill="#EE8AB7"/>
<path d="M239.781 161.06C258.971 140.945 290.604 124.651 314.637 111.126C320.522 107.815 326.303 104.776 332.29 101.681C336.668 99.4178 340.119 97.0268 344.79 95.0776C324.45 115.014 313.468 130.815 285.495 142.362C273.243 147.419 250.924 155.062 240.228 161.968L239.781 161.06Z" fill="#FFCFD2"/>
<path d="M229.17 162.401C229.016 164.612 228.261 170.111 230.172 171.261C236.51 169.907 248.076 160.255 255.25 157.273C277.273 148.116 299.963 142.037 318.047 125.51C327.123 117.217 335.116 107.779 344.016 99.3479C344.325 99.3981 344.634 99.4483 344.944 99.4985C388.156 99.4219 434.848 101.778 473.174 123.912C480.6 128.2 487.296 135.384 493.563 141.28C494.702 142.359 500.073 147.469 501.092 148.07L501.433 148.592C506.095 155.607 512.839 161.935 518.287 168.484C541.447 196.319 565.23 225.755 567.615 263.511C567.831 266.932 567.365 275.196 570.097 276.914C547.096 300.051 530.369 321.157 516.463 350.957C512.139 346.138 510.404 343.157 510.138 336.453C509.409 318.114 507.757 301.488 498.206 285.234C482.9 259.187 460.785 234.817 434.503 219.564C384.162 189.185 330.291 219.775 277.935 201.06C274.353 199.774 269.142 196.769 265.662 196.169C265.314 196.599 264.533 197.242 264.788 197.846C267.477 204.207 272.571 211.068 274.55 217.831C289.646 269.431 317.38 314.671 367.53 338.72C398.002 353.332 439.959 363.441 473.958 359.021C485.853 357.433 495.375 353.845 506.22 349.781C509.028 351.822 510.576 353.253 513.861 354.35L514.685 354.645C509.759 365.588 506.23 375.115 502.101 386.354C466.104 377.406 435.607 365.422 397.057 363.721C321.107 360.37 259.512 409.056 241.319 482.283C241.264 482.541 241.21 482.8 241.155 483.058C238.295 480.777 231.492 473.128 228.893 470.123C206.254 443.957 194.136 420.59 182.754 388.502C198.16 395.486 231.061 407.205 241.299 386.245C238.824 373.825 234.069 365.846 226.637 355.553C211.464 334.537 193.843 323.577 168.253 319.534C168.233 316.724 167.884 313.564 167.769 310.839C165.879 266.1 178.916 223.943 206.44 188.527C213.675 179.218 219.828 168.402 229.259 160.384L229.17 162.401Z" fill="url(#paint0_linear_17_12139)"/>
<path d="M229.261 160.384C230.598 157.373 232.036 152.961 233.058 149.81C240.972 125.423 263.504 111.301 287.192 104.958C299.669 101.618 313.264 101.423 326.076 100.279C324.531 101.505 323.722 102.22 321.999 103.142C295.02 104.456 266.867 109.719 247.057 130.241C244.938 132.436 241.562 137.128 240.281 139.888C235.446 147.116 232.654 156.892 231.458 165.438L230.171 166.449L229.576 166.336C229.456 165.015 229.317 163.718 229.172 162.401L229.261 160.384Z" fill="#D2A3AD"/>
<path d="M321.999 103.142L316.148 106.072C308.169 105.447 288.702 114.893 280.409 117.392C269.386 120.712 257.251 124.847 248.441 132.451C245.791 134.738 244.083 138.075 241.07 140.118L240.281 139.888C241.562 137.128 244.938 132.436 247.057 130.241C266.867 109.719 295.02 104.456 321.999 103.142Z" fill="#E6DFD5"/>
<path d="M240.28 139.888L241.069 140.118C244.082 138.075 245.79 134.738 248.44 132.451C257.25 124.847 269.385 120.712 280.408 117.392C288.701 114.893 308.168 105.447 316.147 106.072C289.629 122.25 262.187 136.517 239.379 157.692C237.392 159.537 233.109 164.261 231.457 165.438C232.653 156.892 235.445 147.116 240.28 139.888Z" fill="#FFCFD2"/>
<path d="M501.094 148.07C507.187 149.361 516.968 154.487 523.272 156.824C543.974 164.498 564.432 168.407 586.5 168.381C626.091 168.335 660.698 151.371 698.503 142.654C769.497 126.285 842.577 150.517 882.103 213.458C925.617 282.317 933.031 361.765 919.714 440.62C911.425 489.703 900.95 536.005 871.001 577.122C867.473 581.966 864.359 586.812 860.319 591.303C847.708 605.864 828.279 623.525 811.89 633.877C803.398 628.16 788.02 627.322 778.17 628.038C785.267 603.687 789.446 590.029 792.815 564.983C846.759 567.526 855.083 541.8 870.956 495.156C879.814 469.128 878.655 431.85 864.707 407.688C844.369 372.456 808.875 339.127 769.348 327.107C728.617 315.516 694.207 327.189 655.017 336.414C636.466 340.781 623.406 340.286 603.718 347.947C587.587 354.223 580.374 358.97 565.467 367.193C560.248 368.907 532.41 377.292 528.464 373.44C528.71 370.679 534.385 365.525 534.249 361.06C535.142 358.746 540.176 351.337 541.822 349.016C557.067 327.513 576.084 307.604 598.236 293.147C603.019 289.662 608.38 287.002 613.637 284.364C623.542 279.395 632.984 277.676 627.267 264.186C623.969 256.404 617.746 249.647 610.026 246.373C593.195 254.887 583.463 264.376 570.099 276.914C567.367 275.196 567.833 266.932 567.617 263.511C565.232 225.755 541.449 196.319 518.289 168.484C512.841 161.935 506.097 155.607 501.435 148.592L501.094 148.07Z" fill="#E5DDF6"/>
<path d="M232.613 168.174C235.299 164.874 236.516 163.694 239.779 161.06L240.226 161.968C238.013 164.488 235.334 166.222 232.613 168.174Z" fill="#F1C0E8"/>
<path d="M449.741 293.739C438.762 288.081 428.375 281.284 417.201 275.981C385.126 260.76 352.159 247.632 320.679 231.14C316.108 228.745 274.767 206.331 274.26 206.285L274.552 207.213C274.598 207.507 274.715 208.432 274.809 208.67C277.186 214.51 279.176 220.664 281.649 226.441C281.682 226.519 282.824 227.095 283.029 227.15L282.498 228.505C283.481 231.862 284.979 236.344 285.535 239.668C294.269 246.162 302.925 252.926 311.915 259.053C341.716 279.361 378.112 270.121 410.977 276.873C411.404 276.553 411.128 276.73 411.937 276.413L412.648 276.14L412.143 274.785C423.381 280.527 438.715 289.422 449.485 294.472C467.737 305.489 492.055 327.99 505.886 344.395C508.283 347.239 512.667 351.232 513.862 354.35C510.577 353.253 509.029 351.822 506.221 349.781C495.376 353.845 485.854 357.433 473.959 359.021C439.96 363.441 398.003 353.332 367.531 338.72C317.381 314.671 289.647 269.431 274.551 217.831C272.572 211.068 267.478 204.207 264.789 197.846C264.534 197.242 265.315 196.599 265.663 196.169C269.143 196.769 274.354 199.774 277.936 201.06C330.292 219.775 384.163 189.185 434.504 219.564C460.786 234.817 482.901 259.187 498.207 285.234C507.758 301.488 509.41 318.114 510.139 336.453C510.405 343.157 512.14 346.138 516.464 350.957C516.105 352.593 516.128 352.475 515.021 353.747C512.422 350.004 494.888 329.223 492.055 326.448C482.685 317.268 461.323 298.806 449.741 293.739ZM295.265 209.486C289.905 208.111 284.428 206.647 279.06 205.347C281.667 206.829 285.068 208.642 287.526 210.231C294.714 215.47 320.356 228.398 329.493 232.858C330.144 234.09 330.643 234.143 331.915 234.786L332.747 234.706C332.836 234.17 332.953 233.827 332.891 233.319C342.939 240.375 351.962 243.628 363.277 248.093C352.979 234.099 339.531 222.363 325.475 212.296C320.553 211.915 314.959 211.313 310.087 211.579L308.28 212.174C305.068 209.899 299.269 209.915 295.265 209.486ZM438.956 231.592C427.35 222.189 411.215 217.251 396.739 214.309C420.534 230.086 434.175 248.352 447.033 273.305C449.1 277.316 454.653 291.95 456.703 293.781C464.497 300.744 474.826 306.617 482.783 314.374C484.458 316.612 485.332 318.267 488.323 318.448C490.357 319.805 498.89 329.561 501.231 331.953C498.883 321.46 494.788 309.38 491.604 298.951C489.971 293.605 485.722 275.586 483.951 271.708C478.139 258.974 454.469 237.779 442.117 232.34C440.84 231.753 440.346 231.779 438.956 231.592ZM287.191 243.256C292.325 255.473 296.734 267.362 306.875 275.962L306.321 276.706L304.599 275.515C304.336 276.809 305.342 278.229 306.163 279.41C312.166 288.041 317.773 296.375 325.723 303.405C329.593 306.827 333.6 309.46 337.342 312.718L337.029 313.228C337.844 314.031 338.797 314.906 339.517 315.774C342.38 320.488 365.409 332.333 371.635 335.295L371.299 336.126L369.651 335.885C371.602 337.453 381.014 341.535 383.153 341.858C404.511 350.28 426.2 355.088 449.128 357.072C466.523 358.578 484.579 355.379 500.728 348.691L500.711 348.287L500.201 345.735C494.557 340.694 488.5 338.779 481.109 341.109C468.114 345.205 457.367 350.225 443.545 350.95C453.349 348.042 462.946 344.854 472.441 341.053C476.789 339.312 480.861 337.881 485.57 337.602C489.575 337.364 492.103 338.329 495.831 339.548C477.571 322.868 468.066 329.403 447.424 337.175C428.235 344.4 406.916 345.944 386.863 341.708L388.078 340.426C405.533 342.645 412.551 342.887 430.774 339.599C446.094 336.836 460.112 327.208 474.925 326.71C478.671 326.584 483.681 328.804 487.109 330.244C483.574 326.687 481.367 324.816 477.336 321.864C477.419 321.029 477.442 320.366 477.476 319.53L476.363 318.676C470.54 313.095 465.623 309.171 458.493 305.465L458.455 303.737C453.722 298.648 423.393 282.689 416.162 280.441C389.054 272.012 358.286 279.964 330.774 270.494C312.504 264.206 302.094 254.558 287.191 243.256ZM364.873 209.212C363.522 209.469 363.665 209.567 362.337 209.282L361.341 209.909L361.312 209.84C368.868 210.35 377.962 210.363 385.116 211.122L386.638 210.791C383.941 207.921 368.848 209.062 364.873 209.212ZM389.618 209.502C392.64 211.392 395.145 211.686 398.591 212.341C409.428 214.401 417.82 216.729 427.743 221.596C430.814 223.102 442.983 229.531 445.106 230.112C429.136 219.109 408.869 211.753 389.618 209.502ZM328.921 212.103C339.057 219.903 348.397 228.052 357.213 237.331C360.647 240.944 363.312 245.681 367.06 248.915C369.248 250.803 412.239 270.897 415.591 271.746C407.198 255.555 370.317 221.941 354.53 211.81C346.235 211.896 337.146 211.798 328.921 212.103ZM358.668 212.071C378.048 227.115 408.521 250.952 419.221 273.48L442.926 286.741C445.682 288.294 450.598 291.422 453.21 292.708C439.687 259.36 422.664 233.524 391.941 213.583C380.98 213.313 369.519 212.018 358.668 212.071ZM488.127 275.967C490.268 288.649 495.048 302.276 498.75 314.646C500.519 320.558 503.02 334.859 506.614 338.742C506.228 319.602 505.005 306.978 496.297 289.196C494.386 285.293 490.988 279.105 488.127 275.967Z" fill="#455359"/>
<path d="M295.264 209.486L287.525 210.231C285.067 208.642 281.666 206.829 279.059 205.347C284.427 206.647 289.904 208.111 295.264 209.486Z" fill="#CBCDCF"/>
<path d="M274.554 207.213L274.262 206.285C274.769 206.331 316.11 228.745 320.681 231.14C352.161 247.632 385.128 260.76 417.203 275.981C428.377 281.284 438.764 288.081 449.743 293.739L449.487 294.472C438.717 289.422 423.383 280.527 412.145 274.785C409.744 273.478 406.929 272.218 404.432 271.079C387.254 263.248 369.681 256.167 352.122 249.256C343.233 245.751 333.463 239.757 324.607 235.724C306.962 227.69 291.132 217.009 274.554 207.213Z" fill="#CBCDCF"/>
<path d="M274.551 207.213C291.129 217.009 306.959 227.69 324.604 235.724C333.46 239.757 343.23 245.751 352.119 249.256L349.434 250.015L348.463 249.642C346.755 248.4 344.077 247.515 342.048 246.716C330.378 241.962 317.444 234.77 306.283 228.811C301.807 226.421 294.77 222.832 290.629 220.143C285.428 216.767 280.389 212.257 274.808 208.67C274.714 208.432 274.597 207.507 274.551 207.213Z" fill="url(#paint1_linear_17_12139)"/>
<path d="M274.809 208.67C280.39 212.257 285.429 216.767 290.63 220.143C294.771 222.832 301.808 226.421 306.284 228.811C317.445 234.77 330.379 241.962 342.049 246.716L341.501 248.245C327.227 245.086 311.466 242.759 298.011 236.936C292.777 234.671 288.627 229.388 283.029 227.15C282.824 227.095 281.682 226.519 281.649 226.441C279.176 220.664 277.186 214.51 274.809 208.67Z" fill="#FFCFD2"/>
<path d="M385.116 211.122C377.962 210.363 368.869 210.35 361.312 209.84L361.341 209.909L362.337 209.282C363.665 209.567 363.522 209.469 364.873 209.212C368.848 209.062 383.941 207.921 386.638 210.791L385.116 211.122Z" fill="#ABECE0"/>
<path d="M287.527 210.231L295.266 209.486C299.27 209.915 305.069 209.899 308.281 212.174C313.283 216.769 326.483 227.843 329.494 232.858C320.357 228.398 294.715 215.47 287.527 210.231Z" fill="#ABECE0"/>
<path d="M445.105 230.112C442.982 229.531 430.813 223.102 427.742 221.596C417.819 216.729 409.427 214.401 398.59 212.341C395.144 211.686 392.639 211.392 389.617 209.502C408.868 211.753 429.135 219.109 445.105 230.112Z" fill="#ABECE0"/>
<path d="M308.281 212.174L310.088 211.579C318.568 218.784 324.983 226.205 332.892 233.319C332.954 233.827 332.837 234.17 332.748 234.706L331.916 234.786C330.644 234.143 330.145 234.09 329.494 232.858C326.483 227.843 313.283 216.769 308.281 212.174Z" fill="#3C5955"/>
<path d="M310.086 211.579C314.958 211.313 320.552 211.915 325.474 212.296C339.53 222.363 352.978 234.099 363.276 248.093C351.961 243.628 342.938 240.375 332.89 233.319C324.981 226.205 318.566 218.784 310.086 211.579Z" fill="#98F5E1"/>
<path d="M415.592 271.746C412.24 270.897 369.249 250.803 367.061 248.915C363.313 245.681 360.648 240.944 357.214 237.331C348.398 228.052 339.058 219.903 328.922 212.103C337.147 211.798 346.236 211.896 354.531 211.81C370.318 221.941 407.199 255.555 415.592 271.746Z" fill="#98F5E1"/>
<path d="M419.221 273.48C408.521 250.952 378.048 227.115 358.668 212.071C369.519 212.018 380.98 213.313 391.941 213.583C422.664 233.524 439.687 259.36 453.21 292.708C450.598 291.422 445.682 288.294 442.926 286.741L419.221 273.48Z" fill="#98F5E1"/>
<path d="M396.738 214.309C411.214 217.251 427.349 222.189 438.955 231.592C462.907 255.564 465.084 267.599 475.806 299.064C477.337 303.555 481.637 310.522 482.782 314.374C474.825 306.617 464.496 300.744 456.702 293.781C454.652 291.95 449.099 277.316 447.032 273.305C434.174 248.352 420.533 230.086 396.738 214.309Z" fill="#98F5E1"/>
<path d="M282.496 228.505L283.027 227.15C288.625 229.388 292.775 234.671 298.009 236.936C311.464 242.759 327.225 245.086 341.499 248.245C343.591 248.68 346.409 249.36 348.462 249.642L349.433 250.015C350.54 250.933 350.91 251.172 351.868 252.269C335.086 249.444 315.603 244.962 299.394 239.488C293.835 237.611 288.3 230.23 282.496 228.505Z" fill="#53495F"/>
<path d="M285.533 239.668C284.977 236.344 283.479 231.862 282.496 228.505C288.3 230.23 293.835 237.611 299.394 239.488C315.603 244.962 335.086 249.444 351.868 252.269C364.41 257.479 377.862 261.096 390.137 267.294C395.85 270.178 406.077 273.191 410.975 276.873C378.11 270.121 341.714 279.361 311.913 259.053C302.923 252.926 294.267 246.162 285.533 239.668Z" fill="#FFCFD2"/>
<path d="M438.957 231.592C440.347 231.779 440.841 231.753 442.118 232.34C460.724 248.574 466.551 265.446 474.246 288.021C478.142 299.448 481.316 308.422 488.324 318.448C485.333 318.267 484.459 316.612 482.784 314.374C481.639 310.522 477.339 303.555 475.808 299.064C465.086 267.599 462.909 255.564 438.957 231.592Z" fill="#3C5955"/>
<path d="M442.117 232.34C454.469 237.779 478.139 258.974 483.951 271.708C485.722 275.586 489.971 293.605 491.604 298.951C494.788 309.38 498.883 321.46 501.231 331.953C498.89 329.561 490.357 319.805 488.323 318.448C481.315 308.422 478.141 299.448 474.245 288.021C466.55 265.446 460.723 248.574 442.117 232.34Z" fill="#98F5E1"/>
<path d="M306.875 275.962C296.734 267.362 292.325 255.473 287.191 243.256C302.094 254.558 312.504 264.206 330.774 270.494C358.286 279.964 389.054 272.012 416.162 280.441C423.393 282.689 453.722 298.648 458.455 303.737C448.606 300.599 440.514 294.961 428.762 293.728C418.156 292.615 406.059 293.21 395.532 294.819C356.375 300.803 339.207 297.447 306.875 275.962Z" fill="#FFCFD2"/>
<path d="M342.048 246.716C344.077 247.515 346.755 248.4 348.463 249.642C346.41 249.36 343.592 248.68 341.5 248.245L342.048 246.716Z" fill="#F1C0E8"/>
<path d="M570.099 276.914C583.463 264.376 593.195 254.887 610.026 246.373C617.746 249.647 623.969 256.404 627.267 264.186C632.984 277.676 623.542 279.395 613.637 284.364C608.38 287.002 603.019 289.662 598.236 293.147C576.084 307.604 557.067 327.513 541.822 349.016C540.176 351.337 535.142 358.746 534.249 361.06C528.826 369.093 524.616 379.837 520.889 388.873C531.608 389.767 542.086 388.929 552.641 386.917C596.174 380.016 638.091 364.226 682.004 377.001C761.993 400.272 801.312 486.936 792.815 564.983C789.446 590.029 785.267 603.687 778.17 628.038C757.861 700.018 696.972 809.261 639.527 857.148C607.873 881.859 580.989 884.871 543.397 870.021C512.208 857.7 496.106 865.357 466.93 876.756C453.305 881.149 439.059 884.928 424.768 881.193C375.115 868.218 312.464 770.739 286.599 727.032C274.493 709.137 257.36 668.089 251.773 647.441C249.9 642.145 247.517 633.123 246.099 627.694C238.533 598.716 231.156 562.49 233.449 532.396C233.75 518.495 237.284 496.356 241.157 483.058C241.212 482.8 241.266 482.541 241.321 482.283C259.514 409.056 321.109 360.37 397.059 363.721C435.609 365.422 466.106 377.406 502.103 386.354C506.232 375.115 509.761 365.588 514.687 354.645L515.022 353.747C516.129 352.475 516.106 352.593 516.465 350.957C530.371 321.157 547.098 300.051 570.099 276.914ZM352.652 373.496C346.521 375.005 341.12 376.66 335.247 378.995C270.024 404.922 243.447 465.428 238.781 531.576C237.274 555.598 241.674 582.392 246.587 605.781C255.54 648.404 270.699 692.24 293.823 729.462C315.005 763.557 339.821 799.708 366.008 830.24C381.825 848.68 408.54 875.439 433.877 877.571C451.073 878.5 463.462 872.557 478.968 866.932C508.072 856.459 517.11 855.751 547.962 865.99C552.974 867.653 564.324 871.694 569.08 872.208C570.366 872.683 573.072 873.122 574.507 873.286C598.502 876.025 614.406 870.223 633.191 855.874C655.074 839.388 697.367 787.497 709.672 762.951C715.574 754.642 724.828 738.009 729.702 728.907C754.764 682.107 780.779 619.014 787.419 565.943C787.809 561.079 788.156 556.254 788.403 551.385C791.829 483.878 756.701 411.595 691.267 386.424C631.35 363.376 578.858 397.284 519.215 394.866C516.642 403.212 515.117 414.08 513.96 422.759C513.37 427.181 512.871 436.759 511.666 440.496L510.583 440.418C509.478 424.145 511.293 410.075 514.82 394.192L506.655 393.074C504.342 403.132 502.817 411.352 501.756 421.66C501.142 427.635 500.938 436.702 499.897 442.197C497.444 441.933 499.178 441.535 496.752 441.338C494.46 437.377 489.898 432.9 486.847 429.276C479.873 420.993 473.655 411.029 470.081 400.805C474.471 404.955 479.859 414.842 483.773 420.216C487.537 425.383 491.071 429.807 495.098 434.795C495.915 417.877 497.181 408.565 500.563 391.843C485.49 388.942 471.266 383.858 456.564 379.891C419.905 370.001 390.085 366.089 352.652 373.496ZM608.602 250.905C605.941 252.935 603.288 255.025 600.603 257.016C556.57 289.689 523.432 334.15 507.651 387.115C510.24 387.496 514.08 387.958 516.524 388.505L518.456 382.532C535.281 341.425 562.352 309.947 599.665 285.545C607.425 280.47 616.307 277.664 623.421 273.368C621.404 263.831 617.823 255.522 608.602 250.905Z" fill="url(#paint2_linear_17_12139)"/>
<path d="M352.119 249.256C369.678 256.167 387.251 263.248 404.429 271.079C406.926 272.218 409.741 273.478 412.142 274.785L412.647 276.14L411.936 276.413C411.127 276.73 411.403 276.553 410.976 276.873C406.078 273.191 395.851 270.178 390.138 267.294C377.863 261.096 364.411 257.479 351.869 252.269C350.911 251.172 350.541 250.933 349.434 250.015L352.119 249.256Z" fill="url(#paint3_linear_17_12139)"/>
<path d="M507.648 387.115C523.429 334.15 556.567 289.689 600.6 257.016C603.285 255.025 605.938 252.935 608.599 250.905C617.82 255.522 621.401 263.831 623.418 273.368C616.304 277.664 607.422 280.47 599.662 285.545C562.349 309.947 535.278 341.425 518.453 382.532L516.521 388.505C514.077 387.958 510.237 387.496 507.648 387.115Z" fill="#CFBAF0"/>
<path d="M337.34 312.718C333.598 309.46 329.591 306.827 325.721 303.405C317.771 296.375 312.164 288.041 306.161 279.41C305.34 278.229 304.334 276.809 304.597 275.515L306.319 276.706C334.076 300.818 365.9 303.192 400.17 296.614C422.824 292.266 437.786 296.728 458.491 305.465C465.621 309.171 470.538 313.095 476.361 318.676C470.109 316.293 462.621 313.393 455.905 313.068C440.565 312.326 424.182 318.926 409.1 322.215C394.367 325.427 386.474 326.292 371.493 325.971C354.993 323.984 351.18 321.182 337.34 312.718Z" fill="#FFCFD2"/>
<path d="M306.874 275.962C339.206 297.447 356.374 300.803 395.531 294.819C406.058 293.21 418.155 292.615 428.761 293.728C440.513 294.961 448.605 300.599 458.454 303.737L458.492 305.465C437.787 296.728 422.825 292.266 400.171 296.614C365.901 303.192 334.077 300.818 306.32 276.706L306.874 275.962Z" fill="url(#paint4_linear_17_12139)"/>
<path d="M506.616 338.742C503.022 334.859 500.521 320.558 498.752 314.646C495.05 302.276 490.27 288.649 488.129 275.967C490.99 279.105 494.388 285.293 496.299 289.196C505.007 306.978 506.23 319.602 506.616 338.742Z" fill="#98F5E1"/>
<path d="M449.484 294.472L449.74 293.739C461.322 298.806 482.684 317.268 492.054 326.448C494.887 329.223 512.421 350.004 515.02 353.747L514.685 354.645L513.861 354.35C512.666 351.232 508.282 347.239 505.885 344.395C492.054 327.99 467.736 305.489 449.484 294.472Z" fill="#98F5E1"/>
<path d="M339.515 315.774C338.795 314.906 337.842 314.031 337.027 313.228L337.34 312.718C351.18 321.182 354.993 323.984 371.493 325.971L371.498 327.161C357.668 325.988 351.09 321.599 339.515 315.774Z" fill="#4A4C5A"/>
<path d="M371.496 325.971C386.477 326.292 394.37 325.427 409.103 322.215C424.185 318.926 440.568 312.326 455.908 313.068C462.624 313.393 470.112 316.293 476.364 318.676L477.477 319.53C477.443 320.366 477.42 321.029 477.337 321.864C459.479 312.037 447.339 314.782 428.331 319.603C410.469 324.134 389.944 329.564 371.501 327.161L371.496 325.971Z" fill="#4A4C5A"/>
<path d="M339.516 315.774C351.091 321.599 357.669 325.988 371.499 327.161C389.942 329.564 410.467 324.134 428.329 319.603C447.337 314.782 459.477 312.037 477.335 321.864C481.366 324.816 483.573 326.687 487.108 330.244C483.68 328.804 478.67 326.584 474.924 326.71C460.111 327.208 446.093 336.836 430.773 339.599C412.55 342.887 405.532 342.645 388.077 340.426C382.451 339.296 376.996 337.301 371.634 335.295C365.408 332.333 342.379 320.488 339.516 315.774Z" fill="#FFCFD2"/>
<path d="M182.753 388.502C166.799 379.018 138.83 357.33 139.573 335.98C140.136 319.797 155.195 317.852 168.252 319.534C193.842 323.577 211.463 334.537 226.636 355.553C234.068 365.846 238.823 373.825 241.298 386.245C231.06 407.205 198.159 395.486 182.753 388.502Z" fill="#8EECF5"/>
<path d="M565.467 367.193C580.374 358.97 587.587 354.223 603.718 347.947C623.406 340.286 636.466 340.781 655.017 336.414C694.207 327.189 728.617 315.516 769.348 327.107C808.875 339.127 844.369 372.456 864.707 407.688C878.655 431.85 879.814 469.128 870.956 495.156C855.083 541.8 846.759 567.526 792.815 564.983C801.312 486.936 761.993 400.272 682.004 377.001C638.091 364.226 596.174 380.016 552.641 386.917C553.521 381.554 561.68 371.143 565.467 367.193Z" fill="#A3C4F3"/>
<path d="M383.152 341.858L386.122 341.491L386.862 341.708C406.915 345.944 428.234 344.4 447.423 337.175C468.065 329.403 477.57 322.868 495.83 339.548C492.102 338.329 489.574 337.364 485.569 337.602C480.86 337.881 476.788 339.312 472.44 341.053C462.945 344.854 453.348 348.042 443.544 350.95C457.366 350.225 468.113 345.205 481.108 341.109C488.499 338.779 494.556 340.694 500.2 345.735C487.101 344.773 482.692 346.55 471.401 352.871C478.61 350.915 493.473 346.224 500.71 348.287L500.727 348.691C484.578 355.379 466.522 358.578 449.127 357.072C426.199 355.088 404.51 350.28 383.152 341.858Z" fill="url(#paint5_linear_17_12139)"/>
<path d="M383.154 341.858C381.015 341.535 371.603 337.453 369.652 335.885L371.3 336.126C376.04 338.128 381.169 340.064 386.124 341.491L383.154 341.858Z" fill="#CBCDCF"/>
<path d="M371.301 336.126L371.637 335.295C376.999 337.301 382.454 339.296 388.08 340.426L386.865 341.708L386.125 341.491C381.17 340.064 376.041 338.128 371.301 336.126Z" fill="#162220"/>
<path d="M500.201 345.735L500.711 348.287C493.474 346.224 478.611 350.915 471.402 352.871C482.693 346.55 487.102 344.773 500.201 345.735Z" fill="#4A4C5A"/>
<path d="M520.887 388.873C524.614 379.837 528.824 369.093 534.247 361.06C534.383 365.525 528.708 370.679 528.462 373.44C532.408 377.292 560.246 368.907 565.465 367.193C561.678 371.143 553.519 381.554 552.639 386.917C542.084 388.929 531.606 389.767 520.887 388.873Z" fill="#CFBAF0"/>
<path d="M352.652 373.496C390.085 366.089 419.905 370.001 456.564 379.891C471.266 383.858 485.49 388.942 500.563 391.843C497.181 408.565 495.915 417.877 495.098 434.795C491.071 429.807 487.537 425.383 483.773 420.216C479.859 414.842 474.471 404.955 470.081 400.805C473.655 411.029 479.873 420.993 486.847 429.276C489.898 432.9 494.46 437.377 496.752 441.338C482.62 441.631 444.142 425.66 429.396 419.671C423.927 417.45 407.497 407 404.797 406.988C401.857 415.384 459.727 436.019 467.514 438.625L466.852 439.132C460.335 444.074 453.024 447.76 446.501 452.894C418.255 475.127 407.418 501.447 398.262 535.335C396.27 542.708 393.634 561.417 392.068 565.598C359.208 547.764 322.189 537.223 285.328 531.838C287.839 489.717 310.028 432.208 351.42 415.732C353.806 414.782 357.785 413.739 359.7 412.415L359.451 411.595L358.417 411.084C347.684 412.441 330.539 424.479 322.308 431.4C321.577 430.621 321.197 430.022 320.581 429.16C319.772 419.75 356.679 406.527 350.227 394.884C356.52 392.964 362.163 391.652 368.601 390.63C371.441 390.179 379.068 389.211 381.103 387.919C381.184 386.259 381.427 386.968 380.39 385.708C377.436 384.918 357.116 389.722 353.452 390.763C352.459 386.84 353.048 378.572 352.652 373.496ZM450.077 398.411C451.612 403.685 467.375 429.431 473.653 432.46C474.978 433.099 476.154 433.293 477.642 433.412C475.664 430.745 471.349 425.761 469.151 422.941C465.419 418.153 454.71 399.407 450.077 398.411ZM422.443 398.801C430.233 408.061 449.832 427.154 461.652 430.006C458.295 426.44 447.589 419.266 443.006 415.52C439.479 412.637 425.006 399.544 422.443 398.801ZM340.775 446.43C326.793 453.967 317.583 475.314 313.253 489.75C311.799 494.598 308.862 504.729 309.729 509.436C310.54 510.472 310.306 510.241 311.338 511.109C314.072 508.556 313.405 505.645 314.093 502.034C317.343 484.974 323.019 467.339 334.679 454.073C336.295 452.228 341.1 448.52 341.794 447.015C340.986 446.448 341.355 446.58 340.775 446.43Z" fill="#98F5E1"/>
<path d="M238.781 531.576C243.447 465.428 270.024 404.922 335.247 378.995C341.12 376.66 346.521 375.005 352.652 373.496C353.048 378.572 352.459 386.84 353.452 390.763C330.146 396.823 303.431 415.336 288.899 434.484C269.974 459.421 257.44 500.146 255.258 531.508L238.781 531.576Z" fill="#98F5E1"/>
<path d="M511.666 440.496C512.871 436.759 513.37 427.181 513.96 422.759C515.117 414.08 516.642 403.212 519.215 394.866C578.858 397.284 631.35 363.376 691.267 386.424C756.701 411.595 791.829 483.878 788.403 551.385C788.156 556.254 787.809 561.079 787.419 565.943C783.826 564.174 777.898 563.958 773.849 562.652C745.816 553.613 721.071 535.936 696.993 519.394C676.292 505.104 650.201 492.045 625.273 487.339C581.752 479.123 535.01 473.654 495.917 451.314C492.214 449.198 486.86 447.129 484.402 443.655C518.926 449.79 555.855 451.022 586.704 431.385C602.646 421.237 620.199 408.276 639.119 404.413C642.04 403.817 644.829 403.582 647.776 402.811C645.353 402.135 639.716 402.619 637.155 402.87C608.607 406.147 592.588 427.543 565.72 436.657C552.437 441.163 527.478 444.632 512.227 442.563C511.648 442.484 511.738 441.174 511.666 440.496ZM664.762 399.178L665.566 399.531C668.615 400.846 673.615 402.395 676.866 403.404C730.208 419.949 760.356 477.671 766.249 530.123C766.788 534.929 767.49 540.283 768.282 545.05C772.473 483.724 731.603 404.846 664.762 399.178ZM591.928 401.035C586.409 405.961 580.24 414.007 574.907 419.687C569.628 425.308 566.598 426.699 561.76 431.01L561.978 431.403C575.931 425.763 583.947 414.104 592.054 402.001L592.094 401.176L591.928 401.035ZM573.789 402.915C567.643 407.892 560.582 415.808 554.626 421.447C549.417 426.379 543.975 430.36 538.925 435.011C539.04 435.224 539.155 435.437 539.27 435.651C552.294 429.507 559.342 423.015 568.465 411.817C570.167 409.729 573.321 405.86 574.234 403.442L573.789 402.915ZM547.75 406.357C541.201 412.001 535.831 419.425 529.083 424.927C527.32 426.364 525.528 427.715 523.859 429.259C523.976 429.513 524.035 429.823 524.249 430.004C530.71 426.686 546.54 413.468 548.273 406.926L547.75 406.357ZM689.138 430.403C709.494 445.841 725.539 469.304 736.118 492.575C737.591 495.815 742.384 510.495 743.919 512.118C738.505 483.199 722.12 453.626 698.209 435.23C696.438 433.868 691.344 430.856 689.138 430.403ZM710.245 470.759C714.376 479.229 718.067 486.602 721.662 495.308C723.406 499.531 728.654 516.244 730.394 519.126C729.299 506.817 724.963 494.503 719.354 483.556C717.709 480.346 713.271 472.508 710.245 470.759Z" fill="#8EECF5"/>
<path d="M353.452 390.763C357.116 389.722 377.436 384.918 380.39 385.708C381.427 386.968 381.184 386.259 381.103 387.919C379.068 389.211 371.441 390.179 368.601 390.63C362.163 391.652 356.52 392.964 350.227 394.884C314.914 408.856 290.401 431.292 275.223 466.408C267.477 484.328 261.026 511.062 259.753 530.603C259.041 537.263 259.151 545.607 259.329 552.236C261.073 617.271 284.248 681.343 318.841 735.982C324.124 744.327 328.823 753.226 334.759 761.194C336.879 764.21 347.557 778.165 348.552 780.172L348.642 782.292L346.82 780.209C305.479 732.582 275.939 674.126 261.423 612.73C254.966 585.417 253.315 559.501 255.258 531.508C257.44 500.146 269.974 459.421 288.899 434.484C303.431 415.336 330.146 396.823 353.452 390.763Z" fill="#3C5955"/>
<path d="M514.818 394.192C511.291 410.075 509.476 424.145 510.581 440.418L510.388 441.996C508.236 443.567 502.853 442.176 499.895 442.197C500.936 436.702 501.14 427.635 501.754 421.66C502.815 411.352 504.34 403.132 506.653 393.074L514.818 394.192Z" fill="#8EECF5"/>
<path d="M259.754 530.603C261.027 511.062 267.478 484.328 275.224 466.408C290.402 431.292 314.915 408.856 350.228 394.884C356.68 406.527 319.773 419.75 320.582 429.16C321.198 430.022 321.578 430.621 322.309 431.4C297.573 455.796 283.592 497.27 280.837 531.429C277.177 531.258 262.118 531.251 259.754 530.603Z" fill="#98F5E1"/>
<path d="M477.639 433.412C476.151 433.293 474.975 433.099 473.65 432.46C467.372 429.431 451.609 403.685 450.074 398.411C454.707 399.407 465.416 418.153 469.148 422.941C471.346 425.761 475.661 430.745 477.639 433.412Z" fill="#455359"/>
<path d="M461.65 430.006C449.83 427.154 430.231 408.061 422.441 398.801C425.004 399.544 439.477 412.637 443.004 415.52C447.587 419.266 458.293 426.44 461.65 430.006Z" fill="#3C5955"/>
<path d="M768.282 545.05C767.49 540.283 766.788 534.929 766.249 530.123C760.356 477.671 730.208 419.949 676.866 403.404C673.615 402.395 668.615 400.846 665.566 399.531L664.762 399.178C731.603 404.846 772.473 483.724 768.282 545.05Z" fill="#455359"/>
<path d="M561.976 431.403L561.758 431.01C566.596 426.699 569.626 425.308 574.905 419.687C580.238 414.007 586.407 405.961 591.926 401.035L592.092 401.176L592.052 402.001C583.945 414.104 575.929 425.763 561.976 431.403Z" fill="#455359"/>
<path d="M467.513 438.625C459.726 436.019 401.856 415.384 404.796 406.988C407.496 407 423.926 417.45 429.395 419.671C444.141 425.66 482.619 441.631 496.751 441.338C499.177 441.535 497.443 441.933 499.896 442.197C502.854 442.176 508.237 443.567 510.389 441.996L510.582 440.418L511.665 440.496C511.737 441.174 511.647 442.484 512.226 442.563C527.477 444.632 552.436 441.163 565.719 436.657C592.587 427.543 608.606 406.147 637.154 402.87C639.715 402.619 645.352 402.135 647.775 402.811C644.828 403.582 642.039 403.817 639.118 404.413C620.198 408.276 602.645 421.237 586.703 431.385C555.854 451.022 518.925 449.79 484.401 443.655C478.623 442.054 473.229 440.44 467.513 438.625Z" fill="#455359"/>
<path d="M539.271 435.651C539.156 435.437 539.041 435.224 538.926 435.011C543.976 430.36 549.418 426.379 554.627 421.447C560.583 415.808 567.644 407.892 573.79 402.915L574.235 403.442C573.322 405.86 570.168 409.729 568.466 411.817C559.343 423.015 552.295 429.507 539.271 435.651Z" fill="#455359"/>
<path d="M524.249 430.004C524.035 429.823 523.976 429.513 523.859 429.259C525.528 427.715 527.32 426.364 529.083 424.927C535.831 419.425 541.201 412.001 547.75 406.357L548.273 406.926C546.54 413.468 530.71 426.686 524.249 430.004Z" fill="#455359"/>
<path d="M322.306 431.4C330.537 424.479 347.682 412.441 358.415 411.084L359.449 411.595L359.698 412.415C357.783 413.739 353.804 414.782 351.418 415.732C310.026 432.208 287.837 489.717 285.326 531.838C285.016 534.233 284.952 536.973 284.844 539.431C282.744 587.127 293.208 636.222 324.371 673.577C327.878 677.781 331.736 681.985 334.676 686.466L335.11 687.135C329.474 682.994 322.59 676.044 318.159 670.757C287.114 633.718 276.698 578.628 280.834 531.429C283.589 497.27 297.57 455.796 322.306 431.4Z" fill="#3C5955"/>
<path d="M743.918 512.118C742.383 510.495 737.59 495.815 736.117 492.575C725.538 469.304 709.493 445.841 689.137 430.403C691.343 430.856 696.437 433.868 698.208 435.23C722.119 453.626 738.504 483.199 743.918 512.118Z" fill="url(#paint6_linear_17_12139)"/>
<path d="M467.512 438.625C473.228 440.44 478.622 442.054 484.4 443.655C486.858 447.129 492.212 449.198 495.915 451.314C535.008 473.654 581.75 479.123 625.271 487.339C650.199 492.045 676.29 505.104 696.991 519.394C721.069 535.936 745.814 553.613 773.847 562.652C777.896 563.958 783.824 564.174 787.417 565.943C780.777 619.014 754.762 682.107 729.7 728.907C724.826 738.009 715.572 754.642 709.67 762.951C709.353 763.034 709.036 763.116 708.719 763.199C704.15 769.767 696.504 781.931 692.084 787.987C677.96 807.339 664.752 825.601 647.121 841.89C645.915 843.004 642.797 846.177 641.485 847.249C641.489 847.246 637.614 846.552 637.099 846.685C635.718 847.041 634.088 848.225 632.853 848.9C626.873 852.166 620.722 856.334 616.715 862.021C615.154 862.941 595.916 872.237 594.94 872.417C590.154 873.301 574.06 873.075 569.977 871.647C569.178 872.019 569.434 871.776 569.078 872.208C564.322 871.694 552.972 867.653 547.96 865.99C517.108 855.751 508.07 856.459 478.966 866.932C479.694 863.053 484.103 862.726 485.431 858.256C490.339 850.392 492.863 822.164 495.407 811.753C496.691 806.503 495.845 791.436 496.137 785.156C500.013 701.68 467.893 609.343 392.16 565.906L392.066 565.598C393.632 561.417 396.268 542.708 398.26 535.335C407.416 501.447 418.253 475.127 446.499 452.894C453.022 447.76 460.333 444.074 466.85 439.132L467.512 438.625ZM744.667 588.315C744.217 591.701 743.799 594.687 743.627 598.104C741.183 610.938 739.821 623.716 737.099 636.917C729.315 674.672 716.245 706.783 694.892 738.853C690.837 744.943 687.37 751.003 682.952 757.074C691.292 749.542 697.85 739.544 704.12 730.147C727.807 694.645 741.802 651.782 744.795 609.279C744.924 607.451 745.006 604.915 744.996 603.058C745.031 597.919 745.097 593.459 744.667 588.315ZM755.279 625.106C755.636 622.874 755.914 620.7 756.198 618.462L755.713 618.269L756.161 618.889L756.158 617.524C756.141 618.019 756.123 618.514 756.105 619.009L755.637 618.35L754.208 624.197C749.547 644.05 742.545 663.451 735.827 682.656C734.116 687.546 728.49 699.722 727.818 702.73C728.665 702.146 732.321 694.609 733.037 693.232C740.869 678.158 746.882 663.161 750.85 646.639C752.574 639.463 753.627 632.025 755.279 625.106ZM674.792 779.91C671.618 784.901 668.995 790.388 665.786 795.231C652.402 815.434 635.782 833.305 615.906 847.258C614.351 848.349 607.774 852.846 607.474 854.102C630.594 841.76 649.539 827.335 663.531 804.65C666.329 800.114 675.274 784.956 674.792 779.91ZM652.22 786.88C639.653 812.13 616.918 832.374 593.286 847.219C591.18 848.543 575.594 856.333 575.474 857.002C583.501 853.955 597.582 848.916 604.69 844.444C621.792 833.686 640.641 812.417 649.936 793.981C650.78 792.306 652.381 788.561 652.22 786.88Z" fill="#ABECE0"/>
<path d="M311.336 511.109C310.304 510.241 310.538 510.472 309.727 509.436C308.86 504.729 311.797 494.598 313.251 489.75C317.581 475.314 326.791 453.967 340.773 446.43C341.353 446.58 340.984 446.448 341.792 447.015C341.098 448.52 336.293 452.228 334.677 454.073C323.017 467.339 317.341 484.974 314.091 502.034C313.403 505.645 314.07 508.556 311.336 511.109Z" fill="#455359"/>
<path d="M147.772 485.17C140.216 487.348 132.315 483.037 130.057 475.504C127.799 467.972 132.027 460.025 139.535 457.688C144.463 456.153 149.836 457.385 153.604 460.912C157.372 464.44 158.954 469.72 157.748 474.738C156.541 479.757 152.732 483.741 147.772 485.17Z" fill="#B9FBC0"/>
<path d="M730.391 519.126C728.651 516.244 723.403 499.531 721.659 495.308C718.064 486.602 714.373 479.229 710.242 470.759C713.268 472.508 717.706 480.346 719.351 483.556C724.96 494.503 729.296 506.817 730.391 519.126Z" fill="#455359"/>
<path d="M189.795 492.239C179.457 491.254 179.273 479.446 189.732 476.573C198.023 478.373 201.007 490.409 189.795 492.239Z" fill="#B9FBC0"/>
<path d="M121.2 538.684C114.968 540.556 108.391 537.061 106.455 530.849C104.519 524.636 107.947 518.023 114.139 516.024C116.379 515.301 118.783 515.26 121.046 515.907C126.112 517.354 129.616 521.968 129.652 527.237C129.688 532.506 126.247 537.168 121.2 538.684Z" fill="#B9FBC0"/>
<path d="M199.505 537.202L196.597 538.221C193.198 536.641 189.006 534.358 188.485 530.253C187.998 525.677 192.623 522.369 196.759 522.244C201.294 522.107 204.082 525.849 204.042 530.12C204.012 533.219 201.581 535.245 199.505 537.202Z" fill="#B9FBC0"/>
<path d="M348.552 780.172C347.557 778.165 336.879 764.21 334.759 761.194C328.823 753.226 324.124 744.327 318.841 735.982C284.248 681.343 261.073 617.271 259.329 552.236C259.151 545.607 259.041 537.263 259.753 530.603C262.117 531.251 277.176 531.258 280.836 531.429C276.7 578.628 287.116 633.718 318.161 670.757C322.592 676.044 329.476 682.994 335.112 687.135L334.678 686.466C331.738 681.985 327.88 677.781 324.373 673.577C293.21 636.222 282.746 587.127 284.846 539.431C284.954 536.973 285.018 534.233 285.328 531.838C322.189 537.223 359.208 547.764 392.068 565.598L392.162 565.906C389.492 586.683 387.686 608.325 388.079 629.279C388.202 635.804 389.383 644.08 389.983 650.725C393.412 688.717 404.954 725.124 418.343 760.648C421.441 768.867 425.601 777.937 429.329 786.249C435.978 801.074 443.289 820.911 452.289 834.229C459.175 844.42 472.637 857.426 485.433 858.256C484.105 862.726 479.696 863.053 478.968 866.932C463.462 872.557 451.073 878.5 433.877 877.571C408.54 875.439 381.825 848.68 366.008 830.24C339.821 799.708 315.005 763.557 293.823 729.462C270.699 692.24 255.54 648.404 246.587 605.781C241.674 582.392 237.274 555.598 238.781 531.576L255.258 531.508C253.315 559.501 254.966 585.417 261.423 612.73C275.939 674.126 305.479 732.582 346.82 780.209L348.642 782.292C354.257 788.623 359.946 795.342 366.452 800.726L366.601 800.447C363.027 795.482 353.3 785.622 348.552 780.172ZM338.29 731.736C343.093 742.336 349.66 751.86 356.314 762.538C375.652 793.569 396.585 827.231 429.447 845.599C429.938 845.873 430.977 845.993 431.446 846.062C431.126 845.23 430.688 844.249 429.958 843.681C410.381 828.48 395.743 813.071 381.211 793.499C373.831 783.56 344.794 735.692 338.29 731.736ZM382.208 755.305C382.49 759.787 385.539 766.293 387.496 770.354C396.76 789.572 409.958 806.776 425.791 821.049C430.807 825.571 436.082 831.4 441.637 835.129C440.414 830.885 432.534 823.151 429.277 820.067C415.342 806.871 403.63 794.665 394.643 777.534C392.931 774.271 383.957 756.806 382.208 755.305Z" fill="#B9FBC0"/>
<path d="M199.503 537.202C202.472 537.77 228.38 533.237 233.448 532.396C231.155 562.49 238.532 598.716 246.098 627.694C247.516 633.123 249.899 642.145 251.772 647.441C238.382 654.541 231.497 658.937 226.655 674.068C219.404 696.725 225.349 728.231 250.334 736.827C264.175 741.589 276.185 735.494 286.598 727.032C312.463 770.739 375.114 868.218 424.767 881.193C439.058 884.928 453.304 881.149 466.929 876.756C465.656 881.36 456.811 882.058 452.372 885.587C448.559 886.201 443.269 889.741 439.466 891.428C387.646 914.425 327.416 924.024 270.935 919.731C266.305 919.379 248.252 914.145 245.94 914.77C243.204 913.861 239.086 912.081 236.289 910.981L236.548 910.345C210.728 897.68 190.441 879.983 169.477 860.489C163.817 855.225 158.786 848.731 153.628 842.974C148.873 837.668 144.176 832.216 139.519 826.825C100.438 777.719 74.1001 718.199 86.8215 654.44C96.309 606.889 122.66 572.693 165.768 550.311C170.012 548.107 174.453 546.188 178.921 544.492C184.07 542.478 192.305 541.457 196.595 538.221L199.503 537.202ZM172.616 553.92C170.203 559.186 172.193 565.262 178.583 562.954C182.515 557.623 178.413 553.732 172.616 553.92ZM205.972 578.022C196.285 584.682 200.401 594.016 210.928 594.093C219.486 588.911 216.758 577.423 205.972 578.022ZM121.932 626.578C113.058 632.247 115.356 645.056 126.657 643.744C131.901 640.842 134.966 636.327 131.29 630.131C129.121 626.473 125.863 626.334 121.932 626.578ZM176.507 646.085C173.387 646.917 170.553 647.722 167.926 649.682C152.702 661.047 145.41 693.475 164.221 704.891C169.14 707.877 176.582 707.436 181.874 705.802C191.913 701.415 198.792 694.577 202.964 684.335C208.542 670.644 204.897 652.713 189.655 647.224C185.128 645.593 181.168 645.851 176.507 646.085Z" fill="#FBF8CC"/>
<path d="M178.584 562.954C172.194 565.262 170.204 559.186 172.617 553.92C178.414 553.732 182.516 557.623 178.584 562.954Z" fill="#E2FB92"/>
<path d="M392.16 565.906C467.893 609.343 500.013 701.68 496.137 785.156C495.845 791.436 496.691 806.503 495.407 811.753C492.863 822.164 490.339 850.392 485.431 858.256C472.635 857.426 459.173 844.42 452.287 834.229C443.287 820.911 435.976 801.074 429.327 786.249C425.599 777.937 421.439 768.867 418.341 760.648C404.952 725.124 393.41 688.717 389.981 650.725C389.381 644.08 388.2 635.804 388.077 629.279C387.684 608.325 389.49 586.683 392.16 565.906ZM440.2 741.153C439.21 745.637 450.241 767.618 453.937 769.35C453.931 765.287 443.717 742.515 440.2 741.153Z" fill="#6AF68D"/>
<path d="M210.926 594.093C200.399 594.016 196.283 584.682 205.97 578.022C216.756 577.423 219.484 588.911 210.926 594.093Z" fill="#E2FB92"/>
<path d="M887.108 731.95C884.717 735.751 880.564 742.762 877.656 745.703L876.777 745.646C876.306 743.365 881.39 725.769 882.258 722.413C892.648 682.237 897.19 644.888 884.297 604.498C882.361 598.433 879.604 592.27 877.373 586.199C879.578 586.363 881.321 587.309 883.097 588.599C898.036 599.449 912.29 613.42 915.827 632.228C920.678 658.021 910.926 684.81 900.026 707.812C895.456 717.454 892.965 723.06 887.108 731.95ZM882.516 592.374C886.102 602.945 889.875 613.382 891.979 624.383C899.333 662.84 890.374 697.436 881.842 734.498C884.401 731.26 887.84 725.592 889.949 721.924C904.19 694.718 921.456 659.734 912.358 628.358C908.612 615.438 894.657 598.158 882.516 592.374Z" fill="#D2A3AD"/>
<path d="M743.629 598.104C743.801 594.687 744.219 591.701 744.669 588.315C745.099 593.459 745.033 597.919 744.998 603.058C744.423 600.968 744.696 600.093 743.629 598.104Z" fill="#455359"/>
<path d="M811.888 633.877C828.277 623.525 847.706 605.864 860.317 591.303C884.404 632.613 892.704 662.944 880.348 710.398C866.119 765.041 807.909 840.439 764.977 877.114C754.086 886.417 741.463 895.224 729.085 902.424C690.751 924.719 652.159 935.265 608.099 923.461C589.327 918.432 571.346 911.011 553.004 904.69C540.513 900.385 527.134 896.768 514.274 893.768C502.779 891.087 491.217 888.762 479.446 887.731C471.893 887.07 459.231 887.31 452.371 885.587C456.81 882.058 465.655 881.36 466.928 876.756C496.104 865.357 512.206 857.7 543.395 870.021C580.987 884.871 607.871 881.859 639.525 857.148C642.192 857.126 648.436 858.101 651.399 858.469C660.964 859.656 668.917 860.568 678.574 860.26C715.592 859.079 744.603 843.804 769.366 816.536C779.75 805.096 788.046 792.001 796.1 778.847C814.822 748.268 837.131 716.835 834.826 679.19C833.525 657.944 827.124 647.812 811.888 633.877Z" fill="#FFCFD2"/>
<path d="M881.844 734.498C890.376 697.436 899.335 662.84 891.981 624.383C889.877 613.382 886.104 602.945 882.518 592.374C894.659 598.158 908.614 615.438 912.36 628.358C921.458 659.734 904.192 694.718 889.951 721.924C887.842 725.592 884.403 731.26 881.844 734.498Z" fill="#E6DFD5"/>
<path d="M743.628 598.104C744.695 600.093 744.422 600.968 744.997 603.058C745.007 604.915 744.925 607.451 744.796 609.279C741.803 651.782 727.808 694.645 704.121 730.147C697.851 739.544 691.293 749.542 682.953 757.074C687.371 751.003 690.838 744.943 694.893 738.853C716.246 706.783 729.316 674.672 737.1 636.917C739.822 623.716 741.184 610.938 743.628 598.104Z" fill="#4A4C5A"/>
<path d="M754.211 624.197L755.64 618.35L756.108 619.009C756.126 618.514 756.144 618.019 756.161 617.524L756.164 618.889L755.716 618.269L756.201 618.462C755.917 620.7 755.639 622.874 755.282 625.106L754.211 624.197Z" fill="#455359"/>
<path d="M754.21 624.197L755.281 625.106C753.629 632.025 752.576 639.463 750.852 646.639C746.884 663.161 740.871 678.158 733.039 693.232C732.323 694.609 728.667 702.146 727.82 702.73C728.492 699.722 734.118 687.546 735.829 682.656C742.547 663.451 749.549 644.05 754.21 624.197Z" fill="url(#paint7_linear_17_12139)"/>
<path d="M126.656 643.744C115.355 645.056 113.057 632.247 121.931 626.578C125.862 626.334 129.12 626.473 131.289 630.131C134.965 636.327 131.9 640.842 126.656 643.744Z" fill="#B9FBC0"/>
<path d="M639.527 857.148C696.972 809.261 757.861 700.018 778.17 628.038C788.02 627.322 803.398 628.16 811.89 633.877C827.126 647.812 833.527 657.944 834.828 679.19C837.133 716.835 814.824 748.268 796.102 778.847C788.048 792.001 779.752 805.096 769.368 816.536C744.605 843.804 715.594 859.079 678.576 860.26C668.919 860.568 660.966 859.656 651.401 858.469C648.438 858.101 642.194 857.126 639.527 857.148Z" fill="#F1C0E8"/>
<path d="M181.872 705.802C176.58 707.436 169.138 707.877 164.219 704.891C145.408 693.475 152.7 661.047 167.924 649.682C170.551 647.722 173.385 646.917 176.505 646.085C181.166 645.851 185.126 645.593 189.653 647.224C204.895 652.713 208.54 670.644 202.962 684.335C198.79 694.577 191.911 701.415 181.872 705.802Z" fill="#E2FB92"/>
<path d="M286.597 727.032C276.184 735.494 264.174 741.589 250.333 736.827C225.348 728.231 219.403 696.725 226.654 674.068C231.496 658.937 238.381 654.541 251.771 647.441C257.358 668.089 274.491 709.137 286.597 727.032Z" fill="#E2FB92"/>
<path d="M431.445 846.062C430.976 845.993 429.937 845.873 429.446 845.599C396.584 827.231 375.651 793.569 356.313 762.538C349.659 751.86 343.092 742.336 338.289 731.736C344.793 735.692 373.83 783.56 381.21 793.499C395.742 813.071 410.38 828.48 429.957 843.681C430.687 844.249 431.125 845.23 431.445 846.062Z" fill="url(#paint8_linear_17_12139)"/>
<path d="M453.936 769.35C450.24 767.618 439.209 745.637 440.199 741.153C443.716 742.515 453.93 765.287 453.936 769.35Z" fill="#3C5955"/>
<path d="M441.636 835.129C436.081 831.4 430.806 825.571 425.79 821.049C409.957 806.776 396.759 789.572 387.495 770.354C385.538 766.293 382.489 759.787 382.207 755.305C383.956 756.806 392.93 774.271 394.642 777.534C403.629 794.665 415.341 806.871 429.276 820.067C432.533 823.151 440.413 830.885 441.636 835.129Z" fill="#3C5955"/>
<path d="M616.715 862.021C620.722 856.334 626.873 852.166 632.853 848.9C634.088 848.225 635.718 847.041 637.099 846.685C637.614 846.552 641.489 847.246 641.485 847.249C642.797 846.177 645.915 843.004 647.121 841.89C664.752 825.601 677.96 807.339 692.084 787.987C696.504 781.931 704.15 769.767 708.719 763.199C709.036 763.116 709.353 763.034 709.67 762.951C697.365 787.497 655.072 839.388 633.189 855.874C626.336 849.133 622.817 858.289 616.934 861.885L616.715 862.021Z" fill="#CFBAF0"/>
<path d="M607.477 854.102C607.777 852.846 614.354 848.349 615.909 847.258C635.785 833.305 652.405 815.434 665.789 795.231C668.998 790.388 671.621 784.901 674.795 779.91C675.277 784.956 666.332 800.114 663.534 804.65C649.542 827.335 630.597 841.76 607.477 854.102Z" fill="#53495F"/>
<path d="M348.641 782.292L348.551 780.172C353.299 785.622 363.026 795.482 366.6 800.447L366.451 800.726C359.945 795.342 354.256 788.623 348.641 782.292Z" fill="#162220"/>
<path d="M575.477 857.002C575.597 856.333 591.183 848.543 593.289 847.219C616.921 832.374 639.656 812.13 652.223 786.88C652.384 788.561 650.783 792.306 649.939 793.981C640.644 812.417 621.795 833.686 604.693 844.444C597.585 848.916 583.504 853.955 575.477 857.002Z" fill="#53495F"/>
<path d="M616.715 862.021L616.934 861.885C622.817 858.289 626.336 849.133 633.189 855.874C614.404 870.223 598.5 876.025 574.505 873.286C573.07 873.122 570.364 872.683 569.078 872.208C569.434 871.776 569.178 872.019 569.977 871.647C574.06 873.075 590.154 873.301 594.94 872.417C595.916 872.237 615.154 862.941 616.715 862.021Z" fill="url(#paint9_linear_17_12139)"/>
<path d="M245.939 914.77C277.389 929.52 314.076 940.267 349.05 938.892C369.367 938.093 388.502 932.445 407.056 924.701C410.618 923.215 416.346 919.229 420.097 920.359C421.073 921.637 420.842 920.931 420.795 922.555C412.298 933.617 384.311 945.625 370.665 951.43C326.583 970.184 276.041 949.139 241.725 920.149C238.994 917.842 234.431 914.671 236.288 910.981C239.085 912.081 243.203 913.861 245.939 914.77ZM241.849 916.908C266.091 937.869 304.83 957.443 337.764 956.382C358.656 955.708 385.939 942.614 404.289 932.091C407.917 929.656 410.633 927.803 414.003 925.057C364.519 944.131 327.765 947.937 276.819 929.865C270.414 927.593 246.209 917.398 241.849 916.908Z" fill="#D2A3AD"/>
<path d="M404.292 932.091C385.942 942.614 358.659 955.708 337.767 956.382C304.833 957.443 266.094 937.869 241.852 916.908C246.212 917.398 270.417 927.593 276.822 929.865C327.768 947.937 364.522 944.131 414.006 925.057C410.636 927.803 407.92 929.656 404.292 932.091Z" fill="#E6DFD5"/>
<defs>
<linearGradient id="paint0_linear_17_12139" x1="168.384" y1="285.98" x2="566.82" y2="298.736" gradientUnits="userSpaceOnUse">
<stop stop-color="#FCCFC9"/>
<stop offset="1" stop-color="#FBC2DD"/>
</linearGradient>
<linearGradient id="paint1_linear_17_12139" x1="312.178" y1="227.451" x2="310.609" y2="230.371" gradientUnits="userSpaceOnUse">
<stop stop-color="#4C484E"/>
<stop offset="1" stop-color="#685A68"/>
</linearGradient>
<linearGradient id="paint2_linear_17_12139" x1="791.984" y1="575.63" x2="233.09" y2="552.569" gradientUnits="userSpaceOnUse">
<stop stop-color="#4B4362"/>
<stop offset="1" stop-color="#495857"/>
</linearGradient>
<linearGradient id="paint3_linear_17_12139" x1="380.823" y1="264.001" x2="381.908" y2="261.45" gradientUnits="userSpaceOnUse">
<stop stop-color="#4B4F58"/>
<stop offset="1" stop-color="#5D6564"/>
</linearGradient>
<linearGradient id="paint4_linear_17_12139" x1="383.153" y1="312.102" x2="376.913" y2="266.389" gradientUnits="userSpaceOnUse">
<stop stop-color="#514659"/>
<stop offset="1" stop-color="#70555F"/>
</linearGradient>
<linearGradient id="paint5_linear_17_12139" x1="434.997" y1="324.823" x2="448.342" y2="365.234" gradientUnits="userSpaceOnUse">
<stop stop-color="#FFC0E4"/>
<stop offset="1" stop-color="#E0E3E4"/>
</linearGradient>
<linearGradient id="paint6_linear_17_12139" x1="712.25" y1="476.525" x2="725.713" y2="464.174" gradientUnits="userSpaceOnUse">
<stop stop-color="#1F494E"/>
<stop offset="1" stop-color="#425960"/>
</linearGradient>
<linearGradient id="paint7_linear_17_12139" x1="742.414" y1="659.561" x2="745.677" y2="660.612" gradientUnits="userSpaceOnUse">
<stop stop-color="#313C44"/>
<stop offset="1" stop-color="#545766"/>
</linearGradient>
<linearGradient id="paint8_linear_17_12139" x1="387.39" y1="785.917" x2="376.65" y2="795.607" gradientUnits="userSpaceOnUse">
<stop stop-color="#2F5448"/>
<stop offset="1" stop-color="#395055"/>
</linearGradient>
<linearGradient id="paint9_linear_17_12139" x1="609.063" y1="858.152" x2="621.419" y2="867.723" gradientUnits="userSpaceOnUse">
<stop stop-color="#E7C8E9"/>
<stop offset="1" stop-color="#F3B8F9"/>
</linearGradient>
</defs>
</svg>
