<svg width="1024" height="1024" viewBox="0 0 1024 1024" fill="none" xmlns="http://www.w3.org/2000/svg">
<path d="M739.882 223.742L738.595 223.254C738.899 218.691 759.891 208.022 764.489 206.219C738.071 205.007 708.337 212.215 683.837 200.881C700.165 201.358 716.407 201.857 732.735 200.745C750.103 199.561 769.901 201.577 785.425 192.492C761.827 192.323 697.448 191.943 681.676 176.64C724.426 167.787 767.641 173.153 810.674 173.935C813.46 173.986 818.861 170.293 821.342 168.591C812.921 168.403 801.686 166.997 793.236 166.163C772.604 164.128 734.749 160.94 716.974 150.509C722.932 149.39 728.554 148.562 734.636 148.229C765.334 146.546 795.657 147.679 826.246 150.579C832.314 151.154 838.349 152.125 844.448 152.074C850.192 147.598 853.322 145.404 859.825 142.215C855.966 141.583 851.579 141.153 847.659 140.995C814.793 139.664 781.899 139.519 749.133 136.134C743.411 135.543 737.264 134.466 731.741 132.838C750.658 128.62 780.376 131.095 800.1 131.633C813.576 132.001 828.002 133.015 841.545 133.587C850.627 133.971 859.375 135.782 868.174 135.807C869.795 135.812 875.293 132.516 877.063 131.521C871.548 131.414 851.87 128.658 846.114 128.308C832.14 127.456 748.087 119.932 741.217 113.966C744.276 109.893 794.289 116.168 801.461 116.784C828.745 119.125 855.728 120.972 882.706 125.904C886.954 123.892 890.518 122.133 894.637 119.862L841.611 113.146C823.808 111.032 806.685 109.712 788.954 106.339C779.868 104.61 771.253 102.51 762.228 100.601C775.979 98.8906 793.474 98.6061 807.238 100.103C832.303 102.828 857.364 107.829 882.48 110.586C887.8 111.17 902.664 114.728 907.1 113.125L907.166 112.28C898.405 104.911 832.346 95.6867 817.823 92.5188C813.16 91.5016 808.998 90.0932 804.319 88.2319C826.677 86.9993 842.2 90.006 863.905 93.6712C883.009 96.8972 895.621 100.938 913.869 106.315L920.916 102.874C902.831 93.881 881.833 88.3581 862.555 82.6212C854.922 80.3498 843.815 77.8029 836.691 74.649L836.601 74.1489C837.898 73.5415 841.014 73.825 842.739 73.9191C863.661 75.0606 885.168 82.6836 904.946 89.2862C912.511 91.8115 919.582 95.5149 926.885 98.1794C928.529 97.3236 931.243 96.16 932.284 94.7905C931.81 93.9626 931.331 93.5235 930.446 93.1404C915.441 86.6462 899.956 80.475 888.039 68.9196C901.961 73.2764 914.453 79.5161 927.438 86.0601C933.264 88.9965 937.845 91.5418 943.706 87.6102C908.193 58.1475 864.79 53.0247 820.491 57.8461C782.585 61.9717 761.491 72.8615 732.497 96.3714C688.434 132.1 659.077 182.71 652.03 239.14C651.573 242.803 651.561 246.891 650.998 250.451L649.285 249.844C649.169 238.411 649.517 224.157 651.87 213.059C659.806 175.629 680.72 137.367 707.291 109.908C722.59 94.0979 746.143 75.7766 765.646 65.6728C790.82 52.6312 822.986 50.2317 850.848 49.5766C885.375 48.9757 922.799 59.2563 948.147 83.664C963.499 98.4465 968.916 130.673 968.876 151.273C968.804 187.656 951.769 229.559 926.42 255.716C917.351 265.074 903.415 276.112 892.076 282.26C886.373 285.352 878.802 288.471 873.631 291.664L868.997 286.225C883.095 279.717 894.895 273.528 907.458 263.731C953.149 228.1 975.462 159.144 953.788 104.479C952.053 100.104 948.675 90.7603 943.395 90.411C941.865 91.2198 940.622 92.7206 940.623 94.429C940.624 104.567 942.062 116.069 943.548 126.055C946.614 146.663 945.48 180.166 936.944 199.287C935.878 180.909 938.025 166.885 937.771 149.265C937.518 131.649 935.689 115.673 935.612 97.4937C933.164 99.9428 931.499 101.387 929.655 104.343C929.451 109.894 928.622 115.812 928.257 121.459C926.193 153.339 924.778 181.385 914.553 211.762C911.616 194.761 917.221 162.707 919.205 144.847C920.441 133.727 922.124 116.822 924.333 106.422C921.326 109.17 918.153 112.404 915.103 115.259C914.131 126.323 912.399 137.627 910.847 148.667C909.476 158.414 908.439 169.298 906.639 178.894C905.967 175.029 905.994 170.743 905.673 166.818C904.366 150.864 905.402 133.699 910.182 118.326C905.634 122.408 900.61 125.033 896.084 128.817C896.044 143.148 893.601 162.296 892.756 177.225C891.333 202.367 891.478 224.23 885.256 248.822C877.439 228.318 884.459 194.029 886.302 172.055C887.35 159.566 888.562 145.112 889.785 132.736C887.079 134.904 880.277 138.729 878.698 141.269C881.349 146.427 870.37 192.346 868.8 202.566C866.241 219.229 859.101 244.588 849.314 258.65C851.964 244.643 856.444 228.335 859.567 214.027C864.404 191.867 868.626 164.445 874.755 142.872C869.445 147.775 863.852 150.108 858.754 155.614C857.759 159.677 857.172 164.695 856.546 168.849C852.992 192.46 850.925 216.003 844.571 239.129C842.978 244.927 842.187 253.192 839.876 258.531L834.414 254.485C838.595 236.505 842.026 218.405 845.74 200.321C848.567 186.553 850.001 172.42 852.133 158.526C843.559 162.887 841.631 165.165 839.831 174.445C835.101 198.834 830.128 223.015 821.462 246.373L815.113 242.978C816.638 236.285 821.923 225.542 824.069 216.982C827.964 201.443 831.07 185.998 834.852 170.465C831.803 172.501 827.918 174.534 824.614 176.641C822.841 187.99 817.599 204.365 814.664 215.727C813.208 221.363 809.957 234.413 808.053 239.428L800.422 235.617C805.302 220.531 812.615 192.352 819.173 179.863C813.705 184.809 807.832 187.233 802.816 191.678C797.852 206.219 795.464 216.354 789.027 230.967L782.894 228.86C787.196 217.669 791.025 206.567 794.892 195.218C791.918 197.343 788.805 199.212 785.673 201.089C781.377 209.466 778.735 218.23 776.232 227.249C774.195 226.682 771.795 226.217 769.703 225.754C770.33 221.901 776.565 207.434 778.363 203.614C769.047 209.231 752.072 217.504 744.121 223.553L739.882 223.742ZM768.272 153.423C763.165 152.493 748.649 152.729 743.413 153.46C745.16 153.672 750.116 154.376 751.598 154.295C767.549 157.331 786.775 158.838 803.017 160.335C811.732 161.139 821.219 162.357 829.923 162.567C832.005 161.375 833.888 160.121 835.892 158.812C821.326 157.905 806.173 155.634 791.593 154.379C784.231 153.745 775.709 153.634 768.272 153.423ZM737.189 178.236C727.814 178.463 716.485 178.482 707.266 179.316C733.764 184.447 747.958 184.055 774.876 185.354C780.835 185.548 789.012 186.043 794.796 185.857C797.397 183.594 799.182 182.089 801.985 180.089C781.261 179.015 757.96 177.757 737.189 178.236Z" fill="#F6EBF6"/>
<path d="M66.7967 61.2145C64.0768 62.4137 60.8954 61.248 59.5941 58.5753C58.2929 55.9026 59.3375 52.6794 61.959 51.2781C63.7453 50.3232 65.9107 50.4213 67.6033 51.5339C69.2958 52.6465 70.2447 54.5954 70.0765 56.6138C69.9083 58.6323 68.6501 60.3973 66.7967 61.2145Z" fill="#F6EBF6"/>
<path d="M407.674 61.7167C405.085 62.6872 402.197 61.3959 401.193 58.8193C400.19 56.2427 401.444 53.3383 404.008 52.3022C405.696 51.6201 407.62 51.8986 409.045 53.0313C410.47 54.1639 411.175 55.9755 410.891 57.7735C410.608 59.5715 409.379 61.0779 407.674 61.7167Z" fill="#F6EBF6"/>
<path d="M563.249 64.4983C560.526 64.5194 558.301 62.3283 558.281 59.6048C558.261 56.8814 560.452 54.6573 563.176 54.6378C565.898 54.6182 568.121 56.8089 568.142 59.5313C568.162 62.2537 565.972 64.4773 563.249 64.4983Z" fill="#F6EBF6"/>
<path d="M764.487 206.219C759.889 208.022 738.897 218.691 738.593 223.254L739.88 223.742C719.387 225.561 677.611 239.367 662.635 252.963C659.3 252.136 654.256 250.723 650.996 250.451C651.559 246.891 651.571 242.803 652.028 239.14C659.075 182.71 688.432 132.1 732.495 96.3712C761.489 72.8613 782.583 61.9715 820.489 57.8459C864.788 53.0245 908.191 58.1473 943.704 87.61C937.843 91.5416 933.262 88.9963 927.436 86.0599C914.451 79.5159 901.959 73.2762 888.037 68.9194C899.954 80.4748 915.439 86.646 930.444 93.1402C931.329 93.5233 931.808 93.9624 932.282 94.7903C931.241 96.1598 928.527 97.3234 926.883 98.1792C919.58 95.5147 912.509 91.8113 904.944 89.286C885.166 82.6834 863.659 75.0604 842.737 73.9189C841.012 73.8248 837.896 73.5413 836.599 74.1487L836.689 74.6488C843.813 77.8027 854.92 80.3496 862.553 82.621C881.831 88.3579 902.829 93.8808 920.914 102.874L913.867 106.315C895.619 100.938 883.007 96.897 863.903 93.671C842.198 90.0058 826.675 86.9991 804.317 88.2317C808.996 90.093 813.158 91.5014 817.821 92.5186C832.344 95.6865 898.403 104.911 907.164 112.28L907.098 113.125C902.662 114.728 887.798 111.17 882.478 110.586C857.362 107.829 832.301 102.828 807.236 100.103C793.472 98.6059 775.977 98.8904 762.226 100.601C771.251 102.51 779.866 104.61 788.952 106.339C806.683 109.712 823.806 111.032 841.609 113.146L894.635 119.862C890.516 122.133 886.952 123.892 882.704 125.904C855.726 120.972 828.743 119.125 801.459 116.784C794.287 116.168 744.274 109.893 741.215 113.966C748.085 119.932 832.138 127.456 846.112 128.308C851.868 128.658 871.546 131.414 877.061 131.521C875.291 132.516 869.793 135.812 868.172 135.807C859.373 135.782 850.625 133.971 841.543 133.587C828 133.015 813.574 132.001 800.098 131.633C780.374 131.095 750.656 128.62 731.739 132.838C737.262 134.466 743.409 135.543 749.131 136.134C781.897 139.519 814.791 139.664 847.657 140.995C851.577 141.153 855.964 141.583 859.823 142.215C853.32 145.404 850.19 147.598 844.446 152.074C838.347 152.125 832.312 151.154 826.244 150.579C795.655 147.679 765.332 146.546 734.634 148.229C728.552 148.562 722.93 149.39 716.972 150.509C734.747 160.94 772.602 164.128 793.234 166.163C801.684 166.997 812.919 168.403 821.34 168.591C818.859 170.293 813.458 173.986 810.672 173.935C767.639 173.153 724.424 167.787 681.674 176.64C697.446 191.943 761.825 192.323 785.423 192.492C769.899 201.577 750.101 199.561 732.733 200.745C716.405 201.857 700.163 201.358 683.835 200.881C708.335 212.215 738.069 205.007 764.487 206.219Z" fill="#FBF8CC"/>
<path d="M307.923 204.28C305.282 206.884 300.493 209.506 297.207 211.397C299.526 206.615 302.168 201.984 304.241 197.087C312.603 177.336 331.738 125.828 325.313 105.963C322.61 97.6077 315.473 91.765 307.8 88.1013C274.646 72.2697 205.543 69.5333 171.096 81.8784C139.991 93.026 117.632 115.78 103.788 145.298C99.3836 154.689 95.88 164.609 92.4023 174.371C78.9194 212.221 66.9328 260.259 81.0942 299.522C84.2531 308.281 89.1389 316.937 96.3576 322.971C101.312 314.395 105.439 303.367 109.186 294.043C114.818 280.027 120.615 266.925 126.817 253.276C150.382 201.418 182.313 158.487 227.8 123.834C240.927 113.834 250.644 105.963 265.963 98.8002L266.223 99.1641C263.796 101.028 260.933 102.123 258.331 103.774C195.396 143.71 149.785 201.21 122.161 270.171C117.541 281.705 111.025 293.875 107.351 305.706C105.926 307.918 105.922 310.837 108.694 311.854C110.17 310.245 113.167 305.832 113.857 303.733C112.779 300.713 113.493 304.352 111.561 301.369C117.133 292.577 121.134 283.948 125.899 274.708C161.467 205.746 208.549 140.113 281.321 107.332C282.82 106.657 286.013 104.786 287.241 104.802C285.964 106.025 268.456 114.878 265.33 116.699C255.033 122.698 246.892 128.879 237.358 135.661C192.313 167.705 165.922 210.439 139.495 257.688C135.317 265.159 123.03 287.187 120.695 294.791L121.156 294.314C124.26 291.039 127.119 287.198 129.905 283.66C163.527 240.96 195.902 197.808 236.417 161.216C238.523 159.315 240.793 156.908 242.773 154.823L243.61 154.924L243.423 156.172C240.11 158.072 232.564 166.439 229.347 169.655C206.337 192.659 184.234 217.31 164.56 243.246C146.5 267.052 126.811 289.337 110.092 314.094C108.721 316.153 101.938 323.767 101.619 324.87C102.222 325.768 103.904 326.85 104.884 326.707C135.49 322.252 155.796 295.145 175.046 273.529C180.088 267.867 186.904 258.625 192.122 254.992L192.273 255.018L192.103 255.51L191.604 255.387L191.645 256.174C173.706 277.596 152.674 305.533 128.645 320.535C122.381 324.446 116.554 325.549 110.307 328.187C136.619 330.482 156.521 329.616 182.114 321.158C189.659 318.664 201 312.937 208.01 311.479C206.859 315.022 206.276 316.676 204.65 320.001C199.829 321.044 183.726 327.55 177.432 329.56C153.449 337.217 119.536 339.073 95.6941 330.438C90.6484 337.247 75.1644 352.395 65.2137 355.793C64.3005 356.104 63.4849 355.344 62.8789 354.631C63.5344 352.142 67.3724 350.227 69.7484 348.925C77.9828 344.414 85.8485 335.538 91.8755 328.227C88.601 324.888 84.6214 320.544 82.0986 316.594C65.6713 290.875 66.8214 249.15 72.7108 220.394C75.729 205.805 80.2963 191.558 84.727 177.378C97.727 135.77 118.603 97.1502 161.105 79.7197C198.449 64.9185 240.989 65.5906 279.942 73.1042C301.753 77.3111 332.462 86.2749 333.054 113.579C333.555 136.744 323.339 162.788 315.742 184.371C313.646 190.323 308.959 198.21 307.923 204.28Z" fill="#F6EBF6"/>
<path d="M96.3601 322.971C89.1414 316.937 84.2556 308.281 81.0967 299.522C66.9353 260.259 78.9219 212.221 92.4048 174.371C95.8825 164.609 99.3861 154.689 103.79 145.298C117.634 115.78 139.993 93.026 171.098 81.8784C205.545 69.5333 274.648 72.2697 307.802 88.1013C315.475 91.765 322.612 97.6077 325.315 105.963C331.74 125.828 312.605 177.336 304.243 197.087C302.17 201.984 299.528 206.615 297.209 211.397C256.202 239.732 229.879 265.411 208.012 311.479C201.002 312.937 189.661 318.664 182.116 321.158C156.523 329.616 136.621 330.482 110.309 328.187C116.556 325.549 122.383 324.446 128.647 320.535C152.676 305.533 173.708 277.596 191.647 256.174L191.606 255.387L192.105 255.51L192.275 255.018L192.124 254.992C186.906 258.625 180.09 267.867 175.048 273.529C155.798 295.145 135.492 322.252 104.886 326.707C103.906 326.85 102.224 325.768 101.621 324.87C101.94 323.767 108.723 316.153 110.094 314.094C126.813 289.337 146.502 267.052 164.562 243.246C184.236 217.31 206.339 192.659 229.349 169.655C232.566 166.439 240.112 158.072 243.425 156.172L243.612 154.924L242.775 154.823C240.795 156.908 238.525 159.315 236.419 161.216C195.904 197.808 163.529 240.96 129.907 283.66C127.121 287.198 124.262 291.039 121.158 294.314L120.697 294.791C123.032 287.187 135.319 265.159 139.497 257.688C165.924 210.439 192.315 167.705 237.36 135.661C246.894 128.879 255.035 122.698 265.332 116.699C268.458 114.878 285.966 106.025 287.243 104.802C286.015 104.786 282.822 106.657 281.323 107.332C208.551 140.113 161.469 205.746 125.901 274.708C121.136 283.948 117.135 292.577 111.563 301.369C110.431 303.043 109.41 305.822 107.353 305.706C111.027 293.875 117.543 281.705 122.163 270.171C149.787 201.21 195.398 143.71 258.333 103.774C260.935 102.123 263.798 101.028 266.225 99.1641L265.965 98.8002C250.646 105.963 240.929 113.834 227.802 123.834C182.315 158.487 150.384 201.418 126.819 253.276C120.617 266.925 114.82 280.027 109.188 294.043C105.441 303.367 101.314 314.395 96.3601 322.971Z" fill="#FBF8CC"/>
<path d="M839.875 258.531C842.186 253.192 842.977 244.927 844.57 239.129C850.924 216.003 852.991 192.46 856.545 168.849C857.171 164.695 857.758 159.677 858.753 155.614C863.851 150.108 869.444 147.775 874.754 142.872C868.625 164.445 864.403 191.867 859.566 214.027C856.443 228.335 851.963 244.643 849.313 258.65C859.1 244.588 866.24 219.229 868.799 202.566C870.369 192.346 881.348 146.427 878.697 141.269C880.276 138.729 887.078 134.904 889.784 132.736C888.561 145.112 887.349 159.566 886.301 172.055C884.458 194.029 877.438 228.318 885.255 248.822C891.477 224.23 891.332 202.367 892.755 177.225C893.6 162.296 896.043 143.148 896.083 128.817C900.609 125.033 905.633 122.408 910.181 118.326C905.401 133.699 904.365 150.864 905.672 166.818C905.993 170.743 905.966 175.029 906.638 178.894C908.438 169.298 909.475 158.414 910.846 148.667C912.398 137.627 914.13 126.323 915.102 115.259C918.152 112.404 921.325 109.17 924.332 106.422C922.123 116.822 920.44 133.727 919.204 144.847C917.22 162.707 911.615 194.761 914.552 211.762C924.777 181.385 926.192 153.339 928.256 121.459C928.621 115.812 929.45 109.894 929.654 104.343C931.498 101.387 933.163 99.9427 935.611 97.4936C935.688 115.673 937.517 131.649 937.77 149.265C938.024 166.885 935.877 180.909 936.943 199.287C945.479 180.166 946.613 146.663 943.547 126.055C942.061 116.069 940.623 104.567 940.622 94.4289C940.621 92.7205 941.864 91.2197 943.394 90.4109C948.674 90.7602 952.052 100.104 953.787 104.479C975.461 159.144 953.148 228.1 907.457 263.731C894.894 273.528 883.094 279.717 868.996 286.225C866.506 283.484 863.921 280.753 861.479 277.974C855.043 270.65 847.417 264.699 839.875 258.531Z" fill="#FBF8CC"/>
<path d="M768.273 153.423C764.797 153.455 754.013 152.923 751.599 154.295C750.117 154.376 745.161 153.672 743.414 153.46C748.65 152.729 763.166 152.493 768.273 153.423Z" fill="#FDE4CF"/>
<path d="M751.598 154.295C754.012 152.923 764.796 153.455 768.272 153.423C775.709 153.634 784.231 153.745 791.593 154.379C806.173 155.634 821.326 157.905 835.892 158.812C833.888 160.121 832.005 161.375 829.923 162.567C821.219 162.357 811.732 161.139 803.017 160.335C786.775 158.838 767.549 157.331 751.598 154.295Z" fill="#FBF8CC"/>
<path d="M544.25 167.65C541.571 168.281 538.878 166.658 538.184 163.995C537.49 161.331 539.049 158.601 541.695 157.844C543.463 157.338 545.367 157.83 546.669 159.13C547.971 160.429 548.466 162.332 547.964 164.101C547.462 165.87 546.04 167.229 544.25 167.65Z" fill="#F6EBF6"/>
<path d="M821.461 246.373C830.127 223.015 835.1 198.834 839.83 174.445C841.63 165.165 843.558 162.887 852.132 158.526C850 172.42 848.566 186.553 845.739 200.321C842.025 218.405 838.594 236.505 834.413 254.485C830.043 251.803 825.773 249.155 821.461 246.373Z" fill="#FBF8CC"/>
<path d="M808.055 239.428C809.959 234.413 813.21 221.363 814.666 215.727C817.601 204.365 822.843 187.99 824.616 176.641C827.92 174.534 831.805 172.501 834.854 170.465C831.072 185.998 827.966 201.443 824.071 216.982C821.925 225.542 816.64 236.285 815.115 242.978C812.555 241.891 810.486 240.744 808.055 239.428Z" fill="#FBF8CC"/>
<path d="M297.209 211.397C300.495 209.506 305.284 206.884 307.925 204.28C365.665 175.062 429.857 168.001 491.601 188.435C522.949 198.809 566.151 224.972 585.437 251.917C570.589 255.209 554.591 260.848 540.998 267.792C495.743 290.911 452.44 317.76 407.993 342.431L325.484 388.079C308.762 397.281 291.637 405.415 275.886 416.518C261.865 426.4 248.012 438.895 238.534 453.265C235.933 457.207 233.759 461.906 230.936 465.647C230.342 465.145 230.282 464.994 229.676 464.759C216.777 459.748 206.768 452.902 201.44 439.318C187.962 404.958 191.035 353.893 204.652 320.001C206.278 316.676 206.861 315.022 208.012 311.479C229.879 265.411 256.202 239.732 297.209 211.397Z" fill="#FFCFD2"/>
<path d="M707.266 179.316C716.485 178.482 727.814 178.463 737.189 178.236C757.96 177.757 781.261 179.015 801.985 180.089C799.182 182.089 797.397 183.594 794.796 185.857C789.012 186.043 780.835 185.548 774.876 185.354C747.958 184.055 733.764 184.447 707.266 179.316Z" fill="#FBF8CC"/>
<path d="M51.8019 191.508C43.6367 191.894 40.7442 186.249 47.8775 181.486C54.5395 181.704 57.8022 186.611 51.8019 191.508Z" fill="#F6EBF6"/>
<path d="M789.027 230.967C795.464 216.354 797.852 206.219 802.816 191.678C807.832 187.233 813.705 184.809 819.173 179.863C812.615 192.352 805.302 220.531 800.422 235.617L789.027 230.967Z" fill="#FBF8CC"/>
<path d="M776.23 227.249C778.733 218.23 781.375 209.466 785.671 201.089C788.803 199.212 791.917 197.343 794.891 195.218C791.024 206.567 787.194 217.669 782.892 228.86L776.23 227.249Z" fill="#FBF8CC"/>
<path d="M744.121 223.553C752.072 217.504 769.047 209.231 778.363 203.614C776.565 207.434 770.33 221.901 769.703 225.754C766.717 225.533 762.434 224.611 759.16 224.301C753.9 223.801 749.391 223.671 744.121 223.553Z" fill="#FBF8CC"/>
<path d="M739.882 223.742L744.121 223.553C749.391 223.671 753.9 223.801 759.16 224.301C762.434 224.611 766.717 225.533 769.703 225.754C771.795 226.217 774.195 226.682 776.232 227.249L782.894 228.86L789.027 230.967L800.422 235.617L808.053 239.428C810.484 240.744 812.553 241.891 815.113 242.978L821.462 246.373C825.774 249.155 830.044 251.803 834.414 254.485L839.876 258.531C847.418 264.699 855.044 270.65 861.48 277.974C863.922 280.753 866.507 283.484 868.997 286.225L873.631 291.664C934.568 368.693 941.872 478.104 858.625 541.396C838.545 556.663 818.664 567.877 795.736 578.127C790.478 580.033 789.216 580.776 784.204 577.693C814.449 545.328 816.682 476.53 818.07 434.663C818.86 410.797 819.982 369.277 807.166 349.022C777.387 301.954 715.578 266.78 662.637 252.963C677.613 239.367 719.389 225.561 739.882 223.742Z" fill="#B9FBC0"/>
<path d="M585.436 251.917C608.736 246.35 625.788 246.366 649.285 249.844L650.998 250.451C654.258 250.723 659.302 252.136 662.637 252.963C715.578 266.78 777.387 301.954 807.166 349.022C819.982 369.277 818.86 410.797 818.07 434.663C816.682 476.53 814.449 545.328 784.204 577.693C760.882 599.069 733.262 613.45 706.893 630.789C698.327 636.42 689.908 642.243 681.339 647.848L607.218 695.483L554.851 728.331C548.791 732.138 541.251 736.258 535.517 740.222C529.105 743.986 522.807 747.938 516.414 751.736C497.582 762.922 471.278 780.468 449.455 782.561C434.922 783.954 419.494 780.739 405.428 777.152C372.756 768.819 341.365 757.015 310.026 744.73C288.753 736.391 265.959 728.024 246.63 715.674C238.623 710.558 230.045 703.572 225.199 695.259C205.673 661.764 204.351 556.658 209.194 517.528C210.289 508.686 212.615 499.997 214.875 491.397C219.707 479.308 222.486 475.445 230.935 465.647C233.758 461.906 235.932 457.207 238.533 453.265C248.011 438.895 261.864 426.4 275.885 416.518C291.636 405.415 308.761 397.281 325.483 388.079L407.992 342.431C452.439 317.76 495.742 290.911 540.997 267.792C554.59 260.848 570.588 255.209 585.436 251.917ZM654.729 255.524C644.62 253.466 635.166 251.672 624.761 251.463C578.657 250.537 538.809 271.923 500.075 294.324C474.695 309.002 449.424 324.023 423.833 338.279L331.242 389.391C291.044 411.65 265.466 421.511 238.191 460.667C274.192 440.007 313.813 454.526 350.27 466.885C392.359 481.154 442.149 500.443 467.014 539.837C473.48 550.378 475.542 559.908 477.262 571.749C487.908 541.913 508.792 527.732 533.342 510.462C559.146 492.311 585.726 475.892 613.136 460.285C628.504 451.325 646.859 442.09 661.413 432.378C690.656 413.876 721.713 397.06 751.428 379.238C769.417 368.45 789.621 356.055 810.242 368.112C808.36 361.481 806.295 355.613 802.526 349.776C772.056 302.577 707.94 267.788 654.729 255.524ZM665.789 434.529C659.362 438.261 618.774 460.735 616.249 463.664L615.393 464.194C611.44 464.965 597.814 473.602 593.784 476.014C564.172 493.749 534.978 512.567 507.915 534.039C495.473 543.91 483.995 558.92 479.564 574.326C477.974 579.851 479.537 589.704 481.249 595.405C485.17 623.788 487.764 649.824 489.732 678.314C492.096 712.552 490.638 767.382 449.416 777.579C450.402 776.579 454.607 774.058 455.99 773.315C475.662 762.747 483.901 739.783 486.402 718.629C488.76 698.683 486.418 676.646 484.842 656.478C483.164 635.007 480.848 613.073 477.626 591.643C477.067 580.396 473.494 562.37 469.632 552.111C458.023 521.276 416.657 495.026 386.573 483.993C340.458 467.081 246.183 424.225 220.018 489.847C210.746 517.296 209.717 546.35 210.613 575.194C210.884 604.645 213.37 634.596 218.969 663.474C221.787 678.009 224.718 692.041 235.759 702.408C244.294 710.421 257.186 718.669 268.173 722.677C275.514 726.377 283.28 729.718 290.881 732.87C322.623 746.03 354.868 758.409 387.899 767.941C407.042 773.465 427.801 780.152 447.914 778.435C455.054 778.536 468.113 774.157 474.377 770.904C496.556 759.386 518.559 745.777 539.904 732.837C593.241 700.567 647.666 665.213 699.845 631.02L731.243 610.769C749.477 599.241 771.312 586.588 784.876 570.167C812.132 538.242 813.935 458.224 814.494 417.533C814.659 405.543 813.905 382.481 810.903 370.988C788.072 357.623 764.417 376.404 744.805 387.86L687.345 421.721C680.115 425.978 673.129 430.443 665.789 434.529Z" fill="#0F0753"/>
<path d="M238.191 460.667C265.466 421.511 291.044 411.65 331.242 389.391L423.833 338.279C449.424 324.023 474.695 309.002 500.075 294.324C538.809 271.923 578.657 250.537 624.761 251.463C635.166 251.672 644.62 253.466 654.729 255.524C650.049 260.543 626.944 261.298 622.932 266.497C605.06 266.309 583.639 267.686 568.204 277.812C574.379 276.434 580.024 274.506 586.105 272.923C596.646 270.179 606.519 269.63 617.332 270.123C616.938 271.227 616.964 271.468 615.552 271.896C592.524 278.876 570.832 289.609 547.631 295.729C544.174 296.64 542.747 296.71 539.67 298.545C521.117 302.297 510.907 306.036 496.427 318.093L495.696 317.571C492.646 319.318 491.413 327.495 491.452 330.788C472.592 332.343 450.636 336.488 437.128 351.649C436.595 352.248 436.506 352.499 436.361 353.251L436.673 353.404C441.572 350.38 447.116 345.797 452.06 343.402C464.875 337.196 480.589 334.314 494.634 334.48C509.475 362.286 569.407 380.304 596.238 393.702C615.192 403.167 647.16 417.029 661.413 432.378C646.859 442.09 628.504 451.325 613.136 460.285C585.726 475.892 559.146 492.311 533.342 510.462C508.792 527.732 487.908 541.913 477.262 571.749C475.542 559.908 473.48 550.378 467.014 539.837C442.149 500.443 392.359 481.154 350.27 466.885C313.813 454.526 274.192 440.007 238.191 460.667ZM419.022 369.714C395.48 371.457 358.429 379.604 344.662 400.573C350.386 396.177 354.992 392.519 361.37 389.04C389.405 373.748 423.059 371.085 454.251 375.295C487.986 379.848 518.809 392.109 546.249 412.164C557.729 420.852 573.068 432.097 575.164 447.486C576.596 458.01 571.569 464.822 568.963 474.1C591.895 443.134 570.301 425.01 544.941 406.751C514.645 384.939 477.485 372.759 440.381 370.15C434.605 369.776 424.717 369.191 419.022 369.714ZM355.35 416.208C338.314 417.831 310.395 422.153 301.129 438.2C306.572 434.77 313.256 430.244 319.244 428.02C375.665 407.062 446.255 428.231 489.623 467.907C498.905 476.934 506.353 484.957 512.84 496.485C515.434 501.095 517.096 505.733 519.458 510.165C506.571 450.383 411.413 408.613 355.35 416.208Z" fill="#F6EBF6"/>
<path d="M654.727 255.524C707.938 267.788 772.054 302.577 802.524 349.776C806.293 355.613 808.358 361.481 810.24 368.112C789.619 356.055 769.415 368.45 751.426 379.238C721.711 397.06 690.654 413.876 661.411 432.378C647.158 417.029 615.19 403.167 596.236 393.702C569.405 380.304 509.473 362.286 494.632 334.48C541.626 335.605 587.116 356.177 622.929 385.85C631.096 392.617 637.688 398.978 645.313 406.394C649.043 409.983 652.804 413.748 656.825 416.99L645.632 404.072C642.645 399.746 630.667 388.264 626.815 384.941C614.173 374.038 597.155 361.786 582.389 353.996C557.01 340.608 520.153 328.659 491.45 330.788C491.411 327.495 492.644 319.318 495.694 317.571L496.425 318.093C496.505 318.696 496.424 318.323 496.801 319.175C502.822 313.56 508.544 311.193 516.084 308.173C548.964 295.001 589.874 303.776 621.295 317.741C647.768 329.507 675.938 349.607 688.74 376.189C692.457 383.908 693.886 391.228 696.803 398.966C693.518 364.08 671.363 341.16 642.463 324.017C610.887 305.287 576.257 296.408 539.668 298.545C542.745 296.71 544.172 296.64 547.629 295.729C570.83 289.609 592.522 278.876 615.55 271.896C616.962 271.468 616.936 271.227 617.33 270.123C647.32 272.143 673.112 278.142 700.232 291.401C711.221 296.772 721.029 301.869 730.247 310.293C741.084 320.196 750.45 332.676 752.977 347.449C753.71 351.732 753.889 357.845 754.116 362.293C765.731 316.125 710.731 287.751 674.804 276.297C657.113 270.657 641.24 268.367 622.93 266.497C626.942 261.298 650.047 260.543 654.727 255.524Z" fill="#8EECF5"/>
<path d="M568.203 277.812C583.638 267.686 605.059 266.309 622.931 266.497C641.241 268.367 657.114 270.657 674.805 276.297C710.732 287.751 765.732 316.125 754.117 362.293C753.89 357.845 753.711 351.732 752.978 347.449C750.451 332.676 741.085 320.196 730.248 310.293C721.03 301.869 711.222 296.772 700.233 291.401C673.113 278.142 647.321 272.143 617.331 270.123C606.518 269.63 596.645 270.179 586.104 272.923C580.023 274.506 574.378 276.434 568.203 277.812Z" fill="#0F0753"/>
<path d="M496.426 318.093C510.906 306.036 521.116 302.297 539.669 298.545C576.258 296.408 610.888 305.287 642.464 324.017C671.364 341.16 693.519 364.08 696.804 398.966C693.887 391.228 692.458 383.908 688.741 376.189C675.939 349.607 647.769 329.507 621.296 317.741C589.875 303.776 548.965 295.001 516.085 308.173C508.545 311.193 502.823 313.56 496.802 319.175C496.425 318.323 496.506 318.696 496.426 318.093Z" fill="url(#paint0_linear_17_12491)"/>
<path d="M107.353 305.706C109.41 305.822 110.431 303.043 111.563 301.369C113.495 304.352 112.781 300.713 113.859 303.733C113.169 305.832 110.172 310.245 108.696 311.854C105.924 310.837 105.928 307.918 107.353 305.706Z" fill="#FBF8CC"/>
<path d="M491.45 330.788C520.153 328.659 557.01 340.608 582.389 353.996C597.155 361.786 614.173 374.038 626.815 384.941C630.667 388.264 642.645 399.746 645.632 404.072L645.313 406.394C637.688 398.978 631.096 392.617 622.929 385.85C587.116 356.177 541.626 335.605 494.632 334.48C480.587 334.314 464.873 337.196 452.058 343.402C447.114 345.797 441.57 350.38 436.671 353.404L436.359 353.251C436.504 352.499 436.593 352.248 437.126 351.649C450.634 336.488 472.59 332.343 491.45 330.788Z" fill="#0F0753"/>
<path d="M665.789 434.529C673.129 430.443 680.115 425.978 687.345 421.721L744.805 387.86C764.417 376.404 788.072 357.623 810.903 370.988C813.905 382.481 814.659 405.543 814.494 417.533C813.935 458.224 812.132 538.242 784.876 570.167C783.535 568.032 782.777 566.774 781.095 564.835C792.522 550.873 805.292 517.793 799.684 500.062C796.95 522.986 794.333 544.179 778.902 562.924C775.832 558.039 769.353 549.632 767.077 544.792C767.929 542.29 775.763 522.391 775.525 521.829C771.767 528.82 769.084 536.507 766.555 544.019C760.484 537.063 757.192 529.071 749.275 522.872C754.82 492.56 760.617 462.451 752.788 431.529C750.906 424.095 746.408 411.748 739.407 407.699L738.728 407.895C759.114 436.195 753.733 483.854 746.95 516.483C742.783 514.825 727.325 494.083 723.231 489.447C705.788 469.694 689.136 447.64 665.789 434.529ZM782 451.702C779.895 455.499 778.131 460.831 776.616 465.005C773.973 471.988 763.408 498.792 762.865 504.479C767.703 492.579 772.24 476.97 777.188 465.74C779.099 461.023 780.553 456.568 782 451.702ZM798.268 416.758C801.351 432.881 802.974 447.961 803.132 464.382C803.161 467.497 803.137 482.773 803.854 484.959C804.478 484.166 804.317 484.549 804.505 483.898C806.626 472.843 806.332 423.392 798.268 416.758Z" fill="#8EECF5"/>
<path d="M344.66 400.573C358.427 379.604 395.478 371.457 419.02 369.714C424.715 369.191 434.603 369.776 440.379 370.15C477.483 372.759 514.643 384.939 544.939 406.751C570.299 425.01 591.893 443.134 568.961 474.1C571.567 464.822 576.594 458.01 575.162 447.486C573.066 432.097 557.727 420.852 546.247 412.164C518.807 392.109 487.984 379.848 454.249 375.295C423.057 371.085 389.403 373.748 361.368 389.04C354.99 392.519 350.384 396.177 344.66 400.573Z" fill="#0F0753"/>
<path d="M962.226 385.925C959.834 387.135 956.913 386.192 955.679 383.812C954.445 381.432 955.358 378.503 957.725 377.244C959.278 376.419 961.155 376.491 962.64 377.433C964.125 378.376 964.989 380.043 964.904 381.8C964.818 383.556 963.796 385.132 962.226 385.925Z" fill="#F6EBF6"/>
<path d="M124.952 395.236C122.349 396.402 119.293 395.254 118.102 392.662C116.91 390.071 118.029 387.004 120.608 385.787C123.224 384.554 126.343 385.691 127.551 388.319C128.759 390.946 127.591 394.054 124.952 395.236Z" fill="#F6EBF6"/>
<path d="M645.316 406.394L645.635 404.072L656.828 416.99C652.807 413.748 649.046 409.983 645.316 406.394Z" fill="#020309"/>
<path d="M746.948 516.483C753.731 483.854 759.112 436.195 738.726 407.895L739.405 407.699C746.406 411.748 750.904 424.095 752.786 431.529C760.615 462.451 754.818 492.56 749.273 522.872C746.276 538.174 741.258 555.281 735.789 569.854C739.292 551.849 743.573 534.807 746.948 516.483Z" fill="#0F0753"/>
<path d="M301.129 438.2C310.395 422.153 338.314 417.831 355.35 416.208C411.413 408.613 506.571 450.383 519.458 510.165C517.096 505.733 515.434 501.095 512.84 496.485C506.353 484.957 498.905 476.934 489.623 467.907C446.255 428.231 375.665 407.062 319.244 428.02C313.256 430.244 306.572 434.77 301.129 438.2Z" fill="#0F0753"/>
<path d="M804.507 483.898C804.319 484.549 804.48 484.166 803.856 484.959C803.139 482.773 803.163 467.497 803.134 464.382C802.976 447.961 801.353 432.881 798.27 416.758C806.334 423.392 806.628 472.843 804.507 483.898Z" fill="url(#paint1_linear_17_12491)"/>
<path d="M616.249 463.664C618.774 460.735 659.361 438.261 665.788 434.529C689.135 447.64 705.787 469.694 723.23 489.447C727.324 494.083 742.782 514.825 746.949 516.483C743.574 534.807 739.293 551.849 735.79 569.854C741.259 555.281 746.278 538.174 749.275 522.872C757.192 529.071 760.483 537.063 766.554 544.019L767.077 544.792C769.353 549.632 775.831 558.039 778.901 562.924C771.648 570.801 765.94 575.527 757.072 581.566C753.082 584.283 747.419 587.912 743.934 591.018C757.281 584.7 771.529 576.35 781.094 564.835C782.776 566.774 783.534 568.032 784.875 570.167C771.311 586.588 749.476 599.241 731.242 610.769L699.844 631.02C647.665 665.213 593.24 700.567 539.903 732.837C540.03 719.819 543.849 710.272 541.255 696.091C536.614 670.713 527.629 645.866 510.064 626.389C507.574 623.629 504.464 619.409 501.604 617.28C499.642 604.072 499.058 592.627 493.4 580.088C495.784 591.07 497.72 601.924 498.541 613.155C495.306 611.304 484.372 598.822 481.248 595.405C479.536 589.704 477.973 579.851 479.563 574.326C483.994 558.92 495.472 543.91 507.914 534.039C534.977 512.567 564.171 493.749 593.783 476.014C597.813 473.602 611.439 464.965 615.392 464.194C616.322 466.312 617.712 468.747 618.777 470.865C634.443 501.995 642.569 535.855 639.736 570.793C639.075 578.936 637.85 586.898 637.121 594.997C637.539 593.773 637.931 592.554 638.247 591.296C646.869 556.967 644.659 519.814 629.239 487.697C625.251 479.39 620.822 471.604 616.249 463.664ZM671.345 444.981C674.009 447.269 676.836 449.625 679.297 452.059C702.069 474.58 697.229 507.414 691.434 535.801C689.943 543.104 687.952 554.232 688.346 561.589L688.624 561.759L689.189 559.848L689.275 559.236C690.263 552.669 692.73 544.609 694.176 537.849C699.661 512.205 705.534 483.039 689.052 460.054C685.862 455.605 676.246 446.406 671.345 444.981ZM551.241 521.304C553.705 528.699 558.895 535.582 561.51 543.745C572.927 579.389 568.67 617.671 557.199 652.709C556.355 655.289 555.45 657.387 555.26 660.135C555.575 659.67 555.861 659.333 556.062 658.828C571.875 620.964 578.375 579.379 563.416 539.393C561.708 534.825 555.801 523.259 551.241 521.304Z" fill="#F6EBF6"/>
<path d="M689.192 559.848L688.626 561.759L688.349 561.589C687.955 554.232 689.945 543.104 691.436 535.801C697.231 507.414 702.072 474.58 679.3 452.059C676.839 449.625 674.012 447.269 671.348 444.981C676.249 446.406 685.865 455.605 689.055 460.054C705.537 483.039 699.664 512.205 694.179 537.849C692.733 544.609 690.266 552.669 689.278 559.236L689.192 559.848Z" fill="#0F0753"/>
<path d="M776.617 465.005C778.132 460.831 779.896 455.499 782.001 451.702C780.554 456.568 779.1 461.023 777.189 465.74L776.617 465.005Z" fill="#5BABB6"/>
<path d="M245.539 483.585C256.477 472.402 267.348 468.284 283.136 467.797C287.321 467.668 295.038 469.46 297.701 468.964C296.507 467.131 291.387 465.815 289.162 465.381C277.244 463.061 262.772 465.936 252.678 472.674C247.97 475.817 243.024 481.056 239.05 485.167C232.991 486.125 224.279 489.348 220.02 489.847C246.185 424.225 340.46 467.081 386.575 483.993C416.659 495.026 458.025 521.276 469.634 552.111C473.496 562.37 477.069 580.396 477.628 591.643C468.532 586.442 467.36 581.929 461.375 577.51C450.824 548.752 437.165 521.144 406.332 510.644C432.098 526.417 445.69 542.449 455.882 571.602C452.472 571.259 436.958 559.333 433.737 556.834C386.799 520.427 333.639 490.887 273.576 484.978C263.915 484.027 255.226 483.81 245.539 483.585Z" fill="#F6EBF6"/>
<path d="M615.395 464.194L616.251 463.664C620.824 471.604 625.254 479.39 629.242 487.697C644.662 519.814 646.872 556.967 638.25 591.296C637.934 592.554 637.542 593.773 637.124 594.997C637.853 586.898 639.077 578.936 639.738 570.793C642.571 535.855 634.446 501.995 618.78 470.865C617.715 468.747 616.325 466.312 615.395 464.194Z" fill="url(#paint2_linear_17_12491)"/>
<path d="M245.538 483.585C235.26 494.325 230.329 504.846 225.541 519.005C224.277 522.743 222.569 529.92 221.031 533.054C222.079 514.398 228.174 500.088 239.049 485.167C243.023 481.056 247.969 475.817 252.677 472.674C262.771 465.936 277.243 463.061 289.161 465.381C291.386 465.815 296.506 467.131 297.7 468.964C295.037 469.46 287.32 467.668 283.135 467.797C267.347 468.284 256.476 472.402 245.538 483.585Z" fill="#0F0753"/>
<path d="M776.614 465.005L777.186 465.74C772.238 476.97 767.701 492.579 762.863 504.479C763.406 498.792 773.971 471.988 776.614 465.005Z" fill="#3A646E"/>
<path d="M221.028 533.054C222.566 529.92 224.274 522.743 225.538 519.005C230.326 504.846 235.257 494.325 245.535 483.585C255.222 483.81 263.911 484.027 273.572 484.978C333.635 490.887 386.795 520.427 433.733 556.834C436.954 559.333 452.468 571.259 455.878 571.602C464.04 594.815 468.069 623.346 470.118 647.849C470.878 656.945 471.046 666.272 471.736 675.361C476.51 649.146 468.728 603.237 461.371 577.51C467.356 581.929 468.528 586.442 477.624 591.643C480.846 613.073 483.162 635.007 484.84 656.478C486.416 676.646 488.758 698.683 486.4 718.629C483.899 739.783 475.66 762.747 455.988 773.315C454.605 774.058 450.4 776.579 449.414 777.579L447.912 778.435C427.799 780.152 407.04 773.465 387.897 767.941C354.866 758.409 322.621 746.03 290.879 732.87C283.278 729.718 275.512 726.377 268.171 722.677C267.576 720.879 259.468 711.563 256.866 706.802C256.099 705.876 254.65 704.428 253.78 703.508C254.104 702.774 254.668 701.487 254.356 700.765C251.128 693.306 247.146 686.808 244.22 679.11C236.589 659.037 231.679 638.133 226.221 617.405C225.726 615.527 225.465 615.063 224.036 613.913C223.411 606.199 223.356 598.517 222.52 590.74C221.481 595.341 221.13 598.491 220.853 603.158L218.974 602.316C215.881 598.498 214.271 585.953 212.616 580.81C211.977 578.825 211.268 577.32 210.611 575.194C209.715 546.35 210.744 517.296 220.016 489.847C224.275 489.348 232.987 486.125 239.046 485.167C228.171 500.088 222.076 514.398 221.028 533.054ZM472.562 689.811C471.056 694.017 471.009 702.993 470.425 707.732C467.592 730.687 461.817 750.383 444.19 766.272L444.671 767.022C465.508 757.907 474.275 718.356 473.5 698.245C473.405 695.766 473.735 692.697 473.11 690.309L472.562 689.811Z" fill="#98F5E1"/>
<path d="M148.898 745.108C127.924 696.834 125.352 644.436 139.833 594.002C150.616 556.451 180.023 510.248 214.877 491.397C212.617 499.997 210.291 508.686 209.196 517.528C204.353 556.658 205.675 661.764 225.201 695.259C230.047 703.572 238.625 710.558 246.632 715.674C265.961 728.024 288.755 736.391 310.028 744.73C341.367 757.015 372.758 768.819 405.43 777.152C419.496 780.739 434.924 783.954 449.457 782.561C471.28 780.468 497.584 762.922 516.416 751.736C522.809 747.938 529.107 743.986 535.519 740.222C532.287 749.144 525.661 760.099 520.731 768.15C501.99 796.636 464.676 823.27 434.263 838.072C406.388 851.639 362.542 864.21 331.497 861.616L326.619 861.564C323.318 861.465 319.568 861.11 316.236 860.866L311.239 860.258C307.583 859.623 303.83 859.07 300.157 858.49L296.6 857.724C292.25 857.045 286.923 855.692 282.554 854.703L278.003 853.209C274.601 852.248 270.612 850.855 267.192 849.763L262.756 848.191L253.157 844.438L248.624 842.552L236.857 836.363C235.592 835.54 233.4 834.421 232.014 833.655L222.44 827.748L218.158 824.935C215.896 822.739 207.08 816.576 204.203 814.516L200.135 811.549C196.252 808.257 192.54 805.037 188.738 801.643C183.002 796.516 175.134 786.578 170.201 780.54C168.945 778.586 166.571 775.608 165.102 773.716C160.324 767.56 157.267 760.838 153.294 754.266C152.22 751.362 150.34 747.927 148.898 745.108Z" fill="#B9FBC0"/>
<path d="M778.901 562.924C794.332 544.179 796.949 522.986 799.683 500.062C805.291 517.793 792.521 550.873 781.094 564.835C771.529 576.35 757.281 584.7 743.934 591.018C747.419 587.912 753.081 584.283 757.071 581.566C765.939 575.527 771.648 570.801 778.901 562.924Z" fill="url(#paint3_linear_17_12491)"/>
<path d="M455.878 571.602C445.686 542.449 432.094 526.417 406.328 510.644C437.161 521.144 450.82 548.752 461.371 577.51C468.728 603.237 476.51 649.146 471.736 675.361C471.046 666.272 470.878 656.945 470.118 647.849C468.069 623.346 464.04 594.815 455.878 571.602Z" fill="url(#paint4_linear_17_12491)"/>
<path d="M766.555 544.019C769.084 536.507 771.767 528.82 775.525 521.829C775.763 522.391 767.929 542.29 767.077 544.792L766.555 544.019Z" fill="#5BABB6"/>
<path d="M556.064 658.828C555.863 659.333 555.577 659.67 555.262 660.135C555.452 657.387 556.357 655.289 557.201 652.709C568.672 617.671 572.929 579.389 561.512 543.745C558.897 535.582 553.706 528.699 551.242 521.304C555.802 523.259 561.71 534.825 563.418 539.393C578.377 579.379 571.877 620.964 556.064 658.828Z" fill="url(#paint5_linear_17_12491)"/>
<path d="M71.779 533.468L71.5248 533.475C64.4271 533.738 61.0474 528.445 66.101 523.588C73.414 523.093 77.4909 527.873 71.779 533.468Z" fill="#F6EBF6"/>
<path d="M948.739 550.426C947.114 551.383 945.1 551.389 943.469 550.443C941.838 549.497 940.844 547.745 940.868 545.86C940.892 543.975 941.929 542.249 943.583 541.344C946.086 539.976 949.223 540.868 950.631 543.348C952.039 545.828 951.197 548.979 948.739 550.426Z" fill="#F6EBF6"/>
<path d="M210.613 575.194C211.27 577.32 211.979 578.825 212.618 580.81C214.273 585.953 215.883 598.498 218.976 602.316L220.855 603.158C218.873 630.829 223.78 689.445 250.361 704.332C253.019 705.733 253.88 706.28 256.868 706.802C259.47 711.563 267.578 720.879 268.173 722.677C257.186 718.669 244.294 710.421 235.759 702.408C224.718 692.041 221.787 678.009 218.969 663.474C213.37 634.596 210.884 604.645 210.613 575.194Z" fill="#B9FBC0"/>
<path d="M535.518 740.222C541.252 736.258 548.792 732.138 554.852 728.331L607.219 695.483L681.34 647.848C689.909 642.243 698.328 636.42 706.894 630.789C733.263 613.45 760.883 599.069 784.205 577.693C789.217 580.776 790.479 580.033 795.737 578.127C794.806 589.123 790.022 604.347 786.269 614.68C771.789 654.542 750.034 688.404 717.724 715.955C666.356 759.755 603.62 777.799 536.816 770.909C530.993 770.308 526.472 769.755 520.73 768.15C525.66 760.099 532.286 749.144 535.518 740.222Z" fill="#FFCFD2"/>
<path d="M498.543 613.155C497.722 601.924 495.786 591.07 493.402 580.088C499.06 592.627 499.644 604.072 501.606 617.28C503.151 633.853 505.704 659.598 501.66 675.578C501.292 653.181 500.642 635.508 498.543 613.155Z" fill="url(#paint6_linear_17_12491)"/>
<path d="M220.856 603.158C221.133 598.491 221.484 595.341 222.523 590.74C223.359 598.517 223.414 606.199 224.039 613.913C224.238 637.801 227.572 669.287 240.812 689.777C242.716 692.722 248.169 698.45 250.786 701.198C251.343 702.897 251.582 702.767 250.362 704.332C223.781 689.445 218.874 630.829 220.856 603.158Z" fill="#0F0753"/>
<path d="M481.249 595.405C484.373 598.822 495.307 611.304 498.542 613.155C500.641 635.508 501.291 653.181 501.659 675.578C505.703 659.598 503.15 633.853 501.605 617.28C504.465 619.409 507.575 623.629 510.065 626.389C527.63 645.866 536.615 670.713 541.256 696.091C543.85 710.272 540.031 719.819 539.904 732.837C518.559 745.777 496.556 759.386 474.377 770.904C468.113 774.157 455.054 778.536 447.914 778.435L449.416 777.579C490.638 767.382 492.096 712.552 489.732 678.314C487.764 649.824 485.17 623.788 481.249 595.405ZM502.181 701.34C501.072 716.577 500.244 731.38 494.09 745.621C493.184 747.717 489.089 754.968 489.611 756.037L489.941 756.142C501.574 742.143 504.334 722.134 503.389 704.273C503.334 703.221 503.011 702.057 502.181 701.34Z" fill="#98F5E1"/>
<path d="M224.039 613.913C225.468 615.063 225.729 615.527 226.224 617.405C231.682 638.133 236.592 659.037 244.223 679.11C247.149 686.808 251.131 693.306 254.359 700.765C254.671 701.487 254.107 702.774 253.783 703.508L250.786 701.198C248.169 698.45 242.716 692.722 240.812 689.777C227.572 669.287 224.238 637.801 224.039 613.913Z" fill="#B9FBC0"/>
<path d="M63.7855 625.58C61.2238 626.631 58.2942 625.419 57.2225 622.866C56.1508 620.313 57.3379 617.374 59.8819 616.281C62.4558 615.176 65.4375 616.38 66.5217 618.963C67.606 621.546 66.3773 624.517 63.7855 625.58Z" fill="#F6EBF6"/>
<path d="M871.279 666.777C869.473 667.435 867.451 667.055 866.008 665.786C864.565 664.517 863.929 662.561 864.35 660.686C864.771 658.811 866.183 657.315 868.031 656.785C870.753 656.004 873.604 657.52 874.479 660.213C875.355 662.906 873.94 665.808 871.279 666.777Z" fill="#F6EBF6"/>
<path d="M725.875 940.936C725.899 932.324 726.213 924.428 728.091 915.974C731.441 902.633 737.47 883.199 745.81 872.271C759.232 854.684 779.733 833.363 796.743 819.079C837.459 784.891 885.924 761.445 928.271 729.468C940.623 720.14 953.512 711.074 963.159 698.803C965.879 695.368 968.898 689.203 972.366 686.926C974.145 687.404 974.782 687.413 976.088 688.728C977.699 692.291 978.46 709.652 978.939 714.771C983.277 761.122 986.713 814.401 974.067 859.612C964.513 893.771 937.85 925.894 906.633 942.283C889.051 951.513 872.524 956.674 853.449 961.204C799.918 973.915 758.245 961.143 707.264 946.032C700.408 943.771 686.055 939.506 680.676 935.257C699.615 940.689 706.287 941.193 725.875 940.936ZM970.179 708.918C967.365 712.561 959.568 730.973 956.165 736.961C948.775 749.965 940.862 762.458 933.363 775.323C941.33 770.335 948.224 765.749 955.082 759.152C956.952 757.354 960.824 752.44 962.332 752.241C961.494 758.758 940.541 775.378 934.135 777.922C929.92 779.596 919.572 795.651 915.658 800.489C928.206 799.31 942.54 791.419 952.221 783.517C955.736 780.648 958.257 777.615 961.414 774.654C951.664 791.692 932.815 800.47 914.296 804.381C909.501 809.379 900.883 820.511 896.252 826.264C915.643 823.596 927.821 817.996 945.208 809.107C946.551 808.42 953.149 804.376 953.834 804.776C951.527 807.57 946.184 810.982 943.105 813.013C926.856 823.733 913.304 826.581 894.34 828.8C889.262 835.093 883.463 842.377 877.84 848.051C890.016 848.197 924.394 839.203 936.14 834.075C941.669 831.66 947.388 828.531 952.626 826.351C935.64 840.285 911.433 847.047 889.883 849.851C884.925 850.496 880.089 850.578 875.158 851.036C870.193 856.73 865.083 862.642 859.762 867.984C876.731 868.166 893.852 865.237 910.337 861.401C916.525 859.961 934.498 853.527 939.07 853.675C916.5 863.644 882.17 874.97 857.319 870.155C851.945 876.151 845.377 882.082 839.463 887.642C868.948 887.419 886.566 885.69 915.976 879.695L916.32 880.965C896.338 887.608 876.827 890.268 855.767 891.046C850.655 891.235 841.041 890.079 835.761 891.504C829.295 895.669 822.366 900.827 815.538 904.897C846.716 906.191 868.606 906.439 900.135 900.565C886.089 908.181 850.693 911.052 834.331 909.595C827.89 909.021 818.784 907.53 812.677 907.468C804.604 912.923 799.238 916.98 790.576 921.908C800.389 922.12 809.336 923.294 818.993 923.9C832.433 924.743 846.799 925.43 860.289 925.561C862.453 925.864 866.524 925.907 867.907 926.831C846.403 928.489 825.084 928.839 803.658 926.353C798.602 925.766 791.906 925.301 786.993 924.243C779.908 928.403 769.952 934.315 762.501 937.617C781.277 940.398 797.802 942.254 816.455 944.534C796.803 946.689 776.358 942.635 756.894 941.302C754.909 941.166 742.56 944.955 739.773 945.823C738.285 945.975 735.667 946.062 734.471 946.756C737.363 948.678 758.271 953.641 762.109 954.309C789.945 960.752 829.074 960.178 856.495 953.192C899.984 942.113 936.283 921.083 958.272 880.644C975.724 848.548 976.601 808.38 975.69 772.61C975.517 764.778 974.344 709.494 970.939 707.581L970.179 708.918ZM957.85 717.004C959.565 714.322 960.183 713.195 961.513 710.304C952.875 717.303 944.277 724.716 935.422 731.425C896.509 760.91 852.824 783.48 814.354 813.558C800.466 824.977 787.132 837.23 774.558 850.072C766.848 857.947 756.22 869.404 750.045 878.288C742.935 888.517 728.75 927.934 732.426 939.427C733.602 940.064 732.967 939.921 734.424 939.563L751.376 935.624C752.025 925.245 761.954 886.682 766.145 877.835C764.164 893.171 758.216 918.649 753.99 934.284C762.898 929.939 772.039 924.399 780.917 919.72C781.991 905.774 786.461 869.475 794.777 858.569C793.829 867.894 791.605 878.399 789.942 887.762C788.236 897.361 786.802 908.45 784.632 917.838C791.276 912.72 799.01 907.16 805.971 902.467C810.304 878.312 810.899 854.053 822.33 831.498C821.882 835.562 821.206 839.466 820.358 843.462C816.267 862.754 813.071 882.358 808.426 901.526C813.145 897.216 818.292 893.24 823.089 889.002C826.7 885.812 830.885 883.198 831.429 877.962C833.669 856.383 832.389 832.173 844.478 813.302C843.923 819.286 840.506 830.143 839.406 837.529C837.328 851.478 836.441 867.164 833.463 880.671C838.934 875.387 844.521 870.847 849.986 865.286C849.853 852.524 854.521 808.336 863.476 798.944L863.943 799.348C863.875 802.735 860.328 816.196 859.576 820.965C857.47 834.304 855.954 847.373 854.178 860.738C858.502 857.055 868.708 846.636 872.084 841.797C873.71 839.467 874.173 830.194 874.494 826.874C876.192 809.343 876.816 796.885 885.865 781.247C881.097 801.916 880.145 815.67 877.393 836.161C880.399 832.778 891.754 820.74 892.703 817.893C899.247 798.264 895.83 780.905 909.899 763.408C903.567 781.328 903.102 793.198 898.86 810.84C903.49 804.004 917.311 787.674 919.71 781.03C925.105 766.09 920.863 761.675 931.934 746.867C927.317 758.29 926.397 762.524 925.675 774.742C930.006 767.856 933.757 760.719 937.954 753.842C945.748 741.069 952.172 730.989 957.85 717.004Z" fill="#F6EBF6"/>
<path d="M444.672 767.022L444.191 766.272C461.818 750.383 467.593 730.687 470.426 707.732C471.01 702.993 471.057 694.017 472.563 689.811L473.111 690.309C473.736 692.697 473.406 695.766 473.501 698.245C474.276 718.356 465.509 757.907 444.672 767.022Z" fill="url(#paint7_linear_17_12491)"/>
<path d="M264.981 948.125C249.33 954.94 233.563 956.85 216.744 956.472C178.336 955.608 142.358 933.432 116.732 905.709C87.0364 873.583 64.802 826.178 51.9638 784.688C47.014 768.691 43.1909 751.367 39.9016 734.819C38.0365 725.436 35.2008 713.405 34.085 703.785C33.9466 702.591 35.1672 699.961 36.2812 699.39C39.2718 697.858 48.5523 701.543 51.662 702.542C71.8849 709.041 91.1077 716.392 110.176 725.767C118.347 729.832 126.37 734.289 134.506 738.411C138.824 740.599 144.298 743.905 148.894 745.108C150.336 747.927 152.217 751.362 153.291 754.266C150.935 754.152 139.239 747.102 136.455 745.638C114.139 733.899 91.2541 722.468 67.4662 714.034C58.1514 710.732 48.989 707.539 39.7622 704.261C41.4344 718.88 47.4462 744.267 51.005 758.563C65.5431 816.965 93.2966 882.805 141.677 920.951C167.916 941.64 203.783 955.238 237.238 949.896C246.19 948.466 256.617 946.907 264.286 941.652C228.205 948.539 182.657 934.331 152.931 913.912C139.331 904.57 115.596 887.079 107.81 872.487C116.652 878.354 123.753 887.851 132.694 894.381C156.407 911.698 181.774 927.649 210.603 934.75C225.603 938.365 245.73 939.864 260.979 940.06C254.76 929.396 254.809 930.314 242.439 929.008C237.142 928.449 231.245 927.375 225.975 926.346C190.211 918.418 161.755 907.204 132.373 884.894C127.77 881.398 114.096 871.585 111.304 867.149L111.697 866.305C115.852 869.639 119.68 873.138 123.948 876.418C158.553 903.014 199.722 921.637 243.338 926.349C246.762 926.719 249.86 927.154 253.194 927.966C250.718 923.937 248.045 919.924 245.112 916.211C237.135 914.908 229.099 913.473 221.275 911.558C162.454 897.161 111.023 858.624 76.3461 809.518C75.6007 808.463 74.8275 807.697 74.7798 806.374C76.7636 806.658 89.4878 821.412 92.1038 824.115C107.162 839.679 120.981 853.667 138.336 866.738C162.883 885.224 187.1 896.716 216.429 905.685C223.873 907.96 236.338 911.591 243.898 912.229C241.535 908.025 235.398 896.367 231.75 894.105C220.476 887.113 203.463 881.149 191.123 875.921C163.762 864.33 141.65 848.488 119.337 829.2C112.629 823.402 104.317 816.735 98.7737 809.874C104.752 813.102 112.828 821.023 118.677 825.415C135.438 838.003 152.518 848.952 170.186 860.147C187.986 871.426 213.883 877.49 230.524 889.002C227.915 884.984 220.91 872.304 218.124 870.408C207.745 863.344 192.937 857.983 181.616 851.918C153.494 836.853 125.063 818.283 102.675 795.438C100.86 793.585 91.697 784.921 91.704 782.475C95.5197 784.975 102.249 792.553 106.645 796.099C116.652 804.17 127.142 812.744 137.619 820.185C162.584 837.914 190.446 851.091 217.372 865.277C209.993 852.647 205.402 849.435 193.209 841.953C183.057 835.723 173.028 829.177 162.44 823.583C146.812 814.787 132.27 805.31 117.657 794.95C105.811 786.552 93.1134 779.365 83.0639 768.582C81.2783 766.666 77.0164 762.754 76.2512 760.469L76.7346 760.222C82.2167 764.72 87.1004 769.402 93.0135 773.629C112.466 787.534 133.4 800.565 153.8 813.024C171.848 824.047 188.662 833.105 205.659 845.721C202.417 837.733 194.388 824.158 188.089 818.404C179.414 810.479 167.107 804.628 156.941 798.651C134.104 785.224 96.3562 761.563 80.2011 740.713C79.2742 739.517 75.545 734.973 75.7836 733.6C81.6761 739.264 82.6574 742.896 90.538 749.337C120.27 773.638 156.409 790.846 187.1 813.621C184.587 806.778 169.68 786.656 170.197 780.54C175.13 786.578 182.998 796.516 188.734 801.643C188.302 808.646 197.257 820.443 201.282 826.498C200.561 821.847 199.902 816.258 200.131 811.549L204.199 814.516C204.213 820.138 204.179 825.581 204.044 831.202C208.779 839.206 213.794 847.871 217.886 856.233C218.033 850.558 217.563 828.668 218.154 824.935L222.436 827.748C221.425 839.215 223.308 853.051 221.823 862.932C224.581 867.891 227.088 872.433 229.641 877.499C231.799 859.819 232.113 851.602 232.01 833.655C233.396 834.421 235.588 835.54 236.853 836.363C236.077 842.238 236.06 850.445 235.646 856.743C235.131 864.575 233.374 875.196 234.142 882.718C234.367 884.918 239.983 893.97 241.502 897.077C244.435 877.304 248.193 863.603 248.62 842.552L253.153 844.438C252.005 851.622 251.933 859.971 251.02 867.615C249.624 879.304 246.192 890.115 244.18 901.298C246.484 905.721 249.088 910.007 251.628 914.301C257.096 893.822 261.341 869.335 262.752 848.191L267.188 849.763C265.804 855.077 266.205 863.398 265.163 869.163C262.267 885.196 258.911 903.603 254.857 919.373C256.807 922.78 258.04 925.47 259.663 929.065C267.37 912.545 278.428 871.077 277.999 853.209L282.55 854.703C279.435 883.389 273.706 904.847 262.962 931.553C264.241 933.885 265.476 936.166 266.854 938.445C283.695 921.029 290.024 895.187 294.302 872.149C295.196 867.337 296.202 862.612 296.596 857.724L300.154 858.49C299.413 870.713 295.544 884.894 291.966 896.647C290.287 902.163 286.747 909.981 285.686 915.313C294.606 901.734 307.775 876.312 311.236 860.258L316.233 860.866C308.311 882.749 299.308 903.884 284.998 922.295C282.529 925.471 280.284 928.998 277.528 931.918C274.443 935.188 269.826 937.87 267.424 941.66C294.706 927.646 314.219 902.347 324.109 873.489C325.374 869.797 326.22 865.961 326.565 862.072L326.616 861.564L331.493 861.616C332.969 862.632 332.161 864.789 331.79 866.339C325.511 892.566 310.489 915.593 290.254 933.181C284.991 937.756 277.173 942.316 271.1 945.941C276.738 956.956 288.189 973.329 292.891 985.301C293.435 986.685 290.957 988.026 289.049 987.637C284.727 983.724 269.146 954.979 264.981 948.125Z" fill="#F6EBF6"/>
<path d="M250.359 704.332C251.579 702.767 251.34 702.897 250.783 701.198L253.78 703.508C254.65 704.428 256.099 705.876 256.866 706.802C253.878 706.28 253.017 705.733 250.359 704.332Z" fill="#020631"/>
<path d="M489.942 756.142L489.612 756.037C489.09 754.968 493.185 747.717 494.091 745.621C500.245 731.38 501.073 716.577 502.182 701.34C503.012 702.057 503.335 703.221 503.39 704.273C504.335 722.134 501.575 742.143 489.942 756.142Z" fill="url(#paint8_linear_17_12491)"/>
<path d="M39.7656 704.261C48.9924 707.539 58.1548 710.732 67.4696 714.034C91.2575 722.468 114.143 733.899 136.459 745.638C139.243 747.102 150.938 754.152 153.294 754.266C157.267 760.838 160.324 767.56 165.102 773.716C166.571 775.608 168.945 778.586 170.201 780.54C169.684 786.656 184.591 806.778 187.104 813.621C156.413 790.846 120.274 773.638 90.5414 749.337C82.6608 742.896 81.6795 739.264 75.787 733.6C75.5484 734.973 79.2776 739.517 80.2045 740.713C96.3596 761.563 134.108 785.224 156.945 798.651C167.111 804.628 179.418 810.479 188.093 818.404C194.392 824.158 202.421 837.733 205.663 845.721C188.666 833.105 171.852 824.047 153.804 813.024C133.404 800.565 112.47 787.534 93.0169 773.629C87.1038 769.402 82.2201 764.72 76.738 760.222L76.2546 760.469C77.0198 762.754 81.2817 766.666 83.0673 768.582C93.1168 779.365 105.815 786.552 117.661 794.95C132.274 805.31 146.816 814.787 162.444 823.583C173.032 829.177 183.061 835.723 193.213 841.953C205.406 849.435 209.997 852.647 217.376 865.277C190.45 851.091 162.588 837.914 137.623 820.185C127.146 812.744 116.655 804.17 106.648 796.099C102.252 792.553 95.5231 784.975 91.7074 782.475C91.7004 784.921 100.864 793.585 102.679 795.438C125.067 818.283 153.498 836.853 181.62 851.918C192.941 857.983 207.749 863.344 218.128 870.408C220.914 872.304 227.919 884.984 230.528 889.002C213.887 877.49 187.99 871.426 170.19 860.147C152.522 848.952 135.442 838.003 118.681 825.415C112.832 821.023 104.756 813.102 98.7771 809.874C104.321 816.735 112.633 823.402 119.341 829.2C141.654 848.488 163.766 864.33 191.127 875.921C203.467 881.149 220.48 887.113 231.754 894.105C235.402 896.367 241.539 908.025 243.902 912.229C236.342 911.591 223.877 907.96 216.433 905.685C187.104 896.716 162.886 885.224 138.339 866.738C120.984 853.667 107.166 839.679 92.1072 824.115C89.4912 821.412 76.767 806.658 74.7832 806.374C74.8309 807.697 75.6041 808.463 76.3495 809.518C111.027 858.624 162.458 897.161 221.279 911.558C229.103 913.473 237.139 914.908 245.116 916.211C248.049 919.924 250.722 923.937 253.198 927.966C249.864 927.154 246.766 926.719 243.342 926.349C199.726 921.637 158.557 903.014 123.952 876.418C119.684 873.138 115.856 869.639 111.701 866.305L111.308 867.149C114.1 871.585 127.774 881.398 132.377 884.894C161.759 907.204 190.215 918.418 225.979 926.346C231.249 927.375 237.146 928.449 242.443 929.008C254.813 930.314 254.763 929.396 260.982 940.06C245.733 939.864 225.607 938.365 210.607 934.75C181.778 927.649 156.411 911.698 132.698 894.381C123.757 887.851 116.656 878.354 107.814 872.487C115.6 887.079 139.334 904.57 152.934 913.912C182.66 934.331 228.209 948.539 264.29 941.652C256.621 946.907 246.194 948.466 237.242 949.896C203.787 955.238 167.92 941.64 141.681 920.951C93.3 882.805 65.5465 816.965 51.0084 758.563C47.4496 744.267 41.4378 718.88 39.7656 704.261Z" fill="#FBF8CC"/>
<path d="M970.177 708.918L970.937 707.581C974.342 709.494 975.515 764.778 975.688 772.61C976.599 808.38 975.722 848.548 958.27 880.644C936.281 921.083 899.982 942.113 856.493 953.192C829.072 960.178 789.943 960.752 762.107 954.309C758.269 953.641 737.361 948.678 734.469 946.756C735.665 946.062 738.283 945.975 739.771 945.823C742.968 947.633 758.843 951.774 762.856 952.281C787.172 958.338 819.878 957.906 844.413 953.184C883.979 945.41 924.387 924.249 947.203 890.175C964.781 864.109 970.986 836.728 972.43 805.941C973.614 780.692 975.704 756.831 972.555 731.495C971.561 723.498 971.873 717.395 970.177 708.918Z" fill="#8EECF5"/>
<path d="M933.363 775.323C940.862 762.458 948.775 749.965 956.165 736.961C959.568 730.973 967.365 712.561 970.179 708.918C971.875 717.395 971.563 723.498 972.557 731.495C975.706 756.831 973.616 780.692 972.432 805.941C970.988 836.728 964.783 864.109 947.205 890.175C924.389 924.249 883.981 945.41 844.415 953.184C819.88 957.906 787.174 958.338 762.858 952.281C758.845 951.774 742.97 947.633 739.773 945.823C742.56 944.955 754.909 941.166 756.894 941.302C776.358 942.635 796.803 946.689 816.455 944.534C797.802 942.254 781.277 940.398 762.501 937.617C769.952 934.315 779.908 928.403 786.993 924.243C791.906 925.301 798.602 925.766 803.658 926.353C825.084 928.839 846.403 928.489 867.907 926.831C869.107 926.726 872.165 926.417 873.064 925.779C869.196 925.289 864.268 925.507 860.289 925.561C846.799 925.43 832.433 924.743 818.993 923.9C809.336 923.294 800.389 922.12 790.576 921.908C799.238 916.98 804.604 912.923 812.677 907.468C818.784 907.53 827.89 909.021 834.331 909.595C850.693 911.052 886.089 908.181 900.135 900.565C868.606 906.439 846.716 906.191 815.538 904.897C822.366 900.827 829.295 895.669 835.761 891.504C841.041 890.079 850.655 891.235 855.767 891.046C876.827 890.268 896.338 887.608 916.32 880.965C917.916 880.531 920.743 879.933 921.623 878.592C919.891 878.274 917.742 879.163 915.976 879.695C886.566 885.69 868.948 887.419 839.463 887.642C845.377 882.082 851.945 876.151 857.319 870.155C882.17 874.97 916.5 863.644 939.07 853.675C934.498 853.527 916.525 859.961 910.337 861.401C893.852 865.237 876.731 868.166 859.762 867.984C865.083 862.642 870.193 856.73 875.158 851.036C880.089 850.578 884.925 850.496 889.883 849.851C911.433 847.047 935.64 840.285 952.626 826.351C947.388 828.531 941.669 831.66 936.14 834.075C924.394 839.203 890.016 848.197 877.84 848.051C883.463 842.377 889.262 835.093 894.34 828.8C913.304 826.581 926.856 823.733 943.105 813.013C946.184 810.982 951.527 807.57 953.834 804.776C953.149 804.376 946.551 808.42 945.208 809.107C927.821 817.996 915.643 823.596 896.252 826.264C900.883 820.511 909.501 809.379 914.296 804.381C932.815 800.47 951.664 791.692 961.414 774.654C958.257 777.615 955.736 780.648 952.221 783.517C942.54 791.419 928.206 799.31 915.658 800.489C919.572 795.651 929.92 779.596 934.135 777.922C940.541 775.378 961.494 758.758 962.332 752.241C960.824 752.44 956.952 757.354 955.082 759.152C948.224 765.749 941.33 770.335 933.363 775.323Z" fill="#E6DFD5"/>
<path d="M957.85 717.004C950.511 720.821 939.25 731.086 931.947 736.455C895.367 763.35 855.294 784.783 819.262 812.458C803.902 824.506 789.119 838.602 775.428 852.519C769.686 858.355 758.592 869.162 754.467 875.665C742.502 894.528 736.341 917.803 734.424 939.563C732.967 939.921 733.602 940.064 732.426 939.427C728.75 927.934 742.935 888.517 750.045 878.288C756.22 869.404 766.848 857.947 774.558 850.072C787.132 837.23 800.466 824.977 814.354 813.558C852.824 783.48 896.509 760.91 935.422 731.425C944.277 724.716 952.875 717.303 961.513 710.304C960.183 713.195 959.565 714.322 957.85 717.004Z" fill="#8EECF5"/>
<path d="M734.422 939.563C736.339 917.803 742.5 894.528 754.465 875.665C758.59 869.162 769.684 858.355 775.426 852.519C789.117 838.602 803.9 824.506 819.26 812.458C855.292 784.783 895.365 763.35 931.945 736.455C939.248 731.086 950.509 720.821 957.848 717.004C952.17 730.989 945.746 741.069 937.952 753.842C933.755 760.719 930.004 767.856 925.673 774.742C926.395 762.524 927.315 758.29 931.932 746.867C920.861 761.675 925.103 766.09 919.708 781.03C917.309 787.674 903.488 804.004 898.858 810.84C903.1 793.198 903.565 781.328 909.897 763.408C895.828 780.905 899.245 798.264 892.701 817.893C891.752 820.74 880.397 832.778 877.391 836.161C880.143 815.67 881.095 801.916 885.863 781.247C876.814 796.885 876.19 809.343 874.492 826.874C874.171 830.194 873.708 839.467 872.082 841.797C868.706 846.636 858.5 857.055 854.176 860.738C855.952 847.373 857.468 834.304 859.574 820.965C860.326 816.196 863.873 802.735 863.941 799.348L863.474 798.944C854.519 808.336 849.851 852.524 849.984 865.286C844.519 870.847 838.932 875.387 833.461 880.671C836.439 867.164 837.326 851.478 839.404 837.529C840.504 830.143 843.921 819.286 844.476 813.302C832.387 832.173 833.667 856.383 831.427 877.962C830.883 883.198 826.698 885.812 823.087 889.002C818.29 893.24 813.143 897.216 808.424 901.526C813.069 882.358 816.265 862.754 820.356 843.462C821.204 839.466 821.88 835.562 822.328 831.498C810.897 854.053 810.302 878.312 805.969 902.467C799.008 907.16 791.274 912.72 784.63 917.838C786.8 908.45 788.234 897.361 789.94 887.762C791.603 878.399 793.827 867.894 794.775 858.569C786.459 869.475 781.989 905.774 780.915 919.72C772.037 924.399 762.896 929.939 753.988 934.284C758.214 918.649 764.162 893.171 766.143 877.835C761.952 886.682 752.023 925.245 751.374 935.624L734.422 939.563Z" fill="#E6DFD5"/>
<path d="M806.775 739.077C805.007 739.721 803.028 739.364 801.597 738.141C800.166 736.919 799.503 735.021 799.862 733.174C800.221 731.326 801.546 729.814 803.331 729.217C806.041 728.311 808.976 729.75 809.918 732.448C810.86 735.145 809.46 738.099 806.775 739.077Z" fill="#F6EBF6"/>
<path d="M703.234 796.949C700.581 797.985 697.586 796.707 696.499 794.074C695.411 791.441 696.631 788.422 699.242 787.283C700.977 786.526 702.985 786.766 704.493 787.91C706.002 789.054 706.774 790.924 706.513 792.799C706.252 794.674 704.998 796.261 703.234 796.949Z" fill="#F6EBF6"/>
<path d="M188.738 801.643C192.54 805.037 196.252 808.257 200.135 811.549C199.906 816.258 200.565 821.847 201.286 826.498C197.261 820.443 188.306 808.646 188.738 801.643Z" fill="#FBF8CC"/>
<path d="M204.202 814.516C207.079 816.576 215.895 822.739 218.157 824.935C217.566 828.668 218.036 850.558 217.889 856.233C213.797 847.871 208.782 839.206 204.047 831.202C204.182 825.581 204.216 820.138 204.202 814.516Z" fill="#FBF8CC"/>
<path d="M222.437 827.748L232.011 833.655C232.114 851.602 231.8 859.819 229.642 877.499C227.089 872.433 224.582 867.891 221.824 862.932C223.309 853.051 221.426 839.215 222.437 827.748Z" fill="#FBF8CC"/>
<path d="M236.856 836.363L248.623 842.552C248.196 863.603 244.438 877.304 241.505 897.077C239.986 893.97 234.37 884.918 234.145 882.718C233.377 875.196 235.134 864.575 235.649 856.743C236.063 850.445 236.08 842.238 236.856 836.363Z" fill="#FBF8CC"/>
<path d="M253.157 844.438L262.756 848.191C261.345 869.335 257.1 893.822 251.632 914.301C249.092 910.007 246.488 905.721 244.184 901.298C246.196 890.115 249.628 879.304 251.024 867.615C251.937 859.971 252.009 851.622 253.157 844.438Z" fill="#FBF8CC"/>
<path d="M267.19 849.763C270.61 850.855 274.599 852.248 278.001 853.209C278.43 871.077 267.372 912.545 259.665 929.065C258.042 925.47 256.809 922.78 254.859 919.373C258.913 903.603 262.269 885.196 265.165 869.163C266.207 863.398 265.806 855.077 267.19 849.763Z" fill="#FBF8CC"/>
<path d="M282.554 854.703C286.923 855.692 292.25 857.045 296.6 857.724C296.206 862.612 295.199 867.337 294.305 872.149C290.027 895.187 283.699 921.029 266.858 938.445C265.48 936.166 264.244 933.885 262.965 931.553C273.709 904.847 279.439 883.389 282.554 854.703Z" fill="#FBF8CC"/>
<path d="M300.155 858.49C303.828 859.07 307.581 859.623 311.237 860.258C307.776 876.312 294.608 901.734 285.688 915.313C286.748 909.981 290.289 902.163 291.968 896.647C295.546 884.894 299.414 870.713 300.155 858.49Z" fill="#FBF8CC"/>
<path d="M643.312 870.274C640.689 871.102 637.879 869.711 636.946 867.124C636.013 864.536 637.289 861.673 639.837 860.636C641.579 859.927 643.57 860.229 645.023 861.423C646.476 862.617 647.159 864.511 646.802 866.358C646.445 868.204 645.106 869.707 643.312 870.274Z" fill="#F6EBF6"/>
<path d="M316.234 860.866C319.566 861.11 323.316 861.465 326.617 861.564L326.567 862.072C326.222 865.961 325.376 869.797 324.111 873.489C314.221 902.347 294.708 927.646 267.426 941.66C269.828 937.87 274.445 935.188 277.53 931.918C280.286 928.998 282.531 925.471 285 922.295C299.31 903.884 308.312 882.749 316.234 860.866Z" fill="#FBF8CC"/>
<path d="M915.977 879.695C917.743 879.163 919.892 878.274 921.624 878.592C920.744 879.933 917.917 880.531 916.321 880.965L915.977 879.695Z" fill="#FDE4CF"/>
<path d="M476.585 904.28C473.948 905.133 471.111 903.731 470.188 901.118C469.264 898.505 470.589 895.631 473.176 894.637C474.912 893.97 476.875 894.298 478.3 895.494C479.725 896.69 480.388 898.566 480.032 900.392C479.675 902.219 478.356 903.707 476.585 904.28Z" fill="#F6EBF6"/>
<path d="M860.289 925.561C864.268 925.507 869.196 925.289 873.064 925.779C872.165 926.417 869.107 926.726 867.907 926.831C866.524 925.907 862.453 925.864 860.289 925.561Z" fill="#FDE4CF"/>
<path d="M407.43 967.205C399.246 967.774 398.995 962.04 404.501 957.433C411.101 957.74 413.175 963.864 407.43 967.205Z" fill="#F6EBF6"/>
<path d="M950.749 969.858C948.849 970.238 946.891 969.562 945.631 968.09C944.37 966.618 944.004 964.579 944.673 962.76C945.342 960.941 946.942 959.626 948.856 959.321C951.735 958.863 954.451 960.792 954.967 963.661C955.483 966.531 953.608 969.285 950.749 969.858Z" fill="#F6EBF6"/>
<path d="M66.7449 971.112C63.9753 971.955 61.0282 970.493 60.0241 967.778C59.02 965.062 60.307 962.035 62.9591 960.873C64.8184 960.059 66.9756 960.342 68.5621 961.608C70.1486 962.874 70.9032 964.915 70.522 966.908C70.1408 968.902 68.6866 970.52 66.7449 971.112Z" fill="#F6EBF6"/>
<path d="M565.29 977.176C562.496 977.889 559.653 976.197 558.948 973.4C558.243 970.604 559.943 967.766 562.741 967.068C565.528 966.373 568.353 968.065 569.056 970.851C569.758 973.637 568.074 976.466 565.29 977.176Z" fill="#F6EBF6"/>
<defs>
<linearGradient id="paint0_linear_17_12491" x1="593.557" y1="375.087" x2="606.088" y2="306.052" gradientUnits="userSpaceOnUse">
<stop stop-color="#040D32"/>
<stop offset="1" stop-color="#0F0550"/>
</linearGradient>
<linearGradient id="paint1_linear_17_12491" x1="799.284" y1="451.27" x2="804.463" y2="451.223" gradientUnits="userSpaceOnUse">
<stop stop-color="#000E0C"/>
<stop offset="1" stop-color="#050020"/>
</linearGradient>
<linearGradient id="paint2_linear_17_12491" x1="626.611" y1="526.368" x2="639.768" y2="523.955" gradientUnits="userSpaceOnUse">
<stop stop-color="#13081D"/>
<stop offset="1" stop-color="#0C095F"/>
</linearGradient>
<linearGradient id="paint3_linear_17_12491" x1="771.334" y1="543.616" x2="787.272" y2="554.402" gradientUnits="userSpaceOnUse">
<stop stop-color="#18132E"/>
<stop offset="1" stop-color="#090445"/>
</linearGradient>
<linearGradient id="paint4_linear_17_12491" x1="436.368" y1="593.731" x2="462.928" y2="581.885" gradientUnits="userSpaceOnUse">
<stop stop-color="#120A2B"/>
<stop offset="1" stop-color="#01014C"/>
</linearGradient>
<linearGradient id="paint5_linear_17_12491" x1="549.082" y1="590.775" x2="571.577" y2="588.595" gradientUnits="userSpaceOnUse">
<stop stop-color="#180E2F"/>
<stop offset="1" stop-color="#050557"/>
</linearGradient>
<linearGradient id="paint6_linear_17_12491" x1="497.722" y1="625.811" x2="501.372" y2="625.523" gradientUnits="userSpaceOnUse">
<stop stop-color="#090C11"/>
<stop offset="1" stop-color="#060349"/>
</linearGradient>
<linearGradient id="paint7_linear_17_12491" x1="458.581" y1="728.102" x2="467.816" y2="731.376" gradientUnits="userSpaceOnUse">
<stop stop-color="#020F1F"/>
<stop offset="1" stop-color="#0B0152"/>
</linearGradient>
<linearGradient id="paint8_linear_17_12491" x1="495.555" y1="727.759" x2="500.875" y2="729.116" gradientUnits="userSpaceOnUse">
<stop stop-color="#040C0B"/>
<stop offset="1" stop-color="#03023F"/>
</linearGradient>
</defs>
</svg>
