<svg width="1024" height="1024" viewBox="0 0 1024 1024" fill="none" xmlns="http://www.w3.org/2000/svg">
<path d="M503.565 183.007C558.99 140.407 639.616 118.137 709.076 125.633C799.527 135.394 858.03 223.757 878.978 305.193C888.301 341.435 889.527 378.852 882.699 415.644C877.734 437.36 872.338 454.721 859.928 473.709C858.735 475.535 855.358 480.634 854.046 481.911L854.002 482.228C838.989 499.518 826.068 512.516 802.697 518.979C797.261 520.482 793.383 520.118 788.575 520.983C785.65 516.138 777.433 505.767 776.529 501.674C777.314 500.03 784.883 496.235 787.679 493.635C795.428 486.427 797.86 480.608 798.569 470.344C797.028 456.96 792.48 448.859 783.432 438.702C778.383 433.034 772.782 429.055 767.464 423.837L768.014 421.879C772.982 418.664 780.039 419.829 785.917 418.665C794.357 416.993 806.98 414.029 810.245 405.005C812.955 397.518 803.407 395.497 800.487 390.28C798.123 384.451 815.303 380.245 809.856 371.139C805.208 363.369 796.125 358.735 788.049 355.614C780.933 324.005 764.13 300.724 740.697 278.963C672.483 215.614 571.852 198.888 481.734 202.582C483.135 200.35 487.46 196.75 489.653 194.673L493.752 190.712C497.192 187.637 499.798 185.725 503.565 183.007Z" fill="#B9FBC0"/>
<path d="M153.585 536.07C141.406 527.198 122.602 509.913 115.606 496.359C84.7626 436.767 62.5304 356.971 81.3183 290.619C96.9495 235.415 145.627 196.467 196.28 174.002C262.65 144.566 344.084 111.793 416.246 141.971C440.969 152.311 462.309 163.926 486.255 175.419C492.036 178.17 498.004 180.025 503.566 183.007C499.799 185.725 497.193 187.637 493.753 190.712C489.119 188.548 479.528 188.303 474.242 188.448C376.274 191.135 282.311 239.378 203.189 293.948C199.576 296.44 185.416 305.455 185.14 309.257C186.086 310.715 185.436 310.194 187.298 310.681C192.737 309.664 201.195 302.02 206.192 298.836C219.748 290.195 232.913 280.361 246.768 272.161C318.668 229.602 404.304 191.279 489.654 194.673C487.461 196.75 483.136 200.35 481.735 202.582C467.299 204.68 452.585 205.639 438.216 208.02C394.615 215.245 352.648 229.627 315.707 254.212C311.808 256.807 304.646 262.599 300.901 264.565C300.511 264.428 300.12 264.29 299.73 264.153C291.535 267.169 282.588 270.932 274.812 274.923C237.664 293.986 201.122 317.311 173.805 349.342C170.918 352.727 161.877 362.946 163.01 367.259C164.52 368.816 163.65 368.407 165.582 368.767C168.545 367.586 169.78 364.253 171.439 361.681C176.564 353.735 183.902 345.983 190.714 339.414C200.766 329.72 212.057 321.06 223.123 312.583C234.837 304.636 270.154 282.186 282.871 279.055C277.065 285.736 271.134 291.673 265.338 298.573C262.229 298.17 245.405 309.687 242.066 311.548C229.787 318.395 172.13 361.696 169.833 373.468C170.274 374.888 170.333 374.777 171.539 375.704C173.695 375.168 193.925 354.761 198.228 350.996C208.457 342.049 246.019 312.369 257.802 309.931C251.579 320.821 246.948 331.198 243.825 343.443C238.73 345.251 231.754 352.855 227.194 356.35C201.18 376.285 178.004 401.253 157.548 426.742C150.849 435.09 122.552 472.83 123.813 481.635C124.978 482.778 124.262 482.397 126.192 482.471C129.049 480.308 136.653 466.156 139.065 462.451C164.174 423.885 194.733 388.824 230.888 360.225C233.423 358.22 240.015 351.711 242.304 350.677C241.804 353.849 241.172 357.362 240.785 360.518C233.836 364.553 227.545 368.416 221.756 374.125C212.119 383.63 205.447 392.394 219.817 401.421C206.428 414.179 187.936 447.13 179.151 463.689C168.298 484.146 157.833 513.321 153.585 536.07Z" fill="#FDE4CF"/>
<path d="M489.655 194.673C404.305 191.279 318.669 229.602 246.769 272.161C232.914 280.361 219.749 290.195 206.193 298.836C201.196 302.02 192.738 309.664 187.299 310.681C185.437 310.194 186.087 310.715 185.141 309.257C185.417 305.455 199.577 296.44 203.19 293.948C282.312 239.378 376.275 191.135 474.243 188.448C479.529 188.303 489.12 188.548 493.754 190.712L489.655 194.673Z" fill="#FCFCF7"/>
<path d="M300.903 264.565C304.648 262.599 311.81 256.807 315.709 254.212C352.65 229.627 394.617 215.245 438.218 208.02C452.587 205.639 467.301 204.68 481.737 202.582C571.855 198.888 672.486 215.614 740.7 278.963C764.133 300.724 780.936 324.005 788.052 355.614C796.128 358.735 805.211 363.369 809.859 371.139C815.306 380.245 798.126 384.451 800.49 390.28C803.41 395.497 812.958 397.518 810.248 405.005C806.983 414.029 794.36 416.993 785.92 418.665C780.042 419.829 772.985 418.664 768.017 421.879L767.696 420.695C765.096 419.883 760.387 421.73 758.152 423.009C748.696 428.421 743.873 437.673 733.342 442.421C721.799 447.626 708.907 443.774 696.789 443.132C688.658 442.701 680.33 442.551 672.434 444.429C663.356 445.437 657.734 451.674 650.396 456.283C626.997 470.98 592.712 454.246 566.495 458.566C546.698 461.827 532.747 476.87 511.397 474.224C493.88 472.053 487.615 456.545 473.365 453.073C460.845 450.023 441.119 454.587 428.195 456.173C419.465 457.245 410.713 457.737 401.953 456.73C386.623 454.967 381.167 442.477 374.116 442.142C360.271 441.485 341.654 454.407 327.516 450.839C312.075 446.942 296.717 420.077 291.414 419.201C291.151 419.158 290.884 419.137 290.619 419.104C290.268 418.917 289.382 418.233 289.024 417.971C287.374 415.99 281.365 415.153 278.8 414.842C265.372 413.212 251.704 412.308 238.621 408.64C233.475 407.46 228.747 405.566 223.901 403.533L219.819 401.421C205.449 392.394 212.121 383.63 221.758 374.125C227.547 368.416 233.838 364.553 240.787 360.518C241.174 357.362 241.806 353.849 242.306 350.677L243.827 343.443C246.95 331.198 251.581 320.821 257.804 309.931C259.939 306.331 262.96 302.1 265.34 298.573C271.136 291.673 277.067 285.736 282.873 279.055C288.997 274.535 295.018 269.427 300.903 264.565ZM592.674 214.654C579.178 211.683 566.625 210.432 552.635 208.932C488.788 202.084 422.216 209.774 362.445 233.689C348.064 239.443 334.209 248.033 320.954 255.879C286.879 277.97 255.715 307.275 247.064 348.661C244.758 359.69 242.333 376.334 249.525 386.467C265.555 409.052 309.808 418.088 335.601 424.195C339.668 425.158 351.857 427.301 355.644 427.789C357.677 428.489 362.899 429.315 365.19 429.688C434.174 440.913 506.022 444.495 575.755 439.831C640.867 435.475 713.215 430.492 769.818 395.091C776.54 390.887 783.593 382.713 784.466 374.551C787.552 339.025 762.335 304.329 737.048 281.753C697.536 245.571 644.929 223.504 592.674 214.654ZM487.2 445.66C471.064 444.516 455.044 443.963 438.945 442.863C414.148 441.168 389.225 437.596 364.6 434.18C350.563 432.232 335.82 428.918 321.944 426.044C314.585 424.52 304.744 421.199 297.84 420.03C304.389 428.678 318.477 447.176 329.731 447.915C344.056 448.857 359.793 439.075 375.389 438.682C383.105 442.157 385.899 449.212 393.668 451.943C418.639 460.721 444.168 445.569 469.317 448.924C491.483 453.737 499.082 480.983 531.657 468.963C539.458 466.085 545.314 462.412 552.675 458.826C582.176 448.205 605.712 461.177 635.359 457.973C648.995 456.5 655.557 441.449 667.522 438.279C686.982 433.123 708.026 441.986 727.698 438.766C739.684 437.93 749.389 420.214 758.518 417.644C775.168 412.957 795.75 419.727 807.664 401.981C803.915 398.65 796.838 396.217 795.318 391.477C793.416 384.906 801.952 381.386 804.503 376.605C808.792 368.567 794.402 362.769 788.814 360.603C789.744 372.494 788.7 384.505 779.428 392.815C763.5 407.091 734.388 419.345 713.551 424.763C641.038 443.618 561.361 445.6 487.2 445.66ZM239.244 365.412C197.383 392.435 216.709 400.431 253.397 407.779C260.089 408.868 268.105 410.375 274.793 410.747C259.313 402.126 247.087 397.183 241.455 378.307C240.374 374.686 240.324 366.768 239.244 365.412Z" fill="#696078"/>
<path d="M355.642 427.789C351.855 427.301 339.666 425.158 335.599 424.195C309.806 418.088 265.553 409.052 249.523 386.467C242.331 376.334 244.756 359.69 247.062 348.661C255.713 307.275 286.877 277.97 320.952 255.879C334.207 248.033 348.062 239.443 362.443 233.689C422.214 209.774 488.786 202.084 552.633 208.932C566.623 210.432 579.176 211.683 592.672 214.654C591.373 215.68 591.329 215.911 589.585 215.874C580.075 215.671 569.546 214.999 560.092 215.934C552.854 216.65 532.33 220.3 527.357 225.677C525.172 226.749 524.567 227.157 522.621 228.633C512.966 231.643 503.124 233.956 493.993 238.372C489.064 240.756 480.247 243.121 475.997 246.011C465.709 242.561 457.226 243.903 449.727 252.249C443.973 254.029 420.181 269.593 416.569 274.416C411.999 276.608 409.692 278.098 405.954 281.615C401.365 283.466 381.594 302.451 377.767 307.2C353.301 337.565 328.268 381.691 350.825 419.886C352.295 422.393 354.499 424.817 356.13 427.328L355.642 427.789ZM380.345 287.714C371.43 282.09 356.28 299.18 359.168 308.615L359.939 309.228C368.637 310.464 382.428 297.384 380.345 287.714ZM489.342 214.215C481.334 214.792 473.839 217.452 484.422 224.11C489.617 227.378 495.586 228.138 501.604 228.08C519.856 226.864 506.406 213.041 489.342 214.215ZM441.156 222.626C435.408 223.623 422.162 227.774 422.069 234.725C424.127 238.411 428.439 237.729 432.208 237.627C438.33 236.536 450.308 233.308 450.198 225.406C448.309 222.241 444.504 222.434 441.156 222.626ZM390.911 234.567C385.534 236.273 372.851 242.25 374.321 249.327C376.301 252.034 379.685 251.2 382.64 250.845C388.524 249.375 399.861 244.435 399.649 237.168C397.642 233.553 394.53 234.319 390.911 234.567ZM357.79 266.089C350.596 268.077 344.284 272.982 340.366 279.301C338.757 281.894 337.269 286.025 340.051 288.276C342.081 288.544 342.783 288.458 344.68 287.614C350.707 284.873 367.784 277.953 364.637 268.619C363.782 266.082 360.064 266.026 357.79 266.089ZM329.11 316.055C322.863 319.321 319.002 323.152 316.929 330.151C314.973 336.757 316.298 340.65 323.816 339.965C329.949 336.193 334.391 330.761 336.29 323.754C337.943 317.652 334.799 315.394 329.11 316.055Z" fill="#FBF8CC"/>
<path d="M501.603 228.08C495.585 228.138 489.616 227.378 484.421 224.11C473.838 217.452 481.333 214.792 489.341 214.215C506.405 213.041 519.855 226.864 501.603 228.08ZM489.364 217.188C487.421 217.383 485.511 217.343 483.956 218.441L483.704 219.458C486.459 223.415 497.684 225.061 502.363 225.318C504.607 224.961 504.692 224.936 506.635 223.81L507.169 222.97C505.367 217.898 494.094 216.98 489.364 217.188Z" fill="#59637C"/>
<path d="M592.673 214.654C644.928 223.504 697.535 245.571 737.047 281.753C762.334 304.329 787.551 339.025 784.465 374.551C783.592 382.713 776.539 390.887 769.817 395.091C713.214 430.492 640.866 435.475 575.754 439.831C506.021 444.495 434.173 440.913 365.189 429.688C362.898 429.315 357.676 428.489 355.643 427.789L356.131 427.328C354.5 424.817 352.296 422.393 350.826 419.886C328.269 381.691 353.302 337.565 377.768 307.2C381.595 302.451 401.366 283.466 405.955 281.615C395.979 298.45 407.045 298.593 418.655 290.188C426.227 284.708 429.099 274.925 416.57 274.416C420.182 269.593 443.974 254.029 449.728 252.249C450.796 263.6 473.759 256.944 477.213 249.22C477.141 247.164 477.273 247.907 475.998 246.011C480.248 243.121 489.065 240.756 493.994 238.372C503.125 233.956 512.967 231.643 522.622 228.633C519.433 242.731 549.552 238.007 551.51 229.042C549.451 221.761 533.05 224.872 527.358 225.677C532.331 220.3 552.855 216.65 560.093 215.934C569.547 214.999 580.076 215.671 589.586 215.874C591.33 215.911 591.374 215.68 592.673 214.654ZM589.424 223.21C585.674 223.544 579.608 225.107 578.762 229.428C580.059 236.468 591.685 235.54 597.125 235.486C599.091 235.278 604.916 234.202 605.543 232.558C609 223.49 593.203 223.09 589.424 223.21ZM564.876 251.62C551.835 257.034 568.25 264.611 574.123 266.02C577.772 266.896 580.114 266.815 583.773 266.421C588.166 263.793 590.559 259.972 585.51 256.327C579.694 252.13 571.884 251.182 564.876 251.62ZM632.384 252.532C630.195 254.049 627.885 256.394 630.443 259.06C636.425 265.294 648.552 268.99 657.011 268.315C658.067 267.559 659.451 266.654 659.626 265.294C660.862 255.731 648.762 253.74 641.775 252.88C638.523 252.479 635.482 252.408 632.384 252.532ZM510.573 260.661C493.556 263.664 506.36 277.304 523.056 274.845C536.169 271.483 529.601 264.557 520.772 261.872C517.197 260.786 514.252 260.655 510.573 260.661ZM469.131 273.02C462.063 276.333 453.271 285.868 456.738 294.008C458.689 295.945 459.778 296.101 462.429 295.598C468.486 292.444 473.508 287.509 475.652 280.837C477.325 275.631 474.126 272.873 469.131 273.02ZM688.093 288.114C686.056 288.761 685.598 288.758 684.114 290.18C681.169 297.607 700.103 303.635 705.862 303.642C709.197 302.361 711.81 299.316 709.091 295.909C703.833 289.319 696.074 287.683 688.093 288.114ZM612.547 288.589C596.282 294.758 622.475 304.411 628.372 305.624C639.104 303.75 630.225 287.471 612.547 288.589ZM571.916 303.036C568.468 304.816 566.06 307.34 569.291 310.896C574.401 316.52 581.941 319.245 589.324 318.231C591.956 316.77 595.58 313.978 592.806 310.58C588.076 304.787 579.158 302.699 571.916 303.036ZM509.37 310.492C500.484 313.294 486.547 330.411 499.407 334.592C505.589 332.949 508.439 330.291 511.791 324.735C514.429 320.363 516.829 311.581 509.37 310.492ZM414.629 321.012C404.549 327.273 404.893 346.717 415.447 345.231C423.602 339.119 427.567 320.467 414.629 321.012ZM662.843 324.571C658.942 328.148 660.834 331.584 664.322 334.638C669.052 338.779 678.627 345.189 685.014 344.822C689.537 340.941 688.071 336.491 684.106 332.878C678.082 327.392 671.193 323.818 662.843 324.571ZM552.64 333.458C547.144 336.16 545.253 340.313 543.181 345.816C541.406 350.534 539.194 361.034 546.936 361.352C556.857 356.544 565.056 334.079 552.64 333.458ZM613.419 339.495C608.544 343.84 612.939 348.696 616.631 352.246C620.577 356.041 627.005 361.326 632.798 360.551C642.287 351.225 622.058 338.699 613.419 339.495ZM457.689 357.377C450.378 364.622 452.009 384.886 462.82 384.874C470.656 378.227 469.451 358.171 457.689 357.377Z" fill="#B9FBC0"/>
<path d="M502.366 225.318C497.687 225.061 486.462 223.415 483.707 219.458L483.959 218.441C485.514 217.343 487.424 217.383 489.367 217.188C494.097 216.98 505.37 217.898 507.172 222.97L506.638 223.81C504.695 224.936 504.61 224.961 502.366 225.318Z" fill="#FCFCF7"/>
<path d="M432.209 237.627C428.44 237.729 424.128 238.411 422.07 234.725C422.163 227.774 435.409 223.623 441.157 222.626C444.505 222.434 448.31 222.241 450.199 225.406C450.309 233.308 438.331 236.536 432.209 237.627ZM442.843 225.251C435.134 226.308 429.752 228.983 424.184 234.295C431.277 234.721 434.853 234.662 441.53 231.831C443.749 230.826 447.001 229.214 446.438 226.408C445.227 225.294 444.498 225.41 442.843 225.251Z" fill="#59637C"/>
<path d="M597.125 235.486C591.685 235.54 580.059 236.468 578.762 229.428C579.608 225.107 585.674 223.544 589.424 223.21C593.203 223.09 609 223.49 605.543 232.558C604.916 234.202 599.091 235.278 597.125 235.486ZM586.297 226.105C584.708 226.982 584.029 227.199 582.941 228.674C582.687 233.535 596.551 232.025 599.897 231.512C601.968 230.68 601.816 231.112 602.882 229.584C601.394 225.542 590.016 225.907 586.297 226.105Z" fill="#595E68"/>
<path d="M522.623 228.633C524.569 227.157 525.174 226.749 527.359 225.677C533.051 224.872 549.452 221.761 551.511 229.042C549.553 238.007 519.434 242.731 522.623 228.633ZM540.263 227.711C535.59 228.013 529.632 228.152 525.899 231.36L525.872 232.249C528.991 233.883 530.547 233.652 534.149 233.586C539.055 233.41 543.565 233.246 547.535 229.947L547.777 228.985C546.008 227.313 542.678 227.67 540.263 227.711Z" fill="#546067"/>
<path d="M424.184 234.295C429.752 228.983 435.134 226.308 442.843 225.251C442.236 227.186 441.048 230.001 441.53 231.831C434.853 234.662 431.277 234.721 424.184 234.295Z" fill="#FBF8CC"/>
<path d="M442.843 225.251C444.498 225.41 445.227 225.294 446.438 226.408C447.001 229.214 443.749 230.826 441.53 231.831C441.048 230.001 442.236 227.186 442.843 225.251Z" fill="#FCFCF7"/>
<path d="M599.897 231.512C596.551 232.025 582.687 233.535 582.941 228.674C584.029 227.199 584.708 226.982 586.297 226.105C590.016 225.907 601.394 225.542 602.882 229.584C601.816 231.112 601.968 230.68 599.897 231.512Z" fill="#8EECF5"/>
<path d="M534.148 233.586C530.546 233.652 528.99 233.883 525.871 232.249L525.898 231.36C529.631 228.152 535.589 228.013 540.262 227.711C542.677 227.67 546.007 227.313 547.776 228.985L547.534 229.947C543.564 233.246 539.054 233.41 534.148 233.586Z" fill="#8EECF5"/>
<path d="M382.64 250.845C379.685 251.2 376.301 252.034 374.321 249.327C372.851 242.25 385.534 236.273 390.911 234.567C394.53 234.319 397.642 233.553 399.649 237.168C399.861 244.435 388.524 249.375 382.64 250.845ZM391.398 237.558C383.821 240.221 380.821 241.346 376.461 248.62L382.293 247.823C386.428 246.464 394.728 243.39 396.133 238.761C395.193 236.714 393.45 237.361 391.398 237.558Z" fill="#59637C"/>
<path d="M376.461 248.62C380.821 241.346 383.821 240.221 391.398 237.558C393.45 237.361 395.193 236.714 396.133 238.761C394.728 243.39 386.428 246.464 382.293 247.823L376.461 248.62Z" fill="#E6DFD5"/>
<path d="M449.727 252.249C457.226 243.903 465.709 242.561 475.997 246.011C477.272 247.907 477.14 247.164 477.212 249.22C473.758 256.944 450.795 263.6 449.727 252.249ZM472.047 247.473C466.535 246.268 461.244 247.104 456.407 250.018C454.75 251.036 454.13 251.269 453.507 252.823L454.079 253.738C458.551 255.703 471.325 253.179 474.005 248.935L473.696 248.114L472.047 247.473Z" fill="#595E68"/>
<path d="M456.406 250.018C461.243 247.104 466.534 246.268 472.046 247.473C470.47 250.306 461.092 251.99 457.883 251.089C457.544 250.994 456.72 250.278 456.406 250.018Z" fill="#FCFCF7"/>
<path d="M472.048 247.473L473.697 248.114L474.006 248.935C471.326 253.179 458.552 255.703 454.08 253.738L453.508 252.823C454.131 251.269 454.751 251.036 456.408 250.018C456.722 250.278 457.546 250.994 457.885 251.089C461.094 251.99 470.472 250.306 472.048 247.473Z" fill="#8EECF5"/>
<path d="M583.774 266.421C580.115 266.815 577.773 266.896 574.124 266.02C568.251 264.611 551.836 257.034 564.877 251.62C571.885 251.182 579.695 252.13 585.511 256.327C590.56 259.972 588.167 263.793 583.774 266.421ZM564.398 254.603C562.217 257.758 566.84 259.908 569.41 261.072C574.242 263.262 578.666 263.994 584.008 263.406C588.529 254.922 569.17 254.418 564.398 254.603Z" fill="#546067"/>
<path d="M657.013 268.315C648.554 268.99 636.427 265.294 630.445 259.06C627.887 256.394 630.197 254.049 632.386 252.532C635.484 252.408 638.525 252.479 641.777 252.88C648.764 253.74 660.864 255.731 659.628 265.294C659.453 266.654 658.069 267.559 657.013 268.315ZM651.349 258.191C647.6 256.63 637.348 254.458 633.627 256.338L633.4 257.283C635.233 260.224 643.596 263.08 647.027 264.225C650.746 265.289 653.558 266.561 656.565 263.426C657.078 259.975 654.053 259.167 651.349 258.191Z" fill="#595E68"/>
<path d="M584.006 263.406C578.664 263.994 574.24 263.262 569.408 261.072C566.838 259.908 562.215 257.758 564.396 254.603C569.168 254.418 588.527 254.922 584.006 263.406Z" fill="#8EECF5"/>
<path d="M651.347 258.191L650.776 258.762L651.741 259.075L651.555 259.572C648.074 260.791 648.336 260.631 647.025 264.225C643.594 263.08 635.231 260.224 633.398 257.283L633.625 256.338C637.346 254.458 647.598 256.63 651.347 258.191Z" fill="#8EECF5"/>
<path d="M647.023 264.225C648.334 260.631 648.072 260.791 651.553 259.572L651.739 259.075L650.774 258.762L651.345 258.191C654.049 259.167 657.074 259.975 656.561 263.426C653.554 266.561 650.742 265.289 647.023 264.225Z" fill="#8EECF5"/>
<path d="M523.055 274.845C506.359 277.304 493.555 263.664 510.572 260.661C514.251 260.655 517.196 260.786 520.771 261.872C529.6 264.557 536.168 271.483 523.055 274.845ZM521.117 264.929C517.835 264.266 506.1 261.563 506.634 267.641C509.188 271.039 513.281 271.437 517.308 272.023C521.035 272.005 523.139 272.257 526.104 270.055C526.761 268.495 526.746 269.264 526.133 267.67C524.548 266.037 523.273 265.76 521.117 264.929Z" fill="#546067"/>
<path d="M517.309 272.023C513.282 271.437 509.189 271.039 506.635 267.641C506.101 261.563 517.836 264.266 521.118 264.929C519.509 266.137 517.78 266.978 517.05 268.639C517.072 269.968 516.98 270.745 517.309 272.023Z" fill="#8EECF5"/>
<path d="M300.903 264.565C295.018 269.427 288.997 274.535 282.873 279.055C270.156 282.186 234.839 304.636 223.125 312.583C212.059 321.06 200.768 329.72 190.716 339.414C183.904 345.983 176.566 353.735 171.441 361.681C169.782 364.253 168.547 367.586 165.584 368.767C163.652 368.407 164.522 368.816 163.012 367.259C161.879 362.946 170.92 352.727 173.807 349.342C201.124 317.311 237.666 293.986 274.814 274.923C282.59 270.932 291.537 267.169 299.732 264.153C300.122 264.29 300.513 264.428 300.903 264.565Z" fill="#E6DFD5"/>
<path d="M521.119 264.929C523.275 265.76 524.55 266.037 526.135 267.67C526.748 269.264 526.763 268.495 526.106 270.055C523.141 272.257 521.037 272.005 517.31 272.023C516.981 270.745 517.073 269.968 517.051 268.639C517.781 266.978 519.51 266.137 521.119 264.929Z" fill="#FCFCF7"/>
<path d="M344.68 287.614C342.783 288.458 342.081 288.544 340.051 288.276C337.269 286.025 338.757 281.894 340.366 279.301C344.284 272.982 350.596 268.077 357.79 266.089C360.064 266.026 363.782 266.082 364.637 268.619C367.784 277.953 350.707 284.873 344.68 287.614ZM356.389 269.805C351.764 271.385 342.57 278.265 342.34 283.444C343.972 285.246 346.876 283.182 348.793 282.169C352.303 280.458 362.957 274.743 362.123 270.298C360.191 268.717 358.594 269.086 356.389 269.805Z" fill="#59637C"/>
<path d="M356.389 269.805C358.594 269.086 360.191 268.717 362.123 270.298C362.957 274.743 352.303 280.458 348.793 282.169C349.831 279.585 351.254 277.551 353.161 275.542C355.169 273.426 355.169 272.276 356.389 269.805Z" fill="#FBF8CC"/>
<path d="M348.793 282.169C346.876 283.182 343.972 285.246 342.34 283.444C342.57 278.265 351.764 271.385 356.389 269.805C355.169 272.276 355.169 273.426 353.161 275.542C351.254 277.551 349.831 279.585 348.793 282.169Z" fill="#E6DFD5"/>
<path d="M462.429 295.598C459.778 296.101 458.689 295.945 456.738 294.008C453.271 285.868 462.063 276.333 469.131 273.02C474.126 272.873 477.325 275.631 475.652 280.837C473.508 287.509 468.486 292.444 462.429 295.598ZM473.402 276.686C466.069 272.254 458.752 285.262 459.835 291.151L460.677 292.198C463.785 292.532 467.817 288.049 469.686 285.745C472.595 282.805 473.361 280.671 473.402 276.686Z" fill="#546067"/>
<path d="M405.957 281.615C409.695 278.098 412.002 276.608 416.572 274.416C429.101 274.925 426.229 284.708 418.657 290.188C407.047 298.593 395.981 298.45 405.957 281.615ZM416.401 277.54C412.972 279.704 403.619 287.292 405.526 291.636C407.434 292.166 407.762 291.878 409.972 291.168C414.081 289.015 423.29 284.017 421.774 278.568C420.001 277.187 418.527 277.236 416.401 277.54Z" fill="#546067"/>
<path d="M473.401 276.686C471.259 277.46 469.769 277.743 468.271 279.427C467.282 282.4 468.117 283.101 469.685 285.745C467.816 288.049 463.784 292.532 460.676 292.198L459.834 291.151C458.751 285.262 466.068 272.254 473.401 276.686Z" fill="#8EECF5"/>
<path d="M469.685 285.745C468.117 283.101 467.282 282.4 468.271 279.427C469.769 277.743 471.259 277.46 473.401 276.686C473.36 280.671 472.594 282.805 469.685 285.745Z" fill="#BAF1E3"/>
<path d="M409.969 291.168C407.759 291.878 407.431 292.166 405.523 291.636C403.616 287.292 412.969 279.704 416.398 277.54C418.524 277.236 419.998 277.187 421.771 278.568C423.287 284.017 414.078 289.015 409.969 291.168Z" fill="#98F5E1"/>
<path d="M380.346 287.714C379.291 288.354 378.637 288.963 377.519 289.058C374.361 290.061 371.595 290.798 369.019 293.02C365.84 296.667 362.098 301.236 360.832 305.996C360.21 307.371 360.26 307.766 359.169 308.615C356.281 299.18 371.431 282.09 380.346 287.714Z" fill="#595E68"/>
<path d="M377.518 289.058C378.636 288.963 379.29 288.354 380.345 287.714C382.428 297.384 368.637 310.464 359.939 309.228L359.168 308.615C360.259 307.766 360.209 307.371 360.831 305.996C365.038 305.549 368.132 303.337 371.223 300.629C373.958 298.279 378.81 293.03 377.518 289.058Z" fill="#59637C"/>
<path d="M705.862 303.642C700.103 303.635 681.169 297.607 684.114 290.18C685.598 288.758 686.056 288.761 688.093 288.114C696.074 287.683 703.833 289.319 709.091 295.909C711.81 299.316 709.197 302.361 705.862 303.642ZM687.24 291.112C686.745 296.645 701.787 300.541 706.262 300.417C708.476 291.632 692.927 290.764 687.24 291.112Z" fill="url(#paint0_linear_17_12810)"/>
<path d="M628.37 305.624C622.473 304.411 596.28 294.758 612.545 288.589C630.223 287.471 639.102 303.75 628.37 305.624ZM614.517 291.672C612.352 292.208 612.48 291.8 611.338 293.173C612.637 296.936 623.428 301.34 627.134 302.573C628.642 302.266 628.575 302.348 629.766 301.4C631.342 297.365 623.907 293.082 620.794 292.25C619.007 291.772 616.387 291.624 614.517 291.672Z" fill="#546067"/>
<path d="M369.02 293.02C371.596 290.798 374.362 290.061 377.52 289.058C378.812 293.03 373.96 298.279 371.225 300.629C371.357 297.031 370.902 296.091 369.02 293.02Z" fill="#E6DFD5"/>
<path d="M706.261 300.417C701.786 300.541 686.743 296.645 687.238 291.112C692.925 290.764 708.475 291.632 706.261 300.417Z" fill="#8EECF5"/>
<path d="M627.136 302.573C623.43 301.34 612.639 296.936 611.34 293.173C612.482 291.8 612.354 292.208 614.519 291.672C616.389 291.624 619.009 291.772 620.796 292.25C623.909 293.082 631.344 297.365 629.768 301.4C628.577 302.348 628.644 302.266 627.136 302.573Z" fill="#8EECF5"/>
<path d="M360.832 305.996C362.098 301.236 365.84 296.667 369.019 293.02C370.901 296.091 371.356 297.031 371.224 300.629C368.133 303.337 365.039 305.549 360.832 305.996Z" fill="#FBF8CC"/>
<path d="M257.805 309.931C246.022 312.369 208.46 342.049 198.231 350.996C193.928 354.761 173.698 375.168 171.542 375.704C170.336 374.777 170.277 374.888 169.836 373.468C172.133 361.696 229.79 318.395 242.069 311.548C245.408 309.687 262.232 298.17 265.341 298.573C262.961 302.1 259.94 306.331 257.805 309.931Z" fill="#E6DFD5"/>
<path d="M589.324 318.231C581.941 319.245 574.401 316.52 569.291 310.896C566.06 307.34 568.468 304.816 571.916 303.036C579.158 302.699 588.076 304.787 592.806 310.58C595.58 313.978 591.956 316.77 589.324 318.231ZM570.874 306.023C571.927 313.709 583.185 317.171 589.806 314.725C592.469 306.719 575.944 305.744 570.874 306.023Z" fill="#546067"/>
<path d="M589.807 314.725C583.186 317.171 571.928 313.709 570.875 306.023C575.945 305.744 592.47 306.719 589.807 314.725Z" fill="#8EECF5"/>
<path d="M499.407 334.592C486.547 330.411 500.484 313.294 509.37 310.492C516.829 311.581 514.429 320.363 511.791 324.735C508.439 330.291 505.589 332.949 499.407 334.592ZM510.47 318.869C510.667 317 510.881 316.421 510.134 314.68C505.888 312.205 499.286 322.46 497.583 325.681C497.353 328.585 496.694 329.656 499.232 331.224C504.6 330.998 509.327 323.728 510.47 318.869Z" fill="#546067"/>
<path d="M510.469 318.869C505.461 322.396 505.33 330.933 497.582 325.681C499.285 322.46 505.887 312.205 510.133 314.68C510.88 316.421 510.666 317 510.469 318.869Z" fill="#BAF1E3"/>
<path d="M323.818 339.965C316.3 340.65 314.975 336.757 316.931 330.151C319.004 323.152 322.865 319.321 329.112 316.055C334.801 315.394 337.945 317.652 336.292 323.754C334.393 330.761 329.951 336.193 323.818 339.965ZM329.749 318.843C324.401 322.402 319.164 328.592 319.544 335.403C320.861 336.906 321.327 336.696 323.314 336.025C327.408 333.127 334.878 325.619 333.277 320.138C331.947 318.886 332.051 318.864 329.749 318.843Z" fill="#59637C"/>
<path d="M323.313 336.025C321.326 336.696 320.86 336.906 319.543 335.403C319.163 328.592 324.4 322.402 329.748 318.843C332.05 318.864 331.946 318.886 333.276 320.138C334.877 325.619 327.407 333.127 323.313 336.025Z" fill="#E6DFD5"/>
<path d="M497.582 325.681C505.33 330.933 505.461 322.396 510.469 318.869C509.326 323.728 504.599 330.998 499.231 331.224C496.693 329.656 497.352 328.585 497.582 325.681Z" fill="#8EECF5"/>
<path d="M415.446 345.231C404.892 346.717 404.548 327.273 414.628 321.012C427.566 320.467 423.601 339.119 415.446 345.231ZM416.204 323.187C411.4 327.549 406.142 339.044 414.067 342.569C419.204 338.521 424.023 325.91 416.204 323.187Z" fill="#546067"/>
<path d="M414.069 342.569C406.144 339.044 411.402 327.549 416.206 323.187C424.025 325.91 419.206 338.521 414.069 342.569Z" fill="#BAF1E3"/>
<path d="M685.013 344.822C678.626 345.189 669.051 338.779 664.321 334.638C660.833 331.584 658.941 328.148 662.842 324.571C671.192 323.818 678.081 327.392 684.105 332.878C688.07 336.491 689.536 340.941 685.013 344.822ZM664.948 327.061C660.987 331.816 680.14 341.603 683.897 342.43C687.759 334.156 671.285 327.555 664.948 327.061Z" fill="#546067"/>
<path d="M683.899 342.43C680.142 341.603 660.989 331.816 664.95 327.061C671.287 327.555 687.761 334.156 683.899 342.43Z" fill="#8EECF5"/>
<path d="M546.935 361.352C539.193 361.034 541.405 350.534 543.18 345.816C545.252 340.313 547.143 336.16 552.639 333.458C565.055 334.079 556.856 356.544 546.935 361.352ZM552.705 336.284C548.557 339.885 542.087 352.24 545.86 357.178C546.394 357.458 546.841 357.776 547.383 357.861C552.654 353.937 557.61 343.82 555.154 337.371C553.847 336.208 554.601 336.63 552.705 336.284Z" fill="#595E68"/>
<path d="M547.384 357.861C546.842 357.776 546.395 357.458 545.861 357.178C542.088 352.24 548.558 339.885 552.706 336.284C554.602 336.63 553.848 336.208 555.155 337.371C557.611 343.82 552.655 353.937 547.384 357.861Z" fill="#8EECF5"/>
<path d="M632.796 360.551C627.003 361.326 620.575 356.041 616.629 352.246C612.937 348.696 608.542 343.84 613.417 339.495C622.056 338.699 642.285 351.225 632.796 360.551ZM613.61 342.541C615.187 347.521 626.281 359.089 632.237 357.564C633.559 349.66 620.64 342.447 613.61 342.541Z" fill="#546067"/>
<path d="M632.24 357.564C626.284 359.089 615.19 347.521 613.613 342.541C620.643 342.447 633.562 349.66 632.24 357.564Z" fill="#8EECF5"/>
<path d="M242.305 350.677C240.016 351.711 233.424 358.22 230.889 360.225C194.734 388.824 164.175 423.885 139.066 462.451C136.654 466.156 129.05 480.308 126.193 482.471C124.263 482.397 124.979 482.778 123.814 481.635C122.553 472.83 150.85 435.09 157.549 426.742C178.005 401.253 201.181 376.285 227.195 356.35C231.755 352.855 238.731 345.251 243.826 343.443L242.305 350.677Z" fill="#E6DFD5"/>
<path d="M934.805 368.497C921.023 368.251 916.163 352.845 932.227 347.009C947.712 346.282 949.997 365.256 934.805 368.497Z" fill="#FCFCF7"/>
<path d="M462.821 384.874C452.01 384.886 450.379 364.622 457.69 357.377C469.452 358.171 470.657 378.227 462.821 384.874ZM459.077 360.232C454.651 365.254 455.344 379.491 461.431 381.8C466.39 376.011 465.535 364.582 459.077 360.232Z" fill="#595E68"/>
<path d="M461.429 381.8C455.342 379.491 454.649 365.254 459.075 360.232C465.533 364.582 466.388 376.011 461.429 381.8Z" fill="#8EECF5"/>
<path d="M487.199 445.66C561.36 445.6 641.037 443.618 713.55 424.763C734.387 419.345 763.499 407.091 779.427 392.815C788.699 384.505 789.743 372.494 788.813 360.603C794.401 362.769 808.791 368.567 804.502 376.605C801.951 381.386 793.415 384.906 795.317 391.477C796.837 396.217 803.914 398.65 807.663 401.981C795.749 419.727 775.167 412.957 758.517 417.644C749.388 420.214 739.683 437.93 727.697 438.766C708.025 441.986 686.981 433.123 667.521 438.279C655.556 441.449 648.994 456.5 635.358 457.973C605.711 461.177 582.175 448.205 552.674 458.826C551.206 457.288 549.359 456.674 547.512 455.695C534.856 448.985 519.735 450.083 505.673 448.506C498.241 447.672 494.559 447.063 487.199 445.66Z" fill="#98F5E1"/>
<path d="M253.396 407.779C216.708 400.431 197.382 392.435 239.243 365.412C240.323 366.768 240.373 374.686 241.454 378.307C247.086 397.183 259.312 402.126 274.792 410.747C268.104 410.375 260.088 408.868 253.396 407.779Z" fill="#FBF8CC"/>
<path d="M219.818 401.421L223.9 403.533C190.589 448.885 171.517 483.901 158.624 538.62C153.052 569.915 151.744 596.661 153.687 628.452C154.108 635.341 154.089 642.147 154.819 649.054C153.701 651.645 152.262 655.237 150.931 657.629C149.18 651.98 148.722 638.107 148.313 631.972C146.091 598.582 147.558 569.091 153.586 536.07C157.834 513.321 168.299 484.146 179.152 463.689C187.937 447.13 206.429 414.179 219.818 401.421Z" fill="#FCFCF7"/>
<path d="M223.901 403.533C228.747 405.566 233.475 407.46 238.621 408.64C237.973 415.482 238.197 452.847 241.916 457.559C232.526 478.717 232.928 498.41 254.571 511.454C257.712 520.011 264.641 526.391 271.786 531.731C270.882 532.989 270.961 532.912 269.587 533.632C265.79 534.445 262.689 538.483 259.121 540.907C250.566 546.72 242.049 552.891 233.603 558.814C229.892 561.416 221.811 568.306 218.697 570.096C215.808 567.952 203.853 562.553 200.029 560.614C186.502 553.758 171.267 546.941 158.625 538.62C171.518 483.901 190.59 448.885 223.901 403.533Z" fill="#FDE4CF"/>
<path d="M238.619 408.64C251.702 412.308 265.37 413.212 278.798 414.842C281.363 415.153 287.372 415.99 289.022 417.971C272.463 422.596 250.941 442.603 241.914 457.559C238.195 452.847 237.971 415.482 238.619 408.64Z" fill="#FFCFD2"/>
<path d="M884.089 415.554L883.941 414.033C886.031 411.561 889.484 411.973 892.174 412.997C893.392 414.43 892.986 414.259 893.126 416.625C888.897 438.624 876.959 468.509 865.708 487.812C848.601 517.818 831.369 536.625 803.599 557.485C801.138 559.334 795.932 564.102 793.273 564.583C793.944 562.121 794.561 559.228 795.155 556.712C803.35 555.365 831.129 526.906 838.116 519.648C846.383 511.06 855.809 496.206 861.912 485.886C864.56 481.985 865.907 477.587 868.05 472.941C876.071 455.559 881.787 437.138 885.872 418.48C886.118 417.358 884.775 416.207 884.089 415.554Z" fill="#FCFCF7"/>
<path d="M893.724 416.665C894.666 415.463 895.486 414.346 896.538 413.235C929.516 435.387 933.226 475.897 919.16 509.965C917.127 514.889 915.779 520.44 912.899 525.025C909.054 532.547 903.762 543.441 899.196 550.38C885.62 571.011 866.725 592.54 847.366 608.019C838.822 614.849 828.33 620.878 819.272 627.018L817.555 622.962C819.036 621.221 837.827 609.804 842.208 606.275C873.817 580.815 891.543 558.274 908.785 522.023C915.441 509.723 922.434 483.567 921.495 469.992C919.737 444.563 911.107 432.926 893.724 416.665Z" fill="#FCFCF7"/>
<path d="M854.048 481.911C855.36 480.634 858.737 475.535 859.93 473.709C872.34 454.721 877.736 437.36 882.701 415.644L884.09 415.554C884.776 416.207 886.119 417.358 885.873 418.48C881.788 437.138 876.072 455.559 868.051 472.941C865.908 477.587 864.561 481.985 861.913 485.886C860.262 485.408 855.798 483.106 854.004 482.228L854.048 481.911Z" fill="#E6DFD5"/>
<path d="M893.129 416.625L893.727 416.665C911.11 432.926 919.74 444.563 921.498 469.992C922.437 483.567 915.444 509.723 908.788 522.023C905.08 518.019 901.306 512.924 897.577 508.639C904.301 494.417 911.917 479.345 912.083 463.292C912.115 460.257 912.608 453.657 909.863 451.94L908.739 452.311C906.8 454.771 906.837 467.749 905.21 473.513C901.907 485.215 897.574 495.852 893.768 507.343C891.743 506.009 889.264 503.607 887.405 501.934C890.488 497.837 901.06 477.929 898.936 473.212C896.913 474.3 887.411 495.359 883.848 499.459C880.755 496.695 869.559 490.153 865.711 487.812C876.962 468.509 888.9 438.624 893.129 416.625ZM893.928 431.733C891.803 435.348 880.379 473.003 880.674 476.395C881.501 477.622 882.149 477.769 883.487 478.4C889.169 472.782 899.365 439.994 896.44 432.819C895.3 431.888 895.39 431.944 893.928 431.733Z" fill="url(#paint1_linear_17_12810)"/>
<path d="M241.913 457.559C250.94 442.603 272.462 422.596 289.021 417.971C289.379 418.233 290.265 418.917 290.616 419.104C275.459 423.025 254.375 440.45 246.532 453.965C224.906 491.229 256.839 523.25 295.754 512.592C328.793 503.543 363.115 473.151 398.787 487.303L398.729 489.169C400.958 491.508 403.271 491.672 406.302 492.112L405.709 491.779C407.56 491.934 410.313 492.852 411.558 492.787C419.19 495.687 431.129 505.345 437.798 510.853C461.427 530.372 491.758 551.785 523.781 539.592C549.434 529.07 567.756 495.81 593.483 484.909C620.324 473.536 655.822 485.227 683.078 490.595C694.511 492.936 703.368 494.655 714.861 496.271C730.886 499.67 751.735 503.856 767.126 499.481C800.233 490.069 800.879 461.273 779.253 439.157C775.618 435.439 768.794 428.778 767.464 423.837C772.782 429.055 778.383 433.034 783.432 438.702C792.48 448.859 797.028 456.96 798.569 470.344C797.86 480.608 795.428 486.427 787.679 493.635C784.883 496.235 777.314 500.03 776.529 501.674C777.433 505.767 785.65 516.138 788.575 520.983C795.385 534.663 797.174 541.129 795.154 556.712C794.56 559.228 793.943 562.121 793.272 564.583C790.483 571.129 788.54 574.751 784.522 580.613C787.931 581.872 789.587 582.72 792.317 585.161C793.618 586.342 795.277 587.945 796.613 589.01C799.685 592.047 802.601 595.242 804.814 598.977C799.556 595.664 792.657 583.505 785.427 581.956C784.314 582.354 784.392 582.319 783.623 583.222C787.672 584.666 801.584 597.299 801.131 601.048C799.612 599.657 797.987 597.289 796.61 595.642C792.365 590.563 788.546 586.791 782.642 583.751L777.567 588.777C784.946 606.584 787.031 617.801 779.04 636.421C761.021 678.408 711.435 692.162 670.458 699.776C663.172 701.13 655.4 701.915 648.513 703.53C597.853 708.901 536.246 713.041 485.207 711.561C438.219 711.063 382.335 709.619 338.09 694.489C311.834 685.095 282.454 670.794 272.829 642.491C269.639 633.113 268.435 623.873 266.328 614.374C266.05 613.123 260.894 606.674 259.6 604.064L260.047 603.403C252.666 588.449 255.273 581.644 254.824 565.593C254.753 563.069 255.352 559.851 254.752 557.751C255.018 549.052 263.951 539.425 269.584 533.632C270.958 532.912 270.879 532.989 271.783 531.731C264.638 526.391 257.709 520.011 254.568 511.454C232.925 498.41 232.523 478.717 241.913 457.559ZM559.778 516.008C545.287 530.465 535.934 538.323 516.583 545.261C534.796 542.573 545.765 532.881 558.211 519.45C561.368 516.44 564.25 512.831 567.835 509.584C571.484 506.28 576.448 502.316 579.628 498.843C573.466 502.376 564.234 510.442 559.778 516.008ZM278.373 519.784C273.183 518.884 266.518 517.345 261.403 515.866C287.258 550.133 364.777 570.793 405.84 576.267C453.606 582.634 509.292 581.917 557.52 577.186C579.343 575.045 601.992 570.389 623.864 567.689C668.67 559.241 716.245 546.847 754.302 520.787C760.675 516.359 769.132 508.616 772.186 501.379C762.97 505.163 756.226 511.866 747.375 516.442C707.765 536.919 664.192 549.938 620.649 559.025C607.15 561.83 593.398 563.198 579.784 565.223C519.622 574.171 457.239 574.799 396.994 565.948C371.826 562.251 341.827 553.153 318.011 544.049C308.812 540.532 283.965 527.267 278.025 520.582C281.44 521.742 286.625 525.323 289.895 527.255C324.852 547.89 368.899 559.103 408.897 564.144C467.355 571.51 526.064 570.107 584.284 561.487C642.9 552.809 711.734 536.833 761.51 503.474C745.345 504.59 734.119 501.772 718.428 500.586C685.432 498.091 653.535 484.825 620.581 485.629C610.863 485.867 600.367 491.27 592.237 495.858C580.363 502.466 572.269 512.31 562.595 521.289C552.777 530.399 542.819 541.044 530.316 546.15C529.178 546.615 525.452 547.966 524.65 548.56L522.255 549.164C520.492 548.986 517.957 549.317 516.279 548.977C507.867 547.274 498.114 547.139 489.908 545.272C472.29 541.263 456.342 529.727 442.528 518.489C433.381 511.047 424.696 503.377 414.115 497.939C402.849 491.987 398.903 491.932 386.649 491.26C355.259 489.537 335.456 507.493 307.183 515.793C303.328 516.925 302.413 519.612 299.918 519.879C299.35 519.35 298.82 518.803 298.307 518.221C292.239 519.041 284.574 519.395 278.373 519.784ZM743.94 580.588C705.751 599.064 664.402 601.835 624.74 587.068C617.964 584.545 602.912 578.91 597.075 575.371C593.255 576.28 589.743 577.03 585.886 577.763C598.976 585.681 610.77 587.609 624.762 592.038C664.567 604.635 709.036 607.725 746.703 585.949C769.322 574.657 796.511 542.292 780.308 515.946C778.886 513.634 776.196 509.003 773.997 507.739L773.112 508.003C772.489 508.997 771.624 511.053 771.931 512.149C779.787 540.141 770.449 564.779 743.94 580.588ZM281.635 589.509C274.764 581.283 267.295 569.992 268.09 558.737C268.68 550.39 275.689 544.132 281.957 539.434L274.861 534.512C246.056 556.991 256.724 579.855 279.871 601.569C297.411 619.921 322.064 629.416 346.987 633.268C382.528 638.76 420.251 631.024 452.336 615.228C460.594 611.162 468.989 605.175 476.387 599.719C482.99 594.684 486.306 591.247 491.819 585.222L484.485 585.219C481.126 589.054 477.988 591.972 474.3 595.456C450.692 613.687 407.785 626.71 377.985 626.91C345.74 627.126 304.762 612.178 281.635 589.509ZM774.988 635.304C782.247 620.643 781.622 605.597 774.464 591.084C770.837 593.815 766.808 596.999 763.12 599.568C771.3 614.317 773.145 623.117 764.153 638.407L763.874 638.735C745.701 660.427 735.148 667.118 707.213 675.246C676.292 684.242 644.509 687.875 612.577 691.333C540.887 697.166 468.736 698.78 397.052 692.105C383.346 690.828 369.61 688.902 356.155 686.163C349.726 684.918 325.462 677.933 321.277 677.906C318.132 677.477 311.354 676.001 308.636 676.665L308.686 677.323C310.889 679.021 313.833 680.345 316.446 681.349C319.264 683.4 328.203 686.829 331.717 688.103C352.702 695.708 373.505 700.205 395.561 703.126C414.04 705.574 430.883 705.573 449.244 706.546C495.345 708.988 541.966 707.74 588.017 704.863C617.053 703.048 645.963 700.657 674.58 695.048C693.605 691.32 713.054 685.905 730.586 677.491C747.389 669.427 768.555 653.561 774.988 635.304ZM393.862 637.002C345.676 642.056 295.408 631.076 264.962 590.674C262.797 587.802 261.047 583.983 258.537 581.575L257.917 581.752C256.434 587.619 259.88 597.242 263.167 602.221C292.329 646.398 353.639 654.398 401.796 644.4C433.123 638.334 461.369 628.021 485.02 605.749C488.002 602.941 501.113 589.233 501.201 585.381C500.354 584.99 497.819 584.739 497.487 585.101C489.054 594.285 480.003 601.45 469.84 608.627C446.522 625.095 421.405 631.769 393.862 637.002ZM370.371 488.227C362.351 489.204 335.123 498.768 329.839 503.624L329.971 504.079C332.403 503.385 334.585 502.162 336.859 501.028C347.502 496.212 356.786 491.531 368.409 489.317C373.629 488.323 378.133 489.651 379.921 489.224C378.457 488.242 372.258 488.121 370.371 488.227ZM767.482 513.971C735.26 543.491 691.723 555.06 650.321 565.682C635.489 569.488 619.008 573.108 603.739 574.228C609.149 576.815 614.146 579.171 619.679 581.504C659.504 597.145 694.309 597.04 734.451 580.598C760.082 570.1 776.596 544.601 768.629 515.963C768.501 515.501 767.783 514.321 767.482 513.971ZM789.205 534.376C785.933 554.168 777.423 570.522 760.586 581.944C729.739 602.871 692.429 610.116 655.808 603.44C636.368 599.896 616.904 593.831 598.118 587.786C592.702 586.043 586.672 582.681 581.253 580.896C581.624 586.156 582.204 590.739 583.482 595.88C585.251 600.946 586.263 604.719 591.638 607.057C598.773 610.162 606.724 611.758 614.322 613.419C646.304 620.419 680.804 620.419 712.94 614.339C742.652 608.717 782.673 591.19 790.675 558.775C791.877 553.908 792.732 538.016 789.205 534.376ZM285.71 541.904C281.161 545.428 271.553 552.505 271.719 558.042C272.929 598.42 333.839 618.639 365.607 623.231C390.88 626.883 427.009 615.992 448.156 606.389C460.494 600.475 470.844 595.843 479.753 585.061C410.83 584.733 346.708 575.997 285.71 541.904ZM573.957 579.248C569.505 579.688 564.898 580.08 560.475 580.671C545.174 601.779 506.689 619.082 480.905 623.357C477.157 623.978 470.114 624.427 467.043 625.201C462.256 626.408 453.94 631.285 449.054 633.832L448.814 634.429L449.854 634.774C491.686 636.012 532.276 620.972 563.444 592.724C566.801 589.681 572.174 583.748 574.59 579.949L574.413 579.351L573.957 579.248ZM553.389 581.796C540.461 582.714 518.781 583.307 507.195 584.98C492.931 602.251 492.123 605.778 473.698 619.836L473.924 620.212C498.735 618.251 526.059 606.191 545.141 590.279C546.803 588.894 553.018 583.555 553.733 581.958L553.389 581.796ZM576.952 584.059C550.505 613.719 507.021 635.48 467.185 637.912C460.139 638.342 449.064 638.659 442.461 636.607C432.902 640.202 425.012 641.948 415.944 645.033C420.346 646.874 424.272 648.444 428.767 650.078C472.509 663.086 506.051 652.832 544.836 631.91C560.062 623.696 570.696 617.356 583.858 605.888C578.649 599.075 578.729 593.454 577.305 585.165C577.169 584.37 577.319 584.82 576.952 584.059ZM758.74 602.04L751.09 606.518C750.018 614.239 748.951 618.056 754.769 623.684L754.506 624.41C745.851 628.189 746.844 612.525 747.555 607.85C740.331 610.749 733.734 613.145 726.393 615.714C720.75 622.003 717.532 631.925 711.992 638.823C694.392 660.736 660.984 676.907 632.913 678.325C616.677 679.144 601.546 682.111 585.47 683.404C550.209 686.239 518.462 670.882 486.75 657.813C464.877 661.08 445.449 659.95 424.399 652.651C420.238 651.208 413.498 648.656 409.674 646.409C407.125 647.03 405.567 647.474 403.101 648.362C416.137 655.713 431.481 664.656 445.875 668.41C460.465 672.216 472.763 673.515 487.373 678.516C498.958 681.846 512.593 690.514 524.45 691.772C534.899 692.88 548.44 691.564 559.15 691.059C605.933 688.853 654.354 684.921 699.81 673.283C723.614 667.188 749.247 656.636 762.143 634.841C766.22 627.988 767.311 619.866 765.023 612.299C764.151 609.415 761.19 603.681 758.74 602.04ZM585.483 608.875C581.896 611.71 578.166 614.518 574.633 617.418C561.169 628.466 545.433 636.097 529.895 643.73C524.428 646.417 518.534 648.373 513.022 650.946C517.937 650.929 522.614 650.661 527.532 650.798C538.631 651.106 550.963 652.66 561.969 652.498C588.729 652.104 620.613 650.574 646.941 645.904C671.958 641.914 700.172 634.286 719.836 617.523C677.142 625.45 638.078 625.465 596.566 612.662C594.165 611.922 587.216 609.034 585.483 608.875ZM271.292 619.661C272.627 636.814 280.636 653.492 293.442 665.001C301.091 671.876 311.113 672.759 320.722 675.145C326.51 676.582 333.816 679.179 339.598 680.005C335.901 678.067 331.536 676.892 327.666 675.18C310.45 667.564 302.175 656.58 298.099 638.478C286.836 631.752 281.342 628.48 271.292 619.661ZM716.5 625.001C683.714 645.241 658.575 648.674 620.475 652.806C603.173 654.683 585.618 655.631 568.196 655.923C556.356 656.121 543.917 654.831 532.097 655.236C538.315 656.183 543.973 657.543 550.098 658.953C567.448 662.828 584.648 667.113 601.96 671.13C604.424 671.701 606.976 672.174 609.456 672.699C642.705 682.189 702.661 657.847 716.781 626.057C716.722 625.111 716.934 625.407 716.5 625.001ZM301.671 640.134C306.392 655.248 313.339 663.777 327.436 671.192C366.609 691.797 422.715 689.649 466.223 693.101C461.844 691.347 452.463 689.522 447.446 688.25C422.064 681.668 390.716 669.826 371.026 651.984C357.482 652.429 339.126 651.866 325.888 648.099C330.461 652.908 334.197 656.672 337.6 662.434C329.488 659.147 326.633 654.486 320.355 648.911C316.905 645.847 305.926 641.172 301.671 640.134ZM393.199 649.69C388.117 650.262 381.482 650.776 376.605 651.511C401.928 670.806 422.58 678.647 453.239 686.229C473.634 691.272 477.089 693.675 498.839 693.487C503.93 693.422 509.919 693.194 514.942 693.374C502.195 688.086 487.542 681.76 474.276 678.27C459.744 674.673 444.859 673.204 430.962 667.223C424.105 664.272 417.759 660.476 411.223 656.933C406.476 654.359 398.624 648.479 393.199 649.69ZM504.753 654.153C500.688 654.956 496.706 655.692 492.706 656.801C517.75 667.577 546.598 678.973 574.138 680.338C582.268 680.74 591.371 679.86 599.49 678.87C603.453 678.198 607.593 677.587 611.451 676.518C588.6 671.717 566.162 665.954 543.392 660.962C536.161 659.376 511.536 653.262 504.753 654.153Z" fill="url(#paint2_linear_17_12810)"/>
<path d="M290.617 419.104C290.882 419.137 291.149 419.158 291.412 419.201C296.715 420.077 312.073 446.942 327.514 450.839C341.652 454.407 360.269 441.485 374.114 442.142C381.165 442.477 386.621 454.967 401.951 456.73C410.711 457.737 419.463 457.245 428.193 456.173C441.117 454.587 460.843 450.023 473.363 453.073C487.613 456.545 493.878 472.053 511.395 474.224C532.745 476.87 546.696 461.827 566.493 458.566C592.71 454.246 626.995 470.98 650.394 456.283C657.732 451.674 663.354 445.437 672.432 444.429C677.877 445.761 683.845 444.565 689.192 445.372C701.48 447.334 728.49 448.249 732.256 463.208C733.884 469.674 730.244 478.379 726.595 483.815C723.666 488.179 717.858 492.326 714.862 496.271C703.369 494.655 694.512 492.936 683.079 490.595C655.823 485.227 620.325 473.536 593.484 484.909C567.757 495.81 549.435 529.07 523.782 539.592C491.759 551.785 461.428 530.372 437.799 510.853C431.13 505.345 419.191 495.687 411.559 492.787C408.816 490.901 402.151 488.581 398.788 487.303C363.116 473.151 328.794 503.543 295.755 512.592C256.84 523.25 224.907 491.229 246.533 453.965C254.376 440.45 275.46 423.025 290.617 419.104Z" fill="#FFCFD2"/>
<path d="M297.84 420.03C304.744 421.199 314.585 424.52 321.944 426.044C335.82 428.918 350.563 432.232 364.6 434.18C389.225 437.596 414.148 441.168 438.945 442.863C455.044 443.963 471.064 444.516 487.2 445.66C494.56 447.063 498.242 447.672 505.674 448.506C519.736 450.083 534.857 448.985 547.513 455.695C549.36 456.674 551.207 457.288 552.675 458.826C545.314 462.412 539.458 466.085 531.657 468.963C499.082 480.983 491.483 453.737 469.317 448.924C444.168 445.569 418.639 460.721 393.668 451.943C385.899 449.212 383.105 442.157 375.389 438.682C359.793 439.075 344.056 448.857 329.731 447.915C318.477 447.176 304.389 428.678 297.84 420.03Z" fill="#8EECF5"/>
<path d="M768.017 421.879L767.467 423.837C768.797 428.778 775.621 435.439 779.256 439.157C800.882 461.273 800.236 490.069 767.129 499.481C751.738 503.856 730.889 499.67 714.864 496.271C717.86 492.326 723.668 488.179 726.597 483.815C730.246 478.379 733.886 469.674 732.258 463.208C728.492 448.249 701.482 447.334 689.194 445.372C683.847 444.565 677.879 445.761 672.434 444.429C680.33 442.551 688.658 442.701 696.789 443.132C708.907 443.774 721.799 447.626 733.342 442.421C743.873 437.673 748.696 428.421 758.152 423.009C760.387 421.73 765.096 419.883 767.696 420.695L768.017 421.879Z" fill="#A3C4F3"/>
<path d="M883.487 478.4C882.149 477.769 881.501 477.622 880.674 476.395C880.379 473.003 891.803 435.348 893.928 431.733C895.39 431.944 895.3 431.888 896.44 432.819C899.365 439.994 889.169 472.782 883.487 478.4Z" fill="#FCFCF7"/>
<path d="M893.767 507.343C897.573 495.852 901.906 485.215 905.209 473.513C906.836 467.749 906.799 454.771 908.738 452.311L909.862 451.94C912.607 453.657 912.114 460.257 912.082 463.292C911.916 479.345 904.3 494.417 897.576 508.639C884.111 537.873 858.33 569.137 832.987 588.741C825.627 594.434 816.046 600.025 809.401 605.579L806.582 601.123C808.385 599.224 816.506 594.784 819.176 593.127C847.302 575.668 868.45 550.186 885.424 522.118C887.803 518.184 892.525 511.556 893.767 507.343Z" fill="#FCFCF7"/>
<path d="M883.847 499.459C887.41 495.359 896.912 474.3 898.935 473.212C901.059 477.929 890.487 497.837 887.404 501.934C881.549 509.827 876.544 518.718 870.508 526.501C849.427 553.685 825.898 571.319 796.616 589.01C795.28 587.945 793.621 586.342 792.32 585.161C800.934 581.327 806.554 577.592 814.374 572.45C842.59 553.894 866.623 528.536 883.847 499.459Z" fill="#FCFCF7"/>
<path d="M788.578 520.983C793.386 520.118 797.264 520.482 802.7 518.979C826.071 512.516 838.992 499.518 854.005 482.228C855.799 483.106 860.263 485.408 861.914 485.886C855.811 496.206 846.385 511.06 838.118 519.648C831.131 526.906 803.352 555.365 795.157 556.712C797.177 541.129 795.388 534.663 788.578 520.983Z" fill="#FFCFD2"/>
<path d="M278.375 519.784C284.576 519.395 292.241 519.041 298.309 518.221C298.822 518.803 299.352 519.35 299.92 519.879C302.415 519.612 303.33 516.925 307.185 515.793C335.458 507.493 355.261 489.537 386.651 491.26C398.905 491.932 402.851 491.987 414.117 497.939C424.698 503.377 433.383 511.047 442.53 518.489C456.344 529.727 472.292 541.263 489.91 545.272C498.116 547.139 507.869 547.274 516.281 548.977C517.959 549.317 520.494 548.986 522.257 549.164C520.445 550.593 519.958 550.906 520.193 553.266C521.499 554.578 520.726 554.113 522.692 554.523C524.638 553.857 523.851 554.41 525.139 552.8C525.606 550.828 525.366 550.571 524.652 548.56C525.454 547.966 529.18 546.615 530.318 546.15C542.821 541.044 552.779 530.399 562.597 521.289C572.271 512.31 580.365 502.466 592.239 495.858C600.369 491.27 610.865 485.867 620.583 485.629C653.537 484.825 685.434 498.091 718.43 500.586C734.121 501.772 745.347 504.59 761.512 503.474C711.736 536.833 642.902 552.809 584.286 561.487C526.066 570.107 467.357 571.51 408.899 564.144C368.901 559.103 324.854 547.89 289.897 527.255C286.627 525.323 281.442 521.742 278.027 520.582L278.375 519.784ZM618.22 524.763C617.446 525.3 617.024 526.214 617.117 527.152C617.21 528.089 617.803 528.903 618.668 529.277C619.532 529.652 620.532 529.529 621.279 528.955C622.398 528.097 622.627 526.504 621.796 525.366C620.966 524.227 619.378 523.96 618.22 524.763ZM593.512 526.705C592.27 527.22 591.667 528.631 592.151 529.885C592.636 531.139 594.032 531.777 595.297 531.324C596.143 531.02 596.759 530.282 596.905 529.394C597.051 528.507 596.704 527.61 596 527.051C595.295 526.493 594.342 526.36 593.512 526.705ZM585.67 542.779C584.739 543.653 584.647 545.101 585.459 546.087C586.272 547.072 587.71 547.258 588.746 546.511C589.479 545.983 589.857 545.091 589.728 544.197C589.598 543.303 588.982 542.555 588.129 542.257C587.276 541.959 586.328 542.16 585.67 542.779Z" fill="#8EECF5"/>
<path d="M398.788 487.303C402.151 488.581 408.816 490.901 411.559 492.787C410.314 492.852 407.561 491.934 405.71 491.779L406.303 492.112C403.272 491.672 400.959 491.508 398.73 489.169L398.788 487.303Z" fill="#7965A1"/>
<path d="M336.86 501.028C334.586 502.162 332.404 503.385 329.972 504.079L329.84 503.624C335.124 498.768 362.352 489.204 370.372 488.227C372.259 488.121 378.458 488.242 379.922 489.224C378.134 489.651 373.63 488.323 368.41 489.317C356.787 491.531 347.503 496.212 336.86 501.028Z" fill="#848DF1"/>
<path d="M793.273 564.583C795.932 564.102 801.138 559.334 803.599 557.485C831.369 536.625 848.601 517.818 865.708 487.812C869.556 490.153 880.752 496.695 883.845 499.459C866.621 528.536 842.588 553.894 814.372 572.45C806.552 577.592 800.932 581.327 792.318 585.161C789.588 582.72 787.932 581.872 784.523 580.613C788.541 574.751 790.484 571.129 793.273 564.583Z" fill="#FFCFD2"/>
<path d="M559.782 516.008C564.238 510.442 573.47 502.376 579.632 498.843C576.452 502.316 571.488 506.28 567.839 509.584C564.254 512.831 561.372 516.44 558.215 519.45C559.129 518.01 559.415 517.717 559.782 516.008Z" fill="#A3C4F3"/>
<path d="M261.406 515.866C266.521 517.345 273.186 518.884 278.376 519.784L278.028 520.582C283.968 527.267 308.815 540.532 318.014 544.049C341.83 553.153 371.829 562.251 396.997 565.948C457.242 574.799 519.625 574.171 579.787 565.223C593.401 563.198 607.153 561.83 620.652 559.025C664.195 549.938 707.768 536.919 747.378 516.442C756.229 511.866 762.973 505.163 772.189 501.379C769.135 508.616 760.678 516.359 754.305 520.787C716.248 546.847 668.673 559.241 623.867 567.689C601.995 570.389 579.346 575.045 557.523 577.186C509.295 581.917 453.609 582.634 405.843 576.267C364.78 570.793 287.261 550.133 261.406 515.866Z" fill="#8EECF5"/>
<path d="M796.613 589.01C825.895 571.319 849.424 553.685 870.505 526.501C876.541 518.718 881.546 509.827 887.401 501.934C889.26 503.607 891.739 506.009 893.764 507.343C892.522 511.556 887.8 518.184 885.421 522.118C868.447 550.186 847.299 575.668 819.173 593.127C816.503 594.784 808.382 599.224 806.579 601.123L804.814 598.977C802.601 595.242 799.685 592.047 796.613 589.01Z" fill="#FFCFD2"/>
<path d="M743.94 580.588C770.449 564.779 779.787 540.141 771.931 512.149C771.624 511.053 772.489 508.997 773.112 508.003L773.997 507.739C776.196 509.003 778.886 513.634 780.308 515.946C796.511 542.292 769.322 574.657 746.703 585.949C745.287 584.99 743.562 584.126 743.031 582.608C743.38 581.939 743.668 581.29 743.94 580.588Z" fill="url(#paint3_linear_17_12810)"/>
<path d="M897.573 508.639C901.302 512.924 905.076 518.019 908.784 522.023C891.542 558.274 873.816 580.815 842.207 606.275C837.826 609.804 819.035 621.221 817.554 622.962C815.271 617.341 812.23 610.908 809.398 605.579C816.043 600.025 825.624 594.434 832.984 588.741C858.327 569.137 884.108 537.873 897.573 508.639Z" fill="#FFCFD2"/>
<path d="M603.742 574.228C619.011 573.108 635.492 569.488 650.324 565.682C691.726 555.06 735.263 543.491 767.485 513.971C767.786 514.321 768.504 515.501 768.632 515.963C776.599 544.601 760.085 570.1 734.454 580.598C694.312 597.04 659.507 597.145 619.682 581.504C614.149 579.171 609.152 576.815 603.742 574.228Z" fill="#FEE57B"/>
<path d="M516.586 545.261C535.937 538.323 545.29 530.465 559.781 516.008C559.414 517.717 559.128 518.01 558.214 519.45C545.768 532.881 534.799 542.573 516.586 545.261Z" fill="#FCF1F7"/>
<path d="M621.28 528.955C620.533 529.529 619.533 529.652 618.669 529.277C617.804 528.903 617.211 528.089 617.118 527.152C617.025 526.214 617.447 525.3 618.221 524.763C619.379 523.96 620.967 524.227 621.797 525.366C622.628 526.504 622.399 528.097 621.28 528.955Z" fill="#513647"/>
<path d="M912.902 525.025C914.859 526.916 919.676 537.322 921.272 540.308C937.146 569.997 949.064 603.22 949.584 637.156C950.109 671.116 943.013 704.852 934.032 737.511C928.278 758.434 921.22 779.523 911.086 799.1C893.827 832.44 855.647 852.937 824.199 871.064C798.89 885.653 766.863 892.355 738.137 892.785C693.399 893.224 654.726 880.483 616.662 857.473C606.894 851.568 594.493 843.193 586.422 835.393C597.237 824.428 606.975 814.455 618.111 803.887C662.555 797.596 708.076 792.309 747.85 769.347C779.926 750.828 780.37 725.359 784.38 692.067C785.236 684.957 785.199 674.528 787.028 667.669C794.262 668.622 801.773 670.871 808.985 668.618C829.517 662.206 823.973 641.766 819.275 627.018C828.333 620.878 838.825 614.849 847.369 608.019C866.728 592.54 885.623 571.011 899.199 550.38C903.765 543.441 909.057 532.547 912.902 525.025Z" fill="#FFCFD2"/>
<path d="M595.297 531.324C594.032 531.777 592.636 531.139 592.151 529.885C591.667 528.631 592.27 527.22 593.512 526.705C594.342 526.36 595.295 526.493 596 527.051C596.704 527.61 597.051 528.507 596.905 529.394C596.759 530.282 596.143 531.02 595.297 531.324Z" fill="#513647"/>
<path d="M218.696 570.096C221.81 568.306 229.891 561.416 233.602 558.814C242.048 552.891 250.565 546.72 259.12 540.907C262.688 538.483 265.789 534.445 269.586 533.632C263.953 539.425 255.02 549.052 254.754 557.751C252.837 564.592 254.031 577.953 254.058 585.824C252.154 586.045 250.107 586.236 248.236 586.598C244.959 582.632 224.336 571.962 218.617 570.379L218.696 570.096Z" fill="#BAF1E3"/>
<path d="M581.254 580.896C586.673 582.681 592.703 586.043 598.119 587.786C616.905 593.831 636.369 599.896 655.809 603.44C692.43 610.116 729.74 602.871 760.587 581.944C777.424 570.522 785.934 554.168 789.206 534.376C792.733 538.016 791.878 553.908 790.676 558.775C782.674 591.19 742.653 608.717 712.941 614.339C680.805 620.419 646.305 620.419 614.323 613.419C606.725 611.758 598.774 610.162 591.639 607.057C586.264 604.719 585.252 600.946 583.483 595.88C582.205 590.739 581.625 586.156 581.254 580.896Z" fill="#FE8378"/>
<path d="M281.637 589.509C278.245 594.521 280.628 595.951 279.873 601.569C256.726 579.855 246.058 556.991 274.863 534.512L281.959 539.434C275.691 544.132 268.682 550.39 268.092 558.737C267.297 569.992 274.766 581.283 281.637 589.509Z" fill="#FEE57B"/>
<path d="M154.817 649.054C154.087 642.147 154.106 635.341 153.685 628.452C151.742 596.661 153.05 569.915 158.622 538.62C171.264 546.941 186.499 553.758 200.026 560.614C203.85 562.553 215.805 567.952 218.694 570.096L218.615 570.379C190.559 593.73 171.678 616.69 154.817 649.054Z" fill="#E6DFD5"/>
<path d="M110.358 569.505C92.7144 568.026 89.768 545.39 108.278 540.103C125.456 538.504 130.108 565.234 110.358 569.505ZM111.599 546.331C108.053 549.474 104.272 552.6 103.647 557.621C103.197 561.24 106.706 562.96 109.741 563.012C118.027 560.914 121.122 548.08 111.599 546.331Z" fill="#FCFCF7"/>
<path d="M448.158 606.389C427.011 615.992 390.882 626.883 365.609 623.231C333.841 618.639 272.931 598.42 271.721 558.042C271.555 552.505 281.163 545.428 285.712 541.904C346.71 575.997 410.832 584.733 479.755 585.061C470.846 595.843 460.496 600.475 448.158 606.389Z" fill="#FEE57B"/>
<path d="M588.746 546.511C587.71 547.258 586.272 547.072 585.459 546.087C584.647 545.101 584.739 543.653 585.67 542.779C586.328 542.16 587.276 541.959 588.129 542.257C588.982 542.555 589.598 543.303 589.728 544.197C589.857 545.091 589.479 545.983 588.746 546.511Z" fill="#513647"/>
<path d="M109.743 563.012C106.708 562.96 103.199 561.24 103.649 557.621C104.274 552.6 108.055 549.474 111.601 546.331C121.124 548.08 118.029 560.914 109.743 563.012Z" fill="#E6DFD5"/>
<path d="M522.256 549.164L524.651 548.56C525.365 550.571 525.605 550.828 525.138 552.8C523.85 554.41 524.637 553.857 522.691 554.523C520.725 554.113 521.498 554.578 520.192 553.266C519.957 550.906 520.444 550.593 522.256 549.164Z" fill="#696078"/>
<path d="M254.756 557.751C255.356 559.851 254.757 563.069 254.828 565.593C255.277 581.644 252.67 588.449 260.051 603.403L259.604 604.064C255.902 598.556 254.976 593.372 254.068 587.038C243.124 590.04 236.232 593.576 230.054 603.879C228.271 606.853 226.229 613.27 227.688 616.603C231.407 625.098 241.555 625.306 242.538 636.785C243.389 646.728 228.471 660.202 241.945 666.578C251.121 670.919 269.757 666.863 274.068 677.111C276.602 683.134 272.936 693.546 280.673 696.618C290.311 700.446 301.852 691.335 312.362 694.696C325.525 698.905 320.338 713.264 332.881 717.241C354.689 724.157 374.466 710.612 396.818 713.815C411.51 715.92 417.783 729.592 431.794 729.121C440.722 728.821 451.567 723.958 460.258 721.258C470.671 718.024 478.564 716.997 489.503 717.06C505.212 720.444 512.773 730.186 525.642 731.939C541.542 732.151 551.683 717.067 568.702 719.433C574.927 720.298 577.221 720.797 583.188 722.961C592.599 726.374 602.76 736.2 612.298 728.783C631.432 713.903 648.729 716.264 671.231 719.169C699.981 722.435 707.957 701.895 733.348 692.953C746.26 688.406 755.458 691.357 767.5 684.686C776.164 679.888 779.714 666.965 785.819 663.88C790.467 661.532 803.635 668.733 811.691 663.346C815.669 660.686 818.3 656.784 819.264 651.986C822.178 637.491 808.479 612.977 801.135 601.048C801.588 597.299 787.676 584.666 783.627 583.222C784.396 582.319 784.318 582.354 785.431 581.956C792.661 583.505 799.56 595.664 804.818 598.977L806.583 601.123L809.402 605.579C812.234 610.908 815.275 617.341 817.558 622.962L819.275 627.018C823.973 641.766 829.517 662.206 808.985 668.618C801.773 670.871 794.262 668.622 787.028 667.669C785.199 674.528 785.236 684.957 784.38 692.067C780.37 725.359 779.926 750.828 747.85 769.347C708.076 792.309 662.555 797.596 618.111 803.887C596.91 805.89 576.647 807.754 555.347 808.797C543.459 809.209 530.737 809.566 518.776 809.458C453.657 808.87 385.063 802.623 323.334 780.821C306.293 774.803 285.182 765.737 272.819 752.801C252.502 731.542 253.448 699.822 253.579 672.941C248.729 672.148 243.337 671.372 238.902 669.113C222.237 660.627 241.601 646.018 238.032 634.457C235.725 626.856 225.658 625.045 223.623 617.277C221.152 607.847 228.24 598.24 235.392 592.787C239.594 589.583 243.25 587.987 248.238 586.598C250.109 586.236 252.156 586.045 254.06 585.824C254.033 577.953 252.839 564.592 254.756 557.751ZM493.789 723.072C470.946 716.269 453.455 731.864 432.169 733.589C417.733 734.758 410.885 720.001 397.758 717.754C392.54 716.861 386.402 716.889 380.905 717.865C364.005 720.865 333.424 731.902 321.575 712.921C318.787 708.043 317.542 699.34 311.082 697.907C300.162 695.483 280.523 709.62 272.854 695.267C267.186 684.66 277.936 674.518 257.492 673.313C257.503 722.263 260.151 750.848 309.614 770.548C386.605 801.209 469.681 806.029 551.582 804.383C557.962 803.542 566.894 803.492 573.634 802.987C589.908 801.765 607.465 800.987 623.538 798.542C664.094 795.694 718.744 783.799 752.753 760.793C780.117 742.283 777.525 705.566 781.744 676.495C765.984 699.358 750.843 689.534 730.648 698.909C704.565 711.018 700.134 726.155 668.047 723.873C651.455 721.661 639.387 718.701 623.818 727.159C619.756 729.366 614.934 732.578 611.153 734.635C601.216 740.04 588.808 729.354 579.118 726.281C562.258 720.935 554.486 726.013 540.082 733.375C520.81 743.226 510.02 728.854 494.414 723.288L493.789 723.072Z" fill="#696078"/>
<path d="M154.818 649.054C171.679 616.69 190.56 593.73 218.616 570.379C224.335 571.962 244.958 582.632 248.235 586.598C243.247 587.987 239.591 589.583 235.389 592.787C228.237 598.24 221.149 607.847 223.62 617.277C225.655 625.045 235.722 626.856 238.029 634.457C241.598 646.018 222.234 660.627 238.899 669.113C243.334 671.372 248.726 672.148 253.576 672.941C253.445 699.822 252.499 731.542 272.816 752.801C285.179 765.737 306.29 774.803 323.331 780.821C385.06 802.623 453.654 808.87 518.773 809.458C530.734 809.566 543.456 809.209 555.344 808.797C556.132 808.863 557.736 809.078 558.276 809.561C567.082 817.442 577.698 827.504 585.942 835.64C582.463 839.766 575.571 844.235 571.369 847.853C547.884 868.075 520.492 884.778 491.198 894.932C441.632 912.08 391.881 896.596 343.451 884.189C270.224 865.43 188.683 849.169 152.561 774.137C137.579 743.017 135.682 709.434 144.408 676.121C146.062 669.806 148.724 663.747 150.93 657.629C152.261 655.237 153.7 651.645 154.818 649.054Z" fill="#8EECF5"/>
<path d="M597.076 575.371C602.913 578.91 617.965 584.545 624.741 587.068C664.403 601.835 705.752 599.064 743.941 580.588C743.669 581.29 743.381 581.939 743.032 582.608C743.563 584.126 745.288 584.99 746.704 585.949C709.037 607.725 664.568 604.635 624.763 592.038C610.771 587.609 598.977 585.681 585.887 577.763C589.744 577.03 593.256 576.28 597.076 575.371Z" fill="#FEE57B"/>
<path d="M560.477 580.671C564.9 580.08 569.507 579.688 573.959 579.248L574.415 579.351L574.592 579.949C572.176 583.748 566.803 589.681 563.446 592.724C532.278 620.972 491.688 636.012 449.856 634.774L448.816 634.429L449.056 633.832C453.942 631.285 462.258 626.408 467.045 625.201C470.116 624.427 477.159 623.978 480.907 623.357C506.691 619.082 545.176 601.779 560.477 580.671Z" fill="#FEE57B"/>
<path d="M401.8 644.4C353.643 654.398 292.333 646.398 263.171 602.221C259.884 597.242 256.438 587.619 257.921 581.752L258.541 581.575C261.051 583.983 262.801 587.802 264.966 590.674C295.412 631.076 345.68 642.056 393.866 637.002C402.303 638.182 414.069 633.302 422.373 631.594C423.558 631.35 423.965 631.741 424.942 632.257C425.834 633.732 425.694 633.878 425.692 635.577C423.318 641.533 405.554 640.193 401.8 644.4Z" fill="#FEC461"/>
<path d="M507.196 584.98C518.782 583.307 540.462 582.714 553.39 581.796L553.734 581.958C553.019 583.555 546.804 588.894 545.142 590.279C526.06 606.191 498.736 618.251 473.925 620.212L473.699 619.836C492.124 605.778 492.932 602.251 507.196 584.98Z" fill="#FEE57B"/>
<path d="M442.462 636.607C449.065 638.659 460.14 638.342 467.186 637.912C507.022 635.48 550.506 613.719 576.953 584.059C577.32 584.82 577.17 584.37 577.306 585.165C578.73 593.454 578.65 599.075 583.859 605.888C570.697 617.356 560.063 623.696 544.837 631.91C506.052 652.832 472.51 663.086 428.768 650.078C424.273 648.444 420.347 646.874 415.945 645.033C425.013 641.948 432.903 640.202 442.462 636.607Z" fill="#FE8378"/>
<path d="M782.645 583.751C788.549 586.791 792.368 590.563 796.613 595.642C797.99 597.289 799.615 599.657 801.134 601.048C808.478 612.977 822.177 637.491 819.263 651.986C818.299 656.784 815.668 660.686 811.69 663.346C803.634 668.733 790.466 661.532 785.818 663.88C779.713 666.965 776.163 679.888 767.499 684.686C755.457 691.357 746.259 688.406 733.347 692.953C707.956 701.895 699.98 722.435 671.23 719.169C666.852 709.338 656.23 708.379 648.516 703.53C655.403 701.915 663.175 701.13 670.461 699.776C711.438 692.162 761.024 678.408 779.043 636.421C787.034 617.801 784.949 606.584 777.57 588.777L782.645 583.751Z" fill="#FCF1F7"/>
<path d="M474.3 595.456C477.988 591.972 481.126 589.054 484.485 585.219L491.819 585.222C486.306 591.247 482.99 594.684 476.387 599.719L474.388 599.102C473.499 597.642 473.904 597.713 474.3 595.456Z" fill="#FEE57B"/>
<path d="M393.863 637.002C421.406 631.769 446.523 625.095 469.841 608.627C480.004 601.45 489.055 594.285 497.488 585.101C497.82 584.739 500.355 584.99 501.202 585.381C501.114 589.233 488.003 602.941 485.021 605.749C461.37 628.021 433.124 638.334 401.797 644.4C405.551 640.193 423.315 641.533 425.689 635.577C425.691 633.878 425.831 633.732 424.939 632.257C423.962 631.741 423.555 631.35 422.37 631.594C414.066 633.302 402.3 638.182 393.863 637.002Z" fill="url(#paint4_linear_17_12810)"/>
<path d="M254.065 587.038C254.973 593.372 255.899 598.556 259.601 604.064C260.895 606.674 266.051 613.123 266.329 614.374C268.436 623.873 269.64 633.113 272.83 642.491C282.455 670.794 311.835 685.095 338.091 694.489C382.336 709.619 438.22 711.063 485.208 711.561C490.202 712.834 488.319 712.419 489.5 717.06C478.561 716.997 470.668 718.024 460.255 721.258C451.564 723.958 440.719 728.821 431.791 729.121C417.78 729.592 411.507 715.92 396.815 713.815C374.463 710.612 354.686 724.157 332.878 717.241C320.335 713.264 325.522 698.905 312.359 694.696C301.849 691.335 290.308 700.446 280.67 696.618C272.933 693.546 276.599 683.134 274.065 677.111C269.754 666.863 251.118 670.919 241.942 666.578C228.468 660.202 243.386 646.728 242.535 636.785C241.552 625.306 231.404 625.098 227.685 616.603C226.226 613.27 228.268 606.853 230.051 603.879C236.229 593.576 243.121 590.04 254.065 587.038Z" fill="#8EECF5"/>
<path d="M279.873 601.569C280.628 595.951 278.245 594.521 281.637 589.509C304.764 612.178 345.742 627.126 377.987 626.91C407.787 626.71 450.694 613.687 474.302 595.456C473.906 597.713 473.501 597.642 474.39 599.102L476.389 599.719C468.991 605.175 460.596 611.162 452.338 615.228C420.253 631.024 382.53 638.76 346.989 633.268C322.066 629.416 297.413 619.921 279.873 601.569Z" fill="url(#paint5_linear_17_12810)"/>
<path d="M774.989 635.304C771.848 636.67 767.579 638.467 764.154 638.407C773.146 623.117 771.301 614.317 763.121 599.568C766.809 596.999 770.838 593.815 774.465 591.084C781.623 605.597 782.248 620.643 774.989 635.304Z" fill="#A3C4F3"/>
<path d="M751.091 606.518L758.741 602.04C761.191 603.681 764.152 609.415 765.024 612.299C767.312 619.866 766.221 627.988 762.144 634.841C749.248 656.636 723.615 667.188 699.811 673.283C654.355 684.921 605.934 688.853 559.151 691.059C548.441 691.564 534.9 692.88 524.451 691.772C512.594 690.514 498.959 681.846 487.374 678.516C472.764 673.515 460.466 672.216 445.876 668.41C431.482 664.656 416.138 655.713 403.102 648.362C405.568 647.474 407.126 647.03 409.675 646.409C413.499 648.656 420.239 651.208 424.4 652.651C445.45 659.95 464.878 661.08 486.751 657.813C518.463 670.882 550.21 686.239 585.471 683.404C601.547 682.111 616.678 679.144 632.914 678.325C660.985 676.907 694.393 660.736 711.993 638.823C717.533 631.925 720.751 622.003 726.394 615.714C733.735 613.145 740.332 610.749 747.556 607.85C746.845 612.525 745.852 628.189 754.507 624.41L754.77 623.684C748.952 618.056 750.019 614.239 751.091 606.518Z" fill="#A3C4F3"/>
<path d="M513.023 650.946C518.535 648.373 524.429 646.417 529.896 643.73C545.434 636.097 561.17 628.466 574.634 617.418C578.167 614.518 581.897 611.71 585.484 608.875C587.217 609.034 594.166 611.922 596.567 612.662C638.079 625.465 677.143 625.45 719.837 617.523C700.173 634.286 671.959 641.914 646.942 645.904C620.614 650.574 588.73 652.104 561.97 652.498C550.964 652.66 538.632 651.106 527.533 650.798C522.615 650.661 517.938 650.929 513.023 650.946Z" fill="#FCF1F7"/>
<path d="M339.599 680.005C333.817 679.179 326.511 676.582 320.723 675.145C311.114 672.759 301.092 671.876 293.443 665.001C280.637 653.492 272.628 636.814 271.293 619.661C281.343 628.48 286.837 631.752 298.1 638.478C302.176 656.58 310.451 667.564 327.667 675.18C331.537 676.892 335.902 678.067 339.599 680.005Z" fill="#A3C4F3"/>
<path d="M532.098 655.236C543.918 654.831 556.357 656.121 568.197 655.923C585.619 655.631 603.174 654.683 620.476 652.806C658.576 648.674 683.715 645.241 716.501 625.001C716.935 625.407 716.723 625.111 716.782 626.057C702.662 657.847 642.706 682.189 609.457 672.699C606.977 672.174 604.425 671.701 601.961 671.13C584.649 667.113 567.449 662.828 550.099 658.953C543.974 657.543 538.316 656.183 532.098 655.236Z" fill="#A3C4F3"/>
<path d="M764.156 638.407C767.581 638.467 771.85 636.67 774.991 635.304C768.558 653.561 747.392 669.427 730.589 677.491C713.057 685.905 693.608 691.32 674.583 695.048C645.966 700.657 617.056 703.048 588.02 704.863C541.969 707.74 495.348 708.988 449.247 706.546C430.886 705.573 414.043 705.574 395.564 703.126C373.508 700.205 352.705 695.708 331.72 688.103C328.206 686.829 319.267 683.4 316.449 681.349C315.43 679.7 314.599 680.094 313.664 678.339C315.704 678.063 318.956 678.125 321.28 677.906C325.465 677.933 349.729 684.918 356.158 686.163C369.613 688.902 383.349 690.828 397.055 692.105C468.739 698.78 540.89 697.166 612.58 691.333C644.512 687.875 676.295 684.242 707.216 675.246C735.151 667.118 745.704 660.427 763.877 638.735L764.156 638.407Z" fill="#848DF1"/>
<path d="M466.224 693.101C422.716 689.649 366.61 691.797 327.437 671.192C313.34 663.777 306.393 655.248 301.672 640.134C305.927 641.172 316.906 645.847 320.356 648.911C326.634 654.486 329.489 659.147 337.601 662.434C334.198 656.672 330.462 652.908 325.889 648.099C339.127 651.866 357.483 652.429 371.027 651.984C390.717 669.826 422.065 681.668 447.447 688.25C452.464 689.522 461.845 691.347 466.224 693.101Z" fill="#A3C4F3"/>
<path d="M376.605 651.511C381.482 650.776 388.117 650.262 393.199 649.69C398.624 648.479 406.476 654.359 411.223 656.933C417.759 660.476 424.105 664.272 430.962 667.223C444.859 673.204 459.744 674.673 474.276 678.27C487.542 681.76 502.195 688.086 514.942 693.374C509.919 693.194 503.93 693.422 498.839 693.487C477.089 693.675 473.634 691.272 453.239 686.229C422.58 678.647 401.928 670.806 376.605 651.511Z" fill="#A3C4F3"/>
<path d="M492.707 656.801C496.707 655.692 500.689 654.956 504.754 654.153C511.537 653.262 536.162 659.376 543.393 660.962C566.163 665.954 588.601 671.717 611.452 676.518C607.594 677.587 603.454 678.198 599.491 678.87C591.372 679.86 582.269 680.74 574.139 680.338C546.599 678.973 517.751 667.577 492.707 656.801Z" fill="#A3C4F3"/>
<path d="M257.488 673.313C277.932 674.518 267.182 684.66 272.85 695.267C280.519 709.62 300.158 695.483 311.078 697.907C317.538 699.34 318.783 708.043 321.571 712.921C333.42 731.902 364.001 720.865 380.901 717.865C386.398 716.889 392.536 716.861 397.754 717.754C410.881 720.001 417.729 734.758 432.165 733.589C453.451 731.864 470.942 716.269 493.785 723.072C497.739 731.447 501.651 740.061 506.494 747.962C517.162 765.367 529.834 781.514 544.342 795.884C545.77 797.298 551.456 802.276 551.972 803.752L551.578 804.383C469.677 806.029 386.601 801.209 309.61 770.548C260.147 750.848 257.499 722.263 257.488 673.313Z" fill="#8EECF5"/>
<path d="M321.278 677.906C318.954 678.125 315.702 678.063 313.662 678.339C314.597 680.094 315.428 679.7 316.447 681.349C313.834 680.345 310.89 679.021 308.687 677.323L308.637 676.665C311.355 676.001 318.133 677.477 321.278 677.906Z" fill="#6F71DF"/>
<path d="M668.044 723.873C700.131 726.155 704.562 711.018 730.645 698.909C750.84 689.534 765.981 699.358 781.741 676.495C777.522 705.566 780.114 742.283 752.75 760.793C718.741 783.799 664.091 795.694 623.535 798.542C624.113 795.898 637.365 778.722 639.913 775.043C651.054 758.962 661.319 742.325 668.044 723.873Z" fill="#FFCFD2"/>
<path d="M485.211 711.561C536.25 713.041 597.857 708.901 648.517 703.53C656.231 708.379 666.853 709.338 671.231 719.169C648.729 716.264 631.432 713.903 612.298 728.783C602.76 736.2 592.599 726.374 583.188 722.961C577.221 720.797 574.927 720.298 568.702 719.433C551.683 717.067 541.542 732.151 525.642 731.939C512.773 730.186 505.212 720.444 489.503 717.06C488.322 712.419 490.205 712.834 485.211 711.561Z" fill="#B9FBC0"/>
<path d="M493.785 723.072L494.41 723.288C510.016 728.854 520.806 743.226 540.078 733.375C554.482 726.013 562.254 720.935 579.114 726.281C588.804 729.354 601.212 740.04 611.149 734.635C614.93 732.578 619.752 729.366 623.814 727.159C639.383 718.701 651.451 721.661 668.043 723.873C661.318 742.325 651.053 758.962 639.912 775.043C637.364 778.722 624.112 795.898 623.534 798.542C607.461 800.987 589.904 801.765 573.63 802.987C566.89 803.492 557.958 803.542 551.578 804.383L551.972 803.752C551.456 802.276 545.77 797.298 544.342 795.884C529.834 781.514 517.162 765.367 506.494 747.962C501.651 740.061 497.739 731.447 493.785 723.072Z" fill="#B9FBC0"/>
<path d="M555.344 808.797C576.644 807.754 596.907 805.89 618.108 803.887C606.972 814.455 597.234 824.428 586.419 835.393L585.942 835.64C577.698 827.504 567.082 817.442 558.276 809.561C557.736 809.078 556.132 808.863 555.344 808.797Z" fill="#B9FBC0"/>
<defs>
<linearGradient id="paint0_linear_17_12810" x1="695.807" y1="301.478" x2="697.18" y2="289.131" gradientUnits="userSpaceOnUse">
<stop stop-color="#5F5F62"/>
<stop offset="1" stop-color="#4F676C"/>
</linearGradient>
<linearGradient id="paint1_linear_17_12810" x1="867.317" y1="468.171" x2="920.629" y2="469.087" gradientUnits="userSpaceOnUse">
<stop stop-color="#FAF7D7"/>
<stop offset="1" stop-color="#F4EDE1"/>
</linearGradient>
<linearGradient id="paint2_linear_17_12810" x1="518.4" y1="418.35" x2="510.04" y2="711.371" gradientUnits="userSpaceOnUse">
<stop stop-color="#77567D"/>
<stop offset="1" stop-color="#6C6390"/>
</linearGradient>
<linearGradient id="paint3_linear_17_12810" x1="737.826" y1="550.076" x2="786.155" y2="543.217" gradientUnits="userSpaceOnUse">
<stop stop-color="#FFDB68"/>
<stop offset="1" stop-color="#FF7D6E"/>
</linearGradient>
<linearGradient id="paint4_linear_17_12810" x1="460.068" y1="606.722" x2="466.972" y2="619.026" gradientUnits="userSpaceOnUse">
<stop stop-color="#FF8968"/>
<stop offset="1" stop-color="#FF756F"/>
</linearGradient>
<linearGradient id="paint5_linear_17_12810" x1="379.416" y1="583.601" x2="371.651" y2="635.884" gradientUnits="userSpaceOnUse">
<stop stop-color="#FFEA72"/>
<stop offset="1" stop-color="#FFF3E8"/>
</linearGradient>
</defs>
</svg>
