<svg width="1024" height="1024" viewBox="0 0 1024 1024" fill="none" xmlns="http://www.w3.org/2000/svg">
<path d="M740.842 210.088C736.024 210.863 688.081 218.911 686.81 219.566C630.691 173.379 560.657 149.047 487.845 155.21C385.015 163.915 298.285 231.075 267.429 329.905C262.452 345.843 259.619 362.035 256.969 378.502C253.908 374.273 251.661 369.898 247.99 364.979C236.227 349.213 214.459 336.275 194.862 333.848L194.703 333.654C195.321 326.672 197.093 318.751 198.602 311.928C213.544 244.368 255.783 184.501 311.852 144.528C320.306 138.178 328.637 131.609 337.604 125.988C432.11 66.7522 554.336 29.6406 657.298 91.1401C691.291 111.444 718.013 146.427 732.88 182.875C736.449 191.623 738.554 200.891 740.842 210.088ZM595.43 115.635L594.759 115.801L593.432 114.074L592.518 113.958L591.699 114.769C591.946 116.635 593.387 117.418 594.739 119.475L593.751 119.896C592.657 118.968 592.728 119.032 592.088 117.742C590.794 118.329 591.318 117.918 590.609 119.129C591.201 120.583 591.633 120.623 593.001 121.453C593.723 121.471 594.764 121.541 595.447 121.448C596.196 123.618 596.369 124.527 597.688 126.346C600.173 126.367 599.285 124.639 602.208 124.05C603.115 124.997 603.3 125.38 604.472 125.904C606.627 122.969 603.679 124.295 605.354 122.6C606.855 121.08 608.552 121.948 610.005 119.951L609.578 119.148C608.885 119.134 608.443 119.137 607.74 119.178L607.135 119.218L606.949 118.444C607.79 116.942 607.986 116.785 608.329 115.065C606.001 116.049 605.621 118.32 605.099 120.513L604.916 121.3C604.192 118.989 603.589 114.944 602.004 113.719C600.197 113.762 600 113.876 598.521 114.732C597.537 114.293 597.886 114.406 596.814 114.285L595.43 115.635ZM248.523 255.997C247.812 255.292 247.192 254.702 246.445 254.035L245.746 254.486C245.959 256.35 246.684 260.398 246.34 261.91L245.581 262.345C244.704 260.904 244.404 253.174 244.208 250.942L240.469 245.477C240.911 247.446 242.177 252.489 242.141 254.278C240.709 254.846 240.186 254.875 238.681 255.138C236.516 257.174 238.704 260.87 239.967 263.206L240.636 263.026L241.368 257.123L241.938 257.083C243.631 260.548 244.107 265.811 245.872 267.928L246.759 267.853L248.944 264.665C250.34 265.739 251.217 268.045 252.627 269.885C252.187 265.801 251.438 261.306 252.518 257.335C252.976 260.124 254.834 265.134 257.526 266.355C258.748 263.046 255.352 261.866 255.388 258.996C257.632 258.091 258.637 258.111 258.916 255.623C258.295 253.585 257.09 252.74 255.54 251.236L253.888 254.578C252.985 255.096 253.43 255.014 252.59 254.983C251.619 253.903 251.582 253.307 251.044 251.889L250.439 251.678C249.016 253.196 249.043 253.881 248.523 255.997ZM558.464 84.2437C548.755 103.193 534.817 110.95 514.861 117.635C483.959 127.987 448.62 121.099 421.719 103.557C419.582 102.158 415.778 98.6629 413.329 98.6411L412.845 99.3889C413.359 100.99 413.901 101.299 415.125 102.439C434.692 119.224 467.508 127.296 493.008 125.655C513.924 124.31 554.987 109.899 560.797 86.6776C560.427 84.9709 560.399 84.8215 558.464 84.2437ZM242.905 240.355C243.056 243.179 243.197 244.583 244.875 246.857L245.995 247.038C245.613 244.486 245.139 241.965 242.905 240.355Z" fill="#E2D2F8"/>
<path d="M415.124 102.439C413.9 101.299 413.358 100.99 412.844 99.3889L413.328 98.6411C415.777 98.6629 419.581 102.158 421.718 103.557C448.619 121.099 483.958 127.987 514.86 117.635C534.816 110.95 548.754 103.193 558.463 84.2437C560.398 84.8215 560.426 84.9709 560.796 86.6776C554.986 109.899 513.923 124.31 493.007 125.655C467.507 127.296 434.691 119.224 415.124 102.439Z" fill="#FEFEFD"/>
<path d="M595.43 115.635L596.814 114.285C597.886 114.406 597.537 114.293 598.521 114.732C600 113.876 600.197 113.762 602.004 113.719C603.589 114.944 604.192 118.989 604.916 121.3L605.099 120.513C605.621 118.32 606.001 116.049 608.329 115.065C607.986 116.785 607.79 116.942 606.949 118.444L607.135 119.218L607.74 119.178C608.443 119.137 608.885 119.134 609.578 119.148L610.005 119.951C608.552 121.948 606.855 121.08 605.354 122.6C603.679 124.295 606.627 122.969 604.472 125.904C603.3 125.38 603.115 124.997 602.208 124.05C599.285 124.639 600.173 126.367 597.688 126.346C596.369 124.527 596.196 123.618 595.447 121.448C596.071 120.275 596.189 119.693 596.57 118.426L595.43 115.635Z" fill="#FEFEFD"/>
<path d="M594.739 119.475C593.387 117.418 591.946 116.635 591.699 114.769L592.518 113.958L593.432 114.074L594.759 115.801L595.43 115.635L596.57 118.426L594.739 119.475Z" fill="url(#paint0_linear_17_12580)"/>
<path d="M596.57 118.426C596.189 119.693 596.071 120.275 595.447 121.448C594.764 121.541 593.723 121.471 593.001 121.453C591.633 120.623 591.201 120.583 590.609 119.129C591.318 117.918 590.794 118.329 592.088 117.742C592.728 119.032 592.657 118.968 593.751 119.896L594.739 119.475L596.57 118.426Z" fill="#F9E3FE"/>
<path d="M256.967 378.502C259.617 362.035 262.45 345.843 267.427 329.905C298.283 231.075 385.013 163.915 487.843 155.21C560.655 149.047 630.689 173.379 686.808 219.566C712.374 241.344 734.498 265.704 748.369 296.712C754.2 309.748 757.266 324.026 762.383 336.763C772.286 361.416 777.3 381.267 779.555 407.797C782.048 437.115 776.227 460.028 768.234 487.895C760.598 523.393 739.239 554.573 716.376 581.872C711.865 587.258 708.163 593.984 703.677 599.471C690.677 616.913 674.892 627.861 656.584 638.806C636.066 649.585 615.227 657.788 593.192 664.966C582.352 668.497 571.95 673.32 560.863 676.038C529.675 684.63 503.29 680.552 472.353 674.094C464.195 672.391 454.634 670.637 446.583 668.592C451.402 672.922 458.526 678.545 462.457 683.327C479.133 703.62 499.417 735.288 499.947 762.235C498.612 786.717 487.207 806.955 463.67 816.252C455.278 818.915 450.065 819.165 441.444 817.316C422.511 813.638 409.827 798.314 401.477 782.036C387.032 753.877 386.936 724.671 388.547 694.039C379.653 704.868 372.622 718.559 365.132 730.522C354.538 747.443 343.299 763.35 332.043 779.75C326.878 787.072 321.832 796.322 316.598 804.036C309.385 814.668 301.809 823.878 294.352 834.083C277.947 856.688 263.202 880.35 242.126 899.046C232.097 907.942 226.333 912.307 213.068 904.403C206.242 900.336 200.905 891.186 204.802 883.345C210.169 872.55 217.602 862.561 223.85 852.239C242.093 823.463 260.976 795.176 280.869 767.506C283.773 764.325 289.101 756.432 291.662 752.807C295.916 746.782 300.655 740.133 304.605 733.94L306.168 731.608C317.179 714.537 334.794 690.218 347.746 674.264C308.383 684.249 271.831 684.549 234.57 662.459C191.589 636.978 189.205 588.835 243.644 577.476C277.375 570.437 313.763 583.811 342.61 603.01C333.503 593.204 324.481 583.342 315.298 573.61C308.548 566.456 298.961 557.632 293.421 549.915C275.867 525.457 266.421 486.918 260.662 457.859C255.464 427.723 253.897 408.832 256.967 378.502ZM614.012 177.337C603.509 183.359 592.063 190.911 583.404 199.304C567.793 214.437 552.131 230.247 539.869 248.258C538.523 248.981 538.174 249.214 536.691 249.689C540.142 239.427 577.967 200.42 588.086 192.523C593.54 188.266 605.02 179.803 611.48 176.428C574.759 161.7 541.09 155.181 501.466 156.269C469.534 188.765 450.589 227.302 445.821 272.636L444.147 273.929C443.952 267.113 445.978 259.112 447.114 252.369C453.326 215.508 473.487 183.316 498.705 156.01C459.604 159.513 425.714 166.468 390.589 185.223C373.236 218.518 361.937 234.047 363.444 274.668C363.743 282.733 363.751 294.511 365.401 302.348L363.592 303.37C362.59 299.9 362.494 295.652 362.253 292.014C360.78 269.864 360.727 247.409 368.051 226.15C372.876 212.146 380.87 200.025 387.628 186.987C341.688 210.499 301.493 252.607 281.308 300.228C284.412 305.195 297.02 324.702 297.787 329.191L296.39 329.165C291.056 320.023 285.784 311.057 280.254 302.025C277.67 307.602 275.588 312.311 273.451 318.024C272.487 320.6 268.64 332.685 267.783 334.027L267.516 335.986C259.07 370.358 255.053 394.802 258.608 430.213C279.247 455.645 301.637 475.28 328.466 493.74C338.685 500.771 348.769 508.845 359.958 514.447C396.986 532.986 440.009 526.476 474.483 505.389C495.253 492.474 520.998 463.573 526.663 439.832C514.061 450.886 501.534 458.598 485.059 462.229C450.07 469.941 409.294 469.698 378.15 450.615C342.693 428.889 325.335 392.427 309.394 355.914C307.578 351.753 298.392 333.185 297.808 330.757L298.364 330.271L299.712 331.463C301.517 334.674 303.394 338.44 304.895 341.805C324.345 385.934 343.244 432.308 389.702 454.458C424.656 471.124 501.839 470.322 526.065 435.863C517.272 437.122 508.372 438.205 499.465 438.004C475.027 437.294 447.756 429.319 427.345 416.091C394.355 394.71 374.27 359.739 366.786 321.733C365.823 316.841 364.973 311.837 363.954 306.93L365.117 304.906C366.225 306.807 367.488 317.092 368.087 320.043C375.487 356.488 394.775 391.685 425.975 412.779C454.233 431.884 490.992 440.106 524.346 433.884C500.699 424.807 479.951 414.116 463.005 394.382C438.188 365.483 440.391 313.326 443.53 277.171L444.815 276.228C445.398 279.029 443.992 295.045 443.831 299.046C442.803 324.695 443.401 352.814 454.072 376.531C466.893 405.027 498.076 422.068 526.286 432.538C509.71 410.781 494.122 403.194 489.146 371.32C482.265 327.237 508.522 288.047 533.935 254.108C534.84 253.277 535.74 252.916 536.835 252.366C532.798 259.536 527.454 266.35 522.857 273.234C507.437 296.323 492.541 319.937 490.611 348.465C489.322 367.532 491.475 382.988 501.576 399.462C508.329 410.475 517.442 418.517 525.633 428.299C518.462 400.78 521.88 374.925 536.681 350.296C561.446 309.086 604.277 278.231 650.426 265.339C651.073 265.159 651.817 264.994 652.471 264.848L654.917 265.496L654.443 265.702C648.774 268.104 642.531 269.581 636.768 271.785C575.385 295.262 508.6 354.992 527.49 427.528C539.972 389.229 560.078 367.301 595.837 348.835C628.4 332.02 675.402 325.108 710.478 336.326L711.283 337.815C706.93 337.908 698.943 335.399 694.193 334.619C629.237 323.952 545.355 360.611 529.156 429.463C535.459 423.244 541.961 416.898 549.424 411.912C596.844 380.234 668.145 384.186 712.871 419.14C713.233 419.423 713.555 419.924 713.822 420.308L713.806 421.741C706.173 416.806 699.466 411.657 690.602 407.324C640.783 382.974 569.696 386.48 531.783 430.573C531.271 431.168 530.992 432.082 530.927 432.861C531.343 433.368 531.608 433.86 532.639 433.732C542.006 432.563 551.259 429.27 560.845 428.027C602.453 422.63 633.815 438.774 661.304 468.792C665.141 472.982 677.195 486.513 678.099 491.201C675.406 490.098 666.029 477.129 663.365 474.051C628.517 433.793 590.177 420.266 538.348 435.266C542.318 437.512 546.28 439.763 550.22 442.061C584.278 461.923 606.081 491.728 618.589 528.818L616.935 529.699C613.52 521.021 611.315 514.239 606.89 505.642C591.427 475.592 567.015 451.236 536.217 437.092C534.967 436.518 533.15 435.903 531.836 435.45C552.616 473.181 569.641 499.01 563.375 545.973L563.264 548.315C558.764 574.339 549.423 603.7 531.397 623.531L529.722 622.61C544.146 605.776 553.346 584.611 558.222 563.224C569.657 513.067 557.053 480.922 531.4 439.527C537.016 457.067 535.386 477.369 531.374 495.195C521.545 538.863 488.005 563.041 451.673 584.856L448.976 586.404C419.806 605.437 388.355 610.91 353.987 610.522C379.53 633.595 405.258 653.133 438.543 663.671C456.857 669.469 452.992 670.583 471.192 663.417C495.76 653.744 509.424 644.989 527.851 625.756L529.397 626.056C515.552 646.54 483.423 661.93 460.233 669.641C503.768 677.774 537.334 686.448 580.291 667.59C585.176 665.445 600.563 661.532 603.019 658.181C603.835 659.079 603.513 658.567 603.97 659.725L604.942 659.127C615.586 654.636 626.636 651.097 637.41 646.199C668.166 632.217 694.471 614.192 711.79 584.506C705.172 549.184 695.995 525.53 679.01 494.22L679.519 493.043C682.157 495.298 686.067 502.577 687.7 505.763C700.332 530.402 708.025 555.639 713.337 582.657C718.282 575.966 725.051 568.08 730.314 561.272C748.583 537.638 758.029 517.308 766.548 488.851C757.768 464.786 737.364 441.358 717.71 425.434C717.547 425.236 717.383 425.038 717.219 424.841L717.927 423.586C740.84 441.671 755.55 459.509 767.09 486.368C779.522 447.585 783.147 401.164 769.288 362.178C756.782 353.062 729.437 344.505 714.515 339.488L713.237 337.151C716.031 337.554 722.086 339.86 725.06 340.852C740.688 346.066 754.368 351.093 768.752 359.24C766.488 352.083 762.574 344.116 760.271 336.777C751.458 308.681 744.228 286.295 725.701 262.671C704.299 258.096 680.932 260.83 659.755 264.86C658.501 264.653 658.136 264.206 657.102 263.434C679.929 258.253 700.154 256.828 723.512 260.015C691.252 221.05 660.581 197.705 614.012 177.337ZM295.646 471.178C281.466 459.149 271.05 448.018 258.897 433.875C263.905 469.995 273.873 518.75 295.237 549.063C300.814 556.976 314.667 569.683 321.745 577.31L338.906 596.155C342.765 600.392 346.701 605.303 351.558 608.33C368.128 609.018 385.309 607.008 401.615 604.063C418.37 601.037 433.236 593.779 447.734 585.198L450.485 583.632C454.054 580.681 468.777 571.432 473.718 568.14C499.651 550.863 519.075 530.615 527.888 499.88C532.789 482.788 534.291 466.481 531.531 448.781C530.984 445.271 530.508 441.312 528.799 438.178L528.229 438.917C528.917 443.405 526.705 447.919 524.714 451.983C515.723 470.331 497.927 491.66 481.156 503.372C462.187 516.621 435.383 526.478 412.382 527.419C402.208 527.6 393.185 526.411 383.218 524.67C361.706 519.771 350.762 512.302 333.089 499.585C320.169 490.288 308.052 481.191 295.646 471.178ZM398.689 659.973C399.929 657.217 402.636 652.459 401.596 649.71C400.56 649.259 399.775 649.09 398.719 649.789C392.691 654.518 382.663 659.74 376.81 663.886C371.577 667.593 349.83 675.852 346.977 679.111C332.445 695.709 311.853 726.215 299.826 743.713C311.418 735.129 325.39 725.562 337.529 717.713C350.772 709.149 364.28 702.156 377.382 692.965C392.957 681.018 393.998 679.479 398.689 659.973ZM497.963 762.057C497.175 732.266 472.103 693.872 450.335 674.167C445.566 669.85 441.617 666.229 435.672 663.618C463.468 688.097 488.893 725.489 486.505 763.991C483.179 808.118 431.294 814.968 413.138 775.788C400.64 748.819 397.386 715.76 397.496 686.328C397.523 679.167 399.265 671.84 399.393 664.653L399.398 664.071C395.847 675.46 390.727 685.748 389.961 697.575C387.606 733.097 390.973 770.633 414.73 799.087C431.555 819.238 459.745 822.964 479.354 804.462C492.605 791.959 496.92 779.782 497.963 762.057ZM484.222 765.874C488.065 745.955 475.618 715.4 464.267 698.946C455.675 686.491 443.5 671.139 430.454 662.804C429.224 662.019 424.834 660.703 423.168 660.189C445.517 688.096 477.707 733.821 474.221 771.028C473.663 774.974 472.899 781.736 469.646 784.354C476.182 767.464 471.573 745.934 464.527 729.953C456.851 712.543 431.65 670.039 418.223 658.389C416.072 656.522 413.242 655.443 410.653 654.322C414.494 665.711 418.742 676.717 423.63 687.705C432.772 708.255 464.484 767.768 454.766 787.234C454.631 787.504 454.486 787.77 454.345 788.037C453.087 788.494 451.819 789.004 450.53 789.339C439.234 784.974 434.187 775.453 430.235 764.496C416.992 727.785 406.792 693.208 403.575 654.188C402.072 658.892 401.737 662.394 401.072 667.344C396.308 702.803 400.645 742.206 414.892 775.091C419.082 784.762 430.089 794.727 439.803 798.37C463.889 804.12 480.925 789.49 484.222 765.874ZM302.348 793.08C283.303 803.082 274.874 805.147 253.697 809.711C246.961 818.739 241.341 829.045 234.959 838.374C226.244 851.113 218.457 865.196 209.442 877.665C228.645 875.173 239.942 871.451 256.954 861.802C274.286 851.535 287.939 841.518 299.324 824.77C303.906 818.028 309.728 811.789 314.171 804.735C322.418 791.644 330.248 778.405 339.589 766.061C324.347 778.857 318.136 782.375 302.348 793.08ZM244.435 870.617C230.597 876.001 223.523 878.135 208.613 879.618C202.885 889.483 205.039 896.659 214.439 903.199C218.411 905.536 222.102 906.266 226.533 907.255C244.264 901.651 273.993 860.503 284.976 844.05C275.583 852.053 265.412 859.217 254.77 865.505C251.717 867.309 247.769 868.813 244.435 870.617ZM252.724 577.685C202.736 583.276 185.828 623.062 227.839 655.521C263.833 683.33 308.667 683.081 350.326 670.883C349.529 670.248 343.167 670.903 341.828 671.126C306.44 677.022 250.448 668.483 226.114 639.167C220.314 631.613 216.543 623.777 218.001 613.965C221.957 587.353 257.668 583.532 278.625 587.253C309.865 592.8 339.056 609.6 364.003 628.625C367.101 631.015 374.176 636.116 377.462 639.121C377.706 639.038 377.95 638.955 378.194 638.872C381.403 633.361 373.032 630.171 369.556 626.899C343.469 602.337 310.647 582.762 274.629 578.144C268.958 577.417 258.22 576.771 252.724 577.685ZM256.846 588.199C216.88 591.932 205.666 623.01 238.045 647.805C258.275 663.296 287.51 669.879 312.56 670.961C324.946 671.213 341.646 669.32 353.892 667.638L357.782 664.031L323.358 658.426C301.356 655.021 268.47 651.231 250.705 637.336C245.691 633.156 240.075 627.72 239.571 621.021C237.172 589.116 298.957 607.852 315.477 612.598C332.214 617.406 349.284 625.796 363.66 635.266C366.132 636.901 373.782 643.31 376.26 641.606C374.783 637.251 342.773 615.817 337.239 612.509C315.548 599.544 282.305 584.722 256.846 588.199ZM258.203 605.216C247.86 606.074 239.952 609.35 241.683 621.498C242.671 628.435 248.777 633.687 254.3 637.403C275.546 650.678 303.896 653.038 328.253 657.074C337.434 658.595 350.939 660.922 359.647 661.654L369.192 651.559C344.392 642.002 315.027 629.721 288.118 627.226C282.244 626.389 274.427 626.775 269.784 625.838L269.444 625.326C272.47 623.123 288.99 625.052 292.842 625.686C321.014 630.318 344.934 639.205 370.997 649.91L374.51 644.953C364.462 638.841 355.031 632.253 344.591 626.726C322.667 615.119 282.875 603.522 258.203 605.216ZM382.023 636.353C380.336 638.772 378.974 641.353 377.371 643.679C369.772 654.706 358.314 666.679 348.774 676.043C352.577 674.058 356.342 672.111 360.18 670.196C374.985 662.811 384.685 657.395 398.157 647.502C394.677 644.279 386.242 639.023 382.023 636.353ZM405.819 651.696C407.565 679.242 412.669 704.322 421.303 730.518C427.146 748.244 431.187 770.168 444.498 784C446.926 786.514 450.193 787.981 453.193 785.596C456.229 773.084 451.716 758.904 447.465 747.122C435.977 715.281 417.899 686.195 408.342 653.561C408.113 652.777 406.52 652.014 405.819 651.696ZM389.226 685.955C371.894 699.9 354.852 710.101 335.751 721.318C325.545 727.312 316.39 735.647 305.883 741.268C299.218 744.949 297.486 747.377 293.169 753.558C280.64 771.497 267.047 789.038 255.324 807.514L255.696 808.134C265.542 804.818 275.611 802.951 285.349 799.152C304.492 791.684 320.831 779.496 336.433 766.433C345.225 759.072 347.322 754.283 353.593 745.048C363.55 730.388 372.392 715.278 381.652 700.191C384.047 696.338 389.256 690.795 389.71 686.582L389.226 685.955Z" fill="#0C0B0A"/>
<path d="M498.708 156.01C473.49 183.316 453.329 215.508 447.117 252.369C445.981 259.112 443.955 267.113 444.15 273.929C439.799 275.848 434.204 277.054 429.604 278.598C413.133 284.128 396.861 289.925 380.772 296.49C376.226 298.345 370.045 301.04 365.404 302.348C363.754 294.511 363.746 282.733 363.447 274.668C361.94 234.047 373.239 218.518 390.592 185.223C425.717 166.468 459.607 159.513 498.708 156.01Z" fill="#FFCFD2"/>
<path d="M611.479 176.428C605.019 179.803 593.539 188.266 588.085 192.523C577.966 200.42 540.141 239.427 536.69 249.689C506.27 254.976 475.887 265.985 445.82 272.636C450.588 227.302 469.533 188.765 501.465 156.269C541.089 155.181 574.758 161.7 611.479 176.428Z" fill="#90DBF4"/>
<path d="M870.706 217.109C840.942 241.617 799.148 254.548 764.751 229.022C762.149 227.091 754.808 219.743 754.527 216.72C755.158 216.359 755.734 216.089 756.419 216.768C769.745 229.956 779.884 237.355 799.23 238.95C826.27 241.18 847.719 231.371 868.358 214.726C879.52 204.755 890.545 192.636 896.982 178.881C898.106 176.478 899.317 173.592 901.495 171.989L902.175 172.378C903.013 177.009 897.2 187.762 894.398 191.747C889.892 198.153 883.891 204.318 878.27 209.764C876.604 211.377 871.916 215.596 870.706 217.109Z" fill="#FEFEFD"/>
<path d="M539.871 248.258C552.133 230.247 567.795 214.437 583.406 199.304C592.065 190.911 603.511 183.359 614.014 177.337C660.583 197.705 691.254 221.05 723.514 260.015C700.156 256.828 679.931 258.253 657.104 263.434C655.283 261.031 643.383 256.334 640.005 255.037C618.979 246.963 595.527 242.934 573.009 244.25C561.963 244.896 550.838 246.883 539.871 248.258ZM634.397 203.825L635.337 204.375C636.901 203.904 636.787 203.404 637.996 201.721C637.98 203.469 637.976 205.119 638.022 206.866C635.989 206.012 635.633 205.935 633.437 206L633.055 206.549C633.443 208.682 634.559 211.481 633.844 212.719C632.68 212.643 632.748 212.69 631.768 212.071C631.332 208.096 629.982 206.066 628.093 202.595L626.979 203.54C626.784 207.311 630.811 208 630.007 211.8L629.733 212.85C630.755 214.007 632.283 216.07 633.607 216.467L635.011 215.532L635.36 216.03L634.982 217.518C636.279 218.373 637.804 219.504 639.247 219.986L639.898 219.24C639.339 215.927 638.331 218.656 638.918 216.14C642.486 213.964 640.48 215.526 642.326 212.295C644.466 212.184 644.261 211.837 645.658 212.793C645.846 214.139 646.01 214.541 645.704 215.865L645.15 215.857L643.482 213.773L642.767 213.709C641.922 215.854 641.759 217.505 642.386 219.73L643.064 220.357C646.015 220.042 646.707 217.082 648.87 215.67C651.167 215.979 650.798 215.921 652.184 214.94C652.868 213.51 653.057 213.481 652.941 211.951L652.375 212.025C651.191 213.355 650.681 213.863 649.204 214.843C647.89 213.176 647.895 213.72 647.929 212.046C649.512 209.993 651.02 211.194 652.596 209.365L652.099 208.388L651.179 208.2C650.283 208.827 649.493 209.339 648.565 209.918L647.873 209.551C647.8 208.513 647.868 207.52 647.971 206.486L647.234 205.981C644.518 206.673 646.971 206.693 645.492 207.76C642.077 204.878 644.998 203.576 644.763 200.718C643.178 200.667 643.959 200.6 642.291 201.72C641.886 203.025 642.183 203.825 642.362 205.283L641.574 205.617C640.269 204.403 640.542 203.6 640.107 201.393L641.168 199.6C639.723 195.285 633.132 195.226 629.94 197.306C629.244 200.299 632.976 200.933 634.397 203.825Z" fill="#98F5E1"/>
<path d="M387.629 186.987C380.871 200.025 372.877 212.146 368.052 226.15C360.728 247.409 360.781 269.864 362.254 292.014C362.495 295.652 362.591 299.9 363.593 303.37C361.014 306.816 317.916 322.642 310.669 324.959C308.034 325.801 299.566 327.672 297.788 329.191C297.021 324.702 284.413 305.195 281.309 300.228C301.494 252.607 341.689 210.499 387.629 186.987Z" fill="#FFCFD2"/>
<path d="M638.771 200.404L638.983 199.003C637.101 196.864 633.414 197.134 630.466 196.566C631.812 198.382 633.077 200.596 635.032 201.45C636.514 201.512 636.932 201.262 638.347 200.813L637.993 201.721C636.784 203.404 636.898 203.904 635.334 204.375L634.394 203.825C632.973 200.933 629.241 200.299 629.937 197.306C633.129 195.226 639.72 195.285 641.165 199.6L640.104 201.393C639.731 200.692 639.722 200.919 638.771 200.404Z" fill="#E9FDF4"/>
<path d="M630.469 196.566C633.417 197.134 637.104 196.864 638.986 199.003L638.774 200.404L638.35 200.813C636.935 201.262 636.517 201.512 635.035 201.45C633.08 200.596 631.815 198.382 630.469 196.566Z" fill="#98F5E1"/>
<path d="M638.771 200.404C639.722 200.919 639.731 200.692 640.104 201.393C640.539 203.6 640.266 204.403 641.571 205.617L642.359 205.283C642.18 203.825 641.883 203.025 642.288 201.72C643.956 200.6 643.175 200.667 644.76 200.718C644.995 203.576 642.075 204.878 645.49 207.76C646.969 206.693 644.515 206.673 647.231 205.981L647.968 206.486C647.865 207.52 647.797 208.513 647.87 209.551L648.562 209.918C649.49 209.339 650.28 208.827 651.176 208.2L652.096 208.388L652.593 209.365C651.017 211.194 649.509 209.993 647.926 212.046C647.892 213.72 647.887 213.176 649.201 214.843L648.867 215.67C646.704 217.082 646.012 220.042 643.061 220.357L642.383 219.73C641.756 217.505 641.919 215.854 642.764 213.709L643.479 213.773L645.147 215.857L645.701 215.865C646.007 214.541 645.843 214.139 645.655 212.793C644.258 211.837 644.463 212.184 642.323 212.295C640.477 215.526 642.483 213.964 638.915 216.14C638.328 218.656 639.336 215.927 639.895 219.24L639.244 219.986C637.801 219.504 636.276 218.373 634.979 217.518L635.357 216.03L635.008 215.532L633.604 216.467C632.28 216.07 630.752 214.007 629.73 212.85L630.004 211.8L631.766 212.071C632.746 212.69 632.677 212.643 633.841 212.719C634.556 211.481 633.44 208.682 633.052 206.549L633.434 206C635.63 205.935 635.986 206.012 638.019 206.866C637.973 205.119 637.977 203.469 637.993 201.721L638.347 200.813L638.771 200.404Z" fill="#FEFEFD"/>
<path d="M686.809 219.566C688.08 218.911 736.023 210.863 740.841 210.088C779.306 202.976 832.851 195.26 868.36 214.726C847.721 231.371 826.272 241.18 799.232 238.95C779.886 237.355 769.747 229.956 756.421 216.768C755.736 216.089 755.16 216.359 754.529 216.72C754.81 219.743 762.151 227.091 764.753 229.022C799.15 254.548 840.944 241.617 870.708 217.109C931.377 252.244 950.532 346.911 947.737 412.219C947.199 424.782 943.92 438.636 941.035 450.852C933.773 484.283 921.039 517.201 903.689 546.696C895.019 561.433 882.765 582.042 871.924 595.199C870.432 589.385 868.655 578.662 864.015 575.341C856.744 540.908 827.773 508.574 795.3 496.259C786.423 492.892 777.365 490.45 768.235 487.895C776.228 460.028 782.049 437.115 779.556 407.797C777.301 381.267 772.287 361.416 762.384 336.763C757.267 324.026 754.201 309.748 748.37 296.712C734.499 265.704 712.375 241.344 686.809 219.566ZM850.153 300.832C848.265 301.669 848.059 301.862 846.602 303.342L845.485 303.598C844.536 300.87 848.236 296.869 847.511 294.95C845.551 295.25 843.969 298.578 842.913 300.31L842.251 300.055C841.504 297.779 841.643 294.741 840.993 293.66L840.245 293.855C840.065 295.156 839.894 296.217 839.643 297.521L838.727 298.06C837.161 297.384 837.345 295.599 837.234 294.003L836.69 293.707C835.945 295.209 835.966 295.915 834.791 296.447C833.859 295.426 833.753 295.306 833.045 294.126C831.747 293.607 831.842 293.573 830.499 293.913L830.025 294.734C831.487 298.125 837.721 296.187 836.147 301.47C833.173 301.734 829.377 298.66 827.146 296.935C828.755 300.892 832.237 305.409 832.004 308.418L830.997 310.163L831.274 310.794L832.245 310.676C832.581 309.896 832.927 309.183 833.42 308.489C836.035 309.149 838.518 314.121 841.515 315.339C843.929 313.656 840.808 312.779 843.194 312.959C843.793 314.349 843.958 314.679 844.326 316.192C845.323 316.463 844.876 316.511 845.675 316.211C847.687 316.263 849.656 316.353 851.666 316.243L853.028 316.705C854.799 316.274 854.676 316.316 856.07 315.131C859.9 308.695 857.787 309.347 854.303 306.771C853.95 306.51 853.746 303.135 853.235 301.889C851.899 300.79 851.919 300.936 850.153 300.832ZM861.018 464.205C861.205 465.918 863.736 472.539 864.943 473.333L865.413 472.987C866.747 472.021 867.161 471.52 868.797 471.489C871.087 472.385 874.463 477.921 876.394 479.914C876.681 479.797 876.967 479.679 877.254 479.562L877.986 478.563C880.422 479.449 879.712 481.062 881.275 481.172L881.537 480.273C881.878 479.129 881.706 479.575 882.116 478.685C884.727 479.178 882.032 480.294 884.715 479.38C885.548 477.993 886.102 475.189 885.768 473.828L885.202 475.232L884.407 474.922L884.126 476.529L883.575 476.707C881.842 475.043 881.695 475.09 882.147 472.566L880.881 471.697C880.986 472.81 881.072 473.775 881.243 474.882C879.074 474.482 879.957 474.231 878.404 475.229C877.85 476.686 877.602 477.515 876.73 478.838C872.518 477.501 874.252 468.464 864.897 471.925C865.385 472.514 862.077 465.743 862.245 466.32C864.225 467.364 865.919 468.311 867.836 469.465L868.549 468.335C868.117 466.84 868.389 466.8 867.526 465.947C867.152 466.855 866.816 467.739 866.368 468.611C865.262 466.066 863.853 464.645 861.018 464.205Z" fill="#B9FBC0"/>
<path d="M630.007 211.8C630.811 208 626.785 207.311 626.98 203.54L628.093 202.595C629.982 206.066 631.333 208.096 631.769 212.071L630.007 211.8Z" fill="#E9FDF4"/>
<path d="M649.201 214.843C650.678 213.863 651.188 213.355 652.372 212.025L652.938 211.951C653.054 213.481 652.865 213.51 652.181 214.94C650.795 215.921 651.164 215.979 648.867 215.67L649.201 214.843Z" fill="#E9FDF4"/>
<path d="M245.992 247.038L244.872 246.857C243.194 244.583 243.053 243.179 242.902 240.355C245.136 241.965 245.61 244.486 245.992 247.038Z" fill="#FEFEFD"/>
<path d="M539.869 248.258C550.836 246.883 561.961 244.896 573.007 244.25C595.525 242.934 618.977 246.963 640.003 255.037C643.381 256.334 655.281 261.031 657.102 263.434C658.136 264.206 658.501 264.653 659.755 264.86C665.604 269.582 672.734 274.659 678.198 279.458C692.636 292.141 708.211 318.542 713.237 337.151L714.515 339.488C722.476 359.287 722.187 384.835 720.255 405.805C719.768 411.099 718.207 419.177 717.927 423.586L717.219 424.841L716.976 425.349C715.74 427.98 714.763 430.617 713.726 433.324C706.769 451.483 699.278 469.575 686.961 484.863C685.638 486.505 681.29 492.083 679.519 493.043L679.01 494.22C662.164 506.959 648.357 518.327 629.2 527.789C627.318 528.718 620.946 532.274 619.248 532.695L617.331 534.177C601.881 539.086 579.586 549.136 563.264 548.315L563.375 545.973C580.561 542.608 601.249 537.662 616.935 529.699L618.589 528.818C623.187 525.974 630.603 523.133 635.717 520.489C644.637 515.876 652.209 510.959 660.429 505.312C664.317 502.64 675.019 491.778 678.099 491.201C678.801 489.933 681.073 487.426 682.139 486.224C698.405 467.885 707.228 445.272 713.806 421.741L713.822 420.308C715.514 416.972 716.161 411.363 716.722 407.644C719.764 387.42 719.144 366.717 714.455 346.792C713.768 343.873 713.968 338.984 711.283 337.815L710.478 336.326C701.512 315.371 693.421 296.635 675.479 281.187C669.591 276.117 659.682 270.396 654.917 265.496L652.471 264.848C626.975 251.015 596.152 245.149 567.474 248.089C557.594 249.101 546.705 250.86 536.835 252.366C535.74 252.916 534.84 253.277 533.935 254.108C530.57 254.439 526.822 255.252 523.504 256.006C499.831 261.386 476.347 267.777 452.927 274.167C450.217 274.907 447.581 275.71 444.815 276.228L443.53 277.171C435.572 279.275 365.339 304.934 365.117 304.906L363.954 306.93C346.31 313.551 330.099 321.77 312.272 327.515C308.8 328.634 303.124 330.765 299.712 331.463L298.364 330.271L297.808 330.757C291.969 333.181 274.006 336.173 267.516 335.986L267.783 334.027C278.065 333.554 286.374 330.883 296.39 329.165L297.787 329.191C299.565 327.672 308.033 325.801 310.668 324.959C317.915 322.642 361.013 306.816 363.592 303.37L365.401 302.348C370.042 301.04 376.223 298.345 380.769 296.49C396.858 289.925 413.13 284.128 429.601 278.598C434.201 277.054 439.796 275.848 444.147 273.929L445.821 272.636C475.888 265.985 506.271 254.976 536.691 249.689C538.174 249.214 538.523 248.981 539.869 248.258Z" fill="#FEFEFD"/>
<path d="M244.209 250.942C244.405 253.174 244.705 260.904 245.582 262.345L246.341 261.91C246.685 260.398 245.96 256.35 245.747 254.486L246.446 254.035C247.193 254.702 247.813 255.292 248.524 255.997C249.044 253.881 249.017 253.196 250.44 251.678L251.045 251.889C251.583 253.307 251.62 253.903 252.591 254.983C253.431 255.014 252.986 255.096 253.889 254.578L255.541 251.236C257.091 252.74 258.296 253.585 258.917 255.623C258.638 258.111 257.633 258.091 255.389 258.996C255.353 261.866 258.749 263.046 257.527 266.355C254.835 265.134 252.977 260.124 252.519 257.335C251.439 261.306 252.188 265.801 252.628 269.885C251.218 268.045 250.341 265.739 248.945 264.665L246.76 267.853L245.873 267.928C244.108 265.811 243.632 260.548 241.939 257.083L241.369 257.123L240.637 263.026L239.968 263.206C238.705 260.87 236.517 257.174 238.682 255.138C240.187 254.875 240.71 254.846 242.142 254.278C242.178 252.489 240.912 247.446 240.47 245.477L244.209 250.942Z" fill="#FEFEFD"/>
<path d="M536.834 252.366C546.704 250.86 557.593 249.101 567.473 248.089C596.151 245.149 626.974 251.015 652.47 264.848C651.816 264.994 651.072 265.159 650.425 265.339C604.276 278.231 561.445 309.086 536.68 350.296C521.879 374.925 518.461 400.78 525.632 428.299C517.441 418.517 508.328 410.475 501.575 399.462C491.474 382.988 489.321 367.532 490.61 348.465C492.54 319.937 507.436 296.323 522.856 273.234C527.453 266.35 532.797 259.536 536.834 252.366Z" fill="#98F5E1"/>
<path d="M444.815 276.228C447.581 275.71 450.217 274.907 452.927 274.167C476.347 267.777 499.831 261.386 523.504 256.006C526.822 255.252 530.57 254.439 533.935 254.108C508.522 288.047 482.265 327.237 489.146 371.32C494.122 403.194 509.71 410.781 526.286 432.538C498.076 422.068 466.893 405.027 454.072 376.531C443.401 352.814 442.803 324.695 443.831 299.046C443.992 295.045 445.398 279.029 444.815 276.228Z" fill="#90DBF4"/>
<path d="M659.758 264.86C680.935 260.83 704.302 258.096 725.704 262.671C744.231 286.295 751.461 308.681 760.274 336.777C762.577 344.116 766.491 352.083 768.755 359.24C754.371 351.093 740.691 346.066 725.063 340.852C722.089 339.86 716.034 337.554 713.24 337.151C708.214 318.542 692.639 292.141 678.201 279.458C672.737 274.659 665.607 269.582 659.758 264.86Z" fill="#90DBF4"/>
<path d="M654.919 265.496C659.684 270.396 669.593 276.117 675.481 281.187C693.423 296.635 701.514 315.371 710.48 336.326C675.404 325.108 628.402 332.02 595.839 348.835C560.08 367.301 539.974 389.229 527.492 427.528C508.602 354.992 575.387 295.262 636.77 271.785C642.533 269.581 648.776 268.104 654.445 265.702L654.919 265.496Z" fill="#90DBF4"/>
<path d="M365.117 304.906C365.339 304.934 435.572 279.275 443.53 277.171C440.391 313.326 438.188 365.483 463.005 394.382C479.951 414.116 500.699 424.807 524.346 433.884C490.992 440.106 454.233 431.884 425.975 412.779C394.775 391.685 375.487 356.488 368.087 320.043C367.488 317.092 366.225 306.807 365.117 304.906Z" fill="#FFCFD2"/>
<path d="M827.145 296.935C829.376 298.66 833.172 301.734 836.146 301.47C837.72 296.187 831.486 298.125 830.024 294.734L830.498 293.913C831.841 293.573 831.746 293.607 833.044 294.126C833.752 295.306 833.858 295.426 834.79 296.447C835.965 295.915 835.944 295.209 836.689 293.707L837.233 294.003C837.344 295.599 837.16 297.384 838.726 298.06L839.642 297.521C839.893 296.217 840.064 295.156 840.244 293.855L840.992 293.66C841.642 294.741 841.503 297.779 842.25 300.055L842.912 300.31C843.968 298.578 845.55 295.25 847.51 294.95C848.235 296.869 844.535 300.87 845.484 303.598L846.601 303.342C848.058 301.862 848.264 301.669 850.152 300.832C851.918 300.936 851.898 300.79 853.234 301.889C853.745 303.135 853.949 306.51 854.302 306.771C857.786 309.347 859.899 308.695 856.069 315.131C856.153 312.397 856.519 311.101 855.024 309.011C853.356 308.325 852.821 308.497 851.045 308.633C852.303 312.1 852.378 313.612 856.069 315.131C854.675 316.316 854.798 316.274 853.027 316.705L851.665 316.243C850.443 314.47 848.815 311.452 846.65 311.277C845.542 312.892 845.827 314.023 845.674 316.211C844.875 316.511 845.322 316.463 844.325 316.192C843.957 314.679 843.792 314.349 843.193 312.959C840.807 312.779 843.928 313.656 841.514 315.339C838.517 314.121 836.034 309.149 833.419 308.489C832.926 309.183 832.58 309.896 832.244 310.676L831.273 310.794L830.996 310.163L832.003 308.418C832.236 305.409 828.754 300.892 827.145 296.935Z" fill="#FBF8CC"/>
<path d="M296.392 329.165C286.376 330.883 278.067 333.554 267.785 334.027C268.642 332.685 272.489 320.6 273.453 318.024C275.59 312.311 277.672 307.602 280.256 302.025C285.786 311.057 291.058 320.023 296.392 329.165Z" fill="#90DBF4"/>
<path d="M299.715 331.463C303.127 330.765 308.803 328.634 312.275 327.515C330.102 321.77 346.313 313.551 363.957 306.93C364.976 311.837 365.826 316.841 366.789 321.733C374.273 359.739 394.358 394.71 427.348 416.091C447.759 429.319 475.03 437.294 499.468 438.004C508.375 438.205 517.275 437.122 526.068 435.863C501.842 470.322 424.659 471.124 389.705 454.458C343.247 432.308 324.348 385.934 304.898 341.805C303.397 338.44 301.52 334.674 299.715 331.463Z" fill="#FFCFD2"/>
<path d="M851.047 308.633C852.823 308.497 853.358 308.325 855.026 309.011C856.521 311.101 856.155 312.397 856.071 315.131C852.38 313.612 852.305 312.1 851.047 308.633Z" fill="#B9FBC0"/>
<path d="M845.676 316.211C845.829 314.023 845.544 312.892 846.652 311.277C848.817 311.452 850.445 314.47 851.667 316.243C849.657 316.353 847.688 316.263 845.676 316.211Z" fill="#F4FCE0"/>
<path d="M267.516 335.986C274.006 336.173 291.969 333.181 297.808 330.757C298.392 333.185 307.578 351.753 309.394 355.914C325.335 392.427 342.693 428.889 378.15 450.615C409.294 469.698 450.07 469.941 485.059 462.229C501.534 458.598 514.061 450.886 526.663 439.832C520.998 463.573 495.253 492.474 474.483 505.389C440.009 526.476 396.986 532.986 359.958 514.447C348.769 508.845 338.685 500.771 328.466 493.74C301.637 475.28 279.247 455.645 258.608 430.213C255.053 394.802 259.07 370.358 267.516 335.986Z" fill="#90DBF4"/>
<path d="M161.369 495.947C142.714 491.038 124.679 479.261 113.434 463.644C67.7313 400.17 117.919 321.113 194.703 333.654L194.862 333.848C214.459 336.275 236.227 349.213 247.99 364.979C251.661 369.898 253.908 374.273 256.969 378.502C253.899 408.832 255.466 427.723 260.664 457.859C256.314 461.769 252.979 468.238 248.687 472.386C230.779 489.691 207.767 499.995 182.602 498.81C175.334 498.541 168.354 498.146 161.369 495.947Z" fill="#90DBF4"/>
<path d="M529.156 429.463C545.355 360.611 629.237 323.952 694.193 334.619C698.943 335.399 706.93 337.908 711.283 337.815C713.968 338.984 713.768 343.873 714.455 346.792C719.144 366.717 719.764 387.42 716.722 407.644C716.161 411.363 715.514 416.972 713.822 420.308C713.555 419.924 713.233 419.423 712.871 419.14C668.145 384.186 596.844 380.234 549.424 411.912C541.961 416.898 535.459 423.244 529.156 429.463Z" fill="#FFCFD2"/>
<path d="M714.516 339.488C729.438 344.505 756.783 353.062 769.289 362.178C783.148 401.164 779.523 447.585 767.091 486.368C755.551 459.509 740.841 441.671 717.928 423.586C718.208 419.177 719.769 411.099 720.256 405.805C722.188 384.835 722.477 359.287 714.516 339.488Z" fill="#FFCFD2"/>
<path d="M678.102 491.201C677.198 486.513 665.144 472.982 661.307 468.792C633.818 438.774 602.456 422.63 560.848 428.027C551.262 429.27 542.009 432.563 532.642 433.732C531.611 433.86 531.346 433.368 530.93 432.861C530.995 432.082 531.274 431.168 531.786 430.573C569.699 386.48 640.786 382.974 690.605 407.324C699.469 411.657 706.176 416.806 713.809 421.741C707.231 445.272 698.408 467.885 682.142 486.224C681.076 487.426 678.804 489.933 678.102 491.201Z" fill="#90DBF4"/>
<path d="M679.52 493.043C681.291 492.083 685.638 486.505 686.961 484.863C699.278 469.575 706.77 451.483 713.727 433.324C714.764 430.617 715.741 427.98 716.977 425.349L717.219 424.841C717.383 425.038 717.548 425.236 717.711 425.434C737.365 441.358 757.769 464.786 766.549 488.851C758.03 517.308 748.584 537.638 730.315 561.272C725.052 568.08 718.283 575.966 713.338 582.657C708.026 555.639 700.333 530.402 687.701 505.763C686.068 502.577 682.158 495.298 679.52 493.043Z" fill="#90DBF4"/>
<path d="M538.348 435.266C590.177 420.266 628.517 433.793 663.365 474.051C666.029 477.129 675.406 490.098 678.099 491.201C675.019 491.778 664.317 502.64 660.429 505.312C652.209 510.959 644.637 515.876 635.717 520.489C630.603 523.133 623.187 525.974 618.589 528.818C606.081 491.728 584.278 461.923 550.22 442.061C546.28 439.763 542.318 437.512 538.348 435.266Z" fill="#98F5E1"/>
<path d="M295.647 471.178C294.072 473.838 293.655 476.351 293.105 479.393C291.36 488.401 293.492 488.724 295.106 497.074C296.804 505.857 295.365 515.891 300.827 523.845C305.192 530.542 309.519 531.456 315.299 535.245C321.332 545.618 326.582 555.162 335.662 540.877C339.198 540.215 345.071 539.311 348.255 538.082C372.583 541.937 428.321 570.401 447.735 585.198C433.237 593.779 418.371 601.037 401.616 604.063C385.31 607.008 368.129 609.018 351.559 608.33C346.702 605.303 342.766 600.392 338.907 596.155L321.746 577.31C314.668 569.683 300.815 556.976 295.238 549.063C273.874 518.75 263.906 469.995 258.898 433.875C271.051 448.018 281.467 459.149 295.647 471.178Z" fill="#98F5E1"/>
<path d="M616.935 529.699C601.249 537.662 580.561 542.608 563.375 545.973C569.641 499.01 552.616 473.181 531.836 435.45C533.15 435.903 534.967 436.518 536.217 437.092C567.015 451.236 591.427 475.592 606.89 505.642C611.315 514.239 613.52 521.021 616.935 529.699Z" fill="#90DBF4"/>
<path d="M383.218 524.67C393.185 526.411 402.208 527.6 412.382 527.419C435.383 526.478 462.187 516.621 481.156 503.372C497.927 491.66 515.723 470.331 524.714 451.983C526.705 447.919 528.917 443.405 528.229 438.917L528.799 438.178C530.508 441.312 530.984 445.271 531.531 448.781C534.291 466.481 532.789 482.788 527.888 499.88C519.075 530.615 499.651 550.863 473.718 568.14C468.777 571.432 454.054 580.681 450.485 583.632C449.028 581.492 439.839 576.034 437.048 574.263C412.597 558.747 385.395 545.173 357.379 537.298C362.163 534.161 377.525 531.136 382.815 527.136C383.571 526.565 383.244 526.084 383.218 524.67Z" fill="#98F5E1"/>
<path d="M451.676 584.856C488.008 563.041 521.548 538.863 531.377 495.195C535.389 477.369 537.019 457.067 531.403 439.527C557.056 480.922 569.66 513.067 558.225 563.224C553.349 584.611 544.149 605.776 529.725 622.61C507.431 620.194 470.719 596.521 451.676 584.856Z" fill="#90DBF4"/>
<path d="M161.367 495.947C168.352 498.146 175.332 498.541 182.6 498.81C207.765 499.995 230.777 489.691 248.685 472.386C252.977 468.238 256.312 461.769 260.662 457.859C266.421 486.918 275.867 525.457 293.421 549.915C298.961 557.632 308.548 566.456 315.298 573.61C324.481 583.342 333.503 593.204 342.61 603.01C313.763 583.811 277.375 570.437 243.644 577.476C189.205 588.835 191.589 636.978 234.57 662.459C271.831 684.549 308.383 684.249 347.746 674.264C334.794 690.218 317.179 714.537 306.168 731.608C286.546 721.165 263.675 720.306 241.951 726.063C218.057 732.394 191.401 756.461 166.139 744.398C150.729 737.04 147.936 708.733 166.335 703.495C173.14 701.445 184.261 704.657 178.62 713.825C176.831 716.732 173.288 717.444 173.614 721.278C177.864 723.744 185.783 712.939 183.339 706.375C177.72 691.282 153.707 701.722 151.005 712.895C142.283 748.962 179.409 759.911 205.989 746.041C235.364 730.712 264.305 718.12 296.622 731.042C298.196 731.619 303.125 733.655 304.605 733.94C300.655 740.133 295.916 746.782 291.662 752.807C289.101 756.432 283.773 764.325 280.869 767.506C279.388 765.68 272.921 764.919 270.491 764.356C218.805 752.391 171.495 791.705 119.389 777.206C69.9798 763.458 38.9344 714.054 41.7422 663.677C43.7697 627.301 61.8881 598.768 89.6651 576.087C112.332 557.974 134.456 542.318 149.761 516.944C153.167 511.319 160.072 502.469 161.367 495.947Z" fill="#FFCFD2"/>
<path d="M880.883 471.697L882.148 472.566C881.696 475.09 881.844 475.043 883.577 476.707L884.128 476.529L884.409 474.922L885.204 475.232L885.77 473.828C886.104 475.189 885.55 477.993 884.717 479.38C882.034 480.294 884.729 479.178 882.118 478.685C881.708 479.575 881.88 479.129 881.539 480.273L881.277 481.172C879.714 481.062 880.424 479.449 877.988 478.563L877.256 479.562C876.969 479.679 876.683 479.797 876.396 479.914C874.465 477.921 871.089 472.385 868.799 471.489C867.163 471.52 866.749 472.021 865.415 472.987L864.945 473.333C863.738 472.539 861.207 465.918 861.02 464.205C863.855 464.645 865.264 466.066 866.37 468.611C866.818 467.739 867.154 466.855 867.528 465.947C868.391 466.8 868.119 466.84 868.551 468.335L867.838 469.465C865.921 468.311 864.227 467.364 862.247 466.32C862.079 465.743 865.386 472.514 864.898 471.925C874.253 468.464 872.52 477.501 876.732 478.838C877.604 477.515 877.852 476.686 878.406 475.229C879.959 474.231 879.076 474.482 881.245 474.882C881.074 473.775 880.988 472.81 880.883 471.697Z" fill="#F4FCE0"/>
<path d="M293.105 479.393C293.655 476.351 294.072 473.838 295.647 471.178C308.053 481.191 320.17 490.288 333.09 499.585C350.763 512.302 361.707 519.771 383.219 524.67C383.245 526.084 383.572 526.565 382.816 527.136C377.526 531.136 362.164 534.161 357.38 537.298C348.789 535.458 342.424 533.439 333.664 534.59C338.699 535.905 343.618 536.316 348.255 538.082C345.071 539.311 339.198 540.215 335.662 540.877C326.582 555.162 321.332 545.618 315.299 535.245C309.519 531.456 305.192 530.542 300.827 523.845C295.365 515.891 296.804 505.857 295.106 497.074C293.492 488.724 291.36 488.401 293.105 479.393Z" fill="#C5FEEA"/>
<path d="M656.586 638.806C674.894 627.861 690.679 616.913 703.679 599.471C708.165 593.984 711.867 587.258 716.378 581.872C739.241 554.573 760.6 523.393 768.236 487.895C777.366 490.45 786.424 492.892 795.301 496.259C827.774 508.574 856.745 540.908 864.016 575.341C867.203 593.542 868.33 608.167 863.83 626.369C849.274 685.253 794.766 715.484 736.681 706.774C748.366 681.332 765.709 658.203 785.262 638.27C788.181 635.294 796.816 628.912 797.334 625.469C789.83 625.221 768.098 652.115 763.239 658.194C751.731 672.595 741.318 688.365 733.574 705.097L732.234 704.697C727.111 703.152 719.446 700.97 714.62 698.842C695.859 690.567 678.375 676.219 666.997 659.132C663.082 653.254 659.971 645.09 656.586 638.806Z" fill="#FDE4CF"/>
<path d="M619.248 532.695C620.946 532.274 627.318 528.718 629.2 527.789C648.357 518.327 662.164 506.959 679.01 494.22C695.995 525.53 705.172 549.184 711.79 584.506C694.471 614.192 668.166 632.217 637.41 646.199C626.636 651.097 615.586 654.636 604.942 659.127C604.577 657.759 612.511 636.258 613.35 632.748C620.043 604.748 627.038 560.47 619.248 532.695ZM675.31 564.109C650.737 571.251 633.904 614.431 663.445 611.202C674.522 607.923 681.465 602.433 686.822 592.157C693.228 579.869 693.374 563.313 675.31 564.109Z" fill="#98F5E1"/>
<path d="M617.331 534.177L619.249 532.695C627.039 560.47 620.044 604.748 613.351 632.748C612.512 636.258 604.578 657.759 604.943 659.127L603.971 659.725C603.514 658.567 603.836 659.079 603.02 658.181C603.05 655.843 611.044 633.914 612.185 628.586L613.37 624.727C613.658 622.517 614.302 620.112 614.69 617.877C619.3 591.287 623.159 560.88 617.331 534.177Z" fill="#0C0B0A"/>
<path d="M333.664 534.59C342.424 533.439 348.789 535.458 357.38 537.298C385.396 545.173 412.598 558.747 437.049 574.263C439.84 576.034 449.029 581.492 450.486 583.632L447.735 585.198C428.321 570.401 372.583 541.937 348.255 538.082C343.618 536.316 338.699 535.905 333.664 534.59Z" fill="#FEFEFD"/>
<path d="M563.265 548.315C579.587 549.136 601.882 539.086 617.332 534.177C623.16 560.88 619.3 591.287 614.69 617.877C614.302 620.112 613.659 622.517 613.371 624.727C610.731 624.907 608.299 625.329 605.682 625.71C584.39 628.808 561.67 630.771 540.556 625.601C537.539 624.862 534.434 624.223 531.398 623.531C549.424 603.7 558.765 574.339 563.265 548.315Z" fill="#90DBF4"/>
<path d="M663.446 611.202C633.905 614.431 650.738 571.251 675.311 564.109C693.375 563.313 693.229 579.869 686.823 592.157C681.466 602.433 674.523 607.923 663.446 611.202Z" fill="#C5FEEA"/>
<path d="M864.013 575.341C868.653 578.662 870.43 589.385 871.922 595.199C909.47 748.689 786.894 883.128 631.753 877.827C622.399 877.507 613.046 876.356 603.723 875.919L603.59 875.587C606.051 863.616 603.564 842.736 599.821 831.279C595.647 818.5 586.259 801.572 575.816 792.886C585.41 783.495 616.721 768.829 630.624 765.942C639.195 763.899 649.579 762.692 657.353 767.86C677.649 781.352 674.321 808.701 682.658 828.803C685.746 836.25 689.106 845.134 695.985 849.204C705.817 854.614 715.556 847.703 717.425 837.43C718.758 829.172 717.8 819.729 716.938 811.404C713.277 776.051 721.904 739.271 736.461 707.155C736.533 707.028 736.605 706.901 736.678 706.774C794.763 715.484 849.271 685.253 863.827 626.369C868.327 608.167 867.2 593.542 864.013 575.341Z" fill="#FBF8CC"/>
<path d="M226.115 639.167C250.449 668.483 306.441 677.022 341.829 671.126C343.168 670.903 349.53 670.248 350.327 670.883C308.668 683.081 263.834 683.33 227.84 655.521C185.829 623.062 202.737 583.276 252.725 577.685C258.221 576.771 268.959 577.417 274.63 578.144C310.648 582.762 343.47 602.337 369.557 626.899C373.033 630.171 381.404 633.361 378.195 638.872C377.951 638.955 377.707 639.038 377.463 639.121C374.177 636.116 367.102 631.015 364.004 628.625C339.057 609.6 309.866 592.8 278.626 587.253C257.669 583.532 221.958 587.353 218.002 613.965C216.544 623.777 220.315 631.613 226.115 639.167Z" fill="#CFBAF0"/>
<path d="M448.977 586.404L451.674 584.856C470.717 596.521 507.429 620.194 529.723 622.61L531.398 623.531C534.434 624.223 537.539 624.862 540.556 625.601C561.67 630.771 584.39 628.808 605.682 625.71C608.299 625.329 610.731 624.907 613.371 624.727L612.185 628.586C607.55 628.749 598.557 630.019 593.454 630.551C576.588 632.31 560.305 633.006 543.506 629.709C539.764 628.974 532.596 627.712 529.398 626.056L527.852 625.756C512.614 624.22 460.026 596.661 448.977 586.404Z" fill="#FEFEFD"/>
<path d="M353.988 610.522C388.356 610.91 419.807 605.437 448.977 586.404C460.026 596.661 512.614 624.22 527.852 625.756C509.425 644.989 495.761 653.744 471.193 663.417C452.993 670.583 456.858 669.469 438.544 663.671C405.259 653.133 379.531 633.595 353.988 610.522Z" fill="#90DBF4"/>
<path d="M353.891 667.638C341.645 669.32 324.945 671.213 312.559 670.961C287.509 669.879 258.274 663.296 238.044 647.805C205.665 623.01 216.879 591.932 256.845 588.199C282.304 584.722 315.547 599.544 337.238 612.509C342.772 615.817 374.782 637.251 376.259 641.606C373.781 643.31 366.131 636.901 363.659 635.266C349.283 625.796 332.213 617.406 315.476 612.598C298.956 607.852 237.171 589.116 239.57 621.021C240.074 627.72 245.69 633.156 250.704 637.336C268.469 651.231 301.355 655.021 323.357 658.426L357.781 664.031L353.891 667.638Z" fill="#FDE4CF"/>
<path d="M359.648 661.654C350.94 660.922 337.435 658.595 328.254 657.074C303.897 653.038 275.547 650.678 254.301 637.403C248.778 633.687 242.672 628.435 241.684 621.498C239.953 609.35 247.861 606.074 258.204 605.216C282.876 603.522 322.668 615.119 344.592 626.726C355.032 632.253 364.463 638.841 374.511 644.953L370.998 649.91C344.935 639.205 321.015 630.318 292.843 625.686C288.991 625.052 272.471 623.123 269.445 625.326L269.785 625.838C274.428 626.775 282.245 626.389 288.119 627.226C315.028 629.721 344.393 642.002 369.193 651.559L359.648 661.654Z" fill="#FDE4CF"/>
<path d="M733.572 705.097C741.316 688.365 751.729 672.595 763.237 658.194C768.096 652.115 789.828 625.221 797.332 625.469C796.814 628.912 788.179 635.294 785.26 638.27C765.707 658.203 748.364 681.332 736.679 706.774C736.606 706.901 736.534 707.028 736.462 707.155C721.905 739.271 713.278 776.051 716.939 811.404C717.801 819.729 718.759 829.172 717.426 837.43C715.557 847.703 705.818 854.614 695.986 849.204C689.107 845.134 685.747 836.25 682.659 828.803C674.322 808.701 677.65 781.352 657.354 767.86C649.58 762.692 639.196 763.899 630.625 765.942C616.722 768.829 585.411 783.495 575.817 792.886C568.221 798.527 560.1 803.76 552.41 809.288C539.175 818.802 517.293 834.702 502.352 840.713C481.248 850.736 451.171 860.792 428.432 851.634C424.924 849.899 422.267 849.949 419.398 846.814C422.299 845.565 426.878 847.76 429.766 849.043C454.242 855.44 474.916 849.829 497.501 839.146C526.908 825.462 546.942 807.834 573.465 790.075C606.365 767.677 664.969 734.562 678.332 794.993C680.149 802.186 680.494 810.304 682.789 817.349C685.576 825.905 693.397 851.371 706.082 846.811C715.945 843.266 714.739 826.313 713.644 817.673C708.752 779.084 717.477 740.176 733.572 705.097Z" fill="#FEFEFD"/>
<path d="M529.398 626.056C532.596 627.712 539.764 628.974 543.506 629.709C560.305 633.006 576.588 632.31 593.454 630.551C598.557 630.019 607.55 628.749 612.185 628.586C611.044 633.914 603.05 655.843 603.02 658.181C600.564 661.532 585.177 665.445 580.292 667.59C537.335 686.448 503.769 677.774 460.234 669.641C483.424 661.93 515.553 646.54 529.398 626.056Z" fill="#90DBF4"/>
<path d="M348.773 676.043C358.313 666.679 369.771 654.706 377.37 643.679C378.973 641.353 380.335 638.772 382.022 636.353C386.241 639.023 394.676 644.279 398.156 647.502C384.684 657.395 374.984 662.811 360.179 670.196C356.341 672.111 352.576 674.058 348.773 676.043Z" fill="#E2D2F8"/>
<path d="M446.586 668.592C454.637 670.637 464.198 672.391 472.356 674.094C503.293 680.552 529.678 684.63 560.866 676.038C571.953 673.32 582.355 668.497 593.195 664.966C615.23 657.788 636.069 649.585 656.587 638.806C659.972 645.09 663.083 653.254 666.998 659.132C678.376 676.219 695.86 690.567 714.621 698.842C719.447 700.97 727.112 703.152 732.235 704.697L733.575 705.097C717.48 740.176 708.755 779.084 713.647 817.673C714.742 826.313 715.948 843.266 706.085 846.811C693.4 851.371 685.579 825.905 682.792 817.349C680.497 810.304 680.152 802.186 678.335 794.993C664.972 734.562 606.368 767.677 573.468 790.075C558.133 775.659 535.276 763.748 514.256 762.316C509.662 762.003 504.585 762.148 499.95 762.235C499.42 735.288 479.136 703.62 462.46 683.327C458.529 678.545 451.405 672.922 446.586 668.592Z" fill="#FBF8CC"/>
<path d="M398.691 659.973C396.744 662.848 397.321 664.068 396.082 665.756C391.805 671.587 376.575 685.998 377.384 692.965C364.282 702.156 350.774 709.149 337.531 717.713C325.392 725.562 311.42 735.129 299.828 743.713C311.855 726.215 332.447 695.709 346.979 679.111C349.832 675.852 371.579 667.593 376.812 663.886C382.665 659.74 392.693 654.518 398.721 649.789C399.777 649.09 400.562 649.259 401.598 649.71C402.638 652.459 399.931 657.217 398.691 659.973Z" fill="#E2D2F8"/>
<path d="M453.194 785.596C450.194 787.981 446.927 786.514 444.499 784C431.188 770.168 427.147 748.244 421.304 730.518C412.67 704.322 407.566 679.242 405.82 651.696C406.521 652.014 408.114 652.777 408.343 653.561C417.9 686.195 435.978 715.281 447.466 747.122C451.717 758.904 456.23 773.084 453.194 785.596Z" fill="#FBF8CC"/>
<path d="M469.645 784.354C466.436 787.338 458.622 789.004 454.344 788.037C454.485 787.77 454.63 787.504 454.765 787.234C464.483 767.768 432.771 708.255 423.629 687.705C418.741 676.717 414.493 665.711 410.652 654.322C413.241 655.443 416.071 656.522 418.222 658.389C431.649 670.039 456.85 712.543 464.526 729.953C471.572 745.934 476.181 767.464 469.645 784.354Z" fill="#FBF8CC"/>
<path d="M403.578 654.188C406.795 693.208 416.995 727.785 430.238 764.496C434.19 775.453 439.237 784.974 450.533 789.339C448.078 791.792 440.918 796.844 439.806 798.37C430.092 794.727 419.085 784.762 414.895 775.091C400.648 742.206 396.311 702.803 401.075 667.344C401.74 662.394 402.075 658.892 403.578 654.188Z" fill="#FBF8CC"/>
<path d="M377.383 692.965C376.574 685.998 391.804 671.587 396.081 665.756C397.32 664.068 396.743 662.848 398.69 659.973C393.999 679.479 392.958 681.018 377.383 692.965Z" fill="#CFBAF0"/>
<path d="M484.222 765.874C480.931 767.662 477.629 769.472 474.221 771.028C477.707 733.821 445.517 688.096 423.168 660.189C424.834 660.703 429.224 662.019 430.454 662.804C443.5 671.139 455.675 686.491 464.267 698.946C475.618 715.4 488.065 745.955 484.222 765.874Z" fill="#FBF8CC"/>
<path d="M486.505 763.991C489.828 763.797 494.57 762.722 497.963 762.057C496.92 779.782 492.605 791.959 479.354 804.462C459.745 822.964 431.555 819.238 414.73 799.087C390.973 770.633 387.606 733.097 389.961 697.575C390.727 685.748 395.847 675.46 399.398 664.071L399.393 664.653C399.265 671.84 397.523 679.167 397.496 686.328C397.386 715.76 400.64 748.819 413.138 775.788C431.294 814.968 483.179 808.118 486.505 763.991Z" fill="#CFBAF0"/>
<path d="M497.963 762.057C494.57 762.722 489.828 763.797 486.505 763.991C488.893 725.489 463.468 688.097 435.672 663.618C441.617 666.229 445.566 669.85 450.335 674.167C472.103 693.872 497.175 732.266 497.963 762.057Z" fill="url(#paint1_linear_17_12580)"/>
<path d="M255.696 808.134L255.324 807.514C267.047 789.038 280.64 771.497 293.169 753.558C297.486 747.377 299.218 744.949 305.883 741.268C316.39 735.647 325.545 727.312 335.751 721.318C354.852 710.101 371.894 699.9 389.226 685.955L389.71 686.582C389.256 690.795 384.047 696.338 381.652 700.191C372.392 715.278 363.55 730.388 353.593 745.048C347.322 754.283 345.225 759.072 336.433 766.433C320.831 779.496 304.492 791.684 285.349 799.152C275.611 802.951 265.542 804.818 255.696 808.134Z" fill="url(#paint2_linear_17_12580)"/>
<path d="M332.043 779.75C343.299 763.35 354.538 747.443 365.132 730.522C372.622 718.559 379.653 704.868 388.547 694.039C386.936 724.671 387.032 753.877 401.477 782.036C409.827 798.314 422.511 813.638 441.444 817.316C437.442 828.1 431.66 837.271 429.766 849.043C426.878 847.76 422.299 845.565 419.398 846.814C417.171 847.173 411.514 843.41 409.281 842.149C390.734 831.678 374.228 818.496 358.569 804.199C353.022 799.134 337.419 782.711 332.043 779.75Z" fill="#FFCFD2"/>
<path d="M304.605 733.94C303.125 733.655 298.196 731.619 296.622 731.042C264.305 718.12 235.364 730.712 205.989 746.041C179.409 759.911 142.283 748.962 151.005 712.895C153.707 701.722 177.72 691.282 183.339 706.375C185.783 712.939 177.864 723.744 173.614 721.278C173.288 717.444 176.831 716.732 178.62 713.825C184.261 704.657 173.14 701.445 166.335 703.495C147.936 708.733 150.729 737.04 166.139 744.398C191.401 756.461 218.057 732.394 241.951 726.063C263.675 720.306 286.546 721.165 306.168 731.608L304.605 733.94Z" fill="#FEFEFD"/>
<path d="M499.949 762.235C504.584 762.148 509.661 762.003 514.255 762.316C535.275 763.748 558.132 775.659 573.467 790.075C546.944 807.834 526.91 825.462 497.503 839.146C489.752 832.761 468.905 822.381 463.672 816.252C487.209 806.955 498.614 786.717 499.949 762.235Z" fill="#C3F18B"/>
<path d="M474.223 771.028C477.631 769.472 480.933 767.662 484.224 765.874C480.927 789.49 463.891 804.12 439.805 798.37C440.917 796.844 448.077 791.792 450.532 789.339C451.821 789.004 453.089 788.494 454.347 788.037C458.625 789.004 466.439 787.338 469.648 784.354C472.901 781.736 473.665 774.974 474.223 771.028Z" fill="#CFBAF0"/>
<path d="M302.347 793.08C318.135 782.375 324.346 778.857 339.588 766.061C330.247 778.405 322.417 791.644 314.17 804.735C309.727 811.789 303.905 818.028 299.323 824.77C287.938 841.518 274.285 851.535 256.953 861.802C259.315 853.699 271.166 840.184 276.475 833.209C281.806 826.287 286.994 818.942 291.739 811.606C294.415 807.469 302.791 797.813 302.347 793.08Z" fill="#E2D2F8"/>
<path d="M253.696 809.711C274.873 805.147 283.302 803.082 302.347 793.08C302.791 797.813 294.415 807.469 291.739 811.606C286.994 818.942 281.806 826.287 276.475 833.209C271.166 840.184 259.315 853.699 256.953 861.802C239.941 871.451 228.644 875.173 209.441 877.665C218.456 865.196 226.243 851.113 234.958 838.374C241.34 829.045 246.96 818.739 253.696 809.711Z" fill="#F9E3FE"/>
<path d="M502.352 840.713C517.293 834.702 539.175 818.802 552.41 809.288C560.1 803.76 568.221 798.527 575.817 792.886C586.26 801.572 595.648 818.5 599.822 831.279C603.565 842.736 606.052 863.616 603.591 875.587C573.389 871.824 541.593 862.471 515.211 847.439C511.005 845.042 506.512 843.352 502.352 840.713Z" fill="#C3F18B"/>
<path d="M441.444 817.316C450.065 819.165 455.278 818.915 463.67 816.252C468.903 822.381 489.75 832.761 497.501 839.146C474.916 849.829 454.242 855.44 429.766 849.043C431.66 837.271 437.442 828.1 441.444 817.316Z" fill="#B9FBC0"/>
<path d="M428.435 851.634C451.174 860.792 481.251 850.736 502.355 840.713C506.515 843.352 511.008 845.042 515.214 847.439C541.596 862.471 573.392 871.824 603.594 875.587L603.727 875.919C587.269 963.054 482.736 987.198 436.879 909.01C428.272 894.336 423.594 868.283 428.435 851.634ZM551.014 902.338C549.408 901.542 548.592 900.285 546.843 900.101L546.071 901.05C548.08 903.583 550.58 908.476 551.877 911.5C553.132 913.094 552.896 913.358 554.458 913.822L555.904 913.32C555.851 912.025 555.751 912.037 556.338 910.912L557.15 910.907C558.335 911.955 558.612 912.022 559.192 913.504C557.879 914.143 558.373 913.666 557.718 915.039L558.105 915.851C560.085 915.935 560.977 915.417 561.989 913.716C561.634 910.598 561.33 913.94 559.925 910.997L560.59 909.594C559.927 907.631 559.689 910.329 556.284 907.528L555.783 904.556C556.334 904.269 557.277 904.131 557.941 903.983L558.519 904.538C558.27 906.005 558.142 906.345 558.26 907.848L559.134 907.806C559.511 906.66 559.264 907.032 560.08 906.173L561.722 906.483L562.461 905.455C561.72 903.744 559.724 903.066 557.79 901.912C557.798 900.146 558.054 897.601 556.789 896.396C553.898 898.095 555.085 899.717 552.928 900.727C552.038 899.195 550.849 896.852 549.686 895.661C549.747 898.234 550.859 899.454 551.014 902.338ZM544.453 902.912C543.74 905.458 546.556 909.589 548.751 911C548.854 908.103 547.288 903.921 544.453 902.912Z" fill="#B9FBC0"/>
<path d="M244.437 870.617C247.771 868.813 251.719 867.309 254.772 865.505C265.414 859.217 275.585 852.053 284.978 844.05C273.995 860.503 244.266 901.651 226.535 907.255C222.104 906.266 218.413 905.536 214.441 903.199C218.492 895.93 238.959 880.492 244.317 872.48C244.357 871.859 244.397 871.238 244.437 870.617Z" fill="#8EECF5"/>
<path d="M208.614 879.618C223.524 878.135 230.598 876.001 244.436 870.617C244.396 871.238 244.356 871.859 244.316 872.48C238.958 880.492 218.491 895.93 214.44 903.199C205.04 896.659 202.886 889.483 208.614 879.618Z" fill="#90DBF4"/>
<path d="M551.012 902.338C550.857 899.454 549.745 898.234 549.684 895.661C550.847 896.852 552.036 899.195 552.926 900.727C555.083 899.717 553.896 898.095 556.787 896.396C558.052 897.601 557.796 900.146 557.788 901.912C559.722 903.066 561.718 903.744 562.459 905.455L561.72 906.483L560.078 906.173C559.262 907.032 559.509 906.66 559.132 907.806L558.258 907.848C558.14 906.345 558.268 906.005 558.517 904.538L557.939 903.983C557.275 904.131 556.332 904.269 555.781 904.556L554.814 903.779L554.222 903.927L553.166 905.991L552.38 905.76C551.024 903.084 553.174 905.328 552.255 902.381L551.012 902.338Z" fill="#FBF8CC"/>
<path d="M546.07 901.05L546.842 900.101C548.591 900.285 549.407 901.542 551.013 902.338L552.256 902.381C553.175 905.328 551.025 903.084 552.381 905.76L553.167 905.991L554.223 903.927L554.815 903.779L555.782 904.556L556.283 907.528C554.564 908.462 554.605 908.081 553.907 909.507C554.666 911.387 555.321 911.873 555.903 913.32L554.457 913.822C552.895 913.358 553.131 913.094 551.876 911.5C550.579 908.476 548.079 903.583 546.07 901.05Z" fill="#F4FCE0"/>
<path d="M548.751 911C546.556 909.589 543.74 905.458 544.453 902.912C547.288 903.921 548.854 908.103 548.751 911Z" fill="#F4FCE0"/>
<path d="M556.282 907.528C559.687 910.329 559.925 907.631 560.588 909.594L559.923 910.997C561.328 913.94 561.632 910.598 561.987 913.716C560.975 915.417 560.083 915.935 558.103 915.851L557.716 915.039C558.371 913.666 557.877 914.143 559.19 913.504C558.61 912.022 558.333 911.955 557.148 910.907L556.336 910.912C555.749 912.037 555.849 912.025 555.902 913.32C555.32 911.873 554.665 911.387 553.906 909.507C554.604 908.081 554.563 908.462 556.282 907.528Z" fill="#FBF8CC"/>
<defs>
<linearGradient id="paint0_linear_17_12580" x1="594.903" y1="115.831" x2="593.094" y2="116.882" gradientUnits="userSpaceOnUse">
<stop stop-color="#F2E5FA"/>
<stop offset="1" stop-color="white"/>
</linearGradient>
<linearGradient id="paint1_linear_17_12580" x1="456.467" y1="721.388" x2="476.442" y2="706.311" gradientUnits="userSpaceOnUse">
<stop stop-color="#E9D0E0"/>
<stop offset="1" stop-color="#C7B5F9"/>
</linearGradient>
<linearGradient id="paint2_linear_17_12580" x1="342.247" y1="760.392" x2="302.619" y2="734.672" gradientUnits="userSpaceOnUse">
<stop stop-color="#D9D1FF"/>
<stop offset="1" stop-color="#FFEEFE"/>
</linearGradient>
</defs>
</svg>
