<svg width="1024" height="1024" viewBox="0 0 1024 1024" fill="none" xmlns="http://www.w3.org/2000/svg">
<path d="M481.576 0H509.822C507.875 1.18365 504.668 4.43076 502.674 6.02083C492.677 13.9953 484.174 22.9416 475.172 31.9364C474.593 32.5142 469.315 36.5778 468.256 37.4176C462.333 42.1107 456.896 46.866 451.302 51.8332C447.056 55.6037 439.393 64.8382 435.188 67.3203C444.658 56.1547 481.518 18.825 485.022 6.42637C480.658 10.0923 454.928 34.5321 452.758 35.5495C454.311 33.0356 455.964 31.3081 457.845 29.0681C466.037 19.3114 474.149 10.4058 481.576 0Z" fill="#FDE4CF"/>
<path d="M511.184 0H535.504C529.648 5.83167 522.754 10.8797 516.82 16.7231C502.114 31.2052 488.088 46.2668 472.151 59.4387C467.697 63.1205 462.447 69.0302 457.495 71.8076L456.871 71.594C457.177 70.1927 466.323 59.9406 468.04 57.5101C479.146 41.7889 491.624 27.3007 501.096 10.437C502.616 7.72989 509.094 4.60712 511.184 0Z" fill="#FDE4CF"/>
<path d="M543.551 61.7273C548.44 57.4869 596.885 23.4748 600.053 23.4332L600.063 23.4072L599.562 23.5019L599.45 24.1566C589.521 32.7777 567.04 48.0124 560.994 56.9789C571.057 49.3124 586.848 38.197 597.651 32.17C607.076 26.912 620.95 21.5337 631.13 16.7622L630.423 17.4579C621.697 25.8977 559.494 78.7331 558.111 82.8934L558.448 83.6876C558.555 83.6572 592.336 61.0564 596.054 58.713C620.502 43.3033 640.903 34.7531 668.606 27.3901C653.264 39.7809 638.818 49.042 622.521 60.0314C613.965 65.8006 598.264 76.2214 591.325 83.5118C616.922 71.2358 642.434 60.3676 669.541 51.8814C659.931 60.31 647.263 66.5987 636.547 73.6362C631.591 76.8903 625.951 80.9608 620.964 83.956C609.553 90.8101 599.537 98.5066 589.127 106.744C581.887 112.473 572.064 118.491 565.526 124.911C572.866 122.132 582.889 115.62 589.257 111.086C592.743 108.605 597.819 104.137 601.396 102.179C619.464 92.291 638.163 83.0486 657.169 75.1018C661.388 73.3376 665.492 70.8137 669.534 69.1041C674.151 67.1517 680.3 65.132 685.1 63.5897C678.281 68.105 666.303 73.4215 663.24 79.9225C663.112 80.0898 662.985 80.2571 662.857 80.4244C649.838 84.0825 641.422 88.185 629.459 93.6988C594.019 110.034 572.797 124.542 556.94 161.775L556.395 161.858C557.067 130.019 567.389 87.1909 543.551 61.7273Z" fill="#FEFDFC"/>
<path d="M390.973 66.7074C393.24 62.683 401.628 53.295 405.142 49.1447C408.66 44.9909 417.659 32.9722 421.18 29.8081C417.28 38.4331 409.826 48.8475 404.302 56.6319C401.806 60.1491 397.622 65.1121 395.71 68.7562L390.973 66.7074Z" fill="#FEFDFC"/>
<path d="M506.062 46.2451C511.036 39.7682 516.073 35.6082 523.694 41.8827L523.464 42.5983C519.472 39.4078 515.904 38.5784 511.375 41.6265C508.942 43.2635 508.458 44.9176 506.641 46.652L506.062 46.2451Z" fill="#838182"/>
<path d="M506.641 46.6521C508.458 44.9177 508.942 43.2636 511.375 41.6266C515.904 38.5785 519.472 39.4079 523.464 42.5984C527.862 48.585 530.92 51.5774 536.381 56.6693C543.451 63.5324 548.129 69.1795 551.719 78.4088C558.61 96.1228 556.315 113.062 555.523 131.327C554.721 149.856 554.221 167.961 549.939 186.2C545.308 207.977 539.058 229.433 534.7 251.228C529.966 274.903 527.731 298.957 524.532 322.85C523.686 329.168 521.523 335.975 520.155 342.273C518.779 348.607 517.797 354.863 516.834 361.274C516.696 358.764 516.488 352.483 516.055 350.322C516.334 344.374 515.446 335.571 515.472 329.385C515.54 313.816 514.696 296.773 514.056 281.53C513.616 271.05 510.079 236.573 511.987 229.001C518.315 208.026 530.988 194.004 535.557 174.358C525.979 195.662 517.851 204.607 510.813 228.461C509.327 221.882 510.075 203.846 509.491 196.331C507.11 165.707 506.327 134.908 510.192 104.372C511.627 93.0381 516.468 82.4784 518.656 71.3676L518.82 70.5082C510.407 84.6967 508.958 102.369 505.648 118.024C502.629 112.594 493.987 99.6923 489.546 95.6353C494.613 103.753 500.167 111.53 504.821 119.854C505.396 124.16 504.3 131.8 504.187 136.474C503.87 149.616 502.337 167.316 504.599 180.048C495.889 166.788 488.283 156.34 478.955 143.695C482.763 155.066 501.925 175.437 504.322 183.619C505.343 187.105 507.13 218.677 506.766 221.635C500.148 213.294 492.645 206.102 486.343 198.064C481.885 192.377 477.837 183.178 473.102 176.494C475.9 184.012 478.616 190.253 483.426 196.822C490.476 206.45 500.087 214.434 506.626 224.387L506.641 224.72C508.518 232.917 509.362 248.69 510.077 257.45C513.078 294.216 512.937 329.992 515.16 367.012C515.376 373.407 514.724 377.661 513.804 383.998C508.082 375.406 495.127 267.793 489.627 249.884C487.142 241.789 484.394 229.056 480.479 220.222C474.216 206.087 468.406 196.414 466.197 180.766C463.112 158.916 461.792 139.202 464.738 117.32C468.929 86.1943 470.76 74.1757 496.483 54.5559C499.902 52.2446 503.764 49.5835 506.641 46.6521ZM535.887 96.4576C523.61 107.981 516.766 118.966 509.204 133.634C509.316 133.794 509.382 134.049 509.573 134.091C513.404 129.484 516.867 123.044 520.188 117.87C525.293 109.916 529.767 104.039 536.144 97.1215C535.945 96.4664 536.051 96.5992 535.887 96.4576ZM535.236 129.041C529.5 135.003 510.684 162.05 511.274 170.097C517.036 158.837 523.001 147.929 529.927 137.326C530.706 136.133 535.227 129.946 535.236 129.041Z" fill="url(#paint0_linear_17_13244)"/>
<path d="M523.695 41.8828C528.362 47.2599 532.645 51.6852 537.913 56.5418L536.382 56.6693C530.921 51.5774 527.863 48.585 523.465 42.5984L523.695 41.8828Z" fill="#261F1C"/>
<path d="M495.52 53.9474C498.906 51.6819 503.204 49.0261 506.063 46.2451L506.641 46.652C503.764 49.5834 499.902 52.2445 496.483 54.5558L495.52 53.9474Z" fill="#261F1C"/>
<path d="M363.149 71.5517C361.802 64.4812 356.379 57.4811 367.637 54.4952C375.765 52.3392 378.53 60.397 384.782 64.0055L383.456 64.5825C379.073 61.2948 374.344 53.8914 369.024 54.9471C356.662 57.4005 363.531 65.7773 364.316 71.5881L363.149 71.5517Z" fill="#373626"/>
<path d="M466.867 87.3064C474.024 71.4354 480.339 63.0873 495.521 53.9475L496.484 54.5559C470.761 74.1757 468.93 86.1943 464.739 117.32C461.793 139.202 463.113 158.916 466.198 180.766C468.407 196.414 474.217 206.087 480.48 220.222C484.395 229.056 487.143 241.789 489.628 249.884C495.128 267.793 508.083 375.406 513.805 383.998L515.204 384.094C513.976 391.039 518.683 409.88 515.223 413.36C514.486 412.574 512.735 399.028 512.348 396.891C500.253 329.985 474.547 266.979 445.224 205.947C443.098 201.524 434.444 182.63 431.485 180.544L431.469 179.153C430.993 177.117 422.435 165.441 420.775 163.102C413.233 152.473 406.891 141.311 400.755 129.814C389.898 125.373 383.589 127 373.066 119.196C379.344 120.727 393.665 125.025 399.52 127.2C393.496 112.953 384.386 99.0062 378.872 83.7971L379.19 82.9554L378.978 82.7589C381.75 85.2231 395.525 113.216 398.866 119.089C398.724 117.507 398.702 116.128 398.672 114.549L399.808 116.423C399.74 117.124 399.579 119.283 399.885 119.79C403.447 125.71 408.368 137.334 412.483 142.233L413.828 142.258C414.071 147.615 427.263 167.566 431.296 172.628L431.999 172.857L433.924 172.706C433.106 177.923 438.183 183.37 440.707 188.026C443.158 192.549 445.546 196.656 447.69 201.404C448.763 188.778 446.624 174.248 448.002 161.399C448.427 157.432 448.218 153.375 449.21 149.443L449.347 150.323C451.133 162.156 449.383 176.173 449.829 188.191C449.968 191.959 449.019 200.439 450.273 203.611C454.903 215.321 461.104 227.139 466.241 238.673C465.117 231.277 457.28 193.401 460.256 189.402C461.048 191.099 461.658 195.801 462.114 198.044C463.812 206.409 465.044 214.726 466.207 223.173C466.874 228.024 467.259 234.96 468.104 239.52C470.002 249.754 475.782 260.969 479.217 270.955C480.764 275.451 484.005 286.337 486.009 289.911C486.73 292.949 488.023 296.664 489.044 299.639C493.295 312.021 497.219 324.678 501.622 336.986C499.709 319.043 495.095 299.196 492.075 281.182C489.41 265.278 487.147 250.11 482.951 234.511C478.612 218.384 469.25 203.644 465.506 187.77C462.342 174.357 461.804 159.139 459.987 145.434C459.032 138.23 460.415 130.254 458.218 123.037C449.476 85.8421 410.251 80.8135 384.05 64.9456L383.457 64.5824L384.783 64.0054L390.972 66.7074L395.709 68.7562C414.249 76.3344 438.431 86.0115 451.127 102.155L452.855 104.395C457.943 112.519 459.314 116.34 461.695 125.593C462.446 115.357 464.187 104.298 465.749 94.1454C466.453 91.4463 466.901 90.153 466.867 87.3064Z" fill="#4E4E35"/>
<path d="M364.317 71.5881C363.532 65.7773 356.663 57.4005 369.025 54.9471C374.345 53.8914 379.074 61.2948 383.457 64.5825L384.05 64.9457C410.251 80.8136 449.476 85.8422 458.218 123.037C460.415 130.254 459.032 138.23 459.987 145.434C461.804 159.139 462.342 174.357 465.506 187.77C469.25 203.644 478.612 218.384 482.951 234.511C487.147 250.11 489.41 265.278 492.075 281.182C495.095 299.196 499.709 319.043 501.622 336.986C497.219 324.678 493.295 312.021 489.044 299.639C488.023 296.664 486.73 292.949 486.009 289.911C490.662 280.286 485.511 259.405 482.383 249.785C480.13 242.857 479.184 236.711 478.104 229.552C474.076 235.901 482.886 260.452 484.5 267.726C485.939 274.219 486.578 283.272 486.009 289.911C484.005 286.337 480.764 275.451 479.217 270.955C475.782 260.969 470.002 249.754 468.104 239.52C467.259 234.96 466.874 228.024 466.207 223.173C465.044 214.726 463.812 206.409 462.114 198.044C461.658 195.801 461.048 191.099 460.256 189.402C457.28 193.401 465.117 231.277 466.241 238.673C461.104 227.139 454.903 215.321 450.273 203.611C449.019 200.439 449.968 191.959 449.829 188.191C449.383 176.173 451.133 162.156 449.347 150.323L449.21 149.443C448.218 153.375 448.427 157.432 448.002 161.399C446.624 174.248 448.763 188.778 447.69 201.404C445.546 196.656 443.158 192.549 440.707 188.026C438.183 183.37 433.106 177.923 433.924 172.706C433.946 170.146 433.787 167.326 433.593 164.755C432.765 153.801 432.709 143.251 433.022 132.265C432.977 129.517 433.325 126.776 433.591 124.034C432.656 126.769 432.251 128.057 431.671 130.949C429.339 141.614 429.817 150.805 430.959 161.603C431.263 164.469 432.159 170.352 431.999 172.857L431.296 172.628C427.263 167.566 414.071 147.615 413.828 142.258C414.896 133.697 418.512 116.135 418.655 108.939C414.337 119.794 412.741 130.564 412.483 142.233C408.368 137.334 403.447 125.71 399.885 119.79C399.579 119.283 399.74 117.124 399.808 116.423L403.672 96.0545C400.827 103.631 399.904 106.594 398.672 114.549C398.702 116.128 398.724 117.507 398.866 119.089C395.525 113.216 381.75 85.2232 378.978 82.759L379.19 82.9555L378.872 83.7972C384.386 99.0063 393.496 112.953 399.52 127.2C393.665 125.025 379.344 120.727 373.066 119.196C383.589 127 389.898 125.373 400.755 129.814C406.891 141.311 413.233 152.473 420.775 163.102C422.435 165.441 430.993 177.117 431.469 179.153C411.108 173.849 403.596 172.973 388.703 156.683C388.746 158.59 392.624 162.41 394.113 163.82C406.008 175.094 416.058 177.35 431.485 180.544C434.444 182.63 443.098 201.524 445.224 205.947C474.547 266.979 500.253 329.985 512.348 396.891C512.735 399.028 514.486 412.574 515.223 413.36C518.683 409.88 513.976 391.039 515.204 384.094C517.558 371.324 519.362 356.536 522.523 344.072C533.058 302.529 551.454 261.986 573.961 225.554C578.918 217.53 586.664 204.044 592.698 197.293C601.35 194.522 611.342 189.399 619.903 185.795C624.821 183.725 634.378 180.319 638.355 177.906C619.744 182.183 610.645 187.205 593.718 195.229C595.463 191.567 608.941 171.433 611.54 170.621C617.133 169.28 627.766 166.299 632.9 163.921C631.599 163.417 614.137 168.636 611.315 169.437C613.774 165.617 620.197 154.52 623.526 153.079C633.098 149.303 652.925 136.857 661.422 131.025C652.181 133.614 642.013 140.066 633.937 145.371C631.006 147.296 625.591 151.207 622.576 152.217C624.429 148.712 626.851 145.368 629.107 142.094C637.284 130.228 643.88 117.827 652.842 106.483C637.047 118.723 617.519 159.727 601.113 177.591C597.146 156.825 597.359 152.415 600.288 132.187C593.743 146.686 594.302 163.5 600.231 178.154C598.86 181.195 580.81 207.642 579.097 208.695L579.069 203.546L579.055 173.635C579.508 171.095 579.811 161.161 580.006 157.821C579.032 160.734 578.701 162.081 578.091 165.062C575.942 174.732 574.929 194.801 577.538 204.042C577.774 205.64 577.965 207.719 578.604 209.132C578.477 211.101 566.356 231.223 564.548 233.258C564.527 226.432 564.352 218.128 564.761 211.428C565.356 201.69 566.8 192.946 566.484 183.022C561.385 198.299 563.788 219.211 563.005 235.167C562.813 235.967 549.127 263.356 548.035 264.898L547.505 265.104C549.536 244.857 549.18 242.584 556.341 222.797C548.528 232.898 546.541 245.283 546.291 257.77C546.256 259.511 546.193 263.727 547.004 265.154C546.835 268.708 537.147 289.272 535.34 294.521C533.832 298.901 530.057 309.717 528.22 313.931C529.36 305.558 529.938 296.734 530.857 288.334C534.386 256.085 542.56 225.256 551.109 194.069C553.785 184.306 553.98 173.465 557.719 163.889C568.718 141.962 579.717 123.058 602.078 110.629C621.581 99.788 644.446 85.4617 666.49 81.2874C667.767 81.5694 669 81.5626 669.54 82.8925C670.761 85.9029 670.471 93.2806 671.385 96.0874C677.367 114.472 685.528 122.583 676.954 142.168C671.264 155.167 664.644 168.68 656.353 180.585C652.375 186.298 647.113 191.916 643.188 197.538C634.82 199.872 625.705 202.072 617.637 204.756C596.292 211.856 580.834 229.157 570.215 248.501C561.028 265.235 550.082 285.559 543.754 303.682C539.75 315.152 536.074 335.108 534.212 347.487C532.864 356.453 532.937 368.343 531.746 377.706C530.575 386.906 527.077 405.878 528.174 415.017C515.843 415.694 495.18 414.493 482.931 409.177C481.525 408.566 481.53 407.267 481.326 406.066C481.392 401.915 480.805 396.926 480.493 392.8C477.601 354.573 469.359 327.072 441.507 299.225C416.015 273.736 394.797 268.919 360.926 261.721C333.961 255.991 308.675 235.514 292.744 213.614C289.185 208.784 286.923 201.648 283.565 196.312C279.004 192.849 272.75 196.488 270.566 190.811C271.528 187.144 277.078 185.976 279.265 183.821C289.667 173.577 298.888 170.282 313.498 167.938C326.145 167.027 331.372 168.848 343.018 170.431C372.466 174.433 394.263 182.483 416.966 202.155C425.856 209.858 430.218 215.386 437.483 223.973C459.578 250.092 471.241 279.116 478.638 312.172C481.058 322.99 483.484 332.71 484.824 343.965C480.714 334.322 478.81 327.447 473.916 317.534C464.948 298.655 450.795 279.151 435.429 264.984C431.391 261.261 427.929 258.478 425.294 253.602C421.786 243.195 417.862 231.879 412.302 222.361C414.754 230.841 420.264 245.669 423.738 253.811C421.954 253.183 414.375 245.473 412.157 243.68C406.971 239.489 400.183 236.221 395.16 232.268C394.112 219.931 386.081 202.031 378.771 191.801C382.735 203.781 392.804 218.614 393.738 231.897C383.952 225.135 369.315 215.719 360.488 208.397C356.389 197.214 353.208 192.263 343.887 185.203C350.98 193.171 354.284 200.806 360.236 208.905C347.951 202.076 313.761 182.925 300.558 187.514C301.43 188.238 307.596 188.362 309.288 188.786C323.017 192.222 340.295 199.443 352.19 206.919C335.733 204.215 323.167 202.281 306.276 202.554C306.489 202.627 306.702 202.701 306.915 202.775C317.955 206.102 345.694 205.142 355.727 209.36C363.863 212.781 381.423 226.949 390.484 232.417C385.228 233.138 380.199 232.239 374.963 231.889C366.464 231.32 357.105 230.266 348.638 231.2L348.754 231.576C354.305 232.815 383.878 234.36 389.46 233.805C395.18 233.635 412.517 247.01 416.728 251.299C405.01 248.656 385.518 246.701 373.19 247.63L373.916 247.879C385.22 251.713 408.765 248.521 417.615 253.871C435.414 264.632 456.873 289.874 466.531 306.981L465.845 307.71C462.348 301.973 457.247 295.955 452.773 290.895C440.076 276.538 427.893 267.037 408.747 263.333C411.257 264.353 413.865 265.493 416.325 266.479C451.385 280.524 479.356 328.092 486.198 363.742C487.502 370.538 488.917 377.36 489.996 384.232C490.779 389.22 491.921 402.261 493.53 406.283L494.04 406.3C497.064 394.623 491.299 363.959 489.609 351.659C480.969 288.806 457.236 224.626 402.314 187.995C396.751 184.285 386.111 180.324 382.026 175.462C367.855 158.653 354.434 135.372 351.462 113.283C349.53 98.9234 363.867 87.5932 364.317 71.5881ZM618.739 120.824C617.485 125.908 616.016 144.162 620.439 147.845C619.295 140.99 619.601 123.717 618.739 120.824Z" fill="url(#paint1_linear_17_13244)"/>
<path d="M536.382 56.6692L537.913 56.5417C539.898 58.2899 541.655 59.8588 543.55 61.7271C567.388 87.1907 557.066 130.019 556.394 161.858L556.197 162.819L557.719 163.889C553.98 173.465 553.785 184.306 551.109 194.069C542.56 225.256 534.386 256.085 530.857 288.334C529.938 296.734 529.36 305.558 528.22 313.931C530.057 309.717 533.832 298.901 535.34 294.521C537.147 289.272 546.835 268.708 547.004 265.154L547.505 265.104L548.035 264.898C549.127 263.356 562.813 235.967 563.005 235.167C563.599 234.551 564.024 233.939 564.548 233.258C566.356 231.223 578.477 211.101 578.604 209.132L579.097 208.695C580.81 207.642 598.86 181.195 600.231 178.154L601.113 177.591C617.519 159.727 637.047 118.723 652.842 106.483C643.88 117.827 637.284 130.228 629.107 142.094C626.851 145.368 624.429 148.712 622.576 152.217L623.526 153.079C620.197 154.52 613.774 165.617 611.315 169.437L611.54 170.621C608.941 171.433 595.463 191.567 593.718 195.229C593.249 196.04 592.899 196.434 592.698 197.293C586.664 204.044 578.918 217.53 573.961 225.554C551.454 261.986 533.058 302.529 522.523 344.072C519.362 356.536 517.558 371.324 515.204 384.094L513.805 383.998C514.725 377.661 515.377 373.407 515.161 367.012C516.848 364.268 515.61 354.288 516.056 350.322C516.489 352.483 516.697 358.764 516.835 361.274C517.798 354.863 518.78 348.607 520.156 342.273C521.524 335.975 523.687 329.168 524.533 322.85C527.732 298.957 529.967 274.903 534.701 251.228C539.059 229.433 545.309 207.977 549.94 186.2C554.222 167.961 554.722 149.856 555.524 131.327C556.316 113.062 558.611 96.1227 551.72 78.4087C548.13 69.1794 543.452 63.5323 536.382 56.6692Z" fill="#4E4E35"/>
<path d="M675.586 102.005C677.513 100.237 686.896 97.2263 689.913 95.428C694.992 92.4008 700.3 89.3237 705.27 86.1409C717.419 78.3607 733.949 70.203 748.307 67.4275C742.351 70.8906 735.361 74.2287 729.717 77.7807C718.976 84.5411 708.669 91.1029 697.706 97.533C692.63 100.511 681.889 104.526 678.829 106.671L679.277 107.351C686.085 107.357 696.233 99.6901 702.754 98.1158C711.206 96.0755 720.663 92.5934 728.984 90.7266C724.756 94.2335 715.96 98.0936 710.809 100.897C701.043 106.211 691.184 111.339 681.583 116.98C680.234 112.267 677.595 106.534 675.586 102.005Z" fill="#FEFDFC"/>
<path d="M363.151 71.5515L364.318 71.5879C363.868 87.593 349.531 98.9232 351.463 113.283C354.435 135.372 367.856 158.653 382.027 175.462C386.112 180.324 396.752 184.285 402.315 187.995C457.237 224.626 480.97 288.806 489.61 351.659C491.3 363.959 497.065 394.623 494.041 406.3L493.531 406.283C491.922 402.261 490.78 389.22 489.997 384.232C488.918 377.36 487.503 370.538 486.199 363.742C479.357 328.092 451.386 280.524 416.326 266.479C413.866 265.493 411.258 264.353 408.748 263.333C427.894 267.037 440.077 276.538 452.774 290.895C457.248 295.955 462.349 301.973 465.846 307.71C467.34 310.209 469.317 313.771 471.129 315.912C472.211 316.752 471.774 316.565 473.103 316.756L473.917 317.534C478.811 327.447 480.715 334.322 484.825 343.965C483.485 332.71 481.059 322.99 478.639 312.172C471.242 279.116 459.579 250.092 437.484 223.973C430.219 215.386 425.857 209.858 416.967 202.155C394.264 182.483 372.467 174.433 343.019 170.431C331.373 168.848 326.146 167.027 313.499 167.938C313.299 167.285 313.147 167.291 312.625 166.712C324.629 163.087 366.634 172.174 379.635 176.712C365.355 158.625 351.906 136.871 349.056 113.529C349.961 92.7303 362.29 86.4899 363.151 71.5515Z" fill="#4E4E35"/>
<path d="M505.65 118.024C508.96 102.369 510.409 84.6968 518.822 70.5083L518.658 71.3677C516.47 82.4785 511.629 93.0382 510.194 104.372C506.329 134.908 507.112 165.707 509.493 196.331C510.077 203.846 509.329 221.882 510.815 228.461L510.884 229.007C510.043 229.271 510.46 229.29 509.634 228.928C509.139 226.188 509.484 225.035 506.643 224.72L506.628 224.387C506.834 224.034 507.143 223.161 507.306 222.743L506.768 221.635C507.132 218.677 505.345 187.105 504.324 183.619C501.927 175.437 482.765 155.066 478.957 143.695C488.285 156.34 495.891 166.788 504.601 180.048C502.339 167.316 503.872 149.616 504.189 136.474C504.302 131.8 505.398 124.16 504.823 119.854C505.35 118.993 505.299 118.984 505.65 118.024Z" fill="url(#paint2_linear_17_13244)"/>
<path d="M662.854 80.4243C665.67 79.7755 666.216 79.8082 669.122 79.9596C668.309 80.4572 667.316 81.2444 666.488 81.2873C644.444 85.4616 621.579 99.7879 602.076 110.629C579.715 123.058 568.716 141.962 557.717 163.889L556.195 162.819L556.392 161.858L556.937 161.775C572.794 124.542 594.016 110.034 629.456 93.6987C641.419 88.1849 649.835 84.0824 662.854 80.4243Z" fill="#543F38"/>
<path d="M669.125 79.9597C672.476 83.1252 671.931 86.7693 672.116 91.5224C672.418 92.8244 672.791 94.6675 673.174 95.8945C673.757 97.3762 674.952 100.72 675.588 102.005C677.597 106.534 680.236 112.267 681.585 116.98L682.33 120.202L682.735 122.871C684.191 134.708 678.103 145.954 673.232 156.377C668.387 166.744 662.497 177.083 655.625 186.176C653.135 189.471 650.296 192.669 647.835 195.979C669.442 190.67 710.331 179.785 733.069 194.422C733.21 194.55 733.352 194.679 733.493 194.808L733.319 195.64C707.152 180.019 664.117 194.964 637.486 202.184C606.855 210.489 589.871 223.782 574.186 251.251C555.71 282.601 536.539 329.86 535.261 366.732C537.178 360.36 539.93 350.663 542.709 344.727C555.382 317.66 573.256 291.956 595.965 272.359C606.189 263.537 615.768 257.095 626.656 249.511C638.291 241.408 649.052 233.942 661.639 227.354C675.248 220.232 694.666 209.85 709.916 207.638L710.487 209.175C695.549 213.769 686.751 216.958 673.014 224.87L671.481 225.98C665.621 228.26 641.423 242.683 636.618 246.601L636.438 247.355L637.144 248.217C632.822 249.151 618.303 258.488 615.724 261.602L615.972 262.223C621.704 262.793 628.515 261.824 634.174 262.574C628.028 263.126 620.387 262.942 614.093 262.996C594.753 277.728 579.888 290.149 566.88 310.999C565.126 313.81 560.135 319.643 559.582 322.681L559.437 323.573L559.985 324.111C547.378 340.96 539.966 358.456 534.306 378.669C530.878 390.91 530.477 402.424 529.034 414.878L528.175 415.017C527.078 405.878 530.576 386.906 531.747 377.706C532.938 368.343 532.865 356.453 534.213 347.487C536.075 335.108 539.751 315.152 543.755 303.682C550.083 285.559 561.029 265.235 570.216 248.501C580.835 229.157 596.293 211.856 617.638 204.756C625.706 202.072 634.821 199.872 643.189 197.538C647.114 191.916 652.376 186.298 656.354 180.585C664.645 168.68 671.265 155.167 676.955 142.168C685.529 122.583 677.368 114.472 671.386 96.0874C670.472 93.2806 670.762 85.9029 669.541 82.8925C669.001 81.5626 667.768 81.5694 666.491 81.2874C667.319 81.2445 668.312 80.4573 669.125 79.9597Z" fill="#4E4E35"/>
<path d="M672.113 91.5223C680.73 88.3185 691.406 82.2524 698.92 79.7378C693.33 83.7723 679.221 94.4927 673.171 95.8944C672.788 94.6674 672.415 92.8243 672.113 91.5223Z" fill="#FEFDFC"/>
<path d="M451.129 102.155C453.679 101.235 464.607 89.8096 466.869 87.3064C466.903 90.153 466.455 91.4463 465.751 94.1454C462.262 94.4588 455.793 101.756 452.857 104.395L451.129 102.155Z" fill="#FDE4CF"/>
<path d="M452.855 104.395C455.791 101.756 462.26 94.4589 465.749 94.1455C464.187 104.298 462.446 115.357 461.695 125.593C459.314 116.34 457.943 112.519 452.855 104.395Z" fill="#FEFDFC"/>
<path d="M489.547 95.6353C493.988 99.6923 502.63 112.594 505.649 118.024C505.298 118.984 505.349 118.993 504.822 119.854C500.168 111.53 494.614 103.753 489.547 95.6353Z" fill="#373626"/>
<path d="M509.572 134.091C509.381 134.049 509.315 133.794 509.203 133.634C516.765 118.966 523.609 107.981 535.886 96.4575C536.05 96.5991 535.944 96.4663 536.143 97.1214C529.766 104.039 525.292 109.916 520.187 117.87C516.866 123.044 513.403 129.484 509.572 134.091Z" fill="#444331"/>
<path d="M398.672 114.549C399.904 106.594 400.827 103.631 403.672 96.0544L399.808 116.423L398.672 114.549Z" fill="#373626"/>
<path d="M412.484 142.233C412.742 130.564 414.338 119.794 418.656 108.939C418.513 116.135 414.897 133.697 413.829 142.258L412.484 142.233Z" fill="#4E4E35"/>
<path d="M682.328 120.202C689.496 119.419 698.908 113.298 709.258 111.503C705.904 113.687 685.958 122.695 682.733 122.871L682.328 120.202Z" fill="#FEFDFC"/>
<path d="M335.737 123.834C333.581 129.84 325.065 141.913 324.98 143.876L325.917 143.641C328.256 139.573 346.013 115.114 349.056 113.529C351.906 136.871 365.355 158.625 379.635 176.712C366.634 172.174 324.629 163.087 312.625 166.712C298.09 168.744 289.052 173.773 278.165 183.283C275.706 185.431 268.556 187.375 269.905 192.041C272.005 197.635 278.94 193.622 283.125 197.189C288.594 210.354 292.348 218.483 302.604 229.146C305.595 232.256 309.732 235.902 312.51 238.818C306 237.939 268.123 210.235 260.477 204.938C261.278 200.45 263.6 197.004 264.317 193.482C266.855 179.83 273.466 163.942 286.331 156.951C295.217 152.121 303.918 148.121 311.237 140.445C316.974 134.428 320.338 122.889 327.343 117.451C329.141 116.056 332.454 114.48 334.559 113.205L334.838 113.532C330.82 121.827 327.893 127.342 324.136 136.156C327.453 132.315 331.855 126.819 335.737 123.834Z" fill="#FEFDFC"/>
<path d="M620.441 147.845C616.018 144.162 617.487 125.908 618.741 120.824C619.603 123.717 619.297 140.99 620.441 147.845Z" fill="#373626"/>
<path d="M431.672 130.949C432.252 128.057 432.657 126.769 433.592 124.034C433.326 126.776 432.978 129.517 433.023 132.265L431.672 130.949Z" fill="#444331"/>
<path d="M511.275 170.097C510.685 162.05 529.501 135.003 535.237 129.041C535.228 129.946 530.707 136.133 529.928 137.326C523.002 147.929 517.037 158.837 511.275 170.097Z" fill="#373626"/>
<path d="M431.672 130.949L433.023 132.265C432.71 143.251 432.766 153.801 433.594 164.755C433.788 167.326 433.947 170.146 433.925 172.706L432 172.857C432.16 170.352 431.264 164.469 430.96 161.603C429.818 150.805 429.34 141.614 431.672 130.949Z" fill="#4E4E35"/>
<path d="M622.574 152.217C625.589 151.207 631.004 147.296 633.935 145.371C642.011 140.066 652.179 133.614 661.42 131.025C652.923 136.857 633.096 149.303 623.524 153.079L622.574 152.217Z" fill="#444331"/>
<path d="M600.286 132.187C597.357 152.415 597.144 156.825 601.111 177.591L600.229 178.154C594.3 163.5 593.741 146.686 600.286 132.187Z" fill="#4E4E35"/>
<path d="M431.485 180.544C416.058 177.35 406.008 175.094 394.113 163.82C392.624 162.41 388.746 158.59 388.703 156.683C403.596 172.973 411.108 173.849 431.469 179.153L431.485 180.544Z" fill="#373626"/>
<path d="M578.09 165.062C578.7 162.081 579.031 160.734 580.005 157.821C579.81 161.161 579.507 171.095 579.054 173.635C578.689 171.406 578.882 168.171 578.927 165.836L578.09 165.062Z" fill="#4E4E35"/>
<path d="M611.316 169.437C614.138 168.636 631.6 163.417 632.901 163.921C627.767 166.299 617.134 169.28 611.541 170.621L611.316 169.437Z" fill="#373626"/>
<path d="M578.092 165.062L578.929 165.836C578.884 168.171 578.691 171.406 579.056 173.635L579.07 203.546L577.539 204.042C574.93 194.801 575.943 174.732 578.092 165.062Z" fill="url(#paint3_linear_17_13244)"/>
<path d="M283.122 197.189C278.937 193.622 272.002 197.635 269.902 192.041C268.553 187.375 275.703 185.431 278.162 183.283C289.049 173.773 298.087 168.744 312.622 166.712C313.144 167.291 313.296 167.285 313.496 167.938C298.886 170.282 289.665 173.577 279.263 183.821C277.076 185.976 271.526 187.144 270.564 190.811C272.748 196.488 279.002 192.849 283.563 196.312L283.122 197.189Z" fill="#261F1C"/>
<path d="M144.988 626.617C138.746 620.213 133.678 612.428 128.184 605.495C107.437 578.891 88.9114 547.095 78.8668 514.682C68.6622 481.752 62.6174 445.225 58.1502 411.104C51.9025 363.382 47.1375 314.978 52.6094 266.958C54.6062 249.435 59.1831 232.105 67.1773 216.363C75.8583 199.088 94.6349 182.488 113.46 177.08C149.197 166.815 195.075 176.488 229.112 189.999C239.488 194.118 250.695 199.828 260.475 204.938C268.121 210.235 305.998 237.939 312.508 238.818C316.039 241.304 319.097 244.51 322.579 247.013C332.018 253.799 343.396 259.788 354.598 262.861C369.132 266.849 384.005 269.102 398.334 273.674C421.208 280.972 439.343 298.268 453.379 317.172C470.706 340.9 476.003 373.544 477.642 402.344C445.632 404.942 421.66 425.458 410.512 455.113C405.2 452.863 392.595 454.775 386.577 455.258C310.128 461.388 233.101 494.226 184.225 554.837C166.383 576.963 152.562 599.408 144.988 626.617Z" fill="#8EECF5"/>
<path d="M510.812 228.461C517.851 204.607 525.978 195.662 535.556 174.358C530.987 194.004 518.315 208.026 511.987 229.001L510.882 229.007L510.812 228.461Z" fill="#444331"/>
<path d="M473.102 176.494C477.837 183.178 481.885 192.377 486.343 198.064C492.645 206.102 500.148 213.294 506.766 221.635L507.304 222.743C507.141 223.161 506.832 224.034 506.626 224.387C500.087 214.434 490.476 206.45 483.426 196.822C478.616 190.253 475.9 184.012 473.102 176.494Z" fill="#373626"/>
<path d="M593.719 195.229C610.646 187.205 619.745 182.183 638.356 177.906C634.379 180.319 624.822 183.725 619.904 185.795C611.343 189.399 601.351 194.522 592.699 197.293C592.9 196.434 593.25 196.04 593.719 195.229Z" fill="#444331"/>
<path d="M564.547 233.258C564.023 233.939 563.598 234.551 563.004 235.167C563.787 219.211 561.384 198.299 566.483 183.022C566.799 192.946 565.355 201.69 564.76 211.428C564.351 218.128 564.526 226.432 564.547 233.258Z" fill="#414F2B"/>
<path d="M360.489 208.397C369.316 215.719 383.953 225.135 393.739 231.897C392.033 232.537 390.897 232.643 389.461 233.805C383.879 234.36 354.306 232.815 348.755 231.576L348.639 231.2C357.106 230.266 366.465 231.32 374.964 231.889C380.2 232.239 385.229 233.138 390.485 232.417C381.424 226.949 363.864 212.781 355.728 209.36C345.695 205.142 317.956 206.102 306.916 202.775C306.703 202.701 306.49 202.627 306.277 202.554C323.168 202.281 335.734 204.215 352.191 206.919C340.296 199.443 323.018 192.222 309.289 188.786C307.597 188.362 301.431 188.238 300.559 187.514C313.762 182.925 347.952 202.076 360.237 208.905C354.285 200.806 350.981 193.171 343.888 185.203C353.209 192.263 356.39 197.214 360.489 208.397Z" fill="#4E4E35"/>
<path d="M535.258 366.732C536.536 329.86 555.707 282.601 574.183 251.251C589.868 223.782 606.852 210.489 637.483 202.184C664.114 194.964 707.149 180.019 733.316 195.64C740.378 201.026 735.868 204.994 734.786 212.685C733.099 228.189 728.04 233.174 717.605 244.612C712.241 250.491 708.166 254.596 701.869 259.685C681.586 276.079 658.574 283.471 633.365 287.937C622.474 289.867 610.9 292.202 600.922 297.352C596.363 299.583 592.281 302.023 588.204 305.065C563.962 324.105 544.075 366.208 540.11 396.787C539.512 401.403 538.421 408.604 541.931 412.182C540.337 413.234 539.322 413.254 537.452 413.582C535.348 413.936 530.963 414.783 529.031 414.878C530.474 402.424 530.875 390.91 534.303 378.669C539.963 358.456 547.375 340.96 559.982 324.111C564.124 319.327 586.992 297.922 588.943 294.24C578.479 302.816 569.701 313.68 559.579 322.681C560.132 319.643 565.123 313.81 566.877 310.999C579.885 290.149 594.75 277.728 614.09 262.996C620.384 262.942 628.025 263.126 634.171 262.574C638.335 262.746 642.65 262.549 646.827 262.43C652.085 262.511 656.578 262.563 661.857 262.26C659.369 261.787 656.905 261.49 654.396 261.157C645.734 259.716 624.737 260.011 615.721 261.602C618.3 258.488 632.819 249.151 637.141 248.217C645.41 246.067 662.655 243.627 670.869 243.457C674.689 243.78 676.533 243.574 680.229 242.854L679.999 242.441L677.699 242.603C663.777 241.493 649.774 243.152 636.435 247.355L636.615 246.601C641.42 242.683 665.618 228.26 671.478 225.98C677.065 225.486 680.681 225.41 686.28 225.401C691.849 225.621 696.443 225.401 701.965 224.884C704.331 224.646 704.892 224.645 707.094 223.887L707.15 223.499L706.697 224.158L706.444 223.341C704.512 223.443 703.812 223.507 701.927 223.892C694.606 224.031 687.427 223.923 680.061 224.172L673.011 224.87C686.748 216.958 695.546 213.769 710.484 209.175C712.893 208.294 716.875 207.764 718.544 206.696C715.796 206.326 712.713 207.128 709.913 207.638C694.663 209.85 675.245 220.232 661.636 227.354C649.049 233.942 638.288 241.408 626.653 249.511C615.765 257.095 606.186 263.537 595.962 272.359C573.253 291.956 555.379 317.66 542.706 344.727C539.927 350.663 537.175 360.36 535.258 366.732ZM614.363 275.663C609.057 277.626 601.927 279.978 597.832 283.845C603.695 281.153 608.971 278.844 614.938 276.405C618.152 275.535 622.109 274.883 625.051 273.735C622.023 273.129 617.373 274.779 614.363 275.663ZM672.286 205.879C670.482 208.59 664.466 220.571 664.836 223.497C666.768 220.329 672.796 209.352 672.286 205.879ZM643.216 216.44C640.356 221.53 632.848 237.281 633.216 242.625C634.703 238.498 643.448 218.412 643.216 216.44ZM628.222 225.517C624.945 229.539 614.654 249.026 616.028 253.192C617.343 250.253 628.217 226.59 628.222 225.517ZM610.812 239.865C607.425 245.655 598.181 261.462 598.228 267.534C600.747 263.948 611.619 243.248 610.812 239.865ZM587.851 257.916C584.868 263.049 577.004 280.134 579.916 285.719C580.76 281.803 587.836 258.819 587.851 257.916ZM596.047 286.53C594.852 287.539 592.907 288.903 592.433 290.25L593.142 290.632L596.179 287.137L596.047 286.53Z" fill="url(#paint4_linear_17_13244)"/>
<path d="M393.737 231.897C392.803 218.614 382.734 203.781 378.77 191.801C386.08 202.031 394.111 219.931 395.159 232.268L393.737 231.897Z" fill="#373626"/>
<path d="M749.814 201.291C747.978 202.311 745.662 201.642 744.653 199.799C743.644 197.956 744.329 195.644 746.178 194.647C748.011 193.66 750.297 194.336 751.296 196.163C752.296 197.989 751.634 200.279 749.814 201.291Z" fill="#A3C4F3"/>
<path d="M733.49 194.808C742.198 200.292 736.898 203.963 736.263 212.572L734.786 212.685C735.868 204.994 740.378 201.026 733.316 195.64L733.49 194.808Z" fill="#261F1C"/>
<path d="M283.566 196.312C286.924 201.648 289.186 208.784 292.745 213.614C308.676 235.514 333.962 255.991 360.927 261.721C394.798 268.919 416.016 273.736 441.508 299.225C469.36 327.072 477.602 354.573 480.494 392.8C480.806 396.926 481.393 401.915 481.327 406.066L480.191 408.311C479.886 407.856 478.593 405.846 478.329 405.549C454.662 409.084 443.409 415.545 428.127 435.422C441.795 447.985 453.085 457.203 471.727 461.865L470.839 462.798C450.259 457.921 440.288 453.166 426.476 437.571C420.008 447.316 417.773 452.929 413.808 463.83C429.047 480.352 433.825 484.181 455.373 492.647C437.474 488.356 422.424 482.524 413.003 465.722C410.989 473.883 408.94 483.027 408.333 491.425C411.328 494.739 415.102 499.009 418.434 501.834C429.171 510.937 446.651 517.638 459.97 521.889L458.708 522.775C443.078 518.234 426.954 511.283 413.609 501.454C412.173 500.396 409.414 497.071 408.111 495.574C403.794 536.152 411.31 580.655 418.362 620.686C420.158 630.885 422.784 641.139 424.437 651.271C430.372 687.629 435.723 723.643 444.787 759.413C449.526 778.111 453.87 797.025 458.891 815.681C460.371 821.753 462.705 830.43 463.775 836.415L481.232 898.953C483.973 908.502 486.775 920.074 489.515 929.441C492.007 937.963 505.029 976.538 512.546 978.678L513.1 979.075C509.248 979.801 505.856 974.302 504.037 971.37C487.761 945.132 481.338 913.771 472.309 884.532C467.824 870.007 462.902 853.856 459.694 839.041C458.873 836.2 458.258 833.294 457.553 830.423C452.222 808.744 446.996 787.03 442.29 765.207C435.68 725.465 426.639 683.923 418.917 644.221C408.893 592.687 395.429 543.11 402.995 489.705C404.862 476.529 406.12 468.011 410.514 455.113C421.662 425.458 445.634 404.942 477.644 402.344C476.005 373.544 470.708 340.9 453.381 317.172C439.345 298.268 421.21 280.972 398.336 273.674C384.007 269.102 369.134 266.849 354.6 262.861C343.398 259.788 332.02 253.799 322.581 247.013C319.099 244.51 316.041 241.304 312.51 238.818C309.732 235.902 305.595 232.256 302.604 229.146C292.348 218.483 288.594 210.354 283.125 197.189L283.566 196.312Z" fill="#6C615A"/>
<path d="M577.539 204.042L579.07 203.546L579.098 208.695L578.605 209.132C577.966 207.719 577.775 205.64 577.539 204.042Z" fill="#414F2B"/>
<path d="M664.837 223.497C664.467 220.571 670.483 208.59 672.287 205.879C672.797 209.352 666.769 220.329 664.837 223.497Z" fill="#373626"/>
<path d="M757.78 213.691C755.745 214.373 753.531 213.346 752.737 211.351C751.943 209.356 752.846 207.089 754.794 206.186C756.154 205.555 757.75 205.728 758.943 206.635C760.136 207.542 760.73 209.035 760.486 210.513C760.243 211.992 759.201 213.215 757.78 213.691Z" fill="#A3C4F3"/>
<path d="M709.914 207.638C712.714 207.128 715.797 206.326 718.545 206.696C716.876 207.764 712.894 208.294 710.485 209.175L709.914 207.638Z" fill="#444331"/>
<path d="M734.79 212.685L736.267 212.572C735.803 217.372 735.124 222.39 733.103 226.819C728.03 237.939 713.79 252.672 704.767 260.333C683.175 278.666 658.082 286.029 630.851 290.748C621.5 292.368 610.681 294.202 601.905 297.906L600.926 297.352C610.904 292.202 622.478 289.867 633.369 287.937C658.578 283.471 681.59 276.079 701.873 259.685C708.17 254.596 712.245 250.491 717.609 244.612C728.044 233.174 733.103 228.189 734.79 212.685Z" fill="url(#paint5_linear_17_13244)"/>
<path d="M633.216 242.625C632.848 237.281 640.356 221.53 643.216 216.44C643.448 218.412 634.703 238.498 633.216 242.625Z" fill="#444331"/>
<path d="M701.93 223.892C703.815 223.507 704.515 223.443 706.447 223.341L706.7 224.158L707.153 223.499L707.097 223.887C704.895 224.645 704.334 224.646 701.968 224.884C702.089 224.42 702.031 224.746 701.93 223.892Z" fill="#5D6E52"/>
<path d="M412.301 222.361C417.861 231.879 421.785 243.195 425.293 253.602L424.503 254.247L423.737 253.811C420.263 245.669 414.753 230.841 412.301 222.361Z" fill="#444331"/>
<path d="M547.505 265.104L547.004 265.154C546.193 263.727 546.256 259.511 546.291 257.77C546.541 245.283 548.528 232.898 556.341 222.797C549.18 242.584 549.536 244.857 547.505 265.104Z" fill="#4E4E35"/>
<path d="M673.013 224.87L680.063 224.172L679.966 224.714C681.669 224.844 684.748 224.977 686.282 225.401C680.683 225.41 677.067 225.486 671.48 225.98L673.013 224.87Z" fill="#5D6E52"/>
<path d="M680.062 224.172C687.428 223.923 694.607 224.031 701.928 223.892C702.029 224.746 702.087 224.42 701.966 224.884C696.444 225.401 691.85 225.621 686.281 225.401C684.747 224.977 681.668 224.844 679.965 224.714L680.062 224.172Z" fill="#373626"/>
<path d="M506.641 224.72C509.482 225.035 509.137 226.188 509.632 228.928C510.458 229.29 510.041 229.271 510.882 229.007L511.987 229.001C510.079 236.573 513.616 271.05 514.056 281.53C514.696 296.773 515.54 313.816 515.472 329.385C515.446 335.571 516.334 344.374 516.055 350.322C515.609 354.288 516.847 364.268 515.16 367.012C512.937 329.992 513.078 294.216 510.077 257.45C509.362 248.69 508.518 232.917 506.641 224.72Z" fill="url(#paint6_linear_17_13244)"/>
<path d="M616.032 253.192C614.658 249.026 624.949 229.539 628.226 225.517C628.221 226.59 617.347 250.253 616.032 253.192Z" fill="#444331"/>
<path d="M486.008 289.911C486.577 283.272 485.938 274.219 484.499 267.726C482.885 260.452 474.075 235.901 478.103 229.552C479.183 236.711 480.129 242.857 482.382 249.785C485.51 259.405 490.661 280.286 486.008 289.911Z" fill="#414F2B"/>
<path d="M393.739 231.897L395.161 232.268C400.184 236.221 406.972 239.489 412.158 243.68C414.376 245.473 421.955 253.183 423.739 253.811L424.505 254.247L425.295 253.602C427.93 258.478 431.392 261.261 435.43 264.984C450.796 279.151 464.949 298.655 473.917 317.534L473.103 316.756C471.774 316.565 472.211 316.752 471.129 315.912C469.799 312.162 468.594 310.29 466.532 306.981C456.874 289.874 435.415 264.632 417.616 253.871C408.766 248.521 385.221 251.713 373.917 247.879L373.191 247.63C385.519 246.701 405.011 248.656 416.729 251.299C412.518 247.01 395.181 233.635 389.461 233.805C390.897 232.643 392.033 232.537 393.739 231.897Z" fill="#414F2B"/>
<path d="M598.231 267.534C598.184 261.462 607.428 245.655 610.815 239.865C611.622 243.248 600.75 263.948 598.231 267.534Z" fill="#4E4E35"/>
<path d="M636.438 247.355C649.776 243.152 663.779 241.493 677.701 242.603C675.907 242.791 672.498 243.048 670.871 243.457C662.657 243.627 645.412 246.067 637.143 248.217L636.438 247.355Z" fill="#4E4E35"/>
<path d="M677.701 242.603L680.001 242.441L680.231 242.854C676.535 243.574 674.691 243.78 670.871 243.457C672.498 243.048 675.907 242.791 677.701 242.603Z" fill="#DAEED7"/>
<path d="M579.917 285.719C577.005 280.134 584.869 263.049 587.852 257.916C587.837 258.819 580.761 281.803 579.917 285.719Z" fill="#444331"/>
<path d="M615.723 261.602C624.739 260.011 645.736 259.716 654.398 261.157C651.999 262.348 649.575 261.922 646.829 262.43C642.652 262.549 638.337 262.746 634.173 262.574C628.514 261.824 621.703 262.793 615.971 262.223L615.723 261.602Z" fill="#444331"/>
<path d="M654.397 261.157C656.906 261.49 659.37 261.787 661.858 262.26C656.579 262.563 652.086 262.511 646.828 262.43C649.574 261.922 651.998 262.348 654.397 261.157Z" fill="#4E4E35"/>
<path d="M614.363 275.663C617.373 274.779 622.023 273.129 625.051 273.735C622.109 274.883 618.152 275.535 614.938 276.405L614.363 275.663Z" fill="#8AA97C"/>
<path d="M597.836 283.845C601.931 279.978 609.061 277.626 614.367 275.663L614.942 276.405C608.975 278.844 603.699 281.153 597.836 283.845Z" fill="#444331"/>
<path d="M593.143 290.632L592.434 290.25C592.908 288.903 594.853 287.539 596.048 286.53L596.18 287.137L593.143 290.632Z" fill="#B9FBC0"/>
<path d="M559.583 322.681C569.705 313.68 578.483 302.816 588.947 294.24C586.996 297.922 564.128 319.327 559.986 324.111L559.438 323.573L559.583 322.681Z" fill="#414F2B"/>
<path d="M588.207 305.065C592.284 302.023 596.366 299.583 600.925 297.352L601.904 297.906L596.623 300.814C594.158 302.506 592.011 303.868 589.814 305.915L588.207 305.065Z" fill="#444331"/>
<path d="M589.813 305.915C592.01 303.868 594.157 302.506 596.622 300.814C599.154 301.979 605.5 301.484 608.88 302.177C639.744 308.576 665.549 324.931 696.222 333.754C738.413 346.522 785.647 349.947 822.685 376.164C845.471 392.293 863.705 414.017 875.867 439.441C898.172 486.068 868.085 535.504 841.355 573.087C839.508 575.683 833.335 581.551 834.869 583.977C833.818 583.751 832.872 583.295 832.048 584.105C829.544 586.566 819.733 597.089 818.354 599.43L818.059 599.5C810.075 595.164 785.782 587.604 777.043 586.206C775.006 585.673 772.031 585.2 769.894 584.791C753.328 582.749 731.545 582.56 714.943 585.78C680.513 592.457 647.608 610.589 619.934 631.701C617.246 633.752 607.469 641.901 605.099 642.187L604.675 641.626C620.77 574.08 650.564 436.068 559.523 408.111C555.55 406.891 547.152 407.3 542.797 407.48C543.438 398.544 545.688 390.122 547.759 381.496C554.774 352.262 568.095 326.98 589.813 305.915ZM857.44 492.909C857.329 498.426 856.595 500.349 861.004 504.049C861.034 511.059 855.363 519.709 858.708 523.08C860.475 523.439 861.754 523.046 863.299 522.159C865.854 516.505 867.142 513.892 868.08 507.86C860.829 498.765 866.693 501.022 864.486 495.437C862.735 493.314 860.053 492.97 857.44 492.909ZM846.375 513.976C842.583 516.667 842.425 521.678 846.759 523.318L848.129 523.158C850.662 520.839 853.044 519.108 851.149 515.512C849.258 514.118 848.786 514.15 846.375 513.976ZM751.091 540.913C747.571 545.844 750.266 548.25 755.612 548.298C756.849 546.416 757.296 546.063 757.412 543.92C756.051 540.988 754.065 541.004 751.091 540.913ZM787.971 546.265C785.865 548.398 784.563 550.033 786.811 552.651C788.044 553.081 787.888 553.105 789.153 553.25C790.69 551.495 791.297 551.067 791.958 548.914C791.629 547.042 792.068 547.806 790.523 546.588L787.971 546.265ZM780.947 555.118C780.019 555.258 779.252 555.913 778.966 556.807C778.681 557.701 778.928 558.68 779.603 559.332C780.278 559.984 781.265 560.196 782.148 559.88C783.344 559.452 784.02 558.186 783.709 556.954C783.399 555.722 782.203 554.927 780.947 555.118ZM799.341 569.865C797.713 571.599 797.801 571.017 797.33 573.043C798.36 574.905 799.002 574.974 801.179 575.315C802.631 573.873 802.797 573.815 803.32 571.913C802.855 570.389 803.275 571.051 801.799 570.023L799.341 569.865ZM783.937 574.915C780.914 576.131 776.728 577.188 777.604 581.278C779.122 582.666 780.337 583.341 782.412 583.498C786.047 582.546 789.409 580.376 788.328 576.144C786.832 574.661 785.995 574.676 783.937 574.915Z" fill="#CFBAF0"/>
<path d="M541.931 412.182C538.421 408.604 539.512 401.403 540.11 396.787C544.075 366.208 563.962 324.105 588.204 305.065L589.811 305.915C568.093 326.98 554.772 352.262 547.757 381.496C545.686 390.122 543.436 398.544 542.795 407.48C547.15 407.3 555.548 406.891 559.521 408.111C650.562 436.068 620.768 574.08 604.673 641.626C599.95 662.242 595.759 682.961 591.072 703.559C588.506 714.839 585.033 726.63 582.197 737.957L574.608 779.855C572.207 793.361 569.962 807.411 567.143 820.807C557.331 864.474 548.939 903.864 532.139 945.642L531.32 944.071C537.434 922.042 544.497 899.537 549.459 877.284C559.044 834.296 566.632 788.925 577.643 746.443C580.553 737.312 583.088 721.178 585.275 711.429C589.498 692.609 593.529 673.669 597.757 654.84C598.076 654.054 598.526 651.21 598.707 650.211C605.789 619.03 611.164 587.08 616.135 555.468C617.091 549.39 620.146 515.511 616.527 512.708L616.19 512.468L616.699 511.959C617.746 508.807 612.11 479.88 611.096 474.357C605.42 480.009 601.092 483.886 593.995 487.614C591.691 488.637 580.839 493.403 578.919 492.792C586.27 489.88 588.703 488.405 595.022 483.551C600.55 479.142 605.233 475.176 610.084 470.033C607.108 461.429 604.76 454.146 600.584 446.018C595.716 452.441 593.567 454.55 586.871 458.996C578.522 463.463 571.657 466.439 562.502 469.159L562.465 467.63C570.337 464.819 577.421 461.407 584.438 456.886C590.745 452.545 594.292 449.155 598.991 443.095C595.185 436.43 589.808 430.621 584.51 425.129C583.91 424.436 583.112 423.852 582.392 423.258L582.006 423.018C571.242 416.314 556.584 408.717 543.26 411.807L541.931 412.182Z" fill="url(#paint7_linear_17_13244)"/>
<path d="M466.53 306.981C468.592 310.29 469.797 312.162 471.127 315.912C469.315 313.771 467.338 310.209 465.844 307.71L466.53 306.981Z" fill="#8AA97C"/>
<path d="M478.327 405.549C478.591 405.846 479.884 407.856 480.189 408.311C492.786 420.469 523.578 419.075 539.415 414.72C541.625 413.671 541.73 413.648 543.261 411.807C556.585 408.717 571.243 416.314 582.007 423.018L582.393 423.258C577.354 431.176 574.75 434.353 567.711 440.59C577.322 448.314 576.231 446.111 584.439 456.886C577.422 461.407 570.338 464.819 562.466 467.63C560.603 468.267 549.859 471.543 549.192 471.933C553.024 471.874 558.679 470.189 562.503 469.159C571.658 466.439 578.523 463.463 586.872 458.996C589.772 462.449 593.919 478.494 595.023 483.551C588.704 488.405 586.271 489.88 578.92 492.792C580.84 493.403 591.692 488.637 593.996 487.614C595.002 494.13 595.74 499.89 596.318 506.422C596.635 510.007 597.163 519.076 597.9 522.168C588.251 526.911 579.135 530.806 568.663 533.397C566.356 533.968 563.451 534.538 561.242 535.211C554.279 534.771 552.175 547.777 551.892 552.983C539.988 555.2 531.348 556.815 519.206 557.33C529.943 559.414 541.338 558.683 551.844 555.675C550.476 567.246 542.269 601.743 543.685 610.577L541.872 610.868C537.79 610.794 535.613 610.893 531.548 611.304C534.102 612.259 539.599 612.001 542.4 611.925C542.085 615.213 541.253 622.064 541.301 625.197C530.288 626.224 515.467 626.406 504.444 625.351C515.508 631.284 528.645 629.805 540.621 627.635C540.731 635.26 539.068 644.508 538.357 652.238C537.209 664.73 535.941 677.334 534.912 689.835C534.415 695.878 533.05 704.442 532.848 710.155C532.104 712.142 532.165 715.017 531.864 716.594C529.995 726.395 523.559 810.417 520.362 813.606L519.86 812.258C517.931 811.91 501.648 818.869 498.333 819.316C493.635 818.101 467.746 810.657 465.493 811.288C467.606 815.891 489.01 819.286 494.216 819.898L495.09 820.064C496.423 820.306 497.083 820.279 498.435 820.282C496.564 820.727 491.691 820.472 489.694 820.227C481.99 829.823 468.861 830.27 463.773 836.415C462.703 830.43 460.369 821.753 458.889 815.681C453.868 797.025 449.524 778.111 444.785 759.413C435.721 723.643 430.37 687.629 424.435 651.271C422.782 641.139 420.156 630.885 418.36 620.686C411.308 580.655 403.792 536.152 408.109 495.574C409.412 497.071 412.171 500.396 413.607 501.454C426.952 511.283 443.076 518.234 458.706 522.775C461.054 523.33 463.094 523.731 465.455 524.159L465.655 523.84L466.464 524.228C464.295 523.492 462.509 522.635 459.968 521.889C446.649 517.638 429.169 510.937 418.432 501.834C415.1 499.009 411.326 494.739 408.331 491.425C408.938 483.027 410.987 473.883 413.001 465.722C422.422 482.524 437.472 488.356 455.371 492.647C433.823 484.181 429.045 480.352 413.806 463.83C417.771 452.929 420.006 447.316 426.474 437.571C440.286 453.166 450.257 457.921 470.837 462.798C473.451 463.186 474.6 463.432 477.278 463.299C476.129 462.527 473.265 462.168 471.725 461.865C453.083 457.203 441.793 447.985 428.125 435.422C443.407 415.545 454.66 409.084 478.327 405.549ZM533.199 501.025C513.777 500.048 496.933 500.975 477.862 494.945C492.187 504.101 517.462 505.961 533.513 502.474L534.363 502.281L537.209 502.047C540.664 501.608 542.814 501.223 546.208 500.44C543.619 500.438 540.693 500.238 538.264 500.943L533.199 501.025ZM466.842 568.229C453.858 565.425 441.113 562.469 428.553 558.084C426.377 557.324 418.719 553.894 417.208 553.789C430.512 563.124 451.161 567.906 467.036 569.193C468.618 569.424 469.67 569.724 471.216 569.316C469.95 568.362 468.478 568.415 466.842 568.229ZM484.762 668.97C464.047 664.313 455.127 657.486 436.196 649.664C447.785 660.632 465.401 668.115 481.227 669.7C483.549 669.918 487.263 670.444 489.33 669.684C487.592 669.309 486.534 669.166 484.762 668.97ZM511.854 722.044C498.185 722.468 476.22 717.248 463.965 711.826C458.466 709.393 452.996 706.4 447.589 703.892C462.999 721.181 490.002 725.356 511.973 722.702C513.614 722.67 515.194 722.854 516.558 722.066C515.151 721.413 513.486 721.851 511.854 722.044ZM464.698 429.447C487.528 445.103 518.378 451.032 543.731 437.958L545.55 436.874L545.127 436.663C524.661 443.525 500.907 441.878 480.327 435.792C477.2 434.867 466.039 429.604 464.698 429.447ZM451.17 583.886C458.229 587.886 472.067 592.711 479.786 594.482C487.276 596.201 506.954 597.91 514.144 595.88L513.716 595.818C503.188 594.378 496.007 594.809 484.326 592.531C472.669 590.257 461.414 585.985 451.17 583.886ZM437.4 627.402C447.209 643.237 468.587 647.065 485.925 645.83C472.157 643.473 460.231 641.469 447.645 634.597C444.81 633.05 439.848 628.369 437.4 627.402ZM469.428 691.943C484.19 701.225 496.074 705.022 513.551 702.188C503.797 701.088 497.135 700.044 487.493 697.419C484.223 696.529 471.478 692.171 469.428 691.943ZM452.861 731.312C466.14 743.998 478.267 745.795 496.14 744.357C494.43 742.998 487.162 742.61 483.693 741.849C476.719 740.319 468.447 738.64 461.837 735.624C459.014 734.336 455.357 732.074 452.861 731.312ZM469.368 758.762C479.302 769.373 502.926 776.299 517.211 774.092C509.798 771.549 499.655 769.512 491.644 766.937C486.754 765.365 472.207 759.32 469.368 758.762ZM456.236 787.983C465.066 794.623 472.107 798.903 483.683 795.311L483.536 794.667C476.062 794.449 472.163 793.65 465.184 790.899C462.606 789.883 458.828 788.431 456.236 787.983Z" fill="url(#paint8_linear_17_13244)"/>
<path d="M480.191 408.311L481.327 406.066C481.531 407.267 481.526 408.566 482.932 409.177C495.181 414.493 515.844 415.694 528.175 415.017L529.034 414.878C530.966 414.783 535.351 413.936 537.455 413.582L539.417 414.72C523.58 419.075 492.788 420.469 480.191 408.311Z" fill="url(#paint9_linear_17_13244)"/>
<path d="M541.932 412.182L543.261 411.807C541.73 413.648 541.625 413.671 539.415 414.72L537.453 413.582C539.323 413.254 540.338 413.234 541.932 412.182Z" fill="#4E4E35"/>
<path d="M582.393 423.258C583.113 423.852 583.911 424.436 584.511 425.129C580.47 431.32 574.84 437.908 567.711 440.59C574.75 434.353 577.354 431.176 582.393 423.258Z" fill="#6C615A"/>
<path d="M567.711 440.59C574.84 437.908 580.47 431.32 584.511 425.129C589.809 430.621 595.186 436.43 598.992 443.095C594.293 449.155 590.746 452.545 584.439 456.886C576.231 446.111 577.322 448.314 567.711 440.59Z" fill="#F1C0E8"/>
<path d="M905.17 439.617C897.322 439.599 893.703 434.112 900.388 427.921C908.321 428.032 912.966 434.848 905.17 439.617Z" fill="#A3C4F3"/>
<path d="M543.732 437.958C518.379 451.032 487.529 445.103 464.699 429.447C466.04 429.604 477.201 434.867 480.328 435.792C500.908 441.878 524.662 443.525 545.128 436.663L545.551 436.874L543.732 437.958Z" fill="url(#paint10_linear_17_13244)"/>
<path d="M586.871 458.996C593.567 454.55 595.716 452.441 600.584 446.018C604.76 454.146 607.108 461.429 610.084 470.033C605.233 475.176 600.55 479.142 595.022 483.551C593.918 478.494 589.771 462.449 586.871 458.996Z" fill="#F1C0E8"/>
<path d="M144.988 626.617C152.562 599.408 166.383 576.963 184.225 554.837C233.101 494.226 310.128 461.388 386.577 455.258C392.595 454.775 405.2 452.863 410.512 455.113C406.118 468.011 404.86 476.529 402.993 489.705C395.427 543.11 408.891 592.687 418.915 644.221C426.637 683.923 435.678 725.465 442.288 765.207C418.874 761.84 394.401 760.214 370.444 756.549C302.681 746.18 243.457 725.93 191.976 679.024C180.99 668.614 170.528 657.789 160.534 646.437C155.5 640.717 150.263 631.888 144.99 626.879L144.988 626.617Z" fill="#98F5E1"/>
<path d="M471.728 461.865C473.268 462.168 476.132 462.527 477.281 463.299C474.603 463.432 473.454 463.186 470.84 462.798L471.728 461.865Z" fill="#6A6463"/>
<path d="M966.308 477.295C964.219 477.915 961.957 477.361 960.392 475.844C958.826 474.328 958.199 472.086 958.752 469.977C959.305 467.869 960.951 466.222 963.06 465.669C966.248 464.833 969.517 466.709 970.404 469.884C971.291 473.058 969.468 476.357 966.308 477.295Z" fill="#A3C4F3"/>
<path d="M562.502 469.159C558.678 470.189 553.023 471.874 549.191 471.933C549.858 471.543 560.602 468.267 562.465 467.63L562.502 469.159Z" fill="#6C615A"/>
<path d="M893.953 482.115C891.563 481.002 889.612 479.053 889.661 476.287C890.599 474.607 890.358 475.111 892.31 474.022C898.36 474.725 898.022 478.737 893.953 482.115Z" fill="#A3C4F3"/>
<path d="M593.996 487.614C601.093 483.886 605.421 480.009 611.097 474.357C612.111 479.88 617.747 508.807 616.7 511.959L616.191 512.468C610.083 515.296 604.2 519.152 597.9 522.168C597.163 519.076 596.635 510.007 596.318 506.422C595.74 499.89 595.002 494.13 593.996 487.614Z" fill="#F1C0E8"/>
<path d="M934.167 483.795C933.177 484.293 931.99 484.196 931.094 483.542C930.198 482.889 929.743 481.789 929.915 480.694C930.086 479.598 930.856 478.691 931.909 478.343C933.38 477.856 934.978 478.588 935.571 480.02C936.164 481.451 935.551 483.098 934.167 483.795Z" fill="#A3C4F3"/>
<path d="M902.554 518.915C882.472 520.743 881.062 499.902 897.635 492.607C915.748 491.116 921.171 514.302 902.554 518.915Z" fill="#A3C4F3"/>
<path d="M863.3 522.159C861.755 523.046 860.476 523.439 858.709 523.08C855.364 519.709 861.035 511.059 861.005 504.049C856.596 500.349 857.33 498.426 857.441 492.909C860.054 492.97 862.736 493.314 864.487 495.437C866.694 501.022 860.83 498.765 868.081 507.86C867.143 513.892 865.855 516.505 863.3 522.159Z" fill="#A3C4F3"/>
<path d="M477.863 494.945C496.934 500.975 513.778 500.048 533.2 501.025L533.418 502.141L534.364 502.281L533.514 502.474C517.463 505.961 492.188 504.101 477.863 494.945Z" fill="url(#paint11_linear_17_13244)"/>
<path d="M538.266 500.943C540.695 500.238 543.621 500.438 546.21 500.44C542.816 501.223 540.666 501.608 537.211 502.047L538.266 500.943Z" fill="#838182"/>
<path d="M533.199 501.025L538.264 500.943L537.209 502.047L534.363 502.281L533.417 502.141L533.199 501.025Z" fill="#543F38"/>
<path d="M597.9 522.168C604.2 519.152 610.083 515.296 616.191 512.468L616.528 512.708L615.663 513.814C613.544 514.81 611.669 516.129 609.833 517.515C601.009 524.173 571.936 536.826 561.242 535.211C563.451 534.538 566.356 533.968 568.663 533.397C579.135 530.806 588.251 526.911 597.9 522.168Z" fill="#543F38"/>
<path d="M616.528 512.708C620.147 515.511 617.092 549.39 616.136 555.468C611.165 587.08 605.79 619.03 598.708 650.211C597.742 650.578 597.32 650.535 596.292 650.465C594.846 651.104 592.27 653.271 591.272 654.415C586.627 659.736 568.868 671.931 568.263 678.771C558.265 683.963 551.723 687.204 540.619 690.104C550.831 689.341 556.658 688.082 566.232 684.148C571.132 684.673 576.395 677.613 579.422 679.091C579.89 680.445 578.041 693.282 577.731 695.085L578.251 695.101C582.27 691.798 579.487 677.316 581.763 672.363C582.378 671.023 590.266 668.741 592.226 668.145C590.744 679.418 573.017 738.807 577.112 746.051L577.644 746.443C566.633 788.925 559.045 834.296 549.46 877.284C544.498 899.537 537.435 922.042 531.321 944.071C527.489 955.035 522.553 972.01 512.544 978.678C505.027 976.538 492.005 937.963 489.513 929.441C486.773 920.074 483.971 908.502 481.23 898.953L463.773 836.415C468.861 830.27 481.99 829.823 489.694 820.227C491.691 820.472 496.564 820.727 498.435 820.282C497.083 820.279 496.423 820.306 495.09 820.064L494.216 819.898L498.333 819.316C501.648 818.869 517.931 811.91 519.86 812.258L520.362 813.606C523.559 810.417 529.995 726.395 531.864 716.594C532.165 715.017 532.104 712.142 532.848 710.155C536.634 702.661 538.511 642.211 541.825 628.522C546.197 626.69 563.743 625.13 564.675 620.819C563.551 620.356 561.431 621.091 559.985 621.402L559.528 621.057C560.251 618.028 561.679 612.686 562.77 609.802C564.296 608.666 570.294 607.029 572.011 606.508C577.18 604.939 602.894 593.97 603.599 588.61L603.056 588.173C601.606 588.606 601.924 588.532 600.577 589.336C599.075 590.802 597.005 592.223 595.263 593.74C587.415 597.881 577.655 601.792 569.165 604.658C567.153 593.58 598.602 549.015 601.969 536.26C602.991 532.389 602.531 526.934 602.499 522.855C605.378 521.775 614.729 516.286 615.663 513.814L616.528 512.708ZM546.974 705.243C545.724 705.498 544.633 705.445 544.022 706.206C545.687 706.576 545.758 706.589 547.462 706.573C559.02 706.549 572.402 703.625 582.033 697.112C570.417 698.497 558.135 701.698 546.974 705.243ZM514.987 827.018C510.28 826.829 507.833 826.798 503.177 827.231C506.102 827.593 510.322 827.982 513.012 828.772C530.626 833.457 539.51 832.642 555.932 825.31C539.239 827.12 531.729 828.139 514.987 827.018ZM568.833 731.715C561.487 732.065 552.072 732.171 545.055 733.9C547.978 734.428 550.93 735.025 553.88 735.325C563.757 735.953 566.449 735.746 575.702 731.909C573.729 731.821 570.721 731.594 568.833 731.715ZM556.944 805.714C547.604 806.444 537.304 808.172 528.432 808.723C530.501 809.336 532.776 810.093 534.882 810.451C540.373 810.763 556.482 810.351 560.286 806.174C559.467 805.309 559.952 805.633 558.682 805.412L558.826 806.155L558.593 806.216L557.773 805.481L556.944 805.714ZM472.749 851.838C488.039 862.387 508.848 864.14 526.409 858.947L526.929 858.21C524.557 857.917 520.464 858.84 517.903 858.993C505.868 859.713 494.267 858.211 482.723 854.803C479.688 853.907 475.741 852.472 472.749 851.838ZM535.563 885.224C523.267 885.829 512.835 887.697 500.85 885.014C504.503 886.499 507.131 887.453 510.893 888.611C518.696 890.558 533.739 891.361 540.432 886.404L540.443 885.675C538.609 884.941 537.597 885.155 535.563 885.224ZM482.302 897.478C491.335 904.028 498.771 905.958 509.775 904.227L509.255 903.633C497.414 902.865 490.853 898.526 482.302 897.478ZM523.821 924.16C519.473 924.957 513.323 925.915 509.141 926.961C513.557 927.88 515.677 928.376 520.283 928.034C525.87 927.238 528.05 927.174 533.011 924.35L533.77 923.923C530.663 923.988 526.865 923.963 523.821 924.16Z" fill="#FFCFD2"/>
<path d="M561.244 535.211C571.938 536.826 601.011 524.173 609.835 517.515C611.671 516.129 613.546 514.81 615.665 513.814C614.731 516.286 605.38 521.775 602.501 522.855C602.533 526.934 602.993 532.389 601.971 536.26C598.604 549.015 567.155 593.58 569.167 604.658C562.859 606.718 550.323 610.23 543.687 610.577C542.271 601.743 550.478 567.246 551.846 555.675C560.718 553.975 570.568 549.935 579.065 546.69C581.333 545.784 582.216 545.567 584.106 544.106C582.619 544.005 580.384 545.223 578.916 545.868C571.38 548.631 559.895 551.625 551.894 552.983C552.177 547.777 554.281 534.771 561.244 535.211Z" fill="url(#paint12_linear_17_13244)"/>
<path d="M848.129 523.158L846.759 523.318C842.425 521.678 842.583 516.667 846.375 513.976C848.786 514.15 849.258 514.118 851.149 515.512C853.044 519.108 850.662 520.839 848.129 523.158Z" fill="#A3C4F3"/>
<path d="M947.823 524.689C947.108 525.122 946.212 525.128 945.49 524.704C944.769 524.28 944.338 523.495 944.369 522.658C944.399 521.822 944.886 521.07 945.637 520.7C946.73 520.161 948.054 520.579 948.64 521.648C949.226 522.716 948.866 524.057 947.823 524.689Z" fill="#A3C4F3"/>
<path d="M459.969 521.889C462.51 522.635 464.296 523.492 466.465 524.228L465.656 523.84L465.456 524.159C463.095 523.731 461.055 523.33 458.707 522.775L459.969 521.889Z" fill="#6A6463"/>
<path d="M929.622 552.924C916.208 554.387 911.455 543.55 917.81 532.261C919.862 528.617 923.566 527.368 927.544 526.622C946.654 526.909 947.473 548.203 929.622 552.924Z" fill="#A3C4F3"/>
<path d="M966.633 539.857C964.987 540.653 963.039 540.491 961.548 539.434C960.056 538.376 959.259 536.591 959.466 534.775C959.673 532.959 960.852 531.399 962.543 530.705C965.05 529.676 967.921 530.824 969.026 533.298C970.131 535.772 969.071 538.676 966.633 539.857Z" fill="#A3C4F3"/>
<path d="M898.987 542.739C895.436 543.253 893.94 542.524 893.812 538.706L895.033 537.476C897.532 537.307 899.755 536.95 900.829 539.544C900.35 541.4 900.23 541.362 898.987 542.739Z" fill="#A3C4F3"/>
<path d="M755.613 548.298C750.267 548.25 747.572 545.844 751.092 540.913C754.066 541.004 756.052 540.988 757.413 543.92C757.297 546.063 756.85 546.416 755.613 548.298Z" fill="#A3C4F3"/>
<path d="M578.914 545.868C580.382 545.223 582.617 544.005 584.104 544.106C582.214 545.567 581.331 545.784 579.063 546.69L578.914 545.868Z" fill="#AF80A5"/>
<path d="M551.893 552.983C559.894 551.625 571.379 548.631 578.915 545.868L579.064 546.69C570.567 549.935 560.717 553.975 551.845 555.675C541.339 558.683 529.944 559.414 519.207 557.33C531.349 556.815 539.989 555.2 551.893 552.983Z" fill="url(#paint13_linear_17_13244)"/>
<path d="M789.151 553.25C787.886 553.105 788.042 553.081 786.809 552.651C784.561 550.033 785.863 548.398 787.969 546.265L790.521 546.588C792.066 547.806 791.627 547.042 791.956 548.914C791.295 551.067 790.688 551.495 789.151 553.25Z" fill="#A3C4F3"/>
<path d="M467.039 569.193C451.164 567.906 430.515 563.124 417.211 553.789C418.722 553.894 426.38 557.324 428.556 558.084C441.116 562.469 453.861 565.425 466.845 568.229L467.039 569.193Z" fill="url(#paint14_linear_17_13244)"/>
<path d="M782.146 559.88C781.263 560.196 780.276 559.984 779.601 559.332C778.926 558.68 778.679 557.701 778.964 556.807C779.25 555.913 780.017 555.258 780.945 555.118C782.201 554.927 783.397 555.722 783.707 556.954C784.018 558.186 783.342 559.452 782.146 559.88Z" fill="#A3C4F3"/>
<path d="M466.844 568.229C468.48 568.415 469.952 568.362 471.218 569.316C469.672 569.724 468.62 569.424 467.038 569.193L466.844 568.229Z" fill="#838182"/>
<path d="M801.177 575.315C799 574.974 798.358 574.905 797.328 573.043C797.799 571.017 797.711 571.599 799.339 569.865L801.797 570.023C803.273 571.051 802.853 570.389 803.318 571.913C802.795 573.815 802.629 573.873 801.177 575.315Z" fill="#A3C4F3"/>
<path d="M903.043 576.866C901.887 577.427 900.495 576.94 899.941 575.78C899.388 574.621 899.885 573.232 901.048 572.687C902.2 572.146 903.572 572.637 904.12 573.786C904.669 574.934 904.187 576.31 903.043 576.866Z" fill="#A3C4F3"/>
<path d="M782.41 583.498C780.335 583.341 779.12 582.666 777.602 581.278C776.726 577.188 780.912 576.131 783.935 574.915C785.993 574.676 786.83 574.661 788.326 576.144C789.407 580.376 786.045 582.546 782.41 583.498Z" fill="#A3C4F3"/>
<path d="M849.079 583.71C847.536 582.582 847.201 580.145 846.711 578.227L848.17 579.21C849.205 580.896 849.037 581.734 849.079 583.71Z" fill="#FEFDFC"/>
<path d="M604.675 641.626L605.099 642.187C607.469 641.901 617.246 633.752 619.934 631.701C647.608 610.589 680.513 592.457 714.943 585.78C731.545 582.56 753.328 582.749 769.894 584.791C768.647 590.023 774.464 593.658 778.227 596.791L784.267 592.824C782.518 591.299 777.997 587.803 777.043 586.206C785.782 587.604 810.075 595.164 818.059 599.5C767.315 655.22 660.458 739.637 582.199 737.957C585.035 726.63 588.508 714.839 591.074 703.559C595.761 682.961 599.952 662.242 604.675 641.626ZM784.9 600.734C784.063 601.382 783.89 602.576 784.508 603.435C785.127 604.294 786.314 604.508 787.194 603.92C787.791 603.521 788.122 602.828 788.059 602.113C787.995 601.398 787.546 600.775 786.888 600.487C786.23 600.2 785.468 600.295 784.9 600.734ZM691.678 611.716C690.469 612.233 689.637 613.366 689.506 614.675C689.376 615.983 689.967 617.259 691.05 618.005C692.134 618.75 693.537 618.847 694.712 618.258C696.455 617.384 697.189 615.284 696.368 613.516C695.548 611.747 693.471 610.95 691.678 611.716ZM727.531 626.38C725.953 626.977 725.163 628.746 725.771 630.32C726.379 631.894 728.153 632.672 729.723 632.053C731.278 631.44 732.046 629.687 731.444 628.128C730.842 626.569 729.094 625.789 727.531 626.38ZM720.832 654.924C719.922 655.553 719.451 656.646 719.617 657.74C719.784 658.834 720.559 659.737 721.615 660.067C722.671 660.397 723.823 660.096 724.582 659.291C725.599 658.214 725.639 656.543 724.674 655.419C723.709 654.295 722.051 654.082 720.832 654.924Z" fill="#FFCFD2"/>
<path d="M514.146 595.88C506.956 597.91 487.278 596.201 479.788 594.482C472.069 592.711 458.231 587.886 451.172 583.886C461.416 585.985 472.671 590.257 484.328 592.531C496.009 594.809 503.19 594.378 513.718 595.818L514.146 595.88Z" fill="#6C615A"/>
<path d="M769.895 584.791C772.032 585.2 775.007 585.673 777.044 586.206C777.998 587.803 782.519 591.299 784.268 592.824L778.228 596.791C774.465 593.658 768.648 590.023 769.895 584.791Z" fill="#A3C4F3"/>
<path d="M845.4 593.155C843.14 592.878 838.669 587.736 836.789 585.831C840.038 586.709 843.304 590.534 845.4 593.155Z" fill="#FEFDFC"/>
<path d="M877.077 609.446C862.187 610.809 857.166 594.87 871.992 588.064C888.302 586.741 891.01 603.14 877.077 609.446Z" fill="#A3C4F3"/>
<path d="M600.577 589.336C601.924 588.532 601.606 588.606 603.056 588.173L603.599 588.61C602.894 593.97 577.18 604.939 572.011 606.508C570.294 607.029 564.296 608.666 562.77 609.802C561.679 612.686 560.251 618.028 559.528 621.057L559.985 621.402C561.431 621.091 563.551 620.356 564.675 620.819C563.743 625.13 546.197 626.69 541.825 628.522C538.511 642.211 536.634 702.661 532.848 710.155C533.05 704.442 534.415 695.878 534.912 689.835C535.941 677.334 537.209 664.73 538.357 652.238C539.068 644.508 540.731 635.26 540.621 627.635L556.609 624.307C558.79 623.634 559.597 623.464 561.54 622.348C559.786 622.151 558.068 622.829 556.259 623.298C551.288 623.986 546.295 624.73 541.301 625.197C541.253 622.064 542.085 615.213 542.4 611.925L542.356 611.503C558.314 612.286 582.011 602.082 595.539 594.506C597.469 593.348 601.07 591.542 602.098 589.803L600.577 589.336Z" fill="#F1C0E8"/>
<path d="M595.266 593.74C597.008 592.223 599.078 590.802 600.58 589.336L602.101 589.803C601.073 591.542 597.472 593.348 595.542 594.506L595.266 593.74Z" fill="#AF80A5"/>
<path d="M569.164 604.658C577.654 601.792 587.414 597.881 595.262 593.74L595.538 594.506C582.01 602.082 558.313 612.286 542.355 611.503L541.871 610.868L543.684 610.577C550.32 610.23 562.856 606.718 569.164 604.658Z" fill="#543F38"/>
<path d="M818.059 599.5L818.354 599.43C841.266 608.664 865.647 632.125 880.08 651.908C894.229 671.302 902.2 692.859 908.57 715.478C919.873 755.613 915.509 792.995 899.161 831.004C880.172 877.868 844.267 916.244 797.19 935.569C756.378 952.321 710.744 950.331 670.304 933.669C625.106 915.046 600.547 887.163 579.068 844.268C576.618 839.374 570.308 823.722 567.145 820.807C569.964 807.411 572.208 793.361 574.609 779.855L582.198 737.957C660.457 739.637 767.315 655.22 818.059 599.5ZM812.291 611.151C810.448 611.82 809.502 613.863 810.185 615.701C810.867 617.54 812.916 618.471 814.75 617.776C816.565 617.087 817.485 615.063 816.81 613.243C816.134 611.422 814.116 610.488 812.291 611.151ZM806.596 632.14C803.416 632.725 799.187 634.448 799.585 638.365C799.946 641.921 803.604 642.542 806.341 643.375C815.126 642.406 814.451 633.068 806.596 632.14ZM819.793 658.922C818.332 659.646 817.383 661.11 817.318 662.738C817.253 664.367 818.083 665.901 819.481 666.739C820.879 667.577 822.623 667.584 824.029 666.759C826.099 665.544 826.834 662.908 825.693 660.796C824.552 658.685 821.943 657.856 819.793 658.922ZM788.635 670.861C787.853 671.423 787.436 672.363 787.543 673.321C787.649 674.278 788.262 675.103 789.148 675.48C790.035 675.858 791.056 675.728 791.82 675.141C792.975 674.253 793.204 672.603 792.335 671.434C791.465 670.265 789.817 670.01 788.635 670.861ZM810.051 699.796C808.412 700.493 807.59 702.339 808.169 704.024C808.748 705.708 810.532 706.658 812.253 706.2C813.481 705.874 814.423 704.889 814.695 703.648C814.968 702.407 814.525 701.117 813.547 700.306C812.569 699.495 811.22 699.298 810.051 699.796ZM848.641 707.231C847.43 707.702 846.814 709.052 847.253 710.276C847.691 711.5 849.023 712.152 850.258 711.746C851.087 711.474 851.704 710.774 851.867 709.916C852.031 709.059 851.717 708.181 851.046 707.623C850.376 707.064 849.455 706.914 848.641 707.231Z" fill="#FED6A5"/>
<path d="M787.193 603.92C786.313 604.508 785.126 604.294 784.507 603.435C783.889 602.576 784.062 601.382 784.899 600.734C785.467 600.295 786.229 600.2 786.887 600.487C787.545 600.775 787.994 601.398 788.058 602.113C788.121 602.828 787.79 603.521 787.193 603.92Z" fill="#A3C4F3"/>
<path d="M542.403 611.925C539.602 612.001 534.105 612.259 531.551 611.304C535.616 610.893 537.793 610.794 541.875 610.868L542.359 611.503L542.403 611.925Z" fill="#BEBFC1"/>
<path d="M814.752 617.776C812.918 618.471 810.869 617.54 810.187 615.701C809.504 613.863 810.45 611.82 812.293 611.151C814.118 610.488 816.136 611.422 816.812 613.243C817.487 615.063 816.567 617.087 814.752 617.776Z" fill="#CFBAF0"/>
<path d="M694.712 618.258C693.537 618.847 692.134 618.75 691.05 618.005C689.967 617.259 689.376 615.983 689.506 614.675C689.637 613.366 690.469 612.233 691.678 611.716C693.471 610.95 695.548 611.747 696.368 613.516C697.189 615.284 696.455 617.384 694.712 618.258Z" fill="#A3C4F3"/>
<path d="M556.262 623.298C558.071 622.829 559.789 622.151 561.543 622.348C559.6 623.464 558.793 623.634 556.612 624.307L556.262 623.298Z" fill="#74606A"/>
<path d="M541.302 625.197C546.296 624.73 551.289 623.986 556.26 623.298L556.61 624.307L540.622 627.635C528.646 629.805 515.509 631.284 504.445 625.351C515.468 626.406 530.289 626.224 541.302 625.197Z" fill="url(#paint15_linear_17_13244)"/>
<path d="M887.036 634.134C879.44 634.247 878.998 625.919 886.259 624.045C893.447 625.159 892.866 630.872 887.036 634.134Z" fill="#A3C4F3"/>
<path d="M729.724 632.053C728.154 632.672 726.379 631.894 725.771 630.32C725.163 628.746 725.953 626.977 727.531 626.38C729.094 625.789 730.842 626.569 731.444 628.128C732.046 629.687 731.279 631.44 729.724 632.053Z" fill="#A3C4F3"/>
<path d="M459.693 839.041C452.923 840.052 432.59 851.34 425.801 854.849L377.9 880.017C355.808 891.617 322.618 906.631 298.135 909.429C246.266 914.128 219.547 876.988 192.807 841.225C144.728 776.919 119.49 706.876 144.991 626.879C150.264 631.888 155.501 640.717 160.535 646.437C170.529 657.789 180.991 668.614 191.977 679.024C243.458 725.93 302.682 746.18 370.445 756.549C394.402 760.214 418.875 761.84 442.289 765.207C446.995 787.03 452.221 808.744 457.552 830.423C458.257 833.294 458.872 836.2 459.693 839.041Z" fill="#DAEED7"/>
<path d="M485.927 645.83C468.589 647.065 447.211 643.237 437.402 627.402C439.85 628.369 444.812 633.05 447.647 634.597C460.233 641.469 472.159 643.473 485.927 645.83Z" fill="#6C615A"/>
<path d="M928.076 638.071C926.124 638.899 926.082 638.817 924.352 637.872C922.572 635.119 923.876 632.507 925.666 630.238C931.464 630.417 932.278 634.295 928.076 638.071Z" fill="#A3C4F3"/>
<path d="M806.341 643.375C803.604 642.542 799.946 641.921 799.585 638.365C799.187 634.448 803.417 632.725 806.597 632.14C814.452 633.068 815.126 642.406 806.341 643.375Z" fill="#CFBAF0"/>
<path d="M436.195 649.664C455.126 657.486 464.046 664.313 484.761 668.97L481.226 669.7C465.4 668.115 447.784 660.632 436.195 649.664Z" fill="#6C615A"/>
<path d="M568.265 678.771C568.87 671.931 586.629 659.736 591.274 654.415C592.272 653.271 594.848 651.104 596.294 650.465C597.322 650.535 597.744 650.578 598.71 650.211C598.529 651.21 598.079 654.054 597.76 654.84L597.215 654.175C594.611 656.626 595.322 665.343 592.228 668.145C590.268 668.741 582.38 671.023 581.765 672.363C579.489 677.316 582.272 691.798 578.253 695.101L577.733 695.085C578.043 693.282 579.892 680.445 579.424 679.091C576.397 677.613 571.134 684.673 566.234 684.148C569.534 682.437 578.35 678.104 579.573 674.73C577.249 674.011 570.796 677.567 568.265 678.771Z" fill="#FED6A5"/>
<path d="M592.226 668.145C595.32 665.343 594.609 656.626 597.213 654.175L597.758 654.84C593.53 673.669 589.499 692.609 585.276 711.429C583.089 721.178 580.554 737.312 577.644 746.443L577.112 746.051C573.017 738.807 590.744 679.418 592.226 668.145Z" fill="#FEFDFC"/>
<path d="M724.584 659.291C723.825 660.096 722.673 660.397 721.617 660.067C720.561 659.737 719.786 658.834 719.619 657.74C719.453 656.646 719.924 655.553 720.834 654.924C722.053 654.082 723.711 654.295 724.676 655.419C725.641 656.543 725.601 658.214 724.584 659.291Z" fill="#A3C4F3"/>
<path d="M824.03 666.759C822.624 667.584 820.88 667.577 819.482 666.739C818.084 665.901 817.255 664.367 817.32 662.738C817.385 661.11 818.333 659.646 819.794 658.922C821.944 657.856 824.553 658.685 825.694 660.796C826.835 662.908 826.1 665.544 824.03 666.759Z" fill="#CFBAF0"/>
<path d="M484.762 668.97C486.534 669.166 487.592 669.309 489.33 669.684C487.263 670.444 483.549 669.918 481.227 669.7L484.762 668.97Z" fill="#838182"/>
<path d="M791.821 675.141C791.057 675.728 790.037 675.858 789.15 675.48C788.264 675.103 787.65 674.278 787.544 673.321C787.437 672.363 787.855 671.423 788.637 670.861C789.819 670.01 791.466 670.265 792.336 671.434C793.205 672.603 792.976 674.253 791.821 675.141Z" fill="#CFBAF0"/>
<path d="M568.265 678.771C570.796 677.567 577.249 674.011 579.573 674.73C578.35 678.104 569.534 682.437 566.234 684.148C556.66 688.082 550.833 689.341 540.621 690.104C551.725 687.204 558.267 683.963 568.265 678.771Z" fill="#6C615A"/>
<path d="M949.385 680.648C947.028 680.564 946.668 680.499 945.609 678.559C945.673 676.46 945.945 676.194 946.928 674.25C949.065 674.415 949.606 674.458 950.697 676.195C950.736 678.265 950.333 678.71 949.385 680.648Z" fill="#A3C4F3"/>
<path d="M513.553 702.188C496.076 705.022 484.192 701.225 469.43 691.943C471.48 692.171 484.225 696.529 487.495 697.419C497.137 700.044 503.799 701.088 513.553 702.188Z" fill="url(#paint16_linear_17_13244)"/>
<path d="M546.977 705.243C558.138 701.698 570.42 698.497 582.036 697.112C572.405 703.625 559.023 706.549 547.465 706.573L546.977 705.243Z" fill="#6C615A"/>
<path d="M812.252 706.2C810.531 706.658 808.748 705.708 808.169 704.024C807.59 702.339 808.412 700.493 810.051 699.796C811.22 699.298 812.568 699.495 813.546 700.306C814.524 701.117 814.968 702.407 814.695 703.648C814.423 704.889 813.48 705.874 812.252 706.2Z" fill="#CFBAF0"/>
<path d="M447.59 703.892C452.997 706.4 458.467 709.393 463.966 711.826C476.221 717.248 498.186 722.468 511.855 722.044L511.974 722.702C490.003 725.356 463 721.181 447.59 703.892Z" fill="url(#paint17_linear_17_13244)"/>
<path d="M547.463 706.573C545.759 706.589 545.688 706.576 544.023 706.206C544.634 705.445 545.725 705.498 546.975 705.243L547.463 706.573Z" fill="#74606A"/>
<path d="M850.261 711.746C849.026 712.152 847.693 711.5 847.255 710.276C846.816 709.052 847.432 707.702 848.643 707.231C849.457 706.914 850.378 707.064 851.048 707.623C851.719 708.181 852.034 709.059 851.87 709.916C851.707 710.774 851.09 711.474 850.261 711.746Z" fill="#CFBAF0"/>
<path d="M511.855 722.044C513.487 721.851 515.152 721.413 516.559 722.066C515.195 722.854 513.615 722.67 511.974 722.702L511.855 722.044Z" fill="#90DBF4"/>
<path d="M496.142 744.357C478.269 745.795 466.142 743.998 452.863 731.312C455.359 732.074 459.016 734.336 461.839 735.624C468.449 738.64 476.721 740.319 483.695 741.849C487.164 742.61 494.432 742.998 496.142 744.357Z" fill="#6C615A"/>
<path d="M545.055 733.9C552.072 732.171 561.487 732.065 568.833 731.715C570.721 731.594 573.729 731.821 575.702 731.909C566.449 735.746 563.757 735.953 553.88 735.325C550.93 735.025 547.978 734.428 545.055 733.9Z" fill="#74606A"/>
<path d="M517.21 774.092C502.925 776.299 479.301 769.373 469.367 758.762C472.206 759.32 486.753 765.365 491.643 766.937C499.654 769.512 509.797 771.549 517.21 774.092Z" fill="#6A6463"/>
<path d="M483.685 795.311C472.109 798.903 465.068 794.623 456.238 787.983C458.83 788.431 462.608 789.883 465.186 790.899C472.165 793.65 476.064 794.449 483.538 794.667L483.685 795.311Z" fill="#6C615A"/>
<path d="M528.434 808.723C537.306 808.172 547.606 806.444 556.946 805.714L557.775 805.481L558.595 806.216L558.828 806.155L558.684 805.412C559.954 805.633 559.469 805.309 560.288 806.174C556.484 810.351 540.375 810.763 534.884 810.451C532.778 810.093 530.503 809.336 528.434 808.723Z" fill="#74606A"/>
<path d="M494.215 819.898C489.009 819.286 467.605 815.891 465.492 811.288C467.745 810.657 493.634 818.101 498.332 819.316L494.215 819.898Z" fill="#6C615A"/>
<path d="M514.987 827.018C531.729 828.139 539.239 827.12 555.932 825.31C539.51 832.642 530.626 833.457 513.012 828.772L514.987 827.018Z" fill="#74606A"/>
<path d="M503.18 827.231C507.836 826.798 510.283 826.829 514.99 827.018L513.015 828.772C510.325 827.982 506.105 827.593 503.18 827.231Z" fill="#6C615A"/>
<path d="M526.41 858.947C508.849 864.14 488.04 862.387 472.75 851.838C475.742 852.472 479.689 853.907 482.724 854.803C494.268 858.211 505.869 859.713 517.904 858.993C520.465 858.84 524.558 857.917 526.93 858.21L526.41 858.947Z" fill="url(#paint18_linear_17_13244)"/>
<path d="M500.852 885.014C512.837 887.697 523.269 885.829 535.565 885.224C537.599 885.155 538.611 884.941 540.445 885.675L540.434 886.404C533.741 891.361 518.698 890.558 510.895 888.611C507.133 887.453 504.505 886.499 500.852 885.014Z" fill="#6C615A"/>
<path d="M509.778 904.227C498.774 905.958 491.338 904.028 482.305 897.478C490.856 898.526 497.417 902.865 509.258 903.633L509.778 904.227Z" fill="#6A6463"/>
<path d="M509.141 926.961C513.323 925.915 519.473 924.957 523.821 924.16C526.865 923.963 530.663 923.988 533.77 923.923L533.011 924.35C528.05 927.174 525.87 927.238 520.283 928.034C515.677 928.376 513.557 927.88 509.141 926.961Z" fill="#6C615A"/>
<path d="M531.324 944.071L532.143 945.642C528.351 955.305 522.184 973.941 513.101 979.075L512.547 978.678C522.556 972.01 527.492 955.035 531.324 944.071Z" fill="#6A6463"/>
<defs>
<linearGradient id="paint0_linear_17_13244" x1="456.531" y1="367.393" x2="542.25" y2="46.9878" gradientUnits="userSpaceOnUse">
<stop stop-color="#C6FECD"/>
<stop offset="1" stop-color="#E9FCEC"/>
</linearGradient>
<linearGradient id="paint1_linear_17_13244" x1="568.687" y1="397.861" x2="430.378" y2="32.0386" gradientUnits="userSpaceOnUse">
<stop stop-color="#BEFFC4"/>
<stop offset="1" stop-color="#E9FCEC"/>
</linearGradient>
<linearGradient id="paint2_linear_17_13244" x1="482.779" y1="130.882" x2="543.223" y2="166.619" gradientUnits="userSpaceOnUse">
<stop stop-color="#3F3E2E"/>
<stop offset="1" stop-color="#615C41"/>
</linearGradient>
<linearGradient id="paint3_linear_17_13244" x1="578.761" y1="184.239" x2="576.429" y2="184.272" gradientUnits="userSpaceOnUse">
<stop stop-color="#3C3F1C"/>
<stop offset="1" stop-color="#4C3C28"/>
</linearGradient>
<linearGradient id="paint4_linear_17_13244" x1="550.048" y1="424.294" x2="689.249" y2="172.173" gradientUnits="userSpaceOnUse">
<stop stop-color="#BEFEC0"/>
<stop offset="1" stop-color="#E8FCE9"/>
</linearGradient>
<linearGradient id="paint5_linear_17_13244" x1="665.008" y1="248.431" x2="679.055" y2="275.796" gradientUnits="userSpaceOnUse">
<stop stop-color="#43392B"/>
<stop offset="1" stop-color="#6A514B"/>
</linearGradient>
<linearGradient id="paint6_linear_17_13244" x1="513.725" y1="291.664" x2="509.829" y2="291.799" gradientUnits="userSpaceOnUse">
<stop stop-color="#464221"/>
<stop offset="1" stop-color="#5D6241"/>
</linearGradient>
<linearGradient id="paint7_linear_17_13244" x1="494.781" y1="610.914" x2="605.456" y2="634.304" gradientUnits="userSpaceOnUse">
<stop stop-color="#57594A"/>
<stop offset="1" stop-color="#776865"/>
</linearGradient>
<linearGradient id="paint8_linear_17_13244" x1="618.425" y1="584.62" x2="415.517" y2="632.383" gradientUnits="userSpaceOnUse">
<stop stop-color="#F7DDFC"/>
<stop offset="1" stop-color="#D0FDFC"/>
</linearGradient>
<linearGradient id="paint9_linear_17_13244" x1="509.327" y1="416.875" x2="510.246" y2="410.229" gradientUnits="userSpaceOnUse">
<stop stop-color="#604F3C"/>
<stop offset="1" stop-color="#4E4E42"/>
</linearGradient>
<linearGradient id="paint10_linear_17_13244" x1="504.407" y1="429.776" x2="504.684" y2="443.86" gradientUnits="userSpaceOnUse">
<stop stop-color="#624147"/>
<stop offset="1" stop-color="#695D5D"/>
</linearGradient>
<linearGradient id="paint11_linear_17_13244" x1="507.579" y1="498.577" x2="507.31" y2="502.588" gradientUnits="userSpaceOnUse">
<stop stop-color="#584A4E"/>
<stop offset="1" stop-color="#765B59"/>
</linearGradient>
<linearGradient id="paint12_linear_17_13244" x1="588.074" y1="585.886" x2="551.864" y2="541.973" gradientUnits="userSpaceOnUse">
<stop stop-color="#F2DEF6"/>
<stop offset="1" stop-color="#FFCFFB"/>
</linearGradient>
<linearGradient id="paint13_linear_17_13244" x1="551.621" y1="555.337" x2="549.503" y2="548.561" gradientUnits="userSpaceOnUse">
<stop stop-color="#6F4E4C"/>
<stop offset="1" stop-color="#64555D"/>
</linearGradient>
<linearGradient id="paint14_linear_17_13244" x1="443.894" y1="559.865" x2="442.945" y2="564.428" gradientUnits="userSpaceOnUse">
<stop stop-color="#4E473F"/>
<stop offset="1" stop-color="#695F61"/>
</linearGradient>
<linearGradient id="paint15_linear_17_13244" x1="531.475" y1="624.208" x2="531.594" y2="627.966" gradientUnits="userSpaceOnUse">
<stop stop-color="#614A43"/>
<stop offset="1" stop-color="#79615D"/>
</linearGradient>
<linearGradient id="paint16_linear_17_13244" x1="490.6" y1="696.092" x2="489.343" y2="700.254" gradientUnits="userSpaceOnUse">
<stop stop-color="#4E4B4A"/>
<stop offset="1" stop-color="#766362"/>
</linearGradient>
<linearGradient id="paint17_linear_17_13244" x1="482.65" y1="709.228" x2="477.341" y2="721.011" gradientUnits="userSpaceOnUse">
<stop stop-color="#53595D"/>
<stop offset="1" stop-color="#7D6864"/>
</linearGradient>
<linearGradient id="paint18_linear_17_13244" x1="500.063" y1="855.698" x2="499.526" y2="860.389" gradientUnits="userSpaceOnUse">
<stop stop-color="#5D5457"/>
<stop offset="1" stop-color="#7B7272"/>
</linearGradient>
</defs>
</svg>
