<svg width="1024" height="1024" viewBox="0 0 1024 1024" fill="none" xmlns="http://www.w3.org/2000/svg">
<path d="M529.908 99.6251C582.655 18.3679 699.256 38.0024 732.083 125.378C734.007 130.497 739.809 146.538 739.131 151.3C735.096 152.416 699.38 155.455 695.966 154.628C694.625 151.418 696.151 142.73 691.847 138.838L691.433 139.042C680.808 132.373 670.662 138.674 660.313 142.767C652.812 145.733 645.273 149.403 638.192 153.281C615.975 167.039 590.342 187.52 573.163 207.275C557.395 225.407 545.037 244.213 523.5 256.835C529.063 244.547 531.73 234.389 529.632 220.848C529.12 217.539 528.372 210.488 525.556 208.515L524.363 208.61C524.168 205.773 525.154 199.898 525.514 196.687C527.945 193.304 525.709 178.069 524.272 173.678C523.771 172.146 522.772 171.642 521.389 171.115C519.931 171.235 519.463 171.274 517.957 171.189C515.411 168.926 516.566 165.41 516.037 162.205C512.268 139.375 518.98 119.201 529.908 99.6251Z" fill="url(#paint0_linear_17_15719)"/>
<path d="M382.776 102.155C385.494 92.8321 392.408 76.3191 399.899 70.3511C404.904 66.3632 415.845 83.6087 418.757 87.3267C433.837 106.585 455.921 107.876 472.94 125.141C475.183 128.116 477.38 131.52 479.475 134.635C481.955 131.011 484.079 127.735 487.172 124.607L489.019 123.639C497.738 128.361 504.044 141.322 506.902 150.471C509.312 158.188 509.608 167.087 510.132 175.152C513.821 173.787 518.602 171.464 522.252 172.266C526.015 175.592 525.499 191.372 525.514 196.687C525.154 199.898 524.168 205.773 524.363 208.61L525.556 208.515C528.372 210.488 529.12 217.539 529.632 220.848C531.73 234.389 529.063 244.547 523.5 256.835C545.037 244.213 557.395 225.407 573.163 207.275C590.342 187.52 615.975 167.039 638.192 153.281C645.273 149.403 652.812 145.733 660.313 142.767C670.662 138.674 680.808 132.373 691.433 139.042C694.339 145.589 695.055 148.553 694.791 155.892C692.873 165.358 686.108 166.101 677.592 168.658C653.968 175.75 630.773 186.249 611.412 201.714C582.165 226.477 548.802 269.876 540.806 308.035C553.612 324.089 568.374 334.891 587.233 342.884C584.454 335.08 582.29 329.252 581.599 320.877C578.739 286.199 606.374 261.087 636.42 249.802C638.767 248.921 641.072 248.284 643.552 249.058C646.933 252.142 644.387 257.642 643.324 261.541C661.018 251.109 676.324 247.172 697.043 248.446L702.619 249.316C731.953 255.764 712.541 259.716 702.016 273.157L702.733 273.215C710.618 273.817 720.064 271.448 727.828 270.676C745.251 268.945 761.352 272.541 774.894 283.949C777.096 285.804 787.812 293.156 786.533 296.275C784.062 302.301 774.354 305.713 769.296 311.013C776.687 314.158 783.928 317.505 790.77 321.753C798.098 326.303 832.874 352.906 835.556 359.099C835.951 360.013 836.024 360.472 835.919 361.432C829.823 372.253 783.9 390.001 770.155 393.835L767.951 394.433C789.141 402.581 808.998 413.516 819.186 434.876C820.668 437.983 823.617 444.477 820.736 447.059C816.822 448.142 812.751 445.783 809.375 443.985C821.616 457.803 826.005 473.924 833.184 490.38C836.48 497.938 841.951 506.985 846.753 513.583C849.796 516.655 851.356 519.632 847.173 522.623C833.509 518.615 823.917 516.029 810.191 522.052C786.016 532.661 777.143 534.951 751.623 528.924C753.681 531.442 757.52 535.281 757.491 538.37C756.817 539.52 756.086 540.543 754.547 540.634C732.945 541.916 718.728 535.059 702.575 521.951C701.112 525.05 699.63 528.333 697.991 531.323C705.376 539.947 710.075 548.256 712.732 559.342C713.021 561.551 713.513 564.581 713.569 566.739C713.547 593.533 701.3 608.033 681.313 623.894C681.423 631.102 681.598 635.904 680.396 643.056C673.971 665.878 664.23 679.012 643.679 690.577L642.762 691.085C656.661 722.824 651.189 753.492 622.718 774.66C626.79 781.816 630.2 788.048 632.234 796.159C637.731 818.08 630.817 841.602 614.262 857.017L612.438 858.455C599.548 868.471 585.695 872.433 569.499 870.392C565.354 891.36 554.942 905.911 534.839 914.529C505.476 927.118 472.364 908.47 461.579 879.812C454.844 861.913 456.611 845.154 464.185 827.837L459.404 826.441L457.147 825.371C454.908 825.487 449.705 822.408 447.595 821.28L444.58 819.148C427.722 806.97 422.757 786.453 422.427 766.645C422.379 763.708 423.763 755.234 423.171 753.346C421.545 753.04 419.591 752.493 417.955 752.085C409.992 751.078 399.047 742.762 393.194 737.739L391.212 735.575C386.568 730.573 383.757 725.493 380.995 719.339C379.889 715.831 378.823 713.225 378.466 709.538L377.74 707.345C375.874 690.3 378.16 676.785 384.523 660.712C386.024 656.919 394.031 645.493 393.953 643.455L392.974 639.56C392.022 635.401 391.554 630.76 391.243 626.515C375.847 626.423 365.331 623.421 353.043 614.385C350.96 612.634 349.054 610.887 347.119 608.974C321.276 583.427 322.116 535.655 347.37 510.277C343.827 500.392 342.998 493.882 342.99 483.516C338.537 487.082 312.55 501.006 307.652 499.143C306.311 496.107 309.826 488.423 307.481 485.446C299.686 475.548 277.56 492.655 271.127 491.43C268.799 487.512 275.072 478.592 271.183 475.088C262.061 474.036 229.149 502.342 216.417 496.568C215.047 495.947 214.74 493.787 214.47 492.456L214.675 490.309C215.667 481.685 222.683 459.058 225.16 449.01C227.257 441.464 228.705 427.608 226.523 420.025C223.728 410.307 221.112 411.563 224.574 401.36C228.394 390.103 236.715 385.467 242.279 376.473L242.647 375.87C239.764 376.322 234.248 377.415 232.03 375.368C226.561 370.32 238.725 356.046 241.835 352.294L243.871 350.08C253.168 340.212 263.053 334.964 274.975 329.338C255.471 325.683 245.216 325.08 227.358 313.83C218.227 306.997 215.183 299.828 206.513 293.397C200.654 289.052 186.063 287.246 182.016 281.057C181.431 273.82 191.945 262.985 197.67 258.871C200.684 256.705 206.348 253.942 208.966 251.317C210.332 249.948 207.188 245.256 209.13 243.048C215.756 235.513 230.003 230.481 238.404 227.511C209.987 215.029 266.095 203.722 272.595 201.38L273.172 201.166C266.182 188.164 242.742 182.793 271.163 172.778C277.871 170.414 282.789 169.284 289.786 168.336C293.147 167.88 305.963 167.807 307.617 166.911C307.452 165.548 307.285 165.44 307.848 164.242C310.56 162.952 311.964 162.94 314.837 162.585C334.544 160.147 355.81 165.998 371.283 178.745C365.967 166.347 361.841 149.675 364.889 136.185C366.468 129.198 375.899 135.369 379.453 137.182C379.347 126.342 379.153 119.941 381.073 109.224L382.776 102.155ZM389.105 94.5565C383.499 107.052 382.801 119.542 382.596 133.065C382.554 135.883 382.799 140.271 380.161 141.757C375.775 141.2 373.606 135.697 369.301 136.9C363.196 143.666 372.355 175.626 376.864 183.46C377.235 184.103 377.086 184.207 377.067 184.983C375.449 186.25 376.252 186.132 374.671 186.04C372.465 184.553 370.292 182.961 368.32 181.247C356.591 171.051 340.646 165.922 325.255 165.47C323.137 165.408 315.679 165.378 314.058 166.439C315.193 167.783 316.625 168.815 316.76 170.119C315.372 171.103 311.05 171.147 309.234 170.885C299.903 169.535 266.944 173.681 262.02 181.892C261.596 189.061 283.381 197.716 274.375 204.329C270.397 207.249 230.314 213.411 234.643 221.929C238.503 224.665 243.149 224.707 243.724 227.816C241.639 231.098 213.166 239.947 212.727 244.066C211.873 252.08 216.86 252.314 202.991 259.785C194.235 264.513 189.369 271.084 184.917 279.963C192.029 284.375 202.522 285.962 208.682 290.817C220.298 299.973 223.734 309.92 238.401 316.044C251.533 321.527 263.806 324.14 277.858 326.259C279.052 326.468 279.95 326.993 280.736 327.926C281.09 332.542 269.285 335.868 265.599 338.072C252.291 346.03 237.811 358.005 233.288 373.415C236.293 372.816 240.982 371.378 243.798 373.194C244.727 373.793 245.389 375.028 245.227 376.074C244.22 382.575 235.181 389.44 231.861 394.891C228.537 400.348 227.606 403.729 226.279 409.42C240.214 435.131 220.905 466.219 218.056 492.389C217.931 493.537 218.294 493.611 218.987 494.305C231.634 496.205 267.872 463.943 274.737 473.459C276.532 475.947 275.916 479.933 275.176 482.678C274.628 484.711 273.896 486.713 273.204 488.701C286.675 482.427 314.349 467.642 311.532 495.933C324.806 489.506 330.124 488.559 343.161 479.786C344.369 471.277 345.59 463.986 349.723 456.356C360.571 436.329 375.557 424.407 398.402 422.922C401.224 385.953 426.035 361.078 463.71 362.058C462.726 340.791 453.454 323.423 440.333 306.993C435.973 309.549 421.217 317.672 418.425 320.972C400.362 342.32 392.578 374.763 385.215 401.268C384.394 404.224 384.116 407.695 381.896 409.543L380.941 409.501C380.139 408.235 380.594 406.32 381.01 404.758C389.247 373.822 394.381 352.048 410.807 324.589C382.144 342.193 357.74 359.274 335.962 385.074C334.264 383.65 335.184 383.956 333.243 383.791C312.798 396.07 295.325 418.245 277.572 433.525C271.11 439.087 242.54 471.4 238.823 473.354L238.502 472.589C241.349 462.1 312.101 396.521 324.413 385.113C325.758 383.867 328.309 382.567 329.192 380.717C318.827 377.946 292.275 385.164 282.111 389.203C279.783 390.128 273.74 393.625 271.656 392.931L271.534 392.031C272.672 390.528 276.554 388.929 278.422 388.124C293.173 381.774 316.614 375.502 332.566 378.081C351.452 361.894 370.946 346.125 391.631 332.287C396.684 328.907 403.887 324.746 408.37 320.868C393.813 317.903 370.989 317.628 356.072 319.261C351.715 319.738 345.239 322.297 340.841 323.221C339.42 323.52 340.003 323.579 338.765 322.756L339.269 321.835C354.885 311.877 394.38 315.116 412.459 318.859C420.591 313.578 428.824 308.499 437.176 303.575C419.777 283.986 381.42 265.046 355.241 263.385C329.894 261.777 294.989 281.033 273.37 293.324C269.629 295.451 265.409 300.986 261.04 301.815L260.309 301.245C260.401 294.71 292.9 278.556 299.306 275.459C312.709 268.981 327.922 263.01 342.584 260.444C296.129 248.653 255.443 250.982 211.341 270.901C213.163 269.033 213.813 268.701 216.058 267.26C229.675 260.933 236.483 259.098 250.868 255.047C275.561 250.08 300.661 248.685 325.476 253.524C339.793 256.316 354.034 259.813 368.515 262.153C375.563 263.292 385.665 267.308 392.531 269.761C381.334 247.615 364.428 228.221 345.449 212.37C343.697 210.962 337.21 206.135 336.476 204.571L336.108 204.726L335.727 204.085C340.882 206.153 345.03 209.527 349.39 212.89C366.489 227.358 386.188 249.536 394.601 270.351C408.639 277.584 428.739 288 438.716 300.441C442.982 281.767 445.261 234.84 437.625 217.999C438.849 216.633 438.56 217.396 438.686 215.704C436.686 205.221 434.129 194.644 431.337 184.346C427.223 171.883 424.366 159.787 419.444 147.229C414.937 134.914 409.306 122.992 404.873 110.658C403.99 108.202 400.667 100.739 402.007 98.8379C407.381 101.926 431.441 169.793 434.412 180.245L434.38 181.308L433.833 181.979C434.387 184.547 437.611 198.755 438.954 199.796C440.327 201.963 441.798 209.895 442.297 212.616C445.776 231.573 446.815 250.978 446.448 270.223C446.343 275.71 445.68 281.134 445.499 286.647C453.673 270.477 463.966 257.7 471.841 241.589C475.892 233.301 479.123 224.736 482.393 216.142C484.284 211.172 486.713 201.194 489.239 197.159L489.817 197.323C489.877 208.859 475.053 240.88 469.047 251.91C462.237 264.418 454.451 276.561 448.073 289.732C453.912 285.597 460.568 281.34 467.322 278.652C482.02 272.802 498.482 269.015 512.571 261.804C514.785 260.671 517.844 257.576 519.226 255.496C528.46 241.587 526.996 228.49 524.49 213.286C520.141 219.695 514.971 227.075 509.482 232.77C508.568 233.719 508.248 233.483 507.22 233.409C506.267 232.069 507.087 231.207 508.417 229.442C516.937 218.14 521.445 212.253 522.075 197.515C522.242 193.604 522.775 178.841 520.293 176.011C516.398 174.535 507.379 181.316 507.103 176.996C505.816 156.876 504.497 142.765 489.415 127.8C485.363 131.136 482.118 138.773 478.279 138.872C476.519 137.896 476.012 136.493 474.973 134.665C462.98 115.337 446.217 113.669 427.941 101.307C422.588 96.8067 419.604 93.9556 415.116 88.5715C410.786 83.3765 407.156 76.8577 401.889 72.8797C396.988 78.2095 391.965 87.872 389.105 94.5565ZM506.213 293.925C502.99 293.606 494.792 292.852 491.969 294.193L492.974 293.894L493.562 294.518L500.088 294.86C510.53 295.552 514.006 296.642 523.691 300.426L526.296 292.09C518.981 293.174 513.526 293.552 506.213 293.925ZM452.357 297.722C463.114 292.681 473.043 288.137 484.255 284.129C503.146 277.377 521.522 267.989 536.829 254.922C542.168 250.344 547.056 246.624 550.817 240.492C533.447 255.348 520.552 264.467 499.028 272.193C484.798 277.301 452.792 286.722 444.468 299.162L444.554 300.024C446.192 300.457 447.308 299.763 448.949 299.129C454.406 299.595 468.131 298.361 473.344 296.916C466.413 296.563 457.486 298.876 452.357 297.722ZM612.009 351.772C615.025 352.854 618.535 354.895 621.348 356.508C622.642 357.893 622.75 358.163 624.636 358.571C634.078 364.697 636.638 371.05 642.641 376.382C647.302 380.522 662.459 392.069 667.557 395.528C674.601 395.531 680.978 395.474 687.997 395.044C693.515 394.706 700.424 393.921 705.815 393.923C695.782 397.637 680.879 398.154 670.005 398.13C681.465 406.637 693.042 415.101 704.585 423.498C713.476 429.967 723.213 436.115 731.928 442.772C741.609 437.936 764.438 431.49 773.647 438.764L773.699 439.351C770.779 439.567 765.739 438.051 763.234 438.084C754.132 438.204 742.697 439.641 734.6 443.814C750.44 454.546 767.16 464.5 782.453 475.985C791.733 482.954 805.275 491.228 812.174 500.276C806.366 497.539 789.412 484.041 783.053 479.654C767.267 468.764 751.436 458.202 735.117 448.095C732.778 446.821 734.852 448.148 732.662 448.046C732.276 447.057 732.045 446.29 731.134 445.623C719.43 437.064 707.108 429.339 695.417 420.755C686.362 414.106 677.326 407.398 668.396 400.582C671.252 416.819 675.212 430.725 680.707 446.161C706.617 467.306 711.602 486.337 703.983 518.342C722.001 532.082 729.01 536.283 752.069 537.052C749.732 534.084 744.894 528.988 747.391 525.364C751.267 523.575 767.239 529.213 774.633 528.384C803.696 525.123 813.318 507.431 843.656 516.911C828.132 497.348 824.243 472.902 810.634 452.379C808.149 448.631 800.269 443.595 803.509 438.851C806.709 438.037 814.107 441.778 817.339 443.158C812.094 423.751 794.129 410.626 776.666 402.481C772.056 400.332 765.709 398.431 761.486 395.617C760.85 395.194 761.037 394.911 760.97 393.996C762.752 390.237 771.951 388.426 776.056 387.181C795.792 381.196 815.042 372.431 831.841 360.407C812.795 344.571 794.802 326.219 771.582 316.603C769.277 315.648 766.185 314.392 764.683 312.402C764.55 306.955 778.254 299.279 782.571 296.435C760.525 273.231 742.008 272.442 711.946 276.927C708.076 277.505 702.54 278.154 699.046 276.197C694.834 270.305 710.058 259.34 713.896 256.625C693.305 250.344 676.077 250.989 656.244 259.922C651.077 262.25 646.536 265.288 641.16 267.679C636.713 266.752 640.263 255.827 641.002 252.652C620.272 258.3 595.157 277.754 588.445 298.936C582.255 318.473 586.545 331.511 595.214 348.837C600.134 349.17 604.493 350.031 609.283 351.117L609.634 349.554C616.037 321.6 631.896 298.577 656.042 282.517C658.146 281.117 665.687 276.526 668.16 277.094C666.443 280.06 658.972 283.629 655.74 285.949C631.967 303.012 617.61 323.429 612.009 351.772ZM679.068 140.607C672.518 141.97 664.061 145.314 657.919 148.246C584.464 183.316 528.282 263.924 518.484 344.647C516.693 359.408 511.364 370.135 519.629 383.899C524.139 383.579 527.134 383.735 531.69 383.969C529.716 380.913 527.241 377.181 526.603 373.494C524.469 361.174 527.945 342.058 530.381 329.646C533.043 318.579 535.471 306.796 539.553 296.173C555.337 255.091 584.182 214.944 620.462 189.679C640.019 176.06 663.973 169.566 685.763 161.06C687.568 160.356 688.96 158.52 689.347 156.558C689.862 148.182 689.523 139.719 679.068 140.607ZM539.751 257.968C518.236 274.369 504.446 281.809 478.397 290.46L478.447 290.837L478.626 290.879C494.705 288.583 510.133 290.093 527.777 287.837C529.128 284.436 540.245 259.643 539.983 258.122L539.751 257.968ZM490.155 298.708C479.971 299.281 470.999 300.292 460.975 302.524C481.059 306.104 500.316 313.355 509.318 333.022C511.587 338.685 512.522 342.266 513.618 348.293C515.462 331.353 518.509 320.166 521.943 304.148C511.139 299.36 501.861 298.485 490.155 298.708ZM443.53 305.195L444.029 305.997C446.249 309.528 449.656 313.254 451.99 316.992C461.682 332.511 466.052 344.761 467.901 362.764C480.568 364.758 487.619 367.256 498.33 374.373C499.835 372.054 501.437 369.406 503.175 367.293C508.408 360.447 510.558 355.88 509.524 346.861C508.305 336.234 502.478 325.65 493.861 319.218C481.62 310.082 458.685 303.806 443.53 305.195ZM540.08 315.462C539.823 316.21 539.074 317.831 539.391 318.252C546.155 327.227 565.208 346.067 573.633 351.404C578.144 350.322 581.372 349.611 585.943 348.953C587.916 348.818 587.378 349.252 588.318 348.249C586.275 346.633 580.615 344.645 577.988 343.372C567.602 338.338 557.951 331.936 549.113 324.527C546.047 321.957 543.102 317.889 540.08 315.462ZM536.799 322.322C535.269 327.464 534.329 331.138 533.171 336.382C538.393 339.219 562.51 355.284 564.717 355.548C566.273 354.769 566.895 354.739 567.803 353.446C560.936 346.293 550.236 338.241 543.115 330.57C541.144 328.447 537.591 323.071 536.799 322.322ZM532.628 340.165C530.22 350.666 527.057 370.402 533.402 379.839C534.711 381.784 536.459 384.014 537.816 386.001C540.165 381.169 541.877 377.495 544.886 372.989C549.911 366.321 553.385 363.124 560.242 358.281C554.406 354.786 549.042 351.513 543.417 347.696C540.792 345.916 535.054 341.489 532.628 340.165ZM587.987 352.205C567.47 353.977 549.006 367.347 541.043 386.395C580.578 400.803 594.029 432 588.749 472.185C592.989 471.683 597.204 471.293 601.344 470.248C654.595 456.723 667.177 390.1 620.334 360.109C611.843 354.672 598.121 350.857 587.987 352.205ZM510.326 364.474C507.59 367.984 503.84 373.091 500.833 376.175L508.248 382.389L514.197 387.667C512.26 379.559 510.864 373.288 510.618 364.846L510.326 364.474ZM454.337 365.691C392.08 373.457 382.179 460.425 446.559 476.482C449.849 474.911 452.899 473.357 456.367 472.212C460.678 470.972 464.116 470.202 468.524 469.296C460.596 436.051 477.38 400.902 508.973 387.381C493.457 373.093 479.534 364.963 457.425 365.494C456.544 365.515 455.185 365.549 454.337 365.691ZM646.516 383.809C653.135 401.721 655.461 415.384 648.314 434.069C656.387 435.285 666.185 438.078 673.415 441.992L676.261 443.232C676.597 441.721 672.339 429.14 671.577 426.16C669.128 416.58 666.799 407.855 665.699 397.951C661.213 394.734 650.463 385.476 646.516 383.809ZM520.169 387.587C486.67 395.665 462.381 433.785 471.63 467.432C480.36 499.188 504.597 519.516 538.023 516.38C596.425 506.425 602.239 429.201 558.002 398.271C546.948 390.543 533.726 386.578 520.169 387.587ZM397.732 425.671C328.96 436.883 333.05 534.81 392.089 545.852C398.375 546.866 403.4 546.957 409.638 545.547C406.466 518.418 418.339 492.626 442.313 478.924C420.559 471.909 407.613 459.753 400.925 438.056C400.183 435.649 398.811 426.562 398.071 425.683L397.732 425.671ZM646.454 437.434C632.404 462.298 616.766 473.247 587.91 475.232C586.949 478.242 586.157 480.551 584.976 483.485C613.527 496.237 625.305 518.311 625.006 549.097C631.065 554.237 634.365 556.348 642.641 557.462C657.217 557.942 671.825 555.406 682.674 545.055C694.042 534.21 703.856 513.25 703.747 497.483C703.505 462.514 677.766 443.496 646.454 437.434ZM467.843 473.133C448.421 476.812 435.546 484.047 423.635 500.16C396.967 536.233 420.479 593.36 467.079 595.152C488.784 595.226 499.991 589.037 516.787 575.747C505.283 553.95 504.927 541.158 512.193 517.513C495.782 511.996 481.383 499.32 473.83 483.774C472.809 481.674 469.759 473.832 468.486 473.065L467.843 473.133ZM584.111 486.204C578.836 496.093 574.129 502.645 564.779 509.186C550.387 519.254 532.726 523.147 515.606 518.547C512.766 526.307 510.899 532.405 510.809 540.754C510.523 567.383 525.855 591.072 550.575 601.041C619.787 625.594 652.292 517.737 584.111 486.204ZM348.413 513.905C313.048 552.568 334.014 625.089 390.956 622.788C391.311 619.328 391.625 615.486 392.149 612.083C395.637 593.576 403.366 581.292 418.25 569.628C413.632 561.564 411.712 557.816 410.054 548.744C385.596 553.006 366.032 542.683 353.02 521.618C352.027 520.01 349.367 514.891 348.413 513.905ZM696.02 534.42C691.568 540.782 687.103 547.757 680.492 552.055C663.91 562.838 641.93 566.301 624.988 554.59C624.316 557.619 623.576 561.409 622.745 564.33C639.275 565.406 653.215 572.134 664.591 584.262C674.498 595.25 678.257 605.194 680.309 619.612C695.355 608.642 706.019 595.058 708.956 576.224C711.495 559.935 705.892 547.805 696.479 535.037L696.02 534.42ZM621.815 567.558C614.679 584.344 610.853 589.568 596.258 601.23C613.26 621.474 614.458 649.37 600.249 671.851C597.582 676.071 594.459 679.395 591.135 683.085C604.188 693.244 615.991 695.711 631.99 691.625C643.283 687.659 651.581 682.94 659.854 674.417C688.913 644.48 681.967 589.396 642.132 572.389C634.877 569.292 629.493 568.679 621.815 567.558ZM420.016 572.937C393.1 591.945 386.157 631.997 405.186 658.96C421.811 682.515 452.361 686.406 476.415 671.566C482.803 667.117 486.277 664.172 490.87 657.863C484.477 639.466 484.129 621.726 492.605 603.805C494.573 599.644 496.923 596.071 499.185 592.096C472.609 603.382 445.598 600.949 425.517 578.601C424.668 577.655 420.844 573.472 420.016 572.937ZM518.367 579.869C502.826 591.312 492.935 603.128 489.936 622.894C484.665 657.626 508.686 690.196 543.629 694.716C556.009 696.311 565.763 693.72 576.823 688.543C582.73 685.255 587.976 681.863 592.366 676.672C612.034 653.413 610.584 626.351 593.332 602.904C567.821 613.602 542.745 608.52 524.484 586.785C523.187 585.24 519.724 580.705 518.367 579.869ZM395.295 648.807C376.267 676.802 371.943 721.267 403.714 741.787C410.454 746.14 416.363 748.538 424.297 749.813C425.909 744.398 427.128 740.665 429.318 735.363C435.662 721.746 444.788 708.153 457.529 699.734C457.14 693.793 457.317 688.752 457.473 682.811C434.389 685.464 414.761 679.734 401.269 659.362C399.718 657.02 396.982 650.335 395.295 648.807ZM492.373 662.393C482.502 671.968 474.542 677.431 461.718 682.124C459.895 682.791 460.489 694.249 460.711 696.122C463.917 723.198 488.204 744.046 515.519 737.68C534.46 731.438 546.208 718.383 548.781 698.419C528.014 696.08 514.146 690.188 500.019 673.621C497.833 671.056 494.025 664.089 492.373 662.393ZM588.229 685.39C576.142 694.216 566.47 696.947 551.72 698.46C550.147 716.117 542.292 725.5 528.642 736.051C538.545 762.233 561.583 784.629 591.357 781.801C604.64 780.472 614.429 776.91 624.917 768.527C646.773 751.058 653.47 717.112 639.76 692.551C621.37 698.782 603.591 698.68 588.229 685.39ZM458.284 703.884C427.233 725.604 415.703 775.045 437.322 807.352C444.017 817.357 456.602 823.321 468.158 824.945C484.149 827.349 494.701 825.603 509.11 818.557C529.369 807.385 542.081 788.911 542.609 765.403C533.718 756.508 529.813 749.357 525.839 737.466C497.422 749.838 471.559 737.063 460.212 708.903C459.659 707.532 458.892 704.988 458.284 703.884ZM545.977 769.161C542.562 791.297 535.54 805.172 516.523 818.152C518.839 824.844 520.901 830.941 524.766 836.963C542.11 863.98 573.896 876.537 602.958 860.483C616.124 852.005 624.214 842.263 628.46 826.954C633.663 808.2 629.564 792.879 619.743 776.677C602.709 785.393 588.383 788.146 569.132 782.75C559.778 780.128 553.607 774.744 545.977 769.161ZM512.972 820.428C498.781 828.448 483.755 831.76 467.567 828.404C460.847 847.98 457.074 863.428 466.924 883.125C476.211 901.698 492.675 912.936 513.153 914.973C540.997 914.914 561.099 897.084 566.096 869.988C540.211 864.827 521.443 846.283 514.153 821.176C514.083 820.934 513.291 820.501 512.972 820.428Z" fill="url(#paint1_linear_17_15719)"/>
<path d="M389.105 94.5564C391.965 87.8719 396.988 78.2094 401.889 72.8796C407.156 76.8576 410.786 83.3764 415.116 88.5714C419.604 93.9555 422.588 96.8066 427.941 101.307C425.193 101.245 419.933 98.1703 417.031 97.0594C407.213 93.3019 399.127 90.649 389.105 94.5564Z" fill="#8EECF5"/>
<path d="M381.074 109.224C372.712 111.642 364.496 114.223 356.691 117.434C330.216 128.325 302.287 139.921 278.636 116.304C273.46 111.606 269.311 106.614 265.387 100.883C262.443 96.5842 258.314 88.0736 253.29 86.5658C250.84 86.87 248.879 87.466 247.072 89.1675C245.329 94.9474 256.608 96.7964 253.91 102.338C251.637 104.045 248.745 104.896 246.316 103.106C236.934 96.1936 237.118 81.0948 250.377 79.3442C263.282 77.6406 266.975 92.7305 273.095 100.717C278.144 107.305 283.323 113.103 290.081 117.894C313.025 134.932 346.552 114.128 369.537 106.463C373.52 105.136 378.66 102.887 382.777 102.155L381.074 109.224Z" fill="#FDFEFD"/>
<path d="M202.992 259.785C216.861 252.314 211.874 252.08 212.728 244.066C213.167 239.947 241.64 231.098 243.725 227.816C243.15 224.707 238.504 224.665 234.644 221.929C230.315 213.411 270.398 207.249 274.376 204.329C283.382 197.716 261.597 189.061 262.021 181.892C266.945 173.681 299.904 169.535 309.235 170.885C311.051 171.147 315.373 171.103 316.761 170.119C316.626 168.815 315.194 167.783 314.059 166.439C315.68 165.378 323.138 165.408 325.256 165.47C340.647 165.922 356.592 171.051 368.321 181.247C370.293 182.961 372.466 184.553 374.672 186.04C376.253 186.132 375.45 186.25 377.068 184.983C377.087 184.207 377.236 184.103 376.865 183.46C372.356 175.626 363.197 143.666 369.302 136.9C373.607 135.697 375.776 141.2 380.162 141.757C382.8 140.271 382.555 135.883 382.597 133.065C382.802 119.542 383.5 107.052 389.106 94.5566C399.128 90.6492 407.214 93.3021 417.032 97.0596C419.934 98.1705 425.194 101.245 427.942 101.307C446.218 113.669 462.981 115.337 474.974 134.665C466.888 135.968 461.842 151.558 457.292 152.097C458.049 148.426 458.133 147.333 458.185 143.572C455.498 148.907 449.175 170.915 446.844 177.952C440.481 180.908 440.425 179.622 434.413 180.245C431.442 169.793 407.382 101.926 402.008 98.8379C400.668 100.739 403.991 108.202 404.874 110.658C409.307 122.992 414.938 134.914 419.445 147.229C424.367 159.787 427.224 171.883 431.338 184.346C428.91 185.338 423.252 188.917 421.238 190.613C417.394 186.121 407.293 174.747 402.713 171.595L401.751 171.942C401.541 172.753 401.263 173.298 402.034 174.025C407.961 179.606 413.541 185.427 418.862 191.609C411.379 198.724 377.063 206.76 365.435 209.38C360.906 210.401 353.849 211.548 349.391 212.89C345.031 209.527 340.883 206.153 335.728 204.085L336.109 204.726L336.477 204.571C337.211 206.135 343.698 210.962 345.45 212.37C342.05 215.353 323.16 218.69 317.423 220.911C298.021 228.42 279.249 236.791 261.469 247.659C258.354 249.563 252.696 252.216 250.869 255.047C236.484 259.098 229.676 260.933 216.059 267.26C215.507 266.75 205.09 261.096 202.992 259.785Z" fill="#FDFEFD"/>
<path d="M489.02 123.639C490.145 122.307 495.343 120.351 497.281 118.855C504.211 113.508 520.593 99.2598 529.909 99.6251C518.981 119.201 512.269 139.375 516.038 162.205C516.567 165.41 515.411 168.926 517.957 171.189C519.463 171.274 519.931 171.235 521.389 171.115C522.772 171.642 523.771 172.146 524.272 173.678C525.709 178.069 527.945 193.304 525.514 196.687C525.499 191.372 526.016 175.592 522.253 172.266C518.603 171.464 513.822 173.787 510.133 175.152C509.609 167.087 509.313 158.188 506.903 150.471C504.045 141.322 497.739 128.361 489.02 123.639Z" fill="#FDFEFD"/>
<path d="M472.941 125.141C475.444 123.429 484.654 123.261 487.173 124.607C484.08 127.735 481.956 131.011 479.476 134.635C477.381 131.52 475.184 128.116 472.941 125.141Z" fill="#FDFEFD"/>
<path d="M457.29 152.097C461.84 151.558 466.886 135.968 474.972 134.665C476.011 136.493 476.518 137.896 478.278 138.872C482.117 138.773 485.362 131.136 489.414 127.8C504.496 142.765 505.815 156.876 507.102 176.996C507.378 181.316 516.397 174.535 520.292 176.011C522.774 178.841 522.241 193.604 522.074 197.515C521.444 212.253 516.936 218.14 508.416 229.442C507.086 231.207 506.266 232.069 507.219 233.409C508.247 233.483 508.567 233.719 509.481 232.77C514.97 227.075 520.14 219.695 524.489 213.286C526.995 228.49 528.459 241.587 519.225 255.496C517.843 257.576 514.784 260.671 512.57 261.804C498.481 269.015 482.019 272.802 467.321 278.652C460.567 281.34 453.911 285.597 448.072 289.732C454.45 276.561 462.236 264.418 469.046 251.91C475.052 240.88 489.876 208.859 489.816 197.323L489.238 197.159C486.712 201.194 484.283 211.172 482.392 216.142C479.122 224.736 475.891 233.301 471.84 241.589C463.965 257.7 453.672 270.477 445.498 286.647C445.679 281.134 446.342 275.71 446.447 270.223C446.814 250.978 445.775 231.573 442.296 212.616C441.797 209.895 440.326 201.963 438.953 199.796C446.815 191.945 454.193 163.584 457.29 152.097Z" fill="url(#paint2_linear_17_15719)"/>
<path d="M519.628 383.899C511.363 370.135 516.692 359.408 518.483 344.647C528.281 263.924 584.463 183.316 657.918 148.246C664.06 145.314 672.517 141.97 679.067 140.607C689.522 139.719 689.861 148.182 689.346 156.558C688.959 158.52 687.567 160.356 685.762 161.06C663.972 169.566 640.018 176.06 620.461 189.679C584.181 214.944 555.336 255.091 539.552 296.173C535.47 306.796 533.042 318.579 530.38 329.646C527.944 342.058 524.468 361.174 526.602 373.494C527.24 377.181 529.715 380.913 531.689 383.969C527.133 383.735 524.138 383.579 519.628 383.899ZM614.186 178.21C613.009 182.112 613.262 184.722 617.951 184.949C619.016 183.006 619.033 183.122 619.018 180.939C617.665 178.325 617.06 178.397 614.186 178.21Z" fill="#FFCFD2"/>
<path d="M458.183 143.572C458.131 147.333 458.047 148.426 457.29 152.097C454.193 163.584 446.815 191.945 438.953 199.796C437.61 198.755 434.386 184.547 433.832 181.979L434.379 181.308C435.758 184.882 437.49 192.874 438.477 196.89C442.522 190.959 444.482 184.659 446.842 177.952C449.173 170.915 455.496 148.907 458.183 143.572Z" fill="#224B3E"/>
<path d="M540.805 308.035C548.801 269.876 582.164 226.477 611.411 201.714C630.772 186.249 653.967 175.75 677.591 168.658C686.107 166.101 692.872 165.358 694.79 155.892L695.555 155.929C701.703 156.205 707.102 154.717 713.071 154.379C734.723 153.15 757.544 149.518 779.036 152.775C838.208 161.764 877.173 201.979 906.801 250.888C962.812 343.347 963.549 460.095 898.386 548.28C878.121 575.703 852.141 596.3 832.59 624.089C830.564 626.968 829.056 631.198 827.09 633.756C826.309 628.323 826.006 621.273 825.982 615.834C855.848 585.213 865.671 557.439 866.901 514.47C867.732 506.629 864.771 491.537 867.447 484.475C877.106 458.994 888.817 435.209 891.127 407.498C894.449 412.081 897.884 416.931 903.4 418.829C919.52 424.222 929.379 406.717 934.092 394.203C944.398 366.837 937.098 332.054 914.708 312.708C910.042 308.676 904.932 306.825 899.128 304.741C903.392 271.289 892.753 238.2 864.949 217.261C861.581 214.725 857.052 212.321 853.921 209.662C849.78 205.72 846.786 200.558 842.805 196.488C821.583 174.791 785.578 159.399 754.771 161.571C719.538 164.055 680.998 179.354 649.703 195.756C639.944 200.87 629.764 208.482 620.441 214.475C599.593 227.968 584.184 242.375 573.147 264.974C571.153 269.054 568.63 273.866 567.371 278.244C566.873 279.974 567.049 280.744 567.892 282.084C569.222 282.042 570.151 281.32 570.746 280.128C579.598 262.353 589.04 242.796 605.367 230.528C626.669 214.522 650.29 198.468 675.018 188.207C704.025 176.171 738.247 163.39 770.109 167.04C799.347 170.389 827.483 184.58 845.864 207.557C802.539 191.992 762.645 205.113 724.7 227.799C720.214 230.481 698.256 244.739 697.042 248.446C676.323 247.172 661.017 251.109 643.323 261.541C644.386 257.642 646.932 252.142 643.551 249.058C641.071 248.284 638.766 248.921 636.419 249.802C606.373 261.087 578.738 286.199 581.598 320.877C582.289 329.252 584.453 335.08 587.232 342.884C568.373 334.891 553.611 324.089 540.805 308.035Z" fill="#FDDAC3"/>
<path d="M697.041 248.446C698.255 244.739 720.213 230.481 724.699 227.799C762.644 205.113 802.538 191.992 845.863 207.557C827.482 184.58 799.346 170.389 770.108 167.04C738.246 163.39 704.024 176.171 675.017 188.207C650.289 198.468 626.668 214.522 605.366 230.528C589.039 242.796 579.597 262.353 570.745 280.128C570.15 281.32 569.221 282.042 567.891 282.084C567.048 280.744 566.872 279.974 567.37 278.244C568.629 273.866 571.152 269.054 573.146 264.974C584.183 242.375 599.592 227.968 620.44 214.475C629.763 208.482 639.943 200.87 649.702 195.756C680.997 179.354 719.537 164.055 754.77 161.571C785.577 159.399 821.582 174.791 842.804 196.488C846.785 200.558 849.779 205.72 853.92 209.662C857.051 212.321 861.58 214.725 864.948 217.261C892.752 238.2 903.391 271.289 899.127 304.741C904.931 306.825 910.041 308.676 914.707 312.708C937.097 332.054 944.397 366.837 934.091 394.203C929.378 406.717 919.519 424.222 903.399 418.829C897.883 416.931 894.448 412.081 891.126 407.498C888.816 435.209 877.105 458.994 867.446 484.475C864.77 491.537 867.731 506.629 866.9 514.47C865.67 557.439 855.847 585.213 825.981 615.834C826.005 621.273 826.308 628.323 827.089 633.756L827.107 634.164C828.61 663.124 841.293 685.954 870.143 695.03C878.248 697.58 889.582 697.749 896.593 701.807C907.887 708.344 904.121 727.489 890.129 727.945C882.819 728.183 877.967 716.634 881.693 712.161C889.335 708.61 887.944 718.606 889.813 720.963C895.887 721.714 898.749 711.877 893.667 707.612C888.413 703.203 881.57 704.302 875.154 702.491C851.545 697.05 833.864 684.284 825.727 660.954C823.581 654.802 822.237 647.009 821.226 640.629L819.926 621.397C810.772 630.345 793.398 640.411 782.25 647.273C777.495 650.199 771.209 653.039 766.647 656.181C767.7 660.72 771.155 677.243 772.797 680.391C773.984 685.266 776.225 690.297 777.924 695.024C789.569 727.436 785.015 763.788 767.053 792.994C763.909 798.105 760.723 802.814 757.109 807.692C770.43 803.051 775.535 801.07 788.198 794.623C780.047 801.737 765.93 808.065 755.414 810.623C742.629 825.197 726.673 841.6 710.937 852.899C699.704 860.965 688.939 867.147 677.591 875.835C676.572 876.407 672.245 880.139 671.122 881.05C654.899 894.204 643.14 912.857 634.924 931.874C632.771 936.857 631.832 943.49 629.222 948.3C628.82 949.042 628.112 950.142 627.026 950.069C622.292 949.636 615.575 947.139 611.67 944.59C608.795 942.714 611.401 933.976 612.003 931.432C616.214 913.632 623.439 896.202 633.808 881.1C636.165 877.666 638.512 873.829 641.364 870.821C666.953 841.906 704.612 823.891 723.02 787.802C732.685 768.854 735.629 753.717 729.464 732.935C723.679 713.435 707.969 702.24 690.884 693.087C676.084 728.007 666.365 757.899 691.963 791.292L691.012 791.691C671.32 768.205 668.546 747.581 677.462 718.383C686.272 689.537 699.32 671.003 719.45 648.802C721.99 647.059 727.296 640.536 729.76 638.114C743.582 624.523 755.627 609.317 769.188 595.541C779.56 585.003 792.153 579.485 803.771 570.851C798.714 572.514 794.315 574.478 788.993 575.886C770.073 580.946 750.117 580.069 731.5 574.156C725.484 572.245 719.439 568.322 713.567 566.739C713.511 564.581 713.019 561.551 712.73 559.342L712.924 558.702C713.096 558.553 713.267 558.404 713.439 558.255C751.922 584.421 803.543 577.061 833.655 541.674C837.676 536.95 842.627 528.825 847.171 522.623C851.354 519.632 849.794 516.655 846.751 513.583C852.479 509.853 853.984 507.44 856.967 501.191C859.317 496.268 861.446 489.823 860.24 484.357C857.413 471.533 848.62 460.442 843.994 447.703C839.153 434.372 836.865 423.195 833.797 409.531C833.001 405.984 830.133 398.731 828.769 395.129C830.089 394.188 833.371 391.683 834.307 390.587C837.616 386.711 854.724 364.558 854.712 361.761L853.255 360.764L853.675 360.072C854.06 360 856.001 359.611 856.114 359.504C859.59 356.229 866.113 339.469 867.383 335.846C879.557 301.12 877.85 266.52 862.364 233.269C856.461 222.398 854.629 216.221 842.609 211.845C798.689 195.859 751.408 213.62 715.352 239.59C711.96 242.034 706.147 247.785 702.617 249.316L697.041 248.446ZM722.706 649.578C712.601 656.219 697.706 680.458 691.428 691.464C712.823 704.795 727.685 714.517 733.844 740.79C739.149 763.423 732.212 781.072 720.398 800.452C719.212 802.398 717.091 805.643 715.647 807.354C727.171 813.823 735.645 811.51 748.398 809.772C759.013 801.118 771.216 774.437 775.39 761.22C785.153 730.311 776.712 705.267 766.233 675.865C766.303 670.781 764.663 661.898 763.665 656.977C760.394 658.864 754.683 661.637 752.184 663.892C750.962 663.368 748.168 661.757 746.871 661.062C750.343 658.378 758.332 654.255 762.581 651.871C758.521 635.414 758.414 627.991 756.422 611.802C754.879 613.321 753.147 615.391 751.759 617.116C742.633 628.465 732.397 638.725 722.706 649.578ZM646.64 872.974C625.647 899.536 623.35 907.361 615.856 939.763C619.44 941.967 620.54 942.385 624.705 942.974C625.959 938.392 627.766 931.61 629.605 927.337C637.952 907.935 652.077 889.006 668.432 875.756C672.238 873.24 676.321 869.52 680.602 866.82C697.253 856.315 712.717 845.52 727.617 832.546C734.91 826.195 740.381 818.695 747.129 812.553L747.64 812.092C734.315 815.97 726.039 814.379 713.646 809.382C703.222 821.333 695.543 829.231 683.241 839.54C671.352 849.504 655.189 860.273 646.64 872.974ZM860.869 220.468C868.419 234.37 873.711 246.609 877.089 262.259C886.046 303.749 873.697 347.952 848.049 381.251C844.2 386.248 838.769 389.617 835.457 394.864C835.406 403.437 836.936 411.583 839.253 419.819C839.98 416.482 840.434 413.77 840.928 410.386C844.935 390.179 851.18 378.084 863.943 361.855C868.489 356.075 874.646 348.716 878.588 342.422C899.922 308.354 902.047 273.566 879.994 239.258C874.593 230.856 868.861 226.147 860.869 220.468ZM897.809 308.871C893.639 324.537 890.872 332.681 881.762 346.618C884.359 357.387 886.851 368.155 889.254 378.967C890.586 384.957 890.496 392.367 892.038 397.99C895.286 409.843 903.878 419.321 916.4 412.658C924.896 405.244 927.907 398.03 931.208 387.045C937.944 364.631 932.541 339.127 917.406 321.257C911.444 314.218 906.077 312.354 897.809 308.871ZM877.673 351.816C873.858 357.317 869.568 362.338 865.665 367.708C855.28 381.998 846.942 397.645 845.038 415.459C844.483 420.657 843.375 425.834 844.274 431.085C846.516 439.929 852.045 449.137 855.785 457.537C857.839 462.152 859.289 467.384 861.175 471.696C862.036 474.421 862.924 477.161 863.748 479.895C873.107 452.166 889.129 426.479 886.651 394.996C886.064 387.547 884.151 378.737 882.162 371.448C880.652 365.915 879.534 356.857 877.673 351.816ZM861.278 502.342C860.061 504.913 858.672 507.23 858.871 510.004C858.982 511.55 859.106 513.128 858.21 514.306C856.359 515.256 855.295 515.376 853.236 515.831C850.248 528.398 845.166 535.757 836.603 545.606C835.957 546.348 828.848 553.345 828.873 553.166C826.415 571.059 825.571 590.242 825.479 608.281C827.323 608.098 829.457 604.906 830.712 603.419C850.877 579.522 861.06 550.312 861.614 519.15C861.668 516.088 862.248 504.459 861.278 502.342ZM821.097 559.811C817.453 561.463 812.981 566.02 809.768 568.761C793.419 582.708 771.304 593.053 757.931 610.165C757.956 618.65 762.318 637.833 764.894 646.345L765.855 650.291C781.605 640.841 806.689 627.439 819.965 614.406C820.274 599.402 820.886 584.277 821.867 569.3C822.054 566.432 822.348 563.602 822.42 560.726C821.683 560.027 821.974 560.125 821.097 559.811Z" fill="#FDFEFD"/>
<path d="M418.861 191.609C413.54 185.427 407.96 179.606 402.033 174.025C401.262 173.298 401.54 172.753 401.75 171.942L402.712 171.595C407.292 174.747 417.393 186.121 421.237 190.613C425.431 195.809 428.64 199.853 432.373 205.459C433.829 207.646 437.592 214.354 438.686 215.704C438.56 217.396 438.849 216.633 437.625 217.999C433.34 209.735 425.325 198.649 418.861 191.609Z" fill="#224B3E"/>
<path d="M434.411 180.245C440.423 179.622 440.479 180.908 446.842 177.952C444.482 184.659 442.522 190.959 438.477 196.89C437.49 192.874 435.758 184.882 434.379 181.308L434.411 180.245Z" fill="#8EECF5"/>
<path d="M617.952 184.949C613.263 184.722 613.01 182.112 614.187 178.21C617.061 178.397 617.666 178.325 619.019 180.939C619.034 183.122 619.017 183.006 617.952 184.949Z" fill="#343831"/>
<path d="M431.338 184.346C434.13 194.644 436.687 205.221 438.687 215.704C437.593 214.354 433.83 207.646 432.374 205.459C428.641 199.853 425.432 195.809 421.238 190.613C423.252 188.917 428.91 185.338 431.338 184.346Z" fill="#8EECF5"/>
<path d="M418.862 191.609C425.326 198.649 433.341 209.735 437.626 217.999C445.262 234.84 442.983 281.767 438.717 300.441C428.74 288 408.64 277.584 394.602 270.351C386.189 249.536 366.49 227.358 349.391 212.89C353.849 211.548 360.906 210.401 365.435 209.38C377.063 206.76 411.379 198.724 418.862 191.609Z" fill="#8EECF5"/>
<path d="M702.619 249.316C706.149 247.785 711.962 242.034 715.354 239.59C751.41 213.62 798.691 195.859 842.611 211.845C854.631 216.221 856.463 222.398 862.366 233.269C877.852 266.52 879.559 301.12 867.385 335.846C866.115 339.469 859.592 356.229 856.116 359.504C856.003 359.611 854.062 360 853.677 360.072L853.257 360.764L854.714 361.761C854.726 364.558 837.618 386.711 834.309 390.587C833.373 391.683 830.091 394.188 828.771 395.129C830.135 398.731 833.003 405.984 833.799 409.531C836.867 423.195 839.155 434.372 843.996 447.703C848.622 460.442 857.415 471.533 860.242 484.357C861.448 489.823 859.319 496.268 856.969 501.191C853.986 507.44 852.481 509.853 846.753 513.583C841.951 506.985 836.48 497.938 833.184 490.38C826.005 473.924 821.616 457.803 809.375 443.985C812.751 445.783 816.822 448.142 820.736 447.059C823.617 444.477 820.668 437.983 819.186 434.876C808.998 413.516 789.141 402.581 767.951 394.433L770.155 393.835C783.9 390.001 829.823 372.253 835.919 361.432C836.024 360.472 835.951 360.013 835.556 359.099C832.874 352.906 798.098 326.303 790.77 321.753C783.928 317.505 776.687 314.158 769.296 311.013C774.354 305.713 784.062 302.301 786.533 296.275C787.812 293.156 777.096 285.804 774.894 283.949C761.352 272.541 745.251 268.945 727.828 270.676C720.064 271.448 710.618 273.817 702.733 273.215L702.016 273.157C712.541 259.716 731.953 255.764 702.619 249.316Z" fill="#FDDAC3"/>
<path d="M345.448 212.37C364.427 228.221 381.333 247.615 392.53 269.761C385.664 267.308 375.562 263.292 368.514 262.153C354.033 259.813 339.792 256.316 325.475 253.524C300.66 248.685 275.56 250.08 250.867 255.047C252.694 252.216 258.352 249.563 261.467 247.659C279.247 236.791 298.019 228.42 317.421 220.911C323.158 218.69 342.048 215.353 345.448 212.37Z" fill="#8EECF5"/>
<path d="M835.458 394.864C838.77 389.617 844.201 386.248 848.05 381.251C873.698 347.952 886.047 303.749 877.09 262.259C873.712 246.609 868.42 234.37 860.87 220.468C868.862 226.147 874.594 230.856 879.995 239.258C902.048 273.566 899.923 308.354 878.589 342.422C874.647 348.716 868.49 356.075 863.944 361.855C851.181 378.084 844.936 390.179 840.929 410.386C840.435 413.77 839.981 416.482 839.254 419.819C836.937 411.583 835.407 403.437 835.458 394.864Z" fill="#FDDAC3"/>
<path d="M452.358 297.722C450.773 298.235 450.485 298.319 448.95 299.129C447.309 299.763 446.193 300.457 444.555 300.024L444.469 299.162C452.793 286.722 484.799 277.301 499.029 272.193C520.553 264.467 533.448 255.348 550.818 240.492C547.057 246.624 542.169 250.344 536.83 254.922C521.523 267.989 503.147 277.377 484.256 284.129C473.044 288.137 463.115 292.681 452.358 297.722Z" fill="url(#paint3_linear_17_15719)"/>
<path d="M701.87 343.783L700.812 343.284C701.6 338.521 714.797 328.259 718.281 324.971C721.831 321.62 731.592 319.165 732.845 317.948C732.185 316.599 732.658 317.189 731.042 316.448C721.811 316.394 700.566 335.762 697.612 343.965C678.834 345.035 639.044 349.045 621.346 356.508C618.533 354.895 615.023 352.854 612.007 351.772C617.608 323.429 631.965 303.012 655.738 285.949C658.97 283.629 666.441 280.06 668.158 277.094C665.685 276.526 658.144 281.117 656.04 282.517C631.894 298.577 616.035 321.6 609.632 349.554L609.281 351.117C604.491 350.031 600.132 349.17 595.212 348.837C586.543 331.511 582.253 318.473 588.443 298.936C595.155 277.754 620.27 258.3 641 252.652C640.261 255.827 636.711 266.752 641.158 267.679C646.534 265.288 651.075 262.25 656.242 259.922C676.075 250.989 693.303 250.344 713.894 256.625C710.056 259.34 694.832 270.305 699.044 276.197C702.538 278.154 708.074 277.505 711.944 276.927C742.006 272.442 760.523 273.231 782.569 296.435C778.252 299.279 764.548 306.955 764.681 312.402C766.183 314.392 769.275 315.648 771.58 316.603C794.8 326.219 812.793 344.571 831.839 360.407C815.04 372.431 795.79 381.196 776.054 387.181C771.949 388.426 762.75 390.237 760.968 393.996C761.035 394.911 760.848 395.194 761.484 395.617C765.707 398.431 772.054 400.332 776.664 402.481C794.127 410.626 812.092 423.751 817.337 443.158C814.105 441.778 806.707 438.037 803.507 438.851C800.267 443.595 808.147 448.631 810.632 452.379C824.241 472.902 828.13 497.348 843.654 516.911C813.316 507.431 803.694 525.123 774.631 528.384C767.237 529.213 751.265 523.575 747.389 525.364C744.892 528.988 749.73 534.084 752.067 537.052C729.008 536.283 721.999 532.082 703.981 518.342C711.6 486.337 706.615 467.306 680.705 446.161C675.21 430.725 671.25 416.819 668.394 400.582C677.324 407.398 686.36 414.106 695.415 420.755C707.106 429.339 719.428 437.064 731.132 445.623C732.043 446.29 732.274 447.057 732.66 448.046C731.329 458.699 736.161 498.362 742.79 506.368C738.399 487.533 734.269 467.706 735.115 448.095C751.434 458.202 767.265 468.764 783.051 479.654C789.41 484.041 806.364 497.539 812.172 500.276C805.273 491.228 791.731 482.954 782.451 475.985C767.158 464.5 750.438 454.546 734.598 443.814C742.695 439.641 754.13 438.204 763.232 438.084C765.737 438.051 770.777 439.567 773.697 439.351L773.645 438.764C764.436 431.49 741.607 437.936 731.926 442.772C723.211 436.115 713.474 429.967 704.583 423.498C693.04 415.101 681.463 406.637 670.003 398.13C680.877 398.154 695.78 397.637 705.813 393.923C700.422 393.921 693.513 394.706 687.995 395.044C680.976 395.474 674.599 395.531 667.555 395.528C662.457 392.069 647.3 380.522 642.639 376.382C636.636 371.05 634.076 364.697 624.634 358.571C652.953 349.652 688.597 346.866 718.115 346.064C724.259 349.829 732.66 353.09 738.647 357.224C743.005 360.233 746.771 364.271 751.393 367.553L752.045 368.012C743.708 355.675 736.113 352.366 723.229 346.055C740.417 344.999 756.789 346.836 773.735 349.572C778.003 350.261 794.03 353.682 796.854 352.891C790.615 348.541 755.727 344.301 746.578 343.856C733.706 343.23 714.841 342.8 701.87 343.783Z" fill="#FDE4CF"/>
<path d="M184.918 279.963C189.37 271.084 194.236 264.513 202.992 259.785C205.09 261.096 215.507 266.75 216.059 267.26C213.814 268.701 213.164 269.033 211.342 270.901C255.444 250.982 296.13 248.653 342.585 260.444C327.923 263.01 312.71 268.981 299.307 275.459C292.901 278.556 260.402 294.71 260.31 301.245L261.041 301.815C265.41 300.986 269.63 295.451 273.371 293.324C294.99 281.033 329.895 261.777 355.242 263.385C381.421 265.046 419.778 283.986 437.177 303.575C428.825 308.499 420.592 313.578 412.46 318.859C394.381 315.116 354.886 311.877 339.27 321.835L338.766 322.756C340.004 323.579 339.421 323.52 340.842 323.221C345.24 322.297 351.716 319.738 356.073 319.261C370.99 317.628 393.814 317.903 408.371 320.868C403.888 324.746 396.685 328.907 391.632 332.287C370.947 346.125 351.453 361.894 332.567 378.081C316.615 375.502 293.174 381.774 278.423 388.124C276.555 388.929 272.673 390.528 271.535 392.031L271.657 392.931C273.741 393.625 279.784 390.128 282.112 389.203C292.276 385.164 318.828 377.946 329.193 380.717C328.31 382.567 325.759 383.867 324.414 385.113C312.102 396.521 241.35 462.1 238.503 472.589L238.824 473.354C242.541 471.4 271.111 439.087 277.573 433.525C295.326 418.245 312.799 396.07 333.244 383.791C331.972 387.096 323.724 396.395 321.372 400.144C317.824 405.798 298.953 436.492 300.484 441.987L301.282 442.461C302.6 441.704 307.18 430.748 308.641 428.012C316.233 413.794 325.878 397.598 335.963 385.074C357.741 359.274 382.145 342.193 410.808 324.589C394.382 352.048 389.248 373.822 381.011 404.758C380.595 406.32 380.14 408.235 380.942 409.501L381.897 409.543C384.117 407.695 384.395 404.224 385.216 401.268C392.579 374.763 400.363 342.32 418.426 320.972C421.218 317.672 435.974 309.549 440.334 306.993C453.455 323.423 462.727 340.791 463.711 362.058C426.036 361.078 401.225 385.953 398.403 422.922C375.558 424.407 360.572 436.329 349.724 456.356C345.591 463.986 344.37 471.277 343.162 479.786C330.125 488.559 324.807 489.506 311.533 495.933C314.35 467.642 286.676 482.427 273.205 488.701C273.897 486.713 274.629 484.711 275.177 482.678C275.917 479.933 276.533 475.947 274.738 473.459C267.873 463.943 231.635 496.205 218.988 494.305C218.295 493.611 217.932 493.537 218.057 492.389C220.906 466.219 240.215 435.131 226.28 409.42C227.607 403.729 228.538 400.348 231.862 394.891C235.182 389.44 244.221 382.575 245.228 376.074C245.39 375.028 244.728 373.793 243.799 373.194C240.983 371.378 236.294 372.816 233.289 373.415C237.812 358.005 252.292 346.03 265.6 338.072C269.286 335.868 281.091 332.542 280.737 327.926C279.951 326.993 279.053 326.468 277.859 326.259C263.807 324.14 251.534 321.527 238.402 316.044C223.735 309.92 220.299 299.973 208.683 290.817C202.523 285.962 192.03 284.375 184.918 279.963Z" fill="#B9FBC0"/>
<path d="M478.627 290.879L478.448 290.837L478.398 290.46C504.447 281.809 518.237 274.369 539.752 257.968L539.984 258.122C540.246 259.643 529.129 284.436 527.778 287.837C510.134 290.093 494.706 288.583 478.627 290.879Z" fill="#FDDAC3"/>
<path d="M500.09 294.86C501.819 293.891 504.164 294.023 506.215 293.925C513.528 293.552 518.983 293.174 526.298 292.09L523.693 300.426C514.008 296.642 510.532 295.552 500.09 294.86Z" fill="#FFCFD2"/>
<path d="M506.213 293.925C504.162 294.023 501.817 293.891 500.088 294.86L493.562 294.518L492.974 293.894L491.969 294.193C494.792 292.852 502.99 293.606 506.213 293.925Z" fill="#FDDAC3"/>
<path d="M448.949 299.129C450.484 298.319 450.772 298.235 452.357 297.722C457.486 298.876 466.413 296.563 473.344 296.916C468.131 298.361 454.406 299.595 448.949 299.129Z" fill="#66838C"/>
<path d="M460.977 302.524C471.001 300.292 479.973 299.281 490.157 298.708C501.863 298.485 511.141 299.36 521.945 304.148C518.511 320.166 515.464 331.353 513.62 348.293C512.524 342.266 511.589 338.685 509.32 333.022C500.318 313.355 481.061 306.104 460.977 302.524Z" fill="#FDDAC3"/>
<path d="M467.902 362.764C466.053 344.761 461.683 332.511 451.991 316.992C449.657 313.254 446.25 309.528 444.03 305.997L443.531 305.195C458.686 303.806 481.621 310.082 493.862 319.218C502.479 325.65 508.306 336.234 509.525 346.861C510.559 355.88 508.409 360.447 503.176 367.293C501.438 369.406 499.836 372.054 498.331 374.373C487.62 367.256 480.569 364.758 467.902 362.764Z" fill="#B9FBC0"/>
<path d="M881.766 346.618C890.876 332.681 893.643 324.537 897.813 308.871C906.081 312.354 911.448 314.218 917.41 321.257C932.545 339.127 937.948 364.631 931.212 387.045C927.911 398.03 924.9 405.244 916.404 412.658C903.882 419.321 895.29 409.843 892.042 397.99C890.5 392.367 890.59 384.957 889.258 378.967C886.855 368.155 884.363 357.387 881.766 346.618Z" fill="#FDDAC3"/>
<path d="M227.356 313.83C245.214 325.08 255.469 325.683 274.973 329.338C263.051 334.964 253.166 340.212 243.869 350.08C241.554 348.141 234.263 348.272 231.22 348.624C216.259 350.35 200.105 355.52 186.571 362.019C173.377 368.354 161.935 378.868 152.504 389.819C144.087 399.672 138.731 411.377 131.872 422.26C127.226 429.675 122.663 434.735 116.683 441.035C112.788 433.772 112.269 410.455 112.806 402.297C114.46 377.194 120.136 346.541 143.569 332.565C159.644 322.977 178.12 317.629 196.697 315.925C202.936 315.277 222.847 315.738 227.356 313.83Z" fill="#FBF8CC"/>
<path d="M573.631 351.404C565.206 346.067 546.153 327.227 539.389 318.252C539.072 317.831 539.821 316.21 540.078 315.462C543.1 317.889 546.045 321.957 549.111 324.527C557.949 331.936 567.6 338.338 577.986 343.372C580.613 344.645 586.273 346.633 588.316 348.249C587.376 349.252 587.914 348.818 585.941 348.953C581.37 349.611 578.142 350.322 573.631 351.404Z" fill="#FFCFD2"/>
<path d="M697.614 343.965C700.568 335.762 721.813 316.394 731.044 316.448C732.66 317.189 732.187 316.599 732.847 317.948C731.594 319.165 721.833 321.62 718.283 324.971C714.799 328.259 701.602 338.521 700.814 343.284L701.872 343.783C714.843 342.8 733.708 343.23 746.58 343.856C755.729 344.301 790.617 348.541 796.856 352.891C794.032 353.682 778.005 350.261 773.737 349.572C756.791 346.836 740.419 344.999 723.231 346.055C736.115 352.366 743.71 355.675 752.047 368.012L751.395 367.553C746.773 364.271 743.007 360.233 738.649 357.224C732.662 353.09 724.261 349.829 718.117 346.064C688.599 346.866 652.955 349.652 624.636 358.571C622.75 358.163 622.642 357.893 621.348 356.508C639.046 349.045 678.836 345.035 697.614 343.965Z" fill="#343831"/>
<path d="M533.172 336.382C534.33 331.138 535.27 327.464 536.8 322.322C537.592 323.071 541.145 328.447 543.116 330.57C550.237 338.241 560.937 346.293 567.804 353.446C566.896 354.739 566.274 354.769 564.718 355.548C562.511 355.284 538.394 339.219 533.172 336.382Z" fill="#FFCFD2"/>
<path d="M537.817 386.001C536.46 384.014 534.712 381.784 533.403 379.839C527.058 370.402 530.221 350.666 532.629 340.165C535.055 341.489 540.793 345.916 543.418 347.696C549.043 351.513 554.407 354.786 560.243 358.281C553.386 363.124 549.912 366.321 544.887 372.989C541.878 377.495 540.166 381.169 537.817 386.001Z" fill="#B9FBC0"/>
<path d="M116.686 441.035C122.666 434.735 127.229 429.675 131.875 422.26C138.734 411.377 144.09 399.672 152.507 389.819C161.938 378.868 173.38 368.354 186.574 362.019C200.108 355.52 216.262 350.35 231.223 348.624C234.266 348.272 241.557 348.141 243.872 350.08L241.836 352.294C228.755 352.995 223.979 354.626 211.966 357.963C190.442 363.943 175.682 372.791 160.242 389.202C149.688 400.419 143.527 415.008 135.152 427.833C130.355 435.179 124.515 441.414 118.466 447.782C108.762 456.393 98.3074 461.646 85.8375 465.44C81.6714 466.708 76.5278 467.393 72.5017 468.699C68.074 470.44 65.4112 472.611 60.405 473.023C53.4755 473.594 46.0574 469.072 46.0313 461.448C45.9977 451.609 56.4464 448.672 64.6638 449.462C70.6348 450.036 71.8996 450.8 75.8718 455.182C76.2123 456.953 76.3802 459.454 76.5605 461.303C88.8264 458.603 107.935 450.363 116.686 441.035ZM56.8379 457.178C55.686 457.471 53.7693 457.769 53.5955 458.991C52.2103 468.732 60.0934 467.208 64.8635 464.549C67.2405 463.073 70.8981 461.531 68.9853 458.446C64.929 456.361 61.4435 456.93 56.8379 457.178Z" fill="#FDFEFD"/>
<path d="M541.043 386.395C549.006 367.347 567.47 353.977 587.987 352.205C598.121 350.857 611.843 354.672 620.334 360.109C667.177 390.1 654.595 456.723 601.344 470.248C597.204 471.293 592.989 471.683 588.749 472.185C594.029 432 580.578 400.803 541.043 386.395Z" fill="#8EECF5"/>
<path d="M861.178 471.696C859.292 467.384 857.842 462.152 855.788 457.537C852.048 449.137 846.519 439.929 844.277 431.085C843.378 425.834 844.486 420.657 845.041 415.459C846.945 397.645 855.283 381.998 865.668 367.708C869.571 362.338 873.861 357.317 877.676 351.816C879.537 356.857 880.655 365.915 882.165 371.448C884.154 378.737 886.067 387.547 886.654 394.996C889.132 426.479 873.11 452.166 863.751 479.895C862.927 477.161 862.039 474.421 861.178 471.696Z" fill="#FDDAC3"/>
<path d="M118.465 447.782C124.514 441.414 130.354 435.179 135.151 427.833C143.526 415.008 149.687 400.419 160.241 389.202C175.681 372.791 190.441 363.943 211.965 357.963C223.978 354.626 228.754 352.995 241.835 352.294C238.725 356.046 226.561 370.32 232.03 375.368C234.248 377.415 239.764 376.322 242.647 375.87L242.279 376.473C236.715 385.467 228.394 390.103 224.574 401.36C221.112 411.563 223.728 410.307 226.523 420.025C228.705 427.608 227.257 441.464 225.16 449.01C222.994 449.657 221.406 450.483 219.441 451.536C200.643 461.599 183.061 474.156 166.847 487.972C164.937 489.599 162.875 491.375 160.885 492.907C144.028 481.617 128.449 465.492 118.465 447.782Z" fill="#FBF8CC"/>
<path d="M500.832 376.175C503.839 373.091 507.589 367.984 510.325 364.474L510.617 364.846C510.863 373.288 512.259 379.559 514.196 387.667L508.247 382.389L500.832 376.175Z" fill="#B9FBC0"/>
<path d="M446.561 476.482C382.181 460.425 392.082 373.457 454.339 365.691C455.187 365.549 456.546 365.515 457.427 365.494C479.536 364.963 493.459 373.093 508.975 387.381C477.382 400.902 460.598 436.051 468.526 469.296C464.118 470.202 460.68 470.972 456.369 472.212C452.901 473.357 449.851 474.911 446.561 476.482Z" fill="#CFBAF0"/>
<path d="M333.243 383.791C335.184 383.956 334.264 383.65 335.962 385.074C325.877 397.598 316.232 413.794 308.64 428.012C307.179 430.748 302.599 441.704 301.281 442.461L300.483 441.987C298.952 436.492 317.823 405.798 321.371 400.144C323.723 396.395 331.971 387.096 333.243 383.791Z" fill="url(#paint4_linear_17_15719)"/>
<path d="M648.314 434.069C655.461 415.384 653.135 401.721 646.516 383.809C650.463 385.476 661.213 394.734 665.699 397.951C666.799 407.855 669.128 416.58 671.577 426.16C672.339 429.14 676.597 441.721 676.261 443.232L673.415 441.992C666.185 438.078 656.387 435.285 648.314 434.069Z" fill="#FDE4CF"/>
<path d="M538.024 516.38C504.598 519.516 480.361 499.188 471.631 467.432C462.382 433.785 486.671 395.665 520.17 387.587C533.727 386.578 546.949 390.543 558.003 398.271C602.24 429.201 596.426 506.425 538.024 516.38Z" fill="#CFBAF0"/>
<path d="M392.09 545.852C333.051 534.81 328.961 436.883 397.733 425.671L398.072 425.683C398.812 426.562 400.184 435.649 400.926 438.056C407.614 459.753 420.56 471.909 442.314 478.924C418.34 492.626 406.467 518.418 409.639 545.547C403.401 546.957 398.376 546.866 392.09 545.852Z" fill="#8EECF5"/>
<path d="M587.911 475.232C616.767 473.247 632.405 462.298 646.455 437.434C677.767 443.496 703.506 462.514 703.748 497.483C703.857 513.25 694.043 534.21 682.675 545.055C671.826 555.406 657.218 557.942 642.642 557.462C634.366 556.348 631.066 554.237 625.007 549.097C625.306 518.311 613.528 496.237 584.977 483.485C586.158 480.551 586.95 478.242 587.911 475.232Z" fill="#CFBAF0"/>
<path d="M732.663 448.046C734.853 448.148 732.779 446.821 735.118 448.095C734.272 467.706 738.402 487.533 742.793 506.368C736.164 498.362 731.332 458.699 732.663 448.046Z" fill="#343831"/>
<path d="M160.887 492.907C162.877 491.375 164.939 489.599 166.849 487.972C183.063 474.156 200.645 461.599 219.443 451.536C221.408 450.483 222.996 449.657 225.162 449.01C222.685 459.058 215.669 481.685 214.677 490.309C211.014 492.496 202.647 498.765 200.423 502.246L200.429 503.445C184.705 503.563 171.469 509.377 160.236 520.376C143.283 536.976 137.358 565.466 164.639 575.792L164.61 576.453C164.311 582.07 162.727 591.353 162.099 596.419C160.6 608.493 162.237 661.275 167.285 670.458C159.311 686.878 157.424 712.823 180.575 717.136C187.406 740.561 199.311 766.203 208.465 788.942C181.416 779.818 152.265 762.06 134.003 740.322C65.4564 658.722 85.4294 559.431 160.887 492.907Z" fill="#98F5E1"/>
<path d="M64.8625 464.549C60.0924 467.208 52.2093 468.732 53.5945 458.991C53.7683 457.769 55.685 457.471 56.8369 457.178C61.4425 456.93 64.928 456.361 68.9843 458.446C70.8971 461.531 67.2395 463.073 64.8625 464.549Z" fill="#E6DFD5"/>
<path d="M467.08 595.152C420.48 593.36 396.968 536.233 423.636 500.16C435.547 484.047 448.422 476.812 467.844 473.133L468.487 473.065C469.76 473.832 472.81 481.674 473.831 483.774C481.384 499.32 495.783 511.996 512.194 517.513C504.928 541.158 505.284 553.95 516.788 575.747C499.992 589.037 488.785 595.226 467.08 595.152Z" fill="#8EECF5"/>
<path d="M202.529 503.762C204.554 502.985 211.43 494.855 214.471 492.456C214.741 493.787 215.048 495.947 216.418 496.568C229.15 502.342 262.062 474.036 271.184 475.088C275.073 478.592 268.8 487.512 271.128 491.43C277.561 492.655 299.687 475.548 307.482 485.446C309.827 488.423 306.312 496.107 307.653 499.143C312.551 501.006 338.538 487.082 342.991 483.516C342.999 493.882 343.828 500.392 347.371 510.277C322.117 535.655 321.277 583.427 347.12 608.974C349.055 610.887 350.961 612.634 353.044 614.385C351.464 619.803 342.824 649.789 342.771 653.403C334.287 680.509 330.667 713.72 328.076 742.035C327.636 746.844 326.697 772.054 325.886 774.495C316.445 779.799 306.926 785.566 296.701 789.197C294.811 789.869 291.138 790.588 290.068 792.181C285.43 793.726 274.654 796.306 269.953 795.881C284.13 784.333 296.26 764.246 291.978 745.301C287.068 722.91 263.362 722.92 247.613 733.531C229.393 745.807 216.57 770.868 222.943 792.648L217.847 792.145C215.285 791.558 214.366 791.344 211.976 790.301C211.328 786.781 205.843 776.112 204.272 772.239C199.669 760.891 194.939 749.473 190.718 737.965C188.422 731.706 185.354 724.208 183.742 717.829C212.086 718.825 237.472 687.469 233.349 659.777C231.336 646.253 215.989 634.661 202.293 638.435C187.865 642.41 176.121 655.616 168.491 667.992C167.141 662.298 166.31 653.981 165.784 648.06C163.581 623.258 163.054 601.13 167.549 576.513C213.199 581.725 243.308 515.37 202.529 503.762ZM261.043 516.665C216.003 522.346 208.005 594.011 249.122 590.328C262.079 588.878 269.269 583.264 277.701 573.624C294.038 554.946 290.593 518.797 261.043 516.665ZM305.907 578.171C260.707 583.938 242.835 656.879 291.533 655.614C304.544 654.22 314.905 648.703 323.419 638.455C335.252 624.209 339.668 597.513 324.242 584.065C319.82 580.211 311.86 577.838 305.907 578.171Z" fill="#98F5E1"/>
<path d="M515.606 518.547C532.726 523.147 550.387 519.254 564.779 509.186C574.129 502.645 578.836 496.093 584.111 486.204C652.292 517.737 619.787 625.594 550.575 601.041C525.855 591.072 510.523 567.383 510.809 540.754C510.899 532.405 512.766 526.307 515.606 518.547Z" fill="#CFBAF0"/>
<path d="M200.428 503.445L200.422 502.246C202.646 498.765 211.013 492.496 214.676 490.309L214.471 492.456C211.43 494.855 204.554 502.985 202.529 503.762L200.428 503.445Z" fill="#6FCA9A"/>
<path d="M853.237 515.831C855.296 515.376 856.36 515.256 858.211 514.306C859.107 513.128 858.983 511.55 858.872 510.004C858.673 507.23 860.062 504.913 861.279 502.342C862.249 504.459 861.669 516.088 861.615 519.15C861.061 550.312 850.878 579.522 830.713 603.419C829.458 604.906 827.324 608.098 825.48 608.281C825.572 590.242 826.416 571.059 828.874 553.166C828.849 553.345 835.958 546.348 836.604 545.606C845.167 535.757 850.249 528.398 853.237 515.831Z" fill="#FDDAC3"/>
<path d="M164.638 575.792C137.357 565.466 143.282 536.976 160.235 520.376C171.468 509.377 184.704 503.563 200.428 503.445L202.529 503.762C243.308 515.37 213.199 581.725 167.549 576.513L164.638 575.792ZM194.075 507.276C178.715 510.016 165.612 516.891 156.648 529.953C145.763 545.814 145.642 562.027 164.332 572.039C177.736 577.267 197.987 567.094 207.088 557.034C221.446 541.161 225.723 504.11 194.075 507.276Z" fill="#FDFEFD"/>
<path d="M194.075 507.276C225.723 504.11 221.446 541.161 207.088 557.034C197.987 567.094 177.736 577.267 164.332 572.039C165.361 570.188 165.868 567.944 166.389 565.91C171.164 547.254 178.717 529.373 189.911 513.628C191.118 511.931 192.578 509.86 193.623 508.064L194.075 507.276Z" fill="#98F5E1"/>
<path d="M164.331 572.039C145.641 562.027 145.762 545.814 156.647 529.953C165.611 516.891 178.714 510.016 194.074 507.276L193.622 508.064C192.577 509.86 191.117 511.931 189.91 513.628C178.716 529.373 171.163 547.254 166.388 565.91C165.867 567.944 165.36 570.188 164.331 572.039Z" fill="#98F5E1"/>
<path d="M390.955 622.788C334.013 625.089 313.047 552.568 348.412 513.905C349.366 514.891 352.026 520.01 353.019 521.618C366.031 542.683 385.595 553.006 410.053 548.744C411.711 557.816 413.631 561.564 418.249 569.628C403.365 581.292 395.636 593.576 392.148 612.083C391.624 615.486 391.31 619.328 390.955 622.788Z" fill="#CFBAF0"/>
<path d="M249.122 590.328C208.005 594.011 216.003 522.346 261.043 516.665C290.593 518.797 294.038 554.946 277.701 573.624C269.269 583.264 262.079 588.878 249.122 590.328ZM259.156 520.101C240.848 523.912 228.005 540.429 226.126 558.595C224.189 577.316 232.417 589.629 252.415 586.482C263.307 584.159 271.064 578.525 277.344 569.233C286.297 555.987 288.274 533.098 272.873 523.573C268.885 521.106 263.837 519.735 259.156 520.101Z" fill="#FDFEFD"/>
<path d="M751.624 528.924C777.144 534.951 786.017 532.661 810.192 522.052C823.918 516.029 833.51 518.615 847.174 522.623C842.63 528.825 837.679 536.95 833.658 541.674C803.546 577.061 751.925 584.421 713.442 558.255C713.27 558.404 713.099 558.553 712.927 558.702L712.733 559.342C710.076 548.256 705.377 539.947 697.992 531.323C699.631 528.333 701.113 525.05 702.576 521.951C718.729 535.059 732.946 541.916 754.548 540.634C756.087 540.543 756.818 539.52 757.492 538.37C757.521 535.281 753.682 531.442 751.624 528.924Z" fill="#FDDAC3"/>
<path d="M252.412 586.482C232.414 589.629 224.186 577.316 226.123 558.595C228.002 540.429 240.845 523.912 259.153 520.101C263.834 519.735 268.882 521.106 272.87 523.573C288.271 533.098 286.294 555.987 277.341 569.233C271.061 578.525 263.304 584.159 252.412 586.482Z" fill="#98F5E1"/>
<path d="M624.989 554.59C641.931 566.301 663.911 562.838 680.493 552.055C687.104 547.757 691.569 540.782 696.021 534.42L696.48 535.037C705.893 547.805 711.496 559.935 708.957 576.224C706.02 595.058 695.356 608.642 680.31 619.612C678.258 605.194 674.499 595.25 664.592 584.262C653.216 572.134 639.276 565.406 622.746 564.33C623.577 561.409 624.317 557.619 624.989 554.59Z" fill="#CFBAF0"/>
<path d="M757.934 610.165C771.307 593.053 793.422 582.708 809.771 568.761C812.984 566.02 817.456 561.463 821.1 559.811C821.977 560.125 821.686 560.027 822.423 560.726C822.351 563.602 822.057 566.432 821.87 569.3C820.889 584.277 820.277 599.402 819.968 614.406C806.692 627.439 781.608 640.841 765.858 650.291L764.897 646.345C762.321 637.833 757.959 618.65 757.934 610.165Z" fill="#FDDAC3"/>
<path d="M713.568 566.739C719.44 568.322 725.485 572.245 731.501 574.156C750.118 580.069 770.074 580.946 788.994 575.886C794.316 574.478 798.715 572.514 803.772 570.851C792.154 579.485 779.561 585.003 769.189 595.541C755.628 609.317 743.583 624.523 729.761 638.114C727.297 640.536 721.991 647.059 719.451 648.802C705.434 643.801 694.181 644.348 680.395 643.056C681.597 635.904 681.422 631.102 681.312 623.894C701.299 608.033 713.546 593.533 713.568 566.739Z" fill="#FDDAC3"/>
<path d="M596.26 601.23C610.855 589.568 614.681 584.344 621.817 567.558C629.495 568.679 634.879 569.292 642.134 572.389C681.969 589.396 688.915 644.48 659.856 674.417C651.583 682.94 643.285 687.659 631.992 691.625C615.993 695.711 604.19 693.244 591.137 683.085C594.461 679.395 597.584 676.071 600.251 671.851C614.46 649.37 613.262 621.474 596.26 601.23Z" fill="#8EECF5"/>
<path d="M476.415 671.566C452.361 686.406 421.811 682.515 405.186 658.96C386.157 631.997 393.1 591.945 420.016 572.937C420.844 573.472 424.668 577.655 425.517 578.601C445.598 600.949 472.609 603.382 499.185 592.096C496.923 596.071 494.573 599.644 492.605 603.805C484.129 621.726 484.477 639.466 490.87 657.863C486.277 664.172 482.803 667.117 476.415 671.566Z" fill="#CFBAF0"/>
<path d="M164.636 575.792L167.547 576.513C163.052 601.13 163.579 623.258 165.782 648.06C166.308 653.981 167.139 662.298 168.489 667.992L167.282 670.458C162.234 661.275 160.597 608.493 162.096 596.419C162.724 591.353 164.308 582.07 164.607 576.453L164.636 575.792Z" fill="#6FCA9A"/>
<path d="M291.532 655.614C242.834 656.879 260.706 583.938 305.906 578.171C311.859 577.838 319.819 580.211 324.241 584.065C339.667 597.513 335.251 624.209 323.418 638.455C314.904 648.703 304.543 654.22 291.532 655.614ZM304.039 581.621C262.293 591.301 249.133 656.419 293.627 652.027C306.287 649.666 315.566 643.976 323.247 633.132C332.373 620.246 335.039 594.527 320.182 584.566C315.36 581.334 309.642 581.244 304.039 581.621Z" fill="#FDFEFD"/>
<path d="M576.823 688.543C565.763 693.72 556.009 696.311 543.629 694.716C508.686 690.196 484.665 657.626 489.936 622.894C492.935 603.128 502.826 591.312 518.367 579.869C519.724 580.705 523.187 585.24 524.484 586.785C542.745 608.52 567.821 613.602 593.332 602.904C610.584 626.351 612.034 653.413 592.366 676.672C587.976 681.863 582.73 685.255 576.823 688.543Z" fill="#8EECF5"/>
<path d="M293.628 652.027C249.134 656.419 262.293 591.301 304.039 581.621C309.642 581.244 315.36 581.334 320.182 584.566C335.039 594.527 332.374 620.246 323.248 633.132C315.567 643.976 306.288 649.666 293.628 652.027Z" fill="#98F5E1"/>
<path d="M722.707 649.578C732.398 638.725 742.634 628.465 751.76 617.116C753.148 615.391 754.88 613.321 756.423 611.802C758.415 627.991 758.522 635.414 762.582 651.871C758.333 654.255 750.344 658.378 746.872 661.062C738.838 657.107 731.212 652.579 722.707 649.578Z" fill="#FDDAC3"/>
<path d="M353.042 614.385C365.33 623.421 375.846 626.423 391.242 626.515C391.553 630.76 392.021 635.401 392.973 639.56C385.837 638.762 382.261 638.138 375.034 641.143C347.56 652.565 340.88 703.984 375.589 710.302C377.135 710.583 377.352 710.457 378.465 709.538C378.822 713.225 379.888 715.831 380.994 719.339C375.2 727.995 368.664 737.819 361.311 745.181C359.894 745.628 333.086 769.824 329.112 772.974C328.865 769.474 329.915 757.208 330.15 753.172C331.607 728.167 334.716 703.178 338.346 678.411C339.219 672.457 342.559 658.177 342.769 653.403C342.822 649.789 351.462 619.803 353.042 614.385Z" fill="#8FD0B5"/>
<path d="M819.927 621.397L821.227 640.629C819.582 643.662 815.866 648.101 813.677 650.859C804.617 662.274 795.226 673.359 787.185 685.547C786.026 687.305 784.295 690.491 782.947 691.94C779.297 688.095 776.208 684.436 772.798 680.391C771.156 677.243 767.701 660.72 766.648 656.181C771.21 653.039 777.496 650.199 782.251 647.273C793.399 640.411 810.773 630.345 819.927 621.397Z" fill="#FDDAC3"/>
<path d="M168.489 667.992C176.119 655.616 187.863 642.41 202.291 638.435C215.987 634.661 231.334 646.253 233.347 659.777C237.47 687.469 212.084 718.825 183.74 717.829L180.572 717.136C157.421 712.823 159.308 686.878 167.282 670.458L168.489 667.992ZM168.972 673.823L168.181 676.228C163.963 689.872 161.841 707.904 179.333 712.913L179.936 713.081L180.584 713.141C192.384 718.092 210.956 706.364 218.165 697.251C230.36 683.061 238.584 652.79 216.922 642.565C197.333 633.318 176.247 659.032 168.972 673.823Z" fill="#FDFEFD"/>
<path d="M378.466 709.538C377.353 710.457 377.136 710.583 375.59 710.302C340.881 703.984 347.561 652.565 375.035 641.143C382.262 638.138 385.838 638.762 392.974 639.56L393.953 643.455C365.172 635.373 346.452 673.127 359.384 695.825C363.686 703.375 369.645 705.802 377.74 707.345L378.466 709.538Z" fill="#FDFEFD"/>
<path d="M168.973 673.823C176.248 659.032 197.334 633.318 216.923 642.565C238.585 652.79 230.361 683.061 218.166 697.251C210.957 706.364 192.385 718.092 180.585 713.141C181.381 712.427 181.078 712.871 181.436 711.772C180.545 706.893 177.003 699.005 175.528 693.739C173.832 687.685 172.453 681.412 170.526 675.5C170.293 674.786 169.676 674.458 168.973 673.823Z" fill="#98F5E1"/>
<path d="M377.74 707.345C369.645 705.802 363.686 703.375 359.384 695.825C346.452 673.127 365.172 635.373 393.953 643.455C394.031 645.493 386.024 656.919 384.523 660.712C378.16 676.785 375.874 690.3 377.74 707.345Z" fill="#8FD0B5"/>
<path d="M680.396 643.056C694.182 644.348 705.435 643.801 719.452 648.802C699.322 671.003 686.274 689.537 677.464 718.383C668.548 747.581 671.322 768.205 691.014 791.691C693.301 794.748 695.495 796.444 698.566 798.532C696.309 795.901 694.449 793.717 691.965 791.292C666.367 757.899 676.086 728.007 690.886 693.087C707.971 702.24 723.681 713.435 729.466 732.935C735.631 753.717 732.687 768.854 723.022 787.802C704.614 823.891 666.955 841.906 641.366 870.821C637.238 869.468 634.781 868.08 630.908 866.045C626.404 864.245 617.755 859.921 614.262 857.017C630.817 841.602 637.731 818.08 632.234 796.159C630.2 788.048 626.79 781.816 622.718 774.66C651.189 753.492 656.661 722.824 642.762 691.085L643.679 690.577C664.23 679.012 673.971 665.878 680.396 643.056Z" fill="#98F5E1"/>
<path d="M424.295 749.813C416.361 748.538 410.452 746.14 403.712 741.787C371.941 721.267 376.265 676.802 395.293 648.807C396.98 650.335 399.716 657.02 401.267 659.362C414.759 679.734 434.387 685.464 457.471 682.811C457.315 688.752 457.138 693.793 457.527 699.734C444.786 708.153 435.66 721.746 429.316 735.363C427.126 740.665 425.907 744.398 424.295 749.813Z" fill="#F1C0E8"/>
<path d="M691.43 691.464C697.708 680.458 712.603 656.219 722.708 649.578C731.213 652.579 738.839 657.107 746.873 661.062C748.17 661.757 750.964 663.368 752.186 663.892C757.398 667.693 761.687 671.26 766.235 675.865C776.714 705.267 785.155 730.311 775.392 761.22C771.218 774.437 759.015 801.118 748.4 809.772C735.647 811.51 727.173 813.823 715.649 807.354C717.093 805.643 719.214 802.398 720.4 800.452C732.214 781.072 739.151 763.423 733.846 740.79C727.687 714.517 712.825 704.795 691.43 691.464Z" fill="#98F5E1"/>
<path d="M342.772 653.403C342.562 658.177 339.222 672.457 338.349 678.411C334.719 703.178 331.61 728.167 330.153 753.172C329.918 757.208 328.868 769.474 329.115 772.974C328.102 774.506 327.953 774.46 326.419 775.38L325.887 774.495C326.698 772.054 327.637 746.844 328.077 742.035C330.668 713.72 334.288 680.509 342.772 653.403Z" fill="#6FCA9A"/>
<path d="M752.188 663.892C754.687 661.637 760.398 658.864 763.669 656.977C764.667 661.898 766.307 670.781 766.237 675.865C761.689 671.26 757.399 667.693 752.188 663.892Z" fill="#FDE4CF"/>
<path d="M515.517 737.68C488.202 744.046 463.915 723.198 460.709 696.122C460.487 694.249 459.893 682.791 461.716 682.124C474.54 677.431 482.5 671.968 492.371 662.393C494.023 664.089 497.831 671.056 500.017 673.621C514.144 690.188 528.012 696.08 548.779 698.419C546.206 718.383 534.458 731.438 515.517 737.68Z" fill="#8EECF5"/>
<path d="M168.184 676.228L168.975 673.823C169.678 674.458 170.295 674.786 170.528 675.5C172.455 681.412 173.834 687.685 175.53 693.739C177.005 699.005 180.547 706.893 181.438 711.772C181.08 712.871 181.383 712.427 180.587 713.141L179.939 713.081C177.871 706.664 174.099 699.767 172.17 692.47C171.185 688.748 169.204 678.814 168.184 676.228Z" fill="#6FCA9A"/>
<path d="M179.937 713.081L179.334 712.913C161.842 707.904 163.964 689.872 168.182 676.228C169.202 678.814 171.183 688.748 172.168 692.47C174.097 699.767 177.869 706.664 179.937 713.081Z" fill="#98F5E1"/>
<path d="M772.8 680.391C776.21 684.436 779.299 688.095 782.949 691.94C809.781 731.27 815.016 776.761 788.467 817.939C763.962 855.949 723.316 875.334 678.784 876.191C678.415 876.197 677.945 875.978 677.594 875.835C688.942 867.147 699.707 860.965 710.94 852.899C726.676 841.6 742.632 825.197 755.417 810.623C765.933 808.065 780.05 801.737 788.201 794.623C775.538 801.07 770.433 803.051 757.112 807.692C760.726 802.814 763.912 798.105 767.056 792.994C785.018 763.788 789.572 727.436 777.927 695.024C776.228 690.297 773.987 685.266 772.8 680.391Z" fill="#98F5E1"/>
<path d="M551.719 698.46C566.469 696.947 576.141 694.216 588.228 685.39C603.59 698.68 621.369 698.782 639.759 692.551C653.469 717.112 646.772 751.058 624.916 768.527C614.428 776.91 604.639 780.472 591.356 781.801C561.582 784.629 538.544 762.233 528.641 736.051C542.291 725.5 550.146 716.117 551.719 698.46Z" fill="#8EECF5"/>
<path d="M509.109 818.557C494.7 825.603 484.148 827.349 468.157 824.945C456.601 823.321 444.016 817.357 437.321 807.352C415.702 775.045 427.232 725.604 458.283 703.884C458.891 704.988 459.658 707.532 460.211 708.903C471.558 737.063 497.421 749.838 525.838 737.466C529.812 749.357 533.717 756.508 542.608 765.403C542.08 788.911 529.368 807.385 509.109 818.557Z" fill="#F1C0E8"/>
<path d="M180.574 717.136L183.742 717.829C185.354 724.208 188.422 731.706 190.718 737.965C194.939 749.473 199.669 760.891 204.272 772.239C205.843 776.112 211.328 786.781 211.976 790.301L208.464 788.942C199.31 766.203 187.405 740.561 180.574 717.136Z" fill="#6FCA9A"/>
<path d="M361.312 745.181C368.665 737.819 375.201 727.995 380.995 719.339C383.757 725.493 386.568 730.573 391.212 735.575C387.747 737.945 378.837 748.1 374.955 751.786C363.231 762.916 351.125 772.9 338.254 782.682C336.024 784.378 329.206 789.882 327.002 791.122C326.991 787.929 326.919 786.05 326.567 782.871C326.543 780.7 326.659 779.229 326.023 777.125L326.887 776.351C341.756 766.275 349.204 758.185 361.312 745.181Z" fill="#F1C0E8"/>
<path d="M318.849 781.663L326.023 777.125C326.659 779.229 326.543 780.7 326.567 782.871C309.86 799.091 285.178 811.438 261.673 810.527C245.119 809.885 231.464 809.12 222.942 792.648C216.569 770.868 229.392 745.807 247.612 733.531C263.361 722.92 287.067 722.91 291.977 745.301C296.259 764.246 284.129 784.333 269.952 795.881C263.002 799.916 244.475 805.229 239.051 797.344C246.281 797.649 254.744 798.248 261.605 795.627C272.07 791.631 280.474 780.549 284.902 770.619C288.844 761.734 290.672 750.27 286.996 741.024C281.89 728.178 267.088 728.589 256.3 733.253C241.93 739.466 232.791 752.14 227.164 766.336C223.213 776.303 222.848 783.598 227.178 793.414C233.787 805.317 251.81 805.247 263.823 805.598C281.629 806.117 306.41 794.009 318.849 781.663Z" fill="#FDFEFD"/>
<path d="M227.176 793.414C222.846 783.598 223.211 776.303 227.162 766.336C232.789 752.14 241.928 739.466 256.298 733.253C267.086 728.589 281.888 728.178 286.994 741.024C290.67 750.27 288.842 761.734 284.9 770.619C280.472 780.549 272.068 791.631 261.603 795.627C254.742 798.248 246.279 797.649 239.049 797.344C234.953 795.667 232.372 796.11 227.176 793.414Z" fill="#98F5E1"/>
<path d="M327.002 791.122C329.206 789.882 336.024 784.378 338.254 782.682C351.125 772.9 363.231 762.916 374.955 751.786C378.837 748.1 387.747 737.945 391.212 735.575L393.194 737.739C381.195 752.818 367.041 765.737 351.914 777.646C346.543 781.874 331.441 791.992 327.416 795.994C320.843 802.369 295.204 814.668 286.557 817.526C266.997 823.992 246.456 826.526 226.576 832.911C217.722 836.972 211.325 840.618 203.703 846.633C212.56 844.294 219.652 843.093 228.907 842.895C236.521 842.846 244.984 845.6 252.766 846.124C279.788 847.942 307.878 839.856 333.013 830.104C368.632 815.067 402.721 788.473 417.955 752.085C419.591 752.493 421.545 753.04 423.171 753.346C417.623 759.954 413.929 770.823 408.218 778.168C394.344 796.01 377.26 811.054 357.664 822.358C349.48 827.098 341.713 830.475 333.328 834.455C308.144 844.765 293.406 849.771 265.959 851.058C279.147 856.875 293.001 862.046 306.765 866.308C319.573 870.274 331.369 870.567 344.608 870.125C381.194 867.013 418.935 844.85 444.58 819.148L447.595 821.28C443.75 826.209 438.23 830.885 433.285 835.027C409.541 854.913 380.89 868.876 350.242 873.894C349.126 874.076 347.337 874.176 346.223 874.237C336.629 874.931 325.967 875.31 316.456 873.766C288.952 869.303 258.653 850.859 230.859 848.814C230.529 848.705 230.146 848.555 229.778 848.564C216.513 848.902 201.585 851.805 191.369 860.837C189.089 862.548 187.192 868.429 185.358 869.942C181.984 872.728 177.675 872.205 178.072 878.302C178.255 880.63 179.645 881.791 181.332 883.084C183.259 884.561 184.086 884.783 184.321 887.123C181.816 891.493 178.102 889.403 174.508 887.477C170.469 881.847 169.958 876.558 173.92 870.651C185.049 854.061 206.853 832.96 226.338 827.806C232.53 825.412 252.593 821.314 259.486 819.914C288.082 814.107 302.786 806.732 327.002 791.122Z" fill="#FDFEFD"/>
<path d="M393.192 737.739C399.045 742.762 409.99 751.078 417.953 752.085C402.719 788.473 368.63 815.067 333.011 830.104C331.149 821.043 329.562 812.006 328.521 802.812C328.26 800.51 327.937 798.252 327.414 795.994C331.439 791.992 346.541 781.874 351.912 777.646C367.039 765.737 381.193 752.818 393.192 737.739Z" fill="#F1C0E8"/>
<path d="M329.114 772.974C333.088 769.824 359.896 745.628 361.313 745.181C349.205 758.185 341.757 766.275 326.888 776.351L326.418 775.38C327.952 774.46 328.101 774.506 329.114 772.974Z" fill="#5E9F7F"/>
<path d="M423.171 753.346C423.763 755.234 422.379 763.708 422.427 766.645C422.757 786.453 427.722 806.97 444.58 819.148C418.935 844.85 381.194 867.013 344.608 870.125C339.169 856.69 336.755 848.492 333.328 834.455C341.713 830.475 349.48 827.098 357.664 822.358C377.26 811.054 394.344 796.01 408.218 778.168C413.929 770.823 417.623 759.954 423.171 753.346Z" fill="#F1C0E8"/>
<path d="M516.523 818.152C535.54 805.172 542.562 791.297 545.977 769.161C553.607 774.744 559.778 780.128 569.132 782.75C588.383 788.146 602.709 785.393 619.743 776.677C629.564 792.879 633.663 808.2 628.46 826.954C624.214 842.263 616.124 852.005 602.958 860.483C573.896 876.537 542.11 863.98 524.766 836.963C520.901 830.941 518.839 824.844 516.523 818.152Z" fill="#CFBAF0"/>
<path d="M290.066 792.181C291.136 790.588 294.809 789.869 296.699 789.197C306.924 785.566 316.443 779.799 325.884 774.495L326.416 775.38L326.886 776.351L326.022 777.125L318.848 781.663C315.76 782.472 312.813 784.435 309.731 785.777C303.407 788.531 296.825 790.76 290.066 792.181Z" fill="#6FCA9A"/>
<path d="M290.069 792.181C296.828 790.76 303.41 788.531 309.734 785.777C312.816 784.435 315.763 782.472 318.851 781.663C306.412 794.009 281.631 806.117 263.825 805.598C251.812 805.247 233.789 805.317 227.18 793.414C232.376 796.11 234.957 795.667 239.053 797.344C244.477 805.229 263.004 799.916 269.954 795.881C274.655 796.306 285.431 793.726 290.069 792.181Z" fill="#FBF8CC"/>
<path d="M222.941 792.648C231.463 809.12 245.118 809.885 261.672 810.527C285.177 811.438 309.859 799.091 326.566 782.871C326.918 786.05 326.99 787.929 327.001 791.122C302.785 806.732 288.081 814.107 259.485 819.914C252.592 821.314 232.529 825.412 226.337 827.806C225.526 826.133 223.704 814.978 223.169 812.392C222.109 807.267 217.751 796.855 217.845 792.145L222.941 792.648Z" fill="#FBF8CC"/>
<path d="M691.016 791.691L691.967 791.292C694.451 793.717 696.311 795.901 698.568 798.532C695.497 796.444 693.303 794.748 691.016 791.691Z" fill="#8EECF5"/>
<path d="M226.574 832.911C246.454 826.526 266.995 823.992 286.555 817.526C295.202 814.668 320.841 802.369 327.414 795.994C327.937 798.252 328.26 800.51 328.521 802.812C329.562 812.006 331.149 821.043 333.011 830.104C307.876 839.856 279.786 847.942 252.764 846.124C244.982 845.6 236.519 842.846 228.905 842.895C228.748 842.549 227.334 835.233 226.574 832.911Z" fill="#FBF8CC"/>
<path d="M646.641 872.974C655.19 860.273 671.353 849.504 683.242 839.54C695.544 829.231 703.223 821.333 713.647 809.382C726.04 814.379 734.316 815.97 747.641 812.092L747.13 812.553C740.382 818.695 734.911 826.195 727.618 832.546C712.718 845.52 697.254 856.315 680.603 866.82C676.322 869.52 672.239 873.24 668.433 875.756C661.294 873.868 652.833 874.526 646.641 872.974Z" fill="#98F5E1"/>
<path d="M467.568 828.404C483.756 831.76 498.782 828.448 512.973 820.428C513.292 820.501 514.084 820.934 514.154 821.176C521.444 846.283 540.212 864.827 566.097 869.988C561.1 897.084 540.998 914.914 513.154 914.973C492.676 912.936 476.212 901.698 466.925 883.125C457.075 863.428 460.848 847.98 467.568 828.404Z" fill="#CFBAF0"/>
<path d="M447.595 821.28C449.705 822.408 454.908 825.487 457.147 825.371C454.981 827.308 453.424 830.532 451.384 832.849C431.751 855.147 408.607 876.571 381.714 889.669C374.262 893.299 367.064 895.546 359.707 898.765C355.826 890.809 350.622 883.683 346.223 874.237C347.337 874.176 349.126 874.076 350.242 873.894C380.89 868.876 409.541 854.913 433.285 835.027C438.23 830.885 443.75 826.209 447.595 821.28Z" fill="#F1C0E8"/>
<path d="M359.706 898.765C367.063 895.546 374.261 893.299 381.713 889.669C408.606 876.571 431.75 855.147 451.383 832.849C453.423 830.532 454.98 827.308 457.146 825.371L459.403 826.441C456.555 831.012 453.613 835.955 450.139 840.117C445.24 845.985 439.685 851.177 434.117 856.517C413.965 875.845 390.727 893.379 363.455 900.995C362.907 901.148 362.156 901.275 361.593 901.378C355.635 902.734 332.894 907.903 328.602 905.067C329.781 904.465 330.028 904.39 331.303 904.005C336.204 904.116 354.511 900.069 359.706 898.765Z" fill="#FDFEFD"/>
<path d="M459.404 826.441L464.185 827.837C456.611 845.154 454.844 861.913 461.579 879.812C472.364 908.47 505.476 927.118 534.839 914.529C554.942 905.911 565.354 891.36 569.499 870.392C585.695 872.433 599.548 868.471 612.438 858.455L614.262 857.017C617.755 859.921 626.404 864.245 630.908 866.045C620.222 896.88 570.882 933.772 542.158 948.002C471.91 982.8 405.025 969.228 361.594 901.378C362.157 901.275 362.908 901.148 363.456 900.995C390.728 893.379 413.966 875.845 434.118 856.517C439.686 851.177 445.241 845.985 450.14 840.117C453.614 835.955 456.556 831.012 459.404 826.441Z" fill="#F1C0E8"/>
<path d="M203.703 846.633C211.325 840.618 217.722 836.972 226.576 832.911C227.336 835.233 228.75 842.549 228.907 842.895C219.652 843.093 212.56 844.294 203.703 846.633Z" fill="#E6DFD5"/>
<path d="M265.961 851.058C293.408 849.771 308.146 844.765 333.33 834.455C336.757 848.492 339.171 856.69 344.61 870.125C331.371 870.567 319.575 870.274 306.767 866.308C293.003 862.046 279.149 856.875 265.961 851.058Z" fill="#FBF8CC"/>
<path d="M331.304 904.005C311.935 905.644 296.861 904.105 278.88 896.071C261.935 888.498 250.922 880.493 239.846 865.514C235.905 860.185 232.706 855.767 230.324 849.502L230.859 848.814C258.653 850.859 288.952 869.303 316.456 873.766C325.967 875.31 336.629 874.931 346.223 874.237C350.622 883.683 355.826 890.809 359.707 898.765C354.512 900.069 336.205 904.116 331.304 904.005Z" fill="#FBF8CC"/>
<path d="M615.859 939.763C623.353 907.361 625.65 899.536 646.643 872.974C652.835 874.526 661.296 873.868 668.435 875.756C652.08 889.006 637.955 907.935 629.608 927.337C627.769 931.61 625.962 938.392 624.708 942.974C620.543 942.385 619.443 941.967 615.859 939.763Z" fill="#E6DFD5"/>
<defs>
<linearGradient id="paint0_linear_17_15719" x1="627.025" y1="253.975" x2="626.974" y2="48.4971" gradientUnits="userSpaceOnUse">
<stop stop-color="#FFCEB3"/>
<stop offset="1" stop-color="#E4DDEF"/>
</linearGradient>
<linearGradient id="paint1_linear_17_15719" x1="816.783" y1="606.702" x2="150.681" y2="366.875" gradientUnits="userSpaceOnUse">
<stop stop-color="#2F3639"/>
<stop offset="1" stop-color="#28473D"/>
</linearGradient>
<linearGradient id="paint2_linear_17_15719" x1="523.37" y1="247.742" x2="435.743" y2="182.902" gradientUnits="userSpaceOnUse">
<stop stop-color="#C2FBC0"/>
<stop offset="1" stop-color="#B1FFFF"/>
</linearGradient>
<linearGradient id="paint3_linear_17_15719" x1="493.588" y1="264.095" x2="499.107" y2="278.408" gradientUnits="userSpaceOnUse">
<stop stop-color="#F8ACD7"/>
<stop offset="1" stop-color="#FAD6E5"/>
</linearGradient>
<linearGradient id="paint4_linear_17_15719" x1="318.78" y1="413.395" x2="315.118" y2="411.103" gradientUnits="userSpaceOnUse">
<stop stop-color="#1C5436"/>
<stop offset="1" stop-color="#2C4A3F"/>
</linearGradient>
</defs>
</svg>
