<svg width="1024" height="1024" viewBox="0 0 1024 1024" fill="none" xmlns="http://www.w3.org/2000/svg">
<path d="M473.039 95.4011C552.416 92.2913 650.097 100.01 713.823 153.183C741.058 175.908 750.011 206.88 738.695 240.486C732.645 247.997 726.288 255.727 721.742 264.262C719.773 267.96 718.29 272.035 716.549 275.893C707.2 275.507 698.166 275.414 688.848 276.251C669.219 278.013 633.392 288.144 619.086 301.076C618.631 301.489 618.191 301.917 617.766 302.359L597.339 272.605C598.438 270.069 599.019 267.543 600.442 264.902C601.29 263.018 604.98 259.889 605.436 258.19C605.694 256.019 598.365 251.352 597.805 250.404C596.247 247.765 589.299 245.865 589.588 246.268C586.456 241.902 583.71 239.489 579.902 235.968C563.578 220.875 545.188 206.576 529.25 191.227C527.086 178.702 521.976 187.297 526.138 175.161C527.54 171.072 518.83 148.011 514.449 145.992L514.117 145.84C521.021 138.34 513.46 128.71 504.855 135.914C502.5 127.269 479.943 102.686 473.039 95.4011Z" fill="#E1DDEF"/>
<path d="M269.614 375.991C267.565 374.488 265.054 373.139 262.892 371.749C238.354 355.976 213.689 339.441 192.537 319.267C174.241 301.817 155.321 278.571 154.767 252.149C154.275 228.652 164.667 205.99 181.179 189.6C248.191 121.53 381.362 96.8487 473.039 95.4011C479.943 102.686 502.5 127.269 504.855 135.914C503.429 138.842 502.946 139.966 503.782 143.077L504.75 144.217C505.243 148.588 497.82 158.745 497.064 164.31C496.428 168.994 494.351 172.873 497.071 177.991C497.753 179.528 498.239 180.554 498.192 182.153C497.279 183.14 496.991 183.395 495.938 184.235L495.173 186.185C495.082 187.387 495.152 189.95 494.337 190.75C483.16 201.721 470.903 211.682 459.373 222.305C459.217 222.414 459.062 222.523 458.906 222.632C453.096 222.214 432.127 240.206 426.524 244.673L384.593 278.389C357.719 299.699 329.673 320.223 303.783 342.594C293.642 351.356 277.822 365.249 269.764 376.02L269.614 375.991Z" fill="#FBCFBE"/>
<path d="M504.854 135.914C513.459 128.71 521.02 138.34 514.116 145.84L512.518 146.696L511.973 146.504C509.963 146.846 508.803 147.073 506.876 146.369C506.319 145.771 505.847 145.276 505.256 144.703L504.749 144.217L503.781 143.077C502.945 139.966 503.428 138.842 504.854 135.914ZM509.321 135.941C504.424 139.323 505.147 143.829 511.25 144.848C513.591 142.782 515.284 140.795 513.841 137.579C512.236 136.06 511.612 136.029 509.321 135.941Z" fill="#0D1F47"/>
<path d="M511.251 144.848C505.148 143.829 504.425 139.323 509.322 135.941C511.613 136.029 512.237 136.06 513.842 137.579C515.285 140.795 513.592 142.782 511.251 144.848Z" fill="#8EECF5"/>
<path d="M504.749 144.217L505.256 144.703C505.847 145.276 506.319 145.771 506.876 146.369C508.803 147.073 509.963 146.846 511.973 146.504L512.518 146.696L512.264 147.2C510.617 148.079 509.399 147.733 507.504 147.559C503.117 155.334 497.266 166.446 498.891 175.838C499.17 177.452 500.85 179.946 501.768 181.394C508.248 181.352 514.728 181.378 521.207 181.473C529.488 167.487 512.423 151.514 514.448 145.992C518.829 148.011 527.539 171.072 526.137 175.161C521.975 187.297 527.085 178.702 529.249 191.227L528.725 191.3C528.101 189.464 527.512 187.535 526.676 185.794L525.735 185.339C525.052 188.088 529.328 193.553 529.801 195.437L527.614 193.741C527.079 193.342 526.48 192.223 526.079 191.591C526.108 183.092 516.604 184.24 510.513 184.407C505.585 184.543 500.512 183.506 497.486 187.579C497.13 188.154 496.953 188.271 496.484 188.764L495.762 188.466L495.172 186.185L495.937 184.235C496.99 183.395 497.278 183.14 498.191 182.153C498.238 180.554 497.752 179.528 497.07 177.991C494.35 172.873 496.427 168.994 497.063 164.31C497.819 158.745 505.242 148.588 504.749 144.217Z" fill="#12214E"/>
<path d="M512.518 146.696L514.116 145.84L514.448 145.992C512.423 151.514 529.488 167.487 521.207 181.473C514.728 181.378 508.248 181.352 501.768 181.394C500.85 179.946 499.17 177.452 498.891 175.838C497.266 166.446 503.117 155.334 507.504 147.559C509.399 147.733 510.617 148.079 512.264 147.2L512.518 146.696Z" fill="#98F5E1"/>
<path d="M497.484 187.579C500.51 183.506 505.583 184.543 510.511 184.407C516.602 184.24 526.106 183.092 526.077 191.591C521.872 193.393 515.236 193.749 510.69 193.61C504.919 193.434 498.33 194.562 497.484 187.579Z" fill="#8EECF5"/>
<path d="M458.906 222.632C459.062 222.523 459.217 222.414 459.373 222.305C470.903 211.682 483.16 201.721 494.337 190.75C495.152 189.95 495.082 187.387 495.173 186.185L495.763 188.466L496.485 188.764C496.954 188.271 497.131 188.154 497.487 187.579C498.333 194.562 504.922 193.434 510.693 193.61C515.239 193.749 521.875 193.393 526.08 191.591C526.481 192.223 527.08 193.342 527.615 193.741C525.719 195.14 525.386 195.373 523.262 196.336C531.232 209.032 539.843 218.819 548.738 230.838C550.421 232.994 558.442 242.158 558.554 244.224L557.796 245.701C553.427 241.127 547.655 233.623 543.611 228.585C537.454 220.31 524.565 204.887 520.471 196.561C514.56 196.509 508.363 196.541 502.478 196.357C496.672 205.855 490.595 215.185 484.256 224.336C482.556 226.841 478.202 233.545 476.366 235.387L475.951 234.981C476.629 228.767 481.147 224.11 484.521 219.079C489.685 211.494 494.654 203.778 499.423 195.939C497.276 194.848 497.239 194.392 495.19 194.497C490.513 198.186 484.623 204.111 479.924 208.327C470.266 216.991 460.076 225.611 450.697 234.508C446.202 238.452 441.754 241.906 438.57 246.993C451.019 249.615 470.19 250.007 483.083 250.546C491.696 250.906 504.572 251.385 513.029 251.138C518.792 251.256 524.556 251.251 530.317 251.122C538.942 251.154 550.808 251.486 559.26 250.521C568.28 250.367 578.291 249.415 586.955 247.021C582.245 241.097 566.509 227.708 560.382 222.369C553.387 216 534.713 201.245 529.802 195.437C529.329 193.553 525.053 188.088 525.736 185.339L526.677 185.794C527.513 187.535 528.102 189.464 528.726 191.3L529.25 191.227C545.188 206.576 563.578 220.875 579.902 235.968C583.71 239.489 586.456 241.902 589.588 246.268C589.299 245.865 596.247 247.765 597.805 250.404C598.365 251.352 605.694 256.019 605.436 258.19C604.98 259.889 601.29 263.018 600.442 264.902C599.019 267.543 598.438 270.069 597.339 272.605L617.766 302.359C627.667 316.726 637.334 331.252 646.763 345.933C651.13 352.742 656.668 362.731 661.13 368.947L706.932 441.794C713.791 452.448 720.411 463.255 726.787 474.205C737.043 491.45 748.45 503.028 724.087 514.889C689.762 531.599 650.654 533.893 613.534 537.924C605.88 538.435 598.22 538.863 590.557 539.21C588.383 539.318 581.724 539.156 580.473 540.391L580.063 540.483C578.581 539.277 576.977 539.712 574.813 539.939L574.381 539.986C573.886 544.925 574.44 560.168 573.845 562.801L573.226 562.936C569.574 558.946 575.14 542.993 569.91 540.074L568.485 540.31C567.558 542.482 567.866 545.785 567.866 548.288C567.051 545.533 567.812 541.743 566.936 539.953L566.209 540.313C564.126 540.418 561.184 539.971 560.186 541.875C559.989 541.741 559.173 540.837 558.976 540.628C557.281 540.607 555.527 540.261 554.39 541.087C554.963 541.94 554.931 541.95 555.639 542.69L554.877 543.104C553.649 542.026 552.771 541.449 551.438 540.545C547.237 540.51 532.592 540.156 529.177 540.915C527.693 541.126 526.084 541.064 524.785 541.412C526.994 541.865 529.818 542.236 531.637 543.451C527.348 543.144 525.174 542.294 521.047 541.503C517.415 540.808 512.939 540.965 509.195 541.043C503.687 540.439 494.984 540.385 489.235 540.182C476.1 539.827 462.973 539.238 449.859 538.415C446.859 538.211 427.749 536.368 425.926 536.879L425.493 538.082H425.063L424.819 537.014C422.617 535.526 416.554 535.625 413.674 535.317C387.332 532.501 360.889 528.566 335.211 521.959C332.473 521.254 324.209 518.541 322.227 518.88L321.377 518.902C321.112 518.549 320.446 517.911 320.112 517.57C315.579 516.158 311.2 513.592 306.473 513.111C276.609 501.819 287.778 493.62 301.827 472.335C313.421 455.881 328.357 431.033 339.011 413.671C348.66 397.001 362.006 377.403 372.607 360.978C390.909 332.721 408.553 304.043 425.526 274.968C425.184 271.804 425.246 267.59 425.206 264.319C414.227 256.762 429.095 250.187 435.266 246.844C438.566 239.632 452.351 229.059 458.906 222.632ZM449.017 251.779C444.137 251.367 440.607 250.989 435.798 250.138C432.95 251.94 425.61 256.01 424.458 258.734C425.961 263.775 444.258 265.361 448.992 265.563C471.013 267.643 504.828 269.162 526.524 268.112C538.346 268.875 564.965 266.626 576.61 265.342C583.378 264.599 591.707 263.047 598.599 261.993L602.864 257.987C598.917 254.766 595.679 252.171 591.463 249.243C584.625 250.775 576.955 251.907 570.001 252.86C554.303 254.062 543.93 254.496 528.221 254.533C499.818 254.534 477.425 253.724 449.017 251.779ZM575.73 268.523C555.109 270.737 536.553 271.007 515.835 271.44C494.61 271.562 447.234 270.633 428.173 264.867C428.413 268.011 428.565 270.566 428.593 273.72C454.462 278.474 486.025 279.482 512.328 279.623C532.548 279.561 562.506 278.458 582.451 275.801C587.393 275.293 590.059 274.817 594.772 273.415C595.079 270.306 596.153 268.062 597.307 265.166C590.122 266.129 582.956 267.527 575.73 268.523ZM573.612 279.763C554.314 281.341 527.558 283.277 507.946 282.83C494.742 282.601 481.544 282.119 468.359 281.385C456.403 279.137 441.472 280.265 428.262 276.503C420.184 289.107 412.858 302.314 405.054 315.1C384.437 348.88 362.519 381.847 341.314 415.263C337.28 421.862 306.273 472.819 302.485 475.796C300.894 476.727 301.314 476.651 300.312 478.604L300.366 479.479C299.023 484.447 290.291 495.711 290.222 498.69C290.109 503.581 306.21 510.035 311.143 512.255C312.626 507.548 320.301 493.811 323.554 490.756L324.025 490.548C325.152 489.156 326.157 488.238 326.489 486.512C327.535 482.698 361.459 432.648 365.828 425.529C386.708 392.711 404.616 355.485 421.805 320.589C424.011 316.11 437.567 286.469 439.966 284.553L441.133 284.417C441.424 284.753 441.88 285.003 441.625 285.527C420.353 329.297 399.974 373.464 374.91 415.332C372.884 418.716 370.549 423.109 368.197 426.216C357.109 444.719 344.76 462.524 332.933 480.558C331.491 482.757 330.202 484.814 328.397 486.746C326.94 487.283 323.013 493.942 323.298 495.545C320.288 500.907 315.899 507.31 313.413 512.575C333.435 520.51 362.581 526.445 384.671 528.911C384.886 528.935 385.038 528.727 385.168 528.576L386.354 529.217L387.067 528.631L387.198 529.29C389.362 530.413 399.664 531.25 402.615 531.574C424.964 534.04 447.38 535.848 469.835 536.995C478.061 537.426 487.859 537.171 495.617 537.744C498.341 538.07 505.52 538.406 508.316 538.241C517.213 537.957 526.692 538.471 535.674 538.216C544.724 537.96 553.687 537.306 562.726 537.646C567.365 537.608 574.282 537.691 578.698 537.061C585.656 537.303 600.595 536.117 607.633 535.62C641.09 533.258 679.473 529.234 711.026 517.671C706.688 509.904 702.526 502.04 698.542 494.085C665.126 501.249 639.231 504.105 605.427 505.542C606.607 511.119 607.788 519.689 609.489 525.511C609.351 525.85 609.212 526.19 609.074 526.53L607.847 526.978L606.953 526.532C605.689 522.717 603.558 510.231 602.587 505.518C589.668 506.284 576.739 506.853 563.802 507.225C546.802 507.851 525.134 508.186 508.066 507.971L497.944 508.045C471.496 508.056 431.403 507.301 405.116 503.625C403.565 502.518 402.783 502.435 400.98 501.849C402.318 502.049 403.555 501.882 404.823 501.418C412.848 501.799 421.154 502.898 429.274 503.405C452.212 504.888 475.19 505.666 498.176 505.738C501.454 505.744 504.732 505.681 508.008 505.55C528.545 505.118 550.72 505.176 571.107 504.148C581.072 504.085 591.658 503.438 601.62 502.933C601.016 497.537 598.935 489.094 597.702 483.496C594.447 468.985 591.001 454.518 587.364 440.098C578.858 402.968 570.556 365.791 562.458 328.57L555.927 298.475C555.4 296.141 553.592 292.485 554.578 290.338L555.445 290.067L556.302 290.588C558.667 297.922 561.052 310.573 562.73 318.492C565.549 331.856 568.49 345.194 571.552 358.504C572.885 364.637 574.264 370.758 575.691 376.869C580.076 396.342 584.596 418.944 589.763 438.085C594.643 459.509 599.959 480.883 604.513 502.35C607.249 503.834 641.421 500.712 646.654 500.16C663.002 498.437 681.068 495.602 697.072 491.791C693.376 483.95 688.35 475.298 684.149 467.599C678.996 458.044 673.916 448.451 668.909 438.819C650.587 403.209 631.699 367.892 612.253 332.882C610.939 329.655 605.744 320.616 603.827 317.102L582.62 278.881C579.612 279.111 576.608 279.405 573.612 279.763ZM615.799 304.968C610.849 295.726 602.214 284.145 596.035 275.523C592.328 277.068 589.161 277.796 585.165 278.35C603.415 310.945 621.457 343.656 639.289 376.481C658.886 414.923 679.095 453.05 699.91 490.846C709.342 487.972 718.391 484.812 727.105 480.147C706.68 444.436 681.145 405.937 659.072 370.553C647.017 351.749 629.396 322.471 615.799 304.968ZM728.163 482.6C718.867 487.581 711.363 489.83 701.379 492.876C704.857 501.063 708.507 507.594 712.815 515.336L713.626 516.282C715.482 516.202 719.511 513.96 721.365 513.064C725.556 511.041 730.054 508.782 733.311 505.377C740.329 498.037 732.555 489.787 728.85 483.042C728.621 482.895 728.392 482.747 728.163 482.6Z" fill="#0D1F47"/>
<path d="M543.609 228.585C538.594 234.421 534.622 244.25 530.315 251.122C524.554 251.251 518.79 251.256 513.027 251.138C512.072 250.505 511.121 249.888 509.951 249.77C492.39 247.997 474.729 248.205 457.233 245.541C455.476 245.273 452.495 247.168 451.239 246.606C450.292 242.36 451.916 238.865 450.695 234.508C460.074 225.611 470.264 216.991 479.922 208.327C484.621 204.111 490.511 198.186 495.188 194.497C497.237 194.392 497.274 194.848 499.421 195.939C494.652 203.778 489.683 211.494 484.519 219.079C481.145 224.11 476.627 228.767 475.949 234.981L476.364 235.387C478.2 233.545 482.554 226.841 484.254 224.336C490.593 215.185 496.67 205.855 502.476 196.357C508.361 196.541 514.558 196.509 520.469 196.561C524.563 204.887 537.452 220.31 543.609 228.585Z" fill="#F1C0E8"/>
<path d="M523.262 196.336C525.386 195.373 525.719 195.14 527.615 193.741L529.802 195.437C534.713 201.245 553.387 216 560.382 222.369C558.068 225.317 552.119 229.099 548.738 230.838C539.843 218.819 531.232 209.032 523.262 196.336Z" fill="#CFBAF0"/>
<path d="M738.693 240.486C746.262 235.859 752.616 228.735 760.616 223.956C784.983 209.397 815.068 204.865 842.708 210.914C873.532 217.618 900.407 236.347 917.368 262.944C933.547 288.631 937.892 321.128 930.797 350.343C924.049 378.123 911.85 393.454 892.438 412.617C880.753 378.31 869.068 356.347 842.575 331.221C806.183 296.706 765.829 280.302 716.547 275.893C718.288 272.035 719.771 267.96 721.74 264.262C726.286 255.727 732.643 247.997 738.693 240.486Z" fill="#B9FBC0"/>
<path d="M560.382 222.369C566.509 227.708 582.245 241.097 586.955 247.021C578.291 249.415 568.28 250.367 559.26 250.521C559.024 249.168 558.257 247.083 557.796 245.701L558.554 244.224C558.442 242.158 550.421 232.994 548.738 230.838C552.119 229.099 558.068 225.317 560.382 222.369Z" fill="#CFBAF0"/>
<path d="M269.762 376.02C277.82 365.249 293.64 351.356 303.781 342.594C329.671 320.223 357.717 299.699 384.591 278.389L426.522 244.673C432.125 240.206 453.094 222.214 458.904 222.632C452.349 229.059 438.564 239.632 435.264 246.844C429.093 250.187 414.225 256.762 425.204 264.319C425.244 267.59 425.182 271.804 425.524 274.968C408.551 304.043 390.907 332.721 372.605 360.978C362.004 377.403 348.658 397.001 339.009 413.671C335.831 411.543 326.391 407.94 322.225 405.82C310.11 399.513 298.173 392.873 286.425 385.907C281.661 383.139 273.962 379.04 269.762 376.02Z" fill="#F9ACE8"/>
<path d="M530.316 251.122C534.623 244.25 538.595 234.421 543.61 228.585C547.654 233.623 553.426 241.127 557.795 245.701C558.256 247.083 559.023 249.168 559.259 250.521C550.807 251.486 538.941 251.154 530.316 251.122Z" fill="#E1DDEF"/>
<path d="M438.57 246.993C441.754 241.906 446.202 238.452 450.697 234.508C451.918 238.865 450.294 242.36 451.241 246.606C452.497 247.168 455.478 245.273 457.235 245.541C474.731 248.205 492.392 247.997 509.953 249.77C511.123 249.888 512.074 250.505 513.029 251.138C504.572 251.385 491.696 250.906 483.083 250.546C470.19 250.007 451.019 249.615 438.57 246.993Z" fill="#F9ACE8"/>
<path d="M570 252.86C576.954 251.907 584.624 250.775 591.462 249.243C595.678 252.171 598.916 254.766 602.863 257.987L598.598 261.993C591.706 263.047 583.377 264.599 576.609 265.342C575.916 263.02 572.472 257.893 571.014 255.593L570 252.86Z" fill="#C9F6E8"/>
<path d="M435.797 250.138C440.606 250.989 444.136 251.367 449.016 251.779C448.957 256.168 448.767 261.23 448.991 265.563C444.257 265.361 425.96 263.775 424.457 258.734C425.609 256.01 432.949 251.94 435.797 250.138Z" fill="#F9ACE8"/>
<path d="M449.014 251.779C477.422 253.724 499.815 254.534 528.218 254.533C527.198 257.029 524.603 262.333 524.123 264.452C522.555 265.81 522.496 265.425 522.046 267.076C523.331 268.217 524.717 268.017 526.521 268.112C504.825 269.162 471.01 267.643 448.989 265.563C448.765 261.23 448.955 256.168 449.014 251.779Z" fill="#F1C0E8"/>
<path d="M528.22 254.533C543.929 254.496 554.302 254.062 570 252.86L571.014 255.593C565.808 257.27 551.783 256.129 545.771 256.994C538.245 258.077 531.153 261.528 524.125 264.452C524.605 262.333 527.2 257.029 528.22 254.533Z" fill="#CFBAF0"/>
<path d="M524.124 264.452C531.152 261.528 538.244 258.077 545.77 256.994C551.782 256.129 565.807 257.27 571.013 255.593C572.471 257.893 575.915 263.02 576.608 265.342C564.963 266.626 538.344 268.875 526.522 268.112C524.718 268.017 523.332 268.217 522.047 267.076C522.497 265.425 522.556 265.81 524.124 264.452Z" fill="#FCFBFC"/>
<path d="M428.172 264.867C447.233 270.633 494.609 271.562 515.834 271.44C514.788 274.033 513.137 277.17 512.327 279.623C486.024 279.482 454.461 278.474 428.592 273.72C428.564 270.566 428.412 268.011 428.172 264.867Z" fill="#F1C0E8"/>
<path d="M575.73 268.523C582.956 267.527 590.122 266.129 597.307 265.166C596.153 268.062 595.079 270.306 594.772 273.415C590.059 274.817 587.393 275.293 582.451 275.801C581.416 269.172 579.923 271.945 575.73 268.523Z" fill="#98F5E1"/>
<path d="M515.835 271.44C536.553 271.007 555.109 270.737 575.73 268.523C579.923 271.945 581.416 269.172 582.451 275.801C562.506 278.458 532.548 279.561 512.328 279.623C513.138 277.17 514.789 274.033 515.835 271.44Z" fill="#FCFBFC"/>
<path d="M596.034 275.523C602.213 284.145 610.848 295.726 615.798 304.968C615.924 308.396 617.635 310.827 618.537 313.971C622.376 327.344 629.091 339.105 634.411 351.828C637.495 359.018 640.022 366.434 641.969 374.012C641.043 375.948 641.5 375.294 639.288 376.481C621.456 343.656 603.414 310.945 585.164 278.35C589.16 277.796 592.327 277.068 596.034 275.523Z" fill="#C9F6E8"/>
<path d="M617.766 302.359C618.191 301.917 618.631 301.489 619.086 301.076C633.392 288.144 669.219 278.013 688.848 276.251C698.166 275.414 707.2 275.507 716.549 275.893C708.171 296.84 705.308 319.587 708.235 341.957C703.375 343.692 664.322 365.245 661.13 368.947C656.668 362.731 651.13 352.742 646.763 345.933C637.334 331.252 627.667 316.726 617.766 302.359Z" fill="#FBCFBE"/>
<path d="M716.549 275.893C765.831 280.302 806.185 296.706 842.577 331.221C869.07 356.347 880.755 378.31 892.44 412.617L892.346 412.902C891.341 413.445 883.707 418.946 881.883 420.163C869.641 428.328 858.076 433.872 843.511 436.939C813.599 443.019 782.496 436.982 757.031 420.151C737.783 407.353 720.789 384.504 713.263 362.8C710.899 355.981 709.631 349.029 708.235 341.957C705.308 319.587 708.171 296.84 716.549 275.893Z" fill="#FBF8CC"/>
<path d="M428.26 276.503C441.47 280.265 456.402 279.137 468.358 281.385L470.971 282.397C471.535 284.067 470.937 284.334 469.887 285.875L469.23 285.981L468.828 286.52C464.673 297.589 461.93 309.5 458.293 320.769C446.104 358.531 434.131 396.388 420.877 433.793C420.183 435.751 418.749 439.536 418.432 441.505C415.63 440.594 407.062 439.859 403.167 438.76C391.158 435.371 379.573 431.29 368.196 426.216C370.548 423.109 372.883 418.716 374.909 415.332C399.973 373.464 420.352 329.297 441.624 285.527C441.879 285.003 441.423 284.753 441.132 284.417L439.965 284.553C437.566 286.469 424.009 316.11 421.803 320.589C404.614 355.485 386.707 392.711 365.827 425.529C358.086 423.089 349.719 418.022 341.312 415.263C362.517 381.847 384.436 348.88 405.053 315.1C412.857 302.314 420.182 289.107 428.26 276.503ZM433.75 334.671C431.196 340.787 411.257 389.939 412.064 392.69L413.694 393.65C414.698 392.073 419.958 377.879 420.421 376.106C422.266 369.043 435.679 340.892 435.428 336.015C434.519 334.958 434.951 335.233 433.75 334.671Z" fill="#F9ACE8"/>
<path d="M573.609 279.763C576.605 279.405 579.609 279.111 582.617 278.881L603.824 317.102C605.741 320.616 610.936 329.655 612.25 332.882C611.295 334.534 611.194 334.211 611.869 336.591C616.855 354.154 627.276 375.084 622.14 393.608C620.988 394.21 615.083 395.144 613.957 395.075L614.708 394.343C614.784 393.638 585.498 318.744 583.066 314.306C584.433 311.803 574.891 284.842 573.609 279.763Z" fill="#C9F6E8"/>
<path d="M507.945 282.83C527.557 283.277 554.313 281.341 573.611 279.763C574.893 284.842 584.435 311.803 583.068 314.306C581.418 316.171 581.239 315.929 582.164 318.644C575.375 321.207 573.237 334.155 573.016 340.73C572.828 346.338 574.195 351.894 573.675 357.392C572.85 357.824 572.141 358.195 571.551 358.504C568.489 345.194 565.548 331.856 562.729 318.492C561.051 310.573 558.666 297.922 556.301 290.588L555.444 290.067L554.577 290.338C553.591 292.485 555.399 296.141 555.926 298.475L562.457 328.57C570.555 365.791 578.857 402.968 587.363 440.098C586.807 441.374 586.848 441.294 585.848 442.268C574.545 449.264 560.503 455.192 547.045 451.977C544.357 451.335 538.223 448.885 536.448 446.847C536.001 434.716 534.852 415.488 533.628 403.685L532.789 403.029L532.713 403.077C530.562 408.149 531.864 413.677 532.249 419.042C532.808 426.724 533.286 434.411 533.684 442.102L533.278 442.772L532.348 442.822C516.095 431.284 516.894 422.531 516.384 403.852C516.894 399.944 515.973 391.398 516.647 388.186C518.764 378.096 521.018 370.645 521.442 360.031C521.795 351.216 519.427 347.07 513.523 340.585C513.28 329.611 516.95 301.783 514.812 293.563L514.35 293.492C512.242 298.229 511.576 327.2 510.931 334.656C504.089 330.704 506.214 290.448 507.945 282.83ZM536.264 318.674C535.277 321.41 539.245 367.769 540.164 373.61C541.144 374.372 541.192 374.291 542.422 374.599C542.704 373.154 542.495 368.695 542.153 367.495C540.419 361.41 540.122 320.452 536.264 318.674Z" fill="#FCFBFC"/>
<path d="M468.359 281.385C481.544 282.119 494.742 282.601 507.946 282.83C506.215 290.448 504.09 330.704 510.932 334.656C511.272 358.865 506.974 387.879 506.356 412.738C505.372 421.161 505.789 430.995 504.03 439.168C502.905 431.113 504.95 422.662 504.826 413.999L504.266 414.008C502.868 415.876 502.028 416.739 499.499 416.661C498.175 415.941 494.579 415.595 492.818 415.358C481.027 413.772 472.794 408.869 462.345 403.448C454.208 399.3 446.107 395.08 438.043 390.79C446.421 365.288 461.924 316.205 470.405 288.266C470.579 287.693 469.497 287.072 468.829 286.52L469.232 285.981L469.888 285.875C470.938 284.334 471.536 284.067 470.972 282.397L468.359 281.385ZM486.101 308.323C482.767 310.696 482.346 319.015 481.662 323.074C480.292 331.202 470.958 391.66 473.085 394.453C473.277 394.705 473.504 394.927 473.714 395.165C475.451 392.077 480.477 345.157 481.811 336.656C482.758 330.733 483.799 324.825 484.932 318.934C485.489 316.007 486.63 311.943 486.673 309.219L486.101 308.323Z" fill="#A3C4F3"/>
<path d="M468.827 286.52C469.495 287.072 470.577 287.693 470.403 288.266C461.922 316.205 446.419 365.288 438.041 390.79C433.718 403.483 429.9 416.261 425.473 428.895C424.179 432.588 422.421 438.377 420.955 441.854L400.408 500.435C401.297 500.601 404.22 501.051 404.821 501.418C403.553 501.882 402.316 502.049 400.978 501.849C402.781 502.435 403.563 502.518 405.114 503.625C403.165 503.457 401.071 503.317 399.143 503.069C397.045 507.955 389.625 525.643 387.196 529.29L387.065 528.631L386.352 529.217L385.166 528.576C388.897 519.884 393.134 511.484 396.454 502.613C374.643 500.781 347.913 496.926 327.012 490.177C325.863 492.005 324.755 493.98 323.296 495.545C323.011 493.942 326.938 487.283 328.395 486.746C328.453 487.632 328.311 487.174 329.015 488.045C332.91 489.598 338.372 490.762 342.525 491.765C360.587 496.215 379.011 499.037 397.576 500.196C400.555 493.596 404.121 483.081 406.511 476.186L418.431 441.505C418.748 439.536 420.182 435.751 420.876 433.793C434.13 396.388 446.103 358.531 458.292 320.769C461.929 309.5 464.672 297.589 468.827 286.52Z" fill="#12214E"/>
<path d="M510.931 334.656C511.576 327.2 512.242 298.229 514.35 293.492L514.812 293.563C516.95 301.783 513.28 329.611 513.523 340.585L510.45 384.622C509.958 391.677 508.894 402.652 509.003 409.507L508.633 411.593L506.355 412.738C506.973 387.879 511.271 358.865 510.931 334.656Z" fill="url(#paint0_linear_31_921)"/>
<path d="M615.797 304.968C629.394 322.471 647.015 351.749 659.07 370.553L658.58 370.64C654.145 371.39 644.802 371.032 641.968 374.012C640.021 366.434 637.494 359.018 634.41 351.828C629.09 339.105 622.375 327.344 618.536 313.971C617.634 310.827 615.923 308.396 615.797 304.968Z" fill="#FBCFBE"/>
<path d="M473.712 395.165C473.502 394.927 473.275 394.705 473.083 394.453C470.956 391.66 480.29 331.202 481.66 323.074C482.344 319.015 482.765 310.696 486.099 308.323L486.671 309.219C486.628 311.943 485.487 316.007 484.93 318.934C483.797 324.825 482.756 330.733 481.809 336.656C480.475 345.157 475.449 392.077 473.712 395.165Z" fill="#0D1F47"/>
<path d="M582.162 318.644C581.237 315.929 581.416 316.171 583.066 314.306C585.498 318.744 614.784 393.638 614.708 394.343L613.957 395.075C612.373 393.854 612.418 393.749 611.398 392.111C609.695 386.863 604.492 375.419 602.235 369.458C598.167 358.642 594.04 347.847 589.855 337.075C588.026 332.36 584.48 322.754 582.162 318.644Z" fill="#080F19"/>
<path d="M571.551 358.504C572.141 358.195 572.85 357.824 573.675 357.392C574.195 351.894 572.828 346.338 573.016 340.73C573.237 334.155 575.375 321.207 582.164 318.644C584.482 322.754 588.028 332.36 589.857 337.075C594.042 347.847 598.169 358.642 602.237 369.458C604.494 375.419 609.697 386.863 611.4 392.111C601.152 391.979 592.918 388.646 584.398 382.732C582.303 381.278 578.657 376.527 576.509 376.158L575.69 376.869C574.263 370.758 572.884 364.637 571.551 358.504Z" fill="#C9F6E8"/>
<path d="M542.424 374.599C541.194 374.291 541.146 374.372 540.166 373.61C539.247 367.769 535.279 321.41 536.266 318.674C540.124 320.452 540.421 361.41 542.155 367.495C542.497 368.695 542.706 373.154 542.424 374.599Z" fill="#12214E"/>
<path d="M622.142 393.608C627.278 375.084 616.857 354.154 611.871 336.591C611.196 334.211 611.297 334.534 612.252 332.882C631.698 367.892 650.586 403.209 668.908 438.819C673.915 448.451 678.995 458.044 684.148 467.599C688.349 475.298 693.375 483.95 697.071 491.791C681.067 495.602 663.001 498.437 646.653 500.16C641.42 500.712 607.248 503.834 604.512 502.35C599.958 480.883 594.642 459.509 589.762 438.085C602.141 431.588 617.297 406.624 622.142 393.608Z" fill="#FDE4CF"/>
<path d="M413.693 393.65L412.063 392.69C411.256 389.939 431.195 340.787 433.749 334.671C434.95 335.233 434.519 334.958 435.428 336.015C435.679 340.892 422.265 369.043 420.42 376.106C419.957 377.879 414.697 392.073 413.693 393.65Z" fill="#12214E"/>
<path d="M513.524 340.585C519.428 347.07 521.796 351.216 521.443 360.031C521.019 370.645 518.765 378.096 516.648 388.186C515.974 391.398 516.895 399.944 516.385 403.852C513.852 405.9 511.688 407.651 509.004 409.507C508.895 402.652 509.959 391.677 510.451 384.622L513.524 340.585Z" fill="#F1C0E8"/>
<path d="M661.13 368.947C664.322 365.245 703.375 343.692 708.235 341.957C709.631 349.029 710.899 355.981 713.263 362.8C720.789 384.504 737.783 407.353 757.031 420.151C782.496 436.982 813.599 443.019 843.511 436.939C858.076 433.872 869.641 428.328 881.883 420.163C883.707 418.946 891.341 413.445 892.346 412.902C906.802 465.954 901.662 516.849 874.089 564.801C858.718 591.825 836.493 614.317 809.655 630.01C803.023 633.91 796.11 636.438 790.869 639.476L790.547 639.397C785.894 635.735 779.019 632.623 773.701 629.81C735.688 609.698 686.316 607.009 645.384 621.151C639.59 623.398 633.949 625.645 628.26 628.137C625.193 629.479 615.314 634.828 612.707 634.074C615.21 616.926 613.333 606.008 603.26 592.027C602.852 590.689 600.415 587.156 600.436 586.521C600.512 584.302 602.977 578.412 600.356 577.169C599.076 579.727 600.571 584.201 597.834 585.134L596.4 583.883C588.215 576.686 577.504 571.816 567.13 568.855C565.328 568.341 556.111 565.875 555.637 565.246L555.922 564.354C559.661 563.28 566.107 563.599 568.33 562.815C569.59 557.592 567.673 546.231 568.687 542.056C569.914 540.982 569.235 541.208 570.73 541.192C572.73 543.664 570.204 557.391 571.194 561.731C571.218 565.482 576.373 562.711 578.527 564.912C579.766 566.179 580.037 566.576 581.827 566.396C585.109 561.972 579.185 541.49 585.07 539.922C590.759 541.911 584.912 559.45 588.19 564.78C589.725 565.251 588.993 565.295 590.459 564.653C591.047 563.115 590.713 543.367 590.54 540.659L590.495 540.014C594.747 539.986 607.672 538.756 610.622 539.574C611.294 540.87 609.014 551.442 611.287 556.865C611.353 557.023 611.429 557.176 611.5 557.332C611.524 558.695 611.491 562.241 612.637 563.096C614.197 560.46 613.829 543.191 612.769 540.012C612.93 539.723 613.393 538.325 613.534 537.924C650.654 533.893 689.762 531.599 724.087 514.889C748.45 503.028 737.043 491.45 726.787 474.205C720.411 463.255 713.791 452.448 706.932 441.794L661.13 368.947ZM709.685 527.37C708.376 530.139 707.34 538.824 709.668 540.895C710.939 538.476 711.493 529.079 709.685 527.37ZM699.306 529.708C698.735 532.573 698.337 546.161 699.676 548.282L700.452 548.745C701.408 545.398 701.255 533.867 700.321 530.621L699.306 529.708ZM690.753 533.614C690.502 536.395 690.302 549.913 691.626 551.8L692.307 552.121C693.47 548.938 693.513 537.563 692.39 534.374C691.453 533.713 691.847 533.86 690.753 533.614ZM682.637 535.898C680.621 538.552 681.373 552.193 682.81 555.342C683.89 552.608 684.424 537.667 682.637 535.898ZM673.371 537.119C673.19 540.449 672.664 553.907 673.953 556.253L674.778 556.584C675.092 552.65 676.137 541.128 674.943 537.832C674.465 537.606 673.854 537.287 673.371 537.119ZM665.018 538.518C664.877 542.405 664.147 553.497 665.427 556.588C666.033 556.863 666.19 557 666.831 557.118C666.936 553.679 667.631 541.508 666.45 539.044L665.018 538.518ZM657.036 539.161C656.296 542.337 655.933 554.828 657.063 557.488L658.364 558.057C658.536 554.43 659.417 542.504 658.192 539.752L657.036 539.161ZM597.358 540.738C596.665 544.224 595.8 562.118 598.287 564.101C598.798 560.768 599.487 542.418 597.358 540.738ZM629.01 540.712C628.41 544.138 628.265 557.488 629.312 560.568L630.17 561.286C630.491 558.202 631.049 543.093 629.84 541.167L629.01 540.712ZM647.974 540.694C647.264 543.613 646.986 556.709 647.999 559.013L648.82 559.514C650.043 556.547 649.832 545.249 649.166 541.855C649.04 541.212 648.608 541.122 647.974 540.694ZM620.654 541.118C620.521 545.123 619.884 557.325 620.912 560.522C621.531 560.73 621.708 560.85 622.348 560.905C622.417 557.499 623.113 543.737 621.82 541.539L620.654 541.118ZM638.62 541.307C637.644 544.911 637.619 555.934 638.81 559.45L639.464 560.133C640.416 557.448 640.323 544.393 639.336 541.915L638.62 541.307ZM604.768 542.423C603.73 545.745 603.285 559.279 604.294 562.121L605.303 563.02C605.843 560.362 606.267 543.887 604.768 542.423Z" fill="#FFCFD2"/>
<path d="M641.97 374.012C644.804 371.032 654.147 371.39 658.582 370.64L659.072 370.553C681.145 405.937 706.68 444.436 727.105 480.147C718.391 484.812 709.342 487.972 699.91 490.846C679.095 453.05 658.886 414.923 639.289 376.481C641.501 375.294 641.044 375.948 641.97 374.012Z" fill="#FDE4CF"/>
<path d="M269.614 375.991L269.764 376.02C273.964 379.04 281.663 383.139 286.427 385.907C298.175 392.873 310.112 399.513 322.227 405.82C326.393 407.94 335.833 411.543 339.011 413.671C328.357 431.033 313.421 455.881 301.827 472.335C290.945 468.649 279.604 466.493 268.128 465.929C268.094 463.473 267.247 458.247 266.904 455.491C265.714 445.566 264.633 435.628 263.659 425.679C261.783 407.735 257.656 391.344 269.614 375.991Z" fill="#CFBAF0"/>
<path d="M575.691 376.869L576.51 376.158C578.658 376.527 582.304 381.278 584.399 382.732C592.919 388.646 601.153 391.979 611.401 392.111C612.421 393.749 612.376 393.854 613.96 395.075C615.086 395.144 620.991 394.21 622.143 393.608C617.298 406.624 602.142 431.588 589.763 438.085C584.596 418.944 580.076 396.342 575.691 376.869Z" fill="#FCFBFC"/>
<path d="M438.043 390.79C446.107 395.08 454.208 399.3 462.345 403.448C472.794 408.869 481.027 413.772 492.818 415.358C494.579 415.595 498.175 415.941 499.499 416.661C494.38 419.274 489.973 423.464 485.159 425.886C465.904 435.576 442.642 443.897 420.957 441.854C422.423 438.377 424.181 432.588 425.475 428.895C429.902 416.261 433.72 403.483 438.043 390.79Z" fill="#F9ACE8"/>
<path d="M533.686 442.102C533.288 434.411 532.81 426.724 532.251 419.042C531.866 413.677 530.564 408.149 532.715 403.077L532.791 403.029L533.63 403.685C534.854 415.488 536.003 434.716 536.45 446.847C535.123 446.659 535.215 446.689 534.136 445.891C533.844 444.347 533.795 443.64 533.686 442.102Z" fill="#12214E"/>
<path d="M509.004 409.507C511.688 407.651 513.852 405.9 516.385 403.852C516.895 422.531 516.096 431.284 532.349 442.822L533.279 442.772L533.685 442.102C533.794 443.64 533.843 444.347 534.135 445.891C535.214 446.689 535.122 446.659 536.449 446.847C538.224 448.885 544.358 451.335 547.046 451.977C560.504 455.192 574.546 449.264 585.849 442.268C585.572 444.772 584.349 445.211 582.807 447.388C569.794 453.218 566.64 453.213 553.369 456.248C556.664 472.479 559.504 485.469 564.06 501.416C564.462 503.666 563.895 502.904 565.454 504.031C567.805 504.283 568.938 504.077 571.107 504.148C550.72 505.176 528.545 505.118 508.008 505.55C507.597 474.143 508.38 442.935 508.634 411.593L509.004 409.507Z" fill="url(#paint1_linear_31_921)"/>
<path d="M506.356 412.738L508.634 411.593C508.38 442.935 507.597 474.143 508.008 505.55C504.732 505.681 501.454 505.744 498.176 505.738C500.16 500.982 503.893 446.634 504.03 439.168C505.789 430.995 505.372 421.161 506.356 412.738Z" fill="#90DBF4"/>
<path d="M420.957 441.854C442.642 443.897 465.904 435.576 485.159 425.886C489.973 423.464 494.38 419.274 499.499 416.661C502.028 416.739 502.868 415.876 504.266 414.008L504.826 413.999C504.95 422.662 502.905 431.113 504.03 439.168C503.893 446.634 500.16 500.982 498.176 505.738C475.19 505.666 452.212 504.888 429.274 503.405C421.154 502.898 412.848 501.799 404.823 501.418C404.222 501.051 401.299 500.601 400.41 500.435L420.957 441.854Z" fill="#CFBAF0"/>
<path d="M302.482 475.796C306.27 472.819 337.277 421.862 341.311 415.263C349.717 418.022 358.084 423.089 365.825 425.529C361.456 432.648 327.532 482.698 326.486 486.512C323.659 487.678 304.594 479.854 302.316 477.437L302.482 475.796Z" fill="url(#paint2_linear_31_921)"/>
<path d="M186.765 449.615C178.28 450.844 170.382 445.029 169.036 436.562C167.69 428.095 173.395 420.118 181.842 418.655C187.412 417.69 193.069 419.798 196.649 424.172C200.228 428.546 201.176 434.509 199.13 439.777C197.083 445.046 192.358 448.805 186.765 449.615Z" fill="#7EFCE2"/>
<path d="M368.195 426.216C379.572 431.29 391.157 435.371 403.166 438.76C407.061 439.859 415.629 440.594 418.431 441.505L406.511 476.186C404.121 483.081 400.555 493.596 397.576 500.196C379.011 499.037 360.587 496.215 342.525 491.765C338.372 490.762 332.91 489.598 329.015 488.045C328.311 487.174 328.453 487.632 328.395 486.746C330.2 484.814 331.489 482.757 332.931 480.558C344.758 462.524 357.107 444.719 368.195 426.216Z" fill="#CFBAF0"/>
<path d="M587.363 440.098C591 454.518 594.446 468.985 597.701 483.496C598.934 489.094 601.015 497.537 601.619 502.933C591.657 503.438 581.071 504.085 571.106 504.148C568.937 504.077 567.804 504.283 565.453 504.031C563.894 502.904 564.461 503.666 564.059 501.416C565.794 497.296 567.8 485.098 569.985 479.03C573.497 469.275 580.461 456.747 582.806 447.388C584.348 445.211 585.571 444.772 585.848 442.268C586.848 441.294 586.807 441.374 587.363 440.098Z" fill="#FBF8CC"/>
<path d="M553.367 456.248C566.638 453.213 569.792 453.218 582.805 447.388C580.46 456.747 573.496 469.275 569.984 479.03C567.799 485.098 565.793 497.296 564.058 501.416C559.502 485.469 556.662 472.479 553.367 456.248Z" fill="#FCFBFC"/>
<path d="M266.959 809.212C218.564 794.358 178.594 759.039 145.46 722.095C111.014 683.689 79.2104 630.394 81.0827 577.199C84.3006 485.771 194.941 461.486 268.129 465.929C269.797 474.461 271.344 483.641 273.751 491.977C282.705 522.99 298.37 547.658 325.5 565.939C348.603 581.507 369.801 582.457 396.449 583.322C405.381 583.612 415.196 581.542 424.016 581.947C424.901 581.988 425.523 582.635 426.129 583.209C410.511 596.234 403.943 612.135 404.899 632.525C406.294 657.623 418.926 682.39 434.625 701.584C432.979 703.206 431.67 710.799 430.98 713.606C424.836 738.619 410.102 762.086 391.927 780.405L391.422 780.525C354.882 767.738 313.614 771.461 282.386 795.436C276.776 799.743 271.926 804.143 266.959 809.212Z" fill="#98F5E1"/>
<path d="M268.129 465.929C279.605 466.493 290.946 468.649 301.828 472.335C287.779 493.62 276.61 501.819 306.474 513.111L306.164 515.477C305.928 522.302 307.233 534.638 308.607 541.171L309.095 541.525L309.115 541.961C310.121 537.77 309.257 530.299 308.708 525.95C311.591 525.211 312.167 525.155 313.373 522.38C313.278 526.907 313.806 547.006 315.41 550.398C316.512 547.666 315.077 524.886 314.745 521.154C316.816 520.265 318.662 519.281 320.113 517.57C320.447 517.911 321.113 518.549 321.378 518.902C320.028 525.534 323.094 550.978 324.01 558.526C325.08 550.573 323.345 527.102 322.228 518.88C324.21 518.541 332.474 521.254 335.212 521.959C360.89 528.566 387.333 532.501 413.675 535.317C416.555 535.625 422.618 535.526 424.82 537.014L425.064 538.082C423.906 542.173 422.262 572.926 423.695 575.544C424.27 572.218 425.84 541.241 425.494 538.082L425.927 536.879C427.75 536.368 446.86 538.211 449.86 538.415C462.974 539.238 476.101 539.827 489.236 540.182C494.985 540.385 503.688 540.439 509.196 541.043C502.454 545.739 478.223 542.497 473.943 544.798C468.913 543.624 465.195 542.783 460.026 542.312C460.564 555.542 460.73 554.064 455.555 566.392C454.143 567.052 447.765 570.235 446.717 570.192C446.933 565.682 448.751 544.436 447.912 542.005C445.721 545.907 444.994 565.615 445.338 570.711C443.975 572.379 441.411 573.827 439.3 574.342C438.535 573.641 438.759 574.058 438.559 573.13C438.893 568.073 440.106 545.03 439.461 541.817C437.121 546.097 437.489 564.814 437.615 570.694C437.715 572.395 438.076 574.432 436.908 575.574C434.019 578.399 429.651 580.804 426.129 583.209C425.523 582.635 424.901 581.988 424.016 581.947C415.196 581.542 405.381 583.612 396.449 583.322C369.801 582.457 348.603 581.507 325.5 565.939C298.37 547.658 282.705 522.99 273.751 491.977C271.344 483.641 269.797 474.461 268.129 465.929ZM400.916 549.901C400.682 552.897 399.973 569.064 401.16 570.844C401.593 569.287 401.928 562.544 401.861 560.772C402.021 555.886 402.608 544.307 401.873 539.931L401.456 539.751C400.73 541.626 400.926 547.539 400.916 549.901ZM389.939 555.915C389.198 562.195 388.977 570.37 390.425 576.552C390.556 572.132 390.712 567.712 390.892 563.294C391.299 560.137 392.823 539.159 391.895 537.167C389.861 539.671 390.039 552.073 389.939 555.915ZM331.126 525.876C329.682 530.887 331.559 556.883 333.818 561.793C334.011 557.878 332.725 528.674 331.672 526.344L331.126 525.876ZM338.551 525.863C337.779 530.086 339.218 561.025 340.774 564.462C341.796 559.308 340.562 533.486 339.63 526.658C339.587 526.345 338.773 525.989 338.551 525.863ZM348.673 529.307C347.687 534.149 348.362 566.559 349.836 570.961C350.287 566.05 350.416 532.228 349.156 529.697L348.673 529.307ZM357.08 530.606C356.619 535.092 356.266 570.092 357.791 572.591C358.278 567.704 359.523 533.634 357.978 530.975L357.08 530.606ZM382.387 534.716C380.475 539.006 380.421 570.356 382.231 574.858C382.5 571.195 383.651 535.935 382.948 535.18C382.783 535.003 382.574 534.871 382.387 534.716ZM365.619 535.202C365.534 540.812 365.262 568.524 366.823 572.176C367.189 567.782 367.729 537.656 366.276 535.523L365.619 535.202ZM373.165 536.207C372.67 540.905 372.635 571.215 374.237 573.512C374.717 568.932 374.887 541.299 374.31 537.036C373.797 536.595 373.76 536.465 373.165 536.207ZM410.141 536.784C407.881 542.888 407.68 570.773 408.268 578.128C409.024 574.572 410.858 538.428 410.141 536.784ZM418.64 537.383C416.905 540.131 415.778 571.574 416.807 574.968L416.932 574.941C417.838 570.245 420.124 541.267 419.123 537.921L418.64 537.383ZM432.019 540.839C430.332 548.578 429.395 571.455 430.83 579.138C431.263 577.644 432.813 543.542 432.579 541.424L432.019 540.839ZM454.992 541.806C454.572 543.861 452.497 562.217 452.883 563.299L453.325 563.691C454.695 559.675 457.125 546.02 455.613 542.363L454.992 541.806Z" fill="#7EFCE2"/>
<path d="M300.366 479.479L300.312 478.604C301.314 476.651 300.895 476.727 302.486 475.796L302.319 477.437C304.597 479.854 323.663 487.678 326.49 486.512C326.158 488.238 325.152 489.156 324.025 490.548L323.555 490.756L323.561 489.766C322.205 488.095 311.633 485.013 308.846 483.722C305.935 482.374 303.282 481.174 300.366 479.479Z" fill="#12214E"/>
<path d="M300.363 479.479C303.279 481.174 305.932 482.374 308.843 483.722C311.63 485.013 322.202 488.095 323.558 489.766L323.551 490.756C320.298 493.811 312.623 507.548 311.14 512.255C306.207 510.035 290.106 503.581 290.219 498.69C290.288 495.711 299.02 484.447 300.363 479.479Z" fill="#F1C0E8"/>
<path d="M701.379 492.876C711.363 489.83 718.867 487.581 728.163 482.6C728.392 482.747 728.621 482.895 728.85 483.042C732.555 489.787 740.329 498.037 733.311 505.377C730.054 508.782 725.556 511.041 721.365 513.064C719.511 513.96 715.482 516.202 713.626 516.282L712.815 515.336C708.507 507.594 704.857 501.063 701.379 492.876Z" fill="#FDE4CF"/>
<path d="M323.295 495.545C324.754 493.98 325.862 492.005 327.011 490.177C347.912 496.926 374.642 500.781 396.453 502.613C393.133 511.484 388.896 519.884 385.165 528.576C385.035 528.727 384.883 528.935 384.668 528.911C362.578 526.445 333.432 520.51 313.41 512.575C315.896 507.31 320.285 500.907 323.295 495.545Z" fill="#CFBAF0"/>
<path d="M563.801 507.225C576.738 506.853 589.667 506.284 602.586 505.518C603.557 510.231 605.688 522.717 606.952 526.532L607.846 526.978L609.073 526.53C609.211 526.19 609.35 525.85 609.488 525.511C607.787 519.689 606.606 511.119 605.426 505.542C639.23 504.105 665.125 501.249 698.541 494.085C702.525 502.04 706.687 509.904 711.025 517.671C679.472 529.234 641.089 533.258 607.632 535.62C600.594 536.117 585.655 537.303 578.697 537.061C575.853 536.812 574.918 536.926 572.055 537.253C569.325 530.329 567.097 521.643 565.023 514.365C564.269 511.409 564.112 510.192 563.801 507.225Z" fill="#FBF8CC"/>
<path d="M399.142 503.069C401.07 503.317 403.164 503.457 405.113 503.625C431.4 507.301 471.493 508.056 497.941 508.045C497.822 514.305 497.823 532.344 496.18 537.307L495.614 537.744C487.856 537.171 478.058 537.426 469.832 536.995C447.377 535.848 424.961 534.04 402.612 531.574C399.661 531.25 389.359 530.413 387.195 529.29C389.624 525.643 397.044 507.955 399.142 503.069Z" fill="#CFBAF0"/>
<path d="M508.064 507.971C525.132 508.186 546.8 507.851 563.8 507.225C564.111 510.192 564.268 511.409 565.022 514.365C564.846 524.309 564.761 527.858 562.723 537.646C553.684 537.306 544.721 537.96 535.671 538.216C526.689 538.471 517.211 537.957 508.314 538.241C507.562 529.36 507.943 516.934 508.064 507.971Z" fill="#CFBAF0"/>
<path d="M497.944 508.045L508.066 507.971C507.945 516.934 507.564 529.36 508.316 538.241C505.52 538.406 498.341 538.07 495.617 537.744L496.183 537.307C497.826 532.344 497.825 514.305 497.944 508.045Z" fill="#90DBF4"/>
<path d="M306.47 513.111C311.197 513.592 315.576 516.158 320.109 517.57C318.658 519.281 316.812 520.265 314.741 521.154L313.369 522.38C312.163 525.155 311.587 525.211 308.704 525.95C308.031 522.123 307.655 519.075 306.16 515.477L306.47 513.111Z" fill="#F1C0E8"/>
<path d="M565.025 514.365C567.099 521.643 569.327 530.329 572.057 537.253C574.92 536.926 575.855 536.812 578.699 537.061C574.283 537.691 567.366 537.608 562.727 537.646C564.765 527.858 564.849 524.309 565.025 514.365Z" fill="#BDD1BA"/>
<path d="M308.705 525.95C309.254 530.299 310.118 537.77 309.112 541.961L309.092 541.525L308.604 541.171C307.23 534.638 305.925 522.302 306.161 515.477C307.656 519.075 308.032 522.123 308.705 525.95Z" fill="#000D0E"/>
<path d="M321.377 518.902L322.227 518.88C323.344 527.102 325.079 550.573 324.009 558.526C323.093 550.978 320.027 525.534 321.377 518.902Z" fill="#000D0E"/>
<path d="M313.37 522.38L314.742 521.154C315.074 524.886 316.509 547.666 315.407 550.398C313.803 547.006 313.275 526.907 313.37 522.38Z" fill="#000D0E"/>
<path d="M333.816 561.793C331.557 556.883 329.68 530.887 331.124 525.876L331.67 526.344C332.723 528.674 334.009 557.878 333.816 561.793Z" fill="#000D0E"/>
<path d="M340.774 564.462C339.218 561.025 337.779 530.086 338.551 525.863C338.773 525.989 339.587 526.345 339.63 526.658C340.562 533.486 341.796 559.308 340.774 564.462Z" fill="#000D0E"/>
<path d="M709.668 540.895C707.34 538.824 708.376 530.139 709.685 527.37C711.493 529.079 710.939 538.476 709.668 540.895Z" fill="#0D1F47"/>
<path d="M349.835 570.961C348.361 566.559 347.686 534.149 348.672 529.307L349.155 529.697C350.415 532.228 350.286 566.05 349.835 570.961Z" fill="#000D0E"/>
<path d="M700.451 548.745L699.675 548.282C698.336 546.161 698.734 532.573 699.305 529.708L700.32 530.621C701.254 533.867 701.407 545.398 700.451 548.745Z" fill="#12214E"/>
<path d="M357.79 572.591C356.265 570.092 356.618 535.092 357.079 530.606L357.977 530.975C359.522 533.634 358.277 567.704 357.79 572.591Z" fill="#000D0E"/>
<path d="M692.308 552.121L691.627 551.8C690.303 549.913 690.503 536.395 690.754 533.614C691.848 533.86 691.454 533.713 692.391 534.374C693.514 537.563 693.471 548.938 692.308 552.121Z" fill="#12214E"/>
<path d="M382.229 574.858C380.419 570.356 380.473 539.006 382.385 534.716C382.572 534.871 382.781 535.003 382.946 535.18C383.649 535.935 382.498 571.195 382.229 574.858Z" fill="#000D0E"/>
<path d="M366.82 572.176C365.259 568.524 365.531 540.812 365.616 535.202L366.273 535.523C367.726 537.656 367.186 567.782 366.82 572.176Z" fill="#000D0E"/>
<path d="M682.81 555.342C681.373 552.193 680.621 538.552 682.637 535.898C684.424 537.667 683.89 552.608 682.81 555.342Z" fill="#000D0E"/>
<path d="M374.236 573.512C372.634 571.215 372.669 540.905 373.164 536.207C373.759 536.465 373.796 536.595 374.309 537.036C374.886 541.299 374.716 568.932 374.236 573.512Z" fill="#000D0E"/>
<path d="M389.938 555.915C390.038 552.073 389.859 539.671 391.893 537.167C392.821 539.159 391.298 560.137 390.891 563.294L390.292 562.999C390.188 560.637 390.069 558.276 389.938 555.915Z" fill="#000D0E"/>
<path d="M408.266 578.128C407.678 570.773 407.879 542.888 410.139 536.784C410.856 538.428 409.022 574.572 408.266 578.128Z" fill="#000D0E"/>
<path d="M416.932 574.941L416.807 574.968C415.778 571.574 416.905 540.131 418.64 537.383L419.123 537.921C420.124 541.267 417.838 570.245 416.932 574.941Z" fill="#000D0E"/>
<path d="M674.777 556.584L673.952 556.253C672.663 553.907 673.189 540.449 673.37 537.119C673.853 537.287 674.464 537.606 674.942 537.832C676.136 541.128 675.091 552.65 674.777 556.584Z" fill="#000D0E"/>
<path d="M425.06 538.082H425.49C425.836 541.241 424.266 572.218 423.691 575.544C422.258 572.926 423.902 542.173 425.06 538.082Z" fill="#000D0E"/>
<path d="M580.473 540.391C581.724 539.156 588.383 539.318 590.557 539.21C598.22 538.863 605.88 538.435 613.534 537.924C613.393 538.325 612.93 539.723 612.769 540.012C610.712 543.47 611.497 552.849 611.5 557.332C611.429 557.176 611.353 557.023 611.287 556.865C609.014 551.442 611.294 540.87 610.622 539.574C607.672 538.756 594.747 539.986 590.495 540.014L590.54 540.659C590.713 543.367 591.047 563.115 590.459 564.653C588.993 565.295 589.725 565.251 588.19 564.78C584.912 559.45 590.759 541.911 585.07 539.922C579.185 541.49 585.109 561.972 581.827 566.396C580.037 566.576 579.766 566.179 578.527 564.912C576.373 562.711 571.218 565.482 571.194 561.731C570.204 557.391 572.73 543.664 570.73 541.192C569.235 541.208 569.914 540.982 568.687 542.056C567.673 546.231 569.59 557.592 568.33 562.815C566.107 563.599 559.661 563.28 555.922 564.354L555.637 565.246C556.111 565.875 565.328 568.341 567.13 568.855C577.504 571.816 588.215 576.686 596.4 583.883L597.834 585.134C600.571 584.201 599.076 579.727 600.356 577.169C602.977 578.412 600.512 584.302 600.436 586.521C600.415 587.156 602.852 590.689 603.26 592.027C587.529 576.057 576.632 571.501 554.981 566.574L554.535 565.794L555.266 563.217C556.699 562.191 556.751 562.565 558.94 562.547L560.712 562.461C563.125 562.48 564.125 562.309 566.522 561.906L567.244 561.712C568.521 560.099 567.918 550.942 567.866 548.288C567.866 545.785 567.558 542.482 568.485 540.31L569.91 540.074C575.14 542.993 569.574 558.946 573.226 562.936L573.845 562.801C574.44 560.168 573.886 544.925 574.381 539.986L574.813 539.939C576.977 539.712 578.581 539.277 580.063 540.483C579.116 543.865 579.554 559.841 580.018 563.665L580.851 564.105L580.088 564.112L580.546 565.109C581.983 562.334 582.491 542.714 580.473 540.391ZM588.63 540.29C587.987 543.429 587.489 561.811 588.554 564.194L589.558 564.807C590.326 561.542 590.289 544.263 589.313 540.916L588.63 540.29Z" fill="#C9F6E8"/>
<path d="M666.831 557.118C666.19 557 666.033 556.863 665.427 556.588C664.147 553.497 664.877 542.405 665.018 538.518L666.45 539.044C667.631 541.508 666.936 553.679 666.831 557.118Z" fill="#080F19"/>
<path d="M400.915 549.901C400.925 547.539 400.729 541.626 401.455 539.751L401.872 539.931C402.607 544.307 402.02 555.886 401.86 560.772L401.59 560.762C400.92 559.483 401.011 552.147 400.915 549.901Z" fill="#000D0E"/>
<path d="M658.361 558.057L657.06 557.488C655.93 554.828 656.293 542.337 657.033 539.161L658.189 539.752C659.414 542.504 658.533 554.43 658.361 558.057Z" fill="#080F19"/>
<path d="M566.207 540.313L566.934 539.953C567.81 541.743 567.049 545.533 567.864 548.288C567.916 550.942 568.519 560.099 567.242 561.712L566.52 561.906C565.685 559.962 566.032 543.329 566.207 540.313Z" fill="#000D0E"/>
<path d="M531.637 543.451C529.818 542.236 526.994 541.865 524.785 541.412C526.084 541.064 527.693 541.126 529.177 540.915C534.329 542.273 548.461 542.351 554.877 543.104L555.639 542.69C556.085 544.288 554.473 562.002 554.535 565.794L554.981 566.574C576.632 571.501 587.529 576.057 603.26 592.027C613.333 606.008 615.21 616.926 612.707 634.074C608.747 655.868 597.877 673.38 586.34 691.931C577.202 706.625 571.428 713.16 556.257 721.365C556.045 723.018 555.812 725.454 555.476 727.018C554.908 733.886 557.885 730.271 555.077 734.078C551.978 737.568 544.984 740.7 540.595 742.297C537.18 743.396 534.887 744.12 531.386 744.832C528.754 745.345 526.116 745.823 523.472 746.268C506.28 748.02 484.184 748.335 469.176 738.126C468.561 737.225 468.178 737.146 467.578 736.399C466.116 734.575 467.741 732.532 466.593 730.693C465.636 727.626 465.614 725.57 465.403 722.412C452.444 718.806 443.338 711.403 434.624 701.584C418.925 682.39 406.293 657.623 404.898 632.525C405.526 633.504 405.112 633.128 406.133 633.66C407.404 631.949 406.046 629.378 407.212 627.129C407.892 647.947 414.717 667.542 425.753 685.161C427.356 687.72 431.167 693.38 433.243 695.471C433.725 696.519 435.907 699.115 436.723 700.074C444.471 709.168 451.95 714.383 462.848 718.846C450.442 710.057 446.576 705.752 437.645 693.584C435.425 688.947 431.385 683.611 429.154 678.71C421.209 661.261 413.501 636.957 416.001 617.86C418.591 598.065 431.959 585.735 447.034 574.572C449.536 572.97 455.202 570.824 455.928 569.363L457.699 567.5C461.111 571.626 467.351 573.918 472.459 575.076C498.547 580.991 526.458 581.02 551.876 572.774C552.018 569.921 552.019 566.76 552.074 563.879C527.807 566.589 483.652 568.93 462.632 555.847L464.144 553.932C480.264 565.917 531.969 564.245 552.045 561.431C552.019 557.752 552.002 553.657 552.196 549.995C552.223 549.487 553.022 547.238 553.223 545.964L552.869 546.899L551.236 545.842C546.562 544.678 536.685 543.902 531.637 543.451ZM542.91 578.033L541.382 578.648C539.034 579.252 537.226 579.687 534.839 580.123C534.014 580.356 533.082 580.565 532.323 580.922C530.246 580.298 525.604 581.236 523.327 581.637C526.913 585.814 530.73 590.254 533.427 595.237C543.381 613.634 544.503 638.34 543.118 659.398C541.845 678.743 534.707 710.401 521.571 725.58C521.425 725.704 521.28 725.828 521.134 725.952L520.23 726.094C519.759 727.608 519.769 727.956 519.611 729.5C513.612 729.823 507.608 730.063 501.602 730.221C490.975 729.324 481.547 727.859 471.54 723.99L469.839 723.355L468.772 723.714C468.146 726.093 468.608 733.523 469.977 735.5C479.481 744.884 506.887 745.904 519.509 744.169C530.856 742.526 536.277 741.569 546.76 736.717C545.122 728.922 544.128 726.452 550.131 720.806L550.278 719.202C552.419 717.133 558.846 713.102 562.634 709.371C572.975 699.421 580.261 687.162 587.556 674.947C604.014 647.673 610.737 604.554 577.185 586.957C565.003 580.569 556.847 574.169 542.91 578.033ZM608.671 642.393C619.62 598.076 594.04 578.93 554.604 568.483C554.446 570.325 554.374 572.222 553.851 573.982C590.395 588.042 608.653 601.014 602.27 643.356C598.405 665.557 584.106 687.233 570.256 704.837C565.979 710.273 560.221 714.796 554.825 719.113C556.349 718.41 557.859 717.677 559.353 716.914C564.013 714.472 568.204 711.226 571.735 707.326C583.726 694.307 603.059 659.68 608.671 642.393ZM457.491 571.959C446.463 576.144 434.506 586.66 427.534 596.013C411.978 616.884 418.45 644.948 427.038 667.267C436.395 691.584 451.396 712.431 475.678 723.118C458.908 707.161 447.012 693.716 438.982 671.038C432.068 649.658 431.596 629.323 442.186 609.076C448.791 596.448 459.272 584.543 471.779 577.578C469.042 576.702 466.309 575.867 463.638 574.801C441.519 592.487 430.149 600.98 428.674 631.226C424.96 611.714 433.612 597.84 447.549 584.986C449.707 582.996 460.428 575.324 461.366 573.709C459.751 572.531 459.461 572.53 457.491 571.959ZM475.049 578.451C431.33 604.255 426.905 650.121 451.847 691.436C456.169 698.493 461.275 705.04 467.066 710.952C470.872 714.887 475.631 719.222 478.793 723.567C480.724 724.284 482.66 724.987 484.601 725.675C481.183 722.515 476.621 718.398 474.286 714.249C462.129 692.643 456.064 667.316 454.509 642.734C452.656 613.429 467.054 599.206 486.409 580.517C483.146 579.897 478.22 578.802 475.049 578.451ZM489.283 580.935C473.529 595.716 457.333 611.051 456.977 634.885C456.594 660.563 465.476 701.121 482.61 721.162C488.297 727.814 495.11 727.759 503.241 727.894C503.665 727.899 504.088 727.899 504.512 727.893C501.113 722.645 497.77 716.723 495.767 710.773C487.6 686.516 481.052 641.804 486.231 617.249C488.951 603.807 495.727 591.521 505.644 582.048C501.829 590.639 494.886 596.862 491.408 606.921C482.003 634.119 488.41 679.493 496.835 706.123C499.977 715.462 502.022 719.676 507.602 727.866L516.505 727.402C543.371 699.326 548.805 627.742 530.074 594.001C527.898 590.081 523.207 585.121 520.247 581.589L511.956 581.887C513.529 604.777 521.393 707.331 514.226 722.838C513.799 719.937 514.895 712.201 514.957 708.266C515.102 699.03 514.85 690.128 514.567 680.903C513.868 660.778 513.015 640.659 512.009 620.548C511.327 608.245 510.131 594.063 509.93 581.871C503.04 581.754 496.155 581.442 489.283 580.935ZM552.563 721.78C548.569 725.146 546.945 729.401 548.575 734.511C549.456 735.112 549.062 734.976 549.658 735.13L553.515 732.077C553.532 729.949 553.865 723.455 553.032 721.948L552.563 721.78Z" fill="#000D0E"/>
<path d="M529.176 540.915C532.591 540.156 547.236 540.51 551.437 540.545C552.77 541.449 553.648 542.026 554.876 543.104C548.46 542.351 534.328 542.273 529.176 540.915Z" fill="#C9F6E8"/>
<path d="M555.64 542.69C554.932 541.95 554.964 541.94 554.391 541.087C555.528 540.261 557.282 540.607 558.977 540.628C558.828 547.735 558.725 555.441 558.941 562.547C556.752 562.565 556.7 562.191 555.267 563.217L554.536 565.794C554.474 562.002 556.086 544.288 555.64 542.69Z" fill="#7EFCE2"/>
<path d="M560.184 541.875C561.182 539.971 564.124 540.418 566.207 540.313C566.032 543.329 565.685 559.962 566.52 561.906C564.123 562.309 563.123 562.48 560.71 562.461C560.662 557.116 560.864 546.715 560.184 541.875Z" fill="#7EFCE2"/>
<path d="M580.061 540.483L580.471 540.391C582.489 542.714 581.981 562.334 580.544 565.109L580.086 564.112L580.849 564.105L580.016 563.665C579.552 559.841 579.114 543.865 580.061 540.483Z" fill="#000D0E"/>
<path d="M589.557 564.807L588.553 564.194C587.488 561.811 587.986 543.429 588.629 540.29L589.312 540.916C590.288 544.263 590.325 561.542 589.557 564.807Z" fill="#000D0E"/>
<path d="M612.766 540.012C613.826 543.191 614.194 560.46 612.634 563.096C611.488 562.241 611.521 558.695 611.497 557.332C611.494 552.849 610.709 543.47 612.766 540.012Z" fill="#080F19"/>
<path d="M430.83 579.138C429.395 571.455 430.332 548.578 432.019 540.839L432.579 541.424C432.813 543.542 431.263 577.644 430.83 579.138Z" fill="#000D0E"/>
<path d="M509.194 541.043C512.938 540.965 517.414 540.808 521.046 541.503C525.173 542.294 527.347 543.144 531.636 543.451C536.684 543.902 546.561 544.678 551.235 545.842C533.077 551.883 492.558 549.057 473.941 544.798C478.221 542.497 502.452 545.739 509.194 541.043Z" fill="#FCFBFC"/>
<path d="M558.976 540.628C559.173 540.837 559.989 541.741 560.186 541.875C560.866 546.715 560.664 557.116 560.712 562.461L558.94 562.547C558.724 555.441 558.827 547.735 558.976 540.628Z" fill="#000D0E"/>
<path d="M598.286 564.101C595.799 562.118 596.664 544.224 597.357 540.738C599.486 542.418 598.797 560.768 598.286 564.101Z" fill="#000D0E"/>
<path d="M630.167 561.286L629.309 560.568C628.262 557.488 628.407 544.138 629.007 540.712L629.837 541.167C631.046 543.093 630.488 558.202 630.167 561.286Z" fill="#000D0E"/>
<path d="M648.819 559.514L647.998 559.013C646.985 556.709 647.263 543.613 647.973 540.694C648.607 541.122 649.039 541.212 649.165 541.855C649.831 545.249 650.042 556.547 648.819 559.514Z" fill="#12214E"/>
<path d="M437.615 570.694C437.489 564.814 437.121 546.097 439.461 541.817C440.106 545.03 438.893 568.073 438.559 573.13C438.287 572.809 437.792 571.203 437.615 570.694Z" fill="#000D0E"/>
<path d="M622.347 560.905C621.707 560.85 621.53 560.73 620.911 560.522C619.883 557.325 620.52 545.123 620.653 541.118L621.819 541.539C623.112 543.737 622.416 557.499 622.347 560.905Z" fill="#080F19"/>
<path d="M639.461 560.133L638.807 559.45C637.616 555.934 637.641 544.911 638.617 541.307L639.333 541.915C640.32 544.393 640.413 557.448 639.461 560.133Z" fill="#080F19"/>
<path d="M446.714 570.192L445.335 570.711C444.991 565.615 445.718 545.907 447.909 542.005C448.748 544.436 446.93 565.682 446.714 570.192Z" fill="#000D0E"/>
<path d="M453.322 563.691L452.88 563.299C452.494 562.217 454.569 543.861 454.989 541.806L455.61 542.363C457.122 546.02 454.692 559.675 453.322 563.691Z" fill="#000D0E"/>
<path d="M460.022 542.312C465.191 542.783 468.909 543.624 473.939 544.798C492.556 549.057 533.075 551.883 551.233 545.842L552.866 546.899C548.463 553.394 494.696 551.862 485.6 549.911C478.67 548.424 469.448 546.354 462.457 544.903C462.546 547.832 462.315 551.646 464.141 553.932L462.629 555.847C460.394 559.769 459.578 563.741 457.696 567.5L455.925 569.363C453.897 569.139 447.927 572.546 446.402 573.739C422.785 586.696 408.5 598.172 407.209 627.129C406.043 629.378 407.401 631.949 406.13 633.66C405.109 633.128 405.523 633.504 404.895 632.525C403.939 612.135 410.507 596.234 426.125 583.209C429.647 580.804 434.015 578.399 436.904 575.574C438.072 574.432 437.711 572.395 437.611 570.694C437.788 571.203 438.283 572.809 438.555 573.13C438.755 574.058 438.531 573.641 439.296 574.342C441.407 573.827 443.971 572.379 445.334 570.711L446.713 570.192C447.761 570.235 454.139 567.052 455.551 566.392C460.726 554.064 460.56 555.542 460.022 542.312Z" fill="url(#paint3_linear_31_921)"/>
<path d="M605.304 563.02L604.295 562.121C603.286 559.279 603.731 545.745 604.769 542.423C606.268 543.887 605.844 560.362 605.304 563.02Z" fill="#080F19"/>
<path d="M552.87 546.899L553.224 545.964C553.023 547.238 552.224 549.487 552.197 549.995C552.003 553.657 552.02 557.752 552.046 561.431C531.97 564.245 480.265 565.917 464.145 553.932C462.319 551.646 462.55 547.832 462.461 544.903C469.452 546.354 478.674 548.424 485.604 549.911C494.7 551.862 548.467 553.394 552.87 546.899Z" fill="#8EECF5"/>
<path d="M401.857 560.772C401.924 562.544 401.589 569.287 401.156 570.844C399.969 569.064 400.678 552.897 400.912 549.901C401.008 552.147 400.917 559.483 401.587 560.762L401.857 560.772Z" fill="#104740"/>
<path d="M457.699 567.5C459.581 563.741 460.397 559.769 462.632 555.847C483.652 568.93 527.807 566.589 552.074 563.879C552.019 566.76 552.018 569.921 551.876 572.774C526.458 581.02 498.547 580.991 472.459 575.076C467.351 573.918 461.111 571.626 457.699 567.5Z" fill="#8EECF5"/>
<path d="M390.422 576.552C388.974 570.37 389.195 562.195 389.936 555.915C390.068 558.276 390.187 560.637 390.291 562.999L390.889 563.294C390.709 567.712 390.553 572.132 390.422 576.552Z" fill="#104740"/>
<path d="M608.672 642.393L602.271 643.356C608.654 601.014 590.396 588.042 553.852 573.982C554.375 572.222 554.447 570.325 554.605 568.483C594.041 578.93 619.621 598.076 608.672 642.393Z" fill="#7EFCE2"/>
<path d="M446.402 573.739C447.927 572.546 453.897 569.139 455.925 569.363C455.199 570.824 449.533 572.97 447.031 574.572L446.402 573.739Z" fill="#90DBF4"/>
<path d="M475.678 723.118C451.396 712.431 436.395 691.584 427.038 667.267C418.45 644.948 411.978 616.884 427.534 596.013C434.506 586.66 446.463 576.144 457.491 571.959C459.461 572.53 459.751 572.531 461.366 573.709C460.428 575.324 449.707 582.996 447.549 584.986C433.612 597.84 424.96 611.714 428.674 631.226C430.149 600.98 441.519 592.487 463.638 574.801C466.309 575.867 469.042 576.702 471.779 577.578C459.272 584.543 448.791 596.448 442.186 609.076C431.596 629.323 432.068 649.658 438.982 671.038C447.012 693.716 458.908 707.161 475.678 723.118Z" fill="#7EFCE2"/>
<path d="M407.211 627.129C408.502 598.172 422.787 586.696 446.404 573.739L447.033 574.572C431.958 585.735 418.59 598.065 416 617.86C413.5 636.957 421.208 661.261 429.153 678.71C431.384 683.611 435.424 688.947 437.644 693.584L436.665 693.527C435.672 692.339 435.547 692.332 434.052 691.931C432.491 692.912 432.903 693.687 433.242 695.471C431.166 693.38 427.355 687.72 425.752 685.161C414.716 667.542 407.891 647.947 407.211 627.129Z" fill="#7EFCE2"/>
<path d="M542.91 578.033C556.847 574.169 565.003 580.569 577.185 586.957C610.737 604.554 604.014 647.673 587.556 674.947C580.261 687.162 572.975 699.421 562.634 709.371C558.846 713.102 552.419 717.133 550.278 719.202L544.595 721.685C576.564 690.485 614.406 621.045 565.661 588.208C558.409 583.323 551.079 580.769 542.91 578.033Z" fill="#7EFCE2"/>
<path d="M541.38 578.648L542.908 578.033C551.077 580.769 558.407 583.323 565.659 588.208C614.404 621.045 576.562 690.485 544.593 721.685L550.276 719.202L550.129 720.806C538.87 726.23 531.845 727.612 519.609 729.5C519.767 727.956 519.757 727.608 520.228 726.094L521.132 725.952C523.618 727.025 527.483 724.742 529.34 723.147C557.2 699.217 567.629 657.092 563.13 621.67C560.69 602.461 547.014 591.365 532.321 580.922C533.08 580.565 534.012 580.356 534.837 580.123C563.477 599.436 569.618 617.154 565.806 651.5C562.779 678.773 552.197 707.805 530.147 725.32C532.718 724.59 535.438 723.851 537.902 722.803C551.948 716.828 573.472 679.432 579.304 665.329C586.109 648.873 590.154 630.136 582.995 613.085C575.129 594.35 559.217 585.913 541.38 578.648Z" fill="url(#paint4_linear_31_921)"/>
<path d="M478.794 723.567C475.632 719.222 470.873 714.887 467.067 710.952C461.276 705.04 456.17 698.493 451.848 691.436C426.906 650.121 431.331 604.255 475.05 578.451C478.221 578.802 483.147 579.897 486.41 580.517C467.055 599.206 452.657 613.429 454.51 642.734C456.065 667.316 462.13 692.643 474.287 714.249C476.622 718.398 481.184 722.515 484.602 725.675C482.661 724.987 480.725 724.284 478.794 723.567Z" fill="#7EFCE2"/>
<path d="M534.838 580.123C537.225 579.687 539.033 579.252 541.381 578.648C559.218 585.913 575.13 594.35 582.996 613.085C590.155 630.136 586.11 648.873 579.305 665.329C573.473 679.432 551.949 716.828 537.903 722.803C535.439 723.851 532.719 724.59 530.148 725.32C552.198 707.805 562.78 678.773 565.807 651.5C569.619 617.154 563.478 599.436 534.838 580.123Z" fill="#7EFCE2"/>
<path d="M523.326 581.637C525.603 581.236 530.245 580.298 532.322 580.922C547.015 591.365 560.691 602.461 563.131 621.67C567.63 657.092 557.201 699.217 529.341 723.147C527.484 724.742 523.619 727.025 521.133 725.952C521.279 725.828 521.424 725.704 521.57 725.58C534.706 710.401 541.844 678.743 543.117 659.398C544.502 638.34 543.38 613.634 533.426 595.237C530.729 590.254 526.912 585.814 523.326 581.637Z" fill="#7EFCE2"/>
<path d="M504.512 727.893C504.088 727.899 503.665 727.899 503.241 727.894C495.11 727.759 488.297 727.814 482.61 721.162C465.476 701.121 456.594 660.563 456.977 634.885C457.333 611.051 473.529 595.716 489.283 580.935C496.155 581.442 503.04 581.754 509.93 581.871C510.131 594.063 511.327 608.245 512.009 620.548C513.015 640.659 513.868 660.778 514.567 680.903C514.85 690.128 515.102 699.03 514.957 708.266C514.895 712.201 513.799 719.937 514.226 722.838C521.393 707.331 513.529 604.777 511.956 581.887L520.247 581.589C523.207 585.121 527.898 590.081 530.074 594.001C548.805 627.742 543.371 699.326 516.505 727.402L507.602 727.866C502.022 719.676 499.977 715.462 496.835 706.123C488.41 679.493 482.003 634.119 491.408 606.921C494.886 596.862 501.829 590.639 505.644 582.048C495.727 591.521 488.951 603.807 486.231 617.249C481.052 641.804 487.6 686.516 495.767 710.773C497.77 716.723 501.113 722.645 504.512 727.893Z" fill="#7EFCE2"/>
<path d="M645.383 621.151C686.315 607.009 735.687 609.698 773.7 629.81C779.018 632.623 785.893 635.735 790.546 639.397C779.433 643.433 773.373 645.084 761.953 646.993C730.007 652.333 697.624 646.469 668.194 633.544C660.46 630.148 652.253 626.18 645.383 621.151Z" fill="#BDD1BA"/>
<path d="M612.706 634.074C615.313 634.828 625.192 629.479 628.259 628.137C633.948 625.645 639.589 623.398 645.383 621.151C652.253 626.18 660.46 630.148 668.194 633.544C697.624 646.469 730.007 652.333 761.953 646.993C773.373 645.084 779.433 643.433 790.546 639.397L790.868 639.476C831.757 668.108 858.48 708.102 843.739 759.643L843.306 760.241C803.099 745.186 731.65 749.806 689.262 756.164C660.8 760.722 632.596 766.765 604.765 774.269C598.366 776.037 572.668 782.729 568.425 785.527C561.572 776.856 556.823 767.291 552.677 757.141C551.877 755.183 551.916 754.675 550.442 754.11L549.773 753.81C557.804 751.141 567.868 739.427 563.026 730.809C562.136 729.226 561.5 728.727 559.849 728.293C558.808 728.798 557.813 729.345 556.828 729.952L556.045 729.597L555.475 727.018C555.811 725.454 556.044 723.018 556.256 721.365C571.427 713.16 577.201 706.625 586.339 691.931C597.876 673.38 608.746 655.868 612.706 634.074Z" fill="#7EFCE2"/>
<path d="M899.293 677.013C888.796 678.187 879.307 670.698 878.011 660.216C876.715 649.733 884.093 640.158 894.56 638.74C901.439 637.808 908.289 640.646 912.494 646.171C916.698 651.696 917.608 659.055 914.876 665.437C912.144 671.82 906.192 676.241 899.293 677.013Z" fill="#FFCFD2"/>
<path d="M602.269 643.356L608.67 642.393C603.058 659.68 583.725 694.307 571.734 707.326C568.203 711.226 564.012 714.472 559.352 716.914C557.858 717.677 556.348 718.41 554.824 719.113C560.22 714.796 565.978 710.273 570.255 704.837C584.105 687.233 598.404 665.557 602.269 643.356Z" fill="#7EFCE2"/>
<path d="M433.241 695.471C432.902 693.687 432.49 692.912 434.051 691.931C435.546 692.332 435.671 692.339 436.664 693.527L437.643 693.584C446.574 705.752 450.44 710.057 462.846 718.846C451.948 714.383 444.469 709.168 436.721 700.074C435.905 699.115 433.723 696.519 433.241 695.471Z" fill="#8EECF5"/>
<path d="M391.926 780.405C410.101 762.086 424.835 738.619 430.979 713.606C431.669 710.799 432.978 703.206 434.624 701.584C443.338 711.403 452.444 718.806 465.403 722.412C465.614 725.57 465.636 727.626 466.593 730.693L466.122 732.169C464.548 732.252 461.577 730.318 459.829 729.468C453.599 739.653 456.664 745.821 466.708 751.81C467.671 752.381 468.643 752.937 469.625 753.476C468.643 769.196 460.809 783.871 450.148 795.22C443.155 796.07 434.72 797.938 428.127 800.445C421.55 793.55 400.851 783.863 391.926 780.405Z" fill="#FCFBFC"/>
<path d="M519.611 729.5C531.847 727.612 538.872 726.23 550.131 720.806C544.128 726.452 545.122 728.922 546.76 736.717C536.277 741.569 530.856 742.526 519.509 744.169C516.353 738.472 511.04 734.692 506.044 730.517C504.18 730.563 503.45 730.665 501.602 730.221C507.608 730.063 513.612 729.823 519.611 729.5Z" fill="#7EFCE2"/>
<path d="M549.655 735.13C549.059 734.976 549.453 735.112 548.572 734.511C546.942 729.401 548.566 725.146 552.56 721.78L553.029 721.948C553.862 723.455 553.529 729.949 553.512 732.077L549.655 735.13Z" fill="#7EFCE2"/>
<path d="M469.976 735.5C468.607 733.523 468.145 726.093 468.771 723.714L469.838 723.355C470.621 727.16 470.18 731.567 469.976 735.5Z" fill="#FCFBFC"/>
<path d="M469.84 723.355L471.541 723.99C471.572 727.306 471.773 731.777 471.185 734.935C470.241 735.496 470.668 735.374 469.978 735.5C470.182 731.567 470.623 727.16 469.84 723.355Z" fill="#2F3E41"/>
<path d="M469.977 735.5C470.667 735.374 470.24 735.496 471.184 734.935C471.772 731.777 471.571 727.306 471.54 723.99C481.547 727.859 490.975 729.324 501.602 730.221C503.45 730.665 504.18 730.563 506.044 730.517C511.04 734.692 516.353 738.472 519.509 744.169C506.887 745.904 479.481 744.884 469.977 735.5Z" fill="#FCFBFC"/>
<path d="M555.476 727.018L556.046 729.597L556.829 729.952C557.814 729.345 558.809 728.798 559.85 728.293C561.501 728.727 562.137 729.226 563.027 730.809C567.869 739.427 557.805 751.141 549.774 753.81C549.197 754.104 547.782 754.532 547.89 755.218C551.862 780.473 579.29 815.13 603.219 822.313L602.749 821.729C599.104 817.247 593.585 813.781 589.076 810.197C573.583 797.886 560.992 782.859 553.041 764.617C551.697 761.533 549.634 757.607 550.443 754.11C551.917 754.675 551.878 755.183 552.678 757.141C556.824 767.291 561.573 776.856 568.426 785.527C572.594 790.935 577.812 797.189 583.524 801.148C586.828 803.438 592.698 804.289 596.658 806.015C607.87 810.901 625.991 817.571 633.69 827.061C639.502 834.225 643.498 848.744 642.871 857.768C642.61 862.029 640.117 866.174 637.573 869.24L633.704 872.898C623.681 879.978 616.095 882.747 604.238 886.276C567.577 896.713 507.701 897.689 469.947 892.716C435.51 886.252 357.649 877.026 393.523 822.88C394.363 824.495 396.008 827.576 397.181 828.818C411.94 844.453 456.815 851.248 477.332 852.52C515.318 856.266 560.622 854.251 597.624 844.863C603.952 843.443 610.161 841.537 616.196 839.163C618.005 838.437 623.591 835.499 624.772 836.233C623.246 841.15 606.127 845.243 601.417 846.408C595.686 848.44 586.442 850.29 580.375 851.416C545.482 857.889 513.382 856.908 478.339 855.314C455.067 852.362 409.071 848.154 393.306 828.63C388.733 836.749 385.442 845.007 388.211 854.45C391.827 866.777 404.821 874.142 416.161 878.002C433.338 883.849 451.227 887.531 469.131 890.141C477.403 891.093 485.706 891.747 494.025 892.102C531.423 893.942 606.471 894.095 635.382 867.912C638.155 864.659 637.613 864.463 639.455 861.27C642.714 855.621 636.547 837.005 634.093 831.905C628.792 820.891 599.31 809.375 587.66 805.789C604.274 819.561 615.734 822.671 587.571 833.977C558.591 845.234 508.838 845.745 478.166 841.786C476.638 841.593 475.112 841.387 473.588 841.169C458.364 838.98 438.426 834.693 426.131 824.765C424.217 823.22 422.122 820.343 420.617 818.33C424.589 816.04 428.99 813.677 432.584 810.887C438.359 806.717 442.064 803.483 447.14 798.472C439.931 799.741 435.816 800.655 428.881 803.006C415.321 807.722 405.846 812.892 394.55 821.302C393.78 821.875 393.283 821.898 392.477 821.601L392.667 820.634C402.105 811.431 415.514 804.068 428.127 800.445C434.72 797.938 443.155 796.07 450.148 795.22C460.809 783.871 468.643 769.196 469.625 753.476C468.643 752.937 467.671 752.381 466.708 751.81C456.664 745.821 453.599 739.653 459.829 729.468C461.577 730.318 464.548 732.252 466.122 732.169L466.593 730.693C467.741 732.532 466.116 734.575 467.578 736.399C468.178 737.146 468.561 737.225 469.176 738.126C465.547 737.148 463.703 732.937 461.002 733.771C460.01 734.914 458.315 736.583 458.557 738.155C459.392 743.569 466.238 748.997 471.091 751.469C488.891 760.532 510.622 761.799 529.392 757.357C539.112 755.441 546.622 752.023 555.242 747.483C557.811 745.512 558.862 743.927 560.435 741.172C561.5 738.279 562.44 733.685 560.403 731.014C558.743 731.42 558.721 732.849 556.483 734.455L555.077 734.078C557.885 730.271 554.908 733.886 555.476 727.018ZM522.191 762.899L521.496 761.882C517.527 761.598 510.873 762.611 506.032 762.539C506.606 771.491 509.438 824.189 506.736 830.07C505.447 824.268 505.628 802.5 505.347 795.205C504.959 785.111 503.612 772.317 503.517 762.594L493.646 761.295C489.597 789.393 487.424 805.467 471.325 830.522C469.696 832.663 467.876 835.168 466.185 837.212C468.446 837.662 470.774 838.164 473.041 838.538C503.764 843.247 554.234 843.366 583.553 832.538C561.191 819.388 549.422 799.085 541.045 775.069C539.011 769.236 537.024 764.708 536.861 758.47C532.415 759.567 528.279 759.372 525.049 761.799C524.04 763.285 524.413 764.961 524.529 766.833C523.583 764.643 523.699 763.102 522.961 761.794L522.191 762.899ZM538.626 757.944C540.191 766.164 544.331 777.136 547.577 784.946C554.238 800.005 562.628 814.241 575.889 824.495C579.653 827.405 582.625 828.88 586.499 831.358C588.796 830.421 591.309 829.457 593.557 828.457C595.688 827.349 598.254 825.654 600.337 824.361C597.108 822.809 593.909 821.197 590.741 819.526C576.567 810.198 569.654 801.529 559.346 788.549C551.814 775.843 548.981 770.438 545.126 755.645L538.626 757.944ZM440.95 817.788L432.171 825.894C436.353 828.043 439.403 829.433 443.761 831.204C446.578 828.722 449.013 826.594 451.611 823.891C470.484 804.536 479.042 785.6 484.197 759.112L476.151 756.514C472.263 782.555 459.32 799.677 440.95 817.788ZM454.316 824.761C451.83 827.273 449.269 829.709 446.635 832.066C452.321 834.176 457.629 835.603 463.567 836.872C464.821 835.308 466.69 833.118 467.743 831.495C483.641 810.407 487.545 786.52 491.299 761.453C490.149 760.388 488.497 760.243 486.832 759.839C480.403 787.17 473.537 803.986 454.316 824.761ZM472.399 754.69C470.769 760.007 470.683 765.021 468.591 770.63C461.083 790.751 443.197 808.347 424.717 818.53L423.893 818.983L427.232 822.446C428.888 823.631 429.114 824.29 430.63 824.13C448.601 809.765 469.016 783.596 473.402 760.393C473.777 758.405 474.037 756.07 472.399 754.69Z" fill="#080F19"/>
<path d="M555.076 734.078L556.482 734.455C558.72 732.849 558.742 731.42 560.402 731.014C562.439 733.685 561.499 738.279 560.434 741.172C558.092 740.075 555.587 738.697 553.751 740.856C553.252 739.776 552.859 738.967 552.285 737.926C549.367 739.159 542.948 741.306 544.152 745.407L544.592 745.807C542.376 745.892 541.722 744.08 540.594 742.297C544.983 740.7 551.977 737.568 555.076 734.078Z" fill="#98F5E1"/>
<path d="M529.39 757.357C510.62 761.799 488.889 760.532 471.089 751.469C466.236 748.997 459.39 743.569 458.555 738.155C458.313 736.583 460.008 734.914 461 733.771C463.701 732.937 465.545 737.148 469.174 738.126C484.182 748.335 506.278 748.02 523.47 746.268C525.182 748.503 526.705 750.413 528.133 752.862C528.564 754.306 529.091 755.902 529.39 757.357Z" fill="#FCFBFC"/>
<path d="M540.596 742.297C541.724 744.08 542.378 745.892 544.594 745.807L544.154 745.407C542.95 741.306 549.369 739.159 552.287 737.926C552.861 738.967 553.254 739.776 553.753 740.856C554.011 743.363 553.948 745.385 555.243 747.483C546.623 752.023 539.113 755.441 529.393 757.357C529.094 755.902 528.567 754.306 528.136 752.862C526.708 750.413 525.185 748.503 523.473 746.268C526.117 745.823 528.755 745.345 531.387 744.832C534.888 744.12 537.181 743.396 540.596 742.297Z" fill="#C9F6E8"/>
<path d="M553.75 740.856C555.586 738.697 558.091 740.075 560.433 741.172C558.86 743.927 557.809 745.512 555.24 747.483C553.945 745.385 554.008 743.363 553.75 740.856Z" fill="#C9F6E8"/>
<path d="M568.426 785.527C572.669 782.729 598.367 776.037 604.766 774.269C632.597 766.765 660.801 760.722 689.263 756.164C731.651 749.806 803.1 745.186 843.307 760.241C839.948 770.894 834.207 779.871 827.759 788.812C806.284 818.596 775.933 839.429 743.784 856.297C716.487 870.619 692.734 877.54 663.428 885.965C660.225 884.83 641.795 872.03 637.573 869.24C640.117 866.174 642.611 862.029 642.872 857.768C643.499 848.744 639.502 834.225 633.69 827.061C625.991 817.571 607.87 810.901 596.658 806.015C592.698 804.289 586.828 803.438 583.524 801.148C577.812 797.189 572.594 790.935 568.426 785.527Z" fill="#98F5E1"/>
<path d="M603.218 822.313C579.289 815.13 551.861 780.473 547.889 755.218C547.781 754.532 549.196 754.104 549.773 753.81L550.442 754.11C549.633 757.607 551.696 761.533 553.04 764.617C560.991 782.859 573.582 797.886 589.075 810.197C593.584 813.781 599.103 817.247 602.748 821.729L603.218 822.313Z" fill="#98F5E1"/>
<path d="M423.891 818.983L424.715 818.53C443.195 808.347 461.081 790.751 468.589 770.63C470.681 765.021 470.767 760.007 472.397 754.69C474.035 756.07 473.775 758.405 473.4 760.393C469.014 783.596 448.599 809.765 430.628 824.13C429.112 824.29 428.886 823.631 427.23 822.446L423.891 818.983Z" fill="url(#paint5_linear_31_921)"/>
<path d="M547.576 784.946C544.33 777.136 540.19 766.164 538.625 757.944L545.125 755.645C548.98 770.438 551.813 775.843 559.345 788.549C553.505 787.092 554.697 780.809 547.576 784.946Z" fill="#98F5E1"/>
<path d="M440.949 817.788C459.319 799.677 472.262 782.555 476.15 756.514L484.196 759.112C479.041 785.6 470.483 804.536 451.61 823.891C447.718 822.135 444.345 820.378 440.949 817.788Z" fill="#FCFBFC"/>
<path d="M506.031 762.539C510.872 762.611 517.526 761.598 521.495 761.882L522.19 762.899C520.797 781.034 532.35 819.991 544.585 833.034C545.819 834.35 547.739 836.858 549.406 837.519L550.29 837.383C550.235 834.73 543.763 827.876 542.01 825.11C533.143 811.113 528.808 795.245 526.23 779.032C525.682 775.586 525.35 769.893 524.528 766.833C524.412 764.961 524.039 763.285 525.048 761.799C528.278 759.372 532.414 759.567 536.86 758.47C537.023 764.708 539.01 769.236 541.044 775.069C549.421 799.085 561.19 819.388 583.552 832.538C554.233 843.366 503.763 843.247 473.04 838.538C473.126 834.757 473.333 833.633 471.324 830.522C487.423 805.467 489.596 789.393 493.645 761.295L503.516 762.594C503.611 772.317 504.958 785.111 505.346 795.205C505.627 802.5 505.446 824.268 506.735 830.07C509.437 824.189 506.605 771.491 506.031 762.539Z" fill="#FCFBFC"/>
<path d="M843.305 760.241L843.738 759.643C846.96 762.278 858.787 766.03 863.406 768.398C896.174 785.196 917.504 822.545 901.23 858.292C884.363 895.34 839.469 914.092 801.291 919.235C764.843 924.144 726.629 916.347 693.295 901.484C684.075 897.378 671.722 891.459 663.426 885.965C692.732 877.54 716.485 870.619 743.782 856.297C775.931 839.429 806.282 818.596 827.757 788.812C834.205 779.871 839.946 770.894 843.305 760.241Z" fill="#C9F6E8"/>
<path d="M454.316 824.761C473.537 803.986 480.403 787.17 486.832 759.839C488.497 760.243 490.149 760.388 491.299 761.453C487.545 786.52 483.641 810.407 467.743 831.495C463.303 829.672 457.934 827.872 454.316 824.761Z" fill="#FCFBFC"/>
<path d="M522.189 762.899L522.959 761.794C523.697 763.102 523.581 764.643 524.527 766.833C525.349 769.893 525.681 775.586 526.229 779.032C528.807 795.245 533.142 811.113 542.009 825.11C543.762 827.876 550.234 834.73 550.289 837.383L549.405 837.519C547.738 836.858 545.818 834.35 544.584 833.034C532.349 819.991 520.796 781.034 522.189 762.899Z" fill="url(#paint6_linear_31_921)"/>
<path d="M266.958 809.212C271.925 804.143 276.775 799.743 282.385 795.436C313.613 771.461 354.881 767.738 391.421 780.525C364.164 805.108 331.361 816.094 294.814 814.224C285.35 813.827 275.978 812.199 266.934 809.383L266.958 809.212Z" fill="#B9FBC0"/>
<path d="M391.418 780.525L391.923 780.405C400.848 783.863 421.547 793.55 428.124 800.445C415.511 804.068 402.102 811.431 392.664 820.634L392.474 821.601C393.28 821.898 393.777 821.875 394.547 821.302C405.843 812.892 415.318 807.722 428.878 803.006C429.626 804.861 431.326 809.614 432.581 810.887C428.987 813.677 424.586 816.04 420.614 818.33C422.119 820.343 424.214 823.22 426.128 824.765C438.423 834.693 458.361 838.98 473.585 841.169C475.109 841.387 476.635 841.593 478.163 841.786C477.675 845.738 477.466 848.535 477.329 852.52C456.812 851.248 411.937 844.453 397.178 828.818C396.005 827.576 394.36 824.495 393.52 822.88C357.646 877.026 435.507 886.252 469.944 892.716C467.191 893.715 463.118 901.882 461.623 904.565C440.905 941.738 406.076 965.267 363.916 970.806C333.911 974.468 303.686 965.992 279.961 947.262C237.91 914.516 231.919 856.053 262.745 815.297C264.207 813.363 265.392 811.338 266.931 809.383C275.975 812.199 285.347 813.827 294.811 814.224C331.358 816.094 364.161 805.108 391.418 780.525Z" fill="#FDE4CF"/>
<path d="M547.574 784.946C554.695 780.809 553.503 787.092 559.343 788.549C569.651 801.529 576.564 810.198 590.738 819.526C591.037 823.611 591.026 825.061 593.554 828.457C591.306 829.457 588.793 830.421 586.496 831.358C582.622 828.88 579.65 827.405 575.886 824.495C562.625 814.241 554.235 800.005 547.574 784.946Z" fill="#FCFBFC"/>
<path d="M428.879 803.006C435.814 800.655 439.929 799.741 447.138 798.472C442.062 803.483 438.357 806.717 432.582 810.887C431.327 809.614 429.627 804.861 428.879 803.006Z" fill="#FFEDE1"/>
<path d="M587.57 833.977C615.733 822.671 604.273 819.561 587.659 805.789C599.309 809.375 628.791 820.891 634.092 831.905C636.546 837.005 642.713 855.621 639.454 861.27C637.612 864.463 638.154 864.659 635.381 867.912C625.427 860.65 611.921 855.07 601.416 846.408C606.126 845.243 623.245 841.15 624.771 836.233C623.59 835.499 618.004 838.437 616.195 839.163C610.16 841.537 603.951 843.443 597.623 844.863C594.206 838.233 592.065 839.056 587.57 833.977Z" fill="#98F5E1"/>
<path d="M432.172 825.894L440.951 817.788C444.347 820.378 447.72 822.135 451.612 823.891C449.014 826.594 446.579 828.722 443.762 831.204C439.404 829.433 436.354 828.043 432.172 825.894Z" fill="#FDE4CF"/>
<path d="M590.738 819.526C593.906 821.197 597.105 822.809 600.334 824.361C598.251 825.654 595.685 827.349 593.554 828.457C591.026 825.061 591.037 823.611 590.738 819.526Z" fill="#BDD1BA"/>
<path d="M446.633 832.066C449.267 829.709 451.828 827.273 454.314 824.761C457.932 827.872 463.301 829.672 467.741 831.495C466.688 833.118 464.819 835.308 463.565 836.872C457.627 835.603 452.319 834.176 446.633 832.066Z" fill="#FDE4CF"/>
<path d="M478.339 855.314C477.024 856.565 476.521 862.137 476.098 864.25C474.385 872.797 472.252 881.995 469.131 890.141C451.227 887.531 433.338 883.849 416.161 878.002C404.821 874.142 391.827 866.777 388.211 854.45C385.442 845.007 388.733 836.749 393.306 828.63C409.071 848.154 455.067 852.362 478.339 855.314Z" fill="#FDE4CF"/>
<path d="M466.184 837.212C467.875 835.168 469.695 832.663 471.324 830.522C473.333 833.633 473.126 834.757 473.04 838.538C470.773 838.164 468.445 837.662 466.184 837.212Z" fill="#FDE4CF"/>
<path d="M478.166 841.786C508.838 845.745 558.591 845.234 587.571 833.977C592.066 839.056 594.207 838.233 597.624 844.863C560.622 854.251 515.318 856.266 477.332 852.52C477.469 848.535 477.678 845.738 478.166 841.786Z" fill="#FCFBFC"/>
<path d="M478.337 855.314C513.38 856.908 545.48 857.889 580.373 851.416C586.44 850.29 595.684 848.44 601.415 846.408C611.92 855.07 625.426 860.65 635.38 867.912C606.469 894.095 531.421 893.942 494.023 892.102C485.704 891.747 477.401 891.093 469.129 890.141C472.25 881.995 474.383 872.797 476.096 864.25C476.519 862.137 477.022 856.565 478.337 855.314Z" fill="#FCFBFC"/>
<path d="M604.238 886.276C616.095 882.747 623.681 879.978 633.704 872.898C638.257 878.586 641.769 883.789 640.729 891.543C639.223 902.774 628.174 908.627 617.6 906.131C605.779 903.341 605.49 896.394 604.238 886.276Z" fill="#FDE4CF"/>
<defs>
<linearGradient id="paint0_linear_31_921" x1="513.118" y1="352.725" x2="508.478" y2="352.284" gradientUnits="userSpaceOnUse">
<stop stop-color="#181B56"/>
<stop offset="1" stop-color="#11356F"/>
</linearGradient>
<linearGradient id="paint1_linear_31_921" x1="498.518" y1="465.295" x2="582.998" y2="442.628" gradientUnits="userSpaceOnUse">
<stop stop-color="#CAE2F6"/>
<stop offset="1" stop-color="#B0EDF4"/>
</linearGradient>
<linearGradient id="paint2_linear_31_921" x1="299.377" y1="469.518" x2="367.348" y2="432.081" gradientUnits="userSpaceOnUse">
<stop stop-color="#EBDDF7"/>
<stop offset="1" stop-color="#EBC8FA"/>
</linearGradient>
<linearGradient id="paint3_linear_31_921" x1="478.649" y1="590.933" x2="453.358" y2="547.769" gradientUnits="userSpaceOnUse">
<stop/>
<stop offset="1" stop-color="#051B2F"/>
</linearGradient>
<linearGradient id="paint4_linear_31_921" x1="587.563" y1="654.871" x2="522.365" y2="653.233" gradientUnits="userSpaceOnUse">
<stop stop-color="#000101"/>
<stop offset="1" stop-color="#001616"/>
</linearGradient>
<linearGradient id="paint5_linear_31_921" x1="441.554" y1="785.035" x2="459.462" y2="793.501" gradientUnits="userSpaceOnUse">
<stop stop-color="#FFEBC1"/>
<stop offset="1" stop-color="#EFFDF8"/>
</linearGradient>
<linearGradient id="paint6_linear_31_921" x1="537.76" y1="798.449" x2="529.223" y2="801.118" gradientUnits="userSpaceOnUse">
<stop stop-color="#020204"/>
<stop offset="1" stop-color="#091622"/>
</linearGradient>
</defs>
</svg>
