<svg width="1024" height="1024" viewBox="0 0 1024 1024" fill="none" xmlns="http://www.w3.org/2000/svg">
<path d="M359.508 190.901C364.79 179.437 370.51 167.484 377.463 156.851C408.962 108.683 466.03 67.1846 522.322 54.9287C552.17 48.43 591.294 50.5879 616.388 68.7092C627.761 76.9222 631.258 80.7988 639.103 92.2288C656.002 116.852 654.811 140.073 660.131 166.863L659.993 167.242C657.149 168.53 649.635 173.887 646.94 175.971C621.335 195.764 597.739 220.5 579.503 247.278C578.253 249.114 573.293 256.206 572.383 257.947C563.524 257.331 554.424 256.382 545.563 255.565C546.788 233.753 550.639 222.928 570.55 212.251C571.75 210.233 572.637 208.922 572.14 206.578C569.357 202.998 564.875 204.723 561.273 206.198C548.435 211.454 551.923 231.807 540.062 237.186L539.417 236.063L540.092 235.468C540.634 232.517 542.437 230.473 543.955 227.764C548.603 219.472 548.902 214.667 549.404 205.693L549.896 205.368C554.752 199.87 559.955 189.977 563.6 186.291L565.322 187.132C566.558 188.334 566.724 188.96 568.674 188.838C575.262 188.429 582.192 183.826 586.521 179.074C589.816 175.457 597.624 157.221 594.368 153.64C589.032 152.186 576.016 156.871 571.118 159.672C562.268 164.732 554.265 177.222 561.21 186.879C559.721 189.357 552.099 201.98 550.699 202.868L549.835 203.08C548.743 204.431 548.763 204.515 547.253 205.511L546.315 205.023C546.264 203.769 547.888 202.743 549.097 200.772L548.724 199.951C551.544 195.565 552.545 193.662 553.922 188.668C553.119 186.746 552.721 186.093 551.616 184.303C547.934 177.719 538.904 178.917 533.321 182.145C529.264 184.491 526.887 187.131 524.218 190.945C524.138 189.452 524.02 185.347 522.674 184.478C504.685 172.87 504.315 207.437 500.962 215.374C497.939 210.826 495.657 206.379 490.998 203.647L490.332 203.261C489.551 201.036 490.042 198.541 489.657 196.266C488.311 190.764 483.709 186.62 479.36 183.298C472.687 178.201 460.667 179.088 464.116 190.071C465.831 195.533 471.443 199.068 476.695 201.4C472.727 198.441 467.928 195.185 465.558 190.579C463.249 186.587 465.465 181.89 470.358 182.302C482.67 183.341 487.284 193.068 489.449 203.305C483.578 206.99 484.108 206.998 477.443 206.369C475.743 206.468 475.711 206.277 474.278 207.036C476.274 207.729 478.04 207.51 480.184 207.439L483.007 209.129L483.033 209.322C480.657 209.374 479.018 208.945 475.862 209.114L475.387 208.955C473.783 209.363 473.599 209.254 471.985 209.117C469.304 207.921 467.964 206.387 465.833 204.385C465.229 203.354 465.13 203.127 464.71 202.005C464.112 199.694 462.927 197.776 461.73 195.743C457.363 185.132 459.445 169.246 448.1 162.938C437.254 156.907 421.266 168.232 427.528 180.907C430.937 187.807 435.583 189.943 442.405 192.428L441.982 193.19C437.437 196.156 437.544 200.547 437.278 205.566C432.244 199.838 426.568 195.605 418.684 195.298C405.631 194.789 401.958 203.771 400.503 214.544C397.172 213.489 388.993 207.21 385.342 205.163C377.478 200.751 367.668 194.385 359.508 190.901ZM493.737 172.124C492.877 171.473 492.218 170.981 491.312 170.399C490.873 170.606 491.174 170.437 490.544 171.094L491.524 173.568L491.308 173.587C492.764 175.315 494.536 177.994 496.975 177.936L497.28 177.186C496.689 176.044 496.538 175.84 495.753 174.815C495.727 172.879 492.725 166.914 491.81 164.917C493.435 163.406 494.948 161.842 496.503 160.262C496.69 148.999 494.037 141.276 486.119 132.892C464.011 109.483 463.222 152.998 477.624 161.083C480.278 162.572 484.449 165.77 487.744 165.348C487.554 164.482 469.829 158.328 469.655 140.993C469.287 104.45 504.58 154.801 492.915 161.829C492.498 161.386 492.221 161.286 492.132 160.632C491.415 155.321 479.06 135.434 475.744 132.957L475.082 133.252C480.596 141.497 486.508 149.752 489.731 159.316C491.248 163.817 491.671 167.675 493.737 172.124ZM517.925 142.578C506.465 145.573 496.153 156.171 499.071 168.986C499.642 171.493 501.276 174.517 501.201 177.036L500.138 177.896C503.793 178.289 506.828 181.17 511.391 182.194C533.259 177.689 539.606 140.702 517.925 142.578Z" fill="#B9FBC0"/>
<path d="M493.737 172.124C491.671 167.675 491.248 163.817 489.731 159.316C486.508 149.752 480.596 141.497 475.082 133.252L475.744 132.957C479.06 135.434 491.415 155.321 492.132 160.632C492.221 161.286 492.498 161.386 492.915 161.829C504.58 154.801 469.287 104.45 469.655 140.993C469.829 158.328 487.554 164.482 487.744 165.348C484.449 165.77 480.278 162.572 477.624 161.083C463.222 152.998 464.011 109.483 486.119 132.892C494.037 141.276 496.69 148.999 496.503 160.262C494.948 161.842 493.435 163.406 491.81 164.917C492.725 166.914 495.727 172.879 495.753 174.815C495.069 173.783 494.504 173.088 493.737 172.124Z" fill="#030303"/>
<path d="M660.13 166.863C672.858 158.415 695.651 145.642 709.573 140.129C755.559 121.922 820.469 119.141 850.304 166.566C880.162 214.029 856.655 273.835 838.383 321.198C836.061 327.255 830.146 337.285 828.62 342.607C826.748 343.46 826.589 343.546 824.582 343.845C824.528 291.959 722.236 277.055 684.623 270.274C670.726 238.08 665.356 201.579 659.992 167.242L660.13 166.863Z" fill="#B9FBC0"/>
<path d="M511.391 182.194C506.828 181.17 503.793 178.289 500.138 177.896L501.201 177.036C501.276 174.517 499.642 171.493 499.071 168.986C496.153 156.171 506.465 145.573 517.925 142.578C539.606 140.702 533.259 177.689 511.391 182.194ZM518.903 144.12C498.609 148.293 492.264 175.611 512.011 180.507C530.368 175.855 538.08 144.283 518.903 144.12Z" fill="#030303"/>
<path d="M512.012 180.507C492.265 175.611 498.61 148.293 518.904 144.12C538.081 144.283 530.369 175.855 512.012 180.507ZM520.787 150.114L519.388 151.184C517.543 152.664 517.16 152.827 515.988 154.801L515.975 155.788L516.907 155.874L517.783 156.121C515.926 160.498 516.829 161.995 516.332 166.61C516.671 166.003 521.329 151.24 521.456 150.475L520.787 150.114Z" fill="#B0EECC"/>
<path d="M520.787 150.114L521.456 150.475C521.329 151.24 516.671 166.003 516.332 166.61C516.829 161.995 515.926 160.498 517.783 156.121C519.926 154.844 520.303 152.378 520.787 150.114Z" fill="#1E231F"/>
<path d="M519.387 151.184L520.786 150.114C520.302 152.378 519.925 154.844 517.782 156.121L516.906 155.874C517.197 154.539 518.614 152.458 519.387 151.184Z" fill="#B2DBC0"/>
<path d="M516.909 155.874L515.977 155.788L515.99 154.801C517.162 152.827 517.545 152.664 519.39 151.184C518.617 152.458 517.2 154.539 516.909 155.874Z" fill="#1E231F"/>
<path d="M563.602 186.291C559.957 189.977 554.754 199.87 549.898 205.368L550.701 202.868C552.101 201.98 559.723 189.357 561.212 186.879C554.267 177.222 562.27 164.732 571.12 159.672C576.018 156.871 589.034 152.186 594.37 153.64C597.626 157.221 589.818 175.457 586.523 179.074C582.194 183.826 575.264 188.429 568.676 188.838C566.726 188.96 566.56 188.334 565.324 187.132C584.319 186.941 589.735 172.119 593.272 156.68C580.803 167.724 574.692 173.563 563.602 186.291ZM590.279 155.634C580.04 157.579 569.914 159.921 563.723 169.175C560.043 174.677 558.995 179.887 562.055 185.899C568.993 177.729 575.443 170.377 583.454 163.18C585.191 161.619 590.775 157.343 591.296 155.714L590.279 155.634Z" fill="#030303"/>
<path d="M562.052 185.899C558.992 179.887 560.04 174.677 563.72 169.175C569.911 159.921 580.037 157.579 590.276 155.634L591.293 155.714C590.772 157.343 585.188 161.619 583.451 163.18C575.44 170.377 568.99 177.729 562.052 185.899Z" fill="#B0EECC"/>
<path d="M563.602 186.291C574.692 173.563 580.803 167.724 593.272 156.68C589.735 172.119 584.319 186.941 565.324 187.132L563.602 186.291Z" fill="#B0EECC"/>
<path d="M442.404 192.428C435.582 189.943 430.936 187.807 427.527 180.907C421.265 168.232 437.253 156.907 448.099 162.938C459.444 169.246 457.362 185.132 461.729 195.743L460.879 196.059C456.105 186.929 458.039 167.104 445.197 163.345C437.48 161.086 429.15 166.312 427.385 174.733C431.782 193.22 440.219 188.385 452.749 191.306C454.289 191.665 462.257 201.797 465.832 204.385C467.963 206.387 469.303 207.921 471.984 209.117L472.03 209.712L471.128 209.825C467.64 208.466 464.575 205.23 461.928 202.602C460.322 200.996 458.646 199.402 457.014 197.816C455.444 196.03 453.977 193.53 452.672 191.491C450.146 191.457 443.945 191.14 442.404 192.428Z" fill="#030303"/>
<path d="M427.387 174.733C429.152 166.312 437.482 161.086 445.199 163.345C458.041 167.104 456.107 186.929 460.881 196.059C462.192 198.379 462.97 199.957 464.711 202.005C465.131 203.127 465.23 203.354 465.834 204.385C462.259 201.797 454.291 191.665 452.751 191.306C440.221 188.385 431.784 193.22 427.387 174.733Z" fill="#B0EECC"/>
<path d="M572.383 257.947C573.293 256.206 578.253 249.114 579.503 247.278C597.739 220.5 621.335 195.764 646.94 175.971C649.635 173.887 657.149 168.53 659.993 167.242C665.357 201.579 670.727 238.08 684.624 270.274C665.643 267.282 645.206 265.28 626.089 263.154C608.476 261.195 590.055 258.966 572.383 257.947Z" fill="#98F5E1"/>
<path d="M209.605 642.109C205.957 638.676 199.814 634.815 195.959 631.315C188.562 624.601 179.564 617.341 172.582 610.317C165.384 603.075 156.089 594.468 149.455 586.872C110.976 542.812 71.6525 487.616 57.8663 430.162C55.853 421.771 53.3105 406.041 53.1438 398.023C52.2169 353.427 66.5831 315.008 90.8431 278.383C124.372 227.764 178.274 186.019 238.356 173.783C272.119 166.907 303.512 170.019 336.119 180.771C343.183 183.101 353.404 186.91 359.511 190.901C367.671 194.385 377.481 200.751 385.345 205.163C388.996 207.21 397.175 213.489 400.506 214.544C400.343 216.877 399.977 218.071 401.506 219.872C405.192 224.216 414.624 226.209 420.164 226.448C422.165 226.529 424.169 226.477 426.163 226.292L426.984 227.299C426.812 227.968 426.79 228.294 426.475 228.894L425.107 230.04C425.236 230.966 442.366 249.277 445.167 254.594C418.137 255.889 390.919 257.556 364.052 260.846C319.643 266.283 227.344 281.742 196.314 316.155C189.883 323.287 185.868 331.921 186.43 341.684C186.767 347.536 188.079 353.507 189.185 359.259C192.191 374.889 195.366 388.692 207.789 399.655C214.631 405.694 222.527 410.499 230.419 415.032C263.408 433.984 300.97 445.614 338.443 451.748C346.238 487.691 325.445 583.398 314.839 621.013C304.358 622.05 294.617 623.924 284.211 625.312C260.153 628.523 232.967 631.559 210.678 641.718C209.953 642.049 210.389 641.896 209.605 642.109Z" fill="#FBF8CC"/>
<path d="M495.756 174.815C496.541 175.84 496.692 176.044 497.283 177.186L496.978 177.936C494.539 177.994 492.767 175.315 491.311 173.587L491.527 173.568L490.547 171.094C491.177 170.437 490.876 170.606 491.315 170.399C492.221 170.981 492.88 171.473 493.74 172.124C494.507 173.088 495.072 173.783 495.756 174.815Z" fill="url(#paint0_linear_31_1175)"/>
<path d="M551.619 184.303C542.421 179.113 531.49 181.159 526.482 190.889C526.05 191.727 526.026 191.97 526.059 192.899L525.198 193.845L524.248 196.504L523.672 196.592C521.258 187.887 526.449 182.791 513.418 184.036C508.768 187.363 503.456 194.002 507.768 200.185C508.639 201.433 509.841 202.716 510.833 203.89C510.063 208.289 510.666 207.312 511.284 210.805C511.26 210.666 510.269 216.259 510.229 217.955C509.364 221.338 508.709 225.003 508.032 228.449C507.919 222.844 512.853 203.827 506.712 200.68L505.838 201.177C503.308 204.871 502.322 213.443 502.264 217.925C501.747 215.709 502.348 216.359 500.965 215.374C504.318 207.437 504.688 172.87 522.677 184.478C524.023 185.347 524.141 189.452 524.221 190.945C526.89 187.131 529.267 184.491 533.324 182.145C538.907 178.917 547.937 177.719 551.619 184.303Z" fill="#1E231F"/>
<path d="M551.616 184.303C552.721 186.093 553.119 186.746 553.922 188.668C552.545 193.662 551.544 195.565 548.724 199.951C544.73 204.558 543.958 205.444 538.55 208.342L532.802 209.259C531.148 210.986 514.509 234.012 513.298 236.407L513.693 237.194C516.568 237.668 519.296 235.509 521.309 233.597L521.408 234.218L520.063 235.82L520.284 236.427C523.466 236.135 531.157 235.74 533.588 234.724C534.292 233.16 535.202 232.148 536.251 230.797C535.789 232.595 535.381 232.751 536.029 233.965L537.159 233.773C541.136 230.666 544.239 225.16 545.99 220.463C546.954 217.446 548.858 212.02 547.725 209.196L546.843 208.823L544.544 210.035L543.821 209.684C545.732 208.017 547.05 206.585 549.404 205.693C548.902 214.667 548.603 219.472 543.955 227.764C542.437 230.473 540.634 232.517 540.092 235.468L539.417 236.063L538.646 234.984C537.826 235.25 535.015 236.467 534.533 236.531C515.074 239.123 495.901 240.905 476.338 238.751L475.829 238.644C473.128 238.056 470.834 236.793 468.627 236.836C470 238.804 472.383 239.604 474.603 240.529C488.16 245.086 525.769 241.137 540.062 237.186C551.923 231.807 548.435 211.454 561.273 206.198C564.875 204.723 569.357 202.998 572.14 206.578C572.637 208.922 571.75 210.233 570.55 212.251C550.639 222.928 546.788 233.753 545.563 255.565C554.424 256.382 563.524 257.331 572.383 257.947C590.055 258.966 608.476 261.195 626.089 263.154C645.206 265.28 665.643 267.282 684.624 270.274C722.237 277.055 824.529 291.959 824.583 343.845C823.403 353.117 822.01 358.651 820.038 367.502C816.447 383.611 812.632 395.517 798.668 405.793C782.307 417.833 760.679 426.958 741.428 433.452C738.844 434.323 730.989 437.071 728.434 437.591C726.41 438.224 721.959 439.759 720.079 440.16C703.367 444.389 684.524 448.91 667.466 451.765C669.278 486.284 674.222 520.406 679.889 554.463C681.401 563.549 684.099 583.522 686.553 591.958C687.667 597.979 688.956 603.508 690.362 609.461C693.722 622.55 696.424 636.29 700.195 649.306C713.42 694.953 728.827 740.934 750.682 783.244C752.409 786.165 754.866 791.232 756.999 793.645C763.45 800.947 764.503 813.194 759.408 821.511C749.855 837.106 720.59 831.97 713.336 816.271C708.907 806.685 706.896 797.666 703.813 787.723C687.769 734.424 670.369 679.812 657.653 625.674C650.191 631.198 626.825 641.494 617.248 646.085L534.432 685.662C534.876 692.595 538.831 729.026 535.851 732.485C531.97 736.992 517.865 743.832 511.726 744.056C506.421 744.249 499.299 738.031 495.746 734.47C495.167 733.888 494.596 733.298 494.033 732.7C494.683 721.22 496.041 701.561 497.407 690.153L490.484 686.612C456.726 670.122 422.42 654.597 388.743 638.001C378.1 632.756 363.333 626.692 353.605 620.706C344.301 650.25 335.478 679.007 325.576 708.342C317.129 732.553 308.817 756.81 300.641 781.114C297.235 791.114 293.899 801.151 290.125 811.013C287.42 818.384 286.489 820.621 279.915 824.844C266.36 833.553 237.417 822.67 244.489 804.403C249.606 791.184 257.86 775.847 264.448 762.605C275.638 740.111 283.879 718.344 292.39 694.618C300.03 673.757 309.418 642.312 314.836 621.013C325.442 583.398 346.235 487.691 338.44 451.748C300.967 445.614 263.405 433.984 230.416 415.032C222.524 410.499 214.628 405.694 207.786 399.655C195.363 388.692 192.188 374.889 189.182 359.259C188.076 353.507 186.764 347.536 186.427 341.684C185.865 331.921 189.88 323.287 196.311 316.155C227.341 281.742 319.64 266.283 364.049 260.846C390.916 257.556 418.134 255.889 445.164 254.594L468.35 254.213C468.475 251.576 468.665 249.761 468.273 247.128C466.966 231.783 457.506 227.304 447.918 215.476C438.671 213.808 439.389 210.869 434.355 204.327C431.446 200.546 423.385 196.869 418.669 196.614C414.584 196.393 410.82 197.191 407.708 200.045C401.992 205.286 402.042 212.003 401.777 219.005C410.386 225.077 422.818 227.071 432.564 222.73L432.996 223.534C430.185 225.244 429.204 225.377 426.16 226.292C424.166 226.477 422.162 226.529 420.161 226.448C414.621 226.209 405.189 224.216 401.503 219.872C399.974 218.071 400.34 216.877 400.503 214.544C401.958 203.771 405.631 194.789 418.684 195.298C426.568 195.605 432.244 199.838 437.278 205.566C437.544 200.547 437.437 196.156 441.982 193.19C445.978 194.466 452.98 198.158 450.369 203.432C449.78 199.76 446.832 193.502 442.252 196.433L441.468 195.705C438.784 197.27 438.164 202.747 437.651 205.758C439.381 209.594 442.369 214.33 447.245 213.57C448.653 212.756 448.54 212.794 449.26 211.315C450.08 209.747 450.768 209.846 451.42 207.454C450.193 204.794 446.11 202.076 443.259 201.508C441.49 202.443 442.036 201.772 441.296 203.334C442.115 208.104 447.594 208.227 449.021 209.806L448.961 210.397C442.672 210.228 438.881 206.908 441.566 200.391C445.374 201.182 447.049 201.332 450.369 203.432L450.7 204.047C452.104 206.621 453.107 206.534 453.384 209.518C451.086 210.075 449.278 211.626 450.026 214.168C453.054 216.288 456.108 215.299 457.147 218.302L455.35 219.379C454.253 224.905 469.772 235.056 474.626 237.224C471.172 232.204 467.546 227.306 463.752 222.539C462.038 220.403 458.111 216.193 457.032 214.174C464.037 218.297 471.065 229.821 476.032 236.778C481.159 237.423 485.707 237.947 490.899 238.146C486.655 235.659 484.985 234.722 481.725 230.825C479.333 227.574 477.164 224.13 473.666 222.136C467.513 218.814 471.805 212.122 475.862 209.114C479.018 208.945 480.657 209.374 483.033 209.322L484.292 209.628L483.933 210.611C480.847 210.619 476.216 209.908 473.838 212.204C467.002 218.801 487.836 235.435 492.981 237.206C498.108 235.397 500.147 234.402 503.323 229.664C500.145 227.578 498.348 226.487 494.96 224.795C494.467 223.479 493.718 222.123 493.894 220.901C494.669 222.067 495.432 223.24 496.183 224.421C499.715 226.199 500.724 226.639 503.824 229.073L504.253 229.405C503.142 225.078 502.169 220.42 498.858 217.182C498.972 216.942 499.146 216.082 499.216 215.783C498.018 214.136 496.313 211.891 495.315 210.186C491.202 203.157 489.528 206.991 483.725 208.898L483.007 209.129L480.184 207.439L477.443 206.369C484.108 206.998 483.578 206.99 489.449 203.305C487.284 193.068 482.67 183.341 470.358 182.302C465.465 181.89 463.249 186.587 465.558 190.579C467.928 195.185 472.727 198.441 476.695 201.4C471.443 199.068 465.831 195.533 464.116 190.071C460.667 179.088 472.687 178.201 479.36 183.298C483.709 186.62 488.311 190.764 489.657 196.266C490.042 198.541 489.551 201.036 490.332 203.261L490.998 203.647C495.657 206.379 497.939 210.826 500.962 215.374C502.345 216.359 501.744 215.709 502.261 217.925C504.434 224.135 505.377 227.393 506.532 233.828C506.803 236.071 506.441 235.811 507.604 237.392C509.561 238.088 508.841 237.918 511.075 237.526L511.583 237.023L511.015 236.288C511.39 233.189 516.56 220.608 517.972 216.451C518.88 213.697 522.8 205.502 522.401 203.782L520.843 203.81L520.85 203.432L522.995 201.978C524.921 201.827 527.233 203.778 529.007 205.014C538.13 213.202 548.533 199.963 551.427 191.859C552.607 188.554 552.369 187.721 551.616 184.303ZM515.453 225.93C514.109 229.4 512.689 232.942 511.417 236.43C513.729 233.641 515.086 231.95 516.521 228.635L516.226 227.804L516.281 227.469C520.08 225.175 528.161 213.101 531.39 208.829C528.859 206.615 527.185 204.992 524.232 203.362C520.969 210.488 518.05 218.541 515.453 225.93ZM561.692 263.072C556.556 262.563 551.414 262.115 546.268 261.727C546.985 267.464 547.88 272.835 548.846 278.53C551.908 295.045 554.607 309 556.146 325.728C564.152 321.602 566.809 320.585 575.672 318.124C568.912 321.061 562.708 323.858 556.171 327.243C556.782 336.129 555.208 338.482 548.638 344.361C535.472 353.138 503.206 352.75 487.223 350.875C477.601 349.482 462.446 346.13 455.79 338.134C452.966 334.742 453.156 329.527 453.914 325.357C456.783 309.565 459.853 293.142 463.469 277.52C439.151 276.412 426.39 275.899 404.415 288.211C398.435 291.562 389.27 296.297 382.645 298.35C363.318 304.34 345.993 298.208 326.48 303.634C309.504 308.354 299.898 319.806 284.95 326.827C277.125 330.502 263.952 332.58 255.287 335.266C246.3 338.053 238.129 341.512 229.382 344.929C246.585 332.32 267.25 332.517 284.663 324.997C297.466 319.469 308.087 307.231 324.449 302.495C343.468 296.99 356.988 301.444 375.659 298.104C383.59 296.686 393.231 292.284 400.21 288.388C427.446 273.184 435.255 275.132 463.714 276.475C464.913 271.141 466.087 265.593 467.369 260.296C405.027 260.608 261.971 269.419 217.985 313.741C211.685 320.089 205.392 328.6 205.425 337.921C205.457 346.665 211.059 353.96 217.119 359.712C257.792 398.312 355.337 412.384 409.857 417.48C421.935 418.609 434.725 420.491 446.836 420.47C524.257 425.611 602.018 420.211 677.986 404.417C702.035 399.242 725.536 393.274 748.398 384.07C761.659 378.731 775.298 372.865 786.812 364.276C794.575 358.485 803.139 350.501 804.361 340.335C805.121 334.016 802.742 328.038 798.859 323.146C779.282 298.485 712.803 286.833 682.237 280.694C657.825 275.791 633.759 271.043 608.996 268.179C593.485 266.398 576.916 265.03 561.692 263.072ZM671.625 270.605C647.749 266.651 621.861 265.057 597.722 262.047C591.615 261.285 550.263 256.198 546.586 257.026C545.789 258.454 546.084 257.69 546.296 259.685C548.139 260.972 573.922 262.649 577.575 262.805C608.559 264.13 638.236 271.494 668.473 275.817C701.309 283.868 783.631 294.505 802.486 324.664C805.948 330.202 807.279 336.785 805.689 343.167C802.463 356.115 789.214 365.761 778.309 372.056C740.233 394.036 681.871 407.235 638.483 414.13C630.045 415.473 621.577 416.63 613.088 417.598C610.948 417.844 603.05 418.455 601.415 418.774C561.888 422.591 522.917 424.579 483.201 423.962C464.685 423.674 446.166 422.229 427.713 420.763C367.219 415.958 268.051 404.075 220.178 364.693C212.597 358.457 204.395 350.156 203.569 339.807C202.824 330.474 207.985 321.976 213.958 315.282C253.2 271.303 376.666 261.875 434.014 258.919C439.142 258.654 465.333 258.964 468.241 257.397L468.561 256.569C466.853 254.856 454.448 256.108 451.389 256.255C441.522 256.695 431.66 257.24 421.804 257.89C401.779 259.272 381.639 260.74 361.725 263.266C319.169 268.662 230.112 284.139 199.602 315.702C193.259 322.263 188.627 330.35 188.818 339.708C189.066 351.83 192.1 358.523 200.863 366.762C230.184 394.329 277.456 407.769 315.592 417.017C334.901 421.699 354.132 427.471 373.659 431.121C421.37 440.039 475.714 440.888 524.139 439.202C545.587 438.456 566.311 435.606 587.476 432.267C649.025 425.041 759.974 409.437 806.489 367.885C814.242 360.96 821.905 351.606 822.305 340.714C822.609 332.452 818.24 324.834 812.851 318.896C789.268 292.909 734.387 281.217 700.984 275.141C691.394 273.396 681.347 271.121 671.625 270.605ZM420.735 438.516C406.245 436.982 391.626 435.619 377.267 433.135C358.792 429.939 340.763 424.681 322.542 420.372C276.822 409.559 225.116 396.586 192.205 360.53C195.898 381.524 199.103 391.99 217.952 404.77C251.697 427.649 291.816 440.541 331.508 448.445C342.659 450.666 356.214 452.105 367.495 453.763C372.523 454.502 392.846 457.805 396.789 457.431C424.467 461.048 452.474 462.31 480.357 463.041C500.928 463.581 521.649 463.979 542.22 463.241C613.087 460.7 730.161 447.086 789.951 409.363C813.818 394.305 814.897 380.366 820.682 354.771C786.325 409.048 651.138 425.946 591.243 432.971C572.754 435.14 554.393 439.113 535.742 440.216C497.415 442.399 458.981 441.831 420.735 438.516ZM552.308 465.052C546.253 465.513 540.992 465.528 534.924 465.549C534.032 493.389 528.993 524.801 526.448 553.136C535.769 556.069 546.225 559.198 555.242 562.779C563.603 565.805 633.749 591.954 634.652 593.14C626.236 590.895 615.83 586.965 607.515 583.968C592.245 578.498 577.04 572.849 561.903 567.021C553.331 563.757 544.787 560.653 535.987 558.068C533.211 557.252 529.055 554.759 526.482 556.153C525.214 562.292 537.462 563.11 542.029 564.711C562.543 571.977 583.14 579.007 603.815 585.801L633.93 595.73C638.278 597.204 647.617 600.727 651.726 601.635L652.54 601.281C652.56 600.076 652.24 599.157 651.103 598.523C651.838 596.961 651.673 596.837 651.257 594.742C646.36 570.089 641.057 545.437 635.716 520.896C631.295 500.278 627.245 479.581 623.568 458.817C601.593 461.787 574.293 464.332 552.308 465.052ZM396.504 459.388L394.763 465.985C393.121 471.74 391.588 477.497 390.048 483.279C379.964 521.137 367.704 559.016 359.627 597.386C378.393 589.72 397.114 583.522 416.389 577.27C423.48 574.97 433.436 571.151 440.211 569.265C461.388 561.321 482.447 553.065 503.38 544.5C503.035 535.833 503.828 525.891 504.171 517.152C504.841 500.084 506.274 482.55 506.488 465.501C471.233 464.735 431.54 464.025 396.504 459.388ZM507.015 549.2L506.712 548.239C505.554 549.003 505.372 551.924 505.813 553.219C507.411 554.892 507.529 554.545 509.971 553.989L509.979 554.428C509.205 555.87 507.565 556.341 505.984 557.09C504.185 575.229 504.176 597.106 503.51 615.589C502.983 630.239 501.78 650.269 502.323 664.644C504.828 665.806 507.875 666.991 510.465 668.067C510.616 655.075 513.474 554.013 510.563 549.404C508.83 548.744 508.789 548.879 507.015 549.2ZM657.827 566.086C651.536 541.177 646.175 516.896 641.511 491.624C639.405 480.212 636.515 468.406 634.705 457.046C631.549 457.542 628.283 458.01 625.146 458.553L647.642 566.372C652.135 589.848 657.173 613.217 662.753 636.46C671.388 671.439 681.785 706.468 692.014 740.982C696.417 755.918 700.497 770.98 705.478 785.737C713.53 809.588 712.437 829.013 743.636 828.54C740.024 817.194 735.158 806.481 730.901 795.414C724.839 779.652 718.138 763.874 712.519 747.955C691.922 688.069 673.677 627.399 657.827 566.086ZM439.948 571.194C424.927 576.52 409.855 581.697 394.732 586.726C382.652 590.808 369.746 594.987 358.188 600.443C361.92 602.367 365.951 604.227 369.58 606.155C392.059 599.309 419.064 587.757 442.078 579.782C461.668 572.739 485.038 564.338 503.969 555.837C504.003 553.605 504.705 548.607 502.703 547.502C496.512 549.109 488.982 552.752 482.736 554.944C468.281 560.015 454.192 565.549 439.948 571.194ZM681.263 577.796C676.678 547.895 671.462 517.839 668.394 487.799C667.269 476.786 665.696 463.154 665.445 452.137L655.317 454.004C656.536 468.562 659.988 484.236 662.439 498.745C665.708 518.097 668.995 538.007 671.138 557.518C671.651 562.189 673.169 575.701 673.019 579.766L671.241 579.964C668.177 557.332 666.661 535.232 662.692 512.457C659.43 493.744 654.902 472.914 653.334 454.175C647.452 455.347 641.928 456.176 636 457.056C638.034 467.64 641.208 478.653 643.41 489.665C649.315 519.194 655.149 551.202 664.082 579.98C670.297 602.08 676.006 624.36 682.365 646.378C692.36 680.09 703.037 713.597 714.388 746.878C723.613 773.413 737.41 802.163 745.826 828.328C751.061 826.815 752.9 825.949 756.545 821.489C760.047 817.204 761.308 807.255 759.396 802.299C757.392 797.104 752.003 790.585 749.123 785.09C742.964 773.341 737.514 761.237 732.3 749.029C714.372 706.055 700.125 661.637 689.713 616.253C686.417 602.304 683.694 592.019 681.263 577.796ZM442.015 581.718C426.848 587.226 411.711 592.816 396.606 598.489C390.227 600.869 378.761 604.748 373.053 607.436C383.308 611.171 393.433 615.931 403.429 620.376L441.303 637.006C460.857 646.013 480.379 654.428 499.897 663.666C499.913 646.927 500.856 629.782 501.395 613.017C501.98 594.811 502.389 576.488 503.706 558.332C484.543 566.096 461.431 574.913 442.015 581.718ZM560.079 585.963C549.206 581.435 537.824 577.344 526.82 573.006C530.46 595.899 534.172 634.149 534.628 656.345C547.31 650.635 561.296 644.444 573.625 638.091C578.017 636.125 582.36 634.268 586.557 631.907C599.31 626.11 617.952 617.58 629.948 611.029C620.831 606.83 607.876 603.191 598.084 599.649C584.903 595.302 572.998 590.711 560.079 585.963ZM603.823 588.121C578.039 580.039 552.64 570.466 526.941 562.105C523.238 560.9 525.852 556.935 523.269 554.362C521.569 553.831 520.979 553.761 519.269 553.532C517.578 554.453 515.618 555.453 514.005 556.458L513.995 557.256C513.96 561.787 515.882 566.924 515.561 568.783L514.731 568.476C514.016 570.416 513.941 590.417 513.861 593.99C513.169 618.192 512.693 642.4 512.433 666.61C515.969 664.763 518.892 663.241 522.558 661.701C521.767 633.296 517.832 602.745 517.322 574.243C517.315 573.864 524.305 564.508 525.374 562.756C525.696 566.253 525.847 568.334 526.693 571.747C549.112 579.836 577.148 591.316 598.976 597.901C607.634 600.585 624.735 605.853 632.322 609.563C637.02 607.811 643.263 604.886 648.006 602.816C633.274 597.263 618.475 593.359 603.823 588.121ZM344.119 619.127C338.406 650.033 326.081 678.947 315.663 708.382C310.214 723.539 305.005 738.782 300.039 754.104C299.062 757.018 297.866 764.042 295.663 765.901C293.432 762.063 312.034 712.63 314.904 704.709C316.27 698.005 325.863 676.183 328.493 668.249C333.897 651.945 338.074 636.592 341.976 619.838C346.147 599.539 352.157 578.497 357.485 558.43C361.612 542.323 365.656 526.194 369.615 510.044C373.665 493.787 378.992 474.301 380.707 457.815C375.924 457.24 370.894 456.417 366.106 455.715C365.218 488.775 354.922 520.625 345.66 552.154L326.083 619.495C317.882 646.27 310.227 673.855 302.245 700.785C300.463 707.737 297.329 716.759 295.144 723.839C290.482 739.244 285.587 754.578 280.46 769.835C278.257 776.313 261.007 820.807 261.085 824.326C265.19 827.937 282.19 823.802 284.669 818.617C287.649 812.381 290.039 805.327 292.312 798.776L302.552 769.322C319.848 719.832 336.279 670.045 351.839 619.982C355.67 604.039 359.547 588.099 363.436 572.17C372.697 534.243 384.467 496.982 394.943 459.336L383.075 458.022C381.23 474.572 376.795 490.67 372.774 506.82C368.574 523.954 364.224 541.05 359.724 558.108C354.169 578.521 348.251 598.365 344.119 619.127ZM317.624 619.95C314.954 631.304 311.296 642.772 307.945 653.958C293.1 703.51 274.42 751.327 249.878 796.916C243.24 809.246 243.698 818.111 258.503 824.04C261.777 812.869 266.245 802.525 270.167 791.652C275.209 777.669 280.551 763.096 285.072 748.946C293.05 723.744 300.758 698.457 308.196 673.091C313.06 656.309 318.23 636.878 323.545 620.438C325.158 615.711 326.927 608.536 328.323 603.568L337.267 572.429C347.323 537.82 364.168 490.523 363.335 455.321C355.881 454.382 348.438 453.359 341.007 452.253C348.086 492.88 328.095 578.63 317.624 619.95ZM565.976 206.061C563.163 206.711 560.261 207.615 558.26 209.77C552.156 216.341 549.383 226.893 545.6 235.142L545.842 235.688C546.967 235.138 547.151 235.087 547.807 233.329C551.055 226.839 552.623 224.598 557.283 219.261C561.26 214.706 569.948 212.396 571.218 208.214C570.384 205.852 568.258 205.956 565.976 206.061ZM504.524 231.742C502.248 235.337 499.753 235.99 495.858 237.874L496.874 238.144L505.922 237.985C505.76 236.944 505.174 232.283 504.524 231.742ZM544.239 237.453C528.94 243.236 485.653 247.29 471.312 240.867C470.655 240.572 470.002 240.268 469.354 239.956C470.536 255.166 468.572 260.799 465.519 275.711L458.387 311.454C454.829 329.129 449.555 336.703 469.381 344.118C490.223 350.981 527.077 352.843 547.127 342.907C549.76 341.602 552.836 339.784 553.765 336.813C557.628 324.466 546.322 278.727 544.73 262.497C543.896 253.995 545.106 246.802 545.444 238.481C544.729 237.54 545.175 237.765 544.239 237.453ZM508.56 465.596C508.064 491.94 505.498 518.749 505.228 545.164C508.39 546.263 509.048 546.782 511.701 548.614L511.987 547.987C514.273 526.304 514.621 504.17 516.274 482.41C516.68 477.071 517.11 471.034 516.924 465.71L508.56 465.596ZM518.066 465.75C518.402 482.427 516.869 499.136 516.356 515.796C515.959 528.667 514.038 541.958 513.954 554.781C515.548 553.858 517.342 552.887 518.82 551.815C520.787 552.191 521.783 552.399 523.765 552.486C524.732 551.644 524.455 552.176 524.576 550.877C525.698 540.793 526.753 530.695 527.643 520.588C529.24 502.45 532.632 483.757 533.586 465.588L518.066 465.75ZM523.255 570.03C521.188 571.933 519.305 573.781 519.522 576.759C520.24 586.596 523.453 656.433 524.501 659.348L525.282 660.121C526.646 660.107 527.225 659.642 528.422 658.989L532.681 656.998C532.396 646.544 527.253 577.147 523.255 570.03ZM358.307 603.223L356.842 609.176C375.114 616.521 391.869 625.17 409.627 633.428C439.648 647.39 470.367 659.86 499.598 675.48C502.733 677.155 503.923 677.843 506.574 675.69C508.073 674.144 508.832 673.664 509.353 671.673C508.523 668.402 501.107 666.311 497.884 664.839L471.153 652.625L387.015 614.994C378.254 611.106 366.253 607.119 358.307 603.223ZM651.898 603.521C632.223 610.514 604.769 625.622 584.849 634.923L537.224 657.136C531.578 659.751 517.55 665.805 512.745 668.688C512.095 671.156 510.862 674.444 511.543 676.721L512.458 677.296L514.22 676.889C528.185 671.534 539.932 665.846 553.38 659.629L606.578 635.136C623.093 627.459 637.998 620.2 655.029 613.612C654.542 610.885 653.888 606.477 653.026 604.032C652.095 603.503 652.5 603.583 651.898 603.521ZM356.479 611.113L354.716 618.981C360.404 623.006 384.27 633.52 392.115 637.368L456.6 668.22C460.902 670.288 495.51 687.688 497.789 687.383C497.922 687.09 498.385 686.122 498.45 685.854C499.924 683.176 501.07 681.23 502.75 678.671C493.125 674.977 482.503 668.664 472.797 664.214L406.003 633.997C388.263 625.775 374.971 618.529 356.479 611.113ZM654.673 615.465C648.071 618.616 641.358 621.335 634.71 624.419L547.347 664.627C537.46 669.184 520.313 676.077 511.555 680.728C511.472 683.499 510.794 691.81 512.295 693.511L513.649 693.32C526.384 686.704 538.766 681.439 551.669 675.309L614.934 644.876C624.357 640.378 650.091 628.861 657.215 623.31C656.756 621.147 656.164 617.395 655.118 615.625L654.673 615.465ZM504.746 679.836C502.406 683.305 501.481 684.862 499.661 688.621C501.938 689.859 504.57 691.204 506.751 692.542L508.508 693.289C510.315 691.506 509.412 683.455 509.142 680.77C507.588 679.969 506.479 680.003 504.746 679.836ZM531.693 686.919L523.729 691.029C523.561 695.478 521.821 737.423 522.33 738.188L524.214 737.402C528.049 735.194 531.066 733.408 534.702 730.912C534.83 725.469 533.247 688.53 532.105 687.012L531.693 686.919ZM499.337 690.996C498.173 702.685 496.531 720.284 496.206 731.884C501.093 736.545 502.864 737.929 508.773 741.114L509.941 741.336C510.843 739.873 510.396 699.9 510.409 696.39C507.029 694.788 502.567 692.392 499.337 690.996ZM520.93 692.478C518.135 693.944 515.4 695.466 512.461 696.614C512.455 702.238 511.928 739.679 513.199 742.007C515.53 741.252 517.149 740.94 519.032 739.383C520.755 735.474 521.609 700.206 521.587 693.441C521.096 692.551 521.39 692.805 520.93 692.478Z" fill="#030303"/>
<path d="M526.057 192.899C526.024 191.97 526.048 191.727 526.48 190.889C531.488 181.159 542.419 179.113 551.617 184.303C552.37 187.721 552.608 188.554 551.428 191.859C548.534 199.963 538.131 213.202 529.008 205.014C529.314 202.246 529.362 203.297 528.191 200.574C527.42 198.29 526.699 195.276 526.057 192.899ZM539.981 193.75C540.082 195.254 540.004 197.604 540.869 198.644C540.992 197.191 541.379 195.164 540.75 193.951L539.981 193.75Z" fill="#B0EECC"/>
<path d="M518.393 189.054L517.745 188.96C516.769 189.908 515.721 190.873 514.835 191.897C514.901 193.55 515.091 196.159 514.992 197.726C513.815 200.87 513.52 201.979 510.829 203.89C509.837 202.716 508.635 201.433 507.764 200.185C503.452 194.002 508.764 187.363 513.414 184.036C526.445 182.791 521.254 187.887 523.668 196.592L524.244 196.504L525.194 193.845C526.103 195.998 526.186 197.052 526.592 199.393C524.413 199.053 524.73 198.73 523.271 199.602C523.042 200.79 522.965 200.795 522.994 201.978L520.849 203.432C519.545 202.163 518.046 200.87 516.668 199.674C517.221 199.236 517.728 198.743 518.184 198.204C519.537 196.619 519.015 193.757 518.876 191.623L518.393 189.054Z" fill="#B0EECC"/>
<path d="M518.394 189.054C515.41 193.32 516.368 195.745 515.039 197.73L514.993 197.726C515.092 196.159 514.902 193.55 514.836 191.897C515.722 190.873 516.77 189.908 517.746 188.96L518.394 189.054Z" fill="#1E231F"/>
<path d="M514.994 197.726L515.04 197.73C516.369 195.745 515.411 193.32 518.395 189.054L518.878 191.623L518.27 192.054C518.167 192.795 516.812 199.95 516.67 199.674C518.048 200.87 519.547 202.163 520.851 203.432L520.844 203.81L522.402 203.782C522.801 205.502 518.881 213.697 517.973 216.451C517.263 215.303 516.821 215.156 515.714 214.297C513.824 215.679 512.315 217.227 510.227 217.955C510.267 216.259 511.258 210.666 511.282 210.805C510.664 207.312 510.061 208.289 510.831 203.89C513.522 201.979 513.817 200.87 514.994 197.726Z" fill="#B2DBC0"/>
<path d="M442.407 192.428C443.948 191.14 450.149 191.457 452.675 191.491C453.98 193.53 455.447 196.03 457.017 197.816L455.052 199.178C455.119 200.953 454.865 200.14 455.963 201.658C458.65 203.001 459.099 203.312 461.931 202.602C464.578 205.23 467.643 208.466 471.131 209.825L472.033 209.712L471.987 209.117C473.601 209.254 473.785 209.363 475.389 208.955L475.864 209.114C471.807 212.122 467.515 218.814 473.668 222.136L474.151 224.291C474.587 226.467 478.525 231.708 480.753 231.772L481.727 230.825C484.987 234.722 486.657 235.659 490.901 238.146C485.709 237.947 481.161 237.423 476.034 236.778C471.067 229.821 464.039 218.297 457.034 214.174C455.743 213.355 453.894 211.022 453.386 209.518C453.109 206.534 452.106 206.621 450.702 204.047L450.371 203.432C452.982 198.158 445.98 194.466 441.984 193.19L442.407 192.428Z" fill="#B0EECC"/>
<path d="M516.672 199.674C516.814 199.95 518.169 192.795 518.272 192.054L518.88 191.623C519.019 193.757 519.541 196.619 518.188 198.204C517.732 198.743 517.225 199.236 516.672 199.674Z" fill="#2B3E33"/>
<path d="M526.056 192.899C526.698 195.276 527.419 198.29 528.19 200.574L526.593 199.393C526.187 197.052 526.104 195.998 525.195 193.845L526.056 192.899Z" fill="#3F5049"/>
<path d="M540.868 198.644C540.003 197.604 540.081 195.254 539.98 193.75L540.749 193.951C541.378 195.164 540.991 197.191 540.868 198.644Z" fill="#B2DBC0"/>
<path d="M437.652 205.758C438.165 202.747 438.785 197.27 441.469 195.705L442.253 196.433C446.833 193.502 449.781 199.76 450.37 203.432C447.05 201.332 445.375 201.182 441.567 200.391C438.882 206.908 442.673 210.228 448.962 210.397L449.261 211.315C448.541 212.794 448.654 212.756 447.246 213.57C442.37 214.33 439.382 209.594 437.652 205.758Z" fill="#B0EECC"/>
<path d="M461.733 195.743C462.93 197.776 464.115 199.694 464.713 202.005C462.972 199.957 462.194 198.379 460.883 196.059L461.733 195.743Z" fill="#3F5049"/>
<path d="M432.564 222.73C422.818 227.071 410.386 225.077 401.777 219.005C402.042 212.003 401.992 205.286 407.708 200.045C410.82 197.191 414.584 196.393 418.669 196.614C423.385 196.869 431.446 200.546 434.355 204.327C439.389 210.869 438.671 213.808 447.918 215.476C457.506 227.304 466.966 231.783 468.273 247.128C465.696 247.686 441.451 228.422 434.52 229.347C434.886 229.298 427.362 228.864 426.472 228.894C426.787 228.294 426.809 227.968 426.981 227.299L426.16 226.292C429.204 225.377 430.185 225.244 432.996 223.534C435.943 221.666 438.53 220.138 440.909 217.561C438.388 218.588 434.925 221.128 432.564 222.73ZM412.552 216.471C418.311 218.652 422.608 220.662 428.843 220.991C424.968 219.864 415.767 216.441 412.552 216.471Z" fill="#B9FBC0"/>
<path d="M457.016 197.816C458.648 199.402 460.324 200.996 461.93 202.602C459.098 203.312 458.649 203.001 455.962 201.658C454.864 200.14 455.118 200.953 455.051 199.178L457.016 197.816Z" fill="#B2DBC0"/>
<path d="M522.994 201.978C522.965 200.795 523.042 200.79 523.271 199.602C524.73 198.73 524.413 199.053 526.592 199.393L528.189 200.574C529.36 203.297 529.312 202.246 529.006 205.014C527.232 203.778 524.92 201.827 522.994 201.978Z" fill="#B2DBC0"/>
<path d="M538.551 208.342C543.959 205.444 544.731 204.558 548.725 199.951L549.098 200.772C547.889 202.743 546.265 203.769 546.316 205.023L547.254 205.511C548.764 204.515 548.744 204.431 549.836 203.08L550.7 202.868L549.897 205.368L549.405 205.693C547.051 206.585 545.733 208.017 543.822 209.684C542.894 210.025 542.811 210.024 541.849 210.227L540.051 209.047L538.551 208.342Z" fill="#B2DBC0"/>
<path d="M510.227 217.955C512.315 217.227 513.824 215.679 515.714 214.297C516.821 215.156 517.263 215.303 517.973 216.451C516.561 220.608 511.391 233.189 511.016 236.288L510.57 236.271C509.49 235.504 509.419 234.501 509.016 233.148L508.832 232.516L507.918 232.425C507.276 233.372 507.578 233.272 506.533 233.828C505.378 227.393 504.435 224.135 502.262 217.925C502.32 213.443 503.306 204.871 505.836 201.177L506.71 200.68C512.851 203.827 507.917 222.844 508.03 228.449C508.707 225.003 509.362 221.338 510.227 217.955Z" fill="#B0EECC"/>
<path d="M448.962 210.397L449.022 209.806C447.595 208.227 442.116 208.104 441.297 203.334C442.037 201.772 441.491 202.443 443.26 201.508C446.111 202.076 450.194 204.794 451.421 207.454C450.769 209.846 450.081 209.747 449.261 211.315L448.962 210.397Z" fill="#B0EECC"/>
<path d="M515.453 225.93C518.05 218.541 520.969 210.488 524.232 203.362C527.185 204.992 528.859 206.615 531.39 208.829C528.161 213.101 520.08 225.175 516.281 227.469L515.453 225.93Z" fill="#B0EECC"/>
<path d="M483.008 209.129L483.726 208.898C489.529 206.991 491.203 203.157 495.316 210.186C496.314 211.891 498.019 214.136 499.217 215.783C493.892 213.345 489.821 211.549 484.293 209.628L483.034 209.322L483.008 209.129Z" fill="#B0EECC"/>
<path d="M547.809 233.329C547.153 235.087 546.969 235.138 545.844 235.688L545.602 235.142C549.385 226.893 552.158 216.341 558.262 209.77C560.263 207.615 563.165 206.711 565.978 206.061C568.26 205.956 570.386 205.852 571.22 208.214C569.95 212.396 561.262 214.706 557.285 219.261C552.625 224.598 551.057 226.839 547.809 233.329Z" fill="#B0EECC"/>
<path d="M480.183 207.439C478.039 207.51 476.273 207.729 474.277 207.036C475.71 206.277 475.742 206.468 477.442 206.369L480.183 207.439Z" fill="#3F5049"/>
<path d="M532.805 209.259L538.553 208.342L540.053 209.047L540.641 210.785C538.179 215.642 530.604 219.334 527.731 226.885L526.371 228.199L526.408 228.971C529.475 230.574 531.885 228.724 532.639 232.49C532.813 233.358 533.139 233.97 533.591 234.724C531.16 235.74 523.469 236.135 520.287 236.427L520.066 235.82L521.411 234.218L521.312 233.597C519.299 235.509 516.571 237.668 513.696 237.194L513.301 236.407C514.512 234.012 531.151 210.986 532.805 209.259Z" fill="#B0EECC"/>
<path d="M544.547 210.035L546.846 208.823L547.728 209.196C548.861 212.02 546.957 217.446 545.993 220.463C544.242 225.16 541.139 230.666 537.162 233.773L536.032 233.965C535.384 232.751 535.792 232.595 536.254 230.797L536.963 229.735C537.172 224.661 538.324 224.824 539.365 220.908L541.634 217.707C543.012 213.626 541.255 212.983 544.547 210.035Z" fill="#B0EECC"/>
<path d="M540.052 209.047L541.85 210.227C542.812 210.024 542.895 210.025 543.823 209.684L544.546 210.035C541.254 212.983 543.011 213.626 541.633 217.707L539.364 220.908C540.262 217.727 541.391 214.58 542.142 211.398C537.513 215.896 532.709 220.515 528.885 225.719C528.349 226.449 528.56 226.177 527.73 226.885C530.603 219.334 538.178 215.642 540.64 210.785L540.052 209.047Z" fill="#597765"/>
<path d="M474.627 237.224C469.773 235.056 454.254 224.905 455.351 219.379L457.148 218.302C456.109 215.299 453.055 216.288 450.027 214.168C449.279 211.626 451.087 210.075 453.385 209.518C453.893 211.022 455.742 213.355 457.033 214.174C458.112 216.193 462.039 220.403 463.753 222.539C467.547 227.306 471.173 232.204 474.627 237.224Z" fill="#B0EECC"/>
<path d="M484.293 209.628C489.821 211.549 493.892 213.345 499.217 215.783C499.147 216.082 498.973 216.942 498.859 217.182C495.33 214.32 488.294 212.061 483.934 210.611L484.293 209.628Z" fill="#3F5049"/>
<path d="M492.983 237.206C487.838 235.435 467.004 218.801 473.84 212.204C476.218 209.908 480.849 210.619 483.935 210.611C488.295 212.061 495.331 214.32 498.86 217.182C502.171 220.42 503.144 225.078 504.255 229.405L503.826 229.073C500.726 226.639 499.717 226.199 496.185 224.421C495.434 223.24 494.671 222.067 493.896 220.901C493.72 222.123 494.469 223.479 494.962 224.795C498.35 226.487 500.147 227.578 503.325 229.664C500.149 234.402 498.11 235.397 492.983 237.206Z" fill="#B0EECC"/>
<path d="M542.139 211.398C541.388 214.58 540.259 217.727 539.361 220.908C538.32 224.824 537.168 224.661 536.959 229.735L536.25 230.797C535.201 232.148 534.291 233.16 533.587 234.724C533.135 233.97 532.809 233.358 532.635 232.49C531.881 228.724 529.471 230.574 526.404 228.971L526.367 228.199L527.727 226.885C528.557 226.177 528.346 226.449 528.882 225.719C532.706 220.515 537.51 215.896 542.139 211.398Z" fill="#B0EECC"/>
<path d="M428.846 220.991C422.611 220.662 418.314 218.652 412.555 216.471C415.77 216.441 424.971 219.864 428.846 220.991Z" fill="#597765"/>
<path d="M432.566 222.73C434.927 221.128 438.39 218.588 440.911 217.561C438.532 220.138 435.945 221.666 432.998 223.534L432.566 222.73Z" fill="#2B3E33"/>
<path d="M474.151 224.291L473.668 222.136C477.166 224.13 479.335 227.574 481.727 230.825L480.753 231.772C480.25 231 475.062 225.325 474.151 224.291Z" fill="#B2DBC0"/>
<path d="M480.75 231.772C478.522 231.708 474.584 226.467 474.148 224.291C475.059 225.325 480.247 231 480.75 231.772Z" fill="#2B3E33"/>
<path d="M511.418 236.43C512.69 232.942 514.11 229.4 515.454 225.93L516.282 227.469L516.227 227.804L516.522 228.635C515.087 231.95 513.73 233.641 511.418 236.43Z" fill="#ADBFB1"/>
<path d="M445.165 254.594C442.364 249.277 425.234 230.966 425.105 230.04L426.473 228.894C427.363 228.864 434.887 229.298 434.521 229.347C441.452 228.422 465.697 247.686 468.274 247.128C468.666 249.761 468.476 251.576 468.351 254.213L445.165 254.594Z" fill="#98F5E1"/>
<path d="M496.875 238.144L495.859 237.874C499.754 235.99 502.249 235.337 504.525 231.742C505.175 232.283 505.761 236.944 505.923 237.985L496.875 238.144Z" fill="#B0EECC"/>
<path d="M506.531 233.828C507.576 233.272 507.274 233.372 507.916 232.425L508.83 232.516L509.014 233.148C509.417 234.501 509.488 235.504 510.568 236.271L511.014 236.288L511.582 237.023L511.074 237.526C508.84 237.918 509.56 238.088 507.603 237.392C506.44 235.811 506.802 236.071 506.531 233.828Z" fill="#B2DBC0"/>
<path d="M476.34 238.751C495.903 240.905 515.076 239.123 534.535 236.531C535.017 236.467 537.828 235.25 538.648 234.984L539.419 236.063L540.064 237.186C525.771 241.137 488.162 245.086 474.605 240.529L476.34 238.751Z" fill="#CBDEDC"/>
<path d="M476.34 238.751L474.605 240.529C472.385 239.604 470.002 238.804 468.629 236.836C470.836 236.793 473.13 238.056 475.831 238.644L476.34 238.751Z" fill="#D5DCDF"/>
<path d="M469.354 239.956C470.002 240.268 470.655 240.572 471.312 240.867C485.653 247.29 528.94 243.236 544.239 237.453C545.175 237.765 544.729 237.54 545.444 238.481C545.106 246.802 543.896 253.995 544.73 262.497C546.322 278.727 557.628 324.466 553.765 336.813C552.836 339.784 549.76 341.602 547.127 342.907C527.077 352.843 490.223 350.981 469.381 344.118C449.555 336.703 454.829 329.129 458.387 311.454L465.519 275.711C468.572 260.799 470.536 255.166 469.354 239.956ZM472.763 262.244C472.874 260.741 473.244 259.953 472.566 259.033C471.705 260.622 471.787 260.764 471.558 262.509C470.767 268.143 469.237 274.883 468.191 280.632C466.567 289.823 464.997 299.023 463.48 308.232C462.437 314.249 460.215 325.32 460.649 330.969L461.03 330.835C462.717 325.008 464.439 311.631 465.493 304.957C467.699 290.683 470.123 276.444 472.763 262.244ZM478.155 259.794C475.064 274.73 473.297 291.979 470.7 307.115C470.066 310.805 467.251 328.884 467.291 331.871L467.985 332.709C469.288 328.382 470.206 320.75 470.869 316.114L474.729 289.101C475.327 285.042 478.85 263.227 478.757 260.406L478.155 259.794ZM485.661 260.834C484.313 266.628 475.516 332.13 476.072 334.515C478.411 329.61 486.661 265.071 485.661 260.834ZM492.793 263.124C491.65 266.834 490.904 275.457 490.469 279.618L487.699 306.187C487.202 310.603 483.974 331.012 485.168 333.596C487.3 328.799 493.463 269.521 492.793 263.124ZM531.594 262.292C531.083 264.769 536.331 330.488 537.254 332.402C538.234 326.963 533.42 266.341 531.594 262.292ZM538.395 262.791C537.679 269.095 544.117 324.594 546.277 328.959C546.316 324.165 539.582 265.36 538.395 262.791ZM525.093 266.304C524.924 279.31 527.07 293.273 527.044 306.468C527.036 310.563 526.9 332.697 528.273 334.592C528.918 326.498 528.422 271.436 525.093 266.304ZM499.729 268.39C498.931 272.399 493.344 331.908 493.527 332.706L493.98 333.208C495.489 329.148 500.94 272.402 500.075 268.739L499.729 268.39ZM510.928 268.274C509.926 273.416 508.169 329.151 509.197 332.415C510.312 327.85 511.975 270.435 510.928 268.274ZM517.749 268.449C516.88 283.43 517.028 297.778 517.35 312.772C517.454 317.636 517.134 328.345 517.733 332.583L518.434 333.237C518.805 328.392 518.862 271.187 517.983 268.683L517.749 268.449ZM505.278 270.351C504.355 278.063 500.429 326.678 501.748 331.984C502.758 329.613 506.044 274.074 505.278 270.351Z" fill="#FFEDE1"/>
<path d="M587.476 432.267C566.311 435.606 545.587 438.456 524.139 439.202C475.714 440.888 421.37 440.039 373.659 431.121C354.132 427.471 334.901 421.699 315.592 417.017C277.456 407.769 230.184 394.329 200.863 366.762C192.1 358.523 189.066 351.83 188.818 339.708C188.627 330.35 193.259 322.263 199.602 315.702C230.112 284.139 319.169 268.662 361.725 263.266C381.639 260.74 401.779 259.272 421.804 257.89C431.66 257.24 441.522 256.695 451.389 256.255C454.448 256.108 466.853 254.856 468.561 256.569L468.241 257.397C465.333 258.964 439.142 258.654 434.014 258.919C376.666 261.875 253.2 271.303 213.958 315.282C207.985 321.976 202.824 330.474 203.569 339.807C204.395 350.156 212.597 358.457 220.178 364.693C268.051 404.075 367.219 415.958 427.713 420.763C446.166 422.229 464.685 423.674 483.201 423.962C522.917 424.579 561.888 422.591 601.415 418.774C599.206 425.837 589.965 423.768 588.429 431.535L587.476 432.267Z" fill="#FFEDE1"/>
<path d="M668.473 275.817C638.236 271.494 608.559 264.13 577.575 262.805C573.922 262.649 548.139 260.972 546.296 259.685C546.084 257.69 545.789 258.454 546.586 257.026C550.263 256.198 591.615 261.285 597.722 262.047C621.861 265.057 647.749 266.651 671.625 270.605C671.361 270.704 671.101 270.813 670.834 270.903C670.055 271.165 602.029 263.53 596.29 262.846C588.527 261.92 578.488 259.02 570.907 260.654C571.939 262.052 586.351 262.714 589.039 263.063C610.921 265.905 633.115 267.754 654.691 272.47C657.814 273.155 666 274.497 668.31 275.221L668.473 275.817Z" fill="#D5DCDF"/>
<path d="M472.764 262.244L471.559 262.509C471.788 260.764 471.706 260.622 472.567 259.033C473.245 259.953 472.875 260.741 472.764 262.244Z" fill="#504B4D"/>
<path d="M467.987 332.709L467.293 331.871C467.253 328.884 470.068 310.805 470.702 307.115C473.299 291.979 475.066 274.73 478.157 259.794L478.759 260.406C478.852 263.227 475.329 285.042 474.731 289.101L470.871 316.114C470.208 320.75 469.29 328.382 467.987 332.709Z" fill="#030303"/>
<path d="M671.624 270.605C681.346 271.121 691.393 273.396 700.983 275.141C734.386 281.217 789.267 292.909 812.85 318.896C818.239 324.834 822.608 332.452 822.304 340.714C821.904 351.606 814.241 360.96 806.488 367.885C759.973 409.437 649.024 425.041 587.475 432.267L588.428 431.535C589.964 423.768 599.205 425.837 601.414 418.774C603.049 418.455 610.947 417.844 613.087 417.598C621.576 416.63 630.044 415.473 638.482 414.13C681.87 407.235 740.232 394.036 778.308 372.056C789.213 365.761 802.462 356.115 805.688 343.167C807.278 336.785 805.947 330.202 802.485 324.664C783.63 294.505 701.308 283.868 668.472 275.817L668.309 275.221C665.999 274.497 657.813 273.155 654.69 272.47C633.114 267.754 610.92 265.905 589.038 263.063C586.35 262.714 571.938 262.052 570.906 260.654C578.487 259.02 588.526 261.92 596.289 262.846C602.028 263.53 670.054 271.165 670.833 270.903C671.1 270.813 671.36 270.704 671.624 270.605Z" fill="#8EECF5"/>
<path d="M463.47 277.52C459.854 293.142 456.784 309.565 453.915 325.357C453.157 329.527 452.967 334.742 455.791 338.134C462.447 346.13 477.602 349.482 487.224 350.875C478.971 368.135 469.969 385.027 460.243 401.502C457.082 406.78 448.075 416.78 446.837 420.47C434.726 420.491 421.936 418.609 409.858 417.48C355.338 412.384 257.793 398.312 217.12 359.712C211.06 353.96 205.458 346.665 205.426 337.921C205.393 328.6 211.686 320.089 217.986 313.741C261.972 269.419 405.028 260.608 467.37 260.296C466.088 265.593 464.914 271.141 463.715 276.475C435.256 275.132 427.447 273.184 400.211 288.388C393.232 292.284 383.591 296.686 375.66 298.104C356.989 301.444 343.469 296.99 324.45 302.495C308.088 307.231 297.467 319.469 284.664 324.997C267.251 332.517 246.586 332.32 229.383 344.929C238.13 341.512 246.301 338.053 255.288 335.266C263.953 332.58 277.126 330.502 284.951 326.827C299.899 319.806 309.505 308.354 326.481 303.634C345.994 298.208 363.319 304.34 382.646 298.35C389.271 296.297 398.436 291.562 404.416 288.211C426.391 275.899 439.152 276.412 463.47 277.52ZM346.674 285.494C310.773 291.823 278.196 296.963 245.654 314.991C240.825 317.666 233.77 321.594 229.927 325.364C237.285 321.532 244.58 317.269 252 313.689C269.019 305.576 286.872 299.343 305.243 295.101C318.959 291.804 333.436 289.78 346.921 286.361C348.591 286.013 350.549 285.824 351.629 284.789C349.5 284.65 348.793 284.959 346.674 285.494ZM430.284 301.7C411.749 303.587 388.706 313.821 371.576 321.612C363.987 325.063 355.283 329.763 347.345 332.159C324.245 339.131 300.157 343.376 276.907 350.023C266.987 352.86 255.624 355.881 246.704 360.978C254.442 359.123 262.362 355.961 270.129 353.818C283.787 350.05 297.513 346.537 311.302 343.283C335.552 337.503 353.758 333.118 375.992 321.466C390.559 313.832 409.834 307.768 425.745 303.935C436.927 301.629 448.541 306.111 457.677 305.181C449.848 303.534 438.256 300.94 430.284 301.7ZM423.034 330.471C417.071 333.053 410.631 335.997 404.422 337.83C390.009 342.086 374.077 344.082 359.533 347.454C337.286 352.612 308.341 358.826 287.407 367.46L287.335 367.864L287.803 367.897C309.228 362.075 330.038 356.188 351.65 351C371.8 346.163 407.796 342.471 423.565 330.99L423.386 330.541L423.034 330.471ZM425.774 352.013C414.702 357.498 398.781 357.583 386.437 359.445C369.698 361.97 338.82 367.539 323.857 374.747L324.197 374.82C339.925 371.291 354.667 366.591 370.834 363.678C383.612 361.375 417.074 359.357 425.806 352.988L426.132 352.224L425.774 352.013ZM457.42 353.023C438.034 370.157 415.593 370.138 392.675 377.698C385.391 380.101 341.929 392.803 338.421 395.865L338.747 396.087C356.776 390.961 374.488 384.822 392.518 379.531C408.909 374.721 426.305 371.54 442.08 364.978C447.597 362.683 453.899 358.842 457.501 353.999L457.603 353.173L457.42 353.023ZM472.36 370.034C457.871 383.526 441.53 393.85 423.142 400.974C421.582 401.579 411.707 405.382 411.521 406.487C426.108 401.923 440.415 396.598 452.953 387.587C457.449 384.356 471.72 375.366 472.36 370.034Z" fill="url(#paint1_linear_31_1175)"/>
<path d="M476.072 334.515C475.516 332.13 484.313 266.628 485.661 260.834C486.661 265.071 478.411 329.61 476.072 334.515Z" fill="#030303"/>
<path d="M471.558 262.509L472.763 262.244C470.123 276.444 467.699 290.683 465.493 304.957C464.439 311.631 462.717 325.008 461.03 330.835L460.649 330.969C460.215 325.32 462.437 314.249 463.48 308.232C464.997 299.023 466.567 289.823 468.191 280.632C469.237 274.883 470.767 268.143 471.558 262.509Z" fill="#030303"/>
<path d="M546.27 261.727C551.416 262.115 556.558 262.563 561.694 263.072C560.321 267.085 552.843 277.216 548.848 278.53C547.882 272.835 546.987 267.464 546.27 261.727Z" fill="#8EECF5"/>
<path d="M485.169 333.596C483.975 331.012 487.203 310.603 487.7 306.187L490.47 279.618C490.905 275.457 491.651 266.834 492.794 263.124C493.464 269.521 487.301 328.799 485.169 333.596Z" fill="#030303"/>
<path d="M537.254 332.402C536.331 330.488 531.083 264.769 531.594 262.292C533.42 266.341 538.234 326.963 537.254 332.402Z" fill="#030303"/>
<path d="M546.277 328.959C544.117 324.594 537.679 269.095 538.395 262.791C539.582 265.36 546.316 324.165 546.277 328.959Z" fill="#030303"/>
<path d="M561.695 263.072C576.919 265.03 593.488 266.398 608.999 268.179C607.868 271.584 606.006 274.877 604.619 278.221C595.99 299.026 584.46 318.716 567.682 334.017C564.09 337.293 553.968 346.746 548.641 344.361C555.211 338.482 556.785 336.129 556.174 327.243C562.711 323.858 568.915 321.061 575.675 318.124C566.812 320.585 564.155 321.602 556.149 325.728C554.61 309 551.911 295.045 548.849 278.53C552.844 277.216 560.322 267.085 561.695 263.072Z" fill="#F1C0E8"/>
<path d="M528.275 334.592C526.902 332.697 527.038 310.563 527.046 306.468C527.072 293.273 524.926 279.31 525.095 266.304C528.424 271.436 528.92 326.498 528.275 334.592Z" fill="#030303"/>
<path d="M608.996 268.179C633.759 271.043 657.825 275.791 682.237 280.694C712.803 286.833 779.282 298.485 798.859 323.146C802.742 328.038 805.121 334.016 804.361 340.335C803.139 350.501 794.575 358.485 786.812 364.276C775.298 372.865 761.659 378.731 748.398 384.07C725.536 393.274 702.035 399.242 677.986 404.417C602.018 420.211 524.257 425.611 446.836 420.47C448.074 416.78 457.081 406.78 460.242 401.502C469.968 385.027 478.97 368.135 487.223 350.875C503.206 352.75 535.472 353.138 548.638 344.361C553.965 346.746 564.087 337.293 567.679 334.017C584.457 318.716 595.987 299.026 604.616 278.221C606.003 274.877 607.865 271.584 608.996 268.179ZM687.264 297.709C666.729 299.47 646.125 299.184 625.701 302.454C623.5 302.807 618.334 303.333 616.495 304.173C618.535 304.569 618.886 304.552 620.991 304.489C627.805 303.568 634.643 302.828 641.496 302.268C648.606 301.694 687.338 299.933 691.08 297.738C689.478 297.593 688.899 297.49 687.264 297.709ZM729.304 310.556C698.129 320.504 664.307 316.149 632.282 323.436C627.941 324.424 620.833 325.576 616.875 327.116L617.597 327.355C630.543 325.086 642.752 323.364 655.315 321.777C670.832 319.817 719.306 319.16 729.865 310.802L729.304 310.556ZM732.709 322.483C726.736 325.394 720.674 328.12 714.533 330.657C711.341 331.974 696.725 337.352 694.91 338.783L695.611 339.125C705.626 336.061 725.126 328.721 733.283 322.783L732.709 322.483ZM777.39 322.387L777.019 322.839C773.549 327.155 770.194 333.734 766.575 337.432C740.589 363.986 704.9 378.319 670.573 390.669C669.577 391.027 666.934 391.348 666.925 392.485C672.205 392.881 676.979 390.531 682.04 388.531C712.673 376.425 744.74 362.942 767.684 338.428C770.122 335.822 777.837 325.238 777.39 322.387ZM662.468 339.029C655.131 344.869 647.953 352.201 639.985 356.993C623.002 367.208 602.347 372.231 583.385 377.49L549.755 386.972C547.217 387.674 525.753 392.689 525.399 393.369L525.666 393.493C540.713 391.717 558.937 385.861 573.561 381.618C599.075 374.215 627.928 369.392 649.085 352.42C652.071 349.996 661.036 342.582 662.756 339.471L662.468 339.029ZM599.402 343.505C589.629 347.682 580.229 351.779 570.245 355.429C548.845 363.253 527.94 367.71 506.126 373.004L506.013 373.382L506.504 373.555C526.361 371.123 583.589 354.95 600.12 344.042L600.123 343.574L599.402 343.505ZM682.389 349.558C678.716 351.526 675.473 353.562 672.48 356.49C672.304 357.461 672.264 357.078 672.372 357.64C674.74 356.072 681.849 351.843 682.389 349.558ZM680.663 363.501C677.739 365.79 672.003 370.408 668.875 372.918C663.784 377.003 600.782 396.559 600.035 398.483C615.262 394.914 630.033 388.957 644.736 383.697C651.716 381.2 659.046 379.534 665.708 376.247C668.691 374.775 681.137 366.942 680.663 363.501Z" fill="#8EECF5"/>
<path d="M493.981 333.208L493.528 332.706C493.345 331.908 498.932 272.399 499.73 268.39L500.076 268.739C500.941 272.402 495.49 329.148 493.981 333.208Z" fill="#030303"/>
<path d="M509.199 332.415C508.171 329.151 509.928 273.416 510.93 268.274C511.977 270.435 510.314 327.85 509.199 332.415Z" fill="#1E231F"/>
<path d="M518.434 333.237L517.733 332.583C517.134 328.345 517.454 317.636 517.35 312.772C517.028 297.778 516.88 283.43 517.749 268.449L517.983 268.683C518.862 271.187 518.805 328.392 518.434 333.237Z" fill="#1E231F"/>
<path d="M501.749 331.984C500.43 326.678 504.356 278.063 505.279 270.351C506.045 274.074 502.759 329.613 501.749 331.984Z" fill="#1E231F"/>
<path d="M346.676 285.494C348.795 284.959 349.502 284.65 351.631 284.789C350.551 285.824 348.593 286.013 346.923 286.361L346.676 285.494Z" fill="#8B7A66"/>
<path d="M229.926 325.364C233.769 321.594 240.824 317.666 245.653 314.991C278.195 296.963 310.772 291.823 346.673 285.494L346.92 286.361C333.435 289.78 318.958 291.804 305.242 295.101C286.871 299.343 269.018 305.576 251.999 313.689C244.579 317.269 237.284 321.532 229.926 325.364Z" fill="#030303"/>
<path d="M620.992 304.489C618.887 304.552 618.536 304.569 616.496 304.173C618.335 303.333 623.501 302.807 625.702 302.454C646.126 299.184 666.73 299.47 687.265 297.709C688.9 297.49 689.479 297.593 691.081 297.738C687.339 299.933 648.607 301.694 641.497 302.268C634.644 302.828 627.806 303.568 620.992 304.489Z" fill="#030303"/>
<path d="M246.703 360.978C255.623 355.881 266.986 352.86 276.906 350.023C300.156 343.376 324.244 339.131 347.344 332.159C355.282 329.763 363.986 325.063 371.575 321.612C388.705 313.821 411.748 303.587 430.283 301.7C438.255 300.94 449.847 303.534 457.676 305.181C448.54 306.111 436.926 301.629 425.744 303.935C409.833 307.768 390.558 313.832 375.991 321.466C353.757 333.118 335.551 337.503 311.301 343.283C297.512 346.537 283.786 350.05 270.128 353.818C262.361 355.961 254.441 359.123 246.703 360.978Z" fill="#030303"/>
<path d="M617.597 327.355L616.875 327.116C620.833 325.576 627.941 324.424 632.282 323.436C664.307 316.149 698.129 320.504 729.304 310.556L729.865 310.802C719.306 319.16 670.832 319.817 655.315 321.777C642.752 323.364 630.543 325.086 617.597 327.355Z" fill="#030303"/>
<path d="M695.611 339.125L694.91 338.783C696.725 337.352 711.341 331.974 714.533 330.657C720.674 328.12 726.736 325.394 732.709 322.483L733.283 322.783C725.126 328.721 705.626 336.061 695.611 339.125Z" fill="#030303"/>
<path d="M666.926 392.485C666.935 391.348 669.578 391.027 670.574 390.669C704.901 378.319 740.59 363.986 766.576 337.432C770.195 333.734 773.55 327.155 777.02 322.839L777.391 322.387C777.838 325.238 770.123 335.822 767.685 338.428C744.741 362.942 712.674 376.425 682.041 388.531C676.98 390.531 672.206 392.881 666.926 392.485Z" fill="#030303"/>
<path d="M287.804 367.897L287.336 367.864L287.408 367.46C308.342 358.826 337.287 352.612 359.534 347.454C374.078 344.082 390.01 342.086 404.423 337.83C410.632 335.997 417.072 333.053 423.035 330.471L423.387 330.541L423.566 330.99C407.797 342.471 371.801 346.163 351.651 351C330.039 356.188 309.229 362.075 287.804 367.897Z" fill="#030303"/>
<path d="M525.665 393.493L525.398 393.369C525.752 392.689 547.216 387.674 549.754 386.972L583.384 377.49C602.346 372.231 623.001 367.208 639.984 356.993C647.952 352.201 655.13 344.869 662.467 339.029L662.755 339.471C661.035 342.582 652.07 349.996 649.084 352.42C627.927 369.392 599.074 374.215 573.56 381.618C558.936 385.861 540.712 391.717 525.665 393.493Z" fill="#030303"/>
<path d="M824.585 343.845C826.592 343.546 826.751 343.46 828.623 342.607C832.982 342.322 841.383 344.04 845.679 345.187C873.453 352.602 904.735 365.99 926.805 384.453C951.485 405.099 966.858 435.199 968.809 467.251C972.587 529.302 934.078 585.406 894.656 629.613C883.97 641.595 872.591 652.824 861.809 664.968C859.751 662.961 855.73 656.719 853.537 654.02C822.579 615.905 767.845 607.439 721.545 607.446C711.143 607.447 700.458 606.264 690.364 609.461C688.958 603.508 687.669 597.979 686.555 591.958C687.51 590.393 690.861 567.103 691.478 563.24C696.343 532.771 704.232 503.071 710.64 472.983C723.262 468.055 729.769 450.226 728.436 437.591C730.991 437.071 738.846 434.323 741.43 433.452C760.681 426.958 782.309 417.833 798.67 405.793C812.634 395.517 816.449 383.611 820.04 367.502C822.012 358.651 823.405 353.117 824.585 343.845Z" fill="#F1C0E8"/>
<path d="M506.507 373.555L506.016 373.382L506.129 373.004C527.943 367.71 548.848 363.253 570.248 355.429C580.232 351.779 589.632 347.682 599.405 343.505L600.126 343.574L600.123 344.042C583.592 354.95 526.364 371.123 506.507 373.555Z" fill="#030303"/>
<path d="M672.372 357.64C672.264 357.078 672.304 357.461 672.48 356.49C675.473 353.562 678.716 351.526 682.389 349.558C681.849 351.843 674.74 356.072 672.372 357.64Z" fill="#030303"/>
<path d="M324.195 374.82L323.855 374.747C338.818 367.539 369.696 361.97 386.435 359.445C398.779 357.583 414.7 357.498 425.772 352.013L426.13 352.224L425.804 352.988C417.072 359.357 383.61 361.375 370.832 363.678C354.665 366.591 339.923 371.291 324.195 374.82Z" fill="#030303"/>
<path d="M338.748 396.087L338.422 395.865C341.93 392.803 385.392 380.101 392.676 377.698C415.594 370.138 438.035 370.157 457.421 353.023L457.604 353.173L457.502 353.999C453.9 358.842 447.598 362.683 442.081 364.978C426.306 371.54 408.91 374.721 392.519 379.531C374.489 384.822 356.777 390.961 338.748 396.087Z" fill="#030303"/>
<path d="M420.735 438.516C458.981 441.831 497.415 442.399 535.742 440.216C554.393 439.113 572.754 435.14 591.243 432.971C651.138 425.946 786.325 409.048 820.682 354.771C814.897 380.366 813.818 394.305 789.951 409.363C730.161 447.086 613.087 460.7 542.22 463.241C521.649 463.979 500.928 463.581 480.357 463.041C452.474 462.31 424.467 461.048 396.789 457.431C403.417 451.374 413.677 445.235 420.735 438.516Z" fill="#98F5E1"/>
<path d="M192.207 360.53C225.118 396.586 276.824 409.559 322.544 420.372C340.765 424.681 358.794 429.939 377.269 433.135C391.628 435.619 406.247 436.982 420.737 438.516C413.679 445.235 403.419 451.374 396.791 457.431C392.848 457.805 372.525 454.502 367.497 453.763C356.216 452.105 342.661 450.666 331.51 448.445C291.818 440.541 251.699 427.649 217.954 404.77C199.105 391.99 195.9 381.524 192.207 360.53Z" fill="url(#paint2_linear_31_1175)"/>
<path d="M600.035 398.483C600.782 396.559 663.784 377.003 668.875 372.918C672.003 370.408 677.739 365.79 680.663 363.501C681.137 366.942 668.691 374.775 665.708 376.247C659.046 379.534 651.716 381.2 644.736 383.697C630.033 388.957 615.262 394.914 600.035 398.483Z" fill="#030303"/>
<path d="M411.52 406.487C411.706 405.382 421.581 401.579 423.141 400.974C441.529 393.85 457.87 383.526 472.359 370.034C471.719 375.366 457.448 384.356 452.952 387.587C440.414 396.598 426.107 401.923 411.52 406.487Z" fill="#030303"/>
<path d="M720.082 440.16C721.962 439.759 726.413 438.224 728.437 437.591C729.77 450.226 723.263 468.055 710.641 472.983C712.845 465.874 717.591 445.519 720.082 440.16Z" fill="#FFCFD2"/>
<path d="M667.469 451.765C684.527 448.91 703.37 444.389 720.082 440.16C717.591 445.519 712.845 465.874 710.641 472.983C704.233 503.071 696.344 532.771 691.479 563.24C690.862 567.103 687.511 590.393 686.556 591.958C684.102 583.522 681.404 563.549 679.892 554.463C674.225 520.406 669.281 486.284 667.469 451.765Z" fill="#34E5E4"/>
<path d="M317.625 619.95C328.096 578.63 348.087 492.88 341.008 452.253C348.439 453.359 355.882 454.382 363.336 455.321C364.169 490.523 347.324 537.82 337.268 572.429L328.324 603.568C326.928 608.536 325.159 615.711 323.546 620.438C320.844 619.714 320.429 619.739 317.625 619.95Z" fill="#FBF8CC"/>
<path d="M681.262 577.796C679.701 578.169 673.784 579.319 673.018 579.766C673.168 575.701 671.65 562.189 671.137 557.518C668.994 538.007 665.707 518.097 662.438 498.745C659.987 484.236 656.535 468.562 655.316 454.004L665.444 452.137C665.695 463.154 667.268 476.786 668.393 487.799C671.461 517.839 676.677 547.895 681.262 577.796Z" fill="#98F5E1"/>
<path d="M671.241 579.964C669.599 579.892 665.421 579.536 664.082 579.98C655.149 551.202 649.315 519.194 643.41 489.665C641.208 478.653 638.034 467.64 636 457.056C641.928 456.176 647.452 455.347 653.334 454.175C654.902 472.914 659.43 493.744 662.692 512.457C666.661 535.232 668.177 557.332 671.241 579.964Z" fill="#98F5E1"/>
<path d="M326.086 619.495L345.663 552.154C354.925 520.625 365.221 488.775 366.109 455.715C370.897 456.417 375.927 457.24 380.71 457.815C378.995 474.301 373.668 493.787 369.618 510.044C365.659 526.194 361.615 542.323 357.488 558.43C352.16 578.497 346.15 599.539 341.979 619.838C337.848 619.903 329.853 620.196 326.086 619.495Z" fill="#FBF8CC"/>
<path d="M657.829 566.086C655.325 566.012 649.674 565.625 647.644 566.372L625.148 458.553C628.285 458.01 631.551 457.542 634.707 457.046C636.517 468.406 639.407 480.212 641.513 491.624C646.177 516.896 651.538 541.177 657.829 566.086Z" fill="#98F5E1"/>
<path d="M344.121 619.127C348.253 598.365 354.171 578.521 359.726 558.108C364.226 541.05 368.576 523.954 372.776 506.82C376.797 490.67 381.232 474.572 383.077 458.022L394.945 459.336C384.469 496.982 372.699 534.243 363.438 572.17C359.549 588.099 355.672 604.039 351.841 619.982C349.092 619.683 346.921 619.64 344.121 619.127Z" fill="#FBF8CC"/>
<path d="M552.308 465.052C574.293 464.332 601.593 461.787 623.568 458.817C627.245 479.581 631.295 500.278 635.716 520.896C641.057 545.437 646.36 570.089 651.257 594.742C651.673 596.837 651.838 596.961 651.103 598.523C646.784 597.475 639.006 594.675 634.652 593.14C633.749 591.954 563.603 565.805 555.242 562.779C552.125 540.985 549.779 520.867 550.446 498.742C550.762 488.286 552.494 475.629 552.32 465.527L552.308 465.052Z" fill="#98F5E1"/>
<path d="M394.766 465.985L396.507 459.388C431.543 464.025 471.236 464.735 506.491 465.501C506.277 482.55 504.844 500.084 504.174 517.152C503.831 525.891 503.038 535.833 503.383 544.5C482.45 553.065 461.391 561.321 440.214 569.265C439.665 564.415 434.898 551.954 433.052 546.702C423.478 519.46 413.553 488.356 394.766 465.985Z" fill="#B9FBC0"/>
<path d="M534.925 465.549C540.993 465.528 546.254 465.513 552.309 465.052L552.321 465.527C552.495 475.629 550.763 488.286 550.447 498.742C549.78 520.867 552.126 540.985 555.243 562.779C546.226 559.198 535.77 556.069 526.449 553.136C528.994 524.801 534.033 493.389 534.925 465.549Z" fill="#B9FBC0"/>
<path d="M505.23 545.164C505.5 518.749 508.066 491.94 508.562 465.596L516.926 465.71C517.112 471.034 516.682 477.071 516.276 482.41C514.623 504.17 514.275 526.304 511.989 547.987L511.703 548.614C509.05 546.782 508.392 546.263 505.23 545.164Z" fill="#B9FBC0"/>
<path d="M513.953 554.781C514.037 541.958 515.958 528.667 516.355 515.796C516.868 499.136 518.401 482.427 518.065 465.75L533.585 465.588C532.631 483.757 529.239 502.45 527.642 520.588C526.752 530.695 525.697 540.793 524.575 550.877C524.454 552.176 524.731 551.644 523.764 552.486C521.782 552.399 520.786 552.191 518.819 551.815C517.341 552.887 515.547 553.858 513.953 554.781Z" fill="#B9FBC0"/>
<path d="M394.765 465.985C413.552 488.356 423.477 519.46 433.051 546.702C434.897 551.954 439.664 564.415 440.213 569.265C433.438 571.151 423.482 574.97 416.391 577.27C397.116 583.522 378.395 589.72 359.629 597.386C367.706 559.016 379.966 521.137 390.05 483.279C391.59 477.497 393.123 471.74 394.765 465.985Z" fill="#FBF8CC"/>
<path d="M439.949 571.194C454.193 565.549 468.282 560.015 482.737 554.944C488.983 552.752 496.513 549.109 502.704 547.502C504.706 548.607 504.004 553.605 503.97 555.837C485.039 564.338 461.669 572.739 442.079 579.782C441.43 576.905 440.72 574.041 439.949 571.194Z" fill="#B0EECC"/>
<path d="M509.972 553.989C507.53 554.545 507.412 554.892 505.814 553.219C505.373 551.924 505.555 549.003 506.713 548.239L507.016 549.2C509.117 551.282 509.098 551.217 509.972 553.989Z" fill="#B2DBC0"/>
<path d="M507.017 549.2C508.791 548.879 508.832 548.744 510.565 549.404C513.476 554.013 510.618 655.075 510.467 668.067C507.877 666.991 504.83 665.806 502.325 664.644C501.782 650.269 502.985 630.239 503.512 615.589C504.178 597.106 504.187 575.229 505.986 557.09C507.567 556.341 509.207 555.87 509.981 554.428L509.973 553.989C509.099 551.217 509.118 551.282 507.017 549.2Z" fill="#B0EECC"/>
<path d="M603.824 588.121C600.61 592.21 600.041 592.68 598.977 597.901C577.149 591.316 549.113 579.836 526.694 571.747C525.848 568.334 525.697 566.253 525.375 562.756C524.306 564.508 517.316 573.864 517.323 574.243C517.833 602.745 521.768 633.296 522.559 661.701C518.893 663.241 515.97 664.763 512.434 666.61C512.694 642.4 513.17 618.192 513.862 593.99C513.942 590.417 514.017 570.416 514.732 568.476L515.562 568.783C515.883 566.924 513.961 561.787 513.996 557.256L514.006 556.458C515.619 555.453 517.579 554.453 519.27 553.532C520.98 553.761 521.57 553.831 523.27 554.362C525.853 556.935 523.239 560.9 526.942 562.105C552.641 570.466 578.04 580.039 603.824 588.121Z" fill="#8EECF5"/>
<path d="M651.103 598.523C652.24 599.157 652.56 600.076 652.54 601.281L651.726 601.635C647.617 600.727 638.278 597.204 633.93 595.73L603.815 585.801C583.14 579.007 562.543 571.977 542.029 564.711C537.462 563.11 525.214 562.292 526.482 556.153C529.055 554.759 533.211 557.252 535.987 558.068C544.787 560.653 553.331 563.757 561.903 567.021C577.04 572.849 592.245 578.498 607.515 583.968C615.83 586.965 626.236 590.895 634.652 593.14C639.006 594.675 646.784 597.475 651.103 598.523Z" fill="#8EECF5"/>
<path d="M442.017 581.718C461.433 574.913 484.545 566.096 503.708 558.332C502.391 576.488 501.982 594.811 501.397 613.017C500.858 629.782 499.915 646.927 499.899 663.666C480.381 654.428 460.859 646.013 441.305 637.006C441.522 631.839 443.367 624.488 443.718 618.293C444.461 605.202 442.841 594.574 442.017 581.718Z" fill="#B9FBC0"/>
<path d="M647.645 566.372C649.675 565.625 655.326 566.012 657.83 566.086C673.68 627.399 691.925 688.069 712.522 747.955C718.141 763.874 724.842 779.652 730.904 795.414C735.161 806.481 740.027 817.194 743.639 828.54C712.44 829.013 713.533 809.588 705.481 785.737C700.5 770.98 696.42 755.918 692.017 740.982C681.788 706.468 671.391 671.439 662.756 636.46C657.176 613.217 652.138 589.848 647.645 566.372ZM685.836 704.094C686.464 708.379 689.012 716.682 690.478 720.955C694.131 731.6 700.88 764.56 715.371 763.357C714.893 762.169 714.789 761.092 713.35 760.731C707.637 759.296 705.263 754.819 702.836 749.963C695.882 736.053 693.593 720.524 688.254 706.052C687.672 704.476 687.253 704.604 685.836 704.094Z" fill="#CFBAF0"/>
<path d="M528.425 658.989C527.228 659.642 526.649 660.107 525.285 660.121L524.504 659.348C523.456 656.433 520.243 586.596 519.525 576.759C519.308 573.781 521.191 571.933 523.258 570.03C527.256 577.147 532.399 646.544 532.684 656.998L528.425 658.989Z" fill="#A3C4F3"/>
<path d="M358.188 600.443C369.745 594.987 382.652 590.808 394.732 586.726C409.855 581.697 424.927 576.52 439.948 571.194C440.719 574.041 441.429 576.905 442.078 579.782C419.064 587.757 392.058 599.309 369.579 606.155C365.95 604.227 361.92 602.367 358.188 600.443Z" fill="#FBF8CC"/>
<path d="M526.82 573.006C537.824 577.344 549.206 581.435 560.079 585.963C562.315 595.659 564.306 605.243 566.836 614.878C568.746 622.152 572.204 630.932 573.625 638.091C561.296 644.444 547.31 650.635 534.628 656.345C534.172 634.149 530.46 595.899 526.82 573.006Z" fill="#B9FBC0"/>
<path d="M673.019 579.766C673.785 579.319 679.702 578.169 681.263 577.796C683.694 592.019 686.417 602.304 689.713 616.253C700.125 661.637 714.372 706.055 732.3 749.029C737.514 761.237 742.964 773.341 749.123 785.09C752.003 790.585 757.392 797.104 759.396 802.299C761.308 807.255 760.047 817.204 756.545 821.489C752.9 825.949 751.061 826.815 745.826 828.328C737.41 802.163 723.613 773.413 714.388 746.878C703.037 713.597 692.36 680.09 682.365 646.378C676.006 624.36 670.297 602.08 664.082 579.98C665.421 579.536 669.599 579.892 671.241 579.964L673.019 579.766Z" fill="#CFBAF0"/>
<path d="M373.055 607.436C378.763 604.748 390.229 600.869 396.608 598.489C411.713 592.816 426.85 587.226 442.017 581.718C442.841 594.574 444.461 605.202 443.718 618.293C443.367 624.488 441.522 631.839 441.305 637.006L403.431 620.376C393.435 615.931 383.31 611.171 373.055 607.436Z" fill="#FBF8CC"/>
<path d="M560.078 585.963C572.997 590.711 584.902 595.302 598.083 599.649C594.328 607.514 589.815 623.031 586.556 631.907C582.359 634.268 578.016 636.125 573.624 638.091C572.203 630.932 568.745 622.152 566.835 614.878C564.305 605.243 562.314 595.659 560.078 585.963Z" fill="#34E5E4"/>
<path d="M598.977 597.901C600.041 592.68 600.61 592.21 603.824 588.121C618.476 593.359 633.275 597.263 648.007 602.816C643.264 604.886 637.021 607.811 632.323 609.563C624.736 605.853 607.635 600.585 598.977 597.901Z" fill="#F1C0E8"/>
<path d="M586.559 631.907C589.818 623.031 594.331 607.514 598.086 599.649C607.878 603.191 620.833 606.83 629.95 611.029C617.954 617.58 599.312 626.11 586.559 631.907Z" fill="#F1C0E8"/>
<path d="M356.844 609.176L358.309 603.223C366.255 607.119 378.256 611.106 387.017 614.994L471.155 652.625L497.886 664.839C501.109 666.311 508.525 668.402 509.355 671.673C508.834 673.664 508.075 674.144 506.576 675.69C503.925 677.843 502.735 677.155 499.6 675.48C470.369 659.86 439.65 647.39 409.629 633.428C391.871 625.17 375.116 616.521 356.844 609.176Z" fill="#D5DCDF"/>
<path d="M512.745 668.688C517.55 665.805 531.578 659.751 537.224 657.136L584.849 634.923C604.769 625.622 632.223 610.514 651.898 603.521C652.5 603.583 652.095 603.503 653.026 604.032C653.888 606.477 654.542 610.885 655.029 613.612C637.998 620.2 623.093 627.459 606.578 635.136L553.38 659.629C539.932 665.846 528.185 671.534 514.22 676.889L512.458 677.296L511.543 676.721C510.862 674.444 512.095 671.156 512.745 668.688Z" fill="#CFBAF0"/>
<path d="M690.361 609.461C700.455 606.264 711.14 607.447 721.542 607.446C767.842 607.439 822.576 615.905 853.534 654.02C855.727 656.719 859.748 662.961 861.806 664.968C884.654 705.68 878.596 745.136 858.89 785.293C836.966 829.486 802.238 866.05 759.231 890.219C732.272 905.352 698.519 914.746 668.189 917.774C619.283 922.657 571.611 910.487 526.511 892.686C510.8 886.486 495.752 881.168 480.119 874.17C464.803 868.065 449.038 860.791 434.638 854.284C394.104 835.97 359.708 803.55 384.425 756.782C387.667 750.649 403.762 724.464 409.559 722.531C434.735 722.357 452.63 717.11 472.948 701.676C479.513 696.69 484.913 693.085 490.483 686.612L497.406 690.153C496.04 701.561 494.682 721.22 494.032 732.7C494.595 733.298 495.166 733.888 495.745 734.47C499.298 738.031 506.42 744.249 511.725 744.056C517.864 743.832 531.969 736.992 535.85 732.485C538.83 729.026 534.875 692.595 534.431 685.662L617.247 646.085C626.824 641.494 650.19 631.198 657.652 625.674C670.368 679.812 687.768 734.424 703.812 787.723C706.895 797.666 708.906 806.685 713.335 816.271C720.589 831.97 749.854 837.106 759.407 821.511C764.502 813.194 763.449 800.947 756.998 793.645C754.865 791.232 752.408 786.165 750.681 783.244C728.826 740.934 713.419 694.953 700.194 649.306C696.423 636.29 693.721 622.55 690.361 609.461Z" fill="#CFBAF0"/>
<path d="M354.719 618.981L356.482 611.113C374.974 618.529 388.266 625.775 406.006 633.997L472.8 664.214C482.506 668.664 493.128 674.977 502.753 678.671C501.073 681.23 499.927 683.176 498.453 685.854C498.388 686.122 497.925 687.09 497.792 687.383C495.513 687.688 460.905 670.288 456.603 668.22L392.118 637.368C384.273 633.52 360.407 623.006 354.719 618.981Z" fill="#CBDEDC"/>
<path d="M511.556 680.728C520.314 676.077 537.461 669.184 547.348 664.627L634.711 624.419C641.359 621.335 648.072 618.616 654.674 615.465L655.119 615.625C656.165 617.395 656.757 621.147 657.216 623.31C650.092 628.861 624.358 640.378 614.935 644.876L551.67 675.309C538.767 681.439 526.385 686.704 513.65 693.32L512.296 693.511C510.795 691.81 511.473 683.499 511.556 680.728Z" fill="#CFBAF0"/>
<path d="M314.905 704.709C312.035 712.63 293.433 762.063 295.664 765.901C297.867 764.042 299.063 757.018 300.04 754.104C305.006 738.782 310.215 723.539 315.664 708.382C326.082 678.947 338.407 650.033 344.12 619.127C346.92 619.64 349.091 619.683 351.84 619.982C336.28 670.045 319.849 719.832 302.553 769.322L292.313 798.776C290.04 805.327 287.65 812.381 284.67 818.617C282.191 823.802 265.191 827.937 261.086 824.326C261.008 820.807 278.258 776.313 280.461 769.835C285.588 754.578 290.483 739.244 295.145 723.839C297.33 716.759 300.464 707.737 302.246 700.785C307.842 703.121 308.783 703.985 314.905 704.709Z" fill="#B0EECC"/>
<path d="M302.246 700.785C310.228 673.855 317.883 646.27 326.084 619.495C329.851 620.196 337.846 619.903 341.977 619.838C338.075 636.592 333.898 651.945 328.494 668.249C325.864 676.183 316.271 698.005 314.905 704.709C308.783 703.985 307.842 703.121 302.246 700.785Z" fill="#B9FBC0"/>
<path d="M258.505 824.04C243.7 818.111 243.242 809.246 249.88 796.916C274.422 751.327 293.102 703.51 307.947 653.958C311.298 642.772 314.956 631.304 317.626 619.95C320.43 619.739 320.845 619.714 323.547 620.438C318.232 636.878 313.062 656.309 308.198 673.091C300.76 698.457 293.052 723.744 285.074 748.946C280.553 763.096 275.211 777.669 270.169 791.652C266.247 802.525 261.779 812.869 258.505 824.04Z" fill="url(#paint3_linear_31_1175)"/>
<path d="M209.602 642.109C210.386 641.896 209.95 642.049 210.675 641.718C232.964 631.559 260.15 628.523 284.208 625.312C294.614 623.924 304.355 622.05 314.836 621.013C309.418 642.312 300.03 673.757 292.39 694.618C287.889 692.596 281.108 688.715 276.614 686.272C253.13 673.411 230.706 658.706 209.551 642.294L209.602 642.109Z" fill="#B9FBC0"/>
<path d="M490.486 686.612C484.916 693.085 479.516 696.69 472.951 701.676C452.633 717.11 434.738 722.357 409.562 722.531C375.943 721.848 357.455 718.778 325.578 708.342C335.48 679.007 344.303 650.25 353.607 620.706C363.335 626.692 378.102 632.756 388.745 638.001C422.422 654.597 456.728 670.122 490.486 686.612Z" fill="#B9FBC0"/>
<path d="M480.122 874.17C478.188 877.005 472.753 891.145 470.304 895.972C459.802 916.683 438.163 938.819 417.162 948.903C376.471 968.442 335.398 963.344 294.028 949.812C233.206 929.918 171.398 888.118 141.09 830.484C124.628 799.179 123.591 760.819 134.677 727.573C147.398 690.376 174.314 659.72 209.553 642.294C230.708 658.706 253.132 673.411 276.616 686.272C281.11 688.715 287.891 692.596 292.392 694.618C283.881 718.344 275.64 740.111 264.45 762.605C257.862 775.847 249.608 791.184 244.491 804.403C237.419 822.67 266.362 833.553 279.917 824.844C286.491 820.621 287.422 818.384 290.127 811.013C293.901 801.151 297.237 791.114 300.643 781.114C308.819 756.81 317.131 732.553 325.578 708.342C357.455 718.778 375.943 721.848 409.562 722.531C403.765 724.464 387.67 750.649 384.428 756.782C359.711 803.55 394.107 835.97 434.641 854.284C449.041 860.791 464.806 868.065 480.122 874.17Z" fill="#8EECF5"/>
<path d="M499.66 688.621C501.48 684.862 502.405 683.305 504.745 679.836C506.478 680.003 507.587 679.969 509.141 680.77C509.411 683.455 510.314 691.506 508.507 693.289L506.75 692.542C504.569 691.204 501.937 689.859 499.66 688.621Z" fill="#D5DCDF"/>
<path d="M523.73 691.029L531.694 686.919L532.106 687.012C533.248 688.53 534.831 725.469 534.703 730.912C531.067 733.408 528.05 735.194 524.215 737.402L522.331 738.188C521.822 737.423 523.562 695.478 523.73 691.029Z" fill="#CFBAF0"/>
<path d="M496.207 731.884C496.532 720.284 498.174 702.685 499.338 690.996C502.568 692.392 507.03 694.788 510.41 696.39C510.397 699.9 510.844 739.873 509.942 741.336L508.774 741.114C502.865 737.929 501.094 736.545 496.207 731.884Z" fill="#CFBAF0"/>
<path d="M512.461 696.614C515.4 695.466 518.135 693.944 520.93 692.478C521.39 692.805 521.096 692.551 521.587 693.441C521.609 700.206 520.755 735.474 519.032 739.383C517.149 740.94 515.53 741.252 513.199 742.007C511.928 739.679 512.455 702.238 512.461 696.614Z" fill="#CFBAF0"/>
<path d="M715.371 763.357C700.88 764.56 694.131 731.6 690.478 720.955C689.012 716.682 686.464 708.379 685.836 704.094C687.253 704.604 687.672 704.476 688.254 706.052C693.593 720.524 695.882 736.053 702.836 749.963C705.263 754.819 707.637 759.296 713.35 760.731C714.789 761.092 714.893 762.169 715.371 763.357Z" fill="#030303"/>
<defs>
<linearGradient id="paint0_linear_31_1175" x1="491.326" y1="174.778" x2="493.781" y2="172.83" gradientUnits="userSpaceOnUse">
<stop stop-color="#89C49C"/>
<stop offset="1" stop-color="#AFEFCC"/>
</linearGradient>
<linearGradient id="paint1_linear_31_1175" x1="309.461" y1="257.715" x2="415.467" y2="436.779" gradientUnits="userSpaceOnUse">
<stop stop-color="#FCEBAF"/>
<stop offset="1" stop-color="#FEC8E1"/>
</linearGradient>
<linearGradient id="paint2_linear_31_1175" x1="308.763" y1="387.239" x2="297.554" y2="440.309" gradientUnits="userSpaceOnUse">
<stop stop-color="#FEEDD3"/>
<stop offset="1" stop-color="#FAC5DE"/>
</linearGradient>
<linearGradient id="paint3_linear_31_1175" x1="268.01" y1="709.414" x2="308.448" y2="732.279" gradientUnits="userSpaceOnUse">
<stop stop-color="#C4EEBE"/>
<stop offset="1" stop-color="#A1F8DB"/>
</linearGradient>
</defs>
</svg>
