<svg width="1024" height="1024" viewBox="0 0 1024 1024" fill="none" xmlns="http://www.w3.org/2000/svg">
<path d="M403.777 247.598C405.448 245.363 412.537 226.855 414.699 222.139C426.459 197.217 443.249 171.413 463.669 152.7C552.19 71.5767 688.655 98.4638 774.25 169.762C785.336 178.996 796.976 191.575 806.747 202.137C808.313 206.391 809.546 209.514 807.51 214.04C805.386 218.81 801.368 222.478 796.424 224.158C780.862 229.301 764.743 215.319 748.623 214.775C710.68 213.496 692.388 262.051 711.118 291.017C712.339 292.906 714.362 295.548 715.3 297.493C706.083 301.341 681.842 327.679 674.798 336.748C672.361 339.885 663.708 353.922 661.639 354.985L619.054 356.056C606.358 356.422 590.024 357.096 577.361 356.434C571.922 352.827 567.505 348.625 561.413 344.825C565.415 337.013 573.48 324.964 578.411 316.825C590.584 296.353 603.025 276.041 615.733 255.895C631.058 231.383 646.159 204.068 662.785 180.469C666.935 180.576 674.504 180.271 676.042 175.618C682.195 156.999 648.857 154.799 658.29 176.56C652.384 185.672 645.45 195.268 639.295 204.343L587.028 281.084C576.416 296.761 566.281 312.786 555.225 328.169C552.659 331.738 549.736 336.326 546.423 339.15C526.616 335.219 510.534 335.353 490.858 340.154C488.389 336.669 483.276 331.573 480.227 328.374L461.874 309.224C442.552 289.285 422.095 268.407 403.777 247.598Z" fill="#FBF8CC"/>
<path d="M344.079 183.118C350.975 189.975 359.317 199.753 366.08 207.133C378.517 220.741 391.083 234.23 403.777 247.598C422.095 268.407 442.552 289.285 461.874 309.224L480.227 328.374C483.276 331.573 488.389 336.669 490.858 340.154C510.534 335.353 526.616 335.219 546.423 339.15C549.736 336.326 552.659 331.738 555.225 328.169C566.281 312.786 576.416 296.761 587.028 281.084L639.295 204.343C645.45 195.268 652.384 185.672 658.29 176.56C648.857 154.799 682.195 156.999 676.042 175.618C674.504 180.271 666.935 180.576 662.785 180.469C646.159 204.068 631.058 231.383 615.733 255.895C603.025 276.041 590.584 296.353 578.411 316.825C573.48 324.964 565.415 337.013 561.413 344.825C567.505 348.625 571.922 352.827 577.361 356.434C590.024 357.096 606.358 356.422 619.054 356.056L661.639 354.985C689.073 354.546 716.504 353.902 743.928 353.053C764.7 352.448 784.702 351.135 805.637 353.331C824.24 355.282 834.414 366.979 839.718 384.349C842.379 394.511 841.878 410.962 842.198 422.039L843.992 488.613L845.447 663.965C845.463 673.655 845.999 685.098 845.27 694.678C843.32 715.702 826.609 733.945 814.142 750.076C809.065 756.645 804.959 763.505 800.052 769.598C791.736 779.921 772.279 777.09 760.074 776.874L760.277 777.82C761.943 785.405 764.94 792.515 766.402 800.101C767.086 803.656 765.255 804.988 761.955 805.491C747.356 807.43 739.214 787.823 734.239 777.079C659.354 777.795 584.465 776.265 509.671 772.489L505.839 772.451C498.156 771.408 485.847 771.151 477.882 770.76C461.757 769.871 445.625 769.112 429.488 768.484L309.035 763.306C306.118 769.309 299.241 784.584 296.186 789.67C289.623 795.035 281.99 792.203 281.194 784.002L280.757 779.432C278.969 773.528 277.437 767.476 275.859 761.507C270.413 761.015 264.907 760.823 259.441 760.576C249.513 760.11 240.081 756.098 232.859 749.27C227.591 744.358 223.824 738.053 221.995 731.087C219.287 721.063 219.271 699.835 219.071 689.06L218.08 634.05C217.887 582.985 215.722 531.042 214.999 479.728C214.805 469.936 214.538 460.146 214.199 450.357C214.018 444.265 213.593 437.241 214.192 431.269C215.815 415.079 226.667 402.815 240.31 395.026C258 384.928 275.388 373.982 293.22 364.345C294.918 363.427 318.016 362.935 321.281 362.836L392.988 360.911C412.655 360.056 435.718 359.471 455.318 359.554C462.59 353.649 466.484 350.428 474.715 345.675C467.997 337.184 459.143 327.651 451.935 319.346C440.406 305.909 428.952 292.408 417.574 278.842C413.166 272.9 408.188 266.267 403.383 260.704C397.913 254.09 391.584 247.207 385.913 240.598C370.719 223.023 355.915 205.116 341.511 186.889C334.551 190.108 329.041 190.227 325.799 182.367C318.37 164.356 354.481 164.339 344.079 183.118ZM657.154 358.314C631.633 358.755 606.117 359.452 580.611 360.405C585.743 365.787 599.589 379.372 595.161 387.619C578.592 381.306 561.081 381.735 543.585 381.496C516.852 381.131 490.14 383.525 463.466 384.679C459.283 384.86 441.199 386.411 438.752 385.657L438.359 384.357C439.561 377.477 447.971 367.461 452.636 362.441C434.378 362.354 412.078 363.2 393.808 364.004C371.041 365.382 315.685 364.921 294.04 367.522C292.673 367.686 246.151 394.604 242.699 397.085C295.918 394.836 349.174 393.603 402.44 393.386C422.517 392.657 443.488 392.698 463.64 392.447L541.885 390.985L573.926 390.49C579.733 390.408 589.375 390.407 594.914 389.664C612.034 389.366 629.112 388.607 646.23 388.526C680.844 388.375 715.699 386.708 750.324 386.032C764.378 385.758 775.733 384.879 789.636 387.819C796.473 376.129 802.375 367.956 810.973 357.66C795.411 354.161 765.165 355.451 747.906 356.034L708.717 357.198C692.07 357.718 673.32 357.421 657.154 358.314ZM596.424 392.568C587.23 392.365 576.646 392.949 567.331 393.174L520.094 394.078L378.75 396.341L290.717 397.704C275.79 398.018 260.533 398.17 246.189 399.487C233.426 400.659 221.017 412.336 218.296 424.518C215.233 438.234 217.333 460.138 217.503 474.489L220.485 620.991L221.741 681.812C222.011 696.746 222.016 711.175 223.923 726.193C225.824 741.159 238.983 754.383 253.762 757.046C263.526 758.806 276.268 758.808 286.418 759.309L355.103 762.422L499 769.006C521.759 769.987 549.216 771.779 571.822 771.997C596.783 773.136 621.766 773.765 646.753 773.884C661.016 774.061 677.991 774.524 692.085 773.943C703.25 774.581 718.781 773.804 730.359 773.797C743.469 773.79 757.662 773.869 770.693 773.451C780.915 773.974 792.391 774.383 799.626 765.649C801.795 763.031 803.508 759.687 803.389 756.192C801.731 707.519 802.53 658.747 802.608 610.036L802.498 490.554L802.505 452.898C802.509 445.198 802.29 437.729 802.209 429.977C802.08 417.721 792.083 400.751 779.042 399.507C768.068 398.461 754.664 399.366 743.27 399.694C720.526 400.273 697.789 401.11 675.063 402.203C663.716 402.696 648.265 401.829 637.909 402.939C623.016 402.731 606.766 403.706 591.644 403.744C586.181 403.757 567.4 403.862 562.636 404.476C550.727 404.369 538.816 404.479 526.911 404.808C522.529 404.922 514.07 404.917 509.941 405.424C496.067 404.706 475.498 405.81 461.338 406.114L378.87 407.468L309.45 408.339C290.312 408.421 271.343 408.09 252.257 409.921C241.26 410.975 230.917 416.213 228.56 428.082C225.873 435.571 227.975 475.901 228.269 485.699L229.234 526.107L233.378 683.354C233.747 695.515 233.367 707.597 233.737 719.887C234.216 735.828 248.92 747.749 264.16 748.771C275.189 749.511 286.825 749.411 298.015 749.701C315.029 750.124 332.038 750.699 349.041 751.426C433.635 755.519 518.256 759.031 602.898 761.962C643.71 763.015 684.538 763.291 725.361 762.792C736.355 762.692 767.358 764.534 776.126 759.926C782.701 756.469 789.123 749.509 791.032 742.229C792.814 735.429 792.479 727.501 792.632 720.485C793.015 702.88 792.48 685.557 792.004 667.976C791.748 653.523 791.604 639.068 791.573 624.613L791.162 499.537C791.192 478.824 791.932 458.012 791.543 437.295C791.25 421.707 783.938 419.227 770.494 419.436C744.141 419.846 718.117 419.08 691.83 420.12C675.571 420.784 678.723 441.501 679.098 452.766C679.408 460.455 679.512 468.15 679.41 475.843C678.837 543.457 681.02 611.046 680.948 678.668C680.94 686.977 679.97 732.277 682.622 736.439C683.323 737.539 683.905 738.153 685.251 738.309C690.116 738.873 695.52 738.347 700.452 738.485C717.406 738.912 734.365 739.105 751.325 739.064C758.166 739.1 769.991 738.814 776.464 739.401C777.974 736.299 778.214 735.608 779.074 732.333C771.159 732.596 689.61 732.79 685.911 731.567L685.434 730.741L685.801 729.697L686.442 729.616L687.17 730.819C687.221 730.782 689.007 729.493 688.968 729.493C696.639 729.515 707.006 729.65 714.459 729.811C734.826 730.25 754.673 729.747 774.968 730.662C777.332 730.768 779.002 731.263 779.269 729.006C779.443 727.539 779.515 726.006 779.582 724.533C770.664 724.542 688.258 724.388 685.792 723.314L685.804 722.168C687.732 721.005 709.898 721.914 714.263 721.952L779.462 722.492L780.03 715.576C770.585 715.565 690.542 716.186 686.505 714.09C687.878 711.968 712.475 713.318 716.674 713.372C737.78 713.559 758.886 713.633 779.993 713.595C780.17 711.499 780.405 709.251 780.52 707.166L718.717 706.906C711.475 706.88 692.061 707.31 686.01 706.543L685.577 705.947L685.823 705.16C689.436 703.857 771.389 704.947 780.436 705.086L780.527 697.561C759.633 697.67 738.739 697.649 717.846 697.499C712.959 697.498 688.122 698.309 685.066 697.229C686.372 695.274 690.014 695.508 692.247 695.577C721.18 696.472 751.732 694.048 780.509 695.888L780.522 688.931C755.796 689.036 731.069 688.974 706.343 688.745C703.149 688.733 687.186 689.191 685.507 688.009L685.499 687.078C688.219 685.856 771.296 686.651 780.513 686.849L780.5 680.117C755.249 680.339 713.028 679.59 686.273 680.29C685.983 680.11 685.694 679.931 685.404 679.751L685.335 678.821C685.569 678.601 685.803 678.381 686.037 678.162C711.222 677.303 756.409 677.61 779.909 678.388L780.472 678.409L780.474 672.006C771.758 671.92 687.61 671.922 685.587 671.103L685.185 670.11C686.045 669.149 685.936 669.191 687.901 669.192C696.816 669.195 705.848 669.442 714.77 669.46C736.704 669.496 758.637 669.661 780.57 669.955L780.549 663.061L707.37 662.679C704.012 662.661 687.154 662.999 685.355 661.985L685.194 661.267C686.942 659.977 706.469 660.412 710.37 660.509C733.551 661.083 757.497 659.582 780.58 660.841L780.505 654.256C764.483 654.557 746.838 654.2 730.76 654.176C723.92 654.166 690.061 655.167 685.489 653.806L685.531 653.195C690.496 651.238 711.415 652.181 717.995 652.161C738.822 652.043 759.649 652.099 780.474 652.33L780.404 645.571L716.219 645.322C708.316 645.304 693.087 645.903 685.967 645.19L685.563 644.466L685.666 645.086L685.993 644.133C688.909 642.919 698.536 643.523 707.103 643.499C730.171 643.434 756.171 643.608 779.51 643.416C779.681 643.181 779.851 642.945 780.022 642.71C780.003 641.503 779.968 639.891 779.436 638.764C778.896 637.62 777.853 636.951 776.645 636.679C771.539 635.533 762.911 636.548 757.455 636.621C749.013 636.733 690.468 637.878 687.166 636.465C686.273 636.083 686.595 636.291 686.135 635.285C691.393 632.545 759.869 636.139 772.84 633.914L772.431 633.213C765.673 630.485 694.492 630.434 685.621 632.814C686.385 631.359 686.656 630.404 688.308 629.787C692.673 628.16 756.968 628.323 765.665 629.27C769.612 629.7 773.592 630.835 777.117 632.678C779.281 633.809 780.796 634.576 781.574 637.032C784.722 646.972 783.114 718.22 781.397 730.311C780.884 733.925 779.817 737.644 778.114 740.878C776.623 743.709 773.606 745.357 770.63 746.242C768.699 746.815 766.647 747.062 764.637 747.106C751.103 747.401 737.413 746.495 723.873 746.227C713.819 746.028 702.678 746.756 692.777 745.224C689.32 744.69 686.216 743.504 683.2 741.746C680.765 740.326 680.239 737.878 679.642 735.268C677.594 726.305 678.616 709.233 678.545 699.156L678.162 620.932L676.866 476.912C676.803 463.311 676.245 449.723 676.012 436.061C675.848 426.424 680.719 419.259 690.717 417.681C696.752 416.728 703.786 417.064 710.013 417.065L736.543 416.961C744.777 416.916 753.011 416.819 761.244 416.673C768.664 416.556 782.618 415.459 788.374 420.437C796.745 427.678 794.425 447.339 794.31 458.011C794.124 471.058 794.036 484.107 794.046 497.156C794.425 538.981 794.579 580.809 794.507 622.636C794.462 650.352 794.902 677.797 795.515 705.5C795.747 715.975 795.369 727.967 794.866 738.456C794.256 751.162 782.646 760.947 771.683 765.482C752.08 766.053 732.469 766.333 712.857 766.321C704.891 766.377 695.133 766.137 687.406 766.542C649.184 764.822 610.464 765.42 571.807 763.624L348.02 753.975C330.072 753.175 312.115 752.606 294.153 752.269C285.182 752.06 269.635 752.149 261.463 750.929C254.141 749.81 247.272 746.685 241.616 741.902C234.137 735.618 231.673 729.126 231.187 719.47C230.529 706.39 231.327 692.776 230.813 679.626L226.702 540.451L225.191 470.707C224.892 459.033 223.959 446.689 224.495 435.058C224.803 428.372 228.033 420.84 232.378 415.806C237.457 409.923 244.069 408.249 251.502 407.346C266.021 405.627 280.738 405.683 295.34 405.643L351.108 405.379L504.25 402.684L563.1 401.736C574.297 401.558 586.302 401.627 597.424 400.987C612.036 401.263 630.228 400.414 645.089 400.005L739.249 397.417C752.585 397.159 767.087 395.463 780.243 396.67C785.421 397.144 790.814 400.915 794.503 404.634C808.626 418.872 804.521 438.851 805.259 457.593L805.501 650.905L805.338 717.613C805.425 729.595 805.183 742.397 806.519 754.228C807.453 752.957 808.657 751.416 809.51 750.132C809.607 722.261 811.876 691.565 812.603 663.127C814.435 595.441 815.185 527.73 814.852 460.019C814.758 449.951 814.975 439.84 814.928 429.749C814.879 419.027 813.033 407.554 804.953 399.789C798.644 393.92 789.448 390.195 780.922 389.116C770.998 387.859 759.945 388.423 749.914 388.747C738.077 389.163 726.237 389.516 714.396 389.806C675.238 390.785 635.472 390.873 596.424 392.568ZM817.816 459.832C816.871 495.796 817.677 533.292 817.412 569.406C816.967 605.384 816.131 641.356 814.905 677.315C814.692 680.24 814.611 683.384 814.563 686.327C814.235 706.463 812.455 726.819 812.466 746.938C823.056 735.506 839.912 711.415 841.635 696.132C842.531 688.175 842.075 678.644 841.774 670.525C841.004 655.351 841.531 637.328 841.307 621.893C840.648 576.465 841.701 530.591 839.982 485.202C838.946 466.609 839.034 447.091 838.448 428.441C838.111 417.701 838.689 401.981 837.285 391.762C836.635 386.952 835.275 382.265 833.25 377.854C829.243 368.997 823.867 362.226 814.599 358.697C806.358 367.316 799.188 378.572 792.723 388.508C817.18 398.994 818.141 415.743 817.902 439.515C817.827 446.287 817.798 453.06 817.816 459.832ZM662.935 163.608C654.078 170.097 660.587 180.035 670.297 177.799C678.736 172.712 673.311 161.945 662.935 163.608ZM331.858 171.614C323.485 178.26 328.833 188.725 337.977 185.722C348.452 179.017 343.649 170.105 331.858 171.614ZM360.701 206.414C371.998 220.543 386.265 236.443 398.128 250.542L477.014 344.546C479.637 343.577 482.758 342.338 485.375 341.505L486.996 340.871C487.206 338.719 484.018 336.098 482.449 334.565C477.074 329.312 471.927 323.842 466.772 318.37L412.729 261.349L378.363 224.777C374.967 221.134 363.94 208.64 360.701 206.414ZM638.302 211.478C628.869 224.321 620.326 237.2 611.335 250.351L565.277 317.989C561.082 324.147 555.258 332.587 550.49 338.614C550.485 338.916 550.479 339.219 550.474 339.521C551.856 340.325 552.249 340.453 553.704 341.008L558.723 343.393C565.684 332.493 638.047 215.386 638.302 211.478ZM515.553 339.212C484.602 340.892 468.757 349.101 448.666 371.222C469.309 358.783 495.385 355.792 519.07 355.29C543.347 355.006 563.767 358.887 585.366 369.844C577.54 360.23 564.607 348.231 552.79 343.876C542.971 340.257 526.022 338.455 515.553 339.212ZM511.68 358.281C491.077 359.165 453.26 364.089 441.859 382.65C466.981 382.58 496.526 380.142 522.375 379.05C541.715 378.45 574 377.966 592.151 383.145C590.372 376.85 588.342 374.252 582.139 370.979C561.903 360.306 534.3 356.988 511.68 358.281ZM686.961 741.176C692.432 744.613 720.669 743.292 728.497 743.647C742.239 744.27 757.213 744.938 770.982 744.401C771.459 744.374 773.825 742.831 774.305 742.488L774.85 741.484C773.543 740.933 694.312 740.711 686.961 741.176ZM278.986 761.641C280.789 769.852 283.754 777.93 285.189 786.287C285.234 786.547 287.014 788.291 287.405 788.343C292.737 790.225 295.666 783.699 297.232 780.126C299.879 774.459 302.491 768.775 305.066 763.075L278.986 761.641ZM737.921 776.938C741.789 785.006 751.567 805.832 763.361 802.047C763.395 798.217 757.913 782.864 756.612 777.018C750.467 776.988 744.041 776.858 737.921 776.938Z" fill="#000100"/>
<path d="M670.298 177.799C660.588 180.035 654.079 170.097 662.936 163.608C673.312 161.945 678.737 172.712 670.298 177.799Z" fill="#FDFCFC"/>
<path d="M337.977 185.722C328.833 188.725 323.485 178.26 331.858 171.614C343.649 170.105 348.452 179.017 337.977 185.722Z" fill="#FDFCFC"/>
<path d="M806.749 202.137C805.886 195.707 803.634 186.816 808.479 181.394C817.717 171.056 851.834 175.91 850.911 193.421C849.928 212.053 844.351 227.491 834.952 243.477C828.387 251.559 820.258 256.727 809.818 257.965C789.536 260.369 772.84 241.444 752.591 249.148C740.116 253.895 731.105 266.732 732.479 280.234C732.702 282.429 733.126 284.598 733.745 286.714C734.726 289.179 737.178 293.359 733.775 294.659C730.983 293.692 730.622 291.661 729.569 289.104C729.493 287.415 728.581 282.665 728.369 280.37C727.66 272.679 730.042 264.461 734.448 258.148C738.103 252.983 742.997 248.819 748.681 246.038C773.412 233.975 788.959 257.953 812.961 253.514C821.586 251.919 828.437 246.095 833.136 238.86C841.357 225.195 847.193 208.086 846.849 192.156C846.59 180.191 816.544 175.928 811.108 185.646C807.387 192.299 811.799 202.743 813.225 209.688C811.652 216.358 809.015 221.978 803.037 225.663C796.347 229.788 785.761 230.283 778.303 227.784C761.484 222.15 747.518 213.093 729.972 223.308C708.018 236.09 701.195 266.498 713.799 288.241C714.93 290.197 717.878 294.194 719.58 295.523C720.043 297.647 720.252 296.758 719.377 298.358C717.658 298.858 716.75 298.519 715.302 297.493C714.364 295.548 712.341 292.906 711.12 291.017C692.39 262.051 710.682 213.496 748.625 214.775C764.745 215.319 780.864 229.301 796.426 224.158C801.37 222.478 805.388 218.81 807.512 214.04C809.548 209.514 808.315 206.391 806.749 202.137Z" fill="#FDFCFC"/>
<path d="M813.223 209.688C811.797 202.743 807.384 192.299 811.105 185.646C816.541 175.928 846.587 180.191 846.846 192.156C847.19 208.086 841.354 225.195 833.133 238.86C826.102 226.34 822.073 221.097 813.223 209.688Z" fill="#FFEDE1"/>
<path d="M477.012 344.546L398.126 250.542C386.263 236.443 371.996 220.543 360.699 206.414C363.938 208.64 374.965 221.134 378.361 224.777L412.727 261.349L466.77 318.37C471.925 323.842 477.072 329.312 482.447 334.565C484.016 336.098 487.204 338.719 486.994 340.871L485.373 341.505C482.756 342.338 479.635 343.577 477.012 344.546Z" fill="#F9E0F4"/>
<path d="M813.222 209.688C822.072 221.097 826.102 226.34 833.133 238.86C828.434 246.095 821.583 251.919 812.958 253.514C788.956 257.953 773.409 233.975 748.678 246.038C742.994 248.819 738.1 252.983 734.445 258.148C730.039 264.461 727.657 272.679 728.366 280.37C728.578 282.665 729.49 287.415 729.566 289.104C726.472 290.631 721.301 292.725 719.577 295.523C717.875 294.194 714.927 290.197 713.796 288.241C701.192 266.498 708.015 236.09 729.969 223.308C747.515 213.093 761.481 222.15 778.3 227.784C785.758 230.283 796.344 229.788 803.034 225.663C809.012 221.978 811.649 216.358 813.222 209.688Z" fill="#FBF8CC"/>
<path d="M553.703 341.008C552.248 340.453 551.855 340.325 550.473 339.521C550.478 339.219 550.484 338.916 550.489 338.614C555.257 332.587 561.081 324.147 565.276 317.989L611.334 250.351C620.325 237.2 628.868 224.321 638.301 211.478C638.046 215.386 565.683 332.493 558.722 343.393L553.703 341.008Z" fill="#FFEDE1"/>
<path d="M834.951 243.477C839.335 247.232 843.943 266.023 844.344 271.734C835.984 269.988 827.402 268.194 818.861 267.855C789.694 266.696 760.138 275.041 733.744 286.714C733.125 284.598 732.701 282.429 732.478 280.234C731.104 266.732 740.115 253.895 752.59 249.148C772.839 241.444 789.535 260.369 809.817 257.965C820.257 256.727 828.386 251.559 834.951 243.477Z" fill="#FBF8CC"/>
<path d="M403.382 260.704C408.187 266.267 413.165 272.9 417.573 278.842C413.457 280.404 402.362 274.625 397.625 272.7C398.908 269.475 401.692 263.581 403.382 260.704Z" fill="#FBF8CC"/>
<path d="M117.965 423.982C123.005 401.12 127.918 387.836 138.28 367.124C156.813 330.079 185.665 309.709 221.615 291.953C274.233 265.965 340.386 254.292 397.064 272.84C390.388 295.662 388.575 324.769 391.357 348.206C391.722 351.284 392.187 358.4 392.987 360.911L321.28 362.836C318.015 362.935 294.917 363.427 293.219 364.345C275.387 373.982 257.999 384.928 240.309 395.026C226.666 402.815 215.814 415.079 214.191 431.269C213.592 437.241 214.017 444.265 214.198 450.357C214.537 460.146 214.804 469.936 214.998 479.728C215.721 531.042 217.886 582.985 218.079 634.05C210.356 627.081 197.436 617.901 188.95 611.58C158.637 589.002 142.073 572.421 125.133 538.428C123.066 532.703 121.841 526.347 119.927 520.36C121.927 519.947 124.841 518.266 126.616 517.137C137.529 510.058 145.206 498.956 147.977 486.246C152.338 465.827 146.571 435.074 125.052 425.935C122.826 424.99 120.329 424.475 117.965 423.982Z" fill="#A3C4F3"/>
<path d="M733.745 286.714C760.139 275.041 789.695 266.696 818.862 267.855C827.403 268.194 835.985 269.988 844.345 271.734C859.093 275.12 889.709 284.708 901.743 293.276C912.48 300.922 931.383 324.551 938.444 336.439C964.172 379.751 963.61 431.216 951.869 478.748C945.204 505.728 938.427 521.037 925.641 545.69C922.616 551.525 903.294 581.656 902.852 583.848L902.571 583.861C901.768 579.418 898.371 569.862 896.722 565.308C885.076 533.155 869.037 511.446 843.994 488.613L842.2 422.039C841.88 410.962 842.381 394.511 839.72 384.349C834.416 366.979 824.242 355.282 805.639 353.331C784.704 351.135 764.702 352.448 743.93 353.053C716.506 353.902 689.075 354.546 661.641 354.985C663.71 353.922 672.363 339.885 674.8 336.748C681.844 327.679 706.085 301.341 715.302 297.493C716.75 298.519 717.658 298.858 719.377 298.358C720.252 296.758 720.043 297.647 719.58 295.523C721.304 292.725 726.475 290.631 729.569 289.104C730.622 291.661 730.983 293.692 733.775 294.659C737.178 293.359 734.726 289.179 733.745 286.714ZM892.526 318.163C869.358 321.334 831.564 347.186 860.694 369.944C865.262 373.513 873.304 376.1 874.646 382.491C875.995 388.917 870.199 393.562 865.74 396.899C858.545 402.282 855.188 409.976 856.742 418.891C859.017 435.239 871.595 439.709 877.777 452.391L879.304 455.495C880.127 454.881 881.752 454.093 881.619 452.798C880.924 446.061 876.285 441.591 871.487 436.891C864.638 430.305 861.454 424.59 861.036 414.951C859.857 398.999 880.996 398.514 879.524 383.072C878.653 373.936 869.074 371.056 862.789 366.169C852.895 358.477 852.213 350.206 859.974 340.635C866.06 333.069 874.283 327.512 883.572 324.687C886.643 323.779 893.183 322.9 893.926 320.499L893.376 318.513L892.526 318.163ZM902.048 321.607C891.253 324.302 880.074 330.398 874.053 339.73C864.535 354.483 875.863 366.406 886.778 375.257C889.02 377.345 892.063 381.539 892.291 384.712C893.599 402.91 872.64 401.97 875.682 422.686C877.715 436.533 899.029 445.294 895.047 458.469C893.28 464.318 880.401 463.176 876.822 465.06L876.648 465.83C880.513 469.78 891.966 468.706 895.852 464.38C910.885 447.761 883.361 437.257 880.375 422.014C876.858 404.058 898.922 403.417 897.144 385.828C895.875 373.277 887.649 371.655 880.599 363.882C864.459 346.087 887.672 327.864 904.448 325.007C905.329 324.853 906.475 325.033 907.355 325.16L908.105 325.926C907.036 330.514 885.441 345.381 893.435 358.267C895.261 361.21 899.251 364.418 901.992 366.647C909.175 372.651 921.222 380.004 921.777 390.062C921.999 403.093 906.867 408.173 905.131 420.771C902.876 437.137 927.398 443.512 921.703 461.326C910.871 495.206 880.147 475.309 861.148 465.469C869.496 476.107 883.185 482.668 895.909 484.68C919.571 488.422 936.859 455.453 919.907 439.552C891.825 413.209 929.709 412.453 925.434 387.324C922.603 370.685 901.214 366.613 896.2 351.794C898.546 344.193 901.905 340.208 907.139 334.306C909.659 331.465 913.167 328.003 912.273 323.948C909.917 320.443 905.808 321.393 902.048 321.607Z" fill="#B9FBC0"/>
<path d="M397.064 272.84L397.625 272.7C402.362 274.625 413.457 280.404 417.573 278.842C428.951 292.408 440.405 305.909 451.934 319.346C459.142 327.651 467.996 337.184 474.714 345.675C466.483 350.428 462.589 353.649 455.317 359.554C435.717 359.471 412.654 360.056 392.987 360.911C392.187 358.4 391.722 351.284 391.357 348.206C388.575 324.769 390.388 295.662 397.064 272.84Z" fill="#FBA9BD"/>
<path d="M879.302 455.495L877.775 452.391C871.593 439.709 859.015 435.239 856.74 418.891C855.186 409.976 858.543 402.282 865.738 396.899C870.197 393.562 875.993 388.917 874.644 382.491C873.302 376.1 865.26 373.513 860.692 369.944C831.562 347.186 869.356 321.334 892.524 318.163L893.374 318.513L893.924 320.499C893.181 322.9 886.641 323.779 883.57 324.687C874.281 327.512 866.058 333.069 859.972 340.635C852.211 350.206 852.893 358.477 862.787 366.169C869.072 371.056 878.651 373.936 879.522 383.072C880.994 398.514 859.855 398.999 861.034 414.951C861.452 424.59 864.636 430.305 871.485 436.891C876.283 441.591 880.922 446.061 881.617 452.798C881.75 454.093 880.125 454.881 879.302 455.495Z" fill="#FDFCFC"/>
<path d="M901.989 366.647C899.248 364.418 895.258 361.21 893.432 358.267C885.438 345.381 907.033 330.514 908.102 325.926L907.352 325.16C906.472 325.033 905.326 324.853 904.445 325.007C887.669 327.864 864.456 346.087 880.596 363.882C887.646 371.655 895.872 373.277 897.141 385.828C898.919 403.417 876.855 404.058 880.372 422.014C883.358 437.257 910.882 447.761 895.849 464.38C891.963 468.706 880.51 469.78 876.645 465.83L876.819 465.06C880.398 463.176 893.277 464.318 895.044 458.469C899.026 445.294 877.712 436.533 875.679 422.686C872.637 401.97 893.596 402.91 892.288 384.712C892.06 381.539 889.017 377.345 886.775 375.257C875.86 366.406 864.532 354.483 874.05 339.73C880.071 330.398 891.25 324.302 902.045 321.607C905.805 321.393 909.914 320.443 912.27 323.948C913.164 328.003 909.656 331.465 907.136 334.306C901.902 340.208 898.543 344.193 896.197 351.794C901.211 366.613 922.6 370.685 925.431 387.324C929.706 412.453 891.822 413.209 919.904 439.552C936.856 455.453 919.568 488.422 895.906 484.68C883.182 482.668 869.493 476.107 861.145 465.469C880.144 475.309 910.868 495.206 921.7 461.326C927.395 443.512 902.873 437.137 905.128 420.771C906.864 408.173 921.996 403.093 921.774 390.062C921.219 380.004 909.172 372.651 901.989 366.647Z" fill="#FDFCFC"/>
<path d="M448.664 371.222C468.755 349.101 484.6 340.892 515.551 339.212C526.02 338.455 542.969 340.257 552.788 343.876C564.605 348.231 577.538 360.23 585.364 369.844C563.765 358.887 543.345 355.006 519.068 355.29C495.383 355.792 469.307 358.783 448.664 371.222Z" fill="#FDFCFC"/>
<path d="M657.154 358.314C673.32 357.421 692.07 357.718 708.717 357.198L747.906 356.034C765.165 355.451 795.412 354.161 810.974 357.66C802.376 367.956 796.473 376.129 789.636 387.819C775.733 384.879 764.378 385.758 750.324 386.032C715.699 386.708 680.844 388.375 646.23 388.526C647.768 382.063 658.445 361.705 658.318 358.848L657.154 358.314Z" fill="url(#paint0_linear_31_2427)"/>
<path d="M441.859 382.65C453.26 364.089 491.077 359.165 511.68 358.281C534.3 356.988 561.903 360.306 582.139 370.979C588.342 374.252 590.372 376.85 592.151 383.145C574 377.966 541.715 378.45 522.375 379.05C496.526 380.142 466.981 382.58 441.859 382.65Z" fill="#F9E0F4"/>
<path d="M580.609 360.405C606.115 359.452 631.631 358.755 657.152 358.314L658.316 358.848C658.443 361.705 647.766 382.063 646.228 388.526C629.11 388.607 612.032 389.366 594.912 389.664C594.901 388.413 594.782 388.744 595.159 387.619C599.587 379.372 585.741 365.787 580.609 360.405Z" fill="#FBF8CC"/>
<path d="M817.816 459.832C817.798 453.06 817.827 446.287 817.902 439.515C818.141 415.743 817.18 398.994 792.723 388.508C799.188 378.572 806.358 367.316 814.599 358.697C823.867 362.226 829.243 368.997 833.25 377.854C835.275 382.265 836.635 386.952 837.285 391.762C838.689 401.981 838.111 417.701 838.448 428.441C839.034 447.091 838.946 466.609 839.982 485.202C836.813 483.814 827.088 474.254 824.174 471.343C818.266 465.439 817.983 467.262 817.816 459.832Z" fill="#B9FBC0"/>
<path d="M393.809 364.004C412.079 363.2 434.379 362.354 452.637 362.441C447.972 367.461 439.562 377.477 438.36 384.357L438.753 385.657C441.2 386.411 459.284 384.86 463.467 384.679C490.141 383.525 516.853 381.131 543.586 381.496C561.082 381.735 578.593 381.306 595.162 387.619C594.785 388.744 594.904 388.413 594.915 389.664C589.376 390.407 579.734 390.408 573.927 390.49L541.886 390.985L463.641 392.447C443.489 392.698 422.518 392.657 402.441 393.386C398.242 381.772 396.672 376.263 393.809 364.004Z" fill="#FBA9BD"/>
<path d="M242.699 397.085C246.151 394.604 292.673 367.686 294.04 367.522C315.685 364.921 371.041 365.382 393.808 364.004C396.671 376.263 398.241 381.772 402.44 393.386C349.174 393.603 295.918 394.836 242.699 397.085Z" fill="#A3C4F3"/>
<path d="M596.426 392.568C635.474 390.873 675.24 390.785 714.398 389.806C726.239 389.516 738.079 389.163 749.916 388.747C759.947 388.423 771 387.859 780.924 389.116C789.45 390.195 798.646 393.92 804.955 399.789C813.035 407.554 814.881 419.027 814.93 429.749C814.977 439.84 814.76 449.951 814.854 460.019L814.253 459.136C811.36 458.803 808.209 458.065 805.261 457.593C804.523 438.851 808.628 418.872 794.505 404.634C790.816 400.915 785.423 397.144 780.245 396.67C767.089 395.463 752.587 397.159 739.251 397.417L645.091 400.005C630.23 400.414 612.038 401.263 597.426 400.987L597.454 400.664C598.663 399.677 601.894 400.738 604.619 399.899C604.316 397.531 603.723 395.723 604.934 393.591L604.672 393.071C601.791 393.065 599.263 393.172 596.426 392.568Z" fill="#B9FBC0"/>
<path d="M571.823 771.997C549.217 771.779 521.76 769.987 499.001 769.006L355.104 762.422L286.419 759.309C276.269 758.808 263.527 758.806 253.763 757.046C238.984 754.383 225.825 741.159 223.924 726.193C222.017 711.175 222.012 696.746 221.742 681.812L220.486 620.991L217.504 474.489C217.334 460.138 215.234 438.234 218.297 424.518C221.018 412.336 233.427 400.659 246.19 399.487C260.534 398.17 275.791 398.018 290.718 397.704L378.751 396.341L520.095 394.078L567.332 393.174C576.647 392.949 587.231 392.365 596.425 392.568C599.262 393.172 601.79 393.065 604.671 393.071L604.933 393.591C603.722 395.723 604.315 397.531 604.618 399.899C601.893 400.738 598.662 399.677 597.453 400.664L597.425 400.987C586.303 401.627 574.298 401.558 563.101 401.736L504.251 402.684L351.109 405.379L295.341 405.643C280.739 405.683 266.022 405.627 251.503 407.346C244.07 408.249 237.458 409.923 232.379 415.806C228.034 420.84 224.804 428.372 224.496 435.058C223.96 446.689 224.893 459.033 225.192 470.707L226.703 540.451L230.814 679.626C231.328 692.776 230.53 706.39 231.188 719.47C231.674 729.126 234.138 735.618 241.617 741.902C247.273 746.685 254.142 749.81 261.464 750.929C269.636 752.149 285.183 752.06 294.154 752.269C312.116 752.606 330.073 753.175 348.021 753.975L571.808 763.624C572.883 764.103 573.607 764.388 574.759 764.619C575.613 766.172 574.671 770.185 573.471 771.461C573.225 771.722 572.23 771.91 571.823 771.997Z" fill="#FFCFD2"/>
<path d="M637.911 402.939C648.267 401.829 663.718 402.696 675.065 402.203C697.791 401.11 720.528 400.273 743.272 399.694C754.666 399.366 768.07 398.461 779.044 399.507C792.085 400.751 802.082 417.721 802.211 429.977C802.292 437.729 802.511 445.198 802.507 452.898L802.5 490.554L802.609 610.036C802.531 658.747 801.733 707.519 803.391 756.192C803.51 759.687 801.797 763.031 799.628 765.649C792.393 774.383 780.917 773.974 770.695 773.451C768.021 772.699 766.171 772.74 765.352 769.66C767.75 765.824 769.451 767.539 771.685 765.482C782.648 760.947 794.258 751.162 794.868 738.456C795.371 727.967 795.749 715.975 795.517 705.5C794.904 677.797 794.464 650.352 794.509 622.636C794.581 580.809 794.427 538.981 794.048 497.156C794.038 484.107 794.126 471.058 794.312 458.011C794.427 447.339 796.747 427.678 788.376 420.437C782.62 415.459 768.666 416.556 761.246 416.673C753.013 416.819 744.779 416.916 736.545 416.961L710.015 417.065C703.788 417.064 696.754 416.728 690.719 417.681C680.721 419.259 675.85 426.424 676.014 436.061C676.247 449.723 676.805 463.311 676.868 476.912L678.164 620.932L678.547 699.156C678.618 709.233 677.596 726.305 679.644 735.268C680.241 737.878 680.767 740.326 683.202 741.746C686.218 743.504 689.322 744.69 692.779 745.224C702.68 746.756 713.821 746.028 723.875 746.227C737.415 746.495 751.105 747.401 764.639 747.106C766.649 747.062 768.701 746.815 770.632 746.242C773.608 745.357 776.625 743.709 778.116 740.878C779.819 737.644 780.885 733.925 781.398 730.311C783.115 718.22 784.724 646.972 781.576 637.032C780.798 634.576 779.283 633.809 777.119 632.678C773.594 630.835 769.614 629.7 765.667 629.27C756.97 628.323 692.675 628.16 688.31 629.787C686.658 630.404 686.386 631.359 685.622 632.814L684.901 633.328C685.127 634.849 685.153 635.511 685.638 636.982C688.238 638.264 709.063 637.474 713.545 637.505C734.74 637.651 756.068 637.464 777.255 637.585C778.069 637.589 779.39 641.816 780.023 642.71C779.852 642.945 779.683 643.181 779.512 643.416C756.173 643.608 730.173 643.434 707.105 643.499C698.538 643.523 688.911 642.919 685.995 644.133L685.668 645.086L685.565 644.466L685.969 645.19C693.089 645.903 708.318 645.304 716.221 645.322L780.406 645.571L780.476 652.33C759.651 652.099 738.824 652.043 717.997 652.161C711.417 652.181 690.498 651.238 685.533 653.195L685.491 653.806C690.063 655.167 723.922 654.166 730.762 654.176C746.84 654.2 764.485 654.557 780.507 654.256L780.582 660.841C757.499 659.582 733.553 661.083 710.372 660.509C706.471 660.412 686.943 659.977 685.195 661.267L685.357 661.985C687.156 662.999 704.014 662.661 707.372 662.679L780.551 663.061L780.572 669.955C758.639 669.661 736.706 669.496 714.772 669.46C705.85 669.442 696.818 669.195 687.903 669.192C685.938 669.191 686.047 669.149 685.187 670.11L685.589 671.103C687.612 671.922 771.76 671.92 780.476 672.006L780.474 678.409L779.911 678.388C756.411 677.61 711.224 677.303 686.039 678.162C685.805 678.381 685.571 678.601 685.337 678.821L685.406 679.751C685.696 679.931 685.985 680.11 686.275 680.29C713.03 679.59 755.251 680.339 780.502 680.117L780.515 686.849C771.298 686.651 688.221 685.856 685.501 687.078L685.509 688.009C687.188 689.191 703.151 688.733 706.345 688.745C731.071 688.974 755.797 689.036 780.523 688.931L780.51 695.888C751.733 694.048 721.182 696.472 692.249 695.577C690.016 695.508 686.374 695.274 685.068 697.229C688.124 698.309 712.961 697.498 717.848 697.499C738.741 697.649 759.635 697.67 780.529 697.561L780.438 705.086C771.391 704.947 689.438 703.857 685.825 705.16L685.579 705.947L686.012 706.543C692.063 707.31 711.477 706.88 718.719 706.906L780.522 707.166C780.407 709.251 780.172 711.499 779.995 713.595C758.888 713.633 737.782 713.559 716.676 713.372C712.477 713.318 687.88 711.968 686.507 714.09C690.544 716.186 770.587 715.565 780.032 715.576L779.464 722.492L714.265 721.952C709.9 721.914 687.734 721.005 685.806 722.168L685.794 723.314C688.26 724.388 770.665 724.542 779.583 724.533C779.516 726.006 779.445 727.539 779.271 729.006C779.004 731.263 777.334 730.768 774.97 730.662C754.675 729.747 734.828 730.25 714.461 729.811C707.008 729.65 696.641 729.515 688.97 729.493C689.009 729.493 687.223 730.782 687.172 730.819L686.444 729.616L685.803 729.697L685.436 730.741L685.913 731.567C689.612 732.79 771.161 732.596 779.076 732.333C778.216 735.608 777.976 736.299 776.466 739.401C769.993 738.814 758.168 739.1 751.327 739.064C734.367 739.105 717.408 738.912 700.454 738.485C695.522 738.347 690.118 738.873 685.253 738.309C683.907 738.153 683.325 737.539 682.624 736.439C679.972 732.277 680.942 686.977 680.95 678.668C681.022 611.046 678.838 543.457 679.411 475.843C679.513 468.15 679.41 460.455 679.1 452.766C678.725 441.501 675.573 420.784 691.832 420.12C718.119 419.08 744.143 419.846 770.496 419.436C783.94 419.227 791.252 421.707 791.545 437.295C791.934 458.012 791.194 478.824 791.164 499.537L791.575 624.613C791.606 639.068 791.75 653.523 792.006 667.976C792.482 685.557 793.017 702.88 792.634 720.485C792.481 727.501 792.816 735.429 791.034 742.229C789.125 749.509 782.703 756.469 776.128 759.926C767.36 764.534 736.357 762.692 725.363 762.792C684.54 763.291 643.712 763.015 602.9 761.962C518.258 759.031 433.637 755.519 349.043 751.426C332.04 750.699 315.031 750.124 298.017 749.701C286.827 749.411 275.191 749.511 264.162 748.771C248.922 747.749 234.218 735.828 233.739 719.887C233.369 707.597 233.749 695.515 233.38 683.354L229.236 526.107L228.271 485.699C227.977 475.901 225.875 435.571 228.562 428.082C232.258 425.634 231.506 418.189 239.733 415.687C242.832 418.07 238.419 416.613 242.38 419.027C238.104 425.547 237.327 427.212 244.681 432.87C245.269 433.322 245.815 433.37 246.528 433.429C249.05 432.584 249.797 429.811 252.449 428.291L252.661 428.98C250.905 431.013 250.33 430.687 250.425 432.572C243.087 445.102 241.084 455.363 240.477 469.882C239.747 487.347 241.167 504.864 241.756 522.329L245.629 627.853C246.198 643.444 246.497 659.045 246.527 674.647C246.512 688.35 243.946 711.094 252.4 722.079C256.188 727.001 267.722 733.803 274.059 734.216C317.668 737.059 361.521 737.969 405.226 739.279C474.765 741.172 543.647 747.401 613.161 748.4C624.099 747.915 636.278 749.462 646.961 746.882C661.764 743.307 664.74 735.081 665.093 721.976C666.49 648.507 665.78 575.013 662.963 501.585C662.436 486.89 662.089 472.189 661.924 457.486C661.833 448.584 662.135 438.955 661.301 430.172C660.356 420.234 652.121 414.441 642.687 414.385C643.835 414.088 643.352 414.34 644.174 413.71L644.218 414.035L645.095 413.66C638.316 413.193 626.233 414.297 618.712 414.438C587.374 415.058 555.986 416.449 524.659 417.48C521.644 417.579 515.522 416.986 512.434 416.597L512.432 415.927C514.805 416.278 514.672 414.773 516.683 414.849C518.25 414.908 517.872 416.232 519.943 416.278C521.548 412.637 518.585 410.177 521.657 406.298L522.004 406.262L521.992 406.767C523.233 407.43 525.042 408.207 526.402 408.529C527.181 407.269 526.974 407.949 526.949 406.393C526.024 406.564 525.137 406.699 524.206 406.838L525.757 406.681L524.744 407.045C523.729 406.47 524.089 406.892 523.698 405.751C527.394 404.135 539.431 407.192 544.935 405.549C548.001 404.633 556.856 405.108 560.246 405.435C563.604 406.062 568.477 404.249 569.743 407.478L568.663 409.457C569.787 410.294 570.278 410.559 571.583 411.073C571.944 411.687 571.792 412.633 571.795 413.485L572.392 413.932L580.546 411.514L580.353 411.752L584.176 410.418C584.153 408.953 584.198 409.631 583.118 408.091C583.688 408.037 583.648 408.1 584.14 407.782C586.314 406.379 588.365 406.877 591.255 406.56L591.648 405.984C589.85 404.693 585.397 404.843 583.001 404.758L582.995 404.493C602.999 404.61 623.003 404.265 642.992 403.457L637.911 402.939ZM731.622 463.137C707.415 463.569 688.148 483.553 688.599 507.759C689.05 531.966 709.048 551.218 733.254 550.749C757.434 550.281 776.662 530.309 776.212 506.128C775.761 481.948 755.803 462.705 731.622 463.137ZM707.04 576.765C700.077 577.151 693.862 581.259 690.78 587.515C687.697 593.77 688.224 601.201 692.161 606.958C696.097 612.714 702.831 615.902 709.779 615.299C720.29 614.386 728.125 605.208 727.377 594.684C726.629 584.16 717.575 576.182 707.04 576.765ZM757.224 576.472C746.458 576.96 738.15 586.124 738.717 596.886C739.284 607.648 748.509 615.888 759.267 615.241C769.913 614.601 778.048 605.493 777.487 594.843C776.926 584.193 767.878 575.99 757.224 576.472Z" fill="url(#paint1_linear_31_2427)"/>
<path d="M562.634 404.476C567.398 403.862 586.179 403.757 591.642 403.744C606.764 403.706 623.014 402.731 637.907 402.939L642.988 403.457C622.999 404.265 602.995 404.61 582.991 404.493L582.997 404.758C585.393 404.843 589.846 404.693 591.644 405.984L591.251 406.56C588.361 406.877 586.31 406.379 584.136 407.782C583.644 408.1 583.684 408.037 583.114 408.091C584.194 409.631 584.149 408.953 584.172 410.418L580.349 411.752L580.542 411.514L572.388 413.932L571.791 413.485C571.788 412.633 571.941 411.687 571.58 411.073C570.275 410.559 569.783 410.294 568.659 409.457L569.739 407.478C568.473 404.249 563.6 406.062 560.242 405.435L562.634 404.476Z" fill="#F9E0F4"/>
<path d="M509.941 405.424C514.07 404.917 522.529 404.922 526.911 404.808C538.816 404.479 550.727 404.369 562.636 404.476L560.244 405.435C556.854 405.108 547.999 404.633 544.933 405.549C539.429 407.192 527.392 404.135 523.696 405.751C524.087 406.892 523.727 406.47 524.742 407.045L525.755 406.681L524.204 406.838C525.135 406.699 526.022 406.564 526.947 406.393C526.972 407.949 527.179 407.269 526.4 408.529C525.04 408.207 523.231 407.43 521.99 406.767L522.002 406.262L521.655 406.298C517.743 406.114 513.837 405.822 509.941 405.424Z" fill="#F9E0F4"/>
<path d="M228.559 428.082C230.916 416.213 241.259 410.975 252.256 409.921C271.342 408.09 290.311 408.421 309.449 408.339L378.869 407.468L461.337 406.114C475.497 405.81 496.066 404.706 509.94 405.424C513.836 405.822 517.742 406.114 521.654 406.298C518.582 410.177 521.545 412.637 519.94 416.278C517.869 416.232 518.247 414.908 516.68 414.849C514.669 414.773 514.802 416.278 512.429 415.927L512.431 416.597C515.519 416.986 521.641 417.579 524.656 417.48C555.983 416.449 587.371 415.058 618.709 414.438C626.23 414.297 638.313 413.193 645.092 413.66L644.215 414.035L644.171 413.71C643.349 414.34 643.832 414.088 642.684 414.385C593.32 416.235 543.944 417.734 494.56 418.881L368.12 420.348C346.704 420.8 324.926 420.111 303.713 420.744C287.169 421.238 266.566 418.273 253.666 429.602C252.85 430.319 251.047 432.203 250.422 432.572C250.327 430.687 250.902 431.013 252.658 428.98L252.446 428.291C249.794 429.811 249.047 432.584 246.525 433.429C245.812 433.37 245.266 433.322 244.678 432.87C237.324 427.212 238.101 425.547 242.377 419.027C238.416 416.613 242.829 418.07 239.73 415.687C231.503 418.189 232.255 425.634 228.559 428.082Z" fill="#F9E0F4"/>
<path d="M250.421 432.572C251.046 432.203 252.849 430.319 253.665 429.602C266.565 418.273 287.168 421.238 303.712 420.744C324.925 420.111 346.703 420.8 368.119 420.348L494.559 418.881C543.943 417.734 593.319 416.235 642.683 414.385C652.117 414.441 660.352 420.234 661.297 430.172C662.131 438.955 661.83 448.584 661.921 457.486C662.086 472.189 662.432 486.89 662.959 501.585C665.776 575.013 666.486 648.507 665.089 721.976C664.736 735.081 661.76 743.307 646.957 746.882C636.274 749.462 624.095 747.915 613.157 748.4C543.643 747.401 474.761 741.172 405.222 739.279C361.517 737.969 317.664 737.059 274.055 734.216C267.718 733.803 256.184 727.001 252.396 722.079C243.942 711.094 246.508 688.35 246.523 674.647C246.493 659.045 246.194 643.444 245.625 627.853L241.752 522.329C241.163 504.864 239.743 487.347 240.473 469.882C241.08 455.363 243.083 445.102 250.421 432.572ZM616.356 417.847C596.235 417.994 576.445 419.122 556.377 419.652C510.908 421.193 465.421 422.087 419.927 422.334L331.813 423.097C312.675 423.175 293.892 423.029 274.671 424.239C247.316 424.949 243.005 453.64 242.76 475.425C242.547 494.387 243.142 515.706 244.667 534.802C246.561 558.507 244.878 586.477 247.542 609.683C247.507 610.477 247.451 611.447 247.482 612.237C248.151 629.436 248.769 646.768 248.946 663.98L249.17 692.468C249.261 703.548 247.828 714.298 256.517 722.58C261.568 727.344 267.948 730.46 274.811 731.516C279.203 732.147 283.411 732.222 287.8 732.497C339.607 735.742 391.437 735.467 443.281 737.718C507.395 740.47 571.719 746.347 635.918 745.451C649.534 745.261 661.495 741.083 662.366 726.448C662.936 716.873 662.812 706.624 662.812 697.086L662.952 650.068C663.109 578.634 661.6 507.205 658.427 435.841C657.371 412.629 633.575 417.032 616.356 417.847Z" fill="#000100"/>
<path d="M616.357 417.847C633.576 417.032 657.373 412.629 658.429 435.841C661.602 507.205 663.11 578.634 662.953 650.068L662.814 697.086C662.814 706.624 662.937 716.873 662.367 726.448C661.496 741.083 649.535 745.261 635.919 745.451C571.72 746.347 507.396 740.47 443.283 737.718C391.438 735.467 339.609 735.742 287.802 732.497C283.413 732.222 279.204 732.147 274.812 731.516C267.949 730.46 261.57 727.344 256.519 722.58C247.83 714.298 249.263 703.548 249.172 692.468L248.948 663.98C248.771 646.768 248.153 629.436 247.484 612.237C247.453 611.447 247.509 610.477 247.544 609.683C248.328 606.378 247.57 592.337 247.429 587.982L245.968 546.692C245.832 543.566 245.003 535.77 245.652 533.316C245.884 534.972 245.793 535.252 246.699 536.675C249.553 534.972 255.394 531.867 258.711 531.895C258.471 532.979 257.263 534.312 256.519 535.314L256.729 536.325L257.687 536.318L258.228 535.995C259.982 534.962 262.068 533.616 264.141 534.162L264.76 535.976L264.216 536.877C262.954 536.307 263.615 536.494 262.13 536.628C259.289 539.183 260.596 541.751 262.049 544.465L262.596 544.604L262.915 542.125C264.687 545.274 263.583 559.672 263.566 564.038C263.628 574.377 263.959 584.713 264.558 595.035C264.763 598.747 264.51 604.339 266.096 607.548C269.189 629.544 268.787 653.116 275.734 674.719C283.313 698.288 308.576 703.136 330.01 707.115C339.013 708.82 348.06 710.289 357.14 711.521C410.195 718.773 463.498 723.36 517.609 719.359C548.274 717.093 597.235 713.414 624.818 696.553C636.606 689.347 640.349 658.899 642.091 645.259C643.839 631.778 644.854 618.213 645.133 604.623C645.479 571.724 643.444 538.844 639.043 506.24C637.684 495.927 636.139 484.608 633.439 474.583C625.562 445.334 585.658 441.995 560.159 439.237C561.552 438.335 561.527 437.532 563.327 437C571.582 434.564 626.078 423.114 628.211 418.256C626.332 417.604 618.826 417.855 616.357 417.847Z" fill="#90DBF4"/>
<path d="M247.543 609.683C244.879 586.477 246.562 558.507 244.668 534.802C243.143 515.706 242.548 494.387 242.761 475.425C243.006 453.64 247.317 424.949 274.672 424.239C293.893 423.029 312.676 423.175 331.814 423.097L419.928 422.334C465.422 422.087 510.909 421.193 556.378 419.652C576.446 419.122 596.236 417.994 616.357 417.847C618.826 417.855 626.332 417.604 628.211 418.256C626.078 423.114 571.581 434.564 563.326 437C561.526 437.532 561.551 438.335 560.158 439.237C539.124 437.513 518.091 435.117 497.002 434.186C442.883 431.797 352.732 431.448 302.825 450.41C296.637 452.761 290.085 455.25 284.954 459.548C270.489 471.669 267.173 512.12 265.745 530.379C263.717 556.313 265.109 581.651 266.095 607.548C264.509 604.339 264.762 598.747 264.557 595.035C263.958 584.713 263.627 574.377 263.565 564.038C263.582 559.672 264.687 545.274 262.915 542.125L262.595 544.604L262.048 544.465C260.595 541.751 259.288 539.183 262.129 536.628C263.614 536.494 262.953 536.307 264.215 536.877L264.759 535.976L264.14 534.162C262.067 533.616 259.981 534.962 258.227 535.995L257.687 536.318L256.728 536.325L256.518 535.314C257.262 534.312 258.47 532.979 258.71 531.895C255.393 531.867 249.552 534.972 246.698 536.675C245.792 535.252 245.883 534.972 245.651 533.316C245.002 535.77 245.831 543.566 245.967 546.692L247.428 587.982C247.569 592.337 248.327 606.378 247.543 609.683Z" fill="#F1C0E8"/>
<path d="M119.927 520.36C100.374 526.608 87.2706 514.11 79.1397 497.789C68.7167 476.868 75.2961 448.323 92.239 432.725C99.8605 425.708 107.987 423.874 117.965 423.982C120.329 424.475 122.826 424.99 125.052 425.935C146.571 435.074 152.338 465.827 147.977 486.246C145.206 498.956 137.529 510.058 126.616 517.137C124.841 518.266 121.927 519.947 119.927 520.36ZM116.822 427.825C106.738 428.109 100.357 429.905 93.1176 437.582C82.9711 448.395 77.5575 462.809 78.0771 477.628C78.5112 490.238 84.0812 502.044 93.0868 510.86C99.3951 517.036 111.221 521.048 119.428 516.772C147.97 504.252 152.438 464.506 136.682 440.185C131.92 432.835 125.353 429.354 116.822 427.825Z" fill="#FDFCFC"/>
<path d="M119.428 516.772C111.221 521.048 99.3953 517.036 93.087 510.86C84.0814 502.044 78.5113 490.238 78.0772 477.628C77.5576 462.809 82.9713 448.395 93.1178 437.582C100.357 429.905 106.738 428.109 116.822 427.825C113.048 461.124 112.619 484.075 119.428 516.772Z" fill="#FFEDE1"/>
<path d="M116.821 427.825C125.352 429.354 131.919 432.835 136.681 440.185C152.437 464.506 147.969 504.252 119.427 516.772C112.618 484.075 113.047 461.124 116.821 427.825Z" fill="#A3C4F3"/>
<path d="M266.097 607.548C265.111 581.651 263.719 556.313 265.747 530.379C267.175 512.12 270.491 471.669 284.956 459.548C290.087 455.25 296.639 452.761 302.827 450.41C352.734 431.448 442.885 431.797 497.004 434.186C518.093 435.117 539.126 437.513 560.16 439.237C585.659 441.995 625.563 445.334 633.44 474.583C636.14 484.608 637.685 495.927 639.044 506.24C643.445 538.844 645.481 571.724 645.135 604.623C644.856 618.213 643.84 631.778 642.092 645.259C640.35 658.899 636.608 689.347 624.82 696.553C597.237 713.414 548.276 717.093 517.611 719.359C463.5 723.36 410.196 718.773 357.141 711.521C348.061 710.289 339.014 708.82 330.011 707.115C308.577 703.136 283.315 698.288 275.736 674.719C268.789 653.116 269.19 629.544 266.097 607.548ZM540.754 440.567C521.905 438.118 500 437.193 480.887 436.677C437.379 435.661 393.63 435.688 350.464 441.896C330.392 444.783 304.097 449.919 287.11 461.175C274.514 469.523 271.133 504.869 269.558 518.94C267.976 532.925 267.146 546.985 267.073 561.06C266.917 586.969 270.727 653.141 279.543 676.133C280.687 679.097 282.301 681.857 284.32 684.31C304.51 709.309 381 710.163 412.202 715.081C421.868 716.604 443.108 717.524 453.354 717.652C453.806 717.7 454.259 717.741 454.712 717.774C489.69 719.993 601.158 714.285 624.559 692.871C637.363 681.153 640.445 636.07 641.536 619.31C644.001 581.404 640.874 542.856 635.909 505.25C634.577 495.161 633.669 484.273 630.494 474.571C629.065 470.206 626.805 465.716 623.681 462.312C609.507 446.869 579.895 444.095 559.944 442.169C553.594 441.556 547.127 440.716 540.754 440.567Z" fill="#000100"/>
<path d="M453.352 717.652C443.106 717.524 421.866 716.604 412.2 715.081C380.998 710.163 304.508 709.309 284.318 684.31C282.299 681.857 280.685 679.097 279.541 676.133C270.725 653.141 266.915 586.969 267.071 561.06C267.144 546.985 267.974 532.925 269.556 518.94C271.131 504.869 274.512 469.523 287.108 461.175C304.095 449.919 330.39 444.783 350.462 441.896C393.628 435.688 437.377 435.661 480.885 436.677C499.998 437.193 521.903 438.118 540.752 440.567C540.589 440.738 540.425 440.909 540.261 441.08C480.364 463.771 402.77 489.424 369.769 549.058C332.468 616.461 398.325 683.165 454.209 712.76C456.683 714.07 460.173 715.893 462.392 717.556C459.38 717.641 456.366 717.673 453.352 717.652Z" fill="#F1C0E8"/>
<path d="M540.752 440.567C547.125 440.716 553.592 441.556 559.942 442.169C579.893 444.095 609.505 446.869 623.679 462.312C626.803 465.716 629.063 470.206 630.492 474.571C633.667 484.273 634.575 495.161 635.907 505.25C640.872 542.856 643.999 581.404 641.534 619.31C640.443 636.07 637.361 681.153 624.557 692.871C601.156 714.285 489.688 719.993 454.71 717.774C454.257 717.741 453.804 717.7 453.352 717.652C456.366 717.673 459.38 717.641 462.392 717.556C460.173 715.893 456.683 714.07 454.209 712.76C398.325 683.165 332.468 616.461 369.769 549.058C402.77 489.424 480.364 463.771 540.261 441.08C540.425 440.909 540.589 440.738 540.752 440.567Z" fill="#98F5E1"/>
<path d="M805.258 457.593C808.206 458.065 811.357 458.803 814.25 459.136L814.851 460.019C815.184 527.73 814.434 595.441 812.602 663.127C811.875 691.565 809.606 722.261 809.509 750.132C808.656 751.416 807.452 752.957 806.518 754.228C805.182 742.397 805.424 729.595 805.337 717.613L805.5 650.905L805.258 457.593Z" fill="#76F9D3"/>
<path d="M814.906 677.315C816.132 641.356 816.968 605.384 817.413 569.406C817.678 533.292 816.872 495.796 817.817 459.832C817.984 467.262 818.267 465.439 824.175 471.343C827.089 474.254 836.814 483.814 839.983 485.202C841.702 530.591 840.649 576.465 841.308 621.893C841.532 637.328 841.005 655.351 841.775 670.525C836.816 669.796 830.656 677.907 824.851 677.581C821.865 677.413 817.751 677.022 814.906 677.315Z" fill="#67F6C5"/>
<path d="M733.253 550.749C709.047 551.218 689.049 531.966 688.598 507.759C688.147 483.553 707.415 463.569 731.622 463.137C755.803 462.705 775.76 481.948 776.211 506.128C776.661 530.309 757.433 550.281 733.253 550.749ZM730.661 466.151C719.109 467.871 709.755 472.157 702.838 481.826C693.518 494.853 690.22 513.199 698.888 527.246C707.353 519.512 715.365 515.322 725.853 510.627C719.572 506.986 707.734 502.471 703.4 498.482L703.269 497.699C706.779 496.692 728.344 507.429 729.838 511.021C728.582 513.336 720.72 516.207 717.827 517.734C711.997 520.943 704.681 526.432 699.586 528.868C706.493 537.861 714.336 543.774 725.901 545.234C737.279 546.785 748.798 543.648 757.818 536.541C785.269 514.668 772.871 469.525 738.479 466.179C735.879 465.922 733.262 465.913 730.661 466.151Z" fill="#000100"/>
<path d="M698.886 527.246C690.218 513.199 693.516 494.853 702.836 481.826C709.753 472.157 719.107 467.871 730.659 466.151C733.26 465.913 735.877 465.922 738.477 466.179C772.869 469.525 785.267 514.668 757.816 536.541C748.796 543.648 737.277 546.785 725.899 545.234C714.334 543.774 706.491 537.861 699.584 528.868C704.679 526.432 711.995 520.943 717.825 517.734C720.718 516.207 728.58 513.336 729.836 511.021C728.342 507.429 706.777 496.692 703.267 497.699L703.398 498.482C707.732 502.471 719.57 506.986 725.851 510.627C715.363 515.322 707.351 519.512 698.886 527.246ZM731.512 476.196C725.862 476.801 709.407 480.975 708.31 487.157L709.087 488.064C711.404 487.919 718.031 482.369 720.846 481.399C739.595 474.937 758.844 479.68 764.101 500.511C757.811 503.701 753.175 506.194 746.339 508.13C744.489 500.612 739.667 485.292 731.419 482.681L730.4 482.962L730.003 483.938C730.674 485.13 730.334 484.804 731.338 485.627C741.112 495.429 745.169 508.07 743.413 521.98C742.983 525.387 737.818 534.573 738.967 537.372C740.232 537.049 740.447 536.595 741.268 535.141C746.21 526.39 746.757 520.498 746.593 510.881C753.644 508.555 761.054 506.008 767.238 501.802C763.772 483.851 749.788 473.217 731.512 476.196Z" fill="#98F5E1"/>
<path d="M764.104 500.511C758.847 479.68 739.598 474.937 720.849 481.399C718.034 482.369 711.407 487.919 709.09 488.064L708.312 487.157C709.41 480.975 725.865 476.801 731.515 476.196C749.791 473.217 763.775 483.851 767.241 501.802C761.057 506.008 753.647 508.555 746.596 510.881C746.76 520.498 746.213 526.39 741.271 535.141C740.45 536.595 740.235 537.049 738.97 537.372C737.821 534.573 742.986 525.387 743.416 521.98C745.172 508.07 741.115 495.429 731.341 485.627C730.337 484.804 730.677 485.13 730.006 483.938L730.403 482.962L731.422 482.681C739.67 485.292 744.492 500.612 746.342 508.13C753.178 506.194 757.814 503.701 764.104 500.511Z" fill="#000100"/>
<path d="M843.993 488.613C869.036 511.446 885.075 533.155 896.721 565.308C898.37 569.862 901.767 579.418 902.57 583.861L902.851 583.848C911.501 609.987 912.813 658.293 910.951 685.796C900.14 686.802 893.461 691.363 886.338 699.53C870.016 718.245 851.07 767.688 891.394 772.165C887.211 780.235 883.812 789.373 877.92 797.679C852.446 833.593 825.864 849.564 782.355 864.669C734.725 881.204 661.544 886.613 611.28 871.352C611.171 871.276 611.062 871.199 610.953 871.123C616.466 862.975 618.189 852.725 626.056 846.26C634.279 839.503 644.456 849.2 654.15 850.05C659.659 850.533 665.517 848.402 670.388 845.492C671.132 845.048 671.002 845.076 671.106 844.295L669.98 844.189C667.824 842.7 670.034 837.308 671.22 835.521C671.833 834.598 672.188 834.881 673.336 834.717C669.47 832.797 665.149 832.399 661.397 830.686C655.137 827.829 649.234 823.552 643.189 820.023C634.474 815.301 625.476 809.467 615.08 812.324C600.877 816.227 595.074 836.09 581.334 839.427C565.566 843.257 558.875 827.613 542.464 832.319C536.701 828.696 524.726 808.19 520.975 801.241C516.656 793.239 512.594 781.304 509.672 772.489C584.466 776.265 659.355 777.795 734.24 777.079C739.215 787.823 747.357 807.43 761.956 805.491C765.256 804.988 767.087 803.656 766.403 800.101C764.941 792.515 761.944 785.405 760.278 777.82L760.075 776.874C772.28 777.09 791.737 779.921 800.053 769.598C804.96 763.505 809.066 756.645 814.143 750.076C826.61 733.945 843.321 715.702 845.271 694.678C846 685.098 845.464 673.655 845.448 663.965L843.993 488.613Z" fill="#67F6C5"/>
<path d="M125.136 538.428C142.076 572.421 158.64 589.002 188.953 611.58C197.439 617.901 210.359 627.081 218.082 634.05L219.073 689.06C219.273 699.835 219.289 721.063 221.997 731.087C223.826 738.053 227.593 744.358 232.861 749.27C240.083 756.098 249.515 760.11 259.443 760.576C261.172 766.788 274.347 778.346 280.759 779.432L281.196 784.002C281.992 792.203 289.625 795.035 296.188 789.67C299.629 792.468 306.606 796.573 310.674 799.013C342.376 818.023 381.155 831.769 418.56 828.393C424.927 827.818 435.798 825.091 440.571 824.892C415.934 843.834 377.001 865.353 349.127 878.208C343.426 865.407 341.018 854.097 326.614 848.438C308.641 841.376 299.977 852.286 284.984 857.901C280.331 855.207 275.174 850.21 270.889 846.874C262.258 839.997 253.577 835.503 242.38 835.25C228.311 834.931 214.563 841.855 210.113 855.934C209.131 859.04 207.236 864.518 210.548 866.58L211.743 866.574C213.098 863.52 213.331 860.295 214.39 857.188C220.828 838.307 242.049 836.265 257.932 843.394C267.961 847.896 275.01 858.003 284.548 862.337C299.489 858.586 309.203 843.709 328.565 854.407C337.595 859.396 341.16 870.374 345.033 879.63C340.315 880.865 335.518 882.539 330.872 884.071C323.187 871.988 313.414 867.273 299.764 875.257C294.497 878.337 291.17 882.258 285.503 884.89L284.81 884.603C278.032 881.766 273.099 876.121 267.202 871.554C258.518 864.829 246.561 860.347 235.794 864.554C229.339 867.07 224.178 872.093 221.487 878.478C220.447 880.941 219.668 884.182 219.385 886.831C218.944 889.102 219.071 891.185 219.084 893.501C164.783 878.991 97.2757 825.21 80.0714 770.647C60.7781 709.458 83.1407 635.126 106.585 577.765C111.959 564.616 118.964 551.234 125.136 538.428Z" fill="#FBA9BD"/>
<path d="M709.778 615.299C702.83 615.902 696.097 612.714 692.161 606.958C688.224 601.201 687.696 593.77 690.779 587.515C693.861 581.259 700.076 577.151 707.039 576.765C717.574 576.182 726.628 584.16 727.376 594.684C728.124 605.208 720.289 614.386 709.778 615.299ZM706.766 579.503C700.938 579.962 695.808 583.522 693.338 588.82C690.868 594.118 691.439 600.336 694.834 605.095C698.229 609.854 703.922 612.419 709.736 611.808C718.564 610.881 725.007 603.029 724.194 594.19C723.382 585.35 715.615 578.805 706.766 579.503Z" fill="#000100"/>
<path d="M759.265 615.241C748.507 615.888 739.282 607.648 738.715 596.886C738.148 586.124 746.456 576.96 757.222 576.472C767.876 575.99 776.924 584.193 777.485 594.843C778.046 605.493 769.911 614.601 759.265 615.241ZM753.43 579.826C744.836 582.236 739.768 591.099 742.05 599.728C744.332 608.358 753.119 613.557 761.781 611.403C767.5 609.982 772.01 605.589 773.582 599.91C775.154 594.23 773.544 588.144 769.37 583.984C765.196 579.824 759.105 578.235 753.43 579.826Z" fill="#000100"/>
<path d="M709.734 611.808C703.92 612.419 698.227 609.854 694.832 605.095C691.437 600.336 690.866 594.118 693.336 588.82C695.806 583.522 700.936 579.962 706.764 579.503C715.613 578.805 723.38 585.35 724.192 594.19C725.005 603.029 718.562 610.881 709.734 611.808Z" fill="#98F5E1"/>
<path d="M761.782 611.403C753.12 613.557 744.333 608.358 742.051 599.728C739.769 591.099 744.837 582.236 753.431 579.826C759.106 578.235 765.197 579.824 769.371 583.984C773.545 588.144 775.155 594.23 773.583 599.91C772.011 605.589 767.501 609.982 761.782 611.403Z" fill="#98F5E1"/>
<path d="M780.021 642.71C779.388 641.816 778.066 637.589 777.252 637.585C756.065 637.464 734.737 637.651 713.542 637.505C709.06 637.474 688.235 638.264 685.635 636.982C685.15 635.511 685.124 634.849 684.898 633.328L685.62 632.814C694.491 630.434 765.672 630.485 772.43 633.213L772.839 633.914C759.868 636.139 691.392 632.545 686.134 635.285C686.594 636.291 686.272 636.083 687.165 636.465C690.467 637.878 749.012 636.733 757.454 636.621C762.91 636.548 771.538 635.533 776.644 636.679C777.852 636.951 778.895 637.62 779.435 638.764C779.967 639.891 780.002 641.503 780.021 642.71Z" fill="#98F5E1"/>
<path d="M814.904 677.315C817.749 677.022 821.863 677.413 824.849 677.581C830.654 677.907 836.814 669.796 841.773 670.525C842.074 678.644 842.53 688.175 841.634 696.132C839.911 711.415 823.055 735.506 812.465 746.938C812.454 726.819 814.234 706.463 814.562 686.327C814.61 683.384 814.691 680.24 814.904 677.315Z" fill="#76F9D3"/>
<path d="M891.393 772.165C851.069 767.688 870.015 718.245 886.337 699.53C893.46 691.363 900.139 686.802 910.95 685.796C928.311 686.043 936.396 708.154 935.618 722.892C934.788 738.617 925.68 753.172 914.156 763.524C905.136 771.498 902.604 771.837 891.393 772.165ZM909.587 689.622C895.353 692.007 887.249 702.771 880.618 714.795C872.811 728.95 863.926 752.217 879.846 764.284C883.176 766.824 888.976 767.694 893.065 768.249C903.387 771.073 915.99 756.272 921.986 748.971C934.903 733.243 936.266 705.561 919.486 692.025C916.788 689.848 913.09 688.959 909.587 689.622Z" fill="#FDFCFC"/>
<path d="M909.588 689.622C913.091 688.959 916.789 689.848 919.487 692.025C936.267 705.561 934.904 733.243 921.987 748.971C915.991 756.272 903.388 771.073 893.066 768.249C898.257 749.582 904.832 731.449 907.698 712.16C908.602 706.074 910.931 696.343 910.425 690.328L909.588 689.622Z" fill="#FFEDE1"/>
<path d="M893.064 768.249C888.975 767.694 883.175 766.824 879.845 764.284C863.925 752.217 872.81 728.95 880.617 714.795C887.248 702.771 895.352 692.007 909.586 689.622L910.423 690.328C910.929 696.343 908.6 706.074 907.696 712.16C904.83 731.449 898.255 749.582 893.064 768.249Z" fill="#76F9D3"/>
<path d="M774.305 742.488C773.825 742.831 771.459 744.374 770.982 744.401C757.213 744.938 742.239 744.27 728.497 743.647C720.669 743.292 692.432 744.613 686.961 741.176C694.312 740.711 773.543 740.933 774.85 741.484L774.305 742.488Z" fill="#76F9D3"/>
<path d="M259.441 760.576C264.907 760.823 270.413 761.015 275.859 761.507C277.437 767.476 278.969 773.528 280.757 779.432C274.345 778.346 261.17 766.788 259.441 760.576Z" fill="#A3C4F3"/>
<path d="M297.23 780.126C295.664 783.699 292.735 790.225 287.403 788.343C287.012 788.291 285.232 786.547 285.187 786.287C283.752 777.93 280.787 769.852 278.984 761.641L305.064 763.075C302.489 768.775 299.877 774.459 297.23 780.126Z" fill="#FBA9BD"/>
<path d="M309.036 763.306L429.49 768.484C445.627 769.112 461.758 769.871 477.883 770.76C485.848 771.151 498.157 771.408 505.84 772.451C490.675 787.157 475.059 800.252 458.112 812.82C454.329 815.626 444.638 822.92 440.57 824.892C435.797 825.091 424.927 827.818 418.56 828.393C381.155 831.769 342.375 818.023 310.673 799.013C306.605 796.573 299.628 792.468 296.188 789.67C299.243 784.584 306.119 769.309 309.036 763.306Z" fill="#A3C4F3"/>
<path d="M571.809 763.624C610.466 765.42 649.186 764.822 687.408 766.542C692.403 767.672 704.236 765.9 707.374 768.107C708.3 775.74 695.065 771.649 692.119 773.489L692.087 773.943C677.993 774.524 661.018 774.061 646.755 773.884C621.768 773.765 596.785 773.136 571.824 771.997C572.231 771.91 573.226 771.722 573.472 771.461C574.672 770.185 575.614 766.172 574.76 764.619C573.608 764.388 572.884 764.103 571.809 763.624Z" fill="#67F6C5"/>
<path d="M687.406 766.542C695.133 766.137 704.891 766.377 712.857 766.321C732.469 766.333 752.08 766.053 771.683 765.482C769.449 767.539 767.748 765.824 765.35 769.66C766.169 772.74 768.019 772.699 770.693 773.451C757.662 773.869 743.469 773.79 730.359 773.797C718.781 773.804 703.25 774.581 692.085 773.943L692.117 773.489C695.063 771.649 708.298 775.74 707.372 768.107C704.234 765.9 692.401 767.672 687.406 766.542Z" fill="#76F9D3"/>
<path d="M505.839 772.451L509.671 772.489C512.593 781.304 516.655 793.239 520.974 801.241C524.725 808.19 536.7 828.696 542.463 832.319C539.284 834.845 537.834 835.837 535.036 838.666C529.642 843.905 522.127 857.204 513.236 855.576C498.641 852.905 492.732 831.258 475.418 842.992C469.581 846.948 456.712 864.295 450.534 862.647C436.176 858.818 426.42 838.289 409.028 850.863C395.192 861.518 382.33 875.652 366.851 884.113C364.342 885.484 359.983 885.89 357.209 885.335C353.191 884.712 351.426 881.491 349.125 878.208C376.999 865.353 415.932 843.834 440.569 824.892C444.637 822.92 454.328 815.626 458.111 812.82C475.058 800.252 490.674 787.157 505.839 772.451Z" fill="#FFEDE1"/>
<path d="M763.362 802.047C751.568 805.832 741.79 785.006 737.922 776.938C744.042 776.858 750.468 776.988 756.613 777.018C757.914 782.864 763.396 798.217 763.362 802.047Z" fill="#67F6C5"/>
<path d="M542.464 832.319C558.875 827.613 565.566 843.257 581.334 839.427C595.074 836.09 600.877 816.227 615.08 812.324C625.476 809.467 634.474 815.301 643.189 820.023L643.519 821.496C636.58 817.075 625.532 811.216 617.292 813.295C600.083 817.637 596.852 843.014 577.528 843.972C564.507 844.617 558.5 835.288 545.814 835.271C535.082 838.235 526.685 867.552 507.365 858.79C498.593 854.811 492.39 841.419 481.817 844.687C470.103 849.68 461.896 871.862 447.05 866.406C439.638 863.913 424.925 847.598 416.626 852.014C406.22 857.55 396.52 868.092 386.714 875.663C373.665 885.739 357.669 901.596 345.032 879.63C341.159 870.374 337.594 859.396 328.564 854.407C309.202 843.709 299.488 858.586 284.547 862.337C275.009 858.003 267.96 847.896 257.931 843.394C242.048 836.265 220.827 838.307 214.389 857.188C213.33 860.295 213.097 863.52 211.742 866.574L210.547 866.58C207.235 864.518 209.13 859.04 210.112 855.934C214.562 841.855 228.31 834.931 242.379 835.25C253.576 835.503 262.257 839.997 270.888 846.874C275.173 850.21 280.33 855.207 284.983 857.901C299.976 852.286 308.64 841.376 326.613 848.438C341.017 854.097 343.425 865.407 349.126 878.208C351.427 881.491 353.192 884.712 357.21 885.335C359.984 885.89 364.343 885.484 366.852 884.113C382.331 875.652 395.193 861.518 409.029 850.863C426.421 838.289 436.177 858.818 450.535 862.647C456.713 864.295 469.582 846.948 475.419 842.992C492.733 831.258 498.642 852.905 513.237 855.576C522.128 857.204 529.643 843.905 535.037 838.666C537.835 835.837 539.285 834.845 542.464 832.319Z" fill="#FDFCFC"/>
<path d="M545.812 835.271C558.498 835.288 564.505 844.617 577.526 843.972C596.85 843.014 600.082 817.637 617.291 813.295C625.531 811.216 636.579 817.075 643.518 821.496C649.904 825.624 655.138 829.203 662.051 832.442C665.252 833.942 669.189 833.93 670.138 834.774C667.706 839.985 669.702 845.729 663.958 848.089C649.99 853.83 633.201 834.346 622.385 847.907C616.751 854.921 613.914 862.996 609.267 870.878C586.987 867.002 561.604 851.188 545.812 835.271Z" fill="#67F6C5"/>
<path d="M643.187 820.023C649.232 823.552 655.135 827.829 661.395 830.686C665.147 832.399 669.468 832.797 673.334 834.717C672.186 834.881 671.831 834.598 671.218 835.521C670.032 837.308 667.822 842.7 669.978 844.189L671.104 844.295C671 845.076 671.13 845.048 670.386 845.492C665.515 848.402 659.657 850.533 654.148 850.05C644.454 849.2 634.277 839.503 626.054 846.26C618.187 852.725 616.464 862.975 610.951 871.123L609.266 870.878C613.913 862.996 616.751 854.921 622.385 847.907C633.201 834.346 649.99 853.83 663.958 848.089C669.702 845.729 667.706 839.985 670.138 834.774C669.189 833.93 665.251 833.942 662.05 832.442C655.137 829.203 649.903 825.624 643.517 821.496L643.187 820.023Z" fill="#98F5E1"/>
<path d="M285.501 884.89C291.168 882.258 294.495 878.337 299.762 875.257C313.412 867.273 323.185 871.988 330.87 884.071C331.992 886.911 332.883 887.975 334.73 890.297C333.723 891.624 332.507 892.316 331.137 893.276C328.642 892.149 328.492 888.348 327.14 886.04C321.378 875.907 312.003 873.157 302.195 879.205C297.157 882.312 288.496 891.29 282.734 888.598C266.317 880.927 256.121 859.087 234.147 870.308C227.71 873.594 221.251 887.12 223.566 894.593C224.701 898.347 225.642 901.68 226.575 905.487C226.44 905.369 226.305 905.251 226.169 905.133L225.505 904.529C219.199 898.83 219.494 894.751 219.383 886.831C219.666 884.182 220.445 880.941 221.485 878.478C224.176 872.093 229.337 867.07 235.792 864.554C246.559 860.347 258.516 864.829 267.2 871.554C273.097 876.121 278.03 881.766 284.808 884.603L285.501 884.89Z" fill="#FDFCFC"/>
<path d="M428.569 893.897C427.679 893.221 426.781 892.556 425.876 891.9C409.343 879.978 407.429 896.14 394.272 900.732C393.594 900.968 393.605 900.783 392.93 900.228C393.053 897.444 396.347 894.357 398.226 892.423C425.899 863.942 439.26 908.468 455.767 907.622C463.753 907.213 471.007 895.061 475.937 889.302C478.71 886.063 481.907 882.465 485.791 880.56C501.395 872.906 513.557 897.128 524.977 895.828C534.609 894.731 540.215 882.534 545.745 875.777C551.263 869.036 556.872 865.508 565.672 864.692C578.081 864.397 587.864 875.375 599.738 875.799C600.38 875.822 606.738 872.387 608.68 871.798L609.007 872.481C608.25 875.039 605.085 876.03 602.801 876.981C590.017 882.304 579.448 868.69 566.119 869.109C549.692 869.624 546.5 885.352 536.649 895.099C531.502 900.192 526.763 900.626 520.126 900.387C512.188 895.715 495.813 878.621 485.88 886C474.427 894.509 465.239 921.112 446.633 909.122C440.341 905.068 434.665 898.588 428.569 893.897Z" fill="#FDFCFC"/>
<path d="M327.141 886.04C296.422 897.161 255.457 903.867 223.567 894.593C221.252 887.12 227.711 873.594 234.148 870.308C256.122 859.087 266.318 880.927 282.735 888.598C288.497 891.29 297.158 882.312 302.196 879.205C312.004 873.157 321.379 875.907 327.141 886.04Z" fill="#FBA9BD"/>
<defs>
<linearGradient id="paint0_linear_31_2427" x1="659.696" y1="349.904" x2="796.655" y2="395.546" gradientUnits="userSpaceOnUse">
<stop stop-color="#AEF195"/>
<stop offset="1" stop-color="#9DFFC1"/>
</linearGradient>
<linearGradient id="paint1_linear_31_2427" x1="300.323" y1="353.403" x2="752.189" y2="810.337" gradientUnits="userSpaceOnUse">
<stop stop-color="#FFE5F3"/>
<stop offset="1" stop-color="#8CFFEA"/>
</linearGradient>
</defs>
</svg>
