<svg width="1024" height="1024" viewBox="0 0 1024 1024" fill="none" xmlns="http://www.w3.org/2000/svg">
<path d="M438.617 147.679C438.139 140.09 438.141 133.306 443.46 127.199C448.094 121.878 454.808 119.533 461.696 119.209C468.647 118.882 475.198 120.612 481.611 123.162C492.276 127.402 502.441 133.392 512.36 139.119C530.667 149.8 548.625 161.067 566.208 172.902C571.607 176.517 578.005 179.847 582.936 183.971C568.365 190.346 549.858 195.466 534.249 198.858C525.954 200.66 517.529 201.992 509.282 203.989C508.819 204.005 508.543 204.048 508.104 203.956C506.238 203.567 471.325 181.181 467.347 178.371C461.717 174.395 455.28 169.822 450.432 164.942C445.486 159.965 442.939 154.034 439.104 148.383L438.617 147.679Z" fill="#8EECF5"/>
<path d="M276.632 245.275C269.83 223.682 270.131 201.691 280.227 181.112C290.751 159.66 309.614 145.079 331.998 137.47C366.889 125.61 406.172 131.6 438.618 147.679L439.105 148.383C442.94 154.034 445.487 159.965 450.433 164.942C455.281 169.822 461.718 174.395 467.348 178.371C471.326 181.181 506.239 203.567 508.105 203.956C508.544 204.048 508.82 204.005 509.283 203.989C531.124 217.794 571.054 240.213 596.277 245.994C603.046 247.545 611.028 248.184 617.847 246.567C623.837 245.146 628.477 241.941 631.643 236.619C634.354 232.124 635.046 226.694 633.548 221.663C632.106 216.637 629.138 213.402 626.446 209.172C635.093 212.436 643.329 216.755 651.97 220.028C668.606 226.33 685.504 231.706 701.873 238.771C765.428 266.199 811.531 305.731 840.32 369.571C845.591 381.26 851.126 393.446 855.199 405.608C838.052 408.83 809.874 395.471 791.905 392.8C772.197 389.87 755.086 390.76 735.365 391.868C729.217 392.214 718.801 391.484 713.666 395.241C707.426 390.572 701.775 385.008 695.78 380.011C681.878 368.424 668.159 358.611 652.272 349.945C658.424 343.673 676.44 328.408 679.419 322.093C679.175 318.53 675.367 315.688 672.993 313.32C679.043 307.033 684.749 300.538 690.586 294.062C686.496 288.968 675.109 277.309 669.425 274.72C665.212 274.914 653.473 289.203 650.211 292.772C648.744 292.466 646.546 291.874 645.143 292.617C642.425 294.055 638.969 298.582 636.752 300.86C628.958 308.869 597.318 345.245 590.58 348.78L590.224 348.468C594.626 339.438 612.632 322.867 620.469 314.543C623.077 311.771 626.349 308.885 628.175 305.531C627.664 304.418 627.491 304.465 626.369 303.926C623.632 304.523 587.634 344.886 583.573 349.319C570.876 350.05 558.665 353.719 546.126 355.357C545.991 355.196 545.87 355.022 545.721 354.873C544.219 353.363 488.863 354.161 482.175 353.99C469.483 351.56 455.854 351.905 442.896 349.914C430.17 347.959 417.803 343.659 405.135 341.87L405.055 341.626C405.996 337.911 406.451 334.111 405.987 330.29C405.087 322.864 400.605 316.726 394.771 312.305C387.207 306.49 377.626 303.952 368.175 305.262C357.859 306.69 351.067 311.859 344.897 320.009C342.578 319.105 340.347 317.623 338.191 316.372C314.033 302.354 297.031 285.835 283.851 261.06C281.25 256.171 278.056 250.621 276.632 245.275ZM456.138 266.874C453.128 267.354 450.616 269.43 449.577 272.295C448.539 275.161 449.138 278.364 451.142 280.661C453.146 282.957 456.239 283.985 459.219 283.344C463.658 282.389 466.53 278.073 465.695 273.61C464.86 269.146 460.622 266.16 456.138 266.874Z" fill="#98F5E1"/>
<path d="M583.18 183.981C590.723 181.253 598.456 178.978 606.048 176.367C620.177 171.506 634.276 166.265 648.664 162.226C706.942 145.869 769.463 141.885 825.44 168.326C867.06 187.986 904.667 224.118 920.284 268.009C930.385 296.4 930.548 330.251 917.495 357.746C907.825 378.113 892.417 395.374 870.766 403.033C865.854 404.799 860.676 405.711 855.456 405.729L855.193 405.608C851.12 393.446 845.585 381.26 840.314 369.571C811.525 305.731 765.422 266.199 701.867 238.771C685.498 231.706 668.6 226.33 651.964 220.028C643.323 216.755 635.087 212.436 626.44 209.172C619.066 203.342 602.732 195.423 593.615 190.361C590.185 188.457 586.108 186.585 583.18 183.981Z" fill="#CFBAF0"/>
<path d="M582.935 183.971L583.184 183.981C586.112 186.585 590.189 188.457 593.619 190.361C602.736 195.423 619.07 203.342 626.444 209.172C629.136 213.402 632.104 216.637 633.546 221.663C635.044 226.694 634.352 232.124 631.641 236.619C628.475 241.941 623.835 245.146 617.845 246.567C611.026 248.184 603.044 247.545 596.275 245.994C571.052 240.213 531.122 217.794 509.281 203.989C517.528 201.992 525.953 200.66 534.248 198.858C549.857 195.466 568.364 190.346 582.935 183.971Z" fill="#90DBF4"/>
<path d="M60.525 676.958C59.8127 669.635 57.5199 662.377 55.7046 655.254C53.2983 645.812 51.0831 636.38 49.6102 626.74C44.0956 590.648 41.6629 555.119 42.6915 518.623C43.0837 504.708 43.7085 490.935 45.6354 477.132C46.9899 467.429 49.1432 457.76 51.333 448.216C55.2292 431.236 60.1537 414.874 68.0091 399.259C78.5942 378.597 92.3937 359.747 108.892 343.414C114.328 337.987 120.481 332.977 126.369 328.031C169.86 291.508 222.724 263.036 276.628 245.275C278.052 250.621 281.246 256.171 283.847 261.06C297.027 285.835 314.029 302.354 338.187 316.372C340.343 317.623 342.574 319.105 344.893 320.009C341.08 327.221 339.474 335.083 341.792 343.097C344.084 351.022 350.165 357.421 357.353 361.24C365.695 365.671 375.303 365.857 384.192 363.003C391.667 360.603 398.837 356.355 402.58 349.198C403.773 346.916 404.533 344.365 405.131 341.87C417.799 343.659 430.166 347.959 442.892 349.914C455.85 351.905 469.479 351.56 482.171 353.99C483.244 354.265 484.201 354.523 485.212 354.988L485.043 355.813C478.015 360.736 468.107 363.884 460.177 367.348C450.231 371.693 440.407 376.366 430.385 380.532C416.932 386.123 403.275 391.14 389.968 397.098C339.431 419.723 290.203 444.77 240.49 469.109C234.773 471.908 199.863 488.201 198.479 489.499C195.262 492.517 190.636 511.329 189.357 516.285C198.45 524.113 207.582 531.985 216.033 540.51C224.415 548.967 232.171 558.06 240.281 566.778C232.103 567.994 223.948 569.047 216.002 571.422C189.737 579.272 165.756 597.891 145.951 616.393C136.313 625.396 126.819 635.033 116.506 643.246C99.2463 656.989 80.2418 667.248 60.525 676.958ZM260.764 346.093C255.392 347.816 250.519 350.062 247.738 355.312C245.538 359.466 245.232 364.977 246.626 369.434C247.662 372.745 249.865 375.427 253.026 376.905C257.824 379.149 264.624 378.627 269.661 377.259C274.869 375.771 279.987 373.418 282.858 368.546C284.642 365.489 285.116 361.841 284.173 358.429C283.022 354.102 280.016 350.508 276.155 348.306C271.262 345.517 266.156 345.746 260.764 346.093Z" fill="#FFCFD2"/>
<path d="M459.214 283.344C456.234 283.985 453.141 282.957 451.137 280.661C449.133 278.364 448.534 275.161 449.572 272.295C450.611 269.43 453.123 267.354 456.133 266.874C460.617 266.16 464.855 269.146 465.69 273.61C466.525 278.073 463.653 282.389 459.214 283.344ZM456.926 269.712C453.814 269.926 451.469 272.631 451.698 275.742C451.926 278.853 454.641 281.186 457.751 280.943C460.841 280.702 463.156 278.008 462.929 274.917C462.701 271.825 460.018 269.499 456.926 269.712Z" fill="#133162"/>
<path d="M457.756 280.943C454.646 281.186 451.931 278.853 451.703 275.742C451.474 272.631 453.819 269.926 456.931 269.712C460.023 269.499 462.706 271.825 462.934 274.917C463.161 278.008 460.846 280.702 457.756 280.943Z" fill="#98F5E1"/>
<path d="M505.552 370.532C519.61 360.247 529.646 359.512 546.125 355.357C558.664 353.719 570.875 350.05 583.572 349.319C587.633 344.886 623.631 304.523 626.368 303.926C627.49 304.465 627.663 304.418 628.174 305.531C626.348 308.885 623.076 311.771 620.468 314.543C612.631 322.867 594.625 339.438 590.223 348.468L590.579 348.78C597.317 345.245 628.957 308.869 636.751 300.86C638.968 298.582 642.424 294.055 645.142 292.617C646.545 291.874 648.743 292.466 650.21 292.772C653.472 289.203 665.211 274.914 669.424 274.72C675.108 277.309 686.495 288.968 690.585 294.062C684.748 300.538 679.042 307.033 672.992 313.32C675.366 315.688 679.174 318.53 679.418 322.093C676.439 328.408 658.423 343.673 652.271 349.945C668.158 358.611 681.877 368.424 695.779 380.011C701.774 385.008 707.425 390.572 713.665 395.241C732.24 409.438 748.693 426.236 767.255 440.349C796.557 462.63 845.794 480.423 881.026 491.97C906.404 499.972 932.715 510.478 957.019 521.295C963.51 524.184 970.752 526.638 976.608 530.687L976.8 531.337C970.505 531.35 917.045 508.755 906.56 504.66C898.583 501.63 890.551 498.747 882.469 496.012C845.717 483.88 800.926 469.121 769.353 446.708C759.302 439.573 749.913 431.301 740.534 423.309C728.046 412.6 715.456 402.01 702.766 391.541C685.668 377.398 668.706 363.665 648.967 353.315C634.401 367.428 620.182 381.897 606.325 396.707C601.736 401.599 596.056 406.628 592.179 412.034C591.221 413.498 590.525 414.394 589.041 415.339C581.949 422.107 575.493 429.519 568.391 436.285C586.974 437.436 604.826 440.222 623.479 437.497L623.624 436.435L622.419 435.063L622.688 433.613C624.136 433.339 625.761 436.927 627.481 437.473L628.854 436.521L628.993 436.593C630.04 436.303 630.691 436.563 631.755 436.769L631.321 436.185C637.194 434.73 643.058 433.243 648.914 431.722L650.003 432.302C650.22 432.182 650.434 432.054 650.655 431.94C651.704 431.398 651.283 431.594 652.384 431.292C653.247 431.056 653.523 430.882 654.156 430.281L655.049 430.535L655.173 431.494C654.454 432.001 653.794 432.308 652.975 432.626C652.975 433.581 652.854 433.239 653.066 433.709C648.398 436.568 642.327 437.064 637.081 438.45C628.118 440.817 619.397 443.162 610.056 443.489C573.282 444.775 523.298 428.873 491.177 453.006C499.55 450.556 513.095 448.775 521.164 452.981C523.384 454.138 524.083 455.785 524.722 458.146C525.868 462.385 527.864 483.076 527.005 487.079C525.253 489.76 521.844 491.004 518.825 491.585C510.843 493.119 501.826 491.788 493.934 490.294C493.757 491.131 493.684 490.751 494.1 491.441C494.677 492.618 495.041 492.579 496.239 492.984C508.216 497.038 532.017 499.657 544.463 497.329C550.167 496.262 560.797 493.246 566 493.118L565.112 495.179C562.02 496.405 550.949 498.639 550.181 499.153C549.75 500.778 550.188 501.726 551.008 503.172C552.242 505.348 554.895 509.771 557.349 510.321C557.408 510.334 557.471 510.329 557.532 510.334C565.385 519.293 580.665 535.257 579.698 547.397C579.178 553.928 575.868 558.997 571.384 563.527C568.106 565.966 564.49 568.731 560.14 568.197C557.481 567.87 555.528 566.369 553.69 564.53C549.728 549.55 547.575 540.403 535.838 528.964C536.466 538.265 537.799 551.011 531.134 558.636C528.895 561.198 525.731 562.543 522.346 562.617C518.27 562.707 515.145 560.604 512.393 557.775C511.479 556.834 510.919 556.131 510.631 554.816C510.882 553.536 511.214 552.416 511.656 551.197C509.296 541.207 500.98 532.192 492.383 526.979C490.747 525.986 488.998 525.16 487.25 524.388C479.962 532.296 472.765 540.287 465.66 548.36C462.236 552.209 458.915 556.571 455.113 560.031C451.8 563.047 447.124 565.105 443.293 567.453C432.29 574.198 407.417 590.275 395.548 592.776C394.341 592.425 394.469 592.327 393.739 591.403C393.609 590.648 393.514 589.971 393.732 589.216C395.137 584.36 398.379 579.287 400.595 574.683C406.304 562.821 414.646 543.092 421.747 532.953C429.19 522.323 442.447 512.233 451.548 502.257C449.737 497.726 448.627 493.644 448.368 488.754C447.575 473.794 454.318 434.331 460.188 420.619C465.11 409.122 478.929 394.786 488.229 386.18C492.738 382.008 497.817 378.127 502.008 373.659C497.052 369.104 491.539 364.08 485.912 360.409C456.072 375.181 424.753 387.006 394.127 400.006C376.868 407.332 359.9 415.688 342.918 423.65C311.883 438.201 281.389 453.935 250.543 468.904C234.594 476.644 218.982 484.701 202.417 491.105C210.093 501.077 218.819 509.768 227.509 518.841C239.785 531.482 251.941 544.238 263.974 557.11C277.857 572.015 290.782 587.787 304.64 602.678C318.753 617.559 333.024 632.29 347.45 646.867L392.171 692.917L443.915 746.166C451.642 754.016 459.351 761.836 466.875 769.884C469.354 772.536 472.437 775.196 474.59 778.084C475.3 779.035 475.874 780.284 475.8 781.501C475.77 781.987 475.612 782.273 475.43 782.692C474.136 782.952 473.612 782.623 472.567 781.889C467.844 778.568 463.842 772.642 459.778 768.485L420.908 728.277C414.064 721.219 406.92 714.449 400.043 707.42C389.313 696.453 378.919 685.153 368.232 674.14C348.532 653.838 328.604 633.785 309.173 613.216C293.966 597.118 279.827 580.004 264.674 563.85L224.027 520.898C215.765 512.134 206.716 503.671 200.029 493.626C198.09 500.916 196.052 508.342 193.088 515.29C214.278 528.509 232.444 552.44 249.522 570.511C268.158 590.23 287.048 609.629 305.329 629.69C313.45 638.602 321.041 647.976 329.034 656.999L377.817 711.412C383.895 718.241 390.573 724.561 396.775 731.289L463.828 804.117C466.339 798.392 469.379 793.482 474.287 789.492C479.377 785.355 485.623 782.432 491.344 779.264C496.756 776.236 502.131 773.144 507.468 769.988C524.078 760.304 540.733 750.505 557.619 741.317C583.462 727.56 609.391 713.966 635.406 700.537C662.076 685.731 689.355 671.823 716.232 657.36C729.085 650.443 742.001 643.732 754.461 636.117C741.215 623.029 730.501 608.397 718.397 594.32C713.611 588.755 708.44 583.574 703.266 578.373C678.346 574.713 660.359 567.375 638.744 554.866C629.191 549.338 619.608 543.254 610.857 536.515L610.577 535.333C602.454 529.402 594.212 526.343 584.946 522.694C582.425 521.701 579.461 520.144 576.792 519.72C575.69 519.546 576.233 519.829 575.369 518.907L575.752 517.936C575.941 517.866 576.124 517.775 576.32 517.727C578.676 517.151 581.917 518.862 583.92 519.952C587.612 521.962 592.574 523.806 596.595 525.1C597.727 525.464 597.221 525.514 598.192 525.026C597.961 524.067 597.216 522.46 597.153 521.547C597.055 520.135 598.126 519.311 597.81 517.369C598.366 517.602 598.455 517.61 599.008 517.999C601.593 519.817 601.731 523.843 602.139 526.668C603.962 528.116 610.23 532.837 612.504 532.807C612.736 532.804 612.967 532.781 613.198 532.768L613.593 532.978C620.74 536.865 627.134 542.166 634.064 546.433C662.222 563.772 685.203 573.305 718.263 575.377C731.833 576.228 749.322 574.109 761.951 577.776C784.243 584.248 805.005 600.607 824.053 613.481C853.975 633.703 884.571 654.62 911.571 678.668C919.025 685.487 926.848 692.616 931.438 701.755L931.751 702.363L931.935 702.729C925.21 697.01 919.193 690.248 912.166 684.92C880.794 657.779 848.729 634.968 814.559 611.636C799.037 601.038 782.383 587.166 764.071 582.068C752.566 578.864 741.506 579.965 729.757 580.057C723.358 580.107 716.948 579.753 710.559 579.43C716.894 585.978 722.93 592.557 728.665 599.636C734.374 606.684 739.735 614.1 745.692 620.935C749.682 625.513 756.221 629.333 759.302 634.376C761.342 637.715 762.266 641.859 762.268 645.744C762.273 652.501 759.479 659.827 754.526 664.545C746.726 671.975 731.582 678.095 721.855 683.154C701.23 693.88 680.142 704.241 659.945 715.735C645.317 723.377 630.631 730.906 615.888 738.324C602.741 744.81 588.803 751.038 576.297 758.658L511.195 792.386C497.566 799.375 480.739 809.842 465.954 812.831C441.214 804.07 419.905 787.917 393.879 782.467C361.768 775.742 329.736 780.113 297.339 780.115C260.402 780.119 228.644 773.913 193.493 762.972C163.764 753.718 136.138 742.183 109.115 726.626C96.0498 719.105 83.7441 710.257 71.2994 701.764C63.2369 695.569 54.7966 689.402 46.2188 683.948C50.957 681.554 55.7272 679.224 60.528 676.958C80.2448 667.248 99.2493 656.989 116.509 643.246C126.822 635.033 136.316 625.396 145.954 616.393C165.759 597.891 189.74 579.272 216.005 571.422C223.951 569.047 232.106 567.994 240.284 566.778C232.174 558.06 224.418 548.967 216.036 540.51C207.585 531.985 198.453 524.113 189.36 516.285C190.639 511.329 195.265 492.517 198.482 489.499C199.866 488.201 234.776 471.908 240.493 469.109C290.206 444.77 339.434 419.723 389.971 397.098C403.278 391.14 416.935 386.123 430.388 380.532C440.41 376.366 450.234 371.693 460.18 367.348C468.11 363.884 478.018 360.736 485.046 355.813L486.994 355.585C491.821 357.343 501.023 366.866 505.552 370.532ZM668.829 277.774C663.821 281.999 658.87 287.143 654.736 292.221C653.834 293.329 652.788 294.428 652.949 295.884C654.753 297.413 656.908 299.682 658.947 300.796C663.02 304.089 666.82 307.842 670.695 311.37C676.128 305.805 681.39 300.075 686.472 294.187C680.951 288.354 674.86 283.066 668.829 277.774ZM671.28 316.356C663.461 309.592 655.61 301.326 646.92 295.775C636.015 305.751 626.319 316.992 616.329 327.867L576.681 370.405L535.224 413.877C528.233 421.349 520.485 428.949 514.545 437.275C517.714 436.991 520.878 436.711 524.034 436.293C558.149 397.793 593.414 360.327 629.78 323.945C634.713 318.995 645.789 306.209 651.298 303.748C655.357 304.675 664.35 313.976 667.413 317.243C665.156 319.452 663.433 322.428 661.295 324.829C654.575 332.288 647.737 339.64 640.784 346.882C618.988 369.409 596.463 391.254 574.718 413.816C567.898 420.893 561.539 428.363 554.83 435.537C557.909 435.747 561 435.87 564.082 436.034C570.94 427.317 579.953 419.755 587.653 411.74C604.16 394.559 620.168 376.916 637.042 360.08C649.344 347.806 664.906 334.244 675.956 321.375C674.495 319.526 673.135 317.842 671.28 316.356ZM638.575 703.704C618.728 714.695 598.207 724.624 578.136 735.222C553.126 748.307 528.532 762.171 504.39 776.794C497.13 781.113 482.179 788.288 476.331 793.222C471.524 797.277 468.743 802.28 467.016 808.277C479.582 805.076 491.665 797.426 503.137 791.454L548.993 767.588C583.88 749.295 619.25 731.951 653.955 713.309C674.761 703.028 695.399 692.409 715.86 681.457C726.289 675.985 737.468 671.188 747.133 664.425C750.654 661.962 753.733 659.272 755.757 655.394C758.126 650.854 758.765 645.832 757.118 640.966C756.805 640.882 756.5 640.675 756.178 640.714C754.801 640.884 741.892 648.392 739.852 649.501L676.51 683.831C663.899 690.54 651.072 696.765 638.575 703.704ZM650.968 307.285C619.666 338.386 589.98 371.298 560.05 403.716C550.258 414.323 540.741 425.244 530.69 435.6L543.626 435.335L550.97 435.369C575.761 406.431 603.703 380.243 630.317 353.007C636.524 346.644 642.677 340.227 648.775 333.758C653.784 328.525 659.01 323.493 663.157 317.513C659.983 313.831 655.471 309.218 650.968 307.285ZM578.984 354.202C564.736 355.711 528.032 362.087 515.59 368.683C512.031 370.57 509.01 373.976 505.959 376.615C494.067 386.904 482.961 396.713 473.048 409.008C469.975 412.82 466.587 416.972 464.605 421.489C459.065 434.112 452.037 476.462 453.473 489.879C453.793 492.873 454.513 495.712 455.556 498.538C462.92 491.494 469.889 484.071 477.211 476.997L476.95 471.259C477.998 460.715 482.292 455.13 490.209 448.643C491.77 447.367 493.338 446.101 494.915 444.844L494.521 444.113C491.709 438.956 486.011 433.384 484.819 427.71L485.323 427.333C490.606 430.35 496.069 436.955 500.06 441.583C502.81 440.166 505.547 438.805 508.395 437.593C516.327 425.944 527.404 415.881 536.807 405.391C535.128 401.296 531.095 392.748 532.506 388.182C532.669 387.654 532.748 387.608 533.042 387.23C536.451 388.985 538.893 397.636 541.049 401.079C556.041 385.111 571.563 369.663 586.563 353.71C584.099 353.86 581.412 353.832 578.984 354.202ZM500.859 455.162C495.854 455.838 491.655 456.973 488.41 461.182C484.892 465.745 483.906 472.478 484.822 478.053C485.317 481.063 486.599 483.981 489.148 485.796C492.678 488.31 503.371 487.952 507.878 488.384C513.057 488.54 517.587 488.374 522.624 487.135C521.8 477.147 520.228 467.169 519.918 457.156C513.621 454.997 507.452 454.81 500.859 455.162ZM479.496 483.301C470.189 491.728 461.435 500.692 452.423 509.426C444.249 517.347 435.796 524.941 427.744 532.998C436.307 540.574 444.951 548.196 452.939 556.379C470.021 537.326 486.893 517.958 504.328 499.244C494.673 497.027 488.858 494.754 482.63 486.773C481.71 485.594 480.837 483.982 479.496 483.301ZM508.415 499.907L489.304 521.759L489.365 521.695C499.947 526.065 509.057 533.68 513.429 544.521C514.57 547.351 514.84 551.076 516.467 553.613C518.432 555.342 520.88 557.78 523.726 557.475C525.679 557.265 527.039 555.737 528.072 554.208C533.651 545.949 531.387 531.02 529.381 521.894C527.89 515.11 525.318 508.429 524.139 501.622C518.911 500.934 513.669 500.363 508.415 499.907ZM529.3 501.686C530.437 509.059 533.32 516.307 535.02 523.594C543.68 530.37 550.049 538.436 553.626 548.922C555.673 554.926 557.114 559.964 560.62 565.386C564.173 563.878 566.687 562.281 569.404 559.463C572.775 554.929 574.798 550.349 574.048 544.533C572.73 534.306 552.359 510.944 545.753 501.412C540.278 501.599 534.777 501.912 529.3 501.686ZM423.954 537.214C418.005 546.457 412.802 557.888 408.611 568.082C412.057 571.11 415.329 574.239 418.546 577.509L428.909 571.927C435.577 567.88 442.037 563.432 448.985 559.881C443.642 553.977 430.993 540.49 423.954 537.214ZM241.475 569.041L240.593 569.347C233.768 571.681 226.654 572.909 219.752 574.957C211.766 577.327 203.713 580.952 196.341 584.843C164.087 601.869 142.999 628.586 115.034 650.278C102.161 660.263 87.6492 669.13 72.7779 675.793C66.2418 678.721 59.4567 681.047 52.908 683.914C62.8453 692.261 73.9368 698.868 84.7824 705.939C104.603 718.862 124.638 730.817 146.151 740.774C161.671 747.958 177.986 753.373 194.313 758.38C225.068 767.812 254.347 775.087 286.754 775.615C323.539 776.214 360.398 770.839 396.741 779.122C419.072 784.211 438.071 796.894 458.906 805.717C448.772 793.74 437.782 782.448 427.102 770.956C413.981 756.836 401.047 742.589 387.638 728.738L384.6 730.921C383.152 732.091 381.807 733.227 380.128 734.049L379.278 733.85C378.965 731.345 382.259 726.658 383.602 724.472C381.714 722.253 379.861 720.016 377.766 717.987C353.125 712.577 328.416 707.475 303.647 702.682C289.859 700.061 275.972 698.014 262.219 695.193C216.675 685.855 171.662 668.514 124.41 674.13C112.832 675.506 101.902 678.662 90.5818 681.262C141.144 651.921 212.72 680.122 265.442 690.937C277.818 693.476 290.332 695.266 302.738 697.632C325.87 702.092 348.931 706.91 371.914 712.086C357.444 693.322 340.348 676.251 324.632 658.526C316.439 649.285 308.667 639.675 300.492 630.419C286.541 614.675 272.136 599.34 257.294 584.433C253.161 580.243 246.002 571.893 241.475 569.041ZM407.037 572.234C404.421 576.814 402.107 581.559 400.111 586.441L404.45 584.05L413.845 579.318C411.892 576.691 409.736 574.133 407.037 572.234Z" fill="url(#paint0_linear_38_15241)"/>
<path d="M652.946 295.884C652.785 294.428 653.831 293.329 654.733 292.221C658.867 287.143 663.818 281.999 668.826 277.774C674.857 283.066 680.948 288.354 686.469 294.187C681.387 300.075 676.125 305.805 670.692 311.37C666.817 307.842 663.017 304.089 658.944 300.796C660.843 298.592 663.284 296.784 665.503 294.91C661.199 295.479 657.333 296.836 652.946 295.884Z" fill="#98F5E1"/>
<path d="M652.945 295.884C657.332 296.836 661.198 295.479 665.502 294.91C663.283 296.784 660.842 298.592 658.943 300.796C656.904 299.682 654.749 297.413 652.945 295.884Z" fill="#23D2C5"/>
<path d="M671.282 316.356C670.306 316.186 669.614 316.049 668.62 316.165L667.415 317.243C664.352 313.976 655.359 304.675 651.3 303.748C645.791 306.209 634.715 318.995 629.782 323.945C593.416 360.327 558.151 397.793 524.036 436.293C520.88 436.711 517.716 436.991 514.547 437.275C520.487 428.949 528.235 421.349 535.226 413.877L576.683 370.405L616.331 327.867C626.321 316.992 636.017 305.751 646.922 295.775C655.612 301.326 663.463 309.592 671.282 316.356Z" fill="url(#paint1_linear_38_15241)"/>
<path d="M344.891 320.009C351.061 311.859 357.853 306.69 368.169 305.262C377.62 303.952 387.201 306.49 394.765 312.305C400.599 316.726 405.081 322.864 405.981 330.29C406.445 334.111 405.99 337.911 405.049 341.626L402.595 340.388C403.653 337.373 403.464 332.474 402.855 329.384C401.527 322.646 397.063 317.191 391.482 313.416C383.833 308.241 374.598 306.733 365.594 308.584C357.689 310.21 351.993 314.605 347.61 321.191L344.891 320.009Z" fill="#90DBF4"/>
<path d="M530.688 435.6C540.738 425.244 550.255 414.323 560.047 403.716C589.977 371.298 619.664 338.386 650.966 307.285C655.469 309.218 659.981 313.831 663.155 317.513C659.008 323.493 653.782 328.525 648.773 333.758C642.675 340.227 636.522 346.644 630.315 353.007C603.701 380.243 575.759 406.431 550.968 435.369L543.624 435.335L530.688 435.6Z" fill="#B9FBC0"/>
<path d="M347.609 321.191C351.992 314.605 357.688 310.21 365.593 308.584C374.597 306.733 383.832 308.241 391.481 313.416C397.062 317.191 401.526 322.646 402.854 329.384C403.463 332.474 403.652 337.373 402.594 340.388C389.747 337.189 377.035 332.742 364.66 328.051C358.987 325.901 353.386 323.298 347.624 321.425L347.609 321.191Z" fill="#98F5E1"/>
<path d="M667.411 317.243L668.616 316.165C669.61 316.049 670.302 316.186 671.278 316.356C673.133 317.842 674.493 319.526 675.954 321.375C664.904 334.244 649.342 347.806 637.04 360.08C620.166 376.916 604.158 394.559 587.651 411.74C579.951 419.755 570.938 427.317 564.08 436.034C560.998 435.87 557.907 435.747 554.828 435.537C561.537 428.363 567.896 420.893 574.716 413.816C596.461 391.254 618.986 369.409 640.782 346.882C647.735 339.64 654.573 332.288 661.293 324.829C663.431 322.428 665.154 319.452 667.411 317.243Z" fill="#98F5E1"/>
<path d="M344.896 320.009L347.615 321.191L347.63 321.425C344.213 328.356 342.194 335.077 344.683 342.759C346.965 349.805 352.426 355.696 359.119 358.805C367.19 362.554 377.531 362.586 385.798 359.405C392.499 356.827 397.819 351.918 400.68 345.32C401.377 343.698 402.017 342.053 402.6 340.388L405.054 341.626L405.134 341.87C404.536 344.365 403.776 346.916 402.583 349.198C398.84 356.355 391.67 360.603 384.195 363.003C375.306 365.857 365.698 365.671 357.356 361.24C350.168 357.421 344.087 351.022 341.795 343.097C339.477 335.083 341.083 327.221 344.896 320.009Z" fill="#A78FFB"/>
<path d="M347.625 321.425C353.387 323.298 358.988 325.901 364.661 328.051C377.036 332.742 389.748 337.189 402.595 340.388C402.012 342.053 401.372 343.698 400.675 345.32C397.814 351.918 392.494 356.827 385.793 359.405C377.526 362.586 367.185 362.554 359.114 358.805C352.421 355.696 346.96 349.805 344.678 342.759C342.189 335.077 344.208 328.356 347.625 321.425Z" fill="#FFCFD2"/>
<path d="M269.661 377.259C264.624 378.627 257.824 379.149 253.026 376.905C249.865 375.427 247.662 372.745 246.626 369.434C245.232 364.977 245.538 359.466 247.738 355.312C250.519 350.062 255.392 347.816 260.764 346.093C266.156 345.746 271.262 345.517 276.155 348.306C280.016 350.508 283.022 354.102 284.173 358.429C285.116 361.841 284.642 365.489 282.858 368.546C279.987 373.418 274.869 375.771 269.661 377.259ZM259.322 350.081C255.359 351.357 252.436 352.962 250.395 356.753C248.649 359.996 248.289 364.141 249.438 367.64C250.402 370.579 252.448 372.803 255.256 374.081C259.831 376.161 264.95 375.341 269.627 374.118C273.844 372.293 278.113 370.182 279.964 365.641C280.942 363.272 280.91 360.606 279.874 358.261C278.295 354.712 274.995 352.395 271.42 351.136C267.486 349.749 263.424 349.757 259.322 350.081Z" fill="#A78FFB"/>
<path d="M269.626 374.118C264.949 375.341 259.83 376.161 255.255 374.081C252.447 372.803 250.401 370.579 249.437 367.64C248.288 364.141 248.648 359.996 250.394 356.753C252.435 352.962 255.358 351.357 259.321 350.081C263.423 349.757 267.485 349.749 271.419 351.136C274.994 352.395 278.294 354.712 279.873 358.261C280.909 360.606 280.941 363.272 279.963 365.641C278.112 370.182 273.843 372.293 269.626 374.118Z" fill="#FFCFD2"/>
<path d="M592.174 412.034C596.051 406.628 601.731 401.599 606.32 396.707C620.177 381.897 634.396 367.428 648.962 353.315C668.701 363.665 685.663 377.398 702.761 391.541C715.451 402.01 728.041 412.6 740.529 423.309C749.908 431.301 759.297 439.573 769.348 446.708C800.921 469.121 845.712 483.88 882.464 496.012C881.987 500.421 891.398 536.94 892.971 543.499C898.562 566.811 916.425 658.92 911.653 678.263C911.62 678.397 911.595 678.533 911.566 678.668C884.566 654.62 853.97 633.703 824.048 613.481C805 600.607 784.238 584.248 761.946 577.776C749.317 574.109 731.828 576.228 718.258 575.377C685.198 573.305 662.217 563.772 634.059 546.433C627.129 542.166 620.735 536.865 613.588 532.978L613.193 532.768C610.157 530.29 606.462 528.474 603.27 526.133C602.198 518.428 596.551 514.592 592.535 507.944C590.094 503.903 588.564 499.703 587.024 495.252C610.036 496.992 626.626 514.284 645.264 525.804C667.074 539.283 701.744 553.654 727.515 547.348C737.091 545.006 744.223 540.592 751.294 533.858C753.042 532.193 755.19 530.225 756.365 528.106C756.889 527.161 756.946 527.061 756.674 525.983C755.516 525.859 755.363 525.984 754.428 526.627C749.169 530.244 746.57 534.992 739.743 538.92C728.74 545.25 717.593 545.717 705.273 544.109C683.849 541.312 661.928 531.32 644.063 519.308C628.171 508.623 613.628 494.967 594.214 491.451C573.593 487.717 562.269 494.231 542.978 496.624C527.04 498.601 509.534 495.665 494.095 491.441C493.679 490.751 493.752 491.131 493.929 490.294C501.821 491.788 510.838 493.119 518.82 491.585C521.839 491.004 525.248 489.76 527 487.079C527.859 483.076 525.863 462.385 524.717 458.146C524.078 455.785 523.379 454.138 521.159 452.981C513.09 448.775 499.545 450.556 491.172 453.006C523.293 428.873 573.277 444.775 610.051 443.489C619.392 443.162 628.113 440.817 637.076 438.45C642.322 437.064 648.393 436.568 653.061 433.709C655.715 432.479 661.62 429.682 662.785 426.886L662.114 425.569C661.827 425.507 661.544 425.353 661.251 425.381C660.812 425.423 650.834 430.943 648.909 431.722C643.053 433.243 637.189 434.73 631.316 436.185C633.574 424.131 637.684 403.555 630.156 392.819C629.761 392.256 629.72 392.347 629.011 391.867C627.881 392.284 628 392.716 627.508 393.763C627.562 398.492 629.42 403.077 629.439 407.761C629.477 417.265 627.516 426.601 627.38 436.037L626.868 435.907C619.282 423.816 604.879 417.328 592.174 412.034ZM654.267 412.191C652.773 416.418 649.941 422.986 650.996 427.444L652.019 428.532C654.762 426.154 655.395 419.979 655.638 416.383C655.719 415.178 655.673 414.199 655.409 413.028C655.032 412.709 654.718 412.399 654.267 412.191ZM666.336 543.646C666.491 548.586 669.096 553.248 672.696 556.568C675.843 559.472 678.553 560.738 682.797 560.507C678.886 557.665 675.602 554.966 672.483 551.276C670.564 549.007 668.873 544.858 666.336 543.646ZM757.527 555.41C757.839 556.842 757.856 557.805 759.164 558.706C761.996 560.657 775.969 564.723 780.896 566.832C798.502 574.369 816.232 581.873 833.557 590.032C841.621 593.829 850.559 600.866 859.23 602.651L859.465 600.463C853.035 592.635 771.588 556.882 760.068 555.477C759.225 555.376 758.374 555.353 757.527 555.41Z" fill="#B9FBC0"/>
<path d="M482.172 353.99C488.86 354.161 544.216 353.363 545.718 354.873C545.867 355.022 545.988 355.196 546.123 355.357C529.644 359.512 519.608 360.247 505.55 370.532C501.021 366.866 491.819 357.343 486.992 355.585L485.044 355.813L485.213 354.988C484.202 354.523 483.245 354.265 482.172 353.99Z" fill="#DAF9F5"/>
<path d="M455.554 498.538C454.511 495.712 453.791 492.873 453.471 489.879C452.035 476.462 459.063 434.112 464.603 421.489C466.585 416.972 469.973 412.82 473.046 409.008C482.959 396.713 494.065 386.904 505.957 376.615C509.008 373.976 512.029 370.57 515.588 368.683C528.03 362.087 564.734 355.711 578.982 354.202C581.41 353.832 584.097 353.86 586.561 353.71C571.561 369.663 556.039 385.111 541.047 401.079C538.891 397.636 536.449 388.985 533.04 387.23C532.746 387.608 532.667 387.654 532.504 388.182C531.093 392.748 535.126 401.296 536.805 405.391C527.402 415.881 516.325 425.944 508.393 437.593C505.545 438.805 502.808 440.166 500.058 441.583C496.067 436.955 490.604 430.35 485.321 427.333L484.817 427.71C486.009 433.384 491.707 438.956 494.519 444.113L494.913 444.844C493.336 446.101 491.768 447.367 490.207 448.643C482.29 455.13 477.996 460.715 476.948 471.259L477.209 476.997C469.887 484.071 462.918 491.494 455.554 498.538Z" fill="#DAF9F5"/>
<path d="M553.687 564.53C555.525 566.369 557.478 567.87 560.137 568.197C564.487 568.731 568.103 565.966 571.381 563.527C573.034 564.272 574.249 565.154 574.976 566.877C576.416 570.289 576.649 574.752 577.121 578.408C580.097 601.482 578.635 624.861 575.239 647.794C574.712 651.349 574.433 656.428 573.009 659.708C572.846 660.082 572.527 660.555 572.323 660.88C533.446 642.695 487.69 625.871 445.092 641.138C425.77 648.063 406.648 660.419 397.626 679.547C395.719 683.59 394.656 689.433 392.168 692.917L347.447 646.867C333.021 632.29 318.75 617.559 304.637 602.678C290.779 587.787 277.854 572.015 263.971 557.11C251.938 544.238 239.782 531.482 227.506 518.841C218.816 509.768 210.09 501.077 202.414 491.105C218.979 484.701 234.591 476.644 250.54 468.904C281.386 453.935 311.88 438.201 342.915 423.65C359.897 415.688 376.865 407.332 394.124 400.006C424.75 387.006 456.069 375.181 485.909 360.409C491.536 364.08 497.049 369.104 502.005 373.659C497.814 378.127 492.735 382.008 488.226 386.18C478.926 394.786 465.107 409.122 460.185 420.619C454.315 434.331 447.572 473.794 448.365 488.754C448.624 493.644 449.734 497.726 451.545 502.257C442.444 512.233 429.187 522.323 421.744 532.953C414.643 543.092 406.301 562.821 400.592 574.683C398.376 579.287 395.134 584.36 393.729 589.216C393.511 589.971 393.606 590.648 393.736 591.403C394.466 592.327 394.338 592.425 395.545 592.776C407.414 590.275 432.287 574.198 443.29 567.453C447.121 565.105 451.797 563.047 455.11 560.031C458.912 556.571 462.233 552.209 465.657 548.36C472.762 540.287 479.959 532.296 487.247 524.388C488.995 525.16 490.744 525.986 492.38 526.979C500.977 532.192 509.293 541.207 511.653 551.197C511.211 552.416 510.879 553.536 510.628 554.816C510.916 556.131 511.476 556.834 512.39 557.775C515.142 560.604 518.267 562.707 522.343 562.617C525.728 562.543 528.892 561.198 531.131 558.636C537.796 551.011 536.463 538.265 535.835 528.964C547.572 540.403 549.725 549.55 553.687 564.53ZM486.197 369.832C486.326 372.224 486.712 374.03 488.501 375.749C489.747 376.946 491.494 377.925 493.043 378.678C493.059 376.14 493.014 373.992 491.128 372.087C489.769 370.713 488.044 370.174 486.197 369.832Z" fill="url(#paint2_linear_38_15241)"/>
<path d="M493.041 378.678C491.492 377.925 489.745 376.946 488.499 375.749C486.71 374.03 486.324 372.224 486.195 369.832C488.042 370.174 489.767 370.713 491.126 372.087C493.012 373.992 493.057 376.14 493.041 378.678Z" fill="#F1C0E8"/>
<path d="M713.664 395.241C718.799 391.484 729.215 392.214 735.363 391.868C755.084 390.76 772.195 389.87 791.903 392.8C809.872 395.471 838.05 408.83 855.197 405.608L855.46 405.729C859.866 421.961 866.434 437.733 871.105 453.942C874.625 466.156 876.395 480.376 881.025 491.97C845.793 480.423 796.556 462.63 767.254 440.349C748.692 426.236 732.239 409.438 713.664 395.241Z" fill="#B9FBC0"/>
<path d="M592.177 412.034C604.882 417.328 619.285 423.816 626.871 435.907L627.383 436.037C627.519 426.601 629.48 417.265 629.442 407.761C629.423 403.077 627.565 398.492 627.511 393.763C628.003 392.716 627.884 392.284 629.014 391.867C629.723 392.347 629.764 392.256 630.159 392.819C637.687 403.555 633.577 424.131 631.319 436.185L631.753 436.769C630.689 436.563 630.038 436.303 628.991 436.593L628.852 436.521L627.479 437.473C625.759 436.927 624.134 433.339 622.686 433.613L622.417 435.063L623.622 436.435L623.477 437.497C613.493 427.798 601.248 421.717 589.039 415.339C590.523 414.394 591.219 413.498 592.177 412.034Z" fill="#133162"/>
<path d="M652.019 428.532L650.996 427.444C649.941 422.986 652.773 416.418 654.267 412.191C654.718 412.399 655.032 412.709 655.409 413.028C655.673 414.199 655.719 415.178 655.638 416.383C655.395 419.979 654.762 426.154 652.019 428.532Z" fill="#133162"/>
<path d="M568.391 436.285C575.493 429.519 581.949 422.107 589.041 415.339C601.25 421.717 613.495 427.798 623.479 437.497C604.826 440.222 586.974 437.436 568.391 436.285Z" fill="#B9FBC0"/>
<path d="M648.914 431.722C650.839 430.943 660.817 425.423 661.256 425.381C661.549 425.353 661.832 425.507 662.119 425.569L662.79 426.886C661.625 429.682 655.72 432.479 653.066 433.709C652.854 433.239 652.975 433.581 652.975 432.626C653.794 432.308 654.454 432.001 655.173 431.494L655.049 430.535L654.156 430.281C653.523 430.882 653.247 431.056 652.384 431.292C651.283 431.594 651.704 431.398 650.655 431.94C650.434 432.054 650.22 432.182 650.003 432.302L648.914 431.722Z" fill="#133162"/>
<path d="M507.879 488.384C503.372 487.952 492.679 488.31 489.149 485.796C486.6 483.981 485.318 481.063 484.823 478.053C483.907 472.478 484.893 465.745 488.411 461.182C491.656 456.973 495.855 455.838 500.86 455.162C507.453 454.81 513.622 454.997 519.919 457.156C520.229 467.169 521.801 477.147 522.625 487.135C517.588 488.374 513.058 488.54 507.879 488.384Z" fill="#DAF9F5"/>
<path d="M427.742 532.998C435.794 524.941 444.247 517.347 452.421 509.426C461.433 500.692 470.187 491.728 479.494 483.301C480.835 483.982 481.708 485.594 482.628 486.773C488.856 494.754 494.671 497.027 504.326 499.244C486.891 517.958 470.019 537.326 452.937 556.379C444.949 548.196 436.305 540.574 427.742 532.998ZM494.931 499.762C487.511 505.719 479.722 515.727 473.101 522.875C465.499 531.083 456.595 539.276 449.905 548.166C450.349 549.423 450.729 549.553 451.812 550.368C457.275 545.635 495.872 504.95 496.408 500.761C495.878 500.275 495.618 500.011 494.931 499.762ZM469.282 505.748C466.853 508.412 445.969 532.252 445.41 533.731C445.278 534.078 445.32 534.468 445.276 534.836C446.108 535.848 446.696 536.175 447.905 536.662C452.09 532.94 470.984 513.467 471.876 508.667C472.101 507.454 471.65 507.095 470.961 506.213L469.282 505.748Z" fill="#DAF9F5"/>
<path d="M557.534 510.334C557.473 510.329 557.41 510.334 557.351 510.321C554.897 509.771 552.244 505.348 551.01 503.172C550.19 501.726 549.752 500.778 550.183 499.153C550.951 498.639 562.022 496.405 565.114 495.179L566.002 493.118C560.799 493.246 550.169 496.262 544.465 497.329C532.019 499.657 508.218 497.038 496.241 492.984C495.043 492.579 494.679 492.618 494.102 491.441C509.541 495.665 527.047 498.601 542.985 496.624C562.276 494.231 573.6 487.717 594.221 491.451C613.635 494.967 628.178 508.623 644.07 519.308C661.935 531.32 683.856 541.312 705.28 544.109C717.6 545.717 728.747 545.25 739.75 538.92C746.577 534.992 749.176 530.244 754.435 526.627C755.37 525.984 755.523 525.859 756.681 525.983C756.953 527.061 756.896 527.161 756.372 528.106C755.197 530.225 753.049 532.193 751.301 533.858C744.23 540.592 737.098 545.006 727.522 547.348C701.751 553.654 667.081 539.283 645.271 525.804C626.633 514.284 610.043 496.992 587.031 495.252C588.571 499.703 590.101 503.903 592.542 507.944C596.558 514.592 602.205 518.428 603.277 526.133C606.469 528.474 610.164 530.29 613.2 532.768C612.969 532.781 612.738 532.804 612.506 532.807C610.232 532.837 603.964 528.116 602.141 526.668C601.733 523.843 601.595 519.817 599.01 517.999C598.457 517.61 598.368 517.602 597.812 517.369C598.128 519.311 597.057 520.135 597.155 521.547C597.218 522.46 597.963 524.067 598.194 525.026C597.223 525.514 597.729 525.464 596.597 525.1C592.576 523.806 587.614 521.962 583.922 519.952C581.919 518.862 578.678 517.151 576.322 517.727C576.126 517.775 575.943 517.866 575.754 517.936L575.371 518.907C576.235 519.829 575.692 519.546 576.794 519.72C579.463 520.144 582.427 521.701 584.948 522.694C594.214 526.343 602.456 529.402 610.579 535.333L610.859 536.515C606.023 533.324 601.087 530.183 595.734 527.92C587.365 524.382 578.461 522.014 570.59 517.376L570.4 516.453C570.921 514.801 572.023 513.679 573.123 512.388C570.93 506.804 568.284 501.409 565.213 496.256C560.091 497.412 555.05 498.952 550.002 500.391C552.476 503.732 554.987 507.047 557.534 510.334ZM572.254 495.144L571.385 495.837C573.052 502.534 578.525 508.548 577.435 515.765C582.317 519.345 590.153 521.651 595.873 523.769L596.838 523.787C596.664 521.669 590.819 514.573 589.45 512.038C586.495 506.57 584.673 500.818 583.265 494.789C579.588 494.843 575.926 494.919 572.254 495.144Z" fill="#133162"/>
<path d="M392.169 692.917C394.657 689.433 395.72 683.59 397.627 679.547C406.649 660.419 425.771 648.063 445.093 641.138C487.691 625.871 533.447 642.695 572.324 660.88C581.806 665.573 630.442 693.684 635.404 700.537C609.389 713.966 583.46 727.56 557.617 741.317C540.731 750.505 524.076 760.304 507.466 769.988C502.129 773.144 496.754 776.236 491.342 779.264C485.621 782.432 479.375 785.355 474.285 789.492C469.377 793.482 466.337 798.392 463.826 804.117L396.773 731.289C390.571 724.561 383.893 718.241 377.815 711.412L329.032 656.999C321.039 647.976 313.448 638.602 305.327 629.69C287.046 609.629 268.156 590.23 249.52 570.511C232.442 552.44 214.276 528.509 193.086 515.29C196.05 508.342 198.088 500.916 200.027 493.626C206.714 503.671 215.763 512.134 224.025 520.898L264.672 563.85C279.825 580.004 293.964 597.118 309.171 613.216C328.602 633.785 348.53 653.838 368.23 674.14C378.917 685.153 389.311 696.453 400.041 707.42C406.918 714.449 414.062 721.219 420.906 728.277L459.776 768.485C463.84 772.642 467.842 778.568 472.565 781.889C473.61 782.623 474.134 782.952 475.428 782.692C475.61 782.273 475.768 781.987 475.798 781.501C475.872 780.284 475.298 779.035 474.588 778.084C472.435 775.196 469.352 772.536 466.873 769.884C459.349 761.836 451.64 754.016 443.913 746.166L392.169 692.917Z" fill="#FDE4CF"/>
<path d="M595.871 523.769C590.151 521.651 582.315 519.345 577.433 515.765C578.523 508.548 573.05 502.534 571.383 495.837L572.252 495.144C575.924 494.919 579.586 494.843 583.263 494.789C584.671 500.818 586.493 506.57 589.448 512.038C590.817 514.573 596.662 521.669 596.836 523.787L595.871 523.769Z" fill="#B9FBC0"/>
<path d="M557.532 510.334C554.985 507.047 552.474 503.732 550 500.391C555.048 498.952 560.089 497.412 565.211 496.256C568.282 501.409 570.928 506.804 573.121 512.388C572.021 513.679 570.919 514.801 570.398 516.453L570.588 517.376C578.459 522.014 587.363 524.382 595.732 527.92C601.085 530.183 606.021 533.324 610.857 536.515C619.608 543.254 629.191 549.338 638.744 554.866C660.359 567.375 678.346 574.713 703.266 578.373C708.44 583.574 713.611 588.755 718.397 594.32C730.501 608.397 741.215 623.029 754.461 636.117C742.001 643.732 729.085 650.443 716.232 657.36C689.355 671.823 662.076 685.731 635.406 700.537C630.444 693.684 581.808 665.573 572.326 660.88C572.53 660.555 572.849 660.082 573.012 659.708C574.436 656.428 574.715 651.349 575.242 647.794C578.638 624.861 580.1 601.482 577.124 578.408C576.652 574.752 576.419 570.289 574.979 566.877C574.252 565.154 573.037 564.272 571.384 563.527C575.868 558.997 579.178 553.928 579.698 547.397C580.665 535.257 565.385 519.293 557.532 510.334Z" fill="#B9FBC0"/>
<path d="M451.813 550.368C450.73 549.553 450.35 549.423 449.906 548.166C456.596 539.276 465.5 531.083 473.102 522.875C479.723 515.727 487.512 505.719 494.932 499.762C495.619 500.011 495.879 500.275 496.409 500.761C495.873 504.95 457.276 545.635 451.813 550.368Z" fill="#133162"/>
<path d="M489.366 521.695L489.305 521.759L508.416 499.907C513.67 500.363 518.912 500.934 524.14 501.622C525.319 508.429 527.891 515.11 529.382 521.894C531.388 531.02 533.652 545.949 528.073 554.208C527.04 555.737 525.68 557.265 523.727 557.475C520.881 557.78 518.433 555.342 516.468 553.613C514.841 551.076 514.571 547.351 513.43 544.521C509.058 533.68 499.948 526.065 489.366 521.695Z" fill="#DAF9F5"/>
<path d="M535.017 523.594C533.317 516.307 530.434 509.059 529.297 501.686C534.774 501.912 540.275 501.599 545.75 501.412C552.356 510.944 572.727 534.306 574.045 544.533C574.795 550.349 572.772 554.929 569.401 559.463C566.684 562.281 564.17 563.878 560.617 565.386C557.111 559.964 555.67 554.926 553.623 548.922C550.046 538.436 543.677 530.37 535.017 523.594Z" fill="#B9FBC0"/>
<path d="M447.902 536.662C446.693 536.175 446.105 535.848 445.273 534.836C445.317 534.468 445.275 534.078 445.407 533.731C445.966 532.252 466.85 508.412 469.279 505.748L470.958 506.213C471.647 507.095 472.098 507.454 471.873 508.667C470.981 513.467 452.087 532.94 447.902 536.662Z" fill="#133162"/>
<path d="M408.609 568.082C412.8 557.888 418.003 546.457 423.952 537.214C430.991 540.49 443.64 553.977 448.983 559.881C442.035 563.432 435.575 567.88 428.907 571.927L418.544 577.509C415.327 574.239 412.055 571.11 408.609 568.082Z" fill="#DAF9F5"/>
<path d="M682.797 560.507C678.553 560.738 675.843 559.472 672.696 556.568C669.096 553.248 666.491 548.586 666.336 543.646C668.873 544.858 670.564 549.007 672.483 551.276C675.602 554.966 678.886 557.665 682.797 560.507Z" fill="#133162"/>
<path d="M859.234 602.651C850.563 600.866 841.625 593.829 833.561 590.032C816.236 581.873 798.506 574.369 780.9 566.832C775.973 564.723 762 560.657 759.168 558.706C757.86 557.805 757.843 556.842 757.531 555.41C758.378 555.353 759.229 555.376 760.072 555.477C771.592 556.882 853.039 592.635 859.469 600.463L859.234 602.651Z" fill="#133162"/>
<path d="M52.9062 683.914C59.4549 681.047 66.24 678.721 72.7761 675.793C87.6474 669.13 102.159 660.263 115.032 650.278C142.997 628.586 164.085 601.869 196.339 584.843C203.711 580.952 211.764 577.327 219.75 574.957C226.652 572.909 233.766 571.681 240.591 569.347L241.473 569.041C246 571.893 253.159 580.243 257.292 584.433C272.134 599.34 286.539 614.675 300.49 630.419C308.665 639.675 316.437 649.285 324.63 658.526C340.346 676.251 357.442 693.322 371.912 712.086C348.929 706.91 325.868 702.092 302.736 697.632C290.33 695.266 277.816 693.476 265.44 690.937C212.718 680.122 141.142 651.921 90.5801 681.262C101.9 678.662 112.83 675.506 124.408 674.13C171.66 668.514 216.673 685.855 262.217 695.193C275.97 698.014 289.857 700.061 303.645 702.682C328.414 707.475 353.123 712.577 377.764 717.987C379.859 720.016 381.712 722.253 383.6 724.472C382.257 726.658 378.963 731.345 379.276 733.85L380.126 734.049C381.805 733.227 383.15 732.091 384.598 730.921L387.636 728.738C401.045 742.589 413.979 756.836 427.1 770.956C437.78 782.448 448.77 793.74 458.904 805.717C438.069 796.894 419.07 784.211 396.739 779.122C360.396 770.839 323.537 776.214 286.752 775.615C254.345 775.087 225.066 767.812 194.311 758.38C177.984 753.373 161.669 747.958 146.149 740.774C124.636 730.817 104.601 718.862 84.7807 705.939C73.9351 698.868 62.8435 692.261 52.9062 683.914ZM229.695 591.615C228.712 592.01 227.915 592.095 227.34 593.016C229.205 594.291 237.321 593.472 240.011 593.727C245.984 594.291 251.968 595.657 257.858 596.811L258.592 596.646C249.335 591.847 239.941 591.091 229.695 591.615ZM190.355 614.217C182.796 614.753 175.459 615.742 168.937 619.888C192.24 616.032 211.506 616.465 233.142 627.225C238.271 629.919 243.417 633.013 248.754 635.229C233.668 621.338 211.921 613.227 191.394 614.14C191.047 614.155 190.701 614.188 190.355 614.217ZM260.039 613.761C265.427 624.611 278.674 636.57 290.098 640.644C290.859 640.915 291.583 641.056 292.386 641.128C285.611 635.145 278.039 630.128 271.294 624.112C267.911 621.094 263.926 615.688 260.039 613.761ZM157.392 645.103C155.938 645.422 154.462 645.582 153.277 646.546L153.211 646.757C158.16 647.812 167.863 647.296 173.685 647.804C183.119 648.626 192.431 650.58 201.815 651.81L203.875 652.004L203.952 651.733C191.846 646.576 170.313 644.451 157.392 645.103ZM215.414 656.717C218.614 662.956 250.833 675.583 258.519 678.073C262.577 679.388 267.415 680.991 271.714 680.423C270.112 678.103 241.372 667.748 236.105 665.196C231.08 662.762 225.186 657.88 219.815 656.782C218.4 656.493 216.845 656.624 215.414 656.717ZM268.304 657.073C268.506 658.046 268.332 658.46 269.193 659.043C272.313 661.155 277.663 662.425 281.316 663.802C289.302 666.811 297.495 669.894 304.929 674.12C310.375 677.202 315.227 681.23 319.259 686.014C321.205 688.281 322.902 690.876 325.343 692.633C325.158 687.581 318.527 680.659 314.976 677.386C306.539 669.61 281.06 656.508 269.587 656.997C269.159 657.018 268.731 657.043 268.304 657.073ZM156.233 687.675C149.001 688.986 130.049 693.613 124.338 698.124C124.855 698.476 124.629 698.43 124.938 698.469C129.561 696.914 154.642 689.277 156.639 687.699L156.233 687.675ZM213.935 701.199C201.459 702.774 171.927 707.123 163.976 715.844L164.244 716.341C165.28 716.174 166.121 716.039 167.118 715.7C174.354 713.294 181.588 710.969 189 709.162C196.916 707.233 210.99 705.549 217.679 701.998L217.957 701.313C216.701 700.633 215.292 701.028 213.935 701.199ZM282.262 709.67C259.963 712.765 227.15 727.762 213.183 745.873C212.885 746.262 212.593 746.656 212.307 747.054C215.346 745.349 217.918 743.263 220.6 741.051C236.503 729.117 252.967 719.673 272.324 714.475C276.784 713.277 290.136 711.961 292.845 710.242C290.918 708.777 284.9 709.452 282.472 709.64C282.402 709.646 282.332 709.66 282.262 709.67ZM343.828 720.695C337.682 722.001 331.63 723.714 325.712 725.824C314.963 729.737 284.778 743.471 278.399 751.935L278.501 752.397C284.931 749.159 291.031 745.308 297.413 741.982C309.245 735.911 321.415 730.521 333.861 725.838C336.176 724.945 342.897 722.876 343.828 720.695ZM379.762 736.594C357.666 741.734 328.221 752.224 315.802 772.558C315.49 773.071 315.19 773.591 314.902 774.118C318.776 771.822 322.029 768.634 325.283 765.549C339.953 754.177 355.145 747.013 373.048 742.186C379.17 740.536 384.898 739.316 391.253 739.355C392.211 739.361 393.516 739.816 393.828 738.844C393.051 737.667 392.064 737.28 390.732 736.982C387.093 736.169 383.454 736.272 379.762 736.594ZM396.975 743.241C396.637 745.471 396.336 747.708 395.388 749.779C393.119 754.738 383.069 762.976 382.806 766.322L383.737 766.484C389.337 762.811 397.137 757.642 398.703 750.636C399.196 748.431 398.94 745.98 397.665 744.07C397.339 743.582 397.325 743.595 396.975 743.241Z" fill="url(#paint3_linear_38_15241)"/>
<path d="M400.109 586.441C402.105 581.559 404.419 576.814 407.035 572.234C409.734 574.133 411.89 576.691 413.843 579.318L404.448 584.05L400.109 586.441Z" fill="#DAF9F5"/>
<path d="M912.166 684.92C912.062 685.143 911.952 685.363 911.855 685.59C909.979 690.008 911.208 697.593 910.643 702.508C910.071 707.483 908.761 712.777 907.395 717.59C893.791 765.514 861.262 813.141 815.026 834.306C799.454 841.434 776.136 849.427 759.188 850.315C762.169 843.521 763.658 836.582 763.059 829.166C760.04 791.777 708.601 751.219 680.304 729.89C673.885 725.052 666.308 721.241 660.288 716.039C660.172 715.939 660.059 715.837 659.945 715.735C680.142 704.241 701.23 693.88 721.855 683.154C731.582 678.095 746.726 671.975 754.526 664.545C759.479 659.827 762.273 652.501 762.268 645.744C762.266 641.859 761.342 637.715 759.302 634.376C756.221 629.333 749.682 625.513 745.692 620.935C739.735 614.1 734.374 606.684 728.665 599.636C722.93 592.557 716.894 585.978 710.559 579.43C716.948 579.753 723.358 580.107 729.757 580.057C741.506 579.965 752.566 578.864 764.071 582.068C782.383 587.166 799.037 601.038 814.559 611.636C848.729 634.968 880.794 657.779 912.166 684.92Z" fill="#B9FBC0"/>
<path d="M257.862 596.811C251.972 595.657 245.988 594.291 240.015 593.727C237.325 593.472 229.209 594.291 227.344 593.016C227.919 592.095 228.716 592.01 229.699 591.615C239.945 591.091 249.339 591.847 258.596 596.646L257.862 596.811Z" fill="#393164"/>
<path d="M168.938 619.888C175.459 615.742 182.796 614.753 190.355 614.217C190.701 614.188 191.048 614.155 191.395 614.14C211.922 613.227 233.669 621.338 248.755 635.229C243.418 633.013 238.272 629.919 233.143 627.225C211.507 616.465 192.24 616.032 168.938 619.888Z" fill="#393164"/>
<path d="M292.386 641.128C291.583 641.056 290.859 640.915 290.098 640.644C278.674 636.57 265.427 624.611 260.039 613.761C263.926 615.688 267.911 621.094 271.294 624.112C278.039 630.128 285.611 635.145 292.386 641.128Z" fill="#393164"/>
<path d="M638.57 703.704C651.067 696.765 663.894 690.54 676.505 683.831L739.847 649.501C741.887 648.392 754.796 640.884 756.173 640.714C756.495 640.675 756.8 640.882 757.113 640.966C758.76 645.832 758.121 650.854 755.752 655.394C753.728 659.272 750.649 661.962 747.128 664.425C737.463 671.188 726.284 675.985 715.855 681.457C695.394 692.409 674.756 703.028 653.95 713.309C649.143 709.713 643.045 707.772 638.57 703.704Z" fill="#B9FBC0"/>
<path d="M201.815 651.81C192.431 650.58 183.119 648.626 173.685 647.804C167.863 647.296 158.16 647.812 153.211 646.757L153.277 646.546C154.462 645.582 155.938 645.422 157.392 645.103C170.313 644.451 191.846 646.576 203.952 651.733L203.875 652.004L201.815 651.81Z" fill="#393164"/>
<path d="M271.714 680.423C267.415 680.991 262.577 679.388 258.519 678.073C250.833 675.583 218.614 662.956 215.414 656.717C216.845 656.624 218.4 656.493 219.815 656.782C225.186 657.88 231.08 662.762 236.105 665.196C241.372 667.748 270.112 678.103 271.714 680.423Z" fill="#133162"/>
<path d="M325.344 692.633C322.903 690.876 321.206 688.281 319.26 686.014C315.228 681.23 310.376 677.202 304.93 674.12C297.496 669.894 289.303 666.811 281.317 663.802C277.664 662.425 272.314 661.155 269.194 659.043C268.333 658.46 268.507 658.046 268.305 657.073C268.732 657.043 269.16 657.018 269.588 656.997C281.061 656.508 306.54 669.61 314.977 677.386C318.528 680.659 325.159 687.581 325.344 692.633Z" fill="url(#paint4_linear_38_15241)"/>
<path d="M124.936 698.469C124.627 698.43 124.853 698.476 124.336 698.124C130.047 693.613 148.999 688.986 156.231 687.675L156.637 687.699C154.64 689.277 129.559 696.914 124.936 698.469Z" fill="#393164"/>
<path d="M167.119 715.7C166.122 716.039 165.281 716.174 164.245 716.341L163.977 715.844C171.928 707.123 201.46 702.774 213.936 701.199C215.293 701.028 216.702 700.633 217.958 701.313L217.68 701.998C210.991 705.549 196.917 707.233 189.001 709.162C181.589 710.969 174.355 713.294 167.119 715.7Z" fill="#393164"/>
<path d="M71.2969 701.764C83.7415 710.257 96.0473 719.105 109.112 726.626C136.135 742.183 163.761 753.718 193.49 762.972C228.641 773.913 260.399 780.119 297.336 780.115C329.733 780.113 361.765 775.742 393.876 782.467C419.902 787.917 441.211 804.07 465.951 812.831C480.736 809.842 497.563 799.375 511.192 792.386L576.294 758.658C578.718 763.445 580.782 768.36 583.487 773.009C606.868 813.183 641.151 838.497 680.044 862.147C676.167 864.074 632.821 866.579 623.948 867.903C602.509 871.102 581.038 875.996 560.668 883.449C546.52 888.763 533.009 895.64 520.387 903.951C475.925 933.712 451.694 967.454 392.656 969.966C334.185 972.453 277.623 944.386 230.741 911.87C215.755 901.476 201.023 890.329 187.574 877.984C181.271 872.199 174.673 866.496 168.728 860.346C162.881 854.297 157.501 847.673 152.071 841.245C124.664 809.165 101.732 773.52 83.8999 735.281C79.8768 726.868 71.681 710.722 71.2969 701.764Z" fill="#FDE4CF"/>
<path d="M467.016 808.277C468.743 802.28 471.524 797.277 476.331 793.222C482.179 788.288 497.13 781.113 504.39 776.794C528.532 762.171 553.126 748.307 578.136 735.222C598.207 724.624 618.728 714.695 638.575 703.704C643.05 707.772 649.148 709.713 653.955 713.309C619.25 731.951 583.88 749.295 548.993 767.588L503.137 791.454C491.665 797.426 479.582 805.076 467.016 808.277Z" fill="url(#paint5_linear_38_15241)"/>
<path d="M212.305 747.054C212.591 746.656 212.883 746.262 213.181 745.873C227.148 727.762 259.961 712.765 282.26 709.67C282.33 709.66 282.4 709.646 282.47 709.64C284.898 709.452 290.916 708.777 292.843 710.242C290.134 711.961 276.782 713.277 272.322 714.475C252.965 719.673 236.501 729.117 220.598 741.051C217.916 743.263 215.344 745.349 212.305 747.054Z" fill="#393164"/>
<path d="M576.297 758.658C588.803 751.038 602.741 744.81 615.888 738.324C630.631 730.906 645.317 723.377 659.945 715.735C660.059 715.837 660.172 715.939 660.288 716.039C666.308 721.241 673.885 725.052 680.304 729.89C708.601 751.219 760.04 791.777 763.059 829.166C763.658 836.582 762.169 843.521 759.188 850.315C753.402 861.052 745.756 870.383 733.631 873.926C715.361 879.266 696.252 869.694 680.047 862.147C641.154 838.497 606.871 813.183 583.49 773.009C580.785 768.36 578.721 763.445 576.297 758.658Z" fill="#D1F789"/>
<path d="M278.5 752.397L278.398 751.935C284.777 743.471 314.962 729.737 325.711 725.824C331.629 723.714 337.681 722.001 343.827 720.695C342.896 722.876 336.175 724.945 333.86 725.838C321.414 730.521 309.244 735.911 297.412 741.982C291.03 745.308 284.93 749.159 278.5 752.397Z" fill="url(#paint6_linear_38_15241)"/>
<path d="M314.898 774.118C315.186 773.591 315.486 773.071 315.798 772.558C328.217 752.224 357.662 741.734 379.758 736.594C383.45 736.272 387.089 736.169 390.728 736.982C392.06 737.28 393.047 737.667 393.824 738.844C393.512 739.816 392.207 739.361 391.249 739.355C384.894 739.316 379.166 740.536 373.044 742.186C355.141 747.013 339.949 754.177 325.279 765.549C322.025 768.634 318.772 771.822 314.898 774.118Z" fill="url(#paint7_linear_38_15241)"/>
<path d="M383.736 766.484L382.805 766.322C383.068 762.976 393.118 754.738 395.387 749.779C396.335 747.708 396.636 745.471 396.974 743.241C397.324 743.595 397.338 743.582 397.664 744.07C398.939 745.98 399.195 748.431 398.702 750.636C397.136 757.642 389.336 762.811 383.736 766.484Z" fill="#133162"/>
<defs>
<linearGradient id="paint0_linear_38_15241" x1="911.462" y1="408.902" x2="126.056" y2="828.995" gradientUnits="userSpaceOnUse">
<stop stop-color="#033761"/>
<stop offset="1" stop-color="#463271"/>
</linearGradient>
<linearGradient id="paint1_linear_38_15241" x1="619.124" y1="390.339" x2="566.307" y2="356.646" gradientUnits="userSpaceOnUse">
<stop stop-color="#6DF1D6"/>
<stop offset="1" stop-color="#DCFFEA"/>
</linearGradient>
<linearGradient id="paint2_linear_38_15241" x1="347.142" y1="421.603" x2="472.792" y2="703.497" gradientUnits="userSpaceOnUse">
<stop stop-color="#FDE9F8"/>
<stop offset="1" stop-color="#C4FFFC"/>
</linearGradient>
<linearGradient id="paint3_linear_38_15241" x1="251.1" y1="774.298" x2="279.501" y2="575.501" gradientUnits="userSpaceOnUse">
<stop stop-color="#FFE1CC"/>
<stop offset="1" stop-color="#CCFDFF"/>
</linearGradient>
<linearGradient id="paint4_linear_38_15241" x1="294.603" y1="683.047" x2="299.41" y2="664.408" gradientUnits="userSpaceOnUse">
<stop stop-color="#0C3D54"/>
<stop offset="1" stop-color="#232B62"/>
</linearGradient>
<linearGradient id="paint5_linear_38_15241" x1="585.311" y1="783.511" x2="532.164" y2="733.997" gradientUnits="userSpaceOnUse">
<stop stop-color="#F6F1C7"/>
<stop offset="1" stop-color="#FBE4DC"/>
</linearGradient>
<linearGradient id="paint6_linear_38_15241" x1="311.281" y1="736.351" x2="309.812" y2="733.215" gradientUnits="userSpaceOnUse">
<stop stop-color="#423959"/>
<stop offset="1" stop-color="#333170"/>
</linearGradient>
<linearGradient id="paint7_linear_38_15241" x1="357.054" y1="758.319" x2="350.127" y2="746.105" gradientUnits="userSpaceOnUse">
<stop stop-color="#3C405A"/>
<stop offset="1" stop-color="#3E336A"/>
</linearGradient>
</defs>
</svg>
