<svg width="1024" height="1024" viewBox="0 0 1024 1024" fill="none" xmlns="http://www.w3.org/2000/svg">
<path d="M176.164 318.77C180.603 302.636 188.091 286.133 196.828 271.868C206.679 256.011 218.366 241.37 231.645 228.249C241.049 218.977 251.144 211.032 261.717 203.156C289.906 182.155 321.271 163.274 355.794 155.063C382.191 148.784 408.241 152.366 431.345 166.773C442.525 173.745 452.946 182.419 463.519 190.293L519.735 232.727C524.943 236.628 531.268 244.056 536.422 247.082C536.654 247.219 536.891 247.348 537.125 247.48C489.156 288.866 442.14 331.417 394.602 373.302L353.629 409.524C348.645 413.863 343.774 418.464 338.641 422.611C336.111 416.975 325.478 410.505 320.607 405.786C316.79 402.088 313.29 397.863 309.975 393.709C305.37 387.94 301.771 381.295 298.069 374.929C290.531 361.969 282.749 347.851 272.666 336.688C264.846 328.029 257.001 321.732 246.337 316.915C223.363 306.537 199.017 310.103 176.164 318.77Z" fill="#FFCFD2"/>
<path d="M537.129 247.48C547.449 239.06 557.189 229.889 567.069 220.959C580.363 208.734 593.987 196.872 607.923 185.386C616.21 178.548 624.15 170.978 633.903 166.257C644.375 161.273 656.02 159.279 667.554 160.496C679.938 161.777 702.047 171.161 714.779 175.704L783.302 199.927L825.289 214.86C830.834 216.881 836.67 218.517 841.972 221.129C848.154 224.174 853.871 229.35 858.148 234.701C864.877 243.121 867.293 254.697 869.591 264.982C879.244 308.192 878.731 352.938 873.403 396.728C871.88 409.246 869.125 421.812 863.164 433.033C854.297 447.928 841.851 458.903 829.292 470.548C807.048 492.008 784.282 512.831 761.736 533.96C749.17 545.736 736.924 557.856 724.283 569.552C700.431 591.193 676.863 613.143 653.583 635.399C637.004 651.488 619.335 666.7 602.202 682.214L530.335 747.988C515.028 761.947 498.717 775.504 484.312 790.392C480.329 793.518 476.66 797.189 472.805 800.494L447.535 822.066C429.022 838.171 414.523 851.197 389.001 854.586C375.352 856.302 361.501 855.36 348.21 851.81C333.838 847.937 319.982 841.609 306.419 835.553L270.126 819.397C252.834 811.888 235.622 804.195 218.493 796.32C205.342 790.301 191.305 784.808 179.82 775.873C155.57 757.007 144.69 725.693 140.897 696.048C139.349 682.7 139.584 669.154 139.53 655.739C139.491 645.719 139.16 635.587 139.682 625.583C140.478 610.323 145.65 597.032 154.882 584.89C165.779 570.558 189.15 552.977 203.413 540.395C248.231 500.863 294.366 462.734 338.645 422.611C343.778 418.464 348.649 413.863 353.633 409.524L394.606 373.302C442.144 331.417 489.16 288.866 537.129 247.48ZM539.613 250.445C533.26 255.805 527.268 261.554 521.055 267.071C506.792 279.543 492.622 292.121 478.544 304.802C434.361 344.485 389.843 383.792 344.995 422.721C299.341 463.424 252.211 502.482 206.622 543.258C197.442 551.469 188.032 559.416 178.779 567.544C173.337 572.324 167.578 576.967 162.912 582.53C159.449 586.658 157.816 591.13 157.483 596.531C156.893 606.09 160.36 616.248 166.749 623.373C169.807 626.784 173.436 629.853 177.501 631.991C183.763 635.285 190.54 637.614 197.102 640.227L223.663 651.022C240.298 657.835 256.983 664.524 273.719 671.086C281.926 674.342 290.072 677.997 298.419 680.865C322.73 691.539 338.992 694.613 365.468 689.93C369.527 689.212 377.641 685.808 381.098 686.002C381.36 685.986 381.623 685.977 381.885 685.954C382.759 685.876 383.293 685.724 384.084 685.389L384.75 685.72C383.733 686.457 382.905 686.803 381.737 687.21L381.636 687.705L381.079 687.964C378.893 688.964 373.746 689.757 372.595 691.94C372.073 692.93 372.3 694.785 372.323 695.892C371.771 694.864 371.883 692.293 371.804 691.057C370.337 690.611 368.521 691.097 367.019 691.387C365.125 691.753 359.475 692.447 358.534 693.816C337.923 697.951 320.072 693.114 300.903 686.153C289.065 680.779 276.522 676.699 264.421 671.923C245.311 664.27 226.249 656.497 207.237 648.605C195.121 643.693 181.038 639.778 170.326 632.136C163.797 627.478 158.335 619.875 155.486 612.424C153.118 606.232 152.753 600.642 153.598 594.09C145.746 607.562 143.39 619.65 143.893 635.223C144.099 641.623 144.637 647.983 146.24 654.199C149.364 666.307 156.367 676.522 167.295 682.885C174.914 687.32 184.057 690.361 192.244 693.681C208.602 700.377 225.047 706.855 241.576 713.115L295.835 733.861C308.891 738.809 322.028 743.997 335.441 747.889C343.047 750.219 364.967 756.74 371.74 755.276L371.104 757.739C370.043 758.196 369.5 758.114 368.376 757.913L368.004 758.819C358.658 758.218 349.746 756.098 340.755 753.619C335.605 752.636 330.125 750.593 325.122 748.95C298.263 740.129 271.71 728.716 245.242 718.669L195.157 699.233C184.809 695.186 172.356 691.481 163.085 685.307C153.776 679.108 148.528 670.88 143.578 661.125C143.677 680.742 144.898 701.844 150.91 720.653C157.694 747.035 168.932 765.247 192.652 779.331C205.934 787.217 222.872 793.488 237.191 799.977C257.318 809.105 277.529 818.045 297.822 826.797C316.14 834.843 335.274 844.547 354.907 848.772C370.016 851.918 385.64 851.609 400.613 847.867C403.255 847.203 405.857 846.387 408.405 845.423C398.371 842.423 391.695 836.042 386.737 826.95C380.618 815.728 377.509 803.57 375.794 790.983C375.176 786.449 375.041 781.449 373.941 777.035C372.649 772.154 372.788 765.986 372.648 760.918L373.32 762.004L373.886 760.081L374.823 760.061C375.535 761.124 375.463 761.434 375.584 762.678C375.699 763.866 375.656 764.594 376.515 765.487C376.835 768.682 377.016 771.995 377.569 775.154C379.481 794.082 382.911 824.205 398.483 836.783C402.645 840.145 407.787 842.104 413.173 841.366C416.545 840.904 419.293 839.648 422.105 837.798C429.577 832.885 435.697 826.548 442.328 820.625C449.422 814.288 456.738 808.182 463.914 801.938C469.739 796.869 475.468 791.518 481.576 786.802C489.284 780.32 496.546 773.304 504.011 766.544L559.85 715.239L634.245 647.259C640.295 641.749 646.729 636.667 652.716 631.09C658.071 626.506 663.059 621.308 668.173 616.444C677.09 607.954 686.08 599.541 695.142 591.207L828.755 465.925C841.28 453.865 853.568 443.96 861.469 427.961C863.909 423.23 865.557 418.038 866.737 412.862C868.587 404.755 876.071 341.007 872.742 335.743L870.695 338.205L870.177 337.356L873.296 332.455C873.096 306.423 869.82 273.812 861.072 249.207C850.706 260.397 839.566 270.729 828.454 281.164C814.866 294.086 801.074 306.792 787.085 319.278C773.79 331.203 760.923 343.675 747.378 355.303C724.5 375.295 702.711 396.571 680.131 416.912L630.042 462.262C620.131 471.233 609.936 479.921 600.407 489.306C586.282 503.002 571.365 515.909 557.033 529.393C539.757 545.648 522.829 562.616 504.853 578.072C492.269 589.625 479.585 601.222 466.446 612.14L465.841 610.683C468.693 606.57 474.709 602.358 478.512 598.974C487.182 591.258 496 583.618 503.933 575.134C513.909 565.301 524.689 556.248 534.945 546.709C556.024 526.797 577.249 507.04 598.618 487.438L695.85 399.862C712.818 384.451 729.262 368.459 746.407 353.244C762.404 338.65 778.31 323.955 794.124 309.162C816.548 288.454 839.064 267.774 859.695 245.256C857.964 241.302 855.655 237.626 852.845 234.35C848.442 229.239 843.361 226.435 837.275 223.673C828.719 219.791 819.577 216.859 810.712 213.744L768.838 199.04C747.237 191.259 725.578 183.638 703.863 176.18C692.753 172.276 676.978 164.84 665.674 164.015C655.249 163.212 644.803 165.28 635.469 169.993C624.478 175.535 615.388 184.412 606.025 192.28C583.491 211.214 561.934 231.251 539.613 250.445Z" fill="#69594E"/>
<path d="M539.609 250.445C561.93 231.251 583.487 211.214 606.021 192.28C615.384 184.412 624.474 175.535 635.465 169.993C644.799 165.28 655.245 163.212 665.67 164.015C676.974 164.84 692.749 172.276 703.859 176.18C725.574 183.638 747.233 191.259 768.834 199.04L810.708 213.744C819.573 216.859 828.715 219.791 837.271 223.673C843.357 226.435 848.438 229.239 852.841 234.35C855.651 237.626 857.96 241.302 859.691 245.256C839.06 267.774 816.544 288.454 794.12 309.162C778.306 323.955 762.4 338.65 746.403 353.244C741.35 349.802 734.333 346.59 730.616 341.694C737.972 334.847 796.856 282.783 797.466 279.193L796.945 278.46C795.559 278.508 794.926 278.916 793.859 279.806C787.652 284.988 781.887 291.347 775.929 296.89C760.189 311.368 744.605 326.016 729.182 340.832C724.317 338.223 719.798 334.644 715.263 331.488C710.063 327.904 704.773 324.453 699.397 321.138C690.605 315.642 681.541 310.593 672.24 306.01C647.794 293.777 629.439 289.771 602.371 296.035C597.69 291.917 591.537 288.801 586.385 285.183C575.65 277.644 564.793 269.487 554.882 260.897C569.555 247.162 584.617 233.847 600.047 220.968C606.73 215.327 613.921 209.942 620.339 204.032C621.294 203.153 622.14 202.368 622.383 201.047C621.678 200.109 621.672 200.036 620.549 199.732C615.197 203.287 610.479 208.855 605.587 213.147C595.447 221.986 585.357 230.884 575.319 239.839C568.197 246.212 561.22 252.912 553.653 258.754C549 256.441 543.227 254.23 539.609 250.445ZM829.654 235.305C810.198 221.971 762.37 208.157 738.456 200.255C718.996 193.824 699.687 186.803 680.189 180.522C669.849 177.191 659.036 173.561 648.691 178.993C646.266 180.266 642.116 182.832 641.301 185.498L641.765 186.268C646.964 184.339 649.89 179.408 655.74 178.022C659.956 177.023 664.341 177.503 668.492 178.549C674.657 180.104 680.855 182.942 686.801 185.2C695.862 188.651 704.985 191.934 714.168 195.045C738.516 203.287 763.072 210.836 787.412 219.125C801.495 223.921 816.197 227.83 828.992 235.594C830.936 237.505 832.869 239.428 834.791 241.361L834.815 241.784C834.826 242 834.829 242.216 834.845 242.431C834.894 243.052 835.023 243.589 834.89 244.219C834.014 248.359 827.622 251.506 824.707 254.267C823.551 255.362 823.573 255.975 823.545 257.518C827.392 255.053 833.341 250.326 835.075 246.05C835.756 244.372 835.512 242.997 834.791 241.361C833.84 238.468 832.17 236.93 829.654 235.305Z" fill="#FFFFFA"/>
<path d="M828.996 235.594C816.201 227.83 801.499 223.921 787.416 219.125C763.076 210.836 738.52 203.287 714.172 195.045C704.989 191.934 695.866 188.651 686.805 185.2C680.859 182.942 674.661 180.104 668.496 178.549C664.345 177.503 659.96 177.023 655.744 178.022C649.894 179.408 646.968 184.339 641.769 186.268L641.305 185.498C642.12 182.832 646.27 180.266 648.695 178.993C659.04 173.561 669.853 177.191 680.193 180.522C699.691 186.803 719 193.824 738.46 200.255C762.374 208.157 810.202 221.971 829.658 235.305L828.996 235.594Z" fill="#69594E"/>
<path d="M553.655 258.754C561.222 252.912 568.199 246.212 575.321 239.839C585.359 230.884 595.449 221.986 605.589 213.147C610.481 208.855 615.199 203.287 620.551 199.732C621.674 200.036 621.68 200.109 622.385 201.047C622.142 202.368 621.296 203.153 620.341 204.032C613.923 209.942 606.732 215.327 600.049 220.968C584.619 233.847 569.557 247.162 554.884 260.897L288.756 496.305C267.147 515.534 244.725 534.029 222.707 552.798C212.942 561.121 202.671 569.094 193.477 578.046C188.62 582.774 181.566 589.543 181.018 596.71C180.77 599.958 182.098 602.633 184.216 605.023C187.531 608.764 192.081 611.082 196.498 613.263C209.87 619.867 224.62 624.838 238.495 630.408C254.993 637.031 271.363 644.363 288.033 650.504L288.312 650.77L287.422 652.818C282.822 651.461 278.185 649.181 273.72 647.362L245.583 635.854L214.1 623.096C207.27 620.352 200.263 617.799 193.65 614.564C189.852 612.706 186.085 610.669 183.198 607.507C180.479 604.529 178.734 600.81 178.966 596.725C179.351 589.931 183.695 584.854 188.13 580.142C196.079 571.695 205.317 564.302 214.131 556.786L254.665 522.162C289.951 491.768 324.411 460.5 359.34 429.713C388.89 401.871 420.361 376.033 450.552 348.894L516.978 290.337C529.025 279.811 540.878 268.338 553.655 258.754Z" fill="#69594E"/>
<path d="M828.992 235.594L829.654 235.305C832.17 236.93 833.84 238.468 834.791 241.361C832.869 239.428 830.936 237.505 828.992 235.594Z" fill="#C1BFBF"/>
<path d="M834.793 241.361C835.514 242.997 835.758 244.372 835.077 246.05C833.343 250.326 827.394 255.053 823.547 257.518C823.575 255.975 823.553 255.362 824.709 254.267C827.624 251.506 834.016 248.359 834.892 244.219C835.025 243.589 834.896 243.052 834.847 242.431C834.831 242.216 834.828 242 834.817 241.784L834.793 241.361Z" fill="#5A524E"/>
<path d="M873.293 332.455L870.174 337.356C848.289 364.396 822.153 386.801 796.772 410.416C793.612 406.435 791.15 401.865 788.081 397.783C780.141 387.222 771.312 377.65 761.69 368.616C767.727 363.174 792.563 343.56 794.812 338.143C791.517 339.564 765.541 363.674 760.906 367.809C756.188 364.055 751.944 359.312 747.375 355.303C760.92 343.675 773.787 331.203 787.082 319.278C801.071 306.792 814.863 294.086 828.451 281.164C839.563 270.729 850.703 260.397 861.069 249.207C869.817 273.812 873.093 306.423 873.293 332.455ZM863.228 264.31C852.794 281.936 839.931 293.879 825.281 307.766C821.821 311.045 811.49 319.433 809.818 322.511C810.138 323.432 810.233 323.6 810.861 324.267C815.53 321.097 819.638 316.187 823.785 312.296C832.613 304.014 862.455 277.953 864.061 267.343C864.185 266.527 864.131 265.444 863.643 264.74C863.529 264.576 863.366 264.454 863.228 264.31Z" fill="#FFFFFA"/>
<path d="M344.992 422.721C389.84 383.792 434.358 344.485 478.541 304.802C492.619 292.121 506.789 279.543 521.052 267.071C527.265 261.554 533.257 255.805 539.61 250.445C543.228 254.23 549.001 256.441 553.654 258.754C540.877 268.338 529.024 279.811 516.977 290.337L450.551 348.894C420.36 376.033 388.889 401.871 359.339 429.713C356.114 424.476 349.25 426.493 344.992 422.721Z" fill="#FFCFD2"/>
<path d="M288.037 650.504C271.367 644.363 254.997 637.031 238.499 630.408C224.624 624.838 209.874 619.867 196.502 613.263C192.085 611.082 187.535 608.764 184.22 605.023C182.102 602.633 180.774 599.958 181.022 596.71C181.57 589.543 188.624 582.774 193.481 578.046C202.675 569.094 212.946 561.121 222.711 552.798C244.729 534.029 267.151 515.534 288.76 496.305L554.888 260.897C564.799 269.487 575.656 277.644 586.391 285.183C591.543 288.801 597.696 291.917 602.377 296.035C582.769 303.142 564.756 316.628 547.602 328.32C538.367 334.528 529.036 340.592 519.612 346.509C502.032 357.432 484.633 368.683 466.984 379.483L447.122 391.6C443.82 393.617 440.08 395.537 437.029 397.906C430.408 402.147 423.277 404.699 416.24 408.06C410.17 410.959 404.078 414.956 398.634 418.895C387.758 426.782 378.307 436.467 370.689 447.533C358.868 464.725 347.51 492.968 339.189 512.605C335.205 522.005 330.745 531.344 327.207 540.911C317.865 557.334 308.797 573.397 302.685 591.362L296.977 589.019C284.877 583.975 272.535 579.486 260.342 574.666C249.069 570.21 237.835 565.358 226.491 561.144C224.989 560.586 223.085 559.951 221.494 560.169C222.14 561.539 223.919 562.363 225.242 563.035C230.535 565.723 236.589 567.356 242.113 569.566C259.315 576.447 276.635 583.03 294.064 589.315L295.993 590.006C297.953 590.715 299.98 591.355 301.893 592.179C297.532 602.95 284.941 640.41 288.037 650.504Z" fill="url(#paint0_linear_38_15304)"/>
<path d="M810.863 324.267C810.235 323.6 810.14 323.432 809.82 322.511C811.492 319.433 821.823 311.045 825.283 307.766C839.933 293.879 852.796 281.936 863.23 264.31C863.368 264.454 863.531 264.576 863.645 264.74C864.133 265.444 864.187 266.527 864.063 267.343C862.457 277.953 832.615 304.014 823.787 312.296C819.64 316.187 815.532 321.097 810.863 324.267Z" fill="#69594E"/>
<path d="M729.182 340.832C744.605 326.016 760.19 311.368 775.93 296.89C781.888 291.347 787.652 284.988 793.859 279.806C794.926 278.916 795.559 278.508 796.945 278.46L797.466 279.193C796.856 282.783 737.972 334.847 730.616 341.694L727.062 344.813L728.671 342.59L728.422 341.759L729.182 340.832Z" fill="#69594E"/>
<path d="M602.371 296.035C629.439 289.771 647.794 293.777 672.24 306.01C681.541 310.593 690.605 315.642 699.397 321.138C704.773 324.453 710.063 327.904 715.263 331.488C719.798 334.644 724.317 338.223 729.182 340.832L728.422 341.759C701.499 366.533 674.794 391.542 648.307 416.781C640.072 424.501 593.892 466.524 591.223 472.183C597.158 468.259 602.415 461.799 607.501 456.787C615.077 449.436 622.713 442.147 630.41 434.923L727.062 344.813L730.616 341.694C734.333 346.59 741.35 349.802 746.403 353.244C729.258 368.459 712.814 384.451 695.846 399.862L598.614 487.438C596.659 485.341 594.794 483.002 592.629 481.128C590.426 479.221 589.22 479.024 586.415 479.317L583.826 477.731C582.72 476.444 581.838 474.19 580.926 472.663C577.924 467.637 574.966 462.471 571.475 457.766C546.84 424.575 516.391 397.178 472.868 395.57C464.557 395.263 456.332 395.591 448.12 396.939C444.895 397.468 439.951 399.085 437.023 397.906C440.074 395.537 443.814 393.617 447.116 391.6L466.978 379.483C484.627 368.683 502.026 357.432 519.606 346.509C529.03 340.592 538.361 334.528 547.596 328.32C564.75 316.628 582.763 303.142 602.371 296.035Z" fill="#98F5E1"/>
<path d="M176.17 318.77C199.023 310.103 223.369 306.537 246.343 316.915C257.007 321.732 264.852 328.029 272.672 336.688C282.755 347.851 290.537 361.969 298.075 374.929C301.777 381.295 305.375 387.94 309.98 393.709C313.295 397.863 316.796 402.088 320.613 405.786C325.484 410.505 336.117 416.975 338.647 422.611C294.368 462.734 248.233 500.863 203.415 540.395C189.152 552.977 165.781 570.558 154.884 584.89C145.652 597.032 140.48 610.323 139.684 625.583C139.162 635.587 139.493 645.719 139.532 655.739C139.586 669.154 139.351 682.7 140.899 696.048C138.456 692.985 136.724 688.601 134.816 685.12C129.711 675.81 124.74 666.403 119.463 657.19C110.276 641.15 99.5711 626.135 90.9012 609.755C85.0592 598.718 79.4461 586.75 75.7903 574.806C65.0906 539.848 68.2338 501.741 78.9035 467.24C91.4075 426.808 117.057 367.132 147.802 338.028C156.352 329.934 165.832 324.226 176.17 318.77Z" fill="#FBF8CC"/>
<path d="M870.694 338.205L872.741 335.743C876.07 341.007 868.586 404.755 866.736 412.862C865.556 418.038 863.908 423.23 861.468 427.961C858.244 425.575 855.415 422.805 852.027 420.586C836.447 410.385 816.638 410.107 799.04 413.726L796.945 411.682C822.669 386.925 848.472 367.055 870.694 338.205Z" fill="#FFFFFA"/>
<path d="M870.173 337.356L870.691 338.205C848.469 367.055 822.666 386.925 796.942 411.682C746.018 460.112 692.201 505.162 639.368 551.447L533.316 647.392L498.601 678.408C494.026 682.534 488.355 686.796 484.363 691.434C471.517 703.112 459.155 715.557 446.065 726.921C445.021 727.528 443.918 728.263 442.68 728.338C457.753 713.818 473.351 699.827 488.651 685.544C504.491 670.746 521.116 656.766 537.231 642.266L639.79 549.603C693.317 504.58 745.662 458.168 796.771 410.416C822.152 386.801 848.288 364.396 870.173 337.356Z" fill="#1D2521"/>
<path d="M760.91 367.809C765.545 363.674 791.521 339.564 794.816 338.143C792.567 343.56 767.731 363.174 761.694 368.616L614.716 501.663C590.527 524.335 566.192 546.85 541.712 569.207C527.518 582.298 513.531 595.447 498.964 608.135C481.548 623.376 464.548 639.115 447.222 654.464C440.825 660.13 432.174 665.744 426.686 671.916C422.88 676.197 418.958 684.07 417.214 689.546C408.961 703.026 403.528 718.555 396.457 732.689C394.733 737.451 390.459 748.647 387.379 752.272L387.18 752.022C387.888 750.321 388.605 748.623 389.332 746.929C392.675 741.062 395.027 734.14 397.669 727.891C401.916 717.679 406.463 707.595 411.305 697.651C415.765 689.514 419.605 681.036 424.087 672.896C420.131 675.129 416.131 677.12 412.003 679.016C409.44 683.617 407.311 688.442 405.108 693.221C396.643 710.891 388.189 728.813 382.402 747.568L381.83 749.397L381.017 748.695C382.583 741.356 385.702 734.064 388.479 727.106C394.857 710.851 402.161 694.975 410.355 679.556C406.414 680.869 402.464 682.158 398.507 683.423C390.933 701.434 382.995 717.131 376.216 735.821L376.022 735.684C376.54 732.203 378.017 728.586 379.182 725.255C384.178 710.966 391.251 697.837 396.905 683.88C392.853 684.718 388.854 685.521 384.935 686.879C383.468 691.472 381.175 695.874 379.312 700.325C377.448 704.778 376.042 709.287 374.7 713.915L374.047 713.918C374.784 706.134 383.003 691.868 383.014 687.779L381.637 687.705L381.738 687.21C382.906 686.803 383.734 686.457 384.751 685.72L384.085 685.389C383.294 685.724 382.76 685.876 381.886 685.954C381.624 685.977 381.361 685.986 381.099 686.002C384.876 684.066 388.396 679.954 391.481 677C396.864 671.929 402.613 667.225 408.255 662.443L408.587 663.534C403.109 668.244 397.169 672.712 392.15 677.902C389.367 680.283 386.805 682.587 384.531 685.482C388.639 684.548 392.794 683.704 396.86 682.607C401.583 681.26 406.239 679.605 410.903 678.064C414.829 672.45 421.641 658.596 425.786 654.923C423.19 661.64 417.034 670.982 413.022 677.196C421.612 673.426 425.819 671.497 430.489 662.996L431.106 663.297L428.535 668.444C440.032 659.638 450.681 649.822 461.44 640.146L502.345 603.336C514.595 592.943 526.122 581.935 537.917 571.054L582.043 530.442C592.36 520.802 602.394 510.512 613.208 501.454C622.144 493.558 630.712 485.253 639.587 477.288L760.91 367.809Z" fill="#1D2521"/>
<path d="M728.426 341.759L728.675 342.59L727.066 344.813L630.414 434.923C622.717 442.147 615.081 449.436 607.505 456.787C602.419 461.799 597.162 468.259 591.227 472.183C593.896 466.524 640.076 424.501 648.311 416.781C674.798 391.542 701.503 366.533 728.426 341.759Z" fill="#1D2521"/>
<path d="M600.406 489.306C609.935 479.921 620.13 471.233 630.041 462.262L680.13 416.912C702.71 396.571 724.499 375.295 747.377 355.303C751.946 359.312 756.19 364.055 760.908 367.809L639.585 477.288C630.71 485.253 622.142 493.558 613.206 501.454C608.679 497.589 604.475 493.649 600.406 489.306Z" fill="#98F5E1"/>
<path d="M614.711 501.663L761.689 368.616C771.311 377.65 780.14 387.222 788.08 397.783C791.149 401.865 793.611 406.435 796.771 410.416C745.662 458.168 693.317 504.58 639.79 549.603C637.04 544.817 635.332 539.077 633.229 533.959C628.598 522.682 622.481 511.134 614.711 501.663Z" fill="url(#paint1_linear_38_15304)"/>
<path d="M327.203 540.911C330.741 531.344 335.201 522.005 339.185 512.605C347.506 492.968 358.864 464.725 370.685 447.533C378.303 436.467 387.754 426.782 398.63 418.895C404.074 414.956 410.166 410.959 416.236 408.06C423.273 404.699 430.404 402.147 437.025 397.906C439.953 399.085 444.897 397.468 448.122 396.939C456.334 395.591 464.559 395.263 472.87 395.57C516.393 397.178 546.842 424.575 571.477 457.766C574.968 462.471 577.926 467.637 580.928 472.663C581.84 474.19 582.722 476.444 583.828 477.731C574.524 488.317 562.776 497.574 552.242 506.992C526.39 530.105 499.537 552.349 474.328 576.146C465.678 572.588 451.698 574.343 442.234 573.662C430.229 572.799 418.097 571.616 406.244 569.507C385.56 565.827 342.924 554.411 327.203 540.911Z" fill="#B9FBC0"/>
<path d="M639.367 551.447C692.2 505.162 746.017 460.112 796.941 411.682L799.036 413.726C806.528 423.55 813.008 434.694 818.493 445.755C821.751 452.325 824.673 459.863 828.75 465.925L695.137 591.207C686.075 599.541 677.085 607.954 668.168 616.444C663.054 621.308 658.066 626.506 652.711 631.09C651.002 622.706 649.626 614.257 648.586 605.763C646.884 591.512 644.862 564.092 639.367 551.447Z" fill="#CFBAF0"/>
<path d="M799.039 413.726C816.637 410.107 836.446 410.385 852.026 420.586C855.414 422.805 858.243 425.575 861.467 427.961C853.566 443.96 841.278 453.865 828.753 465.925C824.676 459.863 821.754 452.325 818.496 445.755C813.011 434.694 806.531 423.55 799.039 413.726Z" fill="#F1C0E8"/>
<path d="M298.415 680.865C290.068 677.997 281.922 674.342 273.715 671.086C256.979 664.524 240.294 657.835 223.659 651.022L197.098 640.227C190.536 637.614 183.759 635.285 177.497 631.991C173.432 629.853 169.803 626.784 166.745 623.373C160.356 616.248 156.889 606.09 157.479 596.531C157.812 591.13 159.445 586.658 162.908 582.53C167.574 576.967 173.333 572.324 178.775 567.544C188.028 559.416 197.438 551.469 206.618 543.258C252.207 502.482 299.337 463.424 344.991 422.721C349.249 426.493 356.113 424.476 359.338 429.713C324.409 460.5 289.949 491.768 254.663 522.162L214.129 556.786C205.315 564.302 196.077 571.695 188.128 580.142C183.693 584.854 179.349 589.931 178.964 596.725C178.732 600.81 180.477 604.529 183.196 607.507C186.083 610.669 189.85 612.706 193.648 614.564C200.261 617.799 207.268 620.352 214.098 623.096L245.581 635.854L273.718 647.362C278.183 649.181 282.82 651.461 287.42 652.818L287.753 653.264C287.726 661.915 294.707 673.076 298.415 680.865Z" fill="#FBF8CC"/>
<path d="M829.289 470.548C841.848 458.903 854.294 447.928 863.161 433.033C871.086 436.716 877.942 442.513 884.811 447.843C891.66 453.156 898.639 458.38 904.943 464.343C922.683 481.121 937.737 503.288 946.107 526.244C952.087 542.649 954.922 559.875 955.408 577.287C956.58 619.191 945.21 651.192 927.601 688.598C910.034 725.916 878.783 780.229 839.181 797.106C844.746 785.873 849.255 774.111 853.594 762.362C888.902 666.762 870.855 560.972 829.289 470.548Z" fill="#F1C0E8"/>
<path d="M653.578 635.399C676.858 613.143 700.426 591.193 724.278 569.552C736.919 557.856 749.165 545.736 761.731 533.96C784.277 512.831 807.043 492.008 829.287 470.548C870.853 560.972 888.9 666.762 853.592 762.362C849.253 774.111 844.744 785.873 839.179 797.106L838.316 798.077C833.133 799.255 827.695 802.419 822.581 804.145C803.916 810.442 785.303 810.872 766.324 805.682C749.911 801.194 734.906 793.042 721.723 782.349C685.305 752.811 676.15 719.304 665.593 676.16C663.85 669.041 656.998 640.907 654.082 636.172C653.92 635.91 653.746 635.657 653.578 635.399Z" fill="#A3C4F3"/>
<path d="M583.826 477.731L586.415 479.317C578.111 484.889 566.577 497.345 558.312 504.606C540.674 520.1 523.458 536.022 506.017 551.732C498.02 558.936 489.116 565.66 481.526 573.26L458.766 592.605C455.333 595.524 451.671 599.231 447.897 601.635L446.414 600.855C455.728 592.642 465.305 584.679 474.326 576.146C499.535 552.349 526.388 530.105 552.24 506.992C562.774 497.574 574.522 488.317 583.826 477.731Z" fill="#445353"/>
<path d="M586.42 479.317C589.225 479.024 590.431 479.221 592.634 481.128C594.799 483.002 596.664 485.341 598.619 487.438C577.25 507.04 556.025 526.797 534.946 546.709C524.69 556.248 513.91 565.301 503.934 575.134C499.232 572.512 488.044 575.524 481.531 573.26C489.121 565.66 498.025 558.936 506.022 551.732C523.463 536.022 540.679 520.1 558.317 504.606C566.582 497.345 578.116 484.889 586.42 479.317Z" fill="#B9FBC0"/>
<path d="M504.849 578.072C522.825 562.616 539.753 545.648 557.029 529.393C571.361 515.909 586.278 503.002 600.403 489.306C604.472 493.649 608.676 497.589 613.203 501.454C602.389 510.512 592.355 520.802 582.038 530.442L537.912 571.054C526.117 581.935 514.59 592.943 502.34 603.336C499.874 596.388 507.394 583.122 504.849 578.072Z" fill="#B9FBC0"/>
<path d="M498.963 608.135C513.53 595.447 527.517 582.298 541.711 569.207C566.191 546.85 590.526 524.335 614.715 501.663C622.485 511.134 628.602 522.682 633.233 533.959C635.336 539.077 637.044 544.817 639.794 549.603L537.235 642.266C521.12 656.766 504.495 670.746 488.655 685.544C487.462 679.906 498.189 623.784 499.654 613.517C499.958 611.383 500.321 609.938 498.963 608.135Z" fill="#B9FBC0"/>
<path d="M302.68 591.362C308.792 573.397 317.86 557.334 327.202 540.911C342.923 554.411 385.559 565.827 406.243 569.507C418.096 571.616 430.228 572.799 442.233 573.662C451.697 574.343 465.677 572.588 474.327 576.146C465.306 584.679 455.729 592.642 446.415 600.855C434.245 611.973 421.688 622.678 409.651 633.94C398.002 628.043 384.934 623.913 372.741 619.19C349.294 610.15 325.939 600.874 302.68 591.362Z" fill="#8EECF5"/>
<path d="M484.361 691.434C488.353 686.796 494.024 682.534 498.599 678.408L533.314 647.392L639.366 551.447C644.861 564.092 646.883 591.512 648.585 605.763C649.625 614.257 651.001 622.706 652.71 631.09C646.723 636.667 640.289 641.749 634.239 647.259L559.844 715.239L504.005 766.544C496.54 773.304 489.278 780.32 481.57 786.802C477.816 780.477 472.387 775.236 468.688 768.974C468.118 768.009 467.621 767.244 466.859 766.423C467.504 764.572 468.804 763.703 468.876 761.545C469.089 761.212 469.03 761.335 469.204 760.903C472.771 752.076 475.381 734.912 477.733 724.688C479.961 715.003 483.159 705.184 484.686 695.393C484.928 693.841 484.954 692.894 484.361 691.434Z" fill="#B9FBC0"/>
<path d="M295.991 590.006L294.062 589.315C276.633 583.03 259.313 576.447 242.111 569.566C236.587 567.356 230.533 565.723 225.24 563.035C223.917 562.363 222.138 561.539 221.492 560.169C223.083 559.951 224.987 560.586 226.489 561.144C237.833 565.358 249.067 570.21 260.34 574.666C272.533 579.486 284.875 583.975 296.975 589.019L295.991 590.006Z" fill="#69594E"/>
<path d="M447.898 601.635C451.672 599.231 455.334 595.524 458.767 592.605L481.527 573.26C488.04 575.524 499.228 572.512 503.93 575.134C495.997 583.618 487.179 591.258 478.509 598.974C474.706 602.358 468.69 606.57 465.838 610.683C447.133 628.474 427.929 645.734 408.251 662.443C402.609 667.225 396.86 671.929 391.477 677C385.989 674.963 380.304 673.503 374.514 672.642C371.845 672.255 368.844 672.319 366.251 671.667C365.48 671.473 364.988 671.123 364.336 670.692C382.137 662.269 403.317 641.469 418.453 627.811L447.898 601.635Z" fill="#8EECF5"/>
<path d="M466.445 612.14C479.584 601.222 492.268 589.625 504.852 578.072C507.397 583.122 499.877 596.388 502.343 603.336L461.438 640.146C450.679 649.822 440.03 659.638 428.533 668.444L431.104 663.297C432.274 661.339 433.406 659.553 434.037 657.339L433.404 657.675L433.628 658.629L433.273 657.837C432.167 659.42 431.366 661.274 430.487 662.996C425.817 671.497 421.61 673.426 413.02 677.196C417.032 670.982 423.188 661.64 425.784 654.923C421.639 658.596 414.827 672.45 410.901 678.064C406.237 679.605 401.581 681.26 396.858 682.607C395.401 680.913 393.581 679.659 392.148 677.902C397.167 672.712 403.107 668.244 408.585 663.534C416.852 657.133 424.736 649.832 432.529 642.869C443.919 632.719 455.224 622.476 466.445 612.14Z" fill="#8EECF5"/>
<path d="M296.976 589.019L302.684 591.362C325.943 600.874 349.298 610.15 372.745 619.19C384.938 623.913 398.006 628.043 409.655 633.94C421.692 622.678 434.249 611.973 446.419 600.855L447.902 601.635L418.457 627.811C403.321 641.469 382.141 662.269 364.34 670.692C361.423 671.609 358.515 672.576 355.543 673.299L355.932 671.815C371.249 668.006 379.486 660.382 391.033 650.286L409.146 634.572C373.381 620.555 337.361 606.921 301.892 592.179C299.979 591.355 297.952 590.715 295.992 590.006L296.976 589.019Z" fill="#1D2521"/>
<path d="M301.887 592.179C337.356 606.921 373.376 620.555 409.141 634.572L391.028 650.286C379.481 660.382 371.244 668.006 355.927 671.815C350.721 672.139 345.687 672.275 340.549 671.225C331.974 669.473 323.74 665.211 315.678 661.854L288.31 650.77L288.031 650.504C284.935 640.41 297.526 602.95 301.887 592.179Z" fill="#8EECF5"/>
<path d="M153.598 594.09C152.753 600.642 153.118 606.232 155.486 612.424C158.335 619.875 163.797 627.478 170.326 632.136C181.038 639.778 195.121 643.693 207.237 648.605C226.249 656.497 245.311 664.27 264.421 671.923C276.522 676.699 289.065 680.779 300.903 686.153C303.289 691.466 306.809 696.621 309.723 701.684L329.257 735.495C330.9 738.341 334.93 743.9 335.596 746.753C335.683 747.125 335.493 747.51 335.441 747.889C322.028 743.997 308.891 738.809 295.835 733.861L241.576 713.115C225.047 706.855 208.602 700.377 192.244 693.681C184.057 690.361 174.914 687.32 167.295 682.885C156.367 676.522 149.364 666.307 146.24 654.199C144.637 647.983 144.099 641.623 143.893 635.223C143.39 619.65 145.746 607.562 153.598 594.09Z" fill="#FBF8CC"/>
<path d="M417.213 689.546C418.957 684.07 422.879 676.197 426.685 671.916C432.173 665.744 440.824 660.13 447.221 654.464C464.547 639.115 481.547 623.376 498.963 608.135C500.321 609.938 499.958 611.383 499.654 613.517C498.189 623.784 487.462 679.906 488.655 685.544C473.355 699.827 457.757 713.818 442.684 728.338C441.344 729.395 440.02 730.453 438.737 731.58C430.949 726.138 423.953 719.22 415.387 714.993C416.798 712.881 417.776 710.171 418.107 707.666C421.736 701.787 424.502 694.822 427.531 688.587C429.71 684.767 431.909 680.959 434.129 677.163C435.193 675.458 436.903 673.116 436.9 671.073C435.392 672.327 434.618 674.555 433.775 676.297C431.321 680.263 428.685 684.199 426.509 688.323C424.779 691.1 423.229 693.938 421.702 696.831L421.294 696.499C420.013 697.51 419.247 699.809 418.532 701.276C415.273 707.958 410.259 722.015 403.574 725.455L402.88 725.042C402.362 716.971 417.462 694.615 417.27 690.225C417.26 689.998 417.232 689.772 417.213 689.546Z" fill="#8EECF5"/>
<path d="M408.25 662.443C427.928 645.734 447.132 628.474 465.837 610.683L466.442 612.14C455.221 622.476 443.916 632.719 432.526 642.869C424.733 649.832 416.849 657.133 408.582 663.534L408.25 662.443Z" fill="#1D2521"/>
<path d="M484.312 790.392C498.717 775.504 515.029 761.947 530.336 747.988L602.203 682.214C619.336 666.7 637.004 651.488 653.583 635.399C653.751 635.657 653.926 635.91 654.088 636.172C657.004 640.907 663.856 669.041 665.599 676.16C676.156 719.304 685.311 752.811 721.729 782.349C734.912 793.042 749.917 801.194 766.33 805.682C785.309 810.872 803.921 810.442 822.586 804.145C827.7 802.419 833.138 799.255 838.321 798.077C821.547 827.628 802.186 854.42 776.651 877.01C753.186 897.771 723.066 912.617 691.873 916.994C679.469 918.735 666.22 918.723 653.726 917.923C598.153 914.365 548.428 876.464 515.334 833.887C508.346 824.895 501.943 815.489 495.526 806.087C492.065 801.016 488.771 795.364 484.681 790.792C484.56 790.657 484.436 790.525 484.312 790.392Z" fill="#B9FBC0"/>
<path d="M287.422 652.818L288.312 650.77L315.68 661.854C323.742 665.211 331.976 669.473 340.551 671.225C345.689 672.275 350.723 672.139 355.929 671.815L355.54 673.299C350.397 674.035 345.428 674.3 340.288 673.412C331.867 671.956 323.731 668.005 315.84 664.825C306.423 661.107 297.06 657.253 287.755 653.264L287.422 652.818Z" fill="url(#paint2_linear_38_15304)"/>
<path d="M287.758 653.264C297.063 657.253 306.426 661.107 315.843 664.825C323.734 668.005 331.87 671.956 340.291 673.412C345.431 674.3 350.4 674.035 355.543 673.299C358.515 672.576 361.423 671.609 364.34 670.692C364.992 671.123 365.484 671.473 366.255 671.667C368.848 672.319 371.849 672.255 374.518 672.642C380.308 673.503 385.993 674.963 391.481 677C388.396 679.954 384.876 684.066 381.099 686.002C377.642 685.808 369.528 689.212 365.469 689.93C338.993 694.613 322.731 691.539 298.42 680.865C294.712 673.076 287.731 661.915 287.758 653.264Z" fill="#B9FBC0"/>
<path d="M430.484 662.996C431.363 661.274 432.164 659.42 433.27 657.837L433.625 658.629L433.401 657.675L434.034 657.339C433.403 659.553 432.271 661.339 431.101 663.297L430.484 662.996Z" fill="#508885"/>
<path d="M150.91 720.653C144.898 701.844 143.677 680.742 143.578 661.125C148.528 670.88 153.776 679.108 163.085 685.307C172.356 691.481 184.809 695.186 195.157 699.233L245.242 718.669C271.71 728.716 298.263 740.129 325.122 748.95C330.125 750.593 335.605 752.636 340.755 753.619C343.152 760.114 361.158 784.831 366.12 791.057C363.331 794.174 358.942 796.938 355.287 798.945C331.065 812.251 298.718 809.909 273.084 802.361C236.607 791.621 190.693 768.548 165.438 739.788C160.671 734.36 157.231 728.825 153.512 722.716C152.705 721.391 152.413 721.05 150.91 720.653Z" fill="#FBF8CC"/>
<path d="M433.773 676.297C434.616 674.555 435.39 672.327 436.898 671.073C436.901 673.116 435.191 675.458 434.127 677.163L433.773 676.297Z" fill="#69A9B2"/>
<path d="M405.102 693.221C407.305 688.442 409.434 683.617 411.997 679.016C416.125 677.12 420.125 675.129 424.081 672.896C419.599 681.036 415.759 689.514 411.299 697.651C411.207 697.56 411.117 697.466 411.024 697.376C410.868 697.227 410.708 697.081 410.553 696.932C408.889 695.332 407.1 694.335 405.102 693.221Z" fill="#8EECF5"/>
<path d="M426.508 688.323C428.684 684.199 431.32 680.263 433.774 676.297L434.128 677.163C431.908 680.959 429.709 684.767 427.53 688.587L426.508 688.323Z" fill="#1D2521"/>
<path d="M384.531 685.482C386.805 682.587 389.367 680.283 392.15 677.902C393.583 679.659 395.403 680.913 396.86 682.607C392.794 683.704 388.639 684.548 384.531 685.482Z" fill="#98F5E1"/>
<path d="M376.211 735.821C382.99 717.131 390.928 701.434 398.502 683.423C402.459 682.158 406.409 680.869 410.35 679.556C402.156 694.975 394.852 710.851 388.474 727.106C385.697 734.064 382.578 741.356 381.012 748.695L379.09 755.446C378.123 755.575 377.141 755.569 376.167 755.601C375.716 748.933 374.487 742.38 376.211 735.821Z" fill="#B9FBC0"/>
<path d="M374.7 713.915C376.042 709.287 377.448 704.778 379.312 700.325C381.175 695.874 383.468 691.472 384.935 686.879C388.854 685.521 392.853 684.718 396.905 683.88C391.251 697.837 384.178 710.966 379.182 725.255C378.017 728.586 376.54 732.203 376.022 735.684L375.33 736.638C373.209 732.941 373.558 718.137 374.7 713.915Z" fill="#B9FBC0"/>
<path d="M300.898 686.153C320.067 693.114 337.918 697.951 358.529 693.816C362.745 693.375 366.849 692.354 370.974 691.411C370.201 702.963 370.343 714.679 370.677 726.248C370.847 732.145 372.968 750.933 371.735 755.276C364.962 756.74 343.042 750.219 335.436 747.889C335.488 747.51 335.678 747.125 335.591 746.753C334.925 743.9 330.895 738.341 329.252 735.495L309.718 701.684C306.804 696.621 303.284 691.466 300.898 686.153Z" fill="#B9FBC0"/>
<path d="M381.632 687.705L383.009 687.779C382.998 691.868 374.779 706.134 374.042 713.918L373.456 714.553C372.234 711.378 372.557 700.013 372.319 695.892C372.296 694.785 372.069 692.93 372.591 691.94C373.742 689.757 378.889 688.964 381.075 687.964L381.632 687.705Z" fill="#B9FBC0"/>
<path d="M421.7 696.831C423.227 693.938 424.777 691.1 426.507 688.323L427.529 688.587C424.5 694.822 421.734 701.787 418.105 707.666C416.824 709.242 412.12 719.07 411.062 719.304C413.654 711.602 418.384 704.282 421.7 696.831Z" fill="#3F5A27"/>
<path d="M396.453 732.689C403.524 718.555 408.957 703.026 417.21 689.546C417.229 689.772 417.257 689.998 417.267 690.225C417.459 694.615 402.359 716.971 402.877 725.042L403.571 725.455C410.256 722.015 415.27 707.958 418.529 701.276C419.244 699.809 420.01 697.51 421.291 696.499L421.699 696.831C418.383 704.282 413.653 711.602 411.062 719.304L409.321 722.654L408.718 722.417C405.965 724.587 400.33 733.265 397.061 732.796C396.857 732.767 396.655 732.725 396.453 732.689Z" fill="#B9FBC0"/>
<path d="M358.531 693.816C359.472 692.447 365.122 691.753 367.016 691.387C368.518 691.097 370.334 690.611 371.801 691.057C371.88 692.293 371.768 694.864 372.32 695.892C372.558 700.013 372.235 711.378 373.457 714.553L374.043 713.918L374.696 713.915C373.554 718.137 373.205 732.941 375.326 736.638L376.018 735.684L376.212 735.821C374.488 742.38 375.717 748.933 376.168 755.601C374.591 755.273 373.345 755.138 371.737 755.276C372.97 750.933 370.849 732.145 370.679 726.248C370.345 714.679 370.203 702.963 370.976 691.411C366.851 692.354 362.747 693.375 358.531 693.816Z" fill="url(#paint3_linear_38_15304)"/>
<path d="M446.07 726.921C459.16 715.557 471.522 703.112 484.368 691.434C484.961 692.894 484.935 693.841 484.693 695.393C483.166 705.184 479.968 715.003 477.74 724.688C475.388 734.912 472.778 752.076 469.211 760.903C469.037 761.335 469.096 761.212 468.883 761.545L466.97 764.056C466.833 763.869 466.724 763.659 466.56 763.494C463.785 760.691 461.69 757.83 459.696 754.392C460.298 753.281 460.123 753.86 460.254 752.663L459.034 753.151C456.836 751.531 456.108 748.505 454.265 746.447L454.901 744.955L454.481 744.793C452.209 743.349 450.949 740.59 448.093 740.521C448.103 740.479 448.105 740.435 448.122 740.395C448.672 739.151 449.019 738.508 449.042 737.101C447.76 736.645 446.036 737.378 444.699 737.713C442.861 736.535 441.108 735.215 439.336 733.939C441.463 731.495 443.984 729.432 446.07 726.921Z" fill="#8EECF5"/>
<path d="M382.398 747.568C388.185 728.813 396.639 710.891 405.104 693.221C407.102 694.335 408.891 695.332 410.555 696.932C410.71 697.081 410.87 697.227 411.026 697.376C411.119 697.466 411.209 697.56 411.301 697.651C406.459 707.595 401.912 717.679 397.665 727.891C395.023 734.14 392.671 741.062 389.328 746.929C386.987 747.038 384.706 747.119 382.398 747.568Z" fill="#B9FBC0"/>
<path d="M411.062 719.304C412.12 719.07 416.823 709.242 418.104 707.666C417.773 710.171 416.795 712.881 415.384 714.993C413.121 720.696 410.081 726.096 407.364 731.594C403.945 738.687 400.603 745.817 397.338 752.983L396.008 752.767C400.498 742.802 405.799 733.021 409.321 722.654L411.062 719.304Z" fill="#5A524E"/>
<path d="M415.382 714.993C423.948 719.22 430.944 726.138 438.732 731.58C428.128 742.066 411.987 750.271 397.336 752.983C400.601 745.817 403.943 738.687 407.362 731.594C410.079 726.096 413.119 720.696 415.382 714.993Z" fill="#FFFFFA"/>
<path d="M150.906 720.653C152.409 721.05 152.701 721.391 153.508 722.716C157.227 728.825 160.667 734.36 165.434 739.788C190.689 768.548 236.603 791.621 273.08 802.361C298.714 809.909 331.061 812.251 355.283 798.945C358.938 796.938 363.327 794.174 366.116 791.057C369.017 786.606 371.063 781.556 373.937 777.035C375.037 781.449 375.172 786.449 375.79 790.983C377.505 803.57 380.614 815.728 386.733 826.95C391.691 836.042 398.367 842.423 408.401 845.423C405.853 846.387 403.251 847.203 400.609 847.867C385.636 851.609 370.012 851.918 354.903 848.772C335.27 844.547 316.136 834.843 297.818 826.797C277.525 818.045 257.314 809.105 237.187 799.977C222.868 793.488 205.93 787.217 192.648 779.331C168.928 765.247 157.69 747.035 150.906 720.653Z" fill="#FFFFFA"/>
<path d="M396.455 732.689C396.657 732.725 396.859 732.767 397.063 732.796C400.332 733.265 405.967 724.587 408.72 722.417L409.323 722.654C405.801 733.021 400.5 742.802 396.01 752.767C394.971 753.688 393.638 753.962 392.331 754.325C390.554 754.818 388.951 755.201 387.242 754.222L387.377 752.272C390.457 748.647 394.731 737.451 396.455 732.689Z" fill="#FFFFFA"/>
<path d="M442.68 728.338C443.918 728.263 445.021 727.528 446.065 726.921C443.979 729.432 441.458 731.495 439.331 733.939C430.219 742.833 418.635 749.744 406.588 753.872C403.278 755.006 398.516 755.538 395.584 757.264C394.69 757.791 393.88 759.845 393.498 760.808L392.875 759.582L392.888 758.359C390.943 757.479 386.686 758.551 384.428 758.826L382.124 764.528L381.834 763.712C382.345 762.246 383.157 760.765 382.835 759.238C380.871 759.099 378.832 759.042 377.045 759.968L376.663 760.677L377.137 759.828C376.569 760.645 376.476 760.518 376.529 761.584C376.594 762.886 376.548 764.185 376.511 765.487C375.652 764.594 375.695 763.866 375.58 762.678C375.459 761.434 375.531 761.124 374.819 760.061L373.882 760.081L373.316 762.004L372.644 760.918L372.369 759.694C370.909 758.698 369.742 758.906 368 758.819L368.372 757.913C369.496 758.114 370.039 758.196 371.1 757.739L371.736 755.276C373.344 755.138 374.59 755.273 376.167 755.601C377.141 755.569 378.123 755.575 379.09 755.446L380.175 755.46C381.388 755.493 383.055 755.586 384.228 755.239C385.836 754.764 386.434 753.384 387.175 752.022L387.374 752.272L387.239 754.222C388.948 755.201 390.551 754.818 392.328 754.325C393.635 753.962 394.968 753.688 396.007 752.767L397.337 752.983C411.988 750.271 428.129 742.066 438.733 731.58C440.016 730.453 441.34 729.395 442.68 728.338Z" fill="url(#paint4_linear_38_15304)"/>
<path d="M393.503 760.808C393.885 759.845 394.695 757.791 395.589 757.264C398.521 755.538 403.283 755.006 406.593 753.872C418.64 749.744 430.224 742.833 439.336 733.939C441.108 735.215 442.861 736.535 444.699 737.713C446.036 737.378 447.76 736.645 449.042 737.101C449.019 738.508 448.672 739.151 448.122 740.395C448.105 740.435 448.103 740.479 448.093 740.521C440.286 751.036 408.236 809.926 408.573 820.68C410.56 817.785 411.744 813.912 413.142 810.669C415.818 804.465 418.465 798.224 421.457 792.165C425.331 784.149 429.334 776.195 433.463 768.307C436.566 762.462 447.017 745.735 448.093 740.521C450.949 740.59 452.209 743.349 454.481 744.793C447.619 755.245 418.327 812.601 416.198 822.523C417.512 821.347 418.319 819.6 419.127 818.037C422.549 811.425 425.319 804.367 428.669 797.683C437.22 780.618 446.207 763.754 454.265 746.447C456.108 748.505 456.836 751.531 459.034 753.151C449.921 769.09 440.62 784.834 431.802 800.957C427.541 808.748 421.717 817.865 419.561 826.468C419.35 827.308 419.135 828.145 418.94 828.989C425.226 815.875 432.811 803.285 439.733 790.49C446.225 778.488 452.195 765.763 459.696 754.392C461.69 757.83 463.785 760.691 466.56 763.494C466.724 763.659 466.833 763.869 466.97 764.056C462.158 771.821 430.958 823.858 430.833 829.851C434.499 826.567 439.552 814.097 442.259 809.27C450.289 794.953 458.352 780.45 466.866 766.423C467.628 767.244 468.125 768.009 468.695 768.974C472.394 775.236 477.823 780.477 481.577 786.802C475.469 791.518 469.74 796.869 463.915 801.938C456.739 808.182 449.423 814.288 442.329 820.625C435.698 826.548 429.578 832.885 422.106 837.798C419.294 839.648 416.546 840.904 413.174 841.366C407.788 842.104 402.646 840.145 398.484 836.783C382.912 824.205 379.482 794.082 377.57 775.154C379.566 772.245 381.045 767.911 382.129 764.528L384.433 758.826C386.691 758.551 390.948 757.479 392.893 758.359L392.88 759.582C390.094 766.586 384.985 775.61 383.877 782.849C387.65 775.657 390.079 768.104 393.503 760.808ZM430.102 745.895C424.542 756.182 399.248 801.266 400.267 810.131C405.362 797.095 411.118 784.327 417.513 771.876C421.342 764.315 425.584 756.917 429.188 749.247C429.74 748.072 430.32 747.212 430.102 745.895Z" fill="#FFFFFA"/>
<path d="M408.573 820.68C408.236 809.926 440.286 751.036 448.093 740.521C447.017 745.735 436.566 762.462 433.463 768.307C429.334 776.195 425.331 784.149 421.457 792.165C418.465 798.224 415.818 804.465 413.142 810.669C411.744 813.912 410.56 817.785 408.573 820.68Z" fill="#5A524E"/>
<path d="M454.478 744.793L454.898 744.955L454.262 746.447C446.204 763.754 437.217 780.618 428.666 797.683C425.316 804.367 422.546 811.425 419.124 818.037C418.316 819.6 417.509 821.347 416.195 822.523C418.324 812.601 447.616 755.245 454.478 744.793Z" fill="#5A524E"/>
<path d="M400.264 810.131C399.245 801.266 424.539 756.182 430.099 745.895C430.317 747.212 429.737 748.072 429.185 749.247C425.581 756.917 421.339 764.315 417.51 771.876C411.115 784.327 405.359 797.095 400.264 810.131Z" fill="#5A524E"/>
<path d="M382.402 747.568C384.71 747.119 386.991 747.038 389.332 746.929C388.605 748.623 387.888 750.321 387.18 752.022C386.439 753.384 385.841 754.764 384.233 755.239C383.06 755.586 381.393 755.493 380.18 755.46L381.83 749.397L382.402 747.568Z" fill="#FFFFFA"/>
<path d="M379.094 755.446L381.016 748.695L381.829 749.397L380.179 755.46L379.094 755.446Z" fill="#3F5A27"/>
<path d="M459.031 753.151L460.251 752.663C460.12 753.86 460.295 753.281 459.693 754.392C452.192 765.763 446.222 778.488 439.73 790.49C432.808 803.285 425.223 815.875 418.938 828.989C419.132 828.145 419.348 827.308 419.559 826.468C421.715 817.865 427.538 808.748 431.799 800.957C440.617 784.834 449.918 769.09 459.031 753.151Z" fill="#5A524E"/>
<path d="M340.75 753.619C349.741 756.098 358.653 758.218 367.999 758.819C369.741 758.906 370.908 758.698 372.368 759.694L372.643 760.918C372.783 765.986 372.644 772.154 373.936 777.035C371.062 781.556 369.016 786.606 366.115 791.057C361.153 784.831 343.147 760.114 340.75 753.619Z" fill="#B9FBC0"/>
<path d="M376.516 765.487C376.553 764.185 376.599 762.886 376.534 761.584C376.481 760.518 376.574 760.645 377.142 759.828L376.668 760.677L377.05 759.968C378.837 759.042 380.876 759.099 382.84 759.238C383.162 760.765 382.35 762.246 381.839 763.712L382.129 764.528C381.045 767.911 379.566 772.245 377.57 775.154C377.017 771.995 376.836 768.682 376.516 765.487Z" fill="#B9FBC0"/>
<path d="M393.501 760.808C390.077 768.104 387.648 775.657 383.875 782.849C384.983 775.61 390.092 766.586 392.878 759.582L393.501 760.808Z" fill="#5A524E"/>
<path d="M468.878 761.545C468.806 763.703 467.506 764.572 466.861 766.423C458.347 780.45 450.284 794.953 442.254 809.27C439.547 814.097 434.494 826.567 430.828 829.851C430.953 823.858 462.153 771.821 466.965 764.056L468.878 761.545Z" fill="#5A524E"/>
<defs>
<linearGradient id="paint0_linear_38_15304" x1="332.147" y1="661.198" x2="448.666" y2="233.187" gradientUnits="userSpaceOnUse">
<stop stop-color="#FEEFB7"/>
<stop offset="1" stop-color="#F4D6E0"/>
</linearGradient>
<linearGradient id="paint1_linear_38_15304" x1="692.924" y1="381.533" x2="718.781" y2="534.152" gradientUnits="userSpaceOnUse">
<stop stop-color="#86FFE8"/>
<stop offset="1" stop-color="#EFCBFF"/>
</linearGradient>
<linearGradient id="paint2_linear_38_15304" x1="323.841" y1="656.902" x2="318.831" y2="667.243" gradientUnits="userSpaceOnUse">
<stop stop-color="#363A2D"/>
<stop offset="1" stop-color="#55684C"/>
</linearGradient>
<linearGradient id="paint3_linear_38_15304" x1="377.309" y1="721.927" x2="367.242" y2="723.849" gradientUnits="userSpaceOnUse">
<stop stop-color="#334D32"/>
<stop offset="1" stop-color="#4D684F"/>
</linearGradient>
<linearGradient id="paint4_linear_38_15304" x1="406.821" y1="740.114" x2="411.607" y2="750.633" gradientUnits="userSpaceOnUse">
<stop stop-color="#364846"/>
<stop offset="1" stop-color="#695F54"/>
</linearGradient>
</defs>
</svg>
