<svg width="1024" height="1024" viewBox="0 0 1024 1024" fill="none" xmlns="http://www.w3.org/2000/svg">
<path d="M405.023 202.297C409.404 199.519 417.394 197.35 422.497 195.688C453.643 185.541 477.499 169.025 502.327 148.29C507.663 143.241 512.567 137.216 517.858 132.5C540.088 112.688 564.221 99.5454 594.857 100.069C629.312 100.657 672.345 124.514 696.223 149.014C706.371 159.924 720.956 178.599 724.99 193.323C717.273 188.851 710.029 186.287 701.084 185.545C681.517 183.922 658.816 187.043 639.466 189.858L566.574 200.749L542.275 204.39C530.239 206.297 519.787 208.21 507.52 207.389C496.954 206.682 486.017 208.107 475.44 207.86C451.906 207.05 428.469 204.288 405.023 202.297Z" fill="#FDE4CF"/>
<path d="M502.331 148.29C477.503 169.025 453.647 185.541 422.501 195.688C417.398 197.35 409.408 199.519 405.027 202.297C388.772 201.189 363.831 197.208 347.04 194.829L346.856 194.488C347.561 193.734 363.495 190.037 366.065 189.329L366.125 188.88C362.511 189.101 345.903 192.786 341.716 193.974C311.605 195.356 297.615 199.52 285.587 229.088C272.282 232.579 261.166 238.21 253.868 250.467C249.424 257.93 249.608 262.861 247.885 270.706C245.239 272.689 242.539 274.488 240.46 277.044L240.623 277.349L241.364 277L241.085 276.433L241.762 276.761C244.233 274.988 245.772 273.593 248.027 271.566C248.091 285.755 249.68 296.619 251.594 310.691C236.501 324.96 221.392 340.17 205.87 353.652C169.798 384.983 133.322 415.95 120.944 464.328C115.955 483.825 115.195 494.675 117.74 514.647L117.461 515.095C114.108 515.853 98.162 479.178 92.8211 476.27C96.0816 450.927 102.516 427.611 113.583 404.575C115.654 400.265 119.257 395.257 120.67 390.832L120.342 390.795C118.074 394.046 115.68 399.283 113.804 402.923C103.794 422.336 97.7145 441.373 93.6018 462.774C91.3348 460.367 90.6328 457.606 89.8892 454.359C71.4475 373.831 98.391 275.027 139.63 205.24C166.433 159.884 211.01 122.035 262.481 109.767C278.353 105.814 294.517 104.388 310.743 102.732C379.97 95.6677 443.318 112.695 502.331 148.29ZM298.215 138.374C297.032 144.868 289.604 198.495 290.435 200.537L290.749 200.59C291.196 192.845 299.77 140.177 298.215 138.374ZM270.834 138.74C271.006 143.456 282.939 194.995 284.371 196.138C283.253 190.422 272.039 140.341 270.834 138.74ZM325.634 149.167C317.885 162.438 311.119 176.198 302.908 189.194C301.779 190.98 298.237 195.993 298.072 197.794C308.237 184.142 317.706 164.871 326.297 149.684C326.076 149.512 325.855 149.34 325.634 149.167ZM249.04 153.75C250.968 157.773 279.989 201.081 282.756 203.454L283.117 203.378C282.628 201.318 249.567 154.003 249.04 153.75ZM353.966 163.549C349.249 166.499 343.13 171.611 338.433 175.166C331.222 180.623 322.554 186.33 316.145 192.471L316.178 192.95L316.468 193.04C317.703 192.356 323.796 187.38 325.644 186.022C335.146 179.036 344.536 171.886 353.723 164.484L353.966 163.549ZM247.333 186.152C249.958 188.186 264.555 199.101 266.691 198.883C263.796 196.82 249.761 186.428 247.686 186.003L247.333 186.152ZM217.518 198.029C219.914 198.991 234.46 203.177 237.262 203.703C241.49 204.498 276.764 216.384 277.805 216.111C273.453 213.119 222.531 197.96 217.518 198.029ZM270.168 201.86C272.901 204.083 277.556 207.615 281.017 208.123C278.345 206.104 273.391 202.24 270.168 201.86ZM269.112 220.768C254.485 222.554 230.032 223.459 216.684 226.774C218.968 226.899 219.615 226.854 221.883 226.525C224.879 226.288 227.946 225.799 230.935 225.409C245.662 223.487 260.789 223.098 275.462 220.873C272.634 220.538 271.917 220.448 269.112 220.768ZM267.011 233.027C263.812 234.334 258.734 236.234 255.874 237.874C256 238.464 255.842 238.283 256.182 238.527C260.077 236.937 263.387 235.515 267.175 233.696C267.15 233.101 267.279 233.292 267.011 233.027ZM250.673 239.899C247.411 241.895 234.348 247.626 233.703 249.39C234.513 249.394 234.223 249.5 234.625 249.308C237.028 248.128 251.05 241.631 251.703 240.131C251.363 240.043 251.025 239.885 250.673 239.899ZM193.441 334.694C175.112 338.215 157.8 348.708 144.263 361.23C141.763 363.542 138.231 366.484 136.256 369.133L136.428 370.076C151.683 354.703 167.276 342.529 188.466 336.626C189.854 336.239 193.304 335.878 193.441 334.694Z" fill="#F1C0E8"/>
<path d="M696.227 149.014C737.021 119.533 771.659 112.247 820.787 119.386C882.386 128.336 953.378 171.288 943.413 242.736C938.197 280.127 905.886 316.005 867.274 318.176C863.344 318.397 855.679 318.628 852.183 319.365C843.773 315.781 827.004 311.78 817.539 308.88C799.999 303.506 790.149 299.239 774.163 290.994C772.442 261.793 768.105 238.297 744.288 219.169C739.342 205.972 736.424 202.268 724.994 193.323C720.96 178.599 706.375 159.924 696.227 149.014Z" fill="#FBF8CC"/>
<path d="M290.746 200.59L290.432 200.537C289.601 198.495 297.029 144.868 298.212 138.374C299.767 140.177 291.193 192.845 290.746 200.59Z" fill="#C681BD"/>
<path d="M284.373 196.138C282.941 194.995 271.008 143.456 270.836 138.74C272.041 140.341 283.255 190.422 284.373 196.138Z" fill="#C681BD"/>
<path d="M298.07 197.794C298.235 195.993 301.777 190.98 302.906 189.194C311.117 176.198 317.883 162.438 325.632 149.167C325.853 149.34 326.074 149.512 326.295 149.684C317.704 164.871 308.235 184.142 298.07 197.794Z" fill="#C681BD"/>
<path d="M283.116 203.378L282.755 203.454C279.988 201.081 250.967 157.773 249.039 153.75C249.566 154.003 282.627 201.318 283.116 203.378Z" fill="#C681BD"/>
<path d="M316.464 193.04L316.174 192.95L316.141 192.471C322.55 186.33 331.218 180.623 338.429 175.166C343.126 171.611 349.245 166.499 353.962 163.549L353.719 164.484C344.532 171.886 335.142 179.036 325.64 186.022C323.792 187.38 317.699 192.356 316.464 193.04Z" fill="#C681BD"/>
<path d="M405.025 202.297C428.471 204.288 451.908 207.05 475.442 207.86C486.019 208.107 496.956 206.682 507.522 207.389C519.789 208.21 530.241 206.297 542.277 204.39L566.576 200.749L639.468 189.858C658.818 187.043 681.519 183.922 701.086 185.545C710.031 186.287 717.275 188.851 724.992 193.323C736.422 202.268 739.34 205.972 744.286 219.169C768.103 238.297 772.44 261.793 774.161 290.994C775.624 325.843 770.069 366.956 765.869 401.74C763.192 423.913 760.979 446.555 758.632 468.803C755.248 500.879 750.943 538.726 751.472 570.958C752.613 610.879 760.603 651.444 765.237 690.977C766.923 707.878 773.308 728.697 770.844 745.377C766.139 777.23 733.552 809.48 700.061 808.037C642.606 805.561 588.812 790.625 530.533 792.484C503.558 792.91 481.521 796.472 454.281 801.095C413.613 807.996 365.831 824.834 324.568 817.701C306.876 814.642 292.485 796.418 283.681 782.043C275.227 779.48 266.504 775.702 260.85 768.687C245.697 749.882 247.321 718.476 249.3 695.896L249.046 695.393L249.315 694.586C250.181 692.181 251.207 683.018 251.598 679.971C252.809 670.527 253.97 661.22 255.409 651.793C256.21 646.52 257.355 639.771 257.716 634.564L257.794 633.546C260.011 624.516 260.799 613.17 262.421 603.762C268.579 568.021 270.793 531.883 278.246 496.383C278.942 489.812 278.138 482.289 278.574 475.831C279.98 455.044 274.971 435.89 271.234 415.622L261.232 361.432C257.936 344.486 254.32 327.75 251.592 310.691C249.678 296.619 248.089 285.755 248.025 271.566L247.883 270.706C249.606 262.861 249.422 257.93 253.866 250.467C261.164 238.21 272.28 232.579 285.585 229.088C297.613 199.52 311.603 195.356 341.714 193.974C343.172 194.223 345.652 194.728 347.038 194.829C363.829 197.208 388.77 201.189 405.025 202.297ZM354.435 198.198C325.343 194.027 298.94 196.307 288.345 228.262C297.468 226.904 306.698 225.472 315.912 225.035C330.324 224.352 344.696 222.478 359.036 221.384C393.65 218.026 425.879 213.274 460.233 209.365C437.563 207.658 412.446 205.432 389.84 202.69C379.23 201.09 367.279 199.031 356.69 198.453L354.435 198.198ZM728.58 198.624C714.692 187.002 695.585 185.837 678.21 187.395C635.894 191.189 593.798 198.986 551.727 204.944C545.894 205.775 539.975 206.757 534.237 207.988C582.369 211.05 631.158 210.389 679.336 209.048C695.8 208.589 711.327 206.685 727.67 209.99C733.457 211.588 735.825 212.869 741.027 215.94C738.191 208.105 734.603 204.098 728.58 198.624ZM282.59 242.29C283.253 238.856 283.926 234.877 284.73 231.522C272.585 234.255 262.884 239.808 255.902 250.449C246.07 265.434 250.567 290.431 253.173 307.536C256.686 330.676 262 355.401 266.367 378.628C270.081 398.38 273.729 424.838 278.694 443.758C280.292 388.19 279.827 330.639 280.626 274.79C281.511 265.667 281.349 255.561 282.239 245.902C282.567 245.012 282.539 243.329 282.59 242.29ZM743.486 221.741C748.549 239.99 748.755 248.938 749.445 267.386L750.066 516.398C749.911 519.106 749.62 535.159 750.539 536.672L750.513 537.041L750.632 537.091C750.836 534.987 751.641 528.031 751.494 526.147C751.412 523.596 751.528 520.777 751.756 518.228C755.963 471.131 761.406 424.086 766.888 377.12C770.226 348.525 773.292 317.132 771.969 288.458C771.853 267.598 763.57 232.435 743.486 221.741ZM751.502 594.844C751.398 593.152 751.218 589.18 750.406 587.811C749.586 591.289 749.927 612.982 749.938 617.599L749.916 680.33L749.915 731.524C749.909 739.025 749.519 750.939 750.062 758.142C749.058 782.978 727.235 789.812 706.092 791.272C665.578 794.071 625.619 790.097 585.106 789.037C567.662 788.557 550.188 788.267 532.753 787.709C480.62 786.041 428.507 786.968 376.366 786.064L335.548 785.499C319.549 785.395 301.629 785.617 286.053 782.4C294.705 796.248 308.552 812.972 325.916 815.999C358.521 821.684 391.855 811.674 423.441 804.654C477.291 791.592 525.565 786.573 580.906 792.218C619.725 795.469 657.434 804.669 696.836 806.229C726.709 808.006 750.593 788.04 763.713 762.65C769.805 750.859 770.655 738.243 768.491 725.163C762.56 689.313 758.291 653.143 753.432 617.129C752.568 610.728 751.4 601.967 751.488 595.537L751.502 594.844ZM278.278 507.504C273.507 525.782 272.512 547.362 269.751 566.189C266.434 588.807 262.859 611.375 259.903 634.047L259.806 634.863C258.705 640.598 258.02 646.451 257.261 652.245C255.083 666.309 253.638 681.614 251.307 695.217C259.594 698.826 268.166 702.013 276.614 705.249C276.689 688.136 277.477 671.125 277.559 654.226C277.663 648.548 277.862 642.661 277.674 637.001L277.587 636.023C278.325 619.298 278.007 600.989 278.141 584.12C278.343 558.642 278.54 532.974 278.278 507.504ZM492.768 209.225C440.89 210.834 387.993 222.538 335.939 225.316C319.708 226.182 302.963 227.752 287.04 230.961C281.768 251.325 282.173 284.819 281.989 306.697L281.463 374.97L280.14 581.247C280.085 610.076 279.938 639.297 279.294 668.142L278.596 717.379C278.415 736.975 276.592 762.775 285.28 780.3C306.685 785.092 343.6 783.688 366.719 784.051L540.874 785.564C563.655 785.993 586.389 786.38 609.142 787.754C637.701 789.479 666.288 791.679 694.922 790.252C710.602 789.471 728.086 789.246 740.084 777.587C747.605 770.28 748.112 763.099 748.19 753.377L747.641 425.312L747.499 315.926C747.504 304.148 747.649 291.904 747.52 280.17C747.315 261.428 748.441 231.954 737.825 216.047C721.344 206.831 689.259 211.056 670.379 211.395C625.789 212.196 581.297 212.704 536.735 210.171C522.778 209.442 506.672 208.585 492.768 209.225ZM251.238 697.037C249.388 717.259 248.468 738.857 256.381 757.998C261.203 769.661 270.218 775.36 281.765 779.252C281.888 778.976 282.011 778.7 282.134 778.424C280.548 773.913 278.797 768.933 278.22 764.166C275.945 745.384 276.508 726.036 276.63 707.142C268.138 703.812 259.679 700.5 251.238 697.037Z" fill="#020202"/>
<path d="M266.686 198.883C264.55 199.101 249.953 188.186 247.328 186.152L247.681 186.003C249.756 186.428 263.791 196.82 266.686 198.883Z" fill="#C681BD"/>
<path d="M728.577 198.624C726.728 200.756 727.523 207.013 727.667 209.99C711.324 206.685 695.797 208.589 679.333 209.048C631.155 210.389 582.366 211.05 534.234 207.988C539.972 206.757 545.891 205.775 551.724 204.944C593.795 198.986 635.891 191.189 678.207 187.395C695.582 185.837 714.689 187.002 728.577 198.624Z" fill="#FDE4CF"/>
<path d="M341.719 193.974C345.906 192.786 362.514 189.101 366.128 188.88L366.068 189.329C363.498 190.037 347.564 193.734 346.859 194.488L347.043 194.829C345.657 194.728 343.177 194.223 341.719 193.974Z" fill="#C681BD"/>
<path d="M288.344 228.262C298.939 196.307 325.342 194.027 354.434 198.198L354.583 198.786C344.839 205.59 339.141 205.297 330.39 209.585C335.495 209.597 352.16 202.115 356.689 198.453C367.278 199.031 379.229 201.09 389.839 202.69C389.657 204.172 389.942 204.504 388.798 205.292C386.485 206.885 382.69 208.081 380.035 209.024C374.546 211.256 361.727 216.449 359.035 221.384C344.695 222.478 330.323 224.352 315.911 225.035C306.697 225.472 297.467 226.904 288.344 228.262ZM375.012 208.64C366.943 206.517 346.511 210.569 337.625 211.16C334.655 211.358 329.758 212.304 326.766 211.715L327.591 210.227C323.011 212.571 317.342 213.151 312.463 215.48L312.467 215.978C315.862 215.26 319.601 213.901 322.896 213.455C328.264 212.73 333.978 212.31 339.395 211.791L375.012 208.64Z" fill="#F1C0E8"/>
<path d="M277.803 216.111C276.762 216.384 241.488 204.498 237.26 203.703C234.458 203.177 219.912 198.991 217.516 198.029C222.529 197.96 273.451 213.119 277.803 216.111Z" fill="#C681BD"/>
<path d="M354.435 198.198L356.69 198.453C352.161 202.115 335.496 209.597 330.391 209.585C339.142 205.297 344.84 205.59 354.584 198.786L354.435 198.198Z" fill="#C681BD"/>
<path d="M727.668 209.99C727.524 207.013 726.729 200.756 728.578 198.624C734.601 204.098 738.189 208.105 741.025 215.94C735.823 212.869 733.455 211.588 727.668 209.99Z" fill="#FBF8CC"/>
<path d="M281.013 208.123C277.552 207.615 272.897 204.083 270.164 201.86C273.387 202.24 278.341 206.104 281.013 208.123Z" fill="#CFBAF0"/>
<path d="M389.843 202.69C412.449 205.432 437.566 207.658 460.236 209.365C425.882 213.274 393.653 218.026 359.039 221.384C361.731 216.449 374.55 211.256 380.039 209.024C382.694 208.081 386.489 206.885 388.802 205.292C389.946 204.504 389.661 204.172 389.843 202.69Z" fill="#FDE4CF"/>
<path d="M327.597 210.227L326.772 211.715C329.764 212.304 334.661 211.358 337.631 211.16C346.517 210.569 366.949 206.517 375.018 208.64L339.401 211.791C333.984 212.31 328.27 212.73 322.902 213.455C319.607 213.901 315.868 215.26 312.473 215.978L312.469 215.48C317.348 213.151 323.017 212.571 327.597 210.227Z" fill="#C681BD"/>
<path d="M287.044 230.961C302.967 227.752 319.712 226.182 335.943 225.316C387.997 222.538 440.894 210.834 492.772 209.225C506.676 208.585 522.782 209.442 536.739 210.171C581.301 212.704 625.793 212.196 670.383 211.395C689.263 211.056 721.348 206.831 737.829 216.047C748.445 231.954 747.319 261.428 747.524 280.17C747.653 291.904 747.508 304.148 747.503 315.926L747.645 425.312L748.194 753.377C748.116 763.099 747.609 770.28 740.088 777.587C728.09 789.246 710.606 789.471 694.926 790.252C666.292 791.679 637.705 789.479 609.146 787.754C586.393 786.38 563.659 785.993 540.878 785.564L366.723 784.051C343.604 783.688 306.689 785.092 285.284 780.3C276.596 762.775 278.419 736.975 278.6 717.379L279.298 668.142C279.942 639.297 280.089 610.076 280.144 581.247L281.467 374.97L281.993 306.697C282.177 284.819 281.772 251.325 287.044 230.961ZM324.582 294.21C326.939 296.149 332.858 295.501 336.093 295.503C357.06 295.519 378.031 295.501 399 295.496L614.385 295.379L676.019 295.456C682.162 295.472 702.68 296.201 707.255 294.984C705.905 293.596 706.113 293.787 703.502 293.795C670.824 293.897 638.094 293.794 605.417 293.837L426.107 293.913L353.415 293.921C348.298 293.918 327.927 293.448 324.582 294.21ZM324.884 340.247C326.313 341.477 326.205 341.438 328.552 341.459C344.553 341.598 360.685 341.615 376.677 341.665L477.339 341.738C553.06 341.642 629.471 342.441 705.128 341.658L706.167 341.108L705.8 340.404C701.836 339.622 685.356 339.996 680.194 340.012L629.832 340.015L423.593 340.024L355.66 340.004C349.977 339.988 329.022 339.491 324.884 340.247ZM325.031 385.24C326.406 386.561 326.566 386.474 328.973 386.475C347.4 386.483 365.892 386.464 384.317 386.458L495.141 386.472L637.387 386.406C658.818 386.387 680.275 386.463 701.708 386.491C702.946 386.493 705.14 386.43 706.303 386.24C704.128 384.397 698.795 384.971 695.788 384.969C674.572 384.955 653.354 384.961 632.137 384.964L419.777 385.01L357.251 384.932C347.867 384.924 333.968 384.149 325.031 385.24ZM342.638 426.75C339.351 426.74 327.965 426.515 325.451 427.55C330.488 429.112 353.72 428.418 360.914 428.408L411.768 428.416L688.753 428.532C694.669 428.551 699.761 428.598 705.671 428.105L705.865 427.786C699.303 426.2 680.979 426.898 672.987 426.885L611.043 426.795L342.638 426.75ZM324.489 467.202L324.98 468.455C327.005 468.833 334.216 468.665 336.648 468.66L359.186 468.614L444.228 468.607L630.593 468.569L677.699 468.672C686.287 468.733 696.58 469.075 705.051 468.768L705.366 467.833C704.052 466.946 702.552 467.031 700.82 467.027C665.131 466.955 629.378 466.976 593.694 467.047L415.45 467.013L356.343 466.938C347.336 466.928 333.11 466.514 324.489 467.202ZM326.016 507.206L326.337 508.309C329.592 509.615 384.617 508.929 392.409 508.926L580.066 508.639C621.361 508.604 664.332 509.409 705.393 508.834L706.265 508.154L705.915 507.433C702.337 506.629 675.725 507.011 670.07 507.009L580.267 506.98L410.186 507.08L355.402 507.053C346.729 507.046 334.272 506.622 326.016 507.206ZM457.772 543.223C444.852 543.545 328.105 548.6 324.285 550.557L324.316 551.09C326.384 551.754 330.062 551.468 332.322 551.318C411.879 546.035 491.63 541.54 571.428 546.414C588.848 546.744 700.818 553.489 706.545 550.648C706.6 550.674 641.413 547.701 636.002 547.532C577.281 545.697 516.455 540.92 457.772 543.223ZM324.423 591.2L324.841 592.393C327.431 593.242 348.944 592.872 352.792 592.86L417.838 592.563L706.26 592.488L706.082 591.412C702.138 590.066 642.305 590.942 634.483 590.945L413.875 590.98L354.335 591.052C346.637 591.063 331.44 590.633 324.423 591.2ZM325.317 633.183L325.84 634.426C327.997 635.054 330.187 634.963 332.459 634.968C365.403 635.035 398.374 634.966 431.319 634.943L610.457 634.934L677.892 634.993C682.338 635.006 704.105 635.313 706.829 634.654C705.872 633.563 706.216 633.505 704.73 633.474C698.422 633.341 691.966 633.358 685.666 633.321L651.717 633.065L545.96 633.127L392.503 633.308L349.95 633.151C342.177 633.099 332.947 632.812 325.317 633.183ZM323.913 675.719C325.063 676.812 325.045 677.085 326.954 677.095C332.644 677.126 338.429 677.074 344.115 677.066L378.918 677.053H487.862L629.923 677.024C639.427 677.034 703.692 677.767 706.736 676.555C705.473 675.309 706.095 675.49 704.16 675.472C686.08 675.305 667.888 675.34 649.813 675.36L553.784 675.424L329.236 675.338C327.617 675.352 325.45 675.364 323.913 675.719ZM324.276 720.682L324.808 722.001C327.076 722.626 329.796 722.521 332.189 722.527C426.025 722.75 519.902 722.526 613.739 722.438L678.086 722.359C682.018 722.359 704.266 722.604 707.174 721.871L706.19 720.749C687.674 719.935 664.401 720.608 645.521 720.643L525.087 720.957L389.416 720.999L347.975 720.869C340.529 720.808 331.6 720.434 324.276 720.682Z" fill="#B9FBC0"/>
<path d="M221.879 226.525C219.611 226.854 218.964 226.899 216.68 226.774C230.028 223.459 254.481 222.554 269.108 220.768C271.913 220.448 272.63 220.538 275.458 220.873C260.785 223.098 245.658 223.487 230.931 225.409C227.942 225.799 224.875 226.288 221.879 226.525Z" fill="#C681BD"/>
<path d="M749.443 267.386C748.753 248.938 748.547 239.99 743.484 221.741C763.568 232.435 771.851 267.598 771.967 288.458C765.403 286.929 754.362 272.099 749.766 267.689L749.443 267.386Z" fill="#FBF8CC"/>
<path d="M282.591 242.29C280.306 244.785 276.98 248.216 274.971 250.794C277.632 248.695 279.138 247.397 281.549 245.024L282.013 245.21L282.24 245.902C281.35 255.561 281.512 265.667 280.627 274.79C277.768 277.216 276.347 279.809 274.052 282.475C268.34 289.11 259.455 302.351 253.174 307.536C250.568 290.431 246.071 265.434 255.903 250.449C262.885 239.808 272.586 234.255 284.731 231.522C283.927 234.877 283.254 238.856 282.591 242.29Z" fill="#F1C0E8"/>
<path d="M256.183 238.527C255.843 238.283 256.001 238.464 255.875 237.874C258.735 236.234 263.813 234.334 267.012 233.027C267.28 233.292 267.151 233.101 267.176 233.696C263.388 235.515 260.078 236.937 256.183 238.527Z" fill="#CFBAF0"/>
<path d="M234.625 249.308C234.223 249.5 234.513 249.394 233.703 249.39C234.348 247.626 247.411 241.895 250.673 239.899C251.025 239.885 251.363 240.043 251.703 240.131C251.05 241.631 237.028 248.128 234.625 249.308Z" fill="#CFBAF0"/>
<path d="M282.238 245.902L282.011 245.21L281.547 245.024C279.136 247.397 277.63 248.695 274.969 250.794C276.978 248.216 280.304 244.785 282.589 242.29C282.538 243.329 282.566 245.012 282.238 245.902Z" fill="#9B668F"/>
<path d="M749.445 267.386L749.768 267.689C754.364 272.099 765.405 286.929 771.969 288.458C773.292 317.132 770.226 348.525 766.888 377.12C761.406 424.086 755.963 471.131 751.756 518.228C751.528 520.777 751.412 523.596 751.494 526.147L750.935 526.531C750.386 525.163 750.294 518.716 750.066 516.398L749.445 267.386Z" fill="#FDE4CF"/>
<path d="M248.028 271.566C245.773 273.593 244.234 274.988 241.763 276.761L241.086 276.433L241.365 277L240.624 277.349L240.461 277.044C242.54 274.488 245.24 272.689 247.886 270.706L248.028 271.566Z" fill="#C681BD"/>
<path d="M253.172 307.536C259.453 302.351 268.338 289.11 274.05 282.475C276.345 279.809 277.766 277.216 280.625 274.79C279.826 330.639 280.291 388.19 278.693 443.758C273.728 424.838 270.08 398.38 266.366 378.628C261.999 355.401 256.685 330.676 253.172 307.536Z" fill="#98F5E1"/>
<path d="M774.163 290.994C790.149 299.239 799.999 303.506 817.539 308.88C827.004 311.78 843.773 315.781 852.183 319.365C870.372 337.639 884.754 362.402 888.679 388.063C892.142 410.701 892.472 428.136 878.507 447.401L878.192 447.456C872.905 445.526 865.286 445.082 859.662 445.175C823.466 445.777 787.936 468.866 787.368 507.951C787.333 510.365 786.61 516.598 787.598 518.5C784.896 544.318 780.217 548.979 759.872 566.392C757.39 568.517 754.746 570.338 751.474 570.958C750.945 538.726 755.25 500.879 758.634 468.803C760.981 446.555 763.194 423.913 765.871 401.74C770.071 366.956 775.626 325.843 774.163 290.994Z" fill="url(#paint0_linear_41_1309)"/>
<path d="M707.251 294.984C702.676 296.201 682.158 295.472 676.015 295.456L614.381 295.379L398.996 295.496C378.027 295.501 357.056 295.519 336.089 295.503C332.854 295.501 326.935 296.149 324.578 294.21C327.923 293.448 348.294 293.918 353.411 293.921L426.103 293.913L605.413 293.837C638.09 293.794 670.82 293.897 703.498 293.795C706.109 293.787 705.901 293.596 707.251 294.984Z" fill="#020202"/>
<path d="M117.741 514.647C115.196 494.675 115.956 483.825 120.945 464.328C133.323 415.95 169.799 384.983 205.871 353.652C221.393 340.17 236.502 324.96 251.595 310.691C254.323 327.75 257.939 344.486 261.235 361.432L271.237 415.622C274.974 435.89 279.983 455.044 278.577 475.831C278.141 482.289 278.945 489.812 278.249 496.383C270.796 531.883 268.582 568.021 262.424 603.762C260.802 613.17 260.014 624.516 257.797 633.546C244.512 630.886 232.954 627.487 220.615 621.58C218.733 620.679 214.307 617.838 212.757 617.692C213.811 619.472 223.692 623.977 225.989 624.978C236.051 629.361 246.978 632.33 257.719 634.564C257.358 639.771 256.213 646.52 255.412 651.793C249.713 650.525 243.7 649.776 238.119 648.34C188.822 635.658 147.096 598.394 128.24 551.174C125.301 543.815 123.198 536.398 120.989 528.866C119.857 524.404 118.367 519.133 117.741 514.647ZM181.718 443.298C174.32 455.807 169.62 466.306 165.857 480.459C154.043 524.894 161.94 579.704 199.891 609.457C200.334 609.804 201.198 610.065 201.768 610.181C194.225 603.84 186.307 596.09 180.925 587.839C153.885 546.386 156.456 486.308 182.049 444.736C182.583 443.869 182.234 443.809 181.718 443.298Z" fill="#98F5E1"/>
<path d="M136.43 370.076L136.258 369.133C138.233 366.484 141.765 363.542 144.265 361.23C157.802 348.708 175.114 338.215 193.443 334.694C193.306 335.878 189.856 336.239 188.468 336.626C167.278 342.529 151.685 354.703 136.43 370.076Z" fill="#9B668F"/>
<path d="M705.127 341.658C629.47 342.441 553.059 341.642 477.338 341.738L376.676 341.665C360.684 341.615 344.552 341.598 328.551 341.459C326.204 341.438 326.312 341.477 324.883 340.247C329.021 339.491 349.976 339.988 355.659 340.004L423.592 340.024L629.831 340.015L680.193 340.012C685.355 339.996 701.835 339.622 705.799 340.404L706.166 341.108L705.127 341.658Z" fill="#020202"/>
<path d="M706.303 386.24C705.14 386.43 702.946 386.493 701.708 386.491C680.275 386.463 658.818 386.387 637.387 386.406L495.141 386.472L384.317 386.458C365.892 386.464 347.4 386.483 328.973 386.475C326.566 386.474 326.406 386.561 325.031 385.24C333.968 384.149 347.867 384.924 357.251 384.932L419.777 385.01L632.137 384.964C653.354 384.961 674.572 384.955 695.788 384.969C698.795 384.971 704.128 384.397 706.303 386.24Z" fill="#020202"/>
<path d="M93.5978 462.774C97.7105 441.373 103.79 422.336 113.8 402.923C115.676 399.283 118.07 394.046 120.338 390.795L120.666 390.832C119.253 395.257 115.65 400.265 113.579 404.575C102.512 427.611 96.0776 450.927 92.8171 476.27C87.2753 523.491 94.4685 568.297 124.495 606.745C138.865 625.146 155.983 641.051 174.818 654.74C179.578 658.199 186.173 663.039 191.286 665.803C207.67 675.287 223.932 683.859 241.462 690.976C243.727 691.896 247.387 693.304 249.313 694.586L249.044 695.393L249.298 695.896C242.239 693.603 232.819 688.832 225.932 685.759C185.106 667.544 145.626 638.532 119.307 602.024C89.7766 561.062 85.2422 511.48 93.5978 462.774Z" fill="#020202"/>
<path d="M688.747 428.532L411.762 428.416L360.908 428.408C353.714 428.418 330.482 429.112 325.445 427.55C327.959 426.515 339.345 426.74 342.632 426.75L611.037 426.795L672.981 426.885C680.973 426.898 699.297 426.2 705.859 427.786L705.665 428.105C699.755 428.598 694.663 428.551 688.747 428.532Z" fill="#020202"/>
<path d="M201.769 610.181C201.199 610.065 200.335 609.804 199.892 609.457C161.941 579.704 154.044 524.894 165.858 480.459C169.621 466.306 174.321 455.807 181.719 443.298C182.235 443.809 182.584 443.869 182.05 444.736C156.457 486.308 153.886 546.386 180.926 587.839C186.308 596.09 194.226 603.84 201.769 610.181Z" fill="#27625C"/>
<path d="M787.596 518.5C786.608 516.598 787.331 510.365 787.366 507.951C787.934 468.866 823.464 445.777 859.66 445.175C865.284 445.082 872.903 445.526 878.19 447.456C860.846 465.647 842.92 473.887 821.747 486.086C811.545 491.965 794.94 508.715 787.596 518.5Z" fill="#FDE4CF"/>
<path d="M878.188 447.456L878.503 447.401C898.265 449.579 923.722 466.313 935.859 481.68C967.393 521.603 972.905 575.452 965.156 624.256C957.966 676.764 928.081 726.335 887.033 759.653C825.808 809.349 743.551 842.526 664.283 844.185C623.55 845.037 576.433 832.36 544.526 806.196C541.007 803.31 532.292 796.33 530.531 792.484C588.81 790.625 642.604 805.561 700.059 808.037C733.55 809.48 766.137 777.23 770.842 745.377C773.306 728.697 766.921 707.878 765.235 690.977C760.601 651.444 752.611 610.879 751.47 570.958C754.742 570.338 757.386 568.517 759.868 566.392C780.213 548.979 784.892 544.318 787.594 518.5C794.938 508.715 811.543 491.965 821.745 486.086C842.918 473.887 860.844 465.647 878.188 447.456ZM839.017 681.696C838.04 682.09 837.351 682.978 837.211 684.023C837.072 685.067 837.504 686.105 838.343 686.742C839.182 687.378 840.299 687.515 841.267 687.1C842.741 686.467 843.431 684.766 842.814 683.285C842.198 681.805 840.505 681.096 839.017 681.696ZM840.573 763.876C839.588 764.261 839.076 765.348 839.406 766.352C839.736 767.356 840.793 767.928 841.814 767.654C842.526 767.463 843.075 766.894 843.24 766.175C843.404 765.455 843.158 764.704 842.599 764.222C842.04 763.74 841.26 763.607 840.573 763.876ZM773.566 796.746C772.825 796.976 772.268 797.59 772.11 798.35C771.952 799.109 772.219 799.895 772.807 800.401C773.394 800.907 774.211 801.055 774.938 800.786C776.024 800.386 776.593 799.193 776.221 798.097C775.848 797.001 774.671 796.402 773.566 796.746ZM657.192 809.789C656.438 810.046 655.885 810.693 655.746 811.477C655.608 812.261 655.906 813.058 656.525 813.558C657.145 814.058 657.987 814.182 658.724 813.882C659.82 813.436 660.362 812.199 659.947 811.091C659.532 809.983 658.311 809.406 657.192 809.789Z" fill="#A3C4F3"/>
<path d="M705.046 468.768C696.575 469.075 686.282 468.733 677.694 468.672L630.588 468.569L444.223 468.607L359.181 468.614L336.643 468.66C334.211 468.665 327 468.833 324.975 468.455L324.484 467.202C333.105 466.514 347.331 466.928 356.338 466.938L415.445 467.013L593.689 467.047C629.373 466.976 665.126 466.955 700.815 467.027C702.547 467.031 704.047 466.946 705.361 467.833L705.046 468.768Z" fill="#020202"/>
<path d="M92.8178 476.27C98.1587 479.178 114.105 515.853 117.458 515.095L117.737 514.647C118.363 519.133 119.853 524.404 120.985 528.866C120.299 532.499 121.427 536.712 122.32 540.246C126.995 558.746 136.56 576.143 147.237 591.847C156.413 605.343 194.149 650.06 192.303 663.487C192.185 664.347 191.717 665.069 191.287 665.803C186.174 663.039 179.579 658.199 174.819 654.74C155.984 641.051 138.866 625.146 124.496 606.745C94.4692 568.297 87.276 523.491 92.8178 476.27Z" fill="#E6DFD5"/>
<path d="M705.393 508.834C664.332 509.409 621.361 508.604 580.066 508.639L392.409 508.926C384.617 508.929 329.592 509.615 326.337 508.309L326.016 507.206C334.272 506.622 346.729 507.046 355.402 507.053L410.186 507.08L580.267 506.98L670.07 507.009C675.725 507.011 702.337 506.629 705.915 507.433L706.265 508.154L705.393 508.834Z" fill="#020202"/>
<path d="M259.906 634.047C262.862 611.375 266.437 588.807 269.754 566.189C272.515 547.362 273.51 525.782 278.281 507.504C278.543 532.974 278.346 558.642 278.144 584.12C278.01 600.989 278.328 619.298 277.59 636.023C271.464 635.255 266.41 635.052 259.906 634.047Z" fill="#98F5E1"/>
<path d="M750.068 516.398C750.296 518.716 750.388 525.163 750.937 526.531L751.496 526.147C751.643 528.031 750.838 534.987 750.634 537.091L750.515 537.041L750.541 536.672C749.622 535.159 749.913 519.106 750.068 516.398Z" fill="#45464B"/>
<path d="M120.985 528.866C123.194 536.398 125.297 543.815 128.236 551.174C147.092 598.394 188.818 635.658 238.115 648.34C243.696 649.776 249.709 650.525 255.408 651.793C253.969 661.22 252.808 670.527 251.597 679.971C251.206 683.018 250.18 692.181 249.314 694.586C247.388 693.304 243.728 691.896 241.463 690.976C223.933 683.859 207.671 675.287 191.287 665.803C191.717 665.069 192.185 664.347 192.303 663.487C194.149 650.06 156.413 605.343 147.237 591.847C136.56 576.143 126.995 558.746 122.32 540.246C121.427 536.712 120.299 532.499 120.985 528.866Z" fill="#FBF8CC"/>
<path d="M571.424 546.414C491.626 541.54 411.875 546.035 332.318 551.318C330.058 551.468 326.38 551.754 324.312 551.09L324.281 550.557C328.101 548.6 444.848 543.545 457.768 543.223C516.451 540.92 577.277 545.697 635.998 547.532C641.409 547.701 706.596 550.674 706.541 550.648C700.814 553.489 588.844 546.744 571.424 546.414Z" fill="#020202"/>
<path d="M751.502 594.844L750.769 594.501C750.246 596.692 750.472 620.638 750.459 624.51L750.372 716.57L750.474 743.278C750.484 746.549 750.584 755.16 750.062 758.142C749.519 750.939 749.909 739.025 749.915 731.524L749.916 680.33L749.938 617.599C749.927 612.982 749.586 591.289 750.406 587.811C751.218 589.18 751.398 593.152 751.502 594.844Z" fill="#45464B"/>
<path d="M706.259 592.488L417.837 592.563L352.791 592.86C348.943 592.872 327.43 593.242 324.84 592.393L324.422 591.2C331.439 590.633 346.636 591.063 354.334 591.052L413.874 590.98L634.482 590.945C642.304 590.942 702.137 590.066 706.081 591.412L706.259 592.488Z" fill="#020202"/>
<path d="M750.062 758.142C750.584 755.16 750.484 746.549 750.474 743.278L750.372 716.57L750.459 624.51C750.472 620.638 750.246 596.692 750.769 594.501L751.502 594.844L751.488 595.537C751.4 601.967 752.568 610.728 753.432 617.129C758.291 653.143 762.56 689.313 768.491 725.163C770.655 738.243 769.805 750.859 763.713 762.65C750.593 788.04 726.709 808.006 696.836 806.229C657.434 804.669 619.725 795.469 580.906 792.218L583.017 791.686C580.955 791.524 577.86 791.49 576.375 790.076C577.174 789.166 581.78 790.866 585.106 789.037C625.619 790.097 665.578 794.071 706.092 791.272C727.235 789.812 749.058 782.978 750.062 758.142Z" fill="#A3C4F3"/>
<path d="M257.72 634.564C246.979 632.33 236.052 629.361 225.99 624.978C223.693 623.977 213.812 619.472 212.758 617.692C214.308 617.838 218.734 620.679 220.616 621.58C232.955 627.487 244.513 630.886 257.798 633.546L257.72 634.564Z" fill="#27625C"/>
<path d="M706.824 634.654C704.1 635.313 682.333 635.006 677.887 634.993L610.452 634.934L431.315 634.943C398.37 634.966 365.398 635.035 332.454 634.968C330.182 634.963 327.993 635.054 325.836 634.426L325.312 633.183C332.943 632.812 342.172 633.099 349.945 633.151L392.499 633.308L545.955 633.127L651.712 633.065L685.662 633.321C691.962 633.358 698.417 633.341 704.725 633.474C706.211 633.505 705.867 633.563 706.824 634.654Z" fill="#020202"/>
<path d="M259.902 634.047C266.406 635.052 271.46 635.255 277.586 636.023L277.673 637.001C272.001 636.553 265.337 636.062 259.805 634.863L259.902 634.047Z" fill="#27625C"/>
<path d="M259.811 634.863C265.343 636.062 272.007 636.553 277.679 637.001C277.867 642.661 277.668 648.548 277.564 654.226C270.634 653.833 264.154 652.993 257.266 652.245C258.025 646.451 258.71 640.598 259.811 634.863Z" fill="#98F5E1"/>
<path d="M251.305 695.217C253.636 681.614 255.081 666.309 257.259 652.245C264.147 652.993 270.627 653.833 277.557 654.226C277.475 671.125 276.687 688.136 276.612 705.249C268.164 702.013 259.592 698.826 251.305 695.217Z" fill="#FBF8CC"/>
<path d="M706.729 676.555C703.685 677.767 639.42 677.034 629.916 677.024L487.855 677.053H378.911L344.108 677.066C338.422 677.074 332.637 677.126 326.947 677.095C325.038 677.085 325.056 676.812 323.906 675.719C325.443 675.364 327.61 675.352 329.229 675.338L553.777 675.424L649.806 675.36C667.881 675.34 686.073 675.305 704.153 675.472C706.088 675.49 705.466 675.309 706.729 676.555Z" fill="#020202"/>
<path d="M841.269 687.1C840.301 687.515 839.184 687.378 838.345 686.742C837.506 686.105 837.074 685.067 837.213 684.023C837.353 682.978 838.042 682.09 839.019 681.696C840.507 681.096 842.2 681.805 842.816 683.285C843.433 684.766 842.743 686.467 841.269 687.1Z" fill="#020202"/>
<path d="M281.768 779.252C270.221 775.36 261.206 769.661 256.384 757.998C248.471 738.857 249.391 717.259 251.241 697.037C259.682 700.5 268.141 703.812 276.633 707.142C276.511 726.036 275.948 745.384 278.223 764.166C278.8 768.933 280.551 773.913 282.137 778.424C282.014 778.7 281.891 778.976 281.768 779.252Z" fill="#FBF8CC"/>
<path d="M707.171 721.871C704.263 722.604 682.015 722.359 678.083 722.359L613.736 722.438C519.899 722.526 426.022 722.75 332.186 722.527C329.793 722.521 327.073 722.626 324.805 722.001L324.273 720.682C331.597 720.434 340.526 720.808 347.972 720.869L389.413 720.999L525.084 720.957L645.518 720.643C664.398 720.608 687.671 719.935 706.187 720.749L707.171 721.871Z" fill="#020202"/>
<path d="M841.82 767.654C840.799 767.928 839.742 767.356 839.412 766.352C839.082 765.348 839.594 764.261 840.579 763.876C841.266 763.607 842.046 763.74 842.605 764.222C843.164 764.704 843.41 765.455 843.246 766.175C843.081 766.894 842.532 767.463 841.82 767.654Z" fill="#020202"/>
<path d="M286.055 782.4C301.631 785.617 319.551 785.395 335.55 785.499L376.368 786.064C428.509 786.968 480.622 786.041 532.755 787.709C550.19 788.267 567.664 788.557 585.108 789.037C581.782 790.866 577.176 789.166 576.377 790.076C577.862 791.49 580.957 791.524 583.019 791.686L580.908 792.218C525.567 786.573 477.293 791.592 423.443 804.654C391.857 811.674 358.523 821.684 325.918 815.999C308.554 812.972 294.707 796.248 286.055 782.4Z" fill="#FBF8CC"/>
<path d="M866.183 793.78C865.096 794.617 863.537 794.409 862.707 793.318C861.877 792.226 862.095 790.668 863.192 789.845C864.279 789.031 865.82 789.246 866.642 790.328C867.464 791.409 867.259 792.951 866.183 793.78Z" fill="#020202"/>
<path d="M774.943 800.786C774.216 801.055 773.399 800.907 772.812 800.401C772.224 799.895 771.957 799.109 772.115 798.35C772.273 797.59 772.83 796.976 773.571 796.746C774.676 796.402 775.853 797.001 776.226 798.097C776.598 799.193 776.029 800.386 774.943 800.786Z" fill="#020202"/>
<path d="M658.73 813.882C657.993 814.182 657.151 814.058 656.531 813.558C655.912 813.058 655.614 812.261 655.752 811.477C655.891 810.693 656.444 810.046 657.198 809.789C658.317 809.406 659.538 809.983 659.953 811.091C660.368 812.199 659.826 813.436 658.73 813.882Z" fill="#020202"/>
<path d="M513.174 865.755C455.135 866.618 391.703 853.344 336.064 837.545C325.558 834.562 305.018 828.76 295.641 824.534C299.16 824.459 338.22 836.918 344.697 838.701C384.497 849.657 423.508 858.089 464.649 862.314C481.219 864.015 496.862 864.488 513.174 865.755Z" fill="#382F29"/>
<path d="M379.28 831.252L378.915 832.142C376.714 831.494 374.835 830.84 372.677 830.059L372.495 829.438L371.719 829.525L372.096 829.652C373.348 829.107 377.622 830.752 379.28 831.252Z" fill="#846C4B"/>
<path d="M378.914 832.142L379.279 831.252C415.95 840.319 453.295 846.191 490.996 848.202C497.759 848.563 503.52 847.285 510.024 849.458L510.043 849.838C504.182 850.411 496.097 849.204 489.869 848.933C453.461 847.346 414.206 841.692 378.914 832.142Z" fill="#382F29"/>
<path d="M294.617 839.5C311.134 843.473 327.883 850.443 344.578 854.807C395.417 868.095 453.413 881.628 506.009 882.069C503.101 882.312 500.619 882.439 497.706 882.52C486.294 882.361 469.918 880.571 458.689 879.206C412.51 873.594 366.307 863.42 322.007 849.238C315.21 847.062 300.27 842.565 294.617 839.5Z" fill="#382F29"/>
<path d="M777.75 850.001C776.72 850.349 775.598 849.826 775.203 848.813C774.807 847.8 775.277 846.655 776.271 846.213C776.956 845.908 777.753 846.004 778.346 846.463C778.938 846.923 779.231 847.671 779.106 848.41C778.982 849.15 778.461 849.761 777.75 850.001Z" fill="#020202"/>
<path d="M476.333 896.651C424.856 892.728 377.887 883.036 328.594 868.01C321.947 865.984 304.055 860.652 298.328 857.877C299.65 857.187 310.789 861.122 312.902 861.811C366.493 879.274 420.313 891.163 476.535 895.921L476.333 896.651Z" fill="#382F29"/>
<path d="M506.722 913.503C496.344 913.588 479.824 912.129 469.508 911.317C422.594 907.626 375.28 898.338 330.356 884.286C321.205 881.424 310.214 878.14 301.445 874.338L301.484 873.991C306.406 875.186 312.352 877.421 317.236 879.031C373.035 897.434 430.769 908.65 489.458 911.862C498.311 912.346 507.621 913.124 516.51 913.11C513.606 913.202 509.545 913.226 506.722 913.503Z" fill="#382F29"/>
<path d="M506.014 882.069C508.948 881.743 516.102 881.795 518.853 882.548L517.921 882.374L517.443 882.8C512.953 883.046 501.861 883.579 497.711 882.52C500.624 882.439 503.106 882.312 506.014 882.069Z" fill="#B48D80"/>
<path d="M499.208 928.556C445.72 926.827 390.112 916.336 338.723 901.809C335.083 900.78 316.506 895.626 313.711 894.129C314.321 893.967 326.912 897.01 328.368 897.464C377.494 912.797 427.992 922.482 479.32 926.332C487.651 926.957 496.313 927.852 504.645 928.097C502.842 928.255 501.012 928.434 499.208 928.556Z" fill="#382F29"/>
<path d="M476.53 895.921C484.456 896.186 517.182 897.249 522.489 898.873C512.061 899.02 502.158 898.483 491.761 897.737C487.873 897.458 479.728 897.348 476.328 896.651L476.53 895.921Z" fill="#6F6B67"/>
<path d="M494.632 942.253C491.078 942.392 487.755 942.288 484.217 942.158C430.432 940.196 377.818 928.793 326.814 912.033C320.917 910.095 314.661 908.876 309.383 905.468C312.931 905.808 329.431 911.623 334.08 913.127C373.083 925.748 412.653 934.735 453.437 938.961C467.366 940.404 481.066 940.805 494.632 942.253Z" fill="#382F29"/>
<path d="M516.507 913.11C520.818 912.684 528.463 912.767 532.648 913.582C526.356 913.795 512.233 914.721 506.719 913.503C509.542 913.226 513.603 913.202 516.507 913.11Z" fill="#BEAFA8"/>
<path d="M504.64 928.097C508.477 927.644 513.903 927.969 517.808 928.39L517.655 928.402L517.163 928.822C513.146 928.934 502.435 929.454 499.203 928.556C501.007 928.434 502.837 928.255 504.64 928.097Z" fill="#BEAFA8"/>
<defs>
<linearGradient id="paint0_linear_41_1309" x1="859.528" y1="326.155" x2="702.454" y2="531.009" gradientUnits="userSpaceOnUse">
<stop stop-color="#FED6BB"/>
<stop offset="1" stop-color="#FDCCC9"/>
</linearGradient>
</defs>
</svg>
