<svg width="1024" height="1024" viewBox="0 0 1024 1024" fill="none" xmlns="http://www.w3.org/2000/svg">
<path d="M501.609 232.45C507.131 221.955 525.73 209.736 536.078 203.938C549.73 196.29 565.875 191.022 580.532 185.575C614.765 172.852 647.43 157.378 679.591 140.14C693.173 132.861 706.348 124.345 721.214 119.843C742.81 113.452 767.476 112.536 789.737 115.89C799.094 117.3 808.383 120.359 817.35 123.123C827.614 126.287 837.605 129.943 847.119 134.99C889.239 157.335 920.162 194.525 934.494 239.934C943.525 268.543 940.636 302.987 926.229 329.233C924.426 332.518 920.201 340.454 918.045 343.118L918.013 343.305C912.392 349.078 909.396 355.523 902.07 361.902C877.194 383.563 844.616 393.523 812.204 396.317C805.958 396.839 779.839 398.885 775.902 396.362L846.218 332.632C850.987 328.294 856.15 323.495 861.083 319.39C871.897 310.393 878.502 304.148 875.829 288.863C874.083 283.739 871.645 279.243 867.965 275.258C854.32 260.485 839.683 246.325 825.86 231.733L786.092 190.313C777.625 181.603 769.596 169.331 756.717 168.678C745.153 168.092 737.2 177.398 729.5 184.561C705.244 207.124 681.121 229.855 656.342 251.832C652.101 248.203 647.783 243.839 643.397 240.451C630.711 230.648 614.974 221.993 599.547 217.316C574.061 209.589 545.462 210.366 520.968 221.154C513.712 224.35 508.766 228.754 502.499 231.997L501.609 232.45Z" fill="#FFCFD2"/>
<path d="M656.341 251.832C681.12 229.855 705.243 207.124 729.499 184.561C737.199 177.398 745.152 168.092 756.716 168.678C769.595 169.331 777.624 181.603 786.091 190.313L825.859 231.733C839.682 246.325 854.319 260.485 867.964 275.258C871.644 279.243 874.082 283.739 875.828 288.863C878.501 304.148 871.896 310.393 861.082 319.39C856.149 323.495 850.986 328.294 846.217 332.632L775.901 396.362L740.449 428.826L507.523 642.024L447.258 697.46L429.723 713.612C427.572 715.602 423.035 719.545 421.367 721.45L369.544 768.515C362.542 774.949 351.279 786.578 344.289 792.161C322.699 811.324 301.768 831.074 280.473 850.546C272.311 858.009 265.072 865.95 253.222 865.437C240.845 864.902 234.959 856.869 227.043 848.527L207.302 827.467L144.016 760.138C129.768 745.132 126.945 731.455 143.705 716.136C151.703 708.825 159.992 701.462 168.075 694.214L503.428 389.819C505.768 388.226 514.77 379.863 517.312 377.598L548.568 349.479L656.341 251.832ZM730.216 192.518L729.277 193.216C727.173 193.901 714.82 206.426 712.353 208.921L712.214 209.597L711.159 210.047C710.491 210.448 709.324 211.086 708.773 211.559C706.304 213.734 693.946 224.235 693.143 226.624L691.595 227.624C685.735 232.782 679.7 238.75 673.942 243.647L672.963 244.992C670.706 246.731 656.661 258.655 656.158 260.184L654.565 260.981C648.591 265.393 643.038 271.623 637.158 276.431L636.334 277.531C631.478 280.887 623.454 289.149 619.099 293.466L618.328 294.816C615.8 296.463 601.735 308.099 601.019 310.137L599.798 311.041C597.097 312.372 583.702 324.709 583.052 326.981L582.3 327.486C578.306 329.932 567.452 340.007 564.23 343.6L563.345 344.375C558.041 348.285 550.814 355.938 546.295 358.934L545.325 359.534C541.724 363.018 530.226 374.408 526.759 376.706C523.993 379.063 508.678 391.492 508.571 393.675L507.699 394.311C505.167 395.723 490.207 409.49 488.508 411.705L487.736 412.336C483.282 414.635 474.302 423.948 470.086 427.547L469.379 428.658C466.653 430.446 464.264 432.961 461.906 435.239C459.777 436.837 454.402 441.616 452.757 443.709L451.65 444.563C448.4 446.28 434.841 458.733 432.776 461.721L431.828 462.388C426.977 465.808 416.996 475.502 412.468 479.768C412.499 480.068 412.448 480.403 412.602 480.663L412.334 481.511L411.53 480.933C405.679 484.564 391.645 498.734 385.708 503.86C381.73 507.28 376.839 511.75 373.155 515.461L371.672 516.394C364.691 522.12 357.944 528.151 351.584 534.56L350.304 535.581C344.182 541.046 337.998 546.503 332.002 552.101C330.838 552.623 331.251 552.187 330.63 553.309C326.002 558.812 317.304 564.884 312.81 569.98L311.634 570.848C307.836 572.118 295.684 586.413 292.527 588.268L291.317 589.543C285.394 594.315 278.535 600.742 273.058 606.078L271.496 607.119C267.141 610.915 256.679 621.432 253.162 624.072L252.16 625.493C245.852 630.585 238.997 637.081 233.072 642.643L231.702 643.534C225.191 649.18 218.975 655.749 212.71 661.11L211.822 662.324C205.743 667.522 199.891 672.729 194 678.134L192.944 678.392C192.824 678.66 192.479 679.353 192.442 679.603C188.193 681.791 172.589 698.23 166.889 702.838C160.208 708.82 153.332 714.959 146.692 720.954C132.497 733.769 136.771 744.172 148.258 756.378L169.121 778.298C171.409 780.679 179.395 788.579 180.541 790.752L180.742 791.985L181.543 792.321C187.303 797.793 193.677 804.929 199.223 810.774L225.705 838.518C231.296 844.442 237.095 852.045 243.651 856.817C246.552 858.929 250.196 860.254 253.801 860.254C266.006 860.256 285.039 838.256 294.384 829.915C295.256 829.709 294.83 829.899 295.512 828.837C299.218 825.546 318.408 809.088 319.247 806.425L320.195 805.84C321.677 805.326 325.152 801.91 326.559 800.644C332.008 795.758 337.292 790.76 342.622 785.744L343.204 785.382L343.434 784.376C346.92 782.629 359.555 770.522 362.975 767.277L363.857 766.588C368.096 761.082 378.675 754.005 384.165 747.218L385.22 746.553C391.621 741.008 398.85 733.3 405.063 728.344L405.566 728.383L406.009 727.626C411.492 721.864 419.417 716.311 424.997 710.12L426.037 709.296C429.38 707.484 445.391 692.43 447.618 689.245L448.117 688.645C450.935 687.515 465.701 673.253 467.941 670.541L468.659 670.093C473.107 666.285 486.494 655.042 489.289 650.919L490.495 650.465C493.34 646.95 509.251 634.527 509.817 631.244L510.402 630.738C513.4 629.452 529.394 614.609 531.719 611.49L532.425 610.815C534.748 609.299 552.781 592.252 554.438 589.799L555.558 589.512C560.984 583.791 568.122 579.097 573.815 572.384L574.767 571.531C578.135 569.32 590.604 557.261 593.312 554.166L594.363 553.568C598.786 550.383 610.189 539.799 613.967 535.844L615.165 535.144C619.013 531.183 632.817 520.108 634.985 516.151L635.827 515.636C638.334 513.942 653.523 500.136 655.335 497.679L656.315 497.039C661.404 492.633 671.802 484.029 676.186 479.204L677.149 478.699C682.052 474.022 692.003 466.343 695.794 461.197L696.494 459.99L696.919 460.494C699.305 459.289 708.098 450.597 710.328 448.395C711.003 447.663 711.745 446.677 712.38 445.884L713.568 445.484C717.405 440.762 727.728 432.682 732.713 427.501L733.878 426.802C737.918 422.838 749.749 413.42 752.654 409.363L753.721 408.834C758.163 404.109 766.99 396.812 772.168 391.804L773.055 391.523C775.864 388.877 790.935 375.679 791.969 373.239L792.704 372.59C795.402 371.531 810.748 357.41 812.855 354.603L813.676 354.008C816.811 351.717 831.239 338.819 833.493 335.761L834.962 334.888C839.712 329.624 847.844 323.621 852.909 318.002L853.854 317.305C853.877 317.302 853.9 317.3 853.923 317.297C870.6 306.451 877.373 293.956 862.07 277.728C851.614 266.64 840.754 255.487 830.261 244.486L783.95 196.451C777.788 190.161 769.282 179.747 761.683 175.241C759.336 173.85 750.981 173.943 748.731 175.322C745.546 177.273 731.149 189.866 730.216 192.518Z" fill="url(#paint0_linear_41_1834)"/>
<path d="M730.221 192.518C731.154 189.866 745.551 177.273 748.736 175.322C750.986 173.943 759.341 173.85 761.688 175.241C769.287 179.747 777.793 190.161 783.955 196.451L830.266 244.486C840.759 255.487 851.619 266.64 862.075 277.728C877.378 293.956 870.605 306.451 853.928 317.297C853.905 317.3 853.882 317.302 853.859 317.305C850.877 313.747 829.464 290.84 826.87 289.86C829.495 294.992 848.059 313.878 852.914 318.002C847.849 323.621 839.717 329.624 834.967 334.888C831.292 330.729 827.291 326.388 823.403 322.416C820.682 319.007 815.744 312.489 812.641 309.955L812.219 310.217C813.521 313.347 819.402 320.197 821.883 322.986L823.345 324.964L821.862 324.908C819.198 322.965 783.98 286.2 782.929 284.532C794.46 290.602 808.703 287.226 816.283 276.627C823.863 266.027 822.454 251.458 812.982 242.508C803.511 233.558 788.886 232.975 778.732 241.143C768.578 249.311 766.013 263.721 772.726 274.891C770.058 273.655 758.595 257.631 755.144 254.177C751.218 250.246 749.549 248.796 744.81 245.213C744.818 244.189 744.186 243.033 743.443 242.369C732.385 232.495 722.903 219.535 712.219 209.597L712.358 208.921C714.825 206.426 727.178 193.901 729.282 193.216C731.551 197.104 757.523 223.997 761.129 225.264C759.017 220.982 734.933 196.994 730.221 192.518Z" fill="#EFA8D3"/>
<path d="M729.281 193.216L730.22 192.518C734.932 196.994 759.016 220.982 761.128 225.264C757.522 223.997 731.55 197.104 729.281 193.216Z" fill="#282A61"/>
<path d="M708.773 211.559C709.324 211.086 710.491 210.448 711.159 210.047C712.954 212.156 714.792 214.384 716.638 216.435C711.707 216.796 711.113 215.78 708.773 211.559Z" fill="#EFA8D3"/>
<path d="M711.164 210.047L712.219 209.597C722.903 219.535 732.385 232.495 743.443 242.369C744.186 243.033 744.818 244.189 744.81 245.213C737.437 239.633 723.595 223.832 716.643 216.435C714.797 214.384 712.959 212.156 711.164 210.047Z" fill="#0C061D"/>
<path d="M501.61 232.45L502.5 231.997C508.767 228.754 513.713 224.35 520.969 221.154C545.463 210.366 574.062 209.589 599.548 217.316C614.975 221.993 630.712 230.648 643.398 240.451C647.784 243.839 652.102 248.203 656.343 251.832L548.57 349.479L517.314 377.598C514.772 379.863 505.77 388.226 503.43 389.819C482.836 368.136 472.747 355.876 468.417 324.001C467.724 318.897 468.099 312.802 467.68 307.426C468.801 275.707 480.477 254.691 501.61 232.45Z" fill="#CFBAF0"/>
<path d="M693.147 226.624C693.95 224.235 706.308 213.734 708.777 211.559C711.117 215.78 711.711 216.796 716.642 216.435C723.594 223.832 737.436 239.633 744.809 245.213C749.548 248.796 751.217 250.246 755.143 254.177C758.594 257.631 770.057 273.655 772.725 274.891C775.181 278.977 778.71 282.311 782.928 284.532C783.979 286.2 819.197 322.965 821.861 324.908L823.344 324.964C826.769 327.983 829.797 332.455 833.497 335.761C831.243 338.819 816.815 351.717 813.68 354.008C808.087 347.056 796.782 335.612 790.267 328.973L789.841 329.02C792.029 333.542 808.452 351.045 812.859 354.603C810.752 357.41 795.406 371.531 792.708 372.59C789.447 367.899 773.181 352.208 769.114 346.352C768.687 346.267 768.261 346.183 767.834 346.099L766.819 346.754C766.901 348.588 769.06 349.971 770.541 351.127C778.232 357.129 784.566 367.224 791.973 373.239C790.939 375.679 775.868 388.877 773.059 391.523C770.789 388.262 753.958 369.231 751.006 367.957C751.972 370.842 769.011 388.878 772.172 391.804C766.994 396.812 758.167 404.109 753.725 408.834C747.347 400.601 733.723 386.812 726.282 379.18C725.371 377.482 724.942 376.091 723.262 375.321C721.166 375.261 722.101 374.999 720.346 376.1C719.298 377.991 719.532 377.017 719.532 379.116C721.589 381.784 722.414 380.093 725.277 380.754C726.388 382.242 728.928 384.71 730.363 385.852C737.621 391.63 745.791 404.204 752.658 409.363C749.753 413.42 737.922 422.838 733.882 426.802C727.3 419.23 717.502 408.162 710.333 401.267L709.964 401.312C711.798 405.097 728.72 423.605 732.717 427.501C727.732 432.682 717.409 440.762 713.572 445.484C710.85 440.265 693.716 420.938 688.752 418.009C689.605 419.724 695.295 425.891 696.821 427.628C702.121 433.662 707.456 439.506 712.384 445.884C711.749 446.677 711.007 447.663 710.332 448.395C700.628 445.994 698.197 446.814 688.83 441.255C683.4 438.032 669.013 423.138 665.08 423.128C661.647 418.825 654.898 411.677 650.142 409.06C641.623 401.658 634.112 396.392 625.671 389.586C667.86 348.859 711.761 309.594 753.455 268.286C755.127 266.63 758.062 264.275 759.266 262.348C753.779 264.631 741.743 277.512 736.881 282.253L709.094 308.934L624.432 388.87C616.162 384.435 608.724 380.308 601.198 374.488C596.22 370.638 579.282 352.024 574.65 353.007C574.611 353.679 574.512 354.114 574.323 354.748C571.121 351.532 567.67 347.151 564.234 343.6C567.456 340.007 578.31 329.932 582.304 327.486C583.976 330.296 611.848 360.568 613.057 360.91L613.163 360.066C611.793 357.353 585.833 328.931 583.056 326.981C583.706 324.709 597.101 312.372 599.802 311.041C609.574 320.831 618.81 331.615 627.637 342.229C628.22 342.93 629.393 343.38 630.254 343.629L630.4 342.851C628.807 339.562 604.283 313.096 601.023 310.137C601.739 308.099 615.804 296.463 618.332 294.816C619.661 296.394 625.653 302.734 627.084 304.224C631.457 308.775 642.981 323.397 647.498 326.163C646.143 322.209 623.487 297.664 619.103 293.466C623.458 289.149 631.482 280.887 636.338 277.531C641.366 282.785 663.385 308.287 666.907 310.104C665.172 306.057 641.327 280.184 637.162 276.431C643.042 271.623 648.595 265.393 654.569 260.981C660.373 266.963 665.687 272.531 671.203 278.747C674.617 282.594 682.055 292.037 685.716 294.982C684.708 290.091 660.711 264.929 656.162 260.184C656.665 258.655 670.71 246.731 672.967 244.992C677.079 249.171 700.283 275.248 702.896 276.517L702.994 275.773C701.261 272.049 678.162 247.989 673.946 243.647C679.704 238.75 685.739 232.782 691.599 227.624C695.51 231.317 719.943 258.308 721.843 258.521C719.472 253.698 697.964 231.025 693.147 226.624Z" fill="#F1C0E8"/>
<path d="M691.602 227.624L693.15 226.624C697.967 231.025 719.475 253.698 721.846 258.521C719.946 258.308 695.513 231.317 691.602 227.624Z" fill="#282A61"/>
<path d="M772.727 274.891C766.014 263.721 768.579 249.311 778.733 241.143C788.887 232.975 803.512 233.558 812.983 242.508C822.455 251.458 823.864 266.027 816.284 276.627C808.704 287.226 794.461 290.602 782.93 284.532C778.712 282.311 775.183 278.977 772.727 274.891ZM793.872 238.207C760.301 240.542 766.264 286.789 796.843 284.86C810.297 283.008 821.086 271.96 819.344 257.688C817.975 246.469 804.862 237.831 793.872 238.207Z" fill="#282A61"/>
<path d="M168.081 694.214C166.425 692.803 164.007 691.332 162.201 689.901C147.863 678.544 136.25 664.918 124.721 650.833C24.3558 528.723 60.2606 331.078 204.31 260.285C210.017 257.481 215.507 254.394 221.506 252.145C298.577 223.244 386.148 238.383 449.391 290.957C455.837 296.316 461.707 301.749 467.684 307.426C468.103 312.802 467.728 318.897 468.421 324.001C472.751 355.876 482.84 368.136 503.434 389.819L168.081 694.214Z" fill="#FDE4CF"/>
<path d="M796.837 284.86C766.258 286.789 760.295 240.542 793.866 238.207C804.856 237.831 817.969 246.469 819.338 257.688C821.08 271.96 810.291 283.008 796.837 284.86Z" fill="#E6DFD5"/>
<path d="M672.969 244.992L673.948 243.647C678.164 247.989 701.263 272.049 702.996 275.773L702.898 276.517C700.285 275.248 677.081 249.171 672.969 244.992Z" fill="#0C061D"/>
<path d="M654.57 260.981L656.163 260.184C660.712 264.929 684.709 290.091 685.717 294.982C682.056 292.037 674.618 282.594 671.204 278.747C665.688 272.531 660.374 266.963 654.57 260.981Z" fill="#0C061D"/>
<path d="M624.434 388.87L709.096 308.934L736.883 282.253C741.745 277.512 753.781 264.631 759.268 262.348C758.064 264.275 755.129 266.63 753.457 268.286C711.763 309.594 667.862 348.859 625.673 389.586C594.835 419.31 562.9 448.114 530.973 476.654C521.192 485.38 511.631 494.267 501.816 502.996C487.729 515.526 472.394 527.842 458.659 540.622L452.7 545.997C459.142 552.547 469.168 563.037 473.671 570.858C466.857 564.244 458.231 553.961 451.688 546.673L290.961 692.593L241.846 737.074C235.441 742.875 227.745 750.477 221.352 755.885C209.479 766.215 192.258 781.18 181.549 792.321L180.748 791.985L180.547 790.752C192.659 781.043 209.196 765.246 220.926 754.676C260.645 717.032 304.202 679.308 344.967 642.725L456.125 541.133L530.471 475.224C562.793 446.833 592.997 418.135 624.434 388.87Z" fill="#06090B"/>
<path d="M636.336 277.531L637.16 276.431C641.325 280.184 665.17 306.057 666.905 310.104C663.383 308.287 641.364 282.785 636.336 277.531Z" fill="#06090B"/>
<path d="M852.911 318.002C848.056 313.878 829.492 294.992 826.867 289.86C829.461 290.84 850.874 313.747 853.856 317.305L852.911 318.002Z" fill="#282A61"/>
<path d="M618.328 294.816L619.099 293.466C623.483 297.664 646.139 322.209 647.494 326.163C642.977 323.397 631.453 308.775 627.08 304.224C625.649 302.734 619.657 296.394 618.328 294.816Z" fill="#0C061D"/>
<path d="M821.883 322.986C819.402 320.197 813.521 313.347 812.219 310.217L812.641 309.955C815.744 312.489 820.682 319.007 823.403 322.416L821.883 322.986Z" fill="#0C061D"/>
<path d="M599.805 311.041L601.026 310.137C604.286 313.096 628.81 339.562 630.403 342.851L630.257 343.629C629.396 343.38 628.223 342.93 627.64 342.229C618.813 331.615 609.577 320.831 599.805 311.041Z" fill="#0C061D"/>
<path d="M823.403 322.416C827.291 326.388 831.292 330.729 834.967 334.888L833.498 335.761C829.798 332.455 826.77 327.983 823.345 324.964L821.883 322.986L823.403 322.416Z" fill="#282A61"/>
<path d="M582.305 327.486L583.057 326.981C585.834 328.931 611.794 357.353 613.164 360.066L613.058 360.91C611.849 360.568 583.977 330.296 582.305 327.486Z" fill="#0C061D"/>
<path d="M812.862 354.603C808.455 351.045 792.032 333.542 789.844 329.02L790.27 328.973C796.785 335.612 808.09 347.056 813.683 354.008L812.862 354.603Z" fill="#06090B"/>
<path d="M775.905 396.362C779.842 398.885 805.961 396.839 812.207 396.317C844.619 393.523 877.197 383.563 902.073 361.902C909.399 355.523 912.395 349.078 918.016 343.305C925.966 354.097 931.157 365.909 936.554 378.044C967.484 447.582 962.262 529.18 931.932 597.969C929.687 603.063 927.873 608.46 925.492 613.553C919.196 627.019 912.86 640.794 904.413 653.076C901.712 657.003 899.098 661.637 896.099 665.226C895.486 656.862 894.425 647.563 893.222 639.276C881.568 559.008 830.137 484.473 761.556 441.912C754.519 437.544 747.135 433.754 740.453 428.826L775.905 396.362Z" fill="#CFBAF0"/>
<path d="M563.352 344.375L564.237 343.6C567.673 347.151 571.124 351.532 574.326 354.748C580.499 362.472 590.381 372.16 595.603 380.156C590.068 376.511 585.19 369.002 580.508 364.225C575.886 358.754 566.972 350.266 563.352 344.375Z" fill="#06090B"/>
<path d="M546.297 358.934C550.816 355.938 558.043 348.285 563.347 344.375C566.967 350.266 575.881 358.754 580.503 364.225C574.733 368.376 555.318 360.761 547.968 360.259L546.297 358.934Z" fill="#F1C0E8"/>
<path d="M791.974 373.239C784.567 367.224 778.233 357.129 770.542 351.127C769.061 349.971 766.902 348.588 766.82 346.754L767.835 346.099C768.262 346.183 768.688 346.267 769.115 346.352C773.182 352.208 789.448 367.899 792.709 372.59L791.974 373.239Z" fill="#0C061D"/>
<path d="M574.319 354.748C574.508 354.114 574.607 353.679 574.646 353.007C579.278 352.024 596.216 370.638 601.194 374.488C608.72 380.308 616.158 384.435 624.428 388.87C592.991 418.135 562.787 446.833 530.465 475.224C524.415 472.818 498.171 449.124 492.012 449.093C489.144 447.186 474.212 431.381 470.086 427.547C474.302 423.948 483.282 414.635 487.736 412.336C489.598 415.35 499.165 425.66 502.225 429.023C506.682 433.919 512.303 440.866 516.714 445.398L517.058 445.289C514.168 439.028 494.254 417.421 488.508 411.705C490.207 409.49 505.167 395.723 507.699 394.311C510.89 399.32 534.596 427.388 538.363 428.596C538.127 427.875 510.898 396.171 508.571 393.675C508.678 391.492 523.993 379.063 526.759 376.706C527.248 378.233 530.491 382.212 531.574 383.219C536.558 387.849 552.497 410.028 557.168 411.682C556.043 408.381 529.721 377.995 526.759 376.706C530.226 374.408 541.724 363.018 545.325 359.534C551.839 367.707 567.594 386.034 574.895 393.21L575.409 393.239C572.698 387.372 567.983 383.798 563.997 378.987C558.869 372.799 552.958 366.505 547.966 360.259C555.316 360.761 574.731 368.376 580.501 364.225C585.183 369.002 590.061 376.511 595.596 380.156C590.374 372.16 580.492 362.472 574.319 354.748Z" fill="#8EECF5"/>
<path d="M545.328 359.534L546.298 358.934L547.969 360.259C552.961 366.505 558.872 372.799 564 378.987C567.986 383.798 572.701 387.372 575.412 393.239L574.898 393.21C567.597 386.034 551.842 367.707 545.328 359.534Z" fill="#06090B"/>
<path d="M772.174 391.804C769.013 388.878 751.974 370.842 751.008 367.957C753.96 369.231 770.791 388.262 773.061 391.523L772.174 391.804Z" fill="#06090B"/>
<path d="M726.28 379.18C725.852 380.039 725.878 380.389 725.275 380.754C722.412 380.093 721.587 381.784 719.53 379.116C719.53 377.017 719.296 377.991 720.344 376.1C722.099 374.999 721.164 375.261 723.26 375.321C724.94 376.091 725.369 377.482 726.28 379.18Z" fill="#282A61"/>
<path d="M526.766 376.706C529.728 377.995 556.05 408.381 557.175 411.682C552.504 410.028 536.565 387.849 531.581 383.219C530.498 382.212 527.255 378.233 526.766 376.706Z" fill="#06090B"/>
<path d="M725.273 380.754C725.876 380.389 725.85 380.039 726.278 379.18C733.719 386.812 747.343 400.601 753.721 408.834L752.654 409.363C745.787 404.204 737.617 391.63 730.359 385.852C728.924 384.71 726.384 382.242 725.273 380.754Z" fill="#06090B"/>
<path d="M530.973 476.654C562.9 448.114 594.835 419.31 625.673 389.586C634.114 396.392 641.625 401.658 650.144 409.06C648.837 409.936 645.152 412.232 645.354 413.778C646.056 419.155 646.787 435.712 652.696 437.404C654.658 436.719 663.599 425.337 665.082 423.128C669.015 423.138 683.402 438.032 688.832 441.255C698.199 446.814 700.63 445.994 710.334 448.395C708.104 450.597 699.311 459.289 696.925 460.494L696.5 459.99C693.531 456.458 674.485 434.151 672.211 433.458C675.076 439.048 690.783 455.332 695.8 461.197C692.009 466.343 682.058 474.022 677.155 478.699C674.523 475.82 653.47 452.869 652.845 452.642C655.255 458.463 670.984 474.416 676.193 479.204C671.809 484.029 661.41 492.633 656.321 497.039C653.032 492.774 623.243 458.62 620.585 457.564C620.939 459.552 622.888 461.714 624.284 463.124C634.935 473.888 644.628 487.153 655.341 497.679C653.529 500.136 638.34 513.942 635.833 515.636C632.06 511.068 614.705 490.756 610.633 488.706C612.747 492.41 631.589 513.452 634.991 516.151C632.823 520.108 619.02 531.183 615.172 535.144C611.276 530.957 589.439 505.62 587.115 504.654C588.968 508.292 610.247 532.582 613.973 535.844C610.195 539.799 598.793 550.383 594.37 553.568C592.178 549.795 570.423 525.35 567.267 523.763C568.988 527.259 589.225 549.377 593.318 554.166C590.61 557.261 578.141 569.32 574.773 571.531C571.341 567.186 551.732 545.365 547.849 543.463C549.215 546.327 570.657 569.623 573.821 572.384C568.128 579.097 560.99 583.791 555.564 589.512C552.583 584.148 535.385 565.692 530.274 561.968L529.86 561.662C532.221 565.716 536.917 570.272 540.17 573.856L554.444 589.799C552.787 592.252 534.754 609.299 532.431 610.815C530.211 607.645 525.75 602.804 523.062 599.58C526.185 600.871 530.385 606.505 532.793 609.36C533.676 608.514 539.868 602.842 539.5 602.114C536.035 595.24 531.07 590.225 528.261 582.836C525.012 574.292 525.145 566.506 526.384 557.515C526.687 554.865 527.401 550.127 527.073 547.738C526.022 547.846 525.341 548.08 524.262 548.181L523.919 547.493C526.226 546.805 530.058 546.471 532.701 545.666C539.229 543.655 545.109 539.056 549.616 533.998C567.815 513.576 546.853 489.733 530.973 476.654Z" fill="#8EECF5"/>
<path d="M507.703 394.311L508.575 393.675C510.902 396.171 538.131 427.875 538.367 428.596C534.6 427.388 510.894 399.32 507.703 394.311Z" fill="#06090B"/>
<path d="M732.714 427.501C728.717 423.605 711.795 405.097 709.961 401.312L710.33 401.267C717.499 408.162 727.297 419.23 733.879 426.802L732.714 427.501Z" fill="#06090B"/>
<path d="M665.08 423.128C663.597 425.337 654.656 436.719 652.694 437.404C646.785 435.712 646.054 419.155 645.352 413.778C645.15 412.232 648.835 409.936 650.142 409.06C654.898 411.677 661.647 418.825 665.08 423.128ZM651.399 419.363C651.62 421.549 651.68 426.162 652.912 427.506C653.435 427.083 653.862 426.761 654.344 426.291L656.111 424.713C655.951 421.872 653.625 420.944 651.399 419.363Z" fill="#35658D"/>
<path d="M487.742 412.336L488.514 411.705C494.26 417.421 514.174 439.028 517.064 445.289L516.72 445.398C512.309 440.866 506.688 433.919 502.231 429.023C499.171 425.66 489.604 415.35 487.742 412.336Z" fill="#06090B"/>
<path d="M712.382 445.884C707.454 439.506 702.119 433.662 696.819 427.628C695.293 425.891 689.603 419.724 688.75 418.009C693.714 420.938 710.848 440.265 713.57 445.484L712.382 445.884Z" fill="#06090B"/>
<path d="M654.343 426.291C653.861 426.761 653.434 427.083 652.911 427.506C651.679 426.162 651.619 421.549 651.398 419.363C653.624 420.944 655.95 421.872 656.11 424.713L654.343 426.291Z" fill="#D7E3ED"/>
<path d="M469.383 428.658L470.09 427.547C474.216 431.381 489.148 447.186 492.016 449.093C494.461 452.215 498.986 455.745 500.934 458.956L500.319 459.795C500.024 459.766 499.729 459.736 499.434 459.707C493.685 453.442 485.33 444.886 479.519 439.247C476.118 435.794 472.566 432.298 469.383 428.658Z" fill="#06090B"/>
<path d="M461.906 435.239C464.264 432.961 466.653 430.446 469.379 428.658C472.562 432.298 476.114 435.794 479.515 439.247C476.003 440.703 471.235 436.935 467.314 436.055C465.289 435.6 463.951 435.451 461.906 435.239Z" fill="#D7E3ED"/>
<path d="M421.367 721.45C423.035 719.545 427.572 715.602 429.723 713.612L447.258 697.46L507.523 642.024L740.449 428.826C747.131 433.754 754.515 437.544 761.552 441.912C830.133 484.473 881.564 559.008 893.218 639.276C894.421 647.563 895.482 656.862 896.095 665.226L895.272 667.121C880.246 689.372 863.635 714.217 846.31 734.13C764.405 828.264 638 879.577 513.604 863.594C510.748 863.227 506.006 862.605 503.249 862.621L501.577 861.632C497.347 858.609 493.268 854.736 489.363 851.253C456.933 822.337 438.053 782.103 426.935 740.76C425.283 734.616 424.094 727.989 421.656 722.135L421.367 721.45Z" fill="#B9FBC0"/>
<path d="M695.8 461.197C690.783 455.332 675.076 439.048 672.211 433.458C674.485 434.151 693.531 456.458 696.5 459.99L695.8 461.197Z" fill="#06090B"/>
<path d="M452.76 443.709C454.405 441.616 459.78 436.837 461.909 435.239C463.954 435.451 465.292 435.6 467.317 436.055C471.238 436.935 476.006 440.703 479.518 439.247C485.329 444.886 493.684 453.442 499.433 459.707C499.728 459.736 500.023 459.766 500.318 459.795L500.933 458.956C498.985 455.745 494.46 452.215 492.015 449.093C498.174 449.124 524.418 472.818 530.468 475.224L456.122 541.133C447.847 538.355 442.925 537.411 434.635 532.689C430.073 530.091 421.176 522.796 416.959 522.227C410.606 516.827 401.809 504.349 395.258 498.68C395.223 501.059 404.787 511.328 406.935 513.852C404.528 513.467 388.27 505.465 385.711 503.86C391.648 498.734 405.682 484.564 411.533 480.933L412.337 481.511C414.499 485.425 439.423 514.223 442.734 516.961L443.021 516.726C438.376 508.676 419.703 487.878 412.605 480.663C412.451 480.403 412.502 480.068 412.471 479.768C416.999 475.502 426.98 465.808 431.831 462.388C433.597 465.549 456.275 491.779 459.629 494.516C458.212 490.286 437.545 467.349 432.779 461.721C434.844 458.733 448.403 446.28 451.653 444.563C454.811 448.85 476.41 473.188 479.932 475.578C479.344 472.837 455.973 447.303 452.76 443.709Z" fill="#98F5E1"/>
<path d="M451.656 444.563L452.763 443.709C455.976 447.303 479.347 472.837 479.935 475.578C476.413 473.188 454.814 448.85 451.656 444.563Z" fill="#06090B"/>
<path d="M676.191 479.204C670.982 474.416 655.254 458.463 652.844 452.642C653.469 452.869 674.522 475.82 677.154 478.699L676.191 479.204Z" fill="#06090B"/>
<path d="M655.334 497.679C644.621 487.153 634.927 473.888 624.276 463.124C622.88 461.714 620.932 459.552 620.578 457.564C623.236 458.62 653.025 492.774 656.314 497.039L655.334 497.679Z" fill="#06090B"/>
<path d="M431.828 462.388L432.776 461.721C437.542 467.349 458.209 490.286 459.626 494.516C456.272 491.779 433.594 465.549 431.828 462.388Z" fill="#06090B"/>
<path d="M458.656 540.622C472.391 527.842 487.726 515.526 501.813 502.996C511.628 494.267 521.189 485.38 530.97 476.654C546.85 489.733 567.812 513.576 549.613 533.998C545.106 539.056 539.226 543.655 532.698 545.666C530.055 546.471 526.223 546.805 523.916 547.493C510.384 548.953 492.829 548.594 479.662 545.79C472.869 544.344 465.547 542.26 458.656 540.622Z" fill="#98F5E1"/>
<path d="M412.604 480.663C419.702 487.878 438.375 508.676 443.02 516.726L442.733 516.961C439.422 514.223 414.498 485.425 412.336 481.511L412.604 480.663Z" fill="#06090B"/>
<path d="M634.992 516.151C631.59 513.452 612.747 492.41 610.633 488.706C614.705 490.756 632.061 511.068 635.834 515.636L634.992 516.151Z" fill="#06090B"/>
<path d="M406.935 513.852C404.787 511.328 395.223 501.059 395.258 498.68C401.809 504.349 410.606 516.827 416.959 522.227C420.957 527.684 423.986 529.71 427.574 536.455C421.115 530.519 413.89 520.814 406.935 513.852Z" fill="#06090B"/>
<path d="M373.157 515.461C376.841 511.75 381.732 507.28 385.71 503.86C388.269 505.465 404.527 513.467 406.934 513.852C413.889 520.814 421.114 530.519 427.573 536.455C423.985 529.71 420.956 527.684 416.958 522.227C421.175 522.796 430.072 530.091 434.634 532.689C442.924 537.411 447.846 538.355 456.121 541.133L344.963 642.725C304.198 679.308 260.641 717.032 220.922 754.676C218.184 752.062 207.647 745.094 203.855 742.45C189.601 732.511 176.079 717.694 166.891 702.838C172.591 698.23 188.195 681.791 192.444 679.603C199.22 686.253 220.389 710.815 225.912 714.073C225.591 712.062 198.126 682.667 194.002 678.134C199.893 672.729 205.745 667.522 211.824 662.324C216.184 667.333 235.153 687.965 239.576 690.689C238.128 687.128 216.388 664.475 212.712 661.11C218.977 655.749 225.193 649.18 231.704 643.534C236.866 650.194 253.71 668.239 260.359 672.708C257.925 669.296 255.033 666.276 252.132 663.264C245.638 656.523 239.524 649.424 233.074 642.643C238.999 637.081 245.854 630.585 252.162 625.493C258.519 632.042 276.937 652.876 282.973 656.805C279.983 651.769 258.222 629.079 253.164 624.072C256.681 621.432 267.143 610.915 271.498 607.119C275.39 611.123 297.17 635.669 299.726 636.41C298.037 632.585 276.985 609.978 273.06 606.078C278.537 600.742 285.396 594.315 291.319 589.543C296.19 594.354 318.405 619.476 322.353 621.256C320.983 617.684 296.984 592.82 292.529 588.268C295.686 586.413 307.838 572.118 311.636 570.848C313.79 574.122 339.841 602.78 342.446 604.552L342.876 604.263C341.685 600.895 316.945 574.456 312.812 569.98C317.306 564.884 326.004 558.812 330.632 553.309C335.744 558.256 359.721 585.049 363.21 586.932C361.9 583.097 336.639 556.897 332.004 552.101C338 546.503 344.184 541.046 350.306 535.581C359.392 545.528 369.95 557.341 379.563 566.611L380.463 566.745L380.601 566.953C378.791 562.907 356.063 539.399 351.586 534.56C357.946 528.151 364.693 522.12 371.674 516.394C377.41 522.549 383.046 528.717 388.642 534.974C391.237 537.874 399.282 547.662 401.939 549.576C401.127 545.436 377.611 520.24 373.157 515.461Z" fill="#B9FBC0"/>
<path d="M613.968 535.844C610.242 532.582 588.962 508.292 587.109 504.654C589.433 505.62 611.27 530.957 615.166 535.144L613.968 535.844Z" fill="#06090B"/>
<path d="M371.672 516.394L373.155 515.461C377.609 520.24 401.125 545.436 401.937 549.576C399.28 547.662 391.235 537.874 388.64 534.974C383.044 528.717 377.408 522.549 371.672 516.394Z" fill="#06090B"/>
<path d="M593.317 554.166C589.224 549.377 568.987 527.259 567.266 523.763C570.422 525.35 592.176 549.795 594.368 553.568L593.317 554.166Z" fill="#06090B"/>
<path d="M350.305 535.581L351.585 534.56C356.062 539.399 378.79 562.907 380.6 566.953L380.462 566.745L379.562 566.611C369.949 557.341 359.391 545.528 350.305 535.581Z" fill="#06090B"/>
<path d="M452.7 545.997L458.659 540.622C465.55 542.26 472.872 544.344 479.665 545.79C492.832 548.594 510.387 548.953 523.919 547.493L524.262 548.181C525.341 548.08 526.022 547.846 527.073 547.738C527.401 550.127 526.687 554.865 526.384 557.515C525.145 566.506 525.012 574.292 528.261 582.836C531.07 590.225 536.035 595.24 539.5 602.114C539.868 602.842 533.676 608.514 532.793 609.36C530.385 606.505 526.185 600.871 523.062 599.58C518.585 595.67 514.686 589.861 509.59 585.491C511.646 590.3 527.332 607.306 531.725 611.49C529.4 614.609 513.406 629.452 510.408 630.738L495.211 613.21C492.633 610.24 488.328 604.961 485.484 602.633L484.888 603.085C486.154 605.771 507.426 629.483 509.823 631.244C509.257 634.527 493.346 646.95 490.501 650.465C487.67 646.46 466.211 622.684 463.296 621.234C465.953 625.674 485.102 646.489 489.295 650.919C486.5 655.042 473.113 666.285 468.665 670.093C463.235 662.938 453.622 652.74 447.455 645.688C441.258 638.601 432.414 627.969 425.937 621.562L425.359 621.672L424.915 620.732L424.895 620.747C426.121 624.751 463.455 666.768 467.947 670.541C465.707 673.253 450.941 687.515 448.123 688.645C445.009 684.54 426.343 661.661 423.513 661.2L423.327 661.891C425.579 665.446 444.243 686.447 447.624 689.245C445.397 692.43 429.386 707.484 426.043 709.296C423.009 704.981 405.552 684.735 401.695 683.42C404.053 687.305 421.105 705.781 425.003 710.12C419.423 716.311 411.498 721.864 406.015 727.626C402.954 722.737 386.453 705.063 381.571 701.947C387.63 710.248 397.812 720.585 405.069 728.344C398.856 733.3 391.627 741.008 385.226 746.553C383.472 744.286 365.778 724.835 364 723.466L363.224 723.558C363.142 724.664 363.1 724.981 364.227 726.038C370.013 731.461 378.239 742.707 384.171 747.218C378.681 754.005 368.102 761.082 363.863 766.588C361.731 762.827 345.405 744.758 341.724 743.083C342.706 745.929 359.724 763.634 362.981 767.277C359.561 770.522 346.926 782.629 343.44 784.376C338.576 779.718 304.798 743.626 303.092 743.102C305.376 747.986 336.941 781.129 342.628 785.744C337.298 790.76 332.014 795.758 326.565 800.644C324.167 799.207 317.336 798.414 314.452 798.642C308.917 793.981 298.877 780.285 293.054 776.283L292.737 776.631C294.184 780.125 306.836 792.794 310.404 796.903C306.854 796.841 300.069 793.715 296.33 792.675C268.573 784.95 245.929 770.853 221.352 755.885C227.745 750.477 235.441 742.875 241.846 737.074L290.961 692.593L451.688 546.673C458.231 553.961 466.857 564.244 473.671 570.858C469.168 563.037 459.142 552.547 452.7 545.997ZM492.295 561.454C485.825 562.599 481.483 568.74 482.563 575.221C483.642 581.702 489.739 586.105 496.231 585.091C500.489 584.426 504.061 581.526 505.587 577.496C507.113 573.465 506.357 568.926 503.608 565.608C500.858 562.29 496.538 560.704 492.295 561.454ZM352.74 672.326C354.509 675.29 365.702 687.817 368.551 688.4C367.45 685.343 357.295 674.865 354.456 672.587L352.74 672.326Z" fill="#B9FBC0"/>
<path d="M573.816 572.384C570.652 569.623 549.21 546.327 547.844 543.463C551.727 545.365 571.336 567.186 574.768 571.531L573.816 572.384Z" fill="#06090B"/>
<path d="M330.633 553.309C331.254 552.187 330.841 552.623 332.005 552.101C336.64 556.897 361.901 583.097 363.211 586.932C359.722 585.049 335.745 558.256 330.633 553.309Z" fill="#06090B"/>
<path d="M496.231 585.091C489.739 586.105 483.642 581.702 482.563 575.221C481.483 568.74 485.825 562.599 492.295 561.454C496.538 560.704 500.858 562.29 503.608 565.608C506.357 568.926 507.113 573.465 505.587 577.496C504.061 581.526 500.489 584.426 496.231 585.091ZM491.567 563.058C478.244 570.224 485.799 586.573 497.09 583.367C509.484 575.958 504.487 562.396 491.567 563.058Z" fill="#06090B"/>
<path d="M497.084 583.367C485.793 586.573 478.238 570.224 491.561 563.058C504.481 562.396 509.478 575.958 497.084 583.367Z" fill="#98F5E1"/>
<path d="M529.859 561.662L530.273 561.968C535.384 565.692 552.582 584.148 555.563 589.512L554.443 589.799L540.169 573.856C536.916 570.272 532.22 565.716 529.859 561.662Z" fill="#06090B"/>
<path d="M311.641 570.848L312.817 569.98C316.95 574.456 341.69 600.895 342.881 604.263L342.451 604.552C339.846 602.78 313.795 574.122 311.641 570.848Z" fill="#06090B"/>
<path d="M509.586 585.491C514.682 589.861 518.581 595.67 523.058 599.58C525.746 602.804 530.207 607.645 532.427 610.815L531.721 611.49C527.328 607.306 511.642 590.3 509.586 585.491Z" fill="#06090B"/>
<path d="M291.32 589.543L292.53 588.268C296.985 592.82 320.984 617.684 322.354 621.256C318.406 619.476 296.191 594.354 291.32 589.543Z" fill="#06090B"/>
<path d="M509.818 631.244C507.421 629.483 486.149 605.771 484.883 603.085L485.479 602.633C488.323 604.961 492.628 610.24 495.206 613.21L510.403 630.738L509.818 631.244Z" fill="#06090B"/>
<path d="M271.5 607.119L273.062 606.078C276.987 609.978 298.039 632.585 299.728 636.41C297.172 635.669 275.392 611.123 271.5 607.119Z" fill="#06090B"/>
<path d="M467.943 670.541C463.451 666.768 426.117 624.751 424.891 620.747L424.911 620.732L425.355 621.672L425.933 621.562C432.41 627.969 441.254 638.601 447.451 645.688C453.618 652.74 463.231 662.938 468.661 670.093L467.943 670.541Z" fill="#06090B"/>
<path d="M489.296 650.919C485.103 646.489 465.954 625.674 463.297 621.234C466.212 622.684 487.671 646.46 490.502 650.465L489.296 650.919Z" fill="#06090B"/>
<path d="M252.164 625.493L253.166 624.072C258.224 629.079 279.985 651.769 282.975 656.805C276.939 652.876 258.521 632.042 252.164 625.493Z" fill="#06090B"/>
<path d="M231.703 643.534L233.073 642.643C239.523 649.424 245.637 656.523 252.131 663.264C255.032 666.276 257.924 669.296 260.358 672.708C253.709 668.239 236.865 650.194 231.703 643.534Z" fill="#06090B"/>
<path d="M447.617 689.245C444.236 686.447 425.572 665.446 423.32 661.891L423.506 661.2C426.336 661.661 445.002 684.54 448.116 688.645L447.617 689.245Z" fill="#06090B"/>
<path d="M211.828 662.324L212.716 661.11C216.392 664.475 238.132 687.128 239.58 690.689C235.157 687.965 216.188 667.333 211.828 662.324Z" fill="#06090B"/>
<path d="M503.25 862.621C506.007 862.605 510.749 863.227 513.605 863.594C638.001 879.577 764.406 828.264 846.311 734.13C863.636 714.217 880.247 689.372 895.273 667.121C895.436 675.479 893.841 684.818 892.363 692.987C882.401 748.03 846.946 797.094 805.834 833.604C780.805 855.832 753.142 873.259 722.067 885.758C714.15 888.977 705.607 892.632 697.416 894.773C639.343 909.95 578.183 904.945 525.022 876.388C518.603 872.94 508.276 867.622 503.25 862.621Z" fill="#FBF8CC"/>
<path d="M368.545 688.4C365.696 687.817 354.503 675.29 352.734 672.326L354.45 672.587C357.289 674.865 367.444 685.343 368.545 688.4Z" fill="#06090B"/>
<path d="M192.445 679.603C192.482 679.353 192.827 678.66 192.947 678.392L194.003 678.134C198.127 682.667 225.592 712.062 225.913 714.073C220.39 710.815 199.221 686.253 192.445 679.603Z" fill="#06090B"/>
<path d="M425.003 710.12C421.105 705.781 404.053 687.305 401.695 683.42C405.552 684.735 423.009 704.981 426.043 709.296L425.003 710.12Z" fill="#06090B"/>
<path d="M180.546 790.752C179.4 788.579 171.414 780.679 169.126 778.298L148.263 756.378C136.776 744.172 132.502 733.769 146.697 720.954C153.337 714.959 160.213 708.82 166.894 702.838C176.082 717.694 189.604 732.511 203.858 742.45C207.65 745.094 218.187 752.062 220.925 754.676C209.195 765.246 192.658 781.043 180.546 790.752Z" fill="#E6DFD5"/>
<path d="M381.57 701.947C386.452 705.063 402.953 722.737 406.014 727.626L405.571 728.383L405.068 728.344C397.811 720.585 387.629 710.248 381.57 701.947Z" fill="#06090B"/>
<path d="M344.289 792.161C351.279 786.578 362.542 774.949 369.544 768.515L421.367 721.45L421.656 722.135C424.094 727.989 425.283 734.616 426.935 740.76C438.053 782.103 456.933 822.337 489.363 851.253C493.268 854.736 497.347 858.609 501.577 861.632C498.207 862.935 486.608 859.131 482.34 858.29C443.618 850.655 405.431 834.483 372.382 812.983C363.028 806.897 352.329 799.848 344.289 792.161Z" fill="#FBF8CC"/>
<path d="M385.226 746.553L384.171 747.218C378.239 742.707 370.013 731.461 364.227 726.038C363.1 724.981 363.142 724.664 363.224 723.558L364 723.466C365.778 724.835 383.472 744.286 385.226 746.553Z" fill="#06090B"/>
<path d="M342.622 785.744C336.935 781.129 305.37 747.986 303.086 743.102C304.792 743.626 338.57 779.718 343.434 784.376L343.204 785.382L342.622 785.744Z" fill="#06090B"/>
<path d="M362.976 767.277C359.719 763.634 342.701 745.929 341.719 743.083C345.4 744.758 361.726 762.827 363.858 766.588L362.976 767.277Z" fill="#06090B"/>
<path d="M181.547 792.321C192.256 781.18 209.477 766.215 221.35 755.885C245.927 770.853 268.571 784.95 296.328 792.675C300.067 793.715 306.852 796.841 310.402 796.903C313.097 799.85 316.433 803.71 319.251 806.425C318.412 809.088 299.222 825.546 295.516 828.837C286.28 819.15 277.245 809.286 268.179 799.442C266.485 797.604 264.679 795.872 262.651 794.405C267.824 803.129 286.709 821.917 294.388 829.915C285.043 838.256 266.01 860.256 253.805 860.254C250.2 860.254 246.556 858.929 243.655 856.817C237.099 852.045 231.3 844.442 225.709 838.518L199.227 810.774C193.681 804.929 187.307 797.793 181.547 792.321Z" fill="#E6DFD5"/>
<path d="M310.401 796.903C306.833 792.794 294.181 780.125 292.734 776.631L293.051 776.283C298.874 780.285 308.914 793.981 314.449 798.642C316.322 800.967 318.423 803.47 320.198 805.84L319.25 806.425C316.432 803.71 313.096 799.85 310.401 796.903Z" fill="#06090B"/>
<path d="M262.648 794.405C264.676 795.872 266.482 797.604 268.176 799.442C277.242 809.286 286.277 819.15 295.513 828.837C294.831 829.899 295.257 829.709 294.385 829.915C286.706 821.917 267.821 803.129 262.648 794.405Z" fill="#06090B"/>
<path d="M314.445 798.642C317.329 798.414 324.16 799.207 326.558 800.644C325.151 801.91 321.676 805.326 320.194 805.84C318.419 803.47 316.318 800.967 314.445 798.642Z" fill="#E6DFD5"/>
<defs>
<linearGradient id="paint0_linear_41_1834" x1="682.307" y1="133.181" x2="325.45" y2="899.977" gradientUnits="userSpaceOnUse">
<stop stop-color="#3F6B9A"/>
<stop offset="1" stop-color="#268791"/>
</linearGradient>
</defs>
</svg>
