<svg width="1024" height="1024" viewBox="0 0 1024 1024" fill="none" xmlns="http://www.w3.org/2000/svg">
<path d="M393.664 179.403C394.025 174.819 420.006 144.965 423.825 140.695C459.38 100.934 512.069 80.8538 565.002 91.9448C622.138 103.916 661.468 150.144 708.298 181.369C719.548 188.861 731.709 195.483 743.492 202.086C758.24 210.143 784.304 223.938 796.024 235.708C791.803 235.536 783.045 231.848 778.577 230.496C768.754 227.524 740.321 223.97 730.82 226.688C726.079 221.84 720.881 217.49 715.82 212.991C622.73 130.232 501.228 111.8 393.664 179.403Z" fill="#B9FBC0"/>
<path d="M393.664 179.403C501.228 111.8 622.73 130.232 715.82 212.991C720.881 217.49 726.079 221.84 730.82 226.688C753.595 251.417 775.371 278.509 791.569 308.715C833.321 386.572 856.032 479.952 853.423 568.299C852.997 582.718 850.739 603.08 847.668 616.882C846.173 619.194 846.619 628.319 844.395 631.244C844.103 631.976 843.812 632.709 843.52 633.441C841.332 640.471 838.82 649.157 836.261 655.898C825.34 684.666 809.319 712.955 790.717 737.484C782.09 748.859 772.871 761.132 763.077 771.578C736.432 799.994 702.265 822.66 668.063 841.018C651.029 850.161 628.047 858.245 609.8 864.102C606.633 864.621 600.072 866.307 597.886 866.513C577.648 871.8 556.844 875.118 535.864 875.088C447.258 875.455 361 846.936 296.431 785.013C248.073 738.639 213.064 673.898 203.931 607.52C202.568 597.61 200.574 583.922 200.41 573.957C200.558 570.055 200.049 564.847 200.005 560.79C199.746 542.495 199.974 524.259 202.474 506.098C203.343 499.793 204.914 492.933 205.443 486.662L205.521 485.674C214.297 433.271 235.935 374.294 261.737 328.085C264.713 322.755 271.884 309.743 275.479 305.41C275.954 309.583 276.754 314.417 277.124 318.437C270.394 331.425 262.949 344.189 256.679 357.389C239.605 393.334 225.764 431.742 217.686 470.737C216.563 476.162 215.782 484.236 214.177 489.164C212.552 497.306 207.848 557.246 209.227 563.451C210.554 578.487 209.86 592.745 212.98 607.967C216.669 625.969 219.98 644.155 226.246 661.534C244.484 710.967 276.29 757.938 316.948 791.575C364.39 830.824 426.129 856.734 487.212 863.788C497.628 864.991 512.495 866.865 522.737 866.108C547.328 866.832 575.47 863.974 599.25 857.479C604.724 856.513 611.725 854.075 617.111 852.419C646.107 843.508 669.647 830.244 695.202 814.716C752.323 780.006 792.937 731.23 820.971 670.759C826.831 658.118 835.169 636.767 838.298 623.068C848.913 582.922 846.906 525.336 840.624 484.99C828.431 406.683 801.172 326.222 751.864 263.264C742.377 251.151 731.437 236.674 719.152 227.275C666.783 175.609 590.532 141.503 516.377 146.526C487.626 148.474 455.112 157.905 428.973 169.656C418.406 174.406 389.062 191.178 382.378 199.002C379.954 199.745 378.004 200.067 376.378 202.083C370.186 206.989 364.922 211.785 359.232 217.215C355.401 220.872 350.675 224.155 346.755 227.835C323.944 249.246 304.361 273.409 287.55 299.785C286.491 301.447 285.03 304.119 283.798 305.567C282.415 302.089 281.273 298.245 280.133 294.656C281.699 293.056 285.868 286.713 287.455 284.484C293.002 276.693 298.246 268.673 304.181 261.147C323.647 236.462 346.158 215.862 370.496 196.115C373.048 195.377 391.01 181.658 393.664 179.403Z" fill="#FDFCFA"/>
<path d="M370.494 196.115C346.156 215.862 323.645 236.462 304.179 261.147C298.244 268.673 293 276.693 287.453 284.484C285.866 286.713 281.697 293.056 280.131 294.656C279.586 292.033 279.316 289.984 278.125 287.576L277.325 287.194C275.015 289.916 275.478 301.389 275.477 305.41C271.882 309.743 264.711 322.755 261.735 328.085C235.933 374.294 214.295 433.271 205.519 485.674C138.616 454.651 99.3846 368.644 112.916 297.316C127.388 221.033 206.176 128.53 291.263 144.024C321.745 149.575 353.135 170.35 370.494 196.115Z" fill="#FDE4CF"/>
<path d="M382.374 199.002C389.058 191.178 418.402 174.406 428.969 169.656C455.108 157.905 487.622 148.474 516.373 146.526C590.528 141.503 666.779 175.609 719.148 227.275C703.172 231.396 687.628 237.017 672.827 244.27C670.51 245.405 668.254 246.447 665.758 247.139C663.704 239.416 660.605 230.577 657.964 223.028C657.073 220.393 656.837 219.182 655.155 216.933L654.506 216.876C653.769 218.303 653.965 219.112 654.035 220.72C654.071 225.754 653.266 254.305 652.208 258.369C649.236 258.125 647.32 260.156 645.089 261.984C617.023 284.983 589.105 307.766 570.183 339.319C567.979 342.994 564.103 350.506 561.268 353.345C557.993 334.671 552.559 319.013 537.759 305.803C539.523 296.993 541.135 288.786 543.767 280.176C553.872 247.121 577.538 221.011 607.556 204.614C610.185 203.178 617.402 199.903 618.289 197.559C616.155 196.168 605.983 201.692 603.717 202.926C582.083 214.707 562.97 231.606 550.49 253.004C540.436 270.301 536.996 284.442 533.22 303.344C518.488 296.886 506.672 295.971 491.862 303.099C487.286 271.074 471.601 239.666 445.219 220.443C438.514 215.557 417.251 201.22 410.222 200.762L409.759 201.351C410.603 202.75 420.685 208.394 423.226 209.933C462.375 233.644 478.862 260.452 487.615 304.911C466.041 322.776 460.094 351.734 463.394 378.413C460.217 381.004 457.301 383.371 454.297 386.173C443.352 375.875 428.74 366.45 416.728 355.077C415.099 301.968 408.191 252.387 380.031 206.533L382.374 199.002Z" fill="#B9FBC0"/>
<path d="M654.04 220.72L654.66 223.234C655.851 223.703 656.636 223.359 657.969 223.028C660.61 230.577 663.709 239.416 665.763 247.139C672.749 272.826 672.165 292.911 662.557 317.752C661.705 319.954 661.893 323.528 661.056 325.605C647.233 359.898 616.021 382.78 589.377 406.569C593.338 412.266 596.683 417.797 600.293 423.724C624.65 414.7 647.952 405.332 670.031 391.704C674.636 388.862 680.541 385.937 684.977 382.706C707.371 361.451 726.619 332.487 741.164 305.348C743.017 301.891 745.912 292.817 748.475 291.246C750.058 292.747 749.991 295.805 750.014 297.963C750.328 326.688 734.622 351.73 717.21 373.338C710.693 381.425 703.584 388.676 695.834 395.585C694.564 397.174 693.56 399.422 692.515 401.126C684.579 414.057 670.933 420.382 658.811 428.251C643.676 438.076 631.746 445.681 614.247 450.864C618.164 460.056 621.148 468.617 624.405 478.067C626.892 478.727 628.682 479.723 630.927 480.839C652.785 491.706 672.408 505.607 690.218 522.263C698.958 530.436 708.368 537.86 714.142 548.801C718.071 555.871 719.175 559.53 721.314 567.379C721.317 571.466 723.735 576.085 725.088 579.992C733.244 603.544 732.469 629.316 739.697 653.075C742.199 661.303 747.633 666.843 751.751 673.926C727.666 663.295 722.099 640.752 717.767 617.186C715.416 604.393 712.701 591.116 709.128 578.627C705.466 575.964 702.562 573.568 699.393 570.294C690.644 560.304 684.772 552.598 677.561 541.288C666.349 539.07 641.566 515.843 632.227 507.717C636.281 525.836 638.116 543.136 638.684 561.661C646.404 571.166 650.705 579.089 656.543 589.795C659.169 595.336 660.833 599.168 662.749 605.054C664.251 608.911 664.892 614.285 666.643 617.946C671.186 627.447 677.251 636.186 680.412 646.377C684.152 658.433 684.363 674.048 684.537 686.682C684.788 705.019 679.303 724.762 673.47 742.018C667.634 758.395 659.935 774.761 649.573 788.766C647.875 791.061 645.443 794.948 642.844 796.009L642.048 795.611C644.781 787.518 648.471 781.054 651.884 773.247C664.791 743.724 667.344 708.653 665.237 676.85C663.996 672.504 661.27 667.582 659.494 663.413C655.306 653.578 652.945 639.578 648.007 630.39C643.635 622.256 639.876 615.968 635.99 607.238C621.951 693.049 570.146 766.084 472.545 737.12C466.127 733.331 458.665 730.682 451.936 726.218C423.516 707.366 406.003 674.397 396.282 642.453C393.059 631.861 391.794 623.511 389.503 613.043C387.965 615.764 386.436 618.752 384.951 621.526C381.689 626.049 380.788 626.788 375.57 629.121C373.59 644.497 370.052 665.56 358.647 676.611L358.804 677.596C359.415 681.711 359.016 690.025 359.301 694.82C359.537 701.372 359.978 707.927 360.163 714.479C360.218 716.445 358.642 720.303 358.846 721.976C361.598 744.607 370.945 766.462 380.73 786.44L380.411 787.115C381.154 788.626 382.681 790.816 382.142 792.278C378.644 792.183 379.829 788.07 378.796 786L378.284 786.205C368.188 773.644 359.48 739.052 356.282 723.395C353.634 722.93 351.327 722.758 349.042 721.407L349.68 721.173C348.466 720.558 347.728 720.435 346.954 719.313L346.659 719.738C340.043 709.502 341.224 696.42 341.225 684.646C341.042 682.484 342.295 675.696 341.756 673.988C337.237 659.687 345.996 645.074 351.209 632.025C352.907 627.775 356.604 622.599 358.024 618.474C364.963 598.317 374.41 581.362 387.022 564.111C389.045 544.286 389.929 530.158 393.683 510.001C381.04 520.007 361.095 535.708 345.034 537.098C336.559 551.962 329.23 569.614 313.762 577.767C296.595 604.838 308.703 634.211 290.95 660.71C287.851 665.336 276.865 676.356 271.414 672.64C271.689 670.028 282.152 662.725 284.71 654.478C293.406 626.447 286.476 596.805 302.426 570.531C304.106 567.763 304.675 559.521 307.112 556.275C319.441 536.243 337.679 517.266 356.011 502.729C361.414 499.512 366.685 495.375 372.107 492.055C381.775 486.137 391.669 481.319 401.612 476.007C405.357 466.211 408.816 456.529 413.061 446.931C406.315 445.546 401.005 443.942 394.553 441.566C384.137 438.143 371.059 433.108 365.442 423.213C355.538 419.135 330.393 406.709 327.461 395.638C328.345 394.127 327.492 392.872 326.935 391.292L328.181 390.761L327.837 390.091C329.002 387.853 330.466 386.489 332.432 385.002L333.374 385.186C335.332 384.491 335.984 384.259 338.044 383.985L338.489 383.93L338.847 383.32C340.472 383.292 347.438 388.706 349.144 389.968C357.016 395.792 365.319 400.768 373.776 405.687C375.233 406.538 381.138 406.085 383.132 406.864C391.666 410.198 399.881 414.529 408.408 417.835C413.649 420.021 418.965 422.561 424.138 424.943C428.775 417.578 432.874 411.335 438.163 404.46C428.933 399.841 421.778 394.17 413.549 388.124C399.23 376.792 387.712 367.534 378.923 351.645C375.82 346.033 370.074 339.929 366.511 333.476C355.696 313.887 351.46 292.886 351.588 270.642C351.512 261.387 355.416 226.811 360.79 221.616C361.953 221.611 361.981 224.877 362.13 226.051C365.769 253.84 366.767 285.302 379.085 310.951C381.863 316.735 396.569 331.217 400.771 337.76C403.236 341.598 412.769 351.714 416.177 354.609L416.733 355.077C428.745 366.45 443.357 375.875 454.302 386.173C457.306 383.371 460.222 381.004 463.399 378.413C460.099 351.734 466.046 322.776 487.62 304.911C478.867 260.452 462.38 233.644 423.231 209.933C420.69 208.394 410.608 202.75 409.764 201.351L410.227 200.762C417.256 201.22 438.519 215.557 445.224 220.443C471.606 239.666 487.291 271.074 491.867 303.099C506.677 295.971 518.493 296.886 533.225 303.344C537.001 284.442 540.441 270.301 550.495 253.004C562.975 231.606 582.088 214.707 603.722 202.926C605.988 201.692 616.16 196.168 618.294 197.559C617.407 199.903 610.19 203.178 607.561 204.614C577.543 221.011 553.877 247.121 543.772 280.176C541.14 288.786 539.528 296.993 537.764 305.803C552.564 319.013 557.998 334.671 561.273 353.345C561.935 360.956 562.25 368.894 559.479 376.089C564.092 379.257 567.574 382.56 571.577 386.386C584.448 372.795 600.375 359.897 614.929 348.116C626.463 338.78 629.161 340.522 636.374 326.013C646.916 304.805 650.147 281.636 652.213 258.369C653.271 254.305 654.076 225.754 654.04 220.72ZM416.402 358.647C409.876 352.614 403.921 346.699 398.531 339.541C392.83 341.44 380.899 346.717 384.758 353.919C389.969 363.646 405.499 376.879 414.276 383.317C422.843 390.242 430.586 396.211 440.139 401.818C444.306 396.841 448.032 392.564 452.462 387.825C439.906 378.26 428.61 368.53 416.402 358.647ZM403.189 418.687C394.263 414.972 386.803 411.014 377.41 408.594C372.083 411.181 365.712 417.451 369.331 423.462C374.171 431.504 389.392 436.8 397.592 439.657C403.82 441.497 408.03 442.836 414.44 444.317C417.433 437.884 420.133 432.173 423.681 426.025C417.155 424.296 409.473 421.188 403.189 418.687ZM651.87 586.648C647.565 578.984 643.935 572.697 638.874 565.459C638.869 572.795 638.682 579.807 638.428 587.141L636.843 602.528C639.918 607.987 649.202 638.059 661.956 620.633C665.578 615.683 654.782 592.498 651.87 586.648ZM656.151 224.895C655.18 256.499 654.108 281.67 645.242 312.181C649.973 313.24 653.732 313.698 657.747 316.416L658.787 317.218C661.445 315.001 666.056 291.633 666.335 287.258C667.432 270.038 663.681 251.185 659.362 234.496C658.765 232.188 657.251 226.513 656.151 224.895ZM359.325 230.397C354.006 255.803 351.822 293.468 362.255 317.564C364.398 316.021 365.997 314.778 368.362 313.561C371.53 312.448 372.571 312.145 375.895 311.589C365.296 285.043 362.585 262.13 360.389 233.994C360.312 233.006 360.05 231.126 359.325 230.397ZM747.284 298.868C734.941 323.639 721.98 344.719 704.146 365.962C699.199 371.854 692.506 380.207 686.381 384.66C688.998 386.242 689.701 386.785 691.612 389.195L694.968 393.696C716.557 370.841 736.863 346.842 745.057 315.619C745.948 312.226 747.813 302.112 747.284 298.868ZM505.948 303.606C471.54 311.883 465.051 345.84 466.063 376.642C482.641 366.099 495.324 362.661 514.859 362.212C531.794 362.672 542.031 364.918 556.464 373.902C559.666 355.387 556.343 337.64 545.623 322.088C535.595 307.539 523.309 302.139 505.948 303.606ZM373.892 314.574C369.116 316.11 367.444 316.942 363.446 320.141C368.755 332.366 373.21 339.536 381.098 350.21L382.905 346.064C387.91 340.016 389.658 339.648 396.91 337.185C390.812 330.975 385.989 325.016 380.911 318.004C380.067 316.837 378.815 314.983 377.564 314.503L373.892 314.574ZM644.565 314.724C640.453 324.352 637.978 330.206 631.651 338.728C637.764 341.536 639.516 343.171 643.519 348.654C643.83 348.489 644.14 348.325 644.451 348.161C649.851 340.398 656.309 329.713 658.667 320.519C654.033 317.682 650.076 315.503 644.565 314.724ZM628.689 341.337C611.626 354.314 588.486 373.44 573.181 388.109C578.436 393.588 582.572 397.951 587.375 403.848C601.406 392.364 632.196 366.083 641.824 351.403C639.284 347.62 633.547 341.133 628.689 341.337ZM508.7 367.205C374.279 377.765 334.726 742.769 518.16 736.439C549.647 732.713 573.253 722.804 593.168 696.793C626.522 653.23 636.849 588.854 629.939 535.35C622.768 479.823 600.359 417.394 556.738 380.002C545.376 370.262 523.272 365.685 508.7 367.205ZM336.336 385.918C324.466 393.988 330.823 397.939 339.532 405.379C347.178 411.913 356.75 416.51 365.904 420.572C366.518 414.052 367.923 412.082 372.372 407.471C360.433 401.318 350.078 395.044 339.468 386.781C338.571 386.082 337.448 385.907 336.336 385.918ZM684.564 386.55C672.567 393.806 660.515 401.041 647.915 407.223C654.911 413.598 656.054 415.495 657.666 424.868L658.204 425.374C670.803 418.02 685.014 408.776 692.61 396.167C689.936 392.52 687.776 389.777 684.564 386.55ZM646.017 407.989C630.142 415.673 618.898 421.212 601.836 426.183C606.16 433.924 609.182 439.591 612.609 447.892C618.892 448.48 648.476 431.244 655.118 426.953C653.512 419.491 652.123 413.518 646.017 407.989ZM399.739 479.971C380.676 490.541 361.046 501.241 345.084 516.282C339.276 521.754 335.176 525.413 341.975 532.359C344.815 534.073 346.723 534.243 350.045 533.415C360.843 530.721 386.783 513.378 394.211 506.114C396.129 500.053 399.143 487.106 400.335 480.745L399.739 479.971ZM625.59 480.787C627.773 488.491 629.856 495.105 630.624 503.08C637.179 508.933 670.5 537.984 676.883 537.897C678.292 537.878 679.543 537.289 680.471 536.237C681.242 535.362 681.906 534.362 682.57 533.404C684.553 529.807 685.542 527.678 686.954 523.769C671.405 509.081 656.406 498.239 637.77 487.559C634.547 485.712 628.824 482.236 625.59 480.787ZM688.884 524.8L688.715 525.464C687.185 531.293 684.477 535.127 681.026 539.969C680.815 540.265 681.785 542.786 682.079 543.023C687.721 551.493 703.03 571.362 711.479 575.587C716.506 576.338 717.034 575.503 719.001 570.957C714.028 550.929 704.753 538.288 688.884 524.8ZM334.919 526.845C328.941 532.679 290.187 572.883 313.302 574.062C324.469 570.84 335.963 546.276 342.521 536.256C335.85 531.267 336.804 528.661 334.919 526.845ZM386.791 569.356C380.288 578.376 354.154 616.591 367.767 624.873C381.343 630.134 383.864 615.878 389.247 607.152C387.629 598.628 387.844 587.653 387.297 578.914C387.141 576.42 387.207 571.619 386.791 569.356ZM304.123 572.797C297.859 585.333 296.723 590.377 294.212 604.276C290.105 627.012 295.302 650.523 278.68 668.319C280.642 667.114 282.162 666.266 283.917 664.75C309.106 637.109 292.367 604.657 311.262 577.94C307.709 576.432 306.676 575.712 304.123 572.797ZM720.336 575.909C717.328 579.153 716.987 578.869 712.561 579.037C715.709 589.285 717.763 599.741 719.843 610.256C723.213 627.291 724.896 644.547 736.353 658.558C738.066 660.484 739.48 662.105 741.363 663.886C737.257 656.501 737.061 654.958 734.943 647.668C731.916 637.245 725.774 581.172 720.336 575.909ZM360.381 619.903C354.485 631.228 349.109 641.937 345.52 654.246C342.213 665.59 340.176 676.241 355.959 674.288C366.429 668.156 371.453 640.88 373.124 629.204C369.163 628.867 366.886 629.019 364.048 626.085C361.806 623.767 361.064 620.629 360.381 619.903ZM665.455 621.983C659.911 627.539 658.018 628.771 650.092 627.973C657.424 643.762 660.751 658.325 667.78 674.198C672.723 678.76 678.079 672.657 680.47 668.363C681.2 654.558 676.416 643.27 670.532 631.033C669.478 628.843 666.999 623.674 665.455 621.983ZM681.359 672.86C677.213 678.163 675.02 679.136 668.411 677.907C669.64 706.369 668.229 736.523 658.606 763.76C657.557 766.729 653.116 776.417 652.986 778.479C668.62 751.953 679.824 720.274 681.684 689.39C681.953 684.913 682.232 677.087 681.359 672.86ZM344.35 676.127C342.569 686.695 343.225 707.441 348.573 717.481C349.876 719.927 354.029 719.996 356.458 720.012C358.402 711.886 356.673 687.486 356.491 677.442C351.212 677.678 349.41 677.951 344.35 676.127Z" fill="url(#paint0_linear_41_1925)"/>
<path d="M376.375 202.083C378.001 200.067 379.951 199.745 382.375 199.002L380.032 206.533C378.824 205.026 377.613 203.565 376.375 202.083Z" fill="#FBF8CC"/>
<path d="M283.797 305.567C285.029 304.119 286.49 301.447 287.549 299.785C304.36 273.409 323.943 249.246 346.754 227.835C350.674 224.155 355.4 220.872 359.231 217.215C364.921 211.785 370.185 206.989 376.377 202.083C377.615 203.565 378.826 205.026 380.034 206.533C408.194 252.387 415.102 301.968 416.731 355.077L416.175 354.609C412.767 351.714 403.234 341.598 400.769 337.76C396.567 331.217 381.861 316.735 379.083 310.951C366.765 285.302 365.767 253.84 362.128 226.051C361.979 224.877 361.951 221.611 360.788 221.616C355.414 226.811 351.51 261.387 351.586 270.642C351.458 292.886 355.694 313.887 366.509 333.476C370.072 339.929 375.818 346.033 378.921 351.645C387.71 367.534 399.228 376.792 413.547 388.124C412.386 389.698 411.604 398.761 411.282 401.216C410.553 406.774 409.152 412.358 408.406 417.835C399.879 414.529 391.664 410.198 383.13 406.864C381.136 406.085 375.231 406.538 373.774 405.687C365.317 400.768 357.014 395.792 349.142 389.968C347.436 388.706 340.47 383.292 338.845 383.32C318.942 364.298 293.558 331.507 283.797 305.567Z" fill="#FDE4CF"/>
<path d="M654.038 220.72C653.968 219.112 653.772 218.303 654.509 216.876L655.158 216.933C656.84 219.182 657.076 220.393 657.967 223.028C656.634 223.359 655.849 223.703 654.658 223.234L654.038 220.72Z" fill="#46463A"/>
<path d="M645.242 312.181C654.108 281.67 655.18 256.499 656.151 224.895C657.251 226.513 658.765 232.188 659.362 234.496C663.681 251.185 667.432 270.038 666.335 287.258C666.056 291.633 661.445 315.001 658.787 317.218L657.747 316.416C653.732 313.698 649.973 313.24 645.242 312.181Z" fill="#8EECF5"/>
<path d="M730.82 226.688C740.321 223.97 768.754 227.524 778.577 230.496C783.045 231.848 791.803 235.536 796.024 235.708C806.614 243.248 815.544 252.206 824.683 261.127C865.169 300.642 899.327 360.213 907.807 416.445C917.827 482.891 916.568 572.383 853.82 613.57C852.379 614.515 849.29 616.692 847.668 616.882C850.739 603.08 852.997 582.718 853.423 568.299C856.032 479.952 833.321 386.572 791.569 308.715C775.371 278.509 753.595 251.417 730.82 226.688Z" fill="#8EECF5"/>
<path d="M719.151 227.275C731.436 236.674 742.376 251.151 751.863 263.264C801.171 326.222 828.43 406.683 840.623 484.99C846.905 525.336 848.912 582.922 838.297 623.068C829.533 608.82 820.852 595.623 807.369 585.064C786.797 568.956 746.796 563.669 721.312 567.379C719.173 559.53 718.069 555.871 714.14 548.801C708.366 537.86 698.956 530.436 690.216 522.263C672.406 505.607 652.783 491.706 630.925 480.839C628.68 479.723 626.89 478.727 624.403 478.067C621.146 468.617 618.162 460.056 614.245 450.864C631.744 445.681 643.674 438.076 658.809 428.251C670.931 420.382 684.577 414.057 692.513 401.126C693.558 399.422 694.562 397.174 695.832 395.585C703.582 388.676 710.691 381.425 717.208 373.338C734.62 351.73 750.326 326.688 750.012 297.963C749.989 295.805 750.056 292.747 748.473 291.246C745.91 292.817 743.015 301.891 741.162 305.348C726.617 332.487 707.369 361.451 684.975 382.706C680.539 385.937 674.634 388.862 670.029 391.704C647.95 405.332 624.648 414.7 600.291 423.724C596.681 417.797 593.336 412.266 589.375 406.569C616.019 382.78 647.231 359.898 661.054 325.605C661.891 323.528 661.703 319.954 662.555 317.752C672.163 292.911 672.747 272.826 665.761 247.139C668.257 246.447 670.513 245.405 672.83 244.27C687.631 237.017 703.175 231.396 719.151 227.275Z" fill="#8EECF5"/>
<path d="M362.25 317.564C351.817 293.468 354.001 255.803 359.32 230.397C360.045 231.126 360.307 233.006 360.384 233.994C362.58 262.13 365.291 285.043 375.89 311.589C372.566 312.145 371.525 312.448 368.357 313.561C365.992 314.778 364.393 316.021 362.25 317.564Z" fill="#FDE4CF"/>
<path d="M561.271 353.345C564.106 350.506 567.982 342.994 570.186 339.319C589.108 307.766 617.026 284.983 645.092 261.984C647.323 260.156 649.239 258.125 652.211 258.369C650.145 281.636 646.914 304.805 636.372 326.013C629.159 340.522 626.461 338.78 614.927 348.116C600.373 359.897 584.446 372.795 571.575 386.386C567.572 382.56 564.09 379.257 559.477 376.089C562.248 368.894 561.933 360.956 561.271 353.345Z" fill="#8EECF5"/>
<path d="M275.475 305.41C275.476 301.389 275.013 289.916 277.323 287.194L278.123 287.576C279.314 289.984 279.584 292.033 280.129 294.656C281.269 298.245 282.411 302.089 283.794 305.567C293.555 331.507 318.939 364.298 338.842 383.32L338.484 383.93L338.039 383.985C335.979 384.259 335.327 384.491 333.369 385.186L332.427 385.002C333.12 384.456 335.177 383.26 336.027 382.738C325.715 375.223 311.845 357.926 304.14 347.454C298.678 340.031 283.879 316.442 282.423 308.072C280.966 304.328 278.814 299.251 277.877 295.467C277.575 300.839 277.64 309.894 279.009 315.092C283.733 342.602 304.699 371.644 326.224 389.412C326.966 390.024 326.976 389.929 327.832 390.091L328.176 390.761L326.93 391.292C327.487 392.872 328.34 394.127 327.456 395.638C327.225 394.829 326.744 393.241 326.067 392.723C303.619 375.534 282.506 346.578 277.12 318.437C276.75 314.417 275.95 309.583 275.475 305.41Z" fill="#473D39"/>
<path d="M277.882 295.467C278.819 299.251 280.971 304.328 282.428 308.072C281.695 309.627 279.829 313.894 279.014 315.092C277.645 309.894 277.58 300.839 277.882 295.467Z" fill="#FDFCFA"/>
<path d="M686.375 384.66C692.5 380.207 699.193 371.854 704.14 365.962C721.974 344.719 734.935 323.639 747.278 298.868C747.807 302.112 745.942 312.226 745.051 315.619C736.857 346.842 716.551 370.841 694.962 393.696L691.606 389.195C689.695 386.785 688.992 386.242 686.375 384.66Z" fill="#8EECF5"/>
<path d="M466.058 376.642C465.046 345.84 471.535 311.883 505.943 303.606C523.304 302.139 535.59 307.539 545.618 322.088C556.338 337.64 559.661 355.387 556.459 373.902C542.026 364.918 531.789 362.672 514.854 362.212C495.319 362.661 482.636 366.099 466.058 376.642ZM489.171 319.016C475.452 324.318 478.086 342.477 492.622 341.822C497.972 339.457 499.69 337.119 501.179 331.499C500.325 327.363 499.849 325.565 497.805 321.677C494.526 319.914 493.019 318.978 489.171 319.016ZM530.434 319.092C519.285 324.845 521.568 343.451 537.685 341.336C550.279 334.31 545.36 317.551 530.434 319.092Z" fill="#B9FBC0"/>
<path d="M282.422 308.072C283.878 316.442 298.677 340.031 304.139 347.454C311.844 357.926 325.714 375.223 336.026 382.738C335.176 383.26 333.119 384.456 332.426 385.002C330.46 386.489 328.996 387.853 327.831 390.091C326.975 389.929 326.965 390.024 326.223 389.412C304.698 371.644 283.732 342.602 279.008 315.092C279.823 313.894 281.689 309.627 282.422 308.072Z" fill="#FDE4CF"/>
<path d="M363.445 320.141C367.443 316.942 369.115 316.11 373.891 314.574L377.563 314.503C378.814 314.983 380.066 316.837 380.91 318.004C385.988 325.016 390.811 330.975 396.909 337.185C389.657 339.648 387.909 340.016 382.904 346.064L381.097 350.21C373.209 339.536 368.754 332.366 363.445 320.141Z" fill="#FDE4CF"/>
<path d="M631.648 338.728C637.975 330.206 640.45 324.352 644.562 314.724C650.073 315.503 654.03 317.682 658.664 320.519C656.306 329.713 649.848 340.398 644.448 348.161C644.137 348.325 643.827 348.489 643.516 348.654C639.513 343.171 637.761 341.536 631.648 338.728Z" fill="#8EECF5"/>
<path d="M277.123 318.437C282.509 346.578 303.622 375.534 326.07 392.723C326.747 393.241 327.228 394.829 327.459 395.638C330.391 406.709 355.536 419.135 365.44 423.213C371.057 433.108 384.135 438.143 394.551 441.566C362.364 475.137 307.521 496.45 261.278 497.581C243.136 498.025 230.827 495.385 214.176 489.164C215.781 484.236 216.562 476.162 217.685 470.737C225.763 431.742 239.604 393.334 256.678 357.389C262.948 344.189 270.393 331.425 277.123 318.437Z" fill="#FDE4CF"/>
<path d="M492.623 341.822C478.087 342.477 475.453 324.318 489.172 319.016C493.02 318.978 494.527 319.914 497.806 321.677C499.85 325.565 500.326 327.363 501.18 331.499C499.691 337.119 497.973 339.457 492.623 341.822ZM488.412 322.962C480.291 328.179 482.423 338.531 492.144 338.552C500.173 333.502 498.874 322.885 488.412 322.962Z" fill="#46463A"/>
<path d="M537.687 341.336C521.57 343.451 519.286 324.845 530.435 319.092C545.361 317.551 550.281 334.31 537.687 341.336ZM530.942 323.062C523.048 329.153 527.152 339.93 536.75 338.113C544.794 332.687 540.94 321.613 530.942 323.062Z" fill="#46463A"/>
<path d="M492.142 338.552C482.421 338.531 480.289 328.179 488.41 322.962C498.872 322.885 500.171 333.502 492.142 338.552ZM488.756 325.892C485.125 328.737 485.224 334.015 489.492 336.039L491.759 336.027C495.48 331.608 496.334 326.041 488.756 325.892Z" fill="#DBF5E9"/>
<path d="M536.754 338.113C527.156 339.93 523.052 329.153 530.946 323.062C540.944 321.613 544.798 332.687 536.754 338.113ZM533.05 325.258C528.589 329.039 528.446 335.424 535.058 336.284C540.028 332.542 539.141 326.333 533.05 325.258Z" fill="#DBF5E9"/>
<path d="M535.053 336.284C528.441 335.424 528.584 329.039 533.045 325.258C539.136 326.333 540.023 332.542 535.053 336.284Z" fill="#46463A"/>
<path d="M491.762 336.027L489.495 336.039C485.227 334.015 485.128 328.737 488.759 325.892C496.337 326.041 495.483 331.608 491.762 336.027Z" fill="#46463A"/>
<path d="M398.527 339.541C403.917 346.699 409.872 352.614 416.398 358.647C416.334 365.963 416.218 376.39 414.272 383.317C405.495 376.879 389.965 363.646 384.754 353.919C380.895 346.717 392.826 341.44 398.527 339.541Z" fill="#FDE4CF"/>
<path d="M573.18 388.109C588.485 373.44 611.625 354.314 628.688 341.337C633.546 341.133 639.283 347.62 641.823 351.403C632.195 366.083 601.405 392.364 587.374 403.848C582.571 397.951 578.435 393.588 573.18 388.109Z" fill="#8EECF5"/>
<path d="M416.399 358.647C428.607 368.53 439.903 378.26 452.459 387.825C448.029 392.564 444.303 396.841 440.136 401.818C430.583 396.211 422.84 390.242 414.273 383.317C416.219 376.39 416.335 365.963 416.399 358.647Z" fill="#B9FBC0"/>
<path d="M518.16 736.439C334.726 742.769 374.279 377.765 508.7 367.205C523.272 365.685 545.376 370.262 556.738 380.002C600.359 417.394 622.768 479.823 629.939 535.35C636.849 588.854 626.522 653.23 593.168 696.793C573.253 722.804 549.647 732.713 518.16 736.439ZM595.164 449.249C587.554 435.085 582.266 427.886 568.653 419.418C580.257 429.817 586.188 436.311 594.519 449.5C595.644 452.06 596.395 454.228 598.011 456.517L598.1 455.707L597.822 456.377L598.171 456.562C598.02 454.496 596.155 451.101 595.164 449.249ZM412.298 600.522C410.975 590.97 409.507 581.468 408.618 571.905C403.642 518.414 416.924 463.332 449.657 420.255C460.263 406.298 473.706 392.01 490.48 385.514C488.6 384.863 485.497 386.406 483.747 387.27C450.668 403.6 426.613 445.765 415.45 479.569C402.032 520.199 402.743 560.98 411.209 602.344C412.753 608.362 414.336 614.493 416.061 620.459C416.698 622.908 417.758 626.424 418.995 628.577C418.849 625.726 417.677 622.544 416.828 619.751C415.245 615.922 413.199 604.938 412.298 600.522ZM605.06 495.217C614.891 529.806 615.01 565.502 610.19 600.866C608.373 610.693 606.512 618.376 603.768 627.99C602.8 630.702 600.898 636.197 600.391 638.935C602.321 634.974 603.147 632.792 604.564 628.594C607.476 619.506 609.315 612.179 611.373 602.883C617.057 572.781 617.391 545.581 611.388 515.331C610.218 509.435 608.295 500.228 605.06 495.217ZM475.405 713.652C448.762 699.851 438.05 685.476 426.203 658.278C431.909 684.052 449.999 705.309 474.706 714.703C478.08 715.909 487.714 719.247 490.975 718.319L490.319 717.599C484.781 717.62 480.683 715.596 475.405 713.652ZM587.614 470.631C550.987 477.421 509.486 525.251 493.066 557.278C484.395 545.426 475.292 535.77 461.364 530.055C454.476 527.228 447.03 526.407 441.099 531.389C426.059 544.023 451.196 575.716 458.617 586.711C463.495 593.803 475.905 614.233 484.847 616.478C490.756 617.962 500.6 605.596 504.485 601.847C515.347 590.971 524.854 579.257 535.334 568.072C548.87 553.205 564.113 539.187 577.603 524.337C587.666 513.259 605.371 498.862 607.839 483.783C609.809 471.75 596.49 469.52 587.614 470.631ZM597.77 664.382C582.435 694.373 568.699 707.972 536.088 718.12L536.023 718.548C556.949 714.291 575.526 704.61 587.325 686.299C589.314 683.212 598.074 667.476 597.77 664.382Z" fill="url(#paint1_linear_41_1925)"/>
<path d="M412.291 600.522L411.202 602.344C402.736 560.98 402.025 520.199 415.443 479.569C426.606 445.765 450.661 403.6 483.74 387.27C485.49 386.406 488.593 384.863 490.473 385.514C473.699 392.01 460.256 406.298 449.65 420.255C416.917 463.332 403.635 518.414 408.611 571.905C409.5 581.468 410.968 590.97 412.291 600.522Z" fill="#473D39"/>
<path d="M365.901 420.572C356.747 416.51 347.175 411.913 339.529 405.379C330.82 397.939 324.463 393.988 336.333 385.918C337.445 385.907 338.568 386.082 339.465 386.781C350.075 395.044 360.43 401.318 372.369 407.471C367.92 412.082 366.515 414.052 365.901 420.572Z" fill="#FDE4CF"/>
<path d="M647.914 407.223C660.514 401.041 672.566 393.806 684.563 386.55C687.775 389.777 689.935 392.52 692.609 396.167C685.013 408.776 670.802 418.02 658.203 425.374L657.665 424.868C656.053 415.495 654.91 413.598 647.914 407.223Z" fill="#8EECF5"/>
<path d="M408.406 417.835C409.152 412.358 410.553 406.774 411.282 401.216C411.604 398.761 412.386 389.698 413.547 388.124C421.776 394.17 428.931 399.841 438.161 404.46C432.872 411.335 428.773 417.578 424.136 424.943C418.963 422.561 413.647 420.021 408.406 417.835Z" fill="#FBF8CC"/>
<path d="M601.836 426.183C618.898 421.212 630.142 415.673 646.017 407.989C652.123 413.518 653.512 419.491 655.118 426.953C648.476 431.244 618.892 448.48 612.609 447.892C609.182 439.591 606.16 433.924 601.836 426.183Z" fill="#8EECF5"/>
<path d="M377.406 408.594C386.799 411.014 394.259 414.972 403.185 418.687C403.398 428.216 399.757 431.261 397.588 439.657C389.388 436.8 374.167 431.504 369.327 423.462C365.708 417.451 372.079 411.181 377.406 408.594Z" fill="#FDE4CF"/>
<path d="M403.183 418.687C409.467 421.188 417.149 424.296 423.675 426.025C420.127 432.173 417.427 437.884 414.434 444.317C408.024 442.836 403.814 441.497 397.586 439.657C399.755 431.261 403.396 428.216 403.183 418.687Z" fill="#FBF8CC"/>
<path d="M568.648 419.418C582.261 427.886 587.549 435.085 595.159 449.249L594.514 449.5C586.183 436.311 580.252 429.817 568.648 419.418Z" fill="#433641"/>
<path d="M214.176 489.164C230.827 495.385 243.136 498.025 261.278 497.581C307.521 496.45 362.364 475.137 394.551 441.566C401.003 443.942 406.313 445.546 413.059 446.931C408.814 456.529 405.355 466.211 401.61 476.007C391.667 481.319 381.773 486.137 372.105 492.055C366.683 495.375 361.412 499.512 356.009 502.729C353.423 502.684 313.266 519.752 305.877 521.909C278.868 529.793 229.181 542.809 209.226 563.451C207.847 557.246 212.551 497.306 214.176 489.164Z" fill="#FFEDE1"/>
<path d="M595.161 449.249C596.152 451.101 598.017 454.496 598.168 456.562L597.819 456.377L598.097 455.707L598.008 456.517C596.392 454.228 595.641 452.06 594.516 449.5L595.161 449.249Z" fill="#8F778F"/>
<path d="M493.06 557.278C509.48 525.251 550.981 477.421 587.608 470.631C596.484 469.52 609.803 471.75 607.833 483.783C605.365 498.862 587.66 513.259 577.597 524.337C564.107 539.187 548.864 553.205 535.328 568.072C524.848 579.257 515.341 590.971 504.479 601.847C500.594 605.596 490.75 617.962 484.841 616.478C475.899 614.233 463.489 593.803 458.611 586.711C451.19 575.716 426.053 544.023 441.093 531.389C447.024 526.407 454.47 527.228 461.358 530.055C475.286 535.77 484.389 545.426 493.06 557.278ZM589.557 473.169C554.924 478.423 518.772 521.394 500.571 550.003C497.983 554.07 496.089 558.902 493.042 562.726C491.759 561.734 488.87 557.456 487.912 555.761C481.365 544.178 452.77 520.382 440.659 535.831C433.207 545.338 451.304 570.061 457.245 579.07C461.36 585.035 478.574 612.033 483.863 613.318C485.971 613.83 488.647 612.872 490.309 611.597C495.187 607.856 499.532 602.719 503.73 598.233C513.898 587.368 523.512 576.018 533.722 565.192L569.57 527.932C579.723 517.571 601.299 498.271 605.534 483.37C607.694 475.771 596.783 471.956 589.557 473.169Z" fill="#433641"/>
<path d="M457.248 579.07C451.307 570.061 433.21 545.338 440.662 535.831C452.773 520.382 481.368 544.178 487.915 555.761C488.873 557.456 491.762 561.734 493.045 562.726C496.092 558.902 497.986 554.07 500.574 550.003C518.775 521.394 554.927 478.423 589.56 473.169C596.786 471.956 607.697 475.771 605.537 483.37C601.302 498.271 579.726 517.571 569.573 527.932L533.725 565.192C523.515 576.018 513.901 587.368 503.733 598.233C499.535 602.719 495.19 607.856 490.312 611.597C488.65 612.872 485.974 613.83 483.866 613.318C478.577 612.033 461.363 585.035 457.248 579.07Z" fill="#F1C0E8"/>
<path d="M341.974 532.359C335.175 525.413 339.275 521.754 345.083 516.282C361.045 501.241 380.675 490.541 399.738 479.971L400.334 480.745C399.142 487.106 396.128 500.053 394.21 506.114C386.782 513.378 360.842 530.721 350.044 533.415C346.722 534.243 344.814 534.073 341.974 532.359Z" fill="#B9FBC0"/>
<path d="M630.62 503.08C629.852 495.105 627.769 488.491 625.586 480.787C628.82 482.236 634.543 485.712 637.766 487.559C656.402 498.239 671.401 509.081 686.95 523.769C685.538 527.678 684.549 529.807 682.566 533.404C681.902 534.362 681.238 535.362 680.467 536.237C679.539 537.289 678.288 537.878 676.879 537.897C670.496 537.984 637.175 508.933 630.62 503.08Z" fill="#8EECF5"/>
<path d="M610.185 600.866C615.005 565.502 614.886 529.806 605.055 495.217C608.29 500.228 610.213 509.435 611.383 515.331C617.386 545.581 617.052 572.781 611.368 602.883L610.185 600.866Z" fill="#433641"/>
<path d="M209.227 563.451C229.182 542.809 278.869 529.793 305.878 521.909C313.267 519.752 353.424 502.684 356.01 502.729C337.678 517.266 319.44 536.243 307.111 556.275C304.674 559.521 304.105 567.763 302.425 570.531C286.475 596.805 293.405 626.447 284.709 654.478C282.151 662.725 271.688 670.028 271.413 672.64C276.864 676.356 287.85 665.336 290.949 660.71C308.702 634.211 296.594 604.838 313.761 577.767C329.229 569.614 336.558 551.962 345.033 537.098C361.094 535.708 381.039 520.007 393.682 510.001C389.928 530.158 389.044 544.286 387.021 564.111C374.409 581.362 364.962 598.317 358.023 618.474C356.603 622.599 352.906 627.775 351.208 632.025C345.995 645.074 337.236 659.687 341.755 673.988C342.294 675.696 341.041 682.484 341.224 684.646C341.223 696.42 340.042 709.502 346.658 719.738C345.38 736.149 368.001 787.028 383.305 794.453L384.144 794.143C384.556 791.489 382.262 788.764 380.729 786.44C370.944 766.462 361.597 744.607 358.845 721.976C358.641 720.303 360.217 716.445 360.162 714.479C359.977 707.927 359.536 701.372 359.3 694.82C359.015 690.025 359.414 681.711 358.803 677.596L358.646 676.611C370.051 665.56 373.589 644.497 375.569 629.121C380.787 626.788 381.688 626.049 384.95 621.526C386.328 624.708 385.209 639.345 385.481 643.73C386.431 659.021 387.911 674.158 391.056 689.18C395.866 712.939 402.779 729.009 413.902 750.097C433.069 786.437 457.744 813.455 488.804 839.973C496.012 846.128 502.769 851.572 510.459 857.215C512.615 858.797 521.335 864.786 522.737 866.108C512.495 866.865 497.628 864.991 487.212 863.788C426.129 856.734 364.39 830.824 316.948 791.575C276.29 757.938 244.484 710.967 226.246 661.534C219.98 644.155 216.669 625.969 212.98 607.967C209.86 592.745 210.554 578.487 209.227 563.451Z" fill="#B9FBC0"/>
<path d="M677.561 541.288C684.772 552.598 690.644 560.304 699.393 570.294C689.976 580.149 681.266 585.049 667.917 587.662C665.585 588.118 658.269 589.243 656.543 589.795C650.705 579.089 646.404 571.166 638.684 561.661C638.116 543.136 636.281 525.836 632.227 507.717C641.566 515.843 666.349 539.07 677.561 541.288Z" fill="#8EECF5"/>
<path d="M711.475 575.587C703.026 571.362 687.717 551.493 682.075 543.023C681.781 542.786 680.811 540.265 681.022 539.969C684.473 535.127 687.181 531.293 688.711 525.464L688.88 524.8C704.749 538.288 714.024 550.929 718.997 570.957C717.03 575.503 716.502 576.338 711.475 575.587Z" fill="#8EECF5"/>
<path d="M313.3 574.062C290.185 572.883 328.939 532.679 334.917 526.845C336.802 528.661 335.848 531.267 342.519 536.256C335.961 546.276 324.467 570.84 313.3 574.062Z" fill="#B9FBC0"/>
<path d="M651.864 586.648C646.971 587.871 643.444 587.52 638.422 587.141C638.676 579.807 638.863 572.795 638.868 565.459C643.929 572.697 647.559 578.984 651.864 586.648Z" fill="#8EECF5"/>
<path d="M721.308 567.379C746.792 563.669 786.793 568.956 807.365 585.064C820.848 595.623 829.529 608.82 838.293 623.068C835.164 636.767 826.826 658.118 820.966 670.759C792.932 731.23 752.318 780.006 695.197 814.716C669.642 830.244 646.102 843.508 617.106 852.419C611.72 854.075 604.719 856.513 599.245 857.479C549.73 831.408 504.032 782.915 472.539 737.12C570.14 766.084 621.945 693.049 635.984 607.238C639.87 615.968 643.629 622.256 648.001 630.39C652.939 639.578 655.3 653.578 659.488 663.413C661.264 667.582 663.99 672.504 665.231 676.85C667.338 708.653 664.785 743.724 651.878 773.247C648.465 781.054 644.775 787.518 642.042 795.611L642.838 796.009C645.437 794.948 647.869 791.061 649.567 788.766C659.929 774.761 667.628 758.395 673.464 742.018C679.297 724.762 684.782 705.019 684.531 686.682C684.357 674.048 684.146 658.433 680.406 646.377C677.245 636.186 671.18 627.447 666.637 617.946C664.886 614.285 664.245 608.911 662.743 605.054C660.827 599.168 659.163 595.336 656.537 589.795C658.263 589.243 665.579 588.118 667.911 587.662C681.26 585.049 689.97 580.149 699.387 570.294C702.556 573.568 705.46 575.964 709.122 578.627C712.695 591.116 715.41 604.393 717.761 617.186C722.093 640.752 727.66 663.295 751.745 673.926C747.627 666.843 742.193 661.303 739.691 653.075C732.463 629.316 733.238 603.544 725.082 579.992C723.729 576.085 721.311 571.466 721.308 567.379Z" fill="#CFBAF0"/>
<path d="M367.764 624.873C354.151 616.591 380.285 578.376 386.788 569.356C387.204 571.619 387.138 576.42 387.294 578.914C387.841 587.653 387.626 598.628 389.244 607.152C383.861 615.878 381.34 630.134 367.764 624.873Z" fill="#B9FBC0"/>
<path d="M278.68 668.319C295.302 650.523 290.105 627.012 294.212 604.276C296.723 590.377 297.859 585.333 304.123 572.797C306.676 575.712 307.709 576.432 311.262 577.94C292.367 604.657 309.106 637.109 283.917 664.75C282.162 666.266 280.642 667.114 278.68 668.319Z" fill="#B9FBC0"/>
<path d="M566.319 892.564C543.685 909.458 508.654 918.187 480.751 918.332C397.379 918.767 312.397 867.964 254.656 810.931C212.096 768.893 176.086 715.336 175.726 653.462C175.58 628.433 179.917 604.164 193.478 582.654C195.33 579.715 197.148 576.185 199.581 573.721L200.407 573.957C200.571 583.922 202.565 597.61 203.928 607.52C213.061 673.898 248.07 738.639 296.428 785.013C360.997 846.936 447.255 875.455 535.861 875.088C544.813 881.04 557.734 886.181 566.319 892.564Z" fill="#B9FBC0"/>
<path d="M712.555 579.037C716.981 578.869 717.322 579.153 720.33 575.909C725.768 581.172 731.91 637.245 734.937 647.668C737.055 654.958 737.251 656.501 741.357 663.886C739.474 662.105 738.06 660.484 736.347 658.558C724.89 644.547 723.207 627.291 719.837 610.256C717.757 599.741 715.703 589.285 712.555 579.037Z" fill="#CFBAF0"/>
<path d="M638.429 587.141C643.451 587.52 646.978 587.871 651.871 586.648C654.783 592.498 665.579 615.683 661.957 620.633C649.203 638.059 639.919 607.987 636.844 602.528L638.429 587.141Z" fill="#CFBAF0"/>
<path d="M411.203 602.344L412.292 600.522C413.193 604.938 415.239 615.922 416.822 619.751L416.055 620.459C414.33 614.493 412.747 608.362 411.203 602.344Z" fill="#120C11"/>
<path d="M610.188 600.866L611.371 602.883C609.313 612.179 607.474 619.506 604.562 628.594L603.766 627.99C606.51 618.376 608.371 610.693 610.188 600.866Z" fill="#120C11"/>
<path d="M384.945 621.526C386.43 618.752 387.959 615.764 389.497 613.043C391.788 623.511 393.053 631.861 396.276 642.453C405.997 674.397 423.51 707.366 451.93 726.218C458.659 730.682 466.121 733.331 472.539 737.12C504.032 782.915 549.73 831.408 599.245 857.479C575.465 863.974 547.323 866.832 522.732 866.108C521.33 864.786 512.61 858.797 510.454 857.215C502.764 851.572 496.007 846.128 488.799 839.973C457.739 813.455 433.064 786.437 413.897 750.097C402.774 729.009 395.861 712.939 391.051 689.18C387.906 674.158 386.426 659.021 385.476 643.73C385.204 639.345 386.323 624.708 384.945 621.526Z" fill="#98F5E1"/>
<path d="M416.822 619.751C417.671 622.544 418.843 625.726 418.989 628.577C417.752 626.424 416.692 622.908 416.055 620.459L416.822 619.751Z" fill="#8F778F"/>
<path d="M355.954 674.288C340.171 676.241 342.208 665.59 345.515 654.246C349.104 641.937 354.48 631.228 360.376 619.903C361.059 620.629 361.801 623.767 364.043 626.085C366.881 629.019 369.158 628.867 373.119 629.204C371.448 640.88 366.424 668.156 355.954 674.288Z" fill="#B9FBC0"/>
<path d="M650.086 627.973C658.012 628.771 659.905 627.539 665.449 621.983C666.993 623.674 669.472 628.843 670.526 631.033C676.41 643.27 681.194 654.558 680.464 668.363C678.073 672.657 672.717 678.76 667.774 674.198C660.745 658.325 657.418 643.762 650.086 627.973Z" fill="#CFBAF0"/>
<path d="M604.564 628.594C603.147 632.792 602.321 634.974 600.391 638.935C600.898 636.197 602.8 630.702 603.768 627.99L604.564 628.594Z" fill="#5D4761"/>
<path d="M843.517 633.441C844.685 638.683 846.366 645.377 846.687 650.632C849.885 703.086 842.933 760.739 814.241 805.932C793.049 839.313 758.086 863.538 719.49 872.008C684.426 879.492 643.332 877.111 609.797 864.102C628.044 858.245 651.026 850.161 668.06 841.018C702.262 822.66 736.429 799.994 763.074 771.578C772.868 761.132 782.087 748.859 790.714 737.484C809.316 712.955 825.337 684.666 836.258 655.898C838.817 649.157 841.329 640.471 843.517 633.441Z" fill="#CFBAF0"/>
<path d="M475.405 713.652L474.706 714.703C449.999 705.309 431.909 684.052 426.203 658.278C438.05 685.476 448.762 699.851 475.405 713.652Z" fill="url(#paint2_linear_41_1925)"/>
<path d="M536.023 718.548L536.088 718.12C568.699 707.972 582.435 694.373 597.77 664.382C598.074 667.476 589.314 683.212 587.325 686.299C575.526 704.61 556.949 714.291 536.023 718.548Z" fill="#433641"/>
<path d="M668.409 677.907C675.018 679.136 677.211 678.163 681.357 672.86C682.23 677.087 681.951 684.913 681.682 689.39C679.822 720.274 668.618 751.953 652.984 778.479C653.114 776.417 657.555 766.729 658.604 763.76C668.227 736.523 669.638 706.369 668.409 677.907Z" fill="#CFBAF0"/>
<path d="M356.456 720.012C354.027 719.996 349.874 719.927 348.571 717.481C343.223 707.441 342.567 686.695 344.348 676.127C349.408 677.951 351.21 677.678 356.489 677.442C356.671 687.486 358.4 711.886 356.456 720.012Z" fill="#B9FBC0"/>
<path d="M474.703 714.703L475.402 713.652C480.68 715.596 484.778 717.62 490.316 717.599L490.972 718.319C487.711 719.247 478.077 715.909 474.703 714.703Z" fill="#433641"/>
<path d="M346.653 719.738L346.948 719.313C347.722 720.435 348.46 720.558 349.674 721.173L349.036 721.407C348.481 737.028 367.285 774.97 377.815 787.235L378.325 787.13L378.278 786.205L378.79 786C379.823 788.07 378.638 792.183 382.136 792.278C382.675 790.816 381.148 788.626 380.405 787.115L380.724 786.44C382.257 788.764 384.551 791.489 384.139 794.143L383.3 794.453C367.996 787.028 345.375 736.149 346.653 719.738Z" fill="#46463A"/>
<path d="M349.035 721.407C351.32 722.758 353.627 722.93 356.275 723.395C359.473 739.052 368.181 773.644 378.277 786.205L378.324 787.13L377.814 787.235C367.284 774.97 348.48 737.028 349.035 721.407Z" fill="#B9FBC0"/>
<path d="M535.859 875.088C556.839 875.118 577.643 871.8 597.881 866.513C596.111 872.155 571.487 888.106 566.317 892.564C557.732 886.181 544.811 881.04 535.859 875.088Z" fill="#98F5E1"/>
<defs>
<linearGradient id="paint0_linear_41_1925" x1="315.355" y1="261.956" x2="723.747" y2="724.087" gradientUnits="userSpaceOnUse">
<stop stop-color="#42422E"/>
<stop offset="1" stop-color="#504951"/>
</linearGradient>
<linearGradient id="paint1_linear_41_1925" x1="544.145" y1="731.015" x2="473.943" y2="373.927" gradientUnits="userSpaceOnUse">
<stop stop-color="#FEDCFE"/>
<stop offset="1" stop-color="#FEEFFD"/>
</linearGradient>
<linearGradient id="paint2_linear_41_1925" x1="452.129" y1="686.821" x2="444.557" y2="693.312" gradientUnits="userSpaceOnUse">
<stop stop-color="#3C2A33"/>
<stop offset="1" stop-color="#4E444B"/>
</linearGradient>
</defs>
</svg>
