<svg width="1024" height="1024" viewBox="0 0 1024 1024" fill="none" xmlns="http://www.w3.org/2000/svg">
<path d="M379.253 153.403C349.505 154.004 324.934 130.316 324.445 100.567C323.956 70.8178 347.735 46.3351 377.486 45.9575C407.08 45.5819 431.405 69.2084 431.891 98.8003C432.378 128.392 408.842 152.806 379.253 153.403Z" fill="#E6DFD5"/>
<path d="M251.783 218.207C246.075 223.399 239.231 227.181 231.799 229.252C207.655 235.978 182.3 223.56 172.811 200.363C163.322 177.166 172.706 150.538 194.642 138.415C216.578 126.292 244.116 132.515 258.708 152.892C273.301 173.269 270.324 201.344 251.783 218.207Z" fill="#E6DFD5"/>
<path d="M450.898 200.526C452.456 198.336 470.292 189.8 474.516 187.144C477.499 184.522 487.9 181.194 492.203 179.502C569.41 149.129 656.258 157.343 729.78 194.047C733.397 195.853 742.978 200.407 745.68 203.047L745.87 203.74C693.087 186.869 640.694 180.494 588.277 203.069L587.436 204.216C537.996 191.22 500.515 191.997 450.898 200.526Z" fill="#FFCFD2"/>
<path d="M474.517 187.144C470.293 189.8 452.457 198.336 450.899 200.526C437.905 203.321 422.989 206.599 410.464 211.276C348.3 234.486 290.259 278.946 254.059 334.808C253.034 336.389 248.693 343.473 247.836 344.455C242.436 344.411 234.772 349.937 230.034 352.574C198.561 370.091 168.722 390.587 142.978 415.955C121.519 437.101 101.806 464.766 92.4235 493.603C87.0975 509.972 84.8573 527.061 84.7361 544.242C84.6283 559.526 86.686 574.475 89.7105 589.43C91.9053 600.281 94.3822 611.132 97.8636 621.652C109.516 656.862 129.94 689.786 152.57 718.907C161.045 729.812 169.84 740.988 179.605 750.77C207.822 779.037 244.745 805.652 281.12 821.995C289.653 825.829 298.555 828.854 307.333 832.074C337.165 843.012 354.311 848.208 386.729 848.114C394.217 848.092 433.095 848.097 436.843 844.345C436.949 844.238 437.035 844.113 437.131 843.998C445.614 846.395 455.558 852.24 463.793 854.9C469.247 858.245 489.274 865.296 495.6 866.667L496.245 867.518C484.753 870.929 471.401 873.107 459.551 874.839C396.628 884.04 337.417 876.996 278.3 853.281C195.017 819.87 126.896 752.19 90.7378 670.362C66.0375 615.314 59.0671 558.804 65.2221 499.129C69.4373 458.261 77.629 432.671 92.6451 394.598C113.563 345.665 148.735 296.153 189.349 261.71C201.219 251.5 219.022 238.524 231.798 229.251C239.23 227.18 246.074 223.398 251.782 218.206C268.646 211.315 285.896 202.994 303.244 197.43C349.889 182.469 402.166 176.354 450.857 182.943C455.483 183.569 470.825 185.284 474.517 187.144Z" fill="#B9FBC0"/>
<path d="M587.438 204.216L588.279 203.069C640.696 180.494 693.089 186.869 745.872 203.74C760.387 210.299 789.353 218.849 798.727 233.032C798.344 234.426 798.138 234.235 796.896 235.387C774.185 222.289 761.429 215.027 736.302 206.659L736.901 207.125C744.516 212.985 754.479 217.396 762.674 222.75C807.493 252.03 845.63 294.742 870.573 342.019C887.734 374.547 897.945 413.882 903.645 449.985C906.625 470.179 905.378 489.308 904.565 509.546C903.859 527.107 902.94 546.622 900.273 563.949C890.879 624.974 869.343 690.63 831.213 739.809C811.668 765.017 787.334 791.593 754.089 795.453C751.656 795.736 749.297 796.082 746.862 796.193C728.371 795.645 712.134 794.038 694.732 786.747C689.061 783.982 684.394 781.668 679.049 778.296L682.442 775.996C688.467 779.401 694.014 782.387 700.5 784.96C714.044 789.23 743.523 794.567 756.421 788.816C769.212 787.243 785.658 778.473 795.083 769.684C805.48 759.785 817.148 749.356 825.664 737.677C862.437 687.251 885.646 627.126 894.029 565.429C897.837 537.407 897.898 511.271 899.544 483.638C898.269 487.272 897.227 491.295 896.07 494.99C888.718 518.461 879.471 541.018 868.392 562.962C863.864 571.931 858.137 579.904 853.195 588.583C848.079 595.47 843.638 603.011 838.736 610.079C829.37 623.584 819.911 636.418 809.356 649.004C803.957 652.808 787.254 672.435 782.094 672.397L785.122 667.038C793.651 664.552 815.203 636.408 821.054 627.962C830.52 615.948 847.949 590.57 854.023 577.024C857.694 572.291 864.319 557.797 867.281 551.806C875.65 534.877 883.199 515.947 888.786 497.921C892.088 487.267 896.885 467.782 897.112 456.715C897.676 429.306 887.62 401.612 878.918 376.167C872.994 358.842 867.788 350.481 859.502 335.233C838.877 297.277 807.201 262.592 772.215 237.33C764.951 231.95 757.851 226.488 750.039 221.885C737.625 214.57 724.318 208.492 711.562 201.766C707.776 199.77 697.71 198.158 693.076 197.283C663.329 191.67 632.509 194.987 603.745 203.872C599.963 205.037 597.033 204.594 593.453 205.932L587.438 204.216Z" fill="#E6DFD5"/>
<path d="M247.838 344.455C248.695 343.473 253.036 336.389 254.061 334.808C290.261 278.946 348.302 234.486 410.466 211.276C422.991 206.599 437.907 203.321 450.901 200.526C500.518 191.997 537.999 191.22 587.439 204.216L593.454 205.932C602.81 208.842 611.406 212.478 620.526 215.931C675.642 236.801 721.843 270.339 757.459 317.359C777.5 343.817 788.169 363.627 800.728 393.869C802.174 399.309 805.586 407.175 807.746 412.643C812.284 427.019 817.026 441.479 819.673 456.488C830.22 516.303 824.352 577.574 801.501 633.957C797.275 644.385 790.345 656.97 785.123 667.038L782.096 672.397L781.522 673.171C774.922 682.144 769.377 692.583 762.213 701.864C738.194 732.984 713.583 753.25 682.443 775.996L679.051 778.296C668.812 784.413 660.26 789.821 649.452 795.275C639.29 800.402 630.439 803.419 620.158 807.736C604.652 812.342 589.299 818.049 573.247 820.799C564.841 822.239 556.239 823.36 547.796 824.595C544.799 825.033 537.394 825.181 535.032 825.844C528.339 826.283 522.47 826.504 515.762 826.586C493.637 826.555 476.083 823.797 454.656 819.677C449.162 818.367 444.057 817.023 438.617 815.504C424.092 810.792 411.582 805.57 397.793 799.142C392.706 796.771 387.02 794.822 382.001 792.335C382.21 791.49 382.105 791.842 381.665 790.744C380.407 790.206 380.082 790.243 379.271 789.201C377.941 786.657 362.446 776.702 358.937 774.37C351.905 769.017 345.646 763.688 339.046 757.796C300.79 717.537 279.68 680.76 266.339 627.12L265.448 623.258C262.502 610.704 260.548 592.343 260.647 579.462C260.692 573.635 261.848 565.011 262.113 558.504C260.29 565.237 257.872 572.153 256.312 578.911C253.056 593.008 251.547 608.902 251.404 623.363L251.4 623.872C249.85 637.449 252.949 671.257 258.117 683.796C261.898 697.881 296.69 734.048 308.565 744.532C316.693 751.707 330.399 762.082 339.523 768.532L339.335 770.518C250.309 713.887 199.901 607.698 201.518 503.471C202.049 469.225 209.594 432.011 220.316 399.467C221.999 396.037 223.316 393.044 224.791 389.515C230.86 375.368 235.837 366.575 242.721 353.024C243.975 351.282 246.62 346.507 247.838 344.455ZM575.017 204.674C475.464 184.287 364.981 211.289 301.714 294.836C299.405 297.798 296.548 301.281 294.527 304.361C292.605 306.193 280.817 326.115 278.985 329.435C256.896 369.467 244.088 413.467 244.44 459.408C244.512 468.846 244.315 479.905 246.873 488.979C266.553 498.714 263.877 486.927 266.692 473.875C284.506 391.28 334.079 319.797 397.449 265.245C399.708 263.636 401.58 262.022 403.691 260.241C406.776 258.659 416.859 250.154 421.12 247.404C463.351 220.15 522.025 196.709 573.04 205.664C576.643 206.348 581.563 207.437 585.115 207.628C583.31 206.466 577.295 205.095 575.017 204.674ZM647.647 232.051C629.28 222.053 619.022 219.418 599.622 214.173C562.889 204.242 532.528 204.062 495.777 215.35C476.025 221.417 451.206 232.165 433.598 243.109C430.198 245.1 427.054 246.985 423.744 249.119C420.498 251.193 416.67 253.502 413.647 255.802C410.856 257.737 408.053 259.595 405.459 261.787C388.842 274.602 375.309 288.115 361.225 303.535C323.919 344.381 296.212 389.178 278.176 441.628C271.965 459.688 270.662 472.117 266.706 489.735C283.751 480.488 314.741 447.088 331.596 432.558C403.663 370.427 484.652 340.388 579.146 335.386L580.46 337C580.187 337.071 579.914 337.141 579.641 337.211C560.911 338.576 543.151 340.495 524.625 343.658C457.673 355.091 395.525 384.265 342.509 426.521C329.035 437.243 313.728 452.434 300.915 464.268C286.711 477.388 283.488 482.853 266.661 493.057C264.444 503.743 264.187 514.822 263.823 525.698C262.299 529.779 263 549.027 265.397 551.759C266.683 574.398 291.801 603.758 308.038 619.124C309.498 620.499 310.98 621.936 312.493 623.244C322.223 632.282 332.16 639.264 342.801 647.147C389.45 681.705 441.373 704.608 498.382 715.991C503.329 716.843 514.849 718.024 518.907 719.331L523.142 719.74C548.387 723.025 573.582 725.405 599.051 725.089C606.687 724.995 619.261 724.931 626.822 723.979L629.457 723.908C633.142 723.351 649.079 721.462 651.898 721.549L653.292 721.008C682.28 716.97 730.051 706.89 754.898 690.77C758.688 689.079 763.702 685.739 767.18 683.445L770.097 681.565C778.829 673.571 796.855 636.241 801.376 623.407C797.004 624.842 788.012 628.182 783.841 627.906L784.164 627.32L785.655 625.779C790.726 624.479 798.662 622.267 802.826 619.351C804.015 616.476 804.978 613.642 805.907 610.68C822.558 557.42 825.686 500.568 813.359 446.059C808.504 424.59 808.263 420.44 790.59 405.606C788.814 403.451 786.712 401.859 784.56 400.094C780.658 396.587 776.078 393.515 772.113 390.27C752.441 374.168 736.748 368.012 713.28 359.898L698.811 355.009L698.461 352.089C701.971 352.977 705.637 354.259 709.098 355.396C727.389 361.293 741.14 366.304 757.602 376.696C763.761 380.584 772.732 387.748 778.026 390.818L792.227 402.784C794.557 405.849 801.681 412.157 804.981 415.846C802.189 407.137 798.136 396.382 794.264 388.097C787.466 369.637 771.082 340.405 758.694 324.932C757.517 323.161 755.83 321.022 754.535 319.277C740.317 300.327 716.337 274.681 696.313 261.823C692.443 258.578 685.564 253.864 681.298 250.741L670.901 244.125L667.854 242.595L658.859 238.027C655.203 235.959 651.373 234.005 647.647 232.051ZM277.96 308.047C275.109 311.637 271.863 315.545 269.153 319.194C265.304 324.19 255.898 336.592 253.183 342.079C242.654 353.593 226.141 392.561 220.682 407.824C214.01 426.476 232.99 467.33 242.582 484.95C238.048 418.777 252.287 365.165 288.355 309.141C298.861 293.843 310.77 277.542 324.458 264.916C326.335 263.185 328.301 261.733 329.957 259.763C315.103 268.297 289.056 294.595 277.96 308.047ZM303.117 617.894C288.739 603.392 280.194 594.049 270.003 575.909C272.293 587.617 279.599 611.987 285.041 622.497C285.848 624.199 286.809 626.395 287.674 628.015C315.521 682.257 360.667 729.658 413.403 760.433C449.622 783.663 501.334 801.312 543.108 810.515C549.769 811.881 577.482 816.029 582.951 815.096C611.593 810.211 651.938 790.668 675.458 776.115L677.339 774.893C716.333 747.102 742.704 725.166 769.838 684.415C762.775 689.792 759.528 691.029 752.454 695.2L747.396 697.648C717.671 710.66 685.445 720.317 653.085 723.652L648.679 724.421L631.603 726.527L630.647 726.374C595.088 728.874 556.312 726.66 521.023 721.928C519.602 721.746 518.043 721.63 516.604 721.497C510.195 720.635 503.831 719.448 497.463 718.32C439.973 706.791 389.054 684.403 342.128 649.483C329.904 640.387 320.205 633.668 308.623 623.34L303.117 617.894ZM248.357 620.244C249.416 593.174 252.467 579.072 261.047 553.844C250.146 553.271 241.464 552.45 232.032 546.15C216.839 536.002 209.867 521.213 204.078 504.46C205.1 545.921 209.632 582.402 225.033 621.477L225.892 623.705C230.439 637.722 245.08 664.996 253.206 677.492C248.226 654.526 248.295 643.744 248.357 620.244ZM281.601 622.282C275.368 606.96 265.943 581.591 265.145 565.075C260.633 585.019 266.009 604.99 268.649 624.379L269.577 628.138C273.641 643.325 278.715 659.07 284.98 673.524C299.161 706.24 328.87 749.572 358.584 770.202C359.161 770.699 359.739 771.204 360.345 771.666C409.553 809.237 472.227 826.581 533.789 822.377C546.982 821.476 559.095 819.097 572.065 817.485C532.367 814.114 495.073 801.814 458.622 786.236C439.315 777.985 425.355 770.447 407.277 759.661C357.198 727.401 309.955 681.746 283.907 627.521L281.601 622.282ZM216.02 422.3C211.286 441.27 207.488 460.991 205.594 480.503C205.163 484.941 204.24 492.122 205.125 496.36C210.422 521.731 225.121 545.447 251.887 550.43C255.061 550.813 258.563 551.696 261.164 549.909C265.195 542.435 252.634 515.809 249.578 507.932C247.45 502.447 245.774 496.579 244.209 490.873C234.16 481.615 223.963 452.675 219.509 439.091C218.312 435.44 217.139 425.169 216.02 422.3ZM247.749 492.893C248.827 497.42 257.406 522.794 260.237 525.879C260.438 524.994 260.525 524.998 260.478 524.12C261.239 513.903 261.924 504.601 263.265 494.434C256.899 495.467 253.856 494.693 247.749 492.893Z" fill="url(#paint0_linear_2264_28541)"/>
<path d="M593.453 205.933C597.033 204.595 599.964 205.038 603.746 203.873C632.51 194.988 663.329 191.671 693.076 197.284C697.71 198.159 707.776 199.771 711.563 201.767C724.319 208.493 737.625 214.571 750.039 221.886C757.851 226.489 764.951 231.951 772.215 237.331C807.201 262.593 838.877 297.278 859.502 335.234C867.788 350.482 872.994 358.843 878.918 376.168C887.62 401.613 897.676 429.307 897.112 456.716C896.885 467.783 892.089 487.268 888.787 497.922C883.2 515.948 875.651 534.878 867.282 551.807C864.32 557.798 857.694 572.292 854.023 577.025C854.018 525.153 846.547 469.982 820.152 424.355C815.859 416.14 807.7 399.492 800.727 393.87C788.168 363.628 777.499 343.818 757.458 317.36C721.842 270.34 675.641 236.802 620.525 215.932C611.405 212.479 602.809 208.843 593.453 205.933Z" fill="#FFCFD2"/>
<path d="M301.715 294.835C364.982 211.288 475.465 184.286 575.018 204.673L573.041 205.663C522.026 196.708 463.352 220.149 421.121 247.403C416.86 250.153 406.777 258.658 403.692 260.24C391.038 255.297 330.105 277.964 316.831 285.837C312.456 288.433 306.897 293.66 301.715 294.835Z" fill="#FBF8CC"/>
<path d="M575.016 204.676C577.294 205.097 583.309 206.468 585.114 207.63C581.562 207.439 576.642 206.35 573.039 205.666L575.016 204.676Z" fill="#B3A7B0"/>
<path d="M647.647 232.052C646.965 235.437 649.784 242.519 652.068 244.639C659.27 256.973 663.691 266.355 670.216 278.608C671.05 280.882 671.919 283.181 672.699 285.471C661.483 280.523 649.756 273.801 638.431 268.417C580.675 240.959 516.42 231.566 453.182 240.746C448.677 241.4 437.611 243.609 433.598 243.11C451.206 232.166 476.025 221.418 495.777 215.351C532.528 204.063 562.889 204.243 599.622 214.174C619.022 219.419 629.28 222.054 647.647 232.052Z" fill="#FBF8CC"/>
<path d="M736.304 206.66C761.431 215.028 774.188 222.29 796.899 235.388C798.685 236.971 816.206 250.783 817.887 251.755C828.69 260.788 835.732 269.135 845.116 279.356C857.598 292.951 865.067 303.892 874.489 319.653C899.938 362.227 914.683 410.096 918.76 459.483C926.324 546.782 909.441 637.843 864.977 713.933C853.474 732.261 839.442 751.484 825.23 767.79C799.081 797.789 762.415 823.916 727.341 842.509C709.378 852.031 681.613 863.013 662.284 868.757L638.485 875.776C636.602 876.324 627.109 878.513 626.708 880.071L624.937 881.02C625.197 881.572 625.013 881.419 625.339 881.615C617.877 882.863 609.72 882.945 602.234 883.146C573.369 883.922 544.255 880.331 516.285 873.242C511.42 872.009 501.128 870.121 497.301 867.455C503.905 865.973 515.473 866.406 522.465 866.451C573.831 866.781 625.987 862.248 673.719 841.866C690.37 834.755 706.134 825.54 721.76 816.454C725.522 814.265 746.136 798.981 746.864 796.194C749.299 796.083 751.658 795.737 754.091 795.454C787.337 791.594 811.67 765.018 831.215 739.81C869.345 690.631 890.882 624.975 900.276 563.95C902.943 546.623 903.862 527.108 904.568 509.547C905.381 489.309 906.627 470.18 903.647 449.986C897.947 413.883 887.736 374.548 870.575 342.02C845.632 294.743 807.495 252.031 762.676 222.751C754.481 217.397 744.518 212.986 736.903 207.126L736.304 206.66Z" fill="#FFCFD2"/>
<path d="M652.068 244.638C649.784 242.518 646.965 235.436 647.647 232.051C651.373 234.005 655.203 235.959 658.859 238.027C656.906 239.6 657.246 238.91 656.378 241.018C656.633 243.031 657.511 243.751 658.832 245.419C656.299 247.121 656.826 243.469 652.068 244.638Z" fill="#E9F8EC"/>
<path d="M423.742 249.121C427.052 246.987 430.196 245.102 433.596 243.111C437.609 243.61 448.675 241.401 453.18 240.747C516.418 231.567 580.673 240.96 638.429 268.418C649.754 273.802 661.481 280.524 672.697 285.472C674.461 286.641 676.155 287.788 677.985 288.859C680.045 290.376 681.394 291.207 683.615 292.491L688.635 297.117C685.779 286.905 682.73 276.719 678.799 266.863C676.387 260.817 667.8 247.976 667.852 242.597L670.899 244.127C672.956 248.275 673.928 249.757 674.48 254.495L674.983 255.006C677.323 257.337 678.081 257.72 680.827 259.421C682.185 260.262 681.752 262.554 683.824 264.039C686.353 268.167 690.673 284.033 691.78 289.092C692.79 292.566 693.251 296.046 693.821 299.617C717.002 314.449 738.561 335.12 757.739 354.735C759.191 356.219 762.022 359.551 763.517 360.623C771.008 370.868 790.074 391.383 792.225 402.786L778.024 390.82C775.299 384.846 770.099 378.226 766.146 372.985C749.444 350.836 728.668 333.408 707.681 315.463C703.665 312.077 700.005 308.925 695.272 306.612L696.57 313.412C696.5 314.843 698.66 340.45 698.966 341.627L698.459 352.091L698.809 355.011C702.472 408.552 687.131 470.08 666.403 519.053C659.484 535.399 649.252 554.201 641.021 570.215L636.78 568.218C638.396 564.262 642.477 557.367 644.57 553.132C649.867 542.419 655.093 531.875 659.94 520.949C683.684 467.418 694.156 419.728 693.967 361.337C693.992 358.568 694.05 356.176 694.224 353.402C693.975 351.227 694.223 351.372 693.007 350.38C691.788 347.962 691.724 348.768 692.39 346.549C693.884 341.572 692.981 334.442 692.405 329.41C692.082 324.923 691.784 320.087 691.252 315.645C690.967 312.166 690.182 307.786 689.644 304.259C686.669 301.583 681.561 297.998 678.117 295.926C671.739 290.927 657.768 284.193 650.362 280.214C601.167 253.78 543.046 239.796 487.184 242.038C472.308 243.127 457.491 245.038 442.717 247.063C439.37 247.522 435.691 248.932 432.357 249.586C428.531 250.337 426.875 251.832 423.742 249.121Z" fill="#E6DFD5"/>
<path d="M658.86 238.027L667.855 242.595C667.803 247.974 676.39 260.815 678.802 266.861C682.733 276.717 685.782 286.903 688.638 297.115L683.618 292.489C682.747 288.724 680.833 285.057 679.242 281.48C677.657 275.634 673.215 266.599 669.398 261.866C667.206 258.418 664.763 255.061 662.58 251.623C661.169 249.4 660.495 247.56 658.833 245.419C657.512 243.751 656.634 243.031 656.379 241.018C657.247 238.91 656.907 239.6 658.86 238.027Z" fill="#98F5E1"/>
<path d="M413.645 255.8C416.668 253.5 420.496 251.191 423.742 249.117C426.875 251.828 428.531 250.333 432.357 249.582C435.691 248.928 439.37 247.518 442.717 247.059C457.491 245.034 472.308 243.123 487.184 242.034C543.046 239.792 601.167 253.776 650.362 280.21C657.768 284.189 671.739 290.923 678.117 295.922C678.416 297.848 683.379 306.538 684.752 309.319C685.101 313.296 690.028 326.272 692.405 329.406C692.981 334.438 693.884 341.568 692.39 346.545C691.724 348.764 691.788 347.958 693.007 350.376C682.242 345.623 676.133 344.839 665.323 342.19C637.31 335.323 612.874 334.81 584.048 335.135C583.756 332.484 580.521 326.481 579.271 323.875C554.901 273.048 501.321 258.326 449.394 256.076C443.02 255.8 417.93 257.326 413.645 255.8Z" fill="#FBF8CC"/>
<path d="M652.066 244.638C656.824 243.469 656.297 247.121 658.83 245.419C660.492 247.56 661.166 249.4 662.577 251.623C664.76 255.061 667.203 258.418 669.395 261.866C669.288 262.168 669.181 262.47 669.074 262.773C668.958 262.912 668.842 263.052 668.726 263.191C667.027 265.949 668.405 271.691 669.109 274.648C669.424 275.974 669.819 277.385 670.214 278.607C663.689 266.354 659.268 256.972 652.066 244.638Z" fill="#D6FCEB"/>
<path d="M670.898 244.125L681.295 250.741C680.518 251.708 679.563 252.469 679.952 253.754C681.173 257.793 682.711 259.763 683.823 264.037C681.751 262.552 682.184 260.26 680.826 259.419C678.08 257.718 677.322 257.335 674.982 255.004L674.479 254.493C673.927 249.755 672.955 248.273 670.898 244.125Z" fill="#FBF8CC"/>
<path d="M817.886 251.754C820.185 250.598 821.475 250.061 823.499 248.426C835.675 260.27 848.456 272.115 858.703 285.695C859.922 287.311 865.807 295.636 866.626 296.046L866.984 296.699C870.233 302.566 874.539 307.894 877.861 313.455C967.027 462.717 931.461 696.145 794.394 805.884C775.803 820.768 757.441 833.895 736.188 845.222C702.071 863.405 665.791 877.287 626.707 880.07C627.108 878.512 636.601 876.323 638.484 875.775L662.283 868.756C681.612 863.012 709.377 852.03 727.34 842.508C762.414 823.915 799.08 797.788 825.229 767.789C839.441 751.483 853.473 732.26 864.976 713.932C909.44 637.842 926.323 546.781 918.759 459.482C914.682 410.095 899.937 362.226 874.488 319.652C865.066 303.891 857.597 292.95 845.115 279.355C835.731 269.134 828.689 260.787 817.886 251.754Z" fill="#E6DFD5"/>
<path d="M681.296 250.742C685.562 253.865 692.441 258.579 696.311 261.824C693.762 262.944 693.808 261.461 690.931 260.714C692.037 261.819 693.147 262.669 693.629 264.113L693.578 264.558C691.844 263.15 689.614 260.143 687.919 259.41L687.23 259.918C687.783 264.427 697.087 269.163 699.686 274.544C697.579 275.828 698.438 275.173 697.954 277.611C697.284 280.988 695.741 284.605 694.197 287.682C693.386 288.149 692.581 288.608 691.78 289.091C690.673 284.032 686.353 268.166 683.824 264.038C682.712 259.764 681.174 257.794 679.953 253.755C679.564 252.47 680.519 251.709 681.296 250.742Z" fill="#8EECF5"/>
<path d="M189.349 261.709C148.735 296.152 113.563 345.664 92.645 394.597C83.6872 388.85 74.4458 371.352 71.4562 361.393C50.0798 290.182 121.718 226.046 189.349 261.709Z" fill="#E6DFD5"/>
<path d="M405.456 261.786C408.05 259.594 410.853 257.736 413.644 255.801C417.929 257.327 443.019 255.801 449.393 256.077C501.32 258.327 554.9 273.049 579.27 323.876C580.52 326.482 583.755 332.485 584.047 335.136L585.226 337.688C587.792 347.136 591.312 358.781 592.115 368.528C596.743 424.672 573.415 485.587 531.075 523.048C529.442 524.494 526.308 527.396 524.468 528.162C523.346 528.871 522.748 529.107 521.876 530.082C518.532 535.201 510.031 541.369 504.807 545.205C489.735 556.273 471.615 565.989 454.75 574.099C445.639 578.48 433.729 584.714 424.547 588.52C392.112 601.965 357.756 613.489 323.37 620.78C321.563 621.163 318.214 621.69 316.603 622.297C315.118 622.592 313.936 622.773 312.49 623.243C310.977 621.935 309.495 620.498 308.035 619.123C309.377 617.767 319.034 616.11 321.616 615.63C358.583 608.757 394.082 595.726 428.672 581.261C435.365 578.463 441.951 574.465 448.59 571.456C468.48 562.611 487.028 551.551 504.98 539.294C507.913 537.292 515.049 530.062 518.042 529.386C520.349 529.653 520.447 529.463 521.345 527.565C522.003 524.892 531.778 516.625 534.36 513.963C563.482 483.944 582.991 443.982 587.174 402.307C589.855 375.59 587.151 362.03 580.457 336.999L579.143 335.385C578.072 333.543 576.147 328.96 575.234 326.906C550.737 271.763 484.002 259.063 429.82 260.833C425.157 260.985 408.359 263.31 405.456 261.786Z" fill="#E6DFD5"/>
<path d="M277.957 308.046C289.053 294.594 315.1 268.296 329.954 259.762C328.298 261.732 326.332 263.184 324.455 264.915C310.767 277.541 298.858 293.842 288.352 309.14L287.617 307.553L287.144 307.403C284.189 309.806 277.989 315.083 275.023 316.897C275.96 313.318 277.795 312.124 278.694 309.048L277.957 308.046Z" fill="#E9F8EC"/>
<path d="M301.714 294.836C306.896 293.661 312.455 288.434 316.83 285.838C330.104 277.965 391.037 255.298 403.691 260.241C401.58 262.022 399.708 263.636 397.449 265.245C391.859 264.947 382.912 267.324 377.26 268.841C352.391 275.515 326.57 284.442 305.331 299.283C302.792 301.057 297.094 306.402 294.527 304.361C296.548 301.281 299.405 297.798 301.714 294.836Z" fill="#E6DFD5"/>
<path d="M699.686 274.544C697.087 269.163 687.783 264.427 687.23 259.918L687.919 259.41C689.614 260.143 691.844 263.15 693.578 264.558C696.806 268.487 700.123 272.444 703.28 276.422L703.271 276.937L702.725 277.125L699.686 274.544Z" fill="#D6FCEB"/>
<path d="M696.314 261.825C716.338 274.683 740.318 300.329 754.536 319.279C751.916 319.54 751.109 319.322 748.485 318.853C738.376 312.832 721.598 296.196 712.629 287.668C710.02 285.187 706.373 278.858 703.283 276.423C700.126 272.445 696.809 268.488 693.581 264.559L693.632 264.114C693.15 262.67 692.04 261.82 690.934 260.715C693.811 261.462 693.765 262.945 696.314 261.825Z" fill="#90DBF4"/>
<path d="M266.703 489.733C270.659 472.115 271.962 459.686 278.173 441.626C296.209 389.176 323.916 344.379 361.222 303.533C375.306 288.113 388.839 274.6 405.456 261.785C408.359 263.309 425.157 260.984 429.82 260.832C484.002 259.062 550.737 271.762 575.234 326.905C576.147 328.959 578.072 333.542 579.143 335.384C484.649 340.386 403.66 370.425 331.593 432.556C314.738 447.086 283.748 480.486 266.703 489.733Z" fill="#FBF8CC"/>
<path d="M669.397 261.867C673.214 266.6 677.656 275.635 679.241 281.481L678.296 281.92C677.95 286.109 680.745 286.122 677.987 288.858C676.157 287.787 674.463 286.64 672.699 285.471C671.919 283.181 671.05 280.882 670.216 278.608C669.821 277.386 669.426 275.975 669.111 274.649C668.407 271.692 667.029 265.95 668.728 263.192C668.844 263.053 668.96 262.913 669.076 262.774C669.183 262.471 669.29 262.169 669.397 261.867Z" fill="#8EECF5"/>
<path d="M294.528 304.36C297.095 306.401 302.793 301.056 305.332 299.282C326.571 284.441 352.392 275.514 377.261 268.84C382.913 267.323 391.86 264.946 397.45 265.244C334.08 319.796 284.507 391.279 266.693 473.874C263.878 486.926 266.554 498.713 246.874 488.978C244.316 479.904 244.513 468.845 244.441 459.407C244.089 413.466 256.897 369.466 278.986 329.434C280.818 326.114 292.606 306.192 294.528 304.36Z" fill="#FBF8CC"/>
<path d="M691.781 289.09C692.582 288.607 693.387 288.148 694.198 287.681C695.742 284.604 697.285 280.987 697.955 277.61C698.439 275.172 697.58 275.827 699.687 274.543L702.726 277.124L703.272 276.936L703.281 276.421C706.371 278.856 710.018 285.185 712.627 287.666C721.596 296.194 738.374 312.83 748.483 318.851C749.678 320.908 754.925 325.894 757.302 329.131C762.322 338.846 774.283 361.803 780.436 370.433C778.948 374.488 781.202 377.001 783.494 380.341C777.961 381.636 772.761 364.453 763.518 360.621C762.023 359.549 759.192 356.217 757.74 354.733C738.562 335.118 717.003 314.447 693.822 299.615C693.252 296.044 692.791 292.564 691.781 289.09Z" fill="#8EECF5"/>
<path d="M677.984 288.857C680.742 286.121 677.947 286.108 678.293 281.919L679.238 281.48C680.829 285.057 682.743 288.724 683.614 292.489C681.393 291.205 680.044 290.374 677.984 288.857Z" fill="#D6FCEB"/>
<path d="M678.117 295.926C681.561 297.998 686.669 301.583 689.644 304.259C690.182 307.786 690.967 312.166 691.252 315.645L690.382 316.035C687.364 315.787 687.295 311.993 684.752 309.323C683.379 306.542 678.416 297.852 678.117 295.926Z" fill="#98F5E1"/>
<path d="M866.624 296.047C870.683 297.564 877.038 306.279 880.106 309.804C990.821 437.055 986.255 611.347 890.35 745.188C870.356 769.211 851.195 791.242 825.271 809.036C822.933 810.641 820.261 812.66 818.034 814.44C812.661 818.392 806.886 821.521 801.214 825.087C750.354 857.062 693.447 875.774 633.683 880.943C630.912 881.182 628.106 881.563 625.336 881.615C625.01 881.419 625.194 881.572 624.934 881.02L626.705 880.071C665.789 877.288 702.069 863.406 736.186 845.223C757.439 833.896 775.801 820.769 794.392 805.885C931.459 696.146 967.025 462.718 877.859 313.456C874.537 307.895 870.231 302.567 866.982 296.7L866.624 296.047Z" fill="#FFCFD2"/>
<path d="M275.024 316.896C277.99 315.082 284.19 309.805 287.145 307.402L287.618 307.552L288.353 309.139C252.285 365.163 238.046 418.775 242.58 484.948C232.988 467.328 214.008 426.474 220.68 407.822C226.139 392.559 242.652 353.591 253.181 342.077C257.507 341.602 269.058 324.456 271.733 320.089C272.737 319.026 273.953 317.917 275.024 316.896Z" fill="#FBF8CC"/>
<path d="M696.571 313.409L695.273 306.609C700.006 308.922 703.666 312.074 707.682 315.46C706.815 319.559 705.98 323.922 704.824 327.927C705.429 335.669 708.918 346.429 709.73 354.397C709.519 354.73 709.308 355.062 709.097 355.395C705.636 354.258 701.97 352.976 698.46 352.088L698.967 341.624C700.158 338.07 701.824 334.654 702.799 331.107C703.141 325.172 698.841 319.424 696.571 313.409Z" fill="#90DBF4"/>
<path d="M269.152 319.194C271.862 315.545 275.108 311.637 277.959 308.047L278.696 309.049C277.797 312.125 275.962 313.319 275.025 316.898C273.954 317.919 272.738 319.028 271.734 320.091L269.152 319.194Z" fill="#D6FCEB"/>
<path d="M684.754 309.32C687.297 311.99 687.366 315.784 690.384 316.032L691.254 315.642C691.786 320.084 692.084 324.92 692.407 329.407C690.03 326.273 685.103 313.297 684.754 309.32Z" fill="#D6FCEB"/>
<path d="M696.572 313.41C698.842 319.425 703.142 325.173 702.8 331.108C701.825 334.655 700.159 338.071 698.968 341.625C698.662 340.448 696.502 314.841 696.572 313.41Z" fill="#E9F8EC"/>
<path d="M707.682 315.461C728.669 333.406 749.445 350.834 766.147 372.983C770.1 378.224 775.3 384.844 778.025 390.818C772.731 387.748 763.76 380.584 757.601 376.696C741.139 366.304 727.388 361.293 709.097 355.396C709.308 355.063 709.519 354.731 709.73 354.398C708.918 346.43 705.429 335.67 704.824 327.928C705.98 323.923 706.815 319.56 707.682 315.461Z" fill="#A3C4F3"/>
<path d="M748.484 318.852C751.108 319.321 751.915 319.539 754.535 319.278C755.83 321.023 757.517 323.162 758.694 324.933L756.955 324.686C756.724 326.247 757.199 327.523 757.303 329.132C754.926 325.895 749.679 320.909 748.484 318.852Z" fill="#D4E7EE"/>
<path d="M253.184 342.08C255.899 336.593 265.305 324.191 269.154 319.195L271.736 320.092C269.061 324.459 257.51 341.605 253.184 342.08Z" fill="#98F5E1"/>
<path d="M757.301 329.13C757.197 327.521 756.722 326.245 756.953 324.684L758.692 324.931C771.08 340.404 787.464 369.636 794.262 388.096C792.609 387.358 791.569 385.847 790.368 384.442C788.415 380.832 783.049 373.952 780.435 370.432C774.282 361.802 762.321 338.845 757.301 329.13Z" fill="#F6E6EB"/>
<path d="M584.051 335.139C612.877 334.814 637.313 335.327 665.326 342.194C676.136 344.843 682.245 345.627 693.01 350.38C694.226 351.372 693.978 351.227 694.227 353.402C693.008 353.234 689.786 352.018 688.453 351.558C676.439 347.213 661.925 344.704 649.42 342.21C628.514 338.041 606.491 337.394 585.23 337.691L584.051 335.139Z" fill="#58535D"/>
<path d="M580.457 337C587.151 362.031 589.855 375.591 587.174 402.308C582.991 443.983 563.482 483.945 534.36 513.964C531.778 516.626 522.003 524.893 521.345 527.566C515.675 523.812 455.677 513.2 446.161 511.5C380.472 499.764 320.161 507.878 265.189 548.638C264.062 540.402 263.848 533.884 263.82 525.698C264.184 514.822 264.441 503.743 266.658 493.057C283.485 482.853 286.708 477.388 300.912 464.268C313.725 452.434 329.032 437.243 342.506 426.521C395.522 384.265 457.67 355.091 524.622 343.658C543.148 340.495 560.908 338.576 579.638 337.211C579.911 337.141 580.184 337.071 580.457 337Z" fill="#FBF8CC"/>
<path d="M585.227 337.687C606.488 337.39 628.511 338.037 649.417 342.206C661.922 344.7 676.436 347.209 688.45 351.554C686.552 360.527 668.2 389.102 662.194 397.625C657.08 404.883 651.367 411.736 646.145 418.927C638.929 428.864 632.013 439.077 624.224 448.584C618.71 455.314 612.76 461.68 606.994 468.191C598.166 478.158 589.366 488.145 579.957 497.582C574.766 502.788 544.367 530.458 543.124 532.824C537.816 531.119 529.905 529.275 524.469 528.161C526.309 527.395 529.443 524.493 531.076 523.047C573.416 485.586 596.744 424.671 592.116 368.527C591.313 358.78 587.793 347.135 585.227 337.687Z" fill="#FBF8CC"/>
<path d="M437.133 843.996C437.037 844.111 436.951 844.236 436.845 844.343C433.097 848.095 394.219 848.09 386.731 848.112C354.313 848.206 337.167 843.01 307.335 832.072C298.557 828.852 289.655 825.827 281.122 821.993C244.747 805.65 207.824 779.035 179.607 750.768C169.842 740.986 161.047 729.81 152.572 718.905C129.942 689.784 109.518 656.86 97.8658 621.65C94.3844 611.13 91.9075 600.279 89.7127 589.428C86.6882 574.473 84.6306 559.524 84.7384 544.24C84.8596 527.059 87.0997 509.97 92.4257 493.601C101.808 464.764 121.521 437.099 142.98 415.953C168.724 390.585 198.563 370.089 230.036 352.572C234.774 349.935 242.438 344.409 247.838 344.453C246.62 346.505 243.975 351.28 242.721 353.022C215.232 366.092 186.172 386.641 163.01 405.773C129.251 433.964 96.6485 480.079 92.3574 524.517C88.7896 561.466 98.2192 610.737 114.067 643.646C153.261 724.951 222.852 796.721 309.803 825.47C315.657 827.406 321.625 830.282 327.617 832.378C358.178 843.07 391.199 842.4 423.074 840.235C425.843 840.047 428.601 840.079 431.108 838.792C432.849 839.397 435.581 841.606 436.882 842.94L437.133 843.996Z" fill="#E9F8EC"/>
<path d="M688.451 351.555C689.784 352.015 693.006 353.231 694.225 353.399C694.051 356.173 693.993 358.565 693.968 361.334C690.555 364.053 676.827 386.538 672.288 393.136C649.86 425.738 626.389 459.617 599.976 489.204C586.972 503.772 573.819 514.163 560.155 527.678C557.788 530.011 554.826 533.452 552.242 535.367C549.042 534.363 546.383 533.624 543.125 532.825C544.368 530.459 574.767 502.789 579.958 497.583C589.367 488.146 598.167 478.159 606.995 468.192C612.761 461.681 618.711 455.315 624.225 448.585C632.014 439.078 638.93 428.865 646.146 418.928C651.368 411.737 657.081 404.884 662.195 397.626C668.201 389.103 686.553 360.528 688.451 351.555Z" fill="#D6FCEB"/>
<path d="M431.109 838.793C428.602 840.08 425.844 840.048 423.075 840.236C391.2 842.401 358.179 843.071 327.618 832.379C321.626 830.283 315.658 827.407 309.804 825.471C222.853 796.722 153.262 724.952 114.068 643.647C98.2198 610.738 88.7902 561.467 92.358 524.518C96.6491 480.08 129.252 433.965 163.011 405.774C186.173 386.642 215.233 366.093 242.722 353.023C235.838 366.574 230.861 375.367 224.792 389.514C216.373 392.85 206.773 402.372 199.318 408.154C152.805 444.227 111.637 504.794 102.32 563.444C95.0443 609.243 137.276 680.762 166.91 714.444C203.018 755.484 264.424 792.612 318.677 802.443C330.269 804.691 341.553 808.687 353.378 810.15C368.316 812.58 382.635 814.049 397.512 816.163L400.541 817.437C406.384 822.048 412.704 825.898 418.87 830.029C420.725 831.272 425.343 834.076 426.678 835.309C428.494 837.247 428.777 837.557 431.109 838.793Z" fill="#B9FBC0"/>
<path d="M698.811 355.008L713.28 359.897C713.058 368.027 713.816 376.337 714.338 384.496C718.647 451.817 685.901 510.843 651.848 566.272C650.998 567.655 648.434 572.632 647.602 573.385L641.023 570.212C649.254 554.198 659.486 535.396 666.405 519.05C687.133 470.077 702.474 408.549 698.811 355.008Z" fill="#8EECF5"/>
<path d="M713.28 359.898C736.748 368.012 752.441 374.168 772.113 390.27C776.078 393.515 780.658 396.587 784.56 400.094C783.997 403.021 791.274 420.254 792.845 424.773C809.162 471.73 807.641 525.05 798.501 573.35C796.157 585.736 792.121 597.841 789.442 610.119C788.304 612.721 785.48 623.221 785.655 625.779L784.164 627.32C782.506 625.88 779.053 626.332 776.689 626.317C740.239 626.077 708.526 604.895 677.67 588.021C668.173 582.828 657.528 578.174 647.602 573.386C648.434 572.633 650.998 567.656 651.848 566.273C685.901 510.844 718.647 451.818 714.338 384.497C713.816 376.338 713.058 368.028 713.28 359.898Z" fill="#A3C4F3"/>
<path d="M763.52 360.621C772.763 364.453 777.963 381.636 783.496 380.341C785.754 381.926 786.845 384.235 789.223 385.218C790.242 384.74 789.915 385.065 790.371 384.443C791.572 385.848 792.612 387.359 794.265 388.097C798.137 396.382 802.19 407.137 804.982 415.846C801.682 412.157 794.558 405.849 792.228 402.784C790.077 391.381 771.011 370.866 763.52 360.621Z" fill="url(#paint1_linear_2264_28541)"/>
<path d="M552.242 535.369C554.826 533.454 557.788 530.013 560.155 527.68C573.819 514.165 586.972 503.774 599.976 489.206C626.389 459.619 649.86 425.74 672.288 393.138C676.827 386.54 690.555 364.055 693.968 361.336C694.157 419.727 683.685 467.417 659.941 520.948C655.094 531.874 649.868 542.418 644.571 553.131C642.478 557.366 638.397 564.261 636.781 568.217C612.502 556.764 578.158 541.741 552.242 535.369Z" fill="#8EECF5"/>
<path d="M780.435 370.434C783.049 373.954 788.415 380.834 790.368 384.444C789.912 385.066 790.239 384.741 789.22 385.219C786.842 384.236 785.751 381.927 783.493 380.342C781.201 377.002 778.947 374.489 780.435 370.434Z" fill="#A3C4F3"/>
<path d="M397.509 816.165C382.632 814.051 368.313 812.582 353.375 810.152C341.55 808.689 330.266 804.693 318.674 802.445C264.421 792.614 203.015 755.486 166.907 714.446C137.273 680.764 95.0411 609.245 102.317 563.446C111.634 504.796 152.802 444.229 199.315 408.156C206.77 402.374 216.37 392.852 224.789 389.516C223.314 393.045 221.997 396.038 220.314 399.468C213.578 403.922 206.362 411.038 199.962 416.113C155.813 451.081 122.826 501.724 110.667 556.915C101.491 598.565 127.272 643.674 148.634 678.107C180.163 728.927 232.296 766.059 287.567 787.24C304.539 793.744 325.562 796.444 343.223 801.159C352.189 803.25 375.793 806.244 385.872 807.218C388.121 808.38 390.234 809.407 392.348 810.809L397.509 816.165Z" fill="#E9F8EC"/>
<path d="M800.727 393.867C807.7 399.489 815.859 416.137 820.152 424.352C846.547 469.979 854.018 525.15 854.023 577.022C847.949 590.568 830.52 615.946 821.054 627.96C820.71 622.401 829.478 589.805 831.033 581.67C835.452 558.548 837.178 542.105 836.168 518.218C835.17 494.617 834.877 470.913 828.956 447.674C826.994 439.973 822.716 433.104 819.721 425.826C816.126 422.272 813.119 413.376 807.745 412.641C805.585 407.173 802.173 399.307 800.727 393.867Z" fill="#B2B0F0"/>
<path d="M385.874 807.219C375.795 806.245 352.191 803.251 343.225 801.16C325.564 796.445 304.541 793.745 287.569 787.241C232.298 766.06 180.165 728.928 148.636 678.108C127.274 643.675 101.493 598.566 110.669 556.916C122.828 501.725 155.815 451.082 199.964 416.114C206.364 411.039 213.58 403.923 220.316 399.469C209.594 432.013 202.049 469.227 201.518 503.473C199.901 607.7 250.309 713.889 339.335 770.52C344.533 773.967 348.944 776.693 354.347 779.809C356.941 786.73 379.948 802.141 385.874 807.219Z" fill="#B9FBC0"/>
<path d="M789.44 610.119C792.119 597.841 796.155 585.736 798.499 573.35C807.639 525.05 809.16 471.73 792.843 424.773C791.272 420.254 783.995 403.021 784.558 400.094C786.71 401.859 788.812 403.451 790.588 405.606L790.807 406.465C794.18 419.422 799.084 429.065 802.757 445.992C814.409 499.692 805.968 557.258 790.012 609.32C789.821 609.586 789.631 609.852 789.44 610.119Z" fill="#E6DFD5"/>
<path d="M790.587 405.605C808.26 420.439 808.501 424.589 813.356 446.058C825.683 500.567 822.555 557.419 805.904 610.679C804.975 613.641 804.012 616.475 802.823 619.35C798.659 622.266 790.723 624.478 785.652 625.778C785.477 623.22 788.301 612.72 789.439 610.118C789.63 609.851 789.82 609.585 790.011 609.319C805.967 557.257 814.408 499.691 802.756 445.991C799.083 429.064 794.179 419.421 790.806 406.464L790.587 405.605Z" fill="#CFBAF0"/>
<path d="M807.744 412.645C813.118 413.38 816.125 422.276 819.72 425.83C822.715 433.108 826.993 439.977 828.955 447.678C834.876 470.917 835.169 494.62 836.167 518.221C837.177 542.108 835.451 558.552 831.032 581.674C829.477 589.809 820.709 622.405 821.053 627.964C815.202 636.41 793.65 664.554 785.121 667.04C790.343 656.972 797.273 644.386 801.499 633.958C824.35 577.575 830.218 516.305 819.671 456.49C817.024 441.481 812.282 427.021 807.744 412.645Z" fill="#CFBAF0"/>
<path d="M251.886 550.431C225.12 545.448 210.421 521.732 205.124 496.361C204.239 492.123 205.162 484.942 205.593 480.504C207.487 460.992 211.285 441.271 216.019 422.301C217.138 425.17 218.311 435.441 219.508 439.092C223.962 452.676 234.159 481.616 244.208 490.874C245.773 496.58 247.449 502.448 249.577 507.933C252.633 515.81 265.194 542.436 261.163 549.91C258.562 551.697 255.06 550.814 251.886 550.431Z" fill="#FBF8CC"/>
<path d="M853.196 588.582C858.138 579.903 863.865 571.93 868.393 562.961C879.472 541.017 888.719 518.46 896.071 494.989C897.228 491.294 898.271 487.271 899.546 483.637C897.9 511.27 897.838 537.406 894.03 565.428C885.647 627.125 862.438 687.25 825.665 737.676C817.149 749.355 805.481 759.784 795.084 769.683C785.659 778.472 769.213 787.242 756.422 788.815C771.133 773.121 785.646 757.978 798.605 740.986C825.841 705.274 842.238 661.379 849.208 617.276C850.743 607.566 852.582 598.56 853.196 588.582Z" fill="#FFCFD2"/>
<path d="M260.475 524.122C260.522 525 260.435 524.996 260.234 525.881C257.403 522.796 248.824 497.422 247.746 492.895C253.853 494.695 256.896 495.469 263.262 494.436C261.921 504.603 261.236 513.905 260.475 524.122Z" fill="#FBF8CC"/>
<path d="M248.357 620.245L248.025 623.2C245.033 622.92 226.618 620.63 225.033 621.478C209.632 582.403 205.1 545.922 204.078 504.461C209.867 521.214 216.839 536.003 232.032 546.151C241.464 552.451 250.146 553.272 261.047 553.845C252.467 579.073 249.416 593.175 248.357 620.245Z" fill="#FBF8CC"/>
<path d="M265.395 551.758C262.998 549.026 262.297 529.778 263.821 525.697C263.849 533.883 264.063 540.401 265.19 548.637C320.162 507.877 380.473 499.763 446.162 511.499C455.678 513.199 515.676 523.811 521.346 527.565C520.448 529.463 520.35 529.653 518.043 529.386C478.334 518.21 433.324 509.991 392.018 509.003C355.783 508.136 317.724 519.592 286.5 537.385C279.087 541.625 271.855 546.052 265.395 551.758Z" fill="#58535D"/>
<path d="M518.043 529.386C515.05 530.062 507.914 537.292 504.981 539.294C487.029 551.551 468.481 562.611 448.591 571.456C441.952 574.465 435.366 578.463 428.673 581.261C394.083 595.726 358.584 608.757 321.617 615.63C319.035 616.11 309.378 617.767 308.036 619.123C291.799 603.757 266.681 574.397 265.395 551.758C271.855 546.052 279.087 541.625 286.5 537.385C317.724 519.592 355.783 508.136 392.018 509.003C433.324 509.991 478.334 518.21 518.043 529.386Z" fill="#FBF8CC"/>
<path d="M521.879 530.084C522.751 529.109 523.349 528.873 524.471 528.164C529.907 529.278 537.818 531.122 543.126 532.827C546.384 533.626 549.043 534.365 552.243 535.369C578.159 541.741 612.503 556.764 636.782 568.217L641.023 570.214L647.602 573.387C657.528 578.175 668.173 582.829 677.67 588.022C708.526 604.896 740.239 626.078 776.689 626.318C779.053 626.333 782.506 625.881 784.164 627.321L783.841 627.907L783.414 628.211C748.446 634.372 702.999 604.9 673.186 588.931C662.151 583.02 649.839 577.602 638.459 572.266L634.996 570.775C602.193 555.65 577.362 545.42 542.463 535.809C536.701 534.183 527.039 532.439 521.879 530.084Z" fill="#58535D"/>
<path d="M521.878 530.082C527.038 532.437 536.7 534.181 542.462 535.807C538.971 540.915 526.598 548.876 520.711 552.467C468.631 584.231 410.564 607.677 351.112 621.205C339.608 623.822 326.611 624.822 315.047 624.098L315.111 623.302L317.114 622.792L316.605 622.297C318.216 621.69 321.565 621.163 323.372 620.78C357.758 613.489 392.114 601.965 424.549 588.52C433.731 584.714 445.641 578.48 454.752 574.099C471.617 565.989 489.737 556.273 504.809 545.205C510.033 541.369 518.534 535.201 521.878 530.082Z" fill="#D6FCEB"/>
<path d="M542.462 535.809C577.361 545.42 602.192 555.65 634.995 570.775C632.729 576.254 627.447 584.612 624.34 589.761C613.242 608.159 600.794 625.797 587.595 642.744C584.726 646.429 579.05 654.235 575.866 657.356L575.295 657.344C574.408 657.32 574.759 657.334 573.669 657.242C568.771 660.212 562.847 667.047 558.131 671.038C546.913 680.532 535.646 689.967 524.183 699.174C520.173 702.395 516.727 704.876 512.41 707.644C508.67 710.042 501.548 713.473 498.381 715.992C441.372 704.609 389.449 681.706 342.8 647.148C332.159 639.265 322.222 632.283 312.492 623.245C313.938 622.775 315.12 622.594 316.605 622.299L317.114 622.794L315.111 623.304L315.047 624.1C326.611 624.824 339.608 623.824 351.112 621.207C410.564 607.679 468.631 584.233 520.711 552.469C526.598 548.878 538.971 540.917 542.462 535.809Z" fill="#8EECF5"/>
<path d="M251.402 623.363C251.545 608.902 253.054 593.008 256.31 578.911C257.87 572.153 260.288 565.237 262.111 558.504C261.846 565.011 260.69 573.635 260.645 579.462C260.546 592.343 262.5 610.704 265.446 623.258C262.195 623.587 255.176 623.247 251.402 623.363Z" fill="#FBF8CC"/>
<path d="M281.6 622.281C277.734 623.031 270.188 622.601 268.648 624.378C266.008 604.989 260.632 585.018 265.144 565.074C265.942 581.59 275.367 606.959 281.6 622.281Z" fill="#FBF8CC"/>
<path d="M634.995 570.773L638.458 572.264C637.084 576.573 630.867 586.759 628.322 591.091C608.921 624.109 584.87 656.081 558.452 683.782C551.669 690.894 546.089 697.579 538.596 704.064C565.034 696.083 597.936 699.497 620.159 716.184C622.665 718.066 627.422 721.6 629.456 723.907L626.821 723.978C626.178 723.048 625.253 721.981 624.388 721.24C607.17 706.492 586.146 700.722 563.943 701.019C544.047 701.284 536.117 706.414 523.141 719.739L518.906 719.33C520.626 716.163 536.865 699.957 541.052 695.555C552.813 683.19 564.295 669.697 575.866 657.354C579.05 654.233 584.726 646.427 587.595 642.742C600.794 625.795 613.242 608.157 624.34 589.759C627.447 584.61 632.729 576.252 634.995 570.773Z" fill="#E6DFD5"/>
<path d="M638.46 572.266C649.84 577.602 662.152 583.02 673.187 588.931C703 604.9 748.447 634.372 783.415 628.211C781.685 633.866 767.783 672.789 765.405 674.958C755.565 661.43 748.951 652.354 731.678 648.945C696.535 642.01 664.338 668.678 654.451 701.109C653.288 704.923 648.299 718.238 650.232 721.123L651.899 721.55C649.08 721.463 633.143 723.352 629.458 723.909C627.424 721.602 622.667 718.068 620.161 716.186C597.938 699.499 565.036 696.085 538.598 704.066C546.091 697.581 551.671 690.896 558.454 683.784C584.872 656.083 608.923 624.111 628.324 591.093C630.869 586.761 637.086 576.575 638.46 572.266Z" fill="#A3C4F3"/>
<path d="M303.118 617.895C295.759 621.165 290.712 620.398 285.042 622.498C279.6 611.988 272.294 587.618 270.004 575.91C280.195 594.05 288.74 603.393 303.118 617.895Z" fill="#FBF8CC"/>
<path d="M809.355 649.003C819.91 636.417 829.369 623.583 838.735 610.078C843.637 603.01 848.078 595.469 853.194 588.582C852.58 598.56 850.741 607.566 849.206 617.276C842.236 661.379 825.839 705.274 798.603 740.986C785.644 757.978 771.131 773.121 756.42 788.815C743.522 794.566 714.044 789.229 700.5 784.959C713.139 770.525 729.506 758.791 742.326 745.21C767.738 718.288 794.331 682.809 809.355 649.003Z" fill="#B2B0F0"/>
<path d="M285.039 622.498C290.709 620.398 295.756 621.165 303.115 617.895L308.621 623.341C303.755 625.337 293.198 627.496 287.672 628.016C286.807 626.396 285.846 624.2 285.039 622.498Z" fill="#E6DFD5"/>
<path d="M225.031 621.476C226.616 620.628 245.031 622.918 248.023 623.198C247.939 624.902 248.203 625.768 247.4 626.958C242.334 627.539 230.72 625.608 225.89 623.704L225.031 621.476Z" fill="#E6DFD5"/>
<path d="M248.024 623.197L248.356 620.242C248.294 643.742 248.225 654.524 253.205 677.49C245.079 664.994 230.438 637.72 225.891 623.703C230.721 625.607 242.335 627.538 247.401 626.957C248.204 625.767 247.94 624.901 248.024 623.197Z" fill="#98F5E1"/>
<path d="M268.648 624.378C270.188 622.601 277.734 623.031 281.6 622.281L283.906 627.52C281.319 628.226 272.784 628.094 269.576 628.137L268.648 624.378Z" fill="#E6DFD5"/>
<path d="M251.402 623.363C255.176 623.247 262.195 623.587 265.446 623.258L266.337 627.12L265.487 627.855C261.746 628.168 255.981 628.241 252.306 627.736C251.287 626.572 251.582 625.795 251.398 623.872L251.402 623.363Z" fill="#E6DFD5"/>
<path d="M308.621 623.34C320.203 633.668 329.902 640.387 342.126 649.483C389.052 684.403 439.971 706.791 497.461 718.32C496.758 721.03 489.108 725.136 486.365 726.672C464.628 738.843 437.607 755.517 413.401 760.433C360.665 729.658 315.519 682.257 287.672 628.015C293.198 627.495 303.755 625.336 308.621 623.34Z" fill="#8EECF5"/>
<path d="M258.117 683.795C252.949 671.256 249.85 637.448 251.4 623.871C251.584 625.794 251.289 626.571 252.308 627.735C255.983 628.24 261.748 628.167 265.489 627.854L266.339 627.119C279.68 680.759 300.79 717.536 339.046 757.795C338.508 757.888 337.969 757.981 337.431 758.074C334.364 756.364 329.902 752.658 327.302 750.704C315.431 741.782 304.268 732.262 293.643 721.908C289.273 717.649 284.624 712.489 280.811 708.504C276.258 703.744 262.386 686.075 258.117 683.795Z" fill="#8EECF5"/>
<path d="M783.412 628.209L783.839 627.905C788.01 628.181 797.002 624.841 801.374 623.406C796.853 636.24 778.827 673.57 770.095 681.564L765.402 674.956C767.78 672.787 781.682 633.864 783.412 628.209Z" fill="#CFBAF0"/>
<path d="M283.904 627.52C309.952 681.745 357.195 727.4 407.274 759.66C404.046 762.633 394.411 763 389.738 764.059C379.398 766.404 369.153 769.189 358.581 770.201C328.867 749.571 299.158 706.239 284.977 673.523C278.712 659.069 273.638 643.324 269.574 628.137C272.782 628.094 281.317 628.226 283.904 627.52Z" fill="#8EECF5"/>
<path d="M651.896 721.547L650.229 721.12C648.296 718.235 653.285 704.92 654.448 701.106C664.335 668.675 696.532 642.007 731.675 648.942C748.948 652.351 755.562 661.427 765.402 674.955L770.095 681.563L767.178 683.443C766.523 681.604 765.84 679.505 765.022 677.757C763.332 680.23 762.006 682.589 759.648 684.38L763.921 676.995C761.736 671.869 756.129 665.318 752.281 661.312C737.71 646.143 709.292 646.878 692.06 656.877C685.111 660.909 672.379 671.998 667.494 678.887C660.59 688.624 654.025 708.801 653.29 721.006L651.896 721.547Z" fill="#E6DFD5"/>
<path d="M759.647 684.38C758.352 685.499 755.12 689.047 754.895 690.768C730.048 706.888 682.277 716.968 653.289 721.006C654.024 708.801 660.589 688.624 667.493 678.887C672.378 671.998 685.11 660.909 692.059 656.877C709.291 646.878 737.709 646.143 752.28 661.312C756.128 665.318 761.735 671.869 763.92 676.995L759.647 684.38Z" fill="#A3C4F3"/>
<path d="M782.094 672.397C787.254 672.435 803.956 652.808 809.355 649.004C794.331 682.81 767.738 718.289 742.326 745.211C729.506 758.792 713.139 770.526 700.5 784.96C694.014 782.387 688.466 779.401 682.441 775.996C713.581 753.25 738.192 732.984 762.211 701.864C769.375 692.583 774.92 682.144 781.52 673.171L782.094 672.397Z" fill="#CFBAF0"/>
<path d="M498.383 715.992C501.55 713.473 508.672 710.042 512.412 707.644C516.729 704.876 520.175 702.395 524.185 699.174C535.648 689.967 546.915 680.532 558.133 671.038C562.849 667.047 568.773 660.212 573.671 657.242C574.761 657.334 574.41 657.32 575.297 657.344L575.868 657.356C564.297 669.699 552.815 683.192 541.054 695.557C536.867 699.959 520.628 716.165 518.908 719.332C514.85 718.025 503.33 716.844 498.383 715.992Z" fill="#90DBF4"/>
<path d="M765.024 677.758C765.842 679.506 766.525 681.605 767.18 683.444C763.702 685.738 758.688 689.078 754.898 690.769C755.123 689.048 758.355 685.5 759.65 684.381C762.008 682.59 763.334 680.231 765.024 677.758Z" fill="#F6E6EB"/>
<path d="M258.117 683.797C262.386 686.077 276.258 703.746 280.811 708.506C284.624 712.491 289.273 717.651 293.643 721.91C304.268 732.264 315.431 741.784 327.302 750.706C329.902 752.66 334.364 756.366 337.431 758.076C337.969 757.983 338.508 757.89 339.046 757.797C345.646 763.689 351.905 769.018 358.937 774.371C356.599 775.354 354.943 775.656 352.9 776.453C348.419 773.857 344.028 771.128 339.523 768.533C330.399 762.083 316.693 751.708 308.565 744.533C296.69 734.049 261.898 697.882 258.117 683.797Z" fill="url(#paint2_linear_2264_28541)"/>
<path d="M752.455 695.199C759.529 691.028 762.776 689.791 769.839 684.414C742.705 725.165 716.334 747.101 677.34 774.892C675.746 773.231 674.441 772.215 672.672 770.774C682.696 765.399 751.333 701.666 752.455 695.199Z" fill="#CFBAF0"/>
<path d="M747.393 697.647L752.451 695.199C751.329 701.666 682.692 765.399 672.668 770.774L671.902 770.269C683.221 762.766 744.897 707.121 747.393 697.647Z" fill="#F6E6EB"/>
<path d="M653.082 723.652C685.442 720.317 717.668 710.66 747.393 697.648C744.897 707.122 683.221 762.767 671.902 770.27C656.861 754.41 653.043 745.43 653.082 723.652Z" fill="#A3C4F3"/>
<path d="M523.141 719.739C536.117 706.414 544.047 701.284 563.943 701.019C586.146 700.722 607.17 706.492 624.388 721.24C625.253 721.981 626.178 723.048 626.821 723.978C619.26 724.93 606.686 724.994 599.05 725.088C573.581 725.404 548.386 723.024 523.141 719.739Z" fill="#A3C4F3"/>
<path d="M497.462 718.32C503.83 719.448 510.194 720.635 516.603 721.497C514.002 725.137 510.677 727.665 507.696 730.907C506.155 732.583 505.33 736.176 503.71 737.934C493.406 747.35 480.267 757.259 467.598 763.053C461.223 765.969 452.249 767.79 447.956 771.666C450.883 771.754 455.887 768.639 458.752 767.781C474.243 763.144 495.054 749.394 505.836 737.397C501.779 761.694 503.521 775.862 521.664 793.563C530.439 802.125 532.296 804.053 543.893 808.687C545.225 810.011 544.678 809.605 546.963 809.851C545.623 810.195 544.562 809.942 543.181 809.776L543.107 810.515C501.333 801.312 449.621 783.663 413.402 760.433C437.608 755.517 464.629 738.843 486.366 726.672C489.109 725.136 496.759 721.03 497.462 718.32Z" fill="url(#paint3_linear_2264_28541)"/>
<path d="M516.604 721.496C518.043 721.629 519.602 721.745 521.023 721.927C510.314 731.211 507.125 735.712 505.832 750.157C504.611 763.81 507.502 775.176 516.756 785.8C527.058 797.626 530.664 801.289 544.504 808.062L543.894 808.686C532.297 804.052 530.44 802.124 521.665 793.562C503.522 775.861 501.78 761.693 505.837 737.396C495.055 749.393 474.244 763.143 458.753 767.78C455.888 768.638 450.884 771.753 447.957 771.665C452.25 767.789 461.224 765.968 467.599 763.052C480.268 757.258 493.407 747.349 503.711 737.933C505.331 736.175 506.156 732.582 507.697 730.906C510.678 727.664 514.003 725.136 516.604 721.496Z" fill="#E6DFD5"/>
<path d="M521.022 721.93C556.311 726.662 595.087 728.876 630.646 726.376C631.038 728.174 635.409 735.294 636.597 737.588C646.307 756.351 644.582 769.268 636.569 788.106C630.375 793.814 591.396 803.285 581.943 804.818C575.48 805.866 565.325 805.458 558.373 806.327C554.102 806.861 548.442 808.999 544.503 808.065C530.663 801.292 527.057 797.629 516.755 785.803C507.501 775.179 504.61 763.813 505.831 750.16C507.124 735.715 510.313 731.214 521.022 721.93Z" fill="#A3C4F3"/>
<path d="M648.68 724.421L653.086 723.652C653.047 745.43 656.865 754.41 671.906 770.27L672.672 770.775C674.441 772.216 675.746 773.232 677.34 774.893L675.459 776.115C673.372 775.036 671.169 773.145 669.281 771.665C668.213 771.608 668.702 771.806 667.871 770.948C667.336 770.271 667.116 770.051 666.514 769.441C651.287 753.978 648.502 745.046 648.68 724.421Z" fill="#E6DFD5"/>
<path d="M631.602 726.528L648.678 724.422C648.5 745.047 651.285 753.979 666.512 769.442C667.114 770.052 667.334 770.272 667.869 770.949C661.821 776.125 653.303 782.723 646.469 786.925C643.46 788.305 639.814 790.838 637.037 789.851C636.706 788.761 636.74 789.215 636.74 788.518C639.937 784.708 642.307 777.781 643.468 772.944C647.792 754.924 640.958 741.576 631.602 726.528Z" fill="#A3C4F3"/>
<path d="M630.645 726.375L631.601 726.528C640.957 741.576 647.791 754.924 643.467 772.944C642.306 777.781 639.936 784.708 636.739 788.518L636.568 788.105C644.581 769.267 646.306 756.35 636.596 737.587C635.408 735.293 631.037 728.173 630.645 726.375Z" fill="#E6DFD5"/>
<path d="M890.351 745.188C918.17 782.756 878.638 829.8 836.616 821.781C831.893 820.88 821.311 818.043 818.035 814.44C820.262 812.66 822.934 810.64 825.272 809.035C851.196 791.241 870.357 769.211 890.351 745.188Z" fill="#E6DFD5"/>
<path d="M407.275 759.66C425.353 770.446 439.313 777.984 458.62 786.235C495.071 801.813 532.365 814.113 572.063 817.484C559.093 819.096 546.98 821.475 533.787 822.376C472.225 826.58 409.551 809.236 360.343 771.665C359.737 771.203 359.159 770.698 358.582 770.201C369.154 769.189 379.399 766.404 389.739 764.059C394.412 763 404.047 762.633 407.275 759.66Z" fill="url(#paint4_linear_2264_28541)"/>
<path d="M339.524 768.531C344.029 771.126 348.42 773.855 352.901 776.451C358.609 779.798 373.037 787.12 379.272 789.2C380.083 790.242 380.408 790.205 381.666 790.743C382.106 791.841 382.211 791.489 382.002 792.334C374.246 789.547 362.232 783.44 354.348 779.806C348.945 776.69 344.534 773.964 339.336 770.517L339.524 768.531Z" fill="#584254"/>
<path d="M667.869 770.949C668.7 771.807 668.211 771.609 669.279 771.666C664.394 775.126 651.154 786.977 646.469 786.925C653.303 782.723 661.821 776.125 667.869 770.949Z" fill="#F6E6EB"/>
<path d="M646.467 786.923C651.152 786.975 664.392 775.124 669.277 771.664C671.165 773.144 673.368 775.035 675.455 776.114C651.935 790.667 611.59 810.21 582.948 815.095C577.479 816.028 549.766 811.88 543.105 810.514L543.18 809.775C544.561 809.941 545.621 810.194 546.961 809.85C544.676 809.604 545.223 810.01 543.891 808.686L544.501 808.062C548.44 808.996 554.1 806.858 558.371 806.324C565.323 805.455 575.478 805.863 581.941 804.815C591.394 803.282 630.373 793.811 636.567 788.103L636.738 788.516C636.738 789.213 636.704 788.759 637.035 789.849C639.812 790.836 643.458 788.303 646.467 786.923Z" fill="#CFBAF0"/>
<path d="M358.935 774.371C362.444 776.703 377.939 786.658 379.269 789.202C373.034 787.122 358.606 779.8 352.898 776.453C354.941 775.656 356.597 775.354 358.935 774.371Z" fill="#B2B0F0"/>
<path d="M987.732 791.265C983.468 792.262 979.204 789.615 978.206 785.352C977.209 781.089 979.856 776.824 984.12 775.827C988.382 774.83 992.647 777.477 993.644 781.74C994.641 786.003 991.994 790.267 987.732 791.265Z" fill="#E6DFD5"/>
<path d="M620.156 807.737C630.437 803.42 639.288 800.403 649.45 795.276C660.258 789.822 668.81 784.414 679.049 778.297C684.394 781.669 689.06 783.983 694.731 786.748C677.802 798.496 659.016 811.537 640.812 821.377C607.845 839.198 567.549 852.572 530.862 860.354C524.059 861.798 501.386 866.431 495.6 866.668C489.274 865.297 469.247 858.246 463.793 854.901C466.492 854.412 469.672 854.478 472.556 854.236C515.095 850.665 556.701 839.568 595.026 820.713C599.295 818.613 618.664 810.581 620.156 807.737Z" fill="#F1C0E8"/>
<path d="M354.348 779.809C362.232 783.443 374.246 789.55 382.002 792.337C387.021 794.824 392.707 796.773 397.794 799.144C411.583 805.572 424.093 810.794 438.618 815.506C430.522 817.217 402.295 812.058 392.351 810.81C390.237 809.408 388.124 808.381 385.875 807.219C379.949 802.141 356.942 786.73 354.348 779.809Z" fill="#B2B0F0"/>
<path d="M495.602 866.666C501.388 866.429 524.061 861.796 530.864 860.352C567.551 852.57 607.847 839.196 640.814 821.375C659.018 811.535 677.804 798.494 694.733 786.746C712.135 794.037 728.372 795.644 746.863 796.192C746.135 798.979 725.521 814.263 721.759 816.452C706.133 825.538 690.369 834.753 673.718 841.864C625.986 862.246 573.83 866.779 522.464 866.449C515.472 866.404 503.904 865.971 497.3 867.453L496.247 867.517L495.602 866.666Z" fill="#B2B0F0"/>
<path d="M535.033 825.842C537.395 825.179 544.8 825.031 547.797 824.593C556.24 823.358 564.842 822.237 573.248 820.797C589.3 818.047 604.653 812.34 620.159 807.734C618.667 810.578 599.298 818.61 595.029 820.71C556.704 839.565 515.098 850.662 472.559 854.233C469.675 854.475 466.495 854.409 463.796 854.898C455.561 852.238 445.617 846.393 437.134 843.996L436.883 842.94C454.088 843.939 520.489 834.379 535.118 826.721L535.033 825.842Z" fill="#B2B0F0"/>
<path d="M392.348 810.809C402.292 812.057 430.519 817.216 438.615 815.505C444.055 817.024 449.16 818.368 454.654 819.678C448.478 823.463 409.335 817.551 400.538 817.439L397.509 816.165L392.348 810.809Z" fill="#F1C0E8"/>
<path d="M400.539 817.438C409.336 817.55 448.479 823.462 454.655 819.677C476.082 823.797 493.636 826.555 515.761 826.586C507.035 827.021 499.411 829.585 491.159 830.796C471.84 833.632 445.795 837.903 426.676 835.31C425.341 834.077 420.723 831.273 418.868 830.03C412.702 825.899 406.382 822.049 400.539 817.438Z" fill="#B2B0F0"/>
<path d="M515.761 826.586C522.469 826.504 528.338 826.283 535.031 825.844L535.116 826.723C520.487 834.381 454.086 843.941 436.881 842.942C435.58 841.608 432.848 839.399 431.107 838.794C428.775 837.558 428.492 837.248 426.676 835.31C445.795 837.903 471.84 833.632 491.159 830.796C499.411 829.585 507.035 827.021 515.761 826.586Z" fill="#E6DFD5"/>
<path d="M916.292 900.735C903.616 902.373 891.981 893.507 890.199 880.85C888.417 868.193 897.151 856.458 909.787 854.533C918.089 853.267 926.431 856.562 931.629 863.159C936.826 869.756 938.076 878.637 934.903 886.413C931.729 894.189 924.621 899.659 916.292 900.735Z" fill="#E6DFD5"/>
<defs>
<linearGradient id="paint0_linear_2264_28541" x1="629.164" y1="802.837" x2="394.978" y2="218.011" gradientUnits="userSpaceOnUse">
<stop stop-color="#554A59"/>
<stop offset="1" stop-color="#575B67"/>
</linearGradient>
<linearGradient id="paint1_linear_2264_28541" x1="768.734" y1="389.303" x2="799.327" y2="385.121" gradientUnits="userSpaceOnUse">
<stop stop-color="#A4D8E2"/>
<stop offset="1" stop-color="#CAC2FF"/>
</linearGradient>
<linearGradient id="paint2_linear_2264_28541" x1="298.423" y1="736.871" x2="315.141" y2="723.482" gradientUnits="userSpaceOnUse">
<stop stop-color="#84F1CC"/>
<stop offset="1" stop-color="#89E8E1"/>
</linearGradient>
<linearGradient id="paint3_linear_2264_28541" x1="500.523" y1="828.848" x2="462.016" y2="733.89" gradientUnits="userSpaceOnUse">
<stop stop-color="#D3C6F6"/>
<stop offset="1" stop-color="#B2DDFA"/>
</linearGradient>
<linearGradient id="paint4_linear_2264_28541" x1="463.688" y1="819.976" x2="466" y2="763.368" gradientUnits="userSpaceOnUse">
<stop stop-color="#D8CDF5"/>
<stop offset="1" stop-color="#A8DDF6"/>
</linearGradient>
</defs>
</svg>
