<svg width="1024" height="1024" viewBox="0 0 1024 1024" fill="none" xmlns="http://www.w3.org/2000/svg">
<path d="M216.782 99.6608C198.798 101.532 182.735 88.3892 181.01 70.391C179.284 52.3928 192.556 36.437 210.568 34.8569C228.375 33.2948 244.11 46.3836 245.816 64.177C247.522 81.9703 234.561 97.8107 216.782 99.6608Z" fill="#FBF8CC"/>
<path d="M851.241 131.86C834.366 133.012 819.774 120.217 818.71 103.337C817.646 86.4556 830.516 71.9301 847.402 70.9541C864.164 69.9853 878.56 82.7406 879.616 99.4975C880.672 116.254 867.992 130.716 851.241 131.86ZM848.739 77.221C840.057 77.5384 832.219 82.5096 828.232 90.2285C824.244 97.9474 824.725 107.216 829.49 114.481C834.256 121.745 842.566 125.878 851.234 125.295C864.355 124.413 874.34 113.163 873.658 100.03C872.977 86.8962 861.881 76.7406 848.739 77.221Z" fill="#98F5E1"/>
<path d="M851.235 125.293C842.567 125.876 834.257 121.743 829.491 114.479C824.726 107.214 824.245 97.9459 828.233 90.227C832.22 82.5081 840.058 77.5369 848.74 77.2195C861.882 76.7391 872.978 86.8947 873.659 100.028C874.341 113.161 864.356 124.411 851.235 125.293Z" fill="#B9FBC0"/>
<path d="M487.711 119.245C483.044 120.126 478.266 118.407 475.23 114.755C472.193 111.103 471.375 106.092 473.092 101.663C474.81 97.2353 478.793 94.0862 483.498 93.4368C490.529 92.4662 497.051 97.2807 498.195 104.286C499.338 111.291 494.686 117.929 487.711 119.245Z" fill="#FBF2FC"/>
<path d="M590.516 197.42C578.864 195.79 569.338 193.317 556.926 192.26C521.83 189.27 471.966 192.086 437.824 200.705C443.012 189.83 493.688 166 507.056 161.787C524.91 155.861 543.605 149.412 562.09 145.937C629.184 133.374 703.659 138.709 765.633 168.929C964.192 266.04 1004.98 537.839 889.467 713.689C865.71 749.856 838.4 780.635 805.136 808.217C770.081 837.284 733.57 858.184 690.53 873.248C627.945 895.153 561.314 893.586 501.3 864.687C496.286 862.307 489.467 858.218 485.026 856.252C488.251 854.503 501.004 853.217 502.325 850.897L500.712 849.841L503.433 848.273C555.017 849.603 611.428 834.973 657.902 813.099C663.934 810.261 669.974 807.218 675.978 804.297C676.571 804.631 677.622 805.178 678.297 805.25C708.945 808.514 748.752 797.641 774.309 780.774C818.91 751.337 843.971 694.407 860.277 645.398C866.071 627.983 871.605 611.392 875.182 593.433C894.186 506.291 899.123 411.731 871.367 325.873C862.901 299.686 856.133 283.847 841.469 260.395C817.275 220.683 785.356 191.751 738.404 181.911C707.631 175.462 678.558 177.872 647.78 183.493C632.796 186.23 617.599 188.038 602.984 192.87C599.022 194.181 594.007 195.194 590.516 197.42Z" fill="#98F5E1"/>
<path d="M175.07 317.902C163.682 289.503 161.398 268.718 168.398 238.491C183.647 172.64 252.302 132.19 317.518 145.791C356.772 153.978 383.242 178.418 404.177 211.321C387.684 216.627 372.197 224.727 356.89 232.714C355.376 233.504 352.644 235.145 351.161 235.688C340.602 234.852 289.099 252.317 277.993 256.541C242.561 270.018 204.13 293.55 175.07 317.902Z" fill="#FBF8CC"/>
<path d="M590.516 197.42C594.007 195.194 599.022 194.181 602.984 192.87C617.599 188.038 632.796 186.23 647.78 183.493C678.558 177.872 707.631 175.462 738.404 181.911C785.356 191.751 817.275 220.683 841.469 260.395C856.133 283.847 862.901 299.686 871.367 325.873C899.123 411.731 894.186 506.291 875.182 593.433C871.605 611.392 866.071 627.983 860.277 645.398C843.971 694.407 818.91 751.337 774.309 780.774C748.752 797.641 708.945 808.514 678.297 805.25C677.622 805.178 676.571 804.631 675.978 804.297C679.781 802.205 683.736 799.569 687.423 797.22C707.58 800.972 747.418 787.105 765.899 777.228C817.562 749.619 847.193 671.12 863.139 618.004C869.167 597.926 873.167 577.513 876.664 556.868C890.164 477.163 889.946 392.687 862.279 315.908C857.964 303.934 853.391 291.885 847.328 280.669C841.41 269.723 834.451 259.218 827.118 249.176C805.847 220.043 783.074 200.632 747.783 190.199C717.886 181.361 689.114 182.828 658.722 187.429C648.76 188.937 638.779 190.479 628.928 192.607C622.046 194.094 608.052 196.875 602.432 199.927C598.443 199.176 594.482 198.287 590.516 197.42Z" fill="#FBF2FC"/>
<path d="M602.434 199.926C608.054 196.874 622.048 194.093 628.93 192.606C638.781 190.478 648.762 188.936 658.724 187.428C689.116 182.827 717.888 181.36 747.785 190.198C783.076 200.631 805.849 220.042 827.12 249.175C834.453 259.217 841.412 269.722 847.33 280.668C853.393 291.884 857.966 303.933 862.281 315.907C889.948 392.686 890.166 477.162 876.666 556.867C873.169 577.512 869.169 597.925 863.141 618.003C847.195 671.119 817.564 749.618 765.901 777.227C747.42 787.104 707.582 800.971 687.425 797.219C752.835 759.459 807.233 689.914 830.475 618.282C882.606 457.607 804.035 281.066 647.708 215.425C632.881 209.199 617.73 204.673 602.434 199.926Z" fill="#98F5E1"/>
<path d="M437.826 200.705C471.968 192.086 521.832 189.27 556.928 192.26C569.34 193.317 578.866 195.79 590.518 197.42C594.484 198.287 598.445 199.176 602.434 199.927C617.73 204.674 632.881 209.2 647.708 215.426C804.035 281.067 882.606 457.608 830.475 618.283C807.233 689.915 752.835 759.46 687.425 797.22C683.738 799.569 679.783 802.205 675.98 804.297C669.976 807.218 663.936 810.261 657.904 813.099C611.43 834.973 555.019 849.603 503.435 848.273C495.697 848.004 482.494 847.845 475.34 846.495C434.143 840.677 386.282 824.204 351.809 800.743L352.643 799.7C366.138 810.644 394.712 821.141 410.837 827.64C452.308 844.353 492.851 848.494 537.211 844.169C633.35 834.795 725.18 785.654 781.282 706.144C787.089 697.921 792.529 688.062 797.719 679.28C799.191 678.734 799.177 678.656 800.438 677.674C803.647 675.892 818.778 644.979 818.751 640.42C819.509 639.582 819.991 638.444 820.857 637.415C823.421 634.555 828.112 617.469 829.424 613.006C853.056 532.613 847.156 443.41 808.277 368.68C805.337 363.029 801.373 354.076 796.582 350.046L796.981 348.224C795.352 342.196 786.415 333.965 781.339 330.284C782.262 329.505 781.912 329.996 782.333 328.773C781.786 326.19 777.101 323.334 774.825 322.325C761.166 316.272 747.995 312.126 732.989 312C715.238 311.852 702.624 318.362 687.626 326.507C687.183 325.877 687.066 325.853 686.482 325.333C718.803 305.693 744.207 305.701 778.123 322.176C773.425 314.659 767.175 307.525 761.385 300.861C697.128 226.896 597.616 186.558 499.947 194.934C492.644 195.561 477.209 195.861 470.861 197.866C468.447 198.071 462.832 197.149 461.248 198.037C444.164 200.191 437.475 202.105 421.642 208.315C421.672 208.008 421.54 207.36 421.488 207.019L420.219 206.198C426.166 204.538 431.957 202.613 437.826 200.705Z" fill="url(#paint0_linear_2264_28846)"/>
<path d="M470.859 197.866C477.207 195.861 492.642 195.561 499.945 194.934C597.614 186.558 697.126 226.896 761.383 300.861C767.173 307.525 773.423 314.659 778.121 322.176C744.205 305.701 718.801 305.693 686.48 325.333L681.607 323.619C670.406 276.471 632.045 248.154 590.942 227.433C570.159 216.956 545.671 210.599 523.118 205.374C506.029 201.414 488.151 200.604 470.859 197.866Z" fill="#90DBF4"/>
<path d="M461.248 198.038C462.832 197.15 468.447 198.072 470.861 197.867C488.153 200.605 506.031 201.415 523.12 205.375C545.673 210.6 570.161 216.957 590.944 227.434C632.047 248.155 670.408 276.472 681.609 323.62L686.482 325.334C687.066 325.854 687.183 325.878 687.626 326.508L690.761 330.719C712.574 323.759 738.997 313.574 761.191 320.174C770.173 322.845 774.553 325.647 782.333 328.774C781.912 329.997 782.262 329.506 781.339 330.285C759.516 318.573 741.792 316.193 718.26 323.965C710.344 326.58 697.417 329.558 690.2 332.568C695.797 332.634 704.952 330.942 710.753 330.031C732.448 326.623 753.032 326.175 773.755 334.471C782.502 337.973 789.574 345.07 796.981 348.225L796.582 350.047C787.808 344.151 780.534 339.317 770.665 335.161C749.821 326.382 716.337 329.315 694.109 333.747L692.832 334.014C694.535 340.832 696.057 343.409 697.239 350.9C715.299 362.103 731.205 373.992 746.028 389.193C802.531 447.136 836.252 532.033 825.305 613.2C824.205 621.362 821.877 629.497 820.857 637.416C819.991 638.445 819.509 639.583 818.751 640.421C814.478 646.306 809.473 652.407 807.057 659.3C804.919 665.401 802.4 671.526 800.438 677.675C799.177 678.657 799.191 678.735 797.719 679.281C800.881 672.204 804.575 664.185 806.69 656.762C749.673 725.255 665.664 766.186 579.74 784.128C577.566 784.582 572.265 787.652 570.167 788.777C540.03 804.938 507.225 815.918 473.128 819.532C432.773 823.808 395.871 815.898 358.348 801.175C356.3 800.473 354.821 799.822 352.643 799.701L351.809 800.744C348.023 798.722 344.352 796.103 340.585 794.014C195.808 713.731 154.258 521.707 222.669 377.319C236.975 347.126 254.69 321.639 276.496 297.177L283.548 289.659C286.315 287.645 298.006 275.031 302.225 271.365C318.699 257.049 332.72 246.912 351.16 235.688C352.643 235.145 355.375 233.504 356.889 232.714C372.196 224.727 387.683 216.627 404.176 211.321C409.281 209.497 415.008 207.83 420.219 206.199L421.488 207.02C421.54 207.361 421.672 208.009 421.642 208.316C419.058 209.184 415.435 210.284 412.995 211.289C286.263 250.882 200.015 373.524 193.689 503.935C192.286 532.873 193.755 567.06 200.253 595.377C200.488 597.151 201.426 599.667 202.012 601.437L201.173 593.488C199.934 583.712 200.614 570.621 201.314 560.466C205.833 494.927 233.792 432.366 273.381 380.561C275.831 377.355 285.564 363.149 288.692 362.659C287.821 364.103 286.94 365.695 285.857 366.97C232.364 430.622 196.306 513.375 202.901 597.982C203.726 608.562 205.873 621.82 210.207 631.453C213.122 640.054 225.307 670.474 230.557 675.905C230.76 676.115 230.944 676.342 231.138 676.56C235.043 680.238 239.451 686.315 243.997 690.69C260.513 706.584 287.614 722.543 309.881 728.986C291.734 671.37 315.44 593.691 344 543.072C334.938 544.663 319.862 545.218 310.547 545.154C273.571 544.901 246.602 539.76 213.736 522.9C206.686 548.279 204.938 582.544 207.802 608.57C208.616 615.971 210.517 623.613 211.457 631C207.073 623.882 205.032 591.855 205.149 582.343C205.931 518.498 228.439 455.139 264.539 402.797C269.381 395.777 278.322 383.169 284.286 377.285C283.228 380.145 282.311 381.219 280.412 383.628C254.229 416.685 233.581 453.765 221.112 494.064C218.226 503.392 215.331 511.704 213.697 521.411C248.147 540.258 281.409 544.691 320.383 543.811C326.292 543.677 339.746 542.65 345.147 541.32C362.053 511.794 377.286 488.888 400.92 463.754C402.534 461.997 402.903 461.743 404.878 460.344C404.754 460.798 386.745 481.788 385.198 483.63C369.869 501.882 358.067 520.421 346.656 541.268C351.032 540.766 357.923 539.471 362.09 538.391C365.412 534.063 368.296 528.754 371.509 524.165C397.587 486.931 430.393 451.443 467.625 425.209C486.015 412.47 505.706 402.793 525.946 393.583C553.029 381.258 581.598 370.653 610.964 365.234C630.705 361.59 646.372 360.454 665.785 353.474C662.034 349.645 660.317 347.699 657.799 342.998C621.451 344.603 587.85 347.448 553.556 360.489C512.178 376.224 475.812 398.925 441.823 427.091C438.883 429.526 423.003 443.95 421.119 444.151C421.266 443.884 421.414 443.617 421.561 443.35C469.055 400.353 526.11 362.471 589.628 348.974C611.588 344.308 634.93 342.712 657.321 341.606C656.809 328.653 663.039 324.595 674.755 322.13C649.466 296.952 625.341 279.65 590.346 270.477C490.43 244.284 385.749 282.859 311.372 350.907C308.314 353.705 295.941 366.488 293.773 367.693C294.513 365.748 294.764 365.613 296.227 364.046C349.964 308.819 423.769 268.664 501.246 262.38C559.591 257.648 616.704 267.295 661.751 307.514C664.145 309.651 672.525 318.983 674.556 319.531C675.092 314.879 660.068 302.489 656.052 299.169C620.822 270.053 574.29 258.37 529.369 257.024C513.813 256.558 497.689 258.652 482.288 260.519C424.712 267.644 369.24 293.144 325.163 330.657C315.844 338.588 307.048 346.429 298.171 354.916C298.976 352.993 299.351 352.646 300.672 350.973C307.766 343.566 315.635 337.056 323.411 330.394C373.037 287.876 435.276 261.884 500.482 257.058C510.267 256.251 520.293 255.187 530.134 255.525C583.402 257.359 634.467 273.264 672.168 312.385C639.725 236.606 521.966 200.713 445.795 206.225L443.492 205.726L443.783 205.179L445.457 204.951C485.593 199.842 542.357 212.382 578.95 228.846C589.855 233.752 600.326 239.318 610.599 245.4C627.136 255.192 639.526 263.488 652.323 278.197C661.857 288.26 667.887 299.792 674.051 311.991C676.144 316.134 675.543 321.049 678.431 323.277L679.339 322.909C680.012 319.505 678.136 314.901 676.905 311.719C670.68 295.622 660.667 280.117 648.323 268.051C640.143 260.055 630.7 253.356 621.26 246.963C581.203 218.943 533.609 206.649 485.524 201.622C481.749 201.227 478.186 200.796 474.401 200.167C470.049 199.445 465.634 197.951 461.248 198.038ZM690.983 356.139L689.464 354.24C687.281 354.063 682.222 357.429 679.05 358.376C678.621 363.343 678.244 368.569 677.729 373.508C674.291 408.275 666.763 447.918 654.338 480.743C625.412 557.16 571.68 628.373 506.719 677.968C466.676 708.539 411.138 735.21 360.38 738.865C350.209 739.416 327.81 736.204 316.995 734.658C328.894 772.874 387.276 802.278 424.624 809.355C478.528 819.57 539.945 800.516 584.607 770.449C697.046 694.756 742.907 552.528 715.21 422.665C709.778 397.112 706.189 378.541 690.983 356.139ZM704.361 361.859C702.161 357.529 696.962 351.737 692.186 350.136L691.066 350.358C690.589 351.906 690.994 353.604 691.936 354.921C706.14 374.763 711.636 398.363 716.485 422.082C728.361 480.173 726.405 541.368 709.813 598.376C686.801 676.779 637.433 743.231 565.745 783.349C560.027 786.549 550.304 790.619 545.917 793.334C537.857 796.566 528.88 800.415 520.467 802.829C497.758 809.346 473.568 813.593 449.892 813.4C441.685 813.334 433.842 811.71 425.69 811.239C410.8 811.13 398.485 809.267 383.92 806.26C380.739 805.604 373.734 804.365 370.851 803.349C368.816 802.629 365.905 801.411 363.863 801.867C364.956 803.068 367.965 803.708 369.729 804.22C416.954 820.996 459.659 824.748 508.484 812.113C518.544 809.51 532.154 805.258 541.567 801.015C544.559 799.994 549.799 797.731 552.559 796.232C556.233 794.828 573.658 786.77 576.078 784.377C595.252 775.467 622.018 754.592 637.473 740.063L638.111 740.899C621.451 757.331 601.373 770.767 581.352 782.719C590.085 780.509 598.958 778.891 607.684 776.621C620.853 773.196 634.055 768.738 646.844 764.108C658.88 759.75 670.781 754.242 682.326 748.732C722.647 729.486 758.725 705.525 789.836 673.259C794.662 668.254 799.774 663.227 804.123 657.796C817.565 641.011 817.244 578.581 814.86 557.385C813.406 544.451 810.65 531.746 807.424 519.15C795.026 470.748 771.676 428.011 737.529 391.565C729.026 382.489 720.347 373.838 710.602 366.084C708.903 364.494 706.617 362.191 704.361 361.859ZM238.158 688.904C259.347 710.132 280.575 725.188 310.35 732.274L310.838 731.691C308.969 729.534 298.032 726.189 294.709 724.734C275.092 716.148 256.79 704.856 241.513 689.736C237.878 686.137 234.912 681.633 231.173 678.184C233.033 681.567 235.65 686.019 238.158 688.904ZM311.491 734.31C308.897 733.024 301.038 731.168 297.134 729.8C280.734 724.055 264.058 714.483 251.422 702.676C247.825 699.314 239.908 691.418 238.7 691.152C256.296 723.278 291.949 758.382 321.24 779.776C317.694 771.375 317.576 763.048 315.836 754.149C314.527 747.45 313.055 740.95 311.491 734.31ZM328.607 784.092C325.917 780.453 323.881 776.534 322.612 772.349C320.82 766.437 316.152 736.931 313.143 733.846C313.385 736.34 314.115 739.334 314.879 741.783C318.533 753.502 318.968 766.24 323.144 777.713C324.229 780.691 325.397 783.201 328.607 784.092ZM317.811 741.732C318.973 746.307 320.443 751.968 321.357 756.511C323.547 767.384 322.915 773.41 330.033 782.425C338.871 792.385 350.685 795.206 363.149 800.068C380.214 805.254 404.611 809.148 422.527 810.13C420.084 809.347 417.451 808.684 414.973 808.006C383.048 799.266 351.325 783.711 329.244 758.482C324.825 753.433 321.27 747.508 317.811 741.732ZM672.319 324.136C653.894 329.489 654.955 344.92 670.129 354.638C673.267 356.647 675.562 356.593 679.199 356.648C699.943 349.341 693.856 322.747 672.319 324.136ZM693.686 342.16C692.953 344.671 691.988 346.465 692.845 348.692C693.676 349.112 694.505 349.536 695.341 349.944C696.169 348.387 694.503 343.813 693.686 342.16ZM666.853 354.597C639.297 363.597 612.463 364.577 584.549 372.766C543.703 384.75 502.744 403.023 467.208 426.644C429.563 452.792 388.334 498.458 364.226 537.568C364.77 538.172 364.459 538.037 365.066 538.142C383.841 534.222 401.252 530.19 419.544 524.364C449.515 514.817 476.027 502.116 503.677 487.506C566.017 454.568 620.762 409.884 667.339 357.097C667.735 356.65 667.83 355.897 667.859 355.33L666.853 354.597ZM700.395 354.425C707.298 362.667 715.29 367.806 723.087 374.954C797.276 442.96 835.829 552.836 809.555 651.479L813.751 645.767C815.494 643.193 817.256 640.292 819.444 638.14C822.47 624.151 825.1 610.588 825.827 596.249C830.351 507.064 785.444 415.551 713.493 363.026C710.753 361.026 703.147 355.532 700.395 354.425ZM669.398 356.304C661.242 367.236 645.028 383.011 634.791 392.826C619.217 407.757 597.682 427.173 580.129 440.228C523.155 482.604 454.947 518.878 385.441 534.933C379.021 536.416 368.729 538.951 362.534 539.872C334.741 584.236 314.904 633.931 312.869 686.713C312.317 701.035 311.437 717.016 316.243 730.667C317.704 731.156 318.335 731.364 319.756 732.039C333.133 739.667 374.145 732.407 389.467 727.784C463.83 705.35 530.815 653.831 576.232 591.32C588.987 573.764 599.182 555.439 610.108 536.804C634.987 493.354 653.884 445.847 666.629 397.451C669.74 385.635 672.057 370.783 674.112 358.632C672.546 357.889 670.894 357.162 669.398 356.304ZM675.683 358.071C672.358 373.239 670.403 388.422 666.232 403.455C652.16 454.169 631.982 501.74 605.416 547.177C596.855 561.819 588.337 576.268 578.519 590.127C552.064 627.468 517.369 661.551 478.77 686.245C446.214 707.072 413.138 724.204 375.162 732.457C371.814 733.185 347.038 736.919 346.949 737.051L346.495 736.775L346.155 737.107C347.156 737.467 346.738 737.47 347.376 737.39C409.748 740.761 483.597 698.336 528.142 658.918C614.656 582.364 671.148 478.926 677.262 362.769C677.337 361.348 677.477 360.065 677.071 358.664L675.683 358.071ZM360.166 540.173C355.551 541.037 350.156 542.185 345.561 542.757C340.173 551.809 335.904 560.984 331.622 570.597C310.195 618.69 296.333 674.99 310.465 727.051C311.802 728.382 311.124 728.233 312.493 728.324C313.797 726.234 311.895 718.767 311.69 715.534C308.07 658.173 324.724 601.762 353.617 552.526C354.69 550.698 360.568 541.383 360.533 540.203L360.166 540.173ZM315.66 732.604C317.645 734.601 318.536 734.2 321.276 733.891C318.785 732.844 318.311 732.505 315.66 732.604Z" fill="#101111"/>
<path d="M461.249 198.039C465.635 197.952 470.05 199.446 474.402 200.168C478.187 200.797 481.75 201.228 485.525 201.623C533.61 206.65 581.204 218.944 621.261 246.964C630.701 253.357 640.144 260.056 648.324 268.052C660.668 280.118 670.681 295.623 676.906 311.72C678.137 314.902 680.013 319.506 679.34 322.91L678.432 323.278C675.544 321.05 676.145 316.135 674.052 311.992C667.888 299.793 661.858 288.261 652.324 278.198C639.527 263.489 627.137 255.193 610.6 245.401C600.327 239.319 589.856 233.753 578.951 228.847C542.358 212.383 485.594 199.843 445.458 204.952L443.784 205.18C442.179 205.472 441.365 205.544 439.851 206.225C383.837 236.371 326.556 286.66 301.163 347.442C300.758 348.41 300.597 349.928 300.673 350.974C299.352 352.647 298.977 352.994 298.172 354.917C297.349 357.445 295.392 361.862 296.228 364.047C294.765 365.614 294.514 365.749 293.774 367.694C295.942 366.489 308.315 353.706 311.373 350.908C385.75 282.86 490.431 244.285 590.347 270.478C625.342 279.651 649.467 296.953 674.756 322.131C663.04 324.596 656.81 328.654 657.322 341.607C634.931 342.713 611.589 344.309 589.629 348.975C526.111 362.472 469.056 400.354 421.562 443.351C421.415 443.618 421.267 443.885 421.12 444.152C423.004 443.951 438.884 429.527 441.824 427.092C475.813 398.926 512.179 376.225 553.557 360.49C587.851 347.449 621.452 344.604 657.8 342.999C660.318 347.7 662.035 349.646 665.786 353.475C646.373 360.455 630.706 361.591 610.965 365.235C581.599 370.654 553.03 381.259 525.947 393.584C505.707 402.794 486.016 412.471 467.626 425.21C430.394 451.444 397.588 486.932 371.51 524.166C368.297 528.755 365.413 534.064 362.091 538.392C357.924 539.472 351.033 540.767 346.657 541.269C358.068 520.422 369.87 501.883 385.199 483.631C386.746 481.789 404.755 460.799 404.879 460.345C402.904 461.744 402.535 461.998 400.921 463.755C394.369 463.717 385.068 466.17 378.808 467.64C330.381 479.032 274.678 463.992 280.03 404.164C280.465 399.292 282.025 388.077 280.413 383.629C282.312 381.22 283.229 380.146 284.287 377.286L284.754 376.899C285.53 372.925 285.966 370.998 285.858 366.971C286.941 365.696 287.822 364.104 288.693 362.66C292.379 352.478 296.569 341.124 301.576 331.438C321.032 293.801 352.092 260.518 384.679 233.896C390.763 228.925 397.463 223.884 404.001 219.569C409.887 215.685 411.732 215.992 417.27 210.827C415.387 211.372 414.937 211.472 412.996 211.29C415.436 210.285 419.059 209.185 421.643 208.317C437.476 202.107 444.165 200.193 461.249 198.039Z" fill="#FBF2FC"/>
<path d="M916.756 220.577C911.294 221.957 905.746 218.654 904.357 213.194C902.968 207.735 906.263 202.181 911.72 200.783C917.19 199.382 922.759 202.686 924.151 208.158C925.543 213.63 922.231 219.194 916.756 220.577Z" fill="#B9FBC0"/>
<path d="M439.848 206.225C441.362 205.544 442.176 205.472 443.781 205.18L443.49 205.727L445.793 206.226C443.092 206.557 442.506 206.665 439.848 206.225Z" fill="#6A6C6F"/>
<path d="M300.671 350.971C300.595 349.925 300.756 348.407 301.161 347.439C326.554 286.657 383.835 236.368 439.849 206.222C442.507 206.662 443.093 206.554 445.794 206.223C521.965 200.711 639.724 236.604 672.167 312.383C634.466 273.262 583.401 257.357 530.133 255.523C520.292 255.185 510.266 256.249 500.481 257.056C435.275 261.882 373.036 287.874 323.41 330.392C315.634 337.054 307.765 343.564 300.671 350.971Z" fill="#CFBAF0"/>
<path d="M200.253 595.375C193.755 567.058 192.286 532.871 193.689 503.933C200.015 373.522 286.263 250.88 412.995 211.287C414.936 211.469 415.386 211.369 417.269 210.824C411.731 215.989 409.886 215.682 404 219.566C397.462 223.881 390.762 228.922 384.678 233.893C352.091 260.515 321.031 293.798 301.575 331.435C296.568 341.121 292.378 352.475 288.692 362.657C285.564 363.147 275.831 377.353 273.381 380.559C233.792 432.364 205.833 494.925 201.314 560.464C200.614 570.619 199.934 583.71 201.173 593.486L200.253 595.375Z" fill="#CFBAF0"/>
<path d="M175.07 317.899C204.13 293.547 242.561 270.015 277.993 256.538C289.099 252.314 340.602 234.849 351.161 235.685C332.721 246.909 318.7 257.046 302.226 271.362C298.007 275.028 286.316 287.642 283.549 289.656C279.588 289.203 272.246 292.132 268.132 293.339C174.121 320.927 117.885 404.408 107.314 499.038C83.3844 713.247 262.771 878.835 473.743 857.937C471.431 860.293 461.833 864.635 458.512 865.957C347.498 910.252 214.427 857.563 140.308 769.773C124.263 750.769 105.436 722.147 94.623 699.689C31.4297 568.431 66.5354 414.032 175.07 317.899Z" fill="#CFBAF0"/>
<path d="M296.227 364.045C295.391 361.86 297.348 357.443 298.171 354.915C307.048 346.428 315.844 338.587 325.163 330.656C369.24 293.143 424.712 267.643 482.288 260.518C497.689 258.651 513.813 256.557 529.369 257.023C574.29 258.369 620.822 270.052 656.052 299.168C660.068 302.488 675.092 314.878 674.556 319.53C672.525 318.982 664.145 309.65 661.751 307.513C616.704 267.294 559.591 257.647 501.246 262.379C423.769 268.663 349.964 308.818 296.227 364.045Z" fill="url(#paint1_linear_2264_28846)"/>
<path d="M473.742 857.938C262.77 878.836 83.3833 713.248 107.313 499.039C117.884 404.409 174.12 320.928 268.131 293.34C272.245 292.133 279.587 289.204 283.548 289.657L276.496 297.175C229.563 306.807 178.855 347.182 153.08 386.647C111.834 449.759 102.134 528.701 116.999 601.772C147.118 749.833 282.366 853.161 431.727 854.174C448.992 854.292 465.32 852.131 482.127 851.809L482.407 851.956C483.509 853.402 484.473 854.127 484.654 855.652L484.489 855.957C481.838 856.163 476.141 857.026 473.742 857.938Z" fill="#FBF2FC"/>
<path d="M482.126 851.81C465.319 852.132 448.991 854.293 431.726 854.175C282.365 853.162 147.117 749.834 116.998 601.773C102.133 528.702 111.833 449.76 153.079 386.648C178.854 347.183 229.562 306.808 276.495 297.176C254.689 321.638 236.974 347.125 222.668 377.318C154.257 521.706 195.807 713.73 340.584 794.013C344.351 796.102 348.022 798.721 351.808 800.743C386.281 824.204 434.142 840.677 475.339 846.495C475.899 848.522 480.098 851.376 482.126 851.81Z" fill="#CFBAF0"/>
<path d="M687.625 326.506C702.623 318.361 715.237 311.851 732.988 311.999C747.994 312.125 761.165 316.271 774.824 322.324C777.1 323.333 781.785 326.189 782.332 328.772C774.552 325.645 770.172 322.843 761.19 320.172C738.996 313.572 712.573 323.757 690.76 330.717L687.625 326.506Z" fill="url(#paint2_linear_2264_28846)"/>
<path d="M690.199 332.566C697.416 329.556 710.343 326.578 718.259 323.963C741.791 316.191 759.515 318.571 781.338 330.283C786.414 333.964 795.351 342.195 796.98 348.223C789.573 345.068 782.501 337.971 773.754 334.469C753.031 326.173 732.447 326.621 710.752 330.029C704.951 330.94 695.796 332.632 690.199 332.566Z" fill="#90DBF4"/>
<path d="M679.199 356.646C675.562 356.591 673.267 356.645 670.129 354.636C654.955 344.918 653.894 329.487 672.319 324.134C693.856 322.745 699.943 349.339 679.199 356.646Z" fill="#FBF2FC"/>
<path d="M692.832 334.015L694.109 333.748C716.337 329.316 749.821 326.383 770.665 335.162C780.534 339.318 787.808 344.152 796.582 350.048C801.373 354.078 805.337 363.031 808.277 368.682C847.156 443.412 853.056 532.615 829.424 613.008C828.112 617.471 823.421 634.557 820.857 637.417C821.877 629.498 824.205 621.363 825.305 613.201C836.252 532.034 802.531 447.137 746.028 389.194C731.205 373.993 715.299 362.104 697.239 350.901C696.057 343.41 694.535 340.833 692.832 334.015Z" fill="#90DBF4"/>
<path d="M695.34 349.944C694.504 349.536 693.675 349.112 692.844 348.692C691.987 346.465 692.952 344.671 693.685 342.16C694.502 343.813 696.168 348.387 695.34 349.944Z" fill="#FBF2FC"/>
<path d="M545.917 793.335C550.304 790.62 560.027 786.55 565.745 783.35C637.433 743.232 686.801 676.78 709.813 598.377C726.405 541.369 728.361 480.174 716.485 422.083C711.636 398.364 706.14 374.764 691.936 354.922C690.994 353.605 690.589 351.907 691.066 350.359L692.186 350.137C696.962 351.738 702.161 357.53 704.361 361.86C705.042 364.29 705.767 366.755 706.364 369.204C706.975 371.973 707.307 373.435 708.314 376.158C725.484 422.17 733.301 446.629 733.052 496.703C732.791 549.553 727.383 596.771 704.028 645.305C687.647 679.932 665.285 713.249 637.473 740.064C622.018 754.593 595.252 775.468 576.078 784.378C573.093 783.982 561.328 791.258 557.999 792.919C556.167 793.834 554.084 794.265 552.519 795.424L552.559 796.233C549.799 797.732 544.559 799.995 541.567 801.016L541.521 800.556C539.336 800.087 532.738 805.015 529.015 803.954C528.029 802.593 528.254 803.336 528.334 801.642C531.325 799.336 541.412 796.6 545.87 794.093L545.917 793.335Z" fill="url(#paint3_linear_2264_28846)"/>
<path d="M690.981 356.136C688.008 360.299 680.99 374.328 678.785 375.208C677.731 374.564 678.188 375.003 677.727 373.505C678.242 368.566 678.619 363.34 679.048 358.373C682.22 357.426 687.279 354.06 689.462 354.237L690.981 356.136Z" fill="#FBF8CC"/>
<path d="M365.067 538.143C364.46 538.038 364.771 538.173 364.227 537.569C388.335 498.459 429.564 452.793 467.209 426.645C502.745 403.024 543.704 384.751 584.55 372.767C612.464 364.578 639.298 363.598 666.854 354.598L667.86 355.331C667.831 355.898 667.736 356.651 667.34 357.098C620.763 409.885 566.018 454.569 503.678 487.507C476.028 502.117 449.516 514.818 419.545 524.365C401.253 530.191 383.842 534.223 365.067 538.143Z" fill="#FFCFD2"/>
<path d="M809.555 651.48C835.829 552.837 797.276 442.961 723.087 374.955C715.29 367.807 707.298 362.668 700.395 354.426C703.147 355.533 710.753 361.027 713.493 363.027C785.444 415.552 830.351 507.065 825.827 596.25C825.1 610.589 822.47 624.152 819.444 638.141C817.256 640.293 815.494 643.194 813.751 645.768L809.555 651.48Z" fill="#98F5E1"/>
<path d="M362.534 539.873C368.729 538.952 379.021 536.417 385.441 534.934C454.947 518.879 523.155 482.605 580.129 440.229C597.682 427.174 619.217 407.758 634.791 392.827C645.028 383.012 661.242 367.237 669.398 356.305C670.894 357.163 672.546 357.89 674.112 358.633C672.057 370.784 669.74 385.636 666.629 397.452C653.884 445.848 634.987 493.355 610.108 536.805C599.182 555.44 588.987 573.765 576.232 591.321C530.815 653.832 463.83 705.351 389.467 727.785C374.145 732.408 333.133 739.668 319.756 732.04C318.335 731.365 317.704 731.157 316.243 730.668C311.437 717.017 312.317 701.036 312.869 686.714C314.904 633.932 334.741 584.237 362.534 539.873Z" fill="#FFCFD2"/>
<path d="M677.726 373.506C678.187 375.004 677.73 374.565 678.784 375.209C680.989 374.329 688.007 360.3 690.98 356.137C706.186 378.539 709.775 397.11 715.207 422.663C742.904 552.526 697.043 694.754 584.604 770.447C539.942 800.514 478.525 819.568 424.621 809.353C387.273 802.276 328.891 772.872 316.992 734.656C327.807 736.202 350.206 739.414 360.377 738.863C411.135 735.208 466.673 708.537 506.716 677.966C571.677 628.371 625.409 557.158 654.335 480.741C666.76 447.916 674.288 408.273 677.726 373.506Z" fill="#B9FBC0"/>
<path d="M347.373 737.389C346.735 737.469 347.153 737.466 346.152 737.106L346.492 736.774L346.946 737.05C347.035 736.918 371.811 733.184 375.159 732.456C413.135 724.203 446.211 707.071 478.767 686.244C517.366 661.55 552.061 627.467 578.516 590.126C588.334 576.267 596.852 561.818 605.413 547.176C631.979 501.739 652.157 454.168 666.229 403.454C670.4 388.421 672.355 373.238 675.68 358.07L677.068 358.663C677.474 360.064 677.334 361.347 677.259 362.768C671.145 478.925 614.653 582.363 528.139 658.917C483.594 698.335 409.745 740.76 347.373 737.389Z" fill="url(#paint4_linear_2264_28846)"/>
<path d="M704.359 361.859C706.615 362.191 708.901 364.494 710.6 366.084L709.182 366.938C709.164 369.599 710.958 368.441 710.487 370.482C708.516 370.112 709.371 368.456 707.418 367.942L706.936 368.28L706.362 369.203C705.765 366.754 705.04 364.289 704.359 361.859Z" fill="#8EECF5"/>
<path d="M706.938 368.278L707.42 367.94C709.373 368.454 708.518 370.11 710.489 370.48C710.96 368.439 709.166 369.597 709.184 366.936L710.602 366.082C720.347 373.836 729.026 382.487 737.529 391.563C771.676 428.009 795.026 470.746 807.424 519.148C810.65 531.744 813.406 544.449 814.86 557.383C817.244 578.579 817.565 641.009 804.123 657.794C799.774 663.225 794.662 668.252 789.836 673.257C758.725 705.523 722.647 729.484 682.326 748.73C670.781 754.24 658.88 759.748 646.844 764.106C634.055 768.736 620.853 773.194 607.684 776.619C598.958 778.889 590.085 780.507 581.352 782.717C601.373 770.765 621.451 757.329 638.111 740.897C643.08 736.325 648.287 730.198 652.843 725.247C676.089 699.985 696.516 665.995 709.846 634.5C729.252 589.508 734.009 545.291 734.198 497.077C734.389 448.575 727.203 420.021 709.014 375.179C708.018 372.65 707.181 370.995 706.938 368.278Z" fill="#98F5E1"/>
<path d="M210.208 631.452C205.874 621.819 203.727 608.561 202.902 597.981C196.307 513.374 232.365 430.621 285.858 366.969C285.966 370.996 285.53 372.923 284.754 376.897L284.287 377.284C278.323 383.168 269.382 395.776 264.54 402.796C228.44 455.138 205.932 518.497 205.15 582.342C205.033 591.854 207.074 623.881 211.458 630.999L210.208 631.452Z" fill="url(#paint5_linear_2264_28846)"/>
<path d="M706.363 369.2L706.937 368.277C707.18 370.994 708.017 372.649 709.013 375.178L708.313 376.154C707.306 373.431 706.974 371.969 706.363 369.2Z" fill="#374E43"/>
<path d="M708.314 376.156L709.014 375.18C727.203 420.022 734.389 448.576 734.198 497.078C734.009 545.292 729.252 589.509 709.846 634.501C696.516 665.996 676.089 699.986 652.843 725.248C648.287 730.199 643.08 736.326 638.111 740.898L637.473 740.062C665.285 713.247 687.647 679.93 704.028 645.303C727.383 596.769 732.791 549.551 733.052 496.701C733.301 446.627 725.484 422.168 708.314 376.156Z" fill="#101111"/>
<path d="M213.695 521.412C215.329 511.705 218.224 503.393 221.11 494.065C233.579 453.766 254.227 416.686 280.41 383.629C282.022 388.077 280.462 399.292 280.027 404.164C274.675 463.992 330.378 479.032 378.805 467.64C385.065 466.17 394.366 463.717 400.918 463.755C377.284 488.889 362.051 511.795 345.145 541.321C339.744 542.651 326.29 543.678 320.381 543.812C281.407 544.692 248.145 540.259 213.695 521.412Z" fill="#FFCFD2"/>
<path d="M211.457 630.998C210.517 623.611 208.616 615.969 207.802 608.568C204.938 582.542 206.686 548.277 213.736 522.898C246.602 539.758 273.571 544.899 310.547 545.152C319.862 545.216 334.938 544.661 344 543.07C315.44 593.689 291.734 671.368 309.881 728.984C287.614 722.541 260.513 706.582 243.997 690.688C239.451 686.313 235.043 680.236 231.138 676.558C230.944 676.34 230.76 676.113 230.557 675.903C225.307 670.472 213.122 640.052 210.207 631.451L211.457 630.998Z" fill="#FFCFD2"/>
<path d="M345.562 542.756C350.157 542.184 355.552 541.036 360.167 540.172L360.534 540.202C360.569 541.382 354.691 550.697 353.618 552.525C324.725 601.761 308.071 658.172 311.691 715.533C311.896 718.766 313.798 726.233 312.494 728.323C311.125 728.232 311.803 728.381 310.466 727.05C296.334 674.989 310.196 618.689 331.623 570.596C335.905 560.983 340.174 551.808 345.562 542.756Z" fill="#FFCFD2"/>
<path d="M201.174 593.488L202.013 601.437C201.427 599.667 200.489 597.151 200.254 595.377L201.174 593.488Z" fill="#BFC2CC"/>
<path d="M800.438 677.676C802.4 671.527 804.919 665.402 807.057 659.301C809.473 652.408 814.477 646.307 818.75 640.422C818.777 644.981 803.647 675.894 800.438 677.676Z" fill="#FBF2FC"/>
<path d="M797.717 679.281C792.527 688.063 787.087 697.922 781.28 706.145C725.178 785.655 633.348 834.796 537.209 844.17C492.849 848.495 452.306 844.354 410.835 827.641C394.71 821.142 366.136 810.645 352.641 799.701C354.819 799.822 356.298 800.473 358.346 801.175C395.869 815.898 432.771 823.808 473.126 819.532C507.223 815.918 540.028 804.938 570.165 788.777C572.263 787.652 577.564 784.582 579.738 784.128C665.662 766.186 749.671 725.255 806.688 656.762C804.573 664.185 800.879 672.204 797.717 679.281Z" fill="#90DBF4"/>
<path d="M231.172 678.184C234.911 681.633 237.877 686.137 241.512 689.736C256.789 704.856 275.091 716.148 294.708 724.734C298.031 726.189 308.968 729.534 310.837 731.691L310.349 732.274C280.574 725.188 259.346 710.132 238.157 688.904C235.649 686.019 233.032 681.567 231.172 678.184Z" fill="#FBF2FC"/>
<path d="M238.699 691.152C239.907 691.418 247.824 699.314 251.421 702.676C264.057 714.483 280.733 724.055 297.133 729.8C301.037 731.168 308.896 733.024 311.49 734.31C313.054 740.95 314.526 747.45 315.835 754.149C317.575 763.048 317.693 771.375 321.239 779.776C291.948 758.382 256.295 723.278 238.699 691.152Z" fill="#A3C4F3"/>
<path d="M321.276 733.889C318.536 734.198 317.645 734.599 315.66 732.602C318.311 732.503 318.785 732.842 321.276 733.889Z" fill="#E6DFD5"/>
<path d="M313.141 733.844C316.15 736.929 320.818 766.435 322.61 772.347C323.879 776.532 325.915 780.451 328.605 784.09C325.395 783.199 324.227 780.689 323.142 777.711C318.966 766.238 318.531 753.5 314.877 741.781C314.113 739.332 313.383 736.338 313.141 733.844Z" fill="#BFC2CC"/>
<path d="M330.031 782.423C322.913 773.408 323.545 767.382 321.355 756.509C320.441 751.966 318.971 746.305 317.809 741.73C321.268 747.506 324.823 753.431 329.242 758.48C351.323 783.709 383.046 799.264 414.971 808.004C417.449 808.682 420.082 809.345 422.525 810.128C404.609 809.146 380.212 805.252 363.147 800.066C350.683 795.204 338.869 792.383 330.031 782.423Z" fill="#A3C4F3"/>
<path d="M552.56 796.23L552.52 795.421C554.085 794.262 556.168 793.831 558 792.916C561.329 791.255 573.094 783.979 576.079 784.375C573.659 786.768 556.234 794.826 552.56 796.23Z" fill="#98F5E1"/>
<path d="M370.849 803.347C373.732 804.363 380.737 805.602 383.918 806.258C398.483 809.265 410.798 811.128 425.688 811.237C433.84 811.708 441.683 813.332 449.89 813.398C473.566 813.591 497.756 809.344 520.465 802.827C528.878 800.413 537.855 796.564 545.915 793.332L545.868 794.09C541.41 796.597 531.323 799.333 528.332 801.639C528.252 803.333 528.027 802.59 529.013 803.951C532.736 805.012 539.334 800.084 541.519 800.553L541.565 801.013C532.152 805.256 518.542 809.508 508.482 812.111C459.657 824.746 416.952 820.994 369.727 804.218L369.792 803.804L370.849 803.347Z" fill="#98F5E1"/>
<path d="M370.851 803.347L369.794 803.804L369.729 804.218C367.965 803.706 364.956 803.066 363.863 801.865C365.905 801.409 368.816 802.627 370.851 803.347Z" fill="#6A6C6F"/>
<path d="M475.34 846.496C482.494 847.846 495.697 848.005 503.435 848.274L500.714 849.842C494.638 851.133 488.58 851.573 482.407 851.958L482.127 851.811C480.099 851.377 475.9 848.523 475.34 846.496Z" fill="#98F5E1"/>
<path d="M482.406 851.956C488.579 851.571 494.637 851.131 500.713 849.84L502.326 850.896C501.005 853.216 488.252 854.502 485.027 856.251L484.488 855.957L484.653 855.652C484.472 854.127 483.508 853.402 482.406 851.956Z" fill="#E6DFD5"/>
<defs>
<linearGradient id="paint0_linear_2264_28846" x1="343.83" y1="524.465" x2="845.152" y2="509.626" gradientUnits="userSpaceOnUse">
<stop stop-color="#060808"/>
<stop offset="1" stop-color="#302B2A"/>
</linearGradient>
<linearGradient id="paint1_linear_2264_28846" x1="430.853" y1="258.266" x2="533.495" y2="411.778" gradientUnits="userSpaceOnUse">
<stop stop-color="#DCD3F1"/>
<stop offset="1" stop-color="#F7EDF5"/>
</linearGradient>
<linearGradient id="paint2_linear_2264_28846" x1="735.895" y1="333.454" x2="733.004" y2="311.796" gradientUnits="userSpaceOnUse">
<stop stop-color="#CDDEF6"/>
<stop offset="1" stop-color="#ACE6FC"/>
</linearGradient>
<linearGradient id="paint3_linear_2264_28846" x1="563.462" y1="570.045" x2="723.137" y2="594.509" gradientUnits="userSpaceOnUse">
<stop stop-color="#9DEECA"/>
<stop offset="1" stop-color="#FEF7EC"/>
</linearGradient>
<linearGradient id="paint4_linear_2264_28846" x1="590.333" y1="595.168" x2="476.753" y2="525.974" gradientUnits="userSpaceOnUse">
<stop stop-color="#CAF3C7"/>
<stop offset="1" stop-color="#DFE3D2"/>
</linearGradient>
<linearGradient id="paint5_linear_2264_28846" x1="273.196" y1="512.991" x2="215.236" y2="481.688" gradientUnits="userSpaceOnUse">
<stop stop-color="#CCD9E5"/>
<stop offset="1" stop-color="#E7DCF7"/>
</linearGradient>
</defs>
</svg>
