<svg width="1024" height="1024" viewBox="0 0 1024 1024" fill="none" xmlns="http://www.w3.org/2000/svg">
<path d="M579.456 81.1216C583.015 97.3914 610.02 105.779 623.219 112.904C657.518 131.417 665.362 156.158 660.348 193.311C659.982 196.024 658.816 198.753 655.474 197.944C652.098 194.642 656.036 181.213 655.703 175.611C655.358 169.794 655.459 166.15 654.42 160.218C648.788 123.85 610.739 117.271 585.311 99.5194C568.185 87.5639 568.776 67.3389 592.313 63.628C657.195 60.8683 687.942 111.129 681.964 170.898C681.659 173.951 681.068 179.394 678.617 181.329C671.706 181.667 675.499 170.645 675.919 166.174C680.333 119.205 655.817 72.3812 604.328 69.9321C595.47 69.5108 579.966 68.0827 579.456 81.1216Z" fill="#FBD69A"/>
<path d="M97.9793 306.232C95.6907 307.421 95.1533 307.654 92.7148 306.772C91.7897 305.924 90.8849 304.715 90.9314 303.413C93.9262 219.394 165.951 149.132 243.2 125.913C260.428 120.735 274.88 118.543 291.035 116.169C294.536 115.538 298.017 115.46 298.546 119.859C298.181 121.138 297.106 122.85 295.75 123.012C254.322 127.989 212.69 141.273 178.669 166.208C157.972 181.376 134.445 206.027 121.272 228.389C110.105 247.345 100.435 272.281 98.8204 294.366C98.5065 298.257 98.6595 302.498 97.9793 306.232Z" fill="#87DE9B"/>
<path d="M393.676 171.527C427.977 139.668 468.425 125.735 515.009 127.063C552.401 128.129 594.057 146.967 618.88 174.748C632.814 190.343 642.001 206.874 649.237 226.491C670.218 206.007 699.696 196.104 728.781 198.249C746.804 199.578 763.407 205.183 780.057 211.715C852.625 240.184 913.065 299.242 935.571 374.814C942.216 397.127 945.948 420.61 945.462 443.833C944.135 507.267 911.902 582.165 849.545 606.455C850.532 591.017 850.425 572.861 850.716 557.203L852.444 464.696C863.773 464.146 868.427 458.391 868.872 447.259C869.359 435.055 868.552 419.884 853.325 419.05C853.509 406.686 854.129 393.492 854.148 381.493C854.169 368.002 852.038 351.164 841.601 341.682C827.419 328.796 817.171 326.649 799.176 326.781C799.532 319.523 799.196 286.682 797.898 285.332C788.74 275.808 683.97 277.74 677.166 283.656C675.64 287.94 674.764 320.08 674.457 327.209C667.846 327.027 661.038 327.313 654.414 327.489C650.896 315.949 643.884 301.051 638.797 290.173C631.602 274.786 622.559 264.594 606.278 259.037C603.622 253.333 600.669 245.442 594.645 242.584C592.417 241.526 589.447 241.285 586.988 241.119C576.749 240.431 515.12 240.288 508.636 242.658C502.779 244.799 499.395 250.835 496.784 256.095C484.837 258.509 478.864 261.816 470.206 270.378C468.409 268.361 463.956 257.186 462.163 253.875C449.742 230.933 433.874 209.442 415.353 191.053C408.494 184.243 400.691 178.214 393.676 171.527Z" fill="url(#paint0_linear_2264_28901)"/>
<path d="M176.993 203.985C176.727 201.382 177.935 199.704 179.657 197.801C219.78 153.454 278.236 127.94 337.645 144.147C357.87 149.665 377.336 158.502 393.429 171.516C377.271 185.786 362.107 215.542 356.189 236.637C352.721 248.999 352.066 260.488 350.895 272.988C349.896 283.666 351.869 293.109 351.39 302.11C338.352 302.86 334.338 304.958 332.28 318.346C329.344 315.15 320.739 303.936 318.39 302.183C300.243 288.647 238.152 280.995 226.109 304.804C218.85 306.415 215.977 306.878 213.583 314.235C211.758 316.098 204.686 318.618 202.152 319.734C194.62 323.054 184.428 332.979 182.577 341.312C176.861 367.045 175.931 397.363 174.806 423.619C170.881 424.937 167.983 426.871 166.314 430.947C160.359 445.496 160.712 464.82 164.98 479.771C166.765 486.022 170.368 487.051 175.887 488.306C174.46 511.226 174.625 534.2 174.571 557.156C164.085 563.99 153.594 571.908 145.298 581.295C142.077 584.94 133.536 594.745 132.395 599.344L132.065 599.243C131.552 597.032 125.233 586.735 123.91 583.863C107.398 548.041 95.4841 509.998 90.396 470.885C82.5009 410.194 94.122 347.702 117.653 291.624C122.063 281.115 130.707 262.653 137.748 253.931C137.09 257.802 134.046 262.156 132.628 266.148C125.225 287.012 115.873 314.865 131.119 334.427C134.684 339.002 140.555 336.455 139.951 333.899C139.344 331.332 131.553 323.971 130.972 319.351C127.533 291.995 141.151 261.413 155.581 238.815C180.414 203.456 218.472 179.433 259.805 168.313C267.546 166.23 275.274 163.675 283.227 162.327C286.048 161.849 288.617 161.484 290.269 159.104C290.734 157.355 290.559 157.264 290.059 155.557C287.858 153.241 283.938 154.61 281.044 155.236C240.632 163.977 209.403 178.346 176.993 203.985ZM202.842 220.143C171.504 225.143 133.092 268.438 154.013 301.333C155.78 304.11 160.918 308.574 163.784 304.725C163.982 303.221 163.901 301.54 162.763 300.357C145.733 282.654 161.622 252.002 178.204 240.005C186.718 233.845 201.342 224.024 212.297 228.201C213.265 239.759 192.424 256.735 186.191 267.546C179.879 278.497 173.419 288.848 168.793 300.909C167.143 304.625 163.22 309.349 165.469 313.263C167.236 314.535 166.299 314.266 168.308 314.312C173.13 312.115 175.874 303.921 177.911 299.156C183.542 285.985 191.871 271.62 201.101 260.617C209.985 250.027 237.083 218.131 202.842 220.143Z" fill="#8EECF5"/>
<path d="M137.748 253.932C146.567 238.203 162.624 214.767 176.993 203.986C209.403 178.347 240.632 163.978 281.044 155.237C283.938 154.611 287.858 153.242 290.059 155.558C290.559 157.265 290.734 157.356 290.269 159.105C288.617 161.485 286.048 161.85 283.227 162.328C275.274 163.676 267.546 166.231 259.805 168.314C218.472 179.434 180.414 203.457 155.581 238.816C141.151 261.414 127.533 291.996 130.972 319.352C131.553 323.972 139.344 331.333 139.951 333.9C140.555 336.456 134.684 339.003 131.119 334.428C115.873 314.866 125.225 287.013 132.628 266.149C134.046 262.157 137.09 257.803 137.748 253.932Z" fill="#87DE9B"/>
<path d="M393.43 171.516L393.676 171.527C400.691 178.214 408.494 184.243 415.353 191.053C433.874 209.442 449.742 230.933 462.163 253.875C463.956 257.186 468.409 268.361 470.206 270.378C459.261 282.637 452.944 301.897 448.686 317.72C437.287 317.702 426.113 317.609 414.721 318.015C412.651 298.116 399.762 301.818 383.8 301.896L351.391 302.11C351.87 293.109 349.897 283.666 350.896 272.988C352.067 260.488 352.722 248.999 356.19 236.637C362.108 215.542 377.272 185.786 393.43 171.516Z" fill="#CFBAF0"/>
<path d="M212.295 228.204C201.34 224.027 186.716 233.848 178.202 240.008C161.62 252.005 145.731 282.657 162.761 300.36C163.899 301.543 163.98 303.224 163.782 304.728C160.916 308.577 155.778 304.113 154.011 301.336C133.09 268.441 171.502 225.146 202.84 220.146C237.081 218.134 209.983 250.03 201.099 260.62C191.869 271.623 183.54 285.988 177.909 299.159C175.872 303.924 173.128 312.118 168.306 314.315C166.297 314.269 167.234 314.538 165.467 313.266C163.218 309.352 167.141 304.628 168.791 300.912C173.417 288.851 179.877 278.5 186.189 267.549C192.422 256.738 213.263 239.762 212.295 228.204Z" fill="#87DE9B"/>
<path d="M470.205 270.379C478.863 261.817 484.836 258.51 496.783 256.096C499.394 250.836 502.778 244.8 508.635 242.659C515.119 240.289 576.748 240.432 586.987 241.12C589.446 241.286 592.416 241.527 594.644 242.585C600.668 245.443 603.621 253.334 606.277 259.038C622.558 264.595 631.601 274.787 638.796 290.174C643.883 301.052 650.895 315.95 654.413 327.49C661.037 327.314 667.845 327.028 674.456 327.21C674.763 320.081 675.639 287.941 677.165 283.657C683.969 277.741 788.739 275.809 797.897 285.333C799.195 286.683 799.531 319.524 799.175 326.782C817.17 326.65 827.418 328.797 841.6 341.683C852.037 351.165 854.168 368.003 854.147 381.494C854.128 393.493 853.508 406.687 853.324 419.051C868.551 419.885 869.358 435.056 868.871 447.26C868.426 458.392 863.772 464.147 852.443 464.697L850.715 557.204C850.424 572.862 850.531 591.018 849.544 606.456C849.302 624.48 848.719 642.597 848.196 660.626C847.593 681.429 847.409 702.244 844.913 722.916C843.127 737.709 837.248 747.024 825.809 756.506C822.035 758.768 817.539 761.406 813.11 761.863C803.908 762.812 793.956 762.921 784.709 763.03L741.673 763.372L601.047 764.482L562.575 764.541C557.966 764.524 548.938 764.16 544.69 764.419C537.17 763.639 521.755 763.548 513.914 763.433L457.564 763.061C448.103 762.666 438.614 762.576 429.15 762.869C393.597 762.745 357.594 763.981 322.274 768.036C319.642 768.338 305.976 769.384 304.647 769.761C271.054 772.729 222.216 773.57 194.969 751.874C174.475 735.556 176.672 679.161 175.509 654.186C175.526 621.73 174.551 589.596 174.571 557.157C174.625 534.201 174.46 511.227 175.887 488.307C170.368 487.052 166.765 486.023 164.98 479.772C160.712 464.821 160.359 445.497 166.314 430.948C167.983 426.872 170.881 424.938 174.806 423.62C175.931 397.364 176.861 367.046 182.577 341.313C184.428 332.98 194.62 323.055 202.152 319.735C204.686 318.619 211.758 316.099 213.583 314.236C215.977 306.879 218.85 306.416 226.109 304.805C238.152 280.996 300.243 288.648 318.39 302.184C320.739 303.937 329.344 315.151 332.28 318.347C334.338 304.959 338.352 302.861 351.39 302.111L383.799 301.897C399.761 301.819 412.65 298.117 414.72 318.016C426.112 317.61 437.286 317.703 448.685 317.721C452.943 301.898 459.26 282.638 470.205 270.379ZM563.463 259.433L521.505 259.386C502.859 259.318 487.446 256.508 473.494 270.969C461.48 283.421 455.647 302.033 451.585 318.416L446.797 335.459L586.86 334.499C605.858 334.457 635.996 333.419 653.619 335.164C647.563 316.129 637.023 287.256 623.509 272.779C608.916 257.147 583.918 259.455 563.463 259.433ZM760.781 282.032C740.999 281.311 721.997 280.937 702.256 282.763C711.789 283.143 727.102 283.684 736.474 283.433C748.227 283.652 760.267 283.491 772.041 283.459C774.467 283.899 775.278 284.213 777.636 283.789C776.18 282.478 772.523 282.552 770.415 282.439C768.431 282.575 763.076 282.13 760.781 282.032ZM727.423 286.087C723.469 286.485 718.349 286.193 714.288 286.081C715.226 293.252 714.789 316.102 714.578 324.379L725.386 324.712C725.927 315.38 726.544 306.166 726.544 296.812L727.148 295.406C727.725 300.108 726.977 305.199 727.572 309.667C727.755 313.849 727.427 320.567 727.342 324.929L740.321 325.021L740.589 286.456L728.085 286.384L727.423 286.087ZM273.598 293.444C263.585 292.461 254.19 293.117 244.399 295.236C233.172 299.165 220.106 305.13 238.833 314.153C252.944 320.953 310.012 322.03 316.319 305.459C315.204 297.65 280.709 293.425 273.598 293.444ZM749.057 361.346C722.696 361.669 694.108 360.989 668.064 361.907L679.641 413.705C681.926 424.026 687.204 447.159 687.051 457.437L690.98 462.642C723.962 506.689 736.317 555.903 727.31 610.55C720.535 647.855 701.506 682.972 673.124 708.242C664.086 716.289 653.808 723.359 643.767 730.067C659.714 729.068 676.145 729.725 692.131 729.554C722.376 729.232 752.641 730.536 782.858 728.973C801.881 727.989 819.702 732.507 834.701 717.621C843.317 708.602 842.929 698.222 843.669 686.526C844.064 680.272 844.251 674.005 844.455 667.742L846.088 608.069C848.222 560.866 848.023 510.004 848.958 462.486L850.084 409.979C850.441 395.207 852.022 374.326 848.708 360.53C815.568 360.223 782.267 361.047 749.057 361.346ZM269.393 402.615C258.723 402.973 247.845 403.025 237.167 402.992C216.708 401.828 197.718 401.687 179.59 391.248C179.421 395.978 177.244 421.267 178.155 423.834L179.484 424.764C182.602 430.459 180.6 453.121 181.041 460.702C181.218 463.744 181.303 480.135 180.394 482.452C177.5 489.83 178.631 490.74 178.458 499.266L177.946 527.2C177.567 559.761 177.61 592.189 178.436 624.743C178.56 629.604 178.167 656.937 178.809 659.841C179.152 673.224 179.539 689.374 180.98 702.608C184.071 706.761 186.868 712.333 189.943 716.065C211.614 742.367 259.326 737.215 289.504 736.007L391.243 732.2C415.327 731.281 437.99 729.954 462.126 730.904C419.782 703.87 396.136 677.993 379.153 630.509C363.229 581.88 366.748 542.565 386.88 496.166C388.35 492.868 394.851 481.37 395.177 478.904C398.745 451.912 404.707 425.565 411.595 399.232C395.78 398.7 379.496 399.517 363.64 399.405C332.163 399.182 300.816 401.382 269.393 402.615ZM832.706 723.457C816.671 735.387 802.257 731.803 783.502 732.409C750.57 733.474 717.503 733.051 684.542 733.021L656.742 732.974C653.838 732.97 642.225 732.834 639.846 733.391C633.901 734.783 624.398 740.175 618.176 742.659C594.063 752.288 573.406 755.176 547.784 755.021C543.836 755.101 539.581 754.745 535.612 754.495C518.049 752.993 500.586 748.722 484.086 742.484C478.806 740.488 471.709 735.778 466.998 734.59C464.144 733.87 454.111 733.748 450.619 733.561C423.266 733.161 390.383 735.213 362.757 736.122L310.488 738.017C304.475 738.256 294.593 738.238 288.971 738.732C261.114 740.189 230.306 742.679 204.216 731.078C194.335 726.684 186.327 717.222 181.315 707.856C182.003 721.658 185.966 740.451 197.143 749.398C223.214 770.264 266.898 769.321 298.004 767.302L302.556 766.992C319.795 765.428 336.808 763.318 354.124 762.038C380.702 760.074 406.392 759.987 432.984 759.956C467.432 759.951 501.426 759.315 535.945 760.504L548.774 760.71C604.234 761.097 659.298 758.569 714.609 758.422L781.026 758.503C791.119 758.519 803.356 758.95 813.315 757.883C819.083 757.266 825.456 751.302 829.606 747.387C839.338 737.824 840.702 725.436 842.151 712.669C838.804 717.507 836.988 719.394 832.706 723.457ZM515.651 244.213C506.958 244.875 503.695 248.739 499.954 256.256C519.716 256.736 540.536 255.544 560.453 255.889C570.109 256.056 579.527 255.592 589.231 256.591C593.867 257.139 598.589 257.75 603.224 258.231C601.105 253.316 598.484 247.089 593.214 244.826C589.178 243.094 524.38 243.713 515.651 244.213ZM686.785 285.064C685.323 287.188 684.871 317.535 685.215 322.061C686.626 322.851 687.284 322.839 688.861 323.07C689.07 322.725 689.279 322.38 689.488 322.036C689.417 317.114 690.949 288.505 690.406 285.649C689.165 284.857 688.274 285.043 686.785 285.064ZM682.411 286.076L681.26 286.893L679.85 286.225C678.063 295.9 678.123 311.951 678.046 321.804C679.603 321.944 681.078 322.323 682.334 321.571C682.885 315.929 682.443 309.331 682.617 303.586C682.788 297.917 683.247 292.164 683.009 286.512L682.572 286.054L682.411 286.076ZM692.866 285.636C692.797 298.24 692.771 310.707 692.459 323.311C694.471 323.43 697.65 323.805 699.471 323.289L699.749 322.932C699.526 310.761 699.84 298.338 701.113 286.23L692.866 285.636ZM702.6 285.979L702.237 323.384C704.562 323.655 710.243 324.525 712.227 323.873C712.615 313.592 712.438 295.711 714.211 286.113L702.6 285.979ZM742.541 286.489L742.508 325.056L755.001 325.199C754.728 313.084 754.655 298.609 755.304 286.519C751.099 286.503 746.729 286.42 742.541 286.489ZM757.453 286.703C756.508 297.341 757.404 313.916 757.032 325.253L768.779 325.26C769.9 321.067 770.054 292.205 770.065 286.478C765.951 286.51 761.535 286.461 757.453 286.703ZM771.518 286.511C771.489 299.55 771.305 312.194 770.609 325.23L780.415 324.988C781.678 323.339 780.953 290.795 780.65 286.511H771.518ZM782.842 286.49C783.132 292.906 783.404 299.34 783.457 305.701C783.478 308.187 783.326 322.584 783.778 324.309C785.741 324.828 786.436 324.581 788.511 324.303C788.474 311.633 788.87 299.151 788.883 286.573L782.842 286.49ZM791.046 286.544L791.111 308.821C791.104 312.94 790.838 318.879 791.374 322.825C792.762 323.8 794.136 323.509 795.959 323.325C795.852 316.247 796.364 295.227 794.216 287.764C794.063 287.233 791.826 286.717 791.046 286.544ZM373.816 304.744C367.125 304.789 339.63 302.605 337.488 310.608C339.878 311.645 369.821 310.994 374.423 310.991C386.504 310.919 398.434 310.679 410.511 310.392C406.821 306.297 404.385 304.862 398.478 304.72C390.36 304.525 381.952 304.685 373.816 304.744ZM225.959 307.593C189.303 316.728 269.795 354.599 320.314 323.412C323.15 321.425 325.16 320.053 327.73 317.727C325.042 314.614 322.258 311.266 319.389 308.347C302.821 325.387 238.663 328.102 226.623 307.723L225.959 307.593ZM374.632 314.241C368.127 314.283 341.108 314.02 336.687 315.369C334.564 317.975 335.164 325.956 338.121 326.562C347.409 328.465 363.218 327.569 372.376 327.531C378.76 327.533 405.547 328.233 410.224 327.105C412.383 324.765 411.995 317.256 410.644 314.679C407.16 313.381 380.183 314.11 374.632 314.241ZM212.189 318.481C200.964 322.254 191.585 328.491 186.214 339.443C201.165 345.495 216.006 344.502 231.667 345.746C262.448 348.191 292.722 346.179 323.449 346.14L427.647 346.802C431.752 341.446 434.507 339.025 440.837 336.193C442.561 335.54 443.416 335.588 444.18 333.817C445.993 329.614 446.682 324.946 448.003 320.519L414.995 320.386C414.827 323.353 415.153 327.767 412.526 329.767C410.151 331.575 342.788 331.715 336.799 330.198C335.552 329.882 334.649 329.109 334.002 328.001C332.668 325.715 332.46 322.066 331.851 319.461C327.305 322.365 319.989 327.419 315.549 329.565C294.565 339.705 269.276 340.752 246.798 335.541C232.03 332.117 224.142 329.174 213.649 318.594L212.189 318.481ZM676.72 325.549C677.042 326.135 677.363 326.722 677.685 327.308C710.761 338.551 755.408 350.819 788.483 334.04C791.824 331.65 793.376 330.356 795.96 326.941C780.793 328.575 765.644 328.111 750.446 327.999C728.754 327.838 707.247 326.801 685.6 325.587C683.043 325.443 679.241 325.254 676.72 325.549ZM798.796 329.044C778.817 353.401 727.129 345.075 700.713 337.534C682.669 332.382 675.572 328.039 655.487 330.356C657.756 336.831 657.833 334.757 661.556 340.017C664.31 343.908 666.122 353.591 667.241 358.542C674.535 358.3 682.289 357.651 689.441 357.536C722.714 356.384 755.147 355.155 788.478 355.371C808.989 355.504 827.106 353.799 847.935 356.686C842.703 344.598 833.161 337.574 821.181 332.336C814.17 329.27 806.377 328.964 798.796 329.044ZM634.785 337.24L504.009 338.313L467.385 338.153C459.33 338.084 450.617 337.452 442.64 338.684C439.38 339.188 436.583 340.92 434.252 343.222C422.199 355.131 401.882 452.849 398.602 474.276C413.353 451.622 431.442 433.463 454.267 418.946C496.492 392.499 540.608 385.606 589.391 396.363C630.882 405.513 654.756 424.548 683.768 453.531C679.573 424.803 672.648 395.944 665.959 367.673C664.045 359.584 662.157 350.694 659.97 342.793C653.027 336.069 644.328 337.341 634.785 337.24ZM185.017 342.246C181.628 356.241 180.818 372.665 179.704 387.157C198.333 401.21 230.158 399.301 252.569 399.614C274.289 399.918 296.382 398.258 318.104 397.576C349.157 396.443 381.032 396.078 412.13 396.409L413.583 391.057C417.505 376.793 421.558 363.831 426.503 349.885C380.101 349.879 334.45 348.318 287.938 350.214C268.236 351.017 200.958 349.533 185.017 342.246ZM750.383 357.233C744.85 357.365 739.525 357.376 734.053 358.37C754.387 359.033 774.245 357.979 794.331 358.422C796.461 358.319 805.565 358.014 807.078 357.59C794.827 356.621 779.823 357.262 767.501 357.273C763.175 357.277 754.031 356.925 750.383 357.233ZM536.289 395.898C438.27 403.416 364.874 488.921 372.295 586.948C379.717 684.974 465.15 758.454 563.184 751.129C661.354 743.794 734.959 658.216 727.527 560.053C720.095 461.89 634.445 388.369 536.289 395.898ZM853.045 422.355C852.926 431.206 852.024 453.398 852.714 461.081C855.495 463.16 859.61 460.534 861.783 458.502C866.691 450.847 866.05 441.219 864.487 432.64C863.201 425.578 859.733 422.818 853.045 422.355ZM173.468 427.034C171.142 428.479 169.861 429.627 168.724 432.201C163.604 443.787 162.411 473.255 170.433 483.306C172.321 484.211 172.731 484.585 174.738 484.518C180.865 481.7 176.941 451.298 178.03 444.229C178.453 441.482 178.294 429.799 177.257 427.351C175.869 426.717 174.993 426.931 173.468 427.034Z" fill="black"/>
<path d="M499.953 256.257C503.694 248.74 506.957 244.876 515.65 244.214C524.379 243.714 589.177 243.095 593.213 244.827C598.483 247.09 601.104 253.317 603.223 258.232C598.588 257.751 593.866 257.14 589.23 256.592C579.526 255.593 570.108 256.057 560.452 255.89C540.535 255.545 519.715 256.737 499.953 256.257Z" fill="#F6B9D1"/>
<path d="M451.586 318.414C455.648 302.031 461.481 283.419 473.495 270.967C487.447 256.506 502.86 259.316 521.506 259.384L563.464 259.431C559.816 261.838 555.639 263.417 551.709 265.37C533.278 274.527 516.133 285.231 498.723 296.107C483.907 305.361 467.239 311.174 451.586 318.414Z" fill="#F6B9D1"/>
<path d="M563.463 259.432C583.918 259.454 608.916 257.146 623.509 272.778C637.023 287.255 647.563 316.128 653.619 335.163C635.996 333.418 605.858 334.456 586.86 334.498L446.797 335.458L451.585 318.415C467.238 311.175 483.906 305.362 498.722 296.108C516.132 285.232 533.277 274.528 551.708 265.371C555.638 263.418 559.815 261.839 563.463 259.432Z" fill="#F1C0E8"/>
<path d="M736.472 283.433C727.1 283.684 711.787 283.143 702.254 282.763C721.995 280.937 740.997 281.311 760.779 282.032C761.475 282.224 761.964 282.381 762.694 282.392L763.128 282.816C755.522 283.378 742.939 282.324 736.472 283.433Z" fill="#F5E7EA"/>
<path d="M760.78 282.031C763.075 282.129 768.43 282.574 770.414 282.438L772.04 283.458C760.266 283.49 748.226 283.651 736.473 283.432C742.94 282.323 755.523 283.377 763.129 282.815L762.695 282.391C761.965 282.38 761.476 282.223 760.78 282.031Z" fill="#A9A3A6"/>
<path d="M770.414 282.438C772.522 282.55 776.179 282.477 777.635 283.788C775.277 284.212 774.466 283.898 772.04 283.458L770.414 282.438Z" fill="#5A414A"/>
<path d="M688.861 323.071C687.284 322.84 686.626 322.852 685.215 322.062C684.871 317.536 685.323 287.189 686.785 285.065C688.274 285.044 689.165 284.858 690.406 285.65C690.949 288.506 689.417 317.115 689.488 322.037C689.279 322.381 689.07 322.726 688.861 323.071Z" fill="#F5E7EA"/>
<path d="M678.047 321.805C678.124 311.952 678.064 295.901 679.851 286.226L681.261 286.894L682.412 286.077L682.573 286.055L683.01 286.513C683.248 292.165 682.789 297.918 682.618 303.587C682.444 309.332 682.886 315.93 682.335 321.572C681.079 322.324 679.604 321.945 678.047 321.805Z" fill="#F5E7EA"/>
<path d="M692.457 323.312C692.769 310.708 692.795 298.241 692.864 285.637L701.111 286.231C699.838 298.339 699.524 310.762 699.747 322.933L699.469 323.29C697.648 323.806 694.469 323.431 692.457 323.312Z" fill="#F5E7EA"/>
<path d="M702.234 323.385L702.597 285.98L714.208 286.114C712.435 295.712 712.612 313.593 712.224 323.874C710.24 324.526 704.559 323.656 702.234 323.385Z" fill="#F5E7EA"/>
<path d="M714.285 286.082C718.346 286.194 723.466 286.486 727.42 286.088C726.848 289.17 726.62 293.628 726.541 296.813C726.541 306.167 725.924 315.381 725.383 324.713L714.575 324.38C714.786 316.103 715.223 293.253 714.285 286.082Z" fill="#F5E7EA"/>
<path d="M727.422 286.086L728.084 286.383C727.992 290.583 728.06 306.449 727.571 309.666C726.976 305.198 727.724 300.107 727.147 295.405L726.543 296.811C726.622 293.626 726.85 289.168 727.422 286.086Z" fill="#262223"/>
<path d="M728.083 286.383L740.587 286.455L740.319 325.02L727.34 324.928C727.425 320.566 727.753 313.848 727.57 309.666C728.059 306.449 727.991 290.583 728.083 286.383Z" fill="#F5E7EA"/>
<path d="M742.508 325.055L742.541 286.488C746.729 286.419 751.099 286.502 755.304 286.518C754.655 298.608 754.728 313.083 755.001 325.198L742.508 325.055Z" fill="#F5E7EA"/>
<path d="M757.029 325.252C757.401 313.915 756.505 297.34 757.45 286.702C761.532 286.46 765.948 286.509 770.062 286.477C770.051 292.204 769.897 321.066 768.776 325.259L757.029 325.252Z" fill="#F5E7EA"/>
<path d="M770.609 325.231C771.305 312.195 771.489 299.551 771.518 286.512H780.65C780.953 290.796 781.678 323.34 780.415 324.989L770.609 325.231Z" fill="#F5E7EA"/>
<path d="M788.509 324.301C786.434 324.579 785.739 324.826 783.776 324.307C783.324 322.582 783.476 308.185 783.455 305.699C783.402 299.338 783.13 292.904 782.84 286.488L788.881 286.571C788.868 299.149 788.472 311.631 788.509 324.301Z" fill="#F5E7EA"/>
<path d="M795.959 323.324C794.136 323.508 792.762 323.799 791.374 322.824C790.838 318.878 791.104 312.939 791.111 308.82L791.046 286.543C791.826 286.716 794.063 287.232 794.216 287.763C796.364 295.226 795.852 316.246 795.959 323.324Z" fill="#F5E7EA"/>
<path d="M273.597 293.443C271.54 293.591 269.574 293.703 267.513 293.784L267.254 294.514C264.243 294.478 262.93 296.481 258.245 295.181C253.84 293.958 249.163 295.045 244.996 297.041L244.398 295.235C254.189 293.116 263.584 292.46 273.597 293.443Z" fill="#FFCFD2"/>
<path d="M267.255 294.516L267.514 293.786C269.575 293.705 271.541 293.593 273.598 293.445C280.709 293.426 315.204 297.651 316.319 305.46C310.012 322.031 252.944 320.954 238.833 314.154C220.106 305.131 233.172 299.166 244.399 295.237L244.997 297.043C242.44 299.289 240.928 301.304 238.796 303.945C245.052 300.081 247.897 298.783 254.978 297.05C253.064 299.079 249.663 302.161 250.704 305.246C252.574 305.195 256.372 299.765 258.338 297.706C258.953 297.747 261.164 297.946 261.509 298C265.086 298.563 258.801 307.498 260.721 311.396L261.524 311.537C262.739 310.177 265.563 298.011 267.255 294.516ZM270.616 295.073C270.49 299.332 269.94 306.823 271.923 310.489L272.563 310.425C273.95 306.545 273.441 302.306 273.316 298.144L278.986 298.411C279.685 302.886 279.956 306 282.033 310.065L282.641 310.045C283.318 305.424 282.142 302.99 281.551 298.492C283.65 298.668 285.248 298.761 287.317 299.204C287.185 301.76 289.661 306.096 292.378 306.588C293.627 304.398 291.009 301.115 289.802 299.087C292.361 299.769 298.532 302.159 300.262 301.549L300.29 300.838L299.94 301.717L300.105 300.616C292.998 295.237 279.648 295.57 270.616 295.073Z" fill="#F5E7EA"/>
<path d="M244.998 297.043C249.165 295.047 253.842 293.96 258.247 295.183C262.932 296.483 264.245 294.48 267.256 294.516C265.564 298.011 262.74 310.177 261.525 311.537L260.722 311.396C258.802 307.498 265.087 298.563 261.51 298C261.165 297.946 258.954 297.747 258.339 297.706C256.373 299.765 252.575 305.195 250.705 305.246C249.664 302.161 253.065 299.079 254.979 297.05C247.898 298.783 245.053 300.081 238.797 303.945C240.929 301.304 242.441 299.289 244.998 297.043Z" fill="black"/>
<path d="M273.315 298.141C273.44 302.303 273.949 306.542 272.562 310.422L271.922 310.486C269.939 306.82 270.489 299.329 270.615 295.07C279.647 295.567 292.997 295.234 300.104 300.613L299.939 301.714L300.289 300.835L300.261 301.546C298.531 302.156 292.36 299.766 289.801 299.084C291.008 301.112 293.626 304.395 292.377 306.585C289.66 306.093 287.184 301.757 287.316 299.201C285.247 298.758 283.649 298.665 281.55 298.489C282.141 302.987 283.317 305.421 282.64 310.042L282.032 310.062C279.955 305.997 279.684 302.883 278.985 298.408L273.315 298.141Z" fill="black"/>
<path d="M374.423 310.99C369.821 310.993 339.878 311.644 337.488 310.607C339.63 302.604 367.125 304.788 373.816 304.743C381.952 304.684 390.36 304.524 398.478 304.719C404.385 304.861 406.821 306.296 410.511 310.391C398.434 310.678 386.504 310.918 374.423 310.99Z" fill="#FCC397"/>
<path d="M320.313 323.413C269.794 354.6 189.302 316.729 225.958 307.594L226.622 307.724C238.662 328.103 302.82 325.388 319.388 308.348C322.257 311.267 325.041 314.615 327.729 317.728C325.159 320.054 323.149 321.426 320.313 323.413Z" fill="#E3D2F5"/>
<path d="M372.375 327.53C363.217 327.568 347.408 328.464 338.12 326.561C335.163 325.955 334.563 317.974 336.686 315.368C341.107 314.019 368.126 314.282 374.631 314.24C380.182 314.109 407.159 313.38 410.643 314.678C411.994 317.255 412.382 324.764 410.223 327.104C405.546 328.232 378.759 327.532 372.375 327.53Z" fill="#FCC397"/>
<path d="M186.215 339.442C191.586 328.49 200.965 322.253 212.19 318.48L213.65 318.593C224.143 329.173 232.031 332.116 246.799 335.54C269.277 340.751 294.566 339.704 315.55 329.564C319.99 327.418 327.306 322.364 331.852 319.46C332.461 322.065 332.669 325.714 334.003 328C334.65 329.108 335.553 329.881 336.8 330.197C342.789 331.714 410.152 331.574 412.527 329.766C415.154 327.766 414.828 323.352 414.996 320.385L448.004 320.518C446.683 324.945 445.994 329.613 444.181 333.816C443.417 335.587 442.562 335.539 440.838 336.192C434.508 339.024 431.753 341.445 427.648 346.801L323.45 346.139C292.723 346.178 262.449 348.19 231.668 345.745C216.007 344.501 201.166 345.494 186.215 339.442Z" fill="#F1C0E8"/>
<path d="M788.482 334.041C755.407 350.82 710.76 338.552 677.684 327.309C677.362 326.723 677.041 326.136 676.719 325.55C679.24 325.255 683.042 325.444 685.599 325.588C707.246 326.802 728.753 327.839 750.445 328C765.643 328.112 780.792 328.576 795.959 326.942C793.375 330.357 791.823 331.651 788.482 334.041Z" fill="#E3D2F5"/>
<path d="M655.484 330.358C675.569 328.041 682.666 332.384 700.71 337.536C727.126 345.077 778.814 353.403 798.793 329.046C806.374 328.966 814.167 329.272 821.178 332.338C833.158 337.576 842.7 344.6 847.932 356.688C827.103 353.801 808.986 355.506 788.475 355.373C755.144 355.157 722.711 356.386 689.438 357.538C682.286 357.653 674.532 358.302 667.238 358.544C666.119 353.593 664.307 343.91 661.553 340.019C657.83 334.759 657.753 336.833 655.484 330.358Z" fill="#F1C0E8"/>
<path d="M398.602 474.274C401.882 452.847 422.199 355.129 434.252 343.22C436.583 340.918 439.38 339.186 442.64 338.682C450.617 337.45 459.33 338.082 467.385 338.151L504.009 338.311L634.785 337.238C644.328 337.339 653.027 336.067 659.97 342.791C662.157 350.692 664.045 359.582 665.959 367.671C672.648 395.942 679.573 424.801 683.768 453.529C654.756 424.546 630.882 405.511 589.391 396.361C540.608 385.604 496.492 392.497 454.267 418.944C431.442 433.461 413.353 451.62 398.602 474.274Z" fill="#F1C0E8"/>
<path d="M179.703 387.157C180.817 372.665 181.627 356.241 185.016 342.246C200.957 349.533 268.235 351.017 287.937 350.214C334.449 348.318 380.1 349.879 426.502 349.885C421.557 363.831 417.504 376.793 413.582 391.057L412.129 396.409C381.031 396.078 349.156 396.443 318.103 397.576C296.381 398.258 274.288 399.918 252.568 399.614C230.157 399.301 198.332 401.21 179.703 387.157Z" fill="#F1C0E8"/>
<path d="M734.051 358.37C739.523 357.376 744.848 357.365 750.381 357.233C754.029 356.925 763.173 357.277 767.499 357.273C779.821 357.262 794.825 356.621 807.076 357.59C805.563 358.014 796.459 358.319 794.329 358.422C774.243 357.979 754.385 359.033 734.051 358.37Z" fill="#5A414A"/>
<path d="M749.055 361.344C782.265 361.045 815.566 360.221 848.706 360.528C852.02 374.324 850.439 395.205 850.082 409.977L848.956 462.484C848.021 510.002 848.22 560.864 846.086 608.067C842.472 608.753 840.069 609.397 836.526 610.442C832.887 565.237 817.359 501.258 793.927 462.044C796.363 462.078 798.587 461.988 801.013 461.893C804.118 461.886 807.294 462.272 809.755 460.433C814.051 452.792 813.088 401.482 813.142 390.325C813.154 387.91 811.952 383.17 809.024 382.843C791 380.834 767.81 381.396 750.106 381.315C753.019 379.866 763.033 382.319 765.849 380.092C766.249 373.526 751.514 366.537 749.055 361.344Z" fill="#FBD69A"/>
<path d="M668.062 361.909C694.107 360.991 722.695 361.671 749.056 361.348C751.515 366.541 766.249 373.53 765.849 380.096C763.033 382.323 753.02 379.87 750.107 381.319L722.241 381.445C714.291 381.46 702.706 380.607 695.815 384.791C691.622 390.695 692.378 404.41 692.377 411.814C692.375 425.523 691.02 439.383 692.059 453.008C692.24 455.137 694.063 457.709 695.405 459.308C693.687 460.886 692.953 461.38 690.979 462.644L687.049 457.439C687.202 447.161 681.925 424.028 679.64 413.707L668.062 361.909Z" fill="#F1C0E8"/>
<path d="M695.406 459.304C694.064 457.705 692.241 455.133 692.06 453.004C691.021 439.379 692.376 425.519 692.378 411.81C692.379 404.406 691.624 390.691 695.817 384.787C702.708 380.603 714.292 381.456 722.242 381.441L750.108 381.315C767.812 381.396 791.002 380.834 809.026 382.843C811.954 383.17 813.156 387.91 813.144 390.325C813.09 401.482 814.053 452.792 809.757 460.433C807.296 462.272 804.12 461.886 801.015 461.893C793.043 461.308 782.692 461.694 774.489 461.729L728.356 461.903C719.192 461.932 703.314 463.146 695.406 459.304ZM706.979 384.727C703.302 384.945 696.689 384.934 696.196 390.018C695.521 398.893 695.486 407.925 695.338 416.838C695.163 427.353 693.981 438.042 694.539 448.538C695.007 457.325 696.295 458.783 704.803 458.784C714.678 458.785 724.46 458.503 734.284 458.457L798.251 458.331C800.013 458.353 806.083 458.898 807.209 457.519C809.712 454.455 811.636 394.497 810.222 388.354C809.939 387.127 809.558 386.752 808.711 385.887C804.709 385.06 791.404 384.892 786.723 384.719C760.297 383.747 733.332 385.206 706.979 384.727Z" fill="black"/>
<path d="M798.251 458.333L734.284 458.459C724.46 458.505 714.678 458.787 704.803 458.786C696.295 458.785 695.007 457.327 694.539 448.54C693.981 438.044 695.163 427.355 695.338 416.84C695.486 407.927 695.521 398.895 696.196 390.02C696.689 384.936 703.302 384.947 706.979 384.729C733.332 385.208 760.297 383.749 786.723 384.721C791.404 384.894 804.709 385.062 808.711 385.889C809.558 386.754 809.939 387.129 810.222 388.356C811.636 394.499 809.712 454.457 807.209 457.521C806.083 458.9 800.013 458.355 798.251 458.333ZM786.783 393.726L734.378 395.251C730.847 395.361 715.507 394.845 713.349 396.424C712.146 398.119 710.817 401.071 710.81 403.205C710.767 416.241 709.392 429.894 710.133 442.806C710.392 447.314 719.942 446.206 723.235 446.123L766.002 445.979C771.966 445.966 791.591 446.776 795.848 444.178C798.007 439.677 797.619 428.72 797.768 423.265C798.005 414.59 799.829 405.019 797.762 396.632C796.852 393.2 789.161 393.653 786.783 393.726Z" fill="#F5E7EA"/>
<path d="M179.591 391.246C197.719 401.685 216.709 401.826 237.168 402.99C234.911 404.67 230.572 405.736 227.709 406.353C211.879 409.763 193.963 417.215 179.485 424.762L178.156 423.832C177.245 421.265 179.422 395.976 179.591 391.246Z" fill="#F1C0E8"/>
<path d="M723.235 446.124C719.942 446.207 710.392 447.315 710.133 442.807C709.392 429.895 710.767 416.242 710.81 403.206C710.817 401.072 712.146 398.12 713.349 396.425C715.507 394.846 730.847 395.362 734.378 395.252L786.783 393.727C789.161 393.654 796.852 393.201 797.762 396.633C799.829 405.02 798.005 414.591 797.768 423.266C797.619 428.721 798.007 439.678 795.848 444.179C791.591 446.777 771.966 445.967 766.002 445.98L723.235 446.124ZM783.56 397.23C776.708 397.392 716.477 397.59 715.158 398.963C713.85 400.325 713.486 403.234 713.278 405.043C712.613 410.808 713.021 416.907 712.906 422.722C712.799 428.091 712.119 433.665 712.588 439.015C712.674 440 712.794 441.541 713.654 442.15C716.11 443.887 720.987 443.164 723.876 443.111C732.293 443.013 789.354 443.628 793.453 442.018C794.826 438.339 795.892 403.707 795.075 399.038C793.12 396.414 786.639 397.147 783.56 397.23Z" fill="black"/>
<path d="M563.183 751.129C465.149 758.454 379.716 684.974 372.294 586.948C364.873 488.921 438.269 403.416 536.288 395.898C634.444 388.369 720.094 461.889 727.526 560.052C734.958 658.215 661.353 743.794 563.183 751.129ZM536.328 416.051C449.739 423.616 385.628 499.866 393.04 586.468C400.453 673.07 476.59 737.315 563.204 730.056C650.036 722.778 714.477 646.409 707.046 559.591C699.615 472.772 623.133 408.466 536.328 416.051Z" fill="#D8DBF1"/>
<path d="M723.873 443.112C720.984 443.165 716.107 443.888 713.651 442.151C712.791 441.542 712.671 440.001 712.585 439.016C712.116 433.666 712.796 428.092 712.903 422.723C713.018 416.908 712.61 410.809 713.275 405.044C713.483 403.235 713.847 400.326 715.155 398.964C716.474 397.591 776.705 397.393 783.557 397.231C786.636 397.148 793.117 396.415 795.072 399.039C795.889 403.708 794.823 438.34 793.45 442.019C789.351 443.629 732.29 443.014 723.873 443.112Z" fill="#F5E7EA"/>
<path d="M269.391 402.615C300.814 401.382 332.161 399.182 363.638 399.405C379.494 399.517 395.778 398.7 411.593 399.232C404.705 425.565 398.743 451.912 395.175 478.904C394.849 481.37 388.348 492.868 386.878 496.166C381.497 486.918 377.732 477.47 371.663 468.409C352.531 439.845 321.033 417.369 288.212 407.603C284.221 406.415 271.571 404.828 269.391 402.615Z" fill="#F1C0E8"/>
<path d="M237.165 402.99C247.843 403.023 258.721 402.971 269.391 402.613C271.571 404.826 284.221 406.413 288.212 407.601C321.033 417.367 352.531 439.843 371.663 468.407C377.732 477.468 381.497 486.916 386.878 496.164C366.746 542.563 363.227 581.878 379.151 630.507C376.202 632.711 374.504 635.783 372.026 638.409C345.967 666.032 317.904 685.099 279.422 690.76C244.986 696.097 209.006 684.774 182.962 661.869C181.611 660.681 180.517 659.616 178.807 659.839C178.165 656.935 178.558 629.602 178.434 624.741C177.608 592.187 177.565 559.759 177.944 527.198L178.456 499.264C178.629 490.738 177.498 489.828 180.392 482.45C181.301 480.133 181.216 463.742 181.039 460.7C180.598 453.119 182.6 430.457 179.482 424.762C193.96 417.215 211.876 409.763 227.706 406.353C230.569 405.736 234.908 404.67 237.165 402.99ZM307.002 514.596C289.373 519.041 281.032 532.887 285.933 550.584C290.319 566.418 301.029 574.801 317.886 572.916C355.12 563.833 343.33 511.827 307.002 514.596Z" fill="#90DBF4"/>
<path d="M563.204 730.054C476.59 737.313 400.453 673.068 393.04 586.466C385.628 499.864 449.739 423.614 536.328 416.049C623.133 408.464 699.615 472.77 707.046 559.589C714.477 646.407 650.036 722.776 563.204 730.054ZM543.874 418.073C458.358 421.364 391.698 493.35 394.976 578.867C398.254 664.384 470.23 731.055 555.747 727.79C641.283 724.525 707.973 652.53 704.694 566.994C701.415 481.458 629.409 414.78 543.874 418.073Z" fill="black"/>
<path d="M555.746 727.791C470.229 731.056 398.253 664.385 394.975 578.868C391.697 493.351 458.357 421.365 543.873 418.074C629.408 414.781 701.414 481.459 704.693 566.995C707.972 652.531 641.282 724.526 555.746 727.791ZM539.581 428.539C460.016 433.558 399.582 502.121 404.59 581.687C409.598 661.252 478.152 721.697 557.719 716.7C637.301 711.703 697.76 643.131 692.751 563.55C687.742 483.968 619.162 423.518 539.581 428.539Z" fill="url(#paint1_linear_2264_28901)"/>
<path d="M861.783 458.502C859.61 460.534 855.496 463.16 852.715 461.081C852.025 453.398 852.927 431.206 853.046 422.355C859.734 422.818 863.202 425.578 864.488 432.64C866.051 441.219 866.691 450.847 861.783 458.502Z" fill="#FDE4CF"/>
<path d="M170.433 483.305C162.411 473.254 163.604 443.786 168.724 432.2C169.861 429.626 171.142 428.478 173.468 427.033C174.993 426.93 175.869 426.716 177.257 427.35C178.294 429.798 178.453 441.481 178.03 444.228C176.941 451.297 180.865 481.699 174.738 484.517C172.731 484.584 172.321 484.21 170.433 483.305Z" fill="#F1C0E8"/>
<path d="M557.72 716.702C478.153 721.699 409.599 661.254 404.591 581.689C399.583 502.123 460.017 433.56 539.582 428.541C619.163 423.52 687.743 483.97 692.752 563.552C697.761 643.133 637.302 711.705 557.72 716.702ZM537.522 431.148C459.425 437.231 401.06 505.495 407.188 583.589C413.315 661.682 481.613 720.007 559.703 713.835C637.729 707.668 695.997 639.438 689.875 561.408C683.752 483.378 615.555 425.071 537.522 431.148Z" fill="black"/>
<path d="M559.703 713.833C481.613 720.005 413.315 661.68 407.188 583.587C401.06 505.493 459.425 437.229 537.522 431.146C615.555 425.069 683.752 483.376 689.875 561.406C695.997 639.436 637.729 707.666 559.703 713.833ZM539.972 456.178C476.312 460.568 428.301 515.794 432.809 579.446C437.318 643.098 492.633 691.006 556.276 686.379C619.753 681.765 667.507 626.626 663.011 563.142C658.515 499.657 603.465 451.8 539.972 456.178Z" fill="#D8DBF1"/>
<path d="M556.276 686.381C492.633 691.008 437.318 643.1 432.809 579.448C428.301 515.796 476.312 460.57 539.972 456.18C603.465 451.802 658.515 499.659 663.011 563.144C667.507 626.628 619.753 681.767 556.276 686.381ZM521.121 462.181C459.113 474.12 420.593 539.589 439.266 599.886C441.882 608.33 447.882 623.005 453.063 630.628C459.989 641.944 470.689 653.066 481.223 661.118C507.375 679.616 537.255 686.998 568.991 681.779C628.359 672.015 671.152 613.092 659.316 553.464C646.11 486.937 587.124 449.724 521.121 462.181Z" fill="black"/>
<path d="M695.406 459.305C703.314 463.147 719.192 461.933 728.356 461.904L774.489 461.73C782.692 461.695 793.043 461.309 801.015 461.894C798.589 461.989 796.365 462.079 793.929 462.045C817.361 501.259 832.889 565.238 836.528 610.443C813.473 617.246 777.091 619.175 753.215 615.607C744.824 614.353 735.536 611.519 727.31 610.549C736.317 555.902 723.962 506.688 690.98 462.641C692.954 461.377 693.688 460.883 695.406 459.305Z" fill="#87DE9B"/>
<path d="M521.121 462.182C587.124 449.725 646.11 486.938 659.316 553.465C671.152 613.093 628.359 672.016 568.991 681.78C537.255 686.999 507.375 679.617 481.223 661.119C482.087 655.239 480.754 642.6 483.621 637.103C503.77 655.349 515.199 663.357 544.656 664.526C549.107 664.703 568.871 662.835 571.483 660.264L571.35 659.167C570.488 658.715 569.709 658.255 568.646 658.548C545.983 664.797 521.104 661.782 501.347 648.704C494.895 644.434 489.463 639.024 483.927 633.487C485.884 629.984 485.979 628.661 488.631 624.694C491.804 627.716 494.921 630.539 498.35 633.273C547.784 672.686 617.031 640.627 626.349 579.87C630.91 581.822 635.415 585.058 640.089 586.299C637.476 595.987 634.211 603.764 628.924 612.333C627.524 614.601 624.488 618.573 624.839 620.766L625.772 621.301C627.425 620.747 627.086 620.966 628.084 619.518C679.366 545.108 604.783 457.981 519.92 476.862C516.172 470.979 518.443 467.481 521.121 462.182Z" fill="url(#paint2_linear_2264_28901)"/>
<path d="M453.063 630.627C447.882 623.004 441.882 608.329 439.266 599.885C420.593 539.588 459.113 474.119 521.121 462.18C518.443 467.479 516.172 470.977 519.92 476.86C495.086 484.673 473.707 500.42 461.278 523.77C454.908 535.737 449.039 556.181 452.941 569.484L453.507 570.071C455.1 568.23 454.312 559.931 454.718 557.028C455.055 552.906 455.648 549.075 456.552 545.016C464.901 507.515 499.144 480.415 536.595 477.154C595.251 472.047 654.064 525.307 640.089 586.297C635.415 585.056 630.91 581.82 626.349 579.868C626.621 576.416 627.957 566.331 625.582 564.203L624.541 564.351C623.872 565.551 623.615 576.06 623.437 578.218C621.631 600.113 609.043 619.813 591.467 632.637C586.443 629.807 575.353 631.161 569.756 627.255C595.455 616.33 610.745 589.638 607.166 561.943C603.588 534.248 582.016 512.318 554.384 508.284C526.752 504.25 499.811 519.098 488.464 544.614C477.118 570.13 484.138 600.08 505.642 617.895C499.515 620.678 496.822 621.27 490.131 622.457C484.933 617.154 482.413 614.1 478.651 607.715C476.908 604.756 474.927 597.603 473.963 596.631C468.487 602.194 483.831 620.831 488.631 624.692C485.979 628.659 485.884 629.982 483.927 633.485C482.041 631.313 478.748 626.959 475.981 626.596L475.337 625.733C472.135 625.473 468.74 628.647 465.279 629.644C461.485 630.738 456.267 629.969 453.063 630.627ZM537.41 493.209C515.941 495.198 499.208 503.482 485.282 520.079C474.635 532.77 466.416 553.745 469.804 570.296C471.337 565.321 471.763 559.929 472.708 554.806C474.718 543.91 478.612 533.035 485.623 524.322C504.457 500.07 532.608 491.511 561.941 498.435C568.029 499.872 579.667 508.977 583.663 508.274L584.192 507.401C583.481 505.419 578.431 503.051 576.454 501.852C564.619 494.675 551.185 492.03 537.41 493.209Z" fill="#98F5E1"/>
<path d="M519.918 476.859C604.781 457.978 679.364 545.105 628.082 619.515C627.084 620.963 627.423 620.744 625.77 621.298L624.837 620.763C624.486 618.57 627.522 614.598 628.922 612.33C634.209 603.761 637.474 595.984 640.087 586.296C654.062 525.306 595.249 472.046 536.593 477.153C499.142 480.414 464.899 507.514 456.55 545.015C455.646 549.074 455.053 552.905 454.716 557.027C454.31 559.93 455.098 568.229 453.505 570.07L452.939 569.483C449.037 556.18 454.906 535.736 461.276 523.769C473.705 500.419 495.084 484.672 519.918 476.859Z" fill="black"/>
<path d="M469.804 570.295C466.416 553.744 474.635 532.769 485.282 520.078C499.208 503.481 515.941 495.197 537.41 493.208C551.185 492.029 564.619 494.674 576.454 501.851C578.431 503.05 583.481 505.418 584.192 507.4L583.663 508.273C579.667 508.976 568.029 499.871 561.941 498.434C532.608 491.51 504.457 500.069 485.623 524.321C478.612 533.034 474.718 543.909 472.708 554.805C471.763 559.928 471.337 565.32 469.804 570.295Z" fill="black"/>
<path d="M505.641 617.897C484.137 600.082 477.117 570.132 488.463 544.616C499.81 519.1 526.751 504.252 554.383 508.286C582.015 512.32 603.587 534.25 607.165 561.945C610.744 589.64 595.454 616.332 569.755 627.257C548.314 636.371 523.581 632.76 505.641 617.897ZM539.545 510.188C485.183 515.611 467.332 582.071 510.093 616.916C512.537 615.567 513.767 615.273 516.385 614.499C503.56 603.69 495.033 593.762 493.476 576.161C489.305 529.003 543.839 504.485 579.088 533.247C587.664 540.244 591.315 548.053 595.091 558.273C597.14 566.504 598.528 574.024 596.444 582.428C589.483 610.501 561.233 627.523 533.114 621.378C527.613 620.176 523.696 618.961 518.933 615.789L513.073 618.227C527.22 626.677 546.001 631.001 562.264 626.92C592.076 619.439 611.113 587.25 603.73 557.506C596.731 529.311 568.629 508.396 539.545 510.188ZM537.062 524.675C497.839 529.904 482.493 576.674 509.846 604.788C512.638 607.658 515.534 610.114 518.632 612.649C522.404 610.856 526.55 608.989 530.238 607.095C553.146 594.393 566.173 579.402 573.719 553.833C575.305 548.461 576.428 543.084 576.559 537.461C565.146 527.669 552.302 522.62 537.062 524.675ZM579.782 540.191C573.323 576.679 555.777 599.664 521.708 614.678C527.308 617.234 529.66 617.933 535.733 618.848C540.358 619.419 544.154 619.714 548.822 619.298C558.256 618.458 567.186 615.429 574.691 609.531C595.166 593.437 597.098 561.466 581.093 541.587C580.411 540.742 580.599 540.975 579.782 540.191Z" fill="black"/>
<path d="M510.095 616.913C467.334 582.068 485.185 515.608 539.547 510.185C568.631 508.393 596.733 529.308 603.732 557.503C611.115 587.247 592.078 619.436 562.266 626.917C546.003 630.998 527.222 626.674 513.075 618.224L518.935 615.786C523.698 618.958 527.615 620.173 533.116 621.375C561.235 627.52 589.485 610.498 596.446 582.425C598.53 574.021 597.142 566.501 595.093 558.27C591.317 548.05 587.666 540.241 579.09 533.244C543.841 504.482 489.307 529 493.478 576.158C495.035 593.759 503.562 603.687 516.387 614.496C513.769 615.27 512.539 615.564 510.095 616.913Z" fill="#98F5E1"/>
<path d="M317.886 572.919C301.029 574.804 290.319 566.421 285.933 550.587C281.032 532.89 289.373 519.044 307.002 514.599C343.33 511.83 355.12 563.836 317.886 572.919ZM306.929 517.737C295.139 519.141 286.673 529.772 287.945 541.577C289.217 553.383 299.752 561.967 311.571 560.827C319.335 560.078 326.098 555.215 329.278 548.093C332.459 540.971 331.567 532.689 326.942 526.408C322.318 520.127 314.675 516.815 306.929 517.737ZM332.739 529.251C334.467 536.783 334.667 546.117 330.08 552.497C319.885 566.677 305.524 566.538 292.221 558.346C293.909 560.603 295.202 562.535 297.301 564.432C317.618 579.674 341.252 563.185 337.296 539.206C336.872 536.637 334.74 531.01 332.739 529.251Z" fill="black"/>
<path d="M311.573 560.824C299.754 561.964 289.219 553.38 287.947 541.574C286.675 529.769 295.141 519.138 306.931 517.734C314.677 516.812 322.32 520.124 326.944 526.405C331.569 532.686 332.461 540.968 329.28 548.09C326.1 555.212 319.337 560.075 311.573 560.824Z" fill="#90DBF4"/>
<path d="M518.635 612.646C515.537 610.111 512.641 607.655 509.849 604.785C482.496 576.671 497.842 529.901 537.065 524.672C552.305 522.617 565.149 527.666 576.562 537.458C576.431 543.081 575.308 548.458 573.722 553.83C566.176 579.399 553.149 594.39 530.241 607.092C526.553 608.986 522.407 610.853 518.635 612.646Z" fill="#98F5E1"/>
<path d="M292.223 558.345C305.526 566.537 319.887 566.676 330.082 552.496C334.669 546.116 334.469 536.782 332.741 529.25C334.742 531.009 336.874 536.636 337.298 539.205C341.254 563.184 317.62 579.673 297.303 564.431C295.204 562.534 293.911 560.602 292.223 558.345Z" fill="#8EECF5"/>
<path d="M521.711 614.674C555.78 599.66 573.326 576.675 579.785 540.188C580.602 540.971 580.414 540.738 581.096 541.583C597.101 561.462 595.169 593.433 574.694 609.527C567.189 615.425 558.259 618.454 548.825 619.294C544.157 619.71 540.361 619.415 535.736 618.844C529.663 617.929 527.311 617.23 521.711 614.674Z" fill="#98F5E1"/>
<path d="M132.395 599.344C133.536 594.745 142.077 584.94 145.298 581.295C153.594 571.908 164.085 563.99 174.571 557.156C174.551 589.595 175.526 621.729 175.509 654.185C164.885 646.06 149.878 627.022 142.498 615.728C139.244 610.746 136.154 604.586 132.679 599.734L132.395 599.344Z" fill="#90DBF4"/>
<path d="M626.348 579.868C617.03 640.625 547.783 672.684 498.349 633.271C494.92 630.537 491.803 627.714 488.63 624.692C483.83 620.831 468.486 602.194 473.962 596.631C474.926 597.603 476.907 604.756 478.65 607.715C482.412 614.1 484.932 617.154 490.13 622.457C518.889 651.379 557.855 656.705 591.466 632.637C609.042 619.813 621.63 600.113 623.436 578.218C623.614 576.06 623.871 565.551 624.54 564.351L625.581 564.203C627.956 566.331 626.62 576.416 626.348 579.868Z" fill="black"/>
<path d="M356.424 826.581C353.928 828.382 346.263 832.405 343.216 833.96C323.955 843.791 304.826 850.74 283.005 852.307C239.386 855.441 202.317 840.876 169.372 812.883C132.331 781.409 112.809 736.33 108.844 688.494C106.772 663.488 111.831 635.826 123.304 613.653C125.585 609.243 128.821 602.999 132.065 599.242L132.395 599.343L132.679 599.733C136.154 604.585 139.244 610.745 142.498 615.727C149.878 627.021 164.885 646.059 175.509 654.184C176.672 679.159 174.475 735.554 194.969 751.872C222.216 773.568 271.054 772.727 304.647 769.759C306.753 771.639 317.968 788.989 321.249 792.9C331.817 805.502 343.576 816.428 356.424 826.581Z" fill="#E3D2F5"/>
<path d="M836.526 610.445C840.069 609.4 842.472 608.756 846.086 608.07L844.453 667.743C844.249 674.006 844.062 680.273 843.667 686.527C842.927 698.223 843.315 708.603 834.699 717.622C833.615 710.937 837.476 682.191 837.784 673.759C838.605 651.278 838.135 632.723 836.526 610.445Z" fill="#E6DFD5"/>
<path d="M727.309 610.551C735.535 611.521 744.823 614.355 753.214 615.609C777.09 619.177 813.472 617.248 836.527 610.445C838.136 632.723 838.606 651.278 837.785 673.759C837.477 682.191 833.616 710.937 834.7 717.622C819.701 732.508 801.88 727.99 782.857 728.974C752.64 730.537 722.375 729.233 692.13 729.555C676.144 729.726 659.713 729.069 643.766 730.068C653.807 723.36 664.085 716.29 673.123 708.243C701.505 682.973 720.534 647.856 727.309 610.551Z" fill="#B9FBC0"/>
<path d="M490.133 622.456C496.824 621.269 499.517 620.678 505.644 617.895C523.584 632.758 548.317 636.369 569.758 627.255C575.355 631.161 586.445 629.807 591.469 632.637C557.858 656.705 518.892 651.378 490.133 622.456Z" fill="#E3D2F5"/>
<path d="M453.062 630.628C456.266 629.97 461.485 630.739 465.279 629.645C468.74 628.648 472.135 625.474 475.337 625.734L475.98 626.597C477.86 630.353 480.417 634.341 483.621 637.102C480.754 642.599 482.087 655.238 481.223 661.118C470.689 653.066 459.989 641.944 453.062 630.628Z" fill="#D8DBF1"/>
<path d="M475.98 626.598C478.747 626.961 482.04 631.315 483.926 633.487C489.462 639.024 494.894 644.434 501.346 648.704C521.103 661.782 545.982 664.797 568.645 658.548C569.708 658.255 570.487 658.715 571.349 659.167L571.482 660.264C568.87 662.835 549.106 664.703 544.655 664.526C515.198 663.357 503.769 655.349 483.62 637.103C480.416 634.342 477.86 630.354 475.98 626.598Z" fill="black"/>
<path d="M279.422 690.761C317.904 685.1 345.967 666.033 372.026 638.41C374.504 635.784 376.202 632.712 379.151 630.508C396.134 677.992 419.78 703.869 462.124 730.903C437.988 729.953 415.325 731.28 391.241 732.199L289.502 736.006C288.966 731.291 286.596 725.105 285.227 720.422C283.018 712.868 279.637 698.515 279.422 690.761Z" fill="#F1C0E8"/>
<path d="M178.809 659.842C180.519 659.619 181.613 660.684 182.964 661.872C209.008 684.777 244.988 696.1 279.424 690.763C279.639 698.517 283.02 712.87 285.229 720.424C286.598 725.107 288.968 731.293 289.504 736.008C259.326 737.216 211.614 742.368 189.943 716.066C186.868 712.334 184.071 706.762 180.98 702.609C179.539 689.375 179.152 673.225 178.809 659.842Z" fill="#E3D2F5"/>
<path d="M181.312 707.855C186.325 717.221 194.333 726.683 204.214 731.077C230.304 742.678 261.112 740.188 288.969 738.731C289.468 738.956 289.967 739.181 290.466 739.405C295.077 747.335 298.337 756.844 302.126 765.263C302.32 765.693 302.521 766.823 302.553 766.991L298.001 767.301C266.895 769.32 223.212 770.263 197.141 749.397C185.964 740.45 182.001 721.657 181.312 707.855Z" fill="#E3D2F5"/>
<path d="M832.704 723.456C836.986 719.393 838.802 717.506 842.149 712.668C840.7 725.435 839.336 737.823 829.604 747.386C828.934 743.304 832.282 729.978 832.704 723.456Z" fill="#E6DFD5"/>
<path d="M547.781 755.021C573.403 755.176 594.06 752.288 618.173 742.659C624.395 740.175 633.898 734.783 639.843 733.391C642.222 732.834 653.835 732.97 656.739 732.974L684.539 733.021C717.5 733.051 750.567 733.474 783.499 732.409C802.254 731.803 816.668 735.387 832.703 723.457C832.281 729.979 828.933 743.305 829.603 747.387C825.453 751.302 819.08 757.266 813.312 757.883C803.353 758.95 791.116 758.519 781.023 758.503L714.606 758.422C659.295 758.569 604.231 761.097 548.771 760.71C548.939 758.763 549.42 757.922 549.192 755.859L547.781 755.021Z" fill="#B9FBC0"/>
<path d="M288.969 738.734C294.591 738.24 304.473 738.258 310.486 738.019L362.755 736.124C390.381 735.215 423.264 733.163 450.617 733.563C450.247 738.187 435.824 754.476 432.982 759.958C406.39 759.989 380.7 760.076 354.122 762.04C336.806 763.32 319.793 765.43 302.554 766.994C302.522 766.826 302.321 765.696 302.127 765.266C298.338 756.847 295.077 747.338 290.466 739.408C289.967 739.184 289.468 738.959 288.969 738.734Z" fill="#F1C0E8"/>
<path d="M450.619 733.562C454.111 733.75 464.144 733.872 466.998 734.592C471.709 735.78 478.806 740.49 484.086 742.486C500.586 748.724 518.049 752.995 535.612 754.497C535.75 756.313 536.01 758.732 535.945 760.506C501.426 759.317 467.432 759.953 432.984 759.958C435.826 754.476 450.249 738.187 450.619 733.562Z" fill="#FBD69A"/>
<path d="M535.609 754.496C539.578 754.746 543.833 755.102 547.781 755.022L549.192 755.86C549.42 757.923 548.939 758.764 548.771 760.711L535.942 760.505C536.007 758.731 535.747 756.312 535.609 754.496Z" fill="#D8DBF1"/>
<path d="M544.689 764.421C548.937 764.162 557.965 764.526 562.574 764.543L601.046 764.484L741.672 763.374L784.708 763.032C793.955 762.923 803.907 762.814 813.109 761.865C817.538 761.408 822.034 758.77 825.808 756.508C815.474 801.197 802.563 838.209 770.749 871.846C764.975 877.95 757.874 883.426 752.577 889.317C721.503 867.37 732.299 819.426 770.124 813.976C774.484 813.348 784.601 813.928 787.466 811.966C788.364 810.569 788.585 810.501 788.572 808.827C786.437 804.753 777.963 805.544 773.944 805.868C752.705 807.58 734.685 821.447 728.812 842.009C723.647 860.089 730.883 883.16 747.394 893.105C741.293 897.324 733.534 902.466 727.759 907.085C718.6 897.859 707.085 880.883 703.739 869.261C698.008 849.351 703.784 823.622 723.054 813.49C726.978 811.426 733.219 811.27 734.164 806.565C732.455 800.954 722.706 804.501 719.285 806.489C692.634 821.976 688.28 860.353 703.464 885.459C706.257 890.077 715.89 907.371 720.029 909.537C715.318 912.568 709.189 915.169 704.042 917.258C670.823 930.677 632.903 927.816 599.7 916.044C551.044 898.794 512.896 867.446 484.027 824.814L484.086 824.617C491.935 819.962 514.83 792.424 520.277 783.825C523.116 779.342 529.216 768.121 532.636 764.584C536.829 764.652 540.489 764.741 544.689 764.421Z" fill="#B9FBC0"/>
<path d="M429.148 762.868C438.612 762.575 448.101 762.665 457.562 763.06C463.824 781.185 469.957 799.127 479.398 815.883C480.985 818.7 482.634 821.725 484.085 824.614L484.026 824.811C456.341 845.411 421.639 855.128 387.792 843.486C381.074 841.175 361.713 831.205 356.793 826.588C377.47 811.816 394.512 798.067 412.667 780.209C417.717 775.242 425.532 768.748 429.148 762.868Z" fill="#FBD69A"/>
<path d="M304.645 769.76C305.974 769.383 319.64 768.337 322.272 768.035C357.592 763.98 393.595 762.744 429.148 762.868C425.532 768.748 417.717 775.242 412.667 780.209C394.512 798.067 377.47 811.816 356.793 826.588L356.422 826.582C343.574 816.429 331.815 805.503 321.247 792.901C317.966 788.99 306.751 771.64 304.645 769.76Z" fill="#F1C0E8"/>
<path d="M457.562 763.062L513.913 763.435C521.754 763.55 537.169 763.641 544.689 764.421C540.489 764.741 536.828 764.651 532.635 764.583C529.215 768.12 523.115 779.342 520.276 783.825C514.829 792.424 491.935 819.962 484.086 824.617C482.635 821.728 480.985 818.702 479.398 815.885C469.957 799.129 463.825 781.188 457.562 763.062Z" fill="#87DE9B"/>
<path d="M720.029 909.534C715.89 907.368 706.257 890.074 703.464 885.456C688.28 860.35 692.634 821.973 719.285 806.486C722.706 804.498 732.455 800.951 734.164 806.562C733.219 811.267 726.978 811.423 723.054 813.487C703.784 823.619 698.008 849.348 703.739 869.258C707.085 880.88 718.6 897.856 727.759 907.082C741.664 919.712 765.844 929.285 784.659 928.402C833.44 926.113 850.95 861.379 853.983 821.715C854.284 817.775 852.443 808.318 857.787 807.331C863.176 809.764 862.227 819.223 861.73 824.16C857.756 863.608 840.597 920.18 798.397 933.149C771.379 941.452 740.035 927.37 720.029 909.534Z" fill="#87DE9B"/>
<path d="M747.393 893.102C730.882 883.157 723.646 860.086 728.811 842.006C734.684 821.444 752.704 807.577 773.943 805.865C777.962 805.541 786.436 804.75 788.571 808.824C788.584 810.498 788.363 810.566 787.465 811.963C784.6 813.925 774.483 813.345 770.123 813.973C732.298 819.423 721.502 867.367 752.576 889.314C765.509 895.989 776.595 903.389 791.674 898.408C800.738 895.414 806.449 889.288 810.651 881.027C821.893 858.93 819.874 834.757 820.087 810.87C820.102 809.103 821.176 807.395 822.668 806.472C829.013 806.652 827.267 817.799 827.471 822.72C829.715 876.907 808.688 932.407 747.393 893.102Z" fill="#87DE9B"/>
<defs>
<linearGradient id="paint0_linear_2264_28901" x1="909.386" y1="291.932" x2="472.282" y2="425.12" gradientUnits="userSpaceOnUse">
<stop stop-color="#FCDE99"/>
<stop offset="1" stop-color="#F6B9D0"/>
</linearGradient>
<linearGradient id="paint1_linear_2264_28901" x1="441.094" y1="679.67" x2="657.923" y2="464.856" gradientUnits="userSpaceOnUse">
<stop stop-color="#E9D6F1"/>
<stop offset="1" stop-color="#B7EEF7"/>
</linearGradient>
<linearGradient id="paint2_linear_2264_28901" x1="602.197" y1="669.287" x2="507.146" y2="469.818" gradientUnits="userSpaceOnUse">
<stop stop-color="#FAE2F1"/>
<stop offset="1" stop-color="#C5EEF3"/>
</linearGradient>
</defs>
</svg>
