<svg width="1024" height="1024" viewBox="0 0 1024 1024" fill="none" xmlns="http://www.w3.org/2000/svg">
<path d="M438.617 147.678C438.139 140.089 438.141 133.305 443.46 127.198C448.094 121.877 454.808 119.532 461.696 119.208C468.647 118.881 475.198 120.611 481.611 123.161C492.276 127.401 502.441 133.391 512.36 139.118C530.667 149.799 548.625 161.066 566.208 172.901C571.607 176.516 578.005 179.846 582.936 183.97C568.365 190.345 549.858 195.465 534.249 198.857C525.954 200.659 517.529 201.991 509.282 203.988C508.819 204.004 508.543 204.047 508.104 203.955C506.238 203.566 471.325 181.18 467.347 178.37C461.717 174.394 455.28 169.821 450.432 164.941C445.486 159.964 442.939 154.033 439.104 148.382L438.617 147.678Z" fill="#8EECF5"/>
<path d="M276.632 245.274C269.83 223.681 270.131 201.69 280.227 181.111C290.751 159.659 309.614 145.078 331.998 137.469C366.889 125.609 406.172 131.599 438.618 147.678L439.105 148.382C442.94 154.033 445.487 159.964 450.433 164.941C455.281 169.821 461.718 174.394 467.348 178.37C471.326 181.18 506.239 203.566 508.105 203.955C508.544 204.047 508.82 204.004 509.283 203.988C531.124 217.793 571.054 240.212 596.277 245.993C603.046 247.544 611.028 248.183 617.847 246.566C623.837 245.145 628.477 241.94 631.643 236.618C634.354 232.123 635.046 226.693 633.548 221.662C632.106 216.636 629.138 213.401 626.446 209.171C635.093 212.435 643.329 216.754 651.97 220.027C668.606 226.329 685.504 231.705 701.873 238.77C765.428 266.198 811.531 305.73 840.32 369.57C845.591 381.259 851.126 393.445 855.199 405.607C838.052 408.829 809.874 395.47 791.905 392.799C772.197 389.869 755.086 390.759 735.365 391.867C729.217 392.213 718.801 391.483 713.666 395.24C707.426 390.571 701.775 385.007 695.78 380.01C681.878 368.423 668.159 358.61 652.272 349.944C658.424 343.672 676.44 328.407 679.419 322.092C679.175 318.529 675.367 315.687 672.993 313.319C679.043 307.032 684.749 300.537 690.586 294.061C686.496 288.967 675.109 277.308 669.425 274.719C665.212 274.913 653.473 289.202 650.211 292.771C648.744 292.465 646.546 291.873 645.143 292.616C642.425 294.054 638.969 298.581 636.752 300.859C628.958 308.868 597.318 345.244 590.58 348.779L590.224 348.467C594.626 339.437 612.632 322.866 620.469 314.542C623.077 311.77 626.349 308.884 628.175 305.53C627.664 304.417 627.491 304.464 626.369 303.925C623.632 304.522 587.634 344.885 583.573 349.318C570.876 350.049 558.665 353.718 546.126 355.356C545.991 355.195 545.87 355.021 545.721 354.872C544.219 353.362 488.863 354.16 482.175 353.989C469.483 351.559 455.854 351.904 442.896 349.913C430.17 347.958 417.803 343.658 405.135 341.869L405.055 341.625C405.996 337.91 406.451 334.11 405.987 330.289C405.087 322.863 400.605 316.725 394.771 312.304C387.207 306.489 377.626 303.951 368.175 305.261C357.859 306.689 351.067 311.858 344.897 320.008C342.578 319.104 340.347 317.622 338.191 316.371C314.033 302.353 297.031 285.834 283.851 261.059C281.25 256.17 278.056 250.62 276.632 245.274ZM456.138 266.873C453.128 267.353 450.616 269.429 449.577 272.294C448.539 275.16 449.138 278.363 451.142 280.66C453.146 282.956 456.239 283.984 459.219 283.343C463.658 282.388 466.53 278.072 465.695 273.609C464.86 269.145 460.622 266.159 456.138 266.873Z" fill="#98F5E1"/>
<path d="M583.18 183.983C590.723 181.255 598.456 178.98 606.048 176.369C620.177 171.508 634.276 166.267 648.664 162.228C706.942 145.871 769.463 141.887 825.44 168.328C867.06 187.988 904.667 224.12 920.284 268.011C930.385 296.402 930.548 330.253 917.495 357.748C907.825 378.115 892.417 395.376 870.766 403.035C865.854 404.801 860.676 405.713 855.456 405.731L855.193 405.61C851.12 393.448 845.585 381.262 840.314 369.573C811.525 305.733 765.422 266.201 701.867 238.773C685.498 231.708 668.6 226.332 651.964 220.03C643.323 216.757 635.087 212.438 626.44 209.174C619.066 203.344 602.732 195.425 593.615 190.363C590.185 188.459 586.108 186.587 583.18 183.983Z" fill="#CFBAF0"/>
<path d="M582.935 183.973L583.184 183.983C586.112 186.587 590.189 188.459 593.619 190.363C602.736 195.425 619.07 203.344 626.444 209.174C629.136 213.404 632.104 216.639 633.546 221.665C635.044 226.696 634.352 232.126 631.641 236.621C628.475 241.943 623.835 245.148 617.845 246.569C611.026 248.186 603.044 247.547 596.275 245.996C571.052 240.215 531.122 217.796 509.281 203.991C517.528 201.994 525.953 200.662 534.248 198.86C549.857 195.468 568.364 190.348 582.935 183.973Z" fill="#90DBF4"/>
<path d="M60.525 676.956C59.8127 669.633 57.5199 662.375 55.7046 655.252C53.2983 645.81 51.083 636.378 49.6101 626.738C44.0955 590.646 41.6629 555.117 42.6915 518.621C43.0837 504.706 43.7084 490.933 45.6353 477.13C46.9898 467.427 49.1431 457.758 51.3329 448.214C55.2291 431.234 60.1537 414.872 68.0091 399.257C78.5942 378.595 92.3936 359.745 108.892 343.412C114.328 337.985 120.481 332.975 126.369 328.029C169.86 291.506 222.724 263.034 276.628 245.273C278.052 250.619 281.246 256.169 283.847 261.058C297.027 285.833 314.029 302.352 338.187 316.37C340.343 317.621 342.574 319.103 344.893 320.007C341.08 327.219 339.474 335.081 341.792 343.095C344.084 351.02 350.165 357.419 357.353 361.238C365.695 365.669 375.303 365.855 384.192 363.001C391.667 360.601 398.837 356.353 402.58 349.196C403.773 346.914 404.533 344.363 405.131 341.868C417.799 343.657 430.166 347.957 442.892 349.912C455.85 351.903 469.479 351.558 482.171 353.988C483.244 354.263 484.201 354.521 485.212 354.986L485.043 355.811C478.015 360.734 468.107 363.882 460.177 367.346C450.231 371.691 440.407 376.364 430.385 380.53C416.932 386.121 403.275 391.138 389.968 397.096C339.431 419.721 290.203 444.768 240.49 469.107C234.773 471.906 199.863 488.199 198.479 489.497C195.262 492.515 190.636 511.327 189.357 516.283C198.45 524.111 207.582 531.983 216.033 540.508C224.415 548.965 232.171 558.058 240.281 566.776C232.103 567.992 223.948 569.045 216.002 571.42C189.737 579.27 165.756 597.889 145.951 616.391C136.313 625.394 126.819 635.031 116.506 643.244C99.2462 656.987 80.2418 667.246 60.525 676.956ZM260.764 346.091C255.392 347.814 250.519 350.06 247.738 355.31C245.538 359.464 245.232 364.975 246.626 369.432C247.662 372.743 249.865 375.425 253.026 376.903C257.824 379.147 264.624 378.625 269.661 377.257C274.869 375.769 279.987 373.416 282.858 368.544C284.642 365.487 285.116 361.839 284.173 358.427C283.022 354.1 280.016 350.506 276.155 348.304C271.262 345.515 266.156 345.744 260.764 346.091Z" fill="#FFCFD2"/>
<path d="M459.214 283.345C456.234 283.986 453.141 282.958 451.137 280.662C449.133 278.365 448.534 275.162 449.572 272.296C450.611 269.431 453.123 267.355 456.133 266.875C460.617 266.161 464.855 269.147 465.69 273.611C466.525 278.074 463.653 282.39 459.214 283.345ZM456.926 269.713C453.814 269.927 451.469 272.632 451.698 275.743C451.926 278.854 454.641 281.187 457.751 280.944C460.841 280.703 463.156 278.009 462.929 274.918C462.701 271.826 460.018 269.5 456.926 269.713Z" fill="#133162"/>
<path d="M457.756 280.944C454.646 281.187 451.931 278.854 451.703 275.743C451.474 272.632 453.819 269.927 456.931 269.713C460.023 269.5 462.706 271.826 462.934 274.918C463.161 278.009 460.846 280.703 457.756 280.944Z" fill="#98F5E1"/>
<path d="M505.552 370.531C519.61 360.246 529.646 359.511 546.125 355.356C558.664 353.718 570.875 350.049 583.572 349.318C587.633 344.885 623.631 304.522 626.368 303.925C627.49 304.464 627.663 304.417 628.174 305.53C626.348 308.884 623.076 311.77 620.468 314.542C612.631 322.866 594.625 339.437 590.223 348.467L590.579 348.779C597.317 345.244 628.957 308.868 636.751 300.859C638.968 298.581 642.424 294.054 645.142 292.616C646.545 291.873 648.743 292.465 650.21 292.771C653.472 289.202 665.211 274.913 669.424 274.719C675.108 277.308 686.495 288.967 690.585 294.061C684.748 300.537 679.042 307.032 672.992 313.319C675.366 315.687 679.174 318.529 679.418 322.092C676.439 328.407 658.423 343.672 652.271 349.944C668.158 358.61 681.877 368.423 695.779 380.01C701.774 385.007 707.425 390.571 713.665 395.24C732.24 409.437 748.693 426.235 767.255 440.348C796.557 462.629 845.794 480.422 881.026 491.969C906.404 499.971 932.715 510.477 957.019 521.294C963.51 524.183 970.752 526.637 976.608 530.686L976.8 531.336C970.505 531.349 917.045 508.754 906.56 504.659C898.583 501.629 890.551 498.746 882.469 496.011C845.717 483.879 800.926 469.12 769.353 446.707C759.302 439.572 749.913 431.3 740.534 423.308C728.046 412.599 715.456 402.009 702.766 391.54C685.668 377.397 668.706 363.664 648.967 353.314C634.401 367.427 620.182 381.896 606.325 396.706C601.736 401.598 596.056 406.627 592.179 412.033C591.221 413.497 590.525 414.393 589.041 415.338C581.949 422.106 575.493 429.518 568.391 436.284C586.974 437.435 604.826 440.221 623.479 437.496L623.624 436.434L622.419 435.062L622.688 433.612C624.136 433.338 625.761 436.926 627.481 437.472L628.854 436.52L628.993 436.592C630.04 436.302 630.691 436.562 631.755 436.768L631.321 436.184C637.194 434.729 643.058 433.242 648.914 431.721L650.003 432.301C650.22 432.181 650.434 432.053 650.655 431.939C651.704 431.397 651.283 431.593 652.384 431.291C653.247 431.055 653.523 430.881 654.156 430.28L655.049 430.534L655.173 431.493C654.454 432 653.794 432.307 652.975 432.625C652.975 433.58 652.854 433.238 653.066 433.708C648.398 436.567 642.327 437.063 637.081 438.449C628.118 440.816 619.397 443.161 610.056 443.488C573.282 444.774 523.298 428.872 491.177 453.005C499.55 450.555 513.095 448.774 521.164 452.98C523.384 454.137 524.083 455.784 524.722 458.145C525.868 462.384 527.864 483.075 527.005 487.078C525.253 489.759 521.844 491.003 518.825 491.584C510.843 493.118 501.826 491.787 493.934 490.293C493.757 491.13 493.684 490.75 494.1 491.44C494.677 492.617 495.041 492.578 496.239 492.983C508.216 497.037 532.017 499.656 544.463 497.328C550.167 496.261 560.797 493.245 566 493.117L565.112 495.178C562.02 496.404 550.949 498.638 550.181 499.152C549.75 500.777 550.188 501.725 551.008 503.171C552.242 505.347 554.895 509.77 557.349 510.32C557.408 510.333 557.471 510.328 557.532 510.333C565.385 519.292 580.665 535.256 579.698 547.396C579.178 553.927 575.868 558.996 571.384 563.526C568.106 565.965 564.49 568.73 560.14 568.196C557.481 567.869 555.528 566.368 553.69 564.529C549.728 549.549 547.575 540.402 535.838 528.963C536.466 538.264 537.799 551.01 531.134 558.635C528.895 561.197 525.731 562.542 522.346 562.616C518.27 562.706 515.145 560.603 512.393 557.774C511.479 556.833 510.919 556.13 510.631 554.815C510.882 553.535 511.214 552.415 511.656 551.196C509.296 541.206 500.98 532.191 492.383 526.978C490.747 525.985 488.998 525.159 487.25 524.387C479.962 532.295 472.765 540.286 465.66 548.359C462.236 552.208 458.915 556.57 455.113 560.03C451.8 563.046 447.124 565.104 443.293 567.452C432.29 574.197 407.417 590.274 395.548 592.775C394.341 592.424 394.469 592.326 393.739 591.402C393.609 590.647 393.514 589.97 393.732 589.215C395.137 584.359 398.379 579.286 400.595 574.682C406.304 562.82 414.646 543.091 421.747 532.952C429.19 522.322 442.447 512.232 451.548 502.256C449.737 497.725 448.627 493.643 448.368 488.753C447.575 473.793 454.318 434.33 460.188 420.618C465.11 409.121 478.929 394.785 488.229 386.179C492.738 382.007 497.817 378.126 502.008 373.658C497.052 369.103 491.539 364.079 485.912 360.408C456.072 375.18 424.753 387.005 394.127 400.005C376.868 407.331 359.9 415.687 342.918 423.649C311.883 438.2 281.389 453.934 250.543 468.903C234.594 476.643 218.982 484.7 202.417 491.104C210.093 501.076 218.819 509.767 227.509 518.84C239.785 531.481 251.941 544.237 263.974 557.109C277.857 572.014 290.782 587.786 304.64 602.677C318.753 617.558 333.024 632.289 347.45 646.866L392.171 692.916L443.915 746.165C451.642 754.015 459.351 761.835 466.875 769.883C469.354 772.535 472.437 775.195 474.59 778.083C475.3 779.034 475.874 780.283 475.8 781.5C475.77 781.986 475.612 782.272 475.43 782.691C474.136 782.951 473.612 782.622 472.567 781.888C467.844 778.567 463.842 772.641 459.778 768.484L420.908 728.276C414.064 721.218 406.92 714.448 400.043 707.419C389.313 696.452 378.919 685.152 368.232 674.139C348.532 653.837 328.604 633.784 309.173 613.215C293.966 597.117 279.827 580.003 264.674 563.849L224.027 520.897C215.765 512.133 206.716 503.67 200.029 493.625C198.09 500.915 196.052 508.341 193.088 515.289C214.278 528.508 232.444 552.439 249.522 570.51C268.158 590.229 287.048 609.628 305.329 629.689C313.45 638.601 321.041 647.975 329.034 656.998L377.817 711.411C383.895 718.24 390.573 724.56 396.775 731.288L463.828 804.116C466.339 798.391 469.379 793.481 474.287 789.491C479.377 785.354 485.623 782.431 491.344 779.263C496.756 776.235 502.131 773.143 507.468 769.987C524.078 760.303 540.733 750.504 557.619 741.316C583.462 727.559 609.391 713.965 635.406 700.536C662.076 685.73 689.355 671.822 716.232 657.359C729.085 650.442 742.001 643.731 754.461 636.116C741.215 623.028 730.501 608.396 718.397 594.319C713.611 588.754 708.44 583.573 703.266 578.372C678.346 574.712 660.359 567.374 638.744 554.865C629.191 549.337 619.608 543.253 610.857 536.514L610.577 535.332C602.454 529.401 594.212 526.342 584.946 522.693C582.425 521.7 579.461 520.143 576.792 519.719C575.69 519.545 576.233 519.828 575.369 518.906L575.752 517.935C575.941 517.865 576.124 517.774 576.32 517.726C578.676 517.15 581.917 518.861 583.92 519.951C587.612 521.961 592.574 523.805 596.595 525.099C597.727 525.463 597.221 525.513 598.192 525.025C597.961 524.066 597.216 522.459 597.153 521.546C597.055 520.134 598.126 519.31 597.81 517.368C598.366 517.601 598.455 517.609 599.008 517.998C601.593 519.816 601.731 523.842 602.139 526.667C603.962 528.115 610.23 532.836 612.504 532.806C612.736 532.803 612.967 532.78 613.198 532.767L613.593 532.977C620.74 536.864 627.134 542.165 634.064 546.432C662.222 563.771 685.203 573.304 718.263 575.376C731.833 576.227 749.322 574.108 761.951 577.775C784.243 584.247 805.005 600.606 824.053 613.48C853.975 633.702 884.571 654.619 911.571 678.667C919.025 685.486 926.848 692.615 931.438 701.754L931.751 702.362L931.935 702.728C925.21 697.009 919.193 690.247 912.166 684.919C880.794 657.778 848.729 634.967 814.559 611.635C799.037 601.037 782.383 587.165 764.071 582.067C752.566 578.863 741.506 579.964 729.757 580.056C723.358 580.106 716.948 579.752 710.559 579.429C716.894 585.977 722.93 592.556 728.665 599.635C734.374 606.683 739.735 614.099 745.692 620.934C749.682 625.512 756.221 629.332 759.302 634.375C761.342 637.714 762.266 641.858 762.268 645.743C762.273 652.5 759.479 659.826 754.526 664.544C746.726 671.974 731.582 678.094 721.855 683.153C701.23 693.879 680.142 704.24 659.945 715.734C645.317 723.376 630.631 730.905 615.888 738.323C602.741 744.809 588.803 751.037 576.297 758.657L511.195 792.385C497.566 799.374 480.739 809.841 465.954 812.83C441.214 804.069 419.905 787.916 393.879 782.466C361.768 775.741 329.736 780.112 297.339 780.114C260.402 780.118 228.644 773.912 193.493 762.971C163.764 753.717 136.138 742.182 109.115 726.625C96.0497 719.104 83.7441 710.256 71.2994 701.763C63.2369 695.568 54.7965 689.401 46.2188 683.947C50.957 681.553 55.7272 679.223 60.528 676.957C80.2448 667.247 99.2493 656.988 116.509 643.245C126.822 635.032 136.316 625.395 145.954 616.392C165.759 597.89 189.74 579.271 216.005 571.421C223.951 569.046 232.106 567.993 240.284 566.777C232.174 558.059 224.418 548.966 216.036 540.509C207.585 531.984 198.453 524.112 189.36 516.284C190.639 511.328 195.265 492.516 198.482 489.498C199.866 488.2 234.776 471.907 240.493 469.108C290.206 444.769 339.434 419.722 389.971 397.097C403.278 391.139 416.935 386.122 430.388 380.531C440.41 376.365 450.234 371.692 460.18 367.347C468.11 363.883 478.018 360.735 485.046 355.812L486.994 355.584C491.821 357.342 501.023 366.865 505.552 370.531ZM668.829 277.773C663.821 281.998 658.87 287.142 654.736 292.22C653.834 293.328 652.788 294.427 652.949 295.883C654.753 297.412 656.908 299.681 658.947 300.795C663.02 304.088 666.82 307.841 670.695 311.369C676.128 305.804 681.39 300.074 686.472 294.186C680.951 288.353 674.86 283.065 668.829 277.773ZM671.28 316.355C663.461 309.591 655.61 301.325 646.92 295.774C636.015 305.75 626.319 316.991 616.329 327.866L576.681 370.404L535.224 413.876C528.233 421.348 520.485 428.948 514.545 437.274C517.714 436.99 520.878 436.71 524.034 436.292C558.149 397.792 593.414 360.326 629.78 323.944C634.713 318.994 645.789 306.208 651.298 303.747C655.357 304.674 664.35 313.975 667.413 317.242C665.156 319.451 663.433 322.427 661.295 324.828C654.575 332.287 647.737 339.639 640.784 346.881C618.988 369.408 596.463 391.253 574.718 413.815C567.898 420.892 561.539 428.362 554.83 435.536C557.909 435.746 561 435.869 564.082 436.033C570.94 427.316 579.953 419.754 587.653 411.739C604.16 394.558 620.168 376.915 637.042 360.079C649.344 347.805 664.906 334.243 675.956 321.374C674.495 319.525 673.135 317.841 671.28 316.355ZM638.575 703.703C618.728 714.694 598.207 724.623 578.136 735.221C553.126 748.306 528.532 762.17 504.39 776.793C497.13 781.112 482.179 788.287 476.331 793.221C471.524 797.276 468.743 802.279 467.016 808.276C479.582 805.075 491.665 797.425 503.137 791.453L548.993 767.587C583.88 749.294 619.25 731.95 653.955 713.308C674.761 703.027 695.399 692.408 715.86 681.456C726.289 675.984 737.468 671.187 747.133 664.424C750.654 661.961 753.733 659.271 755.757 655.393C758.126 650.853 758.765 645.831 757.118 640.965C756.805 640.881 756.5 640.674 756.178 640.713C754.801 640.883 741.892 648.391 739.852 649.5L676.51 683.83C663.899 690.539 651.072 696.764 638.575 703.703ZM650.968 307.284C619.666 338.385 589.98 371.297 560.05 403.715C550.258 414.322 540.741 425.243 530.69 435.599L543.626 435.334L550.97 435.368C575.761 406.43 603.703 380.242 630.317 353.006C636.524 346.643 642.677 340.226 648.775 333.757C653.784 328.524 659.01 323.492 663.157 317.512C659.983 313.83 655.471 309.217 650.968 307.284ZM578.984 354.201C564.736 355.71 528.032 362.086 515.59 368.682C512.031 370.569 509.01 373.975 505.959 376.614C494.067 386.903 482.961 396.712 473.048 409.007C469.975 412.819 466.587 416.971 464.605 421.488C459.065 434.111 452.037 476.461 453.473 489.878C453.793 492.872 454.513 495.711 455.556 498.537C462.92 491.493 469.889 484.07 477.211 476.996L476.95 471.258C477.998 460.714 482.292 455.129 490.209 448.642C491.77 447.366 493.338 446.1 494.915 444.843L494.521 444.112C491.709 438.955 486.011 433.383 484.819 427.709L485.323 427.332C490.606 430.349 496.069 436.954 500.06 441.582C502.81 440.165 505.547 438.804 508.395 437.592C516.327 425.943 527.404 415.88 536.807 405.39C535.128 401.295 531.095 392.747 532.506 388.181C532.669 387.653 532.748 387.607 533.042 387.229C536.451 388.984 538.893 397.635 541.049 401.078C556.041 385.11 571.563 369.662 586.563 353.709C584.099 353.859 581.412 353.831 578.984 354.201ZM500.859 455.161C495.854 455.837 491.655 456.972 488.41 461.181C484.892 465.744 483.906 472.477 484.822 478.052C485.317 481.062 486.599 483.98 489.148 485.795C492.678 488.309 503.371 487.951 507.878 488.383C513.057 488.539 517.587 488.373 522.624 487.134C521.8 477.146 520.228 467.168 519.918 457.155C513.621 454.996 507.452 454.809 500.859 455.161ZM479.496 483.3C470.189 491.727 461.435 500.691 452.423 509.425C444.249 517.346 435.796 524.94 427.744 532.997C436.307 540.573 444.951 548.195 452.939 556.378C470.021 537.325 486.893 517.957 504.328 499.243C494.673 497.026 488.858 494.753 482.63 486.772C481.71 485.593 480.837 483.981 479.496 483.3ZM508.415 499.906L489.304 521.758L489.365 521.694C499.947 526.064 509.057 533.679 513.429 544.52C514.57 547.35 514.84 551.075 516.467 553.612C518.432 555.341 520.88 557.779 523.726 557.474C525.679 557.264 527.039 555.736 528.072 554.207C533.651 545.948 531.387 531.019 529.381 521.893C527.89 515.109 525.318 508.428 524.139 501.621C518.911 500.933 513.669 500.362 508.415 499.906ZM529.3 501.685C530.437 509.058 533.32 516.306 535.02 523.593C543.68 530.369 550.049 538.435 553.626 548.921C555.673 554.925 557.114 559.963 560.62 565.385C564.173 563.877 566.687 562.28 569.404 559.462C572.775 554.928 574.798 550.348 574.048 544.532C572.73 534.305 552.359 510.943 545.753 501.411C540.278 501.598 534.777 501.911 529.3 501.685ZM423.954 537.213C418.005 546.456 412.802 557.887 408.611 568.081C412.057 571.109 415.329 574.238 418.546 577.508L428.909 571.926C435.577 567.879 442.037 563.431 448.985 559.88C443.642 553.976 430.993 540.489 423.954 537.213ZM241.475 569.04L240.593 569.346C233.768 571.68 226.654 572.908 219.752 574.956C211.766 577.326 203.713 580.951 196.341 584.842C164.087 601.868 142.999 628.585 115.034 650.277C102.161 660.262 87.6492 669.129 72.7779 675.792C66.2418 678.72 59.4567 681.046 52.908 683.913C62.8453 692.26 73.9368 698.867 84.7824 705.938C104.603 718.861 124.638 730.816 146.151 740.773C161.671 747.957 177.986 753.372 194.313 758.379C225.068 767.811 254.347 775.086 286.754 775.614C323.539 776.213 360.398 770.838 396.741 779.121C419.072 784.21 438.071 796.893 458.906 805.716C448.772 793.739 437.782 782.447 427.102 770.955C413.981 756.835 401.047 742.588 387.638 728.737L384.6 730.92C383.152 732.09 381.807 733.226 380.128 734.048L379.278 733.849C378.965 731.344 382.259 726.657 383.602 724.471C381.714 722.252 379.861 720.015 377.766 717.986C353.125 712.576 328.416 707.474 303.647 702.681C289.859 700.06 275.972 698.013 262.219 695.192C216.675 685.854 171.662 668.513 124.41 674.129C112.832 675.505 101.902 678.661 90.5818 681.261C141.144 651.92 212.72 680.121 265.442 690.936C277.818 693.475 290.332 695.265 302.738 697.631C325.87 702.091 348.931 706.909 371.914 712.085C357.444 693.321 340.348 676.25 324.632 658.525C316.439 649.284 308.667 639.674 300.492 630.418C286.541 614.674 272.136 599.339 257.294 584.432C253.161 580.242 246.002 571.892 241.475 569.04ZM407.037 572.233C404.421 576.813 402.107 581.558 400.111 586.44L404.45 584.049L413.845 579.317C411.892 576.69 409.736 574.132 407.037 572.233Z" fill="url(#paint0_linear_2264_28993)"/>
<path d="M652.946 295.883C652.785 294.427 653.831 293.328 654.733 292.22C658.867 287.142 663.818 281.998 668.826 277.773C674.857 283.065 680.948 288.353 686.469 294.186C681.387 300.074 676.125 305.804 670.692 311.369C666.817 307.841 663.017 304.088 658.944 300.795C660.843 298.591 663.284 296.783 665.503 294.909C661.199 295.478 657.333 296.835 652.946 295.883Z" fill="#98F5E1"/>
<path d="M652.945 295.884C657.332 296.836 661.198 295.479 665.502 294.91C663.283 296.784 660.842 298.592 658.943 300.796C656.904 299.682 654.749 297.413 652.945 295.884Z" fill="#23D2C5"/>
<path d="M671.282 316.354C670.306 316.184 669.614 316.047 668.62 316.163L667.415 317.241C664.352 313.974 655.359 304.673 651.3 303.746C645.791 306.207 634.715 318.993 629.782 323.943C593.416 360.325 558.151 397.791 524.036 436.291C520.88 436.709 517.716 436.989 514.547 437.273C520.487 428.947 528.235 421.347 535.226 413.875L576.683 370.403L616.331 327.865C626.321 316.99 636.017 305.749 646.922 295.773C655.612 301.324 663.463 309.59 671.282 316.354Z" fill="url(#paint1_linear_2264_28993)"/>
<path d="M344.891 320.01C351.061 311.86 357.853 306.691 368.169 305.263C377.62 303.953 387.201 306.491 394.765 312.306C400.599 316.727 405.081 322.865 405.981 330.291C406.445 334.112 405.99 337.912 405.049 341.627L402.595 340.389C403.653 337.374 403.464 332.475 402.855 329.385C401.527 322.647 397.063 317.192 391.482 313.417C383.833 308.242 374.598 306.734 365.594 308.585C357.689 310.211 351.993 314.606 347.61 321.192L344.891 320.01Z" fill="#90DBF4"/>
<path d="M530.688 435.6C540.738 425.244 550.255 414.323 560.047 403.716C589.977 371.298 619.664 338.386 650.966 307.285C655.469 309.218 659.981 313.831 663.155 317.513C659.008 323.493 653.782 328.525 648.773 333.758C642.675 340.227 636.522 346.644 630.315 353.007C603.701 380.243 575.759 406.431 550.968 435.369L543.624 435.335L530.688 435.6Z" fill="#B9FBC0"/>
<path d="M347.609 321.19C351.992 314.604 357.688 310.209 365.593 308.583C374.597 306.732 383.832 308.24 391.481 313.415C397.062 317.19 401.526 322.645 402.854 329.383C403.463 332.473 403.652 337.372 402.594 340.387C389.747 337.188 377.035 332.741 364.66 328.05C358.987 325.9 353.386 323.297 347.624 321.424L347.609 321.19Z" fill="#98F5E1"/>
<path d="M667.411 317.242L668.616 316.164C669.61 316.048 670.302 316.185 671.278 316.355C673.133 317.841 674.493 319.525 675.954 321.374C664.904 334.243 649.342 347.805 637.04 360.079C620.166 376.915 604.158 394.558 587.651 411.739C579.951 419.754 570.938 427.316 564.08 436.033C560.998 435.869 557.907 435.746 554.828 435.536C561.537 428.362 567.896 420.892 574.716 413.815C596.461 391.253 618.986 369.408 640.782 346.881C647.735 339.639 654.573 332.287 661.293 324.828C663.431 322.427 665.154 319.451 667.411 317.242Z" fill="#98F5E1"/>
<path d="M344.896 320.008L347.615 321.19L347.63 321.424C344.213 328.355 342.194 335.076 344.683 342.758C346.965 349.804 352.426 355.695 359.119 358.804C367.19 362.553 377.531 362.585 385.798 359.404C392.499 356.826 397.819 351.917 400.68 345.319C401.377 343.697 402.017 342.052 402.6 340.387L405.054 341.625L405.134 341.869C404.536 344.364 403.776 346.915 402.583 349.197C398.84 356.354 391.67 360.602 384.195 363.002C375.306 365.856 365.698 365.67 357.356 361.239C350.168 357.42 344.087 351.021 341.795 343.096C339.477 335.082 341.083 327.22 344.896 320.008Z" fill="#A78FFB"/>
<path d="M347.625 321.426C353.387 323.299 358.988 325.902 364.661 328.052C377.036 332.743 389.748 337.19 402.595 340.389C402.012 342.054 401.372 343.699 400.675 345.321C397.814 351.919 392.494 356.828 385.793 359.406C377.526 362.587 367.185 362.555 359.114 358.806C352.421 355.697 346.96 349.806 344.678 342.76C342.189 335.078 344.208 328.357 347.625 321.426Z" fill="#FFCFD2"/>
<path d="M269.661 377.259C264.624 378.627 257.824 379.149 253.026 376.905C249.865 375.427 247.662 372.745 246.626 369.434C245.232 364.977 245.538 359.466 247.738 355.312C250.519 350.062 255.392 347.816 260.764 346.093C266.156 345.746 271.262 345.517 276.155 348.306C280.016 350.508 283.022 354.102 284.173 358.429C285.116 361.841 284.642 365.489 282.858 368.546C279.987 373.418 274.869 375.771 269.661 377.259ZM259.322 350.081C255.359 351.357 252.436 352.962 250.395 356.753C248.649 359.996 248.289 364.141 249.438 367.64C250.402 370.579 252.448 372.803 255.256 374.081C259.831 376.161 264.95 375.341 269.627 374.118C273.844 372.293 278.113 370.182 279.964 365.641C280.942 363.272 280.91 360.606 279.874 358.261C278.295 354.712 274.995 352.395 271.42 351.136C267.486 349.749 263.424 349.757 259.322 350.081Z" fill="#A78FFB"/>
<path d="M269.626 374.118C264.949 375.341 259.83 376.161 255.255 374.081C252.447 372.803 250.401 370.579 249.437 367.64C248.288 364.141 248.648 359.996 250.394 356.753C252.435 352.962 255.358 351.357 259.321 350.081C263.423 349.757 267.485 349.749 271.419 351.136C274.994 352.395 278.294 354.712 279.873 358.261C280.909 360.606 280.941 363.272 279.963 365.641C278.112 370.182 273.843 372.293 269.626 374.118Z" fill="#FFCFD2"/>
<path d="M592.174 412.035C596.051 406.629 601.731 401.6 606.32 396.708C620.177 381.898 634.396 367.429 648.962 353.316C668.701 363.666 685.663 377.399 702.761 391.542C715.451 402.011 728.041 412.601 740.529 423.31C749.908 431.302 759.297 439.574 769.348 446.709C800.921 469.122 845.712 483.881 882.464 496.013C881.987 500.422 891.398 536.941 892.971 543.5C898.562 566.812 916.425 658.921 911.653 678.264C911.62 678.398 911.595 678.534 911.566 678.669C884.566 654.621 853.97 633.704 824.048 613.482C805 600.608 784.238 584.249 761.946 577.777C749.317 574.11 731.828 576.229 718.258 575.378C685.198 573.306 662.217 563.773 634.059 546.434C627.129 542.167 620.735 536.866 613.588 532.979L613.193 532.769C610.157 530.291 606.462 528.475 603.27 526.134C602.198 518.429 596.551 514.593 592.535 507.945C590.094 503.904 588.564 499.704 587.024 495.253C610.036 496.993 626.626 514.285 645.264 525.805C667.074 539.284 701.744 553.655 727.515 547.349C737.091 545.007 744.223 540.593 751.294 533.859C753.042 532.194 755.19 530.226 756.365 528.107C756.889 527.162 756.946 527.062 756.674 525.984C755.516 525.86 755.363 525.985 754.428 526.628C749.169 530.245 746.57 534.993 739.743 538.921C728.74 545.251 717.593 545.718 705.273 544.11C683.849 541.313 661.928 531.321 644.063 519.309C628.171 508.624 613.628 494.968 594.214 491.452C573.593 487.718 562.269 494.232 542.978 496.625C527.04 498.602 509.534 495.666 494.095 491.442C493.679 490.752 493.752 491.132 493.929 490.295C501.821 491.789 510.838 493.12 518.82 491.586C521.839 491.005 525.248 489.761 527 487.08C527.859 483.077 525.863 462.386 524.717 458.147C524.078 455.786 523.379 454.139 521.159 452.982C513.09 448.776 499.545 450.557 491.172 453.007C523.293 428.874 573.277 444.776 610.051 443.49C619.392 443.163 628.113 440.818 637.076 438.451C642.322 437.065 648.393 436.569 653.061 433.71C655.715 432.48 661.62 429.683 662.785 426.887L662.114 425.57C661.827 425.508 661.544 425.354 661.251 425.382C660.812 425.424 650.834 430.944 648.909 431.723C643.053 433.244 637.189 434.731 631.316 436.186C633.574 424.132 637.684 403.556 630.156 392.82C629.761 392.257 629.72 392.348 629.011 391.868C627.881 392.285 628 392.717 627.508 393.764C627.562 398.493 629.42 403.078 629.439 407.762C629.477 417.266 627.516 426.602 627.38 436.038L626.868 435.908C619.282 423.817 604.879 417.329 592.174 412.035ZM654.267 412.192C652.773 416.419 649.941 422.987 650.996 427.445L652.019 428.533C654.762 426.155 655.395 419.98 655.638 416.384C655.719 415.179 655.673 414.2 655.409 413.029C655.032 412.71 654.718 412.4 654.267 412.192ZM666.336 543.647C666.491 548.587 669.096 553.249 672.696 556.569C675.843 559.473 678.553 560.739 682.797 560.508C678.886 557.666 675.602 554.967 672.483 551.277C670.564 549.008 668.873 544.859 666.336 543.647ZM757.527 555.411C757.839 556.843 757.856 557.806 759.164 558.707C761.996 560.658 775.969 564.724 780.896 566.833C798.502 574.37 816.232 581.874 833.557 590.033C841.621 593.83 850.559 600.867 859.23 602.652L859.465 600.464C853.035 592.636 771.588 556.883 760.068 555.478C759.225 555.377 758.374 555.354 757.527 555.411Z" fill="#B9FBC0"/>
<path d="M482.172 353.991C488.86 354.162 544.216 353.364 545.718 354.874C545.867 355.023 545.988 355.197 546.123 355.358C529.644 359.513 519.608 360.248 505.55 370.533C501.021 366.867 491.819 357.344 486.992 355.586L485.044 355.814L485.213 354.989C484.202 354.524 483.245 354.266 482.172 353.991Z" fill="#DAF9F5"/>
<path d="M455.554 498.539C454.511 495.713 453.791 492.874 453.471 489.88C452.035 476.463 459.063 434.113 464.603 421.49C466.585 416.973 469.973 412.821 473.046 409.009C482.959 396.714 494.065 386.905 505.957 376.616C509.008 373.977 512.029 370.571 515.588 368.684C528.03 362.088 564.734 355.712 578.982 354.203C581.41 353.833 584.097 353.861 586.561 353.711C571.561 369.664 556.039 385.112 541.047 401.08C538.891 397.637 536.449 388.986 533.04 387.231C532.746 387.609 532.667 387.655 532.504 388.183C531.093 392.749 535.126 401.297 536.805 405.392C527.402 415.882 516.325 425.945 508.393 437.594C505.545 438.806 502.808 440.167 500.058 441.584C496.067 436.956 490.604 430.351 485.321 427.334L484.817 427.711C486.009 433.385 491.707 438.957 494.519 444.114L494.913 444.845C493.336 446.102 491.768 447.368 490.207 448.644C482.29 455.131 477.996 460.716 476.948 471.26L477.209 476.998C469.887 484.072 462.918 491.495 455.554 498.539Z" fill="#DAF9F5"/>
<path d="M553.687 564.531C555.525 566.37 557.478 567.871 560.137 568.198C564.487 568.732 568.103 565.967 571.381 563.528C573.034 564.273 574.249 565.155 574.976 566.878C576.416 570.29 576.649 574.753 577.121 578.409C580.097 601.483 578.635 624.862 575.239 647.795C574.712 651.35 574.433 656.429 573.009 659.709C572.846 660.083 572.527 660.556 572.323 660.881C533.446 642.696 487.69 625.872 445.092 641.139C425.77 648.064 406.648 660.42 397.626 679.548C395.719 683.591 394.656 689.434 392.168 692.918L347.447 646.868C333.021 632.291 318.75 617.56 304.637 602.679C290.779 587.788 277.854 572.016 263.971 557.111C251.938 544.239 239.782 531.483 227.506 518.842C218.816 509.769 210.09 501.078 202.414 491.106C218.979 484.702 234.591 476.645 250.54 468.905C281.386 453.936 311.88 438.202 342.915 423.651C359.897 415.689 376.865 407.333 394.124 400.007C424.75 387.007 456.069 375.182 485.909 360.41C491.536 364.081 497.049 369.105 502.005 373.66C497.814 378.128 492.735 382.009 488.226 386.181C478.926 394.787 465.107 409.123 460.185 420.62C454.315 434.332 447.572 473.795 448.365 488.755C448.624 493.645 449.734 497.727 451.545 502.258C442.444 512.234 429.187 522.324 421.744 532.954C414.643 543.093 406.301 562.822 400.592 574.684C398.376 579.288 395.134 584.361 393.729 589.217C393.511 589.972 393.606 590.649 393.736 591.404C394.466 592.328 394.338 592.426 395.545 592.777C407.414 590.276 432.287 574.199 443.29 567.454C447.121 565.106 451.797 563.048 455.11 560.032C458.912 556.572 462.233 552.21 465.657 548.361C472.762 540.288 479.959 532.297 487.247 524.389C488.995 525.161 490.744 525.987 492.38 526.98C500.977 532.193 509.293 541.208 511.653 551.198C511.211 552.417 510.879 553.537 510.628 554.817C510.916 556.132 511.476 556.835 512.39 557.776C515.142 560.605 518.267 562.708 522.343 562.618C525.728 562.544 528.892 561.199 531.131 558.637C537.796 551.012 536.463 538.266 535.835 528.965C547.572 540.404 549.725 549.551 553.687 564.531ZM486.197 369.833C486.326 372.225 486.712 374.031 488.501 375.75C489.747 376.947 491.494 377.926 493.043 378.679C493.059 376.141 493.014 373.993 491.128 372.088C489.769 370.714 488.044 370.175 486.197 369.833Z" fill="url(#paint2_linear_2264_28993)"/>
<path d="M493.041 378.678C491.492 377.925 489.745 376.946 488.499 375.749C486.71 374.03 486.324 372.224 486.195 369.832C488.042 370.174 489.767 370.713 491.126 372.087C493.012 373.992 493.057 376.14 493.041 378.678Z" fill="#F1C0E8"/>
<path d="M713.664 395.242C718.799 391.485 729.215 392.215 735.363 391.869C755.084 390.761 772.195 389.871 791.903 392.801C809.872 395.472 838.05 408.831 855.197 405.609L855.46 405.73C859.866 421.962 866.434 437.734 871.105 453.943C874.625 466.157 876.395 480.377 881.025 491.971C845.793 480.424 796.556 462.631 767.254 440.35C748.692 426.237 732.239 409.439 713.664 395.242Z" fill="#B9FBC0"/>
<path d="M592.177 412.034C604.882 417.328 619.285 423.816 626.871 435.907L627.383 436.037C627.519 426.601 629.48 417.265 629.442 407.761C629.423 403.077 627.565 398.492 627.511 393.763C628.003 392.716 627.884 392.284 629.014 391.867C629.723 392.347 629.764 392.256 630.159 392.819C637.687 403.555 633.577 424.131 631.319 436.185L631.753 436.769C630.689 436.563 630.038 436.303 628.991 436.593L628.852 436.521L627.479 437.473C625.759 436.927 624.134 433.339 622.686 433.613L622.417 435.063L623.622 436.435L623.477 437.497C613.493 427.798 601.248 421.717 589.039 415.339C590.523 414.394 591.219 413.498 592.177 412.034Z" fill="#133162"/>
<path d="M652.019 428.532L650.996 427.444C649.941 422.986 652.773 416.418 654.267 412.191C654.718 412.399 655.032 412.709 655.409 413.028C655.673 414.199 655.719 415.178 655.638 416.383C655.395 419.979 654.762 426.154 652.019 428.532Z" fill="#133162"/>
<path d="M568.391 436.286C575.493 429.52 581.949 422.108 589.041 415.34C601.25 421.718 613.495 427.799 623.479 437.498C604.826 440.223 586.974 437.437 568.391 436.286Z" fill="#B9FBC0"/>
<path d="M648.914 431.723C650.839 430.944 660.817 425.424 661.256 425.382C661.549 425.354 661.832 425.508 662.119 425.57L662.79 426.887C661.625 429.683 655.72 432.48 653.066 433.71C652.854 433.24 652.975 433.582 652.975 432.627C653.794 432.309 654.454 432.002 655.173 431.495L655.049 430.536L654.156 430.282C653.523 430.883 653.247 431.057 652.384 431.293C651.283 431.595 651.704 431.399 650.655 431.941C650.434 432.055 650.22 432.183 650.003 432.303L648.914 431.723Z" fill="#133162"/>
<path d="M507.879 488.382C503.372 487.95 492.679 488.308 489.149 485.794C486.6 483.979 485.318 481.061 484.823 478.051C483.907 472.476 484.893 465.743 488.411 461.18C491.656 456.971 495.855 455.836 500.86 455.16C507.453 454.808 513.622 454.995 519.919 457.154C520.229 467.167 521.801 477.145 522.625 487.133C517.588 488.372 513.058 488.538 507.879 488.382Z" fill="#DAF9F5"/>
<path d="M427.742 532.998C435.794 524.941 444.247 517.347 452.421 509.426C461.433 500.692 470.187 491.728 479.494 483.301C480.835 483.982 481.708 485.594 482.628 486.773C488.856 494.754 494.671 497.027 504.326 499.244C486.891 517.958 470.019 537.326 452.937 556.379C444.949 548.196 436.305 540.574 427.742 532.998ZM494.931 499.762C487.511 505.719 479.722 515.727 473.101 522.875C465.499 531.083 456.595 539.276 449.905 548.166C450.349 549.423 450.729 549.553 451.812 550.368C457.275 545.635 495.872 504.95 496.408 500.761C495.878 500.275 495.618 500.011 494.931 499.762ZM469.282 505.748C466.853 508.412 445.969 532.252 445.41 533.731C445.278 534.078 445.32 534.468 445.276 534.836C446.108 535.848 446.696 536.175 447.905 536.662C452.09 532.94 470.984 513.467 471.876 508.667C472.101 507.454 471.65 507.095 470.961 506.213L469.282 505.748Z" fill="#DAF9F5"/>
<path d="M557.534 510.333C557.473 510.328 557.41 510.333 557.351 510.32C554.897 509.77 552.244 505.347 551.01 503.171C550.19 501.725 549.752 500.777 550.183 499.152C550.951 498.638 562.022 496.404 565.114 495.178L566.002 493.117C560.799 493.245 550.169 496.261 544.465 497.328C532.019 499.656 508.218 497.037 496.241 492.983C495.043 492.578 494.679 492.617 494.102 491.44C509.541 495.664 527.047 498.6 542.985 496.623C562.276 494.23 573.6 487.716 594.221 491.45C613.635 494.966 628.178 508.622 644.07 519.307C661.935 531.319 683.856 541.311 705.28 544.108C717.6 545.716 728.747 545.249 739.75 538.919C746.577 534.991 749.176 530.243 754.435 526.626C755.37 525.983 755.523 525.858 756.681 525.982C756.953 527.06 756.896 527.16 756.372 528.105C755.197 530.224 753.049 532.192 751.301 533.857C744.23 540.591 737.098 545.005 727.522 547.347C701.751 553.653 667.081 539.282 645.271 525.803C626.633 514.283 610.043 496.991 587.031 495.251C588.571 499.702 590.101 503.902 592.542 507.943C596.558 514.591 602.205 518.427 603.277 526.132C606.469 528.473 610.164 530.289 613.2 532.767C612.969 532.78 612.738 532.803 612.506 532.806C610.232 532.836 603.964 528.115 602.141 526.667C601.733 523.842 601.595 519.816 599.01 517.998C598.457 517.609 598.368 517.601 597.812 517.368C598.128 519.31 597.057 520.134 597.155 521.546C597.218 522.459 597.963 524.066 598.194 525.025C597.223 525.513 597.729 525.463 596.597 525.099C592.576 523.805 587.614 521.961 583.922 519.951C581.919 518.861 578.678 517.15 576.322 517.726C576.126 517.774 575.943 517.865 575.754 517.935L575.371 518.906C576.235 519.828 575.692 519.545 576.794 519.719C579.463 520.143 582.427 521.7 584.948 522.693C594.214 526.342 602.456 529.401 610.579 535.332L610.859 536.514C606.023 533.323 601.087 530.182 595.734 527.919C587.365 524.381 578.461 522.013 570.59 517.375L570.4 516.452C570.921 514.8 572.023 513.678 573.123 512.387C570.93 506.803 568.284 501.408 565.213 496.255C560.091 497.411 555.05 498.951 550.002 500.39C552.476 503.731 554.987 507.046 557.534 510.333ZM572.254 495.143L571.385 495.836C573.052 502.533 578.525 508.547 577.435 515.764C582.317 519.344 590.153 521.65 595.873 523.768L596.838 523.786C596.664 521.668 590.819 514.572 589.45 512.037C586.495 506.569 584.673 500.817 583.265 494.788C579.588 494.842 575.926 494.918 572.254 495.143Z" fill="#133162"/>
<path d="M392.169 692.916C394.657 689.432 395.72 683.589 397.627 679.546C406.649 660.418 425.771 648.062 445.093 641.137C487.691 625.87 533.447 642.694 572.324 660.879C581.806 665.572 630.442 693.683 635.404 700.536C609.389 713.965 583.46 727.559 557.617 741.316C540.731 750.504 524.076 760.303 507.466 769.987C502.129 773.143 496.754 776.235 491.342 779.263C485.621 782.431 479.375 785.354 474.285 789.491C469.377 793.481 466.337 798.391 463.826 804.116L396.773 731.288C390.571 724.56 383.893 718.24 377.815 711.411L329.032 656.998C321.039 647.975 313.448 638.601 305.327 629.689C287.046 609.628 268.156 590.229 249.52 570.51C232.442 552.439 214.276 528.508 193.086 515.289C196.05 508.341 198.088 500.915 200.027 493.625C206.714 503.67 215.763 512.133 224.025 520.897L264.672 563.849C279.825 580.003 293.964 597.117 309.171 613.215C328.602 633.784 348.53 653.837 368.23 674.139C378.917 685.152 389.311 696.452 400.041 707.419C406.918 714.448 414.062 721.218 420.906 728.276L459.776 768.484C463.84 772.641 467.842 778.567 472.565 781.888C473.61 782.622 474.134 782.951 475.428 782.691C475.61 782.272 475.768 781.986 475.798 781.5C475.872 780.283 475.298 779.034 474.588 778.083C472.435 775.195 469.352 772.535 466.873 769.883C459.349 761.835 451.64 754.015 443.913 746.165L392.169 692.916Z" fill="#FDE4CF"/>
<path d="M595.871 523.769C590.151 521.651 582.315 519.345 577.433 515.765C578.523 508.548 573.05 502.534 571.383 495.837L572.252 495.144C575.924 494.919 579.586 494.843 583.263 494.789C584.671 500.818 586.493 506.57 589.448 512.038C590.817 514.573 596.662 521.669 596.836 523.787L595.871 523.769Z" fill="#B9FBC0"/>
<path d="M557.532 510.336C554.985 507.049 552.474 503.734 550 500.393C555.048 498.954 560.089 497.414 565.211 496.258C568.282 501.411 570.928 506.806 573.121 512.39C572.021 513.681 570.919 514.803 570.398 516.455L570.588 517.378C578.459 522.016 587.363 524.384 595.732 527.922C601.085 530.185 606.021 533.326 610.857 536.517C619.608 543.256 629.191 549.34 638.744 554.868C660.359 567.377 678.346 574.715 703.266 578.375C708.44 583.576 713.611 588.757 718.397 594.322C730.501 608.399 741.215 623.031 754.461 636.119C742.001 643.734 729.085 650.445 716.232 657.362C689.355 671.825 662.076 685.733 635.406 700.539C630.444 693.686 581.808 665.575 572.326 660.882C572.53 660.557 572.849 660.084 573.012 659.71C574.436 656.43 574.715 651.351 575.242 647.796C578.638 624.863 580.1 601.484 577.124 578.41C576.652 574.754 576.419 570.291 574.979 566.879C574.252 565.156 573.037 564.274 571.384 563.529C575.868 558.999 579.178 553.93 579.698 547.399C580.665 535.259 565.385 519.295 557.532 510.336Z" fill="#B9FBC0"/>
<path d="M451.813 550.368C450.73 549.553 450.35 549.423 449.906 548.166C456.596 539.276 465.5 531.083 473.102 522.875C479.723 515.727 487.512 505.719 494.932 499.762C495.619 500.011 495.879 500.275 496.409 500.761C495.873 504.95 457.276 545.635 451.813 550.368Z" fill="#133162"/>
<path d="M489.366 521.694L489.305 521.758L508.416 499.906C513.67 500.362 518.912 500.933 524.14 501.621C525.319 508.428 527.891 515.109 529.382 521.893C531.388 531.019 533.652 545.948 528.073 554.207C527.04 555.736 525.68 557.264 523.727 557.474C520.881 557.779 518.433 555.341 516.468 553.612C514.841 551.075 514.571 547.35 513.43 544.52C509.058 533.679 499.948 526.064 489.366 521.694Z" fill="#DAF9F5"/>
<path d="M535.017 523.592C533.317 516.305 530.434 509.057 529.297 501.684C534.774 501.91 540.275 501.597 545.75 501.41C552.356 510.942 572.727 534.304 574.045 544.531C574.795 550.347 572.772 554.927 569.401 559.461C566.684 562.279 564.17 563.876 560.617 565.384C557.111 559.962 555.67 554.924 553.623 548.92C550.046 538.434 543.677 530.368 535.017 523.592Z" fill="#B9FBC0"/>
<path d="M447.902 536.66C446.693 536.173 446.105 535.846 445.273 534.834C445.317 534.466 445.275 534.076 445.407 533.729C445.966 532.25 466.85 508.41 469.279 505.746L470.958 506.211C471.647 507.093 472.098 507.452 471.873 508.665C470.981 513.465 452.087 532.938 447.902 536.66Z" fill="#133162"/>
<path d="M408.609 568.083C412.8 557.889 418.003 546.458 423.952 537.215C430.991 540.491 443.64 553.978 448.983 559.882C442.035 563.433 435.575 567.881 428.907 571.928L418.544 577.51C415.327 574.24 412.055 571.111 408.609 568.083Z" fill="#DAF9F5"/>
<path d="M682.797 560.506C678.553 560.737 675.843 559.471 672.696 556.567C669.096 553.247 666.491 548.585 666.336 543.645C668.873 544.857 670.564 549.006 672.483 551.275C675.602 554.965 678.886 557.664 682.797 560.506Z" fill="#133162"/>
<path d="M859.234 602.65C850.563 600.865 841.625 593.828 833.561 590.031C816.236 581.872 798.506 574.368 780.9 566.831C775.973 564.722 762 560.656 759.168 558.705C757.86 557.804 757.843 556.841 757.531 555.409C758.378 555.352 759.229 555.375 760.072 555.476C771.592 556.881 853.039 592.634 859.469 600.462L859.234 602.65Z" fill="#133162"/>
<path d="M52.9062 683.912C59.4549 681.045 66.24 678.719 72.7761 675.791C87.6474 669.128 102.159 660.261 115.032 650.276C142.997 628.584 164.085 601.867 196.339 584.841C203.711 580.95 211.764 577.325 219.75 574.955C226.652 572.907 233.766 571.679 240.591 569.345L241.473 569.039C246 571.891 253.159 580.241 257.292 584.431C272.134 599.338 286.539 614.673 300.49 630.417C308.665 639.673 316.437 649.283 324.63 658.524C340.346 676.249 357.442 693.32 371.912 712.084C348.929 706.908 325.868 702.09 302.736 697.63C290.33 695.264 277.816 693.474 265.44 690.935C212.718 680.12 141.142 651.919 90.5802 681.26C101.9 678.66 112.83 675.504 124.408 674.128C171.66 668.512 216.673 685.853 262.217 695.191C275.97 698.012 289.857 700.059 303.645 702.68C328.414 707.473 353.123 712.575 377.764 717.985C379.859 720.014 381.712 722.251 383.6 724.47C382.257 726.656 378.963 731.343 379.276 733.848L380.126 734.047C381.805 733.225 383.15 732.089 384.598 730.919L387.636 728.736C401.045 742.587 413.979 756.834 427.1 770.954C437.78 782.446 448.77 793.738 458.904 805.715C438.069 796.892 419.07 784.209 396.739 779.12C360.396 770.837 323.537 776.212 286.752 775.613C254.345 775.085 225.066 767.81 194.311 758.378C177.984 753.371 161.669 747.956 146.149 740.772C124.636 730.815 104.601 718.86 84.7808 705.937C73.9352 698.866 62.8435 692.259 52.9062 683.912ZM229.695 591.613C228.712 592.008 227.915 592.093 227.34 593.014C229.205 594.289 237.321 593.47 240.011 593.725C245.984 594.289 251.968 595.655 257.858 596.809L258.592 596.644C249.335 591.845 239.941 591.089 229.695 591.613ZM190.355 614.215C182.796 614.751 175.459 615.74 168.937 619.886C192.24 616.03 211.506 616.463 233.142 627.223C238.271 629.917 243.417 633.011 248.754 635.227C233.668 621.336 211.921 613.225 191.394 614.138C191.047 614.153 190.701 614.186 190.355 614.215ZM260.039 613.759C265.427 624.609 278.674 636.568 290.098 640.642C290.859 640.913 291.583 641.054 292.386 641.126C285.611 635.143 278.039 630.126 271.294 624.11C267.911 621.092 263.926 615.686 260.039 613.759ZM157.392 645.101C155.938 645.42 154.462 645.58 153.277 646.544L153.211 646.755C158.16 647.81 167.863 647.294 173.685 647.802C183.119 648.624 192.431 650.578 201.815 651.808L203.875 652.002L203.952 651.731C191.846 646.574 170.313 644.449 157.392 645.101ZM215.414 656.715C218.614 662.954 250.833 675.581 258.519 678.071C262.577 679.386 267.415 680.989 271.714 680.421C270.112 678.101 241.372 667.746 236.105 665.194C231.08 662.76 225.186 657.878 219.815 656.78C218.4 656.491 216.845 656.622 215.414 656.715ZM268.304 657.071C268.506 658.044 268.332 658.458 269.193 659.041C272.313 661.153 277.663 662.423 281.316 663.8C289.302 666.809 297.495 669.892 304.929 674.118C310.375 677.2 315.227 681.228 319.259 686.012C321.205 688.279 322.902 690.874 325.343 692.631C325.158 687.579 318.527 680.657 314.976 677.384C306.539 669.608 281.06 656.506 269.587 656.995C269.159 657.016 268.731 657.041 268.304 657.071ZM156.233 687.673C149.001 688.984 130.049 693.611 124.338 698.122C124.855 698.474 124.629 698.428 124.938 698.467C129.561 696.912 154.642 689.275 156.639 687.697L156.233 687.673ZM213.935 701.197C201.459 702.772 171.927 707.121 163.976 715.842L164.244 716.339C165.28 716.172 166.121 716.037 167.118 715.698C174.354 713.292 181.588 710.967 189 709.16C196.916 707.231 210.99 705.547 217.679 701.996L217.957 701.311C216.701 700.631 215.292 701.026 213.935 701.197ZM282.262 709.668C259.963 712.763 227.15 727.76 213.183 745.871C212.885 746.26 212.593 746.654 212.307 747.052C215.346 745.347 217.918 743.261 220.6 741.049C236.503 729.115 252.967 719.671 272.324 714.473C276.784 713.275 290.136 711.959 292.845 710.24C290.918 708.775 284.9 709.45 282.472 709.638C282.402 709.644 282.332 709.658 282.262 709.668ZM343.828 720.693C337.682 721.999 331.63 723.712 325.712 725.822C314.963 729.735 284.778 743.469 278.399 751.933L278.501 752.395C284.931 749.157 291.031 745.306 297.413 741.98C309.245 735.909 321.415 730.519 333.861 725.836C336.176 724.943 342.897 722.874 343.828 720.693ZM379.762 736.592C357.666 741.732 328.221 752.222 315.802 772.556C315.49 773.069 315.19 773.589 314.902 774.116C318.776 771.82 322.029 768.632 325.283 765.547C339.953 754.175 355.145 747.011 373.048 742.184C379.17 740.534 384.898 739.314 391.253 739.353C392.211 739.359 393.516 739.814 393.828 738.842C393.051 737.665 392.064 737.278 390.732 736.98C387.093 736.167 383.454 736.27 379.762 736.592ZM396.975 743.239C396.637 745.469 396.336 747.706 395.388 749.777C393.119 754.736 383.069 762.974 382.806 766.32L383.737 766.482C389.337 762.809 397.137 757.64 398.703 750.634C399.196 748.429 398.94 745.978 397.665 744.068C397.339 743.58 397.325 743.593 396.975 743.239Z" fill="url(#paint3_linear_2264_28993)"/>
<path d="M400.109 586.441C402.105 581.559 404.419 576.814 407.035 572.234C409.734 574.133 411.89 576.691 413.843 579.318L404.448 584.05L400.109 586.441Z" fill="#DAF9F5"/>
<path d="M912.166 684.92C912.062 685.143 911.952 685.363 911.855 685.59C909.979 690.008 911.208 697.593 910.643 702.508C910.071 707.483 908.761 712.777 907.395 717.59C893.791 765.514 861.262 813.141 815.026 834.306C799.454 841.434 776.136 849.427 759.188 850.315C762.169 843.521 763.658 836.582 763.059 829.166C760.04 791.777 708.601 751.219 680.304 729.89C673.885 725.052 666.308 721.241 660.288 716.039C660.172 715.939 660.059 715.837 659.945 715.735C680.142 704.241 701.23 693.88 721.855 683.154C731.582 678.095 746.726 671.975 754.526 664.545C759.479 659.827 762.273 652.501 762.268 645.744C762.266 641.859 761.342 637.715 759.302 634.376C756.221 629.333 749.682 625.513 745.692 620.935C739.735 614.1 734.374 606.684 728.665 599.636C722.93 592.557 716.894 585.978 710.559 579.43C716.948 579.753 723.358 580.107 729.757 580.057C741.506 579.965 752.566 578.864 764.071 582.068C782.383 587.166 799.037 601.038 814.559 611.636C848.729 634.968 880.794 657.779 912.166 684.92Z" fill="#B9FBC0"/>
<path d="M257.862 596.811C251.972 595.657 245.988 594.291 240.015 593.727C237.325 593.472 229.209 594.291 227.344 593.016C227.919 592.095 228.716 592.01 229.699 591.615C239.945 591.091 249.339 591.847 258.596 596.646L257.862 596.811Z" fill="#393164"/>
<path d="M168.938 619.888C175.458 615.742 182.795 614.753 190.354 614.217C190.7 614.188 191.048 614.155 191.395 614.14C211.922 613.227 233.669 621.338 248.755 635.229C243.418 633.013 238.272 629.919 233.143 627.225C211.507 616.465 192.24 616.032 168.938 619.888Z" fill="#393164"/>
<path d="M292.386 641.129C291.583 641.057 290.859 640.916 290.098 640.645C278.674 636.571 265.427 624.612 260.039 613.762C263.926 615.689 267.911 621.095 271.294 624.113C278.039 630.129 285.611 635.146 292.386 641.129Z" fill="#393164"/>
<path d="M638.57 703.706C651.067 696.767 663.894 690.542 676.505 683.833L739.847 649.503C741.887 648.394 754.796 640.886 756.173 640.716C756.495 640.677 756.8 640.884 757.113 640.968C758.76 645.834 758.121 650.856 755.752 655.396C753.728 659.274 750.649 661.964 747.128 664.427C737.463 671.19 726.284 675.987 715.855 681.459C695.394 692.411 674.756 703.03 653.95 713.311C649.143 709.715 643.045 707.774 638.57 703.706Z" fill="#B9FBC0"/>
<path d="M201.815 651.81C192.431 650.58 183.119 648.626 173.685 647.804C167.863 647.296 158.16 647.812 153.211 646.757L153.277 646.546C154.462 645.582 155.938 645.422 157.392 645.103C170.313 644.451 191.846 646.576 203.952 651.733L203.875 652.004L201.815 651.81Z" fill="#393164"/>
<path d="M271.714 680.423C267.415 680.991 262.577 679.388 258.519 678.073C250.833 675.583 218.614 662.956 215.414 656.717C216.845 656.624 218.4 656.493 219.815 656.782C225.186 657.88 231.08 662.762 236.105 665.196C241.372 667.748 270.112 678.103 271.714 680.423Z" fill="#133162"/>
<path d="M325.344 692.634C322.903 690.877 321.206 688.282 319.26 686.015C315.228 681.231 310.376 677.203 304.93 674.121C297.496 669.895 289.303 666.812 281.317 663.803C277.664 662.426 272.314 661.156 269.194 659.044C268.333 658.461 268.507 658.047 268.305 657.074C268.732 657.044 269.16 657.019 269.588 656.998C281.061 656.509 306.54 669.611 314.977 677.387C318.528 680.66 325.159 687.582 325.344 692.634Z" fill="url(#paint4_linear_2264_28993)"/>
<path d="M124.936 698.47C124.627 698.431 124.853 698.477 124.336 698.125C130.047 693.614 148.999 688.987 156.231 687.676L156.637 687.7C154.64 689.278 129.559 696.915 124.936 698.47Z" fill="#393164"/>
<path d="M167.119 715.701C166.122 716.04 165.281 716.175 164.245 716.342L163.977 715.845C171.928 707.124 201.46 702.775 213.936 701.2C215.293 701.029 216.702 700.634 217.958 701.314L217.68 701.999C210.991 705.55 196.917 707.234 189.001 709.163C181.589 710.97 174.355 713.295 167.119 715.701Z" fill="#393164"/>
<path d="M71.2969 701.766C83.7415 710.259 96.0473 719.107 109.112 726.628C136.135 742.185 163.761 753.72 193.49 762.974C228.641 773.915 260.399 780.121 297.336 780.117C329.733 780.115 361.765 775.744 393.876 782.469C419.902 787.919 441.211 804.072 465.951 812.833C480.736 809.844 497.563 799.377 511.192 792.388L576.294 758.66C578.718 763.447 580.782 768.362 583.487 773.011C606.868 813.185 641.151 838.499 680.044 862.149C676.167 864.076 632.821 866.581 623.948 867.905C602.509 871.104 581.038 875.998 560.668 883.451C546.52 888.765 533.009 895.642 520.387 903.953C475.925 933.714 451.694 967.456 392.656 969.968C334.185 972.455 277.623 944.388 230.741 911.872C215.755 901.478 201.023 890.331 187.574 877.986C181.271 872.201 174.673 866.498 168.728 860.348C162.881 854.299 157.501 847.675 152.071 841.247C124.664 809.167 101.732 773.522 83.8999 735.283C79.8768 726.87 71.681 710.724 71.2969 701.766Z" fill="#FDE4CF"/>
<path d="M467.016 808.276C468.743 802.279 471.524 797.276 476.331 793.221C482.179 788.287 497.13 781.112 504.39 776.793C528.532 762.17 553.126 748.306 578.136 735.221C598.207 724.623 618.728 714.694 638.575 703.703C643.05 707.771 649.148 709.712 653.955 713.308C619.25 731.95 583.88 749.294 548.993 767.587L503.137 791.453C491.665 797.425 479.582 805.075 467.016 808.276Z" fill="url(#paint5_linear_2264_28993)"/>
<path d="M212.305 747.053C212.591 746.655 212.883 746.261 213.181 745.872C227.148 727.761 259.961 712.764 282.26 709.669C282.33 709.659 282.4 709.645 282.47 709.639C284.898 709.451 290.916 708.776 292.843 710.241C290.134 711.96 276.782 713.276 272.322 714.474C252.965 719.672 236.501 729.117 220.598 741.051C217.916 743.263 215.344 745.348 212.305 747.053Z" fill="#393164"/>
<path d="M576.297 758.657C588.803 751.037 602.741 744.809 615.888 738.323C630.631 730.905 645.317 723.376 659.945 715.734C660.059 715.836 660.172 715.938 660.288 716.038C666.308 721.24 673.885 725.051 680.304 729.889C708.601 751.218 760.04 791.776 763.059 829.165C763.658 836.581 762.169 843.52 759.188 850.314C753.402 861.051 745.756 870.382 733.631 873.925C715.361 879.265 696.252 869.693 680.047 862.146C641.154 838.496 606.871 813.182 583.49 773.008C580.785 768.359 578.721 763.444 576.297 758.657Z" fill="#D1F789"/>
<path d="M278.5 752.397L278.398 751.935C284.777 743.471 314.962 729.737 325.711 725.824C331.629 723.714 337.681 722.001 343.827 720.695C342.896 722.876 336.175 724.945 333.86 725.838C321.414 730.521 309.244 735.911 297.412 741.982C291.03 745.308 284.93 749.159 278.5 752.397Z" fill="url(#paint6_linear_2264_28993)"/>
<path d="M314.898 774.118C315.186 773.591 315.486 773.071 315.798 772.558C328.217 752.224 357.662 741.734 379.758 736.594C383.45 736.272 387.089 736.169 390.728 736.982C392.06 737.28 393.047 737.667 393.824 738.844C393.512 739.816 392.207 739.361 391.249 739.355C384.894 739.316 379.166 740.536 373.044 742.186C355.141 747.013 339.949 754.177 325.279 765.549C322.025 768.634 318.772 771.822 314.898 774.118Z" fill="url(#paint7_linear_2264_28993)"/>
<path d="M383.736 766.485L382.805 766.323C383.068 762.977 393.118 754.739 395.387 749.78C396.335 747.709 396.636 745.472 396.974 743.242C397.324 743.596 397.338 743.583 397.664 744.071C398.939 745.981 399.195 748.432 398.702 750.637C397.136 757.643 389.336 762.812 383.736 766.485Z" fill="#133162"/>
<defs>
<linearGradient id="paint0_linear_2264_28993" x1="911.462" y1="408.901" x2="126.056" y2="828.994" gradientUnits="userSpaceOnUse">
<stop stop-color="#033761"/>
<stop offset="1" stop-color="#463271"/>
</linearGradient>
<linearGradient id="paint1_linear_2264_28993" x1="619.124" y1="390.337" x2="566.307" y2="356.644" gradientUnits="userSpaceOnUse">
<stop stop-color="#6DF1D6"/>
<stop offset="1" stop-color="#DCFFEA"/>
</linearGradient>
<linearGradient id="paint2_linear_2264_28993" x1="347.142" y1="421.604" x2="472.792" y2="703.498" gradientUnits="userSpaceOnUse">
<stop stop-color="#FDE9F8"/>
<stop offset="1" stop-color="#C4FFFC"/>
</linearGradient>
<linearGradient id="paint3_linear_2264_28993" x1="251.1" y1="774.296" x2="279.501" y2="575.499" gradientUnits="userSpaceOnUse">
<stop stop-color="#FFE1CC"/>
<stop offset="1" stop-color="#CCFDFF"/>
</linearGradient>
<linearGradient id="paint4_linear_2264_28993" x1="294.603" y1="683.048" x2="299.41" y2="664.409" gradientUnits="userSpaceOnUse">
<stop stop-color="#0C3D54"/>
<stop offset="1" stop-color="#232B62"/>
</linearGradient>
<linearGradient id="paint5_linear_2264_28993" x1="585.311" y1="783.51" x2="532.164" y2="733.996" gradientUnits="userSpaceOnUse">
<stop stop-color="#F6F1C7"/>
<stop offset="1" stop-color="#FBE4DC"/>
</linearGradient>
<linearGradient id="paint6_linear_2264_28993" x1="311.281" y1="736.351" x2="309.812" y2="733.215" gradientUnits="userSpaceOnUse">
<stop stop-color="#423959"/>
<stop offset="1" stop-color="#333170"/>
</linearGradient>
<linearGradient id="paint7_linear_2264_28993" x1="357.054" y1="758.319" x2="350.127" y2="746.105" gradientUnits="userSpaceOnUse">
<stop stop-color="#3C405A"/>
<stop offset="1" stop-color="#3E336A"/>
</linearGradient>
</defs>
</svg>
