<svg width="1024" height="1024" viewBox="0 0 1024 1024" fill="none" xmlns="http://www.w3.org/2000/svg">
<path d="M268.633 232.869C275.592 228.601 282.611 223.094 289.409 218.424C358.587 170.897 436.126 140.058 521.477 142.603C530.698 149.988 546.021 155.284 555.861 161.13C564.152 166.056 593.335 181.369 597.265 187.665C561.224 185.82 535.787 186.68 499.851 192.448C452.926 199.701 407.183 213.208 363.845 232.609C346.875 240.071 330.796 249.83 314.721 257.137C297.289 245.998 288.612 239.39 268.633 232.869Z" fill="#DCDAF9"/>
<path d="M521.477 142.605C540.615 144.097 560.193 145.769 579.024 149.611C680.825 170.382 776.272 226.332 853.639 294.637C867.125 306.707 879.755 319.701 891.438 333.525C940.464 390.816 991.406 463.718 984.155 543.001C978.309 606.924 935.055 665.196 887.373 705.486C879.632 712.036 871.821 718.322 862.665 722.792C858.444 724.903 853.318 730.11 848.818 732.312C834.646 741.027 765.461 781.477 754.073 782.158C761.511 775.199 768.34 767.844 775.494 760.997C800.015 737.528 823.394 710.714 839.563 680.741C841.632 676.907 846.64 669.158 847.411 665.24C847.774 664.504 854.202 656.557 855.141 655.377C858.965 650.68 862.34 645.151 866.02 640.425C894.451 603.913 913.746 560.896 912.978 513.906C912.846 505.824 909.961 473.558 905.649 467.847C912.034 453.499 922.581 428.512 920.684 412.826C918.059 391.135 883.923 366.877 867.493 354.372C867.61 354.15 867.978 353.591 867.803 353.326C823.837 286.601 727.186 221.485 654.927 198.777C636.152 193.053 616.823 189.329 597.265 187.667C593.335 181.371 564.152 166.058 555.861 161.132C546.021 155.286 530.698 149.99 521.477 142.605ZM940.561 600.234C941.388 596.649 941.019 592.12 936.623 591.319C934.501 592.136 935.771 591.432 934.441 593.236C933.849 594.039 935.563 602.432 935.626 602.585C936.271 603.751 935.818 603.296 936.992 603.943C938.586 603.314 939.504 601.673 940.561 600.234ZM897.421 651.583C896.718 654.935 899.186 660.906 902.719 662.167C904.411 661.961 904.663 662.006 905.992 660.736C911.442 655.526 901.262 648.879 900.944 646.97L902.63 645.47L902.303 645.224C900.468 645.88 897.946 647.328 896.566 648.767C896.559 650.412 896.296 649.704 897.421 650.945V651.583ZM887.322 665.036L888.131 664.334L887.792 664.06C884.563 665.146 877.033 667.876 873.892 667.732L873.498 666.751C875.606 664.982 880.796 666.358 881.122 665.005C877.225 660.185 872.328 662.337 872.295 668.045C872.283 669.933 874.296 671.708 875.59 673.068C879.483 670.02 880.489 665.525 885.162 667.672C886.194 671.49 885.923 672.007 884.095 675.493L883.54 675.814L882.663 673.8L882.025 673.642L880.985 674.397C881.098 677.017 887.741 680.664 890.961 678.481L891.011 677.386C890.074 676.412 890.448 676.691 889.233 676.027C894.976 673.834 893.893 668.139 887.58 667.233C887.338 667.165 886.8 666.838 886.552 666.701L887.322 665.036ZM927.955 585.885L927.843 587.35C930.62 589.239 931.158 586.333 932.293 591.67C932.466 592.485 932.414 592.271 932.788 593.064C934.573 588.433 932.327 586.538 927.955 585.885ZM923.602 587.636C914.659 589.353 915.338 593.137 921.683 598.236C924.365 595.976 926.882 594.292 927.697 590.812C927.049 588.47 926.004 588.042 923.602 587.636ZM910.224 606.276C907.434 608.816 907.98 607.688 907.085 610.762C907.276 612.15 907.985 613.415 909.069 614.303C910.126 615.161 910.266 615.026 911.355 614.975C911.9 612.038 908.717 610.399 910.598 608.853C912.621 609.397 912.577 609.308 914.171 610.606C913.88 612.43 913.348 613.363 914.069 614.577C915.034 613.935 916.715 610.305 918.826 607.98L918.198 608.584L917.499 608.202L916.874 608.238C913.401 608.403 913.234 608.194 910.224 606.276ZM921.614 609.945C922.668 611.632 922.936 611.906 924.485 613.164C925.11 616.313 922.216 616.011 922.05 619.46C923.212 623.436 925.317 623.687 928.732 625.989C929.868 623.48 931.262 620.648 932.092 618.057C929.445 613.267 928.826 612.843 924.011 610.047L921.614 609.945ZM900.814 624.319C895.468 629.886 893.613 631.358 901.422 635.727C906.563 630.909 906.5 628.475 900.814 624.319ZM913.432 625.841C912.39 627.219 912.165 627.15 911.916 628.728C912.883 629.012 912.845 629.003 913.792 629.146C915.731 632.514 918.128 641.078 913.838 643.536C911.274 641.656 912.617 634.04 910.926 632.043C909.233 632.586 909.575 632.737 908.242 634.475C910.026 638.548 910.41 642.226 913.76 644.946C917.639 645.509 918.389 640.827 919.349 637.857C918.092 633.9 916.82 628.373 913.432 625.841ZM887.728 643.621C884.27 645.529 883.588 650.682 887.863 652.034C889.628 651.706 890.609 650.734 891.512 649.216C893.429 644.217 893.769 647.179 896.37 645.165L896.037 644.471L887.728 643.621ZM860.645 682.062C851.547 687.03 860.454 695.831 865.992 687.819C866.411 686.193 866.49 685.721 866.675 684.048L867.315 683.55C868.341 684.055 868.297 684.061 869.121 684.871L869.863 684.574C869.258 681.127 863.398 681.976 860.645 682.062ZM872.98 684.383C873.135 686.374 872.697 685.984 873.664 686.877L875.564 685.332C876.464 686.665 877.025 688.534 877.328 690.116L876.408 689.476C875.002 690.412 875.308 690.668 874.575 692.67L874.227 692.594C874.23 691.065 874.431 689.227 873.839 687.955C872.522 688.467 872.785 688.684 871.904 690.297C872.668 693.881 872.633 696.238 876.955 696.221C878.476 695.483 879.673 694.682 880.158 693.016C881.916 686.983 877.565 685.161 872.98 684.383ZM866.936 690.32C867.685 693.113 868.913 695.429 870.695 697.707L871.929 697.673C871.842 695.804 868.522 691.149 866.936 690.32ZM867.116 696.219C865.949 698.877 866.131 697.69 866.73 700.854L866.164 700.942L865.14 699.606C863.873 700.306 862.416 702.366 861.442 703.565C861.236 705.154 861.002 704.553 861.644 705.645C862.963 705.423 862.869 705.396 863.894 704.507L864.452 704.523C864.359 705.693 864.337 705.469 863.85 706.475L864.555 707.103C870.212 706.233 872.758 699.924 867.116 696.219Z" fill="url(#paint0_linear_2264_31214)"/>
<path d="M314.72 257.14C330.795 249.833 346.874 240.074 363.844 232.612C407.182 213.211 452.925 199.704 499.85 192.451C535.786 186.683 561.223 185.823 597.264 187.668C616.822 189.33 636.151 193.054 654.926 198.778C727.185 221.486 823.836 286.602 867.802 353.327C867.977 353.592 867.609 354.151 867.492 354.373C864.058 352.052 860.817 349.905 857.561 347.319C856.918 345.769 855.078 343.54 854.034 342.167C813.542 288.928 736.488 234.794 674.165 210.44C654.114 202.473 633.171 196.965 611.795 194.036C599.864 193.067 585.766 191.548 573.944 191.498C483.842 191.119 397.541 217.386 319.051 260.379C300.579 268.457 272.596 286.798 257.056 299.41C252.957 302.733 249.003 306.232 245.207 309.898C243.59 311.46 239.822 316.07 238.014 316.403C236.766 315.499 237.236 316.074 236.656 314.544L236.67 313.452C257.951 291.836 287.607 270.84 314.72 257.14Z" fill="#FFEDE1"/>
<path d="M319.051 260.377C397.541 217.384 483.842 191.117 573.944 191.496C585.766 191.546 599.864 193.065 611.795 194.034L610.023 194.716C614.86 199.525 617.007 198.312 621.338 202.14C627.143 207.271 632.656 213.968 637.929 219.794C640.909 223.087 645.336 226.575 647.742 229.267C645.597 231.712 643.959 233.902 646.182 237.031C648.925 238.378 649.816 237.644 652.02 235.656C656.006 242.663 659.83 246.523 663.642 252.301C666.019 255.903 671.08 270.028 672.955 274.845C578.081 253.508 482.761 255.197 391.467 291.257C381.569 295.167 371.922 299.974 362.092 303.924C359.472 302.203 357.047 296.838 352.208 293.998C344.723 283.056 329.163 268.939 319.051 260.377ZM581.717 193.581C579.751 194.055 578.518 196.005 578.933 197.984C579.347 199.963 581.26 201.254 583.25 200.899C584.592 200.659 585.697 199.709 586.134 198.418C586.572 197.128 586.273 195.701 585.354 194.695C584.435 193.689 583.041 193.262 581.717 193.581ZM522.533 195.215C521.11 195.16 519.775 195.904 519.072 197.142C518.369 198.381 518.415 199.908 519.191 201.102C519.968 202.296 521.345 202.958 522.762 202.818C524.757 202.622 526.259 200.914 526.198 198.91C526.138 196.906 524.536 195.291 522.533 195.215ZM560.781 195.938C559.566 196.417 558.714 197.528 558.566 198.826C558.419 200.124 559 201.398 560.076 202.138C561.153 202.878 562.55 202.963 563.709 202.36C565.377 201.492 566.073 199.47 565.293 197.759C564.513 196.048 562.53 195.248 560.781 195.938ZM538.448 202.275C535.788 206.641 536.503 211.628 542.799 210.94C546.216 206.14 544.384 202.248 538.448 202.275ZM598.014 202.784C593.44 205.959 593.637 210.303 599.264 211.984C602.911 208.43 603.766 204.728 598.014 202.784ZM577.028 205.358C575.003 205.792 573.671 207.733 573.991 209.778C574.312 211.824 576.175 213.263 578.236 213.057C579.675 212.913 580.917 211.985 581.462 210.645C582.007 209.305 581.767 207.774 580.838 206.666C579.908 205.557 578.442 205.054 577.028 205.358ZM555.969 210.803C553.894 212.986 552.371 214.932 554.277 217.91C555.681 218.887 555.575 218.931 557.241 219.162C559.535 216.792 561.106 215.156 559.084 211.967C557.581 211.055 557.69 211.036 555.969 210.803ZM515.691 212.426C513.619 213.251 512.613 215.605 513.451 217.673C514.288 219.741 516.649 220.732 518.712 219.881C520.756 219.038 521.737 216.703 520.906 214.653C520.076 212.603 517.746 211.608 515.691 212.426ZM612.597 215.658C610.517 216.268 609.316 218.438 609.905 220.524C610.493 222.609 612.651 223.832 614.742 223.266C616.115 222.894 617.181 221.814 617.536 220.437C617.891 219.06 617.479 217.599 616.457 216.61C615.435 215.622 613.961 215.258 612.597 215.658ZM534.222 217.844C530.341 221.758 530.799 226.021 536.994 226.211C540.454 222.515 539.623 218.26 534.222 217.844ZM572.093 220.91C569.268 222.196 567.727 223.557 568.546 226.974C569.776 228.699 570.371 228.98 572.488 229.246C575.683 226.235 578.11 222.776 572.093 220.91ZM590.225 221.408C586.444 225.068 585.012 229.716 591.864 230.181L592.091 230.199C594.43 227.824 595.873 226.115 594.223 222.845C592.572 221.587 592.372 221.656 590.225 221.408ZM630.029 221.232C627.778 223.542 627.185 224.185 627.156 227.357C627.825 229.011 627.767 228.896 629.264 229.883L631.482 230.164C635.385 226.605 635.948 222.639 630.029 221.232ZM512.16 227.63C510.725 228.148 509.688 229.41 509.458 230.918C509.228 232.426 509.842 233.939 511.057 234.862C512.272 235.784 513.894 235.968 515.285 235.341C517.324 234.422 518.273 232.055 517.432 229.982C516.592 227.909 514.264 226.87 512.16 227.63ZM548.001 227.895C546.229 230.644 545.405 232.823 547.779 235.439C549.388 236.123 549.476 235.968 551.169 235.68C554.774 231.69 553.392 228.016 548.001 227.895ZM604.695 231.465C601.568 235.547 601.502 240.127 607.852 240.062C611.844 235.659 611.698 231.313 604.695 231.465ZM528.624 234.387C526.767 235.299 526.001 237.544 526.913 239.402C527.825 241.259 530.069 242.027 531.927 241.117C533.787 240.206 534.556 237.959 533.643 236.099C532.731 234.24 530.483 233.473 528.624 234.387ZM564.792 236.313C563.142 237.218 562.477 239.249 563.272 240.955C564.067 242.661 566.049 243.457 567.804 242.775C569.045 242.292 569.915 241.159 570.06 239.835C570.205 238.511 569.602 237.216 568.494 236.476C567.387 235.736 565.96 235.673 564.792 236.313ZM623.975 237.697C621.978 238.171 620.749 240.181 621.237 242.175C621.726 244.169 623.745 245.383 625.735 244.88C627.705 244.383 628.905 242.388 628.421 240.415C627.938 238.441 625.952 237.227 623.975 237.697ZM583.404 239.382C580.182 242.418 578.504 248.037 584.523 248.554C587.199 246.698 589.076 244.808 587.783 241.33C586.274 239.635 585.668 239.507 583.404 239.382ZM544.682 245.33C543.434 245.842 542.566 246.996 542.423 248.338C542.279 249.679 542.883 250.991 543.995 251.755C545.106 252.518 546.547 252.611 547.748 251.997C549.499 251.1 550.233 248.981 549.41 247.194C548.588 245.406 546.503 244.584 544.682 245.33ZM642.018 246.264C640.61 246.343 639.359 247.186 638.757 248.461C638.155 249.735 638.298 251.237 639.131 252.375C639.963 253.513 641.351 254.104 642.748 253.915C644.796 253.639 646.259 251.795 646.063 249.738C645.867 247.681 644.081 246.147 642.018 246.264ZM599.546 247.341C596.089 251.694 596.164 256.257 602.927 255.881C604.28 254.371 605.236 253.216 605.044 250.995C604.938 249.744 604.247 248.616 603.18 247.953C602.086 247.275 600.812 247.353 599.546 247.341ZM524.986 248.784C522.89 249.441 521.706 251.656 522.324 253.764C522.943 255.872 525.136 257.097 527.255 256.517C528.661 256.133 529.75 255.019 530.102 253.605C530.455 252.19 530.017 250.696 528.956 249.696C527.895 248.697 526.377 248.348 524.986 248.784ZM560.958 250.819C559.465 250.918 558.145 251.821 557.512 253.177C556.88 254.533 557.036 256.126 557.92 257.334C558.804 258.541 560.275 259.171 561.759 258.977C563.955 258.691 565.527 256.714 565.31 254.51C565.094 252.307 563.168 250.673 560.958 250.819ZM617.146 251.839C613.158 255.377 612.449 261.004 618.758 260.974C620.989 258.873 622.833 256.973 621.295 253.773C619.893 252.431 619.06 252.17 617.146 251.839ZM659.138 253.194C657.174 253.841 656.102 255.953 656.739 257.92C657.376 259.887 659.483 260.97 661.453 260.343C663.437 259.711 664.529 257.586 663.887 255.605C663.246 253.624 661.116 252.543 659.138 253.194Z" fill="#DCDAF9"/>
<path d="M583.249 200.899C581.259 201.254 579.346 199.963 578.932 197.984C578.517 196.005 579.75 194.055 581.716 193.581C583.04 193.262 584.434 193.689 585.353 194.695C586.272 195.701 586.571 197.128 586.133 198.418C585.696 199.709 584.591 200.659 583.249 200.899Z" fill="#FFEDE1"/>
<path d="M611.795 194.035C633.171 196.964 654.114 202.472 674.165 210.439C736.488 234.793 813.542 288.927 854.034 342.166C855.078 343.539 856.918 345.768 857.561 347.318C852.284 344.715 842.875 338.412 837.173 335.078C826.46 328.904 815.479 323.207 804.263 318.003C778.192 305.939 751.221 295.923 723.595 288.047C706.823 283.295 689.706 279.569 672.955 274.846C671.08 270.029 666.019 255.904 663.642 252.302C659.83 246.524 656.006 242.664 652.02 235.657C652.109 231.918 651.569 230.372 647.742 229.268C645.336 226.576 640.909 223.088 637.929 219.795C632.656 213.969 627.143 207.272 621.338 202.141C617.007 198.313 614.86 199.526 610.023 194.717L611.795 194.035Z" fill="#98F5E1"/>
<path d="M522.761 202.817C521.344 202.957 519.967 202.295 519.19 201.101C518.414 199.907 518.368 198.38 519.071 197.141C519.774 195.903 521.109 195.159 522.532 195.214C524.535 195.29 526.137 196.905 526.197 198.909C526.258 200.913 524.756 202.621 522.761 202.817Z" fill="#FFEDE1"/>
<path d="M563.708 202.361C562.549 202.964 561.152 202.879 560.075 202.139C558.999 201.399 558.418 200.125 558.565 198.827C558.713 197.529 559.566 196.418 560.781 195.939C562.53 195.249 564.513 196.049 565.293 197.76C566.073 199.471 565.376 201.493 563.708 202.361Z" fill="#FFEDE1"/>
<path d="M542.798 210.939C536.502 211.627 535.787 206.64 538.447 202.274C544.383 202.247 546.215 206.139 542.798 210.939Z" fill="#FFEDE1"/>
<path d="M599.263 211.985C593.636 210.304 593.439 205.96 598.013 202.785C603.765 204.729 602.91 208.431 599.263 211.985Z" fill="#FFEDE1"/>
<path d="M578.238 213.056C576.177 213.262 574.314 211.823 573.993 209.777C573.673 207.732 575.005 205.791 577.03 205.357C578.444 205.053 579.91 205.556 580.84 206.665C581.769 207.773 582.009 209.304 581.464 210.644C580.919 211.984 579.677 212.912 578.238 213.056Z" fill="#FFEDE1"/>
<path d="M557.241 219.164C555.575 218.933 555.681 218.889 554.277 217.912C552.371 214.934 553.894 212.988 555.969 210.805C557.69 211.038 557.581 211.057 559.084 211.969C561.106 215.158 559.535 216.794 557.241 219.164Z" fill="#FFEDE1"/>
<path d="M518.713 219.882C516.65 220.733 514.289 219.742 513.452 217.674C512.614 215.606 513.62 213.252 515.692 212.427C517.747 211.609 520.077 212.604 520.907 214.654C521.738 216.704 520.757 219.039 518.713 219.882Z" fill="#FFEDE1"/>
<path d="M614.741 223.268C612.65 223.834 610.492 222.611 609.904 220.526C609.315 218.44 610.516 216.27 612.596 215.66C613.96 215.26 615.434 215.624 616.456 216.612C617.478 217.601 617.89 219.062 617.535 220.439C617.18 221.816 616.114 222.896 614.741 223.268Z" fill="#FFEDE1"/>
<path d="M536.993 226.211C530.798 226.021 530.34 221.758 534.221 217.844C539.622 218.26 540.453 222.515 536.993 226.211Z" fill="#FFEDE1"/>
<path d="M572.489 229.246C570.372 228.98 569.777 228.699 568.547 226.974C567.728 223.557 569.269 222.196 572.094 220.91C578.111 222.776 575.684 226.235 572.489 229.246Z" fill="#FFEDE1"/>
<path d="M592.093 230.197L591.866 230.179C585.014 229.714 586.446 225.066 590.227 221.406C592.374 221.654 592.574 221.585 594.225 222.843C595.875 226.113 594.432 227.822 592.093 230.197Z" fill="#FFEDE1"/>
<path d="M631.482 230.162L629.264 229.881C627.767 228.894 627.825 229.009 627.156 227.355C627.185 224.183 627.778 223.54 630.029 221.23C635.948 222.637 635.385 226.603 631.482 230.162Z" fill="#FFEDE1"/>
<path d="M515.285 235.342C513.894 235.969 512.272 235.785 511.057 234.863C509.842 233.94 509.228 232.427 509.458 230.919C509.688 229.411 510.725 228.149 512.16 227.631C514.264 226.871 516.592 227.91 517.432 229.983C518.273 232.056 517.324 234.423 515.285 235.342Z" fill="#FFEDE1"/>
<path d="M551.17 235.68C549.477 235.968 549.389 236.123 547.78 235.439C545.406 232.823 546.23 230.644 548.002 227.895C553.393 228.016 554.775 231.69 551.17 235.68Z" fill="#FFEDE1"/>
<path d="M647.741 229.266C651.568 230.37 652.108 231.916 652.019 235.655C649.815 237.643 648.924 238.377 646.181 237.03C643.958 233.901 645.596 231.711 647.741 229.266Z" fill="#FFEDE1"/>
<path d="M607.854 240.062C601.504 240.127 601.57 235.547 604.697 231.465C611.7 231.313 611.846 235.659 607.854 240.062Z" fill="#FFEDE1"/>
<path d="M279.065 833.11C257.691 838.504 235.386 839.092 213.758 834.831C197.412 831.73 181.519 826.596 166.448 819.549C140.322 807.555 105.22 783.281 89.267 759.303C81.6011 747.781 75.6361 734.652 69.6382 722.202C43.5925 668.141 35.8094 627.423 47.8024 568.109C50.9439 552.572 56.559 537.919 61.2524 522.822C64.8211 511.343 67.3683 499.698 71.6224 488.412C82.7601 458.864 97.1137 431.17 113.682 404.368C117.119 398.808 120.299 393.11 123.977 387.7C132.815 374.698 142.512 362.293 152.148 349.878C162.699 336.283 173.469 322.544 185.113 309.865C195.557 298.492 206.743 287.633 217.926 276.986C234.209 261.486 249.769 245.404 268.63 232.871C288.609 239.392 297.287 246 314.719 257.139C287.606 270.839 257.95 291.835 236.669 313.451C235.718 310.576 238.212 307.171 239.771 304.058C240.372 301.779 240.587 301.473 240.141 299.249L239.445 298.355C235.04 298.182 210.712 320.294 206.681 324.019C196.748 333.309 187.573 343.378 179.243 354.13C171.771 363.835 165.043 374.275 158.575 384.672C122.714 442.319 89.5223 506.257 94.4144 576.26C94.7689 581.333 95.2051 604.59 98.241 607.063C90.8699 633.646 86.9691 645.937 109.058 665.595C108.59 667.815 110.62 671.009 111.725 673.643C118.197 689.515 126.224 704.707 135.687 718.999C141.85 728.461 148.767 736.747 156.088 745.323C171.709 763.677 189.735 780.552 211.335 791.623C216.914 794.483 222.624 797.506 228.359 800.034C231.996 801.638 241.467 807.2 245.033 804.416C247.609 805.681 260.473 817.882 263.863 820.767C268.463 824.681 274.502 829.254 279.065 833.11ZM86.9287 504.196C86.3289 506.019 84.3684 510.44 84.5762 511.605C85.6216 511.431 85.1907 511.614 85.912 511.17C87.4278 509.722 88.6251 508.863 89.3649 506.954C89.0823 505.208 88.7061 504.957 86.9287 504.196ZM81.2501 505.841C79.0367 508.18 77.0146 510.477 76.4572 513.748C77.0849 515.544 77.6309 515.547 79.2859 517.022L78.8667 517.481C76.3669 517.221 75.4836 516.761 73.4731 517.831C72.5022 519.445 72.5847 519.791 72.4701 521.63C73.1048 523.548 73.7972 524.003 75.2546 525.509L75.0327 526.268C71.4916 526.983 70.8854 526.57 69.1964 529.965L70.4497 531.573C74.6035 531.949 82.1717 520.825 81.3309 517.273L79.9037 516.205C79.9601 514.554 79.6186 512.444 79.8852 510.959C81.344 509.658 83.6441 508.109 84.0344 506.549C82.81 505.741 82.7603 505.883 81.2501 505.841Z" fill="#FBF8CC"/>
<path d="M531.926 241.116C530.068 242.026 527.824 241.257 526.912 239.4C526 237.542 526.766 235.297 528.623 234.385C530.482 233.471 532.73 234.238 533.642 236.097C534.555 237.957 533.786 240.205 531.926 241.116Z" fill="#FFEDE1"/>
<path d="M567.804 242.776C566.049 243.458 564.067 242.662 563.272 240.956C562.477 239.25 563.142 237.219 564.792 236.314C565.96 235.674 567.387 235.737 568.494 236.477C569.602 237.217 570.205 238.512 570.06 239.836C569.915 241.16 569.045 242.293 567.804 242.776Z" fill="#FFEDE1"/>
<path d="M625.734 244.882C623.744 245.385 621.725 244.171 621.236 242.177C620.748 240.183 621.977 238.173 623.974 237.699C625.951 237.229 627.937 238.443 628.42 240.417C628.904 242.39 627.704 244.385 625.734 244.882Z" fill="#FFEDE1"/>
<path d="M584.524 248.555C578.505 248.038 580.183 242.419 583.405 239.383C585.669 239.508 586.275 239.636 587.784 241.331C589.077 244.809 587.2 246.699 584.524 248.555Z" fill="#FFEDE1"/>
<path d="M547.748 251.997C546.547 252.611 545.106 252.518 543.995 251.755C542.883 250.991 542.279 249.679 542.423 248.338C542.566 246.996 543.434 245.842 544.682 245.33C546.503 244.584 548.588 245.406 549.41 247.194C550.233 248.981 549.499 251.1 547.748 251.997Z" fill="#FFEDE1"/>
<path d="M642.746 253.915C641.349 254.104 639.961 253.513 639.129 252.375C638.296 251.237 638.153 249.735 638.755 248.461C639.357 247.186 640.608 246.343 642.016 246.264C644.079 246.147 645.865 247.681 646.061 249.738C646.257 251.795 644.794 253.639 642.746 253.915Z" fill="#FFEDE1"/>
<path d="M602.928 255.88C596.165 256.256 596.09 251.693 599.547 247.34C600.813 247.352 602.086 247.274 603.18 247.952C604.247 248.615 604.939 249.743 605.045 250.994C605.237 253.215 604.281 254.37 602.928 255.88Z" fill="#FFEDE1"/>
<path d="M527.255 256.515C525.136 257.095 522.943 255.87 522.324 253.762C521.706 251.654 522.89 249.439 524.986 248.782C526.377 248.346 527.895 248.695 528.956 249.694C530.017 250.694 530.455 252.188 530.102 253.603C529.75 255.017 528.661 256.131 527.255 256.515Z" fill="#FFEDE1"/>
<path d="M561.76 258.976C560.276 259.17 558.805 258.54 557.921 257.333C557.037 256.125 556.881 254.532 557.513 253.176C558.146 251.82 559.466 250.917 560.959 250.818C563.169 250.672 565.095 252.306 565.311 254.509C565.528 256.713 563.956 258.69 561.76 258.976Z" fill="#FFEDE1"/>
<path d="M618.757 260.975C612.448 261.005 613.157 255.378 617.145 251.84C619.059 252.171 619.892 252.432 621.294 253.774C622.832 256.974 620.988 258.874 618.757 260.975Z" fill="#FFEDE1"/>
<path d="M661.452 260.342C659.482 260.969 657.375 259.886 656.738 257.919C656.101 255.952 657.173 253.84 659.137 253.193C661.115 252.542 663.245 253.623 663.886 255.604C664.528 257.585 663.436 259.71 661.452 260.342Z" fill="#FFEDE1"/>
<path d="M236.656 314.544C237.236 316.074 236.766 315.499 238.014 316.403C239.822 316.07 243.59 311.46 245.207 309.898C249.003 306.232 252.957 302.733 257.056 299.41C272.596 286.798 300.579 268.457 319.051 260.379C329.163 268.941 344.723 283.058 352.208 294L359.6 305.158C239.526 365.653 148.138 459.298 103.767 588.364C102.648 591.616 101.327 595.749 100.609 599.076C98.7682 592.958 97.9524 563.839 98.2281 556.825C99.0625 536.076 102.597 515.525 108.742 495.689C125.366 441.719 170.044 364.551 211.086 324.818C217.368 318.736 228.496 309.794 235.63 304.133C236.397 303.525 237.467 303.591 238.444 303.631C237.191 305.518 235.85 307.349 234.607 309.23C232.606 312.255 234.059 313.21 236.656 314.544Z" fill="#FBF8CC"/>
<path d="M362.091 303.922C371.921 299.972 381.568 295.165 391.466 291.255C482.76 255.195 578.08 253.506 672.954 274.843C689.705 279.566 706.822 283.292 723.594 288.044C751.22 295.92 778.191 305.936 804.262 318C815.478 323.204 826.459 328.901 837.172 335.075C842.874 338.409 852.283 344.712 857.56 347.315C860.816 349.901 864.057 352.048 867.491 354.369C883.921 366.874 918.057 391.132 920.682 412.823C922.579 428.509 912.032 453.496 905.647 467.844C904.813 469.732 903.887 471.726 903.155 473.644C894.207 491.791 884.319 506.305 873.175 523.166C870.204 527.661 862.878 536.457 860.659 540.345C849.755 554.378 841.187 567.015 829.33 581.074C804.479 610.097 776.99 636.754 747.218 660.704C731.375 673.572 713.127 687.376 695.489 697.666C682.632 705.13 669.465 712.049 656.025 718.404C646.016 723.022 635.692 727.097 625.629 731.588C593.179 745.152 557.998 753.093 523.564 759.815C481.796 767.967 441.453 769.972 398.979 769.015C395.469 768.667 391.707 768.525 388.124 768.448C328.289 767.163 271.205 747.38 215.666 726.843C203.424 722.316 188.089 714.659 176.36 708.749C152.153 695.838 137.653 687.112 115.583 671.142C113.588 669.15 111.26 667.373 109.059 665.592C86.9695 645.934 90.8703 633.643 98.2414 607.06C99.035 604.818 99.9197 601.434 100.608 599.072C101.326 595.745 102.647 591.612 103.766 588.36C148.137 459.294 239.525 365.649 359.599 305.154L362.091 303.922ZM360.316 317.206C341.572 327.059 323.547 336.623 305.696 348.083C269.999 371.001 239.257 398.118 209.883 428.575C217.036 433.5 221.733 438.554 227.319 445.236C238.321 434.381 247.182 424.7 258.984 413.943C293.029 383.276 331.336 357.703 372.713 338.021C379.938 334.566 388.558 331.387 396.1 328.551C412.819 322.145 429.917 316.773 447.296 312.465C492.083 301.632 553.565 296.15 599.409 296.464C622.472 296.621 653.636 300.163 676.858 303.135C671.566 297.608 654.928 283.154 648.138 281.648C620.576 275.537 591.913 272.668 563.796 272.165C493.315 270.397 423.467 285.858 360.316 317.206ZM372.407 343.378C329.217 363.782 289.527 390.889 254.808 423.696C246.418 431.483 237.023 440.29 229.55 448.834C238.159 464.869 250.495 479.398 258.054 496.266C259.376 499.216 261.361 503.057 263.035 505.818C267.034 513.097 270.238 520.781 274.504 528.294C287.481 519.973 294.864 515.455 308.735 508.883C307.469 500.189 306.668 491.442 308.477 482.757C313.476 477.838 304.536 469.268 320.661 462.915C328.921 462.873 332.683 465.745 337.521 471.941C345.92 468.983 354.329 465.156 363.101 462.069C350.77 439.653 373.406 434.88 387.139 449.899C394.206 446.864 400.766 444.099 407.962 441.408C398.153 431.264 398.629 419.36 415.74 419.334C422.647 419.323 428.118 425.068 432.242 430.282C436.578 428.029 447.976 423.04 452.786 421.289C443.715 410.334 443.088 397.237 460.749 397.354C470.22 397.417 476.679 404.119 482.788 410.511C488.978 408.677 495.637 405.963 501.727 403.632C488.607 381.029 519.159 373.589 533.858 397.955C541.357 395.769 546.462 394.832 554.136 393.895C544.955 380.371 552.721 368.333 568.974 371.286C578.223 372.966 584.162 380.092 588.965 387.659C596.772 386.517 604.466 386.312 612.457 384.951C609.127 380.737 603.854 374.959 608.581 369.987C616.562 361.594 627.555 370.581 634.607 374.121C652.713 383.209 667.353 394.112 682.371 407.458C697.12 404.901 713.487 402.486 728.472 401.389C721.67 378.851 695.559 326.243 680.65 308.115C669.65 306.66 658.982 305.84 647.996 304.742C569.702 296.919 487.599 302.356 412.783 327.699C399.69 332.135 384.817 337.096 372.407 343.378ZM580.91 382.213C573.956 377.452 561.195 370.321 555.109 379.721C550.385 387.016 563.315 394.349 567.049 399.252C569.791 402.904 573.424 407.475 575.728 411.302C582.308 422.931 590.328 444.107 591.167 457.257C592.195 462.526 590.107 471.4 591.583 476.336C594.084 484.7 602.291 481.132 604.492 474.398C611.33 453.466 604.593 427.419 596.464 407.755C592.231 398.889 588.019 388.985 580.91 382.213ZM531.705 401.685C526.784 395.018 521.451 388.269 512.583 387.029C510.022 386.671 504.576 386.974 503.048 390.405C500.071 397.087 509.562 404.684 512.788 409.822C512.917 409.886 513.045 409.951 513.174 410.016L514.462 412.343L512.959 414.408C511.79 413.025 510.494 411.409 509.296 410.086C501.31 411.341 493.881 413.645 486.162 415.959C487.998 418.865 490.012 421.933 491.731 424.884C498.633 422.693 508.57 420.065 514.912 417.583L517.801 417.436C518.392 418.419 520.427 421.958 521.019 422.647C529.088 436.258 536.898 457.584 539.604 473.16C540.384 478.554 539.526 495.146 543.349 496.804C560.199 504.111 556.582 471.666 556.242 467.65C555.672 453.954 547.072 431.509 541.163 418.927C538.765 413.274 535.123 406.757 531.705 401.685ZM649.037 404.158C643.527 392.525 636.169 375.638 622.788 370.87C619.896 369.82 616.701 369.989 613.935 371.337C612.269 372.151 612.026 372.783 611.579 374.274C611.897 376.839 617.659 380.706 620.109 384.4C624.963 391.719 627.01 396.193 630.217 404.33C638.134 424.774 639.649 443.122 642.784 464.403C643.418 468.704 651.362 471.191 655.804 469.335C663.349 466.181 662.225 460.279 661.554 453.291C658.982 437.672 656.102 418.271 649.037 404.158ZM468.208 431.005C476.834 445.036 485.662 471.15 490.221 487.39C492.069 493.973 492.474 503.246 496.039 508.999C497.087 510.69 498.689 511.74 500.65 512.061C503.408 512.512 506.669 511.546 508.836 509.813C511.728 507.501 512.998 503.863 513.308 500.276C514.996 480.782 493.226 427.836 480.524 412.85C475.454 406.869 468.603 401.808 460.471 401.334C457.503 401.162 453.267 401.692 451.163 404.062C450.294 405.041 450.057 406.143 450.076 407.417C450.18 414.639 457.911 417.811 462.293 422.106L460.579 423.958C457.38 424.043 455.758 424.794 452.897 426.222C453.295 430.039 453.649 434.031 454.219 437.809C456.818 436.787 465.064 434.117 466.105 432.107C467.044 431.046 466.57 431.515 468.208 431.005ZM536.438 478.6C531.737 480.251 519.262 483.714 515.66 485.431C516.801 492.774 518.749 504.604 514.117 511.116C511.851 514.251 508.411 516.332 504.583 516.885C491.676 518.863 490.602 506.75 488.897 497.488C485.559 498.911 466.928 506.58 464.917 507.847L463.839 508.341C463.478 509.893 463.881 513.417 464.107 515.246C465.355 525.345 456.982 534.557 446.659 532.636C439.405 531.287 438.457 522.309 438.098 515.996C430.659 518.274 420.35 523.49 412.162 526.447C413.782 532.158 415.487 538.198 412.173 543.784C410.358 546.837 407.382 549.022 403.926 549.839C396.546 551.623 390.176 546.911 388.895 539.581C388.598 537.924 388.428 536.247 388.386 534.564C380.049 536.853 372.948 538.436 364.494 540.204C364.536 542.8 364.737 545.782 364.278 548.353C362.113 560.465 350.227 565.378 341.726 555.345C336.526 549.208 338.632 542.668 337.343 535.408C331.291 536.5 328.787 536.7 322.651 536.39C314.024 531.466 313.096 523.625 310.309 514.499C299.324 520.295 287.046 526.723 276.924 534.025C301.743 592.086 320.93 644.217 335.625 705.925C370.371 709.243 426.85 704.109 461.626 697.372C502.006 691.832 555.981 677.225 594.444 663.336C613.329 656.432 628.773 649.482 647.014 641.077C688.929 622.109 729.279 599.858 767.687 574.533C767.257 566.105 764.921 552.068 763.567 543.565C759.847 518.702 754.086 487.036 747.915 462.65C743.217 444.503 737.806 426.549 731.694 408.829C716.742 410.359 699.698 411.673 685.272 415.356C676.525 427.215 679.446 439.449 666.124 451.273C666.845 457.372 667.711 463.22 663.857 468.587C661.811 471.431 658.701 473.327 655.235 473.842C651.091 474.426 646.89 473.28 643.616 470.673C638.263 466.399 637.737 461.194 636.945 454.998C628.099 456.542 619.317 458.435 610.621 460.672C609.303 491.374 585.987 495.313 586.073 465.847C578.363 467.599 568.455 469.573 561.026 471.75C561.596 483.425 561.306 506.479 543.085 500.364L542.502 499.882C536.656 494.161 537.161 486.455 536.438 478.6ZM186.964 492.347C181.656 486.715 177.588 482.138 171.387 477.46L152.685 507.638C144.945 520.132 137.491 533.856 131.239 547.146C123.215 564.202 99.2031 624.418 103.567 641.267C104.601 645.257 107.099 649.157 109.677 652.341C133.666 630.216 157.644 613.774 184.05 594.676C192.09 588.892 200.069 583.025 207.987 577.075C210.049 575.507 215.478 571.561 217.183 569.967L224.714 564.41C222.833 559.181 220.747 554.028 218.462 548.962C214.243 539.078 208.777 527.975 203.887 518.473C201.664 514.023 192.1 496.972 188.567 495.063C186.792 493.802 187.36 494.644 186.964 492.347ZM406.001 495.919L404.301 498.257C400.654 483.129 393.316 462.553 384.024 450.313C379.524 444.387 367.01 441.497 363.383 447.665C359.642 454.027 372.643 467.579 374.723 473.488C384.191 490.439 388.742 509.461 392.04 528.408C392.787 532.699 392.93 544.015 397.096 545.069C414.956 549.587 410.312 529.061 409.25 521.199L411.585 520.522C416.372 520.111 432.368 512.51 437.711 510.098C435.873 500.808 434.849 493.331 431.549 484.322C422.674 488.811 414.492 491.84 406.001 495.919ZM258.747 506.676C249.474 486.576 238.799 470.141 226.859 451.786C214.57 464.091 203.419 478.142 192.281 491.561C198.546 501.207 203.313 508.152 208.73 518.407C215.762 532.697 222.256 547.245 228.199 562.021C241.928 550.438 254.602 541.419 269.292 531.31C265.842 522.721 262.706 515.036 258.747 506.676ZM737.489 408.091C747.892 434.828 756.24 463.932 762.073 492.043C765.871 510.343 767.801 531.067 771.253 549.372C771.998 556.145 772.918 563.676 773.087 570.477C778.349 566.328 783.641 562.218 788.963 558.148C794.546 554.585 809.535 541.405 815.91 536.437C812.169 491.836 805.712 447.996 790.541 405.724C772.36 406.642 756.115 406.175 737.489 408.091ZM796.815 558.277C789.971 563.299 779.487 570.669 773.392 576.123C774.336 590.647 775.755 605.005 776.51 619.57C786.156 611.144 808.488 588.61 815.937 578.12L815.967 568.2C816.111 559.512 816.501 550.622 816.077 541.975C809.482 546.97 803.066 552.804 796.815 558.277ZM217.29 577.01C195.11 593.571 172.41 608.193 149.939 624.227C138.713 632.238 121.495 644.858 111.54 654.569C150.155 683.255 185.082 703.437 229.988 720.376C235.189 723.122 261.479 735.919 267.645 734.61C269.131 734.295 272.094 730.035 272.798 728.032C275.491 720.367 274.134 713.971 271.073 706.934C270.891 705.447 271.025 705.064 270.001 704.009C260.322 670.284 248.247 637.024 238.483 603.264C235.424 592.689 231.561 580.095 227.104 570.109L217.29 577.01ZM593.888 667.832C555.227 681.538 500.179 695.318 459.271 701.863C423.912 706.711 372.028 712.228 336.151 709.477C337.05 724.424 337.637 738.611 329.141 751.634C350.786 755.178 371.265 758.035 393.239 758.58C398.501 758.71 407.832 759.568 412.835 759.054C465.801 761.044 535.272 749.045 585.974 733.557C593.654 731.211 608.327 726.448 615.447 722.972C627.095 718.419 639.995 713.518 651.29 708.21C694.813 687.255 734.753 659.557 769.634 626.14C770.431 611.085 768.618 595.048 767.869 579.871C718.563 612.885 649.677 647.902 593.888 667.832ZM667.242 285.95C670.823 289.783 679.294 297.59 681.848 300.855C702.417 327.145 724.628 369.559 733.943 401.19C752.638 399.312 769.181 398.261 788.025 398.773C786.722 394.432 785.224 390.939 783.488 386.785C775.472 368.788 766.923 351.736 755.675 335.507C750.179 327.577 748.776 324.136 739.234 320.673C733.895 318.734 726.478 316.386 721.48 313.989C729.591 314.126 733.073 314.854 741.054 316.609C738.237 313.54 728.966 303.526 725.824 302.153C711.567 295.921 682.457 288.655 667.242 285.95ZM736.131 304.403C739.732 307.484 748.508 317.317 750.63 318.443C757.459 322.068 769.123 325.424 776.764 328.709C809.92 342.96 854.001 360.526 877.556 388.689C866.219 380.859 854.085 372.385 842.227 365.472C824.908 355.377 806.501 347.278 787.967 339.73C777.339 335.401 767.331 330.806 756.33 327.33C768.705 346.004 778.933 362.106 787.375 383.03C789.446 388.163 792.56 393.758 793.944 399.116C815.622 399.129 837.814 400.422 859.571 403.546C871.487 405.258 889.105 409.149 899.818 415.188C901.681 416.239 900.397 420.268 899.868 422.014C896.206 415.975 889.736 414.575 883.048 413.001C855.705 406.563 824.063 404.852 796.032 405.15C812.433 449.105 816.551 486.427 821.222 532.324C823.335 530.49 825.546 528.655 827.498 526.662C856.019 498.471 874.939 468.231 895.478 434.16C896.728 432.085 898.49 427.363 899.829 425.892C899.702 434.336 890.634 452.633 885.988 460.233C874.077 479.721 859.385 498.41 843.987 515.251C837.991 521.809 828.775 531.26 821.487 536.184C821.685 549.223 821.937 559.536 820.878 572.552C827.905 564.671 835.612 554.493 842.043 545.948C866.659 513.237 893.517 475.57 905.431 435.942C907.108 430.366 909.248 421.411 908.739 415.67C907.602 402.847 888.925 386.076 879.305 378.29C844.396 350.034 800.888 328.601 759.224 312.295C754.448 310.426 740.564 304.692 736.131 304.403ZM646.169 387.731C648.763 392.912 650.886 397.294 653.162 402.642C662.027 404.893 668.972 407.976 677.14 412.003C677.889 412.373 677.604 412.245 678.568 412.432C678.305 409.115 677.075 407.905 674.299 405.708C668.22 400.897 652.926 390.487 646.169 387.731ZM604.796 391.227C600.793 391.494 596.719 391.723 592.736 392.143C594.524 395.277 596.445 398.524 598.171 401.674C602.704 401.224 608.141 400.543 612.622 400.389C616.438 400.128 620.259 399.937 624.082 399.816C622.553 396.53 621.721 395.051 619.763 391.996C614.667 391.437 609.904 391.363 604.796 391.227ZM558.023 398.19C550.325 398.91 543.452 401.018 535.928 402.273C537.558 405.315 539.213 408.344 540.892 411.359L544.793 410.346C552.809 408.447 560.343 407.085 568.175 405.331C566.14 402.574 563.72 399.032 560.104 398.366C559.418 398.239 558.721 398.18 558.023 398.19ZM612.164 405.709C608.233 406.036 604.149 406.312 600.258 406.87C602.88 414 605.77 421.488 608.202 428.65L619.106 426.501L632.38 423.232C630.811 417.402 628.961 411.52 626.488 406.005C621.614 405.533 617.065 405.274 612.164 405.709ZM655.268 407.11C655.955 409.886 655.33 408.909 657.697 410.729L656.816 411.325C656.542 413.227 657.865 416.4 658.52 418.381L670.781 415.585L673.222 414.928L673.204 414.409C671.319 413.372 657.062 407.439 655.268 407.11ZM569.767 411.144C561.469 412.695 551.329 414.366 543.364 416.919C544.649 419.788 552.717 439.471 553.441 440.252L555.615 439.919C563.198 438.039 574.921 434.814 582.487 433.728C580.133 427.445 576.208 415.868 571.861 411.195C570.626 410.864 571.074 410.884 569.767 411.144ZM675.915 419.192C670.271 420.245 664.492 421.252 658.901 422.514C660.512 429.717 662.292 437.17 663.783 444.374L664.42 446.208C669.201 446.581 676.564 422.17 676.24 419.413L675.915 419.192ZM411.631 422.135C397.854 425.118 410.741 438.344 414.657 444.36C427.269 463.734 436.243 485.758 440.853 508.406C442.925 518.273 439.759 530.472 454.117 527.262C458.981 524.366 461.182 521.429 460.652 515.309C458.393 489.188 448.029 464.29 435.458 441.576C430.345 432.338 422.713 423.122 411.631 422.135ZM517.522 423.664C510.005 425.252 501.718 427.112 494.544 429.829C495.878 432.984 504.394 454.357 506.087 455.411C506.138 455.443 506.207 455.429 506.267 455.438C514.389 452.299 521.791 450.704 529.49 447.966C527.895 443.366 521.223 425.28 517.522 423.664ZM448.535 427.022C443.479 428.795 439.526 430.491 434.641 432.631L439.82 442.311L440.502 442.942C442.861 442.713 448.536 440.344 451.11 439.392C450.648 437.014 449.557 427.986 448.737 427.089L448.535 427.022ZM632.551 428.724C624.467 429.664 616.456 431.856 608.748 432.785C609.513 437.053 610.751 453.627 611.319 455.26C611.745 455.327 612.266 455.468 612.635 455.388C619.601 453.486 629.538 451.131 636.673 449.727C636.112 445.084 634.978 432.856 633.162 429.029L632.551 428.724ZM207.597 431.348C195.293 445.887 185.411 457.374 174.521 472.98C179.546 477.658 184.929 484.299 189.528 488.25L190.377 488.164C199.388 477.13 214.896 457.609 224.49 447.675C222.367 445.582 208.85 431.894 207.597 431.348ZM468.77 437.915C460.166 441.458 450.551 444.646 442.33 448.325C445.431 455.614 448.998 464.51 452.451 471.504C460.914 467.433 469.57 463.974 478.023 459.907C476.172 454.304 472.815 443.053 469.841 438.336L468.77 437.915ZM582.293 438.135C573.579 439.782 563.143 442.066 554.647 444.504C555.446 447.23 559.972 465.626 560.993 466.267C568.12 465.318 581.305 462.883 588.302 460.871C588.102 456.194 586.716 441.686 583.663 438.135H582.293ZM410.11 444.997C403.666 447.429 395.913 450.156 389.77 453.002C391.125 455.746 392.277 458.464 394.187 460.831C394.805 460.959 394.989 461.08 395.566 460.995C401.393 458.704 410.344 454.934 415.83 451.988C414.338 449.757 412.655 446.95 410.774 445.123L410.11 444.997ZM528.241 452.081C520.889 453.769 513.467 456.156 506.234 458.367C507.253 461.268 512.92 478.347 514.238 479.818L514.744 479.878C522.069 477.546 529.432 475.335 536.831 473.248C535.823 467.563 533.774 457.231 530.817 452.441C529.452 451.588 530.21 451.893 528.241 452.081ZM418.89 457.083C412.199 459.538 402.846 463.261 396.191 465.069C398.888 470.827 400.3 475.74 402.072 481.79C402.622 483.667 404.42 490.498 405.236 491.819C406.226 491.738 406.186 491.8 407.118 491.511C415.63 487.976 422.4 485.229 430.471 480.782C428.739 476.494 421.75 459.391 418.89 457.083ZM478.155 463.858C471.316 467.36 461.225 472.431 453.956 474.924C456.048 480.391 457.421 484.588 458.977 490.196C459.681 492.733 461.687 500.315 462.721 502.287L463.621 502.179C472.604 499.051 479.797 495.711 488.447 491.68C487.451 488.437 480.746 465.421 478.748 463.948L478.155 463.858ZM320.511 466.028C313.871 468.99 313.711 472.016 312.973 478.754C316.602 484.651 320.829 490.114 324.463 495.968C331.155 506.752 336.144 518.595 339.943 530.671C342.813 539.794 339.447 556.18 352.595 556.126C371.493 547.188 350.148 499.356 342.957 486.501C337.844 477.358 332.385 465.465 320.511 466.028ZM364.113 466.007C356.99 468.556 347.028 472.844 340.438 474.853C341.467 476.668 345.832 484.636 346.792 485.524C353.014 481.176 363.252 475.677 370.419 473.482C369.012 470.861 367.861 468.309 365.846 466.151C364.742 465.849 365.15 465.812 364.113 466.007ZM373.077 477.999C365.278 481.765 355.85 485.281 348.572 488.982C349.825 491.637 356.266 506.898 357.109 507.633L381.787 498.804C380.562 494.942 376.272 479.876 373.077 477.999ZM312.644 484.306C311.88 491.371 312.061 498.507 313.182 505.525C315.359 504.294 316.895 503.445 319.195 502.407C321.071 501.569 321.699 501.663 322.743 500.254C321.569 497.446 314.667 486.073 312.644 484.306ZM381.291 502.436C373.406 505.404 365.479 508.257 357.512 510.997C358.357 513.314 359.593 517.311 360.274 519.269C361.284 522.169 363.535 534.695 364.638 536.313C373.084 534.423 380.285 532.476 388.212 528.695C387.398 523.217 385.024 507.031 382.501 502.793L381.291 502.436ZM324.882 505.909C321.368 507.851 317.689 509.967 314.126 511.777C315.708 518.585 317.897 529.496 325.568 531.637C330.057 531.563 331.589 531.477 335.936 530.659C334.716 526.753 328.173 506.618 324.882 505.909ZM271.733 537.455C257.398 545.487 243.151 557.913 230.065 567.959C239.898 591.967 246.526 613.98 254.258 638.709L267.403 679.698C270.135 688.45 272.846 698.175 275.77 706.715C281.47 707.446 285.47 707.731 291.122 708.149C302.599 708.888 313.446 708.694 324.808 706.793C327.102 706.409 329.925 705.962 332.216 705.85C319.658 657.381 303.639 609.875 284.281 563.698C282.386 559.061 274.851 540.522 271.733 537.455ZM332.87 710.161C313.713 715.16 297.349 715.901 277.628 711.934C279.312 721.727 279.548 728.734 273.326 737.325L281.961 739.93C294.392 743.516 308.97 747.843 321.644 750.121C331.481 740.238 332.82 732.008 333.432 718.113C333.508 716.388 333.39 711.694 332.87 710.161Z" fill="url(#paint1_linear_2264_31214)"/>
<path d="M360.316 317.209C423.467 285.861 493.315 270.4 563.796 272.168C591.913 272.671 620.576 275.54 648.138 281.651C654.928 283.157 671.566 297.611 676.858 303.138C653.636 300.166 622.472 296.624 599.409 296.467C553.565 296.153 492.083 301.635 447.296 312.468C429.917 316.776 412.819 322.148 396.1 328.554C388.558 331.39 379.938 334.569 372.713 338.024C370.218 328.754 366.944 324.009 360.316 317.209Z" fill="#98F5E1"/>
<path d="M733.943 401.193C724.628 369.562 702.417 327.148 681.848 300.858C679.294 297.593 670.823 289.786 667.242 285.953C682.457 288.658 711.567 295.924 725.824 302.156C728.966 303.529 738.237 313.543 741.054 316.612C733.073 314.857 729.591 314.129 721.48 313.992C726.478 316.389 733.895 318.737 739.234 320.676C748.776 324.139 750.179 327.58 755.675 335.51C766.923 351.739 775.472 368.791 783.488 386.788C785.224 390.942 786.722 394.435 788.025 398.776C769.181 398.264 752.638 399.315 733.943 401.193Z" fill="#98F5E1"/>
<path d="M352.207 293.996C357.046 296.836 359.471 302.201 362.091 303.922L359.599 305.154L352.207 293.996Z" fill="#CFBAF0"/>
<path d="M238.443 303.628C237.466 303.588 236.396 303.522 235.629 304.13C228.495 309.791 217.367 318.733 211.085 324.815C170.043 364.548 125.365 441.716 108.741 495.686C102.596 515.522 99.0615 536.073 98.2271 556.822C97.9514 563.836 98.7672 592.955 100.608 599.073C99.9196 601.435 99.0349 604.819 98.2413 607.061C95.2054 604.588 94.7692 581.331 94.4147 576.258C89.5226 506.255 122.714 442.317 158.575 384.67C165.043 374.273 171.771 363.833 179.243 354.128C187.573 343.376 196.748 333.307 206.681 324.017C210.712 320.292 235.04 298.18 239.445 298.353L240.141 299.247C240.587 301.471 240.372 301.777 239.771 304.056L238.443 303.628Z" fill="#FFEDE1"/>
<path d="M372.406 343.381C384.816 337.099 399.689 332.138 412.782 327.702C487.598 302.359 569.701 296.922 647.995 304.745C658.981 305.843 669.649 306.663 680.649 308.118C695.558 326.246 721.669 378.854 728.471 401.392C713.486 402.489 697.119 404.904 682.37 407.461C667.352 394.115 652.712 383.212 634.606 374.124C627.554 370.584 616.561 361.597 608.58 369.99C603.853 374.962 609.126 380.74 612.456 384.954C604.465 386.315 596.771 386.52 588.964 387.662C584.161 380.095 578.222 372.969 568.973 371.289C552.72 368.336 544.954 380.374 554.135 393.898C546.461 394.835 541.356 395.772 533.857 397.958C519.158 373.592 488.606 381.032 501.726 403.635C495.636 405.966 488.977 408.68 482.787 410.514C476.678 404.122 470.219 397.42 460.748 397.357C443.087 397.24 443.714 410.337 452.785 421.292C447.975 423.043 436.577 428.032 432.241 430.285C428.117 425.071 422.646 419.326 415.739 419.337C398.628 419.363 398.152 431.267 407.961 441.411C400.765 444.102 394.205 446.867 387.138 449.902C373.405 434.883 350.769 439.656 363.1 462.072C354.328 465.159 345.919 468.986 337.52 471.944C332.682 465.748 328.92 462.876 320.66 462.918C329.813 454.529 343.593 437.229 351.119 427.332C362.742 412.049 372.868 389.273 376.078 370.494C377.163 364.143 376.645 348.777 372.406 343.381Z" fill="#98F5E1"/>
<path d="M238.445 303.629L239.773 304.057C238.214 307.17 235.72 310.575 236.671 313.45L236.657 314.542C234.06 313.208 232.607 312.253 234.608 309.228C235.851 307.347 237.192 305.516 238.445 303.629Z" fill="#FFEDE1"/>
<path d="M877.558 388.692C854.003 360.529 809.922 342.963 776.766 328.712C769.125 325.427 757.461 322.071 750.632 318.446C748.51 317.32 739.734 307.487 736.133 304.406C740.566 304.695 754.45 310.429 759.226 312.298C800.89 328.604 844.398 350.037 879.307 378.293C888.927 386.079 907.604 402.85 908.741 415.673C909.25 421.414 907.11 430.369 905.433 435.945C893.519 475.573 866.661 513.24 842.045 545.951C835.614 554.496 827.907 564.674 820.88 572.555C821.939 559.539 821.687 549.226 821.489 536.187C828.777 531.263 837.993 521.812 843.989 515.254C859.387 498.413 874.079 479.724 885.99 460.236C890.636 452.636 899.704 434.339 899.831 425.895C898.492 427.366 896.73 432.088 895.48 434.163C874.941 468.234 856.021 498.474 827.5 526.665C825.548 528.658 823.337 530.493 821.224 532.327C816.553 486.43 812.435 449.108 796.034 405.153C824.065 404.855 855.707 406.566 883.05 413.004C889.738 414.578 896.208 415.978 899.87 422.017C900.399 420.271 901.683 416.242 899.82 415.191C889.107 409.152 871.489 405.261 859.573 403.549C837.816 400.425 815.624 399.132 793.946 399.119C792.562 393.761 789.448 388.166 787.377 383.033C778.935 362.109 768.707 346.007 756.332 327.333C767.333 330.809 777.341 335.404 787.969 339.733C806.503 347.281 824.91 355.38 842.229 365.475C854.087 372.388 866.221 380.862 877.558 388.692Z" fill="#98F5E1"/>
<path d="M209.883 428.576C239.257 398.119 269.999 371.002 305.696 348.084C323.547 336.624 341.572 327.06 360.316 317.207C366.944 324.007 370.218 328.752 372.713 338.022C331.336 357.704 293.029 383.277 258.984 413.944C247.182 424.701 238.321 434.382 227.319 445.237C221.733 438.555 217.036 433.501 209.883 428.576Z" fill="#D7F9EC"/>
<path d="M229.551 448.835C237.024 440.291 246.419 431.484 254.809 423.697C289.528 390.89 329.218 363.783 372.408 343.379C376.647 348.775 377.165 364.141 376.08 370.492C372.87 389.271 362.744 412.047 351.121 427.33C343.595 437.227 329.815 454.527 320.662 462.916C304.537 469.269 313.477 477.839 308.478 482.758C293.068 491.395 279.403 499.082 263.036 505.819C261.362 503.058 259.377 499.217 258.055 496.267C250.496 479.399 238.16 464.87 229.551 448.835Z" fill="#D7F9EC"/>
<path d="M649.036 404.161C643.838 404.056 635.131 403.658 630.216 404.333C627.009 396.196 624.962 391.722 620.108 384.403C617.658 380.709 611.896 376.842 611.578 374.277C612.025 372.786 612.268 372.154 613.934 371.34C616.7 369.992 619.895 369.823 622.787 370.873C636.168 375.641 643.526 392.528 649.036 404.161Z" fill="#98F5E1"/>
<path d="M580.912 382.216C575.247 386.083 568.429 392.244 567.051 399.255C563.317 394.352 550.387 387.019 555.111 379.724C561.197 370.324 573.958 377.455 580.912 382.216Z" fill="#98F5E1"/>
<path d="M567.051 399.254C568.429 392.243 575.247 386.082 580.912 382.215C588.021 388.987 592.233 398.891 596.466 407.757C589.55 408.919 582.664 410.282 575.73 411.304C573.426 407.477 569.793 402.906 567.051 399.254Z" fill="#D7F9EC"/>
<path d="M531.708 401.686C525.965 405.53 517.219 406.133 513.177 410.017C513.048 409.952 512.92 409.887 512.791 409.823C509.565 404.685 500.074 397.088 503.051 390.406C504.579 386.975 510.025 386.672 512.586 387.03C521.454 388.27 526.787 395.019 531.708 401.686Z" fill="#98F5E1"/>
<path d="M653.165 402.645C650.889 397.297 648.766 392.915 646.172 387.734C652.929 390.49 668.223 400.9 674.302 405.711C677.078 407.908 678.308 409.118 678.571 412.435C677.607 412.248 677.892 412.376 677.143 412.006C668.975 407.979 662.03 404.896 653.165 402.645Z" fill="#98F5E1"/>
<path d="M592.738 392.146C596.721 391.726 600.795 391.497 604.798 391.23C609.906 391.366 614.669 391.44 619.765 391.999C621.723 395.054 622.555 396.533 624.084 399.819C620.261 399.94 616.44 400.131 612.624 400.392C608.143 400.546 602.706 401.227 598.173 401.677C596.447 398.527 594.526 395.28 592.738 392.146Z" fill="#98F5E1"/>
<path d="M535.93 402.276C543.454 401.021 550.327 398.912 558.025 398.192C558.723 398.182 559.42 398.242 560.106 398.369C563.722 399.035 566.142 402.577 568.177 405.334C560.345 407.088 552.811 408.449 544.795 410.348L540.894 411.361C539.215 408.346 537.56 405.318 535.93 402.276Z" fill="#98F5E1"/>
<path d="M462.292 422.106C457.91 417.811 450.179 414.639 450.075 407.417C450.056 406.143 450.293 405.041 451.162 404.062C453.266 401.692 457.502 401.162 460.47 401.334C468.602 401.808 475.453 406.869 480.523 412.85C493.225 427.836 514.995 480.782 513.307 500.276C512.997 503.863 511.727 507.501 508.835 509.813C506.668 511.546 503.407 512.512 500.649 512.061C498.688 511.74 497.086 510.69 496.038 508.999C492.473 503.246 492.068 493.973 490.22 487.39C485.661 471.15 476.833 445.036 468.207 431.005C466.128 427.542 464.69 425.35 462.292 422.106Z" fill="#B9FBC0"/>
<path d="M513.176 410.018C517.218 406.134 525.964 405.532 531.707 401.688C535.125 406.76 538.767 413.276 541.165 418.929C535.128 420.052 526.294 420.188 521.021 422.649C520.429 421.96 518.394 418.421 517.803 417.438C516.708 415.584 515.697 414.112 514.464 412.345L513.176 410.018Z" fill="#D7F9EC"/>
<path d="M630.219 404.333C635.134 403.658 643.841 404.056 649.039 404.161C656.104 418.274 658.984 437.675 661.556 453.294C662.227 460.282 663.351 466.184 655.806 469.338C651.364 471.194 643.42 468.707 642.786 464.406C639.651 443.125 638.136 424.777 630.219 404.333Z" fill="#98F5E1"/>
<path d="M600.258 406.872C604.149 406.314 608.233 406.038 612.164 405.711C617.065 405.276 621.614 405.535 626.488 406.007C628.961 411.522 630.811 417.404 632.38 423.234L619.106 426.503L608.202 428.652C605.77 421.49 602.88 414.002 600.258 406.872Z" fill="#FFEDE1"/>
<path d="M771.252 549.375C767.8 531.07 765.87 510.346 762.072 492.046C756.239 463.935 747.891 434.831 737.488 408.094C756.114 406.178 772.359 406.645 790.54 405.727C805.711 447.999 812.168 491.839 815.909 536.44C809.534 541.408 794.545 554.588 788.962 558.151C788.533 557.583 773.171 549.084 771.954 548.673L771.252 549.375Z" fill="#98F5E1"/>
<path d="M658.522 418.384C657.867 416.403 656.544 413.23 656.818 411.328L657.699 410.732C655.332 408.912 655.957 409.889 655.27 407.113C657.064 407.442 671.321 413.375 673.206 414.412L673.224 414.931L670.783 415.588L658.522 418.384Z" fill="#FFEDE1"/>
<path d="M575.73 411.305C582.664 410.283 589.55 408.92 596.466 407.758C604.595 427.422 611.332 453.469 604.494 474.401C602.293 481.135 594.086 484.703 591.585 476.339C590.109 471.403 592.197 462.529 591.169 457.26C590.33 444.11 582.31 422.934 575.73 411.305Z" fill="#FFEDE1"/>
<path d="M543.087 500.367C561.308 506.482 561.598 483.428 561.028 471.753C568.457 469.576 578.365 467.602 586.075 465.85C585.989 495.316 609.305 491.377 610.623 460.675C619.319 458.438 628.101 456.545 636.947 455.001C637.739 461.197 638.265 466.402 643.618 470.676C646.892 473.283 651.093 474.429 655.237 473.845C658.703 473.33 661.813 471.434 663.859 468.59C667.713 463.223 666.847 457.375 666.126 451.276C679.448 439.452 676.527 427.218 685.274 415.359C699.7 411.676 716.744 410.362 731.696 408.832C737.808 426.552 743.219 444.506 747.917 462.653C754.088 487.039 759.849 518.705 763.569 543.568C759.635 543.045 746.076 536.087 741.025 533.969C713.149 522.278 679.871 522.499 654.432 540.027C623.006 561.48 610.103 592.913 598.083 627.383C592.865 587.183 585.279 554.82 558.833 522.345C556.236 519.156 542.932 503.736 543.087 500.367Z" fill="#98F5E1"/>
<path d="M509.298 410.09C510.496 411.413 511.792 413.029 512.961 414.412L514.914 417.587C508.572 420.069 498.635 422.697 491.733 424.888C490.014 421.937 488 418.869 486.164 415.963C493.883 413.649 501.312 411.345 509.298 410.09Z" fill="#FBF8CC"/>
<path d="M543.363 416.92C551.328 414.367 561.468 412.696 569.766 411.145C571.073 410.885 570.625 410.865 571.86 411.196C576.207 415.869 580.132 427.447 582.486 433.73C574.92 434.816 563.197 438.04 555.614 439.92L553.44 440.253C552.716 439.472 544.648 419.789 543.363 416.92Z" fill="#FFEDE1"/>
<path d="M514.464 412.344C515.697 414.111 516.708 415.583 517.803 417.437L514.914 417.584L512.961 414.409L514.464 412.344Z" fill="#3F8C9E"/>
<path d="M521.02 422.65C526.293 420.189 535.127 420.053 541.164 418.93C547.073 431.512 555.672 453.957 556.242 467.653C554.309 470.621 543.121 472.994 539.604 473.163C536.898 457.587 529.089 436.261 521.02 422.65Z" fill="#FFEDE1"/>
<path d="M658.902 422.517C664.493 421.255 670.272 420.248 675.916 419.195L676.241 419.416C676.565 422.173 669.202 446.584 664.421 446.211L663.784 444.377C662.293 437.173 660.513 429.72 658.902 422.517Z" fill="#FFEDE1"/>
<path d="M454.117 527.264C439.759 530.474 442.925 518.275 440.853 508.408C436.243 485.76 427.269 463.736 414.657 444.362C410.741 438.346 397.854 425.12 411.631 422.137C422.713 423.124 430.345 432.34 435.458 441.578C448.029 464.292 458.393 489.19 460.652 515.311C461.182 521.431 458.981 524.368 454.117 527.264Z" fill="#B9FBC0"/>
<path d="M462.292 422.109C464.69 425.353 466.128 427.545 468.207 431.008C466.569 431.518 467.043 431.049 466.104 432.11C464.133 429.424 463.128 427.19 460.578 423.961L462.292 422.109Z" fill="#3F8C9E"/>
<path d="M494.547 429.829C501.721 427.112 510.008 425.252 517.525 423.664C521.226 425.28 527.898 443.366 529.493 447.966C521.794 450.704 514.392 452.299 506.27 455.438C506.21 455.429 506.141 455.443 506.09 455.411C504.397 454.357 495.881 432.984 494.547 429.829Z" fill="#FBF8CC"/>
<path d="M452.898 426.225C455.759 424.797 457.381 424.046 460.58 423.961C463.13 427.19 464.135 429.424 466.106 432.11C465.065 434.12 456.819 436.79 454.22 437.812C453.65 434.034 453.296 430.042 452.898 426.225Z" fill="#FDE4CF"/>
<path d="M434.641 432.632C439.526 430.492 443.479 428.796 448.535 427.023L448.737 427.09C449.557 427.987 450.648 437.015 451.11 439.393C448.536 440.345 442.861 442.714 440.502 442.943L439.82 442.312L434.641 432.632Z" fill="#FFCFD2"/>
<path d="M608.75 432.788C616.458 431.859 624.469 429.667 632.553 428.727L633.164 429.032C634.98 432.859 636.114 445.087 636.675 449.73C629.54 451.134 619.603 453.489 612.637 455.391C612.268 455.471 611.747 455.33 611.321 455.263C610.753 453.63 609.515 437.056 608.75 432.788Z" fill="#FFEDE1"/>
<path d="M174.523 472.984C185.413 457.378 195.295 445.891 207.599 431.352C208.852 431.898 222.369 445.586 224.492 447.679C214.898 457.613 199.39 477.134 190.379 488.168L189.53 488.254C184.931 484.303 179.548 477.662 174.523 472.984Z" fill="#FFEDE1"/>
<path d="M442.332 448.328C450.553 444.649 460.168 441.461 468.772 437.918L469.843 438.339C472.817 443.056 476.174 454.307 478.025 459.91C469.572 463.977 460.916 467.436 452.453 471.507C449 464.513 445.433 455.617 442.332 448.328Z" fill="#FFCFD2"/>
<path d="M554.648 444.506C563.144 442.068 573.58 439.784 582.294 438.137H583.664C586.717 441.688 588.103 456.196 588.303 460.873C581.306 462.885 568.121 465.32 560.994 466.269C559.973 465.628 555.447 447.232 554.648 444.506Z" fill="#FFEDE1"/>
<path d="M409.25 521.201C410.312 529.063 414.956 549.589 397.096 545.071C392.93 544.017 392.787 532.701 392.04 528.41C388.742 509.463 384.191 490.441 374.723 473.49C372.643 467.581 359.642 454.029 363.383 447.667C367.01 441.499 379.524 444.389 384.024 450.315C393.316 462.555 400.654 483.131 404.301 498.259C406.431 505.758 407.813 513.536 409.25 521.201Z" fill="#FBF8CC"/>
<path d="M389.77 453.005C395.913 450.159 403.666 447.432 410.11 445L410.774 445.126C412.655 446.953 414.338 449.76 415.83 451.991C410.344 454.937 401.393 458.707 395.566 460.998C394.989 461.083 394.805 460.962 394.187 460.834C392.277 458.467 391.125 455.749 389.77 453.005Z" fill="#FFCFD2"/>
<path d="M258.747 506.679C248.658 509.797 240.886 513.158 230.337 515.498C221.909 517.368 216.444 517.263 208.73 518.41C203.313 508.155 198.546 501.21 192.281 491.564C203.419 478.145 214.57 464.094 226.859 451.789C238.799 470.144 249.474 486.579 258.747 506.679Z" fill="#E7EDF2"/>
<path d="M506.234 458.368C513.467 456.157 520.889 453.77 528.241 452.082C530.21 451.894 529.452 451.589 530.817 452.442C533.774 457.232 535.823 467.564 536.831 473.249C529.432 475.336 522.069 477.547 514.744 479.879L514.238 479.819C512.92 478.348 507.253 461.269 506.234 458.368Z" fill="#FBF8CC"/>
<path d="M396.191 465.072C402.846 463.264 412.199 459.541 418.89 457.086C421.75 459.394 428.739 476.497 430.471 480.785C422.4 485.232 415.63 487.979 407.118 491.514C406.186 491.803 406.226 491.741 405.236 491.822C404.42 490.501 402.622 483.67 402.072 481.793C400.3 475.743 398.888 470.83 396.191 465.072Z" fill="#FDE4CF"/>
<path d="M453.957 474.925C461.226 472.432 471.317 467.361 478.156 463.859L478.749 463.949C480.747 465.422 487.452 488.438 488.448 491.681C479.798 495.712 472.605 499.052 463.622 502.18L462.722 502.288C461.688 500.316 459.682 492.734 458.978 490.197C457.422 484.589 456.049 480.392 453.957 474.925Z" fill="#FFCFD2"/>
<path d="M312.973 478.757C313.711 472.019 313.871 468.993 320.511 466.031C332.385 465.468 337.844 477.361 342.957 486.504C350.148 499.359 371.493 547.191 352.595 556.129C339.447 556.183 342.813 539.797 339.943 530.674C336.144 518.598 331.155 506.755 324.463 495.971C320.829 490.117 316.602 484.654 312.973 478.757Z" fill="#FBF8CC"/>
<path d="M340.438 474.853C347.028 472.844 356.99 468.556 364.113 466.007C365.15 465.812 364.741 465.849 365.845 466.151C367.86 468.309 369.012 470.861 370.419 473.482C363.252 475.677 353.014 481.176 346.792 485.524C345.832 484.636 341.467 476.668 340.438 474.853Z" fill="#FFCFD2"/>
<path d="M556.243 467.652C556.583 471.668 560.2 504.113 543.35 496.806C539.527 495.148 540.385 478.556 539.605 473.162C543.122 472.993 554.31 470.62 556.243 467.652Z" fill="#FBF8CC"/>
<path d="M903.157 473.648C903.889 471.73 904.815 469.736 905.649 467.848C909.961 473.559 912.846 505.825 912.978 513.907C913.746 560.897 894.451 603.914 866.02 640.426C862.34 645.152 858.965 650.681 855.141 655.378C854.202 656.558 847.774 664.505 847.411 665.241C810.457 709.056 767.211 747.149 719.083 778.278C622.338 841.565 499.705 904.821 381.654 867.349C366.512 862.62 352.295 855.325 339.624 845.782C337.564 844.22 332.147 840.767 333.472 838.047C336.03 837.762 342.304 842.851 344.773 844.557C349.67 847.989 354.754 851.146 360.002 854.014C373.224 861.085 395.312 867.521 410.14 870.37C432.352 874.638 451.496 874.813 473.858 873.461C537.406 869.619 595.379 843.787 650.63 813.842C672.272 802.113 692.41 790.697 712.85 776.723C717.02 774.558 726.649 767.657 730.79 764.775C770.031 737.918 805.751 706.248 837.115 670.505C843.937 662.602 851.729 654.05 856.178 644.632C860.678 642.283 866.763 631.646 869.801 627.416C897.666 588.62 913.693 541.105 906.607 493.113C905.723 487.125 905.146 479.383 903.157 473.648Z" fill="#FFEDE1"/>
<path d="M860.659 540.346C862.878 536.458 870.204 527.662 873.175 523.167C884.319 506.306 894.207 491.792 903.155 473.645C905.144 479.38 905.721 487.122 906.605 493.11C913.691 541.102 897.664 588.617 869.799 627.413C866.761 631.643 860.676 642.28 856.176 644.629C869.517 602.367 868.705 583.694 860.659 540.346Z" fill="#98F5E1"/>
<path d="M171.389 477.461C177.59 482.139 181.658 486.716 186.966 492.348C183.161 498.045 173.754 507.532 168.749 512.799C163.062 512.08 156.898 511.747 152.688 507.639L171.389 477.461Z" fill="#DCDAF9"/>
<path d="M348.574 488.983C355.852 485.282 365.28 481.766 373.079 478C376.274 479.877 380.564 494.943 381.789 498.805L357.111 507.634C356.268 506.899 349.827 491.638 348.574 488.983Z" fill="#FBF8CC"/>
<path d="M515.66 485.433C519.262 483.716 531.737 480.253 536.438 478.602C537.161 486.457 536.656 494.163 542.502 499.884L541.429 500.199C539.968 499.931 519.095 487.526 515.66 485.433Z" fill="#98F5E1"/>
<path d="M263.035 505.819C279.402 499.082 293.067 491.395 308.477 482.758C306.668 491.443 307.469 500.19 308.735 508.884C294.864 515.456 287.481 519.974 274.504 528.295C270.238 520.782 267.034 513.098 263.035 505.819Z" fill="#FAB6C1"/>
<path d="M313.181 505.528C312.06 498.51 311.879 491.374 312.643 484.309C314.666 486.076 321.568 497.449 322.742 500.257C321.698 501.666 321.07 501.572 319.194 502.41C316.894 503.448 315.358 504.297 313.181 505.528Z" fill="#FBF8CC"/>
<path d="M406.004 495.921C414.495 491.842 422.677 488.813 431.552 484.324C434.852 493.333 435.876 500.81 437.714 510.1C432.371 512.512 416.375 520.113 411.588 520.524C409.838 512.298 407.977 504.096 406.004 495.921Z" fill="#FDE4CF"/>
<path d="M515.663 485.434C519.098 487.527 539.971 499.932 541.432 500.2L542.505 499.885L543.088 500.367C542.933 503.736 556.237 519.156 558.834 522.345C585.28 554.82 592.866 587.183 598.084 627.383C597.443 638.632 594.486 649.578 594.453 662.146L594.446 662.892L594.447 663.339C555.984 677.228 502.009 691.835 461.629 697.375C464.509 689.028 469.395 679.765 472.414 670.938C479.714 649.594 483.918 625.734 483.493 603.25C483.289 593.767 482.614 584.301 481.473 574.885C480.285 565.814 470.171 512.907 464.92 507.85C466.931 506.583 485.562 498.914 488.9 497.491C490.605 506.753 491.679 518.866 504.586 516.888C508.414 516.335 511.854 514.254 514.12 511.119C518.752 504.607 516.804 492.777 515.663 485.434Z" fill="#B9FBC0"/>
<path d="M186.965 492.348C187.361 494.645 186.793 493.803 188.568 495.064C183.168 499.996 174.803 508.439 170.512 514.384C168.709 516.184 164.07 523.338 162.418 525.737C152.21 540.555 143.302 555.255 136.289 571.892C134.119 577.038 132.977 582.997 130.661 587.988L130.109 587.55C128.95 566.094 153.953 528.527 168.748 512.799C173.753 507.532 183.16 498.045 186.965 492.348Z" fill="url(#paint2_linear_2264_31214)"/>
<path d="M188.568 495.066C192.101 496.975 201.665 514.026 203.888 518.476C198.051 520.896 176.334 517.298 170.512 514.386C174.803 508.441 183.168 499.998 188.568 495.066Z" fill="#FFEDE1"/>
<path d="M404.301 498.26L406.001 495.922C407.974 504.097 409.835 512.299 411.585 520.525L409.25 521.202C407.813 513.537 406.431 505.759 404.301 498.26Z" fill="#447AB0"/>
<path d="M357.512 510.999C365.479 508.259 373.406 505.405 381.291 502.438L382.501 502.795C385.024 507.033 387.398 523.219 388.212 528.697C380.285 532.478 373.084 534.425 364.638 536.315C363.535 534.697 361.284 522.171 360.274 519.271C359.593 517.313 358.357 513.316 357.512 510.999Z" fill="#FBF8CC"/>
<path d="M85.9136 511.169C85.1923 511.613 85.6232 511.43 84.5778 511.604C84.37 510.439 86.3305 506.018 86.9303 504.195C88.7077 504.956 89.084 505.207 89.3666 506.953C88.6268 508.862 87.4294 509.721 85.9136 511.169Z" fill="#FFEDE1"/>
<path d="M69.1992 529.964C70.8882 526.569 71.4944 526.982 75.0355 526.267L75.2574 525.508C73.8 524.002 73.1076 523.547 72.4729 521.629C72.5875 519.79 72.505 519.444 73.4759 517.83C75.4864 516.76 76.3697 517.22 78.8695 517.48L79.2887 517.021C77.6337 515.546 77.0877 515.543 76.46 513.747C77.0174 510.476 79.0395 508.179 81.2529 505.84C82.7631 505.882 82.8128 505.74 84.0372 506.548C83.6469 508.108 81.3468 509.657 79.888 510.958C79.6214 512.443 79.9629 514.553 79.9065 516.204L81.3337 517.272C82.1745 520.824 74.6063 531.948 70.4525 531.572L69.1992 529.964Z" fill="#FFEDE1"/>
<path d="M314.129 511.778C317.692 509.968 321.371 507.852 324.885 505.91C328.176 506.619 334.719 526.754 335.939 530.66C331.592 531.478 330.06 531.564 325.571 531.638C317.9 529.497 315.711 518.586 314.129 511.778Z" fill="#FBF8CC"/>
<path d="M208.73 518.411C216.444 517.264 221.909 517.369 230.337 515.499C240.886 513.159 248.658 509.798 258.747 506.68C262.706 515.04 265.842 522.725 269.292 531.314C254.602 541.423 241.928 550.442 228.199 562.025C222.256 547.249 215.762 532.701 208.73 518.411Z" fill="#FAB6C1"/>
<path d="M109.679 652.344C107.101 649.16 104.603 645.26 103.569 641.27C99.2047 624.421 123.217 564.205 131.241 547.149C137.493 533.859 144.947 520.135 152.687 507.641C156.897 511.749 163.062 512.082 168.749 512.801C153.954 528.529 128.951 566.096 130.11 587.552L130.662 587.99C132.978 582.999 134.12 577.04 136.29 571.894C143.303 555.257 152.211 540.557 162.419 525.739C164.071 523.34 168.71 516.186 170.513 514.386C176.335 517.298 198.052 520.896 203.889 518.476C208.779 527.978 214.245 539.081 218.464 548.965C217.565 553.805 216.784 564.813 217.185 569.97C215.48 571.564 210.051 575.51 207.989 577.078C200.071 583.028 192.092 588.895 184.052 594.679C157.646 613.777 133.668 630.219 109.679 652.344Z" fill="#F1C0E8"/>
<path d="M438.1 515.997C438.459 522.31 439.407 531.288 446.661 532.637C456.984 534.558 465.357 525.346 464.109 515.247C463.883 513.418 463.48 509.894 463.841 508.342L464.919 507.848C470.17 512.905 480.284 565.812 481.472 574.883C482.613 584.299 483.288 593.765 483.492 603.248C483.917 625.732 479.713 649.592 472.413 670.936C469.394 679.763 464.508 689.026 461.628 697.373C426.852 704.11 370.373 709.244 335.627 705.926C320.932 644.218 301.745 592.087 276.926 534.026C287.048 526.724 299.326 520.296 310.311 514.5C313.098 523.626 314.026 531.467 322.653 536.391C328.789 536.701 331.293 536.501 337.345 535.409C338.634 542.669 336.528 549.209 341.728 555.346C350.229 565.379 362.115 560.466 364.28 548.354C364.739 545.783 364.538 542.801 364.496 540.205C372.95 538.437 380.051 536.854 388.388 534.565C388.43 536.248 388.6 537.925 388.897 539.582C390.178 546.912 396.548 551.624 403.928 549.84C407.384 549.023 410.36 546.838 412.175 543.785C415.489 538.199 413.784 532.159 412.164 526.448C420.352 523.491 430.661 518.275 438.1 515.997Z" fill="#FAB6C1"/>
<path d="M598.083 627.384C610.103 592.914 623.006 561.481 654.432 540.028C679.871 522.5 713.149 522.279 741.025 533.97C746.076 536.088 759.635 543.046 763.569 543.569C764.923 552.072 767.259 566.108 767.689 574.536C729.281 599.861 688.931 622.113 647.016 641.081C628.775 649.486 613.331 656.436 594.446 663.34L594.445 662.893L594.452 662.147C594.485 649.579 597.442 638.633 598.083 627.384Z" fill="#F1C0E8"/>
<path d="M230.066 567.961C243.152 557.915 257.399 545.489 271.734 537.457C274.852 540.524 282.387 559.063 284.282 563.7C303.64 609.877 319.659 657.383 332.217 705.852C329.926 705.964 327.103 706.411 324.809 706.795C313.447 708.696 302.6 708.89 291.123 708.151C285.471 707.733 281.471 707.448 275.771 706.717C272.847 698.177 270.136 688.452 267.404 679.7L254.259 638.711C246.527 613.982 239.899 591.969 230.066 567.961Z" fill="#FAB6C1"/>
<path d="M625.629 731.591C635.692 727.1 646.016 723.025 656.025 718.407C669.465 712.052 682.632 705.133 695.489 697.669C713.127 687.379 731.375 673.575 747.218 660.707C776.99 636.757 804.479 610.1 829.33 581.077C841.187 567.018 849.755 554.381 860.659 540.348C868.705 583.696 869.517 602.369 856.176 644.631C851.727 654.049 843.935 662.601 837.113 670.504C805.749 706.247 770.029 737.917 730.788 764.774C726.647 767.656 717.018 774.557 712.848 776.722C689.223 769.459 669.973 761.09 648.868 748.074C639.502 742.298 633.821 739.635 625.629 731.591Z" fill="#B598FA"/>
<path d="M796.816 558.279C803.067 552.806 809.483 546.972 816.078 541.977C816.502 550.624 816.112 559.514 815.968 568.202C811.204 567.178 801.127 561.138 796.816 558.279Z" fill="#98F5E1"/>
<path d="M771.254 549.374L771.956 548.672C773.173 549.083 788.535 557.582 788.964 558.15C783.642 562.22 778.35 566.33 773.088 570.479C772.919 563.678 771.999 556.147 771.254 549.374Z" fill="#DCDAF9"/>
<path d="M218.461 548.965C220.746 554.031 222.832 559.184 224.713 564.413L217.182 569.97C216.781 564.813 217.562 553.805 218.461 548.965Z" fill="#FAB6C1"/>
<path d="M773.395 576.123C779.49 570.669 789.974 563.299 796.818 558.277C801.129 561.136 811.206 567.176 815.97 568.2L815.94 578.12C808.491 588.61 786.159 611.144 776.513 619.57C775.758 605.005 774.339 590.647 773.395 576.123Z" fill="#F1C0E8"/>
<path d="M217.289 577.01L227.103 570.109C231.56 580.095 235.423 592.689 238.482 603.264C248.246 637.024 260.321 670.284 270 704.009C266.093 703.696 258.324 702.173 254.432 701.481C243.427 699.589 232.476 697.394 221.592 694.898C222.634 693.322 216.849 616.171 218.071 607.745C218.405 605.447 218.005 579.489 217.289 577.01Z" fill="#FAB6C1"/>
<path d="M111.539 654.571C121.494 644.86 138.712 632.24 149.938 624.229C172.409 608.195 195.109 593.573 217.289 577.012C218.005 579.491 218.405 605.449 218.071 607.747C216.849 616.173 222.634 693.324 221.592 694.9C192.145 687.22 168.95 676.875 144.494 658.498C160.704 683.539 198.084 693.131 225.396 699.675C225.61 704.785 230.073 719.929 229.987 720.378C185.081 703.439 150.154 683.257 111.539 654.571Z" fill="#F1C0E8"/>
<path d="M593.891 667.832C649.68 647.902 718.566 612.885 767.872 579.871C768.621 595.048 770.434 611.085 769.637 626.14C734.756 659.557 694.816 687.255 651.293 708.21C639.998 713.518 627.098 718.419 615.45 722.972C613.701 720.238 607.402 713.832 604.721 710.167C594.454 696.133 596.34 684.184 593.891 667.832Z" fill="#F1C0E8"/>
<path d="M932.789 593.062C932.415 592.269 932.467 592.483 932.294 591.668C931.159 586.331 930.621 589.237 927.844 587.348L927.956 585.883C932.328 586.536 934.574 588.431 932.789 593.062Z" fill="#FFEDE1"/>
<path d="M921.681 598.237C915.336 593.138 914.657 589.354 923.6 587.637C926.002 588.043 927.047 588.471 927.695 590.813C926.88 594.293 924.363 595.977 921.681 598.237ZM920.523 589.831C919.818 592.334 919.702 591.434 920.458 593.646C921.638 594.781 921.563 594.715 923.076 595.358L923.654 595.272C924.426 593.716 924.962 593.093 924.607 591.417C923.19 590.001 922.824 589.964 920.523 589.831Z" fill="#FFEDE1"/>
<path d="M923.655 595.269L923.077 595.355C921.564 594.712 921.639 594.778 920.459 593.643C919.703 591.431 919.819 592.331 920.524 589.828C922.825 589.961 923.191 589.998 924.608 591.414C924.963 593.09 924.427 593.713 923.655 595.269Z" fill="#98F5E1"/>
<path d="M940.561 600.231C939.974 597.265 940.12 595.962 937.481 594.219C936.714 596.24 938.745 600.405 935.626 602.582C935.563 602.429 933.849 594.036 934.441 593.233C935.771 591.429 934.501 592.133 936.623 591.316C941.019 592.117 941.388 596.646 940.561 600.231Z" fill="#FFEDE1"/>
<path d="M935.625 602.586C938.744 600.409 936.713 596.244 937.48 594.223C940.119 595.966 939.973 597.269 940.56 600.235C939.503 601.674 938.585 603.315 936.991 603.944C935.817 603.297 936.27 603.752 935.625 602.586Z" fill="#D7F9EC"/>
<path d="M914.172 610.603C912.578 609.305 912.622 609.394 910.599 608.85C908.718 610.396 911.901 612.035 911.356 614.972C910.267 615.023 910.127 615.158 909.07 614.3C907.986 613.412 907.277 612.147 907.086 610.759C907.981 607.685 907.435 608.813 910.225 606.273C913.235 608.191 913.402 608.4 916.875 608.235L917.5 608.199L918.199 608.581L918.827 607.977C916.716 610.302 915.035 613.932 914.07 614.574C913.349 613.36 913.881 612.427 914.172 610.603Z" fill="#FFEDE1"/>
<path d="M928.731 625.989C925.316 623.687 923.211 623.436 922.049 619.46C922.215 616.011 925.109 616.313 924.484 613.164C922.935 611.906 922.667 611.632 921.613 609.945L924.01 610.047C928.825 612.843 929.444 613.267 932.091 618.057C931.261 620.648 929.867 623.48 928.731 625.989ZM926.428 613.832C925.315 615.514 924.01 617.056 923.815 619.014C924.515 620.921 924.911 621.105 927.038 622.169C929.967 619.622 929.44 615.853 926.428 613.832Z" fill="#FFEDE1"/>
<path d="M927.039 622.169C924.912 621.105 924.516 620.921 923.816 619.014C924.011 617.056 925.316 615.514 926.429 613.832C929.441 615.853 929.968 619.622 927.039 622.169Z" fill="#98F5E1"/>
<path d="M901.42 635.724C893.611 631.355 895.466 629.883 900.812 624.316C906.498 628.472 906.561 630.906 901.42 635.724Z" fill="#FFEDE1"/>
<path d="M908.242 634.474C909.575 632.736 909.233 632.585 910.926 632.042C912.617 634.039 911.274 641.655 913.838 643.535C918.128 641.077 915.731 632.513 913.792 629.145C912.845 629.002 912.883 629.011 911.916 628.727C912.165 627.149 912.39 627.218 913.432 625.84C916.82 628.372 918.092 633.899 919.349 637.856C918.389 640.826 917.639 645.508 913.76 644.945C910.41 642.225 910.026 638.547 908.242 634.474Z" fill="#FFEDE1"/>
<path d="M891.511 649.216C890.608 650.734 889.627 651.706 887.862 652.034C883.587 650.682 884.269 645.529 887.727 643.621L896.036 644.471L896.369 645.165C893.768 647.179 893.428 644.217 891.511 649.216ZM887.954 645.099C886.145 646.772 886.598 645.802 886.172 647.906C886.748 649.23 886.932 649.602 888.346 650.298C889.584 649.093 890.296 648.663 890.629 646.982C889.914 645.501 889.729 645.59 887.954 645.099Z" fill="#FFEDE1"/>
<path d="M897.422 650.944C896.297 649.703 896.56 650.411 896.567 648.766C897.947 647.327 900.469 645.879 902.304 645.223L902.631 645.469L900.945 646.969C901.263 648.878 911.443 655.525 905.993 660.735C904.664 662.005 904.412 661.96 902.72 662.166C899.187 660.905 896.719 654.934 897.422 651.582C900 653.893 900.906 659.513 903.642 659.718C907.503 655.671 901.899 648.807 898.323 649.539L897.422 650.944Z" fill="#FFEDE1"/>
<path d="M888.346 650.297C886.932 649.601 886.748 649.229 886.172 647.905C886.598 645.801 886.145 646.771 887.954 645.098C889.729 645.589 889.914 645.5 890.629 646.981C890.296 648.662 889.584 649.092 888.346 650.297Z" fill="#D7F9EC"/>
<path d="M897.422 650.943L898.323 649.539C901.899 648.807 907.503 655.671 903.642 659.718C900.906 659.513 900 653.892 897.422 651.581V650.943Z" fill="#98F5E1"/>
<path d="M144.496 658.496C168.952 676.873 192.147 687.218 221.594 694.898C232.478 697.394 243.429 699.589 254.434 701.481C258.326 702.173 266.095 703.696 270.002 704.009C271.026 705.064 270.892 705.447 271.074 706.934C255.042 704.827 241.268 703.001 225.398 699.673C198.086 693.129 160.706 683.537 144.496 658.496Z" fill="#447AB0"/>
<path d="M887.32 665.037L885.47 666.017C885.194 666.934 885.164 666.748 885.16 667.673C880.487 665.526 879.481 670.021 875.588 673.069C874.294 671.709 872.281 669.934 872.293 668.046C872.326 662.338 877.223 660.186 881.12 665.006C880.794 666.359 875.604 664.983 873.496 666.752L873.89 667.733C877.031 667.877 884.561 665.147 887.79 664.061L888.129 664.335L887.32 665.037Z" fill="#FFEDE1"/>
<path d="M847.41 665.238C846.639 669.156 841.631 676.905 839.562 680.739C823.393 710.712 800.014 737.526 775.493 760.995C768.339 767.842 761.51 775.197 754.072 782.156L753.629 782.442C743.1 782.918 729.77 780.127 719.082 778.275C767.21 747.146 810.456 709.053 847.41 665.238Z" fill="#B598FA"/>
<path d="M885.161 667.671C885.165 666.746 885.195 666.932 885.471 666.015L887.321 665.035L886.551 666.7C886.799 666.837 887.337 667.164 887.579 667.232C891.715 671.905 889.005 670.753 888.772 675.683L889.232 676.026C890.447 676.69 890.073 676.411 891.01 677.385L890.96 678.48C887.74 680.663 881.097 677.016 880.984 674.396L882.024 673.641L882.662 673.799L883.539 675.813L884.094 675.492C885.922 672.006 886.193 671.489 885.161 667.671Z" fill="#E7EDF2"/>
<path d="M245.035 804.415C241.469 807.199 231.998 801.637 228.361 800.033C222.626 797.505 216.916 794.482 211.337 791.622C189.737 780.551 171.711 763.676 156.09 745.322C148.769 736.746 141.852 728.46 135.689 718.998C126.226 704.706 118.2 689.514 111.728 673.642C110.623 671.008 108.593 667.814 109.061 665.594C111.262 667.375 113.59 669.152 115.585 671.144C116.344 674.177 118.424 678.684 119.832 681.619C142.924 729.783 179.872 774.686 229.877 796.221C233.814 797.916 237.572 800.022 241.479 801.748L245.035 804.415Z" fill="#FFEDE1"/>
<path d="M887.578 667.23C893.891 668.136 894.974 673.831 889.231 676.024L888.771 675.681C889.004 670.751 891.714 671.903 887.578 667.23Z" fill="#FFEDE1"/>
<path d="M459.272 701.867C500.18 695.322 555.228 681.542 593.889 667.836C596.338 684.188 594.452 696.137 604.719 710.171C607.4 713.836 613.699 720.242 615.448 722.976C608.328 726.452 593.655 731.215 585.975 733.561C535.273 749.049 465.802 761.048 412.836 759.058C414.582 756.203 425.797 747.115 429.236 743.598C441.723 730.83 450.858 717.532 459.272 701.867Z" fill="#B9FBC0"/>
<path d="M115.586 671.145C137.656 687.115 152.156 695.841 176.363 708.752C179.195 714.094 183.172 719.162 186.238 724.409C197.41 743.529 209.782 761.273 223.019 779.013C228.136 785.871 238.004 794.849 241.48 801.749C237.573 800.023 233.815 797.917 229.878 796.222C179.873 774.687 142.925 729.784 119.833 681.62C118.425 678.685 116.345 674.178 115.586 671.145Z" fill="#FBF8CC"/>
<path d="M865.992 687.817C860.454 695.829 851.547 687.028 860.645 682.06C863.398 681.974 869.258 681.125 869.863 684.572L869.121 684.869C868.297 684.059 868.341 684.053 867.315 683.548L866.675 684.046C866.49 685.719 866.411 686.191 865.992 687.817ZM861.35 683.273C859.79 685.095 859.93 684.424 859.578 686.506C860.472 687.877 860.955 688.051 862.713 688.134C864.342 686.493 864.423 686.913 864.877 685.005C863.919 683.585 863.106 683.485 861.35 683.273Z" fill="#FFEDE1"/>
<path d="M862.713 688.134C860.955 688.051 860.472 687.877 859.578 686.506C859.93 684.424 859.79 685.095 861.35 683.273C863.106 683.485 863.919 683.585 864.877 685.005C864.423 686.913 864.342 686.493 862.713 688.134Z" fill="#A3C4F3"/>
<path d="M871.902 690.297C872.783 688.684 872.52 688.467 873.837 687.955C874.429 689.227 874.228 691.065 874.225 692.594L874.573 692.67C875.306 690.668 875 690.412 876.406 689.476L877.326 690.116C877.023 688.534 876.462 686.665 875.562 685.332L873.662 686.877C872.695 685.984 873.133 686.374 872.978 684.383C877.563 685.161 881.914 686.983 880.156 693.016C879.671 694.682 878.474 695.483 876.953 696.221C872.631 696.238 872.666 693.881 871.902 690.297Z" fill="#FFEDE1"/>
<path d="M871.927 697.673L870.693 697.707C868.911 695.429 867.683 693.113 866.934 690.32C868.52 691.149 871.84 695.804 871.927 697.673Z" fill="#FFEDE1"/>
<path d="M864.45 704.523L863.892 704.507C862.867 705.396 862.961 705.423 861.642 705.645C861 704.553 861.234 705.154 861.44 703.565C862.414 702.366 863.871 700.306 865.138 699.606L866.162 700.942L866.728 700.854C866.129 697.69 865.947 698.877 867.114 696.219C872.756 699.924 870.21 706.233 864.553 707.103L863.848 706.475C864.335 705.469 864.357 705.693 864.45 704.523Z" fill="#FFEDE1"/>
<path d="M225.398 699.676C241.268 703.004 255.042 704.83 271.074 706.937C274.135 713.974 275.492 720.37 272.799 728.035C272.095 730.038 269.132 734.298 267.646 734.613C261.48 735.922 235.19 723.125 229.989 720.379C230.075 719.93 225.612 704.786 225.398 699.676Z" fill="#FAB6C1"/>
<path d="M336.151 709.477C372.028 712.228 423.912 706.711 459.271 701.863C450.857 717.528 441.722 730.826 429.235 743.594C425.796 747.111 414.581 756.199 412.835 759.054C407.832 759.568 398.501 758.71 393.239 758.58C371.265 758.035 350.786 755.178 329.141 751.634C337.637 738.611 337.05 724.424 336.151 709.477Z" fill="#FAB6C1"/>
<path d="M176.359 708.75C188.088 714.66 203.423 722.317 215.665 726.844C271.204 747.381 328.288 767.164 388.123 768.449C391.706 768.526 395.468 768.668 398.978 769.016C395.504 772.916 371.578 789.985 365.699 794.438C326.071 794.681 288.198 784.224 254.343 764.098C245.862 759.056 237.717 755.063 230.272 748.255C226.336 744.657 217.737 733.056 213.968 731.223C213.273 732.218 213.49 731.881 213.149 733.109C210.881 733.332 210.864 730.788 209.229 732.802C207.66 734.733 208.705 736.895 210.171 738.114C213.095 738.143 213.245 737.211 214.897 734.887C229.728 754.773 238.191 759.499 259.473 770.801C284.478 784.081 305.57 791.962 333.655 796.087C342.647 797.431 351.729 798.079 360.82 798.027L363.564 798.554L363.949 799.145C361.839 800.714 358.289 802.152 355.779 803.388C333.394 814.417 309.747 826.016 285.458 831.976C283.537 832.447 281.416 832.545 279.578 832.993L279.065 833.108C274.502 829.252 268.463 824.679 263.863 820.765C260.473 817.88 247.608 805.679 245.032 804.414L241.476 801.747C238 794.847 228.132 785.869 223.015 779.011C209.778 761.271 197.406 743.527 186.234 724.407C183.168 719.16 179.191 714.092 176.359 708.75ZM229.493 756.779C228.669 754.955 225.015 750.437 223.04 750.112L222.008 751.126C222.911 754.872 226.098 755.475 229.493 756.779ZM220.217 751.911C218.117 751.284 218.703 751.134 216.881 751.647C215.345 755.317 222.053 761.3 227.28 759.751L228.136 758.581C226.825 758.252 226.345 759.123 224.507 758.244C222.781 757.419 220.946 757.212 219.823 755.358C218.975 753.957 219.664 753.294 220.217 751.911ZM259.153 772.524C258.29 772.676 257.58 773.288 257.302 774.119C257.024 774.95 257.223 775.866 257.82 776.507C258.418 777.147 259.318 777.41 260.166 777.19C261.409 776.869 262.175 775.624 261.903 774.37C261.631 773.116 260.417 772.301 259.153 772.524ZM237.814 776.742C236.264 779.878 236.516 781.288 239.546 783.117C241.124 783.25 241.035 783.209 242.561 782.712C243.965 780.805 243.746 781.792 243.69 779.777C242.451 777.818 239.992 777.168 237.814 776.742Z" fill="#FBBD9A"/>
<path d="M277.63 711.937C297.351 715.904 313.715 715.163 332.872 710.164C333.392 711.697 333.51 716.391 333.434 718.116C332.822 732.011 331.483 740.241 321.646 750.124C308.972 747.846 294.394 743.519 281.963 739.933L273.328 737.328C279.55 728.737 279.314 721.73 277.63 711.937Z" fill="#FAB6C1"/>
<path d="M214.898 734.887C213.246 737.211 213.096 738.143 210.172 738.114C208.706 736.895 207.661 734.733 209.23 732.802C210.865 730.788 210.882 733.332 213.15 733.109C213.491 731.881 213.274 732.218 213.969 731.223C217.738 733.056 226.337 744.657 230.273 748.255C237.718 755.063 245.863 759.056 254.344 764.098C288.199 784.224 326.072 794.681 365.7 794.438C367.514 794.849 368.961 794.938 370.272 796.186L370.107 796.862C366.699 798.278 364.41 798.126 360.821 798.027C351.73 798.079 342.648 797.431 333.656 796.087C305.571 791.962 284.479 784.081 259.474 770.801C238.192 759.499 229.729 754.773 214.898 734.887Z" fill="#FFEDE1"/>
<path d="M398.978 769.017C441.452 769.974 481.795 767.969 523.563 759.817C557.997 753.095 593.178 745.154 625.628 731.59C633.82 739.634 639.501 742.297 648.867 748.073C669.972 761.089 689.222 769.458 712.847 776.721C692.407 790.695 672.269 802.111 650.627 813.84C595.376 843.785 537.403 869.617 473.855 873.459C451.493 874.811 432.349 874.636 410.137 870.368C395.309 867.519 373.221 861.083 359.999 854.012C354.751 851.144 349.667 847.987 344.77 844.555C342.301 842.849 336.027 837.76 333.469 838.045C332.144 840.765 337.561 844.218 339.621 845.78C352.292 855.323 366.509 862.618 381.651 867.347C499.702 904.819 622.335 841.563 719.08 778.276C729.768 780.128 743.098 782.919 753.627 782.443C747.882 789.817 728.075 799.648 719.495 804.594C667.054 834.823 609.926 860.294 551.34 875.312C476.269 894.555 390.685 899.227 320.708 860.94C309.791 854.966 287.425 841.879 279.578 832.994C281.416 832.546 283.537 832.448 285.458 831.977C309.747 826.017 333.394 814.418 355.779 803.389C358.289 802.153 361.839 800.715 363.949 799.146L363.564 798.555L360.82 798.028C364.409 798.127 366.698 798.279 370.106 796.863L370.271 796.187C368.96 794.939 367.513 794.85 365.699 794.439C371.578 789.986 395.504 772.917 398.978 769.017ZM341.432 813.623C340.415 817.233 341.907 820.903 345.917 821.201C347.146 817.702 346.408 816.393 343.461 814.028L341.432 813.623ZM572.425 822.282C571.172 824.683 568.114 826.086 569.174 828.445C569.81 829.859 571.689 832.551 572.783 833.677C574.103 833.114 575.226 832.967 575.77 831.462C577.045 827.932 575.801 824.069 572.425 822.282ZM352.769 822.655C351.644 824.596 351.624 823.979 351.75 825.882C353.05 827.562 355.125 827.713 357.031 828.736C358.136 826.608 358.352 827.047 358.007 825.19C356.643 823.741 354.693 823.319 352.769 822.655ZM537.233 828.473C535.504 830.102 535.719 829.407 535.536 831.305C536.35 832.872 537.311 833.571 539.028 834.029C540.193 832.13 539.824 833.169 539.863 830.703C538.668 828.659 539.494 829.4 537.233 828.473ZM526.503 829.974C523.685 832.215 520.554 832.263 519.474 835.548C520.4 836.799 521.015 836.767 522.61 836.883C524.587 835.335 524.795 835.112 525.928 832.876L528.331 833.406L528.649 833.117C528.053 831.512 528.07 831.509 527.083 830.121L526.503 829.974ZM373.603 830.76C372.132 834.684 374.749 836.375 378.36 836.717C379.159 834.436 379.224 835.268 378.616 833.213C377.197 831.66 375.75 830.983 373.603 830.76ZM382.972 833.332C383.633 837.399 385.455 837.761 389.25 838.467C389.364 834.5 386.636 833.173 382.972 833.332ZM505.332 833.485C504.733 836.315 506.244 838.232 509.017 838.709C509.992 838.054 509.803 838.466 509.981 837.616L511.766 836.123C511.73 833.326 507.485 833.462 505.332 833.485ZM394.436 834.443C394.943 836.963 397.317 839.792 399.95 839.601L400.092 839.118L401.066 836.53C399.888 834.272 396.918 834.759 394.436 834.443ZM497.253 834.678C495.307 836.129 495.723 835.411 494.965 837.467C495.354 838.826 495.423 839.249 496.914 840.21C499.031 838.78 498.453 839.72 498.934 837.438C498.219 835.146 498.881 835.948 497.253 834.678ZM407.65 836.599C407.042 838.292 406.392 839.351 406.948 840.995C408.048 842.148 409.378 842.099 411.004 842.343C411.208 839.813 411.623 839.678 410.71 837.704C409.252 836.935 409.266 836.952 407.65 836.599ZM475.432 837.308C472.205 840.066 472.875 837.23 470.082 839.574C470.007 841.575 470.246 842.217 471.968 843.495C475.41 843.191 472.77 841.256 475.517 842.761L476.488 844.742L476.302 846.096C477.764 846.648 477.019 846.458 478.8 846.15C478.457 844.426 477.136 844.025 476.983 843.49C476.15 840.576 478.125 839.812 476.33 837.661L475.432 837.308ZM482.665 837.541L480.406 838.518C479.607 840.701 482.234 842.973 483.971 843.366C485.52 841.544 485.821 841.306 486.761 839.168C486.212 836.766 484.981 837.367 482.665 837.541ZM433.603 838.13C432.781 839.806 431.968 840.867 432.312 842.634C433.381 844.662 435.236 846.163 437.443 846.784C438.14 846.987 438.302 846.973 438.952 847.026C435.795 843.918 434.972 844.895 436.875 840.281C436.172 838.753 435.323 838.362 433.603 838.13ZM447.908 838.772C446.266 840.433 445.68 840.454 445.25 842.347C446.328 843.555 447.746 843.653 449.391 844.056C450.958 843.45 450.428 843.972 451.088 842.496C450.582 840.44 449.828 839.646 447.908 838.772ZM542.23 839.187C539.855 840.226 539.851 839.76 538.786 841.554C539.543 843.496 541.488 843.92 543.377 844.557C545.066 842.844 546.298 841 544.091 839.069C543.035 838.995 543.054 838.828 542.23 839.187ZM458.486 839.413C457.834 841.583 457.511 841.448 457.936 843.352C459.308 844.306 461.116 844.015 462.873 843.98C463.615 843.024 463.575 843.101 463.795 841.909C462.591 839.373 461.088 839.409 458.486 839.413ZM525.371 842.659C523.589 845.148 523.797 847.757 525.357 850.346C526.44 850.5 526.007 850.609 526.695 850.301C529.513 846.825 530.164 844.344 525.371 842.659ZM401.861 844.858C400.715 846.766 400.084 847.414 399.963 849.547C400.929 851.961 401.728 852.057 404.21 852.485C405.557 849.882 403.797 846.767 401.861 844.858ZM504.748 848.188C502.701 851.706 502.554 855.531 507.557 856.064C510.569 852.324 510.236 848.665 504.748 848.188ZM418.601 850.663C415.521 854.593 417.22 857.497 421.307 859.374C422.544 857.542 422.875 857.3 423.124 855.192C422.639 853.203 422.31 852.751 420.548 851.718C419.908 851.35 419.259 850.998 418.601 850.663ZM441.232 850.913C440.85 853.26 440.087 856.166 441.397 858.189C441.804 858.829 442.454 859.275 443.197 859.424C444.084 859.608 445.727 859.348 446.638 859.154C448.661 854.388 446.414 850.961 441.232 850.913ZM464.378 850.84C460.709 854.53 459.493 858.526 465.812 860.102C468.564 857.025 469.654 851.79 464.378 850.84ZM485.878 850.747C481.76 854.04 480.572 857.591 486.441 859.838C490.642 856.892 490.534 852.835 485.878 850.747Z" fill="#F1C0E8"/>
<path d="M222.012 751.127L223.044 750.113C225.019 750.438 228.673 754.956 229.497 756.78C226.102 755.476 222.915 754.873 222.012 751.127Z" fill="#FFEDE1"/>
<path d="M228.138 758.583L227.282 759.753C222.055 761.302 215.347 755.319 216.883 751.649C218.705 751.136 218.119 751.286 220.219 751.913C219.666 753.296 218.977 753.959 219.825 755.36C220.948 757.214 222.783 757.421 224.509 758.246C226.347 759.125 226.827 758.254 228.138 758.583Z" fill="#FFEDE1"/>
<path d="M260.167 777.191C259.319 777.411 258.419 777.148 257.821 776.508C257.224 775.867 257.025 774.951 257.303 774.12C257.581 773.289 258.291 772.677 259.154 772.525C260.418 772.302 261.632 773.117 261.904 774.371C262.176 775.625 261.41 776.87 260.167 777.191Z" fill="#FFEDE1"/>
<path d="M242.563 782.712C241.037 783.209 241.126 783.25 239.548 783.117C236.518 781.288 236.266 779.878 237.816 776.742C239.994 777.168 242.453 777.818 243.692 779.777C243.748 781.792 243.967 780.805 242.563 782.712Z" fill="#FFEDE1"/>
<path d="M345.919 821.199C341.909 820.901 340.417 817.231 341.434 813.621L343.463 814.026C346.41 816.391 347.148 817.7 345.919 821.199Z" fill="#FFEDE1"/>
<path d="M572.785 833.676C571.691 832.55 569.812 829.858 569.176 828.444C568.116 826.085 571.174 824.682 572.427 822.281C575.803 824.068 577.047 827.931 575.772 831.461C575.228 832.966 574.105 833.113 572.785 833.676Z" fill="#FFEDE1"/>
<path d="M357.032 828.737C355.126 827.714 353.051 827.563 351.751 825.883C351.625 823.98 351.645 824.597 352.77 822.656C354.694 823.32 356.644 823.742 358.008 825.191C358.353 827.048 358.137 826.609 357.032 828.737Z" fill="#FFEDE1"/>
<path d="M539.031 834.029C537.314 833.571 536.353 832.872 535.539 831.305C535.722 829.407 535.507 830.102 537.236 828.473C539.497 829.4 538.671 828.659 539.866 830.703C539.827 833.169 540.196 832.13 539.031 834.029Z" fill="#DCDAF9"/>
<path d="M522.613 836.882C521.018 836.766 520.403 836.798 519.477 835.547C520.557 832.262 523.688 832.214 526.506 829.973L527.086 830.12C528.073 831.508 528.056 831.511 528.652 833.116L528.334 833.405L525.931 832.875C524.798 835.111 524.59 835.334 522.613 836.882Z" fill="#DCDAF9"/>
<path d="M378.362 836.719C374.751 836.377 372.134 834.686 373.605 830.762C375.752 830.985 377.199 831.662 378.618 833.215C379.226 835.27 379.161 834.438 378.362 836.719Z" fill="#FFEDE1"/>
<path d="M389.251 838.468C385.456 837.762 383.634 837.4 382.973 833.333C386.637 833.174 389.365 834.501 389.251 838.468Z" fill="#FFEDE1"/>
<path d="M509.982 837.616C509.804 838.466 509.993 838.054 509.018 838.709C506.245 838.232 504.734 836.315 505.333 833.485C507.486 833.462 511.731 833.326 511.767 836.123L509.982 837.616Z" fill="#FFEDE1"/>
<path d="M400.094 839.116L399.952 839.599C397.319 839.79 394.945 836.961 394.438 834.441C396.92 834.757 399.89 834.27 401.068 836.528L400.094 839.116Z" fill="#FFEDE1"/>
<path d="M496.918 840.212C495.427 839.251 495.358 838.828 494.969 837.469C495.727 835.413 495.311 836.131 497.257 834.68C498.885 835.95 498.223 835.148 498.938 837.44C498.457 839.722 499.035 838.782 496.918 840.212Z" fill="#FFEDE1"/>
<path d="M411.005 842.342C409.379 842.098 408.049 842.147 406.949 840.994C406.393 839.35 407.043 838.291 407.651 836.598C409.267 836.951 409.253 836.934 410.711 837.703C411.624 839.677 411.209 839.812 411.005 842.342Z" fill="#FFEDE1"/>
<path d="M476.488 844.743L475.517 842.762C472.77 841.257 475.41 843.192 471.968 843.496C470.246 842.218 470.007 841.576 470.082 839.575C472.875 837.231 472.205 840.067 475.432 837.309L476.33 837.662C478.125 839.813 476.15 840.577 476.983 843.491C477.136 844.026 478.457 844.427 478.8 846.151C477.019 846.459 477.764 846.649 476.302 846.097L476.488 844.743Z" fill="#FFEDE1"/>
<path d="M483.974 843.368C482.237 842.975 479.61 840.703 480.409 838.52L482.668 837.543C484.984 837.369 486.215 836.768 486.764 839.17C485.824 841.308 485.523 841.546 483.974 843.368Z" fill="#FFEDE1"/>
<path d="M438.955 847.025C438.305 846.972 438.143 846.986 437.446 846.783C435.239 846.162 433.384 844.661 432.315 842.633C431.971 840.866 432.784 839.805 433.606 838.129C435.326 838.361 436.175 838.752 436.878 840.28C434.975 844.894 435.798 843.917 438.955 847.025Z" fill="#FFEDE1"/>
<path d="M449.395 844.057C447.75 843.654 446.332 843.556 445.254 842.348C445.684 840.455 446.27 840.434 447.912 838.773C449.832 839.647 450.586 840.441 451.092 842.497C450.432 843.973 450.962 843.451 449.395 844.057Z" fill="#FFEDE1"/>
<path d="M543.38 844.557C541.491 843.92 539.546 843.496 538.789 841.554C539.854 839.76 539.858 840.226 542.233 839.187C543.057 838.828 543.038 838.995 544.094 839.069C546.301 841 545.069 842.844 543.38 844.557Z" fill="#FFEDE1"/>
<path d="M462.875 843.982C461.118 844.017 459.31 844.308 457.938 843.354C457.513 841.45 457.836 841.585 458.488 839.415C461.09 839.411 462.593 839.375 463.797 841.911C463.577 843.103 463.617 843.026 462.875 843.982Z" fill="#FFEDE1"/>
<path d="M526.699 850.302C526.011 850.61 526.444 850.501 525.361 850.347C523.801 847.758 523.593 845.149 525.375 842.66C530.168 844.345 529.517 846.826 526.699 850.302Z" fill="#FFEDE1"/>
<path d="M404.212 852.486C401.73 852.058 400.931 851.962 399.965 849.548C400.086 847.415 400.717 846.767 401.863 844.859C403.799 846.768 405.559 849.883 404.212 852.486Z" fill="#FFEDE1"/>
<path d="M507.559 856.064C502.556 855.531 502.703 851.705 504.75 848.188C510.238 848.664 510.571 852.324 507.559 856.064Z" fill="#FFEDE1"/>
<path d="M421.31 859.375C417.223 857.498 415.524 854.594 418.604 850.664C419.262 850.999 419.911 851.351 420.551 851.719C422.313 852.752 422.642 853.204 423.127 855.193C422.878 857.301 422.547 857.543 421.31 859.375Z" fill="#FFEDE1"/>
<path d="M446.64 859.155C445.729 859.349 444.086 859.609 443.199 859.425C442.456 859.276 441.806 858.83 441.399 858.19C440.089 856.167 440.852 853.261 441.234 850.914C446.416 850.962 448.663 854.389 446.64 859.155Z" fill="#FFEDE1"/>
<path d="M465.815 860.102C459.496 858.526 460.712 854.53 464.381 850.84C469.657 851.79 468.567 857.025 465.815 860.102Z" fill="#FFEDE1"/>
<path d="M486.444 859.837C480.575 857.59 481.763 854.039 485.881 850.746C490.537 852.834 490.645 856.891 486.444 859.837Z" fill="#FFEDE1"/>
<defs>
<linearGradient id="paint0_linear_2264_31214" x1="866.502" y1="301.065" x2="566.595" y2="530.982" gradientUnits="userSpaceOnUse">
<stop stop-color="#A6FBDB"/>
<stop offset="1" stop-color="#DDDAED"/>
</linearGradient>
<linearGradient id="paint1_linear_2264_31214" x1="445.333" y1="787.982" x2="570.457" y2="251.547" gradientUnits="userSpaceOnUse">
<stop stop-color="#447BAE"/>
<stop offset="1" stop-color="#3294AB"/>
</linearGradient>
<linearGradient id="paint2_linear_2264_31214" x1="150.799" y1="535.42" x2="161.922" y2="541.476" gradientUnits="userSpaceOnUse">
<stop stop-color="#3777AD"/>
<stop offset="1" stop-color="#5C8ABE"/>
</linearGradient>
</defs>
</svg>
