<svg width="1024" height="1024" viewBox="0 0 1024 1024" fill="none" xmlns="http://www.w3.org/2000/svg">
<path d="M548.848 121.423C560.468 102.585 591.124 88.0412 611.798 83.2751C663.002 71.4712 713.375 87.6927 755.127 117.436C791.481 143.334 818.68 175.223 841.259 213.744C846.96 223.31 858.619 244.842 860.889 255.393C857.724 252.547 850.639 247.7 847.033 245.186C817.268 224.437 779.477 210.307 743.42 206.342C731.62 205.045 719.046 206.376 706.967 204.907C699.568 201.115 691.926 195.809 683.849 191.73C654.072 176.694 626.562 167.798 594.132 160.773C585.971 137.887 569.911 130.259 548.848 121.423Z" fill="#CAE8F2"/>
<path d="M548.445 121.385C543.71 125.692 530.17 145.796 528.297 153.085C528.22 153.383 528.446 154.805 528.492 155.104C499.4 155.098 463.664 156.689 435.082 162.511C430.752 163.279 424.545 164.247 420.496 165.586C413.779 166.445 403.034 169.831 396.397 172.007C351.702 186.664 308.063 212.45 274.373 245.427C268.208 251.461 262.256 256.811 256.516 263.394C251.691 267.747 243.911 277.007 239.263 282.13C198.673 326.863 172.735 387.665 159.326 446.021C156.164 459.779 153.646 478.531 151.783 492.774C141.306 497.654 113.574 529.165 104.749 539.412C90.4333 556.032 74.1064 581.344 64.5054 601.184C62.8657 597.734 56.9516 574.403 55.9044 569.951C32.5155 471.564 45.4913 366.229 97.5543 278.884C126.158 230.896 167.955 187.591 214.44 156.492C292.561 104.228 392.6 84.1123 484.978 100.657C500.857 103.501 534.763 113.078 548.445 121.385Z" fill="#FFCFD2"/>
<path d="M528.492 155.106C528.446 154.807 528.22 153.385 528.297 153.087C530.17 145.798 543.71 125.694 548.445 121.387L548.849 121.424C569.912 130.26 585.972 137.888 594.133 160.774C572.317 156.887 550.648 155.479 528.492 155.106Z" fill="#FBCB9C"/>
<path d="M435.082 162.512C463.664 156.69 499.4 155.099 528.492 155.105C550.648 155.478 572.317 156.886 594.133 160.773C626.563 167.798 654.073 176.694 683.85 191.73C691.927 195.809 699.569 201.115 706.968 204.907C717.068 212.127 726.671 217.055 736.888 223.575C746.155 229.487 757.585 239.392 765.793 246.812C792.084 270.582 809.766 296.764 827.44 327.12C852.412 370.009 875.012 418.816 882.754 468.366C890.011 514.813 889.191 568.155 875.867 613.53C870.824 630.708 862.987 647.726 857.896 664.139C847.563 687.841 837.4 706.794 823.394 728.612C810.778 748.263 799.943 763.025 782.399 778.841C775.109 785.413 768.502 795.285 760.56 801.531C710.785 843.159 655.695 868.635 593.639 886.19C531.011 903.906 475.205 900.159 412.601 883.413C395.581 878.861 379.108 875.173 362.131 870.064C360.072 868.95 357.964 868.201 355.794 867.344C340.391 861.26 324.902 855.241 310.661 846.689C304.986 843.281 299.537 839.59 293.852 836.189C270.324 818.891 252.266 795.183 234.76 772.18C217.984 750.136 205.765 729.242 194.121 704.313C184.452 684.22 174.488 662.643 167.825 641.299C152.604 592.544 144.055 543.587 151.783 492.775C153.646 478.532 156.164 459.78 159.326 446.022C172.735 387.666 198.673 326.864 239.263 282.131C243.911 277.008 251.691 267.748 256.516 263.395L258.016 263.671C260.849 262.945 261.645 261.699 264.044 259.812C267.108 258.062 275.445 252.618 278.294 256.59C276.532 256.525 275.737 256.389 273.989 256.078L273.755 256.352L276.772 257.832C277.163 259.071 277.618 260.298 277.776 261.579L276.711 262.475C275.381 261.078 274.777 260.136 272.927 259.653C266.296 260.07 245.252 280.463 240.452 285.89C204.444 326.596 180.337 378.834 166.202 430.957C163.706 440.161 158.473 462.94 158.363 471.84C159.207 473.109 160.347 474.948 161.253 476.115C163.932 479.698 166.554 483.26 167.781 487.609C167.986 488.338 167.966 488.162 168.471 488.919L167.7 489.077C164.349 485.776 160.081 480.071 156.72 476.275C154.1 491.699 151.589 512.677 151.612 528.457C151.677 571.909 162.022 615.099 176.318 655.92C179.773 665.785 188.041 686.977 193.165 695.672C193.619 696.887 193.678 696.828 194.596 697.779C194.784 701.181 200.902 711.829 203.083 714.687L203.451 715.133C213.882 737.711 257.391 801.175 278.264 813.429C297.094 826.115 317.541 837.039 339.749 842.265L340.646 843.333L340.373 844.405C315.417 841.013 295.532 828.046 274.894 814.813C295.204 836.039 324.254 853.086 351.975 862.058C355.436 863.179 364.403 866.61 367.214 867.013C376.311 870.555 401.756 877.42 411.914 879.172C461.821 892.748 514.591 899.081 565.655 888.381C569.343 887.608 588.745 884.093 590.818 882.166C590.548 881.178 590.695 881.42 590.17 880.572L590.451 879.765C590.59 879.916 590.729 880.067 590.868 880.218C591.624 881.023 592.869 882.032 594.105 881.724C652.145 867.301 724.903 832.836 765.057 789.265L765.911 790.084C767.325 789.638 769.061 786.922 770.809 785.624C772.269 784.706 774.369 781.797 775.544 780.333C778.439 779.179 779.419 775.85 780.727 772.915C781.79 772.971 781.404 772.922 782.388 773.078L783.042 773.187C784.445 771.872 783.907 772.666 784.406 770.544C785.553 768.603 798.836 756.226 802.02 752.206C820.293 729.142 839.554 699.252 850.838 671.925C855.729 660.047 859.408 648.556 863.752 636.582C873.934 608.519 882.7 580.407 883.451 550.301C883.758 538.011 882.837 526.18 881.919 513.955C880.765 469.014 870.303 423.979 851.877 382.988C846.647 371.576 841.794 360.29 834.726 349.873C822.232 331.457 801.463 325.191 783.338 314.599C795.644 318.562 805.538 322.408 816.543 329.528C820.238 331.918 826.072 337.103 828.683 338.646L828.914 337.884C828.66 335.54 829.059 336.219 827.712 334.613C824.678 327.344 815.715 312.053 811.522 305.396C781.367 257.526 741.356 223.267 690.036 199.797C680.837 195.197 673.866 191.503 664.16 188.122C666.031 191.114 669.283 195.333 671.421 198.293C676.071 205.642 676.876 206.906 678.273 215.389C674.622 207.305 671.951 203.748 666.937 196.448C660.813 185.549 655.782 183.98 644.667 179.719C629.157 173.775 614.229 168.165 597.969 164.663C579.45 161.308 563.336 159.74 544.537 160.203C537.719 160.371 530.109 158.503 523.251 158.535C500.147 157.84 452.308 160.398 430.962 167.896L430.337 166.708L430.703 165.678C432.567 163.915 432.808 163.532 435.082 162.512Z" fill="#073F87"/>
<path d="M430.959 167.896C452.305 160.398 500.144 157.84 523.248 158.535C530.106 158.503 537.716 160.371 544.534 160.203C563.333 159.74 579.447 161.308 597.966 164.663C602.272 173.675 607.171 181.59 610.797 190.986L610.418 193.426C586.893 191.765 551.613 191.019 529.364 199.256C527.375 199.825 521.855 201.393 520.235 202.308C524.355 201.855 527.335 201.205 531.409 200.315C560.998 195.121 575.72 194.022 605.478 195.654C605.45 198.8 604.918 201.923 604.49 205.049C592.559 204.612 571.978 203.917 560.355 206.577C553.786 207.471 547.201 208.779 540.912 210.915C539.394 211.372 537.988 211.587 536.912 212.68C538.419 212.84 539.7 212.184 541.166 211.653L542.069 211.46C548.647 210.022 556.178 209.59 562.987 208.737C575.385 208.019 596.683 207.104 608.927 208.353C616.842 225.898 620.682 236.275 625.269 255.205C621.644 257.848 606.687 274.328 602.995 278.512C594.406 288.244 583.939 297.957 575.591 307.384C570.482 313.152 553.186 327.713 550.465 331.895C540.733 324.927 531.003 319.804 521.189 313.274C519.655 311.877 519.728 311.139 519.264 308.978C518.843 305.978 519.043 302.929 519.114 299.886C520.878 293.729 520.375 280.35 521.803 272.739C525.216 254.547 528.838 232.933 535.663 215.64C532.208 220.573 530.089 226.849 528.112 232.516C519.948 255.911 517.738 277.786 517.716 302.34C517.925 305.223 518.068 307.439 518.585 310.312C518.934 312.207 519.038 313.045 520.831 314.109C529.559 319.534 539.747 326.652 548.194 332.603C546.435 337.16 544.152 341.051 539.512 343.332C538.691 343.735 538.173 343.753 537.349 344.248C535.564 343.448 528.232 338.846 526.13 337.593C523.42 336.01 511.066 328.488 509.02 328.127C512.026 331.057 521.627 337.03 525.595 339.62C525.074 342.064 518.162 347.121 516.126 349.278C482.271 385.133 434.09 405.099 388.119 420.268C382.129 422.244 371.267 426.906 365.32 425.581L364.635 422.179C364.57 424.117 364.504 425.979 364.373 427.914C357.765 429.128 355.351 434.825 351.103 434.548C350.981 428.314 351.07 420.751 347.498 415.52C333.386 394.853 296.813 382.007 273.548 376.187C271.817 375.697 269.652 374.991 267.92 374.734L268.422 375.548L268.503 374.834L267.222 374.902C269.095 376.093 270.813 376.384 272.963 376.959C291.434 382.254 338.476 401.131 347.307 417.503C349.509 421.587 349.681 425.809 349.597 430.337C349.476 432.741 349.425 434.229 349.727 436.65C350.126 439.838 346.975 439.761 345.076 440.841C340.203 435.917 331.85 436.793 326.093 439.615L325.566 439.242C321.165 436.058 317.627 431.758 313.015 429.176C303.106 423.628 290.867 421.943 279.923 419.582C252.648 413.699 227.684 421.974 204.892 436.877C202.779 438.258 196.872 442.544 194.636 441.959C204.244 425.366 214.896 409.578 226.747 394.502C232.572 387.092 239.321 379.755 244.894 372.364C224.314 388.862 200.059 426.048 188.07 449.109C182.068 460.982 178.638 469.077 173.732 481.414C172.656 482.537 172.406 483.39 171.847 484.796L171.253 484.908L170.738 483.847C172.249 464.591 202.235 416.096 214.759 399.214C221.075 390.701 234.692 373.798 242.078 365.585C243.808 363.528 244.284 363.082 245.442 360.725L246.17 361C249.096 361.295 253.022 361.472 255.776 361.885C274.288 364.011 295.681 369.555 312.647 377.088C321.336 380.946 333.6 387.102 342.358 390.002L342.553 389.663C309.685 371.682 294.425 363.272 255.411 360.421L251.412 360.389L251.683 359.479C253.005 357.645 252.552 354.263 252.522 351.759C252.309 349.363 253.242 343.97 253.62 341.277C255.842 325.437 259.143 312.785 264.694 297.833C266.183 294.135 267.725 290.585 268.668 286.706L267.701 284.817C271.108 276.626 284.024 260.657 290.465 253.948C296.529 247.633 307.542 239.796 314.769 234.237C337.643 217.917 376.345 197.782 403.591 190.717C437.735 183.187 467.257 188.337 498.572 203.052C503.681 205.453 509.465 208.094 514.244 211.055C515.478 213.985 515.7 218.145 516.043 221.415C516.137 243.411 513.799 260.774 509.124 282.32C507.942 287.769 506.075 297.643 504.247 302.703C503.688 304.916 503.14 307.067 502.51 309.264C501.585 310.465 500.959 311.414 499.848 312.445C492.565 315.472 484.321 317.84 476.733 320.194C436.349 335.272 397.333 353.812 367.498 385.922C366.607 386.865 364.937 388.751 364.051 389.551C362.259 391.065 359.301 393.243 358.623 395.347L358.607 395.123L360.065 394.564L358.612 395.336L358.955 394.544L359.72 394.849C361.979 392.973 362.879 392.164 364.881 389.987C365.756 389.075 367.618 387.52 368.629 386.617C397.833 358.55 440.985 336.886 478.203 322.069C485.748 319.347 492.76 316.308 500.124 313.137C501.845 312.085 501.739 312.041 502.778 310.229C503.744 308.029 504.57 305.721 505.418 303.468C513.902 279.174 520.439 243.779 517.348 218.376C516.836 215.77 516.516 213.084 515.286 210.78C511.797 207.876 508.562 205.287 504.567 203.109C472.06 185.383 438.926 178.98 402.989 188.348C398.535 189.528 394.496 190.8 390.117 192.195C387.717 191.946 388.55 192.822 386.07 191.294C397.914 187.215 410.606 183.927 419.902 175.417C425.065 182.626 435.8 180.42 444.122 180.986C463.684 182.316 483.188 184.603 501.969 190.508C506.293 191.867 510.5 194.043 514.833 195.599C513.201 193.706 506.754 190.931 504.293 190.008C488.425 184.053 470.636 181.111 453.786 179.696C444.805 178.942 435.441 179.023 426.648 177.763L423.182 174.797C425.846 171.605 427.487 170.052 430.959 167.896ZM507.514 325.143C480.748 329.597 379.731 381.772 369.072 406.514L369.475 406.716C373.132 402.017 378.016 397.818 382.689 394.132C403.312 377.864 426.432 363.691 449.915 351.985C468.788 342.576 488.58 334.736 507.719 325.873L507.514 325.143Z" fill="#FDE4CF"/>
<path d="M420.495 165.587C424.544 164.248 430.751 163.28 435.081 162.512C432.807 163.532 432.566 163.915 430.702 165.678L430.336 166.708L430.961 167.896C427.489 170.052 425.848 171.605 423.184 174.797L426.65 177.763C435.443 179.023 444.807 178.942 453.788 179.696C470.638 181.111 488.427 184.053 504.295 190.008C506.756 190.931 513.203 193.706 514.835 195.599C510.502 194.043 506.295 191.867 501.971 190.508C483.19 184.603 463.686 182.316 444.124 180.986C435.802 180.42 425.067 182.626 419.904 175.417L419.68 173.297C421.605 170.451 422.087 169.71 424.608 167.302L425.113 166.202L424.525 165.539C423.034 165.614 421.991 165.619 420.495 165.587Z" fill="#123380"/>
<path d="M597.969 164.66C614.229 168.162 629.157 173.772 644.667 179.716C655.782 183.977 660.813 185.546 666.937 196.445C663.783 197.422 633.816 188.112 626.899 188.711C621.138 189.209 616.644 189.81 610.8 190.983C607.174 181.587 602.275 173.672 597.969 164.66Z" fill="#CAE8F2"/>
<path d="M256.516 263.395C262.256 256.812 268.208 251.462 274.373 245.428C308.063 212.451 351.702 186.665 396.397 172.008C403.034 169.832 413.779 166.446 420.496 165.587C421.992 165.619 423.035 165.614 424.526 165.539L425.114 166.202L424.609 167.302C418.973 169.024 413.253 170.239 407.611 171.875C358.514 186.12 311.846 213.156 275.095 248.682C271.82 251.848 266.862 256.389 264.044 259.812C261.645 261.699 260.849 262.945 258.016 263.671L256.516 263.395Z" fill="#123380"/>
<path d="M264.043 259.811C266.861 256.388 271.819 251.847 275.094 248.681C311.845 213.155 358.513 186.119 407.61 171.874C413.252 170.238 418.972 169.023 424.608 167.301C422.087 169.709 421.605 170.45 419.68 173.296C416.571 175.13 411.137 178.661 408.118 180.004C398.001 184.505 387.052 187.379 376.83 191.655C354.013 201.199 332.887 214.14 312.985 228.764C306.654 233.416 301.122 238.144 295.211 243.274C291.659 246.356 280.775 261.613 278.359 262.081L277.775 261.578C277.617 260.297 277.162 259.07 276.771 257.831L273.754 256.351L273.988 256.077C275.736 256.388 276.531 256.524 278.293 256.589C275.444 252.617 267.107 258.061 264.043 259.811Z" fill="#FFCFD2"/>
<path d="M277.774 261.579L278.358 262.082C280.774 261.614 291.658 246.357 295.21 243.275C301.121 238.145 306.653 233.417 312.984 228.765C332.886 214.141 354.012 201.2 376.829 191.656C387.051 187.38 398 184.506 408.117 180.005C411.136 178.662 416.57 175.131 419.679 173.297L419.903 175.417C410.607 183.927 397.915 187.215 386.071 191.294C363.962 199.997 344.773 210.253 325.21 223.807C322.667 225.569 316.567 229.789 314.743 231.7L314.006 232.302L314.77 234.237C307.543 239.796 296.53 247.633 290.466 253.948C284.025 260.657 271.109 276.626 267.702 284.817C257.276 303.227 250.916 325.185 247.677 345.978L245.914 345.337C247.318 322.534 256.583 299.726 266.999 279.503C269.335 274.967 276.009 266.872 276.709 262.475L277.774 261.579Z" fill="#123380"/>
<path d="M402.992 188.349C438.929 178.981 472.063 185.384 504.57 203.11C508.565 205.288 511.8 207.877 515.289 210.781L514.247 211.056C509.468 208.095 503.684 205.454 498.575 203.053C467.26 188.338 437.738 183.188 403.594 190.718L402.992 188.349Z" fill="#123380"/>
<path d="M390.12 192.195C394.499 190.8 398.538 189.528 402.992 188.348L403.594 190.717C376.348 197.782 337.646 217.917 314.772 234.237L314.008 232.302L314.745 231.7C317.238 230.856 326.676 224.244 329.547 222.3C348.571 209.415 368.711 200.409 390.12 192.195Z" fill="#123380"/>
<path d="M610.799 190.983C616.643 189.81 621.137 189.209 626.898 188.711C633.815 188.112 663.782 197.422 666.936 196.445C671.95 203.745 674.621 207.302 678.272 215.386C676.875 206.903 676.07 205.639 671.42 198.29C676.809 199.989 684.549 200.931 690.035 199.794C741.355 223.264 781.366 257.523 811.521 305.393C815.714 312.05 824.677 327.341 827.711 334.61C816.562 323.998 798.14 312.536 783.474 307.682L783.236 307.852C798.563 316.557 816.146 325.955 828.913 337.881L828.682 338.643C826.071 337.1 820.237 331.915 816.542 329.525C805.537 322.405 795.643 318.559 783.337 314.596C801.462 325.188 822.231 331.454 834.725 349.87C841.793 360.287 846.646 371.573 851.876 382.985C870.302 423.976 880.764 469.011 881.918 513.952C882.836 526.177 883.757 538.007 883.45 550.297C882.699 580.403 873.933 608.516 863.751 636.579C859.407 648.553 855.728 660.044 850.837 671.922C849.657 671.805 849.353 671.595 848.266 672.392C834.314 682.627 802.21 701.28 784.378 697.631C809.134 663.58 838.459 604.616 833.373 561.912C831.349 547.553 825.247 526.346 819.532 512.971C810.485 491.799 783.874 434.172 763.63 422.967L754.041 422.668C722.599 421.496 692.264 424.469 662.038 433.169C660.221 433.574 657.378 433.994 655.976 435.024C657.573 435.381 660.302 434.642 662.029 434.302C666.088 433.002 673.251 432.091 677.648 431.111C700.713 425.968 721.67 425.349 745.144 424.851C751.807 424.955 757.43 425.078 764.095 424.473C788.531 447.649 830.698 528.799 832.167 563.328C831.004 602.178 808.389 663.327 782.6 695.452C782.541 695.502 782.483 695.553 782.424 695.604C782.13 695.213 781.043 694.167 780.641 693.759C788.149 684.228 790.682 680.538 796.129 670.073C803.818 653.537 816.004 635.202 818.496 617.128C812.712 637.737 804.669 650.478 795.076 669.414C788.078 681.053 780.85 694.783 767.671 699.809C765.365 697.789 759.579 698.135 756.457 697.268C681.06 676.343 632.952 609.181 619.492 534.476C618.871 531.025 618.192 522.39 616.835 520.008C619.001 514.673 621.604 509.109 623.988 503.854C632.48 485.134 640.311 465.496 650.364 447.571C638.328 461.262 624.967 495.227 616.812 512.872C613.968 503.345 617.421 466.514 615.652 462.915C619.628 452.473 623.65 444.512 627.767 434.619L628.871 433.995C629.701 432.5 629.707 432.622 629.624 430.927C628.24 425.026 623.606 419.709 619.901 414.951C622.597 411.448 623.762 402.022 624.377 397.652C630.7 404.077 639.549 416.565 645.228 421.494C640.284 413.349 631.35 400.832 624.884 393.973C626.755 390.306 628.535 381.974 629.365 377.736C635.055 348.672 635.352 316.56 631.803 287.207C630.478 276.248 627.146 265.895 625.271 255.202C620.684 236.272 616.844 225.895 608.929 208.35C624.854 208.795 659.851 212.987 673.937 219.085C677.455 221.155 680.742 222.773 684.405 224.589C728.103 251.139 747.098 270.1 775.565 311.504L775.722 311.906C778.509 318.822 781 319.588 781.734 328.587C782.088 331.2 782.064 333.442 782.101 336.064C782.025 357.927 781.007 377.446 776.648 398.932C775.581 404.187 773.784 408.76 772.872 413.037C772.927 415.202 772.813 415.569 773.738 417.442L774.177 416.998C773.951 415.524 773.787 414.651 773.435 413.205C783.23 394.912 785.83 352.774 783.091 332.482C782.999 330.601 782.554 327.613 782.311 325.679C781.876 321.514 778.678 314.629 776.159 311.359C760.198 280.323 734.692 254.482 705.438 235.857C698.99 231.752 691.666 226.786 684.696 223.701C682.911 222.393 676.796 219.571 674.692 218.57C662.13 210.336 620.568 205.627 604.492 205.046C604.92 201.92 605.452 198.797 605.48 195.651C622.144 197.357 638.139 199.754 654.202 204.596C658.465 205.881 663.383 207.778 667.702 208.56C655.956 201.387 624.479 194.908 610.42 193.423L610.799 190.983ZM775.827 318.965C774.917 324.647 775.129 331.958 775.102 337.842C774.549 351.34 773.439 364.528 771.173 377.862C769.686 386.62 766.727 396.312 765.945 404.985C765.563 408.251 765.688 410.945 765.759 414.224C757.798 413.914 749.374 411.464 741.069 411.135C730.12 410.138 717.708 410.112 706.897 412.218C694.306 413.875 664.973 418.519 654.237 422.637C652.434 423.15 650.666 423.445 649.309 424.691C650.927 425.399 653.769 423.898 655.372 423.223C658.116 422.194 671.959 420.045 675.387 419.525C687.967 417.619 700.212 415.992 712.745 413.56C720.845 412.762 730.295 411.63 738.299 412.295C742.52 412.502 763.46 415.367 765.725 414.56C766.665 412.797 766.409 411.64 766.369 409.551C770.221 391.207 775.386 373.511 775.812 354.704C775.9 350.805 776.036 346.913 776.102 343.012C777.117 337.068 776.249 325.193 775.827 318.965ZM841.879 562.62C840.44 563.579 839.361 563.859 839.04 565.11C840.512 565.212 842.001 563.954 843.052 563.012C844.875 561.524 849.621 558.872 852.007 557.229C861.086 550.978 869.376 543.866 875.869 534.898C878.236 531.628 881.949 523.819 881.252 520.059C880.021 523.692 878.142 529.494 875.814 532.512C868.619 541.839 851.61 555.619 841.879 562.62ZM684.723 220.894C694.694 227.774 705.266 233.773 715.193 240.765C735.13 254.807 753.527 271.448 767.313 291.717C769.55 295.006 772.214 299.685 774.539 302.568C772.963 297.869 769.36 292.878 766.661 288.675C751.545 265.138 728.983 246.982 705.232 232.681C700.634 229.912 689.532 222.041 684.723 220.894ZM775.674 420.809L775.98 421.411C782.065 433.216 792.522 446.559 799.702 458.107C812.895 479.324 823.993 500.879 831.201 524.919C833.796 533.21 835.014 542.071 837.481 550.163C837.346 544.888 836.204 538.43 835.111 533.197C827.856 498.476 809.553 466.452 788.834 438.058C786.454 434.795 778.456 423.024 775.674 420.809ZM878.164 542.01C873.952 547.345 869.621 550.654 864.941 555.192C861.595 558.436 844.811 570.156 844.835 573.46L845.477 572.929C858.713 562.057 868.602 559.403 878.217 542.745L878.164 542.01Z" fill="#98F5E1"/>
<path d="M671.421 198.292C669.283 195.332 666.031 191.113 664.16 188.121C673.866 191.502 680.837 195.196 690.036 199.796C684.55 200.933 676.81 199.991 671.421 198.292Z" fill="#CAE8F2"/>
<path d="M314.742 231.699C316.566 229.788 322.666 225.568 325.209 223.806C344.772 210.252 363.961 199.996 386.07 191.293C388.55 192.821 387.717 191.945 390.117 192.194C368.708 200.408 348.568 209.414 329.544 222.299C326.673 224.243 317.235 230.855 314.742 231.699Z" fill="#E3DFEB"/>
<path d="M529.367 199.255C551.616 191.018 586.896 191.764 610.421 193.425C624.48 194.91 655.957 201.389 667.703 208.562C663.384 207.78 658.466 205.883 654.203 204.598C638.14 199.756 622.145 197.359 605.481 195.653C575.723 194.021 561.001 195.12 531.412 200.314C530.8 200.112 529.968 199.589 529.367 199.255Z" fill="url(#paint0_linear_2264_34082)"/>
<path d="M531.412 200.313C527.338 201.203 524.358 201.853 520.238 202.306C521.858 201.391 527.378 199.823 529.367 199.254C529.968 199.588 530.8 200.111 531.412 200.313Z" fill="#47465F"/>
<path d="M560.355 206.577C571.978 203.917 592.559 204.612 604.49 205.049C620.566 205.63 662.128 210.339 674.69 218.573L673.935 219.088C659.849 212.99 624.852 208.798 608.927 208.353C596.683 207.104 575.385 208.019 562.987 208.737C561.18 208.064 561.74 208.272 560.355 206.577Z" fill="#123380"/>
<path d="M706.969 204.906C719.048 206.375 731.622 205.044 743.422 206.341C779.479 210.306 817.27 224.436 847.035 245.185C850.641 247.699 857.726 252.546 860.891 255.392C871.846 266.344 883.618 276.427 893.05 288.792C917.864 321.322 939.126 366.055 943.005 407.25C950.146 483.099 934.26 566.912 889.668 629.71C886.874 633.646 882.021 639.428 879.808 643.349C875.544 647.622 861.998 661.504 857.897 664.138C862.988 647.725 870.825 630.706 875.868 613.528C889.192 568.153 890.012 514.811 882.755 468.364C875.013 418.814 852.413 370.008 827.441 327.119C809.767 296.763 792.085 270.581 765.794 246.811C757.586 239.391 746.156 229.486 736.889 223.574C726.672 217.054 717.069 212.126 706.969 204.906Z" fill="#98F5E1"/>
<path d="M540.914 210.912C547.203 208.776 553.788 207.468 560.357 206.574C561.742 208.269 561.182 208.061 562.989 208.734C556.18 209.587 548.649 210.019 542.071 211.457L541.168 211.65L540.914 210.912Z" fill="#10265B"/>
<path d="M514.246 211.052L515.288 210.777C516.518 213.081 516.838 215.767 517.35 218.373C517.021 219.189 516.469 220.722 516.045 221.412C515.702 218.142 515.48 213.982 514.246 211.052Z" fill="#10265B"/>
<path d="M541.168 211.652C539.702 212.183 538.421 212.839 536.914 212.679C537.99 211.586 539.396 211.371 540.914 210.914L541.168 211.652Z" fill="#8E7C7B"/>
<path d="M519.117 299.887C518.221 301.074 518.029 301.027 517.719 302.341C517.741 277.787 519.951 255.912 528.115 232.517C530.092 226.85 532.211 220.574 535.666 215.641C528.841 232.934 525.219 254.548 521.806 272.74C520.378 280.351 520.881 293.73 519.117 299.887Z" fill="url(#paint1_linear_2264_34082)"/>
<path d="M517.351 218.375C520.442 243.778 513.905 279.173 505.421 303.467L504.25 302.702C506.078 297.642 507.945 287.768 509.127 282.319C513.802 260.773 516.14 243.41 516.046 221.414C516.47 220.724 517.022 219.191 517.351 218.375Z" fill="url(#paint2_linear_2264_34082)"/>
<path d="M674.693 218.57C676.797 219.571 682.911 222.393 684.696 223.701L684.406 224.589C680.743 222.773 677.455 221.155 673.938 219.085L674.693 218.57Z" fill="#389594"/>
<path d="M774.539 302.569C772.214 299.686 769.55 295.007 767.313 291.718C753.527 271.449 735.13 254.808 715.193 240.766C705.266 233.774 694.694 227.775 684.723 220.895C689.532 222.042 700.634 229.913 705.232 232.682C728.983 246.983 751.545 265.139 766.661 288.676C769.36 292.879 772.963 297.87 774.539 302.569Z" fill="#08486A"/>
<path d="M684.406 224.591L684.697 223.703C691.667 226.788 698.991 231.754 705.439 235.859C734.693 254.484 760.199 280.325 776.16 311.361L775.566 311.506C747.099 270.102 728.104 251.141 684.406 224.591Z" fill="#073F87"/>
<path d="M550.469 331.893C553.19 327.711 570.486 313.15 575.595 307.382C583.943 297.955 594.41 288.242 602.999 278.51C606.691 274.326 621.648 257.846 625.273 255.203C627.148 265.896 630.48 276.249 631.805 287.208C635.354 316.561 635.057 348.673 629.367 377.737C628.537 381.975 626.757 390.307 624.886 393.974C600.015 369.39 579.042 351.717 550.469 331.893Z" fill="#B9FBC0"/>
<path d="M158.363 471.839C158.473 462.939 163.706 440.16 166.202 430.956C180.337 378.833 204.444 326.595 240.452 285.889C245.252 280.462 266.296 260.069 272.927 259.652C274.777 260.135 275.381 261.077 276.711 262.474C276.011 266.871 269.337 274.966 267.001 279.502C256.585 299.725 247.32 322.533 245.916 345.336L245.791 345.812C245.207 350.929 245.335 356.051 244.883 361.228L241.461 364.922C217.013 389.052 199.345 413.484 183.984 444.35C179.89 452.576 176.01 460.402 172.961 469.092C169.312 469.64 166.051 473.312 162.548 475.317L161.253 476.113C160.347 474.946 159.207 473.108 158.363 471.839Z" fill="#FFCFD2"/>
<path d="M247.679 345.977C250.918 325.184 257.278 303.226 267.704 284.816L268.671 286.705C266.721 289.547 265.458 292.767 264.063 295.928C256.042 313.962 251.792 335.045 251.456 354.831C251.467 356.531 251.439 357.778 251.686 359.478L251.415 360.388C249.688 360.532 247.829 360.589 246.173 360.999L245.445 360.724C245.953 358.623 246.538 352.17 246.818 349.714L247.679 345.977Z" fill="#FFCFD2"/>
<path d="M264.062 295.926C265.457 292.765 266.721 289.545 268.671 286.703C267.728 290.582 266.186 294.132 264.697 297.83L264.062 295.926Z" fill="#2A232D"/>
<path d="M251.453 354.833C251.789 335.047 256.039 313.964 264.06 295.93L264.694 297.834C259.143 312.786 255.842 325.438 253.62 341.278C253.242 343.971 252.309 349.364 252.522 351.76L251.453 354.833Z" fill="#10265B"/>
<path d="M517.719 302.341C518.029 301.027 518.221 301.074 519.117 299.887C519.046 302.93 518.846 305.979 519.267 308.979L518.588 310.313C518.071 307.44 517.928 305.224 517.719 302.341Z" fill="#2A232D"/>
<path d="M502.512 309.264C503.142 307.067 503.69 304.916 504.249 302.703L505.42 303.468C504.572 305.721 503.746 308.029 502.78 310.229L502.512 309.264Z" fill="#2A232D"/>
<path d="M828.911 337.883C816.144 325.957 798.561 316.559 783.234 307.854L783.472 307.684C798.138 312.538 816.56 324 827.709 334.612C829.056 336.218 828.657 335.539 828.911 337.883Z" fill="#08486A"/>
<path d="M519.265 308.977C519.729 311.138 519.656 311.876 521.19 313.273L520.832 314.108C519.039 313.044 518.935 312.206 518.586 310.311L519.265 308.977Z" fill="#A6978E"/>
<path d="M499.852 312.443C500.963 311.412 501.589 310.463 502.514 309.262L502.782 310.227C501.743 312.039 501.849 312.083 500.128 313.135L499.852 312.443Z" fill="#A6978E"/>
<path d="M775.566 311.504L776.16 311.359C778.679 314.629 781.877 321.514 782.312 325.679L781.735 328.587C781.001 319.588 778.51 318.822 775.723 311.906L775.566 311.504Z" fill="#4FBAB1"/>
<path d="M476.734 320.194C484.322 317.84 492.566 315.472 499.849 312.445L500.125 313.137C492.761 316.308 485.749 319.347 478.204 322.069L476.734 320.194Z" fill="#123380"/>
<path d="M520.832 314.108L521.19 313.273C531.004 319.803 540.734 324.926 550.466 331.894C579.039 351.718 600.012 369.391 624.883 393.975C631.349 400.834 640.283 413.351 645.227 421.496C639.548 416.567 630.699 404.079 624.376 397.654C600.99 373.835 575.097 352.302 548.195 332.602C539.748 326.651 529.56 319.533 520.832 314.108Z" fill="url(#paint3_linear_2264_34082)"/>
<path d="M775.101 337.846C775.128 331.962 774.916 324.651 775.826 318.969C776.248 325.197 777.116 337.072 776.101 343.016C776.086 340.844 776.146 339.653 775.739 337.543L775.101 337.846Z" fill="#389594"/>
<path d="M367.5 385.919C397.335 353.809 436.351 335.269 476.735 320.191L478.205 322.066C440.987 336.883 397.835 358.547 368.631 386.614L367.5 385.919Z" fill="url(#paint4_linear_2264_34082)"/>
<path d="M369.477 406.714L369.074 406.512C379.733 381.77 480.75 329.595 507.516 325.141L507.721 325.871C488.582 334.734 468.79 342.574 449.917 351.983C426.434 363.689 403.314 377.862 382.691 394.13C378.018 397.816 373.134 402.015 369.477 406.714Z" fill="url(#paint5_linear_2264_34082)"/>
<path d="M781.734 328.588L782.311 325.68C782.554 327.614 782.999 330.602 783.091 332.483L782.967 336.036L782.519 336.34L782.101 336.065C782.064 333.443 782.088 331.201 781.734 328.588Z" fill="#08486A"/>
<path d="M525.598 339.618C521.63 337.028 512.029 331.055 509.023 328.125C511.069 328.486 523.423 336.008 526.133 337.591L525.78 339.54L525.598 339.618Z" fill="#123380"/>
<path d="M548.197 332.602C575.099 352.302 600.992 373.835 624.378 397.654C623.763 402.024 622.598 411.45 619.902 414.953C593.848 385.238 569.992 365.915 537.352 344.247C538.176 343.752 538.694 343.734 539.515 343.331C544.155 341.05 546.438 337.159 548.197 332.602Z" fill="#B9FBC0"/>
<path d="M783.09 332.484C785.829 352.776 783.229 394.914 773.434 413.207L772.871 413.039C773.783 408.762 775.58 404.189 776.647 398.934C781.006 377.448 782.024 357.929 782.1 336.066L782.518 336.341L782.966 336.037L783.09 332.484Z" fill="#073F87"/>
<path d="M775.102 337.842L775.74 337.539C776.147 339.649 776.087 340.84 776.102 343.012C776.036 346.913 775.9 350.805 775.812 354.704C775.386 373.511 770.221 391.207 766.369 409.551L765.945 404.985C766.727 396.312 769.686 386.62 771.173 377.862C773.439 364.528 774.549 351.34 775.102 337.842Z" fill="#08486A"/>
<path d="M526.13 337.594C528.232 338.847 535.564 343.449 537.349 344.249C569.989 365.917 593.845 385.24 619.899 414.955C623.604 419.713 628.238 425.03 629.622 430.931L629.171 431.095C626.481 426.008 623.743 423.168 619.869 418.849C609.079 404.779 593.452 391.925 580.246 380.136C563.59 365.268 544.425 351.83 525.777 339.543L526.13 337.594Z" fill="url(#paint6_linear_2264_34082)"/>
<path d="M525.595 339.617L525.777 339.539C544.425 351.826 563.59 365.264 580.246 380.132C593.452 391.921 609.079 404.775 619.869 418.845C619.351 422.325 618.567 426.888 618.42 430.368C608.314 442.754 598.109 454.848 586.552 465.934C581.842 470.452 576.609 474.544 571.574 478.694C542.174 502.931 512.526 518.917 476.246 530.536C458.959 536.073 440.831 540.702 422.753 542.528C418.835 542.924 393.872 543.761 393.565 543.884C389.456 533.121 385.413 522.725 381.974 511.708C374.899 489.043 371.619 466.904 367.805 443.569L365.808 430.838C365.589 429.38 365.459 427.112 365.32 425.578C371.267 426.903 382.129 422.241 388.119 420.265C434.09 405.096 482.271 385.13 516.126 349.275C518.162 347.118 525.074 342.061 525.595 339.617Z" fill="#B9FBC0"/>
<path d="M245.914 345.336L247.677 345.977L246.816 349.714C245.927 348.521 245.971 347.326 245.789 345.812L245.914 345.336Z" fill="#123380"/>
<path d="M244.883 361.228C245.335 356.051 245.207 350.93 245.791 345.812C245.973 347.327 245.929 348.521 246.818 349.714C246.538 352.17 245.953 358.623 245.445 360.724C244.287 363.081 243.811 363.528 242.081 365.585L241.461 364.922L244.883 361.228Z" fill="#47465F"/>
<path d="M251.453 354.831L252.522 351.758C252.552 354.262 253.005 357.644 251.683 359.478C251.436 357.778 251.464 356.531 251.453 354.831Z" fill="#CAB1A6"/>
<path d="M246.172 360.998C247.828 360.588 249.687 360.531 251.414 360.387L255.413 360.419L255.778 361.883C253.024 361.47 249.098 361.293 246.172 360.998Z" fill="#123380"/>
<path d="M255.414 360.422C294.428 363.273 309.688 371.683 342.556 389.664L342.361 390.003C333.603 387.103 321.339 380.947 312.65 377.089C295.684 369.556 274.291 364.012 255.779 361.886L255.414 360.422Z" fill="#0F2384"/>
<path d="M172.961 469.092C176.01 460.402 179.89 452.576 183.984 444.35C199.345 413.484 217.013 389.052 241.461 364.922L242.081 365.584C234.695 373.797 221.078 390.7 214.762 399.213C202.238 416.095 172.252 464.59 170.741 483.846L170.336 483.789C169.349 481.833 171.612 473.76 172.173 471.445L172.961 469.092Z" fill="url(#paint7_linear_2264_34082)"/>
<path d="M194.636 441.958L189.284 451.205L188.07 449.108C200.059 426.047 224.314 388.861 244.894 372.363C239.321 379.754 232.572 387.091 226.747 394.501C214.896 409.577 204.244 425.365 194.636 441.958Z" fill="url(#paint8_linear_2264_34082)"/>
<path d="M273.549 376.187L272.964 376.959C270.814 376.384 269.096 376.093 267.223 374.902L268.504 374.834L268.423 375.548L267.921 374.734C269.653 374.991 271.818 375.697 273.549 376.187Z" fill="#8E7C7B"/>
<path d="M272.965 376.96L273.55 376.188C296.815 382.008 333.388 394.854 347.5 415.521C351.072 420.752 350.983 428.314 351.105 434.548L351.843 445.805C350.786 447.7 350.893 448.094 350.749 450.342C350.082 447.16 349.976 434.77 349.599 430.337C349.683 425.809 349.511 421.588 347.309 417.504C338.478 401.132 291.436 382.255 272.965 376.96Z" fill="#10265B"/>
<path d="M364.055 389.551C364.941 388.751 366.611 386.865 367.502 385.922L368.633 386.617C367.622 387.52 365.76 389.075 364.885 389.987L364.055 389.551Z" fill="#47465F"/>
<path d="M364.883 389.987C362.881 392.164 361.981 392.973 359.722 394.849L358.957 394.544L358.614 395.336L360.067 394.564L358.609 395.123L358.625 395.347C359.303 393.243 362.261 391.065 364.053 389.551L364.883 389.987Z" fill="#CAB1A6"/>
<path d="M765.761 414.227C765.69 410.948 765.565 408.254 765.947 404.988L766.371 409.554C766.411 411.643 766.667 412.8 765.727 414.563C763.462 415.37 742.522 412.505 738.301 412.298C739.666 411.978 739.827 411.783 741.071 411.138C749.376 411.467 757.8 413.917 765.761 414.227Z" fill="#246970"/>
<path d="M706.896 412.22C717.707 410.114 730.119 410.14 741.068 411.137C739.824 411.782 739.663 411.977 738.298 412.297C730.294 411.632 720.844 412.764 712.744 413.562C710.184 413.433 707.984 413.749 705.621 413.612L706.584 413.102L706.896 412.22Z" fill="#073F87"/>
<path d="M654.238 422.638C664.974 418.52 694.307 413.876 706.898 412.219L706.586 413.101L705.623 413.611C707.986 413.748 710.186 413.432 712.746 413.561C700.213 415.993 687.968 417.62 675.388 419.526C671.96 420.046 658.117 422.195 655.373 423.224L654.238 422.638Z" fill="#073F87"/>
<path d="M772.871 413.039L773.434 413.207C773.786 414.653 773.95 415.526 774.176 417L773.737 417.444C772.812 415.571 772.926 415.204 772.871 413.039Z" fill="#4FBAB1"/>
<path d="M326.097 439.612C331.854 436.79 340.207 435.914 345.08 440.838C342.285 445.844 339.694 450.771 335.917 455.118C331.036 460.735 324.643 465.901 320.02 471.664C303.946 491.704 292.066 514.066 283.22 538.011L282.616 538.347C254.673 539.396 221.187 551.478 201.482 572.203C197.72 576.16 194.593 582.874 192.919 588.203C192.445 588.577 191.972 588.951 191.499 589.325L190.404 588.05C190.65 586.229 186.702 574.557 185.773 572.103C178.369 552.543 177.064 531.847 173.25 511.624C172.835 508.055 171.408 491.402 170.389 489.327L168.472 488.916C167.967 488.159 167.987 488.335 167.782 487.606C166.555 483.257 163.933 479.694 161.254 476.111L162.549 475.315L164 475.794C167.358 474.862 169.975 474.152 172.174 471.443C171.613 473.758 169.35 481.831 170.337 483.787L170.742 483.844L171.257 484.905L171.851 484.793C172.41 483.387 172.66 482.534 173.736 481.411C176.638 478.49 186.47 456.757 189.288 451.203L194.64 441.956C196.876 442.541 202.783 438.255 204.896 436.874C227.688 421.971 252.652 413.696 279.927 419.579C290.871 421.94 303.11 423.625 313.019 429.173C317.631 431.755 321.169 436.055 325.57 439.239L326.097 439.612Z" fill="#FBCB9C"/>
<path d="M619.872 418.848C623.746 423.167 626.484 426.007 629.174 431.094C628.679 432.146 627.848 433.568 627.768 434.622C623.787 439.422 620.283 448.298 617.438 454.123C616.637 449.044 617.972 435.927 618.423 430.371C618.57 426.891 619.354 422.328 619.872 418.848Z" fill="#98F5E1"/>
<path d="M837.483 550.166C835.016 542.074 833.798 533.214 831.203 524.923C823.995 500.883 812.897 479.328 799.704 458.111C792.524 446.563 782.067 433.219 775.982 421.414L775.676 420.812C778.458 423.027 786.456 434.798 788.836 438.061C809.555 466.455 827.858 498.479 835.113 533.2C836.206 538.433 837.348 544.891 837.483 550.166Z" fill="url(#paint9_linear_2264_34082)"/>
<path d="M364.375 427.915C364.506 425.98 364.572 424.118 364.637 422.18L365.322 425.582C365.461 427.116 365.591 429.384 365.81 430.842L364.82 430.691L364.375 427.915Z" fill="#555F67"/>
<path d="M655.372 423.227C653.769 423.902 650.927 425.403 649.309 424.695C650.666 423.449 652.434 423.154 654.237 422.641L655.372 423.227Z" fill="#4FBAB1"/>
<path d="M662.036 433.171C692.262 424.471 722.597 421.498 754.039 422.67C752.483 423.912 751.476 423.955 749.495 423.93L750.845 424.218L750.268 424.153C747.916 423.915 747.803 423.884 745.577 424.461L745.142 424.853C721.668 425.351 700.711 425.97 677.646 431.113C673.249 432.093 666.086 433.004 662.027 434.304L662.036 433.171Z" fill="#073F87"/>
<path d="M754.042 422.672L763.631 422.971C783.875 434.176 810.486 491.803 819.533 512.975C825.248 526.35 831.35 547.557 833.374 561.916L832.168 563.332C830.699 528.803 788.532 447.653 764.096 424.477C757.431 425.082 751.808 424.959 745.145 424.855L745.58 424.463C747.806 423.886 747.919 423.917 750.271 424.155L750.848 424.22L749.498 423.932C751.479 423.957 752.486 423.914 754.042 422.672Z" fill="#08486A"/>
<path d="M351.105 434.548C355.353 434.825 357.767 429.128 364.375 427.914L364.82 430.69C365.223 435.596 365.551 441.306 366.216 446.126C370.443 483.629 376.037 507.447 391.02 542.76C385.25 543.629 377.594 542.736 371.634 543.021C370.441 539.032 369.176 535.06 367.961 531.077C359.509 503.366 355.263 474.478 351.843 445.804L351.105 434.548Z" fill="#B9FBC0"/>
<path d="M393.566 543.887C393.873 543.764 418.836 542.927 422.754 542.531C440.832 540.705 458.96 536.076 476.247 530.539C512.527 518.92 542.175 502.934 571.575 478.697C576.61 474.547 581.843 470.455 586.553 465.937C598.11 454.851 608.315 442.757 618.421 430.371C617.97 435.927 616.635 449.044 617.436 454.123C616.142 458.941 614.785 462.372 612.987 466.992L600.85 498.64C593.07 519.518 581.3 553.814 565.506 569.645C561.765 571.861 561.106 572.126 556.77 573.309C543.35 575.383 523.794 577.081 510.248 576.197C486.399 574.64 460.854 568.403 437.315 564.07C427.55 562.273 409.01 557.258 399.623 556.961C397.717 555.103 394.711 546.788 393.566 543.887Z" fill="#CAE8F2"/>
<path d="M364.82 430.688L365.81 430.839L367.807 443.57C367.154 445.696 367.765 444.942 366.216 446.124C365.551 441.304 365.223 435.594 364.82 430.688Z" fill="#073F87"/>
<path d="M349.6 430.336C349.977 434.769 350.083 447.159 350.75 450.341C353.635 482.317 358.325 511.93 369.128 542.336C362.774 542.86 344.799 541.116 338.098 540.468C318.698 538.591 302.672 537.947 283.219 538.013C292.065 514.068 303.945 491.706 320.019 471.666C324.642 465.903 331.035 460.737 335.916 455.12C339.693 450.773 342.284 445.846 345.079 440.84C346.978 439.76 350.129 439.837 349.73 436.649C349.428 434.228 349.479 432.74 349.6 430.336Z" fill="#B9FBC0"/>
<path d="M629.172 431.094L629.623 430.93C629.706 432.625 629.7 432.503 628.87 433.998L627.766 434.622C627.846 433.568 628.677 432.146 629.172 431.094Z" fill="#4FBAB1"/>
<path d="M662.03 434.305C660.303 434.645 657.574 435.384 655.977 435.027C657.379 433.997 660.222 433.577 662.039 433.172L662.03 434.305Z" fill="#389594"/>
<path d="M617.437 454.122C620.282 448.297 623.786 439.421 627.767 434.621C623.65 444.514 619.628 452.475 615.652 462.917C614.991 464.447 614.207 466.135 613.718 467.704L612.988 466.991C614.786 462.371 616.143 458.94 617.437 454.122Z" fill="#08486A"/>
<path d="M367.806 443.57C371.62 466.905 374.9 489.044 381.975 511.709C385.414 522.726 389.457 533.122 393.566 543.885C394.711 546.786 397.717 555.101 399.623 556.959C409.01 557.256 427.55 562.271 437.315 564.068C460.854 568.401 486.399 574.638 510.248 576.195C523.794 577.079 543.35 575.381 556.77 573.307L556.069 574.47C526.366 581.395 504.164 578.42 474.61 573.571C448.575 569.3 425.096 564.432 399.604 557.402C396.075 555.883 392.619 546.497 391.019 542.758C376.036 507.445 370.442 483.627 366.215 446.124C367.764 444.942 367.153 445.696 367.806 443.57Z" fill="#123380"/>
<path d="M350.75 450.343C350.894 448.095 350.787 447.7 351.844 445.805C355.264 474.479 359.51 503.367 367.962 531.078C369.177 535.061 370.442 539.033 371.635 543.022C372.82 546.166 379.501 563.37 379.472 565.563C376.613 561.447 371.134 547.486 369.128 542.338C358.325 511.932 353.635 482.319 350.75 450.343Z" fill="url(#paint10_linear_2264_34082)"/>
<path d="M173.734 481.414C178.64 469.077 182.07 460.982 188.072 449.109L189.286 451.206C186.468 456.76 176.636 478.493 173.734 481.414Z" fill="#123380"/>
<path d="M616.813 512.875C624.968 495.23 638.329 461.265 650.365 447.574C640.312 465.499 632.481 485.137 623.989 503.857C621.605 509.112 619.002 514.676 616.836 520.011C613.956 525.647 610.172 532.646 607.758 538.336C604.705 543.164 602.343 549.167 599.504 553.971C593.398 564.305 587.346 576.59 581.048 586.6L580.332 586.526C591.171 562.371 606.351 536.96 616.813 512.875Z" fill="#073F87"/>
<path d="M613.719 467.705C614.208 466.136 614.992 464.448 615.653 462.918C617.422 466.517 613.969 503.348 616.813 512.875C606.351 536.96 591.171 562.371 580.332 586.526C579.11 587.973 579.07 587.989 578.258 589.68L578.512 590.254C579.863 589.441 580.306 588.067 581.048 586.6C587.346 576.59 593.398 564.305 599.504 553.971C602.343 549.167 604.705 543.164 607.758 538.336C610.587 536.862 614.389 525.17 616.772 522.192C617.354 524.168 616.844 523.426 617.026 524.748C618.369 534.473 620.493 544.535 623.117 553.84C633.472 590.554 649.272 623.622 676.492 650.962C696.188 670.745 722.182 686.999 748.651 696.152C751.816 697.246 760.471 698.798 764.206 699.598C762.91 703.073 685.055 724.893 674.812 725.693C673.654 725.784 672.899 726.347 672.241 727.239C676.273 732.408 744.14 712.822 753.506 708.917C761.5 705.585 771.856 702.446 778.73 696.763L779.283 696.803C780.17 702.649 766.799 709.272 762.228 710.926C754.536 713.71 746.252 715.542 738.367 717.793C720.944 722.299 703.102 725.95 685.556 730.057C672.81 733.04 658.235 734.079 646.115 739.257C645.4 739.562 645.329 739.544 644.569 739.472C640.787 731.489 635.075 723.126 630.223 715.661L612.104 687.738C606.336 678.864 568.181 617.876 567.675 612.074C569.385 609.672 578.056 598.13 580.241 596.953C580.751 607.932 635.599 695.796 645.096 710.686L646.414 711.083C647.099 712.117 647.814 713.092 648.537 714.099C648.261 707.001 599.361 630.875 591.677 617.798C589.294 613.606 586.771 609.366 584.774 604.986C584.637 601.4 580.176 597.424 582.582 592.515L582.261 592L579.998 595.542C577.42 598.553 567.843 610.684 566.046 612.276L565.367 611.211C564.602 609.573 562.701 605.043 561.542 604.085C561.403 606.18 563.76 610.191 564.948 612.061L565.517 613.301C516.165 669.893 444.603 712.761 368.511 718.367C363.958 718.702 346.073 717.838 343.422 718.715C337.691 717.013 331.343 715.95 325.535 714.065C322.635 713.124 320.575 712.144 317.778 711.139C315.523 707.57 312.921 702.86 310.145 699.892L315.296 709.751L313.809 711.967C309.951 705.909 305.434 698.822 302.118 692.515C287.011 683.226 270.67 678.601 255.965 670.859C255.632 670.121 255.836 670.507 255.214 669.588L254.695 668.831C255.246 667.036 255.579 665.491 255.804 663.617L255.886 662.901L256.773 663.149L257.565 662.691C264.441 664.81 272.16 668.832 278.899 671.535C283.755 673.482 288.228 676.545 293.241 678.549C288.285 673.862 261.933 662.891 255.367 660.175C256.357 619.895 268.872 576.026 282.615 538.35L283.219 538.014C302.672 537.948 318.698 538.592 338.098 540.469C344.799 541.117 362.774 542.861 369.128 542.337C371.134 547.485 376.613 561.446 379.472 565.562C379.501 563.369 372.82 546.165 371.635 543.021C377.595 542.736 385.251 543.629 391.021 542.76C392.621 546.499 396.077 555.885 399.606 557.404C425.098 564.434 448.577 569.302 474.612 573.573C504.166 578.422 526.368 581.397 556.071 574.472C560.36 573.456 562.669 573.035 566.188 570.178C592.124 544.246 601.47 501.592 613.719 467.705ZM399.379 566.669C395.566 566.612 393.458 569.061 390.997 571.702C366.242 598.406 343.477 623.522 326.067 655.917C322.614 662.343 311.574 684.466 307.26 688.768C312.339 688.136 334.357 647.577 338.813 640.476C354.539 615.418 372.99 594.615 392.088 572.138C394.295 569.739 395.533 568.118 398.595 567.029C402.344 568.735 411.518 571.323 415.745 572.813C442.766 582.334 473.242 588.046 501.746 590.853C524.763 593.12 537.183 592.673 560.05 598.778C544.929 590.24 511.51 589.9 493.555 587.458C480.37 585.665 467.809 583.488 454.648 581.263C434.706 577.89 418.568 572.644 399.379 566.669ZM378.279 566.554C349.829 594.23 325.764 625.098 307.412 660.398C306.248 662.637 300.644 672.652 300.657 674.579C302.339 671.935 320.014 642.368 320.196 641.647C322.407 632.879 378.354 565.142 378.279 566.554Z" fill="#CAE8F2"/>
<path d="M612.989 466.992L613.719 467.705C601.47 501.592 592.124 544.246 566.188 570.178L565.508 569.645C581.302 553.814 593.072 519.518 600.852 498.64L612.989 466.992Z" fill="url(#paint11_linear_2264_34082)"/>
<path d="M162.547 475.319C166.05 473.314 169.311 469.642 172.96 469.094L172.172 471.447C169.973 474.156 167.356 474.866 163.998 475.798L162.547 475.319Z" fill="#FEC774"/>
<path d="M168.469 488.917L170.386 489.328C170.091 491.866 170.066 492.498 170.316 495.035C168.338 497.049 169.501 500.805 168.957 504.211L168.404 500.697C168.507 497.771 168.499 495.838 168.35 492.917C167.301 499.252 167.005 513.015 167.89 519.515C167.945 521.315 167.866 524.275 168.371 525.856C169.106 546.747 176.475 573.455 182.694 593.278C184.108 597.782 186.89 606.772 188.746 610.943C182.873 616.809 183.663 641.805 186.677 649.529C186.791 649.821 190.021 651.531 190.711 652.089C189.656 658.32 187.731 676.799 190.204 682.72C190.861 680.583 190.259 676.093 190.446 673.597C191.1 664.885 190.801 640.827 200.492 637.713L201.023 638.203C202.279 640.129 202.773 640.883 204.289 642.577C207.285 647.405 204.649 649.54 202.555 653.977C198.257 663.087 195.674 673.407 194.521 683.398C194.094 686.954 193.775 692.5 193.163 695.67C188.039 686.975 179.771 665.782 176.316 655.917C162.02 615.096 151.675 571.907 151.61 528.455C151.587 512.675 154.098 491.697 156.718 476.273C160.079 480.069 164.347 485.773 167.698 489.074L168.469 488.917Z" fill="url(#paint12_linear_2264_34082)"/>
<path d="M170.385 489.328C171.404 491.403 172.831 508.056 173.246 511.625L172.109 513.106C171.366 506.929 170.797 501.237 170.315 495.035C170.065 492.498 170.09 491.866 170.385 489.328Z" fill="#2A232D"/>
<path d="M64.5046 601.183C74.1056 581.343 90.4325 556.031 104.748 539.411C113.573 529.164 141.305 497.653 151.782 492.773C144.054 543.585 152.603 592.542 167.824 641.297C174.487 662.641 184.451 684.218 194.12 704.311C205.764 729.24 217.983 750.134 234.759 772.178C252.265 795.181 270.323 818.889 293.851 836.187C295.917 841.272 306.01 852.519 310.059 857.408C305.158 855.944 299.475 852.951 294.606 851.07C194.457 812.399 110.957 732.551 74.6554 630.718C71.2157 621.069 67.8288 611.318 64.4844 601.587L64.5046 601.183Z" fill="#FBCB9C"/>
<path d="M168.404 500.698C167.796 507.418 167.769 512.767 167.89 519.516C167.005 513.016 167.301 499.253 168.35 492.918C168.499 495.839 168.507 497.772 168.404 500.698Z" fill="#705544"/>
<path d="M168.957 504.211C169.501 500.805 168.338 497.049 170.316 495.035C170.798 501.237 171.367 506.929 172.11 513.106C173.195 538.275 181.281 566.785 189.379 590.495C195.122 605.888 203.918 629.258 215.711 640.822C218.871 643.92 223.618 646.443 227.515 648.55C233.31 651.614 243.424 655.91 248.117 658.735L248.527 659.634C249.934 660.226 250.957 660.674 252.309 661.378C253.144 663.657 252.065 664.943 250.872 666.936C248.704 667.622 249.132 665.879 246.293 666.348C236.924 662.923 223.381 654.32 215.468 648.344C223.506 658.204 245.282 668.86 257.155 674.538C252.273 682.109 255.928 695.042 255.215 703.62C240.449 698.56 224.758 693.091 211.729 684.275C209.078 682.481 206.373 680.672 203.683 678.939C203.987 671.504 206.836 660.528 208.666 653.171C209.261 651.547 209.801 650.513 209.721 648.786L208.836 648.027L207.221 646.865C206.848 644.392 206.057 643.278 204.847 641.115C204.434 640.059 203.363 637.952 202.842 636.851C186.096 600.593 175.371 561.756 170.554 522.094C169.901 516.295 169.267 510.014 168.957 504.211Z" fill="#B9FBC0"/>
<path d="M167.889 519.517C167.768 512.768 167.795 507.419 168.403 500.699L168.956 504.213C169.266 510.016 169.9 516.297 170.553 522.096L169.501 520.409L168.733 520.433C168.18 522.654 168.789 524.218 168.37 525.858C167.865 524.277 167.944 521.317 167.889 519.517Z" fill="#123380"/>
<path d="M173.246 511.625C177.06 531.848 178.365 552.544 185.769 572.104C186.698 574.558 190.646 586.23 190.4 588.051L189.722 587.8L189.378 590.495C181.28 566.785 173.194 538.275 172.109 513.106L173.246 511.625Z" fill="#123380"/>
<path d="M168.371 525.855C168.79 524.215 168.181 522.651 168.734 520.43L169.502 520.406L170.554 522.093C175.371 561.755 186.096 600.592 202.842 636.85L201.023 638.202L200.492 637.712L199.681 636.447C199.718 634.805 190.28 614.381 188.746 610.942C186.89 606.771 184.108 597.781 182.694 593.277C176.475 573.454 169.106 546.746 168.371 525.855Z" fill="#123380"/>
<path d="M841.879 562.624C851.61 555.623 868.619 541.843 875.814 532.516C878.142 529.498 880.021 523.695 881.252 520.062C881.949 523.822 878.236 531.632 875.869 534.902C869.376 543.87 861.086 550.982 852.007 557.233C849.621 558.876 844.875 561.528 843.052 563.016L841.879 562.624Z" fill="#073F87"/>
<path d="M616.836 520.012C618.193 522.394 618.872 531.029 619.493 534.48C632.953 609.185 681.061 676.347 756.458 697.272C759.58 698.139 765.366 697.793 767.672 699.813C760.174 703.437 751.288 705.662 743.442 708.447C721.499 716.235 698.715 720.712 676.402 726.848C679.132 726.937 681.501 726.664 684.182 726.166C713.362 720.74 743.043 713.221 770.193 701.069C774.072 699.332 777.59 696.674 780.642 693.763C781.044 694.171 782.131 695.217 782.425 695.608C780.186 699.006 775.679 705.665 771.977 707.409C745.189 720.031 714.313 723.664 685.75 730.993C666.822 735.85 650.258 733.645 635.804 748.49C654.944 736.179 671.21 737.66 691.251 732.543C711.904 727.269 766.686 719.901 779.446 703.99C779.706 706.176 780.278 712.946 780.769 714.527C780.728 716.555 780.762 719.697 780.462 721.61C780.203 719.869 779.948 718.206 779.772 716.455C779.133 727.187 779.931 737.975 779.137 748.575L778.751 752.655C778.32 758.477 777.741 765.078 776.175 770.669C772.457 778.614 770.715 782.358 765.057 789.266C724.903 832.837 652.145 867.302 594.105 881.725C592.869 882.033 591.624 881.024 590.868 880.219C590.729 880.068 590.59 879.917 590.451 879.766L587.68 877.179C579.329 869.364 572.339 861.348 564.49 853.132C558.719 847.09 552.862 839.595 545.816 835.403C552.377 842.044 558.698 850.345 565.388 857.531C572.586 865.262 579.731 870.623 586.888 877.622C587.774 878.432 589.279 879.889 590.17 880.573C590.695 881.421 590.548 881.179 590.818 882.167C588.745 884.094 569.343 887.609 565.655 888.382C514.591 899.082 461.821 892.749 411.914 879.173C413.302 877.232 419.218 872.484 421.358 870.73C432.502 861.595 444.282 850.54 446.891 835.685C467.04 840.616 491.708 839.567 512.309 839.279C516.641 839.219 534.134 837.178 537.496 835.177C571.06 815.195 601.061 784.436 624.647 753.689C625.89 752.154 628.167 749.632 628.477 747.819C626.925 748.642 625.302 751.248 624.179 752.78C601.453 779.059 570.447 811.644 541.674 831.09C539.935 831.21 537.634 831.284 535.979 831.665C533.66 831.237 515.817 831.168 511.102 830.859C489.256 829.426 467.883 827.051 446.054 825.934C444.819 807.447 436.058 788.162 423.554 774.651C402.826 752.253 371.212 731.239 343.422 718.716C346.073 717.839 363.958 718.703 368.511 718.368C444.603 712.762 516.165 669.894 565.517 613.302C568.918 622.427 580.072 642.573 585.211 651.313C603.07 681.682 623.557 712.125 643.987 740.866C641.984 735.051 632.197 720.537 628.529 714.862L600.493 671.42C587.883 651.451 577.696 632.488 566.046 612.277C567.843 610.685 577.42 598.554 579.998 595.543L580.241 596.954C578.056 598.131 569.385 609.673 567.675 612.075C568.181 617.877 606.336 678.865 612.104 687.739L630.223 715.662C635.075 723.127 640.787 731.49 644.569 739.473C645.329 739.545 645.4 739.563 646.115 739.258C658.235 734.08 672.81 733.041 685.556 730.058C703.102 725.951 720.944 722.3 738.367 717.794C746.252 715.543 754.536 713.711 762.228 710.927C766.799 709.273 780.17 702.65 779.283 696.804L778.73 696.764C771.856 702.447 761.5 705.586 753.506 708.918C744.14 712.823 676.273 732.409 672.241 727.24C672.899 726.348 673.654 725.785 674.812 725.694C685.055 724.894 762.91 703.074 764.206 699.599C760.471 698.799 751.816 697.247 748.651 696.153C722.182 687 696.188 670.746 676.492 650.963C649.272 623.623 633.472 590.555 623.117 553.841C620.493 544.536 618.369 534.474 617.026 524.749C616.844 523.427 617.354 524.169 616.772 522.193C614.389 525.171 610.587 536.863 607.758 538.337C610.172 532.647 613.956 525.648 616.836 520.012ZM631.433 754.042C618.947 774.548 579.84 810.633 560.387 826.08L559.674 826.552C555.022 829.595 551.036 830.714 546.211 833.239C549.504 833.202 558.685 828.715 561.629 826.618C580.822 814.494 622.976 775.783 632.204 755.237C633.241 753.258 633.806 752.342 634.421 750.225C633.254 750.884 632.223 752.817 631.433 754.042ZM542.108 837.875C542.397 839.783 542.796 842.377 543.392 844.076C545.752 850.798 557.442 860.579 562.757 864.472C566.485 867.202 587.452 881.522 590.372 882.064L589.775 881.554C575.358 869.361 548.571 855.868 542.108 837.875Z" fill="#F1C0E8"/>
<path d="M191.496 589.326C191.969 588.952 192.442 588.578 192.916 588.204C194.59 582.875 197.717 576.161 201.479 572.204C221.184 551.479 254.67 539.397 282.613 538.348C268.87 576.024 256.355 619.893 255.365 660.173C245.488 656.35 236.639 652.119 227.318 647.159C224.315 645.337 218.705 642.025 216.532 639.392C207.867 628.893 195.619 602.153 191.496 589.326Z" fill="#B9FBC0"/>
<path d="M844.836 573.462C844.812 570.158 861.596 558.438 864.942 555.194C869.622 550.656 873.953 547.347 878.165 542.012L878.218 542.747C868.603 559.405 858.714 562.059 845.478 572.931L844.836 573.462Z" fill="#073F87"/>
<path d="M832.169 563.33L833.375 561.914C838.461 604.618 809.136 663.582 784.38 697.633C783.174 699.333 782.193 700.508 781.449 702.479C785.056 719.365 786.44 740.102 784.65 757.174C784.069 762.714 782.468 768.28 782.069 772.22C783.241 771.727 783.442 771.404 784.407 770.543C783.908 772.665 784.446 771.871 783.043 773.186L782.389 773.077C781.405 772.921 781.791 772.97 780.728 772.914C779.42 775.849 778.44 779.178 775.545 780.332C785.003 766.824 782.388 730.536 780.77 714.525C780.279 712.944 779.707 706.174 779.447 703.988C766.687 719.899 711.905 727.267 691.252 732.541C671.211 737.658 654.945 736.177 635.805 748.488C650.259 733.643 666.823 735.848 685.751 730.991C714.314 723.662 745.19 720.029 771.978 707.407C775.68 705.663 780.187 699.004 782.426 695.606C782.485 695.555 782.543 695.504 782.602 695.454C808.391 663.329 831.006 602.18 832.169 563.33Z" fill="#123380"/>
<path d="M843.051 563.013C842 563.955 840.511 565.213 839.039 565.111C839.36 563.86 840.439 563.58 841.878 562.621L843.051 563.013Z" fill="#4FBAB1"/>
<path d="M300.656 674.578C300.643 672.651 306.247 662.636 307.411 660.397C325.763 625.097 349.828 594.229 378.278 566.553C378.353 565.141 322.406 632.878 320.195 641.646C320.013 642.367 302.338 671.934 300.656 674.578Z" fill="#123380"/>
<path d="M399.378 566.669L398.594 567.029C395.532 568.118 394.294 569.739 392.087 572.138L390.996 571.702C393.457 569.061 395.565 566.612 399.378 566.669Z" fill="#2D6990"/>
<path d="M398.594 567.028L399.378 566.668C418.567 572.643 434.705 577.889 454.647 581.262C467.808 583.487 480.369 585.664 493.554 587.457C511.509 589.899 544.928 590.239 560.049 598.777C537.182 592.672 524.762 593.119 501.745 590.852C473.241 588.045 442.765 582.333 415.744 572.812C411.517 571.322 402.343 568.734 398.594 567.028Z" fill="#123380"/>
<path d="M556.771 573.309C561.107 572.126 561.766 571.861 565.507 569.645L566.187 570.178C562.668 573.035 560.359 573.456 556.07 574.472L556.771 573.309Z" fill="#70A0B7"/>
<path d="M392.086 572.135C372.988 594.612 354.537 615.415 338.811 640.473C334.355 647.574 312.337 688.133 307.258 688.765C311.572 684.463 322.612 662.34 326.065 655.914C343.475 623.519 366.24 598.403 390.995 571.699L392.086 572.135Z" fill="url(#paint13_linear_2264_34082)"/>
<path d="M581.048 586.597C580.306 588.064 579.863 589.438 578.512 590.251L578.258 589.677C579.07 587.986 579.11 587.97 580.332 586.523L581.048 586.597Z" fill="#70A0B7"/>
<path d="M189.379 590.496L189.723 587.801L190.401 588.052L191.496 589.327C195.619 602.154 207.867 628.894 216.532 639.393C218.705 642.026 224.315 645.338 227.318 647.16L227.515 648.551C223.618 646.444 218.871 643.921 215.711 640.823C203.918 629.259 195.122 605.889 189.379 590.496Z" fill="#073F87"/>
<path d="M579.996 595.542L582.259 592L582.58 592.515C580.174 597.424 584.635 601.4 584.772 604.986C584.779 607.607 589.278 615.742 590.827 617.987C594.342 625.409 599.81 634.127 604.026 641.369C613.372 657.422 623.275 673.328 632.935 689.194C636.544 695.122 643.457 705.26 646.412 711.083L645.094 710.686C635.597 695.796 580.749 607.932 580.239 596.953L579.996 595.542Z" fill="#F1C0E8"/>
<path d="M364.301 910.962C307.902 942.289 241.015 947.051 181.267 922.698C168.802 917.617 157.224 912.777 145.807 905.53C94.988 873.275 56.0652 822.818 42.1947 763.834C30.9594 716.81 37.9549 671.328 53.9869 626.445C55.6928 621.669 62.0812 605.454 64.4829 601.59C67.8273 611.321 71.2142 621.072 74.6539 630.721C110.956 732.554 194.456 812.402 294.605 851.073C299.474 852.954 305.157 855.947 310.058 857.411L310.656 857.783C312.095 860.922 316.365 865.695 318.708 868.573C331.072 883.762 347.813 900.075 364.301 910.962Z" fill="#FDE4CF"/>
<path d="M565.366 611.212L564.947 612.062C563.759 610.192 561.402 606.181 561.541 604.086C562.7 605.044 564.601 609.574 565.366 611.212Z" fill="#70A0B7"/>
<path d="M590.828 617.985C589.279 615.74 584.78 607.605 584.773 604.984C586.77 609.364 589.293 613.604 591.676 617.796L590.828 617.985Z" fill="#636293"/>
<path d="M190.713 652.091C190.023 651.533 186.793 649.823 186.679 649.531C183.665 641.807 182.875 616.811 188.748 610.945C190.282 614.384 199.72 634.808 199.683 636.45C193.922 641.343 192.5 644.679 190.713 652.091Z" fill="#FDE4CF"/>
<path d="M564.945 612.061L565.364 611.211L566.043 612.276C577.693 632.487 587.88 651.45 600.49 671.419L628.526 714.861C632.194 720.536 641.981 735.05 643.984 740.865C623.554 712.124 603.067 681.681 585.208 651.312C580.069 642.572 568.915 622.426 565.514 613.301L564.945 612.061Z" fill="#0F2384"/>
<path d="M795.074 669.415C804.667 650.479 812.71 637.738 818.494 617.129C816.002 635.203 803.816 653.538 796.127 670.074L795.074 669.415Z" fill="#246970"/>
<path d="M590.828 617.986L591.676 617.797C599.36 630.874 648.26 707 648.536 714.098C647.813 713.091 647.098 712.116 646.413 711.082C643.458 705.259 636.545 695.121 632.936 689.193C623.276 673.327 613.373 657.421 604.027 641.368C599.811 634.126 594.343 625.408 590.828 617.986Z" fill="#0F2384"/>
<path d="M202.842 636.852C203.363 637.953 204.434 640.06 204.847 641.116L204.289 642.578C202.773 640.884 202.279 640.13 201.023 638.204L202.842 636.852Z" fill="#073F87"/>
<path d="M190.714 652.09C192.501 644.678 193.923 641.342 199.684 636.449L200.495 637.714C190.804 640.828 191.103 664.886 190.449 673.598C190.262 676.094 190.864 680.584 190.207 682.721C187.734 676.8 189.659 658.321 190.714 652.09Z" fill="#073F87"/>
<path d="M204.848 641.117C206.058 643.28 206.849 644.394 207.222 646.867C203.663 656.057 198.523 668.182 197.637 678.085C196.396 682.726 195.305 692.595 194.595 697.779C193.677 696.828 193.618 696.887 193.164 695.672C193.776 692.502 194.095 686.956 194.522 683.4C195.675 673.409 198.258 663.089 202.556 653.979C204.65 649.542 207.286 647.407 204.29 642.579L204.848 641.117Z" fill="#073F87"/>
<path d="M857.894 664.137C861.995 661.503 875.541 647.621 879.805 643.348C879.858 653.027 872.537 671.655 869.434 681.166C838.182 776.929 771.361 861.037 682.485 909.28C680.18 910.531 677.651 911.574 675.338 912.767C586.597 958.565 473.839 970.788 383.431 922.725C376.969 919.29 370.842 914.647 364.301 910.959C347.813 900.072 331.072 883.759 318.708 868.57C316.365 865.692 312.095 860.919 310.656 857.78C320.806 859.613 353.884 871.332 362.129 870.062C379.106 875.171 395.579 878.859 412.599 883.411C475.203 900.157 531.009 903.904 593.637 886.188C655.693 868.633 710.783 843.157 760.558 801.529C768.5 795.283 775.107 785.411 782.397 778.839C799.941 763.023 810.776 748.261 823.392 728.61C837.398 706.792 847.561 687.839 857.894 664.137Z" fill="#E3DFEB"/>
<path d="M207.222 646.867L208.837 648.029C208.708 650.22 208.723 650.484 208.035 652.529C204.569 660.512 201.407 670.194 201.418 679.007L201.016 679.015L200.469 679.205L200.468 680.711C199.244 681.605 199.959 681.309 198.042 681.076C198.267 678.847 198.539 679.78 197.637 678.085C198.523 668.182 203.663 656.057 207.222 646.867Z" fill="#FBF8CC"/>
<path d="M208.837 648.027L209.722 648.786C209.802 650.513 209.262 651.547 208.667 653.171L208.035 652.527C208.723 650.482 208.708 650.218 208.837 648.027Z" fill="#389594"/>
<path d="M227.32 647.16C236.641 652.12 245.49 656.351 255.367 660.174C261.933 662.89 288.285 673.861 293.241 678.548C288.228 676.544 283.755 673.481 278.899 671.534C272.16 668.831 264.441 664.809 257.565 662.69C256.232 661.731 249.953 659.3 248.119 658.736C243.426 655.911 233.312 651.615 227.517 648.551L227.32 647.16Z" fill="#08486A"/>
<path d="M215.469 648.344C223.382 654.32 236.925 662.923 246.294 666.348C249.782 668.262 252.266 669.322 255.964 670.857C270.669 678.599 287.01 683.224 302.117 692.513C305.433 698.82 309.95 705.907 313.808 711.965C332.73 743.208 350.015 774.075 376.036 800.37C378.397 802.755 395.011 818.11 395.004 819.342L394.165 820.121L393.667 819.809C393.667 819.453 393.667 819.097 393.668 818.742C386.811 813.746 380.293 807.773 374.428 801.644C353.255 779.517 335.299 754.558 320.213 727.939C317.596 723.322 314.783 718.328 311.904 713.901C308.353 707.295 304.057 701.212 300.468 694.519C296.797 693.166 290.541 689.874 286.712 688.095L257.156 674.538C245.283 668.86 223.507 658.204 215.469 648.344Z" fill="#10265B"/>
<path d="M208.035 652.527L208.667 653.171C206.837 660.528 203.988 671.504 203.684 678.939L203.289 680.293L201.418 679.005C201.407 670.192 204.569 660.51 208.035 652.527Z" fill="#073F87"/>
<path d="M248.117 658.734C249.951 659.298 256.23 661.729 257.563 662.688L256.771 663.146L255.884 662.898L255.802 663.614C255.577 665.488 255.244 667.033 254.693 668.828L255.212 669.585C255.834 670.504 255.63 670.118 255.963 670.856C252.265 669.321 249.781 668.261 246.293 666.347C249.132 665.878 248.704 667.621 250.872 666.935C252.065 664.942 253.144 663.656 252.309 661.377C250.957 660.673 249.934 660.225 248.527 659.633L248.117 658.734Z" fill="#98F5E1"/>
<path d="M767.672 699.809C780.851 694.783 788.079 681.053 795.077 669.414L796.13 670.073C790.683 680.538 788.15 684.228 780.642 693.759C777.59 696.67 774.072 699.328 770.193 701.065C743.043 713.217 713.362 720.736 684.182 726.162C681.501 726.66 679.132 726.933 676.402 726.844C698.715 720.708 721.499 716.231 743.442 708.443C751.288 705.658 760.174 703.433 767.672 699.809Z" fill="#123380"/>
<path d="M784.376 697.633C802.208 701.282 834.312 682.629 848.264 672.394C849.351 671.597 849.655 671.807 850.835 671.924C839.551 699.251 820.29 729.141 802.017 752.205C798.833 756.225 785.55 768.602 784.403 770.543C783.438 771.404 783.237 771.727 782.065 772.22C782.464 768.28 784.065 762.714 784.646 757.174C786.436 740.102 785.052 719.365 781.445 702.479C782.189 700.508 783.17 699.333 784.376 697.633Z" fill="#F1C0E8"/>
<path d="M255.216 703.621C255.929 695.043 252.274 682.11 257.156 674.539L286.712 688.096C290.541 689.875 296.797 693.167 300.468 694.52C304.057 701.213 308.353 707.296 311.904 713.902C306.172 716.447 264.815 705.298 255.518 703.837L255.216 703.621Z" fill="#CAE8F2"/>
<path d="M197.636 678.086C198.538 679.781 198.266 678.848 198.041 681.077C199.958 681.31 199.243 681.606 200.467 680.712L200.468 679.206L201.015 679.016C200.752 688.307 199.734 690.909 200.762 700.626C201.421 705.462 202.018 709.902 203.081 714.688C200.9 711.83 194.782 701.182 194.594 697.78C195.304 692.596 196.395 682.727 197.636 678.086Z" fill="#FBCB9C"/>
<path d="M201.016 679.016L201.418 679.008L203.289 680.296C202.763 684.756 202.487 688.216 202.305 692.702C202.203 695.223 202.298 697.649 201.459 699.991L200.763 700.626C199.735 690.909 200.753 688.307 201.016 679.016Z" fill="#123380"/>
<path d="M203.684 678.941C206.374 680.674 209.079 682.483 211.73 684.277C224.759 693.093 240.45 698.562 255.216 703.622L255.518 703.838C256.079 710.239 256.009 716.542 256.57 722.908C258.002 739.139 260.726 755.594 264.715 771.401C266.235 777.421 268.071 782.894 270.084 788.7C272.486 795.63 277.606 806.461 278.263 813.429C257.39 801.175 213.881 737.711 203.45 715.133C204.406 713.417 202.288 697.376 202.305 692.701C202.487 688.215 202.763 684.755 203.289 680.295L203.684 678.941Z" fill="#FBCB9C"/>
<path d="M200.762 700.623L201.458 699.988C202.297 697.646 202.202 695.22 202.304 692.699C202.287 697.374 204.405 713.415 203.449 715.131L203.081 714.685C202.018 709.899 201.421 705.459 200.762 700.623Z" fill="#10265B"/>
<path d="M315.296 709.75L310.145 699.891C312.921 702.859 315.523 707.569 317.778 711.138C335.208 739.846 354.079 766.487 377.465 790.695C383.668 797.116 397.337 808.708 401.225 815.897C372.168 794.564 333.551 740.945 315.296 709.75Z" fill="#10265B"/>
<path d="M255.52 703.836C264.817 705.297 306.174 716.446 311.906 713.901C314.785 718.328 317.598 723.322 320.215 727.939C335.301 754.558 353.257 779.517 374.43 801.644C380.295 807.773 386.813 813.746 393.67 818.742C393.669 819.097 393.669 819.453 393.669 819.809C384.198 825.745 375.029 829.912 364.794 834.384C358.824 836.993 350.858 839.864 345.463 843.206C343.515 842.933 341.673 842.709 339.75 842.263C317.542 837.037 297.095 826.113 278.265 813.427C277.608 806.459 272.488 795.628 270.086 788.698C268.073 782.892 266.237 777.419 264.717 771.399C260.728 755.592 258.004 739.137 256.572 722.906C256.011 716.54 256.081 710.237 255.52 703.836Z" fill="#98F5E1"/>
<path d="M315.296 709.75C333.551 740.945 372.168 794.564 401.225 815.897C403.129 816.72 403.62 817.43 405.134 818.932L405.882 818.732L406.566 819.371C409.41 820.878 412.286 821.723 415.461 822.249C420.702 823.407 437.269 827.336 441.746 827.534C443.535 827.863 445.695 828.327 447.468 828.521L446.996 833.896L446.334 834.016C437.071 831.539 426.301 830.259 416.821 826.917C414.47 826.088 405.998 822.28 404.779 822.334L403.419 822.079C400.912 822.43 401.129 822.393 399.669 824.66C397.403 825.082 393.086 828.315 390.998 829.738C383.208 835.045 375.144 839.112 366.677 843.165C362.36 845.231 352.926 845.901 349.623 848.183L347.546 848.796C347.411 847.458 347.248 846.433 347.03 845.117L346.614 844.739C360.117 838.936 384.143 829.714 394.166 820.122L395.005 819.343C395.012 818.111 378.398 802.756 376.037 800.371C350.016 774.076 332.731 743.209 313.809 711.966L315.296 709.75Z" fill="#98F5E1"/>
<path d="M317.777 711.137C320.574 712.142 322.634 713.122 325.534 714.063C331.342 715.948 337.69 717.011 343.421 718.713C371.211 731.236 402.825 752.25 423.553 774.648C436.057 788.159 444.818 807.444 446.053 825.931L443.368 825.814C434.214 824.682 424.832 822.984 415.725 821.411L406.565 819.37L405.881 818.731L405.133 818.931C403.619 817.429 403.128 816.719 401.224 815.896C397.336 808.707 383.667 797.115 377.464 790.694C354.078 766.486 335.207 739.845 317.777 711.137Z" fill="#98F5E1"/>
<path d="M780.462 721.606C780.762 719.693 780.728 716.551 780.769 714.523C782.387 730.534 785.002 766.822 775.544 780.33C774.369 781.794 772.269 784.703 770.809 785.621C772.825 781.016 775.271 775.86 776.635 771.08C778.8 764.874 779.166 761.003 779.853 754.392L780.278 750.383C781.268 745.131 780.486 728.056 780.462 721.606Z" fill="#E3DFEB"/>
<path d="M779.137 748.573C779.931 737.973 779.133 727.185 779.772 716.453C779.948 718.204 780.203 719.867 780.462 721.608C780.486 728.058 781.268 745.133 780.278 750.385L779.137 748.573Z" fill="#2A232D"/>
<path d="M624.18 752.777C625.303 751.245 626.926 748.639 628.478 747.816C628.168 749.629 625.891 752.151 624.648 753.686L624.18 752.777Z" fill="#CFBAF0"/>
<path d="M779.136 748.574L780.277 750.386L779.852 754.395C779.591 754.076 778.992 753.046 778.75 752.654L779.136 748.574Z" fill="#0D0C3D"/>
<path d="M631.434 754.04C632.224 752.815 633.255 750.882 634.422 750.223C633.807 752.34 633.242 753.256 632.205 755.235L631.434 754.04Z" fill="#123380"/>
<path d="M776.176 770.666C777.742 765.075 778.321 758.474 778.752 752.652C778.994 753.044 779.593 754.074 779.854 754.393C779.167 761.004 778.801 764.875 776.636 771.081L776.176 770.666Z" fill="#47465F"/>
<path d="M624.177 752.777L624.645 753.686C601.059 784.433 571.058 815.192 537.494 835.174C534.132 837.175 516.639 839.216 512.307 839.276C491.706 839.564 467.038 840.613 446.889 835.682L444.371 835.36L446.332 834.015L446.994 833.895C463.472 837.361 527.679 841.04 539.526 832.242C537.982 831.844 538.148 832.012 536.464 832.307L535.919 832.406L535.977 831.662C537.632 831.281 539.933 831.207 541.672 831.087C570.445 811.641 601.451 779.056 624.177 752.777Z" fill="#0F2384"/>
<path d="M560.387 826.077C579.84 810.63 618.947 774.545 631.433 754.039L632.204 755.234C622.976 775.78 580.822 814.491 561.629 826.615L560.387 826.077Z" fill="#0F2384"/>
<path d="M776.173 770.668L776.633 771.083C775.269 775.863 772.823 781.019 770.807 785.624C769.059 786.922 767.323 789.638 765.909 790.084L765.055 789.265C770.713 782.357 772.455 778.613 776.173 770.668Z" fill="#10265B"/>
<path d="M274.895 814.812C295.533 828.045 315.418 841.012 340.374 844.404L346.615 844.74L347.031 845.117C346.27 846.115 345.213 847.15 345.528 848.461C347.469 856.526 361.937 863.273 368.275 866.758L367.215 867.013C364.404 866.61 355.437 863.178 351.976 862.057C324.255 853.085 295.205 836.038 274.895 814.812Z" fill="#98F5E1"/>
<path d="M406.566 819.371L415.726 821.412L415.461 822.249C412.286 821.723 409.41 820.878 406.566 819.371Z" fill="#246970"/>
<path d="M345.459 843.206C350.854 839.864 358.82 836.993 364.79 834.384C375.025 829.912 384.194 825.745 393.665 819.809L394.163 820.121C384.14 829.713 360.114 838.935 346.611 844.738L340.37 844.403L340.643 843.331L339.746 842.263C341.669 842.709 343.511 842.933 345.459 843.206Z" fill="#10265B"/>
<path d="M415.726 821.41C424.833 822.983 434.215 824.681 443.369 825.813L445.533 826.861L445.392 827.222L441.746 827.532C437.269 827.334 420.702 823.405 415.461 822.247L415.726 821.41Z" fill="#10265B"/>
<path d="M399.67 824.659C401.13 822.392 400.913 822.429 403.42 822.078L404.78 822.333C412.782 828.457 434.073 833.179 444.374 835.36L446.892 835.682C444.283 850.537 432.503 861.592 421.359 870.727C419.219 872.481 413.303 877.229 411.915 879.17C401.757 877.418 376.312 870.553 367.215 867.011L368.275 866.756L368.617 866.654C368.062 865.5 360.881 860.845 359.22 859.604C354.419 856.016 351.42 853.358 347.547 848.795L349.624 848.182C367.163 846.568 386.971 836.709 399.67 824.659Z" fill="#98F5E1"/>
<path d="M404.777 822.333C405.996 822.279 414.468 826.087 416.819 826.916C426.299 830.258 437.069 831.538 446.332 834.015L444.371 835.36C434.07 833.179 412.779 828.457 404.777 822.333Z" fill="#10265B"/>
<path d="M399.667 824.66C386.968 836.71 367.16 846.569 349.621 848.183C352.924 845.901 362.358 845.231 366.675 843.165C375.142 839.112 383.206 835.045 390.996 829.738C393.084 828.315 397.401 825.082 399.667 824.66Z" fill="#10265B"/>
<path d="M443.369 825.816L446.054 825.933C467.883 827.05 489.256 829.425 511.102 830.858C515.817 831.167 533.66 831.236 535.979 831.664L535.921 832.408C530.405 832.97 526.18 833.868 520.336 833.864C496.137 833.847 471.502 830.923 447.468 828.522C445.695 828.328 443.535 827.864 441.746 827.535L445.392 827.225L445.533 826.864L443.369 825.816Z" fill="#0F2384"/>
<path d="M561.629 826.616C558.685 828.713 549.504 833.2 546.211 833.237C551.036 830.712 555.022 829.593 559.674 826.55L560.387 826.078L561.629 826.616Z" fill="#636293"/>
<path d="M447.468 828.52C471.502 830.921 496.137 833.845 520.336 833.862C526.18 833.866 530.405 832.968 535.921 832.406L536.466 832.307C538.15 832.012 537.984 831.844 539.528 832.242C527.681 841.04 463.474 837.361 446.996 833.895L447.468 828.52Z" fill="#F1C0E8"/>
<path d="M293.852 836.188C299.537 839.589 304.986 843.28 310.661 846.688C324.902 855.24 340.391 861.259 355.794 867.343C357.964 868.2 360.072 868.949 362.131 870.062C353.886 871.332 320.808 859.614 310.658 857.781L310.06 857.409C306.011 852.52 295.918 841.273 293.852 836.188Z" fill="#98F5E1"/>
<path d="M545.816 835.402C552.862 839.594 558.719 847.089 564.49 853.131C572.339 861.347 579.329 869.363 587.68 877.178L586.888 877.621C579.731 870.622 572.586 865.261 565.388 857.53C558.698 850.344 552.377 842.043 545.816 835.402Z" fill="#0F2384"/>
<path d="M590.369 882.06C587.449 881.518 566.482 867.198 562.754 864.468C557.439 860.575 545.749 850.794 543.389 844.072C542.793 842.373 542.394 839.779 542.105 837.871C548.568 855.864 575.355 869.357 589.772 881.55L590.369 882.06Z" fill="#0F2384"/>
<path d="M368.273 866.757C361.935 863.272 347.467 856.526 345.526 848.461C345.211 847.15 346.268 846.115 347.029 845.117C347.247 846.433 347.41 847.458 347.545 848.796C351.418 853.359 354.417 856.017 359.218 859.605C360.879 860.846 368.06 865.501 368.615 866.655L368.273 866.757Z" fill="#10265B"/>
<path d="M587.679 877.176L590.45 879.763L590.169 880.57C589.278 879.886 587.773 878.429 586.887 877.619L587.679 877.176Z" fill="#636293"/>
<defs>
<linearGradient id="paint0_linear_2264_34082" x1="600.702" y1="218.6" x2="595.657" y2="187.521" gradientUnits="userSpaceOnUse">
<stop stop-color="#00536C"/>
<stop offset="1" stop-color="#22308B"/>
</linearGradient>
<linearGradient id="paint1_linear_2264_34082" x1="526.323" y1="259.605" x2="521.766" y2="258.779" gradientUnits="userSpaceOnUse">
<stop stop-color="#212B5C"/>
<stop offset="1" stop-color="#00389A"/>
</linearGradient>
<linearGradient id="paint2_linear_2264_34082" x1="507.454" y1="261.74" x2="515.51" y2="262.331" gradientUnits="userSpaceOnUse">
<stop stop-color="#20255F"/>
<stop offset="1" stop-color="#11378E"/>
</linearGradient>
<linearGradient id="paint3_linear_2264_34082" x1="584.125" y1="368.483" x2="589.5" y2="362.44" gradientUnits="userSpaceOnUse">
<stop stop-color="#284967"/>
<stop offset="1" stop-color="#002376"/>
</linearGradient>
<linearGradient id="paint4_linear_2264_34082" x1="423.369" y1="355.78" x2="418.568" y2="347.063" gradientUnits="userSpaceOnUse">
<stop stop-color="#32366F"/>
<stop offset="1" stop-color="#002D93"/>
</linearGradient>
<linearGradient id="paint5_linear_2264_34082" x1="438.761" y1="368.451" x2="433.184" y2="357.515" gradientUnits="userSpaceOnUse">
<stop stop-color="#35316F"/>
<stop offset="1" stop-color="#002B95"/>
</linearGradient>
<linearGradient id="paint6_linear_2264_34082" x1="575.667" y1="385.919" x2="581.921" y2="378.337" gradientUnits="userSpaceOnUse">
<stop stop-color="#0E476C"/>
<stop offset="1" stop-color="#00267A"/>
</linearGradient>
<linearGradient id="paint7_linear_2264_34082" x1="206.921" y1="423.754" x2="198.752" y2="418.49" gradientUnits="userSpaceOnUse">
<stop stop-color="#463C4F"/>
<stop offset="1" stop-color="#0D2983"/>
</linearGradient>
<linearGradient id="paint8_linear_2264_34082" x1="216.099" y1="413.894" x2="211.55" y2="410.885" gradientUnits="userSpaceOnUse">
<stop stop-color="#3E4A7A"/>
<stop offset="1" stop-color="#092980"/>
</linearGradient>
<linearGradient id="paint9_linear_2264_34082" x1="806.366" y1="483.818" x2="814.525" y2="479.834" gradientUnits="userSpaceOnUse">
<stop stop-color="#0B475D"/>
<stop offset="1" stop-color="#003F78"/>
</linearGradient>
<linearGradient id="paint10_linear_2264_34082" x1="365.423" y1="505.1" x2="359.533" y2="506.43" gradientUnits="userSpaceOnUse">
<stop stop-color="#0E426C"/>
<stop offset="1" stop-color="#002C72"/>
</linearGradient>
<linearGradient id="paint11_linear_2264_34082" x1="590.84" y1="516.429" x2="595.755" y2="518.622" gradientUnits="userSpaceOnUse">
<stop stop-color="#124573"/>
<stop offset="1" stop-color="#002177"/>
</linearGradient>
<linearGradient id="paint12_linear_2264_34082" x1="157.166" y1="587.504" x2="197.419" y2="582.914" gradientUnits="userSpaceOnUse">
<stop stop-color="#FFC797"/>
<stop offset="1" stop-color="#E8E1B3"/>
</linearGradient>
<linearGradient id="paint13_linear_2264_34082" x1="351.83" y1="629.91" x2="345.697" y2="625.709" gradientUnits="userSpaceOnUse">
<stop stop-color="#0E467C"/>
<stop offset="1" stop-color="#002387"/>
</linearGradient>
</defs>
</svg>
