<svg width="1024" height="1024" viewBox="0 0 1024 1024" fill="none" xmlns="http://www.w3.org/2000/svg">
<path d="M562.385 63.694C561.68 64.0861 560.819 64.0693 560.131 63.6501C559.442 63.2309 559.032 62.4738 559.056 61.668C559.081 60.8621 559.537 60.1316 560.25 59.7554C561.336 59.1826 562.68 59.5901 563.265 60.6692C563.85 61.7483 563.457 63.0972 562.385 63.694Z" fill="#FEF9FD"/>
<path d="M663.785 62.0148C667.384 61.1565 675.408 60.5866 678.975 61.789L678.846 62.086L679.179 61.9603L678.423 61.704L677.758 62.2861C675.164 62.6856 673.595 62.9619 670.941 63.0115C668.196 61.2277 667.729 63.4003 663.785 62.0148Z" fill="#9180C0"/>
<path d="M621.207 89.1819C631.862 75.3028 645.824 63.9511 663.785 62.0117C667.729 63.3972 668.196 61.2246 670.941 63.0084C652.615 66.3672 635.935 73.2564 625.1 89.3987C610.148 108.722 600.646 133.943 603.248 158.776C603.477 160.965 604.182 163.22 603.712 165.278L602.992 165.571C599.456 163.065 600.137 148.353 600.265 144.325C600.907 124.059 610.235 105.776 621.207 89.1819Z" fill="#6D53F9"/>
<path d="M771.868 105.937C768.436 91.6938 764.931 82.822 752.059 74.1672C746.441 70.3891 735.163 68.5833 733.656 67.183C734.355 65.7002 733.86 66.3567 735.425 65.3512C738.082 65.0767 740.71 65.9839 743.295 66.6107C762.848 71.3513 772.909 90.4615 775.666 108.868C776.096 112.059 777.965 120.303 774.403 121.438L773.573 120.926C772.959 118.649 772.4 109.531 771.868 105.937Z" fill="#6D53F9"/>
<path d="M642.446 85.2916C667.613 70.3698 717.032 64.1458 739.13 87.6665C741.226 89.898 743.323 93.0945 745.109 95.6398C765.142 136.572 745.717 187.433 700.825 200.747C697.871 201.623 687.204 202.791 684.855 201.353C685.783 199.631 688.898 199.812 690.81 199.599C737.845 194.363 765.396 135.928 741.429 95.8014C735.094 85.7588 723.05 78.4601 711.493 76.5411C668.347 69.3766 624.004 85.5559 617.15 133.55C616.41 138.732 616.947 145.618 616.036 150.293L615.58 150.504C614.431 147.293 614.734 134.213 615.298 130.362C618.325 109.678 626.718 97.7273 642.446 85.2916Z" fill="#6D53F9"/>
<path d="M625.101 89.3981C629.159 90.6367 636.187 85.0527 642.446 85.2882C626.718 97.7239 618.325 109.674 615.298 130.358C614.734 134.209 614.431 147.289 615.58 150.5L616.036 150.289C616.947 145.614 616.41 138.728 617.15 133.546C624.004 85.5525 668.347 69.3732 711.493 76.5377C723.05 78.4567 735.094 85.7554 741.429 95.798C765.396 135.924 737.845 194.359 690.81 199.595C688.898 199.808 685.783 199.627 684.855 201.349C687.204 202.787 697.871 201.619 700.825 200.743C745.717 187.429 765.142 136.568 745.109 95.6364C749.704 96.4542 750.946 97.2633 754.967 98.6603C759.396 100.199 768.073 106.159 771.871 105.937C772.403 109.531 772.962 118.649 773.576 120.926L774.406 121.438C777.968 120.303 776.099 112.059 775.669 108.868C802.003 121.25 819.79 151.941 829.401 178.506C844.496 220.228 845.364 266.512 834.724 309.404C832.203 319.568 828.393 328.499 825.369 338.269L825.189 338.505C765.266 345.773 745.223 407.365 737.18 459.133C736.498 463.525 735.178 471.863 735.514 476.126L735.52 476.45C713.664 502.469 701.509 523.277 686.337 553.64C667.884 590.571 655.262 625.057 643.65 664.447C640.547 667.523 635.13 670.065 631.832 673.361C630.698 667.903 628.982 662.533 627.938 657.071C623.592 634.313 619.339 611.48 615.906 588.566C615.43 585.385 615.056 582.075 613.772 579.11C618.973 560.408 623.023 541.795 619.503 522.15C619.233 520.641 616.156 514.871 616.195 513.964C616.452 507.937 615.207 503.313 613.294 497.599C606.771 476.417 593.066 458.534 584.108 438.376C577.999 424.628 573.928 410.411 568.899 396.271C561.312 375.717 550.988 354.137 539.431 335.495C537.579 332.507 534.608 327.583 532.52 325.1C531.427 324.091 531.64 324.576 531.237 323.312C538.731 319.038 546.465 311.448 553.591 306.389C558.381 306.866 571.91 300.583 577.329 298.624C617.175 284.218 719.194 240.249 756.59 255.022C761.716 257.046 765.485 260.254 767.585 265.426C774.079 281.42 766.912 303.027 760.557 317.9C750.372 341.736 725.033 371.463 704.19 387.13C696.224 393.118 687.488 397.856 678.759 402.606C674.058 405.163 669.935 407.832 664.938 409.853C662.249 410.94 658.945 412.16 657.754 414.988C657.943 416.142 658.218 416.933 659.198 417.683C660.192 418.444 661.523 418.221 662.656 417.937C667.293 416.772 678.514 410.291 683.133 407.644C690.634 403.345 698.261 398.997 705.278 393.93C727.493 377.885 747.398 355.214 760.842 331.402C770.71 313.924 780.905 287.693 775.087 267.362C773.026 260.158 769.227 254.125 762.469 250.453C729.531 232.559 644.43 266.185 611.29 278.968C595.986 284.871 580.66 291.697 564.961 296.453C563.684 291.439 558.379 282.641 555.925 277.319C560.873 274.6 567.454 271.159 572.106 268.137C589.95 256.547 607.172 239.17 618.065 220.774C625.876 207.582 627.689 201.453 639.391 189.826C652.862 176.442 675.021 173.884 683.889 157.336C686.737 151.121 688.892 143.14 682.672 138.12C679.329 135.422 679.507 132.022 678.485 130.743C675.404 126.887 670.132 121.989 665.602 120.105C657.536 123.62 654.414 118.189 644.652 124.5C629.962 133.998 627.918 144.599 626.49 160.959C626.177 164.553 622.377 169.004 619.72 171.333C598.974 189.507 574.909 204.19 556.359 224.86C546.877 235.426 543.513 238.455 531.092 244.345C513.411 252.729 496.414 263.083 479.952 273.604C479.154 273.006 478.994 272.52 477.555 272.951C466.748 276.183 456.176 280.691 445.255 283.736C445.516 283.663 443.173 286.252 443.107 286.32L442.234 284.285C442.57 279.74 444.488 273.093 445.705 268.474C466.238 190.536 526.601 117.798 604.971 93.9418C610.04 92.3987 616.141 90.1967 621.208 89.1813C610.236 105.775 600.908 124.058 600.266 144.324C600.138 148.352 599.457 163.064 602.993 165.57L603.713 165.277C604.183 163.219 603.478 160.964 603.249 158.775C600.647 133.942 610.149 108.721 625.101 89.3981ZM693.113 85.2036C676.367 86.2722 648.836 94.0533 639.611 109.355C655.933 94.6615 674.255 88.1212 696.213 88.4644C730.782 89.0047 742.842 125.155 730.505 153.336C724.752 164.693 718.21 173.145 707.399 180.105C704.461 181.996 698.155 185.721 695.811 187.867C710.28 183.936 722.743 173.341 730.179 160.528C748.915 128.245 734.856 84.1909 693.113 85.2036ZM753.353 159.602C750.374 166.838 747.667 172.865 742.94 179.103C723.343 204.968 689.225 221.619 657.504 208.266C655.739 207.523 650.8 205.059 649.243 205.011C649.609 206.322 649.865 206.309 650.948 207.228C684.165 228.331 728.317 207.847 747.895 177.025C750.377 173.118 755.053 165.257 754.934 160.561C754.154 159.721 754.491 159.934 753.353 159.602ZM729.563 207.003C720.089 212.661 711.079 218.221 700.5 221.476C682.929 226.883 663.86 225.107 647.12 217.787C645.218 216.955 641.302 214.402 639.708 214.783C639.858 216.595 640.125 216.755 641.721 217.869C661.269 228.303 679.052 231.153 700.709 224.752C707.73 222.677 726.912 213.871 730.591 208.456C730.266 207.284 730.544 207.8 729.563 207.003ZM668.312 462.325C665.796 463.129 664.412 465.824 665.226 468.337C666.039 470.85 668.74 472.223 671.249 471.4C673.745 470.581 675.109 467.898 674.3 465.399C673.491 462.9 670.814 461.526 668.312 462.325Z" fill="url(#paint0_linear_2264_37439)"/>
<path d="M639.609 109.356C648.834 94.0544 676.365 86.2732 693.111 85.2046C734.854 84.1919 748.913 128.246 730.177 160.529C722.741 173.342 710.278 183.937 695.809 187.868C698.153 185.722 704.459 181.997 707.397 180.106C718.208 173.146 724.75 164.694 730.503 153.337C742.84 125.156 730.78 89.0058 696.211 88.4655C674.253 88.1223 655.931 94.6626 639.609 109.356Z" fill="#6D53F9"/>
<path d="M487.16 106.344C481.616 105.088 480.373 101.14 485.102 97.3281C490.903 98.5266 490.974 102.559 487.16 106.344Z" fill="#FEF9FD"/>
<path d="M335.537 258.101C331.875 257.536 324.241 256.814 323.929 251.985C323.61 244.19 328.821 233.453 333.651 227.511C354.949 201.315 395.587 194.639 422.537 215.735C433.593 226.862 436.428 234.842 437.156 250.378C437.522 258.196 431.113 283.16 438.044 287.001C443.033 289.515 451.158 289.039 456.792 288.982C463.218 288.116 467.64 287.475 474.158 287.439C477.925 287.846 481.77 288.222 485.518 288.728C496.447 292.15 501.622 295.697 511.045 302.308C513.545 304.679 516.115 307.19 518.705 309.441C520.765 311.803 522.654 313.813 524.839 316.062L528.029 319.439C531.154 318.523 532.049 318.234 534.739 316.465C537.248 314.811 540.976 312.024 543.114 309.986L547.27 306.552C550.809 303.884 554.675 301.196 558.281 298.58C559.498 297.472 559.693 297.439 560.404 295.918C560.092 293.797 554.761 283.434 553.482 280.582C550.528 273.997 549.25 268.058 546.722 261.343C544.386 254.109 542.326 250.393 537.414 244.71C535.606 245.62 535.036 246.038 533.383 247.245L529.852 249.226C521.356 253.379 511.026 258.247 503.251 263.492L498.483 266.293C495.146 268.228 490.964 270.677 487.879 273.014L484.513 275.073C481.616 276.853 477.791 279.047 475.048 280.916C472.509 282.212 467.109 284.842 464.92 286.454C462.622 287.117 460.313 287.713 457.927 287.069C459.384 283.886 475.099 276.864 479.949 273.604C496.411 263.083 513.408 252.729 531.089 244.345C543.51 238.455 546.874 235.426 556.356 224.86C574.906 204.19 598.971 189.507 619.717 171.333C622.374 169.004 626.174 164.553 626.487 160.959C627.915 144.599 629.959 133.998 644.649 124.5C654.411 118.189 657.533 123.62 665.599 120.105C670.129 121.989 675.401 126.887 678.482 130.743C679.504 132.022 679.326 135.422 682.669 138.12C688.889 143.14 686.734 151.121 683.886 157.336C675.018 173.884 652.859 176.442 639.388 189.826C627.686 201.453 625.873 207.582 618.062 220.774C607.169 239.17 589.947 256.547 572.103 268.137C567.451 271.159 560.87 274.6 555.922 277.319C558.376 282.641 563.681 291.439 564.958 296.453C562.269 300.389 557.296 303.279 553.588 306.389C546.462 311.448 538.728 319.038 531.234 323.312C531.637 324.576 531.424 324.091 532.517 325.1C530.925 326.358 530.663 326.491 529.53 328.122L528.093 326.789L527.357 325.412C525.696 323.154 523.955 320.894 522.26 318.654C519.644 315.7 517.458 313.345 514.652 310.58C507.332 303.528 503.511 301.097 494.529 296.054L490.536 294.149C477.806 289.441 460.491 292.256 446.543 292.775C446.154 297.748 445.682 306.506 444.742 311.124C444.38 312.266 443.748 314.483 443.253 315.452L443.402 316.324C441.203 323.901 438.478 329.108 434.407 335.946L429.014 343.842C426.864 346.428 422.761 351.726 420.6 353.885C418.547 355.39 416.898 357.225 415.113 359.05C413.084 361.09 410.429 363.915 408.342 365.777L407.778 366.494L401.255 371.848L396.138 376.072C394.111 377.717 391.634 379.6 389.82 381.421C388.076 383.081 385.922 384.867 384.763 386.904L384.989 387.81L384.892 388.387L383.708 388.203C383.12 389.272 383.132 389.336 382.825 390.53L382.196 389.822C379.762 391.372 376.925 395.053 374.31 397.099C361.051 407.468 347.737 418.665 330.046 419.175C304.771 419.903 279.289 416.547 254.514 411.863C251.655 411.313 237.939 407.658 236.249 406.693C227.685 401.805 218.127 393.573 210.329 387.409C208.319 385.821 204.407 382.266 202.116 383.194C201.392 389.029 213.599 395.106 213.598 399.133C206.151 404.838 170.064 397.728 159.662 399.927C158.345 400.206 155.704 403.043 154.739 404.205C152.977 403.919 153.646 404.338 152.598 403.023C151.971 397.039 157.676 396.713 161.915 396.365C176.53 395.167 193.926 399.696 208.105 396.7C204.69 393.73 195.448 385.915 198.666 380.838C207.761 374.289 225.918 398.578 236.223 402.545C259.68 411.574 284.179 413.17 308.868 415.231C311.662 415.385 314.044 415.519 316.861 415.454C329.58 416.206 337.217 415.662 348.904 410.803C341.232 407.525 336.44 402.388 333.079 401.015C331.995 400.237 331.585 399.511 330.741 398.442L331.52 396.263C332.946 396.594 334.137 396.828 335.513 397.358C339.474 401.804 343.644 404.583 349.124 406.804C350.07 407.301 351.967 407.877 353.05 408.25C356.213 406.329 358.278 404.927 361.255 402.723L366.886 398.606C370.15 396.356 371.687 395.147 374.637 392.499L378.219 388.976L381.218 385.122C382.753 383.36 385.629 380.645 387.36 378.903L390.86 375.702C392.109 374.503 393.621 373.432 395.015 372.382C396.42 371.43 397.77 370.317 399.103 369.26C401.873 367.47 408.64 360.813 411.037 358.42L417.024 351.939C409.433 350.99 405.442 348.002 400.117 343.025C397.278 339.418 396.649 338.352 394.372 334.332C394.3 333.952 393.402 331.514 393.22 330.993L392.22 327.502C387.372 329.641 384.241 330.837 379.074 332.156L375.913 332.744L374.899 333.136C373.25 333.327 372.488 332.879 370.934 332.301C358.413 328.2 352.526 317.9 348.009 306.241C347.091 303.872 346.063 303.987 343.919 303.189C335.82 298.357 342.277 288.999 341.171 281.029C340.078 273.146 337.604 265.769 335.537 258.101ZM442.644 295.166C442.602 294.58 442.666 292.874 442.193 292.676C433.073 288.863 426.552 284.97 419.273 278.071C415.781 282.903 410.643 288.782 403.924 286.704L403.151 285.987C403.457 284.945 403.42 284.92 404.603 284.467C413.903 280.907 420.723 276.985 414.542 266.287C413.298 264.133 412.726 262.82 410.228 261.748C405.57 262.28 405.916 266.576 402.69 268.142C397.771 266.215 393.198 242.243 392.28 236.687C374.432 247.53 360.036 257.751 338.62 258.495C340.966 266.038 344.382 274.458 344.557 282.336C344.614 284.911 344.048 289.807 343.642 292.458C342.482 300.037 343.543 299.772 350.897 300.102C351.654 310.396 355.033 316.503 362.482 323.656C373.656 334.384 391.254 325.634 400.585 316.706C403.177 314.226 406.881 308.918 410.104 307.904L410.591 308.564C407.988 315.783 400.926 321.083 395.05 325.772C395.96 329.368 396.258 330.493 397.955 333.928C402.066 342.295 410.819 347.173 419.678 348.967C428.535 338.681 435.615 329.494 439.528 316.134L440.565 313.522C440.54 313.037 440.912 310.833 441.003 310.217C441.432 307.877 441.707 305.031 442.006 302.632C442.31 300.253 442.458 297.579 442.644 295.166ZM653.825 123.49C645.249 126.912 637.413 132.832 633.46 141.382C629.445 149.868 632.681 161.177 626.745 168.915C622.273 174.745 615.112 180.619 609.058 184.802C596.941 193.175 585.959 203.093 574.527 212.098C564.5 219.996 551.397 238.253 540.987 243.596C550.04 253.753 549.967 261.72 554.626 273.638C566.352 268.736 579.785 258.887 589.344 250.306C597.752 242.208 606.007 233.381 612.196 223.541C616.247 217.098 619.975 209.673 623.706 203.195C633.196 186.721 646.797 178.521 663.497 170.721C671.904 166.795 682.609 157.632 682.719 147.677C682.826 144.495 681.943 139.979 678.594 138.698C674.192 144.014 678.43 164.774 661.236 164.963C651.694 165.068 644.921 162.034 643.111 151.804C641.535 143.305 658.162 128.522 658.09 124.137C656.852 123.254 655.398 123.437 653.825 123.49ZM664.184 123.855C658.545 128.442 647.67 142.937 646.129 150.317C645.121 155.143 648.656 158.699 652.819 160.836L654.027 160.84C659.332 147.353 663.223 139.702 669.764 126.978C668.629 124.795 666.51 124.068 664.184 123.855ZM671.345 129.756C666.11 136.309 658.045 152.368 655.704 160.673C655.246 162.299 660.114 162.03 661.093 162.028L663.82 161.461C664.632 158.814 662.856 157.483 664.1 153.324C665.81 147.611 676.004 135.984 674.139 130.94C672.832 129.962 672.945 129.938 671.345 129.756ZM674.583 138.343C670.964 143.035 662.249 154.987 665.775 160.9C667.524 160.74 668.805 160.307 669.993 158.869C672.435 155.912 675.883 141.285 674.583 138.343ZM379.254 207.191C361.932 208.955 348.197 215.858 336.601 229.374C332.267 234.426 327.396 243.914 327.117 250.931C327.077 251.932 327.944 252.984 328.7 253.364C334.395 256.231 348.541 254.617 354.205 252.836C364.57 249.577 374.58 243.22 383.868 237.716C387.169 235.76 391.889 232.579 395.141 231.316C395.736 236.283 396.686 243.202 397.928 248.107C399.359 253.57 400.476 257.155 402.795 262.332C415.013 252.045 417.317 265.138 421.181 274.224C422.846 278.139 428.506 281.239 432.115 283.446C429.77 273.612 432.663 265.784 433.65 255.744C435.355 238.396 429.346 223.723 414.496 214.184C405.139 208.173 389.971 205.334 379.254 207.191Z" fill="#43372C"/>
<path d="M540.988 243.6C551.398 238.257 564.501 220 574.528 212.102C585.96 203.097 596.942 193.179 609.059 184.806C615.113 180.623 622.274 174.749 626.746 168.919C632.682 161.181 629.446 149.872 633.461 141.386C637.414 132.836 645.25 126.916 653.826 123.494C655.399 123.441 656.853 123.258 658.091 124.141C658.163 128.526 641.536 143.309 643.112 151.808C644.922 162.038 651.695 165.072 661.237 164.967C678.431 164.778 674.193 144.018 678.595 138.702C681.944 139.983 682.827 144.499 682.72 147.681C682.61 157.636 671.905 166.799 663.498 170.725C646.798 178.525 633.197 186.725 623.707 203.199C619.976 209.677 616.248 217.102 612.197 223.545C606.008 233.385 597.753 242.212 589.345 250.31C579.786 258.891 566.353 268.74 554.627 273.642C549.968 261.724 550.041 253.757 540.988 243.6Z" fill="#F1C0E8"/>
<path d="M652.821 160.836C648.658 158.699 645.123 155.143 646.131 150.317C647.672 142.937 658.547 128.442 664.186 123.855C666.512 124.068 668.631 124.795 669.766 126.978C663.225 139.702 659.334 147.353 654.029 160.84L652.821 160.836ZM663.24 129.758C659.391 134.977 649.295 147.93 649.378 154.024C650.036 155.409 649.571 155.1 650.603 155.712C653.06 143.723 663.35 133.889 664.146 130.215L663.24 129.758Z" fill="#F1C0E8"/>
<path d="M422.538 215.739C395.588 194.643 354.95 201.319 333.652 227.515C328.822 233.457 323.611 244.194 323.93 251.989C324.242 256.818 331.876 257.54 335.538 258.105C337.605 265.773 340.079 273.15 341.172 281.033C342.278 289.003 335.821 298.361 343.92 303.193C337.189 307.456 328.295 309.877 320.472 311.977C273.396 324.61 214.446 329.799 170.421 304.957C160.845 299.301 149.317 289.949 147.112 278.313C137.434 227.234 182.329 196.611 219.55 173.253C249.473 154.475 276.571 138.206 311.082 129.812C355.373 119.04 414.806 124.194 428.408 176.285C431.377 187.876 429.034 205.528 422.538 215.739Z" fill="#FBF8CC"/>
<path d="M650.604 155.716C649.572 155.104 650.037 155.413 649.379 154.028C649.296 147.934 659.392 134.981 663.241 129.762L664.147 130.219C663.351 133.893 653.061 143.727 650.604 155.716Z" fill="#592623"/>
<path d="M661.095 162.03C660.116 162.032 655.248 162.301 655.706 160.675C658.047 152.37 666.112 136.311 671.347 129.758C672.947 129.94 672.834 129.964 674.141 130.942C676.006 135.986 665.812 147.613 664.102 153.326C662.858 157.485 664.634 158.816 663.822 161.463L661.095 162.03Z" fill="#F1C0E8"/>
<path d="M665.777 160.901C662.251 154.988 670.966 143.036 674.585 138.344C675.885 141.286 672.437 155.913 669.995 158.87C668.807 160.308 667.526 160.741 665.777 160.901Z" fill="#F1C0E8"/>
<path d="M474.204 151.796C472.659 152.444 470.881 151.728 470.217 150.19C469.552 148.653 470.249 146.867 471.779 146.186C472.784 145.739 473.951 145.866 474.836 146.519C475.72 147.172 476.186 148.25 476.055 149.341C475.925 150.433 475.218 151.37 474.204 151.796Z" fill="#FEF9FD"/>
<path d="M650.947 207.231C649.864 206.312 649.608 206.325 649.242 205.014C650.799 205.062 655.738 207.526 657.503 208.269C689.224 221.622 723.342 204.971 742.939 179.106C747.666 172.868 750.373 166.841 753.352 159.605C754.49 159.937 754.153 159.724 754.933 160.564C755.052 165.26 750.376 173.121 747.894 177.028C728.316 207.85 684.164 228.334 650.947 207.231Z" fill="#6D53F9"/>
<path d="M395.143 231.317C391.891 232.58 387.171 235.761 383.87 237.717C374.582 243.221 364.572 249.578 354.207 252.837C348.543 254.618 334.397 256.232 328.702 253.365C327.946 252.985 327.079 251.933 327.119 250.932C327.398 243.915 332.269 234.427 336.603 229.375C348.199 215.859 361.934 208.956 379.256 207.192C389.973 205.335 405.141 208.174 414.498 214.185C429.348 223.724 435.357 238.397 433.652 255.745C432.665 265.785 429.772 273.613 432.117 283.447C428.508 281.24 422.848 278.14 421.183 274.225C417.319 265.139 415.015 252.046 402.797 262.333C400.478 257.156 399.361 253.571 397.93 248.108C396.688 243.203 395.738 236.284 395.143 231.317Z" fill="#FBF8CC"/>
<path d="M641.72 217.87C640.124 216.756 639.857 216.596 639.707 214.784C641.301 214.403 645.217 216.956 647.119 217.788C663.859 225.108 682.928 226.884 700.499 221.477C711.078 218.222 720.088 212.662 729.562 207.004C730.543 207.801 730.265 207.285 730.59 208.457C726.911 213.872 707.729 222.678 700.708 224.753C679.051 231.154 661.268 228.304 641.72 217.87Z" fill="#6D53F9"/>
<path d="M442.645 295.167C439.563 295.841 438.194 296.583 436.217 299.059C436.074 299.649 435.859 300.42 435.775 301.001C435.353 302.296 435.302 302.614 434.617 303.77C433.761 305.779 432.947 307.844 431.901 309.755L430.53 313.858C427.327 321.073 421.248 331.332 413.615 334.275C407.695 336.557 403.724 335.296 397.956 333.928C396.259 330.493 395.961 329.368 395.051 325.772C400.927 321.083 407.989 315.784 410.592 308.565L410.105 307.905C406.882 308.919 403.178 314.227 400.586 316.707C391.255 325.635 373.657 334.384 362.483 323.656C355.034 316.503 351.655 310.397 350.898 300.103C343.544 299.773 342.483 300.037 343.643 292.458C344.049 289.807 344.615 284.912 344.558 282.337C344.383 274.459 340.967 266.039 338.621 258.496C360.037 257.752 374.433 247.531 392.281 236.688C393.199 242.244 397.772 266.216 402.691 268.143C405.917 266.577 405.571 262.281 410.229 261.749C412.727 262.821 413.299 264.134 414.543 266.288C420.724 276.986 413.904 280.907 404.604 284.467C403.421 284.92 403.458 284.946 403.152 285.988L403.925 286.704C410.644 288.782 415.782 282.904 419.274 278.072C426.553 284.971 433.074 288.864 442.194 292.677C442.667 292.875 442.603 294.581 442.645 295.167Z" fill="#FBF8CC"/>
<path d="M533.387 247.246C535.04 246.039 535.61 245.621 537.418 244.711C542.33 250.394 544.39 254.11 546.726 261.344C544.636 259.912 541.108 254.073 538.98 251.898C537.047 249.921 535.587 248.888 533.387 247.246Z" fill="#B9FBC0"/>
<path d="M564.96 296.454C580.659 291.698 595.985 284.872 611.289 278.969C644.429 266.186 729.53 232.56 762.468 250.454C769.226 254.126 773.025 260.159 775.086 267.363C780.904 287.694 770.709 313.925 760.841 331.403C747.397 355.215 727.492 377.886 705.277 393.931C698.26 398.998 690.633 403.346 683.132 407.645C678.513 410.292 667.292 416.773 662.655 417.938C661.522 418.222 660.191 418.445 659.197 417.684C658.217 416.934 657.942 416.143 657.753 414.989C658.944 412.161 662.248 410.941 664.937 409.854C669.934 407.833 674.057 405.164 678.758 402.607C687.487 397.857 696.223 393.119 704.189 387.131C725.032 371.464 750.371 341.737 760.556 317.901C766.911 303.028 774.078 281.421 767.584 265.427C765.484 260.255 761.715 257.047 756.589 255.023C719.193 240.25 617.174 284.219 577.328 298.625C571.909 300.584 558.38 306.867 553.59 306.39C557.298 303.28 562.271 300.39 564.96 296.454Z" fill="#FEF9FD"/>
<path d="M529.855 249.227L533.386 247.246C535.586 248.888 537.046 249.921 538.979 251.898C541.107 254.073 544.635 259.912 546.725 261.344C549.253 268.059 550.531 273.998 553.485 280.583C554.764 283.435 560.095 293.798 560.407 295.919C559.696 297.44 559.501 297.473 558.284 298.581C552.444 288.212 550.014 276.144 543.257 264.897C539.358 258.409 531.181 252.09 529.855 249.227Z" fill="#FEF9FD"/>
<path d="M503.254 263.493C511.029 258.248 521.359 253.38 529.855 249.227C531.181 252.09 539.358 258.409 543.257 264.897C550.014 276.144 552.444 288.212 558.284 298.581C554.678 301.197 550.812 303.885 547.273 306.553C547.396 305.119 547.78 300.88 547.514 299.611C544.783 287.212 538.475 274.973 530.563 265.071C528.461 262.44 523.33 256.404 519.762 255.714C518.349 255.441 517.527 256.957 516.884 258.028C517.276 258.904 523.569 264.29 525.224 265.971C533.895 274.784 540.399 290.162 542.661 302.223C543.146 304.809 542.848 307.568 543.117 309.987C540.979 312.025 537.251 314.812 534.742 316.466C535.935 312.348 535.245 309.191 533.992 305.033C527.973 285.055 521.26 273.752 503.254 263.493Z" fill="#B9FBC0"/>
<path d="M543.116 309.989C542.847 307.57 543.145 304.811 542.66 302.225C540.398 290.164 533.894 274.786 525.223 265.973C523.568 264.292 517.275 258.906 516.883 258.03C517.526 256.959 518.348 255.443 519.761 255.716C523.329 256.406 528.46 262.442 530.562 265.073C538.474 274.975 544.782 287.214 547.513 299.613C547.779 300.882 547.395 305.121 547.272 306.555L543.116 309.989Z" fill="#FEF9FD"/>
<path d="M498.484 266.293L503.252 263.492C521.258 273.751 527.971 285.054 533.99 305.032C535.243 309.19 535.933 312.347 534.74 316.465C532.05 318.234 531.155 318.523 528.03 319.439L524.84 316.062C526.256 315.021 527.635 313.986 529.029 312.914C532.677 303.856 517.899 279.01 510.167 273.55C506.686 271.092 501.308 268.752 498.484 266.293Z" fill="#FEF9FD"/>
<path d="M487.883 273.018C490.968 270.681 495.15 268.232 498.487 266.297C501.311 268.756 506.689 271.096 510.17 273.554C517.902 279.014 532.68 303.86 529.032 312.918C527.638 313.99 526.259 315.025 524.843 316.066C522.658 313.817 520.769 311.807 518.709 309.445C518.618 308.887 518.499 308.116 518.301 307.586C512.237 291.381 503.207 280.633 487.883 273.018Z" fill="#B9FBC0"/>
<path d="M479.952 273.606C475.102 276.866 459.387 283.889 457.93 287.072C457.508 288.632 457.929 288.049 456.795 288.985C451.161 289.042 443.036 289.517 438.047 287.003L438.391 286.482C439.998 287.138 440.18 287.473 441.746 287.283C442.508 283.857 440.557 284.799 441.751 282.313L442.234 284.287L443.107 286.322C443.173 286.254 445.516 283.666 445.255 283.739C456.176 280.694 466.748 276.186 477.555 272.954C478.994 272.523 479.154 273.008 479.952 273.606Z" fill="#FEF9FD"/>
<path d="M484.516 275.075L487.882 273.016C503.206 280.631 512.236 291.379 518.3 307.584C518.498 308.114 518.617 308.885 518.708 309.443C516.118 307.192 513.548 304.681 511.048 302.31C508.89 294.123 499.982 285.74 493.009 281.46C490.382 279.847 486.15 277.434 484.516 275.075Z" fill="#FEF9FD"/>
<path d="M475.051 280.917C477.794 279.048 481.619 276.854 484.516 275.074C486.15 277.433 490.382 279.846 493.009 281.459C499.982 285.739 508.89 294.122 511.048 302.309C501.625 295.698 496.45 292.151 485.521 288.729L485.694 287.911C482.056 284.871 479.314 282.917 475.051 280.917Z" fill="#B9FBC0"/>
<path d="M464.922 286.456C467.111 284.844 472.511 282.214 475.05 280.918C479.313 282.918 482.055 284.872 485.693 287.912L485.52 288.73C481.772 288.224 477.927 287.848 474.16 287.441C471.524 286.672 468.471 287.22 464.922 286.456Z" fill="#FEF9FD"/>
<path d="M457.928 287.072C460.314 287.716 462.623 287.12 464.921 286.457C468.47 287.221 471.523 286.673 474.159 287.442C467.641 287.478 463.219 288.119 456.793 288.985C457.927 288.049 457.506 288.632 457.928 287.072Z" fill="#E6DFD5"/>
<path d="M446.544 292.776C460.492 292.257 477.807 289.442 490.537 294.15C479.931 316.642 467.126 320.967 443.976 327.295C445.475 323.474 449.607 320.63 449.236 317.752C447.591 315.909 445.668 315.805 443.254 315.453C443.749 314.484 444.381 312.267 444.743 311.125C446.11 313.424 447.845 314.706 449.854 316.487C450.372 310.263 450.76 299.931 450.379 293.726C449.387 292.759 448.296 292.985 446.544 292.776Z" fill="#B9FBC0"/>
<path d="M444.742 311.126C445.682 306.508 446.154 297.75 446.543 292.777C448.295 292.986 449.386 292.76 450.378 293.727C450.759 299.932 450.371 310.264 449.853 316.488C447.844 314.707 446.109 313.425 444.742 311.126Z" fill="#FEF9FD"/>
<path d="M443.978 327.297C467.128 320.969 479.933 316.644 490.539 294.152L494.533 296.057C495.376 297.659 495.957 298.311 495.655 300.071C495.293 300.553 494.717 301.362 494.34 301.799C489.714 304.607 488.368 309.329 485.048 313.229C476.422 323.359 453.978 331.563 441.362 332.794L439.991 332.087C439.253 328.39 445.408 323.844 443.405 316.327L443.257 315.455C445.671 315.807 447.593 315.911 449.238 317.754C449.609 320.632 445.477 323.476 443.978 327.297Z" fill="#FEF9FD"/>
<path d="M435.777 301.002C435.861 300.421 436.076 299.65 436.219 299.06C438.196 296.584 439.565 295.842 442.647 295.168C442.461 297.581 442.313 300.255 442.009 302.634C438.872 302.474 438.736 302.394 435.777 301.002Z" fill="#36F4FE"/>
<path d="M494.531 296.055C503.513 301.098 507.334 303.529 514.654 310.581C513.503 312.165 513.35 313.036 512.726 314.932C510.965 312.774 510.399 312.387 508.135 310.72C485.29 341.437 466.339 345.757 429.016 343.843L434.409 335.947C435.743 336.341 436.887 336.468 437.702 337.517C440.655 339.124 443.539 338.646 446.777 338.651C471.576 338.693 490.524 327.599 504.235 307.077C501.731 306.247 496.824 303.226 494.338 301.797C494.715 301.36 495.292 300.551 495.654 300.069C495.956 298.309 495.374 297.657 494.531 296.055Z" fill="url(#paint1_linear_2264_37439)"/>
<path d="M435.775 301.004C438.734 302.396 438.87 302.476 442.007 302.636C441.708 305.035 441.433 307.881 441.004 310.221C439.521 309.106 436.085 305.323 434.617 303.773C435.302 302.617 435.353 302.299 435.775 301.004Z" fill="#FEF9FD"/>
<path d="M441.362 332.792C453.978 331.561 476.422 323.357 485.048 313.227C488.368 309.327 489.713 304.605 494.339 301.797C496.825 303.226 501.732 306.247 504.236 307.077C490.525 327.599 471.577 338.693 446.778 338.651C443.54 338.646 440.656 339.124 437.703 337.517C438.65 335.938 439.797 333.409 441.362 332.792Z" fill="#B9FBC0"/>
<path d="M431.902 309.756C432.948 307.845 433.762 305.779 434.618 303.77C436.086 305.32 439.522 309.103 441.005 310.218C440.914 310.834 440.542 313.038 440.567 313.523C437.494 312.302 434.901 311.153 431.902 309.756Z" fill="#B9FBC0"/>
<path d="M431.902 309.758C434.901 311.155 437.494 312.304 440.567 313.525L439.53 316.137C435.74 316.103 434.002 315.229 430.531 313.86L431.902 309.758Z" fill="#FEF9FD"/>
<path d="M512.726 314.933C513.35 313.037 513.503 312.166 514.654 310.582C517.46 313.347 519.646 315.702 522.262 318.656C513.294 335.947 495.068 344.205 477.369 350.36C464.938 354.683 438.744 358.861 425.92 355.083C425.182 354.734 424.138 353.625 423.48 353.01L423.922 351.897C426.274 351.114 435.271 351.785 438.483 351.698C463.328 351.027 499.111 341.592 514.768 321.04L512.726 314.933Z" fill="#FEF9FD"/>
<path d="M508.135 310.723C510.399 312.39 510.965 312.777 512.726 314.935L514.768 321.042C499.111 341.594 463.328 351.029 438.483 351.7C435.271 351.787 426.274 351.116 423.922 351.899L423.48 353.012L420.602 353.889C422.763 351.73 426.866 346.432 429.016 343.846C466.339 345.76 485.29 341.44 508.135 310.723Z" fill="#B9FBC0"/>
<path d="M141.838 320.296C139.739 320.168 139.44 320.297 138.126 318.793C137.681 317.062 138.152 315.707 138.51 313.926C141.838 315.222 141.836 317.202 141.838 320.296Z" fill="#8EECF5"/>
<path d="M430.531 313.859C434.002 315.228 435.74 316.102 439.53 316.136C435.617 329.496 428.537 338.683 419.68 348.969C410.821 347.175 402.068 342.297 397.957 333.93C403.725 335.298 407.696 336.558 413.616 334.276C421.249 331.333 427.328 321.074 430.531 313.859Z" fill="#B9FBC0"/>
<path d="M434.41 335.946C438.481 329.108 441.206 323.901 443.405 316.324C445.408 323.841 439.253 328.387 439.991 332.084L441.362 332.791C439.797 333.408 438.65 335.937 437.703 337.516C436.888 336.467 435.744 336.34 434.41 335.946Z" fill="#B0F5D5"/>
<path d="M522.262 318.656C523.957 320.896 525.698 323.156 527.359 325.414C525.216 324.79 523.829 324.025 521.938 324.713C521.675 326.659 523.237 328.484 524.408 330.201C521.961 347.561 486.259 354.995 473.351 363.314C471.422 362.234 470.234 361.306 468.471 359.99C463.629 359.579 455.707 359.787 450.896 360.41C446.792 360.679 424.517 361.485 424.484 356.406L425.92 355.083C438.744 358.861 464.938 354.683 477.369 350.36C495.068 344.205 513.294 335.947 522.262 318.656Z" fill="#B9FBC0"/>
<path d="M524.41 330.201C523.239 328.484 521.676 326.659 521.939 324.713C523.83 324.025 525.217 324.79 527.36 325.414L528.096 326.791C525.794 327.651 526.019 327.855 524.41 330.201Z" fill="#FEF9FD"/>
<path d="M529.534 328.124C530.667 326.493 530.929 326.36 532.521 325.102C534.609 327.585 537.58 332.509 539.432 335.497C550.989 354.139 561.313 375.719 568.9 396.273C573.929 410.413 578 424.63 584.109 438.378C593.067 458.536 606.772 476.419 613.295 497.601C615.208 503.315 616.453 507.939 616.196 513.966C616.157 514.873 619.234 520.643 619.504 522.152C623.024 541.797 618.974 560.41 613.773 579.112C615.057 582.077 615.431 585.387 615.907 588.568C619.34 611.482 623.593 634.315 627.939 657.073C628.983 662.535 630.699 667.905 631.833 673.363L633.358 677.362L636.034 684.682C637.415 688.224 640.965 697.408 644.905 698.425L645.657 701.046C638.702 701.948 634.637 690.884 631.844 685.449L630.151 680.575L628.468 674.9C625.612 668.468 620.641 640.3 619.263 631.894C616.889 617.413 613.103 598.507 611.691 584.016C592.199 619.379 570.887 627.449 541.391 651.156C550.287 667.33 557.112 684.734 567.099 700.403C568.704 702.922 570.606 705.935 572.055 708.516C572.949 709.899 573.738 711.195 574.78 712.477C580.538 720.176 585.791 725.928 592.283 733.026L594.573 735.421L596.84 737.578C604.309 745.316 621.909 760.671 632.002 763.343C649.785 767.349 670.794 762.285 688.612 759.598C715.173 755.592 739.79 755.368 766.424 758.76L766.278 758.324C765.526 756 765.186 755.026 766.232 752.942C767.944 751.627 768.1 751.646 770.248 751.11C770.768 752.294 768.476 753.292 768.566 754.937C775.58 751.481 778.413 738.73 778.577 731.424C778.705 725.72 777.245 722.635 774.274 718.125C740.001 708.984 705.223 699.004 669.585 701.659C663.766 702.092 648.727 705.104 643.906 703.014L644.088 702.353L645.618 701.538L651.37 700.245C684.954 695.192 712.461 698.5 745.299 706.859C753.71 709 768.688 714.366 777.138 714.439C779.938 714.463 794.029 708.088 798.098 706.613C799.627 703.171 803.291 702.178 806.705 701.038C823.701 695.362 838.172 701.801 842.306 720.303C849.274 751.48 873.462 785.702 858.121 818.039C855.042 824.529 844.458 837.935 836.319 832.255C826.227 825.277 822.968 810.323 815.836 800.685C807.82 790.478 793.613 771.783 783.946 763.885C774.607 765.55 765.283 761.76 755.826 761.081C744.327 760.175 732.788 760.17 721.257 760.307C693.981 760.633 667.079 768.937 639.877 768.487C623.211 768.211 605.602 752.407 594.451 741L590.586 737.154C589.671 736.007 587.864 734.197 586.804 733.063C581.269 727.179 576.364 720.823 571.406 714.458L568.395 709.854C557.117 692.72 546.837 672.021 538.517 653.119C508.192 674.151 474.794 698.413 448.529 724.186C445.49 727.169 440.281 758.15 438.695 765.018C431.238 797.309 412.584 822.21 396.06 850.461C391.645 857.198 384.302 868.371 381.34 875.892C376.95 874.894 381.514 867.603 382.784 865.29C385.377 860.567 388.218 855.884 390.955 851.237C397.628 839.533 405.078 828.228 411.919 816.576C424.86 794.47 434.589 773.931 438.247 748.267C439.09 742.355 442.448 724.622 446.095 720.906C471.782 694.736 504.093 674.141 533.241 652.027C567.529 626.012 609.809 603.986 615.256 556.325C617.043 540.916 618.533 531.9 614.291 516.943C601.346 533.762 581.833 544.712 562.266 552.087C541.104 560.063 517.161 561.982 494.93 558.104C484.259 571.937 472.946 585.777 461.1 598.788C441.419 620.404 416.085 642.183 400.908 667.223C388.844 687.127 386.163 720.27 379.919 742.982C372.816 768.815 365.4 796.072 356.352 821.234C353.236 830.422 349.297 843.19 345.545 851.886C344.005 855.12 343.722 855.954 342.864 859.405C347.388 876.212 362.477 875.671 376.567 874.625C378.868 875.767 379.283 875.864 381.067 877.617C382.205 880.839 386.691 900.084 387.001 903.636C387.842 913.264 390.469 929.279 384.121 937.278C371.659 952.977 352.202 945.12 335.832 948.84C324.972 951.308 316.474 956.709 304.944 958.134C288.742 960.216 271.091 957.539 257.681 947.712C250.308 942.309 246.147 931.96 253.046 924.413C258.407 918.548 267.218 917.876 273.83 914.157C287.211 906.63 300.269 898.42 311.9 888.35C317.284 883.832 322.486 874.907 330.209 874.817C343.06 874.667 346.002 892.086 359.516 891.047C365.755 890.567 374.786 888.606 379.297 884.016C379.799 882.495 379.784 882.609 379.314 881.073C375.601 876.36 364.173 879.131 358.211 877.339C344.968 873.359 338.069 866.385 341.884 852.379L344.268 845.359C357.091 806.233 370.338 766.813 379.76 726.728C385.132 703.87 386.311 681.056 400.06 661.059C416.145 637.667 436.913 618.78 456.391 598.333C468.438 585.511 480.255 571.191 491.087 557.38C461.061 551.448 466.055 532.346 463.482 508.257C460.951 484.563 444.184 468.143 428.499 452.01C422.89 446.241 417.603 439.989 411.979 434.155C407.617 436.47 402.239 440.197 398.109 442.947C374.258 458.827 351.227 470.898 321.462 467.714C312.36 466.741 304.941 465.07 295.962 463.215C284.213 459.61 271.833 455.578 260.513 450.852C252.393 447.461 244.345 443.309 236.323 439.566C215.173 448.291 189.113 451.733 166.229 451.114C165.55 449.757 165.651 450.256 165.469 448.812L166.135 448.143C167.924 448.28 170.471 448.704 171.86 447.705C189.01 447.461 221.705 444.656 235.623 434.784C255.419 445.43 270.852 452.008 292.497 458.294C329.073 468.916 353.988 466.521 386.412 446.143C393.884 441.447 403.389 434.587 410.881 430.373C397.969 420.182 386.066 407.378 382.829 390.532C383.136 389.338 383.124 389.274 383.712 388.205L384.896 388.389C386.823 394.266 389.99 401.77 393.675 406.747C394.577 408.182 395.578 409.88 396.606 411.185C403.293 421.391 416.277 430.683 428.307 433.098C434.487 429.939 444.22 421.902 449.03 416.683C451.131 415.153 454.347 412.296 456.44 410.553C458.114 409.528 462.522 405.696 464.271 404.251C471.895 397.948 480.925 391.959 488.005 385.158C492.723 382.332 495.474 377.396 501.068 379.223C497.133 383.744 491.412 387.193 487.488 391.256C481.407 395.471 474.12 400.573 468.453 405.347L464.701 408.385C462.667 410.002 460.613 411.607 458.629 413.284L456.603 414.942L453.644 417.581L449.888 421.322L445.506 425.34C440.444 429.707 436.723 433.2 430.855 436.478C424.769 436.381 421.321 434.817 415.658 432.695C418.813 436.719 422.217 440.696 425.992 444.153C442.183 461.86 457.729 473.063 464.633 496.891C465.831 500.898 466.48 504.435 467.267 508.52C467.574 511.803 467.467 518.416 467.919 520.598C468.249 525.088 468.709 531.23 470.077 535.519C470.753 538.789 471.661 541.1 473.196 544.063C482.152 557.366 519.552 557.592 534.252 555.589C559.084 552.206 593.839 537.184 609.357 517.049C610.557 515.864 612.496 511.578 613.356 509.797C612.686 507.066 612.235 505.354 611.256 502.657C610.354 498.923 608.728 494.622 607.399 491.011C606.284 488.308 605.343 485.816 603.808 483.309C602.146 479.743 599.281 473.357 596.838 470.44C595.706 468.067 594.116 465.263 592.81 462.96C583.084 445.815 576.352 428.635 569.444 410.254C567.792 404.97 566.219 399.663 564.208 394.507C562.477 387.763 552.755 367.522 549.549 361.171L546.299 354.355C543.758 349.472 542.033 346.559 539.084 341.958L536.055 337.459C534.81 335.631 533.688 334.182 532.329 332.452C531.979 331.685 530.102 328.98 529.534 328.124ZM796.765 753.58C794.308 755.835 792.053 757.866 789.489 759.998C788.061 760.978 787.599 760.917 787.082 762.238C791.458 767.38 796.381 771.749 800.616 777.036C801.032 779.203 806.376 785.06 808.192 787.483L809.294 787.854C811.132 789.736 813.746 794.655 816.137 796.303C816.631 796.643 818.744 795.871 819.592 795.645L820.07 796.028L820.1 797.059L818.401 798.109C818.583 799.413 831.24 822.2 833.087 824.772C859.945 817.077 839.277 768.054 835.08 749.323C829.523 724.53 815.363 698.873 786.151 715.215C799.769 723.099 806.056 739.908 796.765 753.58ZM813.525 702.569C809.919 703.476 807.818 704.245 804.525 706.103C814.022 708.959 824.565 715.117 828.811 724.547C837.871 744.841 843.806 768.073 848.195 789.871C850.078 799.226 850.481 818.363 840.899 824.122C839.381 825.034 835.332 827.011 835.824 828.198L838.708 830.027C842.269 830.166 844.919 829.135 847.48 826.542C871.807 801.918 853.91 764.961 844.003 738.078C837.22 719.671 839.128 700.754 813.525 702.569ZM777.128 717C785.951 731.917 782.203 748.939 768.949 759.781C774.988 761.102 779.393 762.34 785.231 759.239C799.174 749.61 802.967 741.666 793.39 724.975C790.116 719.269 783.754 716.476 777.128 717ZM326.051 877.505C320.049 881.371 315.253 888.637 309.761 893.403C298.028 903.649 284.133 911.21 270.705 918.953C269.23 919.804 265.626 922.16 265.684 923.731C266.151 936.521 283.242 940.093 292.129 940.34C304.996 940.698 314.556 937.568 325.524 934.144C331.172 932.344 336.922 930.565 343.262 929.529C354.66 927.666 375.25 927.535 382.812 916.832C386.949 910.976 382.683 893.283 381.161 886.541C374.184 891.258 364.124 895.984 355.552 894.101C341.993 891.123 341.782 876.872 326.051 877.505ZM384.961 919.429C380.806 923.941 375.95 926.304 370.191 928.331C360.66 931.687 350.397 931.337 340.581 933.425C325.962 936.54 312.419 943.53 297.266 943.987C286.312 944.318 275.626 942.349 267.312 934.719C262.002 929.847 263.489 927.571 262.953 921.672C261.428 921.469 257.714 923.457 256.42 924.354C253.776 926.186 252.608 929.373 251.894 932.369C253.972 953.549 287.317 956.959 303.762 955.093C315.593 953.963 325.72 947.635 337.259 945.318C351.657 942.428 369.691 948.51 380.827 936.063C383.147 933.469 387.7 922.164 384.961 919.429Z" fill="#43372C"/>
<path d="M524.409 330.199C526.018 327.853 525.794 327.649 528.096 326.789L529.533 328.122C530.101 328.978 531.978 331.683 532.328 332.45C531.889 336.995 531.916 337.96 529.073 341.701C528.004 339.612 527.472 338.447 526.667 336.247C523.949 341.497 522.155 345.248 517.107 348.964C507.263 356.211 493.341 359.261 482.915 364.952C469.906 372.055 461.838 377.373 447.271 381.715C431.019 386.56 408.383 391.962 396.141 376.072L401.258 371.848C402.209 372.912 403.102 373.723 403.74 374.96C411.475 388.943 447.468 375.458 458.615 371.825C463.564 370.983 469.677 366.578 473.352 363.312C486.26 354.993 521.962 347.559 524.409 330.199Z" fill="#FEF9FD"/>
<path d="M393.22 330.995C390.868 333.686 391.999 344.885 392.758 348.496C393.724 346.591 393.971 337.46 394.372 334.334C396.649 338.354 397.278 339.42 400.117 343.027C397.319 347.971 407.054 356.12 411.037 358.422C408.64 360.815 401.873 367.472 399.103 369.262L397.569 368.48C384.224 362.048 381.68 345.348 379.074 332.158C384.241 330.839 387.372 329.643 392.22 327.504L393.22 330.995ZM388.567 331.241C387.996 333.398 386.177 338.787 387.115 340.525L387.721 340.825C388.918 338.415 391.346 333.403 388.567 331.241Z" fill="#B9FBC0"/>
<path d="M387.722 340.826L387.116 340.526C386.178 338.788 387.997 333.399 388.568 331.242C391.347 333.404 388.919 338.416 387.722 340.826Z" fill="#DBF1E2"/>
<path d="M392.761 348.497C392.002 344.886 390.871 333.687 393.223 330.996C393.405 331.517 394.303 333.955 394.375 334.335C393.974 337.461 393.727 346.592 392.761 348.497Z" fill="#DBF1E2"/>
<path d="M354.218 359.726C355.289 358.161 356.547 355.782 357.485 354.066C361.606 346.533 366.236 339.491 370.935 332.305C372.489 332.883 373.251 333.331 374.9 333.14C371.944 337.174 367.091 343.436 365.222 347.836L363.481 350.968C362.424 352.741 360.156 356.317 359.31 358.029C358.005 360.293 356.688 362.654 355.327 364.875C354.888 365.574 353.406 367.839 353.149 368.457C352.017 370.142 350.724 371.931 349.833 373.736C348.177 376.138 346.541 378.453 345.027 380.951L342.596 385.033C340.622 388.123 338.635 391.205 336.722 394.334C336.312 393.477 336.233 390.654 336.09 389.385C340.937 381.34 345.834 373.439 350.845 365.495L354.218 359.726Z" fill="url(#paint2_linear_2264_37439)"/>
<path d="M374.901 333.138L375.915 332.746C375.966 335.051 378.983 343.991 379.476 347.846C380.741 357.731 388.251 365.468 395.017 372.384C393.623 373.434 392.111 374.505 390.862 375.704C384.933 372.612 372.65 363.268 369.598 356.897C368.178 353.932 367.641 350.228 365.223 347.834C367.092 343.434 371.945 337.172 374.901 333.138Z" fill="#B9FBC0"/>
<path d="M375.914 332.744L379.075 332.156C381.681 345.346 384.225 362.046 397.57 368.478L399.104 369.26C397.771 370.317 396.421 371.43 395.016 372.382C388.25 365.466 380.74 357.729 379.475 347.844C378.982 343.989 375.965 335.049 375.914 332.744Z" fill="#FEF9FD"/>
<path d="M532.325 332.453C533.684 334.183 534.806 335.632 536.051 337.46C534.597 339.414 533.628 340.809 532.36 342.885C531.646 341.546 532.135 342.086 530.776 341.271L529.07 341.704C531.913 337.963 531.886 336.998 532.325 332.453Z" fill="#B0F5D5"/>
<path d="M526.664 336.25C527.469 338.45 528.001 339.615 529.07 341.704L530.776 341.271C532.135 342.086 531.646 341.546 532.36 342.885C527.471 354.152 524.325 366.64 521.344 378.548C520.698 381.128 519.779 389.069 518.811 390.758L518.182 387.833C508.763 384.836 495.61 390.026 487.484 391.257C491.408 387.194 497.129 383.745 501.064 379.224C502.512 377.868 504.235 376.628 504.729 374.786L504.243 373.888C502.043 373.464 498.14 375.239 495.803 376.118C468.346 386.434 438.784 398.801 408.851 393.794C402.039 392.654 394.091 386.626 389.82 381.424C391.634 379.603 394.111 377.72 396.138 376.075C408.38 391.965 431.016 386.563 447.268 381.718C461.835 377.376 469.903 372.058 482.912 364.955C493.338 359.264 507.26 356.214 517.104 348.967C522.152 345.251 523.946 341.5 526.664 336.25Z" fill="#B9FBC0"/>
<path d="M825.369 338.272C854.808 334.76 876.115 336.172 900.589 355.874C926.113 376.42 944.961 405.612 950.322 438.313C952.464 451.378 951.839 462.053 950.382 475.198C948.559 491.653 945.557 508.026 941.025 523.988C924.162 573.167 897.424 629.604 838.745 635.5C815.602 637.825 794.691 632.557 776.849 617.431C771.29 612.776 766.298 607.781 760.938 603.224C777.2 592.854 806.256 582.138 825.601 586.427C831.335 587.698 833.648 592.721 836.185 597.406C850.187 592.415 835.261 582.283 828.534 580.188C804.578 572.729 778.37 587.069 757.295 597.224C739.347 574.586 734.869 529.887 734.42 501.686C734.293 493.691 736.238 483.765 735.52 476.453L735.514 476.129C738.111 474.069 748.801 461.114 751.058 458.289C776.974 425.855 812.397 377.978 825.189 338.508L825.369 338.272Z" fill="#B9FBC0"/>
<path d="M532.362 342.886C533.63 340.81 534.599 339.415 536.053 337.461L539.082 341.96C527.477 370.309 517.278 405.494 529.948 435.136C539.388 457.221 556.923 465.781 577.203 476.055C583.224 479.105 601.764 489.792 607.397 491.013C608.726 494.624 610.352 498.925 611.254 502.659C606.176 499.45 601.576 496.393 596.136 493.728C596.219 519.09 576.466 535.65 551.472 534.893C531.302 534.282 519.367 530.383 508.147 551.631C533.372 553.909 569.732 541.896 591.728 529.012C595.29 526.925 606.622 516.144 609.355 517.051C593.837 537.186 559.082 552.208 534.25 555.591C519.55 557.594 482.15 557.368 473.194 544.065C473.785 541.985 474.281 537.135 474.581 534.748C475.696 528.279 476.884 524.606 479.201 518.452C477.764 516.022 476.316 514.199 474.618 511.966L473.83 513.937C471.549 519.555 471.532 520.75 471.44 526.756C471.211 529.025 471.073 534.002 470.075 535.521C468.707 531.232 468.247 525.09 467.917 520.6C467.715 492.856 501.85 475.621 472.578 447.294C467.37 442.255 447.596 429.947 445.504 425.342L449.886 421.324C456.032 426.435 462.923 431.758 469.897 435.821C484.431 444.367 504.188 449.003 509.355 467.271C515.86 490.269 496.048 497.019 486.192 513.276C485.215 514.888 484.705 517.889 486.839 518.798C500.303 504 516.311 504.755 523.381 483.177C536.784 442.271 462.641 434.479 453.642 417.583L456.601 414.944C475.016 427.259 499.124 432.668 516.449 447.224C535.301 463.064 533.606 490.279 514.087 504.776C504.424 511.954 498.45 513.748 490.054 523.15C492.524 527.844 494.7 532.061 496.927 536.896C507.962 518.771 528.017 519.033 535.678 493.37C538.841 482.772 539.896 474.245 534.793 463.491C532.444 458.542 528.86 453.947 525.767 449.738C513.185 432.615 497.13 427.022 477.805 420.78C471.591 418.774 465.087 415.451 458.627 413.286C460.611 411.609 462.665 410.004 464.699 408.387C471.037 412.343 476.443 413.981 483.497 416.164C500.719 421.495 510.574 424.93 523.766 437.388C521.021 429.531 518.48 421.257 517.741 412.943C498.465 411.35 487.111 413.31 468.451 405.349C474.118 400.575 481.405 395.473 487.486 391.258C495.612 390.027 508.765 384.837 518.184 387.834L518.813 390.759C519.781 389.07 520.7 381.129 521.346 378.549C524.327 366.641 527.473 354.153 532.362 342.886ZM503.51 394.063C494.417 396.531 484.318 397.707 476.137 401.133C491.226 407.026 501.837 406.417 517.75 407.06L517.144 399.998C516.33 396.919 515.042 396.124 512.635 394.11C508.898 393.808 507.262 393.827 503.51 394.063ZM476.945 445.394C483.206 452.348 490.398 463.482 489.982 473.407C489.463 485.81 477.388 494.451 478.282 506.377C478.396 507.905 479.924 511.322 480.583 512.853C482.573 508.921 483.432 507.857 486.017 504.308L486.555 503.658C494.581 494.053 506.538 487.461 505.561 473.345C505.066 466.2 500.906 460.507 495.525 456.126C491.229 452.629 482.002 447.353 476.945 445.394ZM541.214 461.857C544.081 470.088 545.606 477.042 544.026 485.788C541.308 500.84 533.069 514.39 519.847 522.276C524.949 520.522 529.976 518.796 535.121 517.163C553.588 510.13 568.16 501.006 561.007 477.941C558.536 469.974 548.735 469.014 543.342 463.655C542.923 463.247 541.767 462.34 541.214 461.857ZM566.669 477.671C569.591 486.238 569.146 493.602 565.311 501.775C555.755 522.137 531.742 521.464 513.641 528.823C508.781 530.798 504.013 535.129 501.66 539.816C500.248 542.604 502.886 544.818 504.609 546.643C507.397 542.725 509.576 539.529 513.025 536.104L513.569 535.62C528.453 522.584 549.85 532.743 567.842 527.172C581.594 522.914 596.087 502.954 587.012 489.824C585.635 487.832 569.641 479.099 566.669 477.671ZM482.575 523.436C479.246 540.226 476.115 550.084 497.598 552.335L498.761 551.692C498.42 548.627 484.713 525.682 482.575 523.436Z" fill="#FEF9FD"/>
<path d="M735.515 476.129C735.179 471.866 736.499 463.528 737.181 459.136C745.224 407.368 765.267 345.776 825.19 338.508C812.398 377.978 776.975 425.855 751.059 458.289C748.802 461.114 738.112 474.069 735.515 476.129Z" fill="#F1C0E8"/>
<path d="M140.365 460.28C166.655 470.579 199.234 473.223 226.268 466.24C229.404 465.43 239.177 461.228 241.45 461.858C236.515 468.34 208.291 473.812 200.355 474.208C169.31 475.757 132.484 469.084 108.416 448.32C83.0515 426.438 77.4925 389.9 100.645 364.315C114.742 348.717 137.404 340.777 157.869 339.718C189.394 337.595 228.178 347.66 244.952 376.652C245.858 378.218 246.414 379.477 245.934 381.24C245.677 381.243 245.42 381.246 245.163 381.249C243.432 378.76 241.008 375.795 238.921 373.784C229.353 364.563 217.705 356.702 205.299 351.892C179.167 341.758 150.352 339.57 124.275 350.969C109.517 357.419 98.0471 367.332 92.1968 382.584C87.3247 395.287 87.338 407.842 92.8397 420.24C101.593 439.964 120.774 452.868 140.365 460.28Z" fill="#36F4FE"/>
<path d="M539.083 341.957C542.032 346.558 543.757 349.471 546.298 354.354C541.392 359.192 535.521 401.932 535.193 409.636C533.691 444.85 559.251 461.165 587.821 474.1C592.705 476.317 598.214 481.582 603.807 483.308C605.342 485.815 606.283 488.307 607.398 491.01C601.765 489.789 583.225 479.102 577.204 476.052C556.924 465.778 539.389 457.218 529.949 435.133C517.279 405.491 527.478 370.306 539.083 341.957Z" fill="#B9FBC0"/>
<path d="M411.039 358.422C407.056 356.12 397.321 347.971 400.119 343.027C405.444 348.004 409.435 350.992 417.026 351.941L411.039 358.422Z" fill="url(#paint3_linear_2264_37439)"/>
<path d="M77.4193 413.53C77.2089 413.317 76.5177 412.669 76.4337 412.447C67.0405 387.596 85.9229 358.064 104.972 344.816C105.799 345.237 105.546 345.155 106.173 345.997C105.908 348.804 102.693 350.552 100.732 352.372C86.3334 365.735 73.7715 386.119 77.5296 406.53C77.9511 408.819 78.4943 411.35 77.4193 413.53Z" fill="#36F4FE"/>
<path d="M363.48 350.968L365.221 347.836C367.639 350.23 368.176 353.934 369.596 356.899C372.648 363.27 384.931 372.614 390.86 375.706L387.36 378.907C379.128 368.152 367.518 367.288 363.48 350.968Z" fill="#FEF9FD"/>
<path d="M359.312 358.026C360.159 356.314 362.426 352.738 363.483 350.965C367.521 367.285 379.131 368.149 387.363 378.904C385.632 380.646 382.756 383.361 381.221 385.123L381.053 384.266C377.215 379.335 367.307 375.004 363.525 368.215C361.296 364.213 361.335 362.535 359.715 358.908L359.312 358.026Z" fill="#B9FBC0"/>
<path d="M420.6 353.889L423.478 353.012C424.136 353.627 425.18 354.736 425.918 355.085L424.482 356.408C424.515 361.487 446.79 360.681 450.894 360.412C453.465 360.761 453.388 360.321 454.965 361.739C455.893 365.339 452.756 365.806 450.067 366.123C440.718 365.741 432.774 365.258 423.594 363.205C421.783 365.018 421.928 365.366 419.803 365.935C418.406 365.468 418.079 364.557 417.273 363.274C416.578 362.058 415.764 360.338 415.113 359.054C416.898 357.229 418.547 355.394 420.6 353.889Z" fill="#FEF9FD"/>
<path d="M277.798 391.492L277.152 391.406C276.809 391.094 271.58 377.668 270.755 375.282C268.261 368.067 257.503 358.707 255.062 353.531C266.554 352.669 278.905 380.43 277.798 391.492Z" fill="#36F4FE"/>
<path d="M603.806 483.309C598.213 481.583 592.704 476.318 587.82 474.101C559.25 461.166 533.69 444.851 535.192 409.637C535.52 401.933 541.391 359.193 546.297 354.355L549.547 361.171C547.032 367.509 546.197 372.989 544.697 379.567C540.678 397.199 538.002 412.876 545.186 430.183C550.984 444.153 565.98 456.367 579.261 463.008C576.608 458.356 572.885 453.081 570.634 448.378C564.89 436.374 563.29 421.38 563.372 408.223C563.388 405.5 562.898 396.296 564.206 394.507C566.217 399.663 567.79 404.97 569.442 410.254C568.979 414.101 569.887 418.813 570.433 422.651C572.612 437.99 576.755 449.446 586.4 461.735C588.784 464.772 593.163 469.229 596.836 470.44C599.279 473.357 602.144 479.743 603.806 483.309Z" fill="#FEF9FD"/>
<path d="M177.837 361.97C171.294 361.869 169.034 362.358 162.677 364.084C158.938 365.099 151.747 369.412 149.426 368.903L149.517 368.08C155.951 360.809 167.524 357.904 176.797 356.68C189.061 355.366 199.191 358.744 207.637 367.636C195.947 364.72 190.631 362.238 177.837 361.97Z" fill="#36F4FE"/>
<path d="M359.311 358.027L359.713 358.909C361.333 362.536 361.295 364.214 363.524 368.216C367.306 375.005 377.214 379.336 381.052 384.267C374.048 385.62 358.845 371.136 355.328 364.873C356.689 362.652 358.006 360.291 359.311 358.027Z" fill="#FEF9FD"/>
<path d="M408.344 365.778C410.431 363.916 413.086 361.091 415.115 359.051C415.766 360.335 416.58 362.055 417.275 363.271C415.06 364.444 415.003 364.604 413.38 366.597C412.543 365.285 409.915 365.77 408.344 365.778Z" fill="#B0F5D5"/>
<path d="M350.847 365.492C348.294 364.64 348.056 366.163 346.083 363.104C346.023 359.612 351.687 359.446 354.219 359.723L350.847 365.492Z" fill="#F1EAD1"/>
<path d="M450.897 360.41C455.708 359.787 463.63 359.579 468.472 359.99C470.235 361.306 471.423 362.234 473.352 363.314C469.677 366.58 463.564 370.985 458.615 371.827C456.025 368.369 454.103 367.053 450.07 366.121C452.759 365.804 455.896 365.337 454.968 361.737C453.391 360.319 453.468 360.759 450.897 360.41Z" fill="#DBF1E2"/>
<path d="M549.549 361.172C552.755 367.523 562.477 387.764 564.208 394.508C562.9 396.297 563.39 405.501 563.374 408.224C563.292 421.381 564.892 436.375 570.636 448.379C572.887 453.082 576.61 458.357 579.263 463.009C565.982 456.368 550.986 444.154 545.188 430.184C538.004 412.877 540.68 397.2 544.699 379.568C546.199 372.99 547.034 367.51 549.549 361.172Z" fill="#B9FBC0"/>
<path d="M413.379 366.598C415.002 364.605 415.059 364.445 417.274 363.272C418.08 364.555 418.407 365.466 419.804 365.933C421.929 365.364 421.784 365.016 423.595 363.203C432.775 365.256 440.719 365.739 450.068 366.121C454.101 367.053 456.023 368.369 458.613 371.827C447.466 375.46 411.473 388.945 403.738 374.962C404.6 374.141 405.699 373.229 406.61 372.429C409.648 370.864 411.213 369.069 413.379 366.598Z" fill="#B9FBC0"/>
<path d="M353.148 368.453C353.405 367.835 354.887 365.57 355.326 364.871C358.843 371.134 374.046 385.618 381.05 384.265L381.218 385.122L378.219 388.976C375.801 387.479 354.761 373.523 354.252 372.819C354.084 370.789 354.058 370.257 353.148 368.453Z" fill="#B9FBC0"/>
<path d="M407.781 366.495L408.345 365.778C409.916 365.77 412.544 365.285 413.381 366.597C411.215 369.068 409.65 370.863 406.612 372.428C406.049 371.361 406.212 371.811 406.19 370.518C406.819 369.278 407.147 368.704 407.536 367.366L407.781 366.495Z" fill="#DBF1E2"/>
<path d="M401.258 371.85L407.781 366.496L407.536 367.367C407.147 368.705 406.819 369.279 406.19 370.519C406.212 371.812 406.049 371.362 406.612 372.429C405.701 373.229 404.602 374.141 403.74 374.962C403.102 373.725 402.209 372.914 401.258 371.85Z" fill="#B0F5D5"/>
<path d="M349.836 373.732C350.727 371.927 352.02 370.138 353.152 368.453C354.062 370.257 354.088 370.789 354.256 372.819C354.765 373.523 375.805 387.479 378.223 388.976L374.641 392.499C373.022 391.572 370.045 389.145 368.436 387.913C362.371 383.271 354.256 379.973 349.836 373.732Z" fill="#FEF9FD"/>
<path d="M345.027 380.949C346.541 378.451 348.177 376.136 349.833 373.734C354.253 379.975 362.368 383.273 368.433 387.915C370.042 389.147 373.019 391.574 374.638 392.501C371.688 395.149 370.151 396.358 366.887 398.608C366.021 398.232 365.089 398.212 364.242 397.944C355.9 395.305 349.59 387.96 345.027 380.949Z" fill="#B9FBC0"/>
<path d="M501.067 379.225C495.473 377.398 492.722 382.334 488.004 385.16C487.868 385.187 487.732 385.214 487.596 385.242C461.383 394.891 440.282 402.877 411.484 399.62C408.17 403.116 404.881 404.764 400.65 406.804C423.475 421.384 449.757 405.65 456.439 410.555C454.346 412.298 451.13 415.155 449.029 416.685C445.635 416.92 440.047 418 436.386 418.416C419.335 420.354 411.677 417.452 396.605 411.187C395.577 409.882 394.576 408.184 393.674 406.749C394.216 403.459 393.543 394.222 393.399 390.406C390.027 389.718 388.214 389.008 384.992 387.814L384.766 386.908C385.925 384.871 388.079 383.085 389.823 381.425C394.094 386.627 402.042 392.655 408.854 393.795C438.787 398.802 468.349 386.435 495.806 376.119C498.143 375.24 502.046 373.465 504.246 373.889L504.732 374.787C504.238 376.629 502.515 377.869 501.067 379.225ZM397.573 393.771C398.037 397.259 398.49 401.583 399.327 404.914C401.521 403.454 403.995 401.718 406.231 400.384L410.271 399.098C404.668 397.337 402.795 396.334 397.573 393.771Z" fill="#FEF9FD"/>
<path d="M342.598 385.031L345.029 380.949C349.592 387.96 355.902 395.305 364.244 397.944C365.091 398.212 366.023 398.232 366.889 398.608L361.258 402.725C354.856 397.43 347.216 392.068 342.598 385.031Z" fill="#FEF9FD"/>
<path d="M336.725 394.332C338.638 391.203 340.625 388.121 342.599 385.031C347.217 392.068 354.857 397.43 361.259 402.725C358.282 404.929 356.217 406.331 353.054 408.252C351.971 407.879 350.074 407.303 349.128 406.806C348.964 403.03 340.243 396.441 336.215 396.152L336.725 394.332Z" fill="#B9FBC0"/>
<path d="M411.482 399.616C440.28 402.873 461.381 394.887 487.594 385.238C487.73 385.21 487.866 385.183 488.002 385.156C480.922 391.957 471.892 397.946 464.268 404.249C462.519 405.694 458.111 409.526 456.437 410.551C449.755 405.646 423.473 421.38 400.648 406.8C404.879 404.76 408.168 403.112 411.482 399.616Z" fill="#B9FBC0"/>
<path d="M384.992 387.812C388.214 389.007 390.027 389.716 393.399 390.404C393.543 394.22 394.216 403.457 393.674 406.747C389.989 401.77 386.822 394.266 384.895 388.389L384.992 387.812Z" fill="#B0F5D5"/>
<path d="M331.523 396.265C332.991 394.485 334.807 391.413 336.092 389.383C336.235 390.652 336.314 393.475 336.724 394.332L336.214 396.152L335.516 397.36C334.14 396.83 332.949 396.596 331.523 396.265Z" fill="#5E504B"/>
<path d="M399.324 404.913C398.487 401.582 398.034 397.258 397.57 393.77C402.792 396.333 404.665 397.336 410.268 399.097L406.228 400.383C403.992 401.717 401.518 403.453 399.324 404.913Z" fill="#B9FBC0"/>
<path d="M503.512 394.061C507.264 393.825 508.9 393.806 512.637 394.108C515.044 396.122 516.332 396.917 517.146 399.996C513.633 397.944 511.616 398.023 507.675 397.907L503.512 394.061Z" fill="#A6E7BD"/>
<path d="M476.137 401.133C484.318 397.707 494.417 396.53 503.51 394.062L507.673 397.909C511.614 398.025 513.631 397.945 517.144 399.997L517.75 407.06C501.837 406.417 491.226 407.026 476.137 401.133Z" fill="#B9FBC0"/>
<path d="M122.371 423.026C120.562 415.42 121.668 399.514 128.657 395.16L129.378 395.343C130.327 397.012 129.396 397.999 128.025 399.928C123.726 405.978 123.786 411.77 124.199 418.96C123.909 421.219 123.923 421.306 122.371 423.026Z" fill="#36F4FE"/>
<path d="M335.516 397.36L336.214 396.152C340.242 396.441 348.963 403.03 349.127 406.806C343.647 404.585 339.477 401.806 335.516 397.36Z" fill="#FEF9FD"/>
<path d="M308.871 415.234C314.848 409.503 323.985 405.36 330.744 398.445C331.588 399.514 331.998 400.24 333.082 401.018C328.95 404.734 320.335 411.855 316.864 415.457C314.047 415.522 311.665 415.388 308.871 415.234Z" fill="#36F4FE"/>
<path d="M333.081 401.016C336.442 402.389 341.234 407.526 348.906 410.804C337.219 415.663 329.582 416.207 316.863 415.455C320.334 411.853 328.949 404.732 333.081 401.016Z" fill="#FBF8CC"/>
<path d="M192.406 416.628C190.693 417.172 180.181 419.046 177.422 419.155C172.081 419.037 144.437 430.313 143.517 421.176C142.323 409.316 184.283 405.8 191.908 405.218C192.888 405.158 192.892 405.218 193.878 405.367L194.631 406.464C194.456 407.274 194.325 408.302 193.183 408.428C186.351 409.181 146.952 413.08 147.203 421.035C151.826 423.656 183.443 411.875 191.67 414.161C192.807 415.385 192.452 414.638 192.406 416.628Z" fill="#43372C"/>
<path d="M464.699 408.386L468.451 405.348C487.111 413.309 498.465 411.349 517.741 412.942C518.48 421.256 521.021 429.53 523.766 437.387C510.574 424.929 500.719 421.494 483.497 416.163C476.443 413.98 471.037 412.342 464.699 408.386Z" fill="#B9FBC0"/>
<path d="M569.444 410.254C576.352 428.635 583.084 445.815 592.81 462.96C594.116 465.263 595.706 468.067 596.838 470.44C593.165 469.229 588.786 464.772 586.402 461.735C576.757 449.446 572.614 437.99 570.435 422.651C569.889 418.813 568.981 414.101 569.444 410.254Z" fill="#B9FBC0"/>
<path d="M396.605 411.184C411.677 417.449 419.335 420.351 436.386 418.413C440.047 417.997 445.635 416.917 449.029 416.682C444.219 421.901 434.486 429.938 428.306 433.097C416.276 430.682 403.292 421.39 396.605 411.184Z" fill="#B9FBC0"/>
<path d="M456.602 414.943L458.628 413.285C465.088 415.45 471.592 418.773 477.806 420.779C497.131 427.021 513.186 432.614 525.768 449.737C528.861 453.946 532.445 458.541 534.794 463.49C539.897 474.244 538.842 482.771 535.679 493.369C528.018 519.032 507.963 518.77 496.928 536.895C494.701 532.06 492.525 527.843 490.055 523.149C498.451 513.747 504.425 511.953 514.088 504.775C533.607 490.278 535.302 463.063 516.45 447.223C499.125 432.667 475.017 427.258 456.602 414.943Z" fill="#B9FBC0"/>
<path d="M449.887 421.323L453.643 417.582C462.642 434.478 536.785 442.27 523.382 483.176C516.312 504.754 500.304 503.999 486.84 518.797C484.706 517.888 485.216 514.887 486.193 513.275C496.049 497.018 515.861 490.268 509.356 467.27C504.189 449.002 484.432 444.366 469.898 435.82C462.924 431.757 456.033 426.434 449.887 421.323Z" fill="#B9FBC0"/>
<path d="M124.199 418.961C124.72 421.9 125.554 424.635 125.207 427.472L124.629 427.459C123.273 425.548 123.201 425.264 122.371 423.027C123.923 421.307 123.909 421.22 124.199 418.961Z" fill="#8EECF5"/>
<path d="M149.132 440.301C148.786 439.895 148.158 439.265 147.919 438.76C147.424 437.715 147.328 436.9 147.874 435.846C150.322 431.123 184.743 424.629 190.968 423.164C191.719 424.079 191.563 425.24 191.2 426.266C189.562 427.33 184.783 428.121 182.584 428.628C174.66 430.458 166.698 432.263 158.773 434.094C155.383 434.878 152.726 435.386 150.872 438.68C150.326 439.65 150.21 439.833 149.132 440.301Z" fill="#43372C"/>
<path d="M430.852 436.478C436.72 433.2 440.441 429.707 445.503 425.34C447.595 429.945 467.369 442.253 472.577 447.292C501.849 475.619 467.714 492.854 467.916 520.598C467.464 518.416 467.571 511.803 467.264 508.52C469.975 508.346 470.636 500.222 471.35 497.97C474.425 488.274 479.346 479.598 475.203 469.254C467.946 451.138 447.221 443.891 430.852 436.478Z" fill="#B9FBC0"/>
<path d="M166.227 451.113C146.654 444.063 188.229 431.9 192.789 431.613L193.564 432.398C191.547 437.718 169.882 440.113 165.923 445.666L166.146 446.76C167.737 447.957 169.783 447.677 171.858 447.704C170.469 448.703 167.922 448.279 166.133 448.142L165.467 448.811C165.649 450.255 165.548 449.756 166.227 451.113Z" fill="#43372C"/>
<path d="M415.656 432.695C421.319 434.817 424.767 436.381 430.853 436.478C447.222 443.891 467.947 451.138 475.204 469.254C479.347 479.598 474.426 488.274 471.351 497.97C470.637 500.222 469.976 508.346 467.265 508.52C466.478 504.435 465.829 500.898 464.631 496.891C479.782 477.026 470.014 462.43 450.304 452.56C443.103 448.953 434.017 444.842 425.99 444.153C422.215 440.696 418.811 436.719 415.656 432.695Z" fill="url(#paint4_linear_2264_37439)"/>
<path d="M295.961 463.216C304.94 465.071 312.359 466.742 321.461 467.715C351.226 470.899 374.257 458.828 398.108 442.948C402.238 440.198 407.616 436.471 411.978 434.156C417.602 439.99 422.89 446.242 428.499 452.011C444.184 468.144 460.951 484.564 463.482 508.258C466.055 532.347 461.06 551.449 491.086 557.381C480.254 571.192 468.438 585.512 456.391 598.334C436.913 618.781 416.145 637.668 400.06 661.06C386.311 681.057 385.131 703.871 379.759 726.729C370.337 766.814 357.09 806.234 344.267 845.36C342.722 846.265 341.675 847.782 340.336 847.859C331.676 839.89 321.29 843.054 311.184 843.265C307.453 843.342 300.407 840.219 296.167 839.819C291.777 839.405 288.685 839.401 284.241 839.928C282.752 840.023 283.188 840.11 281.565 841.406C219.003 822.694 162.81 789.551 126.114 734.485C104.075 700.936 89.9692 658.309 92.0698 617.956C94.1357 578.269 107.394 538.815 142.674 516.894C152.941 510.515 160.278 506.535 172.069 503.132C193.374 496.982 215.231 495.409 236.671 490.108C255.193 485.38 279.99 473.975 295.961 463.216ZM180.824 541.598C166.458 544.6 147.719 551.535 151.936 570.019C155.075 583.777 172.182 595.643 183.272 602.606C215.416 622.789 253.137 631.151 290.685 632.84C297.406 633.149 315.559 633.201 321.9 631.82C322.5 630.02 322.723 629.709 322.385 627.803C321.699 626.976 321.217 626.313 320.03 626.394C274.155 629.501 226.025 622.656 186.394 597.947C175.34 591.054 145.26 571.12 162.031 554.951C167.342 549.838 176.597 548.963 182.963 545.938C184.035 545.441 184.084 544.569 184.285 543.597C183.426 541.848 184.054 542.442 182.537 541.572L180.824 541.598ZM373.738 545.157C371.241 546.387 370.143 549.354 371.236 551.914C372.329 554.473 375.233 555.731 377.848 554.777C379.669 554.112 380.974 552.497 381.24 550.576C381.507 548.656 380.691 546.746 379.12 545.611C377.548 544.476 375.478 544.301 373.738 545.157Z" fill="url(#paint5_linear_2264_37439)"/>
<path d="M425.988 444.152C434.015 444.841 443.101 448.952 450.302 452.559C470.012 462.429 479.78 477.025 464.629 496.89C457.725 473.062 442.179 461.859 425.988 444.152Z" fill="#B9FBC0"/>
<path d="M480.583 512.85C479.924 511.319 478.396 507.902 478.282 506.374C477.388 494.448 489.463 485.807 489.982 473.404C490.398 463.479 483.206 452.345 476.945 445.391C482.002 447.35 491.229 452.626 495.525 456.123C500.906 460.504 505.066 466.197 505.561 473.342C506.538 487.458 494.581 494.05 486.555 503.655L486.017 504.305C483.432 507.854 482.573 508.918 480.583 512.85Z" fill="#B9FBC0"/>
<path d="M77.9835 461.961L76.5279 461.393C74.4999 459.106 73.7783 456.566 75.2379 453.793C79.8018 454.701 79.183 458.471 77.9835 461.961Z" fill="#36F4FE"/>
<path d="M519.848 522.274C533.07 514.388 541.309 500.838 544.027 485.786C545.607 477.04 544.082 470.086 541.215 461.855C541.768 462.338 542.924 463.245 543.343 463.653C548.736 469.012 558.537 469.972 561.008 477.939C568.161 501.004 553.589 510.128 535.122 517.161C529.977 518.794 524.95 520.52 519.848 522.274Z" fill="#B9FBC0"/>
<path d="M671.249 471.404C668.74 472.227 666.039 470.854 665.226 468.341C664.412 465.828 665.796 463.133 668.312 462.329C670.814 461.53 673.491 462.904 674.3 465.403C675.109 467.902 673.745 470.585 671.249 471.404Z" fill="#FEF9FD"/>
<path d="M643.648 664.45C655.26 625.06 667.882 590.574 686.335 553.643C701.507 523.28 713.662 502.472 735.518 476.453C736.236 483.765 734.291 493.691 734.418 501.686C734.867 529.887 739.345 574.586 757.293 597.224C729.426 611.962 704.158 627.502 677.276 643.869L656.017 657.023C652.893 658.982 646.606 663.156 643.648 664.45Z" fill="#E6DFD5"/>
<path d="M504.608 546.64C502.885 544.815 500.247 542.601 501.659 539.813C504.012 535.126 508.78 530.795 513.64 528.82C531.741 521.461 555.754 522.134 565.31 501.772C569.145 493.599 569.59 486.235 566.668 477.668C569.64 479.096 585.634 487.829 587.011 489.821C596.086 502.951 581.593 522.911 567.841 527.169C549.849 532.74 528.452 522.581 513.568 535.617L513.024 536.101C509.575 539.526 507.396 542.722 504.608 546.64Z" fill="#B9FBC0"/>
<path d="M115.779 498.365C110.659 496.65 111.942 492.14 112.21 487.645C117.517 488.546 116.089 494.148 115.779 498.365Z" fill="#36F4FE"/>
<path d="M596.137 493.727C601.577 496.392 606.177 499.449 611.255 502.658C612.234 505.355 612.685 507.067 613.355 509.798C612.495 511.579 610.556 515.865 609.356 517.05C606.623 516.143 595.291 526.924 591.729 529.011C569.733 541.895 533.373 553.908 508.148 551.63C519.368 530.382 531.303 534.281 551.473 534.892C576.467 535.649 596.22 519.089 596.137 493.727Z" fill="#B9FBC0"/>
<path d="M471.441 526.755C471.533 520.749 471.55 519.554 473.831 513.936L474.619 511.965C476.317 514.198 477.765 516.021 479.202 518.451C476.885 524.605 475.697 528.278 474.582 534.747C473.842 535.234 473.768 535.256 472.979 535.632L471.991 535.065C471.185 532.999 471.569 529.415 471.441 526.755Z" fill="#B9FBC0"/>
<path d="M411.919 816.574C410.805 815.967 411.187 816.009 410.019 815.873C405.452 812.009 377.651 814.942 372.241 820.111C366.016 826.059 369.054 825.36 360.917 823.281L357.691 824.691C356.668 823.81 356.761 822.858 356.352 821.232C365.4 796.07 372.816 768.813 379.919 742.98C386.163 720.268 388.844 687.125 400.908 667.221C416.085 642.181 441.419 620.402 461.1 598.786C472.946 585.775 484.259 571.935 494.93 558.102C517.161 561.98 541.104 560.061 562.266 552.085C581.833 544.71 601.346 533.76 614.291 516.941C618.533 531.898 617.043 540.914 615.256 556.323C609.809 603.984 567.529 626.01 533.241 652.025C504.093 674.139 471.782 694.734 446.095 720.904C442.448 724.62 439.09 742.353 438.247 748.265C434.589 773.929 424.86 794.468 411.919 816.574Z" fill="url(#paint6_linear_2264_37439)"/>
<path d="M497.598 552.333C476.115 550.082 479.246 540.224 482.575 523.434C484.713 525.68 498.42 548.625 498.761 551.69L497.598 552.333Z" fill="#B9FBC0"/>
<path d="M470.074 535.519C471.072 534 471.21 529.023 471.439 526.754C471.567 529.414 471.183 532.998 471.989 535.064L472.977 535.631C473.766 535.255 473.84 535.233 474.58 534.746C474.28 537.133 473.784 541.983 473.193 544.063C471.658 541.1 470.75 538.789 470.074 535.519Z" fill="#B9FBC0"/>
<path d="M321.9 631.818C315.559 633.199 297.406 633.147 290.685 632.838C253.137 631.149 215.416 622.787 183.272 602.604C172.182 595.641 155.075 583.775 151.936 570.017C147.719 551.533 166.458 544.598 180.824 541.596L182.537 541.57C184.054 542.44 183.426 541.846 184.285 543.595C184.084 544.567 184.035 545.439 182.963 545.936C176.597 548.961 167.342 549.836 162.031 554.949C145.26 571.118 175.34 591.052 186.394 597.945C226.025 622.654 274.154 629.499 320.029 626.392C321.216 626.311 321.699 626.974 322.385 627.801C322.723 629.707 322.5 630.018 321.9 631.818Z" fill="#FEF9FD"/>
<path d="M377.846 554.775C375.231 555.729 372.327 554.471 371.234 551.912C370.141 549.352 371.24 546.385 373.737 545.155C375.477 544.299 377.546 544.474 379.118 545.609C380.689 546.744 381.505 548.654 381.238 550.574C380.972 552.495 379.667 554.11 377.846 554.775Z" fill="#FEF9FD"/>
<path d="M757.295 597.223C778.37 587.068 804.578 572.728 828.534 580.187C835.261 582.282 850.187 592.414 836.185 597.405C833.648 592.72 831.335 587.697 825.601 586.426C806.256 582.137 777.2 592.853 760.938 603.223C741.899 611.881 714.06 628.97 696.188 639.859L639.819 673.867C637.356 675.061 635.687 675.854 633.357 677.362L631.832 673.363C635.13 670.067 640.547 667.525 643.65 664.449C646.608 663.155 652.895 658.981 656.019 657.022L677.278 643.868C704.16 627.501 729.428 611.961 757.295 597.223Z" fill="#FEF9FD"/>
<path d="M628.468 674.9C616.88 681.092 605.889 687.551 594.669 694.362C587.403 698.773 578.826 703.37 572.055 708.516C570.606 705.935 568.704 702.922 567.099 700.403C557.112 684.734 550.287 667.33 541.391 651.156C570.887 627.449 592.199 619.379 611.691 584.016C613.103 598.507 616.889 617.413 619.263 631.894C620.641 640.3 625.612 668.468 628.468 674.9Z" fill="#A3C4F3"/>
<path d="M644.902 698.426C647.33 693.157 714.201 653.05 721.59 651.633C723.256 652.821 724.019 654.353 723.702 656.408C719.704 660.357 708.255 663.93 704.089 667.456C696.746 673.67 655.359 694.968 651.367 700.246L645.615 701.539L645.654 701.047L644.902 698.426Z" fill="#FEF9FD"/>
<path d="M733.467 688.58C718.44 689.909 719.348 679.023 724.967 668.962C730.198 659.597 738.306 654.267 748.558 651.539C750.299 651.435 752.71 651.512 754.509 651.513C768.302 660.742 752.056 679.316 742.564 684.695C739.002 686.713 737.412 687.498 733.467 688.58Z" fill="#FFCFD2"/>
<path d="M568.394 709.852C553.462 717.488 536.105 729.353 520.981 737.816C512.648 742.479 495.508 751.285 488.837 755.815C488.379 757.648 488.261 756.818 489.058 758.407C490.384 759.304 492.809 760.033 493.886 759.609C502.815 756.095 568.733 717.145 571.405 714.456C576.363 720.821 581.268 727.177 586.803 733.061C573.793 744.33 559.16 753.86 544.777 763.176C528.286 773.858 512.049 784.745 493.573 791.701C489.986 793.051 485.96 794.512 482.778 796.61C481.694 797.338 481.736 798.674 481.629 799.696C482.468 801.654 481.823 800.954 483.432 802.038C487.878 802.458 496.207 797.907 500.463 795.845C530.377 781.349 558.259 762.444 584.922 742.694C586.85 741.266 589.051 738.962 590.585 737.152L594.45 740.998C587.692 745.99 580.305 755.239 572.966 761.256C528.687 797.565 481.688 831.485 425.138 845.223C417.235 847.171 404.076 849.914 396.059 850.459C412.583 822.208 431.237 797.307 438.694 765.016C440.28 758.148 445.489 727.167 448.528 724.184C474.793 698.411 508.191 674.149 538.516 653.117C546.836 672.019 557.116 692.718 568.394 709.852Z" fill="url(#paint7_linear_2264_37439)"/>
<path d="M633.355 677.362C635.685 675.854 637.354 675.061 639.817 673.867C638.996 677.17 638.021 682.013 636.031 684.682L633.355 677.362Z" fill="#CFBAF0"/>
<path d="M572.055 708.514C578.826 703.368 587.403 698.771 594.669 694.36C605.889 687.549 616.88 681.09 628.468 674.898L630.151 680.573C611.948 691.559 593.432 702.274 574.78 712.475C573.738 711.193 572.949 709.897 572.055 708.514Z" fill="#FEF9FD"/>
<path d="M574.777 712.476C593.429 702.275 611.945 691.56 630.148 680.574L631.841 685.448C628.189 693.331 617.085 713.231 611.637 719.232C609.172 720.465 608.414 720.707 606.414 722.621C603.262 725.22 595.766 731.946 592.28 733.025C585.788 725.927 580.535 720.175 574.777 712.476Z" fill="#A3C4F3"/>
<path d="M611.64 719.233C617.088 713.232 628.192 693.332 631.844 685.449C634.637 690.884 638.702 701.948 645.657 701.046L645.618 701.538L644.088 702.353L643.906 703.014C648.727 705.104 663.766 702.092 669.585 701.659C705.223 699.004 740.001 708.984 774.274 718.125C777.245 722.635 778.705 725.72 778.577 731.424C778.413 738.73 775.58 751.481 768.566 754.937C768.476 753.292 770.768 752.294 770.248 751.11C768.1 751.646 767.944 751.627 766.232 752.942C765.186 755.026 765.526 756 766.278 758.324L766.424 758.76C739.79 755.368 715.173 755.592 688.612 759.598C670.794 762.285 649.785 767.349 632.002 763.343C621.909 760.671 604.309 745.316 596.84 737.578C600.894 736.374 607.353 729.247 611.566 726.2C617.477 721.925 623.28 717.613 629.301 713.434C632.932 710.913 640.205 707.229 642.527 704.242L642.219 703.624C632.707 703.071 622.57 713.239 615.552 718.636C613.725 720.041 612.297 721.677 610.057 722.372L611.64 719.233Z" fill="#F1EAD1"/>
<path d="M804.523 706.104C807.816 704.246 809.917 703.477 813.523 702.57C839.126 700.755 837.218 719.672 844.001 738.079C853.908 764.962 871.805 801.919 847.478 826.543C844.917 829.136 842.267 830.167 838.706 830.028L835.822 828.199C835.33 827.012 839.379 825.035 840.897 824.123C850.479 818.364 850.076 799.227 848.193 789.872C843.804 768.074 837.869 744.842 828.809 724.548C824.563 715.118 814.02 708.96 804.523 706.104Z" fill="#F1EAD1"/>
<path d="M601.162 730.368C605.141 728.029 607.007 725.749 610.054 722.371C612.294 721.676 613.722 720.04 615.549 718.635C622.567 713.238 632.704 703.07 642.216 703.623L642.524 704.241C640.202 707.228 632.929 710.912 629.298 713.433C623.277 717.612 617.474 721.924 611.563 726.199C607.35 729.246 600.891 736.373 596.837 737.577L594.57 735.42C596.759 733.578 599.083 732.407 601.162 730.368Z" fill="#98F5E1"/>
<path d="M796.762 753.579C806.053 739.907 799.766 723.098 786.148 715.214C815.36 698.872 829.52 724.529 835.077 749.322C839.274 768.053 859.942 817.076 833.084 824.771C831.237 822.199 818.58 799.412 818.398 798.108L820.097 797.058L820.067 796.027L819.589 795.644C818.741 795.87 816.628 796.642 816.134 796.302C813.743 794.654 811.129 789.735 809.291 787.853L806.263 783.541C807.663 782.426 808.008 782.193 809.563 781.306L810.591 781.967C813.576 781.179 816.379 779.987 819.18 778.694L819.811 778.492L819.137 774.948L819.553 774.666C819.703 774.792 819.853 774.918 820.003 775.043C830.454 790.011 814.815 782.914 810.632 786.404C811.704 787.311 812.03 787.091 813.641 787.375C817.393 785.653 821.578 784.75 824.026 788.77C828.007 795.308 822.801 795.084 820.999 797.445L821.365 798.079L822.171 797.946L822.552 796.755C823.637 796.067 823.056 796.187 824.284 796.351C824.029 797.312 823.973 797.622 823.861 798.611L824.946 798.794C829.564 796.189 825.488 781.101 823.953 776.814C821.872 775.286 819.705 774.12 819.148 771.597C818.599 769.112 818.191 767.648 816.603 765.725C815.754 764.697 810.19 761.773 810.089 761.462C808.044 755.118 806.665 749.112 798.092 753.901L796.762 753.579Z" fill="#FBF8CC"/>
<path d="M571.405 714.459C568.733 717.148 502.815 756.098 493.886 759.612C492.809 760.036 490.384 759.307 489.058 758.41C488.261 756.821 488.379 757.651 488.837 755.818C495.508 751.288 512.648 742.482 520.981 737.819C536.105 729.356 553.462 717.491 568.394 709.855L571.405 714.459Z" fill="#FEF9FD"/>
<path d="M768.945 759.781C782.199 748.939 785.947 731.917 777.124 717C783.75 716.476 790.112 719.269 793.386 724.975C802.963 741.666 799.17 749.61 785.227 759.239C779.389 762.34 774.984 761.102 768.945 759.781Z" fill="#FBF8CC"/>
<path d="M606.416 722.623C608.416 720.709 609.174 720.467 611.639 719.234L610.056 722.373C607.009 725.751 605.143 728.031 601.164 730.37L601.296 729.445C603.331 727.398 605.611 725.33 606.416 722.623Z" fill="#A6E7BD"/>
<path d="M592.281 733.025C595.767 731.946 603.263 725.22 606.415 722.621C605.61 725.328 603.33 727.396 601.295 729.443L601.163 730.368C599.084 732.407 596.76 733.578 594.571 735.42L592.281 733.025Z" fill="#B0F5D5"/>
<path d="M590.585 737.154C589.051 738.964 586.85 741.267 584.922 742.695C558.259 762.445 530.377 781.35 500.463 795.846C496.207 797.908 487.878 802.459 483.432 802.039C481.823 800.955 482.468 801.656 481.629 799.698C481.736 798.676 481.694 797.34 482.778 796.612C485.96 794.514 489.986 793.053 493.573 791.703C512.049 784.747 528.286 773.859 544.777 763.177C559.16 753.861 573.793 744.332 586.803 733.062C587.863 734.196 589.67 736.007 590.585 737.154Z" fill="#FEF9FD"/>
<path d="M798.094 753.903C806.667 749.114 808.046 755.12 810.091 761.464C810.192 761.775 815.756 764.699 816.605 765.727C818.193 767.65 818.601 769.114 819.15 771.599C819.707 774.122 821.874 775.288 823.955 776.816C825.49 781.103 829.566 796.191 824.948 798.796L823.863 798.613C823.975 797.624 824.031 797.314 824.286 796.353C823.058 796.189 823.639 796.069 822.554 796.757L822.173 797.948L821.367 798.081L821.001 797.447C822.803 795.086 828.009 795.31 824.028 788.772C821.58 784.752 817.395 785.655 813.643 787.377C812.032 787.093 811.706 787.313 810.634 786.406C814.817 782.916 830.456 790.013 820.005 775.045C819.855 774.92 819.705 774.794 819.555 774.668L819.139 774.95L819.813 778.494L819.182 778.696C816.753 775.548 818.138 773.462 813.238 773.132C814.157 771.96 815.226 771.782 816.508 770.904L816.407 769.771C814.695 767.182 813.668 765.24 810.693 764.195C804.584 764.862 806.39 772.735 802.838 775.512L801.973 774.837C801.034 772.454 801.247 770.191 801.229 767.592C802.396 769.746 802.656 772.005 803.137 774.433C803.579 769.668 803.675 765.401 806.863 761.659C809.849 757.73 803.101 753.007 798.094 753.903Z" fill="#42391A"/>
<path d="M789.488 759.996C792.052 757.864 794.307 755.833 796.764 753.578L798.094 753.9C797.729 754.855 797.176 755.617 797.557 756.307C798.866 758.674 804.185 760.482 806.863 761.656C803.675 765.398 803.579 769.665 803.137 774.43C802.656 772.002 802.396 769.743 801.229 767.589C793.446 770.316 796.586 762.629 793.395 759.799L792.772 760.649C791.669 760.413 790.594 760.208 789.488 759.996ZM795.724 758.264C796.107 759.717 796.81 763.426 797.654 764.229L798.3 764.105C797.884 761.833 797.612 759.646 795.724 758.264Z" fill="#F1EAD1"/>
<path d="M798.091 753.904C803.098 753.008 809.846 757.731 806.86 761.66C804.182 760.486 798.863 758.678 797.554 756.311C797.173 755.621 797.726 754.859 798.091 753.904Z" fill="#FBF8CC"/>
<path d="M798.299 764.107L797.653 764.231C796.809 763.428 796.106 759.719 795.723 758.266C797.611 759.648 797.883 761.835 798.299 764.107Z" fill="#42391A"/>
<path d="M800.612 777.036C796.377 771.749 791.454 767.38 787.078 762.238C787.595 760.917 788.057 760.978 789.485 759.998C790.591 760.21 791.666 760.415 792.769 760.651L793.392 759.801C796.583 762.631 793.443 770.318 801.226 767.591C801.244 770.19 801.031 772.453 801.97 774.836L802.835 775.511C806.387 772.734 804.581 764.861 810.69 764.194C813.665 765.239 814.692 767.181 816.404 769.77L816.505 770.903C815.223 771.781 814.154 771.959 813.235 773.131L813.922 775.729C810.919 777.591 807.762 779.839 804.524 781.117C803.282 779.735 802.013 778.231 800.612 777.036Z" fill="#FBF8CC"/>
<path d="M813.235 773.133C818.135 773.463 816.751 775.549 819.18 778.697C816.379 779.99 813.575 781.182 810.59 781.97L809.562 781.309C811.118 779.928 813.55 778.032 814.49 776.302L813.922 775.731L813.235 773.133Z" fill="#F1EAD1"/>
<path d="M813.923 775.73L814.49 776.301C813.55 778.031 811.119 779.927 809.563 781.308C808.008 782.195 807.663 782.428 806.263 783.543L809.291 787.855L808.189 787.484C806.373 785.061 801.029 779.204 800.613 777.037C802.014 778.232 803.283 779.736 804.525 781.118C807.763 779.84 810.92 777.592 813.923 775.73Z" fill="#42391A"/>
<path d="M356.35 821.235C356.759 822.861 356.666 823.813 357.689 824.694L360.915 823.284C369.052 825.363 366.014 826.062 372.239 820.114C377.649 814.945 405.45 812.012 410.017 815.876C411.185 816.012 410.803 815.97 411.917 816.577C405.076 828.229 397.626 839.534 390.953 851.238C377.327 851.832 359.13 852.649 345.543 851.887C349.295 843.191 353.234 830.423 356.35 821.235Z" fill="#90DBF4"/>
<path d="M489.539 917.387C468.173 920.52 455.497 899.851 466.177 885.059C477.37 869.558 517.97 843.32 536.12 839.031C547.822 838.182 558.442 842.196 562.094 854.457C566.743 870.779 553.183 881.818 541.842 890.429C525.384 902.926 509.768 912.413 489.539 917.387Z" fill="#FDE4CF"/>
<path d="M281.562 841.406C283.186 840.11 282.749 840.023 284.238 839.928C288.682 839.401 291.774 839.405 296.164 839.819C300.404 840.219 307.45 843.342 311.181 843.265C321.287 843.054 331.673 839.89 340.333 847.859C341.672 847.782 342.719 846.265 344.264 845.36L341.88 852.38C340.205 851.897 336.67 851.73 334.781 851.61C316.449 850.441 299.264 846.277 281.562 841.406Z" fill="#90DBF4"/>
<path d="M345.544 851.887C359.131 852.649 377.328 851.832 390.954 851.238C388.217 855.885 385.376 860.568 382.783 865.291C381.513 867.604 376.949 874.895 381.339 875.893L381.066 877.618C379.282 875.865 378.867 875.768 376.566 874.626C362.476 875.672 347.387 876.213 342.863 859.406C343.721 855.955 344.004 855.121 345.544 851.887Z" fill="#FDE4CF"/>
<path d="M325.52 934.144C314.552 937.568 304.992 940.698 292.125 940.34C283.238 940.093 266.147 936.521 265.68 923.731C265.622 922.16 269.226 919.804 270.701 918.953C284.129 911.21 298.024 903.649 309.757 893.403C315.249 888.637 320.045 881.371 326.047 877.505C341.778 876.872 341.989 891.123 355.548 894.101C364.12 895.984 374.18 891.258 381.157 886.541C382.679 893.283 386.945 910.976 382.808 916.832C375.246 927.535 354.656 927.666 343.258 929.529C336.918 930.565 331.168 932.344 325.52 934.144ZM319.478 909.197C318.117 905.669 315.339 901.911 311.16 902.101L310.381 902.676C311.01 905.243 315.075 905.386 317.023 910.927C314.004 913.519 315.425 911.657 311.726 913.342C310.918 914.904 311.04 914.092 311.427 915.871C315.467 919.171 331.506 904.065 335.661 901.487C338.908 899.472 345.882 895.633 348.249 893.209L347.804 892.596C344.366 892.243 342.012 893.836 339.007 895.431C336.678 891.96 331.162 885.116 326.434 886.304C326.658 888.3 329.719 890.645 331.239 891.82C333.81 893.806 334.296 894.68 336.122 897.284C333.414 899.217 331.096 901.413 328.63 903.642C327.421 901.234 322.267 892.424 319.143 896.973C319.605 898.812 323.715 901.484 325.397 904.827C322.56 906.551 321.967 906.994 319.478 909.197Z" fill="#F1EAD1"/>
<path d="M317.026 910.928C317.1 910.351 317.227 909.855 317.352 909.287L319.481 909.198C321.97 906.995 322.563 906.552 325.4 904.828C323.718 901.485 319.608 898.813 319.146 896.974C322.27 892.425 327.424 901.235 328.633 903.643C331.099 901.414 333.417 899.218 336.125 897.285C334.299 894.681 333.813 893.807 331.242 891.821C329.722 890.646 326.661 888.301 326.437 886.305C331.165 885.117 336.681 891.961 339.01 895.432C342.015 893.837 344.369 892.244 347.807 892.597L348.252 893.21C345.885 895.634 338.911 899.473 335.664 901.488C331.509 904.066 315.47 919.172 311.43 915.872C311.043 914.093 310.921 914.905 311.729 913.343C315.428 911.658 314.007 913.52 317.026 910.928Z" fill="#42391A"/>
<path d="M319.48 909.197L317.351 909.286C317.226 909.854 317.099 910.35 317.025 910.927C315.077 905.386 311.012 905.243 310.383 902.676L311.162 902.101C315.341 901.911 318.119 905.669 319.48 909.197Z" fill="#52411E"/>
<path d="M251.891 932.37C252.605 929.374 253.773 926.187 256.417 924.355C257.711 923.458 261.425 921.47 262.95 921.673C263.486 927.572 261.999 929.848 267.309 934.72C275.623 942.35 286.309 944.319 297.263 943.988C312.416 943.531 325.959 936.541 340.578 933.426C350.394 931.338 360.657 931.688 370.188 928.332C375.947 926.305 380.803 923.942 384.958 919.43C387.697 922.165 383.144 933.47 380.824 936.064C369.688 948.511 351.654 942.429 337.256 945.319C325.717 947.636 315.59 953.964 303.759 955.094C287.314 956.96 253.969 953.55 251.891 932.37Z" fill="#F1EAD1"/>
<defs>
<linearGradient id="paint0_linear_2264_37439" x1="690.923" y1="72.3852" x2="554.198" y2="652.666" gradientUnits="userSpaceOnUse">
<stop stop-color="#FFC1D5"/>
<stop offset="1" stop-color="#E3D2F8"/>
</linearGradient>
<linearGradient id="paint1_linear_2264_37439" x1="465.705" y1="313.43" x2="475.905" y2="337.326" gradientUnits="userSpaceOnUse">
<stop stop-color="#F9FBFB"/>
<stop offset="1" stop-color="#FFF5FF"/>
</linearGradient>
<linearGradient id="paint2_linear_2264_37439" x1="359.141" y1="364.807" x2="349.534" y2="360.554" gradientUnits="userSpaceOnUse">
<stop stop-color="#39362B"/>
<stop offset="1" stop-color="#513D3D"/>
</linearGradient>
<linearGradient id="paint3_linear_2264_37439" x1="408.275" y1="348.845" x2="405.829" y2="354.669" gradientUnits="userSpaceOnUse">
<stop stop-color="#DAF9D7"/>
<stop offset="1" stop-color="#F0F4E4"/>
</linearGradient>
<linearGradient id="paint4_linear_2264_37439" x1="440.99" y1="471.372" x2="465.935" y2="455.48" gradientUnits="userSpaceOnUse">
<stop stop-color="#FFFEFC"/>
<stop offset="1" stop-color="#FFF3FF"/>
</linearGradient>
<linearGradient id="paint5_linear_2264_37439" x1="367.673" y1="413.946" x2="181.383" y2="797.048" gradientUnits="userSpaceOnUse">
<stop stop-color="#FAC7F3"/>
<stop offset="1" stop-color="#93E4F5"/>
</linearGradient>
<linearGradient id="paint6_linear_2264_37439" x1="481.766" y1="523.665" x2="490.088" y2="821.489" gradientUnits="userSpaceOnUse">
<stop stop-color="#EDCBF4"/>
<stop offset="1" stop-color="#93DFF2"/>
</linearGradient>
<linearGradient id="paint7_linear_2264_37439" x1="503.447" y1="813.074" x2="449.454" y2="694.637" gradientUnits="userSpaceOnUse">
<stop stop-color="#86E2F1"/>
<stop offset="1" stop-color="#C2D4F5"/>
</linearGradient>
</defs>
</svg>
