<svg width="1024" height="1024" viewBox="0 0 1024 1024" fill="none" xmlns="http://www.w3.org/2000/svg">
<path d="M596.949 115.41C597.144 117.416 597.471 120.701 597.146 122.574C595.888 129.806 592.248 134.362 594.718 142.008C596.041 146.107 597.976 149.926 599.828 153.882C602.247 161.78 600.75 162.225 593.313 164.882C595.219 173.012 592.072 176.165 589.52 183.546C588.451 186.638 588.828 190.937 586.692 193.897C581.5 202.345 568.773 200.531 560.29 199.511C555.226 205.826 552.905 212.529 549.861 219.979C552.336 221.136 556.308 222.713 558.043 224.678L559.757 226.483C561.966 229.215 563.002 230.376 564.633 233.495C562.545 237.499 559.972 239.508 557.166 242.845C552.285 248.649 557.476 256.846 560.186 263.004C566.021 276.264 571.912 289.868 576.206 303.772C581.762 321.914 583.356 341.243 586.552 359.88C590.982 388.421 596.679 418.723 597.239 447.527C597.508 461.377 594.739 481.121 592.134 494.571L590.916 499.748L590.182 502.966C589.582 506.804 588.123 514.345 586.942 518C582.661 515.746 582.176 515.261 579.739 510.963C577.89 522.77 574.39 540.435 575.451 552.431C576.814 557.994 580.434 564.536 582.687 569.674C592.424 591.881 603.22 614.9 610.494 638.011C615.383 653.545 618.508 660.668 628.733 673.148C634.225 679.85 635.02 698.142 631.955 706.427C626.534 719.104 620.414 728.018 611.035 738.26L610.067 738.148C609.752 737.051 609.931 736.345 610.676 735.403C620.063 723.525 628.074 715.542 631.093 700.119C633.556 675.914 623.994 674.339 614.295 655.029C611.829 650.121 608.832 639.821 606.93 634.301C595.461 601.028 579.387 569.658 565.925 537.227C564.494 533.773 564.941 524.455 564.969 520.353C543.959 524.629 536.097 520.982 517.094 520.12C512.524 519.033 507.906 518.058 503.314 517.059C503.716 519.219 505.581 530.091 506.42 531.337C506.927 534.277 506.612 534.764 505.405 537.541C506.4 541.397 508.963 544.821 510.47 548.523C516.052 562.245 517.141 571.675 514.025 585.757C513.015 589.516 511.911 594.105 510.616 597.702C532.254 622.934 552.797 654.576 567.186 684.546C572.215 695.021 575.876 706.036 580.61 715.95C581.281 718.125 581.942 720.304 582.647 722.468C586.413 732.326 590.222 742.33 594.493 751.974C600.502 765.507 606.299 777.96 613.44 790.903C620.261 803.265 628.304 815.68 634.663 828.159C639.161 836.654 644.013 848.14 648.258 857.119C659.121 853.809 674.974 846.513 684.977 841.117C682.594 833.234 676.239 825.896 672.21 818.513C666.474 808.003 661.412 797.384 656.064 786.707C647.817 765.914 641.573 750.12 636.175 728.473L634.046 718.993C633.448 716.498 633.487 714.808 633.396 712.267C637.584 717.362 639.12 731.944 641.099 738.627C645.531 753.59 651.354 768.031 656.915 782.559C662.502 795.176 668.397 806.798 674.989 818.914C677.556 823.63 684.086 832.39 685.599 836.932C687.935 843.945 690.393 854.334 690.932 861.64C695.761 867.025 700.815 876.051 706.284 882.867C706.501 879.873 707.038 872.711 712.2 874.105C717.009 875.403 720.862 883.121 723.065 887.451C727.524 887.3 764.849 888.565 768.427 889.612C765.936 892.356 766.747 892.002 762.812 892.767L761.721 894.163C760.794 891.64 761.399 892.295 759.518 890.681C756.753 890.697 756.315 893.353 756.389 895.658L757.005 896.729C759.55 896.721 759.228 895.094 762 894.844C762.784 897.55 760.023 899.187 757.833 899.205C753.158 899.244 754.778 893.335 755.457 890.479C752.331 891.215 747.568 890.916 744.269 890.733C742.555 892.289 741.269 893.166 740.876 895.355C742.337 897.119 744.964 897.418 745.797 898.466C744.975 899.755 741.681 900.06 740.733 899.214C736.506 895.445 739.464 892.897 741.193 890.286C737.095 889.603 728.303 887.979 727.305 894.457C727.103 895.763 727.811 896.304 728.589 897.174C732.595 898.522 733.818 891.682 735.572 891.527C735.879 894.206 735.776 895.463 735.879 898.011C729.748 898.964 723.177 899.284 716.693 900.224C729.933 904.515 752.694 904.407 766.025 899.88C767.251 899.463 768.475 897.92 768.514 896.529C769.198 893.947 768.612 891.319 769.453 888.073C771.005 888.078 774.86 888.043 776.128 887.629C782.727 885.474 787.938 881.735 795.267 883.894C800.792 885.522 806.854 890.054 809.628 895.249C811.283 898.347 811.522 902.428 810.274 905.761C802.943 925.321 777.678 938.083 758.969 943.98C751.331 946.387 742.86 947.087 735.454 949.949C726.229 953.514 718.229 959.901 709.439 964.252C701.251 968.304 687.579 972.728 678.508 969.713C673.996 968.16 671.107 964.31 669.29 960.087C668.046 957.22 667.289 954.146 666.528 951.109C664.264 942.069 661.388 933.077 659.669 923.921C659.402 922.498 659.452 920.217 660.123 918.901C661.102 916.978 663.469 916.44 665.368 915.828C660.365 905.868 653.743 892.266 648.178 882.899C644.389 884.299 642.513 884.937 638.595 885.782C626.345 881.899 626.776 870.666 622.253 861.489C621.678 860.323 612.822 848.765 611.311 846.737C608.95 843.513 605.815 838.329 603.526 834.844C595.829 822.746 588.333 808.72 583.266 795.319C578.842 783.617 575.406 771.3 570.833 759.599C565.975 747.376 549.721 712.649 541.479 703.762C530.802 692.25 515.512 677.386 504.207 664.48C495.522 677.868 489.018 688.383 481.893 702.846C476.528 713.738 471.622 727.634 464.758 737.057C456.117 748.919 440.278 756.12 430.245 765.963C422.8 773.955 417.904 783.634 412.007 792.785C405.685 802.593 399.68 811.454 392.902 821.136C386.489 830.298 377.562 839.413 370.545 848.166C370.042 848.793 368.317 855.745 367.085 858.264C361.157 868.149 360.815 871.38 348.477 869.827C347.343 872.922 346.553 876.148 345.702 879.335C350.904 884.119 353.015 890.286 353.308 897.228C352.403 898.615 352.256 898.308 350.387 899.096C349.086 902.489 366.386 923.453 367.519 931.574C372.156 935.45 375.183 937.832 380.281 940.771C389.007 945.726 396.507 945.404 401.629 955.037C410.664 972.028 393.945 973.336 380.895 974.567C356.725 976.846 331.953 974.493 313.493 956.748C309.466 952.877 304.771 948.06 299.994 945.128C294.688 942.169 286.308 942.034 280.589 939.633C270.876 935.962 261.182 927.573 256.658 918.15C250.696 905.734 262.807 898.573 269.962 891.02C277.901 882.638 281.777 875.586 292.805 870.988C294.075 868.431 297.631 863.299 299.291 860.615C302.319 855.718 304.42 851.724 307.025 846.622L304.244 843.262C308.047 834.579 311.163 826.942 317.045 819.414C318.907 817.123 318.742 817.603 321.581 817.193C325.217 813.266 332.613 783.872 335.379 776.644C337.518 771.434 339.465 763.61 342.315 758.868C351.852 743 363.141 728.706 372.711 712.684C382.119 696.933 392.784 684.078 398.333 666.035C400.199 657.724 401.588 648.793 403.118 640.367C408.443 611.043 417.751 582.113 423.355 552.964C412.342 534.943 409.955 523.152 408.174 502.212C407.985 499.149 407.611 498.265 406.66 495.447C407.137 492.455 407.278 489.384 407.489 486.356C390.008 490.18 366.297 491.93 350.303 482.542C337.165 474.83 321.764 455.739 318.036 440.694C316.374 433.986 316.809 425.473 317.363 418.565C318.387 412.001 317.529 400.411 319.683 394.491C326.292 376.324 338.111 355.479 347.696 339.201C351.343 333.632 356.819 325.506 359.496 319.658C363.001 312.003 366.05 303.416 369.368 295.505C379.447 273.411 392.707 261.127 416.001 254.338C420.301 253.363 423.001 252.681 427.148 251.257C434.052 228.15 446.077 215.266 468.288 206.162C469.69 200.939 471.069 200.294 473.176 196.112C479.84 182.889 482.647 178.164 498.158 182.696C497.853 171.908 494.614 168.955 491.563 159.151C490.046 155.136 489.426 146.614 487.647 143.08C477.615 123.145 475.683 105.339 489.321 86.1872C499.057 73.0615 513.856 65.9512 529.188 63.3306C551.221 59.5647 558.111 68.8671 576.179 77.1716C583.551 80.5597 598.67 77.7844 604.287 88.3742C605.971 91.6138 607.712 96.2702 608.351 99.8717C608.995 103.5 613.483 113.894 610.675 116.58C608.593 113.149 605.817 98.1827 604.433 93.9455C599.558 79.0192 584.119 83.2117 572.784 78.3814C567.017 75.979 562.108 71.4575 556.478 68.8239C532.197 57.4653 497.67 71.3744 486.357 95.1977C481.907 103.943 479.684 119.779 484.387 128.995C490.541 141.055 491.673 152.051 495.904 164.356C497.597 164.641 499.665 165.073 501.374 164.869C523.737 162.206 508.256 136.573 518.224 125.932C523.129 120.697 533.305 124.446 538.783 124.232C547.935 123.874 561.415 119.276 567.78 112.529C575.541 104.305 567.34 96.0468 567.164 91.8397L567.953 91.3028C571.858 91.406 581.746 94.6666 585.492 96.0255C592.834 98.6885 598.53 114.103 601.591 121.128C601.409 118.572 600.513 109.644 601.155 107.9C602.998 109.194 604.293 126.614 602.804 129.287L602.083 128.633C600.64 124.17 598.735 119.757 596.949 115.41ZM500.176 183.602C508.71 188.965 514.629 194.363 522.597 200.178C527.453 204.457 542.329 217.27 547.832 218.63C548.872 217.401 548.838 217.145 549.326 215.634C552.099 209.024 554.124 204.525 557.879 198.448C550.831 196.151 539.681 191.169 539.311 182.477C540.439 182.144 543.774 187.634 545.238 188.963C556.569 199.246 588.051 206.052 587.662 181.983C587.653 181.46 589.164 178.92 589.409 177.533C588.395 176.747 588.349 176.727 587.556 175.727C588.442 173.47 589.828 174.177 591.775 171.341C592.279 169.285 591.213 167.482 590.795 165.305C592.145 161.64 593.566 162.475 597.526 160.634C601.162 155.724 591.351 144.685 591.788 138.434C591.849 137.56 591.696 137.054 591.334 136.318C590.277 136.887 589.422 137.298 588.343 137.8C587.065 137.481 586.229 137.443 585.399 136.451C587.762 135.622 592.434 133.929 592.716 131.121C590.357 128.939 584.755 131.517 580.558 130.867L580.52 130.083C582.944 127.451 589.481 127.716 592.912 127.828C595.696 119.406 593.37 110.243 589.528 102.434C586.704 96.6944 576.045 95.4178 570.234 94.1823C571.041 96.0303 571.799 97.9564 572.42 99.8757C578.028 117.2 554.708 123.235 542.806 126.543C544.15 131.404 543.63 132.178 542.738 137.067C542.224 139.883 543.511 145.321 540.29 147.09C537.217 144.218 540.094 140.111 539.192 136.188C538.44 132.926 537.168 131.247 535.377 128.536C530.666 126.973 529.379 123.834 523.312 125.42C507.655 129.511 523.207 162.017 533.35 157.588C534.708 155.459 533.598 154.541 534.519 152.035L535.452 152.078C536.169 152.974 536.487 153.462 536.291 154.727C534.179 168.375 520.508 153.622 517.315 148.693C516.765 153.296 514.217 161.701 512.137 165.912C509.107 172.05 505.822 173.42 499.924 175.352C499.958 178.057 500.088 180.887 500.176 183.602ZM481.754 206.499C460.776 205.601 436.937 226.521 430.823 245.945C430.35 247.448 429.472 249.374 429.77 250.882C432.471 251.213 435.478 244.385 437.19 241.871C447.869 226.178 456.057 216.681 475.625 214.743C485.993 215.058 493.494 217.243 501.502 224.107C514.113 234.916 524.368 252.831 526.473 269.351C530.021 297.851 519.931 326.949 508.144 352.496C503.691 362.148 496.524 370.081 492.189 378.554C487.31 388.091 489.722 406.022 490.298 416.442C490.676 423.288 489.935 431.001 490.608 437.896C494.684 458.355 498.322 476.477 500.212 497.353C506.867 497.559 513.528 500.106 520.012 501.408C538.44 505.109 560.871 512.554 577.659 500.853C578.219 476.428 577.45 450.473 575.194 426.17C573.487 407.784 569.682 390.021 569.152 371.38C568.347 343.112 566.822 313.664 557.61 286.729C552.365 271.161 545.323 259.036 546.596 242.293C544.156 246.16 542.298 248.578 539.029 251.691C535 248.076 525.732 235.211 521.114 229.766C511.745 218.72 496.772 207.46 481.754 206.499ZM535.407 213.804C525.567 206.204 516.237 197.957 506.316 190.497C499.302 185.223 492.486 181.929 483.574 183.972C479.996 187.273 472.857 200.346 470.812 204.999C495.53 200.546 514.785 217.404 528.916 235.668C532.291 240.031 535.757 245.117 539.298 249.244L546.702 238.351C548.424 234.943 550.127 231.835 551.998 228.504L554.07 225.648C554.744 226.849 554.953 226.698 554.338 228.17C552.426 232.753 550.426 236.367 549.225 241.26C548.626 245.237 548.2 248.327 548.689 252.378C549.22 255.673 550.123 259.342 551.252 262.46C557.981 280.147 563.801 296.742 566.79 315.506C570.508 338.844 570.448 361.438 572.077 384.871C572.835 395.78 575.046 407.714 576.364 418.697C579.733 446.774 579.775 474.69 580.162 502.9C580.211 505.648 581.842 512.815 585.288 513.04C587.61 510.645 587.665 502.678 588.633 499.043C601.067 453.333 591.964 409.274 584.941 363.842C579.761 330.332 576.767 302.265 561.377 271.294C558.893 266.295 554.284 255.843 552.89 250.661C552.847 247.479 552.911 246.885 553.808 243.833C555.798 240.015 562.883 235.545 560.236 230.348C559.406 228.72 556.106 226.082 554.364 225.335C553.669 224.53 538.023 215.41 535.407 213.804ZM472.3 217.335C454.978 220.585 449.032 228.34 438.928 242.542C437.288 244.847 434.307 248.961 433.721 251.487L434.05 251.791C441.382 239.951 458.73 223.752 472.026 218.903C475.058 218.262 478.033 218.852 481.008 219.359C497.743 222.208 505.48 235.18 510.888 250.059C513.866 258.252 516.662 266.52 517.132 275.505C518.43 300.27 509.717 325.049 502.166 348.313C498.886 358.2 494.559 362.293 492.424 373.772C492.583 373.585 492.742 373.398 492.901 373.211C511.484 348.128 527.165 305.144 524.744 273.976C523.322 255.675 512.892 236.313 499.04 224.983C490.327 217.855 483.16 216.345 472.3 217.335ZM391.427 290.081C396.269 281.634 401.547 272.208 409.024 265.925C413.807 261.906 418.906 258.411 423.693 254.286C399.222 260.914 384.412 269.011 373.08 292.998C368.454 301.691 365.028 315.782 360.24 323.05C346.106 344.501 335.35 364.17 324.754 387.615C327.843 388.122 332.03 389.22 335.168 389.953C339.912 367.463 350.835 347.564 364.892 329.627C378.092 312.784 382.112 309.687 391.427 290.081ZM493.561 325.188L493.626 324.57C494.03 320.416 493.944 302.749 495.246 300.671L496.066 300.833C497.395 305.876 495.378 352.641 494.835 360.019C505.398 339.306 514.649 303.242 514.968 278.783C515.23 258.782 500.084 212.371 469.458 222.353C459.957 225.45 447.201 239.317 439.931 246.306C426.433 260.664 427.275 278.808 426.065 296.873C425.277 308.642 424.741 320.576 423.813 332.218C426.589 326.83 446.134 288.303 449.187 285.62L449.497 285.948C447.156 294.926 435.095 314.745 430.671 323.591C428.852 327.228 424.526 334.007 423.847 337.986C422.309 346.999 422.618 358.816 422.463 368.085C426.46 362.733 436.682 348.112 442.821 346.19L443.282 346.759C442.838 347.494 442.614 347.899 442.093 348.583C436.777 352.414 429.393 362.393 425.093 367.812C419.239 375.189 418.16 388.521 419.482 397.56C420.323 402.445 422.099 407.554 422.924 412.388C427.582 439.503 436.424 465.396 445.012 491.446C447.465 498.889 451.174 517.076 457.133 521.287C472.99 520.159 485.365 512.079 498.056 503.311C497.977 481.263 493.123 462.551 488.748 441.175C487.264 433.919 488.382 424.682 487.91 417.215C487.481 410.419 487.143 403.518 486.696 396.714C486.59 388.484 490.141 376.268 491.346 367.679C493.267 353.984 493.938 339.006 493.561 325.188ZM341.091 400.917C343.203 400.63 342.612 401.133 343.67 399.981C343.838 398.62 344.076 397.089 343.134 395.974C340.102 392.388 328.312 390.373 323.573 389.233C320.524 397.459 320.478 402.13 320.023 410.989C349.178 421.65 359.396 425.338 390.142 416.667C393.015 409.536 393.311 404.707 393.713 396.971C389.394 396.901 347.636 395.842 346.45 396.311C346.377 398.828 347.166 402.604 349.572 403.872C352.295 403.24 351.412 402.972 354.782 402.912L354.729 402.52C352.794 401.814 351.34 401.477 349.837 400.122L349.605 399.292C350.98 398.475 351.391 398.653 353.009 398.674C354.543 399.594 357.365 401.025 357.897 402.579C356.009 404.688 351.394 403.95 350.73 405.68C353.111 406.859 355.385 407.634 357.871 408.546C354.726 408.047 349.268 406.681 346.758 408.549C344.841 409.975 343.115 412.224 340.912 413.071C339.373 412.6 339.976 413.036 339.049 411.71C339.566 410.292 339.163 410.949 340.809 410C341.639 410.577 341.269 410.183 341.796 411.287C342.824 410.619 343.191 409.973 343.946 408.995L344.106 407.688C342.936 406.976 343.565 407.185 342.126 407.303C343.209 403.616 343.477 403.676 341.091 400.917ZM418.53 506.139C415.653 504.042 413.291 502.44 410.278 500.542C410.999 519.563 417.701 544.474 430.128 559.045C433.899 565.854 449.766 584.197 455.854 589.999C456.848 591.646 458.674 593.742 459.933 595.285C470.326 581.757 469.321 579.126 464.996 563.497C462.69 555.2 463.2 554.417 463.585 545.862C461.997 545.336 461.56 545.663 461.614 543.97C461.837 537.023 460.85 531.488 458.653 524.946C456.652 523.679 451.168 518.433 450.107 518.212C438.103 515.716 429.494 511.638 418.53 506.139ZM428.263 561.292L425.198 555.927C417.133 591.779 406.653 626.755 401.191 663.25C399.464 674.795 392.961 683.72 387.451 693.61C393.528 689.469 400.72 684.736 406.554 680.343C408.177 679.182 412.485 675.662 413.953 675.626C414.194 678.112 408.063 681.809 406.011 683.237C395.01 690.89 386.572 694.759 379.378 706.498C376.839 710.34 374.333 714.12 371.909 718.04C374.953 715.902 377.621 714.132 381.027 712.57C386.736 709.772 402.494 702.205 408.108 702.002L408.356 702.436C406.401 704.697 395.606 707.903 390.977 710.379L390.439 710.672C382.891 713.966 373.872 717.485 368.427 723.955C362.863 730.564 358.026 740.28 352.513 746.673C335.483 766.421 335.266 798.459 323.365 818.988C326.052 821.395 328.837 823.968 331.599 826.261L337.701 831.655C339.314 827.849 344.186 819.854 346.423 815.129C353.881 799.381 361.962 783.714 370.349 768.449C374.708 760.516 379.669 749.992 385.237 742.992C393.362 732.777 406.963 728.93 413.398 716.365C417.008 709.452 420.122 702.178 423.058 694.949C426.642 686.126 430.776 677.112 433.842 668.106C438.868 653.343 442.852 638.206 448.23 623.543C451.31 615.143 453.68 606.113 457.331 597.975L457.721 597.114C455.298 593.224 449.747 586.912 446.672 583.309C440.374 575.93 434.282 568.922 428.263 561.292ZM470.861 600.084C468.753 601.778 467.552 602.652 465.261 604.08C469.611 611.211 474.369 618.305 478.933 625.325C482.392 630.647 486.341 637.43 490.203 642.392C501.013 657.334 522.593 684.89 537.52 695.707L544.662 703.549C553.371 716.909 565.16 740.981 571.695 755.968C576.734 768.687 580.574 781.705 585.446 794.354C593.225 814.549 604.269 833.18 616.963 850.658C619.336 853.925 623.727 860.674 626.97 863.223C627.99 864.024 631.653 863.078 632.99 862.768C637.624 861.246 642.115 859.42 646.651 857.632C642.535 847.584 634.278 832.158 629.172 822.543C624.825 814.443 619.18 806.098 614.732 797.979C605.939 781.932 594.893 761.184 588.644 743.966C586.147 738.519 582.696 728.295 580.413 722.314L578.661 717.498C563.34 673.705 538.848 636.029 509.826 600.21C506.285 605.634 499.968 611.751 494.314 615.018C489.828 617.611 487.751 617.922 483.057 616.6C480.557 614.926 479.349 614.651 479.022 611.615C479.649 609.253 489.114 581.71 488.978 581.847L489.997 582.139C491.53 587.205 480.837 608.312 481.997 613.2C489.014 617.737 495.039 601.807 496.988 596.951C498.91 592.162 497.324 586.117 501.632 581.328L502.086 581.803C502.329 584.654 500.843 586.05 500.756 587.989C500.244 599.447 495.125 605.876 489.114 615.418C499.816 609.776 506.513 603.826 510.135 592.251C517.064 570.105 512.885 557.683 502.665 538.206C487.368 543.376 481.753 544.827 465.746 545.91C464.297 560.483 468.232 563.352 470.353 577.035C471.492 584.384 465.165 591.993 460.683 597.511C469.987 607.712 479.205 584.3 480.972 577.561C481.283 577.386 481.594 577.211 481.905 577.035L482.752 577.389C484.098 583.6 474.928 595.776 470.861 600.084ZM493.668 650.514C482.805 636.068 473.327 621.474 463.833 606.117C462.323 603.674 460.871 601.244 459.211 598.897C452.458 613.717 447.862 631.777 442.4 647.162C440.28 653.132 438.919 659.71 436.756 665.715C431.401 682.143 423.201 697.81 416.702 713.643C411.185 730.153 392.652 733.695 384.343 747.205C372.205 766.942 362.016 788.582 351.469 809.255C349.22 813.663 342.361 829.457 338.85 831.348L338.9 832.158C343.059 835.603 357.864 843.86 363.057 846.381C363.937 846.772 365.784 847.843 366.449 847.612C369.71 846.478 373.515 841.02 375.847 838.47C392.677 819.626 407.162 796.996 420.289 775.396C432.129 755.914 450.65 751.953 463.856 734.86C468.99 728.215 474.037 713.691 478.115 705.775C485.696 691.057 492.981 676.658 502.77 663.165L493.668 650.514ZM329.964 828.224C326.777 825.256 323.516 822.283 320.461 819.187C313.118 826.551 310.942 833.525 307.037 843.222C311.781 848.125 318.169 851.434 324.262 854.414L335.028 860.049C352.795 870.061 359.346 873.964 367.711 851.036C365.819 850.129 363.819 849.267 361.899 848.406C350.735 842.648 339.684 836.188 329.964 828.224ZM648.737 859.243C640.349 862.429 634.88 865.02 626.06 866.3C634.185 886.643 637.626 886.02 656.668 876.888C662.751 873.873 685.044 864.014 688.811 860.652C688.269 854.401 686.896 849.856 685.024 843.865C671.027 849.911 663.863 853.728 648.737 859.243ZM716.588 893.845C715.213 894.948 713.824 895.431 713.22 896.937C714.232 897.944 715.002 897.912 716.423 898.162C720.394 898.248 721.523 897.815 725.094 896.45C725.562 893.823 726.303 892.609 727.041 890.171L726.671 889.574C723.687 889.504 719.15 892.339 716.588 893.845ZM345.288 896.802C344.585 895.818 344.053 894.577 342.733 894.525C339.851 894.412 337.613 895.939 336.955 898.696C338.72 900.572 342.313 898.527 344.515 897.649C345.382 899.327 345.609 899.064 345.341 900.559C342.872 901.778 341.066 900.471 339.046 901.91C338.515 903.517 338.706 905.091 339.81 906.471C341.901 906.017 342.738 904.785 344.873 904.717C346.653 904.985 347.859 904.821 348.956 905.807C347.666 907.178 344.883 907.766 343.062 908.164C342.274 908.96 342.524 908.498 342.269 909.527L341.023 909.212C340.606 910.88 342.076 914.157 342.745 915.953C344.208 914.915 345.691 913.784 347.239 912.9C351.299 910.854 353.944 914.665 356.865 917.37C353.836 911.261 351.747 907.032 347.778 901.491C347.445 900.453 345.887 897.866 345.288 896.802ZM539.431 127.215L538.021 128.184C539.007 130.514 539.932 131.074 540.433 133.641L541.285 133.214C541.892 131.029 540.971 128.793 539.431 127.215ZM510.414 163.527C507.03 165.864 505.663 166.664 501.469 167.503C499.75 166.965 497.603 166.362 495.981 165.659C496.599 167.012 497.349 168.793 498.02 170.083C498.786 171.225 498.982 172.117 500.5 172.283C504.645 172.737 510.443 167.568 510.414 163.527ZM429.426 252.863C413.503 261.696 400.728 293.255 394.899 310.434C394.181 312.55 394.378 313.861 392.923 315.864L392.148 315.863C390.436 307.925 407.732 275.025 412.981 266.855L415.057 263.666C402.45 273.847 397.896 282.636 390.361 296.927C386.153 304.909 381.493 312.042 378.231 320.831C370.351 342.061 366.786 366.6 363.301 389C363.089 390.361 362.984 392.86 362.908 394.274C368.099 394.617 373.481 394.564 378.697 394.596C380.466 378.007 383.353 349.192 387.435 333.558L388.077 333.292L387.552 333.159L388.102 332.984L388.143 332.719C388.888 340.115 385.694 352.581 384.795 360.446C383.523 371.58 381.6 383.738 380.835 394.877C385.364 394.863 389.324 394.843 393.861 394.503C394.565 381.801 395.067 367.579 396.371 355.161C399.087 329.301 406.576 304.259 416.012 280.128C418.42 273.971 420.54 268.231 424.029 262.411C425.421 260.089 429.83 255.543 430.346 253.323L429.426 252.863ZM428.247 259.394C421.836 267.762 419.362 277.6 415.657 287.03C400.809 324.818 397.774 354.185 396.111 394.434C400.326 393.56 402.091 393.19 405.922 390.926C406.796 384.297 407.246 377.644 408.078 370.982C411.249 345.595 418.075 320.868 423.728 295.98C425.245 289.299 424.003 280.286 425.317 273.392C425.82 269.953 428.364 261.298 428.247 259.394ZM422.807 310.37C419.386 321.597 406.275 380.751 408.827 389.081C412.083 386.651 414.264 385.06 417.153 382.243C420.547 369.403 420.522 358.717 420.755 345.686C420.948 334.834 423.889 320.992 422.807 310.37ZM375.821 319.476C358.02 338.653 342.844 364.986 337.377 390.603C338.687 391.093 339.544 391.444 340.908 391.799C348.792 394.337 352.24 394.18 360.599 394.334C362.966 372.518 367.702 350.349 373.081 329.071C373.598 327.027 376.23 321.111 375.959 319.601L375.821 319.476ZM416.858 385.003L408.166 391.945C407.516 406.016 407.149 420.168 401.993 433.459C401.201 435.498 400.785 438.605 399.011 439.961L398.275 439.637C398.28 438.033 399.61 434.465 400.171 432.793C404.481 419.94 405.328 407.37 405.98 393.936C401.968 395.425 400.187 396.009 395.926 396.673C395.49 401.864 395.144 408.804 393.479 413.644C387.932 429.771 374.143 444.027 364.114 457.747C359.095 464.456 353.53 472.243 348.225 478.608C366.825 490.627 386.552 488.298 407.338 484.32L408.184 478.434C404.55 472.617 402.676 468.752 404.738 461.537C409.572 444.618 417.279 428.037 419.795 410.497C420.326 406.791 417.222 400.143 416.958 396.269C416.543 392.725 417.283 388.392 416.858 385.003ZM320.044 413.258C317.262 434.069 317.921 444.167 330.947 461.668C335.065 467.202 340.845 473.23 346.474 477.352C352.712 470.165 360.478 459.211 366.396 451.372C374.24 440.82 383.241 430.699 389.267 419.111C359.578 427.066 348.425 424.196 320.044 413.258ZM421.227 416.375C417.882 428.233 413.975 442.073 409.518 453.389C402.756 470.556 406.016 476.839 422.256 484.817C425.558 486.44 428.827 487.916 432.378 489.187C435.978 490.373 439.541 491.576 443.191 492.601C436.007 471.391 428.293 449.464 423.829 427.583C423.449 425.719 421.918 417.555 421.227 416.375ZM410.234 480.232C409.255 485.704 409.477 490.812 409.124 496.325C417.731 505.441 437.288 513.218 449.772 515.472C449.662 513.378 444.707 497.298 443.741 494.715C427.199 490.48 424.505 488.807 410.234 480.232ZM500.129 499.933C501.294 506.2 502.229 507.885 502.817 514.783C518.747 518.052 550.174 523.831 566.604 517.088C567.165 516.858 569.431 514.739 569.998 514.204C571.732 511.666 572.029 509.435 572.787 506.462C552.102 512.4 538.86 507.863 518.376 503.244C512.121 501.833 506.604 499.913 500.129 499.933ZM577.256 502.884C572.718 508.773 569.502 527.521 567.757 534.551C568.951 538.4 570.076 541.153 571.642 544.887L572.417 546.293C573.408 544.806 578.301 504.415 577.256 502.884ZM499.008 505.497C486.357 514.122 475.779 520.055 460.59 523.718C461.325 526.308 463.9 542.239 464.552 542.937L465.913 543.281C478.756 542.905 492.985 540.161 504.772 534.873C504.149 531.569 499.707 506.148 499.008 505.497ZM308.775 847.794C304.323 856.778 297.932 865.402 294.055 874.05C296.819 881.58 300.146 893.326 307.856 896.597C313.47 898.978 326.286 898.879 331.963 897.288C342.674 892.59 342.576 878.582 346.596 868.852C338.646 865.12 315.45 852.724 308.775 847.794ZM688.222 864.396C681.516 867.457 674.785 870.524 668.143 873.714C662.121 876.606 656.338 879.819 650.122 882.298C653.968 888.15 664.154 908.538 667.147 915.599C671.77 916.128 677.169 917.019 681.703 918.08C696.145 921.46 698.33 919.465 705.701 907.833C698.84 937.45 668.257 908.811 661.842 920.83C660.582 923.19 670.317 958.778 673.289 962.886C674.882 965.449 677.813 967.678 680.626 968.039C695.655 969.966 709.024 962.53 720.787 955.031C736.726 945.441 744.551 946.081 760.986 941.071C777.912 935.913 803.475 921.715 808.629 903.605C811.737 892.681 793.843 881.319 783.819 886.952C781.736 888.123 773.193 890.764 770.759 891.346C770.766 894.631 770.816 896.606 770.309 899.857C756.681 907.485 733.884 906.26 718.498 903.712C714.326 903.021 709.945 897.665 706.691 894.672C706.531 893.595 705.632 886.492 705.603 886.443C703.07 882.17 692.601 864.481 688.222 864.396ZM291.012 873.873C283.086 877.545 274.647 889.294 268.034 896.036C275.489 917.676 290.268 920.801 308.207 930.073C317.088 934.664 330.315 946.94 338.365 953.716C339.394 951.922 340.138 950.55 341.389 948.89C347.328 942.405 353.272 935.716 361.784 932.601C365.765 931.144 366.208 928.315 363.421 926.414C361.912 925.385 351.643 927.323 348.599 927.448C347.854 926.782 345.231 924.429 344.839 923.717C341.139 916.985 337.19 906.278 334.948 899.013C326.904 901.51 313.48 901.433 305.346 897.932C296.029 893.922 294.254 875.79 291.012 873.873ZM710.843 875.789C706.739 882.258 709.122 885.408 710.496 892.347C712.257 892.24 716.116 892.254 717.417 891.53L721.446 888.88C718.853 883.534 717.051 877.033 710.843 875.789ZM346.644 886.208L347.276 888.003C344.922 891.297 347.181 895.639 349.04 898.533C349.7 898.051 350.872 897.48 350.942 896.709C351.23 893.516 349.774 887.597 346.644 886.208ZM266.275 898.045C262.343 901.441 257.401 905.87 257.495 911.454C257.688 922.949 271.868 933.988 281.819 937.712C288.356 940.159 295.236 940.339 301.464 943.519C306.748 946.347 311.251 952.009 315.864 955.826C329.419 967.989 346.513 973.072 364.539 973.082C373.505 973.087 387.217 972.696 395.535 970.082C398.034 968.971 400.819 967.845 401.725 965.058C402.348 963.142 401.664 957.703 399.846 956.429C385.407 962.078 356.399 962.784 341.674 957.825C332.895 954.868 319.729 939.204 310.962 934.275C289.298 922.54 277.49 921.972 266.275 898.045ZM349.24 914.992C347.426 915.766 346.117 916.047 345.099 917.68C344.716 919.302 344.543 919.441 345.014 921.061C346.355 922.127 345.63 921.927 347.215 921.834C348.262 920.604 348.385 920.341 349.165 918.986C352.687 918.874 353.946 919.088 357.406 919.606C354.7 917.591 352.593 915.776 349.24 914.992ZM350.236 921.426C349.382 923.487 349.083 923.196 349.627 924.773C351.5 925.771 355.157 924.683 357.37 924.221L358.585 923.711C358.546 920.902 352.384 921.405 350.236 921.426ZM363.897 933.416C354.998 938.223 345.393 945.786 340.259 954.643C352.342 959.489 363.36 958.729 376.125 958.462C380.6 958.096 396.046 957.394 398.102 953.683C396.137 949.34 382.826 944.651 378.247 941.974C374.742 939.925 367.056 933.546 363.897 933.416Z" fill="black"/>
<path d="M315.289 312.471C310.435 311.671 304.012 311.381 298.668 310.592C279.733 307.797 266.029 301.476 250.027 291.73C225.334 276.688 201.708 244.329 195.613 216.007C189.816 189.075 198.191 152.724 212.934 129.345C226.819 106.873 253.012 87.7161 279.053 82.3769C343.252 69.2145 411.409 121.14 424.422 183.625C428.887 205.066 428.378 235.603 416 254.336C392.706 261.125 379.446 273.409 369.367 295.503C364.874 296.156 351.259 305.014 345.041 306.582C340.058 307.838 334.597 309.724 329.018 310.408C328.25 310.502 321.153 311.789 320.909 311.889C319.057 312.066 317.126 312.219 315.289 312.471Z" fill="#FFCFD2"/>
<path d="M522.599 200.175C514.631 194.36 508.712 188.962 500.178 183.599C500.09 180.884 499.96 178.054 499.926 175.349C505.824 173.417 509.109 172.047 512.139 165.909C514.219 161.698 516.767 153.293 517.317 148.69C520.51 153.619 534.181 168.372 536.293 154.724C536.489 153.459 536.171 152.971 535.454 152.075L534.521 152.032C533.6 154.538 534.71 155.456 533.352 157.585C523.209 162.014 507.657 129.508 523.314 125.417C529.381 123.831 530.668 126.97 535.379 128.533C537.17 131.244 538.442 132.923 539.194 136.185C540.096 140.108 537.219 144.215 540.292 147.087C543.513 145.318 542.226 139.88 542.74 137.064C543.632 132.175 544.152 131.401 542.808 126.54C554.71 123.232 578.03 117.197 572.422 99.8731C571.801 97.9538 571.043 96.0277 570.236 94.1797C576.047 95.4152 586.706 96.6918 589.53 102.431C593.372 110.24 595.698 119.403 592.914 127.825C589.483 127.713 582.946 127.448 580.522 130.08L580.56 130.864C584.757 131.514 590.359 128.936 592.718 131.118C592.436 133.926 587.764 135.619 585.401 136.448C586.231 137.44 587.067 137.478 588.345 137.797C589.424 137.295 590.279 136.884 591.336 136.315C591.698 137.051 591.851 137.557 591.79 138.431C591.353 144.682 601.164 155.721 597.528 160.631C593.568 162.472 592.147 161.637 590.797 165.302C591.215 167.479 592.281 169.282 591.777 171.338C589.83 174.174 588.444 173.467 587.558 175.724C588.351 176.724 588.397 176.744 589.411 177.53C589.166 178.917 587.655 181.457 587.664 181.98C588.053 206.049 556.571 199.243 545.24 188.96C543.776 187.631 540.441 182.141 539.313 182.474C539.683 191.166 550.833 196.148 557.881 198.445C554.126 204.522 552.101 209.021 549.328 215.631C545.931 212.507 527.001 200.077 522.599 200.175ZM524.666 128.01C517.623 133.834 517.868 141.561 521.015 149.43C520.551 142.676 519.311 132.733 526.908 129.48C533.298 132.61 534.356 135.333 533.727 142.007L534.63 142.738C538.119 140.726 535.915 126.84 524.666 128.01Z" fill="#E6DFD5"/>
<path d="M540.432 133.641C539.931 131.074 539.006 130.514 538.02 128.184L539.43 127.215C540.97 128.793 541.891 131.029 541.284 133.214L540.432 133.641Z" fill="#FCFBFA"/>
<path d="M521.011 149.431C517.864 141.562 517.619 133.835 524.662 128.011C535.911 126.841 538.115 140.727 534.626 142.739L533.723 142.008C534.352 135.334 533.294 132.611 526.904 129.481C519.307 132.734 520.547 142.677 521.011 149.431Z" fill="black"/>
<path d="M599.826 153.881C606.5 150.018 613.402 145.802 620.422 142.638C644.168 131.867 670.847 130.394 695.955 137.047C705.358 139.765 715.046 143.501 724.062 147.29C755.256 160.397 788.523 176.118 812.63 200.43C857.681 245.864 824.893 310.03 803.063 358.019C800.306 364.079 796.383 373.706 793.194 379.051C787.971 367.482 772.239 352.111 763.902 340.75C757.552 332.097 751.999 321.055 746.271 313.376C749.578 305.036 752.943 295.549 756.02 287.067C764.983 262.355 774.474 234.351 763.619 208.691C757.816 194.973 746.965 184.141 732.989 178.966C685.372 161.335 649.623 194.933 608.285 210.729C597.455 214.868 585.425 217.669 574.254 220.756C569.369 222.106 562.47 222.789 558.041 224.677C556.306 222.712 552.334 221.135 549.859 219.978C552.903 212.528 555.224 205.825 560.288 199.51C568.771 200.53 581.498 202.344 586.69 193.896C588.826 190.936 588.449 186.637 589.518 183.545C592.07 176.164 595.217 173.011 593.311 164.881C600.748 162.224 602.245 161.779 599.826 153.881Z" fill="#FAE0A3"/>
<path d="M501.468 167.503C505.662 166.664 507.029 165.864 510.413 163.527C510.442 167.568 504.644 172.737 500.499 172.283C498.981 172.117 498.785 171.225 498.019 170.083C497.348 168.793 496.598 167.012 495.98 165.659C497.602 166.362 499.749 166.965 501.468 167.503Z" fill="#E6DFD5"/>
<path d="M558.043 224.679C562.472 222.791 569.371 222.108 574.256 220.758C585.427 217.671 597.457 214.87 608.287 210.731C649.625 194.935 685.374 161.337 732.991 178.968C746.967 184.143 757.818 194.975 763.621 208.693C774.476 234.353 764.985 262.357 756.022 287.069C752.945 295.551 749.58 305.038 746.273 313.378C752.001 321.057 757.554 332.099 763.904 340.752C772.241 352.113 787.973 367.484 793.196 379.053C812.624 409.345 815.328 449.625 807.137 484.325C806.429 487.324 802.821 497.001 802.733 499.129C801.823 500.492 799.766 504.508 799.038 506.202C792.336 521.789 772.454 540.872 755.99 525.441C742.169 512.487 749.108 487.603 753.652 472.055C754.563 468.937 755.023 466.549 754.964 463.095C751.781 450.942 746.245 448.522 740.623 438.035C736.044 429.495 733.766 417.23 731.823 407.637C727.729 377.434 732.099 342.566 743.417 314.295C735.384 303.596 732.524 297.782 719.852 292.139C701.13 283.802 681.7 286.019 665.029 298.021C652.612 306.96 644.979 321.958 643.062 337.026C641.176 353.773 646.427 374.032 649.184 390.62C650.361 397.7 650.939 404.062 651.506 411.234C651.211 438.167 645.068 473.396 622.905 491.342C614.442 497.081 600.506 503.301 590.182 502.967L590.916 499.749C599.839 498.848 612.067 495.654 619.39 490.269C628.9 484.904 637.032 469.384 641.021 459.819C653.677 429.482 649.149 400.185 642.897 369.173C641.06 358.38 639.809 348.048 640.803 337.156C644.436 297.392 687.708 272.51 723.525 290.961C733.538 296.12 738.161 302.574 744.78 311.265C746.176 304.922 749.323 298.401 751.494 292.239C759.393 269.526 768.868 248.567 765.139 224.025C757.714 175.169 706.242 167.579 667.47 184.838C652.345 191.571 638.251 200.308 623.21 207.145C609.211 213.508 593.646 218.083 578.804 222.054C573.01 223.567 566.448 225.53 560.569 226.371L559.757 226.484L558.043 224.679ZM792.484 381.872C784.018 367.319 772.618 355.574 762.374 342.229C755.507 333.283 750.85 324.364 744.684 315.368C743.43 321.141 741.794 326.592 740.225 332.261C733.589 356.238 730.163 384.25 734.512 408.831C736.96 421.123 739.093 434.53 747.548 444.203C753.631 445.642 759.193 446.262 765.283 444.441C768.186 443.997 773.74 442.89 775.667 445.671C770.603 445.167 766.493 444.935 761.607 446.981C756.983 447.553 752.854 447.187 748.232 446.692C753.047 452.405 754.141 453.513 756.524 460.679C757.977 480.405 738.789 507.804 758.628 525.35C771.596 536.819 789.184 521.93 794.992 509.919C805.7 493.568 809.425 469.859 809.517 450.601L809.531 444.362C809.507 425.391 802.745 397.935 792.484 381.872Z" fill="#FCFBFA"/>
<path d="M559.756 226.483L560.568 226.37C566.447 225.529 573.009 223.566 578.803 222.053C593.645 218.082 609.21 213.507 623.209 207.144C638.25 200.307 652.344 191.57 667.469 184.837C706.241 167.578 757.713 175.168 765.138 224.024C768.867 248.566 759.392 269.525 751.493 292.238C749.322 298.4 746.175 304.921 744.779 311.264C738.16 302.573 733.537 296.119 723.524 290.96C687.707 272.509 644.435 297.391 640.802 337.155C639.808 348.047 641.059 358.379 642.896 369.172C649.148 400.184 653.676 429.481 641.02 459.818C637.031 469.383 628.899 484.903 619.389 490.268C612.494 490.011 605.319 491.011 598.673 492.74C596.641 493.269 594.121 494.504 592.133 494.571C594.738 481.121 597.507 461.377 597.238 447.527C596.678 418.723 590.981 388.421 586.551 359.88C583.355 341.243 581.761 321.914 576.205 303.772C571.911 289.868 566.02 276.264 560.185 263.004C557.475 256.846 552.284 248.649 557.165 242.845C559.971 239.508 562.544 237.499 564.632 233.495C563.001 230.376 561.965 229.215 559.756 226.483Z" fill="url(#paint0_linear_2264_37595)"/>
<path d="M483.574 183.972C492.486 181.929 499.302 185.223 506.316 190.497C516.237 197.957 525.567 206.204 535.407 213.804C536.178 216.787 544.234 219.652 545.261 221.397C544.199 221.404 544.188 221.429 543.135 221.268C543.169 222.608 543.842 223.115 544.863 224.378L544.345 225.132C545.31 226.214 545.962 226.895 547.008 227.896L543.193 232.987L546.703 238.351L539.298 249.244C535.757 245.117 532.292 240.031 528.917 235.668C514.786 217.404 495.531 200.546 470.812 204.999C472.858 200.346 479.996 187.273 483.574 183.972Z" fill="#8EECF5"/>
<path d="M522.598 200.176C527 200.078 545.93 212.508 549.327 215.632C548.839 217.143 548.873 217.399 547.833 218.628C542.33 217.268 527.454 204.455 522.598 200.176Z" fill="#8EECF5"/>
<path d="M475.626 214.741C456.058 216.679 447.87 226.176 437.191 241.869C435.479 244.383 432.472 251.211 429.771 250.88C429.473 249.372 430.351 247.446 430.824 245.943C436.938 226.519 460.777 205.599 481.755 206.497C479.507 207.015 476.331 207.682 474.451 207.787C472.323 207.906 470.881 213.422 473.044 213.991C474.697 214.425 478.344 213.689 480.175 214.214C478.68 214.251 476.805 214.087 475.626 214.741Z" fill="#FCFBFA"/>
<path d="M481.755 206.496C496.773 207.457 511.746 218.717 521.115 229.763C525.733 235.208 535.001 248.073 539.03 251.688C542.299 248.575 544.157 246.157 546.597 242.29C545.324 259.033 552.366 271.158 557.611 286.726C566.823 313.661 568.348 343.109 569.153 371.377C569.683 390.018 573.488 407.781 575.195 426.167C577.451 450.47 578.22 476.425 577.66 500.85C560.872 512.551 538.441 505.106 520.013 501.405C513.529 500.103 506.868 497.556 500.213 497.35C498.323 476.474 494.685 458.352 490.609 437.893C489.936 430.998 490.677 423.285 490.299 416.439C489.723 406.019 487.311 388.088 492.19 378.551C496.525 370.078 503.692 362.145 508.145 352.493C519.932 326.946 530.022 297.848 526.474 269.348C524.369 252.828 514.114 234.913 501.503 224.104C493.495 217.24 485.994 215.055 475.626 214.74C476.805 214.086 478.68 214.25 480.175 214.213C478.344 213.688 474.697 214.424 473.044 213.99C470.881 213.421 472.323 207.905 474.451 207.786C476.331 207.681 479.507 207.014 481.755 206.496Z" fill="#8EECF5"/>
<path d="M535.406 213.805C538.022 215.411 553.668 224.531 554.363 225.336L554.069 225.649L551.997 228.505C548.371 227.93 547.431 227.023 544.862 224.379C543.841 223.116 543.168 222.609 543.134 221.269C544.187 221.43 544.198 221.405 545.26 221.398C544.233 219.653 536.177 216.788 535.406 213.805Z" fill="#98F5E1"/>
<path d="M472.301 217.336C483.161 216.346 490.328 217.856 499.041 224.984C512.893 236.314 523.323 255.676 524.745 273.977C527.166 305.145 511.485 348.129 492.902 373.212C492.743 373.399 492.584 373.586 492.425 373.773C494.56 362.294 498.887 358.201 502.167 348.314C509.718 325.05 518.431 300.271 517.133 275.506C516.663 266.521 513.867 258.253 510.889 250.06C505.481 235.181 497.744 222.209 481.009 219.36C478.034 218.853 475.059 218.263 472.027 218.904L472.301 217.336Z" fill="#8EECF5"/>
<path d="M472.028 218.904C458.732 223.753 441.384 239.952 434.052 251.792L433.723 251.488C434.309 248.962 437.29 244.848 438.93 242.543C449.034 228.341 454.98 220.586 472.302 217.336L472.028 218.904Z" fill="url(#paint1_linear_2264_37595)"/>
<path d="M493.563 325.189L493.426 324.345C492.586 318.863 493.516 303.2 493.468 296.439C493.435 291.93 493.163 275.86 493.543 272.412L492.987 271.277L492.232 271.159C491.734 272.522 492.342 282.032 491.189 286.895C490.154 281.761 493.919 265.857 489.946 263.907C488.977 264.489 488.396 265.142 488.16 266.271C485.364 279.647 483.498 290.597 476.821 302.741C470.889 313.531 444.791 333.711 443.313 344.439C443.904 345.359 443.677 345.043 444.628 345.715C444.565 347.03 444.358 347.178 443.861 348.49C444.805 348.318 446.857 346.48 447.092 346.104C448.197 344.342 447.567 342.826 449.331 341.045C453.895 336.435 461.816 329.294 465.105 323.839L465.851 323.575L466.012 324.18C462.225 330.401 456.069 335.408 451.339 340.852C448.321 344.325 449.63 346.84 444.45 349.169C443.137 349.194 443.187 349.278 442.095 348.584C442.616 347.9 442.84 347.495 443.284 346.76L442.823 346.191C436.684 348.113 426.462 362.734 422.465 368.086C422.62 358.817 422.311 347 423.849 337.987C424.528 334.008 428.854 327.229 430.673 323.592C435.097 314.746 447.158 294.927 449.499 285.949L449.189 285.621C446.136 288.304 426.591 326.831 423.815 332.219C424.743 320.577 425.279 308.643 426.067 296.874C427.277 278.809 426.435 260.665 439.933 246.307C447.203 239.318 459.959 225.451 469.46 222.354C500.086 212.372 515.232 258.783 514.97 278.784C514.651 303.243 505.4 339.307 494.837 360.02C495.38 352.642 497.397 305.877 496.068 300.834L495.248 300.672C493.946 302.75 494.032 320.417 493.628 324.571L493.563 325.189Z" fill="#98F5E1"/>
<path d="M547.006 227.897C545.96 226.896 545.309 226.215 544.344 225.133L544.862 224.379C547.431 227.023 548.371 227.93 551.997 228.505C550.126 231.836 548.423 234.944 546.701 238.352L543.191 232.988L547.006 227.897Z" fill="#B9FBC0"/>
<path d="M554.072 225.649L554.366 225.336C556.108 226.083 559.408 228.721 560.238 230.349C562.885 235.546 555.8 240.016 553.81 243.834C552.562 241.759 551.411 241.62 549.227 241.261C550.428 236.368 552.428 232.754 554.34 228.171C554.955 226.699 554.746 226.85 554.072 225.649Z" fill="#B9FBC0"/>
<path d="M549.226 241.258C551.41 241.617 552.561 241.756 553.809 243.831C552.912 246.883 552.848 247.477 552.891 250.659C551.046 251.091 550.121 251.129 548.69 252.376C548.201 248.325 548.627 245.235 549.226 241.258Z" fill="#98F5E1"/>
<path d="M548.688 252.377C550.118 251.13 551.043 251.092 552.888 250.66C554.282 255.842 558.891 266.294 561.375 271.293C576.765 302.264 579.759 330.331 584.939 363.841C591.962 409.273 601.065 453.332 588.631 499.042C587.663 502.677 587.608 510.644 585.286 513.039C581.84 512.814 580.209 505.647 580.16 502.899C579.773 474.689 579.731 446.773 576.362 418.696C575.044 407.713 572.834 395.779 572.076 384.87C570.447 361.437 570.506 338.843 566.788 315.505C563.799 296.741 557.979 280.146 551.25 262.459C550.121 259.341 549.219 255.672 548.688 252.377Z" fill="#FCFBFA"/>
<path d="M415.055 263.666L412.979 266.855C407.73 275.025 390.434 307.925 392.146 315.863L392.921 315.864C394.376 313.861 394.179 312.55 394.897 310.434C400.726 293.255 413.501 261.696 429.424 252.863L430.344 253.323C429.828 255.543 425.419 260.089 424.027 262.411C420.538 268.231 418.418 273.971 416.01 280.128C406.574 304.259 399.085 329.301 396.369 355.161C395.065 367.579 394.563 381.801 393.859 394.503C389.322 394.843 385.362 394.863 380.833 394.877C381.598 383.738 383.521 371.58 384.793 360.446C385.692 352.581 388.886 340.115 388.141 332.719L388.1 332.984L387.55 333.159L388.075 333.292L387.433 333.558C383.351 349.192 380.464 378.007 378.695 394.596C373.479 394.564 368.097 394.617 362.906 394.274C362.982 392.86 363.087 390.361 363.299 389C366.784 366.6 370.349 342.061 378.229 320.831C381.491 312.042 386.151 304.909 390.359 296.927C397.894 282.636 402.448 273.847 415.055 263.666Z" fill="#98F5E1"/>
<path d="M391.425 290.08C384.886 288.035 378.649 296.345 373.078 292.997C384.41 269.01 399.22 260.913 423.691 254.285C418.904 258.41 413.805 261.905 409.022 265.924C401.545 272.207 396.267 281.633 391.425 290.08Z" fill="#8EECF5"/>
<path d="M396.109 394.435C397.772 354.186 400.807 324.819 415.655 287.031C419.36 277.601 421.834 267.763 428.245 259.395C428.362 261.299 425.818 269.954 425.315 273.393C424.001 280.287 425.243 289.3 423.726 295.981C418.073 320.869 411.247 345.596 408.076 370.983C407.244 377.645 406.794 384.298 405.92 390.927C402.089 393.191 400.324 393.561 396.109 394.435Z" fill="url(#paint2_linear_2264_37595)"/>
<path d="M442.092 348.583C443.184 349.277 443.134 349.193 444.447 349.168C449.627 346.839 448.318 344.324 451.336 340.851C456.066 335.407 462.222 330.4 466.009 324.179L465.848 323.574L465.102 323.838C461.813 329.293 453.892 336.434 449.328 341.044C447.564 342.825 448.194 344.341 447.089 346.103C446.854 346.479 444.802 348.317 443.858 348.489C444.355 347.177 444.562 347.029 444.625 345.714C443.674 345.042 443.901 345.358 443.31 344.438C444.788 333.71 470.886 313.53 476.818 302.74C483.495 290.596 485.361 279.646 488.157 266.27C488.393 265.141 488.974 264.488 489.943 263.906C493.916 265.856 490.151 281.76 491.186 286.894C492.339 282.031 491.731 272.521 492.229 271.158L492.984 271.276L493.54 272.411C493.16 275.859 493.432 291.929 493.465 296.438C493.513 303.199 492.583 318.862 493.423 324.344L493.56 325.188C493.937 339.006 493.266 353.984 491.345 367.679C490.14 376.268 486.589 388.484 486.695 396.714C487.142 403.518 487.48 410.419 487.909 417.215C488.381 424.682 487.263 433.919 488.747 441.175C493.122 462.551 497.976 481.263 498.055 503.311C485.364 512.079 472.989 520.159 457.132 521.287C451.173 517.076 447.464 498.889 445.011 491.446C436.423 465.396 427.581 439.503 422.923 412.388C422.098 407.554 420.322 402.445 419.481 397.56C418.159 388.521 419.238 375.189 425.092 367.812C429.392 362.393 436.776 352.414 442.092 348.583ZM478.941 360.382C465.341 373.405 461.029 381.367 458.293 400.514C457.591 405.426 457.732 411.323 457.18 416.35C456.154 425.694 454.639 434.669 454.162 444.022C453.392 459.107 458.665 467.542 467.139 479.381C469.4 482.539 472.208 486.987 474.827 489.82C476.725 491.455 477.734 492.288 479.825 493.647C477.549 480.29 472.972 478.121 469.185 465.773C464.179 449.45 465.988 438.686 466.17 422.473C466.277 412.83 464.707 401.625 465.48 391.665C470.443 386.826 485.21 366.101 478.941 360.382ZM456.394 368.879C450.143 371.766 437.738 378.677 435.198 385.348L435.321 386.265C435.959 386.334 436.142 386.433 436.724 386.296C441.889 382.482 446.579 378.258 451.93 374.704C453.348 373.763 458.061 371.276 458.373 369.989C457.276 368.995 457.773 369.224 456.394 368.879Z" fill="#8EECF5"/>
<path d="M743.419 314.292C732.101 342.563 727.731 377.431 731.825 407.634C710.594 407.05 690.052 405.728 668.945 408.724C665.058 409.275 654.701 411.528 651.508 411.231C650.941 404.059 650.363 397.697 649.186 390.617C646.429 374.029 641.178 353.77 643.064 337.023C644.981 321.955 652.614 306.957 665.031 298.018C681.702 286.016 701.132 283.799 719.854 292.136C732.526 297.779 735.386 303.593 743.419 314.292Z" fill="#FAE0A3"/>
<path d="M373.08 292.995C378.651 296.343 384.888 288.033 391.427 290.078C382.112 309.684 378.092 312.781 364.892 329.624C350.835 347.561 339.912 367.46 335.168 389.95C332.03 389.217 327.843 388.119 324.754 387.612C335.35 364.167 346.106 344.498 360.24 323.047C365.028 315.779 368.454 301.688 373.08 292.995Z" fill="#98F5E1"/>
<path d="M320.908 311.89C321.152 311.79 328.249 310.503 329.017 310.409C334.596 309.725 340.057 307.839 345.04 306.583C351.258 305.015 364.873 296.157 369.366 295.504C366.048 303.415 362.999 312.002 359.494 319.657C356.817 325.505 351.341 333.631 347.694 339.2C342.217 338.959 331.799 337.896 326.934 338.098C309.533 338.819 289.606 342.113 272.902 346.842C278.132 339.077 298.217 325.606 307.027 320.18C309.612 318.588 320.126 313.593 320.908 311.89Z" fill="#E6DFD5"/>
<path d="M408.827 389.078C406.275 380.748 419.386 321.594 422.807 310.367C423.889 320.989 420.948 334.831 420.755 345.683C420.522 358.714 420.547 369.4 417.153 382.24C414.264 385.057 412.083 386.648 408.827 389.078Z" fill="#98F5E1"/>
<path d="M315.289 312.473C317.126 312.221 319.057 312.068 320.909 311.891C320.127 313.594 309.613 318.589 307.028 320.181C298.218 325.607 278.133 339.078 272.903 346.843C263.951 353.104 248.385 369.966 242.684 379.263C222.177 412.702 207.107 455.279 199.812 493.85C196.157 513.175 192.869 550.841 202.875 568.876C203.815 570.57 206.865 572.901 208.557 574.036C249.106 551.002 285.917 518.663 332.487 507.738C347.724 504.163 363.713 502.774 379.224 500.427C384.837 499.577 403.88 493.459 406.659 495.447C407.61 498.265 407.984 499.149 408.173 502.212C403.142 502.365 397.153 501.725 393.031 501.983C384.012 502.547 373.291 504.358 364.385 505.229C317.291 509.837 286.056 528.221 247.251 553.39C236.552 560.33 212.889 576.106 202.273 581.106C198.366 584.498 191.085 588.199 186.422 591.123C152.431 612.434 121.978 626.439 81.1825 625.915C69.7004 625.439 60.6809 624.803 49.3721 621.798C43.4658 620.229 16.0055 612.059 13.7734 608.244C14.8101 608.283 32.9224 614.953 35.2262 615.724C50.3094 620.774 63.6236 623.379 79.6202 623.89C122.258 623.889 165.611 603.924 199.631 579.247C201.343 578.465 204.439 576.308 206.132 575.202C204.434 574.385 203.17 573.731 201.838 572.366C192.37 562.657 192.823 527.713 194.169 514.009C198.928 465.566 217.962 409.747 245.989 369.515C251.174 362.072 257.936 355.915 264.509 350.152C274.184 341.799 284.267 332.765 294.623 325.372C300.702 321.032 308.815 316.371 315.289 312.473Z" fill="#FCFBFA"/>
<path d="M744.685 315.367C750.851 324.363 755.508 333.282 762.375 342.228C772.619 355.573 784.019 367.318 792.485 381.871C787.596 390.781 780.24 409.339 775.515 419.627C772.39 418.723 767.667 416.331 763.977 415.198C755.087 412.469 743.734 409.462 734.513 408.83C730.164 384.249 733.59 356.237 740.226 332.26C741.795 326.591 743.431 321.14 744.685 315.367Z" fill="#FAE0A3"/>
<path d="M337.379 390.604C342.846 364.987 358.022 338.654 375.823 319.477L375.961 319.602C376.232 321.112 373.6 327.028 373.083 329.072C367.704 350.35 362.968 372.519 360.601 394.335C352.242 394.181 348.794 394.338 340.91 391.8C339.546 391.445 338.689 391.094 337.379 390.604Z" fill="#98F5E1"/>
<path d="M272.905 346.844C289.609 342.115 309.536 338.821 326.937 338.1C331.802 337.898 342.22 338.961 347.697 339.202C338.112 355.48 326.293 376.325 319.684 394.492C317.53 400.412 318.388 412.002 317.364 418.566C316.81 425.474 316.375 433.987 318.037 440.695C321.765 455.74 337.166 474.831 350.304 482.543C366.298 491.931 390.009 490.181 407.49 486.357C407.279 489.385 407.138 492.456 406.661 495.448C403.882 493.46 384.839 499.578 379.226 500.428C363.715 502.775 347.726 504.164 332.489 507.739C285.919 518.664 249.108 551.003 208.559 574.037C206.867 572.902 203.817 570.571 202.877 568.877C192.871 550.842 196.159 513.176 199.814 493.851C207.109 455.28 222.179 412.703 242.686 379.264C248.387 369.967 263.953 353.105 272.905 346.844Z" fill="#98F5E1"/>
<path d="M149.756 432.64C153.154 427.695 156.215 421.448 159.628 416.771C172.434 399.229 192.264 384.869 210.926 374.091C217.885 370.073 258.652 349.175 264.509 350.15C257.936 355.913 251.174 362.07 245.989 369.513C217.962 409.745 198.928 465.564 194.169 514.007C192.823 527.711 192.37 562.655 201.838 572.364C203.17 573.729 204.434 574.383 206.132 575.2C204.439 576.306 201.343 578.463 199.631 579.245C195.945 577.158 190.915 572.52 187.43 569.774C138.156 530.957 122.921 491.541 149.756 432.64Z" fill="#98F5E1"/>
<path d="M474.829 489.821C472.21 486.988 469.402 482.54 467.141 479.382C458.667 467.543 453.394 459.108 454.164 444.023C454.641 434.67 456.156 425.695 457.182 416.351C457.734 411.324 457.593 405.427 458.295 400.515C461.031 381.368 465.343 373.406 478.943 360.383C485.212 366.102 470.445 386.827 465.482 391.666C464.709 401.626 466.279 412.831 466.172 422.474C465.99 438.687 464.181 449.451 469.187 465.774C472.974 478.122 477.551 480.291 479.827 493.648C477.736 492.289 476.727 491.456 474.829 489.821Z" fill="#B9FBC0"/>
<path d="M436.725 386.296C436.143 386.433 435.96 386.334 435.322 386.265L435.199 385.348C437.739 378.677 450.144 371.766 456.395 368.879C457.774 369.224 457.277 368.995 458.374 369.989C458.062 371.276 453.349 373.763 451.931 374.704C446.58 378.258 441.89 382.482 436.725 386.296Z" fill="#B9FBC0"/>
<path d="M792.486 381.871C802.747 397.934 809.509 425.39 809.533 444.361C800.771 435.019 791.801 427.328 779.91 422.11C778.885 421.501 776.673 420.495 775.516 419.921V419.627C780.241 409.339 787.597 390.781 792.486 381.871Z" fill="#E6DFD5"/>
<path d="M408.168 391.946L416.86 385.004C417.285 388.393 416.545 392.726 416.96 396.27C417.224 400.144 420.328 406.792 419.797 410.498C417.281 428.038 409.574 444.619 404.74 461.538C402.678 468.753 404.552 472.618 408.186 478.435L407.34 484.321C386.554 488.299 366.827 490.628 348.227 478.609C353.532 472.244 359.097 464.457 364.116 457.748C374.145 444.028 387.934 429.772 393.481 413.645C395.146 408.805 395.492 401.865 395.928 396.674C400.189 396.01 401.97 395.426 405.982 393.937C405.33 407.371 404.483 419.941 400.173 432.794C399.612 434.466 398.282 438.034 398.277 439.638L399.013 439.962C400.787 438.606 401.203 435.499 401.995 433.46C407.151 420.169 407.518 406.017 408.168 391.946Z" fill="#98F5E1"/>
<path d="M340.124 400.004C337.592 399.473 338.308 399.245 336.247 400.073C333.831 402.719 334.3 407.188 337.752 408.428L337.595 408.3C339.051 407.411 340.544 406.599 341.832 405.503L342.126 407.3C343.565 407.182 342.936 406.973 344.106 407.685L343.946 408.992C343.191 409.97 342.824 410.616 341.796 411.284C341.269 410.18 341.639 410.574 340.809 409.997C339.163 410.946 339.566 410.289 339.049 411.707C339.976 413.033 339.373 412.597 340.912 413.068C343.115 412.221 344.841 409.972 346.758 408.546C349.268 406.678 354.726 408.044 357.871 408.543C355.385 407.631 353.111 406.856 350.73 405.677C351.394 403.947 356.009 404.685 357.897 402.576C357.365 401.022 354.543 399.591 353.009 398.671C351.391 398.65 350.98 398.472 349.605 399.289L349.837 400.119C351.34 401.474 352.794 401.811 354.729 402.517L354.782 402.909C351.412 402.969 352.295 403.237 349.572 403.869C347.166 402.601 346.377 398.825 346.45 396.308C347.636 395.839 389.394 396.898 393.713 396.968C393.311 404.704 393.015 409.533 390.142 416.664C359.396 425.335 349.178 421.647 320.023 410.986C320.478 402.127 320.524 397.456 323.573 389.23C328.312 390.37 340.102 392.385 343.134 395.971C344.076 397.086 343.838 398.617 343.67 399.978C342.612 401.13 343.203 400.627 341.091 400.914L340.124 400.004Z" fill="url(#paint3_linear_2264_37595)"/>
<path d="M337.597 408.3L337.754 408.428C334.302 407.188 333.833 402.719 336.249 400.073C338.31 399.245 337.594 399.473 340.126 400.004C337.615 400.961 337.974 400.408 336.563 402.241C336.264 404.195 336.164 403.276 336.837 405.108L337.778 405.877C339.781 405.386 339.53 404.621 341.457 403.065C342.188 404.409 341.901 403.718 341.834 405.503C340.546 406.599 339.053 407.411 337.597 408.3Z" fill="black"/>
<path d="M340.125 400.008L341.093 400.918C343.479 403.677 343.211 403.617 342.128 407.304L341.834 405.507C341.901 403.722 342.187 404.413 341.456 403.069C339.529 404.625 339.781 405.39 337.778 405.881L336.836 405.112C336.163 403.28 336.264 404.199 336.563 402.245C337.974 400.412 337.614 400.965 340.125 400.008Z" fill="#D6F2EF"/>
<path d="M731.824 407.635C733.767 417.228 736.045 429.493 740.624 438.033C746.246 448.52 751.782 450.94 754.965 463.093C750.13 466.203 746.38 470.972 741.141 474.108C714.956 489.783 683.376 492.991 653.445 492.105C647.706 491.935 627.16 492.768 622.906 491.34C645.069 473.394 651.212 438.165 651.507 411.232C654.7 411.529 665.057 409.276 668.944 408.725C690.051 405.729 710.593 407.051 731.824 407.635Z" fill="#FDE4CF"/>
<path d="M734.512 408.828C743.733 409.46 755.086 412.467 763.976 415.196C767.666 416.329 772.389 418.721 775.514 419.625V419.919C773.365 424.675 765.559 440.4 765.283 444.438C759.193 446.259 753.631 445.639 747.548 444.2C739.093 434.527 736.96 421.12 734.512 408.828Z" fill="#FDE4CF"/>
<path d="M346.476 477.352C340.847 473.23 335.067 467.202 330.949 461.668C317.923 444.167 317.264 434.069 320.046 413.258C348.427 424.196 359.58 427.066 389.269 419.111C383.243 430.699 374.242 440.82 366.398 451.372C360.48 459.211 352.714 470.165 346.476 477.352ZM372.679 426.2C367.767 426.91 356.655 426.511 354.459 427.497L354.284 428.252C355.656 429.94 357.255 429.652 359.377 429.723C364.417 430.128 372.232 430.849 376.207 427.085L376.119 426.35C374.578 425.874 374.274 426.032 372.679 426.2Z" fill="#98F5E1"/>
<path d="M432.379 489.187C428.828 487.916 425.559 486.44 422.257 484.817C406.017 476.839 402.757 470.556 409.519 453.389C413.976 442.073 417.883 428.233 421.228 416.375C421.919 417.555 423.45 425.719 423.83 427.583C428.294 449.464 436.008 471.391 443.192 492.601C439.542 491.576 435.979 490.373 432.379 489.187Z" fill="#98F5E1"/>
<path d="M775.512 419.922C776.669 420.496 778.881 421.502 779.906 422.111C788.8 429.933 798.083 438.156 806.917 446.096C807.863 446.946 808.918 449.364 809.515 450.601C809.423 469.859 805.698 493.568 794.99 509.919C792.666 507.235 791.021 502.92 789.552 499.64C782.224 483.28 777.276 463.581 775.665 445.671C773.738 442.89 768.184 443.997 765.281 444.441C765.557 440.403 773.363 424.678 775.512 419.922Z" fill="#F1C0E8"/>
<path d="M779.906 422.109C791.797 427.327 800.767 435.018 809.529 444.36L809.515 450.599C808.918 449.362 807.863 446.944 806.917 446.094C798.083 438.154 788.8 429.931 779.906 422.109Z" fill="#FFCFD2"/>
<path d="M359.374 429.721C357.252 429.65 355.653 429.938 354.281 428.25L354.456 427.495C356.652 426.509 367.764 426.908 372.676 426.198C374.271 426.03 374.575 425.872 376.116 426.348L376.204 427.083C372.229 430.847 364.414 430.126 359.374 429.721Z" fill="#B9FBC0"/>
<path d="M79.623 623.889C67.4342 596.422 68.2895 568.163 78.3673 540.093C90.5287 506.219 113.428 466.455 139.273 441.233C141.948 438.621 146.66 434.199 149.759 432.641C122.924 491.542 138.159 530.958 187.433 569.775C190.918 572.521 195.948 577.159 199.634 579.246C165.614 603.923 122.261 623.888 79.623 623.889Z" fill="#E7E3F2"/>
<path d="M761.605 446.981C766.491 444.935 770.601 445.167 775.665 445.671C777.276 463.581 782.224 483.28 789.552 499.64C791.021 502.92 792.666 507.235 794.99 509.919C789.182 521.93 771.594 536.819 758.626 525.35C738.787 507.804 757.975 480.405 756.522 460.679C758.58 456.123 758.747 452.324 761.605 446.981Z" fill="#CFBAF0"/>
<path d="M748.23 446.691C752.852 447.186 756.981 447.552 761.605 446.98C758.747 452.323 758.58 456.122 756.522 460.678C754.139 453.512 753.045 452.404 748.23 446.691Z" fill="#FDE4CF"/>
<path d="M754.963 463.094C755.022 466.548 754.562 468.936 753.651 472.054C749.107 487.602 742.168 512.486 755.989 525.44C772.453 540.871 792.335 521.788 799.037 506.201C799.765 504.507 801.822 500.491 802.732 499.128C802.531 503.827 797.762 508.248 796.839 512.788C796.825 512.858 799.371 517.912 799.564 518.336C809.3 536.963 821.89 556.368 834.444 573.19C843.813 585.366 853.698 597.236 863.991 608.62C879.045 625.269 896.806 640.647 910.703 658.212C935.368 689.388 955.358 727.803 949.789 768.744C947.309 786.97 940.585 804.197 925.55 815.568C917.254 821.875 903.952 827.408 893.496 825.769C890.133 825.242 885.091 824.043 882.295 822.21C899.499 814.218 920.91 796.69 922.925 776.921C926.364 743.182 912.634 721.179 880.824 711.069C837.361 697.255 799.365 690.588 755.102 706.14C729.828 715.02 717.078 722.725 712.888 750.234L712.633 750.66C699.866 755.936 685.875 764.812 674.05 772.107C670.299 774.421 660.478 781.082 656.914 782.559C651.353 768.031 645.53 753.59 641.098 738.627C639.119 731.944 637.583 717.362 633.395 712.267C632.774 711.605 632.199 707.654 631.954 706.427C635.019 698.142 634.224 679.85 628.732 673.148C618.507 660.668 615.382 653.545 610.493 638.011C603.219 614.9 592.423 591.881 582.686 569.674C580.433 564.536 576.813 557.994 575.45 552.431C574.389 540.435 577.889 522.77 579.738 510.963C582.175 515.261 582.66 515.746 586.941 518C588.122 514.345 589.581 506.804 590.181 502.966C600.505 503.3 614.441 497.08 622.904 491.341C627.158 492.769 647.704 491.936 653.443 492.106C683.374 492.992 714.954 489.784 741.139 474.109C746.378 470.973 750.128 466.204 754.963 463.094Z" fill="#C6D5EE"/>
<path d="M409.125 496.323C409.478 490.81 409.256 485.702 410.235 480.23C424.506 488.805 427.2 490.478 443.742 494.713C444.708 497.296 449.663 513.376 449.773 515.47C437.289 513.216 417.732 505.439 409.125 496.323Z" fill="#98F5E1"/>
<path d="M592.132 494.57C594.12 494.503 596.64 493.268 598.672 492.739C605.318 491.01 612.493 490.01 619.388 490.267C612.065 495.652 599.837 498.846 590.914 499.747L592.132 494.57Z" fill="#CFBAF0"/>
<path d="M502.817 514.784C502.229 507.886 501.294 506.201 500.129 499.934C506.604 499.914 512.121 501.834 518.376 503.245C538.86 507.864 552.102 512.401 572.787 506.463C572.029 509.436 571.732 511.667 569.998 514.205C569.431 514.74 567.165 516.859 566.604 517.089C550.174 523.832 518.747 518.053 502.817 514.784Z" fill="#8EECF5"/>
<path d="M410.277 500.539C413.29 502.437 415.652 504.039 418.529 506.136C425.861 522.732 429.873 539.631 438.52 555.632C439.612 557.652 447.106 572.92 447.1 574.094L446.191 574.652C440.316 569.838 437.028 561.752 430.127 559.042C417.7 544.471 410.998 519.56 410.277 500.539Z" fill="#FFCFD2"/>
<path d="M202.273 581.107C212.889 576.107 236.552 560.331 247.251 553.391C286.056 528.222 317.291 509.838 364.385 505.23C373.291 504.359 384.012 502.548 393.031 501.984C397.153 501.726 403.142 502.366 408.173 502.213C409.954 523.153 412.341 534.944 423.354 552.965C417.75 582.114 408.442 611.044 403.117 640.368C401.587 648.794 400.198 657.725 398.332 666.036C388.497 662.881 378.368 661.06 367.905 657.496C311.117 638.151 252.757 613.844 202.273 581.107Z" fill="#98F5E1"/>
<path d="M567.758 534.55C569.503 527.52 572.719 508.772 577.257 502.883C578.302 504.414 573.409 544.805 572.418 546.292L571.643 544.886C570.077 541.152 568.952 538.399 567.758 534.55Z" fill="#90DBF4"/>
<path d="M460.59 523.717C475.779 520.054 486.357 514.121 499.008 505.496C499.707 506.147 504.149 531.568 504.772 534.872C492.985 540.16 478.756 542.904 465.913 543.28L464.552 542.936C463.9 542.238 461.325 526.307 460.59 523.717Z" fill="#8EECF5"/>
<path d="M418.531 506.137C429.495 511.636 438.104 515.714 450.108 518.21C451.169 518.431 456.653 523.677 458.654 524.944C460.851 531.486 461.838 537.021 461.615 543.968C461.561 545.661 461.998 545.334 463.586 545.86C463.201 554.415 462.691 555.198 464.997 563.495C460.219 564.69 455.836 572.918 450.976 577.146C450.573 578.598 450.248 579.113 448.762 579.241C447.047 577.923 447.081 576.816 446.193 574.653L447.102 574.095C447.108 572.921 439.614 557.653 438.522 555.633C429.875 539.632 425.863 522.733 418.531 506.137Z" fill="#8EECF5"/>
<path d="M503.312 517.059C507.905 518.058 512.522 519.033 517.092 520.12C513.238 521.357 508.159 518.155 505.466 521.802C504.976 525.766 507.53 528.885 506.758 531.097L506.419 531.337C505.58 530.091 503.715 519.219 503.312 517.059Z" fill="#8EECF5"/>
<path d="M517.095 520.118C536.098 520.98 543.96 524.627 564.97 520.351C564.942 524.453 564.495 533.771 565.926 537.225C579.388 569.656 595.462 601.026 606.931 634.299C608.833 639.819 611.83 650.119 614.296 655.027C623.995 674.337 633.557 675.912 631.094 700.117C624.418 699.425 612.871 703.557 607.256 699.351C599.44 692.716 606.24 677.988 607.565 669.986C609.399 659.264 606.433 646.918 598.295 639.383C593.92 635.511 588.128 632.779 582.755 630.484C556.925 619.448 536.666 601.449 514.026 585.755C517.142 571.673 516.053 562.243 510.471 548.521C508.964 544.819 506.401 541.395 505.406 537.539C506.613 534.762 506.928 534.275 506.421 531.335L506.76 531.095C507.532 528.883 504.979 525.764 505.469 521.8C508.162 518.153 513.241 521.355 517.095 520.118Z" fill="#A3C4F3"/>
<path d="M470.862 600.081C474.929 595.773 484.099 583.597 482.753 577.386L481.906 577.032C481.595 577.208 481.284 577.383 480.973 577.558C479.206 584.297 469.988 607.709 460.684 597.508C465.166 591.99 471.493 584.381 470.354 577.032C468.233 563.349 464.298 560.48 465.747 545.907C481.754 544.824 487.369 543.373 502.666 538.203C512.886 557.68 517.065 570.102 510.136 592.248C506.514 603.823 499.817 609.773 489.115 615.415C495.126 605.873 500.245 599.444 500.757 587.986C500.844 586.047 502.33 584.651 502.087 581.8L501.633 581.325C497.325 586.114 498.911 592.159 496.989 596.948C495.04 601.804 489.015 617.734 481.998 613.197C480.838 608.309 491.531 587.202 489.998 582.136L488.979 581.844C489.115 581.707 479.65 609.25 479.023 611.612C476.396 607.361 473.226 604.804 470.862 600.081Z" fill="#C6D5EE"/>
<path d="M428.261 561.291C427.452 577.364 425.302 584.496 422.922 600.004C420.126 618.217 418.447 633.323 414.074 651.486C412.261 659.018 407.539 674.226 406.552 680.342C400.718 684.735 393.526 689.468 387.449 693.609C392.959 683.719 399.462 674.794 401.189 663.249C406.651 626.754 417.131 591.778 425.196 555.926L428.261 561.291Z" fill="#F1C0E8"/>
<path d="M430.129 559.043C437.03 561.753 440.318 569.839 446.193 574.653C447.081 576.816 447.047 577.923 448.762 579.241C450.248 579.113 450.573 578.598 450.976 577.146C453.006 581.133 454.577 585.707 455.855 589.997C449.767 584.195 433.9 565.852 430.129 559.043Z" fill="#74EDFC"/>
<path d="M406.553 680.34C407.54 674.224 412.262 659.016 414.075 651.484C418.448 633.321 420.127 618.215 422.923 600.002C425.303 584.494 427.453 577.362 428.262 561.289C434.281 568.919 440.373 575.927 446.671 583.306C449.746 586.909 455.297 593.221 457.72 597.111L457.33 597.972C453.679 606.11 451.309 615.14 448.229 623.54C442.851 638.203 438.867 653.34 433.841 668.103C430.775 677.109 426.641 686.123 423.057 694.946C420.121 702.175 417.007 709.449 413.397 716.362C406.962 728.927 393.361 732.774 385.236 742.989C379.668 749.989 374.707 760.513 370.348 768.446C361.961 783.711 353.88 799.378 346.422 815.126C344.185 819.851 339.313 827.846 337.7 831.652L331.598 826.258C332.385 823.08 335.975 818.859 337.454 814.525C347.341 785.562 353.911 756.415 372.669 731.488C378.237 724.089 382.983 719.991 389.298 713.361C389.893 712.736 390.218 711.5 390.438 710.669L390.976 710.376C395.605 707.9 406.4 704.694 408.355 702.433L408.107 701.999C402.493 702.202 386.735 709.769 381.026 712.567C380.46 710.037 380.743 708.883 379.377 706.495C386.571 694.756 395.009 690.887 406.01 683.234C408.062 681.806 414.193 678.109 413.952 675.623C412.484 675.659 408.176 679.179 406.553 680.34Z" fill="#8EECF5"/>
<path d="M450.977 577.147C455.837 572.919 460.22 564.691 464.998 563.496C469.323 579.125 470.328 581.756 459.935 595.284C458.676 593.741 456.85 591.645 455.856 589.998C454.578 585.708 453.007 581.134 450.977 577.147Z" fill="#E7E3F2"/>
<path d="M81.1836 625.914C121.979 626.438 152.432 612.433 186.423 591.122C191.086 588.198 198.367 584.497 202.274 581.105C252.758 613.842 311.118 638.15 367.906 657.495C378.369 661.059 388.498 662.879 398.333 666.034C392.784 684.077 382.119 696.932 372.711 712.683C363.141 728.705 351.852 742.999 342.315 758.867C339.465 763.609 337.518 771.433 335.379 776.643C332.613 783.871 325.217 813.266 321.581 817.193C318.742 817.603 318.907 817.123 317.045 819.414C317.082 818.915 317.12 818.417 317.158 817.919C310.212 813.154 289.938 803.696 283.147 800.253C259.126 788.073 237.253 776.061 214.737 762.135C173.551 736.66 135.205 709.802 106.418 670.24C94.8374 654.324 89.4803 643.234 81.1836 625.914Z" fill="#E7E3F2"/>
<path d="M514.026 585.758C536.666 601.452 556.925 619.451 582.755 630.487C588.128 632.782 593.92 635.514 598.295 639.386C606.433 646.921 609.399 659.267 607.565 669.989C606.24 677.991 599.44 692.719 607.256 699.354C612.871 703.56 624.418 699.428 631.094 700.12C628.075 715.543 620.064 723.526 610.677 735.404C609.932 736.346 609.753 737.052 610.068 738.149L611.036 738.261C620.415 728.019 626.535 719.105 631.956 706.428C632.201 707.655 632.776 711.606 633.397 712.268C633.488 714.809 633.449 716.499 634.047 718.994C632.023 721.362 630.815 726.674 629.646 729.937C626.107 739.812 619.366 747.257 611.567 754.023C604.693 754.114 597.86 751.654 594.494 751.975C590.223 742.331 586.414 732.327 582.648 722.469C585.671 722.897 589.296 724.852 592.295 724.142C591.637 721.927 583.258 717.597 580.611 715.951C575.877 706.037 572.216 695.022 567.187 684.547C552.798 654.577 532.255 622.935 510.617 597.703C511.912 594.106 513.016 589.517 514.026 585.758Z" fill="#F1C0E8"/>
<path d="M493.67 650.512C489.772 654.608 485.215 661.31 481.633 664.611C468.259 676.937 453.553 686.309 444.475 702.833C441.724 707.839 440.84 710.825 439.402 716.308C437.606 723.155 437.762 733 433.162 738.401C429.436 742.775 422.5 746.544 417.597 749.74C404.27 758.426 391.76 770.243 384.039 784.263C379.539 792.434 375.479 804.047 373.422 813.097C369.817 828.958 371.454 832.474 363.059 846.379C357.866 843.858 343.061 835.601 338.902 832.156L338.852 831.346C342.363 829.455 349.222 813.661 351.471 809.253C362.018 788.58 372.207 766.94 384.345 747.203C392.654 733.693 411.187 730.151 416.704 713.641C423.203 697.808 431.403 682.141 436.758 665.713C438.921 659.708 440.282 653.13 442.402 647.16C447.864 631.775 452.46 613.715 459.213 598.895C460.873 601.242 462.325 603.672 463.835 606.115C473.329 621.472 482.807 636.066 493.67 650.512Z" fill="#8EECF5"/>
<path d="M465.262 604.078C467.553 602.65 468.754 601.776 470.862 600.082C473.226 604.805 476.396 607.362 479.023 611.613C479.35 614.649 480.558 614.924 483.058 616.598C480.916 622.485 490.807 636.276 490.204 642.39C486.342 637.428 482.393 630.645 478.934 625.323C474.37 618.303 469.612 611.209 465.262 604.078Z" fill="#74EDFC"/>
<path d="M490.204 642.393C490.807 636.279 480.916 622.488 483.058 616.601C487.752 617.923 489.829 617.612 494.315 615.019C499.969 611.752 506.286 605.635 509.827 600.211C538.849 636.03 563.341 673.706 578.662 717.499C575.355 716.5 570.777 712.934 567.62 711.222C559.895 707.033 545.422 698.014 537.521 695.708C522.594 684.891 501.014 657.335 490.204 642.393Z" fill="#F1C0E8"/>
<path d="M363.059 846.379C371.454 832.474 369.817 828.958 373.422 813.097C375.479 804.047 379.539 792.434 384.039 784.263C391.76 770.243 404.27 758.426 417.597 749.74C422.5 746.544 429.436 742.775 433.162 738.401C437.762 733 437.606 723.155 439.402 716.308C440.84 710.825 441.724 707.839 444.475 702.833C453.553 686.309 468.259 676.937 481.633 664.611C485.215 661.31 489.772 654.608 493.67 650.512L502.772 663.163C492.983 676.656 485.698 691.055 478.117 705.773C474.039 713.689 468.992 728.213 463.858 734.858C450.652 751.951 432.131 755.912 420.291 775.394C407.164 796.994 392.679 819.624 375.849 838.468C373.517 841.018 369.712 846.476 366.451 847.61C365.786 847.841 363.939 846.77 363.059 846.379Z" fill="#F1C0E8"/>
<path d="M504.208 664.48C515.513 677.386 530.803 692.25 541.48 703.762C549.722 712.649 565.976 747.376 570.834 759.599C569.71 760.492 569.291 760.85 567.505 760.607C558.856 759.433 546.194 756.729 537.658 756.553C515.382 756.096 486.655 766.221 469.492 780.09C440.946 803.158 422.91 835.324 416.998 871.114C402.831 869.051 380.464 863.392 367.086 858.264C368.318 855.745 370.043 848.793 370.546 848.166C377.563 839.413 386.49 830.298 392.903 821.136C399.681 811.454 405.686 802.593 412.008 792.785C417.905 783.634 422.801 773.955 430.246 765.963C440.279 756.12 456.118 748.919 464.759 737.057C471.623 727.634 476.529 713.738 481.894 702.846C489.019 688.383 495.523 677.868 504.208 664.48Z" fill="#E7E3F2"/>
<path d="M537.52 695.707C545.421 698.013 559.894 707.032 567.619 711.221C570.776 712.933 575.354 716.499 578.661 717.498L580.413 722.314C573.327 721.869 561.623 714.413 555.252 710.723C552 708.84 548.768 705.173 544.661 703.549L537.52 695.707Z" fill="#74EDFC"/>
<path d="M712.891 750.233C717.081 722.724 729.831 715.019 755.105 706.139C799.368 690.587 837.364 697.254 880.827 711.068C912.637 721.178 926.367 743.181 922.928 776.92C920.913 796.689 899.502 814.217 882.298 822.209L880.971 822.146C863.671 811.51 859.45 798.866 850.193 781.684C838.855 760.639 820.479 745.24 797.799 737.813C773.823 729.962 754.906 732.811 732.039 742.201C725.356 744.945 719.597 746.824 712.891 750.233Z" fill="#8EECF5"/>
<path d="M544.66 703.547C548.767 705.171 551.998 708.838 555.25 710.721C561.621 714.411 573.325 721.867 580.411 722.312C582.694 728.293 586.145 738.517 588.642 743.964C582.87 745.034 581.946 750.305 577.208 753.563C575.432 754.784 573.336 754.871 571.693 755.966C565.158 740.979 553.369 716.907 544.66 703.547ZM560.902 715.847C564.283 720.858 567.682 724.775 571.362 729.482L577.635 731.429C576.847 725.867 565.832 718.102 560.902 715.847Z" fill="#F1C0E8"/>
<path d="M379.379 706.496C380.745 708.884 380.462 710.038 381.028 712.568C377.622 714.13 374.954 715.9 371.91 718.038C374.334 714.118 376.84 710.338 379.379 706.496Z" fill="#E7E3F2"/>
<path d="M323.363 818.988C335.264 798.459 335.481 766.421 352.511 746.673C358.024 740.28 362.861 730.564 368.425 723.955C373.87 717.485 382.889 713.966 390.437 710.672C390.217 711.503 389.892 712.739 389.297 713.364C382.982 719.994 378.236 724.092 372.668 731.491C353.91 756.418 347.34 785.565 337.453 814.528C335.974 818.862 332.384 823.083 331.597 826.261C328.835 823.968 326.05 821.395 323.363 818.988Z" fill="#F1C0E8"/>
<path d="M571.362 729.483C567.682 724.776 564.283 720.859 560.902 715.848C565.832 718.103 576.847 725.868 577.635 731.43L571.362 729.483Z" fill="#8EECF5"/>
<path d="M580.609 715.949C583.256 717.595 591.635 721.925 592.293 724.14C589.294 724.85 585.669 722.895 582.646 722.467C581.941 720.303 581.28 718.124 580.609 715.949Z" fill="#90DBF4"/>
<path d="M611.565 754.021C619.364 747.255 626.105 739.81 629.644 729.935C630.813 726.672 632.021 721.36 634.045 718.992L636.174 728.472C631.005 730.625 631.799 735.767 629.938 740.553C622.59 759.451 630.272 777.841 634.979 796.263C635.441 798.06 635.96 804.454 636.391 805.358C636.572 811.354 637.666 823.209 634.662 828.158C628.303 815.679 620.26 803.264 613.439 790.902C606.298 777.959 600.501 765.506 594.492 751.973C597.858 751.652 604.691 754.112 611.565 754.021Z" fill="#8EECF5"/>
<path d="M636.393 805.359C635.962 804.455 635.443 798.061 634.981 796.264C630.274 777.842 622.592 759.452 629.94 740.554C631.801 735.768 631.007 730.626 636.176 728.473C641.574 750.12 647.818 765.914 656.065 786.707C650.555 788.66 640.802 797.853 636.601 802.687C636.448 802.864 636.402 805.039 636.393 805.359Z" fill="#D6F2EF"/>
<path d="M712.889 750.233C719.595 746.824 725.354 744.945 732.037 742.201C754.904 732.811 773.821 729.962 797.797 737.813C820.477 745.24 838.853 760.639 850.191 781.684C859.448 798.866 863.669 811.51 880.969 822.146C832.212 841.671 772.201 836.811 732.621 799.363C717.938 785.471 712.535 770.673 712.634 750.659L712.889 750.233Z" fill="#B9FBC0"/>
<path d="M571.695 755.967C573.338 754.872 575.434 754.785 577.21 753.564C581.948 750.306 582.872 745.035 588.644 743.965C594.893 761.183 605.939 781.931 614.732 797.978C619.18 806.097 624.825 814.442 629.172 822.542C627.353 825.879 630.713 840.251 631.188 845.01C631.728 850.422 631.978 857.634 632.99 862.767C631.653 863.077 627.99 864.023 626.97 863.222C623.727 860.673 619.336 853.924 616.963 850.657C604.269 833.179 593.225 814.548 585.446 794.353C580.574 781.704 576.734 768.686 571.695 755.967Z" fill="#8EECF5"/>
<path d="M570.833 759.6C575.406 771.301 578.842 783.618 583.266 795.32C588.333 808.721 595.829 822.747 603.526 834.845C599.345 836.695 595.045 839.892 591.096 842.289C546.681 869.241 493.492 880.52 441.915 874.808C433.611 873.889 425.22 872.624 416.93 871.413L416.997 871.115C422.909 835.325 440.945 803.159 469.491 780.091C486.654 766.222 515.381 756.097 537.657 756.554C546.193 756.73 558.855 759.434 567.504 760.608C569.29 760.851 569.709 760.493 570.833 759.6Z" fill="#B9FBC0"/>
<path d="M636.393 805.359C636.402 805.039 636.448 802.864 636.601 802.687C640.802 797.853 650.555 788.66 656.065 786.707C661.413 797.384 666.475 808.003 672.211 818.513C676.24 825.896 682.595 833.234 684.978 841.117C674.975 846.513 659.122 853.809 648.259 857.119C644.014 848.14 639.162 836.654 634.664 828.159C637.668 823.21 636.574 811.355 636.393 805.359Z" fill="#E6DFD5"/>
<path d="M320.459 819.188C323.514 822.283 326.775 825.257 329.962 828.225C327.086 839.297 329.593 846.188 324.26 854.415C318.167 851.435 311.779 848.126 307.035 843.223C310.94 833.526 313.116 826.551 320.459 819.188Z" fill="#F1C0E8"/>
<path d="M632.99 862.768C631.978 857.635 631.728 850.423 631.188 845.011C630.713 840.252 627.353 825.88 629.172 822.543C634.278 832.158 642.535 847.584 646.651 857.632C642.115 859.42 637.624 861.246 632.99 862.768Z" fill="#E6DFD5"/>
<path d="M329.964 828.223C339.684 836.187 350.735 842.647 361.899 848.405C350.937 858.453 341.311 851.961 335.028 860.048L324.262 854.413C329.595 846.186 327.088 839.295 329.964 828.223ZM333.592 839.8C334.898 842.473 340.828 850.44 343.365 851.648C341.708 849.256 335.854 840.694 333.592 839.8Z" fill="#8EECF5"/>
<path d="M416.928 871.412C425.218 872.623 433.609 873.888 441.913 874.807C493.49 880.519 546.679 869.24 591.094 842.288C595.043 839.891 599.343 836.694 603.524 834.844C605.813 838.329 608.948 843.513 611.309 846.737L610.695 847.205C603.425 852.803 591.964 867.173 585.112 874.447C552.521 909.043 512.794 955.295 459.908 948.586C446.85 946.93 432.37 938.749 425.093 928.399C415.124 914.219 412.704 891.625 416.086 874.939C416.413 873.324 416.346 873.06 416.928 871.412Z" fill="#FAE0A3"/>
<path d="M343.367 851.649C340.83 850.441 334.9 842.474 333.594 839.801C335.856 840.695 341.71 849.257 343.367 851.649Z" fill="#74EDFC"/>
<path d="M648.738 859.241C663.864 853.726 671.028 849.909 685.025 843.863C686.897 849.854 688.27 854.399 688.812 860.65C685.045 864.012 662.752 873.871 656.669 876.886C653.612 871.503 651.014 865.026 648.738 859.241Z" fill="#E6DFD5"/>
<path d="M294.055 874.049C297.932 865.401 304.323 856.777 308.775 847.793C315.45 852.723 338.646 865.119 346.596 868.851C342.576 878.581 342.674 892.589 331.963 897.287C326.286 898.878 313.47 898.977 307.856 896.596C300.146 893.325 296.819 881.579 294.055 874.049ZM321.719 859.816C321.594 862.171 322.409 864.771 323.196 866.986C325.999 874.867 331.716 876.5 338.769 873.747L338.635 872.813C334.902 871.681 329.564 874.535 327.029 869.494C324.914 865.286 325.788 861.91 321.719 859.816Z" fill="#E6DFD5"/>
<path d="M361.898 848.406C363.818 849.267 365.818 850.129 367.71 851.036C359.345 873.964 352.794 870.061 335.027 860.049C341.31 851.962 350.936 858.454 361.898 848.406Z" fill="#FFCFD2"/>
<path d="M626.059 866.299C634.879 865.019 640.348 862.428 648.736 859.242C651.012 865.027 653.61 871.504 656.667 876.887C637.625 886.019 634.184 886.642 626.059 866.299Z" fill="#FFCFD2"/>
<path d="M338.77 873.747C331.717 876.5 326 874.867 323.197 866.986C322.41 864.771 321.595 862.171 321.72 859.816C325.789 861.91 324.915 865.286 327.03 869.494C329.565 874.535 334.903 871.681 338.636 872.813L338.77 873.747Z" fill="black"/>
<path d="M650.121 882.297C656.337 879.818 662.12 876.605 668.142 873.713C674.784 870.523 681.515 867.456 688.221 864.395C692.6 864.48 703.069 882.169 705.602 886.442C705.631 886.491 706.53 893.594 706.69 894.671C709.944 897.664 714.325 903.02 718.497 903.711C733.883 906.259 756.68 907.484 770.308 899.856C770.815 896.605 770.765 894.629 770.758 891.344C773.192 890.762 781.735 888.122 783.818 886.951C793.842 881.318 811.736 892.68 808.628 903.604C803.474 921.714 777.911 935.912 760.985 941.07C744.55 946.08 736.725 945.44 720.786 955.03C709.023 962.529 695.654 969.965 680.625 968.038C677.812 967.677 674.881 965.448 673.288 962.885C670.316 958.777 660.581 923.188 661.841 920.828C668.256 908.809 698.839 937.448 705.7 907.831C698.329 919.463 696.144 921.458 681.702 918.078C677.168 917.017 671.769 916.127 667.146 915.598C664.153 908.537 653.967 888.149 650.121 882.297ZM795.472 891.599C795.965 898.119 796.502 904.202 791.949 909.612C788.819 913.331 783.834 915.912 779.683 918.249C759.843 929.424 737.99 934.402 716.275 940.421C708.805 942.492 700.969 944.812 693.471 946.87C689.958 947.834 675.176 949.96 674.458 950.38L674.663 951.24L676.072 952.036C690.617 950.379 702.574 946.565 716.501 942.646C742.652 935.286 773.34 929.404 793.938 910.572C796.916 907.849 801.201 893.073 795.472 891.599ZM755.836 908.729C750.551 914.781 749.061 924.309 758.401 926.935C756.916 922.973 752.457 921.081 754.208 915.828C754.886 913.795 756.883 910.986 756.989 909.076L755.836 908.729Z" fill="#E6DFD5"/>
<path d="M268.035 896.034C274.648 889.292 283.087 877.543 291.013 873.871C294.255 875.788 296.03 893.92 305.347 897.93C313.481 901.431 326.905 901.508 334.949 899.011C337.191 906.276 341.14 916.983 344.84 923.715C345.232 924.427 347.855 926.78 348.6 927.446C351.644 927.321 361.913 925.383 363.422 926.412C366.209 928.313 365.766 931.142 361.785 932.599C353.273 935.714 347.329 942.403 341.39 948.888C340.139 950.548 339.395 951.92 338.366 953.714C330.316 946.938 317.089 934.662 308.208 930.071C290.269 920.799 275.49 917.674 268.035 896.034Z" fill="#E6DFD5"/>
<path d="M710.497 892.347C709.123 885.408 706.74 882.258 710.844 875.789C717.052 877.033 718.854 883.534 721.447 888.88L717.418 891.53C716.117 892.254 712.258 892.24 710.497 892.347Z" fill="#E6DFD5"/>
<path d="M349.038 898.532C347.179 895.638 344.92 891.296 347.274 888.002L346.642 886.207C349.772 887.596 351.228 893.515 350.94 896.708C350.87 897.479 349.698 898.05 349.038 898.532Z" fill="#FCFBFA"/>
<path d="M716.587 893.843C719.149 892.337 723.686 889.502 726.67 889.572L727.04 890.169C726.302 892.607 725.561 893.821 725.093 896.448C721.522 897.813 720.393 898.246 716.422 898.16C717.839 897.299 717.505 897.723 718.414 896.486C717.19 895.47 717.084 895.353 716.587 893.843Z" fill="#E6DFD5"/>
<path d="M768.425 889.612C768.243 892.527 768.162 893.576 768.512 896.529C768.473 897.92 767.249 899.463 766.023 899.88C752.692 904.407 729.931 904.515 716.691 900.224C723.175 899.284 729.746 898.964 735.877 898.011C735.774 895.463 735.877 894.206 735.57 891.527C733.816 891.682 732.593 898.522 728.587 897.174C727.809 896.304 727.101 895.763 727.303 894.457C728.301 887.979 737.093 889.603 741.191 890.286C739.462 892.897 736.504 895.445 740.731 899.214C741.679 900.06 744.973 899.755 745.795 898.466C744.962 897.418 742.335 897.119 740.874 895.355C741.267 893.166 742.553 892.289 744.267 890.733C747.566 890.916 752.329 891.215 755.455 890.479C754.776 893.335 753.156 899.244 757.831 899.205C760.021 899.187 762.782 897.55 761.998 894.844L761.719 894.163L762.81 892.767C766.745 892.002 765.934 892.356 768.425 889.612ZM748.532 892.28C747.85 894.34 747.103 895.926 747.284 898.054C748.339 899.948 747.567 899.242 749.907 899.98C750.755 897.852 750.397 893.682 748.532 892.28Z" fill="#E6DFD5"/>
<path d="M762.001 894.843C759.229 895.093 759.551 896.72 757.006 896.728L756.39 895.657C756.316 893.352 756.754 890.696 759.519 890.68C761.4 892.294 760.795 891.639 761.722 894.162L762.001 894.843Z" fill="#FBF8CC"/>
<path d="M676.075 952.038L674.666 951.242L674.461 950.382C675.179 949.962 689.961 947.836 693.474 946.872C700.972 944.814 708.808 942.494 716.278 940.423C737.993 934.404 759.846 929.426 779.686 918.251C783.837 915.914 788.822 913.334 791.952 909.615C796.505 904.205 795.968 898.122 795.475 891.602C801.204 893.076 796.919 907.851 793.941 910.574C773.343 929.406 742.655 935.288 716.504 942.648C702.577 946.567 690.62 950.381 676.075 952.038Z" fill="black"/>
<path d="M749.908 899.977C747.568 899.239 748.34 899.945 747.285 898.051C747.104 895.923 747.851 894.337 748.533 892.277C750.398 893.679 750.756 897.849 749.908 899.977Z" fill="black"/>
<path d="M716.422 898.161C715.001 897.911 714.231 897.943 713.219 896.936C713.823 895.43 715.212 894.947 716.587 893.844C717.084 895.354 717.19 895.471 718.414 896.487C717.505 897.724 717.839 897.3 716.422 898.161Z" fill="#FCFBFA"/>
<path d="M344.513 897.649C342.311 898.527 338.718 900.572 336.953 898.696C337.611 895.939 339.849 894.412 342.731 894.525C344.051 894.577 344.583 895.818 345.286 896.802C345.111 896.983 344.609 897.457 344.513 897.649Z" fill="#FCFBFA"/>
<path d="M345.288 896.801C345.887 897.865 347.445 900.452 347.778 901.49C351.747 907.031 353.836 911.26 356.865 917.369C353.944 914.664 351.299 910.853 347.239 912.899C345.606 910.314 345.225 910.425 342.269 909.526C342.524 908.497 342.274 908.959 343.062 908.163C344.883 907.765 347.666 907.177 348.956 905.806C347.859 904.82 346.653 904.984 344.873 904.716C342.738 904.784 341.901 906.016 339.81 906.47C338.706 905.09 338.515 903.516 339.046 901.909C341.066 900.47 342.872 901.777 345.341 900.558C345.609 899.063 345.382 899.326 344.515 897.648C344.611 897.456 345.113 896.982 345.288 896.801Z" fill="#FCFBFA"/>
<path d="M395.534 970.08C387.216 972.694 373.504 973.085 364.538 973.08C346.512 973.07 329.418 967.987 315.863 955.824C311.25 952.007 306.747 946.345 301.463 943.517C295.235 940.337 288.355 940.157 281.818 937.71C271.867 933.986 257.687 922.947 257.494 911.452C257.4 905.868 262.342 901.439 266.274 898.043C277.489 921.97 289.297 922.538 310.961 934.273C319.728 939.202 332.894 954.866 341.673 957.823C356.398 962.782 385.406 962.076 399.845 956.427C401.663 957.701 402.347 963.14 401.724 965.056C400.818 967.843 398.033 968.969 395.534 970.08Z" fill="#E6DFD5"/>
<path d="M342.744 915.952C342.075 914.156 340.605 910.879 341.022 909.211L342.268 909.526C345.224 910.425 345.605 910.314 347.238 912.899C345.69 913.783 344.207 914.914 342.744 915.952Z" fill="#E6DFD5"/>
<path d="M758.403 926.937C749.063 924.311 750.553 914.782 755.838 908.73L756.991 909.077C756.885 910.987 754.888 913.797 754.21 915.83C752.459 921.083 756.918 922.975 758.403 926.937Z" fill="black"/>
<path d="M349.166 918.986C348.386 920.341 348.263 920.604 347.216 921.834C345.631 921.927 346.356 922.127 345.015 921.061C344.544 919.441 344.717 919.302 345.1 917.68C346.118 916.047 347.427 915.766 349.241 914.992C352.594 915.776 354.701 917.591 357.407 919.606C353.947 919.088 352.688 918.874 349.166 918.986Z" fill="#E6DFD5"/>
<path d="M357.368 924.222C355.155 924.684 351.498 925.772 349.625 924.774C349.081 923.197 349.38 923.488 350.234 921.427C352.382 921.406 358.544 920.903 358.583 923.712L357.368 924.222Z" fill="#FCFBFA"/>
<path d="M340.258 954.641C345.392 945.784 354.997 938.221 363.896 933.414C367.055 933.544 374.741 939.923 378.246 941.972C382.825 944.649 396.136 949.338 398.101 953.681C396.045 957.392 380.599 958.094 376.124 958.46C363.359 958.727 352.341 959.487 340.258 954.641Z" fill="#E6DFD5"/>
<defs>
<linearGradient id="paint0_linear_2264_37595" x1="635.904" y1="192.242" x2="706.515" y2="466.466" gradientUnits="userSpaceOnUse">
<stop stop-color="#FDE49E"/>
<stop offset="1" stop-color="#F2D2B4"/>
</linearGradient>
<linearGradient id="paint1_linear_2264_37595" x1="455.462" y1="230.78" x2="452.512" y2="226.889" gradientUnits="userSpaceOnUse">
<stop stop-color="#CFE5EB"/>
<stop offset="1" stop-color="#F4F2F1"/>
</linearGradient>
<linearGradient id="paint2_linear_2264_37595" x1="398.154" y1="326.989" x2="425.767" y2="327.512" gradientUnits="userSpaceOnUse">
<stop stop-color="#B5F2D9"/>
<stop offset="1" stop-color="#AFEEEB"/>
</linearGradient>
<linearGradient id="paint3_linear_2264_37595" x1="361.07" y1="422.544" x2="352.216" y2="384.015" gradientUnits="userSpaceOnUse">
<stop stop-color="#A1F5DA"/>
<stop offset="1" stop-color="#CDF0EC"/>
</linearGradient>
</defs>
</svg>
