<svg width="1024" height="1024" viewBox="0 0 1024 1024" fill="none" xmlns="http://www.w3.org/2000/svg">
<path d="M466.586 157.591C518.098 98.8711 582.044 65.5173 660.133 60.3851C720.508 56.4171 772.511 73.9258 817.903 113.79C824.752 119.804 830.519 126.547 836.496 133.395C884.615 188.537 911.498 265.952 915.857 338.44C916.303 345.86 916.154 353.406 916.196 360.841C916.465 407.585 910.792 455.152 893.862 499.01L893.099 499.422C886.081 491.47 880.44 482.232 874.13 473.714C863.429 459.496 851.245 446.457 837.783 434.817C817.447 417.51 792.594 405.505 766.819 399.058C757.937 396.837 748.902 395 739.688 395.712C731.002 374.673 716.858 355.81 698.098 342.683C700.262 340.175 703.2 338.026 705.611 335.725C712.819 328.846 717.676 320.958 720.82 311.513C726.65 294.007 725.281 272.34 716.976 255.82C708.418 238.799 692.046 226.088 674.081 220.253C662.902 216.623 649.232 216.191 638.078 220.179C633.68 221.752 629.728 223.992 625.599 226.124C612.672 210.743 597.137 197.222 578.492 189.261C552.546 178.183 524.698 178.653 498.709 189.086C496.185 182.629 472.94 163.468 466.518 157.908L466.586 157.591Z" fill="#DFF9F7"/>
<path d="M171.329 468.797C166.074 463.184 160.411 457.957 155.44 452.077C121.844 412.041 100.825 362.971 95.0216 311.03C87.8869 251.397 103.067 204.348 140.045 157.471C171.792 117.375 218.184 91.5529 268.991 85.6994C312.572 80.7583 356.04 93.7704 395.022 112.317C402.926 116.078 410.908 119.824 418.484 124.225C435.251 133.967 451.412 145.536 466.586 157.591L466.518 157.908C459.62 165.343 453.305 173.137 447.004 181.077C442.065 176.879 435.409 173.64 429.665 170.65C403.217 156.885 375.896 150.509 346.06 152.926C306.877 156.1 269.162 176.86 243.797 206.603C216.058 239.13 204.763 282.145 208.218 324.293C208.83 331.757 209.715 339.547 211.459 346.829C212.57 351.465 215.687 359.617 215.967 363.961L217.105 367.335C218.809 379.48 234.798 394.967 234.943 405.616C234.965 407.175 234.3 408.453 233.488 409.748C228.987 412.643 224.36 415.29 220.012 418.422C207.105 427.716 194.966 439.595 184.712 451.738C180.082 457.221 176.127 463.522 171.329 468.797ZM202.162 179.169C199.235 179.894 197.458 182.865 198.205 185.787C198.952 188.709 201.937 190.463 204.853 189.694C207.739 188.933 209.47 185.987 208.731 183.096C207.992 180.205 205.059 178.451 202.162 179.169ZM191.662 366.504C189.67 367.337 187.603 368.165 186.608 370.24C186.015 371.477 186.208 372.661 186.739 373.87C187.677 376.007 190.217 377.103 192.149 378.101C194.074 377.2 196.31 376.318 197.144 374.169C197.675 372.8 197.741 371.765 197.21 370.385C196.555 368.683 194.651 367.472 193.009 366.892C192.299 366.641 192.3 366.656 191.662 366.504Z" fill="#FBF8CC"/>
<path d="M215.967 363.963C215.687 359.619 212.57 351.467 211.459 346.831C209.715 339.549 208.83 331.759 208.218 324.295C204.763 282.147 216.058 239.132 243.797 206.605C269.162 176.862 306.877 156.102 346.06 152.928C375.896 150.511 403.218 156.887 429.666 170.652C435.41 173.642 442.065 176.881 447.004 181.079C455.472 186.899 469.399 194.068 473.646 203.872C456.675 218.268 443.824 234.12 437.489 255.787C434.761 251.543 433.187 242.307 430.39 236.835C425.995 228.235 419.193 221.83 409.917 218.878C420.848 212.667 426.557 200.142 424.075 187.817C421.593 175.493 411.48 166.153 398.998 164.657C386.515 163.161 374.482 169.846 369.158 181.235C363.834 192.624 366.421 206.144 375.574 214.762C365.548 215.738 357.587 221.75 351.344 229.374C344.237 238.055 339.488 250.514 340.644 261.837C341.449 269.72 344.6 277.799 348.835 284.457C350.227 286.645 352.003 288.607 353.308 290.837C325.895 302.056 302.484 318.162 290.668 346.294C284.877 360.262 281.25 375.031 279.913 390.093C263.905 394.552 248.967 400.18 235.948 410.84L233.488 409.75C234.3 408.455 234.965 407.177 234.943 405.618C234.798 394.969 218.809 379.482 217.105 367.337C218.501 368.693 219.894 369.657 221.855 370.004C223.171 370.237 224.425 369.923 225.441 369.019C226.661 367.933 227.343 366.187 227.446 364.584C227.549 363.001 227.104 361.133 225.95 359.978C225.042 359.069 223.996 358.635 222.695 358.751C219.859 359.002 217.51 361.88 215.967 363.963ZM339.898 164.604C337.469 166.126 335.679 167.358 334.976 170.278C334.581 171.918 334.731 173.564 335.687 174.987C336.572 176.305 337.808 177.104 339.368 177.364C340.146 177.494 340.931 177.549 341.716 177.622C344.2 176.119 345.483 174.63 346.245 171.775C346.71 170.033 346.671 168.123 345.627 166.582C344.816 165.384 343.638 164.735 342.218 164.576C341.455 164.491 340.662 164.542 339.898 164.604ZM272.095 258.994C270.105 260.51 268.236 261.833 267.897 264.481C267.69 266.099 268.097 267.546 269.12 268.829C270.346 270.367 272.892 271.483 274.817 271.553C275.144 271.565 275.471 271.561 275.798 271.565C278.028 270.107 279.742 269.098 280.224 266.297C280.5 264.691 280.284 263.017 279.32 261.67C278.326 260.283 276.584 259.231 274.897 258.993C273.977 258.863 273.015 258.892 272.095 258.994Z" fill="#FCE9C3"/>
<path d="M447.004 181.079C453.305 173.139 459.62 165.345 466.518 157.91C472.94 163.47 496.185 182.631 498.709 189.088C489.804 193.241 481.462 197.863 473.646 203.872C469.399 194.068 455.472 186.899 447.004 181.079Z" fill="#C0F5E0"/>
<path d="M375.575 214.762C366.422 206.144 363.835 192.624 369.159 181.235C374.483 169.846 386.516 163.161 398.999 164.657C411.481 166.153 421.594 175.493 424.076 187.817C426.558 200.142 420.849 212.667 409.918 218.878C398.808 225.192 384.879 223.523 375.575 214.762Z" fill="#CFBAF0"/>
<path d="M341.715 177.622C340.93 177.549 340.145 177.494 339.367 177.364C337.807 177.104 336.571 176.305 335.686 174.987C334.73 173.564 334.58 171.918 334.975 170.278C335.678 167.358 337.468 166.126 339.897 164.604C340.661 164.542 341.454 164.491 342.217 164.576C343.637 164.735 344.815 165.384 345.626 166.582C346.67 168.123 346.709 170.033 346.244 171.775C345.482 174.63 344.199 176.119 341.715 177.622Z" fill="#FDE4CF"/>
<path d="M204.854 189.694C201.938 190.463 198.953 188.709 198.206 185.787C197.459 182.865 199.236 179.894 202.163 179.169C205.06 178.451 207.993 180.205 208.732 183.096C209.471 185.987 207.74 188.933 204.854 189.694Z" fill="#B9FBC0"/>
<path d="M498.709 189.089C524.698 178.656 552.546 178.186 578.492 189.264C597.137 197.225 612.672 210.746 625.599 226.127C643.651 251.415 651.576 278.233 646.477 309.207C645.69 313.991 644.438 318.693 643.12 323.355C662.213 325.054 682.411 331.46 698.098 342.686C716.858 355.813 731.002 374.676 739.688 395.715C744.539 409.048 747.931 421.948 747.869 436.253C769.871 453.818 782.609 473.702 785.691 502.168C789.451 536.906 775.437 565.269 754.165 591.557C728.332 623.169 691.116 643.37 650.533 647.807C637.63 649.15 623.745 648.39 611.098 645.279C612.676 651.838 616.081 660.962 612.163 667.151C611.74 667.819 611.184 668.254 610.558 668.717C609.001 668.913 608.184 668.787 606.931 667.785C604.368 665.737 602.56 662.325 600.885 659.524C600.515 660.992 600.673 662.2 599.288 663.128C598.156 663.886 596.459 663.7 595.24 663.248C593.895 662.749 592.587 661.849 591.98 660.513C591.395 659.222 591.267 657.835 591.184 656.439L591.364 656.278C591.69 657.143 592.003 658.005 592.289 658.884L592.736 658.953C593.079 656.434 593.175 653.947 593.254 651.411L592.829 651.999C589.525 656.528 585.532 660.517 581.93 664.806C577.799 669.725 573.967 675.034 570.278 680.292C542.763 719.516 532.979 761.257 528.991 808.45C528.545 814.332 528.298 820.24 527.78 826.115C533.115 818.41 542.223 812.75 551.455 811.14C558.798 809.859 568.791 810.626 574.998 815.035C577.562 816.856 579.423 819.443 579.895 822.59C580.549 826.952 578.915 830.66 576.755 834.326C571.936 839.9 566.536 843.427 558.964 843.881C550.829 844.369 543.916 841.247 538.049 835.812C534.864 832.861 531.894 829.618 528.884 826.486L528.804 827.327C528.214 833.87 529.661 840.686 530.958 847.097C533.113 857.743 536.914 868.673 542.099 878.229C558.72 908.862 587.826 931.468 596.092 966.608C596.735 969.344 598.416 975.338 597.398 977.839L596.76 977.61C595.051 970.881 594.256 964.112 591.802 957.544C579.999 925.955 552.727 904.629 538.459 874.648C534.864 867.093 532.07 858.815 530.306 850.635C529.178 845.4 528.499 840.025 527.163 834.844C525.028 847.805 524.368 861.092 522.785 874.144C519.499 901.236 512.216 924.648 520.84 951.961C523.16 959.077 526.218 965.932 529.962 972.414C532.361 976.631 535.183 980.746 536.914 985.292C520.883 966.971 513.727 939.82 515.285 915.867C515.972 905.3 518.133 894.793 519.778 884.339C521.738 871.877 523.197 859.537 524.066 846.956C524.517 843.654 525.752 838.529 525.024 835.317C523.8 838.875 523.209 842.907 523.124 846.663C522.924 848.452 522.526 850.223 522.126 851.977C520.224 860.333 517.334 868.414 514.761 876.576C507.523 899.537 500.123 922.565 486.608 942.732C485.103 944.978 482.651 949.314 480.238 950.575C480.058 950.67 479.857 950.718 479.666 950.789L480.508 950.542L479.971 950.83C479.308 950.267 479.913 949.565 480.317 948.904C484.062 942.772 488.568 937.3 492.079 930.936C495.254 925.106 498.083 919.094 500.549 912.93C505.117 901.573 523.42 849.949 522.567 839.73C520.041 845.823 517.742 852.069 514.713 857.935C504.834 877.068 488.842 894.646 470.299 905.616C464.756 908.895 444.187 919.071 438.063 917.481L437.838 916.829C441.57 915.099 445.908 914.612 449.849 913.437C457.577 911.133 465.279 907.192 472.034 902.825C500.357 884.515 516.926 858.508 523.957 825.923C516.241 831.479 510.277 838.672 503.213 844.941C498.298 849.304 490.404 854.83 483.54 854.185C480.649 853.912 477.571 852.598 475.823 850.2C473.818 847.45 473.767 843.533 474.367 840.318C475.471 834.405 479.673 829.695 484.507 826.382C496.52 818.148 510.017 821.222 523.178 823.627C524.099 822.956 524.12 822.853 524.491 821.767C524.023 818.259 522.384 814.869 521.231 811.529C519.784 807.34 518.762 803.013 517.259 798.841C515.39 793.652 512.773 788.753 510.187 783.894C506.622 775.594 501.609 767.367 497.154 759.49C473.484 717.631 440.836 672.663 406.834 638.543C406.298 640.644 405.776 642.748 405.268 644.855C402.916 647.386 398.405 652.224 394.739 652.278C393.523 652.296 392.762 651.744 392.038 650.824C389.482 647.577 391.318 636.953 391.668 633.15C385.881 634.256 380.389 634.856 374.483 634.504C362.603 633.796 350.29 630.402 338.913 626.98C300.57 615.447 263.862 597.14 237.048 566.713C214.317 540.92 203.848 506.382 206.095 472.202C207.644 448.644 218.097 426.446 235.948 410.841C248.967 400.181 263.905 394.553 279.913 390.094C281.25 375.032 284.877 360.263 290.668 346.295C302.484 318.163 325.895 302.057 353.308 290.838C379.184 280.877 407.377 278.566 434.529 284.182C434.317 274.271 435.507 265.491 437.489 255.788C443.824 234.121 456.675 218.269 473.646 203.873C481.462 197.864 489.804 193.242 498.709 189.089ZM629.268 235.508C615.293 212.217 586.547 192.197 560.305 185.729C533.967 179.238 507.951 185.142 485.167 199.066C463.025 212.598 444.733 234.378 438.71 259.976C436.801 268.092 436.407 276.131 436.534 284.439C471.225 293.684 496.12 310.868 514.321 342.259C522.959 357.156 525.622 367.201 531.301 382.665C532.944 390.116 533.57 397.637 533.907 405.244C534.066 408.849 533.943 412.664 534.42 416.231C534.375 421.362 534.18 426.491 533.834 431.61C532.357 439.595 531.411 447.738 529.66 455.665C525.345 475.189 518.544 494.768 510.01 512.871C513.073 520.435 515.373 528.285 518.406 535.871C523.846 549.476 538.072 580.267 547.606 590.112C549.131 591.686 550.727 592.648 552.727 593.514C556.65 595.211 561.395 596.691 565.689 596.275C570.543 595.764 575.394 594.793 580.211 593.996C579.563 590.681 579.184 587.287 578.715 583.94C574.677 548.928 580.201 521.051 600.516 491.716C620.034 463.534 659.697 426.785 693.964 420.733C711.709 417.6 731.109 424.472 745.587 434.482C745.621 428.159 744.656 421.659 743.317 415.491C736.975 386.288 718.453 358.566 693.177 342.372C667.745 326.079 636.192 321.877 606.939 328.347C572.431 335.98 551.848 353.58 533.296 382.669L532.405 383.018C534.183 376.03 544.806 362.985 549.855 357.401C570.354 334.735 599.572 324.757 629.478 323.315C633.742 323.119 638.026 323.354 642.291 323.494C642.879 317.153 644.592 310.937 645.269 304.587C647.985 279.113 642.649 257.255 629.268 235.508ZM459.357 294.746C426.568 280.416 389.452 279.581 356.052 292.424C337.001 299.613 315.928 311.933 303.427 328.184C299.747 332.967 296.955 338.326 294.478 343.811C287.953 358.29 283.698 373.688 281.861 389.462C314.775 383.287 339.421 387.518 367.258 406.511C388.162 420.773 399.819 437.132 411.642 458.981C424.93 491.773 429.399 523.192 424.572 558.365L423.771 565.42C434.778 569.276 448.545 575.734 460.297 574.54C468.439 573.713 474.165 567.679 478.924 561.583C481.584 558.175 492.599 543.128 492.165 539.683C487.628 531.35 483.669 515.512 481.533 505.969C479.409 497.083 478.052 488.217 477.016 479.148C475.582 453.672 478.107 430.055 486.893 406.023C489.998 398.805 493.266 391.323 498.418 385.305C497.952 387.646 489.857 401.788 488.151 406.089C486.741 410.081 485.318 414.058 484.15 418.13C475.839 447.11 476.119 477.305 482.716 506.552C485.693 517.671 489.428 528.433 493.368 539.241C497.368 534.9 505.546 517.969 507.931 512.049C504.39 497.886 501.453 484.016 500.81 469.377C500.847 463.486 501.448 457.79 502.568 452.007L503.635 451.929C499.12 470.197 505.423 491.976 509.559 509.914C520.986 485.586 530.782 450.333 532.35 423.432C533.043 411.532 532.413 397.698 529.947 386.056C525.328 364.248 512.984 339.722 498.133 323.126C490.424 312.366 471.452 300.187 459.357 294.746ZM295.974 389.326C291.092 389.889 286.274 390.515 281.469 391.583C280.066 405.309 282.58 437.2 288.698 448.868C291.756 459.085 296.931 470.548 302.559 479.625C307.155 488.703 313.719 498.674 320.836 505.98C339.138 525.811 359.691 543.026 384.999 553.191C392.996 556.403 401.301 558.712 409.544 561.192L421.896 564.976C422.312 562.772 422.472 560.679 422.527 558.439C422.923 556.98 423.104 555.421 423.353 553.928C423.928 546.075 424.762 538.326 424.666 530.432C424.381 507.006 419.074 477.132 407.904 456.475C401.563 441.556 389.534 427.617 377.452 417.015C353.865 396.317 327.163 387.214 295.974 389.326ZM729.408 505.944C697.609 555.369 665.446 578.702 607.805 591.176C600.504 592.723 593.176 594.133 585.822 595.405C584.734 595.521 584.125 595.617 583.212 596.235C583.196 596.729 583.171 597.007 583.206 597.477C583.912 606.981 595.259 632.519 602.323 638.41C612.082 646.55 636.527 646.644 648.558 645.613C685.409 642.454 724.945 622.571 748.799 594.217C770.483 568.44 786.346 539.176 783.212 504.425C780.72 476.803 769.086 456.756 748.018 439.314C748.173 464.332 742.047 484.486 729.408 505.944ZM721.788 512.906C739.15 487.674 745.994 467.478 745.597 436.878C731.335 426.966 712.259 419.764 694.719 422.816C660.46 428.778 621.662 464.253 602.105 492.495C584.533 517.87 575.295 548.876 580.464 579.7C580.939 584.382 581.684 589.042 582.353 593.699C590.072 592.135 597.851 590.876 605.575 589.337C657.15 579.058 692.399 556.934 721.788 512.906ZM352.451 537.731C344.695 531.703 336.713 525.694 329.635 518.872C303.83 494 285.385 459.735 280.962 423.987C279.686 413.671 278.727 402.268 279.807 391.926C253.612 399.295 232.61 409.894 218.871 434.39C205.298 458.589 204.384 488.501 211.866 514.864C214.8 525.201 218.546 535.459 223.831 544.833C237.341 568.789 261.185 589.587 285.146 602.802C307.54 615.154 364.786 638.495 389.071 631.581C398.17 628.99 404.052 622.632 408.448 614.598C416.186 600.46 420.315 582.245 421.723 566.178C417.447 565.016 413.267 563.726 409.084 562.263C388.318 557.464 370.257 549.467 352.451 537.731ZM494.973 540.795C493.767 544.46 498.863 554.378 500.223 558.175C507.26 577.816 511.028 598.746 514.905 619.186C519.943 645.747 522.394 673.946 522.509 701.005C522.642 732.299 520.646 763.454 523.208 794.731L523.399 795.015C525.141 791.494 526.483 745.545 526.945 738.219C528.66 711.028 530.522 683.333 535.44 656.513C538.126 641.865 542.141 627.43 545.918 613.039C543.732 612.991 541.494 613.167 539.479 612.225L539.033 611.516C539.346 610.442 539.647 609.403 539.861 608.302C536.095 607.577 531.064 610.494 528.314 606.73C527.614 605.772 527.133 604.006 527.366 602.839C527.851 600.398 531.087 598.429 533.058 597.253C536.952 595.132 540.917 593.129 544.836 591.051C529.188 569.043 515.312 540.944 508.975 514.62C505.798 523.856 499.952 532.433 494.973 540.795ZM520.45 768.571C519.636 758.802 520.228 749.08 520.401 739.301C520.568 725.451 520.624 711.601 520.571 697.75C519.906 645.426 510.652 593.566 493.181 544.24C486.902 554.247 480.717 563.26 472.557 571.858C478.292 573.974 490.003 578.675 492.859 584.549C493.478 585.821 493.373 586.532 493.054 587.862C491.209 589.938 488.733 590.348 486.042 590.488C482.815 590.63 479.581 590.516 476.372 590.147C490.575 622.652 497.313 651.3 502.363 686.332C503.745 695.919 504.685 705.564 506.055 715.152C508.651 733.323 512.081 751.394 515.179 769.485C516.839 777.375 519.024 785.427 520.218 793.384C520.44 795.727 520.963 798.056 521.399 800.368C521.503 796.639 521.555 793.017 521.167 789.304C520.545 782.49 520.677 775.423 520.45 768.571ZM515.014 775.824C511.957 765.952 510.766 754.851 508.961 744.649C500.814 698.579 498.615 650.7 481.199 606.804C478.946 601.125 476.649 595.233 473.69 589.885C469.812 594.827 464.154 603.053 457.493 603.919C456.632 604.031 455.904 603.838 455.077 603.623C453.798 602.508 453.228 601.723 453.094 599.985C452.509 592.381 457.081 582.842 461.645 577.052C447.527 577.126 436.35 571.661 423.472 566.902C419.923 588.44 416.989 603.402 405.65 622.653C412.366 623.31 422.365 623.481 427.123 628.855C428.211 630.084 428.461 631.041 428.378 632.644C427.146 635.203 425.044 636.216 422.442 637.149C418.327 638.623 414.068 638.824 409.744 638.922C446.15 674.999 485.871 731.387 508.802 776.937C511.991 784.185 515.891 791.251 519.308 798.415C518.399 790.808 516.625 783.308 515.014 775.824ZM559.441 811.975C548.07 812.117 540.293 815.301 532.316 823.482C531.767 824.046 531.222 824.614 530.681 825.187C535.124 832.486 542.579 839.307 550.981 841.499C557.105 843.097 563.842 842.442 569.288 839.124C571.586 837.725 573.444 835.913 575.197 833.892C576.646 831.648 577.891 828.996 578.332 826.348C578.814 823.448 578.184 820.629 576.317 818.328C572.311 813.392 565.323 812.598 559.441 811.975ZM469.819 573.416C462.658 577.477 458.842 583.61 456.688 591.394C455.975 593.969 454.834 597.992 456.264 600.429C456.694 601.161 457.269 601.158 458.022 601.428C462.176 600.841 466.417 596.046 468.899 592.838C470.241 590.896 471.747 588.066 474.344 587.753C478.895 587.205 487.917 590.081 491.414 586.619C491.168 584.829 489.98 583.811 488.578 582.745C485.23 580.2 481.26 577.755 477.317 576.265C474.893 575.349 472.069 574.667 469.819 573.416ZM544.715 591.779L544.163 592.287C540.387 595.712 532.16 599.102 530.007 603.436C530.041 604.196 529.88 604.468 530.473 605.05C531.715 606.269 534.162 606.808 535.87 606.639C538.24 606.405 541.538 604.09 543.537 604.126C544.043 604.135 544.411 604.637 544.849 604.893C545.1 606.173 544.822 606.621 544.076 607.685C543.321 608.761 542.248 609.418 542.253 610.764C545.435 611.704 548.443 610.015 551.244 608.685C552.457 609.957 553.296 611.123 554.102 612.685C554.687 614.118 555.036 615.45 556.425 616.295C558.529 616.751 560.771 615.335 562.661 614.485C564.776 616.119 566.394 617.348 569.031 618.04L569.928 617.679C570.554 615.753 569.697 613.736 568.83 612.002C566.487 607.31 562.996 603.871 561.139 598.821C555.528 597.223 549.271 595.614 544.715 591.779ZM578.783 596.699C573.946 597.364 568.913 598.498 564.047 598.666L564.265 599.385C565.871 604.589 573.995 612.357 572.133 617.877C571.737 619.053 570.993 619.502 569.851 619.82C567.263 620.54 563.502 618.452 561.24 617.333L560.678 617.595C559.106 618.313 557.508 619.203 555.757 618.5C552.768 617.301 552.716 613.367 550.331 612.311C549.852 612.901 549.544 613.406 549.241 614.103L548.671 614.062L548.398 612.643L547.738 612.777C533.786 657.855 531.142 704.179 528.011 750.928C526.886 767.723 526.192 784.252 525.985 801.085C525.918 806.592 525.261 812.106 525.565 817.609L526.473 818.088L525.614 818.125L526.352 818.589L526.005 819.324C527.62 816.841 527.145 812.452 527.442 809.551C528.201 795.871 529.865 782.256 532.424 768.797C538.889 733.829 549.546 707.77 569.777 678.525C573.262 673.48 576.95 668.579 580.833 663.834C584.222 659.761 587.971 655.847 590.959 651.469C587.592 651.242 581.824 651.556 579.265 649.108C578.282 648.167 578.413 647.565 578.477 646.34C581.643 640.688 591.032 638.155 596.895 636.495C590.727 626.251 586.419 615.839 582.677 604.516C582.035 602.574 580.95 597.346 579.301 596.592L578.783 596.699ZM403.967 625.559C400.755 627.755 397.549 629.94 394.233 631.978C393.578 636.594 391.752 644.349 393.789 648.634C394.782 649.356 395.112 649.625 396.425 649.266C398.528 648.692 401.34 645.917 402.814 644.373C403.295 642.558 403.784 640.748 404.185 638.914C404.364 638.649 404.537 638.379 404.722 638.118C405.281 637.323 405.75 636.739 406.766 636.552C412.113 635.569 420.842 637.91 425.18 633.207C425.857 632.473 425.627 632.788 425.806 631.647C425.077 629.798 423.578 628.655 421.795 627.866C416.511 625.53 409.655 625.332 403.967 625.559ZM596.724 639.075C591.947 640.196 584.905 641.906 581.465 645.585L581.322 646.67C582.731 648.246 585.404 648.47 587.41 648.586C589.873 648.729 592.4 648.584 594.868 648.526C594.908 651.708 594.092 658.43 596.283 660.717C597.506 660.485 598.012 659.985 598.7 658.967C599.227 658.186 599.625 657.311 600.087 656.491C600.601 655.578 600.359 655.907 601.247 655.236C603.412 658.586 605.346 664.164 609.017 665.883C609.819 665.839 609.92 666.041 610.35 665.523C612.246 663.246 611.208 656.839 610.677 654.014C610.045 650.619 609.164 647.276 608.039 644.011C604.361 642.737 601.402 641.136 598.189 638.939L596.724 639.075ZM498.77 822.613C490.986 823.955 483.457 826.983 478.752 833.708C476.313 837.195 475.094 841.514 475.966 845.736C476.438 848.02 477.616 850.158 479.622 851.431C482.286 853.121 485.599 852.856 488.507 852.038C491.07 851.317 493.553 850.134 495.84 848.79C505.867 842.177 512.602 831.932 522.452 825.094C514.661 822.62 506.93 821.851 498.77 822.613Z" fill="#030203"/>
<path d="M436.533 284.438C436.406 276.13 436.8 268.091 438.709 259.975C444.732 234.377 463.024 212.597 485.166 199.065C507.95 185.141 533.966 179.237 560.304 185.728C586.546 192.196 615.292 212.216 629.267 235.507C629.268 235.67 629.265 235.832 629.269 235.994C629.439 242.382 633.911 248.698 635.184 255.02C637.763 267.827 637.087 283.235 634.774 296.002C633.749 301.661 632.113 307.186 630.968 312.815C630.311 316.044 630.605 320.318 629.477 323.314C599.571 324.756 570.353 334.734 549.854 357.4C544.805 362.984 534.182 376.029 532.404 383.017L531.3 382.664C525.621 367.2 522.958 357.155 514.32 342.258C496.119 310.867 471.224 293.683 436.533 284.438ZM496.288 204.131C486.769 206.728 476.767 215.256 471.939 223.817C470.83 225.782 469.592 228.132 469.285 230.368C470.283 229.913 470.689 228.627 471.222 227.676C476.363 218.492 485.423 208.575 495.788 205.661C497.211 205.261 498.621 204.828 500.035 204.4C499.202 203.821 497.328 204.058 496.288 204.131ZM569.25 206.206C565.485 206.491 560.924 206.616 558.284 209.777C557.275 210.986 556.953 212.413 557.17 213.952C558.163 220.987 566.736 228.488 572.236 232.317C577.21 235.78 582.459 238.2 588.329 239.665C578.393 245.851 569.666 253.795 566.814 265.637C563.687 278.622 570.231 300.315 577.434 311.084C577.939 311.839 578.322 312.26 579.054 312.771L579.342 312.325L578.976 311.745C571.841 298.425 563.834 279.558 568.366 264.193C571.113 254.879 578.722 246.215 587.367 241.874C594.648 238.218 598.413 240.823 602.432 232.121C601.62 224.75 599.552 219.315 593.531 214.548C586.905 209.301 577.663 206.311 569.25 206.206ZM497.976 215.032C489.27 218.291 479.704 224.98 472.516 230.906L472.185 231.712L472.725 232.291C479.51 227.925 486.016 222.726 493.025 218.795C494.362 218.045 497.899 216.686 498.35 215.381L497.976 215.032ZM472.095 269.659C468.603 270.229 463.136 270.566 460.191 272.641L460.268 273.344C464.312 272.84 468.158 271.426 472.208 270.984C485.49 269.531 499.757 273.85 510.263 282.04C526.312 294.552 533.001 312.245 538.487 331.109C539.524 335.825 540.523 340.484 542.127 345.05C542.097 325.828 530.706 299.681 517.066 286.076C506.719 275.755 492.231 269.275 477.502 269.383C475.707 269.396 473.873 269.398 472.095 269.659Z" fill="url(#paint0_linear_2293_65441)"/>
<path d="M471.222 227.675C470.689 228.626 470.283 229.912 469.285 230.367C469.592 228.131 470.83 225.781 471.939 223.816C476.767 215.255 486.769 206.727 496.288 204.13C497.328 204.057 499.202 203.82 500.035 204.399C498.621 204.827 497.211 205.26 495.788 205.66C485.423 208.574 476.363 218.491 471.222 227.675Z" fill="#030203"/>
<path d="M588.331 239.662C582.461 238.197 577.212 235.777 572.238 232.314C566.738 228.485 558.165 220.984 557.172 213.949C556.955 212.41 557.277 210.983 558.286 209.774C560.926 206.613 565.487 206.488 569.252 206.203C577.665 206.308 586.907 209.298 593.533 214.545C599.554 219.312 601.622 224.747 602.434 232.118C598.415 240.82 594.65 238.215 587.369 241.871C578.724 246.212 571.115 254.876 568.368 264.19C563.836 279.555 571.843 298.422 578.978 311.742L579.344 312.322L579.056 312.768C578.324 312.257 577.941 311.836 577.436 311.081C570.233 300.312 563.689 278.619 566.816 265.634C569.668 253.792 578.395 245.848 588.331 239.662ZM565.916 207.603C563.737 208.009 561.255 208.294 559.892 210.292C558.949 211.674 558.699 213.101 559.106 214.707C561.079 222.496 571.002 229.924 577.693 233.538C582.766 236.279 588.211 238.235 594.052 237.937C597.018 236.625 599.198 234.946 600.505 231.877C601.493 229.555 600.908 226.889 599.953 224.667C596.787 217.305 590.014 212.6 582.734 209.87C577.242 207.812 571.753 207.154 565.916 207.603Z" fill="#030203"/>
<path d="M594.05 237.941C588.209 238.239 582.764 236.283 577.691 233.542C571 229.928 561.077 222.5 559.104 214.711C558.697 213.105 558.947 211.678 559.89 210.296C561.253 208.298 563.735 208.013 565.914 207.607C571.751 207.158 577.24 207.816 582.732 209.874C590.012 212.604 596.785 217.309 599.951 224.671C600.906 226.893 601.491 229.559 600.503 231.881C599.196 234.95 597.016 236.629 594.05 237.941Z" fill="#FDE4CF"/>
<path d="M472.726 232.29L472.186 231.711L472.517 230.905C479.705 224.979 489.271 218.29 497.977 215.031L498.351 215.38C497.9 216.685 494.363 218.044 493.026 218.794C486.017 222.725 479.511 227.924 472.726 232.29Z" fill="#030203"/>
<path d="M353.308 290.837C352.003 288.607 350.227 286.645 348.835 284.457C344.6 277.799 341.449 269.72 340.644 261.837C339.488 250.514 344.237 238.055 351.344 229.374C357.587 221.75 365.548 215.738 375.574 214.762C384.878 223.523 398.807 225.192 409.917 218.878C419.193 221.83 425.995 228.235 430.39 236.835C433.187 242.307 434.761 251.543 437.489 255.787C435.507 265.49 434.317 274.27 434.529 284.181C407.377 278.565 379.184 280.876 353.308 290.837Z" fill="#B9FBC0"/>
<path d="M625.6 226.123C629.729 223.991 633.681 221.751 638.079 220.178C649.233 216.19 662.903 216.622 674.082 220.252C692.047 226.087 708.419 238.798 716.977 255.819C725.282 272.339 726.651 294.006 720.821 311.512C717.677 320.957 712.82 328.845 705.612 335.724C703.201 338.025 700.263 340.174 698.099 342.682C682.412 331.456 662.214 325.05 643.121 323.351C644.439 318.689 645.691 313.987 646.478 309.203C651.577 278.229 643.652 251.411 625.6 226.123Z" fill="#B9FBC0"/>
<path d="M629.268 235.508C642.649 257.255 647.985 279.113 645.269 304.587C644.592 310.937 642.879 317.153 642.291 323.494C638.026 323.354 633.742 323.119 629.478 323.315C630.606 320.319 630.312 316.045 630.969 312.816C632.114 307.187 633.75 301.662 634.775 296.003C637.088 283.236 637.764 267.828 635.185 255.021C633.912 248.699 629.44 242.383 629.27 235.995C629.266 235.833 629.269 235.671 629.268 235.508Z" fill="#A3C4F3"/>
<path d="M275.797 271.565C275.47 271.561 275.143 271.565 274.816 271.553C272.891 271.483 270.345 270.367 269.119 268.829C268.096 267.546 267.689 266.099 267.896 264.481C268.235 261.833 270.104 260.51 272.094 258.994C273.014 258.892 273.976 258.863 274.896 258.993C276.583 259.231 278.325 260.283 279.319 261.67C280.283 263.017 280.499 264.691 280.223 266.297C279.741 269.098 278.027 270.107 275.797 271.565Z" fill="#8EECF5"/>
<path d="M538.487 331.106C533.001 312.242 526.312 294.549 510.263 282.037C499.757 273.847 485.49 269.528 472.208 270.981C468.158 271.423 464.312 272.837 460.268 273.341L460.191 272.638C463.136 270.563 468.603 270.226 472.095 269.656C473.873 269.395 475.707 269.393 477.502 269.38C492.231 269.272 506.719 275.752 517.066 286.073C530.706 299.678 542.097 325.825 542.127 345.047C540.523 340.481 539.524 335.822 538.487 331.106Z" fill="#030203"/>
<path d="M281.861 389.461C283.698 373.687 287.953 358.289 294.478 343.81C296.955 338.325 299.747 332.966 303.427 328.183C315.928 311.932 337.001 299.612 356.052 292.423C389.452 279.58 426.568 280.415 459.357 294.745C459.863 295.79 460.395 296.964 461.198 297.815C463.821 300.597 468.26 302.849 471.515 304.989C476.693 308.395 481.934 311.892 486.697 315.869C489.998 318.624 493.204 322.315 495.706 325.799C496.22 325.197 496.721 324.592 497.218 323.978C497.725 323.352 497.484 323.59 498.133 323.125C512.984 339.721 525.328 364.247 529.947 386.055C532.413 397.697 533.043 411.531 532.35 423.431C530.782 450.332 520.986 485.585 509.559 509.913C505.423 491.975 499.12 470.196 503.635 451.928C504.526 447.295 505.524 442.739 506.694 438.167C507.892 433.384 508.85 429.264 508.421 424.301C508.602 423.22 508.507 422.588 508.293 421.527C506.773 413.998 500.422 410.935 493.792 408.521C492.145 407.921 489.959 407.454 488.54 406.427C488.401 406.326 488.281 406.201 488.151 406.088C489.857 401.787 497.952 387.645 498.418 385.304C493.266 391.322 489.998 398.804 486.893 406.022C468.751 403.8 450.836 404.332 435.9 416.218C431.973 419.342 429.077 423.628 425.185 426.728C414.045 403.388 407.656 386.665 414.674 360.483C417.111 351.393 420.235 342.46 422.105 333.23C431.148 335.119 440.543 335.842 449.544 333.279C453.602 332.123 458.003 330.205 460.031 326.255C461.162 324.053 461.221 321.614 460.472 319.282C458.292 312.493 450.58 307.572 444.439 304.652C429.924 297.637 413.219 296.666 397.989 301.953C397.779 301.769 397.557 301.599 397.36 301.402C396.331 300.373 395.677 299.837 394.239 299.454C380.252 295.734 354.128 307.192 341.778 314.16C338.975 315.742 330.36 320.286 329.729 323.655C329.411 325.347 329.932 327.01 330.824 328.441C339.469 332.489 380.835 300.421 397.21 301.977C397.362 301.992 397.513 302.015 397.664 302.034C394.986 304.139 393.022 306.168 392.512 309.677C392.065 312.762 393.443 315.641 395.369 317.966C401.563 325.442 412.096 329.86 420.981 333.05L420.84 333.818C419.266 342.097 416.102 350.172 413.912 358.325C406.705 385.153 412.278 403.667 424.341 427.661C418.465 436.709 415.993 448.266 418.284 458.866C418.604 460.281 418.961 461.688 419.354 463.085C416.718 461.994 414.148 460.362 411.642 458.98C399.819 437.131 388.162 420.772 367.258 406.51C339.421 387.517 314.775 383.286 281.861 389.461ZM520.218 406.516C513.434 415.917 506.385 450.965 504.099 463.256C506.001 461.285 509.494 441.025 510.704 436.546C513.437 426.433 517.668 416.617 520.218 406.516C521.581 405.823 523.024 400.966 523.626 399.484C522.072 401.214 520.11 404.163 520.218 406.516ZM321.151 329.01C314.375 331.965 310.174 338.172 307.54 344.864C305.979 348.829 302.16 359.883 304.497 363.783C305.122 364.825 305.742 365.358 306.971 365.533C307.753 365.644 308.936 365.246 309.662 365.007C317.559 359.248 325.659 346.762 327.27 337.013C327.584 335.117 327.649 332.697 326.421 331.076C325.548 329.925 324.668 329.265 323.215 329.065C322.542 328.973 321.829 328.981 321.151 329.01Z" fill="#8EECF5"/>
<path d="M459.357 294.742C471.452 300.183 490.424 312.362 498.133 323.122C497.484 323.587 497.725 323.349 497.218 323.975C496.721 324.589 496.22 325.194 495.706 325.796C493.204 322.312 489.998 318.621 486.697 315.866C481.934 311.889 476.693 308.392 471.515 304.986C468.26 302.846 463.821 300.594 461.198 297.812C460.395 296.961 459.863 295.787 459.357 294.742Z" fill="#A3C4F3"/>
<path d="M397.664 302.033L397.989 301.952C413.219 296.665 429.924 297.636 444.439 304.651C450.58 307.571 458.292 312.492 460.472 319.281C461.221 321.613 461.162 324.052 460.031 326.254C458.003 330.204 453.602 332.122 449.544 333.278C440.543 335.841 431.148 335.118 422.105 333.229C420.235 342.459 417.111 351.392 414.674 360.482C407.656 386.664 414.045 403.387 425.185 426.727C433.78 445.532 447.867 468.798 468.22 476.254C469.431 476.697 474.589 477.545 474.983 478.18C472.478 478.333 469.914 477.69 467.566 476.852C446.933 469.487 433.278 446.335 424.341 427.66C412.278 403.666 406.705 385.152 413.912 358.324C416.102 350.171 419.266 342.096 420.84 333.817L420.981 333.049C412.096 329.859 401.563 325.441 395.369 317.965C393.443 315.64 392.065 312.761 392.512 309.676C393.022 306.167 394.986 304.138 397.664 302.033ZM414.455 299.696C408.672 300.17 399.416 300.705 395.501 305.627C394.26 307.188 393.874 309.102 394.231 311.049C395.244 316.574 400.875 320.793 405.348 323.655C410.453 326.92 415.802 328.953 421.421 331.104C421.945 328.691 422.506 326.273 422.497 323.791C422.486 320.524 420.502 313.095 421.299 310.567C422.42 311.18 422.711 312.292 423.096 313.495C424.403 317.583 424.332 322.891 423.608 327.083C423.295 328.566 422.858 329.718 423.294 331.204C430.567 334.451 442.993 333.82 450.452 331.03C453.786 329.783 457.518 327.815 459.1 324.43C459.958 322.596 459.927 320.616 459.211 318.745C456.553 311.794 446.532 306.566 439.998 303.935C431.878 300.736 423.173 299.291 414.455 299.696Z" fill="#030203"/>
<path d="M397.664 302.032C397.513 302.013 397.362 301.99 397.21 301.975C380.835 300.419 339.469 332.487 330.824 328.439C329.932 327.008 329.411 325.345 329.729 323.653C330.36 320.284 338.975 315.74 341.778 314.158C354.128 307.19 380.252 295.732 394.239 299.452C395.677 299.835 396.331 300.371 397.36 301.4C397.557 301.597 397.779 301.767 397.989 301.951L397.664 302.032Z" fill="url(#paint1_linear_2293_65441)"/>
<path d="M421.421 331.104C415.802 328.953 410.453 326.92 405.348 323.655C400.875 320.793 395.244 316.574 394.231 311.049C393.874 309.102 394.26 307.188 395.501 305.627C399.416 300.705 408.672 300.17 414.455 299.696C423.173 299.291 431.878 300.736 439.998 303.935C446.532 306.566 456.553 311.794 459.211 318.745C459.927 320.616 459.958 322.596 459.1 324.43C457.518 327.815 453.786 329.783 450.452 331.03C442.993 333.82 430.567 334.451 423.294 331.204C422.858 329.718 423.295 328.566 423.608 327.083C424.332 322.891 424.403 317.583 423.096 313.495C422.711 312.292 422.42 311.18 421.299 310.567C420.502 313.095 422.486 320.524 422.497 323.791C422.506 326.273 421.945 328.691 421.421 331.104Z" fill="#8EECF5"/>
<path d="M531.301 382.663L532.405 383.016L533.296 382.667C551.848 353.578 572.431 335.978 606.939 328.345C636.192 321.875 667.745 326.077 693.177 342.37C718.453 358.564 736.975 386.286 743.317 415.489C744.656 421.657 745.621 428.157 745.587 434.48C731.109 424.47 711.709 417.598 693.964 420.731C659.697 426.783 620.034 463.532 600.516 491.714C580.201 521.049 574.677 548.926 578.715 583.938C574.001 587.104 567.879 590.765 565.689 596.273C561.395 596.689 556.65 595.209 552.727 593.512C550.727 592.646 549.131 591.684 547.606 590.11C538.072 580.265 523.846 549.474 518.406 535.869C515.373 528.283 513.073 520.433 510.01 512.869C518.544 494.766 525.345 475.187 529.66 455.663C531.411 447.736 532.357 439.593 533.834 431.608C534.01 431.646 534.181 431.729 534.36 431.722C535.247 431.692 535.775 431.32 536.411 430.753C547.237 421.09 553.853 390.673 554.407 376.524C553.141 375.154 551.691 374.053 550.23 372.899C543.306 380.733 536.756 397.619 534.902 408.011C534.43 410.659 534.549 413.528 534.42 416.229C533.943 412.662 534.066 408.847 533.907 405.242C533.57 397.635 532.944 390.114 531.301 382.663ZM605.56 340.091C596.791 341.969 589.693 345.568 584.712 353.409C584.169 354.264 582.816 356.199 582.995 357.087C585.21 355.032 586.724 352.573 588.646 350.283C598.397 341.012 604.597 341.412 617.252 341.486L617.122 340.877C613.281 339.818 609.5 339.903 605.56 340.091ZM620.474 346.585C612.707 348.727 592.625 353.08 588.7 360.44C588.615 360.601 588.563 360.777 588.494 360.946L588.909 361.306C592.499 358.336 596.144 356.117 600.427 354.27C603.719 352.849 619.711 348.961 620.935 347.029L620.474 346.585ZM688.461 372.525C686.228 373.559 684.779 374.403 683.965 376.868C681.692 383.742 686.438 394.064 689.74 400.022C692.95 405.813 697.724 412.139 704.372 414.018C707.148 414.803 709.758 414.467 712.376 413.329C715.623 410.955 717.562 408.174 718.223 404.131C719.283 397.638 716.329 390.499 712.397 385.41C707.792 379.452 700.297 373.589 692.657 372.566C691.263 372.379 689.86 372.442 688.461 372.525Z" fill="#A3C4F3"/>
<path d="M309.661 365.005C308.935 365.244 307.752 365.642 306.97 365.531C305.741 365.356 305.121 364.823 304.496 363.781C302.159 359.881 305.978 348.827 307.539 344.862C310.173 338.17 314.374 331.963 321.15 329.008C321.828 328.979 322.541 328.971 323.214 329.063C324.667 329.263 325.547 329.923 326.42 331.074C327.648 332.695 327.583 335.115 327.269 337.011C325.658 346.76 317.558 359.246 309.661 365.005ZM321.221 330.441C312.731 335.37 308.812 344.446 306.425 353.571C305.642 356.563 304.87 359.505 305.638 362.577C306.215 363.188 306.307 363.607 307.198 363.641C308.083 363.675 308.617 363.471 309.425 363.162C316.772 357.504 324.706 346.01 325.895 336.636C326.088 335.111 326.079 333.162 325.084 331.891C324.044 330.562 322.79 330.499 321.221 330.441Z" fill="#030203"/>
<path d="M309.426 363.162C308.618 363.471 308.084 363.675 307.199 363.641C306.308 363.607 306.216 363.188 305.639 362.577C304.871 359.505 305.643 356.563 306.426 353.571C308.813 344.446 312.732 335.37 321.222 330.441C322.791 330.499 324.045 330.562 325.085 331.891C326.08 333.162 326.089 335.111 325.896 336.636C324.707 346.01 316.773 357.504 309.426 363.162Z" fill="#8EECF5"/>
<path d="M588.646 350.284C586.724 352.574 585.21 355.033 582.995 357.088C582.816 356.2 584.169 354.265 584.712 353.41C589.693 345.569 596.791 341.97 605.56 340.092C609.5 339.904 613.281 339.819 617.122 340.878L617.252 341.487C604.597 341.413 598.397 341.013 588.646 350.284Z" fill="#030203"/>
<path d="M588.909 361.307L588.494 360.947C588.563 360.778 588.615 360.602 588.7 360.441C592.625 353.081 612.707 348.728 620.474 346.586L620.935 347.03C619.711 348.962 603.719 352.85 600.427 354.271C596.144 356.118 592.499 358.337 588.909 361.307Z" fill="#030203"/>
<path d="M215.967 363.961C217.51 361.878 219.859 359 222.695 358.749C223.996 358.633 225.042 359.067 225.95 359.976C227.104 361.131 227.549 362.999 227.446 364.582C227.343 366.185 226.661 367.931 225.441 369.017C224.425 369.921 223.171 370.235 221.855 370.002C219.894 369.655 218.501 368.691 217.105 367.335L215.967 363.961Z" fill="#B9FBC0"/>
<path d="M192.15 378.101C190.218 377.103 187.678 376.007 186.74 373.87C186.209 372.661 186.016 371.477 186.609 370.24C187.604 368.165 189.671 367.337 191.663 366.504C192.301 366.656 192.3 366.641 193.01 366.892C194.652 367.472 196.556 368.683 197.211 370.385C197.742 371.765 197.676 372.8 197.145 374.169C196.311 376.318 194.075 377.2 192.15 378.101Z" fill="#B9FBC0"/>
<path d="M712.377 413.33C709.759 414.468 707.149 414.804 704.373 414.019C697.725 412.14 692.951 405.814 689.741 400.023C686.439 394.065 681.693 383.743 683.966 376.869C684.78 374.404 686.229 373.56 688.462 372.526C689.861 372.443 691.264 372.38 692.658 372.567C700.298 373.59 707.793 379.453 712.398 385.411C716.33 390.5 719.284 397.639 718.224 404.132C717.563 408.175 715.624 410.956 712.377 413.33ZM690.566 374.026C688.602 374.645 687.257 375.125 686.264 377.102C684.053 381.503 687.402 389.699 689.234 393.869C692.137 400.48 697.029 409.27 704.21 411.804C706.857 412.738 708.748 412.427 711.363 411.673C714.61 409.103 716.535 406.305 716.912 402.074C717.501 395.449 713.865 388.785 709.588 383.95C704.799 378.534 698.41 374.433 691.03 374.035C690.875 374.026 690.721 374.029 690.566 374.026Z" fill="#030203"/>
<path d="M534.42 416.228C534.549 413.527 534.43 410.658 534.902 408.01C536.756 397.618 543.306 380.732 550.23 372.898C551.691 374.052 553.141 375.153 554.407 376.523C553.853 390.672 547.237 421.089 536.411 430.752C535.775 431.319 535.247 431.691 534.36 431.721C534.181 431.728 534.01 431.645 533.834 431.607C534.18 426.488 534.375 421.359 534.42 416.228Z" fill="#FFFFFA"/>
<path d="M711.362 411.67C708.747 412.424 706.856 412.735 704.209 411.801C697.028 409.267 692.136 400.477 689.233 393.866C687.401 389.696 684.052 381.5 686.263 377.099C687.256 375.122 688.601 374.642 690.565 374.023C690.72 374.026 690.874 374.023 691.029 374.032C698.409 374.43 704.798 378.531 709.587 383.947C713.864 388.782 717.5 395.446 716.911 402.071C716.534 406.302 714.609 409.1 711.362 411.67Z" fill="#A3C4F3"/>
<path d="M295.975 389.325C327.164 387.213 353.865 396.316 377.452 417.014C389.534 427.616 401.563 441.555 407.904 456.474C407.719 456.526 407.54 456.601 407.351 456.629C405.062 456.974 400.858 455.271 398.477 454.704C390.489 452.804 380.379 454.442 374.715 460.8C369.194 466.999 368.16 476.149 368.796 484.134C370.652 507.406 391.056 527.535 408.059 541.799C410.581 543.915 421.85 551.302 422.869 552.55C423.177 552.926 423.193 553.468 423.354 553.927C423.105 555.42 422.924 556.979 422.528 558.438C419.157 558.504 412.202 559.165 409.545 561.191C401.302 558.711 392.996 556.402 384.999 553.19C359.691 543.025 339.139 525.81 320.837 505.979C320.916 505.022 321.028 504.26 320.762 503.314C319.744 499.688 316.806 495.615 314.95 492.266C312.531 487.904 310.312 483.578 308.496 478.924L308.619 478.629C309.698 478.863 310.551 479.036 311.507 479.614C313.835 481.021 316.135 483.639 318.179 485.467C323.029 489.803 328.069 494.151 333.658 497.515C350.489 507.647 369.858 511.259 386.003 522.607C380.167 515.109 363.277 505.331 354.837 499.248C342.526 490.374 329.986 480.655 319.381 469.778C312.063 462.271 305.47 452.847 300.2 443.772C298.223 440.367 297.359 433.896 294.352 431.562C293.458 429.442 293.36 426.345 293.041 424.046C291.357 411.889 291.909 400.926 295.975 389.325Z" fill="#98F5E1"/>
<path d="M281.469 391.581C286.274 390.513 291.092 389.887 295.974 389.324C291.908 400.925 291.356 411.888 293.04 424.045C293.359 426.344 293.457 429.441 294.351 431.561C297.123 448.079 302.874 463.005 308.618 478.628L308.495 478.923C305.646 477.508 303.809 475.285 301.68 472.987C295.893 465.9 295.356 455.069 288.698 448.866C282.58 437.198 280.066 405.307 281.469 391.581Z" fill="url(#paint2_linear_2293_65441)"/>
<path d="M279.806 391.926C278.726 402.268 279.685 413.671 280.961 423.987C285.384 459.735 303.829 494 329.634 518.872C336.712 525.694 344.694 531.703 352.45 537.731C353.691 541.444 367.27 547.995 371.545 550.124C376.174 552.43 380.842 554.67 385.842 556.06L386.695 557.008C386.489 558.245 386.173 558.999 385.097 559.761C383.176 561.122 381.621 560.848 379.481 560.317C369.549 557.853 362.505 554.798 354.097 548.996L353.753 549.3C355.282 552.705 362.002 554.983 365.307 556.25C378.491 561.305 393.658 564.694 407.725 565.855L408.653 565.358C408.859 564.317 409.004 563.321 409.083 562.263C413.266 563.726 417.446 565.016 421.722 566.178C420.314 582.245 416.185 600.46 408.447 614.598C404.051 622.632 398.169 628.99 389.07 631.581C364.785 638.495 307.539 615.154 285.145 602.802C261.184 589.587 237.34 568.789 223.83 544.833C218.545 535.459 214.799 525.201 211.865 514.864C204.383 488.501 205.297 458.589 218.87 434.39C232.609 409.894 253.611 399.295 279.806 391.926ZM238.086 531.186C241.554 529.877 244.956 528.92 248.571 528.106C248.695 529.755 248.515 530.611 249.89 531.738C252.522 533.893 256.214 535.569 259.34 536.878C264.239 538.928 292.922 549.279 296.255 548.209C297.159 547.919 298.131 546.643 298.758 545.949C300.103 547.44 301.35 549.031 302.564 550.631C311.637 562.587 314.171 578.303 312.156 592.876C312.213 592.743 312.274 592.612 312.328 592.478C316.369 582.555 313.627 568.714 309.552 559.196C303.658 545.43 291.329 535.13 277.586 529.697C263.843 524.263 251.412 524.712 237.962 530.473C235.467 531.644 232.97 532.77 230.644 534.261L230.847 535.289L230.648 535.346L230.192 534.601L229.734 535.386C232.597 534.716 235.597 532.744 238.086 531.186ZM231.652 436.283C226.253 440.856 222.695 448.575 222.277 455.687C222.162 457.638 222.342 460.046 223.567 461.661C224.441 462.815 225.925 463.193 227.239 463.609C229.666 463.027 231.07 462.308 232.373 460.084C235.304 455.079 236.835 445.446 235.161 439.82C234.796 438.592 234.197 437.386 233.008 436.772C232.539 436.53 232.143 436.431 231.652 436.283ZM257.063 544.276C258.938 547.515 261.082 550.154 263.659 552.859C271.713 561.316 280.786 568.753 289.43 576.586C293.799 580.544 297.67 585.032 302.033 588.975C302.986 589.836 304.032 590.779 305.266 591.2C305.441 591.26 305.628 591.28 305.809 591.32C300.101 574.003 281.898 555.156 265.597 547.036C262.949 545.717 259.998 544.671 257.063 544.276Z" fill="url(#paint3_linear_2293_65441)"/>
<path d="M739.687 395.714C748.901 395.002 757.936 396.839 766.818 399.06C792.593 405.507 817.446 417.512 837.782 434.819C851.244 446.459 863.428 459.498 874.129 473.716C880.439 482.234 886.08 491.472 893.098 499.424C886.816 512.174 882.315 525.819 876.285 538.722C866.178 560.349 853.101 581.33 839.64 601.013C825.629 621.5 809.06 639.767 791.54 657.268C729.068 719.67 657.504 760.734 575.839 792.768C566.183 796.556 556.628 801.388 546.826 804.669C541.296 806.52 534.829 808.082 528.99 808.449C532.978 761.256 542.762 719.515 570.277 680.291C573.966 675.033 577.798 669.724 581.929 664.805C585.531 660.516 589.524 656.527 592.828 651.998L593.253 651.41C593.174 653.946 593.078 656.433 592.735 658.952L592.288 658.883C592.002 658.004 591.689 657.142 591.363 656.277L591.183 656.438C591.266 657.834 591.394 659.221 591.979 660.512C592.586 661.848 593.894 662.748 595.239 663.247C596.458 663.699 598.155 663.885 599.287 663.127C600.672 662.199 600.514 660.991 600.884 659.523C602.559 662.324 604.367 665.736 606.93 667.784C608.183 668.786 609 668.912 610.557 668.716C611.183 668.253 611.739 667.818 612.162 667.15C616.08 660.961 612.675 651.837 611.097 645.278C623.744 648.389 637.629 649.149 650.532 647.806C691.115 643.369 728.331 623.168 754.164 591.556C775.436 565.268 789.45 536.905 785.69 502.167C782.608 473.701 769.87 453.817 747.868 436.252C747.93 421.947 744.538 409.047 739.687 395.714ZM603.969 710.641C600.59 712.023 598.286 713.736 596.924 717.247C594.192 724.294 597.695 733.982 600.786 740.435C604.277 747.723 608.855 754.033 614.38 759.901C619.496 756.819 625.451 754.107 629.817 749.999C636.373 744.453 643.075 736.059 643.758 727.141C644.033 723.547 642.965 719.266 640.422 716.609C638.544 714.647 636.038 713.774 633.35 713.808C628.964 713.866 625.169 715.74 621.663 718.221C616.457 714.051 611.754 709.781 604.65 710.56L603.969 710.641Z" fill="#C0F5E0"/>
<path d="M520.217 406.516C520.109 404.163 522.071 401.214 523.625 399.484C523.023 400.966 521.58 405.823 520.217 406.516Z" fill="#90DBF4"/>
<path d="M425.186 426.728C429.078 423.628 431.974 419.342 435.901 416.218C450.837 404.332 468.752 403.8 486.894 406.022C478.108 430.054 475.583 453.671 477.017 479.147L474.984 478.181C474.59 477.546 469.432 476.698 468.221 476.255C447.868 468.799 433.781 445.533 425.186 426.728Z" fill="#A3C4F3"/>
<path d="M484.15 418.127C485.318 414.055 486.741 410.078 488.151 406.086C488.281 406.199 488.401 406.324 488.54 406.425C489.959 407.452 492.145 407.919 493.792 408.519C500.422 410.933 506.773 413.996 508.293 421.525C508.507 422.586 508.602 423.218 508.421 424.299C507.888 428.777 506.835 433.012 506.055 437.426C504.71 442.21 503.273 447.078 502.568 452.004C501.448 457.787 500.847 463.483 500.81 469.374C498.866 466.562 500.595 459.754 500.944 456.419C501.159 454.357 501.298 453.033 499.925 451.325L499.148 451.584C498.193 453.298 499.788 462.719 498.741 466.394C498.702 466.529 498.658 466.662 498.617 466.796C498.731 451.975 496.406 431.538 485.788 420.185C485.288 419.65 484.903 419.245 484.474 418.629C484.361 418.466 484.258 418.294 484.15 418.127Z" fill="#A3C4F3"/>
<path d="M504.1 463.256C506.386 450.965 513.435 415.917 520.219 406.516C517.669 416.617 513.438 426.433 510.705 436.546C509.495 441.025 506.002 461.285 504.1 463.256Z" fill="#406066"/>
<path d="M171.329 468.799C176.127 463.524 180.082 457.223 184.712 451.74C194.966 439.597 207.105 427.718 220.012 418.424C224.36 415.292 228.987 412.645 233.488 409.75L235.948 410.84C218.097 426.445 207.644 448.643 206.095 472.201C203.848 506.381 214.317 540.919 237.048 566.712C263.862 597.139 300.57 615.446 338.913 626.979C350.29 630.401 362.603 633.795 374.483 634.503C380.389 634.855 385.881 634.255 391.668 633.149C391.318 636.952 389.482 647.576 392.038 650.823C392.762 651.743 393.523 652.295 394.739 652.277C398.405 652.223 402.916 647.385 405.268 644.854C405.776 642.747 406.298 640.643 406.834 638.542C440.836 672.662 473.484 717.63 497.154 759.489C501.609 767.366 506.622 775.593 510.187 783.893C505.497 787.642 502.181 793.419 497.971 797.757C482.887 813.367 466.94 828.119 450.204 841.942C447.193 844.41 443.794 847.887 440.265 849.45C443.645 840.207 447.622 829.382 444.83 819.472C443.659 815.317 441.312 811.279 437.416 809.167C431.503 805.961 423.933 807.254 417.828 809.244L416.898 808.842C417.866 803.567 422.678 792.893 424.591 786.827C428.892 773.191 430.183 758.295 423.296 745.262C418.286 735.782 410.428 728.969 400.101 725.937C382.413 720.745 370.368 727.638 355.407 735.876C361.777 722.044 364.631 704.407 359.337 689.784C355.385 678.683 347.093 669.664 336.363 664.795C326.214 660.062 314.591 659.598 304.096 663.505C295.09 666.931 286.492 672.941 282.489 681.971C278.534 690.896 278.445 701.837 281.962 710.899C286.388 722.303 295.652 731.447 306.812 736.306C320.214 742.141 339.288 742.021 353.103 737.719C350.829 742.54 348.315 747.307 346.571 752.351C342.716 763.503 341.717 777.966 345.794 789.184C349.6 799.654 357.95 808.151 368.045 812.743C373.301 815.133 379.037 816.518 384.742 817.302C387.325 817.658 402.582 817.923 403.789 818.781C404.058 818.972 404.146 819.337 404.324 819.614C401.472 824.568 400.142 830.417 401.78 836.032C404.06 843.851 411.567 848.896 418.425 852.461C419.844 853.195 421.27 853.914 422.704 854.618C400.335 864.741 378.238 873.805 354.061 878.649C301.418 889.257 246.721 878.161 202.371 847.879C159.81 819.225 128.138 764.767 118.399 714.938C114.159 693.247 113.337 671.047 113.743 648.989C115.061 577.414 131.678 527.859 171.329 468.799Z" fill="#C0F5E0"/>
<path d="M482.716 506.551C476.119 477.304 475.839 447.109 484.15 418.129C484.258 418.296 484.361 418.468 484.474 418.631C484.903 419.247 485.288 419.652 485.788 420.187C496.406 431.54 498.731 451.977 498.617 466.798C497.918 475.385 490.45 499.101 484.468 505.881L482.716 506.551Z" fill="#92BAE3"/>
<path d="M721.787 512.904C709.259 505.724 696.563 506.836 683.005 510.47C671.33 513.599 660.598 518.786 650.46 525.324C644.979 528.859 635.317 537.438 630.604 539.77C629.73 540.202 629.389 540.157 628.474 540.014L628.224 539.706C627.361 526.963 631.869 516.663 640.185 507.082C650.656 495.019 664.843 487.99 680.746 486.886C689.468 486.28 700.177 486.878 708.592 489.428L708.867 489.05C703.42 485.109 682.219 485.15 675.305 486.251C659.52 488.861 645.404 497.599 636.029 510.564C628.869 520.51 625.977 529.706 627.121 541.868L627.081 544.68C616.739 550.837 607.438 558.859 598.196 566.518C592.728 571.05 586.845 576.569 580.463 579.698C575.294 548.874 584.532 517.868 602.104 492.493C621.661 464.251 660.459 428.776 694.718 422.814C712.258 419.762 731.334 426.964 745.596 436.876C745.993 467.476 739.149 487.672 721.787 512.904Z" fill="#F1C0E8"/>
<path d="M506.055 437.428C506.835 433.014 507.888 428.779 508.421 424.301C508.85 429.264 507.892 433.384 506.694 438.167L506.055 437.428Z" fill="#6D93A4"/>
<path d="M424.341 427.66C433.278 446.335 446.933 469.487 467.566 476.852C469.914 477.69 472.478 478.333 474.983 478.18L477.016 479.146C478.052 488.215 479.409 497.081 481.533 505.967C477.085 507.161 472.998 511.103 469.007 513.43C464.856 515.85 460.466 517.938 456.175 520.098C458.095 513.828 458.956 507.23 457.806 500.709C455.109 485.419 431.485 471.577 419.354 463.084C418.961 461.687 418.604 460.28 418.284 458.865C415.993 448.265 418.465 436.708 424.341 427.66Z" fill="#CFBAF0"/>
<path d="M294.352 431.562C297.359 433.897 298.223 440.367 300.2 443.772C305.47 452.847 312.063 462.272 319.381 469.779C329.986 480.656 342.526 490.375 354.837 499.249C363.277 505.332 380.167 515.11 386.003 522.608C369.858 511.26 350.49 507.648 333.659 497.516C328.07 494.152 323.03 489.803 318.18 485.467C316.136 483.639 313.835 481.022 311.507 479.615C310.551 479.037 309.698 478.863 308.619 478.629C302.875 463.006 297.124 448.08 294.352 431.562Z" fill="#48DEC8"/>
<path d="M227.24 463.607C225.926 463.191 224.442 462.813 223.568 461.659C222.343 460.044 222.163 457.636 222.278 455.685C222.696 448.573 226.254 440.854 231.653 436.281C232.144 436.429 232.54 436.528 233.009 436.77C234.198 437.384 234.797 438.59 235.162 439.818C236.836 445.444 235.305 455.077 232.374 460.082C231.071 462.306 229.667 463.025 227.24 463.607ZM232.341 437.843C227.664 441.661 225.013 448.605 224.443 454.547C224.261 456.447 224.158 459.203 225.285 460.867C225.748 461.549 226.454 461.973 227.128 462.413C229.604 461.526 230.676 460.76 231.841 458.372C233.96 454.03 235.845 444.235 233.754 439.699C233.379 438.885 232.986 438.438 232.341 437.843Z" fill="#030203"/>
<path d="M506.055 437.426L506.694 438.165C505.524 442.737 504.526 447.293 503.635 451.926L502.568 452.004C503.273 447.078 504.71 442.21 506.055 437.426Z" fill="#406066"/>
<path d="M227.128 462.414C226.454 461.974 225.748 461.55 225.285 460.868C224.158 459.204 224.261 456.448 224.443 454.548C225.013 448.606 227.664 441.662 232.341 437.844C232.986 438.439 233.379 438.886 233.754 439.7C235.845 444.236 233.96 454.031 231.841 458.373C230.676 460.761 229.604 461.527 227.128 462.414Z" fill="#B9FBC0"/>
<path d="M729.407 505.942C742.046 484.484 748.172 464.33 748.017 439.312C769.085 456.754 780.719 476.801 783.211 504.423C786.345 539.174 770.482 568.439 748.798 594.216C724.944 622.57 685.408 642.453 648.557 645.612C636.526 646.643 612.081 646.549 602.322 638.409C595.258 632.518 583.911 606.979 583.205 597.475C583.17 597.005 583.195 596.727 583.211 596.233C584.124 595.615 584.733 595.52 585.821 595.404C597.911 601.691 623.952 603.764 637.147 600.688C666.616 593.818 700.545 562.332 716.22 537.065C719.627 531.573 730.809 511.896 729.407 505.942ZM753.504 478.405C750.267 480.941 748.615 484.294 748.144 488.393C747.487 494.117 748.659 500.134 752.316 504.688C755.55 508.715 759.923 511.135 764.881 512.352C766.474 512.208 767.622 512.341 768.946 511.411C771.008 505.515 766.191 494.142 763.627 488.727C761.944 485.174 759.339 480.446 755.5 478.986C754.848 478.739 754.178 478.576 753.504 478.405ZM732.675 543.164C730.79 561.114 721.194 575.886 707.354 587.208C700.491 592.822 692.492 597.614 684.095 600.518C683.044 600.882 679.848 601.612 679.738 602.615L680.381 602.833C699.849 596.998 717.409 583.668 727.206 565.672C730.254 560.074 734.443 550.322 733.689 543.859L732.675 543.164Z" fill="#FDE4CF"/>
<path d="M288.697 448.867C295.355 455.07 295.892 465.901 301.679 472.988C302.786 475.517 303.621 476.902 302.558 479.624C296.93 470.547 291.755 459.084 288.697 448.867Z" fill="#DFF9F7"/>
<path d="M498.618 466.795C498.659 466.661 498.703 466.528 498.742 466.393C499.789 462.718 498.194 453.297 499.149 451.583L499.926 451.324C501.299 453.032 501.16 454.356 500.945 456.418C500.596 459.753 498.867 466.561 500.811 469.373C501.454 484.012 504.391 497.882 507.932 512.045C505.547 517.965 497.369 534.896 493.369 539.237C489.429 528.429 485.694 517.667 482.717 506.548L484.469 505.878C490.451 499.098 497.919 475.382 498.618 466.795Z" fill="#FFCFD2"/>
<path d="M407.905 456.475C419.075 477.132 424.382 507.006 424.667 530.432C424.763 538.326 423.929 546.075 423.354 553.928C423.193 553.469 423.178 552.927 422.87 552.551C421.851 551.303 410.581 543.916 408.059 541.8C391.056 527.536 370.653 507.407 368.797 484.135C368.161 476.15 369.194 467 374.716 460.801C380.38 454.443 390.49 452.805 398.478 454.705C400.859 455.272 405.062 456.975 407.351 456.63C407.54 456.602 407.72 456.527 407.905 456.475Z" fill="#90DBF4"/>
<path d="M411.643 458.98C414.149 460.362 416.719 461.994 419.355 463.085C431.486 471.578 455.11 485.42 457.807 500.71C458.957 507.231 458.096 513.829 456.176 520.099C451.658 531.914 438.591 552.184 426.709 557.509C426.009 557.822 425.289 558.089 424.573 558.364C429.4 523.191 424.931 491.772 411.643 458.98Z" fill="#92BAE3"/>
<path d="M301.68 472.988C303.809 475.286 305.646 477.509 308.495 478.924C310.311 483.578 312.53 487.904 314.949 492.266C316.805 495.615 319.744 499.688 320.762 503.314C321.028 504.26 320.915 505.022 320.836 505.979C313.719 498.673 307.155 488.702 302.559 479.624C303.622 476.902 302.787 475.517 301.68 472.988Z" fill="#8EECF5"/>
<path d="M764.881 512.352C759.923 511.135 755.55 508.716 752.316 504.688C748.659 500.134 747.487 494.118 748.144 488.394C748.615 484.295 750.267 480.942 753.504 478.406C754.178 478.577 754.848 478.74 755.5 478.987C759.339 480.447 761.944 485.174 763.627 488.727C766.191 494.142 771.008 505.516 768.946 511.412C767.622 512.342 766.474 512.208 764.881 512.352ZM753.095 480.382C750.107 484.242 749.216 489.446 749.8 494.233C750.456 499.599 753.168 504.072 757.538 507.24C760.292 509.237 763.164 510.283 766.472 510.905L767.926 510.26C769.669 504.76 764.449 492.833 761.877 487.963C760.518 485.391 758.336 481.52 755.379 480.626C754.63 480.4 753.868 480.384 753.095 480.382Z" fill="#030203"/>
<path d="M766.474 510.906C763.166 510.284 760.294 509.238 757.54 507.241C753.17 504.073 750.458 499.6 749.802 494.234C749.218 489.447 750.109 484.243 753.097 480.383C753.87 480.385 754.632 480.401 755.381 480.627C758.338 481.521 760.52 485.392 761.879 487.964C764.451 492.834 769.671 504.761 767.928 510.261L766.474 510.906Z" fill="#FDE4CF"/>
<path d="M627.121 541.868C625.977 529.706 628.869 520.51 636.029 510.564C645.404 497.599 659.52 488.861 675.305 486.251C682.219 485.15 703.42 485.109 708.867 489.05L708.592 489.428C700.177 486.878 689.468 486.28 680.746 486.886C664.843 487.99 650.656 495.019 640.185 507.082C631.869 516.663 627.361 526.963 628.224 539.706L627.821 541.645L627.121 541.868Z" fill="#030203"/>
<path d="M893.098 499.424L893.861 499.012C893.902 499.143 893.94 499.275 893.984 499.405C896.41 506.547 903.413 514.205 907.194 520.983C912.465 530.43 916.448 541.473 920.219 551.615C944.648 619.014 944.668 692.845 920.276 760.258C916.716 770.299 912.136 780.242 907.597 789.867C882.514 842.03 838.031 882.318 783.646 902.128C739.374 917.954 697.175 912.604 655.392 892.692C623.946 877.707 602.846 856.288 576.754 834.325C578.914 830.659 580.548 826.951 579.894 822.589C579.422 819.442 577.561 816.855 574.997 815.034C568.79 810.625 558.797 809.858 551.454 811.139C542.222 812.749 533.114 818.409 527.779 826.114C528.297 820.239 528.544 814.331 528.99 808.449C534.829 808.082 541.296 806.52 546.826 804.669C556.628 801.388 566.183 796.556 575.839 792.768C657.504 760.734 729.068 719.67 791.54 657.268C809.06 639.767 825.629 621.5 839.64 601.013C853.101 581.33 866.178 560.349 876.285 538.722C882.315 525.819 886.816 512.174 893.098 499.424Z" fill="#FAF2F9"/>
<path d="M456.175 520.1C460.466 517.94 464.856 515.852 469.007 513.432C472.998 511.105 477.085 507.163 481.533 505.969C483.669 515.512 487.628 531.35 492.165 539.683C492.599 543.128 481.584 558.175 478.924 561.583C474.165 567.679 468.439 573.713 460.297 574.54C448.545 575.734 434.778 569.276 423.771 565.42L424.572 558.365C425.288 558.09 426.008 557.823 426.708 557.51C438.59 552.185 451.657 531.915 456.175 520.1Z" fill="#A3C4F3"/>
<path d="M585.822 595.402C593.176 594.13 600.504 592.72 607.805 591.173C665.446 578.699 697.609 555.366 729.408 505.941C730.81 511.895 719.628 531.572 716.221 537.064C700.546 562.331 666.617 593.817 637.148 600.687C623.953 603.763 597.912 601.689 585.822 595.402Z" fill="#F7ADB6"/>
<path d="M628.476 540.015C629.391 540.158 629.732 540.203 630.606 539.771C635.319 537.439 644.981 528.86 650.462 525.325C660.6 518.787 671.332 513.6 683.007 510.471C696.565 506.837 709.261 505.725 721.789 512.905C692.4 556.933 657.151 579.057 605.576 589.336C597.852 590.875 590.073 592.134 582.354 593.698C581.685 589.041 580.94 584.381 580.465 579.699C586.847 576.57 592.73 571.051 598.198 566.519C607.44 558.86 616.741 550.838 627.083 544.681C626.972 546.982 626.87 548.92 627.478 551.178C629.031 549.398 628.513 542.367 628.476 540.015Z" fill="#F7ADB6"/>
<path d="M494.973 540.792C499.952 532.43 505.798 523.853 508.975 514.617C515.312 540.941 529.188 569.04 544.836 591.048C540.917 593.126 536.952 595.129 533.058 597.25C522.108 586.654 512.886 574.407 505.727 560.955C502.114 554.063 499.565 547.174 494.973 540.792Z" fill="#FFCFD2"/>
<path d="M248.572 528.103C244.957 528.917 241.555 529.874 238.087 531.183L237.963 530.47C251.413 524.709 263.844 524.26 277.587 529.694C291.33 535.127 303.659 545.427 309.553 559.193C313.628 568.711 316.37 582.552 312.329 592.475C312.275 592.609 312.214 592.74 312.157 592.873C314.172 578.3 311.638 562.584 302.565 550.628C301.351 549.028 300.104 547.437 298.759 545.946C296.679 543.689 294.386 541.518 291.943 539.661C279.448 530.164 264.058 525.989 248.572 528.103Z" fill="#030203"/>
<path d="M248.572 528.104C264.058 525.99 279.448 530.165 291.943 539.662C294.386 541.519 296.679 543.69 298.759 545.947C298.132 546.641 297.16 547.917 296.256 548.207C292.923 549.277 264.24 538.926 259.341 536.876C256.215 535.567 252.523 533.891 249.891 531.736C248.516 530.609 248.696 529.753 248.572 528.104Z" fill="#B9FBC0"/>
<path d="M238.086 531.186C235.597 532.744 232.597 534.716 229.734 535.386L230.192 534.601L230.648 535.346L230.847 535.289L230.644 534.261C232.97 532.77 235.467 531.644 237.962 530.473L238.086 531.186Z" fill="#6D93A4"/>
<path d="M352.451 537.73C370.257 549.466 388.318 557.463 409.084 562.262C409.005 563.32 408.86 564.316 408.654 565.357L407.726 565.854C393.659 564.693 378.492 561.304 365.308 556.249C362.003 554.982 355.283 552.704 353.754 549.299L354.098 548.995C362.506 554.797 369.55 557.852 379.482 560.316C381.622 560.847 383.177 561.121 385.098 559.76C386.174 558.998 386.49 558.244 386.696 557.007L385.843 556.059C380.843 554.669 376.175 552.429 371.546 550.123C367.271 547.994 353.692 541.443 352.451 537.73Z" fill="#B9FBC0"/>
<path d="M628.225 539.707L628.475 540.015C628.512 542.367 629.03 549.398 627.477 551.178C626.869 548.92 626.971 546.982 627.082 544.681L627.122 541.869L627.822 541.646L628.225 539.707Z" fill="#50061A"/>
<path d="M545.917 613.037C542.14 627.428 538.125 641.863 535.439 656.511C530.521 683.331 528.659 711.026 526.944 738.217C526.482 745.543 525.14 791.492 523.398 795.013L523.207 794.729C520.645 763.452 522.641 732.297 522.508 701.003C522.393 673.944 519.942 645.745 514.904 619.184C511.027 598.744 507.259 577.814 500.222 558.173C498.862 554.376 493.766 544.458 494.972 540.793C499.564 547.175 502.113 554.064 505.726 560.956C512.885 574.408 522.107 586.655 533.057 597.251C531.086 598.427 527.85 600.396 527.365 602.837C527.132 604.004 527.613 605.77 528.313 606.728C531.063 610.492 536.094 607.575 539.86 608.3C539.646 609.401 539.345 610.44 539.032 611.514L539.478 612.223C541.493 613.165 543.731 612.989 545.917 613.037Z" fill="#C0F5E0"/>
<path d="M680.381 602.834L679.738 602.615C679.848 601.612 683.044 600.882 684.095 600.518C692.492 597.614 700.491 592.823 707.354 587.209C721.194 575.887 730.79 561.114 732.675 543.164L733.689 543.86C734.443 550.323 730.254 560.075 727.206 565.673C717.409 583.669 699.849 596.999 680.381 602.834Z" fill="#030203"/>
<path d="M305.81 591.317C305.629 591.277 305.442 591.257 305.267 591.197C304.033 590.776 302.987 589.833 302.034 588.972C297.671 585.029 293.8 580.541 289.431 576.583C280.787 568.75 271.714 561.313 263.66 552.856C261.083 550.151 258.939 547.512 257.064 544.273C259.999 544.668 262.95 545.714 265.598 547.033C281.899 555.153 300.102 574 305.81 591.317Z" fill="#FFFFFA"/>
<path d="M520.45 768.569C518.685 768.824 516.927 769.129 515.179 769.483C512.081 751.392 508.651 733.321 506.055 715.15C504.685 705.562 503.745 695.917 502.363 686.33C497.313 651.298 490.575 622.65 476.372 590.145C479.581 590.514 482.815 590.628 486.042 590.486C488.733 590.346 491.209 589.936 493.054 587.86C493.373 586.53 493.478 585.819 492.859 584.547C490.003 578.673 478.292 573.972 472.557 571.856C480.717 563.258 486.902 554.245 493.181 544.238C510.652 593.564 519.906 645.424 520.571 697.748C520.624 711.599 520.568 725.449 520.401 739.299C520.228 749.078 519.636 758.8 520.45 768.569Z" fill="#C0F5E0"/>
<path d="M409.545 561.19C412.202 559.164 419.157 558.503 422.528 558.438C422.473 560.678 422.313 562.77 421.897 564.974L409.545 561.19Z" fill="#C0F5E0"/>
<path d="M515.014 775.82C512.913 776.098 510.837 776.318 508.802 776.933C485.871 731.383 446.15 674.995 409.744 638.918C414.068 638.82 418.327 638.619 422.442 637.145C425.044 636.212 427.146 635.199 428.378 632.64C428.461 631.037 428.211 630.08 427.123 628.851C422.365 623.477 412.366 623.306 405.65 622.649C416.989 603.398 419.923 588.436 423.472 566.898C436.35 571.657 447.527 577.122 461.645 577.048C457.081 582.838 452.509 592.377 453.094 599.981C453.228 601.719 453.798 602.504 455.077 603.619C455.904 603.834 456.632 604.027 457.493 603.915C464.154 603.049 469.812 594.823 473.69 589.881C476.649 595.229 478.946 601.121 481.199 606.8C498.615 650.696 500.814 698.575 508.961 744.645C510.766 754.847 511.957 765.948 515.014 775.82Z" fill="#C0F5E0"/>
<path d="M468.898 592.836C466.416 596.044 462.175 600.839 458.021 601.426C457.268 601.156 456.693 601.159 456.263 600.427C454.833 597.99 455.974 593.967 456.687 591.392C458.841 583.608 462.657 577.475 469.818 573.414C472.068 574.665 474.892 575.347 477.316 576.263C481.259 577.753 485.229 580.198 488.577 582.743C489.979 583.809 491.167 584.827 491.413 586.617C487.916 590.079 478.894 587.203 474.343 587.751C471.746 588.064 470.24 590.894 468.898 592.836Z" fill="#C0F5E0"/>
<path d="M565.689 596.273C567.879 590.765 574.001 587.103 578.715 583.938C579.184 587.284 579.563 590.679 580.211 593.994C575.394 594.791 570.543 595.762 565.689 596.273Z" fill="#F7ADB6"/>
<path d="M551.245 608.683C548.444 610.013 545.436 611.702 542.254 610.762C542.249 609.416 543.322 608.759 544.077 607.683C544.823 606.619 545.101 606.171 544.85 604.891C544.412 604.635 544.044 604.133 543.538 604.124C541.539 604.088 538.241 606.403 535.871 606.637C534.163 606.806 531.716 606.267 530.474 605.048C529.881 604.466 530.042 604.194 530.008 603.434C532.161 599.1 540.388 595.71 544.164 592.285L544.716 591.777C549.272 595.612 555.529 597.221 561.14 598.819C562.997 603.869 566.488 607.308 568.831 612C569.698 613.734 570.555 615.751 569.929 617.677L569.032 618.038C566.395 617.346 564.777 616.117 562.662 614.483C560.772 615.333 558.53 616.749 556.426 616.293C555.037 615.448 554.688 614.116 554.103 612.683C553.297 611.121 552.458 609.955 551.245 608.683Z" fill="#F1C0E8"/>
<path d="M564.046 598.664C568.912 598.496 573.945 597.362 578.782 596.697L579.3 596.59C580.949 597.344 582.034 602.572 582.676 604.514C586.418 615.837 590.726 626.249 596.894 636.493C591.031 638.153 581.642 640.686 578.476 646.338C578.412 647.563 578.281 648.165 579.264 649.106C581.823 651.554 587.591 651.24 590.958 651.467C587.97 655.845 584.221 659.759 580.832 663.832C576.949 668.577 573.261 673.478 569.776 678.523C549.545 707.768 538.888 733.827 532.423 768.795C529.864 782.254 528.2 795.869 527.441 809.549C527.144 812.45 527.619 816.839 526.004 819.322L526.351 818.587L525.613 818.123L526.472 818.086L525.564 817.607C525.26 812.104 525.917 806.59 525.984 801.083C526.191 784.25 526.885 767.721 528.01 750.926C531.141 704.177 533.785 657.853 547.737 612.775L548.397 612.641L548.67 614.06L549.24 614.101C549.543 613.404 549.851 612.899 550.33 612.309C552.715 613.365 552.767 617.299 555.756 618.498C557.507 619.201 559.105 618.311 560.677 617.593L561.239 617.331C563.501 618.45 567.262 620.538 569.85 619.818C570.992 619.5 571.736 619.051 572.132 617.875C573.994 612.355 565.87 604.587 564.264 599.383L564.046 598.664Z" fill="#FBF8CC"/>
<path d="M394.233 631.975C397.549 629.937 400.755 627.752 403.967 625.556C409.655 625.329 416.511 625.527 421.795 627.863C423.578 628.652 425.077 629.795 425.806 631.644C425.627 632.785 425.857 632.47 425.18 633.204C420.842 637.907 412.113 635.566 406.766 636.549C405.75 636.736 405.281 637.32 404.722 638.115C404.537 638.376 404.364 638.646 404.185 638.911C403.784 640.745 403.295 642.555 402.814 644.37C401.34 645.914 398.528 648.689 396.425 649.263C395.112 649.622 394.782 649.353 393.789 648.631C391.752 644.346 393.578 636.591 394.233 631.975Z" fill="#C0F5E0"/>
<path d="M594.868 648.524C592.4 648.582 589.873 648.727 587.41 648.584C585.404 648.468 582.731 648.245 581.322 646.669L581.465 645.583C584.905 641.904 591.947 640.194 596.724 639.073L598.189 638.938C601.402 641.135 604.361 642.735 608.039 644.009C609.164 647.274 610.045 650.618 610.677 654.013C611.208 656.838 612.246 663.244 610.35 665.521C609.92 666.039 609.819 665.837 609.017 665.881C605.346 664.162 603.412 658.584 601.247 655.234C600.359 655.905 600.601 655.577 600.087 656.49C599.625 657.31 599.227 658.185 598.7 658.966C598.012 659.984 597.506 660.484 596.283 660.716C594.092 658.429 594.908 651.706 594.868 648.524Z" fill="#C0F5E0"/>
<path d="M355.406 735.874L353.102 737.717C339.287 742.019 320.213 742.139 306.811 736.304C295.651 731.445 286.387 722.301 281.961 710.897C278.444 701.835 278.533 690.894 282.488 681.969C286.491 672.939 295.089 666.929 304.095 663.503C314.59 659.596 326.213 660.06 336.362 664.793C347.092 669.662 355.384 678.681 359.336 689.782C364.63 704.405 361.776 722.042 355.406 735.874ZM339.046 679.594L340.396 678.815C340.611 678.08 340.849 677.901 340.463 677.162C339.122 674.595 335.547 673.047 332.907 672.292C330.339 671.558 327.03 671.251 324.7 672.83C323.492 673.649 323.247 674.424 322.969 675.779L323.58 675.952C326.427 678.095 334.481 680.427 338.123 679.847C338.438 679.796 338.739 679.678 339.046 679.594Z" fill="#F7ADB6"/>
<path d="M322.971 675.779C323.249 674.424 323.494 673.649 324.702 672.83C327.032 671.251 330.341 671.558 332.909 672.292C335.549 673.047 339.124 674.595 340.465 677.162C340.851 677.901 340.613 678.08 340.398 678.815L339.048 679.594L338.422 679.125L339.047 678.145C338.829 677.002 338.389 676.41 337.517 675.657C335.229 673.683 331.306 672.68 328.342 672.858C325.902 673.005 324.491 673.941 322.971 675.779Z" fill="#281414"/>
<path d="M322.971 675.781C324.491 673.943 325.902 673.007 328.342 672.86C331.306 672.682 335.229 673.685 337.517 675.659C338.389 676.412 338.829 677.004 339.047 678.147L338.422 679.127C333.24 678.706 328.623 676.963 323.582 675.954L322.971 675.781Z" fill="#F7ADB6"/>
<path d="M323.58 675.953C328.621 676.962 333.238 678.705 338.42 679.126L339.046 679.595C338.739 679.679 338.438 679.797 338.123 679.848C334.481 680.428 326.427 678.096 323.58 675.953Z" fill="#824B4E"/>
<path d="M614.381 759.899C608.856 754.031 604.278 747.721 600.787 740.433C597.696 733.98 594.193 724.291 596.925 717.244C598.287 713.733 600.591 712.02 603.97 710.638L604.651 710.558C611.755 709.779 616.458 714.048 621.664 718.218C625.17 715.737 628.965 713.863 633.351 713.805C636.039 713.771 638.545 714.644 640.423 716.606C642.966 719.263 644.034 723.544 643.759 727.138C643.076 736.056 636.374 744.45 629.818 749.996C625.452 754.104 619.497 756.817 614.381 759.899Z" fill="#FAF2F9"/>
<path d="M353.104 737.717L355.408 735.874C370.369 727.636 382.414 720.743 400.102 725.935C410.429 728.967 418.287 735.78 423.297 745.26C430.184 758.293 428.893 773.189 424.592 786.825C422.679 792.891 417.867 803.565 416.899 808.84L417.829 809.242C416.609 809.919 415.259 810.555 414.105 811.329L413.767 812.275C411.023 812.416 409.537 813.371 407.73 815.418C406.542 816.764 405.439 818.204 404.325 819.612C404.147 819.335 404.059 818.97 403.79 818.779C402.583 817.921 387.326 817.656 384.743 817.3C379.038 816.516 373.302 815.131 368.046 812.741C357.951 808.149 349.601 799.652 345.795 789.182C341.718 777.964 342.717 763.501 346.572 752.349C348.316 747.305 350.83 742.538 353.104 737.717ZM387.234 763.458C386.199 764.997 385.585 766.322 386.01 768.227C386.256 769.333 386.879 770.078 387.542 770.958L389.093 771.726C386.91 768.588 386.798 767.272 387.234 763.458C388.708 762.467 389.826 761.715 391.672 761.825C392.941 761.9 393.89 762.555 394.629 763.554C396.324 765.848 395.464 769.336 394.981 771.87L395.88 771.403C396.776 769.881 397.292 768.702 397.117 766.899C396.935 765.016 395.69 762.533 394.062 761.484C392.848 760.702 391.855 760.514 390.439 760.828C388.918 761.166 388.086 762.265 387.234 763.458ZM358.202 739.307C359.599 740.285 360.591 740.899 361.275 742.541C361.064 743.419 361.254 743.473 360.383 743.976C359.109 744.711 358.228 744.645 356.863 744.248L356.682 745.145C358.328 745.608 359.12 745.787 360.738 745.161C361.755 744.09 361.905 743.946 362.182 742.507C361.723 741.253 361.621 740.572 360.375 739.88C359.798 739.56 358.855 739.444 358.202 739.307Z" fill="#B9FBC0"/>
<path d="M356.682 745.147L356.863 744.25C358.228 744.647 359.109 744.713 360.383 743.978C361.254 743.475 361.064 743.421 361.275 742.543C360.591 740.901 359.599 740.287 358.202 739.309C358.855 739.446 359.798 739.562 360.375 739.882C361.621 740.574 361.723 741.255 362.182 742.509C361.905 743.948 361.755 744.092 360.738 745.163C359.12 745.789 358.328 745.61 356.682 745.147Z" fill="#3A9F70"/>
<path d="M387.232 763.458C388.084 762.265 388.916 761.166 390.437 760.828C391.853 760.514 392.846 760.702 394.06 761.484C395.688 762.533 396.933 765.016 397.115 766.899C397.29 768.702 396.774 769.881 395.878 771.403L394.979 771.87C395.462 769.336 396.322 765.848 394.627 763.554C393.888 762.555 392.939 761.9 391.67 761.825C389.824 761.715 388.706 762.467 387.232 763.458Z" fill="#3A9F70"/>
<path d="M389.092 771.729L387.541 770.961C386.878 770.081 386.255 769.336 386.009 768.23C385.584 766.325 386.198 765 387.233 763.461C386.797 767.275 386.909 768.591 389.092 771.729Z" fill="#48DEC8"/>
<path d="M515.18 769.484C516.928 769.13 518.686 768.825 520.451 768.57C520.678 775.422 520.546 782.489 521.168 789.303C520.948 790.724 520.858 792.083 520.219 793.383C519.025 785.426 516.84 777.374 515.18 769.484Z" fill="#FFFFFA"/>
<path d="M508.803 776.933C510.838 776.318 512.914 776.098 515.015 775.82C516.626 783.304 518.4 790.804 519.309 798.411C515.892 791.247 511.992 784.181 508.803 776.933Z" fill="#DFF9F7"/>
<path d="M521.168 789.301C521.556 793.014 521.504 796.636 521.4 800.365C520.964 798.053 520.441 795.724 520.219 793.381C520.858 792.081 520.948 790.722 521.168 789.301Z" fill="#C3CACC"/>
<path d="M417.828 809.242C423.933 807.252 431.503 805.96 437.416 809.166C441.312 811.278 443.659 815.316 444.83 819.471C447.622 829.381 443.645 840.205 440.265 849.448C439.015 851.347 437.844 852.86 435.931 854.125L434.608 855.046C430.758 856.748 426.573 855.599 422.704 854.617C421.27 853.913 419.844 853.194 418.425 852.46C411.567 848.895 404.06 843.85 401.78 836.031C400.142 830.416 401.472 824.566 404.324 819.612C405.438 818.204 406.541 816.765 407.729 815.419C409.536 813.372 411.022 812.417 413.766 812.276C413.619 812.688 413.272 813.02 412.961 813.323C412.806 813.475 412.63 813.604 412.476 813.755C411.237 814.972 410.726 816.175 410.653 817.909C411.175 818.994 411.385 819.469 412.672 819.818C413.813 820.127 415.449 819.759 416.434 819.109C417.592 818.344 417.709 817.659 418.042 816.421C417.58 813.912 416.077 812.758 414.104 811.33C415.258 810.556 416.608 809.919 417.828 809.242Z" fill="#F1C0E8"/>
<path d="M413.765 812.274L414.103 811.328C416.076 812.756 417.579 813.91 418.041 816.419C417.708 817.657 417.591 818.342 416.433 819.107C415.448 819.757 413.812 820.126 412.671 819.817C411.384 819.468 411.174 818.993 410.652 817.908C410.725 816.174 411.236 814.97 412.475 813.753C412.629 813.602 412.805 813.473 412.96 813.321C413.271 813.018 413.618 812.686 413.765 812.274Z" fill="#CFBAF0"/>
<path d="M530.682 825.185C531.223 824.612 531.768 824.044 532.317 823.48C540.294 815.299 548.071 812.115 559.442 811.973C560.368 820.245 569.406 828.32 575.198 833.89C573.445 835.911 571.587 837.723 569.289 839.122C563.843 842.44 557.106 843.095 550.982 841.497C542.58 839.305 535.125 832.484 530.682 825.185Z" fill="#FFFFFA"/>
<path d="M559.441 811.973C565.323 812.596 572.311 813.39 576.317 818.326C578.184 820.627 578.814 823.446 578.332 826.346C577.891 828.994 576.646 831.646 575.197 833.89C569.405 828.32 560.367 820.245 559.441 811.973Z" fill="#FAF2F9"/>
<path d="M495.841 848.787C493.554 850.131 491.071 851.314 488.508 852.035C485.6 852.853 482.287 853.118 479.623 851.428C477.617 850.155 476.439 848.017 475.967 845.733C475.095 841.511 476.314 837.192 478.753 833.705C483.458 826.98 490.987 823.952 498.771 822.61C506.931 821.848 514.662 822.617 522.453 825.091C512.603 831.929 505.868 842.174 495.841 848.787Z" fill="#FFFFFA"/>
<path d="M523.125 846.662C523.21 842.906 523.801 838.874 525.025 835.316C525.753 838.528 524.518 843.653 524.067 846.955L523.125 846.662Z" fill="#858389"/>
<path d="M434.607 855.046L435.93 854.125C436.014 854.277 436.096 854.43 436.182 854.581C437.884 857.588 441.606 860.441 441.432 864.08L440.974 864.816C439.716 865.092 439.404 865.081 438.216 864.382C435.822 862.973 435.031 859.281 434.749 856.777C434.686 856.201 434.639 855.624 434.607 855.046Z" fill="#8EECF5"/>
<defs>
<linearGradient id="paint0_linear_2293_65441" x1="617.068" y1="219.308" x2="465.528" y2="323.691" gradientUnits="userSpaceOnUse">
<stop stop-color="#FEEAB9"/>
<stop offset="1" stop-color="#F2B6E6"/>
</linearGradient>
<linearGradient id="paint1_linear_2293_65441" x1="370.69" y1="322.545" x2="351.056" y2="302.672" gradientUnits="userSpaceOnUse">
<stop stop-color="#E1F7F7"/>
<stop offset="1" stop-color="#FFFFFE"/>
</linearGradient>
<linearGradient id="paint2_linear_2293_65441" x1="309.21" y1="434.089" x2="279.463" y2="432.188" gradientUnits="userSpaceOnUse">
<stop stop-color="#97FBF1"/>
<stop offset="1" stop-color="#C4F5F4"/>
</linearGradient>
<linearGradient id="paint3_linear_2293_65441" x1="339.787" y1="407.437" x2="292.781" y2="614.173" gradientUnits="userSpaceOnUse">
<stop stop-color="#AEFFA1"/>
<stop offset="1" stop-color="#BBEDFB"/>
</linearGradient>
</defs>
</svg>
