<svg width="1024" height="1024" viewBox="0 0 1024 1024" fill="none" xmlns="http://www.w3.org/2000/svg">
<path d="M98.0769 402.398C97.0855 399.397 100.249 348.356 100.343 338.927C100.663 307.045 95.7644 273.988 99.0547 242.407C100.744 226.194 104.493 209.483 111.777 194.829C127.77 162.652 157.316 141.89 190.787 130.817C224.938 119.519 263.304 122.195 298.715 123.376C324.622 124.241 351.555 124.92 377.309 121.59C390.849 119.839 406.653 116.843 419.737 113.099C437.15 108.116 454.481 100.631 471.301 93.9347C485.388 88.327 499.742 83.1348 513.991 77.9555C526.034 73.5777 538.572 71.0513 551.008 68.1225C600.257 56.5238 640.465 53.5379 689.548 68.372C701.996 72.134 714.597 76.8089 726.192 82.6929C733.196 86.2468 740.327 89.7672 747.015 93.89C769.836 107.957 792.54 127.589 807.69 149.9C810.487 154.02 812.759 158.533 815.28 162.826C820.56 171.82 825.319 180.468 828.608 190.453C831.778 200.076 837.537 221.859 838.042 231.273C838.427 238.458 838.777 246.52 838.21 253.681C837.894 257.666 834.225 277.983 834.882 279.983C836.055 283.553 852.364 305.338 855.922 311.165C865.84 327.411 874.429 344.483 881.929 361.971C892.208 385.94 899.566 414.204 904.216 439.793C916.782 508.947 912.425 581.342 889.375 647.948C882.565 667.626 874.035 686.525 864.606 705.072C859.927 714.275 829.453 764.535 823.09 767.46C823.872 765.908 827.112 761.785 828.34 760.077C832.483 754.313 837.001 748.665 840.492 742.46C850.618 730.013 860.451 710.74 867.764 696.362C896.106 640.644 909.412 580.251 910.214 517.784L910.325 515.341C909.668 510.378 910.63 500.219 909.399 496.673L909.639 496.105C909.497 493.063 909.292 489.981 909.116 486.937C909.412 485.551 909.31 485.128 909.234 483.723C908.992 483.451 908.75 483.178 908.508 482.905C903.684 482.246 889.579 481.643 885.674 481.397C888.696 480.268 902.586 481.652 907.391 481.615C910.386 475.143 896.717 410.707 894.081 401.297C832.161 180.289 564.626 61.3317 357.243 157.089C269.151 196.206 197.594 266.173 155.821 352.942C147.464 370.301 143.209 385.783 136.425 403.229C122.412 395.471 112.662 396.221 98.0769 402.398Z" fill="#FDE4CF"/>
<path d="M665.648 354.544C654.996 345.913 646.889 337.664 635.462 329.518C557.194 273.725 444.835 287.138 383.76 362.304C358.081 393.909 347.33 424.655 340.783 464.079C297.823 467.514 271.656 482.289 234.102 501.129C221.498 507.453 206.647 511.121 193.845 517.175C206.453 488.342 220.655 459.081 236.52 431.83C239.695 426.376 243.735 422.151 247.165 417.194C255.765 417.992 262.608 445.117 263.737 452.142C264.167 454.817 264.988 463.654 266.049 465.105C272.45 465.528 274.468 448.672 274.704 443.742C275.297 431.326 269.322 424.951 260.216 417.797C275.627 419.264 287.895 423.65 298.545 435.718C300.361 437.776 302.765 441.527 304.827 442.816L305.846 442.708C306.65 441.272 306.072 439.463 305.63 437.963C302.175 426.214 297.248 416.807 286.253 410.713C271.775 402.689 265.779 409.63 253.238 412.292C265.099 402.381 282.201 393.246 297.939 395.235C300.087 395.506 303.368 395.889 305.273 395.148C306.903 388.449 266.688 367.856 251.29 401.191C247.889 388.365 245.942 383.27 234.341 375.478C228.589 371.615 204.31 366.257 200.579 371.832L200.704 372.738C204.52 374.86 209.472 375.887 213.399 377.7C223.348 382.294 235.379 395.286 241.84 404.279C228.563 398.654 218.162 393.97 203.955 400.108C197.111 403.066 186.19 409.515 185.372 417.712L185.908 418.732C187.443 419.11 188.368 418.63 189.896 418.154C209.606 414.25 224.764 411.704 244.973 414.186C234.12 426.876 229.489 438.136 221.512 452.161C208.903 474.329 199.557 496.761 188.758 519.672C183.451 505.454 177.593 491.679 172.514 477.34C166.303 459.806 161.639 439.615 152.29 423.555C167.589 425.903 180.548 432.754 193.183 441.506C195.709 443.256 202.402 449.282 204.976 449.31C209.762 444.567 193.32 426.647 189.002 423.544C176.295 414.412 167.787 414.946 153.183 416.879C158.47 407.581 171.425 399.158 181.589 396.013C184.69 395.054 191.27 395.187 191.263 391.966C183.195 382.682 157.266 388.017 150.743 397.91C146.929 403.696 146.448 404.36 145.651 410.987C142.399 407.915 139.983 405.98 136.424 403.23C143.208 385.784 147.463 370.302 155.82 352.943C197.593 266.174 269.15 196.207 357.242 157.09C564.625 61.3331 832.16 180.29 894.08 401.298C896.716 410.708 910.385 475.144 907.39 481.616C902.585 481.653 888.695 480.269 885.673 481.398C882.256 481.662 871.356 481 867.188 480.866L828.671 479.798C792.294 479.051 756.194 479.335 719.827 479.62C719.494 475.069 719.85 469.837 719.017 465.419C719.288 456.629 707.887 409.72 700.539 406.638C705.337 405.922 714.429 405.857 718.279 403.274L718.342 402.415C714.242 399.206 702.331 399 697.008 398.613C696.432 393.595 685.665 377.353 681.599 374.724C683.105 374.122 688.781 374.07 690.75 373.865C699.145 372.99 732.93 372.937 734.741 363.514C730.581 355.383 676.149 354.731 665.648 354.544ZM667.671 254.859C659.049 249.014 651.94 247.303 641.613 249.015C638.965 249.454 637.227 251.245 637.177 253.965L637.874 254.39C639.016 253.887 641.849 252.099 642.483 251.929C650.361 249.816 660.251 251.57 666.196 257.391L667.838 259.128C668.197 259.176 668.556 259.224 668.916 259.273C674.11 254.139 673.656 251.157 679.934 247.013C690.832 239.82 694.876 246.839 699.698 245.457L699.662 244.614C688.386 234.27 674.952 245.925 667.671 254.859ZM628.98 204.572C619.81 207.098 615.707 212.497 612.905 221.4C605.722 218.33 597.371 216.311 589.674 219.074C587.568 219.83 584.584 221.808 583.813 224.011L584.259 224.711C586.329 224.591 586.792 223.679 588.65 222.168L589.207 221.957C596.567 219.253 603.727 220.723 610.592 223.879C612.063 224.555 614.081 225.593 615.616 225.548C619.207 214.998 619.657 208.97 632.568 206.787L633.407 205.96L633.323 204.908C632.03 204.185 630.539 204.489 628.98 204.572ZM501.503 215.682C490.143 217.172 483.691 220.767 475.214 228.392C473.054 226.482 470.973 224.599 468.602 222.949C457.077 214.93 441.538 214.722 432.544 226.651C438.207 223.738 442.882 220.736 449.347 220.309C462.212 220.322 468.068 224.921 476.17 234.191C484.08 220.812 500.26 215.398 514.597 221.743C515.106 220.148 515.035 220.965 514.626 219.198C511.889 216.169 505.371 215.247 501.503 215.682ZM355.642 235.241C349.836 235.421 317.273 235.316 314.71 237.779C314.014 238.448 313.898 238.911 313.647 239.809C315.356 245.801 332.167 242.255 337.076 241.442C338.05 243.325 338.819 244.865 341.076 245.417C348.323 247.188 357.262 245.314 364.953 245.47C362.177 246.953 359.153 248.107 360.115 251.652C362.326 253.95 374.813 253.817 378.434 253.886L433.062 254.458C443.521 254.466 461.39 255.501 471.18 253.848C472.751 253.583 474.802 252.919 475.935 251.723C476.804 250.806 477.343 249.754 477.182 248.453C476.98 246.815 475.597 245.39 474.186 244.641C469.717 242.269 410.019 243.563 399.554 243.56C401.128 242.387 403.207 241.071 403.414 238.927C403.487 238.174 403.018 237.465 402.542 236.913C399.544 233.436 362.498 235.087 355.642 235.241ZM773.419 252.751C764.404 252.802 738.013 252.257 731.128 255.76L730.421 256.682C731.395 259.359 734.095 259.636 736.664 260.069C744.311 261.356 752.372 261.961 760.107 262.175C768.885 262.493 796.259 264.078 802.914 260.091C803.697 258.85 803.565 259.512 803.265 258.03C798.635 252.121 780.549 252.707 773.419 252.751ZM719.006 267.204C709.967 267.981 705.135 267.95 696.839 271.852C708.397 278.565 733.187 279.51 746.624 278.476C751.599 277.751 761.403 276.8 765.018 273.787L765.176 272.726C759.831 266.115 727.677 266.639 719.006 267.204ZM670.054 269.204L661.926 269.844C666.383 270.999 675.066 272.665 679.625 272.228C681.93 272.134 683.548 272.28 685.607 271.281L685.757 270.568C682.247 268.688 674.026 268.811 670.054 269.204ZM244.898 308.595C242.973 309.062 239.032 309.918 237.93 311.481C239.436 313.119 244.224 311.328 246.576 311.213C257.488 310.677 264.11 316.501 270.588 324.186C276.967 314.228 284.576 310.804 296.19 310.998C299.06 311.374 301.958 311.944 304.785 311.397L305.359 310.942C301.312 308.12 292.578 307.912 287.73 308.878C280.185 310.382 275.684 313.349 270.267 318.472C262.207 311.282 256.231 307.548 244.898 308.595ZM346.292 346.121C338.259 347.618 335.046 348.521 328.967 354.348C322.877 349.624 316.982 346.578 308.768 347.246C306.071 347.465 299.142 349.7 297.155 351.518L297.308 352.04C299.253 352.611 304.753 350.052 307.885 349.538C318.377 349.275 321.935 351.268 328.818 359.005C334.53 352.232 337.854 349.562 347.417 348.304C349.46 348.035 354.335 348.259 355.67 347.475L355.91 346.741C353.703 345.558 348.876 345.948 346.292 346.121ZM851.375 364.597C840.577 368.427 837.388 371.949 830.781 381.22C820.457 369.609 807.546 358.404 792.067 370.266C799.472 368.149 802.596 367.199 810.312 369.252C813.987 370.616 814.88 370.994 818.529 373.561C823.12 376.791 826.449 382.087 831.003 385.103C831.343 385.005 831.683 384.906 832.024 384.807C834.898 381.63 836.93 377.95 840.049 374.994C848.679 366.816 856.534 365.831 867.527 369.558C861.702 364.843 859.185 363.892 851.375 364.597ZM750.021 403.118C746.395 404.968 745.219 406.216 742.585 409.341C738.136 405.092 735.545 402.145 729.006 403.958L728.911 404.465C731.578 405.663 732.906 405.427 735.77 406.797C738.736 408.688 740.024 410.177 742.475 412.692C748.152 407.16 748.279 403.858 756.42 404.001L757.241 404.023L757.59 403.48C755.944 402.383 752.03 402.918 750.021 403.118ZM796.357 429.554C788.61 431.831 785.878 435.574 780.983 441.611C775.346 436.33 767.043 430.611 759.168 434.584L758.794 435.196C763.178 436.098 763.64 434.575 769.35 436.656C775.373 439.665 778.132 443.484 781.968 445.272C785.76 443.935 789.665 428.966 803.375 432.868L805.74 433.526L806.026 432.963C803.13 429.555 800.644 429.456 796.357 429.554Z" fill="#FFCFD2"/>
<path d="M612.905 221.4C615.707 212.497 619.809 207.098 628.979 204.572C630.538 204.489 632.03 204.185 633.323 204.908L633.406 205.96L632.568 206.787C619.657 208.97 619.207 214.998 615.616 225.548C614.081 225.593 612.062 224.555 610.591 223.879C603.726 220.723 596.566 219.253 589.206 221.957L588.65 222.168C586.792 223.679 586.328 224.591 584.258 224.711L583.812 224.011C584.584 221.808 587.568 219.83 589.674 219.074C597.371 216.311 605.722 218.33 612.905 221.4Z" fill="#41394D"/>
<path d="M475.215 228.39C483.692 220.765 490.144 217.17 501.504 215.68C505.372 215.245 511.89 216.167 514.627 219.196C515.036 220.963 515.107 220.146 514.598 221.741C500.261 215.396 484.081 220.81 476.171 234.189C468.069 224.919 462.213 220.32 449.348 220.307C442.883 220.734 438.208 223.736 432.545 226.649C441.539 214.72 457.078 214.928 468.603 222.947C470.974 224.597 473.055 226.48 475.215 228.39Z" fill="#41394D"/>
<path d="M337.075 241.441C332.166 242.254 315.355 245.8 313.646 239.808C313.897 238.91 314.013 238.447 314.709 237.778C317.272 235.315 349.835 235.42 355.641 235.24C362.497 235.086 399.543 233.435 402.541 236.912C403.017 237.464 403.486 238.173 403.413 238.926C403.206 241.07 401.127 242.386 399.553 243.559C410.018 243.562 469.716 242.268 474.185 244.64C475.596 245.389 476.979 246.814 477.181 248.452C477.342 249.753 476.803 250.805 475.934 251.722C474.801 252.918 472.75 253.582 471.179 253.847C461.389 255.5 443.52 254.465 433.061 254.457L378.433 253.885C374.812 253.816 362.325 253.949 360.114 251.651C359.152 248.106 362.176 246.952 364.952 245.469C357.261 245.313 348.322 247.187 341.075 245.416C338.818 244.864 338.049 243.324 337.075 241.441Z" fill="#E6DFD5"/>
<path d="M667.67 254.857C674.951 245.923 688.385 234.268 699.661 244.612L699.697 245.455C694.875 246.837 690.831 239.818 679.933 247.011C673.655 251.155 674.109 254.137 668.915 259.271C668.555 259.222 668.196 259.174 667.837 259.126L666.195 257.389C666.728 256.031 666.661 255.86 667.67 254.857Z" fill="#41394D"/>
<path d="M666.197 257.39C660.252 251.569 650.362 249.815 642.484 251.928C641.85 252.098 639.017 253.886 637.875 254.389L637.178 253.964C637.228 251.244 638.966 249.453 641.614 249.014C651.941 247.302 659.05 249.013 667.672 254.858C666.663 255.861 666.73 256.032 666.197 257.39Z" fill="#41394D"/>
<path d="M760.108 262.174C752.373 261.96 744.312 261.355 736.665 260.068C734.096 259.635 731.396 259.358 730.422 256.681L731.129 255.759C738.014 252.256 764.405 252.801 773.42 252.75C780.55 252.706 798.636 252.12 803.266 258.029C803.566 259.511 803.698 258.849 802.915 260.09C796.26 264.077 768.886 262.492 760.108 262.174Z" fill="#E6DFD5"/>
<path d="M696.84 271.852C705.136 267.95 709.968 267.981 719.007 267.204C727.678 266.639 759.832 266.115 765.177 272.726L765.019 273.787C761.404 276.8 751.6 277.751 746.625 278.476C733.188 279.51 708.398 278.565 696.84 271.852Z" fill="#E6DFD5"/>
<path d="M661.926 269.844L670.054 269.204C674.026 268.811 682.247 268.688 685.757 270.568L685.607 271.281C683.548 272.28 681.93 272.134 679.625 272.228C675.066 272.665 666.383 270.999 661.926 269.844Z" fill="#E6DFD5"/>
<path d="M659.164 354.218C633.921 326.173 591.142 306.103 554.219 300.39C460.484 285.884 370.5 347.085 349.172 439.368C347.276 447.579 345.314 455.18 344.77 463.703C375.213 463.31 407.373 462.262 437.277 468.506C449.75 471.111 462.196 475.964 474.589 479.358C495.915 485.199 517.679 491.075 539.667 493.8C543.186 494.236 545.944 492.784 549.276 491.929C561.282 488.171 573.587 485.464 586.161 484.49C629.398 481.14 672.814 480.796 716.154 479.919C716.245 475.424 716.101 471.179 715.958 466.694C718.839 469.863 715.272 477.877 718.266 479.476C720.401 476.111 717.504 469.779 719.018 465.418C719.851 469.836 719.495 475.068 719.828 479.619C756.195 479.334 792.295 479.05 828.672 479.797L867.188 480.865C871.356 480.999 882.256 481.661 885.673 481.397C889.578 481.643 903.684 482.246 908.508 482.905C908.75 483.178 908.991 483.451 909.233 483.723C909.309 485.128 909.411 485.551 909.115 486.937C890.276 484.834 871.816 484.581 852.941 483.914C802.507 481.929 751.877 483.004 701.451 483.478C674.872 483.728 648.3 484.994 621.982 485.704C588.264 486.613 564.317 489.432 532.396 500.553C507.208 507.97 482.391 516.85 457.294 524.498C441.472 529.319 424.132 535.364 407.904 538.406C367.111 546.054 324.432 544.024 283.117 545.808C262.521 546.508 241.984 548 221.405 549.023C214.756 549.353 209.412 546.601 203.46 546.589C179.248 546.54 154.963 547.001 130.747 547.133C127.546 547.151 123.596 549.801 121.659 552.285C121.25 552.075 120.649 551.786 120.265 551.488C102.943 538.064 86.8314 517.329 78.0442 497.253C75.7534 492.019 74.6752 486.006 73.7467 480.821C68.9532 490.909 64.7077 502.014 65.6688 513.403C65.8495 515.544 66.057 517.692 66.2491 519.833L65.4802 520.362L64.2537 519.882C60.6853 515.814 57.8977 504.708 57.927 499.087C57.9851 487.951 60.2804 482.566 67.8402 474.635C60.5305 476.646 48.2688 482.459 41.8167 486.752C39.0753 488.577 34.5874 493.593 32.0137 493.779L31.2236 492.909C30.695 489.047 33.2702 483.468 35.6016 480.51C43.0202 471.098 52.5799 466.329 64.0858 464.582C56.8956 462.128 47.4942 460.552 39.8354 460.976C36.6008 461.156 34.0462 462.949 30.9124 462.237L30.4004 461.361C30.9356 459.373 32.0765 457.725 33.8014 456.578C48.3484 446.906 66.0581 446.315 77.1645 461.099C78.9457 460.023 85.595 457.208 85.5579 456.956C85.0256 453.34 90.8977 442.95 92.7473 439.616C103.714 423.818 117.626 417.358 136.666 416.887C122.114 410.776 109.441 407.238 93.5927 412.224C91.997 412.876 90.6998 413.392 89.0409 412.907L88.6791 411.866C89.7266 407.629 94.595 404.508 98.0768 402.398C112.661 396.221 122.411 395.471 136.424 403.229C139.983 405.979 142.399 407.914 145.651 410.986C146.448 404.359 146.929 403.695 150.743 397.909C157.266 388.016 183.195 382.681 191.263 391.965C191.27 395.186 184.69 395.053 181.589 396.012C171.425 399.157 158.47 407.58 153.183 416.878C167.787 414.945 176.295 414.411 189.002 423.543C193.32 426.646 209.762 444.566 204.976 449.309C202.402 449.281 195.709 443.255 193.183 441.505C180.548 432.753 167.589 425.902 152.29 423.554C161.639 439.614 166.303 459.805 172.514 477.339C177.593 491.678 183.451 505.453 188.758 519.671C199.557 496.76 208.903 474.328 221.512 452.16C229.489 438.135 234.12 426.875 244.973 414.185C224.764 411.703 209.606 414.249 189.896 418.153L189.192 417.583C188.107 417.643 187.427 417.61 186.339 417.557L186.048 416.767C187.517 415.038 187.646 413.87 188.824 412.159C193.443 405.454 203.449 400.599 211.106 398.813C220.748 396.565 227.6 399.14 236.291 403.015C239.45 404.424 242.119 404.943 245.198 406.894L245.386 407.766L242.923 408.667C224.34 397.966 203.778 396.199 190.014 415.232C203.516 411.843 218.109 409.484 232.099 409.745C237.137 409.84 242.36 411.254 246.478 411.463C246.453 412.055 247.102 415.864 247.292 416.495L246.935 416.943L247.165 417.193C243.735 422.15 239.695 426.375 236.52 431.829C220.655 459.08 206.453 488.341 193.845 517.174C206.647 511.12 221.498 507.452 234.102 501.128C271.656 482.288 297.823 467.513 340.783 464.078C347.33 424.654 358.081 393.908 383.76 362.303C444.835 287.137 557.194 273.724 635.462 329.517C646.889 337.663 654.996 345.912 665.648 354.543C663.373 354.531 661.421 354.383 659.164 354.218ZM71.8009 470.301C70.3247 468.798 69.8161 468.347 68.0931 467.141C53.9475 469.501 42.9855 473.499 35.7594 486.724C43.289 481.996 59.8804 471.662 68.8766 472.638C69.9936 473.328 70.2555 473.32 70.901 474.414C61.2277 485.103 59.4311 494.24 62.4531 508.154C64.129 495.381 66.9003 483.67 75.2108 474.29C75.9614 473.443 75.713 473.055 75.4447 472.164L73.9983 471.539C72.1939 471.118 72.8601 471.586 71.8009 470.301ZM447.392 474.789C413.597 463.733 355.649 465.185 320.34 469.881C289.576 473.973 257.548 495.047 229.19 506.743C218.424 511.183 199.264 516.704 190.037 522.362C190.869 526.529 192.219 530.176 193.592 534.174C201.027 536.974 209.961 541.798 216.59 545.992C231.717 545.093 246.863 543.985 261.995 543.209C302.081 541.153 342.21 541.859 382.245 538.594C405.73 536.679 427.792 529.856 450.241 523.084C452.924 522.275 455.689 521.496 458.327 520.566C460.835 519.894 463.382 518.986 465.856 518.168C488.278 510.751 510.677 503.365 533.268 496.478C511.951 492.907 494.275 488.628 473.421 482.513C465.135 480.083 455.589 476.592 447.392 474.789ZM170.115 390.557C158.525 393.563 148.437 399.676 148.746 413.489C148.754 413.836 149.043 414.213 149.23 414.496L149.9 414.599C151.898 412.297 154.378 409.33 156.502 407.198C166.502 398.714 173.367 395.059 185.817 391.395C179.579 390.416 176.412 390.186 170.115 390.557ZM115.745 401.182C107.457 402.028 101.006 403.917 94.2354 408.835C109.061 405.483 120.033 406.739 133.92 412.444C138.864 414.844 142.984 417.633 147.59 420.603C143.174 408.643 128.214 400.502 115.745 401.182ZM164.33 418.223C158.997 418.62 155.718 418.889 150.557 420.31C166.662 422.395 181.496 429.007 194.581 438.586C196.619 440.158 198.859 441.959 200.923 443.451C194.922 429.704 179.739 417.827 164.33 418.223ZM130.56 420.187C113.105 422.508 99.1919 431.029 91.9037 447.353C94.5148 445.22 97.4544 442.703 100.185 440.804C107.418 435.894 112.033 433.37 120.426 430.457C125.315 428.759 131.525 427.858 135.678 425.252C138.048 423.766 139.617 422.631 142.233 421.462L142.207 420.791C139.818 419.695 133.175 419.825 130.56 420.187ZM144.368 423.395C126.511 432.978 118.742 450.771 126.268 470.083C127.213 468.767 127.348 466.328 127.641 464.652C130.01 451.086 134.449 436.849 143.699 426.321C144.695 425.187 145.298 425.116 145.527 423.642L144.368 423.395ZM149.341 425.408C135.19 436.221 131.885 458.49 129.445 474.745C129.191 476.437 128.519 477.56 126.777 477.509C122.833 474.221 121.462 465.094 121.043 460.205C120.061 448.718 123.034 440.276 129.322 430.942C113.414 434.873 98.1111 444.054 87.5356 456.599C95.4133 456.31 103.013 456.418 109.185 462.122C111.896 464.627 117.265 472.72 114.873 476.236C111.55 476.653 110.551 474.17 107.409 472.926C102.235 470.876 97.5469 469.922 92.0783 469.22C93.8254 470.886 95.1563 472.062 96.6406 473.991C100.702 479.995 102.006 482.716 104.065 489.706L103.943 489.544C115.97 500.805 125.786 508.797 140.01 517.327C146.837 521.422 155.944 525.911 162.238 530.341C170.393 528.276 176.968 523.696 185.132 521.086C182.038 510.635 175.17 494.505 171.563 484.176C167.911 473.723 155.749 432.4 149.341 425.408ZM51.1768 453.071C46.4781 454.167 43.4083 455.127 39.144 457.477C49.2826 457.504 58.7102 458.398 67.9514 462.838C69.4729 464.152 70.779 465.61 72.7064 465.921L73.6023 465.416C73.9709 464.032 73.7201 463.178 73.004 461.963C68.2252 453.855 59.6626 452.61 51.1768 453.071ZM90.9569 459.692C84.1288 460.488 80.2528 460.333 77.553 467.194L78.2289 467.66C82.676 465.821 96.0476 466.554 100.897 467.675C105.131 468.913 107.432 469.819 111.507 471.573C106.741 462.111 101.482 459.501 90.9569 459.692ZM79.9783 470.171C80.8804 472.196 95.2407 482.063 98.2363 484.393C96.8669 479.001 92.6256 474.143 88.2674 470.876C85.4726 470.472 82.8 469.967 79.9783 470.171ZM79.7526 474.923C77.4783 477.542 77.1249 478.727 77.6271 482.517C80.8587 506.903 103.409 532.299 120.695 547.838C127.481 543.842 134.687 539.446 141.718 535.999C146.914 533.679 150.726 532.357 156.306 530.996C142.465 522.897 128.881 515.303 116.462 505.058C104.321 495.041 93.4182 482.93 79.7526 474.923ZM185.883 524.046C181.548 525.823 176.406 527.782 172.219 529.745C175.437 529.953 178.213 530.053 181.376 530.727C184.245 531.445 187.172 532.14 190.012 532.952C189.199 530.88 187.286 525.374 185.883 524.046ZM167.196 533.21C154.082 534.305 146.235 536.682 134.96 543.683C148.027 543.572 161.009 543.663 174.074 543.751L205.444 543.49C194.827 538.002 179.456 531.924 167.196 533.21Z" fill="url(#paint0_linear_2293_69327)"/>
<path d="M344.77 463.704C345.314 455.181 347.277 447.58 349.173 439.369C370.501 347.086 460.484 285.885 554.219 300.391C591.142 306.104 633.921 326.174 659.164 354.219L658.509 354.267C652.099 354.694 630.201 352.484 627.473 358.112C629.537 365.529 666.633 361.648 674.79 365.518C675.614 366.136 675.809 366.215 676.501 366.965C645.125 367.22 613.733 366.129 582.383 367.295C578.824 367.427 574.728 367.701 574.764 371.923C577.607 377.615 586.904 376.311 592.421 377.388C575.614 378.784 557.995 376.807 541.133 378.091C538.83 378.267 536.411 379.046 534.534 380.41L534.04 381.466C535.913 385.633 542.885 385.793 546.993 386.256C562.861 388.046 579.003 387.775 594.961 387.809L595.381 388.705L594.839 389.443C593.356 391.44 592.84 391.596 590.311 391.839C584.74 392.366 579.094 392.245 573.518 392.645C542.712 394.855 511.73 393.801 480.88 394.683C477.634 394.776 470.929 395.082 470.903 399.376C474.452 403.903 502 402.558 508.647 402.59L557.63 402.477C575.515 402.298 589.253 401.81 607.009 403.517L606.274 403.662C595.477 405.698 574.206 402.623 567.806 408.962C564.801 418.63 604.651 413.565 609.881 413.135L664.449 408.884C672.813 408.257 690.48 406.756 698.391 407.11C710.547 432.548 711.411 440.373 715.959 466.695C716.102 471.18 716.246 475.425 716.155 479.92C672.815 480.797 629.399 481.141 586.162 484.491C573.588 485.465 561.283 488.172 549.277 491.93C545.945 492.785 543.187 494.237 539.668 493.801C517.68 491.076 495.916 485.2 474.59 479.359C462.197 475.965 449.751 471.112 437.278 468.507C407.374 462.263 375.213 463.311 344.77 463.704ZM640.081 433.095C635.106 435.275 634.251 435.955 630.685 440.064C627.671 436.448 625.233 433.85 620.259 433.188C616.332 432.665 610.799 435.064 609.675 439.038L610.329 439.382C616.002 436.726 620.123 434.843 625.451 439.161C627.284 441.581 629.08 443.961 630.855 446.427C636.278 437.149 641.773 433.091 651.884 439.72L655.42 442.077C651.121 435.449 648.537 432.235 640.081 433.095Z" fill="url(#paint1_linear_2293_69327)"/>
<path d="M270.588 324.185C264.11 316.5 257.488 310.676 246.576 311.212C244.224 311.327 239.436 313.118 237.93 311.48C239.032 309.917 242.973 309.061 244.898 308.594C256.231 307.547 262.207 311.281 270.267 318.471C275.684 313.348 280.185 310.381 287.73 308.877C292.578 307.911 301.312 308.119 305.359 310.941L304.785 311.396C301.958 311.943 299.06 311.373 296.19 310.997C284.576 310.803 276.967 314.227 270.588 324.185Z" fill="url(#paint2_linear_2293_69327)"/>
<path d="M328.966 354.347C335.045 348.52 338.258 347.617 346.291 346.12C348.875 345.947 353.702 345.557 355.909 346.74L355.669 347.474C354.334 348.258 349.459 348.034 347.416 348.303C337.853 349.561 334.529 352.231 328.817 359.004C321.934 351.267 318.376 349.274 307.884 349.537C304.752 350.051 299.252 352.61 297.307 352.039L297.154 351.517C299.141 349.699 306.07 347.464 308.767 347.245C316.981 346.577 322.876 349.623 328.966 354.347Z" fill="#41394D"/>
<path d="M659.162 354.219C661.419 354.384 663.372 354.532 665.647 354.544C676.148 354.731 730.58 355.383 734.74 363.514C732.929 372.937 699.144 372.99 690.749 373.865C688.78 374.07 683.104 374.122 681.598 374.724L679.159 374.99C674.775 374.911 672.034 374.919 667.695 375.325L667.5 375.546C671.246 376.009 673.868 376.213 677.68 375.94L679.443 377.64C677.696 380.348 676.483 380.919 672.928 381.521C660.684 383.595 647.206 384.282 634.75 385.021C621.802 385.79 607.742 387.466 594.959 387.809C579.001 387.775 562.86 388.046 546.992 386.256C542.884 385.793 535.912 385.633 534.039 381.466L534.532 380.41C536.409 379.046 538.828 378.267 541.131 378.091C557.993 376.807 575.612 378.784 592.419 377.388C586.902 376.311 577.606 377.615 574.763 371.923C574.727 367.701 578.822 367.427 582.381 367.295C613.731 366.129 645.124 367.22 676.5 366.965C683.236 366.681 690.586 367.286 697.081 366.621C689.125 365.242 682.802 365.086 674.789 365.518C666.632 361.648 629.535 365.529 627.471 358.112C630.199 352.484 652.098 354.694 658.508 354.267L659.162 354.219Z" fill="#E6DFD5"/>
<path d="M830.78 381.218C837.387 371.947 840.576 368.425 851.374 364.595C859.184 363.89 861.701 364.841 867.526 369.556C856.533 365.829 848.678 366.814 840.048 374.992C836.929 377.948 834.897 381.628 832.023 384.805C831.682 384.904 831.342 385.003 831.002 385.101C826.448 382.085 823.119 376.789 818.528 373.559C814.879 370.992 813.986 370.614 810.311 369.25C802.595 367.197 799.471 368.147 792.066 370.264C807.545 358.402 820.456 369.607 830.78 381.218Z" fill="#41394D"/>
<path d="M674.789 365.518C682.802 365.086 689.125 365.242 697.081 366.621C690.586 367.286 683.236 366.681 676.5 366.965C675.808 366.215 675.613 366.136 674.789 365.518Z" fill="#FDE4CF"/>
<path d="M242.922 408.669L245.385 407.768L245.197 406.896C242.118 404.945 239.449 404.426 236.29 403.017C227.599 399.142 220.747 396.567 211.105 398.815C203.448 400.601 193.442 405.456 188.823 412.161C187.645 413.872 187.516 415.04 186.047 416.769L186.338 417.559C187.426 417.612 188.106 417.645 189.191 417.585L189.895 418.155C188.367 418.631 187.442 419.111 185.907 418.733L185.371 417.713C186.189 409.516 197.11 403.067 203.954 400.109C218.161 393.971 228.562 398.655 241.839 404.28C235.378 395.287 223.347 382.295 213.398 377.701C209.471 375.888 204.519 374.861 200.703 372.739L200.578 371.833C204.309 366.258 228.588 371.616 234.34 375.479C245.941 383.271 247.888 388.366 251.289 401.192C266.687 367.857 306.902 388.45 305.272 395.149C303.367 395.89 300.086 395.507 297.938 395.236C282.2 393.247 265.098 402.382 253.237 412.293C265.778 409.631 271.774 402.69 286.252 410.714C297.247 416.808 302.174 426.215 305.629 437.964C306.071 439.464 306.649 441.273 305.845 442.709L304.826 442.817C302.764 441.528 300.36 437.777 298.544 435.719C287.894 423.651 275.626 419.265 260.215 417.798C269.321 424.952 275.296 431.327 274.703 443.743C274.467 448.673 272.449 465.529 266.048 465.106C264.987 463.655 264.166 454.818 263.736 452.143C262.607 445.118 255.764 417.993 247.164 417.195L246.934 416.945L247.291 416.497C247.101 415.866 246.452 412.057 246.477 411.465L242.922 408.669ZM211.481 373.153C225.515 379.795 233.525 388.628 243.342 400.625C244.811 402.42 247.379 407.255 249.241 407.28C249.457 403.083 247.883 398.126 246.542 394.145C242.036 380.765 225.09 372.415 211.481 373.153ZM272.498 386.564C258.913 390.176 255.783 397.84 251.575 409.81C256.213 406.084 261.2 402.359 266.415 399.469C277.353 393.805 284.539 391.883 297.054 391.457C288.163 387.017 282.523 385.75 272.498 386.564ZM269.572 409.698C259.854 410.191 262.922 411.681 254.829 414.538C256.692 414.958 261.122 414.456 263.625 414.775C273.325 416.008 282.901 418.9 290.993 424.433C294.559 426.967 296.432 428.679 299.666 431.685C293.928 417.94 284.548 410.747 269.572 409.698ZM253.748 417.925C263.63 426.289 266.53 454.35 268.609 456.434L269.459 454.995C273.483 441.11 271.937 430.218 259.154 421.312C257.866 420.414 255.127 418.444 253.748 417.925Z" fill="#41394D"/>
<path d="M249.242 407.278C247.38 407.253 244.812 402.418 243.343 400.623C233.526 388.626 225.516 379.793 211.482 373.151C225.091 372.413 242.037 380.763 246.543 394.143C247.884 398.124 249.458 403.081 249.242 407.278Z" fill="#FFCFD2"/>
<path d="M677.68 375.938C673.868 376.211 671.246 376.007 667.5 375.544L667.695 375.323C672.034 374.917 674.775 374.909 679.159 374.988L677.68 375.938Z" fill="#FDE4CF"/>
<path d="M679.161 374.989L681.6 374.723C685.666 377.352 696.433 393.594 697.009 398.612C695.668 398.506 694.891 398.342 693.583 398.102C690.598 390.986 684.33 383.64 679.445 377.639L677.682 375.939L679.161 374.989Z" fill="#41394D"/>
<path d="M679.445 377.641C684.33 383.642 690.598 390.988 693.583 398.104C679.801 396.544 658.173 398.322 643.086 397.499L638.934 396.161C644.169 396.137 660.682 394.545 663.615 390.315L663.199 389.709C658.183 388.082 648.854 388.714 643.253 388.703L612.495 388.567C607.334 388.591 600.91 389.07 595.955 388.748L595.381 388.706L594.961 387.81C607.744 387.467 621.804 385.791 634.752 385.022C647.208 384.283 660.686 383.596 672.93 381.522C676.485 380.92 677.698 380.349 679.445 377.641Z" fill="#FCD196"/>
<path d="M251.576 409.809C255.784 397.839 258.914 390.175 272.499 386.563C282.524 385.749 288.164 387.016 297.055 391.456C284.54 391.882 277.354 393.804 266.416 399.468C261.201 402.358 256.214 406.083 251.576 409.809Z" fill="#FFCFD2"/>
<path d="M607.009 403.517C589.253 401.81 575.514 402.298 557.629 402.477L508.646 402.59C501.999 402.558 474.451 403.903 470.902 399.376C470.928 395.082 477.633 394.776 480.879 394.683C511.729 393.801 542.711 394.855 573.517 392.645C579.093 392.245 584.739 392.366 590.31 391.839C592.839 391.596 593.355 391.44 594.838 389.443L595.38 388.705L595.954 388.747C600.909 389.069 607.333 388.59 612.494 388.566L643.252 388.702C648.853 388.713 658.182 388.081 663.198 389.708L663.614 390.314C660.681 394.544 644.168 396.136 638.933 396.16C637.094 396.279 635.452 396.286 633.688 396.832C635.796 397.79 640.611 397.541 643.085 397.498C658.172 398.321 679.8 396.543 693.582 398.103C694.89 398.343 695.667 398.507 697.008 398.613C702.331 399 714.242 399.206 718.342 402.415L718.279 403.274C714.429 405.857 705.337 405.922 700.539 406.638L698.39 407.11C690.479 406.756 672.813 408.257 664.449 408.884L609.88 413.135C604.65 413.565 564.8 418.63 567.805 408.962C574.205 402.623 595.476 405.698 606.273 403.662L607.009 403.517Z" fill="#E6DFD5"/>
<path d="M156.501 407.199C154.377 409.331 151.897 412.298 149.899 414.6L149.229 414.497C149.042 414.214 148.753 413.837 148.745 413.49C148.436 399.677 158.524 393.564 170.114 390.558C176.411 390.187 179.578 390.417 185.816 391.396C173.366 395.06 166.501 398.715 156.501 407.199Z" fill="#FFCFD2"/>
<path d="M643.085 397.498C640.611 397.541 635.796 397.79 633.688 396.832C635.452 396.286 637.093 396.279 638.932 396.16L643.085 397.498Z" fill="#FDE4CF"/>
<path d="M190.014 415.233C203.778 396.2 224.34 397.967 242.923 408.668L246.478 411.464C242.36 411.255 237.137 409.841 232.099 409.746C218.109 409.485 203.516 411.844 190.014 415.233Z" fill="#FFCFD2"/>
<path d="M94.2344 408.833C101.005 403.915 107.456 402.026 115.744 401.18C128.213 400.5 143.173 408.641 147.589 420.601C142.983 417.631 138.863 414.842 133.919 412.442C120.032 406.737 109.06 405.481 94.2344 408.833Z" fill="#FFCFD2"/>
<path d="M742.584 409.339C745.218 406.214 746.394 404.966 750.02 403.116C752.029 402.916 755.943 402.381 757.589 403.478L757.24 404.021L756.419 403.999C748.278 403.856 748.151 407.158 742.474 412.69C740.023 410.175 738.735 408.686 735.769 406.795C732.905 405.425 731.577 405.661 728.91 404.463L729.005 403.956C735.544 402.143 738.135 405.09 742.584 409.339Z" fill="#41394D"/>
<path d="M698.391 407.109L700.54 406.637C707.888 409.719 719.289 456.628 719.018 465.418C717.504 469.779 720.401 476.111 718.266 479.476C715.272 477.877 718.84 469.863 715.959 466.694C711.411 440.372 710.547 432.547 698.391 407.109Z" fill="#554948"/>
<path d="M290.994 424.43C282.902 418.897 273.326 416.005 263.626 414.772C261.123 414.453 256.693 414.955 254.83 414.535C262.923 411.678 259.855 410.188 269.573 409.695C284.549 410.744 293.929 417.937 299.667 431.682C296.433 428.676 294.56 426.964 290.994 424.43Z" fill="#FFCFD2"/>
<path d="M93.5918 412.225C109.441 407.239 122.114 410.777 136.666 416.888C117.626 417.359 103.714 423.819 92.7464 439.617C89.2734 435.601 96.5547 420.786 93.5918 412.225Z" fill="#FFCFD2"/>
<path d="M150.557 420.311C155.718 418.89 158.997 418.621 164.33 418.224C179.739 417.828 194.922 429.705 200.923 443.452C198.859 441.96 196.619 440.159 194.581 438.587C181.496 429.008 166.662 422.396 150.557 420.311Z" fill="#FFCFD2"/>
<path d="M269.459 454.992L268.609 456.431C266.53 454.347 263.63 426.286 253.748 417.922C255.127 418.441 257.866 420.411 259.154 421.309C271.937 430.215 273.483 441.107 269.459 454.992Z" fill="#FFCFD2"/>
<path d="M91.9023 447.352C99.1905 431.028 113.104 422.507 130.559 420.186C133.174 419.824 139.817 419.694 142.206 420.79L142.232 421.461C139.616 422.63 138.047 423.765 135.677 425.251C131.524 427.857 125.314 428.758 120.425 430.456C112.032 433.369 107.417 435.893 100.184 440.803C97.453 442.702 94.5134 445.219 91.9023 447.352Z" fill="#FFCFD2"/>
<path d="M126.268 470.083C118.742 450.771 126.511 432.978 144.368 423.395L145.527 423.642C145.298 425.116 144.695 425.187 143.699 426.321C134.449 436.849 130.01 451.086 127.641 464.652C127.348 466.328 127.213 468.767 126.268 470.083Z" fill="#FFCFD2"/>
<path d="M129.322 430.94C123.034 440.274 120.061 448.716 121.043 460.203C121.462 465.092 122.833 474.219 126.777 477.507C128.519 477.558 129.191 476.435 129.445 474.743C131.885 458.488 135.19 436.219 149.341 425.406C155.749 432.398 167.911 473.721 171.563 484.174C175.17 494.503 182.038 510.633 185.132 521.084C176.968 523.694 170.393 528.274 162.238 530.339C155.944 525.909 146.837 521.42 140.01 517.325C125.786 508.795 115.97 500.803 103.943 489.542L104.065 489.704C102.006 482.714 100.702 479.993 96.6402 473.989C95.1559 472.06 93.825 470.884 92.0779 469.218C97.5465 469.92 102.235 470.874 107.409 472.924C110.551 474.168 111.55 476.651 114.873 476.234C117.265 472.718 111.896 464.625 109.185 462.12C103.013 456.416 95.4129 456.308 87.5352 456.597C98.1107 444.052 113.414 434.871 129.322 430.94Z" fill="#FDE4CF"/>
<path d="M780.984 441.61C785.879 435.573 788.611 431.83 796.358 429.553C800.645 429.455 803.131 429.554 806.027 432.962L805.741 433.525L803.376 432.867C789.666 428.965 785.761 443.934 781.969 445.271C778.133 443.483 775.374 439.664 769.351 436.655C763.641 434.574 763.179 436.097 758.795 435.195L759.169 434.583C767.044 430.61 775.347 436.329 780.984 441.61Z" fill="#41394D"/>
<path d="M630.684 440.063C634.25 435.954 635.105 435.274 640.08 433.094C648.536 432.234 651.12 435.448 655.419 442.076L651.884 439.719C641.773 433.09 636.277 437.148 630.854 446.426C629.079 443.96 627.283 441.58 625.45 439.16C620.122 434.842 616.002 436.725 610.329 439.381L609.674 439.037C610.798 435.063 616.331 432.664 620.258 433.187C625.232 433.849 627.67 436.447 630.684 440.063Z" fill="#554948"/>
<path d="M937.47 449.571C942.222 444.211 945.213 440.853 951.537 437.559C954.113 437.449 959.427 437.513 961.013 439.738C946.345 438.499 948.438 444.08 938.618 452.763C937.514 453.739 931.134 446.95 930.102 445.925C926.93 443.32 922.836 442.484 921.303 440.865C927.231 438.036 934.093 445.823 937.47 449.571Z" fill="#41394D"/>
<path d="M39.1426 457.478C43.4069 455.128 46.4767 454.168 51.1754 453.072C59.6612 452.611 68.2238 453.856 73.0026 461.964C73.7187 463.179 73.9695 464.033 73.6009 465.417L72.705 465.922C70.7776 465.611 69.4715 464.153 67.95 462.839C58.7088 458.399 49.2812 457.505 39.1426 457.478Z" fill="#FDE4CF"/>
<path d="M100.897 467.676C96.0473 466.555 82.6757 465.822 78.2286 467.661L77.5527 467.195C80.2525 460.334 84.1285 460.489 90.9566 459.693C101.482 459.502 106.741 462.112 111.507 471.574C107.432 469.82 105.131 468.914 100.897 467.676Z" fill="#FFCFD2"/>
<path d="M190.037 522.362C199.264 516.704 218.424 511.183 229.19 506.743C257.548 495.047 289.576 473.973 320.34 469.881C355.649 465.185 413.597 463.733 447.392 474.789C447.648 474.979 447.905 475.17 448.161 475.36C464.59 481.733 482.583 485.726 499.568 490.584C503.829 491.803 508.92 492.485 512.894 493.869C513.519 494.087 516.451 498.8 516.838 499.708C509.832 505.362 462.896 515.634 458.327 520.566C455.689 521.496 452.924 522.275 450.241 523.084C427.792 529.856 405.73 536.679 382.245 538.594C342.21 541.859 302.081 541.153 261.995 543.209C246.863 543.985 231.717 545.093 216.59 545.992C209.961 541.798 201.027 536.974 193.592 534.174C192.219 530.176 190.869 526.529 190.037 522.362Z" fill="#B9FBC0"/>
<path d="M68.0935 467.141C69.8165 468.347 70.3251 468.798 71.8013 470.301C70.5827 471.533 70.3969 472.022 68.877 472.638C59.8808 471.662 43.2894 481.996 35.7598 486.724C42.9859 473.499 53.9479 469.501 68.0935 467.141Z" fill="#FFCFD2"/>
<path d="M71.8013 470.301C72.8605 471.586 72.1943 471.118 73.9987 471.539L70.9014 474.414C70.2559 473.32 69.994 473.328 68.877 472.638C70.3969 472.022 70.5827 471.533 71.8013 470.301Z" fill="#41394D"/>
<path d="M98.2365 484.394C95.2409 482.064 80.8806 472.197 79.9785 470.172C82.8002 469.968 85.4728 470.473 88.2676 470.877C92.6258 474.144 96.8671 479.002 98.2365 484.394Z" fill="#FFCFD2"/>
<path d="M73.9974 471.539L75.4438 472.164C75.7121 473.055 75.9605 473.443 75.2099 474.29C66.8994 483.67 64.1281 495.381 62.4522 508.154C59.4302 494.24 61.2268 485.103 70.9001 474.414L73.9974 471.539Z" fill="#FFCFD2"/>
<path d="M120.696 547.837C103.41 532.298 80.859 506.902 77.6274 482.516C77.1252 478.726 77.4786 477.541 79.7529 474.922C93.4185 482.929 104.322 495.04 116.463 505.057C128.882 515.302 142.466 522.896 156.307 530.995C150.727 532.356 146.915 533.678 141.719 535.998C134.688 539.445 127.482 543.841 120.696 547.837Z" fill="#FDE4CF"/>
<path d="M447.393 474.789C455.59 476.592 465.135 480.083 473.421 482.513C494.275 488.628 511.952 492.907 533.269 496.478C510.678 503.365 488.279 510.751 465.857 518.168C463.383 518.986 460.836 519.894 458.328 520.566C462.897 515.634 509.833 505.362 516.839 499.708C516.452 498.8 513.52 494.087 512.895 493.869C508.921 492.485 503.83 491.803 499.569 490.584C482.584 485.726 464.591 481.733 448.162 475.36C447.906 475.17 447.649 474.979 447.393 474.789Z" fill="#69FE6A"/>
<path d="M121.658 552.284C123.595 549.8 127.545 547.15 130.746 547.132C154.962 547 179.247 546.539 203.459 546.588C209.411 546.6 214.755 549.352 221.404 549.022C241.983 547.999 262.52 546.507 283.116 545.807C324.431 544.023 367.11 546.053 407.903 538.405C424.131 535.363 441.471 529.318 457.293 524.497C482.39 516.849 507.206 507.969 532.394 500.552C564.315 489.431 588.263 486.612 621.981 485.703C648.299 484.993 674.87 483.727 701.449 483.477C751.876 483.003 802.506 481.928 852.94 483.913C871.815 484.58 890.275 484.833 909.114 486.936C909.29 489.98 909.495 493.062 909.637 496.104C901.359 494.486 892.79 496.505 884.473 497.774C858.204 501.78 838.916 504.863 812.9 496.845C829.672 509.274 855.502 506.311 874.817 503.435L880.24 502.619C880.674 511.121 877.192 512.533 875.475 518.472C853.855 518.875 829.961 518.491 808.749 521.732C793.268 524.098 778.943 532.832 763.975 535.772C757.853 536.975 746.857 535.951 739.88 536.109C759.675 547.036 774.003 538.387 792.733 530.488C799.154 527.78 805.446 526.817 812.11 525.406C838.736 519.769 886.366 529.004 910.212 517.783C909.41 580.25 896.104 640.643 867.762 696.361C860.449 710.739 850.616 730.012 840.49 742.459C767.001 748.898 696.624 727.128 626.299 708.686C599.125 701.559 568.828 694.822 543.03 684.716C522.046 674.703 490.261 664.449 470.562 653.07C424.533 626.48 383.072 613.766 329.56 613.491C315.127 613.238 299.026 610.431 284.741 610.878C234.328 612.457 185.864 613.233 138.357 631.771C133.704 615.566 131.287 601.052 128.137 584.617C126.862 577.966 124.146 556.876 121.658 552.284ZM344.506 552.262C342.31 552.024 338.73 551.381 336.903 552.508C338.512 553.3 340.393 553.252 342.219 553.37C368.01 559.249 405.664 565.625 422.43 539.127C397.244 556.799 374.18 556.872 344.506 552.262ZM228.025 566.698C223.5 567.233 219.129 568.378 214.905 569.725C193.909 576.42 173.43 582.068 151.1 580.475C147.286 580.203 142.328 580.37 138.409 580.704C165.439 586.671 186.08 585.355 211.842 575.214C214.991 573.975 226.686 569.787 228.546 568.309C232.28 567.458 238.932 570.383 243.253 571.36C262.936 575.81 291.228 575.03 308.768 564.122C288.227 567.258 269.793 570.446 249.039 566.735C243.206 565.693 223.996 559.934 219.776 561.72L219.848 562.574C221.945 564.351 225.404 565.575 228.025 566.698ZM473.447 583.681C469.383 583.016 466.338 582.553 462.248 582.261C465.153 583.166 468.501 584.306 471.423 584.923C503.268 592.829 558.195 597.576 587.164 581.311C600.694 573.579 614.283 562.508 629.787 559.169C650.156 554.783 672.358 560.824 692.293 553.193C694.742 552.256 700.316 549.213 701.27 546.798C699.339 546.475 693.88 548.895 691.537 549.43C668.884 554.604 646.858 549.909 624.161 556.035C608.261 560.327 598.286 570.954 584.605 577.43C552.114 592.809 507.954 588.102 473.447 583.681ZM781.526 496.153C771.549 498.37 761.689 502.064 751.607 503.364C738.158 504.986 724.522 504.635 711.126 506.768C700.348 508.483 690.214 512.584 679.75 515.454C660.296 520.789 640.658 522.504 621.465 515.335L621.094 515.533C622.153 516.485 622.542 516.845 623.747 517.665C652.263 533.651 681.191 518.518 709.145 512.027C728.098 507.626 766.96 512.956 781.753 496.997C781.626 496.204 781.82 496.421 781.526 496.153ZM580.59 517.696C558.692 519.912 538.631 532.007 519.987 542.799C495.689 556.864 473.324 556.421 446.763 550.079C450.787 552.285 453.14 553.45 457.375 555.17C498.354 569.033 520.657 544.83 555.004 529.583C561.988 526.482 582.244 521.846 586.668 518.767L586.63 518.244C584.39 517.62 582.952 517.414 580.59 517.696ZM821.833 553.204C798.305 555.451 770.074 567.167 749.705 579.166C763.628 577.057 772.691 571.504 785.56 566.476C793.512 563.369 803.718 560.217 812.119 558.741C827.794 556.222 845.19 557.525 860.822 560.314C867.026 561.42 885.962 570.473 889.241 569.916L889.334 569.359C868.093 555.754 847.04 551.113 821.833 553.204ZM898.561 575.999C872.896 584.648 846.041 598.606 819.596 601.244C785.624 604.609 754.343 595.331 720.375 602.554C686.693 609.715 661.083 630.103 626.447 634.035C585.21 638.716 547.173 619.192 506.345 625.155C501.136 625.915 493.38 627.391 489.091 630.5L488.969 631.188L490.12 631.221C501.576 629.743 517.682 627.699 528.93 628.666C560.497 631.378 588.072 641.384 620.395 639.7C658.053 637.738 685.592 614.699 721.531 607.112C759.44 598.936 796.413 612.386 833.767 603.134C845.67 600.185 893.336 584.981 899.221 576.784C898.79 576.042 899.07 576.239 898.561 575.999ZM267.66 586.7C279.787 591.474 310.973 588.915 324.962 590.212C337.399 591.365 347.648 594.381 359.477 596.95C378.649 601.114 414.355 602.386 432.726 596.099L433.31 595.317C432.49 595.116 420.787 595.753 419.052 595.899C390.355 598.313 363.847 594.178 335.886 588.123C329.214 586.678 320.008 586.445 313.174 586.343C305.265 586.538 297.229 587.443 289.281 587.551C282.714 587.64 274.012 586.265 267.66 586.7ZM874.666 652.458C856.922 658.761 836.54 667.785 817.703 668.254C795.966 668.794 778.529 666.623 756.676 670.575C727.438 675.863 699.331 689.201 669.36 687.395C667.28 687.249 665.904 686.425 663.861 687.002C664.685 688.204 665.598 688.493 666.907 689.157C689.048 695.813 711.42 686.957 732.798 681.191C743.811 678.223 754.731 675.93 766 674.281C787.453 671.143 809.402 676.055 830.589 671.632C840.398 669.585 868.92 661.236 875.317 653.79L875.43 652.832L874.666 652.458ZM835.428 705.474C819.068 711.909 807.11 715.713 788.761 713.385C786.525 713.102 779.315 711.314 778.222 712.684C779.05 713.528 778.875 713.437 779.852 714.065C789.408 718.037 803.396 717.579 813.453 715.99C818.291 715.226 834.374 710.683 836.376 705.983C835.613 705.473 835.958 705.571 835.428 705.474Z" fill="#64EACC"/>
<path d="M812.9 496.847C838.916 504.865 858.204 501.782 884.473 497.776C892.79 496.507 901.359 494.488 909.637 496.106L909.397 496.674C900.941 500.206 889.259 500.935 880.24 502.621L874.817 503.437C855.502 506.313 829.672 509.276 812.9 496.847Z" fill="#E6DFD5"/>
<path d="M623.749 517.664C622.544 516.844 622.155 516.484 621.096 515.532L621.467 515.334C640.66 522.503 660.298 520.788 679.752 515.453C690.216 512.583 700.35 508.482 711.128 506.767C724.524 504.634 738.16 504.985 751.609 503.363C761.691 502.063 771.551 498.369 781.528 496.152C781.822 496.42 781.628 496.203 781.755 496.996C766.962 512.955 728.1 507.625 709.147 512.026C681.193 518.517 652.265 533.65 623.749 517.664Z" fill="#EFFCF0"/>
<path d="M880.242 502.619C889.261 500.933 900.943 500.204 909.399 496.672C910.63 500.218 909.668 510.377 910.325 515.34C898.21 517.106 887.801 518.679 875.477 518.472C877.194 512.533 880.676 511.121 880.242 502.619Z" fill="#98F5E1"/>
<path d="M875.476 518.472C887.8 518.679 898.209 517.106 910.324 515.34L910.213 517.783C886.367 529.004 838.737 519.769 812.111 525.406C805.447 526.817 799.155 527.78 792.734 530.488C774.004 538.387 759.676 547.036 739.881 536.109C746.858 535.951 757.854 536.975 763.976 535.772C778.944 532.832 793.269 524.098 808.75 521.732C829.962 518.491 853.856 518.875 875.476 518.472Z" fill="#EFFCF0"/>
<path d="M446.764 550.081C473.325 556.423 495.69 556.866 519.988 542.801C538.632 532.009 558.693 519.914 580.591 517.698C582.953 517.416 584.391 517.622 586.631 518.246L586.669 518.769C582.245 521.848 561.989 526.484 555.005 529.585C520.658 544.832 498.355 569.035 457.376 555.172C453.141 553.452 450.788 552.287 446.764 550.081Z" fill="#EFFCF0"/>
<path d="M172.219 529.746C176.406 527.783 181.548 525.824 185.883 524.047C187.286 525.375 189.199 530.881 190.012 532.953C187.172 532.141 184.245 531.446 181.376 530.728C178.213 530.054 175.437 529.954 172.219 529.746Z" fill="#FDE4CF"/>
<path d="M134.961 543.682C146.236 536.681 154.083 534.304 167.197 533.209C179.457 531.923 194.828 538.001 205.445 543.489L174.075 543.75C161.01 543.662 148.028 543.571 134.961 543.682Z" fill="#98F5E1"/>
<path d="M342.221 553.372L342.352 552.873L344.508 552.264C374.182 556.874 397.246 556.801 422.432 539.129C405.666 565.627 368.012 559.251 342.221 553.372Z" fill="#EFFCF0"/>
<path d="M471.424 584.924C471.934 584.547 472.872 584.027 473.448 583.682C507.955 588.103 552.115 592.81 584.606 577.431C598.287 570.955 608.262 560.328 624.162 556.036C646.859 549.91 668.885 554.605 691.538 549.431C693.881 548.896 699.34 546.476 701.271 546.799C700.317 549.214 694.743 552.257 692.294 553.194C672.359 560.825 650.157 554.784 629.788 559.17C614.284 562.509 600.695 573.58 587.165 581.312C558.196 597.577 503.269 592.83 471.424 584.924Z" fill="#EFFCF0"/>
<path d="M344.507 552.262L342.351 552.871L342.22 553.37C340.394 553.252 338.513 553.3 336.904 552.508C338.731 551.381 342.311 552.024 344.507 552.262Z" fill="#DAFCF2"/>
<path d="M749.705 579.168C770.074 567.169 798.305 555.453 821.833 553.206C847.04 551.115 868.093 555.756 889.334 569.361L889.241 569.918C885.962 570.475 867.026 561.422 860.822 560.316C845.19 557.527 827.794 556.224 812.119 558.743C803.718 560.219 793.512 563.371 785.56 566.478C772.691 571.506 763.628 577.059 749.705 579.168Z" fill="#EFFCF0"/>
<path d="M228.026 566.698C225.405 565.575 221.946 564.351 219.849 562.574L219.777 561.72C223.997 559.934 243.207 565.693 249.04 566.735C269.794 570.446 288.228 567.258 308.769 564.122C291.229 575.03 262.937 575.81 243.254 571.36C238.933 570.383 232.281 567.458 228.547 568.309L228.026 566.698Z" fill="#EFFCF0"/>
<path d="M138.41 580.705C142.329 580.371 147.287 580.204 151.101 580.476C173.431 582.069 193.91 576.421 214.906 569.726C219.13 568.379 223.501 567.234 228.026 566.699L228.547 568.31C226.687 569.788 214.992 573.976 211.843 575.215C186.081 585.356 165.44 586.672 138.41 580.705Z" fill="#E6DFD5"/>
<path d="M490.122 631.222L488.971 631.189L489.093 630.501C493.382 627.392 501.138 625.916 506.347 625.156C547.175 619.193 585.212 638.717 626.449 634.036C661.085 630.104 686.695 609.716 720.377 602.555C754.345 595.332 785.626 604.61 819.598 601.245C846.043 598.607 872.898 584.649 898.563 576C899.072 576.24 898.792 576.043 899.223 576.785C893.338 584.982 845.672 600.186 833.769 603.135C796.415 612.387 759.442 598.937 721.533 607.113C685.594 614.7 658.055 637.739 620.397 639.701C588.074 641.385 560.499 631.379 528.932 628.667C517.684 627.7 501.578 629.744 490.122 631.222Z" fill="#EFFCF0"/>
<path d="M473.447 583.682C472.871 584.027 471.933 584.547 471.423 584.924C468.501 584.307 465.153 583.167 462.248 582.262C466.338 582.554 469.383 583.017 473.447 583.682Z" fill="#DAFCF2"/>
<path d="M432.726 596.1C414.355 602.387 378.649 601.115 359.477 596.951C347.648 594.382 337.399 591.366 324.962 590.213C310.973 588.916 279.787 591.475 267.66 586.701C274.012 586.266 282.714 587.641 289.281 587.552C297.229 587.444 305.265 586.539 313.174 586.344C320.008 586.446 329.214 586.679 335.886 588.124C363.847 594.179 390.355 598.314 419.052 595.9C420.787 595.754 432.49 595.117 433.31 595.318L432.726 596.1Z" fill="#EFFCF0"/>
<path d="M138.357 631.773C185.864 613.235 234.328 612.459 284.741 610.88C299.026 610.433 315.127 613.24 329.56 613.493C383.072 613.768 424.533 626.482 470.562 653.072C490.261 664.451 522.046 674.705 543.03 684.718C568.828 694.824 599.125 701.561 626.299 708.688C696.624 727.13 767.001 748.9 840.49 742.461C836.999 748.666 832.481 754.314 828.338 760.078C827.11 761.786 823.87 765.909 823.088 767.461C821.542 768.599 812.612 778.92 810.675 781.109C779.652 774.084 766.852 794.229 737.73 794.603C722.619 794.798 715.619 783.817 705.375 775.119C692.689 764.412 676.728 756.472 659.461 756.908C621.978 757.855 589.662 782.7 551.96 786.954C537.29 788.609 525.668 792.836 510.33 791.523C494.761 790.19 477.468 789.751 466.08 777.819C467.308 775.802 469.968 771.756 470.709 769.606C475.725 754.693 458.382 746.262 447.37 742.075C430.582 735.691 414.353 734.913 396.711 735.506C389.412 735.751 380.897 735.844 373.954 733.503C370.223 732.244 365.468 728.909 363.962 725.107C358.482 712.014 382.271 705.138 375.605 692.134C370.66 682.489 351.226 680.882 342.201 680.293C311.904 678.528 279.047 678.629 249.16 684.783C224.356 689.89 192.743 700.892 170.745 713.387C163.569 702.297 155.234 682.95 150.236 670.37C147.838 664.334 145.878 656.18 143.286 650.449C148.891 646.834 154.197 644.816 160.399 642.547C163.097 641.559 168.062 639.963 170.052 638.126L169.864 637.526C166.486 636.867 145.876 645.272 142.586 647.699C141.536 642.873 138.836 636.417 138.357 631.773ZM268.318 616.224C260.984 616.861 215.219 622.05 211.198 625.477C213.712 626.004 215.432 624.592 217.612 624.135C225.087 622.568 262.536 616.137 266.651 617.626C262.805 618.672 261.48 618.878 257.499 619.251C246.881 620.57 235.736 621.692 225.23 623.493C220.809 624.251 214.64 626.605 209.654 627.047L210.04 627.321C219.527 625.487 228.507 623.715 238.065 622.208C249.341 620.431 268.409 619.486 279.031 616.949C275.411 616.387 272.002 615.896 268.318 616.224ZM286.288 634.217C279.632 634.764 241.212 638.16 237.635 641.142L237.559 643.093C239.33 645.008 250.351 642.322 253.321 641.92C313.442 633.765 379.442 634.25 434.195 663.58C463.603 679.333 484.116 698.776 516.573 709.553C533.433 714.909 549.49 718.067 567.207 714.747C557.033 713.316 546.747 712.822 536.697 710.659C499.296 702.61 471.249 678.762 438.67 660.893C393.487 636.11 336.962 631.518 286.288 634.217ZM231.257 642.084C228.415 642.77 221.034 644.108 219.505 646.178L219.768 647.111C221.297 647.872 220.463 647.619 222.487 647.428C225.356 646.674 233.221 645.163 234.329 642.193C232.74 641.782 232.835 641.721 231.257 642.084ZM300.27 653.717C284.262 654.441 268.329 655.831 252.706 659.561C249.528 660.319 240.598 661.392 238.655 664.209L239.012 665.215C240.496 665.773 247.368 664.116 249.486 663.758C267.716 660.676 286.669 657.174 305.221 656.846C328.501 656.434 350.743 659.409 373.185 664.26C406.603 671.483 421.123 685.242 448.208 703.607C473.062 720.46 519.974 741.472 550.224 741.579C571.202 741.618 598.146 741.368 616.861 730.63C590.986 734.494 564.839 739.23 538.809 735.709C488.403 728.891 451.221 696.001 408.484 672.686C381.423 657.922 331.175 651.841 300.27 653.717ZM651.16 730.216C653.092 731.876 665.105 733.803 668.838 734.963C682.081 739.078 693.681 744.756 707.329 747.763C720.431 750.65 732.654 749.946 745.962 750.097C751.595 750.161 756.341 750.99 761.693 751.31C760.415 749.266 758.147 748.402 755.834 748.074C741.418 746.027 726.839 746.001 712.324 744.206C698.369 742.48 662.598 727.335 651.16 730.216ZM467.061 734.878C466.511 735.902 465.92 736.391 466.348 737.097C469.73 742.675 490.417 749.619 496.602 751.484C511.766 756.057 528.65 759.126 544.101 756.777L545.363 756.704L545.234 756.141C542.482 754.796 527.984 753.362 523.956 752.746C512.485 750.991 503.678 748.205 492.908 744.367C486.569 742.108 472.676 734.726 467.061 734.878ZM767.865 760.235L767.92 760.949C773.474 763.278 783.522 764.494 789.39 763.506L789.821 762.716C783.278 759.377 774.966 759.794 767.865 760.235ZM789.015 768.71C786.505 768.919 782.343 768.755 780.606 770.761C783.233 773.121 796.779 772.088 800.624 771.998C802.898 771.891 805.125 771.821 807.365 771.378L807.797 770.501C806.67 769.067 804.824 768.766 803.099 768.589C798.592 768.125 793.537 768.425 789.015 768.71ZM718.122 769.343C718.082 771.161 718.404 772.16 719.672 773.548C722.745 776.914 728.564 777.461 732.893 777.454C738.718 777.444 744.576 776.242 750.38 776.392C755.339 776.521 760.302 777.805 765.264 777.594L765.182 776.623C750.843 768.743 731.041 780.005 718.122 769.343Z" fill="#8EECF5"/>
<path d="M257.499 619.25C261.48 618.877 262.805 618.671 266.651 617.625C262.536 616.136 225.087 622.567 217.612 624.134C215.432 624.591 213.712 626.003 211.198 625.476C215.219 622.049 260.984 616.86 268.318 616.223C272.002 615.895 275.411 616.386 279.031 616.948C268.409 619.485 249.341 620.43 238.065 622.207C228.507 623.714 219.527 625.486 210.04 627.32L209.654 627.046C214.64 626.604 220.809 624.25 225.23 623.492C235.736 621.691 246.881 620.569 257.499 619.25Z" fill="#E6DFD5"/>
<path d="M516.575 709.55C484.118 698.773 463.605 679.33 434.197 663.577C379.444 634.247 313.444 633.762 253.323 641.917C250.353 642.319 239.332 645.005 237.561 643.09L237.637 641.139C241.214 638.157 279.634 634.761 286.29 634.214C336.964 631.515 393.489 636.107 438.672 660.89C471.251 678.759 499.298 702.607 536.699 710.656C546.749 712.819 557.035 713.313 567.209 714.744C549.492 718.064 533.435 714.906 516.575 709.55Z" fill="#EFFCF0"/>
<path d="M142.588 647.698C145.878 645.271 166.488 636.866 169.866 637.525L170.054 638.125C168.064 639.962 163.099 641.558 160.401 642.546C154.199 644.815 148.893 646.833 143.288 650.448L142.588 647.698Z" fill="#E6DFD5"/>
<path d="M222.488 647.427C220.464 647.618 221.298 647.871 219.769 647.11L219.506 646.177C221.035 644.107 228.416 642.769 231.258 642.083C232.836 641.72 232.741 641.781 234.33 642.192C233.222 645.162 225.357 646.673 222.488 647.427Z" fill="#E6DFD5"/>
<path d="M666.907 689.16C665.598 688.496 664.685 688.207 663.861 687.005C665.904 686.428 667.28 687.252 669.36 687.398C699.331 689.204 727.438 675.866 756.676 670.578C778.529 666.626 795.966 668.797 817.703 668.257C836.54 667.788 856.922 658.764 874.666 652.461L875.43 652.835L875.317 653.793C868.92 661.239 840.398 669.588 830.589 671.635C809.402 676.058 787.453 671.146 766 674.284C754.731 675.933 743.811 678.226 732.798 681.194C711.42 686.96 689.048 695.816 666.907 689.16Z" fill="#EFFCF0"/>
<path d="M550.225 741.579C519.975 741.472 473.063 720.46 448.209 703.607C421.124 685.242 406.604 671.483 373.186 664.26C350.744 659.409 328.502 656.434 305.222 656.846C286.67 657.174 267.717 660.676 249.487 663.758C247.369 664.116 240.497 665.773 239.013 665.215L238.656 664.209C240.599 661.392 249.529 660.319 252.707 659.561C268.33 655.831 284.263 654.441 300.271 653.717C331.176 651.841 381.424 657.922 408.485 672.686C451.222 696.001 488.404 728.891 538.81 735.709C564.84 739.23 590.987 734.494 616.862 730.63C598.147 741.368 571.203 741.618 550.225 741.579Z" fill="#EFFCF0"/>
<path d="M170.746 713.387C192.744 700.892 224.357 689.89 249.161 684.783C279.048 678.629 311.905 678.528 342.202 680.293C351.227 680.882 370.661 682.489 375.606 692.134C382.272 705.138 358.483 712.014 363.963 725.107C365.469 728.909 370.224 732.244 373.955 733.503C380.898 735.844 389.413 735.751 396.712 735.506C414.354 734.913 430.583 735.691 447.371 742.075C458.383 746.262 475.726 754.693 470.71 769.606C469.969 771.756 467.309 775.802 466.081 777.819C477.469 789.751 494.762 790.19 510.331 791.523C525.669 792.836 537.291 788.609 551.961 786.954C589.663 782.7 621.979 757.855 659.462 756.908C676.729 756.472 692.69 764.412 705.376 775.119C715.62 783.817 722.62 794.798 737.731 794.603C766.853 794.229 779.653 774.084 810.676 781.109C809.494 782.486 809.246 782.917 807.639 783.845C793.867 783.144 790.3 782.502 777.408 787.634C759.707 795.092 730.117 805.814 714.964 789.477C678.564 750.232 648.462 756.848 603.045 776.752C600.93 777.349 597.738 778.582 595.636 779.533C569.421 791.406 477.669 809.89 461.926 777.338C464.563 771.815 466.209 770.807 467.677 764.367C465.584 755.658 460.257 752.556 452.526 749.007C440.523 743.498 429.327 740.936 416.209 739.798C400.932 738.474 383.69 741.85 369.334 735.83C364.942 733.886 360.579 728.438 359.564 723.996C355.717 711.426 367.085 708.864 371.765 701.06C377.064 692.223 362.8 686.967 356.675 686.037C345.634 684.361 335.525 683.718 324.574 683.329C283.326 681.864 242.222 686.139 203.942 702.392C197.902 704.954 191.727 707.3 185.826 710.204C181.848 712.123 177.101 714.78 173.085 716.364L172.629 716.539C172.045 715.769 171.257 714.277 170.746 713.387Z" fill="#474D56"/>
<path d="M172.629 716.537L173.085 716.362C177.101 714.778 181.848 712.121 185.826 710.202C191.727 707.298 197.902 704.952 203.942 702.39C242.222 686.137 283.326 681.862 324.574 683.327C335.525 683.716 345.634 684.359 356.675 686.035C362.8 686.965 377.064 692.221 371.765 701.058C367.085 708.862 355.717 711.424 359.564 723.994C360.579 728.436 364.942 733.884 369.334 735.828C383.69 741.848 400.932 738.472 416.209 739.796C429.327 740.934 440.523 743.496 452.526 749.005C460.257 752.554 465.584 755.656 467.677 764.365C466.209 770.805 464.563 771.813 461.926 777.336C477.669 809.888 569.421 791.404 595.636 779.531C597.738 778.58 600.93 777.347 603.045 776.75C603.271 776.777 603.496 776.804 603.722 776.831C608.692 775.773 616.975 771.84 621.628 770.044C634.387 765.12 650.171 760.291 663.882 761.614C678.839 763.056 696.182 771.789 706.657 782.556C711.776 787.381 716.139 792.767 722.624 795.855C726.474 797.687 730.58 797.789 734.567 798.883C741.377 800.751 747.744 797.57 753.863 797C757.632 796.648 759.616 794.326 761.448 796.041C761.784 797.557 761.874 797.626 761.756 799.145C761.168 799.405 760.845 799.541 760.347 799.963C760.324 802.613 760.356 803.252 760.908 805.834C759.471 807.777 758.131 807.101 756.168 807.888C750.633 806.788 748.097 810.692 740.336 807.103L740.001 805.78L739.147 805.695C734.88 809.363 732.567 807.836 727.216 806.843C715.885 804.658 702.04 799.72 692.211 793.613C678.104 784.848 670.532 775.134 652.604 774.875C640.646 774.702 634.841 776.311 623.982 781.811C620.605 783.521 617.003 784.834 613.721 786.943L614.391 787.325C611.59 789.17 604.928 791.902 601.766 793.223C593.316 796.751 583.989 798.643 575.24 800.957C549.043 807.965 522.266 810.171 495.354 806.341C478.981 804.01 457.5 799.485 450.914 781.889C449.631 778.462 448.82 774.572 447.458 771.192C437.637 746.823 403.801 751.964 382.716 749.62C373.159 748.65 364.974 747.762 356.091 743.735C336.765 734.971 353.88 721.42 349.422 708.437C347.904 704.015 342.417 699.851 338.004 697.987C328.204 693.847 317.262 693.555 306.836 693.195C276.276 692.14 246.949 699.776 218.601 710.622C205.458 715.65 192.253 721.955 178.96 727.165C177.452 725.163 174.048 718.968 172.629 716.537Z" fill="#90DBF4"/>
<path d="M178.961 727.165C192.254 721.955 205.459 715.65 218.602 710.622C246.95 699.776 276.277 692.14 306.837 693.195C317.263 693.555 328.205 693.847 338.005 697.987C342.418 699.851 347.905 704.015 349.423 708.437C353.881 721.42 336.766 734.971 356.092 743.735C364.975 747.762 373.16 748.65 382.717 749.62C403.802 751.964 437.638 746.823 447.459 771.192C448.821 774.572 449.632 778.462 450.915 781.889C457.501 799.485 478.982 804.01 495.355 806.341C522.267 810.171 549.044 807.965 575.241 800.957C583.99 798.643 593.317 796.751 601.767 793.223C604.929 791.902 611.591 789.17 614.392 787.325L614.802 787.166C619.422 785.328 624.83 782.365 629.226 780.356C654.624 768.751 669.979 778.521 690.435 793.405C706.82 805.328 736.094 811.19 756.487 808.567C764.918 807.43 770.17 805.569 778.341 803.062C782.868 801.749 787.332 800.421 792.085 800.573C790.788 802.327 790.148 803.297 788.111 804.25C783.367 804.724 776.899 807.047 772.284 808.627C747.157 817.228 718.651 812.653 695.453 800.559C680.548 792.788 668.729 778.939 650.655 779.137C634.783 779.311 622.5 788.308 608.475 794.326C571.519 809.461 529.072 815.318 489.493 809.385C482.01 808.263 475.997 805.891 469.117 804.179C449.558 793.275 450.955 792.612 443.407 772.517C433.662 746.577 379.675 758.504 355.644 747.543C330.143 735.913 351.126 721.774 345.893 708.954C344.25 704.929 340.132 702.593 336.279 701.066C327.997 697.785 318.563 697.156 309.735 696.777C263.857 694.806 222.492 712.591 181.323 730.349L178.961 727.165Z" fill="#474D56"/>
<path d="M181.322 730.351C222.491 712.593 263.856 694.808 309.734 696.779C318.562 697.158 327.996 697.787 336.278 701.068C340.131 702.595 344.249 704.931 345.892 708.956C351.125 721.776 330.142 735.915 355.643 747.545C379.674 758.506 433.661 746.579 443.406 772.519C450.954 792.614 449.557 793.277 469.116 804.181C471.222 807.518 488.705 809.474 492.742 811.052C497.356 812.856 498.898 816.911 503.729 817.991L503.754 823.771C498.996 825.724 490.662 826.445 485.531 826.794C481.958 827.037 473.973 823.142 469.312 826.078C450.895 819.964 431.478 809.738 427.685 788.623C426.979 784.698 426.591 776.171 425.13 772.92C416.323 753.315 384.284 765.046 368.082 764.463C353.913 763.844 337.036 762.243 324.156 756.636C304.957 748.198 309.029 738.256 318.355 723.639C322.045 717.856 317.431 711.034 311.177 709.695C273.797 701.69 218.466 722.892 186.644 738.709L181.322 730.351Z" fill="url(#paint3_linear_2293_69327)"/>
<path d="M779.853 714.068C778.876 713.44 779.051 713.531 778.223 712.687C779.316 711.317 786.526 713.105 788.762 713.388C807.111 715.716 819.069 711.912 835.429 705.477C835.959 705.574 835.614 705.476 836.377 705.986C834.375 710.686 818.292 715.229 813.454 715.993C803.397 717.582 789.409 718.04 779.853 714.068Z" fill="#E6DFD5"/>
<path d="M186.645 738.707C218.467 722.89 273.798 701.688 311.178 709.693C317.432 711.032 322.046 717.854 318.356 723.637C309.03 738.254 304.958 748.196 324.157 756.634C337.037 762.241 353.914 763.842 368.083 764.461C384.285 765.044 416.324 753.313 425.131 772.918C426.592 776.169 426.98 784.696 427.686 788.621C431.479 809.736 450.896 819.962 469.313 826.076C496.885 833.503 531.383 835.154 558.655 826.254C572.175 821.842 587.053 813.386 600.38 808.238C610.002 804.521 622.379 797.996 631.992 795.515C666.314 786.657 673.122 810.345 697.517 825.186C714.782 835.689 734.242 832.39 751.846 825.027C755.566 823.471 762.796 819.514 765.624 818.74C767.586 819.087 766.934 818.925 768.63 820.383L764.389 823.4L758.716 825.964C735.124 836.549 713.918 840.921 691.115 825.723C677.054 816.351 667.924 800.431 650.187 798.14C635.988 796.306 624.975 801.772 612.331 807.016C593.299 814.909 575.071 824.986 555.374 831.088C538.516 835.565 519.595 836.899 502.21 835.491C472.798 833.11 439.186 826.208 425.602 797.064C422.372 788.159 423.724 768.222 412.45 766.769C383.623 763.054 357.687 772.896 328.611 776.354C315.577 777.904 290.317 774.767 288.884 754.977C293.114 729.007 285.055 729.452 261.774 726.366C260.959 726.258 260.726 725.633 260.477 724.875C263.007 720.477 281.709 725.396 286.262 728.32C303.061 738.752 282.258 758.808 303.007 768.986C317.847 776.266 340.418 772.211 355.751 767.626L356.398 767.429C330.153 764.028 289.368 756.236 314.672 723.425C317.163 720.195 316.116 715.518 311.789 714.04C297.117 709.028 280.385 711.405 265.506 714.472C237.939 719.753 214.128 730.673 188.401 740.983L186.645 738.707Z" fill="#474D56"/>
<path d="M188.4 740.985C214.127 730.675 237.938 719.755 265.505 714.474C280.384 711.407 297.116 709.03 311.788 714.042C316.115 715.52 317.162 720.197 314.671 723.427C289.367 756.238 330.152 764.03 356.397 767.431L355.75 767.628C340.417 772.213 317.846 776.268 303.006 768.988C282.257 758.81 303.06 738.754 286.261 728.322C281.708 725.398 263.006 720.479 260.476 724.877C260.725 725.635 260.958 726.26 261.773 726.368C285.054 729.454 293.113 729.009 288.883 754.979C290.316 774.769 315.576 777.906 328.61 776.356C357.686 772.898 383.622 763.056 412.449 766.771C423.723 768.224 422.371 788.161 425.601 797.066L424.871 797.086C422.104 791.111 416.786 793.789 411.643 795.491L411.366 796.115C412.444 797.68 413.835 799.215 413.783 801.012C410.576 797.666 408.103 793.616 403.418 791.065C365.391 772.127 336.727 806.872 295.625 788.022C256.255 769.965 300.273 742.253 253.743 739.322C247.357 738.92 214.62 742.621 212.087 748.571L212.62 749.411C214.26 749.71 231.864 744.685 236.192 744.215C244.595 742.571 264.956 740.4 271.2 748.333C278.535 757.651 266.757 769.505 279.443 781.402C292.768 793.899 307.11 797.333 324.787 797.562C311.454 800.846 301.251 790.903 293.916 799.069C296.745 802.997 299.252 804.802 298.693 808.959C301.764 811.793 312.787 809.768 317.832 811.437C293.771 813.723 270.797 803.934 263.05 779.727C261.656 773.728 261.709 767.645 257.925 762.544C249.322 750.945 215.582 753.603 205.973 761.565C201.981 758.477 192.025 745.505 188.4 740.985Z" fill="#8EECF5"/>
<path d="M761.693 751.309C756.341 750.989 751.595 750.16 745.962 750.096C732.654 749.945 720.431 750.649 707.329 747.762C693.681 744.755 682.081 739.077 668.838 734.962C665.105 733.802 653.092 731.875 651.16 730.215C662.598 727.334 698.369 742.479 712.324 744.205C726.839 746 741.418 746.026 755.834 748.073C758.147 748.401 760.415 749.265 761.693 751.309Z" fill="#EFFCF0"/>
<path d="M544.103 756.776C528.652 759.125 511.768 756.056 496.604 751.483C490.419 749.618 469.732 742.674 466.35 737.096C465.922 736.39 466.513 735.901 467.063 734.877C472.678 734.725 486.571 742.107 492.91 744.366C503.68 748.204 512.487 750.99 523.958 752.745C527.986 753.361 542.484 754.795 545.236 756.14L545.365 756.703L544.103 756.776Z" fill="#EFFCF0"/>
<path d="M324.788 797.563C307.111 797.334 292.769 793.9 279.444 781.403C266.758 769.506 278.536 757.652 271.201 748.334C264.957 740.401 244.596 742.572 236.193 744.216C231.865 744.686 214.261 749.711 212.621 749.412L212.088 748.572C214.621 742.622 247.358 738.921 253.744 739.323C300.274 742.254 256.256 769.966 295.626 788.023C336.728 806.873 365.392 772.128 403.419 791.066C408.104 793.617 410.577 797.667 413.784 801.013C426.243 823.547 440.899 836.288 465.888 843.248C505.671 854.329 545.568 850.544 582.563 832.076C603.611 821.57 632.574 801.637 656.458 812.499C667.877 818.006 673.34 832.844 683.723 841.503C693.446 849.61 700.681 852.115 712.78 855.958C713.71 856.254 714.005 856.669 714.522 857.398C713.859 857.757 712.698 858.478 711.96 858.378C695.56 856.152 680.4 845.656 670.659 832.509C666.044 826.281 660.214 817.196 652.416 814.667C633.506 808.626 612.84 820.066 596.39 828.855C573.227 841.23 549.515 851.234 522.66 852.512C490.525 854.041 448.77 849.27 425.711 824.393C417.466 815.498 413.186 804.941 404.444 796.766C388.697 782.919 359.549 791.458 341.503 795.305C335.807 796.52 330.661 797.094 324.788 797.563Z" fill="#474D56"/>
<path d="M205.973 761.562C215.582 753.6 249.322 750.942 257.925 762.541C261.709 767.642 261.656 773.725 263.05 779.724C270.797 803.931 293.771 813.72 317.832 811.434C317.975 811.434 318.118 811.433 318.26 811.432C340.257 809.692 360.677 795.955 382.799 806.501C393.908 811.797 400.021 824.256 408.1 833.509C429.304 857.796 458.388 873.924 491.127 873.873C508.141 873.88 526.268 867.502 542.421 862.396C573.632 852.53 602.773 848.748 634.379 860.452C649.619 866.095 665.171 872.753 680.819 877.651L680.762 878.778C678.309 880.924 675.928 879.767 673.136 878.661C666.614 875.894 658.917 873.529 652.189 870.791C644.11 867.503 634.833 863.757 626.551 861.269C594.968 851.234 561.37 858.686 530.967 869.843C483.948 887.096 437.841 873.735 405.035 836.053C393.557 822.87 389.064 808.821 369.723 806.845C353.022 805.138 342.048 810.972 326.105 814.32C318.37 815.921 309.295 815.387 301.416 814.859C300.959 814.627 301.282 814.76 300.676 814.617C296.56 813.645 290.559 812.453 286.678 810.951C274.502 806.239 263.272 793.81 259.721 781.26C258.472 776.958 258.478 771.211 256.439 767.22C250.383 755.363 231.25 758.07 220.466 759.768C216.282 760.426 211.654 762.357 207.944 764.193C207.488 763.43 206.547 762.303 205.973 761.562Z" fill="#474D56"/>
<path d="M207.943 764.196C211.653 762.36 216.281 760.429 220.465 759.771C231.249 758.073 250.382 755.366 256.438 767.223C258.477 771.214 258.471 776.961 259.72 781.263C263.271 793.813 274.501 806.242 286.677 810.954C290.558 812.456 296.559 813.648 300.675 814.62C301.281 814.763 300.958 814.63 301.415 814.862L300.691 815.457C296.28 814.765 290.347 813.529 286.264 811.717C284.428 816.169 281.391 824.431 287.843 827.053C291.618 828.587 302.734 829.6 305.631 832.011C299.638 831.215 293.062 829.27 287.26 827.697C283.77 826.751 274.322 822.87 271.666 822.841L270.277 824.396C264.972 823.226 212.006 772.458 207.943 764.196Z" fill="#8EECF5"/>
<path d="M789.39 763.503C783.522 764.491 773.474 763.275 767.92 760.946L767.865 760.232C774.966 759.791 783.278 759.374 789.821 762.713L789.39 763.503Z" fill="#E6DFD5"/>
<path d="M603.045 776.749C648.462 756.845 678.564 750.229 714.964 789.474C730.117 805.811 759.707 795.089 777.408 787.631C777.584 789.593 778.414 793.528 778.34 794.761C776.307 795.945 776.764 795.313 775.786 797.189C775.757 799.337 776.614 800.185 777.775 802.119L778.125 802.71L778.34 803.061C770.169 805.568 764.917 807.429 756.486 808.566L756.168 807.887C758.131 807.1 759.471 807.776 760.908 805.833C760.356 803.251 760.324 802.612 760.347 799.962C760.845 799.54 761.168 799.404 761.756 799.144C761.874 797.625 761.784 797.556 761.448 796.04C759.616 794.325 757.632 796.647 753.863 796.999C747.744 797.569 741.377 800.75 734.567 798.882C730.58 797.788 726.474 797.686 722.624 795.854C716.139 792.766 711.776 787.38 706.657 782.555C696.182 771.788 678.839 763.055 663.882 761.613C650.171 760.29 634.387 765.119 621.628 770.043C616.975 771.839 608.692 775.772 603.722 776.83C603.496 776.803 603.271 776.776 603.045 776.749Z" fill="#CFBAF0"/>
<path d="M800.625 771.997C796.78 772.087 783.234 773.12 780.607 770.76C782.344 768.754 786.506 768.918 789.016 768.709C793.538 768.424 798.593 768.124 803.1 768.588C804.825 768.765 806.671 769.066 807.798 770.5L807.366 771.377C805.126 771.82 802.899 771.89 800.625 771.997Z" fill="#E6DFD5"/>
<path d="M765.264 777.595C760.302 777.806 755.339 776.522 750.38 776.393C744.576 776.243 738.718 777.445 732.893 777.455C728.564 777.462 722.745 776.915 719.672 773.549C718.404 772.161 718.082 771.162 718.122 769.344C731.041 780.006 750.843 768.744 765.182 776.624L765.264 777.595Z" fill="#E6DFD5"/>
<path d="M614.391 787.326L613.721 786.944C617.003 784.835 620.605 783.522 623.982 781.812C634.841 776.312 640.646 774.703 652.604 774.876C670.532 775.135 678.104 784.849 692.211 793.614C702.04 799.721 715.885 804.659 727.216 806.844C732.567 807.837 734.88 809.364 739.147 805.696L740.001 805.781L740.336 807.104C748.097 810.693 750.633 806.789 756.168 807.889L756.486 808.568C736.093 811.191 706.819 805.329 690.434 793.406C669.978 778.522 654.623 768.752 629.225 780.357C624.829 782.366 619.421 785.329 614.801 787.167L614.391 787.326Z" fill="#CFBAF0"/>
<path d="M469.115 804.181C475.995 805.893 482.008 808.265 489.491 809.387C529.07 815.32 571.517 809.463 608.473 794.328C622.498 788.31 634.781 779.313 650.653 779.139C668.727 778.941 680.546 792.79 695.451 800.561C718.649 812.655 747.155 817.23 772.282 808.629C776.897 807.049 783.365 804.726 788.109 804.252C785.938 807.393 771.308 819.805 768.628 820.385C766.932 818.927 767.584 819.089 765.622 818.742C762.794 819.516 755.564 823.473 751.844 825.029C734.24 832.392 714.78 835.691 697.515 825.188C673.12 810.347 666.312 786.659 631.99 795.517C622.377 797.998 610 804.523 600.378 808.24C587.051 813.388 572.173 821.844 558.653 826.256C531.381 835.156 496.883 833.505 469.311 826.078C473.972 823.142 481.957 827.037 485.53 826.794C490.661 826.445 498.995 825.724 503.753 823.771L503.728 817.991C498.897 816.911 497.355 812.856 492.741 811.052C488.704 809.474 471.221 807.518 469.115 804.181Z" fill="#CFBAF0"/>
<path d="M777.408 787.634C790.3 782.502 793.867 783.144 807.639 783.845C806.571 785.047 801.672 790.037 801.182 790.717C795.964 790.042 793.501 788.713 789.659 792.678C787.844 793.039 779.716 794.745 778.34 794.764C778.414 793.531 777.584 789.596 777.408 787.634Z" fill="#A3C4F3"/>
<path d="M324.787 797.562C330.66 797.093 335.806 796.519 341.502 795.304C359.548 791.457 388.696 782.918 404.443 796.765C413.185 804.94 417.465 815.497 425.71 824.392C448.769 849.269 490.524 854.04 522.659 852.511C549.514 851.233 573.226 841.229 596.389 828.854C612.839 820.065 633.505 808.625 652.415 814.666C660.213 817.195 666.043 826.28 670.658 832.508C680.399 845.655 695.559 856.151 711.959 858.377C712.697 858.477 713.858 857.756 714.521 857.397L715.638 857.933C704.898 865.075 694.408 870.755 682.52 875.747C681.511 876.171 681.208 876.748 680.819 877.654C665.171 872.756 649.619 866.098 634.379 860.455C602.773 848.751 573.632 852.533 542.421 862.399C526.268 867.505 508.141 873.883 491.127 873.876C458.388 873.927 429.304 857.799 408.1 833.512C400.021 824.259 393.908 811.8 382.799 806.504C360.677 795.958 340.257 809.695 318.26 811.435C318.118 811.436 317.975 811.437 317.832 811.437C312.787 809.768 301.764 811.793 298.693 808.959C299.252 804.802 296.745 802.997 293.916 799.069C301.251 790.903 311.454 800.846 324.787 797.562Z" fill="url(#paint4_linear_2293_69327)"/>
<path d="M789.659 792.678C793.501 788.713 795.964 790.042 801.182 790.717C799.39 792.937 794.346 798.989 792.084 800.575C787.331 800.423 782.867 801.751 778.34 803.064L778.125 802.713L777.775 802.122C776.614 800.188 775.757 799.34 775.786 797.192C776.764 795.316 776.307 795.948 778.34 794.764C779.716 794.745 787.844 793.039 789.659 792.678Z" fill="#90DBF4"/>
<path d="M413.782 801.011C413.834 799.214 412.443 797.679 411.365 796.114L411.642 795.49C416.785 793.788 422.103 791.11 424.87 797.085L425.6 797.065C439.184 826.209 472.796 833.111 502.208 835.492C519.593 836.9 538.514 835.566 555.372 831.089C575.069 824.987 593.297 814.91 612.329 807.017C624.973 801.773 635.986 796.307 650.185 798.141C667.922 800.432 677.052 816.352 691.113 825.724C713.916 840.922 735.122 836.55 758.714 825.965L764.387 823.401C762.035 830.111 723.42 854.003 715.637 857.932L714.52 857.396C714.003 856.667 713.708 856.252 712.778 855.956C700.679 852.113 693.444 849.608 683.721 841.501C673.338 832.842 667.875 818.004 656.456 812.497C632.572 801.635 603.609 821.568 582.561 832.074C545.566 850.542 505.669 854.327 465.886 843.246C440.897 836.286 426.241 823.545 413.782 801.011Z" fill="url(#paint5_linear_2293_69327)"/>
<path d="M301.415 814.859C309.294 815.387 318.369 815.921 326.104 814.32C342.047 810.972 353.021 805.138 369.722 806.845C389.063 808.821 393.556 822.87 405.034 836.053C437.84 873.735 483.947 887.096 530.966 869.843C561.369 858.686 594.967 851.234 626.55 861.269C634.832 863.757 644.109 867.503 652.188 870.791C658.916 873.529 666.613 875.894 673.135 878.661C668.739 881.514 640.953 890.164 635.039 891.563C611.286 897.179 585.335 902.835 561.055 904.443C477.529 909.977 388.723 904.006 316.651 857.06C309.042 852.104 279.714 834.433 275.531 827.609C290.38 832.925 303.161 836.176 319.092 837.961C337.288 839.999 352.726 837.651 370.286 844.129C382.653 848.691 387.55 861.297 391.552 863.239C393.073 862.512 392.49 863.034 393.391 861.644C392.679 859.347 388.96 854.465 387.296 852.411C370.377 831.526 341.625 837.226 318.098 834.163C314.941 833.752 308.245 833.033 305.631 832.008C302.734 829.597 291.618 828.584 287.843 827.05C281.391 824.428 284.428 816.166 286.264 811.714C290.347 813.526 296.28 814.762 300.691 815.454L301.415 814.859ZM423.645 879.091C421.863 879.425 420.986 879.424 419.565 880.589L419.421 881.557C420.325 882.271 420.776 882.487 421.97 882.628C424.858 882.969 428.087 882.462 431.018 882.442C434.633 882.418 438.343 882.94 441.892 883.585C452.855 885.579 463.36 889.592 473.994 892.827C493.326 898.707 514.744 901.344 534.91 899C558.278 896.284 589.267 881.2 610.789 882.651C617.033 883.072 622.649 884.955 628.324 887.478C629.581 887.523 629.851 887.625 630.9 886.97C630.763 885.603 630.374 885.285 629.3 884.443C621.937 878.678 606.324 878.788 597.505 880.106C568.475 884.444 549.63 897.011 517.503 896.36C505.708 896.121 494.21 894.793 482.783 891.756C462.353 886.326 445.48 878.001 423.645 879.091Z" fill="url(#paint6_linear_2293_69327)"/>
<path d="M270.277 824.395L271.666 822.84C274.322 822.869 283.77 826.75 287.26 827.696C293.062 829.269 299.638 831.214 305.631 832.01C308.245 833.035 314.941 833.754 318.098 834.165C341.625 837.228 370.377 831.528 387.296 852.413C388.96 854.467 392.679 859.349 393.391 861.646C392.49 863.036 393.073 862.514 391.552 863.241C387.55 861.299 382.653 848.693 370.286 844.131C352.726 837.653 337.288 840.001 319.092 837.963C303.161 836.178 290.38 832.927 275.531 827.611C273.055 826.494 272.226 826.236 270.277 824.395Z" fill="#474D56"/>
<path d="M628.325 887.48C622.65 884.957 617.034 883.074 610.79 882.653C589.268 881.202 558.279 896.286 534.911 899.002C514.745 901.346 493.327 898.709 473.995 892.829C463.361 889.594 452.856 885.581 441.893 883.587C438.344 882.942 434.634 882.42 431.019 882.444C428.088 882.464 424.859 882.971 421.971 882.63C420.777 882.489 420.326 882.273 419.422 881.559L419.566 880.591C420.987 879.426 421.864 879.427 423.646 879.093C445.481 878.003 462.354 886.328 482.784 891.758C494.211 894.795 505.709 896.123 517.504 896.362C549.631 897.013 568.476 884.446 597.506 880.108C606.325 878.79 621.938 878.68 629.301 884.445C630.375 885.287 630.764 885.605 630.901 886.972C629.852 887.627 629.582 887.525 628.325 887.48Z" fill="#41394D"/>
<defs>
<linearGradient id="paint0_linear_2293_69327" x1="345.851" y1="265.111" x2="572.438" y2="671.909" gradientUnits="userSpaceOnUse">
<stop stop-color="#3C2E47"/>
<stop offset="1" stop-color="#606C53"/>
</linearGradient>
<linearGradient id="paint1_linear_2293_69327" x1="531.5" y1="298.994" x2="530.079" y2="492.925" gradientUnits="userSpaceOnUse">
<stop stop-color="#FBE485"/>
<stop offset="1" stop-color="#FFC897"/>
</linearGradient>
<linearGradient id="paint2_linear_2293_69327" x1="273.293" y1="321.448" x2="270.531" y2="304.97" gradientUnits="userSpaceOnUse">
<stop stop-color="#2A273C"/>
<stop offset="1" stop-color="#422C4B"/>
</linearGradient>
<linearGradient id="paint3_linear_2293_69327" x1="344.644" y1="698.061" x2="342.405" y2="824.467" gradientUnits="userSpaceOnUse">
<stop stop-color="#83F8ED"/>
<stop offset="1" stop-color="#CCE4FE"/>
</linearGradient>
<linearGradient id="paint4_linear_2293_69327" x1="548.981" y1="934.051" x2="455.758" y2="724.987" gradientUnits="userSpaceOnUse">
<stop stop-color="#F0D9F9"/>
<stop offset="1" stop-color="#B5E5FC"/>
</linearGradient>
<linearGradient id="paint5_linear_2293_69327" x1="604.469" y1="885.313" x2="570.255" y2="753.47" gradientUnits="userSpaceOnUse">
<stop stop-color="#EEC6FB"/>
<stop offset="1" stop-color="#C4ECFF"/>
</linearGradient>
<linearGradient id="paint6_linear_2293_69327" x1="512.997" y1="944.603" x2="431.321" y2="750.385" gradientUnits="userSpaceOnUse">
<stop stop-color="#E8D4FC"/>
<stop offset="1" stop-color="#B4EDFA"/>
</linearGradient>
</defs>
</svg>
