<svg width="1024" height="1024" viewBox="0 0 1024 1024" fill="none" xmlns="http://www.w3.org/2000/svg">
<path d="M315.584 139.357C397.417 96.8708 501 104.828 571.951 165.278C576.717 169.338 583.272 174.854 585.389 180.866C568.347 187.911 551.248 194.864 534.304 202.145C528.224 204.757 523.181 207.7 517.475 210.357C508.241 207.753 496.91 206.353 487.4 204.918C417.81 194.415 341.082 203.105 279.114 237.306C230.578 264.093 216.885 311.27 201.827 360.262C201.222 362.232 199.106 364.996 198.1 366.951C191.411 372.14 186.365 377.245 178.566 381.594C178.415 380.423 179.068 367.961 179.155 365.864C180.278 332.41 186.999 299.38 199.041 268.148C211.577 235.105 237.045 199.725 263.2 176.32C275.628 165.199 300.904 145.952 315.584 139.357Z" fill="#FCD992"/>
<path d="M175.98 383.253C172.091 378.23 163.368 371.822 158.425 366.33C109.312 311.754 109.573 227.188 157.902 172.025C177.44 149.725 202.177 135.287 231.088 128.766C255.483 123.467 294.512 125.344 315.584 139.357C300.904 145.952 275.628 165.199 263.2 176.32C237.045 199.725 211.577 235.105 199.041 268.148C186.999 299.38 180.278 332.41 179.155 365.864C179.068 367.961 178.415 380.423 178.566 381.594L175.98 383.253Z" fill="#FDE4CF"/>
<path d="M711.256 139.649C720.012 135.19 723.413 133.663 733.161 132.164C740.501 131.152 751.386 132.658 757.755 136.488C774.583 146.608 779.698 164.316 784.691 181.488C780.377 178.505 775.887 175.455 771.213 173.095C759.046 166.566 748.541 169.827 738.947 155.408C733.039 146.53 721.418 142.173 711.256 139.649Z" fill="#98F5E1"/>
<path d="M585.389 180.866C613.675 171.103 643.486 162.924 673.697 164.115C683.321 164.494 727.095 162.563 716.57 181.872L716.168 182.257C711.19 186.953 701.559 193.327 695.404 198.097C678.258 211.383 665.304 238.605 664.481 260.171C664.435 261.629 664.44 263.089 664.498 264.548L665.082 265.065C670.752 270.033 679.444 275.761 685.742 280.509C695.944 288.262 705.669 296.623 714.866 305.545C765.331 354.978 807.49 427.303 825.521 495.698C829.535 510.924 832.761 534.852 834.029 550.443C835.373 566.976 835.566 585.315 835.247 601.868C835.003 614.467 833.314 628.471 833.315 640.811C831.392 656.706 829.968 669.643 826.82 685.515C825.481 692.266 820.168 709.519 819.671 714.759C818.071 731.621 825.219 756.478 835.993 769.834C844.198 780.949 855.851 788.977 864.682 799.468C886.039 825.002 900.901 861.367 896.455 895C895.269 901.405 893.303 920.705 883.977 920.116C879.637 919.842 876.881 908.192 874.706 904.897C860.422 883.268 838.816 875.889 814.56 870.798C792.144 866.093 778.107 853.479 767.804 832.885C767.517 832.311 767.235 831.734 766.957 831.156C748.785 850.711 736.823 858.871 709.1 859.736C688.274 860.386 673.437 857.852 654.491 868.838C651.273 870.7 648.233 872.852 645.406 875.267C639.354 880.491 628.622 895.544 626.883 877.854C622.889 836.2 657.954 802.765 689.504 781.301C712.872 765.402 737.593 750.964 750.528 724.465C753.105 719.185 755.319 715.984 753.783 709.875C751.577 699.819 747.383 690.565 744.077 681.053C712.933 591.466 640.534 519.073 551.448 486.942C537.325 481.849 521.91 475.623 506.788 473.094C508.958 497.797 515.781 522.517 531.782 542.121C535.911 547.178 552.548 559.042 544.631 566.941C541.617 569.949 530.001 570.699 525.608 570.113C489.585 565.312 454.038 544.791 430.319 517.515C422.815 529.693 402.759 545.906 392.349 555.74C386.888 560.899 381.408 566.614 376.45 572.27C373.562 575.51 371.009 579.035 368.831 582.789C365.886 587.879 363.36 594.37 359.642 598.736C356.831 602.038 351.108 597.437 349.468 594.83C338.046 576.68 338.928 550.672 341.949 530.313C345.977 503.17 358.723 477.033 375.726 455.745C380.371 449.968 386.744 442.677 392.664 438.32C379.228 435.804 364.703 430.96 351.205 428.731C319.941 423.569 281.887 428.083 250.991 434.699C229.218 439.362 213.51 445.922 190.285 448.142C180.73 449.372 164.28 450.808 157.675 442.514C157.025 441.233 156.769 440.058 156.358 438.672C145.36 435.151 141.909 427.254 144.848 416.042C149.288 399.103 161.668 391.502 175.98 383.253L178.566 381.594C186.365 377.245 191.411 372.14 198.1 366.951C191.191 384.317 138.028 397.875 148.278 428.771C149.16 431.428 152.213 433.698 154.574 435.126C169.865 435.584 193.966 426.228 208.619 421.859C228.276 415.999 248.493 412.229 263.562 397.46C272.141 389.053 289.602 371.101 302.142 372.135L302.178 372.586C297.024 375.41 296.182 374.883 292.621 379.602L291.301 378.445L290.846 379.118C284.524 383.263 279.251 387.72 273.858 393.024C258.445 408.186 251.675 412.915 231.102 419.17C210.079 425.532 187.64 432.14 166.263 437.211C164.392 437.655 160.521 437.599 159.312 438.82C159.36 440.04 159.304 440.548 160.601 441.534C169.125 448.013 186.139 445.418 195.926 444.002C218.52 440.733 240.767 432.794 263.143 428.528C278.394 425.621 296.595 423.764 312.147 422.669C316.785 422.343 322.951 423.1 327.768 422.952C334.609 423.674 342.755 424.195 349.443 425.445C366.045 428.548 382.817 432.763 399.323 436.493C399.029 442.809 401.282 449.287 402.821 455.369C413.467 497.446 441.791 532.091 480.608 551.32C495.319 558.608 510.447 566.098 527.264 566.607C531.261 566.711 539.159 566.989 542.19 564.125C544.109 559.156 538.925 554.39 535.675 551.331C513.869 530.815 506.457 502.27 502.43 473.659C502.041 470.895 502.202 464.602 502.217 461.392C502.299 444.388 488.205 434.169 472.867 431.509C465.978 430.199 451.347 430.556 446.064 425.2C437.069 416.079 436.266 402.873 425.245 393.749C408.761 380.102 385.248 375.572 364.437 373.915C358.202 373.419 351.809 374.523 345.724 374.793L345.86 373.739C347.199 373.243 350.329 373.042 351.908 372.862C365.893 371.313 379.516 373.592 393.045 377.046C410.708 381.556 427.448 388.964 436.291 405.901C439.591 411.499 441.854 419.64 446.982 423.774C450.846 426.889 458.115 428.489 463.011 428.823C481.933 430.113 502.429 437.641 503.76 459.935C528.855 445.845 556.361 433.51 585.723 441.068C614.231 448.406 627.924 478.997 633.459 505.32C633.842 507.14 634.796 510.411 634.508 512.09C633.553 511.611 633.279 511.43 633.026 510.197C628.269 487.001 617.846 458.314 595.586 446.554C570.274 433.183 536.567 443.45 513.066 456.285C509.904 458.012 506.868 459.991 503.725 461.667C503.588 464.119 503.465 466.245 503.515 468.716C531.138 475.323 558.024 484.697 583.767 496.697C589.86 499.526 595.252 502.632 601.068 505.937C603.083 507.081 607.759 509.913 609.543 510.618C612.71 512.687 615.931 514.684 619.128 516.764C654.419 539.722 685.905 570.633 709.954 605.127C717.803 616.384 724.712 628.399 731.776 640.13C733.803 643.495 740.126 650.06 742.898 654.098C760.745 680.095 766.215 694.469 771.976 724.75C784.454 677.422 790.767 633.17 763.885 589.273C755.832 576.122 749.466 569.589 735.257 563.409C743.825 586.394 750.323 609.08 747.38 634.126C745.683 631.857 746.658 621.894 746.458 617.857C746.094 610.85 745.259 603.876 743.958 596.981C742.819 591.053 741.167 583.436 739.32 577.749C737.842 573.283 735.206 568.516 733.965 564.026C728.601 544.628 721.205 526.643 710.632 509.487C706.666 503.052 702.07 497.172 697.448 491.08C675.594 462.279 644.027 434.027 608.084 425.235C606.398 424.32 599.808 422.908 597.651 422.46C563.182 415.299 526.67 424.748 494.067 406.829C480.858 399.353 468.202 386.745 458.793 374.758C434.529 343.842 411.406 342.171 374.528 348.673L373.752 347.632C395.89 343.061 419.822 340.529 439.234 354.073C463.017 370.667 469.751 394.247 498.623 407.378C526.207 420.775 554.783 415.629 584.086 418.74C632.355 423.866 668.338 451.786 697.525 488.695C718.351 515.031 723.823 530.945 734.826 561.145C741.057 564.299 745.02 566.305 750.576 570.753C764.149 581.619 772.908 602.038 778.436 618.176C787.969 646.008 784.491 678.813 777.701 706.969C776.351 712.571 774.546 722.12 772.298 727.105L772.016 726.382C769.481 719.794 767.451 709.505 765.37 702.135C760.613 685.287 745.136 656.964 732.787 644.344C739.362 659.019 745.348 673.867 750.629 689.041C754.586 700.41 758.178 712.399 759.565 724.35C761.285 739.175 761.326 754.235 762.604 769.101C763.243 775.401 764.102 787.375 771.031 790.511C772.629 791.235 775.339 790.812 776.772 789.981C793.825 780.093 806.96 745.6 812.648 728.001C819.631 706.44 824.937 684.371 828.518 661.992C830.21 650.775 830.837 639.206 831.697 627.942C834.928 585.634 833.459 544.024 824.583 502.433C823.847 498.984 823.064 495.485 822.153 492.073C807.249 438.162 777.554 386.861 743.135 343.068C710.561 301.622 665.95 266.04 617.91 244.393C608.255 240.102 592.456 235.322 581.919 231.948C563.847 226.275 545.537 221.384 527.043 217.291C504.629 212.108 480.523 206.906 457.438 205.511C430.493 203.882 401.38 204.367 374.609 208.103C362.375 209.81 350.519 213.479 338.742 216.975C320.692 221.984 306.261 227.16 289.494 235.562C247.719 256.494 227.842 288.413 214.182 331.703C211.648 339.733 208.453 349.18 206.447 357.28C224.287 354.54 222.557 356.454 234.983 366.9C249.734 379.301 272.332 371.768 288.459 366.86C308.086 360.887 328.671 366.083 343.972 380.067C358.689 396.705 350.745 420.147 328.384 422.018C330.027 420.66 332.144 420.074 334.112 419.404C343.727 416.129 349.727 408.881 349.936 398.458C350.065 392.032 347.694 386.209 343.114 381.391C329.839 367.424 307.252 366.481 289.424 369.217C274.29 372.439 267.139 378.696 249.157 375.926C229.113 372.838 232.787 359.039 213.107 359.22C203.506 359.308 204.274 360.923 198.1 366.951C199.106 364.996 201.222 362.232 201.827 360.262C216.885 311.27 230.578 264.093 279.114 237.306C341.082 203.105 417.81 194.415 487.4 204.918C496.91 206.353 508.241 207.753 517.475 210.357C523.181 207.7 528.224 204.757 534.304 202.145C551.248 194.864 568.347 187.911 585.389 180.866ZM755.561 725.935C755.504 724.427 755.749 722.966 755.021 721.998C753.129 725.242 751.817 728.88 749.924 731.924C744.294 740.974 735.738 750.867 727.811 757.899C716.87 767.606 703.845 775.475 691.866 783.691C666.831 800.862 643.38 821.797 633.002 851.247C629.829 860.249 628.059 871.268 629.444 881.01C629.543 881.707 630.104 882.599 630.488 883.188C632.29 883.382 634.318 881.932 635.599 880.799C641.217 875.833 646.72 870.112 653.376 866.4C682.679 850.058 713.887 864.653 742.514 849.154C748.747 845.78 755.104 840.241 760.054 835.165C762.512 832.644 763.845 829.734 766.828 827.389L767.648 827.473C768.931 829.671 769.398 831.795 770.625 833.846C775.112 841.455 780.504 848.703 786.837 854.802C799.829 867.317 819.952 868.427 836.06 873.661C856.841 880.414 875.337 894.733 881.986 916.03C882.238 916.838 883.403 917.264 884.096 917.58C885.601 917.429 887.06 916.667 887.789 915.441C894.903 903.493 895.375 881.35 893.321 868.567C889.016 841.777 876.5 814.764 857.124 795.797C846.252 785.155 836.726 777.128 828.732 764.069C820.29 750.277 820.494 740.039 816.322 726.411C813.036 735.866 784.322 821.676 762.617 784.601C758.172 777.008 758.687 740.21 756.258 727.018L755.561 725.935ZM659.717 168.295C636.957 169.285 603.594 176.654 582.302 185.314C574.831 188.353 566.662 193.173 558.89 196.305C546.401 201.336 533.754 205.608 521.441 211.049C536.499 214.523 551.316 219.416 566.3 223.099C579.003 226.222 590.629 230.122 602.998 234.393C616.287 239.214 626.052 243.227 638.632 249.963C644.353 253.027 654.434 259.327 659.877 261.606C664.18 234.613 674.074 209.054 697.228 192.645C701.381 189.701 713.315 182.799 714.134 178.154C715.468 170.591 700.336 169.059 695.263 168.805C683.457 168.216 671.528 167.415 659.717 168.295ZM394.753 439.91C387.483 444.207 384.427 448.48 379.099 454.993C363.649 473.878 354.299 493.842 348.368 517.68C343.143 538.68 340.518 570.873 350.943 591.031C351.791 592.671 353.502 595.07 355.037 596.141C356.788 596.438 356.025 596.597 357.44 595.957C360.986 591.169 363.402 586.047 366.512 581.04C370.286 574.963 375.355 567.796 380.179 562.519C393.426 548.03 417.735 530.778 427.729 514.346C424.178 509.911 419.937 504.882 416.847 500.198C412.271 508.013 405.723 514.403 398.365 519.561C377.745 534.019 367.761 545.28 359.308 569.88C358.702 571.914 357.939 575.299 356.676 576.812L355.821 576.885C351.866 572.589 350.721 557.367 351.108 550.213C352.712 520.544 365.159 490.01 383.34 466.565C383.526 466.406 383.713 466.247 383.899 466.087L384.652 466.28C384.355 468.189 382.367 470.11 381.197 471.712C362.73 496.983 344.001 545.21 356.116 575.624C363.839 550.784 371.894 536.423 393.588 520.953C403.396 513.958 409.527 508.612 416.21 498.639C408.131 482.858 400.852 466.587 397.194 449.078C396.877 447.561 395.599 440.828 394.753 439.91Z" fill="#020202"/>
<path d="M521.441 211.049C533.754 205.608 546.401 201.336 558.89 196.305C566.662 193.173 574.831 188.353 582.302 185.314C603.594 176.654 636.957 169.285 659.717 168.295C671.528 167.415 683.457 168.216 695.263 168.805C700.336 169.059 715.468 170.591 714.134 178.154C713.315 182.799 701.381 189.701 697.228 192.645C674.074 209.054 664.18 234.613 659.877 261.606C654.434 259.327 644.353 253.027 638.632 249.963C626.052 243.227 616.287 239.214 602.998 234.393C590.629 230.122 579.003 226.222 566.3 223.099C551.316 219.416 536.499 214.523 521.441 211.049ZM658.262 177.2C632.652 180.043 594.506 195.223 578.082 215.91C576.667 217.692 575.033 219.787 574.944 222.106L575.25 222.77L577.077 220.128C591.913 198.748 626.874 184.396 652.022 179.764C655.022 179.212 658.016 178.905 660.997 178.204L661.267 177.621C659.485 176.795 660.434 177.025 658.262 177.2ZM676.03 194.598C659.753 199.548 644.387 205.917 633.327 219.367L633.211 220.184L633.485 220.439C643.423 210.276 650.254 205.78 663.696 200.312C666.357 199.23 675.048 196.887 676.368 195.68C676.265 194.716 676.486 195.023 676.03 194.598ZM664.114 208.838C658.697 212.932 646.433 222.912 643.639 229.112L643.825 229.812L644.441 229.611C648.517 225.017 652.211 220.862 656.715 216.637C658.703 214.773 664.378 210.981 665.189 209.322C664.396 208.809 664.776 208.91 664.114 208.838Z" fill="#98F5E1"/>
<path d="M577.077 220.128L575.25 222.77L574.944 222.106C575.033 219.787 576.667 217.692 578.082 215.91C594.506 195.223 632.652 180.043 658.262 177.2C660.434 177.025 659.485 176.795 661.267 177.621L660.997 178.204C658.016 178.905 655.022 179.212 652.022 179.764C626.874 184.396 591.913 198.748 577.077 220.128Z" fill="#020202"/>
<path d="M664.498 264.548C664.44 263.089 664.435 261.629 664.481 260.171C665.304 238.605 678.258 211.383 695.404 198.097C701.559 193.327 711.19 186.953 716.168 182.257L716.57 181.872C720.002 183.889 728.984 183.777 733.45 184.556C807.791 197.518 878.126 243.653 908.993 314.133C932.507 367.821 935.787 429.759 922.247 486.454C919.842 496.523 915.011 515.79 910.418 524.792C895.725 563.049 877.413 591.491 851.939 623.008C847.534 628.223 839.517 639.224 833.315 640.811C833.314 628.471 835.003 614.467 835.247 601.868C835.566 585.315 835.373 566.976 834.029 550.443C832.761 534.852 829.535 510.924 825.521 495.698C807.49 427.303 765.331 354.978 714.866 305.545C705.669 296.623 695.944 288.262 685.742 280.509C679.444 275.761 670.752 270.033 665.082 265.065L664.498 264.548ZM757.781 238.984C760.137 241.568 766.806 242.999 770.258 244.524C780.22 248.923 789.775 254.191 798.812 260.267C855.101 298.794 895.256 374.217 891.072 443.272C890.159 458.351 884.417 474.974 877.822 488.533C879.507 461.32 880.022 436.701 870.707 410.464C869.371 406.701 866.646 399.398 864.028 396.419L863.733 396.863C864.24 398.236 864.274 398.422 865.058 399.634C875.488 420.158 878.514 446.739 877.785 469.503C877.661 473.362 876.576 488.077 876.845 490.186L877.482 490.353C882.224 485.759 889.871 460.182 891.067 452.726C891.731 448.589 892.561 441.006 892.554 436.65C892.463 379.406 868.937 325.451 829.631 284.843C813.23 267.567 793.596 253.68 771.845 243.969C768.817 242.624 760.905 239.26 757.781 238.984ZM751.738 254.604C755.171 256.709 761.033 258.378 764.839 260.196C784.257 269.474 801.457 280.778 815.533 297.249C817.247 299.255 827.023 312.178 827.991 312.592C815.41 288.526 781.812 264.589 756.046 255.367C754.643 254.865 753.238 254.526 751.738 254.604Z" fill="#98F5E1"/>
<path d="M633.485 220.439L633.211 220.184L633.327 219.367C644.387 205.917 659.753 199.548 676.03 194.598C676.486 195.023 676.265 194.716 676.368 195.68C675.048 196.887 666.357 199.23 663.696 200.312C650.254 205.78 643.423 210.276 633.485 220.439Z" fill="#020202"/>
<path d="M373.752 347.632C376.873 339.1 376.7 333.012 370.201 326.023C360.753 315.863 344.846 315.192 335.421 325.688C332.379 329.075 326.176 339.095 326.393 343.739L327.103 344.317L328.757 343.691C328.743 345.819 328.774 345.706 327.651 347.516L327.245 347.963C328.071 349.957 330.452 352.68 332.235 353.941C342.894 361.477 358.913 359.816 368.922 351.925C370.965 350.314 371.889 349.284 374.528 348.673C411.406 342.171 434.529 343.842 458.793 374.758C468.202 386.745 480.858 399.353 494.067 406.829C526.67 424.748 563.182 415.299 597.651 422.46C599.808 422.908 606.398 424.32 608.084 425.235C609.188 426.44 620.307 430.187 622.973 431.289C666.872 449.435 701.818 491.031 722.105 533.049C728.053 545.366 730.531 558.674 735.548 571.053C739.968 581.96 742.484 591.325 744.174 603.053C744.676 605.797 745.946 616.673 745.545 619.326L745.239 619.648C744.935 618.013 743.863 612.97 743.848 611.695L743.091 610.587L742.358 610.65C742.054 611.601 741.825 612.357 741.585 613.324C739.341 614.663 735.751 612.852 733.12 612.924C728.73 613.045 726.953 607.42 723.481 605.538L723.031 605.725L722.898 607.118C718.751 603.911 710.756 592.173 709.628 586.84C709.056 584.139 706.924 577.871 704.314 576.601L701.628 577.437C700.913 576.815 699.968 575.992 699.238 575.357L696.97 575.123C696.135 572.851 695.45 569.708 694.444 567.572C692.244 562.9 687.451 559.882 685.38 555.474C685.278 555.223 685.175 554.972 685.073 554.721L684.851 554.16C679.609 550.573 678.898 553.381 673.202 552.402C667.333 551.392 667.433 542.089 665.665 541.299C661.424 539.404 655.005 538.06 650.013 535.899C649.087 536.537 649.462 536.117 649.122 537.382C642.695 533.542 615.212 510.157 609.543 510.618C607.759 509.913 603.083 507.081 601.068 505.937C595.252 502.632 589.86 499.526 583.767 496.697C558.024 484.697 531.138 475.323 503.515 468.716C503.465 466.245 503.588 464.119 503.725 461.667C506.868 459.991 509.904 458.012 513.066 456.285C536.567 443.45 570.274 433.183 595.586 446.554C617.846 458.314 628.269 487.001 633.026 510.197C633.279 511.43 633.553 511.611 634.508 512.09C634.796 510.411 633.842 507.14 633.459 505.32C627.924 478.997 614.231 448.406 585.723 441.068C556.361 433.51 528.855 445.845 503.76 459.935C502.429 437.641 481.933 430.113 463.011 428.823C458.115 428.489 450.846 426.889 446.982 423.774C441.854 419.64 439.591 411.499 436.291 405.901C427.448 388.964 410.708 381.556 393.045 377.046C379.516 373.592 365.893 371.313 351.908 372.862C350.329 373.042 347.199 373.243 345.86 373.739L345.724 374.793C345.546 377.348 345.213 377.79 343.972 380.067C328.671 366.083 308.086 360.887 288.459 366.86C272.332 371.768 249.734 379.301 234.983 366.9C222.557 356.454 224.287 354.54 206.447 357.28C208.453 349.18 211.648 339.733 214.182 331.703C227.842 288.413 247.719 256.494 289.494 235.562C306.261 227.16 320.692 221.984 338.742 216.975C350.519 213.479 362.375 209.81 374.609 208.103C401.38 204.367 430.493 203.882 457.438 205.511C480.523 206.906 504.629 212.108 527.043 217.291C545.537 221.384 563.847 226.275 581.919 231.948C592.456 235.322 608.255 240.102 617.91 244.393C665.95 266.04 710.561 301.622 743.135 343.068C777.554 386.861 807.249 438.162 822.153 492.073C823.064 495.485 823.847 498.984 824.583 502.433C833.459 544.024 834.928 585.634 831.697 627.942C830.837 639.206 830.21 650.775 828.518 661.992C824.937 684.371 819.631 706.44 812.648 728.001C806.96 745.6 793.825 780.093 776.772 789.981C775.339 790.812 772.629 791.235 771.031 790.511C764.102 787.375 763.243 775.401 762.604 769.101C761.326 754.235 761.285 739.175 759.565 724.35C758.178 712.399 754.586 700.41 750.629 689.041C745.348 673.867 739.362 659.019 732.787 644.344C745.136 656.964 760.613 685.287 765.37 702.135C767.451 709.505 769.481 719.794 772.016 726.382L772.298 727.105C774.546 722.12 776.351 712.571 777.701 706.969C784.491 678.813 787.969 646.008 778.436 618.176C772.908 602.038 764.149 581.619 750.576 570.753C745.02 566.305 741.057 564.299 734.826 561.145C723.823 530.945 718.351 515.031 697.525 488.695C668.338 451.786 632.355 423.866 584.086 418.74C554.783 415.629 526.207 420.775 498.623 407.378C469.751 394.247 463.017 370.667 439.234 354.073C419.822 340.529 395.89 343.061 373.752 347.632ZM444.276 220.712C440.385 221.029 428.759 220.921 427.076 222.769L427.336 223.275C431.164 222.429 437.688 222.362 441.805 222.288C463.919 221.889 487.639 222.223 509.51 225.836C513.423 226.363 520.95 227.673 524.461 227.325L525.313 226.664C521.656 222.201 455.028 219.941 444.276 220.712ZM355.823 228.695C338.544 231.072 297.197 243.793 283.81 258.085C283.124 258.818 283.341 258.86 283.402 259.884C299.794 246.137 317.564 239.987 337.899 234.068C341.082 233.141 354.325 230.426 355.909 229.64L355.823 228.695ZM561.615 244.598C561.951 245.058 562.287 245.518 562.623 245.979C571.6 248.797 580.757 251.028 589.763 253.747C594.069 255.037 598.322 256.496 602.512 258.123C626.101 267.082 656.965 283.068 677.634 298.052C682.685 301.747 687.658 305.547 692.549 309.45C695.778 312.075 707.591 322.662 709.891 323.604C707.427 319.785 702.581 315.824 699.09 312.897C660.773 280.773 614.415 256.659 565.677 245.186C564.426 244.891 562.897 244.651 561.615 244.598ZM246.376 286.873C242.77 291.761 222.32 323.435 227.329 327.721C230.5 314.511 238.565 299.077 246.867 288.358L246.899 287.426L246.376 286.873ZM254.844 299.43C250.414 305.141 241.222 322.384 240.828 329.168L241.23 329.607C244.827 321.897 246.95 313.52 251.875 306.393C253.088 304.638 254.691 302.204 255.39 300.263L254.844 299.43ZM721.124 352.436C725.977 358.065 734.379 363.412 739.899 369.113C758.607 388.437 774.775 410.777 785.833 435.359C786.682 437.24 789.28 443.796 790.903 444.3C789.873 439.615 785.901 431.359 783.611 426.846C772.51 404.475 757.668 384.166 739.727 366.794C735.651 362.831 726.207 353.732 721.124 352.436ZM739.275 388.716C740.005 390.48 745.357 397.429 746.675 398.525C750.788 401.946 760.894 419.093 763.864 420.677C761.459 414.641 747.283 392.795 740.933 388.998C740.381 388.904 739.828 388.81 739.275 388.716ZM798.518 469.408C798.959 472.884 801.328 477.897 802.745 481.336C806.336 490.052 809.438 498.966 812.014 508.038C813.155 512.059 813.614 516.299 815.403 520.122L816.424 520.49C815.098 511.833 804.491 472.661 798.518 469.408ZM817.563 617.643C817.416 628.329 817.942 638.628 816.861 649.282C816.062 657.163 814.287 664.55 813.114 672.274L813.708 672.615L814.276 672.395C817.749 657.64 820.368 633.941 818.777 618.735C818.139 617.741 818.56 618.085 817.563 617.643ZM773.039 727.107C772.486 728.413 771.685 730.301 771.777 731.71C772.255 739.036 772.917 747.095 773.411 754.327C773.687 758.361 773.445 782.259 775.077 784.328L775.918 784.307C775.462 772.819 774.958 761.099 774.697 749.608C774.553 743.277 772.443 732.787 773.36 727.735L773.039 727.107Z" fill="#A3C4F3"/>
<path d="M644.441 229.611L643.825 229.812L643.639 229.112C646.433 222.912 658.697 212.932 664.114 208.838C664.776 208.91 664.396 208.809 665.189 209.322C664.378 210.981 658.703 214.773 656.715 216.637C652.211 220.862 648.517 225.017 644.441 229.611Z" fill="#020202"/>
<path d="M509.51 225.836C487.639 222.223 463.919 221.889 441.805 222.288C437.688 222.362 431.164 222.429 427.336 223.275L427.076 222.769C428.759 220.921 440.385 221.029 444.276 220.712C455.028 219.941 521.656 222.201 525.313 226.664L524.461 227.325C520.95 227.673 513.423 226.363 509.51 225.836Z" fill="#020202"/>
<path d="M283.402 259.884C283.341 258.86 283.124 258.818 283.81 258.085C297.197 243.793 338.544 231.072 355.823 228.695L355.909 229.64C354.325 230.426 341.082 233.141 337.899 234.068C317.564 239.987 299.794 246.137 283.402 259.884Z" fill="#020202"/>
<path d="M877.822 488.533C884.417 474.974 890.159 458.351 891.072 443.272C895.256 374.217 855.101 298.794 798.812 260.267C789.775 254.191 780.22 248.923 770.258 244.524C766.806 242.999 760.137 241.568 757.781 238.984C760.905 239.26 768.817 242.624 771.845 243.969C793.596 253.68 813.23 267.567 829.631 284.843C868.937 325.451 892.463 379.406 892.554 436.65C892.561 441.006 891.731 448.589 891.067 452.726C889.871 460.182 882.224 485.759 877.482 490.353L876.845 490.186C876.576 488.077 877.661 473.362 877.785 469.503C878.514 446.739 875.488 420.158 865.058 399.634C864.274 398.422 864.24 398.236 863.733 396.863L864.028 396.419C866.646 399.398 869.371 406.701 870.707 410.464C880.022 436.701 879.507 461.32 877.822 488.533Z" fill="#193327"/>
<path d="M709.891 323.604C707.591 322.662 695.778 312.075 692.549 309.45C687.658 305.547 682.685 301.747 677.634 298.052C656.965 283.068 626.101 267.082 602.512 258.123C598.322 256.496 594.069 255.037 589.763 253.747C580.757 251.028 571.6 248.797 562.623 245.979C562.287 245.518 561.951 245.058 561.615 244.598C562.897 244.651 564.426 244.891 565.677 245.186C614.415 256.659 660.773 280.773 699.09 312.897C702.581 315.824 707.427 319.785 709.891 323.604Z" fill="#020202"/>
<path d="M827.991 312.592C827.023 312.178 817.247 299.255 815.533 297.249C801.457 280.778 784.257 269.474 764.839 260.196C761.033 258.378 755.171 256.709 751.738 254.604C753.238 254.526 754.643 254.865 756.046 255.367C781.812 264.589 815.41 288.526 827.991 312.592Z" fill="#193327"/>
<path d="M227.329 327.721C222.32 323.435 242.77 291.761 246.376 286.873L246.899 287.426L246.867 288.358C238.565 299.077 230.5 314.511 227.329 327.721Z" fill="#020202"/>
<path d="M241.23 329.607L240.828 329.168C241.222 322.384 250.414 305.141 254.844 299.43L255.39 300.263C254.691 302.204 253.088 304.638 251.875 306.393C246.95 313.52 244.827 321.897 241.23 329.607Z" fill="#020202"/>
<path d="M328.757 343.691L327.103 344.317L326.393 343.739C326.176 339.095 332.379 329.075 335.421 325.688C344.846 315.192 360.753 315.863 370.201 326.023C376.7 333.012 376.873 339.1 373.752 347.632L374.528 348.673C371.889 349.284 370.965 350.314 368.922 351.925C358.913 359.816 342.894 361.477 332.235 353.941C330.452 352.68 328.071 349.957 327.245 347.963L327.651 347.516C329.592 348.901 331.323 351.246 333.82 353.033C344.745 360.85 368.661 356.792 371.462 341.96C372.563 336.13 368.58 330.339 365.116 325.756C368.111 333.947 368.761 338.975 361.736 345.17C350.778 354.835 334.876 348.487 338.726 332.834C340.509 325.587 344.499 326.368 349.981 322.717C340.898 321.631 330.68 335.7 328.757 343.691ZM351.988 323.921C347.278 329.136 350.827 334.918 357.184 334.168C362.987 329.082 359.386 323.004 351.988 323.921Z" fill="#020202"/>
<path d="M328.757 343.691C330.68 335.7 340.898 321.631 349.981 322.717C344.499 326.368 340.509 325.587 338.726 332.834C334.876 348.487 350.778 354.835 361.736 345.17C368.761 338.975 368.111 333.947 365.116 325.756C368.58 330.339 372.563 336.13 371.462 341.96C368.661 356.792 344.745 360.85 333.82 353.033C331.323 351.246 329.592 348.901 327.651 347.516C328.774 345.706 328.743 345.819 328.757 343.691Z" fill="#8EECF5"/>
<path d="M357.184 334.168C350.827 334.918 347.278 329.136 351.988 323.921C359.386 323.004 362.987 329.082 357.184 334.168Z" fill="#8EECF5"/>
<path d="M790.903 444.3C789.28 443.796 786.682 437.24 785.833 435.359C774.775 410.777 758.607 388.437 739.899 369.113C734.379 363.412 725.977 358.065 721.124 352.436C726.207 353.732 735.651 362.831 739.727 366.794C757.668 384.166 772.51 404.475 783.611 426.846C785.901 431.359 789.873 439.615 790.903 444.3Z" fill="#020202"/>
<path d="M198.1 366.951C204.274 360.923 203.506 359.308 213.107 359.22C232.787 359.039 229.113 372.838 249.157 375.926C267.139 378.696 274.29 372.439 289.424 369.217C307.252 366.481 329.839 367.424 343.114 381.391C347.694 386.209 350.065 392.032 349.936 398.458C349.727 408.881 343.727 416.129 334.112 419.404C332.144 420.074 330.027 420.66 328.384 422.018L327.768 422.952C322.951 423.1 316.785 422.343 312.147 422.669C296.595 423.764 278.394 425.621 263.143 428.528C240.767 432.794 218.52 440.733 195.926 444.002C186.139 445.418 169.125 448.013 160.601 441.534C159.304 440.548 159.36 440.04 159.312 438.82C160.521 437.599 164.392 437.655 166.263 437.211C187.64 432.14 210.079 425.532 231.102 419.17L232.949 420.077C225.145 422.38 199.598 430.63 192.84 434.032L192.786 434.531C193.15 434.496 241.124 418.479 243.192 417.672C248.212 415.728 253.074 413.398 257.734 410.702C272.357 401.571 282.028 393.423 292.621 379.602C296.182 374.883 297.024 375.41 302.178 372.586L302.142 372.135C289.602 371.101 272.141 389.053 263.562 397.46C248.493 412.229 228.276 415.999 208.619 421.859C193.966 426.228 169.865 435.584 154.574 435.126C152.213 433.698 149.16 431.428 148.278 428.771C138.028 397.875 191.191 384.317 198.1 366.951ZM169.652 406.672C167.112 409.054 162.28 413.376 167.446 416.134C169.662 413.749 171.353 412.112 172.045 408.932C171.835 408.161 171.935 407.696 171.216 407.267C170.433 406.799 170.707 406.96 169.652 406.672Z" fill="#8EECF5"/>
<path d="M345.724 374.793C351.809 374.523 358.202 373.419 364.437 373.915C385.248 375.572 408.761 380.102 425.245 393.749C436.266 402.873 437.069 416.079 446.064 425.2C451.347 430.556 465.978 430.199 472.867 431.509C488.205 434.169 502.299 444.388 502.217 461.392C502.202 464.602 502.041 470.895 502.43 473.659C506.457 502.27 513.869 530.815 535.675 551.331C538.925 554.39 544.109 559.156 542.19 564.125C539.159 566.989 531.261 566.711 527.264 566.607C510.447 566.098 495.319 558.608 480.608 551.32C441.791 532.091 413.467 497.446 402.821 455.369C401.282 449.287 399.029 442.809 399.323 436.493C382.817 432.763 366.045 428.548 349.443 425.445C342.755 424.195 334.609 423.674 327.768 422.952L328.384 422.018C350.745 420.147 358.689 396.705 343.972 380.067C345.213 377.79 345.546 377.348 345.724 374.793ZM401.06 437.13C403.49 438.554 405.28 438.806 408.063 439.277C411.752 469.313 434.791 509.758 458.891 528.183C476.026 541.284 496.189 549.895 517.048 555.015C519.841 555.701 522.783 557.312 525.507 557.419L525.669 556.995C522.12 554.802 506.374 550.468 501.229 548.69C489.626 544.68 481.607 540.744 471.074 534.467C434.743 510.288 419.938 479.732 409.051 439.022C426.028 439.855 440.629 441.273 456.646 447.783C462.428 450.134 467.938 454.269 473.601 455.717C453.629 442.415 439.311 439.551 415.491 437.812C412.273 437.577 403.661 436.708 401.06 437.13ZM475.093 467.887C476.819 477.576 491.541 510.281 500.444 515.182L500.188 514.757C492.995 503.066 484.397 494.112 480.099 480.125C479.556 478.36 475.888 468.9 475.093 467.887Z" fill="#FFCFD2"/>
<path d="M290.846 379.118L291.301 378.445L292.621 379.602C282.028 393.423 272.357 401.571 257.734 410.702L256.876 410.161C268.216 403.378 283.32 389.975 290.846 379.118Z" fill="#020202"/>
<path d="M231.102 419.17C251.675 412.915 258.445 408.186 273.858 393.024C279.251 387.72 284.524 383.263 290.846 379.118C283.32 389.975 268.216 403.378 256.876 410.161C247.848 414.968 242.903 417.097 232.949 420.077L231.102 419.17Z" fill="url(#paint0_linear_6_11183)"/>
<path d="M763.864 420.677C760.894 419.093 750.788 401.946 746.675 398.525C745.357 397.429 740.005 390.48 739.275 388.716C739.828 388.81 740.381 388.904 740.933 388.998C747.283 392.795 761.459 414.641 763.864 420.677Z" fill="#020202"/>
<path d="M167.446 416.134C162.28 413.376 167.112 409.054 169.652 406.672C170.707 406.96 170.433 406.799 171.216 407.267C171.935 407.696 171.835 408.161 172.045 408.932C171.353 412.112 169.662 413.749 167.446 416.134Z" fill="#020202"/>
<path d="M232.949 420.077C242.903 417.097 247.848 414.968 256.876 410.161L257.734 410.702C253.074 413.398 248.212 415.728 243.192 417.672C241.124 418.479 193.15 434.496 192.786 434.531L192.84 434.032C199.598 430.63 225.145 422.38 232.949 420.077Z" fill="#3A6C70"/>
<path d="M83.1841 490.268C75.43 492.701 64.6594 494.105 58.3385 488.569C43.645 475.701 53.5541 446.404 63.6934 433.973C75.4472 419.562 88.6437 414.52 106.036 412.706C108.556 412.281 114.725 412.552 117.307 412.94C127.4 414.457 133.827 415.228 140.338 423.431C140.284 423.587 140.23 423.743 140.176 423.899C128.121 449.102 108.575 478.768 83.1841 490.268Z" fill="#FBF8CC"/>
<path d="M608.084 425.235C644.027 434.027 675.594 462.279 697.448 491.08C702.07 497.172 706.666 503.052 710.632 509.487C721.205 526.643 728.601 544.628 733.965 564.026C735.206 568.516 737.842 573.283 739.32 577.749C741.167 583.436 742.819 591.053 743.958 596.981C745.259 603.876 746.094 610.85 746.458 617.857C746.658 621.894 745.683 631.857 747.38 634.126C750.323 609.08 743.825 586.394 735.257 563.409C749.466 569.589 755.832 576.122 763.885 589.273C790.767 633.17 784.454 677.422 771.976 724.75C766.215 694.469 760.745 680.095 742.898 654.098C740.126 650.06 733.803 643.495 731.776 640.13C724.712 628.399 717.803 616.384 709.954 605.127C685.905 570.633 654.419 539.722 619.128 516.764C615.931 514.684 612.71 512.687 609.543 510.618C615.212 510.157 642.695 533.542 649.122 537.382C649.462 536.117 649.087 536.537 650.013 535.899C655.005 538.06 661.424 539.404 665.665 541.299C667.433 542.089 667.333 551.392 673.202 552.402C678.898 553.381 679.609 550.573 684.851 554.16L685.073 554.721C685.175 554.972 685.278 555.223 685.38 555.474C687.451 559.882 692.244 562.9 694.444 567.572C695.45 569.708 696.135 572.851 696.97 575.123L699.238 575.357C699.968 575.992 700.913 576.815 701.628 577.437L704.314 576.601C706.924 577.871 709.056 584.139 709.628 586.84C710.756 592.173 718.751 603.911 722.898 607.118L723.031 605.725L723.481 605.538C726.953 607.42 728.73 613.045 733.12 612.924C735.751 612.852 739.341 614.663 741.585 613.324C741.825 612.357 742.054 611.601 742.358 610.65L743.091 610.587L743.848 611.695C743.863 612.97 744.935 618.013 745.239 619.648L745.545 619.326C745.946 616.673 744.676 605.797 744.174 603.053C742.484 591.325 739.968 581.96 735.548 571.053C730.531 558.674 728.053 545.366 722.105 533.049C701.818 491.031 666.872 449.435 622.973 431.289C620.307 430.187 609.188 426.44 608.084 425.235Z" fill="url(#paint1_linear_6_11183)"/>
<path d="M190.285 448.142C213.51 445.922 229.218 439.362 250.991 434.699C281.887 428.083 319.941 423.569 351.205 428.731C364.703 430.96 379.228 435.804 392.664 438.32C386.744 442.677 380.371 449.968 375.726 455.745C358.723 477.033 345.977 503.17 341.949 530.313C338.928 550.672 338.046 576.68 349.468 594.83C351.108 597.437 356.831 602.038 359.642 598.736C363.36 594.37 365.886 587.879 368.831 582.789C371.009 579.035 373.562 575.51 376.45 572.27C381.408 566.614 386.888 560.899 392.349 555.74C402.759 545.906 422.815 529.693 430.319 517.515C454.038 544.791 489.585 565.312 525.608 570.113C530.001 570.699 541.617 569.949 544.631 566.941C552.548 559.042 535.911 547.178 531.782 542.121C515.781 522.517 508.958 497.797 506.788 473.094C521.91 475.623 537.325 481.849 551.448 486.942C640.534 519.073 712.933 591.466 744.077 681.053C747.383 690.565 751.577 699.819 753.783 709.875C747.407 710.262 716.207 723.062 708.2 725.869C673.977 737.867 638.818 745.984 602.761 750.068C595.628 750.888 588.893 752.149 581.725 752.395C569.565 752.924 557.642 753.828 545.462 753.288C543.222 753.189 539.342 753.003 537.208 753.358C500.297 752.034 456.507 744.173 421.508 731.597C416.111 729.046 409.971 727.216 404.397 724.846C294.695 678.198 218.824 560.378 190.285 448.142ZM444.224 639.371C449.79 651.475 472.256 666.695 483.92 673.032C516.522 690.743 558.716 698.222 595.248 691.042C574.613 703.163 537.007 704.569 514.269 697.882C501.564 694.146 490.63 689.144 479.04 682.824C475.71 681.008 465.397 674.103 463.088 673.54L463.15 674.155L464.89 675.446C490.692 691.816 516.334 703.786 547.766 702.816C564.331 702.305 585.186 698.876 599.662 690.365L598.89 690.344C592.559 690.204 586.715 691.791 580.503 692.225C533.907 695.478 485.186 681.308 451.902 647.546C450.173 645.791 445.923 640.529 444.224 639.371ZM537.14 665.009C551.797 674.856 574.778 679.174 592.351 679.449C601.431 679.59 619.566 676.96 627.652 673.265C625.359 672.781 619.188 674.86 616.573 675.489C596.427 680.336 575.844 678.731 556.152 672.698C551.419 671.248 540.982 665.332 537.14 665.009Z" fill="#FDE4CF"/>
<path d="M408.063 439.277C405.28 438.806 403.49 438.554 401.06 437.13C403.661 436.708 412.273 437.577 415.491 437.812C439.311 439.551 453.629 442.415 473.601 455.717C467.938 454.269 462.428 450.134 456.646 447.783C440.629 441.273 426.028 439.855 409.051 439.022C419.938 479.732 434.743 510.288 471.074 534.467C481.607 540.744 489.626 544.68 501.229 548.69C506.374 550.468 522.12 554.802 525.669 556.995L525.507 557.419C522.783 557.312 519.841 555.701 517.048 555.015C496.189 549.895 476.026 541.284 458.891 528.183C434.791 509.758 411.752 469.313 408.063 439.277Z" fill="#020202"/>
<path d="M427.729 514.346C417.735 530.778 393.426 548.03 380.179 562.519C375.355 567.796 370.286 574.963 366.512 581.04C363.402 586.047 360.986 591.169 357.44 595.957C356.025 596.597 356.788 596.438 355.037 596.141C353.502 595.07 351.791 592.671 350.943 591.031C340.518 570.873 343.143 538.68 348.368 517.68C354.299 493.842 363.649 473.878 379.099 454.993C384.427 448.48 387.483 444.207 394.753 439.91C395.599 440.828 396.877 447.561 397.194 449.078C400.852 466.587 408.131 482.858 416.21 498.639C409.527 508.612 403.396 513.958 393.588 520.953C371.894 536.423 363.839 550.784 356.116 575.624C344.001 545.21 362.73 496.983 381.197 471.712C382.367 470.11 384.355 468.189 384.652 466.28L383.899 466.087C383.713 466.247 383.526 466.406 383.34 466.565C365.159 490.01 352.712 520.544 351.108 550.213C350.721 557.367 351.866 572.589 355.821 576.885L356.676 576.812C357.939 575.299 358.702 571.914 359.308 569.88C367.761 545.28 377.745 534.019 398.365 519.561C405.723 514.403 412.271 508.013 416.847 500.198C419.937 504.882 424.178 509.911 427.729 514.346Z" fill="#FFCFD2"/>
<path d="M157.675 442.514C164.28 450.808 180.73 449.372 190.285 448.142C218.824 560.378 294.695 678.198 404.397 724.846C409.971 727.216 416.111 729.046 421.508 731.597C421.012 734.017 423.212 741.643 423.989 744.376C431.395 770.395 439.991 790.595 454.06 813.49C447.922 815.506 441.065 818.334 434.791 820.491C292.273 869.494 132.237 773.946 112.966 623.105C105.237 562.611 121.102 492.23 157.675 442.514ZM192.215 539.868C186.663 555.859 182.629 568.494 179.665 585.338C172.513 627.17 178.47 670.19 196.722 708.504C202.904 721.24 210.143 732.692 219.802 743.102C221.277 744.692 223.38 747.287 225.198 748.14C219.913 740.159 212.694 734.121 207.313 725.444C181.456 683.02 172.077 632.577 180.958 583.694C182.73 574.175 185.025 564.761 187.834 555.494C188.676 552.786 193.325 541.597 192.215 539.868ZM163.94 595.745C162.183 602.465 160.449 608.654 159.524 615.928C151.451 679.463 186.067 747.032 245.05 773.704C245.403 773.863 246.395 774.001 246.81 774.071C244.947 772.256 241.794 770.793 239.413 769.594C180.674 739.998 148.679 666.987 163.078 603.379C163.553 601.278 165.207 597.162 163.94 595.745Z" fill="#B9FBC0"/>
<path d="M500.444 515.182C491.541 510.281 476.819 477.576 475.093 467.887C475.888 468.9 479.556 478.36 480.099 480.125C484.397 494.112 492.995 503.066 500.188 514.757L500.444 515.182Z" fill="#372B2F"/>
<path d="M816.424 520.49L815.403 520.122C813.614 516.299 813.155 512.059 812.014 508.038C809.438 498.966 806.336 490.052 802.745 481.336C801.328 477.897 798.959 472.884 798.518 469.408C804.491 472.661 815.098 511.833 816.424 520.49Z" fill="#020202"/>
<path d="M910.418 524.792C919.199 528.099 925.648 530.334 933.808 535.265C968.525 556.244 977.554 611.341 935.359 629.736C916.554 637.935 897.201 636.066 877.627 631.632C869.408 629.759 858.974 627.733 851.939 623.008C877.413 591.491 895.725 563.049 910.418 524.792Z" fill="#FBF8CC"/>
<path d="M225.198 748.14C223.38 747.287 221.277 744.692 219.802 743.102C210.143 732.692 202.904 721.24 196.722 708.504C178.47 670.19 172.513 627.17 179.665 585.338C182.629 568.494 186.663 555.859 192.215 539.868C193.325 541.597 188.676 552.786 187.834 555.494C185.025 564.761 182.73 574.175 180.958 583.694C172.077 632.577 181.456 683.02 207.313 725.444C212.694 734.121 219.913 740.159 225.198 748.14Z" fill="#193327"/>
<path d="M246.81 774.071C246.395 774.001 245.403 773.863 245.05 773.704C186.067 747.032 151.451 679.463 159.524 615.928C160.449 608.654 162.183 602.465 163.94 595.745C165.207 597.162 163.553 601.278 163.078 603.379C148.679 666.987 180.674 739.998 239.413 769.594C241.794 770.793 244.947 772.256 246.81 774.071Z" fill="#193327"/>
<path d="M814.276 672.395L813.708 672.615L813.114 672.274C814.287 664.55 816.062 657.163 816.861 649.282C817.942 638.628 817.416 628.329 817.563 617.643C818.56 618.085 818.139 617.741 818.777 618.735C820.368 633.941 817.749 657.64 814.276 672.395Z" fill="#020202"/>
<path d="M595.248 691.042C558.716 698.222 516.522 690.743 483.92 673.032C472.256 666.695 449.79 651.475 444.224 639.371C445.923 640.529 450.173 645.791 451.902 647.546C485.186 681.308 533.907 695.478 580.503 692.225C586.715 691.791 592.559 690.204 598.89 690.344L599.662 690.365C585.186 698.876 564.331 702.305 547.766 702.816C516.334 703.786 490.692 691.816 464.89 675.446L463.15 674.155L463.088 673.54C465.397 674.103 475.71 681.008 479.04 682.824C490.63 689.144 501.564 694.146 514.269 697.882C537.007 704.569 574.613 703.163 595.248 691.042Z" fill="#593B2C"/>
<path d="M627.652 673.265C619.566 676.96 601.431 679.59 592.351 679.449C574.778 679.174 551.797 674.856 537.14 665.009C540.982 665.332 551.419 671.248 556.152 672.698C575.844 678.731 596.427 680.336 616.573 675.489C619.188 674.86 625.359 672.781 627.652 673.265Z" fill="#593B2C"/>
<path d="M875.515 717.5C863.163 717.893 853.186 712.521 849.908 700.419C845.942 685.774 851.694 673.703 866.287 669.629C871.828 669.181 875.294 669.461 880.445 672.285C894.421 679.947 897.755 705.525 883.511 714.535C881.033 716.102 878.377 716.799 875.515 717.5Z" fill="#FDE4CF"/>
<path d="M581.725 752.395C588.893 752.149 595.628 750.888 602.761 750.068C638.818 745.984 673.977 737.867 708.2 725.869C716.207 723.062 747.407 710.262 753.783 709.875C755.319 715.984 753.105 719.185 750.528 724.465C737.593 750.964 712.872 765.402 689.504 781.301C657.954 802.765 622.889 836.2 626.883 877.854C605.322 889.538 587.14 893.542 562.519 890.353C529.115 886.026 489.385 861.661 469.003 835.094C472.354 833.727 477.821 832.576 481.5 831.619C487.421 830.102 493.237 828.201 498.912 825.929C526.381 814.739 551.856 792.949 569.864 769.607C573.919 764.351 578.027 757.964 581.725 752.395Z" fill="#FFCFD2"/>
<path d="M755.561 725.935C746.407 755.211 738.423 766.736 710.367 780.884C704.631 783.777 683.043 794.651 680.085 799.649C681.477 799.734 685.066 796.581 686.538 795.572C698.124 787.635 711.153 782.492 723.109 775.219C727.122 772.82 730.912 770.064 734.432 766.985C742.799 759.56 749.604 748.493 752.748 737.803C753.139 736.471 755.835 727.823 756.258 727.018C758.687 740.21 758.172 777.008 762.617 784.601C784.322 821.676 813.036 735.866 816.322 726.411C820.494 740.039 820.29 750.277 828.732 764.069C836.726 777.128 846.252 785.155 857.124 795.797C876.5 814.764 889.016 841.777 893.321 868.567C895.375 881.35 894.903 903.493 887.789 915.441C887.06 916.667 885.601 917.429 884.096 917.58C883.403 917.264 882.238 916.838 881.986 916.03C875.337 894.733 856.841 880.414 836.06 873.661C819.952 868.427 799.829 867.317 786.837 854.802C780.504 848.703 775.112 841.455 770.625 833.846C769.398 831.795 768.931 829.671 767.648 827.473L766.828 827.389C763.845 829.734 762.512 832.644 760.054 835.165C755.104 840.241 748.747 845.78 742.514 849.154C713.887 864.653 682.679 850.058 653.376 866.4C646.72 870.112 641.217 875.833 635.599 880.799C634.318 881.932 632.29 883.382 630.488 883.188C630.104 882.599 629.543 881.707 629.444 881.01C628.059 871.268 629.829 860.249 633.002 851.247C643.38 821.797 666.831 800.862 691.866 783.691C703.845 775.475 716.87 767.606 727.811 757.899C735.738 750.867 744.294 740.974 749.924 731.924C751.817 728.88 753.129 725.242 755.021 721.998C755.749 722.966 755.504 724.427 755.561 725.935ZM814.046 738.779C811.784 749.804 813.843 770.239 820.526 779.934C829.307 792.671 843.744 799.859 855.347 809.18C879.808 828.831 888.765 865.128 883.366 895.223C880.584 884.564 878.432 879.164 872.268 870.116C860.096 852.247 842.759 841.329 821.895 836.169C809.096 833.004 794.316 831.628 783.547 823.393C778.625 819.584 775.69 813.911 771.428 809.644C772.944 813.251 773.932 815.508 776.365 818.681C796.98 842.992 835.59 828.226 865.657 864.073C872.377 872.085 877.551 881.015 880.799 890.969C881.977 894.579 882.535 899.317 884.637 902.449L885.24 902.423C885.533 899.915 885.177 898.226 885.373 895.795C885.766 890.854 886.685 885.884 886.691 880.921C886.728 859.89 880.31 836.698 867.664 819.708C856.416 805.058 839.13 797.804 826.366 784.785C818.329 776.589 815.83 767.587 814.861 756.384C814.602 753.389 814.916 740.405 814.046 738.779ZM672.952 804.491C657.388 819.178 636.481 840.527 636.151 862.892C636.121 864.869 635.802 869.301 636.859 870.829L637.686 871.01C639.831 869.216 641.328 865.55 643.168 863.114C646.379 858.864 650 855.75 654.019 852.412C676.891 833.414 704.894 830.69 733.185 827.099C741.539 826.039 750.587 825.167 758.847 823.185L758.247 822.524C753.576 822.449 741.114 824.971 735.694 825.469C700.511 828.7 655.081 836.249 636.753 870.929C637.14 862.952 637.224 856.331 640.146 848.734C646.742 831.587 660.417 819.15 672.631 806.039C673.105 805.531 673.52 805.14 672.952 804.491Z" fill="url(#paint2_linear_6_11183)"/>
<path d="M756.258 727.018C755.835 727.823 753.139 736.471 752.748 737.803C749.604 748.493 742.799 759.56 734.432 766.985C730.912 770.064 727.122 772.82 723.109 775.219C711.153 782.492 698.124 787.635 686.538 795.572C685.066 796.581 681.477 799.734 680.085 799.649C683.043 794.651 704.631 783.777 710.367 780.884C738.423 766.736 746.407 755.211 755.561 725.935L756.258 727.018Z" fill="#020202"/>
<path d="M775.918 784.307L775.077 784.328C773.445 782.259 773.687 758.361 773.411 754.327C772.917 747.095 772.255 739.036 771.777 731.71C771.685 730.301 772.486 728.413 773.039 727.107L773.36 727.735C772.443 732.787 774.553 743.277 774.697 749.608C774.958 761.099 775.462 772.819 775.918 784.307Z" fill="#020202"/>
<path d="M933.642 790.873C930.075 785.918 927.118 782.267 922.777 777.882C915.171 770.198 905.429 763.679 901.422 753.25C899.575 748.442 899.129 742.038 901.426 737.313C903.213 733.64 905.618 732.334 909.234 731.015C937.461 729.393 945.203 771.078 935.582 791.975L934.89 792.219L933.642 790.873Z" fill="#FBF8CC"/>
<path d="M454.06 813.49C439.991 790.595 431.395 770.395 423.989 744.376C423.212 741.643 421.012 734.017 421.508 731.597C456.507 744.173 500.297 752.034 537.208 753.358C535.37 756.21 527.78 763.675 524.964 766.248C511.415 778.635 496.614 790.462 480.657 799.604C472.002 804.563 462.901 808.875 454.06 813.49Z" fill="#98F5E1"/>
<path d="M883.366 895.223C888.765 865.128 879.808 828.831 855.347 809.18C843.744 799.859 829.307 792.671 820.526 779.934C813.843 770.239 811.784 749.804 814.046 738.779C814.916 740.405 814.602 753.389 814.861 756.384C815.83 767.587 818.329 776.589 826.366 784.785C839.13 797.804 856.416 805.058 867.664 819.708C880.31 836.698 886.728 859.89 886.691 880.921C886.685 885.884 885.766 890.854 885.373 895.795C885.177 898.226 885.533 899.915 885.24 902.423L884.637 902.449C882.535 899.317 881.977 894.579 880.799 890.969C877.551 881.015 872.377 872.085 865.657 864.073C835.59 828.226 796.98 842.992 776.365 818.681C773.932 815.508 772.944 813.251 771.428 809.644C775.69 813.911 778.625 819.584 783.547 823.393C794.316 831.628 809.096 833.004 821.895 836.169C842.759 841.329 860.096 852.247 872.268 870.116C878.432 879.164 880.584 884.564 883.366 895.223Z" fill="#020202"/>
<path d="M537.208 753.358C539.342 753.003 543.222 753.189 545.462 753.288C557.642 753.828 569.565 752.924 581.725 752.395C578.027 757.964 573.919 764.351 569.864 769.607C551.856 792.949 526.381 814.739 498.912 825.929C493.237 828.201 487.421 830.102 481.5 831.619C477.821 832.576 472.354 833.727 469.003 835.094C463.344 827.584 458.597 821.826 454.06 813.49C462.901 808.875 472.002 804.563 480.657 799.604C496.614 790.462 511.415 778.635 524.964 766.248C527.78 763.675 535.37 756.21 537.208 753.358Z" fill="#F1C0E8"/>
<path d="M758.847 823.185C750.587 825.167 741.539 826.039 733.185 827.099C704.894 830.69 676.891 833.414 654.019 852.412C650 855.75 646.379 858.864 643.168 863.114C641.328 865.55 639.831 869.216 637.686 871.01L636.859 870.829C635.802 869.301 636.121 864.869 636.151 862.892C636.481 840.527 657.388 819.178 672.952 804.491C673.52 805.14 673.105 805.531 672.631 806.039C660.417 819.15 646.742 831.587 640.146 848.734C637.224 856.331 637.14 862.952 636.753 870.929C655.081 836.249 700.511 828.7 735.694 825.469C741.114 824.971 753.576 822.449 758.247 822.524L758.847 823.185Z" fill="#020202"/>
<path d="M367.689 916.498C351.874 924.534 330.129 923.324 316.589 911.417C302.904 899.384 301.9 880.604 313.812 867.021C322.602 856.838 335.106 850.604 348.528 849.713C357.124 848.706 370.044 850.906 379.041 850.828C389.952 850.735 401.34 849.155 412.158 849.377C412.499 876.473 391.294 904.764 367.689 916.498Z" fill="#FBF8CC"/>
<defs>
<linearGradient id="paint0_linear_6_11183" x1="256.093" y1="395.564" x2="265.202" y2="404.733" gradientUnits="userSpaceOnUse">
<stop stop-color="#74CEEB"/>
<stop offset="1" stop-color="#A3EBFC"/>
</linearGradient>
<linearGradient id="paint1_linear_6_11183" x1="674.755" y1="638.271" x2="774.91" y2="613.17" gradientUnits="userSpaceOnUse">
<stop stop-color="#FFE0D6"/>
<stop offset="1" stop-color="#D2DBFD"/>
</linearGradient>
<linearGradient id="paint2_linear_6_11183" x1="758.839" y1="902.052" x2="778.613" y2="725.317" gradientUnits="userSpaceOnUse">
<stop stop-color="#B5EDF7"/>
<stop offset="1" stop-color="#9FB8FF"/>
</linearGradient>
</defs>
</svg>
