<svg width="1024" height="1024" viewBox="0 0 1024 1024" fill="none" xmlns="http://www.w3.org/2000/svg">
<path d="M460.572 230.139C466.218 224.359 472.55 216.875 478.298 211.535C521.575 171.338 574.183 140.014 634.846 139.54C682.527 139.168 720.6 159.454 754.443 191.73C769.08 205.688 782.549 225.39 792.337 242.931C818.381 289.479 832.066 341.922 832.088 395.259C832.209 403.05 831.98 410.842 831.402 418.612C828.657 417.774 823.295 415.325 819.954 414.183C806.385 409.546 793.987 405.229 779.857 402.747C779.016 396.628 779.012 385.576 778.468 379.002C776.592 356.363 776.727 333.842 775.956 311.209C776.681 311.117 777.402 310.999 778.119 310.854C790.17 308.46 791.378 292.289 783.111 287.746C770.289 280.699 755.343 300.743 772.186 310.163C769.418 340.668 766.407 371.151 763.154 401.608C734.871 397.452 698.817 404.761 672.124 414.832C665.336 417.393 657.442 420.401 651.628 424.694C651.111 423.616 650.576 422.547 650.024 421.486C643.813 409.5 636.021 397.263 628.775 385.818C616.151 365.47 597.77 352.86 579.137 339.164C556.061 322.202 536.297 311.384 508.927 302.686C507.319 297.542 503.523 290.366 500.906 285.454C489.485 264.014 476.925 248.246 460.694 230.507L460.572 230.139Z" fill="#B9FBC0"/>
<path d="M134.112 637.527C95.5017 613.144 71.729 581.202 59.7781 537.197C55.74 522.328 53.6112 510.189 53.7809 494.684C54.04 475.932 57.6108 457.373 64.3286 439.863C74.5353 413.229 94.5808 390.344 107.373 364.683C128.288 322.728 136.838 274.306 173.221 241.499C218.59 200.587 280.325 179.388 341.163 180.356C389.773 181.129 426.39 194.925 460.573 230.14L460.695 230.508C447.454 243.081 429.133 270.66 420.797 286.972C397.581 287.653 376.041 292.611 355.384 303.739C348.487 307.456 338.242 314.945 331.565 317.878C314.705 317.241 290.931 331.87 279.349 343.053C266.543 355.419 256.158 370.038 250.799 387.091C249.859 390.084 248.063 393.459 247.868 396.525C220.654 438.613 207.37 488.351 211.246 538.62C212.405 553.655 215.642 565.067 220.948 579.028L220.475 579.164C211.932 581.537 202.184 582.283 193.43 584.392C166.046 590.99 142.983 610.623 134.112 637.527Z" fill="#8EECF5"/>
<path d="M460.695 230.508C476.926 248.247 489.486 264.015 500.907 285.455C503.524 290.367 507.32 297.543 508.928 302.687C482.018 295.325 448.693 288.857 420.797 286.972C429.133 270.66 447.454 243.081 460.695 230.508Z" fill="#98F5E1"/>
<path d="M331.564 317.876C338.241 314.943 348.486 307.454 355.383 303.737C376.04 292.609 397.58 287.651 420.796 286.97C448.692 288.855 482.017 295.323 508.927 302.685C536.297 311.383 556.061 322.201 579.137 339.163C597.77 352.859 616.151 365.469 628.775 385.817C636.021 397.262 643.813 409.499 650.024 421.485C650.576 422.546 651.111 423.615 651.628 424.693C659.583 446.345 669.853 467.648 673.768 490.584C678.242 516.788 683.701 542.902 688.15 569.079C695.103 557.9 701.463 546.362 707.203 534.514C717.679 513.234 726.856 491.472 744.985 475.486C748.609 472.29 752.853 469.115 756.022 465.525C757.32 460.431 758.205 447.479 758.793 441.415C760.038 428.124 761.491 414.853 763.154 401.607C766.407 371.15 769.418 340.667 772.186 310.162C755.343 300.742 770.289 280.698 783.111 287.745C791.378 292.288 790.17 308.459 778.119 310.853C777.402 310.998 776.681 311.116 775.956 311.208C776.727 333.841 776.592 356.362 778.468 379.001C779.012 385.575 779.016 396.627 779.857 402.746C780.935 424.227 781.511 437.944 779.943 459.533C795.591 454.934 804.771 454.682 818.636 464.282C826.407 453.648 834.119 443.163 842.528 433.02C844.174 431.035 845.956 428.873 847.487 426.811C862.465 409.389 878.598 392.996 895.777 377.742C902.579 371.675 909.738 366.248 916.534 360.26C914.448 356.804 913.031 354.307 913.966 350.034C914.635 347.038 916.532 344.46 919.193 342.931C926.831 338.502 932.355 343.631 934.618 350.919C932.642 359.708 927.659 364.034 918.389 361.949C909.438 370.551 905.541 376.577 897.952 386.06C884.509 402.857 873.758 418.806 862.222 436.844C850.801 454.97 834.849 479.742 839.989 501.844C840.359 503.434 840.732 504.152 841.816 505.375C842.898 505.672 843.469 505.806 844.575 505.984C842.025 506.269 840.133 506.388 837.577 506.002C829.743 483.77 844.659 459.638 856.028 441.65C865.615 426.482 875.244 411.619 886.26 397.431C890.627 391.554 899.212 380.976 902.816 375.346L902.096 375.872C896.914 379.698 892.216 384.502 887.483 388.818C862.941 411.193 841.1 436.753 822.35 464.145C820.978 466.149 818.22 471.066 815.916 471.637L814.438 471.207C813.93 468.783 813.829 466.709 811.041 465.548C804.753 462.93 796.137 460.516 789.391 462.348C785.803 463.473 778.838 467.336 775.514 466.152C773.636 463.608 774.801 462.103 776.805 460.233C778.348 429.551 777.468 400.175 775.178 369.563C774.038 354.32 774.02 339.015 773.21 323.75C771.046 338.958 770.52 354.557 769.056 369.875C766.869 393.75 763.678 417.519 761.639 441.404C760.856 450.572 759.92 459.603 760.102 468.827C760.129 470.203 752.276 474.327 750.945 475.401C746.514 478.974 742.478 483.092 738.935 487.55C720.618 512.008 710.981 541.887 695.277 567.912C692.676 572.221 689.945 577.203 687.232 581.466C686.689 582.319 683.657 583.667 682.602 584.151C678.242 590.7 675.076 597.418 671.374 603.859C667.01 611.451 654.387 628.41 647.862 633.611L646.395 632.936C656.163 622.039 664.089 611.374 671.156 598.515C671.834 597.282 673.798 594.108 673.883 592.89C670.376 596.556 667.629 600.899 664.237 604.576C622.835 649.447 565.676 678.3 504.194 679.894C489.182 680.283 466.405 678.455 453.999 669.538C448.668 672.635 442.287 676.266 437.376 679.949C444.143 682.436 452.214 686.318 458.728 687.991C511.05 701.431 563.282 690.955 608.835 662.766C610.618 661.663 613.738 659.753 615.607 658.835L617.112 659.455C569.499 694.345 502.38 706.42 445.736 687.543C441.474 686.123 436.204 683.899 431.927 682.982C421.429 687.668 407.582 694.253 396.227 696.933C372.996 702.417 338.387 698.21 316.363 689.862C304.585 685.406 293.563 679.164 283.684 671.355C280.122 668.53 274.949 663.735 271.627 661.436C264.331 667.978 251.274 679.4 246.533 687.482C244.567 690.834 243.347 694.479 243.103 698.371C242.615 706.144 246.228 713.538 251.392 719.149C275.461 745.297 347.481 746.655 381.577 750.409C405.905 753.087 430.52 757.068 454.986 757.875C462.1 758.11 469.248 758.048 476.366 757.973L473.741 758.497C474.736 759.2 474.327 758.984 475.561 759.252C474.828 759.334 474.122 759.373 473.385 759.394C440.679 760.294 410.173 755.929 377.824 752.931C342.112 749.621 277.812 750.631 250.775 724.697C244.056 718.251 238.579 709.894 238.581 700.266C238.586 681.94 257.077 669.591 268.943 658.156C264.056 653.04 259.991 648.558 255.81 642.857C250.417 635.547 245.792 627.264 240.64 619.732C232 607.103 226.084 593.392 220.947 579.026C215.641 565.065 212.404 553.653 211.245 538.618C207.369 488.349 220.653 438.611 247.867 396.523C276.807 358.794 290.418 343.743 331.564 317.876ZM416.767 293.388C402.148 293.9 377.783 297.826 365.34 305.787L364.375 306.121C361.61 307.448 347.222 314.768 346.139 316.779L344.736 317.494L344.643 318.134C334.781 321.786 315.453 331.629 308.697 339.155L309.027 339.817C301.583 343.829 277.883 365.042 273.97 371.842L274.35 372.207L275.842 371.466L276.071 372.059C264.874 379.471 249.056 405.379 242.71 418.193C242.69 418.394 242.671 418.596 242.652 418.797C242.013 420.079 241.736 420.23 241.706 421.572C240.199 424.022 237.749 427.112 236.395 429.344C232.185 436.281 220.858 466.727 220.775 473.87C220.473 475.376 220.473 475.269 220.816 476.768C214.199 497.844 213.994 527.093 217.318 549.017C218.146 554.479 221.298 564.302 223.081 569.91C223.556 571.858 224.083 574.694 225.466 576.121C226.168 577.294 226.084 577.725 226.899 577.939C229.06 585.687 239.458 611.518 244.355 617.226C245.51 618.391 244.842 618.148 246.231 618.383C252.698 631.829 260.562 642.053 270.851 652.815C272.433 654.469 275.776 658.668 277.636 659.315C278.231 659.579 278.626 659.806 279.25 659.951C287.931 670.83 307.626 681.222 320.862 685.419L318.072 682.262L318.597 681.397C324.974 688.54 334.658 690.283 344.064 691.479L341.349 688.748C341.111 688.159 339.812 686.092 339.417 685.434C340.371 686.338 344.927 690.862 345.53 691.088C350.495 692.945 368.631 695.207 373.119 693.241C375.019 693.543 374.101 693.637 375.954 692.814C377.912 693.203 380.544 692.846 382.582 692.693C396.034 691.681 406.143 687.309 418.121 681.82L419.384 681.085C426.765 677.979 440.762 669.407 447.602 664.822L448.999 663.426C463.391 652.788 469.83 646.318 481.653 633.109C448.204 649.989 409.305 638.752 387.468 609.002C383.829 610.027 371.862 612.646 369.585 613.84L368.922 614.146C367.57 613.563 356.432 614.586 354.566 614.86L353.723 614.714C333.972 613.014 327.233 612.856 310.934 601.647L310.514 601.132C300.344 594.249 299.59 589.978 292.691 583.939L291.766 583.207C291.53 582.511 291.706 582.827 291.307 582.309C286.206 575.693 282.086 568.182 278.098 560.854C276.962 558.766 276.294 556.638 275.193 554.505L274.089 554.153L273.619 553.856C274.096 553.065 274.565 552.255 274.246 551.302C270.382 539.757 268.311 529.149 266.791 517.09L263.556 521.493L262.952 520.537C264.213 518.988 265.434 517.121 266.577 515.462C266.431 506.63 267.025 498.76 268.46 490.026C269.118 486.02 271.79 478.149 271.785 474.707L271.714 473.688C274.494 470.743 278.761 457.946 281.736 452.981C285.78 446.231 289.12 441.166 293.953 434.753C296.098 431.906 302.345 425.773 302.707 423.586L302.005 422.481C307.083 421.87 315.749 411.196 320.297 408.054C321.829 406.995 325.588 403.726 326.688 402.255L327.185 401.311C329.626 401.323 338.869 394.77 341.888 393.152C346.973 390.428 350.302 388.698 355.976 386.877L356.592 386.848C364.162 383.978 375.073 382.962 383.108 382.676C386.906 382.541 391.165 382.813 394.886 382.312L395.618 382.035C397.453 383.458 416.065 385.41 420.053 386.306L421.036 386.422C432.385 389.337 450.491 397.444 459.848 404.757L460.518 404.973C463.587 406.778 466.067 408.373 468.835 410.258C471.298 411.936 480.147 419.359 481.961 420.015L482.541 420.701C484.594 423.37 487.589 425.871 489.928 428.378C492.188 430.946 493.829 432.785 496.327 435.109C496.746 435.531 496.863 435.814 497.278 435.889C502.393 444.436 505.881 448.826 510.819 458.197L511.346 459.824C513.916 464.279 514.401 468.748 516.107 472.915C517.967 479.444 519.063 484.054 520.13 490.844C520.616 493.934 521.477 504.038 522.24 506.031L523.469 506.622C523.099 507.033 522.729 507.445 522.359 507.856C522.001 514.697 522.543 521.911 522.679 528.789C522.692 529.491 522.742 530.058 522.827 530.553L523.239 531.085C521.995 533.269 521.908 551.899 520.378 555.694C520.229 556.064 518.631 567.003 518.628 568.052L518.322 569.046C517.108 573.193 511.708 590.062 511.264 592.582C534.365 588.306 545.816 586.349 567.763 577.213C553.653 586.606 540.784 590.083 524.12 592.204C521.229 592.572 514.563 593.59 511.881 593.508C511.399 593.779 510.737 594.099 510.593 594.51C508.592 600.251 501.465 613.976 499.969 618.674L499.37 619.497L499.13 619.836C496.597 623.461 494.521 627.61 492.014 631.242C486.463 639.285 480.132 646.717 473.161 653.553C477.765 655.846 483.025 657.983 488.154 658.599C513.3 661.619 544.884 654.084 568.406 646.214C606.872 633.602 640.396 609.211 664.232 576.492C669.155 569.818 673.165 565.753 676.975 558.02C677.851 556.207 678.697 554.381 679.513 552.54C676.697 540.111 674.061 527.642 671.604 515.137C654.26 557.764 619.896 590.579 577.803 609.189C556.84 618.457 534.416 619.954 511.766 619.937C510.05 619.654 508.436 619.3 506.736 618.934C509.577 618.446 515.147 618.476 518.249 618.367C523.728 618.173 529.199 617.777 534.65 617.181C569.004 613.537 596.32 600.982 622.457 578.408C639.343 563.888 652.629 547.519 662.923 527.707C670.45 513.218 671.398 511.681 668.46 495.313C665.473 478.664 661.378 463.906 654.801 448.217C653.464 445.028 651.408 437.147 649.315 434.945L648.939 436.417C649.345 464.919 632.892 499.924 612.963 519.856C588.88 543.942 563.008 556.075 530.97 565.289L531.793 563.655C560.006 554.158 586.574 541.43 608.449 520.722C629.553 500.743 647.011 464.671 647.516 435.298C647.684 425.987 643.391 419.489 638.772 411.65C629.82 396.457 616.304 374.393 601.797 363.979L600.292 363.653C599.045 361.684 597.049 358.377 594.802 357.84C593.873 359.127 594.297 359.302 594.526 361.413L593.367 361.441C592.977 360.671 592.391 356.948 592.191 355.859C589.331 352.946 564.882 334.721 561.796 333.974L560.405 333.539C554.571 325.445 516.315 309.865 504.936 306.529C494.482 303.293 478.823 299.845 467.975 298.618L467.586 299.301L466.877 299.214C466.07 299.109 465.588 299.021 464.805 298.853L464.558 299.672C464.038 299.32 463.098 298.227 462.62 297.713C458.185 297.209 439.952 294.725 436.534 295.12L436.694 295.837L436.624 296.43C431.098 293.693 422.845 292.926 416.767 293.388ZM396.068 386.643C388.395 385.78 383.111 385.818 375.382 386.212C377.107 386.939 383.124 389.728 384.328 389.995L384.438 390.437L383.731 391.325C378.449 388.221 375.517 386.733 369.028 387.416C355.895 388.798 345.15 394.543 333.854 400.945L333.788 401.457L335.899 401.558L335.7 402.281C338.109 402.784 341.017 402.243 342.347 402.847C337.645 402.854 334.133 402.798 329.506 403.531C319.299 411.445 309.092 420.524 300.651 430.292L300.476 431.102C297.509 433.287 294.293 437.609 292.075 440.552C280.685 455.663 271.343 481.914 270.874 500.996L270.638 501.927L271.404 503.098C269.125 509.979 271.758 535.024 275.358 541.682L275.877 540.99L276.534 541.003C275.825 549.805 283.609 564.93 288.436 572.021L289.578 572.984C291.726 577.771 301.429 588.541 305.727 591.709L306.759 591.558L307.868 592.691C310.229 596.252 322.044 603.202 326.103 604.019L327.339 604.448C332.397 607.443 342.162 608.698 348.272 609.81C348.157 606.235 347.923 602.852 348.411 599.307L348.67 603.002L349.331 603.506C349.797 606.036 349.962 607.34 350.101 609.907C356.369 610.555 362.067 609.777 368.311 609.166L369.144 608.697C373.473 608.909 383.138 605.543 387.429 604.081L388.31 602.66C388.637 603.118 388.393 602.892 389.203 603.108C393.793 601.132 402.182 597.024 405.735 593.63C406.281 592.815 405.894 593.134 407.001 592.816C415.652 585.287 422.342 578.534 425.845 567.432L426.189 567.648L427.315 566.883C429.509 565.723 432.997 556.078 434.451 553.117C434.672 552.366 435.046 551.444 435.324 550.693C439.979 538.189 442.273 521.065 439.737 507.98C436.312 492.055 427.369 474.714 413.374 465.726C381.199 445.06 344.666 447.971 323.028 481.386L322.951 479.048C325.808 471.617 336.609 462.663 343.07 458.309L344.18 457.921C350.352 454.431 354.321 452.936 360.906 450.479C362.571 450.512 370.821 449.462 373.904 449.325C380.597 449.417 384.095 449.699 390.576 451.442L392.183 451.959C396.332 452.863 406.712 457.833 408.201 457.699L408.443 457.966C409.835 459.556 417.34 464.188 420.061 466.414C422.198 468.163 426.956 472.474 428.901 473.93L429.65 474.66C432.665 479.139 436.014 485.388 438.648 489.126L439.392 489.198L439.768 489.676C439.111 492.168 443.626 505.259 444.381 509.327L444.532 510.054C445.065 520.522 444.702 527.995 443.225 538.18C477.641 530.39 502.077 497.816 501.413 462.945C501.097 446.398 488.037 431.057 476.504 420.439L474.754 419.463C471.347 416.586 456.144 404.69 452.624 404.888L451.819 405.285C447.933 400.466 426.832 393.719 420.132 391.812C419.865 391.71 418.832 391.553 418.505 391.496C417.664 391.487 412.442 389.942 411.191 389.586C406.011 388.113 401.433 387.149 396.068 386.643ZM516.38 497.117C512.859 477.748 511.914 469.773 502.025 452.717C505.329 475.799 501.463 493.057 487.587 511.945C478.12 524.83 461.589 537.376 445.484 539.728C444.483 539.872 443.479 539.993 442.473 540.09C440.69 547.464 439.111 553.384 435.776 560.346L434.934 561.448C431.715 568.79 426.644 577.005 422.228 583.624C423.073 584.525 423.114 584.416 424.346 584.71L423.096 585.375C421.388 584.817 421.102 584.815 420.099 585.899C409.307 597.561 404.374 601.62 390.018 608.016C403.791 628.69 430.024 638.821 454.304 637.546C465.42 636.962 479.986 632.797 487.925 624.497C490.967 621.316 493.526 615.796 495.922 612.03C505.546 595.86 510.992 580.163 514.594 561.76C515.215 558.589 516.898 551.966 516.628 548.929L515.678 549.231L515.13 548.852C521.868 539.369 518.286 510.064 516.757 498.836L516.38 497.117ZM774.706 289.279C771.49 289.966 768.891 292.327 767.899 295.461C766.907 298.596 767.675 302.022 769.91 304.433C772.144 306.845 775.502 307.871 778.703 307.12C783.584 305.975 786.631 301.113 785.535 296.221C784.439 291.329 779.608 288.232 774.706 289.279ZM922.646 343.97C912.525 349.505 914.76 360.976 924.981 359.878C934.871 354.771 933.017 344.097 922.646 343.97ZM680.181 559.416C673.93 570.115 667.233 581.278 659.311 590.875C631.968 623.92 593.264 646.687 551.835 657.101C537.803 660.628 524.805 662.909 510.333 663.578C493.678 664.349 485.172 664.772 470.339 656.49C468.856 657.848 458.357 666.792 457.989 667.596C459.305 668.771 459.293 668.757 460.873 669.546C497.979 683.523 547.783 674.541 583.467 658.717C618.125 643.347 667.195 607.185 683.274 572.351C682.409 568.175 681.562 563.399 680.181 559.416ZM514.378 619.246C515.998 619.315 517.808 619.493 519.368 619.249C517.599 618.402 516.339 618.825 514.378 619.246ZM461.635 758.761C463.599 759.727 466.513 759.177 468.621 758.756C466.291 758.613 463.892 758.306 461.635 758.761Z" fill="url(#paint0_linear_2226_6787)"/>
<path d="M778.705 307.123C775.504 307.874 772.146 306.848 769.912 304.436C767.677 302.025 766.909 298.599 767.901 295.464C768.893 292.33 771.492 289.969 774.708 289.282C779.61 288.235 784.441 291.332 785.537 296.224C786.633 301.116 783.586 305.978 778.705 307.123Z" fill="#FDE4CF"/>
<path d="M416.767 293.387C422.845 292.925 431.098 293.692 436.624 296.429C438.674 297.735 440.737 299.068 442.761 300.412C478.036 323.829 496.321 380.233 481.961 420.014C480.147 419.358 471.298 411.935 468.835 410.257C466.067 408.372 463.587 406.777 460.518 404.972C461.483 401.565 461.83 397.734 462.005 394.201C462.081 385.354 460.717 378.806 457.44 370.497C447.283 345.369 427.67 325.23 402.82 314.412C404.933 309.525 413.315 298.26 416.767 293.387Z" fill="#98F5E1"/>
<path d="M365.342 305.79C377.785 297.829 402.15 293.903 416.769 293.391C413.317 298.264 404.935 309.529 402.822 314.416C394.579 311.22 387.278 308.53 378.41 307.204C373.953 306.538 369.714 306.406 365.342 305.79Z" fill="#8EECF5"/>
<path d="M436.695 295.838L436.535 295.12C439.953 294.725 458.186 297.209 462.621 297.713C463.099 298.227 464.039 299.32 464.559 299.672C479.158 313.042 487.848 323.805 494.755 342.892C492.612 346.711 491.703 381.124 492.018 387.359C492.701 400.862 489.501 415.324 489.929 428.378C487.59 425.871 484.595 423.37 482.542 420.701L482.831 420.175C486.296 413.761 488.136 406.594 488.519 399.3C490.585 359.952 473.216 314.988 436.695 295.838Z" fill="#98F5E1"/>
<path d="M436.695 295.84C473.216 314.99 490.585 359.955 488.519 399.303C488.136 406.597 486.296 413.764 482.831 420.178L482.542 420.704L481.962 420.018C496.322 380.237 478.037 323.833 442.762 300.416C440.738 299.072 438.675 297.739 436.625 296.433L436.695 295.84Z" fill="#2A352F"/>
<path d="M464.559 299.674L464.806 298.855C465.589 299.023 466.071 299.111 466.878 299.216L467.587 299.303C479.882 308.982 485.77 321.212 493.171 333.691C495.394 339.455 497.945 344.793 499.828 350.714C507.605 375.169 508.424 410.783 497.909 434.506C497.705 434.97 497.495 435.432 497.279 435.891C496.864 435.816 496.747 435.533 496.328 435.111C507.363 404.983 506.346 372.733 494.755 342.894C487.848 323.807 479.158 313.044 464.559 299.674Z" fill="#2A352F"/>
<path d="M467.588 299.3L467.977 298.617C478.825 299.844 494.484 303.292 504.938 306.528C498.97 315.272 495.522 321.715 493.552 332.347C493.425 333.034 493.415 332.973 493.172 333.688C485.771 321.209 479.883 308.979 467.588 299.3Z" fill="#98F5E1"/>
<path d="M364.377 306.123L365.342 305.789C369.714 306.405 373.953 306.537 378.41 307.203C387.278 308.529 394.579 311.219 402.822 314.415C427.672 325.233 447.285 345.372 457.442 370.5C460.719 378.809 462.083 385.357 462.007 394.204L461.116 396.544C461.02 386.517 458.941 377.998 455.111 368.712C445.243 344.384 426.012 325.042 401.741 315.036C393.728 311.9 386.626 309.412 378.082 308.023C373.676 307.306 369.195 307.072 364.915 306.233L364.377 306.123Z" fill="#2A352F"/>
<path d="M346.141 316.779C347.224 314.768 361.612 307.448 364.377 306.121L364.915 306.231C369.195 307.07 373.676 307.304 378.082 308.021C386.626 309.41 393.728 311.898 401.741 315.034C397.755 322.714 401.092 325.599 406.887 331.207C414.424 338.5 421.749 345.666 425.441 355.743C427.577 361.573 426.659 383.44 421.175 386.119C420.994 384.571 420.729 382.989 420.492 381.444C420.489 380.692 420.51 380.544 420.429 379.814C416.133 340.993 385.594 313.351 346.141 316.779Z" fill="#8EECF5"/>
<path d="M493.172 333.691C493.415 332.976 493.425 333.037 493.552 332.35C495.522 321.718 498.97 315.275 504.938 306.531C516.317 309.867 554.573 325.447 560.407 333.541C562.989 343.214 565.163 353.271 565.194 363.009C565.316 401.7 548.578 439.977 521.101 467.043C519.318 468.8 517.438 470.74 516.109 472.917C514.403 468.75 513.918 464.281 511.348 459.826C522.277 445.58 536.985 401.747 537.955 383.675C541.451 365.357 538.157 345.582 532.308 328.118C531.628 326.122 530.899 324.142 530.121 322.182L529.171 322.07L529.934 321.752C529.486 320.874 529.79 321.165 529.159 320.757C529.287 323.522 530.843 327.176 531.873 329.857C537.38 344.197 538.965 366.446 536.75 381.534C532.623 407.12 522.662 435.142 510.821 458.199C505.883 448.828 502.395 444.438 497.28 435.891C497.496 435.432 497.706 434.97 497.91 434.506C508.425 410.783 507.606 375.169 499.829 350.714C497.946 344.793 495.395 339.455 493.172 333.691Z" fill="#B9FBC0"/>
<path d="M401.74 315.035C426.011 325.041 445.242 344.383 455.11 368.711C458.94 377.997 461.019 386.516 461.115 396.543C460.739 399.133 460.373 402.236 459.849 404.758C450.492 397.445 432.386 389.338 421.037 386.423L421.174 386.12C426.658 383.441 427.576 361.574 425.44 355.744C421.748 345.667 414.423 338.501 406.886 331.208C401.091 325.6 397.754 322.715 401.74 315.035Z" fill="#98F5E1"/>
<path d="M346.141 316.779C385.594 313.351 416.133 340.993 420.429 379.814C420.51 380.544 420.489 380.692 420.492 381.444L419.635 381.417C419.58 380.839 419.519 380.262 419.451 379.686C417.533 363.44 407.589 341.468 394.08 331.679C378.168 320.149 363.86 315.834 344.645 318.134L344.738 317.494L346.141 316.779Z" fill="#1F2A2E"/>
<path d="M344.643 318.136C363.858 315.836 378.166 320.151 394.078 331.681C407.587 341.47 417.531 363.442 419.449 379.688C419.517 380.264 419.578 380.841 419.633 381.419L420.053 386.308C416.065 385.412 397.453 383.46 395.618 382.037C389.725 366.354 370.677 348.677 355.233 342.352C337.221 334.976 326.89 332.473 308.697 339.157C315.453 331.631 334.781 321.788 344.643 318.136Z" fill="#8EECF5"/>
<path d="M247.867 396.523C248.062 393.457 249.858 390.082 250.798 387.089C256.157 370.036 266.542 355.417 279.348 343.051C290.93 331.868 314.704 317.239 331.564 317.876C290.418 343.743 276.807 358.794 247.867 396.523Z" fill="#90DBF4"/>
<path d="M532.307 328.119L531.872 329.858C530.842 327.177 529.286 323.523 529.158 320.758C529.789 321.166 529.485 320.875 529.933 321.753L529.17 322.071L530.12 322.183C530.898 324.143 531.627 326.123 532.307 328.119Z" fill="#61A383"/>
<path d="M837.579 506.002C815.53 505.82 778.146 517.749 763.273 534.996C746.812 550.714 732.875 571.707 723.62 592.525L723.377 592.93C716.2 605.127 707.577 629.329 701.592 642.615C679.847 690.89 647.462 726.78 594.482 739.911C591.44 740.665 576.312 744.066 574.356 744.79C543.036 750.455 508.128 757.521 476.368 757.973C469.25 758.048 462.102 758.11 454.988 757.875C430.522 757.068 405.907 753.087 381.579 750.409C347.483 746.655 275.463 745.297 251.394 719.149C246.23 713.538 242.617 706.144 243.105 698.371C243.349 694.479 244.569 690.834 246.535 687.482C251.276 679.4 264.333 667.978 271.629 661.436C274.951 663.735 280.124 668.53 283.686 671.355C293.565 679.164 304.587 685.406 316.365 689.862C338.389 698.21 372.998 702.417 396.229 696.933C407.584 694.253 421.431 687.668 431.929 682.982C436.206 683.899 441.476 686.123 445.738 687.543C502.382 706.42 569.501 694.345 617.114 659.455C628.867 650.524 637.459 644.369 647.864 633.611C654.389 628.41 667.012 611.451 671.376 603.859C675.078 597.418 678.244 590.7 682.604 584.151C683.659 583.667 686.691 582.319 687.234 581.466C689.947 577.203 692.678 572.221 695.279 567.912C710.983 541.887 720.62 512.008 738.937 487.55C742.48 483.092 746.516 478.974 750.947 475.401C752.278 474.327 760.131 470.203 760.104 468.827C759.922 459.603 760.858 450.572 761.641 441.404C763.68 417.519 766.871 393.75 769.058 369.875C770.522 354.557 771.048 338.958 773.212 323.75C774.022 339.015 774.04 354.32 775.18 369.563C777.47 400.175 778.35 429.551 776.807 460.233C774.803 462.103 773.638 463.608 775.516 466.152C778.84 467.336 785.805 463.473 789.393 462.348C796.139 460.516 804.755 462.93 811.043 465.548C813.831 466.709 813.932 468.783 814.44 471.207L815.918 471.637C818.222 471.066 820.98 466.149 822.352 464.145C841.102 436.753 862.943 411.193 887.485 388.818C892.218 384.502 896.916 379.698 902.098 375.872L902.818 375.346C899.214 380.976 890.629 391.554 886.262 397.431C875.246 411.619 865.617 426.482 856.03 441.65C844.661 459.638 829.745 483.77 837.579 506.002Z" fill="#F0E4FB"/>
<path d="M531.871 329.856L532.306 328.117C538.155 345.581 541.449 365.356 537.953 383.674L536.748 381.533C538.963 366.445 537.378 344.196 531.871 329.856Z" fill="#181616"/>
<path d="M560.405 333.539L561.796 333.974C571.752 369.661 566.02 403.163 548.548 435.681C542.461 447.008 527.484 466.164 516.107 472.915C517.436 470.738 519.316 468.798 521.099 467.041C548.576 439.975 565.314 401.698 565.192 363.007C565.161 353.269 562.987 343.212 560.405 333.539Z" fill="url(#paint1_linear_2226_6787)"/>
<path d="M561.796 333.977C564.882 334.724 589.331 352.949 592.191 355.862C592.391 356.951 592.977 360.674 593.367 361.444C593.997 369.738 594.228 375.166 593.791 383.616C592.922 391.027 591.616 400.967 589.628 408.175C580.407 441.607 562.098 474.363 535.221 496.709C531.125 500.115 526.136 502.917 522.24 506.034C521.477 504.041 520.616 493.937 520.13 490.847C519.063 484.057 517.967 479.447 516.107 472.918C527.484 466.167 542.461 447.011 548.548 435.684C566.02 403.166 571.752 369.664 561.796 333.977Z" fill="#B9FBC0"/>
<path d="M309.027 339.819L308.697 339.157C326.89 332.473 337.221 334.976 355.233 342.352C370.677 348.677 389.725 366.354 395.618 382.037L394.886 382.314C382.659 361.173 366.9 347.285 343.461 339.675C330.259 335.388 322.063 335.713 309.027 339.819Z" fill="#1F2A2E"/>
<path d="M275.843 371.468L274.351 372.209L273.971 371.844C277.884 365.044 301.584 343.831 309.028 339.819C322.064 335.713 330.26 335.388 343.462 339.675C366.901 347.285 382.66 361.173 394.887 382.314C391.166 382.815 386.907 382.543 383.109 382.678C375.074 382.964 364.163 383.98 356.593 386.85C349.813 375.847 328.078 367.345 315.751 365.452C304.403 363.708 285.381 363.93 275.843 371.468Z" fill="#8EECF5"/>
<path d="M489.928 428.381C489.5 415.327 492.7 400.865 492.017 387.362C491.702 381.127 492.611 346.714 494.754 342.895C506.345 372.734 507.362 404.984 496.327 435.112C493.829 432.788 492.188 430.949 489.928 428.381Z" fill="#B9FBC0"/>
<path d="M924.981 359.881C914.76 360.979 912.525 349.508 922.646 343.973C933.017 344.1 934.871 354.774 924.981 359.881Z" fill="#FFFFFA"/>
<path d="M594.528 361.413C594.299 359.302 593.875 359.127 594.804 357.84C597.051 358.377 599.047 361.684 600.294 363.653C601.733 367.877 603.316 372.284 604.518 376.564C610.992 411.18 608.114 441.377 587.775 471.485C572.112 494.672 546.748 516.339 522.829 530.553C522.744 530.058 522.694 529.491 522.681 528.789C522.545 521.911 522.003 514.697 522.361 507.856C522.731 507.445 523.101 507.033 523.471 506.622C527.686 504.63 536.953 498.106 540.512 495.036C572.821 467.169 591.126 425.608 595.384 384.018C595.635 375.41 595.599 370.054 594.528 361.413Z" fill="#B9FBC0"/>
<path d="M593.367 361.442L594.526 361.414C595.597 370.055 595.633 375.411 595.382 384.019C594.801 384.041 594.404 383.818 593.791 383.614C594.228 375.164 593.997 369.736 593.367 361.442Z" fill="#181616"/>
<path d="M600.293 363.652L601.798 363.978C603.056 367.815 604.762 372.565 605.808 376.387L604.517 376.563C603.315 372.283 601.732 367.876 600.293 363.652Z" fill="#181616"/>
<path d="M275.844 371.466C285.382 363.928 304.404 363.706 315.752 365.45C328.079 367.343 349.814 375.845 356.594 386.848L355.978 386.877C349.667 379.316 337.202 372.437 327.913 369.625C309.594 364.08 293.223 363.44 276.073 372.059L275.844 371.466Z" fill="#1F2A2E"/>
<path d="M601.798 363.98C616.305 374.394 629.821 396.458 638.773 411.651C643.392 419.49 647.685 425.988 647.517 435.299C647.012 464.672 629.554 500.744 608.45 520.723C586.575 541.431 560.007 554.159 531.794 563.656L518.629 568.053C518.632 567.004 520.23 556.065 520.379 555.695C521.909 551.9 521.996 533.27 523.24 531.086C527.01 529.622 532.531 526.335 536.132 524.122C557.32 511.098 577.719 491.949 591.213 470.998C610.612 440.878 613.405 410.684 605.808 376.389C604.762 372.567 603.056 367.817 601.798 363.98Z" fill="#B9FBC0"/>
<path d="M276.071 372.062C293.221 363.443 309.592 364.083 327.911 369.628C337.2 372.44 349.665 379.319 355.976 386.88C350.302 388.701 346.973 390.431 341.888 393.155C338.869 394.773 329.626 401.326 327.185 401.314C303.83 395.687 274.874 396.328 254.266 409.585C250.787 411.823 245.244 415.549 242.652 418.8C242.671 418.599 242.69 418.397 242.71 418.196C249.056 405.382 264.874 379.474 276.071 372.062Z" fill="#8EECF5"/>
<path d="M604.517 376.567L605.808 376.391C613.405 410.686 610.612 440.88 591.213 471C577.719 491.951 557.32 511.1 536.132 524.124C532.531 526.337 527.01 529.624 523.24 531.088L522.828 530.556C546.747 516.342 572.111 494.675 587.774 471.488C608.113 441.38 610.991 411.183 604.517 376.567Z" fill="url(#paint2_linear_2226_6787)"/>
<path d="M419.635 381.418L420.492 381.445C420.729 382.99 420.994 384.572 421.175 386.12L421.038 386.423L420.055 386.307L419.635 381.418Z" fill="#3E5562"/>
<path d="M510.82 458.196C522.661 435.139 532.622 407.117 536.749 381.531L537.954 383.672C536.984 401.744 522.276 445.577 511.347 459.823L510.82 458.196Z" fill="url(#paint3_linear_2226_6787)"/>
<path d="M522.24 506.031C526.136 502.914 531.125 500.112 535.221 496.706C562.098 474.36 580.407 441.604 589.628 408.172C591.616 400.964 592.922 391.024 593.791 383.613C594.404 383.817 594.801 384.04 595.382 384.018C591.124 425.608 572.819 467.169 540.51 495.036C536.951 498.106 527.684 504.63 523.469 506.622L522.24 506.031Z" fill="url(#paint4_linear_2226_6787)"/>
<path d="M375.383 386.213C383.112 385.819 388.396 385.781 396.069 386.644C392.914 389.229 387.103 387.606 384.329 389.996C383.125 389.729 377.108 386.94 375.383 386.213Z" fill="#F1C0E8"/>
<path d="M396.068 386.645C401.433 387.151 406.011 388.115 411.191 389.588C412.442 389.944 417.664 391.489 418.505 391.498C444.234 416.654 441.1 442.245 428.901 473.932C426.956 472.476 422.198 468.165 420.061 466.416C417.34 464.19 409.835 459.558 408.443 457.968C415.697 437.153 407.037 399.285 384.438 390.439L384.328 389.997C387.102 387.607 392.913 389.23 396.068 386.645Z" fill="#8EECF5"/>
<path d="M335.9 401.559L333.789 401.458L333.855 400.946C345.151 394.544 355.896 388.799 369.029 387.417C375.518 386.734 378.45 388.222 383.732 391.326L384.451 391.808L384.43 392.457C378.541 393.695 362.034 398.217 358.248 402.317L357.918 403.631C349.568 401.529 344.401 401.231 335.9 401.559Z" fill="#FFCFD2"/>
<path d="M383.732 391.326L384.439 390.438C407.038 399.283 415.698 437.152 408.444 457.967L408.202 457.7C411.916 442.347 409.019 418.432 399.778 405.267C396.443 400.514 390.44 392.954 384.451 391.808L383.732 391.326Z" fill="#151923"/>
<path d="M418.506 391.496C418.833 391.553 419.866 391.71 420.133 391.812C420.301 392.424 427.957 400.328 429.269 402.243C442.064 420.92 440.447 441.858 434.031 462.667C432.748 466.727 431.287 470.729 429.651 474.66L428.902 473.93C441.101 442.243 444.235 416.652 418.506 391.496Z" fill="#3E5562"/>
<path d="M384.451 391.809C390.44 392.955 396.443 400.515 399.778 405.268C409.019 418.433 411.916 442.348 408.202 457.701C406.713 457.835 396.333 452.865 392.184 451.961C392.661 440.459 393.478 436.354 388.413 425.961C388.862 425.553 389.224 425.145 389.366 424.526C392.1 412.573 390.542 402.472 384.43 392.458L384.451 391.809Z" fill="#8EECF5"/>
<path d="M429.651 474.661C431.287 470.73 432.748 466.728 434.031 462.668C440.447 441.859 442.064 420.92 429.269 402.243C427.957 400.328 420.301 392.424 420.133 391.812C426.833 393.719 447.934 400.467 451.82 405.286C460.323 428.745 462.257 448.423 451.847 472.208C448.843 479.072 444.68 483.99 439.393 489.199L438.649 489.127C436.015 485.389 432.666 479.14 429.651 474.661Z" fill="#8EECF5"/>
<path d="M357.918 403.631L358.248 402.317C362.034 398.217 378.541 393.695 384.43 392.457C390.542 402.471 392.1 412.572 389.366 424.525C389.224 425.144 388.862 425.552 388.413 425.96C381.002 414.274 370.803 407.925 357.918 403.631Z" fill="#F0E4FB"/>
<path d="M461.116 396.543L462.007 394.203C461.832 397.736 461.485 401.567 460.52 404.974L459.85 404.758C460.374 402.236 460.74 399.133 461.116 396.543Z" fill="#61A383"/>
<path d="M242.653 418.798C245.245 415.547 250.788 411.821 254.267 409.583C274.875 396.326 303.831 395.685 327.186 401.312L326.689 402.256C302.347 397.395 274.597 397.251 253.228 411.5C251.256 412.793 249.352 414.187 247.523 415.675C245.43 417.691 243.65 419.403 241.707 421.573C241.737 420.231 242.014 420.08 242.653 418.798Z" fill="#1F2A2E"/>
<path d="M247.523 415.677C249.352 414.189 251.256 412.795 253.228 411.502C274.597 397.253 302.347 397.397 326.689 402.258C325.589 403.729 321.83 406.998 320.298 408.057C315.75 411.199 307.084 421.873 302.006 422.484C278.022 422.505 253.645 438.961 236.641 454.591C234.318 445.833 247.413 423.165 247.523 415.677Z" fill="#8EECF5"/>
<path d="M651.629 424.696C657.443 420.403 665.337 417.395 672.125 414.834C698.818 404.763 734.872 397.454 763.155 401.61C761.492 414.856 760.039 428.127 758.794 441.418C758.206 447.482 757.321 460.434 756.023 465.528C752.854 469.118 748.61 472.293 744.986 475.489C726.857 491.475 717.68 513.237 707.204 534.517C701.464 546.365 695.104 557.903 688.151 569.082C683.702 542.905 678.243 516.791 673.769 490.587C669.854 467.651 659.584 446.348 651.629 424.696Z" fill="#FBF8CC"/>
<path d="M335.9 401.558C344.401 401.23 349.568 401.528 357.918 403.63C370.803 407.924 381.002 414.273 388.413 425.959C393.478 436.352 392.661 440.457 392.184 451.959L390.577 451.442L391.552 450.193C392.999 439.786 391.888 434.445 386.935 425.316L383.597 420.849C382.581 419.413 381.618 418.696 380.304 417.553C371.38 409.54 363.417 405.77 351.705 403.743C348.6 403.319 345.473 403.102 342.348 402.847C341.018 402.243 338.11 402.784 335.701 402.281L335.9 401.558Z" fill="#4F4547"/>
<path d="M329.507 403.532C334.134 402.799 337.646 402.855 342.348 402.848C345.473 403.103 348.6 403.32 351.705 403.744C348.557 405.54 345.598 405.064 343.171 406.275C335.473 410.115 321.896 419.146 317.695 426.561C311.434 427.584 306.787 428.378 300.652 430.293C309.093 420.525 319.3 411.446 329.507 403.532Z" fill="#FFCFD2"/>
<path d="M779.857 402.746C793.987 405.228 806.385 409.545 819.954 414.182C823.295 415.324 828.657 417.773 831.402 418.611C832.878 419.708 845.609 426.169 847.487 426.811C845.956 428.873 844.174 431.035 842.528 433.02C834.119 443.163 826.407 453.648 818.636 464.282C804.771 454.682 795.591 454.934 779.943 459.533C781.511 437.944 780.935 424.227 779.857 402.746Z" fill="#FBF8CC"/>
<path d="M317.695 426.559C321.896 419.144 335.473 410.113 343.171 406.273C345.598 405.062 348.557 405.538 351.705 403.742C363.417 405.769 371.38 409.539 380.304 417.552C381.378 418.773 382.259 419.934 383.597 420.848L386.935 425.315C384.275 428.328 381.512 436.187 379.418 440.144C377.537 443.695 376.169 445.91 373.905 449.324C370.822 449.461 362.572 450.511 360.907 450.478C359.259 446.741 355.54 441.941 352.545 439.157C341.64 429.018 332.032 426.32 317.695 426.559Z" fill="#F0E4FB"/>
<path d="M452.624 404.889C456.144 404.691 471.347 416.587 474.754 419.464C482.577 437.602 480.395 455.041 473.578 473.34C470.056 482.795 461.598 496.5 453.898 503.214C450.848 505.345 447.7 507.685 444.381 509.328C443.626 505.26 439.111 492.169 439.768 489.677C445.056 486.488 451.602 476.798 454.007 471.058C459.817 457.195 462.364 439.418 459.206 424.618C457.799 418.028 455.045 411.142 452.624 404.889Z" fill="#8EECF5"/>
<path d="M451.82 405.288L452.625 404.891C455.046 411.144 457.8 418.03 459.207 424.62C462.365 439.42 459.818 457.197 454.008 471.06C451.603 476.8 445.057 486.49 439.769 489.679L439.393 489.201C444.68 483.992 448.843 479.074 451.847 472.21C462.257 448.425 460.323 428.747 451.82 405.288Z" fill="#181616"/>
<path d="M241.706 421.574C243.649 419.404 245.429 417.692 247.522 415.676C247.412 423.164 234.317 445.832 236.64 454.59C230.546 460.957 225.725 466.484 220.775 473.872C220.858 466.729 232.185 436.283 236.395 429.346C237.749 427.114 240.199 424.024 241.706 421.574Z" fill="#90DBF4"/>
<path d="M380.305 417.555C381.619 418.698 382.582 419.415 383.598 420.851C382.26 419.937 381.379 418.776 380.305 417.555Z" fill="#9F9396"/>
<path d="M474.754 419.465L476.504 420.441C477.16 425.113 479.616 429.467 480.27 433.977C484.067 460.163 472.819 485.237 454.673 503.636L453.898 503.215C461.598 496.501 470.056 482.796 473.578 473.341C480.395 455.042 482.577 437.603 474.754 419.465Z" fill="#1F2A2E"/>
<path d="M454.675 503.636C472.821 485.237 484.069 460.163 480.272 433.977C479.618 429.467 477.162 425.113 476.506 420.441C488.039 431.059 501.099 446.4 501.415 462.947C502.079 497.818 477.643 530.392 443.227 538.182C444.704 527.997 445.067 520.524 444.534 510.056C447.823 508.872 451.983 505.898 454.675 503.636Z" fill="#8EECF5"/>
<path d="M236.641 454.587C253.645 438.957 278.022 422.501 302.006 422.48L302.708 423.585C284.149 422.42 256.969 437.757 243.372 449.784C241.3 451.593 239.282 453.464 237.321 455.393C229.895 462.887 225.947 467.617 220.817 476.767C220.474 475.268 220.474 475.375 220.776 473.869C225.726 466.481 230.547 460.954 236.641 454.587Z" fill="#1F2A2E"/>
<path d="M237.321 455.394C239.282 453.465 241.3 451.594 243.372 449.785C256.969 437.758 284.149 422.421 302.708 423.586C302.346 425.773 296.099 431.906 293.954 434.753C289.121 441.166 285.781 446.231 281.737 452.981C278.762 457.946 274.495 470.743 271.715 473.688C252.029 486.696 239.893 502.808 230.389 524.305C227.138 518.454 227.786 496.851 228.708 489.855C229.479 484.333 230.65 478.873 232.212 473.52C233.717 468.286 235.785 463.535 237.66 458.446C238.018 457.473 237.622 456.385 237.321 455.394Z" fill="#8EECF5"/>
<path d="M373.904 449.325C376.168 445.911 377.536 443.696 379.417 440.145C381.511 436.188 384.274 428.329 386.934 425.316C391.887 434.445 392.998 439.786 391.551 450.193L390.576 451.442C384.095 449.699 380.597 449.417 373.904 449.325Z" fill="#8EECF5"/>
<path d="M300.652 430.293C306.787 428.378 311.434 427.584 317.695 426.561C332.032 426.322 341.64 429.02 352.545 439.159C355.54 441.943 359.259 446.743 360.907 450.48C357.449 446.962 354.906 443 350.712 439.223C342.163 431.523 333.394 427.636 321.869 428.04C311.06 427.495 309.215 429.74 300.477 431.103L300.652 430.293Z" fill="#2F2425"/>
<path d="M300.477 431.104C309.215 429.741 311.06 427.496 321.869 428.041C320.535 428.783 318.936 428.536 317.335 428.509C313.268 435.948 309.129 443.347 304.918 450.705C303.29 453.519 298.45 460.48 298.568 463.395C284.703 474.325 277.396 484.732 271.392 501.101L270.875 500.998C271.344 481.916 280.686 455.665 292.076 440.554C294.294 437.611 297.51 433.289 300.477 431.104Z" fill="#FFCFD2"/>
<path d="M321.87 428.04C333.395 427.636 342.164 431.523 350.713 439.223C354.907 443 357.45 446.962 360.908 450.48C354.323 452.937 350.354 454.432 344.182 457.922C343.005 457.139 340.95 456.446 339.556 455.911C327.315 452.18 317.025 453.347 305.591 459.36C303.206 460.626 300.864 461.971 298.569 463.394C298.451 460.479 303.291 453.518 304.919 450.704C309.13 443.346 313.269 435.947 317.336 428.508C318.937 428.535 320.536 428.782 321.87 428.04Z" fill="#F0E4FB"/>
<path d="M648.941 436.417L649.317 434.945C651.41 437.147 653.466 445.028 654.803 448.217C661.38 463.906 665.475 478.664 668.462 495.313C671.4 511.681 670.452 513.218 662.925 527.707C652.631 547.519 639.345 563.888 622.459 578.408C596.322 600.982 569.006 613.537 534.652 617.181C529.201 617.777 523.73 618.173 518.251 618.367C515.149 618.476 509.579 618.446 506.738 618.934C504.482 618.859 502.226 618.773 499.971 618.674C501.467 613.976 508.594 600.251 510.595 594.51C510.739 594.099 511.401 593.779 511.883 593.508C514.565 593.59 521.231 592.572 524.122 592.204C540.786 590.083 553.655 586.606 567.765 577.213C545.818 586.349 534.367 588.306 511.266 592.582C511.71 590.062 517.11 573.193 518.324 569.046C522.677 567.639 526.519 566.431 530.972 565.289C563.01 556.075 588.882 543.942 612.965 519.856C632.894 499.924 649.347 464.919 648.941 436.417Z" fill="#B9FBC0"/>
<path d="M844.575 505.984C843.469 505.806 842.898 505.672 841.816 505.375C840.732 504.152 840.359 503.434 839.989 501.844C834.849 479.742 850.801 454.97 862.222 436.844C872.796 444.065 882.337 448.821 892.018 457.963C928.065 492.003 949.334 538.41 958.757 586.562C966.682 627.061 962.745 669.363 950.81 708.657C945.892 724.202 933.665 746.55 924.57 759.786C907.422 785.097 886.828 807.893 863.384 827.516C857.478 832.539 850.266 838.646 843.86 843.035C812.976 863.918 778.104 878.18 741.438 884.924C682.887 895.73 629.634 888.124 579.994 854.039C568.512 846.155 563.208 840.269 553.456 830.867L553.367 830.561C559.829 822.997 581.274 798.455 584.403 790.419C610.516 790.533 635.962 795.734 662.419 793.501C688.243 791.322 710.302 784.133 730.992 768.156C760.268 745.549 775.659 706.856 782.267 671.409C786.046 651.137 788.06 630.684 795.004 610.842C799.861 596.85 806.339 583.877 815.464 572.151C818.49 568.262 820.865 562.988 824.17 559.333C837.367 559.193 844.635 538.165 836.391 530.936C835.474 528.862 834.256 527.627 832.808 525.883L832.957 525.03C859.545 522.967 886.1 529.421 908.775 543.457C907.408 547.519 907.25 552.347 911.445 554.783C919.169 559.268 927.133 545.785 918.289 542.039C915.021 540.654 913.082 541.185 909.874 542.334C906.812 537.603 903.635 533.559 899.786 529.557C888.876 518.214 859.969 505.925 844.575 505.984Z" fill="#FBF8CC"/>
<path d="M372.784 545.383C351.466 554.441 331.758 538.618 330.308 516.989C329.525 505.313 331.683 495.893 339.249 486.671C348.516 475.377 361.915 469.61 376.232 468.339C390.65 466.956 400.323 470.888 411.279 480.03C412.15 481.027 412.966 482.119 414.066 482.82C432.894 504.748 432.593 526.479 434.452 553.119C432.998 556.08 429.51 565.725 427.316 566.885C429.005 556.698 429.067 544.643 425.218 534.913C425.241 538.853 426.54 544.33 427.106 548.39C428.011 554.881 427.135 561.059 425.846 567.434C422.343 578.536 415.653 585.289 407.002 592.818C406.142 590.319 409.437 555.58 410.017 550.343C410.305 548.033 410.838 545.093 410.33 542.896C409.299 545.896 409.258 548.877 409 552.061C408.809 565.981 405.047 578.945 405.736 593.632C402.183 597.026 393.794 601.134 389.204 603.11C388.394 602.894 388.638 603.12 388.311 602.662C387.172 594.045 387.266 589.735 388.807 581.108C389.315 577.811 389.718 574.317 390.246 571.085C388.894 575.014 387.976 578.426 387.589 582.598C386.512 590.648 385.961 595.94 387.43 604.083C383.139 605.545 373.474 608.911 369.145 608.699C369.348 603.273 369.288 595.522 369.936 590.357C371.216 580.143 375.696 566.302 379.223 556.433C392.765 547.514 400.546 540.983 402.306 523.973C403.007 514.887 400.358 505.859 394.858 498.593C390.557 492.989 384.622 489.457 377.585 488.608C369.865 487.688 362.1 489.914 356.041 494.785C350.374 499.328 346.438 505.989 345.633 513.256C344.506 523.429 351.897 533.694 362.477 534.142C367.148 534.38 371.707 532.659 375.056 529.395C378.55 525.965 379.578 522.861 379.393 518.02C378.626 521.713 378.221 524.135 375.675 527.139C372.686 530.683 368.328 532.782 363.694 532.911C353.15 533.299 346.48 524.133 346.783 514.199C347.089 500.028 362.364 487.968 376.261 489.351C395.814 491.297 401.396 508.681 400.272 525.115C394.095 552.284 365.076 565.743 340.222 554.501C318.521 544.685 314.069 524.453 316.141 502.891C317.667 494.053 318.912 489.225 323.029 481.388C344.667 447.973 381.2 445.062 413.375 465.728C427.37 474.716 436.313 492.057 439.738 507.982C442.274 521.067 439.98 538.191 435.325 550.695C433.402 544.121 434.662 538.687 433.797 531.793C432.683 522.906 433.119 518.064 429.843 509.268C423.664 492.68 416.987 479.846 400.47 471.587C387.754 465.228 374.4 466.023 361.218 470.303C349.258 474.452 338.161 483.352 332.599 494.807C324.156 512.194 329.484 538.285 348.235 546.632C356.667 550.385 365.083 549.154 373.464 545.915C379.007 544.086 382.871 539.654 386.022 535.043C388.858 529.323 390.933 523.614 389.565 517.085C388.68 512.678 386.043 508.819 382.259 506.393C378.279 503.815 373.441 502.916 368.801 503.893C358.819 506.065 352.814 517.441 363.128 522.819L363.595 523.058C364.995 523.027 364.962 522.928 366.244 522.29C366.807 520.92 366.933 520.145 367.236 518.723L369.497 517.298C370.082 515.914 370.047 516.603 369.592 515.163L368.781 514.959C364.759 516.21 364.132 518.344 363.582 522.207C349.943 513.554 368.188 497.319 382.148 507.613C385.972 510.421 388.416 514.728 388.865 519.451C389.399 524.53 387.728 530.111 385.2 534.506C381.14 540.368 378.991 541.969 372.784 545.383Z" fill="#8EECF5"/>
<path d="M298.568 463.395C300.863 461.972 303.205 460.627 305.59 459.361C317.024 453.348 327.314 452.181 339.555 455.912L338.886 456.645C327.395 453.268 315.953 455.2 305.506 460.845C301.962 462.786 298.621 465.077 295.535 467.685C281.781 478.997 278.065 487.987 271.405 503.1L270.639 501.929L270.875 500.998L271.392 501.101C277.396 484.732 284.703 474.325 298.568 463.395Z" fill="#241E2D"/>
<path d="M502.026 452.719C511.915 469.775 512.86 477.75 516.381 497.119C516.071 498.901 512.193 507.345 511.142 509.06C500.601 526.251 486.551 545.505 468.228 554.52C461.258 557.873 453.727 559.906 446.017 560.517C442.439 560.571 439.355 560.503 435.777 560.348C439.112 553.386 440.691 547.466 442.474 540.092C443.48 539.995 444.484 539.874 445.485 539.73C461.59 537.378 478.121 524.832 487.588 511.947C501.464 493.059 505.33 475.801 502.026 452.719Z" fill="#8EECF5"/>
<path d="M295.535 467.683C298.621 465.075 301.962 462.784 305.506 460.843C315.953 455.198 327.395 453.266 338.886 456.643L343.071 458.309C336.61 462.663 325.809 471.617 322.952 479.048L321.317 481.119C318.16 482.711 314.991 484.206 312.046 486.158C303.334 492.307 298.579 496.086 291.15 504.08C285.965 499.264 291.279 479.705 294.015 473.846C294.954 471.836 295.478 469.924 295.535 467.683Z" fill="#F0E4FB"/>
<path d="M220.818 476.769C225.948 467.619 229.896 462.889 237.322 455.395C237.623 456.386 238.019 457.474 237.661 458.447C235.786 463.536 233.718 468.287 232.213 473.521C230.651 478.874 229.48 484.334 228.709 489.856C227.787 496.852 227.139 518.455 230.39 524.306C225.17 539.352 224.534 550.944 224.442 566.719C224.037 567.755 223.631 568.973 223.083 569.911C221.3 564.303 218.148 554.48 217.32 549.018C213.996 527.094 214.201 497.845 220.818 476.769Z" fill="#90DBF4"/>
<path d="M339.556 455.91C340.95 456.445 343.005 457.138 344.182 457.921L343.072 458.309L338.887 456.643L339.556 455.91Z" fill="#7B4E6E"/>
<path d="M411.279 480.03C400.323 470.888 390.65 466.956 376.232 468.339C361.915 469.61 348.516 475.377 339.249 486.671C331.683 495.893 329.525 505.313 330.308 516.989C331.758 538.618 351.466 554.441 372.784 545.383L373.464 545.915C365.083 549.154 356.667 550.385 348.235 546.632C329.484 538.285 324.156 512.194 332.599 494.807C338.161 483.352 349.258 474.452 361.218 470.303C374.4 466.023 387.754 465.228 400.47 471.587C416.987 479.846 423.664 492.68 429.843 509.268C433.119 518.064 432.683 522.906 433.797 531.793C434.662 538.687 433.402 544.121 435.325 550.695C435.047 551.446 434.673 552.368 434.452 553.119C432.593 526.479 432.894 504.748 414.066 482.82C413.271 481.628 412.36 480.964 411.279 480.03Z" fill="#1F2A2E"/>
<path d="M271.406 503.099C278.066 487.986 281.782 478.996 295.536 467.684C295.479 469.925 294.955 471.837 294.016 473.847C291.28 479.706 285.965 499.265 291.15 504.081C282.273 515.486 277.167 526.343 275.878 540.991L275.36 541.683C271.76 535.025 269.127 509.98 271.406 503.099Z" fill="#F1C0E8"/>
<path d="M230.389 524.305C239.893 502.808 252.029 486.696 271.715 473.688L271.786 474.707C251.049 489.755 235.219 508.945 228.83 534.259C224.949 550.805 225.528 561.657 226.9 577.939C226.085 577.725 226.169 577.294 225.467 576.121C225.093 573.005 224.777 569.84 224.441 566.717C224.533 550.942 225.169 539.351 230.389 524.305Z" fill="#151923"/>
<path d="M228.83 534.26C235.219 508.946 251.049 489.755 271.786 474.707C271.791 478.149 269.119 486.02 268.461 490.026C267.026 498.76 266.432 506.63 266.578 515.462C265.435 517.121 264.214 518.988 262.953 520.537C252.063 535.587 245.256 546.946 240.996 565.258C236.149 560.587 231.368 550.155 230.883 543.412C230.711 541.014 229.849 536.27 228.83 534.26Z" fill="#8EECF5"/>
<path d="M322.952 479.051L323.029 481.389C318.912 489.226 317.667 494.054 316.141 502.892L315.145 502.077C316.169 494.864 317.922 489.551 320.803 482.947C321.255 482.417 321.155 482.027 321.317 481.122L322.952 479.051Z" fill="#151923"/>
<path d="M411.279 480.027C412.36 480.961 413.271 481.625 414.066 482.817C412.966 482.116 412.15 481.024 411.279 480.027Z" fill="#5D808A"/>
<path d="M312.047 486.16C314.992 484.208 318.161 482.713 321.318 481.121C321.156 482.026 321.256 482.416 320.804 482.946C318.034 483.163 314.896 485.397 312.48 486.941L312.047 486.16Z" fill="#64565F"/>
<path d="M312.479 486.94C314.895 485.396 318.033 483.162 320.803 482.945C317.922 489.549 316.169 494.862 315.145 502.075C314.256 507.874 313.669 513.573 314.4 519.433L312.992 520.043C307.858 522.159 299.019 538.99 296.205 544.534C291.902 541.841 290.548 514.84 288.463 509.701C296.158 499.36 302.197 494.425 312.479 486.94Z" fill="#F0E4FB"/>
<path d="M291.151 504.082C298.58 496.088 303.335 492.309 312.047 486.16L312.48 486.941C302.198 494.426 296.159 499.361 288.464 509.702C281.435 520.018 278.531 528.622 276.536 541.005L275.879 540.992C277.168 526.344 282.274 515.487 291.151 504.082Z" fill="#241E2D"/>
<path d="M400.272 525.113C401.396 508.679 395.814 491.295 376.261 489.349C362.364 487.966 347.089 500.026 346.783 514.197C346.48 524.131 353.15 533.297 363.694 532.909C368.328 532.78 372.686 530.68 375.675 527.136C378.221 524.132 378.626 521.711 379.393 518.018C379.578 522.859 378.55 525.963 375.056 529.393C371.707 532.657 367.148 534.378 362.477 534.14C351.897 533.692 344.506 523.427 345.633 513.254C346.438 505.987 350.374 499.326 356.041 494.783C362.1 489.912 369.865 487.686 377.585 488.606C384.622 489.455 390.557 492.987 394.858 498.591C400.358 505.857 403.007 514.885 402.306 523.971L401.443 525.637L400.272 525.113Z" fill="#1F2A2E"/>
<path d="M516.381 497.117L516.758 498.836L515.631 499.718C515.453 501.43 511.694 509.65 510.63 511.352C495.085 536.228 475.909 561.141 443.908 561.714L442.844 561.388L442.883 561.044L446.017 560.515C453.727 559.904 461.258 557.871 468.228 554.518C486.551 545.503 500.601 526.249 511.142 509.058C512.193 507.343 516.071 498.899 516.381 497.117Z" fill="#2F3D44"/>
<path d="M443.908 561.714C475.909 561.141 495.085 536.228 510.63 511.352C511.694 509.65 515.452 501.43 515.63 499.718L516.758 498.836C518.287 510.064 521.868 539.369 515.13 548.852C498.058 570.269 479.492 582.974 451.371 586.039C442.349 587.011 433.229 586.562 424.346 584.71C423.114 584.416 423.074 584.525 422.229 583.624C426.645 577.005 431.716 568.79 434.935 561.448C437.129 561.546 441.942 561.872 443.908 561.714Z" fill="#8EECF5"/>
<path d="M315.146 502.074L316.142 502.889C314.07 524.451 318.522 544.682 340.223 554.498C365.077 565.74 394.096 552.282 400.273 525.113L401.444 525.637L402.307 523.971C400.547 540.981 392.766 547.512 379.224 556.431L378.095 556.806C374.876 557.969 364.132 560.672 362.927 561.846L362.521 561.679C361.14 560.733 356.41 560.803 354.341 560.618C351.158 560.335 340.821 556.45 338.951 556.762L337.598 558.69L337.09 558.664C337.592 557.549 337.6 557.452 337.844 556.246C331.919 551.387 330.275 551.509 324.125 545.359C318.54 537.787 315.173 528.81 314.401 519.432C313.67 513.572 314.257 507.873 315.146 502.074Z" fill="url(#paint5_linear_2226_6787)"/>
<path d="M444.383 509.329C447.702 507.686 450.85 505.346 453.9 503.215L454.675 503.636C451.983 505.898 447.823 508.872 444.534 510.056L444.383 509.329Z" fill="#5D808A"/>
<path d="M385.2 534.506C387.728 530.111 389.399 524.53 388.865 519.451C388.416 514.728 385.972 510.421 382.148 507.613C368.188 497.319 349.943 513.554 363.582 522.207L363.595 523.057L363.128 522.819C352.814 517.441 358.819 506.065 368.801 503.893C373.441 502.916 378.279 503.815 382.259 506.393C386.043 508.819 388.68 512.678 389.565 517.085C390.933 523.614 388.858 529.323 386.022 535.043L385.2 534.506Z" fill="#2F3D44"/>
<path d="M763.273 534.997C778.146 517.75 815.53 505.821 837.579 506.003C840.135 506.389 842.027 506.27 844.577 505.985C859.971 505.926 888.878 518.215 899.788 529.558C903.637 533.56 906.814 537.604 909.876 542.335L908.777 543.458C886.102 529.422 859.547 522.968 832.959 525.031C831.236 524.877 830.702 524.924 829.275 526.197C825.388 527.299 821.339 527.519 817.49 528.495C807.764 530.963 795.013 534.651 786.504 539.882C784.929 540.749 779.823 543.436 778.937 544.684C763.113 556.072 747.127 580.54 739.22 597.94C709.871 662.524 687.441 731.029 610.889 751.88C593.134 757.267 576.626 759.532 558.407 762.981C516.017 771.006 473.046 778.727 429.879 771.983C413.385 769.406 397.742 766.305 381.026 764.438C345.07 760.423 265.658 759.085 242.333 727.934C240.196 725.05 238.365 721.953 236.868 718.691C218.003 731.309 194.844 732.884 173.344 737.962C165.719 739.763 157.553 742.7 153.207 749.565C160.212 759.436 180.713 765.7 191.902 767.278C205.439 769.187 228.119 770.862 241.39 769.221C279.648 764.492 304.688 766.581 339.055 785.39C364.973 799.575 395.67 812.706 425.642 814.561C468.097 818.507 504.441 790.569 545.289 786.402C564.244 784.468 586.215 785.176 605.072 787.199C648.086 791.814 689.142 794.638 726.564 767.725C758.625 744.668 773.537 703.928 780.255 666.144C784.823 638.157 789.077 611.582 803.341 586.202C808.713 576.641 815.743 568.644 821.214 559.19C821.96 557.151 821.48 557.494 822.972 556.573C824.144 557.386 824.095 557.815 824.172 559.334C820.867 562.989 818.492 568.263 815.466 572.152C806.341 583.878 799.863 596.851 795.006 610.843C788.062 630.685 786.048 651.138 782.269 671.41C775.661 706.857 760.27 745.55 730.994 768.157C710.304 784.134 688.245 791.323 662.421 793.502C635.964 795.735 610.518 790.534 584.405 790.42C566.418 790.487 551.1 790.643 533.339 794.129C508.754 799.866 486.486 811.6 460.968 817.415C417.617 827.295 383.33 814.214 345.538 794.505C329.957 786.38 314.715 777.625 296.874 774.473C251.293 766.437 200.977 784.666 158.569 760.565C147.764 753.805 145.303 743.804 158.709 738.537C179.267 730.459 224.635 729.805 237.979 710.665C238.323 711.803 238.687 712.935 239.072 714.06C252.781 754.012 341.178 757.129 375.574 760.1C398.686 762.097 420.72 768.504 443.72 770.606C485.273 774.405 526.834 766.045 567.503 758.461C584.174 755.362 600.536 751.963 616.455 746.512C667.927 729.884 696.085 690.455 716.802 643.066C736.436 598.155 754.861 543.726 806.729 527.886C838.629 518.145 870.677 520.039 900.916 534.645C889.591 521.689 859.752 510.188 842.999 509.025C815.272 507.1 784.652 518.068 763.73 536.134L763.273 534.997Z" fill="#4F4547"/>
<path d="M763.728 536.136C784.65 518.07 815.27 507.102 842.997 509.027C859.75 510.19 889.589 521.691 900.914 534.647C870.675 520.041 838.627 518.147 806.727 527.888C754.859 543.728 736.434 598.157 716.8 643.068C696.083 690.457 667.925 729.886 616.453 746.514C600.534 751.965 584.172 755.364 567.501 758.463C526.832 766.047 485.271 774.407 443.718 770.608C420.718 768.506 398.684 762.099 375.572 760.102C341.176 757.131 252.779 754.014 239.07 714.062C238.685 712.937 238.321 711.805 237.977 710.667C224.633 729.807 179.265 730.461 158.707 738.539C145.301 743.806 147.762 753.807 158.567 760.567C200.975 784.668 251.291 766.439 296.872 774.475C314.713 777.627 329.955 786.382 345.536 794.507C383.328 814.216 417.615 827.297 460.966 817.417C486.484 811.602 508.752 799.868 533.337 794.131C534.494 794.631 535.614 794.783 535.906 796.228C537.987 806.509 545.313 823.601 553.367 830.564L553.456 830.87C549.78 834.475 544.815 842.362 540.364 846.993C521.612 866.531 499.586 882.636 475.282 894.581C415.708 923.834 347.967 932.468 284.725 910.24C242.934 895.551 198.316 861.353 171.366 826.582C162.723 815.274 155.245 803.121 149.048 790.308C134.798 761.051 124.588 720.438 124.934 687.752C125.121 670.102 128.413 654.482 134.138 637.847C169.509 657.231 200.23 660.989 239.754 649.961C245.323 648.407 251.038 646.227 255.81 642.86C259.991 648.561 264.056 653.043 268.943 658.159C257.077 669.594 238.586 681.943 238.581 700.269C238.579 709.897 244.056 718.254 250.775 724.7C277.812 750.634 342.112 749.624 377.824 752.934C410.173 755.932 440.679 760.297 473.385 759.397C474.122 759.376 474.828 759.337 475.561 759.255C510.059 757.308 540.069 752.536 574.036 746.231C588.032 744.059 604.264 739.481 617.448 734.785C655.284 721.307 685.254 685.366 701.407 649.541C705.294 640.922 709.155 630.435 712.722 621.361C716.439 611.874 720.406 602.487 724.62 593.211C735.673 570.031 745.25 554.259 763.728 536.136Z" fill="url(#paint6_linear_2226_6787)"/>
<path d="M276.535 541.002C278.53 528.619 281.435 520.015 288.464 509.699C290.549 514.838 291.902 541.839 296.205 544.532C293.704 550.754 292.085 555.619 290.487 562.086C290.01 564.015 288.794 571.23 288.438 572.02C283.611 564.929 275.826 549.804 276.535 541.002Z" fill="#F1C0E8"/>
<path d="M363.582 522.205C364.132 518.342 364.759 516.208 368.781 514.957L369.592 515.161C370.047 516.601 370.082 515.912 369.497 517.296L367.236 518.721C366.933 520.143 366.807 520.918 366.244 522.288C364.962 522.926 364.995 523.024 363.595 523.055L363.582 522.205Z" fill="#4F4547"/>
<path d="M473.162 653.553C480.133 646.717 486.464 639.285 492.015 631.242C494.522 627.61 496.598 623.461 499.131 619.836L499.371 619.497C503.135 619.926 507.938 620.041 511.767 619.937C534.417 619.954 556.841 618.457 577.804 609.189C619.897 590.579 654.261 557.764 671.605 515.137C674.062 527.642 676.698 540.111 679.514 552.54C678.698 554.381 677.852 556.207 676.976 558.02C673.166 565.753 669.156 569.818 664.233 576.492C640.397 609.211 606.873 633.602 568.407 646.214C544.885 654.084 513.301 661.619 488.155 658.599C483.026 657.983 477.766 655.846 473.162 653.553Z" fill="#B9FBC0"/>
<path d="M263.557 521.493L266.792 517.09C268.312 529.149 270.383 539.757 274.247 551.302C274.566 552.255 274.097 553.065 273.62 553.856C267.507 560.48 264.015 584.677 263.162 593.695C261.094 591.184 257.45 584.502 255.155 581.272C250.968 575.376 246.932 570.467 242.105 565.087C246.448 547.883 252.733 535.637 263.557 521.493Z" fill="#8EECF5"/>
<path d="M312.992 520.044L314.4 519.434C315.172 528.812 318.539 537.789 324.124 545.361L322.732 546.01C316.178 550.409 309.817 565.516 307.786 572.938C301.015 569.348 302.555 553.072 296.955 545.901C299.999 539.076 303.725 532.576 308.076 526.502C309.452 524.582 311.323 522.569 312.532 520.749L312.992 520.044Z" fill="#DAE5FE"/>
<path d="M296.205 544.534C299.019 538.99 307.858 522.159 312.992 520.043L312.533 520.748C311.324 522.568 309.452 524.581 308.076 526.501C303.725 532.575 299.999 539.075 296.955 545.9C293.968 553.988 290.442 562.671 289.724 571.244L289.579 572.985L288.438 572.022C288.794 571.232 290.01 564.017 290.487 562.088C292.085 555.621 293.704 550.756 296.205 544.534Z" fill="#241E2D"/>
<path d="M262.954 520.539L263.558 521.495C252.734 535.639 246.449 547.885 242.106 565.089C238.956 583.188 240.728 600.872 246.233 618.385C244.844 618.15 245.512 618.393 244.357 617.228C240.29 597.2 237.556 586.648 240.997 565.26C245.257 546.948 252.064 535.589 262.954 520.539Z" fill="#241E2D"/>
<path d="M829.273 526.197C830.7 524.924 831.234 524.877 832.957 525.031L832.808 525.884C834.256 527.628 835.474 528.863 836.391 530.937C835.098 530.881 835.185 530.914 834.091 530.227C834.984 527.79 830.98 526.712 829.273 526.197Z" fill="#64565F"/>
<path d="M786.502 539.88C795.011 534.649 807.762 530.961 817.488 528.493C821.337 527.517 825.386 527.297 829.273 526.195C830.98 526.71 834.984 527.788 834.091 530.225C831.605 529.985 831.453 529.574 829.48 530.429L828.906 531.496C828.45 532.466 827.422 534.504 827.431 535.501C824.177 537.735 823.499 538.605 821.055 541.653L820.425 540.45L819.747 540.36C817.801 543.952 817.733 544.281 817.597 548.376L818.042 549.2C818.555 550.168 819.02 551.993 819.281 552.425C819.764 554.284 820.49 557.549 821.212 559.188C815.741 568.642 808.711 576.639 803.339 586.2C789.075 611.58 784.821 638.155 780.253 666.142C773.535 703.926 758.623 744.666 726.562 767.723C689.14 794.636 648.084 791.812 605.07 787.197C586.213 785.174 564.242 784.466 545.287 786.4C504.439 790.567 468.095 818.505 425.64 814.559C395.668 812.704 364.971 799.573 339.053 785.388C304.686 766.579 279.646 764.49 241.388 769.219C228.117 770.86 205.437 769.185 191.9 767.276C180.711 765.698 160.21 759.434 153.205 749.563C157.551 742.698 165.717 739.761 173.342 737.96C194.842 732.882 218.001 731.307 236.866 718.689C238.363 721.951 240.194 725.048 242.331 727.932C265.656 759.083 345.068 760.421 381.024 764.436C397.74 766.303 413.383 769.404 429.877 771.981C473.044 778.725 516.015 771.004 558.405 762.979C576.624 759.53 593.132 757.265 610.887 751.878C687.439 731.027 709.869 662.522 739.218 597.938C747.125 580.538 763.111 556.07 778.935 544.682C780.172 545.18 779.808 544.964 780.805 545.748L781.509 545.729L781.845 545.594C781.785 546.72 781.78 546.378 782.026 547.488C784.285 547.526 786.247 545.569 787.84 544.156C787.672 543.24 787.008 541.859 786.699 540.663L786.502 539.88ZM800.794 534.898L800.26 537.56C800.879 538.05 800.549 537.979 801.209 537.91C801.536 536.498 801.741 536.3 800.794 534.898ZM806.911 554.328L806.598 556.013C807.835 557.542 807.643 557.112 809.768 557.925C809.293 556.189 808.447 555.209 806.911 554.328ZM781.122 569.789C780.12 572.16 779.377 573.269 777.847 575.348C778.245 576.095 777.994 575.851 778.467 576.195C779.615 574.735 781.574 572.162 781.656 570.312L781.122 569.789ZM788.427 574.636C787.866 576.19 787.441 576.803 788.596 578.347C789.234 576.796 789.923 576.064 789.469 574.93L788.427 574.636ZM762.575 576.815C760.816 578.313 760.796 578.475 759.733 580.59L759.77 581.533L760.061 581.646C761.256 580.154 762.916 578.733 763.1 577.226L762.575 576.815ZM781.782 587.358C780.911 589.357 778.874 593.176 779.258 595.135C780.889 593.048 782.259 590.054 781.782 587.358ZM766.095 598.864C765.074 600.587 761.643 606.628 761.832 608.251L762.089 608.443C763.919 605.151 765.141 602.945 766.574 599.481C766.152 598.866 766.297 598.985 766.095 598.864ZM785.275 599.856C784.659 601.535 783.542 603.552 783.997 604.925L784.379 605.246C785.433 603.045 785.69 602.784 785.776 600.426L785.275 599.856ZM774.275 619.383C773.445 621.685 772.386 624.044 772.291 626.438L772.837 627.133C773.51 625.462 775.652 620.776 774.275 619.383ZM744.251 621.402C742.557 623.879 738.433 629.037 738.721 631.621C740.39 629.551 744.442 624.017 744.251 621.402ZM760.929 622.46C758.442 626.139 757.01 628.939 755.824 633.246C755.96 633.527 756.03 633.87 756.271 634.069C758.111 630.401 759.615 626.943 761.246 623.172L760.929 622.46ZM740.88 642.026C739.245 644.262 737.018 647.22 736.505 649.936L737.059 650.455C738.923 647.459 739.706 645.707 741.153 642.502L740.88 642.026ZM772.562 643.249C771.733 646.097 769.711 653.617 770.639 656.273C771.957 653.38 773.852 646.146 772.562 643.249ZM754.726 643.882C753.331 646.067 750.599 649.678 750.771 652.086C752.173 650.089 755.173 646.271 754.726 643.882ZM741.118 668.873C739.502 671.121 736.039 676.389 736.187 679.084C738.052 676.34 740.283 672.847 741.282 669.678L741.118 668.873ZM753.844 670.495C751.773 674.489 750.328 677.374 748.652 681.525C748.978 682.248 748.736 682.083 749.107 682.274C751.512 678.674 753.024 675.24 754.189 671.072L753.844 670.495ZM722.791 671.891C720.693 675.186 710.815 690.143 710.596 693.055C713.391 689.503 723.28 675.831 722.791 671.891ZM733.324 692.986C731.651 695.577 728.318 701.092 727.534 703.939L727.995 704.191C729.828 701.305 732.961 696.599 733.664 693.28L733.324 692.986ZM752.82 699.412C751.759 700.983 743.678 713.613 743.615 714.459C748.218 711.17 752.787 705.32 752.82 699.412ZM703.358 716.874C701.642 718.768 695.851 724.925 694.748 726.708L695.165 727.102C697.799 725.145 703.281 720.679 703.837 717.424L703.358 716.874ZM720.765 729.314C719.326 731.452 714.447 738.226 714.47 740.362L714.866 740.626C717.428 737.486 719.681 734.109 721.272 730.369C721.049 729.468 721.276 729.785 720.765 729.314ZM743.289 729.892C740.57 733.053 736.453 739.946 734.334 743.653L734.442 744.518C737.384 741.939 743.749 733.809 743.289 729.892ZM221.329 738.668L221.866 739.708C224.871 740.38 230.968 740.841 234.043 740.305C232.384 738.375 223.874 738.332 221.329 738.668ZM677.284 738.461C672.787 741.743 669.565 743.912 664.83 746.854L665.23 747.507C669.697 745.971 674.502 742.738 677.601 739.212C677.429 738.511 677.623 738.702 677.284 738.461ZM189.143 746.115C187.189 746.443 185.776 746.456 184.233 747.653C185.387 748.675 188.039 747.773 189.495 747.427C191.509 747.399 192.88 747.704 194.454 746.814C192.923 745.752 191.011 745.992 189.143 746.115ZM249.011 753.115C253.25 755.686 259.721 756.832 264.629 756.36C261.413 754.297 252.785 752.615 249.011 753.115ZM209.944 756.614C213.51 758.747 221.184 759.357 225.119 757.905C223.613 756.853 212.184 756.385 209.944 756.614ZM301.221 758.092C304.092 759.9 312.77 763.504 316.171 763.544C312.824 760.845 305.487 758.285 301.221 758.092ZM631.785 759.025C629.287 759.745 626.624 760.382 624.319 761.532L624.617 762.05L626.076 761.878C628.762 761.262 630.471 760.998 632.975 759.792L633.227 759.077C632.477 758.978 632.502 758.903 631.785 759.025ZM657.481 759.425C654.587 760.627 652.975 761.179 650.396 763.053L650.268 763.765C650.53 763.732 651.386 763.647 651.602 763.576C653.8 762.758 657.321 761.656 659.099 760.334L659 759.743L657.481 759.425ZM707.045 759.393C705.259 760.789 696.196 767.557 695.937 768.874L696.293 768.922C699.195 767.168 706.611 762.91 707.657 759.738L707.045 759.393ZM239.872 763.218C237.754 763.34 236.364 763.262 234.427 764.086C236.219 765.213 240.875 764.642 243.123 764.461C244.609 764.36 245.699 764.434 246.999 763.73C245.013 762.688 242.079 763.075 239.872 763.218ZM592.815 770.693C589.246 771.022 587.82 770.982 584.551 772.469L584.276 773.073C585.839 773.746 586.911 773.517 588.614 773.42C592.118 772.995 593.462 772.998 596.633 771.428C596.589 771.082 596.203 770.925 595.777 770.579C594.384 770.5 594.161 770.424 592.815 770.693ZM343.004 771.576C344.149 774.012 353.396 778.145 356.181 778.053C354.748 774.855 346.358 772.306 343.004 771.576ZM671.185 773.053C665.574 774.589 660.865 775.673 655.172 776.858L655.017 777.32L655.875 777.545C659.983 777.567 669.68 776.789 672.331 773.501C671.628 772.91 672.02 773.031 671.185 773.053ZM378.37 775.194L378.472 776.191C380.881 778.006 388.702 779.224 391.582 778.868C389.893 776.635 384.282 775.989 381.363 775.577C380.367 775.438 379.369 775.31 378.37 775.194ZM623.303 775.705C619.598 775.994 616.433 776.018 613.216 778.042C614.36 778.984 616.155 778.553 617.62 778.272C622.266 777.6 625.086 777.145 629.552 775.599C627.934 775.61 624.789 775.536 623.303 775.705ZM550.222 776.54C546.886 777.313 546.206 777.432 543.15 779.103L542.821 779.864L543.371 780.231L544.173 779.973C546.28 779.275 550.46 778.118 552.049 776.875C550.98 776.376 551.398 776.465 550.222 776.54ZM529.656 777.523C526.461 778.459 523.47 779.192 520.525 780.752L520.491 781.347C521.774 781.274 522.051 781.304 523.269 780.956C526.298 780.252 529.409 779.668 532.244 778.416L532.563 777.886C531.15 777.263 531.217 777.353 529.656 777.523ZM507.386 785.716C504.215 786.001 497.44 786.421 495.268 788.898L495.522 789.672C496.382 789.613 496.547 789.67 497.356 789.418C501.149 788.508 505.881 787.597 509.42 786.24L509.732 785.677C508.335 785.528 508.767 785.495 507.386 785.716ZM425.198 788.591C428.255 790.974 436.831 792.512 440.62 792.405C437.743 789.636 429.017 787.901 425.198 788.591ZM468.167 789.788C469.296 792.71 476.618 791.225 479.39 790.939L479.409 789.853C477.6 788.701 470.532 789.592 468.167 789.788ZM387.782 790.947L387.425 792.233C389.373 794.974 398.928 796.757 402.739 797.702C402.478 793.088 391.647 791.1 387.782 790.947ZM440.472 801.174C441.971 803.825 448.471 802.977 451.458 802.786L451.287 801.725C448.467 800.664 443.534 800.828 440.472 801.174Z" fill="url(#paint7_linear_2226_6787)"/>
<path d="M828.906 531.497L829.48 530.43C831.453 529.575 831.605 529.986 834.091 530.226C835.185 530.913 835.098 530.88 836.391 530.936C844.635 538.165 837.367 559.193 824.17 559.333C824.093 557.814 824.142 557.385 822.97 556.572C821.478 557.493 821.958 557.15 821.212 559.189C820.49 557.55 819.764 554.285 819.281 552.426C820.05 548.178 818.906 547.24 821.055 541.654C823.499 538.606 824.177 537.736 827.431 535.502C828.705 536.502 828.644 536.258 829.475 537.572C826.211 539.755 823.198 541.729 822.602 545.869C821.309 554.842 827.349 559.901 833.54 550.571C834.413 549.425 835.343 546.902 835.934 545.488C836.776 538.423 838.938 532.062 828.906 531.497Z" fill="#55433F"/>
<path d="M827.432 535.501C827.423 534.504 828.451 532.466 828.907 531.496C838.939 532.061 836.777 538.422 835.935 545.487L834.716 544.355C833.602 542.108 832.869 541.35 831.289 539.419C830.024 538.614 830.433 538.869 829.476 537.571C828.645 536.257 828.706 536.501 827.432 535.501Z" fill="#FDE4CF"/>
<path d="M226.9 577.941C225.528 561.659 224.949 550.808 228.83 534.262C229.849 536.272 230.711 541.016 230.883 543.414C231.368 550.157 236.149 560.589 240.996 565.26C237.555 586.648 240.289 597.2 244.356 617.228C239.459 611.52 229.061 585.689 226.9 577.941Z" fill="#CFBAF0"/>
<path d="M372.783 545.381C378.99 541.967 381.139 540.366 385.199 534.504L386.021 535.041C382.87 539.652 379.006 544.084 373.463 545.913L372.783 545.381Z" fill="#5D808A"/>
<path d="M427.317 566.882L426.191 567.647L425.847 567.431C427.136 561.056 428.012 554.878 427.107 548.387C426.541 544.327 425.242 538.85 425.219 534.91C429.068 544.64 429.006 556.695 427.317 566.882Z" fill="#1F2A2E"/>
<path d="M801.211 537.91C800.551 537.979 800.881 538.05 800.262 537.56L800.796 534.898C801.743 536.3 801.538 536.498 801.211 537.91Z" fill="#84716C"/>
<path d="M723.619 592.525C732.874 571.707 746.811 550.714 763.272 534.996L763.729 536.133C745.251 554.256 735.674 570.028 724.621 593.208L723.619 592.525Z" fill="#2F2425"/>
<path d="M833.54 550.573C827.349 559.903 821.309 554.844 822.602 545.871C823.198 541.731 826.211 539.757 829.475 537.574C830.432 538.872 830.023 538.617 831.288 539.422C827.432 541.156 825.294 541.694 823.54 545.918C822.786 547.734 822.632 549.898 823.678 551.658C824.322 552.736 825.411 553.473 826.651 553.67C829.194 554.077 831.687 552.023 833.014 550.048L833.54 550.573Z" fill="#FDE4CF"/>
<path d="M833.016 550.048C831.689 552.023 829.196 554.077 826.653 553.67C825.413 553.473 824.324 552.736 823.68 551.658C822.634 549.898 822.788 547.734 823.542 545.918C825.296 541.694 827.434 541.156 831.29 539.422C832.87 541.353 833.603 542.111 834.717 544.358C834.383 547.113 834.195 547.517 833.016 550.048Z" fill="#4F4547"/>
<path d="M778.936 544.685C779.822 543.437 784.928 540.75 786.503 539.883L786.7 540.666C787.009 541.862 787.673 543.243 787.841 544.159C786.248 545.572 784.286 547.529 782.027 547.491C781.781 546.381 781.786 546.723 781.846 545.597C783.59 543.877 785.237 543.71 786.269 541.979C784.013 542.158 782.82 543.102 781.411 544.765L781.51 545.732L780.806 545.751C779.809 544.967 780.173 545.183 778.936 544.685Z" fill="#FFCFD2"/>
<path d="M819.282 552.428C819.021 551.996 818.556 550.171 818.043 549.203L817.598 548.379C817.734 544.284 817.802 543.955 819.748 540.363L820.426 540.453L821.056 541.656C818.907 547.242 820.051 548.18 819.282 552.428Z" fill="#FDE4CF"/>
<path d="M909.875 542.333C913.083 541.184 915.022 540.653 918.29 542.038C927.134 545.784 919.17 559.267 911.446 554.782C907.251 552.346 907.409 547.518 908.776 543.456L909.875 542.333ZM912.698 543.882C910.355 545.117 909.466 548.024 910.718 550.358C911.969 552.692 914.882 553.56 917.207 552.292C919.509 551.037 920.367 548.159 919.128 545.848C917.889 543.538 915.017 542.659 912.698 543.882Z" fill="#55433F"/>
<path d="M781.509 545.73L781.41 544.763C782.819 543.1 784.012 542.156 786.268 541.977C785.236 543.708 783.589 543.875 781.845 545.595L781.509 545.73Z" fill="#D1837B"/>
<path d="M410.017 550.341L409 552.06C409.258 548.876 409.299 545.895 410.33 542.895C410.838 545.092 410.305 548.031 410.017 550.341Z" fill="#6CA5B1"/>
<path d="M917.207 552.294C914.882 553.562 911.969 552.694 910.718 550.36C909.466 548.026 910.355 545.119 912.698 543.884C915.017 542.661 917.889 543.54 919.128 545.85C920.367 548.161 919.509 551.039 917.207 552.294Z" fill="#FFFFFA"/>
<path d="M834.717 544.355L835.936 545.487C835.345 546.901 834.415 549.424 833.542 550.57L833.016 550.045C834.195 547.514 834.383 547.11 834.717 544.355Z" fill="#84716C"/>
<path d="M324.124 545.359C330.274 551.509 331.918 551.387 337.843 556.246C337.599 557.452 337.591 557.549 337.089 558.664C330.413 569.625 327.577 581.75 326.03 594.378C316.53 591.121 315.712 576.302 310.014 568.955C313.28 559.649 316.954 553.893 322.732 546.008L324.124 545.359Z" fill="#DAE5FE"/>
<path d="M289.578 572.983L289.723 571.242C290.441 562.669 293.967 553.986 296.954 545.898C302.554 553.069 301.014 569.345 307.785 572.935C306.363 579.892 305.851 584.434 306.759 591.557L305.727 591.708C301.429 588.54 291.726 577.77 289.578 572.983Z" fill="#F1C0E8"/>
<path d="M307.786 572.936C309.817 565.514 316.178 550.407 322.732 546.008C316.954 553.893 313.28 559.649 310.014 568.955C306.561 582.293 307.949 580.485 307.869 592.691L306.76 591.558C305.852 584.435 306.364 579.893 307.786 572.936Z" fill="#241E2D"/>
<path d="M515.68 549.232L516.63 548.93C516.9 551.967 515.216 558.59 514.595 561.761C510.993 580.164 505.548 595.861 495.924 612.031C493.528 615.797 490.969 621.317 487.927 624.498C479.988 632.798 465.422 636.963 454.306 637.547C430.026 638.822 403.793 628.691 390.02 608.017C404.376 601.621 409.309 597.562 420.101 585.9C421.104 584.816 421.39 584.818 423.098 585.376C456.721 596.007 497.167 578.63 515.68 549.232ZM490.699 600.9C471.111 611.736 449.31 612.769 427.985 606.739C422.157 605.091 414.536 601.105 410.648 600.188C412.525 601.775 415.498 602.96 417.801 603.98C442.711 615.021 467.182 614.411 491.005 601.497C492.542 600.933 496.136 598.984 497.054 597.603C495.296 597.578 492.258 599.828 490.699 600.9Z" fill="#8EECF5"/>
<path d="M515.132 548.852L515.68 549.231C497.167 578.629 456.721 596.006 423.098 585.375L424.348 584.71C433.231 586.562 442.35 587.011 451.372 586.039C479.493 582.974 498.06 570.269 515.132 548.852Z" fill="#2F3D44"/>
<path d="M409.001 552.062L410.018 550.344C409.438 555.581 406.143 590.32 407.003 592.819C405.896 593.137 406.283 592.818 405.737 593.633C405.048 578.946 408.81 565.982 409.001 552.062Z" fill="#2F3D44"/>
<path d="M273.62 553.855L274.09 554.152C268.456 565.518 263.957 582.027 264.172 595.22C264.241 595.423 264.31 595.627 264.38 595.83C264.357 619.584 269.507 638.642 279.251 659.951C278.627 659.806 278.232 659.578 277.637 659.314C266.355 634.447 264.046 620.647 263.162 593.694C264.015 584.676 267.507 560.479 273.62 553.855Z" fill="#241E2D"/>
<path d="M274.089 554.152L275.193 554.504C276.294 556.637 276.962 558.765 278.098 560.853C282.086 568.181 286.206 575.692 291.307 582.308C291.706 582.826 291.53 582.51 291.766 583.206C287.793 598.039 289.172 611.647 290.706 626.608C280.911 617.932 272.202 606.092 264.379 595.83C264.309 595.627 264.24 595.423 264.171 595.22C263.956 582.027 268.455 565.518 274.089 554.152Z" fill="#8EECF5"/>
<path d="M809.77 557.925C807.645 557.112 807.837 557.542 806.6 556.013L806.913 554.328C808.449 555.209 809.295 556.189 809.77 557.925Z" fill="#55433F"/>
<path d="M337.596 558.692L338.949 556.764C340.819 556.452 351.156 560.337 354.339 560.62C356.408 560.805 361.138 560.735 362.519 561.681C359.778 565.476 355.483 571.68 354.029 576.155C351.045 583.586 348.411 591.182 348.411 599.309C347.923 602.854 348.157 606.237 348.272 609.812C342.162 608.7 332.397 607.445 327.339 604.45C324.93 590.23 331.556 571.394 337.596 558.692Z" fill="#8EECF5"/>
<path d="M378.094 556.809L379.223 556.434C375.696 566.303 371.216 580.144 369.936 590.358C369.288 595.523 369.348 603.274 369.145 608.7L368.312 609.169C367.696 605.647 368.095 602.577 368.063 599.147C367.916 583.407 374.597 571.426 378.094 556.809Z" fill="#3E5562"/>
<path d="M362.926 561.849C364.131 560.675 374.875 557.972 378.094 556.809C374.597 571.426 367.916 583.407 368.063 599.147C368.095 602.577 367.696 605.647 368.312 609.169C362.068 609.78 356.37 610.558 350.102 609.91C349.963 607.343 349.798 606.039 349.332 603.509C349.528 602.621 349.852 597.688 349.952 596.506C350.571 589.234 351.768 583.87 354.654 577.152C357.15 571.247 359.608 567.32 362.926 561.849Z" fill="#8EECF5"/>
<path d="M337.088 558.664L337.596 558.69C331.556 571.392 324.93 590.228 327.339 604.448L326.103 604.019C325.722 599.915 325.72 598.492 326.029 594.378C327.576 581.75 330.412 569.625 337.088 558.664Z" fill="#2F3D44"/>
<path d="M470.34 656.492C485.173 664.774 493.679 664.351 510.334 663.58C524.806 662.911 537.804 660.63 551.836 657.103C593.265 646.689 631.969 623.922 659.312 590.877C667.234 581.28 673.931 570.117 680.182 559.418C681.563 563.401 682.41 568.177 683.275 572.353C667.196 607.187 618.126 643.349 583.468 658.719C547.784 674.543 497.98 683.525 460.874 669.548C459.294 668.759 459.306 668.773 457.99 667.598C458.358 666.794 468.857 657.85 470.34 656.492Z" fill="#B9FBC0"/>
<path d="M434.936 561.45L435.778 560.348C439.356 560.503 442.44 560.571 446.018 560.517L442.884 561.046L442.845 561.39L443.909 561.716C441.943 561.874 437.13 561.548 434.936 561.45Z" fill="#3E5562"/>
<path d="M354.029 576.154C355.483 571.679 359.778 565.475 362.519 561.68L362.925 561.847C359.607 567.318 357.149 571.245 354.653 577.15L354.029 576.154Z" fill="#5D808A"/>
<path d="M518.628 568.053L531.793 563.656L530.97 565.29C526.517 566.432 522.675 567.64 518.322 569.047L518.628 568.053Z" fill="#2A352F"/>
<path d="M246.231 618.386C240.726 600.873 238.954 583.189 242.104 565.09C246.931 570.47 250.967 575.379 255.154 581.275C257.449 584.505 261.093 591.187 263.161 593.698C264.045 620.651 266.354 634.451 277.636 659.318C275.776 658.671 272.433 654.472 270.851 652.818C260.562 642.056 252.698 631.832 246.231 618.386Z" fill="#CFBAF0"/>
<path d="M223.082 569.911C223.63 568.973 224.036 567.755 224.441 566.719C224.777 569.842 225.093 573.006 225.467 576.122C224.084 574.695 223.557 571.859 223.082 569.911Z" fill="#A3C4F3"/>
<path d="M310.015 568.957C315.713 576.304 316.531 591.123 326.031 594.38C325.722 598.494 325.724 599.917 326.105 604.021C322.046 603.204 310.231 596.254 307.87 592.693C307.95 580.487 306.562 582.295 310.015 568.957Z" fill="#F1C0E8"/>
<path d="M388.808 581.109L387.59 582.599C387.977 578.427 388.895 575.015 390.247 571.086C389.719 574.318 389.316 577.812 388.808 581.109Z" fill="#6CA5B1"/>
<path d="M778.468 576.195C777.995 575.851 778.246 576.095 777.848 575.348C779.378 573.269 780.121 572.16 781.123 569.789L781.657 570.312C781.575 572.162 779.616 574.735 778.468 576.195Z" fill="#9F9396"/>
<path d="M788.597 578.348C787.442 576.804 787.867 576.191 788.428 574.637L789.47 574.931C789.924 576.065 789.235 576.797 788.597 578.348Z" fill="#3C2B23"/>
<path d="M354.03 576.152L354.654 577.148C351.768 583.866 350.571 589.23 349.952 596.502C349.852 597.684 349.528 602.617 349.332 603.505L348.671 603.001L348.412 599.306C348.412 591.179 351.046 583.583 354.03 576.152Z" fill="#181616"/>
<path d="M760.062 581.647L759.771 581.534L759.734 580.591C760.797 578.476 760.817 578.314 762.576 576.816L763.101 577.227C762.917 578.734 761.257 580.155 760.062 581.647Z" fill="#84716C"/>
<path d="M220.947 579.027C226.084 593.393 232 607.104 240.64 619.733C245.792 627.265 250.417 635.548 255.81 642.858C251.038 646.225 245.323 648.405 239.754 649.959C200.23 660.987 169.509 657.229 134.138 637.845L134.111 637.526C142.982 610.622 166.045 590.989 193.429 584.391C202.183 582.282 211.931 581.536 220.474 579.163L220.947 579.027Z" fill="#CFBAF0"/>
<path d="M387.589 582.595L388.807 581.105C387.266 589.732 387.172 594.042 388.311 602.659L387.43 604.08C385.961 595.937 386.512 590.645 387.589 582.595Z" fill="#2F3D44"/>
<path d="M290.707 626.609C289.173 611.648 287.794 598.04 291.767 583.207L292.692 583.939C289.132 599.14 289.33 621.081 294.142 635.915C299.326 652.494 307.626 667.931 318.598 681.397L318.073 682.262C304.785 666.554 294.661 646.852 290.707 626.609Z" fill="#1F2A2E"/>
<path d="M292.691 583.941C299.59 589.98 300.344 594.251 310.514 601.134C306.797 614.089 313.698 640.293 317.785 653.529C315.774 654.103 298.992 638.436 294.141 635.917C289.329 621.083 289.131 599.142 292.691 583.941Z" fill="#8EECF5"/>
<path d="M779.259 595.136C778.875 593.177 780.912 589.358 781.783 587.359C782.26 590.055 780.89 593.049 779.259 595.136Z" fill="#3C2B23"/>
<path d="M646.396 632.937C636.239 643.554 627.491 650.17 615.608 658.836C613.739 659.754 610.619 661.664 608.836 662.767C563.283 690.956 511.051 701.432 458.729 687.992C452.215 686.319 444.144 682.437 437.377 679.95C442.288 676.267 448.669 672.636 454 669.539C466.406 678.456 489.183 680.284 504.195 679.895C565.677 678.301 622.836 649.448 664.238 604.577C667.63 600.9 670.377 596.557 673.884 592.891C673.799 594.109 671.835 597.283 671.157 598.516C664.09 611.375 656.164 622.04 646.396 632.937Z" fill="#B9FBC0"/>
<path d="M574.355 744.792C576.311 744.068 591.439 740.667 594.481 739.913C647.461 726.782 679.846 690.892 701.591 642.617C707.576 629.331 716.199 605.129 723.376 592.932L723.619 592.527L724.621 593.21C720.407 602.486 716.44 611.873 712.723 621.36C709.156 630.434 705.295 640.921 701.408 649.54C685.255 685.365 655.285 721.306 617.449 734.784C604.265 739.48 588.033 744.058 574.037 746.23L574.355 744.792Z" fill="#4F4547"/>
<path d="M264.381 595.832C272.204 606.094 280.913 617.934 290.708 626.61C294.662 646.853 304.786 666.555 318.074 682.263L320.864 685.42C307.628 681.223 287.933 670.831 279.252 659.952C269.508 638.643 264.358 619.586 264.381 595.832Z" fill="#CFBAF0"/>
<path d="M490.697 600.899C492.256 599.827 495.294 597.577 497.052 597.602C496.134 598.983 492.54 600.932 491.003 601.496L490.697 600.899Z" fill="#6CA5B1"/>
<path d="M762.091 608.446L761.834 608.254C761.645 606.631 765.076 600.59 766.097 598.867C766.299 598.988 766.154 598.869 766.576 599.484C765.143 602.948 763.921 605.154 762.091 608.446Z" fill="#2F2425"/>
<path d="M491.003 601.497C467.18 614.411 442.709 615.02 417.799 603.979C415.496 602.959 412.523 601.775 410.646 600.188C414.534 601.104 422.155 605.091 427.983 606.739C449.308 612.769 471.109 611.736 490.697 600.9L491.003 601.497Z" fill="#1F2A2E"/>
<path d="M784.381 605.249L783.999 604.928C783.544 603.555 784.661 601.538 785.277 599.859L785.778 600.429C785.692 602.787 785.435 603.048 784.381 605.249Z" fill="#2F2425"/>
<path d="M317.786 653.528C313.699 640.292 306.798 614.088 310.515 601.133L310.935 601.648C308.656 618.124 315.057 643.518 321.63 658.929C325.333 667.611 333.062 678.44 339.418 685.435C339.813 686.093 341.112 688.16 341.35 688.749C330.281 678.402 323.066 667.811 317.786 653.528Z" fill="#1F2A2E"/>
<path d="M310.935 601.648C327.234 612.857 333.973 613.015 353.724 614.715C358.426 636.168 375.519 659.204 394.08 671.081C398.682 674.019 403.605 676.421 408.753 678.24C411.219 679.244 416.2 680.895 418.122 681.821C406.144 687.31 396.035 691.682 382.583 692.694C380.545 692.847 377.913 693.204 375.955 692.815C345.874 677.433 328.308 643.728 324.704 611.034C323.908 611.961 324.25 612.67 324.353 613.968C326.713 643.786 344.298 680.657 373.12 693.242C368.632 695.208 350.496 692.946 345.531 691.089C344.928 690.863 340.372 686.339 339.418 685.435C333.062 678.44 325.333 667.611 321.63 658.929C315.057 643.518 308.656 618.124 310.935 601.648Z" fill="#8EECF5"/>
<path d="M369.586 613.842C371.863 612.648 383.83 610.029 387.469 609.004C409.306 638.754 448.205 649.991 481.654 633.111C469.831 646.32 463.392 652.79 449 663.428C444.667 663.631 440.325 663.549 436.003 663.182C408.544 659.469 380.824 639.245 369.586 613.842Z" fill="#8EECF5"/>
<path d="M373.12 693.243C344.298 680.658 326.713 643.787 324.353 613.969C324.25 612.671 323.908 611.962 324.704 611.035C328.308 643.729 345.874 677.434 375.955 692.816C374.102 693.639 375.02 693.545 373.12 693.243Z" fill="#2F3D44"/>
<path d="M354.566 614.86C356.432 614.586 367.57 613.562 368.922 614.145C373.301 629.863 392.348 646.372 406.269 654.16C415.608 659.404 425.859 662.826 436.476 664.243C440.142 664.647 443.909 664.703 447.602 664.821C440.762 669.406 426.765 677.978 419.384 681.084C416.512 680.353 411.981 678.52 409.061 677.433C379.718 665.402 365.866 643.114 354.566 614.86Z" fill="#8EECF5"/>
<path d="M368.924 614.146L369.587 613.84C380.825 639.243 408.545 659.467 436.004 663.18L436.478 664.243C425.861 662.826 415.61 659.405 406.271 654.161C392.35 646.373 373.303 629.864 368.924 614.146Z" fill="#1F2A2E"/>
<path d="M353.725 614.715L354.568 614.861C365.868 643.115 379.72 665.404 409.063 677.435L408.754 678.24C403.606 676.421 398.683 674.019 394.081 671.081C375.52 659.204 358.427 636.168 353.725 614.715Z" fill="#1F2A2E"/>
<path d="M499.97 618.676C502.225 618.775 504.481 618.861 506.737 618.936C508.437 619.302 510.051 619.656 511.767 619.939C507.938 620.043 503.135 619.928 499.371 619.499L499.97 618.676Z" fill="#61A383"/>
<path d="M519.369 619.251C517.809 619.495 515.999 619.317 514.379 619.248C516.34 618.827 517.6 618.404 519.369 619.251Z" fill="#181616"/>
<path d="M772.839 627.137L772.293 626.442C772.388 624.048 773.447 621.689 774.277 619.387C775.654 620.78 773.512 625.466 772.839 627.137Z" fill="#181616"/>
<path d="M738.721 631.621C738.433 629.037 742.557 623.879 744.251 621.402C744.442 624.017 740.39 629.551 738.721 631.621Z" fill="#181616"/>
<path d="M756.271 634.07C756.03 633.871 755.96 633.528 755.824 633.247C757.01 628.94 758.442 626.14 760.929 622.461L761.246 623.173C759.615 626.944 758.111 630.402 756.271 634.07Z" fill="#181616"/>
<path d="M615.607 658.836C627.49 650.17 636.238 643.554 646.395 632.938L647.862 633.612C637.457 644.37 628.865 650.525 617.112 659.456L615.607 658.836Z" fill="#181616"/>
<path d="M294.143 635.914C298.994 638.433 315.776 654.1 317.787 653.526C323.067 667.809 330.282 678.4 341.351 688.747L344.066 691.478C334.66 690.282 324.976 688.539 318.599 681.396C307.627 667.93 299.327 652.493 294.143 635.914Z" fill="#A3C4F3"/>
<path d="M737.06 650.456L736.506 649.937C737.019 647.221 739.246 644.263 740.881 642.027L741.154 642.503C739.707 645.708 738.924 647.46 737.06 650.456Z" fill="#2F2425"/>
<path d="M770.641 656.274C769.713 653.618 771.735 646.098 772.564 643.25C773.854 646.147 771.959 653.381 770.641 656.274Z" fill="#3C2B23"/>
<path d="M750.771 652.087C750.599 649.679 753.331 646.068 754.726 643.883C755.173 646.272 752.173 650.09 750.771 652.087Z" fill="#2F2425"/>
<path d="M436.004 663.18C440.326 663.547 444.668 663.629 449.001 663.426L447.604 664.822C443.911 664.704 440.144 664.647 436.478 664.243L436.004 663.18Z" fill="#2A6169"/>
<path d="M736.188 679.086C736.04 676.391 739.503 671.123 741.119 668.875L741.283 669.68C740.284 672.849 738.053 676.342 736.188 679.086Z" fill="#181616"/>
<path d="M749.107 682.275C748.736 682.084 748.978 682.249 748.652 681.526C750.328 677.375 751.773 674.49 753.844 670.496L754.189 671.073C753.024 675.241 751.512 678.675 749.107 682.275Z" fill="#181616"/>
<path d="M710.598 693.059C710.817 690.147 720.695 675.19 722.793 671.895C723.282 675.835 713.393 689.507 710.598 693.059Z" fill="#181616"/>
<path d="M409.063 677.434C411.983 678.521 416.514 680.354 419.386 681.085L418.123 681.82C416.201 680.894 411.22 679.243 408.754 678.239L409.063 677.434Z" fill="#2A6169"/>
<path d="M727.996 704.193L727.535 703.941C728.319 701.094 731.652 695.579 733.325 692.988L733.665 693.282C732.962 696.601 729.829 701.307 727.996 704.193Z" fill="#181616"/>
<path d="M743.615 714.461C743.678 713.615 751.759 700.985 752.82 699.414C752.787 705.322 748.218 711.172 743.615 714.461Z" fill="#55433F"/>
<path d="M695.167 727.103L694.75 726.709C695.853 724.926 701.644 718.769 703.36 716.875L703.839 717.425C703.283 720.68 697.801 725.146 695.167 727.103Z" fill="#2F2425"/>
<path d="M714.867 740.628L714.471 740.364C714.448 738.228 719.327 731.454 720.766 729.316C721.277 729.787 721.05 729.47 721.273 730.371C719.682 734.111 717.429 737.488 714.867 740.628Z" fill="#2F2425"/>
<path d="M734.444 744.521L734.336 743.656C736.455 739.949 740.572 733.056 743.291 729.895C743.751 733.812 737.386 741.942 734.444 744.521Z" fill="#55433F"/>
<path d="M234.044 740.309C230.969 740.845 224.872 740.384 221.867 739.712L221.33 738.672C223.875 738.336 232.385 738.379 234.044 740.309Z" fill="#533027"/>
<path d="M665.23 747.511L664.83 746.858C669.565 743.916 672.787 741.747 677.284 738.465C677.623 738.706 677.429 738.515 677.601 739.216C674.502 742.742 669.697 745.975 665.23 747.511Z" fill="#181616"/>
<path d="M476.367 757.972C508.127 757.52 543.035 750.454 574.355 744.789L574.037 746.227C540.07 752.532 510.06 757.304 475.562 759.251C474.328 758.983 474.737 759.199 473.742 758.496L476.367 757.972Z" fill="#181616"/>
<path d="M189.496 747.429C188.04 747.775 185.388 748.677 184.234 747.655C185.777 746.458 187.19 746.445 189.144 746.117C191.012 745.994 192.924 745.754 194.455 746.816C192.881 747.706 191.51 747.401 189.496 747.429Z" fill="#181616"/>
<path d="M264.63 756.361C259.722 756.833 253.251 755.687 249.012 753.116C252.786 752.616 261.414 754.298 264.63 756.361Z" fill="#55433F"/>
<path d="M225.12 757.906C221.185 759.358 213.511 758.749 209.945 756.616C212.185 756.387 223.614 756.854 225.12 757.906Z" fill="#533027"/>
<path d="M316.173 763.546C312.772 763.506 304.094 759.902 301.223 758.094C305.489 758.287 312.826 760.847 316.173 763.546Z" fill="#3C2B23"/>
<path d="M468.623 758.758C466.515 759.179 463.601 759.729 461.637 758.763C463.894 758.308 466.293 758.615 468.623 758.758Z" fill="#181616"/>
<path d="M626.077 761.881L624.618 762.053L624.32 761.535C626.625 760.385 629.288 759.748 631.786 759.028C632.503 758.906 632.478 758.981 633.228 759.08L632.976 759.795C630.472 761.001 628.763 761.265 626.077 761.881Z" fill="#181616"/>
<path d="M651.604 763.577C651.388 763.648 650.532 763.733 650.27 763.766L650.398 763.054C652.977 761.18 654.589 760.628 657.483 759.426L659.002 759.744L659.101 760.335C657.323 761.657 653.802 762.759 651.604 763.577Z" fill="#2F2425"/>
<path d="M696.294 768.924L695.938 768.875C696.197 767.558 705.26 760.791 707.046 759.395L707.658 759.74C706.612 762.912 699.196 767.17 696.294 768.924Z" fill="#3C2B23"/>
<path d="M243.124 764.464C240.876 764.645 236.22 765.216 234.428 764.089C236.365 763.265 237.755 763.343 239.873 763.221C242.08 763.078 245.014 762.691 247 763.733C245.7 764.437 244.61 764.363 243.124 764.464Z" fill="#2F2425"/>
<path d="M588.615 773.423C586.912 773.52 585.84 773.749 584.277 773.076L584.552 772.472C587.821 770.985 589.247 771.025 592.816 770.696C594.162 770.427 594.385 770.503 595.778 770.582C596.204 770.928 596.59 771.085 596.634 771.431C593.463 773.001 592.119 772.998 588.615 773.423Z" fill="#55433F"/>
<path d="M356.183 778.055C353.398 778.147 344.151 774.014 343.006 771.578C346.36 772.308 354.75 774.857 356.183 778.055Z" fill="#55433F"/>
<path d="M655.876 777.548L655.018 777.323L655.173 776.861C660.866 775.676 665.575 774.592 671.186 773.056C672.021 773.034 671.629 772.913 672.332 773.504C669.681 776.792 659.984 777.57 655.876 777.548Z" fill="#55433F"/>
<path d="M391.583 778.869C388.703 779.225 380.882 778.007 378.473 776.192L378.371 775.195C379.37 775.311 380.368 775.439 381.364 775.578C384.283 775.99 389.894 776.636 391.583 778.869Z" fill="#55433F"/>
<path d="M617.621 778.274C616.156 778.555 614.361 778.986 613.217 778.044C616.434 776.02 619.599 775.996 623.304 775.707C624.79 775.538 627.935 775.612 629.553 775.601C625.087 777.147 622.267 777.602 617.621 778.274Z" fill="#55433F"/>
<path d="M544.174 779.976L543.372 780.234L542.822 779.867L543.151 779.106C546.207 777.435 546.887 777.316 550.223 776.543C551.399 776.468 550.981 776.379 552.05 776.878C550.461 778.121 546.281 779.278 544.174 779.976Z" fill="#181616"/>
<path d="M523.27 780.957C522.052 781.305 521.775 781.275 520.492 781.348L520.526 780.753C523.471 779.193 526.462 778.46 529.657 777.524C531.218 777.354 531.151 777.264 532.564 777.887L532.245 778.417C529.41 779.669 526.299 780.253 523.27 780.957Z" fill="#3C2B23"/>
<path d="M497.358 789.419C496.549 789.671 496.384 789.614 495.524 789.673L495.27 788.899C497.442 786.422 504.217 786.002 507.388 785.717C508.769 785.496 508.337 785.529 509.734 785.678L509.422 786.241C505.883 787.598 501.151 788.509 497.358 789.419Z" fill="#3C2B23"/>
<path d="M440.621 792.407C436.832 792.514 428.256 790.976 425.199 788.593C429.018 787.903 437.744 789.638 440.621 792.407Z" fill="#55433F"/>
<path d="M479.391 790.942C476.619 791.228 469.297 792.713 468.168 789.791C470.533 789.595 477.601 788.704 479.41 789.856L479.391 790.942Z" fill="#3C2B23"/>
<path d="M533.338 794.131C551.099 790.645 566.417 790.489 584.404 790.422C581.275 798.458 559.83 823 553.368 830.564C545.314 823.601 537.988 806.509 535.907 796.228C535.615 794.783 534.495 794.631 533.338 794.131Z" fill="#FDE4CF"/>
<path d="M402.74 797.704C398.929 796.759 389.374 794.976 387.426 792.235L387.783 790.949C391.648 791.102 402.479 793.09 402.74 797.704Z" fill="#4F4547"/>
<path d="M451.459 802.789C448.472 802.98 441.972 803.828 440.473 801.177C443.535 800.831 448.468 800.667 451.288 801.728L451.459 802.789Z" fill="#3C2B23"/>
<defs>
<linearGradient id="paint0_linear_2226_6787" x1="360.162" y1="787.539" x2="684.513" y2="206.112" gradientUnits="userSpaceOnUse">
<stop stop-color="#404548"/>
<stop offset="1" stop-color="#544A46"/>
</linearGradient>
<linearGradient id="paint1_linear_2226_6787" x1="527.716" y1="394.962" x2="559.908" y2="412.683" gradientUnits="userSpaceOnUse">
<stop stop-color="#121D13"/>
<stop offset="1" stop-color="#484542"/>
</linearGradient>
<linearGradient id="paint2_linear_2226_6787" x1="552.39" y1="444.407" x2="589.295" y2="472.521" gradientUnits="userSpaceOnUse">
<stop stop-color="#242222"/>
<stop offset="1" stop-color="#4C4A48"/>
</linearGradient>
<linearGradient id="paint3_linear_2226_6787" x1="521.988" y1="419.742" x2="527.953" y2="422.131" gradientUnits="userSpaceOnUse">
<stop stop-color="#222F24"/>
<stop offset="1" stop-color="#4A4647"/>
</linearGradient>
<linearGradient id="paint4_linear_2226_6787" x1="553.024" y1="440.605" x2="573.056" y2="455.106" gradientUnits="userSpaceOnUse">
<stop stop-color="#231F21"/>
<stop offset="1" stop-color="#50504E"/>
</linearGradient>
<linearGradient id="paint5_linear_2226_6787" x1="352.443" y1="495.032" x2="364.615" y2="559.572" gradientUnits="userSpaceOnUse">
<stop stop-color="#0B0809"/>
<stop offset="1" stop-color="#4C4E58"/>
</linearGradient>
<linearGradient id="paint6_linear_2226_6787" x1="320.961" y1="932.922" x2="631.177" y2="381.044" gradientUnits="userSpaceOnUse">
<stop stop-color="#FDDAD4"/>
<stop offset="1" stop-color="#F8E7FF"/>
</linearGradient>
<linearGradient id="paint7_linear_2226_6787" x1="439.523" y1="834.53" x2="545.143" y2="449.154" gradientUnits="userSpaceOnUse">
<stop stop-color="#FEEED2"/>
<stop offset="1" stop-color="#FBF2F2"/>
</linearGradient>
</defs>
</svg>
