<svg width="1024" height="1024" viewBox="0 0 1024 1024" fill="none" xmlns="http://www.w3.org/2000/svg">
<path d="M504.512 151.939C508.548 149.116 512.21 145.801 516.155 142.854C521.839 138.608 528.257 135.001 534.577 131.8C572.799 112.443 624.015 110.575 665.601 117.925C724.69 128.369 778.589 151.793 821.017 194.969C829.514 203.616 837.903 212.745 844.867 222.694C878.387 270.579 894.682 332.757 884.404 390.714C879.859 416.342 871.23 440.872 860.125 464.343C858.081 468.662 856.047 474.158 852.775 477.678C850.665 476.187 848.233 473.959 845.699 473.376C844.981 467.17 846.61 460.3 846.928 454.049C848.041 432.148 848.198 398.487 836.397 379.725C834.417 376.577 829.686 369.069 825.819 368.493C825.049 368.379 824.864 368.717 824.276 369.123C824.045 371.643 829.411 374.657 830.943 376.733C846.533 397.861 846.903 446.793 842.176 472.153L842.015 472.985L841.498 472.767C841.667 471.874 841.88 471.19 841.586 470.294C841.358 469.6 840.991 469.675 840.369 469.434C836.73 465.806 809.247 454.723 802.805 451.805C803.292 447.385 803.536 442.942 803.534 438.495C803.634 420.066 798.733 402.912 785.47 389.611C782.739 386.873 775.86 380.328 771.971 380.33L771.505 381.001C772.725 384.705 781.082 390.094 784.182 393.215C786.711 395.753 788.987 398.53 790.979 401.508C800.7 416.078 802.502 433.937 799.2 450.819C786.35 447.173 773.915 443.236 760.693 441.067C749.893 439.295 738.998 438.819 728.177 437.424C733.819 406.544 738.344 375.345 744.819 344.629C749.362 342.116 753.851 339.452 757.347 335.539C768.107 323.494 761.02 305.311 760.293 290.858C761.712 289.032 763.072 287.116 764.148 285.063C770.486 272.96 764.11 256.462 760.559 244.457C761.782 239.892 762.853 234.966 762.868 230.224C762.889 223.202 760.15 217.534 755.214 212.686C742.68 200.376 709.09 187.629 691.698 182.738C679.191 179.221 666.45 176.79 653.813 173.825C641.526 170.943 629.335 167.77 616.98 165.162C581.593 157.691 540.675 151.713 504.512 151.939ZM798.912 372.641C798.456 374.191 798.032 374.705 798.966 376.227C800.078 378.039 802.469 379.475 803.97 381.046C806.049 383.222 807.814 385.877 809.347 388.457C811.579 392.215 815.398 404.464 817.314 406.058C818.817 402.661 817.247 398.466 815.957 395.172C813.475 388.835 805.892 375.502 799.383 372.784C799.231 372.721 799.069 372.689 798.912 372.641Z" fill="#CFBAF0"/>
<path d="M278.693 245.624C276.986 242.13 275.792 238.722 275.612 234.803C275.161 224.977 280.4 216.03 286.87 209.063C316.572 177.083 381.63 166.421 423.504 159.587C435.223 157.675 446.906 155.191 458.729 154.008C473.915 152.489 489.269 152.433 504.511 151.94C540.674 151.714 581.592 157.692 616.979 165.163C629.334 167.771 641.525 170.944 653.812 173.826C666.449 176.791 679.19 179.222 691.697 182.739C709.089 187.63 742.679 200.377 755.213 212.687C760.149 217.535 762.888 223.203 762.867 230.225C762.852 234.967 761.781 239.893 760.558 244.458C764.109 256.463 770.485 272.961 764.147 285.064C763.071 287.117 761.711 289.033 760.292 290.859C761.019 305.312 768.106 323.495 757.346 335.54C753.85 339.453 749.361 342.117 744.818 344.63C738.343 375.346 733.818 406.545 728.176 437.425C724.266 461.371 721.708 485.709 716.616 509.423C713.042 526.066 706.656 541.658 704.398 558.653C703.064 568.687 703.724 578.607 703.667 588.687C703.567 606.436 702.587 624.225 698.781 641.608C696.724 642.71 694.683 643.625 692.505 644.463C692.334 640.898 693.308 636.851 693.767 633.3C694.534 627.367 695.15 621.477 695.527 615.506C696.224 604.577 696.655 593.633 696.819 582.684C697.013 573.86 696.964 564.945 698.001 556.171C700.076 538.611 706.895 521.917 710.442 504.597C714.962 482.526 716.613 460.022 721.298 437.939C724.25 423.126 726.188 408.084 728.85 393.212C731.61 377.79 735.09 362.552 738.634 347.296C730.117 350.302 721.783 353.735 713.123 356.339C698.24 360.813 682.761 363.839 667.575 367.122C650.122 370.895 632.674 374.859 615.041 377.7C561.63 385.828 502.769 391.237 449.057 384.472C427.922 381.81 407.152 376.595 386.626 371.027C373.164 367.375 359.839 363.742 346.661 359.153C335.375 355.241 324.248 350.888 313.304 346.104C307.308 343.458 301.418 340.115 295.3 337.834C300.304 368.917 305.651 399.945 311.339 430.911C319.158 472.731 327.616 514.616 333.395 556.784C334.361 564.521 335.47 572.239 336.718 579.935C337.455 584.758 338.64 589.999 338.507 594.868L336.05 595.256C334.856 592.18 333.846 589.315 333.291 586.052C332.757 578.329 330.595 570.171 329.219 562.52L321.136 516.928L302.234 409.704C297.859 384.979 293.288 360.345 289.562 335.506C278.267 329.099 275.766 325.614 267.569 315.872C267.639 310.677 267.061 305.464 266.797 300.278C266.172 288.004 266.557 276.089 269.276 264.041C271.616 257.216 274.308 251.376 278.693 245.624ZM497.224 159.048C484.921 158.785 472.726 159.006 460.472 160.213C448.056 161.437 435.77 163.744 423.475 165.82C392.504 171.052 327.837 182.359 304.037 202.27C294.424 207.504 285.622 218.801 282.546 229.27C280.852 235.033 281.07 240.703 283.995 246.034C293.227 262.858 333.44 274.073 351.508 278.927C439.033 302.44 610.998 314.978 693.64 275.707C699.187 273.018 705.193 268.816 709.05 263.931C711.118 261.312 712.895 257.825 712.346 254.384C710.965 245.728 702.599 238.654 695.751 234.023C646.036 200.399 554.298 193.38 495.763 194.545C484.013 194.779 466.847 194.591 455.652 196.794C417.78 200.048 333.945 213.255 309.08 243.304C308.125 244.457 307.244 245.673 306.369 246.887C311.94 251.215 317.977 254.058 324.607 256.4C328.803 257.701 349.92 262.579 351.511 264.017C351.632 265.376 351.414 265.211 350.595 266.2C339.792 265.533 319.834 258.722 310.627 253.255C304.93 249.873 299.219 244.989 297.653 238.266C296.388 232.836 298.487 228.742 301.231 224.268C333.018 188.399 406.835 177.51 452.327 172.648C464.077 171.392 475.942 171.056 487.668 169.671C507.678 168.711 527.648 167.717 547.683 168.69C589.116 170.702 691.664 184.912 721.563 211.872C729.022 218.597 734.482 227.628 734.91 237.847C735.093 242.22 734.235 250.688 731.224 253.978C730.579 254.682 730.353 254.649 729.494 254.923C728.694 254.185 728.85 254.591 728.778 253.534C728.561 250.358 730.099 246.683 730.579 243.503C732.19 232.814 727.339 222.39 719.617 215.181C693.503 190.802 606.451 177.011 571.497 174.166C551.973 172.577 532.716 172.447 513.157 173.262C506.752 173.528 487.646 173.6 482.641 174.762C435.501 177.999 335.905 189.971 304.393 226.746C301.835 229.731 299.943 233.2 300.355 237.246C300.646 240.111 302.242 242.652 303.804 245.001C322.416 219.4 379.02 203.731 409.046 199.007C428.327 195.974 448.268 192.934 467.784 192.422C493.46 190.462 519.239 190.224 544.947 191.708C590.693 194.407 668.921 205.962 704.883 236.818C709.949 241.164 715.378 246.816 715.909 253.824C716.312 259.149 713.731 263.811 710.258 267.649C707.511 270.684 704.217 273.231 700.936 275.663C650.873 302.222 567.45 305.997 511.063 303.862C467.032 302.195 420.707 296.869 377.419 288.754C370.226 286.319 361.909 285.363 354.478 283.472C330.63 277.402 305.966 269.02 285.671 254.832C284.763 253.27 283.542 252.182 282.237 250.951C277.042 261.892 273.338 273.993 273.513 286.218C282.478 302.248 306.602 311.106 323.672 315.924C324.501 316.158 325.333 316.381 326.167 316.595C357.278 327.221 388.255 335.311 420.807 340.184C477.148 349.2 534.485 350.167 591.099 343.056C615.437 339.687 639.587 335.079 663.456 329.25C688.114 323.51 712.158 315.398 735.253 305.026C737.384 304.089 746.928 298.243 748.804 299.339C749.107 299.516 749.263 299.871 749.492 300.137C747.89 304.101 732.822 309.962 728.438 311.819C706.727 321.014 684.637 327.348 661.831 333.154C646.602 337.032 631.248 340.882 615.77 343.637C551.062 354.766 484.934 354.824 420.207 343.807C396.418 341.355 369.828 333.369 346.843 326.644L314.493 316.128C298.607 310.633 284.373 303.727 272.888 291.102C272.113 299.297 272.642 307.747 272.83 315.972C280.753 326.404 302.158 334.957 314.015 340.418C333.006 348.709 351.933 356.407 372.139 361.316C386.945 365.789 401.841 370.288 416.994 373.431C447.377 379.275 478.006 382.813 508.999 382.364C525.415 382.126 541.648 380.652 558 379.453C576.664 378.084 595.219 376.804 613.773 374.239C643.514 369.62 736.358 351.641 753.558 328.697C758.553 322.034 755.686 312.285 754.626 304.683C754.383 299.959 754.545 295.215 754.618 290.487C756.658 287.526 758.949 285.033 760.404 281.663C764.364 272.495 761.508 261.614 757.966 252.786C756.299 256.393 754.483 259.734 752.008 262.862C727.524 293.808 656.855 305.772 619.995 309.815C577.533 314.472 535.154 316.471 492.577 312.08C487.859 311.593 478.552 311.688 474.874 308.74L474.829 307.876C475.232 307.432 475.512 306.836 476.036 306.545C477.138 305.935 486.449 307.548 488.059 307.766C550.771 316.224 676.579 308.805 730.281 274.912C744.215 266.117 751.687 258.432 755.303 242.36C755.724 240.274 755.955 238.154 755.995 236.026C756.173 229.591 755.158 223.401 750.484 218.635C730.437 198.191 669.621 184.766 641.868 178.448C616.087 172.578 590.631 167.135 564.376 163.735C542.098 160.913 519.678 159.348 497.224 159.048Z" fill="url(#paint0_linear_2238_31192)"/>
<path d="M304.037 202.27C327.837 182.359 392.504 171.052 423.475 165.82C435.77 163.744 448.056 161.437 460.472 160.213C472.726 159.006 484.921 158.785 497.224 159.048C494.384 162.897 490.595 165.888 487.668 169.671C475.942 171.056 464.077 171.392 452.327 172.648C406.835 177.51 333.018 188.399 301.231 224.268C300.828 223.549 300.611 223.015 300.516 222.181C300.141 218.89 303.369 207.287 305.477 204.749C306.203 203.875 306.527 203.266 306.937 202.202L306.381 201.764C305.746 202.099 305.417 202.205 304.677 202.252C304.464 202.265 304.25 202.264 304.037 202.27Z" fill="#FDF5F8"/>
<path d="M497.223 159.051C519.677 159.351 542.097 160.916 564.375 163.738C590.63 167.138 616.086 172.581 641.867 178.451C669.62 184.769 730.436 198.194 750.483 218.638C755.157 223.404 756.172 229.594 755.994 236.029C755.954 238.157 755.723 240.277 755.302 242.363L754.652 241.801C752.819 242.919 749.522 249.338 747.786 251.508C744.342 255.813 740.525 259.88 736.116 263.211C727.504 269.719 711.976 276.802 700.935 275.666C704.216 273.234 707.51 270.687 710.257 267.652C713.73 263.814 716.311 259.152 715.908 253.827C715.377 246.819 709.948 241.167 704.882 236.821C668.92 205.965 590.692 194.41 544.946 191.711C519.238 190.227 493.459 190.465 467.783 192.425C471.699 185.893 480.113 182.131 483.971 175.27L482.64 174.765C487.645 173.603 506.751 173.531 513.156 173.265C532.715 172.45 551.972 172.58 571.496 174.169C606.45 177.014 693.502 190.805 719.616 215.184C727.338 222.393 732.189 232.817 730.578 243.506C730.098 246.686 728.56 250.361 728.777 253.537C728.849 254.594 728.693 254.188 729.493 254.926C730.352 254.652 730.578 254.685 731.223 253.981C734.234 250.691 735.092 242.223 734.909 237.85C734.481 227.631 729.021 218.6 721.562 211.875C691.663 184.915 589.115 170.705 547.682 168.693C527.647 167.72 507.677 168.714 487.667 169.674C490.594 165.891 494.383 162.9 497.223 159.051Z" fill="#CFBAF0"/>
<path d="M303.804 245.001C302.242 242.652 300.646 240.111 300.355 237.246C299.943 233.2 301.835 229.731 304.393 226.746C335.905 189.971 435.501 177.999 482.641 174.762L483.972 175.267C480.114 182.128 471.7 185.89 467.784 192.422C448.268 192.934 428.327 195.974 409.046 199.007C379.02 203.731 322.416 219.4 303.804 245.001Z" fill="#FDF5F8"/>
<path d="M455.652 196.793C466.847 194.59 484.013 194.778 495.763 194.544C554.298 193.379 646.036 200.398 695.751 234.022C702.599 238.653 710.965 245.727 712.346 254.383C712.895 257.824 711.118 261.311 709.05 263.93C705.193 268.815 699.187 273.017 693.64 275.706C692.772 275.192 692.057 274.883 691.049 274.741C684.508 273.817 677.62 273.761 671.021 273.319C658.817 272.591 646.635 271.533 634.488 270.147C580.992 263.967 528.85 249.845 475.463 243.286C462.704 241.818 449.886 240.918 437.047 240.588C429.766 240.452 422.25 241.076 415.012 240.462L414.535 240.417C425.451 227.299 437.262 214.952 449.884 203.467C451.659 201.834 455.437 199.32 456.51 197.335L455.652 196.793Z" fill="#CFBAF0"/>
<path d="M306.369 246.89C307.244 245.676 308.125 244.46 309.08 243.307C333.945 213.258 417.78 200.051 455.652 196.797L456.51 197.339C455.437 199.324 451.659 201.838 449.884 203.471C437.262 214.956 425.451 227.303 414.535 240.421C410.924 242.389 399.63 242.424 395.269 242.825C380.539 244.179 335.755 248.761 324.746 256.31C324.7 256.341 324.654 256.372 324.607 256.403C317.977 254.061 311.94 251.218 306.369 246.89Z" fill="#E6DFD5"/>
<path d="M693.639 275.709C610.997 314.98 439.032 302.442 351.507 278.929C333.439 274.075 293.226 262.86 283.994 246.036C281.069 240.705 280.851 235.035 282.545 229.272C285.621 218.803 294.423 207.506 304.036 202.272C304.249 202.266 304.463 202.267 304.676 202.254C305.416 202.207 305.745 202.101 306.38 201.766L306.936 202.204C306.526 203.268 306.202 203.877 305.476 204.751C303.368 207.289 300.14 218.892 300.515 222.183C300.61 223.017 300.827 223.551 301.23 224.27C298.486 228.744 296.387 232.838 297.652 238.268C299.218 244.991 304.929 249.875 310.626 253.257C319.833 258.724 339.791 265.535 350.594 266.202C351.413 265.213 351.631 265.378 351.51 264.019C349.919 262.581 328.802 257.703 324.606 256.402C324.653 256.371 324.699 256.34 324.745 256.309C335.754 248.76 380.538 244.178 395.268 242.824C399.629 242.423 410.923 242.388 414.534 240.42L415.011 240.465C422.249 241.079 429.765 240.455 437.046 240.591C449.885 240.921 462.703 241.821 475.462 243.289C528.849 249.848 580.991 263.97 634.487 270.15C646.634 271.536 658.816 272.594 671.02 273.322C677.619 273.764 684.507 273.82 691.048 274.744C692.056 274.886 692.771 275.195 693.639 275.709Z" fill="#D7D8F4"/>
<path d="M700.937 275.666C711.978 276.802 727.506 269.719 736.118 263.211C740.527 259.88 744.344 255.813 747.788 251.508C749.524 249.338 752.821 242.919 754.654 241.801L755.304 242.363C751.688 258.435 744.216 266.12 730.282 274.915C676.58 308.808 550.772 316.227 488.06 307.769C486.45 307.551 477.139 305.938 476.037 306.548C475.513 306.839 475.233 307.435 474.83 307.879L474.875 308.743C478.553 311.691 487.86 311.596 492.578 312.083C535.155 316.474 577.534 314.475 619.996 309.818C656.856 305.775 727.525 293.811 752.009 262.865C754.484 259.737 756.3 256.396 757.967 252.789C761.509 261.617 764.365 272.498 760.405 281.666C758.95 285.036 756.659 287.529 754.619 290.49C754.546 295.218 754.384 299.962 754.627 304.686C750.371 308.206 746.326 312.092 741.386 314.682C727.788 321.813 710.241 326.014 695.449 330.165C675.714 335.703 655.705 341.665 635.646 345.905C626.798 347.775 617.776 349.005 608.842 350.391C609.505 358.151 611.433 366.795 613.774 374.242C595.22 376.807 576.665 378.087 558.001 379.456C541.649 380.655 525.416 382.129 509 382.367C478.007 382.816 447.378 379.278 416.995 373.434C420.237 363.083 420.653 354.581 420.208 343.81C484.935 354.827 551.063 354.769 615.771 343.64C631.249 340.885 646.603 337.035 661.832 333.157C684.638 327.351 706.728 321.017 728.439 311.822C732.823 309.965 747.891 304.104 749.493 300.14C749.264 299.874 749.108 299.519 748.805 299.342C746.929 298.246 737.385 304.092 735.254 305.029C712.159 315.401 688.115 323.513 663.457 329.253C639.588 335.082 615.438 339.69 591.1 343.059C534.486 350.17 477.149 349.203 420.808 340.187C420.321 336.637 417.916 332.539 416.336 329.311C410.458 317.307 402.467 307.38 391.777 299.332C389.234 297.418 378.965 291.791 377.981 290.422C377.64 289.946 377.607 289.312 377.42 288.757C420.708 296.872 467.033 302.198 511.064 303.865C567.451 306 650.874 302.225 700.937 275.666Z" fill="#FDF5F8"/>
<path d="M282.238 250.953C283.543 252.184 284.764 253.272 285.672 254.834C286.148 258.957 288.78 260.888 290.619 264.334C292.657 268.156 294.362 272.144 296.438 275.952C301.854 285.842 308.142 295.229 315.227 304.001C318.413 308.015 323.901 312.178 326.168 316.597C325.334 316.383 324.502 316.16 323.673 315.926C306.603 311.108 282.479 302.25 273.514 286.22C273.339 273.995 277.043 261.894 282.238 250.953Z" fill="#FFCFD2"/>
<path d="M285.672 254.832C305.967 269.02 330.631 277.402 354.479 283.472C361.91 285.363 370.227 286.319 377.42 288.754C377.607 289.309 377.64 289.943 377.981 290.419C378.965 291.788 389.234 297.415 391.777 299.329C402.467 307.377 410.458 317.304 416.336 329.308C417.916 332.536 420.321 336.634 420.808 340.184C388.256 335.311 357.279 327.221 326.168 316.595C323.901 312.176 318.413 308.013 315.227 303.999C308.142 295.227 301.854 285.84 296.438 275.95C294.362 272.142 292.657 268.154 290.619 264.332C288.78 260.886 286.148 258.955 285.672 254.832Z" fill="#D5FEDE"/>
<path d="M199.878 624.542C183.457 611.409 168.415 596.638 154.986 580.457C144.465 567.789 134.294 554.224 125.857 540.066C99.8469 496.415 80.2396 434.803 85.014 383.581C88.1878 349.532 100.444 316.209 127.452 293.925C157.957 268.755 199.264 257.995 238.37 260.122C248.807 260.689 258.915 263.034 269.276 264.043C266.557 276.091 266.172 288.006 266.797 300.28C267.061 305.466 267.639 310.679 267.569 315.874C275.766 325.616 278.267 329.101 289.562 335.508C293.288 360.347 297.859 384.981 302.234 409.706L321.136 516.93L329.219 562.522C330.595 570.173 332.757 578.331 333.291 586.054C333.022 585.981 332.749 585.919 332.483 585.835C330.698 585.268 329.352 583.642 328.157 582.269C323.756 577.213 319.96 571.551 315.892 566.216C309.519 557.965 302.933 549.882 296.14 541.973C263.323 504.251 226.489 474.975 180.194 455.706C175.432 453.724 164.413 448.202 159.269 450.074C158.507 450.351 158.409 450.648 157.935 451.246C157.883 455.462 161.204 459.991 162.965 463.701C177.829 495.017 202.277 524.352 226.351 549.023C251.71 575.01 280 598.063 305.348 624.115C315.634 634.686 326.199 645.457 335.971 656.502C338.253 659.081 344.545 668.198 346.415 669.093L346.72 668.893C347.311 672.763 347.732 676.781 348.737 680.562C308.468 680.361 262.793 663.254 228.227 643.176C218.457 637.5 209.234 630.867 199.878 624.542Z" fill="#FDD98A"/>
<path d="M314.493 316.128C312.508 322.568 317.247 331.039 314.015 340.418C302.158 334.957 280.753 326.404 272.83 315.972C272.642 307.747 272.113 299.297 272.888 291.102C284.373 303.727 298.607 310.633 314.493 316.128Z" fill="#D2EFF1"/>
<path d="M608.842 350.389C617.776 349.003 626.798 347.773 635.646 345.903C655.705 341.663 675.714 335.701 695.449 330.163C710.241 326.012 727.788 321.811 741.386 314.68C746.326 312.09 750.371 308.204 754.627 304.684C755.687 312.286 758.554 322.035 753.559 328.698C736.359 351.642 643.515 369.621 613.774 374.24C611.433 366.793 609.505 358.149 608.842 350.389Z" fill="#90DBF4"/>
<path d="M314.015 340.419C317.247 331.04 312.508 322.569 314.493 316.129L346.843 326.645C348.108 333.227 371.859 354.698 372.139 361.317C351.933 356.408 333.006 348.71 314.015 340.419Z" fill="#FDF5F8"/>
<path d="M346.844 326.645C369.829 333.37 396.419 341.356 420.208 343.808C420.653 354.579 420.237 363.081 416.995 373.432C401.842 370.289 386.946 365.79 372.14 361.317C371.86 354.698 348.109 333.227 346.844 326.645Z" fill="#D5FEDE"/>
<path d="M295.301 337.836C301.419 340.117 307.309 343.46 313.305 346.106C324.249 350.89 335.376 355.243 346.662 359.155C359.84 363.744 373.165 367.377 386.627 371.029C407.153 376.597 427.923 381.812 449.058 384.474C502.77 391.239 561.631 385.83 615.042 377.702C616.471 386.384 619.038 395.362 619.702 404.107C578.895 391.911 545.354 394.107 503.541 396.633C450.713 399.824 402.322 403.49 354.763 429.324C346.858 433.618 334.523 441.855 331.806 451.011C330.982 453.786 331.157 456.621 331.65 459.436C332.98 467.028 336.768 473.954 338.499 481.394C341.166 492.864 341.836 508.154 343.789 520.309C346.307 535.991 349.448 551.567 351.793 567.273C352.573 572.501 353.794 578.137 354.014 583.409C353.843 586.12 353.878 588.699 354.058 591.407L353.791 591.448L352.783 588.572C351.353 592.177 352.743 606.32 352.422 611.265C351.791 611.695 351.152 612.071 350.492 612.453L350.172 611.62C351.025 606.141 349.593 595.416 349.304 589.578C348.779 578.966 348.771 568.278 347.948 557.693C343.102 557.527 338.235 557.112 333.396 556.786C327.617 514.618 319.159 472.733 311.34 430.913C305.652 399.947 300.305 368.919 295.301 337.836Z" fill="#FFCFD2"/>
<path d="M615.041 377.701C632.674 374.86 650.122 370.896 667.575 367.123C682.761 363.84 698.24 360.814 713.123 356.34C721.783 353.736 730.117 350.303 738.634 347.297C735.09 362.553 731.61 377.791 728.85 393.213C726.188 408.085 724.25 423.127 721.298 437.94C713.046 437.934 704.54 437.478 696.392 438.981C673.824 422.219 646.325 412.334 619.701 404.106C619.037 395.361 616.47 386.383 615.041 377.701Z" fill="#90DBF4"/>
<path d="M842.014 472.987L842.175 472.155C846.902 446.795 846.532 397.863 830.942 376.735C829.41 374.659 824.044 371.645 824.275 369.125C824.863 368.719 825.048 368.381 825.818 368.495C829.685 369.071 834.416 376.579 836.396 379.727C848.197 398.489 848.04 432.15 846.927 454.051C846.609 460.302 844.98 467.172 845.698 473.378C838.778 536.267 785.987 615.804 737.169 654.73C722.418 666.493 708.432 673.775 690.889 680.645L683.914 682.772C677.179 684.398 670.065 685.126 663.201 686.071L660.427 686.043C660.33 685.989 660.217 685.957 660.135 685.882C659.224 685.041 659.224 684.648 659.111 683.484C659.958 682.381 659.971 682.384 661.327 682.068L663.78 682.014C670.674 681.948 678.021 680.226 684.645 678.377L692.069 676.038C705.762 670.777 718.172 664.135 729.861 655.243C781.733 615.781 833.074 538.386 842.014 472.987Z" fill="#FDF5F8"/>
<path d="M817.313 406.062C815.397 404.468 811.578 392.219 809.346 388.461C807.813 385.881 806.048 383.226 803.969 381.05C802.468 379.479 800.077 378.043 798.965 376.231C798.031 374.709 798.455 374.195 798.911 372.645C799.068 372.693 799.23 372.725 799.382 372.788C805.891 375.506 813.474 388.839 815.956 395.176C817.246 398.47 818.816 402.665 817.313 406.062Z" fill="#FDF5F8"/>
<path d="M799.199 450.821C802.501 433.939 800.699 416.08 790.978 401.51C788.986 398.532 786.71 395.755 784.181 393.217C781.081 390.096 772.724 384.707 771.504 381.003L771.97 380.332C775.859 380.33 782.738 386.875 785.469 389.613C798.732 402.914 803.633 420.068 803.533 438.497C803.535 442.944 803.291 447.387 802.804 451.807C798.214 488.161 779.331 532.002 757.284 561.084C755.247 563.77 751.867 569.402 748.508 569.868C748.431 569.519 748.216 569.174 748.276 568.822C748.605 566.908 760.31 551.145 762.6 547.466C781.825 516.573 793.264 486.708 799.199 450.821Z" fill="#FDF5F8"/>
<path d="M354.012 583.409C353.792 578.137 352.571 572.501 351.791 567.273C349.446 551.567 346.305 535.991 343.787 520.309C341.834 508.154 341.164 492.864 338.497 481.394C336.766 473.954 332.978 467.028 331.648 459.436C331.155 456.621 330.98 453.786 331.804 451.011C334.521 441.855 346.856 433.618 354.761 429.324C402.32 403.49 450.711 399.824 503.539 396.633C545.352 394.107 578.893 391.911 619.7 404.107C646.324 412.335 673.823 422.22 696.391 438.982C702.822 444.634 707.625 450.201 709.682 458.726C708.673 463.095 706.75 466.95 704.995 471.046C703.408 471.018 702.388 471.047 700.907 471.749C698.546 474.675 700.721 489.541 701.038 494.117C700.714 513.642 696.402 533.684 692.626 552.796C688.124 575.409 683.21 597.938 677.886 620.372C675.445 630.262 672.098 640.195 670.136 650.165L668.075 649.785L680.138 595.879C687.052 565.743 694.391 535.315 697.33 504.483C697.969 497.783 698.838 490.942 698.18 484.218C694.704 488.002 691.226 491.78 687.457 495.277C656.362 524.128 584.803 533.779 543.721 532.412C532.659 531.844 521.33 532.608 510.23 532.559C471.706 532.39 427.566 531.239 391.169 517.544C370.869 510.161 354.729 501.956 341.705 484.149C343.813 510.561 350.101 536.501 353.542 562.72C355.596 578.72 358.452 594.528 361 610.448C361.752 615.151 362.247 623.778 363.782 627.89C364.282 630.943 364.771 633.931 365.659 636.901C368.289 652.149 370.365 667.676 372.355 683.023C373.678 694.227 376.277 705.391 378.038 716.55L376.643 717.512C374.813 705.859 372.482 694.186 370.38 682.572C370.099 681.21 369.703 679.895 369.318 678.56L365.338 650.005C364.334 643.215 363.005 636.465 362.293 629.637C361.852 627.931 361.253 626.265 360.7 624.592C359.246 610.973 356.658 596.856 354.012 583.409ZM621.302 408.148C607.639 404.283 594.087 400.678 579.946 399.058C557.549 396.494 534.667 398.009 512.222 399.151C457.742 401.923 403.887 405.417 355.104 432.543C347.675 436.673 336.601 443.838 334.238 452.581C333.433 455.56 333.878 458.567 335.507 461.187C342.415 472.303 366.107 481.971 378.661 484.602C406.307 490.396 434.514 490.971 462.379 494.732C482.53 496.872 502.791 497.799 523.053 497.508C528.309 497.432 533.852 497.677 539.056 497.117C549.314 497.113 559.591 496.677 569.844 496.382C580.02 496.764 590.731 495.756 600.902 495.053C626.112 493.31 685.493 486.431 702.377 466.184C704.665 463.439 706.06 460.171 705.582 456.551C704.565 448.84 695.934 442.228 690.11 437.881C669.768 423.904 644.705 415.328 621.302 408.148ZM445.043 496.107C422.768 493.732 383.89 490.776 364.096 483.279C354.001 479.454 344.694 473.638 336.279 466.931C343.022 486.303 356.375 498.883 374.553 507.679C381.009 510.803 387.753 513.309 394.467 515.811C440.203 531.468 497.173 530.409 545.174 529.483C575.341 529.714 607.332 526.995 636.245 517.952C655.018 512.08 673.734 503.807 688.511 490.59C691.396 488.01 694.856 484.996 696.562 481.457C697.496 479.52 697.478 477.699 696.8 475.684C694.234 475.717 688.99 479.623 686.282 480.8C678.799 483.969 671.072 486.528 663.176 488.451C632.042 496.14 599.324 499.344 567.283 499.492C553.79 499.57 540.316 500.334 526.827 500.577C513.138 500.592 499.499 500.653 485.831 499.753C472.196 498.856 458.66 497.045 445.043 496.107Z" fill="#535356"/>
<path d="M462.38 494.73C434.515 490.969 406.308 490.394 378.662 484.6C366.108 481.969 342.416 472.301 335.508 461.185C333.879 458.565 333.434 455.558 334.239 452.579C336.602 443.836 347.676 436.671 355.105 432.541C403.888 405.415 457.743 401.921 512.223 399.149C534.668 398.007 557.55 396.492 579.947 399.056C594.088 400.676 607.64 404.281 621.303 408.146C623.251 424.281 625.225 440.581 626.299 456.797C615.424 462.327 604.316 467.819 594.468 475.089C590.395 478.095 586.426 481.394 582.668 484.785C579.276 487.844 573.681 494.695 569.845 496.38C559.592 496.675 549.315 497.111 539.057 497.115C534.004 496.662 528.863 497.468 523.805 497.028C514.907 496.254 506.066 494.604 497.145 493.818C490.801 493.259 466.777 492.154 462.38 494.73Z" fill="url(#paint1_linear_2238_31192)"/>
<path d="M621.303 408.148C644.706 415.328 669.769 423.904 690.111 437.881C687.618 440.006 675.797 440.785 671.807 441.612C655.922 444.904 640.933 449.751 626.299 456.799C625.225 440.583 623.251 424.283 621.303 408.148Z" fill="#90DBF4"/>
<path d="M698.781 641.609C702.587 624.226 703.567 606.437 703.667 588.688C703.724 578.608 703.064 568.688 704.398 558.654C706.656 541.659 713.042 526.067 716.616 509.424C721.708 485.71 724.266 461.372 728.176 437.426C738.997 438.821 749.892 439.297 760.692 441.069C773.914 443.238 786.349 447.175 799.199 450.821C793.264 486.708 781.825 516.573 762.6 547.466C760.31 551.145 748.605 566.908 748.276 568.822C748.216 569.174 748.431 569.519 748.508 569.868C751.867 569.402 755.247 563.77 757.284 561.084C779.331 532.002 798.214 488.161 802.804 451.807C809.246 454.725 836.729 465.808 840.368 469.436L839.973 470.057C836.674 475.311 834.12 481.141 831.362 486.694C827.378 494.825 823.185 502.851 818.786 510.765C800.314 543.968 776.787 581.091 749.211 607.309C740.617 615.39 731.313 622.681 721.412 629.095C714.346 633.77 706.761 638.713 698.781 641.609Z" fill="#B9FBC0"/>
<path d="M690.112 437.879C695.936 442.226 704.567 448.838 705.584 456.549C706.062 460.169 704.667 463.437 702.379 466.182C685.495 486.429 626.114 493.308 600.904 495.051C590.733 495.754 580.022 496.762 569.846 496.38C573.682 494.695 579.277 487.844 582.669 484.785C586.427 481.394 590.396 478.095 594.469 475.089C604.317 467.819 615.425 462.327 626.3 456.797C640.934 449.749 655.923 444.902 671.808 441.61C675.798 440.783 687.619 440.004 690.112 437.879Z" fill="#B9FBC0"/>
<path d="M696.392 438.982C704.54 437.479 713.046 437.935 721.298 437.941C716.613 460.024 714.962 482.528 710.442 504.599C706.895 521.919 700.076 538.613 698.001 556.173C696.964 564.947 697.013 573.862 696.819 582.686C696.655 593.635 696.224 604.579 695.527 615.508C695.15 621.479 694.534 627.369 693.767 633.302C693.308 636.853 692.334 640.9 692.505 644.465C685.232 647.279 677.888 649.26 670.137 650.165C672.099 640.195 675.446 630.262 677.887 620.372C683.211 597.938 688.125 575.409 692.627 552.796C696.403 533.684 700.715 513.642 701.039 494.117C701.913 489.28 701.257 484.241 700.792 479.393C701.962 476.564 703.664 473.825 704.996 471.046C706.751 466.95 708.674 463.095 709.683 458.726C707.626 450.201 702.823 444.634 696.392 438.982Z" fill="#B9FBC0"/>
<path d="M346.719 668.892L346.414 669.092C344.544 668.197 338.252 659.08 335.97 656.501C326.198 645.456 315.633 634.685 305.347 624.114C279.999 598.062 251.709 575.009 226.35 549.022C202.276 524.351 177.828 495.016 162.964 463.7C161.203 459.99 157.882 455.461 157.934 451.245C158.408 450.647 158.506 450.35 159.268 450.073C164.412 448.201 175.431 453.723 180.193 455.705C226.488 474.974 263.322 504.25 296.139 541.972C302.932 549.881 309.518 557.964 315.891 566.215C319.959 571.55 323.755 577.212 328.156 582.268C329.351 583.641 330.697 585.267 332.482 585.834C332.748 585.918 333.021 585.98 333.29 586.053C333.845 589.316 334.855 592.181 336.049 595.257L335.521 595.707C335.272 595.492 335.019 595.28 334.772 595.062C331.913 592.536 329.439 589.058 326.993 586.125C318.973 576.508 311.723 566.282 303.621 556.732C266.504 512.979 220.747 471.41 164.524 454.781C172.295 473.266 183.315 489.786 195.585 505.539C216.059 531.825 239.654 555.187 263.922 577.937C276.426 589.658 289.313 601.015 301.438 613.135C312.064 623.755 322.291 634.781 332.769 645.55C336.446 649.329 340.245 654.351 344.496 657.362C345.325 661.158 346.36 665.022 346.719 668.892Z" fill="#FDF5F8"/>
<path d="M164.525 454.781C220.748 471.41 266.505 512.979 303.622 556.732C311.724 566.282 318.974 576.508 326.994 586.125C329.44 589.058 331.914 592.536 334.773 595.062C335.02 595.28 335.273 595.492 335.522 595.707C336.682 601.555 336.781 607.698 337.597 613.622C339.609 628.211 341.886 642.872 344.497 657.362C340.246 654.351 336.447 649.329 332.77 645.55C322.292 634.781 312.065 623.755 301.439 613.135C289.314 601.015 276.427 589.658 263.923 577.937C239.655 555.187 216.06 531.825 195.586 505.539C183.316 489.786 172.296 473.266 164.525 454.781Z" fill="#FDD98A"/>
<path d="M336.279 466.93C344.694 473.637 354.001 479.453 364.096 483.278C383.89 490.775 422.768 493.731 445.043 496.106C441.377 499.347 429.55 501.618 424.473 503.357C415.613 506.391 402.174 510.843 394.467 515.81C387.753 513.308 381.009 510.802 374.553 507.678C356.375 498.882 343.022 486.302 336.279 466.93Z" fill="#FFCFD2"/>
<path d="M840.367 469.438C840.989 469.678 841.356 469.603 841.584 470.297C841.878 471.193 841.665 471.878 841.496 472.771C836.305 486.624 829.151 499.762 821.959 512.66C801.138 549.996 775.233 590.346 742.594 618.426C728.963 630.154 714.274 638.79 698.102 646.575L690.931 649.324C686.126 650.886 674.025 655.13 669.231 653.48L667.075 653.504C667.015 653.203 666.913 652.909 666.895 652.603C666.81 651.213 667.253 650.784 668.075 649.785L670.136 650.165C677.887 649.26 685.231 647.279 692.504 644.465C694.682 643.627 696.723 642.713 698.78 641.611C706.76 638.715 714.345 633.771 721.411 629.096C731.312 622.682 740.616 615.392 749.21 607.311C776.786 581.093 800.313 543.97 818.785 510.767C823.184 502.853 827.377 494.826 831.361 486.695C834.119 481.142 836.673 475.313 839.972 470.059L840.367 469.438Z" fill="#FDF5F8"/>
<path d="M701.04 494.117C700.723 489.541 698.548 474.675 700.909 471.749C702.39 471.047 703.41 471.018 704.997 471.046C703.665 473.825 701.963 476.564 700.793 479.393C701.258 484.241 701.914 489.28 701.04 494.117Z" fill="#4E5755"/>
<path d="M698.102 646.574C714.274 638.789 728.963 630.154 742.594 618.426C775.233 590.346 801.138 549.995 821.959 512.659C829.151 499.761 836.305 486.623 841.496 472.77L842.013 472.988C833.073 538.387 781.732 615.781 729.86 655.243C718.171 664.135 705.761 670.778 692.068 676.039C694.457 666.725 697.263 656.107 698.102 646.574Z" fill="#B9FBC0"/>
<path d="M845.698 473.379C848.232 473.962 850.664 476.19 852.774 477.681C863.977 486.041 875.157 494.574 884.73 504.821C908.376 530.132 920.896 565.134 925.831 598.916C932.679 645.804 921.976 691.991 893.479 730.047C878.915 749.497 861.621 766.332 844.021 782.984C833.83 792.626 824.38 803.452 813.482 812.264C786.924 833.737 749.186 846.504 715.738 851.311C688.554 855.218 659.754 855.111 632.805 849.471C644.909 841.885 655.144 832.202 661.075 819.028C666.899 806.091 670.942 790.994 672.414 776.905C673.36 767.847 673.419 758.784 674.765 749.754C676.695 736.806 680.313 724.92 683.932 712.39C685.321 707.581 692.156 683.989 690.889 680.646C708.432 673.776 722.418 666.494 737.169 654.731C785.987 615.805 838.778 536.268 845.698 473.379ZM852.907 736.981C831.377 748.845 807.705 755.355 784.554 763.253C765.771 769.734 747.217 776.861 728.925 784.621C723.271 787.001 714.903 789.3 710.442 793.482C710.395 794.175 710.183 794.542 710.691 795.109C711.631 796.156 713.469 796.555 714.803 796.9C751.797 804.204 792.513 793.364 823.406 772.672C832.077 766.864 852.861 750.432 855.607 740.183C855.357 738.898 855.349 738.428 854.206 737.624C853.869 737.387 853.295 737.152 852.907 736.981Z" fill="#B9FBC0"/>
<path d="M567.285 499.492C599.326 499.344 632.044 496.14 663.178 488.451C671.074 486.528 678.801 483.969 686.284 480.8C688.992 479.623 694.236 475.717 696.802 475.684C697.48 477.699 697.498 479.52 696.564 481.457C694.858 484.996 691.398 488.01 688.513 490.59C673.736 503.807 655.02 512.08 636.247 517.952C607.334 526.995 575.343 529.714 545.176 529.483C546.926 524.681 551.493 519.304 554.443 514.992C558.396 509.388 562.483 504.389 567.285 499.492Z" fill="#B9FBC0"/>
<path d="M543.722 532.413C584.804 533.78 656.363 524.129 687.458 495.278C691.227 491.781 694.705 488.003 698.181 484.219C698.839 490.943 697.97 497.784 697.331 504.484C694.392 535.316 687.053 565.744 680.139 595.88L668.076 649.786C667.254 650.785 666.811 651.213 666.896 652.603C666.914 652.909 667.016 653.204 667.076 653.505C666.745 662.309 662.846 673.057 661.327 682.07C659.971 682.386 659.958 682.383 659.111 683.486C659.224 684.65 659.224 685.043 660.135 685.884C660.217 685.959 660.33 685.991 660.427 686.045C660.901 691.662 657.373 706.366 656.222 712.65C651.464 738.634 642.554 795.516 625.603 815.265C619.761 822.07 600.127 832.743 591.481 835.637C588.515 832.304 581.456 829.694 577.337 827.689C548.204 813.513 526.614 806.528 505.438 779.785C478.286 745.497 470.177 684.175 475.009 641.929C481.157 635.031 488.606 629.569 494.297 622.187C501.491 612.706 507.92 602.668 513.521 592.166C523.898 572.315 531.738 551.482 543.722 532.413Z" fill="#B9FBC0"/>
<path d="M341.705 484.148C354.729 501.955 370.869 510.16 391.169 517.543C391.058 517.674 390.949 517.807 390.836 517.937C388.148 521.014 384.7 523.517 381.593 526.17C376.926 530.083 372.638 534.427 368.787 539.145C365.648 543.08 362.812 547.247 360.305 551.611C358.197 555.282 356.318 559.522 353.542 562.719C350.101 536.5 343.813 510.56 341.705 484.148Z" fill="#FFCFD2"/>
<path d="M462.381 494.73C466.778 492.154 490.802 493.259 497.146 493.818C506.067 494.604 514.908 496.254 523.806 497.028C528.864 497.468 534.005 496.662 539.058 497.115C533.854 497.675 528.311 497.43 523.055 497.506C502.793 497.797 482.532 496.87 462.381 494.73Z" fill="#FEAAC0"/>
<path d="M445.045 496.105C458.662 497.043 472.198 498.854 485.833 499.751C499.501 500.651 513.14 500.59 526.829 500.575C528.953 502.334 531.928 503.093 534.418 504.252C539.341 506.543 550.83 511.97 554.443 514.991C551.493 519.303 546.926 524.679 545.176 529.481C497.175 530.407 440.205 531.466 394.469 515.809C402.176 510.842 415.615 506.39 424.475 503.356C429.552 501.617 441.379 499.346 445.045 496.105Z" fill="#FEAAC0"/>
<path d="M526.828 500.577C540.317 500.334 553.791 499.57 567.284 499.492C562.482 504.389 558.395 509.388 554.442 514.992C550.829 511.971 539.34 506.545 534.417 504.254C531.927 503.095 528.952 502.336 526.828 500.577Z" fill="#FFCFD2"/>
<path d="M391.17 517.543C427.567 531.238 471.707 532.389 510.231 532.558C521.331 532.607 532.66 531.843 543.722 532.411C531.738 551.48 523.898 572.313 513.521 592.164C507.92 602.666 501.491 612.704 494.297 622.185C488.606 629.567 481.157 635.029 475.009 641.927C459.763 654.653 441.433 664.967 422.798 671.748C415.947 674.24 408.899 676.109 401.96 678.333C392.087 663.054 380.801 648.1 369.044 634.228C367.275 632.14 365.839 629.686 363.783 627.889C362.248 623.777 361.753 615.15 361.001 610.447C358.453 594.527 355.597 578.719 353.543 562.719C356.319 559.522 358.198 555.282 360.306 551.611C362.813 547.247 365.649 543.08 368.788 539.145C372.639 534.427 376.927 530.083 381.594 526.17C384.701 523.517 388.149 521.014 390.837 517.937C390.95 517.807 391.059 517.674 391.17 517.543Z" fill="#FEAAC0"/>
<path d="M333.395 556.785C338.234 557.111 343.101 557.526 347.947 557.692C348.77 568.277 348.778 578.965 349.303 589.577C349.592 595.415 351.024 606.14 350.171 611.619C347.291 606.56 343.706 601.964 339.988 597.498L339.256 597.62L338.507 594.869C338.64 590 337.455 584.759 336.718 579.936C335.47 572.24 334.361 564.522 333.395 556.785Z" fill="#FEAAC0"/>
<path d="M354.014 583.406C356.66 596.853 359.248 610.97 360.702 624.589C359.078 622.517 357.098 621.027 355.299 619.147C352.826 616.564 352.448 614.774 352.422 611.262C352.743 606.317 351.353 592.174 352.783 588.569L353.791 591.445L354.058 591.404C353.878 588.696 353.843 586.117 354.014 583.406Z" fill="#FEAAC0"/>
<path d="M335.521 595.705L336.049 595.255L338.506 594.867L339.255 597.618C339.727 600.216 340.365 602.541 341.225 605.03C343.097 613.53 344.883 622.048 346.583 630.584C347.463 635.243 348.01 640.106 349.074 644.711C350.018 653.158 350.759 661.828 352.667 670.122C353.129 672.889 353.472 675.735 354.243 678.434L354.587 680.662C358.325 708.559 363.458 736.78 369.382 764.298C372.843 780.375 377.75 796.706 380.021 812.964L380.626 814.972C387.945 835.008 409.416 852.667 428.356 861.548C441.538 867.729 456.711 869.423 470.99 871.415C481.779 872.92 492.635 874.629 503.514 875.325C535.295 877.359 566.429 870.687 596.138 859.732C605.357 856.394 614.326 852.4 622.974 847.78C624.593 846.899 626.201 845.997 627.796 845.072C657.684 827.637 663.64 801.953 665.952 769.715C666.771 758.289 667.07 746.762 669.012 735.45C670.433 727.177 673.18 719.248 675.643 711.247C678.61 701.817 681.368 692.322 683.913 682.77L690.888 680.643C692.155 683.986 685.32 707.578 683.931 712.387C680.312 724.917 676.694 736.803 674.764 749.751C673.418 758.781 673.359 767.844 672.413 776.902C670.941 790.991 666.898 806.088 661.074 819.025C655.143 832.199 644.908 841.882 632.804 849.468C581.504 875.584 534.203 887.081 476.839 878.281C458.452 875.943 438.924 873.579 422.362 864.771C406.838 856.515 389.459 843.178 380.485 827.754C377.689 822.95 375.936 817.931 374.333 812.631L373.333 808.639C368.468 785.502 363.303 762.403 359.017 739.153C355.424 719.66 352.706 699.964 348.736 680.559C347.731 676.778 347.31 672.76 346.719 668.89C346.36 665.02 345.325 661.156 344.496 657.36C341.885 642.87 339.608 628.209 337.596 613.62C336.78 607.696 336.681 601.553 335.521 595.705Z" fill="#4E5755"/>
<path d="M339.256 597.618L339.988 597.496C343.706 601.962 347.291 606.558 350.171 611.617L350.491 612.45C351.151 612.068 351.79 611.692 352.421 611.262C352.447 614.774 352.825 616.564 355.298 619.147C357.097 621.027 359.077 622.517 360.701 624.589C361.254 626.262 361.853 627.928 362.294 629.634L361.892 630.102L360.843 629.914C358.061 627.686 353.488 624.135 353.046 620.509C352.375 619.972 351.707 619.619 350.953 619.212C349.68 613.466 345.037 609.316 341.226 605.03C340.366 602.541 339.728 600.216 339.256 597.618Z" fill="#FDF5F8"/>
<path d="M341.227 605.031C345.038 609.317 349.681 613.467 350.954 619.213C350.948 625.216 350.498 631.478 350.98 637.436C350.927 639.605 351.283 642.701 349.594 644.293C349.432 644.445 349.249 644.572 349.076 644.712C348.012 640.107 347.465 635.244 346.585 630.585C344.885 622.049 343.099 613.531 341.227 605.031Z" fill="#FEAAC0"/>
<path d="M350.952 619.215C351.706 619.622 352.374 619.975 353.045 620.512C351.972 621.511 352.013 622.01 351.991 623.458C351.934 627.242 351.991 631.202 352.276 634.974C351.867 635.798 351.497 636.679 350.978 637.438C350.496 631.48 350.946 625.218 350.952 619.215Z" fill="#E6DFD5"/>
<path d="M352.278 634.974C351.993 631.202 351.936 627.242 351.993 623.458C352.015 622.01 351.974 621.511 353.047 620.512C353.489 624.138 358.062 627.689 360.844 629.917L361.893 630.105L362.295 629.637C363.007 636.465 364.336 643.215 365.34 650.005L369.32 678.56C364.003 673.912 358.531 668.537 354.09 663.049C353.717 653.651 353.231 644.336 352.278 634.974Z" fill="url(#paint2_linear_2238_31192)"/>
<path d="M447.041 909.52C442.561 912.397 438.583 916.009 434.021 918.849C418.452 928.545 400.298 934.402 382.418 937.915C327.533 948.697 260.437 925.755 215.074 895.246C182.343 873.233 159.089 844.649 143.234 808.716C137.835 796.479 133.301 784.317 130.765 771.147C123.589 733.877 129.222 690.034 150.761 658.291C162.524 640.956 179.22 628.483 199.878 624.539C209.234 630.864 218.457 637.497 228.227 643.173C262.793 663.251 308.468 680.358 348.737 680.559C352.707 699.964 355.425 719.66 359.018 739.153C363.304 762.403 368.469 785.502 373.334 808.639C361.734 807.787 350.256 805.177 338.802 803.227C326.699 801.167 314.426 799.662 302.225 798.309C277.347 795.549 170.061 790.575 152.811 805.229C152.072 805.857 151.64 806.457 151.244 807.349C151.284 808.963 151.526 809.931 152.776 811.043C159.179 816.738 192.77 817.161 203.014 817.863C271.784 822.573 341.798 836.003 401.753 871.49C413.165 878.245 423.718 886.753 433.244 895.97C437.867 900.442 442.214 905.273 447.041 909.52Z" fill="#90DBF4"/>
<path d="M363.783 627.891C365.839 629.688 367.275 632.142 369.044 634.23C380.801 648.102 392.087 663.056 401.96 678.335C408.723 686.665 417.97 706.28 420.889 716.627C425.278 732.184 426.473 749.382 428.193 765.42C429.757 780 431.561 794.625 432.652 809.246C433.126 815.595 432.491 822.108 433.302 828.389C436.759 829.941 440.03 831.599 443.142 833.778C440.035 833.219 436.878 832.755 433.832 831.921L432.191 831.428C421.403 828.17 410.242 826.264 399.479 822.841C392.921 820.754 386.819 817.934 380.627 814.976L380.022 812.968L380.787 812.217C384.752 812.275 403.294 820.785 411.145 821.991L411.494 822.05C416.56 825.353 425.014 826.501 430.936 827.719C429.561 807.56 427.758 787.432 425.526 767.349C423.781 751.36 422.147 734.534 417.564 719.086C414.877 710.028 410.636 701.386 406.359 692.984C404.113 688.572 401.787 682.778 398.384 679.242C396.552 673.196 371.015 640.692 365.66 636.902C364.772 633.932 364.283 630.944 363.783 627.891Z" fill="#FDF5F8"/>
<path d="M352.276 634.973C353.229 644.335 353.715 653.65 354.088 663.048C358.529 668.536 364.001 673.911 369.318 678.559C369.703 679.894 370.099 681.209 370.38 682.571C368.113 683.285 365.676 682.926 363.331 682.794C361.896 680.821 360.573 678.882 359.386 676.742C357.455 674.357 355.43 671.545 352.667 670.124C350.759 661.83 350.018 653.16 349.074 644.713C349.247 644.573 349.43 644.446 349.592 644.294C351.281 642.702 350.925 639.606 350.978 637.437C351.497 636.678 351.867 635.797 352.276 634.973Z" fill="url(#paint3_linear_2238_31192)"/>
<path d="M365.66 636.898C371.015 640.688 396.552 673.192 398.384 679.238C389.714 680.778 381.03 681.669 372.356 683.02C370.366 667.673 368.29 652.146 365.66 636.898Z" fill="#FEAAC0"/>
<path d="M401.96 678.332C408.899 676.108 415.947 674.239 422.798 671.747C441.433 664.966 459.763 654.652 475.009 641.926C470.177 684.172 478.286 745.494 505.438 779.782C526.614 806.525 548.204 813.51 577.337 827.686C581.456 829.691 588.515 832.301 591.481 835.634C571.384 843.499 551.513 846.54 530.132 847.849C524.534 848.192 517.237 846.946 511.962 848.416C504.727 848.434 496.712 847.201 489.521 846.322C481.272 844.092 472.848 842.62 464.591 840.36C459.164 838.874 453.65 836.428 448.251 835.25C446.998 834.977 445.898 834.862 444.65 835.218C445.96 837.792 458.021 841.528 460.984 842.484C466.9 844.392 483.849 849.298 489.592 847.665C495.933 848.105 506.244 847.695 512.005 849.612C516.762 851.102 522.679 850.775 527.658 850.774C553.596 850.77 573.331 846.063 597.396 836.583C605.767 839.739 615.326 843.175 622.975 847.781C614.327 852.401 605.358 856.395 596.139 859.733C566.43 870.688 535.296 877.36 503.515 875.326C492.636 874.63 481.78 872.921 470.991 871.416C456.712 869.424 441.539 867.73 428.357 861.549C409.417 852.668 387.946 835.009 380.627 814.973C386.819 817.931 392.921 820.751 399.479 822.838C410.242 826.261 421.403 828.167 432.191 831.425C432.293 834.842 431.984 841.872 434.044 844.629C434.513 840.273 434.244 836.258 433.832 831.918C436.878 832.752 440.035 833.216 443.142 833.775C440.03 831.596 436.759 829.938 433.302 828.386C432.491 822.105 433.126 815.592 432.652 809.243C431.561 794.622 429.757 779.997 428.193 765.417C426.473 749.379 425.278 732.181 420.889 716.624C417.97 706.277 408.723 686.662 401.96 678.332Z" fill="#90DBF4"/>
<path d="M690.932 649.322L698.103 646.574C697.264 656.107 694.457 666.724 692.068 676.038L684.645 678.377C686.991 668.763 688.872 659.002 690.932 649.322Z" fill="#4A5E53"/>
<path d="M669.231 653.477C674.025 655.127 686.126 650.882 690.931 649.32C688.871 659 686.99 668.761 684.644 678.375C678.02 680.224 670.673 681.946 663.779 682.012C666.09 672.774 667.837 662.902 669.231 653.477Z" fill="#B9FBC0"/>
<path d="M667.075 653.504L669.231 653.48C667.837 662.905 666.09 672.777 663.779 682.015L661.326 682.069C662.845 673.056 666.744 662.308 667.075 653.504Z" fill="#4A5E53"/>
<path d="M352.668 670.125C355.431 671.546 357.456 674.358 359.387 676.743C360.574 678.883 361.897 680.822 363.332 682.795C360.535 682.888 357.195 681.628 354.588 680.665L354.244 678.437C353.473 675.738 353.13 672.892 352.668 670.125Z" fill="#FDD98A"/>
<path d="M372.355 683.02C381.029 681.669 389.713 680.778 398.383 679.238C401.786 682.774 404.112 688.568 406.358 692.98C410.635 701.382 414.876 710.024 417.563 719.082C422.146 734.53 423.78 751.356 425.525 767.345C427.757 787.428 429.56 807.556 430.935 827.715C425.013 826.497 416.559 825.349 411.493 822.046C412.032 821.009 411.901 821.576 411.825 820.33C410.752 818.906 409.968 817.79 409.444 816.075C410.983 816.531 412.831 817.271 414.435 817.32C415.463 817.352 415.514 817.307 416.235 816.542C415.328 814.683 409.37 811.534 407.393 809.808C403.033 806.004 392.725 793.644 391.075 788.526C390.035 779.756 387.79 770.694 386.068 762.008C383.083 746.945 380.213 731.749 378.038 716.547C376.277 705.388 373.678 694.224 372.355 683.02Z" fill="#90DBF4"/>
<path d="M354.588 680.664C357.195 681.627 360.535 682.887 363.332 682.794C365.677 682.926 368.114 683.285 370.381 682.571C372.483 694.185 374.814 705.858 376.644 717.511C378.222 725.697 380.591 734.585 381.337 742.854C380.033 744.275 380.075 745.192 380.138 747.086C380.559 759.624 386.319 786.706 392.571 797.758C394.821 801.735 398.087 805.379 400.675 809.162C400.57 811.749 401.399 814.268 403.202 816.172C405.552 818.654 408.794 819.703 411.145 821.989C403.294 820.783 384.752 812.273 380.787 812.215L380.022 812.966C377.751 796.708 372.844 780.377 369.383 764.3C363.459 736.782 358.326 708.561 354.588 680.664Z" fill="#90DBF4"/>
<path d="M663.201 686.072C670.065 685.127 677.179 684.399 683.914 682.773C681.369 692.325 678.611 701.82 675.644 711.25C673.181 719.251 670.434 727.18 669.013 735.453C667.071 746.765 666.772 758.292 665.953 769.718C663.641 801.956 657.685 827.64 627.797 845.075C626.202 846 624.594 846.902 622.975 847.783C615.326 843.177 605.767 839.741 597.396 836.585C605.731 833.122 614.805 828.35 622.188 823.15C644.335 807.552 652.159 750.863 656.464 725.251L663.201 686.072Z" fill="#B9FBC0"/>
<path d="M660.428 686.043L663.202 686.071L656.464 725.25C652.159 750.862 644.336 807.551 622.189 823.149C614.806 828.349 605.732 833.121 597.397 836.584C573.332 846.064 553.597 850.771 527.659 850.775C522.68 850.776 516.763 851.103 512.006 849.613L511.963 848.417C517.238 846.947 524.535 848.193 530.133 847.85C551.514 846.541 571.385 843.5 591.482 835.635C600.128 832.741 619.762 822.068 625.604 815.263C642.555 795.514 651.465 738.632 656.223 712.648C657.374 706.364 660.902 691.66 660.428 686.043Z" fill="#4A5E53"/>
<path d="M376.645 717.513L378.04 716.551C380.215 731.753 383.085 746.949 386.07 762.012C387.792 770.698 390.037 779.76 391.077 788.53C387.453 781.664 383.16 752.38 381.338 742.856C380.592 734.587 378.223 725.699 376.645 717.513Z" fill="#24302C"/>
<path d="M714.802 796.899C713.468 796.554 711.63 796.155 710.69 795.108C710.182 794.541 710.394 794.175 710.441 793.482C714.902 789.3 723.27 787 728.924 784.62C747.216 776.86 765.77 769.734 784.553 763.253C807.704 755.355 831.376 748.844 852.906 736.98C853.294 737.151 853.868 737.386 854.205 737.623C855.348 738.427 855.356 738.897 855.606 740.182C852.86 750.431 832.076 766.864 823.405 772.672C792.512 793.364 751.796 804.203 714.802 796.899ZM848.91 743.584C827.515 754.02 804.888 760.711 782.408 768.326C764.546 774.553 746.862 781.277 729.375 788.49C726.054 789.863 719.797 791.378 717.235 793.609L718.038 793.953C724.542 794.979 731.483 794.796 738.057 794.706C770.767 794.258 800.307 784.291 826.69 765.047C834.563 759.304 843.767 752.046 849.162 743.792L848.91 743.584Z" fill="#FDF5F8"/>
<path d="M400.675 809.163C398.087 805.38 394.821 801.736 392.571 797.759C386.319 786.707 380.559 759.625 380.138 747.087C380.075 745.193 380.033 744.276 381.337 742.855C383.159 752.379 387.452 781.663 391.076 788.529C392.726 793.647 403.034 806.007 407.394 809.811C409.371 811.537 415.329 814.686 416.236 816.545C415.515 817.31 415.464 817.355 414.436 817.323C412.832 817.274 410.984 816.534 409.445 816.078C405.946 814.295 403.349 811.973 400.675 809.163Z" fill="#FDF5F8"/>
<path d="M718.039 793.955L717.236 793.611C719.798 791.38 726.055 789.865 729.376 788.492C746.863 781.279 764.547 774.554 782.409 768.327C804.889 760.712 827.516 754.022 848.911 743.586L849.163 743.794C843.768 752.048 834.564 759.305 826.691 765.048C800.308 784.292 770.768 794.26 738.058 794.708C731.484 794.798 724.543 794.981 718.039 793.955Z" fill="#B9FBC0"/>
<path d="M447.041 909.521C442.214 905.274 437.867 900.443 433.244 895.971C423.718 886.754 413.165 878.246 401.753 871.491C341.798 836.004 271.784 822.574 203.014 817.864C192.77 817.162 159.179 816.739 152.776 811.044C151.526 809.932 151.284 808.964 151.244 807.35C151.64 806.458 152.072 805.858 152.811 805.23C170.061 790.576 277.347 795.55 302.225 798.31C314.426 799.663 326.699 801.168 338.802 803.228C350.256 805.178 361.734 807.788 373.334 808.64L374.334 812.632C371.125 814.232 343.801 808.38 337.821 807.38C290.369 799.731 242.176 797.744 194.256 801.462C183.392 802.309 166.766 803.003 157.552 808.879C170.608 811.861 184.142 812.127 197.459 812.979C209.741 813.764 222.001 814.854 234.228 816.249C300.3 823.753 378.492 842.648 429.374 887.521C436.323 893.649 443.847 900.355 449.279 907.872C449.396 908.101 449.511 908.332 449.631 908.559C455.664 920.034 470.459 934.132 473.917 946.024L473.727 946.576C468.67 938.928 453.337 914.301 447.041 909.521Z" fill="#FDF5F8"/>
<path d="M374.335 812.633C375.938 817.933 377.691 822.952 380.487 827.756C389.461 843.18 406.84 856.517 422.364 864.773C438.926 873.581 458.454 875.945 476.841 878.283C469.596 890.563 460.179 899.014 449.28 907.873C443.848 900.356 436.324 893.65 429.375 887.522C378.493 842.649 300.301 823.754 234.229 816.25C222.002 814.855 209.742 813.765 197.46 812.98C184.143 812.128 170.609 811.862 157.553 808.88C166.767 803.004 183.393 802.31 194.257 801.463C242.177 797.745 290.37 799.732 337.822 807.381C343.802 808.381 371.126 814.233 374.335 812.633Z" fill="#90DBF4"/>
<path d="M411.145 821.987C408.794 819.701 405.552 818.652 403.202 816.17C401.399 814.266 400.57 811.747 400.675 809.16C403.349 811.97 405.946 814.292 409.445 816.075C409.969 817.79 410.753 818.906 411.826 820.33C411.902 821.576 412.033 821.009 411.494 822.046L411.145 821.987Z" fill="#98F5E1"/>
<path d="M432.191 831.426L433.832 831.919C434.244 836.259 434.513 840.274 434.044 844.63C431.984 841.873 432.293 834.843 432.191 831.426Z" fill="#D2EFF1"/>
<path d="M489.592 847.666C483.849 849.299 466.9 844.393 460.984 842.485C458.021 841.529 445.96 837.793 444.65 835.219C445.898 834.863 446.998 834.978 448.251 835.251C453.65 836.429 459.164 838.875 464.591 840.361C472.848 842.621 481.272 844.093 489.521 846.323L489.592 847.666Z" fill="#4E5755"/>
<path d="M489.521 846.324C496.712 847.203 504.727 848.436 511.962 848.418L512.005 849.614C506.244 847.697 495.933 848.107 489.592 847.667L489.521 846.324Z" fill="#8EECF5"/>
<defs>
<linearGradient id="paint0_linear_2238_31192" x1="695.482" y1="642.137" x2="384.044" y2="145.383" gradientUnits="userSpaceOnUse">
<stop stop-color="#505855"/>
<stop offset="1" stop-color="#60545D"/>
</linearGradient>
<linearGradient id="paint1_linear_2238_31192" x1="395.93" y1="527.445" x2="579.178" y2="363.399" gradientUnits="userSpaceOnUse">
<stop stop-color="#FFDFD6"/>
<stop offset="1" stop-color="#D6CAFF"/>
</linearGradient>
<linearGradient id="paint2_linear_2238_31192" x1="350.695" y1="656.318" x2="369.504" y2="644.2" gradientUnits="userSpaceOnUse">
<stop stop-color="#FFD6B6"/>
<stop offset="1" stop-color="#FFD4CA"/>
</linearGradient>
<linearGradient id="paint3_linear_2238_31192" x1="366.058" y1="654.442" x2="351.388" y2="666.688" gradientUnits="userSpaceOnUse">
<stop stop-color="#FCFCE8"/>
<stop offset="1" stop-color="white"/>
</linearGradient>
</defs>
</svg>
