<svg width="1024" height="1024" viewBox="0 0 1024 1024" fill="none" xmlns="http://www.w3.org/2000/svg">
<path d="M571.826 186.215C570.973 190.614 567.652 198.252 567.488 199.837C566.076 213.454 567.844 233.875 569.7 247.142L576.307 292.886C580.195 320.54 583.273 348.11 596.301 373.371C609.853 399.646 632.944 423.573 640.827 453.027C643.519 463.086 642.888 485.534 642.912 496.784C643.035 518.844 642.943 540.905 642.638 562.963C642.312 612.504 642.294 662.048 642.582 711.589C642.568 739.169 641.655 768.185 643.555 795.653C644.989 816.395 652.876 839.334 635.869 856.567C635.541 856.898 635.209 857.224 634.873 857.547C631.847 860.136 632.459 860.867 631.286 864.661C629.435 870.653 626.054 876.27 621.249 880.371C600.134 897.355 562.325 906.274 535.82 908.489C523.046 909.536 510.206 909.504 497.437 908.395C480.056 907.044 467.485 904.44 450.59 900.168C438.705 896.728 424.09 892.463 413.938 885.512C402.731 877.838 399.986 870.563 397.646 857.922C380.31 840.713 384.72 833.535 385.431 811.166C386.239 785.758 384.517 757.804 383.615 732.314C383.123 718.399 383.114 703.42 381.839 689.784C382.433 676.783 380.938 655.492 380.627 641.815L376.789 514.708L376.017 486.657C374.836 447.226 380.448 436.753 403.81 404.408C425.322 374.624 433.342 338.517 433.963 302.069C434.661 290.739 435.504 279.419 436.491 268.11C437.933 248.295 441.036 228.696 440.607 208.769C440.408 199.559 439.307 197.515 435.142 189.624C425.181 184.478 422.056 181.418 429.979 172.144L429.974 171.604C429.956 161.983 425.605 142.628 428.472 134.458C430.222 129.468 436.317 125.887 440.876 123.693C464.624 112.265 535.056 109.906 559.575 118.622C564.79 120.476 569.343 123.226 571.688 128.452C575.716 137.428 575.594 155.504 577.09 165.915C577.607 169.511 578.934 172.992 579.277 176.606C579.415 178.066 579.258 179.539 578.665 180.89C577.392 183.789 574.582 185.071 571.826 186.215ZM567.157 255.222C564.316 236.803 562.651 221.219 563.437 202.655C558.344 205.87 550.944 209.422 545.02 210.278C518.431 214.118 465.26 216.676 442.914 201.089C445.817 214.544 442.958 253.506 441.273 268.326C438.837 287.581 438.459 307.508 436.938 327.019C441.748 323.354 443.346 322.28 449.046 320.388C449.509 303.365 450.126 286.345 450.896 269.333C451.572 260.104 452.57 244.31 455.701 235.667L456.51 235.074C457.374 235.461 457.387 235.233 457.644 236.027C458.217 237.792 455.269 265.618 454.986 270.225C454.228 286.388 453.622 302.557 453.167 318.731C474.777 310.71 497.05 307.945 520.006 308.869C529.105 309.74 537.94 310.567 546.836 312.716C549.231 313.295 551.892 314.035 554.288 314.484L558.562 316.473C557.166 301.931 554.897 285.236 552.729 270.749C552.208 267.199 548.967 251.335 552.391 250.18C554.272 251.97 555.287 262.855 555.989 266.355C557.506 283.354 561.573 300.899 562.593 318.292C570.132 321.38 581.809 328.825 570.754 336.513C569.062 336.965 569.497 336.584 568.379 337.645C556.596 343.217 542.411 346.499 529.538 347.965C521.848 348.705 513.21 349.418 505.511 349.476C486.928 349.617 451.211 346.077 436.284 336.004C431.66 356.823 427.823 369.345 418.189 388.709C405.147 414.922 381.344 434.178 380.065 465.045C397.015 488.695 440.932 499.708 468.626 504.375C497.043 509.165 520.857 507.964 549.108 503.772C571.907 500.275 627.99 484.224 638.244 462.579C636.007 438.427 614.788 411.484 601.533 391.73C575.374 352.742 572.959 300.755 567.157 255.222ZM520.997 313.471C500.195 312.978 480.419 313.528 460.633 321.256C451.578 323.928 446.088 325.745 439.24 332.316C442.506 334.581 444.552 335.832 448.453 337.085C469.866 344.458 507.828 346.525 530.274 343.584C532.195 343.518 535.503 343.077 537.32 342.622C544.002 340.947 572.431 336.61 570.019 327.733C567.331 325.828 561.432 331.466 558.291 332.211C553.91 333.25 549.568 334.213 545.202 333.055L545.291 332.364C552.491 329.302 556.763 329.92 565.645 324.613C552.033 316.862 536.251 314.727 520.997 313.471ZM390.562 481.088C386.82 478.05 383.012 475.137 379.989 471.356C382.472 565.586 385.459 659.802 388.949 754C389.815 776.288 390.578 799.635 388.536 821.781C387.487 833.157 389.169 842.534 397.55 850.901C397.663 848.997 397.538 847.258 398.598 845.718C400.256 846.409 400.473 851.002 400.693 852.76C416.608 869.771 455.333 880.801 478.429 882.808C519.845 889.054 562.17 884.663 601.422 870.047C610.334 866.73 620.256 862.888 628.076 857.556C631.434 855.217 634.349 852.298 636.683 848.936C646.353 834.787 641.929 816.794 639.105 801.247C636.331 768.058 638.234 733.642 638.039 700.455C637.051 624.139 639.838 546.76 638.42 470.555C616.211 492.454 580.004 502.305 549.914 507.582C504.041 515.296 461.558 511.784 417.73 495.455C409.494 493.076 397.821 485.834 390.562 481.088ZM470.468 886.481C444.422 881.259 423.823 876.553 402.085 860.654C408.512 884.974 432.552 890.443 454.192 896.499C500.323 910.14 560.887 907.568 604.363 886.005C615.076 880.692 623.782 874.6 627.655 862.897C622.214 866.323 613.974 869.858 607.875 872.296C577.893 884.15 545.92 890.158 513.68 889.996C499.046 889.869 485.02 887.893 470.468 886.481ZM507.918 117.232C486.696 117.795 451.25 118.789 433.944 133.128C431.276 135.339 431.755 140.473 434.681 142.078C449.485 150.201 478.002 151.105 494.399 150.998C510.822 150.832 526.156 149.603 542.261 146.139C550.074 144.458 581.665 139.022 564.694 126.084C553.575 117.608 522.084 116.749 507.918 117.232ZM569.855 140.443C563.083 144.762 555.647 146.403 547.939 148.295C520.522 155.022 491.328 155.951 463.321 153.108C454.468 152.21 439.285 149.454 432.038 145.074C432.957 153.304 434.647 165.909 434.402 173.783C431.964 176.645 431.358 177.638 429.48 180.898C430.97 182.365 432.109 183.678 433.926 184.705C458.25 193.87 480.696 195.263 506.445 194.64C528.551 194.105 550.116 190.987 570.806 182.831C577.449 180.644 574.836 175.84 574.021 170.613C573.647 168.212 572.868 164.546 572.451 162.078C571.919 158.933 571.436 141.799 569.855 140.443ZM566.515 188.067C559.572 190.527 551.062 193.393 543.923 194.713C514.988 200.062 468.295 201.43 440.666 190.966C442.403 193.661 442.964 194.595 445.296 196.941C463.859 211.683 512.003 208.908 534.948 207.369C544.236 206.746 568.171 201.081 566.515 188.067Z" fill="#256069"/>
<path d="M494.398 150.998C478.001 151.105 449.484 150.201 434.68 142.078C431.754 140.473 431.275 135.339 433.943 133.128C451.249 118.789 486.695 117.795 507.917 117.232C522.083 116.749 553.574 117.608 564.693 126.084C581.664 139.022 550.073 144.458 542.26 146.139C526.155 149.603 510.821 150.832 494.398 150.998ZM516.922 123.713C513.065 124.024 499.176 124.679 496.014 127.115C495.504 127.509 495.67 128.084 495.656 128.852C499.67 131.463 533.065 122.254 544.864 130.602L545.004 131.458C541.616 134.949 521.668 137.359 516.123 137.934C512.495 138.144 503.176 137.935 500.776 139.827L500.728 140.806C505.673 144.431 548.627 140.361 549.474 129.906C546.294 123.464 523.246 123.009 516.922 123.713Z" fill="#FBF8CC"/>
<path d="M516.123 137.931C521.668 137.356 541.616 134.946 545.004 131.455L544.864 130.599C533.065 122.251 499.67 131.46 495.656 128.849C495.67 128.081 495.504 127.506 496.014 127.112C499.176 124.676 513.065 124.021 516.922 123.71C523.246 123.006 546.294 123.461 549.474 129.903C548.627 140.358 505.673 144.428 500.728 140.803L500.776 139.824C503.176 137.932 512.495 138.141 516.123 137.931Z" fill="#256069"/>
<path d="M432.036 145.072C439.283 149.452 454.467 152.208 463.32 153.106C491.327 155.949 520.521 155.02 547.938 148.293C555.646 146.401 563.082 144.76 569.854 140.441C571.435 141.797 571.918 158.931 572.45 162.076C572.867 164.544 573.646 168.21 574.02 170.611C574.835 175.838 577.448 180.642 570.805 182.829C550.115 190.985 528.55 194.103 506.444 194.638C480.695 195.261 458.248 193.868 433.924 184.703C432.107 183.676 430.969 182.363 429.479 180.896C431.357 177.636 431.963 176.643 434.401 173.781C434.646 165.907 432.955 153.302 432.036 145.072ZM565.177 144.864C565.091 148.618 566.76 165.875 568.344 169.025C569.379 169.426 568.907 169.378 569.734 169.34C571.294 164.922 569.716 151.404 568.359 146.525C567.979 145.159 566.401 144.97 565.177 144.864ZM556.849 150.608C556.088 154.382 556.416 168.856 558.731 172.793C559.253 173.682 560.428 173.726 561.377 173.844C561.45 171.543 559.837 153.097 559.213 151.243C558.048 150.698 558.124 150.696 556.849 150.608ZM546.284 152.2C544.759 154.748 545.859 175.565 547.339 178.221L548.684 178.819C550.476 176.096 549.392 155.657 547.892 152.827L546.284 152.2ZM440.546 152.676C438.236 156.503 437.868 173.07 441.444 176.09C443.125 174.024 443.069 155.613 441.816 153.333L440.546 152.676ZM450.523 155.622C450.266 160.751 449.315 177.364 451.197 181.373C452.222 181.972 451.825 181.843 452.98 182.072C453.861 179.314 453.774 160.281 453.243 156.875C452.153 155.801 452.069 155.942 450.523 155.622ZM532.841 156.177C531.666 159.489 531.975 174.868 532.997 178.801C533.167 179.453 533.962 179.582 534.789 179.96C536.298 176.928 536.191 159.864 534.82 156.873C533.836 156.444 533.877 156.416 532.841 156.177ZM520.815 157.766C520.339 160.622 520.807 177.056 522.177 179.249C522.889 179.302 523.125 179.383 523.815 179.266C525.169 175.746 524.332 162.732 523.111 158.803C522.866 158.014 521.639 157.909 520.815 157.766ZM464.604 158.648C464.286 162.022 465.09 175.153 466.801 178.774C467.112 179.431 468.481 179.649 469.344 179.841C469.553 175.591 468.728 163.164 466.982 159.503C465.923 158.72 465.937 158.816 464.604 158.648ZM492.289 158.638C491.171 161.888 491.742 176.022 493.072 179.182C493.622 179.512 494.264 179.926 494.826 180.205C496.441 176.216 495.94 164.626 494.946 160.13C494.707 159.048 493.26 158.775 492.289 158.638ZM476.893 159.081C475.481 162.904 475.999 176.205 476.915 180.65C477.052 181.318 477.666 181.382 478.452 181.749C480.401 179.334 480.009 162.958 478.855 160.088C477.767 159.3 478.189 159.503 476.893 159.081ZM504.838 159.068C503.978 162.352 504.142 178.643 506.478 180.804L508.109 181.091C508.917 177.087 508.273 164.209 506.939 160.3C506.049 159.317 506.13 159.366 504.838 159.068Z" fill="#FBF8CC"/>
<path d="M569.735 169.339C568.908 169.377 569.381 169.425 568.346 169.024C566.762 165.874 565.093 148.617 565.179 144.863C566.403 144.969 567.98 145.158 568.36 146.524C569.717 151.403 571.295 164.921 569.735 169.339Z" fill="#256069"/>
<path d="M404.502 275.332L403.612 276.216C367.486 296.09 333.117 319.461 299.142 342.786C286.577 351.413 272.955 359.29 260.945 368.549L260.586 368.468C256.918 366.833 253.293 365.101 249.715 363.275C238.194 357.267 233.246 352.516 223.531 344.843C206.576 331.451 187.581 313.74 180.953 292.49C175.075 273.645 179.344 254.106 188.425 236.881C208.509 198.786 249.815 167.329 290.523 154.384C312.56 147.376 335.917 146.331 356.635 157.742C378.506 169.788 401.486 196.717 408.871 220.722C414.934 240.431 414.35 257.231 404.502 275.332Z" fill="#FDE4CF"/>
<path d="M561.377 173.845C560.428 173.727 559.253 173.683 558.731 172.794C556.416 168.857 556.089 154.383 556.85 150.609C558.125 150.697 558.048 150.699 559.213 151.244C559.837 153.098 561.45 171.544 561.377 173.845Z" fill="#256069"/>
<path d="M548.684 178.818L547.339 178.22C545.859 175.564 544.759 154.747 546.284 152.199L547.892 152.826C549.392 155.656 550.476 176.095 548.684 178.818Z" fill="#256069"/>
<path d="M441.444 176.09C437.868 173.07 438.236 156.503 440.546 152.676L441.816 153.333C443.069 155.613 443.125 174.024 441.444 176.09Z" fill="#1D454D"/>
<path d="M452.98 182.071C451.825 181.842 452.222 181.971 451.197 181.372C449.315 177.363 450.267 160.75 450.524 155.621C452.07 155.941 452.154 155.8 453.244 156.874C453.775 160.28 453.861 179.313 452.98 182.071Z" fill="#256069"/>
<path d="M534.79 179.959C533.963 179.581 533.169 179.452 532.999 178.8C531.977 174.867 531.668 159.488 532.843 156.176C533.879 156.415 533.838 156.443 534.822 156.872C536.193 159.863 536.299 176.927 534.79 179.959Z" fill="#256069"/>
<path d="M523.816 179.266C523.126 179.383 522.889 179.302 522.177 179.249C520.807 177.056 520.339 160.622 520.815 157.766C521.639 157.909 522.866 158.014 523.111 158.803C524.332 162.732 525.17 175.746 523.816 179.266Z" fill="#256069"/>
<path d="M469.343 179.841C468.48 179.649 467.111 179.431 466.8 178.774C465.089 175.153 464.285 162.022 464.603 158.648C465.936 158.816 465.922 158.72 466.981 159.503C468.727 163.164 469.552 175.591 469.343 179.841Z" fill="#256069"/>
<path d="M494.827 180.204C494.265 179.925 493.623 179.511 493.073 179.181C491.743 176.021 491.172 161.887 492.29 158.637C493.261 158.774 494.708 159.047 494.947 160.129C495.941 164.625 496.442 176.215 494.827 180.204Z" fill="#256069"/>
<path d="M478.452 181.75C477.666 181.383 477.052 181.319 476.915 180.651C475.999 176.206 475.481 162.905 476.893 159.082C478.189 159.504 477.768 159.301 478.856 160.089C480.01 162.959 480.401 179.335 478.452 181.75Z" fill="#256069"/>
<path d="M508.11 181.089L506.479 180.802C504.143 178.641 503.979 162.35 504.839 159.066C506.131 159.364 506.05 159.315 506.94 160.298C508.274 164.207 508.918 177.085 508.11 181.089Z" fill="#256069"/>
<path d="M440.664 190.965C468.293 201.429 514.986 200.061 543.921 194.712C551.06 193.392 559.57 190.526 566.513 188.066C568.169 201.08 544.234 206.745 534.946 207.368C512.001 208.907 463.857 211.682 445.294 196.94C442.962 194.594 442.401 193.66 440.664 190.965Z" fill="#FBF8CC"/>
<path d="M569.699 247.14C573.614 245.065 577.745 239.816 581.318 236.95C587.589 231.921 594.25 227.535 601.513 224.05C666.043 193.383 755.28 188.339 824.167 205.776C862.197 215.937 899.637 233.019 928.229 260.652C939.779 272.211 950.268 285.722 958.455 299.883C974.16 327.047 983.595 360.719 983.503 392.212C983.16 432.098 975.624 472.569 956.441 507.877C951.606 516.935 945.988 525.617 941.165 534.68C912.733 588.1 878.14 639.543 833.307 680.627C821.933 691.05 800.386 705.795 786.283 711.616L785.884 711.529C785.63 711.273 785.376 711.017 785.122 710.762C763.953 693.344 730.911 677.007 703.484 677.037C681.614 677.061 663.344 691.875 649.306 706.553C647.361 705.266 644.933 703.755 643.13 702.345C643.12 704.499 643.202 709.767 642.899 711.61L642.581 711.587C642.293 662.046 642.311 612.502 642.637 562.961C642.942 540.903 643.034 518.842 642.911 496.782C642.887 485.532 643.518 463.084 640.826 453.025C632.943 423.571 609.852 399.644 596.3 373.369C583.272 348.108 580.194 320.538 576.306 292.884L569.699 247.14Z" fill="#FFCFD2"/>
<path d="M567.155 255.219C565.143 255.3 564.276 255.009 562.79 256.742C561.142 258.661 558.805 265.664 555.987 266.352C555.285 262.852 554.27 251.967 552.389 250.177C548.965 251.332 552.207 267.196 552.728 270.746C547.473 276.262 540.512 289.833 537.564 296.832C536.672 298.951 535.967 302.223 535.371 303.4C525.536 297.951 513.34 293.514 502.906 288.227C502.057 287.508 497.87 285.206 496.746 284.589C482.934 277.011 470.307 273.113 454.984 270.222C455.267 265.615 458.215 237.789 457.642 236.024C457.385 235.23 457.372 235.458 456.508 235.071L455.699 235.664C452.568 244.307 451.57 260.101 450.894 269.33C447.374 269.09 444.754 268.842 441.271 268.323C442.956 253.503 445.815 214.541 442.912 201.086C465.258 216.673 518.429 214.115 545.018 210.275C550.942 209.419 558.342 205.867 563.435 202.652C562.649 221.216 564.314 236.8 567.155 255.219ZM544.867 222.839C544.22 225.425 547.23 234.803 549.208 236.456L550.655 236.577C551.915 233.099 548.716 224.008 544.867 222.839Z" fill="#FFEDE1"/>
<path d="M550.657 236.578L549.21 236.457C547.232 234.804 544.222 225.426 544.869 222.84C548.718 224.009 551.917 233.1 550.657 236.578Z" fill="#256069"/>
<path d="M555.988 266.352C558.806 265.664 561.143 258.661 562.791 256.742C564.277 255.009 565.144 255.3 567.156 255.219C572.958 300.752 575.373 352.739 601.532 391.727C614.787 411.481 636.006 438.424 638.243 462.576C627.989 484.221 571.906 500.272 549.107 503.769C547.109 494.701 545.804 480.139 544.856 470.709L539.38 412.258C537.77 394.57 534.83 364.85 529.537 347.962C542.41 346.496 556.595 343.214 568.378 337.642C569.829 347.026 570.603 354.541 573.947 363.611C581.831 384.993 594.628 405.391 607.841 423.894C612.539 430.473 616.74 437.107 622.837 442.457C620.485 436.068 617.056 430.038 613.191 424.468C596.648 400.622 579.941 375.898 573.401 347.165C572.591 343.604 571.798 340.03 570.753 336.51C581.808 328.822 570.131 321.377 562.592 318.289C561.572 300.896 557.505 283.351 555.988 266.352ZM549.938 352.548C548.949 357.845 552.989 359.041 557.317 358.274C558.341 356.239 558.151 357.281 557.948 355.04C556.336 352.085 552.83 352.327 549.938 352.548ZM545.435 374.621C544.957 387.707 567.255 439.77 577.088 451.958C578.042 453.139 578.434 452.934 579.696 453.021C578.152 448.041 573.24 441.663 570.876 436.758C562.899 420.201 554.968 403.335 550.07 385.564C549.412 383.177 548.078 376.545 546.552 374.948L545.435 374.621ZM604.701 440.542C601.461 445.848 604.475 449.878 610.502 447.8C612.422 446.234 611.831 447.177 612.564 445.025C611.706 441.046 608.285 440.425 604.701 440.542ZM613.627 456.835C611.733 457.819 610.998 460.153 611.984 462.045C612.971 463.938 615.306 464.67 617.197 463.681C619.084 462.694 619.815 460.364 618.83 458.476C617.846 456.587 615.517 455.853 613.627 456.835ZM624.045 463.002C622.014 464.317 619.712 465.732 617.763 467.126C618.823 469.343 619.384 471.489 621.525 472.345C624.401 470.969 628.193 467.005 626.864 463.65C625.63 462.942 625.508 463.074 624.045 463.002ZM586.328 476.051C584.456 477.22 584.093 477.31 582.878 479.067C582.551 480.942 582.421 480.074 583.263 481.763C585.051 483.047 585.495 482.952 587.751 483.193C590.504 481.772 592.253 480.803 591.11 477.449C589.428 475.932 588.672 476.01 586.328 476.051Z" fill="#F1C0E8"/>
<path d="M404.502 275.33C415.903 270.188 424.17 267.833 436.49 268.107C435.503 279.416 434.66 290.736 433.962 302.066C430.793 305.668 426.399 317.402 423.727 322.521C418.157 333.005 411.338 342.776 403.418 351.621C390.046 366.828 374.777 376.923 359.716 390.423C327.591 419.22 305.946 450.376 301.197 494.639C293.235 568.864 363.974 611.435 378.999 679.36C379.769 682.84 381.09 686.283 381.838 689.781C383.113 703.417 383.122 718.396 383.614 732.311C384.516 757.801 386.238 785.755 385.43 811.163C384.719 833.532 380.309 840.71 397.645 857.919C399.985 870.56 402.73 877.835 413.937 885.509C424.089 892.46 438.704 896.725 450.589 900.165C448.371 901.311 438.427 904.71 435.581 905.763C410.151 915.173 395.364 916.3 368.472 913.67C304.39 907.278 243.478 882.674 192.935 842.766C182.26 834.199 168.675 822.549 160.39 811.613C118.729 756.626 109.309 681.963 115.952 615.523C122.953 541.712 154.143 472.282 204.673 418.026C224.658 396.96 238.635 386.405 260.586 368.466L260.945 368.547C270.696 373.354 287.385 372.431 297.674 369.901C332.828 361.256 384.905 306.888 403.612 276.214L404.502 275.33Z" fill="#98F5E1"/>
<path d="M436.938 327.017C438.459 307.506 438.836 287.579 441.272 268.324C444.755 268.843 447.375 269.091 450.895 269.331C450.125 286.343 449.509 303.363 449.046 320.386C443.346 322.278 441.747 323.352 436.938 327.017Z" fill="#90DBF4"/>
<path d="M454.985 270.223C470.308 273.114 482.935 277.012 496.747 284.59C497.871 285.207 502.058 287.509 502.907 288.228C503.826 291.94 512.868 298.593 515.238 302.52C516.395 304.438 518.774 306.638 520.005 308.867C497.049 307.943 474.776 310.708 453.166 318.729C453.621 302.555 454.227 286.386 454.985 270.223Z" fill="#90DBF4"/>
<path d="M552.727 270.746C554.895 285.233 557.164 301.928 558.56 316.47L554.286 314.481C551.044 311.159 540.375 306.765 535.371 303.4C535.967 302.223 536.671 298.951 537.563 296.832C540.511 289.833 547.472 276.262 552.727 270.746Z" fill="#F1C0E8"/>
<path d="M260.945 368.548C272.955 359.289 286.577 351.412 299.142 342.785C333.117 319.46 367.486 296.089 403.612 276.215C384.905 306.889 332.828 361.257 297.674 369.902C287.385 372.432 270.696 373.355 260.945 368.548Z" fill="#B9FBC0"/>
<path d="M502.906 288.227C513.34 293.514 525.536 297.951 535.371 303.4C540.375 306.765 551.044 311.159 554.286 314.481C551.89 314.032 549.229 313.292 546.834 312.713C537.938 310.564 529.103 309.737 520.004 308.866C518.773 306.637 516.394 304.437 515.237 302.519C512.867 298.592 503.825 291.939 502.906 288.227Z" fill="#BF74E5"/>
<path d="M381.838 689.781C381.09 686.283 379.769 682.84 378.999 679.36C363.974 611.435 293.235 568.864 301.197 494.639C305.946 450.376 327.591 419.22 359.716 390.423C374.777 376.923 390.046 366.828 403.418 351.621C411.338 342.776 418.157 333.005 423.727 322.521C426.399 317.402 430.793 305.668 433.962 302.066C433.341 338.514 425.321 374.621 403.809 404.405C380.447 436.75 374.835 447.223 376.016 486.654L376.788 514.705L380.626 641.812C380.937 655.489 382.432 676.78 381.838 689.781Z" fill="#90DBF4"/>
<path d="M460.631 321.252C480.417 313.524 500.193 312.974 520.995 313.467C523.509 319.691 529.679 337.255 530.272 343.58C507.826 346.521 469.864 344.454 448.451 337.081C451.098 332.892 454.653 327.253 458.152 323.745L460.631 321.252Z" fill="#98F5E1"/>
<path d="M520.996 313.469C536.25 314.725 552.032 316.86 565.644 324.611C556.762 329.918 552.49 329.3 545.29 332.362L545.201 333.053C549.567 334.211 553.909 333.248 558.29 332.209C561.431 331.464 567.33 325.826 570.018 327.731C572.43 336.608 544.001 340.945 537.319 342.62C535.502 343.075 532.194 343.516 530.273 343.582C529.68 337.257 523.51 319.693 520.996 313.469Z" fill="#F1C0E8"/>
<path d="M439.238 332.314C446.086 325.743 451.576 323.926 460.631 321.254L458.152 323.747C454.653 327.255 451.098 332.894 448.451 337.083C444.55 335.83 442.504 334.579 439.238 332.314Z" fill="#B9FBC0"/>
<path d="M436.283 336.004C451.21 346.077 486.927 349.617 505.51 349.476C513.209 349.418 521.847 348.705 529.537 347.965C534.83 364.853 537.77 394.573 539.38 412.261L544.856 470.712C545.804 480.142 547.109 494.704 549.107 503.772C520.856 507.964 497.042 509.165 468.625 504.375C440.931 499.708 397.014 488.695 380.064 465.045C381.343 434.178 405.146 414.922 418.188 388.709C427.822 369.345 431.659 356.823 436.283 336.004ZM508.919 400.105C508.596 391.937 507.688 377.384 505.103 369.955C504.808 374.13 506.197 397.838 506.972 401.624C506.839 407.436 507.406 416.253 507.468 422.479C507.545 430.091 506.72 442.638 508.014 449.479L508.333 449.221C509.461 434.298 509.349 414.922 508.919 400.105ZM442.685 348.082C440.077 354.183 439.246 360.816 437.004 367.069C431.174 383.038 423.649 398.337 414.561 412.705C411.592 417.474 408.396 422.098 404.984 426.561C402.933 429.241 397.978 434.142 398.078 437.193C398.783 438.115 398.957 438.499 400.349 438.563C418.362 418.896 433.176 388.853 442.234 363.761C443.669 359.785 445.161 355.011 445.263 350.764C445.301 349.171 444.005 348.58 442.685 348.082ZM465.118 371.34C468.802 387.368 452.748 428.229 446.014 443.815C445.143 445.83 442.258 451.239 444.029 452.525C451.305 443.182 474.764 379.451 465.118 371.34Z" fill="#98F5E1"/>
<path d="M568.379 337.644C569.497 336.583 569.062 336.964 570.754 336.512C571.799 340.032 572.592 343.606 573.402 347.167C579.942 375.9 596.649 400.624 613.192 424.47C617.057 430.04 620.486 436.07 622.838 442.459C616.741 437.109 612.54 430.475 607.842 423.896C594.629 405.393 581.832 384.995 573.948 363.613C570.604 354.543 569.83 347.028 568.379 337.644Z" fill="#2B647A"/>
<path d="M400.349 438.559C398.957 438.495 398.783 438.111 398.078 437.189C397.978 434.138 402.933 429.237 404.984 426.557C408.396 422.094 411.592 417.47 414.561 412.701C423.649 398.333 431.174 383.034 437.004 367.065C439.246 360.812 440.077 354.179 442.685 348.078C444.005 348.576 445.301 349.167 445.263 350.76C445.161 355.007 443.669 359.781 442.234 363.757C433.176 388.849 418.362 418.892 400.349 438.559Z" fill="#256069"/>
<path d="M557.317 358.276C552.989 359.043 548.949 357.847 549.938 352.55C552.83 352.329 556.336 352.087 557.948 355.042C558.151 357.283 558.341 356.241 557.317 358.276Z" fill="#CFBAF0"/>
<path d="M444.029 452.525C442.258 451.239 445.143 445.83 446.014 443.815C452.748 428.229 468.802 387.368 465.118 371.34C474.764 379.451 451.305 443.182 444.029 452.525Z" fill="url(#paint0_linear_2243_34113)"/>
<path d="M508.919 400.103C507.822 397.813 507.83 396.44 507.578 393.964C507.572 394.613 507.578 395.262 507.596 395.911L507.458 395.67L506.972 401.622C506.197 397.836 504.808 374.128 505.103 369.953C507.688 377.382 508.596 391.935 508.919 400.103Z" fill="#256069"/>
<path d="M579.696 453.021C578.434 452.934 578.042 453.139 577.088 451.958C567.255 439.77 544.957 387.707 545.435 374.621L546.552 374.948C548.078 376.545 549.412 383.177 550.07 385.564C554.968 403.335 562.899 420.201 570.876 436.758C573.24 441.663 578.152 448.041 579.696 453.021Z" fill="#2B647A"/>
<path d="M506.971 401.623L507.457 395.671L507.595 395.912C507.577 395.263 507.571 394.614 507.577 393.965C507.829 396.441 507.821 397.814 508.918 400.104C509.348 414.921 509.46 434.297 508.332 449.22L508.013 449.478C506.719 442.637 507.544 430.09 507.467 422.478C507.405 416.252 506.838 407.435 506.971 401.623Z" fill="#1D454D"/>
<path d="M610.502 447.802C604.475 449.88 601.461 445.85 604.701 440.544C608.285 440.427 611.706 441.048 612.564 445.027C611.831 447.179 612.422 446.236 610.502 447.802Z" fill="#D59FF9"/>
<path d="M617.198 463.68C615.307 464.669 612.972 463.937 611.985 462.044C610.999 460.152 611.734 457.818 613.628 456.834C615.518 455.852 617.847 456.586 618.831 458.475C619.816 460.363 619.085 462.693 617.198 463.68Z" fill="#CFBAF0"/>
<path d="M617.764 467.128C619.713 465.734 622.015 464.319 624.046 463.004C625.509 463.076 625.631 462.944 626.865 463.652C628.194 467.007 624.402 470.971 621.526 472.347C619.385 471.491 618.824 469.345 617.764 467.128Z" fill="#CFBAF0"/>
<path d="M549.912 507.582C580.002 502.305 616.209 492.454 638.418 470.555C639.836 546.76 637.049 624.139 638.037 700.455C635.614 699.446 630.376 693.998 627.831 691.841C626.942 657.142 628.094 622.162 627.81 587.389C627.492 567.793 628.116 547.685 625.014 528.301C624.011 522.036 616.202 506.917 609.003 508.849C607.998 509.788 607.588 509.897 607.333 511.176C612.826 515.006 616.758 517.701 619.198 524.174C621.887 531.306 622.247 537.725 622.664 545.23C624.008 569.46 623.524 593.78 623.434 618.042L622.508 618.32C619.826 617.574 617.583 617.308 616.18 620.297C616.358 622.507 616.592 622.755 617.594 624.806C619.286 625.894 620.886 625.23 623.035 624.778C623.027 630.542 622.755 641.472 623.358 646.759L623.542 689.768C619.51 686.352 610.799 679.061 607.947 675.197C606.384 672.957 605.391 671.07 604.086 668.691C602.876 667.646 595.476 654.9 593.828 652.47C592.638 647.802 588.358 636.981 586.569 632C588.684 632.225 592.785 632.789 594.043 631.166C598.535 625.367 590.312 619.36 584.545 626.192C583.25 623.47 581.833 619.254 580.877 616.353C570.951 586.243 561.35 555.754 554.211 524.857C552.867 519.04 551.627 513.271 549.912 507.582ZM610.977 674.367C625.083 680.685 617.466 657.106 609.999 666.431C609.293 670.321 608.762 671.083 610.977 674.367ZM593.577 518.502C586.94 522.599 587.733 529.705 595.556 529.232C602.673 524.983 602.175 518.113 593.577 518.502ZM612.022 532.692C609.827 536.038 608.867 540.313 612.219 543.276C614.416 544.083 615.338 544.011 617.478 542.809C618.536 541.771 620.492 540.182 620.561 538.62C620.761 534.125 615.679 532.869 612.022 532.692ZM591.432 544.511C584.954 549.889 592.043 555.377 597.048 554.126C604.116 548.506 598.519 543.738 591.432 544.511ZM610.529 556.819C606.505 562.742 613.198 568.594 618.297 566.087C624.586 560.445 615.48 556.542 610.529 556.819ZM592.655 567.915C587.602 573.162 589.821 579.042 597.011 577.714C604.045 573.262 598.405 568.356 592.655 567.915ZM610.597 582.818C606.237 587.438 606.808 595.647 613.989 594.134C619.144 589.736 616.591 583.433 610.597 582.818ZM590.077 594.371C585.581 600.886 591.265 603.955 596.827 602.313C598.664 600.573 598.708 601.055 599.298 598.972C597.944 595.389 593.529 595.069 590.077 594.371ZM603.323 611.927C598.37 616.886 601.524 620.237 606.838 622.169C610.679 618.113 610.042 611.611 603.323 611.927ZM614.079 638.885C607.497 642.521 606.989 650.932 615.501 650.512C621.35 646.727 622.157 639.084 614.079 638.885ZM601.145 649.337C600.05 651.046 598.664 653.081 597.703 654.828C600.922 658.264 600.549 658.534 605.384 658.513C609.176 653.555 607.095 649.898 601.145 649.337Z" fill="#F1C0E8"/>
<path d="M390.561 481.087C388.745 484.767 390.782 526.951 393.237 530.079C391.948 538.606 392.459 556.356 392.491 565.765C392.771 595.462 393.433 625.155 394.477 654.835C395.185 680.502 396.057 706.164 397.096 731.819C397.663 748.361 397.869 765.096 399.847 781.615C404.528 820.705 450.452 830.244 482.571 835.809C496.585 838.237 513.718 838.246 527.906 837.975C525.964 840.286 523.417 842.596 521.174 844.634C509.15 855.564 497.822 867.025 484.705 876.696C482.518 878.309 479.912 880.52 478.428 882.807C455.332 880.8 416.607 869.771 400.692 852.76C400.472 851.002 400.255 846.408 398.597 845.717C397.537 847.257 397.662 848.996 397.549 850.9C389.168 842.533 387.486 833.156 388.535 821.78C390.577 799.634 389.814 776.287 388.948 753.999C385.458 659.801 382.471 565.585 379.988 471.355C383.011 475.136 386.819 478.049 390.561 481.087ZM406.883 828.207C404.85 829.201 403.959 831.618 404.861 833.694C405.763 835.769 408.138 836.767 410.252 835.959C411.705 835.403 412.736 834.094 412.935 832.55C413.135 831.007 412.471 829.478 411.206 828.571C409.942 827.664 408.282 827.524 406.883 828.207ZM428.038 836.531C425.875 837.084 424.57 839.287 425.123 841.45C425.676 843.613 427.879 844.919 430.042 844.365C432.205 843.811 433.51 841.609 432.957 839.446C432.403 837.283 430.201 835.978 428.038 836.531ZM450.631 845.999C449.135 846.012 447.772 846.859 447.098 848.195C446.424 849.531 446.553 851.131 447.432 852.342C448.311 853.553 449.792 854.171 451.271 853.944C453.343 853.627 454.817 851.763 454.649 849.674C454.48 847.585 452.727 845.981 450.631 845.999ZM472.632 849.831C470.186 851.957 467.902 854.004 469.362 857.524C470.85 859.051 471.12 859.275 473.422 859.656C478.715 856.525 479.269 850.782 472.632 849.831ZM496.095 851.887C491.254 855.11 490.659 860.921 496.702 861.67C502.037 858.541 503.204 852.636 496.095 851.887Z" fill="#98F5E1"/>
<path d="M587.751 483.193C585.495 482.952 585.051 483.047 583.263 481.763C582.421 480.074 582.551 480.942 582.878 479.067C584.093 477.31 584.456 477.22 586.328 476.051C588.672 476.01 589.428 475.932 591.11 477.449C592.253 480.803 590.504 481.772 587.751 483.193Z" fill="#D59FF9"/>
<path d="M393.237 530.078C390.782 526.95 388.745 484.766 390.561 481.086C397.82 485.832 409.493 493.074 417.729 495.453C418.011 501.308 416.17 501.435 413.908 506.976C404.437 511.639 397.636 516.942 394.088 527.401C393.789 528.288 393.505 529.181 393.237 530.078Z" fill="#DBF5E3"/>
<path d="M417.728 495.453C461.556 511.782 504.039 515.294 549.912 507.58C551.627 513.269 552.867 519.038 554.211 524.855C561.35 555.752 570.951 586.241 580.877 616.351C581.833 619.252 583.25 623.468 584.545 626.19L586.569 631.998C588.358 636.979 592.638 647.8 593.828 652.468C596.549 712.888 581.874 770.836 545.153 819.68C543.193 822.286 535.81 829.898 535.206 832.2L535.869 832.709C534.82 833.079 528.082 833.449 526.559 833.515C505.576 834.413 484.567 832.536 464.076 827.933C466.193 821.567 455.607 813.013 450.481 817.646C449.094 818.9 449.771 822.137 449.999 823.938C442.686 821.579 437.768 819.783 430.927 816.33C449.583 808.045 427.075 794.84 420.772 802.152C419.849 804.374 420.896 807.824 421.393 810.376C403.962 798.894 402.524 776.559 402.168 757.772C401.961 746.838 401.524 735.794 401.1 724.861C399.047 675.165 397.808 625.438 397.384 575.701C397.52 572.785 397.445 569.29 397.458 566.325C409.187 553.23 427.15 542.347 444.78 539.854C452.907 538.705 461.744 539.154 469.785 540.734C475.121 541.783 480.135 544.365 485.485 545.516C485.027 545.197 484.565 544.884 484.099 544.576C463.24 530.716 431.973 536.711 412.454 550.033C409.35 552.152 399.334 561.587 397.105 562.032C396.86 548.61 394.13 528.127 404.066 518.814C407.39 515.699 413.101 512.604 415.33 509.929C415.364 508.215 415.293 508.704 413.907 506.976C416.169 501.435 418.01 501.308 417.728 495.453ZM431.321 521.666C422.061 522.91 412.29 525.655 404.947 531.788C403.507 532.991 400.02 536.719 400.019 538.638C402.191 537.699 406.324 534.224 408.395 532.599C426.559 522.569 429.558 524.841 447.951 522.807C442.66 521.771 436.724 520.836 431.321 521.666ZM470.097 556.703C443.043 559.727 418.52 569.626 400.368 591.28C399.735 592.036 399.402 592.729 399.011 593.618L399.195 594.399C400.972 593.781 414.525 580.753 418.282 578.161C435.69 565.889 463.338 556.873 484.936 560.355C489.707 561.124 496.532 564.484 500.954 566.537C492.449 559.207 481.373 555.527 470.097 556.703ZM469.521 580.184C446.821 583.402 424.627 593.039 410.469 611.704C407.773 615.259 402.761 622.383 401.479 626.604L401.823 627.208C404.665 624.648 407.211 619.517 409.646 616.215C417.144 606.046 425.557 600.027 436.3 593.791C457.636 582.567 480.964 578.524 504.599 585.338C510.139 586.935 521.635 594.267 523.488 594.1L522.413 593.943L522.515 593.08C505.16 579.898 491.591 578.938 469.94 580.12C469.8 580.141 469.661 580.163 469.521 580.184ZM486.351 603.217C455.633 604.526 411.704 617.305 401.379 650.189C403.952 646.615 405.794 643.007 408.519 639.542C416.818 628.989 427.167 622.304 438.963 616.444C460.138 606.864 492.837 601.531 514.702 610.433C525.081 614.659 526.745 615.961 534.724 623.459L534.827 623.061C532.093 619.381 528.214 614.786 524.229 612.446C513.353 606.061 498.908 602.559 486.351 603.217ZM487.899 634.713C477.99 635.249 471.496 635.75 462.333 640.05C469.107 639.155 475.391 637.773 482.266 637.442C498.232 636.673 511.376 638.329 526.066 644.524C529.416 646.106 538.914 651.31 541.356 652.112C538.52 648.003 525.709 642.202 520.961 640.389C511.292 636.697 498.248 634.346 487.899 634.713ZM466.719 689.477C461.285 694.301 465.314 698.913 471.277 699.694C473.958 696.989 475.183 692.988 471.885 690.244C470.508 689.097 468.399 689.416 466.719 689.477ZM488.465 696.941C483.351 700.991 483.278 706.357 490.104 707.847C495.34 704.71 495.695 697.347 488.465 696.941ZM416.245 700.545C409.764 704.145 410.73 712.743 417.25 714.616C419.928 712.743 421.405 711.462 421.971 708C422.257 706.325 421.851 704.607 420.847 703.237C419.701 701.693 418.056 700.998 416.245 700.545ZM444.25 706.969C439.5 710.863 441.03 716.915 447.347 716.873C452.222 712.163 450.604 708.065 444.25 706.969ZM471.053 724.422C466.577 729.207 468.631 734.971 475.432 734.503C479.847 729.526 478.475 724.193 471.053 724.422ZM504.198 725.426C499.793 729.756 499.248 736.522 506.751 736.612C511.607 731.938 511.707 726.659 504.198 725.426ZM447.849 737.45C441.473 743.056 443.407 754.224 452.152 754.466C459.649 749.003 456.765 738.09 447.849 737.45ZM413.801 741.938C412.235 742.78 411.257 744.413 411.253 746.19C411.249 747.968 412.22 749.604 413.782 750.453C415.344 751.302 417.245 751.226 418.735 750.256C420.908 748.84 421.578 745.963 420.255 743.732C418.932 741.501 416.085 740.71 413.801 741.938ZM482.322 751.048C475.231 757.329 479.432 771.83 489.085 770.426C495.498 762.398 494.269 750.414 482.322 751.048ZM430.161 760.916C427.522 765.197 427.072 770.69 433.71 770.845C436.081 767.668 436.797 763.76 433.204 761.169C431.703 760.863 431.665 760.804 430.161 760.916ZM519.203 762.969C516.473 765.821 514.787 770.056 518.017 773.267C520.047 774.156 520.25 774.113 522.416 773.436C526.3 768.58 527.761 762.688 519.203 762.969ZM411.534 768.297C410.168 771.195 409.858 773.995 412.332 776.374C414.608 777.167 413.746 776.988 416.319 776.502C421.035 770.948 417.337 768.242 411.534 768.297ZM459.526 772.896C454.363 777.099 453.363 782.231 460.841 784.104C467.075 780.952 466.975 773.061 459.526 772.896ZM450.844 781.366C444.159 784.343 444.266 789.993 450.747 792.141C455.99 789.028 458.418 783.614 450.844 781.366ZM509.875 785.413C504.241 789.357 506.017 797.864 513.558 797.605C519.405 792.402 518.151 785.817 509.875 785.413ZM482.438 787.932C477.565 792.464 479.557 797.635 486.726 797.075C491.103 792.921 488.786 787.943 482.438 787.932ZM520.063 805.433C514.701 810.532 516.726 817.921 524.573 816.748C530.194 810.908 528.013 804.763 520.063 805.433ZM496.047 819.81C493.755 820.881 492.768 823.609 493.844 825.899C494.919 828.188 497.649 829.17 499.937 828.09C502.218 827.013 503.197 824.293 502.124 822.009C501.052 819.726 498.333 818.742 496.047 819.81Z" fill="#98F5E1"/>
<path d="M393.238 530.079C393.506 529.182 393.79 528.289 394.089 527.402C397.637 516.943 404.438 511.64 413.909 506.977C415.295 508.705 415.366 508.216 415.332 509.93C413.103 512.605 407.392 515.7 404.068 518.815C394.132 528.128 396.862 548.611 397.107 562.033C397.106 566.313 396.964 571.518 397.386 575.702C397.81 625.439 399.049 675.166 401.102 724.862C401.526 735.795 401.963 746.839 402.17 757.773C402.526 776.56 403.964 798.895 421.395 810.377C424.089 812.401 427.902 814.877 430.929 816.331C437.77 819.784 442.688 821.58 450.001 823.939C454.985 825.563 459.025 826.655 464.078 827.934C484.569 832.537 505.578 834.414 526.561 833.516C528.084 833.45 534.822 833.08 535.871 832.71C560.206 830.858 615.763 823.572 623.174 791.899C624.611 785.758 623.712 767.177 623.693 759.726L623.544 689.767L623.36 646.758L623.436 618.041C623.526 593.779 624.01 569.459 622.666 545.229C622.249 537.724 621.889 531.305 619.2 524.173C616.76 517.7 612.828 515.005 607.335 511.175C607.59 509.896 608 509.787 609.005 508.848C616.204 506.916 624.013 522.035 625.016 528.3C628.118 547.684 627.494 567.792 627.812 587.388C628.096 622.161 626.944 657.141 627.833 691.84C627.429 725.255 629.365 760.659 627.476 794.101C627.206 798.886 620.634 807.322 617.248 810.515C597.866 829.951 554.448 836.515 527.907 837.975C513.719 838.246 496.586 838.237 482.572 835.809C450.453 830.244 404.529 820.705 399.848 781.615C397.87 765.096 397.664 748.361 397.097 731.819C396.058 706.164 395.186 680.502 394.478 654.835C393.434 625.155 392.772 595.462 392.492 565.765C392.46 556.356 391.949 538.606 393.238 530.079Z" fill="url(#paint1_linear_2243_34113)"/>
<path d="M595.557 529.23C587.734 529.703 586.941 522.597 593.578 518.5C602.176 518.111 602.674 524.981 595.557 529.23Z" fill="#D59FF9"/>
<path d="M408.396 532.6C406.325 534.225 402.192 537.7 400.02 538.639C400.021 536.72 403.508 532.992 404.948 531.789C412.291 525.656 422.062 522.911 431.322 521.667C436.725 520.837 442.661 521.772 447.952 522.808C429.559 524.842 426.56 522.57 408.396 532.6Z" fill="#B9FBC0"/>
<path d="M617.479 542.808C615.339 544.01 614.417 544.082 612.22 543.275C608.868 540.312 609.828 536.037 612.023 532.691C615.68 532.868 620.762 534.124 620.562 538.619C620.493 540.181 618.537 541.77 617.479 542.808Z" fill="#D59FF9"/>
<path d="M397.106 562.031C399.335 561.586 409.351 552.151 412.455 550.032C431.974 536.71 463.241 530.715 484.1 544.575C484.566 544.883 485.028 545.196 485.486 545.515C480.136 544.364 475.122 541.782 469.786 540.733C461.745 539.153 452.908 538.704 444.781 539.853C427.151 542.346 409.188 553.229 397.459 566.324C397.446 569.289 397.521 572.784 397.385 575.7C396.963 571.516 397.105 566.311 397.106 562.031Z" fill="url(#paint2_linear_2243_34113)"/>
<path d="M597.049 554.123C592.044 555.374 584.955 549.886 591.433 544.508C598.52 543.735 604.117 548.503 597.049 554.123Z" fill="#D59FF9"/>
<path d="M418.283 578.162C414.526 580.754 400.973 593.782 399.196 594.4L399.012 593.619C399.403 592.73 399.736 592.037 400.369 591.281C418.521 569.627 443.044 559.728 470.098 556.704C481.374 555.528 492.45 559.208 500.955 566.538C496.533 564.485 489.708 561.125 484.937 560.356C463.339 556.874 435.691 565.89 418.283 578.162Z" fill="url(#paint3_linear_2243_34113)"/>
<path d="M618.298 566.087C613.199 568.594 606.507 562.742 610.531 556.819C615.482 556.542 624.587 560.445 618.298 566.087Z" fill="#D59FF9"/>
<path d="M597.013 577.713C589.823 579.041 587.604 573.161 592.657 567.914C598.407 568.355 604.047 573.261 597.013 577.713Z" fill="#D59FF9"/>
<path d="M436.301 593.79C425.558 600.026 417.145 606.045 409.647 616.214C407.212 619.516 404.666 624.647 401.824 627.207L401.48 626.603C402.762 622.382 407.774 615.258 410.47 611.703C424.628 593.038 446.822 583.401 469.522 580.183C469.662 580.162 469.801 580.14 469.941 580.119C491.592 578.937 505.161 579.897 522.516 593.079L522.414 593.942L523.489 594.099C521.636 594.266 510.14 586.934 504.6 585.337C480.965 578.523 457.637 582.566 436.301 593.79Z" fill="#B9FBC0"/>
<path d="M613.99 594.132C606.809 595.645 606.238 587.436 610.598 582.816C616.592 583.431 619.145 589.734 613.99 594.132Z" fill="#D59FF9"/>
<path d="M596.828 602.309C591.266 603.951 585.582 600.882 590.078 594.367C593.53 595.065 597.945 595.385 599.299 598.968C598.709 601.051 598.665 600.569 596.828 602.309Z" fill="#D59FF9"/>
<path d="M401.381 650.187C411.706 617.303 455.635 604.524 486.353 603.215C498.91 602.557 513.355 606.059 524.231 612.444C528.216 614.784 532.095 619.379 534.829 623.059L534.726 623.457C526.747 615.959 525.083 614.657 514.704 610.431C492.839 601.529 460.14 606.862 438.965 616.442C427.169 622.302 416.82 628.987 408.521 639.54C405.796 643.005 403.954 646.613 401.381 650.187Z" fill="#B9FBC0"/>
<path d="M606.839 622.167C601.525 620.235 598.371 616.884 603.324 611.925C610.043 611.609 610.68 618.111 606.839 622.167Z" fill="#D59FF9"/>
<path d="M623.037 624.777C620.888 625.229 619.288 625.893 617.596 624.805C616.594 622.754 616.36 622.506 616.182 620.296C617.585 617.307 619.828 617.573 622.51 618.319L623.436 618.041L623.36 646.758C622.757 641.471 623.029 630.541 623.037 624.777Z" fill="#D59FF9"/>
<path d="M584.547 626.191C590.314 619.359 598.537 625.366 594.045 631.165C592.787 632.788 588.686 632.224 586.571 631.999L584.547 626.191Z" fill="#D59FF9"/>
<path d="M462.334 640.05C471.497 635.75 477.991 635.249 487.9 634.713C498.249 634.346 511.293 636.697 520.962 640.389C525.71 642.202 538.521 648.003 541.357 652.112C538.915 651.31 529.417 646.106 526.067 644.524C511.377 638.329 498.233 636.673 482.267 637.442C475.392 637.773 469.108 639.155 462.334 640.05Z" fill="#B9FBC0"/>
<path d="M615.501 650.51C606.989 650.93 607.497 642.519 614.079 638.883C622.157 639.082 621.35 646.725 615.501 650.51Z" fill="#D59FF9"/>
<path d="M597.703 654.827C598.664 653.08 600.05 651.045 601.145 649.336C607.095 649.897 609.176 653.554 605.384 658.512C600.549 658.533 600.922 658.263 597.703 654.827Z" fill="#D59FF9"/>
<path d="M593.829 652.469C595.477 654.899 602.877 667.645 604.087 668.69C605.392 671.069 606.385 672.956 607.948 675.196C610.8 679.06 619.511 686.351 623.543 689.767L623.692 759.726C623.711 767.177 624.61 785.758 623.173 791.899C615.762 823.572 560.205 830.858 535.87 832.71L535.207 832.201C535.811 829.899 543.194 822.287 545.154 819.681C581.875 770.837 596.55 712.889 593.829 652.469ZM600.445 671.875C597.186 676.861 598.916 680.346 605.08 679.829C608.008 675.173 605.536 671.935 600.445 671.875ZM602.255 695.446C596.321 699.441 599.316 704.058 604.916 705.734C611.244 702.681 609.254 695.571 602.255 695.446ZM614.795 706.022C611.75 706.58 609.736 709.503 610.298 712.547C610.861 715.59 613.786 717.6 616.829 717.034C619.866 716.468 621.871 713.55 621.31 710.512C620.749 707.474 617.833 705.465 614.795 706.022ZM602.581 719.909C595.809 724.456 598.277 731.539 605.411 731.738C612.539 727.03 609.465 721.35 602.581 719.909ZM615.125 739.12C613.426 739.341 611.989 740.482 611.388 742.086C610.787 743.691 611.122 745.495 612.258 746.777C613.394 748.06 615.145 748.609 616.81 748.207C619.2 747.629 620.72 745.283 620.272 742.865C619.824 740.448 617.563 738.803 615.125 739.12ZM602.116 743.686C597.448 747.159 596.906 751.15 602.24 754.424C605.954 751.203 608.14 745.874 602.116 743.686ZM592.524 750.258C590.437 750.859 589.235 753.04 589.842 755.125C590.448 757.211 592.634 758.407 594.717 757.794C596.792 757.183 597.982 755.009 597.378 752.933C596.773 750.856 594.603 749.66 592.524 750.258ZM617.882 761.44C613.182 764.521 610.632 770.699 617.984 772.37C622.857 769.388 625.089 762.546 617.882 761.44ZM604.817 764.01C602.776 765.722 599.315 769.32 601.34 771.905C603.128 772.793 605.464 772.594 607.526 772.628C609.254 772.169 609.418 772.269 610.705 770.982C611.856 767.83 610.703 766.204 608.458 764.11C606.866 763.69 606.42 763.832 604.817 764.01ZM583.651 773.347C579.731 778.27 580.023 785.464 587.793 783.394C593.899 778.76 589.875 773.177 583.651 773.347ZM599.874 783.799C595.51 789.08 598.059 797.437 605.671 792.325C607.361 793.295 608.397 794.018 609.989 795.157C612.631 793.424 614.824 792.006 613.902 788.586C611.104 785.381 607.648 785.431 603.788 784.866C602.513 784.679 601.674 783.977 599.874 783.799ZM574.699 797.856C571.37 798.669 569.339 802.038 570.175 805.361C571.011 808.685 574.394 810.692 577.711 809.834C580.997 808.983 582.981 805.64 582.153 802.349C581.325 799.057 577.996 797.051 574.699 797.856ZM592.065 801.753C588.135 806.221 588.623 810.118 595.336 810.387C599.165 806.316 597.449 801.981 592.065 801.753ZM557.265 805.766C554.87 807.835 552.841 809.078 554.672 812.258C555.779 812.933 556.086 813.202 557.313 813.655C559.791 812.172 561.852 811.204 559.687 807.68C559.254 806.976 558.016 806.093 557.265 805.766Z" fill="#FFEDE1"/>
<path d="M610 666.43C617.467 657.105 625.084 680.684 610.978 674.366C608.763 671.082 609.294 670.32 610 666.43Z" fill="#D59FF9"/>
<path d="M605.08 679.829C598.916 680.346 597.186 676.861 600.445 671.875C605.536 671.935 608.008 675.173 605.08 679.829Z" fill="#98F5E1"/>
<path d="M649.307 706.551C663.345 691.873 681.615 677.059 703.485 677.035C730.912 677.005 763.954 693.342 785.123 710.76C785.377 711.015 785.631 711.271 785.885 711.527C781.19 713.628 776.413 715.54 771.566 717.259C737.441 729.312 705.697 729.557 671.238 717.306C663.331 714.495 656.818 710.309 649.426 706.767L649.307 706.551Z" fill="#FFEDE1"/>
<path d="M471.279 699.694C465.316 698.913 461.287 694.301 466.721 689.477C468.401 689.416 470.51 689.097 471.887 690.244C475.185 692.988 473.96 696.989 471.279 699.694Z" fill="#CDCCD9"/>
<path d="M627.832 691.84C630.377 693.997 635.615 699.445 638.038 700.454C638.233 733.641 636.33 768.058 639.104 801.247C637.514 810.868 637.117 828.964 629.998 835.815C629.061 833.869 628.87 832.935 627.131 831.851C625.238 831.562 626.102 831.403 624.445 832.323C622.212 836.014 624.161 839.415 628.249 840.231C630.041 842.454 627.756 853.178 628.075 857.555C620.255 862.887 610.333 866.729 601.421 870.046C562.169 884.662 519.844 889.053 478.428 882.807C479.912 880.52 482.518 878.309 484.705 876.696C497.822 867.025 509.15 855.564 521.174 844.634C523.417 842.596 525.964 840.286 527.906 837.975C554.447 836.515 597.865 829.951 617.247 810.515C620.633 807.322 627.205 798.886 627.475 794.101C629.364 760.659 627.428 725.255 627.832 691.84ZM606.797 839.083C605.51 839.328 604.458 840.254 604.051 841.499C603.643 842.745 603.945 844.113 604.839 845.072C605.733 846.03 607.077 846.427 608.348 846.108C610.236 845.634 611.405 843.744 610.986 841.842C610.566 839.941 608.71 838.718 606.797 839.083ZM586.937 842.943C584.98 843.863 584.119 846.179 585 848.154C585.882 850.128 588.181 851.034 590.172 850.192C591.495 849.632 592.413 848.401 592.571 846.973C592.729 845.545 592.103 844.143 590.935 843.307C589.766 842.471 588.237 842.332 586.937 842.943ZM566.918 848.398C565.142 849.442 564.494 851.694 565.443 853.522C566.392 855.351 568.606 856.117 570.483 855.266C571.788 854.675 572.66 853.41 572.75 851.98C572.839 850.549 572.132 849.186 570.911 848.436C569.689 847.686 568.154 847.671 566.918 848.398ZM545.471 850.231C544.123 850.604 543.085 851.683 542.763 853.044C542.441 854.406 542.887 855.835 543.925 856.772C544.964 857.71 546.431 858.008 547.752 857.549C549.708 856.87 550.772 854.761 550.156 852.785C549.54 850.809 547.466 849.678 545.471 850.231ZM522.653 853.799C520.829 854.659 520.04 856.829 520.885 858.66C521.729 860.491 523.892 861.298 525.73 860.469C527.59 859.63 528.409 857.436 527.555 855.583C526.7 853.73 524.499 852.929 522.653 853.799Z" fill="#DBF5E3"/>
<path d="M604.917 705.733C599.317 704.057 596.322 699.44 602.256 695.445C609.255 695.57 611.245 702.68 604.917 705.733Z" fill="#8EECF5"/>
<path d="M490.105 707.847C483.279 706.357 483.352 700.991 488.466 696.941C495.696 697.347 495.341 704.71 490.105 707.847Z" fill="#CDCCD9"/>
<path d="M417.251 714.618C410.731 712.745 409.765 704.147 416.246 700.547C418.057 701 419.702 701.695 420.848 703.239C421.852 704.609 422.258 706.327 421.972 708.002C421.406 711.464 419.929 712.745 417.251 714.618Z" fill="#CDCCD9"/>
<path d="M643.129 702.344C644.932 703.754 647.36 705.265 649.305 706.552L649.424 706.768C648.064 708.454 644.98 712.757 643.299 713.284C642.891 712.295 642.954 712.666 642.898 711.609C643.201 709.766 643.119 704.498 643.129 702.344Z" fill="#FFEDE1"/>
<path d="M616.828 717.034C613.785 717.6 610.86 715.59 610.297 712.547C609.735 709.503 611.749 706.58 614.794 706.022C617.832 705.465 620.748 707.474 621.309 710.512C621.87 713.55 619.865 716.468 616.828 717.034Z" fill="#98F5E1"/>
<path d="M447.347 716.873C441.03 716.915 439.5 710.863 444.25 706.969C450.604 708.065 452.222 712.163 447.347 716.873Z" fill="#CDCCD9"/>
<path d="M642.898 711.611C642.954 712.668 642.891 712.297 643.299 713.286C644.98 712.759 648.064 708.456 649.424 706.77C656.816 710.312 663.329 714.498 671.236 717.309C705.695 729.56 737.439 729.315 771.564 717.262C776.411 715.543 781.188 713.631 785.883 711.53L786.282 711.617C846.64 763.441 850.997 883.277 752.214 891.267C710.773 894.619 669.182 880.867 634.871 857.546C635.207 857.223 635.539 856.897 635.867 856.566C652.874 839.333 644.987 816.394 643.553 795.652C641.653 768.184 642.566 739.168 642.58 711.588L642.898 711.611Z" fill="#B9FBC0"/>
<path d="M605.411 731.735C598.277 731.536 595.809 724.453 602.581 719.906C609.465 721.347 612.539 727.027 605.411 731.735Z" fill="#98F5E1"/>
<path d="M475.433 734.502C468.632 734.97 466.578 729.206 471.054 724.421C478.476 724.192 479.848 729.525 475.433 734.502Z" fill="#CDCCD9"/>
<path d="M506.753 736.612C499.25 736.522 499.795 729.756 504.2 725.426C511.709 726.659 511.609 731.938 506.753 736.612Z" fill="#CDCCD9"/>
<path d="M452.153 754.465C443.408 754.223 441.474 743.055 447.85 737.449C456.766 738.089 459.65 749.002 452.153 754.465Z" fill="#CDCCD9"/>
<path d="M616.81 748.204C615.145 748.606 613.394 748.057 612.258 746.774C611.122 745.492 610.787 743.688 611.388 742.083C611.989 740.479 613.426 739.338 615.125 739.117C617.563 738.8 619.824 740.445 620.272 742.862C620.72 745.28 619.2 747.626 616.81 748.204Z" fill="#98F5E1"/>
<path d="M418.736 750.255C417.246 751.225 415.345 751.301 413.783 750.452C412.221 749.603 411.25 747.967 411.254 746.189C411.258 744.412 412.236 742.779 413.802 741.937C416.086 740.709 418.933 741.5 420.256 743.731C421.579 745.962 420.909 748.839 418.736 750.255Z" fill="#CDCCD9"/>
<path d="M602.24 754.422C596.906 751.148 597.448 747.157 602.116 743.684C608.14 745.872 605.954 751.201 602.24 754.422Z" fill="#98F5E1"/>
<path d="M594.716 757.792C592.633 758.405 590.447 757.209 589.841 755.123C589.234 753.038 590.436 750.857 592.523 750.256C594.602 749.658 596.772 750.854 597.377 752.931C597.981 755.007 596.791 757.181 594.716 757.792Z" fill="#98F5E1"/>
<path d="M489.085 770.426C479.432 771.83 475.231 757.329 482.322 751.048C494.269 750.414 495.498 762.398 489.085 770.426Z" fill="#CDCCD9"/>
<path d="M433.711 770.845C427.073 770.69 427.523 765.197 430.162 760.916C431.666 760.804 431.704 760.863 433.205 761.169C436.798 763.76 436.082 767.668 433.711 770.845Z" fill="#CDCCD9"/>
<path d="M617.983 772.367C610.631 770.696 613.181 764.519 617.881 761.438C625.088 762.543 622.856 769.385 617.983 772.367Z" fill="#8EECF5"/>
<path d="M522.417 773.438C520.251 774.115 520.048 774.158 518.018 773.269C514.788 770.058 516.474 765.823 519.204 762.971C527.762 762.69 526.301 768.582 522.417 773.438Z" fill="#CDCCD9"/>
<path d="M607.527 772.628C605.465 772.594 603.129 772.793 601.341 771.905C599.316 769.32 602.777 765.722 604.818 764.01C606.421 763.832 606.867 763.69 608.459 764.11C610.704 766.204 611.857 767.83 610.706 770.982C609.419 772.269 609.255 772.169 607.527 772.628Z" fill="#98F5E1"/>
<path d="M416.32 776.503C413.747 776.989 414.609 777.168 412.333 776.375C409.859 773.996 410.169 771.196 411.535 768.298C417.338 768.243 421.036 770.949 416.32 776.503Z" fill="#CDCCD9"/>
<path d="M460.842 784.103C453.364 782.23 454.364 777.098 459.527 772.895C466.976 773.06 467.076 780.951 460.842 784.103Z" fill="#CDCCD9"/>
<path d="M587.793 783.395C580.023 785.465 579.731 778.271 583.651 773.348C589.875 773.178 593.899 778.761 587.793 783.395Z" fill="#98F5E1"/>
<path d="M450.748 792.142C444.267 789.994 444.16 784.344 450.845 781.367C458.419 783.615 455.991 789.029 450.748 792.142Z" fill="#CDCCD9"/>
<path d="M609.989 795.155C608.397 794.016 607.361 793.293 605.671 792.323C598.059 797.435 595.51 789.078 599.874 783.797C601.674 783.975 602.513 784.677 603.788 784.864C607.648 785.429 611.104 785.379 613.902 788.584C614.824 792.004 612.631 793.422 609.989 795.155Z" fill="#98F5E1"/>
<path d="M513.559 797.606C506.018 797.865 504.242 789.358 509.876 785.414C518.152 785.818 519.406 792.403 513.559 797.606Z" fill="#CDCCD9"/>
<path d="M486.727 797.077C479.558 797.637 477.566 792.466 482.439 787.934C488.787 787.945 491.104 792.923 486.727 797.077Z" fill="#CDCCD9"/>
<path d="M577.71 809.831C574.393 810.689 571.01 808.682 570.174 805.358C569.338 802.035 571.369 798.666 574.698 797.853C577.995 797.048 581.324 799.054 582.152 802.346C582.98 805.637 580.996 808.98 577.71 809.831Z" fill="#98F5E1"/>
<path d="M421.395 810.377C420.898 807.825 419.851 804.375 420.774 802.153C427.077 794.841 449.585 808.046 430.929 816.331C427.902 814.877 424.089 812.401 421.395 810.377Z" fill="#CDCCD9"/>
<path d="M595.336 810.388C588.623 810.119 588.135 806.222 592.065 801.754C597.449 801.982 599.165 806.317 595.336 810.388Z" fill="#98F5E1"/>
<path d="M639.103 801.246C641.927 816.793 646.351 834.785 636.681 848.934C634.347 852.296 631.432 855.215 628.074 857.554C627.755 853.177 630.04 842.453 628.248 840.23L629.997 835.814C637.116 828.963 637.513 810.867 639.103 801.246Z" fill="#B9FBC0"/>
<path d="M524.575 816.748C516.728 817.921 514.703 810.532 520.065 805.433C528.015 804.763 530.196 810.908 524.575 816.748Z" fill="#CDCCD9"/>
<path d="M557.314 813.655C556.087 813.202 555.78 812.933 554.673 812.258C552.842 809.078 554.871 807.835 557.266 805.766C558.017 806.093 559.255 806.976 559.688 807.68C561.853 811.204 559.792 812.172 557.314 813.655Z" fill="#8EECF5"/>
<path d="M450 823.937C449.772 822.136 449.095 818.899 450.482 817.645C455.608 813.012 466.194 821.566 464.077 827.932C459.024 826.653 454.984 825.561 450 823.937Z" fill="#CDCCD9"/>
<path d="M499.939 828.09C497.651 829.17 494.921 828.188 493.846 825.899C492.77 823.609 493.757 820.881 496.049 819.81C498.335 818.742 501.054 819.726 502.126 822.009C503.199 824.293 502.22 827.013 499.939 828.09Z" fill="#CDCCD9"/>
<path d="M410.252 835.959C408.138 836.767 405.763 835.769 404.861 833.694C403.959 831.618 404.85 829.201 406.883 828.207C408.282 827.524 409.942 827.664 411.206 828.571C412.471 829.478 413.135 831.007 412.935 832.55C412.736 834.094 411.705 835.403 410.252 835.959Z" fill="#8EECF5"/>
<path d="M628.249 840.23C624.161 839.414 622.212 836.013 624.445 832.322C626.102 831.402 625.238 831.561 627.131 831.85C628.87 832.934 629.061 833.868 629.998 835.814L628.249 840.23Z" fill="#8EECF5"/>
<path d="M430.042 844.363C427.879 844.917 425.676 843.611 425.123 841.448C424.57 839.285 425.875 837.082 428.038 836.529C430.201 835.976 432.403 837.281 432.957 839.444C433.51 841.607 432.205 843.809 430.042 844.363Z" fill="#8EECF5"/>
<path d="M608.349 846.105C607.078 846.424 605.734 846.027 604.84 845.069C603.946 844.11 603.644 842.742 604.052 841.496C604.459 840.251 605.511 839.325 606.798 839.08C608.711 838.715 610.567 839.938 610.987 841.839C611.406 843.741 610.237 845.631 608.349 846.105Z" fill="#8EECF5"/>
<path d="M590.172 850.192C588.181 851.034 585.882 850.128 585 848.154C584.119 846.179 584.98 843.863 586.937 842.943C588.237 842.332 589.766 842.471 590.935 843.307C592.103 844.143 592.729 845.545 592.571 846.973C592.413 848.401 591.495 849.632 590.172 850.192Z" fill="#8EECF5"/>
<path d="M451.271 853.941C449.792 854.168 448.311 853.55 447.432 852.339C446.553 851.128 446.424 849.528 447.098 848.192C447.772 846.856 449.135 846.009 450.631 845.996C452.727 845.978 454.48 847.582 454.649 849.671C454.817 851.76 453.343 853.624 451.271 853.941Z" fill="#8EECF5"/>
<path d="M570.484 855.266C568.607 856.117 566.393 855.351 565.444 853.522C564.495 851.694 565.143 849.442 566.919 848.398C568.155 847.671 569.69 847.686 570.912 848.436C572.133 849.186 572.84 850.549 572.751 851.98C572.661 853.41 571.789 854.675 570.484 855.266Z" fill="#8EECF5"/>
<path d="M473.422 859.653C471.12 859.272 470.85 859.048 469.362 857.521C467.902 854.001 470.186 851.954 472.632 849.828C479.269 850.779 478.715 856.522 473.422 859.653Z" fill="#8EECF5"/>
<path d="M547.752 857.548C546.431 858.007 544.964 857.709 543.925 856.771C542.887 855.834 542.441 854.405 542.763 853.043C543.085 851.682 544.123 850.603 545.471 850.23C547.466 849.677 549.54 850.808 550.156 852.784C550.772 854.76 549.708 856.869 547.752 857.548Z" fill="#8EECF5"/>
<path d="M496.701 861.67C490.658 860.921 491.253 855.11 496.094 851.887C503.203 852.636 502.036 858.541 496.701 861.67Z" fill="#8EECF5"/>
<path d="M525.731 860.467C523.893 861.296 521.73 860.489 520.886 858.658C520.041 856.827 520.83 854.657 522.654 853.797C524.5 852.927 526.701 853.728 527.556 855.581C528.41 857.434 527.591 859.628 525.731 860.467Z" fill="#8EECF5"/>
<path d="M402.084 860.652C423.822 876.551 444.421 881.257 470.467 886.479C466.036 888.843 457.034 892.723 454.191 896.497C432.551 890.441 408.511 884.972 402.084 860.652Z" fill="#98F5E1"/>
<path d="M470.467 886.479C485.019 887.891 499.045 889.867 513.679 889.994C545.919 890.156 577.892 884.148 607.874 872.294C613.973 869.856 622.213 866.321 627.654 862.895C623.781 874.598 615.075 880.69 604.362 886.003C560.886 907.566 500.322 910.138 454.191 896.497C457.034 892.723 466.036 888.843 470.467 886.479Z" fill="#98F5E1"/>
<defs>
<linearGradient id="paint0_linear_2243_34113" x1="450.301" y1="409.75" x2="460.56" y2="414.193" gradientUnits="userSpaceOnUse">
<stop stop-color="#054E55"/>
<stop offset="1" stop-color="#35606B"/>
</linearGradient>
<linearGradient id="paint1_linear_2243_34113" x1="649.758" y1="557.959" x2="377.532" y2="760.76" gradientUnits="userSpaceOnUse">
<stop stop-color="#1D586C"/>
<stop offset="1" stop-color="#2E6B69"/>
</linearGradient>
<linearGradient id="paint2_linear_2243_34113" x1="433.624" y1="539.544" x2="443.885" y2="561.544" gradientUnits="userSpaceOnUse">
<stop stop-color="#5FFC8D"/>
<stop offset="1" stop-color="#85F5BE"/>
</linearGradient>
<linearGradient id="paint3_linear_2243_34113" x1="441.573" y1="562.009" x2="455.721" y2="587.599" gradientUnits="userSpaceOnUse">
<stop stop-color="#69FE94"/>
<stop offset="1" stop-color="#82F7BD"/>
</linearGradient>
</defs>
</svg>
