<svg width="1024" height="1024" viewBox="0 0 1024 1024" fill="none" xmlns="http://www.w3.org/2000/svg">
<path d="M379.615 126.344C447.805 73.368 549.655 58.5713 633.678 68.787C654.378 71.3037 695.191 79.3528 714.968 86.037C773.577 105.846 834.208 143.322 873.032 192.05C910.999 239.701 934.153 298.345 938.085 359.114C940.226 392.199 936.059 426.889 932.395 459.855C929.554 485.412 923.563 512.002 918.979 537.331C916.277 552.256 911.921 571.143 910.31 586.043C908.163 586.117 907.974 585.766 906.48 586.76C906.092 588.292 906.235 588.527 906.446 590.074L905.288 588.064L904.835 588.151C904.611 589.291 904.405 590.574 904.079 591.672C904.036 589.54 904.243 586.82 903.263 585.044C901.746 584.482 902.575 584.573 900.664 585.322L899.867 586.327C900.354 587.756 900.886 588.187 901.877 589.303L901.768 590.256L900.999 590.711L899.24 589.594C898.062 590.125 897.987 590.467 898.009 591.826L898.123 593.305C899.244 594.062 898.871 593.873 900.103 594.305L900.082 595.238L899.514 595.698C898.837 596.254 898.331 596.71 897.694 597.302C897.602 599.193 898.355 599.748 899.711 601.48L899.275 602.059L897.417 602.246L895.987 602.58L894.861 602.253C893.621 604.106 890.097 609.447 889.722 611.405C890.949 612.444 890.693 612.185 892.223 612.888L892.32 613.57C892.814 616.819 892.787 616.802 895.251 619.032L895.603 621.794C891.215 622.586 887.139 625.349 883.618 628.028C882.859 626.406 882.984 623.401 882.928 621.483C880.786 619.309 875.727 615.35 873.117 613.069C880.713 597.066 884.873 575.023 890.13 557.887C891.717 552.714 898.415 537.745 896.737 534.01C895.19 533.658 893.997 534.153 892.889 535.291C879.967 548.565 869.594 558.798 851.973 565.892C848.981 546.645 853.252 516.06 855.812 496.482C856.674 489.884 859.182 482.344 859.591 475.94C859.643 475.13 859.292 475.12 858.565 474.578C858.372 474.635 858.17 474.671 857.984 474.75C849.768 478.262 826.646 524.097 821.833 534.432C817.803 543.084 814.188 551.927 810.733 560.821C806.814 560.808 776.805 533.325 771.245 528.752C804.723 468.198 817.85 415.159 799.821 346.255C782.617 280.504 738.802 222.325 679.65 188.359C621.302 154.855 540.058 147.926 473.95 153.458C449.078 155.539 426.836 160.421 402.894 166.91C403.912 166.234 404.663 164.993 404.23 163.758C401.133 154.912 387.206 132.189 379.754 127.535L379.615 126.344Z" fill="#D6F5D6"/>
<path d="M100.375 352.703C97.4965 347.568 93.75 342.953 90.8999 337.838C56.3649 275.867 62.6711 197.626 107.759 142.633C113.66 135.436 119.255 128.491 126.191 122.031C186.882 65.5039 296.047 50.058 361.377 107.414C367.867 113.113 373.805 119.898 379.616 126.345L379.755 127.536C387.207 132.19 401.134 154.913 404.231 163.759C404.664 164.994 403.913 166.235 402.895 166.911C361.103 180.062 314.018 202.44 292.18 242.647C277.841 269.047 273.439 312.06 295.426 335.809C285.064 357.242 263.96 429.161 262.92 451.326C253.035 449.723 210.718 457.099 201.945 461.95C187.979 450.152 175.161 438.537 161.56 426.332C165.819 425.665 174.774 425.392 175.91 420.703C174.807 418.307 168.384 414.773 165.925 413.172C147.651 401.274 130.931 387.052 116.983 370.25C112.531 364.886 108.735 358.78 103.856 353.81C103.266 353.21 101.238 352.853 100.375 352.703ZM146.993 250.615C144.204 255.041 146.887 260.649 147.646 265.509C150.604 284.453 163.305 311.444 164.185 329.879C153.919 334.232 141.74 329.522 132.803 332.526C132.192 334.148 132.307 334.079 132.661 335.812C137.808 343.259 238.809 429.119 244.063 429.906C244.929 430.036 245.079 429.863 245.836 429.547C246.442 428.11 246.588 428.295 245.929 426.262C243.519 422.254 240.829 418.224 238.1 414.429C222.783 393.133 209.949 369.475 195.409 347.809L196.205 347.868C201.861 348.318 226.301 353.984 229.486 351.303C229.642 347.339 221.324 340.355 218.498 337.457C194.429 312.778 172.029 286.794 153.788 257.447C152.161 254.831 150.323 251.22 146.993 250.615Z" fill="#90DBF4"/>
<path d="M295.426 335.807C273.439 312.058 277.841 269.045 292.18 242.645C314.018 202.438 361.103 180.06 402.895 166.909C426.837 160.42 449.079 155.538 473.951 153.457C540.059 147.925 621.303 154.854 679.651 188.358C738.803 222.324 782.618 280.503 799.822 346.254C817.851 415.158 804.724 468.197 771.246 528.751C760.56 547.174 748.684 563.929 737.704 581.584C720.744 608.856 709.134 649.033 711.739 681.341C714.233 712.281 726.636 753.439 738.262 782.453C749.638 809.492 759.553 827.834 781.315 848.752C790.107 857.203 801.636 866.866 809.773 875.27C796.099 866.408 779.323 853.082 768.16 841.278C754.291 826.355 743.037 806.708 735.743 787.788C725.025 759.983 716.841 731.577 711.164 702.382L707.447 700.09C668.946 670.295 646.255 627.426 642.755 578.932C635.902 590.252 629.46 599.903 621.068 610.199C604.47 630.561 582.919 655.927 559.231 626.457C559.303 651.625 560.048 692.408 541.309 711.169C534.051 718.436 519.512 725.955 510.293 731.233C480.175 748.473 448.097 765.22 415.893 778.231C422.431 780.814 425.792 781.755 432.764 782.754C436.868 783.341 448.045 783.758 451.345 785.228C474.299 802.254 471.13 816.352 479.99 841.213C482.042 846.97 486.888 853.261 489.958 858.597C500.2 876.397 507.591 911.936 502.459 931.606C500.943 925.256 500.712 917.416 500.167 910.862C498.716 893.423 495.395 875.8 486.4 860.538C482.941 854.669 478.863 849.098 476.359 842.733C471.755 830.886 470.302 817.56 464.592 806.152C460.906 798.789 453.584 789.02 445.028 787.355C440.499 786.473 435.673 786.351 431.073 785.6C424.462 784.521 418.421 782.503 412.112 780.39C383.775 790.933 349.728 801.612 322.159 782.465C303.776 769.697 300.99 751.959 306.176 731.336C308.062 723.835 311.293 714.709 309.02 706.849C303.276 690.432 280.361 688.659 297.589 666.914C290.384 663.95 277.231 653.227 276.082 644.979C274.677 634.899 288.381 630.497 286.507 619.749C284.839 610.18 276.436 605.674 268.219 602.429C252.824 596.923 232.917 590.288 236.77 569.436C237.827 563.714 245.376 555.623 248.415 550.132C258.794 531.377 269.632 512.857 281.255 494.836C291.004 479.74 269.657 470.057 264.294 458.328C263.457 456.496 263.18 453.401 262.92 451.324C263.96 429.159 285.064 357.24 295.426 335.807ZM349.424 316.516C343.558 313.793 340.136 312.053 334.812 308.42C319.357 313.751 302.79 327.886 296.182 342.898C287.564 363.57 282.004 385.75 275.988 407.306C272.767 418.846 269.136 430.578 266.886 442.307C264.291 455.839 268.776 460.106 277.486 468.743C276.699 463.768 274.111 449.227 275.47 444.877L276.313 444.607C277.734 445.644 278.123 446.453 278.292 448.141C278.887 454.112 282.206 471.681 285.211 476.098C287.514 484.271 289.381 488.948 284.193 496.775C272.301 514.713 261.958 533.492 251.262 552.137C246.259 560.859 236.889 568.097 240.386 579.153C244.65 592.635 261.621 596.149 273.09 600.817C283.913 607.663 294.995 614.021 289.024 629.423C285.858 634.183 279.552 637.848 279.945 643.702C280.33 649.431 293.723 662.653 299.081 662.392C317.398 661.5 337.297 663.408 355.432 663.054C357.44 663.047 357.89 663.109 359.79 662.598C358.799 661.707 357.27 661.762 355.673 661.494C334.476 658.15 319.206 645.306 299.31 639.721C294.457 638.359 290.047 638.699 285.158 638.338L285.709 637.8C294.952 635.895 303.193 638.451 311.826 641.197C326.073 648.415 344.915 656.472 360.8 658.278C364.182 658.663 370.276 656.72 372.951 658.741C373.909 662.494 368.437 663.686 365.586 664.646C358.235 666.208 353.647 666.534 346.107 666.716C330.716 665.954 316.391 665.22 301.037 666.132C291.607 683.164 294.862 686.135 309.323 696.765C322.492 688.448 335.353 682.132 351.226 681.002L351.63 681.055C353.036 681.258 354.699 681.202 355.486 681.988C351.685 683.519 345.896 683.864 341.624 685.149C331.759 688.118 322.885 692.068 313.785 696.827C311.642 697.899 311.73 697.411 310.975 699.104C311.431 704.388 314.244 708.416 313.98 713.768C313.608 721.324 310.764 728.408 309.152 735.683C305.574 751.825 308.24 766.589 321.411 777.45C329.269 783.93 338.949 788.29 349.107 789.222C354.552 791.137 372.74 788.544 378.582 787.394C390.913 784.969 402.06 780.387 413.617 775.598C445.918 762.212 477.32 745.478 507.867 728.494C517.608 722.67 528.78 717.473 537.527 710.292C542.543 706.175 547.952 696.416 549.811 690.285C557 666.58 555.89 641.252 556.185 616.778C556.432 616.41 556.678 616.043 556.925 615.675C558.645 615.798 558.969 617.461 559.494 618.892C561.729 624.98 566.256 630.37 571.941 633.612C576.933 636.459 582.32 637.539 587.876 635.783C607.088 629.712 637.259 583.651 646.376 565.511C657.649 543.084 663.923 514.679 655.701 490.182C652.124 479.527 645.795 468.17 635.304 463.091C627.493 459.309 618.662 458.835 610.233 460.448C573.945 467.389 566.403 500.458 542.612 521.855C539.428 524.718 535.479 527.96 531.366 529.311C531.229 529.356 531.09 529.396 530.952 529.438L528.881 528.906C527.918 524.829 518.904 516.443 515.557 510.022C507.063 493.731 504.303 480.945 500.677 463.298C495.431 458.298 489.871 454.394 484.569 448.946C463.376 427.168 453.883 395.941 454.477 365.982C454.977 340.823 461.026 320.728 479.372 303.021C438.9 322.711 392.501 335.212 349.424 316.516ZM595.732 460.488C609.205 455.29 621.433 453.055 635.513 458.538C648.107 463.442 654.253 475.053 659.205 486.911C664.474 502.666 664.355 518.658 661.827 534.949C666.212 530.336 670.879 525.182 675.617 520.996C705.699 492.201 741.726 461.962 730.029 414.942C729.303 412.023 726.783 407.387 726.671 404.701L727.741 404.448C730.556 406.23 732.564 414.738 733.249 417.954C737.574 438.244 732.263 458.84 721.173 476.02C709.28 494.444 691.408 508.26 676.823 523.482C670.594 529.632 661.354 537.054 658.889 545.297C655.641 556.154 650.371 565.703 645.288 575.737C647.936 620.376 667.632 660.2 700.756 690.319C702.582 691.98 706.926 695.643 708.994 696.837L709.581 697.8L710.19 697.813C710.457 694.807 708.93 688.326 708.675 684.781C707.333 666.179 709.239 647.283 713.895 629.23C716.398 619.521 720.742 610.142 723.853 600.628C724.165 599.674 723.756 595.722 723.625 594.479C722.107 580.043 726.977 565.051 731.653 551.57C732.42 549.376 737.766 538.788 739.19 538.02L739.871 538.458C740.279 542.206 734.843 551.144 733.366 555.196C728.414 568.78 725.579 581.529 726.313 596.11C730.563 589.071 734.011 581.224 738.703 574.366C766.433 533.839 790.349 494.928 800.471 446.076C813.026 385.49 796.072 321.166 762.276 270.222C724.648 213.503 667.82 175.498 600.931 163.231C515.456 146.974 410.36 152.04 335.625 201.514C310.04 218.451 290.978 242.082 285.251 272.598C281.136 294.521 284.335 315.105 296.77 333.667C304.205 323.594 318.72 308.528 331.674 304.902C336.415 303.575 338.979 307.867 342.586 309.846C348.753 313.23 357.295 317.151 363.96 319.037C410.977 332.343 455.619 310.151 497.549 291.803C516.822 283.369 538.113 275.684 558.085 269.308C565.986 266.786 576.71 263.183 584.704 261.765L585.617 262.445C585.512 263.116 584.418 264.221 583.982 264.345C577.716 266.127 570.51 268.256 564.354 270.142C547.308 275.241 530.814 281.249 514.318 287.834C497.942 294.372 487.11 297.548 475.476 311.629C459.064 331.493 456.456 354.93 458.673 379.672C461.222 408.122 473.156 435.386 495.525 453.59C519.103 473.065 542.55 480.139 572.931 477.213C580.212 469.8 584.03 467.477 592.745 461.893C552.206 440.156 534.946 391.694 559.134 351.029C560.479 348.77 564.734 342.438 566.884 341.125C568.139 341.914 567.717 341.383 568.215 342.753C566.621 345.145 564.885 347.435 563.262 349.794C546.473 374.209 546.854 408.174 563.792 432.452C572.251 444.577 582.592 453.398 595.732 460.488ZM503.799 464.773C509.879 490.905 512.331 505.561 531.09 525.922C544.155 518.818 552.52 506.892 560.069 494.461C550.928 495.185 543.102 495.487 534.467 491.963C531.432 490.425 523.35 486.592 522.172 483.325C522.52 482.995 522.73 482.535 523.268 482.687C525.109 483.207 527.573 484.768 529.168 485.88C536.284 490.838 545.306 492.557 553.855 491.956C556.643 491.76 557.879 491.45 560.548 492.709C562.497 492.011 567.756 484.315 570.304 481.646C551.474 482.496 534.246 480.378 516.863 472.483C512.26 470.393 507.56 466.54 503.799 464.773Z" fill="#000002"/>
<path d="M659.204 486.911C654.252 475.053 648.106 463.442 635.512 458.538C621.432 453.055 609.204 455.29 595.731 460.488C582.591 453.398 572.25 444.577 563.791 432.452C546.853 408.174 546.473 374.209 563.262 349.794C564.885 347.435 566.621 345.145 568.215 342.753C567.717 341.383 568.138 341.914 566.883 341.125C564.733 342.438 560.478 348.77 559.133 351.029C534.945 391.694 552.205 440.156 592.744 461.893C584.029 467.477 580.212 469.8 572.931 477.213C542.55 480.139 519.102 473.065 495.524 453.59C473.155 435.386 461.222 408.122 458.673 379.672C456.456 354.93 459.064 331.493 475.476 311.629C487.11 297.548 497.941 294.372 514.317 287.834C530.813 281.249 547.307 275.241 564.353 270.142C570.509 268.256 577.715 266.127 583.981 264.345C584.417 264.221 585.511 263.116 585.616 262.445L584.703 261.765C576.709 263.183 565.986 266.786 558.085 269.308C538.113 275.684 516.822 283.369 497.549 291.803C455.619 310.151 410.976 332.343 363.959 319.037C357.294 317.151 348.752 313.23 342.585 309.846C338.978 307.867 336.415 303.575 331.674 304.902C318.72 308.528 304.204 323.594 296.769 333.667C284.334 315.105 281.135 294.521 285.25 272.598C290.977 242.082 310.039 218.451 335.624 201.514C410.359 152.04 515.456 146.974 600.931 163.231C667.82 175.498 724.647 213.503 762.275 270.222C796.071 321.166 813.026 385.49 800.471 446.076C790.349 494.928 766.432 533.839 738.702 574.366C734.01 581.224 730.562 589.071 726.312 596.11C725.578 581.529 728.414 568.78 733.366 555.196C734.843 551.144 740.278 542.206 739.87 538.458L739.189 538.02C737.765 538.788 732.419 549.376 731.652 551.57C726.976 565.051 722.106 580.043 723.624 594.479C723.755 595.722 724.165 599.674 723.853 600.628C720.742 610.142 716.398 619.521 713.895 629.23C709.239 647.283 707.332 666.179 708.674 684.781C708.929 688.326 710.456 694.807 710.189 697.813L709.58 697.8L708.993 696.837C705.366 690.391 690.647 682.232 686.796 673.395C683.845 666.623 680.944 660.305 678.392 653.362C676.972 649.499 674.997 637.555 673.374 635.558C672.979 634.555 672.33 630.264 672.158 629.037C670.074 614.2 670.918 598.633 674.277 584.032C675.206 579.995 677.461 575.232 678.194 571.052C678.339 570.224 677.628 569.757 676.922 568.895L675.986 567.808C675.707 562.041 676.887 552.346 676.936 545.855C676.986 539.086 676.317 529.763 676.822 523.482C691.407 508.26 709.279 494.444 721.172 476.02C732.262 458.84 737.574 438.244 733.249 417.954C732.564 414.738 730.556 406.23 727.741 404.448L726.671 404.701C726.783 407.387 729.302 412.023 730.028 414.942C741.725 461.962 705.698 492.201 675.616 520.996C674.318 519.266 673.434 515.237 673.103 513.038C672.31 507.758 662.944 489.124 659.204 486.911ZM672.317 426.187C670.002 424.235 667.249 428.29 666.083 430.154C664.862 432.105 666.394 436.517 665.508 438.452L664.583 438.757C664.589 440.684 664.56 440.649 665.132 442.471L665.814 442.549C670.049 438.467 666.324 438.174 667.783 434.464C671.922 429.926 672.654 432.121 676.181 429.111L676.111 428.132C674.548 426.749 674.384 426.77 672.317 426.187ZM694.653 439.318L693.661 438.573C691.649 438.905 691.219 440.475 690.322 442.253C689.919 439.222 689.801 437.958 685.876 438.058C683.528 439.713 682.055 445.786 680.962 448.977C681.716 450.104 682.555 451.026 682.778 452.255C681.267 453.807 681.707 452.918 681.325 454.975L681.726 455.204C683.501 453.952 682.96 453.918 684.694 454.005L685.369 454.71C684.162 456.585 683.406 457.222 681.801 458.821C687.948 456.297 689.763 455.24 691.479 448.061C691.996 445.896 692.395 446.915 693.452 445.663C693.773 446.781 694.485 446.931 694.902 448.471C694.379 450.328 692.777 451.199 691.218 452.803C692.278 454.798 692.287 454.484 691.137 456.393C690.199 456.844 690.021 456.857 689.205 457.481L690.487 458.452C690.229 459.56 690.526 459.107 689.554 459.783L688.298 458.255C687.943 458.812 688.157 460.471 688.041 460.683C687.426 461.802 686.324 462.216 686.374 463.507C688.603 463.045 689.816 461.867 691.672 460.497C693.616 453.711 696.997 447.536 699.291 439.132C698.857 437.414 698.491 434.909 697.246 433.857L696.361 434.181L696.085 434.953C697.125 436.073 697.452 436.276 698.081 437.68L697.635 438.747C696.032 438.656 695.935 438.464 694.653 439.318ZM686.825 474.285C685.191 472.647 686.138 471.13 684.607 468.294L684.004 467.912L683.671 469.521C683.135 469.83 682.856 469.968 682.444 470.444L683.611 472.361C682.219 473.052 682.634 472.844 681.013 473.083C680.036 475.46 679.992 476.822 678.775 478.886C677.121 480.691 675.547 482.075 674.671 484.32C674.892 486.02 674.602 485.197 675.975 486.694L676.848 486.785C677.205 485.616 677.054 485.013 676.969 483.785C677.669 482.719 677.181 483.063 678.45 482.779C679.92 483.444 680.251 483.793 681.799 483.887L680.934 486.247L680.763 486.909L681.212 487.433C683.253 487.319 686.715 486.493 688.094 484.917L688.544 484.773C689.949 482.728 689.124 478.93 690.054 476.507C691.241 473.418 692.68 472.398 693.495 469.003C692.741 465.953 692.846 468.403 691.633 467.137C690.335 465.783 692.99 466.629 690.427 464.618L689.224 464.874C688.059 465.811 687.604 465.944 687.208 467.352C688.317 467.303 687.944 467.246 689.018 467.533C688.395 469.865 687.871 472.095 686.825 474.285ZM454.367 167.739C444.87 168.655 435.509 169.555 426.136 172.033C394.74 180.143 366.971 197.534 346.09 221.989C330.257 240.531 322.914 272.418 344.977 288.714C383.571 317.22 448.451 289.967 486.326 274.039C486.195 272.35 486.57 272.969 485.523 271.949C481.8 271.824 463.966 280.276 458.722 282.336C427.443 294.624 370.546 310.345 343.534 283.46C336.674 276.633 333.877 266.546 334.291 256.964C335.134 237.499 348.643 221.118 362.766 208.815C380.125 193.692 404.472 180.098 426.852 174.686C431.204 173.633 434.973 172.802 440.01 172.117C444.764 171.47 451.543 170.787 456.49 170.375C456.711 170.143 456.932 169.91 457.153 169.678C456.693 168.115 457.115 168.771 455.717 167.73L454.367 167.739ZM525.291 169.71C508.297 171.067 492.027 172.629 475.356 176.497C446 183.309 417.437 195.746 393.374 214.016C380.744 223.606 361.34 244.668 359.9 261.361L360.804 261.813C363.929 258.227 364.487 253.824 366.354 249.611C367.589 246.821 369.489 243.521 371.254 241.037C387.248 218.521 409.95 204.589 434.373 193.229C495.447 166.721 574.826 164.646 636.866 189.077C639.317 190.042 643.872 192.137 646.275 191.78L646.573 190.986C645.023 188.93 639.769 187.192 637.275 186.214C603.228 172.866 561.68 167.008 525.291 169.71ZM562.341 192.227C506.475 193.657 446.376 209.935 405.094 250.557C402.608 253.003 395.796 260.537 395.351 263.943L395.891 264.681C398.451 264.605 401.808 258.38 403.829 256.157C435.515 221.294 487.988 202.061 533.877 196.766C584.996 190.32 638.111 199.58 683.69 224.159C693.847 229.637 709.63 243.875 717.421 247.181C714.082 241.097 708.939 238.416 703.635 234.318C666.274 205.447 609.057 190.546 562.341 192.227ZM588.342 220.717C550.239 222.952 517.58 233.918 482.598 248.736C458.955 258.75 434.916 269.884 409.576 274.657C405.24 275.473 396.879 274.626 393.317 275.943L393.064 276.904C395.312 279.949 405.342 277.991 408.851 277.43C437.046 272.916 462.847 259.774 489.049 249.137C504.141 243.087 528.261 233.769 544.179 230.31C606.833 214.036 669.186 227.877 718.294 269.372C721.83 272.36 725.468 278.123 729.702 279.415L730.113 278.911C728.555 275.555 724.105 271.092 721.429 268.541C703.753 251.691 680.584 240.005 657.789 231.609C637.258 224.047 610.25 219.515 588.342 220.717ZM325.476 224.414C308.53 251.642 310.425 283.515 337.468 303.855C337.906 304.186 338.852 304.205 339.389 304.233C339.281 301.063 335.44 298.496 333.079 296.19C314.105 277.66 313.029 251.662 326.211 229.407C328.001 226.385 328.417 226.421 325.476 224.414ZM581.935 242.705C559.312 244.576 539.503 249.064 518.629 258.15C515.88 259.347 506.594 261.951 507.406 265.144C509.495 265.788 515.321 262.405 517.755 261.345C543.113 250.3 568.673 244.654 596.409 245.377C616.217 245.907 633.631 249.292 651.535 257.814C655.235 259.575 665.254 266.306 668.478 266.098L668.883 265.466C667.077 261.34 647.785 253.106 642.592 250.985C627.288 244.737 598.595 240.713 581.935 242.705ZM303.622 259.777C291.522 275.182 290.195 298.264 308.549 309.787C310.005 306.007 306.373 304.609 303.839 301.626C298.116 294.889 296.424 285.343 299.033 276.966C299.998 273.39 305.475 261.92 305.391 260.617C304.392 259.976 304.735 260.092 303.622 259.777ZM623.91 274.696C589.749 278.536 560.56 291.604 538.396 318.745C534.855 323.081 524.442 338.351 524.504 343.851L525.085 344.436C526.968 343.732 527.309 342.753 528.085 341.025C552.608 286.42 625.214 262.042 678.982 286.272C687.926 290.302 695.981 295.994 703.744 301.727C735.107 327.076 751.61 356.768 757.325 397.305C757.773 400.48 757.422 408.901 759.291 410.723L760.111 410.459C761.715 407.168 758.567 389.07 757.804 384.508C747.831 324.884 687.343 266.153 623.91 274.696ZM636.78 306.692C620.744 308.356 605.688 312.748 591.445 320.295C588.623 321.79 583.178 323.581 583.37 327.145L584.236 327.569C586.553 326.761 587.9 325.587 589.889 324.153C604.345 316.379 618.253 311.325 634.611 309.705C636.587 309.51 645.604 308.6 646.618 307.115L646.296 306.923L646.372 307.487L646.03 306.833C643.319 306.17 639.49 306.181 636.78 306.692ZM484.631 323.772C474.779 336.835 472.246 359.751 474.537 375.604C478.539 403.304 491.99 425.902 514.278 442.758C526.765 452.202 545.753 461.06 561.419 462.508L561.262 461.03C559.883 460.028 542.013 454.644 538.164 453.127C491.475 434.712 463.433 379.293 483.07 331.78C484.089 329.313 487.696 325.975 485.829 324.001L484.631 323.772ZM771.947 327.731C772.049 329.936 775.244 335.308 776.418 337.773C780.104 345.508 782.264 352.557 784.809 360.523C786.632 366.23 787.544 380.712 789.361 385.018C790.245 385.507 790.001 385.463 790.957 385.677C792.783 377.099 781.215 329.439 771.947 327.731ZM753.932 328.874C753.793 329.414 753.654 329.954 753.515 330.494C778.039 372.222 782.73 424.911 764.395 469.893C763.129 472.998 756.494 485.918 756.27 487.953C757.273 488.88 756.823 488.661 758.122 488.981C779.242 450.191 784.076 408.285 771.764 365.734C770.119 360.046 759.468 330.88 753.932 328.874ZM676.387 329.398C676.679 330.267 676.664 331.017 677.528 331.489C687.654 337.016 698.194 341.399 705.746 350.55C711.531 357.559 715.941 363.906 719.56 372.272C720.158 373.653 720.245 373.849 721.712 374.363C722.241 367.821 713.463 355.852 709.454 350.9C703.437 343.468 686.003 330.062 676.387 329.398ZM622.367 330.528C601.747 337.947 585.82 348.409 575.489 368.746C574.446 370.8 574.059 371.386 574.271 373.424L574.996 373.964L576.026 373.706C583.812 356.499 594.58 346.127 611.737 337.55C614.611 336.113 623.39 333.483 624.775 331.433L624.447 330.64C623.353 330.484 623.434 330.409 622.367 330.528ZM658.741 359.2C626.663 361.953 598.066 384.935 599.85 419.735C599.989 422.453 600.621 427.218 602.489 429.136L603.208 429.437C603.875 428.779 603.994 428.775 603.832 427.247C602.995 419.331 601.465 414.82 603.236 406.624C610.278 377.168 637.444 360.431 666.725 361.343C672.282 361.516 677.584 362.589 683.059 362.614C683.176 362.308 683.293 362.001 683.41 361.695C680.926 358.789 662.764 358.756 658.741 359.2ZM499.854 368.202C494.769 379.294 515.227 415.389 526.25 421.662C526.515 420.801 526.977 420.236 526.413 419.601C516.514 408.446 508.01 397.442 504.515 382.554C503.828 379.63 502.139 369.7 499.854 368.202ZM672.257 395.663C659.089 397.472 647.069 403.161 638.7 413.704C637.434 415.299 635.094 419.335 635.797 421.419C637.508 420.826 639.143 418.087 640.14 416.519C644.015 410.42 649.666 406.495 655.962 403.085C668.237 397.558 678.146 396.207 691.28 399.929C695.359 401.085 700.216 405.957 703.262 405.277C702.667 402.987 700.083 401.677 698.085 400.453C690.62 395.879 680.901 394.577 672.257 395.663ZM680.523 434.761C679.519 436.026 678.477 436.976 678.322 438.516L678.62 439.061C680.187 437.574 681.007 437.324 681.47 435.587L680.523 434.761ZM674.827 446.22C670.457 448.107 670.99 445.245 668.431 448.058L668.72 448.812L669.064 448.944C669.089 450.22 668.823 449.958 669.406 450.569L670.796 450.668L671.202 449.872L671.705 451.624C672.949 450.712 675.62 447.677 676.311 446.321L675.71 445.967L674.827 446.22ZM675.092 455.863L674.717 459.919C674.492 462.43 674.814 465.056 675.049 467.575C675.16 465.609 675.39 463.769 675.53 461.851C676.195 464.106 676.253 466.993 676.962 468.114C678.527 468.14 678.751 468.423 679.815 467.713L678.421 466.375C679.411 463.874 680.006 462.734 680.111 459.989L679.827 459.472C677.933 460.571 677.695 461.386 676.236 461.047C675.124 459.019 675.365 458.137 675.092 455.863ZM727.338 516.298C718.524 528.094 713.147 539.271 707.095 552.287C694.271 579.863 684.642 612.71 689.465 643.242C690.439 649.408 694.347 668.13 697.333 673.336C699.881 670.163 697.557 666.143 696.385 662.468C680.558 612.85 702.453 560.591 728.341 518.646C728.925 517.699 727.964 516.775 727.338 516.298ZM703.461 615.188C701.926 619.467 701.633 630.337 703.431 634.624L704.838 635.638C705.708 633.623 705.258 619.44 705.093 616.246C705.065 615.713 704.136 615.491 703.461 615.188Z" fill="url(#paint0_linear_2243_35175)"/>
<path d="M486.327 274.039C448.452 289.967 383.572 317.22 344.978 288.714C322.915 272.418 330.258 240.531 346.091 221.989C366.972 197.534 394.741 180.143 426.137 172.033C435.51 169.555 444.87 168.655 454.367 167.739L455.718 167.73C457.116 168.771 456.693 168.115 457.153 169.678C456.932 169.91 456.712 170.143 456.491 170.375C451.544 170.787 444.764 171.47 440.01 172.117C434.973 172.802 431.205 173.633 426.853 174.686C404.473 180.098 380.126 193.692 362.767 208.815C348.644 221.118 335.135 237.499 334.292 256.964C333.878 266.546 336.675 276.633 343.535 283.46C370.547 310.345 427.444 294.624 458.723 282.336C463.967 280.276 481.801 271.824 485.524 271.949C486.571 272.969 486.196 272.35 486.327 274.039Z" fill="#000002"/>
<path d="M434.373 193.229C409.95 204.589 387.248 218.521 371.254 241.037C369.489 243.521 367.589 246.821 366.354 249.611C364.487 253.824 363.929 258.227 360.804 261.813L359.9 261.361C361.34 244.668 380.744 223.606 393.374 214.016C417.437 195.746 446 183.309 475.356 176.497C492.027 172.629 508.296 171.067 525.29 169.71C561.679 167.008 603.228 172.866 637.275 186.214C639.769 187.192 645.023 188.93 646.573 190.986L646.275 191.78C643.872 192.137 639.316 190.042 636.865 189.077C574.825 164.646 495.447 166.721 434.373 193.229Z" fill="#000002"/>
<path d="M533.877 196.769C487.988 202.064 435.516 221.297 403.83 256.16C401.809 258.383 398.452 264.608 395.892 264.684L395.352 263.946C395.797 260.54 402.609 253.006 405.095 250.56C446.377 209.938 506.476 193.66 562.342 192.23C609.058 190.549 666.275 205.45 703.636 234.321C708.94 238.419 714.082 241.1 717.421 247.184C709.63 243.878 693.848 229.64 683.691 224.162C638.112 199.583 584.996 190.323 533.877 196.769Z" fill="#000002"/>
<path d="M544.179 230.313C528.261 233.772 504.141 243.09 489.049 249.14C462.847 259.777 437.045 272.919 408.85 277.433C405.341 277.994 395.312 279.952 393.064 276.907L393.317 275.946C396.879 274.629 405.24 275.476 409.576 274.66C434.916 269.887 458.955 258.753 482.598 248.739C517.58 233.921 550.239 222.955 588.342 220.72C610.25 219.518 637.258 224.05 657.789 231.612C680.584 240.008 703.753 251.694 721.429 268.544C724.105 271.095 728.555 275.558 730.113 278.914L729.701 279.418C725.467 278.126 721.83 272.363 718.294 269.375C669.186 227.88 606.833 214.039 544.179 230.313Z" fill="#000002"/>
<path d="M339.389 304.233C338.852 304.205 337.907 304.186 337.469 303.855C310.426 283.515 308.53 251.642 325.476 224.414C328.417 226.421 328.002 226.385 326.212 229.407C313.03 251.662 314.106 277.66 333.08 296.19C335.441 298.496 339.281 301.063 339.389 304.233Z" fill="#000002"/>
<path d="M596.41 245.381C568.674 244.658 543.113 250.304 517.755 261.349C515.321 262.409 509.495 265.792 507.406 265.148C506.594 261.955 515.88 259.351 518.629 258.154C539.503 249.068 559.313 244.58 581.936 242.709C598.596 240.717 627.289 244.741 642.593 250.989C647.786 253.11 667.078 261.344 668.884 265.47L668.478 266.102C665.254 266.31 655.236 259.579 651.536 257.818C633.632 249.296 616.218 245.911 596.41 245.381Z" fill="#000002"/>
<path d="M164.184 329.877C163.304 311.442 150.603 284.451 147.645 265.507C146.886 260.647 144.203 255.039 146.992 250.613C150.322 251.218 152.16 254.829 153.787 257.445C172.028 286.792 194.428 312.776 218.497 337.455C221.323 340.353 229.641 347.337 229.485 351.301C226.3 353.982 201.86 348.316 196.204 347.866L195.408 347.807C209.948 369.473 222.782 393.131 238.099 414.427C240.828 418.222 243.518 422.252 245.928 426.26C246.587 428.293 246.441 428.108 245.835 429.545C245.078 429.861 244.928 430.034 244.062 429.904C238.808 429.117 137.807 343.257 132.66 335.81C132.306 334.077 132.191 334.146 132.802 332.524C141.739 329.52 153.918 334.23 164.184 329.877ZM152.365 264.252C157.379 284.389 163.27 304.005 168.695 323.986C172.814 339.158 148.69 336.192 139.634 336.064C159.094 352.292 178.354 369.711 197.437 386.443C209.02 396.599 222.588 406.917 233.273 417.484C232.043 415.214 231.043 413.249 229.551 411.127C219.512 396.612 210.348 380.927 201.128 365.856C196.833 358.833 192.176 352.04 187.894 345.028L190.527 341.696C200.532 343.736 210.263 344.57 220.514 346.72C201.975 329.955 184.907 308.332 169.485 288.565C167.147 285.569 154.108 265.29 152.365 264.252Z" fill="#8EECF5"/>
<path d="M308.551 309.787C290.197 298.264 291.524 275.182 303.624 259.777C304.737 260.092 304.394 259.976 305.393 260.617C305.477 261.92 300 273.39 299.035 276.966C296.426 285.343 298.118 294.889 303.841 301.626C306.375 304.609 310.007 306.007 308.551 309.787Z" fill="#000002"/>
<path d="M139.635 336.066C148.691 336.194 172.815 339.16 168.696 323.988C163.271 304.007 157.38 284.391 152.366 264.254C154.109 265.292 167.148 285.571 169.486 288.567C184.908 308.334 201.976 329.957 220.515 346.722C210.264 344.572 200.533 343.738 190.528 341.698L187.895 345.03C192.177 352.042 196.834 358.835 201.129 365.858C210.349 380.929 219.513 396.614 229.552 411.129C231.044 413.251 232.044 415.216 233.274 417.486C222.589 406.919 209.021 396.601 197.438 386.445C178.355 369.713 159.095 352.294 139.635 336.066Z" fill="#90DBF4"/>
<path d="M703.745 301.73C695.982 295.997 687.927 290.305 678.983 286.275C625.215 262.045 552.609 286.423 528.086 341.028C527.31 342.756 526.969 343.735 525.086 344.439L524.504 343.854C524.442 338.354 534.856 323.084 538.397 318.748C560.561 291.607 589.75 278.539 623.911 274.699C687.344 266.156 747.832 324.887 757.805 384.511C758.568 389.073 761.716 407.171 760.112 410.462L759.292 410.726C757.423 408.904 757.774 400.483 757.326 397.308C751.611 356.771 735.108 327.079 703.745 301.73Z" fill="#000002"/>
<path d="M349.425 316.518C392.502 335.214 438.901 322.713 479.373 303.023C461.027 320.73 454.978 340.825 454.478 365.984C453.884 395.943 463.377 427.17 484.57 448.948C489.872 454.396 495.432 458.3 500.678 463.3C504.304 480.947 507.064 493.733 515.558 510.024C518.905 516.445 527.919 524.831 528.882 528.908C525.887 527.591 524.594 524.469 522.122 523.069C497.567 509.165 483.535 509.929 458.636 520.798C446.86 517.445 431.476 511.096 419.65 506.954C412.585 504.48 405.667 500.904 398.106 498.435C395.616 497.558 395.225 497.638 392.517 497.558C392.342 496.376 392.401 496.729 391.865 495.611C383.531 489.666 364.404 477.424 353.952 476.214C350.864 475.857 339.372 479.637 336.926 482.011C333.472 482.187 327.459 482.216 324.429 483.487L323.998 484.279C324.875 485.519 324.862 485.405 326.299 485.97C327.85 485.862 328.238 485.825 329.822 485.474L328.801 486.48C327.364 486.298 327.543 486.384 326.049 486.566C321.991 485.036 320.108 484.583 315.983 485.978C315.747 484.743 310.106 477.652 308.621 475.194C315.816 474.208 334.926 472.206 338.475 465.995C338.1 464.796 338.146 465.238 338.184 463.978C351.347 458.671 381.079 454.401 394.678 457.624C416.843 462.877 428.002 474.878 439.884 492.908C437.732 484.407 432.907 477.932 426.809 471.775C422.363 467.287 417.284 463.446 412.307 459.572C396.08 446.942 382.947 440.562 361.958 440.443C355.192 440.404 348.453 440.918 341.756 441.868C331.344 443.345 298.996 449.984 292.411 456.924C289.008 460.51 289.384 464.898 289.501 469.473C288.664 469.281 289.085 469.479 288.323 468.723C286.955 444.56 301.475 400.644 310.401 377.893C314.279 368.008 322.135 353.22 327.759 344.058C333.455 334.779 342.463 324.929 349.425 316.518Z" fill="#74ECC9"/>
<path d="M589.889 324.156C587.9 325.59 586.552 326.764 584.235 327.572L583.37 327.148C583.178 323.584 588.623 321.793 591.445 320.298C605.688 312.751 620.743 308.359 636.779 306.695C639.489 306.184 643.319 306.173 646.03 306.836L646.372 307.49L646.295 306.926L646.618 307.118C645.604 308.603 636.587 309.513 634.611 309.708C618.253 311.328 604.345 316.382 589.889 324.156Z" fill="#000002"/>
<path d="M334.812 308.422C340.136 312.055 343.558 313.795 349.424 316.518C342.462 324.929 333.454 334.779 327.758 344.058C322.134 353.22 314.278 368.008 310.4 377.893C301.474 400.644 286.954 444.56 288.322 468.723C289.084 469.479 288.663 469.281 289.5 469.473C290.877 470.66 291.91 471.582 293.193 472.866C290.838 474.165 288.532 475.446 286.128 476.659L286.09 476.037L285.211 476.1C282.206 471.683 278.887 454.114 278.292 448.143C278.123 446.455 277.734 445.646 276.313 444.609L275.47 444.879C274.111 449.229 276.699 463.77 277.486 468.745C268.776 460.108 264.291 455.841 266.886 442.309C269.136 430.58 272.767 418.848 275.988 407.308C282.004 385.752 287.564 363.572 296.182 342.9C302.79 327.888 319.357 313.753 334.812 308.422Z" fill="#F1F2E9"/>
<path d="M561.419 462.509C545.753 461.061 526.764 452.203 514.277 442.759C491.989 425.903 478.539 403.305 474.537 375.605C472.246 359.752 474.779 336.836 484.631 323.773L485.828 324.002C487.695 325.976 484.088 329.314 483.069 331.781C463.432 379.294 491.475 434.713 538.164 453.128C542.013 454.645 559.882 460.029 561.261 461.031L561.419 462.509Z" fill="#000002"/>
<path d="M790.957 385.68C790.001 385.466 790.245 385.51 789.361 385.021C787.544 380.715 786.632 366.233 784.809 360.526C782.264 352.56 780.104 345.511 776.418 337.776C775.244 335.311 772.049 329.939 771.947 327.734C781.215 329.442 792.783 377.102 790.957 385.68Z" fill="#000002"/>
<path d="M758.123 488.982C756.824 488.662 757.273 488.881 756.27 487.954C756.494 485.919 763.13 472.999 764.396 469.894C782.731 424.912 778.04 372.223 753.516 330.495C753.655 329.955 753.794 329.415 753.933 328.875C759.469 330.881 770.12 360.047 771.765 365.735C784.077 408.286 779.243 450.192 758.123 488.982Z" fill="#000002"/>
<path d="M721.713 374.363C720.246 373.849 720.159 373.653 719.561 372.272C715.942 363.906 711.532 357.559 705.747 350.55C698.195 341.399 687.655 337.016 677.529 331.489C676.665 331.017 676.679 330.267 676.387 329.398C686.003 330.062 703.438 343.468 709.455 350.9C713.464 355.852 722.242 367.821 721.713 374.363Z" fill="#000002"/>
<path d="M576.028 373.709L574.998 373.967L574.273 373.427C574.061 371.389 574.448 370.803 575.491 368.749C585.822 348.412 601.749 337.95 622.369 330.531C623.436 330.412 623.355 330.487 624.449 330.643L624.776 331.436C623.391 333.486 614.613 336.116 611.739 337.553C594.582 346.13 583.814 356.502 576.028 373.709Z" fill="#000002"/>
<path d="M100.374 352.703C101.237 352.853 103.265 353.21 103.855 353.81C108.734 358.78 112.53 364.886 116.982 370.25C130.93 387.052 147.65 401.274 165.924 413.172C168.383 414.773 174.806 418.307 175.909 420.703C174.773 425.392 165.818 425.665 161.559 426.332C175.16 438.537 187.978 450.152 201.944 461.95C211.455 469.823 221.063 478.557 230.602 486.482C231.785 487.464 231.611 487.836 231.555 489.104C227.623 492.291 209.074 480.367 204.42 477.754C172.128 459.625 134.663 447.525 105.158 425.311C100.328 421.674 123.851 414.054 126.311 413.003C117.056 399.851 104.184 373.081 99.5669 357.183C98.8842 354.832 99.2496 354.428 100.374 352.703ZM106.481 364.349C112.399 378.398 120.051 392.242 127.268 405.696C128.983 408.894 130.337 411.302 131.108 414.899C129.159 418.013 115.45 422.184 111.412 423.592C127.741 436.804 159.281 449.222 178.725 458.996C188.825 464.072 197.959 469.212 207.822 474.746L209.077 475.456L209.662 475.241C207.773 472.754 200.252 467.502 197.367 465.045C182.706 452.561 168.979 438.891 153.917 426.93C152.681 425.949 151.427 423.678 153.15 422.055C157.573 420.026 163.458 420.566 168.447 419.62C150.007 408.687 137.487 399.431 122.283 383.842C118.37 379.83 109.562 365.857 106.481 364.349Z" fill="#F9DE24"/>
<path d="M603.237 406.624C601.466 414.82 602.996 419.331 603.833 427.247C603.995 428.775 603.876 428.779 603.209 429.437L602.49 429.136C600.622 427.218 599.99 422.453 599.851 419.735C598.067 384.935 626.664 361.953 658.742 359.2C662.765 358.756 680.927 358.789 683.411 361.695C683.294 362.001 683.177 362.308 683.06 362.614C677.585 362.589 672.283 361.516 666.726 361.343C637.445 360.431 610.279 377.168 603.237 406.624Z" fill="#000002"/>
<path d="M111.413 423.591C115.451 422.183 129.16 418.012 131.109 414.898C130.338 411.301 128.984 408.893 127.269 405.695C120.052 392.241 112.4 378.397 106.482 364.348C109.563 365.856 118.371 379.829 122.284 383.841C137.488 399.43 150.008 408.686 168.448 419.619C163.459 420.565 157.574 420.025 153.151 422.054C151.428 423.677 152.682 425.948 153.918 426.929C168.98 438.89 182.707 452.56 197.368 465.044C200.253 467.501 207.774 472.753 209.663 475.24L209.078 475.455L207.823 474.745C197.96 469.211 188.826 464.071 178.726 458.995C159.282 449.221 127.742 436.803 111.413 423.591Z" fill="#FBF7F0"/>
<path d="M526.251 421.663C515.228 415.39 494.769 379.295 499.854 368.203C502.139 369.701 503.829 379.631 504.516 382.555C508.011 397.443 516.515 408.447 526.414 419.602C526.978 420.237 526.516 420.802 526.251 421.663Z" fill="#000002"/>
<path d="M655.962 403.087C649.666 406.497 644.015 410.422 640.14 416.521C639.143 418.089 637.508 420.828 635.797 421.421C635.094 419.337 637.434 415.301 638.7 413.706C647.069 403.163 659.089 397.474 672.257 395.665C680.901 394.579 690.62 395.881 698.085 400.455C700.083 401.679 702.667 402.989 703.262 405.279C700.216 405.959 695.358 401.087 691.279 399.931C678.145 396.209 668.237 397.56 655.962 403.087Z" fill="#000002"/>
<path d="M672.318 426.19C669.267 428.729 667.38 430.314 667.784 434.467C666.325 438.177 670.049 438.47 665.814 442.552L665.133 442.474C664.561 440.652 664.59 440.687 664.584 438.76L665.509 438.455C666.395 436.52 664.863 432.108 666.084 430.157C667.25 428.293 670.003 424.238 672.318 426.19Z" fill="#F6E0EC"/>
<path d="M667.785 434.465C667.381 430.312 669.268 428.727 672.319 426.188C674.386 426.771 674.549 426.75 676.112 428.133L676.183 429.112C672.656 432.122 671.924 429.927 667.785 434.465Z" fill="#F1C0E8"/>
<path d="M694.654 439.32C695.936 438.466 696.033 438.658 697.636 438.749L698.082 437.682C697.453 436.278 697.125 436.075 696.085 434.955L696.361 434.183L697.247 433.859C698.492 434.911 698.858 437.416 699.292 439.134C696.998 447.538 693.617 453.713 691.673 460.499C689.817 461.869 688.604 463.047 686.375 463.509C686.325 462.218 687.427 461.804 688.042 460.685C688.158 460.473 687.944 458.814 688.299 458.257L689.555 459.785C690.527 459.109 690.23 459.562 690.488 458.454L689.206 457.483C690.022 456.859 690.199 456.846 691.137 456.395C692.287 454.486 692.279 454.8 691.219 452.805C692.778 451.201 694.38 450.33 694.903 448.473C694.486 446.933 693.773 446.783 693.452 445.665L694.758 445.335L695.051 444.551L693.967 443.102C693.92 441.575 694.245 440.772 694.654 439.32Z" fill="#F8A4CC"/>
<path d="M678.62 439.062L678.322 438.517C678.477 436.977 679.519 436.027 680.523 434.762L681.47 435.588C681.007 437.325 680.187 437.575 678.62 439.062Z" fill="#F8A4CC"/>
<path d="M681.802 458.823C683.407 457.224 684.163 456.587 685.37 454.712L684.695 454.007C682.961 453.92 683.502 453.954 681.727 455.206L681.326 454.977C681.708 452.92 681.268 453.809 682.779 452.257C682.556 451.028 681.717 450.106 680.963 448.979C682.056 445.788 683.529 439.715 685.877 438.06C689.802 437.96 689.919 439.224 690.322 442.255L690.147 443.37L690.784 443.956C692.494 443.779 692.419 443.823 693.967 443.102L695.051 444.551L694.758 445.335L693.452 445.665C692.395 446.917 691.997 445.898 691.48 448.063C689.764 455.242 687.949 456.299 681.802 458.823Z" fill="#F1C0E8"/>
<path d="M690.322 442.254C691.219 440.476 691.649 438.906 693.661 438.574L694.654 439.319C694.245 440.771 693.919 441.574 693.966 443.101C692.418 443.822 692.494 443.778 690.784 443.955L690.146 443.369L690.322 442.254Z" fill="#F1C0E8"/>
<path d="M289.501 469.473C289.384 464.898 289.008 460.51 292.411 456.924C298.996 449.984 331.344 443.345 341.756 441.868C348.453 440.918 355.192 440.404 361.958 440.443C382.947 440.562 396.08 446.942 412.307 459.572C417.284 463.446 422.363 467.287 426.809 471.775C432.907 477.932 437.732 484.407 439.884 492.908C428.002 474.878 416.843 462.877 394.678 457.624C381.079 454.401 351.347 458.671 338.184 463.978C338.146 465.238 338.1 464.796 338.475 465.995C334.926 472.206 315.816 474.208 308.621 475.194C306.88 475.437 304.579 475.548 303.133 476.317L303.546 478.212L302.891 478.187C302.325 477.13 302.02 476.007 301.177 475.696C301.163 477.043 300.97 477.258 300.13 478.258C296.815 482.2 300.337 487.792 300.698 493C300.681 494.884 300.873 496.315 300.032 497.967L298.698 499.035C297.766 495.734 297.567 492.633 297.497 489.24C297.327 488.515 296.477 486.405 296.109 485.901C293.7 482.607 296.346 479.125 294.054 476.655C292.592 476.576 290.292 477.909 288.481 478.582C286.863 478.264 287.408 478.424 286.129 476.659C288.533 475.446 290.839 474.165 293.194 472.866C291.911 471.582 290.878 470.66 289.501 469.473ZM355.339 443.881C344.06 444.3 302.653 450.853 295.224 459.076C293.725 460.735 292.869 462.915 293.067 465.161C293.244 467.173 294.307 469.025 295.905 470.251C298.861 472.519 302.93 472.017 306.374 471.38C315.601 469.672 324.498 465.043 333.349 461.927C343.702 458.283 355.091 456.087 365.939 454.499C380.053 452.287 387.944 452.704 401.847 455.592C388.999 446.315 370.914 442.592 355.339 443.881Z" fill="#000002"/>
<path d="M355.338 443.88C370.913 442.591 388.998 446.314 401.846 455.591C387.943 452.703 380.052 452.286 365.938 454.498C365.698 452.202 365.077 450.59 364.382 448.404C361.026 445.91 359.413 443.986 355.338 443.88Z" fill="#98F5E1"/>
<path d="M365.937 454.501C355.089 456.089 343.7 458.285 333.347 461.929C324.496 465.045 315.599 469.674 306.372 471.382C302.928 472.019 298.859 472.521 295.903 470.253C294.305 469.027 293.242 467.175 293.065 465.163C292.867 462.917 293.723 460.737 295.222 459.078C302.651 450.855 344.058 444.302 355.337 443.883C359.412 443.989 361.025 445.913 364.381 448.407C365.076 450.593 365.697 452.205 365.937 454.501Z" fill="#F1F2E9"/>
<path d="M670.797 450.67L669.408 450.571C668.825 449.96 669.091 450.222 669.066 448.946L668.722 448.814L668.432 448.06C670.991 445.247 670.459 448.109 674.829 446.222L675.712 445.969L676.313 446.323C675.622 447.679 672.951 450.714 671.707 451.626L671.203 449.874L670.797 450.67Z" fill="#F1C0E8"/>
<path d="M676.964 468.114C676.255 466.993 676.197 464.106 675.532 461.851C675.392 463.769 675.162 465.609 675.051 467.575C674.816 465.056 674.494 462.43 674.719 459.919L675.094 455.863C675.367 458.137 675.126 459.019 676.238 461.047C677.697 461.386 677.934 460.571 679.828 459.472L680.113 459.989C680.008 462.734 679.412 463.874 678.422 466.375L679.817 467.713C678.753 468.423 678.529 468.14 676.964 468.114Z" fill="#F1C0E8"/>
<path d="M297.497 489.239C297.567 492.632 297.766 495.733 298.698 499.034C292.404 509.57 288.122 541.544 290.465 553.505C289.229 554.133 288.517 554.303 287.957 555.545L288.631 556.536C294.094 557.473 296.864 555.88 303.026 557.79C315.129 561.543 326.654 572.047 334.474 581.717C346.569 596.671 352 614.537 368.113 626.675C370.149 628.209 373.336 630.675 376.035 629.992L376.336 629.132C375.25 627.025 369.247 623.272 366.868 621.14C357.407 612.662 352.294 602.556 345.702 591.868C338.921 580.873 329.541 570.006 319.084 562.216C320.394 556.756 322.794 553.14 327.329 550.021C348.593 548.327 362.951 553.709 362.89 524.12C361.995 522.476 358.845 521.661 357.012 520.989L357.647 519.745C356.775 518.777 357.18 519.26 356.427 518.301C358.078 518.235 357.992 518.436 359.339 517.752L358.635 516.463C356.166 515.105 352.636 514.445 349.852 514.758C348.421 514.414 343.949 512.249 342.358 511.52C349.138 512.384 361.11 513.405 366.91 509.368C367.409 508.926 367.054 509.175 368.111 508.874C372.732 510.873 378.907 516.609 383.605 519.392C395.434 526.399 408.265 531.791 420.704 537.63C423.407 538.899 433.899 543.824 436.212 544.349C424.464 567.567 427.796 594.535 444.547 614.38C450.601 621.553 458.523 625.87 467.073 629.334C501.343 643.25 539.061 623.97 548.902 588.588C551.907 577.782 549.998 564.204 546.938 553.602C544.24 544.251 537.18 537.406 531.284 530.075C531.174 529.863 531.063 529.651 530.953 529.439C531.091 529.397 531.23 529.357 531.367 529.312C535.48 527.961 539.429 524.719 542.613 521.856C566.404 500.459 573.946 467.39 610.234 460.449C618.663 458.836 627.494 459.31 635.305 463.092C645.796 468.171 652.125 479.528 655.702 490.183C663.924 514.68 657.65 543.085 646.377 565.512C637.26 583.652 607.089 629.713 587.877 635.784C582.321 637.54 576.934 636.46 571.942 633.613C566.257 630.371 561.73 624.981 559.495 618.893C558.97 617.462 558.646 615.799 556.926 615.676C556.679 616.044 556.433 616.411 556.186 616.779C555.891 641.253 557.001 666.581 549.812 690.286C547.953 696.417 542.544 706.176 537.528 710.293C528.781 717.474 517.609 722.671 507.868 728.495C477.321 745.479 445.919 762.213 413.618 775.599C402.061 780.388 390.914 784.97 378.583 787.395C372.741 788.545 354.553 791.138 349.108 789.223L349.308 788.645C348.326 787.21 342.745 784.877 340.383 783.195C330.526 776.178 324.688 762.358 326.812 750.497C328.542 740.841 332.105 741.661 329.394 730.562C326.881 720.276 314.915 705.09 313.786 696.828C322.886 692.069 331.76 688.119 341.625 685.15C345.897 683.865 351.686 683.52 355.487 681.989C354.7 681.203 353.037 681.259 351.631 681.056C352.485 674.59 365.23 672.676 365.587 664.647C368.438 663.687 373.91 662.495 372.952 658.742C370.277 656.721 364.183 658.664 360.801 658.279C344.916 656.473 326.074 648.416 311.827 641.198C310.876 639.04 293.624 632.719 289.025 629.424C294.996 614.022 283.914 607.664 273.091 600.818C271.286 597.373 262.58 592.59 260.565 585.916C256.024 569.723 265.053 551.42 271.337 536.673C275.998 525.735 282.241 514.919 287.028 503.959C289.035 499.365 292.757 491.034 297.497 489.239ZM614.134 471.194C580.954 473.995 569.653 510.917 571.746 539.384C572.521 549.929 578.893 561.431 571.601 570.11C567.806 574.628 553.46 583.911 556.798 590.181C560.89 593.517 567.953 590.767 571.666 588.327C583.993 580.227 596.242 578.33 609.706 574.154C618.959 571.284 622.365 556.937 620.234 548.525C615.809 526.679 587.004 530.389 578.302 512.612C577.622 511.224 578.597 506.932 579.807 506.328C588.59 501.944 607.498 488.033 616.084 496.995C618.473 499.489 620.47 506.461 621.627 507.058C624.884 504.972 621.254 497.024 619.029 494.901C609.593 485.898 593.452 494.716 584.052 499.845L582.059 501.004L581.368 500.816C581.466 498.133 584.497 494.252 585.926 491.993C592.124 482.198 601.926 475.08 613.745 474.5C642.353 473.095 647.242 503.767 645.276 525.657C644.122 539.847 640.759 550.393 633.99 563.006C629.785 570.842 625.049 577.904 618.273 583.808C613.376 588.163 608.822 588.703 602.932 590.748C590.504 595.62 600.381 606.825 610.807 600.269L611.194 599.38C609.306 597.794 603.796 599.03 600.684 597.197L600.681 596.355C604.262 592.913 612.231 592.638 617.5 588.424C637.409 572.503 648.338 544.609 648.899 519.662C649.418 496.597 642.223 471.484 614.666 471.195L614.134 471.194ZM323.333 576.634C323.141 590.824 324.162 596.376 308.499 601.457C303.792 593.855 299.691 588.651 290.246 586.36C284.626 584.997 275.362 585.213 270.347 588.128L269.596 589.254L269.909 590.811C277.8 593.76 290.06 594.045 298.69 594.043L299.202 594.487C301.631 596.64 306.459 604.828 308.614 604.501C319.438 602.857 327.81 593.519 326.759 582.332C326.551 580.006 325.836 577.237 323.333 576.634Z" fill="#74ECC9"/>
<path d="M686.826 474.288C687.872 472.098 688.396 469.868 689.019 467.536C687.945 467.249 688.318 467.306 687.209 467.355C687.605 465.947 688.06 465.814 689.225 464.877L690.428 464.621C692.991 466.632 690.336 465.786 691.634 467.14C692.847 468.406 692.742 465.956 693.496 469.006C692.681 472.401 691.242 473.421 690.055 476.51C689.125 478.933 689.95 482.731 688.545 484.776C687.944 480.902 688.023 477.523 689.008 473.684C689.288 472.595 690.879 472.378 691.72 469.493L691.163 468.64C687.676 471.908 688.482 476.939 686.439 478.768L685.778 478.539C685.451 476.013 686.617 478.563 686.826 474.288Z" fill="#F8A4CC"/>
<path d="M531.09 525.922C512.331 505.561 509.879 490.905 503.799 464.773C507.56 466.54 512.26 470.393 516.863 472.483C534.246 480.378 551.474 482.496 570.304 481.646C567.756 484.315 562.497 492.011 560.548 492.709C557.879 491.45 556.643 491.76 553.855 491.956C545.306 492.557 536.284 490.838 529.168 485.88C527.573 484.768 525.109 483.207 523.268 482.687C522.73 482.535 522.52 482.995 522.172 483.325C523.35 486.592 531.432 490.425 534.467 491.963C543.102 495.487 550.928 495.185 560.069 494.461C552.52 506.892 544.155 518.818 531.09 525.922Z" fill="#F8A4CC"/>
<path d="M678.775 478.888C679.992 476.824 680.037 475.462 681.014 473.085C682.635 472.846 682.22 473.054 683.612 472.363L682.445 470.446C682.857 469.97 683.136 469.832 683.672 469.523L684.005 467.914L684.608 468.296C686.139 471.132 685.192 472.649 686.826 474.287C686.617 478.562 685.451 476.012 685.778 478.538L686.439 478.767C688.482 476.938 687.676 471.907 691.163 468.639L691.72 469.492C690.879 472.377 689.288 472.594 689.008 473.683C688.023 477.522 687.944 480.901 688.545 484.775L688.095 484.919C685.738 485.345 683.267 485.747 680.935 486.249L681.8 483.889L681.744 482.224C680.161 480.98 679.831 480.606 678.775 478.888Z" fill="#F1C0E8"/>
<path d="M584.05 499.846C593.45 494.717 609.591 485.899 619.027 494.902C621.252 497.025 624.882 504.973 621.625 507.059C620.468 506.462 618.471 499.49 616.082 496.996C607.496 488.034 588.588 501.945 579.805 506.329C578.595 506.933 577.62 511.225 578.3 512.613C587.002 530.39 615.807 526.68 620.232 548.526C622.363 556.938 618.957 571.285 609.704 574.155C596.24 578.331 583.991 580.228 571.664 588.328C567.951 590.768 560.888 593.518 556.796 590.182C553.458 583.912 567.804 574.629 571.599 570.111C578.891 561.432 572.519 549.93 571.744 539.385C569.651 510.918 580.952 473.996 614.132 471.195L614.664 471.196C642.221 471.485 649.416 496.598 648.897 519.663C648.336 544.61 637.407 572.504 617.498 588.425C612.229 592.639 604.26 592.914 600.679 596.356L600.682 597.198C603.794 599.031 609.304 597.795 611.192 599.381L610.805 600.27C600.379 606.826 590.502 595.621 602.93 590.749C608.82 588.704 613.374 588.164 618.271 583.809C625.047 577.905 629.783 570.843 633.988 563.007C640.757 550.394 644.12 539.848 645.274 525.658C647.24 503.768 642.351 473.096 613.743 474.501C601.924 475.081 592.122 482.199 585.924 491.994C584.495 494.253 581.464 498.134 581.366 500.817L582.057 501.005L584.05 499.846ZM576.22 517.451C574.562 527.693 572.783 540.134 579.394 548.744C580.994 550.828 587.713 557.95 587.887 558.74C586.844 560.183 587.505 559.783 586.006 560.22C582.544 559.249 579.54 554.637 577.779 551.697C578.589 556.818 579.593 564.441 576.456 569.24C572.965 574.578 562.556 581.289 560.588 586.99L560.853 588.046C564.036 589.04 571.367 584.98 574.258 583.467L574.678 583.247C587.472 576.354 596.166 574.916 609.329 570.678C618.102 567.853 619.977 550.09 614.907 543.524C608.013 532.211 592.576 530.618 582.267 523.559C580.841 522.585 577.435 518.81 576.22 517.451Z" fill="#000002"/>
<path d="M810.735 560.821C814.19 551.927 817.805 543.084 821.835 534.432C826.648 524.097 849.77 478.262 857.986 474.75C858.172 474.671 858.374 474.635 858.567 474.578C859.294 475.12 859.645 475.13 859.593 475.94C859.184 482.344 856.676 489.884 855.814 496.482C853.254 516.06 848.983 546.645 851.975 565.892C869.596 558.798 879.969 548.565 892.891 535.291C893.999 534.153 895.192 533.658 896.739 534.01C898.417 537.745 891.719 552.714 890.132 557.887C884.875 575.023 880.715 597.066 873.119 613.069C869.108 620.946 859.863 640.696 853.129 645.426L852.559 645.141C852.731 641.512 856.729 635.118 858.719 631.938C863.245 624.709 866.653 617.849 870.051 610.035C877.539 592.895 883.176 563.996 889.704 545.116C882.292 550.536 860.228 571.546 850.817 568.32C846.177 564.798 847.58 553.501 847.458 547.928C847.071 530.196 849.293 512.653 852.388 495.235C852.798 492.925 854.543 488.573 853.687 486.653L852.928 486.669C849.528 490.397 845.988 497.452 843.267 501.909C830.965 522.061 822.896 542.129 813.891 563.712L813.379 563.647C812.615 563.095 811.436 562.026 810.676 561.381L810.735 560.821Z" fill="#F9DE24"/>
<path d="M285.211 476.098L286.09 476.035L286.128 476.657C287.407 478.422 286.862 478.262 288.48 478.58C290.291 477.907 292.591 476.574 294.053 476.653C296.345 479.123 293.699 482.605 296.108 485.899C296.476 486.403 297.326 488.513 297.496 489.238C292.756 491.033 289.034 499.364 287.027 503.958C282.24 514.918 275.997 525.734 271.336 536.672C265.052 551.419 256.023 569.722 260.564 585.915C262.579 592.589 271.285 597.372 273.09 600.817C261.621 596.149 244.65 592.635 240.386 579.153C236.889 568.097 246.259 560.859 251.262 552.137C261.958 533.492 272.301 514.713 284.193 496.775C289.381 488.948 287.514 484.271 285.211 476.098Z" fill="#FBF7F0"/>
<path d="M300.697 493.001C300.336 487.793 296.814 482.201 300.129 478.259C300.969 477.259 301.162 477.044 301.176 475.697C302.019 476.008 302.324 477.131 302.89 478.188L303.545 478.213L303.132 476.318C304.578 475.549 306.879 475.438 308.62 475.195C310.105 477.653 315.746 484.744 315.982 485.979L317.439 487.782L321.954 493.257C319.315 492.789 317.146 492.21 314.501 492.547C313.653 493.349 313.819 492.888 313.636 493.833C314.647 496.128 314.93 495.742 316.797 497.167L319.22 499.701L319.278 500.584L319.422 502.742C317.82 506.476 313.451 511.255 310.585 514.17C307.611 507.949 305.756 501.052 302.217 495.209C301.817 494.547 301.205 493.912 300.697 493.001Z" fill="#FBF7F0"/>
<path d="M336.926 482.012C339.372 479.638 350.864 475.858 353.952 476.215C364.404 477.425 383.531 489.667 391.865 495.612C392.401 496.73 392.342 496.377 392.517 497.559C374.943 497.916 366.03 489.775 349.966 484.17C345.785 482.711 341.318 482.345 336.926 482.012Z" fill="#D6F5D6"/>
<path d="M678.776 478.887C679.832 480.605 680.162 480.979 681.745 482.223L681.801 483.888C680.253 483.794 679.922 483.445 678.452 482.78C677.183 483.064 677.671 482.72 676.971 483.786C677.056 485.014 677.206 485.617 676.849 486.786L675.977 486.695C674.604 485.198 674.893 486.021 674.672 484.321C675.548 482.076 677.122 480.692 678.776 478.887Z" fill="#F6E0EC"/>
<path d="M329.822 485.475C328.238 485.826 327.85 485.863 326.299 485.971C324.862 485.406 324.875 485.52 323.998 484.28L324.429 483.488C327.459 482.217 333.472 482.188 336.926 482.012C341.318 482.345 345.785 482.711 349.966 484.17C366.03 489.775 374.943 497.916 392.517 497.559C395.225 497.639 395.616 497.559 398.106 498.436C393.406 499.981 389.277 501.132 384.522 502.398C383.723 502.545 382.197 502.771 381.495 503.02C376.718 503.072 370.6 502.404 366.133 502.586C351.069 503.196 341.423 503.525 326.475 500.126C322.332 496.244 319.478 494.718 313.637 493.833C313.82 492.888 313.654 493.349 314.502 492.547C317.147 492.21 319.316 492.789 321.955 493.257L317.44 487.782C319.01 488.048 322.102 488.941 323.088 488.34C325.517 489.277 328.765 488.824 331.277 488.322C343.42 489.255 361.798 494.848 374.087 497.446C368.586 494.767 362.899 492.792 357.43 489.928C348.979 485.503 339.329 483.12 329.822 485.475ZM330.433 493.877L330.367 492.397C329.046 490.151 325.859 489.083 324.72 491.972L325.528 492.418C332.41 497.176 348.814 501.71 357.072 499.423C350.59 496.259 334.561 496.219 330.433 493.877Z" fill="#000002"/>
<path d="M329.822 485.475C339.329 483.12 348.979 485.503 357.43 489.928C362.899 492.792 368.586 494.767 374.087 497.446C361.798 494.848 343.42 489.255 331.277 488.322C329.748 487.904 329.841 487.75 328.801 486.481L329.822 485.475Z" fill="#FBF7F0"/>
<path d="M315.982 485.978C320.107 484.583 321.99 485.036 326.048 486.566C325.183 488.092 325.344 487.621 323.087 488.339C322.101 488.94 319.009 488.047 317.439 487.781L315.982 485.978Z" fill="#000002"/>
<path d="M680.935 486.248C683.267 485.746 685.738 485.344 688.095 484.918C686.716 486.494 683.254 487.32 681.213 487.434L680.764 486.91L680.935 486.248Z" fill="#F8A4CC"/>
<path d="M813.891 563.711C822.896 542.128 830.965 522.06 843.267 501.908C845.988 497.451 849.528 490.396 852.928 486.668L853.687 486.652C854.543 488.572 852.798 492.924 852.388 495.234C849.293 512.652 847.071 530.195 847.458 547.927C847.58 553.5 846.177 564.797 850.817 568.319C860.228 571.545 882.292 550.535 889.704 545.115C883.176 563.995 877.539 592.894 870.051 610.034C865.683 605.518 857.106 599.013 851.999 595.011L826.391 574.743C823.429 572.366 815.772 566.508 813.891 563.711Z" fill="#D6F5D6"/>
<path d="M326.049 486.566C327.543 486.384 327.364 486.298 328.801 486.48C329.841 487.749 329.748 487.903 331.277 488.321C328.765 488.823 325.517 489.276 323.088 488.339C325.345 487.621 325.184 488.092 326.049 486.566Z" fill="#3B3F43"/>
<path d="M659.205 486.914C662.945 489.127 672.31 507.761 673.103 513.041C673.434 515.24 674.319 519.269 675.617 520.999C670.879 525.185 666.212 530.339 661.827 534.952C664.355 518.661 664.474 502.669 659.205 486.914Z" fill="#F8A4CC"/>
<path d="M325.527 492.418L324.719 491.972C325.858 489.083 329.045 490.151 330.366 492.397L330.432 493.877L325.527 492.418Z" fill="#000002"/>
<path d="M325.527 492.418L330.432 493.877C334.56 496.219 350.589 496.259 357.071 499.423C348.813 501.71 332.409 497.176 325.527 492.418Z" fill="#FBF7F0"/>
<path d="M300.697 493C301.205 493.911 301.817 494.546 302.217 495.208C305.756 501.051 307.611 507.948 310.585 514.169C313.451 511.254 317.82 506.475 319.422 502.741C327.283 512.434 350.69 523.341 362.889 524.121C362.95 553.71 348.592 548.328 327.328 550.022C322.793 553.141 320.393 556.757 319.083 562.217C310.222 555.794 301.451 552.425 290.464 553.506C288.121 541.545 292.403 509.571 298.697 499.035L300.031 497.967C300.872 496.315 300.68 494.884 300.697 493Z" fill="#FBF8CC"/>
<path d="M313.637 493.832C319.478 494.717 322.332 496.243 326.475 500.125L325.321 500.983C322.747 498.467 320.425 497.097 316.798 497.166C314.931 495.741 314.648 496.127 313.637 493.832Z" fill="#BCCAC8"/>
<path d="M316.797 497.167C320.424 497.098 322.746 498.468 325.32 500.984C335.666 508.184 344.387 508.415 356.727 509.454C360.553 510.213 363.097 510.163 366.909 509.37C361.109 513.407 349.137 512.386 342.357 511.522C343.948 512.251 348.42 514.416 349.851 514.76L350.149 516.151C342.451 514.378 333.045 510.524 326.739 505.734C324.149 503.767 321.931 501.511 319.22 499.701L316.797 497.167Z" fill="#000002"/>
<path d="M384.521 502.396C389.276 501.13 393.405 499.979 398.105 498.434C405.666 500.903 412.584 504.479 419.649 506.953C431.475 511.095 446.859 517.444 458.635 520.797C455.144 523.312 450.698 526.325 447.6 529.183C445.047 528.874 438.56 526.576 435.865 525.698C422.82 521.446 409.893 515.827 397.556 509.847C393.476 507.869 388.661 504.654 384.521 502.396Z" fill="#D6F5D6"/>
<path d="M319.221 499.699C321.932 501.509 324.15 503.765 326.74 505.732C333.046 510.522 342.452 514.376 350.15 516.149C353.811 515.94 354.982 516.014 358.635 516.463L359.339 517.752C357.992 518.436 358.078 518.235 356.427 518.301C357.18 519.26 356.775 518.777 357.647 519.745L357.012 520.989C350.274 518.326 343.05 517.033 336.6 513.379C330.239 509.774 324.542 505.646 319.279 500.582L319.221 499.699Z" fill="#BCCAC8"/>
<path d="M325.32 500.983L326.474 500.125C341.422 503.524 351.068 503.195 366.132 502.585C370.599 502.403 376.717 503.071 381.494 503.019L379.007 504.305C376.449 504.243 367.495 506.072 364.222 506.547C363.312 507.111 363.643 506.765 363.148 507.501C361.331 507.935 358.004 508.289 356.727 509.453C344.387 508.414 335.666 508.183 325.32 500.983Z" fill="#FFEDE1"/>
<path d="M319.277 500.582C324.54 505.646 330.237 509.774 336.598 513.379C343.048 517.033 350.272 518.326 357.01 520.989C358.843 521.661 361.993 522.476 362.888 524.12C350.689 523.34 327.282 512.433 319.421 502.74L319.277 500.582Z" fill="#000002"/>
<path d="M381.495 503.02C382.197 502.771 383.723 502.545 384.522 502.398C388.662 504.656 393.477 507.871 397.557 509.849C409.894 515.829 422.821 521.448 435.866 525.7C438.561 526.578 445.048 528.876 447.601 529.185C446.071 531.232 442.773 534.917 440.839 536.615C430.101 530.263 414.708 525.266 403.202 518.961C398.945 516.628 381.217 505.086 379.009 504.626L379.008 504.306L381.495 503.02Z" fill="#74ECC9"/>
<path d="M364.223 506.548C367.496 506.073 376.45 504.244 379.008 504.306L379.009 504.626C376.151 505.483 372.392 506.731 369.533 507.183C367.735 507.007 366.014 506.784 364.223 506.548Z" fill="#000002"/>
<path d="M369.531 507.182C372.39 506.73 376.149 505.482 379.007 504.625C381.215 505.085 398.943 516.627 403.2 518.96C414.706 525.265 430.099 530.262 440.837 536.614C438.914 539.029 437.335 541.456 436.21 544.35C433.897 543.825 423.405 538.9 420.702 537.631C408.263 531.792 395.432 526.4 383.603 519.393C378.905 516.61 372.73 510.874 368.109 508.875L369.531 507.182Z" fill="#D6F5D6"/>
<path d="M356.727 509.453C358.004 508.289 361.331 507.935 363.148 507.501C363.643 506.765 363.312 507.111 364.222 506.547C366.013 506.783 367.734 507.006 369.532 507.182L368.11 508.875C367.053 509.176 367.408 508.927 366.909 509.369C363.097 510.162 360.553 510.212 356.727 509.453Z" fill="#F1F2E9"/>
<path d="M458.636 520.8C483.535 509.931 497.567 509.167 522.122 523.071C524.594 524.471 525.887 527.593 528.882 528.91L530.953 529.442C531.063 529.654 531.174 529.866 531.284 530.078C537.18 537.409 544.24 544.254 546.938 553.605C549.998 564.207 551.907 577.785 548.902 588.591C539.061 623.973 501.343 643.253 467.073 629.337C458.523 625.873 450.601 621.556 444.547 614.383C427.796 594.538 424.464 567.57 436.212 544.352C437.337 541.458 438.916 539.031 440.839 536.616C442.773 534.918 446.071 531.233 447.601 529.186C450.699 526.328 455.145 523.315 458.636 520.8ZM460.496 554.007L459.834 553.841C455.794 555.973 453.363 569.064 453.325 573.803C453.077 604.891 494.699 620.924 516.095 598.58C538.595 575.083 519.187 536.832 487.386 537.997C480.178 538.261 460.802 544.749 461.811 553.109C461.256 553.991 461.657 553.644 460.496 554.007ZM486.854 523.721C472.519 524.678 454.551 531.488 448.945 545.825C457.109 540.315 466.069 532.418 475.339 529.834C524.449 516.147 560.307 580.884 516.198 611.711C494.924 626.579 464.84 620.051 450.898 598.764C447.986 594.274 446.011 589.483 444.439 584.288C442.093 572.868 442.589 566.178 446.686 554.761C447.835 551.561 449.36 550.958 447.327 548.742C445.62 549.278 444.248 551.533 443.547 553.132C433.113 576.986 442.253 605.666 465.94 617.65C506.279 638.057 552.003 602.597 537.095 558.407C530.253 538.128 508.634 521.971 486.854 523.721Z" fill="#FBF7F0"/>
<path d="M349.852 514.76C352.636 514.447 356.166 515.107 358.635 516.465C354.982 516.016 353.811 515.942 350.15 516.151L349.852 514.76Z" fill="#1F7066"/>
<path d="M697.335 673.339C694.349 668.133 690.441 649.411 689.467 643.245C684.644 612.713 694.273 579.866 707.097 552.29C713.149 539.274 718.526 528.097 727.34 516.301C727.966 516.778 728.926 517.702 728.342 518.649C702.454 560.594 680.56 612.853 696.387 662.471C697.559 666.146 699.883 670.166 697.335 673.339Z" fill="#000002"/>
<path d="M577.781 551.695C579.542 554.635 582.546 559.247 586.008 560.218C587.507 559.781 586.846 560.181 587.889 558.738C587.715 557.948 580.996 550.826 579.396 548.742C572.785 540.132 574.564 527.691 576.222 517.449C577.437 518.808 580.843 522.583 582.269 523.557C592.578 530.616 608.015 532.209 614.909 543.522C619.979 550.088 618.104 567.851 609.331 570.676C596.168 574.914 587.474 576.352 574.68 583.245L574.26 583.465C571.369 584.978 564.038 589.038 560.855 588.044L560.59 586.988C562.558 581.287 572.967 574.576 576.458 569.238C579.595 564.439 578.591 556.816 577.781 551.695Z" fill="#74ECC9"/>
<path d="M448.943 545.824C454.549 531.487 472.517 524.677 486.852 523.72C508.632 521.97 530.251 538.127 537.093 558.406C552.001 602.596 506.277 638.056 465.938 617.649C442.251 605.665 433.111 576.985 443.545 553.131C444.246 551.532 445.618 549.277 447.325 548.741C449.358 550.957 447.833 551.56 446.684 554.76C442.587 566.177 442.091 572.867 444.437 584.287C446.009 589.482 447.984 594.273 450.896 598.763C464.838 620.05 494.922 626.578 516.196 611.71C560.305 580.883 524.447 516.146 475.337 529.833C466.067 532.417 457.107 540.314 448.943 545.824Z" fill="#74ECC9"/>
<path d="M645.287 575.739C650.37 565.705 655.64 556.156 658.888 545.299C661.353 537.056 670.593 529.634 676.822 523.484C676.317 529.765 676.986 539.088 676.936 545.857C676.887 552.348 675.706 562.043 675.985 567.81L676.922 568.897C675.294 571.193 673.868 576.106 673.009 578.952C667.446 597.394 666.793 616.242 670.257 635.127C671.013 639.242 673.295 652.655 675.913 654.95L676.623 654.664C677.323 650.655 673.794 640.924 673.373 635.56C674.996 637.557 676.971 649.501 678.391 653.364C680.943 660.307 683.844 666.625 686.795 673.397C690.646 682.234 705.366 690.393 708.993 696.839C706.925 695.645 702.581 691.982 700.755 690.321C667.631 660.202 647.935 620.378 645.287 575.739Z" fill="#F8A4CC"/>
<path d="M738.261 782.456C726.635 753.442 714.232 712.284 711.738 681.344C709.133 649.036 720.743 608.859 737.703 581.587C748.683 563.932 760.559 547.177 771.245 528.754C776.805 533.327 806.814 560.81 810.733 560.823L810.674 561.383C806.499 564.316 788.287 626.618 785.541 636.525C784.513 640.233 784.176 650.937 791.038 649.211C809.754 644.503 818.709 621.233 831.773 609.651C830.816 618.47 827.775 628.408 825.801 636.969C823.325 647.699 820.415 660.066 817.583 670.354C814.708 680.797 797.451 728.008 799.762 736.643C800.521 737.287 801.326 738.177 802.47 737.871C808.165 736.35 817.922 721.036 820.343 716.66C825.066 708.123 829.002 700.335 833.747 692.057C835.61 688.806 844.403 675.522 844.993 673.882C843.193 672.396 840.798 674.309 839.633 675.809C825.689 693.769 819.551 717.345 803.308 733.508C805.52 726.181 807.26 718.789 809.505 711.462C817.681 684.767 826.737 658.376 831.944 630.87C833.055 624.996 838.977 610.379 832.867 606.739C829.39 606.5 826.35 608.516 823.604 611.487C813.265 622.672 805.925 640.737 789.982 644.829C789.432 644.97 789.166 644.22 788.868 643.763C788.778 634.072 796.436 615.798 799.553 606.048C802.573 596.605 806.028 586.579 809.16 577.117C810.044 574.446 813.583 565.549 813.377 563.649L813.889 563.714C815.77 566.511 823.427 572.369 826.389 574.746L851.997 595.014C857.104 599.016 865.681 605.521 870.049 610.037C866.651 617.851 863.243 624.711 858.717 631.94C856.727 635.12 852.729 641.514 852.557 645.143L853.127 645.428C859.861 640.698 869.106 620.948 873.117 613.071C875.727 615.352 880.786 619.311 882.928 621.485C882.984 623.403 882.859 626.408 883.618 628.03C877.017 634.043 844.604 665.387 843.541 671.163L844.078 671.909C847.553 671.998 850.636 666.631 853.005 664.252C861.032 656.192 868.317 646.586 877.321 639.6C875.947 647.293 872.503 654.206 869.978 661.491C859.694 691.158 841.782 713.921 818.708 734.699C799.098 752.359 778.17 765.703 754.12 776.613C748.885 778.987 743.291 780.278 738.261 782.456Z" fill="#F9DB9E"/>
<path d="M461.809 553.107C460.8 544.747 480.176 538.259 487.384 537.995C519.185 536.83 538.593 575.081 516.093 598.578C494.697 620.922 453.075 604.889 453.323 573.801C453.361 569.062 455.792 555.971 459.832 553.839L460.494 554.005C460.755 554.322 461.445 555.208 461.247 555.733C458.11 564.059 455.384 571.107 457.523 580.209C461.497 597.34 481.04 608.622 497.927 604.599C524.817 598.193 530.927 560.981 506.606 547.099C494.929 540.434 481.471 539.668 470.215 547.794C468.381 549.118 463.692 553.096 461.809 553.107Z" fill="#74ECC9"/>
<path d="M461.809 553.106C463.692 553.095 468.381 549.117 470.215 547.793C481.471 539.667 494.929 540.433 506.606 547.098C530.927 560.98 524.817 598.192 497.927 604.598C481.04 608.621 461.497 597.339 457.523 580.208C455.384 571.106 458.11 564.058 461.247 555.732C461.445 555.207 460.755 554.321 460.494 554.004C461.655 553.641 461.254 553.988 461.809 553.106ZM485.363 552.231C473.321 554.466 465.415 566.096 467.767 578.116C470.119 590.136 481.825 597.928 493.822 595.459C505.654 593.024 513.317 581.512 510.997 569.657C508.677 557.802 497.241 550.027 485.363 552.231Z" fill="#D6F5D6"/>
<path d="M493.823 595.461C481.826 597.93 470.12 590.138 467.768 578.118C465.416 566.098 473.322 554.468 485.364 552.233C497.242 550.029 508.678 557.804 510.998 569.659C513.318 581.514 505.655 593.026 493.823 595.461ZM484.468 556.164C474.732 558.783 468.94 568.774 471.503 578.524C474.067 588.275 484.024 594.124 493.789 591.617C503.633 589.089 509.541 579.033 506.957 569.203C504.372 559.373 494.283 553.523 484.468 556.164Z" fill="#74ECC9"/>
<path d="M319.082 562.215C329.539 570.005 338.919 580.872 345.7 591.867C352.292 602.555 357.405 612.661 366.866 621.139C369.245 623.271 375.248 627.024 376.334 629.131L376.033 629.991C373.334 630.674 370.147 628.208 368.111 626.674C351.998 614.536 346.567 596.67 334.472 581.716C326.652 572.046 315.127 561.542 303.024 557.789C296.862 555.879 294.092 557.472 288.629 556.535L287.955 555.544C288.515 554.302 289.227 554.132 290.463 553.504C301.45 552.423 310.221 555.792 319.082 562.215Z" fill="#000002"/>
<path d="M493.789 591.615C484.024 594.122 474.067 588.273 471.503 578.522C468.94 568.772 474.732 558.781 484.468 556.162C494.283 553.521 504.372 559.371 506.957 569.201C509.541 579.031 503.633 589.087 493.789 591.615ZM487.059 565.033C475.525 569.864 477.878 583.073 491.604 582.506C500.014 579.825 500.322 573.561 495.468 566.986C491.983 565.197 490.963 564.831 487.059 565.033Z" fill="#D6F5D6"/>
<path d="M831.774 609.651C818.71 621.233 809.755 644.503 791.039 649.211C784.177 650.937 784.514 640.233 785.542 636.525C788.288 626.618 806.5 564.316 810.675 561.383C811.435 562.028 812.614 563.097 813.378 563.649C813.584 565.549 810.045 574.446 809.161 577.117C806.029 586.579 802.574 596.605 799.554 606.048C796.437 615.798 788.779 634.072 788.869 643.763C789.167 644.22 789.433 644.97 789.983 644.829C805.926 640.737 813.266 622.672 823.605 611.487C826.351 608.516 829.391 606.5 832.868 606.739C838.978 610.379 833.056 624.996 831.945 630.87C826.738 658.376 817.682 684.767 809.506 711.462C807.261 718.789 805.521 726.181 803.309 733.508C819.552 717.345 825.69 693.769 839.634 675.809C840.799 674.309 843.194 672.396 844.994 673.882C844.404 675.522 835.611 688.806 833.748 692.057C829.003 700.335 825.067 708.123 820.344 716.66C817.923 721.036 808.166 736.35 802.471 737.871C801.327 738.177 800.522 737.287 799.763 736.643C797.452 728.008 814.709 680.797 817.584 670.354C820.416 660.066 823.326 647.699 825.802 636.969C827.776 628.408 830.817 618.47 831.774 609.651Z" fill="#FFCFD2"/>
<path d="M491.604 582.506C477.878 583.073 475.525 569.865 487.059 565.034C490.963 564.832 491.983 565.198 495.468 566.987C500.322 573.562 500.014 579.825 491.604 582.506ZM488.025 568.328C480.791 572.931 483.021 579.178 491.875 578.228C493.88 576.967 494.249 576.566 495.888 574.832C493.095 571.448 492.125 570.289 488.025 568.328Z" fill="#74ECC9"/>
<path d="M491.874 578.228C483.02 579.178 480.79 572.931 488.024 568.328C492.124 570.289 493.094 571.448 495.887 574.832C494.248 576.566 493.879 576.967 491.874 578.228Z" fill="#FBF7F0"/>
<path d="M673.373 635.561C673.794 640.925 677.323 650.656 676.623 654.665L675.913 654.951C673.295 652.656 671.013 639.243 670.257 635.128C666.793 616.243 667.446 597.395 673.009 578.953C673.868 576.107 675.294 571.194 676.922 568.898C677.628 569.76 678.339 570.227 678.194 571.055C677.461 575.235 675.206 579.998 674.277 584.035C670.918 598.636 670.073 614.203 672.157 629.04C672.329 630.267 672.978 634.558 673.373 635.561Z" fill="#000002"/>
<path d="M308.499 601.46C324.162 596.379 323.141 590.827 323.333 576.637C325.836 577.24 326.551 580.009 326.759 582.335C327.81 593.522 319.438 602.86 308.614 604.504C306.459 604.831 301.631 596.643 299.202 594.49L298.69 594.046C290.06 594.048 277.8 593.763 269.909 590.814L269.596 589.257L270.347 588.131C275.362 585.216 284.626 585 290.246 586.363C299.691 588.654 303.792 593.858 308.499 601.46Z" fill="#000002"/>
<path d="M642.755 578.934C646.255 627.428 668.946 670.297 707.447 700.092C705.764 703.692 703.676 717.83 702.02 723.049C694.501 746.75 686.303 769.032 674.533 790.997C672.746 794.331 669.727 800.494 667.75 803.437C660.579 803.336 647.626 805.516 640.136 805.637C639.193 805.652 640.145 803.874 638.257 802.749C636.4 803.723 635.873 806.472 635.222 806.489C584.668 807.821 534.38 801.756 485.081 790.85C483.723 790.55 481.943 791.182 480.663 791.659C474.336 785.381 459.606 782.415 451.345 785.23C448.045 783.76 436.868 783.343 432.764 782.756C425.792 781.757 422.431 780.816 415.893 778.233C448.097 765.222 480.175 748.475 510.293 731.235C519.512 725.957 534.051 718.438 541.309 711.171C560.048 692.41 559.303 651.627 559.231 626.459C582.919 655.929 604.47 630.563 621.068 610.201C629.46 599.905 635.902 590.254 642.755 578.934Z" fill="#74ECC9"/>
<path d="M898.011 591.828C897.989 590.469 898.064 590.127 899.242 589.596L901.001 590.713L901.77 590.258L901.879 589.305C900.888 588.189 900.356 587.758 899.869 586.329L900.666 585.324C902.577 584.575 901.748 584.484 903.265 585.046C904.245 586.822 904.038 589.542 904.081 591.674C903.688 594.941 903.306 595.566 904.74 598.518C903.747 599.857 903.841 599.797 902.404 600.628C901.644 597.948 902.482 596.802 901.774 593.822C900.253 592.089 900.598 592.61 898.011 591.828Z" fill="#74ECC9"/>
<path d="M169.423 701.4C158.116 708.463 148.935 717.637 140.093 727.461C138.006 729.778 135.416 731.794 132.945 733.69C131.087 733.495 131.918 733.812 130.393 732.629C128.919 729.713 129.371 726.352 129.698 723.142C133.709 683.712 151.955 642.707 175.959 611.499C182.465 603.04 191.092 592.105 199.357 585.367C205.124 588.17 202.736 591.702 200.815 597.248C193.562 618.192 189.248 635.01 189.165 657.253C196.016 652.831 233.535 628.689 239.589 634.477C239.676 634.936 239.763 635.396 239.85 635.856C236.261 642.99 230.101 652.276 226.706 659.377C220.682 671.979 217.109 684.299 213.644 697.496C221.124 697.183 229.544 694.808 237.001 693.706C241.171 693.09 253.846 689.073 256.866 691.517C257.566 695.416 251.865 698.225 248.955 700.098C213.942 722.629 191.45 754.321 179.799 794.111C177.798 801.669 176.719 809.07 175.669 816.764C175.293 819.514 174.906 831.285 174.287 832.951C171.443 835.397 169.941 833.938 167.541 831.786C167.464 831.566 167.39 831.345 167.31 831.127C160.601 812.806 162.559 763.083 164.753 743.036C166.224 729.591 169.132 715.644 169.411 702.158L169.423 701.4ZM191.719 602.926C184.91 610.449 175.905 621.355 170.624 629.936C155.122 655.128 138.101 692.937 136.805 722.464C144.348 714.593 165.273 692.191 175.17 691.35C175.802 691.605 177.454 692.172 177.352 693.13C174.261 722.325 168.733 751.237 169.96 780.893C170.153 785.546 169.715 792.92 171.17 797.241C172.389 795.704 176.789 779.876 178.681 775.881C181.648 768.693 185.106 760.745 188.942 754.022C198.896 736.576 222.018 707.62 239.645 698.833C233.336 700.376 212.226 705.628 209.233 703.097C200.529 695.737 226.301 647.308 229.018 641.907C217.103 647.278 201.037 656.861 190.57 662.998C174.863 672.207 187.936 614.737 190.393 609.458C190.879 608.414 192.422 603.619 191.719 602.926Z" fill="#CFBAF0"/>
<path d="M906.448 590.077C906.237 588.53 906.094 588.295 906.482 586.763C907.976 585.769 908.165 586.12 910.312 586.046C910.004 587.845 910.052 588.788 908.789 590.081C907.568 590.38 907.624 590.454 906.448 590.077Z" fill="#74ECC9"/>
<path d="M898.01 591.828C900.597 592.61 900.252 592.089 901.773 593.822C902.481 596.802 901.643 597.948 902.403 600.628L902.356 601.327C901.673 603.967 901.233 604.7 902.522 607.108C900.806 606.931 900.533 606.947 898.84 606.408C897.616 605.222 897.679 603.992 897.418 602.248L899.276 602.061L899.712 601.482C898.356 599.75 897.603 599.195 897.695 597.304C898.332 596.712 898.838 596.256 899.515 595.7L900.083 595.24L900.104 594.307C898.872 593.875 899.245 594.064 898.124 593.307L898.01 591.828Z" fill="#FBF7F0"/>
<path d="M911.65 595.377C911.982 593.176 911.579 593.628 912.869 592.297C915.13 592.267 915.612 593.361 916.651 595.184C914.618 596.54 913.762 596.141 911.65 595.377Z" fill="#74ECC9"/>
<path d="M917.485 595.264C918.821 594.241 918.809 594.09 920.524 593.93C922.267 594.455 922.254 594.731 923.352 596.18C921.549 596.282 919.829 595.302 918.383 596.756C918.879 598.244 919.186 597.941 921.115 598.925L920.949 599.59C918.778 600.876 917.665 601.219 916.175 598.771C916.051 597.275 916.697 596.572 917.485 595.264Z" fill="#74ECC9"/>
<path d="M911.65 595.378C913.762 596.142 914.618 596.54 916.651 595.184L917.484 595.263C916.696 596.571 916.051 597.274 916.175 598.77C917.665 601.218 918.778 600.875 920.949 599.589L921.115 598.924C919.186 597.94 918.878 598.243 918.382 596.755C919.828 595.301 921.549 596.281 923.352 596.179L925.278 596.736C920.954 607.462 919.147 600.177 916.533 602.344C917.479 602.984 922.28 605.782 923.073 605.633C924.75 607.398 927.709 609.747 928.747 611.278C928.46 612.915 928.172 612.355 927.648 613.528C924.841 616.013 923.977 618.264 921.709 620.407C920.199 619.845 920.054 619.503 918.926 618.354L919.525 617.742C921.222 616.04 927.062 613.229 921.453 611.084C919.707 611.858 919.96 612.933 919.729 614.772C918.345 616.597 918.139 616.466 916.023 617.435L914.179 618.3C913.95 619.303 913.848 619.727 913.719 620.752C912.822 621.305 912.927 621.234 912.07 621.958C911.727 624.837 913.068 625.286 914.322 628.114L913.574 630.069L912.774 630.401C910.497 628.887 909.123 623.795 908.071 620.999C908.755 619.836 909.029 619.796 910.144 618.977L910.242 618.215L909.204 616.918L908.592 616.955C907.315 618.724 907.315 619.312 906.776 621.501C904.627 623.001 903.557 622.364 902.04 624.399C901.831 626.694 902.399 626.816 904.052 628.365L905.087 627.986L905.065 627.318C905.023 625.565 904.808 624.763 905.761 623.324L906.864 622.839C908.116 623.988 908.065 623.877 908.551 625.5C908.234 626.915 908.145 627.447 907.605 628.816L906.872 630.216L905.928 631.269C904.482 630.695 898.61 627.627 897.762 626.343C898.316 623.59 898.743 623.186 896.157 622.054L895.604 621.795L895.252 619.033C896.161 617.103 896.084 618.043 895.795 616.158C890.688 611.543 895.168 612.114 895.878 608.465L894.471 607.454C894.08 605.828 894.957 605.533 895.718 603.365L895.988 602.581L897.418 602.247C897.679 603.991 897.616 605.221 898.84 606.407C900.533 606.946 900.806 606.93 902.522 607.107L903.047 607.113C905.156 605.985 906.463 604.922 906.285 602.47C904.87 601.166 904.776 601.582 902.356 601.326L902.403 600.627C903.84 599.796 903.746 599.856 904.739 598.517L905.797 598.88C909.929 598.218 908.801 597.342 911.65 595.378Z" fill="#F1F2E9"/>
<path d="M925.278 596.734C926.853 595.701 927.145 595.839 929.003 595.964L929.774 596.492C928.467 599.136 925.035 601.865 923.073 605.631C922.28 605.78 917.479 602.982 916.533 602.342C919.147 600.175 920.954 607.46 925.278 596.734Z" fill="#74ECC9"/>
<path d="M935.423 599.189C934.957 599.829 934.167 600.149 933.387 600.012C932.607 599.876 931.972 599.307 931.752 598.547C931.531 597.786 931.763 596.966 932.349 596.433C933.136 595.718 934.337 595.714 935.129 596.424C935.921 597.134 936.048 598.328 935.423 599.189Z" fill="#98F5E1"/>
<path d="M902.355 601.324C904.775 601.58 904.869 601.164 906.284 602.468C906.462 604.92 905.155 605.983 903.046 607.111L902.521 607.105C901.232 604.697 901.672 603.964 902.355 601.324Z" fill="#74ECC9"/>
<path d="M895.252 619.033C892.788 616.803 892.815 616.82 892.321 613.571L892.224 612.889C890.694 612.186 890.95 612.445 889.723 611.406C890.098 609.448 893.622 604.107 894.862 602.254L895.988 602.581L895.718 603.365C894.957 605.533 894.08 605.828 894.471 607.454L895.878 608.465C895.168 612.114 890.688 611.543 895.795 616.158C896.084 618.043 896.161 617.103 895.252 619.033Z" fill="#74ECC9"/>
<path d="M929.74 607.334L928.977 607.981L928.312 607.708C927.65 605.693 927.89 603.759 927.946 601.605C929.435 601.913 929.428 601.829 930.672 602.656C931.11 604.584 930.484 605.228 929.74 607.334Z" fill="#74ECC9"/>
<path d="M136.807 722.468C138.103 692.941 155.124 655.132 170.626 629.94C175.907 621.359 184.912 610.453 191.721 602.93C192.424 603.623 190.881 608.418 190.395 609.462C187.938 614.741 174.865 672.211 190.572 663.002C201.039 656.865 217.105 647.282 229.02 641.911C226.303 647.312 200.531 695.741 209.235 703.101C212.228 705.632 233.338 700.38 239.647 698.837C222.02 707.624 198.898 736.58 188.944 754.026C185.108 760.749 181.65 768.697 178.683 775.885C176.791 779.88 172.391 795.708 171.172 797.245C169.717 792.924 170.155 785.55 169.962 780.897C168.735 751.241 174.263 722.329 177.354 693.134C177.456 692.176 175.804 691.609 175.172 691.354C165.275 692.195 144.35 714.597 136.807 722.468Z" fill="#F6E0EC"/>
<path d="M918.926 618.356C918.815 620.269 919.187 619.538 918.158 620.781C916.364 620.881 915.274 620.64 913.719 620.754C913.848 619.729 913.95 619.305 914.179 618.302L916.023 617.437C918.139 616.468 918.345 616.599 919.729 614.774C919.96 612.935 919.707 611.86 921.453 611.086C927.062 613.231 921.222 616.042 919.525 617.744L918.926 618.356Z" fill="#98F5E1"/>
<path d="M921.709 620.406C923.977 618.263 924.841 616.012 927.648 613.527C928.539 615.374 928.97 615.496 928.851 617.241C927.635 617.852 927.16 617.815 925.811 617.996C924.582 619.434 924.576 621.561 925.861 622.979C927.25 622.446 927.941 621.346 928.933 620.181L929.387 620.631C929.373 622.132 929.526 622.799 928.673 624.024C926.271 624.783 925.208 623.616 923.237 622.219C921.933 623.731 920.875 625.341 919.023 625.923L917.5 625.721C917.566 624.15 917.264 624.767 918.278 623.742L920.702 623.801L921.338 623.094C920.706 621.745 920.793 622.276 920.724 620.853L921.709 620.406Z" fill="#98F5E1"/>
<path d="M704.839 635.641L703.431 634.627C701.633 630.34 701.927 619.47 703.462 615.191C704.137 615.494 705.066 615.716 705.094 616.249C705.259 619.443 705.709 633.626 704.839 635.641Z" fill="#000002"/>
<path d="M914.322 628.114C914.695 626.527 915.023 626.071 916.284 625.278L917.236 625.906C917.904 628.747 914.929 632.252 913.166 634.346C911.257 632.222 909.9 630.55 907.604 628.816C908.144 627.447 908.234 626.915 908.551 625.5C908.065 623.877 908.116 623.988 906.864 622.839L905.76 623.324C904.807 624.763 905.023 625.565 905.065 627.318L905.086 627.986L904.052 628.365C902.399 626.816 901.83 626.694 902.039 624.399C903.556 622.364 904.627 623.001 906.776 621.501C907.315 619.312 907.314 618.724 908.591 616.955L909.203 616.918L910.242 618.215L910.143 618.977C909.028 619.796 908.754 619.836 908.07 620.999C909.122 623.795 910.496 628.887 912.773 630.401L913.573 630.069L914.322 628.114Z" fill="#74ECC9"/>
<path d="M913.719 620.753C915.274 620.639 916.364 620.88 918.158 620.78C919.187 619.537 918.815 620.268 918.926 618.355C920.054 619.504 920.199 619.846 921.709 620.408L920.724 620.855C920.793 622.278 920.706 621.747 921.338 623.096L920.702 623.803L918.278 623.744C917.264 624.769 917.566 624.152 917.5 625.723L917.236 625.907L916.284 625.279C915.023 626.072 914.695 626.528 914.322 628.115C913.068 625.287 911.727 624.838 912.07 621.959C912.927 621.235 912.822 621.306 913.719 620.753Z" fill="#FBF7F0"/>
<path d="M883.62 628.031C887.141 625.352 891.217 622.589 895.605 621.797L896.158 622.056C896.461 622.93 896.945 623.637 896.551 624.145C895.02 626.122 891.44 627.625 889.188 629.29C884.786 632.782 881.436 635.814 877.323 639.601C868.319 646.587 861.034 656.193 853.007 664.253C850.638 666.632 847.555 671.999 844.08 671.91L843.543 671.164C844.606 665.388 877.019 634.044 883.62 628.031Z" fill="#F9DE24"/>
<path d="M896.157 622.055C898.743 623.187 898.317 623.591 897.763 626.344C898.611 627.628 904.482 630.696 905.928 631.27C904.859 634.711 903.852 637.31 903.819 640.926C900.899 639.988 898.645 640.027 895.617 639.896C891.711 634.944 892.483 631.986 889.188 629.289C891.44 627.624 895.019 626.121 896.55 624.144C896.944 623.636 896.46 622.929 896.157 622.055Z" fill="#FBF8CC"/>
<path d="M906.871 630.216L907.604 628.816C909.9 630.55 911.256 632.222 913.165 634.346L912.34 635.023C910.399 634.063 909.89 633.869 908.247 632.522L906.871 630.216Z" fill="#FBF7F0"/>
<path d="M289.024 629.426C293.623 632.721 310.875 639.042 311.826 641.2C303.193 638.454 294.952 635.898 285.709 637.803L285.158 638.341C290.047 638.702 294.457 638.362 299.31 639.724C319.206 645.309 334.476 658.153 355.673 661.497L355.432 663.057C337.297 663.411 317.398 661.503 299.081 662.395C293.723 662.656 280.33 649.434 279.945 643.705C279.552 637.851 285.858 634.186 289.024 629.426Z" fill="url(#paint1_linear_2243_35175)"/>
<path d="M877.322 639.6C881.435 635.813 884.785 632.781 889.187 629.289C892.482 631.986 891.711 634.944 895.617 639.896C898.645 640.027 900.899 639.988 903.819 640.926C905.396 641.429 904.692 641.523 906.041 641.12C907.862 639.327 909.447 637.473 911.714 636.386C918.966 649.411 928.213 661.456 934.978 675.021C978.917 763.127 942.183 869.036 857.477 916.625C804.452 946.416 740.727 954.314 682.004 938.388C659.728 932.224 641.141 922.406 621.158 910.972C616.812 908.485 603.695 898.432 600.109 897.303L600.15 895.932C603.002 895.586 604.76 892.08 606.158 889.798C634.804 901.775 677.184 902.131 706.533 892.386C726.533 885.746 746.481 878.45 759.151 859.86C763.088 854.084 764.708 847.479 767.698 842.097L768.16 841.281C779.323 853.085 796.099 866.411 809.773 875.273C801.636 866.869 790.107 857.206 781.315 848.755C759.553 827.837 749.638 809.495 738.262 782.456C743.292 780.278 748.886 778.987 754.121 776.613C778.171 765.703 799.099 752.359 818.709 734.699C841.783 713.921 859.695 691.158 869.979 661.491C872.504 654.206 875.948 647.293 877.322 639.6Z" fill="#FDE4CF"/>
<path d="M905.927 631.268L906.871 630.215L908.247 632.521C905.749 636.179 905.889 636.607 906.04 641.118C904.691 641.521 905.395 641.427 903.818 640.924C903.851 637.308 904.858 634.709 905.927 631.268Z" fill="#B9FBC0"/>
<path d="M908.248 632.523C909.891 633.87 910.4 634.064 912.341 635.024L911.714 636.386C909.447 637.473 907.862 639.327 906.041 641.12C905.89 636.609 905.75 636.181 908.248 632.523Z" fill="#FBF8CC"/>
<path d="M355.673 661.496C357.27 661.764 358.799 661.709 359.79 662.6C357.89 663.111 357.44 663.049 355.432 663.056L355.673 661.496Z" fill="#F1F2E9"/>
<path d="M346.107 666.718C353.647 666.536 358.235 666.21 365.586 664.648C365.229 672.677 352.484 674.591 351.63 681.057L351.226 681.004C351.451 679.251 350.484 668.255 349.523 667.193C348.327 667.113 347.275 667.018 346.107 666.718Z" fill="#D6F5D6"/>
<path d="M301.037 666.134C316.391 665.222 330.716 665.956 346.107 666.718C347.275 667.018 348.327 667.113 349.523 667.193C350.484 668.255 351.451 679.251 351.226 681.004C335.353 682.134 322.492 688.45 309.323 696.767C294.862 686.137 291.607 683.166 301.037 666.134Z" fill="#F6E0EC"/>
<path d="M349.108 789.223C338.95 788.291 329.27 783.931 321.412 777.451C308.241 766.59 305.575 751.826 309.153 735.684C310.765 728.409 313.609 721.325 313.981 713.769C314.245 708.417 311.432 704.389 310.976 699.105C311.731 697.412 311.643 697.9 313.786 696.828C314.915 705.09 326.881 720.276 329.394 730.562C332.105 741.661 328.542 740.841 326.812 750.497C324.688 762.358 330.526 776.178 340.383 783.195C342.745 784.877 348.326 787.21 349.308 788.645L349.108 789.223Z" fill="#FBF7F0"/>
<path d="M707.447 700.094L711.164 702.386C716.841 731.581 725.025 759.987 735.743 787.792C743.037 806.712 754.291 826.359 768.16 841.282L767.698 842.098C764.708 847.48 763.088 854.085 759.151 859.861C746.481 878.451 726.533 885.747 706.533 892.387C677.184 902.132 634.804 901.776 606.158 889.799C604.76 892.081 603.002 895.587 600.15 895.933L600.276 895.022C602.408 892.943 603.892 891.371 605.845 889.123C611.883 881.961 617.997 874.858 624.064 867.718C640.572 848.289 655.125 825.614 667.75 803.439C669.727 800.496 672.746 794.333 674.533 790.999C686.303 769.034 694.501 746.752 702.02 723.051C703.676 717.832 705.764 703.694 707.447 700.094Z" fill="#F9DB9E"/>
<path d="M480.662 791.66C481.942 791.183 483.722 790.551 485.08 790.851C534.379 801.757 584.667 807.822 635.221 806.49C635.872 806.473 636.399 803.724 638.256 802.75C640.144 803.875 639.192 805.653 640.135 805.638C647.625 805.517 660.578 803.337 667.749 803.438C655.124 825.613 640.571 848.288 624.063 867.717C617.996 874.857 611.882 881.96 605.844 889.122C600.872 887.438 593.59 885 588.343 883.56C588.033 883.475 585.089 884.253 584.511 884.408C576.264 880.853 564.087 874.208 555.934 869.18C541.044 859.999 511.349 846.51 502.105 832.296C493.943 819.744 490.953 804.008 480.662 791.66ZM613.171 845.071C613.966 845.902 619.165 849.27 619.997 849.622C620.039 848.084 620.47 847.143 619.16 846.14C617.756 845.064 614.846 844.751 613.171 845.071ZM589.772 878.835C589.561 881.427 589.246 880.561 590.648 882.266C591.977 882.688 592.287 882.979 593.571 882.8L594.258 880.991C593.209 879.199 591.753 879.203 589.772 878.835Z" fill="#98F5E1"/>
<path d="M619.998 849.619C619.166 849.267 613.967 845.9 613.172 845.069C614.847 844.749 617.757 845.061 619.161 846.137C620.471 847.14 620.04 848.081 619.998 849.619Z" fill="#90DBF4"/>
<path d="M593.572 882.801C592.288 882.98 591.978 882.689 590.649 882.267C589.247 880.562 589.562 881.428 589.773 878.836C591.754 879.204 593.209 879.2 594.258 880.992L593.572 882.801Z" fill="#D6F5D6"/>
<path d="M584.512 884.405C585.09 884.25 588.034 883.472 588.344 883.557C593.591 884.997 600.873 887.435 605.845 889.119C603.892 891.367 602.408 892.939 600.276 895.018C597.057 892.473 595.437 891.185 591.902 889.197L584.512 884.405Z" fill="#D6F5D6"/>
<path d="M591.902 889.199C595.437 891.187 597.057 892.475 600.276 895.02L600.15 895.931L600.109 897.302C595.537 895.134 592.601 894.594 591.902 889.199Z" fill="#FFEDE1"/>
<defs>
<linearGradient id="paint0_linear_2243_35175" x1="269.785" y1="350.753" x2="796.609" y2="459.12" gradientUnits="userSpaceOnUse">
<stop stop-color="#EFF2CA"/>
<stop offset="1" stop-color="#F1BAF0"/>
</linearGradient>
<linearGradient id="paint1_linear_2243_35175" x1="317.424" y1="631.398" x2="317.534" y2="662.132" gradientUnits="userSpaceOnUse">
<stop stop-color="#FAF0E7"/>
<stop offset="1" stop-color="#F5DFF3"/>
</linearGradient>
</defs>
</svg>
