<svg width="1024" height="1024" viewBox="0 0 1024 1024" fill="none" xmlns="http://www.w3.org/2000/svg">
<path d="M520.657 146.457C479.236 146.387 447.485 155.853 413.034 179.209C382.122 200.166 357.57 224.405 341.499 258.67C336.016 258.891 328.105 263.686 323.136 266.265C256.61 300.79 209.461 368.697 185.995 438.498C181.75 451.126 180.236 465.173 176.415 477.602C161.109 463.385 153.562 454.992 142.085 437.1C109.094 385.666 99.229 319.543 112.947 260.175C125.695 205.003 165.111 150.343 212.94 120.102C292.889 69.7576 394.013 67.3317 476.285 113.784C482.977 117.63 493.633 124.476 499.647 129.269C503.678 132.48 507.566 135.865 511.302 139.414C514.323 142.249 516.705 145.568 520.657 146.457Z" fill="#C1F3CD"/>
<path d="M614.627 170.756C614.736 170.659 614.851 170.568 614.952 170.464C615.546 169.857 615.262 170.14 615.676 169.354C619.735 161.638 654.312 150.279 664.109 147.577C710.764 134.712 752.973 136.132 798.516 152.839C809.055 156.706 819.462 160.605 829.261 166.153C861.197 184.234 889.809 209.687 909.464 240.85C913.059 246.55 916.073 252.721 919.218 258.68C925.957 271.445 931.801 284.014 935.603 297.989C951.856 357.744 946.753 414.862 915.848 468.935C915.597 469.373 915.326 469.8 915.049 470.223C907.448 464.229 896.747 456.234 888.422 451.306C848.38 427.602 800.677 414.768 754.776 408.777C738.075 406.598 722.505 404.676 705.73 405.618C707.954 389.69 703.143 373.574 683.462 379.863C685.597 372.253 687.67 364.625 689.679 356.981C693.074 343.754 696.863 327.555 697.73 313.9C701.491 254.672 677.906 186.833 614.627 170.756Z" fill="#FFCFD2"/>
<path d="M341.5 258.67C357.571 224.405 382.123 200.166 413.035 179.209C447.486 155.853 479.237 146.387 520.658 146.457C547.077 147.962 570.263 156.095 591.204 172.548C602.085 169.711 603.599 169.519 614.628 170.753C677.907 186.83 701.492 254.669 697.731 313.897C696.864 327.552 693.075 343.751 689.68 356.978C687.671 364.622 685.598 372.25 683.463 379.86C703.144 373.571 707.955 389.687 705.731 405.615C701.815 424.281 694.657 433.457 686.372 449.472C678.546 464.599 676.24 491.742 651.83 488.034C650.962 488.939 647.363 504.373 646.691 506.896C641.271 527.246 637.019 539.537 626.501 558.012C648.151 567.287 672.678 586.675 681.652 609.031C685.632 618.945 685.269 627.017 684.906 637.424C689.284 640.354 694.562 642.425 699.462 644.327L707.663 646.596C715.345 648.991 722.974 651.553 730.545 654.278C764.983 663.731 794.098 686.779 811.201 718.13C819.813 733.557 827.313 749.579 833.644 766.074C837.268 774.379 852.223 820.409 848.554 825.973C845.94 824.568 846.271 819.707 845.565 816.086C842.212 798.905 837.218 782.227 830.914 765.939C805.642 705.721 792.257 679.924 728.585 656.232C723.172 654.34 717.73 652.536 712.258 650.821C700.501 647.613 695.085 646.331 684.202 640.577C683.209 652.951 679.268 662.79 674.1 674.002C662.507 697.489 644.89 720.613 623.961 736.775C618.142 741.269 608.05 746.422 601.272 750.079C614.964 791.666 623.131 826.134 617.202 870.142C616.07 875.096 614.771 882.218 612.323 886.467L611.5 886.83C610.281 884.472 613.412 874.928 614.154 871.412C621.473 828.744 612.047 791.331 598.871 751.12C567.079 765.297 540.213 768.343 506.043 766.237C497.131 801.919 497.664 834.197 513.286 868.162C513.558 868.753 513.308 869.096 513.152 869.74L512.354 870.209C511.61 869.787 510.995 869.38 510.612 868.547C495.122 834.882 494.791 800.868 503.718 765.717C494.776 764.954 484.078 762.337 475.373 759.998C443.014 751.301 417.782 738.106 393.843 714.595C377.482 697.729 356.927 668.617 359.097 644.443C340.235 650.035 321.093 655.412 302.47 661.691L297.446 663.8L291.845 666.084C262.346 679.324 247.332 695.877 230.855 722.884C215.887 747.765 207.223 776.444 203.051 804.915C202.613 807.904 201.616 818.546 200.055 819.862L199.388 819.591C198.42 816.638 200.011 807.683 200.546 804.157C204.733 776.569 213.477 747.34 227.433 723.109C229.439 720.127 231.467 716.824 233.419 713.778C249.448 689.292 262.598 678.013 288.642 664.903C291.326 663.709 294.054 662.649 296.784 661.563C298.558 660.788 300.338 660.024 302.123 659.273C306.695 657.042 316.533 654.336 321.618 652.76C334.131 648.881 347.707 645.694 359.968 641.157C362.989 636.129 366.34 633.935 370.843 630.313C373.14 599.537 384.339 584.412 413.631 572.895C396.961 549.969 389.468 535.839 380.837 508.185C376.993 507.092 371.786 505.102 368.804 502.273C358.843 492.819 347.384 474.043 340.387 461.905C331.984 447.328 315.818 419.416 319.955 402.775C320.948 398.778 324.143 394.686 327.948 392.916C335.549 389.38 339.292 389.506 346.885 391.955C342.21 371.932 338.585 357.608 335.067 336.868C329.652 310.759 331.032 283.356 341.5 258.67ZM620.344 174.839C607.892 171.506 602.946 171.444 590.773 175.323C518.601 117.47 415.127 162.687 363.831 227.253C320.428 281.885 334.773 331.638 349.802 393.427C354.981 396.631 357.721 399.189 362.047 403.515C361.477 379.911 361.81 354.419 364.962 331.013C366.039 323.012 371.014 309.497 376.902 303.68C396.148 284.67 429.181 298.873 451.181 304.529C474.494 310.524 498.679 308.823 520.305 298.39C553.982 282.178 574.904 243.048 614.306 238.318C620.269 237.602 627.316 239.518 631.584 243.767C640.719 252.722 634.096 264.158 633.729 274.631C633.004 295.308 637.38 317.997 648.274 335.839C655.788 347.929 659.728 352.501 663.355 366.483C665.676 378.626 666.001 386.429 666.193 398.535C675.226 381.984 675.106 346.297 676.2 327.234C676.47 322.533 674.287 307.328 675.413 304.831L676.175 304.824C677.949 307.461 677.811 312.952 678.027 316.289C679.558 339.917 676.536 363.824 672.817 387.162C675.285 385.386 677.781 383.784 679.43 381.157C683.928 373.988 690.803 341.981 692.658 332.259C698.883 299.638 695.103 250.582 675.903 222.556C664.621 206.088 645.661 195.224 626.25 191.546C620.001 190.085 610.008 191.651 607.486 190.255C610.508 187.664 619.752 188.443 623.658 188.696C639.542 191.273 654.421 198.139 666.689 208.553C655.548 192.931 638.772 180.358 620.344 174.839ZM631.839 269.645C634.241 259.13 636.83 245.068 622.394 241.424C610.013 238.3 594.298 246.463 584.172 252.747C554.522 272.204 537.45 300.698 500.076 307.92C484.606 311.561 470.686 311.323 455.176 307.967C434.855 303.57 403.628 289.744 383.974 301.067C366.33 311.232 365.409 346.15 364.915 364.081C364.375 383.711 363.729 405.046 366.258 424.475C369.041 437.728 370.739 451.701 373.312 465.013C374.607 472.401 377.011 479.856 378.532 487.152C385.792 521.983 400.239 555.861 424.814 582.101C439.563 597.85 459.775 614.315 481.033 620.279C489.921 622.772 500.143 623.295 509.388 623.612C547.065 624.59 567.066 620.352 594.818 593.823C609.577 579.824 621.667 563.258 630.499 544.934C640.278 524.79 645.906 498.791 651.159 476.936C657.248 451.597 662.87 429.401 663.508 403.056C663.712 383.963 663.265 363.451 652.316 347.135C642.247 332.131 634.87 317.063 632.719 298.955C632.068 293.472 631.201 286.8 629.683 281.597C632.022 278.448 632.515 273.447 631.839 269.645ZM420.82 586.481C420.536 584.655 420.107 582.343 419.999 580.536C418.347 578.884 416.429 577.061 414.887 575.344C379.792 587.973 366.562 616.177 377.222 652.308C380.932 664.881 395.335 677.127 406.149 684.18C411.093 668.076 417.197 660.572 431.443 650.773C422.941 643.043 407.933 628.704 407.439 616.401C407.415 615.85 407.4 615.299 407.394 614.748C411.562 607.961 415.761 605.717 422.809 603C422.331 596.781 421.799 592.601 420.82 586.481ZM687.565 381.067C678.911 384.437 671.922 391.064 668.097 399.526C665.796 404.549 666.004 417.393 664.723 424.484C685.632 374.665 705.533 406.054 696.489 416.368C695.437 413.891 696.394 407.026 695.475 405.242C688.308 391.338 676.222 408.328 672.143 415.157C678.409 423.698 682.372 435.709 677.418 445.718C671.788 451.765 667.344 452.249 661.113 446.578C658.114 459.068 654.555 473.079 652.019 485.566C658.431 485.676 662.803 486.009 667.773 481.143C676.963 472.241 678.772 458.381 684.032 447.773C691.994 431.717 704.135 417.113 703.981 398.006C703.889 386.585 699.394 380.684 687.565 381.067ZM335.448 393.066C330.64 394.49 325.597 396.47 323.008 401.099C319.871 406.706 321.96 415.172 323.803 420.938C329.788 439.663 359.715 495.58 375.31 503.457C376.781 504.2 378.399 504.566 379.98 504.996C377.469 492.443 374.488 481.712 371.329 469.443C365.571 468.894 362.467 466.713 358.889 462.215C350.982 449.864 355.808 441.288 364.298 431.393C360.023 425.067 342.192 406.225 333.778 410.533C329.698 415.782 336.698 420.144 335.164 422.84C331.21 423.21 328.027 410.246 331.673 408.4C342.129 403.105 357.893 419.363 363.835 425.724L362.257 408.361C356.753 400.523 345.392 392.138 335.448 393.066ZM671.214 416.879C668.72 421.902 666.564 427.037 665.023 432.445C663.327 438.397 659.726 446.708 668.808 447.927C679.409 444.743 678.073 434.961 675.073 426.484C674.245 424.145 672.422 418.792 671.214 416.879ZM365.249 434.83C356.748 444.807 353.49 455.87 365.516 465.109C367.299 465.95 369.023 466.802 370.864 467.508C369.503 459.545 367.211 441.56 365.249 434.83ZM625.44 559.974C623.909 562.41 621.66 565.779 620.396 568.263C621.181 579.304 621.53 590.371 621.443 601.439C626.27 604.812 628.474 606.966 630.973 612.42C626.775 626.31 621.679 630.085 611.61 639.978C592.98 658.284 572.682 671.522 549.781 683.831C545.169 686.302 540.462 688.591 535.671 690.695C547.261 691.65 562.623 694.066 572.067 701.414C585.702 695.083 599.288 688.797 611.319 679.653C615.293 676.632 619.86 672.264 623.87 668.881C627.696 665.653 634.634 662.86 637.562 660.491C644.478 654.894 652.417 641.421 655.652 633.122C658.026 627.033 657.111 623.418 654.45 617.902C649.769 608.197 642.332 600.645 634.241 593.741C631.004 590.978 627.395 588 624.854 584.608C637.219 590.586 653.603 607.053 658.243 620.349C659.859 624.978 659.801 627.129 658.736 631.747C654.342 643.294 649.04 653.869 638.615 661.19C626.981 669.361 617.087 679.231 605.059 687.086C594.95 693.688 585.139 697.888 574.55 703.358C586.769 715.975 594.819 731.107 600.415 747.647C604.504 745.736 609.189 743.197 613.048 740.821C643.058 722.346 680.849 674.001 681.53 638.131C676.817 631.679 674.448 630.513 667.416 626.656C672.456 626.346 679.021 631.308 682.182 634.853C682.887 624.955 682.336 616.468 677.937 607.372C667.859 586.535 646.019 569.662 625.44 559.974ZM617.271 572.354C596.518 597.813 573.343 622.701 538.495 625.416C518.25 626.993 492.784 627.679 473.678 620.724C454.562 613.766 436.425 597.886 422.401 583.631C424.991 598.154 427.954 622.977 423.126 636.905C422.594 633.848 422.095 630.785 421.629 627.717C416.041 629.742 419.132 634.231 421.491 637.176C449.913 667.607 488.68 685.257 529.59 690.634C557.469 677.918 583.601 662.733 605.998 641.642C610.058 637.819 616.415 631.964 619.464 627.53C618.544 616.43 618.356 606.284 618.27 595.184C618.235 590.718 618.283 576.254 617.271 572.354ZM621.643 605.784C621.501 612.641 621.392 619.855 621.943 626.694C622.899 625.537 623.859 624.439 624.689 623.189C628.562 615.656 629.85 611.015 621.643 605.784ZM421.729 606.355C408.709 612.817 407.722 615.972 414.771 628.56L415.866 629.902C417.665 629.231 419.264 626.312 422.605 624.273C422.658 621.4 423.112 608.611 422.596 606.715L421.729 606.355ZM370.394 633.947C368.231 635.911 365.945 638.093 363.65 639.87C356.257 658.501 370.345 678.719 380.273 693.713C397.969 720.44 424.552 738.836 454.144 750.35C470.291 756.501 487.054 760.894 504.142 763.453L505.599 758.779C509.513 745.138 514.9 733.405 518.98 720.416C470.129 717.223 419.627 706.085 384.202 669.214C378.292 663.063 374.37 654.42 372.454 646.219C371.892 643.846 371.121 634.901 370.394 633.947ZM432.581 651.962C416.919 662.281 414.753 669.548 407.097 684.918C418.987 693.153 429.717 698.246 443.081 703.56L448.637 705.394C454.168 693.78 459.238 684.493 467.355 674.298C452.008 665.968 446.364 661.451 432.581 651.962ZM469.201 675.309C461.675 683.672 455.428 695.626 450.49 705.82C469.205 711.644 489.478 716.284 509.125 717.128C512.784 717.3 516.305 717.504 519.97 717.424C521.723 710.737 525.083 699.141 525.743 692.711C501.423 688.99 491.413 686.133 469.201 675.309ZM528.834 693.074C525.362 702.399 523.904 714.564 520.742 723.329C515.564 737.685 511.075 748.88 506.881 763.681C511.297 764.662 516.406 764.524 520.932 764.626C538.854 765.03 553.533 762.911 570.885 758.372C580.695 755.546 588.937 753 598.298 748.741C592.944 732.651 580.693 707.842 565.028 700.271C554.333 695.102 540.57 693.101 528.834 693.074Z" fill="black"/>
<path d="M590.771 175.324C602.944 171.445 607.89 171.507 620.342 174.84C621.839 177.674 626.524 185.522 625.306 188.342L623.656 188.697C619.75 188.444 610.506 187.665 607.484 190.256C610.006 191.652 619.999 190.086 626.248 191.547C630.655 198.081 635.28 208.04 636.001 215.892C625.38 211.604 611.691 207.777 600.539 212.529C600.123 212.708 599.709 212.89 599.297 213.076C603.155 213.374 606.984 212.906 610.854 212.795C621.471 212.49 630.722 215.407 639.859 220.682C639.928 223.956 640.508 226.407 641.218 229.165C642.98 236.011 653.353 280.968 652.035 284.099L651.505 284.555C650.725 285.338 650.674 285.035 650.723 286.13C650.938 290.928 658.16 317.01 660.466 319.292L661.856 319.502C666.587 321.381 666.283 349.507 665.707 355.107C665.339 358.683 666.517 364.342 663.353 366.484C659.726 352.502 655.786 347.93 648.272 335.84C637.378 317.998 633.002 295.309 633.727 274.632C634.094 264.159 640.717 252.723 631.582 243.768C627.314 239.519 620.267 237.603 614.304 238.319C574.902 243.049 553.98 282.179 520.303 298.391C498.677 308.824 474.492 310.525 451.179 304.53C429.179 298.874 396.146 284.671 376.9 303.681C371.012 309.498 366.037 323.013 364.96 331.014C361.808 354.42 361.475 379.912 362.045 403.516C357.719 399.19 354.979 396.632 349.8 393.428C334.771 331.639 320.426 281.886 363.829 227.254C415.125 162.688 518.599 117.471 590.771 175.324ZM492.539 164.713C477.319 166.683 462.629 172.296 450.989 182.468C449.433 183.828 444.778 187.378 444.332 189.242C444.8 190.275 444.507 190.02 445.311 190.636C458.55 179.052 467.052 172.721 484.942 168.571C488.057 167.849 492.554 168.03 493.156 165.499L492.539 164.713ZM527.855 180.681C513.272 182.45 501.247 188.397 492.187 200.114C489.589 203.472 478.01 218.507 478.435 222.116C481.804 220.452 492.307 203.344 496.382 199.189C501.052 194.427 501.23 193.637 507.457 189.658C524.767 180.317 539.615 181.289 558.498 186.352C562.95 187.546 576.523 193.966 578.714 193.826C577.859 191.656 572.057 188.566 569.844 187.708C555.212 182.031 543.385 179.669 527.855 180.681ZM429.811 203.684C417.668 205.121 402.409 211.885 394.84 221.483C399.595 219.733 402.854 217.325 407.106 214.599C416.745 208.855 425.156 205.075 436.534 206.582C438.702 206.87 441.737 207.355 443.548 205.965L443.251 205.282C439.384 203.771 433.929 203.359 429.811 203.684ZM540.282 204.66C531.939 205.872 512.822 212.253 509.355 220.571L509.863 221.161C511.874 220.504 515.757 216.479 517.998 215.132C525.416 210.673 532.063 208.513 540.417 207.069C551.341 206.337 559.391 207.646 569.586 212.03C571.963 213.053 575.092 214.918 577.57 214.202C577.254 213.026 576.426 212.602 575.101 211.95C563.742 206.359 552.835 203.419 540.282 204.66ZM556.343 222.702C539.125 224.402 526.447 229.365 514.444 242.154C506.947 250.141 500.377 257.993 490.614 263.254C487.143 265.125 482.644 266.884 479.668 269.4L479.562 269.848L480.123 269.841L479.943 269.377L480.285 269.843L480.109 269.297L480.328 269.156C482.971 270.523 493.098 264.564 495.716 262.962C517.976 247.511 522.112 227.582 556.018 225.173C564.141 224.596 575.454 226.702 580.337 226.267C572.011 222.734 565.394 222.055 556.343 222.702ZM432.073 229.18C417.214 231.067 403.285 237.445 392.149 247.461C395.236 245.934 397.798 244.439 400.77 242.694C409.602 238.372 417.699 234.111 427.471 232.059C430.562 231.41 439.692 231.253 441.67 230.522L441.814 229.881C439.255 228.719 434.894 228.99 432.073 229.18ZM478.531 235.803C458.058 257.838 429.464 246.607 404.031 256.944C402.215 257.682 399.053 258.6 398.071 260.208C399.044 260.706 398.529 260.61 399.615 260.499C405.891 258.521 413.172 255.987 419.669 255.184C438.019 252.914 458.063 254.394 474.109 243.533C475.989 242.26 479.482 239.214 479.85 236.995C479.136 236.051 479.496 236.254 478.531 235.803ZM596.673 236.067C569.577 243.739 558.687 260.185 537.478 275.953C534.197 278.392 520.091 285.606 519.02 287.022C519.778 287.601 519.392 287.452 520.121 287.6C545.4 277.767 551.97 264.472 573.172 249.463C578.609 245.614 594.825 238.172 597.113 236.206L596.673 236.067ZM579.017 237.178C541.896 243.755 525.758 286.264 483.725 290.35C451.842 293.449 434.173 274.393 403.908 279.637C402.136 279.944 398.021 281.164 396.958 282.525C397.334 283.387 397.05 283.13 397.617 283.467C417.858 277.868 429.105 281.826 448.246 288.528C465.138 294.442 485.453 294.961 502.044 288.141C524.429 279.469 537.479 262.55 556.327 248.87C565.741 242.037 570.815 242.392 579.024 237.954L579.199 237.325L579.017 237.178ZM372.03 254.264C358.835 263.759 349.991 277.642 347.087 293.765C346.759 295.585 346.277 299.424 346.767 301.11C347.081 301.182 347.733 301.361 348.02 301.357C351.893 282.349 356.765 268.468 373.051 256.482C373.877 255.875 373.341 255.186 373.023 254.663L372.03 254.264ZM363.984 291.415C358.878 298.542 350.011 327.171 354.252 334.414C357.205 332.602 355.639 329.364 355.995 326.012C356.533 320.954 357.066 316.044 358.311 311.093C358.655 307.982 364.377 292.75 363.984 291.415Z" fill="#FFFFFA"/>
<path d="M445.311 190.638C444.507 190.022 444.8 190.277 444.332 189.244C444.778 187.38 449.433 183.83 450.989 182.47C462.629 172.298 477.319 166.685 492.539 164.715L493.156 165.501C492.554 168.032 488.057 167.851 484.942 168.573C467.052 172.723 458.55 179.054 445.311 190.638Z" fill="black"/>
<path d="M620.344 174.84C638.772 180.359 655.548 192.932 666.689 208.554C654.421 198.14 639.542 191.274 623.658 188.697L625.308 188.342C626.526 185.522 621.841 177.674 620.344 174.84Z" fill="url(#paint0_linear_2243_35936)"/>
<path d="M507.457 189.658C501.23 193.637 501.052 194.427 496.382 199.189C492.307 203.344 481.804 220.452 478.435 222.116C478.01 218.507 489.589 203.472 492.187 200.114C501.247 188.397 513.272 182.45 527.855 180.681C543.385 179.669 555.212 182.031 569.844 187.708C572.057 188.566 577.859 191.656 578.714 193.826C576.523 193.966 562.95 187.546 558.498 186.352C539.615 181.289 524.767 180.317 507.457 189.658Z" fill="black"/>
<path d="M626.25 191.547C645.661 195.225 664.621 206.089 675.903 222.557C695.103 250.583 698.883 299.639 692.658 332.26C690.803 341.982 683.928 373.989 679.43 381.158C677.781 383.785 675.285 385.387 672.817 387.163C676.536 363.825 679.558 339.918 678.027 316.29C677.811 312.953 677.949 307.462 676.175 304.825L675.413 304.832C674.287 307.329 676.47 322.534 676.2 327.235C675.106 346.298 675.226 381.985 666.193 398.536C666.001 386.43 665.676 378.627 663.355 366.484C666.519 364.342 665.341 358.683 665.709 355.107C666.285 349.507 666.589 321.381 661.858 319.502C661.336 316.672 652.111 285.546 651.507 284.555L652.037 284.099C653.355 280.968 642.982 236.011 641.22 229.165C640.51 226.407 639.93 223.956 639.861 220.682C646.675 224.365 654.731 231.41 658.617 238.199C660.883 242.159 662.551 247.162 665.232 251.128L666.207 251.098C666.433 250.053 666.527 250.222 666.213 249.196C661.075 232.406 650.412 223.795 636.003 215.892C635.282 208.04 630.657 198.081 626.25 191.547Z" fill="#FFCFD2"/>
<path d="M394.842 221.485C402.411 211.887 417.67 205.123 429.813 203.686C433.931 203.361 439.386 203.773 443.253 205.284L443.55 205.967C441.739 207.357 438.704 206.872 436.536 206.584C425.158 205.077 416.747 208.857 407.108 214.601C402.856 217.327 399.597 219.735 394.842 221.485Z" fill="black"/>
<path d="M540.418 207.069C532.064 208.513 525.417 210.673 517.999 215.132C515.758 216.479 511.874 220.504 509.863 221.161L509.355 220.571C512.822 212.253 531.94 205.872 540.283 204.66C552.836 203.419 563.742 206.359 575.101 211.95C576.426 212.602 577.254 213.026 577.57 214.202C575.092 214.918 571.963 213.053 569.586 212.03C559.391 207.646 551.342 206.337 540.418 207.069Z" fill="black"/>
<path d="M599.299 213.076C599.711 212.89 600.125 212.708 600.541 212.529C611.693 207.777 625.382 211.604 636.003 215.892C650.412 223.795 661.075 232.406 666.213 249.196C666.527 250.222 666.433 250.053 666.207 251.098L665.232 251.128C662.551 247.162 660.883 242.159 658.617 238.199C654.731 231.41 646.675 224.365 639.861 220.682C630.724 215.407 621.473 212.49 610.856 212.795C606.986 212.906 603.157 213.374 599.299 213.076Z" fill="black"/>
<path d="M495.717 262.963C493.099 264.565 482.972 270.524 480.329 269.157L480.109 269.298L480.286 269.844L479.944 269.378L480.124 269.842L479.562 269.849L479.669 269.401C482.645 266.885 487.144 265.126 490.615 263.255C500.378 257.994 506.948 250.142 514.445 242.155C526.448 229.366 539.126 224.403 556.344 222.703C565.395 222.056 572.012 222.735 580.338 226.268C575.455 226.703 564.141 224.597 556.018 225.174C522.112 227.583 517.977 247.512 495.717 262.963Z" fill="black"/>
<path d="M392.15 247.463C403.286 237.447 417.215 231.069 432.074 229.182C434.895 228.992 439.256 228.721 441.815 229.883L441.671 230.524C439.693 231.255 430.563 231.412 427.472 232.061C417.7 234.113 409.603 238.374 400.771 242.696C397.799 244.441 395.237 245.936 392.15 247.463Z" fill="black"/>
<path d="M399.616 260.501C398.53 260.612 399.045 260.708 398.072 260.21C399.054 258.602 402.216 257.684 404.032 256.946C429.465 246.609 458.059 257.84 478.532 235.805C479.497 236.256 479.137 236.053 479.851 236.997C479.483 239.216 475.99 242.262 474.11 243.535C458.064 254.396 438.02 252.916 419.67 255.186C413.173 255.989 405.892 258.523 399.616 260.501Z" fill="black"/>
<path d="M520.122 287.599C519.393 287.451 519.779 287.6 519.021 287.021C520.092 285.605 534.198 278.391 537.479 275.952C558.688 260.184 569.578 243.738 596.674 236.066L597.115 236.205C594.827 238.171 578.61 245.613 573.173 249.462C551.971 264.471 545.401 277.766 520.122 287.599Z" fill="black"/>
<path d="M397.618 283.469C397.051 283.132 397.335 283.389 396.959 282.527C398.022 281.166 402.137 279.946 403.909 279.639C434.174 274.395 451.843 293.451 483.726 290.352C525.759 286.266 541.897 243.757 579.018 237.18L579.2 237.327L579.025 237.956C570.816 242.394 565.742 242.039 556.328 248.872C537.48 262.552 524.43 279.471 502.045 288.143C485.454 294.963 465.139 294.444 448.247 288.53C429.106 281.828 417.859 277.87 397.618 283.469Z" fill="black"/>
<path d="M631.839 269.648C631.037 266.787 631.321 265.915 629.239 263.696L628.238 263.509C625.802 266.459 628.713 277.885 629.683 281.6C631.201 286.803 632.068 293.475 632.719 298.958C634.87 317.066 642.247 332.134 652.316 347.138C663.265 363.454 663.712 383.966 663.508 403.059C645.413 402.793 626.077 405.567 607.912 403.81C606.061 403.631 606.061 403.177 605.059 401.744C609.657 400.493 615.027 399.118 619.557 397.824C623.165 396.793 631.658 396.697 633.44 395.229C633.498 393.779 633.75 394.386 632.877 393.299C628.816 393.022 625.837 395.419 620.855 394.389C615.698 393.323 612.288 390.412 607.577 388.59C593.399 383.265 575.787 380.495 560.951 384.594C555.102 386.21 545.93 390.389 548.147 397.704C541.558 398.374 532.21 397.777 525.305 398.049C524.601 387.147 525.546 382.529 527.034 372.236L526.287 371.603C521.292 372.303 522.487 393.461 522.517 397.915C512.57 398.149 502.445 398.747 492.506 398.754C492.183 398.48 491.861 398.207 491.538 397.933C491.325 393.935 490.036 375.596 486.697 373.549C485.112 376.45 488.896 393.214 489.051 398.992C484.977 399.292 473.142 400.281 469.546 399.705C468.195 379.318 407.355 383.725 398.149 398.346C397.187 399.874 396.164 400.444 396.062 402.41L396.654 402.771C398.314 402.141 399.012 401.104 400.223 399.784C408.105 404.739 410.753 404.644 419.779 405.679C419.718 407.552 419.613 409.005 419.41 410.868C404.091 412.11 388.896 413.756 373.518 413.91C364.938 413.996 369.463 421.462 366.258 424.478C363.729 405.049 364.375 383.714 364.915 364.084C365.409 346.153 366.33 311.235 383.974 301.07C403.628 289.747 434.855 303.573 455.176 307.97C470.686 311.326 484.606 311.564 500.076 307.923C537.45 300.701 554.522 272.207 584.172 252.75C594.298 246.466 610.013 238.303 622.394 241.427C636.83 245.071 634.241 259.133 631.839 269.648ZM534.322 339.925C533.014 340.723 531.6 340.3 529.803 340.184C529.361 338.833 529.694 339.402 528.683 338.523L527.895 338.855C525.41 343.243 531.323 358.726 534.693 362.631C544.473 373.966 562.079 369.769 574.972 368.811C594.82 367.335 614.87 364.741 634.747 365.758C639.293 365.99 638.374 368.908 640.816 369.629C643.574 354.834 598.686 350.096 588.438 348.52L560.147 344.112C549.919 342.43 545.413 341.306 535.641 338.717L534.322 339.925ZM471.05 344.839C470.518 344.073 470.008 342.959 469.254 342.902C464.418 342.685 458.82 344.016 454.022 344.887C431.823 348.918 407.989 353.126 388.726 365.487C384.405 368.26 372.797 381.385 372.174 385.889L372.833 386.612C376.199 386.192 384.474 381.326 388.349 379.905C407.17 372.918 427.883 375.268 447.602 374.501C456.142 374.168 473.132 375.029 479.366 368.552C483.177 364.594 486.056 348.5 482.553 343.634L481.739 343.338C480.298 345.252 480.684 346.026 481.161 348.276C478.595 348.048 472.328 347.121 471.05 344.839ZM536.458 316.219C534.55 319.632 533.769 328.354 537.466 330.494L539.402 330.726C540.921 326.673 540.795 318.479 536.458 316.219ZM503.148 343.631C501.482 348.184 498.118 358.822 505.467 360.304C507.128 358.641 507.567 358.438 507.416 355.902C507.188 352.076 507.275 345.268 503.148 343.631Z" fill="#FFFFFA"/>
<path d="M348.021 301.359C347.734 301.363 347.082 301.184 346.768 301.112C346.278 299.426 346.76 295.587 347.088 293.767C349.992 277.644 358.836 263.761 372.031 254.266L373.024 254.665C373.342 255.188 373.878 255.877 373.052 256.484C356.766 268.47 351.894 282.351 348.021 301.359Z" fill="black"/>
<path d="M176.414 477.604C180.235 465.175 181.749 451.128 185.994 438.5C209.46 368.699 256.609 300.792 323.135 266.267C328.104 263.688 336.015 258.893 341.498 258.672C331.03 283.358 329.65 310.761 335.065 336.87C330.045 338.34 324.5 341.836 319.897 344.438C301.283 354.843 287.534 366.704 277.265 385.7C264.126 410.004 263.754 431.52 271.12 457.702C274.544 469.872 296.494 515.545 274.495 519.37C249.435 523.728 219.977 508.285 198.96 496.133C191.49 491.833 182.118 481.439 176.497 477.888L176.414 477.604Z" fill="#B9FBC0"/>
<path d="M629.683 281.599C628.713 277.884 625.802 266.458 628.238 263.508L629.239 263.695C631.321 265.914 631.037 266.786 631.839 269.647C632.515 273.449 632.022 278.45 629.683 281.599Z" fill="#292010"/>
<path d="M661.857 319.502L660.467 319.292C658.161 317.01 650.939 290.928 650.724 286.13C650.675 285.035 650.726 285.338 651.506 284.555C652.11 285.546 661.335 316.672 661.857 319.502Z" fill="black"/>
<path d="M354.253 334.413C350.012 327.17 358.879 298.541 363.985 291.414C364.378 292.749 358.656 307.981 358.312 311.092C357.067 316.043 356.534 320.953 355.996 326.011C355.64 329.363 357.206 332.601 354.253 334.413Z" fill="black"/>
<path d="M539.4 330.726L537.464 330.494C533.767 328.354 534.548 319.632 536.456 316.219C540.793 318.479 540.919 326.673 539.4 330.726Z" fill="black"/>
<path d="M176.497 477.889C182.118 481.44 191.49 491.834 198.96 496.134C219.977 508.286 249.435 523.729 274.495 519.371C296.494 515.546 274.544 469.873 271.12 457.703C263.754 431.521 264.126 410.005 277.265 385.701C287.534 366.705 301.283 354.844 319.897 344.439C324.5 341.837 330.045 338.341 335.065 336.871C338.583 357.611 342.208 371.935 346.883 391.958C339.29 389.509 335.547 389.383 327.946 392.919C324.141 394.689 320.946 398.781 319.953 402.778C315.816 419.419 331.982 447.331 340.385 461.908C347.382 474.046 358.841 492.822 368.802 502.276C371.784 505.105 376.991 507.095 380.835 508.188C389.466 535.842 396.959 549.972 413.629 572.898C384.337 584.415 373.138 599.54 370.841 630.316C366.338 633.938 362.987 636.132 359.966 641.16C347.705 645.697 334.129 648.884 321.616 652.763C316.531 654.339 306.693 657.045 302.121 659.276C289.671 638.115 278.139 619.999 274.42 594.961C273.815 590.889 272.183 580.366 266.044 584.323C263.129 588.467 267.404 599.004 268.45 603.843C273.208 625.842 283.884 643.496 296.782 661.566C294.052 662.652 291.324 663.712 288.64 664.906C286.605 663.615 277.365 659.64 274.521 658.154C250.119 645.396 215.304 634.55 187.591 639.585C185.496 634.111 182.378 618.874 181.12 613.061C173.53 577.979 170.219 541.224 173.459 505.408C174.189 497.341 175.059 485.881 176.497 477.889ZM268.885 536.242C267.383 538.411 266.905 539.479 267.064 542.138C267.367 547.216 267.291 558.038 273.616 559.186C276.736 555.551 276.49 551.975 276.148 547.402C275.748 542.038 274.957 536.577 268.885 536.242ZM292.59 550.035C285.759 554.072 283 564.372 292.65 563.964C296.952 560.181 303.194 549.246 292.59 550.035ZM249.36 566.154C246.192 566.632 244.103 566.933 241.874 569.3C239.697 575.777 251.661 575.534 255.11 575.422C258.161 574.98 262.084 574.993 262.267 571.145C259.957 567.112 253.595 566.478 249.36 566.154ZM284.858 576.609C274.97 582.821 286.943 587.027 293.193 585.332C295.61 583.717 297.971 582.178 296.628 579.078C293.365 576.343 288.909 576.301 284.858 576.609ZM300.733 608.08C296.927 609.485 285.439 613.973 286.581 618.89C288.047 620.171 289.14 620.145 291.047 620.021C291.404 619.996 291.761 619.967 292.117 619.932C296.411 618.877 306.537 615.219 306.659 609.951C305.152 607.742 303.272 607.996 300.733 608.08Z" fill="#D1F9F0"/>
<path d="M534.321 339.925L535.64 338.717C545.412 341.306 549.918 342.43 560.146 344.112L588.437 348.52C598.685 350.096 643.573 354.834 640.815 369.629C638.373 368.908 639.292 365.99 634.746 365.758C614.869 364.741 594.819 367.335 574.971 368.811C562.078 369.769 544.472 373.966 534.692 362.631C531.322 358.726 525.409 343.243 527.894 338.855L528.682 338.523C529.693 339.402 529.36 338.833 529.802 340.184C530.554 353.197 536.667 367.918 551.985 367.539C579.681 366.854 606.578 362.456 634.509 362.926C612.712 349.267 545.431 348.956 534.321 339.925Z" fill="black"/>
<path d="M529.803 340.185C531.6 340.301 533.014 340.724 534.322 339.926C545.432 348.957 612.713 349.268 634.51 362.927C606.579 362.457 579.682 366.855 551.986 367.54C536.668 367.919 530.555 353.198 529.803 340.185Z" fill="#C1F3CD"/>
<path d="M471.05 344.839C445.686 348.455 396.619 355.28 380.764 376.439C379.313 378.407 377.918 380.416 376.579 382.462C388.184 376.545 390.401 376.464 402.15 373.816C418.961 370.026 464.118 375.129 476.853 368.026C480.489 361.83 481.072 355.384 481.161 348.276C480.684 346.026 480.298 345.252 481.739 343.338L482.553 343.634C486.056 348.5 483.177 364.594 479.366 368.552C473.132 375.029 456.142 374.168 447.602 374.501C427.883 375.268 407.17 372.918 388.349 379.905C384.474 381.326 376.199 386.192 372.833 386.612L372.174 385.889C372.797 381.385 384.405 368.26 388.726 365.487C407.989 353.126 431.823 348.918 454.022 344.887C458.82 344.016 464.418 342.685 469.254 342.902C470.008 342.959 470.518 344.073 471.05 344.839Z" fill="black"/>
<path d="M505.465 360.302C498.116 358.82 501.48 348.182 503.146 343.629C507.273 345.266 507.186 352.074 507.414 355.9C507.565 358.436 507.126 358.639 505.465 360.302Z" fill="black"/>
<path d="M376.578 382.463C377.917 380.417 379.312 378.408 380.763 376.44C396.618 355.281 445.685 348.456 471.049 344.84C472.327 347.122 478.594 348.049 481.16 348.277C481.071 355.385 480.488 361.831 476.852 368.027C464.117 375.13 418.96 370.027 402.149 373.817C390.4 376.465 388.183 376.546 376.578 382.463Z" fill="#C1F3CD"/>
<path d="M522.515 397.914C522.485 393.46 521.29 372.302 526.285 371.602L527.032 372.235C525.544 382.528 524.599 387.146 525.303 398.048C525.496 405.064 529.731 452.023 529.384 453.432C529.156 454.356 529.333 454.03 528.514 454.575L527.755 454.092C524.276 438.591 523.103 413.997 522.515 397.914Z" fill="black"/>
<path d="M489.051 398.99C488.896 393.212 485.112 376.448 486.697 373.547C490.036 375.594 491.325 393.933 491.538 397.931C491.988 408.721 490.536 447.848 486.139 455.643L485.568 456.007C484.798 455.124 484.36 454.213 484.567 452.965C487.445 435.594 490.064 416.638 489.051 398.99Z" fill="black"/>
<path d="M664.722 424.485C666.003 417.394 665.795 404.55 668.096 399.527C671.921 391.065 678.91 384.438 687.564 381.068C699.393 380.685 703.888 386.586 703.98 398.007C704.134 417.114 691.993 431.718 684.031 447.774C678.771 458.382 676.962 472.242 667.772 481.144C662.802 486.01 658.43 485.677 652.018 485.567C654.554 473.08 658.113 459.069 661.112 446.579C667.343 452.25 671.787 451.766 677.417 445.719C682.371 435.71 678.408 423.699 672.142 415.158C676.221 408.329 688.307 391.339 695.474 405.243C696.393 407.027 695.436 413.892 696.488 416.369C705.532 406.055 685.631 374.666 664.722 424.485Z" fill="#F7DBF7"/>
<path d="M548.145 397.704C545.928 390.389 555.1 386.21 560.949 384.594C575.785 380.495 593.397 383.265 607.575 388.59C612.286 390.412 615.696 393.323 620.853 394.389C625.835 395.419 628.814 393.022 632.875 393.299C633.748 394.386 633.496 393.779 633.438 395.229C631.656 396.697 623.163 396.793 619.555 397.824C615.025 399.118 609.655 400.493 605.057 401.744C595.918 403.179 554.275 404.089 548.145 397.704ZM572.527 385.706C569.158 386.03 566.341 386.27 563.015 386.93C563.104 389.318 563.154 397.086 564.446 397.917C567.819 400.089 582.897 399.76 586.792 399.847L593.785 399.838C594.574 395.176 595.091 392.125 595.308 387.444C587.398 385.959 580.626 385.29 572.527 385.706ZM559.696 387.9C556.45 389.427 552.971 390.778 550.869 393.734C550.502 395.679 550.352 394.797 551.246 396.485L553.102 397.626C555.763 398.02 558.476 398.49 561.154 398.638C561.06 396.264 560.971 390.123 560.395 388.177L559.696 387.9ZM597.76 388.12C597.453 392.046 597.083 396.084 596.837 400.002C603.604 399.504 606.287 398.876 612.794 396.972L615.773 395.948L615.994 395.484C612.483 393.36 601.592 389.195 597.76 388.12Z" fill="black"/>
<path d="M563.016 386.928C566.342 386.268 569.159 386.028 572.528 385.704C580.627 385.288 587.399 385.957 595.309 387.442C595.092 392.123 594.575 395.174 593.786 399.836L586.793 399.845C582.898 399.758 567.82 400.087 564.447 397.915C563.155 397.084 563.105 389.316 563.016 386.928ZM582.65 390.799C578.709 392.572 573.834 391.425 569.334 391.453C570.07 393.415 570.778 395.387 571.459 397.369C574.345 397.875 582.862 399.728 583.414 395.05C583.562 393.796 583.615 392.055 582.974 390.93L582.65 390.799Z" fill="#FFFFFA"/>
<path d="M469.545 399.703C468.457 400.459 466.56 401.73 465.323 402.006C454.995 404.31 429.255 407.224 419.778 405.677C410.752 404.642 408.104 404.737 400.222 399.782C399.011 401.102 398.313 402.139 396.653 402.769L396.061 402.408C396.163 400.442 397.186 399.872 398.148 398.344C407.354 383.723 468.194 379.316 469.545 399.703ZM429.487 389.204C425.103 389.525 423.401 389.726 419.165 390.728C420.258 395.096 421.117 399.079 423.002 403.202C433.577 403.297 441.93 402.232 452.455 401.077C452.492 398.886 452.975 391.386 451.869 390.091C448.156 389.516 443.235 388.163 440.194 390.041C438.674 393.632 442.827 396.708 439.543 398.674C436.617 400.427 424.669 398.733 427.815 393.181C431.998 390.937 436.497 392.852 438.647 391.055L438.779 390.388C436.491 388.106 432.515 388.98 429.487 389.204ZM455.12 390.667L455.055 400.727C459.342 400.352 461.541 400.054 465.738 399.152L466.517 397.996C465.7 393.983 458.731 391.831 455.12 390.667ZM416.265 391.464C410.089 393.611 407.306 394.534 402.056 398.281C404.941 399.706 406.07 400.218 409.185 401.218C412.891 401.944 416.314 402.605 420.051 403.13C419.523 400.873 417.988 392.855 416.88 391.497L416.265 391.464Z" fill="black"/>
<path d="M553.103 397.624L551.247 396.483C550.353 394.795 550.503 395.677 550.87 393.732C552.972 390.776 556.451 389.425 559.697 387.898L560.396 388.175C560.972 390.121 561.061 396.262 561.155 398.636C558.477 398.488 555.764 398.018 553.103 397.624Z" fill="#FFFFFA"/>
<path d="M596.838 399.999C597.084 396.081 597.454 392.043 597.761 388.117C601.593 389.192 612.484 393.357 615.995 395.481L615.774 395.945L612.795 396.969C606.288 398.873 603.605 399.501 596.838 399.999Z" fill="#FFFFFA"/>
<path d="M419.164 390.727C423.4 389.725 425.102 389.524 429.486 389.203C432.514 388.979 436.49 388.105 438.778 390.387L438.646 391.054C436.496 392.851 431.997 390.936 427.814 393.18C424.668 398.732 436.616 400.426 439.542 398.673C442.826 396.707 438.673 393.631 440.193 390.04C443.234 388.162 448.155 389.515 451.868 390.09C452.974 391.385 452.491 398.885 452.454 401.076C441.929 402.231 433.576 403.296 423.001 403.201C421.116 399.078 420.257 395.095 419.164 390.727Z" fill="#FFFFFA"/>
<path d="M569.334 391.455C573.834 391.427 578.709 392.574 582.65 390.801L582.974 390.932C583.615 392.057 583.562 393.798 583.414 395.052C582.862 399.73 574.345 397.877 571.459 397.371C570.778 395.389 570.07 393.417 569.334 391.455Z" fill="black"/>
<path d="M455.055 400.728L455.12 390.668C458.731 391.832 465.7 393.984 466.517 397.997L465.738 399.153C461.541 400.055 459.342 400.353 455.055 400.728Z" fill="#FFFFFA"/>
<path d="M402.057 398.282C407.307 394.535 410.09 393.612 416.266 391.465L416.881 391.498C417.989 392.856 419.524 400.874 420.052 403.131C416.315 402.606 412.892 401.945 409.186 401.219C406.071 400.219 404.942 399.707 402.057 398.282Z" fill="#FFFFFA"/>
<path d="M379.98 504.997C378.399 504.567 376.781 504.201 375.31 503.458C359.715 495.581 329.788 439.664 323.803 420.939C321.96 415.173 319.871 406.707 323.008 401.1C325.597 396.471 330.64 394.491 335.448 393.067C345.392 392.139 356.753 400.524 362.257 408.362L363.835 425.725C357.893 419.364 342.129 403.106 331.673 408.401C328.027 410.247 331.21 423.211 335.164 422.841C336.698 420.145 329.698 415.783 333.778 410.534C342.192 406.226 360.023 425.068 364.298 431.394C355.808 441.289 350.982 449.865 358.889 462.216C362.467 466.714 365.571 468.895 371.329 469.444C374.488 481.713 377.469 492.444 379.98 504.997Z" fill="#F7DBF7"/>
<path d="M491.538 397.932C491.861 398.206 492.183 398.479 492.506 398.753C502.445 398.746 512.57 398.148 522.517 397.914C523.105 413.997 524.278 438.591 527.757 454.092L528.516 454.575C529.335 454.03 529.158 454.356 529.386 453.432C529.733 452.023 525.498 405.064 525.305 398.048C532.21 397.776 541.558 398.373 548.147 397.703C554.277 404.088 595.92 403.178 605.059 401.743C606.061 403.176 606.061 403.63 607.912 403.809C626.077 405.566 645.413 402.792 663.508 403.058C662.87 429.403 657.248 451.599 651.159 476.938C645.906 498.793 640.278 524.792 630.499 544.936C621.667 563.26 609.577 579.826 594.818 593.825C567.066 620.354 547.065 624.592 509.388 623.614C500.143 623.297 489.921 622.774 481.033 620.281C459.775 614.317 439.563 597.852 424.814 582.103C400.239 555.863 385.792 521.985 378.532 487.154C377.011 479.858 374.607 472.403 373.312 465.015C370.739 451.703 369.041 437.73 366.258 424.477C369.463 421.461 364.938 413.995 373.518 413.909C388.896 413.755 404.091 412.109 419.41 410.867C419.613 409.004 419.718 407.551 419.779 405.678C429.256 407.225 454.996 404.311 465.324 402.007C466.561 401.731 468.458 400.46 469.546 399.704C473.142 400.28 484.977 399.291 489.051 398.991C490.064 416.639 487.445 435.595 484.567 452.966C484.36 454.214 484.798 455.125 485.568 456.008L486.139 455.644C490.536 447.849 491.988 408.722 491.538 397.932ZM615.156 465.675C604.873 470.909 586.382 484.584 579.65 494.003C578.452 495.903 577.166 497.87 576.027 499.796C575.498 502.477 575.323 503.562 575.229 506.28C574.933 507.741 574.774 507.114 575.343 508.268L575.78 512.193C576.729 512.925 577.544 513.771 578.373 514.632C577.829 516.504 577.668 515.727 578.412 517.112C578.529 518.004 578.555 518.952 578.924 519.719L578.702 520.18C579.998 525.57 586.022 529.295 591.095 530.742C600.751 533.495 610.12 527.563 617.737 522.3C625.15 517.178 631.176 511.875 634.987 503.462C635.457 502.425 637.435 498.391 637.388 497.493C637.128 492.498 641.88 469.702 636.102 468.365L634.135 469.614L633.623 469.226C632.048 466.287 633.998 466.542 632.495 464.002C630.099 462.588 626.851 462.239 624.031 461.703C620.462 462.941 618.541 463.937 615.156 465.675ZM444.678 516.311C446.804 497.743 440.296 482.957 425.139 471.727C416.492 465.32 406.124 460.538 395.136 461.479C391.924 461.754 389.459 466.602 387.943 469.051L387.112 471.915C377.267 489.61 400.111 523.449 415.682 531.754C423.533 535.941 437.148 538.722 441.71 528.431L442.447 526.891C443.608 524.403 444.045 522.155 444.705 519.499C437.099 514.232 432.293 514.07 426.709 505.863C433.113 510.472 437.489 512.973 444.678 516.311ZM502.335 576.547C498.88 577.845 495.022 579.123 491.936 581.088C486.564 583.799 484.698 586.316 481.266 591.099L480.177 593.485C480.819 595.009 482.451 594.892 481.677 596.051C476.597 603.654 481.702 607.023 487.576 611.069C494.058 615.534 542.146 615.221 544.428 610.305L547.255 608.421C548.784 604.979 550.285 599.586 551.497 595.82C550.375 594.276 547.115 590.282 547.479 588.634L548.99 589.552L549.503 589.235C548.85 587.801 546.361 585.646 545.117 584.442C542.191 581.742 538.802 580.048 535.252 578.34C533.127 577.576 531.736 577.136 529.546 576.592C519.714 572.926 512.098 573.899 502.335 576.547ZM554.968 405.772C555.251 421.405 599.587 412.946 602.365 415.064L602.245 417.511L602.865 417.66L604.218 416.211C605.066 414.661 606.014 413.045 606.656 411.416C592.31 412.328 571.116 415.718 558.062 408.122C556.679 407.317 557.11 406.443 554.968 405.772ZM462.636 408.355C455.558 412.382 448.463 415.934 440.339 417.618C437.249 418.258 432.72 418.05 429.865 419.164L429.674 419.884C430.868 420.99 430.821 420.911 432.349 421.522C442.609 420.196 451.548 417.85 460.457 412.4C461.925 411.502 464.007 410.432 464.845 408.977C463.645 408.072 464.332 408.353 462.636 408.355ZM627.377 408.745C621.916 415.851 630.913 420.747 632.37 429.005C631.431 430.21 630.912 430.154 629.341 430.8C628.284 432.855 629.384 433.529 630.898 434.998L631.172 434.62C631.915 433.614 632.13 433.083 633.31 432.726L634.296 433.179C635.986 427.171 633.415 411.102 627.377 408.745ZM397.325 413.768C397.836 416.489 398.095 419.523 400.554 421.161C400.073 418.737 399.855 416.5 398.557 414.446L397.325 413.768ZM621.895 418.248C620.149 420.21 619.241 421.29 617.196 422.993C616.021 421.632 614.632 419.782 613.135 418.899L612.863 419.538L613.39 420.795L616.525 425.533C618.937 423.226 621.688 421.371 621.895 418.248ZM413.588 419.328C413.983 423.811 412.304 423.12 412.18 425.874C414.285 426.049 414.949 424.148 415.863 425.764C417.511 426.359 417.398 426.649 418.704 426.207C418.619 424.962 414.543 419.958 413.588 419.328ZM557.578 422.159C556.985 423.733 556.269 424.599 557.111 425.974C558.232 427.803 561.289 429.924 562.991 431.221L562.925 430.738C562.713 429.12 562.614 428.833 562.935 427.186L562.534 426.348C560.105 426.413 560.659 426.783 559.344 425.538C558.669 423.196 559.129 423.388 557.578 422.159ZM573.18 422.33L573.566 422.945C575.044 425.336 576.012 428.586 577.235 429.684C579.363 429.607 580.507 427.991 582.043 426.379L582.608 424.972L582.24 424.616C580.951 425.278 579.838 425.877 578.579 426.594C576.205 424.059 576.452 422.498 573.18 422.33ZM450.882 424.991C450.591 427.013 450.843 427.652 451.378 429.643C454.04 431.575 454.972 429.154 458.408 428.598C458.341 426.444 458.604 427.455 457.414 425.502L456.656 425.31C455.194 426.778 455.324 427.209 453.81 427.247C452.81 426.401 452.019 425.609 450.882 424.991ZM387.79 425.331C388.312 431.245 387.652 437.725 395.624 436.48C393.806 434.577 391.787 435.366 390.602 433.206C389.036 430.351 390.982 427.374 387.79 425.331ZM597.657 426.851C595.426 429.904 594.709 430.757 596.796 434.314L597.839 433.671C598.211 431.649 598.198 428.834 597.657 426.851ZM432.079 427.725C432.061 430.654 431.72 432.75 433.447 435.053C434.682 435.415 434.272 435.408 435.46 435.198C435.533 432.703 434.43 430.242 433.07 428.19L432.079 427.725ZM613.591 430.698C613.571 434.017 616.599 438.488 620.059 438.612C619.354 436.533 615.573 431.501 613.591 430.698ZM411.089 434.326C412.672 436.636 413.79 438.409 415.743 440.448L417.1 440.658C417.15 435.909 415.727 435.154 411.089 434.326ZM570.293 434.945C566.598 438.139 562.798 439.65 566.969 444.891L567.662 444.118L567.571 443.606C567.251 441.727 567.16 441.554 567.507 439.747C568.827 437.995 570.491 436.767 570.293 434.945ZM640.63 439.013C639.144 440.439 636.554 442.221 636.345 443.691L637.269 444.147C639.333 442.952 639.704 442.862 641.164 441.064L641.366 439.988L640.63 439.013ZM384.636 439.366C383.411 441.054 383.45 440.494 383.329 442.29C384.199 443.811 385.086 444.021 386.678 444.792L387.121 444.183C386.44 442.587 385.787 440.471 384.636 439.366ZM443.396 439.275C445.738 443.507 446.637 444.557 451.378 442.562L450.796 441.108C447.246 440.401 446.93 440.808 443.396 439.275ZM404.457 442.72C404.659 444.672 405.057 445.31 405.954 447.074C405.873 449.914 403.745 450.472 404.575 451.894L405.251 451.636L408.581 448.218C407.845 446.429 407.293 444.596 405.926 443.274L404.457 442.72ZM431.783 447.177C431.104 449.429 430.98 448.432 431.71 450.3C433.8 451.518 433.734 451.018 434.4 452.778C433.797 453.935 433.436 454.492 433.084 455.752C433.824 456.481 433.475 456.309 433.971 456.511C435.268 454.981 436.27 453.888 437.318 452.186C435.525 450.815 432.555 447.534 431.783 447.177ZM590.379 447.38C589.953 450.057 589.551 452.084 589.538 454.814L589.947 455.092L590.665 454.219C592.346 452.204 592.688 452.436 593.087 450.223C592.36 448.727 591.69 448.39 590.379 447.38ZM446.088 448.863C445.013 450.583 444.416 450.84 444.477 452.499C445.76 453.364 446.909 453.3 448.472 453.454C449.312 451.279 449.405 452.241 448.652 450.444C448.071 450.073 446.636 449.099 446.088 448.863ZM626.281 450.872C625.981 453.895 627.089 455.565 630.07 456.464C630.174 453.239 629.727 451.787 626.281 450.872ZM541.446 458.427C541.604 459.397 541.685 461.165 542.807 461.416C555.977 464.364 561.323 485.561 546.197 489.663C543.585 490.372 537.261 488.998 535.522 491.14C536.521 492.667 535.894 491.995 537.739 492.963C568.91 494.784 559.612 458.017 541.446 458.427ZM476.372 459.37C455.231 472.404 465.583 502.011 486.866 492.302C484.834 488.771 474.255 493.569 470.105 486.97C467.248 482.426 467.653 479.865 468.16 474.471C468.383 466.46 480.086 462.713 478.721 460.012C477.568 459.584 477.54 459.433 476.372 459.37ZM531.361 475.985C526.797 478.698 524.811 485.917 531.439 487.207C533.073 487.525 535.7 487.252 537.599 487.471L539.687 488.225C540.404 487.85 540.754 487.893 540.888 487.088C542.08 479.884 537.471 476.295 531.361 475.985ZM485.55 476.857C483.366 478.545 479.853 482.212 482.769 485.058C486.123 488.332 490.986 488.112 495.387 488.274C497.4 487.972 496.672 488.444 497.83 487.138C498.497 481.786 490.82 476.569 485.55 476.857ZM640.638 479.333C640.362 486.355 640.355 488.151 638.514 494.783L638.935 495.067C640.339 490.997 642.924 483.343 640.638 479.333ZM497.986 489.744C499.509 503.141 516.351 509.136 524.408 494.216L524.242 492.754L523.481 492.173C520.256 493.21 516.944 503.515 508.661 499.447C503.933 497.125 501.442 491.199 497.986 489.744ZM534.756 524.702C527.886 525.463 520.713 527.245 513.89 527.297C507.123 527.19 500.234 525.295 493.508 524.998C479.069 524.362 462.888 531.143 453.563 542.295C443.679 554.115 449.792 566.696 465.573 563.726C474.267 562.089 482.601 556.621 490.88 553.346C500.236 550.215 510.951 548.945 520.999 550.618C525.501 551.367 531.779 553.039 537.65 555.4C548.074 559.593 580.142 571.774 575.122 547.769C573.672 540.832 561.003 531.404 554.768 528.931C549.415 526.495 540.522 524.284 534.756 524.702ZM616.018 531.439C614.181 533.817 612.945 535.718 615.314 538.24C617.172 538.771 617.253 538.611 619.093 538.18C620.46 536.469 620.855 536.227 621.176 534.16C620.208 531.489 618.788 531.39 616.018 531.439ZM601.389 548.854C599.673 550.705 599.812 550.03 599.39 552.181C600.072 553.72 600.502 554.253 602.27 554.988C603.025 555.294 603.794 555.563 604.575 555.794C605.973 554.645 606.459 554.449 606.944 552.699C606.449 549.265 604.491 548.877 601.389 548.854ZM426.043 556.455L422.055 559.678C424.207 562.153 424.695 562.889 427.582 564.605C431.576 561.142 431.272 558.098 426.043 556.455ZM589.319 571.4C589.934 573.613 591.042 575.704 593.65 575.66C593.985 573.955 594.027 574.072 593.297 572.506C591.716 571.229 591.423 571.212 589.319 571.4ZM583.553 577.679C582.4 577.992 581.507 578.905 581.221 580.065C580.934 581.225 581.3 582.448 582.175 583.261C583.051 584.074 584.298 584.348 585.434 583.977C587.128 583.423 588.072 581.619 587.562 579.911C587.052 578.203 585.273 577.213 583.553 577.679Z" fill="#F7DBF7"/>
<path d="M651.828 488.036C676.238 491.744 678.544 464.601 686.37 449.474C694.655 433.459 701.813 424.283 705.729 405.617C722.504 404.675 738.074 406.597 754.775 408.776C800.676 414.767 848.379 427.601 888.421 451.305C896.746 456.233 907.447 464.228 915.048 470.222L915.08 470.388C887.374 513.127 844.453 547.086 793.995 557.655C791.245 558.231 787.157 559.005 784.363 558.949C768.549 560.552 761.997 559.808 746.514 557.644C749.554 546.206 755.867 528.549 754.776 516.945C752.919 497.196 743.656 476.348 734.546 458.917C732.839 455.649 729.811 452.156 727.697 448.946C727.316 445.83 725.84 442.415 723.288 440.48C721.1 438.834 718.338 438.146 715.633 438.574C701.495 440.874 716.542 456.535 723.415 457.444C732.429 476.826 746.371 500.619 743.733 522.543C742.563 532.268 738.723 545.588 736.004 555.118C730.388 552.359 724.527 550.624 718.383 547.364C690.191 532.403 670.406 513.731 651.828 488.036ZM762.124 436.587C759.618 436.923 757.489 438.584 756.554 440.933C755.62 443.281 756.025 445.952 757.614 447.917C759.203 449.883 761.73 450.838 764.222 450.415C767.984 449.778 770.54 446.243 769.968 442.47C769.396 438.698 765.905 436.08 762.124 436.587ZM762.134 467.47C760.401 469.332 759.365 470.076 759.554 472.681C760.064 479.687 762.619 484.367 762.814 491.622C763.066 501.012 757.721 506.087 757.918 514.719C757.967 516.866 759.297 521.897 759.877 524.209C762.213 522.074 763.437 521.111 765.189 518.4L764.465 518.107C763.356 517.667 762.589 517.496 761.432 517.21C760.956 516.601 760.806 516.07 761.124 515.264C764.637 506.358 766.408 496.662 769.266 487.761C771.958 479.377 778.616 466.72 762.134 467.47ZM780.146 486.389L779.893 486.768C778.069 489.452 771.031 495.456 775.645 499.316C777.076 500.514 780.419 501.288 782.297 501.397C793.644 499.218 788.228 487.192 780.146 486.389ZM717.081 514.515C708.299 518.078 711.003 527.756 719.954 529.018C728.292 525.693 725.841 514.746 717.081 514.515ZM763.79 525.72C757.259 533.179 762.06 542.696 772.266 540.735C779.28 535.154 767.026 526.006 763.79 525.72Z" fill="#F1C0E8"/>
<path d="M604.217 416.212L602.864 417.661L602.244 417.512L602.364 415.065C599.586 412.947 555.25 421.406 554.967 405.773C557.109 406.444 556.678 407.318 558.061 408.123C571.115 415.719 592.309 412.329 606.655 411.417C606.013 413.046 605.065 414.662 604.217 416.212Z" fill="black"/>
<path d="M432.349 421.522C430.821 420.911 430.868 420.99 429.674 419.884L429.865 419.164C432.72 418.05 437.249 418.258 440.339 417.618C448.463 415.934 455.558 412.382 462.636 408.355C464.332 408.353 463.645 408.072 464.845 408.977C464.007 410.432 461.925 411.502 460.457 412.4C451.548 417.85 442.609 420.196 432.349 421.522Z" fill="black"/>
<path d="M630.897 434.999C629.383 433.53 628.283 432.856 629.34 430.801C630.911 430.155 631.43 430.211 632.369 429.006C630.912 420.748 621.915 415.852 627.376 408.746C633.414 411.103 635.985 427.172 634.295 433.18L633.309 432.727C632.129 433.084 631.914 433.615 631.171 434.621L630.897 434.999Z" fill="#F1C0E8"/>
<path d="M400.553 421.163C398.094 419.525 397.835 416.491 397.324 413.77L398.556 414.448C399.854 416.502 400.072 418.739 400.553 421.163Z" fill="black"/>
<path d="M668.808 447.931C659.726 446.712 663.327 438.401 665.023 432.449C666.564 427.041 668.72 421.906 671.214 416.883C672.422 418.796 674.245 424.149 675.073 426.488C678.073 434.965 679.409 444.747 668.808 447.931Z" fill="#F7DBF7"/>
<path d="M617.194 422.991C619.239 421.288 620.147 420.208 621.893 418.246C621.686 421.369 618.935 423.224 616.523 425.531L613.388 420.793L612.861 419.536L613.133 418.897C614.63 419.78 616.019 421.63 617.194 422.991Z" fill="black"/>
<path d="M415.863 425.764C414.949 424.148 414.285 426.049 412.18 425.874C412.304 423.12 413.983 423.811 413.588 419.328C414.543 419.958 418.619 424.962 418.704 426.207C417.398 426.649 417.511 426.359 415.863 425.764Z" fill="black"/>
<path d="M562.99 431.222C561.288 429.925 558.231 427.804 557.11 425.975C556.268 424.6 556.984 423.734 557.577 422.16C559.128 423.389 558.668 423.197 559.343 425.539C560.658 426.784 560.104 426.414 562.533 426.349L562.934 427.187C562.613 428.834 562.712 429.121 562.924 430.739L562.99 431.222Z" fill="black"/>
<path d="M582.043 426.377C580.507 427.989 579.363 429.605 577.235 429.682C576.012 428.584 575.044 425.334 573.566 422.943L573.18 422.328C576.452 422.496 576.205 424.057 578.579 426.592C579.838 425.875 580.951 425.276 582.24 424.614L582.608 424.97L582.043 426.377Z" fill="black"/>
<path d="M458.406 428.599C454.97 429.155 454.038 431.576 451.376 429.644C450.841 427.653 450.589 427.014 450.88 424.992C452.017 425.61 452.808 426.402 453.808 427.248C455.322 427.21 455.192 426.779 456.654 425.311L457.412 425.503C458.602 427.456 458.339 426.445 458.406 428.599Z" fill="black"/>
<path d="M395.623 436.481C387.651 437.726 388.311 431.246 387.789 425.332C390.981 427.375 389.035 430.352 390.601 433.207C391.786 435.367 393.805 434.578 395.623 436.481Z" fill="black"/>
<path d="M596.795 434.315C594.708 430.758 595.425 429.905 597.656 426.852C598.197 428.835 598.21 431.65 597.838 433.672L596.795 434.315Z" fill="black"/>
<path d="M435.459 435.2C434.271 435.41 434.681 435.417 433.446 435.055C431.719 432.752 432.06 430.656 432.078 427.727L433.069 428.192C434.429 430.244 435.532 432.705 435.459 435.2Z" fill="black"/>
<path d="M620.058 438.613C616.598 438.489 613.57 434.018 613.59 430.699C615.572 431.502 619.353 436.534 620.058 438.613Z" fill="black"/>
<path d="M417.099 440.656L415.742 440.446C413.789 438.407 412.671 436.634 411.088 434.324C415.726 435.152 417.149 435.907 417.099 440.656Z" fill="black"/>
<path d="M365.514 465.111C353.488 455.872 356.746 444.809 365.247 434.832C367.209 441.562 369.501 459.547 370.862 467.51C369.021 466.804 367.297 465.952 365.514 465.111Z" fill="#F7DBF7"/>
<path d="M566.968 444.891C562.797 439.65 566.597 438.139 570.292 434.945C570.49 436.767 568.826 437.995 567.506 439.747C567.159 441.554 567.25 441.727 567.57 443.606L567.661 444.118L566.968 444.891Z" fill="black"/>
<path d="M764.222 450.414C761.73 450.837 759.203 449.882 757.614 447.916C756.025 445.951 755.62 443.28 756.554 440.932C757.489 438.583 759.618 436.922 762.124 436.586C765.905 436.079 769.396 438.697 769.968 442.469C770.54 446.242 767.984 449.777 764.222 450.414Z" fill="#FFFFFA"/>
<path d="M727.698 448.945C724.131 449.327 722.973 454.438 723.416 457.443C716.543 456.534 701.496 440.873 715.634 438.573C718.339 438.145 721.101 438.833 723.289 440.479C725.841 442.414 727.317 445.829 727.698 448.945Z" fill="#F7DBF7"/>
<path d="M637.268 444.146L636.344 443.69C636.553 442.22 639.143 440.438 640.629 439.012L641.365 439.987L641.163 441.063C639.703 442.861 639.332 442.951 637.268 444.146Z" fill="black"/>
<path d="M386.677 444.793C385.085 444.022 384.198 443.812 383.328 442.291C383.449 440.495 383.41 441.055 384.635 439.367C385.786 440.472 386.439 442.588 387.12 444.184L386.677 444.793Z" fill="black"/>
<path d="M451.377 442.56C446.636 444.555 445.737 443.505 443.395 439.273C446.929 440.806 447.245 440.399 450.795 441.106L451.377 442.56Z" fill="black"/>
<path d="M405.251 451.635L404.575 451.893C403.745 450.471 405.873 449.913 405.954 447.073C405.057 445.309 404.659 444.671 404.457 442.719L405.926 443.273C407.293 444.595 407.845 446.428 408.581 448.217L405.251 451.635Z" fill="black"/>
<path d="M433.97 456.51C433.474 456.308 433.823 456.48 433.083 455.751C433.435 454.491 433.796 453.934 434.399 452.777C433.733 451.017 433.799 451.517 431.709 450.299C430.979 448.431 431.103 449.428 431.782 447.176C432.554 447.533 435.524 450.814 437.317 452.185C436.269 453.887 435.267 454.98 433.97 456.51Z" fill="black"/>
<path d="M590.664 454.218L589.946 455.091L589.537 454.813C589.55 452.083 589.952 450.056 590.378 447.379C591.689 448.389 592.359 448.726 593.086 450.222C592.687 452.435 592.345 452.203 590.664 454.218Z" fill="black"/>
<path d="M448.472 453.454C446.909 453.3 445.76 453.364 444.477 452.499C444.416 450.84 445.013 450.583 446.088 448.863C446.636 449.099 448.071 450.073 448.652 450.444C449.405 452.241 449.312 451.279 448.472 453.454Z" fill="black"/>
<path d="M723.417 457.443C722.974 454.438 724.132 449.327 727.699 448.945C729.813 452.155 732.841 455.648 734.548 458.916C743.658 476.347 752.921 497.195 754.778 516.944C755.869 528.548 749.556 546.205 746.516 557.643C743.277 572.777 737.62 587.81 730.085 601.317C727.275 606.272 721.615 612.614 717.282 604.888C714.928 600.69 718.126 597.536 720.099 594.003C727.071 581.516 731.776 568.708 736.006 555.117C738.725 545.587 742.565 532.267 743.735 522.542C746.373 500.618 732.431 476.825 723.417 457.443Z" fill="#FFFFFA"/>
<path d="M630.069 456.463C627.088 455.564 625.98 453.894 626.28 450.871C629.726 451.786 630.173 453.238 630.069 456.463Z" fill="black"/>
<path d="M537.738 492.961C535.893 491.993 536.52 492.665 535.521 491.138C537.26 488.996 543.584 490.37 546.196 489.661C561.322 485.559 555.977 464.362 542.807 461.414C541.685 461.163 541.603 459.395 541.445 458.425C559.611 458.015 568.909 494.782 537.738 492.961Z" fill="black"/>
<path d="M486.864 492.303C465.581 502.012 455.229 472.405 476.37 459.371C477.538 459.434 477.566 459.585 478.719 460.013C480.084 462.714 468.381 466.461 468.158 474.472C467.651 479.866 467.246 482.427 470.103 486.971C474.253 493.57 484.832 488.772 486.864 492.303Z" fill="black"/>
<path d="M387.941 469.05C389.457 466.601 391.922 461.753 395.134 461.478C406.122 460.537 416.49 465.319 425.137 471.726C440.294 482.956 446.802 497.742 444.676 516.31C437.487 512.972 433.111 510.471 426.707 505.862C432.291 514.069 437.097 514.231 444.703 519.498C444.043 522.154 443.606 524.402 442.445 526.89C424.777 508.119 404.662 488.326 387.941 469.05ZM426.387 483.653C424.599 481.649 423.073 479.51 420.604 478.581L420.333 479.131C421.426 481.25 423.955 483.204 425.892 484.654C427.718 486.767 433.476 493.165 434.685 495.172C437.722 499.174 440.664 504.15 443.349 508.474L444.066 508.389L444.362 507.612C443.873 505.065 437.661 497.282 435.614 494.621C431.805 489.495 433.568 488.342 426.387 483.653ZM399.262 469.841C400.468 472.516 402.515 475.266 405.659 475.632C404.131 473.836 401.492 470.287 399.262 469.841ZM409.822 483.946C412.047 487.702 433.521 505.492 437.536 505.646C436.561 504.415 433.031 501.426 431.716 500.813C426.973 498.602 413.643 484.849 409.822 483.946Z" fill="#6BE1EA"/>
<path d="M615.155 465.675C618.54 463.937 620.461 462.941 624.03 461.703C626.85 462.239 630.098 462.588 632.494 464.002C633.997 466.542 632.047 466.287 633.622 469.226L634.134 469.614L636.101 468.365C641.879 469.702 637.127 492.498 637.387 497.493C637.434 498.391 635.456 502.425 634.986 503.462C631.175 511.875 625.149 517.178 617.736 522.3C610.119 527.563 600.75 533.495 591.094 530.742C586.021 529.295 579.997 525.57 578.701 520.18L578.923 519.719C597.886 510.951 617.286 500.701 626.354 480.605C609.621 502.945 601.848 505.206 578.411 517.112C577.667 515.727 577.828 516.504 578.372 514.632C577.543 513.771 576.728 512.925 575.779 512.193L575.342 508.268C586.327 503.975 596.99 496.034 605.295 487.755C597.619 491.296 590.28 497.597 582.763 502.236C579.523 500.478 578.638 501.754 576.026 499.796C577.165 497.87 578.451 495.903 579.649 494.003C583.813 492.558 586.067 490.857 589.561 488.334C592.647 486.787 600.594 479.385 603.007 476.625C604.261 475.903 614.493 466.862 615.155 465.675ZM612.036 492.359C608.497 494.542 595.485 501.299 596.39 505.79L596.691 505.573C599.736 499.986 608.33 496.975 612.785 492.776L612.036 492.359ZM619.467 505.942C617.558 507.849 613.471 512.082 610.679 513.89C604.122 518.134 595.56 523.339 588.463 527.016C588.407 527.235 588.35 527.454 588.294 527.673L588.52 527.91C595.443 526.185 618.431 513.559 619.878 506.439L619.467 505.942Z" fill="#6BE1EA"/>
<path d="M579.648 494.004C586.38 484.585 604.871 470.91 615.154 465.676C614.492 466.863 604.26 475.904 603.006 476.626C599.715 477.603 592.611 484.4 589.532 487.15C589.361 488.071 589.286 487.683 589.56 488.335C586.066 490.858 583.812 492.559 579.648 494.004Z" fill="url(#paint1_linear_2243_35936)"/>
<path d="M759.878 524.208C759.298 521.896 757.968 516.865 757.919 514.718C757.722 506.086 763.067 501.011 762.815 491.621C762.62 484.366 760.065 479.686 759.555 472.68C759.366 470.075 760.402 469.331 762.135 467.469C778.617 466.719 771.959 479.376 769.267 487.76C766.409 496.661 764.638 506.357 761.125 515.263C760.807 516.069 760.957 516.6 761.433 517.209C762.59 517.495 763.357 517.666 764.466 518.106L765.19 518.399C763.438 521.11 762.214 522.073 759.878 524.208Z" fill="#FFFFFA"/>
<path d="M387.942 469.051C404.663 488.327 424.778 508.12 442.446 526.891L441.709 528.431C433.427 520.682 426.873 512.046 419.088 504.356C408.796 494.19 397.813 481.293 387.111 471.915L387.942 469.051Z" fill="#FFFFFA"/>
<path d="M405.661 475.635C402.517 475.269 400.47 472.519 399.264 469.844C401.494 470.29 404.133 473.839 405.661 475.635Z" fill="#FFFFFA"/>
<path d="M915.08 470.387C962.126 512.391 976.575 559.376 938.407 613.755C928.522 627.84 925.934 641.816 920.153 657.114C917.585 660.203 914.392 664.737 911.553 667.317C892.011 685.078 864.252 680.461 842.381 671.754C841.83 671.187 840.725 670.336 840.077 669.8C830.369 662.336 825.108 657.267 816.749 648.687C804.546 636.162 799.264 621.681 782.526 615.661L781.971 615.268C778.619 604.872 777.83 587.833 780.067 577.312C781.338 571.333 783.105 565.123 784.363 558.948C787.157 559.004 791.245 558.23 793.995 557.654C844.453 547.085 887.374 513.126 915.08 470.387Z" fill="#CFBAF0"/>
<path d="M441.708 528.43C437.146 538.721 423.531 535.94 415.68 531.753C400.109 523.448 377.265 489.609 387.11 471.914C397.812 481.292 408.795 494.189 419.087 504.355C426.872 512.045 433.426 520.681 441.708 528.43ZM392.675 493.418C394.661 496.057 398.666 501.147 401.963 501.687C401.015 498.334 395.763 495.113 392.675 493.418ZM399.831 512.44C400.628 515.337 402.465 517.837 404.992 519.461C405.531 519.805 405.604 519.809 406.12 520.004C405.253 517.04 402.357 514.057 399.831 512.44ZM419.855 520.869C422.835 524.092 432.106 531.843 436.065 532.059C434.85 530.44 422.016 521.268 419.855 520.869Z" fill="#6BE1EA"/>
<path d="M537.598 487.47C535.699 487.251 533.072 487.524 531.438 487.206C524.81 485.916 526.796 478.697 531.36 475.984C537.47 476.294 542.079 479.883 540.887 487.087C540.753 487.892 540.403 487.849 539.686 488.224L537.598 487.47Z" fill="black"/>
<path d="M495.387 488.272C490.986 488.11 486.123 488.33 482.769 485.056C479.853 482.21 483.366 478.543 485.55 476.855C490.82 476.567 498.497 481.784 497.83 487.136C496.672 488.442 497.4 487.97 495.387 488.272Z" fill="black"/>
<path d="M589.56 488.334C589.286 487.682 589.361 488.07 589.532 487.149C592.611 484.399 599.715 477.602 603.006 476.625C600.593 479.385 592.646 486.787 589.56 488.334Z" fill="#D1F9F0"/>
<path d="M426.388 483.654L425.893 484.655C423.956 483.205 421.427 481.251 420.334 479.132L420.605 478.582C423.074 479.511 424.6 481.65 426.388 483.654Z" fill="#8EECF5"/>
<path d="M638.935 495.066L638.514 494.782C640.355 488.15 640.362 486.354 640.638 479.332C642.924 483.342 640.339 490.996 638.935 495.066Z" fill="#CFBAF0"/>
<path d="M578.41 517.112C601.847 505.206 609.62 502.945 626.353 480.605C617.285 500.701 597.885 510.951 578.922 519.719C578.553 518.952 578.527 518.004 578.41 517.112Z" fill="#FFFFFA"/>
<path d="M437.536 505.645C433.521 505.491 412.047 487.701 409.822 483.945C413.643 484.848 426.973 498.601 431.716 500.812C433.031 501.425 436.561 504.414 437.536 505.645Z" fill="#D1F9F0"/>
<path d="M425.893 484.653L426.388 483.652C433.569 488.341 431.806 489.494 435.615 494.62L434.686 495.171C433.477 493.164 427.719 486.766 425.893 484.653Z" fill="#FFFFFA"/>
<path d="M782.297 501.399C780.419 501.29 777.076 500.516 775.645 499.318C771.031 495.458 778.069 489.454 779.893 486.77L780.146 486.391C788.228 487.194 793.644 499.22 782.297 501.399Z" fill="#FFFFFA"/>
<path d="M626.5 558.013C637.018 539.538 641.27 527.247 646.69 506.897C647.362 504.374 650.961 488.94 651.829 488.035C670.407 513.73 690.192 532.402 718.384 547.363C724.528 550.623 730.389 552.358 736.005 555.117C731.775 568.708 727.07 581.516 720.098 594.003C718.125 597.536 714.927 600.69 717.281 604.888C721.614 612.614 727.274 606.272 730.084 601.317C737.619 587.81 743.276 572.777 746.515 557.643C761.998 559.807 768.55 560.551 784.364 558.948C783.106 565.123 781.339 571.333 780.068 577.312C777.831 587.833 778.62 604.872 781.972 615.268C756.854 615.963 745.867 637.718 730.544 654.279C722.973 651.554 715.344 648.992 707.662 646.597C706.498 643.983 703.873 639.185 702.446 636.231C701.455 639.402 700.782 641.286 699.461 644.328C694.561 642.426 689.283 640.355 684.905 637.425C685.268 627.018 685.631 618.946 681.651 609.032C672.677 586.676 648.15 567.288 626.5 558.013Z" fill="#D1F9F0"/>
<path d="M582.764 502.235C590.281 497.596 597.62 491.295 605.296 487.754C596.991 496.033 586.328 503.974 575.343 508.267C574.774 507.113 574.933 507.74 575.229 506.279C577.885 504.93 580.178 503.732 582.764 502.235Z" fill="#FFFFFA"/>
<path d="M524.406 494.214C516.349 509.134 499.507 503.139 497.984 489.742C501.44 491.197 503.931 497.123 508.659 499.445C516.942 503.513 520.254 493.208 523.479 492.171L524.24 492.752L524.406 494.214Z" fill="black"/>
<path d="M596.692 505.573L596.391 505.79C595.486 501.299 608.498 494.542 612.037 492.359L612.786 492.776C608.331 496.975 599.737 499.986 596.692 505.573Z" fill="#8EECF5"/>
<path d="M401.964 501.687C398.667 501.147 394.662 496.057 392.676 493.418C395.764 495.113 401.016 498.334 401.964 501.687Z" fill="#FFFFFA"/>
<path d="M435.615 494.621C437.662 497.282 443.874 505.065 444.363 507.612L444.067 508.389L443.35 508.474C440.665 504.15 437.723 499.174 434.686 495.172L435.615 494.621Z" fill="#8EECF5"/>
<path d="M575.229 506.281C575.323 503.563 575.497 502.478 576.026 499.797C578.638 501.755 579.523 500.479 582.763 502.237C580.177 503.734 577.885 504.932 575.229 506.281Z" fill="#8EECF5"/>
<path d="M588.521 527.909L588.295 527.672C588.351 527.453 588.408 527.234 588.464 527.015C595.561 523.338 604.123 518.133 610.68 513.889C613.472 512.081 617.559 507.848 619.468 505.941L619.879 506.438C618.432 513.558 595.444 526.184 588.521 527.909Z" fill="#FFFFFA"/>
<path d="M406.121 520.005C405.605 519.81 405.532 519.806 404.993 519.462C402.466 517.838 400.629 515.338 399.832 512.441C402.358 514.058 405.254 517.041 406.121 520.005Z" fill="#FFFFFA"/>
<path d="M719.955 529.019C711.004 527.757 708.3 518.079 717.082 514.516C725.842 514.747 728.293 525.694 719.955 529.019Z" fill="#FFFFFA"/>
<path d="M436.065 532.061C432.106 531.845 422.835 524.094 419.855 520.871C422.016 521.27 434.85 530.442 436.065 532.061Z" fill="#FFFFFA"/>
<path d="M490.879 553.347C482.6 556.622 474.266 562.09 465.572 563.727C449.791 566.697 443.678 554.116 453.562 542.296C462.887 531.144 479.068 524.363 493.507 524.999C500.233 525.296 507.122 527.191 513.889 527.298C520.712 527.246 527.885 525.464 534.755 524.703C540.521 524.285 549.414 526.496 554.767 528.932C561.002 531.405 573.671 540.833 575.121 547.77C580.141 571.775 548.073 559.594 537.649 555.401C531.778 553.04 525.5 551.368 520.998 550.619C510.95 548.946 500.235 550.216 490.879 553.347ZM488.416 527.685C475.801 529.301 463.746 534.104 455.361 544.199C446.275 555.138 454.151 564.289 466.96 560.653C473.026 558.932 478.755 555.746 484.553 553.258C501.137 544.884 517.015 545.909 534.57 551.324C541.355 553.61 581.06 571.04 571.817 547.061C568.961 539.653 556.397 531.764 549.291 529.763C534.089 524.348 527.435 529.82 512.96 529.917C504.991 529.971 497.304 526.842 488.416 527.685Z" fill="black"/>
<path d="M772.266 540.734C762.06 542.695 757.259 533.178 763.79 525.719C767.026 526.005 779.28 535.153 772.266 540.734Z" fill="#FFFFFA"/>
<path d="M534.571 551.324C517.016 545.909 501.138 544.884 484.554 553.258C478.756 555.746 473.027 558.932 466.961 560.653C454.152 564.289 446.276 555.138 455.362 544.199C463.747 534.104 475.802 529.301 488.417 527.685C497.305 526.842 504.992 529.971 512.961 529.917C527.436 529.82 534.09 524.348 549.292 529.763C556.398 531.764 568.962 539.653 571.818 547.061C581.061 571.04 541.356 553.61 534.571 551.324Z" fill="url(#paint2_linear_2243_35936)"/>
<path d="M619.092 538.179C617.252 538.61 617.171 538.77 615.313 538.239C612.944 535.717 614.18 533.816 616.017 531.438C618.787 531.389 620.207 531.488 621.175 534.159C620.854 536.226 620.459 536.468 619.092 538.179Z" fill="black"/>
<path d="M273.616 559.186C267.291 558.038 267.367 547.216 267.064 542.138C266.905 539.479 267.383 538.411 268.885 536.242C274.957 536.577 275.748 542.038 276.148 547.402C276.49 551.975 276.736 555.551 273.616 559.186Z" fill="#FFFFFA"/>
<path d="M604.574 555.795C603.793 555.564 603.024 555.295 602.269 554.989C600.501 554.254 600.071 553.721 599.389 552.182C599.811 550.031 599.672 550.706 601.388 548.855C604.49 548.878 606.448 549.266 606.943 552.7C606.458 554.45 605.972 554.646 604.574 555.795Z" fill="black"/>
<path d="M292.652 563.962C283.002 564.37 285.761 554.07 292.592 550.033C303.196 549.244 296.954 560.179 292.652 563.962Z" fill="#FFFFFA"/>
<path d="M422.055 559.676L426.043 556.453C431.272 558.096 431.576 561.14 427.582 564.603C424.695 562.887 424.207 562.151 422.055 559.676Z" fill="black"/>
<path d="M620.395 568.266C621.659 565.782 623.908 562.413 625.439 559.977C646.018 569.665 667.858 586.538 677.936 607.375C682.335 616.471 682.886 624.958 682.181 634.856C679.02 631.311 672.455 626.349 667.415 626.659C674.447 630.516 676.816 631.682 681.529 638.134C680.848 674.004 643.057 722.349 613.047 740.824C609.188 743.2 604.503 745.739 600.414 747.65C594.818 731.11 586.768 715.978 574.549 703.361C585.138 697.891 594.949 693.691 605.058 687.089C617.086 679.234 626.98 669.364 638.614 661.193C649.039 653.872 654.341 643.297 658.735 631.75C659.8 627.132 659.858 624.981 658.242 620.352C653.602 607.056 637.218 590.589 624.853 584.611C627.394 588.003 631.003 590.981 634.24 593.744C642.331 600.648 649.768 608.2 654.449 617.905C657.11 623.421 658.025 627.036 655.651 633.125C652.416 641.424 644.477 654.897 637.561 660.494C634.633 662.863 627.695 665.656 623.869 668.884C619.859 672.267 615.292 676.635 611.318 679.656C599.287 688.8 585.701 695.086 572.066 701.417C562.622 694.069 547.26 691.653 535.67 690.698C540.461 688.594 545.168 686.305 549.78 683.834C572.681 671.525 592.979 658.287 611.609 639.981C621.678 630.088 626.774 626.313 630.972 612.423C628.473 606.969 626.269 604.815 621.442 601.442C621.529 590.374 621.18 579.307 620.395 568.266ZM602.256 652.296L601.891 653.695L602.417 654.193C608.206 659.751 613.002 668.215 617.85 673.086C617.75 668.48 606.02 652.727 602.256 652.296Z" fill="#98F5E1"/>
<path d="M255.11 575.42C251.661 575.532 239.697 575.775 241.874 569.298C244.103 566.931 246.192 566.63 249.36 566.152C253.595 566.476 259.957 567.11 262.267 571.143C262.084 574.991 258.161 574.978 255.11 575.42Z" fill="#FFFFFA"/>
<path d="M593.649 575.659C591.041 575.703 589.933 573.612 589.318 571.399C591.422 571.211 591.715 571.228 593.296 572.505C594.026 574.071 593.984 573.954 593.649 575.659Z" fill="black"/>
<path d="M422.4 583.632C436.424 597.887 454.561 613.767 473.677 620.725C492.783 627.68 518.249 626.994 538.494 625.417C573.342 622.702 596.517 597.814 617.27 572.355C618.282 576.255 618.234 590.719 618.269 595.185C618.355 606.285 618.543 616.431 619.463 627.531C616.414 631.965 610.057 637.82 605.997 641.643C583.6 662.734 557.468 677.919 529.589 690.635C488.679 685.258 449.912 667.608 421.49 637.177C419.131 634.232 416.04 629.743 421.628 627.718C422.094 630.786 422.593 633.849 423.125 636.906C427.953 622.978 424.99 598.155 422.4 583.632ZM449.534 619.922C449.938 621.87 456.604 629.329 458.373 631.648C468.733 645.225 477.499 660.686 489.249 673.049C489.566 673.382 492.574 674.383 493.164 674.574C492.144 672 489.862 670.035 488.085 667.892C477.787 655.482 469.37 641.623 459.578 628.843C457.443 626.056 453.155 619.916 449.534 619.922Z" fill="#F7DBF7"/>
<path d="M502.334 576.545C512.097 573.897 519.713 572.924 529.545 576.59C531.735 577.134 533.126 577.574 535.251 578.338C534.948 584.324 537.709 581.429 538.959 583.992C535.98 583.744 528.922 579.784 524.758 579.964C523.488 580.018 518.032 579.382 516.375 579.237C518.03 578.153 517.52 578.885 517.977 576.978C510.603 576.951 513.08 579.169 504.354 578.659C503.762 578.618 503.559 578.467 502.977 578.245L502.334 576.545Z" fill="#90DBF4"/>
<path d="M419.998 580.54C420.106 582.347 420.535 584.659 420.819 586.485C412.531 588.14 405.517 607.333 407.393 614.752C407.399 615.303 407.414 615.854 407.438 616.405C407.932 628.708 422.94 643.047 431.442 650.777C417.196 660.576 411.092 668.08 406.148 684.184C395.334 677.131 380.931 664.885 377.221 652.312C366.561 616.181 379.791 587.977 414.886 575.348C416.428 577.065 418.346 578.888 419.998 580.54Z" fill="url(#paint3_linear_2243_35936)"/>
<path d="M293.195 585.332C286.945 587.027 274.972 582.821 284.86 576.609C288.911 576.301 293.367 576.343 296.63 579.078C297.973 582.178 295.612 583.717 293.195 585.332Z" fill="#FFFFFA"/>
<path d="M491.936 581.088C495.022 579.123 498.88 577.845 502.335 576.547L502.978 578.247C503.56 578.469 503.763 578.62 504.355 578.661C500.042 580.138 496.508 581.695 491.936 581.088Z" fill="#A3C4F3"/>
<path d="M504.355 578.662C513.081 579.172 510.604 576.954 517.978 576.981C517.521 578.888 518.031 578.156 516.376 579.24C518.033 579.385 523.489 580.021 524.759 579.967C528.923 579.787 535.981 583.747 538.96 583.995C537.71 581.432 534.949 584.327 535.252 578.341C538.802 580.049 542.191 581.743 545.117 584.443C542.32 586.914 545.03 587.276 542.679 587.826C540.726 586.908 536.054 584.147 534.427 583.675C527.98 581.805 497.361 576.894 494.132 583.823C494.887 585.341 495.26 585.362 496.722 586.241C498.492 586.302 500.306 586.202 501.89 586.915C500.545 591.292 494.553 585.636 492.529 586.486C488.761 588.067 485.161 589.819 481.266 591.1C484.698 586.317 486.564 583.8 491.936 581.089C496.508 581.696 500.042 580.139 504.355 578.662Z" fill="#D1F9F0"/>
<path d="M585.432 583.976C584.296 584.347 583.049 584.073 582.173 583.26C581.298 582.447 580.932 581.224 581.219 580.064C581.505 578.904 582.398 577.991 583.551 577.678C585.271 577.212 587.05 578.202 587.56 579.91C588.07 581.618 587.126 583.422 585.432 583.976Z" fill="black"/>
<path d="M481.264 591.099C485.159 589.818 488.759 588.066 492.527 586.485C494.551 585.635 500.543 591.291 501.888 586.914C500.304 586.201 498.49 586.301 496.72 586.24C495.258 585.361 494.885 585.34 494.13 583.822C497.359 576.893 527.978 581.804 534.425 583.674C536.052 584.146 540.724 586.907 542.677 587.825C545.028 587.275 542.318 586.913 545.115 584.442C546.359 585.646 548.848 587.801 549.501 589.235L548.988 589.552L547.477 588.634C547.113 590.282 550.373 594.276 551.495 595.82C550.283 599.586 548.782 604.979 547.253 608.421C542.78 606.951 538.333 605.401 533.914 603.774C535.489 605.837 541.787 608.499 544.426 610.305C542.144 615.221 494.056 615.534 487.574 611.069C481.7 607.023 476.595 603.654 481.675 596.051C482.449 594.892 480.817 595.009 480.175 593.485L481.264 591.099ZM502.07 592.618C497.27 593.763 481.303 598.543 483.183 605.273C487.048 602.843 488.28 599.931 493.224 597.942C497.279 596.311 499.63 595.535 504.073 594.735C509.621 594.319 513.72 593.867 519.125 595.337C520.975 596.066 523.832 597.759 525.237 595.926C523.871 594.147 523.77 594.535 521.388 593.501C514.125 591.111 509.453 591.498 502.07 592.618ZM504.289 602.56C501.197 602.418 493.682 601.434 491.748 603.007C493.946 605.733 503.746 605.638 506.52 604.022C506.66 603.299 506.499 603.617 507.01 603.073L507.692 603.822C510.757 603.845 517.576 605.082 518.98 604.634L518.545 603.703C515.442 602.111 508.207 602.684 504.289 602.56ZM508.893 583.885C510.57 585.262 512.351 586.786 514.089 588.06C522.685 587.881 538.032 594.404 540.548 593.703C539.773 592.542 539.81 592.563 538.736 591.681C537.446 590.79 536.202 589.738 534.716 589.383C534.637 590.173 535.251 590.886 535.726 591.75C529.565 590.439 522.162 586.753 515.639 585.793C513.295 585.448 510.986 584.014 508.893 583.885ZM490.451 591.28C488.139 592.644 487.52 592.927 485.764 594.915L485.765 595.712L486.739 595.613C488.558 594.518 491.006 593.591 491.764 592.106C490.879 591.355 491.336 591.596 490.451 591.28ZM535.643 598.428C539.312 601.342 541.629 604.153 546 603.907C544.109 602.44 537.87 598.559 535.643 598.428Z" fill="#6BE1EA"/>
<path d="M302.121 659.277C300.336 660.028 298.556 660.792 296.782 661.567C283.884 643.497 273.208 625.843 268.45 603.844C267.404 599.005 263.129 588.468 266.044 584.324C272.183 580.367 273.815 590.89 274.42 594.962C278.139 620 289.671 638.116 302.121 659.277Z" fill="#FFFFFA"/>
<path d="M514.091 588.062C512.353 586.788 510.572 585.264 508.895 583.887C510.988 584.016 513.297 585.45 515.641 585.795C522.164 586.755 529.567 590.441 535.728 591.752C535.253 590.888 534.638 590.175 534.717 589.385C536.203 589.74 537.448 590.792 538.738 591.683C539.812 592.565 539.775 592.544 540.55 593.705C538.034 594.406 522.687 587.883 514.091 588.062Z" fill="#D1F9F0"/>
<path d="M420.818 586.484C421.797 592.604 422.329 596.784 422.807 603.003C415.759 605.72 411.56 607.964 407.392 614.751C405.516 607.332 412.53 588.139 420.818 586.484Z" fill="#98F5E1"/>
<path d="M486.741 595.614L485.767 595.713L485.766 594.916C487.522 592.928 488.141 592.645 490.453 591.281C491.338 591.597 490.881 591.356 491.766 592.107C491.008 593.592 488.56 594.519 486.741 595.614Z" fill="#8EECF5"/>
<path d="M502.07 592.62C509.453 591.5 514.125 591.113 521.388 593.503C523.77 594.537 523.871 594.149 525.237 595.928C523.832 597.761 520.975 596.068 519.125 595.339C513.72 593.869 509.621 594.321 504.073 594.737C503.229 592.992 503.831 593.712 502.07 592.62Z" fill="#292010"/>
<path d="M504.074 594.734C499.631 595.534 497.28 596.31 493.225 597.941C488.281 599.93 487.049 602.842 483.184 605.272C481.304 598.542 497.271 593.762 502.071 592.617C503.832 593.709 503.23 592.989 504.074 594.734Z" fill="url(#paint4_linear_2243_35936)"/>
<path d="M546.002 603.909C541.631 604.155 539.314 601.344 535.645 598.43C537.872 598.561 544.111 602.442 546.002 603.909Z" fill="#D1F9F0"/>
<path d="M506.52 604.021C503.746 605.637 493.946 605.732 491.748 603.006C493.682 601.433 501.197 602.417 504.289 602.559C505.017 603.01 505.872 603.489 506.52 604.021Z" fill="#FFFFFA"/>
<path d="M504.289 602.558C508.207 602.682 515.442 602.109 518.545 603.701L518.98 604.632C517.576 605.08 510.757 603.843 507.692 603.82L507.01 603.071C506.499 603.615 506.66 603.297 506.52 604.02C505.872 603.488 505.017 603.009 504.289 602.558Z" fill="#D1F9F0"/>
<path d="M544.426 610.304C541.787 608.498 535.489 605.836 533.914 603.773C538.333 605.4 542.78 606.95 547.253 608.42L544.426 610.304Z" fill="#FFFFFA"/>
<path d="M621.942 626.695C621.391 619.856 621.5 612.642 621.642 605.785C629.849 611.016 628.561 615.657 624.688 623.19C623.858 624.44 622.898 625.538 621.942 626.695Z" fill="#98F5E1"/>
<path d="M414.77 628.56C407.721 615.972 408.708 612.817 421.728 606.355L422.595 606.715C423.111 608.611 422.657 621.4 422.604 624.273C419.263 626.312 417.664 629.231 415.865 629.902L414.77 628.56Z" fill="#98F5E1"/>
<path d="M292.117 619.929C291.761 619.964 291.404 619.993 291.047 620.018C289.14 620.142 288.047 620.168 286.581 618.887C285.439 613.97 296.927 609.482 300.733 608.077C303.272 607.993 305.152 607.739 306.659 609.948C306.537 615.216 296.411 618.874 292.117 619.929Z" fill="#FFFFFA"/>
<path d="M730.545 654.281C745.868 637.72 756.855 615.965 781.973 615.27L782.528 615.663C780.163 621.236 805.284 652.769 813.391 655.645C816.763 656.841 828.431 664.779 830.71 667.36L828.633 667.764C832.498 667.917 838.497 671.227 839.849 670.499L840.079 669.802C840.727 670.338 841.832 671.189 842.383 671.756C844.752 674.898 859.975 684.8 864.252 688.343C878.824 700.413 888.236 711.621 898.569 727.138L898.592 727.402C883.399 751.019 860.897 762.302 833.644 766.077C827.313 749.582 819.813 733.56 811.201 718.133C794.098 686.782 764.983 663.734 730.545 654.281Z" fill="#C1F3CD"/>
<path d="M840.078 669.799L839.849 670.496C838.497 671.224 832.497 667.914 828.632 667.761L830.709 667.357C828.43 664.776 816.762 656.838 813.39 655.642C805.283 652.766 780.162 621.233 782.527 615.66C799.265 621.68 804.547 636.161 816.75 648.686C825.109 657.266 830.37 662.335 840.078 669.799Z" fill="#B9FBC0"/>
<path d="M493.163 674.574C492.573 674.383 489.565 673.382 489.248 673.049C477.498 660.686 468.732 645.225 458.372 631.648C456.603 629.329 449.937 621.87 449.533 619.922C453.154 619.916 457.442 626.056 459.577 628.843C469.369 641.623 477.786 655.482 488.084 667.892C489.861 670.035 492.143 672 493.163 674.574Z" fill="black"/>
<path d="M363.649 639.872C365.944 638.095 368.23 635.913 370.393 633.949C371.12 634.903 371.891 643.848 372.453 646.221C374.369 654.422 378.291 663.065 384.201 669.216C419.626 706.087 470.128 717.225 518.979 720.418C514.899 733.407 509.512 745.14 505.598 758.781L504.141 763.455C487.053 760.896 470.29 756.503 454.143 750.352C424.551 738.838 397.968 720.442 380.272 693.715C370.344 678.721 356.256 658.503 363.649 639.872Z" fill="#98F5E1"/>
<path d="M699.461 644.327C700.782 641.285 701.455 639.401 702.446 636.23C703.873 639.184 706.498 643.982 707.662 646.596L699.461 644.327Z" fill="#C1F3CD"/>
<path d="M187.592 639.584C215.305 634.549 250.12 645.395 274.522 658.153C277.366 659.639 286.606 663.614 288.641 664.905C262.597 678.015 249.447 689.294 233.418 713.78C230.536 712.085 220.355 709.244 216.1 707.516L213.721 704.389C210.239 696.793 205.624 689.176 202.162 681.256C196.143 667.483 191.94 653.931 187.592 639.584Z" fill="#A3C4F3"/>
<path d="M121.762 712.38C123.859 688.03 135.736 664.252 156.712 650.895C166.918 644.396 176.031 642.051 187.593 639.586C191.941 653.933 196.144 667.485 202.163 681.258C205.625 689.178 210.24 696.795 213.722 704.391C180.055 694.482 154.168 694.708 122.699 711.858C122.385 712.028 122.073 712.202 121.762 712.38Z" fill="#F7DBF7"/>
<path d="M684.202 640.578C695.085 646.332 700.501 647.614 712.258 650.822C711.611 653.99 711.976 658.616 712.101 661.966C705.235 669.877 703.886 670.65 698.452 680.532C690.728 675.224 683.018 676.712 674.1 674.003C679.268 662.791 683.209 652.952 684.202 640.578Z" fill="#C1F3CD"/>
<path d="M302.469 661.693C321.092 655.414 340.234 650.037 359.096 644.445C356.926 668.619 377.481 697.731 393.842 714.597C391.711 720.992 396.769 740.516 394.673 752.02C385.547 744.938 375.818 735.395 367.516 727.321C358.117 718.245 348.787 709.098 339.528 699.88C329.765 690.175 310.641 672.04 302.469 661.693Z" fill="#90DBF4"/>
<path d="M712.256 650.824C717.728 652.539 723.17 654.343 728.583 656.235C727.566 659.437 724.206 663.113 722.004 665.931C721.386 666.753 720.077 668.4 719.57 669.197C715.742 675.167 708.477 686.578 706.143 693.008C703.246 696.995 688.896 713.666 688.736 716.236C689.558 717.482 690.015 718.044 691.557 718.555C696.987 721.104 701.887 726.522 708.17 729.127C725.421 736.282 743.043 740.679 759.4 750.032C761.28 751.107 769.289 753.059 770.084 754.352L769.843 754.668C769.003 754.993 767.448 755.467 766.612 755.161C759.601 752.591 752.526 749.432 745.515 746.81C727.416 740.04 705.931 736.973 691.181 723.784C689.776 722.529 687.247 718.747 686.127 717.112C675.339 727.492 658.939 742.334 645.27 748.553C633.425 753.942 630.892 742.722 645.851 735.712C654.883 731.479 676.79 714.6 681.664 706.245C686.834 697.384 691.729 689.572 698.45 680.534C703.884 670.652 705.233 669.879 712.099 661.968C711.974 658.618 711.609 653.992 712.256 650.824Z" fill="#FFFFFA"/>
<path d="M407.096 684.921C414.752 669.551 416.918 662.284 432.58 651.965C446.363 661.454 452.007 665.971 467.354 674.301C459.237 684.496 454.167 693.783 448.636 705.397L443.08 703.563C429.716 698.249 418.986 693.156 407.096 684.921Z" fill="#98F5E1"/>
<path d="M617.85 673.087C613.002 668.216 608.206 659.752 602.417 654.194L601.891 653.696L602.256 652.297C606.02 652.728 617.75 668.481 617.85 673.087Z" fill="black"/>
<path d="M728.585 656.234C792.257 679.926 805.642 705.723 830.914 765.941C809.6 766.188 791.846 761.791 773.01 752.167C782.066 739.238 789.664 727.26 791.172 710.724C791.893 702.812 786.325 696.208 781.117 690.796C768.579 677.768 752.684 671.174 735.156 668.064C730.806 667.292 726.505 666.024 722.006 665.93C724.208 663.112 727.568 659.436 728.585 656.234Z" fill="#C1F3CD"/>
<path d="M842.383 671.753C864.254 680.46 892.013 685.077 911.555 667.316C914.394 664.736 917.587 660.202 920.155 657.113C917.41 673.962 914.528 691.609 907.977 707.431C906.144 711.858 901.334 724.177 898.569 727.135C888.236 711.618 878.824 700.41 864.252 688.34C859.975 684.797 844.752 674.895 842.383 671.753Z" fill="#D1F9F0"/>
<path d="M297.445 663.8L302.469 661.691C310.641 672.038 329.765 690.173 339.528 699.878C348.787 709.096 358.117 718.243 367.516 727.319C375.818 735.393 385.547 744.936 394.673 752.018C419.917 771.328 440.875 784.295 471.813 793.205C474.865 794.084 478.266 794.955 479.021 798.49C478.602 799.744 478.536 799.996 477.233 800.571C470.37 803.597 437.571 787.771 429.551 783.365C424.135 780.389 418.881 777.116 413.616 773.883C414.108 777.258 414.243 781.037 409.596 782.177C408.113 782.541 405.704 780.985 404.746 779.91C401.898 775.874 405.837 772.601 408.764 771.042C405.809 768.443 398.757 764.239 395.052 761.585C370.983 741.296 348.304 716.816 325.667 694.894C319.056 688.492 311.342 681.116 305.271 674.305C302.64 671.066 299.574 667.349 297.445 663.8Z" fill="#FFFFFA"/>
<path d="M291.844 666.085L297.445 663.801C299.574 667.35 302.64 671.067 305.271 674.306C299.996 673.319 293.9 671.364 291.844 666.085Z" fill="#90DBF4"/>
<path d="M230.854 722.886C247.331 695.879 262.345 679.326 291.844 666.086C293.9 671.365 299.996 673.32 305.271 674.307C311.342 681.118 319.056 688.494 325.667 694.896C348.304 716.818 370.983 741.298 395.052 761.587C394.293 770.279 397.303 780.096 398.342 788.301C400.086 802.06 402.231 828.807 399.663 842.205C398.059 841.041 390.284 837.86 388.032 836.932C376.981 832.378 364.404 828.5 352.797 825.621C335.854 821.418 324.418 820.78 309.329 810.822C294.503 801.038 288.513 791.639 276.928 778.922C269.872 771.175 261.904 763.948 254.873 755.76C251.027 751.28 239.779 735.801 235.64 733.447C235.205 731.312 232.343 724.708 230.854 722.886ZM299.578 712.889C296.415 713.043 293.985 715.746 294.168 718.907C294.35 722.068 297.075 724.474 300.234 724.263C303.354 724.055 305.722 721.372 305.542 718.251C305.362 715.13 302.7 712.737 299.578 712.889ZM341.637 742.254C339.282 743.239 338.174 745.948 339.165 748.299C340.155 750.651 342.869 751.751 345.217 750.754C347.557 749.761 348.652 747.061 347.665 744.718C346.678 742.376 343.982 741.274 341.637 742.254ZM315.104 769.939C311.455 770.872 309.217 774.548 310.066 778.218C310.915 781.888 314.54 784.208 318.228 783.443C320.69 782.932 322.683 781.129 323.435 778.729C324.188 776.33 323.582 773.712 321.852 771.887C320.123 770.062 317.54 769.317 315.104 769.939ZM392.709 779.964C391.472 780.192 390.459 781.076 390.064 782.27C389.67 783.464 389.957 784.778 390.814 785.698C391.671 786.618 392.961 786.999 394.18 786.69C395.982 786.234 397.097 784.431 396.7 782.615C396.303 780.799 394.537 779.626 392.709 779.964ZM364.66 784.407C362.289 785.447 361.187 788.195 362.184 790.585C363.181 792.975 365.908 794.126 368.316 793.173C369.913 792.541 371.045 791.095 371.275 789.393C371.505 787.691 370.799 785.998 369.427 784.964C368.056 783.93 366.233 783.717 364.66 784.407Z" fill="#A3C4F3"/>
<path d="M722.004 665.93C726.503 666.024 730.804 667.292 735.154 668.064C752.682 671.174 768.577 677.768 781.115 690.796C786.323 696.208 791.891 702.812 791.17 710.724C789.662 727.26 782.064 739.238 773.008 752.167L772.463 752.674C768.403 751.829 766.127 747.764 763.445 744.587C758.738 739.01 754.27 735.363 748.574 731.098C745.008 728.427 733.011 724.875 730.749 722.633C743.92 715.335 717.635 703.185 722.276 719.971C720.886 720.071 716.928 718.943 714.978 718.715C708.307 717.934 698.103 717.367 691.557 718.554C690.015 718.043 689.558 717.481 688.736 716.235C688.896 713.665 703.246 696.994 706.143 693.007C710.341 689.051 714.712 684.058 719.954 681.951L720.667 681.671C721.113 679.619 719.961 671.537 719.57 669.196C720.077 668.399 721.386 666.752 722.004 665.93ZM748.859 693.708C750.114 699.539 751.452 705.218 756.648 708.886C760.599 711.676 765.255 710.357 768.51 707.222C772.647 697.854 762.232 698.307 756.373 700.104C754.792 698.597 750.571 694.286 748.859 693.708Z" fill="#B9FBC0"/>
<path d="M706.145 693.006C708.479 686.576 715.744 675.165 719.572 669.195C719.963 671.536 721.115 679.618 720.669 681.67L719.956 681.95C714.714 684.057 710.343 689.05 706.145 693.006Z" fill="#98F5E1"/>
<path d="M601.271 750.081C608.049 746.424 618.142 741.271 623.961 736.777C644.89 720.615 662.506 697.491 674.099 674.004C683.017 676.713 690.727 675.225 698.451 680.533C691.73 689.571 686.835 697.383 681.665 706.244C676.791 714.599 654.884 731.478 645.852 735.711C630.893 742.721 633.426 753.941 645.271 748.552C658.94 742.333 675.34 727.491 686.128 717.111C687.248 718.746 689.777 722.528 691.182 723.783C705.932 736.972 727.417 740.039 745.516 746.809C752.527 749.431 759.602 752.59 766.613 755.16C767.449 755.466 769.004 754.992 769.844 754.667L770.086 754.351C769.291 753.058 761.281 751.106 759.401 750.031C743.044 740.678 725.423 736.281 708.172 729.126C701.889 726.521 696.988 721.103 691.558 718.554C698.104 717.367 708.308 717.934 714.979 718.715C716.929 718.943 720.887 720.071 722.277 719.971C725.739 722.065 726.708 722.339 730.75 722.633C733.012 724.875 745.01 728.427 748.576 731.098C754.272 735.363 758.739 739.01 763.446 744.587C766.128 747.764 768.404 751.829 772.464 752.674C770.4 758.217 762.41 768.399 758.204 773.338C724.341 813.116 678.883 841.383 632.068 863.508C627.521 865.657 621.405 867.855 617.201 870.144C623.13 826.136 614.963 791.668 601.271 750.081ZM692.54 759.007C683.385 764.418 689.915 771.863 697.683 771.036C705.97 766.48 700.557 758.472 692.54 759.007ZM739.893 766.103C736.89 767.571 731.432 770.637 733.776 775.122C735.729 778.86 740.013 778.552 743.665 778.496C756.972 775.556 750.34 765.394 739.893 766.103Z" fill="#98F5E1"/>
<path d="M450.488 705.824C455.426 695.63 461.673 683.675 469.199 675.312C491.411 686.137 501.421 688.994 525.741 692.715C525.081 699.145 521.721 710.741 519.968 717.428C516.303 717.508 512.782 717.304 509.123 717.132C489.476 716.288 469.203 711.648 450.488 705.824Z" fill="#98F5E1"/>
<path d="M506.881 763.681C511.075 748.88 515.564 737.685 520.742 723.329C523.904 714.564 525.362 702.399 528.834 693.074C540.57 693.101 554.333 695.102 565.028 700.271C580.693 707.842 592.944 732.651 598.298 748.741C588.937 753 580.695 755.546 570.885 758.372C553.533 762.911 538.854 765.03 520.932 764.626C516.406 764.524 511.297 764.662 506.881 763.681ZM551.27 714.172C547.462 714.859 544.978 715.887 542.624 719.175C540.591 722.023 539.813 725.579 540.469 729.016C541.009 732.006 542.788 734.628 545.367 736.234C547.94 737.822 550.099 737.852 553.011 737.773C567.428 733.602 568.08 713.875 551.27 714.172Z" fill="#98F5E1"/>
<path d="M768.51 707.221C765.255 710.356 760.599 711.675 756.648 708.885C751.452 705.217 750.114 699.538 748.859 693.707C750.571 694.285 754.792 698.596 756.373 700.103C762.232 698.306 772.647 697.853 768.51 707.221Z" fill="#FFFFFA"/>
<path d="M121.761 712.38C122.072 712.202 122.384 712.028 122.698 711.858C154.167 694.708 180.054 694.482 213.721 704.391L216.1 707.518C217.985 712.054 220.026 717.441 222.61 721.54C223.812 721.927 226.376 722.665 227.432 723.113C213.476 747.344 204.732 776.573 200.545 804.161C200.01 807.687 198.419 816.642 199.387 819.595L200.054 819.866C201.615 818.55 202.612 807.908 203.05 804.919C207.222 776.448 215.886 747.769 230.854 722.888C232.343 724.71 235.205 731.314 235.64 733.449C240.707 747.793 255.905 777.805 264.944 788.996C272.119 798.021 280.773 805.763 290.539 811.892C292.928 813.397 300.758 817.596 302.228 819.166C324.313 842.773 346.066 865.003 375.914 879.245C377.991 880.232 380.077 881.198 382.172 882.144C360.888 898.97 343.54 890.941 319.515 893.973C308.873 895.317 280.731 905.115 272.431 912.005L271.68 912.068C264.142 910.229 255.793 909.144 247.928 907.181C228.196 902.254 207.143 889.225 192.858 874.495C159.512 840.108 133.451 793.126 123.695 746.116C121.497 735.526 121.482 723.369 121.517 712.754L121.761 712.38Z" fill="#FFCFD2"/>
<path d="M216.1 707.516C220.355 709.244 230.536 712.085 233.418 713.78C231.466 716.826 229.438 720.129 227.432 723.111C226.376 722.663 223.812 721.925 222.61 721.538C220.026 717.439 217.985 712.052 216.1 707.516Z" fill="#F7DBF7"/>
<path d="M722.277 719.972C717.636 703.186 743.921 715.336 730.75 722.634C726.708 722.34 725.739 722.066 722.277 719.972Z" fill="#FFFFFA"/>
<path d="M300.234 724.264C297.075 724.475 294.35 722.069 294.168 718.908C293.985 715.747 296.415 713.044 299.578 712.89C302.7 712.738 305.362 715.131 305.542 718.252C305.722 721.373 303.354 724.056 300.234 724.264Z" fill="#FFFFFA"/>
<path d="M271.681 912.068C266.693 915.186 261.647 918.572 256.519 921.424C197.217 954.407 114.922 934.446 81.6591 872.897C65.3353 842.915 61.8345 807.605 71.9533 775.001C79.8164 748.927 97.3744 725.668 121.518 712.754C121.483 723.369 121.498 735.526 123.696 746.116C133.452 793.126 159.513 840.108 192.859 874.495C207.144 889.225 228.197 902.254 247.929 907.181C255.794 909.144 264.143 910.229 271.681 912.068Z" fill="#FBF8CC"/>
<path d="M553.009 737.776C550.097 737.855 547.939 737.825 545.366 736.237C542.787 734.631 541.007 732.009 540.467 729.019C539.811 725.582 540.589 722.026 542.622 719.178C544.976 715.89 547.46 714.862 551.268 714.175C568.078 713.878 567.426 733.605 553.009 737.776ZM550.629 717.103C539.297 720.606 540.236 736.119 553.254 734.544C558.516 732.636 562.662 727.755 560.406 722.004C559.645 720.085 558.144 718.553 556.241 717.752C554.597 717.053 552.391 717.002 550.629 717.103Z" fill="black"/>
<path d="M393.842 714.598C417.781 738.109 443.013 751.304 475.372 760.001C484.077 762.34 494.775 764.957 503.717 765.72C494.79 800.871 495.121 834.885 510.611 868.55C510.994 869.383 511.609 869.79 512.353 870.212L513.151 869.743C513.307 869.099 513.557 868.756 513.285 868.165C497.663 834.2 497.13 801.922 506.042 766.24C540.212 768.346 567.078 765.3 598.87 751.123C612.046 791.334 621.472 828.747 614.153 871.415C608.496 872.721 601.38 876.25 595.578 878.115C584.776 881.586 573.817 884.719 562.762 887.268C533.461 893.11 502.775 896.317 472.883 896.566C461.594 896.66 450.292 896.635 439.002 896.61C438.815 893.782 438.363 890.977 437.653 888.233C432.032 866.385 418.357 853.952 399.765 843.022L399.663 842.206C402.231 828.808 400.087 802.061 398.343 788.302C397.304 780.097 394.293 770.28 395.052 761.588C398.757 764.242 405.809 768.446 408.764 771.045C405.837 772.604 401.898 775.877 404.746 779.913C405.704 780.988 408.113 782.544 409.596 782.18C414.243 781.04 414.108 777.261 413.616 773.886C418.881 777.119 424.135 780.392 429.551 783.368C437.571 787.774 470.37 803.6 477.233 800.574C478.536 799.999 478.602 799.747 479.021 798.493C478.266 794.958 474.865 794.087 471.813 793.208C440.875 784.298 419.917 771.331 394.673 752.021C396.769 740.517 391.711 720.993 393.842 714.598Z" fill="#98F5E1"/>
<path d="M553.255 734.543C540.237 736.118 539.297 720.605 550.629 717.102C552.391 717.001 554.598 717.052 556.242 717.751C558.145 718.552 559.646 720.084 560.407 722.003C562.663 727.754 558.517 732.635 553.255 734.543Z" fill="#98F5E1"/>
<path d="M898.591 727.402C920.854 761.274 916.215 820.893 897.851 855.749C884.943 880.249 861.811 904.168 838.765 919.524C803.645 942.839 770.999 948.295 730.318 939.409C692.581 931.166 662.352 913.134 626.134 901.977C617.34 899.339 608.455 897.016 599.495 895.012C592.577 893.525 566.702 889.749 562.762 887.268C573.817 884.719 584.776 881.586 595.578 878.115C601.38 876.25 608.496 872.721 614.153 871.415C613.411 874.931 610.28 884.475 611.499 886.833L612.322 886.47C614.77 882.221 616.069 875.099 617.201 870.145C621.405 867.856 627.52 865.658 632.067 863.509C678.882 841.384 724.341 813.117 758.204 773.339C762.41 768.4 770.4 758.218 772.464 752.675L773.009 752.168C791.845 761.792 809.599 766.189 830.913 765.942C837.217 782.23 842.211 798.908 845.564 816.089C846.27 819.71 845.939 824.571 848.553 825.976C852.222 820.412 837.267 774.382 833.643 766.077C860.896 762.302 883.398 751.019 898.591 727.402Z" fill="#FBF8CC"/>
<path d="M235.641 733.445C239.78 735.799 251.028 751.278 254.874 755.758C261.905 763.946 269.873 771.173 276.929 778.92C288.514 791.637 294.504 801.036 309.33 810.82C324.419 820.778 335.855 821.416 352.798 825.619C364.405 828.498 376.982 832.376 388.033 836.93C390.285 837.858 398.06 841.039 399.664 842.203L399.766 843.019C397.944 856.164 391.53 872.14 382.567 882.072L382.173 882.14C380.078 881.194 377.992 880.228 375.915 879.241C346.067 864.999 324.314 842.769 302.229 819.162C300.759 817.592 292.929 813.393 290.54 811.888C280.774 805.759 272.12 798.017 264.945 788.992C255.906 777.801 240.708 747.789 235.641 733.445Z" fill="#CFBAF0"/>
<path d="M345.217 750.752C342.869 751.749 340.156 750.649 339.166 748.297C338.175 745.946 339.282 743.237 341.637 742.252C343.982 741.272 346.678 742.374 347.665 744.716C348.652 747.059 347.557 749.759 345.217 750.752Z" fill="#FFFFFA"/>
<path d="M697.683 771.035C689.915 771.862 683.385 764.417 692.54 759.006C700.557 758.471 705.97 766.479 697.683 771.035Z" fill="#FFFFFA"/>
<path d="M743.665 778.495C740.013 778.551 735.73 778.859 733.777 775.121C731.433 770.636 736.89 767.57 739.893 766.102C750.34 765.393 756.972 775.555 743.665 778.495Z" fill="#FFFFFA"/>
<path d="M318.228 783.442C314.54 784.207 310.916 781.887 310.067 778.217C309.218 774.547 311.455 770.871 315.104 769.938C317.54 769.316 320.123 770.061 321.852 771.886C323.582 773.711 324.188 776.329 323.435 778.728C322.683 781.128 320.69 782.931 318.228 783.442Z" fill="#FFFFFA"/>
<path d="M394.18 786.69C392.961 786.999 391.671 786.618 390.814 785.698C389.957 784.778 389.67 783.464 390.064 782.27C390.459 781.076 391.472 780.192 392.709 779.964C394.537 779.626 396.303 780.799 396.7 782.615C397.097 784.431 395.982 786.234 394.18 786.69Z" fill="#FFFFFA"/>
<path d="M368.317 793.174C365.909 794.127 363.181 792.976 362.184 790.586C361.187 788.196 362.289 785.448 364.66 784.408C366.233 783.718 368.056 783.931 369.427 784.965C370.799 785.999 371.505 787.692 371.275 789.394C371.045 791.096 369.914 792.542 368.317 793.174Z" fill="#FFFFFA"/>
<path d="M382.566 882.073C391.529 872.141 397.943 856.165 399.765 843.02C418.357 853.95 432.032 866.383 437.653 888.231C438.363 890.975 438.815 893.78 439.002 896.608C421.035 896.463 398.854 889.873 382.566 882.073Z" fill="#A3C4F3"/>
<path d="M382.173 882.142L382.567 882.074C398.855 889.874 421.036 896.464 439.003 896.609C438.833 913.942 435.002 924.364 422.868 936.654C409.981 949.707 393.094 951.752 376.579 945.165C347.14 933.424 320.469 918.557 288.373 914.798C284.116 914.299 276.729 913.017 272.432 912.003C280.732 905.113 308.874 895.315 319.516 893.971C343.541 890.939 360.889 898.968 382.173 882.142Z" fill="#F1C0E8"/>
<defs>
<linearGradient id="paint0_linear_2243_35936" x1="625.459" y1="173.525" x2="657.191" y2="210.425" gradientUnits="userSpaceOnUse">
<stop stop-color="#FFE6EE"/>
<stop offset="1" stop-color="#F6F9FA"/>
</linearGradient>
<linearGradient id="paint1_linear_2243_35936" x1="591.68" y1="482.053" x2="593.696" y2="484.31" gradientUnits="userSpaceOnUse">
<stop stop-color="#94CEE0"/>
<stop offset="1" stop-color="#9FEFF7"/>
</linearGradient>
<linearGradient id="paint2_linear_2243_35936" x1="512.391" y1="527.597" x2="511.869" y2="561.29" gradientUnits="userSpaceOnUse">
<stop stop-color="#F7DAF4"/>
<stop offset="1" stop-color="#FDF4FE"/>
</linearGradient>
<linearGradient id="paint3_linear_2243_35936" x1="384.591" y1="672.985" x2="424.92" y2="581.074" gradientUnits="userSpaceOnUse">
<stop stop-color="#9CFFE0"/>
<stop offset="1" stop-color="#CEFEF6"/>
</linearGradient>
<linearGradient id="paint4_linear_2243_35936" x1="492.13" y1="596.178" x2="493.656" y2="599.341" gradientUnits="userSpaceOnUse">
<stop stop-color="#1C0A03"/>
<stop offset="1" stop-color="#0E100E"/>
</linearGradient>
</defs>
</svg>
