<svg width="1024" height="1024" viewBox="0 0 1024 1024" fill="none" xmlns="http://www.w3.org/2000/svg">
<path d="M489.875 211.899C489.98 211.498 489.941 211.028 490.191 210.697C491.582 208.848 495.205 206.613 497.078 205.014C509.349 194.533 521.969 184.91 534.801 175.155C539.769 171.377 544.542 167.317 549.635 163.707C557.701 158.093 565.976 152.783 574.441 147.79C619.39 121.6 672.716 102.145 725.021 116.084C761.869 125.903 795.558 149.669 814.671 182.993C837.523 222.835 841.736 267.215 829.738 311.433C826.388 323.778 821.535 336.04 815.922 347.524C813.314 352.858 806.643 361.076 805.581 366.323C799.129 367.143 792.718 367.853 786.222 368.254C786.917 356.859 786.591 345.216 786.828 333.79L788.285 254.339C780.887 246.054 771.411 238.832 763.1 231.455C750.581 220.337 738.268 208.989 726.167 197.418C699.894 198.147 673.47 200.335 647.237 201.977L489.875 211.899Z" fill="#F1C0E8"/>
<path d="M313.482 222.651C301.724 223.656 289.897 224.165 278.118 224.914C270.592 225.393 263.077 226.185 255.547 226.547C256.98 282.609 256.4 338.711 257.062 394.783L260.049 635.505C254.78 637.944 249.595 642.433 245.064 646.075C236.132 653.255 227.561 660.723 218.998 668.337C214.68 672.176 210.444 676.379 205.929 679.965C200.042 676.928 192.968 674.903 186.798 672.366C169.225 665.141 151.733 657.049 136.313 645.804C120.854 634.531 108.372 620.508 105.39 601.093C100.146 566.949 130.248 508.435 148.096 479.359C155.608 467.121 163.974 455.345 172.536 443.82C171.636 443.3 170.766 442.728 169.933 442.107C165.637 438.944 161.691 434.666 157.923 430.878C131.848 404.248 114.789 370.107 109.149 333.266C107.913 325.465 107.701 317.666 107.6 309.786C107.244 282.015 112.251 255.952 128.856 233.117C147.27 207.794 176.057 191.348 206.884 186.57C242.072 181.116 278.268 192.637 306.519 213.587C309.976 216.15 312.835 218.173 313.482 222.651Z" fill="#FBF8CC"/>
<path d="M313.482 222.654C329.239 221.895 344.986 220.541 360.733 219.557L489.876 211.903L647.238 201.981C673.471 200.339 699.895 198.151 726.168 197.422C738.269 208.993 750.582 220.341 763.101 231.459C771.412 238.836 780.888 246.058 788.286 254.343L786.829 333.794C786.592 345.22 786.918 356.863 786.223 368.258C785.372 392.862 784.848 417.477 784.65 442.095C784.214 466.503 783.456 490.947 783.467 515.357L781.247 651.534C780.985 666.409 781.422 681.427 780.735 696.273C780.408 711.802 779.896 727.347 779.715 742.877C779.63 750.132 780.563 761.928 779.149 768.554C777.723 775.236 737.768 836.857 731.524 846.984C727.371 853.72 723.794 861.025 719.426 867.581C703.585 867.574 687.712 865.956 671.9 865.061L592.963 860.973L482.748 854.776L329.718 844.591C317.786 843.887 305.859 843.097 293.938 842.221C283.828 841.448 273.652 840.304 263.505 840.472C262.886 772.143 261.735 703.819 260.049 635.508L257.062 394.786C256.4 338.714 256.98 282.612 255.547 226.55C263.077 226.188 270.592 225.396 278.118 224.917C289.897 224.168 301.724 223.659 313.482 222.654ZM485.383 213.899C436.63 216.421 387.898 219.316 339.189 222.581C319.354 224.026 299.51 225.357 279.66 226.575C272.233 227.047 264.755 227.856 257.327 228.134C259.028 234.796 263.081 238.348 268.821 241.721C270.534 242.727 272.322 243.582 274.122 244.419C281.114 242.934 289.067 243.084 296.212 242.621L341.662 239.809L427.751 234.617C441.034 233.802 454.339 232.67 467.629 232.075C519.74 228.734 571.868 225.661 624.01 222.858L679.188 219.516C686.747 219.134 694.437 218.486 701.999 218.525C701.643 261.656 701.014 304.784 700.112 347.907C699.863 363.915 700.237 379.939 699.953 395.944C699.853 404.367 699.706 412.791 699.511 421.213L697.131 706.038C696.664 751.543 696.638 797.113 695.632 842.606L621.95 838.302C608.336 837.538 594.568 837.223 581.001 835.944C533.023 832.792 485.028 830.709 437.027 828.071C408.788 826.52 380.497 824.047 352.246 822.956C346.1 821.677 338.833 821.986 332.507 821.619C319.207 820.847 305.863 819.823 292.548 819.461C290.321 818.986 287.92 819.072 285.647 819.004C284.765 791.337 284.914 763.539 284.548 735.85L282.705 623.48C281.379 531.137 279.394 438.805 276.751 346.491C275.917 313.265 276.303 279.946 275.142 246.747C267.845 243.141 261.763 239.995 257.244 232.939C257.758 327.956 258.827 422.969 260.45 517.974C261.003 556.817 260.52 595.768 261.879 634.588L263.745 753.546C264.413 781.972 264.837 810.404 265.016 838.838C273.234 839.185 281.442 839.727 289.634 840.462C306.74 841.146 323.865 842.489 340.953 843.567C346.312 843.906 354.532 845.388 359.619 844.564C361.542 844.848 363.364 845.124 365.31 845.054C379.199 846.794 393.398 847.283 407.363 848.329C421.825 849.413 436.653 851.14 451.142 851.122C456.242 852.068 461.794 851.944 466.991 852.225L497.91 853.885C528.528 855.529 559.104 857.634 589.739 859.028C597.411 859.816 605.291 859.853 612.999 860.235L655.783 862.45C676.218 863.529 697.039 865.833 717.477 865.753C718.776 812.367 719.321 758.965 719.111 705.563C719.195 678.728 719.942 651.842 720.261 625.002C720.754 565.564 721.572 506.13 722.715 446.701C722.804 425.857 722.66 404.905 723.212 384.073C724.197 344.759 724.142 305.317 724.49 265.988L725.547 199.348C715.681 199.447 705.75 200.224 695.898 200.77C678.384 201.734 660.874 202.788 643.37 203.934L485.383 213.899ZM460.733 234.117L411.053 237.198C377.921 239.916 344.57 241.232 311.381 243.327C299.57 244.073 287.538 244.392 275.78 245.665C292.898 251.438 309.927 257.467 326.864 263.75C333.78 266.315 352.625 274.341 358.992 275.231C365.739 276.174 373.512 274.945 380.386 274.696C396.642 274.181 412.893 273.525 429.137 272.726C459.563 271.949 490.074 269.87 520.488 268.459C550.972 267.045 581.475 266.298 611.957 264.698C641.208 263.163 670.711 260.414 699.986 260.184L700.513 220.029C691.41 221.036 682.085 221.129 672.93 221.637L624.716 224.522C570.037 227.415 515.376 230.613 460.733 234.117ZM423.308 274.49L384.244 275.93C376.367 276.217 368.343 276.215 360.504 277.036C360.569 298.034 361.023 319.048 360.9 340.043C366.771 339.795 372.641 339.494 378.507 339.138C403.982 337.648 429.486 336.987 454.965 335.634C454.56 314.736 454.41 293.834 454.514 272.932C444.115 273.511 433.713 274.031 423.308 274.49ZM639.194 339.251C632.685 338.261 620.782 339.636 613.589 339.903C589.416 340.783 565.252 341.895 541.101 343.241L357.774 351.16C358.517 407.513 358.966 463.871 359.12 520.229L360.805 645.539L361.077 739.804C361.12 744.828 360.588 764.089 361.682 767.389C362.699 768.006 363.158 767.821 364.319 767.811C365.794 766.04 364.076 728.363 364.029 723.141L361.366 470.595L360.894 393.502C360.801 380.152 359.788 366.192 360.762 352.889C369.8 355.778 406.309 352.716 418.655 352.184L563.772 344.764C580.597 344.062 597.464 343.677 614.301 343.274C621.629 343.099 630.326 343.861 637.476 342.439C637.833 342.981 637.764 342.713 637.593 343.602C636.591 348.815 636.824 355.216 636.644 360.577C635.466 395.644 633.739 772.874 634.645 774.547C634.789 774.815 635.059 774.992 635.266 775.214L637.4 775.279C637.609 774.942 637.936 774.653 638.028 774.266C638.822 770.933 638.023 763.726 638.024 760.006L638.059 713.971L638.63 442.234L639.345 374.504C639.482 364.719 640.552 348.148 639.194 339.251ZM641.408 337.429C641.421 341.54 641.291 345.66 641.22 349.771C639.647 463.432 639.059 577.105 639.455 690.776C639.457 700.401 640.458 774.376 639.029 777.102C633.895 776.831 625.897 775.191 621.27 777.267C620.272 778.437 620.312 778.681 620.138 780.231C621.527 781.648 624.988 781.467 626.903 781.488C630.866 781.532 634.888 781.478 638.843 781.721C640.453 781.917 642.25 782.211 643.669 781.39C644.929 771.693 643.97 761.108 644.177 751.287C644.668 722.839 644.966 694.389 645.073 665.938L645.284 439.637C645.428 412.327 645.417 385.015 645.253 357.704C645.133 348.301 644.406 338.906 644.329 329.524C631.508 329.34 618.47 330.311 605.647 330.812L531.661 333.887C473.643 336.387 415.471 338.166 357.529 342.058L357.555 349.339C365.944 349.57 374.524 348.84 382.911 348.471L429.518 346.369L545.533 341.428C577.275 339.872 609.668 337.519 641.408 337.429ZM415.679 363.4C420.407 362.427 425.655 362.548 430.489 362.303C440.392 361.787 450.299 361.349 460.209 360.991L588.627 356.506C602.866 355.956 617.324 356.156 631.517 355.186C632.941 355.089 634.49 355.062 635.623 354.105L635.284 353.371C629.606 351.454 607.298 353.3 599.962 353.492C566.817 354.362 533.678 355.459 500.549 356.785L426.927 360.686C416.021 361.135 405.113 361.517 394.202 361.833C388.807 362.008 381.377 361.444 376.25 363L376.24 363.539C382.621 365.767 403.201 365.602 410.644 365.039C426.534 365.459 442.428 364.525 458.308 364.158C475.754 363.913 493.203 363.863 510.65 364.007C511.773 389.802 510.518 415.808 510.921 441.631C511.453 465.523 511.124 489.462 511.377 513.363L513.617 773.453L520.639 773.588L519.077 568.031C518.745 525.067 519.213 482.106 518.198 439.145C517.904 423.985 518.072 408.802 517.949 393.637C517.866 383.57 517.2 373.226 517.99 363.203L583.233 361.403C595.872 361.09 608.727 361.173 621.326 360.123C621.728 365.17 621.466 370.42 621.478 375.49L621.554 405.177L621.588 508.854L621.396 678.441C621.349 710.584 621.967 742.829 621.085 774.956L632.693 775.289C632.004 752.019 632.62 728.538 632.629 705.245C632.477 657.493 632.737 609.74 633.407 561.991L635.037 356.977C608.617 356.867 582.104 358.469 555.699 359.377C531.413 360.213 507.11 360.35 482.833 361.273C460.49 362.122 438.039 363.883 415.679 363.4ZM784.614 369.104C785.571 349.402 785.359 329.477 785.652 309.741C785.924 291.514 786.732 273.157 786.441 254.942C782.403 250.319 777.505 246.362 772.915 242.296L752.407 224.112C743.903 216.556 735.851 208.131 727.059 200.969L724.927 383.361L724.493 428.265C724.431 436.205 724.125 444.304 724.451 452.234C722.635 513.769 722.682 575.44 722.054 636.997C721.823 659.717 721.829 682.491 721.139 705.199C720.476 758.487 720.649 811.746 719.436 865.033C733.924 840.583 749.473 816.808 764.162 792.477C767.556 786.855 775.574 775.345 777.062 769.663C778.656 763.578 777.748 747.949 777.874 740.605C778.126 725.89 778.849 711.194 779.009 696.476C779.069 635.215 781.323 573.957 781.571 512.693C782.768 464.843 782.627 416.932 784.614 369.104ZM651.507 378.64L650.012 379.662C649.31 364.171 649.987 348.736 648.6 333.323L647.635 332.827C646.561 334.153 646.462 335.385 646.386 337.102C646.002 345.784 646.829 354.706 646.887 363.422L646.907 420.792L646.956 668.432L645.85 742.663C645.616 752.175 645.49 761.689 645.471 771.204C645.455 774.424 644.958 777.958 645.385 781.136C645.527 782.195 645.39 781.857 645.732 782.469C646.559 782.787 646.541 782.974 647.409 782.627L646.011 782.724L646.345 782.864C647.575 782.353 647.946 782.37 648.516 781.098C649.079 779.843 649.132 685.153 649.104 675.259C649.089 669.87 647.672 656.021 649.374 651.87L650.887 652.724C665.945 652.557 681.009 653.461 696.062 653.41C696.393 635.275 696.573 617.139 696.601 599.001L697.554 474.931C697.68 449.347 697.461 423.617 698.267 398.056C698.95 393.388 698.497 388.053 698.514 383.293L698.527 351.546C682.962 352.624 667.341 353.211 651.756 353.96C651.823 362.185 651.579 370.414 651.507 378.64ZM616.204 391.502C584.143 392.238 551.496 394.314 519.506 394.016L519.878 437.554L522.222 747.093C528.243 747.312 534.279 747.63 540.305 747.594C545.979 748.104 551.676 748.168 557.364 748.437C578.105 748.754 598.89 750.132 619.617 751.032C619.714 746.893 619.723 742.753 619.641 738.614C620.307 730.395 619.812 721.777 619.8 713.526L619.826 666.878L619.993 505.392L620.082 413.658C620.113 406.583 620.639 399.08 619.843 392.064C618.634 391.168 617.667 391.483 616.204 391.502ZM509.568 443.966C509.429 427.421 509.396 410.876 509.469 394.331C477.839 395.982 446.164 396.318 414.514 397.518C415.059 430.997 415.4 464.479 415.537 497.961L416.358 613.509C416.508 631.859 415.914 650.528 416.901 668.832C417.217 694.075 417.353 719.32 417.309 744.565L511.74 746.678C511.615 738.916 511.535 731.154 511.499 723.391L509.568 443.966ZM358.558 593.22L357.039 460.044C357.037 428.646 356.819 397.248 356.382 365.853C347.667 364.083 339.147 361.045 330.564 358.71L278.474 344.825L284.514 622.514L285.14 667.984C309.718 659.372 334.538 651.495 359.043 642.631C359.002 626.16 358.84 609.689 358.558 593.22ZM401.473 367.159L404.41 663.026C404.537 698.643 404.13 734.389 405.41 769.98C408.903 770.065 412.412 770.087 415.899 770.297C415.14 734.714 414.85 699.123 415.029 663.532C415.411 564.708 412.954 465.851 412.991 367.026L401.473 367.159ZM654.763 666.513C654.832 666.627 654.9 666.741 654.97 666.853L655.328 667.411C658.546 672.514 663.028 677.002 666.929 681.607C673.697 689.615 680.415 697.664 687.084 705.755C689.799 709.472 692.399 713.55 695.487 716.955L695.668 705.817C695.534 693.042 695.795 680.237 695.865 667.46C682.196 666.752 668.449 666.885 654.763 666.513ZM374.06 761.414C371.787 699.793 372.682 637.924 371.902 576.257C371.085 531.395 370.564 486.528 370.338 441.66C369.694 413.061 369.422 384.455 369.52 355.85L361.934 355.866C362.473 439.686 363.492 523.502 364.993 607.31L365.518 695.68C365.572 717.998 365.314 740.629 366.445 762.917C366.51 764.186 366.648 765.456 367.621 766.401C369.069 767.808 372.103 768.049 373.975 768.38C376.504 768.941 378.75 769.057 381.314 769.029C386.036 768.772 391.062 769.416 395.819 769.54C395.8 723.194 395.54 676.848 395.04 630.504L393.004 366.548C387.483 366.347 381.961 366.189 376.437 366.075C375.862 399.114 376.9 432.2 377.209 465.24L379.068 652.675L379.588 722.121C379.803 735.946 381.196 754.971 379.782 768.249C378.281 768.164 376.927 768.049 375.471 767.663C374.187 766.039 374.347 763.489 374.06 761.414ZM532.583 775.626L414.254 771.912C396.192 771.243 377.986 769.797 359.933 769.518C347.3 778.325 334.277 786.569 321.533 795.216C310.565 802.658 299.631 810.851 288.134 817.4C321.283 818.805 354.429 821.418 387.543 823.498C421.618 825.627 455.71 827.455 489.817 828.982C520.15 830.795 550.66 831.822 580.938 834.37C602.907 835.185 624.908 836.661 646.85 838.03C662.615 839.013 678.424 839.749 694.167 841.029L694.849 786.475L646.464 783.696C641.962 783.471 621.558 783.812 618.726 782.611L618.236 780.538C616.614 779.388 579.82 778.064 575.268 777.816C561.072 776.776 546.793 776.563 532.583 775.626ZM276.786 247.525C276.801 276.678 277.258 305.829 278.157 334.968C287.913 337.274 352.159 356.036 355.659 355.032C355.908 354.159 356.011 353.534 355.955 352.627C355.87 349.166 355.027 343.66 356.312 340.522C357.157 340.281 357.999 340.075 358.856 339.886C360.167 336.315 358.977 285.254 358.952 277.399C331.785 266.756 304.278 257.266 276.786 247.525ZM691.812 261.784C665.242 262.971 638.681 264.345 612.13 265.905C600.798 266.491 589.386 267.382 578.046 267.555L577.412 330.439C584.04 330.116 590.746 329.562 597.376 329.518C613.172 328.947 629.323 327.512 645.123 328.063C648.111 330.484 650.805 332.444 654.417 333.881C653.833 335.87 652.59 338.963 653.523 340.881C658.905 341.356 664.587 340.723 669.977 340.447C679.494 339.96 688.994 339.395 698.518 339.063L699.993 261.561C697.27 261.612 694.529 261.598 691.812 261.784ZM573.883 267.726C545.488 268.615 517.103 269.826 488.735 271.36C477.844 271.899 466.82 271.954 455.961 272.837C455.972 280.534 455.189 332.56 456.988 335.439L458.378 335.558L536.427 332.161C549.56 331.595 562.78 330.622 575.915 330.472L576.22 291.261C576.316 283.663 576.829 275.917 576.376 268.337L575.714 267.679L573.883 267.726ZM649.996 334.075C649.959 336.29 649.712 338.625 650.405 340.752L651.228 341.015L651.992 340.393C652.382 338.469 653.034 336.79 652.421 334.893C651.581 334.432 650.941 334.234 649.996 334.075ZM278.151 336.639L278.337 343.045L329.798 356.945C338.565 359.339 347.294 362.208 356.147 364.237L356.13 357.331C330.035 350.95 304.295 342.769 278.151 336.639ZM687.78 340.706C676.171 341.451 664.383 342.498 652.756 342.535V352.517C656.492 352.25 660.214 351.982 663.96 351.922C675.447 351.293 686.94 350.758 698.437 350.317L698.515 340.242L687.78 340.706ZM615.332 344.781C591.407 345.466 567.487 346.324 543.575 347.355C515.612 348.802 487.685 350.955 459.713 352.274L399.601 354.707C391.742 355.054 383.596 354.971 375.787 355.72C374.198 355.872 372.735 355.998 371.458 357.033C371.411 358.039 371.366 358.182 372.06 358.889C372.99 359.837 374.589 360.442 375.776 361.031C380.781 360.719 385.762 360.436 390.779 360.391L562.902 353.148C587.095 352.349 611.337 351.027 635.546 351.075L635.512 344.363C628.803 344.464 622.027 344.384 615.332 344.781ZM371.231 359.908C370.902 371.022 371.282 382.19 371.412 393.307C371.553 413.03 371.825 432.752 372.226 452.472L373.728 593.427C373.803 642.146 374.261 690.863 375.101 739.574C375.25 745.188 374.617 760.549 376.057 765.122C376.836 765.458 377.537 765.711 378.367 765.889C378.891 750.619 378.083 735.135 377.959 719.839C377.824 687.733 377.499 655.628 376.984 623.525C375.809 536.421 375.137 449.311 374.969 362.2L371.231 359.908ZM605.702 362.282L519.278 364.688L519.406 386.16L533.692 385.95L579.036 384.649C592.644 384.206 606.307 383.465 619.92 383.44C619.884 376.286 619.684 369.091 619.868 361.942C615.152 362.029 610.41 362.015 605.702 362.282ZM489.883 365.233C476.928 365.481 463.973 365.5 451.02 365.862C438.896 366.201 426.736 366.896 414.613 367.026C414.662 374.35 414.665 381.673 414.623 388.996C421.38 388.713 428.141 388.511 434.903 388.393L509.316 386.128C509.233 379.225 509.193 372.321 509.197 365.417C502.775 365.327 496.303 365.091 489.883 365.233ZM394.573 366.935C395.474 419.582 395.961 472.235 396.034 524.89L397.524 769.749L403.654 769.903L400.814 471.393C400.737 444.977 400.456 418.563 399.972 392.151C399.922 387.673 400.395 370.517 399.732 368.007C399.636 367.641 399.235 367.437 398.987 367.152C397.487 366.953 396.085 366.905 394.573 366.935ZM604.967 385.285L547.626 387.052C539.798 387.253 527.337 386.601 520.287 387.944C519.431 388.907 519.665 390.251 519.588 391.518C520.186 392.527 519.791 392.321 520.721 392.544C524.633 393.477 530.652 392.483 534.815 392.444C550.975 391.827 567.138 391.311 583.304 390.896C589.716 390.721 614.931 390.89 619.559 389.315C620.175 388.237 620.034 388.012 619.89 386.757C618.87 385.521 618.17 385.035 616.549 384.831C612.855 384.368 608.704 385.146 604.967 385.285ZM507.874 387.741L450.013 389.552C438.61 389.85 426.383 389.329 415.087 390.805C414.27 392.22 414.19 393.258 414.663 394.837C414.738 395.088 414.838 395.331 414.925 395.578C415.433 395.785 415.828 395.988 416.381 396.02C438.455 394.15 461.079 394.619 483.235 393.93C491.618 393.669 500.589 393.979 508.851 392.645C509.474 391.567 509.796 390.427 509.489 389.178C509.337 388.564 509.254 388.46 508.997 387.952L507.874 387.741ZM357.343 645.487C341.424 650.693 325.554 656.048 309.734 661.55C301.529 664.364 292.994 666.826 284.984 670.125C284.971 672.393 284.72 674.844 285.486 677.002C286.453 677.269 286.066 677.304 286.638 677.189C310.955 669.591 335.061 660.618 359.08 652.071C359.139 649.988 359.452 647.628 358.744 645.645C357.661 645.38 358.131 645.371 357.343 645.487ZM358.188 654.038C334.108 662.574 309.913 671.764 285.502 679.246L287.348 816.427C303.37 805.124 319.925 794.439 336.241 783.559C343.941 778.423 352.594 773.648 359.446 767.433L359.002 688.127C359 681.95 359.886 658.949 358.724 654.341L358.188 654.038ZM651.026 654.566L651.013 664.035C665.857 665.179 680.839 664.205 695.673 665.39L695.749 655.551C680.845 654.91 665.939 654.843 651.026 654.566ZM650.621 666.363C650.604 705.023 649.537 743.79 650.345 782.433C664.287 783.325 680.907 785.239 694.632 784.807C695.092 762.786 695.405 740.762 695.572 718.737C690.519 713.348 686.24 707.136 681.683 701.32C673.543 690.933 665.081 680.446 655.933 670.941C654.81 669.774 653.587 669.052 653.799 667.321C653.828 667.085 653.899 666.856 653.948 666.623C652.837 666.507 651.736 666.418 650.621 666.363ZM417.367 745.959C417.308 747.585 417.009 748.816 417.773 750.274C429.608 751.274 441.707 751.209 453.595 751.675C472.893 752.431 492.344 753.47 511.65 753.515C511.66 751.832 511.927 749.72 511.104 748.228C494.195 747.542 477.203 747.528 460.277 747.099C445.998 746.737 431.641 745.896 417.367 745.959ZM522.368 748.629C522.339 750.404 522.02 752.662 522.795 754.288C535.132 755.41 547.699 755.475 560.087 755.988L619.504 758.485C619.54 756.626 619.824 754.511 619.04 752.788C609.643 751.149 598.914 751.575 589.333 751.182L522.368 748.629ZM417.442 751.592L417.51 770.451C438.348 770.93 459.183 771.542 480.013 772.288C490.81 772.665 501.691 772.681 512.467 773.378C512.209 767.243 511.917 761.077 511.929 754.936C480.439 754.402 448.936 752.346 417.442 751.592ZM522.342 755.849L522.326 773.763C543.146 774.589 563.96 775.558 584.766 776.67C595.981 777.259 607.7 778.584 618.902 778.221C619.989 772.349 619.488 765.92 619.469 759.957L522.342 755.849Z" fill="#030202"/>
<path d="M485.383 213.899L643.37 203.934C660.874 202.788 678.384 201.734 695.898 200.77C705.75 200.224 715.681 199.447 725.547 199.348L724.49 265.988C724.142 305.317 724.197 344.759 723.212 384.073C715.277 387.683 707.255 391.128 699.953 395.944C700.237 379.939 699.863 363.915 700.112 347.907C701.014 304.784 701.643 261.656 701.999 218.525C694.437 218.486 686.747 219.134 679.188 219.516L624.01 222.858C571.868 225.661 519.74 228.734 467.629 232.075C471.256 225.489 483.811 219.578 485.383 213.899Z" fill="#F1C0E8"/>
<path d="M784.613 369.104C764.488 372.563 744.647 378.107 724.926 383.361L727.058 200.969C735.85 208.131 743.902 216.556 752.406 224.112L772.914 242.296C777.504 246.362 782.402 250.319 786.44 254.942C786.731 273.157 785.923 291.514 785.651 309.741C785.358 329.477 785.57 349.402 784.613 369.104Z" fill="#F1C0E8"/>
<path d="M257.326 228.133C264.754 227.855 272.232 227.046 279.659 226.574C299.509 225.356 319.353 224.025 339.188 222.58C387.897 219.315 436.629 216.42 485.382 213.898C483.81 219.577 471.255 225.488 467.628 232.074C454.338 232.669 441.033 233.801 427.75 234.616L341.661 239.808L296.211 242.62C289.066 243.083 281.113 242.933 274.121 244.418C272.321 243.581 270.533 242.726 268.82 241.72C263.08 238.347 259.027 234.795 257.326 228.133Z" fill="#FDE4CF"/>
<path d="M460.731 234.115C515.374 230.611 570.035 227.413 624.714 224.52L672.928 221.635C682.083 221.127 691.408 221.034 700.511 220.027L699.984 260.182C670.709 260.412 641.206 263.161 611.955 264.696C581.473 266.296 550.97 267.043 520.486 268.457C490.072 269.868 459.561 271.947 429.135 272.724L426.205 272.351C431.513 265.268 437.353 258.36 443.711 252.199C448.725 247.341 454.287 242.809 459.012 237.695C460.063 236.558 460.392 235.608 460.731 234.115Z" fill="#FFCFD2"/>
<path d="M282.703 623.479C275.511 626.06 268.467 630.755 261.877 634.586C260.518 595.766 261.001 556.815 260.448 517.972C258.825 422.967 257.756 327.954 257.242 232.938C261.761 239.994 267.843 243.139 275.14 246.745C276.301 279.944 275.915 313.264 276.749 346.49C279.392 438.804 281.377 531.136 282.703 623.479Z" fill="#FBF8CC"/>
<path d="M411.053 237.194L460.733 234.113C460.394 235.606 460.065 236.556 459.014 237.693C454.289 242.807 448.727 247.339 443.713 252.197C437.355 258.358 431.515 265.266 426.207 272.349L424.756 272.303C422.79 270.156 421.915 258.325 420.423 254.203C418.139 247.893 413.472 243.191 411.053 237.194Z" fill="#FDE4CF"/>
<path d="M275.779 245.662C287.537 244.389 299.569 244.07 311.38 243.324C344.569 241.229 377.92 239.913 411.052 237.195C413.471 243.192 418.138 247.894 420.422 254.204C421.914 258.326 422.789 270.157 424.755 272.304L426.206 272.35L429.136 272.723C412.892 273.522 396.641 274.178 380.385 274.693C373.511 274.942 365.738 276.171 358.991 275.228C352.624 274.338 333.779 266.312 326.863 263.747C309.926 257.464 292.897 251.435 275.779 245.662Z" fill="#FBF8CC"/>
<path d="M278.156 334.966C277.257 305.827 276.8 276.676 276.785 247.523C304.277 257.264 331.784 266.754 358.951 277.397C358.976 285.252 360.166 336.313 358.855 339.884C357.998 340.073 357.156 340.279 356.311 340.52C355.026 343.658 355.869 349.164 355.954 352.625C356.01 353.532 355.907 354.157 355.658 355.03C352.158 356.034 287.912 337.272 278.156 334.966Z" fill="#FBF8CC"/>
<path d="M578.044 267.553C589.384 267.38 600.796 266.489 612.128 265.903C638.679 264.343 665.24 262.969 691.81 261.782C694.527 261.596 697.268 261.61 699.991 261.559L698.516 339.061C688.992 339.393 679.492 339.958 669.975 340.445C664.585 340.721 658.903 341.354 653.521 340.879C652.588 338.961 653.831 335.868 654.415 333.879C650.803 332.442 648.109 330.482 645.121 328.061C629.321 327.51 613.17 328.945 597.374 329.516C590.744 329.56 584.038 330.114 577.41 330.437L578.044 267.553Z" fill="#FFCFD2"/>
<path d="M455.959 272.834C466.818 271.951 477.842 271.896 488.733 271.357C517.101 269.823 545.486 268.612 573.881 267.723L575.712 267.676L576.374 268.334C576.827 275.914 576.314 283.66 576.218 291.258L575.913 330.469C562.778 330.619 549.558 331.592 536.425 332.158L458.376 335.555L456.986 335.436C455.187 332.557 455.97 280.531 455.959 272.834ZM561.121 283.228C539.016 284.989 516.689 285.391 494.529 286.503C484.931 286.985 474.519 286.829 465.093 288.649C465.025 296.508 463.675 312.665 465.937 319.651C466.453 321.246 467.39 322.384 468.52 323.587L469.624 323.712L527.893 321.224C540.52 320.664 553.324 319.618 565.954 319.877C565.979 314.746 567.043 285.582 565.087 283.892C564.225 283.147 563.165 282.852 562.033 283.006C561.723 283.048 561.425 283.154 561.121 283.228Z" fill="#FFCFD2"/>
<path d="M423.307 274.488C433.712 274.029 444.114 273.509 454.513 272.93C454.409 293.832 454.559 314.734 454.964 335.632C429.485 336.985 403.981 337.646 378.506 339.136C378.522 337.898 378.584 336.69 379.115 335.551C381.704 330.002 386.733 324.642 390.505 319.803C397.867 310.358 404.993 300.741 412.237 291.207C415.478 286.94 419.615 282.552 422.296 277.937C422.902 276.894 423.116 275.665 423.307 274.488Z" fill="#FFCFD2"/>
<path d="M360.504 277.034C368.343 276.213 376.367 276.215 384.244 275.928L423.308 274.488C423.117 275.665 422.903 276.894 422.297 277.937C419.616 282.552 415.479 286.94 412.238 291.207C404.994 300.741 397.868 310.358 390.506 319.803C386.734 324.642 381.705 330.002 379.116 335.551C378.585 336.69 378.523 337.898 378.507 339.136C372.641 339.492 366.771 339.793 360.9 340.041C361.023 319.046 360.569 298.032 360.504 277.034Z" fill="#FBF8CC"/>
<path d="M465.094 288.651C474.52 286.831 484.932 286.987 494.53 286.505C516.69 285.393 539.017 284.991 561.122 283.23C561.426 283.156 561.724 283.05 562.034 283.008C563.166 282.854 564.226 283.149 565.088 283.894C567.044 285.584 565.98 314.748 565.955 319.879C553.325 319.62 540.521 320.666 527.894 321.226L469.625 323.714L468.521 323.589C467.391 322.386 466.454 321.248 465.938 319.653C463.676 312.667 465.026 296.51 465.094 288.651ZM563.617 284.282C562.881 286.6 562.389 315.831 563.329 317.528C563.542 317.912 564.055 318.245 564.35 318.485C564.077 313.115 564.775 286.578 563.617 284.282ZM558.101 285.202C528.602 286.85 498.95 288.714 469.425 289.594C469.417 292.719 468.403 301.642 470.32 303.966C470.985 304.021 471.711 304.144 472.374 304.092C501.802 302.838 531.213 300.836 560.65 299.864C560.743 296.712 561.931 287.729 559.848 285.333L558.101 285.202ZM467.072 290.824C466.757 296.161 465.561 318.049 467.884 321.647C467.994 317.843 468.873 292.695 467.299 291.024C467.23 290.95 467.148 290.891 467.072 290.824ZM554.191 301.786L497.047 304.652C487.903 305.101 478.656 305.98 469.515 306.038L469.523 321.063C471.637 320.925 473.767 320.836 475.876 320.639C504.093 319.394 532.391 318.8 560.579 317.061L560.835 301.485C558.627 301.557 556.388 301.553 554.191 301.786Z" fill="#030202"/>
<path d="M564.35 318.484C564.055 318.244 563.542 317.911 563.329 317.527C562.389 315.83 562.881 286.599 563.617 284.281C564.775 286.577 564.077 313.114 564.35 318.484Z" fill="#807D80"/>
<path d="M469.425 289.591C498.95 288.711 528.602 286.847 558.101 285.199L559.848 285.33C561.931 287.726 560.743 296.709 560.65 299.861C531.213 300.833 501.802 302.835 472.374 304.089C471.711 304.141 470.985 304.018 470.32 303.963C468.403 301.639 469.417 292.716 469.425 289.591Z" fill="#90DBF4"/>
<path d="M467.885 321.647C465.562 318.049 466.758 296.161 467.073 290.824C467.149 290.891 467.231 290.95 467.3 291.024C468.874 292.695 467.995 317.843 467.885 321.647Z" fill="#F0D5D6"/>
<path d="M469.516 306.037C478.657 305.979 487.904 305.1 497.048 304.651L554.192 301.785C556.389 301.552 558.628 301.556 560.836 301.484L560.58 317.06C532.392 318.799 504.094 319.393 475.877 320.638C473.768 320.835 471.638 320.924 469.524 321.062L469.516 306.037Z" fill="#90DBF4"/>
<path d="M641.218 349.77C641.289 345.659 641.419 341.539 641.406 337.428C609.666 337.518 577.273 339.871 545.531 341.427L429.516 346.368L382.909 348.47C374.522 348.839 365.942 349.569 357.553 349.338L357.527 342.057C415.469 338.165 473.641 336.386 531.659 333.886L605.645 330.811C618.468 330.31 631.506 329.339 644.327 329.523C644.404 338.905 645.131 348.3 645.251 357.703C645.415 385.014 645.426 412.326 645.282 439.636C644.611 440.446 644.732 441.77 644.703 442.804C644.697 443.031 644.696 443.257 644.692 443.483L644.325 442.932C645.172 434.168 644.051 424.865 644.142 416.023L644.319 377.184C644.378 369.778 645.475 360.559 643.902 353.408C642.909 352.583 641.83 351.822 641.43 350.54C641.35 350.286 641.288 350.027 641.218 349.77Z" fill="#FFCFD2"/>
<path d="M649.373 651.867C647.671 656.018 649.088 669.867 649.103 675.256C649.131 685.15 649.078 779.84 648.515 781.095C647.945 782.367 647.574 782.35 646.344 782.861L646.01 782.721L647.408 782.624C646.54 782.971 646.558 782.784 645.731 782.466C645.389 781.854 645.526 782.192 645.384 781.133C644.957 777.955 645.454 774.421 645.47 771.201C645.489 761.686 645.615 752.172 645.849 742.66L646.955 668.429L646.906 420.789L646.886 363.419C646.828 354.703 646.001 345.781 646.385 337.099C646.461 335.382 646.56 334.15 647.634 332.824L648.599 333.32C649.986 348.733 649.309 364.168 650.011 379.659L649.204 565.869L649.555 625.855C649.571 634.272 650.356 643.531 649.373 651.867Z" fill="url(#paint0_linear_2247_6598)"/>
<path d="M651.991 340.392L651.227 341.014L650.404 340.751C649.711 338.624 649.958 336.289 649.995 334.074C650.94 334.233 651.58 334.431 652.42 334.892C653.033 336.789 652.381 338.468 651.991 340.392Z" fill="#B898A0"/>
<path d="M278.336 343.043L278.15 336.637C304.294 342.767 330.034 350.948 356.129 357.329L356.146 364.235C347.293 362.206 338.564 359.337 329.797 356.943L278.336 343.043Z" fill="#FBF8CC"/>
<path d="M639.193 339.248C638.716 340.462 638.351 341.214 637.554 342.24C637.511 342.295 637.501 342.37 637.475 342.436C630.325 343.858 621.628 343.096 614.3 343.271C597.463 343.674 580.596 344.059 563.771 344.761L418.654 352.181C406.308 352.713 369.799 355.775 360.761 352.886C360.902 352.796 361.028 352.675 361.184 352.615C362 352.303 362.117 352.51 362.957 351.945C361.475 351.985 360.037 352.089 358.634 351.525C358.344 351.409 358.06 351.28 357.773 351.157L541.1 343.238C565.251 341.892 589.415 340.78 613.588 339.9C620.781 339.633 632.684 338.258 639.193 339.248Z" fill="#FFCFD2"/>
<path d="M637.475 342.438C637.501 342.372 637.511 342.297 637.554 342.242C638.351 341.216 638.716 340.464 639.193 339.25C640.551 348.147 639.481 364.718 639.344 374.503L638.629 442.233L638.058 713.97L638.023 760.005C638.022 763.725 638.821 770.932 638.027 774.265C637.935 774.652 637.608 774.941 637.399 775.278L635.265 775.213C635.058 774.991 634.788 774.814 634.644 774.546C633.738 772.873 635.465 395.643 636.643 360.576C636.823 355.215 636.59 348.814 637.592 343.601C637.763 342.712 637.832 342.98 637.475 342.438Z" fill="#E6DFD5"/>
<path d="M652.756 342.531C664.383 342.494 676.171 341.447 687.78 340.702L698.515 340.238L698.437 350.313C686.94 350.754 675.447 351.289 663.96 351.918C660.214 351.978 656.492 352.246 652.756 352.513V342.531Z" fill="#C487E1"/>
<path d="M375.775 361.027C374.588 360.438 372.989 359.833 372.059 358.885C371.365 358.178 371.41 358.035 371.457 357.029C372.734 355.994 374.197 355.868 375.786 355.716C383.595 354.967 391.741 355.05 399.6 354.703L459.712 352.27C487.684 350.951 515.611 348.798 543.574 347.351C567.486 346.32 591.406 345.462 615.331 344.777C622.026 344.38 628.802 344.46 635.511 344.359L635.545 351.071C611.336 351.023 587.094 352.345 562.901 353.144L390.778 360.387C385.761 360.432 380.78 360.715 375.775 361.027Z" fill="#FFCFD2"/>
<path d="M358.557 593.219C333.915 602.271 307.647 610.05 284.513 622.513L278.473 344.824L330.563 358.709C339.146 361.044 347.666 364.082 356.381 365.852C356.818 397.247 357.036 428.645 357.038 460.043L358.557 593.219ZM324.679 467.126C321.236 468.301 318.667 469.789 317.088 473.232C315.87 475.952 315.822 479.053 316.958 481.808C318.113 484.62 320.369 486.835 323.2 487.939C325.499 488.814 327.929 488.733 330.333 488.444C333.691 487.345 336.524 485.934 338.199 482.65C339.413 480.271 339.523 477.42 338.636 474.913C337.607 472.002 335.266 469.651 332.488 468.36C330 467.203 327.379 467.036 324.679 467.126ZM325.19 505.558C319.251 507.186 315.718 513.281 317.258 519.244C318.799 525.207 324.841 528.829 330.826 527.377C334.777 526.419 337.905 523.406 339.012 519.494C340.119 515.582 339.033 511.377 336.17 508.49C333.307 505.604 329.111 504.483 325.19 505.558ZM326.571 548.92C320.49 550.035 316.487 555.897 317.663 561.967C318.838 568.036 324.74 571.98 330.798 570.745C336.771 569.526 340.648 563.724 339.489 557.74C338.329 551.755 332.567 547.82 326.571 548.92Z" fill="url(#paint1_linear_2247_6598)"/>
<path d="M641.219 349.77C641.289 350.027 641.351 350.286 641.431 350.54C641.831 351.822 642.91 352.583 643.903 353.408C645.476 360.559 644.379 369.778 644.32 377.184L644.143 416.023C644.052 424.865 645.173 434.168 644.326 442.932L644.693 443.483C644.697 443.257 644.698 443.031 644.704 442.804C644.733 441.77 644.612 440.446 645.283 439.636L645.072 665.936C644.965 694.387 644.667 722.837 644.176 751.285C643.969 761.106 644.928 771.692 643.668 781.389C642.249 782.21 640.452 781.916 638.842 781.72C638.801 780.158 638.891 778.656 639.028 777.1C640.457 774.374 639.456 700.4 639.454 690.775C639.058 577.104 639.646 463.431 641.219 349.77Z" fill="#F0D5D6"/>
<path d="M357.773 351.156C358.06 351.279 358.344 351.408 358.634 351.524C360.037 352.088 361.475 351.984 362.957 351.944C362.117 352.509 362 352.302 361.184 352.614C361.028 352.674 360.902 352.795 360.761 352.885C359.787 366.188 360.8 380.148 360.893 393.498L361.365 470.591L364.028 723.137C364.075 728.359 365.793 766.036 364.318 767.807C363.157 767.817 362.698 768.002 361.681 767.385C360.587 764.085 361.119 744.824 361.076 739.8L360.804 645.535L359.119 520.225C358.965 463.867 358.516 407.509 357.773 351.156Z" fill="url(#paint2_linear_2247_6598)"/>
<path d="M651.506 378.637C651.578 370.411 651.822 362.182 651.755 353.957C667.34 353.208 682.961 352.621 698.526 351.543L698.513 383.29C698.496 388.05 698.949 393.385 698.266 398.053C683.868 408.586 669.813 424.706 651.336 426.758C651.337 423.936 651.529 420.971 651.311 418.166C651.468 404.99 651.533 391.813 651.506 378.637Z" fill="#F1C0E8"/>
<path d="M415.677 363.396L414.706 363.577C413.519 363.793 412.356 363.887 411.153 363.97C410.643 364.86 410.738 364.478 410.642 365.035C403.199 365.598 382.619 365.763 376.238 363.535L376.248 362.996C381.375 361.44 388.805 362.004 394.2 361.829C405.111 361.513 416.019 361.131 426.925 360.682L500.547 356.781C533.676 355.455 566.815 354.358 599.96 353.488C607.296 353.296 629.604 351.45 635.282 353.367L635.621 354.101C634.488 355.058 632.939 355.085 631.515 355.182C617.322 356.152 602.864 355.952 588.625 356.502L460.207 360.987C450.297 361.345 440.39 361.783 430.487 362.299C425.653 362.544 420.405 362.423 415.677 363.396Z" fill="#FFCFD2"/>
<path d="M369.52 355.848C369.422 384.453 369.694 413.059 370.338 441.658C370.564 486.526 371.085 531.393 371.902 576.255C372.682 637.922 371.787 699.791 374.06 761.412L373.975 768.378C372.103 768.047 369.069 767.806 367.621 766.399C366.648 765.454 366.51 764.184 366.445 762.915C365.314 740.627 365.572 717.996 365.518 695.678L364.993 607.308C363.492 523.5 362.473 439.684 361.934 355.864L369.52 355.848Z" fill="#FFCFD2"/>
<path d="M410.643 365.036C410.739 364.479 410.644 364.861 411.154 363.971C412.357 363.888 413.52 363.794 414.707 363.578L415.678 363.397C438.038 363.88 460.489 362.119 482.832 361.27C507.109 360.347 531.412 360.21 555.698 359.374C582.103 358.466 608.616 356.864 635.036 356.974L633.406 561.988C632.736 609.737 632.476 657.49 632.628 705.242C632.619 728.535 632.003 752.016 632.692 775.286L621.084 774.953C621.966 742.826 621.348 710.581 621.395 678.438L621.587 508.851L621.553 405.174L621.477 375.487C621.465 370.417 621.727 365.167 621.325 360.12C608.726 361.17 595.871 361.087 583.232 361.4L517.989 363.2C517.199 373.223 517.865 383.567 517.948 393.634C518.071 408.799 517.903 423.982 518.197 439.142C515.682 439.809 513.335 440.672 510.92 441.628C510.517 415.805 511.772 389.799 510.649 364.004C493.202 363.86 475.753 363.91 458.307 364.155C442.427 364.522 426.533 365.456 410.643 365.036Z" fill="#FFCFD2"/>
<path d="M378.366 765.887C377.536 765.709 376.835 765.456 376.056 765.12C374.616 760.547 375.249 745.186 375.1 739.572C374.26 690.861 373.802 642.144 373.727 593.425L372.225 452.47C371.824 432.75 371.552 413.028 371.411 393.305C371.281 382.188 370.901 371.02 371.23 359.906L374.968 362.198C375.136 449.309 375.808 536.419 376.983 623.523C377.498 655.626 377.823 687.731 377.958 719.837C378.082 735.133 378.89 750.617 378.366 765.887Z" fill="url(#paint3_linear_2247_6598)"/>
<path d="M519.277 364.687L605.701 362.281C610.409 362.014 615.151 362.028 619.867 361.941C619.683 369.09 619.883 376.285 619.919 383.439C606.306 383.464 592.643 384.205 579.035 384.648L533.691 385.949L519.405 386.159L519.277 364.687Z" fill="#FFCFD2"/>
<path d="M414.611 367.025C426.734 366.895 438.894 366.2 451.018 365.861C463.971 365.499 476.926 365.48 489.881 365.232C496.301 365.09 502.773 365.326 509.195 365.416C509.191 372.32 509.231 379.224 509.314 386.127L434.901 388.392C428.139 388.51 421.378 388.712 414.621 388.995C414.663 381.672 414.66 374.349 414.611 367.025Z" fill="#FFCFD2"/>
<path d="M786.223 368.254C792.719 367.853 799.13 367.143 805.582 366.323C835.791 363.44 877.138 364.953 901.713 385.056C930.199 408.358 940.18 444.219 943.494 479.364C947.48 521.638 935.421 564.496 912.863 600.187C906.365 610.469 898.667 619.999 891.301 629.664C887.173 623.116 882.181 616.968 877.376 610.91C862.655 592.35 846.043 574.936 829.092 558.408C821.938 551.433 814.482 544.772 807.343 537.781C801.155 531.723 790.482 519.433 783.467 515.353C783.456 490.943 784.214 466.499 784.65 442.091C784.848 417.473 785.372 392.858 786.223 368.254Z" fill="#B9FBC0"/>
<path d="M379.781 768.248C381.195 754.97 379.802 735.945 379.587 722.12L379.067 652.674L377.208 465.239C376.899 432.199 375.861 399.113 376.436 366.074C381.96 366.188 387.482 366.346 393.003 366.547L395.039 630.503C395.539 676.847 395.799 723.193 395.818 769.539C391.061 769.415 386.035 768.771 381.313 769.028L379.781 768.248Z" fill="#F0D5D6"/>
<path d="M397.523 769.748L396.033 524.889C395.96 472.234 395.473 419.581 394.572 366.934C396.084 366.904 397.486 366.952 398.986 367.151C399.234 367.436 399.635 367.64 399.731 368.006C400.394 370.516 399.921 387.672 399.971 392.15C400.455 418.562 400.736 444.976 400.813 471.392L403.653 769.902L397.523 769.748Z" fill="#FFCFD2"/>
<path d="M404.41 663.023L401.473 367.156L412.991 367.023C412.954 465.848 415.411 564.705 415.029 663.529C411.449 662.848 408.031 662.915 404.41 663.023Z" fill="#F1C0E8"/>
<path d="M724.927 383.359C744.648 378.105 764.488 372.561 784.613 369.102C782.626 416.93 782.768 464.841 781.571 512.691C771.463 502.559 760.953 492.594 751.269 482.07C744.71 474.943 730.837 456.64 724.451 452.232C724.125 444.302 724.431 436.203 724.493 428.263L724.927 383.359Z" fill="#B9FBC0"/>
<path d="M650.01 379.659L651.505 378.637C651.532 391.813 651.467 404.99 651.31 418.166C650.724 436.807 651.274 455.504 651.189 474.152C650.882 502.602 650.74 531.053 650.763 559.505C650.978 590.576 651.019 621.649 650.885 652.721L649.372 651.867C650.355 643.531 649.57 634.272 649.554 625.855L649.203 565.869L650.01 379.659Z" fill="#030202"/>
<path d="M699.952 395.941C707.254 391.125 715.276 387.68 723.211 384.07C722.659 404.902 722.803 425.854 722.714 446.698C718.664 442.905 703.295 420.564 700.218 419.718L699.51 421.21C699.705 412.788 699.852 404.364 699.952 395.941Z" fill="#B9FBC0"/>
<path d="M534.815 392.442C530.652 392.481 524.633 393.475 520.721 392.542C519.791 392.319 520.186 392.525 519.588 391.516C519.665 390.249 519.431 388.905 520.287 387.942C527.337 386.599 539.798 387.251 547.626 387.05L604.967 385.283C608.704 385.144 612.855 384.366 616.549 384.829C618.17 385.033 618.87 385.519 619.89 386.755C620.034 388.01 620.175 388.235 619.559 389.313C614.931 390.888 589.716 390.719 583.304 390.894C567.138 391.309 550.975 391.825 534.815 392.442Z" fill="#FFCFD2"/>
<path d="M416.379 396.017C415.826 395.985 415.431 395.782 414.923 395.575C414.836 395.328 414.736 395.085 414.661 394.834C414.188 393.255 414.268 392.217 415.085 390.802C426.381 389.326 438.608 389.847 450.011 389.549L507.872 387.738L508.995 387.949C509.252 388.457 509.335 388.561 509.487 389.175C509.794 390.424 509.472 391.564 508.849 392.642C500.587 393.976 491.616 393.666 483.233 393.927C461.077 394.616 438.453 394.147 416.379 396.017Z" fill="#FFCFD2"/>
<path d="M519.506 394.014C551.496 394.312 584.143 392.236 616.204 391.5C612.433 395.314 606.756 396.894 602.291 399.729C596.343 403.506 590.92 408.43 585.839 413.286L584.881 413.591C580.791 414.863 576.33 415.39 572.144 416.357C562.504 418.584 552.282 421.351 543.092 425.023C535.077 428.225 526.985 434.96 519.878 437.552L519.506 394.014Z" fill="#FFCFD2"/>
<path d="M616.203 391.499C617.666 391.48 618.633 391.165 619.842 392.061C620.638 399.077 620.112 406.58 620.081 413.655C613.344 412.771 606.594 412.276 599.796 412.577C595.153 412.782 590.486 413.435 585.838 413.285C590.919 408.429 596.342 403.505 602.29 399.728C606.755 396.893 612.432 395.313 616.203 391.499Z" fill="#98F5E1"/>
<path d="M509.568 443.963C503.626 445.489 497.562 449.529 492.252 452.547C486.188 455.946 480.222 459.518 474.362 463.258C460.88 471.966 428.994 494.628 415.537 497.958C415.4 464.476 415.059 430.994 414.514 397.515C446.164 396.315 477.839 395.979 509.469 394.328C509.396 410.873 509.429 427.418 509.568 443.963Z" fill="#FFCFD2"/>
<path d="M651.336 426.76C669.813 424.708 683.868 408.588 698.266 398.055C697.46 423.616 697.679 449.346 697.553 474.93L696.6 599C696.572 617.138 696.392 635.274 696.061 653.409C681.008 653.46 665.944 652.556 650.886 652.723C651.02 621.651 650.979 590.578 650.764 559.507C650.741 531.055 650.883 502.604 651.19 474.154C651.275 455.506 650.725 436.809 651.311 418.168C651.529 420.973 651.337 423.938 651.336 426.76ZM669.881 443.24C662.855 445.199 658.714 452.446 660.594 459.493C662.473 466.54 669.673 470.763 676.741 468.963C681.384 467.781 685.034 464.194 686.297 459.572C687.56 454.95 686.242 450.005 682.845 446.626C679.448 443.246 674.497 441.953 669.881 443.24ZM669.539 488.034C662.306 489.509 657.649 496.579 659.148 503.807C660.647 511.034 667.733 515.668 674.955 514.144C682.143 512.628 686.751 505.583 685.258 498.39C683.766 491.197 676.737 486.566 669.539 488.034ZM669.811 530.024C662.532 530.999 657.41 537.675 658.352 544.958C659.294 552.242 665.946 557.394 673.234 556.485C680.569 555.57 685.762 548.866 684.813 541.535C683.865 534.205 677.137 529.043 669.811 530.024Z" fill="#98F5E1"/>
<path d="M519.877 437.551C526.984 434.959 535.076 428.224 543.091 425.022C552.281 421.35 562.503 418.583 572.143 416.356C576.329 415.389 580.79 414.862 584.88 413.59L585.838 413.285C590.486 413.435 595.153 412.782 599.796 412.577C606.594 412.276 613.344 412.771 620.081 413.655L619.992 505.389C597.514 511.894 577.083 520.202 556.751 531.822C551.025 535.094 544.036 541.83 538.949 544.128C535.342 542.992 531.509 543.377 527.79 543.657C526.129 552.65 526.636 581.036 527.352 590.957C531.271 591.01 535.206 591.14 539.119 590.886C540.117 591.725 539.9 592.096 540.004 593.291C540.789 602.3 540.342 611.437 540.767 620.475L544.134 710.773C544.43 720.536 546.954 738.419 545.726 746.927C544.375 747.869 541.929 747.476 540.304 747.591C534.278 747.627 528.242 747.309 522.221 747.09L519.877 437.551Z" fill="#8EECF5"/>
<path d="M699.511 421.211L700.219 419.719C703.296 420.565 718.665 442.906 722.715 446.699C721.572 506.128 720.754 565.562 720.261 625C719.942 651.84 719.195 678.726 719.111 705.561C711.78 705.944 704.471 706.015 697.131 706.036L699.511 421.211Z" fill="#98F5E1"/>
<path d="M510.92 441.631C513.335 440.675 515.682 439.812 518.197 439.145C519.212 482.106 518.744 525.067 519.076 568.031L520.638 773.588L513.616 773.453L511.376 513.363C511.123 489.462 511.452 465.523 510.92 441.631Z" fill="#8EECF5"/>
<path d="M676.741 468.962C669.673 470.762 662.473 466.539 660.594 459.492C658.714 452.445 662.855 445.198 669.881 443.239C674.497 441.952 679.448 443.245 682.845 446.625C686.242 450.004 687.56 454.949 686.297 459.571C685.034 464.193 681.384 467.78 676.741 468.962ZM669.889 444.78C663.832 446.689 660.381 453.06 662.094 459.176C663.806 465.292 670.062 468.946 676.23 467.433C680.401 466.409 683.684 463.194 684.794 459.045C685.904 454.897 684.665 450.472 681.562 447.503C678.46 444.533 673.985 443.49 669.889 444.78Z" fill="#030202"/>
<path d="M415.535 497.96C428.992 494.63 460.878 471.968 474.36 463.26C480.22 459.52 486.186 455.948 492.25 452.549C497.56 449.531 503.624 445.491 509.566 443.965L511.497 723.39C504.178 722.238 463.36 693.599 453.303 687.349C441.595 680.073 428.997 675.269 416.899 668.831C415.912 650.527 416.506 631.858 416.356 613.508L415.535 497.96ZM492.286 543.88C491.155 547.485 491.601 586.101 493 589.262C493.322 589.989 493.753 590.053 494.463 590.278C497.155 591.13 500.982 590.661 503.789 590.409C505.014 583.378 505.199 550.561 503.858 543.994C500.005 543.859 496.138 543.645 492.286 543.88Z" fill="#8EECF5"/>
<path d="M676.231 467.431C670.063 468.944 663.807 465.29 662.095 459.174C660.382 453.058 663.833 446.687 669.89 444.778C673.986 443.488 678.461 444.531 681.563 447.501C684.666 450.47 685.905 454.895 684.795 459.043C683.685 463.192 680.402 466.407 676.231 467.431ZM672.818 446.562C669.828 447.345 667.612 448.189 665.966 450.96C664.624 453.225 664.257 455.938 664.95 458.478C665.654 461.059 667.4 463.231 669.77 464.473C671.227 465.243 672.661 465.413 674.279 465.528C677.133 464.807 679.338 464.045 680.918 461.402C682.367 458.987 682.716 456.068 681.877 453.379C681.143 451.017 679.516 448.913 677.318 447.739C675.877 446.968 674.424 446.702 672.818 446.562Z" fill="#E6DFD5"/>
<path d="M674.277 465.529C672.659 465.414 671.225 465.244 669.768 464.474C667.398 463.232 665.652 461.06 664.948 458.479C664.255 455.939 664.622 453.226 665.964 450.961C667.61 448.19 669.826 447.345 672.816 446.562C674.422 446.703 675.875 446.969 677.316 447.74C679.514 448.914 681.141 451.018 681.875 453.38C682.714 456.069 682.365 458.987 680.916 461.402C679.336 464.045 677.131 464.808 674.277 465.529ZM672.048 447.987C669.434 449.198 667.477 450.411 666.523 453.272C665.764 455.486 665.976 457.917 667.106 459.966C668.086 461.704 669.858 463.25 671.822 463.727C672.826 463.971 673.855 464.027 674.884 463.995C677.381 462.956 678.993 462.065 680.141 459.516C681.103 457.396 681.153 454.973 680.279 452.815C679.544 451.042 678.007 449.28 676.202 448.544C674.786 447.966 673.537 447.97 672.048 447.987Z" fill="#030202"/>
<path d="M674.885 463.997C673.856 464.029 672.827 463.973 671.823 463.729C669.859 463.252 668.087 461.707 667.107 459.969C665.977 457.92 665.765 455.489 666.524 453.275C667.478 450.414 669.435 449.2 672.049 447.989C673.538 447.972 674.787 447.969 676.203 448.547C678.008 449.283 679.545 451.045 680.28 452.818C681.154 454.976 681.104 457.398 680.142 459.518C678.994 462.067 677.382 462.958 674.885 463.997Z" fill="#F0D5D6"/>
<path d="M724.451 452.23C730.837 456.638 744.71 474.941 751.269 482.068C760.953 492.592 771.463 502.557 781.571 512.689C781.323 573.953 779.069 635.211 779.009 696.472C771.619 697.913 764.292 700.012 756.857 701.139C744.975 702.941 733.032 703.677 721.139 705.195C721.829 682.487 721.823 659.713 722.054 636.993C722.682 575.436 722.635 513.765 724.451 452.23Z" fill="#98F5E1"/>
<path d="M330.333 488.444C327.929 488.733 325.499 488.814 323.2 487.939C320.369 486.835 318.113 484.62 316.958 481.808C315.822 479.053 315.87 475.952 317.088 473.232C318.667 469.789 321.236 468.301 324.679 467.126C327.379 467.036 330 467.203 332.488 468.36C335.266 469.651 337.607 472.002 338.636 474.913C339.523 477.42 339.413 480.271 338.199 482.65C336.524 485.934 333.691 487.345 330.333 488.444ZM324.385 468.607C321.558 469.921 319.407 471.576 318.239 474.573C317.322 476.927 317.513 479.693 318.623 481.948C319.795 484.331 322.021 486.146 324.547 486.932C326.493 487.538 328.695 487.412 330.681 487.063C333.54 485.827 335.944 484.381 337.178 481.374C338.035 479.288 337.936 477.021 337.044 474.961C335.887 472.289 333.368 470.164 330.636 469.231C328.627 468.545 326.486 468.489 324.385 468.607Z" fill="#030202"/>
<path d="M330.682 487.063C328.696 487.412 326.494 487.538 324.548 486.932C322.022 486.146 319.796 484.331 318.624 481.948C317.514 479.693 317.323 476.927 318.24 474.573C319.408 471.576 321.559 469.921 324.386 468.607C326.487 468.489 328.628 468.545 330.637 469.231C333.369 470.164 335.888 472.289 337.045 474.961C337.937 477.021 338.036 479.288 337.179 481.374C335.945 484.381 333.541 485.827 330.682 487.063Z" fill="#FBF8CC"/>
<path d="M674.955 514.143C667.733 515.667 660.647 511.033 659.148 503.806C657.649 496.578 662.306 489.508 669.539 488.033C676.737 486.565 683.766 491.196 685.258 498.389C686.751 505.582 682.143 512.627 674.955 514.143ZM668.495 489.687C662.262 491.694 658.826 498.365 660.812 504.605C662.797 510.846 669.456 514.305 675.703 512.341C681.981 510.367 685.461 503.668 683.465 497.397C681.47 491.127 674.76 487.67 668.495 489.687Z" fill="#030202"/>
<path d="M675.704 512.343C669.457 514.307 662.798 510.848 660.813 504.607C658.827 498.367 662.263 491.696 668.496 489.689C674.761 487.672 681.471 491.129 683.466 497.399C685.462 503.67 681.982 510.369 675.704 512.343ZM669.536 492.201C664.733 493.574 661.909 498.535 663.181 503.366C664.452 508.197 669.353 511.124 674.209 509.955C677.443 509.176 680.003 506.709 680.901 503.506C681.798 500.303 680.893 496.865 678.535 494.519C676.177 492.173 672.734 491.286 669.536 492.201Z" fill="#E6DFD5"/>
<path d="M674.208 509.952C669.352 511.121 664.451 508.194 663.18 503.363C661.908 498.532 664.732 493.571 669.535 492.198C672.733 491.283 676.176 492.17 678.534 494.516C680.892 496.862 681.797 500.3 680.9 503.503C680.002 506.706 677.442 509.173 674.208 509.952ZM669.691 493.719C665.702 495.043 663.497 499.307 664.722 503.327C665.946 507.348 670.154 509.658 674.203 508.534C676.914 507.782 679.004 505.619 679.662 502.883C680.321 500.148 679.445 497.271 677.373 495.367C675.302 493.464 672.361 492.833 669.691 493.719Z" fill="#030202"/>
<path d="M674.204 508.534C670.155 509.658 665.947 507.348 664.723 503.327C663.498 499.307 665.703 495.043 669.692 493.719C672.362 492.833 675.303 493.464 677.374 495.367C679.446 497.271 680.322 500.148 679.663 502.883C679.005 505.619 676.915 507.782 674.204 508.534Z" fill="#F0D5D6"/>
<path d="M538.949 544.13C544.036 541.832 551.025 535.096 556.751 531.824C577.083 520.204 597.514 511.896 619.992 505.391L619.825 666.877L619.799 713.525C619.811 721.776 620.306 730.394 619.64 738.613C619.276 731.728 619.762 724.856 619.177 717.979C618.92 718.665 618.88 719.028 618.848 719.742C616.728 721.25 603.501 722.526 599.784 723.303C586.258 726.129 575.861 731.071 565.252 739.827C562.202 742.344 558.574 744.494 557.363 748.436C551.675 748.167 545.978 748.103 540.304 747.593C541.929 747.478 544.375 747.871 545.726 746.929C546.954 738.421 544.43 720.538 544.134 710.775L540.767 620.477C540.342 611.439 540.789 602.302 540.004 593.293C539.9 592.098 540.117 591.727 539.119 590.888C538.792 580.386 539.187 569.654 539.252 559.121C539.283 554.179 539.644 549.032 538.949 544.13Z" fill="#FBF8CC"/>
<path d="M330.825 527.376C324.84 528.828 318.798 525.206 317.257 519.243C315.717 513.28 319.25 507.185 325.189 505.557C329.11 504.482 333.306 505.603 336.169 508.489C339.032 511.376 340.118 515.581 339.011 519.493C337.904 523.405 334.776 526.418 330.825 527.376ZM326.152 507.05C323.028 508.233 320.54 509.684 319.002 512.79C317.965 514.873 317.802 517.284 318.551 519.487C319.426 522.049 321.464 523.986 323.889 525.101C325.899 526.026 327.888 526.022 330.062 526.024C333.131 525.077 335.575 523.57 337.118 520.647C338.275 518.463 338.504 515.904 337.753 513.548C336.99 511.118 335.101 509.075 332.808 507.993C330.718 507.007 328.423 506.93 326.152 507.05Z" fill="#030202"/>
<path d="M330.063 526.025C327.889 526.023 325.9 526.027 323.89 525.102C321.465 523.987 319.427 522.05 318.552 519.488C317.803 517.285 317.966 514.874 319.003 512.791C320.541 509.685 323.029 508.234 326.153 507.051C328.424 506.931 330.719 507.008 332.809 507.994C335.102 509.076 336.991 511.119 337.754 513.549C338.505 515.905 338.276 518.464 337.119 520.648C335.576 523.571 333.132 525.078 330.063 526.025Z" fill="#FBF8CC"/>
<path d="M783.466 515.355C790.481 519.435 801.154 531.726 807.342 537.784C814.481 544.775 821.937 551.435 829.091 558.41C846.042 574.938 862.654 592.352 877.375 610.912C882.18 616.97 887.172 623.119 891.3 629.667L890.632 630.831C863.671 662.796 821.453 686.928 780.734 696.271C781.421 681.425 780.984 666.407 781.246 651.532L783.466 515.355Z" fill="#98F5E1"/>
<path d="M673.234 556.483C665.946 557.392 659.294 552.24 658.352 544.956C657.41 537.673 662.532 530.997 669.811 530.022C677.137 529.041 683.865 534.203 684.813 541.533C685.762 548.864 680.569 555.568 673.234 556.483ZM669.703 531.454C665.464 532.128 661.916 535.029 660.413 539.049C658.911 543.07 659.687 547.587 662.444 550.876C665.202 554.164 669.516 555.716 673.736 554.937C680.15 553.753 684.42 547.632 683.316 541.204C682.212 534.775 676.144 530.43 669.703 531.454Z" fill="#030202"/>
<path d="M673.737 554.937C669.517 555.716 665.203 554.164 662.445 550.876C659.688 547.587 658.912 543.07 660.414 539.049C661.917 535.029 665.465 532.128 669.704 531.454C676.145 530.43 682.213 534.775 683.317 541.204C684.421 547.632 680.151 553.753 673.737 554.937ZM669.111 534.397C664.094 535.782 661.162 540.983 662.574 545.991C663.986 551 669.202 553.904 674.203 552.466C679.167 551.038 682.045 545.869 680.643 540.898C679.242 535.928 674.089 533.022 669.111 534.397Z" fill="#E6DFD5"/>
<path d="M674.202 552.469C669.201 553.907 663.985 551.003 662.573 545.994C661.161 540.986 664.093 535.785 669.11 534.4C674.088 533.025 679.241 535.931 680.642 540.901C682.044 545.872 679.166 551.041 674.202 552.469ZM670.389 535.913C666.204 536.607 663.352 540.534 663.989 544.728C664.626 548.923 668.515 551.827 672.717 551.246C675.487 550.864 677.836 549.02 678.866 546.422C679.896 543.823 679.447 540.871 677.692 538.695C675.937 536.519 673.147 535.457 670.389 535.913Z" fill="#030202"/>
<path d="M672.717 551.246C668.515 551.827 664.626 548.923 663.989 544.728C663.352 540.534 666.204 536.607 670.389 535.913C673.147 535.457 675.937 536.519 677.692 538.695C679.447 540.871 679.896 543.823 678.866 546.422C677.836 549.02 675.487 550.864 672.717 551.246Z" fill="#E6DFD5"/>
<path d="M527.79 543.659C531.509 543.379 535.342 542.994 538.949 544.13C539.644 549.032 539.283 554.179 539.252 559.121C539.187 569.654 538.792 580.386 539.119 590.888C535.206 591.142 531.271 591.012 527.352 590.959C526.636 581.038 526.129 552.652 527.79 543.659ZM528.442 544.92C528.526 545.636 528.363 546.632 529.03 547.048C531.156 548.372 535.648 547.569 538.144 547.5C537.669 546.25 537.64 545.531 536.262 545.043C534.068 544.265 530.758 544.793 528.442 544.92ZM528.596 548.577C528.569 554.091 527.673 583.22 529.528 586.426L530.988 586.945L530.951 562.72C530.955 558.361 531.375 553.561 530.686 549.264C529.993 549.019 529.311 548.748 528.596 548.577ZM532.499 548.883L532.375 572.513C532.36 577.01 532.008 581.821 532.707 586.273C534.209 587.118 535.766 586.992 537.469 586.79C538.086 577.649 538.772 558.214 537.493 549.617C536.217 548.618 534.107 548.858 532.499 548.883ZM528.293 588.171C529.381 589.485 529.728 589.807 531.453 589.955C533.562 590.136 535.95 589.605 538.03 589.267C536.577 587.82 534.289 588.068 532.306 588.069C530.963 588.069 529.633 588.071 528.293 588.171Z" fill="#030202"/>
<path d="M503.79 590.407C500.983 590.659 497.156 591.128 494.464 590.276C493.754 590.051 493.323 589.987 493.001 589.26C491.602 586.099 491.156 547.483 492.287 543.878C496.139 543.643 500.006 543.857 503.859 543.992C505.2 550.559 505.015 583.376 503.79 590.407ZM492.848 545.093L493.192 546.945C495.689 548.587 500.546 547.642 503.467 547.62C502.881 546.37 502.938 545.921 501.575 545.471C499.034 544.633 495.521 545.052 492.848 545.093ZM493.336 549.044C493.455 559.593 492.551 575.934 493.748 585.784C495.032 586.874 497.462 586.571 499.086 586.543C499.072 580.344 499.993 553.383 498.196 549.329C496.528 548.996 495.032 548.994 493.336 549.044ZM500.384 548.476C500.489 554.403 499.526 582.573 500.959 586.238C501.609 586.482 502.246 586.747 502.92 586.919C502.967 581.394 503.976 553.096 502.949 549.829C502.844 549.496 502.484 549.308 502.252 549.047L500.384 548.476ZM493.836 587.667C494.806 588.883 495.398 589.065 496.966 589.175C498.804 589.303 500.771 589.187 502.571 588.785C500.723 587.152 496.305 587.627 493.836 587.667Z" fill="#030202"/>
<path d="M503.467 547.621C500.546 547.643 495.689 548.588 493.192 546.946L492.848 545.094C495.521 545.053 499.034 544.634 501.575 545.472C502.938 545.922 502.881 546.371 503.467 547.621Z" fill="#90DBF4"/>
<path d="M538.143 547.498C535.647 547.567 531.155 548.37 529.029 547.046C528.362 546.63 528.525 545.634 528.441 544.918C530.757 544.791 534.067 544.263 536.261 545.041C537.639 545.529 537.668 546.248 538.143 547.498Z" fill="#8EECF5"/>
<path d="M330.797 570.744C324.739 571.979 318.837 568.035 317.662 561.966C316.486 555.896 320.489 550.034 326.57 548.919C332.566 547.819 338.328 551.754 339.488 557.739C340.647 563.723 336.77 569.525 330.797 570.744ZM326.089 550.574C322.916 551.96 320.169 553.763 318.965 557.191C318.212 559.338 318.387 561.701 319.448 563.714C320.796 566.304 323.512 568.12 326.301 568.814C327.88 569.207 329.507 569.144 331.121 569.103C334.101 567.936 336.49 566.452 337.85 563.415C338.788 561.299 338.83 558.893 337.968 556.746C336.919 554.067 334.548 552.001 331.872 551.03C330.03 550.362 328.016 550.49 326.089 550.574Z" fill="#030202"/>
<path d="M499.085 586.542C497.461 586.57 495.031 586.873 493.747 585.783C492.55 575.933 493.454 559.592 493.335 549.043C495.031 548.993 496.527 548.995 498.195 549.328C499.992 553.382 499.071 580.343 499.085 586.542Z" fill="#8EECF5"/>
<path d="M502.92 586.92C502.246 586.748 501.609 586.483 500.959 586.239C499.526 582.574 500.489 554.404 500.384 548.477L502.252 549.048C502.484 549.309 502.844 549.497 502.949 549.83C503.976 553.097 502.967 581.395 502.92 586.92Z" fill="#8EECF5"/>
<path d="M530.987 586.942L529.527 586.423C527.672 583.217 528.568 554.088 528.595 548.574C529.31 548.745 529.992 549.016 530.685 549.261C531.374 553.558 530.954 558.358 530.95 562.717L530.987 586.942Z" fill="#E6DFD5"/>
<path d="M537.469 586.79C535.766 586.992 534.209 587.118 532.707 586.273C532.008 581.821 532.36 577.01 532.375 572.513L532.499 548.883C534.107 548.858 536.217 548.618 537.493 549.617C538.772 558.214 538.086 577.649 537.469 586.79Z" fill="#8EECF5"/>
<path d="M331.123 569.102C329.509 569.143 327.882 569.206 326.303 568.813C323.514 568.119 320.798 566.303 319.45 563.713C318.389 561.7 318.214 559.337 318.967 557.19C320.171 553.762 322.918 551.959 326.091 550.573C328.018 550.489 330.032 550.361 331.874 551.029C334.55 552 336.921 554.066 337.97 556.745C338.832 558.892 338.79 561.298 337.852 563.414C336.492 566.451 334.103 567.935 331.123 569.102Z" fill="#FBF8CC"/>
<path d="M502.571 588.787C500.771 589.189 498.804 589.305 496.966 589.177C495.398 589.067 494.806 588.885 493.836 587.669C496.305 587.629 500.723 587.154 502.571 588.787Z" fill="#E6DFD5"/>
<path d="M538.03 589.266C535.95 589.604 533.562 590.135 531.453 589.954C529.728 589.806 529.381 589.484 528.293 588.17C529.633 588.07 530.963 588.068 532.306 588.068C534.289 588.067 536.577 587.819 538.03 589.266Z" fill="#F0D5D6"/>
<path d="M284.514 622.513C307.648 610.05 333.916 602.271 358.558 593.219C358.84 609.688 359.002 626.159 359.043 642.63C334.538 651.494 309.718 659.371 285.14 667.983L284.514 622.513Z" fill="#98F5E1"/>
<path d="M261.879 634.585C268.469 630.754 275.513 626.058 282.705 623.477L284.548 735.847C284.914 763.536 284.765 791.334 285.647 819.001C287.92 819.069 290.321 818.983 292.548 819.458C290.564 819.587 288.6 819.715 286.61 819.689C286.707 825.371 285.619 836.174 289.634 840.459C281.442 839.724 273.234 839.182 265.016 838.835C264.837 810.401 264.413 781.969 263.745 753.543L261.879 634.585Z" fill="#98F5E1"/>
<path d="M780.735 696.269C821.454 686.926 863.672 662.793 890.633 630.828C912.206 659.021 919.274 704.293 914.695 738.781C907.591 792.277 878.712 834.652 836.448 866.954C792.803 899.899 737.789 914.01 683.675 906.138C655.718 902.341 626.853 890.706 604.62 873.278C601.208 870.604 596.452 867.329 594.06 863.768C593.444 862.85 593.236 862.024 592.963 860.969L671.9 865.057C687.712 865.952 703.585 867.57 719.426 867.577C723.794 861.021 727.371 853.716 731.524 846.98C737.768 836.853 777.723 775.232 779.149 768.55C780.563 761.924 779.63 750.128 779.715 742.873C779.896 727.343 780.408 711.798 780.735 696.269Z" fill="#A3C4F3"/>
<path d="M205.928 679.968C210.443 676.382 214.679 672.179 218.997 668.34C227.56 660.726 236.131 653.258 245.063 646.078C249.594 642.436 254.779 637.947 260.048 635.508C261.734 703.819 262.885 772.143 263.504 840.472C273.651 840.304 283.827 841.448 293.937 842.221C305.858 843.097 317.785 843.887 329.717 844.591L482.747 854.776C474.388 862.665 466.489 871 457.868 878.616C445.462 889.575 431.999 898.584 417.709 906.892C409.618 911.596 401.507 916.258 393.018 920.215C353.856 938.474 308.739 947.578 265.571 944.91C221.591 942.192 169.309 927.839 139.2 893.676C120.467 872.422 110.9 848.215 112.805 819.66C113.374 811.14 114.519 802.712 116.956 794.506C130.27 749.668 171.623 710.192 205.928 679.968Z" fill="#98F5E1"/>
<path d="M284.983 670.123C292.993 666.824 301.528 664.362 309.733 661.548C325.553 656.046 341.423 650.691 357.342 645.485C358.13 645.369 357.66 645.378 358.743 645.643C359.451 647.626 359.138 649.986 359.079 652.069C335.06 660.616 310.954 669.589 286.637 677.187C286.065 677.302 286.452 677.267 285.485 677C284.719 674.842 284.97 672.391 284.983 670.123Z" fill="#98F5E1"/>
<path d="M285.502 679.243C309.913 671.761 334.108 662.571 358.188 654.035L358.724 654.338C359.886 658.946 359 681.947 359.002 688.124L359.446 767.43C352.594 773.645 343.941 778.42 336.241 783.556C319.925 794.436 303.37 805.121 287.348 816.424L285.502 679.243Z" fill="#98F5E1"/>
<path d="M651.012 664.031L651.025 654.562C665.938 654.84 680.844 654.906 695.748 655.547L695.672 665.386C680.838 664.201 665.856 665.175 651.012 664.031Z" fill="#FBF8CC"/>
<path d="M404.408 663.025C408.029 662.917 411.447 662.85 415.027 663.531C414.848 699.122 415.138 734.713 415.897 770.296C412.41 770.086 408.901 770.064 405.408 769.979C404.128 734.388 404.535 698.642 404.408 663.025Z" fill="#FFCFD2"/>
<path d="M650.343 782.429C649.535 743.786 650.602 705.019 650.619 666.359C651.734 666.414 652.835 666.503 653.946 666.619C653.897 666.852 653.826 667.081 653.797 667.317C653.585 669.048 654.808 669.77 655.931 670.937C665.079 680.442 673.541 690.929 681.681 701.316C686.238 707.132 690.517 713.344 695.57 718.733C695.403 740.758 695.09 762.782 694.63 784.803C680.905 785.235 664.285 783.321 650.343 782.429Z" fill="#CFBAF0"/>
<path d="M687.083 705.754C680.414 697.663 673.696 689.614 666.928 681.606C663.027 677.001 658.545 672.513 655.327 667.41L654.969 666.852C654.899 666.74 654.831 666.626 654.762 666.512C668.448 666.884 682.195 666.751 695.864 667.459C695.794 680.236 695.533 693.041 695.667 705.816C692.765 705.469 689.987 705.497 687.083 705.754Z" fill="#98F5E1"/>
<path d="M416.9 668.828C428.998 675.266 441.596 680.07 453.304 687.346C463.361 693.596 504.179 722.235 511.498 723.387C511.534 731.15 511.614 738.912 511.739 746.674L417.308 744.561C417.352 719.316 417.216 694.071 416.9 668.828Z" fill="#F0D5D6"/>
<path d="M721.139 705.196C733.032 703.678 744.975 702.942 756.857 701.14C764.292 700.013 771.619 697.914 779.009 696.473C778.849 711.191 778.126 725.887 777.874 740.602C777.748 747.946 778.656 763.575 777.062 769.66C775.574 775.342 767.556 786.852 764.162 792.474C749.473 816.805 733.924 840.58 719.436 865.03C720.649 811.743 720.476 758.484 721.139 705.196Z" fill="#90DBF4"/>
<path d="M687.082 705.754C689.986 705.497 692.764 705.469 695.666 705.816L695.485 716.954C692.397 713.549 689.797 709.471 687.082 705.754Z" fill="#90DBF4"/>
<path d="M697.13 706.038C704.47 706.017 711.779 705.945 719.11 705.562C719.32 758.965 718.775 812.367 717.476 865.753C697.038 865.833 676.217 863.529 655.782 862.45L612.998 860.234C605.29 859.852 597.41 859.816 589.738 859.028C591.723 851.671 583.194 843.021 581 835.944C594.567 837.223 608.335 837.538 621.949 838.302L695.631 842.606C696.637 797.113 696.663 751.543 697.13 706.038Z" fill="#90DBF4"/>
<path d="M557.363 748.434C558.574 744.492 562.202 742.342 565.252 739.825C575.861 731.069 586.258 726.127 599.784 723.301C603.501 722.524 616.728 721.248 618.848 719.74C618.88 719.026 618.92 718.663 619.177 717.977C619.762 724.854 619.276 731.726 619.64 738.611C619.722 742.75 619.713 746.89 619.616 751.029C598.889 750.129 578.104 748.751 557.363 748.434Z" fill="url(#paint4_linear_2247_6598)"/>
<path d="M511.65 753.513C492.344 753.468 472.893 752.428 453.595 751.672C441.707 751.206 429.608 751.271 417.773 750.271C417.009 748.813 417.308 747.582 417.367 745.956C431.641 745.893 445.998 746.734 460.277 747.096C477.203 747.525 494.195 747.54 511.104 748.226C511.927 749.718 511.66 751.83 511.65 753.513Z" fill="#FFCFD2"/>
<path d="M619.503 758.485L560.086 755.988C547.698 755.475 535.131 755.41 522.794 754.288C522.019 752.662 522.338 750.404 522.367 748.629L589.332 751.182C598.913 751.575 609.642 751.149 619.039 752.788C619.823 754.511 619.539 756.626 619.503 758.485Z" fill="url(#paint5_linear_2247_6598)"/>
<path d="M417.509 770.449L417.441 751.59C448.935 752.344 480.438 754.4 511.928 754.934C511.916 761.075 512.208 767.241 512.466 773.376C501.69 772.679 490.809 772.663 480.012 772.286C459.182 771.54 438.347 770.928 417.509 770.449Z" fill="#F0D5D6"/>
<path d="M522.324 773.762L522.34 755.848L619.467 759.956C619.486 765.919 619.987 772.348 618.9 778.22C607.698 778.583 595.979 777.258 584.764 776.669C563.958 775.557 543.144 774.588 522.324 773.762Z" fill="#E6DFD5"/>
<path d="M374.06 761.41C374.347 763.485 374.187 766.035 375.471 767.659C376.927 768.045 378.281 768.16 379.782 768.245L381.314 769.025C378.75 769.053 376.504 768.937 373.975 768.376L374.06 761.41Z" fill="#5B5959"/>
<path d="M359.932 769.516C377.985 769.795 396.191 771.241 414.253 771.91L532.582 775.624C530.971 780.759 501.731 813.079 496.106 820.187C494.049 822.787 491.001 825.94 489.816 828.98C455.709 827.453 421.617 825.625 387.542 823.496C354.428 821.416 321.282 818.803 288.133 817.398C299.63 810.849 310.564 802.656 321.532 795.214C334.276 786.567 347.299 778.323 359.932 769.516Z" fill="#8EECF5"/>
<path d="M532.582 775.625C546.792 776.562 561.071 776.775 575.267 777.815C572.899 792.213 573.779 807.682 577.259 821.832C578.304 826.079 579.841 830.156 580.937 834.369C550.659 831.821 520.149 830.794 489.816 828.981C491.001 825.941 494.049 822.788 496.106 820.188C501.731 813.08 530.971 780.76 532.582 775.625Z" fill="#FDE4CF"/>
<path d="M638.842 781.72C634.887 781.477 630.865 781.531 626.902 781.487C624.987 781.466 621.526 781.647 620.137 780.23C620.311 778.68 620.271 778.436 621.269 777.266C625.896 775.19 633.894 776.83 639.028 777.101C638.891 778.657 638.801 780.158 638.842 781.72Z" fill="#F0D5D6"/>
<path d="M575.268 777.812C579.82 778.06 616.613 779.384 618.235 780.534L618.725 782.607C621.557 783.808 641.962 783.467 646.464 783.692L694.849 786.471L694.167 841.025C678.424 839.745 662.614 839.009 646.849 838.026C624.907 836.657 602.907 835.181 580.938 834.366C579.842 830.153 578.304 826.076 577.259 821.829C573.779 807.679 572.9 792.21 575.268 777.812Z" fill="#8EECF5"/>
<path d="M286.608 819.692C288.598 819.718 290.562 819.59 292.546 819.461C305.861 819.823 319.205 820.847 332.505 821.619C338.831 821.986 346.098 821.677 352.244 822.956L347.999 823.344C351.909 823.699 359.171 823.081 362.503 824.695L363.376 826.13L364.98 826.479L365.085 827.261C363.638 828.302 362.572 828.775 362.441 830.748C362.215 834.132 365.45 839.84 367.868 842.128C368.665 842.883 369.638 843.453 370.543 844.064C370.04 844.791 370.362 844.603 369.467 844.756C366.67 845.232 361.947 843.061 359.617 844.564C354.53 845.388 346.31 843.906 340.951 843.567C323.863 842.489 306.738 841.146 289.632 840.462C285.617 836.177 286.705 825.374 286.608 819.692Z" fill="#8EECF5"/>
<path d="M359.618 844.561C361.948 843.058 366.671 845.229 369.468 844.753C370.363 844.6 370.041 844.788 370.544 844.061C369.639 843.45 368.666 842.88 367.869 842.125C365.451 839.837 362.216 834.129 362.442 830.745C362.573 828.772 363.639 828.299 365.086 827.258L364.981 826.476L363.377 826.127L362.504 824.692C359.172 823.078 351.91 823.696 348 823.341L352.245 822.953C380.496 824.044 408.787 826.517 437.026 828.068C485.027 830.706 533.022 832.789 581 835.941C583.194 843.018 591.723 851.668 589.738 859.025C559.103 857.631 528.527 855.526 497.909 853.882L466.99 852.222C461.793 851.941 456.241 852.065 451.141 851.119C446.176 848.312 437.619 850.298 431.906 848.814C429.439 848.173 428.564 846.175 426.548 844.969C423.777 843.314 417.059 843.075 415.494 840.28C416.064 839.491 416.579 838.72 417.051 837.869C415.065 836.057 411.63 838.447 409.539 836.893C411.212 833.283 419.359 834.206 422.012 830.883L421.334 830.016C417.804 831.817 412.101 828.259 407.425 829.582C403.25 830.763 406.225 834.839 404.553 837.642C401.472 840.412 371.09 844.617 365.309 845.051C363.363 845.121 361.541 844.845 359.618 844.561Z" fill="url(#paint6_linear_2247_6598)"/>
<path d="M365.309 845.052C371.09 844.618 401.472 840.413 404.553 837.643C406.225 834.84 403.25 830.764 407.425 829.583C412.101 828.26 417.804 831.819 421.334 830.018L422.012 830.884C419.359 834.207 411.212 833.284 409.539 836.894C411.63 838.448 415.065 836.058 417.051 837.87C416.579 838.721 416.064 839.492 415.494 840.281C417.059 843.076 423.777 843.315 426.548 844.97C428.564 846.176 429.439 848.174 431.906 848.815C437.619 850.299 446.176 848.313 451.141 851.12C436.652 851.138 421.824 849.412 407.362 848.328C393.397 847.282 379.198 846.792 365.309 845.052Z" fill="#8EECF5"/>
<defs>
<linearGradient id="paint0_linear_2247_6598" x1="646.342" y1="557.247" x2="648.771" y2="557.254" gradientUnits="userSpaceOnUse">
<stop stop-color="#F1BFC2"/>
<stop offset="1" stop-color="#D2D7DB"/>
</linearGradient>
<linearGradient id="paint1_linear_2247_6598" x1="233.094" y1="457.308" x2="386.903" y2="521.029" gradientUnits="userSpaceOnUse">
<stop stop-color="#DFF0B2"/>
<stop offset="1" stop-color="#C8EEC6"/>
</linearGradient>
<linearGradient id="paint2_linear_2247_6598" x1="366.923" y1="559.057" x2="355.592" y2="558.897" gradientUnits="userSpaceOnUse">
<stop stop-color="#B8D0CB"/>
<stop offset="1" stop-color="#F2E1D7"/>
</linearGradient>
<linearGradient id="paint3_linear_2247_6598" x1="369.482" y1="562.921" x2="380.325" y2="562.552" gradientUnits="userSpaceOnUse">
<stop stop-color="#E3CCCD"/>
<stop offset="1" stop-color="#F0C6D7"/>
</linearGradient>
<linearGradient id="paint4_linear_2247_6598" x1="584.817" y1="727.266" x2="602.771" y2="758.307" gradientUnits="userSpaceOnUse">
<stop stop-color="#F1D9BF"/>
<stop offset="1" stop-color="#FBD6C9"/>
</linearGradient>
<linearGradient id="paint5_linear_2247_6598" x1="580.33" y1="734.254" x2="561.07" y2="772.447" gradientUnits="userSpaceOnUse">
<stop stop-color="#F8CCC9"/>
<stop offset="1" stop-color="#E0EAEB"/>
</linearGradient>
<linearGradient id="paint6_linear_2247_6598" x1="551.618" y1="792.342" x2="398.909" y2="891.109" gradientUnits="userSpaceOnUse">
<stop stop-color="#FFD5C6"/>
<stop offset="1" stop-color="#BDF9FA"/>
</linearGradient>
</defs>
</svg>
