<svg width="1024" height="1024" viewBox="0 0 1024 1024" fill="none" xmlns="http://www.w3.org/2000/svg">
<path d="M313.883 222.001C316.74 211.838 319.406 201.545 323.002 191.614C333.392 162.832 350.58 136.984 373.103 116.27C400.747 90.9429 436.138 75.0187 474.131 76.7903C524.722 79.1493 571.842 113.463 606.484 148.04C614.289 155.831 621.431 164.382 628.854 172.545C633.545 178.05 653.945 202.154 654.353 208.482C634.238 208.327 599.71 207.02 581.449 214.744C576.4 216.88 572.115 220.133 568.227 223.967C533.823 257.885 516.008 343.801 507.832 391.172C505.046 407.314 503.286 423.776 500.209 439.829C494.304 434.297 486.247 433.912 478.594 433.28C479.625 433.016 479.664 433.17 480.374 432.286C470.673 412.911 460.018 393.902 449.816 374.782C445.932 367.503 442.353 360.047 438.366 352.827C434.066 345.04 429.179 337.639 424.585 330.032C397.388 284.989 364.55 241.88 313.883 222.001Z" fill="#F9D990"/>
<path d="M628.854 172.544C633.52 164.635 640.304 158.733 646.982 152.572C673.321 128.275 698.337 114.274 732.927 105.331C779.736 93.2293 833.028 97.9574 875 122.972C918.085 148.65 943.194 195.837 954.938 243.216C961.843 270.528 967.628 298.111 972.281 325.896C982.245 385.185 989.724 459.534 957.227 513.685C947.168 530.446 933.595 547.23 917.957 559.007C912.828 562.87 903.932 566.84 899.831 570.991L899.534 570.901C878.117 552.927 853.838 539.093 828.847 526.799C834.14 505.178 836.942 480.143 839.854 457.884C843.451 430.683 846.342 403.395 848.526 376.045C850.379 354.639 852.179 333.104 852.595 311.617C853.047 288.24 853.175 260.307 835.745 242.44C816.047 222.247 763.34 214.619 735.703 212.366C725.175 211.507 714.558 211.769 704.009 211.155C687.463 210.193 670.934 208.685 654.352 208.481C653.944 202.153 633.545 178.049 628.854 172.544Z" fill="#C8ECD0"/>
<path d="M500.207 439.825C503.284 423.772 505.044 407.31 507.83 391.168C516.006 343.797 533.821 257.881 568.225 223.963C572.113 220.129 576.398 216.876 581.447 214.74C599.708 207.016 634.236 208.323 654.351 208.478C670.933 208.682 687.462 210.19 704.008 211.152C714.557 211.766 725.174 211.504 735.702 212.363C763.339 214.616 816.045 222.244 835.743 242.437C853.173 260.304 853.046 288.237 852.594 311.614C852.178 333.101 850.378 354.636 848.525 376.042C846.341 403.392 843.45 430.68 839.853 457.881C836.941 480.14 834.139 505.175 828.846 526.796C823.537 549.733 819.004 572.915 813.398 595.77C810.841 606.453 808.182 617.111 805.422 627.743C799.221 651.761 791.673 682.636 769.108 696.567C763.776 699.859 757.811 702.024 751.877 703.956C753.551 715.398 756.302 720.509 765.501 727.403C778.657 737.262 800.58 745.263 803.597 763.799C804.677 770.152 803.084 776.669 799.195 781.808C796.611 785.161 793.387 787.446 789.616 789.284C779.265 794.328 767.913 797.092 756.88 800.229C739.422 805.191 721.881 809.91 705.094 816.904C670.694 831.236 632.871 860.804 595.396 864.738C583.504 865.986 572.749 863.53 561.523 859.904C552.553 856.369 543.733 852.659 534.924 848.742C521.512 842.231 507.997 835.761 494.13 830.272C475.847 823.035 457.033 817.209 438.244 811.451C420.838 806.116 401.045 801.433 384.199 795.074C377.898 792.696 372.247 789.885 369.452 783.272C363.106 768.254 378.625 754.691 383.994 741.96C348.474 730.943 313.184 716.313 278.819 702.106C275.461 700.718 271.673 701.653 268.331 700.112C263.084 697.692 259.929 691.962 257.87 686.855C254.181 671.121 253.555 655.094 252.053 639.069C251.916 631.058 253.476 624.686 257.933 618.005C275.305 591.965 318.259 581 347.493 575.289C349.495 558.059 355.258 541.176 361.554 525.079C363.807 519.318 366.557 513.565 368.483 507.701L368.639 507.21C360.707 509.515 352.123 511.312 344.442 514.286C337.61 516.931 331.534 520.765 324.414 522.818C313.911 525.847 301.268 526.037 291.568 520.357C288.053 518.299 285.457 515.486 284.492 511.459C282.423 502.823 286.974 491.742 291.611 484.563C297.134 476.012 304.63 469.457 313.516 464.56C329.274 455.876 366.412 447.806 385.081 443.737C415.979 438.594 447.043 431.777 478.592 433.276C486.245 433.908 494.302 434.293 500.207 439.825ZM656.945 210.987C636.654 210.334 588.534 207.945 573.232 222.468C573.118 222.576 573.008 222.686 572.895 222.795C567.649 226.738 563.275 232.474 559.529 237.806C528.235 282.358 511.962 373.488 504.264 427.485C503.189 435.115 502.362 442.778 501.784 450.461C501.364 456.426 501.391 462.477 500.228 468.358C497.835 480.452 491.67 491.103 490.765 503.635C489.853 516.255 492.644 528.844 493.246 541.418L500.617 540.909C500.564 531.72 502.017 522.85 502.563 513.726C503.101 504.729 501.728 495.798 502.493 486.696C504.029 468.452 507.575 450.713 510.329 432.656C518.48 379.204 528.447 314.155 550.737 264.798C554.54 256.379 559.041 247.84 564.661 240.502C566.697 237.844 569.914 235.277 571.6 232.48C589.237 217.607 603.794 217.104 625.9 217.091C636.882 217.083 647.863 217.205 658.842 217.457C682.421 217.815 705.412 221.069 728.758 223.919C747.162 226.167 765.163 227.275 783.088 232.507C795.992 236.273 809.679 242.158 816.339 254.56C832.592 284.823 810.815 381.012 803.27 415.153C798.512 436.681 793.822 458.24 787.591 479.404L797.101 479.464C799.602 465.958 803.289 452.606 806.308 439.198C814.382 403.336 822.19 367.106 827.164 330.673C829.216 315.639 831.128 300.416 831.396 285.227C831.678 269.296 827.713 252.542 816.21 240.865C808.728 233.269 797.128 228.774 787.094 225.845C768.531 220.426 748.987 218.619 729.848 216.47C705.573 213.745 681.424 211.1 656.945 210.987ZM661.845 219.784C650.512 218.873 638.849 219.109 627.49 219.485C613.378 229.038 606.304 244.605 603.146 260.964C599.916 277.688 600.299 294.488 601.1 311.406C601.501 319.865 602.288 328.497 601.602 336.946C625.397 340.932 649.379 344.759 673.262 348.159C702.785 352.416 732.758 355.976 762.067 361.434C766.844 350.894 766.182 340.726 767.016 329.494C769.347 298.088 777.333 264.707 799.502 241.158C780.903 230.183 751.17 228.858 730.009 226.256C707.052 223.434 684.991 220.725 661.845 219.784ZM788.54 223.238C781.555 220.803 735.996 212.491 731.29 214.394C732.635 215.425 742.581 215.857 744.927 216.128C759.261 217.784 773.968 220.124 787.843 224.162C787.995 224.188 788.148 224.21 788.299 224.24C802.34 227.035 816.297 235.34 824.075 247.497C829.225 255.545 832.323 265.122 833.224 274.611C834.56 288.685 832.538 303.964 830.926 317.959C824.61 372.791 810.655 425.746 799.068 479.554C807.161 480.977 816.008 483.278 822.345 488.814C828.509 494.199 829.779 500.477 830.434 508.192C832.441 493.084 834.977 478.044 836.968 462.926C842.376 421.87 846.852 380.229 849.039 338.864C850.014 320.417 851.591 301.562 849.582 283.148C848.362 271.965 845.822 261.266 839.982 251.547C829.154 233.526 807.633 227.924 788.54 223.238ZM672.38 350.08C659.88 348.265 647.468 346.016 634.987 344.116C623.707 342.398 612.358 341.134 601.118 339.163C594.951 353.998 588.588 368.719 583.506 383.977C579.03 397.415 575.714 411.235 571.577 424.782C596.246 428.675 620.465 435.029 645.037 439.408C673.818 445.962 703.091 450.711 732.042 456.473C738.296 431.032 743.127 405.305 752.911 380.876C755.364 374.751 758.404 368.851 761.326 362.939C751.629 361.924 741.974 360.199 732.326 358.786L672.38 350.08ZM624.066 219.341C608.358 219.483 592.562 219.27 579.255 228.939C541.305 256.515 523.001 364.796 516.061 410.221C514.495 419.827 513.185 429.47 511.525 439.06C506.3 469.252 499.641 501.769 509.706 531.728C522.124 539.495 537.332 544.121 551.455 547.802C547.807 515.773 551.478 485.381 559.939 454.405C562.7 444.298 565.669 434.213 569.462 424.439C573.65 410.469 577.027 396.16 581.855 382.399C584.616 374.436 587.54 366.53 590.627 358.686C593.646 351.172 598.422 342.903 599.506 334.824C600.541 327.117 599.27 318.396 598.866 310.626C598.229 298.395 598.008 285.851 599.234 273.649C601.311 252.978 607.445 232.878 624.066 219.341ZM642.62 441.133C618.576 436.889 594.913 430.059 570.642 427.042C561.713 452.613 553.748 480.676 552.447 507.896C551.606 521.138 551.583 535.025 553.732 548.145L582.162 555.628C583.563 553.52 584.981 551.424 586.415 549.339C595.346 536.385 607.582 524.897 621.43 517.345C640.018 507.207 667.628 502.075 688.461 497.697C701.063 494.961 713.695 492.367 726.356 489.918C727.619 479.301 729.374 468.748 731.614 458.293C701.795 453.361 672.256 447.059 642.62 441.133ZM385.039 446.109C363.335 450.563 342.561 456.674 321.384 463.163C332.277 464.899 344.149 466.265 352.327 474.422C366.926 469.608 381.914 466.517 396.926 463.287L498.606 443.224L498.958 442.217C498.442 441.052 497.787 440.476 496.745 439.793C478.559 427.877 406.946 441.92 385.039 446.109ZM402.327 464.285C384.69 468.119 352.91 473.538 338.685 483.164C333.177 486.89 328.944 491.852 325.377 497.418C322.844 501.383 320.729 505.599 319.066 510C317.858 513.162 317.001 519.162 315.086 521.659C313.391 517.367 315.461 511.836 317.236 507.772C323.464 493.503 333.068 481.507 347.822 475.823C348.478 475.571 349.138 475.327 349.8 475.09C340.839 467.49 328.693 466.248 317.42 465.285C304.541 470.963 294.4 481.463 289.175 494.533C287.043 499.93 285.281 507.171 287.605 512.714C289.189 516.492 292.541 518.878 296.262 520.32C302.203 522.621 308.998 523.024 315.283 522.368C326.671 520.964 336.155 515.24 346.513 510.838C351.688 508.64 357.074 507.03 362.467 505.465C372.129 502.661 382.028 500.902 391.746 498.315C408.098 493.962 424.321 489.203 440.737 485.063C459.327 480.455 478.027 476.301 496.82 472.606C497.724 468.598 498.394 464.596 498.705 460.5C484.361 462.35 468.521 467.16 454.202 470.459C424.089 477.12 394.065 484.178 364.138 491.631C359.193 492.865 353.834 493.818 349.159 495.881C345.527 497.483 340.566 502.666 336.743 502.456L336.657 501.789C339.419 498.602 343.914 495.476 347.777 493.749C353.159 491.344 359.733 490.295 365.479 488.857C380.511 485.171 395.58 481.633 410.683 478.246C423.33 475.046 436.143 472.382 448.852 469.426C465.519 465.548 482.165 461.449 498.924 457.99L499.507 445.418C489.076 447.017 478.732 449.473 468.378 451.515C446.398 455.849 424.371 460.313 402.327 464.285ZM415.717 493.771C408.593 495.608 401.524 497.656 394.52 499.911C392.533 505.022 389.243 526.975 386.462 529.196L384.728 529.339C385.534 521.048 390.119 510.572 391.081 501.63L390.568 501.252C390.146 501.527 389.628 501.694 389.303 502.079C389.208 502.191 384.169 527.099 383.754 528.974C380.676 542.237 375.345 555.49 373.601 568.956C386.652 565.505 399.576 561.844 412.522 558.022C420.54 555.654 428.802 552.733 436.972 551.129C454.724 546.239 473.09 544.053 491.321 541.792C490.181 525.094 486.669 508.859 490.591 492.207C491.974 486.337 494.158 480.631 496.13 474.937C469.082 480.127 442.256 486.41 415.717 493.771ZM722.051 551.737C713.271 553.337 704.875 555.898 696.346 558.476C691.966 570.556 686.604 582.032 681.895 593.946C676.787 606.869 672.437 620.126 667.554 633.142C663.661 643.519 659.236 653.859 656.299 664.555C659.003 663.353 661.515 662.473 664.403 661.83C667.393 651.376 672.045 641.351 675.73 631.12C679.605 620.359 683.039 609.439 686.96 598.695C689.532 591.646 692.504 584.768 695.246 577.788C697.11 573.039 698.159 567.903 701.169 563.699C700.394 563.057 700.837 563.377 699.819 562.771L699.919 561.927C701.33 562.034 702.656 561.963 703.812 562.883L704.11 564.395C705.067 564.492 704.603 564.591 705.341 564.174C706.01 563.797 705.723 563.898 706.394 563.79C707.923 568.617 707.602 570.903 705.305 575.363C703.639 578.599 701.468 582.548 698.383 584.563L697.4 584.525C696.553 583.022 696.869 581.901 697.312 580.333C697.579 579.387 697.887 578.45 698.189 577.515C698.731 574.025 700.901 570.681 701.584 567.001C699.314 568.363 697.788 575.434 697.083 577.882C694.43 584.955 691.209 591.794 688.657 598.914C684.735 609.856 681.503 621.045 677.507 631.961C673.839 641.98 669.511 651.652 666.21 661.821C670.525 662.289 674.099 663.132 678.047 664.969C678.267 663.603 678.571 662.266 678.926 660.929C682.964 645.736 689.313 630.917 694.659 616.123C700.145 600.941 705.348 585.929 711.712 571.074C713.902 565.961 716.04 560.399 718.899 555.629C719.67 554.343 720.407 553.672 721.694 552.929C721.819 553.859 721.776 554.558 721.472 555.462C720.579 558.116 718.85 560.899 717.616 563.437C714.942 568.938 712.385 574.454 710.347 580.228C724.867 584.102 739.747 586.711 754.385 590.098C759.692 573.816 764.161 557.068 768.961 540.617C753.362 544.423 737.593 547.767 722.051 551.737ZM432.002 560.686L430.692 560.128L430.802 559.372C436.067 555.661 446.24 554.884 452.511 553.697C469.599 550.464 486.811 546.821 504.316 547.386C518.788 547.853 539.166 552.19 553.815 554.728C558.794 555.591 576.696 560.033 580.327 558.807L580.858 557.835C577.49 555.969 561.109 552.274 556.272 551.093C543.284 547.922 529.29 544.315 515.92 543.324C489.846 541.392 452.443 548.663 427.079 555.932C405.166 562.213 383.318 568.817 361.242 574.514C353.857 576.419 346.261 577.512 338.824 579.212C311.375 585.485 272.192 596.37 257.699 622.619C254.751 627.959 252.984 634.969 254.768 640.961C256.546 646.933 262.268 650.24 267.493 652.865C273.386 655.826 280.075 658.839 286.388 660.758C299.014 666.75 314.492 671.39 327.805 676.238C348.574 683.802 369.294 691.03 390.388 697.65C398.76 700.278 407.404 703.578 416.013 705.237C422.243 707.959 430.031 709.453 436.617 711.372C461.225 718.543 485.782 725.754 511.476 727.646C511.827 724.384 512.201 721.125 512.599 717.868C482.727 715.531 449.021 704.541 419.63 697.244C415.45 695.486 410.6 694.523 406.224 693.258C396.64 690.523 387.076 687.718 377.534 684.843C347.184 675.516 316.703 665.596 287.001 654.364C281.135 652.017 274.456 649.869 269.187 646.36C266.292 644.433 264.095 641.924 263.507 638.41C262.425 631.943 266.157 623.901 269.786 618.698C284.703 597.313 322.927 585.304 347.478 579.156C354.878 577.303 362.402 576.038 369.824 574.299C374.733 573.148 379.535 571.531 384.418 570.273C392.322 568.236 400.52 566.592 408.551 565.129C415.741 563.82 423.163 563.636 430.31 562.288L431.081 562.138C445.038 561.094 459.069 561.666 472.894 563.842C485.622 565.811 498.105 569.067 510.567 572.261C526.439 576.275 542.252 580.521 558 584.999C588.487 593.506 630.997 602.544 657.217 619.511C660.045 619.468 662.758 619.573 665.571 619.87C669.636 608.268 673.477 596.587 677.725 585.05C670.274 582.473 662.574 580.927 655.043 578.598C654.77 578.513 653.582 578.202 653.362 578.371C650.677 580.424 649.933 584.349 646.311 585.965C644.995 586.551 643.751 586.008 642.472 585.591L641.915 585.403C639.79 585.866 638.478 587.656 636.626 588.686C630.58 592.048 595.786 581.784 587.4 579.395C584.183 578.478 579.328 576.878 577.748 573.664C575.898 569.901 577.803 565.413 578.952 561.729C567.791 558.906 555.917 557.348 544.554 555.414C531.898 553.26 518.824 550.542 506.015 549.769C482.527 548.353 454.488 554.511 432.002 560.686ZM780.494 599.112C780.066 592.969 782.773 585.702 784.248 579.704L791.521 550.566C793.01 544.801 794.833 538.999 795.961 533.16L784.026 536.458C782.814 544.872 774.073 586.153 770.313 591.997L769.588 591.923C770.156 587.363 771.578 582.783 772.688 578.324C776.083 564.685 780.507 550.931 782.219 536.968C778.572 537.979 774.892 538.925 771.272 540.025C766.397 556.829 761.977 573.993 756.367 590.563C766.143 593.714 777.522 596.681 782.627 606.577C783.684 608.627 784.328 610.796 784.957 613.002C784.818 612.855 784.678 612.709 784.541 612.561C781.382 609.125 779.474 604.647 775.806 601.719C764.499 592.69 725.339 585.668 709.809 582.472C709.194 583.684 708.588 584.901 707.991 586.121C716.61 588.028 725.24 589.887 733.88 591.7C742.346 593.418 756.497 594.829 763.807 598.776C767.594 600.821 770.392 604.299 772.688 607.859C782.383 622.891 787.525 641.815 783.695 659.549C780.919 672.401 773.326 683.142 762.28 690.218C753.54 695.816 743.352 699.098 733.68 702.705L705.177 713.469C690.232 719.217 675.425 725.316 660.409 730.882C647.561 735.643 634.519 739.868 621.663 744.612C605.577 750.547 589.597 757.026 573.214 762.109C563.114 765.243 552.817 768.042 542.399 769.905C539.129 770.489 530.483 770.838 527.871 772.194C527.596 773.496 527.442 774.155 527.86 775.465C533.742 776.218 553.463 771.574 559.779 769.722C589.201 761.097 617.795 750.226 646.465 739.418L704.98 717.813C715.416 714.006 725.894 710.315 736.413 706.743C748.046 702.755 761.552 699.923 771.407 692.324C791.668 676.701 798.79 645.291 804.622 621.588C806.529 613.839 808.686 606.043 810.274 598.227C813.677 585.273 816.323 572.032 819.339 558.975C822.513 545.238 826.26 531.466 827.968 517.451C819.789 527.207 809.268 529.605 797.485 532.835C796.128 540.579 783.071 595.438 780.494 599.112ZM644.55 673.349C643 677.229 641.051 681.121 640.947 685.358C643.229 682.14 643.484 677.459 645.994 673.914C648.555 670.501 651.09 667.917 654.677 665.561C656.298 655.78 660.636 646.228 664.13 636.971C669.524 622.682 674.279 608.12 679.859 593.912C684.875 581.141 691.34 569.104 694.204 555.592C694.887 555.573 695.563 555.539 696.244 555.507C696.441 555.498 696.637 555.495 696.834 555.484C703.515 555.117 711.158 552.065 717.751 550.534C727.483 548.276 737.291 546.343 746.995 543.965C759.687 540.855 772.245 537.264 784.856 533.851C794.09 531.351 804.022 529.338 812.887 525.778C817.026 524.115 822.275 521.344 825.153 517.868C826.02 516.821 826.186 516.296 826.047 514.974C825.572 514.512 825.157 514.193 824.504 514.019C815.113 511.52 727.215 535.655 709.867 539.953C699.53 542.514 688.735 544.121 678.572 547.24C672.422 549.098 666.535 551.735 661.054 555.086C653.272 559.93 644.137 574.509 642.168 583.151C642.689 584.103 642.711 584.08 643.727 584.477C648.868 583.274 654.827 570.929 658.239 566.541C658.806 565.813 659.301 565.229 660.029 564.651C664.638 560.991 682.208 549.808 687.963 551.421C688.802 551.656 689.368 551.858 689.812 552.622C690.495 553.797 690.406 554.756 690.16 556.03C688.492 564.669 684.241 573.716 681.203 581.972C674.838 599.429 668.659 616.954 662.666 634.542C659.264 644.281 654.664 654.184 652.821 664.334C648.789 666.938 646.556 668.909 644.55 673.349ZM255.01 646.887C255.927 659.508 256.491 679.481 262.014 690.645C264.461 694.413 267.178 697.86 271.809 698.879C274.632 699.501 277.678 699.409 280.433 700.265C286.196 702.054 291.877 705.186 297.514 707.429L341.23 724.587C366.323 734.314 392.215 742.375 417.77 750.807C445.359 759.909 473.402 770.222 502.122 775.003C510.419 776.384 518.213 776.659 526.572 775.895C522.731 762.257 521.55 744.224 522.08 730.057L513.532 729.92C513.488 744.325 514.826 758.702 516.27 773.022C502.283 771.988 488.196 768.091 474.729 764.317C417.155 748.182 359.26 727.441 303.269 706.531C299.003 704.938 281.092 699.165 278.701 696.448C278.338 696.035 278.102 695.438 277.897 694.934C284.461 695.728 297.293 702.158 304.085 704.663C325.799 712.697 347.6 720.495 369.484 728.054C378.078 731.033 386.86 734.861 395.621 737.192C405.577 741.224 416.461 744.078 426.698 747.402C455.027 756.601 484.347 766.643 513.878 770.86C512.73 757.126 511.717 743.48 511.526 729.69C475.476 727.195 440.216 714.447 405.637 704.721C376.667 696.008 348.43 685.851 319.985 675.627C302.215 669.241 283.493 663.383 266.646 654.85C262.262 652.629 258.554 650.298 255.01 646.887ZM547.768 835.158C542.483 832.54 537.379 829.494 532.007 827.063C502.181 813.565 471.272 803.497 440.047 793.833C429.552 790.63 419.04 787.485 408.51 784.399C401.677 782.375 394.614 780.593 388.054 777.795C384.21 776.155 381.342 774.109 379.863 770.012C378.113 765.166 379.08 759.106 379.665 754.087C374.744 761.202 368.753 769.833 370.464 778.986C371.255 783.265 373.762 787.033 377.403 789.415C386.312 795.287 409.879 800.635 421.068 804.013C441.344 809.991 461.496 816.379 481.512 823.175C501.489 830.174 519.743 839.73 539.057 848.123C545.793 851.323 552.503 854.515 559.586 856.895C569.029 860.544 579.309 863.139 589.488 862.972C627.674 862.343 671.069 828.709 705.845 814.395C721.617 807.904 737.905 803.311 754.307 798.734C763.032 796.299 771.915 794.069 780.444 791.003C788.426 788.134 796.322 784.452 799.964 776.206C802.224 771.088 802.24 765.627 800.307 760.426L799.769 760.291C799.474 761.579 799.21 762.988 798.721 764.216C796.923 768.734 791.5 772.242 787.227 774.152C777.965 778.294 767.022 780.519 757.254 783.365C744.975 787.031 732.826 791.119 720.828 795.622C706.922 800.78 693.261 806.574 679.886 812.984C664.467 820.469 649.443 828.799 633.897 836.01C602.165 850.727 587.156 849.962 555.032 838.186C552.73 837.031 550.156 836.141 547.768 835.158ZM802.015 242.862C796.325 247.31 792.335 253.185 788.701 259.363C777.635 278.18 772.785 298.218 770.165 319.647C768.838 330.508 769.78 342.981 767.114 353.414C764.299 364.431 757.446 374.135 753.522 384.771C746.156 404.742 741.397 425.362 736.656 446.069C733.415 460.225 729.628 475.002 728.866 489.547L745.382 486.319C758.335 483.3 772.243 480.328 785.527 479.44C793.26 450.632 800.066 421.582 805.933 392.337C812.881 358.488 823.324 306.013 819.147 272.029C818.375 265.744 816.798 259.444 813.608 253.924C811.062 249.518 806.863 244.722 802.015 242.862ZM788.676 481.697C766.012 483.081 743.446 488.728 721.216 493.201C695.059 498.463 645.916 506.532 623.858 518.568C635.375 521.06 650.309 523.631 659.725 530.943L660.775 531.883C667.889 530.029 674.811 526.762 682.003 524.797C692.104 522.036 702.392 519.914 712.539 517.313C734.011 511.62 755.53 506.111 777.095 500.787C791.58 497.271 806.792 492.522 821.641 491.204C811.172 483.491 801.566 481.445 788.676 481.697ZM819.208 493.673C805.95 495.611 792.972 498.997 779.98 502.211C761.937 506.698 743.92 511.285 725.928 515.971C717.185 518.247 708.428 520.467 699.657 522.63C686.661 525.785 671.764 528.653 659.904 535.047C649.425 540.696 641.206 549.928 634.208 559.369C630.179 564.803 622.163 575.103 623.201 582.348C623.425 583.906 624.026 585.449 625.326 586.427C627.536 588.088 631.892 587.437 634.415 586.92C635.54 586.528 636.594 586.151 637.509 585.357C639.199 583.891 640.458 580.67 641.452 578.654C646.296 568.831 651.038 558.403 660.928 552.721C666.168 549.71 671.616 547.419 677.38 545.614C690.613 541.471 704.361 539.21 717.782 535.775C745.008 528.806 772.1 521.36 799.627 515.626C806.858 514.119 815.612 511.611 822.988 511.572C824.272 511.565 825.646 512.349 826.784 512.888C827.246 511.732 826.982 512.607 827.119 511.547C827.311 510.06 828.105 508.539 828.692 507.156C827.971 503.049 827.453 497.147 823.775 494.5C822.26 493.41 820.945 493.477 819.208 493.673ZM385.913 502.596L378.832 504.323C371.67 527.04 360.528 548.777 358.793 572.884L371.38 569.292C371.94 560.517 374.926 551.768 377.458 543.382C377.132 542.373 377.302 542.511 376.37 541.8C375.191 540.902 374.459 539.9 374.154 538.409C372.849 532.035 380.08 510.02 382.858 503.774L382.822 504.556C382.436 512.336 373.048 535.433 376.969 540.841L377.7 540.81C380.139 536.61 386.764 507.759 386.691 502.782L385.913 502.596ZM374.786 505.528L369.6 507.116C368.613 514.077 365.633 520.702 363.178 527.255C357.77 541.684 350.892 558.557 350.034 574.037L350.479 574.514L351.623 574.335L356.477 573.304C358.25 552.226 364.856 537.63 372.03 518.44C373.056 515.698 376.758 507.849 375.998 505.474L374.786 505.528ZM504.222 520.422C503.699 525.658 501.558 535.735 503.872 540.319C504.971 540.982 504.836 540.796 506.001 540.581L506.276 540.151L504.686 538.288C504.85 538.269 505.013 538.239 505.177 538.23C505.883 538.191 506.154 538.346 506.749 538.675C507.799 537.375 507.832 536.088 507.673 534.494C507.259 530.318 505.87 524.27 504.222 520.422ZM620.397 520.37C606.211 529.534 594.398 540.848 585.312 555.151C583.027 558.749 580.346 563.006 579.5 567.239C579.07 569.39 579.162 571.689 580.494 573.519C581.585 575.018 583.379 575.709 585.057 576.339C589.193 577.892 593.814 578.68 598.104 579.783C605.36 581.649 612.595 583.716 619.886 585.43L621.209 585.601C621.685 582.308 620.733 579.048 621.773 575.73C625.301 564.472 641.263 545.599 650.521 538.595C653.301 536.492 656.305 534.658 659.266 532.822C651.065 528.081 629.831 520.139 620.397 520.37ZM511.61 535.582L509.814 540.584C515.727 541.03 521.532 541.538 527.34 542.813L527.486 542.69C522.099 540.539 516.802 538.168 511.61 535.582ZM687.541 554.698C676.255 557.32 661.847 563.011 655.475 573.523C655.051 574.223 655.068 574.26 654.839 574.919L655.152 575.741L656.184 576.157C658.729 573.723 660.576 570.866 662.887 568.246C667.544 562.967 676.443 561.653 683.018 560.962L683.625 561.206C680.425 563.317 677.244 563.729 673.675 564.798C672.319 565.312 670.228 565.819 669.271 566.869C670.019 569.189 671.411 572.1 671.167 574.545C670.514 575.535 670.713 575.626 669.49 575.957C668.324 574.952 667.911 573.883 667.832 572.377C667.723 570.309 668.1 568.293 668.442 566.265C663.956 569.52 661.46 573.147 658.403 577.712C665.178 579.143 671.919 580.732 678.619 582.48C681.843 573.853 686.232 564.458 687.928 555.447L687.541 554.698ZM437.21 564.205C420.598 565.183 392.147 569.143 376.675 574.398C405.014 571.744 456.011 588.345 483.857 596.401C516.011 605.703 548.542 615.076 579.708 627.368C589.34 631.167 598.611 635.836 607.788 640.612C608.847 641.114 609.598 641.472 610.786 641.303C616.549 640.482 622.732 638.116 628.415 636.644C639.926 633.665 651.429 630.997 662.871 627.716C663.5 626.078 664.388 624.383 664.054 622.604C662.556 621.354 661.276 621.598 659.423 621.77C658.552 621.852 657.681 621.94 656.811 622.034C631.547 605.01 588.028 595.543 558.283 587.225C542.515 582.753 526.678 578.528 510.778 574.552C499.154 571.596 487.554 568.529 475.714 566.544C463.306 564.463 449.774 563.095 437.21 564.205ZM704.203 566.387C702.678 571.561 699.497 576.307 698.343 581.5L698.705 582.013C700.643 578.35 705.729 571.454 704.751 567.332C704.594 566.668 704.632 566.811 704.203 566.387ZM373.98 576.698C345.653 578.992 292.493 594.719 274.08 616.65C269.618 621.963 265.005 630.123 265.796 637.275C265.924 638.427 266.167 639.572 266.405 640.705C268.642 643.136 270.829 644.737 273.732 646.25C280.463 649.759 287.834 652.22 294.95 654.844C307.149 659.411 319.457 663.681 331.863 667.651C365.241 678.587 398.601 689.233 432.524 698.394C454.732 704.391 477.497 710.59 500.185 714.384C504.401 715.005 508.519 715.465 512.78 715.611C516.897 693.154 531.596 679.471 549.768 667.014C567.271 655.015 587.068 648.463 607.281 642.763C596.425 637.19 585.56 631.942 574.171 627.541C543.791 615.802 512.221 606.7 480.936 597.737C453.668 589.925 401.442 573.333 373.98 576.698ZM706.902 588.331C703.533 597.258 700.602 606.338 697.265 615.268C711.207 611.525 725.115 607.697 739.262 604.791C746.193 603.138 753.04 601.374 759.873 599.351C742.132 596.947 724.529 591.672 706.902 588.331ZM760.505 601.585C739.228 607.217 717.232 610.907 696.313 617.807C695.194 620.559 693.932 623.338 693.018 626.162L700.869 624.139C723.27 617.535 745.888 611.687 768.684 606.607C767.474 604.615 766.294 602.158 763.826 601.529C762.783 601.264 761.562 601.464 760.505 601.585ZM768.787 608.572C742.902 614.917 717.89 621.213 692.284 628.679C687.649 640.977 682.509 653.402 679.433 666.202C680.883 667.597 681.494 668.624 683.71 668.51C686.418 668.371 689.267 666.964 691.881 666.236C712.532 659.19 733.294 652.475 754.16 646.094C763.295 643.336 772.752 640.079 782.095 638.188C780.216 628.639 776.521 616.036 769.819 608.682L768.787 608.572ZM660.853 630.648C654.05 632.212 647.39 634.367 640.59 636.003C600.032 645.761 545.003 659.27 521.552 697.063C518.323 702.266 515.512 709.054 515.207 715.209C515.473 715.449 515.696 715.77 516.03 715.901L524.495 716.325C533.164 690.906 553.926 675.433 577.175 663.972C600.142 652.651 633.98 642.646 659.017 638.549C659.584 636.726 661.435 632.449 660.982 630.765L660.853 630.648ZM781.248 640.559C759.416 646.146 737.84 653.057 716.424 660.048C705.354 663.661 694.282 667.671 683.076 670.823C683.533 672.826 683.992 679.243 685.008 680.428C717.157 668.276 750.029 658.884 782.763 648.554C782.781 645.971 782.976 643.345 782.275 640.838C781.936 640.734 781.602 640.549 781.248 640.559ZM656.201 641.082C616.744 649.636 557.351 664.933 534.123 701.104C531.751 704.798 527.569 711.257 527.269 715.664C527.895 715.974 528.166 716.107 528.879 716.157C558.406 713.819 592.75 700.944 619.744 689.008C626.556 685.996 633.133 682.418 639.957 679.463C642.384 673.03 644.448 666.597 651.049 663.278C651.947 658.489 657.739 644.38 657.476 641.309C657.122 641.236 656.554 641.053 656.201 641.082ZM781.003 651.043C748.579 661.094 715.913 670.647 684.167 682.745C683.771 686.684 683.539 690.813 682.663 694.674C680.633 703.62 674.83 714.034 667.698 719.902C663.421 723.421 657.384 725.822 651.78 725.117C647.811 724.618 644.416 722.407 642.101 719.179C637.197 712.342 636.895 703.351 638.081 695.336C603.147 712.318 563.688 729.427 524.225 730.117C524.057 733.891 524.14 737.53 524.421 741.296C524.866 750.892 525.644 760.622 527.054 770.128C540.546 768.031 553.293 765.914 566.441 762.069C586.193 756.292 605.589 748.482 624.886 741.34C636.171 737.163 647.623 733.436 658.902 729.267C673.648 723.744 688.332 718.058 702.952 712.21C721.155 705.13 742.964 698.714 759.821 689.349C765.052 686.443 770.001 681.836 773.503 676.994C778.072 670.679 783.075 659.399 782.387 651.507L781.735 650.949L781.003 651.043ZM663.269 664.602C655.256 667.392 649.23 671.018 645.437 679.016C640.982 688.412 637.64 702.949 641.472 712.955C642.97 716.866 645.657 720.512 649.61 722.186C653.272 723.738 657.327 723.163 660.89 721.622C664.672 719.986 667.289 717.806 670.145 714.94C668.163 716.051 666.171 717.132 664.281 718.395C660.036 720.347 654.991 722.364 650.366 720.477C647.377 719.257 645.442 716.612 644.282 713.688C640.817 704.95 643.329 692.328 647.172 684.041C650.143 677.634 656.236 669.908 662.993 667.265C665.618 666.238 668.827 666.004 671.615 665.656L671.736 665.309C668.902 664.243 666.245 664.386 663.269 664.602ZM672.398 666.642C663.869 668.07 657.536 672.383 652.546 679.348C646.986 687.111 643.302 699.437 644.877 708.964C645.441 712.378 646.997 715.707 649.869 717.771C651.262 718.772 652.711 719.105 654.377 719.357C661.633 718.273 667.096 715.679 671.64 709.701C677.583 701.881 683.193 686.247 681.764 676.384C681.322 673.331 680.159 669.801 677.622 667.842C676.472 666.955 674.575 666.214 673.115 666.43C672.869 666.466 672.634 666.563 672.398 666.642ZM638.198 682.453C606.356 698.824 562.189 716.048 526.234 718.343C525.805 720.739 524.269 725.616 524.973 727.807L525.496 728.08C557.826 726.262 585.613 716.699 614.993 703.645C622.816 700.169 631.059 696.792 638.48 692.503C638.469 689.246 638.559 686.036 638.779 682.786L638.198 682.453ZM748.594 705.014C738.763 708.191 728.979 711.514 719.245 714.981C734.241 722.044 766.719 738.509 774.492 753.104L774.218 753.466C770.425 751.125 767.142 747.652 763.769 744.738C759.657 741.24 755.392 737.926 750.987 734.805C740.117 727.141 728.369 722.182 716.87 715.747C687.736 725.897 658.933 737.111 630 747.824C613.024 754.11 595.523 759.637 578.767 766.426C583.194 774.462 586.781 782.107 588.819 791.12C590.436 801.775 591.851 812.983 591.659 823.773C591.57 828.787 589.894 834.206 590.414 839.151C590.584 840.765 591.199 842.307 592.619 843.23C598.156 846.828 611.333 842.576 617.012 840.648C642.127 832.117 665.841 816.747 690.161 805.846C708.658 797.704 727.577 790.556 746.837 784.433C757.687 780.99 768.721 778.103 779.544 774.591C786.235 772.42 793.275 769.958 796.653 763.188C797.869 760.751 797.776 757.923 796.839 755.41C792.398 743.497 770.357 734.785 760.787 726.416C757.532 723.57 753.939 720.006 752.138 716.026C750.804 713.077 751.238 707.294 749.333 705.12L748.594 705.014ZM514.699 717.853C514.225 721.195 513.759 724.531 513.417 727.89C516.166 727.953 519.667 728.404 522.321 727.87C522.928 724.642 523.442 721.361 524.349 718.203L514.699 717.853ZM385.802 742.476C382.408 750.073 378.753 761.152 381.816 769.413C382.973 772.535 386.573 775.197 389.594 776.419C390.741 776.884 390.226 776.789 391.483 776.636C391.628 775.144 391.187 773.815 390.813 772.388C390.087 762.285 395.321 755.462 400.656 747.414C395.696 745.795 390.744 744.149 385.802 742.476ZM402.732 748.22C397.173 756.253 391.766 763.984 393.637 774.276C393.856 775.468 394.09 776.657 394.34 777.842C444.25 793.112 501.479 807.679 547.309 832.348C549.86 827.469 566.711 794.65 568.328 792.983L568.693 793.455C567.609 801.799 561.578 810.398 557.59 817.736C554.829 822.857 552.18 828.106 549.219 833.111C556.665 836.419 564.4 839.132 572.076 841.851C579.681 821.061 580.165 801.813 570.77 781.336C569.038 777.56 566.963 774.019 564.77 770.496C549.352 774.594 533.076 778.436 517.031 778.496C507.066 778.533 497.026 776.349 487.35 774.125C458.437 767.482 431.149 756.292 402.732 748.22ZM575.698 767.598C572.684 768.335 569.691 769.095 566.713 769.969C577.691 787.844 583.201 808.398 578.273 829.199C577.223 833.632 575.711 838.05 574.014 842.278C576.213 842.808 578.415 843.319 580.622 843.813C584.486 844.507 588.32 845.035 592.225 845.435C589.795 843.266 588.434 842.13 588.239 838.752C587.975 834.17 589.438 829.563 589.517 824.96C589.756 810.984 587.039 777.855 576.773 768.03C576.252 767.531 576.401 767.659 575.698 767.598Z" fill="black"/>
<path d="M572.897 222.798C573.01 222.689 573.12 222.579 573.234 222.471C588.536 207.948 636.656 210.337 656.947 210.99L658.844 217.46C647.865 217.208 636.884 217.086 625.902 217.094C603.796 217.107 589.239 217.61 571.602 232.483C572.105 230.64 573.55 229.401 575.084 228.375C576.655 227.325 577.873 226.732 578.383 224.839C577.701 223.597 577.077 222.887 576.063 221.937C575.228 222.269 574.497 222.531 573.605 222.69C573.37 222.732 573.133 222.762 572.897 222.798Z" fill="url(#paint0_linear_2247_7513)"/>
<path d="M181.603 659.551C172.144 655.365 162.346 651.731 152.999 647.333C146.05 644.063 139.276 640.086 132.629 636.246C101.365 618.183 75.0358 595.203 60.1426 561.54C41.4808 519.359 46.9164 472.535 57.6135 429.147C62.9074 407.206 69.7151 385.658 77.9875 364.658C100.288 306.795 136.791 249.483 195.508 223.587C233.266 206.934 275.388 207.149 313.627 221.992C300.872 283.008 313.009 346.59 347.342 398.618C351.98 405.778 357.096 412.617 362.653 419.09C365.808 422.764 384.539 441.828 385.082 443.741C366.413 447.81 329.275 455.88 313.517 464.564C304.631 469.461 297.135 476.016 291.612 484.567C286.975 491.746 282.424 502.827 284.493 511.463C285.458 515.49 288.054 518.303 291.569 520.361C301.269 526.041 313.912 525.851 324.415 522.822C331.535 520.769 337.611 516.935 344.443 514.29C352.124 511.316 360.708 509.519 368.64 507.214L368.484 507.705C366.558 513.569 363.808 519.322 361.555 525.083C355.259 541.18 349.496 558.063 347.494 575.293C318.26 581.004 275.306 591.969 257.934 618.009C253.477 624.69 251.917 631.062 252.054 639.073C234.421 638.28 209.106 647.172 192.627 654.077C189.382 655.437 184.72 656.875 182.132 659.24C182.04 659.324 181.967 659.426 181.885 659.518L181.603 659.551Z" fill="#CFBAF0"/>
<path d="M656.945 210.988C681.424 211.101 705.573 213.746 729.848 216.471C748.987 218.62 768.531 220.427 787.094 225.846C797.128 228.775 808.728 233.27 816.21 240.866C827.713 252.543 831.678 269.297 831.396 285.228C831.128 300.417 829.216 315.64 827.164 330.674C822.19 367.107 814.382 403.337 806.308 439.199C803.289 452.607 799.602 465.959 797.101 479.465L787.591 479.405C793.822 458.241 798.512 436.682 803.27 415.154C810.815 381.013 832.592 284.824 816.339 254.561C809.679 242.159 795.992 236.274 783.088 232.508C765.163 227.276 747.162 226.168 728.758 223.92C705.412 221.07 682.421 217.816 658.842 217.458L656.945 210.988Z" fill="#C8ECD0"/>
<path d="M788.541 223.242L787.844 224.166C773.969 220.128 759.262 217.788 744.928 216.132C742.582 215.861 732.636 215.429 731.291 214.398C735.997 212.495 781.556 220.807 788.541 223.242Z" fill="#797D7C"/>
<path d="M661.847 219.785L661.067 220.473C664.242 231.932 668.724 242.942 671.58 254.535C679.092 285.021 677.084 317.317 673.264 348.16C649.381 344.76 625.399 340.933 601.604 336.947C602.29 328.498 601.503 319.866 601.102 311.407C600.301 294.489 599.918 277.689 603.148 260.965C606.306 244.606 613.38 229.039 627.492 219.486C638.851 219.11 650.514 218.874 661.847 219.785ZM616.906 324.939C615.808 327.224 616.387 329.955 617.21 332.31C617.408 332.876 617.779 333.263 618.291 333.597C618.434 333.69 618.605 333.731 618.761 333.798C619.531 331.922 620.408 329.563 619.608 327.537C619.167 326.418 618.517 325.567 617.388 325.093C617.233 325.028 617.067 324.991 616.906 324.939Z" fill="#FBF8CC"/>
<path d="M516.062 410.224C523.003 364.799 541.306 256.518 579.256 228.942C592.563 219.273 608.36 219.486 624.068 219.344C607.447 232.881 601.312 252.981 599.235 273.652C598.009 285.854 598.23 298.398 598.867 310.629C599.271 318.399 600.543 327.12 599.508 334.827C598.424 342.906 593.647 351.175 590.628 358.689C587.541 366.533 584.618 374.439 581.857 382.402C577.029 396.163 573.652 410.472 569.464 424.442C555.434 419.927 530.37 409.096 516.062 410.224Z" fill="#FBF8CC"/>
<path d="M673.263 348.16C677.083 317.317 679.091 285.021 671.579 254.535C668.723 242.942 664.241 231.932 661.066 220.473L661.846 219.785C684.992 220.726 707.053 223.435 730.01 226.257C751.171 228.859 780.904 230.184 799.503 241.159C777.334 264.708 769.348 298.089 767.017 329.495C766.183 340.727 766.845 350.895 762.068 361.435C732.759 355.977 702.786 352.417 673.263 348.16ZM731.999 338.232C731.352 340.663 730.974 346.477 732.086 348.779C732.357 349.338 732.43 349.355 732.817 349.725C733.159 349.612 733.548 349.575 733.834 349.354C734.769 346.573 736.056 343.534 734.761 340.657C734.193 339.397 733.235 338.754 731.999 338.232Z" fill="#C8ECD0"/>
<path d="M493.246 541.421C492.644 528.847 489.853 516.258 490.765 503.638C491.67 491.106 497.835 480.455 500.228 468.361C501.391 462.48 501.364 456.43 501.784 450.465C502.362 442.782 503.19 435.118 504.265 427.488C511.963 373.491 528.236 282.361 559.53 237.809C563.276 232.477 567.649 226.741 572.895 222.798C573.131 222.762 573.368 222.732 573.603 222.69C574.495 222.531 575.227 222.269 576.062 221.938C577.076 222.887 577.7 223.597 578.382 224.839C577.872 226.732 576.653 227.325 575.082 228.375C573.548 229.401 572.104 230.64 571.601 232.483C569.915 235.28 566.697 237.847 564.661 240.505C559.041 247.843 554.54 256.382 550.737 264.801C528.447 314.158 518.48 379.207 510.329 432.659C507.575 450.716 504.029 468.455 502.493 486.699C501.728 495.801 503.101 504.733 502.563 513.73C502.017 522.854 500.564 531.724 500.617 540.913L493.246 541.421Z" fill="url(#paint1_linear_2247_7513)"/>
<path d="M313.628 221.988L313.883 221.997C364.55 241.876 397.388 284.985 424.585 330.028C429.179 337.635 434.066 345.036 438.366 352.823C442.353 360.043 445.932 367.499 449.816 374.778C460.018 393.898 470.673 412.907 480.374 432.282C479.664 433.166 479.625 433.012 478.594 433.276C447.045 431.777 415.981 438.594 385.083 443.737C384.54 441.824 365.809 422.76 362.654 419.086C357.097 412.613 351.981 405.774 347.343 398.614C313.01 346.586 300.873 283.004 313.628 221.988Z" fill="#FFCFD2"/>
<path d="M787.844 224.162L788.541 223.238C807.634 227.924 829.155 233.526 839.983 251.547C845.823 261.266 848.363 271.965 849.583 283.148C851.592 301.562 850.015 320.417 849.04 338.864C846.853 380.229 842.377 421.87 836.969 462.926C834.978 478.044 832.442 493.084 830.435 508.192C829.78 500.477 828.51 494.199 822.346 488.814C816.009 483.278 807.162 480.977 799.069 479.554C810.656 425.746 824.611 372.791 830.927 317.959C832.539 303.964 834.561 288.685 833.225 274.611C832.324 265.122 829.226 255.545 824.076 247.497C816.298 235.34 802.341 227.035 788.3 224.24C788.149 224.21 787.996 224.188 787.844 224.162Z" fill="#C8ECD0"/>
<path d="M728.867 489.548C729.629 475.003 733.416 460.226 736.657 446.07C741.398 425.363 746.157 404.743 753.523 384.772C757.447 374.136 764.3 364.432 767.115 353.415C769.781 342.982 768.839 330.509 770.166 319.648C772.786 298.219 777.636 278.181 788.702 259.364C792.336 253.186 796.326 247.311 802.016 242.863C806.864 244.723 811.063 249.519 813.609 253.925C816.799 259.445 818.376 265.745 819.148 272.03C823.325 306.014 812.882 358.489 805.934 392.338C800.067 421.583 793.261 450.633 785.528 479.441C772.244 480.329 758.336 483.301 745.383 486.32L728.867 489.548Z" fill="#8EECF5"/>
<path d="M618.76 333.8C618.604 333.733 618.433 333.692 618.29 333.599C617.778 333.265 617.407 332.878 617.209 332.312C616.386 329.957 615.807 327.226 616.905 324.941C617.066 324.993 617.232 325.03 617.387 325.095C618.516 325.569 619.166 326.42 619.607 327.539C620.407 329.565 619.53 331.924 618.76 333.8Z" fill="black"/>
<path d="M733.834 349.356C733.548 349.577 733.159 349.614 732.817 349.727C732.43 349.357 732.357 349.34 732.086 348.781C730.974 346.479 731.352 340.665 731.999 338.234C733.235 338.756 734.193 339.399 734.761 340.659C736.056 343.536 734.769 346.575 733.834 349.356Z" fill="black"/>
<path d="M601.119 339.164C612.359 341.135 623.708 342.399 634.988 344.117C647.469 346.017 659.881 348.266 672.381 350.081C669.168 366.495 665.888 382.492 660.59 398.395C657.65 407.22 654.242 416.032 650.809 424.678C648.999 429.237 645.543 434.6 645.038 439.409C620.466 435.03 596.247 428.676 571.578 424.783C575.715 411.236 579.031 397.416 583.507 383.978C588.589 368.72 594.952 353.999 601.119 339.164ZM614.394 343.332C613.144 345.775 612.56 348.029 613.059 350.76L613.784 351.503L614.921 351.343C615.838 349.361 617.158 347.276 616.9 345.046C616.106 343.908 615.7 343.866 614.394 343.332ZM599.031 414.188C597.91 416.345 596.531 419.566 597.589 422.013C598.027 423.027 598.315 423.218 599.265 423.739C600.495 420.886 601.153 418.43 600.713 415.319C600.074 414.57 599.968 414.486 599.031 414.188Z" fill="url(#paint2_linear_2247_7513)"/>
<path d="M614.921 351.343L613.784 351.503L613.059 350.76C612.56 348.029 613.144 345.775 614.394 343.332C615.7 343.866 616.106 343.908 616.9 345.046C617.158 347.276 615.838 349.361 614.921 351.343Z" fill="black"/>
<path d="M672.38 350.082L732.326 358.788C741.974 360.201 751.629 361.926 761.326 362.941C758.404 368.853 755.364 374.753 752.911 380.878C743.127 405.307 738.296 431.034 732.042 456.475C703.091 450.713 673.818 445.964 645.037 439.41C645.542 434.601 648.998 429.238 650.808 424.679C654.241 416.033 657.649 407.221 660.589 398.396C665.887 382.493 669.167 366.496 672.38 350.082ZM727.924 361.181C726.603 363.491 725.461 368.139 726.042 370.77C726.321 372.028 726.737 372.129 727.754 372.796C728.968 369.555 730.469 366.549 729.854 363.025C729.248 362.137 728.892 361.669 727.924 361.181ZM708.903 434.375C707.235 436.72 708.192 441.985 708.646 444.759C708.769 445.509 708.623 445.106 709.498 445.82L709.98 445.792C711.31 442.965 712.299 439.9 711.142 436.825C710.684 435.609 709.998 435.014 708.903 434.375Z" fill="#8EECF5"/>
<path d="M727.754 372.795C726.737 372.128 726.321 372.027 726.042 370.769C725.461 368.138 726.603 363.49 727.924 361.18C728.892 361.668 729.248 362.136 729.854 363.024C730.469 366.548 728.968 369.554 727.754 372.795Z" fill="black"/>
<path d="M516.061 410.222C530.369 409.094 555.432 419.925 569.462 424.44C565.669 434.214 562.7 444.299 559.939 454.406C551.478 485.382 547.807 515.774 551.455 547.803C537.332 544.122 522.124 539.496 509.706 531.729C499.641 501.77 506.3 469.253 511.525 439.061C513.185 429.471 514.495 419.828 516.061 410.222Z" fill="#D7D0E6"/>
<path d="M599.266 423.738C598.316 423.217 598.028 423.027 597.59 422.013C596.532 419.566 597.911 416.345 599.032 414.188C599.969 414.486 600.075 414.57 600.714 415.319C601.154 418.43 600.496 420.885 599.266 423.738Z" fill="black"/>
<path d="M642.62 441.134C638.521 451.723 613.576 502.572 605.419 506.411C597.392 510.19 563.053 507.727 552.447 507.897C553.748 480.677 561.713 452.614 570.642 427.043C594.913 430.06 618.576 436.89 642.62 441.134ZM593.679 433.07C592.809 435.703 591.814 438.227 591.764 441.027L592.34 442.149C593.031 442.314 593.321 442.402 594.034 442.261C595.252 439.786 597.03 437.253 596.094 434.429C595.268 433.634 594.789 433.36 593.679 433.07Z" fill="#CFBAF0"/>
<path d="M594.036 442.261C593.323 442.402 593.033 442.314 592.342 442.149L591.766 441.027C591.816 438.227 592.811 435.703 593.681 433.07C594.791 433.36 595.27 433.634 596.096 434.429C597.032 437.253 595.254 439.786 594.036 442.261Z" fill="black"/>
<path d="M709.98 445.792L709.498 445.82C708.623 445.106 708.769 445.509 708.646 444.759C708.192 441.985 707.235 436.72 708.903 434.375C709.998 435.014 710.684 435.609 711.142 436.825C712.299 439.9 711.31 442.965 709.98 445.792Z" fill="black"/>
<path d="M385.039 446.109C406.946 441.92 478.559 427.877 496.745 439.793C497.787 440.476 498.442 441.052 498.958 442.217L498.606 443.224L396.926 463.287C396.189 458.401 388.08 450.677 385.039 446.109Z" fill="#FFCFD2"/>
<path d="M552.448 507.9C563.054 507.73 597.393 510.193 605.42 506.414C613.577 502.575 638.522 451.726 642.621 441.137C672.257 447.063 701.796 453.365 731.615 458.297C729.375 468.752 727.62 479.305 726.357 489.922C713.696 492.371 701.064 494.965 688.462 497.701C667.629 502.079 640.019 507.211 621.431 517.349C607.583 524.901 595.347 536.389 586.416 549.343C584.982 551.428 583.564 553.524 582.163 555.632L553.733 548.149C551.584 535.029 551.607 521.142 552.448 507.9ZM703.878 456.605C703.593 458.456 703.089 460.359 703.777 462.161C704.878 462.901 704.969 462.793 706.309 462.663C706.982 461.264 707.7 460.083 707.586 458.48C706.668 457.183 706.091 456.977 704.484 456.694C704.283 456.659 704.08 456.635 703.878 456.605Z" fill="url(#paint3_linear_2247_7513)"/>
<path d="M402.328 464.289C424.372 460.317 446.399 455.853 468.379 451.519C478.733 449.477 489.077 447.021 499.508 445.422L498.925 457.994C482.166 461.453 465.52 465.552 448.853 469.43C436.144 472.386 423.331 475.05 410.684 478.25C409.084 472.733 404.741 469.346 402.328 464.289Z" fill="#FFCFD2"/>
<path d="M321.385 463.163C342.562 456.674 363.336 450.563 385.04 446.109C388.081 450.677 396.19 458.401 396.927 463.287C381.915 466.517 366.927 469.608 352.328 474.422C344.15 466.265 332.278 464.899 321.385 463.163Z" fill="#F1C0E8"/>
<path d="M706.309 462.66C704.969 462.79 704.878 462.898 703.777 462.158C703.089 460.356 703.593 458.453 703.878 456.602C704.08 456.632 704.283 456.656 704.484 456.691C706.091 456.974 706.668 457.18 707.586 458.477C707.7 460.08 706.982 461.261 706.309 462.66Z" fill="black"/>
<path d="M315.088 521.663C317.003 519.166 317.86 513.166 319.068 510.004C320.731 505.603 322.846 501.387 325.379 497.422C328.946 491.856 333.179 486.894 338.687 483.168C352.912 473.542 384.692 468.123 402.329 464.289C404.742 469.346 409.085 472.733 410.685 478.25C395.582 481.637 380.513 485.175 365.481 488.861C359.735 490.299 353.161 491.348 347.779 493.753C343.916 495.48 339.421 498.606 336.659 501.793L336.745 502.46C340.568 502.67 345.529 497.487 349.161 495.885C353.836 493.822 359.195 492.869 364.14 491.635C394.067 484.182 424.091 477.124 454.204 470.463C468.523 467.164 484.363 462.354 498.707 460.504C498.396 464.6 497.726 468.602 496.822 472.61C478.029 476.305 459.329 480.459 440.739 485.067C424.323 489.207 408.1 493.966 391.748 498.319C382.03 500.906 372.131 502.665 362.469 505.469C357.076 507.034 351.69 508.644 346.515 510.842C336.157 515.244 326.673 520.968 315.285 522.372L315.088 521.663ZM397.737 489.563C391.221 491.107 335.929 505.104 334.084 506.61L334.322 507.381L336.095 507.856C351.513 504.714 366.678 499.742 381.892 495.735C386.753 494.455 395.334 493.343 399.43 490.978C399.725 490.191 399.704 490.606 399.412 489.733L399.727 489.903L399.054 490.476L399.713 489.864C398.835 489.465 398.766 489.453 397.737 489.563Z" fill="#F1C0E8"/>
<path d="M349.801 475.09C349.139 475.327 348.479 475.571 347.823 475.823C333.069 481.507 323.465 493.503 317.237 507.772C315.462 511.836 313.392 517.367 315.087 521.659L315.284 522.368C308.999 523.024 302.204 522.621 296.263 520.32C292.542 518.878 289.19 516.492 287.606 512.714C285.282 507.171 287.044 499.93 289.176 494.533C294.401 481.463 304.542 470.963 317.421 465.285C328.694 466.248 340.84 467.49 349.801 475.09Z" fill="#F1C0E8"/>
<path d="M415.719 493.772C442.258 486.411 469.084 480.128 496.132 474.938C494.16 480.631 491.976 486.338 490.593 492.208C486.671 508.86 490.183 525.095 491.323 541.793C473.092 544.054 454.726 546.239 436.974 551.129C436.573 549.491 436.518 547.847 436.141 546.225C432.022 528.531 425.453 509.155 415.719 493.772Z" fill="#FFCFD2"/>
<path d="M623.859 518.571C645.917 506.535 695.06 498.466 721.217 493.204C743.447 488.731 766.013 483.084 788.677 481.7C801.567 481.448 811.173 483.494 821.642 491.207C806.793 492.525 791.581 497.274 777.096 500.79C755.531 506.114 734.012 511.623 712.54 517.316C702.393 519.917 692.105 522.039 682.004 524.8C674.812 526.765 667.89 530.032 660.776 531.886L659.726 530.946C650.31 523.634 635.376 521.063 623.859 518.571Z" fill="#8EECF5"/>
<path d="M336.093 507.853L334.32 507.378L334.082 506.607C335.927 505.101 391.219 491.104 397.735 489.56C398.764 489.45 398.833 489.462 399.711 489.861L399.052 490.473L399.725 489.9L399.41 489.73C399.702 490.603 399.723 490.188 399.428 490.975C395.332 493.34 386.751 494.452 381.89 495.732C366.676 499.739 351.511 504.711 336.093 507.853Z" fill="black"/>
<path d="M634.415 586.921C631.892 587.438 627.536 588.089 625.326 586.428C624.026 585.45 623.425 583.907 623.201 582.349C622.163 575.104 630.179 564.804 634.208 559.37C641.206 549.929 649.425 540.697 659.904 535.048C671.764 528.654 686.661 525.786 699.657 522.631C708.428 520.468 717.185 518.248 725.928 515.972C743.92 511.286 761.937 506.699 779.98 502.212C792.972 498.998 805.95 495.612 819.208 493.674C820.945 493.478 822.26 493.411 823.775 494.501C827.453 497.148 827.971 503.05 828.692 507.157C828.105 508.54 827.311 510.061 827.119 511.548C826.982 512.608 827.246 511.733 826.784 512.889C825.646 512.35 824.272 511.566 822.988 511.573C815.612 511.612 806.858 514.12 799.627 515.627C772.1 521.361 745.008 528.807 717.782 535.776C704.361 539.211 690.613 541.472 677.38 545.615C671.616 547.42 666.168 549.711 660.928 552.722C651.038 558.404 646.296 568.832 641.452 578.655C640.458 580.671 639.199 583.892 637.509 585.358C636.594 586.152 635.54 586.529 634.415 586.921Z" fill="#8EECF5"/>
<path d="M394.521 499.913C401.525 497.658 408.594 495.61 415.718 493.773C425.452 509.156 432.021 528.532 436.14 546.226C436.517 547.848 436.572 549.493 436.973 551.131C428.803 552.735 420.541 555.656 412.523 558.024C399.577 561.846 386.653 565.507 373.602 568.958C375.346 555.492 380.677 542.239 383.755 528.976L384.729 529.341L386.463 529.198C389.244 526.977 392.534 505.024 394.521 499.913Z" fill="#F1C0E8"/>
<path d="M383.756 528.976C384.171 527.101 389.21 502.193 389.305 502.081C389.63 501.696 390.148 501.529 390.57 501.254L391.083 501.632C390.121 510.574 385.536 521.05 384.73 529.341L383.756 528.976Z" fill="#CFBAF0"/>
<path d="M378.834 504.325L385.915 502.598L386.693 502.784C386.766 507.761 380.141 536.612 377.702 540.812L376.971 540.843C373.05 535.435 382.438 512.338 382.824 504.558L382.86 503.776C380.082 510.022 372.851 532.037 374.156 538.411C374.461 539.902 375.193 540.904 376.372 541.802C377.304 542.513 377.134 542.375 377.46 543.384C374.928 551.77 371.942 560.519 371.382 569.294L358.795 572.886C360.53 548.779 371.672 527.042 378.834 504.325Z" fill="#F1C0E8"/>
<path d="M369.601 507.119L374.787 505.531L375.999 505.477C376.759 507.852 373.057 515.701 372.031 518.443C364.857 537.633 358.251 552.229 356.478 573.307L351.624 574.338L350.48 574.517L350.035 574.04C350.893 558.56 357.771 541.687 363.179 527.258C365.634 520.705 368.614 514.08 369.601 507.119Z" fill="#F1C0E8"/>
<path d="M644.552 673.351C646.558 668.911 648.791 666.94 652.823 664.336C654.666 654.186 659.266 644.283 662.668 634.544C668.661 616.956 674.84 599.431 681.205 581.974C684.243 573.718 688.494 564.671 690.162 556.032C690.408 554.758 690.497 553.799 689.814 552.624C689.37 551.86 688.804 551.658 687.965 551.423C682.21 549.81 664.64 560.993 660.031 564.653C659.303 565.231 658.808 565.815 658.241 566.543C654.829 570.931 648.87 583.276 643.729 584.479C642.713 584.082 642.691 584.105 642.17 583.153C644.139 574.511 653.274 559.932 661.056 555.088C666.537 551.737 672.424 549.1 678.574 547.242C688.737 544.123 699.532 542.516 709.869 539.955C727.217 535.657 815.115 511.522 824.506 514.021C825.159 514.195 825.574 514.514 826.049 514.976C826.188 516.298 826.022 516.823 825.155 517.87C822.277 521.346 817.028 524.117 812.889 525.78C804.024 529.34 794.092 531.353 784.858 533.853C772.247 537.266 759.689 540.857 746.997 543.967C737.293 546.345 727.485 548.278 717.753 550.536C711.16 552.067 703.517 555.119 696.836 555.486C696.639 555.497 696.443 555.5 696.246 555.509C695.565 555.541 694.889 555.575 694.206 555.594C691.342 569.106 684.877 581.143 679.861 593.914C674.281 608.122 669.526 622.684 664.132 636.973C660.638 646.23 656.3 655.782 654.679 665.563C651.092 667.919 648.557 670.503 645.996 673.916L644.552 673.351Z" fill="#98F5E1"/>
<path d="M780.494 599.114C783.071 595.44 796.128 540.581 797.485 532.837C809.268 529.607 819.789 527.209 827.968 517.453C826.26 531.468 822.513 545.24 819.339 558.977C816.323 572.034 813.677 585.275 810.274 598.229C809.645 598.241 809.945 598.207 809.253 598.357C799.828 600.391 790.039 599.98 780.494 599.114Z" fill="#9FE9C6"/>
<path d="M504.686 538.292L506.276 540.155L506.001 540.585C504.836 540.8 504.971 540.986 503.872 540.323C501.558 535.739 503.699 525.662 504.222 520.426C505.87 524.274 507.259 530.322 507.673 534.498C507.832 536.092 507.799 537.379 506.749 538.679C506.154 538.35 505.883 538.195 505.177 538.234C505.013 538.243 504.85 538.273 504.686 538.292Z" fill="#CCDFE4"/>
<path d="M619.887 585.432C612.596 583.718 605.361 581.651 598.105 579.785C593.815 578.682 589.194 577.894 585.058 576.341C583.38 575.711 581.586 575.02 580.495 573.521C579.163 571.691 579.071 569.392 579.501 567.241C580.347 563.008 583.028 558.751 585.313 555.153C594.399 540.85 606.212 529.536 620.398 520.372C629.832 520.141 651.066 528.083 659.267 532.824C656.306 534.66 653.302 536.494 650.522 538.597C641.264 545.601 625.302 564.474 621.774 575.732C620.734 579.05 621.686 582.31 621.21 585.603L619.887 585.432Z" fill="#8EECF5"/>
<path d="M828.846 526.797C853.837 539.091 878.116 552.925 899.533 570.899C880.307 579.742 833.932 600 813.398 595.771C819.004 572.916 823.537 549.734 828.846 526.797Z" fill="#9FE9C6"/>
<path d="M795.962 533.16C794.834 538.999 793.011 544.801 791.522 550.566L784.249 579.704C782.774 585.702 780.067 592.969 780.495 599.112C790.04 599.978 799.829 600.389 809.254 598.355C809.946 598.205 809.646 598.239 810.275 598.227C808.687 606.043 806.53 613.839 804.623 621.588C798.791 645.291 791.669 676.701 771.408 692.324C761.553 699.923 748.047 702.755 736.414 706.743C725.895 710.315 715.417 714.006 704.981 717.813L646.466 739.418C617.796 750.226 589.202 761.097 559.78 769.722C553.464 771.574 533.743 776.218 527.861 775.465C527.443 774.155 527.597 773.496 527.872 772.194C530.484 770.838 539.13 770.489 542.4 769.905C552.818 768.042 563.115 765.243 573.215 762.109C589.598 757.026 605.578 750.547 621.664 744.612C634.52 739.868 647.562 735.643 660.41 730.882C675.426 725.316 690.233 719.217 705.178 713.469L733.682 702.705C743.354 699.098 753.541 695.816 762.281 690.218C773.327 683.142 780.92 672.401 783.696 659.549C787.526 641.815 782.384 622.891 772.689 607.859C770.393 604.299 767.595 600.821 763.808 598.776C756.498 594.829 742.347 593.418 733.881 591.7C725.241 589.887 716.611 588.028 707.992 586.121C708.589 584.901 709.195 583.684 709.81 582.472C725.34 585.668 764.5 592.69 775.807 601.719C779.475 604.647 781.383 609.125 784.542 612.561C784.679 612.709 784.819 612.855 784.958 613.002C784.329 610.796 783.685 608.627 782.628 606.577C777.523 596.681 766.144 593.714 756.368 590.563C761.978 573.993 766.398 556.829 771.273 540.025C774.893 538.925 778.573 537.979 782.22 536.968C780.508 550.931 776.084 564.685 772.689 578.324C771.579 582.783 770.157 587.363 769.589 591.923L770.314 591.997C774.074 586.153 782.815 544.872 784.027 536.458L795.962 533.16Z" fill="#98F5E1"/>
<path d="M509.814 540.588L511.61 535.586C516.802 538.172 522.099 540.543 527.486 542.694L527.34 542.817C521.532 541.542 515.727 541.034 509.814 540.588Z" fill="#D7D0E6"/>
<path d="M722.052 551.737C737.594 547.767 753.363 544.423 768.962 540.617C764.162 557.068 759.693 573.816 754.386 590.098C739.748 586.711 724.868 584.102 710.348 580.228C712.386 574.454 714.943 568.938 717.617 563.437C718.851 560.899 720.58 558.116 721.473 555.462C721.777 554.558 721.82 553.859 721.695 552.929L722.052 551.737Z" fill="#8EECF5"/>
<path d="M286.388 660.762C280.075 658.843 273.386 655.83 267.493 652.869C262.268 650.244 256.546 646.937 254.768 640.965C252.984 634.973 254.751 627.962 257.699 622.622C272.192 596.373 311.375 585.488 338.824 579.215C346.261 577.515 353.857 576.422 361.242 574.517C383.318 568.82 405.166 562.217 427.079 555.936C452.443 548.667 489.846 541.395 515.92 543.327C529.29 544.318 543.284 547.925 556.272 551.096C561.109 552.277 577.49 555.972 580.858 557.838L580.327 558.811C576.696 560.037 558.794 555.594 553.815 554.731C539.166 552.193 518.788 547.857 504.316 547.39C486.811 546.825 469.599 550.467 452.511 553.7C446.24 554.887 436.067 555.665 430.802 559.376L430.692 560.132L432.002 560.689L430.969 561.595L431.081 562.142L430.31 562.291C423.163 563.639 415.741 563.823 408.551 565.132C400.52 566.595 392.322 568.24 384.418 570.277C379.535 571.535 374.733 573.152 369.824 574.303C362.402 576.042 354.878 577.307 347.478 579.16C322.927 585.308 284.703 597.317 269.786 618.702C266.157 623.905 262.425 631.946 263.507 638.413C264.095 641.927 266.292 644.437 269.187 646.364C274.456 649.873 281.135 652.021 287.001 654.368C286.757 654.39 286.513 654.42 286.268 654.434C282.019 654.679 268.3 647.463 265.011 644.353C263.965 643.364 263.631 642.1 263.203 640.773C262.785 639.475 262.637 637.676 261.387 637.072C259.548 636.184 257.985 636.383 256.105 636.981C255.172 638.012 254.896 638.233 254.938 639.713C255.036 643.145 259.274 646.795 261.815 648.59C267.207 652.401 274.156 654.942 280.245 657.483C281.728 658.102 284.566 658.837 285.782 659.77C286.089 660.006 286.186 660.432 286.388 660.762Z" fill="#CFBAF0"/>
<path d="M432.004 560.689C454.49 554.514 482.529 548.356 506.017 549.772C518.826 550.545 531.9 553.263 544.556 555.417C555.919 557.351 567.793 558.909 578.954 561.732C577.805 565.416 575.9 569.904 577.75 573.667C579.33 576.881 584.185 578.481 587.402 579.398C595.788 581.787 630.582 592.051 636.628 588.689C638.48 587.659 639.792 585.869 641.917 585.406L642.474 585.594C643.753 586.011 644.997 586.554 646.313 585.968C649.935 584.352 650.679 580.427 653.364 578.374C653.584 578.205 654.772 578.516 655.045 578.601C662.576 580.93 670.276 582.476 677.727 585.053C673.479 596.59 669.638 608.271 665.573 619.873C662.76 619.576 660.047 619.471 657.219 619.514C630.999 602.547 588.489 593.509 558.002 585.002C542.254 580.524 526.441 576.278 510.569 572.264C498.107 569.07 485.624 565.814 472.896 563.845C459.071 561.669 445.04 561.097 431.083 562.141L430.971 561.594L432.004 560.689Z" fill="#CCDFE4"/>
<path d="M696.348 558.477C704.877 555.899 713.273 553.338 722.053 551.738L721.696 552.93C720.409 553.673 719.672 554.344 718.901 555.63C716.042 560.4 713.904 565.962 711.714 571.075C705.35 585.93 700.147 600.942 694.661 616.124C689.315 630.918 682.966 645.737 678.928 660.93C678.573 662.267 678.269 663.604 678.049 664.97C674.101 663.133 670.527 662.29 666.212 661.822C669.513 651.653 673.841 641.981 677.509 631.962C681.505 621.046 684.737 609.857 688.659 598.915C691.211 591.795 694.432 584.956 697.085 577.883L698.191 577.516C697.889 578.451 697.581 579.388 697.314 580.334C696.871 581.902 696.555 583.023 697.402 584.526L698.385 584.564C701.47 582.549 703.641 578.6 705.307 575.364C707.604 570.904 707.925 568.618 706.396 563.791L707.046 562.72C710.651 561.665 713.525 560.494 716.564 558.311C711.425 558.819 706.816 560.08 701.568 560.067C701.109 561.377 701.166 561.317 699.921 561.928L699.821 562.772C700.839 563.378 700.396 563.058 701.171 563.7C698.161 567.904 697.112 573.04 695.248 577.789C692.506 584.769 689.534 591.647 686.962 598.696C683.041 609.44 679.607 620.36 675.732 631.121C672.047 641.352 667.395 651.377 664.405 661.831C661.517 662.474 659.005 663.354 656.301 664.556C659.238 653.86 663.663 643.52 667.556 633.143C672.439 620.127 676.789 606.87 681.897 593.947C686.606 582.033 691.968 570.557 696.348 558.477Z" fill="#98F5E1"/>
<path d="M673.676 564.799C677.245 563.73 680.426 563.318 683.626 561.207L683.019 560.963C676.444 561.654 667.545 562.968 662.888 568.247C660.577 570.867 658.73 573.724 656.185 576.158L655.153 575.742L654.84 574.92C655.069 574.261 655.052 574.224 655.476 573.524C661.848 563.012 676.256 557.321 687.542 554.699L687.929 555.448C686.233 564.459 681.844 573.854 678.62 582.481C671.92 580.733 665.179 579.144 658.404 577.713C661.461 573.148 663.957 569.521 668.443 566.266C668.101 568.294 667.724 570.31 667.833 572.378C667.912 573.884 668.325 574.953 669.491 575.958C670.714 575.627 670.515 575.536 671.168 574.546C671.412 572.101 670.02 569.19 669.272 566.87C670.229 565.82 672.32 565.313 673.676 564.799ZM677.158 570.371C676.021 571.985 675.272 573.955 675.604 575.963C675.789 577.086 676.374 577.466 677.279 578.102C678.459 576.636 678.815 574.936 678.663 573.059C678.565 571.853 678.461 571.378 677.525 570.593C677.416 570.502 677.281 570.445 677.158 570.371Z" fill="#98F5E1"/>
<path d="M701.566 560.068C706.814 560.081 711.423 558.821 716.562 558.312C713.523 560.496 710.649 561.666 707.044 562.721C705.599 561.369 703.338 560.99 701.566 560.068Z" fill="black"/>
<path d="M699.92 561.927C701.165 561.316 701.108 561.376 701.567 560.066C703.339 560.988 705.6 561.367 707.045 562.719L706.395 563.79C705.724 563.898 706.011 563.797 705.342 564.174C704.604 564.591 705.068 564.492 704.111 564.395L703.813 562.883C702.657 561.963 701.331 562.034 699.92 561.927Z" fill="#9FE9C6"/>
<path d="M376.676 574.401C392.148 569.146 420.599 565.186 437.211 564.208C449.775 563.098 463.307 564.466 475.715 566.547C487.555 568.532 499.155 571.599 510.779 574.555C526.679 578.531 542.516 582.756 558.284 587.228C588.029 595.546 631.548 605.013 656.812 622.037C657.682 621.943 658.553 621.855 659.424 621.773C661.277 621.601 662.557 621.357 664.055 622.607C664.389 624.386 663.501 626.081 662.872 627.719C651.43 631 639.927 633.668 628.416 636.647C622.733 638.119 616.55 640.485 610.787 641.306C609.599 641.475 608.848 641.117 607.789 640.615C598.612 635.839 589.341 631.17 579.709 627.371C548.543 615.079 516.012 605.706 483.858 596.404C456.012 588.348 405.015 571.747 376.676 574.401Z" fill="#CCDFE4"/>
<path d="M697.084 577.885C697.789 575.437 699.315 568.366 701.585 567.004C700.902 570.684 698.732 574.028 698.19 577.518L697.084 577.885Z" fill="#9FE9C6"/>
<path d="M698.706 582.017L698.344 581.504C699.498 576.311 702.679 571.565 704.204 566.391C704.633 566.815 704.595 566.672 704.752 567.336C705.73 571.458 700.644 578.354 698.706 582.017Z" fill="#9FE9C6"/>
<path d="M677.28 578.102C676.375 577.466 675.79 577.086 675.605 575.963C675.273 573.955 676.022 571.985 677.159 570.371C677.282 570.445 677.417 570.502 677.526 570.593C678.462 571.378 678.566 571.853 678.664 573.059C678.816 574.936 678.46 576.636 677.28 578.102Z" fill="black"/>
<path d="M813.398 595.77C833.932 599.999 880.307 579.741 899.533 570.898L899.829 570.988C929.815 598.353 947.648 636.547 949.375 677.105C950.047 696.048 947.09 714.944 940.661 732.775C926.655 772.09 879.058 838.288 850.752 868.748C816.555 905.548 773.131 930.961 722.105 932.778C679.876 934.281 610.459 918.735 579.342 889.454C570.815 881.417 564.652 871.197 561.523 859.904C572.749 863.53 583.504 865.986 595.396 864.738C632.871 860.804 670.694 831.236 705.094 816.904C721.881 809.91 739.422 805.191 756.88 800.229C767.913 797.092 779.265 794.328 789.616 789.284C793.387 787.446 796.611 785.161 799.195 781.808C803.084 776.669 804.677 770.152 803.597 763.799C800.58 745.263 778.657 737.262 765.501 727.403C756.302 720.509 753.551 715.398 751.877 703.956C757.811 702.024 763.776 699.859 769.108 696.567C791.673 682.636 799.221 651.761 805.422 627.743C808.182 617.111 810.841 606.453 813.398 595.77Z" fill="#8EECF5"/>
<path d="M266.405 640.705C266.167 639.572 265.924 638.427 265.796 637.275C265.005 630.123 269.618 621.963 274.08 616.65C292.493 594.719 345.653 578.992 373.98 576.698C401.442 573.333 453.668 589.925 480.936 597.737C512.221 606.7 543.791 615.802 574.171 627.541C585.56 631.942 596.425 637.19 607.281 642.763C587.068 648.463 567.271 655.015 549.768 667.014C531.596 679.471 516.897 693.154 512.78 715.611C508.519 715.465 504.401 715.005 500.185 714.384C477.497 710.59 454.732 704.391 432.524 698.394C398.601 689.233 365.241 678.587 331.863 667.651C319.457 663.681 307.149 659.411 294.95 654.844C287.834 652.22 280.463 649.759 273.732 646.25C270.829 644.737 268.642 643.136 266.405 640.705ZM323.507 592.513L323.395 593.737C326.178 596.285 335.996 597.826 340.077 599.1C351.714 602.732 363.09 607.47 373.406 614.036C375.748 615.527 379.696 617.711 380.237 620.536C377.646 621.61 372.824 622.435 370.902 624.313L371.078 625.157L372.116 625.396C375.173 624.676 380.888 624.088 382.733 621.323C382.844 619.791 382.686 618.933 381.694 617.715C374.566 608.955 336.873 593.329 324.254 592.548C324.005 592.532 323.756 592.525 323.507 592.513ZM392.875 619.164C393.273 619.6 393.57 620.156 394.068 620.472C394.311 620.626 422.531 624.336 426.777 625.288C448.002 630.045 468.566 636.834 489.163 643.744C499.196 647.11 509.657 650.131 519.318 654.412C522.27 655.72 533.152 661.954 535.49 662.17C532.865 656.503 521.184 652.717 515.585 650.655C505.353 646.886 494.947 643.511 484.619 640.005C459.559 631.499 434.279 623.438 407.946 619.962C403.323 619.351 397.505 618.335 392.875 619.164Z" fill="#CCDFE4"/>
<path d="M697.266 615.269C700.603 606.339 703.534 597.259 706.903 588.332C724.53 591.673 742.133 596.948 759.874 599.352C753.041 601.375 746.194 603.139 739.263 604.792C725.116 607.698 711.208 611.526 697.266 615.269Z" fill="#8EECF5"/>
<path d="M372.117 625.399L371.079 625.16L370.904 624.316C372.826 622.438 377.647 621.613 380.238 620.539C379.697 617.714 375.75 615.53 373.408 614.039C363.092 607.473 351.715 602.735 340.078 599.103C335.997 597.829 326.179 596.288 323.396 593.74L323.508 592.516C323.757 592.528 324.006 592.535 324.255 592.551C336.874 593.332 374.567 608.958 381.695 617.718C382.687 618.936 382.845 619.794 382.734 621.326C380.889 624.091 375.174 624.679 372.117 625.399Z" fill="black"/>
<path d="M696.315 617.807C717.234 610.907 739.23 607.217 760.507 601.585C761.564 601.464 762.785 601.264 763.828 601.529C766.296 602.158 767.476 604.615 768.686 606.607C745.89 611.687 723.272 617.535 700.871 624.139L693.02 626.162C693.934 623.338 695.196 620.559 696.315 617.807Z" fill="#8EECF5"/>
<path d="M692.285 628.681C717.891 621.215 742.903 614.919 768.788 608.574L769.82 608.684C776.522 616.038 780.217 628.641 782.096 638.19C772.753 640.081 763.296 643.338 754.161 646.096C733.295 652.477 712.533 659.192 691.882 666.238C689.268 666.966 686.419 668.373 683.711 668.512C681.495 668.626 680.884 667.599 679.434 666.204C682.51 653.404 687.65 640.979 692.285 628.681Z" fill="#8EECF5"/>
<path d="M535.492 662.174C533.154 661.958 522.272 655.724 519.32 654.416C509.659 650.135 499.198 647.114 489.165 643.748C468.568 636.838 448.004 630.049 426.779 625.292C422.533 624.34 394.313 620.63 394.07 620.476C393.572 620.16 393.275 619.604 392.877 619.168C397.507 618.339 403.325 619.355 407.948 619.966C434.281 623.442 459.561 631.503 484.621 640.009C494.949 643.515 505.355 646.89 515.587 650.659C521.186 652.721 532.867 656.507 535.492 662.174Z" fill="black"/>
<path d="M516.03 715.901C515.696 715.77 515.473 715.449 515.207 715.209C515.512 709.054 518.323 702.266 521.552 697.063C545.003 659.27 600.032 645.761 640.59 636.003C647.39 634.367 654.05 632.212 660.853 630.648L660.982 630.765C661.435 632.449 659.584 636.726 659.017 638.549C633.98 642.646 600.142 652.651 577.175 663.972C553.926 675.433 533.164 690.906 524.495 716.325L516.03 715.901Z" fill="#8EECF5"/>
<path d="M287.003 654.368C316.705 665.6 347.186 675.52 377.536 684.847C387.078 687.722 396.642 690.527 406.226 693.262C410.602 694.527 415.452 695.49 419.632 697.248L419.585 697.843C426.554 700.373 433.982 701.86 441.162 703.702C454.364 707.123 467.604 710.398 480.878 713.527C484.389 714.336 488.186 714.41 491.607 715.342C492.809 715.669 493.804 716.368 494.268 717.567C494.898 719.197 494.322 721.181 493.961 722.804L494.336 723.419L495.466 723.567L495.881 724.258C492.049 726.093 482.951 722.425 478.696 721.886C474.049 721.298 469.335 719.753 464.816 718.531C454.559 715.696 444.334 712.746 434.143 709.681C428.366 707.973 422.413 705.839 416.487 704.797L416.015 705.241C407.406 703.582 398.762 700.282 390.39 697.654C369.296 691.034 348.576 683.806 327.807 676.242C314.494 671.394 299.016 666.754 286.39 660.762C286.188 660.432 286.091 660.007 285.784 659.771C284.568 658.838 281.73 658.102 280.247 657.483C274.158 654.942 267.209 652.401 261.817 648.59C259.276 646.795 255.038 643.146 254.94 639.714C254.898 638.234 255.174 638.012 256.107 636.981C257.987 636.383 259.55 636.185 261.389 637.073C262.639 637.677 262.787 639.476 263.205 640.774C263.633 642.101 263.967 643.365 265.013 644.354C268.302 647.464 282.021 654.68 286.27 654.435C286.515 654.421 286.759 654.39 287.003 654.368Z" fill="#C8ECD0"/>
<path d="M181.885 659.518C181.967 659.426 182.04 659.324 182.132 659.24C184.72 656.875 189.382 655.437 192.627 654.077C209.106 647.172 234.421 638.28 252.054 639.073C253.556 655.098 254.182 671.125 257.871 686.859C250.776 685.263 243.571 681.844 236.701 679.361C218.449 672.762 200.331 665.539 181.885 659.518Z" fill="#FFCFD2"/>
<path d="M683.076 670.827C694.282 667.675 705.354 663.665 716.424 660.052C737.84 653.061 759.416 646.15 781.248 640.563C781.602 640.553 781.936 640.738 782.275 640.842C782.976 643.349 782.781 645.975 782.763 648.558C750.029 658.888 717.157 668.28 685.008 680.432C683.992 679.247 683.533 672.83 683.076 670.827Z" fill="#98F5E1"/>
<path d="M528.88 716.16C528.167 716.11 527.896 715.977 527.27 715.667C527.57 711.26 531.752 704.801 534.124 701.107C557.352 664.936 616.745 649.639 656.202 641.085C656.555 641.056 657.123 641.239 657.477 641.312C657.74 644.383 651.947 658.492 651.049 663.281C644.448 666.6 642.385 673.033 639.958 679.466C633.134 682.421 626.557 685.999 619.745 689.011C592.751 700.947 558.407 713.822 528.88 716.16Z" fill="#8EECF5"/>
<path d="M262.016 690.649C256.493 679.485 255.929 659.512 255.012 646.891C258.556 650.302 262.264 652.633 266.648 654.854C283.495 663.387 302.217 669.245 319.987 675.631C348.432 685.855 376.669 696.012 405.639 704.725C405.84 705.464 406.007 706.051 406.007 706.819C406.008 707.641 411.443 728.599 412.141 730.484C413.078 733.012 415.24 739.648 414.251 742.085C409.936 743.192 399.093 735.116 395.623 737.196C386.862 734.865 378.08 731.037 369.486 728.058C347.602 720.499 325.801 712.701 304.087 704.667C297.295 702.162 284.463 695.732 277.899 694.938C276.133 696.187 266.827 690.111 263.994 690.04C263.521 690.028 262.511 690.497 262.016 690.649Z" fill="#FBF8CC"/>
<path d="M684.167 682.745C715.913 670.647 748.579 661.094 781.003 651.043L781.735 650.949L782.387 651.507C783.075 659.399 778.072 670.679 773.503 676.994C770.001 681.836 765.052 686.443 759.821 689.349C742.964 698.714 721.155 705.13 702.952 712.21C688.332 718.058 673.648 723.744 658.902 729.267C647.623 733.436 636.171 737.163 624.886 741.34C605.589 748.482 586.193 756.292 566.441 762.069C553.293 765.914 540.546 768.031 527.054 770.128C525.644 760.622 524.866 750.892 524.421 741.296C524.14 737.53 524.057 733.891 524.225 730.117C563.688 729.427 603.147 712.318 638.081 695.336C636.895 703.351 637.197 712.342 642.101 719.179C644.416 722.407 647.811 724.618 651.78 725.117C657.384 725.822 663.421 723.421 667.698 719.902C674.83 714.034 680.633 703.62 682.663 694.674C683.539 690.813 683.771 686.684 684.167 682.745Z" fill="#8EECF5"/>
<path d="M534.925 848.744C528.195 852.947 522.435 858.571 515.456 862.453C479.789 882.294 438.864 890.246 399.96 901.254L339.958 918.173C282.181 934.474 225.684 946.953 170.061 915.629C135.573 896.208 106.032 865.528 95.4217 826.7C85.0222 788.644 88.8989 743.935 108.766 709.472C119.443 690.951 137.493 672.804 157.943 665.502C165.549 662.786 173.349 661.8 181.07 659.698L181.603 659.549L181.885 659.516C200.331 665.537 218.449 672.76 236.701 679.359C243.571 681.842 250.776 685.261 257.871 686.857C259.93 691.964 263.085 697.694 268.332 700.114C271.674 701.655 275.462 700.72 278.82 702.108C313.185 716.315 348.475 730.945 383.995 741.962C378.626 754.693 363.107 768.256 369.453 783.274C372.248 789.887 377.899 792.698 384.2 795.076C401.046 801.435 420.839 806.118 438.245 811.453C457.034 817.211 475.848 823.037 494.131 830.274C507.998 835.763 521.513 842.233 534.925 848.744Z" fill="#9FE9C6"/>
<path d="M670.146 714.943C667.29 717.809 664.673 719.989 660.891 721.625C657.328 723.166 653.273 723.741 649.611 722.189C645.658 720.515 642.971 716.869 641.473 712.958C637.641 702.952 640.983 688.415 645.438 679.019C649.231 671.021 655.257 667.395 663.27 664.605C666.246 664.389 668.903 664.246 671.737 665.312L671.616 665.659C668.828 666.007 665.619 666.241 662.994 667.268C656.237 669.911 650.144 677.637 647.173 684.044C643.33 692.331 640.818 704.953 644.283 713.691C645.443 716.615 647.378 719.26 650.367 720.48C654.992 722.367 660.037 720.35 664.282 718.398C666.172 717.135 668.164 716.054 670.146 714.943Z" fill="#98F5E1"/>
<path d="M654.378 719.359C652.712 719.107 651.263 718.774 649.87 717.773C646.998 715.709 645.442 712.38 644.878 708.966C643.303 699.439 646.987 687.113 652.547 679.35C657.537 672.385 663.87 668.072 672.399 666.644C672.635 666.565 672.87 666.468 673.116 666.432C674.576 666.216 676.473 666.957 677.623 667.844C680.16 669.803 681.323 673.333 681.765 676.386C683.194 686.249 677.584 701.883 671.641 709.703C667.097 715.681 661.634 718.275 654.378 719.359ZM668.626 671.036C662.499 673.129 657.758 678.843 654.996 684.564C652.182 690.395 649.902 699.991 652.22 706.234C652.929 708.143 654.374 710.177 656.239 711.104C657.28 711.621 658.555 711.827 659.698 711.939C665.096 711.044 668.081 708.838 671.224 704.309C676.145 697.219 678.439 686.436 676.586 677.97C676.069 675.609 674.932 673.055 672.768 671.791C671.662 671.145 669.879 671.147 668.626 671.036Z" fill="#98F5E1"/>
<path d="M659.697 711.938C658.554 711.826 657.279 711.62 656.238 711.103C654.373 710.176 652.928 708.142 652.219 706.233C649.901 699.99 652.181 690.394 654.995 684.563C657.757 678.842 662.498 673.128 668.625 671.035C669.878 671.146 671.661 671.144 672.767 671.79C674.931 673.054 676.068 675.608 676.585 677.969C678.438 686.435 676.144 697.218 671.223 704.308C668.08 708.837 665.095 711.043 659.697 711.938ZM668.636 672.973C661.783 676.43 657.31 682.889 654.999 690.086C653.519 694.694 652.167 701.48 654.431 705.955C655.223 707.521 656.335 709.02 658.091 709.527C658.658 709.691 659.048 709.748 659.659 709.868C664.407 708.822 667.189 706.384 669.855 702.344C673.885 696.235 676.162 686.253 674.604 679.024C674.181 677.059 673.263 674.602 671.352 673.647C670.5 673.221 669.563 673.11 668.636 672.973Z" fill="black"/>
<path d="M645.994 673.917C643.484 677.462 643.229 682.143 640.947 685.361C641.051 681.124 643 677.232 644.55 673.352L645.994 673.917Z" fill="#6FB1AB"/>
<path d="M659.661 709.868C659.05 709.748 658.66 709.691 658.093 709.527C656.337 709.02 655.225 707.521 654.433 705.955C652.169 701.48 653.521 694.694 655.001 690.086C657.312 682.889 661.785 676.43 668.638 672.973C669.565 673.11 670.502 673.221 671.354 673.647C673.265 674.602 674.183 677.059 674.606 679.024C676.164 686.253 673.887 696.235 669.857 702.344C667.191 706.384 664.409 708.822 659.661 709.868ZM665.804 680.934C662.083 685.419 658.598 691.527 659.152 697.613C659.286 699.091 659.743 700.684 661.06 701.533C662.381 702.385 663.59 702.169 665.033 701.938C668.532 698.179 671.798 691.344 671.678 686.097C671.644 684.582 671.253 683.007 670.026 682.005C668.72 680.939 667.409 680.9 665.804 680.934Z" fill="#98F5E1"/>
<path d="M665.031 701.937C663.588 702.168 662.379 702.384 661.058 701.532C659.741 700.683 659.284 699.09 659.15 697.612C658.596 691.526 662.081 685.418 665.802 680.933C667.407 680.899 668.718 680.938 670.024 682.004C671.251 683.006 671.642 684.581 671.676 686.096C671.796 691.343 668.53 698.178 665.031 701.937ZM666.723 682.776C663.356 686.271 661.04 690.961 661.072 695.918C661.081 697.343 661.307 698.264 661.971 699.512C662.761 700.086 663.14 700.238 664.116 700.288C666.692 696.694 670.793 690.473 669.649 685.89C669.376 684.796 668.969 683.919 667.955 683.346C667.533 683.107 667.186 682.977 666.723 682.776Z" fill="black"/>
<path d="M526.236 718.343C562.191 716.048 606.358 698.824 638.2 682.453L638.781 682.786C638.561 686.036 638.471 689.246 638.482 692.503C631.061 696.792 622.818 700.169 614.995 703.645C585.615 716.699 557.828 726.262 525.498 728.08L524.975 727.807C524.271 725.616 525.807 720.739 526.236 718.343Z" fill="#8EECF5"/>
<path d="M664.117 700.289C663.141 700.239 662.762 700.087 661.972 699.513C661.308 698.265 661.082 697.344 661.073 695.919C661.041 690.962 663.357 686.272 666.724 682.777C667.187 682.978 667.534 683.108 667.956 683.347C668.97 683.92 669.377 684.797 669.65 685.891C670.794 690.474 666.693 696.695 664.117 700.289Z" fill="#98F5E1"/>
<path d="M262.016 690.648C262.511 690.496 263.521 690.027 263.994 690.039C266.827 690.11 276.133 696.186 277.899 694.937C278.104 695.441 278.34 696.038 278.703 696.451C281.094 699.168 299.005 704.941 303.271 706.534C359.262 727.444 417.157 748.185 474.731 764.32C488.198 768.094 502.285 771.991 516.272 773.025C514.828 758.705 513.49 744.328 513.534 729.923L522.082 730.06C521.552 744.227 522.733 762.26 526.574 775.898C518.215 776.662 510.421 776.387 502.124 775.006C473.404 770.225 445.361 759.912 417.772 750.81C392.217 742.378 366.325 734.317 341.232 724.59L297.516 707.432C291.879 705.189 286.198 702.057 280.435 700.268C277.68 699.412 274.634 699.504 271.811 698.882C267.18 697.863 264.463 694.416 262.016 690.648Z" fill="#98F5E1"/>
<path d="M416.014 705.239L416.486 704.795C422.412 705.837 428.365 707.971 434.142 709.679C444.333 712.744 454.558 715.694 464.815 718.529C469.334 719.751 474.048 721.296 478.695 721.884C482.95 722.423 492.048 726.091 495.88 724.256L495.465 723.565L494.335 723.417L493.96 722.802C494.321 721.179 494.897 719.195 494.267 717.565C493.803 716.366 492.808 715.667 491.606 715.34C488.185 714.408 484.388 714.334 480.877 713.525C467.603 710.396 454.363 707.121 441.161 703.7C433.981 701.858 426.553 700.371 419.584 697.841L419.631 697.246C449.022 704.543 482.728 715.533 512.6 717.87C512.202 721.127 511.828 724.386 511.477 727.648C485.783 725.756 461.226 718.545 436.618 711.374C430.032 709.455 422.244 707.961 416.014 705.239Z" fill="#98F5E1"/>
<path d="M395.621 737.194C399.091 735.114 409.934 743.19 414.249 742.083C415.238 739.646 413.076 733.01 412.139 730.482C411.441 728.597 406.006 707.639 406.005 706.817C406.005 706.049 405.838 705.462 405.637 704.723C440.216 714.449 475.476 727.197 511.526 729.692C511.717 743.482 512.73 757.128 513.878 770.862C484.347 766.645 455.027 756.603 426.698 747.404C416.461 744.08 405.577 741.226 395.621 737.194Z" fill="#8EECF5"/>
<path d="M719.246 714.983C728.98 711.516 738.764 708.193 748.595 705.016L749.334 705.122C751.239 707.296 750.805 713.079 752.139 716.028C753.94 720.008 757.533 723.572 760.788 726.418C770.358 734.787 792.399 743.499 796.84 755.412C797.777 757.925 797.87 760.753 796.654 763.19C793.276 769.96 786.236 772.422 779.545 774.593C768.722 778.105 757.688 780.992 746.838 784.435C727.578 790.558 708.659 797.706 690.162 805.848C665.842 816.749 642.128 832.119 617.013 840.65C611.334 842.578 598.157 846.83 592.62 843.232C591.2 842.309 590.585 840.767 590.415 839.153C589.895 834.208 591.571 828.789 591.66 823.775C591.852 812.985 590.437 801.777 588.82 791.122C586.782 782.109 583.195 774.464 578.768 766.428C595.524 759.639 613.025 754.112 630.001 747.826C658.934 737.113 687.737 725.899 716.871 715.749C728.37 722.184 740.118 727.143 750.988 734.807C755.393 737.928 759.658 741.242 763.77 744.74C767.143 747.654 770.426 751.127 774.219 753.468L774.493 753.106C766.72 738.511 734.242 722.046 719.246 714.983ZM728.552 742.105C726.164 748.733 723.66 755.07 719.789 761.01C717.784 764.087 705.905 777.128 705.871 779.128C706.198 779.146 706.541 779.236 706.853 779.136C713.731 772.585 730.135 753.993 730.157 744.174C730.159 743.449 730.083 742.992 729.44 742.55C729.167 742.363 728.848 742.253 728.552 742.105ZM685.76 756.691C678.526 769.872 670.296 781.808 659.172 792.056C655.339 795.587 632.287 813.774 631.402 815.281L631.746 816.249L632.807 816.683C650.716 802.763 667.807 789.333 680.453 770.142C682.818 766.554 685.697 762.364 686.928 758.223C686.605 757.154 686.859 757.32 685.76 756.691ZM623.563 767.72C620.204 775.337 614.634 782.541 608.843 788.47C606.495 790.873 603.601 793.083 601.561 795.731C600.872 796.625 600.744 796.64 600.959 797.788L601.421 798.007C607.566 793.526 623.523 776.936 624.744 769.491C624.425 768.496 624.367 768.383 623.563 767.72Z" fill="#8EECF5"/>
<path d="M513.418 727.893C513.76 724.534 514.226 721.197 514.7 717.855L524.35 718.206C523.443 721.364 522.929 724.644 522.322 727.872C519.668 728.406 516.167 727.956 513.418 727.893Z" fill="#98F5E1"/>
<path d="M390.815 772.389C391.189 773.816 391.63 775.145 391.485 776.637C390.228 776.79 390.743 776.885 389.596 776.42C386.575 775.198 382.975 772.536 381.818 769.414C378.755 761.153 382.41 750.074 385.804 742.477C390.746 744.15 395.698 745.796 400.658 747.415C395.323 755.463 390.089 762.286 390.815 772.389Z" fill="#C8ECD0"/>
<path d="M706.853 779.136C706.541 779.236 706.198 779.146 705.871 779.128C705.905 777.128 717.784 764.087 719.789 761.01C723.66 755.07 726.164 748.733 728.552 742.105C728.848 742.253 729.167 742.363 729.44 742.55C730.083 742.992 730.159 743.449 730.157 744.174C730.135 753.993 713.731 772.585 706.853 779.136Z" fill="black"/>
<path d="M394.34 777.845C394.09 776.66 393.856 775.471 393.637 774.279C391.766 763.987 397.173 756.256 402.732 748.223C431.149 756.295 458.437 767.485 487.35 774.128C497.026 776.352 507.066 778.536 517.031 778.499C533.076 778.439 549.352 774.597 564.77 770.499C566.963 774.022 569.038 777.563 570.77 781.339C580.165 801.816 579.681 821.064 572.076 841.854C564.4 839.135 556.665 836.422 549.219 833.114C552.18 828.109 554.829 822.86 557.59 817.739C561.578 810.401 567.609 801.802 568.693 793.458L568.328 792.986C566.711 794.653 549.86 827.472 547.309 832.351C501.479 807.682 444.25 793.115 394.34 777.845Z" fill="#9FE9C6"/>
<path d="M547.768 835.161C545.25 839.08 540.61 843.869 539.057 848.126C519.743 839.733 501.489 830.177 481.512 823.178C461.496 816.382 441.344 809.994 421.068 804.016C409.879 800.638 386.312 795.29 377.403 789.418C373.762 787.036 371.255 783.268 370.464 778.989C368.753 769.836 374.744 761.205 379.665 754.09C379.08 759.109 378.113 765.169 379.863 770.015C381.342 774.112 384.21 776.158 388.054 777.798C394.614 780.596 401.677 782.378 408.51 784.402C419.04 787.488 429.552 790.633 440.047 793.836C471.272 803.5 502.181 813.568 532.007 827.066C537.379 829.497 542.483 832.543 547.768 835.161Z" fill="#9FE9C6"/>
<path d="M632.807 816.683L631.746 816.249L631.402 815.281C632.287 813.774 655.339 795.587 659.172 792.056C670.296 781.808 678.526 769.872 685.76 756.691C686.859 757.32 686.605 757.154 686.928 758.223C685.697 762.364 682.818 766.554 680.453 770.142C667.807 789.333 650.716 802.763 632.807 816.683Z" fill="black"/>
<path d="M555.033 838.188C587.157 849.964 602.166 850.729 633.898 836.012C649.444 828.801 664.468 820.471 679.887 812.986C693.262 806.576 706.923 800.782 720.829 795.624C732.827 791.121 744.976 787.033 757.255 783.367C767.023 780.521 777.966 778.296 787.228 774.154C791.501 772.244 796.924 768.736 798.722 764.218C799.211 762.99 799.475 761.581 799.77 760.293L800.308 760.428C802.241 765.629 802.225 771.09 799.965 776.208C796.323 784.454 788.427 788.136 780.445 791.005C771.916 794.071 763.033 796.301 754.308 798.736C737.906 803.313 721.618 807.906 705.846 814.397C671.07 828.711 627.675 862.345 589.489 862.974C579.31 863.141 569.03 860.546 559.587 856.897C559.149 850.821 556.579 844.156 555.033 838.188Z" fill="#8EECF5"/>
<path d="M566.715 769.973C569.693 769.099 572.686 768.339 575.7 767.602C576.403 767.663 576.254 767.535 576.775 768.034C587.041 777.859 589.758 810.988 589.519 824.964C589.44 829.567 587.977 834.174 588.241 838.756C588.436 842.134 589.797 843.27 592.227 845.439C588.322 845.039 584.488 844.511 580.624 843.817C578.417 843.323 576.215 842.812 574.016 842.282C575.713 838.054 577.225 833.636 578.275 829.203C583.203 808.402 577.693 787.848 566.715 769.973Z" fill="#9FE9C6"/>
<path d="M601.421 798.006L600.958 797.787C600.743 796.639 600.871 796.624 601.56 795.73C603.6 793.082 606.495 790.872 608.843 788.469C614.634 782.54 620.203 775.336 623.562 767.719C624.366 768.382 624.425 768.495 624.744 769.49C623.523 776.935 607.566 793.525 601.421 798.006Z" fill="black"/>
<path d="M539.059 848.125C540.612 843.868 545.252 839.079 547.77 835.16C550.158 836.143 552.732 837.033 555.034 838.188C556.58 844.156 559.15 850.821 559.588 856.897C552.505 854.517 545.795 851.325 539.059 848.125Z" fill="#E6DFD5"/>
<defs>
<linearGradient id="paint0_linear_2247_7513" x1="617.88" y1="224.415" x2="614.654" y2="209.415" gradientUnits="userSpaceOnUse">
<stop stop-color="#DDD99B"/>
<stop offset="1" stop-color="#E4CEA6"/>
</linearGradient>
<linearGradient id="paint1_linear_2247_7513" x1="506.952" y1="370.886" x2="552.887" y2="387.021" gradientUnits="userSpaceOnUse">
<stop stop-color="#EECBBB"/>
<stop offset="1" stop-color="#A9E6D5"/>
</linearGradient>
<linearGradient id="paint2_linear_2247_7513" x1="612.931" y1="337.977" x2="631.834" y2="440.157" gradientUnits="userSpaceOnUse">
<stop stop-color="#E0E1BF"/>
<stop offset="1" stop-color="#E1D9C9"/>
</linearGradient>
<linearGradient id="paint3_linear_2247_7513" x1="579.537" y1="464.865" x2="696.445" y2="535.958" gradientUnits="userSpaceOnUse">
<stop stop-color="#C6E5EC"/>
<stop offset="1" stop-color="#AFEEEA"/>
</linearGradient>
</defs>
</svg>
