<svg width="1024" height="1024" viewBox="0 0 1024 1024" fill="none" xmlns="http://www.w3.org/2000/svg">
<path d="M307.214 149.415C341.806 133.249 378.773 124.558 416.69 132.815C439.59 137.802 457.555 147.537 471.7 166.42L472.06 166.998C467.507 168.709 457.106 171.002 454.367 173.495L454.182 174.291C456.841 176.687 470.488 171.373 474.002 169.928L474.26 170.03C477.869 176.366 482.011 183.269 484.596 190.063C491.619 208.524 491.698 232.872 485.37 251.526C476.75 251.215 414.798 246.889 412.28 249.115C408.943 252.064 409.09 259.929 409.099 264.112C409.105 266.812 409.172 269.824 411.15 271.906C412.57 273.399 414.782 274.121 416.68 274.78C415.811 277.79 415.002 280.49 413.985 283.454C357.672 287.842 282.301 308.091 241.09 349.847C233.112 357.93 225.976 376.121 237.22 383.837C255.116 396.116 288.726 394.92 309.633 395.993C308.568 401.242 307.591 406.811 307.338 412.168C287.411 412.032 267.422 411.836 247.499 412.043C247.498 408.334 247.781 395.108 246.056 392.327L245.476 392.406C244.229 396.46 244.197 424.432 245.255 429.318C252.516 462.85 293.722 457.787 306.616 431.725C305.999 458.677 303.824 486.279 303.147 513.503C289.445 508.959 283.932 507.271 268.935 507.375C254.848 507.473 240.654 506.062 226.902 510.813C216.662 514.161 205.129 519.921 197.148 527.286C176.98 545.896 158.624 567.294 143.194 589.983C141.435 592.57 136.653 599.657 135.839 602.38L135.391 602.281C134.292 601.02 131.405 598.784 130.034 597.512C104.403 573.732 81.2254 542.895 70.8463 509.128C50.1726 441.871 75.035 369.528 112.555 313.124C115.953 308.016 121.595 300.671 124.223 294.786C134.447 241.555 130.121 174.046 180.438 139.286C187.385 134.487 195.046 130.364 202.977 127.43C239.444 116.3 283.895 114.802 307.214 149.415ZM242.265 125.71C160.989 129.783 141.792 186.959 135.116 256.604C134.111 267.09 131.919 277.608 131.262 288.242C139.631 277.312 151.494 264.144 161.152 254.086C204.637 210.166 247.827 177.655 303.456 150.821C288.093 131.902 266.56 123.697 242.265 125.71Z" fill="#FFCFD2"/>
<path d="M131.262 288.243C131.919 277.609 134.111 267.091 135.116 256.605C141.792 186.96 160.989 129.784 242.265 125.711C266.56 123.698 288.093 131.903 303.456 150.822C247.827 177.656 204.637 210.167 161.152 254.087C151.494 264.145 139.631 277.313 131.262 288.243Z" fill="#FDE4CF"/>
<path d="M756.979 183.048C754.891 183.403 753.214 183.756 751.072 183.774C752.966 179.833 756.808 175.848 759.824 172.526C790.734 138.619 848.031 117.387 891.951 136.34C912.71 145.298 927.307 167.797 938.253 186.59C958.091 220.65 963.935 251.914 951.28 290.197C950.549 288.594 950.017 286.802 949.465 285.116C952.154 268.119 955.69 250.087 952.055 233.001C946.849 208.526 934.022 185.332 919.192 165.4C906.109 147.815 889.877 137.292 867.957 134.805C836.031 131.044 802.477 143.268 777.372 162.739C773.299 165.898 757.469 179.089 756.979 183.048Z" fill="#FBF8CC"/>
<path d="M756.979 183.047C757.469 179.088 773.299 165.897 777.372 162.738C802.477 143.267 836.03 131.043 867.956 134.804C889.876 137.291 906.109 147.814 919.192 165.399C934.022 185.331 946.849 208.525 952.055 233C955.69 250.086 952.154 268.118 949.465 285.115C919.727 218.284 849.264 183.027 778.451 182.012C771.439 181.912 763.896 181.983 756.979 183.047Z" fill="#E2F6EA"/>
<path d="M471.699 166.419C478.6 164.027 486.149 162.252 493.248 160.429C538.35 148.846 590.487 126.199 636.219 147.382C659.865 158.335 676.875 182.625 677.431 208.887C676.549 210.545 675.859 212.205 674.424 213.384L673.647 213.202C673.186 210.948 672.948 208.251 672.697 205.937C667.526 158.237 620.082 137.097 576.665 144.656C546.732 149.868 518.734 159.364 489.194 166.314C484.814 167.342 478.355 168.481 474.259 170.029L474.001 169.927C473.3 168.226 473.341 168.334 472.059 166.997L471.699 166.419Z" fill="#FBF8CC"/>
<path d="M474.002 169.926C470.488 171.371 456.841 176.685 454.182 174.289L454.367 173.493C457.106 171 467.507 168.707 472.06 166.996C473.342 168.333 473.301 168.225 474.002 169.926Z" fill="#FDE4CF"/>
<path d="M751.073 183.774C753.215 183.756 754.892 183.403 756.98 183.048C763.897 181.984 771.44 181.913 778.452 182.013C849.265 183.028 919.728 218.285 949.466 285.116C950.018 286.802 950.55 288.594 951.281 290.197C953.933 298.626 956.656 307.729 957.811 316.482C964.141 364.444 945.999 410.798 924.011 452.415C918.979 461.939 913.604 471.159 907.735 480.169C906.352 482.294 903.357 487.409 901.987 489.131C900.348 469.382 896.307 446.82 887.859 428.27C887.211 426.848 886.264 426.257 884.871 425.938C880.066 428.006 872.944 455.637 869.761 461.957C865.936 462.98 858.595 480.092 860.781 484.013C846.874 514.041 830.044 538.899 842.647 572.955L843.71 575.745L843.341 576.852C842.583 577.863 842.693 577.733 841.813 578.577C840.164 577.291 841.519 573.553 839.964 570.53L839.288 570.562C834.453 553.167 824.66 538.428 813.732 524.198C809.752 519.483 793.618 495.161 787.992 509.712C785.642 515.789 786.729 529.744 785.125 537.207C778.383 568.558 765.137 603.587 790.494 630.793C796.115 636.823 803.034 637.95 810.999 636.471C811.53 640.849 812.074 645.061 812.74 649.42C805.813 654.779 791.719 687.785 786.846 696.512C765.669 691.667 748.669 691.993 727.072 692.032C732.685 676.141 742.709 651.607 743.158 634.644C743.629 616.863 728.318 610.928 712.483 611.559C712.314 556.229 713.125 498.747 709.122 443.702C725.479 439.749 735.178 432.343 737.899 414.978C741.331 424.136 744.745 431.733 754.008 436.531C765.91 442.697 789.079 440.88 794.295 426.664C799.711 411.9 793.154 389.905 787.342 376.065C802.172 353.915 775.295 333.669 758.463 323.727C738.301 311.818 716.219 304.33 693.87 297.688C683.129 294.496 672.493 291.259 661.566 288.721C661.487 284.418 661.162 280.155 660.982 275.846C660.22 257.633 666.539 239.914 677.021 225.099C694.682 200.138 721.851 188.863 751.073 183.774Z" fill="#80F0BE"/>
<path d="M416.679 274.779C414.781 274.12 412.569 273.398 411.149 271.905C409.171 269.823 409.104 266.811 409.098 264.111C409.089 259.928 408.942 252.063 412.279 249.114C414.797 246.888 476.749 251.214 485.369 251.525C497.678 252.576 510.438 253.043 522.807 253.729L576.757 256.778C587.945 257.352 599.104 257.953 610.301 258.184C611.74 258.214 612.989 258.582 613.762 259.839C616.437 264.193 615.587 271.689 615.48 276.605C629.879 280.189 647.569 284.428 661.565 288.719C672.492 291.257 683.128 294.495 693.869 297.687C716.218 304.329 738.3 311.817 758.462 323.726C775.294 333.668 802.171 353.913 787.341 376.063C793.153 389.903 799.71 411.898 794.294 426.662C789.078 440.878 765.909 442.695 754.007 436.529C744.744 431.731 741.33 424.134 737.898 414.976C735.177 432.341 725.478 439.747 709.121 443.7C713.124 498.745 712.313 556.227 712.482 611.557C728.317 610.926 743.628 616.861 743.157 634.642C742.708 651.605 732.684 676.139 727.071 692.03C724.606 698.341 722.7 704.51 719.999 710.715C718.49 714.18 716.119 716.533 714.995 719.077C719.128 735.004 724.292 751.623 728.125 767.325C730.753 776.458 733.253 785.404 736.52 794.344C737.438 796.853 740.73 804.434 740.487 806.265L739.784 807.008C736.934 805.92 735.907 801.424 734.967 798.656C731.684 788.99 728.561 779.288 725.756 769.476C721.812 754.111 717.223 737.504 712.573 722.331C701.378 738.068 679.627 738.589 662.185 737.875C666.037 752.302 670.3 768.756 672.63 783.476C673.817 789.449 685.462 845.95 684.656 849.169L683.889 850.182L683.118 850.124C681.426 847.804 679.285 833.391 678.386 829.352C678.328 824.246 672.489 797.461 671.202 791.237L670.663 787.617L669.297 779.992C666.136 765.547 663.045 751.572 659.181 737.275C655.948 736.719 652.688 736.236 649.444 735.736C647.982 749.476 648.961 763.688 647.569 777.964C647.229 781.906 646.793 785.179 646.194 789.096L645.289 793.752C644.929 793.841 643.698 793.957 643.283 794.005L642.667 793.351C642.384 790.783 644.353 780.877 644.626 776.422C645.961 764.892 645.421 747.824 646.057 735.388C643.753 734.789 641.319 734.013 639.024 733.328C631.115 731.155 625.335 731.521 617.116 731.928C611.156 756.905 604.951 782.044 598.549 806.93C598.11 808.64 597.24 810.362 596.134 811.737L595.302 811.99C593.881 810.715 593.527 806.681 593.59 805.054C593.898 797.087 589.487 764.582 591.489 758.426L592.405 757.896L592.12 757.607L591.511 758.422L592.385 757.796C594.022 761.616 593.474 770.679 593.94 775.318C594.921 785.069 595.48 795.137 596.422 804.885C599.206 796.229 601.301 784.775 603.643 775.765C607.409 761.276 611.208 746.434 614.194 731.773C604.351 731.776 594.063 731.565 584.297 731.671C584.174 734.008 584.384 735.921 583.082 737.747L582.166 738.181C580.302 736.377 581.146 734.233 581.499 731.815L517.531 731.941C516.118 752.734 514.103 777.99 522.799 797.255C536.709 797.586 551.392 799.857 561.917 809.869C568.031 815.684 568.554 826.484 561.681 831.843C544.559 845.194 518.134 845.653 497.284 844.879C483.092 844.233 462.91 840.727 452.497 830.348C446.531 824.401 447.081 815.369 453.958 810.169C467.534 799.903 485.291 800.139 500.825 796.094C504.043 783.161 502.289 747.056 501.673 732.067C489.332 732.42 467.198 732.086 456.275 733.504C454.399 736.25 458.07 734.823 455.107 736.715L454.022 736.476L453.653 735.697C453.161 734.677 453.015 734.502 452.26 733.611C449.084 732.598 407.611 734.174 402.019 734.548C402.107 743.216 402.956 750.764 404.339 759.297C406.603 771.909 408.57 778.658 412.066 790.982C413.655 795.607 417.796 806.171 417.59 810.583L416.974 810.814C413.936 807.306 411.119 796.771 409.611 791.942C406.252 778.863 403.799 773.781 401.594 759.132C400.83 753.972 400.16 748.687 399.454 743.509C394.152 746.724 383.655 757.377 376.98 754.088L377.388 754.487L376.699 755.708C376.833 756.102 376.862 756.715 376.911 757.16C377.451 763.019 380 784.783 378.553 788.867L377.98 789.26C375.537 787.292 374.005 758.824 374.056 754.161C369.204 756.706 355.074 768.946 350.816 767.398C350.611 767.323 350.422 767.214 350.225 767.122C352.973 763.088 370.357 752.413 375.031 749.48C366.162 750.791 358.518 751.708 349.559 752.575L349.575 767.002C346.738 791.46 343.839 817.473 341.535 841.987C341.331 844.455 341.54 849.718 339.06 850.635C337.191 848.525 338.42 843.91 338.804 841.245C341.624 819.803 345.315 788.641 346.613 767.263C341.453 764.506 325.63 755.917 322.121 752.452C315.352 751.425 310.104 750.819 303.61 748.512C301.311 755.036 299.89 762.005 297.917 768.655C292.521 786.839 287.891 805.172 283.356 823.586C282.984 825.757 283.08 828.166 280.944 829.01L280.132 828.491C279.262 822.366 295.428 768.409 297.713 758.536L298.579 755.463L300.602 747.337C292.367 742.284 290.691 732.266 287.565 723.734C282.806 710.746 279.516 697.087 274.883 684.085C271.98 674.006 268.363 663.156 266.34 652.937C260.524 623.554 293.176 604.402 309.554 635.369C309.566 632.247 309.55 629.092 309.44 625.973C308.769 606.961 309.562 587.562 307.912 568.612C302.936 562.301 303.397 554.173 303.071 546.499C302.605 535.54 302.932 524.473 303.146 513.502C303.823 486.278 305.998 458.677 306.615 431.725C293.721 457.787 252.515 462.849 245.254 429.317C244.196 424.431 244.228 396.46 245.475 392.406L246.055 392.326C247.78 395.107 247.497 408.333 247.498 412.042C267.421 411.835 287.41 412.031 307.337 412.167C307.59 406.81 308.567 401.242 309.632 395.993C288.725 394.92 255.115 396.116 237.219 383.837C225.975 376.121 233.111 357.929 241.089 349.846C282.3 308.09 357.671 287.842 413.984 283.454C415.001 280.49 415.81 277.789 416.679 274.779ZM479.536 253.71L437.528 251.46C431.2 251.149 419.334 250.3 413.308 250.802C412.074 255.524 409.998 265.969 413.03 270.162C414.548 272.262 463.148 272.609 468.445 272.662C492.451 274.034 516.76 274.39 540.788 275.51C560.403 276.425 580.056 277.678 599.669 278.679C599.466 271.259 599.5 267.019 603.355 260.515C591.067 259.198 575.983 258.942 563.368 258.273L479.536 253.71ZM413.772 286.404C365.205 287.89 279.742 312.904 244.844 349.378C239.538 354.923 233.389 363.714 234.021 371.693C234.363 376.014 235.956 379.163 239.204 382.016C242.561 384.963 245.59 385.945 249.64 387.439C285.911 349.931 336.443 321.824 384.796 303.144C389.818 301.204 405.793 295.132 410.642 294.355C417.918 291.809 429.077 288.1 436.411 286.346C429.262 286.4 420.791 285.818 413.772 286.404ZM662.28 291.523C648.609 287.211 629.582 282.118 615.639 279.18L613.694 291.511C625.947 293.939 651.452 301.835 663.648 305.838C692.74 314.925 722.09 325.96 749.584 339.317C759.616 344.19 786.447 360.536 786.633 372.584C783.115 370.747 774.272 356.708 766.682 352.213C735.717 333.875 700.212 319.636 665.83 309.403C649.857 303.814 635.171 300.163 619.261 295.218C637.427 307.145 656.445 320.669 673.767 333.819C688.788 345.075 703.963 357.268 718.519 369.15C725.397 374.764 734.953 382.534 741.134 388.566C754.809 387.731 777.801 384.555 786.633 372.584C804.084 345.54 740.786 315.812 721.263 309.389C701.439 302.866 682.404 297.063 662.28 291.523ZM404.151 298.998C384.016 305.081 365.508 313.38 346.68 322.571C310.924 340.026 280.47 360.073 252.112 388.08C272.576 392.554 293.379 393.016 314.274 393.506C331.891 373.071 358.405 355.581 377.642 336.358C381.748 332.255 387.877 328.177 391.65 323.973C406.71 309.618 416.519 301.686 433.031 289.821C423.464 292.84 413.552 295.576 404.151 298.998ZM381.442 336.661C360.824 354.122 336.21 374.959 316.873 393.696C330.665 394.081 344.468 394.531 358.264 394.597C369.859 394.857 381.286 394.599 392.76 394.857C411.801 365.442 429.282 334.966 448.464 305.635C452.461 299.523 456.893 293.756 460.568 287.444C453.845 287.001 447.09 286.966 440.352 286.855C433.358 292.83 424.249 299.053 416.84 304.959C404.172 315.056 393.001 325.346 381.442 336.661ZM675.669 338.966C669.758 332.923 656.784 324.26 649.737 319.194C637.686 310.53 625.389 302.372 613 294.217C606.692 296.527 602.306 296.554 595.594 296.441C614.49 321.892 630.99 348.484 649.574 374.144C653.645 379.765 657.633 385.539 661.578 391.252C668.221 390.949 675.106 390.546 681.734 390.396C684.735 390.448 687.737 390.286 690.735 390.161C706.333 389.51 721.934 389.072 737.544 388.864C720.337 373.785 694.219 351.512 675.669 338.966ZM685.504 392.969L662.624 393.641C663.677 397.946 664.2 400.76 664.806 405.153L686.129 404.04C702.059 403.429 719.569 401.452 735.242 401.476C734.899 397.32 734.523 395.449 733.451 391.463C718.308 391.436 700.93 392.521 685.504 392.969ZM766.09 403.449C761.472 403.48 741.925 403.268 738.742 404.327C738.175 406.01 738.787 408.075 739.25 409.83C740.928 417.605 743.525 424.348 749.545 430.084C759.412 439.488 779.638 440.332 789.186 430.083C795.243 423.58 793.928 411.883 793.313 403.459L766.09 403.449ZM731.123 404.394C716.11 403.861 700.591 406.417 686.045 406.493C680.045 406.442 671.551 407.316 665.187 407.58C665.938 416.971 669.857 426.63 676.946 433.066C690.509 445.38 716.47 444.456 728.712 430.627C735.179 423.321 736.148 413.511 735.618 404.2C734.552 404.17 732.276 404.34 731.123 404.394ZM394.036 629.186L392.732 628.605C392.035 626.467 393.118 622.82 394.185 620.868C398.544 612.897 409.602 608.92 417.888 606.728C456.174 596.599 577.623 591.744 610.907 611.268C616.387 614.482 620.711 618.617 622.282 624.991C623.941 631.715 624.402 640.242 620.57 646.264C614.143 656.366 600.439 660.106 589.625 663.276C588.271 677.669 587.269 692.148 586.144 706.566C588.687 706.498 591.141 706.152 593.387 707.159L593.604 707.859C591.386 709.406 588.641 709.238 585.93 709.368C585.423 715.23 584.524 723.578 584.423 729.293L614.503 729.496L616.531 724.361C609.531 719.94 600.883 714.905 598.606 706.283C596.402 697.942 605.741 692.483 612.288 690.012C636.305 680.943 663.283 681.181 687.54 689.178C686.698 678.963 684.797 664.92 685.344 654.947C686.094 641.26 686.788 629.661 686.557 615.876L683.455 440.443C672.349 434.515 668.385 429.036 664.281 417.002C662.395 426.516 658.66 438.098 649.665 442.774C625.434 455.371 601.112 445.519 593.412 420.469C587.617 445.134 571.589 452.857 546.239 448.666C533.335 446.533 526.893 435.681 522.939 424.072C521.487 431.445 517.551 439.848 510.873 443.424C488.908 455.183 463.455 450.971 455.249 425.993C447.676 449.307 431.962 457.884 407.639 450.851C393.715 446.825 387.346 436.795 382.397 423.842C381.579 427.217 380.869 430.417 379.542 433.635C371.664 452.741 351.729 456.165 333.748 450.713C333.935 485.469 335.097 522.165 330.753 556.762C329.225 568.924 321.715 571.856 310.445 569.691C311.852 592.894 311.28 615.763 311.95 638.96C312.083 643.595 315.666 649.788 316.251 654.515C318.062 667.348 318.691 680.708 319.453 693.64C319.536 697.752 319.609 701.219 320.021 705.298C319.835 707.918 319.653 710.412 319.357 713.028L318.675 713.246C307.301 716.994 286.466 731.797 307.866 738.491C330.357 745.526 365.185 745.481 387.355 736.842C403.141 730.689 403.249 713.016 385.325 710.419C365.654 707.04 346.273 707.159 326.735 710.895C326.164 711.004 325.383 710.195 324.917 709.833C329.923 707.669 334.679 707.424 339.397 705.936C339.437 705.039 339.47 705.179 339.395 704.455C338.594 696.747 338.659 688.757 338.557 680.982C338.445 674.431 337.096 644.524 337.937 640.286L338.501 639.754C338.753 640.038 339.004 640.322 339.256 640.607C340.392 653.785 340.453 671.499 341.276 684.228C341.493 691.58 341.352 698.706 341.231 706.062C354.767 704.962 367.262 705.579 380.784 706.962C384.821 707.375 389.034 709.52 392.846 709.57C410.817 709.805 428.953 708.919 446.934 708.902L445.65 704.068C441.815 691.473 438.45 678.848 434.653 666.361C422.597 663.825 392.682 656.924 392.071 641.215C391.928 637.528 391.582 632.318 394.114 629.4C395.93 630.358 397.379 632.203 398.95 633.541C401.837 635.997 405.005 638.149 408.414 639.809C416.46 643.726 426.703 645.497 435.449 647.202C480.957 656.073 551.177 658.093 595.296 643.086C602.074 640.78 616.245 635.733 619.377 628.664C620.195 626.819 620.116 624.889 619.27 623.07C615.926 615.882 606.626 611.554 599.537 609.15C563.85 597.051 440.08 596.86 406.617 613.551C398.276 617.711 396.908 620.533 394.036 629.186ZM286.685 686.684C281.843 667.801 277.996 649.266 273.279 630.723C267.264 640.35 267.684 647.897 270.509 658.428C273.12 668.16 276.494 677.799 279.034 687.518C284.777 704.133 288.942 722.923 296.138 739.189C296.672 740.396 298.811 742.901 300.041 743.543C319.481 753.696 345.975 749.977 367.176 747.978C376.8 746.853 394.083 742.555 398.806 734.155C399.672 732.614 399.812 732.744 399.453 731.293C398.66 731.576 395.537 734.854 393.846 735.853C372.368 748.532 341.093 746.6 317.069 743.333C311.358 742.556 299.812 739.012 296.376 733.895C295.222 731.79 296.185 729.06 296.847 726.901L297.061 726.216C293.519 713.404 289.64 699.578 286.685 686.684ZM293.954 688.658C292.262 680.432 280.607 635.797 281.569 632.051C284.347 635.942 295.271 683.965 296.683 691.512C298.778 700.147 300.686 710.83 302.228 719.659C303.522 718.535 305.156 717.382 306.556 716.343C305.204 707.607 303.541 698.375 301.707 689.738C299.308 671.594 292.847 651.339 289.563 633.211C288.99 630.048 288.074 625.979 286.935 622.994L285.643 622.458C281.22 622.813 277.635 625.653 274.536 628.625C279.9 648.021 284.379 668.957 289.512 688.767C290.777 694.104 296.935 718.904 298.742 722.531C299.951 722.189 299.907 721.8 300.884 720.601C301.016 719.445 294.689 691.918 293.954 688.658ZM308.675 690.202C305.101 669.593 302.032 648.084 297.129 627.706C296.205 623.866 292.05 623.11 288.59 622.297C293.562 642.56 300.6 669.776 303.69 690.301C305.204 698.208 307.187 707.511 307.875 715.38L313.484 712.09C314.42 711.843 316.591 711.007 317.594 710.65C317.48 704.338 317.079 697.937 316.654 691.639C315.678 671.627 315.65 640.26 298.771 626.528C303.838 645.112 307.8 672.323 310.443 691.302C311.46 698.055 312.392 704.453 312.787 711.298C311.559 710.317 309.131 693.003 308.675 690.202ZM695.099 692.349C698.57 693.861 702.906 696.276 705.88 698.614C709.752 702.669 711.204 704.361 711.686 710.145C690.311 740.915 631.253 725.764 603.473 711.858C623.789 731.836 681.399 745.591 706.694 725.728C709.177 723.778 711.333 718.05 712.315 717.197L713.859 716.361C714.926 714.486 713.47 709.826 713.587 707.426C713.667 705.795 713.909 704.465 714.185 702.871C715.336 696.867 729.277 643.567 730.568 642.116C731.333 645.116 727.328 660.158 726.296 664.26C721.937 681.589 716.898 697.404 714.616 715.245C717.053 711.214 718.836 706.472 720.368 702.007C726.732 682.889 734.447 663.395 739.755 644.021C744.268 627.548 734.537 613.999 717.23 614.044C703.391 614.08 692.024 625.915 689.301 638.781C685.994 654.416 689.46 670.993 689.943 686.754C689.998 688.302 689.632 688.3 688.617 689.245C689.492 690.14 691.581 690.807 692.875 691.335C694.539 677.931 696.172 664.59 698.523 651.288C699.941 643.27 700.672 634.906 703.704 627.366C703.458 631.025 702.985 634.388 702.445 638.017C699.749 656.125 697.009 674.133 695.099 692.349ZM607.754 259.493C599.638 263.911 600.847 288.834 608.299 293.262C609.519 292.722 610.668 292.509 611.006 290.982C612.943 282.223 614.586 270.961 612.198 262.243C611.694 260.406 609.337 259.817 607.754 259.493ZM419.351 273.875C418.478 277.316 417.684 279.978 416.566 283.349C457.846 284.001 501.324 287.252 542.51 290.208L579.211 292.857C586.754 293.405 595.677 294.318 603.125 294.129L604.174 293.671C602.318 288.994 601.206 286.431 600.298 281.489C566.65 279.02 531.909 278.004 498.16 276.597C472.445 275.525 445.028 273.88 419.351 273.875ZM463.102 287.486C457.615 296.986 450.679 306.076 444.89 315.507C428.7 341.886 411.558 368.271 395.759 394.868C405.42 394.831 415.022 394.799 424.686 394.924C436.071 394.873 447.865 394.972 459.213 394.566C465.8 369.88 472.53 345.105 480.412 320.802C483.522 311.214 487.201 298.039 491.352 289.03C482.58 288.205 471.884 287.548 463.102 287.486ZM493.82 289.194C489.567 298.531 485.775 311.998 482.475 321.969C474.539 345.947 468.288 370.152 461.733 394.506L490.359 394.484L522.278 393.881C522.461 359.144 520.696 325.365 520.486 291.084C511.592 290.284 502.718 289.845 493.82 289.194ZM522.797 291.211C522.555 294.62 522.755 298.222 522.905 301.645C524.248 332.419 524.691 363.062 524.604 393.864C544.451 393.586 567.262 393.81 586.876 392.695L587.741 392.101C585.563 381.563 582.071 371.176 578.908 360.903C573.354 342.863 567.42 324.997 560.672 307.368C559.002 303.003 557.207 298.049 556.019 293.553L522.797 291.211ZM558.551 293.928C570.435 326.522 581.671 359.148 590.86 392.631L657.716 391.296C657.866 388.803 613.098 326.905 607.971 317.846C606.336 314.956 595.131 299.657 592.423 296.28C581.209 295.303 569.795 294.369 558.551 293.928ZM784.369 378.92C767.75 388.878 755.156 390.237 736.029 391.519C736.724 394.753 737.473 397.898 737.824 401.189L743.875 401.024C760.618 400.434 776.145 400.521 792.898 400.653C791.42 395.81 787.904 383.213 785.431 379.309L784.369 378.92ZM651.78 393.719C631.712 394.487 611.479 394.611 591.344 395.256L593.663 408.184L602.583 407.894C621.205 407.04 643.99 405.57 662.272 405.492C661.631 400.427 661.558 398.023 659.019 393.51L651.78 393.719ZM559.933 395.769L524.526 396.437L524.517 410.465C533.633 410.163 543.839 409.559 552.875 409.51C565.443 409.253 578.23 408.46 590.727 408.439C590.255 404.208 589.599 399.505 588.489 395.387C579.154 395.484 569.218 395.416 559.933 395.769ZM312.224 396.09C311.248 400.147 309.152 407.805 310.579 411.636C315.23 412.74 332.539 412.453 338.149 412.39C352.655 412.228 367.124 411.903 381.67 411.936L383.736 408.262C385.994 405.026 389.191 400.712 391.062 397.359C367.856 397.395 344.739 397.138 321.545 396.441C318.422 396.347 315.347 396.306 312.224 396.09ZM506.06 396.749C491.127 397.235 475.827 397.16 460.855 397.23C459.812 401.863 458.63 406.73 457.771 411.38L472.914 411.107C489.154 410.966 505.575 410.527 521.759 410.497C521.933 405.767 522.061 401.233 522.086 396.49C516.814 396.553 511.31 396.535 506.06 396.749ZM393.607 397.372C390.565 402.924 387.812 406.854 384.133 412.002C405.983 412.055 427.778 411.827 449.625 411.472L455.077 411.432C455.96 406.438 456.989 402.165 458.372 397.288L393.607 397.372ZM653.679 408.285C634.105 409.11 613.271 410.248 593.783 410.635C595.826 422.626 598.962 431.946 608.964 439.626C612.507 441.854 616.025 443.773 620.192 444.477C647.815 449.145 661.962 434.283 662.611 407.855C659.701 407.992 656.563 408.078 653.679 408.285ZM587.92 410.713C566.853 411.94 545.395 411.768 524.453 412.817C525.245 424.087 526.793 432.361 535.233 440.536C548.374 450.947 573.599 449.555 584.194 436.239C587.572 431.994 593.454 415.564 590.286 410.864C589.088 410.61 589.127 410.582 587.92 410.713ZM510.51 413.249C492.781 413.636 475.116 413.528 457.389 413.995C456.108 426.5 460.351 437.418 471.784 443.609C481.12 447.346 488.93 447.815 498.9 445.696C515.043 442.264 521.444 428.402 521.627 413.003L510.51 413.249ZM437.09 414.264L383.269 414.538C385.804 428.285 390.959 441.22 404.654 447.236C423.148 454.422 443.051 451.264 450.789 430.868C452.955 425.159 453.715 419.913 454.754 413.95L437.09 414.264ZM247.441 414.524C247.362 433.182 249.017 449.527 274.094 450.204C282.359 450.427 291.362 445.946 297.547 440.489C303.405 434.138 303.014 431.111 306.815 426.049C306.881 422.24 306.986 418.368 306.978 414.564L247.441 414.524ZM312.526 414.704C316.88 438.187 331.057 455.007 356.924 450.059C363.093 448.879 368.696 445.267 372.75 440.538C380.337 429.777 378.808 426.384 381.784 414.488C358.718 414.493 335.546 415.008 312.526 414.704ZM309.479 414.807C307.991 462.446 304.64 510.538 306.806 558.143C307.298 568.958 318.241 570.541 324.842 564.76C327.394 560.526 328.493 555.813 328.921 550.922C331.841 517.589 331.582 483.108 331.077 449.697C320.86 443.061 314.552 433.273 311.677 421.645C311.239 419.874 310.474 415.997 309.479 414.807ZM686.303 441.561L688.672 573.674C688.917 592.34 689.529 611.341 689.557 629.975C692.734 624.538 694.453 621.95 699.287 617.829C703.066 614.955 705.14 613.716 709.665 612.007C709.908 554.967 709.74 501.066 706.725 444.028C698.688 444.086 694.092 443.81 686.303 441.561ZM620.399 631.986C587.174 664.737 426.851 664.009 394.961 633.872C394.991 638.509 394.918 644.586 397.373 648.668C427.076 670.962 509.229 675.68 546.516 669.318C566.892 665.842 603.872 661.935 618.178 645.294C620.867 641.842 621.296 636.905 620.886 632.743L620.399 631.986ZM584.825 664.573C568.949 668.49 538.967 673.982 522.554 674.617C522.216 678.717 519.563 705.159 520.284 707.338L522.183 707.838C542.251 707.893 563.311 707.205 583.452 706.798C583.879 700.71 586.969 668.277 586.273 664.854C585.431 664.328 585.906 664.453 584.825 664.573ZM437.324 666.736C441.859 680.249 445.489 695.037 449.806 708.893L501.119 708.512L500.537 674.849C479.719 673.739 457.621 671.642 437.324 666.736ZM503.249 674.943C503.436 693.966 503.88 712.91 504.437 731.98C505.005 753.48 507.357 775.982 503.493 797.278C501.96 805.73 493.238 817.279 484.067 817.268C480.297 817.263 475.842 815.429 476.676 810.911L477.501 810.685C478.691 811.517 479.24 811.948 480.273 812.982C484.629 817.34 490.666 812.811 493.773 809.456C497.168 805.791 498.631 803.042 500.309 798.624C485.593 801.532 427.868 809.664 460.86 833.398C468.582 838.953 489.543 841.919 499.375 842.474C512.272 842.607 563.17 842.827 564.024 820.984C564.622 805.657 537.013 800.079 524.047 799.728C527.109 803.882 529.065 806.556 533.142 809.786C535.786 811.88 538.835 812.302 540.135 814.002L539.719 814.851C538.455 815.268 537.396 815 536.222 814.424C516.925 804.959 513.456 779.489 513.71 760.331C514.034 735.974 516.457 711.404 518.716 687.148C519.095 683.16 519.506 678.846 520.107 674.895C514.462 674.966 508.896 675.05 503.249 674.943ZM642.256 686.198C631.735 687.019 601.186 691.697 600.929 704.445C600.767 712.506 643.139 722.966 650.677 724.228C656.821 725.256 663.028 725.614 668.693 725.551C681.699 725.318 696.671 722.537 706.386 713.166C711.498 708.235 707.971 703.27 703.184 700.074C686.808 689.145 661.598 683.939 642.256 686.198ZM563.118 709.72C548.297 710.269 533.97 710.537 519.115 710.559C518.699 716.739 518.157 723.239 517.867 729.4L538.956 729.267L581.788 729.473C582.294 722.773 582.817 716.079 583.221 709.372C576.589 709.436 569.721 709.414 563.118 709.72ZM499.49 711.228C483.138 711.781 466.433 711.092 450.315 711.634L454.896 729.797C455.155 729.992 455.413 730.186 455.671 730.38C470.978 730.034 486.224 729.478 501.549 729.359C501.557 725.499 501.806 714.825 501.102 711.757C500.144 711.054 500.681 711.231 499.49 711.228ZM430.233 711.723C419.851 712.006 407.993 712.051 397.737 712.762C403.418 719.328 402.929 722.834 403.012 731.447L420.219 730.914C429.935 730.361 442.637 730.211 452.426 730.436C450.751 723.856 449.209 718.066 447.17 711.598C441.592 711.605 435.79 711.529 430.233 711.723ZM618.518 725.103C617.936 727.325 617.566 727.217 618.195 728.976C620.299 730.2 624.254 729.581 627.018 729.489C626.358 728.301 620.27 725.898 618.518 725.103ZM391.251 744.094C388.973 745.168 375.613 749.656 375.404 749.84L375.611 750.66C376.516 750.701 376.205 750.833 376.622 750.604C380.86 751.93 388.876 747.377 391.759 744.2L391.251 744.094ZM326.132 752.549C329.316 754.716 343.829 763.056 347.09 762.651C347.876 759.954 346.736 756.285 347.018 752.469C341.284 752.472 331.536 752.16 326.132 752.549Z" fill="black"/>
<path d="M479.535 253.712C479.081 253.935 478.627 254.158 478.172 254.381C475.758 259.172 469.689 267.78 468.444 272.664C463.147 272.611 414.547 272.264 413.029 270.164C409.997 265.971 412.073 255.526 413.307 250.804C419.333 250.302 431.199 251.151 437.527 251.462L479.535 253.712Z" fill="#FFCFD2"/>
<path d="M468.445 272.663C469.69 267.779 475.759 259.171 478.173 254.38C478.628 254.157 479.082 253.934 479.536 253.711L563.368 258.273C575.983 258.942 591.067 259.199 603.355 260.516C599.5 267.02 599.466 271.26 599.669 278.68C580.056 277.679 560.403 276.425 540.788 275.51C516.76 274.39 492.451 274.035 468.445 272.663Z" fill="#E6DFD5"/>
<path d="M608.299 293.261C600.847 288.833 599.638 263.91 607.754 259.492C609.337 259.816 611.694 260.404 612.198 262.241C614.586 270.959 612.943 282.222 611.006 290.981C610.668 292.508 609.519 292.721 608.299 293.261Z" fill="#FDE4CF"/>
<path d="M416.566 283.349C417.684 279.978 418.478 277.316 419.351 273.875C445.028 273.88 472.445 275.525 498.16 276.597C531.909 278.004 566.65 279.019 600.298 281.488C601.206 286.43 602.318 288.994 604.174 293.671L603.125 294.129C595.677 294.318 586.754 293.405 579.211 292.857L542.51 290.207C501.324 287.251 457.846 284.001 416.566 283.349Z" fill="#FDE4CF"/>
<path d="M615.638 279.18C629.581 282.118 648.608 287.211 662.279 291.523C662.859 294.318 664.736 302.896 664.198 305.41L663.647 305.838C651.451 301.835 625.946 293.939 613.693 291.511L615.638 279.18Z" fill="#FDE4CF"/>
<path d="M413.773 286.404C420.792 285.818 429.263 286.4 436.412 286.346C429.078 288.1 417.919 291.808 410.643 294.354C411.158 291.6 412.252 288.759 413.773 286.404Z" fill="#FDE4CF"/>
<path d="M249.641 387.441C245.591 385.947 242.562 384.965 239.205 382.018C235.957 379.165 234.364 376.016 234.022 371.695C233.39 363.716 239.539 354.925 244.845 349.38C279.743 312.906 365.206 287.892 413.773 286.406C412.252 288.761 411.158 291.602 410.643 294.356C405.794 295.133 389.819 301.205 384.797 303.145C336.444 321.825 285.912 349.933 249.641 387.441Z" fill="#FFCFD2"/>
<path d="M381.442 336.661C393.001 325.346 404.172 315.055 416.84 304.958C424.249 299.052 433.358 292.83 440.352 286.855C447.09 286.966 453.845 287.001 460.568 287.444C456.893 293.756 452.461 299.522 448.464 305.634C429.282 334.965 411.801 365.442 392.76 394.857C381.286 394.599 369.859 394.857 358.264 394.597C361.251 381.96 364.628 372.795 369.958 360.963C371.942 356.559 380.457 340.437 381.442 336.661Z" fill="#E6DFD5"/>
<path d="M395.76 394.87C411.559 368.273 428.701 341.888 444.891 315.509C450.68 306.078 457.616 296.988 463.103 287.488C471.885 287.55 482.581 288.207 491.353 289.032C487.202 298.041 483.523 311.216 480.413 320.804C472.531 345.107 465.801 369.881 459.214 394.567C447.866 394.973 436.072 394.874 424.687 394.925C415.023 394.8 405.421 394.833 395.76 394.87Z" fill="#E6DFD5"/>
<path d="M461.732 394.506C468.287 370.152 474.538 345.948 482.474 321.97C485.774 311.999 489.566 298.531 493.819 289.195C502.717 289.846 511.591 290.284 520.485 291.084C520.695 325.365 522.46 359.144 522.277 393.881L490.358 394.484L461.732 394.506Z" fill="#E6DFD5"/>
<path d="M404.151 298.997C413.552 295.575 423.464 292.839 433.031 289.82C416.519 301.685 406.71 309.617 391.65 323.972C389.049 319.103 400.87 303.572 404.151 298.997Z" fill="#E6DFD5"/>
<path d="M524.603 393.863C524.69 363.061 524.248 332.419 522.905 301.645C522.755 298.222 522.554 294.62 522.796 291.211L556.018 293.553C557.206 298.049 559.001 303.002 560.671 307.367C567.419 324.996 573.354 342.862 578.908 360.902C582.071 371.175 585.563 381.562 587.741 392.1L586.875 392.694C567.261 393.809 544.45 393.585 524.603 393.863Z" fill="#E6DFD5"/>
<path d="M662.279 291.523C682.403 297.063 701.438 302.865 721.262 309.388C740.785 315.811 804.083 345.54 786.632 372.584C786.446 360.536 759.615 344.19 749.583 339.317C722.089 325.96 692.739 314.925 663.647 305.838L664.198 305.41C664.736 302.896 662.859 294.318 662.279 291.523Z" fill="#80F0BE"/>
<path d="M590.86 392.633C581.671 359.15 570.435 326.524 558.551 293.93C569.795 294.371 581.209 295.305 592.423 296.282C595.131 299.659 606.336 314.958 607.971 317.848C613.098 326.907 657.866 388.805 657.716 391.298L590.86 392.633Z" fill="#E6DFD5"/>
<path d="M613 294.219C625.389 302.374 637.686 310.532 649.737 319.196C656.784 324.262 669.758 332.925 675.669 338.968C677.306 344.69 686.16 386.121 685.406 389.702C684.024 390.019 683.165 390.194 681.734 390.398C675.106 390.548 668.221 390.95 661.578 391.253C657.633 385.54 653.645 379.766 649.574 374.145C630.99 348.485 614.49 321.894 595.594 296.443C602.306 296.556 606.692 296.529 613 294.219Z" fill="#E6DFD5"/>
<path d="M619.262 295.219C635.172 300.164 649.858 303.815 665.831 309.404C669.434 315.997 673.179 326.317 673.768 333.82C656.446 320.67 637.428 307.146 619.262 295.219Z" fill="#E6DFD5"/>
<path d="M252.111 388.082C280.469 360.075 310.923 340.028 346.679 322.573C365.507 313.382 384.015 305.083 404.15 299C400.869 303.575 389.048 319.106 391.649 323.975C387.876 328.179 381.747 332.257 377.641 336.36C358.404 355.583 331.89 373.073 314.273 393.508C293.378 393.018 272.575 392.556 252.111 388.082Z" fill="#FFCFD2"/>
<path d="M665.83 309.402C700.212 319.635 735.717 333.873 766.682 352.211C774.272 356.706 783.115 370.746 786.633 372.583C777.801 384.554 754.809 387.73 741.134 388.565C734.953 382.533 725.397 374.763 718.519 369.149C703.963 357.267 688.788 345.074 673.767 333.818C673.178 326.315 669.433 315.995 665.83 309.402Z" fill="#80F0BE"/>
<path d="M316.873 393.695C336.21 374.958 360.824 354.121 381.442 336.66C380.457 340.436 371.942 356.558 369.958 360.962C364.628 372.794 361.251 381.959 358.264 394.596C344.468 394.53 330.665 394.08 316.873 393.695Z" fill="#FFCFD2"/>
<path d="M675.67 338.969C694.22 351.515 720.338 373.787 737.545 388.866C721.935 389.074 706.334 389.512 690.736 390.163C687.738 390.288 684.736 390.451 681.735 390.399C683.166 390.195 684.025 390.02 685.407 389.703C686.161 386.122 677.307 344.691 675.67 338.969Z" fill="#80F0BE"/>
<path d="M736.029 391.522C755.156 390.24 767.75 388.88 784.369 378.922L785.431 379.312C787.904 383.216 791.42 395.812 792.898 400.655C776.145 400.523 760.618 400.437 743.875 401.027L737.824 401.192C737.473 397.901 736.724 394.756 736.029 391.522Z" fill="#80F0BE"/>
<path d="M685.504 392.968C700.93 392.52 718.308 391.434 733.451 391.461C734.523 395.447 734.899 397.318 735.242 401.474C719.569 401.45 702.059 403.428 686.129 404.039C686.039 400.402 685.74 396.612 685.504 392.968Z" fill="#80F0BE"/>
<path d="M662.625 393.641L685.505 392.969C685.741 396.613 686.04 400.403 686.13 404.04L664.807 405.153C664.201 400.76 663.678 397.946 662.625 393.641Z" fill="#F1C0E8"/>
<path d="M591.344 395.258C611.479 394.613 631.712 394.489 651.78 393.721L659.019 393.512C661.558 398.025 661.631 400.428 662.272 405.493C643.99 405.571 621.205 407.041 602.583 407.895L593.663 408.186L591.344 395.258Z" fill="#F1C0E8"/>
<path d="M524.527 396.437L559.934 395.769C569.219 395.416 579.155 395.484 588.49 395.387C589.6 399.505 590.256 404.208 590.728 408.439C578.231 408.46 565.444 409.253 552.876 409.51C543.84 409.559 533.634 410.163 524.518 410.465L524.527 396.437Z" fill="#F1C0E8"/>
<path d="M381.67 411.935C367.124 411.902 352.655 412.228 338.149 412.39C332.539 412.453 315.23 412.74 310.579 411.636C309.152 407.805 311.248 400.146 312.224 396.09C315.347 396.306 318.422 396.346 321.545 396.44C344.739 397.137 367.856 397.394 391.062 397.358C389.191 400.711 385.994 405.026 383.736 408.262L381.67 411.935Z" fill="#F1C0E8"/>
<path d="M460.855 397.232C475.827 397.162 491.127 397.237 506.06 396.751C511.31 396.537 516.814 396.555 522.086 396.492C522.061 401.235 521.933 405.768 521.759 410.498C505.575 410.528 489.154 410.968 472.914 411.109L457.771 411.381C458.63 406.731 459.812 401.865 460.855 397.232Z" fill="#F1C0E8"/>
<path d="M384.133 412.003C387.812 406.855 390.565 402.925 393.607 397.373L458.372 397.289C456.989 402.166 455.96 406.438 455.077 411.432L449.625 411.473C427.778 411.828 405.983 412.056 384.133 412.003Z" fill="#F1C0E8"/>
<path d="M739.25 409.831C738.787 408.076 738.175 406.011 738.742 404.328C741.925 403.269 761.472 403.48 766.09 403.449C758.832 409.011 747.671 406.578 739.914 409.581L739.25 409.831Z" fill="#98F5E1"/>
<path d="M766.09 403.449L793.313 403.46C793.928 411.884 795.243 423.58 789.186 430.083C779.638 440.332 759.412 439.489 749.545 430.085C743.525 424.349 740.928 417.606 739.25 409.831L739.914 409.581C747.671 406.578 758.832 409.011 766.09 403.449Z" fill="#BEEDF7"/>
<path d="M731.123 404.396C732.276 404.342 734.552 404.173 735.618 404.203C736.148 413.514 735.179 423.323 728.712 430.629C716.47 444.458 690.509 445.383 676.946 433.069C669.857 426.633 665.938 416.974 665.188 407.583C671.551 407.319 680.045 406.444 686.045 406.495C686.304 410.4 687.8 424.24 688.966 426.305C695.196 437.328 716.448 410.761 721.971 407.47C724.617 405.893 728.3 405.766 731.123 404.396Z" fill="#E2F6EA"/>
<path d="M686.045 406.492C700.591 406.416 716.11 403.86 731.123 404.393C728.3 405.763 724.617 405.89 721.971 407.467C716.448 410.758 695.195 437.325 688.965 426.302C687.799 424.237 686.304 410.397 686.045 406.492Z" fill="#80F0BE"/>
<path d="M593.783 410.636C613.271 410.249 634.105 409.11 653.679 408.285C656.563 408.078 659.701 407.992 662.611 407.855C661.962 434.283 647.815 449.146 620.192 444.478C616.025 443.774 612.507 441.854 608.964 439.626C598.962 431.946 595.826 422.627 593.783 410.636Z" fill="#FFCFD2"/>
<path d="M524.453 412.818C545.395 411.769 566.853 411.941 587.92 410.714C589.127 410.583 589.088 410.61 590.286 410.864C593.454 415.564 587.572 431.994 584.194 436.239C573.599 449.555 548.374 450.948 535.233 440.537C526.793 432.362 525.245 424.088 524.453 412.818Z" fill="#FFCFD2"/>
<path d="M457.388 413.996C475.115 413.529 492.78 413.637 510.509 413.25L521.626 413.004C521.443 428.403 515.042 442.264 498.899 445.696C488.929 447.815 481.119 447.347 471.783 443.61C460.35 437.419 456.107 426.501 457.388 413.996Z" fill="#F1C0E8"/>
<path d="M383.27 414.538L437.091 414.263L454.755 413.949C453.716 419.912 452.956 425.159 450.79 430.868C443.052 451.264 423.149 454.422 404.655 447.236C390.96 441.22 385.805 428.285 383.27 414.538Z" fill="#F1C0E8"/>
<path d="M297.548 440.488C291.363 445.945 282.36 450.425 274.095 450.202C249.018 449.525 247.363 433.181 247.442 414.523L306.979 414.563C306.987 418.367 306.882 422.239 306.816 426.048C303.015 431.11 303.406 434.137 297.548 440.488Z" fill="#FFCFD2"/>
<path d="M372.749 440.539C368.695 445.268 363.092 448.88 356.923 450.06C331.056 455.008 316.879 438.188 312.525 414.705C335.545 415.009 358.717 414.493 381.783 414.488C378.807 426.384 380.336 429.778 372.749 440.539Z" fill="#F1C0E8"/>
<path d="M324.843 564.763C318.242 570.544 307.299 568.961 306.807 558.146C304.641 510.541 307.992 462.448 309.48 414.809C310.475 415.999 311.24 419.877 311.678 421.648C314.553 433.276 320.861 443.064 331.078 449.7C331.583 483.111 331.841 517.592 328.921 550.925C328.493 555.816 327.395 560.529 324.843 564.763Z" fill="url(#paint0_linear_2252_13069)"/>
<path d="M589.625 663.279C600.439 660.109 614.143 656.369 620.57 646.267C624.402 640.245 623.941 631.718 622.282 624.994C620.711 618.62 616.387 614.485 610.907 611.271C577.623 591.747 456.174 596.602 417.888 606.731C409.602 608.923 398.544 612.9 394.185 620.871C393.118 622.823 392.035 626.47 392.732 628.608L394.036 629.189L394.114 629.402C391.582 632.32 391.928 637.531 392.071 641.218C392.682 656.927 422.597 663.827 434.653 666.363C438.45 678.85 441.815 691.476 445.65 704.071C423.418 703.222 395.271 684.085 372.121 680.708C366.167 679.839 348.211 678.628 342.035 681.533C341.424 681.82 341.41 683.338 341.276 684.23C340.453 671.501 340.392 653.788 339.256 640.61C339.004 640.325 338.753 640.04 338.501 639.756L337.937 640.289C337.096 644.527 338.445 674.434 338.557 680.985C336.837 680.526 336.132 679.96 334.703 680.954C329.528 684.553 325.143 691.121 319.453 693.643C318.691 680.711 318.062 667.351 316.251 654.518C315.666 649.791 312.083 643.598 311.95 638.963C311.28 615.766 311.852 592.897 310.445 569.694C321.715 571.859 329.225 568.927 330.753 556.765C335.097 522.168 333.935 485.471 333.748 450.715C351.729 456.167 371.664 452.743 379.542 433.637C380.869 430.419 381.579 427.22 382.397 423.845C387.346 436.798 393.715 446.827 407.639 450.853C431.962 457.886 447.676 449.31 455.249 425.996C463.455 450.974 488.908 455.186 510.873 443.427C517.551 439.851 521.487 431.448 522.939 424.075C526.893 435.684 533.335 446.536 546.239 448.669C571.589 452.86 587.617 445.137 593.412 420.472C601.112 445.522 625.434 455.374 649.665 442.777C658.66 438.101 662.395 426.518 664.281 417.004C668.385 429.038 672.349 434.518 683.455 440.446L686.557 615.879C686.788 629.664 686.094 641.263 685.344 654.95C684.797 664.923 686.698 678.966 687.54 689.181C663.283 681.184 636.305 680.945 612.288 690.014C605.741 692.485 596.402 697.944 598.606 706.285C600.883 714.907 609.531 719.943 616.531 724.364L614.503 729.499L584.423 729.296C584.524 723.581 585.423 715.233 585.93 709.371C588.641 709.241 591.386 709.409 593.604 707.862L593.387 707.162C591.141 706.155 588.687 706.501 586.144 706.569C587.269 692.151 588.271 677.672 589.625 663.279ZM647.8 461.723L398.028 471.333C384.927 471.768 371.767 471.779 358.656 471.59C353.933 471.522 352.465 469.607 350.207 470.794C349.133 472.996 350.077 477.692 350.419 480.262C355.213 516.287 351.708 552.531 351.62 588.591C360.215 588.079 369.259 587.55 377.875 587.527C389.658 587.425 480.6 584.188 482.565 585.495C481.892 586.926 480.709 588.566 481.431 590.077C484.321 595.817 494.188 595.367 499.718 595.595C505.623 595.839 511.548 595.68 517.434 595.46C521.079 595.324 521.842 591.756 524.985 594.502C531.691 594.824 545.727 596.48 550.484 591.955C552.802 589.75 552.583 587.575 552.719 584.619C586.662 585.001 621.181 582.304 655.12 581.19C658.406 581.082 662.091 580.871 665.341 580.411C665.027 571.865 665.034 563.362 664.938 554.814C664.588 523.731 663.637 492.637 663.431 461.553C658.311 461.577 652.893 461.511 647.8 461.723Z" fill="#BEEDF7"/>
<path d="M869.76 461.956C872.943 455.636 880.065 428.006 884.87 425.938C886.263 426.257 887.21 426.848 887.858 428.27C896.306 446.819 900.347 469.381 901.986 489.13C904.751 518.725 908.068 554.327 888.062 579.117C879.642 589.551 869.945 593.396 856.815 591.347C852.602 614.325 851.875 641.191 851.503 664.56C851.319 676.155 851.344 689.788 853.012 701.144C858.704 686.886 863.502 678.524 870.923 665.255C858.208 655.634 862.274 643.528 872.212 627.451C879.11 616.292 928.141 576.107 943.493 580.92C949.305 582.743 933.406 626.541 930.789 631.482C922.015 653.355 896.752 673.692 873.039 665.953C867.261 676.253 857.92 692.681 854.864 703.938C860.199 703.588 866.581 703.153 871.748 702.128C889.474 698.614 899.734 694.886 893.633 718.909L887.934 720.695C886.626 732.083 879.09 780.426 872.491 785.784C862.824 793.633 842.822 793.483 831.194 791.992C826.16 791.346 817.825 790.276 814.558 786.014C809.811 779.819 799.477 732.827 796.413 722.091C787.724 721.381 787.293 715.371 787.601 707.805C787.932 699.683 796.636 698.177 802.966 699.745C811.427 701.028 820.794 703.362 829.269 703.703C820.81 682.315 817.58 672.063 812.739 649.419C812.073 645.06 811.529 640.848 810.998 636.47C803.033 637.949 796.114 636.822 790.493 630.792C765.136 603.586 778.382 568.557 785.124 537.206C786.728 529.743 785.641 515.788 787.991 509.711C793.617 495.16 809.751 519.483 813.731 524.198C824.659 538.428 834.452 553.166 839.287 570.561C840.584 578.098 841.382 584.253 840.754 591.948C839.799 600.234 838.92 603.473 836.285 611.154C833.251 617.297 830.339 621.232 825.874 626.511C821.131 630.627 818.944 632.741 813.435 635.532C814 639.201 814.529 642.362 814.72 646.065C816.864 659.08 820.692 673.564 824.977 686.055C827.032 692.044 829.792 697.69 831.855 703.857C838.79 704.317 843.996 704.504 850.893 704.243C848.484 688.108 849.003 674.153 849.257 658.018C849.631 634.29 851.056 613.273 854.754 589.922C849.243 584.921 847.096 582.251 843.709 575.745L842.646 572.954C830.043 538.898 846.873 514.04 860.78 484.012C864.38 476.79 867.184 469.584 869.76 461.956ZM886.07 431.887C885.949 453.233 882.378 491.527 877.143 512.336C880.912 510.632 885.34 508.075 889.042 506.984C893.827 506.058 896.46 506.191 901.089 507.914C899.72 490.728 898.355 473.02 894.303 456.222C892.975 450.718 889.597 435.675 886.07 431.887ZM883.738 432.337C880.769 437.939 878.301 445.453 876.338 451.549C868.902 474.634 857.968 495.86 847.681 517.753C851.604 527.436 853.527 529.457 859.86 537.904C862.312 542.118 863.772 544.887 865.725 549.354C874.373 515.997 881.191 484.68 883.146 450.173C883.364 446.321 884.488 435.624 883.738 432.337ZM792.315 507.678C791.498 509.205 790.781 509.806 791.46 511.496C794.936 520.145 798.099 527.868 801.07 536.69C806.116 551.671 806.807 563.936 809.173 579.102C812.836 573.052 814.509 571.395 819.7 566.44C824.087 562.452 826.853 560.48 832.497 558.318C827.603 547.496 803.224 509.486 792.315 507.678ZM893.371 508.676C885.32 509.721 883.572 512.676 876.51 515.143C871.392 537.068 866.592 559.027 860.283 580.636C859.577 583.053 858.766 585.706 858.341 588.18C860.422 590.23 864.846 589.592 867.654 589.505C894.22 583.339 901.722 548.754 901.737 525.456C901.743 516.576 904.51 509.265 893.371 508.676ZM789.122 512.86C788.373 522.79 788.405 532.119 786.473 541.971C784.769 552.175 781.392 562.082 779.644 572.255C776.491 590.6 777.728 612.25 790.616 626.86C796.734 633.796 801.684 635.309 810.614 633.857C810.037 627.745 809.569 621.515 809.471 615.375C809.152 607.536 809.721 599.689 803.631 593.906C798.05 588.606 791.107 587.734 784.533 584.803C795.103 584.943 800.22 586.625 807.873 594.146C806.084 569.471 803.513 546.187 793.95 523.143C793.129 521.164 790.191 514.326 789.122 512.86ZM846.138 521.815C839.153 539.578 837.858 556.822 845.884 574.518C847.221 577.465 852.423 585.95 855.681 586.599C856.221 585.652 856.205 585.902 856.404 584.885C859.297 574.87 862.33 564.755 864.802 554.638C860.12 540.107 854.504 536.587 847.491 523.982C846.947 523.004 846.974 522.576 846.138 521.815ZM833.007 560.982C822.75 565.112 814.772 573.883 809.83 583.607L811.781 613.06C812.108 618.482 812.359 626.471 813.122 631.539L813.704 632.01L814.902 631.6C826.934 623.48 833.998 614.596 836.999 600.087C838.771 591.517 838.819 567.543 833.007 560.982ZM938.899 582.5C914.313 591.896 880.966 614.127 868.575 638.225C864.142 646.847 864.633 656.371 872.285 663.11L876.953 655.633C880.331 650.337 883.83 644.883 887.911 640.097C886.467 636.134 884.919 627.24 887.162 623.607L887.992 623.417C889.291 624.718 889.162 633.686 889.907 637.393C894.637 632.193 900.501 625.904 905.274 620.962C911.042 614.992 942.006 589.543 941.836 582.97C940.629 582.047 940.861 582.372 938.899 582.5ZM940.876 590.378C937.245 594.524 932.695 599.455 928.938 602.91C923.582 607.838 893.376 634.562 891.94 639.701C893.702 641.672 899.476 643.103 902.131 643.884C907.337 646.562 909.122 648.519 912.348 653.602C926.241 640.56 932.202 622.894 937.443 605.065C938.482 601.53 941.235 593.759 940.876 590.378ZM889.316 642.31C883.896 649.649 879.812 656.215 875.063 664.016C882.52 666.065 886.058 666.019 893.626 663.706C899.717 661.585 904.397 659.652 909.561 655.638C905.536 644.447 897.326 646.564 889.316 642.31ZM793.687 701.531C791.379 703.198 790.444 704.882 790.022 707.719C789.544 710.935 789.793 715.639 792.011 718.237C794.421 721.059 826.466 723.106 831.496 723.371C849.772 724.334 871.061 723.534 888.623 718.109C893.626 715.802 893.796 708.728 892.465 704.24C892.271 703.586 891.09 702.264 890.317 701.972C884.49 701.776 878.096 703.543 872.244 704.394C854.671 706.948 837.121 707.368 819.513 704.841C811.018 703.622 802.31 701.43 793.687 701.531ZM884.389 721.659C852.329 727.626 831.54 726.51 799.105 722.259C803.453 740.328 807.72 758.256 812.944 776.102C814.062 779.622 814.777 782.238 816.525 785.503C827.914 791.421 868.527 794.536 873.441 780.466C879.198 763.979 883.471 739.728 885.431 722.198C884.777 721.577 885.144 721.713 884.389 721.659Z" fill="black"/>
<path d="M877.143 512.336C882.378 491.527 885.949 453.233 886.07 431.887C889.597 435.675 892.975 450.718 894.303 456.222C898.355 473.02 899.72 490.728 901.089 507.914C896.46 506.191 893.827 506.058 889.042 506.984C885.34 508.075 880.912 510.632 877.143 512.336Z" fill="#E2F6EA"/>
<path d="M847.682 517.752C857.969 495.859 868.903 474.633 876.339 451.548C878.302 445.452 880.77 437.938 883.739 432.336C884.489 435.623 883.365 446.32 883.147 450.172C881.192 484.679 874.374 515.995 865.726 549.352C863.773 544.885 862.313 542.116 859.861 537.902C853.528 529.455 851.605 527.435 847.682 517.752Z" fill="#E2F6EA"/>
<path d="M689.557 629.978C689.529 611.344 688.917 592.342 688.672 573.676L686.303 441.562C694.092 443.812 698.688 444.088 706.725 444.03C709.74 501.068 709.908 554.969 709.665 612.009C705.14 613.718 703.066 614.958 699.287 617.832C694.453 621.953 692.734 624.541 689.557 629.978Z" fill="#BEEDF7"/>
<path d="M351.621 588.589C351.709 552.529 355.214 516.285 350.42 480.26C350.078 477.69 349.134 472.994 350.208 470.792C352.466 469.605 353.934 471.52 358.657 471.588C371.768 471.777 384.928 471.766 398.029 471.331L647.801 461.721C652.894 461.509 658.312 461.575 663.432 461.551C663.638 492.635 664.589 523.729 664.939 554.812C665.035 563.36 665.028 571.863 665.342 580.409C662.092 580.869 658.407 581.08 655.121 581.188C621.182 582.302 586.663 584.999 552.72 584.617C552.584 587.573 552.803 589.748 550.485 591.953C545.728 596.478 531.692 594.822 524.986 594.5C521.843 591.754 521.08 595.322 517.435 595.458C511.549 595.678 505.624 595.837 499.719 595.593C494.189 595.365 484.322 595.815 481.432 590.075C480.71 588.564 481.893 586.924 482.566 585.493C480.601 584.186 389.659 587.423 377.876 587.525C369.26 587.548 360.216 588.077 351.621 588.589ZM648.988 464.392L602.849 465.394C594.75 465.546 582.842 465.416 574.949 466.278C563.534 466.884 551.611 467.175 540.161 467.52C532.185 467.792 514.597 467.983 507.242 468.925C497.747 469.163 485.574 469.381 476.215 470.379C475.871 478.32 475.588 486.98 475.934 494.92C475.416 501.655 475.89 513.064 475.981 520.147C476.336 540.703 476.566 562.731 477.377 583.18C485.425 583.985 487.904 582.738 495.116 582.573C494.979 575.282 494.725 567.269 494.946 560.014C493.197 559.517 491.043 559.151 489.869 557.898C491.269 552.245 517.517 550.358 522.334 552.86C529.863 556.77 531.891 554.274 539.215 555.461L542.464 549.485C540.867 546.748 538.832 540.11 539.669 536.915C543.29 532.842 567.36 533.507 571.571 536.422C571.676 537.947 569.998 541.345 569.339 543.162C567.974 546.838 566.585 548.934 564.54 552.308C556.892 552.836 551.038 553.276 543.427 551.417C540.466 557.611 538.887 561.787 541.171 568.839C544.303 578.514 560.148 582.372 564.042 571.248C565.341 567.537 565.467 562.392 565.692 558.382C572.594 555.534 579.226 548.321 570.398 542.788C572.071 542.392 575.671 543.058 576.473 544.386C580.172 550.502 571.83 557.693 568.011 560.629C567.631 565.744 567.62 573.222 563.806 576.967C558.281 582.393 547.546 581.052 542.422 575.613C537.15 570.016 537.431 564.367 537.498 557.264C538.366 557.287 525.501 557.296 527.418 556.877C528.014 558.297 528.21 558.197 529.589 559.019C530.623 558.487 530.676 558.52 531.831 558.292L532.351 558.945C531.856 560.711 531.872 560.204 529.737 561.494C528.231 568.335 527.283 575.195 526.241 582.118C557.736 582.165 589.154 581.375 620.625 579.968C634.588 579.344 648.547 578.972 662.488 577.885C662.776 540.659 661.457 501.372 660.793 464.013C656.991 463.991 652.819 464.239 648.988 464.392ZM459.129 471.139C425.377 473.469 386.597 475.309 353.154 473.74C353.533 478.755 353.893 483.026 354.613 488.036C385.809 489.622 417.845 490.646 449.044 489.696C454.573 489.528 467.917 489.424 472.65 488.311C473.709 486.867 473.405 484.682 473.36 482.712L473.662 470.456C469.112 470.419 463.73 470.868 459.129 471.139ZM473.272 491.538C469.894 491.786 466.108 491.98 462.794 492.47C428.134 494.235 389.282 492.722 354.625 490.895C356.469 516.48 355.231 540.608 355.477 565.944C354.841 572.528 354.733 578.836 354.529 585.447L474.848 582.487C474.963 562.473 473.886 540.643 473.511 520.418C473.474 511.916 473.839 499.739 473.272 491.538ZM560.81 536.123C553.59 535.582 549.276 536.107 542.026 536.872C548.786 538.796 553.559 540.057 560.577 539.001C562.376 538.73 565.199 538.475 566.478 537.377C564.977 536.412 562.658 536.35 560.81 536.123ZM499.911 555.643C497.806 555.796 495.153 555.956 493.471 557.206C495.554 558.612 498.432 557.587 499.825 558.915C497.834 560.408 497.648 560.055 497.195 562.751L497.44 568.419C497.405 570.781 497.004 572.015 498.025 573.877C499.851 574.669 501.091 574.839 502.738 575.549L502.968 572.973C505.158 574.7 509.192 575.849 511.961 576.816C508.462 577.065 505.047 575.176 503.072 576.045C502.306 578.055 501.573 579.977 500.731 581.961C506.833 581.971 516.634 583.547 518.528 576.512C518.536 576.404 519.945 571.115 520.123 570.341L521.021 569.958L521.339 570.467C521.011 573.245 520.771 578.179 519.367 580.537C515.376 587.239 500.912 580.087 497.784 584.862C497.59 587.34 499.589 593.543 502.723 593.48C512.886 593.157 521.854 596.961 523.568 583.368C524.414 576.652 526.622 569.028 527.39 562.174L526.792 561.646C525.388 561.618 524.71 562.297 523.481 563.095L522.932 563.457L523.478 562.619L523.247 562.466C521.464 563.479 521.955 562.764 521.475 564.498L520.837 565.006C519.299 560.213 504.717 566.579 499.348 562.557C501.729 561.544 523.957 560.575 528.469 560.189C520.051 552.021 510.411 553.893 499.911 555.643ZM541.941 537.532C541.272 552.294 553.03 552.063 564.081 549.215C564.949 548.087 564.994 548.102 565.5 546.792L568.603 539.312C562.444 542.295 546.47 543.253 541.941 537.532ZM525.716 584.689C525.263 586.494 524.366 589.019 524.821 590.703C528.284 594.197 543.503 592.563 548.19 590.892C549.578 589.117 549.845 588.94 550.435 586.835C550.21 586.062 550.232 585.462 549.621 585.259C543.345 583.168 532.346 586.086 525.716 584.689ZM488.554 585.696C486.421 586.14 486.06 586.089 484.401 587.374L483.963 588.497C485.669 592.232 490.061 592.473 493.638 592.914L496.674 593.058L497.278 592.445C496.904 589.974 495.587 588.529 495.096 585.445L488.554 585.696Z" fill="black"/>
<path d="M860.78 484.013C858.594 480.092 865.934 462.98 869.759 461.957C867.183 469.585 864.38 476.791 860.78 484.013Z" fill="#E2F6EA"/>
<path d="M648.987 464.392C652.818 464.239 656.99 463.991 660.792 464.013C661.456 501.372 662.775 540.659 662.487 577.885C648.546 578.972 634.587 579.344 620.624 579.968C589.153 581.375 557.735 582.165 526.24 582.118C527.282 575.195 528.23 568.335 529.736 561.494C531.871 560.204 531.855 560.711 532.35 558.945L531.83 558.292C530.675 558.52 530.622 558.487 529.588 559.019C528.209 558.197 528.013 558.297 527.417 556.877C525.5 557.296 538.365 557.287 537.497 557.264C537.43 564.367 537.149 570.016 542.421 575.613C547.545 581.052 558.28 582.393 563.805 576.967C567.619 573.222 567.63 565.744 568.01 560.629C571.829 557.693 580.171 550.502 576.472 544.386C575.67 543.058 572.07 542.392 570.397 542.788L569.338 543.162C569.997 541.345 571.675 537.947 571.57 536.422C567.359 533.507 543.289 532.842 539.668 536.915C538.831 540.11 540.866 546.748 542.463 549.485L539.214 555.461C531.89 554.274 529.862 556.77 522.333 552.86C517.516 550.358 491.268 552.245 489.868 557.898C491.042 559.151 493.196 559.517 494.945 560.014C494.724 567.269 494.978 575.282 495.115 582.573C487.903 582.738 485.424 583.985 477.376 583.18C476.565 562.731 476.335 540.703 475.98 520.147C515.953 519.964 555.977 517.751 595.865 516.602C600.256 523 602.448 527.212 607.517 533.828L594.808 534.24C592.656 543.681 587.864 561.224 592.914 569.448C604.162 587.766 630.563 578.04 627.246 555.876C625.832 546.428 626.128 542.641 621.148 534.134C618.911 533.777 616.728 533.736 614.465 533.628C619.337 527.85 621.003 523.322 622.99 516.141C644.084 515.998 650.322 511.239 650.387 488.953C650.412 480.459 649.803 472.869 648.987 464.392Z" fill="#E2F6EA"/>
<path d="M574.949 466.277C582.842 465.415 594.75 465.545 602.849 465.393L648.988 464.391C649.804 472.868 650.413 480.458 650.388 488.952C650.323 511.238 644.085 515.997 622.991 516.14C623.508 513.076 624.298 510.114 623.701 507.134L622.97 506.151C618.926 506.66 614.735 519.537 613.7 523.22C613.5 517.017 610.729 497.771 604.551 494.968C599.673 496.596 603.614 514.621 604.517 518.932C602.479 516.773 599.234 512.875 596.339 512.35L595.621 512.841C595.278 514.702 595.427 514.806 595.866 516.601C555.978 517.75 515.954 519.963 475.981 520.146C475.89 513.063 475.416 501.654 475.934 494.919C477.193 496.648 477.787 499.209 478.85 500.65C484.424 508.047 497.714 508.235 505.111 503.649C510.61 500.241 512.399 495.892 513.765 489.999L514.455 489.245C515.212 483.948 513.255 476.01 515.548 473.315C518.641 471.513 529.683 472.343 533.592 472.378C535.375 472.394 535.046 473.845 538.622 472.795C541 474.538 541.519 486.43 546.837 491.158C561.46 517.726 584.02 497.975 580.204 475.101C579.463 470.655 578.533 468.864 574.949 466.277Z" fill="#98F5E1"/>
<path d="M540.16 467.519C551.61 467.174 563.533 466.883 574.948 466.277C578.532 468.864 579.462 470.655 580.203 475.101C584.019 497.975 561.459 517.726 546.836 491.158C542.989 480.424 540.767 480.47 540.16 467.519Z" fill="#E6DFD5"/>
<path d="M507.24 468.925C514.595 467.983 532.183 467.792 540.159 467.52C540.766 480.471 542.988 480.425 546.835 491.159C541.517 486.431 540.998 474.539 538.62 472.796C535.044 473.846 535.373 472.395 533.59 472.379C529.681 472.344 518.639 471.514 515.546 473.316C513.253 476.011 515.21 483.949 514.453 489.246L513.763 490C513.945 483.228 514.197 480.109 511.933 473.622C509.965 472.035 508.488 471.113 507.24 468.925Z" fill="#BEEDF7"/>
<path d="M476.214 470.38C485.573 469.382 497.746 469.164 507.241 468.926C508.489 471.114 509.966 472.036 511.934 473.623C514.198 480.11 513.946 483.229 513.764 490.001C512.398 495.894 510.609 500.243 505.11 503.651C497.713 508.237 484.423 508.049 478.849 500.652C477.786 499.211 477.192 496.65 475.933 494.921C475.587 486.981 475.87 478.321 476.214 470.38Z" fill="#E6DFD5"/>
<path d="M459.127 471.138C463.728 470.867 469.11 470.418 473.66 470.455L473.358 482.711C473.115 483.728 472.922 485.143 472.741 486.206C468.052 484.799 453.363 476.99 459.127 471.138Z" fill="#BEEDF7"/>
<path d="M353.152 473.742C386.595 475.311 425.375 473.471 459.127 471.141C453.363 476.993 468.052 484.802 472.741 486.209C472.922 485.146 473.115 483.731 473.358 482.714C473.403 484.684 473.707 486.869 472.648 488.313C467.915 489.426 454.571 489.53 449.042 489.698C417.843 490.648 385.807 489.624 354.611 488.038C353.891 483.028 353.531 478.757 353.152 473.742Z" fill="#98F5E1"/>
<path d="M473.27 491.538C473.837 499.739 473.472 511.916 473.509 520.418C462.909 520.404 452.677 521.335 442.283 521.481C415.959 521.851 390.144 523.571 363.881 525.041C364.989 539.021 365.028 543.784 359.366 557.319C358.256 559.975 357.125 563.606 355.475 565.944C355.229 540.608 356.467 516.48 354.623 490.895C389.28 492.722 428.132 494.235 462.792 492.47C464.363 496.282 469.384 497.308 472.734 494.955C473.188 494.635 473.211 492.234 473.27 491.538Z" fill="#98F5E1"/>
<path d="M462.793 492.471C466.107 491.981 469.893 491.787 473.271 491.539C473.212 492.235 473.189 494.636 472.735 494.956C469.385 497.309 464.364 496.283 462.793 492.471Z" fill="#E2F6EA"/>
<path d="M613.698 523.221C614.733 519.538 618.924 506.661 622.968 506.152L623.699 507.135C624.296 510.115 623.506 513.077 622.989 516.141C621.002 523.322 619.336 527.85 614.464 533.628C616.727 533.736 618.91 533.777 621.147 534.134C626.127 542.641 625.831 546.428 627.245 555.876C630.562 578.04 604.161 587.766 592.913 569.448C587.863 561.224 592.655 543.681 594.807 534.24L607.516 533.828C602.447 527.212 600.255 523 595.864 516.602C595.425 514.807 595.276 514.703 595.619 512.842L596.337 512.351C599.232 512.876 602.477 516.774 604.515 518.933C603.612 514.622 599.671 496.597 604.549 494.969C610.727 497.772 613.498 517.018 613.698 523.221ZM604.664 497.912C603.548 510.134 607.211 521.542 610.263 533.125C610.343 533.363 610.423 533.602 610.503 533.84L611.436 533.842C613.347 526.883 609.949 502.343 604.664 497.912ZM621.652 509.859C619.45 514.093 613.69 526.469 614.204 531.125C616.475 526.554 622.729 514.968 621.652 509.859ZM598.39 515.486C599.16 519.043 604.519 527.307 607.077 529.139C605.775 523.82 603.393 518.317 598.39 515.486ZM601.829 536.224C600.296 536.299 598.128 536.167 597.048 537.051C594.584 542.735 594.232 548.129 593.477 554.186C591.604 569.21 600.07 579.832 616.154 575.186C620.321 572.786 623.017 570.28 624.171 565.379C626.11 557.138 623.964 544.082 620.735 536.436C614.427 536.238 608.14 536.296 601.829 536.224Z" fill="black"/>
<path d="M611.438 533.84L610.505 533.838C610.425 533.6 610.345 533.361 610.265 533.123C607.213 521.54 603.55 510.132 604.666 497.91C609.951 502.341 613.349 526.881 611.438 533.84Z" fill="#BEEDF7"/>
<path d="M135.838 602.382C136.652 599.659 141.434 592.572 143.193 589.985C158.623 567.296 176.979 545.898 197.147 527.288C205.128 519.923 216.661 514.163 226.901 510.815C240.653 506.064 254.847 507.475 268.934 507.377C283.931 507.273 289.444 508.961 303.146 513.505C302.932 524.476 302.605 535.543 303.071 546.502C303.397 554.176 302.936 562.304 307.912 568.615C309.562 587.565 308.769 606.963 309.44 625.975C309.55 629.094 309.566 632.25 309.554 635.372C293.176 604.405 260.524 623.557 266.34 652.94C268.363 663.159 271.98 674.008 274.883 684.087C245.322 670.827 222.097 659.142 193.816 643.366L190.606 641.593C177.597 633.492 164.445 625.037 152.431 615.503C146.911 611.122 141.498 606.581 135.838 602.382Z" fill="#A3C4F3"/>
<path d="M809.173 579.103C806.807 563.937 806.116 551.672 801.07 536.691C798.099 527.869 794.936 520.147 791.46 511.498C790.781 509.808 791.498 509.207 792.315 507.68C803.224 509.488 827.603 547.497 832.497 558.319C826.853 560.481 824.087 562.454 819.7 566.442C814.509 571.397 812.836 573.053 809.173 579.103Z" fill="#80F0BE"/>
<path d="M876.511 515.142C883.573 512.675 885.321 509.721 893.372 508.676C904.511 509.265 901.744 516.576 901.738 525.456C901.723 548.754 894.221 583.339 867.655 589.505C864.847 589.592 860.423 590.229 858.342 588.179C858.767 585.705 859.578 583.053 860.284 580.636C866.593 559.027 871.393 537.067 876.511 515.142Z" fill="#E2F6EA"/>
<path d="M614.204 531.125C613.69 526.469 619.45 514.093 621.652 509.859C622.729 514.968 616.475 526.554 614.204 531.125Z" fill="#BEEDF7"/>
<path d="M810.614 633.856C801.684 635.308 796.734 633.795 790.616 626.859C777.728 612.249 776.491 590.598 779.644 572.253C781.392 562.08 784.769 552.174 786.473 541.97C788.405 532.118 788.373 522.789 789.122 512.859C790.191 514.325 793.129 521.163 793.95 523.142C803.513 546.186 806.084 569.47 807.873 594.145C800.22 586.624 795.103 584.942 784.533 584.802C791.107 587.733 798.05 588.605 803.631 593.905C809.721 599.688 809.152 607.535 809.471 615.374C809.569 621.514 810.037 627.744 810.614 633.856Z" fill="#80F0BE"/>
<path d="M607.078 529.137C604.52 527.305 599.161 519.041 598.391 515.484C603.394 518.315 605.776 523.818 607.078 529.137Z" fill="#8EECF5"/>
<path d="M363.881 525.041C390.144 523.571 415.959 521.851 442.283 521.481C452.677 521.335 462.909 520.404 473.509 520.418C473.884 540.643 474.961 562.473 474.846 582.487L354.527 585.447C354.731 578.836 354.839 572.528 355.475 565.944C357.125 563.606 358.256 559.975 359.366 557.319C365.028 543.784 364.989 539.021 363.881 525.041Z" fill="#E2F6EA"/>
<path d="M856.404 584.886C856.205 585.903 856.221 585.652 855.681 586.599C852.423 585.95 847.221 577.466 845.884 574.519C837.858 556.823 839.153 539.579 846.138 521.816C846.974 522.577 846.947 523.004 847.491 523.982C854.504 536.587 860.12 540.107 864.802 554.638C862.33 564.755 859.297 574.871 856.404 584.886Z" fill="#E6DFD5"/>
<path d="M542.025 536.873C549.275 536.108 553.589 535.583 560.809 536.124L560.576 539.002C553.558 540.058 548.785 538.797 542.025 536.873Z" fill="#E6DFD5"/>
<path d="M560.809 536.121C562.657 536.348 564.976 536.41 566.477 537.375C565.198 538.473 562.375 538.728 560.576 538.999L560.809 536.121Z" fill="#BEEDF7"/>
<path d="M616.154 575.185C600.07 579.831 591.604 569.209 593.477 554.185C594.232 548.128 594.584 542.734 597.048 537.05C598.128 536.166 600.296 536.298 601.829 536.223C608.14 536.295 614.427 536.237 620.735 536.435C623.964 544.081 626.11 557.137 624.171 565.378C623.017 570.279 620.321 572.785 616.154 575.185Z" fill="#E2F6EA"/>
<path d="M565.498 546.791C564.992 548.101 564.947 548.086 564.079 549.214C553.028 552.062 541.27 552.293 541.939 537.531C546.468 543.252 562.442 542.294 568.601 539.311L565.498 546.791ZM545.264 542.207C545.133 543.798 544.886 544.102 545.471 545.436L546.347 544.48C548.324 544.423 547.373 544.243 549.257 545.249L549.245 545.752L547.516 546.367L547.503 547.084C550.91 549.846 560.435 548.517 563.767 546.31C563.354 544.879 563.555 544.615 562.612 543.854C561.346 544.323 561.393 544.549 560.578 545.696C557.623 541.909 555.825 547.003 550.49 546.758L550.16 546.437L552.663 545.777C552.529 545.532 545.945 542.443 545.264 542.207Z" fill="#E6DFD5"/>
<path d="M563.768 546.31C560.436 548.517 550.911 549.846 547.504 547.084L547.517 546.367L549.246 545.752L549.258 545.249C547.374 544.243 548.325 544.423 546.348 544.48L545.472 545.436C544.887 544.102 545.134 543.798 545.265 542.207C545.946 542.443 552.53 545.532 552.664 545.777L550.161 546.437L550.491 546.758C555.826 547.003 557.624 541.909 560.579 545.696C561.394 544.549 561.347 544.323 562.613 543.854C563.556 544.615 563.355 544.879 563.768 546.31Z" fill="black"/>
<path d="M569.338 543.163L570.397 542.789C579.225 548.322 572.593 555.535 565.691 558.383C565.466 562.393 565.34 567.538 564.041 571.249C560.147 582.373 544.302 578.515 541.17 568.84C538.886 561.788 540.465 557.612 543.426 551.418C551.037 553.277 556.891 552.837 564.539 552.309C566.584 548.935 567.973 546.839 569.338 543.163Z" fill="#E6DFD5"/>
<path d="M499.909 555.642C510.409 553.892 520.049 552.02 528.467 560.188C523.955 560.574 501.727 561.543 499.346 562.556L497.193 562.75C497.646 560.054 497.832 560.407 499.823 558.914C499.926 557.693 499.91 556.855 499.909 555.642Z" fill="#BEEDF7"/>
<path d="M499.825 558.917C498.432 557.589 495.554 558.614 493.471 557.208C495.153 555.958 497.806 555.798 499.911 555.645C499.912 556.858 499.928 557.696 499.825 558.917Z" fill="#60C6BF"/>
<path d="M809.83 583.605C814.772 573.881 822.75 565.11 833.007 560.98C838.819 567.541 838.771 591.516 836.999 600.086C833.998 614.595 826.934 623.479 814.902 631.599L813.704 632.009L813.122 631.538C812.359 626.47 812.108 618.481 811.781 613.059L809.83 583.605Z" fill="#80F0BE"/>
<path d="M520.836 565.005L521.474 564.497C521.954 562.763 521.462 563.478 523.245 562.465L523.476 562.618L522.931 563.456L523.479 563.094C524.708 562.296 525.387 561.617 526.791 561.645L527.388 562.173C526.62 569.027 524.413 576.651 523.567 583.367C521.853 596.96 512.884 593.156 502.721 593.479C499.587 593.542 497.588 587.339 497.782 584.861C500.91 580.086 515.375 587.238 519.366 580.536C520.77 578.178 521.01 573.244 521.338 570.466L521.02 569.957L520.122 570.34C519.33 567.965 519.719 567.066 520.836 565.005Z" fill="#FBF8CC"/>
<path d="M497.193 562.753L499.346 562.559C504.715 566.581 519.297 560.215 520.835 565.008C519.718 567.069 519.329 567.968 520.121 570.343C519.943 571.117 518.534 576.406 518.526 576.514C515.659 577.721 515.016 577.379 511.959 576.818C509.19 575.851 505.156 574.702 502.966 572.975C501.28 571.29 499.572 569.421 497.438 568.421L497.193 562.753Z" fill="#E6DFD5"/>
<path d="M497.439 568.418C499.573 569.418 501.281 571.287 502.967 572.972L502.737 575.548C501.09 574.838 499.85 574.668 498.024 573.876C497.003 572.014 497.404 570.78 497.439 568.418Z" fill="#98F5E1"/>
<path d="M839.287 570.559L839.963 570.527C841.518 573.55 840.163 577.288 841.812 578.574C842.692 577.73 842.582 577.86 843.34 576.849C842.493 583.664 844.346 589.222 842.584 597.595C842.565 597.411 842.545 597.226 842.525 597.042L842.42 596.239C842.141 593.997 842.016 593.952 840.754 591.945C841.382 584.25 840.584 578.096 839.287 570.559Z" fill="#98F5E1"/>
<path d="M503.071 576.047C505.046 575.178 508.461 577.067 511.96 576.818C515.017 577.379 515.66 577.721 518.527 576.514C516.633 583.549 506.832 581.973 500.73 581.963C501.572 579.979 502.305 578.057 503.071 576.047Z" fill="#FCEA8E"/>
<path d="M843.341 576.849L843.71 575.742C847.097 582.248 849.244 584.919 854.755 589.92C851.057 613.271 849.632 634.288 849.258 658.016C849.004 674.151 848.485 688.106 850.894 704.241C843.997 704.502 838.791 704.314 831.856 703.854C829.793 697.687 827.033 692.042 824.978 686.053C820.693 673.562 816.865 659.077 814.721 646.062C816.696 643.849 825.222 629.348 825.875 626.509C830.34 621.23 833.252 617.295 836.286 611.152C841.277 608.107 841.508 602.966 842.585 597.595C844.347 589.222 842.494 583.664 843.341 576.849Z" fill="#E2F6EA"/>
<path d="M872.285 663.111C864.633 656.372 864.142 646.848 868.575 638.226C880.966 614.128 914.313 591.896 938.899 582.5C940.861 582.372 940.629 582.048 941.836 582.971C942.006 589.544 911.042 614.993 905.274 620.963C900.501 625.905 894.637 632.193 889.907 637.393C889.162 633.686 889.291 624.719 887.992 623.418L887.162 623.607C884.919 627.24 886.467 636.135 887.911 640.098C883.83 644.884 880.331 650.337 876.953 655.633L872.285 663.111Z" fill="#CFBAF0"/>
<path d="M548.19 590.893C543.503 592.564 528.284 594.198 524.821 590.704C524.366 589.02 525.263 586.495 525.716 584.69C532.346 586.087 543.345 583.169 549.621 585.26C550.232 585.463 550.21 586.063 550.435 586.836C549.845 588.941 549.578 589.118 548.19 590.893Z" fill="#BEEDF7"/>
<path d="M493.638 592.914C490.061 592.473 485.669 592.232 483.963 588.497L484.401 587.374C486.06 586.089 486.421 586.14 488.554 585.696L495.096 585.445C495.587 588.529 496.904 589.974 497.278 592.445L496.674 593.058L493.638 592.914Z" fill="#E6DFD5"/>
<path d="M902.13 643.885C899.475 643.104 893.701 641.672 891.939 639.701C893.375 634.562 923.581 607.839 928.937 602.911C932.694 599.456 937.244 594.525 940.875 590.379C941.234 593.76 938.481 601.531 937.442 605.066C932.201 622.895 926.24 640.56 912.347 653.602C909.121 648.519 907.336 646.563 902.13 643.885Z" fill="#CFBAF0"/>
<path d="M836.285 611.152C838.92 603.471 839.799 600.231 840.754 591.945C842.016 593.952 842.141 593.997 842.42 596.239L842.525 597.042C842.545 597.226 842.565 597.411 842.584 597.595C841.507 602.966 841.276 608.107 836.285 611.152Z" fill="#80F0BE"/>
<path d="M394.035 629.187C396.907 620.534 398.275 617.711 406.616 613.551C440.079 596.86 563.849 597.051 599.536 609.15C606.625 611.554 615.925 615.883 619.269 623.071C620.115 624.89 620.194 626.82 619.376 628.665C616.244 635.734 602.073 640.781 595.295 643.087C551.176 658.094 480.956 656.074 435.448 647.203C426.702 645.498 416.459 643.727 408.413 639.81C405.004 638.15 401.836 635.998 398.949 633.542C397.378 632.204 395.929 630.358 394.113 629.4L394.035 629.187Z" fill="#E6DFD5"/>
<path d="M372.33 876.219C363.944 885.507 351.718 892.787 339.488 895.949C304.242 905.061 271.459 882.93 243.277 864.649C228.639 855.154 219.8 847.364 202.737 840.852C175.766 830.56 148.337 834.413 122.861 818.519C78.551 790.875 85.7075 730.643 98.1047 687.233C107.079 655.808 118.232 630.597 135.391 602.281L135.839 602.38C141.499 606.579 146.912 611.12 152.432 615.501C164.446 625.035 177.598 633.49 190.607 641.591C189.869 648.08 190.628 657.703 191.244 664.098C192.922 681.519 196.105 703.412 204.191 718.946C220.863 750.977 262.407 763.772 296.32 758.343C297.056 758.226 296.899 758.29 297.714 758.537C295.429 768.41 279.263 822.366 280.133 828.491L280.945 829.011C283.081 828.167 282.985 825.758 283.357 823.587C287.892 805.173 292.522 786.839 297.918 768.655C299.891 762.005 301.312 755.037 303.611 748.513C310.105 750.82 315.353 751.425 322.122 752.452C325.631 755.917 341.454 764.506 346.614 767.263C345.316 788.641 341.625 819.804 338.805 841.246C338.421 843.911 337.192 848.525 339.061 850.635C341.541 849.718 341.332 844.455 341.536 841.987C343.84 817.473 346.739 791.46 349.576 767.002L350.226 767.122C350.423 767.214 350.612 767.323 350.817 767.398C355.075 768.946 369.205 756.707 374.057 754.162C374.006 758.825 375.538 787.293 377.981 789.261L378.554 788.868C380.001 784.784 377.452 763.02 376.912 757.161C381.74 758.148 396.572 759.4 401.595 759.133C403.8 773.782 406.253 778.863 409.612 791.942C404.628 795.323 388.033 844.358 385.083 852.928C382.176 861.369 380.12 866.049 374.243 873.763L373.957 874.235L372.33 876.219ZM316.873 759.855C313.633 761.635 301.662 770.261 300.284 773.424L300.526 774.533L301.754 774.79C305.24 772.32 316.738 764.036 318.439 760.666L318.283 760.101L316.873 759.855Z" fill="#FCEA8E"/>
<path d="M708.127 697.053C707.303 697.565 706.555 697.939 705.88 698.613C702.906 696.275 698.57 693.86 695.099 692.348C697.009 674.132 699.749 656.123 702.445 638.015C702.985 634.386 703.458 631.024 703.704 627.365C700.672 634.905 699.941 643.269 698.523 651.287C696.172 664.589 694.539 677.93 692.875 691.334C691.581 690.806 689.492 690.139 688.617 689.244C689.632 688.299 689.998 688.3 689.943 686.752C689.46 670.991 685.994 654.415 689.301 638.78C692.024 625.914 703.391 614.079 717.23 614.043C734.537 613.998 744.268 627.547 739.755 644.02C734.447 663.394 726.732 682.887 720.368 702.005C718.836 706.47 717.053 711.213 714.616 715.244C716.898 697.403 721.937 681.588 726.296 664.259C727.328 660.157 731.333 645.114 730.568 642.114C729.277 643.565 715.336 696.866 714.185 702.87C712.045 701.655 711.601 701.01 710.25 699.028C710.758 694.548 712.428 687.584 713.324 683.048C715.482 672.132 718.088 661.237 720.633 650.409C722.001 644.588 724.635 636.726 725.224 631.141C719.89 640.3 714.778 668.388 712.189 679.543C711.465 682.666 709.538 695.097 708.127 697.053ZM713.091 630.784C710.748 637.585 701.23 690.149 702.683 694.637C702.846 695.14 703.015 695.276 703.326 695.628C704.275 692.129 713.84 633.152 713.711 631.397L713.091 630.784Z" fill="#80F0BE"/>
<path d="M293.953 688.661C292.819 688.685 290.553 688.668 289.511 688.769C284.378 668.959 279.899 648.024 274.535 628.628C277.634 625.656 281.219 622.816 285.642 622.461L286.934 622.997C288.073 625.982 288.989 630.051 289.562 633.214C292.846 651.342 299.307 671.597 301.706 689.741C299.228 690.307 298.87 690.331 296.682 691.514C295.27 683.967 284.346 635.945 281.568 632.054C280.606 635.8 292.261 680.435 293.953 688.661Z" fill="#90DBF4"/>
<path d="M308.675 690.202L303.69 690.3C300.6 669.775 293.562 642.56 288.59 622.297C292.05 623.11 296.205 623.866 297.129 627.706C302.032 648.084 305.101 669.593 308.675 690.202Z" fill="#90DBF4"/>
<path d="M310.443 691.301C307.8 672.322 303.838 645.111 298.771 626.527C315.65 640.259 315.678 671.626 316.654 691.638C313.872 691.174 313.251 691.123 310.443 691.301Z" fill="#90DBF4"/>
<path d="M813.436 635.533C818.945 632.742 821.132 630.628 825.875 626.512C825.222 629.351 816.696 643.852 814.721 646.065C814.53 642.362 814.001 639.202 813.436 635.533Z" fill="#80F0BE"/>
<path d="M703.326 695.629C703.015 695.277 702.846 695.141 702.683 694.638C701.23 690.15 710.748 637.586 713.091 630.785L713.711 631.398C713.84 633.153 704.275 692.13 703.326 695.629Z" fill="black"/>
<path d="M286.685 686.684C284.13 686.801 281.429 686.745 279.034 687.519C276.494 677.8 273.12 668.161 270.509 658.429C267.684 647.898 267.264 640.35 273.279 630.723C277.996 649.266 281.843 667.801 286.685 686.684Z" fill="#90DBF4"/>
<path d="M394.961 633.871C426.851 664.008 587.174 664.735 620.399 631.984L620.886 632.742C621.296 636.904 620.867 641.841 618.178 645.293C603.872 661.934 566.892 665.841 546.516 669.317C509.229 675.679 427.076 670.96 397.373 648.666C394.918 644.584 394.991 638.508 394.961 633.871Z" fill="#F1C0E8"/>
<path d="M708.127 697.057C709.538 695.101 711.465 682.67 712.189 679.547C714.778 668.392 719.89 640.304 725.224 631.145C724.635 636.73 722.001 644.592 720.633 650.413C718.088 661.241 715.482 672.136 713.324 683.052C712.428 687.588 710.758 694.552 710.25 699.032L708.127 697.057Z" fill="black"/>
<path d="M190.605 641.59L193.815 643.363C191.655 647.8 196.76 681.442 198.029 687.921C203.257 714.628 213.038 735.276 239.174 746.513C253.196 752.542 267.929 757.027 283.565 756.729C287.26 756.678 295.538 754.818 298.578 755.463L297.712 758.536C296.897 758.289 297.054 758.225 296.318 758.342C262.405 763.771 220.861 750.976 204.189 718.945C196.103 703.411 192.92 681.518 191.242 664.097C190.626 657.702 189.867 648.079 190.605 641.59Z" fill="#F5D47D"/>
<path d="M875.062 664.016C879.812 656.215 883.895 649.648 889.315 642.309C897.325 646.563 905.535 644.446 909.56 655.637C904.396 659.651 899.716 661.584 893.625 663.705C886.057 666.018 882.519 666.065 875.062 664.016Z" fill="#CFBAF0"/>
<path d="M193.815 643.363C222.096 659.139 245.321 670.824 274.882 684.084C279.515 697.086 282.805 710.746 287.564 723.734C290.69 732.266 292.366 742.284 300.601 747.337L298.578 755.463C295.538 754.818 287.26 756.678 283.565 756.729C267.929 757.027 253.196 752.542 239.174 746.513C213.038 735.276 203.257 714.628 198.029 687.921C196.76 681.442 191.655 647.8 193.815 643.363Z" fill="#FCEA8E"/>
<path d="M522.554 674.618C538.967 673.983 568.949 668.491 584.825 664.574C585.906 664.454 585.431 664.329 586.273 664.855C586.969 668.278 583.879 700.711 583.452 706.799C563.311 707.206 542.251 707.894 522.183 707.839L520.284 707.339C519.563 705.16 522.216 678.718 522.554 674.618Z" fill="#90DBF4"/>
<path d="M449.806 708.895C445.489 695.039 441.859 680.251 437.324 666.738C457.621 671.644 479.719 673.741 500.537 674.851L501.119 708.513L449.806 708.895Z" fill="#90DBF4"/>
<path d="M500.308 798.624C498.63 803.042 497.167 805.791 493.772 809.456C490.665 812.811 484.628 817.34 480.272 812.982C479.239 811.948 478.69 811.517 477.5 810.685L476.675 810.911C475.841 815.429 480.296 817.263 484.066 817.268C493.237 817.279 501.959 805.73 503.492 797.278C507.356 775.982 505.004 753.481 504.436 731.981C503.879 712.91 503.435 693.966 503.248 674.943C508.895 675.05 514.461 674.966 520.106 674.895C519.505 678.846 519.094 683.16 518.715 687.148C516.456 711.404 514.033 735.974 513.709 760.331C513.455 779.489 516.924 804.959 536.221 814.424C537.395 815 538.454 815.268 539.718 814.851L540.134 814.002C538.834 812.302 535.785 811.88 533.141 809.786C529.064 806.556 527.108 803.882 524.046 799.728C537.012 800.079 564.621 805.657 564.023 820.984C563.169 842.827 512.271 842.607 499.374 842.474C489.542 841.919 468.581 838.953 460.859 833.398C427.867 809.664 485.592 801.532 500.308 798.624Z" fill="#E6DFD5"/>
<path d="M341.275 684.228C341.409 683.336 341.423 681.818 342.034 681.531C348.21 678.626 366.166 679.837 372.12 680.706C395.27 684.083 423.417 703.22 445.649 704.069L446.933 708.903C428.952 708.92 410.816 709.806 392.845 709.571C389.033 709.521 384.82 707.376 380.783 706.963C367.261 705.58 354.766 704.963 341.23 706.063C341.351 698.707 341.492 691.58 341.275 684.228Z" fill="#E6DFD5"/>
<path d="M319.453 693.642C325.143 691.12 329.528 684.552 334.703 680.953C336.132 679.959 336.837 680.525 338.557 680.984C338.659 688.759 338.594 696.749 339.395 704.457C339.47 705.181 339.437 705.041 339.397 705.938C334.679 707.426 329.923 707.671 324.917 709.835C322.249 709.032 322.362 707.748 320.536 705.833L320.021 705.3C319.609 701.221 319.536 697.754 319.453 693.642Z" fill="#E6DFD5"/>
<path d="M668.692 725.551C663.027 725.614 656.82 725.256 650.676 724.228C643.138 722.966 600.766 712.507 600.928 704.446C601.185 691.698 631.734 687.02 642.255 686.199C661.597 683.94 686.807 689.146 703.183 700.075C707.97 703.271 711.497 708.236 706.385 713.167C696.67 722.538 681.698 725.318 668.692 725.551Z" fill="#E6DFD5"/>
<path d="M279.033 687.519C281.428 686.745 284.129 686.801 286.684 686.684C289.639 699.578 293.518 713.405 297.06 726.217L296.846 726.902C296.184 729.061 295.221 731.791 296.375 733.896C299.811 739.013 311.357 742.557 317.068 743.334C341.092 746.601 372.367 748.533 393.845 735.854C395.536 734.855 398.659 731.576 399.452 731.293C399.811 732.744 399.671 732.615 398.805 734.156C394.082 742.556 376.799 746.853 367.175 747.978C345.974 749.977 319.48 753.697 300.04 743.544C298.81 742.902 296.671 740.396 296.137 739.189C288.941 722.923 284.776 704.134 279.033 687.519Z" fill="#FCEA8E"/>
<path d="M289.512 688.768C290.554 688.667 292.82 688.684 293.954 688.66C294.689 691.92 301.016 719.447 300.884 720.603C299.907 721.802 299.951 722.191 298.742 722.533C296.935 718.906 290.777 694.105 289.512 688.768Z" fill="#FCEA8E"/>
<path d="M296.684 691.511C298.872 690.328 299.23 690.304 301.708 689.738C303.542 698.375 305.205 707.607 306.557 716.343C305.157 717.382 303.523 718.535 302.229 719.659C300.687 710.83 298.779 700.146 296.684 691.511Z" fill="#FCEA8E"/>
<path d="M303.689 690.301L308.674 690.203C309.13 693.004 311.558 710.318 312.786 711.299L313.483 712.091L307.874 715.381C307.186 707.512 305.203 698.208 303.689 690.301Z" fill="#FCEA8E"/>
<path d="M310.443 691.302C313.251 691.124 313.872 691.175 316.654 691.639C317.079 697.937 317.48 704.337 317.594 710.649C316.591 711.006 314.42 711.843 313.484 712.09L312.787 711.298C312.392 704.453 311.46 698.055 310.443 691.302Z" fill="#FCEA8E"/>
<path d="M727.07 692.03C748.667 691.991 765.667 691.665 786.844 696.51C782.133 704.167 778.773 712.648 774.786 720.902C766.829 737.372 755.212 750.655 740.133 760.981C736.165 763.697 731.738 765.127 728.124 767.324C724.291 751.622 719.127 735.004 714.994 719.077C716.118 716.533 718.489 714.179 719.998 710.714C722.699 704.509 724.605 698.341 727.07 692.03Z" fill="#FCEA8E"/>
<path d="M705.881 698.615C706.556 697.941 707.304 697.567 708.128 697.055L710.251 699.03C711.602 701.012 712.046 701.657 714.186 702.872C713.91 704.466 713.668 705.795 713.588 707.426C713.471 709.826 714.927 714.486 713.86 716.361L712.316 717.198C712.419 714.032 712.497 713.289 711.687 710.145C711.205 704.361 709.753 702.67 705.881 698.615Z" fill="#B9FBC0"/>
<path d="M888.623 718.11C871.061 723.535 849.772 724.335 831.496 723.372C826.466 723.107 794.421 721.059 792.011 718.237C789.793 715.639 789.544 710.936 790.022 707.72C790.444 704.883 791.379 703.198 793.687 701.531C802.31 701.43 811.018 703.623 819.513 704.842C837.121 707.369 854.671 706.949 872.244 704.395C878.096 703.544 884.49 701.777 890.317 701.973C891.09 702.265 892.271 703.586 892.465 704.24C893.796 708.728 893.626 715.803 888.623 718.11Z" fill="#FDE4CF"/>
<path d="M320.021 705.301L320.536 705.834C322.362 707.749 322.249 709.033 324.917 709.836C325.383 710.198 326.164 711.007 326.735 710.898C346.273 707.162 365.654 707.043 385.325 710.422C403.249 713.019 403.141 730.692 387.355 736.845C365.185 745.484 330.357 745.529 307.866 738.494C286.466 731.8 307.301 716.997 318.675 713.249L319.357 713.031C319.653 710.415 319.835 707.921 320.021 705.301Z" fill="#FCEA8E"/>
<path d="M519.115 710.557C533.97 710.535 548.297 710.268 563.118 709.719C569.721 709.413 576.589 709.435 583.221 709.371C582.817 716.078 582.294 722.771 581.788 729.471L538.956 729.266L517.867 729.399C518.157 723.238 518.699 716.737 519.115 710.557Z" fill="#90DBF4"/>
<path d="M450.314 711.635C466.432 711.093 483.137 711.782 499.489 711.229C500.68 711.232 500.143 711.055 501.101 711.758C501.805 714.826 501.556 725.5 501.548 729.36C486.223 729.479 470.977 730.035 455.67 730.381C455.412 730.187 455.154 729.993 454.895 729.798L450.314 711.635Z" fill="#E6DFD5"/>
<path d="M603.473 711.859C631.253 725.765 690.311 740.915 711.686 710.145C712.496 713.289 712.418 714.032 712.315 717.198C711.333 718.051 709.177 723.779 706.694 725.729C681.399 745.592 623.789 731.837 603.473 711.859Z" fill="#98F5E1"/>
<path d="M397.736 712.764C407.992 712.053 419.85 712.007 430.232 711.724C435.789 711.53 441.591 711.606 447.169 711.599C449.208 718.067 450.75 723.858 452.425 730.438C442.636 730.213 429.934 730.363 420.218 730.916L403.011 731.448C402.928 722.835 403.417 719.33 397.736 712.764Z" fill="#E6DFD5"/>
<path d="M799.105 722.257C831.54 726.508 852.329 727.623 884.389 721.656C885.144 721.71 884.778 721.575 885.432 722.196C883.472 739.726 879.198 763.977 873.441 780.464C868.527 794.534 827.915 791.418 816.526 785.5C814.778 782.235 814.062 779.619 812.944 776.099C807.72 758.253 803.453 740.326 799.105 722.257Z" fill="#FDE4CF"/>
<path d="M725.757 769.476C710.679 777.469 689.751 783.935 672.631 783.476C670.301 768.756 666.038 752.303 662.186 737.876C679.628 738.59 701.379 738.069 712.574 722.332C717.224 737.505 721.813 754.111 725.757 769.476Z" fill="#FCEA8E"/>
<path d="M627.018 729.491C624.254 729.583 620.299 730.202 618.195 728.978C617.566 727.219 617.936 727.327 618.518 725.105C620.27 725.9 626.358 728.303 627.018 729.491Z" fill="#8EECF5"/>
<path d="M617.115 731.93C625.334 731.523 631.114 731.157 639.023 733.33C638.283 741.844 637.398 762.625 638.069 770.677C640.133 773.436 641.27 775.302 644.625 776.423C644.352 780.878 642.383 790.784 642.666 793.352L643.282 794.006C643.697 793.958 644.928 793.842 645.288 793.753C654.062 792.434 662.36 791.868 671.201 791.238C672.488 797.462 678.327 824.247 678.385 829.353C678.167 830.452 677.734 834.112 677.383 834.607C677.2 834.637 677.011 834.642 676.833 834.697C674.014 835.56 667.567 842.72 664.808 844.988C656.686 851.666 647.651 857.631 638.164 862.192C577.77 891.226 463.284 916.931 399.477 889.622C390.072 885.597 381.969 880.544 373.955 874.236L374.241 873.764C380.118 866.05 382.174 861.37 385.081 852.929C388.031 844.359 404.626 795.324 409.61 791.943C411.118 796.772 413.935 807.307 416.973 810.815L417.589 810.585C417.795 806.173 413.654 795.608 412.065 790.983C414.315 788.411 423.024 762.942 422.365 759.686C418.531 758.046 409.768 759.41 404.878 759.314L404.338 759.299C402.955 750.766 402.106 743.218 402.018 734.55C407.61 734.176 449.083 732.6 452.259 733.613C453.014 734.504 453.16 734.679 453.652 735.699L454.021 736.478L455.106 736.717C458.069 734.825 454.398 736.252 456.274 733.506C467.197 732.088 489.331 732.422 501.672 732.069C502.288 747.058 504.042 783.163 500.824 796.096C485.29 800.141 467.533 799.905 453.957 810.171C447.08 815.371 446.53 824.402 452.496 830.349C462.909 840.728 483.091 844.234 497.283 844.88C518.133 845.654 544.558 845.195 561.68 831.844C568.553 826.485 568.03 815.685 561.916 809.87C551.391 799.858 536.708 797.587 522.798 797.256C514.102 777.991 516.117 752.736 517.53 731.943L581.498 731.817C581.145 734.235 580.301 736.379 582.165 738.183L583.081 737.749C584.383 735.923 584.173 734.009 584.296 731.672C594.062 731.566 604.35 731.778 614.193 731.775C611.207 746.436 607.408 761.277 603.642 775.766C601.3 784.776 599.205 796.23 596.421 804.886C595.479 795.138 594.92 785.071 593.939 775.32C593.473 770.681 594.021 761.617 592.384 757.797L591.51 758.424L592.119 757.609L592.404 757.898L591.488 758.427C589.486 764.583 593.897 797.088 593.589 805.055C593.526 806.682 593.88 810.716 595.301 811.991L596.133 811.738C597.239 810.363 598.109 808.641 598.548 806.931C604.95 782.045 611.155 756.907 617.115 731.93Z" fill="#E6DFD5"/>
<path d="M639.024 733.328C641.319 734.013 643.753 734.789 646.057 735.388C645.421 747.824 645.961 764.891 644.626 776.421C641.271 775.3 640.134 773.434 638.07 770.675C637.399 762.623 638.284 741.842 639.024 733.328Z" fill="#FCEA8E"/>
<path d="M647.568 777.965C648.96 763.689 647.981 749.478 649.443 735.738C652.687 736.238 655.947 736.721 659.18 737.277C663.044 751.574 666.135 765.549 669.296 779.994C661.764 779.087 655.144 778.304 647.568 777.965Z" fill="#FCEA8E"/>
<path d="M376.911 757.163C376.862 756.718 376.833 756.105 376.699 755.711L377.388 754.49L376.98 754.091C383.655 757.38 394.152 746.727 399.454 743.512C400.16 748.69 400.83 753.975 401.594 759.135C396.571 759.402 381.739 758.15 376.911 757.163Z" fill="#FDE4CF"/>
<path d="M376.622 750.604C376.205 750.833 376.516 750.701 375.611 750.66L375.404 749.84C375.613 749.656 388.973 745.168 391.251 744.094L391.759 744.2C388.876 747.377 380.86 751.93 376.622 750.604Z" fill="#FDE4CF"/>
<path d="M349.575 767.001L349.559 752.575C358.518 751.708 366.162 750.791 375.031 749.48C370.357 752.413 352.973 763.087 350.225 767.121L349.575 767.001Z" fill="#FCEA8E"/>
<path d="M347.091 762.652C343.83 763.057 329.317 754.718 326.133 752.551C331.537 752.162 341.285 752.474 347.019 752.471C346.737 756.287 347.877 759.955 347.091 762.652Z" fill="#FCEA8E"/>
<path d="M404.34 759.297L404.88 759.312C409.77 759.408 418.533 758.044 422.367 759.684C423.026 762.94 414.317 788.409 412.067 790.981C408.571 778.657 406.604 771.909 404.34 759.297Z" fill="#FCEA8E"/>
<path d="M301.753 774.79L300.525 774.534L300.283 773.424C301.661 770.261 313.632 761.635 316.872 759.855L318.282 760.102L318.438 760.667C316.737 764.037 305.239 772.32 301.753 774.79Z" fill="black"/>
<path d="M647.568 777.965C655.144 778.304 661.764 779.087 669.296 779.994L670.662 787.619C666.498 788.451 649.92 791.121 646.507 789.945L646.193 789.097C646.792 785.18 647.228 781.907 647.568 777.965Z" fill="#E6DFD5"/>
<path d="M646.194 789.095L646.508 789.943C649.921 791.119 666.499 788.449 670.663 787.617L671.202 791.236C662.361 791.866 654.063 792.432 645.289 793.751L646.194 789.095Z" fill="#FDE4CF"/>
<path d="M373.955 874.234C381.969 880.542 390.072 885.595 399.477 889.62C463.284 916.929 577.77 891.224 638.164 862.19C647.651 857.629 656.686 851.664 664.808 844.986C667.567 842.718 674.014 835.558 676.833 834.695C677.011 834.64 677.2 834.635 677.383 834.605C672.942 841.357 658.644 855.031 651.651 859.107C624.536 874.909 582.174 888.624 551.718 895.21C501.273 906.118 427.627 914.239 381.928 884.958C378.19 882.564 374.912 879.856 372.328 876.218L373.955 874.234Z" fill="#FDE4CF"/>
<defs>
<linearGradient id="paint0_linear_2252_13069" x1="350.277" y1="453.703" x2="276.491" y2="533.589" gradientUnits="userSpaceOnUse">
<stop stop-color="#C0EDF9"/>
<stop offset="1" stop-color="#BBD8FF"/>
</linearGradient>
</defs>
</svg>
