<svg width="1024" height="1024" viewBox="0 0 1024 1024" fill="none" xmlns="http://www.w3.org/2000/svg">
<path d="M438.369 174.559C473.579 132.719 508.77 107.171 565.292 102.517C640.281 96.3417 722.094 144.588 755.263 211.768C759.489 220.393 763.776 228.232 766.077 237.624C771.032 252.738 771.76 266.522 774.607 281.626C745.653 284.977 717.933 295.257 693.795 311.596C689.865 314.238 679.869 321.918 676.827 325.405C658.531 321.708 640.621 318.637 622.497 314.111C622.064 298.161 621.931 282.205 622.098 266.251C621.219 264.729 616.675 263.78 614.809 263.245C610.427 261.794 593.373 256.349 589.559 256.19C579.686 255.779 564.27 257.725 553.978 258.529C548.83 244.395 541.734 234.77 526.87 230.838C523.927 227.172 518.472 222.407 514.999 219.083C497.395 202.234 478.166 191.11 456.017 181.333C452.312 179.697 440.173 176.188 438.369 174.559Z" fill="#FBF8CC"/>
<path d="M155.467 530.588C152.633 527.613 140.727 508.468 138.481 504.398C108.036 449.245 76.3537 381.63 101.856 318.443C111.293 295.061 131.744 270.062 152.001 255.433C164.563 246.36 177.918 238.531 191.706 231.466C244.513 203.2 324.559 170.941 384.332 168.492C395.438 168.011 406.564 168.701 417.526 170.549C424.434 171.755 431.237 173.551 438.161 174.647C436.632 178.2 432.601 183.875 430.382 187.382C426.142 193.979 422.241 200.788 418.695 207.783C403.243 238.663 394.862 275.299 391.944 309.529C391.571 313.909 390.723 323.362 391.271 327.467C365.894 329.343 340.41 332.048 314.988 334.11C302.666 335.109 288.358 335.946 276.181 338.002C272.031 338.703 267.457 341.627 264.677 344.902C262.311 347.658 260.736 351.004 260.118 354.583C259.099 360.2 259.295 373.216 259.165 379.516C258.601 406.928 260.874 434.576 261.173 461.921C255.942 457.145 253.769 457.549 246.703 457.536C244.347 455.479 242.416 453.486 239.335 452.599C227.836 449.291 225.742 464.879 216.005 466.479C209.931 467.478 204.401 459.457 199.486 465.563C195.05 471.142 193.685 481.437 192.416 488.289C184.569 488.081 181.91 488.928 179.489 497.053C175.28 501.226 159.955 524.082 155.467 530.588Z" fill="#FFCFD2"/>
<path d="M438.161 174.647L438.37 174.559C440.174 176.188 452.313 179.697 456.018 181.333C478.167 191.11 497.396 202.234 515 219.083C518.473 222.407 523.928 227.172 526.871 230.838C522.425 230.933 521.033 231.042 516.628 231.927C503.498 222.914 488.743 232.864 481.432 244.36C477.202 251.011 474.66 258.699 472.961 266.359C470.859 266.68 467.944 267.031 465.933 267.473C459.389 267.873 450.344 268.915 443.837 269.714C438.882 270.322 417.074 271.835 414.625 274.18C412.473 279.877 415.458 321.465 413.681 325.295L411.476 325.837L391.271 327.467C390.723 323.362 391.571 313.909 391.944 309.529C394.862 275.299 403.243 238.663 418.695 207.783C422.241 200.788 426.142 193.979 430.382 187.382C432.601 183.875 436.632 178.2 438.161 174.647Z" fill="#FDE4CF"/>
<path d="M516.629 231.93C521.034 231.045 522.426 230.936 526.872 230.841C541.736 234.773 548.832 244.398 553.98 258.532C564.272 257.728 579.688 255.782 589.561 256.193C593.375 256.352 610.429 261.797 614.811 263.248C615.455 264.873 615.333 263.984 614.617 266.052L614.323 265.398C609.423 263.199 593.689 258.358 588.398 258.202C578.257 257.904 565.439 259.643 555.107 260.61C555.763 264.026 556.696 268.258 556.945 271.653C555.816 271.525 556.204 271.584 555.136 271.02C554.475 267.751 553.812 264.074 552.971 260.881C544.958 261.465 536.95 262.125 528.949 262.863C528.929 266.266 528.45 270.135 529.521 273.107C530.947 274.329 530.72 273.912 533.165 273.95L533.604 274.283C532.16 274.536 531.319 274.555 530.004 275.158C531.178 275.385 532.354 275.606 533.531 275.821C530.963 276.104 531.279 275.695 529.444 277.001C528.376 279.428 529.224 281.556 528.924 284.293C527.341 283.031 529.046 279.787 527.738 276.643C524.674 276.502 502.641 278.673 500.4 279.525L498.487 279.547C491.432 279.714 481.03 281.214 473.484 281.85L471.936 282.532L471.452 282.4C472.703 281.357 472.99 280.547 474.416 279.584C480.851 279.464 491.562 277.933 498.47 277.393L498.038 265.968C490.19 266.743 482.355 267.645 474.535 268.672C474.158 272.474 474.032 275.656 473.925 279.484L472.047 278.955C471.961 275.822 472.895 271.044 472.022 268.603L472.203 268.007L473.408 267.463L472.811 268.032L473.976 267.466L473.296 267.138C471.507 268.241 468.151 267.672 465.934 267.476C467.945 267.034 470.86 266.683 472.962 266.362C474.661 258.702 477.203 251.014 481.433 244.363C488.744 232.867 503.499 222.917 516.629 231.93ZM502.397 230.598C485.375 236.222 478.908 249.711 474.744 266.229C478.65 265.884 482.802 265.591 486.67 265.083L497.963 263.968C499.371 251.621 502.029 242.269 512.269 234.289C512.973 233.741 513.695 233.217 514.433 232.718C509.622 230.704 507.693 230.276 502.397 230.598ZM519.416 233.221L519.131 234.193C525.619 242.583 527.816 250.366 528.811 260.848C535.732 260.278 542.643 259.605 549.543 258.828L550.928 258.544C551.508 257.425 551.321 256.559 550.8 255.365C544.876 241.82 535.182 231.309 519.416 233.221ZM516.103 234.345C507.6 240.041 503.109 246.236 501.124 256.487C500.64 258.934 500.319 261.409 500.163 263.898L510.12 262.896L527.071 261.006C526.127 254.495 522.959 237.296 516.103 234.345ZM521.313 263.7C514.245 264.436 507.118 265.228 500.048 265.881C500.068 269.556 500.023 273.465 500.201 277.114L507.621 276.393C514.164 275.692 520.95 274.871 527.483 274.295C527.447 270.607 527.494 266.844 527.048 263.191C525.927 263.288 522.213 263.518 521.313 263.7Z" fill="#642C14"/>
<path d="M474.742 266.228C478.906 249.71 485.373 236.221 502.395 230.597C507.691 230.275 509.62 230.703 514.431 232.717C513.693 233.216 512.971 233.74 512.267 234.288C502.027 242.268 499.369 251.62 497.961 263.967L486.668 265.082C482.8 265.59 478.648 265.883 474.742 266.228Z" fill="#FDE4CF"/>
<path d="M528.811 260.844C527.816 250.362 525.619 242.579 519.131 234.189L519.416 233.217C535.182 231.305 544.876 241.816 550.8 255.361C551.321 256.555 551.508 257.421 550.928 258.54L549.543 258.824C542.643 259.601 535.732 260.274 528.811 260.844Z" fill="#FDE4CF"/>
<path d="M500.162 263.897C500.318 261.408 500.639 258.933 501.123 256.486C503.108 246.235 507.599 240.04 516.102 234.344C522.958 237.295 526.126 254.494 527.07 261.005L510.119 262.895L500.162 263.897Z" fill="#FDE4CF"/>
<path d="M555.105 260.61C565.437 259.643 578.255 257.904 588.396 258.202C593.687 258.358 609.421 263.199 614.321 265.398C609.656 266.578 603.7 266.731 598.887 267.431C585.61 269.361 569.925 269.721 556.943 271.653C556.694 268.258 555.761 264.026 555.105 260.61Z" fill="#FFFFFA"/>
<path d="M552.97 260.879C553.811 264.072 554.474 267.749 555.135 271.018C552.692 273.146 537.434 272.931 533.164 273.948C530.719 273.91 530.946 274.327 529.52 273.105C528.449 270.133 528.928 266.264 528.948 262.861C536.949 262.123 544.957 261.463 552.97 260.879Z" fill="#FFFFFA"/>
<path d="M500.047 265.878C507.117 265.225 514.244 264.433 521.312 263.697C522.212 263.515 525.926 263.285 527.047 263.188C527.493 266.841 527.446 270.604 527.482 274.292C520.949 274.868 514.163 275.688 507.62 276.389L500.2 277.111C500.022 273.462 500.067 269.553 500.047 265.878Z" fill="#FFFFFA"/>
<path d="M614.615 266.05C615.331 263.982 615.453 264.871 614.809 263.246C616.675 263.781 621.219 264.73 622.098 266.252L619.985 267.428L615.645 267.546L614.615 266.05Z" fill="#4D2B24"/>
<path d="M614.323 265.395L614.617 266.049L615.647 267.545L615.149 267.632C608.438 268.764 591.867 269.69 586.611 271.309C585.825 272.869 585.998 273.846 586.009 275.594C585.78 274.616 585.511 272.555 584.935 272.064C584.79 273.971 584.778 276.065 584.095 277.819L583.955 271.269C576.289 271.658 565.121 272.702 557.543 273.815L555.875 274.243C551.347 273.777 538.917 275.621 533.531 275.818C532.354 275.603 531.178 275.382 530.004 275.155C531.319 274.552 532.16 274.533 533.604 274.28L533.165 273.947C537.435 272.93 552.693 273.145 555.136 271.017C556.204 271.581 555.816 271.522 556.945 271.65C569.927 269.718 585.612 269.358 598.889 267.428C603.702 266.728 609.658 266.575 614.323 265.395Z" fill="#612D21"/>
<path d="M473.924 279.481C474.031 275.653 474.157 272.471 474.534 268.669C482.354 267.642 490.189 266.74 498.037 265.965L498.469 277.39C491.561 277.93 480.85 279.461 474.415 279.581L473.924 279.481Z" fill="#FFFFFA"/>
<path d="M414.625 274.182C417.074 271.837 438.882 270.324 443.837 269.716C450.344 268.917 459.389 267.875 465.933 267.475C468.15 267.671 471.506 268.24 473.295 267.137L473.975 267.465L472.81 268.031L473.407 267.462L472.202 268.006L472.021 268.602C463.745 270.08 451.721 271.133 443.123 271.991C435.613 272.741 426.233 274.111 418.955 274.676C417.779 275.579 417.04 276.305 415.615 276.716C415.399 275.328 415.363 275.401 414.625 274.182Z" fill="#4D2B24"/>
<path d="M619.986 267.43L622.099 266.254C621.932 282.208 622.065 298.164 622.498 314.114C640.622 318.64 658.532 321.711 676.828 325.408L743.794 339.707C753.102 341.725 763.104 344.52 772.225 346.303C777.359 347.502 782.272 347.963 785.39 352.275L785.574 353.346C784.171 356.5 784.883 358.037 784.05 361.23L783.998 353.322C756.736 356.614 728.527 361.771 701.444 364.741C700.483 363.365 698.131 363.626 696.455 363.487C699.343 362.72 712.07 361.242 715.731 360.727L755.885 355.085C763.357 354.034 773.892 352.835 781.042 351.078C758.04 344.932 731.965 339.415 708.683 334.447L622.513 316.484L622.533 354.328L495.101 372.389C483.835 374.069 472.581 375.835 461.342 377.685C435.526 381.905 439.311 382.572 415.21 371.682C414.77 361.816 414.878 351.708 414.541 341.838C414.414 338.104 414.665 331.421 414.016 328.091C412.822 327.354 412.82 327.661 411.086 327.808L411.298 326.979L413.604 326.43L411.476 325.84L413.681 325.298C415.458 321.468 412.473 279.88 414.625 274.183C415.363 275.402 415.399 275.329 415.615 276.717L415.62 277.191C415.858 307.322 416.248 340.135 417.582 370.134C421.055 371.831 435.103 378.585 438.103 378.349L438.568 378.077L440.179 378.874C500.183 369.337 560.302 360.544 620.524 352.496L619.986 267.43Z" fill="url(#paint0_linear_2252_19470)"/>
<path d="M586.008 275.597C585.997 273.849 585.824 272.872 586.61 271.312C591.866 269.693 608.437 268.767 615.148 267.635L615.646 267.548L619.986 267.43L620.524 352.496C560.302 360.544 500.183 369.337 440.179 378.874C440.707 373.461 439.985 354.932 439.882 348.762C439.651 327.575 439.2 306.391 438.527 285.213C448.78 284.489 461.572 282.543 471.451 282.4L471.935 282.532C471.814 287.069 470.377 302.478 472.033 305.692L472.704 305.738C474.232 303.501 474.259 302.215 474 299.575C473.424 293.707 473.81 287.683 473.483 281.85C481.029 281.214 491.431 279.714 498.486 279.547L498.543 280.328C498.877 285.202 497.168 301.303 498.695 303.691L499.763 303.829C502.217 301.06 500.395 284.844 500.399 279.525C502.64 278.673 524.673 276.502 527.737 276.643C527.113 281.861 525.708 294.554 526.946 299.072L527.659 299.423C528.393 298.991 529.381 298.557 529.392 297.521C529.437 293.414 529.374 288.283 528.923 284.293C529.223 281.556 528.375 279.428 529.443 277.001C531.278 275.695 530.962 276.104 533.53 275.821C538.916 275.624 551.346 273.78 555.874 274.246C556.272 278.319 555.043 292.359 557.276 294.493L558.029 294.129C559.157 291.049 557.835 277.678 557.542 273.818C565.12 272.705 576.288 271.661 583.954 271.272L584.094 277.822C583.813 281.458 582.847 288.452 584.581 291.382L585.353 291.217C587.307 287.357 586.325 280.025 586.008 275.597Z" fill="#FFFFFA"/>
<path d="M418.955 274.676C426.233 274.111 435.613 272.741 443.123 271.991C451.721 271.133 463.745 270.08 472.021 268.602C472.894 271.043 471.96 275.821 472.046 278.954L471.515 279.676C465.349 281.168 453.885 281.392 447.282 282.357C445.612 282.601 439.075 283.007 437.758 282.776C433.769 282.079 421.888 277.128 418.955 274.676Z" fill="#FFFFFA"/>
<path d="M584.094 277.821C584.777 276.067 584.789 273.973 584.934 272.066C585.51 272.557 585.779 274.618 586.008 275.596C586.325 280.024 587.307 287.356 585.353 291.216L584.581 291.381C582.847 288.451 583.813 281.457 584.094 277.821Z" fill="#4D2B24"/>
<path d="M555.875 274.244L557.543 273.816C557.836 277.676 559.158 291.047 558.03 294.127L557.277 294.491C555.044 292.357 556.273 278.317 555.875 274.244Z" fill="url(#paint1_linear_2252_19470)"/>
<path d="M415.615 276.716C417.04 276.305 417.779 275.579 418.955 274.676C421.888 277.128 433.769 282.079 437.758 282.776C439.075 283.007 445.612 282.601 447.282 282.357C453.885 281.392 465.349 281.168 471.515 279.676L472.046 278.954L473.924 279.483L474.415 279.583C472.989 280.546 472.702 281.356 471.451 282.399C461.572 282.542 448.78 284.488 438.527 285.212C439.2 306.39 439.651 327.574 439.882 348.761C439.985 354.931 440.707 373.46 440.179 378.873L438.568 378.076C437.5 353.298 437.69 328.413 437.1 303.619C436.951 297.372 436.925 291.277 436.434 285.039C431.184 282.773 421.597 278.311 416.486 276.691L415.62 277.19L415.615 276.716Z" fill="#612D21"/>
<path d="M415.619 277.19L416.485 276.691C421.596 278.311 431.183 282.773 436.433 285.039C436.924 291.277 436.95 297.372 437.099 303.619C437.689 328.413 437.499 353.298 438.567 378.076L438.102 378.348C435.102 378.584 421.054 371.83 417.581 370.133C416.247 340.134 415.857 307.321 415.619 277.19Z" fill="#FFFFFA"/>
<path d="M527.738 276.641C529.046 279.785 527.341 283.029 528.924 284.291C529.375 288.281 529.438 293.412 529.393 297.519C529.382 298.555 528.394 298.989 527.66 299.421L526.947 299.07C525.709 294.552 527.114 281.859 527.738 276.641Z" fill="#4D2B24"/>
<path d="M498.487 279.545L500.4 279.523C500.396 284.842 502.218 301.058 499.764 303.827L498.696 303.689C497.169 301.301 498.878 285.2 498.544 280.326L498.487 279.545Z" fill="#612D21"/>
<path d="M774.607 281.629C810.492 278.296 843.128 284.848 871.904 308.198C897.878 329.275 921.962 370.443 925.22 404.022C928.675 439.623 920.255 473.607 912.659 508.032C908.947 524.859 906.171 541.907 901.477 558.755C897.454 557.211 881.062 550.271 878.104 547.979C880.247 544.095 880.8 542.193 881.728 537.993C880.728 534.309 877.43 530.891 877.045 527.229C876.427 521.359 891.089 510.684 890.405 496.877C890.212 492.992 888.785 488.914 885.78 486.325C880.621 481.882 871.486 486.459 865.598 486.797C850.779 487.645 857.556 469.11 849.84 462.72C844.959 458.678 837.87 460.915 832.228 458.964C828.615 457.716 823.751 453.515 819.902 454.133C812.753 455.28 815.256 464.301 811.649 468.588C807.743 469.855 806.468 464.767 800.508 462.936C797.979 462.146 795.231 462.501 792.984 463.907C786.763 467.72 784.636 476.077 783.01 482.606C779.517 484.803 775.858 485.994 772.282 488.454C771.699 488.628 772.095 488.538 771.07 488.561L770.547 487.088C771.08 483.646 771.064 468.944 771.226 464.272C771.849 448.71 772.626 433.155 773.558 417.608C778.635 416.511 782.053 415.557 786.007 411.92C793.904 404.766 794.196 389.674 786.405 382.375C779.236 375.658 763.981 370.059 754.318 370.298C759.052 369.489 779.917 367.746 783.843 368.386C784.136 368.667 783.907 368.494 784.684 368.564C786.139 366.779 785.594 356.247 785.573 353.345L785.389 352.274C782.271 347.962 777.358 347.501 772.224 346.302C776.498 332.541 777.242 296.339 774.607 281.629Z" fill="#8EECF5"/>
<path d="M676.828 325.407C679.87 321.92 689.866 314.241 693.796 311.599C717.934 295.26 745.654 284.98 774.608 281.629C777.243 296.339 776.499 332.541 772.225 346.302C763.104 344.519 753.102 341.724 743.794 339.706L676.828 325.407Z" fill="#B9FBC0"/>
<path d="M471.936 282.53L473.484 281.848C473.811 287.681 473.425 293.705 474.001 299.573C474.26 302.213 474.233 303.499 472.705 305.736L472.034 305.69C470.378 302.476 471.815 287.067 471.936 282.53Z" fill="#612D21"/>
<path d="M264.285 349.795C264.6 348.101 264.889 347.63 266.057 346.265C268.52 343.36 271.829 341.298 275.522 340.368C281.369 338.883 289.759 338.366 295.936 337.828L323.71 335.463L411.085 327.804C412.819 327.657 412.821 327.35 414.015 328.087C414.664 331.417 414.413 338.1 414.54 341.834C414.877 351.704 414.769 361.812 415.209 371.678C439.31 382.568 435.525 381.901 461.341 377.681C472.58 375.831 483.834 374.065 495.1 372.385L622.532 354.324L622.512 316.48L708.682 334.443C731.964 339.411 758.039 344.928 781.041 351.074C773.891 352.831 763.356 354.03 755.884 355.081L715.73 360.723C712.069 361.238 699.342 362.716 696.454 363.483C692.245 363.541 677.49 365.971 672.853 366.633L624.962 373.463C584.465 379.47 543.891 384.948 503.251 389.897C443.302 397.414 402.281 404.688 342.842 386.572C321.924 380.196 303.646 374.275 283.764 363.424C275.948 359.158 271.181 354.374 264.285 349.795Z" fill="#FFFFFA"/>
<path d="M391.272 327.47L411.477 325.84L413.605 326.43L411.299 326.979L411.087 327.808L323.712 335.467L295.938 337.832C289.761 338.37 281.371 338.887 275.524 340.372C271.831 341.302 268.522 343.364 266.059 346.269C264.891 347.634 264.602 348.105 264.287 349.799L263.131 351.151C258.518 363.393 263.156 449.66 263.683 468.985L264.272 492.557C264.334 495.181 264.659 501.827 264.431 504.219C263.665 507.745 264.416 513.095 263.718 514.779C263.434 513.956 263.153 513.158 262.893 512.328C262.445 510.689 262.517 504.359 262.377 502.262C261.77 493.159 262.563 480.654 261.603 471.902L260.951 472.42L259.932 472.211L259.776 471.458C260.032 469.364 261.439 462.95 261.174 461.924C260.875 434.579 258.602 406.931 259.166 379.519C259.296 373.219 259.1 360.203 260.119 354.586C260.737 351.007 262.312 347.661 264.678 344.905C267.458 341.63 272.032 338.706 276.182 338.005C288.359 335.949 302.667 335.112 314.989 334.113C340.411 332.051 365.895 329.346 391.272 327.47Z" fill="#502324"/>
<path d="M264.287 349.797C271.183 354.376 275.95 359.16 283.766 363.426C303.648 374.277 321.926 380.198 342.844 386.574C402.283 404.69 443.304 397.416 503.253 389.899C543.893 384.95 584.467 379.472 624.964 373.465L672.855 366.635C677.492 365.973 692.247 363.543 696.456 363.485C698.132 363.624 700.484 363.363 701.445 364.739C676.037 367.723 649.543 372.33 624.03 375.726C568.007 383.184 511.254 391.825 455.1 397.991C434.885 400.361 414.484 400.701 394.201 399.007C358.497 395.806 315.648 382.835 283.838 365.797C277.066 362.17 269.217 356.031 263.131 351.149L264.287 349.797Z" fill="#4D2B24"/>
<path d="M263.13 351.148C269.216 356.03 277.065 362.169 283.837 365.796C315.647 382.834 358.496 395.805 394.2 399.006C414.483 400.7 434.884 400.36 455.099 397.99C511.253 391.824 568.006 383.183 624.029 375.725C649.542 372.329 676.036 367.722 701.444 364.738C728.527 361.768 756.736 356.611 783.998 353.319L784.05 361.227C783.985 363.319 783.789 366.372 783.844 368.384C779.918 367.744 759.053 369.487 754.319 370.296L753.438 370.471C746.489 370.841 736.557 373.51 729.426 374.487C728.291 374.642 723.001 375.312 722.442 375.486C719.621 375.57 717.166 375.501 714.426 376.182C706.161 379.257 692.575 379.728 683.922 381.419C680.858 381.262 680.068 381.152 677.029 381.911C666.258 383.269 653.795 385.205 643.197 387.527L639.906 387.578C636.61 387.367 600.872 391.84 599.2 392.853C595.946 392.336 593.634 392.393 590.439 393.078C585.249 394.274 582.335 394.841 577.228 395.503C572.664 396.095 555.571 397.517 552.267 398.725L550.485 398.975C542.442 399.894 518.336 404.655 512.011 404.342L509.359 404.801C504.018 406.032 478.604 409.409 472.733 409.538L468.14 409.539C467.003 409.603 466.837 409.766 465.719 410.123C459.137 411.659 433.105 411.523 425.158 411.501C399.162 411.772 384.233 410.294 358.811 405.749C357.602 413.527 357.741 421.31 357.471 429.136C356.91 445.359 358.11 463.307 374.519 471.535L374.534 567.989C374.475 580.712 374.856 596.524 374.308 609.058C368.183 607.508 359.17 603.85 353.502 600.863L353.75 464.259C329.766 448.882 300.637 430.126 276.12 416.082C274.312 415.022 274.541 414.715 273.016 415.052C271.477 417.965 271.946 480.043 271.968 488.094C289.605 501.446 306.986 514.793 325.278 527.271C332.786 532.393 343.583 541.112 351.841 544.293C350.839 560.576 351.491 582.886 351.525 599.638C345.732 597.137 341.067 595.301 334.986 593.671C332.367 584.714 324.36 553.23 320.619 546.864C317.58 541.691 307.039 536.071 301.308 534.717C296.793 533.651 280.395 531.542 276.906 534.064C276.001 534.718 268.712 571.349 267.971 575.104C265.2 563.871 265.253 547.992 265.133 536.263C265.11 525.577 264.875 514.893 264.43 504.216C264.658 501.824 264.333 495.178 264.271 492.554L263.682 468.982C263.155 449.657 258.517 363.39 263.13 351.148Z" fill="#FFFFFA"/>
<path d="M784.05 361.228C784.883 358.035 784.171 356.498 785.574 353.344C785.595 356.246 786.14 366.778 784.685 368.563C783.908 368.493 784.137 368.666 783.844 368.385C783.789 366.373 783.985 363.32 784.05 361.228Z" fill="#28191D"/>
<path d="M722.441 375.488C723 375.314 728.29 374.644 729.425 374.489C736.556 373.512 746.488 370.843 753.437 370.473C764.294 376.294 784.358 375.92 789.528 390.601C791.208 395.371 790.291 402.189 787.809 406.564C785.376 410.829 781.299 413.909 776.531 415.084C768.683 417.018 763.014 413.783 758.006 408.102C756.328 398.973 754.493 390.314 746.63 384.293C739.888 379.13 728.058 378.291 722.441 375.488Z" fill="#A3C4F3"/>
<path d="M753.439 370.471L754.32 370.296C763.983 370.057 779.238 375.656 786.407 382.373C794.198 389.672 793.906 404.764 786.009 411.918C782.055 415.555 778.637 416.509 773.56 417.606C772.628 433.153 771.851 448.708 771.228 464.27C771.066 468.942 771.082 483.644 770.549 487.086L770.045 488.89L769.713 488.75C769.749 486.234 769.975 485.488 768.838 483.37C769.575 462.256 770.316 438.775 772.122 417.705C765.085 416.564 762.96 415.761 757.552 410.948C755.589 416.118 754.074 417.534 749.53 420.793C748.529 429.276 748.6 438.655 748.03 447.25C746.592 468.908 746.344 491.611 744.28 513.163C725.719 516.602 706.998 520.743 688.712 524.084C665.432 528.156 642.055 531.647 618.601 534.555C618.406 503.704 618.399 472.853 618.581 442.002C610.493 444.709 605.139 445.386 596.512 445.657L596.61 536.514L594.579 536.276L594.008 537.488C582.604 539.817 563.445 543.138 551.831 544.631C551.86 550.342 552.774 561.99 550.704 566.601C549.726 565.297 549.939 547.572 549.936 544.974C536.663 546.98 521.822 549.662 508.673 551.16C508.711 559.441 508.497 570.04 509.024 578.155L507.976 578.733L507.34 578.123C506.549 564.638 506.975 547.385 506.885 533.623L505.971 461.069C497.13 461.189 495.435 460.733 487.184 457.328C488.259 489.534 488.978 521.751 489.34 553.972C489.533 564.711 489.216 577.746 489.829 588.295C493.921 589.423 495.723 589.563 500.142 589.535L502.825 590.601C505.992 599.94 529.469 681.069 529.21 685.057L528.461 685.394C526.268 683.887 526.16 679.369 525.407 676.756C524.106 672.246 522.935 667.656 521.602 663.15C514.449 639.889 508.509 614.584 501.072 591.591C493.328 591.445 490.707 590.016 482.501 591.756C456.304 597.314 429.708 601.539 403.324 606.155C394.977 607.616 382.762 610.486 374.801 610.982C361.737 607.458 348.758 599.896 335.927 596.203C338.994 607.47 344.021 622 347.52 633.579C340.92 636.318 332.373 638.83 325.504 641.046C316.528 643.99 307.577 647.011 298.652 650.106C286.038 645.425 269.854 639.789 257.66 634.498C259.881 621.97 262.809 609.146 264.567 596.459C265.083 592.738 267.264 581.816 266.903 578.894C266.041 571.923 264.608 565.475 263.874 558.107C259.431 559.206 254.102 559.913 249.504 560.669L250.835 558.153C253.53 559.026 260.941 558.187 262.961 555.81L262.506 555.159C259.12 554.721 254.459 556.381 251.105 557.359C251.143 555.755 251.557 555.268 252.316 553.868C252.45 553.85 252.583 553.833 252.717 553.815C256.377 552.226 259.581 552.09 263.529 551.976C263.44 538.789 262.914 525.649 262.893 512.325C263.153 513.155 263.434 513.953 263.718 514.776C264.416 513.092 263.665 507.742 264.431 504.216C264.876 514.893 265.111 525.577 265.134 536.263C265.254 547.992 265.201 563.871 267.972 575.104C268.713 571.349 276.002 534.718 276.907 534.064C280.396 531.542 296.794 533.651 301.309 534.717C307.04 536.071 317.581 541.691 320.62 546.864C324.361 553.23 332.368 584.714 334.987 593.671C341.068 595.301 345.733 597.137 351.526 599.638C351.492 582.886 350.84 560.576 351.842 544.293L351.639 542.049C351.244 517.315 351.628 490.544 351.888 465.714C341.489 458.674 328.492 451.036 317.73 444.235C303.789 435.426 288.751 425.502 274.54 417.464L276.121 416.082C300.638 430.126 329.767 448.882 353.751 464.259L353.503 600.863C359.171 603.85 368.184 607.508 374.309 609.058C374.857 596.524 374.476 580.712 374.535 567.989L374.52 471.535C358.111 463.307 356.911 445.359 357.472 429.136C357.742 421.31 357.603 413.527 358.812 405.749C384.234 410.294 399.163 411.772 425.159 411.501L425.119 413.232C426.397 419.252 430.621 427.023 431.936 433.142C436.298 453.448 434.706 468.743 461.196 467.924C471.011 467.621 478.377 464.236 485.089 457.053C481.138 444.383 473.292 421.671 465.989 410.616L465.72 410.123C466.838 409.766 467.004 409.603 468.141 409.539C477.257 427.801 480.057 436.506 486.789 455.75C500.346 461.303 525.425 461.992 530.597 445.023C526.279 433.761 517.65 414.616 509.828 405.88L509.36 404.801L512.012 404.342C513.302 406.596 516.47 411.775 518.021 413.976C523.458 421.692 529.826 442.204 535.643 447.679C542.685 454.306 561.82 451.885 569.768 448.043C572.786 446.584 581.713 441.824 580.177 436.575C573.368 420.547 566.08 407.645 550.486 398.975L552.268 398.725C552.482 398.746 553.222 398.804 553.379 398.875C567.558 405.283 574.094 419.997 580.426 433.204C587.995 448.992 612.042 444.322 624.189 437.336C629.984 433.878 631.406 428.692 627.358 423.179C620.326 413.6 613.93 403.143 603.345 397.095C598.975 394.599 595.295 393.926 590.44 393.078C593.635 392.393 595.947 392.336 599.201 392.853C615.634 399.161 621.97 414.961 632.279 427.584C641.56 438.947 661.045 435.545 670.899 426.773C659.418 399.026 669.638 404.485 639.907 387.578L643.198 387.527C652.991 391.522 662.388 397.547 666.225 407.965C669.056 414.683 670.066 426.934 678.486 429.181C702.777 435.662 719.75 424.611 705.45 399.276C699.988 389.6 687.256 384.518 677.03 381.911C680.069 381.152 680.859 381.262 683.923 381.419C689.38 384.491 694.814 386.179 700.17 390.168C709.909 397.424 711.119 408.631 712.666 419.752C722.371 423.378 729.788 424.637 740.06 422.13C747.273 420.369 752.523 417.703 755.849 410.735C755.116 389.479 745.527 382.189 725.431 378.699C722.29 378.154 717.143 377.701 714.427 376.182C717.167 375.501 719.622 375.57 722.443 375.486C728.06 378.289 739.89 379.128 746.632 384.291C754.495 390.312 756.33 398.971 758.008 408.1C763.016 413.781 768.685 417.016 776.533 415.082C781.301 413.907 785.378 410.827 787.811 406.562C790.293 402.187 791.21 395.369 789.53 390.599C784.36 375.918 764.296 376.292 753.439 370.471ZM680.911 431.621C677.728 430.668 675.533 430.074 672.801 428.022C666.219 432.938 660.438 435.522 652.22 436.213C643.561 435.879 639.558 435.629 632.009 430.599C628.723 436.561 626.439 438.585 619.997 441.301C619.958 452.377 619.734 464.154 619.933 475.181C619.643 494.508 620.075 513.765 619.832 533.035C624.457 532.261 629.329 531.642 633.997 531.026C670.632 526.194 706.547 518.566 742.875 511.905C744.658 481.814 746.203 451.709 747.508 421.594C734.274 426.322 725.418 425.765 712.509 421.534C706.398 432.118 696.03 432.695 685.226 432.508L680.911 431.621ZM279.092 540.502L278.535 539.716C277.348 540.292 277.519 540.773 276.84 542.395C277.055 544.486 276.666 543.616 277.887 545.165L280.563 546.164C284.692 547.474 298.78 555.886 301.819 556.329C300.253 551.825 283.341 542.834 279.092 540.502ZM360.274 407.773C359.357 425.396 355.908 450.44 368.144 464.715C373.24 470.661 380.631 469.784 386.575 465.515L391.118 461.824C387.009 452.108 386.911 443.424 385.314 433.147C384.114 425.647 382.22 418.274 379.655 411.124C373.977 410.327 365.693 409.301 360.274 407.773ZM382.136 411.221C384.202 417.79 385.822 424.492 386.985 431.28C388.51 439.973 389.038 450.11 391.928 458.342C397.096 473.061 419.922 472.706 431.24 465.396C433.518 463.618 434.372 462.96 436.351 460.779C433.792 454.19 433.331 448.414 431.981 441.702C430.418 433.926 425.839 419.606 421.771 412.888C406.221 412.919 397.356 412.408 382.136 411.221ZM582.259 438.932C575.68 450.254 563.164 452.864 551.023 453.6C550.363 483.686 552.637 512.82 551.784 542.97L561.402 541.32C570.606 539.629 585.515 536.722 594.576 535.756C594.677 506.353 595.317 474.614 594.591 445.437C589.432 443.876 586.444 442.723 582.259 438.932ZM532.232 447.229C526.455 457.523 518.595 459.493 507.556 460.818C508.132 490.466 508.494 520.118 508.642 549.771C514.149 549.027 519.506 547.958 524.881 547.212C532.569 545.898 542.317 544.039 550.011 543.232C550.151 530.771 550.135 518.31 549.965 505.85C549.597 487.105 548.877 472.504 549.546 453.658C542.168 453.169 538.2 452.083 532.232 447.229ZM485.363 459.457C471.814 470.68 451.677 474.465 437.376 462.336C426.157 473.343 404.575 476.527 393.223 464.546C392.925 464.229 392.632 463.907 392.345 463.58C386.421 467.887 383.818 469.709 376.477 471.217L376.469 551.249L376.521 564.013C395.358 561.888 411.896 559.055 430.334 556.561C449.314 554.038 468.363 552.056 487.456 550.615C486.947 530.734 486.584 510.85 486.366 490.963C486.281 485.091 486.168 464.648 485.363 459.457ZM283.266 535.155C283.599 535.84 284.319 537.18 285.022 537.482C292.282 540.604 311.735 550.591 318.77 551.056C313.035 544.977 301.18 543.516 300.116 536.94C294.975 535.084 288.785 535.305 283.266 535.155ZM278.527 535.397C279.486 541.601 300.646 545.236 305.212 555.637C308.145 554.904 311.005 554.244 313.863 553.248L315.238 552.604C313.962 550.984 307.886 549.7 305.683 548.679C298.564 545.377 291.442 542.023 284.341 538.681C282.399 537.768 280.1 535.979 278.527 535.397ZM301.474 536.868L301.64 538.695C311.2 542.897 310.527 543.073 318.593 548.246C316.528 544.293 305.918 537.046 301.474 536.868ZM275.921 547.324C275.599 548.854 274.995 550.591 275.48 551.969C282.699 555.449 293.869 555.676 301.123 559.47L301.009 558.758L298.875 557.308C291.436 552.283 282.974 550.932 275.921 547.324ZM485.128 552.241C459.393 554.19 433.441 557.867 407.938 561.804C397.535 563.409 386.971 564.727 376.494 565.774C376.436 571.054 375.981 605.348 376.656 608.218C377.949 608.641 378.059 608.462 379.436 608.166C414.539 602.069 453.309 596.516 487.933 588.912C487.865 580.615 487.751 572.318 487.59 564.023C487.549 561.246 487.723 554.708 487.157 552.385C485.926 551.958 486.369 551.983 485.128 552.241ZM320.017 552.632C316.49 554.103 305.299 557.269 303.717 558.489L303.734 559.283C303.747 560.184 303.731 560.604 303.658 561.479C302.1 562.871 302.463 562.047 302.301 563.925L302.704 564.411C309.202 562.499 315.273 559.59 321.767 557.492C321.267 555.796 320.92 554.104 320.017 552.632ZM274.703 554.161C274.286 556.14 273.869 556.44 274.439 558.025C278.375 559.872 295.18 564.304 299.804 565.429C300.071 563.666 300.393 562.682 299.823 560.994C295.634 558.084 281.215 556.405 274.703 554.161ZM321.873 559.524C319.216 560.528 316.569 561.579 313.854 562.408C317.236 588.24 321.447 612.833 324.161 639.101L334.912 635.839C338.732 634.593 341.425 633.741 345.045 632.051C337.549 609.117 330.37 585.971 323.572 562.825C323.224 561.641 322.808 560.344 321.873 559.524ZM273.397 560.177C269.821 574.744 267.766 587.538 265.588 602.353C264.116 612.372 262.584 623.26 259.801 632.912C265.456 635.813 282.234 641.864 288.711 644.03C291.676 645.075 295.167 646.209 298.045 647.356C299.816 623.184 299.515 592.395 299.911 567.913C291.157 564.774 281.839 563.046 273.397 560.177ZM310.881 563.494C307.931 564.708 304.998 565.95 302.003 567.047C301.456 593.572 301.206 620.885 299.974 647.344L310.363 644.044L322.533 639.92C320.072 621.761 315.011 583.802 312.085 563.986C311.878 563.827 311.671 563.667 311.465 563.508L310.881 563.494Z" fill="#28191D"/>
<path d="M683.922 381.421C692.575 379.73 706.161 379.259 714.426 376.184C717.142 377.703 722.289 378.156 725.43 378.701C745.526 382.191 755.115 389.481 755.848 410.737C752.522 417.705 747.272 420.371 740.059 422.132C729.787 424.639 722.37 423.38 712.665 419.754C711.118 408.633 709.908 397.426 700.169 390.17C694.813 386.181 689.379 384.493 683.922 381.421Z" fill="#A3C4F3"/>
<path d="M643.197 387.526C653.795 385.204 666.258 383.268 677.029 381.91C687.255 384.517 699.987 389.599 705.449 399.275C719.749 424.61 702.776 435.661 678.485 429.18C670.065 426.933 669.055 414.682 666.224 407.964C662.387 397.546 652.99 391.521 643.197 387.526Z" fill="#A3C4F3"/>
<path d="M599.199 392.853C600.871 391.84 636.609 387.367 639.905 387.578C669.636 404.485 659.416 399.026 670.897 426.773C661.043 435.545 641.558 438.947 632.277 427.584C621.968 414.961 615.632 399.161 599.199 392.853Z" fill="#A3C4F3"/>
<path d="M552.268 398.725C555.572 397.517 572.665 396.095 577.229 395.503C582.336 394.841 585.25 394.274 590.44 393.078C595.295 393.926 598.975 394.599 603.345 397.095C613.93 403.143 620.326 413.6 627.358 423.179C631.406 428.692 629.984 433.878 624.189 437.336C612.042 444.322 587.995 448.992 580.426 433.204C574.094 419.997 567.558 405.283 553.379 398.875C553.222 398.804 552.482 398.746 552.268 398.725Z" fill="#A3C4F3"/>
<path d="M512.012 404.344C518.337 404.657 542.443 399.896 550.486 398.977C566.08 407.647 573.368 420.549 580.177 436.577C581.713 441.826 572.786 446.586 569.768 448.045C561.82 451.887 542.685 454.308 535.643 447.681C529.826 442.206 523.458 421.694 518.021 413.978C516.47 411.777 513.302 406.598 512.012 404.344Z" fill="#A3C4F3"/>
<path d="M472.733 409.538C478.604 409.409 504.018 406.032 509.359 404.801L509.827 405.88C501.329 407.196 477.851 410.825 470.047 410.262L472.733 409.538Z" fill="#617BAC"/>
<path d="M472.734 409.541L470.048 410.265C477.852 410.828 501.33 407.199 509.828 405.883C517.65 414.619 526.279 433.764 530.597 445.026C525.425 461.995 500.346 461.306 486.789 455.753C480.057 436.509 477.257 427.804 468.141 409.542L472.734 409.541Z" fill="#A3C4F3"/>
<path d="M386.574 465.515C380.63 469.784 373.239 470.661 368.143 464.715C355.907 450.44 359.356 425.396 360.273 407.773C365.692 409.301 373.976 410.327 379.654 411.124C382.219 418.274 384.113 425.647 385.313 433.147C386.91 443.424 387.008 452.108 391.117 461.824L386.574 465.515Z" fill="#D3E0FA"/>
<path d="M425.157 411.503C433.104 411.525 459.136 411.661 465.718 410.125L465.987 410.618C463.194 411.22 460.788 411.362 457.935 411.493C447.036 411.995 436.025 413.116 425.117 413.234L425.157 411.503Z" fill="#4E4D73"/>
<path d="M425.117 413.233C436.025 413.115 447.036 411.994 457.935 411.492C460.788 411.361 463.194 411.219 465.987 410.617C473.29 421.672 481.136 444.384 485.087 457.054C478.375 464.237 471.009 467.622 461.194 467.925C434.704 468.744 436.296 453.449 431.934 433.143C430.619 427.024 426.395 419.253 425.117 413.233Z" fill="#A3C4F3"/>
<path d="M768.836 483.371C768.507 490.361 768.611 501.181 767.546 507.695C765.322 521.303 763.575 529.807 765.827 544.074C752.108 547.075 736.479 549.439 722.463 551.954L654.385 564.58C644.731 566.395 630.593 568.487 621.529 570.706C619.973 567.79 618.225 563.046 617.001 559.935C609.953 560.709 602.954 562.093 595.973 563.359C595.749 562.569 596.59 539.159 596.608 536.515L596.51 445.658C605.137 445.387 610.491 444.71 618.579 442.003C618.397 472.854 618.404 503.705 618.599 534.556C642.053 531.648 665.43 528.157 688.71 524.085C706.996 520.744 725.717 516.603 744.278 513.164C746.342 491.612 746.59 468.909 748.028 447.251C748.598 438.656 748.527 429.277 749.528 420.794C754.072 417.535 755.587 416.119 757.55 410.949C762.958 415.762 765.083 416.565 772.12 417.706C770.314 438.776 769.573 462.257 768.836 483.371Z" fill="#FFFFFA"/>
<path d="M431.239 465.398C419.921 472.708 397.095 473.063 391.927 458.344C389.037 450.112 388.509 439.975 386.984 431.282C385.821 424.494 384.201 417.792 382.135 411.223C397.355 412.41 406.22 412.921 421.77 412.89C425.838 419.608 430.417 433.928 431.98 441.704C433.33 448.416 433.791 454.192 436.35 460.781C434.371 462.962 433.517 463.62 431.239 465.398Z" fill="#A3C4F3"/>
<path d="M276.121 416.082L274.54 417.464C273.804 421.91 273.928 437.389 273.985 442.469C274.15 457.006 273.667 472.717 274.193 487.187C289.905 499.252 305.905 510.937 322.179 522.233C331.366 528.739 341.94 536.751 351.639 542.049L351.842 544.293C343.584 541.112 332.787 532.393 325.279 527.271C306.987 514.793 289.606 501.446 271.969 488.094C271.947 480.043 271.478 417.965 273.017 415.052C274.542 414.715 274.313 415.022 276.121 416.082Z" fill="#4D2B24"/>
<path d="M274.193 487.188C273.667 472.718 274.15 457.007 273.985 442.47C273.928 437.39 273.804 421.911 274.54 417.465C288.751 425.503 303.789 435.427 317.73 444.236C328.492 451.037 341.489 458.675 351.888 465.715C351.628 490.545 351.244 517.316 351.639 542.05C341.94 536.752 331.366 528.74 322.179 522.234C305.905 510.938 289.905 499.253 274.193 487.188ZM289.202 442.32C287.782 443.763 287.399 443.657 287.077 445.284C290.862 451.022 330.915 475.781 336.458 477.073C337.549 475.659 338.042 475.253 338.362 473.48C337.687 470.914 333.267 468.369 330.866 467.228C316.932 460.607 302.94 448.58 289.202 442.32ZM286.561 452.31C285.239 453.637 283.761 455.055 282.533 456.453C285.78 459.561 293.658 464.61 297.715 467.278C309.827 475.243 324.486 486.194 336.914 493.114C338.31 491.953 338.512 491.982 339.048 490.22C337.869 485.741 291.641 453.808 286.561 452.31ZM284.107 471.913C283.962 472.375 283.238 474.166 283.573 474.476C290.598 480.987 325.549 508.803 332.966 508.874C333.754 507.525 334.137 507.229 334.04 505.699C331.736 501.207 294.083 475.191 287.172 472.269C286.639 472.044 284.768 471.952 284.107 471.913Z" fill="#FFFFFA"/>
<path d="M680.911 431.622C679.564 432.407 675.385 436.614 674.569 437.955C669.84 445.725 629.788 486.494 632.76 492.618C638.332 493.793 646.372 483.063 649.557 479.015C660.2 465.487 671.555 452.61 682.495 439.346C684.467 436.956 684.989 435.55 685.226 432.509C696.03 432.696 706.398 432.119 712.509 421.535C725.418 425.766 734.274 426.323 747.508 421.595C746.203 451.71 744.658 481.815 742.875 511.906C706.547 518.567 670.632 526.195 633.997 531.027C629.329 531.643 624.457 532.262 619.832 533.036C620.075 513.766 619.643 494.509 619.933 475.182C625.172 473.058 645.905 440.179 652.22 436.214C660.438 435.523 666.219 432.939 672.801 428.023C675.533 430.075 677.728 430.669 680.911 431.622ZM707.705 452.816C692.59 468.347 677.776 484.169 663.27 500.272C658.793 505.205 643.542 520.116 642.832 526.326L643.256 527.272C644.909 527.664 644.073 527.642 645.849 527.135C653.146 522.356 667.395 506.099 673.68 499.101C686.465 484.867 698.232 470.428 711.912 456.877C710.834 455.769 708.896 453.641 707.705 452.816ZM719.978 463.887C711.798 473.064 702.582 482.31 694.958 491.763C687.573 500.92 680.924 509.804 673.348 518.939L673.432 519.546C675.491 519.848 676.015 519.683 678.124 519.389L682.335 518.625C690.394 507.085 698.841 497.078 708.744 487.104C714.096 481.713 718.688 474.854 724.083 469.592C723.017 467.719 721.718 465.123 719.978 463.887Z" fill="#FFCFD2"/>
<path d="M632.009 430.602C639.558 435.632 643.561 435.882 652.22 436.216C645.905 440.181 625.172 473.06 619.933 475.184C619.734 464.157 619.958 452.38 619.997 441.304C626.439 438.588 628.723 436.564 632.009 430.602Z" fill="#F1C0E8"/>
<path d="M685.225 432.508C684.988 435.549 684.466 436.955 682.494 439.345C671.554 452.609 660.199 465.486 649.556 479.014C646.371 483.062 638.331 493.792 632.759 492.617C629.787 486.493 669.839 445.724 674.568 437.954C675.384 436.613 679.563 432.406 680.91 431.621L685.225 432.508Z" fill="#FFFFFA"/>
<path d="M551.022 453.602C563.163 452.866 575.679 450.256 582.258 438.934C586.443 442.725 589.431 443.878 594.59 445.439C595.316 474.616 594.676 506.355 594.575 535.758C585.514 536.724 570.605 539.631 561.401 541.322L551.783 542.972C552.636 512.822 550.362 483.688 551.022 453.602Z" fill="#F1C0E8"/>
<path d="M336.457 477.073C330.914 475.781 290.861 451.022 287.076 445.284C287.398 443.657 287.781 443.763 289.201 442.32C302.939 448.58 316.931 460.607 330.865 467.228C333.266 468.369 337.686 470.914 338.361 473.48C338.041 475.253 337.548 475.659 336.457 477.073Z" fill="#8EECF5"/>
<path d="M507.555 460.819C518.594 459.494 526.454 457.524 532.231 447.23C538.199 452.084 542.167 453.17 549.545 453.659C548.876 472.505 549.596 487.106 549.964 505.851C550.134 518.311 550.15 530.772 550.01 543.233C542.316 544.04 532.568 545.899 524.88 547.213C519.505 547.959 514.148 549.028 508.641 549.772C508.493 520.119 508.131 490.467 507.555 460.819Z" fill="#F1C0E8"/>
<path d="M261.173 461.922C261.438 462.948 260.031 469.362 259.775 471.456L259.314 469.766C259.917 459.688 255.818 460.264 247.089 460.454C242.585 457.486 239.869 453.874 234.99 454.848C226.096 456.624 226.211 466.205 218.418 468.514C211.819 470.47 204.079 460.921 199.653 469.017C195.706 476.236 197.033 483.383 193.33 490.988C190.676 490.743 186.983 490.043 185.008 491.976C179.85 497.022 182.674 512.199 182.533 519.232C179.198 521.02 174.817 522.871 173.821 526.745C172.168 533.169 180.707 541.876 170.279 545.084C168.427 545.654 167.289 546.737 166.106 548.258C165.661 547.015 165.856 546.709 165.957 545.315C167.874 542.372 169.715 541.928 172.921 540.632C171.755 527.375 167.621 525.185 180.284 517.399C180.481 511.442 179.616 503.431 179.489 497.054C181.91 488.929 184.569 488.082 192.416 488.29C193.685 481.438 195.05 471.143 199.486 465.564C204.401 459.458 209.931 467.479 216.005 466.48C225.742 464.88 227.836 449.292 239.335 452.6C242.416 453.487 244.347 455.48 246.703 457.537C253.769 457.55 255.942 457.146 261.173 461.922Z" fill="#4D2B24"/>
<path d="M282.531 456.452C283.759 455.054 285.237 453.636 286.559 452.309C291.639 453.807 337.867 485.74 339.046 490.219C338.51 491.981 338.308 491.952 336.912 493.113C324.484 486.193 309.825 475.242 297.713 467.277C293.656 464.609 285.778 459.56 282.531 456.452Z" fill="#8EECF5"/>
<path d="M645.847 527.135C644.071 527.642 644.907 527.664 643.254 527.272L642.83 526.326C643.54 520.116 658.791 505.205 663.268 500.272C677.774 484.169 692.588 468.347 707.703 452.816C708.894 453.641 710.832 455.769 711.91 456.877C698.23 470.428 686.463 484.867 673.678 499.101C667.393 506.099 653.144 522.356 645.847 527.135Z" fill="#FFFFFA"/>
<path d="M789.447 470.452C787.966 473.002 786.263 476.848 785.496 479.683C783.668 486.44 777.525 487.278 772.188 490.876C771.693 489.575 771.894 490.183 772.284 488.453C775.86 485.993 779.519 484.802 783.012 482.605C784.638 476.076 786.765 467.719 792.986 463.906C795.233 462.5 797.981 462.145 800.51 462.935C806.47 464.766 807.745 469.854 811.651 468.587C815.258 464.3 812.755 455.279 819.904 454.132C823.753 453.514 828.617 457.715 832.23 458.963C837.872 460.914 844.961 458.677 849.842 462.719C857.558 469.109 850.781 487.644 865.6 486.796C871.488 486.458 880.623 481.881 885.782 486.324C888.787 488.913 890.214 492.991 890.407 496.876C891.091 510.683 876.429 521.358 877.047 527.228C877.432 530.89 880.73 534.308 881.73 537.992C880.802 542.192 880.249 544.094 878.106 547.978C874.574 552.802 870.807 556.969 865.524 560.017C858.384 564.136 835.626 564.634 833.536 574.463C834.051 576.616 834.093 576.755 836.189 577.85L834.64 579.916C833.257 581.258 833.468 595.262 835.788 597.479C835.351 597.94 834.427 598.982 833.968 599.311L834.041 617.357C830.345 619.251 827.984 619.653 824.017 620.289C823.849 609.611 824.466 598.225 824.509 587.35L821.526 583.773C822.54 584.37 821.994 584.172 823.251 584.126L823.439 584.717L823.834 584.588L823.607 583.456L824.218 583.091C824.855 579.592 824.782 575.559 824.834 571.968C820.093 570.425 816.466 569.802 811.449 569.65L811.528 570.098L810.504 572.662C796.672 559.29 776.169 568.569 766.434 546.583L768.182 546.399C775.098 559.422 784.351 560.061 797.289 563.682C803.323 565.371 809.198 567.072 815.346 568.426C800.738 560.157 804.243 553.722 794.223 542.533C791.722 539.74 790.331 538.993 789.563 535.268L790.263 534.646L789.591 534.946L790.022 534.602C791.586 535.626 800.792 547.262 801.603 549.105C807.799 563.183 809.613 565.299 824.782 570.215C825.209 562.277 825.26 553.514 825.545 545.483C821.111 542.927 803.139 521.536 803.278 517.04L804.211 516.523C809.733 525.267 817.748 536.491 825.622 542.983C825.987 532.902 825.942 523.875 834.389 516.556L835.138 516.696C834.897 518.836 829.177 526.159 828.746 528.502C827.243 536.676 827.135 547.852 826.734 556.15C833.506 552.227 847.626 543.375 855.148 539.054C855.451 539.128 855.754 539.201 856.056 539.275C853.662 543.585 832.526 554.774 826.536 559.071C826.344 565.515 826.593 573.003 826.539 579.625C826.387 592.463 826.152 605.301 825.833 618.136C828.04 617.586 830.079 616.847 832.229 616.114C832.242 606.115 831.564 581.983 832.967 572.275C834.359 562.642 855.264 563.191 863.371 558.583C871.78 553.804 877.053 549.068 879.729 538.374C878.712 535.712 875.148 530.316 875.045 528.404C875.248 517.466 888.406 511.668 888.422 499.343C888.448 479.324 874.966 488.648 863.454 488.675C850.353 488.706 854.455 471.099 848.94 464.659C845.675 460.847 834.031 462.204 829.194 459.806C826.89 458.801 822.146 455.928 820.266 456.047C813.968 455.615 816.408 468.679 813.006 469.961C802.321 473.988 801.07 454.836 789.447 470.452Z" fill="#161914"/>
<path d="M259.313 469.768C258.587 473.533 254.368 479.657 255.08 481.866C257.969 481.35 260.185 475.084 260.949 472.42L261.601 471.902C262.561 480.654 261.768 493.159 262.375 502.262C262.515 504.359 262.443 510.689 262.891 512.328C262.912 525.652 263.438 538.792 263.527 551.979C259.579 552.093 256.375 552.229 252.715 553.818C252.581 553.836 252.448 553.853 252.314 553.871C253.478 550.369 257.458 537.425 255.049 534.504L254.168 534.681C251.238 546.11 251.219 561.95 238.265 567.48C237.375 552.221 238.494 543.756 238.968 529.169C239.466 525.133 241.197 516.881 239.202 513.914C237.696 513.329 238.462 513.39 236.82 513.841C233.84 516.719 234.899 533.057 235.091 537.571C234.966 544.989 235.681 555.547 235.459 563.195C235.213 563.445 234.968 563.695 234.722 563.945C233.206 563.998 231.607 564.209 230.223 563.826C227.613 556.429 229.604 537.438 220.216 532.59C217.552 531.214 215.145 530.958 213.145 528.486C211.617 526.597 211.132 522.373 209.114 522.947C208.262 531.792 217.085 532.997 220.41 535.993C225.904 540.944 227.663 561.027 227.569 568.098C223.352 567.348 220.449 566.961 216.473 565.425C209.411 560.647 203.935 553.858 199.942 546.283C198.512 543.57 197.255 539.48 195.373 537.252L194.748 537.644C193.32 544.04 209.823 565.752 216.131 567.474L216.137 568.065C210.985 570.682 191.654 578.43 186.434 578.269C188.649 576.131 189.586 575.559 192.021 573.921C194.685 572.13 202.721 569.676 203.872 567.325L203.282 566.527C199.955 565.899 190.343 572.201 187.619 573.955C184.338 569.256 171.044 550.505 165.621 550.925L166.105 548.26C167.288 546.739 168.426 545.656 170.278 545.086C180.706 541.878 172.167 533.171 173.82 526.747C174.816 522.873 179.197 521.022 182.532 519.234C182.673 512.201 179.849 497.024 185.007 491.978C186.982 490.045 190.675 490.745 193.329 490.99C197.032 483.385 195.705 476.238 199.652 469.019C204.078 460.923 211.818 470.472 218.417 468.516C226.21 466.207 226.095 456.626 234.989 454.85C239.868 453.876 242.584 457.488 247.088 460.456C255.817 460.266 259.916 459.69 259.313 469.768Z" fill="#84F7A0"/>
<path d="M789.445 470.451C801.068 454.835 802.319 473.987 813.004 469.96C816.406 468.678 813.966 455.614 820.264 456.046C822.144 455.927 826.888 458.8 829.192 459.805C834.029 462.203 845.673 460.846 848.938 464.658C854.453 471.098 850.351 488.705 863.452 488.674C874.964 488.647 888.446 479.323 888.42 499.342C888.404 511.667 875.246 517.465 875.043 528.403C875.146 530.315 878.71 535.711 879.727 538.373C877.051 549.067 871.778 553.803 863.369 558.582C855.262 563.19 834.357 562.641 832.965 572.274C831.562 581.982 832.24 606.114 832.227 616.113C830.077 616.846 828.038 617.585 825.831 618.135C826.15 605.3 826.385 592.462 826.537 579.624C826.591 573.002 826.342 565.514 826.534 559.07C832.524 554.773 853.66 543.584 856.054 539.274C855.752 539.2 855.449 539.127 855.146 539.053C847.624 543.374 833.504 552.226 826.732 556.149C827.133 547.851 827.241 536.675 828.744 528.501C829.175 526.158 834.895 518.835 835.136 516.695L834.387 516.555C825.94 523.874 825.985 532.901 825.62 542.982C817.746 536.49 809.731 525.266 804.209 516.522C805.234 514.262 803.736 507.641 803.238 505C801.644 496.558 801.805 487.704 799.537 479.452C798.695 476.392 790.632 472.468 789.445 470.451Z" fill="#8EECF5"/>
<path d="M505.971 461.069L506.885 533.623C506.975 547.385 506.549 564.638 507.34 578.123C504.844 578.829 501.412 578.867 499.372 579.892L498.901 580.801C499.374 583.227 500.209 587.13 500.142 589.535C495.723 589.563 493.921 589.423 489.829 588.295C489.216 577.746 489.533 564.711 489.34 553.972C488.978 521.751 488.259 489.534 487.184 457.328C495.435 460.733 497.13 461.189 505.971 461.069Z" fill="#FFFFFA"/>
<path d="M437.376 462.336C451.677 474.465 471.814 470.68 485.363 459.457C486.168 464.648 486.281 485.091 486.366 490.963C486.584 510.85 486.947 530.734 487.456 550.615C468.363 552.056 449.314 554.038 430.334 556.561C411.896 559.055 395.358 561.888 376.521 564.013L376.469 551.249L376.477 471.217C383.818 469.709 386.421 467.887 392.345 463.58C392.632 463.907 392.925 464.229 393.223 464.546C404.575 476.527 426.157 473.343 437.376 462.336ZM479.811 473.387C471.42 482.318 414.762 545.179 414.688 551.389C415.485 553.851 416.726 554.366 419.098 554.832C421.998 552.471 424.602 549.991 427.116 547.22C433.678 539.99 439.543 532.082 445.849 524.624C451.127 518.382 483.55 482.986 484.109 477.768C484.231 476.628 483.892 475.558 483.071 474.737C482.109 473.774 481.106 473.541 479.811 473.387Z" fill="#FFCFD2"/>
<path d="M678.124 519.389C676.015 519.683 675.491 519.848 673.432 519.546L673.348 518.939C680.924 509.804 687.573 500.92 694.958 491.763C702.582 482.31 711.798 473.064 719.978 463.887C721.718 465.123 723.017 467.719 724.083 469.592C718.688 474.854 714.096 481.713 708.744 487.104C698.841 497.078 690.394 507.085 682.335 518.625L678.124 519.389Z" fill="#FFFFFA"/>
<path d="M260.95 472.418C260.186 475.082 257.97 481.348 255.081 481.864C254.369 479.655 258.588 473.531 259.314 469.766L259.775 471.456L259.931 472.209L260.95 472.418Z" fill="#642C14"/>
<path d="M772.188 490.877C777.525 487.279 783.668 486.441 785.496 479.684C786.263 476.849 787.966 473.003 789.447 470.453C790.634 472.47 798.697 476.394 799.539 479.454C801.807 487.706 801.646 496.56 803.24 505.002C803.738 507.643 805.236 514.264 804.211 516.524L803.278 517.041C803.139 521.537 821.111 542.928 825.545 545.484C825.26 553.515 825.209 562.278 824.782 570.216C809.613 565.3 807.799 563.184 801.603 549.106C800.792 547.263 791.586 535.627 790.022 534.603L789.591 534.947L790.263 534.647L789.563 535.269C790.331 538.994 791.722 539.741 794.223 542.534C804.243 553.723 800.738 560.158 815.346 568.427C809.198 567.073 803.323 565.372 797.289 563.683C784.351 560.062 775.098 559.423 768.182 546.4C768.048 545.91 767.92 545.418 767.8 544.924C764.418 531.262 767.512 520.095 770.322 506.959C771.52 501.358 768.674 496.707 772.188 490.877Z" fill="#98F5E1"/>
<path d="M332.965 508.875C325.548 508.804 290.597 480.988 283.572 474.477C283.237 474.167 283.961 472.376 284.106 471.914C284.767 471.953 286.638 472.045 287.171 472.27C294.082 475.192 331.735 501.208 334.039 505.7C334.136 507.23 333.753 507.526 332.965 508.875Z" fill="#8EECF5"/>
<path d="M419.097 554.832C416.725 554.366 415.484 553.851 414.688 551.389C414.762 545.179 471.419 482.318 479.81 473.387C481.105 473.541 482.108 473.774 483.07 474.737C483.891 475.558 484.23 476.628 484.108 477.768C483.549 482.986 451.126 518.382 445.848 524.624C439.542 532.082 433.677 539.99 427.115 547.22C424.601 549.991 421.997 552.471 419.097 554.832Z" fill="#FFFFFA"/>
<path d="M765.829 544.074C763.577 529.807 765.324 521.303 767.548 507.695C768.613 501.181 768.509 490.361 768.838 483.371C769.975 485.489 769.749 486.235 769.713 488.751L770.045 488.891L770.549 487.087L771.072 488.56C772.097 488.537 771.701 488.627 772.284 488.453C771.894 490.183 771.693 489.575 772.188 490.876C768.674 496.706 771.52 501.357 770.322 506.958C767.512 520.094 764.418 531.261 767.8 544.923C767.92 545.417 768.048 545.909 768.182 546.399L766.434 546.583L766.196 546.375C766.145 545.548 765.983 544.893 765.829 544.074Z" fill="url(#paint2_linear_2252_19470)"/>
<path d="M155.467 530.59C159.955 524.084 175.28 501.228 179.489 497.055C179.616 503.432 180.481 511.443 180.284 517.4C167.621 525.186 171.755 527.376 172.921 540.633C169.715 541.929 167.874 542.373 165.957 545.316L165.57 545.363C164.211 542.822 157.355 532.943 155.498 530.89L155.467 530.59Z" fill="#84F7A0"/>
<path d="M237.544 525.378C237.669 522.749 238.046 519.097 237.363 516.686C236.575 520.248 235.781 527.625 236.597 531.153C236.33 533.05 236.156 536.173 235.091 537.57C234.899 533.056 233.84 516.718 236.82 513.84C238.462 513.389 237.696 513.328 239.202 513.913C241.197 516.88 239.466 525.132 238.968 529.168C238.554 527.106 238.634 527.121 237.544 525.378Z" fill="#252B0E"/>
<path d="M236.597 531.151C235.781 527.623 236.575 520.246 237.363 516.684C238.046 519.095 237.669 522.747 237.544 525.376C237.247 527.308 236.97 529.232 236.597 531.151Z" fill="#97A38E"/>
<path d="M227.569 568.095C227.663 561.024 225.904 540.941 220.41 535.99C217.085 532.994 208.262 531.789 209.114 522.944C211.132 522.37 211.617 526.594 213.145 528.483C215.145 530.955 217.552 531.211 220.216 532.587C229.604 537.435 227.613 556.426 230.223 563.823C231.607 564.206 233.206 563.995 234.722 563.942L234.727 564.514C233.112 564.716 231.923 564.861 230.315 565.222C228.645 573.342 230.296 584.832 229.075 593.188C229.08 589.137 228.33 586.299 227.597 582.383L227.272 572.153C211.139 582 191.68 595.788 186.92 615.192C184.38 625.546 187.473 635.932 192.965 644.797C215.57 681.29 289.816 704.504 329.697 713.615C332.947 714.358 336.683 714.86 339.789 715.991C340.161 716.399 340.532 716.807 340.904 717.215C363.274 721.75 399.349 727.094 420.863 729.207C435.45 730.618 450.072 731.631 464.714 732.247C472.559 732.671 480.406 733.033 488.256 733.333C487.182 733.592 486.719 733.718 485.789 734.312C456.969 733.058 428.203 730.771 399.546 727.453C388.693 726.096 377.894 724.106 367.037 722.888C362.526 722.382 358.208 721.034 353.685 720.497L353.096 721.159C349.736 720.853 345.865 719.922 342.515 719.211C332.21 717.513 310.025 711.996 299.728 708.713C261.947 696.135 210.382 678.667 188.995 642.859C170.716 612.255 200.78 583.667 226.435 570.225L216.137 568.062L216.131 567.471C216.63 566.587 216.439 566.619 216.473 565.422C220.449 566.958 223.352 567.345 227.569 568.095Z" fill="#413E2D"/>
<path d="M237.546 525.379C238.636 527.122 238.556 527.107 238.97 529.169C238.496 543.756 237.377 552.221 238.267 567.48L239.988 568.548C239.297 568.897 238.505 569.016 238.474 569.769C237.854 584.942 238.931 600.361 238.073 615.561C237.94 617.916 236.641 619.739 234.885 621.314C233.163 622.859 227.678 620.907 227.496 619.645C225.835 608.154 227.083 594.075 227.599 582.386C228.332 586.302 229.082 589.14 229.077 593.191C229.078 598.048 228.116 614.443 228.84 617.853C229.7 618.818 230.071 619.318 231.472 619.434C232.714 619.537 234.419 619.023 235.35 618.178C237.878 615.887 236.351 575.235 235.916 568.376C235.804 566.606 236.071 565.7 234.729 564.517L234.724 563.945C234.97 563.695 235.215 563.445 235.461 563.195C235.683 555.547 234.968 544.989 235.093 537.571C236.158 536.174 236.332 533.051 236.599 531.154C236.972 529.235 237.249 527.311 237.546 525.379Z" fill="url(#paint3_linear_2252_19470)"/>
<path d="M346.576 827.187C333.164 828.955 319.51 828.422 306.05 828.518C216.722 829.152 71.7047 773.557 90.7109 661.733C96.5455 627.406 118.778 587.588 137.484 558.542C143.411 549.343 148.935 539.949 155.497 530.891C157.354 532.944 164.21 542.823 165.569 545.364C159.951 559.641 167.485 572.401 179.858 579.52C148.384 606.256 136.04 644.261 165.62 677.203C204.221 720.192 284.586 746.607 340.052 755.356C335.758 773.912 342.1 808.562 346.576 827.187Z" fill="#8EECF5"/>
<path d="M252.315 553.871C251.556 555.271 251.142 555.758 251.104 557.362L250.834 558.156L249.503 560.672C246.753 564.345 244.74 567.602 239.987 568.548L238.266 567.48C251.22 561.95 251.239 546.11 254.169 534.681L255.05 534.504C257.459 537.425 253.479 550.369 252.315 553.871Z" fill="#413E2D"/>
<path d="M318.77 551.057C311.735 550.592 292.282 540.605 285.022 537.483C284.319 537.181 283.599 535.841 283.266 535.156C288.785 535.306 294.975 535.085 300.116 536.941C301.18 543.517 313.035 544.978 318.77 551.057Z" fill="url(#paint4_linear_2252_19470)"/>
<path d="M305.21 555.638C300.644 545.237 279.484 541.602 278.525 535.398C280.098 535.98 282.397 537.769 284.339 538.682C291.44 542.024 298.562 545.378 305.681 548.68C307.884 549.701 313.96 550.985 315.236 552.605L313.861 553.249C311.003 554.245 308.143 554.905 305.21 555.638Z" fill="url(#paint5_linear_2252_19470)"/>
<path d="M594.008 537.489L594.579 536.277L596.61 536.515C596.592 539.159 595.751 562.569 595.975 563.359L594.702 563.598C593.64 557.651 595.503 541.809 594.008 537.489Z" fill="#502324"/>
<path d="M216.132 567.472C209.824 565.75 193.321 544.038 194.749 537.642L195.374 537.25C197.256 539.478 198.513 543.568 199.943 546.281C203.936 553.856 209.412 560.645 216.474 565.423C216.44 566.62 216.631 566.588 216.132 567.472Z" fill="#252B0E"/>
<path d="M318.592 548.245C310.526 543.072 311.199 542.896 301.639 538.694L301.473 536.867C305.917 537.045 316.527 544.292 318.592 548.245Z" fill="#D3E0FA"/>
<path d="M551.83 544.631C563.444 543.138 582.603 539.817 594.007 537.488C595.502 541.808 593.639 557.65 594.701 563.597C589.761 563.63 576.068 566.548 570.666 567.588C557.734 570.072 544.782 572.459 531.814 574.748C525.255 575.95 516.305 577.958 509.834 578.571L509.023 578.155C508.496 570.04 508.71 559.441 508.672 551.16C521.821 549.662 536.662 546.98 549.935 544.974C549.938 547.572 549.725 565.297 550.703 566.601C552.773 561.99 551.859 550.342 551.83 544.631Z" fill="#F1C0E8"/>
<path d="M280.563 546.167L277.887 545.168C276.666 543.619 277.055 544.489 276.84 542.398C277.519 540.776 277.348 540.295 278.535 539.719L279.092 540.505C279.392 542.307 279.675 544.584 280.563 546.167Z" fill="#CFBAF0"/>
<path d="M279.092 540.504C283.341 542.836 300.253 551.827 301.819 556.331C298.78 555.888 284.692 547.476 280.563 546.166C279.675 544.583 279.392 542.306 279.092 540.504Z" fill="#D3E0FA"/>
<path d="M765.827 544.074C765.981 544.893 766.143 545.548 766.194 546.375C757.385 547.284 743.71 550.294 734.564 551.922C710.035 556.198 685.554 560.742 661.124 565.553C652.286 567.162 643.437 568.706 634.577 570.184C631.962 570.631 624.133 571.82 621.926 572.519L621.529 570.706C630.593 568.487 644.731 566.395 654.385 564.58L722.463 551.954C736.479 549.439 752.108 547.075 765.827 544.074Z" fill="#502324"/>
<path d="M165.57 545.363L165.957 545.316C165.856 546.71 165.661 547.016 166.106 548.259L165.622 550.924C165.321 558.624 168.076 566.13 173.286 571.808C175.583 574.337 179.023 577.027 182.411 577.831C182.109 578.906 181.623 578.935 180.494 579.789L179.859 579.519C167.486 572.4 159.952 559.64 165.57 545.363Z" fill="#413E2D"/>
<path d="M621.928 572.519C624.135 571.82 631.964 570.631 634.579 570.184C643.439 568.706 652.288 567.162 661.126 565.553C685.556 560.742 710.037 556.198 734.566 551.922C743.712 550.294 757.387 547.284 766.196 546.375L766.434 546.583C776.169 568.569 796.672 559.29 810.504 572.662C814.453 576.082 818.138 579.796 821.526 583.773L824.509 587.35C824.466 598.225 823.849 609.611 824.017 620.289C827.984 619.653 830.345 619.251 834.041 617.357L833.968 599.311C880.316 640.283 810.563 676.376 777.386 689.422C711.175 715.457 627.255 732.703 555.548 732.048L555.701 731.362C553.988 729.643 546.874 729.525 543.935 728.859C523.394 724.199 501.918 722.738 481.649 729.508C478.542 730.545 475.802 731.709 472.458 731.606C463.508 731.596 452.575 730.713 443.479 730.082C409.939 727.608 376.574 723.172 343.553 716.797C346.176 709.839 347.693 701.452 350.539 694.815C359.835 673.141 367.545 651.941 371.024 628.48C371.758 623.529 372.05 615.022 374.801 610.983C382.762 610.487 394.977 607.617 403.324 606.156C429.708 601.54 456.304 597.315 482.501 591.757C490.707 590.017 493.328 591.446 501.072 591.592C508.509 614.585 514.449 639.89 521.602 663.151C522.935 667.657 524.106 672.247 525.407 676.757C526.16 679.37 526.268 683.888 528.461 685.395L529.21 685.058C529.469 681.07 505.992 599.941 502.825 590.602C502.194 587.627 501.545 584.654 500.881 581.686C504.161 581.035 504.919 581.058 508.162 581.147C512.352 587.549 514.696 597.585 517.116 604.961C524.262 626.747 530.157 648.864 535.751 671.09C536.501 674.072 538.757 685.211 540.93 686.713C541.59 683.232 539.122 675.265 538.117 671.551C546.591 669.729 558.316 668.531 567.615 666.731C583.252 663.711 598.873 660.609 614.478 657.426C622.839 655.652 631.068 653.498 639.446 651.792C641.601 656.628 643.234 662.733 645.698 666.964C648.347 666.212 651.573 665.744 652.879 663.424C651.89 657.973 646.145 641.651 644.174 635.729C637.263 614.485 629.845 593.409 621.928 572.519ZM676.589 617.502C674.723 609.609 675.345 599.296 676.476 591.265C676.686 589.771 677.794 585.188 676.839 584.14C672.205 586.39 673.334 611.725 673.936 617.47C667.923 617.675 663.74 617.846 657.969 619.485C659.088 633.262 660.199 647.185 663.53 660.671C674.758 662.89 681.974 662.843 693.29 660.048C694.456 655.71 694.965 651.447 695.569 647.005C696.543 639.568 697.602 631.793 698.21 624.347C701.506 613.022 686.961 616.512 680.071 616.983C683.69 603.587 687.308 601.049 696.794 592.429L696.472 591.973C685.874 592.393 678.018 616.71 676.589 617.502Z" fill="#B9FBC0"/>
<path d="M301.122 559.47C293.868 555.676 282.698 555.449 275.479 551.969C274.994 550.591 275.598 548.854 275.92 547.324C282.973 550.932 291.435 552.283 298.874 557.308L301.008 558.758L301.122 559.47Z" fill="#D3E0FA"/>
<path d="M836.188 577.849C834.092 576.754 834.05 576.615 833.535 574.462C835.625 564.633 858.383 564.135 865.523 560.016C870.806 556.968 874.573 552.801 878.105 547.977C881.063 550.269 897.455 557.209 901.478 558.753C899.248 568.014 885.075 616.31 880.387 621.659C872.453 602.333 854.174 587.481 836.188 577.849Z" fill="#84F7A0"/>
<path d="M165.622 550.921C171.045 550.501 184.339 569.252 187.62 573.951C186.278 574.881 183.413 576.734 182.411 577.828C179.023 577.024 175.583 574.334 173.286 571.805C168.076 566.127 165.321 558.621 165.622 550.921Z" fill="#8EECF5"/>
<path d="M376.493 565.775C386.97 564.728 397.534 563.41 407.937 561.805C433.44 557.868 459.392 554.191 485.127 552.242C486.368 551.984 485.925 551.959 487.156 552.386C487.722 554.709 487.548 561.247 487.589 564.024C487.75 572.319 487.864 580.616 487.932 588.913C453.308 596.517 414.538 602.07 379.435 608.167C378.058 608.463 377.948 608.642 376.655 608.219C375.98 605.349 376.435 571.055 376.493 565.775Z" fill="#FFFFFA"/>
<path d="M302.704 564.412L302.301 563.926C302.463 562.048 302.1 562.872 303.658 561.48C303.731 560.605 303.747 560.185 303.734 559.284L303.717 558.49C305.299 557.27 316.49 554.104 320.017 552.633C320.92 554.105 321.267 555.797 321.767 557.493C315.273 559.591 309.202 562.5 302.704 564.412Z" fill="#CFBAF0"/>
<path d="M299.803 565.428C295.179 564.303 278.374 559.871 274.438 558.024C273.868 556.439 274.285 556.139 274.702 554.16C281.214 556.404 295.633 558.083 299.822 560.993C300.392 562.681 300.07 563.665 299.803 565.428Z" fill="#CFBAF0"/>
<path d="M251.104 557.358C254.458 556.38 259.119 554.72 262.505 555.158L262.96 555.809C260.94 558.186 253.529 559.025 250.834 558.152L251.104 557.358Z" fill="#84F7A0"/>
<path d="M239.988 568.547C244.741 567.601 246.754 564.344 249.504 560.671C254.102 559.915 259.431 559.208 263.874 558.109C264.608 565.477 266.041 571.925 266.903 578.896C267.264 581.818 265.083 592.74 264.567 596.461C262.809 609.148 259.881 621.972 257.66 634.5C269.854 639.791 286.038 645.427 298.652 650.108C307.577 647.013 316.528 643.992 325.504 641.048C332.373 638.832 340.92 636.32 347.52 633.581C344.021 622.002 338.994 607.472 335.927 596.205C348.758 599.898 361.737 607.46 374.801 610.984C372.05 615.023 371.758 623.53 371.024 628.481C367.545 651.942 359.835 673.142 350.539 694.816C347.693 701.453 346.176 709.84 343.553 716.798L339.791 715.993C336.685 714.862 332.949 714.36 329.699 713.617C289.818 704.506 215.572 681.292 192.967 644.799C187.475 635.934 184.382 625.548 186.922 615.194C191.682 595.79 211.141 582.002 227.274 572.155L227.599 582.385C227.083 594.074 225.835 608.153 227.496 619.644C227.678 620.906 233.163 622.858 234.885 621.313C236.641 619.738 237.94 617.915 238.073 615.56C238.931 600.36 237.854 584.941 238.474 569.768C238.505 569.015 239.297 568.896 239.988 568.547Z" fill="#8EECF5"/>
<path d="M901.477 558.754C933.844 568.481 944.688 604.558 935.4 634.493C925.066 668.45 896.057 692.784 867.705 712.004C860.176 717.065 851.659 720.84 843.99 725.593C828.581 735.142 813.807 746.158 799.24 756.966C782.152 769.645 765.845 783.266 748.779 796.012C709.022 825.702 670.215 856.838 625.833 879.578C605.563 890.025 585.498 898.854 563.135 904.005C558.296 904.22 552.272 905.638 547.062 905.893C526.07 906.922 508.241 905.616 489.201 896.081C466.127 884.526 451.429 865.664 445.343 840.687C444.086 837.4 443.671 832.126 442.756 829.029C441.516 824.826 442.281 809.497 440.912 806.905L441.152 806.457C447.245 805.148 461.318 799.741 467.544 797.445C483.791 791.455 500.439 785.28 516.287 778.332C520.548 776.464 530.023 773.04 533.514 770.997C554.864 769.267 577.734 769.147 599.061 766.75C656.453 760.299 718.904 750.251 773.396 730.879C808.241 718.491 862.45 695.606 879.06 660.453C885.771 646.25 885.518 635.996 880.386 621.66C885.074 616.311 899.247 568.015 901.477 558.754Z" fill="#B9FBC0"/>
<path d="M313.854 562.407C316.569 561.578 319.216 560.527 321.873 559.523C322.808 560.343 323.224 561.64 323.572 562.824C330.37 585.97 337.549 609.116 345.045 632.05C341.425 633.74 338.732 634.592 334.912 635.838L324.161 639.1C321.447 612.832 317.236 588.239 313.854 562.407Z" fill="#CFBAF0"/>
<path d="M595.973 563.358C602.954 562.092 609.953 560.708 617.001 559.934C618.225 563.045 619.973 567.789 621.529 570.705L621.926 572.518C629.843 593.408 637.261 614.484 644.172 635.728C646.143 641.65 651.888 657.972 652.877 663.423C651.571 665.743 648.345 666.211 645.696 666.963C643.232 662.732 641.599 656.627 639.444 651.791C631.066 653.497 622.837 655.651 614.476 657.425C598.871 660.608 583.25 663.71 567.613 666.73C558.314 668.53 546.589 669.728 538.115 671.55C539.12 675.264 541.588 683.231 540.928 686.712C538.755 685.21 536.499 674.071 535.749 671.089C530.155 648.863 524.26 626.746 517.114 604.96C514.694 597.584 512.35 587.548 508.16 581.146C510.169 580.526 509.672 581.108 510.557 579.82L509.833 578.571C516.304 577.958 525.254 575.95 531.813 574.748C544.781 572.459 557.733 570.072 570.665 567.588C576.067 566.548 589.76 563.63 594.7 563.597L595.973 563.358ZM531.112 643.149C563.591 636.123 596.869 631.095 629.556 623.788C629.271 620.906 627.166 615.971 625.99 613.163C610.319 616.769 592.977 619.874 577.148 622.907C561.316 625.941 543.717 629.562 527.789 631.851C528.366 634.163 530.073 641.548 531.112 643.149ZM630.796 626.212C614.82 628.945 598.937 632.649 582.892 635.224C565.846 637.959 548.715 642.412 531.638 644.837C531.47 647.567 534.099 655.779 534.958 658.807C552.325 655.25 570.364 652.345 587.902 648.82C603.835 645.55 619.686 641.892 635.439 637.847C634.322 634.49 632.631 629.089 630.796 626.212ZM613.752 561.67L612.523 562.797C612.417 569.536 634.48 629.552 637.657 638.822C638.687 641.829 644.735 660.315 646.504 663.492C647.622 664.358 647.806 664.202 649.272 664.332C650.012 663.312 650.672 662.938 650.4 662.089C639.695 628.653 628.906 594.734 615.675 562.287C615.548 561.978 614.179 561.768 613.752 561.67ZM607.313 563.137C574.996 568.684 542.734 574.547 510.532 580.728C511.787 583.846 513.359 588.171 515.067 590.915L516.391 591.276C538.282 587.997 560.114 584.342 581.879 580.311C591.279 578.483 604.185 576.194 613.14 573.514C612.298 570.12 611.681 566.332 609.984 563.393C608.486 562.639 609.312 562.875 607.313 563.137ZM613.029 575.612C584.647 582.37 555.848 586.559 527.156 591.717C523.337 592.403 519.419 593.168 515.587 593.739C516.412 596.509 517.279 599.952 518.555 602.477C518.904 602.624 519.24 602.847 519.618 602.88C535.946 600.986 554.104 597.453 570.272 594.364C585.561 591.443 601.882 588.211 617.047 584.677C616.332 582.578 614.722 577.254 613.534 575.719L613.029 575.612ZM616.68 587.171C612.766 587.797 608.684 588.553 604.817 589.43C576.505 595.855 547.876 600.058 519.385 605.317C520.08 607.936 520.897 611.624 522.03 613.986C522.942 614.384 522.56 614.393 523.131 614.306C540.084 611.688 556.971 608.667 573.78 605.245C589.074 602.206 605.173 598.632 620.503 596.165C619.801 593.861 618.559 589.201 617.394 587.318L616.68 587.171ZM620.014 598.179C592.504 602.511 564.908 610.051 537.275 614.149C532.654 614.834 527.508 615.686 522.933 616.618C523.732 619.402 525.946 628.438 527.711 629.941L528.109 630.023C556.465 623.877 585.813 620.249 614.147 613.445C617.706 612.59 621.867 611.729 625.461 611.124C624.574 608.493 621.995 600.18 620.729 598.276L620.014 598.179ZM634.674 640.059C602.753 648.719 568.035 655.071 535.274 660.786C535.848 663.067 536.757 667.753 538.058 669.315C538.671 669.359 539.11 669.467 539.65 669.321C572.923 663.823 606.022 657.322 638.903 649.828C638.2 647.297 636.959 641.091 635.153 640.003L634.674 640.059Z" fill="#4D2B24"/>
<path d="M259.801 632.915C262.584 623.263 264.116 612.375 265.588 602.356C267.766 587.541 269.821 574.747 273.397 560.18C281.839 563.049 291.157 564.777 299.911 567.916C299.515 592.398 299.816 623.187 298.045 647.359C295.167 646.212 291.676 645.078 288.711 644.033C282.234 641.867 265.456 635.816 259.801 632.915Z" fill="#CFBAF0"/>
<path d="M649.273 664.334C647.807 664.204 647.623 664.36 646.505 663.494C644.736 660.317 638.688 641.831 637.658 638.824C634.481 629.554 612.418 569.538 612.524 562.799L613.753 561.672C614.18 561.77 615.549 561.98 615.676 562.289C628.907 594.736 639.696 628.655 650.401 662.091C650.673 662.94 650.013 663.314 649.273 664.334Z" fill="#98F5E1"/>
<path d="M510.533 580.731C542.735 574.55 574.997 568.687 607.314 563.14C609.313 562.878 608.487 562.642 609.985 563.396C611.682 566.335 612.299 570.123 613.141 573.517C604.186 576.197 591.28 578.486 581.88 580.314C560.115 584.345 538.283 588 516.392 591.279L515.068 590.918C513.36 588.174 511.788 583.849 510.533 580.731Z" fill="#D3E0FA"/>
<path d="M302.002 567.049C304.997 565.952 307.93 564.71 310.88 563.496L311.464 563.51C311.67 563.669 311.877 563.829 312.084 563.988C315.01 583.804 320.071 621.763 322.532 639.922L310.362 644.046L299.973 647.346C301.205 620.887 301.455 593.574 302.002 567.049Z" fill="#CFBAF0"/>
<path d="M229.075 593.19C230.296 584.834 228.645 573.344 230.315 565.224C231.923 564.863 233.112 564.718 234.727 564.516C236.069 565.699 235.802 566.605 235.914 568.375C236.349 575.234 237.876 615.886 235.348 618.177C234.417 619.022 232.712 619.536 231.47 619.433C230.069 619.317 229.698 618.817 228.838 617.852C228.114 614.442 229.076 598.047 229.075 593.19Z" fill="#8EECF5"/>
<path d="M187.62 573.952C190.344 572.198 199.956 565.896 203.283 566.524L203.873 567.322C202.722 569.673 194.686 572.127 192.022 573.918C189.587 575.556 188.65 576.128 186.435 578.266C175.076 583.291 158.873 604.568 154.905 616.221C134.553 675.99 212.993 713.669 256.77 729.969C283.169 739.726 310.356 747.202 338.031 752.315C372.486 758.487 413.732 765.009 448.832 766.496C479.39 767.924 509.591 769.043 540.156 767.67C543.695 767.511 547.747 767.601 551.232 767.19C564.857 766.235 577.909 765.657 591.642 764.35C633.096 760.487 674.255 753.945 714.864 744.765C760.424 734.632 843.832 708.027 872.297 666.82C879.255 656.748 883.064 642.335 879.954 630.062C873.923 606.258 854.304 592.026 834.639 579.915L836.188 577.849C854.174 587.481 872.453 602.333 880.387 621.659C885.519 635.995 885.772 646.249 879.061 660.452C862.451 695.605 808.242 718.49 773.397 730.878C718.905 750.25 656.454 760.298 599.062 766.749C577.735 769.146 554.865 769.266 533.515 770.996C504.952 771.371 476.384 770.704 447.869 768.997C411.675 766.77 375.661 762.213 340.053 755.353C284.587 746.604 204.222 720.189 165.621 677.2C136.041 644.258 148.385 606.253 179.859 579.517L180.494 579.787C181.623 578.933 182.109 578.904 182.411 577.829C183.413 576.735 186.278 574.882 187.62 573.952Z" fill="#5B4C2A"/>
<path d="M216.139 568.062L226.437 570.226C200.782 583.668 170.718 612.255 188.997 642.859C210.384 678.667 261.949 696.136 299.73 708.714C310.027 711.997 332.212 717.513 342.517 719.211C340.242 730.426 340.305 742.663 338.032 752.315C310.357 747.202 283.17 739.726 256.771 729.969C212.994 713.669 134.554 675.99 154.906 616.221C158.874 604.568 175.077 583.292 186.436 578.267C191.656 578.428 210.987 570.68 216.139 568.062Z" fill="#8EECF5"/>
<path d="M811.526 570.096L811.447 569.648C816.464 569.8 820.091 570.423 824.832 571.966C824.78 575.557 824.853 579.59 824.216 583.089C820.248 577.542 815.707 574.832 811.526 570.096Z" fill="#84F7A0"/>
<path d="M811.528 570.098C815.709 574.834 820.25 577.544 824.218 583.091L823.607 583.456L823.834 584.588L823.439 584.717L823.251 584.126C821.994 584.172 822.54 584.37 821.526 583.773C818.138 579.796 814.453 576.082 810.504 572.662L811.528 570.098Z" fill="#5B4C2A"/>
<path d="M515.588 593.74C519.42 593.169 523.338 592.404 527.157 591.718C555.849 586.56 584.648 582.371 613.03 575.613L613.535 575.72C614.723 577.255 616.333 582.579 617.048 584.678C601.883 588.212 585.562 591.444 570.273 594.365C554.105 597.454 535.947 600.987 519.619 602.881C519.241 602.848 518.905 602.625 518.556 602.478C517.28 599.953 516.413 596.51 515.588 593.74Z" fill="#D3E0FA"/>
<path d="M507.339 578.125L507.975 578.735L509.023 578.157L509.834 578.573L510.558 579.822C509.673 581.11 510.17 580.528 508.161 581.148C504.918 581.059 504.16 581.036 500.88 581.687L498.9 580.803L499.371 579.894C501.411 578.869 504.843 578.831 507.339 578.125Z" fill="#4D2B24"/>
<path d="M835.787 597.477C833.467 595.26 833.256 581.256 834.639 579.914C854.304 592.025 873.923 606.257 879.954 630.061C883.064 642.334 879.255 656.747 872.297 666.819C843.832 708.026 760.424 734.631 714.864 744.764C674.255 753.944 633.096 760.486 591.642 764.349C577.909 765.656 564.857 766.234 551.232 767.189C549.784 767.069 549.41 767.04 548.012 766.686C550.565 763.346 612.6 737.573 621.835 732.944C623.655 732.031 625.47 731.563 627.597 729.959C685.969 722.233 747.471 708.704 800.11 681.887C815.853 673.751 831.207 665.037 842.808 651.34C858.157 633.217 853.64 611.968 835.787 597.477Z" fill="#B9FBC0"/>
<path d="M498.9 580.801L500.88 581.685C501.544 584.653 502.193 587.626 502.824 590.601L500.141 589.535C500.208 587.13 499.373 583.227 498.9 580.801Z" fill="#642C14"/>
<path d="M673.936 617.471C673.334 611.726 672.205 586.391 676.839 584.141C677.794 585.189 676.686 589.772 676.476 591.266C675.345 599.297 674.723 609.61 676.589 617.503C676.158 618.433 676.121 618.875 675.448 619.461C672.58 619.664 662.844 619.977 661.158 621.483L661.039 621.914L660.591 622.903L660.951 623.335C659.265 627.214 664.456 653.806 665.491 659.161C674.926 660.388 682.552 660.403 691.919 658.051C692.726 653.942 693.22 650.588 693.739 646.424L695.569 647.006C694.965 651.448 694.456 655.711 693.29 660.049C681.974 662.844 674.758 662.891 663.53 660.672C660.199 647.186 659.088 633.263 657.969 619.486C663.74 617.847 667.923 617.676 673.936 617.471Z" fill="#4D2B24"/>
<path d="M519.387 605.318C547.878 600.059 576.507 595.856 604.819 589.431C608.686 588.554 612.768 587.798 616.682 587.172L617.396 587.319C618.561 589.202 619.803 593.862 620.505 596.166C605.175 598.633 589.076 602.207 573.782 605.246C556.973 608.668 540.086 611.689 523.133 614.307C522.562 614.394 522.944 614.385 522.032 613.987C520.899 611.625 520.082 607.937 519.387 605.318Z" fill="#FFFFFA"/>
<path d="M676.588 617.502C678.017 616.71 685.873 592.393 696.471 591.973L696.793 592.429C687.307 601.049 683.689 603.587 680.07 616.983C686.96 616.512 701.505 613.022 698.209 624.347C698.199 623.764 698.064 623.498 697.902 622.918C696.715 623.438 697.23 623.268 696.421 625.062C696.299 622.472 696.171 622.735 693.859 622.347C695.284 621.896 694.922 622.291 695.729 621.384L694.616 620.732L695.543 620.145L695.429 619.389C692.298 618.237 679.784 619.41 675.447 619.46C676.12 618.874 676.157 618.432 676.588 617.502Z" fill="#413E2D"/>
<path d="M835.786 597.48C853.639 611.971 858.156 633.22 842.807 651.343C831.206 665.04 815.852 673.754 800.109 681.89C747.47 708.707 685.968 722.236 627.596 729.962C604.382 731.657 583.403 733.687 559.851 734.731C530.106 735.832 500.328 735.748 470.589 734.478C457.503 733.308 444.139 732.737 430.987 731.618C414.259 730.112 397.574 728.165 380.95 725.777C374.046 724.799 359.115 722.897 353.096 721.161L353.685 720.499C358.208 721.036 362.526 722.384 367.037 722.89C377.894 724.108 388.693 726.098 399.546 727.455C428.203 730.773 456.969 733.06 485.789 734.314C486.719 733.72 487.182 733.594 488.256 733.335C480.406 733.035 472.559 732.673 464.714 732.249C450.072 731.633 435.45 730.62 420.863 729.209C399.349 727.096 363.274 721.752 340.904 717.217C340.532 716.809 340.161 716.401 339.789 715.993L343.551 716.798C376.572 723.173 409.937 727.609 443.477 730.083C452.573 730.714 463.506 731.597 472.456 731.607C491.217 733.267 513.529 732.764 532.448 732.804C537.556 732.815 550.881 732.689 555.546 732.049C627.253 732.704 711.173 715.458 777.384 689.423C810.561 676.377 880.314 640.284 833.966 599.312C834.425 598.983 835.349 597.941 835.786 597.48Z" fill="#5B4C2A"/>
<path d="M522.934 616.619C527.509 615.687 532.655 614.835 537.276 614.15C564.909 610.052 592.505 602.512 620.015 598.18L620.73 598.277C621.996 600.181 624.575 608.494 625.462 611.125C621.868 611.73 617.707 612.591 614.148 613.446C585.814 620.25 556.466 623.878 528.11 630.024L527.712 629.942C525.947 628.439 523.733 619.403 522.934 616.619Z" fill="#8EECF5"/>
<path d="M629.556 623.789C596.869 631.096 563.591 636.124 531.112 643.15C530.073 641.549 528.366 634.164 527.789 631.852C543.717 629.563 561.316 625.942 577.148 622.908C592.977 619.875 610.319 616.77 625.99 613.164C627.166 615.972 629.271 620.907 629.556 623.789Z" fill="#8EECF5"/>
<path d="M661.037 621.912L661.156 621.481C662.842 619.975 672.578 619.662 675.446 619.459C679.783 619.409 692.297 618.236 695.428 619.388L695.542 620.144L694.615 620.731C681.918 622.013 673.897 622.289 661.037 621.912Z" fill="#FFFFFA"/>
<path d="M661.038 621.911C673.898 622.288 681.919 622.012 694.616 620.73L695.729 621.382C694.922 622.289 695.284 621.894 693.859 622.345C686.174 624.588 668.714 623.963 660.95 623.332L660.59 622.9L661.038 621.911Z" fill="#502324"/>
<path d="M660.949 623.335C668.713 623.966 686.173 624.591 693.858 622.348C696.17 622.736 696.298 622.473 696.42 625.063C695.061 631.639 694.723 639.668 693.737 646.424C693.218 650.588 692.724 653.942 691.917 658.051C682.55 660.403 674.924 660.388 665.489 659.161C664.454 653.806 659.263 627.214 660.949 623.335Z" fill="#CFBAF0"/>
<path d="M696.421 625.062C697.23 623.268 696.715 623.438 697.902 622.918C698.064 623.498 698.199 623.764 698.209 624.347C697.601 631.793 696.542 639.568 695.568 647.005L693.738 646.423C694.724 639.667 695.062 631.638 696.421 625.062Z" fill="#502324"/>
<path d="M531.639 644.84C548.716 642.415 565.847 637.962 582.893 635.227C598.938 632.652 614.821 628.948 630.797 626.215C632.632 629.092 634.323 634.493 635.44 637.85C619.687 641.895 603.836 645.553 587.903 648.823C570.365 652.348 552.326 655.253 534.959 658.81C534.1 655.782 531.471 647.57 531.639 644.84Z" fill="#98F5E1"/>
<path d="M535.275 660.787C568.036 655.072 602.754 648.72 634.675 640.06L635.154 640.004C636.96 641.092 638.201 647.298 638.904 649.829C606.023 657.323 572.924 663.824 539.651 669.322C539.111 669.468 538.672 669.36 538.059 669.316C536.758 667.754 535.849 663.068 535.275 660.787Z" fill="#98F5E1"/>
<path d="M342.516 719.211C345.866 719.922 349.737 720.853 353.097 721.159C359.116 722.895 374.047 724.797 380.951 725.775C397.575 728.163 414.26 730.11 430.988 731.616C444.14 732.735 457.504 733.306 470.59 734.476C460.076 743.814 453.944 753.346 448.832 766.496C413.732 765.009 372.486 758.487 338.031 752.315C340.304 742.663 340.241 730.426 342.516 719.211Z" fill="#98F5E1"/>
<path d="M472.457 731.605C475.801 731.708 478.541 730.544 481.648 729.507C501.917 722.737 523.393 724.198 543.934 728.858C546.873 729.524 553.987 729.642 555.7 731.361L555.547 732.047C550.882 732.687 537.557 732.813 532.449 732.802C513.53 732.762 491.218 733.265 472.457 731.605Z" fill="#84F7A0"/>
<path d="M470.59 734.477C500.329 735.747 530.107 735.831 559.852 734.73C583.404 733.686 604.383 731.656 627.597 729.961C625.47 731.565 623.655 732.033 621.835 732.946C612.6 737.575 550.565 763.348 548.012 766.688C549.41 767.042 549.784 767.071 551.232 767.191C547.747 767.602 543.695 767.512 540.156 767.671C509.591 769.044 479.39 767.925 448.832 766.497C453.944 753.347 460.076 743.815 470.59 734.477Z" fill="#84F7A0"/>
<path d="M340.052 755.355C375.66 762.215 411.674 766.772 447.868 768.999C444.915 777.854 443.613 786.211 442.492 795.394C442.097 798.629 441.746 803.529 441.152 806.458L440.912 806.906C410.696 816.671 377.993 822.899 346.576 827.186C342.1 808.561 335.758 773.911 340.052 755.355Z" fill="#98F5E1"/>
<path d="M447.868 768.996C476.383 770.703 504.951 771.37 533.514 770.995C530.023 773.038 520.548 776.462 516.287 778.33C500.439 785.278 483.791 791.453 467.544 797.443C461.318 799.739 447.245 805.146 441.152 806.455C441.746 803.526 442.097 798.626 442.492 795.391C443.613 786.208 444.915 777.851 447.868 768.996Z" fill="#84F7A0"/>
<path d="M346.576 827.186C377.993 822.899 410.696 816.671 440.912 806.906C442.281 809.498 441.516 824.827 442.756 829.03C443.671 832.127 444.086 837.401 445.343 840.688C451.429 865.665 466.127 884.527 489.201 896.082C508.241 905.617 526.07 906.923 547.062 905.894C552.272 905.639 558.296 904.221 563.135 904.006C543.723 913.164 517.437 915.97 496.401 918.483C435.333 925.777 360.57 891.514 346.576 827.186Z" fill="#FBF8CC"/>
<defs>
<linearGradient id="paint0_linear_2252_19470" x1="554.041" y1="227.715" x2="617.505" y2="411.116" gradientUnits="userSpaceOnUse">
<stop stop-color="#5D260B"/>
<stop offset="1" stop-color="#423035"/>
</linearGradient>
<linearGradient id="paint1_linear_2252_19470" x1="552.389" y1="287.898" x2="561.113" y2="280.103" gradientUnits="userSpaceOnUse">
<stop stop-color="#51120D"/>
<stop offset="1" stop-color="#82492B"/>
</linearGradient>
<linearGradient id="paint2_linear_2252_19470" x1="765.562" y1="518.692" x2="769.43" y2="518.776" gradientUnits="userSpaceOnUse">
<stop stop-color="#47252F"/>
<stop offset="1" stop-color="#2F2A35"/>
</linearGradient>
<linearGradient id="paint3_linear_2252_19470" x1="220.813" y1="575.927" x2="244.825" y2="572.31" gradientUnits="userSpaceOnUse">
<stop stop-color="#000D03"/>
<stop offset="1" stop-color="#452920"/>
</linearGradient>
<linearGradient id="paint4_linear_2252_19470" x1="306.579" y1="554.871" x2="294.922" y2="531.129" gradientUnits="userSpaceOnUse">
<stop stop-color="#D6DAF4"/>
<stop offset="1" stop-color="#F6F8FB"/>
</linearGradient>
<linearGradient id="paint5_linear_2252_19470" x1="297.6" y1="539.051" x2="295.59" y2="552.522" gradientUnits="userSpaceOnUse">
<stop stop-color="#E2E1E1"/>
<stop offset="1" stop-color="#BDCEFF"/>
</linearGradient>
</defs>
</svg>
