<svg width="1024" height="1024" viewBox="0 0 1024 1024" fill="none" xmlns="http://www.w3.org/2000/svg">
<g clip-path="url(#clip0_2264_39371)">
<path d="M0 0H1024V1024H0V0ZM379.301 189.058C376.991 189.154 374.643 189.169 372.376 189.578C368.702 183.496 362.838 177.108 358.04 171.732C339.072 150.477 311.37 132.73 283.684 125.65C230.18 111.967 169.198 131.912 130.491 170.329C110.759 189.912 97.2382 218.969 90.2539 245.599C83.6209 273.013 84.5294 300.855 99.9618 325.271C113.92 347.355 139.927 359.197 164.427 365.59C184.461 370.818 206.688 371.675 224.925 382.519C228.682 384.753 234.413 392.587 238.15 393.17L238.188 427.811C232.966 426.987 228.249 422.41 223.686 420.052C221.314 418.825 218.751 417.725 216.344 416.524C163.053 389.939 92.8124 416.78 80.6632 477.879C72.1827 520.528 90.1722 554.488 126.556 577.304C123.223 590.479 117.854 602.071 115.069 615.751C105.551 662.501 109.443 716.187 133.723 758.052C175.835 830.664 262.482 860.373 341.151 871.999C412.866 883.777 486.672 887.376 559.249 884.451C596.899 882.934 634.894 880.144 671.321 869.846C677.184 868.189 688.106 865.272 693.113 862.566L693.894 862.56C703.536 863.743 714.177 866.578 723.803 868.697C782.499 881.618 852.148 883.472 900.149 841.078C956.696 791.137 973.617 672.125 870.107 669.449C877.905 648.276 882.996 623.831 887.607 601.715C890.559 587.556 894.638 570.709 896.57 556.506C906.464 483.764 920.656 384.263 878.485 319.447C843.617 265.856 768.799 232.852 711.997 208.582C653.798 183.733 575.181 152.652 527.008 212.787C518.022 224.961 511.211 237.489 500.566 248.495C491.17 258.21 481.591 262.854 470.705 270.033C470.756 269.242 470.786 268.46 470.704 267.672C465.636 218.892 427.684 185.894 379.301 189.058Z" fill="#E6DFD5"/>
<path d="M372.374 189.577C328.53 191.263 301.715 236.451 305.674 276.51C306.73 287.191 308 294.076 310.393 304.504C312.179 305.017 312.612 304.918 314.421 304.842L314.985 305.461L289.6 305.46C274.297 305.471 259.632 304.102 247.782 315.873C235.777 327.797 238.12 342.682 238.148 358.269V393.169C234.411 392.586 228.68 384.752 224.923 382.518C206.686 371.674 184.459 370.817 164.425 365.589C139.925 359.196 113.918 347.354 99.9601 325.27C84.5277 300.854 83.6192 273.012 90.2522 245.598C97.2365 218.968 110.757 189.911 130.489 170.328C169.196 131.911 230.178 111.966 283.682 125.649C311.368 132.729 339.07 150.476 358.038 171.731C362.836 177.107 368.7 183.495 372.374 189.577Z" fill="#FBF8CC"/>
<path d="M357.558 299.247C350.857 289.809 347.864 287.688 347.204 274.779C346.35 258.07 351.221 242.935 364.888 232.499C368.592 229.671 375.741 226.26 380.382 226.076C384.065 226.486 389.443 224.197 391.951 225.312L392.208 225.726C388.67 226.074 386.989 226.108 383.688 227.554C355.793 231.831 346.632 256.367 350.177 281.109C351.199 288.238 355.604 293.709 360.802 298.144C363.723 297.159 366.282 296.293 369.272 295.519C370.391 294.647 370.541 294.662 371.882 294.127C375.278 295.233 377.493 295.678 381.013 296.37C375.29 291.481 370.021 288.844 366.167 281.81C358.738 268.463 368.248 255.641 380.184 249.711C388.123 245.767 392.318 245.531 400.484 248.236C416.363 255.993 416.913 278.475 404.758 290.017C408.353 289.098 414.719 287.265 418.17 286.712L420.289 286.508C423.874 285.733 427.386 285.244 431.011 284.702L432.376 284.32C435.758 283.843 437.881 283.18 441.157 282.226L444.893 281.378C448.843 280.06 452.626 278.745 456.306 276.782L458.374 275.921C461.937 274.392 465.56 272.595 468.947 270.706L470.706 270.034C481.592 262.855 491.171 258.211 500.567 248.496C511.212 237.49 518.023 224.962 527.009 212.788C575.182 152.653 653.799 183.734 711.998 208.583C768.8 232.853 843.618 265.857 878.486 319.448C920.657 384.264 906.465 483.765 896.571 556.507C894.639 570.71 890.56 587.557 887.608 601.716C882.997 623.832 877.906 648.277 870.108 669.45L869.663 669.542C845.253 668.747 826.907 675.158 804.12 681.809C804.078 676.534 804.662 651.64 803.632 648.419C803.285 640.415 803.528 630.716 803.513 622.535L803.483 572.11L803.539 412.524L803.566 362.09C803.577 353.794 804.031 342.866 803.004 334.872C801.131 321.31 787.73 307.273 773.983 305.682C763.907 304.517 752.087 305.058 741.897 305.056L680.488 305.032L498.445 305.095L436.056 305.137C426.185 305.131 414.869 305.486 405.127 305.089C401.15 304.509 386.146 304.742 381.35 304.802C366.365 304.988 352.082 304.778 337.138 304.501C316.195 262.153 333.136 211.861 385.356 212.501C385.944 214.005 386.621 215.396 387.299 216.855C373.73 217.743 366.481 215.774 355.676 225.452C336.031 243.049 331.029 266.451 338.896 291.093C339.949 294.395 344.628 298.668 344.466 302.032L343.554 302.577C341.946 302.486 340.513 302.145 339.278 303.008L339.459 303.535C342.026 304.341 344.454 303.725 346.811 302.567C348.331 302.103 348.652 302.171 349.684 300.971C351.883 300.055 355.133 299.662 357.558 299.247ZM390.069 247.964L389.548 248.193C386.924 249.324 384.06 249.958 381.625 251.05C375.848 253.641 369.857 259.186 367.321 264.987C361.891 277.405 373.289 295.009 387.383 292.493C395.076 291.327 402.449 290.013 407.343 283.214C413.578 274.555 411.73 258.013 402.689 251.902C400.059 250.124 393.225 247.852 390.069 247.964Z" fill="#FCF4F9"/>
<path d="M379.303 189.057C427.686 185.893 465.638 218.891 470.706 267.671C470.788 268.459 470.758 269.241 470.707 270.032L468.948 270.704C465.239 239.599 452.352 214.771 424.118 200.453C405.792 191.161 394.478 189.405 374.091 191.113L373.879 190.426C375.946 190.02 377.285 189.668 379.303 189.057Z" fill="url(#paint0_linear_2264_39371)"/>
<path d="M372.375 189.579C374.642 189.17 376.99 189.155 379.3 189.059C377.282 189.67 375.943 190.022 373.876 190.428L374.088 191.115L373.579 191.472C355.665 192.259 340.603 199.665 328.628 212.799C310.74 232.417 306.505 254.084 308.045 279.761C308.556 288.269 310.407 297.282 314.422 304.844C312.613 304.92 312.18 305.019 310.394 304.506C308.001 294.078 306.731 287.193 305.675 276.512C301.716 236.453 328.531 191.265 372.375 189.579Z" fill="#E6DFD5"/>
<path d="M374.087 191.112C394.474 189.404 405.788 191.16 424.114 200.452C452.348 214.77 465.235 239.598 468.944 270.703C465.557 272.592 461.934 274.389 458.371 275.918C457.419 272.7 458.904 266.67 458.273 263.474C454.607 244.909 447.217 224.55 431.133 213.292C418.115 204.179 393.797 197.027 378.395 199.59C376.877 196.874 375.187 194.144 373.578 191.469L374.087 191.112Z" fill="#FDE4CF"/>
<path d="M314.422 304.845C310.407 297.283 308.556 288.27 308.045 279.762C306.505 254.085 310.74 232.418 328.628 212.8C340.603 199.666 355.665 192.26 373.579 191.473C375.188 194.148 376.878 196.878 378.396 199.594C360.153 200.31 347.603 203.411 334.309 217.26C318.895 233.318 313.169 252.281 313.999 274.282C314.166 278.719 318.936 302.774 320.813 304.938L321.808 305.435C323.268 303.628 318.888 290.056 318.223 286.95C313.738 266.023 317.233 242.67 330.372 225.415C341.019 211.236 350.542 205.326 368.315 202.538C371.539 202.033 377.573 202.008 380.043 201.462C381.105 203.424 383.457 207.542 384.187 209.409C373.028 209.216 365.13 210.485 355.262 215.804C326.504 231.307 320.594 261.214 328.641 290.837C329.837 295.24 332.369 300.121 332.777 304.633L332.812 304.986C330.209 304.923 329.263 304.798 326.716 305.388C323.476 305.599 318.372 305.451 314.986 305.464L314.422 304.845Z" fill="#FBF8CC"/>
<path d="M380.044 201.461C377.574 202.007 371.54 202.032 368.316 202.537C350.543 205.325 341.02 211.235 330.373 225.414C317.234 242.669 313.739 266.022 318.224 286.949C318.889 290.055 323.269 303.627 321.809 305.434L320.814 304.937C318.937 302.773 314.167 278.718 314 274.281C313.17 252.28 318.896 233.317 334.31 217.259C347.604 203.41 360.154 200.309 378.397 199.593C393.799 197.03 418.117 204.182 431.135 213.295C447.219 224.553 454.609 244.912 458.275 263.477C458.906 266.673 457.421 272.703 458.373 275.921L456.305 276.782C455.121 227.747 429.762 201.535 380.044 201.461Z" fill="#E6DFD5"/>
<path d="M380.043 201.461C429.761 201.535 455.12 227.747 456.304 276.782C452.624 278.745 448.841 280.06 444.891 281.378C449.554 258.565 440.9 232.752 420.66 220.098C410.476 213.731 396.091 210.128 384.187 209.408C383.457 207.541 381.105 203.423 380.043 201.461Z" fill="#FDE4CF"/>
<path d="M332.814 304.982L332.779 304.629C332.371 300.117 329.839 295.236 328.643 290.833C320.596 261.21 326.506 231.303 355.264 215.8C365.132 210.481 373.03 209.212 384.189 209.405C396.093 210.125 410.478 213.728 420.662 220.095C440.902 232.749 449.556 258.562 444.893 281.375L441.157 282.223C446.107 270.743 443.845 257.625 439.502 246.319C428.142 216.745 388.191 204.085 360.317 215.88C329.369 228.976 322.313 262.049 331.175 291.73C332.5 296.171 334.523 300.181 335.78 304.504C334.543 305.015 334.184 304.898 332.814 304.982Z" fill="#E6DFD5"/>
<path d="M389.038 217.448C388.818 217.522 388.598 217.597 388.378 217.671C372.488 217.665 364.131 217.693 352.561 229.655C337.144 245.593 332.627 265.897 338.582 287.18C339.944 292.048 342.655 296.404 345.508 300.504C346.029 301.253 346.449 301.713 346.812 302.567C344.455 303.725 342.027 304.341 339.46 303.535L339.279 303.008C340.514 302.145 341.947 302.486 343.555 302.577L344.467 302.032C344.629 298.668 339.95 294.395 338.897 291.093C331.03 266.451 336.032 243.049 355.677 225.452C366.482 215.774 373.731 217.743 387.3 216.855C386.622 215.396 385.945 214.005 385.357 212.501C333.137 211.861 316.196 262.153 337.139 304.501C352.083 304.778 366.366 304.988 381.351 304.802C386.147 304.742 401.151 304.509 405.128 305.089C402.728 305.216 400.345 305.294 397.941 305.282C374.222 305.164 350.432 305.673 326.719 305.387C329.266 304.797 330.212 304.922 332.815 304.985C334.185 304.901 334.544 305.018 335.781 304.507C334.524 300.184 332.501 296.174 331.176 291.733C322.314 262.052 329.37 228.979 360.318 215.883C388.192 204.088 428.143 216.748 439.503 246.322C443.846 257.628 446.108 270.746 441.158 282.226C437.882 283.18 435.759 283.843 432.377 284.32C441.001 261.136 429.208 233.827 404.527 227.044C401.104 226.104 394.076 225.454 391.471 224.076C391.073 222.686 390.379 221.175 389.812 219.817C398.622 220.108 400.225 222.891 408.003 224.441C401.556 220.193 396.956 217.957 389.038 217.448Z" fill="#FDE4CF"/>
<path d="M346.811 302.564C346.448 301.71 346.028 301.25 345.507 300.501C342.654 296.401 339.943 292.045 338.581 287.177C332.626 265.894 337.143 245.59 352.56 229.652C364.13 217.69 372.487 217.662 388.377 217.668C388.597 217.594 388.817 217.519 389.037 217.445L389.396 219.565C384.993 220.166 380.235 219.97 375.909 220.232C364.721 220.91 356.546 227.298 350.039 235.969C340.371 247.886 337.595 262.792 339.4 277.765C340.595 287.67 342.195 293.94 349.684 300.968C348.652 302.168 348.331 302.1 346.811 302.564Z" fill="#E6DFD5"/>
<path d="M389.035 217.445C396.953 217.954 401.553 220.19 408 224.438C400.222 222.888 398.619 220.105 389.809 219.814L389.394 219.565L389.035 217.445Z" fill="#FCF4F9"/>
<path d="M349.684 300.969C342.195 293.941 340.595 287.671 339.4 277.766C337.595 262.793 340.371 247.887 350.039 235.97C356.546 227.299 364.721 220.911 375.909 220.233C380.235 219.971 384.993 220.167 389.396 219.566L389.811 219.815C390.378 221.173 391.072 222.684 391.47 224.074C387.058 223.976 384.612 224.83 380.382 226.074C375.741 226.258 368.592 229.669 364.888 232.497C351.221 242.933 346.35 258.068 347.204 274.777C347.864 287.686 350.857 289.807 357.558 299.245C355.133 299.66 351.883 300.053 349.684 300.969Z" fill="#FBF8CC"/>
<path d="M380.383 226.074C384.613 224.83 387.059 223.976 391.471 224.074C394.076 225.452 401.104 226.102 404.527 227.042C429.208 233.825 441.001 261.134 432.377 284.318L431.012 284.7C438.222 254.849 424.242 230.317 392.858 226.835C388.851 226.524 387.191 227.525 383.689 227.552C386.99 226.106 388.671 226.072 392.209 225.724L391.952 225.31C389.444 224.195 384.066 226.484 380.383 226.074Z" fill="#E6DFD5"/>
<path d="M383.686 227.554C387.188 227.527 388.848 226.526 392.855 226.837C393.887 228.993 396.353 233.658 396.516 235.835C394.576 235.825 387.065 235.714 385.573 236.014C378.305 237.524 371.251 241.395 366.027 246.627C359.894 252.768 354.446 262.842 354.356 271.662C354.254 281.728 361.499 290.167 369.27 295.519C366.28 296.293 363.721 297.159 360.8 298.144C355.602 293.709 351.197 288.238 350.175 281.109C346.63 256.367 355.791 231.831 383.686 227.554Z" fill="#FBF8CC"/>
<path d="M392.855 226.836C424.239 230.318 438.219 254.85 431.009 284.701C427.384 285.243 423.872 285.732 420.287 286.507C425.889 272.833 425.103 258.819 415.911 246.669C411.271 240.537 404.137 236.773 396.516 235.834C396.353 233.657 393.887 228.992 392.855 226.836Z" fill="#FDE4CF"/>
<path d="M369.271 295.517C361.5 290.165 354.255 281.726 354.357 271.66C354.447 262.84 359.895 252.766 366.028 246.625C371.252 241.393 378.306 237.522 385.574 236.012C387.066 235.712 394.577 235.823 396.517 235.833C404.138 236.772 411.272 240.536 415.912 246.668C425.104 258.818 425.89 272.832 420.288 286.506L418.169 286.71C419.588 284.601 420.678 280.501 421.117 277.95C424.062 260.804 416.123 241.054 397.231 237.93C389.353 238.285 385.797 237.019 378.274 240.816C356.777 251.668 345.96 280.348 371.881 294.125C370.54 294.66 370.39 294.645 369.271 295.517Z" fill="#E6DFD5"/>
<path d="M371.879 294.125C345.958 280.348 356.775 251.668 378.272 240.816C385.795 237.019 389.351 238.285 397.229 237.93C397.825 240.976 399.288 245.333 400.481 248.234C392.315 245.529 388.12 245.765 380.181 249.709C368.245 255.639 358.735 268.461 366.164 281.808C370.018 288.842 375.287 291.479 381.01 296.368C377.49 295.676 375.275 295.231 371.879 294.125Z" fill="#FBF8CC"/>
<path d="M397.23 237.93C416.122 241.054 424.061 260.804 421.116 277.95C420.677 280.501 419.587 284.601 418.168 286.71C414.717 287.263 408.351 289.096 404.756 290.015C416.911 278.473 416.361 255.991 400.482 248.234C399.289 245.333 397.826 240.976 397.23 237.93Z" fill="#FDE4CF"/>
<path d="M387.384 292.494C373.29 295.01 361.892 277.406 367.322 264.988C369.858 259.187 375.849 253.642 381.626 251.051C384.061 249.959 386.925 249.325 389.549 248.194L390.07 247.965C393.226 247.853 400.06 250.125 402.69 251.903C411.731 258.014 413.579 274.556 407.344 283.215C402.45 290.014 395.077 291.328 387.384 292.494ZM388.767 256.119C383.46 257.799 378.372 259.897 375.785 265.175C370.982 274.971 378.088 284.674 388.119 286.001C408.392 281.19 407.583 255.059 388.767 256.119Z" fill="url(#paint1_linear_2264_39371)"/>
<path d="M388.117 285.999C378.086 284.672 370.98 274.969 375.783 265.173C378.37 259.895 383.458 257.797 388.765 256.117C407.581 255.057 408.39 281.188 388.117 285.999ZM388.744 258.495C381.097 260.969 379.212 262.36 376.264 269.957C377.718 277.021 380.491 283.892 389.213 283.537C405.651 276.633 403.832 256.698 388.744 258.495Z" fill="#E6DFD5"/>
<path d="M376.266 269.959C379.214 262.362 381.099 260.971 388.746 258.497C403.834 256.7 405.653 276.635 389.215 283.539C380.493 283.894 377.72 277.023 376.266 269.959Z" fill="#FBF8CC"/>
<path d="M405.124 305.086C414.866 305.483 426.182 305.128 436.053 305.134L498.442 305.092L680.486 305.029L741.894 305.053C752.084 305.055 763.904 304.514 773.98 305.679C787.727 307.27 801.128 321.307 803.001 334.869C804.028 342.863 803.574 353.791 803.563 362.087L803.536 412.521L803.48 572.107L803.51 622.532C803.525 630.713 803.282 640.412 803.629 648.416C803.549 655.297 803.436 663.075 803.612 669.894C803.995 684.734 803.431 694.778 792.322 705.634C779.602 718.066 769.607 716.601 753.193 716.656L715.61 716.773L570.958 717.065C574.861 740.766 577.115 764.708 580.846 788.091C589.567 788.579 609.647 786.238 616.758 788.297C626.788 791.202 643.179 797.914 650.796 805.155C655.204 809.56 653.941 822.006 653.843 827.966C622.167 828.019 587.724 827.732 556.133 828.588C539.955 829.498 519.78 828.731 503.253 828.906C464.604 829.315 425.514 828.622 386.889 829.55C386.842 822.801 386.893 816.187 386.995 809.438C395.859 802.177 410.398 793.234 420.474 785.526L457.993 785.488C459.635 776.668 461.921 767.26 463.914 758.471L472.79 717.367C451.107 717.038 428.712 717.29 406.997 717.304L315.401 717.125C300.46 717.12 281.423 717.92 266.946 715.816C260.235 714.488 254.104 710.217 249.307 705.702C234.381 691.654 238.442 666.08 238.412 646.72L238.562 554.477L238.53 548.376L238.571 537.489L238.512 533.081C239.058 522.713 238.896 501.645 238.467 491.229C238.549 487.392 238.487 483.341 238.493 479.483C238.289 470.621 238.485 461.855 238.122 452.945L238.193 448.618V431.78L238.186 427.809L238.148 393.168V358.268C238.12 342.681 235.777 327.796 247.782 315.872C259.632 304.101 274.297 305.47 289.6 305.459L314.985 305.46C318.371 305.447 323.475 305.595 326.715 305.384C350.428 305.67 374.218 305.161 397.937 305.279C400.341 305.291 402.724 305.213 405.124 305.086ZM362.402 656.536L240.897 656.617C240.849 673.146 238.308 691.437 250.938 703.511C255.338 707.717 262.68 712.834 268.665 713.58C282.795 715.341 300.838 714.517 315.295 714.494L402.506 714.517L446.941 714.633L669.498 714.425L738.12 714.303C749.119 714.263 762.422 714.673 772.873 713.731C787.885 711.302 800.24 696.979 801.136 681.959C801.66 673.19 801.366 664.831 801.32 656.437L362.402 656.536ZM466.108 759.085C464.354 767.46 461.934 777.187 460.718 785.464H486.345L578.21 785.619C577.858 782.205 577.463 776.811 576.751 773.61C574.966 756.862 571.03 733.77 568.233 717.021L475.109 717.202L466.108 759.085ZM487.889 787.92C467.534 787.947 441.366 787.135 421.491 788.013C411.512 794.934 401.429 801.813 391.855 809.281C435.027 809.731 478.458 809.092 521.67 809.199C527.258 809.325 532.907 809.38 538.492 809.281C576.097 808.609 613.949 809.978 651.527 809.157C644.636 800.989 626.865 793.194 616.519 790.724C609.737 789.104 587.198 790.394 579.381 790.538L578.572 789.95L579.371 788.378C575.886 787.226 497.481 787.603 487.889 787.92ZM523.83 811.572L432.483 811.687C419.443 811.686 401.639 812.334 389.029 811.643C389.01 816.741 388.973 821.845 389.029 826.942L547.491 826.39C581.946 825.634 617.057 825.644 651.529 825.726L651.527 811.536L523.83 811.572ZM555.881 307.247L357.102 307.476L299.174 307.774C293.784 307.804 285.829 308.309 280.492 307.871C262.274 306.374 242.156 315.673 240.607 336.059C239.85 346.018 240.475 358.2 240.509 368.781L240.868 440.629L240.848 654.201L485.574 654.106L801.052 654.01L801.095 431.295L801.069 369.388C801.089 360.769 800.8 351.932 801.116 342.999C801.697 326.615 790.293 311.333 774.087 307.937C768.508 306.768 757.902 307.329 751.753 307.315L710.537 307.242L555.881 307.247Z" fill="#010000"/>
<path d="M240.852 654.204L240.872 440.632L240.513 368.784C240.479 358.203 239.854 346.021 240.611 336.062C242.16 315.676 262.278 306.377 280.496 307.874C285.833 308.312 293.788 307.807 299.178 307.777L357.106 307.479L555.885 307.25L710.541 307.245L751.757 307.318C757.906 307.332 768.512 306.771 774.091 307.94C790.297 311.336 801.701 326.618 801.12 343.002C800.804 351.935 801.093 360.772 801.073 369.391L801.099 431.298L801.056 654.013L485.578 654.109L240.852 654.204ZM275.714 335.641C266.592 337.837 262.146 344.399 262.071 353.588C261.928 370.978 262.075 388.402 262.106 405.79L262.111 504.883L262.063 585.258C262.052 597.26 261.205 615.177 262.879 626.957C263.923 634.299 275.299 641.167 281.979 639.998C327.627 640.101 373.255 640.037 418.892 640.046L648.375 640.283L726.333 640.149C733.287 640.141 759.901 640.805 765.421 639.254C774.995 635.495 779.265 628.729 779.319 618.583C779.409 601.702 779.253 584.817 779.198 567.934L779.155 482.201L779.031 396.308C779.019 381.003 779.426 365.566 778.894 350.279C778.819 348.15 778.584 346.145 777.697 344.188C776.133 340.734 772.895 337.711 769.343 336.372C763.752 334.265 709.675 335.593 700.3 335.599L412.296 335.679L321.621 335.608C308.826 335.582 287.804 334.836 275.714 335.641Z" fill="url(#paint2_linear_2264_39371)"/>
<path d="M765.418 639.253C759.898 640.804 733.284 640.14 726.33 640.148L648.372 640.282L418.889 640.045C373.252 640.036 327.624 640.1 281.976 639.997C275.296 641.166 263.92 634.298 262.876 626.956C261.202 615.176 262.049 597.259 262.06 585.257L262.108 504.882L262.103 405.789C262.072 388.401 261.925 370.977 262.068 353.587C262.143 344.398 266.589 337.836 275.711 335.64C287.801 334.835 308.823 335.581 321.618 335.607L412.293 335.678L700.297 335.598C709.672 335.592 763.749 334.264 769.34 336.371C772.892 337.71 776.13 340.733 777.694 344.187C778.581 346.144 778.816 348.149 778.891 350.278C779.423 365.565 779.016 381.002 779.028 396.307L779.152 482.2L779.195 567.933C779.25 584.816 779.406 601.701 779.316 618.582C779.262 628.728 774.992 635.494 765.418 639.253ZM279.461 337.742C272.203 338.062 265.009 341.827 264.703 349.985C264.164 364.358 264.437 378.928 264.443 393.326L264.486 477.388L264.467 572.929C264.437 588.808 264.264 604.984 264.448 620.864C264.505 625.809 266.028 630.192 269.769 633.476C272.227 635.632 275.577 637.322 278.931 637.427C286.962 637.679 295.108 637.616 303.146 637.626L347.072 637.662L484.572 637.616L669.467 637.709L728.023 637.672C739.175 637.662 751.134 637.879 762.179 637.463C771.816 635.066 776.78 629.348 776.898 619.352C777.115 601.056 776.984 582.752 776.96 564.453L776.876 459.003L776.692 373.999C776.647 367.063 776.679 360.136 776.672 353.154C776.667 347.86 776.336 343.572 771.625 340.135C769.232 338.388 766.932 337.652 763.991 337.624C743.144 337.423 722.283 337.567 701.433 337.577L580.961 337.552L383.233 337.609C348.889 337.635 313.718 337.283 279.461 337.742Z" fill="#010000"/>
<path d="M762.182 637.463C751.137 637.879 739.178 637.662 728.026 637.672L669.47 637.708L484.575 637.616L347.075 637.661L303.149 637.625C295.111 637.615 286.965 637.679 278.934 637.427C275.58 637.322 272.23 635.632 269.772 633.476C266.031 630.192 264.508 625.809 264.451 620.864C264.267 604.984 264.44 588.808 264.47 572.929L264.489 477.388L264.446 393.326C264.44 378.928 264.167 364.358 264.706 349.985C265.012 341.827 272.206 338.062 279.464 337.742C313.721 337.283 348.892 337.635 383.236 337.609L580.964 337.552L701.436 337.577C722.286 337.567 743.147 337.423 763.994 337.624C766.935 337.652 769.235 338.388 771.628 340.135C776.339 343.572 776.67 347.86 776.675 353.154C776.682 360.136 776.65 367.063 776.695 373.999L776.879 459.003L776.963 564.453C776.987 582.752 777.118 601.056 776.901 619.352C776.783 629.348 771.819 635.066 762.182 637.463ZM292.339 351C285.267 355.597 290.267 361.538 296.927 361.569C304.444 356.533 300.239 350.831 292.339 351ZM308.956 351.018C301.249 354.925 304.847 361.576 312.679 361.609C319.843 357.73 316.899 351.195 308.956 351.018ZM330.812 350.975C324.61 355.18 326.14 362.384 334.792 361.397C341.441 356.302 338.325 351.049 330.812 350.975ZM397.488 375.272L343.535 375.395C334.516 375.378 324.89 374.972 315.964 375.856C309.683 376.479 302.601 383.88 302.242 390.263C301.747 399.057 301.935 407.961 301.949 416.775L301.982 467.13L301.94 556.404C301.916 572.347 301.806 588.308 301.936 604.242C302.032 615.91 308.32 622.076 319.712 622.401C332.841 622.776 345.925 622.68 359.052 622.676L434.899 622.517L639.012 622.383C669.946 622.472 703.226 622.036 734.035 623.137L734.05 457.315C734.092 430.305 735.107 401.903 734.383 375.047C719.971 374.083 698.496 374.966 683.285 375.002L587.251 375.065L458.557 375.147C438.866 375.168 416.931 374.656 397.488 375.272Z" fill="#98F5E1"/>
<path d="M296.927 361.569C290.267 361.538 285.267 355.597 292.339 351C300.239 350.831 304.444 356.533 296.927 361.569Z" fill="#90CF7D"/>
<path d="M312.677 361.611C304.845 361.578 301.247 354.927 308.954 351.02C316.897 351.197 319.841 357.732 312.677 361.611Z" fill="#90CF7D"/>
<path d="M334.79 361.399C326.138 362.386 324.608 355.182 330.81 350.977C338.323 351.051 341.439 356.304 334.79 361.399Z" fill="#B08855"/>
<path d="M639.009 622.383L434.896 622.517L359.049 622.676C345.922 622.68 332.838 622.777 319.709 622.402C308.317 622.077 302.029 615.911 301.933 604.243C301.803 588.309 301.913 572.347 301.937 556.404L301.979 467.13L301.946 416.775C301.932 407.961 301.744 399.057 302.239 390.263C302.598 383.88 309.68 376.479 315.961 375.856C324.887 374.972 334.513 375.378 343.532 375.395L397.485 375.272C416.928 374.656 438.863 375.168 458.554 375.147L587.248 375.065L683.282 375.002C698.493 374.966 719.968 374.083 734.38 375.047C735.104 401.903 734.089 430.305 734.047 457.315L734.032 623.137C703.223 622.036 669.943 622.472 639.009 622.383ZM695.431 449.016C697.156 449.049 698.954 449.358 699.89 447.761L699.202 446.649C692.675 446.179 626.195 446.328 625.034 447.003L624.965 449.155C631.086 448.634 638.991 448.748 645.248 448.889C661.819 449.262 678.926 448.373 695.431 449.016ZM431.066 460.452C427.846 460.538 418.095 460.606 416.883 462.92C412.671 470.962 410.939 495.522 410.326 504.029C409.732 509.691 407.83 525.201 416.205 524.927C421.394 524.757 435.638 521.319 439.633 518.296L439.879 517.192C437.142 513.38 418.877 526.626 414.209 519.782C411.953 516.475 412.454 513.934 412.57 510.143C417.757 507.957 451.676 499.287 456.653 499.945L457.338 500.911C456.469 505.445 451.948 520.647 453.284 523.832L454.125 523.171L453.257 523.654C455.807 521.988 456.729 516.987 457.353 514.012L458.716 507.3C461.973 507.566 470.65 507.144 473.792 506.366C474.446 508.938 474.373 510.462 477.053 511.174C479.986 510.075 480.778 507.345 482.049 504.561C486.68 507.205 506.798 514.554 511.635 514.38L512.371 515.755C513.609 516.047 513.776 516.131 514.908 515.057C516.188 517.759 522.216 517.56 525.325 518.216C524.533 520.977 524.179 521.478 524.788 524.153L525.491 525.064C526.967 524.84 527.154 524.217 527.64 522.787C532.495 526.529 540.953 529.427 546.823 531.445C548.786 530.512 558.937 526.301 559.864 525.437C560.887 526.428 561.545 526.382 562.754 526.031C563.03 525.259 557.78 499.095 557.395 495.167L557.348 494.644C560.62 496.231 576.795 505.358 578.742 505.142C579.66 503.849 579.461 502.154 579.586 500.335L579.654 500.99C580.213 506.733 579.375 520.755 582.118 525.668C582.345 526.075 584.208 526.477 584.827 526.613C583.381 519.359 583.047 511.4 582.542 503.973C589.443 503.659 592.216 498.516 597.186 497.412C597.197 500.838 597.441 507.159 597.245 510.304C595.802 533.479 604.428 524.974 620.02 520.771C624.639 519.526 637.034 517.351 640.809 514.74L640.575 514.103C632.272 512.808 619.847 517.937 611.674 519.976C609.519 520.514 606.513 521.745 604.366 521.991C603.027 522.595 602.42 523.041 600.974 522.831C599.635 520.34 600.036 470.93 600.419 464.422C600.258 463.001 600.411 462.299 600.537 460.879C599.285 459.251 600.049 459.746 598.364 459.072C597.004 460.526 597.309 461.628 597.423 463.531C593.868 462.452 585.08 468.594 582.4 471.155C582.212 472.84 582.061 474.438 581.925 476.128C581.379 472.267 582.127 464.253 580.856 461.79L579.703 461.572C578.103 463.398 578.923 471.428 579.045 474.34C576.517 474.381 557.28 482.105 554.857 483.476C554.084 479.076 552.302 455.42 547.506 456.649C543.555 460.507 538.389 475.3 536.195 480.929C531.419 479.854 512.062 474.319 508.153 472.497C507.644 470.239 507.523 468.649 506.084 466.873C505.15 466.419 504.223 465.769 503.165 466.563C496.096 471.871 486.389 488.951 482.689 496.474C479.379 495.241 478.633 495.882 475.484 495.121C474.837 488.891 474.359 463.696 470.594 460.43C469.996 459.912 469.77 460.102 469.049 460.152C465.671 462.833 464.211 470.295 463.163 474.468L461.008 483.353C454.35 484.114 441.648 490.72 437.557 490.372C436.903 489.585 437.007 489.831 436.611 488.918C433.797 487.94 418.128 490.667 414.261 491.268C415.483 482.318 416.636 473.306 418.3 464.433C423.782 463.536 434.764 462.88 440.321 463.84C441.283 462.736 441.392 462.56 440.978 461.286C438.452 459.567 434.153 460.235 431.066 460.452ZM628.289 396.085C628.492 396.914 628.552 398.056 629.085 398.058C644.665 398.123 687.064 400.869 699.879 399.658L699.882 398.058C698.66 397.101 634.858 395.77 628.289 396.085ZM627.324 414.672L627.752 416.277C629.54 417.235 695.307 417.848 700.117 417.393C699.862 416.628 699.724 415.587 699.142 415.58C680.828 415.365 644.094 414.025 627.324 414.672ZM624.899 431.039C625.343 433.148 624.781 432.503 626.175 433.416C649.707 433.165 674.764 432.937 698.316 433.371L698.437 431.763C697.237 430.549 693.056 431.005 690.742 430.992L648.802 430.901C641.722 430.89 631.686 430.57 624.899 431.039ZM355.954 551.207L356.762 552.614C359.947 553.411 391.231 553.217 394.896 552.69L394.213 551.404C391.253 550.639 359.879 550.811 355.954 551.207ZM413.824 551.191L413.662 552.446C415.415 553.693 423.796 553.158 426.416 553.091L426.401 551.799C424.779 550.342 416.449 551.087 413.824 551.191ZM445.36 551.099L445.313 552.733C447.245 553.632 482.28 553.04 487.457 553.107L487.476 551.492C485.874 550.382 449.914 550.835 445.36 551.099ZM411.35 567.1L411.641 568.908C414.101 570.267 425.358 569.582 428.751 569.445C428.541 568.579 428.55 567.686 427.957 567.525C424.059 566.466 415.465 567.03 411.35 567.1ZM356.747 567.597L357.17 569.399C358.956 570.287 392.437 569.958 396.377 569.701L396.409 567.978C394.974 566.979 360.949 567.349 356.747 567.597ZM444.774 567.594C445.431 571.462 448.145 570.266 451.686 569.996C450.773 566.143 448.535 567.311 444.774 567.594ZM459.775 567.66C460.498 568.798 460.462 569.315 461.467 569.365C466.668 569.624 483.328 569.982 487.887 569.237C486.994 568.107 486.786 567.602 484.816 567.623C478.326 567.691 465.545 566.785 459.775 567.66ZM355.508 583.189L356.355 584.864C358.963 585.606 426.413 585.417 428.625 584.391C427.777 583.245 428.087 583.159 426.379 583.067C422.719 582.87 418.797 582.931 415.118 582.923L392.815 582.885L368.739 582.86C365.727 582.859 358.019 582.702 355.508 583.189ZM444.78 583.221L445.165 584.881C446.928 585.946 489.194 585.311 495.477 585.278L495.309 583.645C493.248 582.565 450.318 583.177 444.78 583.221ZM505.786 583.13L506.408 584.761C508.847 585.569 564.918 585.313 570.221 584.888L569.64 583.363C567.939 582.619 511.038 582.759 505.786 583.13ZM355.939 599.681L356.342 601.146C357.924 601.774 422.971 601.65 428.226 601.374C427.924 600.485 427.841 599.515 427.186 599.529C407.964 599.935 373.522 598.545 355.939 599.681ZM445.42 599.673L445.631 601.417C447.439 602.307 530.587 602.005 539.183 601.843L538.859 600.033C538.58 599.866 538.3 599.698 538.021 599.531C512.534 600.089 469.64 599.011 445.42 599.673Z" fill="#B9FBC0"/>
<path d="M699.879 399.659C687.064 400.87 644.665 398.124 629.085 398.059C628.552 398.057 628.492 396.915 628.289 396.086C634.858 395.771 698.66 397.102 699.882 398.059L699.879 399.659Z" fill="#010000"/>
<path d="M126.555 577.304C90.1711 554.488 72.1816 520.528 80.6621 477.879C92.8113 416.78 163.052 389.939 216.343 416.524C218.75 417.725 221.313 418.825 223.685 420.052C228.248 422.41 232.965 426.987 238.187 427.811L238.194 431.782C232.782 429.478 225.655 423.979 220.088 420.943C145.582 380.315 58.3903 445.131 86.4791 528.397C91.3909 542.958 113.704 568.543 128.39 573.792C162.547 590.151 202.11 587.12 229.117 558.063C231.736 555.245 235.435 550.382 238.531 548.378L238.563 554.479C236.133 555.626 230.526 561.983 228.324 564.287C203.738 590.017 157.232 594.102 126.555 577.304Z" fill="#FCF4F9"/>
<path d="M128.392 573.793C113.706 568.544 91.3933 542.958 86.4815 528.397C58.3927 445.131 145.584 380.316 220.09 420.944C225.657 423.98 232.784 429.479 238.196 431.783V448.621C234.725 447.472 226.587 439.247 222.443 436.402C193.802 416.739 156.881 414.257 127.138 432.969C115.818 440.192 102.777 456.118 97.5883 468.389C83.3706 502.01 95.999 537.921 124.322 559.605C126.643 561.381 129.794 564.484 132.515 565.362C131.669 568.161 129.976 571.331 128.392 573.793Z" fill="#FDE4CF"/>
<path d="M700.117 417.392C695.307 417.847 629.54 417.234 627.752 416.276L627.324 414.671C644.094 414.024 680.828 415.364 699.142 415.579C699.724 415.586 699.862 416.627 700.117 417.392Z" fill="#010000"/>
<path d="M132.515 565.359C129.794 564.481 126.643 561.379 124.322 559.603C95.9991 537.919 83.3707 502.007 97.5884 468.386C102.777 456.115 115.818 440.189 127.138 432.966C156.881 414.254 193.802 416.736 222.443 436.399C226.587 439.244 234.725 447.469 238.196 448.618L238.125 452.945L237.929 456.149C235.133 453.989 231.98 446.926 227.761 443.458C212.48 430.896 197.476 424.578 178.236 423.099C103.364 417.347 64.1984 505.495 122.395 555.001C125.913 557.994 129.878 561.059 133.811 563.182C162.798 578.724 207.101 571.382 228.158 545.499C229.708 543.593 237.305 533.487 238.515 533.081L238.574 537.489C235.621 538.679 228.601 547.956 225.774 550.803C205.49 571.231 175.201 578.043 147.678 570.78C142.871 569.537 136.888 566.501 132.515 565.359Z" fill="#FCF4F9"/>
<path d="M133.81 563.183C129.877 561.06 125.912 557.995 122.394 555.002C64.1966 505.496 103.363 417.348 178.235 423.1C197.475 424.579 212.479 430.897 227.76 443.459C231.979 446.927 235.132 453.99 237.928 456.15C238.493 461.489 239.799 463.096 234.483 465.509C233.888 466.562 233.649 466.929 233.25 468.059C231.53 464.425 229.005 462.436 226.465 459.561C205.537 435.876 170.936 427.159 141.922 441.441C95.012 464.533 94.9119 526.723 138.852 553.157C137.449 557.078 135.872 559.57 133.81 563.183Z" fill="#FDE4CF"/>
<path d="M698.315 433.372C674.763 432.938 649.706 433.166 626.174 433.417C624.78 432.504 625.342 433.149 624.898 431.04C631.685 430.571 641.721 430.891 648.801 430.902L690.741 430.993C693.055 431.006 697.236 430.55 698.436 431.764L698.315 433.372Z" fill="#010000"/>
<path d="M138.852 553.157C94.9128 526.723 95.0129 464.533 141.922 441.441C170.936 427.159 205.537 435.876 226.465 459.561C229.005 462.436 231.53 464.425 233.25 468.059C233.987 471.738 234.419 476.296 237.016 478.914L238.495 479.484C238.489 483.342 238.551 487.393 238.469 491.23C235.307 488.568 234.298 476.941 230.359 469.747C219.84 453.21 206.049 442.71 186.736 438.46C169.528 434.672 149.032 438.656 134.27 448.217C107.334 465.664 101.541 506.046 119.044 532.026C124.943 540.782 131.193 545.738 140.232 550.905C143.007 552.191 145.844 553.398 148.774 554.483C176.313 564.65 215.448 551.411 225.972 522.683C231.474 507.664 226.028 491.137 219.495 477.465C219.389 474.066 214.716 469.509 212.19 467.155C200.449 456.209 187.283 449.922 171.094 450.191C143.175 450.655 121.366 471.991 122.644 500.28C123.221 513.043 128.364 525.712 138.215 534.161C140.222 535.882 144.303 538.972 146.74 539.872C156.981 547.426 176.064 547.107 187.509 542.498C215.643 531.168 222.604 511.599 211.935 484.085C210.273 478.278 200.248 470.973 195.04 467.904C164.86 450.121 123.34 471.642 133.43 509C136.206 519.276 142.337 524.369 150.671 530.269C151.379 530.776 151.03 530.442 151.594 531.131C153.182 532.267 154.893 532.85 156.704 533.592C179.205 542.822 212.963 528.253 208.044 500.265C207.281 495.927 206.159 493.348 204.248 489.343C200.648 481.826 191.301 474.86 183.504 472.038C167.368 466.197 148.185 473.296 142.202 490.067C137.365 503.623 142.966 519.187 156.49 524.946C166.188 527.737 174.029 529.254 183.747 525.511C198.332 519.894 202.553 509.032 197.007 494.899C191.961 487.452 186.056 482.359 177.003 480.459C157.258 476.314 141.801 495.542 153.503 513.053C155.327 515.783 157.854 516.491 161.009 516.279L161.894 517.008C168.887 522.671 195.439 515.803 188.48 500.79C187.285 497.54 185.211 495.617 182.193 494.154C178.622 491.664 177.77 490.961 173.499 489.753C168.526 490.979 164.106 492.447 161.289 497.074C159.172 500.551 158.649 505.573 161.013 508.999C165.764 510.763 167.973 495.73 178.571 495.7C182.452 498.622 182.359 499.755 183.86 504.425C182.326 508.211 180.259 511.164 175.882 509.136C180.721 506.278 182.558 504.984 179.342 499.52C178.125 498.665 177.977 498.764 176.481 498.463C172.607 499.247 170.877 502.536 169.434 505.929C167.467 506.987 165.478 509.546 164.345 511.441L164.47 512.488C164.09 513.119 162.739 514.16 162.104 514.707L161.31 514.611C161.267 514.457 160.848 513.016 160.829 512.841C160.374 508.733 156.343 506.368 157.432 501.719C161.85 482.864 181.441 485.974 190.776 498.741C195.78 508.225 188.828 514.506 181.412 519.245C174.001 523.982 163.614 518.736 159.054 520.234C153.484 519.274 149.242 511.231 147.997 506.192C143.666 488.656 159.236 475.19 176.154 478.243C185.931 480.007 193.174 484.986 199.016 492.991C205.556 508.511 201.181 520.792 185.278 527.515C175.147 531.798 164.509 530.346 154.487 526.395C149.8 524.666 144.217 518.805 141.9 514.368C133.378 498.048 139.426 480.468 155.222 471.648C173.161 461.632 197.402 471.273 206.581 488.562C224.445 522.147 186.995 546.232 157.289 536.361C154.871 535.557 152.755 534.432 150.413 533.567C144.341 529.256 138.851 525.224 135.285 518.894C113.256 479.795 158.119 444.369 194.501 464.809C200.825 468.362 211.815 475.909 213.856 482.785C216.796 489.929 219.35 496.491 219.475 504.382C220.062 541.453 174.597 557.11 144.821 542.209C133.192 534.33 126.103 526.315 122.428 512.652C109.489 464.343 160.091 431.558 201.421 456.141C206.826 459.355 220.426 470.431 221.911 476.082C221.764 477.277 225.427 485.475 226.243 487.422C242.198 525.499 212.225 557.518 174.462 560.341C160.324 561.398 151.711 558.754 138.852 553.157Z" fill="#FCF4F9"/>
<path d="M230.358 469.748C227.173 471.881 224.904 473.665 221.91 476.083C220.425 470.432 206.825 459.356 201.42 456.142C160.09 431.559 109.488 464.344 122.427 512.653C126.102 526.316 133.191 534.331 144.82 542.21C143.653 545.099 141.987 548.333 140.231 550.906C131.192 545.739 124.942 540.783 119.043 532.027C101.54 506.047 107.333 465.665 134.269 448.218C149.031 438.657 169.527 434.673 186.735 438.461C206.048 442.711 219.839 453.211 230.358 469.748ZM221.968 466.888C221.308 470.07 223.062 470.025 225.816 471.354C225.818 469.734 226.053 468.543 225.112 467.306C223.59 466.696 223.636 466.792 221.968 466.888Z" fill="#FDE4CF"/>
<path d="M624.965 449.154L625.034 447.002C626.195 446.327 692.675 446.178 699.202 446.648L699.89 447.76C698.954 449.357 697.156 449.048 695.431 449.015C678.926 448.372 661.819 449.261 645.248 448.888C638.991 448.747 631.086 448.633 624.965 449.154Z" fill="#010000"/>
<path d="M219.494 477.466C217.583 479.387 215.971 481.07 213.855 482.786C211.814 475.91 200.824 468.363 194.5 464.81C158.118 444.37 113.255 479.796 135.284 518.895C138.85 525.225 144.34 529.257 150.412 533.568C149.176 535.652 147.897 537.748 146.739 539.873C144.302 538.973 140.221 535.883 138.214 534.162C128.363 525.713 123.22 513.044 122.643 500.281C121.365 471.992 143.174 450.656 171.093 450.192C187.282 449.923 200.448 456.21 212.189 467.156C214.715 469.51 219.388 474.067 219.494 477.466Z" fill="#FDE4CF"/>
<path d="M238.124 452.945C238.487 461.855 238.291 470.621 238.495 479.483L237.016 478.913C234.419 476.295 233.987 471.737 233.25 468.058C233.649 466.928 233.888 466.561 234.483 465.508C239.799 463.095 238.493 461.488 237.928 456.149L238.124 452.945Z" fill="#90DBF4"/>
<path d="M536.196 480.928C538.39 475.299 543.556 460.506 547.507 456.648C552.303 455.419 554.085 479.075 554.858 483.475L556.25 490.359C558.485 489.841 560.815 489.052 562.993 489.454L563.557 490.251C562.137 493.294 557.791 492.794 557.349 494.643L557.396 495.166C557.781 499.094 563.031 525.258 562.755 526.03C561.546 526.381 560.888 526.427 559.865 525.436L558.818 520.902C556.911 513.051 555.485 502.584 554.287 494.572C546.981 496.057 540.988 497.307 533.594 498.259L531.083 507.01C530.161 510.374 527.272 519.85 527.641 522.786C527.155 524.216 526.968 524.839 525.492 525.063L524.789 524.152C524.18 521.477 524.534 520.976 525.326 518.215C526.702 513.759 527.762 509.039 528.862 504.494C530.628 497.248 533.86 488.039 536.196 480.928ZM548.264 459.89C544.958 466.175 542.403 473.21 539.844 479.864L538.615 483.712C537.454 487.584 535.93 491.487 534.516 495.287C538.808 494.641 549.877 493.356 553.26 491.314C553.476 490.233 553.551 490.561 553.337 489.571L551.825 482.623C550.272 474.826 548.878 467.845 548.264 459.89Z" fill="#010000"/>
<path d="M597.424 463.529C597.31 461.626 597.005 460.524 598.365 459.07C600.05 459.744 599.286 459.249 600.538 460.877C600.412 462.297 600.259 462.999 600.42 464.42C600.037 470.928 599.636 520.338 600.975 522.829C602.421 523.039 603.028 522.593 604.367 521.989C606.514 521.743 609.52 520.512 611.675 519.974C619.848 517.935 632.273 512.806 640.576 514.101L640.81 514.738C637.035 517.349 624.64 519.524 620.021 520.769C604.429 524.972 595.803 533.477 597.246 510.302C597.442 507.157 597.198 500.836 597.187 497.41C597.945 488.949 597.431 472.503 597.424 463.529Z" fill="#010000"/>
<path d="M410.329 504.028C410.942 495.521 412.674 470.961 416.886 462.919C418.098 460.605 427.849 460.537 431.069 460.451C434.156 460.234 438.455 459.566 440.981 461.285C441.395 462.559 441.286 462.735 440.324 463.839C434.767 462.879 423.785 463.535 418.303 464.432C416.639 473.305 415.486 482.317 414.264 491.267C418.131 490.666 433.8 487.939 436.614 488.917C435.654 492.167 433.066 491.764 429.916 492.239C424.831 492.985 419.07 493.731 414.034 494.637C413.77 497.089 413.464 499.566 413.335 502.025L412.573 510.142C412.457 513.933 411.956 516.474 414.212 519.781C418.88 526.625 437.145 513.379 439.882 517.191L439.636 518.295C435.641 521.318 421.397 524.756 416.208 524.926C407.833 525.2 409.735 509.69 410.329 504.028Z" fill="#010000"/>
<path d="M482.689 496.475C486.389 488.952 496.096 471.872 503.165 466.564C504.223 465.77 505.15 466.42 506.084 466.874C507.523 468.65 507.644 470.24 508.153 472.498C509.187 480.549 510.184 488.644 511.347 496.674C512.443 502.944 513.452 508.857 514.908 515.058C513.776 516.132 513.609 516.048 512.371 515.756L511.635 514.381C510.431 507.509 509.112 500.966 508.044 494.027C506.975 486.381 505.872 476.797 504.256 469.409C496.179 477.757 491.782 485.42 486.391 495.612C484.908 498.577 483.383 501.53 482.049 504.562C480.778 507.346 479.986 510.076 477.053 511.175C474.373 510.463 474.446 508.939 473.792 506.367C473.257 503.28 472.93 500.086 472.56 496.969L470.772 478.366L469.621 463.499C467.58 468.593 466.462 473.092 465.104 478.359L461.167 496.933L458.716 507.301L457.353 514.013C456.729 516.988 455.807 521.989 453.257 523.655L454.125 523.172L453.284 523.833C451.948 520.648 456.469 505.446 457.338 500.912L461.008 483.354L463.163 474.469C464.211 470.296 465.671 462.834 469.049 460.153C469.77 460.103 469.996 459.913 470.594 460.431C474.359 463.697 474.837 488.892 475.484 495.122C475.636 499.61 476.355 504.031 476.982 508.479L482.689 496.475Z" fill="#010000"/>
<path d="M539.844 479.865C542.403 473.211 544.957 466.176 548.263 459.891C548.877 467.846 550.271 474.827 551.824 482.624C545.751 482.295 545.18 480.824 539.844 479.865Z" fill="#94FA9E"/>
<path d="M211.936 484.085C210.305 485.435 208.086 487.158 206.582 488.562C197.403 471.273 173.162 461.632 155.223 471.648C139.427 480.468 133.379 498.048 141.901 514.368C144.218 518.805 149.801 524.666 154.488 526.395C153.596 529.114 153.54 529.163 151.595 531.131C151.031 530.442 151.38 530.776 150.672 530.269C142.338 524.369 136.207 519.276 133.431 509C123.341 471.642 164.861 450.121 195.041 467.904C200.249 470.973 210.274 478.278 211.936 484.085Z" fill="#FDE4CF"/>
<path d="M579.045 474.338C578.923 471.426 578.103 463.396 579.703 461.57L580.856 461.788C582.127 464.251 581.379 472.265 581.925 476.126C581.827 485.173 582.271 494.887 582.542 503.971C583.047 511.398 583.381 519.357 584.827 526.611C584.208 526.475 582.345 526.073 582.118 525.666C579.375 520.753 580.213 506.731 579.654 500.988L579.586 500.333C580.034 494.197 579.31 480.77 579.045 474.338Z" fill="#010000"/>
<path d="M581.928 476.129C582.064 474.439 582.215 472.841 582.403 471.156C585.083 468.595 593.871 462.453 597.426 463.532C597.433 472.506 597.947 488.952 597.189 497.413C592.219 498.517 589.446 503.66 582.545 503.974C582.274 494.89 581.83 485.176 581.928 476.129Z" fill="#B9FBC0"/>
<path d="M465.105 478.356C466.463 473.089 467.581 468.59 469.622 463.496L470.773 478.363C468.864 478.393 467.014 478.379 465.105 478.356Z" fill="#94FA9E"/>
<path d="M225.815 471.353C223.061 470.024 221.307 470.069 221.967 466.887C223.635 466.791 223.589 466.695 225.111 467.305C226.052 468.542 225.817 469.733 225.815 471.353Z" fill="#FCF4F9"/>
<path d="M204.248 489.345C202.743 490.467 200.618 492.166 199.016 492.993C193.174 484.988 185.931 480.009 176.154 478.245C159.236 475.192 143.666 488.658 147.997 506.194C149.242 511.233 153.484 519.276 159.054 520.236C158.107 522.265 157.704 523.088 156.49 524.948C142.966 519.189 137.365 503.625 142.202 490.069C148.185 473.298 167.368 466.199 183.504 472.04C191.301 474.862 200.648 481.828 204.248 489.345Z" fill="#FDE4CF"/>
<path d="M221.91 476.081C224.904 473.663 227.173 471.879 230.358 469.746C234.297 476.94 235.306 488.567 238.468 491.229C238.897 501.645 239.059 522.713 238.513 533.081C237.303 533.487 229.706 543.593 228.156 545.499C207.099 571.382 162.796 578.724 133.809 563.182C135.871 559.569 137.448 557.077 138.851 553.156C151.71 558.753 160.323 561.397 174.461 560.34C212.224 557.517 242.197 525.498 226.242 487.421C225.426 485.474 221.763 477.276 221.91 476.081Z" fill="#90DBF4"/>
<path d="M508.044 494.024C503.041 494.921 491.481 495.598 486.391 495.609C491.782 485.417 496.179 477.754 504.256 469.406C505.872 476.794 506.975 486.378 508.044 494.024Z" fill="#94FA9E"/>
<path d="M508.152 472.496C512.061 474.318 531.418 479.853 536.194 480.928C533.858 488.039 530.626 497.248 528.86 504.494C520.764 503.386 520.091 495.44 511.346 496.672C510.183 488.642 509.186 480.547 508.152 472.496Z" fill="#94FA9E"/>
<path d="M554.859 483.476C557.282 482.105 576.519 474.381 579.047 474.34C579.312 480.772 580.036 494.199 579.588 500.335C579.463 502.154 579.662 503.849 578.744 505.142C576.797 505.358 560.622 496.231 557.35 494.644C557.792 492.795 562.138 493.295 563.558 490.252L562.994 489.455C560.816 489.053 558.486 489.842 556.251 490.36L554.859 483.476Z" fill="#B9FBC0"/>
<path d="M213.854 482.785C215.97 481.069 217.582 479.386 219.493 477.465C226.026 491.137 231.472 507.664 225.97 522.683C215.446 551.411 176.311 564.65 148.772 554.483C145.842 553.398 143.005 552.191 140.23 550.905C141.986 548.332 143.652 545.098 144.819 542.209C174.595 557.11 220.06 541.453 219.473 504.382C219.348 496.491 216.794 489.929 213.854 482.785Z" fill="#90DBF4"/>
<path d="M461.168 496.933L465.105 478.359C467.014 478.382 468.864 478.396 470.773 478.366L472.561 496.969C468.194 496.336 465.559 495.833 461.168 496.933Z" fill="#94FA9E"/>
<path d="M197.006 494.901C194.848 496.174 192.868 497.345 190.775 498.743C181.44 485.976 161.849 482.866 157.431 501.721C156.342 506.37 160.373 508.735 160.828 512.843C160.847 513.018 161.266 514.459 161.309 514.613L162.103 514.709C162.738 514.162 164.089 513.121 164.469 512.49L167.554 512.944L161.893 517.01L161.008 516.281C157.853 516.493 155.326 515.785 153.502 513.055C141.8 495.544 157.257 476.316 177.002 480.461C186.055 482.361 191.96 487.454 197.006 494.901Z" fill="#FDE4CF"/>
<path d="M539.843 479.863C545.179 480.822 545.75 482.293 551.823 482.622L553.335 489.57C549.088 491.096 541.186 487.661 538.613 483.711L539.843 479.863Z" fill="#B9FBC0"/>
<path d="M436.611 488.917C437.007 489.83 436.903 489.584 437.557 490.371C441.648 490.719 454.35 484.113 461.008 483.352L457.338 500.91L456.653 499.944C451.676 499.286 417.757 507.956 412.57 510.142L413.332 502.025C416.882 501.395 426.42 496.467 429.414 494.05C430.071 493.52 429.787 493.52 429.913 492.239C433.063 491.764 435.651 492.167 436.611 488.917Z" fill="#94FA9E"/>
<path d="M534.516 495.29C535.93 491.49 537.454 487.587 538.615 483.715C541.188 487.665 549.09 491.1 553.337 489.574C553.551 490.564 553.476 490.236 553.26 491.317C549.877 493.359 538.808 494.644 534.516 495.29Z" fill="#94FA9E"/>
<path d="M206.579 488.563C208.083 487.159 210.302 485.436 211.933 484.086C222.602 511.6 215.641 531.169 187.507 542.499C176.062 547.108 156.979 547.427 146.738 539.873C147.896 537.748 149.175 535.652 150.411 533.568C152.753 534.433 154.869 535.558 157.287 536.362C186.993 546.233 224.443 522.148 206.579 488.563Z" fill="#90DBF4"/>
<path d="M173.499 489.754C177.77 490.962 178.622 491.665 182.193 494.155C185.211 495.618 187.285 497.541 188.48 500.791C186.278 502.179 185.609 502.538 183.86 504.426C182.359 499.756 182.452 498.623 178.571 495.701C167.973 495.731 165.764 510.764 161.013 509C158.649 505.574 159.172 500.552 161.289 497.075C164.106 492.448 168.526 490.98 173.499 489.754Z" fill="#FDE4CF"/>
<path d="M199.016 492.992C200.618 492.165 202.743 490.466 204.248 489.344C206.159 493.349 207.281 495.928 208.044 500.266C212.963 528.254 179.205 542.823 156.704 533.593C154.893 532.851 153.182 532.268 151.594 531.132C153.539 529.164 153.595 529.115 154.487 526.396C164.509 530.347 175.147 531.799 185.278 527.516C201.181 520.793 205.556 508.512 199.016 492.992Z" fill="#90DBF4"/>
<path d="M414.031 494.636C419.067 493.73 424.828 492.984 429.913 492.238C429.787 493.519 430.071 493.519 429.414 494.049C426.42 496.466 416.882 501.394 413.332 502.024C413.461 499.565 413.767 497.088 414.031 494.636Z" fill="#B9FBC0"/>
<path d="M486.393 495.612C491.483 495.601 503.043 494.924 508.046 494.027C509.114 500.966 510.433 507.509 511.637 514.381C506.8 514.555 486.682 507.206 482.051 504.562C483.385 501.53 484.91 498.577 486.393 495.612Z" fill="#B9FBC0"/>
<path d="M531.082 507.012L533.593 498.261C540.987 497.309 546.98 496.059 554.286 494.574C555.484 502.586 556.911 513.053 558.818 520.904C547.384 516.705 541.338 512.497 531.082 507.012Z" fill="#94FA9E"/>
<path d="M190.774 498.74C192.867 497.342 194.847 496.171 197.005 494.898C202.551 509.031 198.33 519.893 183.745 525.51C174.027 529.253 166.186 527.736 156.488 524.945C157.702 523.085 158.105 522.262 159.052 520.233C163.612 518.735 173.999 523.981 181.41 519.244C188.826 514.505 195.778 508.224 190.774 498.74Z" fill="#90DBF4"/>
<path d="M475.484 495.121C478.633 495.882 479.379 495.241 482.689 496.474L476.982 508.478C476.355 504.03 475.636 499.609 475.484 495.121Z" fill="#94FA9E"/>
<path d="M461.17 496.932C465.561 495.832 468.196 496.335 472.563 496.968C472.933 500.085 473.26 503.279 473.795 506.366C470.653 507.144 461.976 507.566 458.719 507.3L461.17 496.932Z" fill="#B9FBC0"/>
<path d="M511.348 496.672C520.093 495.44 520.766 503.386 528.862 504.494C527.762 509.039 526.702 513.759 525.326 518.215C522.217 517.559 516.189 517.758 514.909 515.056C513.453 508.855 512.444 502.942 511.348 496.672Z" fill="#B9FBC0"/>
<path d="M179.342 499.522C178.783 500.518 170.607 505.525 169.434 505.931C170.877 502.538 172.607 499.249 176.481 498.465C177.977 498.766 178.125 498.667 179.342 499.522Z" fill="#E6DFD5"/>
<path d="M169.433 505.929C170.606 505.523 178.782 500.516 179.341 499.52C182.557 504.984 180.72 506.278 175.881 509.136C173.324 509.377 169.773 511.577 167.554 512.942L164.469 512.488L164.344 511.441C165.477 509.546 167.466 506.987 169.433 505.929Z" fill="#FBF8CC"/>
<path d="M183.861 504.424C185.61 502.536 186.279 502.177 188.481 500.789C195.44 515.802 168.888 522.67 161.895 517.007L167.556 512.941C169.775 511.576 173.326 509.376 175.883 509.135C180.26 511.163 182.327 508.21 183.861 504.424Z" fill="#90DBF4"/>
<path d="M531.084 507.012C541.34 512.497 547.386 516.705 558.82 520.904L559.866 525.438C558.939 526.302 548.788 530.513 546.825 531.446C540.955 529.428 532.497 526.53 527.642 522.788C527.273 519.852 530.162 510.376 531.084 507.012Z" fill="#B9FBC0"/>
<path d="M132.514 565.362C136.887 566.504 142.87 569.54 147.677 570.783C175.2 578.046 205.489 571.234 225.773 550.806C228.6 547.959 235.62 538.682 238.573 537.492L238.532 548.379C235.436 550.383 231.737 555.246 229.118 558.064C202.111 587.121 162.548 590.152 128.391 573.793C129.975 571.331 131.668 568.161 132.514 565.362Z" fill="#90DBF4"/>
<path d="M394.895 552.691C391.23 553.218 359.946 553.412 356.761 552.615L355.953 551.208C359.878 550.812 391.252 550.64 394.212 551.405L394.895 552.691Z" fill="#010000"/>
<path d="M426.418 553.093C423.798 553.16 415.417 553.695 413.664 552.448L413.826 551.193C416.451 551.089 424.781 550.344 426.403 551.801L426.418 553.093Z" fill="#010000"/>
<path d="M487.457 553.108C482.28 553.041 447.245 553.633 445.312 552.734L445.359 551.1C449.913 550.836 485.873 550.383 487.475 551.493L487.457 553.108Z" fill="#010000"/>
<path d="M126.556 577.305C157.233 594.103 203.739 590.018 228.325 564.288C230.527 561.984 236.134 555.627 238.564 554.48L238.414 646.723C238.444 666.083 234.383 691.657 249.309 705.705C254.106 710.22 260.237 714.491 266.948 715.819C281.425 717.923 300.462 717.123 315.403 717.128L406.999 717.307C414.666 730.83 449.201 751.519 463.916 758.474C461.923 767.263 459.637 776.671 457.995 785.491L420.476 785.529C410.4 793.237 395.861 802.18 386.997 809.441C386.895 816.19 386.844 822.804 386.891 829.553C425.516 828.625 464.606 829.318 503.255 828.909C519.782 828.734 539.957 829.501 556.135 828.591C557.792 830.421 564.791 832.664 567.727 833.811C594.474 844.262 622.856 849.044 650.886 854.216C657.49 855.434 688.997 860.541 693.113 862.567C688.106 865.273 677.184 868.19 671.321 869.847C634.894 880.145 596.899 882.935 559.249 884.452C486.672 887.377 412.866 883.778 341.151 872C262.482 860.374 175.835 830.665 133.723 758.053C109.443 716.188 105.551 662.502 115.069 615.752C117.854 602.072 123.223 590.48 126.556 577.305Z" fill="#90DBF4"/>
<path d="M428.753 569.444C425.36 569.581 414.103 570.266 411.643 568.907L411.352 567.099C415.467 567.029 424.061 566.465 427.959 567.524C428.552 567.685 428.543 568.578 428.753 569.444Z" fill="#010000"/>
<path d="M396.376 569.701C392.436 569.958 358.955 570.287 357.169 569.399L356.746 567.597C360.948 567.349 394.973 566.979 396.408 567.978L396.376 569.701Z" fill="#010000"/>
<path d="M451.685 569.996C448.144 570.266 445.43 571.463 444.773 567.595C448.534 567.312 450.772 566.143 451.685 569.996Z" fill="#010000"/>
<path d="M487.889 569.238C483.33 569.983 466.67 569.625 461.469 569.366C460.464 569.316 460.5 568.799 459.777 567.661C465.547 566.786 478.328 567.692 484.818 567.624C486.788 567.603 486.996 568.108 487.889 569.238Z" fill="#010000"/>
<path d="M428.625 584.392C426.413 585.418 358.963 585.607 356.355 584.865L355.508 583.19C358.019 582.703 365.727 582.86 368.739 582.861L392.815 582.886L415.118 582.924C418.797 582.932 422.719 582.871 426.379 583.068C428.087 583.16 427.777 583.246 428.625 584.392Z" fill="#010000"/>
<path d="M495.478 585.277C489.195 585.31 446.929 585.945 445.166 584.88L444.781 583.22C450.319 583.176 493.249 582.564 495.31 583.644L495.478 585.277Z" fill="#010000"/>
<path d="M570.22 584.888C564.917 585.313 508.846 585.569 506.407 584.761L505.785 583.13C511.037 582.759 567.938 582.619 569.639 583.363L570.22 584.888Z" fill="#010000"/>
<path d="M428.228 601.373C422.973 601.649 357.926 601.773 356.344 601.145L355.941 599.68C373.524 598.544 407.966 599.934 427.188 599.528C427.843 599.514 427.926 600.484 428.228 601.373Z" fill="#010000"/>
<path d="M539.185 601.842C530.589 602.004 447.441 602.306 445.633 601.416L445.422 599.672C469.642 599.01 512.536 600.088 538.023 599.53C538.302 599.697 538.582 599.865 538.861 600.032L539.185 601.842Z" fill="#010000"/>
<path d="M803.633 648.418C804.663 651.639 804.079 676.533 804.121 681.808C826.908 675.157 845.254 668.746 869.664 669.541C838.788 756.652 778.617 824.449 693.896 862.56L693.115 862.566C688.999 860.54 657.492 855.433 650.888 854.215C622.858 849.043 594.476 844.261 567.729 833.81C564.793 832.663 557.794 830.42 556.137 828.59C587.728 827.734 622.171 828.021 653.847 827.968C653.945 822.008 655.208 809.562 650.8 805.157C643.183 797.916 626.792 791.204 616.762 788.299C609.651 786.24 589.571 788.581 580.85 788.093C577.119 764.71 574.865 740.768 570.962 717.067L715.614 716.775L753.197 716.658C769.611 716.603 779.606 718.068 792.326 705.636C803.435 694.78 803.999 684.736 803.616 669.896C803.44 663.077 803.553 655.299 803.633 648.418Z" fill="url(#paint3_linear_2264_39371)"/>
<path d="M240.9 656.62L362.405 656.539C366.285 670.001 384.456 693.718 393.83 704.695C396.348 707.645 400.467 711.873 402.509 714.52L315.298 714.497C300.841 714.52 282.798 715.344 268.668 713.583C262.683 712.837 255.341 707.72 250.941 703.514C238.311 691.44 240.852 673.149 240.9 656.62Z" fill="#90DBF4"/>
<path d="M362.402 656.536L801.32 656.438C801.366 664.832 801.66 673.19 801.136 681.959C800.24 696.979 787.885 711.302 772.873 713.731C762.422 714.673 749.119 714.263 738.12 714.303L669.498 714.425L446.941 714.633L402.506 714.517C400.464 711.87 396.345 707.642 393.827 704.692C384.453 693.715 366.282 669.998 362.402 656.536ZM516.749 670.21C507.756 671.958 501.848 680.62 503.503 689.63C505.157 698.64 513.758 704.638 522.785 703.076C528.707 702.051 533.623 697.925 535.658 692.269C537.693 686.614 536.534 680.301 532.622 675.737C528.71 671.174 522.649 669.063 516.749 670.21Z" fill="#F1C0E8"/>
<path d="M869.663 669.541L870.108 669.449C973.618 672.125 956.697 791.137 900.15 841.078C852.149 883.472 782.5 881.618 723.804 868.697C714.178 866.578 703.537 863.743 693.895 862.56C778.616 824.449 838.787 756.652 869.663 669.541Z" fill="url(#paint4_linear_2264_39371)"/>
<path d="M522.786 703.08C513.759 704.642 505.158 698.644 503.504 689.634C501.849 680.624 507.757 671.962 516.75 670.214C522.65 669.067 528.711 671.178 532.623 675.741C536.535 680.305 537.694 686.618 535.659 692.273C533.624 697.929 528.708 702.055 522.786 703.08ZM527.079 674.319C523.02 671.915 518.026 671.704 513.778 673.758C509.53 675.811 506.593 679.855 505.955 684.53C505.001 691.519 509.367 698.136 516.168 700.008C522.969 701.881 530.106 698.431 532.864 691.938C535.622 685.446 533.149 677.914 527.079 674.319Z" fill="#010000"/>
<path d="M505.957 684.527C506.595 679.852 509.532 675.808 513.78 673.755C518.028 671.701 523.022 671.912 527.081 674.316C526.991 676.453 527.131 677.098 526.154 678.91C523.573 681.021 518.369 680.015 515.36 681.311C512.482 682.551 510.316 684.511 507.236 685.575C506.089 685.185 506.502 685.549 505.957 684.527Z" fill="#FCF4F9"/>
<path d="M527.079 674.316C533.149 677.911 535.622 685.443 532.864 691.935C530.106 698.428 522.969 701.878 516.168 700.005C509.367 698.133 505.001 691.516 505.955 684.527C506.5 685.549 506.087 685.185 507.234 685.575C510.314 684.511 512.48 682.551 515.358 681.311C518.367 680.015 523.571 681.021 526.152 678.91C527.129 677.098 526.989 676.453 527.079 674.316Z" fill="#F1C0E8"/>
<path d="M466.109 759.087L475.11 717.204L568.234 717.023C571.031 733.772 574.967 756.864 576.752 773.612L576.396 774.346C574.041 775.016 566.292 772.212 562.97 772.165C548.192 771.959 531.609 769.458 516.974 770.66C495.555 769.172 486.112 766.532 466.109 759.087Z" fill="#F1C0E8"/>
<path d="M407 717.305C428.715 717.291 451.11 717.039 472.793 717.368L463.917 758.472C449.202 751.517 414.667 730.828 407 717.305Z" fill="#F1C0E8"/>
<path d="M460.719 785.465C461.935 777.188 464.355 767.461 466.109 759.086C486.112 766.531 495.555 769.171 516.974 770.659C509.87 774.413 485.377 774.095 486.346 785.465H460.719Z" fill="#90DBF4"/>
<path d="M516.976 770.661C531.611 769.459 548.194 771.96 562.972 772.166C566.294 772.213 574.043 775.017 576.398 774.347L576.754 773.613C577.466 776.814 577.861 782.208 578.213 785.622L486.348 785.467C485.379 774.097 509.872 774.415 516.976 770.661Z" fill="#ED9EF2"/>
<path d="M421.491 788.015C441.366 787.137 467.534 787.949 487.889 787.922C490.335 790.453 493.832 790.477 497.209 790.386C500.163 794.558 516.389 802.646 521.67 809.201C478.458 809.094 435.027 809.733 391.855 809.283C401.429 801.815 411.512 794.936 421.491 788.015Z" fill="#90DBF4"/>
<path d="M487.891 787.924C497.483 787.607 575.888 787.23 579.373 788.382L578.574 789.954L579.383 790.542C554.189 791.718 522.401 790.9 497.211 790.388C493.834 790.479 490.337 790.455 487.891 787.924Z" fill="#832585"/>
<path d="M497.211 790.387C522.401 790.899 554.189 791.717 579.383 790.541C587.2 790.397 609.739 789.107 616.521 790.727C626.867 793.197 644.638 800.992 651.529 809.16C613.951 809.981 576.099 808.612 538.494 809.284C532.909 809.383 527.26 809.328 521.672 809.202C516.391 802.647 500.165 794.559 497.211 790.387Z" fill="#ED9EF2"/>
<path d="M389.03 811.645C401.64 812.336 419.444 811.688 432.484 811.689L523.831 811.574C528.038 817.759 540.166 820.472 546.135 824.625C546.893 825.152 546.35 825.585 547.492 826.392L389.03 826.944C388.974 821.847 389.011 816.743 389.03 811.645Z" fill="#90DBF4"/>
<path d="M523.832 811.575L651.529 811.539L651.531 825.729C617.059 825.647 581.948 825.637 547.493 826.393C546.351 825.586 546.894 825.153 546.136 824.626C540.167 820.473 528.039 817.76 523.832 811.575Z" fill="#ED9EF2"/>
</g>
<defs>
<linearGradient id="paint0_linear_2264_39371" x1="464.076" y1="223.717" x2="379.51" y2="235.107" gradientUnits="userSpaceOnUse">
<stop stop-color="#FFFFE7"/>
<stop offset="1" stop-color="#FEFDFD"/>
</linearGradient>
<linearGradient id="paint1_linear_2264_39371" x1="367.364" y1="265.116" x2="409.368" y2="276.102" gradientUnits="userSpaceOnUse">
<stop stop-color="#FDFFAE"/>
<stop offset="1" stop-color="#EFE4CB"/>
</linearGradient>
<linearGradient id="paint2_linear_2264_39371" x1="497.771" y1="284.11" x2="540.721" y2="680.588" gradientUnits="userSpaceOnUse">
<stop stop-color="#F7F4D2"/>
<stop offset="1" stop-color="#F7C3FD"/>
</linearGradient>
<linearGradient id="paint3_linear_2264_39371" x1="755.362" y1="829.898" x2="670.506" y2="666.961" gradientUnits="userSpaceOnUse">
<stop stop-color="#EBA3EF"/>
<stop offset="1" stop-color="#FEC5F7"/>
</linearGradient>
<linearGradient id="paint4_linear_2264_39371" x1="919.597" y1="822.436" x2="750.206" y2="746.166" gradientUnits="userSpaceOnUse">
<stop stop-color="#FCB68B"/>
<stop offset="1" stop-color="#FDD3B1"/>
</linearGradient>
<clipPath id="clip0_2264_39371">
<rect width="1024" height="1024" fill="white"/>
</clipPath>
</defs>
</svg>
