<svg width="1024" height="1024" viewBox="0 0 1024 1024" fill="none" xmlns="http://www.w3.org/2000/svg">
<g clip-path="url(#clip0_2264_39480)">
<path d="M0 0H1024V230.582L1019.56 224.164C973.906 159.327 891.024 98.1455 811.702 84.7021C757.023 75.1668 699.453 93.9273 655.843 127.104C633.834 143.848 613.497 162.513 590.378 178.85C560.121 164.322 534.277 149.08 503.094 135.721C441.799 109.461 375.732 110.211 313.191 132.678C247.436 156.299 178.794 210.251 137.376 266.748C129.143 277.979 116.62 300.559 110.676 312.802C88.3639 358.753 75.5145 414.702 82.1556 465.738C83.3491 474.909 84.731 482.873 86.9836 491.9C87.684 494.707 90.1124 504.152 90.3487 506.536C86.4888 508.197 79.3028 515.043 76.2545 518.072C42.0936 552.012 19.4487 595.942 6.45881 641.998C4.89101 647.557 2.02696 663.485 0 667.624V0Z" fill="#E6DFD5"/>
<path d="M590.378 178.851C613.497 162.514 633.834 143.849 655.843 127.105C699.453 93.9287 757.023 75.1682 811.702 84.7035C891.024 98.1469 973.906 159.328 1019.56 224.165L1024 230.583V479.504C1020.34 486.058 1017.58 495.753 1014.67 502.819C1005.61 524.755 996.004 543.228 981.936 562.446C962.338 589.221 939.383 611.747 912.445 631.213C906.384 635.656 894.45 644.534 887.683 646.986C895.384 626.214 905.125 606.113 911.619 584.915C922.023 550.957 932.201 513.998 935.887 478.62C944.832 392.761 928.398 304.982 879.692 232.793C855.366 196.739 827.777 167.959 785.533 153.375C747.011 139.409 706.092 139.167 666.465 148.927C655.543 151.617 643.072 155.121 632.958 159.868C629.014 161.719 612.021 169.817 610.307 172.629L610.814 173.036C614.052 172.108 618.797 169.812 621.939 168.2C676.172 140.386 753.544 136.421 807.512 166.6C866.088 199.356 902.541 269.181 921.009 331.253C924.422 342.54 926.256 354.622 928.388 365.948C946.198 460.574 923.043 555.853 885.156 642.622C883.951 645.383 882.873 648.204 881.561 650.956L880.903 651.087C877.689 645.48 874.664 638.562 871.227 632.54C856.542 606.808 842.156 594.374 819.23 577.365C824.454 557.097 826.289 533.791 825.913 512.875C824.552 434.868 795.101 358.108 738.318 303.579C681.804 249.308 609.43 222.078 531.487 223.12L530.82 222.359C531.163 221.358 532.003 219.73 532.956 219.261C550.039 210.856 556.202 205.852 566.94 189.854C571.662 188.218 582.118 183.702 585.938 181.089C593.374 184.103 602.515 189.521 610.267 192.914C640.242 206.034 670.967 208.774 703.321 206.279C706.866 206.006 719.168 205.536 721.159 203.267L720.928 202.351C718.553 200.951 713.583 202.551 710.783 202.862C669.874 207.419 625.942 199.277 590.378 178.851Z" fill="#BDF1DC"/>
<path d="M90.3497 506.537C90.1134 504.153 87.685 494.708 86.9846 491.901C84.732 482.874 83.3501 474.91 82.1566 465.739C75.5155 414.703 88.3649 358.754 110.677 312.803C116.621 300.56 129.144 277.98 137.377 266.749C178.795 210.252 247.437 156.3 313.192 132.679C375.733 110.212 441.8 109.462 503.095 135.722C534.278 149.081 560.122 164.323 590.379 178.851C625.943 199.277 669.875 207.419 710.784 202.862C713.584 202.551 718.554 200.951 720.929 202.351L721.16 203.267C719.169 205.536 706.867 206.006 703.322 206.279C670.968 208.774 640.243 206.034 610.268 192.914C602.516 189.521 593.375 184.103 585.939 181.089C562.43 169.842 540.294 156.656 516.194 145.281C452.728 115.326 383.771 112.365 317.415 135.72C252.806 158.461 190.207 206.746 147.428 260.158C136.041 274.377 120.528 299.804 112.805 316.473C93.7837 357.529 80.8134 408.482 84.8089 454.004C85.6827 463.959 87.1499 474.078 89.0084 483.874C90.1849 490.075 92.2298 496.8 93.2705 502.766L94.2204 507.459C93.5236 506.543 92.9205 505.79 92.1746 504.914L91.5156 504.976C91.0562 506.319 91.0525 506.398 90.9056 507.816L90.3497 506.537Z" fill="url(#paint0_linear_2264_39480)"/>
<path d="M93.2683 502.763C92.2276 496.797 90.1827 490.072 89.0062 483.871C87.1477 474.075 85.6805 463.956 84.8067 454.001C80.8112 408.479 93.7815 357.526 112.803 316.47C120.526 299.801 136.039 274.374 147.426 260.155C190.205 206.743 252.804 158.458 317.413 135.717C383.769 112.362 452.726 115.323 516.192 145.278C540.292 156.653 562.428 169.839 585.937 181.086C582.117 183.699 571.661 188.215 566.939 189.851C523.461 198.578 493.103 186.386 453.834 170.513C368.731 136.114 273.901 177.581 225.705 251.966C187.152 310.984 177.974 386.501 192.222 455.012C194.933 467.765 197.035 473.901 202.324 485.956C175.958 474.989 147.932 476.154 121.796 487.127C113.738 490.51 99.4577 497.179 93.2683 502.763Z" fill="#E6DFD5"/>
<path d="M881.56 650.954C882.872 648.202 883.95 645.381 885.155 642.62C923.042 555.851 946.197 460.572 928.387 365.946C926.255 354.62 924.421 342.538 921.008 331.251C902.54 269.179 866.087 199.354 807.511 166.598C753.543 136.419 676.171 140.384 621.938 168.198C618.796 169.81 614.051 172.106 610.813 173.034L610.306 172.627C612.02 169.815 629.013 161.717 632.957 159.866C643.071 155.119 655.542 151.615 666.464 148.925C706.091 139.165 747.01 139.407 785.532 153.373C827.776 167.957 855.365 196.737 879.691 232.791C928.397 304.98 944.831 392.759 935.886 478.618C932.2 513.996 922.022 550.955 911.618 584.913C905.124 606.111 895.383 626.212 887.682 646.984C886.014 650.907 884.337 654.747 882.903 658.765C865.795 697.004 844.002 739.461 820.552 774.056C794.815 812.024 754.833 849.623 716.936 875.275C699.628 886.99 672.826 899.312 653.627 907.473C621.481 921.136 584.567 924.983 550.095 920.825C540.949 919.781 529.225 916.393 520.929 915.827C518.429 914.826 515.793 914.084 513.199 913.381C485.355 905.845 458.73 894.955 432.624 882.753C413.241 873.693 392.469 864.528 373.852 853.932C374.993 852.483 375.045 852.564 376.644 851.803L378.121 852.088C382.41 854.82 393.117 859.518 398.257 862.036C430.853 878.004 472.428 898.132 507.488 907.294C513.001 909.777 525.807 912.144 531.958 913.636C592.996 928.448 651.184 909.792 703.562 878.107C744.222 853.511 783.43 817.267 812.092 779.189C827.269 759.027 840.091 733.869 852.441 711.767C861.818 693.269 874.849 670.322 881.56 650.954Z" fill="#D0A866"/>
<path d="M202.326 485.958C197.037 473.903 194.935 467.767 192.224 455.014C177.976 386.503 187.154 310.986 225.707 251.968C273.903 177.583 368.733 136.116 453.836 170.515C493.105 186.388 523.463 198.58 566.941 189.853C556.203 205.851 550.04 210.855 532.957 219.26C532.004 219.729 531.164 221.357 530.821 222.358L531.488 223.119C448.487 226.754 381.387 254.743 325.832 317.658C287.931 360.58 264.799 412.298 254.539 468.414C253.572 473.703 253.106 479.353 251.994 484.631C249.393 492.681 245.321 503.487 242.02 511.301C238.296 510.69 225.391 502.805 221.474 500.443C216.103 497.204 210.008 489.829 204.053 487.611L202.326 485.958ZM376.292 204.181C348.404 207.642 318.259 221.604 296.022 238.821C295.694 239.075 295.49 239.596 295.317 239.972L295.935 240.25L296.997 239.59C318.575 223.588 343.527 211.626 370.094 206.819C372.005 206.473 377.775 205.76 378.981 204.903C378.233 203.954 377.555 204.061 376.292 204.181ZM346.592 229.534C329.543 236.438 322.551 242.012 308.469 253.128L308.312 253.828L309.281 254.626C321.62 245.171 332.171 236.532 347.048 231.01L347.197 230.168L346.592 229.534ZM355.936 247.035C323.437 261.763 295.94 285.907 276.361 315.633C269.36 326.262 260.348 346.309 259.213 359.272C259.421 359.568 259.702 360.036 259.955 360.245C268.06 317.329 302.97 277.806 340.672 256.959C344.177 255.021 354.464 250.477 356.319 247.975L355.936 247.035ZM275.855 250.311C269.432 253.762 251.654 272.934 262.8 277.783C269.843 274.343 275.052 265.179 277.976 258.155C279.18 255.264 279.91 251.045 275.855 250.311Z" fill="#F1C0E8"/>
<path d="M296.996 239.592L295.934 240.252L295.316 239.974C295.489 239.598 295.693 239.077 296.021 238.823C318.258 221.606 348.403 207.644 376.291 204.183C377.554 204.063 378.232 203.956 378.98 204.905C377.774 205.762 372.004 206.475 370.093 206.821C343.526 211.628 318.574 223.59 296.996 239.592Z" fill="#010101"/>
<path d="M242.019 511.301C245.32 503.487 249.392 492.681 251.993 484.631C253.105 479.353 253.571 473.703 254.538 468.414C264.798 412.298 287.93 360.58 325.831 317.658C381.386 254.743 448.486 226.754 531.487 223.119C609.43 222.077 681.804 249.307 738.318 303.578C795.101 358.107 824.552 434.867 825.913 512.874C826.289 533.79 824.454 557.096 819.23 577.364C813.533 606.932 801.555 634.951 787.151 661.248C782.899 669.009 777.846 678.416 772.568 685.53C755.286 710.351 740.892 725.186 717.688 743.879C679.695 774.485 637.682 795.859 589.277 804.247C545.838 812.048 499.25 810.513 457.054 796.557C444.348 793.345 430.5 787.659 418.533 782.203C408.945 777.832 399.593 771.808 389.9 767.973C388.329 767.351 382.281 766.455 380.39 766.167C324.812 757.583 260.521 768.372 214.944 802.538C201.497 812.618 190.576 823.735 178.352 835.078C137.039 809.144 100.996 762.356 83.2606 717.081C79.4404 707.328 68.8825 677.255 73.1049 667.572C74.5373 664.287 88.7219 660.652 93.0955 659.017C158.658 634.505 211.731 576.133 240.876 513.977L242.019 511.301ZM603.012 233.215C587.437 230.525 567.395 226.917 551.934 226.273C489.808 223.684 426.956 239.075 376.124 275.666C310.494 322.909 269.787 393.77 256.441 473.044C254.657 483.643 252.843 499.462 252.981 510.061C252.551 527.385 252.928 558.209 259.873 574.502C260.618 576.927 262.98 583.312 261.996 585.533C260.707 585.013 260.133 583.754 259.607 582.502C252.887 566.497 250.964 550.996 249.501 534.056C241.594 547.208 233.629 561.338 224.412 573.638C192.339 616.438 132.374 675.027 76.0843 679.251C82.5544 720.175 104.863 758.368 131.573 789.39C142.555 802.145 153.885 814.086 167.825 823.677C168.634 814.085 180.564 802.818 187.515 797.051C228.292 763.224 285.031 746.497 337.453 746.006C343.517 745.949 353.555 745.785 359.454 746.308L360.326 746.391C351.972 739.67 345.802 733.898 336.662 727.981C314.56 713.675 296.196 691.348 287.359 666.501C286.392 663.777 283.963 659.963 285.288 657.306L286.145 657.099C287.681 659.547 293.301 674.324 295.872 679.384C302.472 692.822 316.543 710.587 329.216 718.586C318.491 707.654 304.682 692.641 298.346 678.677C301.224 679.225 305.713 686.436 307.775 689.125C346.664 739.854 398.016 774.814 458.929 793.634C513.697 812.137 583.62 808.263 637.223 787.618C687.098 768.408 739.552 728.583 769.511 684.183C771.094 682.417 778.444 669.648 779.752 667.418C798.204 635.964 811.085 604.509 818.048 568.653C821.608 550.323 822.39 538.701 822.61 520.068C823.278 463.535 807.214 403.061 776.745 355.308C746.341 307.659 700.368 270.391 648.561 248.327C632.544 241.506 620.172 236.858 603.012 233.215ZM370.284 753.538C369.276 752.746 366.486 750.512 365.203 750.385C299.488 743.882 223.099 763.173 176.496 812.148C173.367 815.437 171.517 820.712 170.496 824.953C172.881 826.701 176.294 829.061 178.462 830.919C190.312 818.923 203.54 806.658 217.323 796.899C259.261 767.204 315.34 756.733 365.899 761.198C372.301 761.871 378.58 762.526 384.911 763.712C379.808 760.359 375.173 757.2 370.284 753.538ZM250.667 498.377C247.425 504.126 245.47 510.833 242.668 516.865C221.29 562.892 187.476 604.31 146.171 633.868C128.733 646.346 110.492 656.496 90.0216 663.102C82.6009 665.496 73.085 666.233 75.2047 676.092C119.463 673.728 170.428 631.347 199.127 599.889C212.765 584.939 225.389 568.003 236.191 550.871C240.806 543.552 245.105 533.989 249.462 527.423C249.55 523.386 250.909 500.372 250.667 498.377Z" fill="#010101"/>
<path d="M252.98 510.062C252.842 499.464 254.656 483.645 256.44 473.046C269.786 393.772 310.493 322.91 376.123 275.667C426.955 239.076 489.807 223.686 551.933 226.275C567.394 226.919 587.436 230.527 603.011 233.217C602.855 240.115 602.955 247.832 602.584 254.605C585.213 250.953 568.12 247.914 550.403 246.847C496.235 243.584 439.455 257.046 393.7 286.517C313.875 337.935 273.864 424.909 269.875 517.746C269.707 519.699 269.995 520.55 269 521.825L267.501 521.892C261.718 518.3 262.973 511.911 252.98 510.062Z" fill="url(#paint1_linear_2264_39480)"/>
<path d="M309.281 254.627L308.312 253.829L308.469 253.129C322.551 242.013 329.543 236.439 346.592 229.535L347.198 230.169L347.048 231.011C332.171 236.533 321.62 245.172 309.281 254.627Z" fill="#010101"/>
<path d="M603.013 233.215C620.173 236.858 632.545 241.506 648.562 248.327C700.369 270.391 746.342 307.659 776.746 355.308C807.215 403.061 823.279 463.535 822.611 520.068C822.391 538.701 821.609 550.323 818.049 568.653C811.086 604.509 798.205 635.964 779.753 667.418C778.445 669.648 771.095 682.417 769.512 684.183C764.007 683.397 754.312 684.555 747.039 683.611C767.681 656.886 785.047 622.57 793.825 589.857C813.222 517.573 803.19 428.687 761.941 365.642C726.819 311.961 665.068 268.172 602.586 254.603C602.957 247.83 602.857 240.113 603.013 233.215Z" fill="url(#paint2_linear_2264_39480)"/>
<path d="M541.212 249.489C478.081 246.129 412.117 270.387 364.81 312.122C307.042 363.086 271.497 445.97 273.077 523.02C273.498 538.288 274.833 555.578 278.57 570.458C290.867 619.437 321.676 678.059 380.275 675.495C405.3 674.401 424.195 663.093 439.515 643.904C440.758 642.503 441.975 640.504 443.03 638.937C464.655 606.833 451.113 561.487 419.031 541.423C416.193 539.459 414.148 538.413 411.094 536.819C403.324 533.039 398.534 531.822 390.086 530.421C371.195 528.442 352.088 530.34 337.416 543.698C323.331 554.502 313.863 568.145 308.55 584.995C305.005 603.781 309.254 618.425 319.519 634.114C338.97 663.844 384.831 671.303 413.408 650.7C418.305 647.169 421.618 644.017 425.702 639.586C444.207 617.969 442.216 583.426 423.231 562.922C401.819 539.797 368.134 533.711 342.777 554.008C329.505 564.63 322.482 577.53 321.959 594.531C322.071 614.86 328.204 630.535 343.797 644.041C347.968 647.654 353.95 651.452 357.148 655.815C331.958 647.254 317.988 617.728 319.707 592.475C320.394 588.507 320.898 584.421 322.192 580.612C330.567 555.945 351.762 540.588 377.39 540.405C425.289 541.983 454.639 590.232 431.962 633.438L427.457 639.689C406.494 670.675 354.884 672.946 328.8 647.883C316.08 635.661 305.018 616.021 304.73 598.023C304.402 577.484 314.518 561.288 328.248 546.965C343.314 532.608 360.412 526.786 381.014 526.527C403.896 528.159 423.193 535.78 438.091 553.569C460.778 580.659 462.784 617.387 441.988 645.663C439.513 648.701 437.125 651.526 434.395 654.34C403.557 686.134 350.873 686.56 319.447 655.296C302.982 638.915 295.265 624.682 286.373 603.993C274.028 575.27 269.993 548.795 269.875 517.744C273.864 424.907 313.875 337.933 393.7 286.515C439.455 257.044 496.235 243.582 550.403 246.845C568.12 247.912 585.213 250.95 602.584 254.602C665.066 268.171 726.817 311.96 761.939 365.641C803.188 428.686 813.22 517.572 793.823 589.856C785.045 622.569 767.679 656.885 747.037 683.61C705.21 737.86 639.715 776.681 571.626 785.6C536.067 790.259 512.374 788.126 477.342 780.737C466.474 778.978 454.117 773.669 443.822 769.702C393.701 750.383 349.374 717.953 316.546 675.367C314.784 673.08 310.242 668.247 310.515 665.459L311.404 664.734C312.847 664.731 312.909 664.464 313.9 665.892C322.041 677.63 331.268 687.939 341.151 698.282C377.137 735.943 429.576 766.028 480.224 777.901C516.98 787.217 551.482 786.283 588.606 779.459C642.573 769.538 713.464 727.193 744.359 681.594C749.094 676.58 756.981 663.744 760.74 657.671C795.64 601.011 806.446 537.13 796.943 471.749C788.043 410.518 765.189 363.641 719.729 321.44C680.545 285.063 637.144 262.555 583.987 254C569.694 251.699 555.733 249.085 541.212 249.489Z" fill="#010101"/>
<path d="M259.953 360.245C259.7 360.036 259.419 359.568 259.211 359.272C260.346 346.309 269.358 326.262 276.359 315.633C295.938 285.907 323.435 261.763 355.934 247.035L356.317 247.975C354.462 250.477 344.175 255.021 340.67 256.959C302.968 277.806 268.058 317.329 259.953 360.245Z" fill="#010101"/>
<path d="M273.078 523.02C271.498 445.97 307.043 363.086 364.811 312.122C412.118 270.387 478.082 246.129 541.213 249.489C538.618 250.369 535.358 250.325 532.611 250.293C442.829 249.256 357.241 298.928 313.082 377.114C311.333 380.211 311.868 381.609 309.43 384.303C308.969 389.021 314.495 389.525 310.736 393.253L310.97 394.008C312.136 394.441 312.709 394.16 313.959 393.906L314.907 395.74C317.238 393.643 319.944 385.855 322.247 382.261C330.861 368.634 343.679 357.727 358.836 352.078C361.813 350.969 365.39 349.119 368.553 349.268C370.997 349.383 377.784 345.935 379.414 348.118L378.802 348.287C375.506 349.17 371.581 349.161 367.868 350.166C306.89 366.688 293.611 440.583 344.262 477.982C340.891 484.894 336.889 492.821 334.394 499.987C329.95 512.749 328.947 525.478 320.735 536.794C308.865 535.905 298.407 527.986 287.585 524.045C284.242 522.828 277.335 523.914 273.078 523.02Z" fill="#F1C0E8"/>
<path d="M541.213 249.491C555.734 249.087 569.695 251.701 583.988 254.002C637.145 262.557 680.546 285.065 719.73 321.442C765.19 363.643 788.044 410.52 796.944 471.751C806.447 537.132 795.641 601.013 760.741 657.673C756.982 663.746 749.095 676.582 744.36 681.596C739.173 679.955 727.893 678.714 724.27 675.501C758.247 655.288 773.538 615.52 756.179 578.684C740.11 544.586 698.982 527.665 663.222 538.593C649.324 542.84 638.442 549.965 627.944 559.966C621.701 559.721 607.323 562.518 604.45 561.027C605.703 549.217 597.408 538.524 585.657 536.801C573.906 535.079 562.892 542.943 560.704 554.616C558.516 566.29 565.935 577.608 577.512 580.258C575.587 589.581 571.653 595.871 571.656 606.238C571.658 610.714 572.113 628.225 570.62 630.874C559.904 625.644 550.718 622.118 538.699 621.531C508.897 620.077 481.964 633.018 466.971 659.144C460.258 658.214 447.098 649.956 441.989 645.665C462.785 617.389 460.779 580.661 438.092 553.571C423.194 535.782 403.897 528.161 381.015 526.529C380.902 521.259 381.758 515.011 382.166 509.661C382.575 504.294 382.595 499.857 382.58 494.483C460.902 503.869 499.183 418.248 439.872 367.034C421.58 351.239 403.051 347.341 379.414 348.12C377.784 345.937 370.997 349.385 368.553 349.27C365.39 349.121 361.813 350.971 358.836 352.08C343.679 357.729 330.861 368.636 322.247 382.263C319.944 385.857 317.238 393.645 314.907 395.742L313.959 393.908C312.709 394.162 312.136 394.443 310.97 394.01L310.736 393.255C314.495 389.527 308.969 389.023 309.43 384.305C311.868 381.611 311.333 380.213 313.082 377.116C357.241 298.93 442.829 249.258 532.611 250.295C535.358 250.327 538.618 250.371 541.213 249.491ZM540.5 257.734C499.212 260.485 467.948 296.15 470.626 337.444C473.304 378.737 508.912 410.065 550.21 407.461C591.614 404.851 623.038 369.132 620.354 327.734C617.669 286.335 581.894 254.975 540.5 257.734ZM690.584 353.757C649.315 354.732 616.664 389.003 617.688 430.271C618.712 471.539 653.022 504.149 694.289 503.076C735.486 502.005 768.029 467.765 767.007 426.566C765.985 385.368 731.784 352.784 690.584 353.757ZM535.54 431.758C523.04 432.978 513.924 444.141 515.226 456.632C516.528 469.124 527.751 478.166 540.234 476.782C552.6 475.41 561.54 464.313 560.25 451.938C558.96 439.563 547.923 430.55 535.54 431.758ZM585.239 453.992C572.867 454.129 562.95 464.272 563.091 476.643C563.232 489.015 573.377 498.928 585.748 498.784C598.115 498.64 608.024 488.5 607.883 476.133C607.743 463.767 597.605 453.855 585.239 453.992ZM485.884 455.775C474.106 457.249 465.755 467.994 467.235 479.771C468.715 491.548 479.464 499.893 491.24 498.408C503.009 496.924 511.348 486.183 509.869 474.414C508.39 462.645 497.653 454.301 485.884 455.775ZM529.954 487.871C513.758 490.406 502.637 505.527 505.043 521.742C507.449 537.957 522.481 549.198 538.714 546.922C555.132 544.62 566.529 529.38 564.096 512.981C561.663 496.583 546.333 485.308 529.954 487.871ZM454.904 505.485C442.806 513.559 463.173 521.42 466.195 518.98C464.176 514.486 454.71 516.082 454.766 510.044C455.237 509.358 455.405 508.772 456.087 508.746C460.415 508.578 468.608 511.582 472.668 512.91C476.367 514.149 489.969 519.332 492.66 517.617C492.8 516.759 493.012 516.806 492.498 516.245C491.382 515.023 464.669 507.045 461.115 506.217C459.024 505.73 457.051 505.511 454.904 505.485ZM584.374 511.595C582.432 512.486 581.733 512.584 580.622 514.279C577.94 526.89 612.738 525.546 617.896 517.255C618.076 515.474 618.043 515.151 616.65 513.786C608.877 519.944 602.333 520.469 592.566 519.644C589.093 519.35 585.952 518.38 583.208 516.18L583.038 515.41C585.415 513.741 589.955 514.764 591.853 512.963L591.294 511.936C588.874 511.258 586.896 511.511 584.374 511.595ZM476.768 533.636C465.051 535.599 457.131 546.674 459.062 558.397C460.992 570.119 472.045 578.069 483.773 576.171C495.547 574.266 503.535 563.161 501.597 551.392C499.658 539.623 488.531 531.666 476.768 533.636ZM526.204 559.447C514.616 562.129 507.366 573.661 509.972 585.266C512.578 596.872 524.062 604.198 535.684 601.669C547.415 599.116 554.825 587.5 552.194 575.786C549.564 564.073 537.9 556.74 526.204 559.447Z" fill="#BDF1DC"/>
<path d="M262.798 277.784C251.652 272.935 269.43 253.763 275.853 250.312C279.908 251.047 279.178 255.265 277.974 258.156C275.05 265.18 269.841 274.344 262.798 277.784ZM275.918 251.813C270.958 255.309 255.17 270.408 262.268 276.469C266.619 274.501 269.261 271.17 271.752 267.214C273.744 264.05 278.61 255.93 277.035 252.315L275.918 251.813Z" fill="#010101"/>
<path d="M262.27 276.468C255.172 270.407 270.96 255.309 275.92 251.812L277.037 252.314C278.612 255.929 273.746 264.049 271.754 267.213C269.263 271.169 266.621 274.5 262.27 276.468Z" fill="#F1C0E8"/>
<path d="M550.209 407.458C508.911 410.062 473.303 378.734 470.625 337.441C467.947 296.147 499.211 260.482 540.499 257.731C581.893 254.972 617.668 286.332 620.353 327.731C623.037 369.129 591.613 404.848 550.209 407.458ZM598.484 284.615C591.762 277.791 585.253 272.261 576.594 267.882C536.212 247.462 487.732 268.423 476.109 312.499C464.443 356.732 499.934 406.446 546.777 405.232C602.851 403.778 635.113 346.099 607.654 296.934C604.72 292.004 602.294 288.86 598.484 284.615Z" fill="#010101"/>
<path d="M607.654 296.936C635.113 346.101 602.851 403.78 546.777 405.234C499.934 406.448 464.443 356.734 476.109 312.501C487.732 268.425 536.212 247.464 576.594 267.884C585.253 272.263 591.762 277.793 598.484 284.617C594.443 286.23 590.417 285.965 586.82 287.178C564.303 266.536 529.971 265.79 506.578 285.434C483.185 305.078 477.984 339.022 494.422 364.769C510.86 390.516 543.84 400.084 571.505 387.131C599.17 374.178 612.942 342.721 603.694 313.607C604.679 309.102 604.799 303.793 605.982 299.202C606.48 297.274 606.021 297.919 607.654 296.936Z" fill="#A3C4F3"/>
<path d="M603.695 313.606C612.943 342.72 599.171 374.177 571.506 387.13C543.841 400.083 510.861 390.515 494.423 364.768C477.985 339.021 483.186 305.077 506.579 285.433C529.972 265.789 564.304 266.535 586.821 287.177C594.658 294.361 600.476 303.474 603.695 313.606ZM582.559 291.912C563.119 275.833 535.409 274.486 514.5 288.601C493.591 302.717 484.483 328.922 492.128 352.963C499.474 376.065 520.658 391.969 544.892 392.577C569.126 393.185 591.08 378.363 599.576 355.659C608.071 332.955 601.239 307.361 582.559 291.912ZM589.872 295.509C584.212 289.35 579.27 283.286 571.688 279.431C541.632 264.152 508.312 273.779 494.019 304.883C492.604 308.104 491.875 310.136 490.803 313.496C492.439 310.818 493.998 308.188 495.57 305.472C511.107 283.909 536.02 273.248 562.384 280.06C572.872 282.771 581.888 287.738 589.048 295.972C592.667 300.304 595.398 304.828 598.923 309.012C598.056 305.701 592.458 298.176 589.872 295.509Z" fill="#010101"/>
<path d="M494.02 304.885C508.313 273.781 541.633 264.154 571.689 279.433C579.271 283.288 584.213 289.352 589.873 295.511L589.048 295.974C581.888 287.74 572.872 282.773 562.384 280.062C536.02 273.25 511.108 283.911 495.571 305.474L494.02 304.885Z" fill="#F1C0E8"/>
<path d="M492.128 352.964C484.483 328.923 493.591 302.718 514.5 288.602C535.409 274.487 563.119 275.834 582.559 291.913L582.144 292.066C575.685 294.385 569.051 295.241 562.464 298.043C540.809 307.255 520.59 319.377 504.202 336.462C499.342 341.529 494.893 346.429 492.128 352.964Z" fill="#F1C0E8"/>
<path d="M598.484 284.617C602.294 288.862 604.72 292.006 607.654 296.936C606.021 297.919 606.48 297.274 605.982 299.202C604.799 303.793 604.679 309.102 603.694 313.607C600.475 303.475 594.657 294.362 586.82 287.178C590.417 285.965 594.443 286.23 598.484 284.617Z" fill="#80A7F4"/>
<path d="M582.56 291.914C601.24 307.363 608.072 332.957 599.577 355.661C591.081 378.365 569.127 393.187 544.893 392.579C520.659 391.971 499.475 376.067 492.129 352.965C494.894 346.43 499.343 341.53 504.203 336.463C520.591 319.378 540.81 307.256 562.465 298.044C569.052 295.242 575.686 294.386 582.145 292.067L582.56 291.914Z" fill="#80A7F4"/>
<path d="M589.871 295.512C592.457 298.179 598.055 305.704 598.922 309.015C595.397 304.831 592.666 300.307 589.047 295.975L589.871 295.512Z" fill="#656071"/>
<path d="M490.805 313.496C491.877 310.136 492.606 308.104 494.021 304.883L495.572 305.472C494 308.188 492.441 310.818 490.805 313.496Z" fill="#CFBAF0"/>
<path d="M379.414 348.121C403.051 347.342 421.58 351.24 439.872 367.035C499.183 418.249 460.902 503.87 382.58 494.484C366.935 492.665 356.897 486.76 344.262 477.985C293.611 440.586 306.89 366.691 367.868 350.169C371.581 349.164 375.506 349.173 378.802 348.29L379.414 348.121ZM361.107 485.107C389.902 499.302 428.52 493.294 449.438 468.44C476.116 436.74 468.399 394.173 437.301 368.704C388.455 328.698 312.84 360.146 315.503 425.275C316.254 443.636 328.212 461.424 341.761 472.973C347.028 477.115 354.927 482.49 361.107 485.107Z" fill="#010101"/>
<path d="M380.742 481.501C435.69 489.063 470.599 433.88 440.179 387.851C412.203 345.52 335.054 352.846 328.665 408.5C326.293 429.167 329.338 441.377 341.817 458.362C341.357 462.772 341.426 468.524 341.76 472.97C328.211 461.421 316.253 443.633 315.502 425.272C312.839 360.143 388.454 328.695 437.3 368.701C468.398 394.17 476.115 436.737 449.437 468.437C428.519 493.291 389.901 499.299 361.106 485.104C358.985 481.662 345.69 476.719 342.711 472.126C343.402 471.888 354.767 473.555 357.452 473.519L358.247 473.506L358.095 473.43C363.218 476.848 374.402 482.306 380.742 481.501Z" fill="url(#paint3_linear_2264_39480)"/>
<path d="M694.289 503.075C653.022 504.148 618.712 471.538 617.688 430.27C616.664 389.002 649.315 354.731 690.584 353.756C731.784 352.783 765.985 385.367 767.007 426.565C768.029 467.764 735.486 502.004 694.289 503.075ZM690.466 356.723C650.809 357.788 619.547 390.841 620.689 430.496C621.831 470.152 654.945 501.351 694.598 500.131C734.143 498.916 765.237 465.913 764.098 426.366C762.959 386.819 730.015 355.66 690.466 356.723Z" fill="#010101"/>
<path d="M694.599 500.13C654.946 501.35 621.832 470.151 620.69 430.495C619.548 390.84 650.811 357.787 690.468 356.722C730.017 355.659 762.96 386.818 764.099 426.365C765.238 465.912 734.144 498.915 694.599 500.13ZM687.451 368.392C654.026 371.289 629.318 400.796 632.336 434.21C635.354 467.625 664.949 492.227 698.353 489.088C731.586 485.965 756.035 456.553 753.032 423.309C750.03 390.065 720.706 365.51 687.451 368.392Z" fill="#A3C4F3"/>
<path d="M341.819 458.363C329.34 441.378 326.295 429.168 328.667 408.501C335.056 352.847 412.205 345.521 440.181 387.852C470.601 433.881 435.692 489.064 380.744 481.502C364.469 477.505 353.227 470.75 341.819 458.363ZM420.015 371.416C397.685 359.17 366.36 357.373 347.001 376.348C326.837 396.112 325.788 429.122 340.302 452.526C342.522 458.047 351.867 466.111 356.923 469.711C400.02 500.397 459.117 464.493 448.981 411.761C445.665 394.512 435.06 381.227 420.015 371.416Z" fill="#010101"/>
<path d="M340.302 452.526C325.788 429.122 326.837 396.112 347.001 376.348C366.36 357.373 397.685 359.17 420.015 371.416C419.675 371.828 419.335 372.24 418.996 372.653C385.345 377.903 355.725 398.764 343.061 430.793C341.101 435.75 342.433 449.47 340.302 452.526ZM377.617 366.007C362.476 370.741 349.437 381.5 341.809 395.433C338.634 401.232 332.441 421.276 335.253 427.201C335.947 426.545 335.759 426.944 335.84 426.017C338.896 399.3 349.843 379.231 376.189 368.92C377.662 368.344 379.47 368.005 380.293 366.689C379.032 365.609 379.763 366.035 377.617 366.007Z" fill="#F1C0E8"/>
<path d="M335.84 426.015C335.759 426.942 335.947 426.543 335.253 427.199C332.441 421.274 338.634 401.23 341.809 395.431C349.437 381.498 362.476 370.739 377.617 366.005C379.763 366.033 379.032 365.607 380.293 366.687C379.47 368.003 377.662 368.342 376.189 368.918C349.843 379.229 338.896 399.298 335.84 426.015Z" fill="#010101"/>
<path d="M698.352 489.09C664.948 492.229 635.353 467.627 632.335 434.212C629.317 400.798 654.025 371.291 687.45 368.394C720.705 365.512 750.029 390.067 753.031 423.311C756.034 456.555 731.585 485.967 698.352 489.09ZM660.647 379.529C617.234 404.631 627.696 474.793 676.943 485.58C699.421 490.503 721.236 483.377 736.665 466.488C747.804 451.433 740.261 426.899 732.976 411.085C725.41 394.663 708.915 378.402 691.859 371.618C684.989 368.886 667.203 376.197 660.647 379.529ZM699.388 372.046C721.903 384.525 734.457 401.479 742.07 426.29C745.013 435.88 745.116 444.058 744.982 453.919L747.075 448.7C749.706 440.516 751.5 433.998 750.854 425.316C748.695 396.302 728.219 375.211 699.388 372.046Z" fill="#010101"/>
<path d="M420.014 371.414C435.059 381.225 445.664 394.51 448.98 411.759C459.116 464.491 400.019 500.395 356.922 469.709C351.866 466.109 342.521 458.045 340.301 452.524C342.432 449.468 341.1 435.748 343.06 430.791C355.724 398.762 385.344 377.901 418.995 372.651C419.334 372.238 419.674 371.826 420.014 371.414Z" fill="#F0A4B7"/>
<path d="M660.648 379.529C667.204 376.197 684.99 368.886 691.86 371.618C708.916 378.402 725.411 394.663 732.977 411.085C740.262 426.899 747.805 451.433 736.666 466.488C733.54 460.952 731.038 454.994 727.744 449.637C715.025 428.885 699.7 409.964 680.401 394.975C674.271 390.215 666.141 384.733 660.648 379.529Z" fill="#CFBAF0"/>
<path d="M744.981 453.92C745.115 444.059 745.012 435.881 742.069 426.291C734.456 401.48 721.902 384.526 699.387 372.047C728.218 375.212 748.694 396.303 750.853 425.317C751.499 433.999 749.705 440.517 747.074 448.701L744.981 453.92Z" fill="#CFBAF0"/>
<path d="M736.664 466.486C721.235 483.375 699.42 490.501 676.942 485.578C627.695 474.791 617.233 404.629 660.646 379.527C666.139 384.731 674.27 390.213 680.4 394.973C699.699 409.962 715.023 428.883 727.742 449.635C731.036 454.992 733.538 460.95 736.664 466.486Z" fill="#9C74BA"/>
<path d="M540.233 476.781C527.75 478.165 516.527 469.123 515.225 456.631C513.923 444.14 523.039 432.977 535.539 431.757C547.922 430.549 558.959 439.562 560.249 451.937C561.539 464.312 552.599 475.409 540.233 476.781ZM536.811 435.222C526.39 435.762 518.334 444.572 518.727 454.999C519.12 465.427 527.814 473.606 538.247 473.361C545.127 473.199 551.388 469.345 554.632 463.275C557.875 457.204 557.598 449.857 553.908 444.047C550.217 438.238 543.684 434.865 536.811 435.222Z" fill="#010101"/>
<path d="M538.249 473.36C527.816 473.605 519.122 465.426 518.729 454.998C518.336 444.571 526.392 435.761 536.813 435.221C543.686 434.864 550.219 438.237 553.91 444.046C557.6 449.856 557.877 457.203 554.634 463.274C551.39 469.344 545.129 473.198 538.249 473.36Z" fill="#BDF1DC"/>
<path d="M585.748 498.782C573.377 498.926 563.232 489.013 563.091 476.641C562.95 464.27 572.867 454.127 585.239 453.99C597.605 453.853 607.743 463.765 607.883 476.131C608.024 488.498 598.115 498.638 585.748 498.782ZM581.941 458.021C571.736 460.008 565.088 469.908 567.111 480.106C569.133 490.303 579.057 496.917 589.247 494.859C599.387 492.811 605.961 482.947 603.948 472.8C601.936 462.652 592.095 456.044 581.941 458.021Z" fill="#010101"/>
<path d="M491.241 498.407C479.465 499.892 468.716 491.547 467.236 479.77C465.756 467.993 474.107 457.248 485.885 455.774C497.654 454.3 508.391 462.644 509.87 474.413C511.349 486.182 503.01 496.923 491.241 498.407ZM484.776 459.551C475.293 461.729 469.321 471.124 471.374 480.635C473.427 490.146 482.743 496.241 492.28 494.313C498.562 493.043 503.675 488.491 505.663 482.398C507.651 476.305 506.206 469.614 501.882 464.884C497.558 460.153 491.023 458.116 484.776 459.551Z" fill="#010101"/>
<path d="M589.249 494.859C579.059 496.917 569.135 490.303 567.113 480.106C565.09 469.908 571.738 460.008 581.943 458.021C592.097 456.044 601.938 462.652 603.95 472.8C605.963 482.947 599.389 492.811 589.249 494.859Z" fill="#BDF1DC"/>
<path d="M341.818 458.363C353.226 470.75 364.468 477.505 380.743 481.502C374.403 482.307 363.219 476.849 358.096 473.431L358.248 473.507L357.453 473.52C354.768 473.556 343.403 471.889 342.712 472.127C345.691 476.72 358.986 481.663 361.107 485.105C354.927 482.488 347.028 477.113 341.761 472.971C341.427 468.525 341.358 462.773 341.818 458.363Z" fill="#F0A4B7"/>
<path d="M492.279 494.312C482.742 496.24 473.426 490.145 471.373 480.634C469.32 471.123 475.292 461.728 484.775 459.55C491.022 458.115 497.557 460.152 501.881 464.883C506.205 469.613 507.65 476.304 505.662 482.397C503.674 488.49 498.561 493.042 492.279 494.312Z" fill="#BDF1DC"/>
<path d="M344.261 477.984C356.896 486.759 366.934 492.664 382.579 494.483C382.594 499.857 382.574 504.294 382.165 509.661C381.757 515.011 380.901 521.259 381.014 526.529C360.412 526.788 343.314 532.61 328.248 546.967C326.266 545.451 322.42 539.241 320.734 536.796C328.946 525.48 329.949 512.751 334.393 499.989C336.888 492.823 340.89 484.896 344.261 477.984Z" fill="#FFCFD2"/>
<path d="M93.2695 502.765C99.4589 497.181 113.739 490.512 121.797 487.129C147.933 476.156 175.959 474.991 202.325 485.958L204.052 487.611C211.295 501.096 225.497 512.057 240.876 513.977C211.731 576.133 158.658 634.505 93.0954 659.017C88.7218 660.652 74.5372 664.287 73.1048 667.572C68.8824 677.255 79.4403 707.328 83.2605 717.081C100.996 762.356 137.039 809.144 178.352 835.078C190.576 823.735 201.497 812.618 214.944 802.538C260.521 768.372 324.812 757.583 380.39 766.167C381.381 771.18 395.655 787.012 399.774 792.214C407.582 802.075 415.386 812.128 423.005 822.178C415.215 828.819 403.547 836.096 394.784 841.561C389.073 845.124 383.562 847.999 378.122 852.089L376.645 851.804C373.04 849.23 361.674 844.344 357.161 842.55C321.287 828.296 277.493 818.457 238.932 824.466C230.483 825.783 207.729 831.727 200.663 838.531C200.246 838.932 200.565 839.702 200.697 840.448C203.518 842.238 208.94 837.038 211.907 835.776C253.428 818.121 301.204 826.849 342.462 840.76C351.538 843.82 365.798 848.682 373.487 853.987C369.923 857.165 347.272 869.223 342.127 871.812C282.059 902.04 216.127 922.402 148.388 921.75C126.336 921.537 109.096 920.045 88.1229 913.303C51.7493 901.61 26.571 879.624 10.1229 845.339C7.592 840.403 5.73415 835.297 3.81596 830.113C2.69139 827.073 1.55401 823.177 0 820.379V667.624C2.02696 663.485 4.89101 647.557 6.45881 641.998C19.4487 595.942 42.0936 552.012 76.2545 518.072C79.3028 515.043 86.4888 508.197 90.3487 506.536L90.9046 507.815C96.3142 527.616 109.155 555.049 122.652 570.923C123.711 572.169 124.977 573.373 126.67 573.43L127.259 572.862C126.806 570.98 118.15 559.177 116.316 556.231C106.554 540.547 100.361 524.803 94.2194 507.458L93.2695 502.765Z" fill="#90DBF4"/>
<path d="M887.683 646.986C894.45 644.534 906.384 635.656 912.445 631.213C939.383 611.747 962.338 589.221 981.936 562.446C996.004 543.228 1005.61 524.755 1014.67 502.819C1017.58 495.753 1020.34 486.058 1024 479.504V1024H0V820.38C1.55401 823.178 2.69139 827.074 3.81596 830.114C5.73415 835.298 7.592 840.404 10.1229 845.34C26.571 879.625 51.7493 901.611 88.1229 913.304C109.096 920.046 126.336 921.538 148.388 921.751C216.127 922.403 282.059 902.041 342.127 871.813C347.272 869.224 369.923 857.166 373.487 853.988L373.853 853.934C392.47 864.53 413.242 873.695 432.625 882.755C458.731 894.957 485.356 905.847 513.2 913.383C515.794 914.086 518.43 914.828 520.93 915.829C522.283 917.002 524.035 917.918 525.589 918.822C567.927 943.463 620.463 956.716 669.298 949.571C681.034 947.854 690.524 945.349 702.119 942.338C723.432 936.804 744.357 927.386 763.002 915.688C770.935 910.307 778.57 904.21 786.254 898.515C816.77 875.9 840.402 850.189 859.037 816.988C879.056 781.32 892.536 741.446 890.246 700.007C889.47 685.96 886.534 672.225 882.904 658.767C884.338 654.749 886.015 650.909 887.683 646.986Z" fill="#E6DFD5"/>
<path d="M538.713 546.922C522.48 549.198 507.448 537.957 505.042 521.742C502.636 505.527 513.757 490.406 529.953 487.871C546.332 485.308 561.662 496.583 564.095 512.981C566.528 529.38 555.131 544.62 538.713 546.922ZM530.239 491.407C515.983 493.827 506.356 507.303 508.687 521.573C511.018 535.844 524.434 545.555 538.718 543.312C553.129 541.05 562.945 527.49 560.593 513.093C558.241 498.697 544.62 488.966 530.239 491.407Z" fill="#010101"/>
<path d="M204.051 487.609C210.006 489.827 216.101 497.202 221.472 500.441C225.389 502.803 238.294 510.688 242.018 511.299L240.875 513.975C225.496 512.055 211.294 501.094 204.051 487.609Z" fill="#DDAAFA"/>
<path d="M538.719 543.311C524.435 545.554 511.019 535.843 508.688 521.572C506.357 507.302 515.984 493.826 530.24 491.406C544.621 488.965 558.242 498.696 560.594 513.092C562.946 527.489 553.13 541.049 538.719 543.311Z" fill="#BDF1DC"/>
<path d="M75.2033 676.094C73.0836 666.235 82.5995 665.498 90.0202 663.104C110.491 656.498 128.732 646.348 146.17 633.87C187.475 604.312 221.289 562.894 242.667 516.867C245.469 510.835 247.424 504.128 250.666 498.379C250.908 500.374 249.549 523.388 249.461 527.425C245.104 533.991 240.805 543.554 236.19 550.873C225.388 568.005 212.764 584.941 199.126 599.891C170.427 631.349 119.462 673.73 75.2033 676.094Z" fill="#90DBF4"/>
<path d="M90.9062 507.816C91.0531 506.398 91.0569 506.319 91.5163 504.976L92.1752 504.914C92.9211 505.79 93.5242 506.543 94.221 507.459C100.363 524.804 106.556 540.548 116.318 556.232C118.152 559.178 126.808 570.981 127.261 572.863L126.672 573.431C124.979 573.374 123.713 572.17 122.654 570.924C109.157 555.05 96.3158 527.617 90.9062 507.816Z" fill="#D0A866"/>
<path d="M472.668 512.909C468.608 511.581 460.415 508.577 456.087 508.745C455.405 508.771 455.237 509.357 454.766 510.043C454.71 516.081 464.176 514.485 466.195 518.979C463.173 521.419 442.806 513.558 454.904 505.484C457.051 505.51 459.024 505.729 461.115 506.216C464.669 507.044 491.382 515.022 492.498 516.244C493.012 516.805 492.8 516.758 492.66 517.616C489.969 519.331 476.367 514.148 472.668 512.909Z" fill="#010101"/>
<path d="M252.98 510.062C262.973 511.911 261.718 518.3 267.501 521.892C267.173 522.213 266.844 522.534 266.515 522.855C265.005 532.29 262.337 542.941 262.08 552.306C261.843 560.951 264.073 568.953 261.205 576.144C260.261 575.406 260.544 575.597 259.872 574.504C252.927 558.211 252.55 527.386 252.98 510.062Z" fill="#BDF1DC"/>
<path d="M616.652 513.784C618.045 515.149 618.078 515.472 617.898 517.253C612.74 525.544 577.942 526.888 580.624 514.277C581.735 512.582 582.434 512.484 584.376 511.593C586.898 511.509 588.876 511.256 591.296 511.934L591.855 512.961C589.957 514.762 585.417 513.739 583.04 515.408L583.21 516.178C585.954 518.378 589.095 519.348 592.568 519.642C602.335 520.467 608.879 519.942 616.652 513.784Z" fill="#010101"/>
<path d="M267.504 521.891L269.003 521.825C269.998 520.55 269.71 519.699 269.878 517.746C269.996 548.797 274.031 575.272 286.376 603.995C295.268 624.684 302.985 638.917 319.45 655.298C350.876 686.562 403.56 686.136 434.398 654.342C437.128 651.528 439.516 648.703 441.991 645.665C447.1 649.956 460.26 658.214 466.973 659.144C457.054 679.294 454.912 699.99 462.053 721.554C467.47 737.909 481.222 756.045 496.434 764.301C493.658 766.131 481.762 775.556 480.227 777.903C429.579 766.03 377.14 735.945 341.154 698.284C331.271 687.941 322.044 677.632 313.903 665.894C312.912 664.466 312.85 664.733 311.407 664.736L310.518 665.461C310.245 668.249 314.787 673.082 316.549 675.369C349.377 717.955 393.704 750.385 443.825 769.704C454.12 773.671 466.477 778.98 477.345 780.739C472.763 783.975 462.391 790.054 458.931 793.635C398.018 774.815 346.666 739.855 307.777 689.126C305.715 686.437 301.226 679.226 298.348 678.678L297.993 679.329L297.057 678.502L295.874 679.385C293.303 674.325 287.683 659.548 286.147 657.1L285.29 657.307C283.965 659.964 286.394 663.778 287.361 666.502C296.198 691.349 314.562 713.676 336.664 727.982C345.804 733.899 351.974 739.671 360.328 746.392L359.456 746.309C353.557 745.786 343.519 745.95 337.455 746.007C285.033 746.498 228.294 763.225 187.517 797.052C180.566 802.819 168.636 814.086 167.827 823.678C153.887 814.087 142.557 802.146 131.575 789.391C104.865 758.369 82.556 720.176 76.0859 679.252C132.376 675.028 192.341 616.439 224.414 573.639C233.631 561.339 241.596 547.209 249.503 534.057C250.966 550.997 252.889 566.498 259.609 582.503C260.135 583.755 260.709 585.014 261.998 585.534C262.982 583.313 260.62 576.928 259.875 574.503C260.547 575.596 260.264 575.405 261.208 576.143C264.076 568.952 261.846 560.951 262.083 552.306C262.34 542.941 265.008 532.289 266.518 522.854C266.847 522.533 267.176 522.212 267.504 521.891ZM245.793 569.723C243.468 573.163 245.897 584.128 246.824 588.496C256.203 632.691 279.701 698.426 319.853 723.484L320.06 722.97C280.418 690.815 257.298 630.437 248.709 581.036C248.183 578.007 248.093 571.481 245.793 569.723ZM226.687 586.64C224.693 628.036 239.018 683.934 267.495 714.761C270.935 718.484 286.857 733.728 291.663 734.008C291.726 732.757 292.077 732.62 291.087 731.796C284.573 726.381 278.391 721.899 272.458 715.742C252.595 695.131 241.668 668.185 234.98 640.775C232.281 629.625 230.86 616.735 230.285 605.267C230.038 600.341 229.966 592.895 229.279 587.844C229.212 587.35 227.266 586.781 226.687 586.64ZM265.349 590.724C262.383 600.178 288.322 664.03 295.16 665.848C295.597 662.869 287.92 646.711 286.206 644.662C280.336 637.647 267.328 592.079 265.349 590.724ZM200.883 615.282C202.839 658.042 221.548 708.84 253.024 738.918C254.355 740.19 255.348 741.039 257.016 741.803L258.583 741.616C257.672 738.772 245.006 726.287 241.934 722.164C221.368 694.564 209.275 661.987 205.102 627.931C204.814 625.586 204.362 617.129 203.071 616.015C202.005 615.949 201.78 615.861 200.883 615.282ZM177.78 635.611C177.185 640.259 177.72 647.371 178.34 652.083C181.835 678.628 193.28 705.969 209.461 727.269C215.413 735.103 230.814 750.362 240.559 752.035C240.371 751.542 240.183 751.05 239.995 750.557C233.34 745.298 224.589 740.38 218.893 734.082C197.815 710.774 184.377 679.125 180.752 647.981C180.408 645.02 180.863 638.157 179.505 636.039L177.78 635.611ZM154.483 654.787C152.136 658.847 156.357 674.561 157.679 679.399C166.289 710.901 185.285 741.597 213.837 758.489C213.686 756.876 212.614 756.147 211.253 755.165C181.906 733.997 163.082 697.647 156.957 662.485C156.55 660.15 156.892 658.172 156.09 655.715C155.259 655.116 155.414 655.112 154.483 654.787ZM130.026 670.251C128.538 671.757 128.202 672.023 128.331 674.558C128.579 679.437 130.075 685.484 131.289 690.247C139.52 722.524 160.057 755.427 184.982 777.45C186.253 778.574 187.325 779.536 188.663 780.592L189.255 779.697C186.166 774.091 176.785 765.991 172.32 760.69C151.524 736.002 133.989 704.095 131.286 671.528C131.256 671.162 130.307 670.435 130.026 670.251ZM102.175 682.26C99.6822 687.671 107.208 711.427 109.59 717.972C118.91 743.571 134.781 767.89 154.398 786.777C157.634 789.892 164.775 796.231 168.625 798.309C168.68 796.784 168.954 796.764 167.667 795.652C134.909 767.364 109.83 727.431 104.602 683.989C104.435 682.6 103.277 682.425 102.175 682.26Z" fill="url(#paint4_linear_2264_39480)"/>
<path d="M273.078 523.02C277.335 523.914 284.242 522.828 287.585 524.045C298.407 527.986 308.865 535.905 320.735 536.794C322.421 539.239 326.267 545.449 328.249 546.965C314.519 561.288 304.403 577.484 304.731 598.023C305.019 616.021 316.081 635.661 328.801 647.883C354.885 672.946 406.495 670.675 427.458 639.689L431.866 640.855C434.351 642.023 436.464 643.145 439.126 643.839L439.516 643.904C424.196 663.093 405.301 674.401 380.276 675.495C321.677 678.059 290.868 619.437 278.571 570.458C274.834 555.578 273.499 538.288 273.078 523.02Z" fill="#98F5E1"/>
<path d="M337.418 543.698C352.09 530.34 371.197 528.442 390.088 530.421C389.684 532.12 389.381 533.38 388.827 535.032C386.771 536.928 384.843 537.66 382.163 536.74L383.615 536.739C368.002 534.567 346.087 545.2 337.418 543.698Z" fill="#CFBAF0"/>
<path d="M390.086 530.422C398.534 531.823 403.324 533.04 411.094 536.82C409.734 541.35 408.311 542.876 405.327 546.378C410.464 545.068 414.332 543.973 419.031 541.424C451.113 561.488 464.655 606.834 443.03 638.938C441.975 640.505 440.758 642.504 439.515 643.905L439.125 643.84C438.289 641.29 435.34 638.45 433.433 636.382L431.962 633.439C454.639 590.233 425.289 541.984 377.39 540.406L376.824 539.815C379.2 538.617 392.167 541.626 395.403 542.186C398.931 542.932 400.922 545.629 404.787 544.648C407.502 543.96 409.331 540.753 408.879 538.008C406.821 534.378 393.577 530.687 390.869 531.89C390.109 533.61 389.991 533.643 388.825 535.033C389.379 533.381 389.682 532.121 390.086 530.422Z" fill="#E6DFD5"/>
<path d="M388.826 535.031C389.992 533.641 390.11 533.608 390.87 531.888C393.578 530.685 406.822 534.376 408.88 538.006C409.332 540.751 407.503 543.958 404.788 544.646C400.923 545.627 398.932 542.93 395.404 542.184C392.168 541.624 379.201 538.615 376.825 539.813L377.391 540.404C351.763 540.587 330.568 555.944 322.193 580.611C320.899 584.42 320.395 588.506 319.708 592.474C315.87 588.536 313.4 587.368 308.551 584.994C313.864 568.144 323.332 554.501 337.417 543.697C346.086 545.199 368.001 534.566 383.614 536.738L382.162 536.739C384.842 537.659 386.77 536.927 388.826 535.031Z" fill="#FFCFD2"/>
<path d="M483.774 576.17C472.046 578.068 460.993 570.118 459.063 558.396C457.132 546.673 465.052 535.598 476.769 533.635C488.532 531.665 499.659 539.622 501.598 551.391C503.536 563.16 495.548 574.265 483.774 576.17ZM478.648 536.975C472.225 537.62 466.647 541.676 464.054 547.588C461.46 553.5 462.253 560.35 466.129 565.513C470.004 570.676 476.361 573.35 482.762 572.511C492.452 571.24 499.329 562.426 498.205 552.717C497.081 543.008 488.373 535.998 478.648 536.975Z" fill="#010101"/>
<path d="M627.943 559.964C638.441 549.963 649.323 542.838 663.221 538.591C698.981 527.663 740.109 544.584 756.178 578.682C773.537 615.518 758.246 655.286 724.269 675.499C700.589 688.7 673.623 688.964 649.872 675.636C642.762 671.646 637.848 667.065 632.103 661.455C604.62 634.223 602.824 589.21 627.943 559.964ZM683.505 537.31C643.286 539.071 612.144 573.159 614.015 613.373C615.887 653.587 650.061 684.636 690.269 682.654C730.322 680.68 761.224 646.667 759.36 606.609C757.495 566.551 723.568 535.556 683.505 537.31Z" fill="#010101"/>
<path d="M604.449 561.025C603.781 567.316 600.452 573.02 595.303 576.696C590.154 580.372 583.678 581.668 577.511 580.256C565.934 577.606 558.515 566.288 560.703 554.614C562.891 542.941 573.905 535.077 585.656 536.799C597.407 538.522 605.702 549.215 604.449 561.025ZM580.219 540.359C570.17 541.557 562.962 550.626 564.063 560.686C565.165 570.746 574.164 578.041 584.234 577.037C594.443 576.018 601.86 566.868 600.743 556.671C599.627 546.473 590.405 539.144 580.219 540.359Z" fill="#010101"/>
<path d="M411.095 536.82C414.149 538.414 416.194 539.46 419.032 541.424C414.333 543.973 410.465 545.068 405.328 546.378C408.312 542.876 409.735 541.35 411.095 536.82Z" fill="#F0A4B7"/>
<path d="M482.762 572.51C476.361 573.349 470.004 570.675 466.129 565.512C462.253 560.349 461.46 553.499 464.054 547.587C466.647 541.675 472.225 537.619 478.648 536.974C488.373 535.997 497.081 543.007 498.205 552.716C499.329 562.425 492.452 571.239 482.762 572.51Z" fill="#BDF1DC"/>
<path d="M690.272 682.653C650.064 684.635 615.89 653.586 614.018 613.372C612.147 573.158 643.289 539.07 683.508 537.309C723.571 535.555 757.498 566.55 759.363 606.608C761.227 646.666 730.325 680.679 690.272 682.653ZM681.292 549.516C647.53 552.79 622.779 582.759 625.946 616.531C629.113 650.303 659.005 675.149 692.786 672.088C726.719 669.014 751.7 638.96 748.519 605.037C745.338 571.114 715.205 546.228 681.292 549.516Z" fill="url(#paint5_linear_2264_39480)"/>
<path d="M584.235 577.036C574.165 578.04 565.166 570.745 564.064 560.685C562.963 550.625 570.171 541.556 580.22 540.358C590.406 539.143 599.628 546.472 600.744 556.67C601.861 566.867 594.444 576.017 584.235 577.036Z" fill="#BDF1DC"/>
<path d="M321.961 594.532C322.484 577.531 329.507 564.631 342.779 554.009C368.136 533.712 401.821 539.798 423.233 562.923C442.218 583.427 444.209 617.97 425.704 639.587C412.383 634.208 399.216 628.085 386.013 622.39C369.372 615.211 352.616 608.331 336.218 600.609C331.58 598.425 326.797 596.23 321.961 594.532Z" fill="#F0A4B7"/>
<path d="M692.785 672.09C659.004 675.151 629.112 650.305 625.945 616.533C622.778 582.761 647.529 552.792 681.291 549.518C715.204 546.23 745.337 571.116 748.518 605.039C751.699 638.962 726.718 669.016 692.785 672.09ZM737.081 580.536C742.389 596.906 743.096 606.096 737.945 622.626C726.802 650.414 709.597 660.108 681.931 667.32C681.245 666.683 681.473 667.084 681.316 666.082C682.957 664.692 694.914 661.189 698.23 659.704C715.629 651.907 727.307 640.411 734.506 622.987C751.782 573.102 705.898 534.849 659.555 557.517C621.481 576.14 618.898 622.823 647.268 652.57C657.211 661.417 666.242 666.191 679.542 668.272C711.898 671.717 738.567 654.487 746.283 622.497C747.929 606.574 745.029 594.42 737.081 580.536Z" fill="#010101"/>
<path d="M734.503 622.988C731.064 622.193 721.869 624.596 718.314 625.495C693.443 631.785 670.12 640.918 647.265 652.571C618.895 622.824 621.478 576.141 659.552 557.518C705.895 534.85 751.779 573.103 734.503 622.988Z" fill="#B9FBC0"/>
<path d="M535.684 601.667C524.062 604.196 512.578 596.87 509.972 585.264C507.366 573.659 514.616 562.127 526.204 559.445C537.9 556.738 549.564 564.071 552.194 575.784C554.825 587.498 547.415 599.114 535.684 601.667ZM527.901 562.714C518.088 564.467 511.55 573.839 513.294 583.653C515.038 593.468 524.404 600.014 534.221 598.279C544.049 596.541 550.605 587.161 548.859 577.334C547.113 567.507 537.727 560.96 527.901 562.714Z" fill="#010101"/>
<path d="M604.451 561.026C607.324 562.517 621.702 559.72 627.945 559.965C602.826 589.211 604.622 634.224 632.105 661.456C628.649 662.173 608.524 674.565 605.249 677.148C599.852 657.834 587.511 641.6 570.621 630.872C572.114 628.223 571.659 610.713 571.657 606.237C571.654 595.87 575.588 589.58 577.513 580.257C583.68 581.669 590.156 580.373 595.305 576.697C600.454 573.021 603.783 567.317 604.451 561.026Z" fill="#B9FBC0"/>
<path d="M534.22 598.279C524.403 600.014 515.037 593.468 513.293 583.653C511.549 573.839 518.087 564.467 527.9 562.714C537.726 560.96 547.112 567.507 548.858 577.334C550.604 587.161 544.048 596.541 534.22 598.279Z" fill="#BDF1DC"/>
<path d="M319.851 723.484C279.699 698.426 256.201 632.691 246.822 588.496C245.895 584.128 243.466 573.163 245.791 569.723C248.091 571.481 248.181 578.007 248.707 581.036C257.296 630.437 280.416 690.815 320.058 722.97L319.851 723.484Z" fill="#010101"/>
<path d="M772.566 685.529C777.844 678.415 782.897 669.008 787.149 661.247C801.553 634.95 813.531 606.931 819.228 577.363C842.154 594.372 856.54 606.806 871.225 632.538C874.662 638.56 877.687 645.478 880.901 651.085C876.655 654.575 867.832 659.066 862.644 661.537C838.894 672.851 812.186 682.051 785.886 684.391C781.74 684.76 776.594 685.569 772.566 685.529Z" fill="#B9FBC0"/>
<path d="M737.942 622.625C743.093 606.095 742.386 596.905 737.078 580.535C745.026 594.419 747.926 606.573 746.28 622.496C743.506 622.403 740.72 622.538 737.942 622.625Z" fill="#B9FBC0"/>
<path d="M425.703 639.587C421.619 644.018 418.306 647.17 413.409 650.701C384.832 671.304 338.971 663.845 319.52 634.115C309.255 618.426 305.006 603.782 308.551 584.996C313.4 587.37 315.87 588.538 319.708 592.476C317.989 617.729 331.959 647.255 357.149 655.816C353.951 651.453 347.969 647.655 343.798 644.042C328.205 630.536 322.072 614.861 321.96 594.532C326.796 596.23 331.579 598.425 336.217 600.609C352.615 608.331 369.371 615.211 386.012 622.39C399.215 628.085 412.382 634.208 425.703 639.587Z" fill="#98F5E1"/>
<path d="M291.659 734.009C286.853 733.729 270.931 718.485 267.491 714.762C239.014 683.935 224.689 628.037 226.683 586.641C227.262 586.782 229.208 587.351 229.275 587.845C229.962 592.896 230.034 600.342 230.281 605.268C230.856 616.736 232.277 629.626 234.976 640.776C241.664 668.186 252.591 695.132 272.454 715.743C278.387 721.9 284.569 726.382 291.083 731.797C292.073 732.621 291.722 732.758 291.659 734.009Z" fill="#010101"/>
<path d="M295.159 665.847C288.321 664.029 262.382 600.177 265.348 590.723C267.327 592.078 280.336 637.646 286.206 644.661C287.92 646.71 295.596 662.868 295.159 665.847Z" fill="#010101"/>
<path d="M258.583 741.615L257.016 741.802C255.348 741.038 254.355 740.189 253.024 738.917C221.548 708.839 202.839 658.041 200.883 615.281C201.78 615.86 202.005 615.948 203.071 616.014C204.362 617.128 204.814 625.585 205.102 627.93C209.275 661.986 221.368 694.563 241.934 722.163C245.006 726.286 257.672 738.771 258.583 741.615Z" fill="#010101"/>
<path d="M466.97 659.141C481.963 633.015 508.896 620.074 538.698 621.528C550.717 622.115 559.903 625.641 570.619 630.871C587.509 641.599 599.85 657.832 605.247 677.146C616.252 719.009 596.116 759.565 552.449 771.787C532.38 777.404 514.856 773.166 496.431 764.298C481.219 756.042 467.467 737.906 462.05 721.551C454.909 699.987 457.051 679.291 466.97 659.141ZM469.322 662.707C459.715 680.178 457.669 700.816 463.657 719.833C469.646 738.85 483.149 754.591 501.032 763.405C526.454 775.933 556.828 772.623 578.954 754.914C601.08 737.204 610.963 708.292 604.307 680.744C597.227 651.441 572.87 629.5 542.99 625.507C513.11 621.515 483.847 636.292 469.322 662.707Z" fill="#010101"/>
<path d="M647.266 652.57C670.121 640.917 693.444 631.784 718.315 625.494C721.87 624.595 731.065 622.192 734.504 622.987C727.305 640.411 715.627 651.907 698.228 659.704C694.912 661.189 682.955 664.692 681.314 666.082C681.471 667.084 681.243 666.683 681.929 667.32C680.808 667.678 680.505 667.661 679.54 668.272C666.24 666.191 657.209 661.417 647.266 652.57Z" fill="#FBF8CC"/>
<path d="M737.942 622.625C740.72 622.538 743.506 622.403 746.28 622.496C738.564 654.486 711.895 671.716 679.539 668.271C680.504 667.66 680.807 667.677 681.928 667.319C709.594 660.107 726.799 650.413 737.942 622.625Z" fill="#FBF8CC"/>
<path d="M469.324 662.709C483.849 636.294 513.112 621.517 542.992 625.509C572.872 629.502 597.229 651.443 604.309 680.746C600.244 681.488 594.68 685.741 591.267 688.36C585.968 654.583 555.516 631.657 521.608 637.707C503.05 641.018 491.796 650.482 481.324 665.523C479.518 664.775 472.023 663.379 469.324 662.709Z" fill="#BDF1DC"/>
<path d="M427.457 639.688L431.962 633.438L433.433 636.38L431.865 640.854L427.457 639.688Z" fill="#F0A4B7"/>
<path d="M240.557 752.033C230.812 750.36 215.411 735.101 209.459 727.267C193.278 705.967 181.833 678.626 178.338 652.081C177.718 647.369 177.183 640.257 177.778 635.609L179.503 636.037C180.861 638.155 180.406 645.018 180.75 647.979C184.375 679.123 197.813 710.772 218.891 734.08C224.587 740.378 233.338 745.296 239.993 750.555C240.181 751.048 240.369 751.54 240.557 752.033Z" fill="#010101"/>
<path d="M433.435 636.383C435.342 638.451 438.291 641.291 439.127 643.841C436.465 643.147 434.352 642.025 431.867 640.857L433.435 636.383Z" fill="#F0A4B7"/>
<path d="M481.324 665.523C491.796 650.482 503.05 641.018 521.608 637.707C555.516 631.657 585.968 654.583 591.267 688.36C592.098 696.997 592.601 704.172 591.24 712.879C584.765 754.297 541.397 776.532 504.606 754.715C489.02 745.14 478.677 731.226 474.086 713.559C469.449 695.718 472.276 681.249 481.324 665.523ZM589.758 689.421C581.653 636.877 516.593 619.53 485.422 663.016C476.311 675.725 472.061 691.515 474.791 707.05C477.503 721.656 480.599 727.735 493.118 735.896C499.706 740.19 507.908 744.801 515.329 747.411C528.853 751.818 537.712 751.672 551.707 749.422C553.251 749.174 557.567 748.256 558.473 749.341C556.578 750.662 554.032 751.189 551.798 751.736C538.413 755.017 523.962 754.436 511.144 748.924C500.548 744.905 495.729 741.152 486.446 734.727C493.146 742.364 499.625 748.913 508.588 753.86C531.479 765.717 560.725 761.318 576.862 740.321C588.946 724.595 592.174 708.878 589.758 689.421Z" fill="#010101"/>
<path d="M589.757 689.421C570.348 703.646 550.919 719.368 532.073 734.356C529.253 736.598 516.617 745.931 515.328 747.411C507.907 744.801 499.705 740.19 493.117 735.896C480.598 727.735 477.502 721.656 474.79 707.05C472.06 691.515 476.31 675.725 485.421 663.016C516.592 619.53 581.652 636.877 589.757 689.421Z" fill="#B9FBC0"/>
<path d="M880.904 651.084L881.562 650.953C874.851 670.321 861.82 693.268 852.443 711.766C840.093 733.868 827.271 759.026 812.094 779.188C783.432 817.266 744.224 853.51 703.564 878.106C651.186 909.791 592.998 928.447 531.96 913.635C525.809 912.143 513.003 909.776 507.49 907.293C505.068 903.254 489.339 892.13 484.953 887.938C463.805 867.727 441.341 845.138 423.367 822.139C433.435 814.921 447.748 802.417 457.055 796.555C499.251 810.511 545.839 812.046 589.278 804.245C637.683 795.857 679.696 774.483 717.689 743.877C740.893 725.184 755.287 710.349 772.569 685.528C776.597 685.568 781.743 684.759 785.889 684.39C812.189 682.05 838.897 672.85 862.647 661.536C867.835 659.065 876.658 654.574 880.904 651.084ZM714.856 842.28C709.387 843.253 705.984 846.329 701.041 848.513C697.071 850.268 692.731 851.056 688.968 853.345C688.292 854.869 688.391 854.058 688.984 855.883C695.419 862.323 719.19 851.362 719.679 843.912L719.087 842.403C716.322 842.093 717.466 841.355 714.856 842.28ZM813.059 715.264C804.193 743.866 788.469 768.912 769.404 791.844C764.113 798.207 758.493 804.343 752.739 810.29C749.947 813.175 735.185 826.032 734.624 828.457L734.977 828.925C763.028 806.661 790.43 770.997 805.966 738.73C808.935 732.565 812.698 724.868 813.751 718.055C813.857 717.371 813.838 716.748 813.806 716.06L813.059 715.264ZM817.112 739.164C815.32 745.852 802.123 768.476 802.408 771.14L803.333 772.123C807.424 762.091 816.79 751.081 818.277 740.508C817.761 739.377 818.152 739.823 817.112 739.164Z" fill="#FBF8CC"/>
<path d="M213.837 758.487C185.285 741.595 166.288 710.899 157.678 679.397C156.356 674.559 152.135 658.845 154.482 654.785C155.413 655.11 155.258 655.114 156.089 655.713C156.891 658.17 156.549 660.148 156.956 662.483C163.081 697.645 181.906 733.995 211.253 755.163C212.614 756.145 213.686 756.874 213.837 758.487Z" fill="#010101"/>
<path d="M520.93 915.828C529.226 916.394 540.95 919.782 550.096 920.826C584.568 924.984 621.482 921.137 653.628 907.474C672.827 899.313 699.629 886.991 716.937 875.276C754.834 849.624 794.816 812.025 820.553 774.057C844.003 739.462 865.796 697.005 882.904 658.766C886.534 672.224 889.47 685.959 890.246 700.006C892.536 741.445 879.056 781.319 859.037 816.987C840.402 850.188 816.77 875.899 786.254 898.514C778.57 904.209 770.935 910.306 763.002 915.687C744.357 927.385 723.432 936.803 702.119 942.337C690.524 945.348 681.034 947.853 669.298 949.57C620.463 956.715 567.927 943.462 525.589 918.821C524.035 917.917 522.283 917.001 520.93 915.828Z" fill="#FBF8CC"/>
<path d="M605.25 677.149C608.525 674.566 628.65 662.174 632.106 661.457C637.851 667.067 642.765 671.648 649.875 675.638C673.626 688.966 700.592 688.702 724.272 675.501C727.895 678.714 739.175 679.955 744.362 681.596C713.467 727.195 642.576 769.54 588.609 779.461C551.485 786.285 516.983 787.219 480.227 777.903C481.762 775.556 493.658 766.131 496.434 764.301C514.859 773.169 532.383 777.407 552.452 771.79C596.119 759.568 616.255 719.012 605.25 677.149Z" fill="#BDF1DC"/>
<path d="M501.032 763.409C483.149 754.595 469.646 738.854 463.657 719.837C457.669 700.82 459.715 680.182 469.322 662.711C472.021 663.381 479.516 664.777 481.322 665.525C472.274 681.251 469.447 695.72 474.084 713.561C478.675 731.228 489.018 745.142 504.604 754.717C503.151 757.304 501.133 760.438 501.032 763.409Z" fill="#B9FBC0"/>
<path d="M188.662 780.591C187.324 779.535 186.252 778.573 184.981 777.449C160.056 755.426 139.519 722.523 131.288 690.246C130.074 685.483 128.578 679.436 128.33 674.557C128.201 672.022 128.537 671.756 130.025 670.25C130.306 670.434 131.255 671.161 131.285 671.527C133.988 704.094 151.523 736.001 172.319 760.689C176.784 765.99 186.165 774.09 189.254 779.696L188.662 780.591Z" fill="#010101"/>
<path d="M298.345 678.676C304.681 692.64 318.49 707.653 329.215 718.585C316.542 710.586 302.471 692.821 295.871 679.383L297.054 678.5L297.99 679.327L298.345 678.676Z" fill="#90DBF4"/>
<path d="M591.264 688.36C594.677 685.741 600.241 681.488 604.306 680.746C610.962 708.294 601.079 737.206 578.953 754.916C556.827 772.625 526.453 775.935 501.031 763.407C501.132 760.436 503.15 757.302 504.603 754.715C541.394 776.532 584.762 754.297 591.237 712.879C592.598 704.172 592.095 696.997 591.264 688.36Z" fill="#E6DFD5"/>
<path d="M168.621 798.307C164.771 796.229 157.63 789.89 154.394 786.775C134.777 767.888 118.906 743.569 109.586 717.97C107.204 711.425 99.6788 687.669 102.171 682.258C103.273 682.423 104.431 682.598 104.598 683.987C109.826 727.429 134.905 767.362 167.663 795.65C168.95 796.762 168.676 796.782 168.621 798.307Z" fill="#010101"/>
<path d="M477.344 780.736C512.376 788.125 536.069 790.258 571.628 785.599C639.717 776.68 705.212 737.859 747.039 683.609C754.312 684.553 764.007 683.395 769.512 684.181C739.553 728.581 687.099 768.406 637.224 787.616C583.621 808.261 513.698 812.135 458.93 793.632C462.39 790.051 472.762 783.972 477.344 780.736Z" fill="#BDF1DC"/>
<path d="M515.327 747.412C516.616 745.932 529.252 736.599 532.072 734.357C550.918 719.369 570.347 703.647 589.756 689.422C592.172 708.879 588.944 724.596 576.86 740.322C560.723 761.319 531.477 765.718 508.586 753.861C509.23 751.926 510.096 750.674 511.142 748.925C523.96 754.437 538.411 755.018 551.796 751.737C554.03 751.19 556.576 750.663 558.471 749.342C557.565 748.257 553.249 749.175 551.705 749.423C537.71 751.673 528.851 751.819 515.327 747.412Z" fill="#FBF8CC"/>
<path d="M734.974 828.927L734.621 828.459C735.182 826.034 749.944 813.177 752.736 810.292C758.49 804.345 764.11 798.209 769.401 791.846C788.466 768.914 804.19 743.868 813.056 715.266L813.803 716.062C813.835 716.75 813.854 717.373 813.748 718.057C812.695 724.87 808.932 732.567 805.963 738.732C790.427 770.999 763.025 806.663 734.974 828.927Z" fill="#010101"/>
<path d="M486.445 734.727C495.728 741.152 500.547 744.905 511.143 748.924C510.097 750.673 509.231 751.925 508.587 753.86C499.624 748.913 493.145 742.364 486.445 734.727Z" fill="#B9FBC0"/>
<path d="M803.332 772.123L802.407 771.14C802.122 768.476 815.319 745.852 817.111 739.164C818.151 739.823 817.76 739.377 818.276 740.508C816.789 751.081 807.423 762.091 803.332 772.123Z" fill="#010101"/>
<path d="M170.496 824.954C171.517 820.713 173.367 815.438 176.496 812.149C223.099 763.174 299.488 743.883 365.203 750.386C366.486 750.513 369.276 752.747 370.284 753.539C370.105 756.152 370.244 758.401 368.913 760.57C367.482 761.317 367.643 761.106 365.899 761.199C315.34 756.734 259.261 767.205 217.323 796.9C203.54 806.659 190.312 818.924 178.462 830.92C176.294 829.062 172.881 826.702 170.496 824.954Z" fill="#90DBF4"/>
<path d="M370.283 753.539C375.172 757.201 379.807 760.36 384.91 763.713C378.579 762.527 372.3 761.872 365.898 761.199C367.642 761.106 367.481 761.317 368.912 760.57C370.243 758.401 370.104 756.152 370.283 753.539Z" fill="#98F5E1"/>
<path d="M380.391 766.168C382.282 766.456 388.33 767.352 389.901 767.974C399.594 771.809 408.946 777.833 418.534 782.204C430.501 787.66 444.349 793.346 457.055 796.558C447.748 802.42 433.435 814.924 423.367 822.142L423.006 822.179C415.387 812.129 407.583 802.076 399.775 792.215C395.656 787.013 381.382 771.181 380.391 766.168Z" fill="#98F5E1"/>
<path d="M423.004 822.178L423.365 822.141C441.339 845.14 463.803 867.729 484.951 887.94C489.337 892.132 505.066 903.256 507.488 907.295C472.428 898.133 430.853 878.005 398.257 862.037C393.117 859.519 382.41 854.821 378.121 852.089C383.561 847.999 389.072 845.124 394.783 841.561C403.546 836.096 415.214 828.819 423.004 822.178Z" fill="#E6DFD5"/>
<path d="M376.646 851.806C375.047 852.567 374.995 852.486 373.854 853.935L373.488 853.989C365.799 848.684 351.539 843.822 342.463 840.762C301.205 826.851 253.429 818.123 211.908 835.778C208.941 837.04 203.519 842.24 200.698 840.45C200.566 839.704 200.247 838.934 200.664 838.533C207.73 831.729 230.484 825.785 238.933 824.468C277.494 818.459 321.288 828.298 357.162 842.552C361.675 844.346 373.041 849.232 376.646 851.806Z" fill="#B09C87"/>
<path d="M714.854 842.282C717.464 841.357 716.32 842.095 719.085 842.405C715.212 849.378 706.315 853.657 698.816 855.89C695.744 856.805 692.165 857.778 690.793 854.086C694.606 851.25 713.188 846.603 714.854 842.282Z" fill="#FBF8CC"/>
<path d="M719.088 842.404L719.68 843.913C719.191 851.363 695.42 862.324 688.985 855.884C688.392 854.059 688.293 854.87 688.969 853.346C692.732 851.057 697.072 850.269 701.042 848.514C705.985 846.33 709.388 843.254 714.857 842.281C713.191 846.602 694.609 851.249 690.796 854.085C692.168 857.777 695.747 856.804 698.819 855.889C706.318 853.656 715.215 849.377 719.088 842.404Z" fill="#010101"/>
</g>
<defs>
<linearGradient id="paint0_linear_2264_39480" x1="570.312" y1="452.272" x2="170.226" y2="212.017" gradientUnits="userSpaceOnUse">
<stop stop-color="#C9B069"/>
<stop offset="1" stop-color="#E1A778"/>
</linearGradient>
<linearGradient id="paint1_linear_2264_39480" x1="290.591" y1="339.449" x2="560.273" y2="409.719" gradientUnits="userSpaceOnUse">
<stop stop-color="#F7C0FA"/>
<stop offset="1" stop-color="#BAE0F6"/>
</linearGradient>
<linearGradient id="paint2_linear_2264_39480" x1="645.322" y1="479.535" x2="800.005" y2="400.52" gradientUnits="userSpaceOnUse">
<stop stop-color="#8EF2AA"/>
<stop offset="1" stop-color="#ABF6D9"/>
</linearGradient>
<linearGradient id="paint3_linear_2264_39480" x1="439.193" y1="476.506" x2="341.761" y2="367.478" gradientUnits="userSpaceOnUse">
<stop stop-color="#D3EFE2"/>
<stop offset="1" stop-color="#FAB9FD"/>
</linearGradient>
<linearGradient id="paint4_linear_2264_39480" x1="492.732" y1="668.58" x2="76.9101" y2="674.111" gradientUnits="userSpaceOnUse">
<stop stop-color="#80F4C3"/>
<stop offset="1" stop-color="#A6D9FF"/>
</linearGradient>
<linearGradient id="paint5_linear_2264_39480" x1="700.213" y1="679.958" x2="673.33" y2="539.744" gradientUnits="userSpaceOnUse">
<stop stop-color="#CCF1D0"/>
<stop offset="1" stop-color="#A1F6D3"/>
</linearGradient>
<clipPath id="clip0_2264_39480">
<rect width="1024" height="1024" fill="white"/>
</clipPath>
</defs>
</svg>
