<svg width="1024" height="1024" viewBox="0 0 1024 1024" fill="none" xmlns="http://www.w3.org/2000/svg">
<path d="M496.145 161.947C504.594 155.267 519.342 145.979 528.784 140.563C592.085 104.577 665.122 89.4703 737.505 97.3898C841.749 109.577 957.83 190.986 940.693 306.992C937.682 327.37 932.833 345.339 921.698 362.853C917.773 369.309 912.887 375.645 909.083 381.958C908.66 378.34 908.366 374.58 907.807 371.011C899.181 315.938 857.465 273.181 803.344 261.467C774.418 255.206 746.669 255.025 717.558 260.763C706.533 262.936 694.683 265.711 684.445 270.216C679.943 267.997 673.914 264.756 669.195 263.276C641.14 254.475 615.322 260.296 590.678 274.968C587.328 267.783 585.305 259.869 581.38 252.168C561.148 212.467 534.176 185.042 496.145 161.947Z" fill="#FBF8CC"/>
<path d="M221.222 448.943C216.654 437.156 214.91 407.27 213.692 393.214C210.691 358.602 205.678 320.108 210.592 285.685C220.429 216.781 268.172 155.19 336.69 136.855C389.459 122.961 449.408 134.608 495.759 161.868C465.454 184.708 439.502 212.811 419.143 244.835C416.504 248.935 410.082 258.762 408.31 262.882C392.082 258.889 376.962 257.263 360.485 261.5C337.209 267.486 318.455 282.148 312.766 306.27C309.136 321.935 311.933 338.402 320.534 351.99C332.103 370.334 350.083 380.196 369.314 388.624C355.712 392.233 342.301 394.596 328.929 397.916C294.197 406.54 257.316 414.632 223.004 424.656C223.481 431.928 223.897 439.203 224.253 446.482L223.643 448.309C222.452 448.821 222.505 448.827 221.222 448.943Z" fill="#F9E3E8"/>
<path d="M495.762 161.867L496.145 161.945C534.175 185.04 561.147 212.465 581.379 252.166C585.304 259.867 587.328 267.781 590.678 274.966C584.787 278.726 578.128 283.022 572.986 287.688C549.303 309.178 533.744 338.182 517.937 365.342C513.263 365.371 510.429 365.471 505.862 366.189C502.484 358.937 498.904 351.782 495.124 344.731C475.324 308.064 450.178 275.386 408.312 262.881C410.084 258.761 416.507 248.934 419.146 244.834C439.505 212.81 465.457 184.707 495.762 161.867Z" fill="#FFCFD2"/>
<path d="M684.446 270.216C694.684 265.711 706.533 262.936 717.558 260.763C746.669 255.025 774.418 255.206 803.344 261.467C857.465 273.181 899.181 315.938 907.807 371.011C908.366 374.58 908.66 378.34 909.083 381.958C911.496 430.072 894.764 467.309 867.916 506.173C861.215 515.873 853.591 525.185 846.891 534.699L846.467 535.111C843.065 533.853 828.381 524.764 823.476 522.039C812.96 516.195 802.183 511.003 791.786 505.142L792.704 487.851C796.552 486.714 800.526 486.008 803.371 483.294C804.793 480.173 804.99 418.26 804.908 410.538C798.588 409.278 791.578 407.242 785.205 405.702L749.182 397.122C726.618 391.636 704.065 386.705 681.559 381.137C703.092 366.443 718.332 339.295 714.734 312.621C712.251 294.209 698.798 280.814 684.446 270.216Z" fill="#B9FBC0"/>
<path d="M369.314 388.624C350.083 380.196 332.103 370.334 320.534 351.99C311.933 338.402 309.136 321.935 312.766 306.27C318.455 282.148 337.209 267.486 360.485 261.5C376.962 257.263 392.082 258.889 408.31 262.882C450.175 275.387 475.321 308.065 495.121 344.732C498.901 351.783 502.482 358.938 505.86 366.19C510.427 365.472 513.261 365.372 517.935 365.343C533.742 338.183 549.3 309.179 572.983 287.689C578.125 283.023 584.784 278.727 590.675 274.967C615.319 260.295 641.137 254.474 669.192 263.275C673.911 264.755 679.941 267.996 684.443 270.215C698.795 280.813 712.248 294.208 714.731 312.62C718.329 339.294 703.089 366.442 681.556 381.136C704.062 386.704 726.615 391.635 749.179 397.121L785.202 405.701C791.575 407.241 798.585 409.277 804.905 410.537C804.987 418.259 804.79 480.172 803.368 483.293C800.523 486.007 796.549 486.713 792.701 487.85L791.783 505.141C790.855 532.489 788.769 561.346 788.433 588.498C785.765 617.162 786.051 647.132 784.486 675.938C784.334 678.741 784.716 683.433 782.691 684.821C776.695 688.931 750.322 697.869 745.356 699.684C729.307 705.543 713.3 711.515 697.335 717.599C688.926 720.714 679.074 723.911 670.946 727.238C667.5 737.91 662.388 744.964 652.1 750.223C646.009 753.336 637.935 756.052 631.209 753.779C627.315 752.496 628.232 749.933 626.333 747.851C616.942 750.986 606.969 755.123 597.646 758.665L538.008 781.416C531.176 783.999 514.667 790.769 508.215 792.552C504.111 791.338 500.013 790.207 496.036 788.619C484.009 784.128 471.461 780.032 459.279 775.737C438.004 768.236 416.374 759.456 395.203 752.014C395.957 754.495 396.531 757.101 397.137 759.628C386.779 760.229 373.177 757.769 364.194 752.267C357.347 748.073 354.669 742.908 353.016 735.437C318.335 723.991 281.879 707.942 246.783 695.536C246.353 689.107 246.178 682.384 246.068 675.931C245.085 618.162 241.382 560.223 240.426 502.502C235.451 501.023 231.363 499.795 226.493 497.917C225.342 480.925 225.101 463.543 224.253 446.482C223.897 439.203 223.481 431.928 223.004 424.656C257.316 414.632 294.197 406.54 328.929 397.916C342.301 394.596 355.712 392.233 369.314 388.624ZM406.29 266.287C383.681 260.516 362.656 261.3 341.807 273.126C329.487 280.114 320.01 292.343 316.516 306.157C312.888 320.937 315.352 336.556 323.356 349.501C336.241 370.707 371.465 388.713 395.231 394.303C396.295 394.558 397.374 394.745 398.462 394.865L395.856 386.068C374.469 375.336 353.21 361.147 345.979 337.276C334.949 300.863 362.354 287.166 393.62 291.278C422.822 298.521 443.492 314.278 464.881 334.621C476.098 345.289 485.497 357.315 495.982 368.684L501.647 366.712C498.504 358.533 492.662 347.648 488.413 340.003C470.013 306.895 444.198 276.87 406.29 266.287ZM678.63 271.32C656.808 260.913 634.803 260.578 612.007 268.605C605.925 270.747 595.828 275.291 590.655 279.184C558.306 300.263 540.564 333.768 521.688 366.22L527.914 368.915C546.631 344.811 569.815 317.769 596.523 302.411C611.208 293.968 616.168 291.737 632.549 288.512C642.885 288.447 651.514 289.058 660.594 294.681C668.973 299.808 674.936 308.092 677.139 317.666C681.06 334.462 675.909 352.781 662.352 363.758C655.994 368.906 650.027 370.614 642.233 372.43C653.84 375.182 665.473 377.827 677.129 380.365C691.703 369.226 700.334 359.866 707.19 342.798C719.579 311.955 705.796 287.392 678.63 271.32ZM394.49 294.699C361.45 288.524 336.238 305.553 350.528 341.068C357.962 359.547 376.888 373.835 394.46 382.333C394.512 379.23 394.48 377.022 395.038 373.96C408.57 345.167 453.615 364.336 475.288 371.472C477.308 372.137 486.034 372.292 488.841 372.547C490.823 371.625 492.07 371.562 491.883 369.31C465.679 339.565 435.034 303.659 394.49 294.699ZM594.241 308.057C572.63 321.928 555.932 339.389 540.166 359.433C537.056 362.352 533.493 367.617 530.999 371.223C531.958 372.225 533.042 373.499 533.982 374.551C550.224 365.429 561.179 366.204 577.186 354.699L580.476 352.321C600.829 338.911 608.483 312.893 636.304 314.044C613.255 319.175 606.941 331.147 590.993 347.15C586.357 351.802 581.267 355.871 575.89 359.633C595.204 358.217 612.23 356.996 626.407 371.618C636.944 371.643 645.605 371.547 654.976 366.094C683.589 349.443 683.855 300.864 648.125 292.759C628.55 288.319 610.461 298.198 594.241 308.057ZM493.317 374.039C486.639 378.317 482.805 386.904 487.62 393.986C495.236 401.2 515.65 404.727 525.259 399.946C528.808 398.207 531.463 395.055 532.574 391.262C533.865 386.835 532.815 381.159 530.54 377.249C523.098 364.46 503.759 367.534 493.317 374.039ZM661.036 392.385C634.642 401.836 594.083 407.035 566.398 404.402C568.654 405.641 569.218 405.765 571.737 406.387C589.242 412.709 616.53 421.583 634.297 426.565C649.38 431.63 668.048 438.6 679.938 449.401C704.916 440.947 729.99 432.775 755.153 424.887C765.849 421.454 784.901 415.97 794.686 411.93C788.405 409.631 776.549 407.466 769.562 405.83L716.02 393.185C703.405 390.38 691.039 387.139 678.356 384.397C672.66 387.223 666.884 389.887 661.036 392.385ZM402.463 400.192C391.992 397.183 383.223 394.502 373.025 390.767C335.745 399.841 297.151 408.313 260.232 418.508C250.781 420.298 238.08 423.631 228.607 426.364C262.694 437.087 297.226 445.457 331.5 455.485C335.616 456.689 339.755 458.028 343.803 459.446C349.879 446.596 358.405 443.952 371.082 438.694C374.193 437.812 383.187 433.917 387.034 432.44C401.287 427.068 415.446 421.449 429.504 415.585C437.235 413.009 444.766 409.785 452.801 407.19C431.881 405.881 422.796 405.315 402.463 400.192ZM520.894 405.231C518.429 405.553 516.077 405.84 513.629 406.303C514.153 410.922 532.796 427.588 537.171 430.169C548.699 436.971 563.188 446.971 575.166 452.519C585.733 458.467 600.828 461.419 612.91 461.494C615.611 461.51 621.923 462.124 621.951 458.351C617.318 452.63 600.831 442.183 593.934 438.15C584.463 433.301 575.124 428.198 565.927 422.849C559.161 418.838 552.15 414.528 545.466 410.413C536.132 404.667 531.989 402.567 520.894 405.231ZM450.972 411.125C442.005 413.623 423.874 421.402 414.606 425.368C401.438 431.004 354.044 445.13 348.924 456.947C339.973 477.602 342.947 509.149 343.57 531.107L343.882 534.247L353.169 681.533C353.877 687.022 353.86 696.146 354.158 701.814C356.001 736.863 351.9 752.887 392.696 756.732C385.417 734.063 386.96 724.539 385.887 701.101C385.215 683.138 384.332 665.184 383.239 647.242C382.138 636.264 381.891 620.228 381.368 608.654C380.155 586.59 379.226 564.51 378.581 542.422L378.337 517.632C379.086 487.021 378.648 471.423 402.891 450.777C405.739 449.262 408.575 447.725 411.4 446.167C423.738 440.585 436.678 435.321 448.754 429.364C458.2 424.704 468.354 418.113 477.295 412.475C480.912 410.203 488.465 405.589 491.408 403.001L490.919 402.355C486.458 401.368 455.979 408.915 450.972 411.125ZM582.634 414.004C568.567 408.714 558.971 405.48 543.821 405.237C548.597 408.804 556.806 413.491 562.126 416.651C575.12 424.543 585.897 430.384 599.28 437.492C613.209 446.351 621.126 451.14 631.942 463.878C644.394 460.145 664.289 455.065 675.79 450.257C664.374 441.348 639.081 431.7 624.627 427.255C610.735 422.665 596.59 418.54 582.634 414.004ZM528.891 427.674C522.594 421.914 517.552 416.648 511.721 410.386C500.639 423.346 488.771 431.04 474.189 439.554C470.434 441.746 466.065 443.619 462.425 445.715C448.034 451.488 434.308 456.341 419.541 461.076C416.249 462.132 406.48 465.851 403.863 466.343L402.986 465.764C403.748 462.67 419.18 457.912 422.526 456.847C451.635 447.575 492.963 432.741 510.003 406.125C505.11 405.224 501.741 404.393 496.944 403.038C490.091 409.538 483.688 412.98 476.284 418.218C458.178 431.028 439.207 438.612 419.106 447.755C412.121 449.854 402.985 454.374 398.047 459.863C394.277 463.794 391.66 467.293 389.158 472.193C395.01 473.412 400.875 474.565 406.753 475.652C407.926 475.882 411.956 476.586 412.87 476.901C414.196 478.355 424.683 480.436 427.221 480.692L427.128 481.812C423.887 483.151 417.082 479.297 414.708 480.526L413.94 480.604C407.815 479.174 400.958 478.106 394.619 476.713C392.55 476.322 389.98 475.915 387.975 475.438C380.84 492.181 382.437 521.816 382.6 540.656C385.296 541.314 388.745 542.251 391.406 542.732C398.946 544.686 406.901 546.447 414.349 548.465C417.041 549.161 420.418 549.931 423.024 550.722L423.33 551.651C427.01 552.514 432.869 553.58 435.604 555.945C432.178 556.644 427.488 553.237 422.774 553.907C420.741 553.776 396.398 547.497 392.96 546.612C389.057 545.663 386.324 544.831 382.511 543.537C383.018 576.802 385.015 615.227 387.2 648.445C389.366 677.678 389.225 707.736 391.495 736.979C391.788 740.757 392.809 746.777 396.431 748.452C405.64 752.871 418.51 757.004 428.279 760.576C439.701 764.752 451.383 769.238 462.834 773.224C468.858 775.388 503.819 788.522 508.005 788.419C509.76 787.514 509.66 787.527 511.621 787.396C511.651 787.419 511.674 787.454 511.711 787.465C513.269 787.934 531.627 780.192 534.932 778.978L593.111 756.956C603.915 752.906 615.976 748.537 626.57 743.779C628.146 743.071 628.111 742.013 628.543 740.473C628.395 738.471 629.442 728.987 629.693 726.161C630.338 718.478 630.847 710.784 631.221 703.082C632.124 682.227 632.813 661.363 633.288 640.494C633.684 627.159 634.45 613.598 634.489 600.295L634.877 588.089L635.617 558.835C636.192 554.201 636.262 543.763 636.479 538.612C619.089 544.31 597.799 549.848 579.848 555.105C574.611 556.509 561.057 561.205 557.084 561.812C553.073 560.769 544.76 565.38 540.691 566.206C534.598 567.442 529.618 569.281 523.816 571.469L522.844 570.813C523.911 570.522 525.636 570.046 526.516 569.455C531.708 565.965 555.525 562.08 558.608 558.195C564.768 556.224 570.954 554.332 577.163 552.521C589.104 548.818 601.088 545.258 613.114 541.841C620.121 539.893 629.896 537.601 636.498 535.187C637.391 516.699 639.172 498.494 636.011 480.256C626.799 490.72 612.392 497.107 599.006 500.225C600.954 498.067 603.644 497.139 606.259 495.976C617.784 490.847 627.755 488.339 634.876 477.359C633.683 473.353 632.751 471.581 630.746 468.011L620.943 470.633C604.525 474.453 588.237 479.228 571.63 483.109C559.96 486.275 548.321 489.549 536.712 492.932C531.791 494.35 524.76 496.665 520.047 497.733C517.393 496.549 510.061 500.078 509.932 503.357C509.933 503.313 509.443 504.387 509.457 504.358L509.339 503.728C508.937 501.697 509.021 501.233 507.645 499.885C505.037 499.427 488.222 496.077 486.489 495.325C489.94 495.083 492.536 494.83 496.001 495.583C499.855 496.42 507.52 499.573 511.236 498.378C518.168 496.149 525.355 494.111 532.228 491.874C536.474 490.492 546.928 488.309 549.665 485.922C552.235 484.857 567.578 480.921 570.476 480.335C589.719 475.104 609.037 470.153 628.424 465.483C627.163 463.702 626.607 462.57 624.801 461.458C618.606 464.08 618.722 464.195 611.885 464.177C598.192 464.14 585.771 460.609 573.546 454.609C560.35 448.184 540.55 436.519 528.891 427.674ZM226.405 429.07C226.531 433.95 227.069 439.644 227.412 444.571L227.487 448.731L229.547 495.27C234.598 497.136 238.466 498.307 243.613 499.772C266.311 507.092 289.558 513.523 312.349 520.607C316.08 521.767 320.16 523.195 323.921 524.137C328.525 525.937 334.72 527.681 339.533 529.182C339.325 505.949 337.844 495.572 340.903 472.062L341.761 468.119L342.918 461.895C322.574 455.894 302.127 450.245 281.588 444.951C263.076 439.878 244.863 434.179 226.405 429.07ZM771.899 494.188C753.653 499.729 735.514 505.617 717.493 511.85C707.238 515.283 689.533 521.084 680.129 525.437C680.115 546.551 679.349 567.657 677.833 588.716C677.602 592.327 676.821 606.599 676.008 609.772L676.103 611.387C675.499 614.044 675.367 616.493 675.069 619.175C671.741 649.152 672.091 679.079 672.993 709.167C673.077 711.957 672.898 715.507 672.552 718.3C672.497 719.733 672.191 721.766 672.012 723.245C681.118 719.37 695.181 714.716 704.888 711.139C708.756 709.786 712.97 708.218 716.758 706.635C737.529 697.952 760.467 691.64 780.924 682.577C782.278 669.869 782.081 654.027 782.569 641.111C782.931 631.521 783.514 621.236 783.524 611.718C778.287 622.896 772.407 633.639 762.556 641.508C755.596 647.067 741.757 655.707 732.838 656.573C733.717 655.61 745.729 650.458 748.293 649.054C754.166 645.899 759.603 641.99 764.465 637.428C772.467 629.791 781.153 616.514 783.591 605.501C784.388 601.899 784.457 595.866 784.565 591.995C786.087 571.744 786.021 551.1 787.371 530.806C787.978 521.684 788.5 512.228 788.564 503.098C788.965 498.607 789.092 493.545 789.306 489.001L771.899 494.188ZM254.545 506.559C250.843 505.716 247.543 504.627 243.924 503.477C244.025 509.666 244.132 531.95 244.911 537.141C245.368 554.913 246.397 572.834 246.93 590.684L249.044 656.94C249.319 666.415 249.221 684.28 250.443 692.95C283.99 704.514 318.3 719.225 352.202 731.498C350.708 719.075 350.482 706.545 349.796 694.068C348.515 670.799 347.293 647.267 345.508 624.038C345.485 620.95 345.149 617.807 345.027 614.717C343.949 587.462 341 560.162 340.232 532.909C328.924 528.716 312.703 524.224 300.924 520.786C285.382 516.316 269.92 511.573 254.545 506.559ZM650.91 537.299C650.476 535.84 650.543 534.999 649.576 534.307C648.977 535.464 649.013 535.383 648.938 536.689L648.206 535.349C645.908 535.011 642.519 536.718 640.251 537.653C639.19 555.919 638.571 574.208 638.392 592.505C638.357 597.826 638.231 603.146 638.014 608.463C636.331 651.898 636.932 696.298 632.141 739.509C631.896 741.717 630.643 748.003 631.394 749.727C632.922 750.96 634.723 751.033 636.694 751.063C644.814 749.682 651.937 747.3 658.139 741.642C671.031 729.861 668.931 711.318 668.623 695.594C668.559 682.607 667.893 669.474 668.419 656.494C669.412 632.032 672.883 607.793 674.043 583.309C675.036 577.587 675.457 563.047 675.722 556.775C677.403 522.745 676.425 488.636 672.798 454.758C664.941 456.723 653.803 460.406 646.043 462.941C647.076 487.57 650.457 513.476 650.91 537.299ZM418.346 361.654C406.199 363.473 399.788 366.524 397.482 379.418C411.916 377.19 426.419 375.434 440.967 374.152C450.049 373.247 459.641 372.244 468.744 371.737L467.835 371.536C450.198 367.545 438.132 360.028 418.346 361.654ZM582.575 362.205C569.004 363.183 546.879 371.62 535.419 378.887C545.314 375.977 560.469 371.622 570.875 371.518C588.741 370.463 604.62 371.962 622.184 371.619C613.265 362.863 594.324 361.013 582.575 362.205ZM572.804 374.708C558.246 375.914 549.888 377.871 536.263 382.615L537.417 387.684C560.897 385.129 568.094 387.534 589.877 389.275C596.608 389.82 617.3 390.213 623.179 385.874C625.461 384.189 624.617 378.196 624.256 375.54C612.204 375.324 583.103 373.436 572.804 374.708ZM628.439 374.577C629.478 387.803 627.406 391.481 616.967 399.355C631.687 397.138 639.134 395.587 653.49 391.205C660.256 388.728 666.697 386.548 672.956 382.911C664.619 381.165 635.6 374.344 628.439 374.577ZM464.742 375.21C443.698 376.488 423.819 379.396 402.934 381.31C412.253 384.386 416.835 385.29 426.62 386.11C442.294 387.555 466.551 386.765 482.127 384.459C483.128 380.671 483.803 379.095 485.397 375.476C479.239 375.236 470.775 374.704 464.742 375.21ZM398.593 383.425C400.153 384.983 402.824 387.748 404.655 388.708C425.951 399.861 460.25 397.611 482.907 393.365C483.152 391.671 482.283 389.485 481.772 387.768C460.47 390.367 439.493 391.395 418.154 388.304C411.903 387.399 402.833 383.904 398.593 383.425ZM544.741 389.689C542.14 389.995 539.141 390.139 536.8 391.156L536.643 391.885C538.768 393.754 544.689 395.166 547.412 395.993C564.108 401.068 579.484 402.355 596.838 401.14C601.305 400.827 607.697 400.277 611.937 398.623C616.298 395.945 618.133 394.514 621.562 390.645C610.406 392.617 599.04 393.126 587.753 392.159C576.097 391.146 555.754 388.071 544.741 389.689ZM399.778 390.537C400.007 392.225 399.963 393.222 400.995 394.566C412.443 400.851 453.554 405.038 467.453 401.478C468.8 401.133 474.718 398.976 476.405 398.358L477.35 397.753C475.03 397.439 463.16 399.387 459.406 399.548C437.926 400.473 419.378 399.97 399.778 390.537ZM534.073 395.915C533.297 397.258 531.955 398.946 532.181 400.155C535.96 401.722 548.66 401.236 553.88 401.887L554.815 401.604C551.497 399.667 538.391 397.283 534.073 395.915ZM484.028 396.976C482.254 397.614 476.074 399.659 474.973 400.605C476.598 400.796 476.838 400.66 478.419 400.361C480.904 399.901 484.363 399.441 486.58 398.439L486.498 397.788C485.364 397.33 485.209 397.172 484.028 396.976ZM800.244 413.979C759.302 427.165 716.798 440.072 676.369 454.22C679.391 472.584 680.11 501.626 680.106 520.856L680.741 521.367C686.521 520.076 691.87 517.206 696.981 515.592C711.664 510.953 726.048 505.93 740.628 501.052C752.765 496.956 764.94 492.973 777.151 489.103C783.363 487.118 795.146 483.68 800.485 481.065C800.528 473.702 802.308 415.633 801.181 413.999L800.244 413.979ZM644.153 463.484C640.845 464.615 637.39 465.739 634.116 466.924C643.395 486.079 640.805 512.276 640.289 533.443C642.685 533.452 646.207 532.095 648.573 531.258C647.126 513.404 645.762 495.201 644.649 477.313C644.446 474.054 645.52 465.885 644.899 463.676L644.153 463.484Z" fill="#1C1E58"/>
<path d="M398.464 394.866C397.376 394.746 396.297 394.559 395.233 394.304C371.467 388.714 336.243 370.708 323.358 349.502C315.354 336.557 312.89 320.938 316.518 306.158C320.012 292.344 329.489 280.115 341.809 273.127C362.658 261.301 383.683 260.517 406.292 266.288C405.286 270.843 397.226 285.57 394.813 290.664L393.622 291.279C362.356 287.167 334.951 300.864 345.981 337.277C353.212 361.148 374.471 375.337 395.858 386.069L398.464 394.866Z" fill="#F9E3E8"/>
<path d="M590.656 279.186C595.829 275.293 605.926 270.749 612.008 268.607C634.804 260.58 656.809 260.915 678.631 271.322C676.169 272.993 671.538 274.177 668.551 275.138C659.342 278.103 650.388 281.677 641.313 285.02C638.614 286.014 634.826 286.932 632.55 288.514C616.169 291.739 611.209 293.97 596.524 302.413C595.757 300.719 594.832 291.746 594.111 288.885C593.016 284.544 592.479 283.409 590.656 279.186Z" fill="#FBF8CC"/>
<path d="M406.291 266.289C444.199 276.872 470.014 306.897 488.414 340.005C492.663 347.65 498.505 358.535 501.648 366.714L495.983 368.686C485.498 357.317 476.099 345.291 464.882 334.623C443.493 314.28 422.823 298.523 393.621 291.28L394.812 290.665C397.225 285.571 405.285 270.844 406.291 266.289Z" fill="#FFCFD2"/>
<path d="M678.632 271.32C705.798 287.392 719.581 311.955 707.192 342.798C700.336 359.866 691.705 369.226 677.131 380.365C665.475 377.827 653.842 375.182 642.235 372.43C650.029 370.614 655.996 368.906 662.354 363.758C675.911 352.781 681.062 334.462 677.141 317.666C674.938 308.092 668.975 299.808 660.596 294.681C651.516 289.058 642.887 288.447 632.551 288.512C634.827 286.93 638.615 286.012 641.314 285.018C650.389 281.675 659.343 278.101 668.552 275.136C671.539 274.175 676.17 272.991 678.632 271.32Z" fill="#B9FBC0"/>
<path d="M521.688 366.22C540.563 333.768 558.305 300.263 590.654 279.184C592.477 283.407 593.014 284.542 594.109 288.883C594.83 291.744 595.755 300.717 596.522 302.411C569.814 317.769 546.63 344.811 527.913 368.915L521.688 366.22Z" fill="#FFCFD2"/>
<path d="M594.242 308.059C610.462 298.2 628.551 288.321 648.126 292.761C683.856 300.866 683.59 349.445 654.977 366.096C645.606 371.549 636.945 371.645 626.408 371.62C612.231 356.998 595.205 358.219 575.891 359.635C581.268 355.873 586.358 351.804 590.994 347.152C606.942 331.149 613.256 319.177 636.305 314.046C608.484 312.895 600.83 338.913 580.477 352.323C580.584 350.276 584.818 345.709 586.373 342.998C592.496 332.426 595.242 320.235 594.242 308.059Z" fill="#B9FBC0"/>
<path d="M394.462 382.335C376.89 373.837 357.964 359.549 350.53 341.07C336.24 305.555 361.452 288.526 394.492 294.701C385.618 320.011 386.303 334.583 392.624 360.783C393.565 364.681 393.637 370.545 395.04 373.962C394.482 377.024 394.514 379.232 394.462 382.335Z" fill="#F9E3E8"/>
<path d="M394.492 294.699C435.036 303.659 465.681 339.565 491.885 369.31C492.072 371.562 490.825 371.625 488.843 372.547C486.036 372.292 477.31 372.137 475.29 371.472C453.617 364.336 408.572 345.167 395.04 373.96C393.637 370.543 393.565 364.679 392.624 360.781C386.303 334.581 385.618 320.009 394.492 294.699Z" fill="#FFCFD2"/>
<path d="M540.168 359.435C555.934 339.391 572.632 321.93 594.243 308.059C595.243 320.235 592.497 332.426 586.374 342.998C584.819 345.709 580.585 350.276 580.478 352.323L577.188 354.701C571.682 353.053 547.001 358.27 540.168 359.435Z" fill="#FFCFD2"/>
<path d="M540.167 359.436C547 358.271 571.681 353.054 577.187 354.702C561.18 366.207 550.225 365.432 533.983 374.554C533.043 373.502 531.959 372.228 531 371.226C533.494 367.62 537.057 362.355 540.167 359.436Z" fill="#98F5E1"/>
<path d="M397.484 379.42C399.79 366.526 406.201 363.475 418.348 361.656C438.134 360.03 450.2 367.547 467.837 371.538L468.746 371.739C459.643 372.246 450.051 373.249 440.969 374.154C426.421 375.436 411.918 377.192 397.484 379.42Z" fill="#FFCFD2"/>
<path d="M535.422 378.887C546.882 371.62 569.007 363.183 582.578 362.205C594.327 361.013 613.268 362.863 622.187 371.619C604.623 371.962 588.744 370.463 570.878 371.518C560.472 371.622 545.317 375.977 535.422 378.887Z" fill="#98F5E1"/>
<path d="M493.318 374.041C503.76 367.536 523.099 364.461 530.541 377.25C532.816 381.16 533.866 386.836 532.575 391.263C531.464 395.056 528.809 398.208 525.26 399.947C515.651 404.728 495.237 401.201 487.621 393.987C488.705 393.353 490.589 392.352 490.998 391.197C492.578 386.739 495.188 378.476 493.318 374.041Z" fill="#B9FBC0"/>
<path d="M487.622 393.986C482.807 386.904 486.641 378.317 493.319 374.039C495.189 378.474 492.579 386.738 490.999 391.196C490.59 392.351 488.706 393.352 487.622 393.986Z" fill="#98F5E1"/>
<path d="M536.266 382.617C549.891 377.873 558.249 375.916 572.807 374.71C583.106 373.438 612.207 375.326 624.259 375.542C624.62 378.198 625.464 384.191 623.182 385.876C617.303 390.215 596.611 389.822 589.88 389.277C568.097 387.536 560.9 385.131 537.42 387.686L536.266 382.617Z" fill="#98F5E1"/>
<path d="M616.969 399.354C627.408 391.48 629.48 387.802 628.441 374.576C635.602 374.343 664.621 381.164 672.958 382.91C666.699 386.547 660.258 388.727 653.492 391.204C639.136 395.586 631.689 397.137 616.969 399.354Z" fill="#98F5E1"/>
<path d="M402.934 381.311C423.819 379.397 443.698 376.489 464.742 375.211C470.775 374.705 479.239 375.237 485.397 375.477C483.803 379.096 483.128 380.672 482.127 384.46C466.551 386.766 442.294 387.556 426.62 386.111C416.835 385.291 412.253 384.387 402.934 381.311Z" fill="#E1F6F1"/>
<path d="M482.908 393.366C460.251 397.612 425.952 399.862 404.656 388.709C402.825 387.749 400.154 384.984 398.594 383.426C402.834 383.905 411.904 387.4 418.155 388.305C439.494 391.396 460.471 390.368 481.773 387.769C482.284 389.486 483.153 391.672 482.908 393.366Z" fill="#98F5E1"/>
<path d="M661.037 392.386C666.885 389.888 672.661 387.224 678.357 384.398C691.04 387.14 703.406 390.381 716.021 393.186C710.044 402.687 688.076 404.234 684.658 411.109C669.971 412.651 665.29 411.659 650.546 408.951C656.833 411.945 661.388 412.6 668.367 413.239C666.58 415.505 639.647 423.643 634.298 426.566C616.531 421.584 589.243 412.71 571.738 406.388C574.332 404.918 589.886 404.915 592.86 406.402L593.048 407.813L594.222 407.414L594.094 407.126L593.624 407.699C592.672 407.869 592.904 407.845 592.01 408.295L592.138 409.046C596.477 411.44 599.067 409.876 603.743 409.151C614.039 407.555 657.219 401.307 661.037 392.386Z" fill="#F9E3E8"/>
<path d="M611.939 398.622C607.699 400.276 601.307 400.826 596.84 401.139C579.486 402.354 564.11 401.067 547.414 395.992C544.691 395.165 538.77 393.753 536.645 391.884L536.802 391.155C539.143 390.138 542.142 389.994 544.743 389.688C555.756 388.07 576.099 391.145 587.755 392.158C599.042 393.125 610.408 392.616 621.564 390.644C618.135 394.513 616.3 395.944 611.939 398.622Z" fill="#98F5E1"/>
<path d="M476.404 398.36C474.717 398.978 468.799 401.135 467.452 401.48C453.553 405.04 412.442 400.853 400.994 394.568C399.962 393.224 400.006 392.227 399.777 390.539C419.377 399.972 437.925 400.475 459.405 399.55C463.159 399.389 475.029 397.441 477.349 397.755L476.404 398.36Z" fill="#98F5E1"/>
<path d="M402.465 400.195C402.292 401.068 401.987 401.514 402.487 401.97C409.267 408.16 422.455 412.046 429.506 415.588C415.448 421.452 401.289 427.071 387.036 432.443C383.189 433.92 374.195 437.815 371.084 438.697C368.694 437.21 356.862 438.14 353.158 437.717C328.661 434.898 304.572 429.054 280.474 423.935C275.619 422.904 264.061 420.563 260.234 418.511C297.153 408.316 335.747 399.844 373.027 390.77C383.225 394.505 391.994 397.186 402.465 400.195Z" fill="#98F5E1"/>
<path d="M566.398 404.404C594.083 407.037 634.642 401.838 661.036 392.387C657.218 401.308 614.038 407.556 603.742 409.152C599.066 409.877 596.476 411.441 592.137 409.047L592.009 408.296C592.903 407.846 592.671 407.87 593.623 407.7L594.093 407.127L594.221 407.415L593.047 407.814L592.859 406.403C589.885 404.916 574.331 404.919 571.737 406.389C569.218 405.767 568.654 405.643 566.398 404.404Z" fill="#8EECF5"/>
<path d="M716.02 393.188L769.562 405.832C776.549 407.468 788.405 409.633 794.686 411.932C784.901 415.972 765.849 421.456 755.153 424.889C729.99 432.777 704.916 440.95 679.938 449.404C668.048 438.603 649.38 431.633 634.297 426.568C639.646 423.645 666.579 415.507 668.366 413.241C682.593 415.483 704.869 411.074 715.043 400.061C703.7 407.465 698.358 409.594 684.657 411.111C688.075 404.236 710.043 402.689 716.02 393.188Z" fill="#98F5E1"/>
<path d="M553.881 401.886C548.661 401.235 535.961 401.721 532.182 400.154C531.956 398.945 533.298 397.257 534.074 395.914C538.392 397.282 551.498 399.666 554.816 401.603L553.881 401.886Z" fill="#98F5E1"/>
<path d="M478.419 400.362C476.838 400.661 476.598 400.797 474.973 400.606C476.074 399.66 482.254 397.615 484.028 396.977C485.209 397.173 485.364 397.331 486.498 397.789L486.58 398.44C484.363 399.442 480.904 399.902 478.419 400.362Z" fill="#98F5E1"/>
<path d="M429.504 415.584C422.453 412.042 409.265 408.156 402.485 401.966C401.985 401.51 402.29 401.064 402.463 400.191C422.796 405.314 431.881 405.88 452.801 407.189C444.766 409.784 437.235 413.008 429.504 415.584Z" fill="#E1F6F1"/>
<path d="M650.547 408.95C665.291 411.658 669.972 412.65 684.659 411.108C698.36 409.591 703.702 407.463 715.045 400.059C704.871 411.072 682.595 415.48 668.368 413.238C661.389 412.599 656.834 411.944 650.547 408.95Z" fill="#1C1E58"/>
<path d="M450.973 411.124C455.98 408.914 486.459 401.367 490.92 402.354L491.409 403C488.466 405.588 480.913 410.202 477.296 412.474C474.137 411.08 474.032 411.082 470.71 412.409C466.627 414.039 463.156 415.891 458.936 417.234C461.301 413.908 473.633 412.216 473.951 408.657C472.848 407.498 471.776 407.386 470.217 406.945C465.785 407.631 453.533 411.355 450.973 411.124Z" fill="#B9FBC0"/>
<path d="M419.108 447.756C439.209 438.613 458.18 431.029 476.286 418.219C483.69 412.981 490.093 409.539 496.946 403.039C501.743 404.394 505.112 405.225 510.005 406.126C492.965 432.742 451.637 447.576 422.528 456.848C419.182 457.913 403.75 462.671 402.988 465.765L403.865 466.344C406.145 469.3 406.186 471.953 406.755 475.653C400.877 474.566 395.012 473.413 389.16 472.194C391.662 467.294 394.279 463.795 398.049 459.864C402.812 459.145 415.67 451.328 419.108 447.756Z" fill="#98F5E1"/>
<path d="M520.894 405.233C531.989 402.569 536.132 404.669 545.466 410.415C552.15 414.53 559.161 418.84 565.927 422.851C575.124 428.2 584.463 433.303 593.934 438.152C587.843 442.778 581.28 448.054 575.166 452.521C563.188 446.973 548.699 436.973 537.171 430.171C532.796 427.59 514.153 410.924 513.629 406.305C513.869 406.296 526.943 409.982 529.286 410.399C525.919 408.777 522.656 408.435 520.894 405.233Z" fill="#E1F6F1"/>
<path d="M513.629 406.302C516.077 405.839 518.429 405.552 520.894 405.23C522.656 408.432 525.919 408.774 529.286 410.396C526.943 409.979 513.869 406.293 513.629 406.302Z" fill="#98F5E1"/>
<path d="M543.82 405.238C558.97 405.481 568.566 408.715 582.633 414.005C575.973 417.937 564.799 415.064 562.125 416.652C556.805 413.492 548.596 408.805 543.82 405.238Z" fill="#8EECF5"/>
<path d="M343.57 531.106C342.947 509.148 339.973 477.601 348.924 456.946C354.044 445.129 401.438 431.003 414.606 425.367C423.874 421.401 442.005 413.622 450.972 411.124C453.532 411.355 465.784 407.631 470.216 406.945C471.775 407.386 472.847 407.498 473.95 408.657C473.632 412.216 461.3 413.908 458.935 417.234C450.771 420.789 444.013 423.97 436.177 428.219C430.877 426.705 424.981 430.604 420.414 432.904C413.376 436.447 410.04 440.599 405.712 446.835C404.805 448.142 403.505 449.368 402.891 450.776C378.648 471.422 379.086 487.02 378.337 517.631C377.21 519.413 377.903 535.873 378.246 538.818C374.41 538.235 368.3 536.91 364.875 536.603C364.364 529.898 364.498 523.734 365.218 517.063C365.583 513.679 365.962 510.66 365.218 507.288C361.745 516.139 362.242 525.202 362.19 534.599C359.751 535.851 346.498 532.362 343.57 531.106ZM373.456 453.327C367.556 456.921 361.405 468.041 362.378 474.841L363.354 475.729C365.538 473.062 366.753 465.237 368.808 461.701C370.247 459.225 374.07 456.411 374.395 454.261C373.718 453.407 374.081 453.658 373.456 453.327Z" fill="#E1F6F1"/>
<path d="M528.892 427.675C523.239 432.836 494.349 437.294 485.612 440.008C481.992 441.132 465.465 446.295 462.426 445.716C466.066 443.62 470.435 441.747 474.19 439.555C488.772 431.041 500.64 423.347 511.722 410.387C517.553 416.649 522.595 421.915 528.892 427.675Z" fill="#98F5E1"/>
<path d="M458.937 417.235C463.157 415.892 466.628 414.04 470.711 412.41C474.033 411.083 474.138 411.081 477.297 412.475C468.356 418.113 458.202 424.704 448.756 429.364C436.68 435.321 423.74 440.585 411.402 446.167C411.542 445.711 411.681 445.255 411.821 444.799C418.193 439.844 429.818 432.389 436.179 428.22C444.015 423.971 450.773 420.79 458.937 417.235Z" fill="#7CF0C3"/>
<path d="M582.637 414.004C596.593 418.54 610.738 422.665 624.63 427.255C622.543 430.668 603.86 436.983 599.283 437.492C585.9 430.384 575.123 424.543 562.129 416.651C564.803 415.063 575.977 417.936 582.637 414.004Z" fill="#E1F6F1"/>
<path d="M676.371 454.221C716.8 440.073 759.304 427.166 800.246 413.98L801.183 414C802.31 415.634 800.53 473.703 800.487 481.066C795.148 483.681 783.365 487.119 777.153 489.104C764.942 492.974 752.767 496.957 740.63 501.053C726.05 505.931 711.666 510.954 696.983 515.593C691.872 517.207 686.523 520.077 680.743 521.368L680.108 520.857C680.112 501.627 679.393 472.585 676.371 454.221ZM788.659 471.835C787.668 473.421 786.688 475.015 785.721 476.616L785.961 477.605L785.904 477.538C787.66 475.773 788.405 474.295 789.639 472.167C790.394 470.577 791.182 468.863 791.343 467.08C791.589 464.348 791.418 455.785 787.511 455.917C787.904 456.676 788.281 457.443 788.643 458.217C790.828 462.94 790.667 466.412 788.901 471.194L788.659 471.835ZM772.527 450.192C753.226 452.239 719.374 467.324 718.372 491.927C718.301 493.681 719.581 495.983 721.09 496.996L721.901 496.686C722.297 494.645 721.742 493.99 720.814 491.82C717.533 470.726 756.319 453.248 772.84 451.299C775.26 451.014 778.072 450.87 780.511 450.828C777.087 450.254 776.022 450.027 772.527 450.192Z" fill="#98F5E1"/>
<path d="M228.609 426.364C238.082 423.631 250.783 420.298 260.234 418.508C264.061 420.56 275.619 422.901 280.474 423.932C304.572 429.051 328.661 434.895 353.158 437.714C356.862 438.137 368.694 437.207 371.084 438.694C358.407 443.952 349.881 446.596 343.805 459.446C339.757 458.028 335.618 456.689 331.502 455.485C297.228 445.457 262.696 437.087 228.609 426.364Z" fill="#FBF8CC"/>
<path d="M624.628 427.258C639.082 431.703 664.375 441.351 675.791 450.26C664.29 455.068 644.395 460.148 631.943 463.881C621.127 451.143 613.21 446.354 599.281 437.495C603.858 436.986 622.541 430.671 624.628 427.258Z" fill="#7CF0C3"/>
<path d="M402.891 450.78C403.505 449.372 404.805 448.146 405.712 446.839C410.04 440.603 413.376 436.451 420.414 432.908C424.981 430.608 430.877 426.709 436.177 428.223C429.816 432.392 418.191 439.847 411.819 444.802C411.679 445.258 411.54 445.714 411.4 446.17C408.575 447.728 405.739 449.265 402.891 450.78Z" fill="#98F5E1"/>
<path d="M462.425 445.717C465.464 446.296 481.991 441.133 485.611 440.009C494.348 437.295 523.238 432.837 528.891 427.676C540.55 436.521 560.35 448.186 573.546 454.611C570.841 462.658 570.4 467.864 570.312 476.377C565.114 477.122 560.025 479.468 554.977 480.92C547.51 483.067 511.74 491.679 508.673 496.286C508.335 496.795 508.183 497.246 507.962 497.798C504.038 496.673 499.35 495.574 495.319 494.718C467.963 488.911 440.306 482.092 412.87 476.903C411.956 476.588 407.926 475.884 406.753 475.654C406.184 471.954 406.143 469.301 403.863 466.345C406.48 465.853 416.249 462.134 419.541 461.078C434.308 456.343 448.034 451.49 462.425 445.717ZM503.334 450.671C472.824 454.081 480.737 477.282 511.423 474.325C548.508 469.081 524.525 448.794 503.334 450.671Z" fill="#F9E3E8"/>
<path d="M227.413 444.571C227.07 439.644 226.532 433.95 226.406 429.07C244.864 434.179 263.077 439.878 281.589 444.951C275.313 448.134 256.544 443.76 247.33 448.817C246.382 448.331 244.904 448.449 243.714 448.406C245.406 447.162 245.193 447.545 247.585 447.236L246.946 446.687C242.394 446.322 232.093 445.357 227.884 444.654L227.413 444.571Z" fill="#FDE4CF"/>
<path d="M593.936 438.152C600.833 442.185 617.32 452.632 621.953 458.353C621.925 462.126 615.613 461.512 612.912 461.496C600.83 461.421 585.735 458.469 575.168 452.521C581.282 448.054 587.845 442.778 593.936 438.152Z" fill="#7CF0C3"/>
<path d="M227.414 444.57L227.885 444.653C232.094 445.356 242.395 446.321 246.947 446.686L247.586 447.235C245.194 447.544 245.407 447.161 243.715 448.405C241.074 448.778 230.372 448.778 227.489 448.73L227.414 444.57Z" fill="#FBF8CC"/>
<path d="M247.328 448.819C256.542 443.762 275.311 448.136 281.587 444.953C302.126 450.247 322.573 455.896 342.917 461.897L341.76 468.121C337.84 468.145 333.208 466.458 329.228 466.295C308.324 465.443 288.844 459.561 268.635 454.761C262.969 453.415 256.663 451.484 250.867 450.656C249.479 450.223 248.564 449.57 247.328 448.819Z" fill="#E1F6F1"/>
<path d="M224.254 446.484C225.102 463.545 225.343 480.927 226.494 497.919C231.364 499.797 235.452 501.025 240.427 502.504C241.383 560.225 245.086 618.164 246.069 675.933C246.179 682.386 246.354 689.109 246.784 695.538C281.88 707.944 318.336 723.993 353.017 735.439C354.67 742.91 357.348 748.075 364.195 752.269C373.178 757.771 386.78 760.231 397.138 759.63C396.532 757.103 395.958 754.497 395.204 752.016C416.375 759.458 438.005 768.238 459.28 775.739C471.462 780.034 484.01 784.13 496.037 788.621C493.544 790.069 490.251 791.857 487.898 793.397L431.67 822.853C421.188 828.217 407.158 834.552 397.308 840.254C360.749 856.259 331.285 870.04 290.935 876.49C244.96 883.838 209.848 877.09 171.983 848.721C159.242 839.175 149.706 829.029 139.506 816.757C108.441 779.1 93.2997 737.848 85.2977 689.52C70.8614 602.333 101.232 490.402 190.803 455.305C199.017 452.086 212.249 450.322 221.223 448.945C222.506 448.829 222.453 448.823 223.644 448.311L224.254 446.484Z" fill="#CFBAF0"/>
<path d="M398.047 459.866C402.985 454.377 412.121 449.857 419.106 447.758C415.668 451.33 402.81 459.147 398.047 459.866Z" fill="#8EECF5"/>
<path d="M227.488 448.731C230.371 448.779 241.073 448.779 243.714 448.406C244.904 448.449 246.382 448.331 247.33 448.817C248.566 449.568 249.481 450.221 250.869 450.654C250.467 451.984 248.504 453.682 247.516 454.358C236.416 461.962 230.99 464.963 236.083 479.647C237.96 485.944 240.272 493.435 243.614 499.772C238.467 498.307 234.599 497.136 229.548 495.27L227.488 448.731Z" fill="#B9FBC0"/>
<path d="M720.812 491.821C721.74 493.991 722.295 494.646 721.899 496.687L721.088 496.997C719.579 495.984 718.299 493.682 718.37 491.928C719.372 467.325 753.224 452.24 772.525 450.193C776.02 450.028 777.085 450.255 780.509 450.829C778.07 450.871 775.258 451.015 772.838 451.3C756.317 453.249 717.531 470.727 720.812 491.821Z" fill="#0A2449"/>
<path d="M250.871 450.656C256.667 451.484 262.973 453.415 268.639 454.761C288.848 459.561 308.328 465.443 329.232 466.295C333.212 466.458 337.844 468.145 341.764 468.121L340.906 472.064C321.677 476.762 312.995 492.501 316.872 511.799C317.756 516.197 323.476 521.822 323.924 524.139C320.163 523.197 316.083 521.769 312.352 520.609C289.561 513.525 266.314 507.094 243.616 499.774C240.274 493.437 237.962 485.946 236.085 479.649C230.992 464.965 236.418 461.964 247.518 454.36C248.506 453.684 250.469 451.986 250.871 450.656ZM263.791 471.595C261.823 472.075 261.78 471.752 260.579 472.961C262.43 474.109 270.558 473.493 273.157 473.81C287.375 475.541 298.712 485.685 306.227 496.77L307.361 497.296L308.214 496.669C308.113 493.846 300.028 485.379 297.705 483.329C288.284 475.013 278.314 470.859 265.798 471.459C265.128 471.491 264.459 471.537 263.791 471.595Z" fill="#98F5E1"/>
<path d="M511.424 474.323C480.738 477.28 472.825 454.079 503.335 450.669C524.526 448.792 548.509 469.079 511.424 474.323ZM501.435 452.571C469.754 460.871 493.959 475.321 513.119 472.289C517.521 471.763 525.228 470.498 528.274 466.908C531.326 463.309 526.442 458.677 523.536 456.999C516.846 452.852 509.155 451.924 501.435 452.571Z" fill="#1C1E58"/>
<path d="M513.117 472.292C493.957 475.324 469.752 460.874 501.433 452.574C509.153 451.927 516.844 452.855 523.534 457.002C526.44 458.68 531.324 463.312 528.272 466.911C525.226 470.501 517.519 471.766 513.117 472.292Z" fill="#F9E3E8"/>
<path d="M363.356 475.73L362.379 474.842C361.406 468.042 367.557 456.922 373.457 453.328C374.082 453.659 373.719 453.408 374.396 454.262C374.071 456.412 370.248 459.226 368.809 461.702C366.754 465.238 365.54 473.063 363.356 475.73Z" fill="#1C1E58"/>
<path d="M573.547 454.609C585.772 460.609 598.192 464.14 611.885 464.177C618.722 464.195 618.607 464.08 624.802 461.458C626.608 462.57 627.163 463.702 628.424 465.483C609.038 470.153 589.72 475.104 570.477 480.335L570.312 476.375C570.4 467.862 570.842 462.656 573.547 454.609Z" fill="#7CF0C3"/>
<path d="M650.91 537.299C650.457 513.476 647.076 487.57 646.043 462.941C653.803 460.406 664.941 456.723 672.798 454.758C676.425 488.636 677.403 522.745 675.722 556.775C675.457 563.047 675.036 577.587 674.043 583.309C666.409 594.857 665.07 599.507 648.909 597.128C648.665 595.407 648.543 593.34 648.391 591.581C652.102 575.097 651.359 554.245 650.91 537.299Z" fill="#98F5E1"/>
<path d="M788.66 471.834L788.902 471.193C790.668 466.411 790.829 462.939 788.644 458.216C788.282 457.442 787.905 456.675 787.512 455.916C791.419 455.784 791.59 464.347 791.344 467.079C791.183 468.862 790.395 470.576 789.64 472.166L788.66 471.834Z" fill="#05111C"/>
<path d="M634.117 466.924C637.391 465.739 640.846 464.615 644.154 463.484L644.9 463.676C645.521 465.885 644.447 474.054 644.65 477.313C645.763 495.201 647.127 513.404 648.574 531.258C646.208 532.095 642.686 533.452 640.29 533.443C640.806 512.276 643.396 486.079 634.117 466.924Z" fill="#98F5E1"/>
<path d="M620.943 470.634L630.746 468.012C632.751 471.582 633.683 473.354 634.876 477.36C627.755 488.34 617.784 490.848 606.259 495.977C603.644 497.14 600.954 498.068 599.006 500.226C583.706 509.173 567.59 517.318 556.338 531.586C554.997 533.287 552.883 535.872 552.299 537.907C553.767 541.442 573.284 547.936 577.163 552.522C570.954 554.333 564.768 556.225 558.608 558.196C542.585 562.749 527.414 567.951 511.649 573.152C511.231 549.601 511.649 524.578 511.499 500.814C514.259 499.91 517.47 498.984 520.047 497.734C524.76 496.666 531.791 494.351 536.712 492.933C548.321 489.55 559.96 486.276 571.63 483.11C577.31 492.342 617.715 476.035 620.943 470.634ZM573.964 511.002C563.694 516.424 538.82 540.152 535.182 550.282L535.534 551.003C545.49 539.122 554.565 527.04 567.188 517.731C568.909 516.461 573.08 513.295 574.244 511.684L573.964 511.002Z" fill="#FDE4CF"/>
<path d="M571.633 483.109C588.24 479.228 604.528 474.453 620.946 470.633C617.718 476.034 577.313 492.341 571.633 483.109Z" fill="#98F5E1"/>
<path d="M306.226 496.77C298.711 485.685 287.374 475.541 273.156 473.81C270.557 473.493 262.429 474.109 260.578 472.961C261.779 471.752 261.822 472.075 263.79 471.595C264.458 471.537 265.127 471.491 265.797 471.459C278.313 470.859 288.283 475.013 297.704 483.329C300.027 485.379 308.112 493.846 308.213 496.669L307.36 497.296L306.226 496.77Z" fill="#0A2449"/>
<path d="M789.637 472.168C788.403 474.296 787.658 475.774 785.902 477.539L785.959 477.606L785.719 476.617C786.686 475.016 787.666 473.422 788.657 471.836L789.637 472.168Z" fill="#285651"/>
<path d="M323.922 524.138C323.474 521.821 317.754 516.196 316.87 511.798C312.993 492.5 321.675 476.76 340.904 472.062C337.845 495.573 339.326 505.949 339.534 529.182C334.721 527.681 328.526 525.938 323.922 524.138Z" fill="#8EECF5"/>
<path d="M387.975 475.438C389.98 475.914 392.55 476.321 394.619 476.712C393.981 481.583 392.845 486.062 392.256 491.038C390.796 503.357 390.286 515.14 390.554 527.52C390.657 532.282 390.342 538.138 391.406 542.731C388.745 542.25 385.296 541.313 382.6 540.655C382.437 521.815 380.84 492.181 387.975 475.438Z" fill="#98F5E1"/>
<path d="M507.965 497.796C508.186 497.244 508.338 496.793 508.676 496.284C511.743 491.677 547.513 483.065 554.98 480.918C560.028 479.466 565.117 477.12 570.315 476.375L570.479 480.335C567.581 480.921 552.238 484.857 549.668 485.922C543.283 487.495 510.805 497.952 507.965 497.796Z" fill="#FDE4CF"/>
<path d="M394.622 476.715C400.961 478.108 407.818 479.176 413.943 480.606L414.239 481.441C415.547 485.074 417.761 488.978 419.007 492.673C424.188 508.043 426.49 523.81 419.468 539.015C417.887 542.441 415.978 545.275 414.352 548.467C406.904 546.449 398.949 544.688 391.409 542.734C390.345 538.141 390.66 532.284 390.557 527.522C390.289 515.142 390.799 503.359 392.259 491.04C392.848 486.064 393.984 481.586 394.622 476.715Z" fill="#B9FBC0"/>
<path d="M412.871 476.902C440.307 482.091 467.964 488.91 495.32 494.717C499.351 495.573 504.039 496.672 507.963 497.797C510.803 497.953 543.281 487.496 549.666 485.923C546.929 488.31 536.475 490.493 532.229 491.875C525.356 494.112 518.169 496.15 511.237 498.379C507.521 499.574 499.856 496.421 496.002 495.584C492.537 494.831 489.941 495.084 486.49 495.326C488.223 496.078 505.038 499.428 507.646 499.886L507.154 500.63C503.644 500.181 496.542 498.372 492.841 497.597L459.781 490.64L429.84 484.154C425.908 483.286 418.273 481.794 414.709 480.527C417.083 479.298 423.888 483.152 427.129 481.813L427.222 480.693C424.684 480.437 414.197 478.356 412.871 476.902Z" fill="#4B3E69"/>
<path d="M413.941 480.605L414.709 480.527C418.273 481.794 425.908 483.286 429.84 484.154L459.781 490.64L492.841 497.597C496.542 498.372 503.644 500.181 507.154 500.63C508.634 502.651 508.214 513.519 508.238 516.551L508.382 543.016C508.4 548.222 508.784 568.272 508.211 572.362C507.567 572.556 507.147 572.731 506.488 572.804C504.025 571.575 486.436 567.033 482.511 565.97C469.312 562.349 456.075 558.867 442.803 555.526C436.674 553.975 429.057 551.815 423.025 550.723C420.419 549.932 417.042 549.162 414.35 548.466C415.976 545.274 417.885 542.44 419.466 539.014C426.488 523.809 424.186 508.042 419.005 492.672C417.759 488.977 415.545 485.073 414.237 481.44L413.941 480.605ZM471.921 511.784C474.465 521.912 487.635 533.783 493.006 543.078C494.677 545.968 496.009 551.945 497.41 552.95L498.59 553.1C498.597 543.732 484.633 528.929 479.334 521.405C477.983 519.486 473.42 512.312 471.921 511.784Z" fill="#FDE4CF"/>
<path d="M577.165 552.523C573.286 547.937 553.769 541.443 552.301 537.908C552.885 535.873 554.999 533.288 556.34 531.587C567.592 517.319 583.708 509.174 599.008 500.227C612.394 497.109 626.801 490.722 636.013 480.258C639.174 498.496 637.393 516.701 636.5 535.189C629.898 537.603 620.123 539.895 613.116 541.843C601.09 545.26 589.106 548.82 577.165 552.523Z" fill="#B9FBC0"/>
<path d="M771.898 494.191L789.305 489.004C789.091 493.548 788.964 498.61 788.563 503.101C786.572 502.549 773.733 495.803 771.898 494.191Z" fill="#B9FBC0"/>
<path d="M680.129 525.436C689.533 521.083 707.238 515.283 717.493 511.85C735.514 505.617 753.653 499.728 771.899 494.188C773.734 495.799 786.573 502.546 788.564 503.098C788.5 512.228 787.978 521.684 787.371 530.806C786.021 551.1 786.087 571.743 784.565 591.994C775.154 593.163 745.235 610.122 737.442 616.071C732.873 619.564 728.757 623.611 725.189 628.121C711.854 645.217 709.293 668.85 709.926 689.676C710.05 693.757 709.866 701.684 708.956 705.587C708.345 708.211 706.184 709.264 703.614 709.663C693.045 711.7 682.657 714.589 672.552 718.3C672.898 715.507 673.077 711.957 672.993 709.167C672.091 679.079 671.741 649.152 675.069 619.175C675.367 616.493 675.499 614.044 676.103 611.387C680.599 614.99 683.19 616.53 688.412 618.933C684.452 614.885 680.834 612.747 676.008 609.772C676.821 606.599 677.602 592.326 677.833 588.715C679.349 567.656 680.115 546.55 680.129 525.436ZM779.431 518.426C772.494 530.448 767.8 536.007 757.383 545.451C755.517 547.143 748.334 553.89 747.01 555.639L747.104 555.897C755.484 548.853 778.357 529.571 779.431 518.426Z" fill="#8EECF5"/>
<path d="M507.646 499.886C509.022 501.234 508.938 501.698 509.34 503.729L509.458 504.359C509.444 504.388 509.934 503.314 509.933 503.358C510.062 500.079 517.394 496.55 520.048 497.734C517.471 498.984 514.26 499.91 511.5 500.814C511.65 524.578 511.232 549.601 511.65 573.152C510.02 573.967 508.736 573.741 507.012 573.527L506.488 572.804C507.147 572.731 507.567 572.556 508.211 572.362C508.784 568.272 508.4 548.222 508.382 543.016L508.238 516.551C508.214 513.519 508.634 502.651 507.154 500.63L507.646 499.886Z" fill="#4B3E69"/>
<path d="M254.547 506.559C252.405 510.737 251.468 516.603 249.793 521.188C247.7 526.915 244.994 530.97 244.913 537.141C244.134 531.95 244.027 509.666 243.926 503.477C247.545 504.627 250.845 505.716 254.547 506.559Z" fill="#B9FBC0"/>
<path d="M788.434 588.498C788.77 561.346 790.856 532.489 791.784 505.141C802.181 511.002 812.958 516.194 823.474 522.038C828.379 524.763 843.063 533.852 846.465 535.11C839.714 544.654 814.817 569.767 805.446 577.314C800.177 581.62 794.476 585.368 788.434 588.498Z" fill="#8EECF5"/>
<path d="M244.91 537.141C244.991 530.97 247.697 526.915 249.79 521.188C251.465 516.603 252.402 510.737 254.544 506.559C269.919 511.573 285.381 516.316 300.923 520.786C312.702 524.224 328.923 528.716 340.231 532.909C340.999 560.162 343.948 587.462 345.026 614.717C345.148 617.807 345.484 620.95 345.507 624.038C342.824 623.562 335.279 612.865 331.958 609.593C328.412 606.11 324.511 603.011 320.317 600.344C297.272 585.603 272.924 584.962 246.929 590.684C246.396 572.834 245.367 554.913 244.91 537.141Z" fill="#98F5E1"/>
<path d="M362.191 534.6C362.243 525.203 361.746 516.14 365.219 507.289C365.963 510.661 365.584 513.68 365.219 517.064C364.499 523.735 364.365 529.899 364.876 536.604C364.94 537.687 365.034 540.539 365.29 541.422C365.464 546.294 367.922 556.46 366.827 560.161L366.248 560.091C364.58 557.564 362.775 542.316 362.432 538.625C362.421 537.479 362.266 535.787 362.191 534.6Z" fill="#0A2449"/>
<path d="M535.536 551.005L535.184 550.284C538.822 540.154 563.696 516.426 573.966 511.004L574.246 511.686C573.082 513.297 568.911 516.463 567.19 517.733C554.567 527.042 545.492 539.124 535.536 551.005Z" fill="#2C2235"/>
<path d="M498.591 553.101L497.411 552.951C496.01 551.946 494.678 545.969 493.007 543.079C487.636 533.784 474.466 521.913 471.922 511.785C473.421 512.313 477.984 519.487 479.335 521.406C484.634 528.93 498.598 543.733 498.591 553.101Z" fill="#4B3E69"/>
<path d="M378.246 538.82C377.903 535.875 377.21 519.415 378.337 517.633L378.581 542.423C374.271 542.514 369.55 540.934 365.289 541.423C365.033 540.54 364.939 537.688 364.875 536.605C368.3 536.912 374.41 538.237 378.246 538.82Z" fill="#FFFFFA"/>
<path d="M747.106 555.897L747.012 555.64C748.336 553.891 755.519 547.143 757.385 545.451C767.802 536.007 772.496 530.448 779.433 518.426C778.359 529.571 755.486 548.853 747.106 555.897Z" fill="#05111C"/>
<path d="M343.57 531.109C346.498 532.365 359.751 535.854 362.19 534.602C362.265 535.789 362.42 537.481 362.431 538.627C355.951 536.903 350.45 535.574 343.882 534.249L343.57 531.109Z" fill="#FFFFFA"/>
<path d="M648.938 536.691C649.013 535.385 648.977 535.466 649.576 534.309C650.543 535.001 650.476 535.842 650.91 537.301C651.359 554.247 652.102 575.099 648.391 591.583L647.488 592.432L647.851 588.627C651.838 579.007 649.611 547.974 648.938 536.691Z" fill="#0A2531"/>
<path d="M343.883 534.246C350.451 535.571 355.952 536.9 362.432 538.624C362.775 542.315 364.58 557.563 366.248 560.09L366.827 560.16C367.922 556.459 365.464 546.293 365.29 541.421C369.551 540.932 374.272 542.512 378.582 542.421C379.227 564.509 380.156 586.589 381.369 608.653C381.892 620.227 382.139 636.263 383.24 647.241C383.124 652.835 373.003 660.006 368.397 662.34C368.143 655.521 367.642 621.977 365.38 617.919L364.553 617.619C363.252 620.056 365.142 637.935 365.412 641.92C365.878 649.742 366.11 657.576 366.106 665.412C362.27 669.237 357.363 676.598 354.15 681.355C353.824 681.414 353.497 681.473 353.17 681.532L343.883 534.246Z" fill="#E1F6F1"/>
<path d="M846.465 535.111L846.889 534.699C848.95 536.669 852.361 538.617 854.921 540.22C891.628 563.212 936.473 600.306 940.755 646.47C943.243 673.294 924.957 703.691 907.456 722.46C882.248 750.489 852.368 767.101 818.083 781.722C811.296 784.617 804.507 787.059 797.631 789.72C795.931 790.378 790.596 792.193 789.359 792.905L789.135 793.011C747.147 749.068 667.048 789.281 618.068 797.305C589.52 801.685 511.063 812.06 487.898 793.396C490.251 791.856 493.544 790.068 496.037 788.62C500.014 790.208 504.112 791.339 508.216 792.553C514.668 790.77 531.177 784 538.009 781.417L597.647 758.666C606.97 755.124 616.943 750.987 626.334 747.852C628.233 749.934 627.316 752.497 631.21 753.78C637.936 756.053 646.01 753.337 652.101 750.224C662.389 744.965 667.501 737.911 670.947 727.239C679.075 723.912 688.927 720.715 697.336 717.6C713.301 711.516 729.308 705.544 745.357 699.685C750.323 697.87 776.696 688.932 782.692 684.822C784.717 683.434 784.335 678.742 784.487 675.939C786.052 647.133 785.766 617.163 788.434 588.499C794.476 585.369 800.177 581.621 805.446 577.315C814.817 569.768 839.714 544.655 846.465 535.111Z" fill="#E1F6F1"/>
<path d="M640.254 537.652C642.522 536.717 645.91 535.01 648.208 535.348L648.941 536.688C649.614 547.971 651.841 579.004 647.854 588.624C645.001 590.021 641.413 592.041 638.395 592.504C638.574 574.207 639.193 555.918 640.254 537.652Z" fill="#E1F6F1"/>
<path d="M579.848 555.106C597.799 549.849 619.088 544.311 636.478 538.613C636.261 543.764 636.191 554.202 635.616 558.836C631.493 561.258 627.53 574.236 628.71 578.495C627.712 580.453 628.482 585.188 628.856 587.461C629.269 590.997 629.726 599.209 632.634 601.418L633.727 601.408L634.489 600.296C634.45 613.599 633.684 627.16 633.288 640.495C632.813 661.364 632.123 682.228 631.22 703.083C630.846 710.785 630.337 718.479 629.692 726.162C629.441 728.988 628.395 738.472 628.543 740.474L628.082 739.957C625.456 739.076 618.533 741.931 615.652 742.774C601.06 747.04 586.442 751.515 571.111 751.597C539.774 751.763 511.451 729.836 533.64 698.119C546.547 679.671 566.073 673.635 581.811 658.621C595.574 645.609 603.503 629.797 603.49 610.675C603.649 590.981 593.264 569.076 579.848 555.106Z" fill="#B9FBC0"/>
<path d="M392.961 546.614C391.877 550.431 396.219 641.464 397.059 642.84L396.456 643.602C393.64 645.317 390.322 647.615 387.201 648.447C385.016 615.229 383.019 576.804 382.512 543.539C386.325 544.833 389.058 545.665 392.961 546.614Z" fill="#E1F6F1"/>
<path d="M397.06 642.839C396.22 641.463 391.878 550.43 392.962 546.613C396.4 547.498 420.743 553.777 422.776 553.908C434.164 557.484 446.193 560.068 457.794 563.025C474.456 567.272 491.266 572.357 508.01 576.163C508.73 584.533 508.072 600.802 508.058 609.907L507.926 682.946L508.282 750.244C508.351 760.378 508.862 778.713 508.007 788.42C503.821 788.523 468.86 775.389 462.836 773.225C464.214 771.253 468.563 766.78 470.61 764.175C477.354 755.426 482.959 745.855 487.29 735.692C495.961 715.201 499.266 685.533 490.557 664.558C485.292 652.03 475.209 642.146 462.577 637.132C440.586 628.211 417.869 634.151 397.06 642.839Z" fill="#FDE4CF"/>
<path d="M423.023 550.723C429.055 551.815 436.672 553.975 442.801 555.526C456.073 558.867 469.31 562.349 482.509 565.97C486.434 567.033 504.023 571.575 506.486 572.804L507.01 573.527C508.734 573.741 510.018 573.967 511.648 573.152C527.413 567.951 542.584 562.749 558.607 558.196C555.524 562.081 531.707 565.966 526.515 569.456C525.635 570.047 523.91 570.523 522.843 570.814L523.815 571.47C529.617 569.282 534.597 567.443 540.69 566.207C544.759 565.381 553.072 560.77 557.083 561.813C543.793 566.169 524.933 572.358 511.688 576.037C510.582 576.003 509.141 576.113 508.007 576.163C491.263 572.357 474.453 567.272 457.791 563.025C446.19 560.068 434.161 557.484 422.773 553.908C427.487 553.238 432.177 556.645 435.603 555.946C432.868 553.581 427.009 552.515 423.329 551.652L423.023 550.723Z" fill="#4B3E69"/>
<path d="M557.084 561.812C561.057 561.205 574.611 556.509 579.848 555.105C593.264 569.075 603.649 590.98 603.49 610.674C603.503 629.796 595.574 645.608 581.811 658.62C566.073 673.634 546.547 679.67 533.64 698.118C511.451 729.835 539.775 751.762 571.112 751.596C586.443 751.514 601.06 747.039 615.652 742.773C618.533 741.93 625.456 739.075 628.082 739.956L628.543 740.473C628.111 742.013 628.146 743.071 626.57 743.779C615.976 748.537 603.915 752.906 593.111 756.956L534.932 778.978C531.627 780.192 513.269 787.934 511.711 787.465C511.674 787.454 511.651 787.419 511.621 787.396C511.935 779.742 511.675 770.119 511.663 762.31L511.594 715.485L511.689 576.036C524.934 572.357 543.794 566.168 557.084 561.812Z" fill="#FDE4CF"/>
<path d="M628.711 578.495C627.531 574.236 631.495 561.258 635.618 558.836L634.878 588.09L634.217 588.5C633.037 587.834 631.062 583.066 629.823 581.373L628.711 578.495Z" fill="#E1F6F1"/>
<path d="M508.01 576.164C509.144 576.114 510.585 576.004 511.691 576.038L511.596 715.487L511.665 762.312C511.677 770.121 511.937 779.744 511.623 787.398C509.662 787.529 509.762 787.516 508.007 788.421C508.862 778.714 508.351 760.379 508.282 750.245L507.926 682.947L508.058 609.908C508.072 600.803 508.73 584.534 508.01 576.164Z" fill="#4B3E69"/>
<path d="M628.856 587.462C628.482 585.189 627.712 580.454 628.71 578.496L629.822 581.374C629.502 584.538 629.519 585.4 629.999 588.554L628.856 587.462Z" fill="#2BA7A4"/>
<path d="M629.998 588.551C629.518 585.397 629.501 584.535 629.821 581.371C631.06 583.064 633.035 587.832 634.215 588.498L634.876 588.088L634.488 600.294L633.726 601.406L632.634 601.416C632.694 600.494 630.349 591.776 629.998 588.551Z" fill="#8EECF5"/>
<path d="M648.91 597.128C665.071 599.507 666.41 594.857 674.044 583.309C672.884 607.793 669.413 632.032 668.42 656.494C667.894 669.474 668.56 682.607 668.624 695.594C668.932 711.318 671.032 729.861 658.14 741.642C651.938 747.3 644.815 749.682 636.695 751.063C638.911 747.593 643.422 742.939 645.255 738.85C658.761 708.723 648.425 668.889 647.298 636.952C646.988 628.175 645.847 621.57 647.183 612.902L647.619 612.916L648.445 612.742C649.62 610.952 648.989 599.945 648.91 597.128Z" fill="#8EECF5"/>
<path d="M246.93 590.686C272.925 584.964 297.273 585.605 320.318 600.346C324.512 603.013 328.413 606.112 331.959 609.595C335.28 612.867 342.825 623.564 345.508 624.04C347.293 647.269 348.515 670.801 349.796 694.07C350.482 706.547 350.708 719.077 352.202 731.5C318.3 719.227 283.99 704.516 250.443 692.952C249.221 684.282 249.319 666.417 249.044 656.942L246.93 590.686ZM263.909 655.827C263.446 659.853 268.934 667.124 271.316 670.475C278.838 681.056 295.075 690.324 308.377 688.811L308.426 687.31C307.35 686.453 297.285 684.845 295.056 684.293C282.747 681.247 275.064 672.158 268.678 661.784C267.527 659.914 265.911 656.681 263.909 655.827Z" fill="#8EECF5"/>
<path d="M628.855 587.461L629.998 588.553C630.349 591.778 632.694 600.496 632.634 601.418C629.726 599.209 629.268 590.997 628.855 587.461Z" fill="#0A2531"/>
<path d="M638.394 592.505C641.412 592.042 645 590.022 647.853 588.625L647.49 592.43C647.415 599.259 647.459 606.088 647.62 612.916L647.184 612.902C646.832 611.623 646.992 612.052 646.238 610.92C643.274 609.089 641.466 609.008 638.016 608.463C638.233 603.146 638.359 597.826 638.394 592.505Z" fill="#8EECF5"/>
<path d="M647.489 592.431L648.392 591.582C648.544 593.341 648.666 595.408 648.91 597.129C648.989 599.946 649.62 610.953 648.445 612.743L647.619 612.917C647.458 606.089 647.414 599.26 647.489 592.431Z" fill="#05111C"/>
<path d="M703.613 709.665C706.183 709.266 708.344 708.213 708.955 705.589C709.865 701.686 710.049 693.759 709.925 689.678C709.292 668.852 711.853 645.219 725.188 628.123C728.756 623.613 732.872 619.565 737.441 616.072C745.234 610.123 775.153 593.165 784.564 591.996C784.456 595.867 784.387 601.9 783.59 605.502C781.152 616.515 772.466 629.792 764.464 637.429C759.602 641.991 754.165 645.9 748.292 649.055C745.728 650.459 733.716 655.611 732.837 656.574C741.756 655.708 755.595 647.068 762.555 641.509C772.406 633.64 778.286 622.897 783.523 611.719C783.513 621.237 782.93 631.522 782.568 641.112C782.08 654.028 782.277 669.87 780.923 682.578C760.466 691.641 737.528 697.953 716.757 706.636C712.969 708.219 708.755 709.787 704.887 711.14L703.613 709.665Z" fill="#A3C4F3"/>
<path d="M638.013 608.465C641.463 609.01 643.271 609.091 646.235 610.922C646.989 612.054 646.829 611.625 647.181 612.904C645.845 621.572 646.986 628.177 647.296 636.954C648.423 668.891 658.759 708.725 645.253 738.852C643.42 742.941 638.909 747.595 636.693 751.065C634.722 751.035 632.921 750.962 631.393 749.729C630.642 748.005 631.895 741.719 632.14 739.511C636.931 696.3 636.33 651.9 638.013 608.465Z" fill="#E1F6F1"/>
<path d="M676.103 611.388L676.008 609.773C680.834 612.748 684.452 614.886 688.412 618.934C683.19 616.531 680.599 614.991 676.103 611.388Z" fill="#05111C"/>
<path d="M366.107 665.414C366.111 657.578 365.879 649.744 365.413 641.922C365.143 637.937 363.253 620.058 364.554 617.621L365.381 617.921C367.643 621.979 368.144 655.523 368.398 662.342C368.575 669.871 369.238 682.085 368.363 689.226C366.021 684.355 366.253 671.5 366.107 665.414Z" fill="#0A2449"/>
<path d="M397.061 642.839C417.87 634.151 440.587 628.211 462.578 637.132C475.21 642.146 485.293 652.03 490.558 664.558C499.267 685.533 495.962 715.201 487.291 735.692C482.96 745.855 477.355 755.426 470.611 764.175C468.564 766.78 464.215 771.253 462.837 773.225C451.386 769.239 439.704 764.753 428.282 760.577C418.513 757.005 405.643 752.872 396.434 748.453C398.297 747.893 403.729 747.159 406.114 746.697C406.002 735.479 402.36 711.425 400.951 699.317C398.71 680.068 398.197 662.426 396.458 643.601L397.061 642.839Z" fill="#B9FBC0"/>
<path d="M387.199 648.447C390.32 647.615 393.638 645.317 396.454 643.602C398.193 662.427 398.706 680.069 400.947 699.318C402.356 711.426 405.998 735.48 406.11 746.698C403.725 747.16 398.293 747.894 396.43 748.454C392.808 746.779 391.787 740.759 391.494 736.981C389.224 707.738 389.365 677.68 387.199 648.447Z" fill="#7CF0C3"/>
<path d="M383.242 647.242C384.335 665.184 385.218 683.138 385.89 701.101C386.963 724.539 385.42 734.063 392.699 756.732C351.903 752.887 356.004 736.863 354.161 701.814C353.863 696.146 353.88 687.022 353.172 681.533C353.499 681.474 353.826 681.415 354.152 681.356C357.365 676.599 362.272 669.238 366.108 665.413C366.254 671.499 366.022 684.354 368.364 689.225C369.239 682.084 368.576 669.87 368.399 662.341C373.005 660.007 383.126 652.836 383.242 647.242Z" fill="#8EECF5"/>
<path d="M308.378 688.808C295.076 690.321 278.839 681.053 271.317 670.472C268.935 667.121 263.447 659.85 263.91 655.824C265.912 656.678 267.528 659.911 268.679 661.781C275.065 672.155 282.748 681.244 295.057 684.29C297.286 684.842 307.351 686.45 308.427 687.307L308.378 688.808Z" fill="#1C1E58"/>
<path d="M672.552 718.3C682.657 714.589 693.045 711.701 703.614 709.664L704.888 711.139C695.181 714.716 681.118 719.37 672.012 723.245C672.191 721.766 672.497 719.733 672.552 718.3Z" fill="#F9E3E8"/>
<path d="M618.069 797.305C667.049 789.281 747.148 749.068 789.136 793.011L789.36 792.905C806.479 811.222 806.803 832.064 788.059 848.761C772.682 862.458 757.353 870.268 738.488 877.971C691.286 897.118 640.485 905.772 589.606 903.332C539.331 901.071 490.083 888.338 445.012 865.948C435.905 861.418 426.329 856.516 417.404 851.64C410.388 847.807 404.699 843.839 397.309 840.253C407.159 834.551 421.189 828.216 431.671 822.852L487.899 793.396C511.064 812.06 589.521 801.685 618.069 797.305Z" fill="#FBF8CC"/>
</svg>
