<svg width="1024" height="1024" viewBox="0 0 1024 1024" fill="none" xmlns="http://www.w3.org/2000/svg">
<path d="M397.66 126.531C394.89 126.655 391.059 126.395 389.879 123.542C392.851 123.303 395.974 123.964 397.66 126.531Z" fill="#F6E57E"/>
<path d="M478.714 132.218C475.376 130.79 475.009 128.974 475.723 125.633C478.133 126.59 478.722 129.901 478.714 132.218Z" fill="#F6E57E"/>
<path d="M590.59 138.588C590.836 136.108 595.999 130.327 597.896 128.445C597.876 131.564 592.957 136.717 590.59 138.588Z" fill="#FBF8CC"/>
<path d="M129.261 343.156C125.402 344.518 125.015 345.806 122.905 346.738C120.959 340.752 117.715 333.939 115.646 327.837C112.283 317.918 109.009 306.598 106.967 296.375C99.8395 260.694 104.128 221.158 124.972 190.639C144.775 162.17 180.127 137.169 214.847 131.721C284.693 120.761 351.164 160.404 404.9 200.56C419.353 211.361 432.117 224.706 446.503 234.517C449.359 234.505 452.527 234.297 455.432 234.201C425.459 239.909 407.116 235.609 377.845 229.659C357.156 225.638 335.774 220.299 314.62 219.333C242.651 216.046 167.76 254.67 137.124 321.456C133.943 328.389 131.585 335.919 129.261 343.156Z" fill="#E3F8E8"/>
<path d="M530.398 152.474C528.662 153.072 529.478 153.072 527.879 152.77C527.935 151.152 528.504 150.834 529.489 149.23C530.811 149.62 531.206 149.859 532.422 150.467L532.389 151.191L530.398 152.474Z" fill="#F6E57E"/>
<path d="M896.97 540.701C895.814 528.986 893.826 517.916 892.575 506.093C890.775 489.09 891.252 473.018 892.228 455.746C895.437 398.981 931.394 299.963 880.552 256.22C862.961 241.086 841.68 242.246 820.428 241.637C810.315 241.346 798.047 239.056 788.464 236.295C765.61 229.713 744.878 217.187 724.413 205.346C718.23 201.768 708.823 197.686 703.512 194.344C742.131 168.525 780.045 148.573 828.387 149.813C876.397 151.045 915.389 176.977 940.294 217.262C942.1 220.183 943.641 222.561 945.2 225.653C995.78 325.944 950.835 441.207 915.258 538.607C913.801 542.595 911.988 547.896 911.455 552.122C907.623 548.446 901.576 543.238 896.97 540.701Z" fill="#FDE4CF"/>
<path d="M648.421 154.171C646.678 154.152 645.373 154.281 643.741 153.675C642.714 152.043 643.04 152.541 643.199 150.195C646.144 150.829 647.298 151.311 648.421 154.171Z" fill="#F6E57E"/>
<path d="M421.181 172.107C418.332 170.891 417.892 168.538 417.254 165.77C419.624 167.073 420.587 169.598 421.181 172.107Z" fill="#F6E57E"/>
<path d="M477.099 179.247L476.213 178.36C475.686 176.51 476.165 175.219 476.557 173.312C478.02 175.183 477.535 177.115 477.099 179.247Z" fill="#FBF8CC"/>
<path d="M686.552 181.844C684.531 182.036 681.806 182.012 679.95 181.19L679.607 180.121C682.194 180.173 685.124 179.671 686.552 181.844Z" fill="#F6E57E"/>
<path d="M429.23 189.214C426.921 187.821 426.198 184.924 425.99 182.41C428.276 183.817 428.75 186.764 429.23 189.214Z" fill="#FBF8CC"/>
<path d="M560.052 190.804L559.819 190.675C559.13 188.688 560.725 185.188 561.57 183.234C564.09 185.347 562.189 189.033 560.052 190.804Z" fill="#F6E57E"/>
<path d="M634.376 186.229C631.139 186.652 622.288 187.758 619.34 187.637C621.544 186.513 632.356 185.855 635.183 185.378L635.879 185.258C640.831 184.975 650.433 184.923 655.272 185.874C654.584 186.29 636.62 186.22 634.376 186.229Z" fill="#FFEDE1"/>
<path d="M508.507 226.201C510.604 223.737 512.751 221.14 514.908 218.743C511.606 215.471 509.14 212.605 509.2 207.698C509.329 197.022 523.747 190.457 530.917 199.299C533.625 202.638 534.161 205.702 534.723 209.778C532.003 216.9 530.82 218.247 523.359 220.812C534.981 234.049 547.218 246.716 558.906 259.771C570.281 272.476 579.781 288.248 591.854 300.613C593.633 302.595 595.733 304.994 597.296 307.115C601.093 306.993 605.224 306.943 608.976 306.593C631.225 306.038 654.382 304.615 676.688 303.489L766.068 299.107L808.767 297.194C827.105 296.435 843.728 293.625 858.16 307.775C871.828 321.175 870.582 334.323 871.299 352.122L872.887 384.42L879.246 500.002C879.938 512.631 880.224 525.842 881.097 538.385L881.056 539.125C880.956 542.949 881.423 544.068 879.058 546.63L878.634 538.526C877.722 503.954 874.67 466.732 872.813 431.837L869.246 363.308C868.748 353.665 868.304 344.04 867.899 334.343C867.166 316.813 852.021 300.533 834.397 299.21C822.656 298.329 809.379 299.334 797.418 299.853L734.362 302.758L642 307.324C627.799 307.981 608.619 308.065 594.92 309.429C577.633 309.265 549.191 310.599 531.588 311.875L350.582 316.895L268.424 318.655C247.397 319.113 198.482 318.792 180.423 325.23C175.981 326.558 170.959 328.462 167.014 330.924C145.26 343.673 147.4 364.53 149.944 386.761C153.118 421.09 156.613 458.147 158.193 492.567C160.057 533.159 158.997 576.808 157.641 617.463C157.191 630.959 156.711 649.408 155.569 662.49C154.936 695.516 144.43 735.237 169.839 761.843C180.955 773.483 195.565 777.34 211.257 777.807C212.349 770.668 213.705 763.118 214.66 756.036C202.391 756.154 193.4 755.416 183.938 746.401C175.991 738.829 173.325 728.903 173.498 718.124C173.786 700.128 174.338 682.046 174.533 664.005C175.429 627.83 175.12 590.868 175.053 554.687L174.459 413.121C174.842 379.488 172.656 364.501 203.447 346.479C204.23 342.114 203.687 337.967 204.22 333.354C204.874 330.797 205.525 328.589 206.306 326.079C207.778 324.093 206.86 324.741 209.068 323.937L209.754 324.615C209.746 326.439 207.598 328.601 207.155 330.074C205.916 334.198 205.797 341.563 205.643 345.891C220.262 341.524 244.587 341.704 260.198 341.419L298.126 340.506L424.048 338.342L505.276 336.654C516.288 336.424 528.766 335.874 539.682 335.955C540.794 337.051 543.376 336.606 545.034 336.482L545.035 336.454C544.777 336.483 543.22 337.552 542.753 337.819L330.059 342.024L266.81 343.224C263.868 343.308 250.251 343.486 248.67 343.924C235.821 343.936 222.106 343.934 209.41 346.548C207.129 347.018 205.652 349.329 204.684 351.28L204.076 351.099L203.584 349.272C200.343 349.201 191.933 355.929 189.498 358.299C185.669 362.024 182.511 365.962 180.698 371.038C175.148 385.066 176.735 413.197 176.489 428.753C176.393 434.836 176.406 449.493 176.998 455.134C175.855 463.857 176.558 482.897 176.556 492.514L177.129 574.213C177.538 600.387 177.389 626.513 177.032 652.687C176.981 656.48 176.916 660.195 176.727 663.986L176.178 696.11C175.843 712.256 172.549 731.757 184.867 743.862C192.776 751.635 200.389 754.228 211.545 753.794C223.299 753.817 234.262 753.091 245.895 752.438L296.05 749.661L469.21 741.198C486.823 740.407 504.456 738.921 522.085 738.276C525.069 738.166 528.333 737.889 531.3 737.932C533.976 738.089 537.217 737.724 539.35 738.38L540.279 739.922C491.11 742.818 442.118 744.509 392.953 746.794C334.236 749.522 275.44 753.942 216.685 755.984C216.138 761.308 214.539 772.325 213.436 777.653C225.135 777.309 237.747 775.831 249.497 774.927C273.476 773.082 297.617 770.527 321.596 768.799L322.917 769.393C321.374 769.721 320.819 769.645 319.28 769.594L319.4 770.372L320.767 770.74L320.888 771.351L259.767 776.32C243.165 777.74 227.656 779.287 210.991 779.997L210.337 779.979C194.105 779.471 178.515 774.647 167.335 762.382C142.658 735.312 152.244 695.304 153.637 661.887C159.914 570.492 157.887 478.916 148.083 387.849C146.286 371.156 143.719 354.734 153.556 340.16C158.773 333.91 161.701 331.66 168.776 327.681C187.733 318.459 205 318.499 225.384 317.774L273.584 316.433C329.194 315.033 386.244 314.65 441.663 312.498C465.14 283.581 485.988 255.795 508.507 226.201ZM519.151 197.804C513.704 199.277 510.455 204.858 511.863 210.322C513.271 215.786 518.812 219.102 524.292 217.759C527.897 216.877 530.748 214.124 531.757 210.553C532.766 206.983 531.777 203.145 529.168 200.506C526.559 197.868 522.733 196.836 519.151 197.804ZM517.51 219.446C510.525 225.524 502.163 238.795 496.044 246.437C478.925 267.818 462.756 292.239 444.5 312.547C469.077 312.268 495.919 310.977 520.625 310.023C545.343 309.257 570.032 307.877 594.727 307.186C574.416 285.727 559.093 260.805 537.792 240.221C532.208 234.826 523.821 223.056 517.51 219.446Z" fill="#030202"/>
<path d="M608.977 306.592C611.628 296.567 618.504 290.888 624.234 282.408C628.175 276.575 632.352 270.852 636.416 265.106C653.848 242.18 672.972 220.507 694.706 201.548C696.43 200.044 698.12 198.586 699.761 196.984C726.716 209.282 750.463 226.28 778.125 236.589C800.119 244.613 822.991 245.42 845.964 246.157C868.478 246.879 891.455 265.279 897.952 287.246C915.068 345.123 890.372 407.334 888.321 466.199C887.316 495.048 889.997 512.371 893.68 540.085C890.522 539.948 884.588 538.85 881.098 538.384C880.225 525.841 879.939 512.63 879.247 500.001L872.888 384.419L871.3 352.121C870.583 334.322 871.829 321.174 858.161 307.774C843.729 293.624 827.106 296.434 808.768 297.193L766.069 299.106L676.689 303.488C654.383 304.614 631.226 306.037 608.977 306.592ZM712.624 238.136L710.568 238.833L710.66 239.322C713.372 239.856 715.39 239.933 718.12 240.093L719.621 239.808L719.651 239.222C717.529 238.325 714.934 238.23 712.624 238.136ZM678.949 263.402C676.969 264.927 672.573 267.818 672.15 270.047L672.773 270.165C674.809 268.754 678.492 266.63 679.816 264.903L679.836 263.833L678.949 263.402Z" fill="#FDE4CF"/>
<path d="M524.292 217.757C518.812 219.1 513.271 215.784 511.863 210.32C510.455 204.856 513.704 199.275 519.151 197.802C522.733 196.834 526.559 197.866 529.168 200.504C531.777 203.143 532.766 206.981 531.757 210.551C530.748 214.122 527.897 216.875 524.292 217.757Z" fill="#FFCFD2"/>
<path d="M536.655 210.258L535.727 210.169C536.23 209.751 554.589 203.656 557.723 202.449L558.455 202.499L558.362 202.844C552.766 205.444 542.623 208.647 536.655 210.258Z" fill="#FFEDE1"/>
<path d="M444.5 312.546C462.756 292.238 478.925 267.817 496.044 246.436C502.163 238.794 510.525 225.523 517.51 219.445C523.821 223.055 532.208 234.825 537.792 240.22C559.093 260.804 574.416 285.726 594.727 307.185C570.032 307.876 545.343 309.256 520.625 310.022C495.919 310.976 469.077 312.267 444.5 312.546ZM510.556 270.477C509.033 271.316 507.643 271.772 507.005 273.284C508.047 275.355 512.128 275.053 514.306 275.159C516.139 273.571 516.329 273.89 517.067 271.918C515.672 270.127 512.686 270.173 510.556 270.477ZM503.415 278.039L502.774 279.253C503.997 280.395 506.692 279.901 508.396 279.798L509.124 279.192C507.882 277.789 505.223 277.977 503.415 278.039ZM561.297 287.698C559.646 287.851 557.501 287.824 556.266 288.755C557.494 289.551 559.51 289.406 561.076 289.457C563.429 289.079 563.629 289.466 565.002 288.13C563.994 287.047 562.679 287.39 561.297 287.698Z" fill="url(#paint0_linear_2293_69135)"/>
<path d="M472.61 226.603C471.356 223.575 472.198 223.01 474.339 220.887C474.499 222.997 473.563 224.799 472.61 226.603Z" fill="#FBF8CC"/>
<path d="M450.396 238.793C452.13 240.393 453.143 241.191 455.062 242.57L455.415 242.252C454.402 241.358 453.583 240.596 452.618 239.651L452.984 239.139C462.537 238.175 472.258 236.354 481.518 233.787C488.846 231.756 501.22 227.044 508.508 226.203C485.989 255.797 465.141 283.583 441.664 312.5C386.245 314.652 329.195 315.035 273.585 316.435L225.385 317.776C205.001 318.501 187.734 318.461 168.777 327.683C163.899 326.004 140.791 339.289 134.184 340.555C137.61 323.755 151.718 300.256 163.116 287.092C199.671 244.875 252.801 222.949 308.232 222.208C314.852 222.119 325.366 223.346 331.956 224.246C363.085 228.501 393.525 238.086 425.046 239.978C433.825 240.504 441.685 239.605 450.396 238.793Z" fill="#E3F8E8"/>
<path d="M489.492 226.909L489.215 226.608C490.114 225.57 494.392 224.598 496.086 224.082L496.356 224.437C495.279 225.452 491.205 226.398 489.492 226.909Z" fill="#FFEDE1"/>
<path d="M473.179 231.281L471.627 231.399C471.939 230.808 480.522 228.412 482.087 227.91C482.921 227.877 483.097 227.949 483.927 228.071C482.722 228.988 475.316 230.691 473.179 231.281Z" fill="#FFEDE1"/>
<path d="M718.118 240.094C715.388 239.934 713.37 239.857 710.658 239.323L710.566 238.834L712.622 238.137C714.932 238.231 717.527 238.326 719.649 239.223L719.619 239.809L718.118 240.094Z" fill="#D7C591"/>
<path d="M609.832 246.422L609.97 245.447C612.325 243.599 615.704 241.96 618.42 240.512C618.654 241.508 618.574 241.031 618.105 242.251C615.422 244.586 613.234 245.394 609.832 246.422Z" fill="#F6E57E"/>
<path d="M564.729 254.742C564.768 254.361 564.806 253.979 564.846 253.597C567.364 251.755 569.1 250.184 571.101 247.867C571.706 249.138 571.625 249.068 571.4 250.48C569.856 253.043 567.464 253.701 564.729 254.742Z" fill="#F6E57E"/>
<path d="M672.771 270.165L672.148 270.047C672.571 267.818 676.967 264.927 678.947 263.402L679.834 263.833L679.814 264.903C678.49 266.63 674.807 268.754 672.771 270.165Z" fill="#D7C591"/>
<path d="M514.307 275.16C512.129 275.054 508.048 275.356 507.006 273.285C507.644 271.773 509.034 271.317 510.557 270.478C512.687 270.174 515.673 270.128 517.068 271.919C516.33 273.891 516.14 273.572 514.307 275.16Z" fill="#F6E57E"/>
<path d="M508.395 279.799C506.691 279.902 503.996 280.396 502.773 279.254L503.414 278.04C505.222 277.978 507.881 277.79 509.123 279.193L508.395 279.799Z" fill="#FBF8CC"/>
<path d="M561.076 289.46C559.51 289.409 557.494 289.554 556.266 288.758C557.501 287.827 559.646 287.854 561.297 287.701C562.679 287.393 563.994 287.05 565.002 288.133C563.629 289.469 563.429 289.082 561.076 289.46Z" fill="#F6E57E"/>
<path d="M594.92 309.431C608.619 308.067 627.799 307.983 642 307.326L734.362 302.76L797.418 299.855C809.379 299.336 822.656 298.331 834.397 299.212C852.021 300.535 867.166 316.815 867.899 334.345C868.304 344.042 868.748 353.667 869.246 363.31L872.813 431.839C874.67 466.734 877.722 503.956 878.634 538.528C872.181 538.381 859.623 539.588 853.573 537.347C852.984 537.129 852.8 535.598 852.586 534.766L853.094 363.712C853.099 357.331 853.467 350.06 851.884 343.921C849.875 336.127 840.8 329.939 833.01 329.271C824.724 328.56 816.567 329.019 808.295 329.217L767.187 330.147L586.984 334.565C589.315 328.409 598.048 316.43 600.028 310.263C599.247 309.586 596.241 309.554 594.92 309.431Z" fill="#FDE4CF"/>
<path d="M531.588 311.874C549.191 310.598 577.633 309.264 594.92 309.428C596.241 309.551 599.247 309.583 600.028 310.26C598.048 316.427 589.315 328.406 586.984 334.562C580.934 334.666 568.923 335.414 563.663 335.082L557.741 334.654C557.305 334.056 557.43 334.342 557.242 333.63C554.972 325.028 534.472 321.741 531.588 311.874Z" fill="#FFEDE1"/>
<path d="M180.424 325.23C198.483 318.792 247.398 319.113 268.425 318.655L350.583 316.895L531.589 311.875C534.473 321.742 554.973 325.029 557.243 333.631C557.431 334.343 557.306 334.057 557.742 334.655L563.664 335.083C556.845 335.77 545.026 335.015 539.683 335.955C528.767 335.874 516.289 336.424 505.277 336.654L424.049 338.342L298.127 340.506L260.199 341.419C244.588 341.704 220.263 341.524 205.644 345.891C205.798 341.563 205.917 334.198 207.156 330.074C207.599 328.601 209.747 326.439 209.755 324.615L209.069 323.937C206.861 324.741 207.779 324.093 206.307 326.079C198.142 325.585 190.635 326.265 182.544 326.763C181.277 326.841 181.098 326.126 180.424 325.23Z" fill="#E3F8E8"/>
<path d="M167.014 330.924C170.959 328.462 175.981 326.558 180.423 325.23C181.097 326.126 181.276 326.841 182.543 326.763C190.634 326.265 198.141 325.585 206.306 326.079C205.525 328.589 204.874 330.797 204.22 333.354C200.494 329.641 173.529 333.731 167.014 330.924Z" fill="#98F5E1"/>
<path d="M134.183 340.554C140.79 339.288 163.898 326.003 168.776 327.682C161.701 331.661 158.773 333.911 153.556 340.161C148.905 338.05 137.29 342.762 133.174 345.37C133.344 343.964 133.856 341.992 134.183 340.554Z" fill="#98F5E1"/>
<path d="M563.663 335.084C568.923 335.416 580.934 334.668 586.984 334.564L767.187 330.146L808.295 329.216C816.567 329.018 824.724 328.559 833.01 329.27C840.8 329.938 849.875 336.126 851.884 343.92C853.467 350.059 853.099 357.33 853.094 363.711L852.586 534.765L852.606 544.157L852.504 544.458L852.63 544.316L852.251 545.083C851.815 544.019 851.951 544.261 851.29 543.278L850.859 544.292C849.975 538.604 850.759 528.491 850.095 521.486C850.011 517.427 849.973 513.274 850.105 509.215C850.806 487.564 849.908 465.796 850.244 444.173C851.584 422.821 849.786 399.998 850.486 378.498C850.814 368.419 850.713 357.357 850.18 347.314C849.8 340.166 840.369 332.084 833.407 331.611C823.587 330.877 813.346 331.449 803.5 331.708L756.474 332.753L573.446 337.071C563.216 337.444 552.876 337.415 542.753 337.82C543.22 337.553 544.777 336.484 545.035 336.455L545.034 336.483C543.376 336.607 540.794 337.052 539.682 335.956C545.025 335.016 556.844 335.771 563.663 335.084Z" fill="url(#paint1_linear_2293_69135)"/>
<path d="M149.944 386.763C147.4 364.532 145.26 343.675 167.014 330.926C173.529 333.733 200.494 329.643 204.22 333.356C203.687 337.969 204.23 342.116 203.447 346.481C172.656 364.503 174.842 379.49 174.459 413.123C169.569 410.117 154.77 389.726 149.944 386.763Z" fill="#E3F8E8"/>
<path d="M573.445 337.071L756.473 332.753L803.499 331.708C813.345 331.449 823.586 330.876 833.406 331.61C840.368 332.083 849.799 340.165 850.179 347.313C850.712 357.356 850.813 368.419 850.485 378.498C849.785 399.998 851.583 422.821 850.243 444.173C849.467 441.406 848.457 440.641 848.021 437.169C846.556 425.524 844.771 414.951 841.033 403.757C811.283 398.436 777.478 400.491 747.371 399.943C739.537 399.8 724.642 400.66 717.294 399.77C679.567 349.033 629.66 354.144 575.012 339.441C573.828 339.122 573.68 338.047 573.445 337.071Z" fill="#FDE4CF"/>
<path d="M542.752 337.819C552.875 337.414 563.215 337.443 573.445 337.07C573.68 338.046 573.828 339.121 575.012 339.44C629.66 354.143 679.567 349.032 717.294 399.769C707.848 400.229 697.462 399.98 687.917 400.124L629.762 401.265C520.837 403.564 411.902 403.292 303.016 405.715C282.429 406.174 257.61 406.056 237.389 409.418C221.034 411.585 199.419 420.11 188.317 432.892L188.059 433.361C185.995 437.043 183.425 440.185 181.338 443.849C180.043 446.123 178.438 453.471 176.997 455.134C176.405 449.493 176.392 434.836 176.488 428.753C176.734 413.197 175.147 385.066 180.697 371.038C182.05 370.519 187.694 366.148 189.195 365.072C201.881 355.978 216.553 351.831 231.675 348.941C236.173 348.081 241.534 347.544 245.851 346.006C244.292 345.621 240.997 346.84 238.326 346.89L238.315 346.086C240.657 343.728 244.682 345.557 248.669 343.924C250.25 343.486 263.867 343.308 266.809 343.224L330.058 342.024L542.752 337.819Z" fill="#8EECF5"/>
<path d="M133.173 345.367C137.289 342.759 148.904 338.047 153.555 340.158C143.718 354.732 146.285 371.154 148.082 387.847C157.886 478.914 159.913 570.49 153.636 661.885C143.89 659.857 135.215 652.423 127.722 649.07C128.74 633.427 131.109 617.61 132.75 601.975C135.461 576.131 137.977 548.228 137.215 522.259C136.248 497.259 133.36 471.871 130.217 447.117C126.47 417.612 122.292 388.423 128.825 358.97C129.688 355.079 133.113 348.981 133.173 345.367Z" fill="#B9ECEF"/>
<path d="M122.907 346.738C125.017 345.806 125.404 344.518 129.263 343.156C119.429 379.865 121.445 409.02 126.702 446.134C129.506 465.927 131.183 486.715 132.798 506.652C135.684 549.927 130.35 592.724 125.438 635.632C125.021 639.273 124.524 642.992 124.249 646.64C112.362 636.161 101.313 625.802 91.9473 612.793C44.4992 546.884 29.6496 441.567 87.3265 376.973C98.0352 364.98 109.657 355.457 122.907 346.738Z" fill="#B9ECEF"/>
<path d="M180.697 371.04C182.51 365.964 185.668 362.026 189.497 358.301C191.932 355.931 200.342 349.203 203.583 349.274L204.075 351.101L204.683 351.282C205.651 349.331 207.128 347.02 209.409 346.55C222.105 343.936 235.82 343.938 248.669 343.926C244.682 345.559 240.657 343.73 238.315 346.088L238.326 346.892C240.997 346.842 244.292 345.623 245.851 346.008C241.534 347.546 236.173 348.083 231.675 348.943C216.553 351.833 201.881 355.98 189.195 365.074C187.694 366.15 182.05 370.521 180.697 371.04Z" fill="#B9ECEF"/>
<path d="M149.943 386.762C154.769 389.725 169.568 410.116 174.458 413.122L175.052 554.688C175.119 590.869 175.428 627.831 174.532 664.006C167.631 664.115 164.108 661.712 155.568 662.491C156.71 649.409 157.19 630.96 157.64 617.464C158.996 576.809 160.056 533.16 158.192 492.568C156.612 458.148 153.117 421.091 149.943 386.762Z" fill="#8EECF5"/>
<path d="M237.391 409.419C257.612 406.057 282.431 406.175 303.018 405.716C411.904 403.293 520.839 403.565 629.764 401.266L687.919 400.125C697.464 399.981 707.85 400.23 717.296 399.77C724.644 400.66 739.539 399.801 747.373 399.944C777.48 400.492 811.285 398.437 841.035 403.758C844.773 414.952 846.558 425.524 848.023 437.169C848.459 440.641 849.469 441.406 850.245 444.173C849.909 465.796 850.807 487.564 850.106 509.215C849.974 513.274 850.012 517.427 850.096 521.486L850.062 537.311C846.656 537.602 844.276 537.785 841.024 536.74L841.117 535.741C841.869 527.373 841.722 517.409 841.656 508.971C841.484 487.103 841.985 471.862 827.425 454.292C826.456 449.305 826.325 448.422 823.119 444.361C810.15 433.973 797.932 436.401 785.401 445.172C784.338 444.506 767.07 441.719 764.095 441.042C727.257 432.659 688.11 428.576 650.502 426.359C624.16 424.806 597.755 425.29 571.551 425.086C521.139 424.693 470.877 425.252 420.503 426.642C388.385 427.611 355.987 429.96 323.905 431.633C305.81 432.577 286.882 432.396 268.699 433.208C261.823 433.515 253.695 432.393 247.066 432.593C243.006 428.848 241.612 428.148 236.512 426.371C237.786 422.476 237.511 413.421 237.391 409.419Z" fill="#90DBF4"/>
<path d="M188.318 432.892C199.42 420.11 221.035 411.585 237.39 409.418C237.51 413.42 237.785 422.475 236.511 426.37C220.468 422.437 209.403 428.142 198.864 440.217C196.314 438.236 190.899 433.37 188.318 432.892Z" fill="#FCF8F1"/>
<path d="M198.863 440.217C209.402 428.142 220.467 422.437 236.51 426.37C241.61 428.147 243.004 428.847 247.064 432.592C249.887 436.142 251.858 439.377 252.364 444.06C252.926 449.263 253.426 457.944 248.799 461.511C241.867 462.975 247.167 444.952 229.771 443.891C220.592 441.666 214.757 448.489 213.019 456.78C211.107 465.904 213.303 472.212 219.106 479.113C230.349 492.306 243.667 500.117 252.504 514.12C251.961 495.113 256.102 474.9 270.432 461.064C328.845 404.665 358.311 515.336 318.68 548.139C306.493 558.256 301.191 561.251 285.446 560.484C268.291 556.792 262.519 544.813 256.7 529.847C256.629 542.951 254.949 550.489 248.573 562.414C240.661 570.187 235.26 573.09 223.331 574.765C201.063 577.891 175.675 555.274 191.658 533.301C193.203 531.176 198.867 526.882 202.012 527.205C214.995 528.539 210.31 538.302 207.18 546.489C206.03 549.538 208.085 553.596 210.492 555.292C224.551 565.201 237.963 554.819 237.069 538.813C234.353 508.504 195.539 500.123 190.745 470.223C188.801 458.095 191.964 449.904 198.863 440.217ZM216.686 444.257C231.377 432.043 245.203 441.196 250.163 457.508C251.461 450.025 252.304 441.503 247.307 435.374C231.182 415.594 197.124 431.595 194.915 454.612C193.664 468.138 197.233 477.451 205.668 487.943C218.79 504.266 243.141 515.807 241.78 539.756C240.787 557.229 219.84 568.458 207.173 553.893C202.23 548.209 206.801 541.19 208.871 535.208C207.612 524.048 196.555 528.069 193.019 536.755C184.995 566.693 226.143 582.755 245.284 563.545C253.028 555.149 254.847 542.923 255.108 532.197C255.664 509.396 236.503 499.232 221.84 484.946C216.785 479.278 211.536 473.576 210.612 465.734C209.656 457.628 211.779 450.603 216.686 444.257ZM192.995 458.415C193.313 456.772 194.076 454.045 193.619 452.572C192.541 454.125 192.215 456.616 191.911 458.544C191.973 463.293 191.775 467.898 192.98 472.556C201.254 504.554 252.043 514.47 234.882 553.656C246.127 538.944 238.941 523.117 227.397 511.657C210.424 494.807 193.294 484.637 192.995 458.415ZM226.388 440.584C222.744 441.643 221.658 442.27 218.285 444.073C230.451 440.43 240.204 441.471 245.643 454.318C245.987 455.903 246.204 457.958 247.266 459.035C247.929 457.667 247.627 455.195 247.052 453.818C242.892 443.86 236.929 440.119 226.388 440.584ZM297.664 446.597C256.051 456.353 244.446 520.525 273.939 549.318C280.153 555.385 288.006 556.907 296.487 556.649C327.307 553.906 338.145 517.456 334.866 491.119C332.47 471.873 321.496 444.476 297.664 446.597ZM264.241 471.08C255.382 484.59 251.739 503.336 255.312 519.403C258.946 535.747 267.814 557.607 287.308 559.152C290.657 559.418 293.993 559.124 297.39 558.787L297.729 558.277C295.149 558.015 291.966 558.648 289.808 558.295C262.13 553.776 253.393 520.36 256.48 496.401C257.537 488.197 260.795 478.616 264.694 471.524L264.241 471.08ZM191.755 534.375C181.633 556.298 199.433 574.661 220.821 573.394L221.115 573.214C212.589 571.43 206.374 570.369 199.457 564.433C192.158 558.171 188.606 548.871 190.908 539.406C191.196 538.265 191.891 535.385 191.755 534.375Z" fill="#030202"/>
<path d="M176.998 455.133C178.439 453.47 180.044 446.122 181.339 443.848C183.426 440.184 185.996 437.042 188.06 433.36L188.318 432.891C190.899 433.369 196.314 438.235 198.864 440.216C191.965 449.903 188.802 458.094 190.746 470.222C195.54 500.122 234.354 508.503 237.07 538.812C237.964 554.818 224.552 565.2 210.493 555.291C208.086 553.595 206.031 549.537 207.181 546.488C210.311 538.301 214.996 528.538 202.013 527.204C198.868 526.881 193.204 531.175 191.659 533.3C175.676 555.273 201.064 577.89 223.332 574.764C235.261 573.089 240.662 570.186 248.574 562.413C253.122 564.951 281.95 564.611 285.447 560.483C301.192 561.25 306.494 558.255 318.681 548.138C358.312 515.335 328.846 404.664 270.433 461.063C256.103 474.899 251.962 495.112 252.505 514.119C243.668 500.116 230.35 492.305 219.107 479.112C223.846 475.794 225.276 463.888 225.407 458.345C225.48 455.217 224.404 451.122 224.806 448.119C226.393 446.57 229.074 446.045 231.467 444.921C230.721 444.555 230.464 444.424 229.772 443.89C247.168 444.951 241.868 462.974 248.8 461.51C253.427 457.943 252.927 449.262 252.365 444.059C251.859 439.376 249.888 436.141 247.065 432.591C253.694 432.391 261.822 433.513 268.698 433.206C286.881 432.394 305.809 432.575 323.904 431.631C355.986 429.958 388.384 427.609 420.502 426.64C470.876 425.25 521.138 424.691 571.55 425.084C597.754 425.288 624.159 424.804 650.501 426.357C688.109 428.574 727.256 432.657 764.094 441.04C767.069 441.717 784.337 444.504 785.4 445.17C776.893 452.596 771.2 459.324 772.083 471.337C774.176 478.363 776.282 480.894 780.461 486.782C791.635 502.525 836.361 531.348 811.266 553.376C802.345 558.804 783.63 556.465 775.512 550.051C780.763 546.909 785.224 548.173 783.507 539.469C778.008 530.984 768.607 532.243 760.789 536.76C753.223 548.64 762.939 559.434 773.446 564.65C785.971 570.868 802.878 573.482 816.469 569.598C824.066 567.426 829.347 561.394 832.69 554.481C843.98 530.544 830.759 511.231 814.657 493.993C807.337 486.342 797.309 479.62 793.365 469.423C790.99 463.284 798.689 456.603 804.048 455.245C809.483 453.867 812.902 459.113 816.984 461.735C822.292 465.146 825.926 458.429 827.424 454.29C841.984 471.86 841.483 487.101 841.655 508.969C841.721 517.407 841.868 527.371 841.116 535.739L841.023 536.738C839.81 551.416 841.652 556.442 834.808 569.921C806.662 608.037 748.164 594.9 706.568 596.109C674.817 597.032 642.035 593.393 610.137 594.515C581.956 594.73 553.65 593.764 525.512 592.407C497.107 591.189 467.788 593.769 439.4 595.348C435.872 595.525 431.069 595.594 427.657 594.728C440.033 551.97 415.914 564.633 405.355 593.676C394.457 591.609 391.43 590.648 380.655 593.413C378.067 591.463 372.125 592.118 368.613 591.741C327.1 587.289 284.817 587.595 243.2 584.911C225.101 583.744 192.551 583.03 177.129 574.212L176.556 492.513C176.558 482.896 175.855 463.856 176.998 455.133ZM465.311 443.079C461.807 443.087 456.155 442.929 452.861 443.416C451.065 443.511 449.371 443.433 447.577 443.381L445.872 443.873L442.273 444.613C440.211 448.78 439.636 460.054 438.859 465.364C436.515 481.385 434.934 500.22 432.693 516.016C431.71 522.939 429.713 554.07 428.136 557.261C428.67 558.467 429.021 559.366 429.7 560.508C429.899 560.586 430.094 560.676 430.297 560.744C434.537 562.171 483.666 559.991 486.719 557.885C487.652 557.241 488.065 556.588 488.319 555.498C488.965 552.73 488.911 547.348 487.442 544.941C483.653 542.926 454.646 544.472 448.588 544.931C449.402 536.215 450.537 528.229 451.759 519.567C455.719 519.182 462.117 519.032 465.192 516.656C466.518 515.63 466.547 514.191 466.791 512.55C482.819 513.289 498.09 513.098 513.979 513.422C513.209 519.686 508.086 552.189 510.648 555.978C511.93 557.875 514.646 558.508 516.773 558.682C520.799 559.013 528.204 558.281 531.779 556.458C533.12 555.949 533.157 555.685 534.161 554.598C535.678 552.459 540.005 472.695 540.569 461.566C552.815 460.486 561.273 460.909 573.408 461.535C571.472 489.027 567.564 516.275 566.075 543.801C565.925 546.574 564.556 553.451 566.536 555.623C569.472 558.843 583.447 558.809 586.827 556.333C588.722 550.553 589.27 531.82 590.101 524.453C592.092 506.823 594.176 488.907 595.381 471.213C595.899 463.617 597.061 454.356 596.55 446.871C593.083 443.23 580.237 446.762 574.575 445.886C564.644 442.825 520.332 445.55 507.493 445.514C504.979 445.507 495.113 446.489 493.427 445.924C493.048 444.425 493.139 444.417 492.228 443.204C488.69 441.817 470.117 442.923 465.311 443.079ZM352.009 443.671C350.282 443.631 350.318 443.498 348.895 444.411C348.3 446.968 348.198 449.493 347.913 452.089C346.54 464.614 345.767 477.349 344.168 489.838C341.891 507.619 337.571 525.079 336.173 543.006C335.325 553.87 342.313 559.51 352.088 553.468C355.73 554.601 365.018 553.146 368.688 551.739C377.039 548.539 376.43 538.257 379.762 531.062C381.773 529.453 386.597 527.253 386.014 524.507L384.917 523.974C392.013 514.773 396.742 503.545 402.53 493.403C403.67 514.154 400.576 533.423 399.441 554.108C398.956 562.947 410.082 558.748 415.453 558.32C419.923 557.963 420.978 554.397 421.193 550.342C421.769 539.498 421.712 528.605 422.545 517.713L425.449 479.881C426.284 468.899 427.452 458.599 426.538 447.682C425.61 436.593 419.361 432.939 412.776 443.179C408.778 448.517 406.398 455.219 402.946 460.79C394.933 473.721 388.029 490.397 380.021 502.957L379.605 503.601C374.218 490.384 371.742 475.858 368.766 461.966C367.154 454.439 364.427 434.436 352.277 443.827L352.009 443.671ZM715.293 451.751C711.15 454.82 710.286 458.911 709.682 463.971C707.737 480.267 706.377 496.536 704.304 512.848L700.767 539.364C700.146 543.743 699.167 549.942 698.687 554.562C697.289 567.987 721.591 560.52 729.064 561.189C732.549 561.501 738.731 560.934 742.405 560.89C747.691 559.994 750.002 556.065 750.218 551.018C750.669 540.468 736.867 543.949 729.121 544.634L715.914 545.875C716.995 539.835 718.432 529.697 720.166 524.275C727.429 523.43 738.668 525.785 744.604 520.514C747.566 517.92 748.177 509.409 744.898 506.996C740.065 503.439 727.605 505.562 721.932 506.096C724.546 493.172 726.159 480.312 728.297 467.327C728.417 466.593 728.822 466.129 729.32 465.622C735.565 465.468 760.62 466.213 764.575 462.917C765.4 460.054 766.726 449.968 762.602 449.631C752.88 448.836 722.966 447.754 715.293 451.751ZM631.095 454.853C629.896 453.245 630.66 453.716 628.783 453.299C621.361 455.197 619.321 465.499 617.795 471.606C610.659 500.163 604.506 529.539 599.73 558.597C604.357 559.169 614.084 559.999 618.322 557.275C619.354 556.611 620.077 547.58 620.234 545.915C621.581 531.645 624.602 512.2 629.346 498.707C633.816 504.854 648.479 551.42 660.423 531.089C662.308 528.263 663.65 524.536 665.407 521.635C672.032 510.694 676.876 496.471 683.437 485.745C684.429 488.928 680.782 531.192 680.343 537.977C680.103 541.678 679.014 549.116 679.606 553.224C679.849 554.906 681.176 555.964 682.586 556.702C684.585 557.748 687.304 558.24 689.495 557.478C691.27 556.86 691.273 556.893 692.262 555.577C692.609 554.178 693.022 552.429 693.146 551.01C695.848 520.157 697.864 489.261 700.556 458.407C700.717 456.557 700.78 454.989 699.673 453.542C696.297 451.994 690.093 452.073 686.752 453.315C682.206 455.005 676.59 467.409 674.583 471.679C668.122 485.428 661.615 498.662 654.378 511.946C649.339 500.198 645.256 487.376 640.394 475.465C637.791 469.085 634.752 460.649 631.095 454.853Z" fill="url(#paint2_linear_2293_69135)"/>
<path d="M216.688 444.257C212.365 443.81 210.072 443.711 206.435 446.884C196.154 455.852 205.301 470.004 212.478 477.659C214.943 480.288 218.229 484.781 221.842 484.946C236.505 499.232 255.666 509.396 255.11 532.197C254.849 542.923 253.03 555.149 245.286 563.545C226.145 582.755 184.997 566.693 193.021 536.755C194.903 536.952 199.18 535.749 201.48 535.571C204.049 535.372 206.277 535.271 208.873 535.208C206.803 541.19 202.232 548.209 207.175 553.893C219.842 568.458 240.789 557.229 241.782 539.756C243.143 515.807 218.792 504.266 205.67 487.943C197.235 477.451 193.666 468.138 194.917 454.612C197.126 431.595 231.184 415.594 247.309 435.374C252.306 441.503 251.463 450.025 250.165 457.508C245.205 441.196 231.379 432.043 216.688 444.257Z" fill="#FFCFD2"/>
<path d="M352.009 443.67C350.76 444.764 350.324 444.956 350.124 446.733C348.257 463.365 346.991 480.088 344.835 496.69C342.887 511.691 339.043 526.401 337.893 541.524C337.311 549.171 340.304 558.237 349.48 553.227L349.604 552.872C343.293 552.741 338.749 551.455 339.537 543.864C342.327 516.976 348.657 490.763 350.271 463.645C350.583 458.391 351.152 448.468 352.277 443.826C364.427 434.435 367.154 454.438 368.766 461.965C371.742 475.857 374.218 490.383 379.605 503.6L380.021 502.956C388.029 490.396 394.933 473.72 402.946 460.789C406.398 455.218 408.778 448.516 412.776 443.178C419.361 432.938 425.61 436.592 426.538 447.681C427.452 458.598 426.284 468.898 425.449 479.88L422.545 517.712C421.712 528.604 421.769 539.497 421.193 550.341C420.978 554.396 419.923 557.962 415.453 558.319C410.082 558.747 398.956 562.946 399.441 554.107C400.576 533.422 403.67 514.153 402.53 493.402C396.742 503.544 392.013 514.772 384.917 523.973C370.679 533.039 363.772 513.302 360.279 502.603C358.529 514.083 355.368 544.411 352.088 553.467C342.313 559.509 335.325 553.869 336.173 543.005C337.571 525.078 341.891 507.618 344.168 489.837C345.767 477.348 346.54 464.613 347.913 452.088C348.198 449.492 348.3 446.967 348.895 444.41C350.318 443.497 350.282 443.63 352.009 443.67ZM404.863 554.775C409.572 554.679 414.213 554.107 418.894 553.608C415.849 557.121 408.278 555.752 403.919 557.143C402.957 557.45 403.093 557.127 403.044 557.775C407.773 558.222 414.121 557.909 418.432 555.819C419.23 554.866 419.119 555.208 419.504 554.109C420.863 544.563 420.367 531.944 421.104 521.753L423.894 484.824C424.854 472.817 427.246 454.486 424.303 443.001C420.723 429.031 409.771 450.211 407.646 454.44C401.612 466.451 394.423 478.508 388.166 490.44C386.608 493.375 382.044 504.067 379.505 505.011C373.683 502.431 367.172 455.622 363.611 447.65C362.182 444.45 359.251 441.967 355.728 442.724C354.936 443.406 354.469 443.892 354.028 444.866C352.654 447.899 351.802 467.194 351.306 471.765C350.211 481.84 349.35 492.049 347.689 502.047C345.825 513.271 343.329 524.264 342.069 535.607C341.685 539.071 340.226 545.998 341.876 549.03C342.55 550.268 343.305 550.869 344.672 551.208C346.441 551.646 348.903 551.404 350.424 550.361C354.428 547.614 359.91 489.314 361.3 480.765C363.651 492.298 367.805 513.743 376.26 521.455C377.501 521.48 383.623 521.704 384.579 521.179C391.402 517.436 399.329 490.497 405.457 488.533L406.441 489.151C409.796 495.681 405.803 544.609 404.863 554.775ZM404.676 489.747C404.065 491.205 403.647 492.643 403.696 494.23C404.224 511.32 402.616 528.15 401.344 545.165C401.072 548.813 400.49 553.244 401.324 556.798L402.206 557.712C402.126 554.078 402.994 550.176 403.303 546.516C403.909 539.328 407.904 492.627 405.243 490.148C405.074 489.99 404.865 489.881 404.676 489.747ZM361.209 490.86C361.045 492.02 360.463 495.977 360.727 497.109C362.759 505.822 367.482 522.705 377.273 524.995C378.436 525.267 381.247 524.414 382.395 524.096L382.852 523.273C380.625 522.72 378.512 523.057 376.225 522.937C363.74 514.382 365.621 495.633 361.209 490.86Z" fill="#030202"/>
<path d="M823.117 444.361L822.439 445.08C802.765 429.507 774.289 446.451 773.116 468.524C772.443 469.795 772.224 469.941 772.082 471.339C771.199 459.326 776.892 452.598 785.399 445.172C797.93 436.401 810.148 433.973 823.117 444.361Z" fill="#130E0D"/>
<path d="M418.895 553.609C414.214 554.108 409.573 554.68 404.864 554.776C405.804 544.61 409.797 495.682 406.442 489.152L405.458 488.534C399.33 490.498 391.403 517.437 384.58 521.18C383.624 521.705 377.502 521.481 376.261 521.456C367.806 513.744 363.652 492.299 361.301 480.766C359.911 489.315 354.429 547.615 350.425 550.362C348.904 551.405 346.442 551.647 344.673 551.209C343.306 550.87 342.551 550.269 341.877 549.031C340.227 545.999 341.686 539.072 342.07 535.608C343.33 524.265 345.826 513.272 347.69 502.048C349.351 492.05 350.212 481.841 351.307 471.766C351.803 467.195 352.655 447.9 354.029 444.867C354.47 443.893 354.937 443.407 355.729 442.725C359.252 441.968 362.183 444.451 363.612 447.651C367.173 455.623 373.684 502.432 379.506 505.012C382.045 504.068 386.609 493.376 388.167 490.441C394.424 478.509 401.613 466.452 407.647 454.441C409.772 450.212 420.724 429.032 424.304 443.002C427.247 454.487 424.855 472.818 423.895 484.825L421.105 521.754C420.368 531.945 420.864 544.564 419.505 554.11L418.895 553.609Z" fill="#FFCFD2"/>
<path d="M773.118 468.525C774.291 446.452 802.767 429.508 822.441 445.081C824.006 447.178 825.699 449.383 825.358 452.13C825.046 454.826 823.025 459.611 819.565 458.82C812.593 457.225 809.023 447.3 800.832 452.727C791.1 459.175 787.383 465.899 794.987 476.237C800.575 483.835 808.03 489.404 814.691 496.002C826.063 507.541 837.801 524.561 835.12 541.661C833.76 549.735 829.218 558.273 822.435 562.981C813.046 569.499 799.656 568.88 788.941 566.886C776.04 564.485 756.232 554.856 762.93 538.567L761.771 537.819C768.167 534.03 778.833 531.541 782.159 540.431C779.065 547.611 775.613 543.968 772.617 547.49C772.76 549.3 773.08 549.689 774.444 551.224C783.331 556.917 802.638 560.554 811.784 554.4C819.035 549.581 821.218 540.053 819.061 531.95C811.886 504.988 781.433 494.646 773.118 468.525Z" fill="#FFCFD2"/>
<path d="M218.285 444.074C221.658 442.271 222.744 441.644 226.388 440.585C236.929 440.12 242.892 443.861 247.052 453.819C247.627 455.196 247.929 457.668 247.266 459.036C246.204 457.959 245.987 455.904 245.643 454.319C240.204 441.472 230.451 440.431 218.285 444.074Z" fill="#FFEDE1"/>
<path d="M465.31 443.081C470.116 442.925 488.689 441.819 492.227 443.206C493.138 444.419 493.047 444.427 493.426 445.926C495.112 446.491 504.978 445.509 507.492 445.516C520.331 445.552 564.643 442.827 574.574 445.888L574.355 446.43C572.078 446.133 565.914 445.504 563.95 445.581C555.075 445.93 499.567 445.677 494.495 448.083L493.301 448.435L492.712 448.028C492.383 449.692 492.424 453.398 492.67 455.072C493.261 457.414 493.235 458.021 494.912 459.65C503.773 462.005 511.018 459.982 518.467 461.807L518.735 462.437C511.493 462.031 500.875 462.534 494.072 460.473C492.19 459.903 491.802 458.324 491.115 456.745C490.819 455.817 491.063 456.246 490.337 455.485C486.069 455.907 461.359 457.407 459.395 458.397L459.563 459.043C466.98 459.892 485.224 455.513 490.331 456.758C484.679 457.745 481.069 458.532 475.181 458.994C470.245 459.382 463.712 459.685 459.027 460.701C457.347 474.437 454.557 489.393 453.782 503.022C463.703 502.793 468.073 500.96 466.79 512.552C466.546 514.193 466.517 515.632 465.191 516.658C462.116 519.034 455.718 519.184 451.758 519.569C450.536 528.231 449.401 536.217 448.587 544.933C454.645 544.474 483.652 542.928 487.441 544.943C488.91 547.35 488.964 552.732 488.318 555.5C488.064 556.59 487.651 557.243 486.718 557.887C483.665 559.993 434.536 562.173 430.296 560.746C430.093 560.678 429.898 560.588 429.699 560.51C431.482 558.498 431.448 558.621 433.739 559.439C438.273 561.044 457.766 559.111 463.898 558.933C465.499 558.833 464.851 559.165 465.995 558.194L465.549 557.677L463.976 557.961C460.619 558.07 457.175 558.122 453.837 558.437L453.688 557.686C451.611 557.657 449.81 557.579 447.738 557.433C458.943 555.791 474.71 556.746 486.612 554.84C486.669 551.803 486.525 548.709 486.43 545.668C475.349 545.228 458.262 545.907 447.096 546.582C447.477 537.171 449.321 526.467 450.706 517.016C456.178 517.206 459.12 516.607 464.464 515.553C465.656 503.462 463.605 503.815 452.322 505.365C452.785 490.078 456.784 472.245 458.057 456.587C464.342 455.689 487.062 455.353 490.114 453.235C491.059 450.896 491.248 446.752 491.778 443.754L464.578 444.023C463.527 443.922 463.717 443.951 462.625 443.659C463.153 443.671 464.704 443.231 465.31 443.081ZM485.425 556.286C482.307 556.646 468.092 557.205 466.707 558.327L467.075 558.762C470.758 558.565 482.966 558.198 485.679 556.69L485.425 556.286Z" fill="#130E0D"/>
<path d="M452.861 443.418C456.155 442.931 461.807 443.089 465.311 443.081C464.705 443.231 463.154 443.671 462.626 443.659C463.718 443.951 463.528 443.922 464.579 444.023C461.175 444.64 458.787 444.5 455.336 444.449L459.553 443.733C457.314 443.704 455.095 443.549 452.861 443.418Z" fill="#675355"/>
<path d="M229.772 443.891C230.464 444.425 230.721 444.556 231.467 444.922C229.074 446.046 226.393 446.571 224.806 448.12C224.404 451.123 225.48 455.218 225.407 458.346C225.276 463.889 223.846 475.795 219.107 479.113C213.304 472.212 211.108 465.904 213.02 456.78C214.758 448.489 220.593 441.666 229.772 443.891Z" fill="#B9ECEF"/>
<path d="M445.873 443.875L447.578 443.383C448.339 443.879 448.75 443.936 448.995 444.532C447.042 446.059 446.762 448.785 446.515 451.156C442.9 485.896 436.014 522.639 435.1 557.469C438.1 557.449 445.061 557.196 447.74 557.433C449.812 557.579 451.613 557.657 453.69 557.686L453.839 558.437C449.776 558.698 436.318 558.812 433.741 559.439C431.45 558.621 431.484 558.498 429.701 560.51C429.022 559.368 428.671 558.469 428.137 557.263L430.42 556.583C431.108 556.749 431.416 556.694 432.135 556.705C434.019 554.242 432.933 549.976 433.32 546.979C437.557 514.191 438.842 475.795 445.873 443.875Z" fill="#030202"/>
<path d="M447.576 443.383C449.37 443.435 451.064 443.513 452.86 443.418C455.094 443.549 457.313 443.704 459.552 443.733L455.335 444.449C453.376 444.532 450.881 444.75 448.993 444.532C448.748 443.936 448.337 443.879 447.576 443.383Z" fill="#130E0D"/>
<path d="M221.842 484.946C218.229 484.781 214.943 480.288 212.478 477.659C205.301 470.004 196.154 455.852 206.435 446.884C210.072 443.711 212.365 443.81 216.688 444.257C211.781 450.603 209.658 457.628 210.614 465.734C211.538 473.576 216.787 479.278 221.842 484.946Z" fill="#F1C0E8"/>
<path d="M352.278 443.828C351.153 448.47 350.584 458.393 350.272 463.647C348.658 490.765 342.328 516.978 339.538 543.866C338.75 551.457 343.294 552.743 349.605 552.874L349.481 553.229C340.305 558.239 337.312 549.173 337.894 541.526C339.044 526.403 342.888 511.693 344.836 496.692C346.992 480.09 348.258 463.367 350.125 446.735C350.325 444.958 350.761 444.766 352.01 443.672L352.278 443.828Z" fill="#FFCFD2"/>
<path d="M442.273 444.615L445.872 443.875C438.841 475.795 437.556 514.191 433.319 546.979C432.932 549.976 434.018 554.242 432.134 556.705C431.415 556.694 431.107 556.749 430.419 556.583C430.363 553.215 430.574 549.926 430.929 546.58C434.486 513.037 437.085 479.375 442.571 446.065C442.679 445.41 442.527 445.349 442.273 444.615Z" fill="#FFCFD2"/>
<path d="M464.58 444.023L491.78 443.754C491.25 446.752 491.061 450.896 490.116 453.235C487.064 455.353 464.344 455.689 458.059 456.587C456.786 472.245 452.787 490.078 452.324 505.365C463.607 503.815 465.658 503.462 464.466 515.553C459.122 516.607 456.18 517.206 450.708 517.016C449.323 526.467 447.479 537.171 447.098 546.582C458.264 545.907 475.351 545.228 486.432 545.668C486.527 548.709 486.671 551.803 486.614 554.84C474.712 556.746 458.945 555.791 447.74 557.433C445.061 557.196 438.1 557.449 435.1 557.469C436.014 522.639 442.9 485.896 446.515 451.156C446.762 448.785 447.042 446.059 448.995 444.532C450.883 444.75 453.378 444.532 455.337 444.449C458.788 444.5 461.176 444.64 464.58 444.023Z" fill="#FFCFD2"/>
<path d="M822.441 445.078L823.119 444.359C826.325 448.42 826.456 449.303 827.425 454.29C825.927 458.429 822.293 465.146 816.985 461.735C812.903 459.113 809.484 453.867 804.049 455.245C798.69 456.603 790.991 463.284 793.366 469.423C797.31 479.62 807.338 486.342 814.658 493.993C830.76 511.231 843.981 530.544 832.691 554.481C829.348 561.394 824.067 567.426 816.47 569.598C802.879 573.482 785.972 570.868 773.447 564.65C762.94 559.434 753.224 548.64 760.79 536.76L761.771 537.816L762.931 538.564C756.233 554.853 776.04 564.482 788.941 566.883C799.656 568.877 813.046 569.496 822.435 562.978C829.218 558.27 833.761 549.732 835.121 541.658C837.802 524.558 826.064 507.538 814.692 495.999C808.031 489.401 800.576 483.832 794.988 476.234C787.384 465.896 791.101 459.172 800.833 452.724C809.024 447.297 812.593 457.222 819.565 458.817C823.025 459.608 825.047 454.823 825.359 452.127C825.7 449.38 824.006 447.175 822.441 445.078Z" fill="#030202"/>
<path d="M442.274 444.613C442.528 445.347 442.68 445.408 442.572 446.063C437.086 479.373 434.487 513.035 430.93 546.578C430.575 549.924 430.364 553.213 430.42 556.581L428.137 557.261C429.714 554.07 431.711 522.939 432.694 516.016C434.935 500.22 436.516 481.385 438.86 465.364C439.637 460.054 440.212 448.78 442.274 444.613Z" fill="#130E0D"/>
<path d="M574.357 446.428L574.576 445.886C580.238 446.762 593.084 443.23 596.551 446.871C597.062 454.356 595.9 463.617 595.382 471.213C594.177 488.907 592.093 506.823 590.102 524.453C589.271 531.82 588.723 550.553 586.828 556.333C583.448 558.809 569.473 558.843 566.537 555.623C564.557 553.451 565.926 546.574 566.076 543.801C567.565 516.275 571.473 489.027 573.409 461.535C561.274 460.909 552.816 460.486 540.57 461.566C540.006 472.695 535.679 552.459 534.162 554.598C528.123 555.1 511.738 558.755 512.656 549.445C513.488 541.014 513.763 532.405 514.617 523.963C514.876 520.917 516.235 514.141 516.015 511.578L515.443 511.584C514.655 514.329 514.401 518.732 514.35 522.353C514.257 529.098 507.071 554.457 514.999 557.287C517.008 558.004 528.921 555.602 531.78 556.458C528.205 558.281 520.8 559.013 516.774 558.682C514.647 558.508 511.931 557.875 510.649 555.978C508.087 552.189 513.21 519.686 513.98 513.422C514.165 510.943 514.558 508.159 514.878 505.682C516.737 491.296 517.588 476.891 518.737 462.435L518.469 461.805L519.598 461.273L519.447 460.715C516.168 459.234 500.857 459.44 495.116 458.63C494.066 456.149 493.868 454.323 493.396 451.691L493.303 448.433L494.497 448.081C494.547 449.343 494.851 453.774 495.025 454.545C496.457 460.857 515.619 454.977 521.702 459.361C523.014 461.794 515.764 534.588 515.187 544.305C515.047 546.677 514.499 551.257 516.115 553.087C519.563 554.778 528.56 553.072 532.919 552.682L536.844 496.312C537.579 484.383 538.034 472.034 539.309 460.126C539.776 455.762 558.769 457.345 562.36 457.187C566.743 456.995 568.848 458.295 572.718 458.924C574.63 456.986 574.569 449.144 574.357 446.428ZM587.24 446.703C583.757 446.993 579.54 447.453 576.107 447.569C575.254 480.999 571.789 514.003 568.946 547.28C568.528 552.178 573.528 552.687 577.026 552.972C580.077 552.872 583.179 553.101 585.645 551.292C587.358 548.098 594.751 458.221 595.046 448.041C593.565 446.049 589.528 446.435 587.24 446.703ZM545.768 458.663L545.086 458.688L544.6 459.305L544.57 458.783L543.558 459.385C545.243 460.061 562.917 459.934 566.125 460.023L567.544 459.893L567.887 459.344C566.919 459.103 567.338 459.035 566.613 459.348C563.874 458.081 549.199 458.454 545.768 458.663ZM567.894 551.41C568.141 552.604 568.205 554.118 569.398 554.811C573.371 557.118 579.635 556.751 584.018 555.787C585.501 555.461 585.694 554.803 586.595 553.709C583.753 552.54 575.145 558.769 567.894 551.41Z" fill="#030202"/>
<path d="M494.496 448.083C499.568 445.677 555.076 445.93 563.951 445.581C565.915 445.504 572.079 446.133 574.356 446.43C574.568 449.146 574.629 456.988 572.717 458.926C568.847 458.297 566.742 456.997 562.359 457.189C558.768 457.347 539.775 455.764 539.308 460.128C538.033 472.036 537.578 484.385 536.843 496.314L532.918 552.684C528.559 553.074 519.562 554.78 516.114 553.089C514.498 551.259 515.046 546.679 515.186 544.307C515.763 534.59 523.013 461.796 521.701 459.363C515.618 454.979 496.456 460.859 495.024 454.547C494.85 453.776 494.546 449.345 494.496 448.083Z" fill="#FFCFD2"/>
<path d="M296.487 556.649C288.006 556.907 280.153 555.385 273.939 549.318C244.446 520.525 256.051 456.353 297.664 446.597C321.496 444.476 332.47 471.873 334.866 491.119C338.145 517.456 327.307 553.906 296.487 556.649ZM300.29 459.105C270.704 466.815 256.436 541.592 292.979 546.969C333.358 541.432 326.218 456.631 300.29 459.105Z" fill="#FFCFD2"/>
<path d="M576.106 447.57C579.539 447.454 583.756 446.994 587.239 446.704C589.527 446.436 593.563 446.05 595.044 448.042C594.749 458.222 587.356 548.099 585.643 551.293C583.177 553.102 580.076 552.873 577.025 552.973C573.527 552.688 568.527 552.179 568.945 547.281C571.788 514.004 575.253 481 576.106 447.57Z" fill="#FFCFD2"/>
<path d="M492.671 455.071C492.425 453.397 492.384 449.691 492.713 448.027L493.302 448.434L493.395 451.692L492.671 455.071Z" fill="#675355"/>
<path d="M715.293 451.75C722.966 447.753 752.88 448.835 762.602 449.63C766.726 449.967 765.4 460.053 764.575 462.916L763.252 462.085C764.591 459.324 763.669 453.832 763.36 450.717C754.337 449.598 723.998 449.638 715.908 452.49L715.293 451.75Z" fill="#130E0D"/>
<path d="M715.909 452.491C723.999 449.639 754.338 449.599 763.361 450.718C763.67 453.833 764.592 459.325 763.253 462.086C759.345 462.185 729.276 462.437 727.665 463.808C727.093 465.245 727.014 465.489 726.708 467.002C725.998 479.962 722.592 494.511 720.73 507.316C725.569 506.977 755.276 501.412 743.534 519.554C741.413 522.832 724.241 521.636 719.516 521.524C716.876 530.333 716.358 538.776 714.188 547.446C719.581 546.504 725.518 546.133 731.008 545.665C734.947 545.469 744.591 543.619 746.974 545.936C750.567 549.43 748.74 558.192 742.357 558.536C738.436 558.706 734.087 558.605 730.167 558.516C724.691 558.392 705.815 561.901 702.549 557.97C702.115 550.537 703.633 542.49 704.653 535.065L708.792 504.193C710.689 488.963 712.128 473.71 713.945 458.488C714.216 456.224 714.787 454.484 715.909 452.491Z" fill="#FFCFD2"/>
<path d="M192.996 458.413L191.912 458.542C192.216 456.614 192.542 454.123 193.62 452.57C194.077 454.043 193.314 456.77 192.996 458.413Z" fill="#828080"/>
<path d="M729.121 544.637C736.867 543.952 750.669 540.471 750.218 551.021C750.002 556.068 747.691 559.997 742.405 560.893C738.731 560.937 732.549 561.504 729.064 561.192C721.591 560.523 697.289 567.99 698.687 554.565C699.167 549.945 700.146 543.746 700.767 539.367L704.304 512.851C706.377 496.539 707.737 480.27 709.682 463.974C710.286 458.914 711.15 454.823 715.293 451.754L715.908 452.494C714.786 454.487 714.215 456.227 713.944 458.491C712.127 473.713 710.688 488.966 708.791 504.196L704.652 535.068C703.632 542.493 702.114 550.54 702.548 557.973C705.814 561.904 724.69 558.395 730.166 558.519C734.086 558.608 738.435 558.709 742.356 558.539C748.739 558.195 750.566 549.433 746.973 545.939C744.59 543.622 734.946 545.472 731.007 545.668L729.121 544.637Z" fill="#030202"/>
<path d="M492.672 455.07L493.396 451.691C493.868 454.323 494.066 456.149 495.116 458.63L494.914 459.648C493.237 458.019 493.263 457.412 492.672 455.07Z" fill="#C3968C"/>
<path d="M631.095 454.854C634.752 460.65 637.791 469.086 640.394 475.466C645.256 487.377 649.339 500.199 654.378 511.947C661.615 498.663 668.122 485.429 674.583 471.68C676.59 467.41 682.206 455.006 686.752 453.316C690.093 452.074 696.297 451.995 699.673 453.543C700.78 454.99 700.717 456.558 700.556 458.408C697.864 489.262 695.848 520.158 693.146 551.011C693.022 552.43 692.609 554.179 692.262 555.578L691.231 553.63C691.745 545.017 692.263 536.387 693.331 527.711C696.241 504.084 697.743 479.977 699.306 456.228C699.598 451.788 689.211 453.778 686.394 454.201C682.047 458.813 677.009 469.39 674.184 475.284L662.28 499.712C659.967 504.372 657.227 510.374 654.396 514.627C652.072 509.598 650.262 503.755 648.156 498.559C642.438 484.449 637.201 468.815 630.615 455.143L631.095 454.854Z" fill="#130E0D"/>
<path d="M599.73 558.599C604.506 529.541 610.659 500.165 617.795 471.608C619.321 465.501 621.362 455.199 628.784 453.301C630.661 453.718 629.896 453.247 631.095 454.855L630.615 455.144C626.703 454.772 625.507 457.464 622.578 460.157C618.745 483.576 612.582 506.451 608.346 529.781C607.502 534.425 603.988 549.349 603.766 552.847C606.788 555.376 612.137 554.492 615.954 554.157L618.355 553.938C619.208 540.932 619.678 531.682 622.661 518.623C625.23 507.377 628.15 499.841 628.724 488.06C632.071 495.579 645.564 529.658 651.419 532.042C653.455 532.871 655.765 532.502 657.677 531.494C658.387 531.119 658.439 531.058 659.016 530.644L660.423 531.091C648.479 551.422 633.816 504.856 629.346 498.709C624.602 512.202 621.581 531.647 620.234 545.917C620.077 547.582 619.355 556.613 618.323 557.277C614.085 560.001 604.357 559.171 599.73 558.599ZM602.167 555.008C602.229 555.863 602.006 556.55 602.711 556.969C605.88 558.853 613.332 557.743 616.711 556.791L616.672 556.114C611.426 555.416 608.998 558.052 602.167 555.008Z" fill="#030202"/>
<path d="M622.578 460.156C625.507 457.463 626.703 454.771 630.615 455.143C637.201 468.815 642.438 484.449 648.156 498.559C650.262 503.755 652.072 509.598 654.396 514.627C657.227 510.374 659.967 504.372 662.28 499.712L674.184 475.284C677.009 469.39 682.047 458.813 686.394 454.201C689.211 453.778 699.598 451.788 699.306 456.228C697.743 479.977 696.241 504.084 693.331 527.711C692.263 536.387 691.745 545.017 691.231 553.63L690.309 554.747C689.624 554.822 688.952 554.903 688.26 554.878C686.387 554.809 683.966 554.5 682.734 552.934C681.486 551.347 685.98 479.348 687.202 472.434C685.514 475.991 683.634 481.441 682.221 485.196C677.021 495.573 672.067 506.092 666.719 516.381C664.441 520.764 661.697 526.63 659.015 530.643C658.438 531.057 658.387 531.118 657.677 531.493C655.765 532.501 653.455 532.87 651.419 532.041C645.564 529.657 632.071 495.578 628.724 488.059C628.15 499.84 625.23 507.376 622.661 518.622C619.678 531.681 619.208 540.931 618.355 553.937L615.954 554.156C612.137 554.491 606.788 555.375 603.766 552.846C603.988 549.348 607.502 534.424 608.346 529.78C612.582 506.45 618.745 483.575 622.578 460.156Z" fill="#FFCFD2"/>
<path d="M490.332 456.757C485.225 455.512 466.981 459.891 459.564 459.042L459.396 458.396C461.36 457.406 486.071 455.906 490.339 455.484C491.065 456.245 490.82 455.816 491.116 456.744L490.332 456.757Z" fill="#FFEDE1"/>
<path d="M459.028 460.698C463.713 459.682 470.246 459.379 475.182 458.991C481.07 458.529 484.68 457.742 490.332 456.755L491.116 456.742C491.803 458.321 492.191 459.9 494.073 460.47C500.876 462.531 511.494 462.028 518.736 462.434C517.587 476.89 516.736 491.295 514.877 505.681C514.557 508.158 514.164 510.942 513.979 513.421C498.09 513.097 482.819 513.288 466.791 512.549C468.074 500.957 463.704 502.79 453.783 503.019C454.558 489.39 457.348 474.434 459.028 460.698Z" fill="#FCF8F1"/>
<path d="M191.912 458.543L192.996 458.414C193.295 484.636 210.425 494.806 227.398 511.656C238.942 523.116 246.128 538.943 234.883 553.655C252.044 514.469 201.255 504.553 192.981 472.555C191.776 467.897 191.974 463.292 191.912 458.543Z" fill="#FFEDE1"/>
<path d="M495.114 458.633C500.855 459.443 516.166 459.237 519.445 460.718L519.596 461.276L518.467 461.808C511.018 459.983 503.773 462.006 494.912 459.651L495.114 458.633Z" fill="#FFEDE1"/>
<path d="M566.124 460.023C562.916 459.934 545.242 460.061 543.557 459.385L544.569 458.783L544.599 459.305L545.085 458.688L545.767 458.663C549.198 458.454 563.873 458.081 566.612 459.348C567.337 459.035 566.918 459.103 567.886 459.344L567.543 459.893L566.124 460.023Z" fill="#828080"/>
<path d="M292.98 546.968C256.437 541.591 270.705 466.814 300.291 459.104C326.219 456.63 333.359 541.431 292.98 546.968ZM302.457 460.357C321.134 475.246 319.83 507.694 312.625 528.33C311.466 531.648 309.567 534.078 308.212 537.138L308.913 537.066C322.23 520.964 324.974 478.955 307.946 462.719C306.499 461.34 304.497 460.446 302.457 460.357ZM297.875 460.896C272.906 473.29 259.608 536.361 290.778 545.576C323.101 545.736 322.639 463.95 297.875 460.896Z" fill="#030202"/>
<path d="M308.913 537.068L308.212 537.14C309.567 534.08 311.466 531.65 312.625 528.332C319.83 507.696 321.134 475.248 302.457 460.359C304.497 460.448 306.499 461.342 307.946 462.721C324.974 478.957 322.23 520.966 308.913 537.068Z" fill="#FFEDE1"/>
<path d="M290.779 545.578C259.609 536.363 272.907 473.292 297.876 460.898C322.64 463.952 323.102 545.738 290.779 545.578Z" fill="#FCF8F1"/>
<path d="M726.707 467.002C727.013 465.489 727.092 465.245 727.664 463.808C729.275 462.437 759.344 462.185 763.252 462.086L764.575 462.917C760.62 466.213 735.565 465.468 729.32 465.622C727.792 465.908 727.897 465.957 726.707 467.002Z" fill="#030202"/>
<path d="M726.707 467.001C727.897 465.956 727.792 465.907 729.32 465.621C728.822 466.128 728.417 466.592 728.297 467.326C726.159 480.311 724.546 493.171 721.932 506.095C727.605 505.561 740.065 503.438 744.898 506.995C748.177 509.408 747.566 517.919 744.604 520.513C738.668 525.784 727.43 523.429 720.167 524.274C718.433 529.696 716.995 539.834 715.914 545.874L729.121 544.633L731.008 545.664C725.518 546.132 719.581 546.503 714.188 547.445C716.358 538.775 716.876 530.332 719.516 521.523C724.241 521.635 741.413 522.831 743.534 519.553C755.276 501.411 725.568 506.976 720.729 507.315C722.591 494.51 725.997 479.961 726.707 467.001Z" fill="#130E0D"/>
<path d="M772.082 471.338C772.224 469.94 772.443 469.794 773.116 468.523C781.431 494.644 811.885 504.986 819.06 531.948C821.217 540.051 819.034 549.579 811.783 554.398L811.265 553.377C836.36 531.349 791.634 502.526 780.46 486.783C776.281 480.895 774.175 478.364 772.082 471.338Z" fill="#030202"/>
<path d="M297.39 558.785C293.993 559.122 290.657 559.416 287.308 559.15C267.814 557.605 258.946 535.745 255.312 519.401C251.739 503.334 255.382 484.588 264.241 471.078L264.694 471.522C260.795 478.614 257.537 488.195 256.48 496.399C253.393 520.358 262.13 553.774 289.808 558.293C291.966 558.646 295.149 558.013 297.729 558.275L297.39 558.785Z" fill="#FFEDE1"/>
<path d="M682.221 485.196C683.634 481.441 685.514 475.991 687.202 472.434C685.98 479.348 681.486 551.347 682.734 552.934C683.966 554.5 686.387 554.809 688.26 554.878C688.952 554.903 689.624 554.822 690.309 554.747L691.231 553.63L692.262 555.578C691.273 556.894 691.27 556.861 689.495 557.479C687.304 558.241 684.585 557.749 682.586 556.703C681.176 555.965 679.849 554.907 679.606 553.225C679.014 549.117 680.103 541.679 680.343 537.978C680.782 531.193 684.429 488.929 683.437 485.746L682.221 485.196Z" fill="#030202"/>
<path d="M659.016 530.642C661.698 526.629 664.442 520.763 666.72 516.38C672.068 506.091 677.022 495.572 682.222 485.195L683.438 485.745C676.877 496.471 672.033 510.694 665.408 521.635C663.651 524.536 662.309 528.263 660.424 531.089L659.016 530.642Z" fill="#130E0D"/>
<path d="M402.207 557.715L401.325 556.801C400.491 553.247 401.073 548.816 401.345 545.168C402.617 528.153 404.225 511.323 403.697 494.233C403.648 492.646 404.066 491.208 404.677 489.75C404.866 489.884 405.075 489.993 405.244 490.151C407.905 492.63 403.91 539.331 403.304 546.519C402.995 550.179 402.127 554.081 402.207 557.715Z" fill="#FFCFD2"/>
<path d="M382.396 524.099C381.248 524.417 378.437 525.27 377.274 524.998C367.483 522.708 362.76 505.825 360.728 497.112C360.464 495.98 361.046 492.023 361.21 490.863C365.622 495.636 363.741 514.385 376.226 522.94C378.513 523.06 380.626 522.723 382.853 523.276L382.396 524.099Z" fill="#FFEDE1"/>
<path d="M360.279 502.605C363.772 513.304 370.679 533.041 384.917 523.975L386.014 524.508C386.597 527.254 381.773 529.454 379.762 531.063C376.43 538.258 377.039 548.54 368.688 551.74C365.018 553.147 355.73 554.602 352.088 553.469C355.368 544.413 358.529 514.085 360.279 502.605Z" fill="#FCF8F1"/>
<path d="M531.779 556.458C528.92 555.602 517.007 558.004 514.998 557.287C507.07 554.457 514.256 529.098 514.349 522.353C514.4 518.732 514.654 514.329 515.442 511.584L516.014 511.578C516.234 514.141 514.875 520.917 514.616 523.963C513.762 532.405 513.487 541.014 512.655 549.445C511.737 558.755 528.122 555.1 534.161 554.598C533.157 555.685 533.12 555.949 531.779 556.458Z" fill="#FFCFD2"/>
<path d="M850.095 521.484C850.759 528.489 849.975 538.602 850.859 544.29L851.29 543.276C851.951 544.259 851.815 544.017 852.251 545.081L852.63 544.314L852.504 544.456L852.606 544.155C852.885 546.615 852.846 548.293 852.814 550.735L852.668 660.254L852.712 695.31C852.734 700.76 853.837 720.113 850.213 724.095C847.095 727.519 831.839 726.768 826.447 726.61L823.927 726.875C818.714 726.372 804.119 727.306 798.282 727.545L753.01 729.33L599.928 736.813C585.901 737.462 571.863 738.617 557.83 739.259C555.601 739.361 552.772 739.614 550.565 739.442L550.81 738.931L550.304 738.438C549.007 738.59 547.796 738.756 546.508 738.945L546.369 738.265C548.056 737.461 550.976 737.504 552.954 737.393L549.305 736.962L552.281 736.508C560.909 736.606 574.815 735.44 583.692 734.961L640.202 732L803.585 724.533C817.233 724.012 831.329 723.719 845.002 723.17C849.54 722.987 849.61 717.825 849.668 714.322C850.012 693.439 849.958 672.503 849.945 651.605L850.061 537.31L850.095 521.484Z" fill="#6C5B06"/>
<path d="M208.872 535.206C206.276 535.269 204.048 535.37 201.479 535.569C199.179 535.747 194.902 536.95 193.02 536.753C196.556 528.067 207.613 524.046 208.872 535.206Z" fill="#FFEDE1"/>
<path d="M256.701 529.848C262.52 544.814 268.292 556.793 285.447 560.485C281.95 564.613 253.122 564.953 248.574 562.415C254.95 550.49 256.63 542.952 256.701 529.848Z" fill="#FCF8F1"/>
<path d="M760.789 536.759C768.607 532.242 778.008 530.983 783.507 539.468L782.158 540.427C778.832 531.537 768.166 534.026 761.77 537.815L760.789 536.759Z" fill="#130E0D"/>
<path d="M220.821 573.394C199.433 574.661 181.633 556.298 191.755 534.375C191.891 535.385 191.196 538.265 190.908 539.406C188.606 548.871 192.158 558.171 199.457 564.433C206.374 570.369 212.589 571.43 221.115 573.214L220.821 573.394Z" fill="#FFEDE1"/>
<path d="M852.586 534.766C852.8 535.598 852.984 537.129 853.573 537.347C859.623 539.588 872.181 538.381 878.634 538.528L879.058 546.632L878.931 547.476C871.729 548.047 861.805 552.456 852.814 550.738C852.846 548.296 852.885 546.618 852.606 544.158L852.586 534.766Z" fill="#FCF8F1"/>
<path d="M841.023 536.738C844.275 537.783 846.655 537.601 850.061 537.31L849.945 651.605C849.958 672.503 850.012 693.439 849.668 714.322C849.61 717.825 849.54 722.987 845.002 723.17C831.329 723.719 817.233 724.012 803.585 724.533L640.202 732L583.692 734.961C574.815 735.44 560.909 736.606 552.281 736.508C554.885 732.837 567.355 726.296 571.689 722.658C578.473 716.964 605.151 698.457 604.59 690.509C614.599 687.991 618.438 683.268 619.158 673.052C619.683 674.733 619.82 674.949 621.431 674.978C626.134 672.696 640.098 657.548 639.122 652.933C640.732 650.983 649.311 644.688 651.911 642.347C652.198 642.714 653.121 643.96 653.736 643.984C692.509 645.503 734.318 646.096 772.95 644.177C781.716 642.954 790.37 640.504 798.653 637.569C816.661 631.458 826.306 615.918 830.943 598.264C831.911 594.579 837.578 572.017 836.794 570.016C835.975 570.089 835.606 570.043 834.808 569.921C841.652 556.442 839.81 551.416 841.023 536.738Z" fill="#98F5E1"/>
<path d="M881.097 538.387C884.587 538.853 890.521 539.951 893.679 540.088C894.686 550.651 896.438 562.067 897.779 572.583C904.293 623.69 915.684 667.16 908.808 719C899.45 789.558 859.21 810.912 795.02 824.285C784.137 826.553 772.801 829.57 761.431 830.64L760.567 830.718C742.152 820.462 720.368 808.91 701.485 800.448C668.994 785.889 631.845 784.604 598.002 794.858C586.186 798.298 574.579 803.062 563.026 807.048C533.569 817.208 513.829 814.394 487.089 799.221C479.965 795.178 476.448 792.997 470.207 787.528C463.881 780.542 444.765 768.045 442.297 763.429C448.018 762.704 455.61 762.511 461.521 762.199L495.037 760.503C511.903 759.701 528.849 758.825 545.698 757.885C586.154 755.63 626.503 758.042 666.963 758.477C676.172 758.576 685.639 759.173 694.823 758.95C700.724 759.623 709.079 759.716 715.148 759.959L754.306 761.444L801.684 762.964C813.69 763.407 830.692 764.683 842.098 762.93C852.921 761.267 866.856 753.757 873.187 744.574C877.153 738.821 879.036 733.049 879.953 726.102C882.083 709.711 882.18 693.248 882.535 676.736C883.397 636.613 882.904 596.413 882.099 556.291C881.994 551.057 881.871 544.116 881.056 539.127L881.097 538.387Z" fill="#B9FBC0"/>
<path d="M881.056 539.125C881.871 544.114 881.994 551.055 882.099 556.289C882.904 596.411 883.397 636.611 882.535 676.734C882.18 693.246 882.083 709.709 879.953 726.1C879.036 733.047 877.153 738.819 873.187 744.572C866.856 753.755 852.921 761.265 842.098 762.928C830.692 764.681 813.69 763.405 801.684 762.962L754.306 761.442L715.148 759.957C709.079 759.714 700.724 759.621 694.823 758.948C694.043 758.047 694.066 758.359 692.548 757.891L692.232 758.169L692.269 757.863L693.192 757.719L693.482 758.086C695.827 758.054 698.084 757.519 700.281 756.745L700.834 756.545C713.869 756.576 822.9 762.028 825.8 760.563L826.263 759.614L826.851 760.899C827.453 761.01 827.776 761.124 828.372 761.094C831.852 760.43 836.829 760.153 840.505 759.844C855.484 758.586 873.641 745.937 876.349 730.357C878.895 712.387 879.547 693.437 879.643 675.254C879.865 633.06 880.858 589.586 878.931 547.474L879.058 546.63C881.423 544.068 880.956 542.949 881.056 539.125Z" fill="#6C5B06"/>
<path d="M782.157 540.428L783.506 539.469C785.223 548.173 780.762 546.909 775.511 550.051L774.443 551.221C773.079 549.686 772.758 549.297 772.615 547.487C775.611 543.965 779.063 547.608 782.157 540.428Z" fill="#030202"/>
<path d="M896.97 540.699C901.576 543.236 907.623 548.444 911.455 552.12C916.553 557.204 921.531 567.251 924.68 573.796C943.426 612.757 947.285 658.169 945.727 700.859C944.987 721.126 942.867 741.804 939.673 761.795C931.945 804.513 914.94 861.871 881.355 891.616C842.11 926.374 790.819 936.183 739.751 933.617C676.792 930.454 605.905 914.776 554.959 875.729C537.841 862.609 517.111 839.477 502.561 823.376C509.867 827.76 515.678 832.373 523.636 836.802C555.02 854.27 593.86 867.799 630.052 860.928C648.405 857.444 667.213 849.957 685.54 845.566C702.865 841.415 719.35 839.493 737.024 837.472C744.972 836.562 752.944 835.007 761.016 834.078C765.565 836.848 771.86 839.328 776.809 841.386C791.662 847.627 805.559 851.803 821.858 849.937C861.436 845.409 880.986 812.93 895.177 779.523C911.435 741.485 917.899 696.449 912.382 655.276C907.252 616.995 901.263 579.366 896.97 540.699Z" fill="#B9FBC0"/>
<path d="M852.814 550.735C861.805 552.453 871.729 548.044 878.931 547.473C880.858 589.585 879.865 633.059 879.643 675.253C879.547 693.436 878.895 712.386 876.349 730.356C873.641 745.936 855.484 758.585 840.505 759.843C836.829 760.152 831.852 760.429 828.372 761.093C828.872 751.485 826.737 736.958 826.447 726.61C831.839 726.768 847.095 727.519 850.213 724.095C853.837 720.113 852.734 700.76 852.712 695.31L852.668 660.254L852.814 550.735Z" fill="#98F5E1"/>
<path d="M775.511 550.051C783.629 556.465 802.344 558.804 811.265 553.376L811.783 554.397C802.637 560.551 783.33 556.914 774.443 551.221L775.511 550.051Z" fill="#130E0D"/>
<path d="M586.594 553.709C585.693 554.803 585.5 555.461 584.017 555.787C579.634 556.751 573.37 557.118 569.397 554.811C568.204 554.118 568.14 552.604 567.893 551.41C575.144 558.769 583.752 552.54 586.594 553.709Z" fill="#FFEDE1"/>
<path d="M418.895 553.609L419.505 554.11C419.12 555.209 419.231 554.867 418.433 555.82C414.122 557.91 407.774 558.223 403.045 557.776C403.094 557.128 402.958 557.451 403.92 557.144C408.279 555.753 415.85 557.122 418.895 553.609Z" fill="#FFEDE1"/>
<path d="M616.71 556.791C613.331 557.743 605.879 558.853 602.71 556.969C602.005 556.55 602.228 555.863 602.166 555.008C608.997 558.052 611.425 555.416 616.671 556.114L616.71 556.791Z" fill="#FFEDE1"/>
<path d="M467.075 558.761L466.707 558.326C468.092 557.204 482.307 556.645 485.425 556.285L485.679 556.689C482.966 558.197 470.758 558.564 467.075 558.761Z" fill="#B6B3B5"/>
<path d="M463.976 557.96L465.549 557.676L465.995 558.193C464.851 559.164 465.499 558.832 463.898 558.932L463.976 557.96Z" fill="#5E5F57"/>
<path d="M453.838 558.437C457.176 558.122 460.62 558.07 463.977 557.961L463.899 558.933C457.767 559.111 438.274 561.044 433.74 559.439C436.317 558.812 449.775 558.698 453.838 558.437Z" fill="#B6B3B5"/>
<path d="M375.833 595.009C377.261 594.461 379.164 593.902 380.655 593.415C391.43 590.65 394.457 591.611 405.355 593.678C415.914 564.635 440.033 551.972 427.657 594.73L426.897 596.786L425.805 595.777C427.38 591.518 431.058 572.743 427.595 569.518L426.448 569.632C424.844 571.058 425.657 571.633 426.821 574.784C429.001 580.678 426.115 590.06 424.328 595.966L423.128 597.576C421.944 598.585 422.246 598.548 421.676 599.756C417.237 609.16 408.39 616.141 402.16 624.935L401.649 625.645C407.384 621.166 419.869 606.037 423.562 599.845C426.291 600.194 429.362 601.033 431.62 599.685L432.512 600.405C430.704 603.475 428.338 602.201 424.934 602.088C419.168 609.148 406.369 626.323 398.92 629.683C397.734 634.865 397.154 638.811 396.44 644.026C395.405 653.359 393.094 667.533 400.757 674.448L399.395 675.943C393.38 668.612 394.068 662.163 393.885 653.169C394.633 649.032 397.956 627.052 397.815 624.366L398.9 623.118C399.78 623.457 399.271 623.326 400.451 623.408C402.121 618.189 402.818 613.389 404.858 607.845C406.425 603.589 407.274 602.873 408.804 599.419L408.173 598.723L407.324 598.764C402.923 604.087 402.057 616.257 398.955 622.376L398.028 621.372C398.201 619.293 398.78 617.452 397.799 615.584C399.352 609.93 402.074 603.569 403.915 597.671C381.439 593.637 368.65 598.846 354.451 615.976C358.207 606.379 364.341 600.907 373.366 596.129L373.834 596.836C376.917 596.542 379.263 595.353 382.249 594.976C390.502 593.933 397.5 594.449 405.615 595.776C408.875 596.624 416.117 598.586 419.454 598.307C414.683 597.018 410.816 595.692 405.894 594.98C394.438 592.231 387.071 593.19 375.833 595.009ZM424.595 568.888C419.647 573.781 409.656 587.478 409.088 593.642C410.074 594.346 409.564 594.123 410.581 594.389C413.103 585.967 418.377 575.441 425.132 569.686L425 569.088L424.595 568.888ZM424.347 572.209C421.429 576.55 411.939 590.219 412.685 594.794C413.337 595.029 413.849 595.293 414.495 595.335C416.683 595.691 419.406 596.349 421.493 595.947C425.784 592.736 427.881 577.639 425.461 572.832L424.347 572.209ZM410.848 599.402C406.866 605.788 403.794 615.222 401.663 622.544L406.432 616.921C411.593 611.259 415.356 607.03 419.862 600.728L410.848 599.402Z" fill="#130E0D"/>
<path d="M410.581 594.388C409.564 594.122 410.074 594.345 409.088 593.641C409.656 587.477 419.647 573.78 424.595 568.887L425 569.087L425.132 569.685C418.377 575.44 413.103 585.966 410.581 594.388Z" fill="#9C948A"/>
<path d="M424.328 595.964C426.115 590.058 429.001 580.676 426.821 574.782C425.657 571.631 424.844 571.056 426.448 569.63L427.595 569.516C431.058 572.741 427.38 591.516 425.805 595.775L424.328 595.964Z" fill="#FFEDE1"/>
<path d="M834.807 569.922C835.605 570.044 835.974 570.09 836.793 570.017C837.577 572.018 831.91 594.58 830.942 598.265C826.305 615.919 816.66 631.459 798.652 637.57C790.369 640.505 781.715 642.955 772.949 644.178C734.317 646.097 692.508 645.504 653.735 643.985C653.12 643.961 652.197 642.715 651.91 642.348C656.18 637.172 657.511 635.788 659.886 629.69C654.22 635.307 651.242 639.849 644.603 644.749C639.069 643.995 619.643 645.605 611.713 645.464L609.191 634.604C609.169 634.409 609.147 634.213 609.125 634.017C607.428 628.506 618.182 617.369 613.202 612.63C608.213 611.694 605.406 618.291 604.881 622.289C604.391 626.019 605.063 629.264 605.639 632.925C602.22 637.734 598.882 642.656 595.107 647.178C590.463 645.224 564.58 646.87 556.693 643.108C562.636 638.177 574.756 627.279 574.156 618.502C573.931 615.206 569.749 614.514 567.155 615.604C556.494 620.086 549.381 632.338 544.328 642.163C537.959 641.62 522.442 643.225 517.959 640.812C519.185 636.631 520.294 632.59 521.392 628.373C522.121 624.403 522.242 616.633 516.664 616.242C508.357 615.661 501.195 628.044 498.324 634.576L496.628 638.567C495.527 637.752 495.094 637.818 493.732 637.591C494.195 633.068 495.659 621.431 487.152 625.703C482.293 629.871 474.665 639.149 472.194 644.807L471.841 644.895C470.141 643.624 468.024 643.055 465.993 642.57C468.546 633.005 474.437 615.337 469.828 605.644C467.337 600.405 460.021 600.548 456.056 603.833C446.887 610.707 441.699 622.497 437.24 632.761C435.602 636.664 436.419 642.54 432.283 646.424C432.63 645.293 433.747 642.121 433.485 641.295L432.528 643.213C422.723 642.401 406.094 645.258 396.439 644.025C397.153 638.81 397.733 634.864 398.919 629.682C406.368 626.322 419.167 609.147 424.933 602.087C428.337 602.2 430.703 603.474 432.511 600.404C433.307 598.34 433.38 599.247 432.932 597.538C431.433 596.485 428.857 596.789 426.896 596.785L427.656 594.729C431.068 595.595 435.871 595.526 439.399 595.349C467.787 593.77 497.106 591.19 525.511 592.408C553.649 593.765 581.955 594.731 610.136 594.516C642.034 593.394 674.816 597.033 706.567 596.11C748.163 594.901 806.661 608.038 834.807 569.922Z" fill="#8EECF5"/>
<path d="M414.494 595.333C413.848 595.291 413.336 595.027 412.684 594.792C411.938 590.217 421.428 576.548 424.346 572.207L425.46 572.83C427.88 577.637 425.783 592.734 421.492 595.945C419.405 596.347 416.682 595.689 414.494 595.333Z" fill="#D5DEF8"/>
<path d="M177.129 574.215C192.551 583.033 225.101 583.747 243.2 584.914C284.817 587.598 327.1 587.292 368.613 591.744C372.125 592.121 378.067 591.466 380.655 593.416C379.164 593.903 377.261 594.462 375.833 595.01C374.435 595.505 374.593 595.367 373.366 596.13C364.341 600.908 358.207 606.38 354.451 615.977C368.65 598.847 381.439 593.638 403.915 597.672C402.074 603.57 399.352 609.931 397.799 615.585C395.208 624.359 392.65 637.281 391.276 646.391C381.68 641.418 274.589 660.204 256.045 661.833C229.919 664.127 203.816 664.772 176.727 663.988C176.916 660.197 176.981 656.482 177.032 652.689C177.389 626.515 177.538 600.389 177.129 574.215Z" fill="#8EECF5"/>
<path d="M373.365 596.129C374.592 595.366 374.434 595.504 375.832 595.009C387.07 593.19 394.437 592.231 405.893 594.98L405.614 595.776C397.499 594.449 390.501 593.933 382.248 594.976C379.262 595.353 376.916 596.542 373.833 596.836L373.365 596.129Z" fill="#9C948A"/>
<path d="M405.894 594.98C410.816 595.692 414.683 597.018 419.454 598.307C416.117 598.586 408.875 596.624 405.615 595.776L405.894 594.98Z" fill="#C0B49B"/>
<path d="M423.129 597.576L424.329 595.966L425.806 595.777L426.898 596.786C428.859 596.79 431.435 596.486 432.934 597.539C433.382 599.248 433.309 598.341 432.513 600.405L431.621 599.685C427.712 597.409 426.82 599.981 423.129 597.576Z" fill="#030202"/>
<path d="M401.648 625.643L402.159 624.933C408.389 616.139 417.236 609.158 421.675 599.754C422.245 598.546 421.943 598.583 423.127 597.574C426.818 599.979 427.71 597.407 431.619 599.683C429.361 601.031 426.29 600.192 423.561 599.843C419.868 606.035 407.383 621.164 401.648 625.643Z" fill="#D7C591"/>
<path d="M398.955 622.376C402.057 616.257 402.923 604.087 407.324 598.764L408.173 598.723L408.804 599.419C407.274 602.873 406.425 603.589 404.858 607.845C402.818 613.389 402.121 618.189 400.451 623.408C399.271 623.326 399.78 623.457 398.9 623.118L398.955 622.376Z" fill="#FDE4CF"/>
<path d="M401.662 622.544C403.793 615.222 406.865 605.788 410.847 599.402L419.861 600.728C415.355 607.03 411.592 611.259 406.431 616.921L401.662 622.544Z" fill="#8EECF5"/>
<path d="M464.654 641.062C467.177 631.771 470.937 618.978 468.978 609.22C467.185 600.291 458.831 604.833 454.936 609.238C446.093 618.336 440.586 630.014 437.59 642.242C436.36 647.714 433.271 668.715 440.846 670.714C444.933 670.369 448.808 665.185 451.215 662.08C454.935 657.281 459.357 652.395 462.811 647.462L464.556 648.036C464.116 651.266 463.857 651.52 461.415 653.78L461.372 654.469C457.996 659.453 446.006 675.976 439.052 673.977C429.186 671.14 432.171 657.384 433.431 649.951L432.996 650.122C432.078 649.422 431.944 649.301 431.172 648.444C431.25 646.975 431.033 647.682 432.285 646.425C436.421 642.541 435.604 636.665 437.242 632.762C441.701 622.498 446.889 610.708 456.058 603.834C460.023 600.549 467.339 600.406 469.83 605.645C474.439 615.338 468.548 633.006 465.995 642.571L464.654 641.062ZM433.316 654.258C432.034 658.274 433.497 665.22 435.469 668.83C435.157 666.496 434.032 655.547 433.316 654.258Z" fill="#1C0600"/>
<path d="M464.654 641.062L464.479 641.542C463.97 641.963 463.35 642.475 462.618 643.079C456.031 643.805 444.049 642.666 437.59 642.242C440.586 630.014 446.093 618.336 454.936 609.238C458.831 604.833 467.185 600.291 468.978 609.22C470.937 618.978 467.177 631.771 464.654 641.062Z" fill="#8EECF5"/>
<path d="M607.328 634.418C606.958 628.632 605.169 617.28 611.877 614.7L611.638 614.122C603.38 615.686 606.385 629.83 606.778 635.338C608.723 644.98 611.624 653.86 613.473 662.668C613.296 663.852 613.115 664.973 612.904 666.155C606.56 667.856 600.477 669.042 596.601 675.037C593.452 679.909 596.601 685.127 601.111 687.765L600.608 688.612C599.69 688.174 598.22 687.166 597.309 686.587L596.929 686.121C593.078 681.315 593.63 679.55 594.952 673.782C589.647 676.462 593.872 685.062 597.313 687.861L599.247 689.288L598.571 689.982C593.016 687.219 588.716 679.829 592.525 674.049C596.715 667.689 605.612 664.822 612.674 663.011C609.898 653.814 607.95 644.219 605.552 634.899C598.979 651.495 577.217 673.533 559.901 679.25C549.054 682.831 543.394 677.959 540.992 667.75C543.741 670.999 544.219 677.1 548.883 678.709L549.293 678.104C548.828 676.686 548.343 676.578 547.094 675.696C546.889 674.889 546.743 674.352 546.604 673.528C560.969 684.32 587.253 657.438 595.108 647.177C598.883 642.655 602.221 637.733 605.64 632.924C605.064 629.263 604.392 626.018 604.882 622.288C605.407 618.29 608.214 611.693 613.203 612.629C618.183 617.368 607.429 628.505 609.126 634.016C609.148 634.212 609.17 634.408 609.192 634.603L607.669 635.06L607.328 634.418ZM611.455 615.779C608.318 619.546 607.817 622.222 608.24 627.146L608.743 627.357L608.933 627.168C610.509 624.184 613.125 620.231 612.614 616.982C612.093 616.304 612.12 616.135 611.455 615.779Z" fill="#130E0D"/>
<path d="M607.328 634.417L606.778 635.337C606.385 629.829 603.38 615.685 611.638 614.121L611.877 614.699C605.169 617.279 606.958 628.631 607.328 634.417Z" fill="#9A783A"/>
<path d="M516.973 625.543L517.938 625.947C517.25 629.215 516.604 632.594 515.702 635.803C515.016 639.048 500.966 686.605 516.465 677.053L516.803 676.511L515.916 675.102C523.315 671.35 534.958 656.883 540.58 650.007C541.455 648.937 543.669 643.717 544.329 642.163C549.382 632.338 556.495 620.086 567.156 615.604C569.75 614.514 573.932 615.206 574.157 618.502C574.757 627.279 562.637 638.177 556.694 643.108C553.813 645.352 546.008 651.119 543.977 653.167C542.852 659.396 542.691 662.794 544.61 669.032C544.982 670.244 546.49 673.093 546.604 673.529C546.743 674.353 546.889 674.89 547.094 675.697C548.343 676.579 548.828 676.687 549.293 678.105L548.883 678.71C544.219 677.101 543.741 671 540.992 667.751C540.34 664.21 540.244 660.813 540.049 657.222C535.245 661.692 518.132 683.548 510.542 680.263C501.559 676.375 510.015 649.847 512.43 641.98C513.227 637.866 515.821 630.944 516.973 625.543ZM568.961 616.868C558.546 623.478 551.506 634.697 546.747 645.857L546.959 646.367L547.781 645.926C552.364 642.443 573.864 624.125 570.684 617.582C569.961 617.234 569.734 617.064 568.961 616.868Z" fill="#1C0600"/>
<path d="M397.8 615.582C398.781 617.45 398.202 619.291 398.029 621.37L398.956 622.374L398.901 623.116L397.816 624.364C395.633 632.201 393.695 644.805 393.456 653.055C392.032 658.968 392.574 673.217 399.396 675.941L400.758 674.446C411.113 675.378 427.952 651.684 432.53 643.212L433.487 641.294C433.749 642.12 432.632 645.292 432.285 646.423C431.033 647.68 431.25 646.973 431.172 648.442C431.944 649.299 432.078 649.42 432.996 650.12C422.198 660.724 416.652 675.463 401.048 678.713C387.383 674.914 390.213 657.481 391.277 646.388C392.651 637.278 395.209 624.356 397.8 615.582Z" fill="#030202"/>
<path d="M516.972 625.543C516.919 623.081 517.032 622.759 515.985 620.623C510.444 616.396 502.212 632.005 500.499 636.157L498.324 634.576C501.195 628.044 508.357 615.661 516.664 616.242C522.242 616.633 522.121 624.403 521.392 628.373L518.853 628.103C519.332 624.943 519.798 621.528 517.153 619.21L516.798 619.459C517.687 622.104 518.05 623.092 517.937 625.947L516.972 625.543Z" fill="url(#paint3_linear_2293_69135)"/>
<path d="M608.934 627.17L608.744 627.359L608.241 627.148C607.818 622.224 608.319 619.548 611.456 615.781C612.121 616.137 612.094 616.306 612.615 616.984C613.126 620.233 610.51 624.186 608.934 627.17Z" fill="#98F5E1"/>
<path d="M547.78 645.925L546.958 646.366L546.746 645.856C551.505 634.696 558.545 623.477 568.96 616.867C569.733 617.063 569.96 617.233 570.683 617.581C573.863 624.124 552.363 642.442 547.78 645.925Z" fill="#8EECF5"/>
<path d="M517.937 625.948C518.05 623.093 517.687 622.105 516.798 619.46L517.153 619.211C519.798 621.529 519.332 624.944 518.853 628.104L516.441 637.089L515.701 635.804C516.603 632.595 517.249 629.216 517.937 625.948Z" fill="#F5B289"/>
<path d="M500.5 636.156C502.213 632.004 510.445 616.395 515.986 620.622C517.033 622.758 516.92 623.08 516.973 625.542C515.821 630.943 513.227 637.865 512.43 641.979C508.604 641.096 503.292 641.862 498.533 641.028L500.5 636.156Z" fill="#8EECF5"/>
<path d="M397.815 624.363C397.956 627.049 394.633 649.029 393.885 653.166L393.455 653.054C393.694 644.804 395.632 632.2 397.815 624.363Z" fill="#7E583F"/>
<path d="M487.153 625.704C495.66 621.432 494.196 633.069 493.733 637.592C492.843 642.645 491.206 649.485 489.75 654.362C488.824 657.221 486.514 662.991 487.429 665.731L485.717 666.688C484.253 663.555 489.623 647.133 490.109 639.972C490.453 636.249 491.346 630.991 488.745 628.142L488.469 627.78C489.028 626.981 488.761 627.387 489.269 626.563L489.152 626.323C488.229 626.092 488.564 626.199 487.718 625.905L487.153 625.704ZM490.817 627.162C492.907 633.294 490.449 639.614 491.668 641.079C492.561 636.899 494.776 630.179 490.817 627.162Z" fill="#130E0D"/>
<path d="M472.195 644.807C474.666 639.149 482.294 629.871 487.153 625.703L487.718 625.904C488.564 626.198 488.229 626.091 489.152 626.322L489.269 626.562C488.761 627.386 489.028 626.98 488.469 627.779L488.745 628.141C485.652 631.599 482.195 635.266 479.501 638.989L474.296 647.047C473.599 646.266 472.922 645.56 472.195 644.807Z" fill="#1C0600"/>
<path d="M491.667 641.077C490.448 639.612 492.906 633.292 490.816 627.16C494.775 630.177 492.56 636.897 491.667 641.077Z" fill="#7E583F"/>
<path d="M516.443 637.087L518.855 628.102L521.394 628.372C520.296 632.589 519.187 636.63 517.961 640.811C515.819 648.409 510.093 667.407 513.477 674.234C514.855 675.264 514.087 674.938 515.917 675.101L516.804 676.51C506.646 678.936 511.173 661.709 512.132 656.485C513.31 650.07 514.903 643.433 516.443 637.087Z" fill="#030202"/>
<path d="M488.746 628.141C491.347 630.99 490.454 636.248 490.11 639.971C486.514 639.754 483.051 639.628 479.502 638.989C482.196 635.266 485.653 631.599 488.746 628.141Z" fill="#8EECF5"/>
<path d="M651.912 642.349C649.312 644.69 640.733 650.985 639.123 652.935L638.614 652.981L636.424 651.166C639.439 648.958 641.812 647.217 644.605 644.75C651.244 639.85 654.222 635.308 659.888 629.691C657.513 635.789 656.182 637.173 651.912 642.349Z" fill="#1C0600"/>
<path d="M606.777 635.338L607.327 634.418L607.668 635.06C608.671 641.725 610.437 647.796 612.12 654.315C612.885 657.277 614.072 659.862 614.45 662.866L614.058 663.26L613.472 662.668C611.623 653.86 608.722 644.98 606.777 635.338Z" fill="#9C948A"/>
<path d="M607.668 635.062L609.191 634.605L611.713 645.465C613.076 650.043 615.375 657.036 616.411 661.497C625.263 658.617 628.663 656.448 636.422 651.166L638.612 652.981C630.432 658.648 626.387 660.473 617.855 665.024C618.315 667.609 618.901 670.464 619.157 673.054C618.437 683.27 614.598 687.993 604.589 690.511C601.772 690.562 601.236 690.657 598.57 689.984L599.246 689.29L600.607 688.614L601.11 687.767C604.998 688.524 605.875 688.62 609.449 686.995C616.312 683.94 619.255 669.675 615.365 665.74L614.814 666.305L613.59 666.896L612.903 666.157C613.114 664.975 613.295 663.854 613.472 662.67L614.058 663.262L614.45 662.868C614.072 659.864 612.885 657.279 612.12 654.317C610.437 647.798 608.671 641.727 607.668 635.062Z" fill="#030202"/>
<path d="M498.325 634.574L500.5 636.155L498.533 641.027C496.571 646.324 491.547 664.617 488.698 666.799C487.154 667.073 487.255 667.048 485.717 666.685L487.429 665.728C488.126 664.829 489.707 657.354 490.476 654.993C492.488 648.758 494.199 644.544 496.629 638.565L498.325 634.574Z" fill="#030202"/>
<path d="M516.804 676.513L516.466 677.055C500.967 686.607 515.017 639.05 515.703 635.805L516.443 637.09C514.903 643.436 513.31 650.073 512.132 656.488C511.173 661.712 506.646 678.939 516.804 676.513Z" fill="#C79A55"/>
<path d="M479.501 638.987C483.05 639.626 486.513 639.752 490.109 639.969C489.623 647.13 484.253 663.552 485.717 666.685C487.255 667.048 487.154 667.073 488.698 666.799C491.547 664.617 496.571 646.324 498.533 641.027C503.292 641.861 508.604 641.095 512.43 641.978C510.015 649.845 501.559 676.373 510.542 680.261C518.132 683.546 535.245 661.69 540.049 657.22C540.244 660.811 540.34 664.208 540.992 667.749C543.394 677.958 549.054 682.83 559.901 679.249C577.217 673.532 598.979 651.494 605.552 634.898C607.95 644.218 609.898 653.813 612.674 663.01C605.612 664.821 596.715 667.688 592.525 674.048C588.716 679.828 593.016 687.218 598.571 689.981C601.237 690.654 601.773 690.559 604.59 690.508C605.151 698.456 578.473 716.963 571.689 722.657C567.355 726.295 554.885 732.836 552.281 736.507L549.305 736.961C545.558 737.122 534.425 737.38 531.3 737.931C528.333 737.888 525.069 738.165 522.085 738.275C504.456 738.92 486.823 740.405 469.21 741.196L296.05 749.66L245.895 752.436C234.262 753.09 223.299 753.816 211.545 753.793C200.389 754.227 192.776 751.634 184.867 743.861C172.549 731.756 175.843 712.254 176.178 696.108L176.727 663.984C203.816 664.768 229.919 664.123 256.045 661.829C274.589 660.2 381.68 641.414 391.276 646.387C390.212 657.48 387.382 674.913 401.047 678.712C416.651 675.462 422.197 660.723 432.995 650.119L433.43 649.948C432.17 657.381 429.185 671.137 439.051 673.974C446.005 675.973 457.995 659.45 461.371 654.466C461.521 659 457.128 667.863 459.544 671.671C461 672.444 460.887 672.484 462.502 672.265C465.141 670.53 468.658 657.609 470.662 654.027C471.608 652.336 473.101 649.134 474.296 647.045L479.501 638.987Z" fill="#D5DEF8"/>
<path d="M489.75 654.36C491.206 649.483 492.843 642.643 493.733 637.59C495.095 637.817 495.528 637.751 496.629 638.566C494.199 644.545 492.488 648.759 490.476 654.994L489.75 654.36Z" fill="#C79A55"/>
<path d="M107.427 644.023L106.296 643.496C105.218 641.84 105.286 640.358 105.08 638.363C107.294 640.079 107.249 641.405 107.427 644.023Z" fill="#FBF8CC"/>
<path d="M464.479 641.543L464.654 641.062L465.995 642.572C465.41 644.366 464.712 646.172 464.556 648.036L462.811 647.463C463.758 645.301 463.985 643.827 464.479 641.543Z" fill="#391806"/>
<path d="M517.96 640.812C522.443 643.226 537.959 641.621 544.328 642.164C543.668 643.718 541.455 648.938 540.58 650.008C534.958 656.884 523.315 671.35 515.916 675.102C514.086 674.939 514.854 675.265 513.476 674.235C510.092 667.408 515.818 648.411 517.96 640.812Z" fill="#FFEDE1"/>
<path d="M437.588 642.239C444.047 642.663 456.029 643.802 462.616 643.076C463.348 642.472 463.968 641.96 464.477 641.539C463.983 643.823 463.756 645.297 462.809 647.459C459.355 652.392 454.933 657.278 451.213 662.077C448.806 665.182 444.931 670.366 440.844 670.711C433.269 668.712 436.358 647.711 437.588 642.239Z" fill="#D5DEF8"/>
<path d="M465.994 642.57C468.025 643.055 470.142 643.624 471.842 644.895C466.902 652.841 463.099 660.805 461.272 670.011C461.222 667.242 461.326 666.324 461.641 663.678C462.076 660.023 466.393 650.785 464.555 648.035C464.711 646.171 465.409 644.364 465.994 642.57Z" fill="#FDE4CF"/>
<path d="M396.44 644.026C406.095 645.259 422.724 642.402 432.529 643.214C427.951 651.686 411.112 675.38 400.757 674.448C393.094 667.533 395.405 653.359 396.44 644.026Z" fill="#D5DEF8"/>
<path d="M543.976 653.168C546.007 651.12 553.812 645.353 556.693 643.109C564.58 646.871 590.463 645.225 595.107 647.179C587.252 657.44 560.968 684.322 546.603 673.53C546.489 673.094 544.981 670.245 544.609 669.033C542.69 662.795 542.851 659.397 543.976 653.168Z" fill="#D5DEF8"/>
<path d="M471.841 644.897L472.194 644.809C472.921 645.562 473.598 646.268 474.295 647.049C473.1 649.138 471.607 652.34 470.661 654.031C468.657 657.613 465.14 670.534 462.501 672.269C460.886 672.488 460.999 672.448 459.543 671.675C457.127 667.867 461.52 659.004 461.37 654.47L461.413 653.781C463.855 651.521 464.114 651.267 464.554 648.037C466.392 650.787 462.075 660.025 461.64 663.68C461.325 666.326 461.221 667.244 461.271 670.013C463.098 660.807 466.901 652.843 471.841 644.897Z" fill="url(#paint4_linear_2293_69135)"/>
<path d="M611.715 645.464C619.645 645.605 639.071 643.995 644.605 644.749C641.812 647.216 639.439 648.957 636.424 651.165C628.665 656.447 625.265 658.616 616.413 661.496C615.377 657.035 613.078 650.042 611.715 645.464Z" fill="#FCF8F1"/>
<path d="M393.456 653.055L393.886 653.167C394.069 662.161 393.381 668.61 399.396 675.941C392.574 673.217 392.032 658.968 393.456 653.055Z" fill="#9A783A"/>
<path d="M638.612 652.98L639.121 652.934C640.097 657.549 626.133 672.697 621.43 674.979C619.819 674.95 619.682 674.734 619.157 673.053C618.901 670.463 618.315 667.608 617.855 665.023C626.387 660.472 630.432 658.647 638.612 652.98Z" fill="#FCF8F1"/>
<path d="M487.429 665.728C486.514 662.988 488.824 657.218 489.75 654.359L490.476 654.993C489.707 657.354 488.126 664.829 487.429 665.728Z" fill="#6B470E"/>
<path d="M435.468 668.83C433.496 665.22 432.033 658.274 433.315 654.258C434.031 655.547 435.156 666.496 435.468 668.83Z" fill="#6B470E"/>
<path d="M155.569 662.492C164.109 661.713 167.632 664.116 174.533 664.007C174.338 682.048 173.786 700.13 173.498 718.126C173.325 728.905 175.991 738.831 183.938 746.403C193.4 755.418 202.391 756.156 214.66 756.038C213.705 763.12 212.349 770.671 211.257 777.81C195.565 777.343 180.955 773.485 169.839 761.845C144.43 735.239 154.936 695.518 155.569 662.492Z" fill="url(#paint5_linear_2293_69135)"/>
<path d="M614.814 666.303L615.365 665.738C619.255 669.673 616.312 683.938 609.449 686.993L609.279 685.902L610.18 685.394C616.221 680.641 615.561 672.998 614.814 666.303Z" fill="#FDE4CF"/>
<path d="M612.903 666.156L613.59 666.895C614.312 675.102 614.606 678.038 610.18 685.395L609.279 685.903L609.449 686.994C605.875 688.619 604.998 688.523 601.11 687.766C596.6 685.128 593.451 679.91 596.6 675.038C600.476 669.043 606.559 667.857 612.903 666.156Z" fill="#FFEDE1"/>
<path d="M613.592 666.896L614.816 666.305C615.563 673 616.223 680.643 610.182 685.396C614.608 678.039 614.314 675.103 613.592 666.896Z" fill="#130E0D"/>
<path d="M597.314 687.86C593.873 685.061 589.648 676.461 594.953 673.781C593.631 679.549 593.079 681.314 596.93 686.12L597.31 686.586L597.314 687.86Z" fill="#C0B49B"/>
<path d="M597.309 686.59C598.22 687.169 599.69 688.177 600.608 688.615L599.247 689.291L597.313 687.864L597.309 686.59Z" fill="#5E5F57"/>
<path d="M69.902 694.407C68.1769 691.5 72.2467 688.782 74.3349 686.844L74.9947 687.435C75.5191 690.48 72.3253 693.151 69.902 694.407Z" fill="#F6E57E"/>
<path d="M119.887 694.762C117.708 693.516 115.681 690.286 115.549 687.762C118.978 688.909 119.837 691.366 119.887 694.762Z" fill="#FBF8CC"/>
<path d="M550.565 739.444C552.772 739.616 555.601 739.363 557.83 739.261C571.863 738.619 585.901 737.464 599.928 736.815L753.01 729.332L798.282 727.547C804.119 727.308 818.714 726.374 823.927 726.877C824.102 735.133 825.2 751.379 826.263 759.615L825.8 760.564C822.9 762.029 713.869 756.577 700.834 756.546C691.461 755.948 681.639 755.623 672.251 755.505C627.377 754.94 582.493 752.343 537.659 755.411C528.854 756.013 519.945 756.432 511.117 756.971C514.438 751.697 537.703 748.35 543.068 740.026C545.158 739.692 548.367 739.587 550.565 739.444Z" fill="#98F5E1"/>
<path d="M142.339 732.713C139.815 731.908 138.81 728.95 137.676 726.703C140.811 727.246 141.732 730.012 142.339 732.713Z" fill="#F6E57E"/>
<path d="M823.928 726.874L826.448 726.609C826.738 736.957 828.873 751.484 828.373 761.092C827.777 761.122 827.454 761.008 826.852 760.897L826.264 759.612C825.201 751.376 824.103 735.13 823.928 726.874Z" fill="#6B470E"/>
<path d="M91.901 739.954L91.2944 739.12C91.0163 735.987 93.3211 733.821 95.2833 731.332C96.0955 732.128 95.7423 731.683 96.0584 732.974C95.4309 736.006 94.0633 737.776 91.901 739.954Z" fill="#F6E57E"/>
<path d="M531.301 737.935C534.426 737.384 545.559 737.126 549.306 736.965L552.955 737.396C550.977 737.507 548.057 737.464 546.37 738.268L546.509 738.948C547.797 738.759 549.008 738.593 550.305 738.441L550.811 738.934L550.566 739.445C548.368 739.588 545.159 739.693 543.069 740.027L540.28 739.924L539.351 738.382C537.218 737.726 533.977 738.092 531.301 737.935Z" fill="#391806"/>
<path d="M216.685 755.985C275.44 753.943 334.236 749.522 392.953 746.794C442.118 744.509 491.11 742.818 540.279 739.922L543.068 740.025C537.703 748.349 514.438 751.696 511.117 756.97C465.937 758.787 420.72 762.082 375.563 764.475C371.771 764.676 367.719 764.87 363.958 765.279C357.41 765.714 326.216 767.227 321.596 768.799C297.617 770.527 273.476 773.082 249.497 774.927C237.747 775.831 225.135 777.309 213.436 777.653C214.539 772.325 216.138 761.309 216.685 755.985Z" fill="url(#paint6_linear_2293_69135)"/>
<path d="M511.116 756.971C519.944 756.432 528.853 756.013 537.658 755.411C582.492 752.343 627.376 754.94 672.25 755.505C681.638 755.623 691.46 755.948 700.833 756.546L700.28 756.746C698.083 757.52 695.826 758.055 693.481 758.087L693.191 757.72L692.268 757.864L692.231 758.17L692.547 757.892C694.065 758.36 694.042 758.048 694.822 758.949C685.638 759.172 676.171 758.575 666.962 758.476C626.502 758.041 586.153 755.629 545.697 757.884C528.848 758.824 511.902 759.7 495.036 760.502L461.52 762.198C455.609 762.51 448.017 762.703 442.296 763.428L391.133 766.124C384.901 766.473 371.577 767.775 366.021 767.534C367.561 766.073 376.477 766.41 380.824 765.489L380.81 765.213C375.796 764.684 368.257 767.131 363.957 765.28C367.718 764.871 371.77 764.677 375.562 764.476C420.719 762.083 465.936 758.788 511.116 756.971Z" fill="url(#paint7_linear_2293_69135)"/>
<path d="M152.07 764.457C150.853 764.145 150.896 764.088 149.743 763.52C148.487 762.02 148.546 761.179 148.244 759.246C151.039 760.271 151.948 761.596 152.07 764.457Z" fill="#F6E57E"/>
<path d="M366.021 767.532C371.577 767.773 384.901 766.471 391.133 766.122L442.296 763.426C444.764 768.042 463.88 780.539 470.206 787.525C469.774 789.873 469.537 791.794 469.268 794.153C409.933 762.37 355.206 801.837 304.857 831.303C288.926 840.626 269.152 849.925 251.731 856.018C250.117 853.112 247.398 849.521 245.474 846.728C234.957 831.464 227.9 814.317 220.18 797.567C217.548 791.855 212.472 786.184 210.99 779.996C227.655 779.286 243.164 777.74 259.766 776.32L320.887 771.35C334.097 770.122 353.925 769.379 366.021 767.532Z" fill="#FFCFD2"/>
<path d="M321.595 768.8C326.215 767.228 357.409 765.715 363.957 765.28C368.257 767.131 375.796 764.684 380.81 765.213L380.824 765.489C376.477 766.41 367.561 766.073 366.021 767.534C353.925 769.381 334.097 770.124 320.887 771.352L320.766 770.741L319.399 770.374L319.279 769.595C320.818 769.646 321.373 769.723 322.916 769.395L321.595 768.8Z" fill="#391806"/>
<path d="M765.902 833.108C781.571 830.791 798.54 826.228 813.985 822.421C841.636 815.607 883.739 798.877 894.857 770.414L895.018 770.581C895.427 772.202 892.278 778.863 891.471 780.857C870.589 832.484 834.113 863.183 777.861 838.834C774.096 837.362 769.587 834.952 765.902 833.108Z" fill="#B9FBC0"/>
<path d="M79.037 779.978C77.6667 780.158 77.4484 780.164 76.0673 780.09L75.6719 779.419C76.8935 777.79 78.6048 777.021 80.3958 775.963C81.7579 775.9 81.7047 775.874 83.0091 776.24L83.1967 776.951C81.9385 778.581 80.8895 778.949 79.037 779.978Z" fill="#F6E57E"/>
<path d="M254.793 859.083C274.58 851.557 289.258 844.29 307.78 833.788C344.324 813.068 374.951 789.992 418.082 786.215C436.951 785.417 450.257 787.995 466.776 796.996C461.355 806.129 458.928 816.537 454.274 825.817C428.996 876.219 360.691 911.396 306.15 899.163C285.426 891.979 269.471 875.034 254.793 859.083ZM347.06 857.66C347.259 860.114 347.04 860.767 349.345 862.45C352.031 864.411 354.539 867.277 357.985 867.502C357.024 865.337 349.491 858.64 347.06 857.66Z" fill="#FFCFD2"/>
<path d="M479.059 798.752C492.514 804.084 501.933 811.524 517.703 815.031C546.2 821.369 570.195 805.968 596.877 798.513C613.103 793.98 623.199 792.275 639.829 791.211C682.546 788.632 720.072 812.665 756.063 831.769C738.793 834.099 708.1 837.327 692.637 840.801C647.373 850.97 631.967 865.431 582.842 856.881C543.013 849 508.177 826.249 479.059 798.752Z" fill="#B9FBC0"/>
<path d="M103.277 832.702L102.828 832.056C103.719 830.525 105.9 829.132 107.384 828.012L107.89 828.766C107.039 831.069 105.486 831.676 103.277 832.702Z" fill="#F6E57E"/>
<path d="M199.978 843.974C196.547 842.875 194.438 838.15 194.311 834.762C197.69 835.722 200.02 840.624 199.978 843.974Z" fill="#F6E57E"/>
<path d="M466.087 854.58C463.676 853.909 461.24 850.81 460.963 848.328C463.465 849.645 466.571 851.581 466.087 854.58Z" fill="#F6E57E"/>
<path d="M184.099 864.086C180.671 863.805 179.145 859.06 177.867 856.285C180.927 856.53 184.103 860.9 184.099 864.086Z" fill="#F6E57E"/>
<path d="M357.986 867.502C354.54 867.277 352.032 864.411 349.346 862.45C347.041 860.767 347.26 860.114 347.061 857.66C349.492 858.64 357.025 865.337 357.986 867.502Z" fill="#F5B289"/>
<path d="M509.329 876.498C508.19 875.819 508.667 875.932 507.389 875.879L504.719 879.026C504.767 878.779 504.815 878.531 504.863 878.284L505.054 877.391C505.388 875.754 506.503 874.718 507.601 873.348C509.944 873.874 514.875 878.524 516.701 880.186C513.298 878.955 512.387 878.366 509.329 876.498Z" fill="#F6E57E"/>
<defs>
<linearGradient id="paint0_linear_2293_69135" x1="465.678" y1="335.332" x2="556.636" y2="261.772" gradientUnits="userSpaceOnUse">
<stop stop-color="#E0F9E5"/>
<stop offset="1" stop-color="#FFF4EB"/>
</linearGradient>
<linearGradient id="paint1_linear_2293_69135" x1="708.998" y1="318.802" x2="690.714" y2="529.016" gradientUnits="userSpaceOnUse">
<stop/>
<stop offset="1" stop-color="#250800"/>
</linearGradient>
<linearGradient id="paint2_linear_2293_69135" x1="501.079" y1="602.804" x2="514.613" y2="416.785" gradientUnits="userSpaceOnUse">
<stop stop-color="#D2F0F6"/>
<stop offset="1" stop-color="#F8F7FB"/>
</linearGradient>
<linearGradient id="paint3_linear_2293_69135" x1="514.484" y1="632.738" x2="505.248" y2="623.055" gradientUnits="userSpaceOnUse">
<stop stop-color="#080000"/>
<stop offset="1" stop-color="#2F0801"/>
</linearGradient>
<linearGradient id="paint4_linear_2293_69135" x1="467.809" y1="659.306" x2="461.221" y2="656.378" gradientUnits="userSpaceOnUse">
<stop/>
<stop offset="1" stop-color="#270D03"/>
</linearGradient>
<linearGradient id="paint5_linear_2293_69135" x1="154.854" y1="739.125" x2="201.427" y2="707.896" gradientUnits="userSpaceOnUse">
<stop stop-color="#F8F6EF"/>
<stop offset="1" stop-color="#CEDEFD"/>
</linearGradient>
<linearGradient id="paint6_linear_2293_69135" x1="377.757" y1="765.492" x2="376.27" y2="745.01" gradientUnits="userSpaceOnUse">
<stop stop-color="#F0DFE6"/>
<stop offset="1" stop-color="#D6DEF8"/>
</linearGradient>
<linearGradient id="paint7_linear_2293_69135" x1="535.669" y1="767.487" x2="535.846" y2="753.727" gradientUnits="userSpaceOnUse">
<stop stop-color="#50230A"/>
<stop offset="1" stop-color="#6F720A"/>
</linearGradient>
</defs>
</svg>
