<svg width="1024" height="1024" viewBox="0 0 1024 1024" fill="none" xmlns="http://www.w3.org/2000/svg">
<path d="M413.561 90.4062L413.114 90.4091C404.873 90.4147 406.181 84.0893 411.038 79.8672C417.247 81.0607 419.669 86.6834 413.561 90.4062Z" fill="#B9FBC0"/>
<path d="M553.636 136.61L553.892 136.609L554.723 136.134C558.947 133.671 563.719 129.525 567.828 126.669C616.943 92.527 678.199 73.1409 737.762 87.0613C744.814 88.7096 751.414 91.7095 757.888 94.8705C784.365 107.01 804.882 128.724 819.726 153.507C831.414 173.019 840.957 197.576 845.249 220.031C847.768 233.207 848.42 248.409 849.557 261.888C849.43 264.318 849.358 267.527 848.992 269.867C847.269 284.164 846.953 297.923 843.315 312.082C842.329 315.92 841.759 320.006 840.735 323.966C840.292 326.864 840.124 328.728 839.1 331.501C837.35 340.361 831.999 356.431 831.261 363.148C821.571 360.204 812.511 358.698 802.384 355.267C760.747 341.159 745.25 302.835 729.18 266.013C712.617 228.057 680.537 200.777 642.008 186.86C602.263 172.8 547.306 170.117 508.568 188.561L508.381 187.534C514.222 168.703 531.712 157.656 543.451 145.183L544 144.595C544.843 142.832 551.62 138.214 553.636 136.61ZM813.41 313.625C805.049 315.185 807.427 324.92 814.126 325.059C822.578 323.277 823.029 314.143 813.41 313.625Z" fill="#A1F3BF"/>
<path d="M363.743 95.3252C362.856 95.9553 361.695 96.0473 360.72 95.5649C359.745 95.0824 359.114 94.1034 359.078 93.0163C359.041 91.9292 359.604 90.9098 360.544 90.3625C361.91 89.5676 363.659 89.9874 364.515 91.3154C365.371 92.6435 365.031 94.4099 363.743 95.3252Z" fill="#B9FBC0"/>
<path d="M516.667 119.293C514.478 120.545 511.688 119.793 510.425 117.611C509.162 115.429 509.9 112.636 512.076 111.362C514.268 110.08 517.085 110.824 518.357 113.022C519.629 115.219 518.871 118.032 516.667 119.293Z" fill="#B9FBC0"/>
<path d="M438.186 122.586C430.155 123.041 429.113 117.13 433.741 111.973C441.013 111.955 444.211 118.831 438.186 122.586Z" fill="#B9FBC0"/>
<path d="M475.206 118.063C473.651 118.907 471.705 118.336 470.853 116.784C470.001 115.233 470.563 113.285 472.11 112.425C473.668 111.56 475.633 112.126 476.491 113.688C477.349 115.25 476.773 117.212 475.206 118.063Z" fill="#B9FBC0"/>
<path d="M387.218 125.601C378.655 125.491 378.313 119.324 384.191 114.32C390.362 115.231 392.973 121.46 387.218 125.601Z" fill="#B9FBC0"/>
<path d="M339.531 129.787C333.482 130.256 330.881 126.86 335.752 121.969C341.653 121.154 344.43 125.391 339.531 129.787Z" fill="#B9FBC0"/>
<path d="M542.953 134.753C547.549 127.917 551.173 130.246 553.892 136.607L553.636 136.608C550.735 135.757 545.224 133.598 542.953 134.753Z" fill="#D1F0BE"/>
<path d="M542.953 134.754C545.224 133.599 550.735 135.758 553.636 136.609C551.62 138.213 544.843 142.831 544 144.594C538.963 141.172 514.092 140.37 507.457 141.145L505.794 140.712C502.121 139.719 502.017 139.82 498.456 141.549C490.502 141.388 471.673 142.432 463.181 144.629C462.759 144.739 462.728 145.561 462.609 146.13L462.721 144.043C458.929 137.62 454.107 138.467 451.745 145.475L416.424 155.394C418.174 151.744 417.485 150.974 416.318 147.114C423.062 144.877 438.83 139.886 445.39 138.63C471.223 133.803 497.895 131.128 524.159 133.097C526.238 133.253 542.698 134.814 542.953 134.754Z" fill="#D1F0BE"/>
<path d="M451.744 145.476C454.106 138.468 458.928 137.621 462.72 144.044L462.608 146.131C462.205 152.671 455.512 150.048 452.454 146.227L451.744 145.476Z" fill="#A1F3BF"/>
<path d="M498.457 141.548C502.018 139.819 502.122 139.718 505.795 140.711L507.458 141.144C510.642 152.154 496.174 151.813 498.457 141.548Z" fill="#B9FBC0"/>
<path d="M416.318 147.113C411.899 146.904 409.675 147.392 405.859 149.546C407.36 142.333 411.931 140.372 416.318 147.113Z" fill="#B9FBC0"/>
<path d="M405.859 149.547C409.675 147.393 411.899 146.905 416.318 147.114C417.485 150.974 418.174 151.744 416.424 155.394L413.434 156.808C408.578 155.801 408.16 155.084 406.095 150.696L405.859 149.547Z" fill="#A1F3BF"/>
<path d="M363.875 161.415C356.623 161.851 354.374 155.237 359.439 150.348C367.159 150.451 369.116 155.889 363.875 161.415Z" fill="#B9FBC0"/>
<path d="M344.658 188.242C355.433 179.058 372.091 168.692 384.694 161.929C390.398 158.868 401.357 153.946 406.095 150.695C408.16 155.083 408.578 155.8 413.434 156.807C405.498 160.524 397.719 163.468 390.022 167.741C369.483 179.144 351.074 192.624 333.252 207.896C329.077 211.474 320.18 217.91 317.402 222.379C316.346 218.758 316.091 218.385 313.105 216.064C322.491 207.554 325.422 203.258 336.706 194.923C341.77 195.535 343.06 192.334 344.658 188.242Z" fill="#D1F0BE"/>
<path d="M316.008 169.18C307.51 168.564 307.557 160.763 313.5 156.93C321.589 157.996 321.487 164.209 316.008 169.18Z" fill="#B9FBC0"/>
<path d="M484.918 174.507C481.987 174.66 479.736 174.98 477.511 172.743C474.205 169.418 475.918 166.32 478.917 163.938C485.5 164.504 490.812 170.596 484.918 174.507Z" fill="#B9FBC0"/>
<path d="M436.239 178.903C433.338 180.283 429.865 179.104 428.403 176.244C426.941 173.383 428.02 169.879 430.837 168.335C432.733 167.297 435.043 167.37 436.869 168.528C438.694 169.686 439.746 171.744 439.615 173.901C439.484 176.059 438.191 177.975 436.239 178.903Z" fill="#B9FBC0"/>
<path d="M386.27 186.158C377.995 184.769 378.293 178.248 384.519 173.926C392.03 174.39 393.165 183.099 386.27 186.158Z" fill="#B9FBC0"/>
<path d="M508.568 188.562C547.306 170.118 602.263 172.801 642.008 186.861C680.537 200.778 712.617 228.058 729.18 266.014C745.25 302.836 760.747 341.16 802.384 355.268C812.511 358.699 821.571 360.205 831.261 363.149C857.732 369.638 883.485 383.412 897.625 407.34C909.78 427.909 911.475 445.473 908.208 468.634L906.829 476.698C904.395 485.897 901.652 494.838 899.216 503.908C904.576 512.594 912.143 525.4 915.598 535.122C916.609 538.456 918.023 542.708 918.73 546.027C919.989 552.338 920.478 557.031 920.861 563.467C920.665 566.507 920.516 570.501 920.135 573.442C918.863 579.247 917.51 584.214 915.901 589.922C908.968 610.252 897.45 626.291 882.251 641.346C877.916 645.641 873.207 649.259 868.995 653.354L868.372 653.693C864.24 655.991 859.773 660.102 855.662 662.731C848.091 667.575 840.435 672.484 832.331 676.412C796.863 693.601 756.009 700.641 718.149 711.057C712.597 712.65 707.993 714.097 702.549 716.026C694.889 718.653 685.961 721.497 678.693 724.771C674.791 726.573 666.787 730.192 663.553 732.622C650.554 739.957 637.475 753.149 626.865 763.654C619.107 771.335 611.292 776.154 603.549 782.264C568.572 809.867 537.222 795.136 502.776 776.119C498.228 773.608 492.443 771.289 487.704 768.553C473.753 768.711 465.683 768.51 451.443 770.776C439.589 773.08 425.843 776.884 414.135 780.371C387.555 790.441 371.736 800.318 343.441 807.248C342.724 807.382 338.584 808.098 338.159 808.25C325.881 809.796 319.8 810.099 307.363 809.28C307.14 809.207 296.073 807.56 294.414 807.249C273.014 803.275 252.615 790.765 239.05 774.019C215.487 744.927 212.714 718.542 215.753 683.151L216.832 674.99C214.458 673.122 212.061 671.344 209.639 669.541C205.681 665.143 198.542 660.422 194.029 655.751C157.216 617.647 138.777 562.348 145.837 509.763C147.452 497.737 150.396 486.516 153.888 475.019C156.794 467.865 155.847 465.37 156.636 457.899C159.489 430.869 170.691 415.116 190.996 398.432C193.215 396.625 196.247 394.59 198.629 392.905C226.334 375.775 241.075 372.218 273.421 371.489C276.133 355.047 278.847 338.59 282.895 322.418L285.941 309.976C290.873 289.893 299.503 270.656 312.486 254.519C314.383 252.162 316.241 249.772 318.093 247.379L323.539 241.229C334.822 230.639 346.777 221.697 359.774 213.297C361.987 211.88 364.834 210.709 367.26 209.605C377.691 204.913 391.888 201.625 403.124 200.33C407.394 199.86 412.286 199.862 416.577 199.852C429.357 200.824 441.193 202.312 453.622 205.705L455.209 206.125C462.663 208.751 470.852 211.364 477.88 214.831C484.989 207.777 490.794 201.837 498.524 195.512C501.735 193.032 505.186 190.811 508.568 188.562ZM505.372 192.509C492.138 201.508 477.151 217.675 466.265 229.729C456.281 240.892 441.952 258.233 426.028 258.196C393.695 258.122 356.05 236.495 329.449 265.898C310.426 286.924 313.108 315.473 308.111 341.462C305.797 353.491 303.532 359.639 299.156 370.855C352.046 362.739 407.768 302.52 444.808 266.817C455.431 256.577 464.787 248.703 476.434 239.56C486.857 231.466 494.659 226.457 506.432 220.585C546.756 202.41 587.333 196.52 629.764 212.671C666.196 226.539 699.961 255.483 716.133 291.337C723.615 307.925 731.136 338.611 744.547 350.624C752.486 358.867 775.898 373.896 786.737 377.37C792.277 380.508 798.028 383.315 803.685 386.248C804.885 386.871 809.155 389.403 809.879 389.683C832.01 403.447 843.126 410.419 858.853 431.922L860.449 434.135C869.345 446.577 879.302 459.881 886.426 473.394C891.025 482.119 894.192 492.361 898.092 501.406C900.008 494.572 902.431 484.607 904.607 478.1C905.264 475.692 905.97 470.801 906.425 468.166C907.804 459.771 908.208 452.839 907.933 444.377L907.628 440.172C900.887 396.803 870.523 375.348 830.483 364.357C765.146 351.743 750.923 320.006 726.145 263.346C704.407 213.638 651.269 183.753 598.89 178.117C574.292 175.471 525.545 176.776 505.372 192.509ZM415.88 201.379C411.569 201.394 407.297 201.327 403.007 201.763C389.874 203.711 381 205.832 368.482 210.885C364.861 212.392 361.026 214.128 357.805 216.406C349.396 221.948 342.313 227.435 334.437 233.726C331.746 235.689 330.254 237.125 327.836 239.406C317.981 249.468 311.569 257.179 303.961 269.334C301.373 273.504 299.821 276.476 297.653 280.897C293.603 289.472 290.592 298.375 288.188 307.541C287.171 311.759 286.149 315.815 285.005 319.999C280.159 337.193 278.024 353.868 275.3 371.494L286.832 371.513L297.415 371.05C301.937 358.597 304.077 354.485 306.68 340.808C311.827 313.631 309.004 286.07 329.246 264.175C356.027 235.208 393.614 256.607 426.094 256.534C442.165 256.498 455.739 239.349 465.779 228.153C469.264 224.038 473.042 220.031 476.699 216.056C458.31 207.122 436.229 202.326 415.88 201.379ZM507.389 221.75C437.316 257.079 377.236 360.575 298.309 372.829C297.686 374.09 296.737 375.877 296.201 377.123L295.873 377.617C290.245 386.267 282.763 403.284 272.219 408.159C283.568 396.394 286.258 392.636 293.608 377.774C286.621 380.644 280.558 383.019 273.235 385.149C271.882 393.497 270.387 402.27 268.384 410.494L267.112 411.724L266.581 411.522C268.506 402.582 270.108 395.149 271.265 385.912C259.691 389.258 247.825 392.695 236.593 397.037C206.929 408.504 167.565 439.197 157.316 470.126C151.216 486.234 145.468 511.9 145.983 529.089C144.766 579.956 169.05 636.74 209.887 667.87C212.051 669.717 214.565 671.507 216.858 673.22C217.328 669.043 218.067 664.877 218.755 660.728C210.66 648.784 205.905 639.016 199.631 626.029C198.712 623.978 198.696 623.656 198.323 621.396C200.828 623.536 207.667 639.618 210.105 643.831C213.014 648.857 215.423 653.45 218.967 658.573C220.389 652.518 225.773 627.999 230.449 625.012C230.324 627.819 226.154 637.163 224.988 641.141C222.786 648.025 221.493 652.777 220.451 660.034C238.512 682.859 258.867 700.86 280.826 719.906C307.447 742.994 331.062 764.949 367.857 769.217C392.056 772.024 409.708 762.314 432.313 759.556C443.639 757.997 458.159 757.482 469.098 760.896C483.276 765.321 489.914 767.397 504.63 768.223C551.965 773.267 583.451 771.312 624.155 744.407C647.306 731.883 669.84 702.595 689.498 684.776C706.213 669.624 716.59 663.587 735.442 652.082C742.24 648.652 750.086 643.259 757.105 639.63C788.047 623.633 819.732 602.949 843.611 576.983C868.432 551.699 881.03 532.575 896.437 501.56C892.91 492.985 890.437 484.801 886.13 476.291C879.439 463.071 870.723 451.106 862.128 439.085C843.069 411.451 831.829 404.257 803.141 387.314C799.141 385.286 794.991 383.39 790.925 381.483C770.548 371.043 750.851 362.861 737.137 344.236C725.935 327.37 722.598 309.23 714.313 291.285C694.254 247.837 650.31 215.203 603.385 206.739C571.011 200.9 536.978 208.193 507.389 221.75ZM239.121 376.157C234.549 377.329 231.959 378.137 227.562 379.838C205.934 388.011 183.026 402.487 170.17 422.077C167.719 426.173 166.186 429.143 164.125 433.46C159.348 443.532 158.032 455.756 156.938 466.768C174.344 432.803 202.842 408.792 238.268 394.788C248.985 390.552 260.639 387.47 271.72 384.193L273.314 373.099C259.886 373.008 252.157 373.686 239.121 376.157ZM918.712 555.401C916.663 540.195 908.641 520.911 899.499 508.77C897.418 530.754 896.007 554.306 893.445 576.115C891.462 598.802 890.93 607.353 877.489 626.35L876.658 627.233C865.226 641.011 853.163 649.688 836.461 656.262C808.95 667.091 781.3 663.923 752.682 661.645C741.413 660.748 727.289 659.742 716.757 665.596C698.673 677.11 681.335 694.081 666.708 709.691C639.196 739.448 608.055 762.465 567.259 769.858C542.664 774.315 518.326 770.234 493.595 769.412L516.386 781.085C536.207 791.247 556.5 800.953 579.24 793.48C599.486 786.826 620.299 768.058 634.96 753.095C637.141 750.843 639.496 748.961 641.895 746.945C653.892 736.454 659.483 732.5 673.771 725.375C690.939 717.224 713.839 710.477 732.229 705.787C792.888 690.317 840.037 682.594 885.914 635.736C887.352 634.233 888.784 632.489 890.151 630.9C900.567 619.005 910.148 603.697 914.641 588.553C916.656 581.48 917.967 576.761 918.716 569.374C919.323 565.328 918.971 559.458 918.712 555.401ZM851.994 570.371C836.036 587.91 818.198 603.966 798.427 617.126C777.505 631.052 754.891 641.838 733.695 655.319C730.636 657.265 727.46 659.073 724.263 660.781C739.369 658.057 756.809 660.061 772.102 661.554C812.716 665.522 853.859 657.064 878.837 621.847C889.853 606.315 890.546 592.969 891.984 574.405C893.568 563.42 894.192 548.607 895.247 537.343C896.07 528.564 897.817 510.932 897.283 502.717C891.866 513.643 886.459 524.952 879.732 535.148C871.55 547.55 861.749 559.208 851.994 570.371ZM216.82 689.836C214.61 717.76 219.273 746.74 237.446 769.494C237.714 769.831 238.343 770.49 238.661 770.727C252.57 790.5 275.393 802.083 298.757 806.454C345.118 815.129 373.93 793.002 413.783 778.99C441.196 770.492 455.253 766.872 483.827 766.897C464.525 759.407 447.021 758.761 426.968 762.33C418.506 763.778 410.317 765.867 402 767.971C389.671 770.576 378.367 772.52 365.794 770.541C352.459 768.443 339.188 764.399 327.416 757.735C309.85 747.79 293.418 732.98 278.217 719.693C258.971 702.87 235.538 682.649 220.209 662.192C219.431 665.471 218.838 670.797 218.347 674.267C222.377 676.959 224.21 678.346 227.455 681.881C223.197 680.205 221.831 678.965 218.172 676.225C217.597 680.628 217.237 685.39 216.82 689.836ZM275.156 373.039C274.607 376.549 274.075 380.082 273.478 383.581C278.89 381.982 284.216 380.019 289.379 377.738C291.531 376.923 293.49 376.47 294.979 374.81L295.062 373.847C292.273 372.095 279.339 373.012 275.156 373.039Z" fill="#040607"/>
<path d="M505.371 192.507C525.544 176.774 574.291 175.469 598.889 178.115C651.268 183.751 704.406 213.636 726.144 263.344C750.922 320.004 765.145 351.741 830.482 364.355C824.882 376.018 821.078 382.117 809.878 389.681C809.154 389.401 804.884 386.869 803.684 386.246C798.027 383.313 792.276 380.506 786.736 377.368L788.386 377.612C790.1 377.432 791.262 376.828 792.443 375.603C793.857 370.564 789.389 369.806 785.579 372.315C783.485 371.561 778.258 366.584 775.239 364.49C767.317 358.993 756.623 351.912 747.199 349.202C745.925 348.836 745.234 349.901 744.546 350.622C731.135 338.609 723.614 307.923 716.132 291.335C699.96 255.481 666.195 226.537 629.763 212.669C587.332 196.518 546.755 202.408 506.431 220.583C505.915 217.633 505.468 214.649 505.001 211.689C502.831 203.604 506.424 197.758 505.371 192.507Z" fill="#A1F3BF"/>
<path d="M336.706 194.925C327.829 189.117 337.489 177.61 344.658 188.244C343.06 192.336 341.77 195.537 336.706 194.925Z" fill="#B9FBC0"/>
<path d="M498.523 195.509C497.714 193.191 495.145 185.792 499.86 185.287C502.962 184.955 504.295 185.457 506.741 187.326L507.223 187.702L508.38 187.532L508.567 188.559C505.185 190.808 501.734 193.029 498.523 195.509Z" fill="#B9FBC0"/>
<path d="M225.923 198.805C223.353 201.667 219.4 207.176 215.987 207.727C212.374 205.957 214.217 202.855 216.146 200.621C218.373 199.597 225.886 189.757 231.97 189.391C233.547 190.14 232.918 189.583 233.794 191.253C233.371 194.079 228.719 196.586 225.923 198.805Z" fill="#93EE66"/>
<path d="M453.622 205.701C446.859 193.42 455.429 184.332 462.043 196.987C459.289 203.57 457.411 202.847 455.209 206.121L453.622 205.701Z" fill="#B9FBC0"/>
<path d="M291.325 201.985C282.6 203.301 283.182 196.781 287.02 191.422C294.068 191.645 296.022 196.933 291.325 201.985Z" fill="#B9FBC0"/>
<path d="M466.266 229.728C477.152 217.674 492.139 201.507 505.373 192.508C506.426 197.759 502.833 203.605 505.003 211.69C494.129 218.571 488.703 223.778 479.78 233.093C478.261 234.679 475.843 236.396 474.299 237.883C472.454 236.581 467.899 231.58 466.266 229.728Z" fill="#FFEDE1"/>
<path d="M416.576 199.852C412.285 199.862 407.393 199.86 403.123 200.33C405.037 190.976 413.74 192.848 416.576 199.852Z" fill="#A1F3BF"/>
<path d="M216.145 200.621C214.216 202.855 212.373 205.957 215.986 207.727C219.399 207.176 223.352 201.667 225.922 198.805C230.316 200.848 238.566 202.211 243.696 204.056C253.624 207.627 262.796 212.801 272.28 216.95C281.494 220.98 313.406 232.354 317.717 240.108C317.395 242.058 316.747 244.67 317.207 246.491L318.093 247.379C316.241 249.772 314.383 252.162 312.486 254.519C299.503 270.656 290.873 289.893 285.941 309.976C282.231 309.427 280.714 309.45 276.945 309.515C273.51 314.6 273.151 317.328 278.774 321.045C280.371 322.1 281.479 321.815 282.895 322.418C278.847 338.59 276.133 355.047 273.421 371.489C241.075 372.218 226.334 375.775 198.629 392.905C197.78 389.853 197.568 387.918 194.565 386.16C189.421 383.149 183.73 387.513 186.449 393.249C187.455 395.37 189.534 396.654 190.996 398.432C170.691 415.116 159.489 430.869 156.636 457.899C155.847 465.37 156.794 467.865 153.888 475.019C149.977 477.595 141.666 489.879 137.826 494.396C132.457 489.305 118.686 483.382 115.661 478.876C117.18 474.169 119.804 455.658 116.707 451.873C111.779 451.023 111.507 472.416 111.268 475.829C110.542 472.667 102.671 465.204 99.9733 462.282C61.7814 420.901 45.5389 360.131 62.4051 305.439C86.3451 227.808 136.773 195.225 216.145 200.621ZM202.18 219.896C199.08 222.983 192.042 232.672 190.757 236.789C191.49 238.767 192.999 238.946 194.932 239.369C198.012 235.525 206.196 226.506 206.287 222.009C205.19 219.699 204.654 219.886 202.18 219.896ZM256.053 221.857C250.864 227.266 251.922 234.19 259.516 233.221C266.793 228.864 262.891 221.961 256.053 221.857ZM283.102 248.53C276.074 251.847 278.219 261.992 287.165 261.58C292.7 256.268 292.438 248.009 283.102 248.53ZM184.03 251.282C181.19 254.484 174.029 266.404 177.662 270.051L180.271 270.738C183.022 267.617 189.863 255.707 186.547 252.043C185.737 251.781 184.851 251.458 184.03 251.282ZM231.344 253.967C224.736 258.447 225.83 265.658 233.453 265.828C238.904 261.697 239.098 253.747 231.344 253.967ZM256.765 281.553C251.461 287.154 254.581 296.958 261.904 294.476C264.196 291.996 264.619 290.717 265.712 287.525C263.149 282.654 262.42 281.611 256.765 281.553ZM168.085 286.752C166.025 289.528 159.946 303.068 158.789 306.58C159.17 308.338 160.984 308.965 162.532 309.594C166.057 306.779 172.378 292.755 171.43 288.466C170.362 287.205 170.088 286.992 168.085 286.752ZM207.294 288.448C199.557 292.186 199.735 299.55 208.116 300.314C215.047 296.899 213.902 289.013 207.294 288.448ZM232.029 315.448C227.628 321.511 230.196 329.632 237.774 326.78C243.994 321.512 240.175 314.965 232.029 315.448ZM152.064 319.694C150.229 322.836 142.269 341.362 142.636 344.343C143.839 345.874 144.389 346.029 146.45 346.178C148.917 342.449 156.239 326.131 155.769 321.832C154.79 320.357 153.798 320.137 152.064 319.694ZM185.53 322.717C180.279 327.877 181.056 335.03 189.697 334.561C194.969 329.952 192.22 322.792 185.53 322.717ZM258.746 341.997C253.619 347.668 255.633 356.102 263.203 353.537C268.951 347.651 267.277 341.866 258.746 341.997ZM209.744 352.546C206.798 353.42 205.104 356.5 205.943 359.456C206.782 362.411 209.843 364.141 212.807 363.336C214.756 362.807 216.27 361.271 216.771 359.315C217.272 357.359 216.683 355.285 215.229 353.884C213.775 352.483 211.679 351.972 209.744 352.546ZM160.746 356.353C154.506 361.413 156.526 368.453 164.927 367.956C169.864 362.519 168.546 356.134 160.746 356.353ZM134.824 368.869C132.842 371.842 128.581 385.151 129.068 389.167C129.221 390.426 129.637 390.54 130.463 391.347C131.116 391.49 132.032 391.721 132.671 391.811C135.117 387.901 140.493 373.642 137.331 369.761L134.824 368.869ZM145.232 390.985C138.921 395.152 139.657 403.074 147.309 403.466C154.876 399.205 154.132 392.144 145.232 390.985ZM123.571 411.654C121.823 414.39 120.789 420.018 120.361 423.389C119.755 428.164 116.628 436.728 123.08 437.969C126.134 434.291 129.1 415.861 125.436 412.194L123.571 411.654ZM156.99 430.329C154.795 432.131 153.441 433.196 152.72 435.977C151.411 441.035 148.341 448.498 154.609 450.863C156.101 447.578 160.247 435.367 159.577 431.941C158.331 430.267 159.138 430.827 156.99 430.329Z" fill="#FBF8CC"/>
<path d="M403.008 201.763C407.298 201.327 411.57 201.394 415.881 201.379C415.703 204.072 415.626 207.827 413.179 209.257C405.919 213.5 403.571 206.796 403.008 201.763Z" fill="#A1F3BF"/>
<path d="M415.88 201.379C436.229 202.326 458.31 207.122 476.699 216.056C473.042 220.031 469.264 224.038 465.779 228.153C461.522 225.578 457.258 224.178 452.733 222.408C434.62 215.324 420.794 215.326 402.113 219.768C390.521 222.524 384.648 226.299 374.152 230.19C362.883 234.369 352.192 238.471 340.981 242.877C341.927 241.067 342.842 238.731 342.318 236.712C340.428 234.02 337.384 235.325 334.438 233.726C342.313 227.435 349.396 221.948 357.805 216.406C358.33 217.032 360.222 219.353 360.855 219.51C367.765 221.222 372.478 218.038 368.482 210.885C381 205.832 389.874 203.711 403.007 201.763C403.57 206.796 405.918 213.5 413.178 209.257C415.625 207.827 415.702 204.072 415.88 201.379Z" fill="#FFEDE1"/>
<path d="M355.852 208.849C360.944 203.553 363.046 203.57 367.261 209.604C364.835 210.708 361.988 211.879 359.775 213.296L355.852 208.849Z" fill="#B9FBC0"/>
<path d="M507.389 221.748C536.978 208.191 571.011 200.898 603.385 206.737C650.31 215.201 694.254 247.835 714.313 291.283C722.598 309.228 725.935 327.368 737.137 344.234C729.755 343.678 714.54 336.438 706.469 333.807L642.55 312.55C633.516 309.475 622.279 306.363 613.43 302.552C591.435 293.078 565.665 284.212 546.049 270.516C533.343 261.645 521.963 248.824 514.247 235.709C511.744 231.454 509.788 226.208 507.389 221.748Z" fill="#A1F3BF"/>
<path d="M357.805 216.404C361.026 214.126 364.861 212.39 368.482 210.883C372.478 218.036 367.765 221.22 360.855 219.508C360.222 219.351 358.33 217.03 357.805 216.404Z" fill="#A1F3BF"/>
<path d="M474.299 237.881C475.843 236.394 478.261 234.676 479.78 233.09C488.703 223.776 494.129 218.569 505.003 211.688C505.47 214.648 505.917 217.631 506.433 220.581C494.66 226.453 486.858 231.463 476.435 239.557L474.299 237.881Z" fill="#90DBF4"/>
<path d="M317.402 222.379C311.165 238.955 297.214 215.661 313.105 216.064C316.091 218.385 316.346 218.758 317.402 222.379Z" fill="#A1F3BF"/>
<path d="M340.982 242.875C352.193 238.469 362.884 234.367 374.153 230.188C384.649 226.297 390.522 222.522 402.114 219.766C420.795 215.324 434.621 215.322 452.734 222.406C457.259 224.176 461.523 225.576 465.78 228.151C455.74 239.347 442.166 256.496 426.095 256.532C393.615 256.605 356.028 235.206 329.247 264.173C309.005 286.068 311.828 313.629 306.681 340.806C304.078 354.483 301.938 358.595 297.416 371.048L286.833 371.511C285.771 369.875 283.648 367.533 283.961 365.98C285.77 356.997 288.502 347.283 290.67 338.365C294.906 320.94 298.64 303.622 305.677 287.071C306.811 284.405 310.079 279.759 311.639 277.061C319.559 263.362 326.091 256.106 337.353 245.419L340.982 242.875Z" fill="#E5B2F2"/>
<path d="M194.933 239.367C193 238.944 191.491 238.765 190.758 236.787C192.043 232.67 199.081 222.981 202.181 219.894C204.655 219.884 205.191 219.697 206.288 222.007C206.197 226.504 198.013 235.523 194.933 239.367Z" fill="#93EE66"/>
<path d="M259.515 233.219C251.921 234.188 250.863 227.264 256.052 221.855C262.89 221.959 266.792 228.862 259.515 233.219Z" fill="#D1F0BE"/>
<path d="M298.309 372.825C377.236 360.571 437.316 257.075 507.389 221.746C509.788 226.206 511.744 231.452 514.247 235.707C521.963 248.822 533.343 261.643 546.049 270.514C565.665 284.21 591.435 293.076 613.43 302.55C622.279 306.361 633.516 309.473 642.55 312.548L706.469 333.805C714.54 336.436 729.755 343.676 737.137 344.232C750.851 362.857 770.548 371.039 790.925 381.479L789.734 382.998C784.882 385.212 771.935 387.169 766.293 388.224C749.707 391.324 733.019 393.709 716.333 396.217C697.039 399.117 677.56 403.227 658.215 405.577C650.873 406.468 638.125 406.988 630.748 406.479C601.039 404.432 596.212 381.817 579.523 363.142C565.615 347.58 544.577 333.832 524.645 328.065C503.745 322.019 477.836 319.445 457.272 327.903C445.036 332.936 436.096 341.379 425.819 349.274C398.516 370.25 368.541 391.296 332.341 389.218C322.204 388.636 303.168 385.168 296.201 377.119C296.737 375.873 297.686 374.086 298.309 372.825Z" fill="#90DBF4"/>
<path d="M299.156 370.853C303.532 359.637 305.797 353.489 308.111 341.46C313.108 315.471 310.426 286.922 329.449 265.896C356.05 236.493 393.695 258.12 426.028 258.194C441.952 258.231 456.281 240.89 466.265 229.727C467.898 231.579 472.453 236.58 474.298 237.882L476.434 239.558C464.787 248.701 455.431 256.575 444.808 266.815C407.768 302.518 352.046 362.737 299.156 370.853Z" fill="#E5B2F2"/>
<path d="M327.836 239.403C330.254 237.122 331.746 235.686 334.437 233.723C337.383 235.322 340.428 234.017 342.318 236.709C342.842 238.728 341.927 241.064 340.981 242.874L337.352 245.418C334.143 242.725 331.216 242.111 327.836 239.403Z" fill="#B9FBC0"/>
<path d="M317.717 240.105C319.977 242.136 320.814 242.466 323.539 241.226L318.093 247.376L317.207 246.488C316.747 244.667 317.395 242.055 317.717 240.105Z" fill="#FFEDE1"/>
<path d="M303.962 269.33C311.57 257.175 317.982 249.464 327.837 239.402C331.217 242.11 334.144 242.724 337.353 245.417C326.091 256.104 319.559 263.36 311.639 277.059C310.079 279.757 306.811 284.403 305.677 287.069C298.64 303.62 294.906 320.938 290.67 338.363C288.502 347.281 285.77 356.995 283.961 365.978C283.648 367.531 285.771 369.873 286.833 371.509L275.301 371.49C278.025 353.864 280.16 337.189 285.006 319.995C292.784 320.28 292.165 317.032 291.929 310.654C290.78 309.516 289.462 308.541 288.189 307.537C290.593 298.371 293.604 289.468 297.654 280.893C300.884 282.852 307.056 286.982 308.231 279.386C308.873 275.24 306.55 272.304 303.962 269.33Z" fill="#FDE4CF"/>
<path d="M287.166 261.577C278.22 261.989 276.075 251.844 283.103 248.527C292.439 248.006 292.701 256.265 287.166 261.577Z" fill="#D1F0BE"/>
<path d="M180.271 270.737L177.662 270.05C174.029 266.403 181.19 254.483 184.03 251.281C184.851 251.457 185.737 251.78 186.547 252.042C189.863 255.706 183.022 267.616 180.271 270.737Z" fill="#93EE66"/>
<path d="M233.453 265.826C225.83 265.656 224.736 258.445 231.344 253.965C239.098 253.745 238.904 261.695 233.453 265.826Z" fill="#D1F0BE"/>
<path d="M849.557 261.887C902.284 270.542 940.379 291.774 956.577 345.447C957.892 349.802 962.1 373.459 962.983 374.716C961.104 375.758 960.983 375.437 960.076 377.011C960.484 378.626 961.098 379.087 962.207 380.323C961.765 385.945 962.269 392.275 961.956 398.118C961.724 402.449 959.196 412.776 959.418 416.128C955.539 415.928 954.766 415.637 951.317 417.553C952.1 411.893 952.835 406.216 953.465 400.597C960.229 340.317 928.549 285.093 866.38 273.063C860.54 271.933 855.057 270.416 848.992 269.866C849.358 267.526 849.43 264.317 849.557 261.887Z" fill="#D1F0BE"/>
<path d="M297.652 280.895C299.82 276.474 301.372 273.502 303.96 269.332C306.548 272.306 308.871 275.242 308.229 279.388C307.054 286.984 300.882 282.854 297.652 280.895Z" fill="#B9FBC0"/>
<path d="M848.993 269.867C855.058 270.417 860.541 271.934 866.381 273.064C928.55 285.094 960.23 340.318 953.466 400.598C952.836 406.217 952.101 411.894 951.318 417.554L950.186 420.765C948.097 432.383 945.618 443.859 943.487 455.421C936.99 446.304 928.886 453.329 933.748 459.271C935.397 461.286 939.679 459.431 942.031 458.5C940.015 465.818 937.773 473.399 935.597 480.66C934.452 484.479 932.333 496.683 929.953 498.71C925.913 501.588 923.208 507.223 930.017 508.633L929.983 508.889C926.503 523.181 934.999 565.054 936.246 581.575C936.665 587.126 936.605 591.568 936.411 597.223C936.238 602.291 934.781 607.716 935.707 612.392C934.938 611.24 932.688 608.158 932.498 606.759C932.423 606.206 933.703 605.236 933.212 603.833C932.488 604.562 932.171 604.817 931.354 605.444C931.53 605.518 919.308 592.398 915.902 589.921C917.511 584.213 918.864 579.246 920.136 573.441C930.009 571.798 927.998 567.427 920.862 563.466C920.479 557.03 919.99 552.337 918.731 546.026C919.928 544.738 923.35 540.411 924.039 538.972C928.264 530.152 921.439 525.397 915.599 535.121C912.144 525.399 904.577 512.593 899.217 503.907C901.653 494.837 904.396 485.896 906.83 476.697C908.938 477.091 908.863 477.178 910.81 476.422C912.965 473.546 910.139 470.748 908.209 468.633C911.476 445.472 909.781 427.908 897.626 407.339C883.486 383.411 857.733 369.637 831.262 363.148C832 356.431 837.351 340.361 839.101 331.501C841.644 332.37 846.533 333.851 848.139 331.507C853.414 323.814 845.402 323.245 840.736 323.966C841.76 320.006 842.33 315.92 843.316 312.082C846.954 297.923 847.27 284.164 848.993 269.867ZM853.874 291.899C849.041 296.94 848.534 302.149 857.145 302.002C862.25 297.159 861.634 292.12 853.874 291.899ZM887.017 314.218C884.399 315.344 883.127 318.33 884.129 320.999C885.131 323.668 888.053 325.079 890.766 324.203C892.638 323.599 894.027 322.015 894.38 320.079C894.732 318.143 893.992 316.171 892.452 314.945C890.913 313.72 888.825 313.44 887.017 314.218ZM917.917 335.018C911.535 339.067 913.892 345.316 920.113 344.839C927.708 342.273 926.165 334.554 917.917 335.018ZM872.5 346.028C870.516 346.284 868.829 347.601 868.098 349.463C867.367 351.326 867.707 353.438 868.987 354.976C870.266 356.514 872.281 357.234 874.246 356.854C877.155 356.292 879.092 353.521 878.62 350.595C878.149 347.669 875.439 345.647 872.5 346.028ZM946.123 360.422C944.874 360.72 943.899 361.694 943.6 362.943C943.301 364.191 943.729 365.502 944.707 366.333C945.686 367.165 947.048 367.376 948.232 366.879C949.869 366.193 950.705 364.365 950.154 362.678C949.603 360.991 947.849 360.01 946.123 360.422ZM901.229 368.453C898.682 369.524 897.487 372.458 898.562 375.004C899.637 377.549 902.574 378.738 905.117 377.658C907.654 376.582 908.839 373.654 907.767 371.115C906.695 368.577 903.769 367.386 901.229 368.453ZM926.966 391.285C924.526 392.662 923.611 395.721 924.895 398.211C926.179 400.701 929.202 401.73 931.739 400.54C933.466 399.73 934.613 398.04 934.727 396.135C934.842 394.23 933.906 392.415 932.288 391.404C930.669 390.393 928.628 390.347 926.966 391.285ZM912.519 425.912C910.459 430.389 911.995 434.403 917.267 432.288C918.622 429.996 918.644 430.718 918.538 428.448C917.257 426.104 914.991 425.822 912.519 425.912Z" fill="#FFEDE1"/>
<path d="M261.903 294.474C254.58 296.956 251.46 287.152 256.764 281.551C262.419 281.609 263.148 282.652 265.711 287.523C264.618 290.715 264.195 291.994 261.903 294.474Z" fill="#D1F0BE"/>
<path d="M162.532 309.592C160.984 308.963 159.17 308.336 158.789 306.578C159.946 303.066 166.025 289.526 168.085 286.75C170.088 286.99 170.362 287.203 171.43 288.464C172.378 292.753 166.057 306.777 162.532 309.592Z" fill="#93EE66"/>
<path d="M208.115 300.311C199.734 299.547 199.556 292.183 207.293 288.445C213.901 289.01 215.046 296.896 208.115 300.311Z" fill="#D1F0BE"/>
<path d="M857.143 302.001C848.532 302.148 849.039 296.939 853.872 291.898C861.632 292.119 862.248 297.158 857.143 302.001Z" fill="#D1F0BE"/>
<path d="M285.006 319.997C286.15 315.813 287.172 311.757 288.189 307.539C289.462 308.543 290.78 309.518 291.929 310.656C292.165 317.034 292.784 320.282 285.006 319.997Z" fill="#B9FBC0"/>
<path d="M276.944 309.514C280.713 309.449 282.23 309.426 285.94 309.975L282.894 322.417C281.478 321.814 280.37 322.099 278.773 321.044C273.15 317.327 273.509 314.599 276.944 309.514Z" fill="#B9FBC0"/>
<path d="M814.127 325.059C807.428 324.92 805.05 315.185 813.411 313.625C823.03 314.143 822.579 323.277 814.127 325.059Z" fill="#B9FBC0"/>
<path d="M890.766 324.201C888.053 325.077 885.131 323.666 884.129 320.997C883.127 318.328 884.399 315.342 887.017 314.216C888.825 313.438 890.913 313.718 892.452 314.943C893.992 316.169 894.732 318.141 894.38 320.077C894.027 322.013 892.638 323.597 890.766 324.201Z" fill="#D1F0BE"/>
<path d="M237.775 326.779C230.197 329.631 227.629 321.51 232.03 315.447C240.176 314.964 243.995 321.511 237.775 326.779Z" fill="#D1F0BE"/>
<path d="M146.449 346.175C144.388 346.026 143.838 345.871 142.635 344.34C142.268 341.359 150.228 322.833 152.063 319.691C153.797 320.134 154.789 320.354 155.768 321.829C156.238 326.128 148.916 342.446 146.449 346.175Z" fill="#93EE66"/>
<path d="M272.219 408.158C282.763 403.283 290.245 386.266 295.873 377.616L296.201 377.122C303.168 385.171 322.204 388.639 332.341 389.221C368.541 391.299 398.516 370.253 425.819 349.277C436.096 341.382 445.036 332.939 457.272 327.906C477.836 319.448 503.745 322.022 524.645 328.068C544.577 333.835 565.615 347.583 579.523 363.145C596.212 381.82 601.039 404.435 630.748 406.482C638.125 406.991 650.873 406.471 658.215 405.58C677.56 403.23 697.039 399.12 716.333 396.22C733.019 393.712 749.707 391.327 766.293 388.227C771.935 387.172 784.882 385.215 789.734 383.001L790.925 381.482C794.991 383.389 799.141 385.285 803.141 387.313C798.975 390.005 776.843 391.02 769.935 392.434C713.576 403.968 656.038 413.84 600.969 430.559C597.234 431.693 591.721 432.059 588.676 434.05C581.671 431.919 569.348 428.824 562.546 432.703C561.426 433.341 560.284 434.269 559.892 435.529C558.526 439.916 559.447 455.37 559.39 460.838C559.171 481.609 557.63 586.678 566.1 598.901C567.681 601.182 570.281 602.628 573.004 602.97C580.765 603.944 589.753 598.421 595.478 593.693C606.721 584.409 616.294 571.337 622.305 558.052C629.905 562.532 638.853 565.398 646.097 571.163C646.467 571.458 648.539 571.578 649.324 571.911C647.66 582.112 642.331 595.233 653.516 600.802C655.711 600.688 657.896 600.545 660.094 600.545C661.261 604.442 664.784 608.216 666.629 611.952C673.111 625.075 680.187 639.241 681.522 653.952C681.736 656.308 680.558 663.081 681.55 664.001C670.927 677.274 666.484 695.887 654.231 710.087C650.184 714.777 625.128 741.975 624.155 744.406C583.451 771.311 551.965 773.266 504.63 768.222C501.603 762.789 491.842 755.493 486.257 752.697C475.87 747.497 463.271 743.572 451.605 746.287C446.877 747.388 442.393 749.35 437.772 750.834C439.388 730.861 434.053 718.897 422.394 703.59C394.162 666.527 348.847 675.181 308.965 666.261C293.418 662.783 279.159 653.748 266.022 644.335C265.957 644.032 265.892 643.729 265.827 643.426C259.311 633.897 241.298 620.666 230.449 625.011C225.773 627.998 220.389 652.517 218.967 658.572C215.423 653.449 213.014 648.856 210.105 643.83C207.667 639.617 200.828 623.535 198.323 621.395C197.563 620.607 197.37 619.663 196.949 618.563L190.851 598.864C189.574 595.631 188.24 591.041 187.145 587.65C182.326 568.421 175.847 549.377 170.889 530.012C165.954 510.74 163.553 488.549 157.316 470.125C167.565 439.196 206.929 408.503 236.593 397.036C247.825 392.694 259.691 389.257 271.265 385.911C270.108 395.148 268.506 402.581 266.581 411.521L267.112 411.723L268.384 410.493C270.05 409.598 269.782 409.194 272.219 408.158ZM387.574 432.591C364.704 437.767 355.177 464.459 351.843 485.179C348.004 509.031 349.258 534.54 353.716 558.201C358.619 581.924 375.012 608.254 402.992 600.546C444.015 584.02 449.231 500.186 433.376 465.009C423.735 443.619 411.734 431.334 387.574 432.591ZM312.558 434.516C306.635 437.526 306.136 439.369 303.764 445.416C298.059 459.963 294.291 475.129 289.568 489.996C286.033 501.644 280.829 514.755 278.956 526.755C276.08 509.614 264.693 445.893 251.611 436.896C249.498 435.442 246.882 434.675 244.335 435.254C242.006 435.784 240.32 437.507 239.21 439.546C233.973 449.171 218.715 584.193 221.626 594.098C222.483 597.012 224.837 599.263 227.514 600.567C230.106 601.83 233.612 602.561 236.382 601.447C238.079 600.764 239.253 599.407 239.87 597.707C240.549 595.837 242.082 559.387 242.568 553.898C244.007 537.646 246.319 521.544 248.68 505.409C249.46 499.387 250.333 493.197 250.999 487.178L257.538 520.501C259.4 529.721 261.353 539.368 264.663 548.281C267.762 556.626 279.334 564.222 284.663 553.257C296.149 529.626 303.533 503.384 311.389 478.203C312.411 502.068 313.394 525.926 313.984 549.806C314.306 562.835 313.552 576.097 314.867 589.056C316.274 600.848 332.57 609.286 334.156 592.116C334.98 583.196 334.676 574.42 334.939 565.312C335.866 533.208 336.482 500.196 332.636 468.261C331.561 459.333 327.838 442.283 320.323 436.369C317.812 434.663 315.462 434.49 312.558 434.516ZM533.593 436.047C531.46 436.901 529.174 437.734 528.144 439.979C525.865 444.946 526.977 479.135 526.658 487.881C525.896 508.753 523.05 529.363 521.616 550.165C516.336 534.632 508.397 518.462 501.75 503.325C495.217 488.447 488.273 473.64 480.816 459.133C476.636 451.639 472.943 434.833 461.186 438.227C459.172 438.808 455.898 442.832 455.613 444.778C453.405 459.842 454.019 477.721 453.854 492.9L453.519 552.608C453.55 562.87 453.388 573.271 453.92 583.511C454.381 592.378 454.445 599.668 464.745 600.888C472.412 600.079 474.578 598.453 474.417 590.174C473.763 556.525 473.274 522.416 472.96 488.805L473.208 489.272C476.639 495.845 480.455 505.15 483.579 512.071L507.387 565.725C511.228 574.299 514.451 583.958 519.56 591.844C521.418 594.712 523.679 596.919 526.99 597.997C529.549 598.83 532.418 598.781 534.835 597.529C536.731 596.547 538.531 594.574 539.126 592.495C541.171 585.349 538.208 563.394 538.566 553.866C539.345 533.128 550.981 454.456 542.208 440.577C540.97 438.62 538.836 436.804 536.514 436.339C535.561 436.148 534.562 436.102 533.593 436.047Z" fill="url(#paint0_linear_2293_70561)"/>
<path d="M189.698 334.559C181.057 335.028 180.28 327.875 185.531 322.715C192.221 322.79 194.97 329.95 189.698 334.559Z" fill="#D1F0BE"/>
<path d="M839.1 331.501C840.124 328.728 840.292 326.864 840.735 323.966C845.401 323.245 853.413 323.814 848.138 331.507C846.532 333.851 841.643 332.37 839.1 331.501Z" fill="#B9FBC0"/>
<path d="M920.112 344.837C913.891 345.314 911.534 339.065 917.916 335.016C926.164 334.552 927.707 342.271 920.112 344.837Z" fill="#D1F0BE"/>
<path d="M263.202 353.534C255.632 356.099 253.618 347.665 258.745 341.994C267.276 341.863 268.95 347.648 263.202 353.534Z" fill="#D1F0BE"/>
<path d="M874.244 356.853C872.279 357.233 870.264 356.513 868.985 354.975C867.705 353.437 867.365 351.325 868.096 349.462C868.827 347.6 870.514 346.283 872.498 346.027C875.437 345.646 878.147 347.668 878.618 350.594C879.09 353.52 877.153 356.291 874.244 356.853Z" fill="#B9FBC0"/>
<path d="M744.547 350.623C745.235 349.902 745.926 348.837 747.2 349.203C756.624 351.913 767.318 358.994 775.24 364.491C778.259 366.585 783.486 371.562 785.58 372.316C786.49 375.109 786.468 375.514 788.387 377.613L786.737 377.369C775.898 373.895 752.486 358.866 744.547 350.623Z" fill="#90DBF4"/>
<path d="M212.807 363.334C209.843 364.139 206.782 362.409 205.943 359.454C205.104 356.498 206.798 353.418 209.744 352.544C211.679 351.97 213.775 352.481 215.229 353.882C216.683 355.283 217.272 357.357 216.771 359.313C216.27 361.269 214.756 362.805 212.807 363.334Z" fill="#D1F0BE"/>
<path d="M164.926 367.952C156.525 368.449 154.505 361.409 160.745 356.349C168.545 356.13 169.863 362.515 164.926 367.952Z" fill="#D1F0BE"/>
<path d="M948.232 366.879C947.048 367.376 945.686 367.165 944.707 366.333C943.729 365.502 943.301 364.191 943.6 362.943C943.899 361.694 944.874 360.72 946.123 360.422C947.849 360.01 949.603 360.991 950.154 362.678C950.705 364.365 949.869 366.193 948.232 366.879Z" fill="#B9FBC0"/>
<path d="M830.483 364.355C870.523 375.346 900.887 396.801 907.628 440.17C895.432 433.229 894.086 446.654 902.515 447.524C903.869 447.664 905.73 445.576 906.791 444.53L907.933 444.375C908.208 452.837 907.804 459.769 906.425 468.164C900.072 469.022 898.637 475.354 904.607 478.098C902.431 484.605 900.008 494.57 898.092 501.404C894.192 492.359 891.025 482.117 886.426 473.392C879.302 459.879 869.345 446.575 860.449 434.133C862.427 433.268 862.651 433.95 864.285 433.641C870.871 432.397 866.515 423.599 860.793 425.701C859.451 427.406 859.82 429.662 858.853 431.92C843.126 410.417 832.01 403.445 809.879 389.681C821.079 382.117 824.883 376.018 830.483 364.355ZM844.045 384.538C837.455 388.422 840.962 394.794 847.165 395.046C852.323 390.028 852.561 384.213 844.045 384.538ZM879.849 396.568C878.148 397.476 877.424 397.64 876.584 399.363C876.029 403.788 879.252 405.943 883.282 406.102C888.633 402.616 888.71 395.615 879.849 396.568Z" fill="#FFEDE1"/>
<path d="M905.116 377.659C902.573 378.739 899.636 377.55 898.561 375.005C897.486 372.459 898.681 369.525 901.228 368.454C903.768 367.387 906.694 368.578 907.766 371.116C908.838 373.655 907.653 376.583 905.116 377.659Z" fill="#D1F0BE"/>
<path d="M132.671 391.809C132.032 391.719 131.116 391.488 130.463 391.345C129.637 390.538 129.221 390.424 129.068 389.165C128.581 385.149 132.842 371.84 134.824 368.867L137.331 369.759C140.493 373.64 135.117 387.899 132.671 391.809Z" fill="#93EE66"/>
<path d="M785.58 372.314C789.39 369.805 793.858 370.563 792.444 375.602C791.263 376.827 790.101 377.431 788.387 377.611C786.468 375.512 786.49 375.107 785.58 372.314Z" fill="#4BC6D9"/>
<path d="M239.12 376.156C252.156 373.685 259.885 373.007 273.313 373.098L271.719 384.192C260.638 387.469 248.985 390.551 238.268 394.787C202.842 408.791 174.344 432.802 156.938 466.767C158.031 455.755 159.347 443.531 164.124 433.459C166.629 434.163 166.689 435.091 169.934 435.744C174.794 434.443 173.998 430.942 173.714 426.631C173.558 424.268 171.99 423.378 170.169 422.076C183.025 402.486 205.933 388.01 227.561 379.837C233.194 389.388 239.04 385.243 239.12 376.156Z" fill="#FDE4CF"/>
<path d="M273.479 383.579C274.076 380.08 274.608 376.547 275.157 373.037C279.34 373.01 292.274 372.093 295.063 373.845L294.98 374.808C293.491 376.468 291.532 376.921 289.38 377.736C284.217 380.017 278.891 381.98 273.479 383.579Z" fill="url(#paint1_linear_2293_70561)"/>
<path d="M962.207 380.322C961.098 379.086 960.484 378.625 960.076 377.01C960.983 375.436 961.104 375.757 962.983 374.715C964.758 376.419 964.881 375.968 965.161 377.88C964.082 379.317 963.715 379.429 962.207 380.322Z" fill="#A1F3BF"/>
<path d="M227.562 379.837C231.959 378.136 234.55 377.328 239.122 376.156C239.042 385.243 233.195 389.388 227.562 379.837Z" fill="#B9FBC0"/>
<path d="M272.22 408.158C269.783 409.194 270.051 409.598 268.385 410.493C270.388 402.269 271.883 393.496 273.236 385.148C280.559 383.018 286.622 380.643 293.609 377.773C286.259 392.635 283.569 396.393 272.22 408.158Z" fill="#FFCFD2"/>
<path d="M847.165 395.044C840.962 394.792 837.455 388.42 844.045 384.536C852.561 384.211 852.323 390.026 847.165 395.044Z" fill="#D1F0BE"/>
<path d="M190.996 398.429C189.534 396.651 187.455 395.367 186.449 393.246C183.73 387.51 189.421 383.146 194.565 386.157C197.568 387.915 197.78 389.85 198.629 392.902C196.247 394.587 193.215 396.622 190.996 398.429Z" fill="#D1F0BE"/>
<path d="M803.141 387.312C831.829 404.256 843.069 411.449 862.128 439.083C860.982 441.894 863.331 447.621 864.292 450.587C877.458 491.213 866.205 539.471 842.756 574.237C842.226 575.022 842.525 575.318 842.744 576.135L843.611 576.982C819.732 602.948 788.047 623.631 757.105 639.628C750.086 643.257 742.24 648.651 735.442 652.081C728.828 649.022 703.781 652.92 696.188 655.847C690.659 657.978 686.344 660.473 681.55 664C680.558 663.08 681.736 656.307 681.522 653.951C680.187 639.24 673.111 625.074 666.629 611.951C664.784 608.215 661.261 604.441 660.094 600.544C667.154 597.733 670.488 568.763 671.802 560.61C681.136 560.825 690.324 561.067 699.658 561.479C701.861 572.028 703.083 583.98 707.485 593.808C713.895 607.524 728.386 601.75 725.242 586.769C716.792 546.455 714.644 506.01 706.572 465.605C704.249 453.98 700.046 429.958 681.357 440.105C678.797 441.494 675.346 447.392 674.522 450.38C663.533 490.208 656.543 531.25 649.324 571.91C648.539 571.577 646.467 571.457 646.097 571.162C638.853 565.397 629.905 562.532 622.305 558.052C623.162 555.998 623.925 553.908 624.784 551.865C641.014 513.231 633.617 450.38 588.676 434.049C591.721 432.058 597.234 431.693 600.969 430.559C656.038 413.84 713.576 403.968 769.935 392.434C776.843 391.02 798.975 390.004 803.141 387.312ZM740.165 436.526C737.604 437.623 734.662 438.972 733.56 441.762C731.15 447.867 740.746 472.263 743.112 479.628C746.557 490.352 755.448 513.81 755.92 523.727C756.507 536.063 753.501 590.631 756.915 597.245C758.113 599.566 760.618 601.067 763.066 601.732C766.013 602.532 768.744 602.298 771.329 600.643C773.151 599.477 774.942 597.906 775.425 595.727C776.666 590.127 776.092 583.605 776.102 577.876L776.128 544.997C776.128 539.042 775.863 530.152 776.575 524.43L776.75 523.758C779.412 513.745 784.769 502.992 788.811 493.173C794.925 478.318 802.372 462.701 806.861 447.249C808.774 440.663 800.033 433.575 794.074 437.335C792.81 438.021 790.729 441.434 790.025 442.994C782.625 459.384 776.444 476.233 768.545 492.428L768.287 491.779C763.713 480.101 755.871 441.588 744.977 437.079C743.449 436.447 741.794 436.422 740.165 436.526Z" fill="url(#paint2_linear_2293_70561)"/>
<path d="M147.308 403.465C139.656 403.073 138.92 395.151 145.231 390.984C154.131 392.143 154.875 399.204 147.308 403.465Z" fill="#D1F0BE"/>
<path d="M931.739 400.537C929.202 401.727 926.179 400.698 924.895 398.208C923.611 395.718 924.526 392.659 926.966 391.282C928.628 390.344 930.669 390.39 932.288 391.401C933.906 392.412 934.842 394.227 934.727 396.132C934.613 398.037 933.466 399.727 931.739 400.537Z" fill="#D1F0BE"/>
<path d="M883.282 406.103C879.252 405.944 876.029 403.789 876.584 399.364C877.424 397.641 878.148 397.477 879.849 396.569C888.71 395.616 888.633 402.617 883.282 406.103Z" fill="#B9FBC0"/>
<path d="M123.081 437.967C116.629 436.726 119.756 428.162 120.362 423.387C120.79 420.016 121.824 414.388 123.572 411.652L125.437 412.192C129.101 415.859 126.135 434.289 123.081 437.967Z" fill="#93EE66"/>
<path d="M951.318 417.555C954.767 415.639 955.54 415.93 959.419 416.13C961.303 420.777 961.651 422.052 957.738 425.458C953.143 424.735 952.747 424.674 950.186 420.766L951.318 417.555Z" fill="#A1F3BF"/>
<path d="M943.485 455.422C945.616 443.86 948.095 432.384 950.184 420.766C952.745 424.674 953.141 424.735 957.736 425.458C956.584 428.893 955.722 433.147 955.068 436.754C951.574 456.032 944.929 474.42 939.641 493.231C938.44 497.504 937.913 501.377 936.903 505.555C936.644 505.31 935.847 504.157 935.602 503.82C935.149 501.804 934.943 501.557 933.64 500.215C931.558 499.484 932.564 499.514 930.519 499.976L929.951 498.711C932.331 496.684 934.45 484.48 935.595 480.661C937.771 473.4 940.013 465.819 942.029 458.501C939.677 459.432 935.395 461.287 933.746 459.272C928.884 453.33 936.988 446.305 943.485 455.422Z" fill="#D1F0BE"/>
<path d="M164.125 433.457C166.186 429.14 167.719 426.17 170.17 422.074C171.991 423.376 173.558 424.266 173.714 426.629C173.998 430.94 174.794 434.441 169.934 435.742C166.689 435.089 166.63 434.161 164.125 433.457Z" fill="#B9FBC0"/>
<path d="M858.854 431.921C859.821 429.663 859.452 427.407 860.794 425.702C866.516 423.6 870.871 432.398 864.285 433.642C862.651 433.951 862.427 433.269 860.449 434.134L858.854 431.921Z" fill="#B9FBC0"/>
<path d="M917.267 432.289C911.995 434.404 910.459 430.39 912.519 425.913C914.991 425.823 917.257 426.105 918.538 428.449C918.644 430.719 918.622 429.997 917.267 432.289Z" fill="#B9FBC0"/>
<path d="M154.609 450.862C148.341 448.497 151.411 441.034 152.72 435.976C153.441 433.195 154.795 432.13 156.99 430.328C159.138 430.826 158.331 430.266 159.577 431.94C160.247 435.366 156.101 447.577 154.609 450.862Z" fill="#B9FBC0"/>
<path d="M622.305 558.051C616.294 571.336 606.721 584.408 595.478 593.692C589.753 598.42 580.765 603.943 573.004 602.969C570.281 602.627 567.681 601.181 566.1 598.9C557.63 586.677 559.171 481.608 559.39 460.837C559.447 455.369 558.526 439.915 559.892 435.528C560.284 434.268 561.426 433.34 562.546 432.702C569.348 428.823 581.671 431.918 588.676 434.049C633.617 450.38 641.014 513.231 624.784 551.865C623.925 553.908 623.162 555.997 622.305 558.051ZM562.962 436.23C563.321 469.134 562.72 500.943 563.574 534.138C563.64 543.559 564.82 586.556 568.169 593.606C569.166 599.965 576.328 599.883 581.028 597.952C592.056 593.591 600.301 584.49 607.398 575.259C631.898 543.449 637.18 491.575 613.939 457.727C604.328 443.73 580.099 429.546 562.962 436.23Z" fill="#040607"/>
<path d="M402.991 600.547C375.011 608.255 358.618 581.925 353.715 558.202C349.257 534.541 348.003 509.032 351.842 485.18C355.176 464.46 364.703 437.768 387.573 432.592C411.733 431.335 423.734 443.62 433.375 465.01C449.23 500.187 444.014 584.021 402.991 600.547ZM388.435 436.122C352.564 444.568 351.791 507.968 354.348 537.199C356.457 561.32 368.329 607.441 401.937 597.089C414.515 591.938 421.74 581.771 426.794 569.387C439.757 537.619 442.209 497.741 429.563 465.483C422.44 447.311 408.859 434.298 388.435 436.122Z" fill="#040607"/>
<path d="M278.956 526.753C280.829 514.753 286.033 501.642 289.568 489.994C294.291 475.127 298.059 459.961 303.764 445.414C306.136 439.367 306.635 437.524 312.558 434.514C315.462 434.488 317.812 434.661 320.323 436.367C327.838 442.281 331.561 459.331 332.636 468.259C336.482 500.194 335.866 533.206 334.939 565.31C334.676 574.418 334.98 583.194 334.156 592.114C332.57 609.284 316.274 600.846 314.867 589.054C313.552 576.095 314.306 562.833 313.984 549.804C313.394 525.924 312.411 502.066 311.389 478.201C303.533 503.382 296.149 529.624 284.663 553.255C279.334 564.22 267.762 556.624 264.663 548.279C261.353 539.366 259.4 529.719 257.538 520.499L250.999 487.176C250.333 493.195 249.46 499.385 248.68 505.407C246.319 521.542 244.007 537.644 242.568 553.896C242.082 559.385 240.549 595.835 239.87 597.705C239.253 599.405 238.079 600.762 236.382 601.445C233.612 602.559 230.106 601.828 227.514 600.565C224.837 599.261 222.483 597.01 221.626 594.096C218.715 584.191 233.973 449.169 239.21 439.544C240.32 437.505 242.006 435.782 244.335 435.252C246.882 434.673 249.498 435.44 251.611 436.894C264.693 445.891 276.08 509.612 278.956 526.753ZM245.929 438.414C243.303 440.03 241.82 441.133 241.273 444.365C237.116 468.937 233.746 493.852 231.143 518.644C228.858 542.045 225.2 565.509 224.938 589.039C224.831 598.623 237.279 603.599 236.97 590.684C235.976 549.064 245.747 508.586 250.048 467.719C252.257 473.657 253.261 480.279 254.643 486.5C258.857 505.454 261.166 525.084 267.015 543.621C270.394 553.103 277.036 560.857 283.144 547.752C292.904 526.807 298.864 504.684 306.088 482.822C308.519 475.465 310.229 468.181 313.095 460.935C314.213 465.223 314.992 469.164 315.15 473.621C317.759 510.873 316.984 548.502 318.642 585.761C318.914 591.875 323.488 602.222 329.355 596.179C331.374 588.914 330.946 573.545 331.035 566.572C331.146 557.919 332.014 550.797 331.855 543.093C331.228 512.609 333.151 481.234 325.194 451.602C321.692 438.559 312.171 431.302 306.79 448.223C297.731 475.84 289.098 503.785 280.899 531.68C279.946 534.924 279.177 537.705 277.841 540.815C272.072 512.495 269.194 484.024 258.44 456.8C255.841 450.221 253.891 439.872 245.929 438.414Z" fill="#040607"/>
<path d="M563.575 534.136C562.721 500.941 563.322 469.132 562.963 436.228C580.1 429.544 604.329 443.728 613.94 457.725C637.181 491.573 631.899 543.447 607.399 575.257C600.302 584.488 592.057 593.589 581.029 597.95C576.329 599.881 569.167 599.963 568.17 593.604C568.126 592.075 567.858 590.129 567.785 588.412C571.581 589.099 570.666 586.621 573.251 586.622C573.977 587.729 573.691 587.427 574.686 588.303L575.265 587.565C575.069 585.833 574.894 586.196 573.327 584.604C573.348 582.212 573.425 584.007 574.708 582.518C574.962 581.205 575.168 580.135 575.328 579.306C575.949 580.474 575.938 583.026 576.05 584.501L576.689 585.005C577.591 587.036 577.106 586.813 578.665 587.621C579.217 587.471 579.671 587.381 580.161 587.051C612.85 565.068 624.903 519.706 614.264 483.128C608.374 462.875 596.359 449.571 576.661 445.206C575.827 469.491 574.84 493.672 575.078 517.981C575.128 523.17 575.314 528.709 575.037 533.863C574.222 536.618 574.419 547.089 574.399 550.612C574.294 548.397 574.605 545.477 573.501 543.878C571.448 542.921 570.251 543.422 567.717 543.561L566.055 540.617H565.383C564.521 541.831 564.747 543.938 564.737 545.552C564.037 544.38 564.761 537.439 564.406 534.619L563.575 534.136Z" fill="url(#paint3_linear_2293_70561)"/>
<path d="M401.938 597.087C368.33 607.439 356.458 561.318 354.349 537.197C351.792 507.966 352.565 444.566 388.436 436.12C408.86 434.296 422.441 447.309 429.564 465.481C442.21 497.739 439.758 537.617 426.795 569.385C421.741 581.769 414.516 591.936 401.938 597.087ZM391.886 447.516C384.555 450.059 379.107 455.127 376.024 462.438C362.889 493.584 363.948 534.621 373.632 566.563C377.452 579.164 386.04 590.585 400.486 585.607C404.249 583.344 408.651 579.755 410.903 575.836C429.713 543.118 433.241 494.633 414.568 461.2C409.84 452.734 401.346 446.786 391.886 447.516Z" fill="#FFCFD2"/>
<path d="M521.615 550.165C523.049 529.363 525.895 508.753 526.657 487.881C526.976 479.135 525.864 444.946 528.143 439.979C529.173 437.734 531.459 436.901 533.592 436.047C534.561 436.102 535.56 436.148 536.513 436.339C538.835 436.804 540.969 438.62 542.207 440.577C550.98 454.456 539.344 533.128 538.565 553.866C538.207 563.394 541.17 585.349 539.125 592.495C538.53 594.574 536.73 596.547 534.834 597.529C532.417 598.781 529.548 598.83 526.989 597.997C523.678 596.919 521.417 594.712 519.559 591.844C514.45 583.958 511.227 574.299 507.386 565.725L483.578 512.071C480.454 505.15 476.638 495.845 473.207 489.272L472.959 488.805C473.273 522.416 473.762 556.525 474.416 590.174C474.577 598.453 472.411 600.079 464.744 600.888C454.444 599.668 454.38 592.378 453.919 583.511C453.387 573.271 453.549 562.87 453.518 552.608L453.853 492.9C454.018 477.721 453.404 459.842 455.612 444.778C455.897 442.832 459.171 438.808 461.185 438.227C472.942 434.833 476.635 451.639 480.815 459.133C488.272 473.64 495.216 488.447 501.749 503.325C508.396 518.462 516.335 534.632 521.615 550.165ZM534.014 439.241C530.1 443.188 530.144 446.597 530.524 452.077C533.231 491.029 524.988 529.384 524.572 568.069C520.194 558.568 517.454 548.192 513.193 538.688C501.975 513.766 491.173 488.616 479.09 464.096C476.292 458.418 473.407 452.205 470.798 446.404C468.11 440.43 460.238 439.858 459.485 445.676C457.525 460.812 458.003 477.168 457.836 492.525L457.629 552.111C457.646 564.284 457.464 576.515 458.232 588.662C458.479 592.561 458.961 594.147 462.173 596.467C465.052 597.047 470.11 597.574 470.169 593.515C470.569 566.293 468.827 538.537 469.091 511.275C469.215 498.359 468.265 486.055 469.599 473.523C475.286 483.855 479.975 494.482 484.842 505.215L509.226 560.293C512.628 567.9 516.019 575.506 519.363 583.14C521.965 589.08 525.532 596.169 533.212 594.404C534.774 593.119 535.426 592.04 535.648 590.011C536.818 579.332 534.264 564.312 534.749 552.682C535.533 533.893 547.378 451.873 538.233 441.305C537.156 440.06 535.611 439.487 534.014 439.241Z" fill="#040607"/>
<path d="M776.576 524.429C775.864 530.151 776.129 539.042 776.129 544.997L776.103 577.876C776.093 583.605 776.667 590.126 775.426 595.726C774.943 597.905 773.152 599.477 771.33 600.643C768.745 602.298 766.014 602.531 763.067 601.731C760.619 601.066 758.114 599.566 756.916 597.245C753.502 590.631 756.508 536.062 755.921 523.726C755.449 513.809 746.558 490.352 743.113 479.628C740.747 472.263 731.151 447.867 733.561 441.762C734.663 438.972 737.605 437.623 740.166 436.526C741.795 436.422 743.45 436.447 744.978 437.079C755.872 441.588 763.714 480.1 768.288 491.778L768.546 492.428C776.445 476.233 782.626 459.384 790.026 442.994C790.73 441.434 792.811 438.021 794.075 437.335C800.034 433.575 808.775 440.663 806.862 447.249C802.373 462.701 794.926 478.318 788.812 493.173C784.77 502.992 779.413 513.745 776.751 523.758L776.576 524.429ZM741.199 440.378C739.358 441.361 738.512 441.58 737.448 443.265C736.413 447.966 747.621 478.421 749.585 484.612C752.165 492.746 759.397 512.971 760.165 520.277C761.459 532.578 757.764 589.742 761.215 595.674C761.856 596.775 762.919 597.282 764.118 597.507C765.811 597.824 768.278 597.455 769.715 596.484C771.145 595.516 771.36 593.254 771.493 591.676C771.997 585.678 771.578 579.402 771.551 573.368L771.528 541.958C771.531 530.733 770.826 523.964 775.255 513.375L795.042 466.555C797.466 460.702 806.583 444.955 800.033 440.603C795.023 439.762 792.515 447.604 790.999 451.27C784.935 465.935 778.977 480.64 772.228 495.01C771.053 497.51 769.815 500.187 768.303 502.496C762.337 484.228 755.733 465.759 748.811 447.847C747.46 444.351 745.147 440.855 741.199 440.378Z" fill="#040607"/>
<path d="M649.323 571.911C656.542 531.251 663.532 490.209 674.521 450.381C675.345 447.393 678.796 441.495 681.356 440.106C700.045 429.959 704.248 453.981 706.571 465.606C714.643 506.011 716.791 546.456 725.241 586.77C728.385 601.751 713.894 607.525 707.484 593.809C703.082 583.981 701.86 572.028 699.657 561.479C690.323 561.067 681.135 560.826 671.801 560.611C670.487 568.764 667.153 597.734 660.093 600.545C657.895 600.545 655.71 600.688 653.515 600.802C642.33 595.233 647.659 582.112 649.323 571.911ZM685.977 441.571C679.098 445.636 677.78 452.933 675.918 460.153C667.642 492.257 661.257 526.902 655.601 559.662C653.939 569.29 650.982 580.666 650.849 590.362C650.829 591.857 651.063 593.356 651.913 594.627C652.813 595.972 654.6 597.188 656.238 597.267C657.522 597.33 658.813 596.913 659.694 595.954C662.477 592.925 667.279 562.79 668.555 556.427C674.845 556.59 681.254 556.696 687.53 556.953L703.783 557.51C705.012 565.933 708.066 596.142 717.674 597.436C722.355 595.902 721.702 591.819 721.127 587.771C720.168 581.104 718.43 574.557 717.223 567.928C709.984 528.172 708.667 487.024 697.307 448.103C695.627 442.347 691.287 441.328 685.977 441.571Z" fill="#040607"/>
<path d="M907.932 444.373L906.791 444.528C905.73 445.574 903.869 447.662 902.515 447.522C894.086 446.652 895.431 433.227 907.627 440.168L907.932 444.373Z" fill="#B9FBC0"/>
<path d="M250.048 467.721C245.747 508.588 235.976 549.066 236.97 590.686C237.279 603.601 224.831 598.625 224.938 589.041C225.2 565.511 228.858 542.047 231.143 518.646C233.746 493.854 237.116 468.939 241.273 444.367C241.82 441.135 243.303 440.032 245.929 438.416C253.891 439.874 255.841 450.223 258.44 456.802C269.194 484.026 272.072 512.497 277.841 540.817C279.177 537.707 279.946 534.926 280.899 531.682C289.098 503.787 297.731 475.842 306.79 448.225C312.171 431.304 321.692 438.561 325.194 451.604C333.151 481.236 331.228 512.611 331.855 543.095C332.014 550.799 331.146 557.921 331.035 566.574C330.946 573.547 331.374 588.916 329.355 596.181C323.488 602.224 318.914 591.877 318.642 585.763C316.984 548.504 317.759 510.875 315.15 473.623C314.992 469.166 314.213 465.225 313.095 460.937C310.229 468.183 308.519 475.467 306.088 482.824C298.864 504.686 292.904 526.809 283.144 547.754C277.036 560.859 270.394 553.105 267.015 543.623C261.166 525.086 258.857 505.456 254.643 486.502C253.261 480.281 252.257 473.659 250.048 467.721Z" fill="#FFCFD2"/>
<path d="M524.573 568.066C524.989 529.381 533.232 491.026 530.525 452.074C530.145 446.594 530.101 443.185 534.015 439.238C535.612 439.484 537.157 440.057 538.234 441.302C547.379 451.87 535.534 533.89 534.75 552.679C534.265 564.309 536.819 579.329 535.649 590.008C535.427 592.037 534.775 593.116 533.213 594.401C525.533 596.166 521.966 589.077 519.364 583.137C516.02 575.503 512.629 567.897 509.227 560.29L484.843 505.212C479.976 494.479 475.287 483.852 469.6 473.52C468.266 486.052 469.216 498.356 469.092 511.272C468.828 538.534 470.57 566.29 470.17 593.512C470.111 597.571 465.053 597.044 462.174 596.464C458.962 594.144 458.48 592.558 458.233 588.659C457.465 576.512 457.647 564.281 457.63 552.108L457.837 492.522C458.004 477.165 457.526 460.809 459.486 445.673C460.239 439.855 468.111 440.427 470.799 446.401C473.408 452.202 476.293 458.415 479.091 464.093C491.174 488.613 501.976 513.763 513.194 538.685C517.455 548.189 520.195 558.565 524.573 568.066Z" fill="#FFCFD2"/>
<path d="M843.611 576.98L842.744 576.134C842.525 575.317 842.225 575.02 842.755 574.235C866.204 539.469 877.457 491.212 864.291 450.586C863.33 447.62 860.981 441.893 862.127 439.082C870.722 451.103 879.438 463.068 886.129 476.288C890.436 484.798 892.91 492.982 896.437 501.557C881.03 532.572 868.432 551.696 843.611 576.98Z" fill="#FFEDE1"/>
<path d="M775.253 513.376C770.824 523.965 771.529 530.734 771.526 541.959L771.549 573.369C771.576 579.403 771.995 585.679 771.491 591.677C771.358 593.255 771.143 595.517 769.713 596.485C768.276 597.456 765.809 597.825 764.116 597.508C762.917 597.283 761.854 596.776 761.213 595.675C757.762 589.743 761.457 532.579 760.163 520.278C759.395 512.972 752.163 492.747 749.583 484.613C747.619 478.422 736.411 447.967 737.446 443.266C738.51 441.581 739.356 441.362 741.197 440.379C745.145 440.856 747.458 444.352 748.809 447.848C755.731 465.76 762.335 484.229 768.301 502.497C769.813 500.188 771.051 497.511 772.226 495.011C778.975 480.641 784.933 465.936 790.997 451.271C792.513 447.605 795.021 439.763 800.031 440.604C806.581 444.956 797.464 460.703 795.04 466.556L775.253 513.376Z" fill="#90DBF4"/>
<path d="M668.557 556.428C667.281 562.791 662.479 592.926 659.696 595.955C658.815 596.914 657.524 597.331 656.24 597.268C654.602 597.189 652.815 595.973 651.915 594.628C651.065 593.357 650.831 591.858 650.851 590.363C650.984 580.667 653.941 569.291 655.603 559.663C661.259 526.903 667.644 492.258 675.92 460.154C677.782 452.934 679.1 445.637 685.979 441.572C691.289 441.329 695.629 442.348 697.309 448.104C708.669 487.025 709.986 528.173 717.225 567.929C718.432 574.558 720.17 581.105 721.129 587.772C721.704 591.82 722.357 595.903 717.676 597.437C708.068 596.143 705.014 565.934 703.785 557.511L687.532 556.954C681.256 556.697 674.847 556.591 668.557 556.428ZM689.139 456.713C687.068 462.684 685.945 469.236 684.456 475.409C679.759 494.88 676.596 514.673 672.32 534.238C671.38 538.539 670.339 543.849 670.154 548.201C674.658 549.114 679.354 549.352 683.946 549.704C687.287 550.048 699.205 551.817 701.289 550.401C702.029 544.534 692.255 463.598 690.144 457.656L689.139 456.713Z" fill="url(#paint4_linear_2293_70561)"/>
<path d="M575.035 533.864C575.312 528.71 575.126 523.171 575.076 517.982C574.838 493.673 575.825 469.492 576.659 445.207C596.357 449.572 608.372 462.876 614.262 483.129C624.901 519.707 612.848 565.069 580.159 587.052C579.669 587.382 579.215 587.472 578.663 587.622C577.104 586.814 577.589 587.037 576.687 585.006C576.835 582.896 576.545 579.191 576.408 576.982C575.525 562.653 575.764 548.174 575.035 533.864ZM580.078 449.082C579.944 461.11 579.166 473.329 579.013 485.38C578.797 502.388 578.888 519.411 579.009 536.419C579.36 551.351 579.59 567.238 580.549 582.12C593.35 571.256 599.605 563.507 606.505 548.303C618.957 518.108 619.194 471.304 587.136 452.39C585.059 451.165 582.318 450.062 580.078 449.082Z" fill="#040607"/>
<path d="M400.486 585.609C386.04 590.587 377.452 579.166 373.632 566.565C363.948 534.623 362.889 493.586 376.024 462.44C379.107 455.129 384.555 450.061 391.886 447.518C401.346 446.788 409.84 452.736 414.568 461.202C433.241 494.635 429.713 543.12 410.903 575.838C408.651 579.757 404.249 583.346 400.486 585.609ZM392.631 451.09C369.499 459.945 369.582 510.775 370.886 532.05C371.701 545.327 377.776 591.904 399.633 581.891C431.844 558.606 430.251 448.688 392.631 451.09Z" fill="#040607"/>
<path d="M579.009 536.419C578.888 519.411 578.797 502.388 579.013 485.38C579.166 473.329 579.944 461.11 580.078 449.082C582.318 450.062 585.059 451.165 587.136 452.39C619.194 471.304 618.957 518.108 606.505 548.303C603.105 546.064 596.196 544.256 592.106 542.366C587.773 540.363 583.411 538.196 579.009 536.419Z" fill="#90DBF4"/>
<path d="M399.633 581.891C377.776 591.904 371.701 545.327 370.886 532.05C369.582 510.775 369.499 459.945 392.631 451.09C430.251 448.688 431.844 558.606 399.633 581.891Z" fill="#FFCFD2"/>
<path d="M111.268 475.828C111.507 472.415 111.779 451.022 116.707 451.872C119.804 455.657 117.18 474.168 115.661 478.875C113.609 477.76 113.066 477.336 111.268 475.828Z" fill="#93EE66"/>
<path d="M670.152 548.199C670.337 543.847 671.378 538.537 672.318 534.236C676.594 514.671 679.757 494.878 684.454 475.407C685.943 469.234 687.066 462.682 689.137 456.711L690.142 457.654C692.253 463.596 702.027 544.532 701.287 550.399C699.203 551.815 687.285 550.046 683.944 549.702C679.352 549.35 674.656 549.112 670.152 548.199ZM688.502 478.296C685.983 486.796 684.073 497.797 682.354 506.598L674.638 545.207C677.591 545.345 683.174 545.463 685.879 545.896L697.652 547.134L691.264 498.178C690.898 495.347 689.323 480.182 688.502 478.296Z" fill="#040607"/>
<path d="M906.828 476.697L908.207 468.633C910.137 470.748 912.963 473.546 910.808 476.422C908.861 477.178 908.936 477.091 906.828 476.697Z" fill="#B9FBC0"/>
<path d="M904.606 478.098C898.636 475.354 900.071 469.022 906.424 468.164C905.969 470.799 905.263 475.69 904.606 478.098Z" fill="#B9FBC0"/>
<path d="M145.983 529.088C145.468 511.899 151.216 486.233 157.316 470.125C163.553 488.549 165.954 510.74 170.889 530.012C175.847 549.377 182.326 568.421 187.145 587.65C181.225 583.317 183.439 581.063 174.061 581.1C170.042 567.302 160.728 554.795 154.47 541.938C152.756 538.416 149.135 531.122 145.983 529.088Z" fill="#98F5E1"/>
<path d="M137.825 494.393C141.665 489.876 149.976 477.592 153.887 475.016C150.395 486.513 147.451 497.734 145.836 509.76C138.776 562.345 157.215 617.644 194.028 655.748C198.541 660.419 205.68 665.14 209.638 669.538C209.662 673.799 211.886 680.882 215.752 683.148C212.713 718.539 215.486 744.924 239.049 774.016C252.614 790.762 273.013 803.272 294.413 807.246C295.865 812.07 298.614 814.377 303.723 812.523C306.591 811.482 305.838 810.321 307.362 809.277C319.799 810.096 325.88 809.793 338.158 808.247C338.854 810.978 337.146 812.023 337.4 814.482C337.85 818.817 344.599 820.67 346.331 816.123C347.902 811.998 344.728 810.645 343.44 807.245C371.735 800.315 387.554 790.438 414.134 780.368C419.748 794.353 425.379 804.3 439.102 812.061C435.324 818.905 445.209 826.262 450.223 816.824C464.044 822.387 475.875 823.803 490.493 822.006L490.544 822.337C481.48 843.205 467.98 866.889 448.091 878.971C447.383 874.883 447.171 874.11 445.45 870.149C442.313 869.679 436.401 869.35 436.091 874.242C435.806 878.756 439.31 880.597 442.68 882.558C416.372 901.213 371.178 893.346 344.235 879.147L344.799 878.691L345.561 878.056C353.316 871.693 342.279 863.935 338.428 876.15C311.439 862.854 291.541 841.187 268.198 823.122C260.348 817.046 250.405 812.453 241.669 807.238C238.228 804.469 231.522 801.511 227.348 799.59C218.006 794.374 208.402 789.843 198.831 784.698C139.777 752.948 73.5756 701.742 59.7104 632.317C50.2295 584.845 80.8978 553.71 111.801 523.907C111.982 523.64 112.163 523.373 112.344 523.107L113.9 521.606C115.195 520.464 119.403 515.441 120.813 513.847L137.825 494.393ZM134.437 527.852C128.371 533.254 130.768 541.104 138.208 542.647C143.273 539.667 141.959 528.533 134.437 527.852ZM391.245 809.253C388.087 809.95 386.094 813.078 386.797 816.234C387.5 819.391 390.632 821.378 393.787 820.669C396.934 819.962 398.914 816.84 398.213 813.692C397.512 810.544 394.394 808.557 391.245 809.253ZM317.71 836.431C311.943 840.711 314.83 845.223 320.936 845.377C326.951 841.277 323.511 836.378 317.71 836.431ZM467.281 837.541C462.196 842.772 462.922 848.16 470.489 849.552C477.062 845.555 475.201 838.181 467.281 837.541ZM368.662 839.915C362.047 845.336 361.697 852.238 371.821 852.092C379.13 847.886 375.724 840.363 368.662 839.915ZM418.521 839.977C410.865 843.858 412.5 852.982 421.261 851.698C428.27 846.96 426.534 839.978 418.521 839.977ZM392.663 871.946C384.849 876.15 386.451 883.796 394.895 885.531C402.58 881.056 399.792 872.528 392.663 871.946Z" fill="#98F5E1"/>
<path d="M674.639 545.208L682.355 506.599C684.074 497.798 685.984 486.797 688.503 478.297C689.324 480.183 690.899 495.348 691.265 498.179L697.653 547.135L685.88 545.897C683.175 545.464 677.592 545.346 674.639 545.208Z" fill="#90DBF4"/>
<path d="M113.901 521.607L112.345 523.108C110.168 522.885 109.599 522.823 108.322 521.422C107.476 516.105 104.451 497.319 109.608 494.617C111.364 494.854 111.633 495.323 112.926 496.532C113.563 498.824 114.546 519.01 113.901 521.607Z" fill="#93EE66"/>
<path d="M930.016 508.634C923.207 507.224 925.912 501.589 929.952 498.711L930.52 499.976C930.049 503.603 929.881 504.993 930.016 508.634Z" fill="#D1F0BE"/>
<path d="M930.52 499.976C932.565 499.514 931.559 499.484 933.641 500.215C934.944 501.557 935.15 501.804 935.603 503.82C934.164 505.447 932.047 508.382 930.016 508.634C929.881 504.993 930.049 503.603 930.52 499.976Z" fill="#A1F3BF"/>
<path d="M851.994 570.369C861.749 559.206 871.55 547.548 879.732 535.146C886.459 524.95 891.866 513.641 897.283 502.715C897.817 510.93 896.07 528.562 895.247 537.341C894.192 548.605 893.568 563.418 891.984 574.403C882.515 571.403 873.865 568.904 863.874 569.412C859.982 569.61 855.797 570.641 851.994 570.369Z" fill="#FFEDE1"/>
<path d="M930.016 508.63C932.047 508.378 934.164 505.443 935.603 503.816C935.848 504.153 936.645 505.306 936.904 505.551C938.321 507.648 938.293 507.889 937.572 510.484C935.028 509.996 932.512 509.437 929.982 508.886L930.016 508.63Z" fill="#B9FBC0"/>
<path d="M929.981 508.887C932.511 509.438 935.027 509.997 937.571 510.485C929.74 529.661 953.545 588.493 939.508 616.823C937.893 617.379 938.781 617.299 936.693 616.317L935.705 612.39C934.779 607.714 936.236 602.289 936.409 597.221C936.603 591.566 936.663 587.124 936.244 581.573C934.997 565.052 926.501 523.179 929.981 508.887Z" fill="#D1F0BE"/>
<path d="M918.712 555.401C913.848 554.973 911.292 555.391 910.425 561.327C909.91 564.85 913.951 565.595 916.713 566.099L918.529 566.435L918.716 569.374C917.967 576.761 916.656 581.48 914.641 588.553C904.305 581.308 907.206 580.991 893.445 576.115C896.007 554.306 897.418 530.754 899.499 508.77C908.641 520.911 916.663 540.195 918.712 555.401Z" fill="#FFEDE1"/>
<path d="M138.209 542.647C130.769 541.104 128.372 533.254 134.438 527.852C141.96 528.533 143.274 539.667 138.209 542.647Z" fill="#5CF6DE"/>
<path d="M145.983 529.086C149.135 531.12 152.756 538.414 154.47 541.936C160.728 554.793 170.042 567.3 174.061 581.098C169.683 583.251 169.317 591.02 170.99 595.056C172.534 598.783 178.611 595.949 181.024 600.762C183.258 605.268 187.277 607.261 190.318 610.91C191.988 612.915 193.371 617.368 195.451 619.378L196.344 619.604L196.949 618.561C197.37 619.661 197.563 620.605 198.323 621.393C198.696 623.653 198.712 623.975 199.631 626.026C197.67 629.883 208.6 661.637 209.887 667.867C169.05 636.737 144.766 579.953 145.983 529.086Z" fill="#5CF6DE"/>
<path d="M915.598 535.119C921.438 525.395 928.263 530.15 924.038 538.97C923.349 540.409 919.927 544.736 918.73 546.024C918.023 542.705 916.609 538.453 915.598 535.119Z" fill="#B9FBC0"/>
<path d="M563.574 534.136L564.405 534.619C564.76 537.439 564.036 544.38 564.736 545.552C564.746 543.938 564.52 541.831 565.382 540.617H566.054L567.716 543.561C570.25 543.422 571.447 542.921 573.5 543.878C574.604 545.477 574.293 548.397 574.398 550.612C574.418 547.089 574.221 536.618 575.036 533.863C575.765 548.173 575.526 562.652 576.409 576.981C576.546 579.19 576.836 582.895 576.688 585.005L576.049 584.501C575.937 583.026 575.948 580.474 575.327 579.306C575.167 580.135 574.961 581.205 574.707 582.518C573.424 584.007 573.347 582.212 573.326 584.604C574.893 586.196 575.068 585.833 575.264 587.565L574.685 588.303C573.69 587.427 573.976 587.729 573.25 586.622C570.665 586.621 571.58 589.099 567.784 588.412C567.857 590.129 568.125 592.075 568.169 593.604C564.82 586.554 563.64 543.557 563.574 534.136Z" fill="#FFCFD2"/>
<path d="M579.01 536.422C583.412 538.199 587.774 540.366 592.107 542.369C596.197 544.259 603.106 546.067 606.506 548.306C599.606 563.51 593.351 571.259 580.55 582.123C579.591 567.241 579.361 551.354 579.01 536.422Z" fill="#F1C0E8"/>
<path d="M918.717 569.372L918.53 566.433L916.714 566.097C913.952 565.593 909.911 564.848 910.426 561.325C911.293 555.389 913.849 554.971 918.713 555.399C918.972 559.456 919.324 565.326 918.717 569.372Z" fill="#B9FBC0"/>
<path d="M920.861 563.465C927.997 567.426 930.008 571.797 920.135 573.44C920.516 570.499 920.665 566.505 920.861 563.465Z" fill="#D1F0BE"/>
<path d="M724.264 660.781C727.461 659.073 730.637 657.265 733.696 655.319C754.892 641.838 777.506 631.052 798.428 617.126C818.199 603.966 836.037 587.91 851.995 570.371C855.798 570.643 859.983 569.612 863.875 569.414C873.866 568.906 882.516 571.405 891.985 574.405C890.547 592.969 889.854 606.315 878.838 621.847C853.86 657.064 812.717 665.522 772.103 661.554C756.81 660.061 739.37 658.057 724.264 660.781Z" fill="#E5B2F2"/>
<path d="M893.444 576.113C907.205 580.989 904.304 581.306 914.64 588.551C910.147 603.695 900.566 619.003 890.15 630.898C889.06 629.964 887.941 627.842 887.413 626.49L887.093 625.653C883.619 625.698 880.906 626.081 877.488 626.348C890.929 607.351 891.461 598.8 893.444 576.113Z" fill="#E5B2F2"/>
<path d="M174.06 581.098C183.438 581.061 181.224 583.315 187.144 587.648C188.239 591.039 189.573 595.629 190.85 598.862C188.559 600.191 183.648 601.381 181.023 600.762C178.61 595.949 172.533 598.783 170.989 595.056C169.316 591.02 169.682 583.251 174.06 581.098Z" fill="#3DD8C8"/>
<path d="M868.996 653.354C873.208 649.259 877.917 645.641 882.252 641.346C897.451 626.291 908.969 610.252 915.902 589.922C919.308 592.399 931.53 605.519 931.354 605.445C932.171 604.818 932.488 604.563 933.212 603.834C933.703 605.237 932.423 606.207 932.498 606.76C932.688 608.159 934.938 611.241 935.707 612.393L936.695 616.32C956.979 691.497 924.738 751.517 847.937 768.703C844.732 769.42 841.756 770.327 838.436 770.841C840.409 766.12 854.645 748.685 855.166 743.534C856.047 741.927 858.108 740.042 859.698 737.29L889.502 686.164C902.631 663.564 914.134 639.471 925.055 615.76C925.978 613.753 928.64 608.413 928.898 606.517L928.125 605.832L926.744 605.993C917.266 612.778 901.003 646.714 895.186 658.062C893.408 656.35 894.127 656.562 892.016 656.162C887.62 657.432 886.718 662.748 889.79 666.037L890.459 666.504C890.63 667.965 890.042 668.789 889.401 670.14C889.967 664.808 886.953 665.748 887.104 660.816C887.201 657.624 890.202 655.055 893.32 655.291C894.452 656.01 894.067 655.874 895.327 656.237C899.713 646.802 905.448 637.279 909.844 627.681C912.524 622.852 916.847 618.353 919.002 613.313C920.609 609.555 924.695 605.592 928.658 604.758C925.876 599.939 920.907 594.792 916.355 591.621C910.958 607.065 901.187 622.541 890.237 634.669C886.521 638.786 873.609 652.379 868.996 653.354Z" fill="#E5B2F2"/>
<path d="M718.149 711.053C756.009 700.637 796.863 693.597 832.331 676.408C840.435 672.48 848.091 667.571 855.662 662.727C859.773 660.098 864.24 655.987 868.372 653.689L868.995 653.35C873.608 652.375 886.52 638.782 890.236 634.665C901.186 622.537 910.957 607.061 916.354 591.617C920.906 594.788 925.875 599.935 928.657 604.754C924.694 605.588 920.608 609.551 919.001 613.309C916.846 618.349 912.523 622.848 909.843 627.677C905.447 637.275 899.712 646.798 895.326 656.233C894.066 655.87 894.451 656.006 893.319 655.287C890.201 655.051 887.2 657.62 887.103 660.812C886.952 665.744 889.966 664.804 889.4 670.136C883.665 681.837 877.268 692.947 869.645 703.523C866.306 708.155 855.898 731.736 852.731 733.056C848.945 735.076 847.744 736.126 849.1 740.612C846.141 747.484 838.605 757.09 833.979 763.16C831.189 766.822 827.736 769.56 825.532 773.925L824.819 774.252C817.591 775.784 810.376 777.346 803.158 778.907C800.441 779.495 794.668 781.277 792.419 781.595C787.177 780.207 784.678 781.755 779.684 783.827C771.544 785.795 758.911 788.518 751.482 791.388C750.23 790.3 748.891 789.081 747.592 788.07C744.847 789.555 742.095 791.03 739.371 792.552C736.58 793.489 722.924 797.023 721.444 798.012C718.596 802.467 717.501 806.012 715.893 811.06C708.839 829.833 700.864 848.402 691.708 866.25C689.555 869.623 687.176 873.15 685.463 876.74C681.185 882.577 675.893 890.306 671.044 895.429C642.904 925.162 592.445 945.734 551.734 933.201C548.291 931.257 543.937 929.577 539.689 927.145C529.832 920.482 523.928 910.08 518.389 899.91C516.327 895.972 514.529 892.631 512.22 888.843C510.261 882.854 506.422 875.714 504.158 868.609C500.031 855.656 495.553 834.216 490.545 822.336L490.494 822.005C490.783 810.904 474.303 781.701 464.087 775.835C461.447 774.319 455.066 772.4 451.82 770.944L451.443 770.772C465.683 768.506 473.753 768.707 487.704 768.549C492.443 771.285 498.228 773.604 502.776 776.115C537.222 795.132 568.572 809.863 603.549 782.26C611.292 776.15 619.107 771.331 626.865 763.65C637.475 753.145 650.554 739.953 663.553 732.618C664.57 733.257 666.706 734.632 667.829 734.846C673.586 735.943 677.826 729.183 678.693 724.767C685.961 721.493 694.889 718.649 702.549 716.022C709.286 734.702 727.477 723.3 718.149 711.053ZM868.428 686.948C863.163 690.851 861.75 696.479 869.474 698.214C874.483 695.03 875.619 687.237 868.428 686.948ZM825.111 715.976C815.66 720.589 819.704 729.436 829.124 729.05C837.39 724.692 833.572 715.723 825.111 715.976ZM778.598 726.012C768.252 731.447 772.359 739.518 782.791 740.276C792.352 737.516 787.844 725.72 778.598 726.012ZM734.373 732.392C729.744 735.442 726.249 738.992 730.19 745.213C732.056 748.16 736.424 749.59 739.911 749.476C751.145 742.391 741.831 731.667 734.373 732.392ZM694.469 741.059C684.302 746.047 689.659 756.215 698.694 754.71C708.321 749.853 705.795 739.728 694.469 741.059ZM655.101 747.594C643.323 751.788 645.669 762.539 657.378 764.232C669.728 761.591 664.553 747.028 655.101 747.594ZM807.202 748.634C804.822 748.861 802.767 750.397 801.876 752.616C800.985 754.835 801.407 757.366 802.969 759.176C804.531 760.986 806.973 761.773 809.298 761.216C812.563 760.433 814.666 757.259 814.115 753.948C813.563 750.637 810.544 748.316 807.202 748.634ZM762.544 758.171C758.908 759.487 757.001 763.477 758.262 767.133C759.523 770.788 763.484 772.754 767.158 771.548C769.656 770.728 771.494 768.59 771.929 765.997C772.345 763.516 771.414 761.001 769.482 759.391C767.55 757.78 764.909 757.316 762.544 758.171ZM717.997 763.583C708.528 769.678 714.633 778.834 725.229 778.376C733.407 770.281 728.916 763.167 717.997 763.583ZM682.93 772.6C678.135 773.592 672.35 775.023 673.552 782.104C674.13 785.51 678.311 787.793 681.62 788.331C692.898 786.65 693.901 772.752 682.93 772.6ZM641.308 781.595C637.382 783.269 634.546 787.34 636.468 791.635C638.799 796.841 642.53 796.752 647.459 796.889C654.209 792.408 653.156 787.087 647.808 782.071C645.762 781.882 643.327 781.587 641.308 781.595ZM704.499 791.51C696.094 796.326 698.12 801.899 706.444 804.544C713.208 800.859 713.293 791.43 704.499 791.51Z" fill="url(#paint5_linear_2293_70561)"/>
<path d="M190.85 598.863L196.948 618.562L196.343 619.605L195.45 619.379C193.37 617.369 191.987 612.916 190.317 610.911C187.276 607.262 183.257 605.269 181.023 600.763C183.648 601.382 188.559 600.192 190.85 598.863Z" fill="#98F5E1"/>
<path d="M895.184 658.058C901.001 646.71 917.264 612.774 926.742 605.989L928.123 605.828L928.896 606.513C928.638 608.409 925.976 613.749 925.053 615.756C914.132 639.467 902.629 663.56 889.5 686.16L859.696 737.286C858.106 740.038 856.045 741.923 855.164 743.53C854.643 748.681 840.407 766.116 838.434 770.837L837.073 771.681C832.755 772.104 829.78 772.89 825.531 773.925C827.735 769.56 831.188 766.822 833.978 763.16C838.604 757.09 846.14 747.484 849.099 740.612C850.316 741.662 850.204 741.691 851.768 741.936C853.52 741.567 854.576 740.198 855.896 738.902C856.013 737.003 856.029 736.658 855.821 734.784C854.49 733.273 854.925 733.745 852.73 733.056C855.897 731.736 866.305 708.155 869.644 703.523C877.267 692.947 883.664 681.837 889.399 670.136C890.04 668.785 890.628 667.961 890.457 666.5L889.788 666.033C894.271 664.203 894.947 662.831 895.184 658.058Z" fill="#CFBAF0"/>
<path d="M230.449 625.011C241.298 620.666 259.311 633.897 265.827 643.426C265.892 643.729 265.957 644.032 266.022 644.335C256.304 639.085 246.472 634.367 235.156 637.098C231.619 637.952 228.923 640.292 224.988 641.14C226.154 637.162 230.324 627.818 230.449 625.011Z" fill="#FDE4CF"/>
<path d="M876.658 627.23L877.489 626.347C880.907 626.08 883.62 625.697 887.094 625.652L887.414 626.489C887.942 627.841 889.061 629.963 890.151 630.897C888.784 632.486 887.352 634.23 885.914 635.733C881.085 633.088 880 631.502 876.658 627.23Z" fill="#CFBAF0"/>
<path d="M209.887 667.868C208.6 661.638 197.67 629.884 199.631 626.027C205.905 639.014 210.66 648.782 218.755 660.726C218.067 664.875 217.328 669.041 216.858 673.218C214.565 671.505 212.051 669.715 209.887 667.868Z" fill="#FDE4CF"/>
<path d="M876.657 627.23C879.999 631.502 881.084 633.088 885.913 635.733C840.036 682.591 792.887 690.314 732.228 705.784C713.838 710.474 690.938 717.221 673.77 725.372C671.783 723.024 671.659 717.605 669.219 714.468C668.623 713.7 667.181 710.671 666.707 709.688C681.334 694.078 698.672 677.107 716.756 665.593C727.288 659.739 741.412 660.745 752.681 661.642C781.299 663.92 808.949 667.088 836.46 656.259C853.162 649.685 865.225 641.008 876.657 627.23ZM733.033 668.044C724.405 672.366 725.637 679.23 734.421 681.444C742.494 678.839 742.591 667.824 733.033 668.044ZM689.092 692.025C682.494 696.265 686.283 706.844 695.251 703.348C702.74 697.172 699.095 691.506 690.479 691.943L689.092 692.025Z" fill="#E5B2F2"/>
<path d="M224.988 641.139C228.923 640.291 231.619 637.951 235.156 637.097C246.472 634.366 256.304 639.084 266.022 644.334C279.159 653.747 293.418 662.782 308.965 666.26C348.847 675.18 394.162 666.526 422.394 703.589C434.053 718.896 439.388 730.86 437.772 750.833C435.824 752.379 433.584 757.135 432.313 759.554C409.708 762.312 392.056 772.022 367.857 769.215C331.062 764.947 307.447 742.992 280.826 719.904C258.867 700.858 238.512 682.857 220.451 660.032C221.493 652.775 222.786 648.023 224.988 641.139Z" fill="url(#paint6_linear_2293_70561)"/>
<path d="M681.549 663.999C686.343 660.472 690.658 657.977 696.187 655.846C703.78 652.919 728.827 649.02 735.441 652.079C716.589 663.584 706.212 669.621 689.497 684.773C669.839 702.592 647.305 731.88 624.154 744.404C625.127 741.973 650.183 714.775 654.23 710.085C666.483 695.885 670.926 677.272 681.549 663.999Z" fill="url(#paint7_linear_2293_70561)"/>
<path d="M889.788 666.035C886.716 662.746 887.618 657.43 892.014 656.16C894.125 656.56 893.406 656.348 895.184 658.06C894.947 662.833 894.271 664.205 889.788 666.035Z" fill="#C09ACD"/>
<path d="M216.82 689.835C217.237 685.389 217.597 680.627 218.172 676.224C221.831 678.964 223.197 680.204 227.455 681.88C224.21 678.345 222.377 676.958 218.347 674.266C218.838 670.796 219.431 665.47 220.209 662.191C235.538 682.648 258.971 702.869 278.217 719.692C293.418 732.979 309.85 747.789 327.416 757.734C339.188 764.398 352.459 768.442 365.794 770.54C378.367 772.519 389.671 770.575 402 767.97C404.406 774.26 408.883 772.243 414.109 773.351C413.403 775.603 413.375 776.585 413.783 778.989C373.93 793.001 345.118 815.128 298.757 806.453C275.393 802.082 252.57 790.499 238.661 770.726C239.304 770.906 239.924 771.093 240.554 771.319L240.307 771.04L240.86 770.376C240.389 768.662 235.488 760.643 234.345 758.308C231.383 752.942 229.586 746.736 227.376 741.132C221.472 726.162 219.506 711.388 218.332 695.51C218.275 694.743 217.085 691.069 216.82 689.835Z" fill="#8EECF5"/>
<path d="M734.422 681.446C725.638 679.232 724.406 672.368 733.034 668.046C742.592 667.826 742.495 678.841 734.422 681.446Z" fill="#F3A9C5"/>
<path d="M209.639 669.539C212.061 671.342 214.458 673.12 216.832 674.988L215.753 683.149C211.887 680.883 209.663 673.8 209.639 669.539Z" fill="#FBF8CC"/>
<path d="M869.475 698.215C861.751 696.48 863.164 690.852 868.429 686.949C875.62 687.238 874.484 695.031 869.475 698.215Z" fill="#C09ACD"/>
<path d="M238.662 770.727C238.344 770.49 237.715 769.831 237.447 769.494C219.274 746.74 214.611 717.76 216.821 689.836C217.086 691.07 218.276 694.744 218.333 695.511C219.507 711.389 221.473 726.163 227.377 741.133C229.587 746.737 231.384 752.943 234.346 758.309C235.489 760.644 240.39 768.663 240.861 770.377L240.308 771.041L240.555 771.32C239.925 771.094 239.305 770.907 238.662 770.727Z" fill="#98F5E1"/>
<path d="M695.253 703.351C686.285 706.847 682.496 696.268 689.094 692.028L690.481 691.946C699.097 691.509 702.742 697.175 695.253 703.351Z" fill="#F3A9C5"/>
<path d="M493.596 769.408C518.327 770.23 542.665 774.311 567.26 769.854C608.056 762.461 639.197 739.444 666.709 709.688C667.183 710.67 668.625 713.699 669.221 714.467C671.661 717.604 671.785 723.023 673.772 725.371C659.484 732.496 653.893 736.45 641.896 746.941L638.122 743.258C635.742 746.801 634.855 748.725 634.961 753.091C620.3 768.054 599.487 786.823 579.241 793.477C556.501 800.95 536.208 791.243 516.387 781.081L493.596 769.408Z" fill="#F3A9C5"/>
<path d="M702.549 716.024C707.993 714.095 712.597 712.648 718.149 711.055C727.477 723.302 709.286 734.704 702.549 716.024Z" fill="#F3A9C5"/>
<path d="M829.125 729.052C819.705 729.438 815.661 720.591 825.112 715.978C833.573 715.725 837.391 724.694 829.125 729.052Z" fill="#E5B2F2"/>
<path d="M663.553 732.621C666.787 730.191 674.791 726.572 678.693 724.77C677.826 729.186 673.586 735.946 667.829 734.849C666.706 734.635 664.57 733.26 663.553 732.621Z" fill="#F3A9C5"/>
<path d="M782.791 740.277C772.359 739.519 768.252 731.448 778.598 726.013C787.844 725.721 792.352 737.517 782.791 740.277Z" fill="#E5B2F2"/>
<path d="M739.911 749.478C736.424 749.592 732.056 748.162 730.19 745.215C726.249 738.994 729.744 735.444 734.373 732.394C741.831 731.669 751.145 742.393 739.911 749.478Z" fill="#E5B2F2"/>
<path d="M849.099 740.615C847.743 736.129 848.944 735.079 852.73 733.059C854.925 733.748 854.49 733.276 855.821 734.787C856.029 736.661 856.013 737.006 855.896 738.905C854.576 740.201 853.52 741.57 851.768 741.939C850.204 741.694 850.316 741.665 849.099 740.615Z" fill="#9798AA"/>
<path d="M698.694 754.712C689.659 756.217 684.302 746.049 694.469 741.061C705.795 739.73 708.321 749.855 698.694 754.712Z" fill="#F3A9C5"/>
<path d="M638.121 743.262L641.895 746.945C639.496 748.961 637.141 750.843 634.96 753.095C634.854 748.729 635.741 746.805 638.121 743.262Z" fill="#C09ACD"/>
<path d="M432.312 759.556C433.584 757.137 435.824 752.381 437.772 750.835C442.393 749.351 446.877 747.389 451.605 746.288C463.271 743.573 475.87 747.498 486.257 752.698C491.842 755.494 501.603 762.79 504.63 768.223C489.914 767.397 483.276 765.321 469.098 760.896C458.159 757.482 443.639 757.997 432.312 759.556Z" fill="#FFCFD2"/>
<path d="M657.379 764.232C645.67 762.539 643.324 751.788 655.102 747.594C664.554 747.028 669.729 761.591 657.379 764.232Z" fill="#F3A9C5"/>
<path d="M809.298 761.217C806.973 761.774 804.531 760.987 802.969 759.177C801.407 757.367 800.985 754.836 801.876 752.617C802.767 750.398 804.823 748.862 807.203 748.635C810.545 748.317 813.563 750.638 814.115 753.949C814.666 757.26 812.563 760.434 809.298 761.217Z" fill="#C09ACD"/>
<path d="M767.158 771.549C763.484 772.755 759.523 770.789 758.262 767.134C757.001 763.478 758.908 759.488 762.544 758.172C764.909 757.317 767.55 757.781 769.482 759.392C771.414 761.002 772.345 763.517 771.929 765.998C771.494 768.591 769.656 770.729 767.158 771.549Z" fill="#E5B2F2"/>
<path d="M426.968 762.329C447.021 758.76 464.525 759.406 483.827 766.896C455.253 766.871 441.196 770.491 413.783 778.989C413.375 776.585 413.403 775.603 414.109 773.351C418.403 770.245 425.522 767.569 426.968 762.329Z" fill="#FFCFD2"/>
<path d="M402 767.969C410.317 765.865 418.506 763.776 426.968 762.328C425.522 767.568 418.403 770.244 414.109 773.35C408.883 772.242 404.406 774.259 402 767.969Z" fill="#90DBF4"/>
<path d="M725.229 778.377C714.633 778.835 708.528 769.679 717.997 763.584C728.916 763.168 733.407 770.282 725.229 778.377Z" fill="#F3A9C5"/>
<path d="M414.135 780.368C425.843 776.881 439.589 773.077 451.443 770.773L451.82 770.945C455.066 772.401 461.447 774.32 464.087 775.836C474.303 781.702 490.783 810.905 490.494 822.006C475.876 823.803 464.045 822.387 450.224 816.824C446.476 815.29 442.81 813.685 439.103 812.061C425.38 804.3 419.749 794.353 414.135 780.368ZM436.806 777.617C435.839 784.866 438.631 794.412 447.298 788.341C452.255 780.323 443.041 778.38 436.806 777.617ZM465.946 785.591C463.38 786.524 461.011 788.273 462.534 791.116C464.818 795.381 467.878 794.698 471.394 794.138C477.938 791.794 475.172 787.478 470.18 785.738C469.41 785.469 466.876 785.573 465.946 785.591Z" fill="#A3C4F3"/>
<path d="M825.532 773.928C829.781 772.893 832.756 772.107 837.074 771.684C809.549 807.661 765.547 838.057 725.728 859.281C714.335 865.353 698.028 873.488 685.463 876.743C687.176 873.153 689.555 869.626 691.708 866.253C702.527 859.65 717.912 855.07 729.136 847.919C737.442 842.626 748.773 837.934 756.688 831.986C776.756 816.906 811.604 794.847 824.819 774.255L825.532 773.928Z" fill="#D1F0BE"/>
<path d="M681.619 788.333C678.31 787.795 674.129 785.512 673.551 782.106C672.349 775.025 678.134 773.594 682.929 772.602C693.9 772.754 692.897 786.652 681.619 788.333Z" fill="#F3A9C5"/>
<path d="M792.418 781.597C794.667 781.279 800.44 779.497 803.157 778.909C810.375 777.348 817.59 775.786 824.818 774.254C811.603 794.846 776.755 816.905 756.687 831.985C748.772 837.933 737.441 842.625 729.135 847.918C717.911 855.069 702.526 859.649 691.707 866.252C700.863 848.404 708.838 829.835 715.892 811.062C722.859 809.627 724.44 803.986 721.443 798.014C722.923 797.025 736.579 793.491 739.37 792.554C739.552 802.814 751.625 802.413 751.481 791.39C758.91 788.52 771.543 785.797 779.683 783.829C781.816 793.86 792.916 791.466 792.418 781.597ZM754.351 809.307C751.175 810.73 749.704 814.419 751.027 817.638C752.35 820.857 755.99 822.444 759.249 821.222C761.451 820.397 763.028 818.439 763.365 816.113C763.703 813.786 762.747 811.461 760.871 810.044C758.995 808.628 756.496 808.345 754.351 809.307ZM711.889 833.011C704.395 837.823 707.341 844.491 716.114 844.269C722.138 839.221 721.025 832.731 712.449 832.99L711.889 833.011Z" fill="#FFEDE1"/>
<path d="M447.297 788.341C438.63 794.412 435.838 784.866 436.805 777.617C443.04 778.38 452.254 780.323 447.297 788.341Z" fill="#4BC6D9"/>
<path d="M779.684 783.828C784.678 781.756 787.177 780.208 792.419 781.596C792.917 791.465 781.817 793.859 779.684 783.828Z" fill="#B9FBC0"/>
<path d="M647.459 796.892C642.53 796.755 638.799 796.844 636.468 791.638C634.546 787.343 637.382 783.272 641.308 781.598C643.327 781.59 645.762 781.885 647.808 782.074C653.156 787.09 654.209 792.411 647.459 796.892Z" fill="#F3A9C5"/>
<path d="M471.394 794.14C467.878 794.7 464.818 795.383 462.534 791.118C461.011 788.275 463.38 786.526 465.946 785.593C466.876 785.575 469.41 785.471 470.18 785.74C475.172 787.48 477.938 791.796 471.394 794.14Z" fill="#4BC6D9"/>
<path d="M747.592 788.07C748.891 789.081 750.23 790.3 751.482 791.388C751.626 802.411 739.553 802.812 739.371 792.552C742.095 791.03 744.847 789.555 747.592 788.07Z" fill="#B9FBC0"/>
<path d="M706.445 804.546C698.121 801.901 696.095 796.328 704.5 791.512C713.294 791.432 713.209 800.861 706.445 804.546Z" fill="#F3A9C5"/>
<path d="M715.893 811.064C717.501 806.016 718.596 802.471 721.444 798.016C724.441 803.988 722.86 809.629 715.893 811.064Z" fill="#B9FBC0"/>
<path d="M227.35 799.59C231.524 801.511 238.23 804.469 241.671 807.238C242.801 820.442 276.931 855.076 288.616 864.205C324.606 892.321 372.623 907.635 416.452 918.932C423.326 920.677 434.458 923.257 441.231 924.087L442.46 924.248C441.985 926.886 441.355 929.789 442.545 932.277C439.298 932.312 428.114 929.432 424.553 928.654C399.734 923.231 372.933 916.024 349.382 906.492C333.44 900.039 309.58 889.326 295.592 880.175C272.118 864.82 247.763 838.495 234.8 813.534C232.418 808.947 229.43 804.414 227.35 799.59Z" fill="#D1F0BE"/>
<path d="M338.159 808.248C338.584 808.096 342.724 807.38 343.441 807.246C344.729 810.646 347.903 811.999 346.332 816.124C344.6 820.671 337.851 818.818 337.401 814.483C337.147 812.024 338.855 810.979 338.159 808.248Z" fill="#5CF6DE"/>
<path d="M241.67 807.238C250.406 812.453 260.349 817.046 268.199 823.122C291.542 841.187 311.44 862.854 338.429 876.15L344.236 879.147C371.179 893.346 416.373 901.213 442.681 882.558L448.092 878.971C467.981 866.889 481.481 843.205 490.545 822.337C495.553 834.217 500.031 855.657 504.158 868.61C506.422 875.715 510.261 882.855 512.22 888.844C504.177 895.119 509.025 904.179 518.389 899.911C523.928 910.081 529.832 920.483 539.689 927.146C523.596 930.83 495.177 930.529 478.296 929.304C469.3 928.651 458.127 926.492 448.38 925.766C446.002 924.917 444.957 924.705 442.459 924.248L441.23 924.087C434.457 923.257 423.325 920.677 416.451 918.932C372.622 907.635 324.605 892.321 288.615 864.205C276.93 855.076 242.8 820.442 241.67 807.238ZM485.967 861.485C480.774 866.324 482.717 873.916 490.398 872.781C495.771 868.045 493.674 861.105 485.967 861.485ZM460.442 895.328C457.412 896.077 455.563 899.141 456.312 902.171C457.061 905.201 460.125 907.051 463.155 906.301C466.185 905.552 468.035 902.489 467.285 899.458C466.536 896.428 463.473 894.579 460.442 895.328ZM409.514 899.834C403.127 904.017 401.351 910.905 410.211 912.401C418.033 910.868 416.811 902.227 409.514 899.834ZM488.801 916.234C486.055 917.312 484.7 920.41 485.773 923.158C486.845 925.907 489.941 927.268 492.691 926.2C495.45 925.13 496.815 922.024 495.739 919.268C494.664 916.512 491.555 915.152 488.801 916.234Z" fill="#FFEDE1"/>
<path d="M294.414 807.246C296.073 807.557 307.14 809.204 307.363 809.277C305.839 810.321 306.592 811.482 303.724 812.523C298.615 814.377 295.866 812.07 294.414 807.246Z" fill="#5CF6DE"/>
<path d="M393.787 820.668C390.632 821.377 387.5 819.39 386.797 816.233C386.094 813.077 388.087 809.949 391.245 809.252C394.394 808.556 397.512 810.543 398.213 813.691C398.914 816.839 396.934 819.961 393.787 820.668Z" fill="#5CF6DE"/>
<path d="M759.25 821.221C755.991 822.443 752.351 820.856 751.028 817.637C749.705 814.418 751.176 810.729 754.352 809.306C756.497 808.344 758.996 808.627 760.872 810.043C762.748 811.46 763.704 813.785 763.366 816.112C763.029 818.438 761.452 820.396 759.25 821.221Z" fill="#B9FBC0"/>
<path d="M450.224 816.826C445.21 826.264 435.325 818.906 439.103 812.062C442.81 813.686 446.476 815.292 450.224 816.826Z" fill="#5CF6DE"/>
<path d="M716.114 844.271C707.341 844.493 704.395 837.825 711.889 833.013L712.449 832.992C721.025 832.733 722.138 839.223 716.114 844.271Z" fill="#B9FBC0"/>
<path d="M320.938 845.376C314.832 845.222 311.945 840.71 317.712 836.43C323.513 836.377 326.953 841.276 320.938 845.376Z" fill="#5CF6DE"/>
<path d="M470.489 849.554C462.922 848.162 462.196 842.774 467.281 837.543C475.201 838.183 477.062 845.557 470.489 849.554Z" fill="#5CF6DE"/>
<path d="M371.821 852.091C361.697 852.237 362.047 845.335 368.662 839.914C375.724 840.362 379.13 847.885 371.821 852.091Z" fill="#5CF6DE"/>
<path d="M421.262 851.698C412.501 852.982 410.866 843.858 418.522 839.977C426.535 839.978 428.271 846.96 421.262 851.698Z" fill="#5CF6DE"/>
<path d="M490.397 872.784C482.716 873.919 480.773 866.327 485.966 861.488C493.673 861.108 495.77 868.048 490.397 872.784Z" fill="#B9FBC0"/>
<path d="M445.451 870.149C447.172 874.11 447.384 874.883 448.092 878.971L442.681 882.558C439.311 880.597 435.807 878.756 436.092 874.242C436.402 869.35 442.314 869.679 445.451 870.149Z" fill="#5CF6DE"/>
<path d="M338.43 876.149C342.281 863.934 353.318 871.692 345.563 878.055L344.801 878.69L344.237 879.146L338.43 876.149Z" fill="#5CF6DE"/>
<path d="M394.897 885.53C386.453 883.795 384.851 876.149 392.665 871.945C399.794 872.527 402.582 881.055 394.897 885.53Z" fill="#5CF6DE"/>
<path d="M518.388 899.911C509.024 904.179 504.176 895.119 512.219 888.844C514.528 892.632 516.326 895.973 518.388 899.911Z" fill="#B9FBC0"/>
<path d="M463.156 906.304C460.126 907.054 457.062 905.204 456.313 902.174C455.564 899.144 457.413 896.08 460.443 895.331C463.474 894.582 466.537 896.431 467.286 899.461C468.036 902.492 466.186 905.555 463.156 906.304Z" fill="#B9FBC0"/>
<path d="M410.212 912.403C401.352 910.907 403.128 904.019 409.515 899.836C416.812 902.229 418.034 910.87 410.212 912.403Z" fill="#B9FBC0"/>
<path d="M492.692 926.201C489.942 927.269 486.846 925.908 485.774 923.159C484.701 920.411 486.056 917.313 488.802 916.235C491.556 915.153 494.665 916.513 495.74 919.269C496.816 922.025 495.451 925.131 492.692 926.201Z" fill="#B9FBC0"/>
<path d="M442.459 924.25C444.957 924.707 446.002 924.919 448.38 925.768C448.51 928.043 448.863 930.191 448.138 932.292C447.266 933.18 447.657 932.97 446.569 933.422L442.544 932.279C441.354 929.791 441.984 926.888 442.459 924.25Z" fill="#A1F3BF"/>
<path d="M448.379 925.766C458.126 926.492 469.299 928.651 478.295 929.304C495.176 930.529 523.595 930.83 539.688 927.146C543.936 929.578 548.29 931.258 551.733 933.202C548.794 934.211 536.218 936.152 533.155 936.485C503.315 939.729 476.059 938.126 446.568 933.42C447.656 932.968 447.265 933.178 448.137 932.29C448.862 930.189 448.509 928.041 448.379 925.766Z" fill="#D1F0BE"/>
<defs>
<linearGradient id="paint0_linear_2293_70561" x1="160.655" y1="555.107" x2="803.864" y2="538.727" gradientUnits="userSpaceOnUse">
<stop stop-color="#FDD8CC"/>
<stop offset="1" stop-color="#F8D5DE"/>
</linearGradient>
<linearGradient id="paint1_linear_2293_70561" x1="274.43" y1="377.569" x2="294.067" y2="377.216" gradientUnits="userSpaceOnUse">
<stop stop-color="#FFDBC6"/>
<stop offset="1" stop-color="#F8D3D4"/>
</linearGradient>
<linearGradient id="paint2_linear_2293_70561" x1="602.992" y1="538.934" x2="872.098" y2="512.153" gradientUnits="userSpaceOnUse">
<stop stop-color="#C9DDF6"/>
<stop offset="1" stop-color="#95FDF9"/>
</linearGradient>
<linearGradient id="paint3_linear_2293_70561" x1="533.361" y1="547.31" x2="626.78" y2="476.278" gradientUnits="userSpaceOnUse">
<stop stop-color="#F1CDDA"/>
<stop offset="1" stop-color="#B2E1FC"/>
</linearGradient>
<linearGradient id="paint4_linear_2293_70561" x1="653.013" y1="518.586" x2="721.589" y2="520.069" gradientUnits="userSpaceOnUse">
<stop stop-color="#C5DCF7"/>
<stop offset="1" stop-color="#C0ECFC"/>
</linearGradient>
<linearGradient id="paint5_linear_2293_70561" x1="596.301" y1="948.363" x2="748.906" y2="530.595" gradientUnits="userSpaceOnUse">
<stop stop-color="#FFA6AA"/>
<stop offset="1" stop-color="#DEB6FF"/>
</linearGradient>
<linearGradient id="paint6_linear_2293_70561" x1="356.745" y1="656.878" x2="303.198" y2="739.104" gradientUnits="userSpaceOnUse">
<stop stop-color="#C1E5F9"/>
<stop offset="1" stop-color="#A4F9FB"/>
</linearGradient>
<linearGradient id="paint7_linear_2293_70561" x1="666.581" y1="684.765" x2="696.685" y2="705.077" gradientUnits="userSpaceOnUse">
<stop stop-color="#F8AAB5"/>
<stop offset="1" stop-color="#E5B2EF"/>
</linearGradient>
</defs>
</svg>
