<svg width="1024" height="1024" viewBox="0 0 1024 1024" fill="none" xmlns="http://www.w3.org/2000/svg">
<path d="M545.594 242.043C547.124 235.777 550.27 229.399 552.844 223.488C566.715 191.635 590.236 156.17 620.436 137.877C658.481 114.831 702.179 113.575 744.4 124.152C813.387 140.906 872.672 184.834 908.787 245.954C938.417 295.52 953.173 362.544 949.703 420.09C948.446 440.927 944.661 461.558 939.535 481.768C932.161 510.845 921.642 538.312 905.105 563.412C898.874 544.385 894.653 527.082 885.038 509.213C849.626 443.396 786.78 408.198 717.237 387.333C714.167 373.166 713.106 354.832 711.315 340.082C708.844 319.716 705.399 299.386 703.818 278.932L712.722 278.662C713.481 271.092 713.643 263.192 713.498 255.581C712.489 254.309 711.44 253.045 710.278 251.907C705.453 247.181 698.933 244.391 692.363 243.206C685.073 241.89 677.655 242.214 670.279 242.204L641.99 242.19L545.594 242.043Z" fill="#8EECF5"/>
<path d="M489.33 278.862C489.452 270.783 489.545 257.586 495.476 251.581C506.698 240.219 530.941 242.104 545.593 242.043L641.989 242.19L670.278 242.204C677.654 242.214 685.072 241.89 692.362 243.206C698.932 244.391 705.452 247.181 710.277 251.907C711.439 253.045 712.488 254.309 713.497 255.581C713.642 263.192 713.48 271.092 712.721 278.662L703.817 278.932C705.398 299.386 708.843 319.716 711.314 340.082C713.105 354.832 714.166 373.166 717.236 387.333C719.606 405.626 722.28 423.877 725.257 442.081C758.981 449.439 790.623 465.411 809.779 495.308C816.521 505.83 822.781 517.222 828.1 528.526C820.393 531.793 811.903 533.913 803.767 535.801C787.547 507.93 775.287 492.994 745.778 478.815C734.732 473.508 723.577 469.215 711.717 466.091C702.778 463.737 693.512 461.88 684.245 461.702C657.474 461.189 625.284 471.45 602.309 484.844C570.365 503.468 553.913 529.992 544.767 565.12C539.114 586.832 538.655 609.179 537.957 631.471C537.599 635.859 537.51 640.176 537.552 644.577C544.485 641.663 549.844 637.618 555.501 632.714C557.004 631.376 558.223 630.081 560.335 630.023C557.427 636.072 543.768 644.456 537.375 646.662C525.893 650.625 500.333 649.082 487.063 649.388C475.417 649.7 463.778 650.242 452.153 651.012C431.859 650.976 412.87 636.517 397.027 625.203C401.237 636.011 398.409 644.516 397.409 655.521C396.973 660.319 397.436 665.586 395.96 670.207C394.475 674.859 390.365 677.789 388.037 681.922C384.708 687.829 383.032 694.951 378.879 700.387C375.206 705.195 368.988 708.434 364.449 712.431C360.082 716.276 355.636 723.2 350.344 725.549C344.602 728.098 338.206 728.664 332.244 730.523C326.412 732.341 320.894 735.745 314.748 736.391C308.561 737.042 302.312 734.836 296.189 734.201C290.152 733.575 283.884 734.893 278.018 732.928C272.674 731.139 268.452 727.217 263.464 724.739C259.78 722.908 255.613 722.096 251.863 720.416C239.707 714.968 235.71 701.391 228.091 691.74C224.721 687.472 219.719 684.36 217.421 679.313C215.389 674.85 216.298 670.346 215.358 665.723C214.63 662.146 212.418 658.902 211.163 655.499C208.123 647.262 213.604 640.256 213.749 632.129C213.841 627.021 211.698 621.308 213.214 616.335C214.845 610.989 218.984 606.096 221.285 600.909C226.966 586.11 229.023 583.033 240.644 572.44C244.443 568.977 248.214 565.246 252.396 562.245C271.422 548.592 297.325 543.064 320.313 546.939C339.397 550.155 357.84 559.054 371.141 573.298C375.669 578.147 379.457 583.574 383.317 588.954C389.612 599.946 392.823 610.821 396.42 622.817C400.297 624.917 403.922 627.522 407.581 629.977C407.1 607.85 397.912 589.335 384.363 572.366C382.561 569.617 380.217 566.948 377.987 564.536C359.203 544.413 333.268 532.471 305.765 531.284C306.108 534.35 307.039 537.849 305.176 540.578C304.409 541.703 303.285 542.373 301.935 542.542C299.115 542.896 296.243 541.473 294.063 539.828C293.913 537.394 295.293 533.98 295.681 531.464C284.754 531.734 272.89 532.934 262.497 536.374C257.01 538.19 251.594 541.034 245.971 542.315C244.053 542.752 242.356 542.652 240.725 541.465C238.966 540.185 236.942 537.414 236.7 535.202C236.308 531.605 237.6 527.264 237.715 523.573C238.254 506.223 236.695 484.374 247.642 469.689C251.958 463.899 257.644 459.476 264 456.125C286.399 444.314 315.668 439.958 340.341 435.647C355.624 432.913 370.941 430.371 386.288 428.021C386.732 417.949 385.536 407.808 386.163 397.819C387.513 396.368 389.134 397.434 390.795 396.333C391.838 387.264 390.902 376.67 390.882 367.412C390.855 354.408 391.651 340.779 390.582 327.838C390.445 326.178 390.081 324.614 389.469 323.063C386.604 315.8 375.075 306.72 374.496 300.492C374.321 298.613 374.698 296.959 375.937 295.505C377.192 294.032 378.746 293.292 380.677 293.255C383.782 293.196 387.104 295.915 389.175 297.951C395.352 304.026 401.775 312.683 404.14 321.155C406.494 329.59 405.013 339.679 405.02 348.35L405.116 396.573C406.872 396.551 408.616 396.299 410.166 397.258C411.579 400.759 410.146 418.972 409.984 423.944C421.395 422.259 432.755 420.326 444.186 418.756C454.253 417.373 464.393 416.373 474.43 414.797C477.687 401.982 479.363 388.37 481.581 375.333L490.221 324.86C492.773 309.515 495.08 294.264 498.316 279.032C495.323 279.037 492.323 278.93 489.33 278.862ZM544.2 244.204C530.423 243.938 507.88 242.449 497.374 252.937C491.582 258.719 492.077 269.129 491.37 276.834C506.098 276.565 520.829 276.503 535.558 276.646L710.803 276.606C711.269 269.866 711.565 263.177 711.477 256.42C710.878 255.711 710.264 255.014 709.636 254.33C704.973 249.274 698.469 246.436 691.789 245.23C680.506 243.192 662.404 244.415 650.38 244.392L582.538 244.443C569.772 244.446 556.959 244.666 544.2 244.204ZM550.546 278.857L516.301 278.901C509.034 320.358 503.151 362.043 495.769 403.474C494.672 412.485 492.766 421.553 491.264 430.515C488.185 449.096 485.212 467.694 482.346 486.309L466.7 593.466C464.58 607.148 462.889 620.948 460.274 634.545C463.389 634.755 466.514 634.882 469.631 635.049C470.711 627.077 471.664 619.045 473.111 611.132C474.01 606.213 475.481 601.391 476.257 596.455L492.301 499.606C497.878 465.73 501.628 431.523 507.59 397.7C511.041 377.14 515.31 356.73 518.946 336.202C520.907 325.127 522 313.787 524.255 302.79C524.608 301.071 525.006 299.163 526.291 297.881C527.53 296.646 528.911 296.251 530.602 296.009C536.44 295.17 542.907 295.686 548.831 295.692C560.374 295.77 571.916 295.736 583.458 295.591C594.706 295.715 605.955 295.701 617.202 295.55C622.55 295.515 628.37 295.009 633.665 295.722C635.594 295.982 637.217 296.493 638.638 297.871C639.904 299.098 640.361 300.385 640.612 302.091C641.786 310.053 641.043 318.841 641.057 326.927L641.137 375.158C641.082 397.682 640.096 420.649 641.457 443.123L651.603 440.666C652.029 418.967 650.699 397.328 650.742 375.662C650.759 359.856 650.669 344.05 650.471 328.245C650.382 321.306 649.195 313.325 650.399 306.534C650.854 303.969 652.572 301.516 654.378 299.707C657.751 296.328 662.542 294.108 667.355 294.187C672.172 294.267 677.098 296.214 680.337 299.844C682.602 302.383 683.511 305.366 684.106 308.665C685.762 317.845 685.616 328.001 686.269 337.349C687.285 351.876 688.735 366.347 690.034 380.849C691.846 399.743 692.678 418.721 694.536 437.608C704.095 438.525 713.603 439.914 723.025 441.77L714.793 385.742C710.064 350.139 705.612 314.5 701.437 278.828C680.106 278.126 658.655 278.709 637.312 278.798L550.546 278.857ZM585.603 297.845C577.399 297.844 532.834 296.552 527.943 298.951C524.64 306.026 522.14 328.812 520.552 337.855L509.878 395.853C506.738 413.046 504.488 430.436 501.92 447.723C499.722 462.518 497.025 477.4 495.839 492.317C517.967 491.816 540.103 491.74 562.234 492.088C565.738 487.949 569.506 484.132 573.325 480.288C575.146 469.381 576.582 458.412 577.632 447.404C578.578 438.372 579.218 429.208 580.783 420.261C589.899 419.278 599.301 419.545 608.472 419.504L638.942 419.193L639.071 375.275L638.972 328.844C638.953 321.151 639.434 313.06 638.804 305.405C638.643 303.452 638.349 300.497 637.062 298.946C635.012 296.478 591.49 297.825 585.603 297.845ZM687.709 379.63C686.837 365.218 685.202 350.797 684.136 336.386C683.463 327.28 683.724 317.049 681.88 308.144C681.274 305.22 680.239 302.7 678.106 300.548C675.337 297.752 671.164 296.154 667.244 296.179C663.069 296.206 658.852 298.179 655.937 301.126C654.333 302.749 652.765 304.979 652.373 307.274C651.12 314.616 652.325 323.354 652.455 330.859C652.717 345.898 652.877 360.938 652.937 375.979C653.506 397.418 653.183 418.85 653.636 440.279C666.656 437.857 679.12 436.723 692.367 437.487C691.316 424.714 690.337 411.934 689.431 399.15C688.955 392.802 688.889 385.865 687.709 379.63ZM493.41 405.64C501.148 363.519 506.746 321.027 514.292 278.867L500.184 279.019C491.886 323.433 486.079 368.331 477.177 412.636L476.256 416.875C452.889 419.48 429.862 423.289 406.626 426.712C385.763 429.971 364.933 433.439 344.139 437.117C318.941 441.516 291.458 445.308 268.193 456.343C260.791 459.853 253.913 464.636 249.036 471.323C239.126 484.91 239.283 511.742 240.307 528.174C274.196 514.141 313.906 510.329 348.353 524.72C362.253 530.527 373.537 538.036 384.92 547.865C394.942 557.968 403.687 567.916 411.114 580.149L433.625 580.128C434.137 567.511 434.023 554.868 434.537 542.241L404.232 542.649C398.201 542.759 392.026 543.241 386.018 542.801C386.851 541.305 386.949 541.217 388.49 540.468C398.242 541.509 409.776 540.483 419.705 540.304C437.551 540.007 455.399 539.806 473.248 539.702C478.076 494.841 485.906 450.124 493.41 405.64ZM387.933 554.021C382.01 548.125 375.786 542.456 368.839 537.776C349.868 524.995 325.069 517.628 302.253 517.661C283.582 517.689 265.682 521.657 248.126 527.802C245.552 528.703 241.009 529.777 239.038 531.617C238.564 532.06 238.363 532.867 238.352 533.494C238.303 536.178 241.443 538.967 243.372 540.457C243.554 540.598 243.74 540.734 243.924 540.872C251.427 538.047 258.934 534.992 266.706 532.989C293.041 526.202 322.228 527.797 347.024 539.088C361.654 545.75 373.891 556.463 384.384 568.457C400.616 589.689 407.972 605.301 409.994 632.284L422.071 638.868C432.202 645.253 445.604 651.25 457.89 648.749C470.389 647.928 482.909 647.454 495.435 647.327C508.197 647.135 522.774 648.674 535.075 645.271C535.726 640.387 535.706 635.286 535.95 630.36C536.397 608.924 537.246 586.956 542.478 566.071C551.463 530.205 568.276 502.675 600.694 483.438C624.41 469.366 657.723 459.077 685.487 459.829C694.359 460.069 703.195 461.801 711.771 464.014C724.012 467.173 735.498 471.459 746.889 476.949C775.373 490.676 788.917 506.34 804.724 533.215C811.803 531.659 818.497 529.608 825.208 526.861C820.623 517.07 809.844 498.207 803.339 489.673C779.113 457.893 741.275 445.51 703.229 440.473C662.158 435.036 617.395 447.761 584.69 473.069C574.225 481.167 568.964 487.918 561.027 498.163C557.254 503.035 553.236 507.688 549.959 512.928C528.35 547.481 524.533 590.52 519.358 630.026L518.496 637.802C498.986 637.147 479.406 638.016 459.917 636.85C448.177 636.006 436.424 635.353 424.663 634.89C422.962 604.289 409.857 575.436 387.933 554.021ZM382.828 592.929C381.086 589.028 378.29 585.345 375.681 581.987C365.682 569.124 353.322 559.885 338.099 554.046C314.68 545.064 289.445 546.121 266.622 556.493C255.945 561.344 237.752 575.681 230.896 585.126C228.302 588.7 226.507 592.704 224.977 596.828C224.827 597.231 224.692 597.639 224.554 598.046C221.951 604.474 216.996 610.745 215.034 617.071C213.61 621.661 215.78 626.835 215.652 631.545C215.429 639.778 209.933 647.575 213.435 655.761C214.676 658.662 216.533 661.649 217.147 664.759C218.048 669.32 217.275 674.63 219.184 678.899C221.16 683.317 225.872 685.654 228.725 689.364C237.514 700.794 241.014 714.188 255.74 719.952C259.165 721.293 262.836 722.402 266.058 724.177C270.028 726.363 273.683 729.546 277.989 731.035C283.897 733.079 290.354 732.315 296.498 732.497C301.542 732.646 306.419 734.718 311.44 734.743C318.789 734.779 325.078 730.835 331.924 728.772C337.657 727.044 343.482 726.031 349.118 723.927C349.305 723.857 349.495 723.796 349.682 723.723C354.308 721.925 359.166 714.951 362.997 711.58C367.531 707.59 373.112 704.58 377.051 699.935C381.396 694.812 382.837 687.193 386.196 681.416C388.405 677.617 392.343 674.794 393.873 670.601C395.532 666.059 394.946 660.129 395.393 655.305C395.949 649.297 397.555 643.348 397.774 637.316C398.082 628.834 392.528 618.005 390.331 609.578C389.519 606.634 388.362 603.714 387.357 600.825C385.961 598.087 384.567 595.471 382.828 592.929ZM378.391 295.368C377.212 296.727 376.329 297.902 376.48 299.79C376.894 304.96 389.571 314.795 392.115 323.962C393.996 330.741 392.897 345.134 392.88 352.534C392.828 367.351 392.913 382.168 393.134 396.983L401.99 396.933L402.882 396.502C403.335 393.169 403 389.725 403.015 386.362C403.112 378.6 403.131 370.838 403.07 363.076C403.013 352.696 404.079 332.397 402.183 323.007C401.161 317.949 398.939 313.71 395.858 309.622C392.83 305.603 386.835 296.099 381.516 295.4C380.497 295.266 379.416 295.322 378.391 295.368ZM400.118 399.275C396.051 399.337 391.985 399.373 387.918 399.382C388.535 408.749 388.704 418.14 388.425 427.523L394.609 426.453C398.927 425.751 403.264 425.107 407.568 424.325L408.505 399.079L400.118 399.275ZM626.325 421.256C611.898 421.521 596.893 420.99 582.568 422.36C579.808 440.578 578.692 459.08 576.228 477.353C578.856 475.206 581.461 473.02 584.123 470.916C601.108 458.716 618.773 449.179 639.077 443.666C638.952 436.169 638.904 428.672 638.933 421.174L626.325 421.256ZM501.617 494.268L495.218 494.521C492.632 510.284 489.857 526.016 486.894 541.712C502.427 541.695 518.08 541.325 533.602 541.912C534.884 538.778 536.1 535.589 537.513 532.513C543.917 518.257 551.918 506.414 561.453 494.12C541.525 493.976 521.54 493.685 501.617 494.268ZM299.617 531.25L298.298 531.423C297.186 532.905 296.43 535.244 296.724 537.096C296.829 537.764 297.148 538.883 297.71 539.259C298.673 539.903 299.999 539.906 301.124 540.032C302.533 539.6 303.3 539.688 303.941 538.208C304.778 536.277 305.017 534.41 304.018 532.535C303.536 531.63 303.411 531.336 302.369 531.151C301.558 531.006 300.449 531.192 299.617 531.25ZM436.548 542.173L435.54 580.064C440.478 580.051 464.146 580.836 466.723 579.809C467.01 578.995 467.217 578.283 467.321 577.425C469.187 565.661 471.383 553.82 472.779 541.995C460.702 541.968 448.624 542.027 436.548 542.173ZM486.624 543.624C486.343 544.966 485.761 546.503 486.351 547.804C491.005 548.731 496.487 548.179 501.253 548.173L531.983 548.163C532.251 546.911 532.9 545.39 532.404 544.208C526.75 543.467 520.818 543.689 515.109 543.637C505.622 543.552 496.111 543.514 486.624 543.624ZM485.335 550.032C484.347 556.874 483.167 563.699 482.241 570.546L511.39 570.475C515.859 570.459 521.828 571.148 526.105 570.059L526.585 569.244C528.084 562.848 529.894 556.567 531.596 550.226L485.335 550.032ZM483.867 572.748C483.126 572.827 482.384 572.663 481.894 573.298C480.437 575.185 480.499 579.089 480.271 581.418C494.708 581.368 509.2 580.919 523.629 581.226C524.83 580.433 524.82 579.412 525.13 578.027C525.531 576.235 525.817 574.403 526.138 572.595C512.063 572.669 497.939 572.987 483.867 572.748ZM422.373 582.249L411.998 582.348C420.107 598.73 424.031 614.978 426.634 632.952C437.081 633.277 447.924 633.06 458.26 634.541C461.672 617.152 463.49 599.491 466.686 582.078L422.373 582.249ZM514.245 583.251L479.559 583.575C478.395 590.039 477.54 596.489 476.796 603.013L486.865 602.966L520.765 602.89C522.017 596.335 523.059 589.746 524.286 583.19L514.245 583.251ZM476.186 605.055L475.265 610.867L519.813 610.809L520.699 605C505.878 605.012 491 604.739 476.186 605.055ZM474.378 612.905C473.29 620.254 471.987 627.666 471.341 635.064C486.479 635.347 501.619 635.513 516.759 635.562C517.504 628.036 518.39 620.525 519.417 613.033C504.404 613.068 489.391 613.025 474.378 612.905Z" fill="#040305"/>
<path d="M491.369 276.834C492.076 269.129 491.581 258.719 497.373 252.937C507.879 242.449 530.422 243.938 544.199 244.204C542.192 255.158 536.955 265.451 535.557 276.646C520.828 276.503 506.097 276.565 491.369 276.834Z" fill="#FDE4CF"/>
<path d="M544.201 244.202C556.96 244.664 569.773 244.444 582.539 244.441L650.381 244.39C662.405 244.413 680.507 243.19 691.79 245.228C698.47 246.434 704.974 249.272 709.637 254.328C710.265 255.012 710.879 255.709 711.478 256.418C711.566 263.175 711.27 269.864 710.804 276.604L535.559 276.644C536.957 265.449 542.194 255.156 544.201 244.202Z" fill="#8EECF5"/>
<path d="M550.547 278.855L637.313 278.796C658.656 278.707 680.107 278.124 701.438 278.826C705.613 314.498 710.065 350.137 714.794 385.74C706.529 384.987 698.297 382.081 690.035 380.847C688.736 366.345 687.286 351.874 686.27 337.347C685.617 327.999 685.763 317.843 684.107 308.663C683.512 305.364 682.603 302.381 680.338 299.842C677.099 296.212 672.173 294.265 667.356 294.185C662.543 294.106 657.752 296.326 654.379 299.705C652.573 301.514 650.855 303.967 650.4 306.532C649.196 313.323 650.383 321.304 650.472 328.243C650.67 344.048 650.76 359.854 650.743 375.66C647.53 375.586 644.332 375.547 641.138 375.156L641.058 326.925C641.044 318.839 641.787 310.051 640.613 302.089C640.362 300.383 639.905 299.096 638.639 297.869C637.218 296.491 635.595 295.98 633.666 295.72C628.371 295.007 622.551 295.513 617.203 295.548C605.956 295.699 594.707 295.713 583.459 295.589C583.004 293.872 581.401 291.934 580.363 290.47C571.614 278.129 558.887 287.838 551.289 282.564C550.656 281.177 550.574 280.341 550.547 278.855Z" fill="#8EECF5"/>
<path d="M493.411 405.64C488.559 408.25 482.742 412.246 477.178 412.636C486.08 368.331 491.887 323.433 500.185 279.019L514.293 278.867C506.747 321.027 501.149 363.519 493.411 405.64Z" fill="#FDE4CF"/>
<path d="M516.302 278.899L550.547 278.855C550.574 280.341 550.656 281.177 551.289 282.564C558.887 287.838 571.614 278.129 580.363 290.47C581.401 291.934 583.004 293.872 583.459 295.589C571.917 295.734 560.375 295.768 548.832 295.69C542.908 295.684 536.441 295.168 530.603 296.007C528.912 296.249 527.531 296.644 526.292 297.879C525.007 299.161 524.609 301.069 524.256 302.788C522.001 313.785 520.908 325.125 518.947 336.2C515.311 356.728 511.042 377.138 507.591 397.698C503.506 398.689 499.605 401.648 495.77 403.472C503.152 362.041 509.035 320.356 516.302 278.899Z" fill="#FDE4CF"/>
<path d="M393.134 396.983C392.913 382.168 392.828 367.351 392.88 352.534C392.897 345.134 393.996 330.741 392.115 323.962C389.571 314.795 376.894 304.96 376.48 299.79C376.329 297.902 377.212 296.727 378.391 295.368C379.416 295.322 380.497 295.266 381.516 295.4C386.835 296.099 392.83 305.603 395.858 309.622C398.939 313.71 401.161 317.949 402.183 323.007C404.079 332.397 403.013 352.696 403.07 363.076C403.131 370.838 403.112 378.6 403.015 386.362C403 389.725 403.335 393.169 402.882 396.502L401.99 396.933L393.134 396.983Z" fill="#FDE4CF"/>
<path d="M652.937 375.98C652.877 360.939 652.717 345.899 652.455 330.86C652.325 323.355 651.12 314.617 652.373 307.275C652.765 304.98 654.333 302.75 655.937 301.127C658.852 298.18 663.069 296.207 667.244 296.18C671.164 296.155 675.337 297.753 678.106 300.549C680.239 302.701 681.274 305.221 681.88 308.145C683.724 317.05 683.463 327.281 684.136 336.387C685.202 350.798 686.837 365.219 687.709 379.631C684.088 380.055 658.267 376.825 652.937 375.98Z" fill="#8EECF5"/>
<path d="M585.604 297.846C591.491 297.826 635.013 296.479 637.062 298.947C638.349 300.498 638.644 303.453 638.805 305.406C639.435 313.061 638.953 321.152 638.972 328.845L639.071 375.276C628.598 375.126 618.135 375.002 607.67 375.553C600.95 375.908 594.154 376.954 587.448 377.067C589.385 349.469 593.493 325.121 585.604 297.846Z" fill="#8EECF5"/>
<path d="M509.879 395.852L520.553 337.854C522.141 328.811 524.641 306.025 527.944 298.95C532.835 296.551 577.4 297.843 585.604 297.844C593.493 325.119 589.386 349.467 587.449 377.065C570.499 379.296 553.313 381.504 536.871 386.346C531.154 388.062 525.507 390.003 519.944 392.164C516.698 393.398 513.257 395.083 509.879 395.852Z" fill="#FDE4CF"/>
<path d="M587.449 377.063C594.155 376.95 600.951 375.904 607.671 375.549C618.136 374.998 628.599 375.122 639.072 375.272L638.943 419.19L608.473 419.501C599.302 419.542 589.9 419.275 580.784 420.258C579.219 429.205 578.579 438.369 577.633 447.401C576.583 458.409 575.147 469.378 573.326 480.285C569.507 484.129 565.739 487.946 562.235 492.085C540.104 491.737 517.968 491.813 495.84 492.314C497.026 477.397 499.723 462.515 501.921 447.72C504.489 430.433 506.739 413.043 509.879 395.85C513.257 395.081 516.698 393.396 519.944 392.162C525.507 390.001 531.154 388.06 536.871 386.344C553.313 381.502 570.499 379.294 587.449 377.063Z" fill="#C8D1F7"/>
<path d="M641.137 375.156C644.331 375.547 647.529 375.586 650.742 375.66C650.699 397.326 652.029 418.965 651.603 440.664L641.457 443.121C640.096 420.647 641.082 397.68 641.137 375.156Z" fill="#C8D1F7"/>
<path d="M652.938 375.977C658.267 376.822 684.088 380.052 687.709 379.628C688.889 385.863 688.956 392.8 689.432 399.148C690.338 411.932 691.316 424.712 692.367 437.485C679.12 436.721 666.656 437.855 653.636 440.277C653.183 418.848 653.507 397.416 652.938 375.977Z" fill="#CFBAF0"/>
<path d="M690.033 380.848C698.295 382.082 706.527 384.988 714.792 385.741L723.024 441.769C713.602 439.913 704.094 438.524 694.535 437.607C692.677 418.72 691.845 399.742 690.033 380.848Z" fill="#CFBAF0"/>
<path d="M717.236 387.332C786.779 408.197 849.625 443.395 885.037 509.212C894.652 527.081 898.873 544.384 905.104 563.411L905.053 564.031C884.91 593.356 865.083 610.057 829.612 616.647C824.796 617.541 820.012 617.942 815.121 618.101C815.152 610.23 814.136 603.592 809.769 596.899C812.023 592.071 812.583 586.482 812.214 581.21C811.411 569.717 807.395 559.5 798.671 551.824C797.286 540.113 791.242 530.313 783.439 521.69C763.078 499.189 724.66 484.596 694.652 483.089C665.332 481.615 627.862 490.463 605.685 510.722C601.698 514.364 594.296 521.349 594.062 527.067L594.582 527.414L595.642 526.43C596.686 527.652 597.527 528.46 597.667 530.143L597.233 531.373C596.006 531.858 596.02 531.732 594.779 531.234C593.923 530.2 593.294 529.259 592.653 528.079L592.482 527.279C590.499 527.148 588.247 529.348 586.818 530.598C580.985 535.701 574.852 545.347 574.545 553.264C574.512 554.12 574.617 554.875 574.801 555.707C573.961 558.544 571.947 560.545 571.556 563.58C564.623 574.687 560.886 585.654 562.415 599.004C563.341 600.049 564.272 600.759 565.411 601.538L565.777 602.624L565.317 603.381C560.856 610.826 561.041 622.011 562.404 630.334L560.335 630.022C558.223 630.08 557.004 631.375 555.501 632.713C551.115 630.63 543.006 631.566 537.957 631.47C538.655 609.178 539.114 586.831 544.767 565.119C553.913 529.991 570.365 503.467 602.309 484.843C625.284 471.449 657.474 461.188 684.245 461.701C693.512 461.879 702.778 463.736 711.717 466.09C723.577 469.214 734.732 473.507 745.778 478.814C775.287 492.993 787.547 507.929 803.767 535.8C811.903 533.912 820.393 531.792 828.1 528.525C822.781 517.221 816.521 505.829 809.779 495.307C790.623 465.41 758.981 449.438 725.257 442.08C722.28 423.876 719.606 405.625 717.236 387.332Z" fill="url(#paint0_linear_2293_66992)"/>
<path d="M495.768 403.473C499.603 401.649 503.504 398.69 507.589 397.699C501.627 431.522 497.877 465.729 492.3 499.605L476.256 596.454C475.48 601.39 474.009 606.212 473.11 611.131C471.663 619.044 470.71 627.076 469.63 635.048C466.513 634.881 463.388 634.754 460.273 634.544C462.888 620.947 464.579 607.147 466.699 593.465L482.345 486.308C485.211 467.693 488.184 449.095 491.263 430.514C492.765 421.552 494.671 412.484 495.768 403.473Z" fill="#A3C4F3"/>
<path d="M387.918 399.381C391.985 399.372 396.051 399.336 400.118 399.274L408.505 399.078L407.568 424.324C403.264 425.106 398.927 425.75 394.609 426.452L388.425 427.522C388.704 418.139 388.535 408.748 387.918 399.381Z" fill="#FDE4CF"/>
<path d="M477.177 412.637C482.741 412.247 488.558 408.251 493.41 405.641C485.906 450.125 478.076 494.842 473.248 539.703C455.399 539.807 437.551 540.008 419.705 540.305C409.776 540.484 398.242 541.51 388.49 540.469C390.191 534.803 390.506 527.201 391.506 521.185C394.447 503.494 397.786 485.578 399.679 467.743C410.501 464.895 421.574 462.917 432.443 460.231C443.143 457.587 453.662 454.208 464.526 452.277C464.595 449.936 464.665 447.633 464.209 445.319C463.515 441.797 461.581 437.973 458.381 436.098C456.646 435.082 454.699 434.975 452.799 435.555C443.75 438.321 437.229 450.452 432.925 458.154C425.413 459.702 417.918 461.327 410.439 463.031C413.229 456.53 416.9 448.31 423.411 444.705C425.088 443.776 427.355 443.542 429.164 444.185C430.034 444.494 430.888 444.847 431.764 445.15L431.954 444.315C431.212 443.161 430.222 442.46 428.964 441.933C427.316 441.242 425.522 441.567 423.895 442.188C415.796 445.277 411.303 456.218 408.037 463.559L400.879 465.325C403.017 460.108 405.342 455.767 404.054 449.948C403.924 448.636 403.943 448.547 403.061 447.58L403.718 447.317C405.013 440.565 405.903 433.552 406.626 426.713C429.862 423.29 452.889 419.481 476.256 416.876L477.177 412.637Z" fill="#C8D1F7"/>
<path d="M582.568 422.358C596.893 420.988 611.899 421.519 626.326 421.254L638.933 421.172C638.904 428.67 638.953 436.167 639.078 443.664C618.774 449.177 601.108 458.714 584.123 470.914C581.461 473.018 578.857 475.204 576.229 477.351C578.693 459.078 579.808 440.576 582.568 422.358Z" fill="#C8D1F7"/>
<path d="M240.307 528.173C239.283 511.741 239.126 484.909 249.036 471.322C253.913 464.635 260.791 459.852 268.193 456.342C291.458 445.307 318.941 441.515 344.139 437.116C364.933 433.438 385.763 429.97 406.626 426.711C405.903 433.55 405.013 440.563 403.718 447.315L403.061 447.578C395.158 449.268 389.134 452.851 384.671 459.667C382.585 462.852 381.185 466.15 380.695 469.947C369.989 472.033 359.27 474.344 348.49 476.011C353.748 469.156 362.877 458.084 371.944 456.551C373.786 456.24 375.757 456.822 377.548 457.23L378 456.731C377.204 455.227 376.389 454.057 374.591 453.636C370.394 452.655 365.054 456.517 361.889 458.982C356.793 462.948 349.005 469.593 347.444 476.106C337.999 477.994 328.386 480.048 318.845 481.345C323.975 476.419 336.115 462.447 343.033 462.417C344.697 462.41 346.387 462.825 348.009 463.163L348.638 462.712L348.602 461.729C347.069 460.311 344.978 459.679 342.898 459.8C340.327 459.95 337.867 461.151 335.755 462.554C332.095 464.986 317.014 479.126 313.841 482.753C313.479 483.167 313.415 483.307 313.165 483.726C316.827 484.816 393.291 469.751 399.679 467.741C397.786 485.576 394.447 503.492 391.506 521.183C390.506 527.199 390.191 534.801 388.49 540.467C386.949 541.216 386.851 541.304 386.018 542.8C386.034 544.71 386.311 546.374 384.92 547.864C373.537 538.035 362.253 530.526 348.353 524.719C313.906 510.328 274.196 514.14 240.307 528.173ZM252.78 475.155C250.728 482.505 249.808 490.399 248.614 497.94C255.976 500.69 263.845 501.019 271.624 501.151C272.441 500.806 272.725 500.912 273.099 500.053C274.649 496.49 274.148 481.04 274.45 476.086C267.25 475.435 260.004 475.349 252.78 475.155Z" fill="#FDE4CF"/>
<path d="M380.694 469.945C381.184 466.148 382.584 462.85 384.67 459.665C389.133 452.849 395.157 449.266 403.06 447.576C403.942 448.543 403.923 448.632 404.053 449.944C396.743 451.178 391.198 454.094 386.836 460.307C384.879 463.096 383.563 465.954 382.636 469.237C388.824 468.514 394.882 466.976 400.878 465.321L408.036 463.555C411.302 456.214 415.795 445.273 423.894 442.184C425.521 441.563 427.315 441.238 428.963 441.929C430.221 442.456 431.211 443.157 431.953 444.311L431.763 445.146C430.887 444.843 430.033 444.49 429.163 444.181C427.354 443.538 425.087 443.772 423.41 444.701C416.899 448.306 413.228 456.526 410.438 463.027C417.917 461.323 425.412 459.698 432.924 458.15C437.228 450.448 443.749 438.317 452.798 435.551C454.698 434.971 456.645 435.078 458.38 436.094C461.58 437.969 463.514 441.793 464.208 445.315C464.664 447.629 464.594 449.932 464.525 452.273C453.661 454.204 443.142 457.583 432.442 460.227C421.573 462.913 410.5 464.891 399.678 467.739C393.29 469.749 316.826 484.814 313.164 483.724C313.414 483.305 313.478 483.165 313.84 482.751C317.013 479.124 332.094 464.984 335.754 462.552C337.866 461.149 340.326 459.948 342.897 459.798C344.977 459.677 347.068 460.309 348.601 461.727L348.637 462.71L348.008 463.161C346.386 462.823 344.696 462.408 343.032 462.415C336.114 462.445 323.974 476.417 318.844 481.343C328.385 480.046 337.998 477.992 347.443 476.104C349.004 469.591 356.792 462.946 361.888 458.98C365.053 456.515 370.393 452.653 374.59 453.634C376.388 454.055 377.203 455.225 377.999 456.729L377.547 457.228C375.756 456.82 373.785 456.238 371.943 456.549C362.876 458.082 353.747 469.154 348.489 476.009C359.269 474.342 369.988 472.031 380.694 469.945ZM453.768 437.437C445.074 441.588 440.614 449.226 435.66 457.095C438.563 456.434 441.478 455.807 444.37 455.1C450.482 453.501 456.619 451.712 462.816 450.487C462.315 446.455 461.744 440.893 458.079 438.399C456.614 437.402 455.453 437.397 453.768 437.437Z" fill="#040305"/>
<path d="M435.66 457.096C440.614 449.227 445.074 441.589 453.768 437.438C455.453 437.398 456.614 437.403 458.079 438.4C461.744 440.894 462.315 446.456 462.816 450.488C456.619 451.713 450.482 453.502 444.37 455.101C441.478 455.808 438.563 456.435 435.66 457.096Z" fill="#C8D1F7"/>
<path d="M519.357 630.024C524.532 590.518 528.349 547.479 549.958 512.926C553.235 507.686 557.253 503.033 561.026 498.161C568.963 487.916 574.224 481.165 584.689 473.067C617.394 447.759 662.157 435.034 703.228 440.471C741.274 445.508 779.112 457.891 803.338 489.671C809.843 498.205 820.622 517.068 825.207 526.859C818.496 529.606 811.802 531.657 804.723 533.213C788.916 506.338 775.372 490.674 746.888 476.947C735.497 471.457 724.011 467.171 711.77 464.012C703.194 461.799 694.358 460.067 685.486 459.827C657.722 459.075 624.409 469.364 600.693 483.436C568.275 502.673 551.462 530.203 542.477 566.069C537.245 586.954 536.396 608.922 535.949 630.358C531.44 628.959 524.142 629.964 519.357 630.024Z" fill="url(#paint1_linear_2293_66992)"/>
<path d="M382.637 469.238C383.564 465.955 384.88 463.097 386.837 460.308C391.199 454.095 396.744 451.179 404.054 449.945C405.342 455.764 403.017 460.105 400.879 465.322C394.883 466.977 388.825 468.515 382.637 469.238Z" fill="#FDE4CF"/>
<path d="M248.613 497.941C249.807 490.4 250.727 482.506 252.779 475.156C260.003 475.35 267.249 475.436 274.449 476.087C274.147 481.041 274.648 496.491 273.098 500.054C272.724 500.913 272.44 500.807 271.623 501.152C263.844 501.02 255.975 500.691 248.613 497.941ZM260.964 477.797C258.757 477.702 256.544 477.566 254.336 477.524C253.245 483.952 252.108 490.371 250.924 496.782L258.256 498.074C262.22 499.183 267.306 498.804 271.399 498.738L271.992 478.386C268.369 477.936 264.615 477.949 260.964 477.797Z" fill="#040305"/>
<path d="M254.338 477.523C256.546 477.565 258.759 477.701 260.966 477.796L260.044 479.498L258.734 479.921C257.472 483.071 256.209 490.297 257.583 493.432C257.821 493.976 257.875 494.04 258.148 494.501L258.258 498.073L250.926 496.781C252.11 490.37 253.247 483.951 254.338 477.523Z" fill="#E6DFD5"/>
<path d="M260.964 477.797C264.615 477.949 268.369 477.936 271.992 478.386L271.399 498.738C267.306 498.804 262.22 499.183 258.256 498.074L258.146 494.502C259.062 490.47 261.29 483.312 260.042 479.499L260.964 477.797Z" fill="#FDE4CF"/>
<path d="M258.148 494.499C257.875 494.038 257.821 493.974 257.583 493.43C256.209 490.295 257.472 483.069 258.734 479.919L260.044 479.496C261.292 483.309 259.064 490.467 258.148 494.499Z" fill="#040305"/>
<path d="M673.557 485.26C671.714 485.584 669.475 486.258 667.627 486.163C657.901 488.267 643.137 491.119 634.459 495.781C633.673 496.452 633.256 496.558 632.235 496.67C621.303 498.648 604.909 512.216 598.567 521.255C597.426 522.883 596.528 524.654 595.641 526.428L594.581 527.412L594.061 527.065C594.295 521.347 601.697 514.362 605.684 510.72C627.861 490.461 665.331 481.613 694.651 483.087C724.659 484.594 763.077 499.187 783.438 521.688C791.241 530.311 797.285 540.111 798.67 551.822C807.394 559.498 811.41 569.715 812.213 581.208C812.582 586.48 812.022 592.069 809.768 596.897C814.135 603.59 815.151 610.228 815.12 618.099C814.724 628.714 813.167 637.492 806.37 645.927C808.274 656.977 804.009 668.813 797.636 677.833C794.735 681.939 791.369 684.987 786.861 687.285C784.425 697.812 775.464 707.424 766.491 713.035C762.497 715.531 758.253 717.442 753.866 719.13C752.269 724.084 748.285 726.964 743.815 729.274C733.599 734.551 723.105 736.192 711.828 734.112C705.798 739.626 698.296 740.698 690.376 740.38C681.781 740.034 674.593 737.665 666.955 733.871C654.211 735.243 639.462 732.341 629.333 724.011C627.348 722.378 625.84 720.592 624.421 718.461C611.776 714.546 600.036 707.737 593.66 695.61C592.322 693.064 591.686 690.488 591.165 687.681C582.576 683.745 576.75 677.545 573.423 668.685C571.369 663.216 570.247 656.936 571.945 651.237L574.257 651.078C574.028 651.573 573.792 652.067 573.593 652.576C571.452 658.067 573.847 665.559 576.241 670.692C578.66 675.876 585.443 684.356 590.779 686.313C591.382 685.848 591.959 685.453 592.626 685.087C594.205 686.829 593.555 690.672 594.263 692.993C595.011 695.445 596.944 697.992 598.541 700.001C605.029 708.164 615.437 715.37 625.967 716.581C628.092 721.178 631.016 723.735 635.467 726.048C644.14 730.555 657.492 734.588 667.185 731.528C674.862 735.997 681.947 738.298 690.903 738.567C698.844 738.804 705.316 737.763 711.238 732.137C721.706 734.081 730.424 733.4 740.195 728.922C743.718 727.307 750.239 724.348 751.571 720.568C751.82 719.863 752.139 718.538 752.73 718.059C755.083 716.148 763.613 712.771 767.411 710.149C775.734 704.404 783.278 696.007 785.122 685.841C791.388 683.03 795.246 678.79 798.546 672.9C803.1 664.771 806.813 654.467 804.197 645.227C804.54 644.909 804.878 644.586 805.211 644.259C811.65 637.887 813.706 626.275 813.721 617.549C813.733 610.163 812.628 603.193 807.2 597.8C807.657 597.042 808.107 596.275 808.491 595.476C813.22 585.618 809.566 567.765 803.391 559.07C801.813 556.848 797.905 555.225 796.853 552.906C795.466 549.85 796.014 545.53 794.727 542.193C789.613 528.931 773.921 511.837 760.824 506.304C758.847 504.799 756.53 503.709 754.347 502.53C742.368 496.419 729.051 491.544 716.1 487.939L710.436 486.711L709.103 486.536C697.534 484.593 685.204 484.02 673.557 485.26Z" fill="#040305"/>
<path d="M673.558 485.26C685.205 484.02 697.535 484.593 709.104 486.536C708.614 488.903 707.678 491.74 709.385 493.847C710.218 494.876 711.114 495.15 712.359 495.359C713.703 495.083 714.555 494.825 715.417 493.682C716.496 492.252 716.123 490.662 715.948 489.024L716.101 487.939C729.052 491.544 742.369 496.419 754.348 502.53C753.173 504.332 751.789 506.081 752.112 508.365C752.288 509.608 752.945 510.701 754.006 511.386C755.056 512.065 756.352 512.244 757.547 511.877C759.041 511.408 759.996 510.174 760.508 508.753C760.798 507.947 760.801 507.15 760.825 506.304C773.922 511.837 789.614 528.931 794.728 542.193C796.015 545.53 795.467 549.85 796.854 552.906C797.906 555.225 801.814 556.848 803.392 559.07C809.567 567.765 813.221 585.619 808.492 595.477C808.108 596.276 807.658 597.042 807.201 597.8C812.629 603.193 813.734 610.163 813.722 617.549C813.707 626.275 811.651 637.887 805.212 644.259C804.879 644.586 804.541 644.909 804.198 645.227C806.814 654.467 803.101 664.771 798.547 672.9C795.247 678.79 791.389 683.03 785.123 685.841C783.279 696.007 775.735 704.404 767.412 710.149C763.614 712.771 755.084 716.148 752.731 718.059C752.14 718.538 751.821 719.863 751.572 720.568C750.24 724.348 743.719 727.307 740.196 728.922C730.425 733.4 721.707 734.081 711.239 732.137C705.317 737.763 698.845 738.804 690.904 738.567C681.948 738.298 674.863 735.998 667.186 731.529C657.493 734.589 644.141 730.555 635.468 726.048C631.017 723.735 628.093 721.178 625.968 716.581C615.438 715.37 605.03 708.164 598.542 700.001C596.945 697.992 595.012 695.445 594.264 692.993C593.556 690.672 594.206 686.829 592.627 685.087C591.96 685.453 591.383 685.848 590.78 686.313C585.444 684.356 578.661 675.876 576.242 670.692C573.848 665.559 571.453 658.067 573.594 652.576C573.793 652.067 574.029 651.573 574.258 651.078C574.662 650.555 574.972 650.204 575.266 649.586C575.741 648.588 575.668 647.129 575.033 646.222C574.043 644.807 572.97 644.897 571.442 644.657C571.019 644.58 570.583 644.327 570.267 644.05C566.664 640.895 565.07 633.863 564.265 629.297C563.177 623.118 562.844 609.09 566.72 603.995C567.449 603.036 567.876 603.277 569.01 603.126L569.02 602.562L564.616 599.709C564.458 598.27 564.352 596.827 564.299 595.38C563.992 585.842 565.541 572.899 572.428 565.605C573.911 565.858 574.919 566.02 576.326 565.248C577.782 564.449 578.59 563.24 578.879 561.639C579.296 559.331 578.222 557.646 576.907 555.865L575.736 554.924C578.152 543.645 583.138 534.812 592.653 528.077C593.294 529.257 593.923 530.198 594.779 531.232C596.02 531.73 596.006 531.856 597.233 531.371L597.667 530.141C597.527 528.458 596.686 527.65 595.642 526.428C596.529 524.654 597.427 522.883 598.568 521.255C604.91 512.216 621.304 498.648 632.236 496.67C631.617 498.566 631.041 500.192 631.077 502.202C631.734 503.475 631.8 503.531 633.08 504.177C634.374 504.196 635.298 504.103 636.287 503.16C637.412 502.088 637.529 501.143 637.574 499.712C637.062 497.923 635.798 497.003 634.46 495.781C643.138 491.119 657.902 488.267 667.628 486.163C668.012 488.448 668.361 490.848 670.38 492.292C671.464 493.068 672.432 492.972 673.67 492.824C674.555 492.034 674.884 491.774 675.209 490.584C675.753 488.597 674.498 486.914 673.558 485.26ZM682.727 604.063C681.427 605.378 680.506 607.237 680.443 609.115C680.364 611.495 681.731 613.472 683.362 615.085C685.193 616.895 687.549 617.617 689.996 618.182C692.751 617.52 695.165 617.02 697.301 615.004C698.812 612.575 699.954 610.369 699.387 607.426C698.876 604.882 697.313 602.672 695.085 601.343C692.865 600.007 690.157 599.451 687.639 600.203C685.395 600.874 683.824 601.96 682.727 604.063ZM735.784 555.723C737.841 557.845 741.493 562.665 744.173 563.322C742.207 560.712 739.145 556.371 735.784 555.723ZM750.12 573.224C752.411 577.667 755.718 582.151 757.059 586.958C757.683 589.197 758.393 593.688 760.006 595.133C759.106 587.874 755.345 579.124 750.979 573.272L750.12 573.224Z" fill="url(#paint2_linear_2293_66992)"/>
<path d="M667.629 486.165C669.477 486.26 671.716 485.586 673.559 485.262C674.499 486.916 675.754 488.599 675.21 490.586C674.885 491.776 674.556 492.036 673.671 492.826C672.433 492.974 671.465 493.07 670.381 492.294C668.362 490.85 668.013 488.45 667.629 486.165Z" fill="#2274F2"/>
<path d="M709.105 486.539L710.438 486.714C709.355 487.99 708.74 489.624 709.003 491.324C709.164 492.359 709.41 492.837 710.007 493.664C711.136 494.082 711.854 494.168 712.962 493.527C714.395 492.697 714.582 491.974 715.187 490.552C715.41 490.03 715.69 489.533 715.949 489.027C716.124 490.665 716.497 492.255 715.418 493.685C714.556 494.828 713.704 495.086 712.36 495.362C711.115 495.153 710.219 494.879 709.386 493.85C707.679 491.743 708.615 488.906 709.105 486.539Z" fill="#2274F2"/>
<path d="M715.948 489.028C715.689 489.534 715.409 490.031 715.186 490.553C714.581 491.975 714.394 492.698 712.961 493.528C711.853 494.169 711.135 494.083 710.006 493.665C709.409 492.838 709.163 492.36 709.002 491.325C708.739 489.625 709.354 487.991 710.437 486.715L716.101 487.943L715.948 489.028Z" fill="#A3C4F3"/>
<path d="M495.219 494.52L501.618 494.267C521.541 493.684 541.526 493.975 561.454 494.119C551.919 506.413 543.918 518.256 537.514 532.512C536.101 535.588 534.885 538.777 533.603 541.911C518.081 541.324 502.428 541.694 486.895 541.711C489.858 526.015 492.633 510.283 495.219 494.52Z" fill="#A3C4F3"/>
<path d="M632.237 496.67C633.258 496.558 633.675 496.452 634.461 495.781C635.799 497.003 637.063 497.923 637.575 499.712C637.53 501.143 637.413 502.088 636.288 503.16C635.299 504.103 634.375 504.196 633.081 504.177C631.801 503.531 631.735 503.475 631.078 502.202C631.042 500.192 631.618 498.566 632.237 496.67Z" fill="#1C9CF7"/>
<path d="M754.348 502.531C756.531 503.71 758.848 504.8 760.825 506.305C760.801 507.151 760.798 507.948 760.508 508.754C759.996 510.175 759.041 511.409 757.547 511.878C756.352 512.245 755.056 512.066 754.006 511.387C752.945 510.702 752.288 509.609 752.112 508.366C751.789 506.082 753.173 504.333 754.348 502.531Z" fill="#A3C4F3"/>
<path d="M243.924 540.871C243.74 540.733 243.554 540.597 243.372 540.456C241.443 538.966 238.303 536.177 238.352 533.493C238.363 532.866 238.564 532.059 239.038 531.616C241.009 529.776 245.552 528.702 248.126 527.801C265.682 521.656 283.582 517.688 302.253 517.66C325.069 517.627 349.868 524.994 368.839 537.775C375.786 542.455 382.01 548.124 387.933 554.02C386.279 558.574 386.311 564.257 384.384 568.456C373.891 556.462 361.654 545.749 347.024 539.087C322.228 527.796 293.041 526.201 266.706 532.988C258.934 534.991 251.427 538.046 243.924 540.871Z" fill="#FDE4CF"/>
<path d="M592.653 528.079C583.138 534.814 578.152 543.647 575.736 554.926L574.801 555.707C574.617 554.875 574.512 554.12 574.545 553.264C574.852 545.347 580.985 535.701 586.818 530.598C588.247 529.348 590.499 527.148 592.482 527.279L592.653 528.079Z" fill="#040305"/>
<path d="M301.124 540.033C299.999 539.907 298.673 539.904 297.71 539.26C297.148 538.884 296.829 537.765 296.724 537.097C296.43 535.245 297.186 532.906 298.298 531.424L299.617 531.251C300.449 531.193 301.558 531.007 302.369 531.152C303.411 531.337 303.536 531.631 304.018 532.536C305.017 534.411 304.778 536.278 303.941 538.209C303.3 539.689 302.533 539.601 301.124 540.033Z" fill="#E6DFD5"/>
<path d="M386.018 542.798C392.026 543.238 398.201 542.756 404.232 542.646L434.537 542.238C434.023 554.865 434.137 567.508 433.625 580.125L411.114 580.146C403.687 567.913 394.942 557.965 384.92 547.862C386.311 546.372 386.034 544.708 386.018 542.798Z" fill="#A3C4F3"/>
<path d="M435.539 580.064L436.547 542.173C448.623 542.027 460.701 541.968 472.778 541.995C471.382 553.82 469.186 565.661 467.32 577.425C467.216 578.283 467.009 578.995 466.722 579.809C464.145 580.836 440.477 580.051 435.539 580.064Z" fill="#A3C4F3"/>
<path d="M531.982 548.162L501.252 548.172C496.486 548.178 491.004 548.73 486.35 547.803C485.76 546.502 486.342 544.965 486.623 543.623C496.11 543.513 505.621 543.551 515.108 543.636C520.817 543.688 526.749 543.466 532.403 544.207C532.899 545.389 532.25 546.91 531.982 548.162Z" fill="#90DBF4"/>
<path d="M224.555 598.047C224.693 597.64 224.828 597.232 224.978 596.829C226.508 592.705 228.303 588.701 230.897 585.127C237.753 575.682 255.946 561.345 266.623 556.494C289.446 546.122 314.681 545.065 338.1 554.047C353.323 559.886 365.683 569.125 375.682 581.988C378.291 585.346 381.087 589.029 382.829 592.93C382.204 596.338 384.329 599.547 384.545 602.942L385.355 605.381C382.093 604.666 371.698 596.367 367.627 594.038C341.479 579.077 307.901 571.214 278.01 576.661C264.682 579.09 251.991 583.986 239.804 589.8C236.404 591.422 228.451 597.712 225.297 598.005C225.05 598.027 224.802 598.033 224.555 598.047Z" fill="#FDE4CF"/>
<path d="M482.24 570.545C483.166 563.698 484.346 556.873 485.334 550.031L531.595 550.225C529.893 556.566 528.083 562.847 526.584 569.243L526.104 570.058C521.827 571.147 515.858 570.458 511.389 570.474L482.24 570.545Z" fill="#8EECF5"/>
<path d="M387.934 554.02C409.858 575.435 422.963 604.287 424.664 634.888C423.779 636.2 422.915 637.527 422.072 638.867L409.995 632.283C407.973 605.3 400.617 589.688 384.385 568.456C386.312 564.257 386.28 558.574 387.934 554.02Z" fill="#A3C4F3"/>
<path d="M574.802 555.707L575.737 554.926L576.908 555.866C574.908 558.156 574.109 561.243 572.63 563.883L571.557 563.58C571.948 560.545 573.962 558.544 574.802 555.707Z" fill="#001171"/>
<path d="M744.172 563.326C741.492 562.669 737.84 557.849 735.783 555.727C739.144 556.375 742.206 560.716 744.172 563.326Z" fill="#A189D1"/>
<path d="M576.907 555.867C578.222 557.648 579.296 559.334 578.879 561.642C578.59 563.243 577.782 564.452 576.326 565.251C574.919 566.023 573.911 565.861 572.428 565.608L572.629 563.884C574.108 561.244 574.907 558.157 576.907 555.867Z" fill="#1C9CF7"/>
<path d="M562.404 630.332C561.041 622.009 560.856 610.824 565.317 603.379L565.777 602.622L565.411 601.536C564.272 600.757 563.341 600.047 562.415 599.002C560.886 585.652 564.623 574.685 571.556 563.578L572.629 563.881L572.428 565.605C565.541 572.899 563.992 585.842 564.299 595.38C564.352 596.827 564.458 598.27 564.616 599.709L569.02 602.562L569.01 603.126C567.876 603.277 567.449 603.036 566.72 603.995C562.844 609.09 563.177 623.118 564.265 629.297C565.07 633.863 566.664 640.895 570.267 644.05C570.583 644.327 571.019 644.58 571.442 644.657C571.322 646.276 571.592 647.431 572.047 648.982C567.097 642.777 564.363 638.088 562.404 630.332Z" fill="#040305"/>
<path d="M815.122 618.101C820.013 617.942 824.797 617.541 829.613 616.647C865.084 610.057 884.911 593.356 905.054 564.031C908.4 573.974 909.361 584.608 910.818 594.962C918.299 648.113 915.305 706.856 898.097 757.913C895.342 766.086 892.532 774.058 888.696 781.812C865.955 827.774 827.951 853.903 780.292 869.95C721.762 889.658 657.478 889.254 598.237 872.587C583.289 868.382 568.288 863.337 554.371 856.402C529.103 843.812 500.259 826.233 482.379 804.053L482.458 803.725C484.615 799.178 485.503 793.192 486.283 788.248C490.608 760.837 485.446 731.192 475.715 705.394C472.658 697.29 468.741 689.35 465.041 681.519C461.32 673.645 457.532 664.431 452.409 657.381C451.771 655.53 452.123 652.972 452.154 651.011C463.779 650.241 475.418 649.699 487.064 649.387C500.334 649.081 525.894 650.624 537.376 646.661C543.769 644.455 557.428 636.071 560.336 630.022L562.405 630.334C564.364 638.09 567.098 642.779 572.048 648.984L571.947 651.239C570.249 656.938 571.371 663.218 573.425 668.687C576.752 677.547 582.578 683.747 591.167 687.683C591.688 690.49 592.324 693.066 593.662 695.612C600.038 707.739 611.778 714.548 624.423 718.463C625.842 720.594 627.35 722.38 629.335 724.013C639.464 732.343 654.213 735.245 666.957 733.873C674.595 737.667 681.783 740.036 690.378 740.382C698.298 740.7 705.8 739.628 711.83 734.114C723.107 736.194 733.601 734.553 743.817 729.276C748.287 726.966 752.271 724.086 753.868 719.132C758.255 717.444 762.499 715.533 766.493 713.037C775.466 707.426 784.427 697.814 786.863 687.287C791.371 684.989 794.737 681.941 797.638 677.835C804.011 668.815 808.276 656.979 806.372 645.929C813.169 637.494 814.726 628.716 815.122 618.101Z" fill="#FFCFD2"/>
<path d="M480.271 581.417C480.499 579.088 480.438 575.184 481.895 573.297C482.385 572.662 483.126 572.826 483.867 572.747C497.939 572.986 512.063 572.668 526.138 572.594C525.817 574.402 525.531 576.234 525.13 578.026C524.82 579.411 524.831 580.432 523.63 581.225C509.201 580.918 494.708 581.367 480.271 581.417Z" fill="#8EECF5"/>
<path d="M760.005 595.136C758.392 593.691 757.682 589.2 757.058 586.961C755.717 582.154 752.41 577.67 750.119 573.227L750.978 573.275C755.344 579.127 759.105 587.877 760.005 595.136Z" fill="#7869CB"/>
<path d="M384.362 572.363C397.911 589.332 407.099 607.847 407.58 629.974C403.921 627.519 400.296 624.914 396.419 622.814C392.822 610.818 389.611 599.943 383.316 588.951C384.382 583.45 383.527 577.874 384.362 572.363Z" fill="#90DBF4"/>
<path d="M390.331 609.577C392.528 618.004 398.082 628.833 397.774 637.315C397.555 643.347 395.949 649.296 395.393 655.304C394.946 660.128 395.532 666.058 393.873 670.6C392.343 674.793 388.405 677.616 386.196 681.415C382.837 687.192 381.396 694.811 377.051 699.934C373.112 704.579 367.531 707.589 362.997 711.579C359.166 714.95 354.308 721.924 349.682 723.722C349.495 723.795 349.305 723.856 349.118 723.926C343.482 726.03 337.657 727.043 331.924 728.771C325.078 730.834 318.789 734.778 311.44 734.742C306.419 734.717 301.542 732.645 296.498 732.496C290.354 732.314 283.897 733.078 277.989 731.034C273.683 729.545 270.028 726.362 266.058 724.176C262.836 722.401 259.165 721.292 255.74 719.951C241.014 714.187 237.514 700.793 228.725 689.363C225.872 685.653 221.16 683.316 219.184 678.898C217.275 674.629 218.048 669.319 217.147 664.758C216.533 661.648 214.676 658.661 213.435 655.76C209.933 647.574 215.429 639.777 215.652 631.544C215.78 626.834 213.61 621.66 215.034 617.07C216.996 610.744 221.951 604.473 224.554 598.045C224.801 598.031 225.049 598.025 225.296 598.003C228.45 597.71 236.403 591.42 239.803 589.798C251.99 583.984 264.681 579.088 278.009 576.659C307.9 571.212 341.478 579.075 367.626 594.036C371.697 596.365 382.092 604.664 385.354 605.379C386.335 607.401 387.456 608.897 389.551 609.865L390.331 609.577ZM297.759 634.36C296.774 636.257 296.226 637.659 296.821 639.787C297.253 641.329 298.229 642.775 299.04 644.142C298.381 641.976 297.748 639.815 297.692 637.534C297.666 636.481 297.942 635.384 297.759 634.36Z" fill="#B9FBC0"/>
<path d="M411.998 582.348L422.373 582.249L466.686 582.078C463.49 599.491 461.672 617.152 458.26 634.541C447.924 633.06 437.081 633.277 426.634 632.952C424.031 614.978 420.107 598.73 411.998 582.348Z" fill="#A3C4F3"/>
<path d="M479.56 583.572L514.246 583.248L524.287 583.188C523.06 589.744 522.018 596.332 520.766 602.887L486.866 602.964L476.797 603.01C477.541 596.486 478.396 590.036 479.56 583.572Z" fill="#8EECF5"/>
<path d="M382.827 592.93C384.566 595.472 385.96 598.088 387.356 600.826C385.783 601.464 385.339 601.385 384.543 602.942C384.327 599.547 382.202 596.338 382.827 592.93Z" fill="#8EECF5"/>
<path d="M689.996 618.184C687.549 617.619 685.193 616.897 683.362 615.087C681.731 613.474 680.364 611.496 680.443 609.116C680.506 607.238 681.427 605.38 682.727 604.065C682.535 605.611 681.728 607.063 681.591 608.654C681.427 610.545 682.269 612.811 683.517 614.225C685.112 616.033 687.409 616.873 689.783 616.946C692.933 617.042 694.721 615.984 696.932 613.862C697.973 612.101 698.544 610.438 698.571 608.369C698.595 606.486 697.916 604.77 696.506 603.503C693.683 600.967 690.732 600.993 687.189 601.077C685.741 602.159 684.267 603.12 682.727 604.065C683.824 601.962 685.395 600.876 687.639 600.205C690.157 599.453 692.865 600.009 695.085 601.345C697.313 602.674 698.876 604.884 699.387 607.428C699.954 610.371 698.812 612.577 697.301 615.006C695.165 617.022 692.751 617.522 689.996 618.184Z" fill="#A189D1"/>
<path d="M682.727 604.064C684.267 603.119 685.741 602.158 687.189 601.076C690.732 600.992 693.683 600.966 696.506 603.502C697.916 604.769 698.595 606.485 698.571 608.368C698.544 610.437 697.973 612.1 696.932 613.861C694.721 615.983 692.933 617.041 689.783 616.945C687.409 616.872 685.112 616.032 683.517 614.224C682.269 612.81 681.427 610.544 681.591 608.653C681.728 607.062 682.535 605.61 682.727 604.064Z" fill="#F1C0E8"/>
<path d="M482.377 804.051C481.243 807.818 480.067 811.572 478.85 815.313C464.305 858.58 431.872 892.164 391.375 912.21C348.463 933.451 296.414 936.118 251.245 920.746C208.427 906.175 172.176 872.805 152.422 832.352C132.033 790.601 130.826 742.447 145.849 698.822C157.607 665.225 178.255 635.444 205.594 612.649C210.371 608.636 215.641 603.653 221.284 600.906C218.983 606.093 214.844 610.986 213.213 616.332C211.697 621.305 213.84 627.018 213.748 632.126C213.603 640.253 208.122 647.259 211.162 655.496C212.417 658.899 214.629 662.143 215.357 665.72C216.297 670.343 215.388 674.847 217.42 679.31C219.718 684.357 224.72 687.469 228.09 691.737C235.709 701.388 239.706 714.965 251.862 720.413C255.612 722.093 259.779 722.905 263.463 724.736C268.451 727.214 272.673 731.136 278.017 732.925C283.883 734.89 290.151 733.572 296.188 734.198C302.311 734.833 308.56 737.039 314.747 736.388C320.893 735.742 326.411 732.338 332.243 730.52C338.205 728.661 344.601 728.095 350.343 725.546C355.635 723.197 360.081 716.273 364.448 712.428C368.987 708.431 375.205 705.192 378.878 700.384C383.031 694.948 384.707 687.826 388.036 681.919C390.364 677.786 394.474 674.856 395.959 670.204C397.435 665.583 396.972 660.316 397.408 655.518C398.408 644.513 401.236 636.008 397.026 625.2C412.869 636.514 431.858 650.973 452.152 651.009C452.121 652.97 451.769 655.528 452.407 657.379C450.386 666.4 447.939 675.304 446.559 684.458C441.114 720.56 448.636 754.613 468.192 785.384C472.213 791.71 477.103 798.423 482.456 803.723L482.377 804.051Z" fill="#B9FBC0"/>
<path d="M384.545 602.94C385.341 601.383 385.785 601.462 387.358 600.824C388.363 603.713 389.52 606.633 390.332 609.577L389.552 609.865C387.457 608.897 386.336 607.401 385.355 605.379L384.545 602.94Z" fill="#98F5E1"/>
<path d="M475.266 610.867L476.187 605.055C491.001 604.739 505.879 605.012 520.7 605L519.814 610.809L475.266 610.867Z" fill="#8EECF5"/>
<path d="M471.342 635.061C471.988 627.663 473.291 620.251 474.379 612.902C489.392 613.022 504.405 613.065 519.418 613.03C518.391 620.522 517.505 628.033 516.76 635.559C501.62 635.51 486.48 635.344 471.342 635.061Z" fill="#8EECF5"/>
<path d="M519.358 630.026C524.143 629.966 531.441 628.961 535.95 630.36C535.706 635.286 535.726 640.387 535.075 645.271C522.774 648.674 508.197 647.135 495.435 647.327C482.909 647.454 470.389 647.928 457.89 648.749L456.734 648.565L456.326 647.805C456.686 644.066 458.513 640.314 459.917 636.85C479.406 638.016 498.986 637.147 518.496 637.802L519.358 630.026Z" fill="#FFCFD2"/>
<path d="M537.958 631.468C543.007 631.564 551.116 630.628 555.502 632.711C549.845 637.615 544.486 641.66 537.553 644.574C537.511 640.173 537.6 635.856 537.958 631.468Z" fill="#F1C0E8"/>
<path d="M299.04 644.141C298.229 642.774 297.253 641.328 296.821 639.786C296.226 637.658 296.774 636.256 297.759 634.359C297.942 635.383 297.666 636.48 297.692 637.533C297.748 639.814 298.381 641.975 299.04 644.141Z" fill="#20643B"/>
<path d="M424.662 634.891C436.423 635.354 448.176 636.007 459.916 636.851C458.512 640.315 456.685 644.067 456.325 647.806L456.733 648.566L457.889 648.75C445.603 651.251 432.201 645.254 422.07 638.869C422.913 637.529 423.777 636.203 424.662 634.891Z" fill="#B9FBC0"/>
<path d="M571.443 644.66C572.971 644.9 574.044 644.81 575.034 646.225C575.669 647.132 575.742 648.591 575.267 649.589C574.973 650.207 574.663 650.558 574.259 651.081L571.947 651.24L572.048 648.985C571.593 647.434 571.323 646.279 571.443 644.66Z" fill="#1C9CF7"/>
<path d="M452.407 657.383C457.53 664.433 461.318 673.647 465.039 681.521C468.739 689.352 472.656 697.292 475.713 705.396C485.444 731.194 490.607 760.839 486.282 788.25C485.502 793.194 484.613 799.18 482.456 803.727C477.103 798.427 472.213 791.714 468.192 785.388C448.636 754.617 441.114 720.564 446.559 684.462C447.939 675.308 450.386 666.404 452.407 657.383Z" fill="#FDE4CF"/>
<defs>
<linearGradient id="paint0_linear_2293_66992" x1="851.194" y1="457.36" x2="552.546" y2="650.451" gradientUnits="userSpaceOnUse">
<stop stop-color="#DCC5FB"/>
<stop offset="1" stop-color="#B0DBFB"/>
</linearGradient>
<linearGradient id="paint1_linear_2293_66992" x1="737.231" y1="440.844" x2="589.601" y2="672.53" gradientUnits="userSpaceOnUse">
<stop stop-color="#D6C4FD"/>
<stop offset="1" stop-color="#A8E7F8"/>
</linearGradient>
<linearGradient id="paint2_linear_2293_66992" x1="713.198" y1="734.666" x2="663.658" y2="487.567" gradientUnits="userSpaceOnUse">
<stop stop-color="#FFC5C9"/>
<stop offset="1" stop-color="#EEC0FF"/>
</linearGradient>
</defs>
</svg>
