<svg width="1024" height="1024" viewBox="0 0 1024 1024" fill="none" xmlns="http://www.w3.org/2000/svg">
<path d="M400.014 273.688C385.526 271.813 370.125 266.832 355.501 268.095C342.128 269.249 317.484 278.678 303.062 282.891L252.141 297.505C242.869 300.127 233.423 302.463 224.273 305.47C221.361 306.427 218.664 307.508 216.202 309.394C210.181 314.006 207.544 321.329 206.758 328.625C205.937 336.243 206.554 344.339 206.798 351.99C201.861 352.513 195.595 356.371 191.027 358.314C164.787 369.475 135.913 385.439 117.757 408.087C117.343 408.604 116.938 409.129 116.543 409.661C109.266 403.02 91.9949 373.647 86.4284 363.533C63.492 321.861 51.9487 283.507 65.7066 236.223C69.1909 224.247 74.2038 213.404 80.1128 202.456C100.781 164.224 132.154 132.852 170.386 112.183C212.361 89.2105 261.97 82.133 308.223 95.747C345.68 106.772 379.671 132.846 398.371 167.376C411.934 192.42 414.973 222.881 407.926 250.316C405.909 258.168 402.434 265.407 400.17 273.139L400.014 273.688Z" fill="#FFCFD2"/>
<path d="M623.822 296.204C624.358 287.773 627.734 278.712 630.61 270.805C645.398 230.14 671.634 190.273 704.196 161.655C742.705 127.811 795.225 102.967 847.496 106.632C880.653 108.956 912.622 123.39 934.551 148.717C955.104 172.456 963.858 201.481 966.575 232.178C967.497 242.599 967.965 252.796 967.186 263.246C964.102 304.593 955.87 341.635 942.524 380.798C925.387 431.084 901.115 479.291 860.108 514.348C856.473 517.455 852.358 521.181 848.02 523.282C840.395 514.429 829.108 499.183 820.913 491.754C820.19 491.099 819.845 490.588 818.861 490.62L818.153 492.494C819.311 460.853 820.138 429.201 820.633 397.543C820.705 390.836 820.848 384.13 821.061 377.426C821.239 372.376 821.757 367.061 821.222 362.027C820.804 358.099 819.15 354.184 817.243 350.751C814.305 345.46 809.388 340.519 803.962 337.787C796.675 334.117 787.714 333.359 779.759 332.088C761.631 329.244 743.477 326.567 725.3 324.055C717.141 322.857 707.825 322.386 700.025 319.936C697.051 319.002 696.842 310.019 695.205 306.924C693.382 303.474 690.643 302.486 687.084 301.451C678.353 298.912 668.286 298.547 659.26 297.277C650.971 296.11 639.171 293.159 631.089 293.669C628.408 293.838 626.134 294.929 623.822 296.204Z" fill="#B9FBC0"/>
<path d="M206.796 351.988C206.552 344.337 205.935 336.241 206.756 328.623C207.542 321.327 210.179 314.004 216.2 309.392C218.662 307.506 221.359 306.425 224.271 305.468C233.421 302.461 242.867 300.125 252.139 297.503L303.06 282.889C317.482 278.676 342.126 269.247 355.499 268.093C370.123 266.83 385.524 271.811 400.012 273.686C409.523 274.898 419.369 275.519 428.769 277.315C428.644 260.719 427.713 241.361 440.219 228.476C451.165 217.199 469.353 215.316 484.178 215.336C506.274 215.366 545.743 220.103 565.792 229.229C570.6 231.417 575.121 234.342 578.83 238.126C594.838 254.456 594.538 282.788 594.549 304.16C603.008 305.257 611.435 306.718 619.894 307.757C620.197 303.129 620.666 299.844 623.821 296.203C626.133 294.928 628.407 293.837 631.088 293.668C639.17 293.158 650.97 296.109 659.259 297.276C668.285 298.546 678.352 298.911 687.083 301.45C690.642 302.485 693.381 303.473 695.204 306.923C696.841 310.018 697.05 319.001 700.024 319.935C707.824 322.385 717.14 322.856 725.299 324.054C743.476 326.566 761.63 329.243 779.758 332.087C787.713 333.358 796.674 334.116 803.961 337.786C809.387 340.518 814.304 345.459 817.242 350.75C819.149 354.183 820.803 358.098 821.221 362.026C821.756 367.06 821.238 372.375 821.06 377.425C820.847 384.129 820.704 390.835 820.632 397.542C820.137 429.2 819.31 460.852 818.152 492.493C817.729 508.96 817.826 525.689 816.554 542.11L813.378 666.253L812.762 705.835C812.624 713.997 813.087 722.923 811.484 730.92C810.016 738.242 806.897 744.355 801.477 749.476C795.725 754.909 788.572 757.717 782.23 762.259C764.659 774.843 747.538 788.003 729.86 800.464C723.175 805.176 716.37 810.814 709.103 814.553C703.624 817.372 697.229 818.93 691.056 818.788C681.757 818.574 666.223 812.925 656.702 810.318L592.965 793.091C591.414 796.679 589.954 799.175 586.161 800.716C580.308 803.093 571.342 800.808 565.747 798.291C560.797 796.064 555.499 791.936 553.562 786.663C553.045 785.258 552.596 783.803 552.247 782.348C536.052 776.872 519.015 773.047 502.485 768.664C472.717 760.598 442.883 752.775 412.988 745.195L376.017 735.674C367.094 733.362 353.436 730.745 345.613 726.319C345.074 726.878 344.535 727.427 343.971 727.961C340.622 731.132 337.097 733.107 332.342 732.835C326.655 732.511 319.47 729.752 315.44 725.692C313.521 723.758 312.151 721.345 310.267 719.374L309.577 718.665C293.34 714.456 277.08 710.34 260.796 706.316C251.802 704.044 242.183 702.181 233.509 698.912C230.428 697.751 227.635 696.358 225.214 694.085C220.747 689.89 217.381 683.876 216.156 677.87C213.762 666.144 214.714 649.316 214.216 636.889C212.403 591.687 212.015 546.379 210.967 501.152L206.796 351.988ZM350.324 291.577L347.682 290.345C345.213 291.807 343.535 295.711 341.268 297.675C334.566 303.479 323.982 307.573 318.376 314.411C316.348 315.796 314.668 317.637 312.929 319.361C324.937 321.616 337.545 321.722 349.699 323.086C354.089 320.039 358.581 317.253 363.158 314.499C376.808 306.848 392.4 302.806 406.62 296.256C414.544 292.606 421.215 286.96 429.034 283.352C428.882 282.213 428.687 281.099 428.472 279.972C425.585 277.836 400.914 276.144 395.706 275.521C396.151 276.146 396.585 276.778 397.007 277.419C398.17 279.194 398.772 280.799 398.252 282.928C397.689 285.237 395.821 286.894 393.836 288.039C381.925 294.911 363.249 295.154 350.324 291.577ZM622.611 301.557L622.527 302.515C622.276 305.461 621.821 307.321 623.852 309.728C622.792 310.672 622.214 310.634 620.807 310.515C614.881 310.011 598.836 305.411 594.482 306.921C593.132 314.058 607.137 320.831 597.331 327.461C590.323 332.2 575.674 333.881 567.516 331.931C565.293 331.399 563.341 330.201 562.183 328.189C560.516 325.292 560.932 321.861 561.853 318.796C564.117 311.261 565.758 309.409 572.517 305.686C572.74 305.563 574.13 304.918 574.261 304.72C574.944 303.69 574.744 303.035 574.27 302.07C571.505 300.893 556.112 299.436 551.852 298.807L469.291 286.781C462.78 285.783 456.182 285.121 449.7 284.007C454.098 286.416 458.022 288.922 459.64 294.003C460.548 296.856 460.247 300.102 458.721 302.693C455.799 307.655 448.743 309.703 443.433 310.842C437.212 312.177 428.792 312.965 423.233 309.319C420.669 307.638 419.197 305.257 418.649 302.258C418.091 299.207 418.478 295.517 418.829 292.431C411.575 296.412 404.315 299.938 396.644 303.049C381.555 309.168 366.739 313.909 353.274 323.417C366.429 323.785 379.533 326.494 392.484 328.678C404.619 330.697 416.781 332.549 428.967 334.232L511.023 346.142C529.454 348.747 548.528 350.678 566.7 354.644C584.592 334.003 602.557 326.929 628.069 319.595C634.083 317.866 640.412 316.496 646.275 314.323C640.531 313.645 632.131 313.689 627 311.007C626.636 309.987 626.643 310.498 626.972 309.475C628.114 307.671 628.947 305.957 631.136 305.314C634.997 304.179 682.8 310.699 686.181 313.038C691.088 316.433 686.155 318.599 695.369 319.397C694.752 316.478 694.147 313.796 692.944 311.049C691.72 309.569 689.746 307.867 689.158 306.078C691.328 306.938 692.597 308.167 694.306 309.681C693.442 308.021 692.235 306.409 690.654 305.358C686.309 302.467 642.276 296.812 635.37 296.319C632.987 296.149 630.26 296.024 627.939 296.596C625.294 297.248 624.015 299.421 622.611 301.557ZM328.785 323.548C322.877 323.265 316.969 322.517 311.097 321.814C309.599 324.19 308.194 326.492 307.026 329.052C304.539 335.168 303.585 341.924 303.068 348.463C301.84 363.99 303.06 379.765 303.344 395.316L305.347 490.795L308.297 622.542L309.331 673.219C309.503 684.648 309.076 696.352 310.115 707.735C310.636 713.434 311.296 717.739 315.268 722.205C319.251 726.684 327.413 730.702 333.527 730.757C337.941 730.796 340.983 727.62 343.963 724.798C343.706 723.983 343.475 723.161 343.271 722.331C341.756 716.243 342.23 709.094 342.103 702.843C341.867 691.876 341.692 680.908 341.577 669.939C340.74 634.936 340.19 599.927 339.927 564.915L338.121 427.205C337.921 404.329 336.677 380.776 338.356 357.956C339.215 346.274 341.546 335.546 347.762 325.504C341.517 324.487 335.089 324.12 328.785 323.548ZM381.099 329.266C371 327.629 361.078 326.138 350.862 325.502C336.784 341.61 339.967 383.023 340.201 404.209C346.234 405.898 351.681 408.701 354.808 414.429C356.432 417.405 357.115 421.419 357.392 424.789C358.119 433.628 356.818 461.512 354.312 469.489C353.299 472.713 350.611 475.649 347.63 477.187C345.588 478.241 343.337 478.65 341.082 478.951L342.44 574.711C347.045 576.122 351.48 578.695 353.803 583.091C358.93 592.788 359.884 627.223 356.339 637.568C355.142 641.061 353.267 643.825 349.87 645.454C347.846 646.425 345.639 646.728 343.438 647.04L344.21 694.243C344.358 701.951 343.948 710.078 344.847 717.72C345.159 720.375 345.825 722.455 347.097 724.794C357.525 729.226 369.132 731.543 380.089 734.327C391.226 737.157 402.348 740.291 413.531 742.912L497.076 764.874C515.611 769.782 534.412 774.266 552.705 780.001C552.956 766.168 553.11 752.333 553.169 738.498C553.258 727.506 553.579 716.454 553.184 705.466C550.388 704.008 547.906 702.483 545.776 700.093C535.705 688.797 538.044 661.246 539.12 646.84C539.74 643.262 540.491 639.52 542.815 636.612C545.526 633.218 549.492 632.355 553.56 631.782C553.932 615.857 554.102 599.928 554.072 583.999L554.578 510.287C552.578 509.601 550.71 508.77 548.964 507.557C543.379 503.678 540.61 497.914 539.449 491.37C537.847 482.334 537.594 458.442 539.333 449.542C539.974 446.259 541.112 443.001 543.091 440.277C546.201 435.994 549.882 434.751 554.832 433.854L555.16 405.118C555.424 387.914 555.567 371.727 565.117 356.701C546.513 352.58 526.91 350.695 508.036 347.937C465.673 342.064 423.359 335.841 381.099 329.266ZM303.374 332.161C304.61 328.279 306.495 324.828 308.548 321.321C286.916 318.428 265.15 316.696 243.543 313.466C247.209 318.229 248.915 323.499 248.155 329.542C247.568 334.212 245.642 338.101 243.247 342.05C238.011 347.731 232.255 351.274 224.302 351.59C218.911 351.804 214.01 350.357 208.968 348.64L213.039 498.535C215.032 547.692 214.771 596.953 216.721 646.124C226.319 648.853 234.099 653.317 241.347 660.236C253.573 671.907 257.708 686.768 258.175 703.165L309.252 716.179C306.191 705.521 307.388 692.46 307.196 681.376L306.39 635.313C302.542 633.218 299.093 631.082 296.799 627.183C295.414 624.83 294.664 622.379 294.318 619.681C293.254 611.381 294.777 581.326 297.175 573.552C298.419 569.519 300.819 567.409 304.504 565.575C304.276 534.453 303.328 503.264 302.711 472.14C300.833 471.122 298.848 470.02 297.274 468.564C289.427 461.301 291.019 446.258 290.79 436.414C290.257 427.829 288.898 413.583 292.156 405.769C294.012 401.315 296.63 399.04 301 397.237C300.951 375.886 298.176 353.021 303.374 332.161ZM814.162 548.893C815.131 542.316 814.729 535.067 814.886 528.403L815.847 490.832C816.83 451.824 818.524 412.824 818.56 373.801C814.46 376.724 809.57 379.479 804.333 378.436C800.61 377.695 797.782 375.023 795.852 371.872C790.108 362.494 790.343 350.576 782.245 342.45C769.93 347.739 757.676 353.006 745.236 357.994C735.604 361.857 724.908 365.521 715.789 370.422C722.68 372.875 727.704 376.75 730.932 383.481C733.989 389.855 734.986 396.964 735.363 403.966C735.827 412.562 735.165 421.342 734.861 429.944L733.691 467.84C732.796 500.322 732.894 532.831 731.57 565.299L727.722 722.821C727.269 737.707 727.188 752.607 726.86 767.497C726.685 775.448 726.751 783.561 725.873 791.465C725.39 795.811 723.724 799.455 721.87 803.344C742.935 788.863 764.054 773.958 783.877 757.814C783.918 753.766 784.259 749.726 784.897 745.728C787.669 728.765 796.719 715.924 810.512 705.964L814.162 548.893ZM729.495 565.966L731.772 454.908C732.066 444.862 732.412 434.818 732.811 424.775C733.173 415.847 733.876 406.9 732.723 397.999C731.74 390.417 729.248 383.417 723.931 377.778C719.823 373.42 714.324 373.943 709.881 370.693C714.882 367.379 721.386 365.315 726.927 363.043C738.341 358.365 749.861 353.926 761.252 349.198C771.279 345.037 781.118 339.379 791.535 336.367C771.63 332.827 751.549 330.245 731.561 327.226C723.009 325.935 706.943 322.359 698.795 322.85C693.214 323.186 687.279 325.313 681.889 326.813C660.798 332.683 638.943 339.323 620.811 351.996C616.982 354.672 613.539 357.689 610.256 361.004L647.327 365.618C669.063 368.384 694.11 370.048 708.64 388.809C714.532 396.418 717.851 406.826 716.372 416.46C715.983 418.994 714.807 421.022 713.56 423.219C712.226 425.567 711.801 427.59 711.522 430.262C710.947 435.771 711.066 441.43 710.885 446.967L709.888 478.039L707.199 570.701C705.805 594.168 705.801 617.874 705.467 641.382L703.728 734.491C703.394 755.216 703.552 776.034 702.706 796.74C702.375 804.852 701.321 810.608 695.095 816.334C702.506 815.093 709.945 812.814 715.625 807.648C719.356 804.254 722.105 799.598 723.02 794.624C724.71 785.432 724.458 775.774 724.668 766.455L725.563 725.556L729.495 565.966ZM704.723 575.004C705.871 542.628 706.817 510.246 707.563 477.858C708.106 460.431 709.343 442.954 709.52 425.527C694.746 425.137 681.407 424.763 670.597 413.218C661.356 403.349 657.732 389.75 658.296 376.472C658.401 374.191 658.534 371.911 658.695 369.634C642.291 366.902 625.107 364.413 608.509 363.32C605.906 368.431 603.996 373.569 602.769 379.182C601.096 386.834 600.786 394.791 600.294 402.588C599.492 415.132 598.992 427.693 598.795 440.261C603.165 441.346 606.599 444.192 608.923 448.033C610.586 450.781 611.4 453.844 611.858 456.998C613.141 465.846 613.109 495.287 610.77 503.368C609.252 508.61 605.136 513.575 600.324 516.124C599.363 516.633 598.362 517.067 597.358 517.482L595.871 595.632C595.774 600.344 594.558 628.568 595.614 631.742C595.637 631.81 596.168 632.584 596.199 632.614C596.294 632.712 596.429 632.761 596.544 632.834C601.383 635.62 605.484 639.667 607.199 645.093C610.92 656.863 610.625 695.118 604.575 705.88C602.226 710.059 598.274 711.795 593.9 713.097L593.026 791.072C600.396 792.344 607.684 794.658 614.886 796.668C626.584 800.014 638.34 803.151 650.15 806.079C650.277 797.129 652.24 788.241 657.46 780.814C666.598 767.812 686.504 764.926 701.118 762.29C701.7 745.445 701.668 728.544 701.954 711.687C702.727 666.141 703.218 620.53 704.723 575.004ZM593.069 633.429L595.555 488.296C595.67 463.937 596.263 439.584 597.335 415.249C597.893 404.229 598.196 392.937 599.882 382.034C600.931 375.247 603.249 368.892 606.361 362.796L568.108 356.816C563.214 364.413 559.946 371.761 558.656 380.764C557.246 390.615 557.407 400.605 557.293 410.533L557.176 458.373L556.485 565.087C556.389 591.301 556.714 617.683 555.7 643.872C555.237 653.554 555.489 663.384 555.419 673.086L555.103 729.571L554.984 763.648C554.968 770.219 554.611 776.995 555.315 783.524C555.619 786.349 556.177 787.966 558.043 790.123C563.118 795.991 572.818 799.072 580.407 799.507C583.191 799.666 585.847 799.287 587.937 797.278C589.394 795.876 590.022 794.249 590.251 792.267C591.107 784.881 590.857 777.199 590.998 769.77C591.336 755.991 591.55 742.21 591.638 728.428L592.119 678.967C592.415 663.794 593.062 648.605 593.069 633.429ZM553.461 645.419C553.492 643.136 554.285 636.021 553.023 634.354C552.318 633.424 551.863 633.508 550.794 633.426C547.608 634.801 544.131 638.32 542.768 641.56C542.18 642.958 541.871 644.521 541.55 646C539.785 656.323 539.638 678.929 542.345 688.974C544.092 695.456 547.181 699.76 552.983 703.093L553.461 645.419ZM478.315 217.71C464.962 218.566 450.42 220.568 441.073 231.247C428.099 246.069 430.658 272.913 432.006 291.27C434.572 292.51 438.165 294.43 441.077 293.805C441.657 293.68 442.461 293.402 442.695 292.805C443.699 290.239 443.194 285.203 443.255 282.329C443.556 268.064 443.297 245.33 458.036 237.571C463.331 234.784 469.792 234.244 475.68 234.253C487.742 234.272 499.779 237.226 511.692 238.881C525.21 240.76 539.169 241.113 552.217 245.428C553.601 245.886 554.953 246.384 556.295 246.955C563.933 250.531 569.402 255.577 572.327 263.707C578.197 280.018 575.158 297.901 577.262 314.702C580.358 315.6 583.404 316.041 586.597 316.447L590.065 314.015C595.287 299.591 591.409 265.342 584.904 251.434C579.584 240.061 571.019 233.23 559.329 229.036C540.791 222.385 497.33 216.043 478.315 217.71ZM471.358 236.697C464.586 237.39 458.456 238.479 453.784 243.965C446.035 253.064 445.413 269.406 445.449 280.702C455.704 283.33 466.541 284.067 477.003 285.683C501.78 289.611 526.615 293.175 551.497 296.372C559.137 297.556 566.763 298.728 574.499 299.055C574.081 285.389 574.398 264.457 563.77 254.447C559.96 250.858 555.255 248.655 550.292 247.155C537.755 243.365 523.942 242.887 510.99 241.126C498.589 239.439 485.593 235.895 473.048 236.588C472.484 236.617 471.921 236.654 471.358 236.697ZM358.469 270.21C343.931 270.998 327.262 277.753 313.243 282.085C300.534 285.93 287.801 289.695 275.045 293.381C264.387 296.455 253.712 299.466 243.02 302.416C237.702 303.898 232.081 305.136 226.911 307.04C234.08 307.814 238.172 310.179 244.445 311.382C257.552 313.066 270.672 314.659 283.801 316.161C292.441 317.13 301.297 317.734 309.856 319.191C313.225 315.9 316.616 312.763 320.389 309.929C328.667 303.712 339.896 298.09 345.418 289.174C343.838 286.887 342.342 285.154 342.942 282.19C343.562 279.127 346.009 277.106 348.579 275.593C354.197 272.285 359.979 272.001 366.033 270.253C363.558 270.186 360.927 269.928 358.469 270.21ZM368.589 271.679C361.868 272.655 351.466 274.113 346.877 279.783C345.898 280.993 345.29 282.51 345.665 284.085C346.248 286.536 348.745 288.271 350.906 289.234C357.835 292.324 366.766 291.495 374.124 290.953C379.774 290.206 391.049 288.927 394.817 284.147C395.681 283.051 396.218 281.748 396.022 280.325C395.763 278.448 394.194 276.727 393.082 275.264C386.906 273.791 374.614 270.513 368.589 271.679ZM445.646 284.162C445.559 285.855 445.166 288.359 445.579 289.991C446.515 293.696 452.176 297.254 447.485 301.317C444.294 304.079 438.397 304.851 434.363 304.433C431.018 304.087 426.788 302.919 424.602 300.153C423.736 299.057 423.379 297.809 423.492 296.419C423.607 295.006 424.206 293.604 425.376 292.772C426.627 291.883 428.069 291.481 429.284 290.477C429.383 288.928 429.266 287.779 428.955 286.257L428.232 286.027C426.031 287.165 422.506 288.752 421.621 291.256C421.283 292.21 421.113 293.255 420.928 294.249C420.685 297.75 420.011 302.852 422.307 305.8C424.657 308.816 430.295 309.486 433.825 309.541C440.292 309.644 450.949 308.203 455.65 303.391C457.31 301.692 457.969 299.596 457.9 297.247C457.808 294.099 456.527 291.294 454.232 289.138C451.814 286.868 448.608 285.564 445.646 284.162ZM429.147 292.871C427.978 293.807 426.636 294.763 426.28 296.316C425.998 297.547 426.334 298.366 427.069 299.352C428.757 301.617 434.091 302.365 436.64 302.389C439.079 302.396 441.498 301.933 443.763 301.026C445.331 299.741 446.671 298.032 446.854 295.923C446.869 295.755 446.845 295.586 446.841 295.418C445.95 294.704 446.438 294.83 445.353 294.948C437.373 295.815 436.663 295.871 429.147 292.871ZM631.599 307.508L630.288 308.75C634.522 312.239 676.67 315.817 685.464 317.629L686.275 317.109C685.711 315.548 685.149 314.707 683.589 314.001C679.675 312.228 637.273 307.399 631.599 307.508ZM573.216 307.843C570.78 309.233 566.752 311.326 566.005 314.286C565.65 315.694 565.773 316.41 566.582 317.617C568.528 320.52 574.378 321.398 577.563 321.586C583.005 321.907 588.977 321.419 594.086 319.423C595.101 318.322 595.484 318.082 595.486 316.502C595.487 315.305 595.062 313.824 594.289 312.916L593.261 312.646C591.156 315.406 589.29 317.796 585.651 318.361C582.34 318.876 578.301 317.698 575.174 316.614C574.984 314.529 575.041 309.178 573.777 307.871L573.216 307.843ZM220.919 309.563C215.826 312.046 212.496 315.484 210.603 320.897C207.947 328.493 208.613 337.538 208.637 345.491C215.743 349.284 222.613 350.689 230.532 348.27C231.135 348.085 231.736 347.893 232.334 347.695C238.458 344.478 243.12 339.916 245.152 333.127C246.637 328.17 246.473 322.482 243.937 317.891C241.74 313.915 238.036 311.491 233.718 310.316C229.765 309.24 224.977 309.024 220.919 309.563ZM652.569 315.64C621.537 322.972 591.37 329.859 569.503 354.869C582.167 356.809 594.974 358.441 607.569 360.753L610.321 357.808C628.002 341.038 652.471 332.664 675.522 326.268C682.321 324.381 689.334 322.262 696.349 321.396C681.705 319.777 667.186 317.422 652.569 315.64ZM563.747 318.226C563.105 320.901 562.464 323.581 563.944 326.108C565.111 328.102 567.208 329.236 569.396 329.773C577.958 331.876 590.024 328.92 597.664 324.894C598.509 323.439 598.625 322.464 598.688 320.795L598.261 319.971C597.024 319.924 597.628 319.778 596.536 320.446C589.987 324.454 578.519 325.042 571.119 323.143C567.471 322.207 566.64 319.538 563.747 318.226ZM792.807 338.036C789.971 339.158 787.108 340.232 784.341 341.517C786.486 343.916 788.107 346.075 789.456 349.041C792.887 356.583 795.412 375.443 805.717 376.124C807.34 376.231 808.992 376.016 810.576 375.676C814.259 374.017 817.263 372.528 818.685 368.472C820.39 363.604 818.44 357.666 816.124 353.273C812.496 346.392 806.387 340.625 798.784 338.487C796.733 337.911 794.911 337.796 792.807 338.036ZM661.285 369.868C659.491 383.527 661.263 397.457 669.865 408.678C675.927 416.586 684.768 421.472 694.639 422.626C697.51 422.962 710.453 423.808 712.328 422.358C715.124 413.448 715.118 404.6 710.648 396.198C704.425 384.502 692.87 377.311 680.484 373.573C674.217 371.682 667.766 370.691 661.285 369.868ZM300.361 399.897C296.241 402.766 293.782 406.121 292.886 411.145C291.51 418.863 292.735 449.622 294.202 457.384C294.788 460.489 295.698 463.256 297.57 465.837C297.75 466.085 297.935 466.329 298.126 466.569C299.577 467.651 301.011 468.757 302.543 469.722C302.378 454.77 302.061 439.82 301.594 424.875C301.431 417.388 301.992 409.109 301.071 401.716C300.975 400.945 300.897 400.429 300.361 399.897ZM340.355 406.485C340.266 421.197 340.481 435.932 340.594 450.646C340.654 458.532 339.967 467.769 341.334 475.49C342.292 476.232 342.567 476.342 343.867 476.15C346.62 475.745 349.411 473.234 351.074 471.161C354.743 463.024 356.954 426.091 353.636 417.602C351.899 413.158 348.044 409.517 343.684 407.664C342.597 407.21 341.485 406.817 340.355 406.485ZM551.716 436.484C547.27 438.381 544.903 440.682 543.046 445.219C538.877 455.405 539.622 488.82 544.251 498.855C545.156 500.775 546.343 502.548 547.773 504.116C549.986 505.789 552.036 506.922 554.554 508.039L554.83 461.296C554.895 453.359 555.64 444.719 554.762 436.852C553.653 436.413 552.898 436.422 551.716 436.484ZM598.556 442.566C598.493 457.593 598.264 472.618 597.869 487.64C597.665 496.223 596.625 505.677 597.675 514.173C598.962 514.44 599.633 514.121 600.694 513.384C602.004 512.474 603.387 511.236 604.471 510.075C606.571 507.388 607.921 504.856 608.738 501.533C610.751 493.345 610.837 467.131 609.77 458.531C609.142 453.471 607.074 447.861 602.892 444.662C601.539 443.627 600.176 443.04 598.556 442.566ZM303.984 568.452C300.499 570.871 299.363 572.674 298.644 576.813C297.087 585.772 295.328 612.657 296.821 621.208C297.114 622.888 297.808 624.571 298.758 625.986C299.637 627.296 300.714 628.564 301.852 629.655L306.257 632.455C306.072 625.209 305.213 569.741 303.984 568.452ZM342.799 577.087C341.852 582.422 342.647 641.727 343.901 643.975C345.751 644.589 346.963 644.197 348.688 643.352C350.021 642.7 350.969 641.89 351.992 640.834C353.242 638.68 354.232 636.716 354.819 634.267C357.387 623.541 356.272 599.199 353.422 588.495C352.275 584.188 350.195 580.906 346.256 578.627C345.153 577.989 344.02 577.454 342.799 577.087ZM595.395 635.116C594.57 660.411 593.539 685.9 594.042 711.206C597.037 709.852 599.538 708.548 601.898 706.189C603.205 704.26 604.12 702.49 604.75 700.237C607.688 689.717 608.419 660.753 606.337 650.216C605.05 643.701 602.508 639.46 596.795 635.896C596.076 635.447 596.039 635.443 595.395 635.116ZM216.682 648.637C217.019 661.993 214.702 681.461 225.399 691.492C233.037 698.656 246.152 700.033 255.919 702.831C255.551 687.341 251.241 672.732 239.819 661.721C233.213 655.353 225.509 651.083 216.682 648.637ZM809.593 709.362C794.312 721.541 788.348 735.009 786.166 754.139C786.026 755.358 785.885 755.297 786.45 756.449L787.231 756.557C797.201 751.6 804.079 746.114 807.714 735.277C810.207 727.847 811.134 717.762 810.405 709.971C809.753 709.368 810.07 709.486 809.593 709.362ZM698.823 765.169C685.498 767.301 667.518 770.426 659.107 782.167C654.09 789.171 652.039 798.307 652.504 806.824C655.69 807.746 658.868 808.743 662.116 809.427C671.622 812.078 681.162 814.891 690.901 816.566C695.495 813.959 697.966 810.906 699.432 805.757C700.602 801.649 702.101 767.738 700.704 765.128C700.064 765.108 699.454 765.045 698.823 765.169Z" fill="black"/>
<path d="M432.007 291.271C430.659 272.914 428.1 246.07 441.074 231.248C450.421 220.569 464.963 218.567 478.316 217.711C497.331 216.044 540.792 222.386 559.33 229.037C571.02 233.231 579.585 240.062 584.905 251.435C591.41 265.343 595.288 299.592 590.066 314.016L586.598 316.448C583.405 316.042 580.359 315.601 577.263 314.703C575.159 297.902 578.198 280.019 572.328 263.708C569.403 255.578 563.934 250.532 556.296 246.956C554.954 246.385 553.602 245.887 552.218 245.429C539.17 241.114 525.211 240.761 511.693 238.882C499.78 237.227 487.743 234.273 475.681 234.254C469.793 234.245 463.332 234.785 458.037 237.572C443.298 245.331 443.557 268.065 443.256 282.33C443.195 285.204 443.7 290.24 442.696 292.806C442.462 293.403 441.658 293.681 441.078 293.806C438.166 294.431 434.573 292.511 432.007 291.271Z" fill="#E7E4F7"/>
<path d="M445.451 280.703C445.415 269.407 446.037 253.065 453.786 243.966C458.458 238.48 464.588 237.391 471.36 236.698C471.923 236.655 472.486 236.618 473.05 236.589C485.595 235.896 498.591 239.44 510.992 241.127C523.944 242.888 537.757 243.366 550.294 247.156C555.257 248.656 559.962 250.859 563.772 254.448C574.4 264.458 574.083 285.39 574.501 299.056C566.765 298.729 559.139 297.557 551.499 296.373C526.617 293.176 501.782 289.612 477.005 285.684C466.543 284.068 455.706 283.331 445.451 280.703Z" fill="#E7E4F7"/>
<path d="M226.912 307.041C232.082 305.137 237.703 303.899 243.021 302.417C253.713 299.467 264.388 296.456 275.046 293.382C287.802 289.696 300.535 285.931 313.244 282.086C327.263 277.754 343.932 270.999 358.47 270.211C360.928 269.929 363.559 270.187 366.034 270.254C359.98 272.002 354.198 272.286 348.58 275.594C346.01 277.107 343.563 279.128 342.943 282.191C342.343 285.155 343.839 286.888 345.419 289.175C339.897 298.091 328.668 303.713 320.39 309.93C316.617 312.764 313.226 315.901 309.857 319.192C301.298 317.735 292.442 317.131 283.802 316.162C270.673 314.66 257.553 313.067 244.446 311.383C238.173 310.18 234.081 307.815 226.912 307.041Z" fill="#FFCFD2"/>
<path d="M374.126 290.954C366.768 291.496 357.837 292.325 350.908 289.235C348.747 288.272 346.25 286.537 345.667 284.086C345.292 282.511 345.9 280.994 346.879 279.784C351.468 274.114 361.87 272.656 368.591 271.68C374.616 270.514 386.908 273.792 393.084 275.265C394.196 276.728 395.765 278.449 396.024 280.326C396.22 281.749 395.683 283.052 394.819 284.148C391.051 288.928 379.776 290.207 374.126 290.954ZM373.936 277.054C370.859 275.466 368.176 274.463 364.728 275.469C362.653 276.074 360.236 277.32 359.302 279.413C358.593 281 358.661 282.455 359.376 284.003C360.111 285.596 361.07 286.709 362.472 287.76C364.869 288.496 367.994 289.306 370.372 288.106C374.373 286.087 375.642 282.5 376.907 278.497L376.565 277.36C375.327 276.815 375.249 276.767 373.936 277.054ZM385.178 279.11C384.405 279.901 384.088 279.954 383.917 281.062C383.576 283.268 380.037 285.032 380.399 286.929C382.188 287.326 383.656 286.805 385.393 286.348C387.37 285.32 390.131 284.23 390.958 282.001C391.256 281.196 390.888 280.91 390.554 280.189C388.963 279.002 387.081 279.177 385.178 279.11Z" fill="#98F5E1"/>
<path d="M373.935 277.055C370.767 276.276 367.725 275.816 364.743 277.58C363.234 278.473 361.829 279.84 361.561 281.656C361.386 282.844 361.794 283.999 362.661 284.827C364.338 286.428 367.163 286.433 369.329 286.241C369.498 286.226 369.666 286.196 369.835 286.173C370.749 285.2 371.978 284.108 372.006 282.674C372.028 281.544 371.788 281.058 371.115 280.194C367.888 280.405 369.078 282.157 365.272 279.497L365.505 279.027C368.476 278.503 371.831 279.744 374.588 278.756L374.727 278.044L373.935 277.055C375.248 276.768 375.326 276.816 376.564 277.361L376.906 278.498C375.641 282.501 374.372 286.088 370.371 288.107C367.993 289.307 364.868 288.497 362.471 287.761C361.069 286.71 360.11 285.597 359.375 284.004C358.66 282.456 358.592 281.001 359.301 279.414C360.235 277.321 362.652 276.075 364.727 275.47C368.175 274.464 370.858 275.467 373.935 277.055Z" fill="black"/>
<path d="M350.324 291.579C363.249 295.156 381.925 294.913 393.836 288.041C395.821 286.896 397.689 285.239 398.252 282.93C398.772 280.801 398.17 279.196 397.007 277.421C396.585 276.78 396.151 276.148 395.706 275.523C400.914 276.146 425.585 277.838 428.472 279.974C428.687 281.101 428.882 282.215 429.034 283.354C421.215 286.962 414.544 292.608 406.62 296.258C392.4 302.808 376.808 306.85 363.158 314.501C360.673 310.285 350.206 298.613 350.381 294.594C350.418 293.745 350.497 292.914 350.504 292.055L350.324 291.579Z" fill="#98F5E1"/>
<path d="M369.835 286.173C369.666 286.196 369.498 286.226 369.329 286.241C367.163 286.433 364.338 286.428 362.661 284.827C361.794 283.999 361.386 282.844 361.561 281.656C361.829 279.84 363.234 278.473 364.743 277.58C367.725 275.816 370.767 276.276 373.935 277.055L374.727 278.044L374.588 278.756C371.831 279.744 368.476 278.503 365.505 279.027L365.272 279.497C369.078 282.157 367.888 280.405 371.115 280.194C371.788 281.058 372.028 281.544 372.006 282.674C371.978 284.108 370.749 285.2 369.835 286.173Z" fill="#8EECF5"/>
<path d="M385.391 286.347C383.654 286.804 382.186 287.325 380.397 286.928C380.035 285.031 383.574 283.267 383.915 281.061C384.086 279.953 384.403 279.9 385.176 279.109C387.079 279.176 388.961 279.001 390.552 280.188C390.886 280.909 391.254 281.195 390.956 282C390.129 284.229 387.368 285.319 385.391 286.347Z" fill="black"/>
<path d="M623.853 309.729C624.994 309.548 625.813 309.414 626.973 309.476C626.644 310.499 626.637 309.988 627.001 311.008C632.132 313.69 640.532 313.646 646.276 314.324C640.413 316.497 634.084 317.867 628.07 319.596C602.558 326.93 584.593 334.004 566.701 354.645C548.529 350.679 529.455 348.748 511.024 346.143L428.968 334.233C416.782 332.55 404.62 330.698 392.485 328.679C379.534 326.495 366.43 323.786 353.275 323.418C366.74 313.91 381.556 309.169 396.645 303.05C404.316 299.939 411.576 296.413 418.83 292.432C418.479 295.518 418.092 299.208 418.65 302.259C419.198 305.258 420.67 307.639 423.234 309.32C428.793 312.966 437.213 312.178 443.434 310.843C448.744 309.704 455.8 307.656 458.722 302.694C460.248 300.103 460.549 296.857 459.641 294.004C458.023 288.923 454.099 286.417 449.701 284.008C456.183 285.122 462.781 285.784 469.292 286.782L551.853 298.808C556.113 299.437 571.506 300.894 574.271 302.071C574.745 303.036 574.945 303.691 574.262 304.721C574.131 304.919 572.741 305.564 572.518 305.687C565.759 309.41 564.118 311.262 561.854 318.797C560.933 321.862 560.517 325.293 562.184 328.19C563.342 330.202 565.294 331.4 567.517 331.932C575.675 333.882 590.324 332.201 597.332 327.462C607.138 320.832 593.133 314.059 594.483 306.922C598.837 305.412 614.882 310.012 620.808 310.516C622.215 310.635 622.793 310.673 623.853 309.729Z" fill="#98F5E1"/>
<path d="M420.929 294.251C421.114 293.257 421.284 292.212 421.622 291.258C422.507 288.754 426.032 287.167 428.233 286.029L428.956 286.259C429.267 287.781 429.384 288.93 429.285 290.479C428.07 291.483 426.628 291.885 425.377 292.774C424.207 293.606 423.608 295.008 423.493 296.421C423.38 297.811 423.737 299.059 424.603 300.155C426.789 302.921 431.019 304.089 434.364 304.435C438.398 304.853 444.295 304.081 447.486 301.319C452.177 297.256 446.516 293.698 445.58 289.993C445.167 288.361 445.56 285.857 445.647 284.164C448.609 285.566 451.815 286.87 454.233 289.14C456.528 291.296 457.809 294.101 457.901 297.249C457.97 299.598 457.311 301.694 455.651 303.393C450.95 308.205 440.293 309.646 433.826 309.543C430.296 309.488 424.658 308.818 422.308 305.802C420.012 302.854 420.686 297.752 420.929 294.251Z" fill="#F7E6ED"/>
<path d="M318.377 314.414C323.983 307.576 334.567 303.482 341.269 297.678C343.536 295.714 345.214 291.81 347.683 290.348L350.325 291.58L350.505 292.056L350.117 292.578C349.801 293.01 349.565 293.495 349.276 293.946C348.061 295.842 344.084 297.736 342.163 299.046C338.076 301.83 334.381 305.159 330.672 308.418L330.44 307.614C331.245 306.288 332.466 305.845 333.74 305.062C334.67 304.491 334.353 304.77 334.907 303.809C332.227 304.079 321.809 312.536 319.472 314.764L318.377 314.414Z" fill="#F1C0E8"/>
<path d="M318.377 314.413L319.472 314.763C321.809 312.535 332.227 304.078 334.907 303.808C334.353 304.769 334.67 304.49 333.74 305.061C332.466 305.844 331.245 306.287 330.44 307.613L330.672 308.417C334.381 305.158 338.076 301.829 342.163 299.045C344.084 297.735 348.061 295.841 349.276 293.945C349.565 293.494 349.801 293.009 350.117 292.577L350.505 292.055C350.498 292.914 350.419 293.745 350.382 294.594C350.207 298.613 360.674 310.285 363.159 314.501C358.582 317.255 354.09 320.041 349.7 323.088C337.546 321.724 324.938 321.618 312.93 319.363C314.669 317.639 316.349 315.798 318.377 314.413Z" fill="#90DBF4"/>
<path d="M443.764 301.026C441.499 301.933 439.08 302.396 436.641 302.389C434.092 302.365 428.758 301.617 427.07 299.352C426.335 298.366 425.999 297.547 426.281 296.316C426.637 294.763 427.979 293.807 429.148 292.871C436.664 295.871 437.374 295.815 445.354 294.948C446.439 294.83 445.951 294.704 446.842 295.418C446.846 295.586 446.87 295.755 446.855 295.923C446.672 298.032 445.332 299.741 443.764 301.026Z" fill="#F7E6ED"/>
<path d="M623.853 309.728C621.822 307.321 622.277 305.461 622.528 302.515L622.612 301.557C624.016 299.421 625.295 297.248 627.94 296.596C630.261 296.024 632.988 296.149 635.371 296.319C642.277 296.812 686.31 302.467 690.655 305.358C692.236 306.409 693.443 308.021 694.307 309.681C692.598 308.167 691.329 306.938 689.159 306.078C689.747 307.867 691.721 309.569 692.945 311.049C694.148 313.796 694.753 316.478 695.37 319.397C686.156 318.599 691.089 316.433 686.182 313.038C682.801 310.699 634.998 304.179 631.137 305.314C628.948 305.957 628.115 307.671 626.973 309.475C625.813 309.413 624.994 309.547 623.853 309.728Z" fill="#98F5E1"/>
<path d="M685.465 317.631C676.671 315.819 634.523 312.241 630.289 308.752L631.6 307.51C637.274 307.401 679.676 312.23 683.59 314.003C685.15 314.709 685.712 315.55 686.276 317.111L685.465 317.631Z" fill="#98F5E1"/>
<path d="M594.088 319.424C588.979 321.42 583.007 321.908 577.565 321.587C574.38 321.399 568.53 320.521 566.584 317.618C565.775 316.411 565.652 315.695 566.007 314.287C566.754 311.327 570.782 309.234 573.218 307.844L573.779 307.872C575.043 309.179 574.986 314.53 575.176 316.615C578.303 317.699 582.342 318.877 585.653 318.362C589.292 317.797 591.158 315.407 593.263 312.647L594.291 312.917C595.064 313.825 595.489 315.306 595.488 316.503C595.486 318.083 595.103 318.323 594.088 319.424Z" fill="#FBF7E9"/>
<path d="M208.638 345.493C208.614 337.54 207.948 328.495 210.604 320.899C212.497 315.486 215.827 312.048 220.92 309.565C224.978 309.026 229.766 309.242 233.719 310.318C238.037 311.493 241.741 313.917 243.938 317.893C246.474 322.484 246.638 328.172 245.153 333.129C243.121 339.918 238.459 344.48 232.335 347.697C231.737 347.895 231.136 348.087 230.533 348.272C222.614 350.691 215.744 349.286 208.638 345.493Z" fill="#FFCFD2"/>
<path d="M303.375 332.164C297.728 332.187 292.07 333.257 286.52 334.205C272.113 336.668 257.769 340.481 243.248 342.053C245.643 338.104 247.569 334.215 248.156 329.545C248.916 323.502 247.21 318.232 243.544 313.469C265.151 316.699 286.917 318.431 308.549 321.324C306.496 324.831 304.611 328.282 303.375 332.164Z" fill="#FFCFD2"/>
<path d="M569.504 354.87C591.371 329.86 621.538 322.973 652.57 315.641C667.187 317.423 681.706 319.778 696.35 321.397C689.335 322.263 682.322 324.382 675.523 326.269C652.472 332.665 628.003 341.039 610.322 357.809L607.57 360.754C594.975 358.442 582.168 356.81 569.504 354.87Z" fill="#98F5E1"/>
<path d="M597.666 324.895C590.026 328.921 577.96 331.877 569.398 329.774C567.21 329.237 565.113 328.103 563.946 326.109C562.466 323.582 563.107 320.902 563.749 318.227C566.642 319.539 567.473 322.208 571.121 323.144C578.521 325.043 589.989 324.455 596.538 320.447C597.63 319.779 597.026 319.925 598.263 319.972L598.69 320.796C598.627 322.465 598.511 323.44 597.666 324.895Z" fill="#FBF7E9"/>
<path d="M311.098 321.816C316.97 322.519 322.878 323.267 328.786 323.55C325.996 325.807 312.161 329.778 308.522 329.362C307.706 329.269 307.786 329.261 307.027 329.054C308.195 326.494 309.6 324.192 311.098 321.816Z" fill="#F7E6ED"/>
<path d="M729.497 565.967C721.984 566.624 714.762 569.974 707.201 570.702L709.89 478.04L710.887 446.968C711.068 441.431 710.949 435.772 711.524 430.263C711.803 427.591 712.228 425.568 713.562 423.22C714.809 421.023 715.985 418.995 716.374 416.461C717.853 406.827 714.534 396.419 708.642 388.81C694.112 370.049 669.065 368.385 647.329 365.619L610.258 361.005C613.541 357.69 616.984 354.673 620.813 351.997C638.945 339.324 660.8 332.684 681.891 326.814C687.281 325.314 693.216 323.187 698.797 322.851C706.945 322.36 723.011 325.936 731.563 327.227C751.551 330.246 771.632 332.828 791.537 336.368C781.12 339.38 771.281 345.038 761.254 349.199C749.863 353.927 738.343 358.366 726.929 363.044C721.388 365.316 714.884 367.38 709.883 370.694C714.326 373.944 719.825 373.421 723.933 377.779C729.25 383.418 731.742 390.418 732.725 398C733.878 406.901 733.175 415.848 732.813 424.776C732.414 434.819 732.068 444.863 731.774 454.909L729.497 565.967Z" fill="#98F5E1"/>
<path d="M328.786 323.551C335.09 324.123 341.518 324.49 347.763 325.507C341.547 335.549 339.216 346.277 338.357 357.959C336.678 380.779 337.922 404.332 338.122 427.208L339.928 564.918C340.191 599.93 340.741 634.939 341.578 669.942C341.693 680.911 341.868 691.879 342.104 702.846C342.231 709.097 341.757 716.246 343.272 722.334C343.476 723.164 343.707 723.986 343.964 724.801C340.984 727.623 337.942 730.799 333.528 730.76C327.414 730.705 319.252 726.687 315.269 722.208C311.297 717.742 310.637 713.437 310.116 707.738C309.077 696.355 309.504 684.651 309.332 673.222L308.298 622.545L305.348 490.798L303.345 395.319C303.061 379.768 301.841 363.993 303.069 348.466C303.586 341.927 304.54 335.171 307.027 329.055C307.786 329.262 307.706 329.27 308.522 329.363C312.161 329.779 325.996 325.808 328.786 323.551Z" fill="#8EECF5"/>
<path d="M350.862 325.504C361.078 326.14 371 327.631 381.099 329.268C382.117 335.674 387.038 340.812 389.423 346.757C397.241 366.248 400.521 386.282 401.603 407.157C403.231 438.585 391.152 473.872 399.934 504.131C405.738 524.129 418.732 533.775 431.944 548.455C444.866 562.528 453.969 579.675 458.383 598.263C459.972 605.049 460.698 611.945 460.909 618.903C461.007 622.164 460.788 625.639 461.138 628.859C456.921 664.447 450.23 685.846 431.006 716.247C425.325 725.231 419.106 733.858 413.531 742.914C402.348 740.293 391.226 737.159 380.089 734.329C369.132 731.545 357.525 729.228 347.097 724.796C345.825 722.457 345.159 720.377 344.847 717.722C343.948 710.08 344.358 701.953 344.21 694.245L343.438 647.042C345.639 646.73 347.846 646.427 349.87 645.456C353.267 643.827 355.142 641.063 356.339 637.57C359.884 627.225 358.93 592.79 353.803 583.093C351.48 578.697 347.045 576.124 342.44 574.713L341.082 478.953C343.337 478.652 345.588 478.243 347.63 477.189C350.611 475.651 353.299 472.715 354.312 469.491C356.818 461.514 358.119 433.63 357.392 424.791C357.115 421.421 356.432 417.407 354.808 414.431C351.681 408.703 346.234 405.9 340.201 404.211C339.967 383.025 336.784 341.612 350.862 325.504Z" fill="#8EECF5"/>
<path d="M381.1 329.266C423.36 335.841 465.674 342.064 508.037 347.937C526.911 350.695 546.514 352.58 565.118 356.701C555.568 371.727 555.425 387.914 555.161 405.118L554.833 433.854C549.883 434.751 546.202 435.994 543.092 440.277C541.113 443.001 539.975 446.259 539.334 449.542C537.595 458.442 537.848 482.334 539.45 491.37C540.611 497.914 543.38 503.678 548.965 507.557C550.711 508.77 552.579 509.601 554.579 510.287L554.073 583.999C554.103 599.928 553.933 615.857 553.561 631.782C549.493 632.355 545.527 633.218 542.816 636.612C540.492 639.52 539.741 643.262 539.121 646.84C532.974 647.261 527.006 648.315 520.799 648.299C500.42 648.246 477.524 641.189 461.139 628.857C460.789 625.637 461.008 622.162 460.91 618.901C460.699 611.943 459.973 605.047 458.384 598.261C453.97 579.673 444.867 562.526 431.945 548.453C418.733 533.773 405.739 524.127 399.935 504.129C391.153 473.87 403.232 438.583 401.604 407.155C400.522 386.28 397.242 366.246 389.424 346.755C387.039 340.81 382.118 335.672 381.1 329.266Z" fill="#98F5E1"/>
<path d="M243.248 342.049C257.769 340.477 272.113 336.664 286.52 334.201C292.07 333.253 297.728 332.183 303.375 332.16C298.177 353.02 300.952 375.885 301.001 397.236C296.631 399.039 294.013 401.314 292.157 405.768C288.899 413.582 290.258 427.828 290.791 436.413C287.326 437.92 274.77 454.437 270.73 458.688C257.562 472.545 242.129 483.41 225.416 492.611C221.536 494.747 217.283 497.288 213.04 498.534L208.969 348.639C214.011 350.356 218.912 351.803 224.303 351.589C232.256 351.273 238.012 347.73 243.248 342.049Z" fill="#8EECF5"/>
<path d="M784.342 341.517C787.109 340.232 789.972 339.158 792.808 338.036C794.912 337.796 796.734 337.911 798.785 338.487C806.388 340.625 812.497 346.392 816.125 353.273C818.441 357.666 820.391 363.604 818.686 368.472C817.264 372.528 814.26 374.017 810.577 375.676C808.993 376.016 807.341 376.231 805.718 376.124C795.413 375.443 792.888 356.583 789.457 349.041C788.108 346.075 786.487 343.916 784.342 341.517Z" fill="#98F5E1"/>
<path d="M814.162 548.892C814.026 546.871 814.115 544.958 814.288 542.942C806.21 545.045 798.342 548.588 790.465 551.377C782.613 554.157 774.453 556.331 766.401 558.453C758.7 560.483 750.854 561.879 743.013 563.241C739.438 563.863 734.921 564.066 731.57 565.298C732.894 532.83 732.796 500.321 733.691 467.839L734.861 429.943C735.165 421.341 735.827 412.561 735.363 403.965C734.986 396.963 733.989 389.854 730.932 383.48C727.704 376.749 722.68 372.874 715.789 370.421C724.908 365.52 735.604 361.856 745.236 357.993C757.676 353.005 769.93 347.738 782.245 342.449C790.343 350.575 790.108 362.493 795.852 371.871C797.782 375.022 800.61 377.694 804.333 378.435C809.57 379.478 814.46 376.723 818.56 373.8C818.524 412.823 816.83 451.823 815.847 490.831L814.886 528.402C814.729 535.066 815.131 542.315 814.162 548.892Z" fill="#98F5E1"/>
<path d="M116.542 409.659C116.937 409.127 117.342 408.602 117.756 408.085C135.912 385.437 164.786 369.473 191.026 358.312C195.594 356.369 201.86 352.511 206.797 351.988L210.968 501.152C207.732 501.19 197.254 506.754 193.733 508.119C180.043 513.427 166.039 517.546 152.473 523.292C150.299 524.212 144.728 527.351 142.734 526.601C143.892 514.716 143.598 502.73 143.615 490.799C143.628 481.495 143.858 472.128 142.583 462.888C139.859 443.155 127.643 425.942 116.521 409.963L116.542 409.659Z" fill="#8EECF5"/>
<path d="M593.07 633.429C581.399 634.351 567.733 641.529 555.701 643.872C556.715 617.683 556.39 591.301 556.486 565.087L557.177 458.373L557.294 410.533C557.408 400.605 557.247 390.615 558.657 380.764C559.947 371.761 563.215 364.413 568.109 356.816L606.362 362.796C603.25 368.892 600.932 375.247 599.883 382.034C598.197 392.937 597.894 404.229 597.336 415.249C596.264 439.584 595.671 463.937 595.556 488.296L593.07 633.429Z" fill="#98F5E1"/>
<path d="M704.723 575.004C704.512 573.532 704.624 572.967 703.576 571.869C696.159 570.258 663.759 589.033 656.345 593.801C642.942 602.42 630.586 612.647 617.21 621.326C610.684 625.56 602.69 628.233 596.544 632.834C596.429 632.761 596.294 632.712 596.199 632.614C596.168 632.584 595.637 631.81 595.614 631.742C594.558 628.568 595.774 600.344 595.871 595.632L597.358 517.482C598.362 517.067 599.363 516.633 600.324 516.124C605.136 513.575 609.252 508.61 610.77 503.368C613.109 495.287 613.141 465.846 611.858 456.998C611.4 453.844 610.586 450.781 608.923 448.033C606.599 444.192 603.165 441.346 598.795 440.261C598.992 427.693 599.492 415.132 600.294 402.588C600.786 394.791 601.096 386.834 602.769 379.182C603.996 373.569 605.906 368.431 608.509 363.32C625.107 364.413 642.291 366.902 658.695 369.634C658.534 371.911 658.401 374.191 658.296 376.472C657.732 389.75 661.356 403.349 670.597 413.218C681.407 424.763 694.746 425.137 709.52 425.527C709.343 442.954 708.106 460.431 707.563 477.858C706.817 510.246 705.871 542.628 704.723 575.004Z" fill="#98F5E1"/>
<path d="M712.33 422.357C710.455 423.807 697.512 422.961 694.641 422.625C684.77 421.471 675.929 416.585 669.867 408.677C661.265 397.456 659.493 383.526 661.287 369.867C667.768 370.69 674.219 371.681 680.486 373.572C692.872 377.31 704.427 384.501 710.65 396.197C715.12 404.599 715.126 413.447 712.33 422.357Z" fill="#98F5E1"/>
<path d="M298.127 466.57C297.936 466.33 297.751 466.086 297.571 465.838C295.699 463.257 294.789 460.49 294.203 457.385C292.736 449.623 291.511 418.864 292.887 411.146C293.783 406.122 296.242 402.767 300.362 399.898C300.898 400.43 300.976 400.946 301.072 401.717C301.993 409.11 301.432 417.389 301.595 424.876C302.062 439.821 302.379 454.771 302.544 469.723C301.012 468.758 299.578 467.652 298.127 466.57Z" fill="#8EECF5"/>
<path d="M351.074 471.16C349.411 473.233 346.62 475.744 343.867 476.149C342.567 476.341 342.292 476.231 341.334 475.489C339.967 467.768 340.654 458.531 340.594 450.645C340.481 435.931 340.266 421.196 340.355 406.484C341.485 406.816 342.597 407.209 343.684 407.663C348.044 409.516 351.899 413.157 353.636 417.601C356.954 426.09 354.743 463.023 351.074 471.16Z" fill="#8EECF5"/>
<path d="M65.8651 619.626C60.6262 606.977 57.8448 591.517 56.7338 577.96C53.0743 533.304 61.5984 499.732 82.5195 460.44C92.7205 441.281 102.438 426.544 116.52 409.965C127.642 425.944 139.858 443.157 142.582 462.89C143.857 472.13 143.627 481.497 143.614 490.801C143.597 502.732 143.891 514.718 142.733 526.603C131.461 559.374 106.977 565.632 85.7059 588.779C79.6287 595.392 74.7358 602.614 70.4752 610.514C68.8928 613.448 67.6661 616.861 65.8651 619.626Z" fill="#FBF7E9"/>
<path d="M547.775 504.116C546.345 502.548 545.158 500.775 544.253 498.855C539.624 488.82 538.879 455.405 543.048 445.219C544.905 440.682 547.272 438.381 551.718 436.484C552.9 436.422 553.655 436.413 554.764 436.852C555.642 444.719 554.897 453.359 554.832 461.296L554.556 508.039C552.038 506.922 549.988 505.789 547.775 504.116Z" fill="#98F5E1"/>
<path d="M213.039 498.535C217.282 497.289 221.535 494.748 225.415 492.612C242.128 483.411 257.561 472.546 270.729 458.689C274.769 454.438 287.325 437.921 290.79 436.414C291.019 446.258 289.427 461.301 297.274 468.564C298.848 470.02 300.833 471.122 302.711 472.14C303.328 503.264 304.276 534.453 304.504 565.575C300.819 567.409 298.419 569.519 297.175 573.552C294.777 581.326 293.254 611.381 294.318 619.681C294.664 622.379 295.414 624.83 296.799 627.183C299.093 631.082 302.542 633.218 306.39 635.313L307.196 681.376C307.388 692.46 306.191 705.521 309.252 716.179L258.175 703.165C257.708 686.768 253.573 671.907 241.347 660.236C234.099 653.317 226.319 648.853 216.721 646.124C214.771 596.953 215.032 547.692 213.039 498.535Z" fill="#E7E4F7"/>
<path d="M604.473 510.075C603.389 511.236 602.006 512.474 600.696 513.384C599.635 514.121 598.964 514.44 597.677 514.173C596.627 505.677 597.667 496.223 597.871 487.64C598.266 472.618 598.495 457.593 598.558 442.566C600.178 443.04 601.541 443.627 602.894 444.662C607.076 447.861 609.144 453.471 609.772 458.531C610.839 467.131 610.753 493.345 608.74 501.533C607.923 504.856 606.573 507.388 604.473 510.075Z" fill="#98F5E1"/>
<path d="M818.153 492.493L818.861 490.619C819.845 490.587 820.19 491.098 820.913 491.753C829.108 499.182 840.395 514.428 848.02 523.281L847.759 523.642C837.809 530.53 827.773 537.405 816.555 542.11C817.827 525.689 817.73 508.96 818.153 492.493Z" fill="#98F5E1"/>
<path d="M142.733 526.601C144.727 527.351 150.298 524.212 152.472 523.292C166.038 517.546 180.042 513.427 193.732 508.119C197.253 506.754 207.731 501.19 210.967 501.152C212.015 546.379 212.403 591.687 214.216 636.889C214.714 649.316 213.762 666.144 216.156 677.87C217.381 683.876 220.747 689.89 225.214 694.085C227.635 696.358 230.428 697.751 233.509 698.912C242.183 702.181 251.802 704.044 260.796 706.316C277.08 710.34 293.34 714.456 309.577 718.665L310.267 719.374C312.151 721.345 313.521 723.758 315.44 725.692C319.47 729.752 326.655 732.511 332.342 732.835C337.097 733.107 340.622 731.132 343.971 727.961C344.535 727.427 345.074 726.878 345.613 726.319C353.436 730.745 367.094 733.362 376.017 735.674L412.988 745.195C409.91 751.718 406.919 758.671 404.864 765.595C404.7 766.148 404.814 765.939 404.548 766.3C402.011 768.557 401.073 772.603 399.528 775.585C392.061 790.002 382.459 796.436 367.586 801.608L367.025 801.541C364.233 798.847 338.873 786.676 334.006 784.184C326.599 780.391 319.354 776.263 311.852 772.657C268.477 751.81 212.418 747.696 166.588 762.473C160.771 764.348 154.95 766.468 149.515 769.28C144.467 771.891 139.329 775.424 133.959 777.246C133.807 777.297 133.653 777.344 133.5 777.393L133.185 777.484C131.537 773.82 122.278 768.365 118.839 765.397C107.554 755.66 95.8713 744.547 86.9116 732.593C66.0847 704.804 53.0595 677.32 59.0407 641.607C59.5264 638.707 60.1054 635.794 61.1311 633.032C62.561 629.181 65.3485 624.376 65.8005 620.333C65.8269 620.097 65.8435 619.86 65.865 619.624C67.666 616.859 68.8927 613.446 70.4751 610.512C74.7357 602.612 79.6286 595.39 85.7058 588.777C106.977 565.63 131.461 559.372 142.733 526.601Z" fill="#E7E4F7"/>
<path d="M816.555 542.113C827.773 537.408 837.809 530.533 847.759 523.645C864.796 538.845 893.9 589.139 901.65 610.858C905.979 623.22 908.572 636.121 909.356 649.195C911.829 690.038 889.256 735.555 862.398 765.429C848.061 781.459 831.966 795.826 814.418 808.26C804.638 815.112 794.095 820.926 783.563 826.522C741.671 848.782 695.707 863.475 648.096 865.785C619.959 867.149 592.12 863.818 564.396 859.384C517.196 852.205 470.813 840.417 425.912 824.191C417.292 821.105 408.286 818.492 399.924 814.796C404.717 799.387 404.458 782.28 404.549 766.303C404.815 765.942 404.701 766.151 404.865 765.598C406.92 758.674 409.911 751.721 412.989 745.198C442.884 752.778 472.718 760.601 502.486 768.667C519.016 773.05 536.053 776.875 552.248 782.351C552.597 783.806 553.046 785.261 553.563 786.666C555.5 791.939 560.798 796.067 565.748 798.294C571.343 800.811 580.309 803.096 586.162 800.719C589.955 799.178 591.415 796.682 592.966 793.094L656.703 810.32C666.224 812.927 681.758 818.577 691.057 818.791C697.23 818.933 703.625 817.375 709.104 814.556C716.371 810.817 723.176 805.179 729.861 800.467C747.539 788.006 764.66 774.846 782.231 762.262C788.573 757.72 795.726 754.912 801.478 749.479C806.898 744.358 810.017 738.245 811.485 730.923C813.088 722.926 812.625 714 812.763 705.838L813.379 666.256L816.555 542.113Z" fill="#FBF7E9"/>
<path d="M814.289 542.945C814.116 544.961 814.027 546.874 814.163 548.895L810.513 705.966C796.72 715.926 787.67 728.767 784.898 745.73C784.26 749.728 783.919 753.768 783.878 757.816C764.055 773.96 742.936 788.865 721.871 803.346C723.725 799.457 725.391 795.813 725.874 791.467C726.752 783.563 726.686 775.45 726.861 767.499C727.189 752.609 727.27 737.709 727.723 722.823L731.571 565.301C734.922 564.069 739.439 563.866 743.014 563.244C750.855 561.882 758.701 560.486 766.402 558.456C774.454 556.334 782.614 554.16 790.466 551.38C798.343 548.591 806.211 545.048 814.289 542.945Z" fill="#FBF8CC"/>
<path d="M707.2 570.704C714.761 569.976 721.983 566.626 729.496 565.969L725.564 725.559L724.669 766.458C724.459 775.777 724.711 785.435 723.021 794.627C722.106 799.601 719.357 804.257 715.626 807.651C709.946 812.817 702.507 815.096 695.096 816.337C701.322 810.611 702.376 804.855 702.707 796.743C703.553 776.037 703.395 755.219 703.729 734.494L705.468 641.385C705.802 617.877 705.806 594.171 707.2 570.704Z" fill="#FBF8CC"/>
<path d="M301.853 629.656C300.715 628.565 299.638 627.297 298.759 625.987C297.809 624.572 297.115 622.889 296.822 621.209C295.329 612.658 297.088 585.773 298.645 576.814C299.364 572.675 300.5 570.872 303.985 568.453C305.214 569.742 306.073 625.21 306.258 632.456L301.853 629.656Z" fill="#90DBF4"/>
<path d="M596.545 632.836C602.691 628.235 610.685 625.562 617.211 621.328C630.587 612.649 642.943 602.422 656.346 593.803C663.76 589.035 696.16 570.26 703.577 571.871C704.625 572.969 704.513 573.534 704.724 575.006C703.219 620.532 702.728 666.143 701.955 711.689C701.669 728.546 701.701 745.447 701.119 762.292C686.505 764.928 666.599 767.814 657.461 780.816C652.241 788.243 650.278 797.131 650.151 806.081C638.341 803.153 626.585 800.016 614.887 796.67C607.685 794.66 600.397 792.346 593.027 791.074L593.901 713.099C598.275 711.797 602.227 710.061 604.576 705.882C610.626 695.12 610.921 656.865 607.2 645.095C605.485 639.669 601.384 635.622 596.545 632.836Z" fill="#FBF8CC"/>
<path d="M351.993 640.837C350.97 641.893 350.022 642.703 348.689 643.355C346.964 644.2 345.752 644.592 343.902 643.978C342.648 641.73 341.853 582.425 342.8 577.09C344.021 577.457 345.154 577.992 346.257 578.63C350.196 580.909 352.276 584.191 353.423 588.498C356.273 599.202 357.388 623.544 354.82 634.27C354.233 636.719 353.243 638.683 351.993 640.837Z" fill="#8EECF5"/>
<path d="M461.138 628.859C477.523 641.191 500.419 648.248 520.798 648.301C527.005 648.317 532.973 647.263 539.12 646.842C538.044 661.248 535.705 688.799 545.776 700.095C547.906 702.485 550.388 704.01 553.184 705.468C553.579 716.456 553.258 727.508 553.169 738.5C553.11 752.335 552.956 766.17 552.705 780.003C534.412 774.268 515.611 769.784 497.076 764.876L413.531 742.914C419.106 733.858 425.325 725.231 431.006 716.247C450.23 685.846 456.921 664.447 461.138 628.859Z" fill="#FBF8CC"/>
<path d="M555.701 643.873C567.733 641.53 581.399 634.352 593.07 633.43C593.063 648.606 592.416 663.795 592.12 678.968L591.639 728.429C591.551 742.211 591.337 755.992 590.999 769.771C590.858 777.2 591.108 784.882 590.252 792.268C590.023 794.25 589.395 795.877 587.938 797.279C585.848 799.288 583.192 799.667 580.408 799.508C572.819 799.073 563.119 795.992 558.044 790.124C556.178 787.967 555.62 786.35 555.316 783.525C554.612 776.996 554.969 770.22 554.985 763.649L555.104 729.572L555.42 673.087C555.49 663.385 555.238 653.555 555.701 643.873Z" fill="#FBF8CC"/>
<path d="M553.462 645.419C549.518 645.713 545.505 646.17 541.551 646C541.872 644.521 542.181 642.958 542.769 641.56C544.132 638.32 547.609 634.801 550.795 633.426C551.864 633.508 552.319 633.424 553.024 634.354C554.286 636.021 553.493 643.136 553.462 645.419Z" fill="#98F5E1"/>
<path d="M594.043 711.207C593.54 685.901 594.571 660.412 595.396 635.117C596.04 635.444 596.077 635.448 596.796 635.897C602.509 639.461 605.051 643.702 606.338 650.217C608.42 660.754 607.689 689.718 604.751 700.238C604.121 702.491 603.206 704.261 601.899 706.19C599.539 708.549 597.038 709.853 594.043 711.207Z" fill="#FBF8CC"/>
<path d="M541.55 646.003C545.504 646.173 549.517 645.716 553.461 645.422L552.983 703.096C547.181 699.763 544.092 695.459 542.345 688.977C539.638 678.932 539.785 656.326 541.55 646.003Z" fill="#FBF8CC"/>
<path d="M255.921 702.831C246.154 700.033 233.039 698.656 225.401 691.492C214.704 681.461 217.021 661.993 216.684 648.637C225.511 651.083 233.215 655.353 239.821 661.721C251.243 672.732 255.553 687.341 255.921 702.831Z" fill="#E7E4F7"/>
<path d="M787.231 756.558L786.45 756.45C785.885 755.298 786.026 755.359 786.166 754.14C788.348 735.01 794.312 721.542 809.593 709.363C810.07 709.487 809.753 709.369 810.405 709.972C811.134 717.763 810.207 727.848 807.714 735.278C804.079 746.115 797.201 751.601 787.231 756.558Z" fill="#FBF7E9"/>
<path d="M133.502 777.395C133.655 777.346 133.809 777.299 133.961 777.248C139.331 775.426 144.469 771.893 149.517 769.282C154.952 766.47 160.773 764.35 166.59 762.475C212.42 747.698 268.479 751.812 311.854 772.659C319.356 776.265 326.601 780.393 334.008 784.186C338.875 786.678 364.235 798.849 367.027 801.543C351.491 805.392 334.213 802.914 318.138 804.839C306.598 806.221 295.24 808.843 283.703 810.224C243.506 815.036 201.852 811.887 164.679 794.613C153.82 789.567 143.99 783.058 133.502 777.395Z" fill="#F1C0E8"/>
<path d="M652.506 806.824C652.041 798.307 654.091 789.171 659.108 782.167C667.519 770.426 685.499 767.301 698.824 765.169C699.455 765.045 700.066 765.108 700.706 765.128C702.103 767.738 700.603 801.649 699.433 805.757C697.967 810.906 695.496 813.959 690.902 816.566C681.163 814.891 671.624 812.078 662.118 809.427C658.87 808.743 655.692 807.746 652.506 806.824Z" fill="#FBF8CC"/>
<path d="M367.588 801.609C382.461 796.437 392.063 790.003 399.53 775.586C401.075 772.604 402.013 768.558 404.55 766.301C404.459 782.278 404.718 799.385 399.925 814.794L399.625 814.974C388.796 810.891 378.193 806.234 367.588 801.609Z" fill="#90DBF4"/>
<path d="M133.187 777.486L133.502 777.395C143.99 783.058 153.819 789.567 164.678 794.613C201.851 811.887 243.506 815.036 283.702 810.224C295.239 808.843 306.597 806.221 318.137 804.839C334.212 802.914 351.49 805.392 367.026 801.543L367.587 801.61C378.192 806.235 388.795 810.892 399.624 814.975C395.261 835.18 383.85 851.729 368.037 864.692C360.499 870.823 352.32 876.121 343.642 880.493C302.796 901.061 196.252 933.161 150.419 928.437C131.858 926.523 112.453 917.937 100.541 903.232C88.8978 888.97 83.5503 870.589 85.7255 852.307C87.9854 831.833 97.2168 811.202 111.493 796.282C118.128 789.348 125.715 783.473 133.187 777.486Z" fill="#CFBAF0"/>
</svg>
