<svg width="1024" height="1024" viewBox="0 0 1024 1024" fill="none" xmlns="http://www.w3.org/2000/svg">
<path d="M915.42 311.89C905.287 306.168 894.43 299.146 884.324 293.189C844.714 269.843 808.606 260.849 763.14 273.453C732.802 281.863 706.245 298.774 678.559 313.345C659.343 323.458 639.325 332.878 619.629 342.122C611.12 346.115 602.239 349.539 593.496 352.906C589.31 354.518 577.98 357.119 575.304 358.928C572.356 357.958 568.796 356.688 565.832 355.996L563.443 349.844C571.781 345.613 573.166 341.216 576.044 332.614C584.717 326.923 586.998 321.073 589.518 311.344C592.106 301.353 588.226 299.411 588.044 293.27C587.331 269.312 589.814 237.388 575.324 216.874C568.7 207.497 560.358 196.029 548.322 192.765C542.263 191.122 534.511 197.474 531.562 196.178C527.237 194.278 523.973 189.789 517.884 186.798C498.77 177.412 470.191 186.856 453.637 197.661C435.931 209.216 423.418 227.818 419.546 248.84C415.545 270.563 417.921 294.228 430.308 313.163C434.351 319.343 436.908 320.117 441.464 324.701C443.455 326.705 448.679 339.694 451.004 342.911C451.454 343.534 453.105 353.508 453.45 355.083C456.143 367.37 459.34 374.216 466.389 384.274L468.086 385.937L468.003 386.748C455.201 391.525 440.6 395.381 427.337 400.302C426.384 396.795 425.748 394.412 423.972 391.138C410.116 365.605 391.129 344.626 380.713 317.183L379.976 316.189C360.8 233.691 427.989 145.009 504.32 120.078C534.953 110.073 572.377 109.963 604.247 112.604C733.445 123.312 870.517 180.124 915.42 311.89Z" fill="#FFCFD2"/>
<path d="M565.831 355.996C568.795 356.688 572.355 357.958 575.303 358.928C578.413 360.945 578.814 361.53 581.251 364.208C585.894 372.116 588.687 378.249 589.898 387.463C591.715 400.299 590.233 436.311 588.214 449.836C587.827 453.83 586.741 469.99 585.048 472.355C582.092 472.819 551.288 454.454 545.464 451.675L554.504 478.535C548.321 481.223 540.837 483.925 534.988 486.767C534.901 525.208 534.537 563.563 536.381 601.968C537.168 618.351 537.761 635.318 539.516 651.628C551.359 653.046 559.276 654.051 570.755 656.625C575.194 654.964 581.932 652.789 585.987 650.584C607.233 639.034 627.206 625.695 649.466 615.946C644.624 577.771 647.044 533.004 658.131 496.08C662.648 477.438 672.492 457.574 683.72 442.041C685.423 439.685 687.722 435.897 690.371 434.729C691.528 434.218 691.649 434.473 692.376 433.305L692.028 432.164C683.141 422.682 608.97 392.328 593.245 386.093C592.017 384.632 592.084 385.279 591.978 383.85C596.755 382.781 678.127 420.059 687.672 425.874C700.943 433.959 703.705 453.78 707.035 468.601C710.288 483.076 712.659 499.71 715.773 514.631C716.053 515.842 716.488 517.508 716.694 518.691C717.932 524.46 719.113 529.755 720.614 535.466L721.619 540.946L727.161 564.794L728.195 569.98C729.244 575.003 730.363 580.103 731.34 585.131L732.185 589.317C733.31 594.954 734.217 600.206 735.117 605.881L735.39 608.517C736.127 617.411 736.543 625.185 736.473 634.134C742.232 635.203 748.051 636.657 753.613 637.671L753.588 639.807C747.803 638.269 742.142 637.218 736.527 635.757C735.611 646.055 735.805 651.414 729.15 659.895C741.464 661.884 751.77 664.24 763.871 667.436C763.846 664.084 763.294 653.823 765.822 652.07C771.523 648.117 770.705 649.852 772.912 642.656L773.57 639.61L774.817 633.488C779.723 632.234 787.577 631.249 791.966 629.569L793.603 629.346L793.914 629.41C806.093 629.102 843.099 628.707 855.568 636.865C857.053 637.836 859.311 648.184 860.84 651.363L865.43 653.042C865.652 657.869 867.069 666.756 864.324 670.372C863.713 671.176 861.596 672.194 860.634 672.679C860.392 680.731 858.557 690.687 857.263 698.754C878.48 707.256 930.85 726.822 937.854 748.021C958.753 811.271 822.389 827.393 784.856 831.074C695.129 839.872 607.575 820.612 521.268 798.826C486.64 790.204 447.043 786.243 411.516 782.958C371.349 779.628 333.8 784.792 294.04 788.247C243.515 792.638 196.829 787.595 147.801 774.559C123.228 766.563 84.7553 755.066 67.2963 734.868C63.6334 730.631 61.633 723.82 62.62 718.168C64.5053 707.374 73.7052 699.748 82.0932 693.792C102.392 680.065 136.488 669.326 160.42 664.521C171.556 662.285 183.473 660.766 194.503 658.191C193.429 648.951 192.706 639.056 191.794 629.733C188.08 627.392 187.887 625.828 187.383 621.523C185.061 601.675 192.966 603.018 209.641 601.948C208.886 594.385 204.672 565.478 205.125 559.578C208.071 554.986 217.668 557.509 221.733 559.262C222.806 562.655 223.14 566.921 223.555 570.519C223.479 572.415 223.727 579.256 224.251 580.837C225.022 589.244 225.49 597.987 226.051 606.434C231.863 606.362 237.487 605.921 243.279 605.517C241.567 598.2 239.785 590.533 238.502 583.138C237.029 574.646 233.648 568.668 229.851 560.993L228.28 557.267L225.624 550.916C225.895 549.32 226.074 548.981 226.64 547.497C229.605 554.42 231.017 558.755 235.032 565.513C233.595 558.017 229.602 545.47 231.134 538.533C231.821 537.201 232.576 536.059 233.377 534.799L236.988 532.222L239.582 531.164C247.051 530.513 251.737 532.113 258.476 532.508L263.358 532.854C266.014 533.172 268.655 533.508 271.32 533.737L274.876 534.292C280.889 534.973 286.722 535.599 292.754 536.109L295.58 536.465L331.293 540.209C335.548 516.965 339.699 493.477 344.331 470.345C344.683 468.964 344.996 467.345 345.302 465.934C347.825 457.743 349.602 451.904 353.092 444.107C363.529 420.789 375.64 417.858 398.579 410.559C407.762 407.638 418.176 403.729 427.336 400.302C440.599 395.381 455.2 391.525 468.002 386.748L468.085 385.937L466.388 384.274C459.339 374.216 456.142 367.37 453.449 355.083C453.104 353.508 451.453 343.534 451.003 342.911C448.678 339.694 443.454 326.705 441.463 324.701C436.907 320.117 434.35 319.343 430.307 313.163C417.92 294.228 415.544 270.563 419.545 248.84C423.417 227.818 435.93 209.216 453.636 197.661C470.19 186.856 498.769 177.412 517.883 186.798C523.972 189.789 527.236 194.278 531.561 196.178C534.51 197.474 542.262 191.122 548.321 192.765C560.357 196.029 568.699 207.497 575.323 216.874C589.813 237.388 587.33 269.312 588.043 293.27C588.225 299.411 592.105 301.353 589.517 311.344C586.997 321.073 584.716 326.923 576.043 332.614C573.165 341.216 571.78 345.613 563.442 349.844L565.831 355.996ZM547.876 325.873C545.686 330.539 542.378 333.027 537.934 335.413C523.442 343.193 506.028 345.401 494.445 331.145C491.654 326.763 490.848 324.714 490.225 319.387C487.866 319.564 485.147 319.837 482.814 319.891C483.627 324.334 484.251 328.636 482.895 333.106C476.414 344.361 465.189 346.304 453.524 342.727C454.42 347.527 455.377 353.542 456.664 358.155C460.164 377.427 476.802 396.374 496.353 398.437C529.53 401.939 554.922 374.872 558.738 344.335C559.985 340.104 559.692 331.125 560.005 326.079C560.23 322.659 560.799 306.058 560.019 303.836C556.907 300.628 552.621 304.574 549.851 306.901C549.293 314.206 549.572 318.36 547.876 325.873ZM477.639 400.209L477.542 393.977C475.023 391.906 472.661 389.93 470.004 388.032C464.062 394.344 453.507 418.699 450.287 427.564C445.672 439.979 443.193 450.797 440.147 463.694C450.115 459.683 471.833 450.875 481.526 448.234C480.7 454.744 477.404 466.127 475.705 472.976C479.842 475.514 506.245 490.646 508.825 490.72C509.74 489.367 509.971 489.224 510.328 487.608C509.023 484.619 506.89 482.23 505.074 479.536C496.572 466.922 489.619 453.159 484.997 438.654C481.01 425.081 478.87 414.258 477.639 400.209ZM429.014 402.246C419.736 405.655 410.652 408.896 401.323 412.141C390.655 415.853 379.054 418.899 369.687 425.179C368.13 426.652 366.452 428.176 364.973 429.71C347.857 450.103 342.721 489.376 338.241 516.132C336.432 524.179 335.293 532.339 333.391 540.383C349.122 542.205 369.323 543.373 384.158 545.66L380.517 523.028L380.179 522.735C375.368 518.63 361.052 508.592 358.601 502.823C361.675 502.303 366.727 508.89 368.968 510.932C372.598 514.238 376.263 517.246 380.089 520.318C378.8 510.095 370.302 455.344 371.586 450.138L372.234 450.269C373.089 451.891 373.835 453.76 374.085 455.597C378.161 485.528 381.423 516.189 387.003 545.85L416.835 548.84C434.786 550.762 458.841 549.406 465.305 570.629C472.53 594.353 476.448 620.29 480.789 644.79C486.986 645.178 494.474 646.201 500.739 646.906C500.683 604.27 501.302 561.943 502.196 519.315C502.398 509.643 500.443 499.147 499.86 489.404C490.888 484.259 481.347 479.616 472.588 474.264L478.662 451.952C468.571 455.949 458.073 459.066 448.061 463.324C446.373 464.042 439.698 466.999 438.29 466.363C436.682 460.425 446.328 431.614 448.741 424.589C453.755 412.235 458.06 401.893 464.961 390.501C455.577 392.831 438.301 398.898 429.014 402.246ZM480.173 395.411C480.61 406.377 481.026 413.117 483.737 423.876C488.739 447.347 497.786 465.724 511.883 484.982C519.583 469.265 524.074 462.151 535.477 448.605C549.504 432.343 554.938 419.228 562.589 399.797C571.1 378.183 567.722 370.425 560.643 349.322C553.393 372.907 543.952 390.774 518.379 398.346C503.605 402.72 493.888 402.654 480.173 395.411ZM587.481 432.096C588.339 412.442 592.082 381.274 578.546 365.197C575.142 361.153 571.359 359.896 566.473 358.805C573.734 377.228 571.205 378.066 565.374 396.46C559.328 415.532 553.026 431.144 540.049 446.835C523.698 466.634 520.949 471.343 510.233 494.496C523.219 488.68 538.246 482.047 551.456 476.933C550.082 472.664 542.503 452.475 542.913 450.294C543.965 449.283 543.924 449.263 545.212 448.614C551.41 452.067 557.703 455.366 563.918 458.819C569.718 462.041 577.292 466.982 583.444 469.222C584.467 462.868 585.143 455.834 585.756 449.392C586.319 447.169 587.226 435.014 587.481 432.096ZM693.565 433.987C674.972 455.735 667.92 471.867 659.579 498.862C649.167 535.959 648.048 576.459 651.697 614.616C663.034 608.715 679.161 602.312 691.867 600.65C696.779 600.007 713.481 600.965 716.919 604.109L717.212 604.841C715.533 605.847 705.982 603.727 703.203 603.343C691.05 601.665 679.085 605.622 667.932 610.189C683.551 611.182 695.729 616.351 709.718 622.624C710.494 623.968 710.412 623.285 710.055 624.729L709.101 625.323C705.943 624.144 703.402 622.388 700.716 621.394C688.802 616.983 669.811 608.807 657.742 614.369C634.044 625.289 612.928 637.597 590.825 651.174C595.178 652.118 597.354 653.05 601.255 655.366C614.31 666.137 622.114 681.161 616.585 698.067C656.972 693.167 693.326 685.118 726.367 659.345C739.397 647.138 732.863 605.454 729.829 588.786L728.849 583.659L725.778 569.35L724.946 566.059C721.874 554.41 719.401 542.786 716.863 531.019L714.418 519.311L713.394 514.087C709.012 494.862 703.453 449.428 693.565 433.987ZM327.492 542.577L273.718 536.843C264.212 535.799 253.694 534.393 244.073 533.788C241.416 533.621 238.401 534.071 236.189 535.806C231.433 539.537 234.185 546.189 234.967 551.226C235.759 555.321 236.734 559.389 237.44 563.5C242.399 592.373 249.29 621.969 255.826 650.504C258.275 661.199 266.045 703.581 270.512 710.918C275.995 713.911 285.849 714.913 292.19 716.039C312.193 719.594 332.365 722.385 352.443 725.494C355.093 725.904 357.973 726.455 360.634 726.607C361.693 727.08 485.859 746.814 488.69 746.524C490.126 746.377 491.132 746.024 492.107 744.907C493.981 737.46 490.489 720.922 489.469 712.865C486.638 690.524 481.869 668.326 478.311 646.077C475.638 629.361 472.479 612.636 469.026 596.064C467.9 590.722 465.882 578.957 464.035 574.462C461.673 567.153 455.103 557.013 447.132 555.443C434.384 552.932 420.696 552.026 407.696 550.705L327.492 542.577ZM196.738 605.531C185.021 606.64 189.769 626.13 191.831 626.847C207.293 632.221 232.918 633.561 249.309 632.216C247.618 624.758 245.774 615.026 243.819 607.882C233.427 608.968 220.922 609.066 210.508 608.538L210.218 606.347L209.824 604.795C207.443 603.532 199.821 605.076 196.738 605.531ZM763.426 672.248L763.802 670.267C761.254 667.538 732.444 662.508 727.147 662.056C694.202 685.733 660.302 695.351 620.358 700.028C608.228 701.449 609.343 707.678 592.865 702.366C581.834 708.123 569.863 712.45 558.969 718.133C536.756 729.894 514.623 743.24 489.883 748.949C488.27 749.321 483.485 748.696 481.783 748.406C414.854 736.986 347.586 727.786 280.645 716.518C269.685 714.673 267.34 714.04 264.941 702.415C262.138 706.792 261.19 709.064 255.513 709.841C240.456 711.903 225.35 711.265 210.443 709.848C206.345 708.487 205.682 708.279 202.11 706.12C196.886 697.318 195.849 672.101 194.765 660.937C160.231 664.951 114.907 676.256 85.071 694.57C73.2123 702.416 56.3923 717.925 68.6146 732.568C83.6967 750.638 117.035 762.44 138.847 769.287C165.551 777.432 192.839 783.582 220.722 785.789C224.88 786.118 233.738 786.793 237.83 786.552C242.844 787.279 251.926 787.037 257.231 787.121C286.301 787.747 314.608 783.607 343.472 781.082C402.4 775.927 462.741 784.381 520.428 796.193C557.379 803.76 593.855 814.845 630.946 821.111C718.996 835.984 817.319 836.729 900.963 801.818C921.72 793.173 947.371 774.263 935.813 748.93C925.476 726.272 879.718 709.941 857.067 701.215C854.007 715.151 853.332 733.746 849.889 746.984C832.848 761.827 798.404 761.18 780.894 747.288C779.17 735.009 777.757 723.251 775.815 710.949L772.371 686.783C771.788 682.709 771.306 678.46 770.405 674.453C769.678 671.219 765.748 671.722 763.426 672.248ZM488.862 688.436C489.061 691.281 489.395 694.301 489.665 697.157L490.723 703.81C491.113 705.993 491.478 708.171 491.957 710.336C491.79 712.995 494.407 729.29 494.962 732.979C501.423 731.061 515.385 724.129 521.995 720.974C539.926 712.412 555.487 705.018 573.963 697.724C565.083 696.467 549.96 698.093 541.348 701.229C535.727 703.276 528.163 710.48 522.31 709.757C520.306 708.826 519.895 707.866 518.537 705.999C515.582 707.752 513.581 709.194 510.201 710.037L508.369 710.201C506.657 708.653 506.028 707.871 504.585 706.05C502.128 705.387 498.57 707.435 494.987 707.08C493.992 704.409 493.492 703.51 491.762 701.245L491.315 698.026C497.606 685.725 511.909 668.446 521.374 658.561C505.345 665.856 498.815 674.89 488.862 688.436ZM496.306 185.189C474.591 187.143 452.448 197.625 438.167 214.401C416.369 240.007 413.776 285.369 433.083 313.134C435.983 311.854 437.587 311.297 440.574 310.361C440.109 300.478 438.707 290.764 445.873 282.611C451.14 276.618 459.32 274.924 466.675 273.054C491.877 266.646 517.497 262.47 516.053 230.246C515.926 227.409 515.533 224.474 517.52 222.123C518.679 223.24 518.511 228.37 518.547 230.1C518.756 240.224 516.811 250.212 509.607 257.774C493.129 275.07 457.589 271.569 446.78 285.122C442.538 290.441 442.034 296.767 442.153 303.284C442.186 305.1 442.295 306.914 442.415 308.726C449.768 304.711 457.608 302.986 465.92 305.022C475.697 307.776 477.161 309.164 482.696 317.353C486.182 316.926 487.57 316.793 490.942 315.747C495.158 308.565 497.419 303.703 506.396 301.708C519.29 298.842 527.608 299.508 537.831 308.283C541.85 307.114 543.621 306.403 547.455 304.679C547.913 296.697 548.13 289.428 542.518 282.954C535.143 274.446 522.015 272.283 523.212 258.173C523.549 254.201 527.15 238.358 528.652 234.97L529.257 234.633L529.842 235.069C531.28 244.94 517.19 262.636 532.415 271.936C547.158 280.942 549.137 285.79 550.405 302.133L557.062 299.552L561.436 300.334C565.188 286.436 574.682 281.352 585.758 292.525C585.822 274.614 586.503 249.407 580.551 232.396C576.847 221.81 569.795 211.825 561.921 203.923C557.843 199.831 551.924 194.826 545.852 194.984C541.064 195.11 536.639 199.069 532.176 198.693C525.118 198.099 518.653 183.416 496.306 185.189ZM573.802 288.519C563.138 291.615 563.255 304.108 562.191 313.181C560.972 323.573 561.242 334.446 575.566 329.874C589.488 321.137 594.706 291.697 573.802 288.519ZM516.326 302.706C501.687 303.989 496.825 305.933 492.051 320.495C497.765 337.023 510.369 342.58 526.851 337.451C545.506 330.784 547.653 327.423 547.493 307.763C545.046 308.923 539.813 311.736 537.514 312.12L537.122 311.613C531.286 304.199 525.72 301.875 516.326 302.706ZM455.802 306.64C448.977 307.682 440.424 309.162 442.698 318.52C445.938 331.853 450.7 345.493 468.234 341.454C492.132 333.555 482.435 304.893 455.802 306.64ZM562.008 330.194C561.759 334.301 560.437 343.601 562.275 346.483C564.77 347.486 566.838 345.22 568.634 343.478C570.921 340.026 572.048 337.691 573.135 333.591C567.852 333.551 566.311 333.553 562.008 330.194ZM531.543 487.97C524.324 491.049 508.818 497.047 503.571 501.624C505.665 521.493 504.235 542.372 503.879 562.292C503.387 589.858 502.118 619.788 503.381 647.286C505.788 647.532 508.219 647.761 510.619 648.054L537.14 651.274C532.898 603.579 532.346 555.888 532.504 508.031C532.512 505.492 533.209 489.155 531.93 488.005L531.543 487.97ZM502.38 490.853C502.426 492.846 502.237 495.846 503.142 497.465L504.105 497.786C504.789 497.336 505.539 496.871 506.189 496.383C507.353 494.357 507.608 494.722 507.245 493.02C505.185 491.729 504.305 491.84 502.38 490.853ZM208.498 559.08C207.364 560.302 207.021 560.324 207.175 562.423C207.549 567.516 208.211 572.787 208.796 577.86L212.109 606.505L223.04 606.524L223.964 606.029C223.795 598.817 222.799 589.627 222.269 582.308C221.829 576.225 221.218 566.042 220.095 560.4C215.842 559.419 212.945 558.889 208.498 559.08ZM193.945 630.444C194.695 637.676 199.362 699.249 204.678 704.642C210.229 710.274 245.921 708.901 254.818 707.747C256.806 707.624 258.483 706.677 259.746 705.769C261.995 702.671 262.658 701.471 263.808 697.657C259.186 677.573 253.822 654.982 249.991 634.73C234.841 635.196 208.306 634.516 193.945 630.444ZM800.385 631.709C792.609 632.338 788.169 633.092 780.448 634.912C792.098 641.989 819.753 643.249 833.097 641.597C840.205 641.248 846.784 640.163 853.428 637.519C838.665 633.763 815.67 630.097 800.385 631.709ZM776.741 635.154C775.922 639.067 775.03 643.008 774.174 646.908C773.267 651.039 772.828 650.291 770.728 653.312C772.864 657 776.955 658.313 780.993 659.301C805.254 665.234 828.075 666.066 851.629 657.728C855.366 656.236 856.184 655.804 859.583 653.567C856.972 648.089 856.241 645.056 854.919 639.097C849.83 641.268 844.976 642.867 839.035 643.663C822.725 645.848 801.389 645.231 785.537 639.992C784.109 639.521 778.25 636.008 776.741 635.154ZM481.283 647.333C482.02 656.877 485.275 676.437 487.874 685.632C494.4 677.108 498.798 670.839 507.311 664.079C512.442 660.313 515.443 658.349 521.513 656.224C524.266 655.261 527.062 654.422 529.632 653.076C517.671 651.158 493.251 647.863 481.283 647.333ZM767.116 652.354C765.464 657.715 765.3 661.932 766.051 667.505C792.647 679.636 826.654 682.065 854.659 672.48C857.5 671.507 860.946 669.661 863.378 667.928C863.61 663.197 863.65 658.27 863.233 653.548C845.678 670.053 789.7 669.986 769.184 655.703C768.399 655.156 767.683 653.082 767.116 652.354ZM585.403 653.563C581.769 654.869 578.38 656.157 574.798 657.597C584.894 661.101 593.506 664.599 598.478 674.843C603.31 684.802 601.133 691.512 595.944 700.22C597.383 701.559 600.878 701.634 602.874 701.753C606.081 701.782 610.533 702.082 612.626 699.593C622.074 688.36 612.305 669.477 603.431 660.885C597.845 655.477 592.451 653.369 585.403 653.563ZM533.056 653.944C514.724 664.479 504.735 682.053 493.519 699.344C495.738 703.377 498.758 706.128 502.404 702.31C513.413 690.785 519.374 674.014 535.253 667.311C537.524 666.353 539.952 665.016 542.561 665.201L543.629 665.915L543.712 666.657C541.051 668.468 537.309 669.304 533.972 671.167C525.821 675.716 506.134 697.172 507.611 706.497C510.521 709.59 517.927 702.805 520.302 700.592C526.101 695.189 530.218 688.798 537.013 684.495C541.856 682.155 552.988 677.914 558.242 678.84L558.975 679.735L558.782 680.648C557.417 681.084 557.15 681.045 555.724 681.206C538.131 683.189 533.366 690.363 522.286 702.576C521.882 703.022 521.5 703.685 521.195 704.182C521.487 705.998 521.189 705.105 522.734 706.763C526.723 708.238 534.939 700.91 538.982 699.346C547.571 696.026 556.711 695.267 565.814 694.601C574.633 693.957 579.832 696.881 584.732 703.824C590.263 701.134 595.382 698.823 597.472 692.44C599.148 687.32 598.845 680.31 596.053 675.401C586.1 657.894 558.217 656.832 540.348 654.342C538.384 654.068 534.86 653.901 533.056 653.944ZM772.262 672.872L780.181 724.632C781.124 730.712 782.164 740.769 783.403 746.122C793.366 754.834 808.444 755.824 821.165 755.188C828.764 754.808 841.523 752.193 846.759 746.27C848.411 744.402 848.556 742.87 848.895 740.456C850.985 727.625 852.692 714.754 854.605 701.899C856.03 692.327 857.666 683.206 858.464 673.528C830.147 683.245 800.512 681.971 772.262 672.872ZM576.13 699.464C548.752 710.493 521.478 725.97 495.379 735.919C495.408 738.823 495.491 741.933 495.424 744.815L501.042 743.024C521.163 735.74 536.578 727.377 555.135 717.199C562.293 713.273 574.039 708.164 581.693 704.645C580.325 702.576 579.527 700.958 577.482 699.594L576.13 699.464Z" fill="black"/>
<path d="M433.083 313.136C413.776 285.371 416.369 240.009 438.167 214.403C452.448 197.627 474.591 187.145 496.306 185.191C518.653 183.418 525.118 198.101 532.176 198.695C536.639 199.071 541.064 195.112 545.852 194.986C551.924 194.828 557.843 199.833 561.921 203.925C569.795 211.827 576.847 221.812 580.551 232.398C586.503 249.409 585.822 274.616 585.758 292.527C574.682 281.354 565.188 286.438 561.436 300.336L557.062 299.554L550.405 302.135C549.137 285.792 547.158 280.944 532.415 271.938C517.19 262.638 531.28 244.942 529.842 235.071L529.257 234.635L528.652 234.972C527.15 238.36 523.549 254.203 523.212 258.175C522.015 272.285 535.143 274.448 542.518 282.956C548.13 289.43 547.913 296.699 547.455 304.681C543.621 306.405 541.85 307.116 537.831 308.285C527.608 299.51 519.29 298.844 506.396 301.71C497.419 303.705 495.158 308.567 490.942 315.749C487.57 316.795 486.182 316.928 482.696 317.355C477.161 309.166 475.697 307.778 465.92 305.024C457.608 302.988 449.768 304.713 442.415 308.728C442.295 306.916 442.186 305.102 442.153 303.286C442.034 296.769 442.538 290.443 446.78 285.124C457.589 271.571 493.129 275.072 509.607 257.776C516.811 250.214 518.756 240.226 518.547 230.102C518.511 228.372 518.679 223.242 517.52 222.125C515.533 224.476 515.926 227.411 516.053 230.248C517.497 262.472 491.877 266.648 466.675 273.056C459.32 274.926 451.14 276.62 445.873 282.613C438.707 290.766 440.109 300.48 440.574 310.363C437.587 311.299 435.983 311.856 433.083 313.136Z" fill="#FFCFD2"/>
<path d="M298.556 290.406C286.717 308.206 288.421 330.898 288.632 351.539C291.33 346.971 292.847 342.665 295.427 338.105C303.929 323.078 314.444 318.31 330.313 313.616C323.755 305.962 320.74 302.015 316.301 292.739C313.493 282.464 318.802 273.382 317.237 263.196C316.833 259.762 313.662 255.862 309.855 257.603C297.113 263.431 286.715 279.768 280.681 291.543C277.107 297.809 270.569 309.71 266.199 314.712C246.359 337.422 227.13 348.655 214.099 377.532C214.114 378.7 214.23 378.329 213.842 379.364C207.975 390.064 206.036 417.058 209.594 429.146C218.163 458.257 250.694 460.615 269.468 480.172C277.355 488.388 281.496 494.558 286.363 504.929C287.442 507.228 288.568 510.211 289.719 512.3C288.19 512.318 288.199 512.186 287 513.074C279.787 493.445 266.784 477.789 247.879 468.5C231.024 460.218 213.166 450.829 207.007 431.663C201.411 414.569 204.725 393.049 210.921 376.568C221.1 349.489 246.219 333.44 264.047 312.205C269.088 306.2 272.643 299.098 276.188 292.087C283.485 279.044 294.059 260.409 308.974 254.503C314.894 252.159 319.701 255.742 320.659 261.639C323.049 272.164 315.341 283.811 320.255 293.823C324.904 302.854 329.611 308.085 336.31 315.915C353.985 336.572 368.288 363.899 360.735 391.727C355.746 410.105 329.997 415.684 316.625 426.093C305.014 434.628 293.386 448.728 291.264 463.377C290.17 464.871 290.048 465.168 289.571 466.963C288.483 466.766 289.015 466.947 288.068 465.92C287.98 459.533 286.576 457.606 284.164 452.108C276.659 435 267.747 422.07 252.96 410.492C245.134 404.364 224.313 389.618 220.944 381.218C223.936 380.804 226.495 380.199 229.558 379.888C253.007 385.657 273.8 394.251 287.444 415.596C287.416 413.493 287.219 408.607 287.397 406.729C288.439 398.501 287.479 385.546 287.23 377.289C288.659 375.707 289.103 375.118 290.813 373.908L291.623 374.235L291.918 375.557C288.72 383.162 290.253 401.105 290.202 409.986C290.116 425.184 289.707 441.314 290.622 456.453C300.335 434.002 309.375 424.792 331.801 413.853C345.91 406.971 358.845 399.805 359.791 382.316C361.248 355.377 348.216 334.7 331.39 315.06C308.85 321.227 290.257 338.702 289.883 363.183C288.912 366.116 289.895 371.686 288.511 372.965C286.974 371.839 287.587 371.622 286.54 370.221C286.223 366.958 286.032 363.571 286.034 360.293C286.051 337.109 282.84 312.646 294.518 291.67C297.394 287.638 308.358 273.997 313.175 273.723C311.376 277.209 303.221 283.183 298.936 289.81L298.556 290.406ZM223.688 381.979C236.238 395.733 252.267 404.287 265.297 417.48C272.766 425.043 278.363 433.509 283.009 443.094C283.835 444.797 286.234 450.045 287.383 451.127C287.625 446.369 287.432 441.661 287.432 437.001C287.433 424.413 287.873 418.851 279.019 409.032C267.808 396.597 254.997 390 239.14 385.175C234.129 383.66 229.003 382.079 223.688 381.979Z" fill="#8EECF5"/>
<path d="M298.557 290.408L298.937 289.812C303.222 283.185 311.377 277.211 313.176 273.725C308.359 273.999 297.395 287.64 294.519 291.672C289.612 291.047 285.127 292.393 280.682 291.545C286.716 279.77 297.114 263.433 309.856 257.605C313.663 255.864 316.834 259.764 317.238 263.198C318.803 273.384 313.494 282.466 316.302 292.741C311.414 291.747 300.98 291.84 298.557 290.408Z" fill="#FFEDE1"/>
<path d="M575.303 358.928C577.979 357.119 589.309 354.518 593.495 352.906C602.238 349.539 611.119 346.115 619.628 342.122C639.324 332.878 659.342 323.458 678.558 313.345C706.244 298.774 732.801 281.863 763.139 273.453C808.605 260.849 844.713 269.843 884.323 293.189C894.429 299.146 905.286 306.168 915.419 311.89C931.822 324.89 950.337 338.369 964.004 354.544C1004.12 402.025 1021.66 476.25 980.624 528.869C964.162 549.978 942.428 561.514 918.357 571.815C910.511 575.214 897.741 579.871 891.142 585.164L890.343 585.09C872.62 570.157 849.466 566.805 827.021 567.821C837.677 547.393 846.483 524.235 855.198 502.888C862.196 483.617 867.343 457.537 861.424 437.589C854.96 415.805 841.293 408.324 820.115 415.444C799.434 422.397 788.575 434.078 778.803 452.663C777.956 450.707 777.226 442.911 776.859 440.276C774.498 423.366 770.838 407.437 760.787 393.27C753.262 382.663 734.042 365.931 721.468 362.171C689.562 352.631 649.765 358.194 617.25 362.172C608.771 363.209 589.65 365.666 581.97 364.336L581.251 364.208C578.814 361.53 578.413 360.945 575.303 358.928Z" fill="#C5EFD6"/>
<path d="M575.566 329.875C561.242 334.447 560.972 323.574 562.191 313.182C563.255 304.109 563.138 291.616 573.802 288.52C594.706 291.698 589.488 321.138 575.566 329.875Z" fill="#FFEDE1"/>
<path d="M288.633 351.539C288.422 330.898 286.718 308.206 298.557 290.406C300.98 291.838 311.414 291.745 316.302 292.739C320.741 302.015 323.756 305.962 330.314 313.616C314.445 318.31 303.93 323.078 295.428 338.105C292.848 342.665 291.331 346.971 288.633 351.539Z" fill="#F1C0E8"/>
<path d="M214.1 377.534C227.131 348.657 246.36 337.424 266.2 314.714C270.57 309.712 277.108 297.811 280.682 291.545C285.127 292.393 289.612 291.047 294.519 291.672C282.841 312.648 286.052 337.111 286.035 360.295C286.033 363.573 286.224 366.96 286.541 370.223L287.032 392.956C287.097 396.84 286.994 403.01 287.398 406.731C287.22 408.609 287.417 413.495 287.445 415.598C273.801 394.253 253.008 385.659 229.559 379.89C225.25 378.972 216.714 378.211 214.1 377.534Z" fill="#F8DDFC"/>
<path d="M82.0933 693.794C63.489 665.744 55.8894 636.429 52.3879 603.249C48.1543 563.131 51.724 512.974 65.8632 474.99C75.8003 448.294 95.1024 418.002 112.941 396.138C148.351 352.742 196.666 312.659 251.613 297.856C258.317 296.05 269.47 292.767 276.189 292.09C272.644 299.101 269.089 306.203 264.048 312.208C246.22 333.443 221.101 349.492 210.922 376.571C204.726 393.052 201.412 414.572 207.008 431.666C213.167 450.832 231.025 460.221 247.88 468.503C266.785 477.792 279.788 493.448 287.001 513.077C289.83 520.708 291.898 527.986 292.754 536.111C286.722 535.601 280.889 534.975 274.876 534.294C268.105 507.196 241.343 472.221 217.297 457.418C195.74 444.147 150.138 430.878 132.978 458.036C131.109 460.994 126.766 471.139 126.72 474.545C127.477 475.311 128.078 475.833 129.29 475.592C144.817 472.512 159.8 470.113 173.335 480.409C186.731 490.599 188.392 508.005 197.718 521.079C203.719 529.51 211.277 535.452 218.603 542.605C221.516 545.45 223.408 548.681 225.624 550.918L228.28 557.269C227.486 558.574 227.283 559.197 225.918 559.881C224.102 562.601 225.488 567.262 223.555 570.521C223.14 566.923 222.806 562.657 221.733 559.264C217.668 557.511 208.071 554.988 205.125 559.58C204.672 565.48 208.886 594.387 209.641 601.95C192.966 603.02 185.061 601.677 187.383 621.525C187.887 625.83 188.08 627.394 191.794 629.735C192.706 639.058 193.429 648.953 194.503 658.193C183.473 660.768 171.556 662.287 160.42 664.523C136.488 669.328 102.392 680.067 82.0933 693.794Z" fill="#F8DDFC"/>
<path d="M320.257 293.824C331.546 294.794 352.651 303.219 363.165 308.217C368.512 310.759 374.444 314.111 379.976 316.189L380.713 317.183C391.129 344.626 410.116 365.605 423.972 391.138C425.748 394.412 426.384 396.795 427.337 400.302C418.177 403.729 407.763 407.638 398.58 410.559C375.641 417.858 363.53 420.789 353.093 444.107C349.603 451.904 347.826 457.743 345.303 465.934C337.762 468.199 310.079 485.973 303.756 492.089C299.432 496.27 296.13 500.361 292.56 505.243C292.539 491.038 292.004 477.528 291.266 463.378C293.388 448.729 305.016 434.629 316.627 426.094C329.999 415.685 355.748 410.106 360.737 391.728C368.29 363.9 353.987 336.573 336.312 315.916C329.613 308.086 324.906 302.855 320.257 293.824Z" fill="#F1C0E8"/>
<path d="M492.051 320.496C496.825 305.934 501.687 303.99 516.326 302.707C525.72 301.876 531.286 304.2 537.122 311.614L537.514 312.121C539.813 311.737 545.046 308.924 547.493 307.764C547.653 327.424 545.506 330.785 526.851 337.452C510.369 342.581 497.765 337.024 492.051 320.496Z" fill="#FFEDE1"/>
<path d="M547.875 325.873C549.571 318.36 549.292 314.206 549.85 306.901C552.62 304.574 556.906 300.628 560.018 303.836C560.798 306.058 560.229 322.659 560.004 326.079C555.947 325.974 551.936 325.863 547.875 325.873Z" fill="#FFEDE1"/>
<path d="M468.234 341.453C450.7 345.492 445.938 331.852 442.698 318.519C440.424 309.161 448.977 307.681 455.802 306.639C482.435 304.892 492.132 333.554 468.234 341.453Z" fill="#FFEDE1"/>
<path d="M289.883 363.185C290.257 338.704 308.85 321.229 331.39 315.062C348.216 334.702 361.248 355.379 359.791 382.318C358.845 399.807 345.91 406.973 331.801 413.855C309.375 424.794 300.335 434.004 290.622 456.455C289.707 441.316 290.116 425.186 290.202 409.988C290.253 401.107 288.72 383.164 291.918 375.559C300.772 359.34 312.028 353.695 329.084 347.35C333.717 345.626 339.859 343.675 344.115 341.464L344.366 340.662C343 340.305 329.599 344.139 327.485 344.94C309.529 351.746 299.144 357.188 290.027 374.013L289.883 363.185Z" fill="#F1C0E8"/>
<path d="M494.445 331.145C490.624 331.903 486.751 332.557 482.895 333.106C484.251 328.636 483.627 324.334 482.814 319.891C485.147 319.837 487.866 319.564 490.225 319.387C490.848 324.714 491.654 326.763 494.445 331.145Z" fill="#FFEDE1"/>
<path d="M494.444 331.148C506.027 345.404 523.441 343.196 537.933 335.416C542.377 333.03 545.685 330.542 547.875 325.876C551.936 325.866 555.947 325.977 560.004 326.082C559.691 331.128 559.984 340.107 558.737 344.338C543.38 353.765 511.018 357.202 492.999 358.391C480.097 359.241 469.407 361.04 456.663 358.158C455.376 353.545 454.419 347.53 453.523 342.73C465.188 346.307 476.413 344.364 482.894 333.109C486.75 332.56 490.623 331.906 494.444 331.148Z" fill="#C2F5F8"/>
<path d="M568.633 343.479C566.837 345.221 564.769 347.487 562.274 346.484C560.436 343.602 561.758 334.302 562.007 330.195C566.31 333.554 567.851 333.552 573.134 333.592C572.047 337.692 570.92 340.027 568.633 343.479Z" fill="#FFEDE1"/>
<path d="M286.541 370.221C287.588 371.622 286.975 371.839 288.512 372.965C289.896 371.686 288.913 366.116 289.884 363.183L290.028 374.011C299.145 357.186 309.53 351.744 327.486 344.938C329.6 344.137 343.001 340.303 344.367 340.66L344.116 341.462C339.86 343.673 333.718 345.624 329.085 347.348C312.029 353.693 300.773 359.338 291.919 375.557L291.624 374.235L290.814 373.908C289.104 375.118 288.66 375.707 287.231 377.289C287.48 385.546 288.44 398.501 287.398 406.729C286.994 403.008 287.097 396.838 287.032 392.954L286.541 370.221Z" fill="#90DBF4"/>
<path d="M456.664 358.156C469.408 361.038 480.098 359.239 493 358.389C511.019 357.2 543.381 353.763 558.738 344.336C554.922 374.873 529.53 401.94 496.353 398.438C476.802 396.375 460.164 377.428 456.664 358.156Z" fill="#65ECE0"/>
<path d="M483.738 423.878C481.027 413.119 480.611 406.379 480.174 395.413C493.889 402.656 503.606 402.722 518.38 398.348C543.953 390.776 553.394 372.909 560.644 349.324C567.723 370.427 571.101 378.185 562.59 399.799C554.939 419.23 549.505 432.345 535.478 448.607C531.704 446.804 520.284 454.721 512.271 449.915C503.042 444.379 496.221 438.345 489.431 429.84C487.739 427.721 486.14 424.832 483.738 423.878Z" fill="#8EECF5"/>
<path d="M581.25 364.207L581.969 364.335C589.649 365.665 608.77 363.208 617.249 362.171C649.764 358.193 689.561 352.63 721.467 362.17C734.041 365.93 753.261 382.662 760.786 393.269C770.837 407.436 774.497 423.365 776.858 440.275C777.225 442.91 777.955 450.706 778.802 452.662C768.21 478.01 756.989 489.568 733.485 503.618C728.452 506.627 721.146 513.061 715.772 514.63C712.658 499.709 710.287 483.075 707.034 468.6C703.704 453.779 700.942 433.958 687.671 425.873C678.126 420.058 596.754 382.78 591.977 383.849C592.083 385.278 592.016 384.631 593.244 386.092C592.184 386.564 590.992 387.17 589.897 387.462C588.686 378.248 585.893 372.115 581.25 364.207Z" fill="#65ECE0"/>
<path d="M587.481 432.096L573.78 428.366C566.937 430.435 556.859 434.409 551.419 439.21C549.618 441.179 546.598 444.582 545.245 446.867C542.813 447.727 542.712 447.547 540.049 446.835C553.026 431.144 559.328 415.532 565.374 396.46C571.205 378.066 573.734 377.228 566.473 358.805C571.359 359.896 575.142 361.153 578.546 365.197C592.082 381.274 588.339 412.442 587.481 432.096Z" fill="#C5EFD6"/>
<path d="M213.844 379.367C214.232 378.332 214.116 378.703 214.101 377.535C216.715 378.212 225.251 378.973 229.56 379.891C226.497 380.202 223.938 380.807 220.946 381.221C219.807 380.391 215.798 379.911 213.844 379.367Z" fill="#65ECE0"/>
<path d="M213.843 379.367C215.797 379.911 219.806 380.391 220.945 381.221C224.314 389.621 245.135 404.367 252.961 410.495C267.748 422.073 276.66 435.003 284.165 452.111C286.577 457.609 287.981 459.536 288.069 465.923C288.668 472.264 290.71 507.038 289.72 512.303C288.569 510.214 287.443 507.231 286.364 504.932C281.497 494.561 277.356 488.391 269.469 480.175C250.695 460.618 218.164 458.26 209.595 429.149C206.037 417.061 207.976 390.067 213.843 379.367Z" fill="#F8DDFC"/>
<path d="M287.384 451.128C286.235 450.046 283.836 444.798 283.01 443.095C278.364 433.51 272.767 425.044 265.298 417.481C252.268 404.288 236.239 395.734 223.689 381.98C229.004 382.08 234.13 383.661 239.141 385.176C254.998 390.001 267.809 396.598 279.02 409.033C287.874 418.852 287.434 424.414 287.433 437.002C287.433 441.662 287.626 446.37 287.384 451.128Z" fill="#F8DDFC"/>
<path d="M589.899 387.464C590.994 387.172 592.186 386.566 593.246 386.094C608.971 392.329 683.142 422.683 692.029 432.165L692.377 433.306C691.65 434.474 691.529 434.219 690.372 434.73C687.723 435.898 685.424 439.686 683.721 442.042C672.493 457.575 662.649 477.439 658.132 496.081C648.289 484.517 602.557 450.999 588.215 449.837C590.234 436.312 591.716 400.3 589.899 387.464Z" fill="#8EECF5"/>
<path d="M477.639 400.208C475.868 398.502 474.179 396.533 471.962 395.655C468.59 396.048 467.485 398.341 466.963 401.496C465.45 410.647 464.808 426.364 469.39 434.447C461.423 433.201 457.114 429.545 450.287 427.563C453.507 418.698 464.062 394.343 470.004 388.031C472.661 389.929 475.023 391.905 477.542 393.976L477.639 400.208Z" fill="#65ECE0"/>
<path d="M429.014 402.249C438.301 398.901 455.577 392.834 464.961 390.504C458.06 401.896 453.755 412.238 448.741 424.592C437.218 419.774 433.994 412.682 429.014 402.249Z" fill="#8EECF5"/>
<path d="M469.39 434.448C464.808 426.365 465.45 410.648 466.963 401.497C467.485 398.342 468.59 396.049 471.962 395.656C474.179 396.534 475.868 398.503 477.639 400.209C478.87 414.258 481.01 425.081 484.997 438.654C480.063 438.987 473.609 437.059 469.39 434.448Z" fill="#FBF8CC"/>
<path d="M369.688 425.179C379.054 418.899 390.655 415.853 401.323 412.141C410.652 408.896 419.736 405.655 429.014 402.246C433.994 412.679 437.218 419.771 448.741 424.589C446.328 431.614 436.682 460.425 438.29 466.363C439.698 466.999 446.373 464.042 448.061 463.324C458.073 459.066 468.571 455.949 478.662 451.952L472.589 474.264C481.348 479.616 490.888 484.259 499.86 489.404C500.443 499.147 502.399 509.643 502.197 519.315C501.303 561.943 500.684 604.27 500.74 646.906C494.475 646.201 486.986 645.178 480.789 644.79C476.448 620.29 472.53 594.353 465.305 570.629C458.841 549.406 434.786 550.762 416.835 548.84C419.583 544.515 430.52 541.683 434.201 530.807C440.804 511.905 435.733 488.827 427.562 471.489C417.92 451.026 403.426 429.862 378.87 428.507C377.137 428.412 372.144 427.935 370.654 427.391L369.688 425.179Z" fill="#C5EFD6"/>
<path d="M778.803 452.663C788.575 434.078 799.434 422.397 820.115 415.444C841.293 408.324 854.96 415.805 861.424 437.589C867.343 457.537 862.196 483.617 855.198 502.888C846.483 524.235 837.677 547.393 827.021 567.821L825.121 570.423C815.068 582.141 817.649 584.634 802.326 593.508L801.22 593.351L798.802 591.027C810.751 585.785 813.528 582.913 820.454 571.413C808.658 571.777 796.479 571.748 784.689 570.963C781.352 570.741 778.143 570.535 774.794 570.489L773.557 570.331L728.195 569.98L727.161 564.794C730.203 563.354 735.807 559.243 738.173 556.734C740.412 554.358 740.295 554.322 740.207 551.577L741.033 547.226C741.678 539.584 742.911 532.055 743.565 524.468C744.223 516.833 744.122 508.771 743.947 501.116C735.839 506.589 725.157 514.034 716.694 518.691C716.488 517.508 716.053 515.842 715.773 514.631C721.147 513.062 728.453 506.628 733.486 503.619C756.99 489.569 768.211 478.011 778.803 452.663ZM830.626 416.051C825.852 443.112 821.628 454.097 812.723 480.37C817.565 475.772 822.746 470.911 827.836 466.601C833.474 461.608 852.743 444.366 858.784 441.108C854.714 426.323 847.929 414.766 830.626 416.051ZM826.316 417.143C816.048 419.67 803.49 425.042 796.846 433.919C795.464 435.765 794.846 443.227 794.774 445.744C794.393 459.161 793.19 472.438 791.575 485.764C790.74 492.654 790.176 499.914 789.005 506.75L789.584 507.581C793.446 503.655 804.89 490.682 807.021 486.471C810.37 479.854 829.091 419.114 826.316 417.143ZM791.281 439.9C782.759 448.051 780.703 458.145 775.552 468.136C769.722 479.445 756.645 492.671 746.352 500.374C748.392 512.766 747.163 521.287 745.689 533.689C745.158 538.157 743.644 547.067 744.33 551.286C750.286 548.094 782.703 517.517 784.227 512.818C786.006 507.33 793.487 444.473 791.281 439.9ZM858.74 445.4C834.128 461.883 811.191 486.254 792.785 509.236L793.262 509.744L793.764 509.696C814.236 498.82 837.471 487.878 858.627 477.761C859.88 473.015 861.673 448.082 858.74 445.4ZM857.017 482.515C852.388 483.853 843.716 488.398 839.074 490.564C826.48 496.441 813.827 502.675 801.558 509.205C798.068 511.063 789.589 514.961 786.794 516.968C782.051 520.373 775.634 527.418 771.063 531.767C767.049 535.587 761.709 540.246 758.085 544.105L757.931 544.92L758.231 545.19C773.567 541.156 784.351 538.447 800.052 536.451C812.178 534.91 827.919 534.381 839.494 532.453C842.689 525.354 858.544 488.487 857.467 482.93L857.017 482.515ZM828.338 536.699C806.634 538.996 786.368 540.153 765.338 546.663C760.932 548.027 755.508 548.49 751.339 550.732C744.616 554.791 737.556 561.089 731.295 565.98L744.562 566.464C769.68 567.319 798.188 569.086 823.234 567.572C828.815 557.413 833.733 547.007 838.134 536.282C836.024 536.337 830.107 536.373 828.338 536.699Z" fill="#05EA89"/>
<path d="M812.723 480.37C821.628 454.097 825.852 443.112 830.626 416.051C847.929 414.766 854.714 426.323 858.784 441.108C852.743 444.366 833.474 461.608 827.836 466.601C822.746 470.911 817.565 475.772 812.723 480.37Z" fill="#C5EFD6"/>
<path d="M789.585 507.583L789.006 506.752C790.177 499.916 790.741 492.656 791.576 485.766C793.191 472.44 794.394 459.163 794.775 445.746C794.847 443.229 795.465 435.767 796.847 433.921C803.491 425.044 816.049 419.672 826.317 417.145C829.092 419.116 810.371 479.856 807.022 486.473C804.891 490.684 793.447 503.657 789.585 507.583Z" fill="#C5EFD6"/>
<path d="M483.736 423.879C486.138 424.833 487.737 427.722 489.429 429.841C496.219 438.346 503.04 444.38 512.269 449.916C520.282 454.722 531.702 446.805 535.476 448.608C524.073 462.154 519.582 469.268 511.882 484.985C497.785 465.727 488.738 447.35 483.736 423.879Z" fill="#C5EFD6"/>
<path d="M364.973 429.711C366.452 428.177 368.13 426.653 369.687 425.18L370.653 427.392C372.143 427.936 377.137 428.413 378.87 428.508C403.426 429.863 417.92 451.027 427.562 471.49C435.732 488.828 440.803 511.906 434.2 530.808C430.519 541.684 419.583 544.516 416.835 548.841L387.003 545.851C381.423 516.19 378.161 485.529 374.085 455.598C373.835 453.761 373.089 451.892 372.234 450.27L371.586 450.139C370.302 455.345 378.8 510.096 380.089 520.319C376.263 517.247 372.598 514.239 368.968 510.933C366.727 508.891 361.675 502.304 358.601 502.824C361.052 508.593 375.368 518.631 380.179 522.736L380.517 523.029L384.158 545.661C369.323 543.374 349.122 542.206 333.391 540.384C335.293 532.34 336.432 524.18 338.241 516.133L339 516.759L339.975 516.537C341.835 514.421 342.761 511.3 344.092 508.656C347.348 502.213 349.759 496.308 349.477 488.919C348.604 465.988 364.872 443.736 383.175 431.068C377.58 430.232 369.129 431.018 364.973 429.711Z" fill="#8EECF5"/>
<path d="M450.286 427.566C457.113 429.548 461.422 433.204 469.389 434.45C473.608 437.061 480.062 438.989 484.996 438.656C489.618 453.161 496.571 466.924 505.073 479.538C506.889 482.232 509.022 484.621 510.327 487.61C509.97 489.226 509.739 489.369 508.824 490.722C506.244 490.648 479.841 475.516 475.704 472.978C477.403 466.129 480.699 454.746 481.525 448.236C471.832 450.877 450.114 459.685 440.146 463.696C443.192 450.799 445.671 439.981 450.286 427.566Z" fill="#C2F5F8"/>
<path d="M573.781 428.367L587.482 432.097C587.227 435.015 586.32 447.17 585.757 449.393C582.863 444.721 557.689 440.868 551.42 439.211C556.86 434.41 566.938 430.436 573.781 428.367Z" fill="#65ECE0"/>
<path d="M338.24 516.133C342.72 489.377 347.856 450.104 364.972 429.711C369.128 431.018 377.579 430.232 383.174 431.068C364.871 443.736 348.603 465.988 349.476 488.919C349.758 496.308 347.347 502.213 344.091 508.656C342.76 511.3 341.834 514.421 339.974 516.537L338.999 516.759L338.24 516.133Z" fill="#C2F5F8"/>
<path d="M659.578 498.863C667.919 471.868 674.971 455.736 693.564 433.988C703.452 449.429 709.011 494.863 713.393 514.088C710.321 516.063 709.706 516.896 708.167 520.233C701.23 521.623 685.798 504.25 669.532 512.466C669.178 515.646 668.573 520 668.519 523.092C666.519 516.746 665.206 502.164 659.578 498.863Z" fill="#8EECF5"/>
<path d="M545.246 446.868C546.599 444.583 549.619 441.18 551.42 439.211C557.689 440.868 582.863 444.721 585.757 449.393C585.144 455.835 584.468 462.869 583.445 469.223C577.293 466.983 569.719 462.042 563.919 458.82C557.704 455.367 551.411 452.068 545.213 448.615L545.246 446.868Z" fill="#C2F5F8"/>
<path d="M746.351 500.376C756.644 492.673 769.721 479.447 775.551 468.138C780.702 458.147 782.758 448.053 791.28 439.902C793.486 444.475 786.005 507.332 784.226 512.82C782.702 517.519 750.285 548.096 744.329 551.288C743.643 547.069 745.157 538.159 745.688 533.691C747.162 521.289 748.391 512.768 746.351 500.376Z" fill="#C5EFD6"/>
<path d="M219.814 462.733C201.909 449.238 159.94 436.605 141.197 453.872C164.986 453.727 184.646 464.064 198.934 482.773C199.902 484.04 203.664 489.121 204.886 489.452C205.457 491.646 205.417 491.529 206.948 493.222C211.869 498.92 219.819 516.886 224.729 521.479L225.392 522.885C227.073 526.006 231.066 531.943 233.378 534.8C232.577 536.06 231.822 537.202 231.135 538.534C226.901 530.724 221.522 523.716 217.345 516.177C200.844 486.395 176.433 453.713 137.972 457.404C134.835 461.837 131.984 466.55 130.238 471.718C145.347 469.383 160.588 466.736 174.113 476.622C188.124 486.861 191.976 506.724 201.237 519.626C208.453 529.679 218.819 536.492 226.641 547.498C226.075 548.982 225.896 549.321 225.625 550.917C223.409 548.68 221.517 545.449 218.604 542.604C211.278 535.451 203.72 529.509 197.719 521.078C188.393 508.004 186.732 490.598 173.336 480.408C159.801 470.112 144.818 472.511 129.291 475.591C128.079 475.832 127.478 475.31 126.721 474.544C126.767 471.138 131.11 460.993 132.979 458.035C150.139 430.877 195.741 444.146 217.298 457.417C241.344 472.22 268.106 507.195 274.877 534.293L271.321 533.738C270.944 531.749 270.894 530.676 269.9 528.958C269.467 528.359 268.799 527.13 268.396 526.445C268.318 524.04 260.844 508.296 258.349 507.138L257.419 506.528L257.714 505.608C257.036 503.397 253.491 498.754 252.046 496.663C242.831 483.325 234.715 474.391 221.646 464.607L219.814 462.733Z" fill="#F270A4"/>
<path d="M219.812 462.733C208.907 470.365 205.542 476.022 204.884 489.452C203.662 489.121 199.9 484.04 198.932 482.773C184.644 464.064 164.984 453.727 141.195 453.872C159.938 436.605 201.907 449.238 219.812 462.733Z" fill="#F8DDFC"/>
<path d="M793.764 509.698L793.262 509.746L792.785 509.238C811.191 486.256 834.128 461.885 858.74 445.402C861.673 448.084 859.88 473.017 858.627 477.763C837.471 487.88 814.236 498.822 793.764 509.698Z" fill="#C5EFD6"/>
<path d="M540.048 446.836C542.711 447.548 542.812 447.728 545.244 446.868L545.211 448.615C543.923 449.264 543.964 449.284 542.912 450.295C542.502 452.476 550.081 472.665 551.455 476.934C538.245 482.048 523.218 488.681 510.232 494.497C520.948 471.344 523.697 466.635 540.048 446.836Z" fill="#C2F5F8"/>
<path d="M588.214 449.836C602.556 450.998 648.288 484.516 658.131 496.08C647.044 533.004 644.624 577.771 649.466 615.946C627.206 625.695 607.233 639.034 585.987 650.584C581.932 652.789 575.194 654.964 570.755 656.625C559.276 654.051 551.359 653.046 539.516 651.628C537.761 635.318 537.168 618.351 536.381 601.968C534.537 563.563 534.901 525.208 534.988 486.767C540.837 483.925 548.321 481.223 554.504 478.535L545.464 451.675C551.288 454.454 582.092 472.819 585.048 472.355C586.741 469.99 587.827 453.83 588.214 449.836ZM560.824 509.664C560.02 510.615 559.504 510.931 559.524 512.333C559.764 529.085 558.858 547.304 559.88 563.912C561.66 592.824 609.37 594.403 627.067 580.62C633.539 574.574 635.506 567.316 635.299 558.897C635.122 551.717 637.009 514.823 635 510.79C630.814 510.046 627.168 510.016 622.916 510.176C602.182 510.957 581.552 510.322 560.824 509.664Z" fill="#C5EFD6"/>
<path d="M137.97 457.403C176.431 453.712 200.842 486.394 217.343 516.176C221.52 523.715 226.899 530.723 231.133 538.533C229.601 545.47 233.594 558.017 235.031 565.513C231.016 558.755 229.604 554.42 226.639 547.497C218.817 536.491 208.451 529.678 201.235 519.625C191.974 506.723 188.122 486.86 174.111 476.621C160.586 466.735 145.345 469.382 130.236 471.717C131.982 466.549 134.833 461.836 137.97 457.403Z" fill="#F1C0E8"/>
<path d="M204.885 489.453C205.543 476.023 208.908 470.366 219.813 462.734L221.645 464.608C210.258 473.599 207.157 478.139 206.947 493.223C205.416 491.53 205.456 491.647 204.885 489.453Z" fill="#E74F81"/>
<path d="M288.07 465.922C289.017 466.949 288.485 466.768 289.573 466.965C290.05 465.17 290.172 464.873 291.266 463.379C292.004 477.529 292.539 491.039 292.56 505.244C296.13 500.362 299.432 496.271 303.756 492.09C310.079 485.974 337.762 468.2 345.303 465.935C344.997 467.346 344.684 468.965 344.332 470.346C339.268 470.872 316.444 485.129 311.6 488.658C303.474 494.579 291.473 507.934 293.153 518.887C294.044 524.475 294.846 530.718 295.581 536.466L292.755 536.11C291.899 527.985 289.831 520.707 287.002 513.076C288.201 512.188 288.192 512.32 289.721 512.302C290.711 507.037 288.669 472.263 288.07 465.922Z" fill="#90DBF4"/>
<path d="M206.947 493.22C207.157 478.136 210.258 473.596 221.645 464.605C234.714 474.389 242.83 483.323 252.045 496.661C253.49 498.752 257.035 503.395 257.713 505.606L257.418 506.526C250.008 509.364 238.88 524.444 236.988 532.221L233.377 534.798C231.065 531.941 227.072 526.004 225.391 522.883C225.592 521.979 225.688 520.373 225.83 519.388C228.109 503.553 237.138 499.244 247.927 490.866C234.342 495.101 223.141 506.316 224.728 521.477C219.818 516.884 211.868 498.918 206.947 493.22Z" fill="#F1C0E8"/>
<path d="M295.579 536.468C294.844 530.72 294.042 524.477 293.151 518.889C291.471 507.936 303.472 494.581 311.598 488.66C316.442 485.131 339.266 470.874 344.33 470.348C339.698 493.48 335.547 516.968 331.292 540.212L295.579 536.468Z" fill="#F1C0E8"/>
<path d="M758.232 545.191L757.932 544.921L758.086 544.106C761.71 540.247 767.05 535.588 771.064 531.768C775.635 527.419 782.052 520.374 786.795 516.969C789.59 514.962 798.069 511.064 801.559 509.206C813.828 502.676 826.481 496.442 839.075 490.565C843.717 488.399 852.389 483.854 857.018 482.516L857.468 482.931C858.545 488.488 842.69 525.355 839.495 532.454C827.92 534.382 812.179 534.911 800.053 536.452C784.352 538.448 773.568 541.157 758.232 545.191Z" fill="#C5EFD6"/>
<path d="M503.571 501.627C508.818 497.05 524.324 491.052 531.543 487.973L531.93 488.008C533.209 489.158 532.512 505.495 532.504 508.034C532.346 555.891 532.898 603.582 537.14 651.277L510.619 648.057C508.219 647.764 505.788 647.535 503.381 647.289C502.118 619.791 503.387 589.861 503.879 562.295C504.235 542.375 505.665 521.496 503.571 501.627ZM514.584 507.246C511.63 508.096 509.936 511.19 510.811 514.136C511.686 517.083 514.795 518.751 517.734 517.851C520.637 516.962 522.281 513.898 521.417 510.986C520.552 508.075 517.502 506.406 514.584 507.246ZM513.673 574.933C508.837 580.444 511.874 587.666 519.212 586.285C523.497 580.644 520.564 574.213 513.673 574.933Z" fill="#C5EFD6"/>
<path d="M506.19 496.385C505.54 496.873 504.79 497.338 504.106 497.788L503.143 497.467C502.238 495.848 502.427 492.848 502.381 490.855C504.306 491.842 505.186 491.731 507.246 493.022C507.609 494.724 507.354 494.359 506.19 496.385Z" fill="#FBF8F1"/>
<path d="M224.728 521.478C223.141 506.317 234.342 495.102 247.927 490.867C237.138 499.245 228.109 503.554 225.83 519.389C225.688 520.374 225.592 521.98 225.391 522.884L224.728 521.478Z" fill="#E74F81"/>
<path d="M659.578 498.863C665.206 502.164 666.519 516.746 668.519 523.092C671.673 544.875 671.57 555.504 690.839 569.373C693.993 571.643 697.836 574.627 701.248 576.585C702.115 577.78 703.778 580.097 704.887 580.912C710.701 585.192 722.641 587.577 729.828 588.787C732.862 605.455 739.396 647.139 726.366 659.346C723.125 657.321 711.151 656.265 706.878 655.63C678.597 651.429 650.445 651.19 622.018 653.977C617.601 654.41 604.682 653.705 601.254 655.367C597.353 653.051 595.177 652.119 590.824 651.175C612.927 637.598 634.043 625.29 657.741 614.37C669.81 608.808 688.801 616.984 700.715 621.395C703.401 622.389 705.942 624.145 709.1 625.324L710.054 624.73C710.411 623.286 710.493 623.969 709.717 622.625C695.728 616.352 683.55 611.183 667.931 610.19C679.084 605.623 691.049 601.666 703.202 603.344C705.981 603.728 715.532 605.848 717.211 604.842L716.918 604.11C713.48 600.966 696.778 600.008 691.866 600.651C679.16 602.313 663.033 608.716 651.696 614.617C648.047 576.46 649.166 535.96 659.578 498.863Z" fill="#C5EFD6"/>
<path d="M716.693 518.692C725.156 514.035 735.838 506.59 743.946 501.117C744.121 508.772 744.222 516.834 743.564 524.469C742.91 532.056 741.677 539.585 741.032 547.227C735.662 544.404 725.14 538.923 720.613 535.467C719.112 529.756 717.931 524.461 716.693 518.692Z" fill="#C5EFD6"/>
<path d="M236.988 532.222C238.88 524.445 250.008 509.365 257.418 506.527L258.348 507.137C254.535 512.729 240.658 524.587 239.582 531.164L236.988 532.222Z" fill="#E74F81"/>
<path d="M258.348 507.137C260.843 508.295 268.317 524.039 268.395 526.444C266.055 527.842 260.422 531.01 258.476 532.508C251.737 532.113 247.051 530.513 239.582 531.164C240.658 524.587 254.535 512.729 258.348 507.137Z" fill="#F1C0E8"/>
<path d="M517.734 517.85C514.795 518.75 511.686 517.082 510.811 514.135C509.936 511.189 511.63 508.095 514.584 507.245C517.502 506.405 520.552 508.074 521.417 510.985C522.281 513.897 520.637 516.961 517.734 517.85ZM515.068 509.768C514.072 510.132 513.349 511.003 513.177 512.049C513.004 513.094 513.41 514.151 514.236 514.815C515.062 515.478 516.181 515.645 517.164 515.251C518.653 514.655 519.388 512.975 518.815 511.477C518.242 509.979 516.574 509.219 515.068 509.768Z" fill="black"/>
<path d="M517.165 515.251C516.182 515.645 515.062 515.478 514.236 514.815C513.41 514.151 513.005 513.094 513.178 512.049C513.35 511.003 514.072 510.132 515.068 509.768C516.574 509.219 518.243 509.979 518.816 511.477C519.389 512.975 518.654 514.655 517.165 515.251Z" fill="#C5EFD6"/>
<path d="M627.066 580.62C609.369 594.403 561.659 592.824 559.879 563.912C558.857 547.304 559.763 529.085 559.523 512.333C559.503 510.931 560.019 510.615 560.823 509.664C581.551 510.322 602.181 510.957 622.915 510.176C627.167 510.016 630.813 510.046 634.999 510.79C637.008 514.823 635.121 551.717 635.298 558.897C635.505 567.316 633.538 574.574 627.066 580.62ZM561.94 512.375L561.83 531.709L633.489 531.112L633.476 512.501L561.94 512.375ZM583.726 533.761L561.867 534.02C561.93 543.695 561.41 556.852 562.628 566.264C565.215 586.271 595.761 588.341 610.877 585.291C638.876 578.218 632.774 557.306 633.321 533.623C617.248 533.364 599.844 533.493 583.726 533.761Z" fill="black"/>
<path d="M669.533 512.466C685.799 504.25 701.231 521.623 708.168 520.233C700.647 540.664 694.887 555.44 701.249 576.585C697.837 574.627 693.994 571.643 690.84 569.373C671.571 555.504 671.674 544.875 668.52 523.092C668.574 520 669.179 515.646 669.533 512.466Z" fill="#65ECE0"/>
<path d="M561.83 531.709L561.94 512.375L633.476 512.501L633.489 531.112L561.83 531.709Z" fill="#C5EFD6"/>
<path d="M713.393 514.09L714.417 519.314C711.954 521.641 710.6 524.4 709.23 527.47L708.597 529.435C702.226 546.605 698.929 562.539 706.566 579.501C709.798 580.443 713.336 581.575 716.612 582.172C719.359 582.787 726.397 584.702 728.848 583.662L729.828 588.789C722.641 587.579 710.701 585.194 704.887 580.914C703.778 580.099 702.115 577.782 701.248 576.587C694.886 555.442 700.646 540.666 708.167 520.235C709.706 516.898 710.321 516.065 713.393 514.09Z" fill="#05EA89"/>
<path d="M709.23 527.469C710.6 524.399 711.954 521.639 714.417 519.312L716.862 531.021C714.106 529.864 711.895 528.796 709.23 527.469Z" fill="#D2DCBF"/>
<path d="M258.477 532.509C260.423 531.011 266.056 527.843 268.396 526.445C268.799 527.13 269.467 528.359 269.9 528.958C267.983 529.934 264.69 531.364 263.359 532.855L258.477 532.509Z" fill="#E74F81"/>
<path d="M708.598 529.434L709.231 527.469C711.896 528.796 714.107 529.864 716.863 531.021C719.401 542.788 721.874 554.412 724.946 566.061C722.738 566.067 721.985 566.234 720.017 565.399C716.774 556.514 709.146 538.576 708.598 529.434Z" fill="#98F5E1"/>
<path d="M269.898 528.957C270.892 530.675 270.942 531.748 271.319 533.737C268.654 533.508 266.013 533.172 263.357 532.854C264.688 531.363 267.981 529.933 269.898 528.957Z" fill="#F8DDFC"/>
<path d="M706.568 579.5C698.931 562.538 702.228 546.604 708.599 529.434C709.147 538.576 716.775 556.514 720.018 565.399L718.884 565.365C717.967 567.79 719.891 569.271 722.017 569.791C717.065 571.263 717.098 577.538 716.614 582.171C713.338 581.574 709.8 580.442 706.568 579.5Z" fill="#65ECE0"/>
<path d="M270.513 710.92C266.046 703.583 258.276 661.201 255.827 650.506C249.291 621.971 242.4 592.375 237.441 563.502C236.735 559.391 235.76 555.323 234.968 551.228C234.186 546.191 231.434 539.539 236.19 535.808C238.402 534.073 241.417 533.623 244.074 533.79C253.695 534.395 264.213 535.801 273.719 536.845L327.493 542.579C327.057 571.183 342.921 597.203 368.023 611.787C370.524 613.24 374.499 614.862 376.726 616.359C376.855 616.504 376.984 616.648 377.113 616.793C386.73 622.086 399.212 622.666 409.979 623.655C410.055 623.971 410.131 624.286 410.207 624.602C408.939 626.257 404.145 627.506 404.05 628.533C403.595 633.464 402.998 638.44 402.373 643.355C401.989 646.37 402.437 650.014 402.022 653.012C400.993 660.45 397.283 667.266 397.247 675.02C396.918 680.559 398.292 686.098 398.3 691.631C398.307 696.598 396.193 701.515 396.172 706.472C396.149 711.989 399.299 723.476 393.935 727.221L392.16 727.171C391.221 728.6 391.538 728 391.413 729.925C387.745 731.655 362.608 724.382 360.635 726.609C357.974 726.457 355.094 725.906 352.444 725.496C332.366 722.387 312.194 719.596 292.191 716.041C285.85 714.915 275.996 713.913 270.513 710.92Z" fill="#FFEDE1"/>
<path d="M561.868 534.022L583.727 533.763C599.845 533.495 617.249 533.366 633.322 533.625C632.775 557.308 638.877 578.22 610.878 585.293C595.762 588.343 565.216 586.273 562.629 566.266C561.411 556.854 561.931 543.697 561.868 534.022Z" fill="#C5EFD6"/>
<path d="M720.613 535.469C725.14 538.925 735.662 544.406 741.032 547.229L740.206 551.58C734.957 548.698 727.307 541.644 721.618 540.949L720.613 535.469Z" fill="#51F1C7"/>
<path d="M731.295 565.979C737.556 561.088 744.616 554.79 751.339 550.731C755.508 548.489 760.932 548.026 765.338 546.662C786.368 540.152 806.634 538.995 828.338 536.698C830.107 536.372 836.024 536.336 838.134 536.281C833.733 547.006 828.815 557.412 823.234 567.571C798.188 569.085 769.68 567.318 744.562 566.463L731.295 565.979Z" fill="#C5EFD6"/>
<path d="M721.619 540.945C727.308 541.64 734.958 548.694 740.207 551.576C740.295 554.321 740.412 554.357 738.173 556.733C735.807 559.242 730.203 563.353 727.161 564.793L721.619 540.945Z" fill="#98F5E1"/>
<path d="M327.491 542.578L407.695 550.706C420.695 552.027 434.383 552.933 447.131 555.444C455.102 557.014 461.672 567.154 464.034 574.463L462.121 573.394C460.644 576.69 459.723 580.886 458.487 584.337C452.864 600.048 450.005 613.15 433.18 619.499C416.614 625.751 392.513 622.946 376.724 616.358C374.497 614.861 370.522 613.239 368.021 611.786C342.919 597.202 327.055 571.182 327.491 542.578Z" fill="url(#paint0_linear_2293_77703)"/>
<path d="M228.28 557.27L229.851 560.996C229.638 563.902 229.863 566.438 230.05 569.326C228.829 570.918 227.556 572.528 226.411 574.171C226.505 570.337 227.833 564.046 227.101 560.603L225.918 559.882C227.283 559.198 227.486 558.575 228.28 557.27Z" fill="#F8DDFC"/>
<path d="M212.109 606.507L208.796 577.862C208.211 572.789 207.549 567.518 207.175 562.425C207.021 560.326 207.364 560.304 208.498 559.082C212.945 558.891 215.842 559.421 220.095 560.402C221.218 566.044 221.829 576.227 222.269 582.31C222.799 589.629 223.795 598.819 223.964 606.031L223.04 606.526L212.109 606.507Z" fill="#C2F5F8"/>
<path d="M223.554 570.519C225.487 567.26 224.101 562.599 225.917 559.879L227.1 560.6C227.832 564.043 226.504 570.334 226.41 574.168C225.703 577.59 225.566 577.748 224.25 580.837C223.726 579.256 223.478 572.415 223.554 570.519Z" fill="#90DBF4"/>
<path d="M229.852 560.992C233.649 568.667 237.03 574.645 238.503 583.137C239.786 590.532 241.568 598.199 243.28 605.516C237.488 605.92 231.864 606.361 226.052 606.433C225.491 597.986 225.023 589.243 224.252 580.836C225.568 577.747 225.705 577.589 226.412 574.167C227.557 572.524 228.83 570.914 230.051 569.322C229.864 566.434 229.639 563.898 229.852 560.992Z" fill="#F1C0E8"/>
<path d="M722.016 569.789C719.89 569.269 717.966 567.788 718.883 565.363L720.017 565.397C721.985 566.232 722.738 566.065 724.946 566.059L725.778 569.35L722.016 569.789Z" fill="#51F1C7"/>
<path d="M825.121 570.426L827.021 567.824C849.466 566.808 872.621 570.16 890.344 585.093C900.933 594.502 915.054 602.483 914.433 618.226C910.183 625.838 905.111 628.322 897.136 630.804C864.764 640.877 834.06 621.509 801.605 625.976C799.336 626.289 796.576 625.937 794.828 627.272C794.397 628.163 794.194 628.47 793.914 629.413L793.604 629.348C793.715 627.35 794.071 625.059 794.326 623.046C810.614 617.682 833.896 623.786 850.61 625.619C866.985 628.886 895.444 632.846 908.553 619.859C916.987 611.505 892.403 592.218 886.597 588.538C869.378 578.346 859.394 574.879 839.24 572.08C835.177 571.516 829.27 571.155 825.612 570.515L825.121 570.426Z" fill="#FD9F7A"/>
<path d="M722.016 569.791L725.778 569.352L728.849 583.661C726.398 584.701 719.36 582.786 716.613 582.171C717.097 577.538 717.064 571.263 722.016 569.791Z" fill="#D2DCBF"/>
<path d="M728.195 569.98L773.557 570.331C775.307 575.801 776.128 578.88 779.241 583.826C780.602 585.989 784.471 590.337 784.981 591.857L775.926 591.389C758.65 589.269 748.705 588.307 731.34 585.131C730.363 580.103 729.244 575.003 728.195 569.98Z" fill="#D2DCBF"/>
<path d="M802.326 593.511C817.649 584.637 815.068 582.144 825.121 570.426L825.612 570.516C829.27 571.156 835.176 571.517 839.239 572.081C859.393 574.88 869.378 578.346 886.597 588.538C884.575 591.169 877.769 599.46 878.215 602.414C870.697 599.412 870.401 598.222 861.021 595.702C839.513 592.063 836.454 593.389 819.958 607.135C817.551 605.435 816.266 604.073 814.205 602.024C816.978 597.183 818.501 592.906 821.876 587.308C816.779 592.229 814.928 594.978 810.762 600.851L802.326 593.511Z" fill="#FBF8CC"/>
<path d="M773.557 570.332L774.794 570.49C779.384 575.031 784.998 577.847 789.092 582.57C789.528 584.493 789.953 585.682 790.293 587.677C785.815 583.208 781.566 578.89 776.811 574.711C777.206 575.898 778.19 578.976 779.072 580.15C782.236 584.357 786.688 588.106 789.71 592.526C789.551 592.875 789.391 593.224 789.232 593.573C788.924 593.999 788.617 594.425 788.309 594.851C787.001 594.244 785.784 594.283 784.333 594.174C785.651 594.08 786.51 594.178 787.55 593.393C786.916 592.267 786.546 592.464 784.981 591.858C784.471 590.338 780.602 585.99 779.241 583.827C776.128 578.881 775.307 575.802 773.557 570.332Z" fill="#5D8360"/>
<path d="M774.795 570.488C778.144 570.534 781.353 570.74 784.69 570.962C796.48 571.747 808.659 571.776 820.455 571.412C813.529 582.912 810.752 585.784 798.803 591.026C796.088 589.129 791.68 584.927 789.093 582.568C784.999 577.845 779.385 575.029 774.795 570.488Z" fill="#D2DCBF"/>
<path d="M376.726 616.359C392.515 622.947 416.616 625.752 433.182 619.5C450.007 613.151 452.866 600.049 458.489 584.338C459.725 580.887 460.646 576.691 462.123 573.395L464.036 574.464C465.883 578.959 467.901 590.724 469.027 596.066C472.48 612.638 475.639 629.363 478.312 646.079C481.87 668.328 486.639 690.526 489.47 712.867C490.49 720.924 493.982 737.462 492.108 744.909C491.133 746.026 490.127 746.379 488.691 746.526C485.86 746.816 361.694 727.082 360.635 726.609C362.608 724.382 387.745 731.655 391.413 729.925C391.538 728 391.221 728.6 392.16 727.171L393.935 727.221C399.299 723.476 396.149 711.989 396.172 706.472C396.193 701.515 398.307 696.598 398.3 691.631C398.292 686.098 396.918 680.559 397.247 675.02C397.283 667.266 400.993 660.45 402.022 653.012C402.437 650.014 401.989 646.37 402.373 643.355C402.998 638.44 403.595 633.464 404.05 628.533C404.145 627.506 408.939 626.257 410.207 624.602C410.131 624.286 410.055 623.971 409.979 623.655C399.212 622.666 386.73 622.086 377.113 616.793C376.984 616.648 376.855 616.504 376.726 616.359Z" fill="#FCE0AB"/>
<path d="M519.211 586.282C511.873 587.663 508.836 580.441 513.672 574.93C520.563 574.21 523.496 580.641 519.211 586.282ZM514.464 577.13C513.999 578.936 513.534 579.982 513.979 581.786C515.422 583.523 515.662 583.513 518.229 583.937C519.055 580.325 518.902 577.767 514.464 577.13Z" fill="black"/>
<path d="M776.811 574.711C781.566 578.89 785.815 583.208 790.293 587.677C791.839 589.353 793.142 590.708 794.796 592.275C792.453 594.294 791.828 594.169 789.069 595.22L788.309 594.851C788.617 594.425 788.924 593.999 789.232 593.573C789.391 593.224 789.551 592.875 789.71 592.526C786.688 588.106 782.236 584.357 779.072 580.15C778.19 578.976 777.206 575.898 776.811 574.711Z" fill="#D2DCBF"/>
<path d="M518.231 583.94C515.664 583.516 515.424 583.526 513.981 581.789C513.536 579.985 514.001 578.939 514.466 577.133C518.904 577.77 519.057 580.328 518.231 583.94Z" fill="#FBF8F1"/>
<path d="M790.293 587.677C789.953 585.682 789.528 584.493 789.092 582.57C791.679 584.929 796.087 589.131 798.802 591.028L801.22 593.352C799.059 594.138 798.521 594.456 796.281 594.552C795.927 593.25 795.762 593.275 794.796 592.275C793.142 590.708 791.839 589.353 790.293 587.677Z" fill="#677766"/>
<path d="M731.34 585.133C748.705 588.309 758.65 589.271 775.926 591.391C774.486 592.497 773.853 592.552 773.448 593.943C769.32 594.08 756.166 592.555 751.282 592.126C747.156 591.722 740.677 590.431 736.414 589.725L732.185 589.319L731.34 585.133Z" fill="#05EA89"/>
<path d="M890.343 585.09L891.142 585.164C914.733 588.552 949.649 611.198 963.303 630.703C1016.01 706.39 943.779 798.121 883.07 842.924C819.573 889.784 744.985 910.975 666.468 898.896C639.089 894.684 619.368 886.268 593.469 877.082C529.497 854.39 462.557 840.754 394.427 845.777C326.676 849.335 243.171 869.115 183.724 826.924C164.997 813.603 152.258 797.114 147.801 774.559C196.829 787.595 243.515 792.638 294.04 788.247C333.8 784.792 371.349 779.628 411.516 782.958C447.043 786.243 486.64 790.204 521.268 798.826C607.575 820.612 695.129 839.872 784.856 831.074C822.389 827.393 958.753 811.271 937.854 748.021C930.85 726.822 878.48 707.256 857.263 698.754C858.557 690.687 860.392 680.731 860.634 672.679C861.596 672.194 863.713 671.176 864.324 670.372C867.069 666.756 865.652 657.869 865.43 653.042L860.84 651.363C859.311 648.184 857.053 637.836 855.568 636.865C843.099 628.707 806.093 629.102 793.914 629.41C794.194 628.467 794.396 628.161 794.827 627.27C796.575 625.935 799.336 626.286 801.605 625.973C834.06 621.506 864.764 640.875 897.136 630.802C905.111 628.32 910.183 625.836 914.433 618.224C915.054 602.481 900.932 594.499 890.343 585.09Z" fill="url(#paint1_linear_2293_77703)"/>
<path d="M886.596 588.535C892.402 592.215 916.986 611.503 908.552 619.857C895.443 632.844 866.984 628.884 850.609 625.617C860.117 619.109 868.506 613.735 876.536 605.286C876.536 605.286 878.488 604.954 878.695 604.919L878.214 602.411C877.768 599.457 884.574 591.166 886.596 588.535Z" fill="#FDE4CF"/>
<path d="M796.281 594.551C798.521 594.455 799.059 594.137 801.22 593.351L802.326 593.508L810.762 600.848C814.928 594.975 816.779 592.226 821.876 587.305C818.501 592.903 816.978 597.18 814.205 602.021C816.266 604.07 817.551 605.432 819.958 607.132L817.304 608.362C814.394 604.923 811.926 603.55 808.532 606.698L807.757 606.229C811.342 599.87 797.8 597.879 795.984 594.876L796.281 594.551Z" fill="#835A5B"/>
<path d="M732.186 589.316L736.415 589.722C737.043 593.361 737.138 593.516 740.105 595.883C745.049 599.827 764.202 601.963 769.678 600.795L773.614 602.478C757.904 606.344 751.017 606.114 735.118 605.88C734.218 600.205 733.311 594.953 732.186 589.316Z" fill="#D2DCBF"/>
<path d="M736.414 589.723C740.677 590.429 747.156 591.72 751.282 592.124C753.548 595.826 765.298 598.843 769.677 600.796C764.201 601.964 745.048 599.828 740.104 595.884C737.137 593.517 737.042 593.362 736.414 589.723Z" fill="#FDE4CF"/>
<path d="M775.925 591.391L784.98 591.859C786.545 592.465 786.915 592.268 787.549 593.394C786.509 594.179 785.65 594.081 784.332 594.175C780.931 594.23 776.897 594.03 773.447 593.943C773.852 592.552 774.485 592.497 775.925 591.391Z" fill="#31CC7A"/>
<path d="M751.281 592.125C756.165 592.554 769.319 594.079 773.447 593.942C776.897 594.029 780.931 594.229 784.332 594.174C785.783 594.283 787 594.244 788.308 594.851L789.068 595.22C787.363 596.159 785.517 597.233 783.761 598.04C780.28 599.661 777.185 601.089 773.612 602.48L769.676 600.797C765.297 598.844 753.547 595.827 751.281 592.125Z" fill="#D2DCBF"/>
<path d="M794.796 592.273C795.762 593.273 795.927 593.248 796.281 594.55L795.984 594.875C794.059 595.094 794.03 595.313 792.522 596.483C788.548 598.095 785.192 600.583 781.459 601.825C783.097 599.603 784.753 600.1 785.817 598.545L783.762 598.038C785.518 597.231 787.364 596.157 789.069 595.218C791.828 594.167 792.453 594.292 794.796 592.273Z" fill="#24B467"/>
<path d="M861.021 595.698C859.452 596.234 858.49 596.143 858.043 597.946C849.07 596.644 839.25 595.245 831.133 600.822C825.866 604.442 824.86 609.26 817.391 609.759C817.176 609.207 817.279 609.029 817.304 608.361L819.958 607.131C836.454 593.385 839.513 592.059 861.021 595.698Z" fill="#31CC7A"/>
<path d="M792.521 596.487C794.029 595.317 794.059 595.098 795.984 594.879C797.8 597.882 811.342 599.873 807.757 606.232L806.937 605.45C803.926 602.915 796.413 599.003 792.521 596.487Z" fill="#31CC7A"/>
<path d="M858.043 597.947C858.49 596.144 859.452 596.235 861.021 595.699C870.401 598.219 870.697 599.409 878.215 602.411L878.696 604.919C872.709 604.036 865.27 599.578 858.043 597.947Z" fill="#05EA89"/>
<path d="M781.459 601.826C785.192 600.584 788.548 598.096 792.522 596.484C796.414 599 803.926 602.912 806.937 605.447C804.864 608.163 796.433 609.995 790.924 615.945C789.074 612.696 782.214 602.704 777.943 607.217C775.932 607.311 774.556 606.31 772.727 605.494C775.102 604.686 779.444 603.174 781.459 601.826Z" fill="#D2DCBF"/>
<path d="M817.39 609.763C824.859 609.264 825.865 604.446 831.132 600.826C839.249 595.249 849.069 596.648 858.042 597.95C865.269 599.581 872.708 604.039 878.695 604.922C878.488 604.957 876.536 605.289 876.536 605.289C868.506 613.738 860.117 619.112 850.609 625.62C833.895 623.787 810.613 617.682 794.325 623.046L791.982 617.639C798.967 613.574 802.897 610.839 810.692 608.936C813.392 610.239 814.38 610.189 817.39 609.763Z" fill="#FBF8CC"/>
<path d="M773.613 602.479C777.186 601.088 780.281 599.66 783.762 598.039L785.817 598.546C784.753 600.101 783.097 599.604 781.459 601.826C779.444 603.174 775.102 604.686 772.727 605.494C757.346 608.905 751.129 608.832 735.39 608.517L735.117 605.881C751.016 606.115 757.903 606.345 773.613 602.479Z" fill="#31CC7A"/>
<path d="M196.738 605.531C199.821 605.076 207.443 603.532 209.824 604.795L210.218 606.347C207.288 606.36 202.634 606.255 199.925 606.844C198.257 606.765 198.119 606.476 196.738 605.531Z" fill="#CFBAF0"/>
<path d="M808.531 606.699C811.925 603.551 814.393 604.924 817.303 608.363C817.278 609.031 817.175 609.209 817.39 609.761C814.38 610.187 813.392 610.238 810.692 608.935L808.531 606.699Z" fill="#05EA89"/>
<path d="M806.937 605.449L807.757 606.231L808.532 606.7L810.693 608.935C802.898 610.838 798.968 613.573 791.983 617.638L794.326 623.045C794.071 625.058 793.714 627.35 793.603 629.348L791.966 629.571C790.952 620.727 786.866 610.614 777.943 607.219C782.214 602.706 789.074 612.698 790.924 615.947C796.433 609.997 804.864 608.165 806.937 605.449Z" fill="#B9FBC0"/>
<path d="M249.309 632.216C232.918 633.561 207.293 632.221 191.831 626.847C189.769 626.13 185.021 606.64 196.738 605.531C198.119 606.476 198.257 606.765 199.925 606.844C203.863 607.709 206.49 608.351 210.508 608.538C220.922 609.066 233.427 608.968 243.819 607.882C245.774 615.026 247.618 624.758 249.309 632.216Z" fill="#F1C0E8"/>
<path d="M735.391 608.519C751.13 608.834 757.347 608.907 772.728 605.496C774.557 606.312 775.933 607.313 777.944 607.219C786.867 610.614 790.953 620.727 791.967 629.571C787.578 631.251 779.724 632.236 774.818 633.49L773.571 639.612C766.325 639.504 760.184 637.824 753.614 637.673C748.052 636.659 742.233 635.205 736.474 634.136C736.544 625.187 736.128 617.413 735.391 608.519Z" fill="#FBF8CC"/>
<path d="M199.926 606.845C202.635 606.256 207.289 606.361 210.219 606.348L210.509 608.539C206.491 608.352 203.864 607.71 199.926 606.845Z" fill="black"/>
<path d="M259.746 705.77C258.483 706.678 256.806 707.625 254.818 707.748C245.921 708.902 210.229 710.275 204.678 704.643C199.362 699.25 194.695 637.677 193.945 630.445C208.306 634.517 234.841 635.197 249.991 634.731C253.822 654.983 259.186 677.574 263.808 697.658C262.658 701.472 261.995 702.672 259.746 705.77Z" fill="#F1C0E8"/>
<path d="M780.447 634.914C788.168 633.094 792.608 632.339 800.384 631.71C815.669 630.098 838.664 633.764 853.427 637.52C846.783 640.164 840.204 641.25 833.096 641.599C819.752 643.251 792.097 641.991 780.447 634.914Z" fill="#FFEDE1"/>
<path d="M851.63 657.73C828.076 666.068 805.254 665.236 780.993 659.303C776.955 658.315 772.865 657.002 770.729 653.314C772.829 650.293 773.267 651.041 774.174 646.91C775.03 643.01 775.923 639.069 776.742 635.156C778.251 636.01 784.109 639.523 785.537 639.994C801.389 645.233 822.725 645.85 839.035 643.665C844.976 642.869 849.83 641.27 854.919 639.099C856.241 645.058 856.972 648.091 859.583 653.569C856.184 655.806 855.367 656.238 851.63 657.73Z" fill="#FFEDE1"/>
<path d="M736.527 635.758C742.142 637.219 747.803 638.27 753.588 639.808C760.351 641.197 765.955 642.413 772.912 642.657C770.705 649.853 771.523 648.118 765.822 652.071C763.294 653.824 763.846 664.085 763.871 667.437C751.77 664.241 741.464 661.885 729.15 659.896C735.805 651.415 735.611 646.056 736.527 635.758Z" fill="#FCE0AB"/>
<path d="M753.613 637.672C760.183 637.823 766.324 639.503 773.57 639.611L772.912 642.657C765.955 642.413 760.351 641.197 753.588 639.808L753.613 637.672Z" fill="#24B467"/>
<path d="M487.874 685.635C485.275 676.44 482.02 656.88 481.283 647.336C493.251 647.866 517.671 651.161 529.632 653.079C527.062 654.425 524.266 655.264 521.513 656.227C515.443 658.352 512.442 660.316 507.311 664.082C498.798 670.842 494.4 677.111 487.874 685.635Z" fill="#FCE0AB"/>
<path d="M601.256 655.365C604.684 653.703 617.603 654.408 622.02 653.975C650.447 651.188 678.599 651.427 706.88 655.628C711.153 656.263 723.127 657.319 726.368 659.344C693.327 685.117 656.973 693.166 616.586 698.066C622.115 681.16 614.311 666.136 601.256 655.365Z" fill="#FCE0AB"/>
<path d="M766.052 667.506C765.301 661.933 765.465 657.716 767.117 652.355C767.684 653.083 768.4 655.157 769.185 655.704C789.701 669.987 845.679 670.054 863.234 653.549C863.651 658.271 863.611 663.199 863.379 667.93C860.947 669.663 857.501 671.509 854.66 672.482C826.655 682.067 792.648 679.637 766.052 667.506Z" fill="#FFEDE1"/>
<path d="M574.799 657.597C578.381 656.157 581.77 654.869 585.404 653.563C592.452 653.369 597.846 655.477 603.432 660.885C612.306 669.477 622.075 688.36 612.627 699.593C610.534 702.082 606.082 701.782 602.875 701.753C600.879 701.634 597.384 701.559 595.945 700.22C601.134 691.512 603.311 684.802 598.479 674.843C593.507 664.599 584.895 661.101 574.799 657.597Z" fill="#FCE0AB"/>
<path d="M493.52 699.344C504.736 682.053 514.725 664.479 533.057 653.944C534.861 653.901 538.385 654.068 540.349 654.342C558.218 656.832 586.1 657.894 596.053 675.401C598.845 680.31 599.149 687.32 597.473 692.44C595.383 698.823 590.264 701.134 584.733 703.824C579.833 696.881 574.634 693.957 565.815 694.601C556.712 695.267 547.572 696.026 538.983 699.346C534.94 700.91 526.724 708.238 522.735 706.763C521.19 705.105 521.488 705.998 521.196 704.182C521.501 703.685 521.883 703.022 522.287 702.576C533.367 690.363 538.132 683.189 555.725 681.206C557.151 681.045 557.418 681.084 558.783 680.648L558.975 679.735L558.243 678.84C552.989 677.914 541.857 682.155 537.014 684.495C530.219 688.798 526.102 695.189 520.303 700.592C517.928 702.805 510.522 709.59 507.612 706.497C506.135 697.172 525.822 675.716 533.973 671.167C537.31 669.304 541.051 668.468 543.712 666.657L543.63 665.915L542.561 665.201C539.952 665.016 537.525 666.353 535.254 667.311C519.375 674.014 513.414 690.785 502.405 702.31C498.759 706.128 495.739 703.377 493.52 699.344Z" fill="#FCE0AB"/>
<path d="M489.664 697.159C489.394 694.303 489.06 691.283 488.861 688.438C498.814 674.892 505.344 665.858 521.373 658.562C511.908 668.448 497.605 685.726 491.314 698.027L489.664 697.159Z" fill="#FCE0AB"/>
<path d="M85.0703 694.57C114.907 676.256 160.231 664.951 194.765 660.938C195.849 672.101 196.886 697.318 202.11 706.12C205.682 708.279 206.345 708.488 210.443 709.849C209.11 710.559 207.147 709.615 205.684 709.096C184.884 725.427 156.686 737.985 151.428 768.935C151.149 770.58 151.239 771.008 151.937 772.25C156.868 774.357 165.086 775.688 170.441 776.956C191.217 781.873 212.43 784.952 233.77 785.771C237.953 785.932 242.402 785.863 246.537 786.294C243.976 786.307 240.279 786.197 237.83 786.552C233.738 786.793 224.88 786.118 220.722 785.789C192.839 783.582 165.551 777.433 138.847 769.288C138.091 763.753 114.996 729.502 109.731 724.177C101.143 715.492 92.922 703.64 85.0703 694.57Z" fill="#F8DDFC"/>
<path d="M763.427 672.251C749.346 673.814 719.887 678.435 711.281 690.747C697.924 709.856 767.697 713.73 775.815 710.952C777.757 723.254 779.17 735.012 780.894 747.291C798.404 761.183 832.848 761.83 849.889 746.987C853.332 733.749 854.008 715.154 857.068 701.218C879.719 709.944 925.476 726.275 935.813 748.933C947.371 774.266 921.721 793.176 900.964 801.821C817.32 836.732 718.996 835.987 630.946 821.114C593.855 814.848 557.379 803.763 520.428 796.196C462.741 784.384 402.4 775.93 343.472 781.085C314.608 783.61 286.301 787.75 257.231 787.124C251.926 787.04 242.844 787.282 237.83 786.555C240.279 786.2 243.976 786.31 246.537 786.297C242.402 785.866 237.953 785.935 233.77 785.774C212.43 784.955 191.217 781.875 170.441 776.958C165.086 775.69 156.868 774.359 151.937 772.252C151.239 771.01 151.149 770.582 151.428 768.937C156.686 737.987 184.884 725.43 205.684 709.099C207.147 709.618 209.11 710.561 210.443 709.851C225.35 711.268 240.456 711.906 255.513 709.844C261.19 709.067 262.138 706.795 264.941 702.418C267.34 714.043 269.685 714.676 280.645 716.521C347.586 727.789 414.854 736.989 481.783 748.409C483.485 748.699 488.27 749.324 489.883 748.952C514.623 743.243 536.756 729.897 558.969 718.136C569.863 712.453 581.834 708.126 592.865 702.369C609.343 707.681 608.228 701.452 620.358 700.031C660.302 695.354 694.202 685.736 727.147 662.059C732.444 662.511 761.254 667.541 763.802 670.27L763.427 672.251ZM662.441 737.192C660.636 737.384 656.031 737.746 654.643 738.91C638.77 752.225 621.679 764.736 606.543 778.824C604.813 781.094 604.344 785.115 604.808 787.775C606.294 796.286 617.211 801.216 624.429 803.279C635.433 806.425 645.857 807.363 656.998 809.142C660.027 809.626 663.507 810.325 666.461 809.748C667.931 808.969 669.79 807.932 671.011 806.797C686.084 792.793 701.805 779.497 716.909 765.532C723.361 759.567 727.376 758.376 721.393 749.827L721.081 749.388C707.829 743.169 677.331 736.962 662.441 737.192Z" fill="#FDE4CF"/>
<path d="M775.815 710.951C767.697 713.729 697.923 709.855 711.28 690.746C719.886 678.434 749.345 673.813 763.426 672.25C765.748 671.724 769.678 671.221 770.405 674.455C771.306 678.462 771.788 682.711 772.371 686.785L775.815 710.951Z" fill="#FFEDE1"/>
<path d="M783.403 746.121C782.164 740.768 781.124 730.711 780.181 724.631L772.262 672.871C800.512 681.97 830.147 683.244 858.464 673.527C857.666 683.205 856.03 692.326 854.605 701.898C852.692 714.753 850.985 727.624 848.895 740.455C848.556 742.869 848.411 744.401 846.759 746.269C841.523 752.192 828.764 754.807 821.165 755.187C808.444 755.823 793.366 754.833 783.403 746.121Z" fill="#FFEDE1"/>
<path d="M138.848 769.287C117.036 762.44 83.6971 750.638 68.615 732.568C56.3927 717.925 73.2127 702.416 85.0714 694.57C92.9231 703.64 101.144 715.491 109.732 724.176C114.997 729.501 138.092 763.752 138.848 769.287Z" fill="#FFEDE1"/>
<path d="M489.664 697.156L491.314 698.025L491.761 701.244C493.491 703.509 493.991 704.408 494.986 707.079C498.569 707.434 502.127 705.386 504.584 706.049C506.027 707.87 506.656 708.652 508.368 710.2C503.468 713.581 501.991 713.561 495.886 713.519C493.913 712.727 493.453 711.95 491.956 710.335C491.477 708.17 491.112 705.992 490.722 703.809L489.664 697.156Z" fill="#FDE4CF"/>
<path d="M510.201 710.036C513.581 709.193 515.582 707.751 518.537 705.998C519.895 707.865 520.306 708.825 522.31 709.756C528.163 710.479 535.727 703.275 541.348 701.228C549.96 698.092 565.083 696.466 573.963 697.723C555.487 705.017 539.926 712.411 521.995 720.973C515.385 724.128 501.423 731.06 494.962 732.978C494.407 729.289 491.79 712.994 491.957 710.335C493.454 711.95 493.914 712.727 495.887 713.519C501.611 716.722 505.496 712.776 510.201 710.036Z" fill="#FCE0AB"/>
<path d="M495.379 735.92C521.478 725.971 548.752 710.494 576.13 699.465L577.482 699.595C579.527 700.959 580.325 702.577 581.693 704.646C574.039 708.165 562.293 713.274 555.135 717.2C536.578 727.378 521.163 735.741 501.042 743.025L495.424 744.816C495.491 741.934 495.408 738.824 495.379 735.92Z" fill="#FCE0AB"/>
<path d="M508.369 710.203L510.201 710.039C505.496 712.779 501.611 716.725 495.887 713.522C501.992 713.564 503.469 713.584 508.369 710.203Z" fill="#C0A273"/>
<path d="M666.461 809.746C663.507 810.323 660.028 809.624 656.999 809.14C645.858 807.361 635.434 806.423 624.43 803.277C617.212 801.214 606.295 796.284 604.809 787.773C604.345 785.113 604.814 781.092 606.544 778.822C621.68 764.734 638.771 752.223 654.644 738.908C656.032 737.744 660.637 737.382 662.442 737.19C677.332 736.96 707.829 743.167 721.081 749.386L721.394 749.825C727.377 758.374 723.362 759.565 716.91 765.53C701.806 779.495 686.085 792.791 671.012 806.795C669.791 807.93 667.931 808.967 666.461 809.746ZM659.184 739.556C654.342 741.054 641.918 751.683 637.771 755.527C630.422 762.338 613.29 773.497 608.608 781.045C607.853 791.97 658.567 798.016 666.539 797.117C673.411 793.788 713.822 757.455 718.63 751.022C704.606 744.667 674.396 738.3 659.184 739.556ZM720.23 752.465C709.987 763.487 698.114 773.238 686.89 783.297C681.824 787.837 670.547 799.883 663.631 799.298C648.534 798.021 632.09 796.277 617.656 791.466C614.385 790.37 608.809 786.318 606.856 786.36C606.771 788.301 608.709 791.557 609.817 793.119C619.487 802.847 638.115 803.832 651.169 805.986C654.001 806.453 663.075 807.896 665.423 807.977C672.579 804.167 680.648 794.679 687.26 789.218C695.645 782.291 703.769 774.353 711.947 767.129C714.566 764.699 720.073 759.99 721.942 757.353C722.196 755.399 721.319 754.092 720.23 752.465Z" fill="black"/>
<path d="M666.537 797.115C658.565 798.014 607.851 791.968 608.606 781.043C613.288 773.495 630.42 762.336 637.769 755.525C641.916 751.681 654.34 741.052 659.182 739.554C674.394 738.298 704.604 744.665 718.628 751.02C713.82 757.453 673.409 793.786 666.537 797.115Z" fill="#FDE4CF"/>
<path d="M609.815 793.119C608.707 791.557 606.769 788.301 606.854 786.36C608.807 786.318 614.383 790.37 617.654 791.466C632.088 796.277 648.532 798.021 663.629 799.298C670.545 799.883 681.822 787.837 686.888 783.297C698.112 773.238 709.985 763.487 720.228 752.465C721.317 754.092 722.194 755.399 721.94 757.353C720.071 759.99 714.564 764.699 711.945 767.129C703.767 774.353 695.643 782.291 687.258 789.218C680.646 794.679 672.577 804.167 665.421 807.977C663.073 807.896 653.999 806.453 651.167 805.986C638.113 803.832 619.485 802.847 609.815 793.119Z" fill="#FDE4CF"/>
<defs>
<linearGradient id="paint0_linear_2293_77703" x1="445.929" y1="609.34" x2="334.924" y2="534.03" gradientUnits="userSpaceOnUse">
<stop stop-color="#DCE6B5"/>
<stop offset="1" stop-color="#BDE6F1"/>
</linearGradient>
<linearGradient id="paint1_linear_2293_77703" x1="679.971" y1="949.82" x2="500.96" y2="597.282" gradientUnits="userSpaceOnUse">
<stop stop-color="#FFDDA3"/>
<stop offset="1" stop-color="#FBCDE9"/>
</linearGradient>
</defs>
</svg>
