<svg width="1024" height="1024" viewBox="0 0 1024 1024" fill="none" xmlns="http://www.w3.org/2000/svg">
<path d="M534.977 163.367C542.211 151.875 547.881 147.902 561.287 144.908C574.371 145.082 584.148 149.097 593.322 158.704C602.351 168.159 611.614 184.994 615.99 197.216C622.149 191.573 628.978 189.254 637.294 189.642C648.026 190.042 658.138 194.773 665.323 202.754C668.992 206.821 671.719 211.373 673.86 216.404C678.043 229.14 677.979 237.781 677.356 251.113C684.711 247.809 691.071 247.81 698.135 252.043C710.36 260.247 716.839 271.802 719.332 286.259C723.906 312.784 724.069 340.194 718.549 366.586C714.921 386.008 708.175 404.802 704.297 424.133C703.005 430.57 704.221 439.54 704.26 446.252C704.41 472.105 698.907 497.704 693.454 522.888C686.432 555.137 677.808 587.016 667.613 618.406C662.694 637.145 657.658 661.834 656.228 681.057C654.485 704.484 657.539 730.676 656.419 753.962C654.544 792.962 641.597 834.509 618.085 865.721C614.733 869.72 611.553 873.548 607.976 877.361C588.065 896.618 569.331 905.836 542.742 913.085C504.877 923.407 477.87 910.758 444.722 895.205C411.942 874.407 405.241 861.03 389.394 827.027C384.203 813.013 378.349 793.587 377.236 778.853C376.315 766.666 378.577 751.286 379.802 738.904C380.963 726.607 381.513 714.26 381.449 701.909C380.599 641.001 366.805 591.932 343.493 536.448C338.932 525.453 334.184 514.537 329.251 503.703L326.891 498.425C324.649 493.763 322.505 488.706 320.395 483.956C317.28 476.454 313.643 466.392 312.486 458.455C307.545 424.575 318.642 390.718 314.082 356.481C311.1 334.093 303.318 318.608 296.981 297.397C291.507 279.075 290.553 264.562 289.515 245.643C289.406 212.954 291.721 196.325 309.7 166.245C332.331 128.382 367.832 116.582 407.519 137.023C424.682 145.862 434.5 167.657 438.619 186.425C441.249 168.726 443.769 153.316 454.679 138.272C472.977 113.043 512.821 124.831 529.074 146.232C533.259 151.743 534.105 156.735 534.977 163.367ZM556.117 149.657C543.248 153.979 536.878 166.667 536.137 179.507C536.272 181.272 536.191 181.65 537.152 183.175C532.213 192.733 534.263 201.909 532.861 212.17C529.73 235.068 526.931 257.346 525.929 280.467C525.318 294.566 524.506 305.249 526.619 319.545L527.279 320.327C527.963 320.147 528.792 319.949 529.471 319.736L530.463 319.602C535.874 314.003 542.862 317.225 544.329 315.055C543.011 315.072 541.766 315.021 540.451 314.98C553.558 312.052 570.361 320.735 582.617 325.518C587.011 305.854 593.214 286.896 597.09 266.851C600.165 250.948 602.669 233.76 606.422 218.179C607.524 216.811 607.911 215.596 608.588 213.984C610.519 208.649 612.47 205.019 610.783 199.301C604.527 178.091 582.759 143.08 556.117 149.657ZM530.896 172.437C531.564 162.616 529.909 154.801 523.251 146.91C510.149 131.45 479.715 121.366 462.985 136.45C447.443 150.462 442.965 180.062 441.486 200.07C440.272 216.49 446.748 237.106 449.214 253.799C453.412 282.212 456.11 310.195 465.401 337.627C466.762 341.615 467.775 346.216 469.077 350.342C490.552 349.024 503.525 354.073 523.575 360.329C543.165 366.442 562.573 371.875 580.652 382.032C594.78 390.05 608.694 401.468 623.13 409.673C636.787 417.435 653.932 423.055 665.767 433.092C673.975 440.053 677.898 450.054 681.165 459.99C694.196 517.978 654.613 559.407 646.163 612.095C644.365 620.95 643.058 630.094 641.602 639.023C634.841 680.476 638.273 720.307 629.929 761.867C622.896 796.895 618.253 823.924 596.341 853.731C577.476 877.45 554.942 892.953 524.359 896.502C504.078 898.855 482.71 893 468.326 878.277C463.261 872.145 461.614 868.117 458.825 860.661C440.388 860.136 430.072 843.375 420.89 829.63C398.11 791.596 391.212 764.086 396.399 719.459C397.759 706.637 400.678 693.102 401.25 680.279C403.05 639.912 397.183 599.56 381.369 562.245C377.241 552.505 373.732 542.489 368.27 533.212C361.537 521.999 355.864 512.145 349.914 500.498C347.437 495.118 342.375 485.106 341.391 479.629C337.009 464.632 333.408 451.005 331.245 435.508C327.959 411.975 327.249 393.724 344.128 375.451C334.106 369.239 328.47 365.094 323.398 354.19C319.393 366.618 319.012 392.716 317.822 406.444C316.734 418.994 314.901 436.097 315.669 448.396C316.322 458.848 320.756 473.063 324.788 482.845C327.524 489.009 330.249 495.07 332.733 501.343C337.788 513.059 343.322 524.634 348.169 536.403C354.041 550.975 361.045 566.22 366.012 580.964C382.855 630.966 390.001 685.276 384.787 737.874C383.526 750.596 381.579 763.568 382.059 776.352C382.861 791.486 389.414 814.058 395.023 828.453C405.668 855.585 421.853 877.865 448.382 891.423C468.199 902.706 501.318 914.717 523.68 911.811C558.848 907.24 590.639 891.698 613.422 864.641C636.31 836.494 650.479 790.593 651.482 754.578C652.183 729.414 649.828 704.751 651.53 679.443C653.015 657.378 657.781 638.615 663.266 617.358C667.349 603.106 672.12 588.986 676.035 574.657C681.818 552.675 686.968 530.531 691.481 508.254C694.978 491.265 698.585 474.696 699.09 457.262C701.502 441.247 698.288 419.78 692.29 404.893C686.929 410.882 680.434 416.95 672.271 417.409C654.434 418.41 646.219 402.171 648.135 386.517C648.609 382.651 649.535 378.13 649.28 374.537C648.117 374.171 643.472 375.618 641.785 376.012C635.982 374.406 638.825 363.358 639.822 359.082C638.176 358.168 636.403 357.019 634.782 356.023C629.868 366.731 624.37 381.143 609.538 378.49C600.762 376.921 592.77 369.594 590.751 360.772C590.156 358.173 589.869 354.739 589.466 352.019C583.289 345.783 588.085 332.149 587.008 329.959C584.337 329.174 582.734 336.026 582.251 338.148C578.68 353.841 564.015 358.504 550.004 353.68C540.15 350.287 534.671 341.814 532.065 332.185C531.272 329.167 531.2 325.22 529.91 322.524L529.123 322.389C528.525 324.69 528.783 323.926 526.925 325.813L526.026 325.531C523.993 322.336 523.398 313.878 522.899 309.777C522.946 306.667 523.3 294.555 522.559 292.154C522.167 295.044 521.95 298.143 521.689 301.061C519.891 317.8 513.471 330.716 495.582 334.496C463.748 341.222 464.733 301.253 460.092 280.839C457.745 270.513 454.869 260.039 452.787 249.626C453.7 249.569 453.321 249.433 453.959 249.928C454.985 252.571 454.998 254.518 455.777 257.141C456.974 261.775 461.355 282.889 462.917 285.486C463.362 286.049 463.678 286.57 464.223 286.965C462.798 288.735 464.85 298.023 465.405 300.484C482.484 300.116 491.437 299.271 507.556 306.373C511.018 308.442 513.705 310.074 516.959 312.429C521.036 292.535 521.676 274.566 523.511 254.503C524.707 241.434 526.528 227.855 527.967 214.727C528.763 205.545 529.938 196.4 531.489 187.315C529.785 183.211 529.436 179.921 528.865 175.562C529.987 174.414 530.63 174.006 530.896 172.437ZM615.322 212.333C614.744 214.479 614.333 214.592 614.849 216.387L616.125 217.487C613.007 223.757 610.879 228.576 609.196 235.432C607.937 239.374 606.748 244.332 606.336 248.445C604.431 258.631 602.399 268.794 600.24 278.929C596.286 296.882 592.85 310.194 590.389 328.536C611.257 336.479 615.516 341.565 633.602 351.572C641.02 335.78 648.551 320.185 654.952 303.944C660.385 290.157 668.142 274.12 670.042 259.297C675.498 244.812 673.499 222.318 664.539 209.098C653.005 192.083 618.936 185.55 615.322 212.333ZM439.605 220.403C438.208 211.491 438.212 204.311 437.251 195.537C436.649 190.037 433.598 181.984 431.649 176.696C426.282 162.127 422.649 153.067 409.843 143.639C395.177 132.841 377.999 130.488 360.236 133.031C341.463 135.719 327.357 149.117 316.773 164.106C299.826 188.43 291.92 217.917 294.425 247.457C294.649 267.3 298.267 288.082 304.728 306.781C311.285 325.757 317.368 339.888 318.878 360.369C319.635 355.921 320.047 352.985 322.242 348.93C315.212 332.216 316.522 313.388 314.569 295.727C313.365 284.833 311.502 274.002 310.364 263.102C309.979 259.419 309.512 255.19 309.598 251.522L310.646 252.165L311.39 251.703L311.896 252.403L311.974 252.957C312.925 265.784 315.636 278.154 316.945 290.72C319.1 311.402 317.543 326.095 323.836 346.377C334.464 331.431 346.134 323.418 364.824 320.203C375.056 318.442 377.497 318.864 386.53 324.394C386.945 324.648 388.288 322.311 388.434 322.058C395.194 313.428 408.514 305.701 418.312 301.11C428.38 296.394 441.76 291.113 449.786 301.882C453.054 322.616 441.485 341.076 420.082 344.05C414.657 344.809 409.131 344.317 403.926 342.612C396.788 339.603 393.59 337.527 387.895 332.156C374.427 352.84 366.091 357.556 349.136 374.382C358.866 380.777 368.141 386.716 380.105 387.704C394.298 388.875 406.984 383.708 418.103 375.181C436.143 361.376 442.762 354.144 466.205 350.737C462.888 339.555 460.261 326.794 457.127 315.428C455.831 310.727 455.229 305.259 453.687 300.578C453.382 296.586 451.004 283.981 450.085 279.183C448.032 268.457 446.109 252.306 442.757 242.334L443.521 240.991C443.666 237.563 440.871 223.798 439.605 220.403ZM699.102 258.111C692.966 253.513 689.546 253.098 682.128 253.565C676.3 260.355 676.684 265.22 672.149 272.171C670.886 274.065 669.56 275.996 668.355 277.921C670.82 276.013 672.275 274.309 674.528 272.377C677.616 270.513 678.399 269.978 681.859 269.056L682.698 269.333C683.831 269.697 683.986 269.688 685.215 269.671L685.765 270.216C684.791 270.646 684.16 270.817 683.135 271.123L682.979 271.624C670.972 276.222 668.035 283.62 664.198 294.949C662.231 299.464 660.676 304.625 659.133 309.339C653.215 325.547 647.39 340.587 642.928 357.337C662.494 368.016 680.332 379.024 692.98 398.219C704.059 378.992 699.525 341.493 706.769 320.043L708.724 318.021L710.672 318.216C700.353 335.185 707.769 374.086 694.274 400.68C697.595 407.126 698.605 410.64 700.592 417.557C701.44 411.23 707.262 390.73 709.447 383.325C717.945 354.526 719.9 327.898 716.462 298.083C714.767 283.387 711.423 267.757 699.102 258.111ZM610.15 339.475C606.028 337.547 594.313 331.276 590.779 332.425C588.465 335.466 589.479 344.864 589.658 349.151C590.647 346.291 591.572 343.419 592.825 340.665L593.415 340.549C600.832 339.035 600.991 336.203 609.364 340.12L618.02 344.005C614.934 341.719 613.525 340.986 610.15 339.475ZM594.511 346.721C593.722 348.682 592.537 351.249 592.45 353.359C591.809 368.915 610.065 384.264 623.483 371.355C627.55 365.887 629.595 360.644 632.288 354.446C624.627 350.451 605.893 338.868 596.693 342.359C595.437 342.835 594.9 345.383 594.511 346.721ZM419.572 377.467C406.032 387.231 393.357 392.628 376.225 389.96C365.255 388.252 356.224 382.24 346.799 376.573C333.929 391.458 331.667 403.127 333.022 422.874C334.101 438.591 338.922 465.318 345.234 479.802C347.569 486.149 350.379 492.325 353.095 498.521L354.614 501.768C360.009 513.165 366.056 522.348 371.833 533.388C389.966 570.226 401.491 607.911 403.823 649.102C404.511 660.713 404.398 672.357 403.485 683.951C399.589 728.506 389.022 759.28 410.372 804.681C412.825 809.9 420.785 825.99 424 829.691C432.505 843.286 441.27 856.194 458.351 858.163C454.929 846.081 454.504 839.721 456.238 827.323C459.394 806.275 469.17 793.125 471.502 773.59C474.516 748.96 459.434 730.228 446.609 711.043C419.786 670.919 411.823 615.975 439.027 573.825C446.289 562.575 454.569 551.731 461.855 540.223C469.013 529.703 478.222 509.427 482.098 497.247C466.372 492.829 449.95 488.142 434.023 484.712C424.099 482.575 413.247 481.516 403.188 479.456C400.35 478.956 396.447 478.215 393.875 477.029C397.894 477.457 402.361 477.369 405.888 477.807C430.562 480.036 459.296 488.028 483.025 494.807C493.949 456.374 489.71 431.672 479.221 394.465C475.265 380.554 471.184 366.68 466.978 352.843C441.456 357.411 438.961 362.344 419.572 377.467ZM464.528 540.872C456.898 552.408 448.647 563.444 441.159 574.93C414.906 615.2 422.035 668.082 446.97 707.065C460.925 728.814 477.712 748.176 473.661 776.168C471.554 792.559 462.82 807.129 459.187 824.162C458.682 826.798 458.274 829.451 457.963 832.117C457.524 835.964 456.259 859.823 463.828 857.523C486.361 850.675 496.761 826.948 509.142 809.137C511.816 805.29 517.852 800.438 521.312 796.725C522.287 796.09 528.109 790.406 529.322 789.238C542.398 776.643 556.485 762.197 566.698 747.09C586.416 722.288 594.899 686.829 603.348 657.07C591.512 631.308 573.195 597.991 554.519 576.323C551.441 571.891 542.47 562.1 538.545 557.71C521.794 538.983 514.79 527.594 506.22 504.177C499.407 502.798 491.109 500.05 484.423 497.983C479.969 513.09 472.437 527.343 464.528 540.872ZM509.014 504.634C521.1 538.981 537.819 551.259 559.692 578.489C577.938 603.805 591.163 623.202 604.229 652.19C608.195 637.34 614.304 615.512 615.561 600.429C618.83 572.091 612.965 552.294 590.117 533.995C565.733 514.464 537.913 512.979 509.014 504.634ZM618.271 600.398C616.607 613.087 610.283 644.137 605.769 655.93C616.183 683.888 627.557 719.82 627.502 750.075C627.448 753.156 627.444 756.41 627.306 759.472C628.079 756.832 628.599 755.338 628.816 752.549C633.859 725.498 633.384 704.811 634.702 677.862C635.536 660.805 639.867 627.964 643.725 610.743C649.299 585.864 656.164 568.312 666.857 545.4C676.372 523.084 681.536 500.743 681.012 476.771C680.089 434.597 654.491 428.088 622.245 411.652C608.41 404.6 593.813 392.369 580.057 384.4C563.27 374.676 544.37 369.561 526.002 363.819C506.1 357.312 491.023 351.738 469.748 352.567C475.035 372.529 483.122 394.405 486.889 414.412C492.618 444.839 498.194 472.367 508.189 501.922C513.438 503.252 519.676 505.454 524.927 506.374C562.056 512.879 604.462 527.169 616.365 567.273C619.747 578.668 619.131 588.777 618.271 600.398ZM530.162 791.568C524.888 796.402 513.335 807.142 509.505 812.708C496.324 831.864 487.092 855.885 460.946 860.404C473.56 895.645 514.631 900.933 545.827 889.052C566.57 881.151 581.121 870.075 594.448 852.422C629.328 806.012 631.554 742.377 614.313 688.999C611.477 680.219 608.52 669.708 604.469 661.447C591.303 721.365 573.726 749.211 530.162 791.568ZM435.545 298.177C420.864 300.028 394.431 314.732 387.567 328.443C392.79 333.306 396.459 336.576 403.015 339.601C420.668 345.712 439.911 339.098 445.938 320.544C449.287 310.233 450.71 296.564 435.545 298.177ZM472.114 303.208C470.384 303.348 467.784 303.47 466.14 303.708C468.356 312.733 470.66 324.765 479.241 329.908C487.966 335.138 498.208 331.957 506.277 327.156C511.61 322.988 513.955 320.428 516.534 313.896C500.793 305.716 490.646 301.289 472.114 303.208ZM591.324 307.384C589.974 311.322 585.01 324.664 587.167 328.228C588.54 325.978 590.941 310.738 591.324 307.384ZM655.775 308.887C652.841 315.703 639.964 344.079 636.595 353.089C636.465 353.437 637.637 354.302 638.101 354.665L640.03 355.36C640.295 355.216 640.56 355.073 640.825 354.929C645.229 340.776 650.364 326.89 655.022 312.842C655.578 311.166 655.834 310.183 655.775 308.887ZM542.029 317.145C538.327 317.794 536.492 318.287 533.076 320.191C533.569 330.32 535.109 338.942 542.944 346.277C547.901 350.975 554.582 353.411 561.4 353.008C564.874 352.767 567.613 351.916 570.669 350.282C579.517 344.151 579.475 338.072 582.077 327.889C570.477 322.981 554.755 315.573 542.029 317.145ZM367.137 322.668C348.142 325.657 333.866 333.573 325.187 351.205C329.334 361.546 335.999 368.192 346.212 372.855C348.398 372.195 360.417 359.89 362.907 357.627C372.379 349.019 380.037 341.018 386.141 329.653C382.215 322.187 374.834 321.546 367.137 322.668ZM642.485 360.379C641.57 364.537 640.671 367.653 641.697 371.869L642.503 372.753C646.664 372.873 648.088 369.046 651.714 371.543C652.998 374.496 651.141 381.451 650.639 385.023C648.078 403.263 661.225 422.866 681.35 411.622C686.148 408.292 687.447 406.956 690.877 402.215C680.743 386.2 669.624 377.52 653.984 367.557C650.945 365.621 645.555 361.903 642.485 360.379ZM491.673 453.374C491.072 467.896 489.26 481.228 485.141 495.217C490.254 496.885 495.383 498.506 500.526 500.08L505.57 501.301C503.962 495.918 492.476 454.171 491.673 453.374Z" fill="#3F3E43"/>
<path d="M561.287 144.91C565.65 142.113 571.128 137.261 575.288 135.193C611.448 117.215 665.371 123.42 687.541 160.404C696.863 175.956 704.273 194.333 706.48 212.482C698.251 212.839 681.297 213.851 673.86 216.406C671.719 211.375 668.992 206.823 665.323 202.756C658.138 194.775 648.026 190.044 637.294 189.644C628.978 189.256 622.149 191.575 615.99 197.218C611.614 184.996 602.351 168.161 593.322 158.706C584.148 149.099 574.371 145.084 561.287 144.91Z" fill="#FCA2C9"/>
<path d="M530.896 172.437L530.24 171.982C527.585 163.155 525.955 158.991 520.33 151.75C501.167 127.079 468.296 134.071 454.734 160.408C442.845 183.496 444.062 203.94 448.37 228.776C449.366 234.367 450.592 244.463 452.787 249.626C454.869 260.039 457.745 270.513 460.092 280.839C464.733 301.253 463.748 341.222 495.582 334.496C513.471 330.716 519.891 317.8 521.689 301.061C522.999 303.406 522.104 306.705 522.899 309.777C523.398 313.878 523.993 322.336 526.026 325.531L526.925 325.813C528.783 323.926 528.525 324.69 529.123 322.389L529.91 322.524C531.2 325.22 531.272 329.167 532.065 332.185C534.671 341.814 540.15 350.287 550.004 353.68C564.015 358.504 578.68 353.841 582.251 338.148C582.734 336.026 584.337 329.174 587.008 329.959C588.085 332.149 583.289 345.783 589.466 352.019C589.869 354.739 590.156 358.173 590.751 360.772C592.77 369.594 600.762 376.921 609.538 378.49C624.37 381.143 629.868 366.731 634.782 356.023C636.403 357.019 638.176 358.168 639.822 359.082C638.825 363.358 635.982 374.406 641.785 376.012C643.472 375.618 648.117 374.171 649.28 374.537C649.535 378.13 648.609 382.651 648.135 386.517C646.219 402.171 654.434 418.41 672.271 417.409C680.434 416.95 686.929 410.882 692.29 404.893C698.288 419.78 701.502 441.247 699.09 457.262L698.651 454.145C698.409 456.795 698.269 464.495 697.654 466.048C693.402 466.485 685.318 458.956 681.165 459.99C677.898 450.054 673.975 440.053 665.767 433.092C653.932 423.055 636.787 417.435 623.13 409.673C608.694 401.468 594.78 390.05 580.652 382.032C562.573 371.875 543.165 366.442 523.575 360.329C503.525 354.073 490.552 349.024 469.077 350.342C467.775 346.216 466.762 341.615 465.401 337.627C456.11 310.195 453.412 282.212 449.214 253.799C446.748 237.106 440.272 216.49 441.486 200.07C442.965 180.062 447.443 150.462 462.985 136.45C479.715 121.366 510.149 131.45 523.251 146.91C529.909 154.801 531.564 162.616 530.896 172.437Z" fill="url(#paint0_linear_2230_18415)"/>
<path d="M357.887 145.493C343.25 149.745 335.078 158.618 327.832 171.855C318.311 189.247 309.574 223.367 309.358 243.186L309.441 251.089C303.955 249.459 300.055 248.524 294.425 247.456C291.92 217.916 299.826 188.429 316.773 164.105C327.357 149.116 341.463 135.718 360.236 133.03C377.999 130.487 395.177 132.84 409.843 143.638C422.649 153.066 426.282 162.126 431.649 176.695C433.598 181.983 436.649 190.036 437.251 195.536C438.212 204.31 438.208 211.49 439.605 220.402L439.393 220.598C438.714 219.579 434.847 207.989 434.006 205.746C426.271 185.098 415.226 161.787 395.281 150.32C383.925 143.89 370.504 142.158 357.887 145.493Z" fill="#FBFBFA"/>
<path d="M452.788 249.628C450.593 244.465 449.367 234.369 448.371 228.778C444.063 203.942 442.846 183.498 454.735 160.41C468.297 134.073 501.168 127.081 520.331 151.752C525.956 158.993 527.586 163.157 530.241 171.984L530.897 172.439C530.631 174.008 529.988 174.416 528.866 175.564C525.511 155.237 508.247 135.394 486.059 139.094C475.882 140.791 466.819 146.519 460.92 154.984C453.463 165.714 447.33 183.577 448.14 196.865C449.229 214.741 450.316 230.8 455.856 247.925C455.16 248.876 454.946 248.946 454.591 250.004L453.96 249.93C453.322 249.435 453.701 249.571 452.788 249.628Z" fill="url(#paint1_linear_2230_18415)"/>
<path d="M455.856 247.924C450.316 230.799 449.229 214.74 448.14 196.864C447.33 183.576 453.463 165.713 460.92 154.983C466.819 146.518 475.882 140.79 486.059 139.093C508.247 135.393 525.511 155.236 528.866 175.563C529.437 179.922 529.786 183.212 531.49 187.316C529.939 196.401 528.764 205.546 527.968 214.728C522.479 220.483 521.147 290.526 507.557 306.374C491.438 299.272 482.485 300.117 465.406 300.485C464.851 298.024 462.799 288.736 464.224 286.966C465.682 275.543 459.776 258.594 455.856 247.924ZM490.263 150.632C485.269 151.56 480.972 152.35 476.498 154.964C465.716 161.263 459.842 174.694 462.154 186.988C463.482 194.392 467.825 200.913 474.145 204.992C480.633 209.268 487.931 210.764 495.626 210.284C525.17 207.663 534.158 176.585 512.566 157.408C507.386 152.808 497.261 149.545 490.263 150.632Z" fill="#FBFBFA"/>
<path d="M357.889 145.496C370.506 142.161 383.927 143.893 395.283 150.323C415.228 161.79 426.273 185.101 434.008 205.749C434.849 207.992 438.716 219.582 439.395 220.601L439.607 220.405C440.873 223.8 443.668 237.565 443.523 240.993L442.759 242.336C433.458 212.652 424.354 173.924 397.261 154.954C387.21 147.817 374.712 145.019 362.577 147.186L363 146.208C367.799 144.706 374.031 145.788 379.472 145.811C374.971 145.09 371.086 144.568 366.498 144.969C363.419 145.238 360.999 145.915 357.889 145.496Z" fill="url(#paint2_linear_2230_18415)"/>
<path d="M309.359 243.187C309.575 223.368 318.312 189.248 327.833 171.856C335.079 158.619 343.251 149.746 357.888 145.494C360.998 145.913 363.418 145.236 366.497 144.967C371.085 144.566 374.97 145.088 379.471 145.809C374.03 145.786 367.798 144.704 362.999 146.206L362.576 147.184C347.745 151.093 340.561 156.868 332.518 170.193C321.713 188.095 312.776 221.941 311.955 243.035L310.673 243.652L309.359 243.187Z" fill="#23D2BB"/>
<path d="M311.954 243.036C312.775 221.942 321.712 188.096 332.517 170.194C340.56 156.869 347.744 151.094 362.575 147.185C374.71 145.018 387.208 147.816 397.259 154.953C424.352 173.923 433.456 212.651 442.757 242.335C446.109 252.307 448.032 268.458 450.085 279.184C451.004 283.982 453.382 296.587 453.687 300.579L453.239 301.339C453.865 307.315 460.45 329.39 459.217 331.645C454.533 332.54 447.273 333.813 442.637 334.237L442.402 333.73C448.097 325.98 451.139 318.747 451.196 309.003C451.209 306.899 451.345 303.702 450.263 301.951L449.786 301.883C441.76 291.114 428.38 296.395 418.312 301.111C408.514 305.702 395.194 313.429 388.434 322.059C380.996 318.094 373.284 307.417 367.493 300.876C362.593 295.303 357.542 289.865 352.345 284.568C340.205 272.45 326.651 261.837 311.974 252.958L311.896 252.404L311.954 243.036ZM368.25 155.202C360.662 155.719 351.357 158.68 346.502 164.898C331.524 184.079 326.873 217.555 327.59 241.027C328.37 266.593 351.765 273.823 373.526 272.086C375.81 271.894 378.088 271.642 380.359 271.332C407.007 267.33 427.099 254.227 421.082 224.521C415.709 197.993 400.849 155.501 368.25 155.202Z" fill="#FBFBFA"/>
<path d="M556.117 149.658C582.759 143.081 604.528 178.092 610.784 199.302C612.471 205.02 610.52 208.65 608.589 213.985C607.594 199.912 605.397 189.189 596.182 177.895C593.384 174.466 586.056 166.354 582.159 164.782C574.848 160.254 567.151 160.353 558.992 162.274C555.255 163.13 551.717 164.69 548.562 166.87C549.702 157.537 555.452 154.12 556.117 149.658Z" fill="#FFCFD2"/>
<path d="M536.139 179.506C536.88 166.666 543.25 153.978 556.119 149.656C555.454 154.118 549.703 157.535 548.564 166.868C545.78 169.954 539.987 173.964 537.273 178.338C536.943 178.87 536.637 179.074 536.139 179.506Z" fill="#FFEDE1"/>
<path d="M495.626 210.284C487.931 210.764 480.633 209.268 474.145 204.992C467.825 200.913 463.482 194.392 462.154 186.988C459.842 174.694 465.716 161.263 476.498 154.964C480.972 152.35 485.269 151.56 490.263 150.632C497.261 149.545 507.386 152.808 512.566 157.408C534.158 176.585 525.17 207.663 495.626 210.284ZM488.759 153.453C473.704 155.774 463.348 169.814 465.576 184.883C467.804 199.952 481.781 210.395 496.863 208.26C512.077 206.106 522.632 191.98 520.384 176.779C518.136 161.579 503.946 151.112 488.759 153.453Z" fill="#98F5E1"/>
<path d="M496.862 208.259C481.78 210.394 467.803 199.951 465.575 184.882C463.347 169.813 473.703 155.773 488.758 153.452C503.945 151.111 518.135 161.578 520.383 176.778C522.631 191.979 512.076 206.105 496.862 208.259Z" fill="#FBFBFA"/>
<path d="M380.361 271.329C378.09 271.639 375.812 271.891 373.528 272.083C351.767 273.82 328.372 266.59 327.592 241.024C326.875 217.552 331.526 184.076 346.504 164.895C351.359 158.677 360.664 155.716 368.252 155.199C400.851 155.498 415.711 197.99 421.084 224.518C427.101 254.224 407.009 267.327 380.361 271.329ZM365.994 158.1C339.842 163.235 335.867 192.984 332.006 215.038C324.494 257.939 339.636 273.862 382.596 267.788C409.08 262.327 424.105 250.125 417.46 221.492C412.507 200.153 404.016 176.857 385.719 163.043C380.268 159.112 372.63 157.843 365.994 158.1Z" fill="#98F5E1"/>
<path d="M382.595 267.79C339.635 273.864 324.493 257.941 332.005 215.04C335.866 192.986 339.841 163.237 365.993 158.102C372.629 157.845 380.267 159.114 385.718 163.045C404.015 176.859 412.506 200.155 417.459 221.494C424.104 250.127 409.079 262.329 382.595 267.79Z" fill="#FBFBFA"/>
<path d="M570.296 164.346C554.348 164.623 545.916 169.693 537.154 183.177C536.193 181.652 536.274 181.274 536.139 179.509C536.637 179.077 536.943 178.873 537.273 178.341C539.987 173.967 545.78 169.957 548.564 166.871C551.718 164.691 555.257 163.131 558.994 162.275C567.153 160.354 574.849 160.255 582.16 164.783L580.703 165.659C580.107 165.319 579.5 164.997 578.884 164.695C575.056 162.84 567.492 161.919 563.357 163.308C565.845 163.571 567.857 163.91 570.296 164.346Z" fill="#23D2BB"/>
<path d="M570.294 164.345C567.855 163.909 565.843 163.57 563.355 163.307C567.49 161.918 575.054 162.839 578.882 164.694C579.498 164.996 580.105 165.318 580.701 165.658L582.158 164.782C586.055 166.354 593.384 174.466 596.182 177.895C605.397 189.189 607.593 199.912 608.588 213.985C607.911 215.597 607.524 216.812 606.422 218.18C605.414 203.83 604.286 193.688 595.619 181.475C589.048 172.217 581.586 166.337 570.294 164.345Z" fill="url(#paint3_linear_2230_18415)"/>
<path d="M537.154 183.175C545.916 169.691 554.348 164.621 570.296 164.344C581.588 166.336 589.05 172.216 595.621 181.474C604.288 193.687 605.416 203.829 606.424 218.179C602.671 233.76 600.167 250.948 597.092 266.851C593.216 286.896 587.013 305.854 582.619 325.518C570.363 320.735 553.56 312.052 540.453 314.98C537.66 315.214 535.255 316.072 532.589 316.895C530.986 307.242 531.482 292.637 530.6 282.306C531.032 260.949 531.5 245.482 534.523 223.75C535.191 220.146 535.164 216.641 535.26 212.978L535.032 213.032C534.328 217.231 533.904 220.769 533.474 225.012C533.402 227.785 532.914 230.535 532.59 233.29C531.145 245.554 529.246 258.389 529.405 270.746C529.099 273.873 529.077 276.955 529.064 280.08C529.01 292.523 529.029 304.965 530.177 317.365C530.266 318.326 529.98 318.95 529.473 319.736C528.794 319.949 527.965 320.147 527.281 320.327L526.621 319.545C524.508 305.249 525.32 294.566 525.931 280.467C526.933 257.346 529.732 235.068 532.863 212.17C534.265 201.909 532.215 192.733 537.154 183.175ZM564.085 174.117C555.686 176.005 546.695 179.614 542.606 187.535C531.028 209.961 547.097 230.508 571.134 227.321C580.488 224.714 588.505 220.755 593.441 211.813C596.755 205.705 597.476 198.521 595.442 191.876C591.021 177.335 577.595 173.339 564.085 174.117Z" fill="#FDE4CF"/>
<path d="M571.133 227.32C547.096 230.507 531.027 209.96 542.605 187.534C546.694 179.613 555.685 176.004 564.084 174.116C577.594 173.338 591.02 177.334 595.441 191.875C597.475 198.52 596.754 205.704 593.44 211.812C588.504 220.754 580.487 224.713 571.133 227.32ZM564.837 177.637C531.133 182.622 536.051 228.823 571.53 223.469C604.39 214.057 596.815 174.312 564.837 177.637Z" fill="#23D2BB"/>
<path d="M571.531 223.47C536.052 228.824 531.134 182.623 564.838 177.638C596.816 174.313 604.391 214.058 571.531 223.47Z" fill="#FBFBFA"/>
<path d="M819.526 245.646C820.495 246.536 819.938 246.323 821.16 246.374C822.338 244.569 821.819 242.946 822.313 240.308L823.536 239.546C825.147 239.518 825.621 239.544 827.233 239.238C828.324 237.947 828.219 237.951 828.704 236.298C828.212 234.713 828.533 235.458 826.902 234.175L826.876 233.354C828.323 231.304 829.533 230.624 831.547 229.152C831.977 227.656 831.986 228.402 831.362 226.846C829.164 225.244 827.936 226.717 825.774 225.403C826.449 223.746 828.322 224.11 830.484 221.855C831.895 216.769 828.23 217.487 826.376 215.167C826.661 213.588 827.187 212.65 827.848 211.208C827.505 209.105 826.626 208.92 824.668 207.385C824.517 205.489 824.912 204.741 823.506 203.652C822.732 203.86 822.056 204.102 821.326 204.421C819.535 203.14 819.931 201.092 818.886 199.389C816.225 195.053 814.122 199.704 810.952 198.698C811.699 197.291 811.574 197.822 811.795 196.308C810.515 195.875 810.642 196.033 809.191 196.208L808.72 196.268C807.397 195.56 808.004 196.017 807.346 193.916C808.696 193.766 808.943 193.826 810.314 193.962C810.644 194.248 810.978 194.528 811.318 194.801C815.323 197.978 815.543 195.083 819.522 196.491C820.739 197.94 820.349 198.39 820.547 200.747C822.75 203.375 821.108 200.578 823.212 201.416C824.425 201.898 825.213 203.323 825.515 204.602C826.683 209.55 827.632 206.163 829.747 209.61C829.69 215.658 830.075 215.261 834.404 220.118C834.136 220.348 833.871 220.582 833.609 220.818C831.842 222.409 831.717 222.472 831.599 224.472C833.209 226.842 833.539 226.777 833.267 229.336C832.225 231.07 831.541 231.271 829.714 232.378L829.081 232.755C828.676 234.527 829.853 235.861 830.072 238.757C829.18 240.749 829.845 240.03 828.215 241.163C826.933 241.14 826.184 241.145 824.91 241.248L824.256 242.147C823.987 245.589 823.83 247.589 819.732 247.992C817.957 247.324 818.542 247.895 817.712 246.462C818.116 244.818 818.031 244.905 819.291 243.789L819.813 244.194L819.526 245.646Z" fill="#98F5E1"/>
<path d="M650.087 208.67C639.915 202.279 623.209 202.145 615.322 212.334C618.936 185.551 653.005 192.084 664.539 209.099C673.499 222.319 675.498 244.813 670.042 259.298C669.161 260.338 668.996 260.499 668.74 261.837L668.592 260.352C668.535 258.661 669.309 256.449 669.783 254.76C672.074 240.67 664.743 213.571 650.087 208.67Z" fill="#FCA2C9"/>
<path d="M793.207 246.476C794.034 245.185 793.465 245.58 794.716 244.982C796.346 245.791 797.496 246.456 797.462 248.473L794.499 247.983C791.268 249.398 788.593 248.705 788.029 244.729C787.149 238.526 782.771 242.32 779.989 238.563C779.962 236.915 780.139 235.683 779.317 234.294C772.49 229.864 777.352 230.3 777.619 226.834C777.874 223.524 772.79 219.661 777.863 216.82C779.146 214.101 774.83 212.178 778.787 208.179L780.494 209.114C783.361 208.302 780.893 205.358 782.774 202.21C785.186 200.203 787.76 200.886 789.158 199.808C793.341 196.584 790.98 196.361 796.616 195.191C797.633 195.683 797.162 195.374 797.872 196.43C796.509 198.893 794.745 198.218 793.006 199.443C792.047 200.119 789.99 202.168 789.09 203.064C788.14 202.124 788.492 202.365 787.367 201.799C781.122 204.035 785.027 206.796 784.915 208.547C781.62 209.746 781.018 210.111 778.237 212.259L777.543 212.799C778.496 213.977 780.284 215.878 780.601 217.24L777.654 218.193C777.794 219.494 777.752 218.949 778.753 220.257C777.937 221.178 778.161 220.844 777.596 221.992C778.206 224.752 779.855 225.338 780.531 227.675C779.045 229.081 777.88 229.695 778.026 231.752C779.526 233.682 779.691 233.206 781.769 234.151C784.244 235.276 781 236.001 782.007 238.711C784.492 240.088 785.337 238.994 787.903 239.805C790.061 241.927 788.455 243.951 790.606 246.383C792.262 246.728 791.677 246.808 793.207 246.476Z" fill="#98F5E1"/>
<path d="M650.089 208.668C646.036 208.888 644.291 206.291 640.629 206.913C642.195 207.645 645.597 208.236 646.029 209.593C631.936 206.641 625.531 204.572 616.127 217.486L614.851 216.386C614.335 214.591 614.746 214.478 615.324 212.332C623.211 202.143 639.917 202.277 650.089 208.668Z" fill="#2BB1A6"/>
<path d="M805.48 209.998C804.119 209.207 803.731 208.866 802.528 207.898C801.892 205.939 802.099 206.536 802.794 204.176C804.982 204.44 804.866 204.284 806.045 205.919C806.254 207.706 805.963 208.29 805.48 209.998Z" fill="#98F5E1"/>
<path d="M646.029 209.593C645.597 208.236 642.195 207.645 640.629 206.913C644.291 206.291 646.036 208.888 650.089 208.668C664.745 213.569 672.076 240.668 669.785 254.758C668.647 254.628 667.888 254.756 666.747 254.842C669.092 236.624 662.841 218.489 646.029 209.593Z" fill="#23D2BB"/>
<path d="M616.127 217.488C625.531 204.574 631.936 206.643 646.029 209.595C662.841 218.491 669.092 236.626 666.747 254.844C666.229 257.605 665.688 260.442 667.059 263.057L667.698 262.978C668.193 261.845 668.286 261.553 668.594 260.352L668.742 261.837C668.998 260.499 669.163 260.338 670.044 259.298C668.144 274.121 660.387 290.158 654.954 303.945C648.553 320.186 641.022 335.781 633.604 351.573C615.518 341.566 611.259 336.48 590.391 328.537C592.852 310.195 596.288 296.883 600.242 278.93C602.401 268.795 604.433 258.632 606.338 248.446C608.252 253.283 608.999 256.276 612.67 260.374C621.654 271.131 644.465 271.022 653.754 260.88C675.024 237.654 642.088 212.362 619.342 227.031C614.892 229.901 612.952 231.747 609.198 235.433C610.881 228.577 613.009 223.758 616.127 217.488Z" fill="#E5DED0"/>
<path d="M815.868 213.266C814.705 213.46 815.297 213.476 814.096 212.886L813.951 211.932C814.713 209.678 815.122 209.527 816.982 207.871L818.566 208.441L818.983 209.471C818.41 211.192 817.223 212.002 815.868 213.266Z" fill="#98F5E1"/>
<path d="M534.522 223.749L533.473 225.011C533.903 220.768 534.327 217.23 535.031 213.031L535.259 212.977C535.163 216.64 535.19 220.145 534.522 223.749Z" fill="#9B9491"/>
<path d="M673.861 216.404C681.298 213.849 698.252 212.837 706.481 212.48C706.764 221.781 702.488 243.774 698.136 252.043C691.072 247.81 684.712 247.809 677.357 251.113C677.98 237.781 678.044 229.14 673.861 216.404Z" fill="#FFCFD2"/>
<path d="M793.664 217.876C792.132 217.113 791.802 217.118 790.809 215.72C790.688 213.4 790.767 214.062 791.981 211.699C793.784 212.201 794.298 212.564 795.204 214.135C795.114 216.491 795.232 215.671 793.664 217.876Z" fill="#98F5E1"/>
<path d="M802.337 223.803L801.619 223.856C798.242 221.809 802.071 216.457 803.445 213.648C805.156 214.264 806.417 214.684 806.278 216.691C803.379 220.909 801.482 218.143 802.337 223.803Z" fill="#98F5E1"/>
<path d="M507.557 306.373C521.147 290.525 522.479 220.482 527.968 214.727C526.529 227.855 524.708 241.434 523.512 254.503C521.677 274.566 521.037 292.535 516.96 312.429C513.706 310.074 511.019 308.442 507.557 306.373Z" fill="#FDE4CF"/>
<path d="M819.21 222.696C817.641 222.286 816.729 222.261 815.784 220.982C815.389 219.339 815.779 218.748 816.349 217.152C819.187 217.788 819.733 220.18 819.21 222.696Z" fill="#98F5E1"/>
<path d="M606.338 248.444C606.75 244.331 607.939 239.373 609.198 235.431C612.952 231.745 614.892 229.899 619.342 227.029C642.088 212.36 675.024 237.652 653.754 260.878C644.465 271.02 621.654 271.129 612.67 260.372C608.999 256.274 608.252 253.281 606.338 248.444ZM632.041 226.614C624.385 228.343 617.811 230.92 613.285 237.813C607.743 246.254 611.545 256.593 620.069 261.177C625.586 264.144 630.176 264.173 636.163 264.094C666.324 262.046 661.181 224.95 632.041 226.614Z" fill="#23D2BB"/>
<path d="M533.473 225.012L534.522 223.75C531.499 245.482 531.031 260.949 530.599 282.306C530.535 284.153 530.473 284.971 530.172 286.787L529.797 286.519C529.328 281.301 529.683 276.079 529.404 270.746C529.245 258.389 531.144 245.554 532.589 233.29C532.913 230.535 533.401 227.785 533.473 225.012Z" fill="#3F3E43"/>
<path d="M636.161 264.097C630.174 264.176 625.584 264.147 620.067 261.18C611.543 256.596 607.741 246.257 613.283 237.816C617.809 230.923 624.383 228.346 632.039 226.617C661.179 224.953 666.322 262.049 636.161 264.097Z" fill="#E5DED0"/>
<path d="M309.359 243.187L310.673 243.652L311.955 243.035L311.897 252.403L311.391 251.703L310.647 252.165L309.599 251.522L309.442 251.09L309.359 243.187Z" fill="#3B8686"/>
<path d="M189.094 469.033C186.333 466.317 183.525 462.76 181.125 459.687C157.863 430.221 147.241 392.731 151.589 355.443C156.03 321.327 173.659 290.309 200.697 269.036C225.587 249.776 258.391 241.696 289.515 245.644C290.553 264.563 291.507 279.076 296.981 297.398C303.318 318.609 311.1 334.094 314.082 356.482C318.642 390.719 307.545 424.576 312.486 458.456C313.643 466.393 317.28 476.455 320.395 483.957C308.473 487.842 295.037 492.11 283.967 498.057C279.779 500.083 273.579 503.182 269.139 504.025C267.208 503.271 249.16 501.445 246.464 502.449C245.253 501.778 243.404 500.957 242.119 500.336C239.346 499.274 236.55 498.276 233.732 497.342C234.17 494.832 236.102 492.843 237.723 490.731C233.346 483.568 225.338 484.097 225.809 493.868C222.374 491.976 215.441 489.103 212.75 487.129C218.082 480.106 208.328 473.519 205.563 482.383C202.08 481.189 197.025 477.054 194.559 474.241C193.048 471.908 191.348 470.558 189.094 469.033ZM277.895 369.121C266.029 371.788 260.324 377.74 263.715 390.689C266.927 402.954 281.303 420.911 295.118 420.448C325.569 413.55 306.369 364.651 277.895 369.121ZM275.411 429.991C268.059 436.074 270.449 441.77 280.046 441.548C281.865 440.037 283.525 438.98 283.774 436.52C283.945 434.961 283.405 433.407 282.304 432.29C280.317 430.293 278.057 429.896 275.411 429.991ZM234.342 439.694C232.222 442.445 230.588 444.406 233.392 447.244L235.137 447.767C238.471 444.428 238.617 442.149 234.342 439.694ZM260.509 450.464C255.159 454.807 257.891 464.321 265.905 460.811C268.333 458.531 268.566 457.601 270.146 454.828C266.735 451.333 265.507 450.233 260.509 450.464ZM242.357 451.346C239.761 453.169 238.807 455.224 240.323 458.243C241.928 459.422 241.306 459.072 243.547 459.224C245.865 457.038 247.853 455.366 245.526 452.354C244.162 451.806 243.826 451.623 242.357 451.346ZM197.492 453.904C191.584 458.377 193.508 465.683 200.455 463.634C207.993 459.594 203.984 453.89 197.492 453.904ZM284.308 460.837C282.601 461.852 281.2 462.406 280.246 464.096C280.368 466.227 280.955 466.475 282.636 467.921C285.351 466.964 286.719 465.567 286.065 462.46C285.039 461.067 285.675 461.422 284.308 460.837ZM222.401 461.383C220.609 463.083 220.722 462.465 220.295 464.482C220.907 467.018 222.626 468.419 225.092 469.237C229.286 464.852 228.864 461.619 222.401 461.383ZM246.316 467.863C241.593 472.734 240.144 478.747 248.953 478.42C254.218 474.097 253.844 468.054 246.316 467.863ZM263.256 479.508C256.911 484.242 259.043 491.604 267.086 489.328C268.486 488.275 270.253 487.026 271.523 485.866C269.777 481.1 269.206 478.812 263.256 479.508ZM289.336 481.474C287.909 482.764 287.069 483.215 286.746 485.081C287.77 488.549 290.508 488.215 293.528 488.013C295.825 486.934 294.955 487.702 296.371 485.775C296.629 482.273 293.365 481.312 290.436 481.415C290.069 481.43 289.702 481.449 289.336 481.474Z" fill="#FED796"/>
<path d="M814.388 251.922C811.958 251.986 807.769 252.639 806.199 250.684C808.236 249.566 809.484 250.017 811.599 250.666C811.927 248.283 811.533 248.426 812.816 246.836L813.667 247.041C814.684 248.852 814.708 249.774 814.388 251.922Z" fill="#88EEB3"/>
<path d="M294.426 247.457C300.056 248.525 303.956 249.46 309.442 251.09L309.599 251.522C309.513 255.19 309.98 259.419 310.365 263.102C311.503 274.002 313.366 284.833 314.57 295.727C316.523 313.388 315.213 332.216 322.243 348.93C320.048 352.985 319.636 355.921 318.879 360.369C317.369 339.888 311.286 325.757 304.729 306.781C298.268 288.082 294.65 267.3 294.426 247.457Z" fill="#FED796"/>
<path d="M802.723 251.508C801.215 250.613 800.041 250.014 799.822 248.317L801.182 247.254C803.253 247.534 803.527 247.385 804.787 248.644C804.458 250.389 804.345 249.994 802.723 251.508Z" fill="#47CFA2"/>
<path d="M454.592 250.001C454.947 248.943 455.161 248.873 455.857 247.922C459.777 258.592 465.683 275.541 464.225 286.964C463.68 286.569 463.364 286.048 462.919 285.485C462.271 274.929 460.037 268.038 457.098 257.995C456.347 255.362 455.629 252.513 454.592 250.001Z" fill="#373334"/>
<path d="M453.961 249.93L454.592 250.004C455.629 252.516 456.347 255.365 457.098 257.998L455.779 257.143C455 254.52 454.987 252.573 453.961 249.93Z" fill="#9B9491"/>
<path d="M311.975 252.957C326.652 261.836 340.206 272.449 352.346 284.567C357.543 289.864 362.594 295.302 367.494 300.875C373.285 307.416 380.997 318.093 388.435 322.058C388.289 322.311 386.946 324.648 386.531 324.394C377.498 318.864 375.057 318.442 364.825 320.203C346.135 323.418 334.465 331.431 323.837 346.377C317.544 326.095 319.101 311.402 316.946 290.72C315.637 278.154 312.926 265.784 311.975 252.957Z" fill="#FED796"/>
<path d="M699.103 258.112C698.01 259.875 698.204 269.561 698.07 272.501L697.558 272.189C692.626 269.243 687.574 267.598 681.86 269.057C678.4 269.979 677.617 270.514 674.529 272.378L672.15 272.172C676.685 265.221 676.301 260.356 682.129 253.566C689.547 253.099 692.967 253.514 699.103 258.112Z" fill="#FED796"/>
<path d="M668.593 260.351C668.285 261.552 668.192 261.844 667.697 262.977L667.058 263.056C665.687 260.441 666.228 257.604 666.746 254.843C667.887 254.757 668.646 254.629 669.784 254.759C669.31 256.448 668.536 258.66 668.593 260.351Z" fill="#47CFA2"/>
<path d="M455.777 257.141L457.096 257.996C460.035 268.039 462.269 274.93 462.917 285.486C461.355 282.889 456.974 261.775 455.777 257.141Z" fill="#FBFBFA"/>
<path d="M698.07 272.498C698.204 269.558 698.01 259.872 699.103 258.109C711.424 267.755 714.768 283.385 716.463 298.081C719.901 327.896 717.946 354.524 709.448 383.323C707.263 390.728 701.441 411.228 700.593 417.555C698.606 410.638 697.596 407.124 694.275 400.678C707.77 374.084 700.354 335.183 710.673 318.214L713.411 313.163C715.478 308.67 715.478 300.826 714.669 295.943C712.798 284.643 706.708 278.829 698.07 272.498Z" fill="#FBF8CC"/>
<path d="M681.859 269.056C687.573 267.597 692.625 269.242 697.557 272.188L698.069 272.5C706.707 278.831 712.797 284.645 714.668 295.945C715.477 300.828 715.477 308.672 713.41 313.165L711.323 311.942C712.117 306.89 712 303.116 711.763 298.044C709.92 286.512 700.751 274.774 689.372 271.739C687.515 271.244 684.91 271.491 682.979 271.624L683.135 271.123C684.16 270.817 684.791 270.646 685.765 270.216L685.215 269.671C683.986 269.688 683.831 269.697 682.698 269.333L681.859 269.056Z" fill="url(#paint4_linear_2230_18415)"/>
<path d="M529.472 319.736C529.979 318.95 530.265 318.326 530.176 317.365C529.028 304.965 529.009 292.523 529.063 280.08C529.076 276.955 529.098 273.873 529.404 270.746C529.683 276.079 529.328 281.301 529.797 286.519L530.172 286.787C530.473 284.971 530.535 284.153 530.599 282.306C531.481 292.637 530.985 307.242 532.588 316.895C535.254 316.072 537.659 315.214 540.452 314.98C541.767 315.021 543.012 315.072 544.33 315.055C542.863 317.225 535.875 314.003 530.464 319.602L529.472 319.736Z" fill="#373334"/>
<path d="M664.199 294.951C668.036 283.622 670.973 276.224 682.98 271.626C684.911 271.493 687.516 271.246 689.373 271.741C700.752 274.776 709.921 286.514 711.764 298.046L710.09 297.551C706.645 289.144 699.949 283.915 690.98 282.202C683.664 280.927 675.461 283.821 670.212 289.026C668.555 290.669 666.077 294.013 664.199 294.951Z" fill="#E5DED0"/>
<path d="M668.355 277.922C669.56 275.997 670.886 274.066 672.149 272.172L674.528 272.378C672.275 274.31 670.82 276.014 668.355 277.922Z" fill="#E5DED0"/>
<path d="M659.135 309.341C660.678 304.627 662.233 299.466 664.2 294.951C666.078 294.013 668.556 290.669 670.213 289.026C675.462 283.821 683.665 280.927 690.981 282.202C699.95 283.915 706.646 289.144 710.091 297.551C710.791 301.448 710.32 310.134 711.042 311.829C710.374 314.694 710.04 315.363 708.726 318.023L706.771 320.045C701.93 323.406 700.732 325.966 694.525 328.061C683.035 331.938 670.462 329.018 663.24 318.923C661.049 315.861 660.278 312.899 659.135 309.341ZM687.266 285.661C658.438 289.102 654.936 326.379 686.458 326.047C691.156 325.284 693.215 324.631 697.52 322.513C710.827 315.965 711.567 297.009 698.997 288.95C695.493 286.729 691.414 285.585 687.266 285.661Z" fill="#23D2BB"/>
<path d="M686.457 326.046C654.935 326.378 658.437 289.101 687.265 285.66C691.413 285.584 695.492 286.728 698.996 288.949C711.566 297.008 710.826 315.964 697.519 322.512C693.214 324.63 691.155 325.283 686.457 326.046Z" fill="#E5DED0"/>
<path d="M521.689 301.059C521.95 298.141 522.167 295.042 522.559 292.152C523.3 294.553 522.946 306.665 522.899 309.775C522.104 306.703 522.999 303.404 521.689 301.059Z" fill="#9B9491"/>
<path d="M710.09 297.551L711.764 298.046C712.001 303.118 712.118 306.892 711.324 311.944L711.041 311.829C710.319 310.134 710.79 301.448 710.09 297.551Z" fill="#BDF1E9"/>
<path d="M387.568 328.443C394.432 314.732 420.865 300.028 435.546 298.177C450.711 296.564 449.288 310.233 445.939 320.544C439.912 339.098 420.669 345.712 403.016 339.601C396.46 336.576 392.791 333.306 387.568 328.443Z" fill="#FDE4CF"/>
<path d="M453.689 300.578C455.231 305.259 455.833 310.727 457.129 315.428C460.263 326.794 462.89 339.555 466.207 350.737C442.764 354.144 436.145 361.376 418.105 375.181L417.843 374.717C412.802 365.632 408.71 354.715 403.908 345.358C403.32 344.213 403.622 343.709 403.928 342.612C409.133 344.317 414.659 344.809 420.084 344.05C441.487 341.076 453.056 322.616 449.788 301.882L450.265 301.95C451.347 303.701 451.211 306.898 451.198 309.002C451.141 318.746 448.099 325.979 442.404 333.729L442.639 334.236C447.275 333.812 454.535 332.539 459.219 331.644C460.452 329.389 453.867 307.314 453.241 301.338L453.689 300.578Z" fill="#FFCFD2"/>
<path d="M466.141 303.706C467.785 303.468 470.385 303.346 472.115 303.206C490.647 301.287 500.794 305.714 516.535 313.894C513.956 320.426 511.611 322.986 506.278 327.154C498.209 331.955 487.967 335.136 479.242 329.906C470.661 324.763 468.357 312.731 466.141 303.706Z" fill="#FFEDE1"/>
<path d="M587.169 328.227C585.012 324.663 589.976 311.321 591.326 307.383C590.943 310.737 588.542 325.977 587.169 328.227Z" fill="#FBFBFA"/>
<path d="M638.102 354.665C637.638 354.302 636.466 353.437 636.596 353.089C639.965 344.079 652.842 315.703 655.776 308.887C655.835 310.183 655.579 311.166 655.023 312.842C650.365 326.89 645.23 340.776 640.826 354.929C640.561 355.073 640.296 355.216 640.031 355.36L638.102 354.665Z" fill="#FDE4CF"/>
<path d="M659.135 309.34C660.278 312.898 661.049 315.86 663.24 318.922C670.462 329.017 683.035 331.937 694.525 328.06C700.732 325.965 701.93 323.405 706.771 320.044C699.527 341.494 704.061 378.993 692.982 398.22C680.334 379.025 662.496 368.017 642.93 357.338C647.392 340.588 653.217 325.548 659.135 309.34Z" fill="#FBF8CC"/>
<path d="M711.041 311.828L711.324 311.943L713.411 313.166L710.673 318.217L708.725 318.022C710.039 315.362 710.373 314.693 711.041 311.828Z" fill="#2BB1A6"/>
<path d="M533.076 320.191C536.492 318.287 538.327 317.794 542.029 317.145C554.755 315.573 570.477 322.981 582.077 327.889C579.475 338.072 579.517 344.151 570.669 350.282C567.613 351.916 564.874 352.767 561.4 353.008C554.582 353.411 547.901 350.975 542.944 346.277C535.109 338.942 533.569 330.32 533.076 320.191Z" fill="#FDE4CF"/>
<path d="M325.188 351.205C333.866 333.573 348.143 325.657 367.138 322.668C374.835 321.546 382.216 322.187 386.142 329.653C380.038 341.018 372.38 349.019 362.908 357.627C360.418 359.89 348.399 372.195 346.213 372.855C336 368.192 329.334 361.546 325.188 351.205Z" fill="#FED796"/>
<path d="M589.66 349.151C589.481 344.864 588.467 335.466 590.781 332.425C594.315 331.276 606.03 337.547 610.152 339.475L609.366 340.12C600.993 336.203 600.834 339.035 593.417 340.549L592.827 340.665C591.574 343.419 590.649 346.291 589.66 349.151Z" fill="#FDE4CF"/>
<path d="M403.927 342.612C403.621 343.709 403.319 344.213 403.907 345.358C408.709 354.715 412.801 365.632 417.842 374.717L418.104 375.181C406.985 383.708 394.299 388.875 380.106 387.704C368.142 386.716 358.867 380.777 349.137 374.382C366.092 357.556 374.428 352.84 387.896 332.156C393.591 337.527 396.789 339.603 403.927 342.612Z" fill="#FED796"/>
<path d="M610.151 339.477C613.526 340.988 614.935 341.721 618.021 344.007L609.365 340.122L610.151 339.477Z" fill="#9B9491"/>
<path d="M594.512 346.72C594.901 345.382 595.438 342.834 596.694 342.358C605.894 338.867 624.628 350.45 632.289 354.445C629.596 360.643 627.551 365.886 623.484 371.354C612.045 366.502 600.986 357.425 594.512 346.72Z" fill="url(#paint5_linear_2230_18415)"/>
<path d="M623.483 371.357C610.065 384.266 591.809 368.917 592.45 353.361C592.537 351.251 593.722 348.684 594.511 346.723C600.985 357.428 612.044 366.505 623.483 371.357Z" fill="#FFCFD2"/>
<path d="M618.271 600.397C619.131 588.776 619.747 578.667 616.365 567.272C604.462 527.168 562.056 512.878 524.927 506.373C519.676 505.453 513.438 503.251 508.189 501.921C498.194 472.366 492.618 444.838 486.889 414.411C483.122 394.404 475.035 372.528 469.748 352.566C491.023 351.737 506.1 357.311 526.002 363.818C544.37 369.56 563.27 374.675 580.057 384.399C593.813 392.368 608.41 404.599 622.245 411.651C654.491 428.087 680.089 434.596 681.012 476.77C681.536 500.742 676.372 523.083 666.857 545.399C656.164 568.311 649.299 585.863 643.725 610.742C635.746 609.839 625.702 603.993 618.271 600.397Z" fill="#FFCFD2"/>
<path d="M419.573 377.468C438.962 362.345 441.457 357.412 466.979 352.844C471.185 366.681 475.266 380.555 479.222 394.466C489.711 431.673 493.95 456.375 483.026 494.808C459.297 488.029 430.563 480.037 405.889 477.808C406.617 475.351 414.733 462.942 416.866 457.259C427.713 428.355 424.901 406.187 419.573 377.468Z" fill="#FFCFD2"/>
<path d="M344.128 375.452C327.249 393.725 327.959 411.976 331.245 435.509C333.408 451.006 337.009 464.633 341.391 479.63C336.712 480.84 328.784 481.488 324.788 482.846C320.756 473.064 316.322 458.849 315.669 448.397C314.901 436.098 316.734 418.995 317.822 406.445C319.012 392.717 319.393 366.619 323.398 354.191C328.47 365.095 334.106 369.24 344.128 375.452Z" fill="#FED796"/>
<path d="M681.351 411.622C661.226 422.866 648.079 403.263 650.64 385.023C651.142 381.451 652.999 374.496 651.715 371.543C648.089 369.046 646.665 372.873 642.504 372.753L641.698 371.869C640.672 367.653 641.571 364.537 642.486 360.379C645.556 361.903 650.946 365.621 653.985 367.557C669.625 377.52 680.744 386.2 690.878 402.215C687.448 406.956 686.149 408.292 681.351 411.622Z" fill="#FFCFD2"/>
<path d="M295.119 420.447C281.304 420.91 266.928 402.953 263.716 390.688C260.325 377.739 266.03 371.787 277.896 369.12C306.37 364.65 325.57 413.549 295.119 420.447Z" fill="#D6E793"/>
<path d="M346.801 376.574C356.226 382.241 365.257 388.253 376.227 389.961C393.359 392.629 406.034 387.232 419.574 377.468C424.902 406.187 427.714 428.355 416.867 457.259C414.734 462.942 406.618 475.351 405.89 477.808C402.363 477.37 397.896 477.458 393.877 477.03C378.605 475.267 360.385 476.92 345.236 479.803C338.924 465.319 334.103 438.592 333.024 422.875C331.669 403.128 333.931 391.459 346.801 376.574Z" fill="#FED796"/>
<path d="M280.047 441.546C270.45 441.768 268.06 436.072 275.412 429.989C278.058 429.894 280.318 430.291 282.305 432.288C283.406 433.405 283.946 434.959 283.775 436.518C283.526 438.978 281.866 440.035 280.047 441.546Z" fill="#D6E793"/>
<path d="M235.138 447.764L233.393 447.241C230.589 444.403 232.223 442.442 234.343 439.691C238.618 442.146 238.472 444.425 235.138 447.764Z" fill="#D6E793"/>
<path d="M265.906 460.81C257.892 464.32 255.16 454.806 260.51 450.463C265.508 450.232 266.736 451.332 270.147 454.827C268.567 457.6 268.334 458.53 265.906 460.81Z" fill="#D6E793"/>
<path d="M243.547 459.222C241.306 459.07 241.928 459.42 240.323 458.241C238.807 455.222 239.761 453.167 242.357 451.344C243.826 451.621 244.162 451.804 245.526 452.352C247.853 455.364 245.865 457.036 243.547 459.222Z" fill="#D6E793"/>
<path d="M485.143 495.218C489.262 481.229 491.074 467.897 491.675 453.375C492.478 454.172 503.964 495.919 505.572 501.302L500.528 500.081C495.385 498.507 490.256 496.886 485.143 495.218Z" fill="#F1C0E8"/>
<path d="M681.166 459.99C685.319 458.956 693.403 466.485 697.655 466.048C698.27 464.495 698.41 456.795 698.652 454.145L699.091 457.262C698.586 474.696 694.979 491.265 691.482 508.254C686.969 530.531 681.819 552.675 676.036 574.657C672.121 588.986 667.35 603.106 663.267 617.358C660.824 616.745 647.167 613.321 646.164 612.095C654.614 559.407 694.197 517.978 681.166 459.99Z" fill="url(#paint6_linear_2230_18415)"/>
<path d="M200.456 463.632C193.509 465.681 191.585 458.375 197.493 453.902C203.985 453.888 207.994 459.592 200.456 463.632Z" fill="#D6E793"/>
<path d="M282.636 467.92C280.955 466.474 280.368 466.226 280.246 464.095C281.2 462.405 282.601 461.851 284.308 460.836C285.675 461.421 285.039 461.066 286.065 462.459C286.719 465.566 285.351 466.963 282.636 467.92Z" fill="#D6E793"/>
<path d="M225.094 469.237C222.628 468.419 220.909 467.018 220.297 464.482C220.724 462.465 220.611 463.083 222.403 461.383C228.866 461.619 229.288 464.852 225.094 469.237Z" fill="#D6E793"/>
<path d="M248.954 478.42C240.145 478.747 241.594 472.734 246.317 467.863C253.845 468.054 254.219 474.097 248.954 478.42Z" fill="#D6E793"/>
<path d="M194.559 474.239C193.657 475.941 193.313 477.114 191.614 477.936C189.685 477.973 190.534 478.23 188.96 477.189C187.385 474.569 187.108 471.541 189.094 469.031C191.348 470.556 193.048 471.906 194.559 474.239Z" fill="#98F5E1"/>
<path d="M166.841 484.949C164.654 484.922 163.425 484.892 161.765 483.512C159.699 479.13 163.263 476.128 166.699 473.949C168.848 474.16 169.43 474.36 171.019 475.6C173.278 479.325 169.866 483.005 166.841 484.949Z" fill="#98F5E1"/>
<path d="M345.234 479.803C360.383 476.92 378.603 475.267 393.875 477.03C396.447 478.216 400.35 478.957 403.188 479.457C399.728 483.035 392.822 488.375 388.221 490.501C382.087 491.44 375.461 493.541 369.349 494.963C365.503 495.858 355.737 496.537 353.095 498.522C350.379 492.326 347.569 486.15 345.234 479.803Z" fill="#88EEB3"/>
<path d="M205.564 482.383C208.329 473.519 218.083 480.106 212.751 487.129C207.94 485.331 207.403 487.849 205.564 482.383Z" fill="#B9FBC0"/>
<path d="M341.392 479.629C342.376 485.106 347.438 495.118 349.915 500.498C344.945 500.291 336.525 498.53 332.734 501.343C330.25 495.07 327.525 489.009 324.789 482.845C328.785 481.487 336.713 480.839 341.392 479.629Z" fill="#88EEB3"/>
<path d="M267.086 489.325C259.043 491.601 256.911 484.239 263.256 479.505C269.206 478.809 269.777 481.097 271.523 485.863C270.253 487.023 268.486 488.272 267.086 489.325Z" fill="#D6E793"/>
<path d="M403.189 479.457C413.248 481.517 424.1 482.576 434.024 484.713C449.951 488.143 466.373 492.83 482.099 497.248C478.223 509.428 469.014 529.704 461.856 540.224C458.085 539.929 446.117 536.559 441.304 535.601C423.825 532.12 408.853 531.298 391.057 531.799C383.87 532.001 379.007 531.544 371.834 533.389C366.057 522.349 360.01 513.166 354.615 501.769C369.514 499.127 376.022 499.355 388.222 490.501C392.823 488.375 399.729 483.035 403.189 479.457Z" fill="#D3D1DE"/>
<path d="M293.528 488.012C290.508 488.214 287.77 488.548 286.746 485.08C287.069 483.214 287.909 482.763 289.336 481.473C289.702 481.448 290.069 481.429 290.436 481.414C293.365 481.311 296.629 482.272 296.371 485.774C294.955 487.701 295.825 486.933 293.528 488.012Z" fill="#D6E793"/>
<path d="M320.395 483.957C322.505 488.707 324.649 493.764 326.891 498.426C319.195 499.224 311.57 500.108 303.834 500.46C301.353 500.573 296.562 500.262 295.331 502.538C295.953 502.618 283.874 498.016 283.967 498.057C295.037 492.11 308.473 487.842 320.395 483.957Z" fill="#88EEB3"/>
<path d="M225.811 493.868C225.34 484.097 233.348 483.568 237.725 490.731C236.104 492.843 234.172 494.832 233.734 497.342C231.162 496.35 228.35 495.009 225.811 493.868Z" fill="#D6E793"/>
<path d="M183.552 500.357C182.495 500.174 181.543 500.073 180.793 499.208C179.714 497.947 179.192 496.303 179.347 494.651C179.577 492.002 180.316 490.97 182.27 489.43C183.561 489.594 183.907 489.762 185.152 490.192C188.462 493.527 186.166 497.441 183.552 500.357Z" fill="#98F5E1"/>
<path d="M353.096 498.521C355.738 496.536 365.504 495.857 369.35 494.962C375.462 493.54 382.088 491.439 388.222 490.5C376.022 499.354 369.514 499.126 354.615 501.768L353.096 498.521Z" fill="#B9FBC0"/>
<path d="M157.55 506.451C149.142 505.342 152.544 498.402 156.392 494.215C162.986 497.119 163.156 502.277 157.55 506.451Z" fill="#98F5E1"/>
<path d="M199.295 507.482L197.759 507.923C192.194 507.03 193.271 501.208 196.787 498.028C204.89 497.338 204.613 503.305 199.295 507.482Z" fill="#98F5E1"/>
<path d="M464.529 540.873C472.438 527.344 479.97 513.091 484.424 497.984C491.11 500.051 499.408 502.799 506.221 504.178C514.791 527.595 521.795 538.984 538.546 557.711C542.471 562.101 551.442 571.892 554.52 576.324C549.858 576.719 535.494 569.844 529.57 568.288C526.372 567.123 523.156 566.007 519.923 564.942C515.668 563.509 510.876 561.379 506.681 559.634C490.812 552.271 481.318 546.757 464.529 540.873Z" fill="#D3D1DE"/>
<path d="M269.14 504.023C273.58 503.18 279.78 500.081 283.968 498.055C283.625 499.889 282.169 504.811 282.123 505.859C277.553 505.849 273.244 506.18 269.037 504.366L269.14 504.023Z" fill="#B9FBC0"/>
<path d="M283.968 498.055C283.875 498.014 295.954 502.616 295.332 502.536L296.295 504.083C294.885 506.567 293.066 509.017 290.181 509.881C288.582 510.374 286.851 510.211 285.372 509.427C284.054 508.712 282.959 507.085 282.123 505.859C282.169 504.811 283.625 499.889 283.968 498.055Z" fill="#98F5E1"/>
<path d="M295.332 502.538C296.563 500.262 301.354 500.573 303.835 500.46C311.571 500.108 319.196 499.224 326.892 498.426L329.252 503.704C318.637 504.484 307.041 504.059 296.295 504.085L295.332 502.538Z" fill="#B9FBC0"/>
<path d="M332.734 501.344C336.525 498.531 344.945 500.292 349.915 500.499C355.865 512.146 361.538 522 368.271 533.213C364.178 534.29 353.884 535.239 348.17 536.405C343.323 524.636 337.789 513.06 332.734 501.344Z" fill="#FBFBFA"/>
<path d="M246.465 502.449C250.553 507.023 240.979 511.296 236.707 508.688C234.953 504.914 239.133 501.855 242.12 500.336C243.405 500.957 245.254 501.778 246.465 502.449Z" fill="#98F5E1"/>
<path d="M296.295 504.084C307.041 504.058 318.637 504.483 329.252 503.703C334.185 514.537 338.933 525.453 343.494 536.448L343.018 536.615C335.116 539.291 325.691 540.802 317.29 543.397C289.059 552.117 263.194 566.184 242.268 587.258C235.704 593.881 230.533 604.152 225.93 612.238C214.876 634.062 212.527 663.684 220.428 686.942C223.844 696.782 228.391 706.193 233.976 714.985C255.786 748.615 303.761 790.888 340.003 808.872C353.95 815.793 374.376 823.589 389.395 827.027C405.242 861.03 411.943 874.407 444.723 895.205C438.862 896.693 431.535 899.398 425.428 901.172C412.718 904.935 399.615 907.218 386.38 907.973C302.996 912.771 232.98 880.598 171.645 825.871C142.345 799.728 112.073 760.617 109.929 720.005C109.227 706.697 110.771 694.01 114.761 681.284C125.13 648.214 157.983 603.776 181.212 577.875C181.576 579.418 182.12 581.656 183.245 582.802C184.073 583.645 185.244 584.058 186.418 583.921C191.807 583.316 194.776 574.776 188.353 570.637C190.88 566.608 193.473 564.144 195.75 559.523L197.191 559.293C201.62 555.998 204.813 552.906 207.612 548.062C215.497 542.486 228.568 535.013 228.616 524.295C228.857 526.041 228.901 528.211 229.784 529.549C232.832 529.427 237.767 527.884 237.738 524.209C240.36 521.051 252.79 512.704 257.075 511.704C255.434 514.73 254.398 520.228 258.853 521.421C267.8 523.818 272.939 510.824 261.921 509.686C263.526 508.917 265.705 506.115 269.037 504.367C273.244 506.181 277.553 505.85 282.123 505.86C282.959 507.086 284.054 508.713 285.372 509.428C286.851 510.212 288.582 510.375 290.181 509.882C293.066 509.018 294.885 506.568 296.295 504.084ZM246.678 526.366C243.124 528.51 240.422 531.357 242.455 535.784C243.885 537.175 245.253 537.577 247.202 537.117C250.142 535.244 251.932 534.561 252.856 531.206C252.199 527.627 249.927 527.261 246.678 526.366ZM271.227 532.044C263.805 537.189 267.624 543.841 275.554 541.09C277.821 539.051 279.175 538.23 279.522 535.188C278.096 531.336 274.797 531.637 271.227 532.044ZM225.428 543.344C224.008 544.683 222.697 545.84 221.468 547.37C221.22 554.046 220.29 556.991 228.171 556.525C233.857 551.474 234.125 543.039 225.428 543.344ZM255.529 544.483C247.631 548.401 250.233 556.965 257.038 558.314C264.332 553.943 264.132 546.946 255.529 544.483ZM206.931 557.945C199.758 562.626 200.915 569.339 208.767 569.632C214.51 565.303 216.997 557.456 206.931 557.945ZM236.805 559.927C234.027 561.414 232.558 561.904 231.743 565.093C230.551 569.751 233.205 572.26 237.365 573.373C243.619 569.075 245.173 562.584 236.805 559.927ZM223.008 574.607C220.396 575.225 218.09 576.192 216.623 578.622C215.82 579.926 215.63 581.516 216.101 582.972C216.689 584.788 218.012 585.834 219.569 586.84C224.564 584.922 230.09 575.699 223.008 574.607Z" fill="#BDF1E9"/>
<path d="M559.694 578.488C537.821 551.258 521.102 538.98 509.016 504.633C537.915 512.978 565.735 514.463 590.119 533.994C612.967 552.293 618.832 572.09 615.563 600.428C612.391 599.482 609.035 597.861 605.885 596.733C590.406 591.189 575.085 584.121 559.694 578.488Z" fill="#F1C0E8"/>
<path d="M217.36 513.973C215.579 513.146 214.695 512.643 214.172 510.751C214.517 508.826 215.379 508.258 216.756 506.844C217.339 506.942 218.405 507.269 219.019 507.435C221.43 510.161 219.526 511.905 217.36 513.973Z" fill="#98F5E1"/>
<path d="M257.076 511.706L261.922 509.688C272.94 510.826 267.801 523.82 258.854 521.423C254.399 520.23 255.435 514.732 257.076 511.706Z" fill="#98F5E1"/>
<path d="M148.497 528.394C139.649 527.105 143.463 517.897 148.607 513.797C155.047 516.924 152.16 524.234 148.497 528.394Z" fill="#98F5E1"/>
<path d="M177.248 522.014C175.071 522.114 173.991 522.367 172.259 521.146C170.365 517.92 172.29 516.34 174.675 514.254C177.519 514.423 179.287 515.704 179.809 518.468C179.425 520.38 178.726 520.716 177.248 522.014Z" fill="#98F5E1"/>
<path d="M203.351 530.241C195.356 532.991 194.438 523.585 198.6 517.98C199.007 517.949 199.415 517.925 199.822 517.907C207.307 517.605 209.093 525.211 203.351 530.241Z" fill="#98F5E1"/>
<path d="M228.615 524.297C231.744 518.889 234.088 522.684 237.737 524.211C237.766 527.886 232.831 529.429 229.783 529.551C228.9 528.213 228.856 526.043 228.615 524.297Z" fill="#98F5E1"/>
<path d="M247.202 537.118C245.253 537.578 243.885 537.176 242.455 535.785C240.422 531.358 243.124 528.511 246.678 526.367C249.927 527.262 252.199 527.628 252.856 531.207C251.932 534.562 250.142 535.245 247.202 537.118Z" fill="#98F5E1"/>
<path d="M371.834 533.388C379.007 531.543 383.87 532 391.057 531.798C408.853 531.297 423.825 532.119 441.304 535.6C446.117 536.558 458.085 539.928 461.856 540.223C454.57 551.731 446.29 562.575 439.028 573.825C411.824 615.975 419.787 670.919 446.61 711.043C459.435 730.228 474.517 748.96 471.503 773.59C469.171 793.125 459.395 806.275 456.239 827.323C450.679 827.799 445.583 828.894 440.039 829.408C434.82 829.891 429.081 829.383 424.001 829.691C420.786 825.99 412.826 809.9 410.373 804.681C389.023 759.28 399.59 728.506 403.486 683.951C404.399 672.357 404.512 660.713 403.824 649.102C401.492 607.911 389.967 570.226 371.834 533.388Z" fill="#98F5E1"/>
<path d="M275.555 541.091C267.625 543.842 263.806 537.19 271.228 532.045C274.798 531.638 278.097 531.337 279.523 535.189C279.176 538.231 277.822 539.052 275.555 541.091Z" fill="#98F5E1"/>
<path d="M216.636 539.831L214.92 539.177C212.936 536.448 213.93 534.65 216.143 532.637C219.859 534.013 218.506 537.548 216.636 539.831Z" fill="#98F5E1"/>
<path d="M348.17 536.402C353.884 535.236 364.178 534.288 368.271 533.211C373.733 542.488 377.242 552.504 381.37 562.244C397.184 599.559 403.051 639.911 401.251 680.278C400.679 693.101 397.76 706.636 396.4 719.458C391.213 764.085 398.111 791.595 420.891 829.629C416.028 829.166 398.569 827.227 395.024 828.452C389.415 814.057 382.862 791.485 382.06 776.351C381.58 763.567 383.527 750.595 384.788 737.873C390.002 685.275 382.856 630.965 366.013 580.963C361.046 566.219 354.042 550.974 348.17 536.402Z" fill="#98F5E1"/>
<path d="M343.494 536.449C366.806 591.933 380.6 641.002 381.45 701.91C381.514 714.261 380.964 726.608 379.803 738.905C378.578 751.287 376.316 766.667 377.237 778.854C378.35 793.588 384.204 813.014 389.395 827.028C374.376 823.59 353.95 815.794 340.003 808.873C303.761 790.889 255.786 748.616 233.976 714.986C228.391 706.194 223.844 696.783 220.428 686.943C212.527 663.685 214.876 634.063 225.93 612.239C230.533 604.153 235.704 593.882 242.268 587.259C263.194 566.185 289.059 552.118 317.29 543.398C325.691 540.803 335.116 539.292 343.018 536.616L343.494 536.449Z" fill="#88EEB3"/>
<path d="M183.909 548.55C176.35 548.729 177.818 541.661 180.763 537.294C187.588 537.195 187.398 544.471 183.909 548.55Z" fill="#98F5E1"/>
<path d="M155.311 551.403C153.976 551.509 151.953 551.222 151.201 550.142C148.13 545.727 149.678 540.693 153.184 537.758C159.194 538.376 161.28 546.572 155.311 551.403Z" fill="#98F5E1"/>
<path d="M772.226 547.685C766.824 545.02 768.019 541.885 770.634 537.68C774.875 539.3 775.211 544.558 772.226 547.685Z" fill="#BDF1E9"/>
<path d="M796.621 549.524C790.695 546.369 790.093 542.188 795.917 538.27C800.683 540.267 800.776 546.156 796.621 549.524Z" fill="#98F5E1"/>
<path d="M459.187 824.161C462.82 807.128 471.554 792.558 473.661 776.167C477.712 748.175 460.925 728.813 446.97 707.064C422.035 668.081 414.906 615.199 441.159 574.929C448.647 563.443 456.898 552.407 464.528 540.871C481.317 546.755 490.811 552.269 506.68 559.632C507.433 563.551 513.7 567.122 517.469 567.402C520.071 569.565 525.792 574.85 528.033 576.311C557.732 600.51 574.869 630.612 579.46 669.416C581.456 686.293 577.98 704.72 574.482 721.25C573.35 726.373 565.457 744.177 566.698 747.089C556.485 762.196 542.398 776.642 529.322 789.237C528.109 790.405 522.287 796.089 521.312 796.724C519.232 796.799 514.064 800.772 512.106 802.082C498.291 811.326 475.871 822.507 459.187 824.161Z" fill="#98F5E1"/>
<path d="M221.468 547.37C222.697 545.84 224.008 544.683 225.428 543.344C234.125 543.039 233.857 551.474 228.171 556.525C220.29 556.991 221.22 554.046 221.468 547.37Z" fill="#98F5E1"/>
<path d="M257.038 558.315C250.233 556.966 247.631 548.402 255.529 544.484C264.132 546.947 264.332 553.944 257.038 558.315Z" fill="#98F5E1"/>
<path d="M751.575 558.71C744.332 560.277 740.223 551.827 742.363 545.168C749.253 545.914 755.695 551.687 751.575 558.71Z" fill="#98F5E1"/>
<path d="M195.75 559.523C196.056 556.635 197.53 551.115 199.679 549.022C202.07 546.693 204.703 547.511 207.612 548.062C204.813 552.906 201.62 555.998 197.191 559.293L195.75 559.523Z" fill="#98F5E1"/>
<path d="M817.386 561.43C813.219 561.924 809.718 557.163 810.002 553.264C810.129 551.517 811.12 551.04 812.301 549.995C818.597 549.829 822.534 556.211 817.386 561.43Z" fill="#98F5E1"/>
<path d="M779.617 564.44C778.012 564.232 777.901 564.28 776.359 563.618C773.394 559.935 776.532 557.363 779.665 555.324C785.699 555.896 783.655 562.512 779.617 564.44Z" fill="#98F5E1"/>
<path d="M208.766 569.631C200.914 569.338 199.757 562.625 206.93 557.944C216.996 557.455 214.509 565.302 208.766 569.631Z" fill="#98F5E1"/>
<path d="M171.643 569.976C170.797 569.974 170.159 569.86 169.318 569.756C165.268 566.872 166.769 563.271 169.231 559.758C174.663 561.037 175.425 566.029 171.643 569.976Z" fill="#98F5E1"/>
<path d="M237.366 573.372C233.206 572.259 230.551 569.75 231.743 565.092C232.558 561.903 234.027 561.413 236.805 559.926C245.173 562.583 243.62 569.074 237.366 573.372Z" fill="#98F5E1"/>
<path d="M517.471 567.403C513.702 567.123 507.435 563.552 506.682 559.633C510.877 561.378 515.669 563.508 519.924 564.941L519.545 565.93C517.656 566.607 518.18 566 517.471 567.403Z" fill="url(#paint7_linear_2230_18415)"/>
<path d="M796.876 572.198C795.753 574.725 796.344 574.341 794.383 575.777C792.275 575.934 793.235 576.14 791.388 575.178C789.236 572.345 790.222 570.789 792.646 568.874C795.845 566.881 795.14 560.334 799.747 560.309C802.177 562.002 802.597 564.445 801.659 567.159C798.699 569.895 797.366 568.488 796.876 572.198Z" fill="#98F5E1"/>
<path d="M725.479 574.699C717.962 573.255 723.404 567.138 726.223 563.766C728.297 563.956 728.847 564.286 729.738 566C729.718 569.178 727.299 572.04 725.479 574.699Z" fill="#98F5E1"/>
<path d="M519.924 564.941C523.157 566.006 526.373 567.122 529.571 568.287C526.744 568.266 524.572 567.559 521.871 569.357C522.837 571.085 525.928 573.17 528.035 576.312C525.794 574.851 520.073 569.566 517.471 567.403C518.18 566 517.656 566.607 519.545 565.93L519.924 564.941Z" fill="#90DBF4"/>
<path d="M529.569 568.287C535.493 569.843 549.857 576.718 554.519 576.323C573.195 597.991 591.512 631.308 603.348 657.07C594.899 686.829 586.416 722.288 566.698 747.09C565.457 744.178 573.35 726.374 574.482 721.251C577.98 704.721 581.456 686.294 579.46 669.417C574.869 630.613 557.732 600.511 528.033 576.312C525.926 573.17 522.835 571.085 521.869 569.357C524.57 567.559 526.742 568.266 529.569 568.287Z" fill="#A3C4F3"/>
<path d="M766.88 575.399C761.568 576.994 757.075 573.548 761.084 567.82C764.203 569.15 767.818 569.53 769.2 571.947C768.953 573.531 768.015 574.205 766.88 575.399Z" fill="#98F5E1"/>
<path d="M181.213 577.875C183.336 573.56 184.337 572.911 188.354 570.637C194.777 574.776 191.808 583.316 186.419 583.921C185.245 584.058 184.074 583.645 183.246 582.802C182.121 581.656 181.577 579.418 181.213 577.875Z" fill="#98F5E1"/>
<path d="M820.164 575.106L824.85 571.844L826.706 572.091C830.164 574.656 830.738 578.2 829.53 582.106C828.451 583.584 827.439 583.638 825.649 584.154C822.884 583.299 821.207 577.686 820.164 575.106Z" fill="#98F5E1"/>
<path d="M733.532 580.247C732.032 579.496 731.043 578.626 730.65 576.956C730.946 574.986 731.635 574.623 733.088 573.234C735.246 573.517 735.635 573.761 736.259 575.676C735.805 577.809 734.965 578.491 733.532 580.247Z" fill="#98F5E1"/>
<path d="M219.57 586.839C218.013 585.833 216.69 584.786 216.102 582.97C215.631 581.514 215.821 579.924 216.624 578.62C218.091 576.19 220.397 575.223 223.009 574.605C230.091 575.697 224.565 584.921 219.57 586.839Z" fill="#98F5E1"/>
<path d="M810.897 584.873C810.378 584.91 809.606 584.782 809.057 584.721C806.545 582.446 808.842 579.896 810.524 577.789C812.335 578.292 813.239 578.999 813.763 580.766C813.365 582.69 812.293 583.445 810.897 584.873Z" fill="#98F5E1"/>
<path d="M559.693 578.488C575.084 584.121 590.405 591.189 605.884 596.733C609.034 597.861 612.39 599.482 615.562 600.428C614.305 615.511 608.196 637.339 604.23 652.189C591.164 623.201 577.939 603.804 559.693 578.488Z" fill="#A3C4F3"/>
<path d="M777.684 585.489C775.27 585.387 772.706 585.342 771.807 582.881C772.366 581.275 773.436 580.88 774.916 579.945C777.349 580.448 780.031 580.573 781.217 582.913C780.237 584.686 779.916 584.367 777.684 585.489Z" fill="#98F5E1"/>
<path d="M792.456 592.468C791.285 592.101 791.476 592.153 790.396 591.56L790.199 590.381C791.19 588.544 792.703 587.671 794.399 586.383C795.65 586.67 795.129 586.564 796.285 587.587C797.119 591.01 795.09 591.663 792.456 592.468Z" fill="#98F5E1"/>
<path d="M730.282 606.628C729.48 605.978 727.767 603.963 727.152 603.669C716.707 598.685 719.311 595.696 724.67 587.23C727.759 589.646 728.267 591.174 730.821 593.967C738.721 595.655 734.904 603.294 730.282 606.628Z" fill="#98F5E1"/>
<path d="M758.961 604.008C753.554 603.355 749.489 598.342 754.163 593.672C758.865 595.46 762.153 599.224 758.961 604.008Z" fill="#98F5E1"/>
<path d="M832.851 608.383C827.228 606.849 829.093 600.089 833.647 597.207C839.789 599.735 836.626 605.366 832.851 608.383Z" fill="#98F5E1"/>
<path d="M605.77 655.93C610.284 644.137 616.607 613.087 618.271 600.398C625.702 603.994 635.747 609.84 643.726 610.743C639.868 627.964 635.537 660.805 634.703 677.862C633.385 704.811 633.86 725.498 628.817 752.549C628.335 751.818 627.905 750.872 627.503 750.075C627.558 719.82 616.184 683.888 605.77 655.93Z" fill="#CFBAF0"/>
<path d="M816.523 610.309C813.92 608.983 812.488 608.601 812.162 605.583C812.837 603.602 813.518 603.296 815.197 601.875C820.624 602.526 819.914 607.578 816.523 610.309Z" fill="#98F5E1"/>
<path d="M754.548 611.712C752.087 612.719 750.564 613.151 748.539 611.246C747.721 609.331 748.025 608.179 748.176 606.022C751.266 605.719 753.272 605.591 755.213 608.292C755.394 610.607 755.559 609.5 754.548 611.712Z" fill="#98F5E1"/>
<path d="M793.873 610.456C791.153 611.482 788.768 611.723 786.626 609.373C785.958 607.24 785.984 608.28 786.505 606.137C789.23 605.89 794.539 605.912 794.83 609.468L793.873 610.456Z" fill="#98F5E1"/>
<path d="M596.342 853.73C618.254 823.923 622.897 796.894 629.93 761.866C638.274 720.306 634.842 680.475 641.603 639.022C643.059 630.093 644.366 620.949 646.164 612.094C647.167 613.32 660.824 616.744 663.267 617.357C657.782 638.614 653.016 657.377 651.531 679.442C649.829 704.75 652.184 729.413 651.483 754.577C650.48 790.592 636.311 836.493 613.423 864.64C605.855 860.694 602.974 859.295 596.342 853.73Z" fill="#CFBAF0"/>
<path d="M618.086 865.721C641.598 834.509 654.545 792.962 656.42 753.962C657.54 730.676 654.486 704.484 656.229 681.057C657.659 661.834 662.695 637.145 667.614 618.406C680.945 622.914 696.03 628.077 708.176 635.53C742.823 656.793 742.194 698.975 726.6 732.217C719.87 746.563 716.861 762.547 710.361 777.013C693.069 813.285 667.133 850.049 630.22 868.223C628.465 869.071 625.862 870.472 624.028 870.556C622.001 869.062 620.024 867.342 618.086 865.721Z" fill="#CFBAF0"/>
<path d="M800.623 623.752C798.167 623.807 793.929 624.067 793.371 620.966C794.545 619.251 794.558 619.645 796.701 618.571C800.042 618.442 800.441 618.523 802.645 621.131C803.049 622.82 803.204 622.102 802.456 623.404L800.623 623.752Z" fill="#98F5E1"/>
<path d="M825.476 630.627C817.685 629.854 822.79 621.778 826.164 618.723C833.486 620.633 829.677 627.676 825.476 630.627Z" fill="#98F5E1"/>
<path d="M773.911 626.04L773.106 626.503C770.188 628.148 769.097 628.487 765.822 627.938C764.381 626.816 764.825 627.517 764.383 625.802C765.11 622.58 767.842 619.311 771.418 620.149C772.989 622.037 773.463 623.599 774.4 625.86L773.911 626.04Z" fill="#98F5E1"/>
<path d="M734.27 630.317C732.571 631.05 730.599 630.276 729.853 628.582C729.107 626.889 729.867 624.911 731.555 624.152C733.26 623.386 735.264 624.156 736.017 625.867C736.771 627.578 735.987 629.575 734.27 630.317Z" fill="#98F5E1"/>
<path d="M773.91 626.039L774.399 625.859C776.821 626.635 777.861 626.995 779.045 629.095C778.736 630.897 779.166 630.205 777.807 631.295C775.997 631.359 776.838 631.572 775.242 630.48C774.159 628.481 774.182 628.345 773.91 626.039Z" fill="#98F5E1"/>
<path d="M744.419 635.981C742.014 636.1 741.858 636.111 740.391 634.814C740.26 632.764 740.216 633.506 741.204 631.497C743.247 631.349 744.521 631 745.89 632.689C745.918 634.223 745.332 634.723 744.419 635.981Z" fill="#98F5E1"/>
<path d="M810.534 644.917C808.625 644.567 808.088 644.623 806.637 643.31C805.068 639.836 807.385 638.084 809.833 635.82C816.111 636.73 814.399 641.892 810.534 644.917Z" fill="#98F5E1"/>
<path d="M762.08 652.192C758.586 652.093 752.687 651.588 752.758 646.937C753.743 645.246 754.635 644.993 756.365 644.065C757.011 644.029 757.658 644.022 758.304 644.045C761.661 644.158 765.102 646.732 764.812 650.336C763.65 651.697 763.775 651.668 762.08 652.192Z" fill="#98F5E1"/>
<path d="M789.371 652.741C788.926 652.879 788.478 653.008 788.028 653.126C783.08 654.398 772.223 652.86 777.57 645.589C778.47 645.526 779.371 645.483 780.272 645.459C783.75 645.39 791.192 647.116 791.01 651.523L789.371 652.741Z" fill="#98F5E1"/>
<path d="M530.162 791.566C573.726 749.209 591.303 721.363 604.469 661.445C608.52 669.706 611.477 680.217 614.313 688.997C631.554 742.375 629.328 806.01 594.448 852.42C584.231 843.363 573.33 835.854 562.853 826.188C555.336 819.196 548.125 811.882 541.239 804.267C537.425 799.985 534.133 795.794 530.162 791.566Z" fill="#A3C4F3"/>
<path d="M627.503 750.074C627.905 750.871 628.335 751.817 628.817 752.548C628.6 755.337 628.08 756.831 627.307 759.471C627.445 756.409 627.449 753.155 627.503 750.074Z" fill="#D3D1DE"/>
<path d="M460.947 860.402C487.093 855.883 496.325 831.862 509.506 812.706C513.336 807.14 524.889 796.4 530.163 791.566C534.134 795.794 537.426 799.985 541.24 804.267C548.126 811.882 555.337 819.196 562.854 826.188C573.331 835.854 584.232 843.363 594.449 852.42C581.122 870.073 566.571 881.149 545.828 889.05C514.632 900.931 473.561 895.643 460.947 860.402Z" fill="#F1C0E8"/>
<path d="M459.188 824.164C475.872 822.51 498.292 811.329 512.107 802.085C514.065 800.775 519.233 796.802 521.313 796.727C517.853 800.44 511.817 805.292 509.143 809.139C496.762 826.95 486.362 850.677 463.829 857.525C456.26 859.825 457.525 835.966 457.964 832.119C458.275 829.453 458.683 826.8 459.188 824.164Z" fill="#F1C0E8"/>
<path d="M424.002 829.692C429.082 829.384 434.821 829.892 440.04 829.409C445.584 828.895 450.68 827.8 456.24 827.324C454.506 839.722 454.931 846.082 458.353 858.164C441.272 856.195 432.507 843.287 424.002 829.692Z" fill="#BDF1E9"/>
<path d="M395.023 828.454C398.568 827.229 416.027 829.168 420.89 829.631C430.072 843.376 440.388 860.137 458.825 860.662C461.614 868.118 463.261 872.146 468.326 878.278C460.72 884.272 456.629 886.52 448.382 891.424C421.853 877.866 405.668 855.586 395.023 828.454Z" fill="#BDF1E9"/>
<path d="M468.327 878.276C482.711 892.999 504.079 898.854 524.36 896.501C554.943 892.952 577.477 877.449 596.342 853.73C602.974 859.295 605.855 860.694 613.423 864.64C590.64 891.697 558.849 907.239 523.681 911.81C501.319 914.716 468.2 902.705 448.383 891.422C456.63 886.518 460.721 884.27 468.327 878.276Z" fill="#F1C0E8"/>
<path d="M607.977 877.363C611.554 873.55 614.734 869.722 618.086 865.723C620.024 867.344 622.001 869.064 624.028 870.558C617.87 873.168 614.207 876.842 607.977 877.363Z" fill="#F1C0E8"/>
<defs>
<linearGradient id="paint0_linear_2230_18415" x1="536.24" y1="383.839" x2="631.341" y2="200.044" gradientUnits="userSpaceOnUse">
<stop stop-color="#FED5CC"/>
<stop offset="1" stop-color="#FFFFFB"/>
</linearGradient>
<linearGradient id="paint1_linear_2230_18415" x1="446.607" y1="185.01" x2="520.324" y2="205.505" gradientUnits="userSpaceOnUse">
<stop stop-color="#433B3C"/>
<stop offset="1" stop-color="#457C7A"/>
</linearGradient>
<linearGradient id="paint2_linear_2230_18415" x1="400.939" y1="200.346" x2="422.742" y2="171.628" gradientUnits="userSpaceOnUse">
<stop stop-color="#4DBEB5"/>
<stop offset="1" stop-color="#3FE9D3"/>
</linearGradient>
<linearGradient id="paint3_linear_2230_18415" x1="584.123" y1="188.088" x2="595.264" y2="177.44" gradientUnits="userSpaceOnUse">
<stop stop-color="#019B87"/>
<stop offset="1" stop-color="#25C0AB"/>
</linearGradient>
<linearGradient id="paint4_linear_2230_18415" x1="701.234" y1="291.914" x2="711.319" y2="288.25" gradientUnits="userSpaceOnUse">
<stop stop-color="#209B92"/>
<stop offset="1" stop-color="#16C29E"/>
</linearGradient>
<linearGradient id="paint5_linear_2230_18415" x1="606.552" y1="359.537" x2="620.734" y2="344.983" gradientUnits="userSpaceOnUse">
<stop stop-color="#FDB79E"/>
<stop offset="1" stop-color="#ECE4D3"/>
</linearGradient>
<linearGradient id="paint6_linear_2230_18415" x1="701.998" y1="536.323" x2="641.859" y2="540.723" gradientUnits="userSpaceOnUse">
<stop stop-color="#FFDED1"/>
<stop offset="1" stop-color="#F4D5E7"/>
</linearGradient>
<linearGradient id="paint7_linear_2230_18415" x1="510.738" y1="564.789" x2="515.263" y2="561.711" gradientUnits="userSpaceOnUse">
<stop stop-color="#66E0D4"/>
<stop offset="1" stop-color="#76D3DF"/>
</linearGradient>
</defs>
</svg>
