<svg width="1024" height="1024" viewBox="0 0 1024 1024" fill="none" xmlns="http://www.w3.org/2000/svg">
<path d="M842.803 360.002C838.411 352.713 834.471 342.976 831.3 335.095C812.056 287.283 789.071 241.02 756.648 200.65C746.012 187.408 743.131 187.622 727.613 180.739C693.961 165.812 657.619 156.7 624.153 141.735C614.558 137.445 609.747 121.701 596.07 131.795C588.13 137.023 579.739 143.308 571.306 147.711C532.33 165.209 477.351 164.901 436.092 156.179C420.339 152.849 407.57 146.592 393.954 138.665C381.793 142.274 380.52 147.903 371.931 152.166C346.586 164.745 317.742 174.891 291.35 184.888C245.817 202.136 218.681 233.813 197.316 276.499C179.016 313.544 160.751 354.155 148.698 393.955C147.096 399.245 144.397 404.061 149.026 407.416C160.721 414.268 169.136 420.448 179.797 428.905C203.041 447.344 226.351 469.961 257.358 472.569C262.313 468.985 267.505 464.775 270.826 459.554C276.694 453.609 284.141 440.073 287.246 432.268C289.096 439.169 290.399 449.74 291.456 457.094L297.335 499.893C301.851 532.338 306.534 568.545 306.725 601.125C306.958 640.744 301.799 682.287 297.083 721.739C293.028 755.663 287.31 783.641 286.08 818.16C263.778 816.7 242.346 816.163 220.006 815.599C209.231 814.924 197.263 814.887 186.647 812.827C152.88 806.275 122.017 792.691 98.6817 766.807C66.3464 730.941 52.3422 683.5 54.1788 635.764C55.304 606.517 59.8531 578.5 67.4208 550.237C76.0098 520.052 85.9152 489.024 96.5594 459.487C101.968 444.478 109.13 430.435 113.789 414.946C117.006 404.255 122.591 393.299 125.418 382.322C128.7 370.698 132.694 359.168 135.741 347.473C142.621 319.809 147.784 296.909 160.403 270.858C177.642 235.27 198.69 207.497 228.139 181.163C237.372 172.907 250.845 162.026 261.054 155.148C264.139 153.069 278.659 145.689 282.523 143.972C307.663 132.798 336.476 127.164 363.013 120.152C374.682 117.068 386.807 112.683 398.57 109.346C406.332 106.764 414.936 105.239 422.644 102.696C481.146 83.3945 543.394 74.5401 604.96 76.4444C618.71 77.4988 632.029 78.4553 645.781 80.3035C701.279 87.7624 758.04 104.967 803.292 138.957C814.596 147.447 821.847 152.869 831.379 163.163C856.904 190.729 872.656 224.499 870.202 262.669C868.19 292.679 860.931 322.95 847.441 349.873C846.495 351.761 843.697 359.191 842.803 360.002Z" fill="#FDE4CF"/>
<path d="M197.859 190.162C197.155 192.593 195.984 201.215 194.312 202.147C186.389 198.023 197.901 174.982 200.492 169.346C204.779 160.025 209.879 152.618 216.324 144.709C242.898 112.096 283.012 89.0761 325.109 85.2047C332.163 84.8199 336.467 85.1568 343.397 85.8441C323.376 90.5892 312.332 91.6369 292.36 99.7044C261.442 112.193 241.725 126.463 220.982 152.836C210.597 166.039 204.637 174.42 197.859 190.162Z" fill="#FDE4CF"/>
<path d="M177.663 166.354L176.015 165.958L175.424 164.828C176.024 154.426 186.671 139.116 193.31 131.609C203.926 119.603 213.039 111.804 229.347 110.714C230.209 110.699 229.748 110.613 230.69 111.131C229.957 111.754 230.08 111.786 229.249 112.05C214.334 116.791 197.235 134.92 188.539 147.531C184.792 152.965 181.443 160.436 177.663 166.354Z" fill="#FDE4CF"/>
<path d="M393.954 138.662C407.57 146.589 420.339 152.846 436.092 156.176C477.351 164.898 532.33 165.206 571.306 147.708C579.739 143.305 588.13 137.02 596.07 131.792C609.747 121.698 614.558 137.442 624.153 141.732C657.619 156.697 693.961 165.809 727.613 180.736C743.131 187.619 746.012 187.405 756.648 200.647C789.071 241.017 812.056 287.28 831.3 335.092C834.471 342.973 838.411 352.71 842.803 359.999C843.737 363.247 843.169 366.058 841.193 369.102C835.774 377.449 830.313 384.328 823.249 391.838C803.042 413.322 780.237 443.725 752.229 454.613C743.73 457.917 725.009 442.964 716.185 439.154C713.923 461.049 712.497 484.38 712.445 506.446C711.761 554.01 715.413 600.803 720.773 648.003C725.309 687.952 726.73 728.576 742.49 766.247C746.596 776.062 752.371 785.278 755.305 795.425C756.444 799.474 754.383 804.634 753.046 808.527C758.125 822.164 754.079 825.103 741.838 830.689C720.179 840.573 696.859 845.619 674.431 853.163C621.604 870.933 566.468 883.382 510.659 885.798C508.279 885.902 504.353 885.898 502.099 886.248C455.362 888.292 407.203 882.327 360.505 879.549C330.901 877.788 302.359 876.102 286.128 847.276C285.355 845.904 286.059 821.965 286.08 818.157C287.31 783.638 293.028 755.66 297.083 721.736C301.799 682.284 306.958 640.741 306.725 601.122C306.534 568.542 301.851 532.335 297.335 499.89L291.456 457.091C290.399 449.737 289.096 439.166 287.246 432.265C284.141 440.07 276.694 453.606 270.826 459.551C267.822 460.76 266.515 463.834 264.487 466.083C263.644 467.019 260.389 468.468 259.203 469.027L258.808 468.764C259.792 465.847 261.107 464.391 258.854 461.799C257.675 460.053 254.558 451.425 251.805 447.388C235.715 423.798 207.327 410.941 181.804 400.328C172.623 396.51 162.594 392.689 153.336 390.513C152.05 394.215 151.121 397.809 149.674 401.51C149.562 402.142 149.284 403.34 149.538 403.867L152.191 405.721L149.026 407.413C144.397 404.058 147.096 399.242 148.698 393.952C160.751 354.152 179.016 313.541 197.316 276.496C218.681 233.81 245.817 202.133 291.35 184.885C317.742 174.888 346.586 164.742 371.931 152.163C380.52 147.9 381.793 142.271 393.954 138.662ZM663.937 163.895C666.552 163.68 668.688 163.543 671.34 163.507C657.822 158.936 635.172 151.145 622.727 144.461C621.809 152.667 618.938 158.789 615.138 166.107L614.691 167.337C607.33 177.618 603.924 189.78 593.79 199.249C592.461 200.49 581.302 212.211 581.251 212.312C583.064 212.638 584.376 212.818 586.21 212.985C589.776 213.959 600.648 212.353 602.362 213.784C595.276 213.882 586.09 214.129 579.074 213.635C571.229 219.173 563.625 224.567 554.97 228.934C530.568 241.263 502.422 245.23 475.504 240.662C461.989 238.368 449.351 233.811 436.973 228.055C429.843 224.74 423.869 220.186 417.335 215.899C416.642 215.444 415.271 215.408 414.448 215.407L414.676 214.914L414.098 214.551L414.444 213.746C413.345 212.132 403.871 203.799 401.561 201.534C392.188 192.343 386.241 184.806 378.872 173.99L377.577 173.228C377.927 171.838 373.274 158.763 372.509 155.817C357.729 162.209 343.31 168.619 328.336 174.619C323.375 176.607 313.009 179.831 309.081 181.925L307.508 182.925C295.296 183.653 245.263 211.48 239.232 222.29L238.229 222.975C230.289 228.547 214.86 251.547 210.101 260.665C212.896 261.772 215.628 262.701 218.16 264.305L217.917 265.061C214.838 263.536 212.974 262.592 209.712 261.493C204.411 271.13 192.386 292.281 189.045 301.767L189.374 302.579C190.587 303.037 191.32 303.332 192.586 303.678L191.975 304.545C189.974 303.909 189.831 303.476 188.205 303.966C186.729 306.505 185.437 309.239 184.306 311.952C179.951 322.407 174.622 332.741 170.514 343.263C170.993 344.214 170.72 343.918 171.124 344.305L170.246 345.044C168.02 347.391 155.423 383.328 154.106 388.214C174.662 392.335 209.021 407.936 227.239 419.092C236.164 424.558 249.306 436.439 255.115 445.402C259.103 451.556 260.878 456.083 263.449 462.919C268.316 456.879 283.34 437.799 282.208 430.891C280.537 420.697 262.419 402.683 255.331 395.736L256.927 395.332C270.534 406.062 275.928 414.086 285.384 428.072C286.936 423.769 290.415 415.56 291.367 411.931L292.536 411.548C292.238 413.126 291.46 416.19 291.821 417.585L292.238 418.035L292.932 419.008C288.561 425.296 291.156 432.284 292.253 439.321C293.307 446.075 294.618 452.83 295.735 459.585L301.263 460.028C299.799 460.232 297.218 460.366 296.146 461.102C296.069 463.741 296.476 466.336 296.84 468.944C298.335 479.657 300.127 490.33 301.45 501.066C307.646 501.023 315.389 500.794 321.509 501.067C317.864 501.258 311.038 501.363 307.792 502C315.741 502.604 323.818 501.741 331.55 502.107C323.927 502.963 310.008 502.57 301.832 502.551L305.831 535.968C306.194 539.023 307.639 549.976 307.521 552.534L307.906 553.527C309.307 568.455 310.433 585.356 310.595 600.315L310.99 601.492C310.485 603.446 309.301 648.263 309.315 648.32L309.86 648.762L309.396 649.271C310.506 649.331 311.449 649.39 312.553 649.515C310.324 649.946 310.257 649.591 308.824 650.87C307.101 664.002 306.733 678.696 304.797 691.769L309.979 692.437L310.996 693.525C308.933 693.332 306.759 693.087 304.7 692.981L300.085 727.932C299.7 730.942 298.3 740.749 298.391 743.164C299.229 743.793 299.31 743.902 300.232 744.378L300.058 744.663L298.308 744.723C297.09 746.543 291.958 787.602 292.411 791.088L293.608 791.859L293.742 792.534C290.615 793.813 291.361 795.543 291.214 798.798C290.824 805.944 290.437 812.819 290.37 819.974C290.24 824.544 289.491 838.588 290.923 842.338L291.154 843.344L292.218 843.255C316.027 850.084 343.07 853.015 367.473 856.843C394.226 861.039 420.073 866.777 447.314 866.206C451.436 866.12 459.369 866.276 463.201 865.591C466.04 865.796 469.936 865.538 472.837 865.404C520.688 863.567 567.449 856.341 614.519 848.208C644.734 842.988 669.835 835.069 698.957 825.753C701.586 825.053 702.651 824.827 705.104 823.58L705.455 821.856C707.209 821.223 710.334 821.363 712.386 820.504C724.928 815.255 746.873 814.138 752.321 800.055C751.055 793.48 746.617 783.922 743.165 777.82C742.641 776.893 740.65 777.348 739.372 777.43L739.918 776.561C741.049 776.264 740.661 776.431 741.609 775.751C741.708 773.036 737.082 763.068 735.794 760.012C733.976 755.696 730.87 739.903 728.359 737.656L728.753 737.007C728.882 734.917 726.058 722.854 725.374 719.935C722.614 708.172 722.399 696.027 720.296 684.321L719.114 683.791L718.743 683.324L719.658 682.477C720.132 680.299 716.63 645.869 715.934 642.037C714.865 641.019 714.611 641.385 712.643 641.316C713.549 640.597 714.097 640.833 715.525 640.746L715.669 640.28C715.591 633.107 713.983 620.804 713.447 613.264C713.021 607.273 712.13 591.492 711.07 586.244L709.763 585.626L709.918 584.993L710.685 584.456C711.483 582.38 708.799 539.668 708.397 534.45L707.977 533.442C708.591 532.604 708.72 532.448 708.722 531.34C708.752 515.895 709.064 500.477 709.381 485.035C663.528 490.083 618.82 495.128 572.455 492.61C579.728 492.049 613.214 494.06 616.086 491.404C618.391 490.585 634 490.408 637.402 490.202C661.481 488.739 685.58 485.939 709.484 482.789C710.362 467.552 711.589 452.474 712.852 437.289C712.608 436.976 712.365 436.663 712.121 436.35L712.073 435.869C716.936 430.204 714.133 399.582 712.257 391.411C711.094 390.213 711.299 390.621 708.97 390.582L708.79 390.067C710.495 389.696 710.888 389.931 711.871 388.893C710.742 378.224 709.714 367.83 709.842 357.092C709.878 354.1 710.086 350.848 709.672 347.918L709.536 347.218C710.579 344.612 710.535 328.107 711.831 322.528L713.428 321.578C713.054 325.976 711.228 345.632 712.582 348.4C712.733 349.093 712.928 350.207 713.178 350.827C710.218 357.135 713.929 401.785 717.675 408.946L718.296 409.524C717.903 412.678 718.426 417.036 718.359 420.509C718.247 426.258 717.669 431.037 716.908 436.728C720.95 439.112 724.703 441.41 728.648 443.949L730.756 444.142C736.347 446.663 742.17 451.83 748.111 451.198C750.586 448.829 755.208 437.743 758.065 434.033C777.057 409.375 806.966 366.109 838.518 358.893C837.169 355.948 834.784 350.379 832.423 348.307L831.739 347.991L830.961 345.725C831.19 345.447 831.053 345.69 831.255 344.643C828.627 338.278 818.583 312.293 815.807 308.317L813.418 309.11C814.559 308.303 814.565 308.39 815.252 307.198C813.566 301.801 799.482 270.744 795.923 267.812L795.336 267.244C795.704 264.723 778.395 235.625 775.22 232.824L773.982 233.125L773.581 232.72C773.897 232.27 774.354 231.893 774.146 231.467C770.576 224.148 753.617 200.428 748.044 196.463L747.616 195.783C747.333 195.078 747.034 194.617 746.468 194.103C743.133 191.073 738.561 188.992 734.519 187.108C727.16 183.678 678.124 164.083 673.919 164.656C672.796 164.809 671.718 164.912 670.587 164.993L671.161 164.519L670.897 164.217C668.547 164.06 666.286 163.974 663.937 163.895ZM470.61 869.48C455.25 870.019 442.353 870.731 426.963 869.478C406.198 867.789 386.284 863.46 365.82 860.597C337.896 856.691 316.863 854.236 289.96 845.118C296.346 856.351 308.623 867.028 321.194 870.649C336.312 875.003 353.536 874.339 368.963 876.128C388.255 878.364 407.486 878.479 426.576 879.987C453.126 882.085 474.112 883.535 500.686 882.468C512.45 882.804 528.315 880.767 540.081 879.597C554.845 878.323 569.445 874.939 583.997 872.684C621.006 866.948 655.915 854.47 691.574 843.542C710.136 837.853 729.986 833.311 746.948 823.496C750.948 821.181 752.952 815.546 750.193 811.595C748.586 811.73 742.717 815.113 739.563 816.162C714.495 824.504 689.465 833.864 664.127 841.3C635.234 849.78 605.591 854.174 575.954 858.903C540.166 864.614 506.879 867.54 470.61 869.48ZM602.151 132.964C592.065 139.197 577.307 150.101 566.744 153.785C516.177 171.425 443.314 170.652 396.377 144.043C398.514 151.367 399.577 154.288 403.15 160.968C409.376 170.961 412.238 176.359 424.496 178.623C465.396 186.176 508.47 188.368 549.324 179.431C563.304 176.373 576.03 171.119 589.357 166.607C593.944 158.463 602.918 142.739 602.938 133.7C602.375 132.969 602.699 133.124 602.151 132.964ZM606.994 132.628C603.773 157.844 585.566 182.094 565.764 197.29C547.755 211.11 524.552 219.474 501.396 220.505C460.526 222.325 419.042 195.097 398.454 160.607C395.216 155.185 393.711 148.812 392.28 142.774C375.514 150.671 373.093 152.273 380.904 169.274C389.965 185.577 404.462 199.935 418.768 211.804C478.256 261.162 575.662 241.072 609.441 171.248C614.125 161.588 618.382 153.176 619.714 142.269C615.87 139.026 611.335 133.965 606.994 132.628ZM584.524 171.509C575.557 174.745 562.949 179.612 553.913 181.822C521.439 189.765 485.797 190.441 452.759 185.987C442.226 184.567 427.505 182.669 417.542 179.438C422.774 184.465 428.071 189.035 433.821 193.473C457.758 211.095 483.085 220.094 512.995 215.367C537.85 211.439 559.958 199.969 577.219 181.561C579.141 179.512 584.268 174.18 585.27 171.787L584.524 171.509ZM835.771 362.518C808.408 373.647 783.565 406.95 765.848 430.027C763.36 433.267 754.101 446.5 753.219 449.653L753.759 450.181C755.013 449.765 755.324 449.683 756.469 449.053C762.86 445.237 768.89 441.132 774.55 436.277C786.49 426.037 836.089 376.568 839.162 365.373C839.368 364.626 839.294 363.905 839.213 363.15C838.069 362.16 837.758 362.536 835.771 362.518Z" fill="#555666"/>
<path d="M396.377 144.044C443.314 170.653 516.177 171.426 566.744 153.786C577.307 150.102 592.065 139.198 602.151 132.965C602.699 133.125 602.375 132.97 602.938 133.701C602.918 142.74 593.944 158.464 589.357 166.608C576.03 171.12 563.304 176.374 549.324 179.432C508.47 188.369 465.396 186.177 424.496 178.624C412.238 176.36 409.376 170.962 403.15 160.969C399.577 154.289 398.514 151.368 396.377 144.044Z" fill="url(#paint0_linear_2230_18303)"/>
<path d="M392.279 142.775C393.71 148.813 395.215 155.186 398.453 160.608C419.041 195.098 460.525 222.326 501.395 220.506C524.551 219.475 547.754 211.111 565.763 197.291C585.565 182.095 603.772 157.845 606.993 132.629C611.334 133.966 615.869 139.027 619.713 142.27C618.381 153.177 614.124 161.589 609.44 171.249C575.661 241.073 478.255 261.163 418.767 211.805C404.461 199.936 389.964 185.578 380.903 169.275C373.092 152.274 375.513 150.672 392.279 142.775Z" fill="#F1C0E8"/>
<path d="M663.938 163.899C655.127 164.059 619.898 168.353 615.139 166.111C618.939 158.793 621.81 152.671 622.728 144.465C635.173 151.149 657.823 158.94 671.341 163.511C668.689 163.547 666.553 163.684 663.938 163.899Z" fill="#FDE4CF"/>
<path d="M377.576 173.231C359.302 176.845 327.68 181.916 309.08 181.928C313.008 179.834 323.374 176.61 328.335 174.622C343.309 168.622 357.728 162.212 372.508 155.82C373.273 158.766 377.926 171.841 377.576 173.231Z" fill="#98F5E1"/>
<path d="M615.138 166.11C619.897 168.352 655.126 164.058 663.937 163.898C666.286 163.977 668.547 164.063 670.897 164.22L671.161 164.522L670.587 164.996C651.264 164.976 633.833 168.624 614.691 167.34L615.138 166.11Z" fill="#2E313B"/>
<path d="M614.69 167.338C633.832 168.622 651.263 164.974 670.586 164.994C671.717 164.913 672.795 164.81 673.918 164.657C678.123 164.084 727.159 183.679 734.518 187.109C738.56 188.993 743.132 191.074 746.467 194.104C747.033 194.618 747.332 195.079 747.615 195.784C743.889 202.273 740.831 208.706 737.562 215.434C711.789 215.129 687.049 214.913 661.282 214.097C639.475 213.406 607.67 211.599 586.209 212.986C584.375 212.819 583.063 212.639 581.25 212.313C581.301 212.212 592.46 200.491 593.789 199.25C603.923 189.781 607.329 177.619 614.69 167.338Z" fill="#FFCFD2"/>
<path d="M417.543 179.441C427.506 182.672 442.227 184.57 452.76 185.99C485.798 190.444 521.44 189.768 553.914 181.825C562.95 179.615 575.558 174.748 584.525 171.512L585.271 171.79C584.269 174.183 579.142 179.515 577.22 181.564C559.959 199.972 537.851 211.442 512.996 215.37C483.086 220.097 457.759 211.098 433.822 193.476C428.072 189.038 422.775 184.468 417.543 179.441Z" fill="#F1C0E8"/>
<path d="M309.081 181.927C327.681 181.915 359.303 176.844 377.577 173.23L378.872 173.992C360.856 177.831 325.664 184.122 307.508 182.927L309.081 181.927Z" fill="#2E313B"/>
<path d="M307.508 182.927C325.664 184.122 360.856 177.831 378.872 173.992C386.241 184.808 392.188 192.345 401.561 201.536C403.871 203.801 413.345 212.134 414.444 213.748L414.098 214.553C408.584 214.532 403.196 215.059 397.706 215.242C346.734 216.942 295.752 220.436 244.99 225.276C241.262 225.632 241.433 225.295 239.232 222.292C245.263 211.482 295.296 183.655 307.508 182.927Z" fill="#FFCFD2"/>
<path d="M747.616 195.785L748.044 196.465C734.282 222.09 725.883 254.533 719.369 282.635C737.125 263.875 754.83 249.671 773.581 232.722L773.982 233.127C769.279 238.931 763.038 242.915 757.629 248.056C745.345 259.732 730.422 270.343 720.118 283.774C717.172 288.11 713.706 315.716 713.428 321.58L711.831 322.53C712.365 315.484 713.453 305.855 714.712 298.932C632.904 299.854 551.594 301.302 469.891 306.347C432.026 308.685 394.133 307.975 356.236 312.21C335.661 314.51 307.368 320.102 286.738 317.722C290.741 332.272 292.656 349.372 293.848 364.371C318.4 365.697 345.075 362.043 369.753 359.564C393.349 357.194 415.819 355.974 439.375 354.536C488.872 351.514 536.763 356.647 586.213 353.073C616.458 350.887 647.135 349.288 677.434 348.086C682.593 347.881 705.45 346.742 709.536 347.22L709.672 347.92C660.047 349.879 610.446 352.626 560.853 355.454C541.328 356.568 520.306 354.814 500.693 354.817C456.755 353.451 412.616 356.922 368.878 360.849C344.115 363.072 318.88 367.075 293.979 365.578C295.07 381.84 295.094 395.487 292.536 411.55L291.367 411.933C292.37 405.691 292.95 400.447 293.542 394.145C271.386 362.59 228.667 317.887 191.975 304.547L192.586 303.68C230.403 318.156 260.555 351.286 286.258 381.571C289.008 384.812 290.912 388.621 293.25 392.079L293.949 391.656C294.481 388.594 294.368 384.724 293.606 381.703C293.461 368.214 291.716 350.18 289.333 336.71C288.461 331.782 282.147 324.5 278.797 320.136C260.245 295.964 243.809 280.632 217.917 265.063L218.16 264.307C244.148 276.697 272.745 307.441 288.394 330.983C284.869 303.771 267.97 267.288 253.43 244.346C248.472 236.522 243.377 230.393 238.229 222.977L239.232 222.292C241.433 225.295 241.262 225.632 244.99 225.276C295.752 220.436 346.734 216.942 397.706 215.242C403.196 215.059 408.584 214.532 414.098 214.553L414.676 214.916L414.448 215.409C384.366 217.103 354.386 217.806 324.332 220.041L264.749 224.394C257.915 224.916 249.087 226.403 242.735 226.609C251.231 236.826 262.707 255.949 268.369 268.079C274.564 280.42 284.041 302.904 286.427 316.393C308.903 318.235 333 313.506 355.255 311.062C369.639 309.483 385.761 308.611 400.249 307.811C425.951 306.392 452.008 306.19 477.719 304.804C540.947 301.397 604.206 298.597 667.536 298.413C683.332 298.367 699.002 297.916 714.855 298.123C716.037 288.729 720.684 270.567 723.21 261.092C713.837 259.93 703.843 259.582 694.377 258.766C642.335 254.283 590.352 256.283 538.247 258.783C458.055 262.631 377.667 259.531 297.474 263.427C289.042 263.836 278.896 266.045 270.634 265.823L270.983 265.355C285.338 259.152 416.503 259.962 440.052 259.855L501.422 258.976C545.967 257.966 590.521 254.662 635.099 254.967C659.693 255.136 684.32 257.068 708.842 258.822C713.705 259.17 718.617 259.482 723.444 260.174C726.871 245.744 732.261 230.224 737.688 216.436C721.949 215.819 704.377 216.447 688.387 216.146L602.362 213.786C600.648 212.355 589.776 213.961 586.21 212.987C607.671 211.6 639.476 213.407 661.283 214.098C687.05 214.914 711.79 215.13 737.563 215.435C740.832 208.707 743.89 202.274 747.616 195.785Z" fill="#2E313B"/>
<path d="M748.044 196.465C753.617 200.43 770.576 224.15 774.146 231.469C774.354 231.895 773.897 232.272 773.581 232.722C754.83 249.671 737.125 263.875 719.369 282.635C725.883 254.533 734.282 222.09 748.044 196.465Z" fill="#8EECF5"/>
<path d="M579.073 213.637C586.089 214.131 595.275 213.884 602.361 213.786L688.386 216.146C704.376 216.447 721.948 215.819 737.687 216.436C732.26 230.224 726.87 245.744 723.443 260.174C718.616 259.482 713.704 259.17 708.841 258.822C684.319 257.068 659.692 255.136 635.098 254.967C590.52 254.662 545.966 257.966 501.421 258.976L440.051 259.855C416.502 259.962 285.337 259.152 270.982 265.355L270.633 265.823L268.368 268.079C262.706 255.949 251.23 236.826 242.734 226.609C249.086 226.403 257.914 224.916 264.748 224.394L324.331 220.041C354.385 217.806 384.365 217.103 414.447 215.409C415.27 215.41 416.641 215.446 417.334 215.901C423.868 220.188 429.842 224.742 436.972 228.057C449.35 233.813 461.988 238.37 475.503 240.664C502.421 245.232 530.567 241.265 554.969 228.936C563.624 224.569 571.228 219.175 579.073 213.637Z" fill="#8EECF5"/>
<path d="M210.102 260.667C214.861 251.549 230.29 228.549 238.23 222.977C243.378 230.393 248.473 236.522 253.431 244.346C267.971 267.288 284.87 303.771 288.395 330.983C272.746 307.441 244.149 276.697 218.161 264.307C215.629 262.703 212.897 261.774 210.102 260.667Z" fill="#B9FBC0"/>
<path d="M713.429 321.578C713.707 315.714 717.173 288.108 720.119 283.772C730.423 270.341 745.346 259.73 757.63 248.054C763.039 242.913 769.28 238.929 773.983 233.125L775.221 232.824C778.396 235.625 795.705 264.723 795.337 267.244C787.334 274.107 778.879 280.561 770.767 287.355C747.776 306.608 729.861 323.945 712.583 348.4C711.229 345.632 713.055 325.976 713.429 321.578Z" fill="#90DBF4"/>
<path d="M270.634 265.821C278.896 266.043 289.042 263.834 297.474 263.425C377.667 259.529 458.055 262.629 538.247 258.781C590.352 256.281 642.335 254.281 694.377 258.764C703.843 259.58 713.837 259.928 723.21 261.09C720.684 270.565 716.037 288.727 714.855 298.121C699.002 297.914 683.332 298.365 667.536 298.411C604.206 298.595 540.947 301.395 477.719 304.802C452.008 306.188 425.951 306.39 400.249 307.809C385.761 308.609 369.639 309.481 355.255 311.06C333 313.504 308.903 318.233 286.427 316.391C284.041 302.902 274.564 280.418 268.369 268.077L270.634 265.821Z" fill="#F1C0E8"/>
<path d="M209.712 261.496C212.974 262.595 214.838 263.539 217.917 265.064C243.809 280.633 260.245 295.965 278.797 320.137C282.147 324.501 288.461 331.783 289.333 336.711C291.716 350.181 293.461 368.215 293.606 381.704C293.564 384.32 293.607 389.73 293.25 392.08C290.912 388.622 289.008 384.813 286.258 381.572C260.555 351.287 230.403 318.157 192.586 303.681C191.32 303.335 190.587 303.04 189.374 302.582L189.045 301.77C192.386 292.284 204.411 271.133 209.712 261.496Z" fill="#8EECF5"/>
<path d="M712.582 348.402C729.86 323.947 747.775 306.61 770.766 287.357C778.878 280.563 787.333 274.109 795.336 267.246L795.923 267.814C788.117 275.747 773.27 286.69 764.171 294.662C743.134 313.09 729.834 328.965 713.178 350.829C712.928 350.209 712.733 349.095 712.582 348.402Z" fill="#2E313B"/>
<path d="M795.924 267.812C799.483 270.744 813.567 301.802 815.253 307.199C814.566 308.391 814.56 308.304 813.419 309.111L812.805 309.673C807.43 312.41 798.771 319.432 793.573 323.224C760.132 347.624 738.779 373.806 717.676 408.947C713.93 401.786 710.219 357.136 713.179 350.828C729.835 328.964 743.135 313.088 764.172 294.66C773.271 286.688 788.118 275.746 795.924 267.812Z" fill="#8EECF5"/>
<path d="M711.831 322.532C710.535 328.111 710.579 344.616 709.536 347.222C705.45 346.744 682.593 347.883 677.434 348.088C647.135 349.29 616.458 350.889 586.213 353.075C536.763 356.649 488.872 351.516 439.375 354.538C415.819 355.976 393.349 357.196 369.753 359.566C345.075 362.045 318.4 365.699 293.848 364.373C292.656 349.374 290.741 332.274 286.738 317.724C307.368 320.104 335.661 314.512 356.236 312.212C394.133 307.977 432.026 308.687 469.891 306.349C551.594 301.304 632.904 299.856 714.712 298.934C713.453 305.857 712.365 315.486 711.831 322.532Z" fill="#FFCFD2"/>
<path d="M171.124 344.308C170.72 343.921 170.993 344.217 170.514 343.266C174.622 332.744 179.951 322.41 184.306 311.955C185.437 309.242 186.729 306.508 188.205 303.969C189.831 303.479 189.974 303.912 191.975 304.548C228.667 317.888 271.386 362.591 293.542 394.146C292.95 400.448 292.37 405.692 291.367 411.934C290.415 415.563 286.936 423.772 285.384 428.075C275.928 414.089 270.534 406.065 256.927 395.335C233.358 373.67 201.175 355.074 171.124 344.308Z" fill="#F1C0E8"/>
<path d="M812.804 309.675L813.418 309.113L815.807 308.32C818.583 312.296 828.627 338.281 831.255 344.646C831.053 345.693 831.19 345.45 830.961 345.728C795.545 365.364 748.09 408.076 728.648 443.952C724.703 441.413 720.95 439.115 716.908 436.731C717.669 431.04 718.247 426.261 718.359 420.512C718.426 417.039 717.903 412.681 718.296 409.527C720.034 407.173 721.825 404.483 723.336 401.925C743.759 367.347 773.194 339.352 805.337 315.74C807.705 314 810.833 311.743 812.804 309.675Z" fill="#B9FBC0"/>
<path d="M717.676 408.95C738.779 373.809 760.132 347.627 793.573 323.227C798.771 319.435 807.43 312.413 812.805 309.676C810.834 311.744 807.706 314.001 805.338 315.741C773.195 339.353 743.76 367.348 723.337 401.926C721.826 404.484 720.035 407.174 718.297 409.528L717.676 408.95Z" fill="#2E313B"/>
<path d="M170.246 345.048L171.124 344.309C201.175 355.075 233.358 373.671 256.927 395.336L255.331 395.74C227.092 372.169 204.382 359.138 170.246 345.048Z" fill="#2E313B"/>
<path d="M154.105 388.217C155.422 383.331 168.019 347.394 170.245 345.047C204.381 359.137 227.091 372.168 255.33 395.739C262.418 402.686 280.536 420.7 282.207 430.894C283.339 437.802 268.315 456.882 263.448 462.922C260.877 456.086 259.102 451.559 255.114 445.405C249.305 436.442 236.163 424.561 227.238 419.095C209.02 407.939 174.661 392.338 154.105 388.217Z" fill="#8EECF5"/>
<path d="M728.648 443.951C748.09 408.075 795.545 365.363 830.961 345.727L831.739 347.993L832.423 348.309C822.194 354.977 811.673 361.619 801.908 369.039C783.134 383.306 766.09 401.053 750.478 418.649C743.345 426.688 737.391 436.057 730.756 444.144L728.648 443.951Z" fill="#555666"/>
<path d="M293.978 365.58C318.879 367.077 344.114 363.074 368.877 360.851C412.615 356.924 456.754 353.453 500.692 354.819C520.305 354.816 541.327 356.57 560.852 355.456C610.445 352.628 660.046 349.881 709.671 347.922C710.085 350.852 709.877 354.104 709.841 357.096C709.713 367.834 710.741 378.228 711.87 388.897C710.887 389.935 710.494 389.7 708.789 390.071C702.149 390.081 694.033 390.649 687.376 391.269C572.424 401.981 456.449 396.547 341.938 412.52C326.162 414.72 307.913 417.913 292.237 418.039L291.82 417.589C291.459 416.194 292.237 413.13 292.535 411.552C295.093 395.489 295.069 381.842 293.978 365.58Z" fill="#8EECF5"/>
<path d="M730.756 444.144C737.391 436.057 743.345 426.688 750.478 418.649C766.09 401.053 783.134 383.306 801.908 369.039C811.673 361.619 822.194 354.977 832.423 348.309C834.784 350.381 837.169 355.95 838.518 358.895C806.966 366.111 777.057 409.377 758.065 434.035C755.208 437.745 750.586 448.831 748.111 451.2C742.17 451.832 736.347 446.665 730.756 444.144Z" fill="#B9FBC0"/>
<path d="M756.469 449.055C755.324 449.685 755.013 449.767 753.759 450.183L753.219 449.655C754.101 446.502 763.36 433.269 765.848 430.029C783.565 406.952 808.408 373.649 835.771 362.52C837.758 362.538 838.069 362.162 839.213 363.152C839.294 363.907 839.368 364.628 839.162 365.375C836.089 376.57 786.49 426.039 774.55 436.279C768.89 441.134 762.86 445.239 756.469 449.055Z" fill="#8EECF5"/>
<path d="M293.606 381.703C294.368 384.724 294.481 388.594 293.949 391.656L293.25 392.079C293.607 389.729 293.564 384.319 293.606 381.703Z" fill="#6791A1"/>
<path d="M292.238 418.038C307.914 417.912 326.163 414.719 341.939 412.519C456.45 396.546 572.425 401.98 687.377 391.268C694.034 390.648 702.15 390.08 708.79 390.07L708.97 390.585C704.297 391.425 693.982 391.956 688.907 392.338L651.021 395.146C550.256 402.633 448.705 399.123 348.284 412.697C332.292 414.858 308.558 419.4 292.932 419.011L292.238 418.038Z" fill="#2E313B"/>
<path d="M149.674 401.513C151.121 397.812 152.05 394.218 153.336 390.516C162.594 392.692 172.623 396.513 181.804 400.331C207.327 410.944 235.715 423.801 251.805 447.391C254.558 451.428 257.675 460.056 258.854 461.802C259.083 463.533 259.451 463.861 258.786 465.096C257.347 464.014 256.023 459.954 254.748 458.098C237.133 432.45 203.413 419.507 175.491 408.487C168.312 405.654 156.729 401.386 149.674 401.513Z" fill="#8EECF5"/>
<path d="M292.933 419.009C308.559 419.398 332.293 414.856 348.285 412.695C448.706 399.121 550.257 402.631 651.022 395.144L688.908 392.336C693.983 391.954 704.298 391.423 708.971 390.583C711.3 390.622 711.095 390.214 712.258 391.412C714.134 399.583 716.937 430.205 712.074 435.87C706.804 434.93 684.874 438.356 678.306 439.094C666.703 440.53 654.908 442.337 643.216 442.842C621.005 443.802 598.814 441.891 576.57 443.164C567.88 443.4 559.232 444.278 550.584 445.02C536.048 446.267 521.026 449.1 506.457 449.475C458.331 450.712 410.593 450.198 362.587 455.266C347.423 456.867 331.485 456.816 316.25 458.128C312.17 458.406 299.168 458.901 295.736 459.586C294.619 452.831 293.308 446.076 292.254 439.322C291.157 432.285 288.562 425.297 292.933 419.009Z" fill="#90DBF4"/>
<path d="M149.537 403.868C149.283 403.341 149.561 402.143 149.673 401.511C156.728 401.384 168.311 405.652 175.49 408.485C203.412 419.505 237.132 432.448 254.747 458.096C256.022 459.952 257.346 464.012 258.785 465.094C259.45 463.859 259.082 463.531 258.853 461.8C261.106 464.392 259.791 465.848 258.807 468.765L259.202 469.028C260.388 468.469 263.643 467.02 264.486 466.084C266.514 463.835 267.821 460.761 270.825 459.552C267.504 464.773 262.312 468.983 257.357 472.567C226.35 469.959 203.04 447.342 179.796 428.903C169.135 420.446 160.72 414.266 149.025 407.414L152.19 405.722C155.262 406.847 165.735 413.814 168.907 416.057C193.365 433.355 224.848 465.833 255.688 468.789C253.286 462.516 250.413 458.214 245.865 453.263C241.972 449.026 232.804 441.062 228.203 438.335C214.62 430.282 163.104 404.355 149.537 403.868Z" fill="#625D6B"/>
<path d="M149.537 403.867C163.104 404.354 214.62 430.281 228.203 438.334C232.804 441.061 241.972 449.025 245.865 453.262C250.413 458.213 253.286 462.515 255.688 468.788C224.848 465.832 193.365 433.354 168.907 416.056C165.735 413.813 155.262 406.846 152.19 405.721L149.537 403.867Z" fill="#8EECF5"/>
<path d="M295.734 459.589C299.166 458.904 312.168 458.409 316.248 458.131C331.483 456.819 347.421 456.87 362.585 455.269C410.591 450.201 458.329 450.715 506.455 449.478C521.024 449.103 536.046 446.27 550.582 445.023C559.23 444.281 567.878 443.403 576.568 443.167C598.812 441.894 621.003 443.805 643.214 442.845C654.906 442.34 666.701 440.533 678.304 439.097C684.872 438.359 706.802 434.933 712.072 435.873L712.12 436.354C689.256 438.04 666.315 442.849 643.45 443.973C620.082 445.122 596.618 443.217 573.118 444.519C551.394 445.723 530.245 448.812 508.608 450.44C477.303 451.985 446.021 450.766 414.583 452.59C386.233 454.235 357.994 456.822 329.671 458.399C322.581 458.794 307.847 460.148 301.262 460.032L295.734 459.589Z" fill="#2E313B"/>
<path d="M301.263 460.03C307.848 460.146 322.582 458.792 329.672 458.397C357.995 456.82 386.234 454.233 414.584 452.588C446.022 450.764 477.304 451.983 508.609 450.438C530.246 448.81 551.395 445.721 573.119 444.517C596.619 443.215 620.083 445.12 643.451 443.971C666.316 442.847 689.257 438.038 712.121 436.352C712.365 436.665 712.608 436.978 712.852 437.291C711.589 452.476 710.362 467.554 709.484 482.791C685.58 485.941 661.481 488.741 637.402 490.204C634 490.41 618.391 490.587 616.086 491.406C591.785 491.469 567.292 491.165 543 490.559C468.759 488.707 395.67 499.754 321.509 501.069C315.389 500.796 307.646 501.025 301.45 501.068C300.127 490.332 298.335 479.659 296.84 468.946C296.476 466.338 296.069 463.743 296.146 461.104C297.218 460.368 299.799 460.234 301.263 460.03Z" fill="#F1C0E8"/>
<path d="M331.55 502.107C343.508 502.134 357.463 501.203 369.499 500.619C403.412 498.975 437.323 495.854 471.193 493.657C504.996 491.465 538.659 492.564 572.455 492.61C618.82 495.128 663.528 490.083 709.381 485.035C709.064 500.477 708.752 515.895 708.722 531.34C708.72 532.448 708.591 532.604 707.977 533.442C698.439 533.546 685.257 535.517 675.571 536.695C614.906 544.072 553.839 541.761 492.909 544.4C454.573 546.126 416.331 549.565 377.966 551.128C354.536 552.082 330.846 551.452 307.521 552.534C307.639 549.976 306.194 539.023 305.831 535.968L301.832 502.551C310.008 502.57 323.927 502.963 331.55 502.107Z" fill="#8EECF5"/>
<path d="M321.51 501.07C395.671 499.755 468.76 488.708 543.001 490.56C567.293 491.166 591.786 491.47 616.087 491.407C613.215 494.063 579.729 492.052 572.456 492.613C538.66 492.567 504.997 491.468 471.194 493.66C437.324 495.857 403.413 498.978 369.5 500.622C357.464 501.206 343.509 502.137 331.551 502.11C323.819 501.744 315.742 502.607 307.793 502.003C311.039 501.366 317.865 501.261 321.51 501.07Z" fill="#2E313B"/>
<path d="M712.446 506.449C730.012 527.363 746.947 557.435 759.097 581.62C808.407 679.771 866.993 828.055 760.046 911.058C689.754 965.612 598.624 937.326 528.576 899.608C521 895.529 508.562 891.339 502.1 886.251C504.354 885.901 508.28 885.905 510.66 885.801C566.469 883.385 621.605 870.936 674.432 853.166C696.86 845.622 720.18 840.576 741.839 830.692C754.08 825.106 758.126 822.167 753.047 808.53C754.384 804.637 756.445 799.477 755.306 795.428C752.372 785.281 746.597 776.065 742.491 766.25C726.731 728.579 725.31 687.955 720.774 648.006C715.414 600.806 711.762 554.013 712.446 506.449Z" fill="#98F5E1"/>
<path d="M307.521 552.537C330.846 551.455 354.536 552.085 377.966 551.131C416.331 549.568 454.573 546.129 492.909 544.403C553.839 541.764 614.906 544.075 675.571 536.698C685.257 535.52 698.439 533.549 707.977 533.445L708.397 534.453C698.665 534.98 687.433 536.427 677.714 537.655C618.569 545.131 559.177 542.963 499.753 545.135C461.99 546.514 423.956 550.384 386.168 551.965C360.066 553.089 333.986 552.748 307.906 553.53L307.521 552.537Z" fill="#34494E"/>
<path d="M307.906 553.53C333.986 552.748 360.066 553.089 386.168 551.965C423.956 550.384 461.989 546.514 499.752 545.135C559.176 542.963 618.569 545.131 677.714 537.655C687.433 536.427 698.665 534.98 708.397 534.453C708.799 539.671 711.483 582.383 710.685 584.459L709.918 584.996L709.334 585.036C701.789 585.604 693.734 587.04 686.194 588.038C662.252 591.21 638.128 593.637 613.974 594.285C604.301 594.544 594.497 594.846 584.828 594.924C564.702 595.088 545.138 598.722 525.017 599.547C497.617 600.67 470.384 597.294 442.968 599.058C406.976 601.071 371.017 604.935 334.925 602.762C327.473 602.306 317.908 601.697 310.595 600.318C310.433 585.359 309.307 568.458 307.906 553.53Z" fill="#B9FBC0"/>
<path d="M826.323 605.632C829.513 599.066 836.835 579.339 831.018 571.208C830.639 570.677 829.998 570.985 829.294 571.087C823.956 575.186 819.663 589.757 814.963 590.84L814.24 590.236C812.915 581.229 822.922 568.189 830.051 563.426C831.814 563.916 833.79 564.895 834.884 566.326C847.648 583.027 827.964 618.145 816.775 628.328L817.21 626.16C818.52 619.307 823.015 612.089 826.323 605.632Z" fill="#FDE4CF"/>
<path d="M310.596 600.318C317.909 601.697 327.474 602.306 334.926 602.762C371.018 604.935 406.977 601.071 442.969 599.058C470.385 597.294 497.618 600.67 525.018 599.547C545.139 598.722 564.703 595.088 584.829 594.924C594.498 594.846 604.302 594.544 613.975 594.285C638.129 593.637 662.253 591.21 686.195 588.038C693.735 587.04 701.79 585.604 709.335 585.036L709.919 584.996L709.764 585.629C680.937 590.696 650.7 593.464 621.548 595.288C609.865 596.019 597.123 596.084 585.361 596.161C561.934 596.316 539.291 600.975 515.863 600.987C492.08 600.999 468.426 598.913 444.645 600.153C407.919 602.15 371.314 606.236 334.482 603.873C327.146 603.402 318.169 603.081 310.991 601.495L310.596 600.318Z" fill="#34494E"/>
<path d="M310.99 601.495C318.168 603.081 327.145 603.402 334.481 603.873C371.313 606.236 407.918 602.15 444.644 600.153C468.425 598.913 492.079 600.999 515.862 600.987C539.29 600.975 561.933 596.316 585.36 596.161C597.122 596.084 609.864 596.019 621.547 595.288C650.699 593.464 680.936 590.696 709.763 585.629L711.07 586.247C712.13 591.495 713.021 607.276 713.447 613.267C713.983 620.807 715.591 633.11 715.669 640.283C709.864 639.657 691.102 641.015 684.099 641.355L618.197 644.345C601.874 644.936 584.762 644.591 568.464 644.116C516.246 642.593 464.345 648.019 412.251 649.854C378.058 651.059 344.175 644.66 309.86 648.765L309.315 648.323C309.301 648.266 310.485 603.449 310.99 601.495Z" fill="#8EECF5"/>
<path d="M835.012 633.518C833.374 633.879 834.112 633.986 832.707 633.381L832.295 632.128C832.783 628.27 845.525 607.909 848.227 605.413C850.327 605.45 849.883 605.138 851.386 606.129C853.541 611.886 839.007 629.408 835.012 633.518Z" fill="#FDE4CF"/>
<path d="M309.86 648.766C344.175 644.661 378.058 651.06 412.251 649.855C464.345 648.02 516.246 642.594 568.464 644.117C584.762 644.592 601.875 644.937 618.198 644.346L684.099 641.356C691.102 641.016 709.864 639.658 715.669 640.284L715.526 640.75C714.098 640.837 713.549 640.601 712.643 641.32C679.409 642.592 645.863 645.039 612.636 645.665C583.562 645.796 554.755 644.656 525.651 645.392C487.458 646.358 449.5 649.792 411.345 651.021C381.745 651.974 352.188 647.251 322.595 649.051C319.42 649.245 315.692 649.546 312.553 649.519C311.449 649.394 310.506 649.335 309.396 649.275L309.86 648.766Z" fill="#2E313B"/>
<path d="M312.553 649.518C315.692 649.545 319.42 649.244 322.595 649.05C352.188 647.25 381.745 651.973 411.345 651.02C449.5 649.791 487.457 646.357 525.65 645.391C554.754 644.655 583.562 645.795 612.636 645.664C645.863 645.038 679.409 642.591 712.643 641.319C714.611 641.388 714.865 641.022 715.934 642.04C716.63 645.872 720.132 680.302 719.658 682.48L718.743 683.327C711.809 682.192 681.203 686.341 672.651 687.19C649.081 689.531 625.561 691.164 601.952 693.08C564.866 696.254 527.689 694.151 490.609 695.035C442.668 696.178 395.133 703.854 347.162 697.223C336.358 695.73 320.515 692.551 309.979 692.44L304.797 691.772C306.733 678.699 307.101 664.005 308.824 650.873C310.257 649.594 310.324 649.949 312.553 649.518Z" fill="#90DBF4"/>
<path d="M309.979 692.437C320.515 692.548 336.357 695.727 347.161 697.22C395.132 703.851 442.668 696.175 490.609 695.032C527.689 694.148 564.866 696.251 601.952 693.077C625.561 691.161 649.081 689.528 672.651 687.187C681.203 686.338 711.808 682.189 718.742 683.324L719.114 683.791C672.35 688.548 624.968 693.334 578.036 695.558C546.652 697.046 515.297 695.28 483.941 696.428C451.493 697.616 419.76 701.516 387.186 701.024C370.305 700.769 357.052 700.082 340.243 697.617C334.735 696.809 315.923 693.525 310.996 693.525L309.979 692.437Z" fill="#2E313B"/>
<path d="M310.996 693.527C315.923 693.527 334.735 696.811 340.243 697.619C357.052 700.084 370.305 700.771 387.186 701.026C419.76 701.518 451.493 697.618 483.941 696.43C515.297 695.282 546.652 697.048 578.036 695.56C624.968 693.336 672.35 688.55 719.114 683.793L720.296 684.323C722.399 696.029 722.614 708.174 725.374 719.937C726.058 722.856 728.882 734.919 728.753 737.009L648.983 738.099C624.879 738.265 601.617 738.388 577.398 739.411C537.967 741.076 498.672 746.041 459.361 748.081C440.865 749.041 420.455 744.976 401.672 745.56C371.547 745.375 341.355 748.172 311.32 745.095C308.73 744.83 302.633 744.02 300.232 744.38C299.31 743.904 299.229 743.795 298.391 743.166C298.3 740.751 299.7 730.944 300.085 727.934L304.7 692.983C306.759 693.089 308.933 693.334 310.996 693.527Z" fill="#8EECF5"/>
<path d="M300.233 744.379C302.634 744.019 308.731 744.829 311.321 745.094C341.356 748.171 371.548 745.374 401.673 745.559C420.456 744.975 440.866 749.04 459.362 748.08C498.673 746.04 537.968 741.075 577.399 739.41C601.618 738.387 624.88 738.264 648.984 738.098L728.754 737.008L728.36 737.657C715.526 739.103 700.12 738.254 687.099 738.608C657.528 739.41 627.646 738.574 598.109 739.53C570.685 740.417 542.582 742.669 515.209 744.802C497.457 746.186 479.563 748.878 461.702 749.378C449.061 749.732 435.653 748.441 422.967 747.686C410.897 746.968 399.904 746.753 387.801 746.944C364.274 747.316 340.573 748.639 317.087 746.757C312.167 746.362 304.703 745.76 300.059 744.664L300.233 744.379Z" fill="#2E313B"/>
<path d="M300.058 744.663C304.702 745.759 312.166 746.361 317.086 746.756C340.572 748.638 364.273 747.315 387.8 746.943C399.903 746.752 410.896 746.967 422.966 747.685C435.652 748.44 449.06 749.731 461.701 749.377C479.562 748.877 497.456 746.185 515.208 744.801C542.581 742.668 570.684 740.416 598.108 739.529C627.645 738.573 657.527 739.409 687.098 738.607C700.119 738.253 715.525 739.102 728.359 737.656C730.87 739.903 733.976 755.696 735.794 760.012C737.082 763.068 741.708 773.036 741.609 775.751C740.661 776.431 741.049 776.264 739.918 776.561C700.605 778.465 659.692 783.142 620.499 783.404C556.554 783.831 495.629 786.541 432.017 792.985C387.87 797.457 337.745 795.705 293.608 791.859L292.411 791.088C291.958 787.602 297.09 746.543 298.308 744.723L300.058 744.663Z" fill="#FFCFD2"/>
<path d="M293.607 791.861C337.744 795.707 387.869 797.459 432.016 792.987C495.628 786.543 556.553 783.833 620.498 783.406C659.691 783.144 700.604 778.467 739.917 776.562L739.371 777.432C724.458 778.071 708.026 779.472 693.104 780.661C634.473 785.333 575.918 784.723 517.245 787.036C492.257 788.022 467.118 791.578 442.164 793.375C403.094 796.398 362.242 797.751 323.107 795.521C317.594 795.207 298.684 793.964 293.741 792.536L293.607 791.861Z" fill="#2E313B"/>
<path d="M293.743 792.538C298.686 793.966 317.596 795.21 323.109 795.524C362.244 797.754 403.096 796.4 442.166 793.377C467.12 791.58 492.259 788.025 517.247 787.039C575.92 784.726 634.475 785.336 693.106 780.664C708.028 779.475 724.46 778.073 739.373 777.434C740.651 777.352 742.642 776.897 743.166 777.824C746.618 783.926 751.056 793.484 752.322 800.059C746.874 814.142 724.929 815.259 712.387 820.508C710.335 821.367 707.21 821.227 705.456 821.86C692.143 823.303 680.84 822.241 667.729 822.95C660.685 823.331 652.153 826.754 644.889 827.731C612.475 832.086 579.937 832.847 547.278 832.899C542.636 832.906 532.831 832.52 528.594 833.285C501.762 833.787 472.707 834.459 445.946 835.99L405.379 838.376C399.471 838.729 391.245 839.51 385.597 839.531C383.789 837.9 352.589 827.694 347.028 825.318C333.368 819.164 319.539 813.211 306.346 806.101C301.751 803.625 296.199 800.082 291.215 798.802C291.362 795.547 290.616 793.817 293.743 792.538Z" fill="#8EECF5"/>
<path d="M291.213 798.801C296.197 800.081 301.749 803.624 306.344 806.1C319.537 813.21 333.366 819.163 347.026 825.317C342.664 825.625 332.321 823.529 327.44 823.039C315.935 821.883 301.879 819.946 290.369 819.977C290.436 812.822 290.823 805.947 291.213 798.801Z" fill="#FDE4CF"/>
<path d="M470.609 869.483C506.878 867.543 540.165 864.617 575.953 858.906C605.59 854.177 635.233 849.783 664.126 841.303C689.464 833.867 714.494 824.507 739.562 816.165C742.716 815.116 748.585 811.733 750.192 811.598C752.951 815.549 750.947 821.184 746.947 823.499C729.985 833.314 710.135 837.856 691.573 843.545C655.914 854.473 621.005 866.951 583.996 872.687C569.444 874.942 554.844 878.326 540.08 879.6C528.314 880.77 512.449 882.807 500.685 882.471C496.243 877.673 473.528 873.445 470.609 869.483Z" fill="#98F5E1"/>
<path d="M290.37 819.977C301.88 819.946 315.936 821.883 327.441 823.039C332.322 823.529 342.665 825.625 347.027 825.317C352.588 827.693 383.788 837.899 385.596 839.53C378.581 840.448 370.915 840.491 363.83 840.953C342.3 842.358 320.765 842.534 299.198 842.482C296.606 842.475 293.406 842.14 290.923 842.341C289.491 838.591 290.24 824.547 290.37 819.977Z" fill="#FFEDE1"/>
<path d="M528.594 833.284C532.831 832.519 542.636 832.905 547.278 832.898C579.937 832.846 612.475 832.085 644.889 827.73C652.153 826.753 660.685 823.33 667.729 822.949C680.84 822.24 692.143 823.302 705.456 821.859L705.105 823.583C701.713 823.967 697.033 824.351 693.767 824.929C684.551 824.659 675.427 824.149 666.225 825.329C658.921 826.16 651.632 828.568 644.392 829.627C620.505 833.12 595.425 835.427 571.262 834.715C558.037 834.326 543.05 835.42 530.144 834.556L528.594 833.284Z" fill="#555666"/>
<path d="M693.766 824.928C697.032 824.35 701.712 823.966 705.104 823.582C702.651 824.829 701.586 825.055 698.957 825.755C697.718 824.874 695.417 825.003 693.766 824.928Z" fill="#98F5E1"/>
<path d="M530.143 834.554C543.049 835.418 558.036 834.324 571.261 834.713C595.424 835.425 620.504 833.118 644.391 829.625C651.631 828.566 658.92 826.158 666.224 825.327C675.426 824.147 684.55 824.657 693.766 824.927C695.417 825.002 697.718 824.873 698.957 825.754C669.835 835.07 644.734 842.989 614.519 848.209C567.449 856.342 520.688 863.568 472.837 865.405C469.936 865.539 466.04 865.797 463.201 865.592C461.46 864.082 455.631 862.032 453.295 861.166C435.939 854.732 418.137 849.52 400.519 843.862C397.382 842.854 393.955 841.963 390.988 840.583C400.674 839.42 416.521 839.065 426.766 838.453C461.061 836.404 495.767 835.655 530.143 834.554Z" fill="#B9FBC0"/>
<path d="M385.597 839.527C391.245 839.506 399.471 838.725 405.379 838.372L445.946 835.986C472.707 834.455 501.762 833.783 528.594 833.281L530.144 834.553C495.768 835.654 461.062 836.403 426.767 838.452C416.522 839.064 400.675 839.419 390.989 840.582C367.17 840.757 343.003 844.056 319.002 843.395C315.227 843.291 293.998 842.731 292.219 843.255L291.155 843.344L290.924 842.338C293.407 842.137 296.607 842.472 299.199 842.479C320.766 842.531 342.301 842.355 363.831 840.95C370.916 840.488 378.582 840.445 385.597 839.527Z" fill="#2E313B"/>
<path d="M292.219 843.259C293.998 842.735 315.227 843.295 319.002 843.399C343.003 844.06 367.17 840.761 390.989 840.586C393.956 841.966 397.383 842.857 400.52 843.865C418.138 849.523 435.94 854.735 453.296 861.169C455.632 862.035 461.461 864.085 463.202 865.595C459.37 866.28 451.437 866.124 447.315 866.21C420.074 866.781 394.227 861.043 367.474 856.847C343.071 853.019 316.028 850.088 292.219 843.259Z" fill="#F1C0E8"/>
<path d="M289.961 845.121C316.864 854.239 337.897 856.694 365.821 860.6C386.285 863.463 406.199 867.792 426.964 869.481C442.354 870.734 455.251 870.022 470.611 869.483C473.53 873.445 496.245 877.673 500.687 882.471C474.113 883.538 453.127 882.088 426.577 879.99C407.487 878.482 388.256 878.367 368.964 876.131C353.537 874.342 336.313 875.006 321.195 870.652C308.624 867.031 296.347 856.354 289.961 845.121Z" fill="#F1C0E8"/>
<defs>
<linearGradient id="paint0_linear_2230_18303" x1="508.142" y1="109.528" x2="486.061" y2="193.767" gradientUnits="userSpaceOnUse">
<stop stop-color="#DDCFFF"/>
<stop offset="1" stop-color="#FEDDFE"/>
</linearGradient>
</defs>
</svg>
