<svg width="1024" height="1024" viewBox="0 0 1024 1024" fill="none" xmlns="http://www.w3.org/2000/svg">
<path d="M549.751 84.9854C540.537 86.6401 531.739 80.4701 530.156 71.243C528.573 62.016 534.811 53.2662 544.05 51.7549C553.188 50.2601 561.821 56.4154 563.387 65.5416C564.953 74.6678 558.865 83.3487 549.751 84.9854Z" fill="#E7D8E5"/>
<path d="M521.687 258.119C521.065 260.388 520.617 262.737 519.248 264.685L518.524 264.695C517.785 263.475 517.482 262.362 517.199 260.964C514.094 245.593 512.915 229.402 511.004 213.814C508.27 191.518 503.27 161.909 504.754 139.843C505.256 132.363 506.522 124.828 510.901 118.551C514.439 113.479 519.001 110.761 525.012 109.631C527.162 109.569 529.177 109.556 531.283 110.086C536.889 111.514 541.632 115.239 544.35 120.346C547.065 125.405 547.595 131.597 547.465 137.252C546.918 161.094 535.369 197.546 529.556 221.89C526.693 233.881 525.096 246.289 521.687 258.119ZM523.205 112.567C517.453 114.674 513.301 118.062 510.654 123.721C507.608 130.234 507.17 138.255 507.114 145.332C506.974 162.912 509.675 180.887 511.899 198.296C514.168 217.236 516.673 236.147 519.411 255.026C520.238 252.336 521.113 249.679 521.519 246.886C524.272 232.841 527.411 218.873 530.931 205C535.625 186.339 552.123 135.29 540.653 119.15C538.077 115.557 534.147 113.168 529.771 112.535C527.604 112.212 525.376 112.39 523.205 112.567Z" fill="#010102"/>
<path d="M519.412 255.026C516.674 236.147 514.169 217.236 511.9 198.296C509.676 180.887 506.975 162.912 507.115 145.332C507.171 138.255 507.609 130.234 510.655 123.721C513.302 118.062 517.454 114.674 523.206 112.567C525.377 112.39 527.605 112.212 529.772 112.535C534.148 113.168 538.078 115.557 540.654 119.15C552.124 135.29 535.626 186.339 530.932 205C527.412 218.873 524.273 232.841 521.52 246.886C521.114 249.679 520.239 252.336 519.412 255.026Z" fill="#C0C0C0"/>
<path d="M440.487 261.883C434.194 245.917 426.163 230.166 422.378 213.335C421.241 208.278 420.6 202.401 423.699 197.888C425.636 195.067 428.076 194.252 431.294 193.594C432.365 193.748 433.453 193.898 434.503 194.166C437.964 195.048 440.526 197.566 442.149 200.674C448.074 212.016 445.231 237.823 444.571 250.574C444.347 254.913 444.95 260.919 443.567 264.992L442.883 265.299C441.483 264.484 441.112 263.292 440.487 261.883ZM429.389 196.521C426.771 198.004 425.204 199.449 424.441 202.451C421.22 215.105 435.303 241.416 440.218 253.891L441.04 255.306C443.183 252.476 442.929 216.017 442.151 210.481C441.533 206.076 440.231 201.101 436.581 198.214C434.321 196.426 432.162 196.466 429.389 196.521Z" fill="#010102"/>
<path d="M440.217 253.888C435.302 241.413 421.219 215.102 424.44 202.448C425.203 199.446 426.77 198.001 429.388 196.518C432.161 196.463 434.32 196.423 436.58 198.211C440.23 201.098 441.532 206.073 442.15 210.478C442.928 216.014 443.182 252.473 441.039 255.303L440.217 253.888Z" fill="#C0C0C0"/>
<path d="M672.767 311.228C670.911 314.022 669.094 316.924 666.92 319.486C665.852 320.744 664.954 321.714 663.281 321.873L662.902 321.021C663.349 316.77 670.907 302.943 673.08 297.79C683.137 273.949 691.861 243.424 706.274 222.205C712.299 213.336 719.07 205.746 729.982 203.622C734.285 203.236 738.449 204.53 741.96 207.025C746.181 210.024 749.4 215.045 750.181 220.185C750.94 225.179 749.443 230.698 746.86 234.993C738.431 249.012 708.785 271.685 695.704 284.403C687.17 292.7 679.921 301.735 672.767 311.228ZM730.096 206.09C720.738 207.772 714.798 214.307 709.555 221.779C691.951 246.862 683.662 281.198 671.055 309.111C674.192 304.994 677.279 300.825 680.583 296.84C692.494 282.208 707.407 270.28 721.508 257.854C729.033 251.222 738.359 243.65 743.911 235.278C746.604 231.217 748.391 226.23 747.859 221.308C747.33 216.425 744.261 212.174 740.436 209.233C737.409 206.906 733.898 205.876 730.096 206.09Z" fill="#010102"/>
<path d="M671.055 309.107C683.662 281.194 691.951 246.858 709.555 221.775C714.798 214.303 720.738 207.768 730.096 206.086C733.898 205.872 737.409 206.902 740.436 209.229C744.261 212.17 747.33 216.421 747.859 221.304C748.391 226.226 746.604 231.213 743.911 235.274C738.359 243.646 729.033 251.218 721.508 257.85C707.407 270.276 692.494 282.204 680.583 296.836C677.279 300.821 674.192 304.99 671.055 309.107Z" fill="#C0C0C0"/>
<path d="M604.737 237.761C597.83 239.104 591.113 234.687 589.61 227.812C588.106 220.938 592.366 214.12 599.203 212.457C603.77 211.346 608.581 212.796 611.773 216.246C614.965 219.695 616.039 224.604 614.578 229.071C613.117 233.538 609.351 236.864 604.737 237.761ZM600.011 215.019C594.546 216.235 591.077 221.624 592.234 227.102C593.391 232.58 598.743 236.106 604.233 235.008C607.838 234.287 610.777 231.686 611.93 228.195C613.083 224.705 612.272 220.864 609.806 218.138C607.34 215.412 603.6 214.221 600.011 215.019Z" fill="#010102"/>
<path d="M604.233 235.01C598.743 236.108 593.391 232.582 592.234 227.104C591.077 221.626 594.546 216.237 600.011 215.021C603.6 214.223 607.34 215.414 609.806 218.14C612.272 220.866 613.083 224.707 611.93 228.197C610.777 231.688 607.838 234.289 604.233 235.01Z" fill="#E6F4DF"/>
<path d="M263.874 244.115C261.894 237.196 260.739 229.445 264.567 222.884C266.662 219.292 270.196 216.424 274.307 215.553C279.982 214.35 285.676 216.804 290.261 219.991C307.895 232.247 327.719 267.199 340.582 285.662L380.978 346.17C385.077 352.347 390.484 358.01 393.776 364.653C388.026 361.587 383.373 356.445 378.655 352.012L357.788 332.373C353.562 328.403 349.32 324.049 344.685 320.568C341.285 316.653 336.294 313.169 332.301 309.803C324.597 303.31 316.917 296.709 308.985 290.499C292.73 277.773 270.901 264.496 263.874 244.115ZM337.979 286.318C327.343 270.371 299.508 223.727 281.949 218.828C278.161 217.771 274.015 218.046 270.63 220.158C267.6 222.048 265.93 225.194 265.164 228.605C263.557 235.764 265.075 243.68 269.103 249.789C275.366 261.584 288.594 271.651 299.16 279.641C305.888 284.76 312.391 290.053 318.987 295.328L379.973 349.732C373.508 338.899 366.104 328.494 359.113 317.985C352.089 307.427 345.37 296.623 337.979 286.318Z" fill="#010102"/>
<path d="M269.103 249.788C265.075 243.679 263.557 235.763 265.164 228.604C265.93 225.193 267.6 222.047 270.63 220.157C274.015 218.045 278.161 217.77 281.949 218.827C299.508 223.726 327.343 270.37 337.979 286.317C337.824 286.391 337.67 286.466 337.514 286.537C331.06 289.475 323.687 289.321 318.987 295.327C312.391 290.052 305.888 284.759 299.16 279.64C299.31 278.568 299.596 277.198 299.365 276.134C297.733 268.633 281.416 258.603 275.449 254.41C273.28 252.886 271.424 251.1 269.103 249.788Z" fill="#C0C0C0"/>
<path d="M173.864 454.44C174.165 449.437 174.913 444.488 175.03 439.463C175.735 409.095 146.358 388.285 127.355 368.274C113.541 353.728 105.459 339.192 106.104 318.756C106.808 297.236 116.133 276.903 131.981 262.328C160.238 236.161 202.543 229.791 239.311 236.765C241.879 237.252 244.558 237.751 247.027 238.628C252.194 240.464 257.875 243.984 263.405 244.114C263.561 244.118 263.716 244.115 263.872 244.115C270.899 264.496 292.728 277.773 308.983 290.499C316.915 296.709 324.595 303.31 332.299 309.803C336.292 313.169 341.283 316.653 344.683 320.568L343.854 321.07C339.437 317.26 320.605 300.096 317.248 298.812C305.375 312.164 302.703 350.697 296.414 369.263C295.57 371.757 287.964 385.812 288.117 386.588C288.715 389.637 292.919 390.733 291.266 394.314C291.211 394.083 291.163 393.851 291.1 393.622C290.052 389.782 285.433 384.952 283.079 381.66C273.087 367.689 263.284 350.431 247.775 341.99C242.395 339.062 235.741 337 229.698 338.971C226.374 340.055 223.59 342.321 222.05 345.483C220.156 349.368 220.474 353.984 221.956 357.947C223.626 362.412 226.768 366.024 230.587 368.807C242.113 377.204 269.447 385.172 283.923 391.606C268.454 417.005 243.809 436.647 214.645 443.64C200.947 446.925 186.856 448.596 173.864 454.44Z" fill="#FBF8CC"/>
<path d="M269.102 249.789C271.423 251.101 273.279 252.887 275.448 254.411C281.415 258.604 297.732 268.634 299.364 276.135C299.595 277.199 299.309 278.569 299.159 279.641C288.593 271.651 275.365 261.584 269.102 249.789Z" fill="#FBF8CC"/>
<path d="M558.121 311.939C557.066 314.093 556.15 316.458 554.462 318.191L553.8 317.849C551.183 311.129 551.36 280.723 553.862 273.51C554.955 270.361 557.11 268.875 560.02 267.5C562.647 267.634 565.01 268.081 567.321 269.411C569.648 270.749 571.177 272.824 571.857 275.412C574.599 285.843 563.274 303.103 558.121 311.939ZM560.558 270.44C557.493 272.409 556.481 274.243 555.686 277.802C553.655 286.891 554.553 299.962 556.181 309.049L559.475 303.749C563.51 296.833 571.135 284.302 568.854 275.935C568.257 273.746 566.82 272.225 564.809 271.231C563.394 270.531 562.112 270.459 560.558 270.44Z" fill="#010102"/>
<path d="M556.181 309.05C554.553 299.963 553.655 286.892 555.686 277.803C556.481 274.244 557.493 272.41 560.558 270.441C562.112 270.46 563.394 270.532 564.809 271.232C566.82 272.226 568.257 273.747 568.854 275.936C571.135 284.303 563.51 296.834 559.475 303.75L556.181 309.05Z" fill="#FFFFFA"/>
<path d="M340.582 285.661C345.575 284.184 350.431 282.54 355.608 281.781C371.682 279.425 388.505 284.755 402.454 292.504C405.757 294.339 410.696 299.639 413.498 300.732C414.342 301.06 415.54 300.68 416.449 301.065C410.632 301.821 405.708 303.426 402.044 308.377C398.49 313.181 397.879 319.313 398.914 325.054C401.396 338.821 410.334 350.574 416.345 362.923C421.284 373.072 430.322 395.13 423.1 405.73C421.767 407.688 419.948 409.045 417.59 409.454C410.972 410.604 402.83 403.98 397.919 400.26C387.03 392.013 369.798 375.418 355.062 377.251C351.129 377.741 347.743 379.831 345.423 383.026C342.842 386.579 342.34 390.903 343.117 395.139C347.211 417.466 393.111 448.552 379.625 468.028C376.833 472.06 372.064 473.695 367.411 474.398C350.986 476.881 321.096 469.403 309.777 484.05C306.33 488.51 304.873 494.517 305.737 500.074C306.492 504.937 309.051 509.099 313.083 511.931C329.531 523.484 356.477 506.17 375.13 524.02C377.717 526.495 380.478 529.765 381.112 533.381C381.516 535.685 380.825 537.816 379.457 539.67C367.666 555.651 336.908 549.624 327.791 570.345C326.176 574.017 325.317 577.85 325.769 581.867C326.272 586.348 328.308 590.632 331.895 593.451C336.583 597.135 343.299 597.811 349.023 596.964C364.218 594.716 397.872 569.408 410.761 579.105C413.618 581.255 414.736 584.808 415.092 588.222C415.145 588.745 415.191 589.268 415.23 589.792C409.047 592.837 391.628 602.496 385.562 602.268C380.686 602.018 363.321 610.413 359.351 614.092C357.561 615.75 356.463 617.243 356.409 619.731C356.397 620.297 356.425 620.863 356.454 621.428C356.327 621.517 356.203 621.61 356.074 621.697C350.151 625.719 341.644 628.221 334.961 630.931C325.685 634.691 316.464 638.291 306.904 641.282C296.129 644.654 284.981 647.046 274.329 650.761C248.526 659.759 223.612 677.002 211.016 701.843C203.124 717.405 200.639 734.788 194.741 751.066C186.157 747.488 177.583 744.425 168.57 742.124C154.54 738.543 140.726 736.28 127.304 730.492C108.007 720.809 89.0706 705.476 82.0409 684.282C68.5812 643.702 98.5221 612.764 109.487 576.75C114.299 560.943 113.024 543.082 120.645 528.154C123.311 522.931 126.912 517.554 130.854 513.202C133.47 510.313 144.269 502.088 145.278 499.654C145.363 499.448 145.425 499.234 145.499 499.024C160.126 498.63 174.574 495.657 189.019 493.58C203.782 491.536 218.639 490.238 233.533 489.691C242.904 489.264 252.294 489.505 261.632 490.413C263.515 490.602 266.107 491.343 267.766 490.483L267.765 489.63C258.827 482.569 183.34 465.221 167.97 463.374L169.44 462.99C171.661 460.401 172.77 457.636 173.866 454.439C186.858 448.595 200.949 446.924 214.647 443.639C243.811 436.646 268.456 417.004 283.925 391.605C285.983 392.77 288.804 394.915 291.268 394.313C292.921 390.732 288.717 389.636 288.119 386.587C287.966 385.811 295.572 371.756 296.416 369.262C302.705 350.696 305.377 312.163 317.25 298.811C320.607 300.095 339.439 317.259 343.856 321.069L344.685 320.567C349.32 324.048 353.562 328.402 357.788 332.372L378.655 352.011C383.373 356.444 388.026 361.586 393.776 364.652C390.484 358.009 385.077 352.346 380.978 346.169L340.582 285.661ZM301.03 416.561C298.626 417.795 295.997 419.497 295.175 422.257C294.683 423.91 295.204 425.434 296.107 426.821C302.626 436.827 320.304 437.132 330.316 442.657C331.57 443.133 332.208 443.669 333.531 443.259C332.624 438.973 316.349 422.506 312.152 419.703C308.413 417.205 305.48 416.352 301.03 416.561ZM341.527 531.678C338.101 532.24 334.826 532.515 331.353 532.483C323.955 532.416 309.41 529.938 304.359 536.743C303.34 538.115 302.834 540.042 303.149 541.73C303.52 543.721 305.052 545 306.72 545.941C307.038 546.119 307.359 546.29 307.684 546.454C310.357 546.835 312.86 547.182 315.537 546.536C319.347 545.616 342.069 534.646 345.627 532.189L345.696 531.599C344.237 531.239 342.985 531.472 341.527 531.678ZM285.593 583.7C254.139 588.924 172.249 605.829 153.667 631.306C150.161 636.113 148.595 641.878 149.572 647.793C150.223 651.734 152.115 654.83 155.134 657.392C161.381 661.118 168.3 661.765 175.288 660.026C188.949 656.626 213.534 634.697 226.14 625.305C236.056 617.963 246.155 610.87 256.425 604.032C259.814 601.811 286.301 586.071 287.104 584.985L286.848 584.209L285.593 583.7Z" fill="#B9FBC0"/>
<path d="M415.229 589.791C415.19 589.267 415.144 588.744 415.091 588.221C414.735 584.807 413.617 581.254 410.76 579.104C397.871 569.407 364.217 594.715 349.022 596.963C343.298 597.81 336.582 597.134 331.894 593.45C328.307 590.631 326.271 586.347 325.768 581.866C325.316 577.849 326.175 574.016 327.79 570.344C336.907 549.623 367.665 555.65 379.456 539.669C380.824 537.815 381.515 535.684 381.111 533.38C380.477 529.764 377.716 526.494 375.129 524.019C356.476 506.169 329.53 523.483 313.082 511.93C309.05 509.098 306.491 504.936 305.736 500.073C304.872 494.516 306.329 488.509 309.776 484.049C321.095 469.402 350.985 476.88 367.41 474.397C372.063 473.694 376.832 472.059 379.624 468.027C393.11 448.551 347.21 417.465 343.116 395.138C342.339 390.902 342.841 386.578 345.422 383.025C347.742 379.83 351.128 377.74 355.061 377.25C369.797 375.417 387.029 392.012 397.918 400.259C402.829 403.979 410.971 410.603 417.589 409.453C419.947 409.044 421.766 407.687 423.099 405.729C430.321 395.129 421.283 373.071 416.344 362.922C410.333 350.573 401.395 338.82 398.913 325.053C397.878 319.312 398.489 313.18 402.043 308.376C405.707 303.425 410.631 301.82 416.448 301.064C431.462 304.181 441.56 314.524 449.775 326.966C456.308 336.862 468.418 366.616 479.123 369.168C481.362 369.702 483.478 369.222 485.381 367.946C492.474 363.189 494.653 351.569 495.927 343.739C496.844 338.165 497.439 332.544 497.711 326.903C498.294 314.261 496.81 295.443 508.385 287.069C511.898 284.559 516.295 283.621 520.527 284.478C526.542 285.664 531.352 290.262 534.533 295.293C538.802 302.045 540.957 310 541.627 317.909C542.501 328.24 539.864 342.625 541.792 351.784C542.487 355.084 544.566 360.035 548.141 361.117C549.887 361.646 551.653 361.025 553.099 360.037C557.17 357.258 559.528 351.791 561.628 347.488C564.88 340.954 567.94 334.325 570.804 327.612C576.436 314.188 584.024 289.653 603.238 293.012C608.348 293.905 612.934 297.041 615.857 301.295C619.564 306.691 620.322 313.504 618.966 319.808C616.866 329.569 611.222 337.986 607.413 347.07C602.933 357.756 597.256 379.895 604.308 390.408C606.485 393.654 609.788 395.409 613.607 395.961C637.107 399.36 680.572 360.444 694.483 378.362C697.037 381.652 697.887 386.855 697.257 390.893C696.23 397.474 692.079 402.516 686.717 406.182C675.694 413.717 657.08 424.359 654.577 438.843C653.946 442.496 654.693 446.51 656.976 449.488C660.164 453.645 666.017 455.226 671.02 455.691C690.196 457.471 729.323 441.318 743.432 457.332C746.228 460.505 747.308 464.699 746.857 468.861C746.37 473.356 744.073 477.144 740.56 479.938C736.342 483.293 731.038 485.086 725.815 486.143C710.08 489.328 666.394 485.954 663.227 508.096C662.63 512.272 664.336 516.374 666.936 519.577C680.005 535.682 733.775 539.092 731.927 566.818C731.584 571.689 729.271 576.21 725.521 579.338C720.696 583.434 714.201 584.981 707.984 584.342C688.658 582.355 679.263 563.155 654.007 564.603C650.031 564.831 645.552 565.665 642.356 568.178C638.861 570.925 636.298 575.011 635.951 579.494C635.391 586.722 639.767 594.011 644.441 599.211C656.379 612.492 684.123 625.808 683.014 646.674C682.81 650.515 681.336 654.448 678.426 657.05C675.155 659.975 670.46 661.253 666.139 660.93C638.854 658.892 620.727 604.537 595.191 624.939C591.451 627.928 589.699 632.109 589.339 636.814C588.094 653.063 610.032 682.418 596.148 695.271C593.741 697.5 590.766 698.277 587.518 698.013C582.016 697.566 577.473 694.988 574.002 690.729C563.767 678.17 559.578 642.809 541.69 640.598C535.077 639.781 528.135 643.307 523.163 647.446C516.572 652.934 511.973 661.116 511.47 669.785C511.461 669.942 511.467 670.1 511.465 670.257C509.02 680.142 510.452 697.814 510.294 708.454C510.174 716.572 509.549 728.248 503.128 734.183C499.688 737.364 495.457 738.673 490.799 738.317C487.193 738.042 484.061 736.585 481.727 733.792C474.013 724.567 478.417 707.082 479.913 696.403C480.863 689.618 481.782 682.798 482.24 675.959C482.896 666.157 482.174 656.947 475.299 649.255C471.594 645.11 465.902 641.255 460.223 641.15C440.789 640.792 432.79 674.821 421.168 686.437C416.92 690.683 411.382 693.655 405.247 693.487C400.332 693.352 394.042 691.13 390.672 687.402C379.875 675.457 394.279 649.225 399.834 637.257C403.895 628.508 408.442 619.717 411.631 610.603C414.069 603.635 415.063 597.154 415.229 589.791ZM315.392 481.609C311.297 484.393 308.502 487.944 307.482 492.879C306.524 497.519 307.383 502.427 310.108 506.331C313.501 511.191 318.314 513.244 323.954 514.172C324.104 514.195 324.253 514.22 324.403 514.241C341.79 516.646 365.347 508.214 378.589 525.675C380.858 528.667 382.964 532.533 382.246 536.42C381.454 540.709 377.169 544.063 373.679 546.282C359.256 555.452 332.741 554.645 327.981 575.065C326.999 579.279 327.472 583.783 329.941 587.402C332.597 591.297 337.08 593.911 341.687 594.721C354.775 597.024 369.795 586.311 381.361 581.201C387.393 578.537 394.003 576.415 400.496 575.228C404.736 574.902 408.796 574.801 412.242 577.767C415.728 580.769 416.551 585.484 416.934 589.823C415.211 618.363 395.898 640.797 389.223 667.976C388.202 673.489 387.583 679.109 390.924 684.029C393.367 687.627 397.226 689.635 401.432 690.395C403.813 690.812 406.245 690.835 408.633 690.461C431.545 683.386 430.257 649.222 453.225 640.658C458.146 638.824 462.988 639.365 467.648 641.682C491.674 653.626 482.899 685.578 480.449 706.619C479.662 713.378 478.615 720.882 480.898 727.469C482.005 730.662 484.007 733.56 487.2 734.913C490.488 736.307 494.799 735.988 497.991 734.468C510.053 728.726 507.303 702.147 507.609 691.252C507.883 681.49 508.015 670.827 511.187 661.526C514.235 652.59 520.341 645.914 528.803 641.777C534.041 639.217 539.874 637.785 545.529 639.918C559.215 645.082 565.825 669.448 571.634 681.908C574.29 687.644 578.151 692.99 584.347 695.217C586.948 696.152 589.758 696.382 592.301 695.15C595.021 693.832 596.292 691.632 597.443 688.956C600.863 673.534 590.274 659.518 587.859 644.834C586.841 638.645 587.565 631.441 591.483 626.35C594.723 622.14 600.174 619.375 605.415 618.794C622.903 616.854 639.258 640.583 651.632 650.628C655.387 653.782 659.46 656.939 664.316 658.124C668.058 659.036 672.185 658.663 675.451 656.513C678.116 654.759 679.785 652.024 680.428 648.929C681.909 641.797 678.532 635.316 674.727 629.579C671.734 625.499 668.536 621.72 664.788 618.309C654.202 608.676 639.47 600.723 635.368 585.931C634.08 581.285 634.244 576.431 636.719 572.207C639.391 567.646 644.243 564.43 649.323 563.186C665.707 559.174 681.091 568.771 694.531 576.61C699.99 579.819 705.776 582.414 712.272 582.058C717.357 581.779 722.518 579.638 725.84 575.693C728.383 572.717 729.61 568.837 729.241 564.94C728.688 558.867 724.651 554.26 720.183 550.523C713.852 544.29 703.251 539.197 695.114 535.778C685.419 531.703 670.909 528.221 664.969 518.744C662.518 514.833 661.277 509.786 662.47 505.251C669.085 480.113 718.145 491.464 736.004 480.486C740.05 477.999 743.406 473.955 744.431 469.234C745.067 466.304 743.897 463.352 742.237 460.969C728.755 441.61 686.357 461.64 665.906 457.053C660.792 455.906 655.739 453.436 652.958 448.798C650.593 444.856 650.89 440.246 652.504 436.09C657.007 424.497 668.39 416.44 678.41 409.925C681.845 407.692 685.606 405.582 688.635 402.806C692.078 399.65 695.005 395.721 695.995 391.072C696.787 387.356 696.01 383.707 693.807 380.617C691.127 376.858 687.701 374.975 683.061 374.943C676.248 374.896 669.266 378.276 663.168 380.985C649.837 386.907 627.167 399.598 612.738 397.096C608.684 396.393 605.501 394.479 603.208 391.031C595.715 379.769 601.387 357.161 606.217 345.778C609.837 337.245 615.17 329.265 617.063 320.079C618.304 314.055 617.908 307.188 614.263 302.026C611.667 298.349 607.026 295.078 602.495 294.504C585.383 292.334 577.595 315.083 572.393 327.098C569.643 333.449 566.701 339.722 563.895 346.05C561.563 351.308 559.125 357.994 554.293 361.457C552.421 362.798 549.969 363.753 547.64 363.296C537.168 361.238 540.149 339.069 540.479 331.758C540.682 327.815 540.656 323.863 540.401 319.923C539.749 311.077 537.219 300.984 531.883 293.739C528.727 289.454 524.163 286.229 518.797 285.546C515.257 285.096 511.81 285.958 508.98 288.151C496.211 298.047 499.651 326.169 497.81 341.057C496.789 349.318 494.468 362.647 487.288 367.964C485.077 369.601 482.48 370.384 479.74 369.934C475.843 369.294 472.544 366.845 469.979 363.949C462.05 354.996 454.397 336.031 446.669 325.045C440.566 316.37 429.858 304.916 418.852 303.248C414.642 302.61 410.444 303.49 407.043 306.108C400.965 310.785 399.395 318.645 400.863 325.846C402.536 334.057 407.566 342.331 411.47 349.713C417.501 361.116 423.367 372.828 426.027 385.551C426.972 390.073 427.88 394.724 427.251 399.357C426.727 403.22 424.971 407.037 421.728 409.355C409.027 418.433 378.433 382.08 359.702 379.038C356.19 378.468 352.575 378.859 349.654 381.031C346.853 383.14 345.02 386.29 344.569 389.767C342.533 404.487 365.065 426.858 373.924 438.559C378.857 445.076 384.567 453.633 383.166 462.217C379.105 487.096 333.345 468.947 315.392 481.609Z" fill="#010102"/>
<path d="M315.392 481.608C333.345 468.946 379.105 487.095 383.166 462.216C384.567 453.632 378.857 445.075 373.924 438.558C365.065 426.857 342.533 404.486 344.569 389.766C345.02 386.289 346.853 383.139 349.654 381.03C352.575 378.858 356.19 378.467 359.702 379.037C378.433 382.079 409.027 418.432 421.728 409.354C424.971 407.036 426.727 403.219 427.251 399.356C427.88 394.723 426.972 390.072 426.027 385.55C423.367 372.827 417.501 361.115 411.47 349.712C407.566 342.33 402.536 334.056 400.863 325.845C399.395 318.644 400.965 310.784 407.043 306.107C410.444 303.489 414.642 302.609 418.852 303.247C429.858 304.915 440.566 316.369 446.669 325.044C454.397 336.03 462.05 354.995 469.979 363.948C472.544 366.844 475.843 369.293 479.74 369.933C482.48 370.383 485.077 369.6 487.288 367.963C494.468 362.646 496.789 349.317 497.81 341.056C499.651 326.168 496.211 298.046 508.98 288.15C511.81 285.957 515.257 285.095 518.797 285.545C524.163 286.228 528.727 289.453 531.883 293.738C537.219 300.983 539.749 311.076 540.401 319.922C540.656 323.862 540.682 327.814 540.479 331.757C540.149 339.068 537.168 361.237 547.64 363.295C549.969 363.752 552.421 362.797 554.293 361.456C559.125 357.993 561.563 351.307 563.895 346.049C566.701 339.721 569.643 333.448 572.393 327.097C577.595 315.082 585.383 292.333 602.495 294.503C607.026 295.077 611.667 298.348 614.263 302.025C617.908 307.187 618.304 314.054 617.063 320.078C615.17 329.264 609.837 337.244 606.217 345.777C601.387 357.16 595.715 379.768 603.208 391.03C605.501 394.478 608.684 396.392 612.738 397.095C627.167 399.597 649.837 386.906 663.168 380.984C669.266 378.275 676.248 374.895 683.061 374.942C687.701 374.974 691.127 376.857 693.807 380.616C696.01 383.706 696.787 387.355 695.995 391.071C695.005 395.72 692.078 399.649 688.635 402.805C685.606 405.581 681.845 407.691 678.41 409.924C668.39 416.439 657.007 424.496 652.504 436.089C650.89 440.245 650.593 444.855 652.958 448.797C655.739 453.435 660.792 455.905 665.906 457.052C686.357 461.639 728.755 441.609 742.237 460.968C743.897 463.351 745.067 466.303 744.431 469.233C743.406 473.954 740.05 477.998 736.004 480.485C718.145 491.463 669.085 480.112 662.47 505.25C661.277 509.785 662.518 514.832 664.969 518.743C670.909 528.22 685.419 531.702 695.114 535.777C703.251 539.196 713.852 544.289 720.183 550.522C718.624 554.809 720.322 559.916 720.209 564.414C717.811 569.161 714.719 571.964 709.597 573.596C706.325 574.638 696.216 574.433 694.531 576.609C681.091 568.77 665.707 559.173 649.323 563.185C644.243 564.429 639.391 567.645 636.719 572.206C634.244 576.43 634.08 581.284 635.368 585.93C639.47 600.722 654.202 608.675 664.788 618.308C668.536 621.719 671.734 625.498 674.727 629.578C673.651 630.867 672.825 631.679 672.74 633.448C673.212 634.8 673.721 636.067 674.326 637.364C672.588 641.357 670.362 647.247 666.037 649.072C661.788 650.864 655.607 648.494 651.632 650.627C639.258 640.582 622.903 616.853 605.415 618.793C600.174 619.374 594.723 622.139 591.483 626.349C587.565 631.44 586.841 638.644 587.859 644.833C590.274 659.517 600.863 673.533 597.443 688.955C594.803 686.69 588.196 689.259 584.645 689.138C580.99 689.014 577.719 686.236 575.373 683.627C574.735 682.918 574.302 682.359 573.486 681.835C572.777 681.38 572.395 681.714 571.634 681.907C565.825 669.447 559.215 645.081 545.529 639.917C539.874 637.784 534.041 639.216 528.803 641.776C520.341 645.913 514.235 652.589 511.187 661.525C508.015 670.826 507.883 681.489 507.609 691.251C507.303 702.146 510.053 728.725 497.991 734.467C494.799 735.987 490.488 736.306 487.2 734.912C484.007 733.559 482.005 730.661 480.898 727.468C478.615 720.881 479.662 713.377 480.449 706.618C482.899 685.577 491.674 653.625 467.648 641.681C462.988 639.364 458.146 638.823 453.225 640.657C430.257 649.221 431.545 683.385 408.633 690.46C408.597 690.378 408.558 690.298 408.525 690.215C407.653 688.021 405.468 687.131 403.64 685.786C398.558 682.044 393.068 677.382 392.06 670.803C391.942 670.031 391.938 669.502 391.529 668.812C391.17 668.206 389.895 668.135 389.223 667.975C395.898 640.796 415.211 618.362 416.934 589.822C421.739 589.268 426.118 587.474 430.356 585.235C437.012 619.185 395.927 656.091 397.873 665.029C398.122 666.174 398.756 667.169 399.836 667.694C401.892 668.692 405.411 667.63 407.517 667.039C434.709 659.406 454.026 617.549 468.659 613.82C471.279 613.152 473.806 613.574 476.1 614.996C478.611 616.552 480.39 619.165 481.613 621.798C485.909 631.051 490.248 654.017 490.518 664.391C490.843 676.84 488.1 690.801 490.91 703.008C491.439 705.304 492.039 707.134 494.082 708.456C495.062 708.609 495.267 708.877 496.126 708.272C502.127 704.049 501.964 677.602 503.372 669.912C505.751 656.924 518.702 623.436 529.618 616.078C532.888 613.874 536.63 612.904 540.514 613.852C559.3 618.438 566.094 653.603 575.407 668.397C577.456 671.651 581.766 678.493 585.824 678.984C586.974 679.123 587.918 678.793 588.828 678.113C590.743 676.684 590.996 675.516 590.952 673.158C590.852 667.841 588.943 662.377 587.647 657.233C584.308 643.978 581.353 629.089 583.77 615.44C584.668 610.368 586.383 604.612 590.896 601.625C593.801 599.702 597.346 599.205 600.762 599.448C623.13 601.037 638.994 636.142 658.92 639.362C660.792 639.665 662.876 639.58 664.363 638.241C665.655 637.076 666.276 635.261 666.467 633.577C667.475 624.689 642.759 607.589 636.692 600.327C630.16 592.509 624.454 579.427 625.601 569.064C626.207 563.592 629.001 558.829 633.39 555.531C646.962 545.333 668.393 546.678 683.354 552.586C690.543 555.426 697.587 560.047 705.311 561.128C708.45 561.568 711.569 560.898 714.098 558.937C714.428 558.257 714.835 557.803 714.706 557.02C713.113 547.397 678.264 536.904 669.715 531.54C660.401 525.696 653.077 518.075 650.557 507.151C651.094 506.08 651.669 505.028 652.282 503.998C659.736 491.693 678.599 481.793 692.379 479.245C700.145 477.809 708.178 477.957 715.87 476.056C719.888 475.063 725.21 473.274 727.328 469.45C728.24 467.803 728.783 465.219 728.056 463.412C726.515 459.586 719.988 458.961 716.537 458.923C709.678 458.849 702.723 460.54 696.017 461.838C683.418 464.278 669.788 467.346 656.939 467.417C651.609 467.446 646.035 466.685 641.243 464.229C637.746 462.437 635.035 459.776 633.95 455.923C630.49 443.635 651.005 425.939 658.49 417.429C663.226 412.044 667.77 406.261 671.33 400.02C672.769 397.497 675.434 392.528 674.142 389.643C673.781 388.837 673.294 388.413 672.526 388.05C662.173 383.168 630.55 409.45 619.043 413.36C612.8 415.481 605.617 415.855 599.629 412.738C591.863 408.695 589.729 400.579 589.356 392.466C589.004 384.81 589.751 377.266 591.314 369.772C593.119 361.111 604.466 329.227 601.814 323.333C601.368 322.34 600.696 321.476 599.6 321.208C597.245 320.633 594.879 322.243 593.31 323.866C589.515 327.793 585.139 337.007 581.866 341.993C576.34 350.41 569.507 357.512 563.698 365.638C559.588 371.388 556.714 377.977 552.438 383.551C550.796 385.692 548.927 387.762 546.633 389.217C544.615 390.497 542.331 391.098 539.97 390.518C520.654 385.772 535.547 316.827 525.266 300.081C524.472 298.789 523.314 297.704 521.739 297.522C519.882 297.308 518.572 298.015 517.526 299.489C514.535 303.707 513.612 310.756 512.391 315.75L506.1 340.507C502.985 353.202 500.954 373.462 489.813 381.876C486.53 384.355 482.79 385.433 478.706 384.784C458.876 381.634 443.768 345.701 432.598 330.464C430.584 327.716 427.414 323.558 423.702 323.381C422.146 323.307 420.853 324.085 419.874 325.227C417.812 327.633 417.783 331.07 418.224 334.039C419.334 341.5 422.76 349.063 425.788 355.945C431.8 369.612 444.015 393.489 445.159 408.025C445.499 412.355 444.704 416.738 441.706 420.041C426.354 436.956 391.938 398.643 369.344 400.662C367.275 400.847 365.351 401.534 364.023 403.199C362.515 405.089 361.671 408.245 362.576 410.55C365.106 416.991 380.279 429.128 385.669 435.037C390.08 439.872 393.872 445.188 397.376 450.708C400.458 455.563 403.52 460.76 403.956 466.633C404.276 470.95 402.906 475.491 399.981 478.731C386.634 493.515 354.068 484.732 337.052 486.123C332.414 486.502 326.789 487.78 323.753 491.6C322.03 493.77 321.423 497.15 321.95 499.838C322.54 502.846 325.688 504.617 328.315 505.602C333.62 507.593 339.779 508.153 345.367 509.128C358.424 511.407 381.957 515.353 392.39 523.148C395.422 525.413 398.203 528.715 398.648 532.605C400.627 549.905 358.576 554.979 348.661 567.905C346.853 570.263 344.325 575.457 344.917 578.554C345.161 579.829 345.935 580.825 347.004 581.528C354.774 586.638 389.672 575.881 400.179 573.995L400.496 575.227C394.003 576.414 387.393 578.536 381.361 581.2C369.795 586.31 354.775 597.023 341.687 594.72C337.08 593.91 332.597 591.296 329.941 587.401C327.472 583.782 326.999 579.278 327.981 575.064C332.741 554.644 359.256 555.451 373.679 546.281C377.169 544.062 381.454 540.708 382.246 536.419C382.964 532.532 380.858 528.666 378.589 525.674C365.347 508.213 341.79 516.645 324.403 514.24C324.253 514.219 324.104 514.194 323.954 514.171C323.046 509.407 315.815 505.012 314.279 498.794C312.846 492.994 316.427 485.179 315.392 481.608Z" fill="#C0C0C0"/>
<path d="M337.978 286.316C345.369 296.621 352.088 307.425 359.112 317.983C366.103 328.492 373.507 338.897 379.972 349.73L318.986 295.326C323.686 289.32 331.059 289.474 337.513 286.536C337.669 286.465 337.823 286.39 337.978 286.316Z" fill="#C0C0C0"/>
<path d="M741.715 371.142C738.192 373.002 734.621 375.209 730.958 376.747C729.943 377.173 729.115 377.676 728.076 377.259C728.078 376.121 728.143 375.699 728.805 374.707C732.249 369.556 740.113 362.374 744.602 357.567C762.531 338.367 792.608 307.424 815.801 295.136C820.842 292.466 825.905 290.753 831.482 289.624C833.871 289.355 836.337 289.392 838.688 289.935C843.468 291.039 847.142 294.03 849.605 298.23C851.676 301.761 851.786 305.755 850.595 309.615C848.959 314.915 845.048 319.942 840.631 323.256C827.959 332.762 811.341 337.947 796.99 344.343C778.208 352.519 759.767 361.459 741.715 371.142ZM832.139 292.196C804.654 295.504 754.425 350.127 735.989 371.074C740.115 369.082 744.266 367.135 748.271 364.905C764.094 356.623 780.184 348.863 796.515 341.636C810.827 335.22 828.258 330.117 840.62 320.323C843.836 317.775 846.645 313.589 847.848 309.713C848.919 306.259 848.826 302.581 847.031 299.383C845.105 295.95 841.782 293.604 837.965 292.741C836.042 292.306 834.102 292.234 832.139 292.196Z" fill="#010102"/>
<path d="M735.99 371.073C754.426 350.126 804.655 295.503 832.14 292.195C834.103 292.233 836.043 292.305 837.966 292.74C841.783 293.603 845.106 295.949 847.032 299.382C848.827 302.58 848.92 306.258 847.849 309.712C846.646 313.588 843.837 317.774 840.621 320.322C828.259 330.116 810.828 335.219 796.516 341.635C780.185 348.862 764.095 356.622 748.272 364.904C744.267 367.134 740.116 369.081 735.99 371.073Z" fill="#C0C0C0"/>
<path d="M477.541 336.625C473.21 329.764 467.739 323.605 463.489 316.698C460.957 312.581 458.932 307.516 460.306 302.646C461.254 299.285 463.219 297.241 466.144 295.49C468.032 295.462 469.483 295.708 471.076 296.778C474.906 299.35 476.588 304.31 477.487 308.64C478.293 312.522 481.385 335.796 479.854 338.171L478.945 338.144L477.541 336.625ZM467.105 298.249C464.926 299.878 463.288 301.523 462.806 304.31C461.451 312.143 471.221 323.434 475.627 329.385L476.934 330.775L477.407 330.536C477.43 321.983 476.663 306.46 470.553 300.12C469.507 299.034 468.54 298.657 467.105 298.249Z" fill="#010102"/>
<path d="M400.179 573.999C389.672 575.885 354.774 586.642 347.004 581.532C345.935 580.829 345.161 579.833 344.917 578.558C344.325 575.461 346.853 570.267 348.661 567.909C358.576 554.983 400.627 549.909 398.648 532.609C398.203 528.719 395.422 525.417 392.39 523.152C381.957 515.357 358.424 511.411 345.367 509.132C339.779 508.157 333.62 507.597 328.315 505.606C325.688 504.621 322.54 502.85 321.95 499.842C321.423 497.154 322.03 493.774 323.753 491.604C326.789 487.784 332.414 486.506 337.052 486.127C354.068 484.736 386.634 493.519 399.981 478.735C402.906 475.495 404.276 470.954 403.956 466.637C403.52 460.764 400.458 455.567 397.376 450.712C393.872 445.192 390.08 439.876 385.669 435.041C380.279 429.132 365.106 416.995 362.576 410.554C361.671 408.249 362.515 405.093 364.023 403.203C365.351 401.538 367.275 400.851 369.344 400.666C391.938 398.647 426.354 436.96 441.706 420.045C444.704 416.742 445.499 412.359 445.159 408.029C444.015 393.493 431.8 369.616 425.788 355.949C422.76 349.067 419.334 341.504 418.224 334.043C417.783 331.074 417.812 327.637 419.874 325.231C420.853 324.089 422.146 323.311 423.702 323.385C427.414 323.562 430.584 327.72 432.598 330.468C443.768 345.705 458.876 381.638 478.706 384.788C482.79 385.437 486.53 384.359 489.813 381.88C500.954 373.466 502.985 353.206 506.1 340.511L512.391 315.754C513.612 310.76 514.535 303.711 517.526 299.493C518.572 298.019 519.882 297.312 521.739 297.526C523.314 297.708 524.472 298.793 525.266 300.085C535.547 316.831 520.653 385.776 539.969 390.522C542.33 391.102 544.615 390.501 546.633 389.221C548.927 387.766 550.796 385.696 552.438 383.555C556.714 377.981 559.588 371.392 563.698 365.642C569.507 357.516 576.34 350.414 581.866 341.997C585.139 337.011 589.515 327.797 593.31 323.87C594.879 322.247 597.244 320.637 599.599 321.212C600.695 321.48 601.368 322.344 601.814 323.337C604.466 329.231 593.119 361.115 591.314 369.776C589.751 377.27 589.004 384.814 589.356 392.47C589.729 400.583 591.863 408.699 599.629 412.742C605.617 415.859 612.8 415.485 619.043 413.364C630.55 409.454 662.173 383.172 672.526 388.054C673.294 388.417 673.781 388.841 674.142 389.647C675.434 392.532 672.769 397.501 671.33 400.024C667.77 406.265 663.226 412.048 658.49 417.433C651.005 425.943 630.49 443.639 633.95 455.927C635.035 459.78 637.745 462.441 641.242 464.233C646.034 466.689 651.609 467.45 656.939 467.421C669.788 467.35 683.418 464.282 696.017 461.842C702.723 460.544 709.677 458.853 716.536 458.927C719.987 458.965 726.515 459.59 728.056 463.416C728.783 465.223 728.24 467.807 727.328 469.454C725.21 473.278 719.888 475.067 715.87 476.06C708.178 477.961 700.145 477.813 692.379 479.249C678.599 481.797 659.735 491.697 652.281 504.002C651.668 505.032 651.094 506.084 650.557 507.155C653.077 518.079 660.401 525.7 669.715 531.544C678.264 536.908 713.113 547.401 714.706 557.024C714.835 557.807 714.428 558.261 714.098 558.941C711.569 560.902 708.449 561.572 705.31 561.132C697.586 560.051 690.543 555.43 683.354 552.59C668.393 546.682 646.962 545.337 633.39 555.535C629.001 558.833 626.207 563.596 625.601 569.068C624.454 579.431 630.16 592.513 636.692 600.331C642.759 607.593 667.474 624.693 666.466 633.581C666.275 635.265 665.654 637.08 664.362 638.245C662.875 639.584 660.791 639.669 658.919 639.366C638.993 636.146 623.13 601.041 600.762 599.452C597.346 599.209 593.801 599.706 590.896 601.629C586.383 604.616 584.668 610.372 583.77 615.444C581.353 629.093 584.307 643.982 587.646 657.237C588.942 662.381 590.852 667.845 590.952 673.162C590.996 675.52 590.743 676.688 588.828 678.117C587.918 678.797 586.973 679.127 585.823 678.988C581.765 678.497 577.456 671.655 575.407 668.401C566.094 653.607 559.3 618.442 540.514 613.856C536.63 612.908 532.888 613.878 529.618 616.082C518.702 623.44 505.751 656.928 503.372 669.916C501.964 677.606 502.127 704.053 496.126 708.276C495.267 708.881 495.062 708.613 494.082 708.46C492.039 707.138 491.439 705.308 490.91 703.012C488.1 690.805 490.843 676.844 490.518 664.395C490.248 654.021 485.909 631.055 481.613 621.802C480.39 619.169 478.611 616.556 476.1 615C473.806 613.578 471.279 613.156 468.659 613.824C454.026 617.553 434.709 659.41 407.517 667.043C405.411 667.634 401.892 668.696 399.836 667.698C398.756 667.173 398.122 666.178 397.873 665.033C395.927 656.095 437.012 619.189 430.356 585.239C429.014 581.872 427.389 579.055 424.517 576.749C417.688 571.267 408.183 573.068 400.179 573.999ZM520.837 299.222C517.501 303.95 516.687 310.892 515.354 316.483L508.757 343.487C505.409 356.982 500.759 384.794 484.093 387.904C478.078 389.026 472 386.73 467.163 383.249C461.113 378.895 455.867 372.781 451.584 366.73C444.631 356.909 434.077 334.25 426.21 327.526C425.268 326.72 424.678 326.623 423.476 326.603C422.191 327.458 421.525 327.93 421.271 329.589C420.613 333.882 422.929 339.574 424.371 343.544C430.746 361.082 449.302 394.389 448.695 411.581C448.531 416.215 446.102 421.619 442.493 424.583C438.627 427.759 433.489 428.168 428.695 427.57C424.404 427.035 420.267 425.577 416.371 423.739C407.259 419.441 375.699 398.466 367.007 404.983C365.799 405.888 365.432 406.823 365.269 408.27C367.661 414.954 376.736 421.179 381.781 426.157C392.741 436.97 413.514 459.871 405.877 476.505C403.204 482.327 397.353 485.45 391.548 487.418C384.244 489.895 376.574 490.647 368.899 490.674C359.539 490.705 330.403 485.675 325.613 494.556C324.936 495.811 324.592 497.649 325.022 499.021C325.664 501.066 328.02 502.314 329.888 503.012C335.963 505.282 343.397 505.678 349.799 506.721C363.051 508.879 395.005 514.131 401.126 526.968C402.78 530.514 402.898 534.586 401.451 538.222C394.063 556.528 346.288 559.627 348.348 578.183C349.474 579.409 350.547 579.597 352.194 579.69C372.17 580.825 412.847 558.697 428.54 574.904C433.542 580.07 434.942 588.13 434.617 595.08C433.713 614.403 422.12 632.905 410.923 648.08C408.045 651.98 402.586 657.837 401.642 662.637C401.459 663.565 401.446 663.182 401.968 664.068C408.411 664.831 417.029 659.105 421.801 655.306C430.526 648.359 437.896 639.732 445.134 631.304C450.392 625.182 455.789 617.731 462.663 613.325C465.95 611.219 469.775 610.02 473.696 610.558C477.202 611.039 479.934 613.235 481.929 616.06C485.321 620.864 486.314 627.217 487.774 632.801C490.293 642.432 492.732 652.492 493.293 662.456C494.035 675.655 490.501 692.69 495.353 704.971C499.432 693.099 499.139 682.523 501.121 670.483C503.899 653.614 513.254 623.629 527.168 613.146L527.729 612.814C532.085 610.295 536.975 609.391 541.882 610.791C551.269 613.47 557.428 623.046 561.668 631.196C567.452 642.313 575.333 669.3 585.526 675.233L586.505 675.223C587.868 673.563 587.663 673.143 587.471 671.007C586.883 664.46 584.63 657.984 583.193 651.583C580.14 637.979 576.082 613.265 585.263 601.518C587.998 598.018 591.448 596.02 595.883 595.622C607.377 594.593 618.598 603.602 626.648 610.654C633.409 616.576 651.309 637.27 660.086 636.445C661.462 636.316 662.062 635.871 663.041 634.958C663.542 633.23 663.128 632.03 662.306 630.485C657.437 621.336 646.785 614.455 639.534 607.145C629.518 597.047 619.183 579.61 623.46 564.86C625.393 558.192 630.058 553.309 636.094 550.119C649.152 543.218 665.041 543.184 678.892 547.537C687.59 550.271 700.323 558.637 708.919 558.178L709.948 557.542C709.98 555.972 709.346 555.103 708.232 554.012C704.446 550.31 699.129 548.116 694.357 546.016C679.367 539.419 663.783 533.977 653.177 520.764C650.492 517.42 647.904 513.367 647.711 508.97C647.497 504.1 650.451 499.872 653.7 496.527C662.014 487.968 674.76 480.533 686.275 477.41C693.932 475.333 725.951 477.555 725.736 466.008C725.719 465.071 725.283 464.76 724.762 464.035C709.655 455.538 639.335 488.374 629.736 456.33C628.339 451.666 629.81 447.027 632.086 442.916C639.448 429.609 670.06 405.304 671.007 392.073L670.492 390.946C667.823 390.483 664.38 391.828 661.888 392.831C643.49 400.229 624.999 421.417 604.672 418.825C599.146 418.121 594.554 415.544 591.32 410.97C583.58 400.023 585.324 382.542 587.755 370.203C589.467 361.51 600.822 330.419 598.395 324.926C597.385 324.512 597.746 324.418 596.888 324.822C592.627 326.829 584.908 343.34 581.695 348.136C576.649 355.67 570.212 362.154 565.057 369.587C560.235 376.538 555.979 386.62 549.54 392.037C546.553 394.55 542.633 396.068 538.749 394.941C535.052 393.868 532.317 390.815 530.649 387.466C526.367 378.869 526.293 367.405 526.039 357.954C525.769 347.91 528.794 303.538 520.837 299.222Z" fill="#010102"/>
<path d="M475.627 329.382C471.221 323.431 461.451 312.14 462.806 304.307C463.288 301.52 464.926 299.875 467.105 298.246C468.54 298.654 469.507 299.031 470.553 300.117C476.663 306.457 477.43 321.98 477.407 330.533L476.934 330.772L475.627 329.382Z" fill="#C0C0C0"/>
<path d="M495.353 704.968C490.501 692.687 494.035 675.652 493.293 662.453C492.732 652.489 490.293 642.429 487.774 632.798C486.314 627.214 485.321 620.861 481.929 616.057C479.934 613.232 477.202 611.036 473.696 610.555C469.775 610.017 465.95 611.216 462.663 613.322C455.789 617.728 450.392 625.179 445.134 631.301C437.896 639.729 430.526 648.356 421.801 655.303C417.029 659.102 408.411 664.828 401.968 664.065C401.446 663.179 401.459 663.562 401.642 662.634C402.586 657.834 408.045 651.977 410.923 648.077C422.12 632.902 433.713 614.4 434.617 595.077C434.942 588.127 433.542 580.067 428.54 574.901C412.847 558.694 372.17 580.822 352.194 579.687C350.547 579.594 349.474 579.406 348.348 578.18C346.288 559.624 394.063 556.525 401.451 538.219C402.898 534.583 402.78 530.511 401.126 526.965C395.005 514.128 363.051 508.876 349.799 506.718C343.397 505.675 335.963 505.279 329.888 503.009C328.02 502.311 325.664 501.063 325.022 499.018C324.592 497.646 324.936 495.808 325.613 494.553C330.403 485.672 359.539 490.702 368.899 490.671C376.574 490.644 384.244 489.892 391.548 487.415C397.353 485.447 403.204 482.324 405.877 476.502C413.514 459.868 392.741 436.967 381.781 426.154C376.736 421.176 367.661 414.951 365.269 408.267C365.432 406.82 365.799 405.885 367.007 404.98C375.699 398.463 407.259 419.438 416.371 423.736C420.267 425.574 424.404 427.032 428.695 427.567C433.489 428.165 438.627 427.756 442.493 424.58C446.102 421.616 448.531 416.212 448.695 411.578C449.302 394.386 430.746 361.079 424.371 343.541C422.929 339.571 420.613 333.879 421.271 329.586C421.525 327.927 422.191 327.455 423.476 326.6C424.678 326.62 425.268 326.717 426.21 327.523C434.077 334.247 444.631 356.906 451.584 366.727C455.867 372.778 461.113 378.892 467.163 383.246C472 386.727 478.078 389.023 484.093 387.901C500.759 384.791 505.409 356.979 508.757 343.484L515.354 316.48C516.687 310.889 517.501 303.947 520.837 299.219C528.794 303.535 525.769 347.907 526.039 357.951C526.293 367.402 526.367 378.866 530.649 387.463C532.317 390.812 535.052 393.865 538.749 394.938C542.633 396.065 546.553 394.547 549.54 392.034C555.979 386.617 560.235 376.535 565.057 369.584C570.212 362.151 576.649 355.667 581.695 348.133C584.908 343.337 592.628 326.826 596.889 324.819C597.747 324.415 597.385 324.509 598.395 324.923C600.822 330.416 589.468 361.507 587.756 370.2C585.325 382.539 583.581 400.02 591.321 410.967C594.555 415.541 599.147 418.118 604.673 418.822C625 421.414 643.491 400.226 661.889 392.828C664.381 391.825 667.823 390.48 670.492 390.943L671.007 392.07C670.06 405.301 639.449 429.606 632.087 442.913C629.811 447.024 628.339 451.663 629.736 456.327C639.335 488.371 709.655 455.535 724.762 464.032C725.283 464.757 725.719 465.068 725.736 466.005C725.951 477.552 693.932 475.33 686.275 477.407C674.76 480.53 662.014 487.965 653.7 496.524C650.451 499.869 647.498 504.097 647.712 508.967C647.905 513.364 650.492 517.417 653.177 520.761C663.783 533.974 679.367 539.416 694.357 546.013C699.129 548.113 704.447 550.307 708.233 554.009C709.347 555.1 709.98 555.969 709.948 557.539L708.919 558.175C700.323 558.634 687.59 550.268 678.892 547.534C665.041 543.181 649.152 543.215 636.094 550.116C630.058 553.306 625.393 558.189 623.46 564.857C619.183 579.607 629.518 597.044 639.534 607.142C646.785 614.452 657.437 621.333 662.306 630.482C663.128 632.027 663.542 633.227 663.041 634.955C662.062 635.868 661.462 636.313 660.086 636.442C651.309 637.267 633.409 616.573 626.648 610.651C618.598 603.599 607.377 594.59 595.883 595.619C591.448 596.017 587.999 598.015 585.264 601.515C576.083 613.262 580.141 637.976 583.194 651.58C584.631 657.981 586.883 664.457 587.471 671.004C587.663 673.14 587.869 673.56 586.506 675.22L585.526 675.23C575.333 669.297 567.452 642.31 561.668 631.193C557.428 623.043 551.269 613.467 541.882 610.788C536.975 609.388 532.085 610.292 527.729 612.811L527.168 613.143C513.254 623.626 503.899 653.611 501.121 670.48C499.139 682.52 499.432 693.096 495.353 704.968Z" fill="#C0C0C0"/>
<path d="M670.203 353.451C670.484 352.85 670.778 352.261 671.071 351.665C671.51 350.773 671.956 349.9 672.478 349.051C676.877 341.899 683.01 335.652 688.12 328.99C691.698 324.324 694.773 317.894 699.172 314.056C701.125 312.352 703.445 311.658 705.91 311.059C706.703 311.1 707.514 311.145 708.292 311.312C711.025 311.895 713.213 313.702 714.639 316.057C715.894 318.128 716.371 320.534 715.772 322.9C715.082 325.622 713.177 327.877 711.08 329.662C706.574 333.497 700.748 335.965 695.544 338.723C689.98 341.605 684.523 344.688 679.184 347.968C676.242 349.922 673.306 351.765 670.203 353.451ZM704.112 313.996C702.692 314.902 701.269 315.824 700.101 317.051C696.442 320.893 693.726 325.839 690.622 330.152C687.29 334.782 683.614 339.23 680.063 343.695C682.235 342.288 684.38 340.766 686.716 339.647C693.286 336.164 710.395 329.301 712.72 322.526C713.241 321.052 713.134 319.429 712.423 318.037C711.538 316.26 710.075 314.852 708.161 314.256C706.859 313.851 705.457 313.946 704.112 313.996Z" fill="#010102"/>
<path d="M680.062 343.695C683.615 339.23 687.29 334.782 690.622 330.152C693.726 325.839 696.443 320.893 700.102 317.051C701.27 315.824 702.692 314.902 704.112 313.996C705.457 313.946 706.859 313.851 708.161 314.256C710.075 314.852 711.537 316.26 712.422 318.037C713.133 319.429 713.24 321.052 712.719 322.526C710.394 329.301 693.286 336.164 686.716 339.647C684.38 340.766 682.234 342.288 680.062 343.695Z" fill="#98F5E1"/>
<path d="M283.924 391.603C269.448 385.169 242.114 377.201 230.588 368.804C226.769 366.021 223.627 362.409 221.957 357.944C220.475 353.981 220.157 349.365 222.051 345.48C223.591 342.318 226.375 340.052 229.699 338.968C235.742 336.997 242.396 339.059 247.776 341.987C263.285 350.428 273.088 367.686 283.08 381.657C285.434 384.949 290.053 389.779 291.101 393.619C291.164 393.848 291.212 394.08 291.267 394.311C288.803 394.913 285.982 392.768 283.924 391.603ZM231.684 340.564C228.688 341.406 226.257 342.667 224.685 345.484C222.901 348.683 223.058 353.102 224.17 356.487C226.573 363.809 233.69 368.296 240.295 371.436C252.408 377.194 265.725 381.971 278.358 386.518C280.258 387.211 282.151 387.943 284.065 388.595C274.362 371.877 258.445 346.184 238.714 341.167C236.342 340.564 234.118 340.491 231.684 340.564Z" fill="#010102"/>
<path d="M278.359 386.52C265.726 381.973 252.409 377.196 240.296 371.438C233.691 368.298 226.574 363.811 224.171 356.489C223.059 353.104 222.902 348.685 224.686 345.486C226.258 342.669 228.689 341.408 231.685 340.566C234.119 340.493 236.343 340.566 238.715 341.169C258.446 346.186 274.363 371.879 284.066 388.597C282.152 387.945 280.259 387.213 278.359 386.52Z" fill="#C0C0C0"/>
<path d="M624.852 384.772C625.801 380.74 627.185 376.76 628.525 372.84C631.666 363.648 635.649 354.999 644.763 350.509C645.672 350.491 646.604 350.465 647.509 350.569C649.885 350.841 651.726 352.262 653.067 354.175C654.072 355.608 654.489 357.187 654.146 358.921C652.782 365.828 636.882 375.873 631.291 379.945C629.263 381.662 626.992 383.192 624.852 384.772ZM644.607 353.435C635.886 358.393 633.286 367.175 630.414 376.139L635.275 373.136C639.648 370.268 650.443 363.444 651.295 357.842C651.509 356.433 651.291 356.078 650.639 354.891C648.667 353.628 646.934 353.251 644.607 353.435Z" fill="#010102"/>
<path d="M630.414 376.139C633.286 367.175 635.886 358.393 644.607 353.435C646.934 353.251 648.667 353.628 650.639 354.891C651.291 356.078 651.509 356.433 651.295 357.842C650.443 363.444 639.648 370.268 635.275 373.136L630.414 376.139Z" fill="#FFFFFA"/>
<path d="M75.0834 422.521C70.739 422.739 67.2409 422.723 63.2546 420.571C59.0472 418.28 56.0088 414.312 54.894 409.653C53.6599 404.464 54.6406 398.995 57.601 394.558C61.3057 388.936 66.8047 386.83 73.1205 385.619C76.6579 385.373 80.3939 385.849 83.5676 387.504C87.5508 389.581 90.1201 393.241 91.2831 397.526C92.7463 402.916 92.0908 408.743 89.134 413.518C85.7882 418.921 80.9961 421.102 75.0834 422.521Z" fill="#FBF8CC"/>
<path d="M693.672 430.1C701.551 423.036 722.472 406.935 731.429 402.394C734.211 400.984 736.926 400.181 739.976 399.619C741.715 399.56 743.385 399.769 745.004 400.431C747.856 401.596 750.142 403.728 751.225 406.635C752.037 408.813 752.218 411.073 751.198 413.213C746.987 422.051 729.38 422.121 721.063 423.426C715.835 424.246 710.761 425.226 705.786 427.058C701.79 428.539 697.877 429.438 693.672 430.1ZM737.781 402.553C726.303 407.586 716.684 415.921 706.613 423.237C710.197 422.447 713.786 421.68 717.38 420.935C725.132 419.945 743.475 419.438 748.124 412.902C749.024 411.635 749.17 410.276 748.855 408.787C748.408 406.673 746.599 404.547 744.697 403.594C742.432 402.459 740.257 402.335 737.781 402.553Z" fill="#010102"/>
<path d="M706.613 423.238C716.684 415.922 726.303 407.587 737.781 402.554C740.257 402.336 742.432 402.46 744.697 403.595C746.599 404.548 748.408 406.674 748.855 408.788C749.17 410.277 749.024 411.636 748.124 412.903C743.475 419.439 725.132 419.946 717.38 420.936C713.786 421.681 710.197 422.448 706.613 423.238Z" fill="#98F5E1"/>
<path d="M142.204 447.92C139.062 448.117 135.659 447.627 132.801 446.273C129.242 444.587 126.725 441.547 125.599 437.789C124.292 433.425 124.798 428.376 127.132 424.445C130.036 419.553 134.73 417.4 140.017 416.054C142.894 415.892 145.218 416.008 147.886 417.185C151.62 418.833 154.265 421.872 155.643 425.688C157.148 429.856 157.077 434.476 155.105 438.476C152.369 444.027 147.793 446.157 142.204 447.92Z" fill="#FBF8CC"/>
<path d="M330.315 442.658C320.303 437.133 302.625 436.828 296.106 426.822C295.203 425.435 294.682 423.911 295.174 422.258C295.996 419.498 298.625 417.796 301.029 416.562C305.479 416.353 308.412 417.206 312.151 419.704C316.348 422.507 332.623 438.974 333.53 443.26C332.207 443.67 331.569 443.134 330.315 442.658ZM300.67 419.587C299.356 420.801 298.217 421.905 298.28 423.863C298.344 425.819 299.785 427.379 301.254 428.495C307.233 433.04 316.652 434.724 323.841 436.787L324.789 436.684C320.03 431.143 312.64 420.277 304.977 419.434C303.569 419.279 302.077 419.464 300.67 419.587Z" fill="#010102"/>
<path d="M323.841 436.787C316.652 434.724 307.233 433.04 301.254 428.495C299.785 427.379 298.344 425.819 298.28 423.863C298.217 421.905 299.356 420.801 300.67 419.587C302.077 419.464 303.569 419.279 304.977 419.434C312.64 420.277 320.03 431.143 324.789 436.684L323.841 436.787Z" fill="#C0C0C0"/>
<path d="M810.125 472.552C806.543 472.406 775.307 472.258 773.531 471.135C773.59 470.239 773.404 470.286 773.937 469.747C776.317 467.339 845.227 444.945 853.451 442.617C859.031 441.037 864.569 439.813 870.338 439.193C872.483 438.984 874.621 438.819 876.777 438.8C883.825 438.738 892.004 439.732 897.136 445.069C899.923 447.964 901.395 451.879 901.205 455.892C901.017 460.789 898.612 465.161 894.984 468.375C881.426 480.388 851.663 476.277 834.824 474.695C826.597 473.912 818.363 473.197 810.125 472.552ZM886.404 442.117C879.277 440.647 872.18 440.914 865.035 442.196C849.667 444.954 834.474 451.37 819.725 456.407C806.686 460.861 793.392 464.673 780.437 469.351C793.517 469.383 806.59 469.949 819.624 471.05C838.442 472.621 859.672 476.502 878.397 472.852C880.979 472.297 883.512 471.707 885.975 470.735C890.96 468.767 895.762 465.159 897.817 460.062C899.074 456.942 899.241 453.287 897.767 450.208C895.577 445.633 890.962 443.569 886.404 442.117Z" fill="#010102"/>
<path d="M886.404 442.118C885.395 443.073 877.6 468.456 877.346 470.977C877.279 471.635 877.35 471.841 877.458 472.418L878.396 472.853C859.671 476.503 838.443 472.622 819.625 471.051C806.591 469.95 793.517 469.384 780.438 469.352C793.392 464.674 806.685 460.862 819.724 456.408C834.473 451.371 849.666 444.955 865.034 442.197C872.179 440.915 879.277 440.648 886.404 442.118Z" fill="#C0C0C0"/>
<path d="M878.397 472.852L877.458 472.417C877.35 471.84 877.279 471.634 877.346 470.976C877.6 468.455 885.395 443.072 886.404 442.117C890.962 443.569 895.577 445.633 897.767 450.208C899.241 453.287 899.074 456.942 897.817 460.062C895.762 465.159 890.96 468.767 885.975 470.735C883.512 471.707 880.979 472.297 878.397 472.852Z" fill="#FFFFFA"/>
<path d="M145.498 499.025C142.751 498.894 140.011 498.639 137.287 498.258C129.4 497.086 120.9 493.07 116.242 486.408C113.612 482.646 112.142 477.799 113.11 473.226C113.972 469.152 116.553 466.126 120.003 463.923C133.472 455.326 153.398 460.297 167.969 463.375C183.339 465.222 258.826 482.57 267.764 489.631L267.765 490.484C266.106 491.344 263.514 490.603 261.631 490.414C252.293 489.506 242.903 489.265 233.532 489.692C218.638 490.239 203.781 491.537 189.018 493.581C174.573 495.658 160.125 498.631 145.498 499.025ZM168.357 465.885C154.186 463.258 133.879 457.371 120.946 466.193C118.094 468.139 115.94 470.914 115.355 474.373C114.685 478.335 115.988 482.204 118.364 485.37C123.306 491.957 131.964 495.39 139.934 496.3C143.327 496.688 147.996 496.932 151.333 496.125C165.177 495.821 179.117 492.162 192.813 490.268C212.781 487.669 232.911 486.527 253.045 486.851C225.214 477.825 197.018 471.589 168.357 465.885Z" fill="#010102"/>
<path d="M151.333 496.124C147.996 496.931 143.327 496.687 139.934 496.299C131.964 495.389 123.306 491.956 118.364 485.369C115.988 482.203 114.685 478.334 115.355 474.372C115.94 470.913 118.094 468.138 120.946 466.192C133.879 457.37 154.186 463.257 168.357 465.884C165.947 474.74 162.724 481.658 157.08 488.928C155.256 491.279 152.87 493.604 151.333 496.124Z" fill="#C0C0C0"/>
<path d="M168.356 465.883C197.017 471.587 225.213 477.823 253.044 486.849C232.91 486.525 212.78 487.667 192.812 490.266C179.116 492.16 165.176 495.819 151.332 496.123C152.869 493.603 155.255 491.278 157.079 488.927C162.723 481.657 165.946 474.739 168.356 465.883Z" fill="#C0C0C0"/>
<path d="M85.7834 533.846C75.9155 534.55 66.4305 529.897 60.9481 521.662C55.4657 513.427 54.8321 502.881 59.2889 494.049C63.7458 485.217 72.6055 479.461 82.4867 478.979C97.5277 478.245 110.359 489.751 111.262 504.782C112.165 519.814 100.804 532.774 85.7834 533.846Z" fill="#A3C4F3"/>
<path d="M323.953 514.172C318.313 513.244 313.5 511.191 310.107 506.331C307.382 502.427 306.523 497.519 307.481 492.879C308.501 487.944 311.296 484.393 315.391 481.609C316.426 485.18 312.845 492.995 314.278 498.795C315.814 505.013 323.045 509.408 323.953 514.172Z" fill="#E6F4DF"/>
<path d="M916.772 527.523C909.964 528.383 903.224 525.491 899.156 519.964C895.088 514.438 894.331 507.142 897.176 500.898C900.021 494.653 906.023 490.438 912.862 489.88C923.118 489.045 932.162 496.555 933.225 506.79C934.288 517.024 926.98 526.233 916.772 527.523Z" fill="#8EECF5"/>
<path d="M771.575 500.877C765.125 501.286 726.188 500.975 722.23 498.61L721.875 497.057C728.894 496.49 766.85 496.267 771.315 499.364L771.575 500.877Z" fill="#010102"/>
<path d="M307.683 546.453C307.358 546.289 307.037 546.118 306.719 545.94C305.051 544.999 303.519 543.72 303.148 541.729C302.833 540.041 303.339 538.114 304.358 536.742C309.409 529.937 323.954 532.415 331.352 532.482C334.825 532.514 338.1 532.239 341.526 531.677C342.984 531.471 344.236 531.238 345.695 531.598L345.626 532.188C342.068 534.645 319.346 545.615 315.536 546.535C312.859 547.181 310.356 546.834 307.683 546.453ZM316.788 534.697C313.485 535.039 309.364 535.164 307.197 538.092C306.592 538.909 306.519 539.545 306.427 540.516C307.024 542.006 307.537 542.888 309.087 543.513C312.618 544.937 316.636 543.537 319.964 542.179C324.177 540.04 328.346 537.817 332.47 535.511C327.292 535.254 321.966 534.683 316.788 534.697Z" fill="#010102"/>
<path d="M319.965 542.181C316.637 543.539 312.619 544.939 309.088 543.515C307.538 542.89 307.025 542.009 306.428 540.519C306.52 539.548 306.593 538.911 307.198 538.094C309.365 535.166 313.486 535.041 316.789 534.699C321.967 534.685 327.293 535.256 332.471 535.513C328.347 537.819 324.178 540.042 319.965 542.181Z" fill="#FFFFFA"/>
<path d="M720.209 564.415C720.322 559.917 718.624 554.81 720.183 550.523C724.651 554.26 728.688 558.867 729.241 564.94C729.61 568.837 728.383 572.717 725.84 575.693C722.518 579.638 717.357 581.779 712.272 582.058C705.776 582.414 699.99 579.819 694.531 576.61C696.216 574.434 706.325 574.639 709.597 573.597C714.719 571.965 717.811 569.162 720.209 564.415Z" fill="#FFFFFA"/>
<path d="M889.521 625.446C886.736 627.937 883.174 629.283 879.522 629.854C872.775 630.909 865.71 629.45 859.35 627.209C840.893 620.707 821.737 607.984 805.151 597.494C787.851 586.552 770.667 575.538 754.113 563.483C761.193 563.059 774.389 566.329 781.771 567.601C813.318 573.035 858.346 579.177 883.908 599.565C888.469 603.203 893.594 608.343 894.083 614.457C894.44 618.912 892.362 622.234 889.521 625.446ZM765.579 567.982C782.893 580.682 801.165 592.308 819.531 603.427C832.007 610.981 845.167 619.252 858.884 624.346C865.186 626.686 872.521 628.621 879.281 627.551C882.779 626.997 885.329 625.721 888.12 623.597C890.504 620.99 892.161 618.424 891.894 614.737C891.512 609.444 887.001 604.852 883.048 601.71C859.342 582.87 821.254 576.975 792.138 571.838C784.21 570.44 773.492 567.812 765.579 567.982Z" fill="#010102"/>
<path d="M888.119 623.596C885.328 625.72 882.778 626.995 879.28 627.549C872.52 628.619 865.185 626.684 858.883 624.344C845.166 619.25 832.006 610.98 819.53 603.426C801.164 592.307 782.892 580.681 765.578 567.981C773.491 567.811 784.209 570.438 792.137 571.836C821.253 576.973 859.341 582.868 883.047 601.708C887 604.85 891.511 609.443 891.893 614.736C892.16 618.423 890.503 620.989 888.119 623.596Z" fill="#C0C0C0"/>
<path d="M400.18 573.997C408.184 573.066 417.689 571.265 424.518 576.747C427.39 579.053 429.015 581.87 430.357 585.237C426.119 587.476 421.74 589.27 416.935 589.824C416.552 585.485 415.729 580.77 412.243 577.768C408.797 574.802 404.737 574.903 400.497 575.229L400.18 573.997Z" fill="#E6F4DF"/>
<path d="M155.133 657.391C152.114 654.829 150.222 651.733 149.571 647.792C148.594 641.877 150.16 636.112 153.666 631.305C172.248 605.828 254.138 588.923 285.592 583.699L286.847 584.208L287.103 584.984C286.3 586.07 259.813 601.81 256.424 604.031C246.154 610.869 236.055 617.962 226.139 625.304C213.533 634.696 188.948 656.625 175.287 660.025C168.299 661.764 161.38 661.117 155.133 657.391ZM273.628 588.661C263.763 590.217 254.054 592.722 244.352 595.06C221.509 600.565 169.702 613.32 155.679 632.84C152.613 637.107 150.946 642.369 152.038 647.618C152.778 651.175 154.421 653.358 157.236 655.545C162.947 658.624 168.729 659.407 175.018 657.536C188.786 653.439 211.604 633.013 223.816 623.707C230.992 618.239 238.482 613.107 245.913 607.993C249.914 605.24 274.019 590.424 275.322 588.709C274.704 588.631 274.248 588.556 273.628 588.661Z" fill="#010102"/>
<path d="M157.237 655.545C154.422 653.358 152.779 651.175 152.039 647.618C150.947 642.369 152.614 637.107 155.68 632.84C169.703 613.32 221.51 600.565 244.353 595.06C254.055 592.722 263.764 590.217 273.629 588.661C274.249 588.556 274.705 588.631 275.323 588.709C274.02 590.424 249.915 605.24 245.914 607.993C238.483 613.107 230.993 618.239 223.817 623.707C211.605 633.013 188.787 653.439 175.019 657.536C168.73 659.407 162.948 658.624 157.237 655.545Z" fill="#C0C0C0"/>
<path d="M385.561 602.269C391.627 602.497 409.046 592.838 415.229 589.793C415.063 597.156 414.069 603.637 411.631 610.605C408.442 619.719 403.895 628.51 399.834 637.259C394.279 649.227 379.875 675.459 390.672 687.404C394.042 691.132 400.332 693.354 405.247 693.489C411.382 693.657 416.92 690.685 421.168 686.439C432.79 674.823 440.789 640.794 460.223 641.152C465.902 641.257 471.594 645.112 475.299 649.257C482.174 656.949 482.896 666.159 482.24 675.961C481.782 682.8 480.863 689.62 479.913 696.405C478.417 707.084 474.013 724.569 481.727 733.794C484.061 736.587 487.193 738.044 490.799 738.319C495.457 738.675 499.688 737.366 503.128 734.185C509.549 728.25 510.174 716.574 510.294 708.456C510.452 697.816 509.02 680.144 511.465 670.259C511.486 670.425 511.509 670.591 511.527 670.758C512.218 677.046 511.16 683.576 511.006 689.885C510.69 702.867 513.917 723.384 504.898 733.87C502.111 737.109 498.115 738.889 493.862 739.053C493.527 739.066 493.192 739.069 492.857 739.077C492.215 739.689 491.975 740.095 491.563 740.862C490.799 740.242 490.95 739.883 490.777 738.947C489.782 739.061 489.65 739.136 488.868 739.674C484.309 737.81 479.587 733.842 477.689 729.247C476.506 726.381 477.165 712.273 475.597 711.507C474.921 711.177 474.321 710.804 473.694 710.392C472.518 711.287 472.41 712.731 472.173 714.167C469.811 728.471 476.785 752.469 478.879 767.548C479.528 772.223 478.259 778.565 477.696 783.279L478.32 783.29C478.461 783.024 478.599 782.757 478.744 782.494C479.211 781.646 479.608 781.296 480.466 780.823C482.255 780.975 482.907 781.849 484.122 783.07C484.858 783.811 484.483 783.615 485.198 783.851C485.174 781.884 485.198 779.867 485 777.911C484.858 776.51 484.205 774.867 484.219 773.502C484.228 772.719 484.593 772.243 485.104 771.713C487.038 769.705 492.755 767.259 495.529 767.076C497.951 769.385 498.291 773.758 500.724 776.147C500.781 772.697 496.636 764.777 497.96 762.913C498.845 763.542 499.551 764.162 499.793 765.295C500.776 769.894 504.643 775.156 504.363 778.434C504.314 778.997 504.316 779.563 504.291 780.127C504.124 783.948 507.61 785.184 507.259 790.009L506.825 790.279C505.93 788.942 505.019 787.617 504.09 786.304C502.11 789.932 504.352 795.786 499.869 798.306C497.301 797.82 491.536 795.336 489.365 796.879C486.498 798.916 484.907 805.672 484.846 808.998C484.814 810.8 485.021 812.193 485.755 813.833C487.317 814.606 492.408 813.643 494.346 813.519C504.509 812.871 521.715 814.047 530.796 818.048C511.891 815.603 485.211 809.21 468.321 821.703C463.931 824.95 461.406 829.576 460.718 834.967C459.16 847.182 465.932 857.319 469.643 868.391C460.252 868.7 451.213 868.394 442.005 866.404C429.701 863.744 417.686 858.681 404.903 859.088C366.896 860.301 352.933 899.736 321.416 913.918C307.258 920.289 290.224 922.214 275.508 916.498C264.474 912.212 256.144 905.248 249.619 895.414C225.367 858.86 242.11 815.679 226.216 780.421C220.135 766.902 208.889 756.384 194.993 751.219L194.74 751.067C200.638 734.789 203.123 717.406 211.015 701.844C223.611 677.003 248.525 659.76 274.328 650.762C284.98 647.047 296.128 644.655 306.903 641.283C316.463 638.292 325.684 634.692 334.96 630.932C341.643 628.222 350.15 625.72 356.073 621.698C356.202 621.611 356.326 621.518 356.453 621.429C356.924 622.135 357.408 622.884 357.997 623.498C359.101 624.649 360.917 625.341 362.501 625.294C369.238 625.092 373.086 615.326 376.868 610.96C379.519 607.899 382.679 605.122 385.561 602.269ZM373.055 648.862C361.948 657.187 351.206 666.162 340.235 674.694C322.44 688.381 305.065 702.606 288.135 717.349C278.499 725.827 268.682 734.518 260.253 744.23C252.805 752.811 244.48 763.726 242.664 775.293C241.729 781.247 242.796 787.343 246.534 792.176C247.096 792.915 247.704 793.618 248.354 794.281C252.426 797.183 256.621 798.344 261.621 797.54C271.244 795.992 277.794 787.7 283.012 780.172C291.191 768.375 297.977 755.377 305.579 743.165C319.047 721.529 334.314 699.226 350.08 679.217C354.633 673.438 359.107 667.545 363.839 661.912C366.55 658.684 369.81 655.809 372.323 652.438C373.092 651.406 373.644 650.614 373.801 649.302L373.055 648.862ZM440.285 689.397C438.408 690.911 436.513 692.5 434.448 693.749C429.064 697.006 418.888 700.376 418.061 707.663C417.761 710.305 418.781 712.456 420.476 714.402C420.57 714.511 420.668 714.617 420.764 714.724C423.654 715.893 426.181 716.481 429.143 715.102C432.683 713.453 434.96 709.635 436.13 706.056C437.776 701.024 438.561 695.815 440.759 690.97C440.673 690.263 440.767 689.945 440.285 689.397ZM470.912 706.302C467.971 711.315 465.683 716.708 462.904 721.819C453.243 739.586 442.799 757.733 448.244 778.806C449.683 784.373 452.695 789.675 457.619 792.852C461.096 794.357 464.39 794.999 468.008 793.461C472.046 791.745 474.83 787.977 476.247 783.932C482.007 767.486 472.434 744.922 471.393 727.96C471.167 724.276 472.403 708.784 471.36 706.643L470.912 706.302ZM340.66 791.814C332.422 793.987 327.465 802.381 329.54 810.643C331.614 818.906 339.949 823.963 348.236 821.987C353.684 820.687 358.014 816.559 359.57 811.178C361.127 805.796 359.67 799.994 355.756 795.987C351.842 791.979 346.076 790.385 340.66 791.814Z" fill="#90DBF4"/>
<path d="M717.709 618.544C715.818 618.665 713.931 618.739 712.102 618.148C708.52 616.99 704.941 614.226 703.236 610.831C702.194 608.754 701.871 606.52 702.669 604.308C703.752 601.307 706.266 599.781 709.043 598.558C711.261 598.419 713.389 598.331 715.566 598.873C718.852 599.691 721.961 601.747 723.638 604.735C724.854 606.902 725.293 609.586 724.454 611.966C723.325 615.168 720.645 617.138 717.709 618.544ZM709.422 601.608C707.811 602.701 706.439 603.511 706.048 605.556C705.633 607.721 706.435 609.964 707.736 611.683C709.39 613.868 712.264 615.88 715.04 616.196C716.258 616.335 717.226 616.065 718.362 615.709C720.415 613.925 722.203 612.021 722.409 609.165C722.529 607.498 721.882 605.926 720.78 604.692C718.994 602.691 716.183 601.419 713.514 601.339C712.137 601.299 710.782 601.409 709.422 601.608Z" fill="#010102"/>
<path d="M718.362 615.706C717.226 616.062 716.257 616.332 715.039 616.193C712.263 615.877 709.39 613.865 707.736 611.68C706.435 609.961 705.632 607.718 706.047 605.553C706.438 603.508 707.811 602.698 709.422 601.605C710.782 601.406 712.136 601.296 713.513 601.336C716.182 601.416 718.994 602.688 720.78 604.689C721.882 605.923 722.529 607.495 722.409 609.162C722.203 612.018 720.415 613.922 718.362 615.706Z" fill="#98F5E1"/>
<path d="M356.452 621.427C356.423 620.862 356.395 620.296 356.407 619.73C356.461 617.242 357.559 615.749 359.349 614.091C363.319 610.412 380.684 602.017 385.56 602.267C382.678 605.12 379.518 607.897 376.867 610.958C373.085 615.324 369.237 625.09 362.5 625.292C360.916 625.339 359.1 624.647 357.996 623.496C357.407 622.882 356.923 622.133 356.452 621.427ZM373.428 609.554C369.581 611.06 361.556 613.564 359.718 617.608C359.017 619.149 359.129 620.214 359.807 621.764C359.891 621.957 359.991 622.143 360.083 622.332C363.425 622.331 365.397 621.361 367.793 619.039C369.824 617.072 373.122 612.498 373.428 609.554Z" fill="#010102"/>
<path d="M948.82 677.37C940.39 677.426 932.087 675.664 925.203 670.579C918.024 665.319 913.228 657.425 911.869 648.63C910.416 638.938 912.98 628.016 918.944 620.198C925.667 611.386 935.139 607.204 945.868 605.675C954.717 604.623 964.785 606.697 971.948 612.144C978.376 617.032 981.494 624.319 982.402 632.139C983.72 643.491 981.155 655.345 973.964 664.389C967.465 672.561 958.99 676.244 948.82 677.37Z" fill="#FFCFD2"/>
<path d="M360.085 622.333C359.993 622.144 359.893 621.958 359.809 621.765C359.131 620.215 359.018 619.15 359.719 617.609C361.557 613.565 369.582 611.061 373.429 609.555C373.123 612.499 369.826 617.073 367.795 619.04C365.399 621.362 363.427 622.332 360.085 622.333Z" fill="#E6F4DF"/>
<path d="M674.327 637.364C673.722 636.067 673.213 634.8 672.741 633.448C672.826 631.679 673.652 630.867 674.728 629.578C678.533 635.315 681.91 641.796 680.429 648.928C679.786 652.023 678.117 654.758 675.452 656.512C672.186 658.662 668.059 659.035 664.317 658.123C659.461 656.938 655.388 653.781 651.633 650.627C655.608 648.494 661.789 650.864 666.038 649.072C670.363 647.247 672.589 641.357 674.327 637.364Z" fill="#FFFFFA"/>
<path d="M774.276 693.988C773.166 694.803 772.032 695.659 770.761 696.207C764.197 699.04 755.374 697.148 748.97 694.618C732.129 687.964 707.398 664.861 700.137 647.969C720.016 649.565 748.374 657.986 764.868 669.323C769.932 672.803 776.316 677.742 777.331 684.187C777.953 688.135 776.509 690.865 774.276 693.988ZM704.811 650.822C715.2 668.36 734.861 688.817 755.147 694.081C760.235 695.402 766.62 695.941 771.238 693.001C771.956 692.543 771.892 692.575 772.462 692.125C774.142 689.951 775.07 687.872 774.714 685.067C774.01 679.511 768.26 675.004 763.977 671.93C750.144 662.002 721.813 652.723 704.811 650.822Z" fill="#010102"/>
<path d="M248.353 794.278C247.703 793.615 247.095 792.912 246.533 792.173C242.795 787.34 241.728 781.244 242.663 775.29C244.479 763.723 252.804 752.808 260.252 744.227C268.681 734.515 278.498 725.824 288.134 717.346C305.064 702.603 322.439 688.378 340.234 674.691C351.205 666.159 361.947 657.184 373.054 648.859L373.8 649.299C373.643 650.611 373.091 651.403 372.322 652.435C369.809 655.806 366.549 658.681 363.838 661.909C359.106 667.542 354.632 673.435 350.079 679.214C334.313 699.223 319.046 721.526 305.578 743.162C297.976 755.374 291.19 768.372 283.011 780.169C277.793 787.697 271.243 795.989 261.62 797.537C256.62 798.341 252.425 797.18 248.353 794.278ZM355.427 666.564C337.849 680.359 320.406 694.08 303.174 708.323C289.122 719.938 274.454 732.045 262.401 745.756C255.215 753.929 246.297 765.311 245.003 776.533C244.435 781.461 245.494 786.532 248.629 790.458C248.995 790.911 249.377 791.35 249.774 791.775C253.333 794.469 256.806 795.446 261.264 794.738C270.248 793.309 276.233 785.268 281.05 778.256C285.427 771.884 289.08 765.002 292.974 758.328C297.258 751.099 301.661 743.941 306.18 736.857C321.385 712.911 338.351 689.511 355.635 667.026L355.427 666.564Z" fill="#010102"/>
<path d="M772.462 692.123C771.892 692.573 771.956 692.541 771.238 692.999C766.62 695.939 760.235 695.4 755.147 694.079C734.861 688.815 715.2 668.358 704.811 650.82C721.813 652.721 750.144 662 763.977 671.928C768.26 675.002 774.01 679.509 774.714 685.065C775.07 687.87 774.142 689.949 772.462 692.123Z" fill="#C0C0C0"/>
<path d="M249.775 791.777C249.378 791.352 248.996 790.913 248.63 790.46C245.495 786.534 244.436 781.463 245.004 776.535C246.298 765.313 255.216 753.931 262.402 745.758C274.455 732.047 289.123 719.94 303.175 708.325C320.407 694.082 337.85 680.361 355.428 666.566L355.636 667.028C338.352 689.513 321.386 712.913 306.181 736.859C301.662 743.943 297.259 751.101 292.975 758.33C289.081 765.004 285.428 771.886 281.051 778.258C276.234 785.27 270.249 793.311 261.265 794.74C256.807 795.448 253.334 794.471 249.775 791.777Z" fill="#C0C0C0"/>
<path d="M389.223 667.977C389.895 668.137 391.17 668.208 391.529 668.814C391.938 669.504 391.942 670.033 392.06 670.805C393.068 677.384 398.558 682.046 403.64 685.788C405.468 687.133 407.653 688.023 408.525 690.217C408.558 690.3 408.597 690.38 408.633 690.462C406.245 690.836 403.813 690.813 401.432 690.396C397.226 689.636 393.367 687.628 390.924 684.03C387.583 679.11 388.202 673.49 389.223 667.977Z" fill="#E6F4DF"/>
<path d="M571.635 681.91C572.396 681.717 572.778 681.382 573.487 681.837C574.303 682.361 574.736 682.921 575.374 683.63C577.72 686.239 580.991 689.017 584.646 689.141C588.197 689.262 594.804 686.692 597.444 688.957C596.293 691.633 595.022 693.834 592.302 695.152C589.759 696.384 586.949 696.154 584.348 695.219C578.152 692.992 574.291 687.646 571.635 681.91Z" fill="#FFFFFA"/>
<path d="M721.552 827.907C720.244 829.152 718.894 830.208 717.276 831.034C712.96 833.234 708.172 833.648 703.623 831.915C696.32 829.133 690.724 821.533 686.945 814.985C677.704 798.967 673.069 780.188 666.764 762.895C663.341 753.51 658.877 744.315 654.292 735.452C649.619 726.333 644.121 717.661 637.867 709.545C631.528 701.421 623.678 693.645 619.246 684.266C620.015 684.622 620.639 684.964 621.301 685.502C630.463 692.946 637.466 702.646 645.905 710.823C668.433 732.651 723.462 779.568 726.574 811.569C727.193 817.924 725.608 823.032 721.552 827.907ZM643.715 712.801C651.674 725.982 659.361 738.466 665.545 752.642C673.789 771.54 684.889 824.615 706.159 830.339C709.789 831.292 713.653 830.661 716.791 828.601C717.933 827.851 718.966 826.927 719.958 825.995C723.669 820.574 724.783 815.366 723.556 808.816C718.786 783.371 681.671 748.739 663.171 730.801C658.026 725.814 650.543 717.527 645.051 713.513C644.496 713.108 644.277 713.043 643.715 712.801Z" fill="#010102"/>
<path d="M420.765 714.722C420.669 714.615 420.571 714.509 420.477 714.4C418.782 712.454 417.762 710.303 418.062 707.661C418.889 700.374 429.065 697.004 434.449 693.747C436.514 692.498 438.409 690.909 440.286 689.395C440.768 689.943 440.674 690.261 440.76 690.968C438.562 695.813 437.777 701.022 436.131 706.054C434.961 709.633 432.684 713.451 429.144 715.1C426.182 716.479 423.655 715.891 420.765 714.722ZM434.387 697.465C430.199 699.464 423.385 702.094 421.607 706.804C421.057 708.262 420.923 709.814 421.655 711.239C421.87 711.658 422.127 712.055 422.374 712.456C425.157 712.676 427.335 712.968 429.627 711.03C433.539 707.721 434.581 703.317 435.009 698.447C434.538 697.545 434.819 697.812 434.387 697.465Z" fill="#010102"/>
<path d="M422.373 712.456C422.126 712.055 421.869 711.658 421.654 711.239C420.922 709.814 421.056 708.262 421.606 706.804C423.384 702.094 430.198 699.464 434.386 697.465C434.818 697.812 434.537 697.545 435.008 698.447C434.58 703.317 433.538 707.721 429.626 711.03C427.334 712.968 425.156 712.676 422.373 712.456Z" fill="#FFFFFA"/>
<path d="M542.5 773C542.527 768.553 543.413 763.937 543.972 759.517C544.95 751.779 545.886 744.079 546.283 736.283C546.557 730.896 547.18 725.224 546.857 719.849C546.504 713.984 545.292 708.131 545.508 702.247L546.183 701.742C547.502 701.972 547.781 702.034 548.637 703.185C551.111 706.515 555.224 737.761 556.377 744.207C557.965 753.075 559.805 761.966 561.741 770.765C565.805 789.229 571.341 807.259 575.84 825.598C576.493 828.259 578.519 841.339 579.823 842.885C580.914 844.18 588.881 848.867 591.738 851.675C606.274 865.96 617.628 883.978 620.253 904.508C620.6 907.225 621.426 911.37 620.713 914.033C620.538 914.683 620.362 914.971 620.06 915.613L620.37 916.407C633.181 919.935 646.852 922.511 660.163 920.941C664.463 920.449 668.705 919.535 672.825 918.21C674.949 917.546 679.067 915.391 681.067 915.799C660.726 924.464 640.186 922.869 619.376 916.678C603.722 912.524 582.591 896.121 571.281 884.688C566.908 880.266 555.662 869.257 555.697 863.476C558.554 864.881 561.357 865.74 564.575 865.413C568.561 865.045 572.22 863.055 574.695 859.908C578.789 854.747 578.756 848.309 578.015 842.106C575.931 824.664 569.758 807.535 565.447 790.527C560.052 769.106 555.678 747.441 552.339 725.605C551.709 721.701 549.499 704.611 546.97 702.625C545.946 704.783 547.616 720.571 547.582 724.829C547.456 741 545.4 757.006 543.166 773H542.5Z" fill="#CFBAF0"/>
<path d="M543.165 773C545.399 757.006 547.455 741 547.581 724.829C547.615 720.571 545.945 704.783 546.969 702.625C549.498 704.611 551.708 721.701 552.338 725.605C555.677 747.441 560.051 769.106 565.446 790.527C569.757 807.535 575.93 824.664 578.014 842.106C578.755 848.309 578.788 854.747 574.694 859.908C572.219 863.055 568.56 865.045 564.574 865.413C561.356 865.74 558.553 864.881 555.696 863.476C544.928 855.11 541.729 837.615 539.924 824.928C537.755 807.91 541.107 789.858 543.165 773ZM550.367 727.074C549.012 740.742 548.054 754.38 546.464 768.04C544.366 786.058 540.515 804.604 542.25 822.769C543.552 834.514 546.416 852.661 556.185 860.676C558.761 862.79 562.083 864 565.428 863.476C568.582 862.983 571.101 860.944 572.846 858.347C576.769 852.509 576.203 846.108 575.357 839.523C572.389 823.596 567.425 807.849 563.341 792.163C557.737 770.741 553.405 749.007 550.367 727.074Z" fill="#010102"/>
<path d="M457.618 792.851C452.694 789.674 449.682 784.372 448.243 778.805C442.798 757.732 453.242 739.585 462.903 721.818C465.682 716.707 467.97 711.314 470.911 706.301L471.359 706.642C472.402 708.783 471.166 724.275 471.392 727.959C472.433 744.921 482.006 767.485 476.246 783.931C474.829 787.976 472.045 791.744 468.007 793.46C464.389 794.998 461.095 794.356 457.618 792.851ZM468.256 718.372C458.257 736.348 444.701 757.239 451.208 778.847C452.603 783.481 454.915 787.225 458.622 790.338C461.228 791.585 464.468 792.092 467.281 791.186C469.831 790.366 471.51 787.681 472.512 785.359C478.599 771.247 471.662 750.587 469.421 735.853C468.554 730.15 468.32 724.136 468.256 718.372Z" fill="#010102"/>
<path d="M719.958 825.995C718.966 826.927 717.933 827.851 716.791 828.601C713.653 830.661 709.789 831.292 706.159 830.339C684.889 824.615 673.789 771.54 665.545 752.642C659.361 738.466 651.674 725.982 643.715 712.801C644.277 713.043 644.496 713.108 645.051 713.513C650.543 717.527 658.026 725.814 663.171 730.801C681.671 748.739 718.786 783.371 723.556 808.816C724.783 815.366 723.669 820.574 719.958 825.995Z" fill="#C0C0C0"/>
<path d="M458.623 790.337C454.916 787.224 452.604 783.48 451.209 778.846C444.702 757.238 458.258 736.347 468.257 718.371C468.321 724.135 468.555 730.149 469.422 735.852C471.663 750.586 478.6 771.246 472.513 785.358C471.511 787.68 469.832 790.365 467.282 791.185C464.469 792.091 461.229 791.584 458.623 790.337Z" fill="#C0C0C0"/>
<path d="M592.395 748.92C590.56 748.97 588.593 748.832 586.859 748.19C583.221 746.842 580.202 743.362 578.638 739.904C577.098 736.498 576.555 732.491 577.97 728.951C579.284 725.666 581.439 724.473 584.541 723.086C586.586 722.935 588.477 722.881 590.401 723.704C594.382 725.407 597.406 729.285 598.895 733.261C600.2 736.746 600.635 740.793 598.855 744.2C597.425 746.938 595.21 747.993 592.395 748.92ZM585.589 725.462C583.254 726.716 581.612 727.776 580.775 730.403C579.738 733.658 580.474 737.373 582.063 740.324C583.419 742.842 585.847 745.374 588.689 746.132C589.802 746.429 590.93 746.323 592.061 746.211C594.203 745.224 595.718 744.495 596.642 742.222C597.829 739.302 597.253 735.955 595.978 733.17C594.627 730.219 591.754 726.648 588.473 725.759C587.451 725.483 586.633 725.46 585.589 725.462Z" fill="#010102"/>
<path d="M592.062 746.21C590.931 746.322 589.803 746.428 588.69 746.131C585.848 745.373 583.42 742.841 582.064 740.323C580.475 737.372 579.739 733.657 580.776 730.402C581.613 727.775 583.255 726.715 585.59 725.461C586.634 725.459 587.452 725.482 588.474 725.758C591.755 726.647 594.628 730.218 595.979 733.169C597.254 735.954 597.83 739.301 596.643 742.221C595.719 744.494 594.204 745.223 592.062 746.21Z" fill="#98F5E1"/>
<path d="M542.251 822.769C540.516 804.604 544.367 786.058 546.465 768.04C548.055 754.38 549.013 740.742 550.368 727.074C553.406 749.007 557.738 770.741 563.342 792.163C567.426 807.849 572.39 823.596 575.358 839.523C566.022 837.402 554.861 823.568 542.251 822.769Z" fill="#C0C0C0"/>
<path d="M127.304 730.492C140.726 736.28 154.54 738.543 168.57 742.124C177.583 744.425 186.157 747.488 194.741 751.066L194.994 751.218L193.881 753.5C188.963 763.828 179.567 773.306 170.213 779.749C162.203 785.267 152.048 789.689 142.122 787.666C135.783 786.374 130.241 782.217 126.767 776.823C118.422 763.865 124.475 744.483 127.304 730.492Z" fill="#E6F4DF"/>
<path d="M542.499 773H543.165C541.107 789.858 537.755 807.91 539.924 824.928C535.126 827.917 531.875 833.598 527.891 837.565C512.212 853.174 492.38 865.89 470.1 868.499L469.642 868.39C465.931 857.318 459.159 847.181 460.717 834.966C461.405 829.575 463.93 824.949 468.32 821.702C485.21 809.209 511.89 815.602 530.795 818.047C532.165 817.625 535.822 818.93 537.325 819.271C537.624 819.17 538.026 819.214 538.222 818.966C538.658 818.415 538.518 812.068 538.551 811.097C538.723 805.941 540.72 776.072 542.499 773Z" fill="#C1CAEF"/>
<path d="M348.236 821.985C339.949 823.961 331.614 818.904 329.54 810.641C327.465 802.379 332.422 793.985 340.66 791.812C346.076 790.383 351.842 791.977 355.756 795.985C359.67 799.992 361.127 805.794 359.57 811.176C358.014 816.557 353.684 820.685 348.236 821.985ZM342.655 796.38C336.753 797.478 332.872 803.171 334.008 809.067C335.144 814.962 340.863 818.806 346.751 817.631C352.585 816.468 356.385 810.813 355.26 804.971C354.134 799.13 348.504 795.293 342.655 796.38Z" fill="#010102"/>
<path d="M346.751 817.63C340.863 818.805 335.144 814.961 334.008 809.066C332.872 803.17 336.753 797.477 342.655 796.379C348.504 795.292 354.134 799.129 355.26 804.97C356.385 810.812 352.585 816.467 346.751 817.63Z" fill="#90DBF4"/>
<path d="M882.206 851.259C874.031 853.06 865.93 847.943 864.044 839.788C862.158 831.633 867.189 823.479 875.325 821.508C880.663 820.214 886.285 821.888 890.047 825.891C893.809 829.894 895.131 835.609 893.508 840.857C891.886 846.105 887.57 850.077 882.206 851.259Z" fill="#CFBAF0"/>
<path d="M542.25 822.77C554.86 823.569 566.021 837.403 575.357 839.524C576.203 846.109 576.769 852.51 572.846 858.348C571.101 860.945 568.582 862.984 565.428 863.477C562.083 864.001 558.761 862.791 556.185 860.677C546.416 852.662 543.552 834.515 542.25 822.77Z" fill="#CFBAF0"/>
<path d="M470.102 868.501C492.382 865.892 512.214 853.176 527.893 837.567C531.877 833.6 535.128 827.919 539.926 824.93C541.731 837.617 544.93 855.112 555.698 863.478C555.663 869.259 566.909 880.268 571.282 884.69C582.592 896.123 603.723 912.526 619.377 916.68C618.503 923.755 617.395 930.818 614.615 937.43C609.062 950.637 598.332 959.576 585.188 964.831C572.64 969.847 558.499 968.999 546.19 963.695C512.246 949.067 483.553 901.966 470.102 868.501Z" fill="#E7D8E5"/>
<path d="M797.532 928.566C791.57 928.398 786.176 927.448 781.301 923.692C775.868 919.507 772.998 913.111 772.297 906.406C771.508 898.871 773.164 890.95 778.13 885.056C783.915 878.191 792.547 875.466 801.179 874.719C807.78 874.705 814.211 876.389 819.185 880.959C824.166 885.535 826.499 892.001 826.741 898.654C827.1 906.546 824.245 914.247 818.83 920C813.055 926.019 805.657 928.381 797.532 928.566Z" fill="#CFBAF0"/>
<path d="M216.902 945.566C211.604 946.248 205.932 945.909 201.207 943.201C196.962 940.769 194.126 936.735 192.996 932.005C191.532 925.88 192.69 919.038 196.218 913.813C200.187 907.936 206.304 904.949 213.064 903.645C217.788 903.412 222.038 903.365 226.36 905.65C230.965 908.084 234.213 912.509 235.594 917.489C237.187 923.229 235.984 929.078 233.006 934.15C229.211 940.614 223.953 943.776 216.902 945.566Z" fill="#B9FBC0"/>
</svg>
