<svg width="1024" height="1024" viewBox="0 0 1024 1024" fill="none" xmlns="http://www.w3.org/2000/svg">
<path d="M554.7 164.188C516.051 163.833 477.896 165.316 440.001 173.839C433.218 175.364 425.148 177.841 418.24 179.226C367.698 178.935 324.094 177.273 274.996 194.028C275.883 190.37 283.381 180.665 286.019 177.74C304.941 156.749 335.548 137.337 360.465 124.337C374.81 116.853 398.665 109.757 413.798 108.255C463.711 103.301 510.677 117.407 550.991 146.833C558.523 152.331 564.552 158.126 571.681 164.084C566.411 164.646 560.077 164.312 554.7 164.188Z" fill="#FCE5A6"/>
<path d="M274.997 194.03C324.095 177.275 367.699 178.937 418.241 179.228C425.149 177.843 433.219 175.366 440.002 173.841C477.897 165.318 516.052 163.835 554.701 164.19C560.078 164.314 566.412 164.648 571.682 164.086C578.039 164.132 584.388 165.03 590.717 165.638C620.879 168.534 650.782 174.755 678.99 185.988C683.548 187.803 693.304 192.715 697.574 192.628C694.368 194.242 692.412 193.696 690.781 194.929C691.479 196.055 691.896 196.078 693.127 196.823L693.016 197.294C691.389 197.05 691.493 197.084 690.079 196.24C689.552 192.381 681.244 190.432 677.719 188.939C648.186 176.428 615.788 170.61 583.982 167.862C579.478 167.473 574.853 166.011 570.382 166.373L570.336 167.167C597.297 170.884 623.656 177.102 649.775 184.68C658.407 187.185 675.559 194.115 682.752 195.486C679.754 195.606 675.631 195.596 672.891 196.442L672.696 195.735C670.798 193.628 628.883 181.84 623.435 180.552C611.936 177.836 594.522 173.773 582.649 172.217C542.717 163.451 486.433 167.868 446.284 175.921C443.084 176.563 431.897 178.485 429.914 179.564L429.457 180.304L429.879 180.906C429.762 180.918 432.655 180.552 432.157 180.503C478.62 185.048 525.91 191.253 571.35 202.241C587.394 206.12 600.743 208.883 615.559 215.127C613.213 216.494 611.756 215.804 609.283 215.121C557.651 200.849 504.922 191.142 451.597 186.004C441.027 184.985 430.766 183.99 420.125 183.692C409.996 183.409 401.955 185.828 392.261 188.414C354.211 198.565 318.787 216.967 284.734 236.355C276.186 241.246 265.045 247.777 256.927 253.151C238.466 265.49 220.173 278.941 202.354 291.675C147.028 331.217 98.6528 376.331 85.8195 446.001C77.1293 493.18 86.8275 532.535 102.756 576.725C103.463 578.687 105.165 583.441 105.421 585.435C107.031 589.182 111.623 599.829 112.431 603.591C112.952 604.895 113.49 606.203 113.967 607.524L116.84 612.448L118.496 615.268C136.324 643.621 168.711 663.907 186.947 692.037C193.287 701.817 199.911 713.995 203.947 724.962C211.103 744.41 215.525 761.765 228.808 778.636C238.768 791.286 249.652 797.413 263.815 804.351C267.576 808.535 283.09 811.402 283.46 812.496C275.997 812.639 270.133 807.529 263.393 806.787C258.622 805.255 251.087 800.575 246.872 798.03C218.694 781.017 210.417 751.009 199.795 722.19C195.372 710.189 186.97 696.925 179.476 686.449C170.795 674.898 159.889 664.593 149.423 654.622C137.868 643.613 128.38 633.411 118.498 620.869L117.353 619.446C115.309 616.435 113.407 613.211 111.513 610.095C107.962 605.109 104.727 601.76 101.269 596.408C84.6539 629.326 78.8721 651.73 72.4415 687.213C56.4179 775.628 84.7049 865.428 170.466 905.312C213.969 925.544 260.481 925.832 305.623 911.174C309.258 909.994 313.891 908.326 317.076 906.372C320.716 905.451 326.413 903.789 330.053 904.394C324.267 908.556 296.054 916.899 288.533 918.743C239.565 930.575 193.81 923.306 150.885 897.397C53.3349 838.517 50.5791 716.598 87.535 620.61C90.801 612.127 95.2423 601.787 99.9923 593.973C67.4022 526.407 39.7084 456.323 69.983 382.408C101.337 305.858 151.902 249.241 226.635 213.663C242.735 205.999 258.788 200.93 274.997 194.03ZM269.931 199.317C187.572 226.646 124.111 278.883 84.8628 356.444C63.6837 398.298 53.9952 434.089 62.8382 481.255C69.8702 518.762 83.8761 558.646 101.935 592.278C103.32 583.79 99.3949 576.213 96.7675 568.143C92.8996 557.355 89.3046 546.385 86.3811 535.328C69.041 469.747 85.2478 399.187 131.121 348.86C147.526 330.862 171.263 310.451 191.443 295.924L257.334 248.528C264.015 244.734 271.046 240.343 277.699 236.38C310.62 216.771 344.868 199.756 381.529 188.336C387.771 186.392 394.399 184.993 400.491 182.671L401.138 182.42C396.386 181.934 385.818 182.144 380.78 182.223C373.775 182.331 363.338 181.988 356.597 182.502C329.762 184.546 294.718 189.541 269.931 199.317ZM108.454 601.071L108.648 600.379C107.745 597.276 105.845 591.959 103.878 589.474C102.325 593.76 105.187 598.406 108.454 601.071Z" fill="#98F5E1"/>
<path d="M570.382 166.374C574.853 166.012 579.478 167.474 583.982 167.863C615.788 170.611 648.186 176.429 677.719 188.94C681.244 190.433 689.552 192.382 690.079 196.241C687.157 195.753 685.792 195.532 682.752 195.487C675.559 194.116 658.407 187.186 649.775 184.681C623.656 177.103 597.297 170.885 570.336 167.168L570.382 166.374Z" fill="url(#paint0_linear_2243_36828)"/>
<path d="M615.558 215.128C600.742 208.884 587.393 206.121 571.349 202.242C525.909 191.254 478.619 185.049 432.156 180.504C432.654 180.553 429.761 180.919 429.878 180.907L429.456 180.305L429.913 179.565C431.896 178.486 443.083 176.564 446.283 175.922C486.432 167.869 542.716 163.452 582.648 172.218C584.794 175.277 591.309 181.641 594.226 184.974C600.737 192.415 609.91 211.012 617.99 214.853L616.873 215.623L616.273 216.753C607.647 221.68 589.396 233.238 582.916 240.231C564.919 237.06 548.271 233.096 529.866 230.99C482.399 225.558 437.667 228.778 390.735 237.015C343.49 245.307 297.576 261.948 261.865 295.336C258.068 288.258 257.493 262.191 256.926 253.152C265.044 247.778 276.185 241.247 284.733 236.356C318.786 216.968 354.21 198.566 392.26 188.415C401.954 185.829 409.995 183.41 420.124 183.693C430.765 183.991 441.026 184.986 451.596 186.005C504.921 191.143 557.65 200.85 609.282 215.122C611.755 215.805 613.212 216.495 615.558 215.128Z" fill="#FCE5A6"/>
<path d="M582.648 172.215C594.521 173.771 611.935 177.834 623.434 180.55C628.882 181.838 670.797 193.626 672.695 195.733L672.89 196.44C655.601 198.65 636.436 206.319 620.606 213.753L617.99 214.85C609.91 211.009 600.737 192.412 594.226 184.971C591.309 181.638 584.794 175.274 582.648 172.215Z" fill="#FDE4CF"/>
<path d="M269.929 199.317C294.716 189.541 329.76 184.546 356.595 182.502C363.336 181.988 373.773 182.331 380.778 182.223C385.816 182.144 396.384 181.934 401.136 182.42L400.489 182.671C394.397 184.993 387.769 186.392 381.527 188.336C344.866 199.756 310.618 216.771 277.697 236.38C271.044 240.343 264.013 244.734 257.332 248.528C259.667 229.093 262.39 217.625 269.929 199.317Z" fill="#FCE5A6"/>
<path d="M697.572 192.625C802.773 185.842 899.919 264.749 908.147 371.256C909.021 382.568 908.957 399.307 907.316 410.472L906.634 414.339C895.581 393.902 875.478 371.521 859.947 354.277C848.307 341.354 840.087 336.224 831.859 319.52C829.142 314.003 819.357 300.867 815.382 295.43C785.339 254.346 745.316 219.502 699.637 196.84C697.805 195.933 697.015 195.745 695.046 196.37C693.878 197.403 693.156 197.644 692.867 198.867C694.589 199.945 697.089 200.812 699.097 201.259C702.276 201.873 704.726 203.555 707.533 205.05C743.685 224.308 775.319 251.576 801.023 283.365C803.559 286.501 806.075 289.472 808.239 292.861C801.983 288.742 796.384 282.736 790.119 278.212C764.754 260.157 736.88 242.073 707.067 232.269C683.683 224.579 657.311 218.184 632.801 215.677C628.436 215.23 624.756 215.356 620.605 213.752C636.435 206.318 655.6 198.649 672.889 196.439C675.629 195.593 679.752 195.603 682.75 195.483C685.79 195.528 687.155 195.749 690.077 196.237C691.491 197.081 691.387 197.047 693.014 197.291L693.125 196.82C691.894 196.075 691.477 196.052 690.779 194.926C692.41 193.693 694.366 194.239 697.572 192.625Z" fill="#5EFD9F"/>
<path d="M617.99 214.853L620.606 213.756C624.757 215.36 628.437 215.234 632.802 215.681C657.312 218.188 683.684 224.583 707.068 232.273C736.881 242.077 764.755 260.161 790.12 278.216C796.385 282.74 801.984 288.746 808.24 292.865C806.076 289.476 803.56 286.505 801.024 283.369C775.32 251.58 743.686 224.312 707.534 205.054C704.727 203.559 702.277 201.877 699.098 201.263C697.09 200.816 694.59 199.949 692.868 198.871C693.157 197.648 693.879 197.407 695.047 196.374C697.016 195.749 697.806 195.937 699.638 196.844C745.317 219.506 785.34 254.35 815.383 295.434C819.358 300.871 829.143 314.007 831.86 319.524C840.088 336.228 848.308 341.358 859.948 354.281C875.479 371.525 895.582 393.906 906.635 414.343C906.642 416.153 906.69 416.124 906.115 417.951C903.168 416.286 899.415 408.796 897.175 405.668C886.478 390.733 861.274 357.888 847.691 346.987C862.539 381.308 875.165 417.33 879.653 454.655C880.466 461.418 879.394 473.547 881.837 479.333L881.107 481.845L878.608 484.616C877.994 483.261 875.86 452.281 875.076 447.449C867.654 401.721 851.912 357.945 826.828 318.884C823.264 313.333 816.206 304.223 811.446 300.027C784.314 276.104 750.48 254.378 717.425 239.739C701.823 232.829 678.327 228.064 661.787 223.312C654.638 221.259 642.209 219.479 634.768 218.432C629.328 217.666 623.868 218.096 617.85 216.888L617.387 216.792L616.273 216.753L616.873 215.623L617.99 214.853Z" fill="#29F797"/>
<path d="M101.935 592.277C83.8758 558.645 69.8699 518.761 62.8379 481.254C53.9949 434.088 63.6834 398.297 84.8625 356.443C124.111 278.882 187.572 226.645 269.931 199.316C262.392 217.624 259.669 229.092 257.334 248.527L191.443 295.923C171.263 310.45 147.526 330.861 131.121 348.859C85.2475 399.186 69.0407 469.746 86.3808 535.327C89.3043 546.384 92.8993 557.354 96.7672 568.142C99.3946 576.212 103.32 583.789 101.935 592.277Z" fill="#E6DFD5"/>
<path d="M582.916 240.228C589.396 233.235 607.647 221.677 616.273 216.75L617.387 216.789C622.457 224.517 627.31 232.531 631.283 240.887C633.587 245.733 635.314 251.049 637.528 255.895C621.193 252.191 599.887 244.792 582.916 240.228Z" fill="#29F797"/>
<path d="M617.387 216.789L617.85 216.885C623.868 218.093 629.328 217.663 634.768 218.429C642.209 219.476 654.638 221.256 661.787 223.309C678.327 228.061 701.823 232.826 717.425 239.736C750.48 254.375 784.314 276.101 811.446 300.024C816.206 304.22 823.264 313.33 826.828 318.881C851.912 357.942 867.654 401.718 875.076 447.446C875.86 452.278 877.994 483.258 878.608 484.613L877.718 485.877C875.432 488.911 872.542 493.275 870.813 496.653L870.333 496.685C857.421 488.615 846.333 483.161 832.706 476.526C836.653 462.804 836.637 446.88 831.735 433.386C830.448 429.57 827.097 425.128 826.446 421.194C824.175 407.462 821.478 393.583 814.419 381.432C801.301 358.85 782.565 341.295 760.887 327.142C748.03 318.341 733.903 310.891 722.281 300.443C711.245 290.523 700.788 280.622 687.431 273.772C671.769 265.74 654.341 261 637.528 255.895C635.314 251.049 633.587 245.733 631.283 240.887C627.31 232.531 622.457 224.517 617.387 216.789Z" fill="#5EFD9F"/>
<path d="M261.864 295.334C297.575 261.946 343.489 245.305 390.734 237.013C437.666 228.776 482.398 225.556 529.865 230.988C548.27 233.094 564.918 237.058 582.915 240.229C599.886 244.793 621.192 252.192 637.527 255.896C654.34 261.001 671.768 265.741 687.43 273.773C700.787 280.623 711.244 290.524 722.28 300.444C733.902 310.892 748.029 318.342 760.886 327.143C782.564 341.296 801.3 358.851 814.418 381.433C821.477 393.584 824.174 407.463 826.445 421.195C827.096 425.129 830.447 429.571 831.734 433.387C836.636 446.881 836.652 462.805 832.705 476.527C831.926 479.421 830.273 485.223 830.242 488.008C829.973 512.007 833.848 523.75 815.159 542.069C815.362 544.596 815.536 547.852 815.853 550.307C816.502 555.937 817.14 561.297 818.315 566.925C821.606 582.696 824.108 601.801 820.588 617.887C816.027 638.73 806.433 663.183 793.434 680.206C771.142 706.081 743.086 729.135 712.096 743.762C700.147 749.402 686.881 753.126 674.507 757.627C650.672 766.298 625.367 772.829 599.955 773.829C564.61 776.24 531.413 781.93 496.096 777.819C492.429 777.393 488.733 777.394 484.997 776.885C452.687 773.929 415.956 764.985 384.45 756.471C370.986 752.832 352.96 743.438 340.332 737.332C315.369 725.263 290.589 710.843 267.383 695.641C252.944 686.142 237.438 678.306 225.597 665.417C211.556 650.132 204.99 632.508 197.823 613.522C191.342 596.353 185.154 582.528 186.045 563.712C176.812 547.23 184.128 536.651 190.168 520.526C191.968 515.721 194.408 510.463 196.803 505.92L196.703 503.391C197.51 500.524 193.753 492.6 195.68 487.39L195.532 487.79C197.464 491.554 197.133 504.605 200.606 507.952C200.693 508.171 200.78 508.391 200.867 508.61C201.533 510.532 201.165 515.244 200.888 517.251C197.88 539.014 197.556 542.999 209.812 561.593C213.749 568.863 217.777 574.665 225.205 578.754C230.178 581.493 236.489 583.566 240.877 587.407C247.554 593.253 249.913 601.998 253.795 609.703C256.447 614.985 260.499 618.788 265.519 621.791C281.76 631.51 300.991 634.279 317.912 642.33C324.291 645.365 329.187 651.214 333.97 656.203C344.492 667.177 360.506 665.379 373.658 670.676C387.06 676.074 399.098 685.193 413.567 687.977C426.057 690.713 436.279 687.929 447.901 690.764C452.568 691.903 459.28 695.774 463.814 698.002C472.671 702.356 482.407 705.779 492.273 706.685C504.821 707.838 516.571 702.866 528.629 702.055C540.76 701.239 551.205 706.137 563.855 706.172C578.1 706.212 587.346 701.078 600.265 699.483C612.276 698 624.606 704.473 638.011 700.082C646.497 697.303 652.118 691.946 660.005 689.136C669.786 685.744 680.824 688.22 690.607 684.877C700.284 681.57 708.989 675.608 718.192 671.127C729.853 665.45 743.278 661.643 753.231 653.053C759.537 647.611 765.081 641.311 771.843 636.382C777.269 632.38 784.089 629.791 788.967 625.123C791.439 622.757 794.718 617.601 796.177 614.469C804.653 596.274 810.261 575.919 811.134 555.966C811.758 552.562 811.627 547.184 811.568 543.607C801.217 551.969 802.38 558.665 797.322 570.275C789.302 584.708 777.989 573.879 768.674 580.334C762.26 584.778 760.201 597.667 752.821 603.314C745.317 609.056 736.1 604.667 729.522 608.07C722.331 611.791 719.528 622.914 710.369 626.822C699.88 631.297 693.238 624.102 683.644 624.345C673.107 624.612 668.226 632.918 657.036 634.848C645.304 636.87 637.859 630.826 627.59 632.239C616.983 633.698 610.635 646.662 598.58 647.628C584.445 648.76 576.139 637.368 561.171 641.691C554.455 643.631 549.054 648.218 542.427 650.704C525.662 656.994 521.863 642.97 511.648 642.411C500.724 641.813 493.072 649.125 479.724 648.009C465.014 646.778 460.749 635.636 452.068 633.877C440.779 631.589 431.522 640.726 416.328 636.411C397.362 631.025 401.49 623.265 389.003 613.817C380.964 607.734 363.195 612.103 352.92 607.365C343.316 602.936 343.322 593.673 335.138 589.522C326.091 584.932 316.567 590.24 306.661 584.898C296.072 579.187 298.934 568.137 290.618 562.433C286.664 559.721 277.885 560.516 272.501 557.799C261.699 552.349 266.03 542.383 259.84 534.114C252.929 524.881 240.334 525.055 235.192 514.064C233.916 511.337 233.422 507.957 232.403 505.102C229.592 497.223 222.454 494.483 215.608 491.123C207.496 484.499 210.505 475.512 207.488 466.43C206.652 463.913 205.687 462.339 204.373 460.092L201.203 466.076L200.898 465.928C199.799 466.541 199.389 469.199 198.859 470.858L198.166 470.516C197.919 468.854 199.015 466.318 199.665 464.809L199.913 464.245L199.242 463.681C200.237 460.742 203.253 456.835 203.34 455.011C203.691 450.384 199.231 442.9 199.592 434.965L200.077 434.557C200.101 435.733 200.132 435.182 200.011 436.214L200.524 436.645C202.088 442.596 202.806 449.711 205.384 455.108L205.834 454.422C208.583 459.727 210.331 463.839 211.401 469.719C212.134 473.747 212.316 481.678 214.22 484.902C219.144 493.241 231.451 492.084 234.257 503.499C237.766 517.777 240.585 519.041 253.432 525.221C271.512 537.766 261.274 542.065 271.456 554.018C275.033 558.218 287.942 556.311 293.507 561.194C300.909 567.689 298.743 577.687 307.984 582.407C316.821 586.921 325.556 582.358 334.793 586.292C343.347 589.935 345.648 600.236 352.921 604.279C362.597 609.658 376.068 605.532 386.563 609.678C395.592 613.244 397.171 618.578 402.79 625.363C409.319 633.247 421.466 635.875 431.195 634.01C440.615 632.204 450.232 627.744 459.282 634.027C461.845 635.807 464.911 638.579 467.428 640.558C473.155 645.06 481.355 645.573 488.156 644.369C499.063 642.438 509.992 634.903 520.35 642.871C525.678 646.934 530.278 650.301 537.385 648.842C546.888 646.89 553.652 639.407 563.379 638.038C568.546 637.311 573.405 637.979 578.33 639.572C584.5 641.568 589.902 645.084 596.557 644.708C608.197 644.05 613.919 632.142 624.865 629.798C636.757 627.165 645.51 633.859 657.314 631.454C668.921 629.09 674.394 618.976 687.732 621.622C693.984 622.862 701.121 626.099 707.244 624.296C717.118 621.388 719.799 608.111 729.307 604.841C738.684 601.617 747.416 606.819 754.229 596.44C759.508 588.398 761.386 577.778 772.148 575.252C778.714 573.711 788.824 576.941 793.24 570.255C797.195 564.267 798.427 553.861 802.419 547.737C804.834 544.032 810.718 540.097 814.353 537.172C826.031 527.775 827.268 506.458 826.852 492.452C824.262 497.724 820.325 505.838 816.897 510.408C787.459 549.439 743.11 574.573 697.462 589.968C666.978 600.25 636.06 605.231 604.519 609.004C518.533 619.291 428.765 605.816 350.668 568.015C337.519 561.651 308.517 546.039 297.46 536.383L297.844 533.391C389.796 599.568 510.108 619.687 621.137 603.694C621.784 603.601 622.439 603.452 623.078 603.315C635.067 601.88 646.571 599.099 658.318 596.601C706.616 586.333 748.979 568.292 786.788 535.967C790.191 533.721 793.625 530.303 796.719 527.628C821.192 506.469 840.649 465.477 826.894 433.546C825.534 454.791 824.773 462.23 813.949 481.974C803.681 497.186 790.078 513.846 775.225 525.264C739.743 552.539 687.786 570.73 644.295 579.945C619.034 585.297 588.655 587.523 563.334 587.572C549.561 587.09 531.257 586.623 517.782 583.834C503.996 580.814 490.746 576.934 476.77 574.627C443.286 569.099 408.075 568.863 376.978 553.772C371.889 551.302 366.169 548.939 361.469 545.858C357.329 544.437 345.047 536.608 340.56 533.79C307.079 512.769 275.162 486.42 248.939 456.85C246.003 453.539 241.619 447.196 238.81 443.453C237.293 440.291 233.562 435.102 231.566 431.92C214.249 404.312 211.885 362.883 230.248 335.089C231.353 331.892 235.495 327.535 235.898 324.237C232.765 325.049 227.858 332.443 224.903 335.214L224.298 334.75L226.091 332.124L225.608 331.387C230.145 324.968 237.814 318.43 243.527 313.028L261.864 295.334ZM455.927 232.364C425.602 233.757 391.028 239.005 361.76 246.425C318.83 257.308 278.606 279.977 248.644 312.714C239.531 322.587 236.3 331.446 229.81 341.814C227.168 348.156 223.736 356.442 222.172 362.982C218.206 379.575 220.242 400.243 226.765 415.91C231.265 426.719 243.137 446.504 251.301 455.145C254.846 460.371 261.395 467.078 265.901 471.812C287.826 494.845 314.405 514.275 341.422 530.914C349.253 535.737 356.824 539.455 364.568 543.93C375.375 548.175 382.728 553.082 395.325 557.033C421.336 565.192 447.953 566.731 474.997 570.653C492.517 573.024 509.074 579.101 526.54 581.545C617.967 594.341 787.209 558.914 819.919 458.291C820.432 456.267 821.202 452.77 821.466 450.74C824.985 423.722 820.137 394.752 804.044 372.577C784.46 345.591 761.462 332.045 734.005 314.453C719.634 305.246 706.958 290.21 692.813 281.769C671.825 269.244 644.076 262.253 620.67 255.261C600.893 249.354 578.516 242.442 558.404 239.268C555.688 238.419 548.283 237.341 545.338 236.984C517.348 233.592 483.895 229.736 455.927 232.364ZM196.836 525.916C197.17 520.922 197.618 515.618 197.723 510.638C192.78 523.727 186.957 533.294 184.886 547.108C184.89 553.037 185.157 557.915 189.58 562.545C194.068 567.243 199.898 568.07 203.915 573.429C211.004 582.885 203.646 593.477 211.17 602.387C217.384 609.746 225.913 606.438 232.603 611.584C240.465 617.63 239.708 627.69 246.51 634.975C253.655 642.627 264.363 638.254 271.719 644.384C283.58 654.267 277.859 669.068 299.733 668.664C311.057 668.454 321.19 667.324 330.563 675.902C334.833 679.809 337.223 685.177 340.271 690.109C345.196 698.08 356.135 700.877 364.97 700.678C372.459 700.509 377.775 698.364 385.853 698.939C401.895 700.082 413.543 715.795 427.14 718.629C435.436 720.358 446.2 715.315 457.012 717.409C469.876 719.9 476.804 727.674 489.272 727.593C497.389 727.541 504.542 723.183 512.396 721.426C523.156 719.018 530.606 723.645 540.852 725.408C544.943 726.112 552.898 724.593 556.447 725.522C567.908 728.524 566.935 734.087 580.164 734.622C596.08 735.266 607.681 721.107 619.171 719.32C633.288 717.125 642.949 727.258 660.366 722.14C674.882 717.875 678.932 706.23 689.362 702.197C700.908 697.732 714.281 705.112 726.57 690.944C730.043 686.941 734.754 681.419 739.231 678.055C747.545 671.807 760.047 675.635 767.282 670.268C774.206 665.133 777.061 653.124 782.958 646.314C788.441 639.981 795.006 636.612 801.013 631.189C821.371 615.649 818.6 593.036 813.921 571.017C810.206 587.301 803.42 617.555 790.582 628.285C785.627 632.425 777.254 636.989 771.535 641.331C763.791 647.21 757.075 655.693 749.194 660.674C740.771 665.999 729.7 670.231 720.506 674.551C710.005 679.485 700.001 686.336 688.814 689.298C680.579 691.478 669.619 689.201 661.936 692.122C650.411 696.503 645.78 702.6 632.734 704.509C620.691 706.271 610.539 701.83 599.771 703.337C587.154 705.103 579.844 709.236 566.367 709.619C553.438 709.986 541.167 704.827 529.738 705.489C514.411 706.376 501.185 713.662 484.654 709.179C482.789 708.673 480.872 708.287 478.864 707.677C467.13 703.732 456.671 696.26 445.419 693.186C440.303 691.788 427.719 692.479 421.595 692.196C399.055 689.738 389.777 680.164 369.986 672.415C361.102 668.937 348.075 668.942 338.632 663.096C329.103 657.196 326.268 649.143 315.606 644.458C297.157 636.352 277.874 633.501 260.839 621.974C248.978 613.949 249.035 599.15 240.412 590.562C233.433 583.613 222.037 583.101 214.29 572.871C210.893 568.385 208.755 565.132 205.779 560.393C196.998 546.408 195.608 542.094 196.836 525.916ZM213.734 608.328C208.515 604.372 205.919 601.078 204.895 594.25C203.729 586.476 206.798 578.367 199.382 572.789C195.657 569.987 192.216 568.79 188.544 565.667C189.448 585.316 196.658 600.403 204.205 618.179C211.566 635.829 219.955 656.645 234.63 669.533C244.054 677.809 257.732 684.442 268.126 691.565C289.611 706.289 312.949 717.644 335.819 729.954C352.74 739.063 370.849 746.978 389.108 753.026C415.43 761.156 443.519 765.498 470.543 770.91C476.538 772.111 483.832 773.633 489.782 774.114C495.755 774.704 501.751 775.225 507.741 775.594C538.736 777.507 569.333 771.567 600.245 769.503C628.39 767.657 653.648 760.755 680.148 751.484C687.441 748.932 696.993 746.655 704.098 743.653C737.147 729.694 769.367 703.076 791.533 675.101C796.344 669.029 801.337 658.948 804.343 652.204C809.612 641.799 813.908 628.74 816.679 617.442C807.004 636.12 800.366 634.134 786.391 648.161C779.009 655.57 777.191 671.49 764.567 675.586C757.637 677.835 749.525 676.482 743.648 679.696C733.003 685.518 730.51 695.74 718.666 701.223C708.691 705.841 696.056 701.164 688.831 705.708C675.646 713.998 676.957 720.291 660.478 725.678C643.693 731.164 630.304 719.326 618.312 722.728C607.28 725.859 595.792 738.918 580.243 737.559C575.9 737.179 573.438 737.146 568.955 735.078C566.513 733.953 562.445 730.918 560.551 730.171C555.553 726.749 548.521 728.398 542.272 728.739C531.482 726.964 522.705 721.03 511.399 724.514C506.543 726.01 502.06 727.97 497.236 729.399C480.486 734.361 469.842 721.705 454.453 719.975C444.453 718.85 432.533 724.208 423.088 720.431C413.178 716.951 398.777 702.941 388.448 701.927C370.225 700.14 363.199 708.624 344.575 698.326C339.165 695.009 336.459 689.681 333.801 684.252C323.195 663.567 301.545 676.189 285.558 668.156C281.572 664.574 280.354 663.3 277.849 658.601L277.55 657.862C270.223 639.811 262.083 646.174 249.86 640.907L249.22 640.625C241.604 634.616 240.326 631.695 237.505 622.843C231.608 608.728 224.903 613.107 213.734 608.328Z" fill="url(#paint1_linear_2243_36828)"/>
<path d="M455.928 232.365C483.896 229.737 517.349 233.593 545.339 236.985C548.284 237.342 555.689 238.42 558.405 239.269C559.57 242.117 560.231 242.323 563.147 243.501C573.576 247.716 585.061 251.09 595.033 256.373C605.072 261.691 614.025 269.241 624.527 273.873C638.007 280.544 654.287 287.057 666.917 294.633C678.333 302.14 688.13 309.722 699.83 316.978C718.235 328.392 745.498 338.302 760.867 353.953C783.62 377.125 800.648 412.615 815.889 441.268C818.262 445.73 817.019 453.481 819.92 458.292C787.21 558.915 617.968 594.342 526.541 581.546C509.075 579.102 492.518 573.025 474.998 570.654C447.954 566.732 421.337 565.193 395.326 557.034C382.729 553.083 375.376 548.176 364.569 543.931C356.825 539.456 349.254 535.738 341.423 530.915C314.406 514.276 287.827 494.846 265.902 471.813C261.396 467.079 254.847 460.372 251.302 455.146C252.273 452.377 242.472 434.779 241.456 430.044C238.44 415.979 234.722 401.826 235.494 387.275C236.217 373.653 238.995 359.323 243.574 346.467C245.687 339.801 251.221 331.761 253.68 325.619C260.831 307.765 272.395 300.783 288.318 291.445C292.381 289.063 297.842 282.45 302.932 279.56C309.269 275.962 315.995 270.756 322.655 267.391C358.106 249.435 394.983 238.611 434.947 237.834C441.548 237.706 447.692 235.709 454.57 236.012C452.515 235.707 449.868 235.637 448.689 233.821L448.692 233.824C450.867 232.925 455.637 233.415 458.603 232.82L455.928 232.365ZM726.183 454.321C726.726 463.093 742.691 466.94 748.295 461.316C759.915 449.655 739.722 429.719 727.75 440.579C726.246 441.943 725.946 443.968 726.207 445.846C726.38 448.994 726.588 451.185 726.183 454.321ZM503.987 455.713C502.634 455.019 503.337 455.111 501.797 455.523C500.263 457.096 500.122 458.779 499.965 460.872C499.069 472.836 524.75 472.763 524.847 462.604C524.9 457.044 507.939 452.017 504.355 455.947L503.987 455.713ZM542.287 515.781C535.974 517.534 533.187 522.121 535.929 528.32C539.751 533.51 548.272 535.156 554.3 534.668C587.703 531.967 562.985 512.584 542.287 515.781ZM471.217 261.569C452.808 266.89 465.457 285.431 486.436 283.807C509.208 276.463 480.072 261.487 471.217 261.569ZM568.999 272.66C552.76 279.981 568.112 297.472 584.684 294.151C601.901 286.605 583.446 270.803 568.999 272.66ZM379.081 278.637C361.372 284.264 373.724 303.545 392.3 300.078C412.443 292.705 391.396 277.847 379.081 278.637ZM664.484 310.654C659.794 312.84 653.894 317.14 657.808 323.137C662.601 330.482 670.035 334.745 678.981 333.912C681.905 332.726 685.571 330.747 686.613 327.691C689.239 319.986 678.861 312.592 672.595 310.873C669.654 310.066 667.245 310.314 664.484 310.654ZM306.26 319.539C290.136 324.495 299.379 340.938 315.076 339.014C331.562 333.663 320.212 319.033 306.26 319.539ZM512.929 328.037C503.256 335.519 513.03 353.15 525.155 349.587C531.666 344.999 531.068 340.54 526.23 334.635C522.739 330.373 518.505 327.439 512.929 328.037ZM428.426 345.492C416.787 352.654 430.584 365.925 441.151 364.31C454.202 355.7 437.562 344.879 428.426 345.492ZM601.486 348.075C592.458 350.67 584.731 370.324 598.148 371.016C608.034 368.264 615.1 349.984 601.486 348.075ZM737.703 363.597C720.512 371.523 733.274 389.038 748.424 387.169C765.833 380.414 752.125 362.512 737.703 363.597ZM355.466 365.538C343.145 371.673 358.981 386.323 370.858 384.187C384.827 376.632 365.576 365.686 355.466 365.538ZM490.546 389.119C472.692 392.07 487.173 403.49 498.508 405.152C512.562 402.847 504.172 388.85 490.546 389.119ZM290.477 391.135C273.236 398.603 287.615 414.202 304.628 412.139C309.148 410.378 314.707 406.379 311.696 400.757C307.268 392.491 299.3 390.179 290.477 391.135ZM671.931 394.598C653.858 398.794 656.87 414.101 677.804 411.578C680.991 410.604 686.706 408.319 687.871 405.237C691.964 394.416 677.291 394.352 671.931 394.598ZM560.367 401.625C543.57 404.984 554.966 415.423 567.401 416.287C582.448 413.799 571.953 402.56 560.367 401.625ZM415.367 414.069C404.164 421.172 422.461 432.912 431.878 431.666C435.223 429.668 437.442 425.845 434.625 422.313C429.822 416.289 422.925 413.598 415.367 414.069ZM600.991 448.68C581.394 451.948 586.169 464.243 604.475 463.527C622.505 458.988 618.698 447.733 600.991 448.68ZM345.017 454.598C339.707 457.116 339.206 458.385 337.748 463.96C340.297 473.96 349.343 482.289 360.036 481.346C377.345 473.825 358.465 453.517 345.017 454.598ZM432.805 493.521C418.882 503.384 437.572 520.924 453.231 516.218C469.446 505.754 444.231 492.579 432.805 493.521ZM650.612 494.678C646.287 495.245 642.028 496.137 639.259 499.771C635.594 504.58 638.336 510.462 642.992 513.273C647.844 516.203 651.797 515.828 657.044 515.419C678.698 509.951 670.917 494.188 650.612 494.678Z" fill="url(#paint2_linear_2243_36828)"/>
<path d="M229.81 341.813C236.3 331.445 239.531 322.586 248.644 312.713C278.606 279.976 318.83 257.307 361.76 246.424C391.028 239.004 425.602 233.756 455.927 232.363L458.602 232.818C455.636 233.413 450.866 232.923 448.691 233.822L448.688 233.819C449.867 235.635 452.514 235.705 454.569 236.01C447.691 235.707 441.547 237.704 434.946 237.832C394.982 238.609 358.105 249.433 322.654 267.389C315.994 270.754 309.268 275.96 302.931 279.558C297.841 282.448 292.38 289.061 288.317 291.443C272.394 300.781 260.83 307.763 253.679 325.617C251.22 331.759 245.686 339.799 243.573 346.465C238.994 359.321 236.216 373.651 235.493 387.273C234.721 401.824 238.439 415.977 241.455 430.042C242.471 434.777 252.272 452.375 251.301 455.144C243.137 446.503 231.265 426.718 226.765 415.909C220.242 400.242 218.206 379.574 222.172 362.981C223.736 356.441 227.168 348.155 229.81 341.813Z" fill="#E6DFD5"/>
<path d="M558.404 239.27C578.516 242.444 600.893 249.356 620.67 255.263C644.076 262.255 671.825 269.246 692.813 281.771C706.958 290.212 719.634 305.248 734.005 314.455C761.462 332.047 784.46 345.593 804.044 372.579C820.137 394.754 824.985 423.724 821.466 450.742C821.202 452.772 820.432 456.269 819.919 458.293C817.018 453.482 818.261 445.731 815.888 441.269C800.647 412.616 783.619 377.126 760.866 353.954C745.497 338.303 718.234 328.393 699.829 316.979C688.129 309.723 678.332 302.141 666.916 294.634C654.286 287.058 638.006 280.545 624.526 273.874C614.024 269.242 605.071 261.692 595.032 256.374C585.06 251.091 573.575 247.717 563.146 243.502C560.23 242.324 559.569 242.118 558.404 239.27Z" fill="#98F5E1"/>
<path d="M105.419 585.432C105.163 583.438 103.461 578.684 102.754 576.722C86.8257 532.532 77.1275 493.177 85.8177 445.998C98.651 376.328 147.026 331.214 202.352 291.672C220.171 278.938 238.464 265.487 256.925 253.148C257.492 262.187 258.067 288.254 261.864 295.332L243.527 313.026C237.814 318.428 230.145 324.966 225.608 331.385C217.275 340.192 207.051 360.169 205.791 372.293C203.402 395.282 191.319 433.724 203.34 455.009C203.253 456.833 200.237 460.74 199.242 463.679C196.182 469.199 194.516 477.324 194.32 483.614C193.569 485.412 193.968 491.002 194.034 493.265C175.101 502.399 154.013 522.869 142.576 540.074C140.016 543.925 136.202 548.14 133.931 552.249C125.917 566.755 119.915 583.039 113.937 598.505C113.365 599.983 112.782 602.06 112.429 603.588C111.621 599.826 107.029 589.179 105.419 585.432Z" fill="#E6DFD5"/>
<path d="M486.435 283.805C465.456 285.429 452.807 266.888 471.216 261.567C480.071 261.485 509.207 276.461 486.435 283.805ZM471.188 263.588C453.44 268.567 468.521 283.583 485.371 281.961C504.13 275.927 478.061 263.997 471.188 263.588Z" fill="#070505"/>
<path d="M485.373 281.963C468.523 283.585 453.442 268.569 471.19 263.59C478.063 263.999 504.132 275.929 485.373 281.963Z" fill="#B9F9F9"/>
<path d="M584.684 294.149C568.112 297.47 552.76 279.979 568.999 272.658C583.446 270.801 601.901 286.603 584.684 294.149ZM570.168 274.525C554.09 280.998 569.181 293.755 582.391 292.587C598.181 286.562 580.68 274.159 570.168 274.525Z" fill="#070505"/>
<path d="M582.391 292.589C569.181 293.757 554.09 281 570.168 274.527C580.68 274.161 598.181 286.564 582.391 292.589Z" fill="#B9F9F9"/>
<path d="M392.3 300.077C373.724 303.544 361.372 284.263 379.081 278.636C391.396 277.846 412.443 292.704 392.3 300.077ZM379.994 280.626C364.965 283.817 373.507 298.972 389.703 298.462C408.284 293.905 391.414 281.726 379.994 280.626Z" fill="#070505"/>
<path d="M389.703 298.461C373.507 298.971 364.965 283.816 379.994 280.625C391.414 281.725 408.284 293.904 389.703 298.461Z" fill="#B9F9F9"/>
<path d="M678.982 333.911C670.036 334.744 662.602 330.481 657.809 323.136C653.895 317.139 659.795 312.839 664.485 310.653C667.246 310.313 669.655 310.065 672.596 310.872C678.862 312.591 689.24 319.985 686.614 327.69C685.572 330.746 681.906 332.725 678.982 333.911ZM664.095 313.115C660.511 314.829 655.324 318.077 658.511 322.569C662.71 328.488 671.002 332.393 678.042 331.394C693.748 324.154 675.78 311.708 664.095 313.115Z" fill="#070505"/>
<path d="M678.04 331.393C671 332.392 662.708 328.487 658.509 322.568C655.322 318.076 660.509 314.828 664.093 313.114C675.778 311.707 693.746 324.153 678.04 331.393Z" fill="#B9F9F9"/>
<path d="M315.076 339.011C299.379 340.935 290.136 324.492 306.26 319.536C320.212 319.03 331.562 333.66 315.076 339.011ZM305.988 321.015C292.866 326.982 302.192 338.963 315.33 336.947C329.458 331.302 316.477 320.486 305.988 321.015Z" fill="#070505"/>
<path d="M315.33 336.951C302.192 338.967 292.866 326.986 305.988 321.019C316.477 320.49 329.458 331.306 315.33 336.951Z" fill="#B9F9F9"/>
<path d="M225.609 331.388L226.092 332.125L224.299 334.751L224.904 335.215C227.859 332.444 232.766 325.05 235.899 324.238C215.878 346.788 205.268 365.307 207.038 396.945C208.716 426.942 233.566 468.053 252.304 491.033C266.729 507.976 279.794 520.047 297.845 533.392L297.461 536.384C277.394 522.258 258.992 503.807 243.852 484.582C229.084 464.659 215.75 442.161 208.324 418.344C206.579 412.748 205.358 406.004 204.065 400.159C201.032 413.208 200.404 429.929 202.664 443.226C203.077 445.66 205.106 451.756 205.835 454.423L205.385 455.109C202.807 449.712 202.089 442.597 200.525 436.646L200.012 436.215C200.133 435.183 200.102 435.734 200.078 434.558L199.593 434.966C199.232 442.901 203.692 450.385 203.341 455.012C191.32 433.727 203.403 395.285 205.792 372.296C207.052 360.172 217.276 340.195 225.609 331.388Z" fill="#212522"/>
<path d="M235.9 324.238C235.497 327.536 231.355 331.893 230.25 335.09C211.887 362.884 214.251 404.313 231.568 431.921C233.564 435.103 237.295 440.292 238.812 443.454C239.124 447.862 240.915 448.517 243.147 453.565C248.008 464.559 256.966 478.141 252.713 490.569C252.577 490.724 252.441 490.878 252.305 491.033C233.567 468.053 208.717 426.942 207.039 396.945C205.269 365.307 215.879 346.788 235.9 324.238Z" fill="#E6DFD5"/>
<path d="M525.155 349.584C513.03 353.147 503.256 335.516 512.929 328.034C518.505 327.436 522.739 330.37 526.23 334.632C531.068 340.537 531.666 344.996 525.155 349.584ZM513.385 329.786C507.715 336.117 514.23 349.536 524.601 347.061C529.029 343.087 527.011 339.627 523.336 335.458C520.501 332.243 517.833 329.896 513.385 329.786Z" fill="#070505"/>
<path d="M524.602 347.064C514.231 349.539 507.716 336.12 513.386 329.789C517.834 329.899 520.502 332.246 523.337 335.461C527.012 339.63 529.03 343.09 524.602 347.064Z" fill="#B9FBC0"/>
<path d="M441.15 364.308C430.583 365.923 416.786 352.652 428.425 345.49C437.561 344.877 454.201 355.698 441.15 364.308ZM428.281 347.927C421.998 354.26 433.321 362.521 440.289 361.734C448.458 354.787 434.666 347.893 428.281 347.927Z" fill="#070505"/>
<path d="M440.291 361.737C433.323 362.524 422 354.263 428.283 347.93C434.668 347.896 448.46 354.79 440.291 361.737Z" fill="#B9FBC0"/>
<path d="M598.149 371.015C584.732 370.323 592.459 350.669 601.487 348.074C615.101 349.983 608.035 368.263 598.149 371.015ZM600.487 350.335C596.324 354.031 588.237 367.948 598.948 368.096C603.775 364.17 611.247 350.98 600.487 350.335Z" fill="#070505"/>
<path d="M847.691 346.984C861.274 357.885 886.478 390.73 897.175 405.665C899.415 408.793 903.168 416.283 906.115 417.948L906.08 418.279C903.77 424.084 902.24 433.092 900.201 439.622C895.524 454.597 889.233 465.788 881.837 479.33C879.394 473.544 880.466 461.415 879.653 454.652C875.165 417.327 862.539 381.305 847.691 346.984Z" fill="#5EFD9F"/>
<path d="M598.947 368.097C588.236 367.949 596.323 354.032 600.486 350.336C611.246 350.981 603.774 364.171 598.947 368.097Z" fill="#B9FBC0"/>
<path d="M748.424 387.166C733.274 389.035 720.512 371.52 737.703 363.594C752.125 362.509 765.833 380.411 748.424 387.166ZM738.117 366.073C722.88 372.192 734.73 385.074 746.806 384.401C762.547 379.326 748.725 365.887 738.117 366.073Z" fill="#070505"/>
<path d="M370.857 384.184C358.98 386.32 343.144 371.67 355.465 365.535C365.575 365.683 384.826 376.629 370.857 384.184ZM354.69 367.948C350.165 375.534 362.882 382.83 370.619 381.255C377.95 373.459 360.606 368.09 354.69 367.948Z" fill="#070505"/>
<path d="M746.805 384.404C734.729 385.077 722.879 372.195 738.116 366.076C748.724 365.89 762.546 379.329 746.805 384.404Z" fill="#B9F9F9"/>
<path d="M370.62 381.256C362.883 382.831 350.166 375.535 354.691 367.949C360.607 368.091 377.951 373.46 370.62 381.256Z" fill="#B9FBC0"/>
<path d="M498.508 405.15C487.173 403.488 472.692 392.068 490.546 389.117C504.172 388.848 512.562 402.845 498.508 405.15ZM487.319 391.525C485.53 393.272 485.689 392.632 485.103 394.748C485.912 399.909 495.77 402.306 500.16 402.136C509.426 395.8 492.658 391.456 487.319 391.525Z" fill="#070505"/>
<path d="M304.628 412.14C287.615 414.203 273.236 398.604 290.477 391.136C299.3 390.18 307.268 392.492 311.696 400.758C314.707 406.38 309.148 410.379 304.628 412.14ZM300.937 393.787C284.529 388.713 276.967 404.327 296.218 410.293C311.652 411.883 313.671 401.723 300.937 393.787Z" fill="#070505"/>
<path d="M500.161 402.135C495.771 402.305 485.913 399.908 485.104 394.747C485.69 392.631 485.531 393.271 487.32 391.524C492.659 391.455 509.427 395.799 500.161 402.135Z" fill="#B9FBC0"/>
<path d="M296.219 410.29C276.968 404.324 284.53 388.71 300.938 393.784C299.93 397.752 300.649 398.687 302.149 402.56C301.226 404.231 299.042 409.241 298.477 409.866L296.219 410.29Z" fill="#B9F9F9"/>
<path d="M300.938 393.785C313.672 401.721 311.653 411.881 296.219 410.291L298.477 409.867C299.042 409.242 301.226 404.232 302.149 402.561C300.649 398.688 299.93 397.753 300.938 393.785Z" fill="#98F5E1"/>
<path d="M677.804 411.576C656.87 414.099 653.858 398.792 671.931 394.596C677.291 394.35 691.964 394.414 687.871 405.235C686.706 408.317 680.991 410.602 677.804 411.576ZM671.891 396.075C656.191 399.934 657.538 410.394 675.568 408.849C691.673 405.484 688.416 395.343 671.891 396.075Z" fill="#070505"/>
<path d="M675.567 408.851C657.537 410.396 656.19 399.936 671.89 396.077C688.415 395.345 691.672 405.486 675.567 408.851Z" fill="#B9F9F9"/>
<path d="M205.835 454.42C205.106 451.753 203.077 445.657 202.664 443.223C200.404 429.926 201.032 413.205 204.065 400.156C205.358 406.001 206.579 412.745 208.324 418.341C215.75 442.158 229.084 464.656 243.852 484.579C242.958 491.958 247.652 510.046 250.127 517.69C250.833 519.872 253.229 523.26 253.433 525.219C240.586 519.039 237.767 517.775 234.258 503.497C231.452 492.082 219.145 493.239 214.221 484.9C212.317 481.676 212.135 473.745 211.402 469.717C210.332 463.837 208.584 459.725 205.835 454.42Z" fill="#E6DFD5"/>
<path d="M567.4 416.287C554.965 415.423 543.569 404.984 560.366 401.625C571.952 402.56 582.447 413.799 567.4 416.287ZM557.861 404.004C556.057 405.095 555.724 405.151 554.697 406.893C554.518 412.104 564.764 413.183 568.736 413.296C570.855 412.042 570.429 412.664 571.571 410.739C570.93 405.874 561.983 403.887 557.861 404.004Z" fill="#070505"/>
<path d="M568.737 413.297C564.765 413.184 554.519 412.105 554.698 406.894C555.725 405.152 556.058 405.096 557.862 404.005C561.984 403.888 570.931 405.875 571.572 410.74C570.43 412.665 570.856 412.043 568.737 413.297Z" fill="#B9FBC0"/>
<path d="M906.635 414.34L907.317 410.473C907.303 411.338 907.316 413.181 907.687 413.898C914.264 426.635 921.426 438.27 926.984 451.572C939.532 481.6 942.48 512.551 940.411 544.801C940.143 549.358 940.063 562.985 939.062 566.92C937.691 566.402 937.074 565.406 936.102 564.267L935.923 562.683C937.852 550.099 937.751 540.831 937.96 528.507C938.494 497.002 931.364 464.5 916.788 436.529C914.846 432.802 908.901 421.099 906.08 418.279L906.115 417.948C906.69 416.121 906.642 416.15 906.635 414.34Z" fill="#98F5E1"/>
<path d="M431.878 431.665C422.461 432.911 404.164 421.171 415.367 414.068C422.925 413.597 429.822 416.288 434.625 422.312C437.442 425.844 435.223 429.667 431.878 431.665ZM415.887 416.488C415.257 417.474 414.178 418.72 414.731 419.934C417.131 425.205 425.382 430.064 431.054 428.956C432.68 427.202 432.137 428.201 432.667 425.802C431.362 419.825 421.451 416.147 415.887 416.488Z" fill="#070505"/>
<path d="M431.054 428.955C425.382 430.063 417.131 425.204 414.731 419.933C414.178 418.719 415.257 417.473 415.887 416.487C421.451 416.146 431.362 419.824 432.667 425.801C432.137 428.2 432.68 427.201 431.054 428.955Z" fill="#B9FBC0"/>
<path d="M906.08 418.281C908.901 421.101 914.846 432.804 916.788 436.531C931.364 464.502 938.494 497.004 937.96 528.509C937.751 540.833 937.852 550.101 935.923 562.685C924.344 542.178 903.723 515.695 882.088 505.288C880.38 502.465 881.762 487.565 881.107 481.844L881.837 479.332C889.233 465.79 895.524 454.599 900.201 439.624C902.24 433.094 903.77 424.086 906.08 418.281Z" fill="#E6DFD5"/>
<path d="M813.95 481.975C824.774 462.231 825.535 454.792 826.895 433.547C840.65 465.478 821.193 506.47 796.72 527.629C793.626 530.304 790.192 533.722 786.789 535.968C786.914 534.804 787.043 533.66 787.896 532.725C794.238 525.774 801.458 519.317 806.622 511.382C808.838 507.978 811.029 503.677 812.656 499.981C814.909 494.862 818.476 486.739 813.95 481.975Z" fill="#8EECF5"/>
<path d="M726.207 445.846C725.946 443.968 726.246 441.943 727.75 440.579C739.722 429.719 759.915 449.655 748.295 461.316C742.691 466.94 726.726 463.093 726.183 454.321C730.105 458.319 734.783 462.035 740.72 461.159C761.29 458.123 737.898 426.992 726.207 445.846Z" fill="url(#paint3_linear_2243_36828)"/>
<path d="M726.208 445.847C737.899 426.993 761.291 458.124 740.721 461.16C734.784 462.036 730.106 458.32 726.184 454.322C726.589 451.186 726.381 448.995 726.208 445.847Z" fill="#B9F9F9"/>
<path d="M238.811 443.453C241.62 447.196 246.004 453.539 248.94 456.85C275.163 486.42 307.08 512.769 340.561 533.79C345.048 536.608 357.33 544.437 361.47 545.858C366.17 548.939 371.89 551.302 376.979 553.772C408.076 568.863 443.287 569.099 476.771 574.627C490.747 576.934 503.997 580.814 517.783 583.834C531.258 586.623 549.562 587.09 563.335 587.572C569.449 588.458 594.746 590.852 598.32 593.751L590.678 591.588L590.491 592.204C594.343 596.647 590.304 605.493 592.895 605.885C599.927 606.949 616.981 601.866 623.079 603.315C622.44 603.452 621.785 603.601 621.138 603.694C510.109 619.687 389.797 599.568 297.845 533.391C279.794 520.046 266.729 507.975 252.304 491.032C252.44 490.877 252.576 490.723 252.712 490.568C256.965 478.14 248.007 464.558 243.146 453.564C240.914 448.516 239.123 447.861 238.811 443.453Z" fill="#B9F9F9"/>
<path d="M604.474 463.524C586.168 464.24 581.393 451.945 600.99 448.677C618.697 447.73 622.504 458.985 604.474 463.524ZM600.587 450.104C596.515 450.97 590.074 451.579 589.789 456.593C592.001 461.025 598.522 461.043 602.879 461.033C607.056 460.142 612.501 459.156 612.734 454.07C610.832 450.219 604.404 449.766 600.587 450.104Z" fill="#070505"/>
<path d="M602.879 461.036C598.522 461.046 592.001 461.028 589.789 456.596C590.074 451.582 596.515 450.973 600.587 450.107C604.404 449.769 610.832 450.222 612.734 454.073C612.501 459.159 607.056 460.145 602.879 461.036Z" fill="#B9FBC0"/>
<path d="M337.748 463.958C339.206 458.383 339.707 457.114 345.017 454.596C358.465 453.515 377.345 473.823 360.036 481.344C349.343 482.287 340.297 473.958 337.748 463.958ZM344.886 456.518C331.348 464.627 347.745 479.831 359.485 479.472C373.366 472.468 355.356 456.226 344.886 456.518Z" fill="#070505"/>
<path d="M503.986 455.713C502.281 458.182 502.724 458.634 502.838 461.372C503.214 470.418 523.338 467.837 521.474 460.979C516.91 456.09 509.406 457.42 504.354 455.947C507.938 452.017 524.899 457.044 524.846 462.604C524.749 472.763 499.068 472.836 499.964 460.872C500.121 458.779 500.262 457.096 501.796 455.523C503.336 455.111 502.633 455.019 503.986 455.713Z" fill="#070505"/>
<path d="M504.356 455.945C509.408 457.418 516.912 456.088 521.476 460.977C523.34 467.835 503.216 470.416 502.84 461.37C502.726 458.632 502.283 458.18 503.988 455.711L504.356 455.945Z" fill="#B9FBC0"/>
<path d="M359.484 479.473C347.744 479.832 331.347 464.629 344.885 456.52C355.355 456.228 373.365 472.469 359.484 479.473Z" fill="#B9F9F9"/>
<path d="M201.204 466.078L204.374 460.094C205.688 462.341 206.653 463.915 207.489 466.432C210.506 475.514 207.497 484.501 215.609 491.125C219.021 508.62 223.637 530.736 233.725 545.955C248.73 568.594 274.702 586.137 296.285 601.955C323.017 621.546 350.624 639.047 380.362 653.703C390.256 658.579 402.55 661.337 412.899 665.243C436.695 673.984 460.674 678.418 485.675 681.824C504.518 684.392 521.344 687.16 540.6 686.092C566.875 684.635 594.637 681.687 620.531 677.053C652.627 671.309 682.838 661.893 712.008 647.361C723.567 641.589 738.06 638.145 749.139 630.714C757.621 625.819 763.054 621.314 768.914 613.754C774.406 606.67 775.515 591.335 780.448 586.326C791.312 575.296 797.002 584.212 805.677 567.31C805.45 566.325 805.64 566.672 805.315 566.181C806.818 563.248 809.143 558.312 811.135 555.968C810.262 575.921 804.654 596.276 796.178 614.471C794.719 617.603 791.44 622.759 788.968 625.125C784.09 629.793 777.27 632.382 771.844 636.384C765.082 641.313 759.538 647.613 753.232 653.055C743.279 661.645 729.854 665.452 718.193 671.129C708.99 675.61 700.285 681.572 690.608 684.879C680.825 688.222 669.787 685.746 660.006 689.138C652.119 691.948 646.498 697.305 638.012 700.084C624.607 704.475 612.277 698.002 600.266 699.485C587.347 701.08 578.101 706.214 563.856 706.174C551.206 706.139 540.761 701.241 528.63 702.057C516.572 702.868 504.822 707.84 492.274 706.687C482.408 705.781 472.672 702.358 463.815 698.004C459.281 695.776 452.569 691.905 447.902 690.766C436.28 687.931 426.058 690.715 413.568 687.979C399.099 685.195 387.061 676.076 373.659 670.678C360.507 665.381 344.493 667.179 333.971 656.205C329.188 651.216 324.292 645.367 317.913 642.332C300.992 634.281 281.761 631.512 265.52 621.793C260.5 618.79 256.448 614.987 253.796 609.705C249.914 602 247.555 593.255 240.878 587.409C236.49 583.568 230.179 581.495 225.206 578.756C217.778 574.667 213.75 568.865 209.813 561.595C197.557 543.001 197.881 539.016 200.889 517.253C201.166 515.246 201.534 510.534 200.868 508.612C200.781 508.393 200.694 508.173 200.607 507.954C200.527 506.901 198.486 498.399 198.147 496.964C195.44 485.536 197.753 476.991 201.204 466.078Z" fill="#CFBAF0"/>
<path d="M199.242 463.68L199.913 464.244L199.665 464.808C199.015 466.317 197.919 468.853 198.166 470.515L198.859 470.857C199.389 469.198 199.799 466.54 200.898 465.927L201.203 466.075C197.752 476.988 195.439 485.533 198.146 496.961C198.485 498.396 200.526 506.898 200.606 507.951C197.133 504.604 197.464 491.553 195.532 487.789L195.68 487.389C193.753 492.599 197.51 500.523 196.703 503.39C196.456 503.043 195.984 502.099 195.763 501.687C194.566 494.692 194.382 490.616 194.32 483.615C194.516 477.325 196.182 469.2 199.242 463.68Z" fill="#212522"/>
<path d="M815.16 542.069C833.849 523.75 829.974 512.007 830.243 488.008C830.274 485.223 831.927 479.421 832.706 476.527C846.333 483.162 857.421 488.616 870.333 496.686C860.254 508.209 849.534 520.11 838.382 530.585C831.253 537.28 823.211 543.61 815.854 550.307C815.537 547.852 815.363 544.596 815.16 542.069Z" fill="#4EC2B7"/>
<path d="M563.336 587.571C588.657 587.522 619.036 585.296 644.297 579.944C687.788 570.729 739.745 552.538 775.227 525.263C790.08 513.845 803.683 497.185 813.951 481.973C818.477 486.737 814.91 494.86 812.657 499.979C811.03 503.675 808.839 507.976 806.623 511.38C801.459 519.315 794.239 525.772 787.897 532.723C787.044 533.658 786.915 534.802 786.79 535.966C748.981 568.291 706.618 586.332 658.32 596.6C646.573 599.098 635.069 601.879 623.08 603.314C616.982 601.865 599.928 606.948 592.896 605.884C590.305 605.492 594.344 596.646 590.492 592.203L590.679 591.587L598.321 593.75C594.747 590.851 569.45 588.457 563.336 587.571Z" fill="url(#paint4_linear_2243_36828)"/>
<path d="M878.609 484.615L881.108 481.844C881.763 487.565 880.381 502.465 882.089 505.288L881.96 508.048C881.075 506.781 880.856 506.278 880.348 504.874L879.781 505.104C878.411 510.94 879.684 515.43 878.069 521.774C877.788 515.217 879.328 501.887 878.649 497.239C878.479 493.094 878.229 489.996 877.719 485.879L878.609 484.615Z" fill="#90DBF4"/>
<path d="M194.035 493.268C193.969 491.005 193.57 485.415 194.321 483.617C194.383 490.618 194.567 494.694 195.764 501.689C162.014 528.028 136.111 561.555 121.036 601.608C119.856 604.742 118.373 609.622 116.839 612.448L113.966 607.524C113.489 606.203 112.951 604.895 112.43 603.591C112.783 602.063 113.366 599.986 113.938 598.508C119.916 583.042 125.918 566.758 133.932 552.252C136.203 548.143 140.017 543.928 142.577 540.077C154.014 522.872 175.102 502.402 194.035 493.268Z" fill="#FFCFD2"/>
<path d="M243.852 484.582C258.992 503.807 277.394 522.258 297.461 536.384C308.518 546.04 337.52 561.652 350.669 568.016C428.766 605.817 518.534 619.292 604.52 609.005C636.061 605.232 666.979 600.251 697.463 589.969C743.111 574.574 787.46 549.44 816.898 510.409C820.326 505.839 824.263 497.725 826.853 492.453C827.269 506.459 826.032 527.776 814.354 537.173C810.719 540.098 804.835 544.033 802.42 547.738C798.428 553.862 797.196 564.268 793.241 570.256C788.825 576.942 778.715 573.712 772.149 575.253C761.387 577.779 759.509 588.399 754.23 596.441C747.417 606.82 738.685 601.618 729.308 604.842C719.8 608.112 717.119 621.389 707.245 624.297C701.122 626.1 693.985 622.863 687.733 621.623C674.395 618.977 668.922 629.091 657.315 631.455C645.511 633.86 636.758 627.166 624.866 629.799C613.92 632.143 608.198 644.051 596.558 644.709C589.903 645.085 584.501 641.569 578.331 639.573C573.406 637.98 568.547 637.312 563.38 638.039C553.653 639.408 546.889 646.891 537.386 648.843C530.279 650.302 525.679 646.935 520.351 642.872C509.993 634.904 499.064 642.439 488.157 644.37C481.356 645.574 473.156 645.061 467.429 640.559C464.912 638.58 461.846 635.808 459.283 634.028C450.233 627.745 440.616 632.205 431.196 634.011C421.467 635.876 409.32 633.248 402.791 625.364C397.172 618.579 395.593 613.245 386.564 609.679C376.069 605.533 362.598 609.659 352.922 604.28C345.649 600.237 343.348 589.936 334.794 586.293C325.557 582.359 316.822 586.922 307.985 582.408C298.744 577.688 300.91 567.69 293.508 561.195C287.943 556.312 275.034 558.219 271.457 554.019C261.275 542.066 271.513 537.767 253.433 525.222C253.229 523.263 250.833 519.875 250.127 517.693C247.652 510.049 242.958 491.961 243.852 484.582Z" fill="#B9F9F9"/>
<path d="M870.812 496.655C872.541 493.277 875.432 488.913 877.718 485.879C878.228 489.996 878.478 493.094 878.648 497.239C878.617 499.561 879.048 499.933 877.906 501.272C875.878 501.145 872.694 498.127 870.812 496.655Z" fill="#FDE4CF"/>
<path d="M215.609 491.121C222.455 494.481 229.593 497.221 232.404 505.1C233.423 507.955 233.917 511.335 235.193 514.062C240.335 525.053 252.93 524.879 259.841 534.112C266.031 542.381 261.7 552.347 272.502 557.797C277.886 560.514 286.665 559.719 290.619 562.431C298.935 568.135 296.073 579.185 306.662 584.896C316.568 590.238 326.092 584.93 335.139 589.52C343.323 593.671 343.317 602.934 352.921 607.363C363.196 612.101 380.965 607.732 389.004 613.815C401.491 623.263 397.363 631.023 416.329 636.409C431.523 640.724 440.78 631.587 452.069 633.875C460.75 635.634 465.015 646.776 479.725 648.007C493.073 649.123 500.725 641.811 511.649 642.409C521.864 642.968 525.663 656.992 542.428 650.702C549.055 648.216 554.456 643.629 561.172 641.689C576.14 637.366 584.446 648.758 598.581 647.626C610.636 646.66 616.984 633.696 627.591 632.237C637.86 630.824 645.305 636.868 657.037 634.846C668.227 632.916 673.108 624.61 683.645 624.343C693.239 624.1 699.881 631.295 710.37 626.82C719.529 622.912 722.332 611.789 729.523 608.068C736.101 604.665 745.318 609.054 752.822 603.312C760.202 597.665 762.261 584.776 768.675 580.332C777.99 573.877 789.303 584.706 797.323 570.273C798.921 570.77 799.586 571.125 801.247 570.859C803.268 569.901 804.051 568.132 805.315 566.177C805.64 566.668 805.45 566.321 805.677 567.306C797.002 584.208 791.312 575.292 780.448 586.322C775.515 591.331 774.406 606.666 768.914 613.75C763.054 621.31 757.621 625.815 749.139 630.71C738.06 638.141 723.567 641.585 712.008 647.357C682.838 661.889 652.627 671.305 620.531 677.049C594.637 681.683 566.875 684.631 540.6 686.088C521.344 687.156 504.518 684.388 485.675 681.82C460.674 678.414 436.695 673.98 412.899 665.239C402.55 661.333 390.256 658.575 380.362 653.699C350.624 639.043 323.017 621.542 296.285 601.951C274.702 586.133 248.73 568.59 233.725 545.951C223.637 530.732 219.021 508.616 215.609 491.121Z" fill="#F1C0E8"/>
<path d="M453.231 516.217C437.572 520.923 418.882 503.383 432.805 493.52C444.231 492.578 469.446 505.753 453.231 516.217ZM432.693 495.016C421.687 506.287 440.8 517.199 453.21 513.733C457.483 510.614 457.762 507.1 453.841 503.472C448.239 498.288 440.417 494.438 432.693 495.016Z" fill="#070505"/>
<path d="M657.043 515.416C651.796 515.825 647.843 516.2 642.991 513.27C638.335 510.459 635.593 504.577 639.258 499.768C642.027 496.134 646.286 495.242 650.611 494.675C670.916 494.185 678.697 509.948 657.043 515.416ZM647.866 496.602C631.273 500.694 638.689 517.388 658.354 512.232C678.063 503.548 660.547 495.959 647.866 496.602Z" fill="url(#paint5_linear_2243_36828)"/>
<path d="M453.209 513.731C440.799 517.197 421.686 506.286 432.692 495.015C440.416 494.437 448.238 498.287 453.84 503.471C457.761 507.099 457.482 510.612 453.209 513.731Z" fill="#B9F9F9"/>
<path d="M658.356 512.235C638.691 517.391 631.275 500.697 647.868 496.605C660.549 495.962 678.065 503.551 658.356 512.235Z" fill="#B9F9F9"/>
<path d="M870.332 496.684L870.812 496.652C872.693 498.124 875.878 501.142 877.906 501.269C879.048 499.93 878.616 499.558 878.647 497.236C879.326 501.884 877.786 515.214 878.067 521.771C877.961 528.433 876.749 536.35 875.89 543.085C868.918 597.728 843.976 649.998 809.749 692.794C804.115 699.839 794.647 708.842 788.118 715.163C780.605 722.438 770.354 731.999 762.122 738.329C723.61 767.941 676.802 791.183 629.642 802.786L629.216 802.837C621.347 794.884 606.353 781.551 599.955 773.827C625.367 772.827 650.672 766.296 674.507 757.625C686.881 753.124 700.147 749.4 712.096 743.76C743.086 729.133 771.142 706.079 793.434 680.204C806.433 663.181 816.027 638.728 820.588 617.885C824.108 601.799 821.606 582.694 818.315 566.923C817.14 561.295 816.502 555.935 815.853 550.305C823.21 543.608 831.252 537.278 838.381 530.583C849.533 520.108 860.253 508.207 870.332 496.684Z" fill="#A3C4F3"/>
<path d="M116.84 612.447C118.374 609.621 119.857 604.741 121.037 601.607C136.112 561.554 162.015 528.027 195.765 501.688C195.986 502.1 196.458 503.044 196.705 503.391L196.805 505.92C194.397 506.266 190.535 510.072 188.405 511.729C168.868 526.93 154.287 545.945 141.197 566.669C130.659 583.352 125.643 597.216 118.496 615.267L116.84 612.447Z" fill="#D8DFF7"/>
<path d="M878.068 521.771C879.683 515.427 878.41 510.937 879.78 505.101L880.347 504.871C880.855 506.275 881.074 506.778 881.959 508.045C881.77 624.836 804.729 733.203 699.229 780.331C689.734 784.573 679.742 789.387 670.151 793.783C658.665 799.047 641.693 800.98 632.103 805.557L631.672 805.53L629.643 802.786C676.803 791.183 723.611 767.941 762.123 738.329C770.355 731.999 780.606 722.438 788.119 715.163C794.648 708.842 804.116 699.839 809.75 692.794C843.977 649.998 868.919 597.728 875.891 543.085C876.75 536.35 877.962 528.433 878.068 521.771Z" fill="#8EECF5"/>
<path d="M882.089 505.285C903.724 515.692 924.344 542.175 935.923 562.682L936.102 564.266C933.338 608.284 914.907 650.893 888.747 685.979C876.075 702.974 859.289 720.147 843.708 734.56C836.256 741.454 827.248 747.532 819.328 753.868C773.319 790.486 723.187 802.685 666.151 811.403C658.891 812.512 650.743 812.706 643.571 813.816L642.346 813.295C639.233 810.672 635.416 807.995 632.104 805.557C641.694 800.98 658.665 799.047 670.151 793.783C679.742 789.387 689.734 784.573 699.229 780.331C804.729 733.203 881.77 624.836 881.959 508.045L882.089 505.285Z" fill="#A3C4F3"/>
<path d="M118.494 615.269C125.641 597.218 130.657 583.354 141.195 566.671C154.285 545.947 168.866 526.932 188.403 511.731C190.533 510.074 194.395 506.268 196.803 505.922C194.408 510.465 191.968 515.723 190.168 520.528C184.128 536.653 176.812 547.232 186.045 563.714C185.154 582.53 191.342 596.355 197.823 613.524C204.99 632.51 211.556 650.134 225.597 665.419C237.438 678.308 252.944 686.144 267.383 695.643C290.589 710.845 315.369 725.265 340.332 737.334C352.96 743.44 370.986 752.834 384.45 756.473C415.956 764.987 452.687 773.931 484.997 776.887C480.007 787.717 475.845 795.937 469.302 805.943C465.414 811.889 459.772 819.384 456.363 825.362C428.95 820.079 399.571 814.676 371.633 813.642C355.065 813.029 337.342 815.023 320.762 815.894C316.699 815.442 310.118 815.945 305.513 815.517C290.273 814.098 277.8 809.846 263.813 804.352C249.65 797.414 238.766 791.287 228.806 778.637C215.523 761.766 211.101 744.411 203.945 724.963C199.909 713.996 193.285 701.818 186.945 692.038C168.709 663.908 136.322 643.622 118.494 615.269Z" fill="#FFCFD2"/>
<path d="M196.837 525.915C187.081 531.886 199.411 551.843 196.536 559.543C194.929 559.607 189.189 554.038 188.35 552.532C186.748 549.654 187.777 549.424 184.887 547.107C186.958 533.293 192.781 523.726 197.724 510.637C197.619 515.617 197.171 520.921 196.837 525.915Z" fill="#E6DFD5"/>
<path d="M542.288 515.781C562.986 512.584 587.704 531.967 554.301 534.668C548.273 535.156 539.752 533.51 535.93 528.32L537.092 527.791C543.008 533.132 568.072 533.709 568.089 525.762C564.926 519.764 549.116 516.327 542.707 516.607L542.288 515.781Z" fill="#070505"/>
<path d="M535.93 528.32C533.188 522.121 535.975 517.534 542.288 515.781L542.707 516.607C536.742 518.901 534.275 521.503 537.092 527.791L535.93 528.32Z" fill="#212522"/>
<path d="M542.705 516.606C549.114 516.326 564.924 519.763 568.087 525.761C568.07 533.708 543.006 533.131 537.09 527.79C534.273 521.502 536.74 518.9 542.705 516.606Z" fill="#B9F9F9"/>
<path d="M184.887 547.106C187.777 549.423 186.748 549.653 188.35 552.531C189.189 554.037 194.929 559.606 196.536 559.542C199.411 551.842 187.081 531.885 196.837 525.914C195.609 542.092 196.999 546.406 205.78 560.391C208.756 565.13 210.894 568.383 214.291 572.869C222.038 583.099 233.434 583.611 240.413 590.56C249.036 599.148 248.979 613.947 260.84 621.972C277.875 633.499 297.158 636.35 315.607 644.456C326.269 649.141 329.104 657.194 338.633 663.094C348.076 668.94 361.103 668.935 369.987 672.413C389.778 680.162 399.056 689.736 421.596 692.194L421.978 693.194C437.583 692.616 448.955 692.278 462.16 701.683L461.646 701.983C456.303 700.509 455.61 698.632 449.182 697.562C440.661 696.143 433.162 698.023 424.843 696.053C424.151 695.889 423.776 695.954 423.093 696.052L423.367 696.49C432.727 698.443 439.683 697.149 448.692 698.333C455.883 699.278 465.223 705.6 471.88 708.12C489.159 714.662 505.02 715.204 523.159 714.192C528.508 713.894 536.13 715.869 541.716 715.82C550.524 715.831 578.245 717.517 584.719 714.972C597.121 713.986 609.66 712.241 621.96 710.452C631.946 708.834 642.361 708.022 652.115 705.3C660.985 702.332 671.439 701.915 680.163 698.994C694.444 694.212 709.627 687.861 723.433 681.829C731.559 678.279 738.804 671.929 746.244 667.454C754.895 662.249 762.844 657.929 770.261 650.952C777.69 644.385 786.996 638.25 795.225 632.676C797.203 631.336 798.748 630.583 801.014 631.187C795.007 636.61 788.442 639.979 782.959 646.312C777.062 653.122 774.207 665.131 767.283 670.266C760.048 675.633 747.546 671.805 739.232 678.053C734.755 681.417 730.044 686.939 726.571 690.942C714.282 705.11 700.909 697.73 689.363 702.195C678.933 706.228 674.883 717.873 660.367 722.138C642.95 727.256 633.289 717.123 619.172 719.318C607.682 721.105 596.081 735.264 580.165 734.62C566.936 734.085 567.909 728.522 556.448 725.52C552.899 724.591 544.944 726.11 540.853 725.406C530.607 723.643 523.157 719.016 512.397 721.424C504.543 723.181 497.39 727.539 489.273 727.591C476.805 727.672 469.877 719.898 457.013 717.407C446.201 715.313 435.437 720.356 427.141 718.627C413.544 715.793 401.896 700.08 385.854 698.937C377.776 698.362 372.46 700.507 364.971 700.676C356.136 700.875 345.197 698.078 340.272 690.107C337.224 685.175 334.834 679.807 330.564 675.9C321.191 667.322 311.058 668.452 299.734 668.662C277.86 669.066 283.581 654.265 271.72 644.382C264.364 638.252 253.656 642.625 246.511 634.973C239.709 627.688 240.466 617.628 232.604 611.582C225.914 606.436 217.385 609.744 211.171 602.385C203.647 593.475 211.005 582.883 203.916 573.427C199.899 568.068 194.069 567.241 189.581 562.543C185.158 557.913 184.891 553.035 184.887 547.106Z" fill="#B9F9F9"/>
<path d="M811.134 555.964C809.142 558.308 806.817 563.244 805.314 566.177C804.05 568.132 803.267 569.901 801.246 570.859C799.585 571.125 798.92 570.77 797.322 570.273C802.38 558.663 801.217 551.967 811.568 543.605C811.627 547.182 811.758 552.56 811.134 555.964Z" fill="#8EECF5"/>
<path d="M936.102 564.27C937.074 565.409 937.691 566.405 939.062 566.923C939.036 568.38 938.845 569.541 939.494 570.809C937.166 576.411 936.65 587.135 935.125 593.479C932.588 604.03 929.986 614.438 926.021 624.577C905.991 679.282 865.282 724.226 818.804 758.215C802.774 769.936 792.305 776.862 774.072 785.363C739.273 801.588 705.07 808.223 667.563 814.422C660.857 815.53 653.997 815.814 647.55 816.862L646.472 816.27C644.793 816.056 644.645 816.25 643.334 815.369L643.571 813.82C650.743 812.71 658.89 812.516 666.15 811.407C723.186 802.689 773.319 790.49 819.328 753.872C827.248 747.536 836.256 741.458 843.708 734.564C859.289 720.151 876.075 702.978 888.747 685.983C914.907 650.897 933.338 608.288 936.102 564.27Z" fill="#8EECF5"/>
<path d="M188.545 565.668C192.217 568.791 195.658 569.988 199.383 572.79C206.799 578.368 203.73 586.477 204.896 594.251C205.92 601.079 208.516 604.373 213.735 608.329C214.958 612.535 217.275 614.633 221.172 616.602C224.486 618.276 234 622.138 237.506 622.844C240.327 631.696 241.605 634.617 249.221 640.626C250.957 649.371 264.038 649.334 270.456 652.215C273.47 653.568 275.107 656.868 277.85 658.602C280.355 663.301 281.573 664.575 285.559 668.157C286.783 672.085 291.934 677.183 295.598 678.971C303.673 682.912 313.983 680.354 322.583 681.828C328.69 682.875 326.582 685.404 333.802 684.253C336.46 689.682 339.166 695.01 344.576 698.327C345.343 701.889 347.235 702.93 350.121 705.03C352.468 706.737 355.468 707.369 358.074 708.395C369.33 712.827 381.079 707.76 392.23 709.593C405.972 711.853 416.241 723.972 428.733 728.96C438.162 732.685 450.216 728.067 460.28 729.108C470.559 730.17 478.923 735.13 488.753 737.839C497.627 740.285 506.122 737.377 514.957 737.054C520.889 736.837 527.059 737.576 533.13 737.098C529.062 739.551 522.613 741.663 519.154 743.967C509.847 750.168 492.983 763.316 489.783 774.115C483.833 773.634 476.539 772.112 470.544 770.911C443.52 765.499 415.431 761.157 389.109 753.027C370.85 746.979 352.741 739.064 335.82 729.955C312.95 717.645 289.612 706.29 268.127 691.566C257.733 684.443 244.055 677.81 234.631 669.534C219.956 656.646 211.567 635.83 204.206 618.18C196.659 600.404 189.449 585.317 188.545 565.668Z" fill="url(#paint6_linear_2243_36828)"/>
<path d="M939.495 570.809C944.338 580.667 948.538 595.215 950.977 605.558C968.036 677.887 942.903 768.261 877.923 809.445C866.45 817.788 854.335 824.707 841.639 830.98C796.502 853.282 739.972 855.71 692.33 840.258C680.573 836.445 657.76 824.723 647.551 816.862C653.998 815.814 660.858 815.53 667.564 814.422C705.071 808.223 739.274 801.588 774.073 785.363C792.306 776.862 802.775 769.936 818.805 758.215C865.283 724.226 905.992 679.282 926.022 624.577C929.987 614.438 932.589 604.03 935.126 593.479C936.651 587.135 937.167 576.411 939.495 570.809Z" fill="#A3C4F3"/>
<path d="M801.014 631.188C798.748 630.584 797.203 631.337 795.225 632.677C786.996 638.251 777.69 644.386 770.261 650.953C762.844 657.93 754.895 662.25 746.244 667.455C738.804 671.93 731.559 678.28 723.433 681.83C709.627 687.862 694.444 694.213 680.163 698.995C671.439 701.916 660.985 702.333 652.115 705.301C642.361 708.023 631.946 708.835 621.96 710.453C609.66 712.242 597.121 713.987 584.719 714.973C563.721 714.913 544.202 716.011 523.084 713.423C514.307 712.347 484.326 716.122 478.865 707.676C480.873 708.286 482.79 708.672 484.655 709.178C501.186 713.661 514.412 706.375 529.739 705.488C541.168 704.826 553.439 709.985 566.368 709.618C579.845 709.235 587.155 705.102 599.772 703.336C610.54 701.829 620.692 706.27 632.735 704.508C645.781 702.599 650.412 696.502 661.937 692.121C669.62 689.2 680.58 691.477 688.815 689.297C700.002 686.335 710.006 679.484 720.507 674.55C729.701 670.23 740.772 665.998 749.195 660.673C757.076 655.692 763.792 647.209 771.536 641.33C777.255 636.988 785.628 632.424 790.583 628.284C803.421 617.554 810.207 587.3 813.922 571.016C818.601 593.035 821.372 615.648 801.014 631.188Z" fill="#CFBAF0"/>
<path d="M103.876 589.473C105.843 591.958 107.743 597.275 108.646 600.378L108.452 601.07C105.185 598.405 102.323 593.759 103.876 589.473Z" fill="#E6DFD5"/>
<path d="M317.075 906.37C313.89 908.324 309.257 909.992 305.622 911.172C260.48 925.83 213.968 925.542 170.465 905.31C84.7043 865.426 56.4173 775.626 72.4409 687.211C78.8715 651.728 84.6533 629.324 101.268 596.406C104.726 601.758 107.961 605.107 111.512 610.093C107.742 618.077 103.921 631.423 101.582 639.94C89.9753 682.206 89.9084 729.247 105.452 770.681C124.761 822.154 165.309 865.415 215.357 888.275C249.855 904.032 279.694 908.826 317.075 906.37Z" fill="#E6DFD5"/>
<path d="M213.734 608.328C224.903 613.107 231.608 608.728 237.505 622.843C233.999 622.137 224.485 618.275 221.171 616.601C217.274 614.632 214.957 612.534 213.734 608.328Z" fill="#F1C0E8"/>
<path d="M111.512 610.094C113.406 613.21 115.308 616.434 117.352 619.445C115.617 623.811 115.282 633.365 114.807 638.297C106.135 728.323 162.81 808.714 245.287 841.457C291.542 859.82 344.085 861.372 392.332 849.226C403.426 846.396 414.332 842.456 425.243 838.926C434.881 835.808 444.218 832.821 453.699 829.168C453.163 833.412 431.025 853.645 425.793 857.438C400.488 875.78 371.272 894.136 340.722 901.871C338.195 902.51 332.306 904.123 330.052 904.393C326.412 903.788 320.715 905.45 317.075 906.371C279.694 908.827 249.855 904.033 215.357 888.276C165.309 865.416 124.761 822.155 105.452 770.682C89.908 729.248 89.9749 682.207 101.582 639.941C103.921 631.424 107.742 618.078 111.512 610.094Z" fill="#FFCFD2"/>
<path d="M804.344 652.203C803.483 652.239 802.33 651.993 801.965 652.677C785.454 683.617 757.182 702.298 724.493 713.006C716.026 715.468 706.133 718.689 697.984 721.392C689.852 724.089 670.003 735.99 662.548 735.415C644.679 734.038 641.516 730.637 622.917 738.512C609.221 744.311 593.373 746.857 578.184 746.655C567.952 742.409 559.007 737.176 547.522 737.029C542.82 736.969 538.122 737.859 533.477 737.254C535.538 736.346 538.678 735.384 540.841 734.891C545.586 733.472 552.443 732.176 557.644 730.812L556.802 730.601C558.463 729.568 558.102 729.934 560.552 730.17C562.446 730.917 566.514 733.952 568.956 735.077C573.439 737.145 575.901 737.178 580.244 737.558C595.793 738.917 607.281 725.858 618.313 722.727C630.305 719.325 643.694 731.163 660.479 725.677C676.958 720.29 675.647 713.997 688.832 705.707C696.057 701.163 708.692 705.84 718.667 701.222C730.511 695.739 733.004 685.517 743.649 679.695C749.526 676.481 757.638 677.834 764.568 675.585C777.192 671.489 779.01 655.569 786.392 648.16C800.367 634.133 807.005 636.119 816.68 617.441C813.909 628.739 809.613 641.798 804.344 652.203Z" fill="#98F5E1"/>
<path d="M117.352 619.445L118.497 620.868C118.727 634.163 116.064 646.833 116.648 660.871C118.78 712.098 139.352 758.42 176.492 793.758C220.54 835.671 274.819 854.423 335.107 853.59C378.928 852.985 409.306 840.699 450.075 827.88C451.934 828.602 452.006 828.504 453.933 828.507L453.699 829.168C444.218 832.821 434.881 835.808 425.243 838.926C414.332 842.456 403.426 846.396 392.332 849.226C344.085 861.372 291.542 859.82 245.287 841.457C162.81 808.714 106.135 728.323 114.807 638.297C115.282 633.365 115.617 623.811 117.352 619.445Z" fill="#D8DFF7"/>
<path d="M118.497 620.867C128.379 633.409 137.867 643.611 149.422 654.62C159.888 664.591 170.794 674.896 179.475 686.447C186.969 696.923 195.371 710.187 199.794 722.188C210.416 751.007 218.693 781.015 246.871 798.028C251.086 800.573 258.621 805.253 263.392 806.785C277.324 813.71 303.622 819.739 319.024 818.056L319.576 818.079C327.471 818.362 336.065 817.726 344.003 817.146C376.965 814.738 409.904 819.774 442.201 825.93C443.989 826.271 448.761 826.973 450.075 827.879C409.306 840.698 378.928 852.984 335.107 853.589C274.819 854.422 220.54 835.67 176.492 793.757C139.352 758.419 118.78 712.097 116.648 660.87C116.064 646.832 118.727 634.162 118.497 620.867Z" fill="#FFCFD2"/>
<path d="M249.221 640.625L249.861 640.907C262.084 646.174 270.224 639.811 277.551 657.862L277.85 658.601C275.107 656.867 273.47 653.567 270.456 652.214C264.038 649.333 250.957 649.37 249.221 640.625Z" fill="#F1C0E8"/>
<path d="M578.184 746.654C593.373 746.856 609.221 744.31 622.917 738.511C641.516 730.636 644.679 734.037 662.548 735.414C670.003 735.989 689.852 724.088 697.984 721.391C706.133 718.688 716.026 715.467 724.493 713.005C757.182 702.297 785.454 683.616 801.965 652.676C802.33 651.992 803.483 652.238 804.344 652.202C801.338 658.946 796.345 669.027 791.534 675.099C769.368 703.074 737.148 729.692 704.099 743.651C696.994 746.653 687.442 748.93 680.149 751.482C653.649 760.753 628.391 767.655 600.246 769.501C599.091 763.041 583.251 751.038 578.184 746.654Z" fill="#B9F9F9"/>
<path d="M285.559 668.156C301.546 676.189 323.196 663.567 333.802 684.252C326.582 685.403 328.69 682.874 322.583 681.827C313.983 680.353 303.673 682.911 295.598 678.97C291.934 677.182 286.783 672.084 285.559 668.156Z" fill="#F1C0E8"/>
<path d="M421.596 692.195C427.72 692.478 440.304 691.787 445.42 693.185C456.672 696.259 467.131 703.731 478.865 707.676C484.326 716.122 514.307 712.347 523.084 713.423C544.202 716.011 563.721 714.913 584.719 714.973C578.245 717.518 550.524 715.832 541.716 715.821C536.13 715.87 528.508 713.895 523.159 714.193C505.02 715.205 489.159 714.663 471.88 708.121C465.223 705.601 455.883 699.279 448.692 698.334C439.683 697.15 432.727 698.444 423.367 696.491L423.093 696.053C423.776 695.955 424.151 695.89 424.843 696.054C433.162 698.024 440.661 696.144 449.182 697.563C455.61 698.633 456.303 700.51 461.646 701.984L462.16 701.684C448.955 692.279 437.583 692.617 421.978 693.195L421.596 692.195Z" fill="#90DBF4"/>
<path d="M344.576 698.324C363.2 708.622 370.226 700.138 388.449 701.925C398.778 702.939 413.179 716.949 423.089 720.429C432.534 724.206 444.454 718.848 454.454 719.973C469.843 721.703 480.487 734.359 497.237 729.397C502.061 727.968 506.544 726.008 511.4 724.512C522.706 721.028 531.483 726.962 542.273 728.737C542.045 731.244 541.566 732.509 540.841 734.89C538.678 735.383 535.538 736.345 533.477 737.253L533.13 737.095C527.059 737.573 520.889 736.834 514.957 737.051C506.122 737.374 497.627 740.282 488.753 737.836C478.923 735.127 470.559 730.167 460.28 729.105C450.216 728.064 438.162 732.682 428.733 728.957C416.241 723.969 405.972 711.85 392.23 709.59C381.079 707.757 369.33 712.824 358.074 708.392C355.468 707.366 352.468 706.734 350.121 705.027C347.235 702.927 345.343 701.886 344.576 698.324Z" fill="#F1C0E8"/>
<path d="M542.274 728.739C548.523 728.398 555.555 726.749 560.553 730.171C558.103 729.935 558.464 729.569 556.803 730.602L557.645 730.813C552.444 732.177 545.587 733.473 540.842 734.892C541.567 732.511 542.046 731.246 542.274 728.739Z" fill="url(#paint7_linear_2243_36828)"/>
<path d="M533.13 737.097L533.477 737.255C538.122 737.86 542.82 736.97 547.522 737.03C559.007 737.177 567.952 742.41 578.184 746.656C583.251 751.04 599.091 763.043 600.246 769.503C569.334 771.567 538.737 777.507 507.742 775.594C501.752 775.225 495.756 774.704 489.783 774.114C492.983 763.315 509.847 750.167 519.154 743.966C522.613 741.662 529.062 739.55 533.13 737.097Z" fill="#FBF8CC"/>
<path d="M484.997 776.884C488.733 777.393 492.429 777.392 496.096 777.818C531.413 781.929 564.61 776.239 599.955 773.828C606.353 781.552 621.347 794.885 629.216 802.838C605.254 809.323 592.29 809.926 568.254 812.561L516.033 818.791L478.982 823.319C475.68 823.745 465.365 825.469 462.594 825.606C460.202 825.627 458.729 825.63 456.363 825.359C459.772 819.381 465.414 811.886 469.302 805.94C475.845 795.934 480.007 787.714 484.997 776.884Z" fill="#E6DFD5"/>
<path d="M462.594 825.608C465.365 825.471 475.68 823.747 478.982 823.321L516.033 818.793L568.254 812.563C592.29 809.928 605.254 809.325 629.216 802.84L629.642 802.789L631.671 805.533C621.558 808.081 611.317 810.818 601.001 812.255C585.785 814.374 570.517 815.088 555.188 816.827L469.717 827.016C509.715 830.876 551.481 831.466 590.997 822.858C608.169 819.117 624.593 814.121 642.345 813.298L643.57 813.819L643.333 815.368C644.644 816.249 644.792 816.055 646.471 816.269C627.849 816.474 607.43 822.261 589.185 826.279C555.688 833.655 521.588 832.953 487.507 831.775C477.785 831.439 466.224 828.388 456.759 828.399C455.075 828.196 454.602 828.224 453.035 827.473L453.232 826.932C456.533 825.914 459.143 825.849 462.594 825.608Z" fill="#98F5E1"/>
<path d="M263.815 804.352C277.802 809.846 290.275 814.098 305.515 815.517C310.12 815.945 316.701 815.442 320.764 815.894C321.766 815.959 325.42 816.065 326.047 816.428C323.183 816.498 317.216 816.47 314.597 816.801L314.246 817.36C316.057 817.838 317.161 817.904 319.025 818.059C303.623 819.742 277.325 813.713 263.393 806.788C270.133 807.53 275.997 812.64 283.46 812.497C283.09 811.403 267.576 808.536 263.815 804.352Z" fill="#90DBF4"/>
<path d="M469.719 827.014L555.19 816.825C570.519 815.086 585.787 814.372 601.003 812.253C611.319 810.816 621.56 808.079 631.673 805.531L632.104 805.558C635.416 807.996 639.234 810.673 642.347 813.296C624.595 814.119 608.171 819.115 590.999 822.856C551.483 831.464 509.717 830.874 469.719 827.014Z" fill="#FDE4CF"/>
<path d="M320.762 815.891C337.342 815.02 355.065 813.026 371.633 813.639C399.571 814.673 428.95 820.075 456.363 825.358C458.729 825.629 460.202 825.627 462.594 825.606C459.143 825.847 456.533 825.912 453.232 826.93L453.035 827.47C454.602 828.221 455.075 828.194 456.759 828.397L453.932 828.506C452.005 828.503 451.933 828.601 450.074 827.879C448.76 826.973 443.988 826.271 442.2 825.93C409.903 819.774 376.964 814.737 344.002 817.145C336.064 817.725 327.47 818.362 319.575 818.079L319.023 818.056C317.159 817.901 316.055 817.834 314.244 817.356L314.595 816.798C317.214 816.467 323.181 816.495 326.045 816.425C325.418 816.062 321.764 815.956 320.762 815.891Z" fill="url(#paint8_linear_2243_36828)"/>
<defs>
<linearGradient id="paint0_linear_2243_36828" x1="630.975" y1="185.674" x2="634.87" y2="174.329" gradientUnits="userSpaceOnUse">
<stop stop-color="#EAF0DE"/>
<stop offset="1" stop-color="#FFEEE8"/>
</linearGradient>
<linearGradient id="paint1_linear_2243_36828" x1="208.667" y1="640.27" x2="808.206" y2="367.477" gradientUnits="userSpaceOnUse">
<stop stop-color="#2B2830"/>
<stop offset="1" stop-color="#3B4756"/>
</linearGradient>
<linearGradient id="paint2_linear_2243_36828" x1="507.08" y1="227.563" x2="542.906" y2="587.14" gradientUnits="userSpaceOnUse">
<stop stop-color="#CEF9C8"/>
<stop offset="1" stop-color="#B3FCE5"/>
</linearGradient>
<linearGradient id="paint3_linear_2243_36828" x1="736.417" y1="437.568" x2="740.174" y2="462.92" gradientUnits="userSpaceOnUse">
<stop stop-color="#1D1514"/>
<stop offset="1" stop-color="#2B2B2F"/>
</linearGradient>
<linearGradient id="paint4_linear_2243_36828" x1="689.137" y1="505.924" x2="704.139" y2="587.631" gradientUnits="userSpaceOnUse">
<stop stop-color="#70F8C2"/>
<stop offset="1" stop-color="#9EE4FF"/>
</linearGradient>
<linearGradient id="paint5_linear_2243_36828" x1="644.304" y1="494.942" x2="661.425" y2="514.133" gradientUnits="userSpaceOnUse">
<stop stop-color="#030301"/>
<stop offset="1" stop-color="#333033"/>
</linearGradient>
<linearGradient id="paint6_linear_2243_36828" x1="356.063" y1="769.8" x2="360.21" y2="571.053" gradientUnits="userSpaceOnUse">
<stop stop-color="#FCD1F7"/>
<stop offset="1" stop-color="#F8E5F6"/>
</linearGradient>
<linearGradient id="paint7_linear_2243_36828" x1="554.026" y1="732.655" x2="545.334" y2="727.959" gradientUnits="userSpaceOnUse">
<stop stop-color="#AFDADD"/>
<stop offset="1" stop-color="#D0CAE9"/>
</linearGradient>
<linearGradient id="paint8_linear_2243_36828" x1="381.876" y1="825.99" x2="383.405" y2="814.356" gradientUnits="userSpaceOnUse">
<stop stop-color="#8EDFF8"/>
<stop offset="1" stop-color="#D4E3FA"/>
</linearGradient>
</defs>
</svg>
