<svg width="1024" height="1024" viewBox="0 0 1024 1024" fill="none" xmlns="http://www.w3.org/2000/svg">
<path d="M779.12 175.328C788.719 167.41 798.194 158.684 807.798 150.596C827.197 133.992 847.122 118.012 867.542 102.682C871.783 99.4381 886.769 87.7387 891.032 86.7891C894.412 88.0716 894.44 97.9603 894.387 101.198C893.791 137.552 878.326 176.339 864.13 209.097C847.694 247.348 825.266 282.523 802.097 316.958C791.057 333.364 779.249 349.459 767.064 365.027C730.392 411.814 691.434 456.765 650.334 499.716C637.437 512.934 624.491 526.136 611.565 539.327C607.847 543.121 604.579 547.389 601.056 551.219C597.748 549.835 594.248 548.446 591.066 546.828C590.237 549.055 588.172 555.792 584.813 554.5C584.032 552.437 584.129 552.083 585.299 550.059C586.361 549.409 587.757 547.372 588.617 546.27L584.604 542.446C582.789 544.495 582.291 544.9 580.059 546.502C579.336 545.979 579.267 545.824 578.655 545.162C578.312 543.254 579.137 541.885 579.895 540.059C576.459 537.945 574.876 537.134 571.172 535.652C567.724 538.096 567.415 540.915 565.198 542.172L564.517 541.733C564.003 539.833 564.298 532.217 564.847 530.723L565.855 530.616C567.104 531.615 567.331 532.408 568.037 533.85L568.317 534.43C571.229 532.767 574.339 529.474 577.336 530.987C578.143 532.369 577.782 533.548 577.603 535.201L577.514 535.975C580.333 538.854 582.737 538.689 585.885 540.119C586.617 540.452 589.268 543.794 589.951 544.65C591.514 542.499 592.08 540.953 594.925 540.988L595.544 541.796C595.017 544.009 594.808 543.646 593.019 545.584L599.829 548.446C603.96 544.656 609.339 537.895 613.665 533.578C625.559 521.71 637.36 509.813 648.941 497.636C689.91 454.865 728.701 410.06 765.166 363.39C778.982 345.782 791.658 328.12 803.998 309.463C825.54 276.896 846.27 244.382 861.726 208.348C876.043 176.625 896.356 124.394 890.687 89.6311C884.694 92.979 869.285 104.537 863.251 109.023C834.951 130.065 808.424 152.918 782.073 176.314C733.139 219.551 685.473 264.204 639.138 310.215C623.24 327.023 605.396 344.727 588.857 360.969C575.619 373.578 563.666 385.84 550.808 398.689L487.658 461.573C496.469 468.376 505.764 478.464 513.775 486.461C521.532 494.203 535.412 505.259 539.616 515.043C536.293 524.106 520.311 531.438 514.93 540.492C512.1 545.254 509.458 550.229 506.791 555.074L489.99 585.563C475.163 611.599 459.393 637.088 442.714 661.979C436.659 671.527 428.94 681.989 422.25 691.186C414.97 701.193 406.238 713.035 397.866 722.081L391.89 728.866C381.789 739.828 371.57 750.681 361.235 761.423C352.643 770.032 343.929 778.52 335.096 786.882C318.165 801.886 305.435 812.394 286.908 825.075C276.592 832.136 253.844 846.475 245.272 854.389C234.607 862.634 226.839 873.782 222.749 886.621C219.093 898.094 216.053 905.933 202.689 906.759C166.508 908.996 127.527 869.878 136.258 833.102C137.888 826.236 140.626 819.207 144.005 812.978C158.812 788.037 179.121 765.883 197.876 743.758C206.919 732.495 219.107 719.304 228.868 708.278C238.658 696.939 254.427 681.879 265.23 670.776C308.404 626.98 352.756 584.361 398.237 542.966C407.289 535.069 416.249 527.066 425.115 518.961C444.997 501.849 468.075 477.663 486.949 458.805L589.457 356.662C602.744 343.929 622.083 324.928 634.025 311.683C650.964 293.742 673.579 272.701 691.639 255.797C720.529 228.682 749.691 201.858 779.12 175.328ZM396.024 548.195C383.69 558.972 370.635 571.572 358.639 582.888C339.547 600.749 320.665 618.833 301.998 637.138C280.196 658.539 258.844 680.515 237.624 702.513C235.577 704.635 233.402 706.832 231.464 709.037C221.548 719.901 210.376 732.167 201.166 743.593C193.482 752.632 185.295 761.903 177.767 771.13C161.398 791.421 135.199 819.754 137.552 847.604C140.049 877.157 172.676 906.559 202.625 904.385C215.578 903.444 218.356 894.197 221.43 883.659C225.699 869.023 234.959 860.09 246.119 850.395C248.503 849.019 251.055 847.019 253.356 845.427C270.82 833.341 288.888 822.155 305.603 809.003C320.865 796.994 334.955 783.72 348.848 770.183C365.96 752.547 382.921 736.169 397.23 715.808C401.872 709.75 406.362 703.578 410.697 697.296C412.438 694.76 419.25 684.21 420.667 682.918C420.113 684.914 416.867 689.967 415.646 691.857C411.251 698.612 406.709 705.27 402.024 711.826C399.137 715.838 393.529 723.069 391.535 727.166C401.883 716.721 422.646 688.013 430.908 675.574C457.117 638.547 480.374 598.131 502.572 558.602C503.694 556.606 506.575 551.901 506.779 549.89C505.464 549.459 504.143 548.829 502.849 549.079C500.952 550.91 498.264 555.564 496.799 557.957C479.391 586.4 463.443 615.775 446.418 644.47C440.789 653.958 434.654 663.009 428.733 672.302C426.348 675.589 423.339 679.995 420.667 682.918C423.168 676.716 437.246 656.745 441.625 649.239L471.966 596.455C481.471 579.734 490.26 563.861 501.068 547.887C483.137 539.877 461.557 515.683 448.385 500.58C431.132 516.672 413.677 532.545 396.024 548.195ZM484.476 465.014C478.102 471.003 471.881 477.153 465.82 483.459C479.468 498.297 501.832 520.159 517.994 531.567L518.608 532.022C521.355 530.01 532.783 518.358 535.134 515.613C524.37 503.97 511.593 492.59 500.563 481.042C496.486 476.773 487.692 469.337 484.476 465.014ZM463.986 485.297L456.223 492.86C474.334 512.229 488.049 526.176 511.16 540.432C512.636 539.697 515.432 535.28 517.23 533.424C499.417 521.506 486.798 508.448 471.929 493.149C470.303 491.476 465.621 486.034 463.986 485.297ZM454.534 494.41L450.181 499.038C456.127 506.108 462.983 512.965 469.384 519.657C481.09 531.894 491.069 542.921 507.898 547.536C509.391 546.42 510.098 544.458 510.945 542.732C496.092 534.18 481.017 521.792 468.737 509.804C465.971 507.105 456.467 495.795 454.534 494.41Z" fill="#010101"/>
<path d="M782.072 176.316C808.423 152.92 834.95 130.067 863.25 109.025C869.284 104.539 884.693 92.9807 890.686 89.6328C896.355 124.396 876.042 176.627 861.725 208.35C856.237 206.323 853.718 203.221 846.666 201.69C855.024 183.574 866.57 164.23 873.226 145.635C870.787 148.805 865.607 159.692 863.462 163.961C857.463 175.999 851.397 188.003 845.264 199.973C843.011 199.271 834.174 195.184 831.997 194.12C823.848 190.138 815.753 187.084 807.563 183.87C802.476 181.873 784.991 178.097 782.072 176.316Z" fill="#FFEDE1"/>
<path d="M449.391 185.85C452.938 148.785 484.715 121.822 521.942 125.876C539.374 127.658 555.331 136.455 566.144 150.244C576.603 163.636 581.369 180.608 579.41 197.487C577.945 209.813 572.15 223.565 563.212 232.416C561.791 233.823 554.435 240.48 553.892 241.317L553.551 241.367C552.677 239.785 545.324 233.309 543.55 231.789C519.09 210.833 481.755 190.411 449.88 185.777L449.914 197.684C449.325 194.324 449.43 189.402 449.391 185.85Z" fill="#8EECF5"/>
<path d="M845.265 199.971C851.398 188.001 857.464 175.997 863.463 163.959C865.608 159.69 870.788 148.803 873.227 145.633C866.571 164.228 855.025 183.572 846.667 201.688C844.535 205.784 842.284 209.905 840.219 214.026C815.023 264.311 783.838 308.556 748.981 352.586C736.47 367.535 723.892 382.846 709.272 395.766C706.621 398.108 702.992 401.732 700.057 403.48C701.094 401.031 712.614 390.572 715.312 387.769C726.526 376.12 736.893 363.889 747.101 351.376C772.833 318.456 796.322 287.015 817.642 250.959C827.41 234.439 836.403 217.007 845.265 199.971Z" fill="#010101"/>
<path d="M606.965 295.639C611.277 289.032 614.924 281.224 619.585 274.319C640.794 242.906 665.323 214.258 696.989 192.988C715.984 180.228 738.036 171.221 761.23 172.49C767.242 172.819 773.219 174.157 779.119 175.328C749.69 201.858 720.528 228.682 691.638 255.797C673.578 272.701 650.963 293.742 634.024 311.683C629.277 311.226 624.308 313.473 620.144 313.806C615.503 306.688 611.447 302.385 606.922 295.958L606.965 295.639Z" fill="#B9FBC0"/>
<path d="M639.137 310.217C685.472 264.206 733.138 219.553 782.072 176.316C784.991 178.097 802.476 181.873 807.563 183.87C815.753 187.084 823.848 190.138 831.997 194.12C834.174 195.184 843.011 199.271 845.264 199.973C836.402 217.009 827.409 234.441 817.641 250.961C796.321 287.017 772.832 318.458 747.1 351.378C740.549 348.983 730.626 342.529 724.259 338.865C710.259 330.808 696.441 322.996 680.909 318.143C673.309 315.557 665.746 314.126 657.837 313.051C653.055 312.401 642.615 312.914 639.137 310.217Z" fill="#B9FBC0"/>
<path d="M165.818 345.863C167.38 341.834 174.122 330.394 176.446 326.467C196.078 292.781 221.742 262.996 252.156 238.601C295.621 204.231 351.339 183.478 406.88 182.726C420.907 182.536 435.49 184.211 449.391 185.851C449.43 189.403 449.325 194.325 449.914 197.685C450.689 212.136 459.621 228.38 470.194 238.097C491.432 257.614 531.302 261.516 553.551 241.368L553.892 241.318C571.026 256.444 586.233 272.821 601.373 289.933C603.146 291.936 604.982 293.846 606.965 295.64L606.922 295.959C601.965 304.157 600.458 309.003 597.142 318.13L596.704 318.275C591.021 319.108 578.961 323.271 573.327 325.387C534.363 340.024 485.864 367.773 460.777 401.484C444.64 423.168 427.499 455.513 416.037 479.526C394.105 423.039 351.65 376.918 297.169 350.392C267.285 336.073 233.544 330.142 200.83 335.945C188.545 338.124 177.54 341.737 165.818 345.863Z" fill="#90DBF4"/>
<path d="M449.915 197.684L449.881 185.777C481.756 190.411 519.091 210.833 543.551 231.789C545.325 233.309 552.678 239.785 553.552 241.367C531.303 261.515 491.433 257.613 470.195 238.096C459.622 228.379 450.69 212.135 449.915 197.684Z" fill="#98F5E1"/>
<path d="M748.98 352.586C783.837 308.556 815.023 264.31 840.219 214.025C842.284 209.904 844.535 205.784 846.667 201.688C853.719 203.219 856.237 206.321 861.725 208.348C846.269 244.382 825.539 276.895 803.997 309.462C791.657 328.119 778.981 345.781 765.165 363.389C759.491 360.839 754.155 356.224 748.98 352.586Z" fill="#B9FBC0"/>
<path d="M767.062 365.028C779.248 349.46 791.056 333.365 802.096 316.959C825.265 282.524 847.693 247.349 864.129 209.098C866.414 210.663 871.224 212.53 873.927 213.779C878.649 215.951 883.263 218.352 887.752 220.972C929.293 244.903 979.974 284.334 979.517 338.39C979.282 366.232 966.807 407.523 954.46 432.682C951.07 439.566 947.525 446.373 943.831 453.098C941.899 456.576 937.523 463.63 936.403 466.919C910.44 438.237 877.687 410.108 842.125 393.525C836.287 390.802 825.137 385.593 818.87 387.615C816.348 389.927 817.891 391.379 819.76 393.675C814.548 391.731 800.753 383.8 795.309 380.855C789.036 377.462 771.688 369.07 767.062 365.028Z" fill="#B9FBC0"/>
<path d="M597.143 318.132C600.459 309.005 601.966 304.159 606.923 295.961C611.448 302.388 615.504 306.691 620.145 313.809C612.515 315.477 604.905 317.178 597.143 318.132Z" fill="#AAECBA"/>
<path d="M588.855 360.969C605.394 344.727 623.238 327.023 639.136 310.215C642.614 312.912 653.054 312.399 657.836 313.049C665.745 314.124 673.308 315.555 680.908 318.141C696.44 322.994 710.258 330.806 724.258 338.863C730.625 342.527 740.548 348.981 747.099 351.376C736.891 363.889 726.524 376.12 715.31 387.769C712.612 390.572 701.092 401.031 700.055 403.48C702.99 401.732 706.619 398.108 709.27 395.766C723.89 382.846 736.468 367.535 748.979 352.586C754.154 356.224 759.49 360.84 765.164 363.39C728.699 410.06 689.908 454.865 648.939 497.636C646.891 494.269 636.348 484.858 633.02 482.028C638.789 475.188 644.645 468.424 650.587 461.735C653.152 458.89 670.076 441.661 670.921 439.719C660.902 446.145 641.235 469.641 632.941 478.845C630.219 474.119 624.509 468.55 621.329 463.689C603.518 436.468 593.61 406.073 590.935 373.709C590.74 371.343 590.223 362.534 588.855 360.969Z" fill="#FDE4CF"/>
<path d="M620.143 313.805C624.307 313.472 629.276 311.225 634.023 311.682C622.081 324.927 602.742 343.928 589.455 356.661C589.274 350.68 595.209 325.34 596.703 318.273L597.141 318.128C604.903 317.174 612.513 315.473 620.143 313.805Z" fill="#FDE4CF"/>
<path d="M416.037 479.524C427.499 455.511 444.64 423.166 460.777 401.482C485.864 367.771 534.363 340.022 573.327 325.385C578.961 323.269 591.021 319.106 596.704 318.273C595.21 325.34 589.275 350.68 589.456 356.661L486.948 458.804C468.074 477.662 444.996 501.848 425.114 518.96C423.834 517.464 423.633 506.752 422.591 502.825C420.748 495.88 419.159 487.801 416.197 481.164L416.037 479.524Z" fill="#F1C0E8"/>
<path d="M165.819 345.862C177.541 341.736 188.546 338.123 200.831 335.944C233.545 330.141 267.286 336.072 297.17 350.391C351.651 376.917 394.106 423.038 416.038 479.525L416.198 481.165C410.83 489.513 394.983 534.716 398.237 542.966C352.756 584.361 308.404 626.98 265.23 670.776C254.427 681.879 238.658 696.939 228.868 708.278C221.439 699.125 211.564 689.891 203.695 680.402C178.324 649.797 158.816 614.774 146.15 577.092C126.189 518.837 125.399 455.723 143.895 396.986C149.905 378.474 156.912 363.929 165.361 346.629L165.819 345.862Z" fill="#98F5E1"/>
<path d="M197.876 743.758C98.2371 679.06 -25.8127 579.311 49.9927 447.051C71.4224 409.662 104.04 377.764 141.721 356.902C148.18 353.326 158.356 348.508 165.361 346.629C156.912 363.929 149.905 378.474 143.895 396.986C125.399 455.723 126.189 518.837 146.15 577.092C158.816 614.774 178.324 649.797 203.695 680.402C211.564 689.891 221.439 699.125 228.868 708.278C219.107 719.304 206.919 732.495 197.876 743.758Z" fill="#8EECF5"/>
<path d="M487.657 461.573L550.807 398.689C563.665 385.84 575.618 373.578 588.856 360.969C590.224 362.534 590.741 371.343 590.936 373.709C593.611 406.073 603.519 436.468 621.33 463.689C624.51 468.55 630.22 474.119 632.942 478.845C623.83 489.551 608.77 507.806 602.728 520.608C606.856 516.377 610.516 510.331 614.21 505.568C620.109 497.96 626.55 489.12 633.021 482.028C636.349 484.858 646.892 494.269 648.94 497.636C637.359 509.813 625.558 521.71 613.664 533.578C609.338 537.895 603.959 544.656 599.828 548.446L593.018 545.584C594.807 543.646 595.016 544.009 595.543 541.796L594.924 540.988C592.079 540.953 591.513 542.499 589.95 544.65C589.267 543.794 586.616 540.452 585.884 540.119C582.736 538.689 580.332 538.854 577.513 535.975L577.602 535.201C577.781 533.548 578.142 532.369 577.335 530.987C574.338 529.474 571.228 532.767 568.316 534.43L568.036 533.85C567.33 532.408 567.103 531.615 565.854 530.616L564.846 530.723C564.297 532.217 564.002 539.833 564.516 541.733L565.197 542.172C567.414 540.915 567.723 538.096 571.171 535.652C574.875 537.134 576.458 537.945 579.894 540.059C579.136 541.885 578.311 543.254 578.654 545.162C579.266 545.824 579.335 545.979 580.058 546.502C579.567 548.982 580.494 548.967 580.985 551.745L580.567 552.193C577.285 555.773 573.778 560.551 570.861 564.476C543.088 601.839 506.547 629.847 465.552 651.33C460.016 654.232 449.979 661.604 444.659 662.664L442.713 661.979C459.392 637.088 475.162 611.599 489.989 585.563L506.79 555.074C509.457 550.229 512.099 545.254 514.929 540.492C520.31 531.438 536.292 524.106 539.615 515.043C535.411 505.259 521.531 494.203 513.774 486.461C505.763 478.464 496.468 468.376 487.657 461.573ZM541.591 525.908C539.574 530.895 533.769 526.272 534.32 537.956C539.529 536.064 544.253 533.808 549.302 531.582C549.404 531.537 551.325 531.944 551.594 532.011C551.57 533.193 551.594 532.918 551.902 534.103C554.597 535.812 557.06 531.003 558.336 528.966C560.286 530.177 561.72 531.53 563.733 531.623L564.288 530.766C563.555 528.653 563.106 529.398 560.881 527.506C561.534 526.969 562.196 526.444 562.868 525.93L562.75 525.053L561.76 524.444C559.51 524.828 559.722 525.178 557.653 526.815C554.778 525.174 552.504 523.94 549.52 522.52C551.417 521.221 551.69 521.479 552.525 519.713L552.116 518.85C548.289 517.804 543.202 522.774 541.591 525.908Z" fill="url(#paint0_linear_2243_35398)"/>
<path d="M650.332 499.716C691.432 456.765 730.39 411.814 767.062 365.027C771.688 369.069 789.035 377.461 795.308 380.854C800.752 383.799 814.548 391.73 819.76 393.674C824.993 395.802 831.044 398.849 836.046 401.54C863.631 424.213 884.885 446.543 903.608 477.29C907.761 484.111 910.84 490.956 914.501 497.152L914.454 497.437C907.006 505.36 899.476 514.038 891.22 521.073C830.949 572.434 742.388 561.181 679.271 521.404C668.584 514.668 660.293 506.446 650.332 499.716Z" fill="#FDE4CF"/>
<path d="M819.761 393.675C817.892 391.379 816.349 389.927 818.871 387.615C825.138 385.593 836.288 390.802 842.126 393.525C877.688 410.108 910.44 438.237 936.403 466.919C987.322 524.247 992.41 565.657 974.346 639.012C960.509 695.2 938.514 737.528 898.711 780.229C892.371 787.03 886.585 793.338 879.532 799.595C818.729 854.198 738.568 882.138 656.998 877.158C630.314 875.511 604.13 870.951 578.824 862.213C569.032 858.943 559.781 853.963 550.033 850.69C545.638 849.215 540.096 848.733 535.516 847.818C503.112 841.347 471.795 829.129 443.831 811.452C430.359 802.935 417.382 791.585 405.322 781.186C400.882 777.333 394.539 768.6 390.266 765.833C391.76 764.454 393.528 764.084 395.436 763.56C398.263 765.343 405.468 772.684 408.308 775.463C412.642 779.733 417.147 783.826 421.811 787.733C448.934 810.353 494.36 835.368 529.687 839.969C474.876 814.848 428.929 773.758 397.865 722.082C406.237 713.036 414.969 701.194 422.249 691.187C428.939 681.99 436.658 671.528 442.713 661.98L444.659 662.665C449.979 661.605 460.016 654.233 465.552 651.331C506.547 629.848 543.088 601.84 570.861 564.477C573.778 560.552 577.285 555.774 580.567 552.194L580.985 551.746C582.693 550.324 583.125 550.296 585.298 550.06C584.128 552.084 584.031 552.438 584.812 554.501C588.171 555.793 590.236 549.056 591.065 546.829C594.247 548.447 597.747 549.836 601.055 551.22C604.578 547.39 607.846 543.122 611.564 539.328C624.49 526.137 637.436 512.935 650.333 499.717C660.294 506.447 668.585 514.669 679.272 521.405C742.389 561.182 830.95 572.435 891.221 521.074C899.477 514.039 907.007 505.361 914.455 497.438C924.428 517.149 931.361 543.635 931.193 565.412C930.674 632.474 879.958 713.833 833.8 759.333C780.439 811.934 699.062 846.092 624.856 852.391C608.618 853.769 590.594 853.554 574.176 853.441C590.198 861.559 624.352 866.99 642.208 869.058C789.615 886.135 936.875 781.169 967.707 635.804C971.379 618.491 974.103 605.784 976.087 587.688C980.173 550.421 965.761 518.316 945.367 487.981C942.2 483.296 936.149 477.786 932.28 473.115C911.598 449.44 869.497 415.711 840.472 401.807C838.705 400.961 837.686 400.801 836.047 401.541C831.045 398.85 824.994 395.803 819.761 393.675Z" fill="#F1C0E8"/>
<path d="M836.047 401.543C837.686 400.803 838.705 400.963 840.472 401.809C869.497 415.713 911.598 449.442 932.28 473.117C928.497 478.616 918.706 493.302 914.502 497.155C910.841 490.959 907.762 484.114 903.609 477.293C884.886 446.546 863.632 424.216 836.047 401.543Z" fill="#B9FBC0"/>
<path d="M632.943 478.845C641.237 469.641 660.903 446.145 670.922 439.719C670.077 441.661 653.154 458.89 650.589 461.735C644.647 468.424 638.79 475.188 633.021 482.028C626.55 489.12 620.11 497.96 614.211 505.568C610.517 510.331 606.857 516.377 602.729 520.608C608.771 507.806 623.831 489.551 632.943 478.845Z" fill="#010101"/>
<path d="M465.818 483.461C471.879 477.155 478.1 471.005 484.474 465.016C487.69 469.339 496.484 476.775 500.561 481.044C511.591 492.592 524.368 503.972 535.132 515.615C532.781 518.36 521.353 530.012 518.606 532.024L517.992 531.569C501.83 520.161 479.466 498.299 465.818 483.461Z" fill="#CFBAF0"/>
<path d="M932.28 473.113C936.149 477.784 942.2 483.294 945.367 487.979C965.761 518.314 980.173 550.419 976.087 587.686C974.103 605.782 971.379 618.489 967.707 635.802C936.875 781.167 789.615 886.133 642.208 869.056C624.352 866.988 590.198 861.557 574.176 853.439C590.594 853.552 608.618 853.767 624.856 852.389C699.062 846.09 780.439 811.932 833.8 759.331C879.958 713.831 930.674 632.472 931.193 565.41C931.361 543.633 924.428 517.147 914.455 497.436L914.502 497.151C918.706 493.298 928.497 478.612 932.28 473.113Z" fill="#FFEDE1"/>
<path d="M416.198 481.164C419.16 487.801 420.749 495.88 422.592 502.825C423.634 506.752 423.835 517.464 425.115 518.96C416.249 527.065 407.289 535.068 398.237 542.965C394.983 534.715 410.83 489.512 416.198 481.164Z" fill="#90DBF4"/>
<path d="M456.223 492.86L463.986 485.297C465.621 486.034 470.303 491.476 471.929 493.149C486.798 508.448 499.417 521.506 517.23 533.424C515.432 535.28 512.636 539.697 511.16 540.432C488.049 526.176 474.334 512.229 456.223 492.86Z" fill="url(#paint1_linear_2243_35398)"/>
<path d="M450.18 499.038L454.533 494.41C456.466 495.795 465.97 507.105 468.736 509.804C481.016 521.792 496.091 534.18 510.944 542.732C510.097 544.458 509.39 546.42 507.897 547.536C491.068 542.921 481.089 531.894 469.383 519.657C462.982 512.965 456.126 506.108 450.18 499.038Z" fill="#90DBF4"/>
<path d="M396.023 548.197C413.676 532.547 431.131 516.674 448.384 500.582C461.556 515.685 483.136 539.879 501.067 547.889C490.259 563.863 481.47 579.736 471.965 596.457L441.624 649.241C437.245 656.747 423.167 676.718 420.666 682.92C419.249 684.212 412.437 694.762 410.696 697.298C406.361 703.58 401.871 709.752 397.229 715.81L393.71 711.924C396.685 709.337 416.588 678.199 419.865 672.49C421.72 669.259 422.654 661.247 421.07 656.878C435.739 634.022 454.007 602.389 463.848 577.381C478.365 540.489 424.431 550.212 416.376 579.197C414.886 582.886 416.143 583.614 415.554 586.398L414.963 586.843C414.205 587.426 414.482 587.161 413.953 587.775L413.329 588.157C409.883 590.233 404.687 592.139 401.322 594.289C387.33 603.226 372.518 612.811 359.52 623.053C358.378 616.842 359.662 609.143 358.355 604.083C382.158 580.349 401.493 553.339 433.447 538.933C461.67 526.21 470.191 539.744 480.231 563.273C478.938 556.082 476.637 548.352 472.002 542.625C450.926 516.581 415.702 546.199 398.368 560.156L397.198 560.254C395.997 561.219 396.012 561.215 394.601 561.826C392.955 561.112 393.412 561.175 392.308 559.208L393.533 557.899L393.421 557.029L393.869 556.483C396.756 552.897 396.537 552.783 396.023 548.197Z" fill="#90DBF4"/>
<path d="M541.592 525.911C543.203 522.777 548.29 517.807 552.117 518.853L552.526 519.716C551.691 521.482 551.418 521.224 549.521 522.523C552.505 523.943 554.779 525.177 557.654 526.818C559.723 525.181 559.511 524.831 561.761 524.447L562.751 525.056L562.869 525.933C562.197 526.447 561.535 526.972 560.882 527.509C563.107 529.401 563.556 528.656 564.289 530.769L563.734 531.626C561.721 531.533 560.287 530.18 558.337 528.969C557.061 531.006 554.598 535.815 551.903 534.106C551.595 532.921 551.571 533.196 551.595 532.014C553.28 530.342 553.854 529.99 553.381 527.576C551.999 525.602 550.316 524.894 548.207 523.657C545.502 525.379 544.505 526.496 541.592 525.911Z" fill="#010101"/>
<path d="M534.32 537.958C533.769 526.274 539.574 530.897 541.591 525.91C544.504 526.495 545.501 525.378 548.206 523.656C550.315 524.893 551.998 525.601 553.38 527.575C553.853 529.989 553.279 530.341 551.594 532.013C551.325 531.946 549.404 531.539 549.302 531.584C544.253 533.81 539.529 536.066 534.32 537.958Z" fill="#CFBAF0"/>
<path d="M398.368 560.156C415.702 546.199 450.926 516.581 472.002 542.625C476.637 548.352 478.938 556.082 480.231 563.273C470.191 539.744 461.67 526.21 433.447 538.933C401.493 553.339 382.158 580.349 358.355 604.083C334.345 629.309 310.929 656.642 287.374 682.38C275.518 695.336 263.629 710.775 251.542 723.242C243.522 732.594 233.662 744.845 225.478 753.706C222.482 757.008 218.499 761.664 215.225 764.496C216.226 762.36 221.666 756.098 223.429 754.056C232.476 743.793 243.798 729.835 252.521 719.151C256.217 715.545 261.607 709.054 265.149 704.955C272.964 695.803 280.864 686.725 288.849 677.721L338.613 623.02C351.308 608.955 363.75 594.623 376.932 580.999C383.845 573.855 391.257 567.112 398.368 560.156Z" fill="#010101"/>
<path d="M580.057 546.501C582.289 544.899 582.787 544.494 584.602 542.445L588.615 546.269C587.755 547.371 586.359 549.408 585.297 550.058C583.124 550.294 582.692 550.322 580.984 551.744C580.493 548.966 579.566 548.981 580.057 546.501Z" fill="#CFBAF0"/>
<path d="M231.463 709.037C233.401 706.832 235.576 704.635 237.623 702.513C258.843 680.515 280.195 658.539 301.997 637.138C320.664 618.833 339.546 600.749 358.638 582.888C370.634 571.572 383.689 558.972 396.023 548.195C396.537 552.781 396.756 552.895 393.869 556.481L393.421 557.027L393.533 557.897L392.308 559.206C393.412 561.173 392.955 561.11 394.601 561.824C396.012 561.213 395.997 561.217 397.198 560.252L398.368 560.154C391.257 567.11 383.845 573.853 376.932 580.997C363.75 594.621 351.308 608.953 338.613 623.018L288.849 677.719C280.864 686.723 272.964 695.801 265.149 704.953C261.607 709.052 256.217 715.543 252.521 719.149C249.966 718.177 243.065 718.331 239.953 718.233C243.622 713.688 251.873 705.664 256.119 701.346C263.925 693.429 271.613 685.398 279.18 677.253C312.465 641.868 344.739 605.593 379.272 571.481C383.312 567.491 389.366 561.757 392.494 557.117C388.57 559.676 380.444 568.036 376.739 571.723C337.998 610.278 301.604 651.175 263.734 690.594C255.756 698.899 246.792 707.353 239.263 715.925C236.217 713.612 234.238 711.696 231.463 709.037Z" fill="#98F5E1"/>
<path d="M428.732 672.303C434.653 663.01 440.788 653.959 446.417 644.471C463.442 615.776 479.39 586.401 496.798 557.958C498.263 555.565 500.951 550.911 502.848 549.08C504.142 548.83 505.463 549.46 506.778 549.891C506.574 551.902 503.693 556.607 502.571 558.603C480.373 598.132 457.116 638.548 430.907 675.575L428.732 672.303Z" fill="#90DBF4"/>
<path d="M239.263 715.928C246.792 707.356 255.756 698.902 263.734 690.597C301.604 651.178 337.998 610.281 376.739 571.726C380.444 568.039 388.57 559.679 392.494 557.12C389.366 561.76 383.312 567.494 379.272 571.484C344.739 605.596 312.465 641.871 279.18 677.256C271.613 685.401 263.925 693.432 256.119 701.349C251.873 705.667 243.622 713.691 239.953 718.236C230.766 727.989 221.852 737.994 213.22 748.24L186.129 780.248C172.743 796.147 152.293 818.655 151.581 840.864C151.324 848.89 153.376 855.695 157.139 862.8C168.479 884.208 188.705 890.402 211.633 890.527C210.922 881.648 209.974 869.391 214.656 861.028C233.087 829.917 271.613 811.688 300.695 791.847C337.319 766.859 365.743 738.766 389.902 701.462C400.887 684.808 411.724 668.056 422.413 651.211C432.727 634.558 461.816 586.493 463.831 568.823C464.214 565.457 463.701 561.871 461.439 559.22C459.38 556.806 456.259 555.627 453.153 555.396C443.205 554.656 434.109 560.123 426.778 566.186C421.3 571.3 420.684 573.36 416.376 579.198C424.431 550.213 478.365 540.49 463.848 577.382C454.007 602.39 435.739 634.023 421.07 656.879C410.085 673.828 399.877 690.354 388.402 707.052C367.222 737.82 345.546 759.797 316.57 783.009C289.635 804.586 231.731 831.829 217.173 861.131C212.931 869.67 212.361 879.887 214.108 889.159C214.323 890.288 214.559 891.414 214.814 892.535C204.41 892.773 197.717 892.931 187.461 889.99C165.743 883.761 149.908 865.363 149.361 842.351C148.904 823.1 162.631 805.899 174.048 791.644C186.363 776.108 199.479 761.472 211.883 746.071L239.263 715.928Z" fill="#010101"/>
<path d="M426.779 566.186C434.11 560.123 443.206 554.656 453.154 555.396C456.26 555.627 459.381 556.806 461.44 559.22C463.702 561.871 464.215 565.457 463.832 568.823C461.817 586.493 432.728 634.558 422.414 651.211C418.944 643.604 422.648 620.284 420.518 610.536C423.48 602.708 424.198 598.963 423.714 590.619C425.641 586.231 426.652 571.415 426.779 566.186Z" fill="#90DBF4"/>
<path d="M416.376 579.196C420.684 573.358 421.3 571.298 426.778 566.184C426.651 571.413 425.64 586.229 423.713 590.617C421.661 584.871 418.647 586.496 413.953 587.774C414.482 587.16 414.205 587.425 414.963 586.842L415.554 586.397C416.143 583.613 414.886 582.885 416.376 579.196Z" fill="#A3C4F3"/>
<path d="M413.952 587.772C418.646 586.494 421.66 584.869 423.712 590.615C424.196 598.959 423.478 602.704 420.516 610.532C414.757 622.34 408.099 633.606 401.944 645.223C394.869 658.576 388.3 672.377 380.773 685.462C347.5 738.009 307.16 770.696 252.349 798.656C242.456 803.702 229.491 813.585 219.078 816.185C188.181 809.116 232.297 772.263 240.902 762.852C250.083 753.36 263.154 738.756 271.481 728.609C273.441 727.056 284.284 713.556 286.24 711.097C311.343 679.527 326.801 648.448 359.519 623.05C372.517 612.808 387.329 603.223 401.321 594.286C404.686 592.136 409.882 590.23 413.328 588.154L413.952 587.772ZM358.889 625.585C328.53 648.815 311.977 682.197 288.158 711.052C282.516 717.885 276.765 724.658 271.076 731.452C260.337 743.539 249.489 755.577 238.613 767.522C230.182 776.681 220.481 784.631 213.613 795.068C206.495 805.884 211.451 820.103 225.217 811.904C249.712 797.314 275.64 784.326 299.467 768.739C308.815 762.624 318.822 754.529 327.121 747.273C344.692 732.345 369.094 703.961 379.952 683.691C387.282 672.429 392.961 659.456 399.276 647.564C405.635 635.588 417.31 616.453 421.271 604.319C422.472 600.64 423.796 593.174 421.486 589.9C421.028 589.25 420.43 588.746 419.638 588.642C411.13 587.533 367.458 618.885 358.889 625.585Z" fill="#010101"/>
<path d="M358.891 625.589C367.46 618.889 411.132 587.537 419.64 588.646C420.432 588.75 421.03 589.254 421.488 589.904C423.798 593.178 422.474 600.644 421.273 604.323C417.312 616.457 405.637 635.592 399.278 647.568C392.963 659.46 387.284 672.433 379.954 683.695C373.517 667.812 366.538 652.241 361.941 635.671C361.247 633.173 360.223 627.059 358.891 625.589Z" fill="#A3C4F3"/>
<path d="M251.543 723.241C263.63 710.774 275.519 695.335 287.375 682.379C310.93 656.641 334.346 629.308 358.356 604.082C359.663 609.142 358.379 616.841 359.521 623.052C326.803 648.45 311.345 679.529 286.242 711.099C284.286 713.558 273.443 727.058 271.483 728.611C267.322 724.18 258.787 727.873 251.543 723.241Z" fill="#8EECF5"/>
<path d="M380.773 685.465C388.3 672.38 394.869 658.579 401.944 645.226C408.099 633.609 414.757 622.343 420.516 610.535C422.646 620.283 418.942 643.603 422.412 651.21C411.723 668.055 400.886 684.807 389.901 701.461C387.929 697.214 384.179 688.391 380.773 685.465Z" fill="#A3C4F3"/>
<path d="M271.076 731.453C276.765 724.659 282.516 717.886 288.158 711.053C311.977 682.198 328.53 648.816 358.889 625.586C360.221 627.056 361.245 633.17 361.939 635.668C366.536 652.238 373.515 667.809 379.952 683.692C369.094 703.962 344.692 732.346 327.121 747.274C324.799 745.626 309.128 742.626 304.996 742.052C293.348 740.434 281.974 733.381 271.076 731.453Z" fill="#8EECF5"/>
<path d="M388.402 707.052C399.877 690.354 410.085 673.828 421.07 656.879C422.654 661.248 421.72 669.26 419.865 672.491C416.588 678.2 396.685 709.338 393.71 711.925C391.611 710.207 390.292 708.933 388.402 707.052Z" fill="#A3C4F3"/>
<path d="M420.665 682.921C423.337 679.998 426.346 675.592 428.731 672.305L430.906 675.577C422.644 688.016 401.881 716.724 391.533 727.169C393.527 723.072 399.135 715.841 402.022 711.829C406.707 705.273 411.249 698.615 415.644 691.86C416.865 689.97 420.111 684.917 420.665 682.921Z" fill="url(#paint2_linear_2243_35398)"/>
<path d="M219.078 816.188C229.491 813.588 242.456 803.705 252.349 798.659C307.16 770.699 347.5 738.012 380.773 685.465C384.179 688.391 387.929 697.214 389.901 701.461C365.742 738.765 337.318 766.858 300.694 791.846C271.612 811.687 233.086 829.916 214.655 861.027C209.973 869.39 210.921 881.647 211.632 890.526C188.704 890.401 168.478 884.207 157.138 862.799C153.375 855.694 151.323 848.889 151.58 840.863C152.292 818.654 172.742 796.146 186.128 780.247L213.219 748.239C216.052 749.469 221.981 751.641 223.428 754.056C221.665 756.098 216.225 762.36 215.224 764.496C218.498 761.664 222.481 757.008 225.477 753.706C230.438 757.618 235.04 757.163 240.902 762.855C232.297 772.266 188.181 809.119 219.078 816.188ZM183.341 836.095C175.408 836.612 169.401 843.47 169.933 851.401C170.466 859.333 177.336 865.326 185.267 864.778C193.175 864.231 199.147 857.385 198.616 849.475C198.085 841.566 191.251 835.58 183.341 836.095Z" fill="url(#paint3_linear_2243_35398)"/>
<path d="M214.814 892.534C214.559 891.413 214.323 890.287 214.108 889.158C212.361 879.886 212.931 869.669 217.173 861.13C231.731 831.828 289.635 804.585 316.57 783.008C345.546 759.796 367.222 737.819 388.402 707.051C390.292 708.932 391.611 710.206 393.71 711.924L397.229 715.81C382.92 736.171 365.959 752.549 348.847 770.185C343.019 770.939 334.263 780.744 329.259 782.721C314.699 788.473 306.228 793.609 293.844 802.8C277.66 814.811 263.522 827.041 251.033 843.135C249.82 844.634 246.582 848.695 246.118 850.397C234.958 860.092 225.698 869.025 221.429 883.661C218.355 894.199 215.577 903.446 202.624 904.387C172.675 906.561 140.048 877.159 137.551 847.606C135.198 819.756 161.397 791.423 177.766 771.132C185.294 761.905 193.481 752.634 201.165 743.595C203.826 743.991 210.24 744.518 211.883 746.07C199.479 761.471 186.363 776.107 174.048 791.643C162.631 805.898 148.904 823.099 149.361 842.35C149.908 865.362 165.743 883.76 187.461 889.989C197.717 892.93 204.41 892.772 214.814 892.534Z" fill="url(#paint4_linear_2243_35398)"/>
<path d="M201.164 743.595C210.374 732.169 221.546 719.903 231.462 709.039C234.237 711.698 236.216 713.614 239.262 715.927L211.882 746.07C210.239 744.518 203.825 743.991 201.164 743.595Z" fill="#8EECF5"/>
<path d="M213.221 748.238C221.853 737.992 230.767 727.987 239.954 718.234C243.066 718.332 249.967 718.178 252.522 719.15C243.799 729.834 232.477 743.792 223.43 754.055C221.983 751.64 216.054 749.468 213.221 748.238Z" fill="#F5FCFC"/>
<path d="M391.889 728.867L397.865 722.082C428.929 773.758 474.876 814.848 529.687 839.969C494.36 835.368 448.934 810.353 421.811 787.733C417.147 783.826 412.642 779.733 408.308 775.463C405.468 772.684 398.263 765.343 395.436 763.56L395.73 763.298C396.097 761.513 392.453 732.672 391.889 728.867Z" fill="#FFEDE1"/>
<path d="M225.479 753.706C233.663 744.845 243.523 732.594 251.543 723.242C258.787 727.874 267.322 724.181 271.483 728.612C263.156 738.759 250.085 753.363 240.904 762.855C235.042 757.163 230.44 757.618 225.479 753.706Z" fill="#F5FCFC"/>
<path d="M361.234 761.424C371.569 750.682 381.788 739.829 391.889 728.867C392.453 732.672 396.097 761.513 395.73 763.298L395.436 763.56C393.528 764.084 391.76 764.454 390.266 765.833C381.057 770.435 369.756 764.952 361.234 761.424Z" fill="#8EECF5"/>
<path d="M271.076 731.453C281.974 733.381 293.348 740.434 304.996 742.052C309.128 742.626 324.799 745.626 327.121 747.274C318.822 754.53 308.815 762.625 299.467 768.74C275.64 784.327 249.712 797.315 225.217 811.905C211.451 820.104 206.495 805.885 213.613 795.069C220.481 784.632 230.182 776.682 238.613 767.523C249.489 755.578 260.337 743.54 271.076 731.453Z" fill="#F5FCFC"/>
<path d="M246.117 850.396C246.581 848.694 249.819 844.633 251.032 843.134C263.521 827.04 277.659 814.81 293.843 802.799C306.227 793.608 314.698 788.472 329.258 782.72C334.262 780.743 343.018 770.938 348.846 770.184C334.953 783.721 320.863 796.995 305.601 809.004C288.886 822.156 270.818 833.342 253.354 845.428C251.053 847.02 248.501 849.02 246.117 850.396Z" fill="#FEE283"/>
<path d="M245.271 854.39C253.843 846.476 276.592 832.137 286.908 825.076C305.435 812.395 318.164 801.887 335.095 786.883C336.638 788.897 338.989 789.828 341.074 791.199C369.768 810.066 380.187 849.28 362.169 879.297C353.038 894.269 338.351 905.018 321.318 909.193C288.403 917.289 257.399 900.205 246.895 867.87C245.681 864.134 246.013 858.377 245.271 854.39Z" fill="#FEE283"/>
<path d="M185.267 864.776C177.336 865.324 170.466 859.331 169.933 851.399C169.401 843.468 175.408 836.61 183.341 836.093C191.251 835.578 198.085 841.564 198.616 849.473C199.147 857.383 193.175 864.229 185.267 864.776ZM181.686 838.663C175.207 840.103 171.109 846.505 172.513 852.992C173.917 859.478 180.296 863.613 186.79 862.245C193.336 860.867 197.511 854.426 196.096 847.888C194.681 841.349 188.216 837.211 181.686 838.663Z" fill="#010101"/>
<path d="M186.791 862.247C180.297 863.615 173.918 859.48 172.514 852.994C171.11 846.507 175.208 840.105 181.687 838.665C188.217 837.213 194.682 841.351 196.097 847.89C197.512 854.428 193.337 860.869 186.791 862.247Z" fill="#F5FCFC"/>
<defs>
<linearGradient id="paint0_linear_2243_35398" x1="632.354" y1="398.172" x2="432.223" y2="651.292" gradientUnits="userSpaceOnUse">
<stop stop-color="#FCBAE6"/>
<stop offset="1" stop-color="#BDEEFB"/>
</linearGradient>
<linearGradient id="paint1_linear_2243_35398" x1="464.975" y1="485.732" x2="508.483" y2="540.981" gradientUnits="userSpaceOnUse">
<stop stop-color="#E7C7F5"/>
<stop offset="1" stop-color="#B6E5FF"/>
</linearGradient>
<linearGradient id="paint2_linear_2243_35398" x1="408.85" y1="696.606" x2="415.241" y2="700.234" gradientUnits="userSpaceOnUse">
<stop stop-color="#D2D8DC"/>
<stop offset="1" stop-color="#F1C8F2"/>
</linearGradient>
<linearGradient id="paint3_linear_2243_35398" x1="401.898" y1="728.618" x2="151.1" y2="848.331" gradientUnits="userSpaceOnUse">
<stop stop-color="#D6FAFD"/>
<stop offset="1" stop-color="white"/>
</linearGradient>
<linearGradient id="paint4_linear_2243_35398" x1="395.358" y1="716.024" x2="140.254" y2="859.807" gradientUnits="userSpaceOnUse">
<stop stop-color="#D6F8FA"/>
<stop offset="1" stop-color="#FFFFFB"/>
</linearGradient>
</defs>
</svg>
