<svg width="1024" height="1024" viewBox="0 0 1024 1024" fill="none" xmlns="http://www.w3.org/2000/svg">
<path d="M634.586 61.9718C631.477 61.4874 628.144 60.8605 625.022 60.7358C624.388 61.4578 624.548 61.0771 624.393 61.8036L624.109 61.2013C624.839 56.75 626.994 47.9484 632.472 47.0156C634.89 48.5453 632.587 53.1346 632.991 55.9475C633.296 58.0766 633.948 59.9478 634.586 61.9718Z" fill="#FEFEFC"/>
<path d="M689.67 130.319C677.728 134.794 666.899 138.859 655.741 145.142C636.72 155.852 621.135 169.154 604.645 183.191C587.361 197.903 569.925 212.869 551.399 225.964C541.555 232.921 532.75 238.539 522.004 244.038C519.266 245.439 506.831 250.435 505.362 251.548C501.757 251.784 498.325 252.031 494.712 252.05C493.658 246.551 490.695 235.508 488.892 230.237C477.434 196.749 460.213 162.782 430.198 142.329C423.118 137.506 417.654 135.027 410.119 131.234C421.218 116.745 440.793 100.137 456.444 90.7221C493.714 68.3011 537.189 56.5611 580.638 56.5742C594.509 56.5784 607.616 57.9451 621.376 59.7658L621.381 60.1944C621.884 84.4345 671.6 112.801 689.67 130.319Z" fill="#FBF8CC"/>
<path d="M624.395 61.8061C624.55 61.0796 624.39 61.4603 625.024 60.7383C628.146 60.863 631.479 61.4899 634.588 61.9743L635.24 62.674C637.034 64.6291 639.154 68.1999 640.975 69.773C662.002 87.9353 684.499 104.398 708.326 118.708C710.422 119.967 713.384 121.756 715.163 123.351C708.311 125.196 700.164 127.592 693.312 128.867C687.701 124.489 682.244 120.014 676.527 115.491C661.755 103.805 644.193 91.4627 632.006 77.1255C628.09 72.5187 625.95 67.5023 624.395 61.8061Z" fill="#FBF8CC"/>
<path d="M675.767 66.8614C672.837 65.6416 666.38 64.1846 664.865 61.7378L665.348 60.3906C668.94 60.4336 673.502 61.6472 676.061 64.279C676.538 65.9644 676.567 65.1271 675.767 66.8614Z" fill="#FEFEFC"/>
<path d="M758.435 119.924C747.242 119.41 737.891 119.877 726.764 121.497C724.293 121.857 720.754 121.984 718.564 122.452C715.233 120.963 707.263 115.773 703.95 113.712C684.071 101.342 652.995 80.4556 638.197 63.043C676.676 73.3876 713.64 92.6103 748.012 112.427C751.068 114.189 756.925 116.821 758.435 119.924Z" fill="#FBF8CC"/>
<path d="M247.479 556.153C239.32 550.158 230.795 542.034 222.85 535.51C167.688 490.21 120.075 436.869 93.9277 369.526C71.3313 311.33 62.6907 255.064 80.4815 194.127C104.874 110.577 188.425 52.4094 274.712 82.6199C292.87 88.986 310.227 97.7511 328.211 104.766C349.342 113.009 370.807 119.116 392.859 124.336C398.379 125.67 404.406 129.644 410.12 131.235C417.655 135.028 423.119 137.507 430.199 142.33C460.214 162.783 477.435 196.75 488.893 230.238C490.696 235.509 493.659 246.552 494.713 252.051C436.891 254.707 378.589 258.854 322.971 276.15C308.108 280.772 292.265 286.157 280.373 297.182C277.522 299.825 273.35 310.764 274.075 310.332C268.982 313.363 269.09 322.203 269.403 327.322L269.388 327.281C261.69 337.382 251.58 344.611 246.923 356.865C245.284 361.176 245.965 365.441 244.258 369.591C233.911 394.739 245.89 404.919 265.265 416.592C271.058 429.432 279.241 448.025 283.07 461.502C287.072 475.59 288.975 495.098 290.647 509.691C293.896 538.051 295.468 567 298.504 595.359C295.6 594.983 264.013 566.723 258.02 563.4C255.395 561.945 250.921 557.154 247.479 556.153Z" fill="#FFEDE1"/>
<path d="M718.564 122.451C720.754 121.983 724.293 121.856 726.764 121.496C737.891 119.876 747.242 119.409 758.435 119.923C763.928 119.11 771.377 119.868 776.894 120.82C780.827 122.581 797.333 140.557 798.788 144.317C790.58 137.914 774.813 127.556 765.347 123.334C762.93 122.187 758.942 120.037 756.397 121.665L756.295 122.575C757.899 124.447 761.8 124.769 763.953 123.851C795.597 143.749 812.187 156.063 834.726 188.032C837.181 191.515 843.999 201.079 845.304 204.612C843.339 203.225 836.213 193.306 833.928 190.715C822.966 178.282 808.604 171.385 794.37 163.52C782.793 157.122 771.053 151.09 759.324 144.957C745.809 137.891 731.288 130.851 718.564 122.451Z" fill="#8EECF5"/>
<path d="M776.895 120.82C780.025 120.676 781.127 120.839 784.106 121.687L783.949 122.7C794.068 136.188 809.211 150.298 819.358 163.937C815.266 162.185 805.905 148.201 802.674 146.447L801.095 147.059C799.924 146.461 799.506 145.465 798.789 144.317C797.334 140.557 780.828 122.581 776.895 120.82Z" fill="#D4ECED"/>
<path d="M765.347 123.335L763.953 123.852C761.8 124.77 757.899 124.448 756.295 122.576L756.397 121.666C758.942 120.038 762.93 122.188 765.347 123.335Z" fill="#8EECF5"/>
<path d="M819.356 163.938C809.209 150.299 794.066 136.188 783.947 122.7L784.104 121.688L797.69 125.169C802.359 131.085 808.046 141.534 812.033 148.184C814.853 152.89 820.996 163.002 822.953 167.76C822.434 167.194 819.764 164.211 819.356 163.938Z" fill="#8EECF5"/>
<path d="M693.311 128.868C700.163 127.593 708.31 125.197 715.162 123.352C746.627 143.168 781.359 157.69 813.322 176.703C833.471 188.689 847.083 210.024 857.812 230.322C861 236.352 865.176 241.068 868.475 247.241L867.575 248.489C848.028 224.011 812.971 209.621 786.996 192.824C756.697 173.232 719.928 153.338 693.311 128.868Z" fill="#8EECF5"/>
<path d="M843.842 144.482C853.341 162.816 857.8 192.498 858.522 212.916C858.369 214.91 858.563 216.855 857.56 218.27C856.141 218.17 856.838 218.312 855.445 216.99C848.446 201.86 840.505 192.351 831.425 178.721C828.198 173.105 825.982 166.89 822.774 161.255C816.012 149.374 809.048 137.367 801.746 125.816C815.926 130.723 830.863 136.888 843.842 144.482Z" fill="#8EECF5"/>
<path d="M505.361 251.549C506.83 250.436 519.265 245.44 522.003 244.039C532.749 238.54 541.554 232.922 551.398 225.965C569.924 212.87 587.36 197.904 604.644 183.192C621.134 169.155 636.719 155.853 655.74 145.143C666.898 138.86 677.727 134.795 689.669 130.32C715.666 149.854 735.567 173.779 752.67 201.283C756.534 207.497 761.832 213.23 765.887 219.378C785.355 249.642 811.539 273.832 840.25 295.173C858.837 308.989 887.703 324.027 893.532 347.988C894.446 351.745 884.12 382.191 882.275 387.99L882.095 388.091C880.147 387.51 876.637 385.679 874.705 384.736C843.627 369.574 812.295 365.692 778.009 364.34C776.981 352.402 773.229 342.852 765.663 333.477C763.375 330.642 760.892 328.4 758.647 325.596L758.341 325.208L758.499 322.019C758.9 312.871 757.712 306.166 751.273 299.219C720.695 266.232 614.353 255.938 570.024 253.344C548.461 252.083 526.915 252.331 505.361 251.549Z" fill="#8EECF5"/>
<path d="M879.588 258.821C879.581 260.592 879.68 260.841 879.109 262.551C879.139 262.57 865.082 235.614 864.154 233.042C862.551 228.598 862.078 216.3 861.631 211.004C860.721 200.233 859.763 189.243 857.725 178.573C855.725 167.67 851.526 157.941 848.428 147.395C853.463 149.94 868.486 164.987 872.483 169.577C891.679 191.617 881.492 232.21 879.588 258.821Z" fill="#8EECF5"/>
<path d="M885.419 301.592C883.428 300.098 879.119 294.834 877.134 292.645C862.324 276.32 843.008 266.349 824.414 254.967C801.181 240.744 780.081 223.54 761.689 203.409C757.917 199.28 753.553 195.35 749.925 191.062C740.178 178.009 731.387 165.093 719.945 153.348C723.566 154.676 731.111 160.67 734.601 163.146C773.974 191.071 819.818 211.346 857.882 240.603C869.416 249.468 882.096 287.019 885.419 301.592Z" fill="#8EECF5"/>
<path d="M879.25 273.16L880.217 272.084C881.616 270.001 881.469 261.35 881.873 258.255C882.373 254.426 882.791 250.308 883.337 246.445C885.035 234.437 886.399 222.617 886.525 210.467C886.621 201.277 884.93 193.25 882.935 184.387C886.548 189.682 889.278 195.998 891.829 202.001C908.071 240.217 903.021 281.66 898.663 321.649C898.308 324.907 897.945 328.273 897.379 331.468C895.44 331.007 895.368 330.051 894.474 328.438C894.544 319.266 883.011 282.539 879.25 273.16Z" fill="#8EECF5"/>
<path d="M892.99 337.075C891.58 335.843 888.45 331.405 887.139 329.737C883.7 325.365 879.74 320.646 875.381 317.151C863.58 307.689 850.748 299.418 838.487 290.44C804.337 265.433 782.968 240.885 759.793 205.922C762.694 207.838 772.828 218.714 776.094 221.861C782.401 228.367 789.454 233.618 796.513 239.245C822.735 260.166 854.102 271.82 877.462 296.55C890.642 310.503 890.697 318.433 892.99 337.075Z" fill="#8EECF5"/>
<path d="M858.522 212.918C859.283 217.082 859.839 223.377 860.161 227.699C858.538 224.117 856.972 220.615 855.445 216.992C856.838 218.314 856.141 218.172 857.56 218.272C858.563 216.857 858.369 214.912 858.522 212.918Z" fill="#8EECF5"/>
<path d="M868.474 247.238C873.927 256.562 875.79 262.953 880.215 272.083L879.248 273.159C877.582 267.123 871.07 253.681 867.574 248.486L868.474 247.238Z" fill="#98F5E1"/>
<path d="M494.712 252.053C498.325 252.034 501.757 251.787 505.362 251.551C526.916 252.333 548.462 252.085 570.025 253.346C614.354 255.94 720.696 266.234 751.274 299.221C757.713 306.168 758.901 312.873 758.5 322.021L758.342 325.21L758.648 325.598C760.893 328.402 763.376 330.644 765.664 333.479C773.23 342.854 776.982 352.404 778.01 364.342C778.385 368.957 780.302 370.935 781.768 375.093C788.887 395.282 770.476 407.823 757.124 417.635C754.551 426.028 751.591 434.615 748.891 442.906C742.273 463.225 738.675 482.782 736.836 504.028C735.616 518.13 733.479 532.608 732.619 546.809C730.552 570.941 727.964 595.083 725.5 619.179C723.897 634.854 722.916 650.591 720.673 666.215C717.039 687.465 714.447 709.507 711.004 730.891C708.343 747.416 710.117 765.401 702.152 781.033C696.328 792.464 688.042 798.763 677.883 806.056C646.366 828.681 611.258 838.266 573.056 842.574C536.893 846.836 506.698 847.324 470.504 845.188C439.547 843.362 413.793 841.878 384.894 828.723C368.652 821.331 353.523 816.294 339.925 803.603C317.236 783.625 314.092 763.733 311.147 735.459L307.585 698.428C306.255 683.753 304.374 669.145 303.09 654.541C301.362 634.896 299.981 615.037 298.503 595.361C295.467 567.002 293.895 538.053 290.646 509.693C288.974 495.1 287.071 475.592 283.069 461.504C279.24 448.027 271.057 429.434 265.264 416.594C245.889 404.921 233.91 394.741 244.257 369.593C245.964 365.443 245.283 361.178 246.922 356.867C251.579 344.613 261.689 337.384 269.387 327.283L269.402 327.324C269.089 322.205 268.981 313.365 274.074 310.334C273.349 310.766 277.521 299.827 280.372 297.184C292.264 286.159 308.107 280.774 322.97 276.152C378.588 258.856 436.89 254.709 494.712 252.053ZM498.658 256.495C449.357 256.503 396.59 262.449 348.754 273.224C326.552 278.225 252.9 296.015 286.738 330.101C295.604 339.032 317.488 346.772 329.658 351.207C353.938 358.405 378.95 363.403 404.17 365.764C407.37 366.064 419.837 365.14 419.43 369.294C419.087 369.49 418.478 369.877 418.101 369.862C377.868 368.299 334.724 359.821 298.227 342.545C285.069 336.316 278.434 328.743 274.372 315.971C273.472 320.257 272.856 324.899 273.076 329.28C273.473 337.178 277.436 342.817 283.116 347.917C317.717 378.984 429.548 390.108 477.136 392.836C512.096 394.84 547.623 395.358 582.596 393.311C603.625 392.08 624.722 390.113 645.521 386.729C672.787 382.294 731.519 369.394 750.046 348.241C756.267 341.14 755.868 335.577 755.357 326.789C733.755 351.522 699.037 358.223 668.493 366.067C662.85 367.517 625.778 375.723 622.319 373.621L622.11 372.65C623.639 370.573 643.98 367.648 647.962 366.687C676.957 359.599 724.453 351.728 746.69 330.43C778.136 300.311 705.629 279.094 688.033 274.761C625.561 259.378 562.494 255.552 498.658 256.495ZM324.957 438.326C304.486 432.236 289.354 427.761 270.119 418.611C275.693 431.617 282.485 446.06 286.25 459.629C290.929 476.493 293.106 496.377 294.724 513.812L299.611 568.027C300.502 578.28 301.135 589.809 302.555 599.877C305.06 631.781 307.29 663.433 311.03 695.275C313.839 719.191 313.65 744.698 320.183 767.985C331.172 803.947 370.086 819.93 402.427 831.071C428.114 840.256 451.822 839.91 478.421 841.536C511.137 843.535 540.448 842.141 573.085 838.688C611.258 835.783 649.798 822.506 681.089 800.16C710.014 779.504 703.661 758.885 708.156 727.505C710.884 708.466 713.983 688.843 716.487 669.452C716.935 661.469 718.376 650.944 719.229 642.796L725.919 581.08L732.816 508.21C734.168 495.075 735.171 480.562 738.267 467.815C742.186 451.676 747.748 435.518 752.964 419.735C736.094 429.343 700.144 442.722 681.183 446.656C597.506 468.619 505.653 466.051 420.616 454.102C390.493 449.869 359.008 447.117 329.508 439.628C328.62 439.454 325.945 438.611 324.957 438.326ZM759.347 332.743C758.902 341.393 756.471 347.844 749.93 353.747C740.074 362.642 725.671 368.513 713.284 373.161C641.601 400.055 553.152 400.546 477.25 396.048C431.902 393.361 308.938 382.679 277.4 347.535C274.465 344.266 270.929 335.921 269.576 334.79C267.519 336.851 267.879 339.373 268.248 342.141C273.379 356.128 287.162 362.878 299.957 368.803C379.615 405.69 544.368 411.004 631.318 399.058C657.453 395.467 683.829 389.232 708.586 380.063C725.994 373.616 749.372 364.582 757.666 346.741C759.494 342.808 760.48 338.869 760.671 334.527C760.082 333.253 760.406 333.653 759.347 332.743ZM763.612 337.816C759.779 352.178 752.735 362.343 739.23 369.446C673.262 404.221 594.629 409.041 521.368 407.697C462.374 406.615 400.369 402.366 343.056 387.729C323.673 382.778 266.434 365.088 264.927 341.504L264.806 339.853C257.376 345.123 251.007 353.929 249.324 362.997C247.813 371.142 250.139 378.999 254.834 385.642C275.222 414.488 355.134 429.395 389.229 435C409.473 438.327 429.595 441.049 450.065 442.548C455.137 442.919 472.589 443.09 475.678 444.809L476.244 445.734L475.91 446.936C472.766 448.672 459.547 447.082 455.242 446.71C412.769 443.045 364.32 436.517 323.485 424.693C301.459 418.316 260.855 405.56 249.92 384.66C248.983 382.869 246.3 376.993 245.549 376.213C243.918 378.121 244.009 384.538 244.203 387.119C245.265 401.214 258.227 408.653 269.482 414.399C315.716 436.34 359.733 442.48 409.499 449.419C510.391 463.485 616.645 467.093 714.04 432.701C735.816 425.011 785.082 406.675 778.543 376.739C774.36 391.322 766.698 398.521 753.235 405.504C691.448 437.554 619.331 447.984 550.462 449.661C545.389 449.784 518.597 450.872 516.492 448.635C516.89 446.139 519.897 445.864 522.126 445.905C591.638 447.176 663.086 439.74 727.954 413.436C741.906 407.776 759.953 400.466 769.163 388.304C778.723 375.68 774.234 348.668 763.612 337.816Z" fill="url(#paint0_linear_2243_42750)"/>
<path d="M498.658 256.493C562.494 255.55 625.561 259.376 688.033 274.759C705.629 279.092 778.136 300.309 746.69 330.428C724.453 351.726 676.957 359.597 647.962 366.685C643.98 367.646 623.639 370.571 622.11 372.648L622.319 373.619C625.778 375.721 662.85 367.515 668.493 366.065C699.037 358.221 733.755 351.52 755.357 326.787C755.868 335.575 756.267 341.138 750.046 348.239C731.519 369.392 672.787 382.292 645.521 386.727C624.722 390.111 603.625 392.078 582.596 393.309C547.623 395.356 512.096 394.838 477.136 392.834C429.548 390.106 317.717 378.982 283.116 347.915C277.436 342.815 273.473 337.176 273.076 329.278C272.856 324.897 273.472 320.255 274.372 315.969C278.434 328.741 285.069 336.314 298.227 342.543C334.724 359.819 377.868 368.297 418.101 369.86C418.478 369.875 419.087 369.488 419.43 369.292C419.837 365.138 407.37 366.062 404.17 365.762C378.95 363.401 353.938 358.403 329.658 351.205C331.192 347.206 341.453 340.225 345.183 338.139C353.816 340.998 363.068 342.952 371.969 344.842C406.914 352.26 443.752 356.17 479.476 357.327C505.192 358.16 531.167 358.377 556.867 357.186C592.269 355.546 690.888 346.907 715.245 323.109C718.252 320.171 720.696 316.118 720.683 311.8C720.671 307.734 718.369 304.254 715.545 301.496C690.496 277.023 584.69 269.411 548.593 267.9C531.874 267.201 515.14 267.361 498.411 267.422L498.658 256.493Z" fill="#E0E3FC"/>
<path d="M329.659 351.204C317.489 346.769 295.605 339.029 286.739 330.098C252.901 296.012 326.553 278.222 348.755 273.221C396.591 262.446 449.358 256.5 498.659 256.492L498.412 267.421C462.105 267.966 330.415 277.876 307.459 302.217C304.827 305.008 303.028 308.546 303.182 312.461C303.345 316.6 305.786 319.829 308.822 322.438C317.517 329.911 333.901 336.089 345.184 338.138C341.454 340.224 331.193 347.205 329.659 351.204Z" fill="#F1C0E8"/>
<path d="M345.183 338.14C333.9 336.091 317.516 329.913 308.821 322.44C305.785 319.831 303.344 316.602 303.181 312.463C303.027 308.548 304.826 305.01 307.458 302.219C330.414 277.878 462.104 267.968 498.411 267.423C515.14 267.362 531.874 267.202 548.593 267.901C584.69 269.412 690.496 277.024 715.545 301.497C718.369 304.255 720.671 307.735 720.683 311.801C720.696 316.119 718.252 320.172 715.245 323.11C690.888 346.908 592.269 355.547 556.867 357.187C531.167 358.378 505.192 358.161 479.476 357.328C443.752 356.171 406.914 352.261 371.969 344.843C363.068 342.953 353.816 340.999 345.183 338.14ZM498.171 270.576C462.828 270.343 332.489 281.701 310.35 304.223C308.382 306.225 306.776 308.743 306.809 311.639C306.853 315.579 309.442 318.334 312.139 320.902C320.157 309.615 335.76 305.054 348.67 301.665C395.823 289.286 445.61 284.912 494.268 284.396C544.659 283.419 673.386 290.627 714.592 317.052L715.145 316.856C716.224 315.523 716.792 313.493 716.615 311.85C715.215 298.791 686.933 290.829 677.887 288.434C619.298 272.924 558.399 270.479 498.171 270.576ZM492.32 287.54C456.302 287.631 340.72 295.465 316.528 320.016C315.922 320.632 315.363 321.29 314.82 321.961C336.186 335.838 392.829 345.724 418.658 348.547C422.147 348.928 434.964 350.476 438.346 350.397C457.967 353.24 485.09 353.832 505.236 354.033C563.984 354.616 625.729 350.942 682.466 334.985C689.042 333.135 708.062 326.623 711.135 320.871C709.44 310.1 645.426 300.038 634.052 297.99C587.297 289.57 539.736 287.258 492.32 287.54Z" fill="#624F55"/>
<path d="M312.139 320.9C309.442 318.332 306.853 315.577 306.809 311.637C306.776 308.741 308.382 306.223 310.35 304.221C332.489 281.699 462.828 270.341 498.171 270.574C497.084 275.028 494.611 280.516 494.268 284.394C445.61 284.91 395.823 289.284 348.67 301.663C335.76 305.052 320.157 309.613 312.139 320.9Z" fill="#F1C0E8"/>
<path d="M498.171 270.577C558.399 270.48 619.298 272.925 677.887 288.435C686.933 290.83 715.215 298.792 716.615 311.851C716.792 313.494 716.224 315.524 715.145 316.857L714.592 317.053C673.386 290.628 544.659 283.42 494.268 284.397C494.611 280.519 497.084 275.031 498.171 270.577Z" fill="#E0E3FC"/>
<path d="M314.82 321.96C315.363 321.289 315.922 320.631 316.528 320.015C340.72 295.464 456.302 287.63 492.32 287.539C489.827 306.535 471.537 326.671 456.891 337.947C452.969 340.967 439.958 348.449 438.346 350.396C434.964 350.475 422.147 348.927 418.658 348.546C392.829 345.723 336.186 335.837 314.82 321.96Z" fill="#FDE4CF"/>
<path d="M492.32 287.538C539.736 287.256 587.297 289.568 634.052 297.988C645.426 300.036 709.44 310.098 711.135 320.869C708.062 326.621 689.042 333.133 682.466 334.983C625.729 350.94 563.984 354.614 505.236 354.031C485.09 353.83 457.967 353.238 438.346 350.395C439.958 348.448 452.969 340.966 456.891 337.946C471.537 326.67 489.827 306.534 492.32 287.538Z" fill="#E0E3FC"/>
<path d="M894.473 328.438C895.367 330.051 895.439 331.006 897.378 331.467C896.99 334.684 896.081 338.333 895.368 341.54C895.391 337.221 894.875 332.753 894.473 328.438Z" fill="#98F5E1"/>
<path d="M268.248 342.14C267.879 339.372 267.519 336.85 269.576 334.789C270.929 335.92 274.465 344.265 277.4 347.534C308.938 382.678 431.902 393.36 477.25 396.047C553.152 400.545 641.601 400.054 713.284 373.16C725.671 368.512 740.074 362.641 749.93 353.746C756.471 347.843 758.902 341.392 759.347 332.742C760.406 333.652 760.082 333.252 760.671 334.526C760.48 338.868 759.494 342.807 757.666 346.74C749.372 364.581 725.994 373.615 708.586 380.062C683.829 389.231 657.453 395.466 631.318 399.057C544.368 411.003 379.615 405.689 299.957 368.802C287.162 362.877 273.379 356.127 268.248 342.14Z" fill="#F7E8FE"/>
<path d="M264.806 339.85L264.927 341.501C266.434 365.085 323.673 382.774 343.056 387.725C400.369 402.362 462.374 406.612 521.368 407.694C594.629 409.038 673.262 404.218 739.23 369.443C752.735 362.34 759.779 352.175 763.612 337.812C774.234 348.665 778.723 375.677 769.163 388.301C759.953 400.463 741.906 407.772 727.954 413.432C663.086 439.736 591.638 447.173 522.126 445.902C519.897 445.861 516.89 446.136 516.492 448.632C518.597 450.869 545.389 449.781 550.462 449.658C619.331 447.981 691.448 437.551 753.235 405.501C766.698 398.518 774.36 391.319 778.543 376.736C785.082 406.672 735.816 425.008 714.04 432.698C616.645 467.09 510.391 463.481 409.499 449.415C359.733 442.476 315.716 436.337 269.482 414.396C258.227 408.65 245.265 401.211 244.203 387.116C244.009 384.535 243.918 378.118 245.549 376.21C246.3 376.99 248.983 382.865 249.92 384.656C260.855 405.556 301.459 418.313 323.485 424.69C364.32 436.514 412.769 443.042 455.242 446.707C459.547 447.079 472.766 448.668 475.91 446.932L476.244 445.73L475.678 444.806C472.589 443.087 455.137 442.915 450.065 442.544C429.595 441.045 409.473 438.323 389.229 434.996C355.134 429.391 275.222 414.485 254.834 385.639C250.139 378.996 247.813 371.139 249.324 362.993C251.007 353.925 257.376 345.12 264.806 339.85Z" fill="#E0E3FC"/>
<path d="M778.011 364.34C812.297 365.692 843.629 369.574 874.707 384.736C876.639 385.679 880.149 387.51 882.097 388.091C881.535 391.268 872.858 410.623 871.066 415.015C866.334 426.613 862.509 436.558 858.823 448.684C845.048 493.88 836.675 543.426 810.64 583.747C800.624 599.258 782.997 617.297 769.026 629.282C758.256 638.522 733.399 661.447 720.674 666.213C722.917 650.589 723.898 634.852 725.501 619.177C727.965 595.081 730.553 570.939 732.62 546.807C733.48 532.606 735.617 518.128 736.837 504.026C738.676 482.78 742.274 463.223 748.892 442.904C751.592 434.613 754.552 426.026 757.125 417.633C770.477 407.821 788.888 395.28 781.769 375.091C780.303 370.933 778.386 368.955 778.011 364.34Z" fill="#F1C0E8"/>
<path d="M882.096 388.089L882.276 387.988L882.845 388.491C886.135 391.345 890.903 393.795 894.393 396.519C935.982 428.575 957.646 485.409 960.961 536.761C966.558 623.459 945.328 722.405 887.904 789.682C862.75 819.152 819.876 853.755 785.161 871.787L781.849 873.381C773.328 877.463 764.892 881.508 756.275 885.393C754.769 885.997 753.602 886.518 752.032 886.958C733.323 894.263 716.501 897.666 696.588 899.677C693.307 900.009 686.369 901.607 683.663 900.56C682.399 899.026 681.73 898.189 679.761 897.896C677.662 898.679 678.364 898.34 676.79 900.261C674.821 900.99 671.802 900.905 669.64 900.801C633.456 899.054 597.004 889.233 571.322 862.492C572.554 855.461 572.965 849.703 573.056 842.57C611.258 838.262 646.366 828.677 677.883 806.052C688.042 798.759 696.328 792.46 702.152 781.029C710.117 765.397 708.343 747.412 711.004 730.887C714.447 709.503 717.039 687.461 720.673 666.211C733.398 661.445 758.255 638.52 769.025 629.28C782.996 617.295 800.623 599.256 810.639 583.745C836.674 543.424 845.047 493.878 858.822 448.682C862.508 436.556 866.333 426.611 871.065 415.013C872.857 410.621 881.534 391.266 882.096 388.089ZM682.756 815.433C681.676 816.021 680.998 817.147 680.984 818.376C680.97 819.606 681.622 820.747 682.689 821.36C683.755 821.973 685.069 821.961 686.124 821.33C687.711 820.38 688.247 818.336 687.33 816.731C686.413 815.125 684.38 814.548 682.756 815.433ZM723.227 817.875C721.4 818.561 720.48 820.603 721.177 822.426C721.875 824.249 723.924 825.156 725.742 824.446C727.543 823.743 728.44 821.718 727.748 819.912C727.057 818.106 725.038 817.196 723.227 817.875ZM751.698 825.241C749.84 827.931 749.231 829.925 751.812 832.367C753.198 832.714 753.117 832.727 754.528 832.572C756.458 829.869 757.284 828.354 754.677 825.766C753.338 825.42 753.063 825.324 751.698 825.241ZM703.359 835.793C701.775 836.687 701.137 838.644 701.891 840.3C702.644 841.956 704.539 842.761 706.254 842.154C707.504 841.711 708.397 840.602 708.563 839.286C708.729 837.971 708.139 836.674 707.038 835.935C705.937 835.196 704.514 835.141 703.359 835.793ZM651.741 835.949C650.173 837.834 650.432 837.025 650.092 839.258C651.11 841.618 651.835 841.722 654.295 841.931C655.849 840.437 656.014 840.382 656.586 838.383C656.124 836.614 656.584 837.35 655.039 836.179C653.748 836.033 653.05 835.934 651.741 835.949ZM619.592 838.79C614.317 842.167 615.583 847.002 621.122 848.644C624.724 844.936 625.851 840.446 619.592 838.79ZM602.064 843.368C601.039 846.033 600.733 849.911 604.7 849.831C605.705 847.947 605.961 847.711 606.077 845.653C605.032 843.443 604.435 843.554 602.064 843.368ZM775.058 845.869C773.38 846.695 772.657 848.703 773.424 850.41C774.191 852.117 776.173 852.91 777.906 852.203C779.082 851.723 779.903 850.64 780.046 849.377C780.189 848.115 779.632 846.875 778.593 846.144C777.554 845.413 776.198 845.307 775.058 845.869ZM729.999 847.507C726.892 852.091 728.035 857.892 734.095 855.777C738.73 851.17 736.639 846.902 729.999 847.507ZM675.44 848.363C671.236 852.358 672.131 856.989 678.326 857.191C682.474 853.843 681.164 848.578 675.44 848.363ZM649.028 853.885C647.602 854.81 647.168 856.702 648.05 858.156C648.932 859.61 650.809 860.1 652.289 859.263C653.287 858.699 653.899 857.636 653.886 856.489C653.873 855.342 653.237 854.293 652.227 853.752C651.216 853.21 649.99 853.261 649.028 853.885ZM754.589 864.353C749.987 868.375 751.8 871.949 757.054 873.347C760.721 869.133 760.842 865.71 754.589 864.353ZM697.236 864.79C695.043 867.761 695.582 872.007 699.758 871.701C701.192 870.014 701.621 869.772 701.942 867.692C701.1 864.976 700.006 865.019 697.236 864.79ZM608.211 873.93C607.069 874.789 606.795 876.39 607.585 877.581C608.374 878.772 609.955 879.142 611.191 878.425C612.06 877.921 612.578 876.978 612.536 875.975C612.494 874.972 611.899 874.075 610.991 873.646C610.084 873.216 609.013 873.326 608.211 873.93ZM638.017 875.445C636.735 879.537 637.279 884.997 642.963 883.527C648.31 877.699 643.886 875.427 638.017 875.445ZM714.378 876.362C712.882 877.944 712.652 878.025 712.378 880.074C713.33 882.753 714.764 882.72 717.461 882.575C718.577 881.144 719.092 880.741 719.337 878.933C718.488 876.344 716.931 876.319 714.378 876.362ZM676.09 877.85C675.728 880.003 675.61 880.188 676.206 882.216C677.566 883.594 677.621 883.695 679.753 883.522C680.626 881.795 681.031 881.387 680.678 879.488C679.178 877.855 678.229 877.899 676.09 877.85Z" fill="#FBF8CC"/>
<path d="M270.119 418.609C289.354 427.759 304.486 432.234 324.957 438.324C318.706 473.034 314.786 506.054 317.784 541.537C318.849 554.138 318.019 571.294 321.117 583.834C321.014 583.418 322.365 585.436 322.324 585.377C320.266 596.24 319.956 605.658 322.339 616.548C319.828 617.297 318.547 614.828 315.064 613.334L314.915 613.012C313.508 605.676 312.498 588.597 311.615 580.381C308.203 548.626 306.254 517.06 300.546 485.494C299.976 482.344 299.967 479.615 297.484 477.879L296.556 478.214C295.311 480.778 299.807 502.649 300.384 506.967C304.758 539.694 308.101 573.619 311.058 606.556C308.454 604.506 305.228 601.342 302.555 599.875C301.135 589.807 300.502 578.278 299.611 568.025L294.724 513.81C293.106 496.375 290.929 476.491 286.25 459.627C282.485 446.058 275.693 431.615 270.119 418.609Z" fill="url(#paint1_linear_2243_42750)"/>
<path d="M681.184 446.655C700.145 442.721 736.095 429.342 752.965 419.734C747.749 435.517 742.187 451.675 738.268 467.814C735.172 480.561 734.169 495.074 732.817 508.209L725.92 581.079L719.23 642.795C718.377 650.943 716.936 661.468 716.488 669.451C713.13 670.861 710.296 672.791 706.92 673.467C708.45 655.953 708.34 648.597 707.983 631.205C709.148 624.342 716.448 605.974 714.966 602.466L714.065 602.169C707.876 606.656 692.337 688.05 678.92 688.201C674.506 685.617 673.606 674.489 673.276 669.748C671.451 643.492 673.912 611.713 681.799 586.577C695.173 590.487 703.688 590.846 715.05 581.386C717.442 579.394 721.147 577.778 719.36 574.282L718.225 574.112C715.298 575.237 714.139 576.946 711.667 578.765C704.575 583.986 698.674 584.304 690.542 583.367C691.397 580.215 688.851 573.199 686.065 571.251C686.989 568.102 688.739 565.297 686.826 562.495C685.086 561.71 684.947 561.849 683.078 561.932C682.792 561.373 682.927 561.724 682.788 561.092C676.947 534.644 659.129 512.438 655.469 485.511C652.918 466.735 682.826 462.41 681.184 446.655ZM723.7 474.188C719.846 485.379 718.737 510.567 716.82 523.272C716.124 527.887 713.803 549.37 713.885 553.015L714.512 553.607L715.886 553.373C721.057 529.624 721.711 501.054 725.989 476.807C726.13 476.01 724.357 474.56 723.7 474.188Z" fill="url(#paint2_linear_2243_42750)"/>
<path d="M324.957 438.324C325.945 438.609 328.62 439.452 329.508 439.626L329.717 440.162C331.746 445.517 333.094 452.104 334.973 457.622C343.439 482.476 353.773 501.451 378.949 512.108C383.543 514.052 391.625 517.258 396.279 518.561C406.109 521.313 438.951 529.08 448.151 527.298L451.539 527.739C454.958 528.541 471.351 528.188 475.842 528.245C473.526 540.4 471.233 552.872 469.891 565.186C469.149 572.001 469.514 583.328 475.381 587.927C482.552 593.549 488.071 588.106 492.524 582.357C492.447 584.504 492 587.178 493.919 588.549C496.053 585.866 495.932 572.394 498.132 567.996C500.68 562.899 503.745 547.109 512.223 550.922C517.461 556.607 506.999 576.452 515.115 582.35C520.415 586.201 525.03 582.736 528.441 578.332C531.369 598.893 552.015 592.073 561.322 580.747C564.092 577.377 570.577 568.409 570.251 564.245L569.802 563.983C566.271 565.398 560.318 577.499 556.868 580.435C532.874 601.225 528.313 577.32 533.852 557.105C540.297 533.587 557.954 549.881 546.249 564.425C544.163 567.018 537.805 570.099 537.389 571.048C544.746 574.527 555.15 556.915 551.309 549.136C548.832 544.119 544.084 541.874 539.296 544.455C529.374 549.802 530.882 566.136 527.049 575.074C525.484 578.842 521.779 582.148 517.653 580.072C512.078 573.987 521.651 552.786 514.009 548.861C504.704 544.081 499.04 558.789 496.089 565.429C496.579 558.47 496.219 551.708 496.94 544.658C504.2 537.882 507.061 534.202 512.141 525.676C515.756 526.765 519.278 528.248 522.869 529.511C556.421 541.313 599.966 534.641 624.448 565.469C628.324 570.349 632.897 580.931 636.809 584.594C637.584 585.416 638.825 586.632 639.441 587.51C636.952 589.478 633.884 593.727 632.438 596.57C618.218 593.007 620.07 610.937 626.968 619.004C624.681 625.324 621.513 633.262 618.342 639.161C612.388 650.239 608.493 656.102 605.011 668.362C605.397 654.267 605.982 640.177 606.913 626.096C607.161 622.342 606.063 619.622 601.998 619.177C601.059 619.536 599.955 619.901 599.654 621.017C596.237 633.659 591.393 665.557 579.871 673.032C579.144 673.012 578.749 673.207 578.227 672.607C573.125 666.756 581.752 630.544 578.052 624.632C577.46 623.687 576.766 623.543 575.78 623.276C570.81 624.794 569.406 635.255 568.252 639.856C566.581 646.524 558.329 677.869 547.556 672.75C540.536 664.233 552.912 631.072 546.845 623.209C544.631 621.812 541.875 622.549 541.118 625.004C536.993 638.377 531.505 650.125 525.211 662.583C525.567 650.19 528.517 630.96 519.231 621.472C510.1 612.143 498.095 615.829 489.897 624.277C482.996 631.388 482.751 638.531 473.743 643.367C472.203 629.003 466.233 615.09 448.549 617.443C422.751 620.874 417.296 663.786 436.959 677.71C441.081 680.718 446.329 681.218 451.269 680.353C466.117 677.753 470.494 663.092 473.317 650.476C475.394 648.548 477.255 646.849 479.435 645.027C479.902 670.558 500.652 684.884 514.212 657.259C513.436 665.105 513.16 673.084 512.311 680.821C505.06 688.704 496.411 693.088 488.221 699.773C478.618 707.782 468.698 719.845 469.157 733.045C469.497 742.861 477.683 747.746 486.778 746.417C501.236 744.305 509.332 728.999 513.715 716.733C518.635 717.433 522.224 726.377 525.381 730.76C534.981 744.087 546.526 751.108 559.841 759.851C545.858 761.437 536.255 764.634 523.845 771.713C541.916 770.615 566.106 767.988 584.019 769.803C578.031 786.066 573.705 798.698 573.416 816.452C573.362 819.747 573.016 823.88 573.321 827.119C569.581 827.548 552.448 828.477 550.99 829.918L550.487 831.132C552.254 834.74 568.712 832.227 572.758 831.512C572.642 834.659 572.65 835.533 573.085 838.686C540.448 842.139 511.137 843.533 478.421 841.534C451.822 839.908 428.114 840.254 402.427 831.069C370.086 819.928 331.172 803.945 320.183 767.983C313.65 744.696 313.839 719.189 311.03 695.273C307.29 663.431 305.06 631.779 302.555 599.875C305.228 601.342 308.454 604.506 311.058 606.556C311.322 608.855 311.572 611.112 311.784 613.419L322.339 709.608C325.993 743.711 323.92 775.234 354.422 798.405C363.643 805.409 373.896 811.382 385.362 813.657L386.547 813.313L387.091 812.309C386.038 810.019 368.849 803.682 364.346 800.706C344.577 787.64 332.252 769.62 329.507 746.105C324.377 702.157 321.623 656.944 315.064 613.334C318.547 614.828 319.828 617.297 322.339 616.548C325.611 626.736 332.587 643.841 346.024 635.023L346.681 635.627C351.854 640.421 353.517 646.033 358.667 646.531C357.443 659.665 364.461 684.15 382.325 677.918C395.732 673.241 402.692 660.438 408.728 648.495C407.546 659.851 405.821 668.811 403.306 679.915C401.065 680.559 398.834 681.361 396.668 682.219C379.34 689.079 357.35 701.74 349.688 719.547C347.196 725.337 346.754 731.564 349.276 737.433C351.524 742.667 355.821 746.923 361.196 748.879C367.677 751.237 375.281 750.098 381.364 747.071C394.349 740.61 401.649 726.238 406.016 713.083C410.832 698.577 414.184 682.815 417.025 667.796C419.595 654.214 431.038 575.652 426.458 567.425C425.923 566.463 425.669 566.431 424.683 566.108C423.184 566.701 421.718 568.053 421.321 569.709C417.099 587.314 415.909 605.038 412.239 622.754C409.003 636.153 394.501 664.593 382.325 671.175C358.191 684.222 370.891 629.267 372.693 621.276C374.713 612.323 375.599 606.547 376.691 597.946C378.887 580.657 380.944 553.294 361.966 544.45C342.921 538.421 326.539 569.729 322.324 585.377C322.365 585.436 321.014 583.418 321.117 583.834C318.019 571.294 318.849 554.138 317.784 541.537C314.786 506.054 318.706 473.034 324.957 438.324ZM403.775 815.154C403.251 817.116 402.886 817.168 403.386 818.781C407.849 820.97 422.673 823.156 428.381 824.305C428.504 822.196 428.796 822.533 427.962 820.917C425.94 819.855 407.214 815.791 403.775 815.154ZM448.226 823.733C448.428 826.282 448.004 826.171 449.302 827.836C453.027 828.824 473.435 830.695 476.627 830.223C476.477 828.176 476.828 828.411 475.748 827.186C471.091 825.951 454.171 824.508 448.226 823.733ZM495.532 828.397C495.467 830.634 495.119 830.446 496.08 832.048C500.214 833.81 520.168 833.109 525.301 832.414C525.317 830.115 525.672 830.493 524.595 828.947C520.415 828.542 514.866 828.904 510.504 828.852C505.65 828.794 500.276 828.36 495.532 828.397Z" fill="#B9FBC0"/>
<path d="M329.508 439.625C359.008 447.114 390.493 449.866 420.616 454.099C505.653 466.048 597.506 468.616 681.183 446.653C682.825 462.408 652.917 466.733 655.468 485.509C659.128 512.436 676.946 534.642 682.787 561.09C682.926 561.722 682.791 561.371 683.077 561.93L677.642 579.049C665.409 576.387 644.574 570.293 636.809 584.593C632.897 580.93 628.324 570.348 624.448 565.468C599.966 534.64 556.421 541.312 522.869 529.51C519.278 528.247 515.756 526.764 512.141 525.675C514.975 519.767 521.816 506.565 512.976 502.499C505.708 499.056 500.854 513.202 495.76 513.639C483.914 514.537 472.949 508.991 461.667 506.527C455.382 505.154 444.803 506.268 443.562 514.235C442.628 520.23 443.6 523.249 448.151 527.297C438.951 529.079 406.109 521.312 396.279 518.56C391.625 517.257 383.543 514.051 378.949 512.107C353.773 501.45 343.439 482.475 334.973 457.621C333.094 452.103 331.746 445.516 329.717 440.161L329.508 439.625Z" fill="#CFBAF0"/>
<path d="M715.886 553.372L714.512 553.607L713.885 553.014C713.803 549.369 716.124 527.886 716.82 523.271C718.737 510.566 719.846 485.378 723.7 474.188C724.357 474.56 726.13 476.009 725.989 476.806C721.711 501.053 721.057 529.623 715.886 553.372Z" fill="#624F55"/>
<path d="M311.059 606.556C308.102 573.619 304.759 539.694 300.385 506.967C299.808 502.649 295.312 480.778 296.557 478.214L297.485 477.879C299.968 479.615 299.977 482.344 300.547 485.494C306.255 517.06 308.204 548.626 311.616 580.381C312.499 588.597 313.509 605.676 314.916 613.012C314.651 612.792 314.09 612.528 313.76 612.351L311.785 613.419C311.573 611.112 311.323 608.855 311.059 606.556Z" fill="#624F55"/>
<path d="M512.141 525.676C507.061 534.202 504.2 537.882 496.94 544.658C496.219 551.708 496.579 558.47 496.089 565.429C499.04 558.789 504.704 544.081 514.009 548.861C521.651 552.786 512.078 573.987 517.653 580.072C521.779 582.148 525.484 578.842 527.049 575.074C530.882 566.136 529.374 549.802 539.296 544.455C544.084 541.874 548.832 544.119 551.309 549.136C555.15 556.915 544.746 574.527 537.389 571.048C537.805 570.099 544.163 567.018 546.249 564.425C557.954 549.881 540.297 533.587 533.852 557.105C528.313 577.32 532.874 601.225 556.868 580.435C560.318 577.499 566.271 565.398 569.802 563.983L570.251 564.245C570.577 568.409 564.092 577.377 561.322 580.747C552.015 592.073 531.369 598.893 528.441 578.332C525.03 582.736 520.415 586.201 515.115 582.35C506.999 576.452 517.461 556.607 512.223 550.922C503.745 547.109 500.68 562.899 498.132 567.996C495.932 572.394 496.053 585.866 493.919 588.549C492 587.178 492.447 584.504 492.524 582.357C488.071 588.106 482.552 593.549 475.381 587.927C469.514 583.328 469.149 572.001 469.891 565.186C471.233 552.872 473.526 540.4 475.842 528.245C476.2 525.977 476.123 523.874 478.134 522.527L478.986 522.947C479.994 524.876 479.599 526.052 479.372 528.341C477.707 540.123 469.47 576.558 476.073 585.31C476.981 586.514 478.073 587.232 479.572 587.538C481.665 587.964 484.353 586.703 485.954 585.452C490.001 582.289 491.986 576.845 492.388 571.873C493.566 557.317 493.204 542.824 495.106 528.289C495.498 524.812 495.985 521.454 496.493 517.993C484.804 518.681 478.607 516.091 467.691 512.971C456.366 509.734 449.043 507.045 446.507 520.822C447.97 523.494 449.637 525.377 451.539 527.739L448.151 527.298C443.6 523.25 442.628 520.231 443.562 514.236C444.803 506.269 455.382 505.155 461.667 506.528C472.949 508.992 483.914 514.538 495.76 513.64C500.854 513.203 505.708 499.057 512.976 502.5C521.816 506.566 514.975 519.768 512.141 525.676ZM511.276 520.195C512.813 516.462 516.049 509.779 512.491 506.589C506.17 504.456 502.554 513.772 500.936 518.088C499.082 526.159 497.995 532.421 497.215 540.831C502.686 536.727 509.228 526.553 511.276 520.195Z" fill="#2D2668"/>
<path d="M500.936 518.089C502.554 513.773 506.17 504.457 512.491 506.59C516.049 509.78 512.813 516.463 511.276 520.196C508.117 518.46 504.518 518.422 500.936 518.089Z" fill="#CFBAF0"/>
<path d="M451.54 527.741C449.638 525.379 447.971 523.496 446.508 520.824C449.044 507.047 456.367 509.736 467.692 512.973C478.608 516.093 484.805 518.683 496.494 517.995C495.986 521.456 495.499 524.814 495.107 528.291C490.551 528.598 484.514 528.119 479.373 528.343C479.6 526.054 479.995 524.878 478.987 522.949L478.135 522.529C476.124 523.876 476.201 525.979 475.843 528.247C471.352 528.19 454.959 528.543 451.54 527.741Z" fill="#CFBAF0"/>
<path d="M500.936 518.09C504.518 518.423 508.117 518.461 511.276 520.197C509.228 526.555 502.686 536.729 497.215 540.833C497.995 532.423 499.082 526.161 500.936 518.09Z" fill="#98F5E1"/>
<path d="M479.372 528.339C484.513 528.115 490.55 528.594 495.106 528.287C493.204 542.822 493.566 557.315 492.388 571.871C491.986 576.843 490.001 582.287 485.954 585.45C484.353 586.701 481.665 587.962 479.572 587.536C478.073 587.23 476.981 586.512 476.073 585.308C469.47 576.556 477.707 540.121 479.372 528.339Z" fill="#98F5E1"/>
<path d="M322.324 585.375C326.539 569.727 342.921 538.419 361.966 544.448C380.944 553.292 378.887 580.655 376.691 597.944C375.599 606.545 374.713 612.321 372.693 621.274C370.891 629.265 358.191 684.22 382.325 671.173C394.501 664.591 409.003 636.151 412.239 622.752C415.909 605.036 417.099 587.312 421.321 569.707C421.718 568.051 423.184 566.699 424.683 566.106C425.669 566.429 425.923 566.461 426.458 567.423C431.038 575.65 419.595 654.212 417.025 667.794C414.184 682.813 410.832 698.575 406.016 713.081C401.649 726.236 394.349 740.608 381.364 747.069C375.281 750.096 367.677 751.235 361.196 748.877C355.821 746.921 351.524 742.665 349.276 737.431C346.754 731.562 347.196 725.335 349.688 719.545C357.35 701.738 379.34 689.077 396.668 682.217C398.834 681.359 401.065 680.557 403.306 679.913C405.821 668.809 407.546 659.849 408.728 648.493C402.692 660.436 395.732 673.239 382.325 677.916C364.461 684.148 357.443 659.663 358.667 646.529C359.251 640.121 359.908 635.318 361.072 628.542C364.804 606.813 374.064 577.281 366.269 555.757C365.483 553.619 363.049 550.791 360.748 550.271C345.994 546.943 334.443 575.413 332.336 586.086C329.694 599.47 326.609 616.724 334.159 628.848C335.016 630.224 336.753 631.628 338.415 631.727C349.326 630.505 346.944 608.036 352.207 603.737L353.447 604.289C358.925 612.527 353.294 628.287 346.537 634.554L346.024 635.021C332.587 643.839 325.611 626.734 322.339 616.546C319.956 605.656 320.266 596.238 322.324 585.375ZM401.444 685.502C382.608 693.998 362.98 703.351 354.348 723.6C351.549 730.167 353.341 736.428 357.73 741.67C370.756 752.465 387.035 732.234 391.73 721.543C394.545 715.133 402.37 692.39 401.88 685.94L401.444 685.502Z" fill="#2D2668"/>
<path d="M346.025 635.023L346.538 634.556C353.295 628.289 358.926 612.529 353.448 604.291L352.208 603.739C346.945 608.038 349.327 630.507 338.416 631.729C336.754 631.63 335.017 630.226 334.16 628.85C326.61 616.726 329.695 599.472 332.337 586.088C334.444 575.415 345.995 546.945 360.749 550.273C363.05 550.793 365.484 553.621 366.27 555.759C374.065 577.283 364.805 606.815 361.073 628.544C359.909 635.32 359.252 640.123 358.668 646.531C353.518 646.033 351.855 640.421 346.682 635.627L346.025 635.023Z" fill="#98F5E1"/>
<path d="M247.479 556.152C250.921 557.153 255.395 561.944 258.02 563.399C264.013 566.722 295.6 594.982 298.504 595.358C299.982 615.034 301.363 634.893 303.091 654.538C304.375 669.142 306.256 683.75 307.586 698.425L311.148 735.456C314.093 763.73 317.237 783.622 339.926 803.6C353.524 816.291 368.653 821.328 384.895 828.72C413.794 841.875 439.548 843.359 470.505 845.185C506.699 847.321 536.894 846.833 573.057 842.571C572.966 849.704 572.555 855.462 571.323 862.493C566.222 884.357 557.431 900.828 542.706 917.994C472.526 999.808 349.14 970.596 268.337 922.725C250.312 912.047 235.92 899.711 220.26 886.56C223.557 872.096 223.398 838.056 220.521 822.918C212.668 781.596 198.028 734.722 175.14 699.178C166.532 685.81 151.751 673.272 141.559 661.976C144.15 651.692 146.586 642.824 151.159 633.165C166.199 601.395 186.987 581.689 219.12 567.014C228.273 562.834 238.045 559.558 247.479 556.152Z" fill="#B9FBC0"/>
<path d="M683.077 561.933C684.946 561.85 685.085 561.711 686.825 562.496C688.738 565.298 686.988 568.103 686.064 571.252L682.687 581.318C685.086 581.996 688.135 582.966 690.541 583.368C698.673 584.305 704.574 583.987 711.666 578.766C714.138 576.947 715.297 575.238 718.224 574.113L719.359 574.283C721.146 577.779 717.441 579.395 715.049 581.387C703.687 590.847 695.172 590.488 681.798 586.578C673.911 611.714 671.45 643.493 673.275 669.749C673.605 674.49 674.505 685.618 678.919 688.202C692.336 688.051 707.875 606.657 714.064 602.17L714.965 602.467C716.447 605.975 709.147 624.343 707.982 631.206C706.89 634.439 704.561 641.149 704.565 644.438C702.933 649.047 697.716 663.181 697.146 666.857C694.471 674.608 687.478 696.818 677.03 692.842C665.05 688.283 664.297 662.861 664.457 653.281C662.69 658.153 657.111 675.286 651.804 676.511C624.215 682.884 642.74 637.835 643.952 625.939C644.174 623.762 632.835 621.865 630.808 621.454C624.615 639.494 614.021 653.484 609.087 671.705C608.51 673.836 607.456 678.469 606.202 680.659C595.329 690.447 594.568 664.321 594.425 661.361C592.936 664.862 591.934 667.365 589.856 670.528C583.153 680.729 571.554 680.8 567.876 668.285C567.216 666.041 566.869 663.623 566.631 661.264C562.798 669.182 555.512 681.783 544.065 676.815C534.97 672.868 535.296 659.151 536.523 650.567C527.783 665.56 523.801 670.498 521.689 688.195C520.893 694.866 516.307 710.582 513.715 716.735C509.332 729.001 501.236 744.307 486.778 746.419C477.683 747.748 469.497 742.863 469.157 733.047C468.698 719.847 478.618 707.784 488.221 699.775C496.411 693.09 505.06 688.706 512.311 680.823C513.16 673.086 513.436 665.107 514.212 657.261C500.652 684.886 479.902 670.56 479.435 645.029C477.255 646.851 475.394 648.55 473.317 650.478C470.494 663.094 466.117 677.755 451.269 680.355C446.329 681.22 441.081 680.72 436.959 677.712C417.296 663.788 422.751 620.876 448.549 617.445C466.233 615.092 472.203 629.005 473.743 643.369C482.751 638.533 482.996 631.39 489.897 624.279C498.095 615.831 510.1 612.145 519.231 621.474C528.517 630.962 525.567 650.192 525.211 662.585C531.505 650.127 536.993 638.379 541.118 625.006C541.875 622.551 544.631 621.814 546.845 623.211C552.912 631.074 540.536 664.235 547.556 672.752C558.329 677.871 566.581 646.526 568.252 639.858C569.406 635.257 570.81 624.796 575.78 623.278C576.766 623.545 577.46 623.689 578.052 624.634C581.752 630.546 573.125 666.758 578.227 672.609C578.749 673.209 579.144 673.014 579.871 673.034C591.393 665.559 596.237 633.661 599.654 621.019C599.955 619.903 601.059 619.538 601.998 619.179C606.063 619.624 607.161 622.344 606.913 626.098C605.982 640.179 605.397 654.269 605.011 668.364C608.493 656.104 612.388 650.241 618.342 639.163C621.513 633.264 624.681 625.326 626.968 619.006C620.07 610.939 618.218 593.009 632.438 596.572C636.57 601.879 633.524 610.088 632.082 616.216C634.237 617.153 642.021 619.449 644.691 619.805C662.708 622.207 638.555 670.28 648.288 672.967C659.926 667.46 664.252 629.918 666.95 617.734C669.463 606.388 672.218 596.402 676.286 585.439C665.311 581.051 657.021 580.081 645.251 581.974C643.537 585.394 643.481 586.984 639.441 587.512C638.825 586.634 637.584 585.418 636.809 584.596C644.574 570.296 665.409 576.39 677.642 579.052L683.077 561.933ZM627.992 600.194C625.025 604.794 625.797 608.816 628.936 613.046C630.312 608.906 632.036 603.073 627.992 600.194ZM506.061 622.118C499.232 625.296 495.968 630.533 493.482 637.404C490.576 645.433 485.741 667.81 499.998 666.963C506.996 662.914 511.079 653.287 512.752 645.666C514.6 637.251 520.405 620.88 506.061 622.118ZM453.671 623.586C445.644 626.945 439.789 632.309 443.555 642.071C445.517 647.156 450.732 649.385 455.957 649.746C458.403 649.733 462.614 649.963 464.125 647.912C468.243 642.325 465.828 629.24 460.635 624.898C458.561 623.163 456.079 623.416 453.671 623.586ZM438.441 640.762C436.785 649.58 435.176 664.731 440.49 672.37C445.315 679.305 453.661 675.855 457.923 670.233C461.375 664.469 462.922 660.39 463.881 653.697C458.502 654.977 451.887 655.798 446.979 652.753C441.675 649.463 440.922 645.238 438.441 640.762ZM509.792 691.504C504.526 697.639 498.571 700.146 492.284 704.908C483.175 711.807 469.161 727.004 477.728 738.891C484.979 743.845 491.138 736.321 494.837 730.669C501.095 721.109 504.075 710.19 507.02 699.293C507.565 697.278 509.735 693.125 509.792 691.504Z" fill="#2D2668"/>
<path d="M682.688 581.316L686.065 571.25C688.851 573.198 691.397 580.214 690.542 583.366C688.136 582.964 685.086 581.994 682.688 581.316Z" fill="#CFBAF0"/>
<path d="M632.438 596.568C633.884 593.725 636.952 589.476 639.441 587.508C643.481 586.98 643.537 585.39 645.251 581.97C657.021 580.077 665.311 581.047 676.286 585.435C672.218 596.398 669.463 606.384 666.95 617.73C664.252 629.914 659.926 667.456 648.288 672.963C638.555 670.276 662.708 622.203 644.691 619.801C642.021 619.445 634.237 617.149 632.082 616.212C633.524 610.084 636.57 601.875 632.438 596.568Z" fill="#CFBAF0"/>
<path d="M628.935 613.043C625.796 608.813 625.024 604.791 627.991 600.191C632.035 603.07 630.311 608.903 628.935 613.043Z" fill="#E0E3FC"/>
<path d="M311.783 613.42L313.758 612.352C314.088 612.529 314.649 612.793 314.914 613.013L315.063 613.335C321.622 656.945 324.376 702.158 329.506 746.106C332.251 769.621 344.576 787.641 364.345 800.707C368.848 803.683 386.037 810.02 387.09 812.31L386.546 813.314L385.361 813.658C373.895 811.383 363.642 805.41 354.421 798.406C323.919 775.235 325.992 743.712 322.338 709.609L311.783 613.42Z" fill="url(#paint3_linear_2243_42750)"/>
<path d="M697.146 666.856C699.551 669.281 697.679 672.772 698.753 676.069C699.525 678.598 697.799 685.757 697.868 689.489C697.939 693.333 697.708 697.545 698.007 701.494C697.473 718.786 692.275 727.425 679.633 739.517C659.904 758.385 624.347 770.303 597.36 769.087C594.233 768.946 588.318 768.597 585.287 767.873C576.812 765.772 565.971 761.181 559.841 759.852C546.526 751.109 534.981 744.088 525.381 730.761C522.224 726.378 518.635 717.434 513.715 716.734C516.307 710.581 520.893 694.865 521.689 688.194C523.801 670.497 527.783 665.559 536.523 650.566C535.296 659.15 534.97 672.867 544.065 676.814C555.512 681.782 562.798 669.181 566.631 661.263C566.869 663.622 567.216 666.04 567.876 668.284C571.554 680.799 583.153 680.728 589.856 670.527C591.934 667.364 592.936 664.861 594.425 661.36C594.568 664.32 595.329 690.446 606.202 680.658C607.456 678.468 608.51 673.835 609.087 671.704C614.021 653.483 624.615 639.493 630.808 621.453C632.835 621.864 644.174 623.761 643.952 625.938C642.74 637.834 624.215 682.883 651.804 676.51C657.111 675.285 662.69 658.152 664.457 653.28C664.297 662.86 665.05 688.282 677.03 692.841C687.478 696.817 694.471 674.607 697.146 666.856Z" fill="#F1C0E8"/>
<path d="M499.999 666.962C485.742 667.809 490.577 645.432 493.483 637.403C495.969 630.532 499.233 625.295 506.062 622.117C520.406 620.879 514.601 637.25 512.753 645.665C511.08 653.286 506.997 662.913 499.999 666.962Z" fill="#98F5E1"/>
<path d="M455.958 649.746C450.733 649.385 445.518 647.156 443.556 642.071C439.79 632.309 445.645 626.945 453.672 623.586C456.08 623.416 458.562 623.163 460.636 624.898C465.829 629.24 468.244 642.325 464.126 647.912C462.615 649.963 458.404 649.733 455.958 649.746Z" fill="#98F5E1"/>
<path d="M704.566 644.435C704.562 641.146 706.891 634.436 707.983 631.203C708.34 648.595 708.45 655.951 706.92 673.465C704.427 695.47 701.884 717.468 698.685 739.148C695.462 760.986 697.234 778.921 677.048 792.815C674.215 794.765 671.026 797.414 668.037 799.497L667.168 795.567C668.392 794.336 673.929 790.538 675.514 789.336C686.245 781.314 690.888 770.334 692.29 757.216C694.324 738.174 698.261 719.064 700.304 700.022C701.585 691.105 702.538 681.408 703.596 672.407C704.077 666.189 705.583 649.878 704.566 644.435Z" fill="#6F5E48"/>
<path d="M142.138 641.622C141.197 642.22 140.006 642.258 139.028 641.723C138.051 641.188 137.442 640.163 137.438 639.048C137.435 637.934 138.039 636.906 139.013 636.365C140.46 635.562 142.283 636.055 143.128 637.477C143.973 638.899 143.535 640.735 142.138 641.622Z" fill="#FEFEFC"/>
<path d="M457.923 670.233C453.661 675.855 445.315 679.305 440.49 672.37C435.176 664.731 436.786 649.58 438.442 640.762C440.923 645.238 441.675 649.463 446.979 652.753C451.887 655.798 458.503 654.977 463.882 653.697C462.923 660.39 461.375 664.469 457.923 670.233Z" fill="#98F5E1"/>
<path d="M704.565 644.438C705.582 649.88 704.076 666.192 703.595 672.41C701.082 673.545 700.693 674.078 698.753 676.07C697.679 672.773 699.551 669.282 697.146 666.857C697.716 663.181 702.933 649.047 704.565 644.438Z" fill="#FE9CED"/>
<path d="M194.021 856.701C190.811 855.037 176.865 835.76 175.942 831.96C170.178 808.234 165.458 783.557 160.165 759.684L145.795 697.726C143.161 686.131 140.487 680.391 139.633 668.398C140.023 668.745 156.076 719.469 159.694 724.953C165.221 736.858 169.273 752.449 171.066 765.115C175.353 795.402 190.353 826.883 194.021 856.701Z" fill="#B9FBC0"/>
<path d="M706.92 673.465C710.296 672.789 713.13 670.859 716.488 669.449C713.984 688.84 710.885 708.463 708.157 727.502C703.662 758.882 710.015 779.501 681.09 800.157C649.799 822.503 611.259 835.78 573.086 838.685C572.651 835.532 572.643 834.658 572.759 831.511C575.365 831.004 584.399 829.735 585.078 826.711C582.371 825.095 576.56 826.562 573.322 827.118C573.017 823.879 573.363 819.746 573.417 816.451C573.706 798.697 578.032 786.065 584.02 769.802L585.288 767.871C588.319 768.595 594.234 768.944 597.361 769.085C624.348 770.301 659.905 758.383 679.634 739.515C692.276 727.423 697.474 718.784 698.008 701.492C698.922 701.968 698.481 701.676 699.324 702.378L699.417 702.241C698.953 701.447 699.154 701.794 699.173 700.65L700.304 700.022C698.261 719.064 694.324 738.174 692.29 757.216C690.888 770.334 686.245 781.314 675.514 789.336C673.929 790.538 668.392 794.336 667.168 795.567C665.281 794.692 666.231 794.796 664.223 795.208C663.266 796.067 662.829 796.398 662 797.401C656.862 805.879 641.593 806.746 638.806 810.556C633.352 813.118 631.006 811.277 625.865 815.502C625.425 815.407 624.985 815.311 624.545 815.216C619.489 817.651 602.365 820.001 599.406 822.789L599.44 823.538C604.632 826.16 621.138 821.032 626.022 818.303C632.263 818.898 636.159 817.391 640.369 812.769C646.783 811.437 661.717 804.062 667.024 800.031L668.037 799.497C671.026 797.414 674.215 794.765 677.048 792.815C697.234 778.921 695.462 760.986 698.685 739.148C701.884 717.468 704.427 695.47 706.92 673.465Z" fill="#FBF8CC"/>
<path d="M208.298 874.595C208.795 861.416 210.462 851.662 209.801 837.675C208.557 805.938 197.273 776.111 185.011 747.245C176.099 726.263 167.015 706.507 154.755 687.21C151.932 682.767 146.067 674.475 144.318 669.855C147.793 671.478 164.181 689.188 166.813 692.74C192.258 727.067 205.948 772.158 215.295 813.416C219.921 833.832 219.576 861.821 217.255 882.941C215.091 882.566 210.312 876.656 208.298 874.595Z" fill="#B9FBC0"/>
<path d="M698.754 676.066C700.694 674.074 701.082 673.541 703.595 672.406C702.537 681.407 701.584 691.104 700.303 700.021L699.173 700.649C699.154 701.793 698.953 701.446 699.417 702.24L699.324 702.377C698.481 701.675 698.922 701.967 698.008 701.491C697.709 697.542 697.939 693.33 697.868 689.486C697.799 685.754 699.526 678.595 698.754 676.066Z" fill="#FDE4CF"/>
<path d="M149.289 776.887C146.318 768.868 143.35 762.226 140.848 753.876C133.243 728.493 134.627 703.248 138.187 677.406C139.2 679.233 144.046 706.457 144.363 709.783C146.054 727.572 147.308 746.208 148.282 764.124C148.443 767.081 150.32 775.436 149.865 777.371L149.289 776.887Z" fill="#B9FBC0"/>
<path d="M203.417 813.598C198.477 809.411 180.254 762.924 175.89 754.102C171.354 744.931 164.631 728.24 160.437 718.274C155.851 707.377 147.218 688.311 145.488 677.383C147.237 679.288 152.572 688.785 154.003 691.306C169.392 718.404 200.591 783.716 203.417 813.598Z" fill="#B9FBC0"/>
<path d="M357.731 741.672C353.342 736.43 351.55 730.169 354.349 723.602C362.981 703.353 382.609 694 401.445 685.504L401.881 685.942C402.371 692.392 394.546 715.135 391.731 721.545C387.036 732.236 370.757 752.467 357.731 741.672Z" fill="#B9FBC0"/>
<path d="M477.729 738.891C469.162 727.004 483.176 711.807 492.285 704.908C498.572 700.146 504.527 697.639 509.793 691.504C509.736 693.125 507.566 697.278 507.021 699.293C504.076 710.19 501.096 721.109 494.838 730.669C491.139 736.321 484.98 743.845 477.729 738.891Z" fill="#D4ECED"/>
<path d="M170.421 823.537C168.413 821.733 165.376 813.497 164.098 810.496C159.903 800.648 153.52 791.091 152.246 780.337C150.746 767.671 150.231 754.985 149.796 742.25C149.478 734.284 147.902 726.446 148.094 718.379C149.368 720.942 151.756 734.747 152.532 738.435C157.429 761.714 163.52 784.989 167.511 808.39C168.372 813.437 169.72 818.479 170.421 823.537Z" fill="#B9FBC0"/>
<path d="M205.366 870.655L204.681 870.672C203.243 869.235 198.305 863.921 198.003 862.24C191.057 823.583 176.671 787.296 170.533 748.391C174.85 751.983 191.789 805.217 203.954 817.016C207.002 834.032 206.462 853.418 205.366 870.655Z" fill="#B9FBC0"/>
<path d="M559.842 759.852C565.972 761.181 576.813 765.772 585.288 767.873L584.02 769.804C566.107 767.989 541.917 770.616 523.846 771.714C536.256 764.635 545.859 761.438 559.842 759.852Z" fill="#98F5E1"/>
<path d="M662 797.403C662.829 796.4 663.266 796.069 664.223 795.21C666.231 794.798 665.281 794.694 667.168 795.569L668.037 799.499L667.024 800.033C664.816 799.247 664.025 798.66 662 797.403Z" fill="#FEFEFC"/>
<path d="M638.805 810.557C641.592 806.747 656.861 805.88 661.999 797.402C664.024 798.659 664.815 799.246 667.023 800.032C661.716 804.063 646.782 811.438 640.368 812.77L638.805 810.557Z" fill="url(#paint4_linear_2243_42750)"/>
<path d="M625.863 815.505C631.004 811.28 633.35 813.121 638.804 810.559L640.367 812.772C636.157 817.394 632.261 818.901 626.02 818.306L625.863 815.505Z" fill="#FEFEFC"/>
<path d="M626.02 818.306C621.136 821.035 604.63 826.163 599.438 823.541L599.404 822.792C602.363 820.004 619.487 817.654 624.543 815.219C624.983 815.314 625.423 815.41 625.863 815.505L626.02 818.306Z" fill="#6F5E48"/>
<path d="M686.125 821.331C685.07 821.962 683.756 821.974 682.69 821.361C681.623 820.748 680.971 819.607 680.985 818.377C680.999 817.148 681.677 816.022 682.757 815.434C684.381 814.549 686.414 815.126 687.331 816.732C688.248 818.337 687.712 820.381 686.125 821.331Z" fill="#FEFEFC"/>
<path d="M428.381 824.303C422.673 823.154 407.849 820.968 403.386 818.779C402.886 817.166 403.251 817.114 403.775 815.152C407.214 815.789 425.94 819.853 427.962 820.915C428.796 822.531 428.504 822.194 428.381 824.303Z" fill="#545444"/>
<path d="M725.741 824.448C723.923 825.158 721.874 824.251 721.176 822.428C720.479 820.605 721.399 818.563 723.226 817.877C725.037 817.198 727.056 818.108 727.747 819.914C728.439 821.72 727.542 823.745 725.741 824.448Z" fill="#FEFEFC"/>
<path d="M476.628 830.224C473.436 830.696 453.028 828.825 449.303 827.837C448.005 826.172 448.429 826.283 448.227 823.734C454.172 824.509 471.092 825.952 475.749 827.187C476.829 828.412 476.478 828.177 476.628 830.224Z" fill="#545444"/>
<path d="M572.757 831.513C568.711 832.228 552.253 834.741 550.486 831.133L550.989 829.919C552.447 828.478 569.58 827.549 573.32 827.12C576.558 826.564 582.369 825.097 585.076 826.713C584.397 829.737 575.363 831.006 572.757 831.513Z" fill="#6F5E48"/>
<path d="M754.529 832.573C753.118 832.728 753.199 832.715 751.813 832.368C749.232 829.926 749.841 827.932 751.699 825.242C753.064 825.325 753.339 825.421 754.678 825.767C757.285 828.355 756.459 829.87 754.529 832.573Z" fill="#FEFEFC"/>
<path d="M525.302 832.414C520.169 833.109 500.215 833.81 496.081 832.048C495.12 830.446 495.468 830.634 495.533 828.397C500.277 828.36 505.651 828.794 510.505 828.852C514.867 828.904 520.416 828.542 524.596 828.947C525.673 830.493 525.318 830.115 525.302 832.414Z" fill="#545444"/>
<path d="M706.253 842.154C704.538 842.761 702.643 841.956 701.89 840.3C701.136 838.644 701.774 836.687 703.358 835.793C704.513 835.141 705.936 835.196 707.037 835.935C708.138 836.674 708.728 837.971 708.562 839.286C708.396 840.602 707.503 841.711 706.253 842.154Z" fill="#FEFEFC"/>
<path d="M654.295 841.933C651.835 841.724 651.11 841.62 650.092 839.26C650.432 837.027 650.173 837.836 651.741 835.951C653.05 835.936 653.748 836.035 655.039 836.181C656.584 837.352 656.124 836.616 656.586 838.385C656.014 840.384 655.849 840.439 654.295 841.933Z" fill="#FEFEFC"/>
<path d="M621.122 848.647C615.583 847.005 614.317 842.17 619.592 838.793C625.851 840.449 624.724 844.939 621.122 848.647Z" fill="#FEFEFC"/>
<path d="M604.701 849.834C600.734 849.914 601.04 846.036 602.065 843.371C604.436 843.557 605.033 843.446 606.078 845.656C605.962 847.714 605.706 847.95 604.701 849.834Z" fill="#FEFEFC"/>
<path d="M777.905 852.204C776.172 852.911 774.19 852.118 773.423 850.411C772.656 848.704 773.379 846.696 775.057 845.87C776.197 845.308 777.553 845.414 778.592 846.145C779.631 846.876 780.188 848.116 780.045 849.378C779.902 850.641 779.081 851.724 777.905 852.204Z" fill="#FEFEFC"/>
<path d="M734.094 855.781C728.034 857.896 726.891 852.095 729.998 847.511C736.638 846.906 738.729 851.174 734.094 855.781Z" fill="#FEFEFC"/>
<path d="M678.325 857.191C672.13 856.989 671.235 852.358 675.439 848.363C681.163 848.578 682.473 853.843 678.325 857.191Z" fill="#FEFEFC"/>
<path d="M652.289 859.263C650.809 860.1 648.932 859.61 648.05 858.156C647.168 856.702 647.602 854.81 649.028 853.885C649.99 853.261 651.216 853.21 652.227 853.752C653.237 854.293 653.873 855.342 653.886 856.489C653.899 857.636 653.287 858.699 652.289 859.263Z" fill="#FEFEFC"/>
<path d="M757.054 873.349C751.8 871.951 749.987 868.377 754.589 864.355C760.842 865.712 760.721 869.135 757.054 873.349Z" fill="#FEFEFC"/>
<path d="M699.758 871.704C695.582 872.01 695.043 867.764 697.236 864.793C700.006 865.022 701.1 864.979 701.942 867.695C701.621 869.775 701.192 870.017 699.758 871.704Z" fill="#FEFEFC"/>
<path d="M781.85 873.383L785.162 871.789C787.408 873.472 791.605 877.121 789.138 879.436C783.607 884.628 781.999 876.403 781.85 873.383Z" fill="#FEFEFC"/>
<path d="M611.191 878.425C609.955 879.142 608.374 878.773 607.585 877.582C606.795 876.391 607.069 874.79 608.211 873.931C609.013 873.327 610.084 873.217 610.991 873.647C611.899 874.076 612.494 874.972 612.536 875.975C612.578 876.978 612.06 877.921 611.191 878.425Z" fill="#FEFEFC"/>
<path d="M642.962 883.527C637.278 884.997 636.734 879.537 638.016 875.445C643.885 875.427 648.309 877.699 642.962 883.527Z" fill="#FEFEFC"/>
<path d="M717.462 882.577C714.765 882.722 713.331 882.755 712.379 880.076C712.653 878.027 712.883 877.946 714.379 876.364C716.932 876.321 718.489 876.346 719.338 878.935C719.093 880.743 718.578 881.146 717.462 882.577Z" fill="#FEFEFC"/>
<path d="M679.753 883.524C677.621 883.697 677.566 883.596 676.206 882.218C675.61 880.19 675.728 880.005 676.09 877.852C678.229 877.901 679.178 877.857 680.678 879.49C681.031 881.389 680.626 881.797 679.753 883.524Z" fill="#FEFEFC"/>
<path d="M752.032 886.96C753.602 886.52 754.769 885.999 756.275 885.395C757.84 886.35 759.405 887.223 760.793 888.422C760.567 892.032 760.973 895.42 756.264 895.776C751.795 894.303 751.933 890.982 752.032 886.96Z" fill="#FEFEFC"/>
<path d="M806.791 900.83C804.075 901.144 802.948 900.913 802.115 898.285C802.309 896.481 802.743 896.26 804.004 894.955C806.551 894.875 808.198 895.072 808.924 897.7C808.291 899.825 808.553 899.123 806.791 900.83Z" fill="#FEFEFC"/>
<path d="M676.789 900.263C678.363 898.342 677.661 898.681 679.76 897.898C681.729 898.191 682.398 899.028 683.662 900.562C682.403 902.374 681.685 904.011 679.41 904.186C677.804 903.278 677.541 902.011 676.789 900.263Z" fill="#FEFEFC"/>
<path d="M758.314 916.077C757.458 916.454 756.465 916.327 755.731 915.748C754.998 915.17 754.643 914.233 754.81 913.314C754.977 912.394 755.638 911.642 756.529 911.358C757.808 910.95 759.184 911.615 759.659 912.871C760.134 914.128 759.543 915.536 758.314 916.077Z" fill="#FEFEFC"/>
<path d="M731.788 926.629C729.855 925.467 728.623 925.013 728.305 922.689C729.098 921.067 730.102 920.731 731.684 919.816C732.395 919.993 733.034 920.275 733.726 920.539C735.767 923.396 734.12 924.794 731.788 926.629Z" fill="#FEFEFC"/>
<path d="M805.664 932.017C799.265 931.271 798.814 924.932 804.069 921.445C811.361 921.943 811.35 928.793 805.664 932.017Z" fill="#FEFEFC"/>
<path d="M775.685 931.674C770.244 931.427 767.454 927.543 771.195 922.936C777.791 922.688 779.845 926.835 775.685 931.674Z" fill="#FEFEFC"/>
<path d="M621.853 937.546C620.828 938.142 619.56 938.137 618.54 937.534C617.519 936.93 616.904 935.822 616.931 934.637C616.959 933.451 617.625 932.374 618.673 931.819C620.25 930.984 622.205 931.564 623.071 933.124C623.937 934.683 623.395 936.649 621.853 937.546Z" fill="#FEFEFC"/>
<path d="M682.711 948.068C680.776 946.508 678.741 945.276 678.381 942.839C678.838 940.964 679.714 940.544 681.229 939.305C686.532 939.576 686.116 944.622 682.711 948.068Z" fill="#FEFEFC"/>
<path d="M770.484 949.815C766.151 949.973 763.617 946.699 764.379 942.541C770.439 942.101 773.757 943.223 770.484 949.815Z" fill="#FEFEFC"/>
<path d="M794.242 963.106C789.873 961.387 790.03 957.727 794.018 955.34C795.566 955.799 795.487 955.722 796.687 956.784C798.125 959.929 797.012 961.67 794.242 963.106Z" fill="#FEFEFC"/>
<path d="M656.414 965.629C654.349 964.651 653.646 964.171 652.924 962.035C653.286 960.148 653.662 960.003 655.088 958.734C657.117 959.431 657.251 959.859 657.859 961.708C657.543 963.864 657.559 963.755 656.414 965.629Z" fill="#FEFEFC"/>
<path d="M734.654 971.178C728.86 972.388 728.157 968.473 728.615 963.965C731.511 964.083 734.11 964.462 735.521 967.217C735.72 969.184 735.483 969.426 734.654 971.178Z" fill="#FEFEFC"/>
<path d="M769.988 971.737C767.291 971.549 765.564 971.328 764.779 968.567C765.076 966.576 765.895 965.904 767.201 964.254C772.7 964.787 773.916 967.566 769.988 971.737Z" fill="#FEFEFC"/>
<defs>
<linearGradient id="paint0_linear_2243_42750" x1="450.854" y1="843.767" x2="529.796" y2="246.457" gradientUnits="userSpaceOnUse">
<stop stop-color="#686E45"/>
<stop offset="1" stop-color="#62495B"/>
</linearGradient>
<linearGradient id="paint1_linear_2243_42750" x1="333.315" y1="512.553" x2="285.254" y2="519.247" gradientUnits="userSpaceOnUse">
<stop stop-color="#F6F5F5"/>
<stop offset="1" stop-color="#FFEBFB"/>
</linearGradient>
<linearGradient id="paint2_linear_2243_42750" x1="638.549" y1="524.532" x2="753.908" y2="569.523" gradientUnits="userSpaceOnUse">
<stop stop-color="#FFACDA"/>
<stop offset="1" stop-color="#F7BEFD"/>
</linearGradient>
<linearGradient id="paint3_linear_2243_42750" x1="315.444" y1="725.454" x2="352.204" y2="711.097" gradientUnits="userSpaceOnUse">
<stop stop-color="#55813F"/>
<stop offset="1" stop-color="#5E7148"/>
</linearGradient>
<linearGradient id="paint4_linear_2243_42750" x1="653.432" y1="798.206" x2="651.08" y2="812.715" gradientUnits="userSpaceOnUse">
<stop stop-color="#715D45"/>
<stop offset="1" stop-color="#6B5954"/>
</linearGradient>
</defs>
</svg>
