<svg width="1024" height="1024" viewBox="0 0 1024 1024" fill="none" xmlns="http://www.w3.org/2000/svg">
<path d="M494.464 205.463C488.524 205.442 481.639 205.293 475.786 205.83C450.558 207.902 426.898 218.913 409.067 236.879C389.014 256.965 377.805 284.222 377.926 312.604C378 332.262 381.603 342.544 387.215 360.324C374.42 365.337 377.397 375.913 378.245 387.009C379.322 401.107 391.362 437.534 409.702 436.021C412.322 437.612 416.88 454.146 418.543 457.943C421.902 465.612 430.616 478.417 432.23 485.58C432.967 488.853 435.247 507.55 433.771 509.967C433.395 510.581 432.723 511.164 432.206 511.667C430.601 501.003 422.531 488.368 413.82 482.096C386.992 462.778 346.018 471.575 336.849 505.502C335.428 510.758 335.621 516.17 334.502 521.317C330.187 518.832 322.779 514.491 318.33 512.575C317.457 505.572 317.543 491.333 317.497 484.033C325.191 484.317 334.427 482.315 340.866 478.161C393.767 444.029 353.894 369.469 295.656 388.434C281.64 392.998 272.553 403.592 266.59 416.52C260.818 429.321 260.284 443.872 265.103 457.062C254.629 460.08 250.667 461.12 253.236 473.651C253.757 476.192 255.595 477.004 257.7 478.098L258.397 478.455L259.054 478.802C259.136 483.77 259.171 488.74 259.16 493.709C255.105 493.235 247.381 489.292 242.815 487.909C228.475 483.566 214.869 482.255 200.027 482.431C210.79 448.511 218.683 405.911 212.568 370.754C200.755 302.846 207.836 245.201 259.948 194.27C291.804 162.583 334.977 144.901 379.908 145.139C417.525 145.654 460.812 162.434 484.713 192.751C487.959 196.869 490.224 201.151 494.003 205L494.464 205.463ZM280.179 317.772C276.742 318.47 274.53 321.832 275.249 325.265C275.969 328.697 279.345 330.888 282.773 330.147C286.171 329.412 288.338 326.072 287.624 322.67C286.911 319.268 283.585 317.08 280.179 317.772ZM224.979 321.489C216.59 325.725 218.596 335.438 227.895 334.541C229.932 333.475 231.463 332.622 232.155 330.26C232.72 328.374 232.427 326.335 231.353 324.684C229.772 322.241 227.801 321.509 224.979 321.489ZM262.133 341.06C259.917 341.574 258.149 343.242 257.506 345.425C256.863 347.607 257.445 349.967 259.028 351.601C260.612 353.234 262.952 353.889 265.154 353.315C268.494 352.443 270.514 349.049 269.688 345.697C268.862 342.345 265.496 340.279 262.133 341.06ZM302.045 355.949C298.466 358.903 296.311 363.06 300.264 366.875C302.518 369.051 305.446 368.591 308.332 368.396C314.652 361.486 310.382 355.822 302.045 355.949ZM222.933 364.303C219.755 365.774 218.381 369.551 219.873 372.721C221.364 375.89 225.149 377.24 228.309 375.729C231.441 374.232 232.777 370.486 231.299 367.345C229.821 364.204 226.084 362.845 222.933 364.303ZM263.33 378.08C260.155 379.341 258.586 382.923 259.811 386.112C261.037 389.301 264.601 390.91 267.803 389.72C269.907 388.939 271.429 387.087 271.787 384.871C272.146 382.656 271.286 380.418 269.536 379.013C267.786 377.608 265.416 377.252 263.33 378.08ZM226.334 407.966C217.629 411.858 220.577 420.383 230.056 420.052C237.22 415.435 233.723 408.61 226.334 407.966ZM222.526 442.481C215.116 445.55 215.601 455.68 225.031 456.088C233.243 451.65 231.083 442.891 222.526 442.481Z" fill="#FFCFD2"/>
<path d="M589.485 240.366C591.975 237.368 594.292 234.251 596.773 231.256C662.45 151.983 788.572 157.808 863.7 219.789C902.746 252.004 929.007 297.985 933.616 348.643C937.255 392.138 923.639 435.319 895.708 468.86C890.05 475.693 876.727 489.338 870.196 494.959C871.348 488.761 872.962 481.648 873.386 475.445C876.48 430.118 845.229 389.333 800.412 381.01C775.075 376.305 753.496 381.192 731.937 395.534C712.968 408.111 697.004 432.688 693.021 455.197C688.283 481.977 697.239 509.431 712.713 531.363C714.034 533.235 714.938 534.238 716.751 535.618C718.49 542.907 718.549 546.726 718.949 554.156C664.694 538.899 624.755 502.212 598.891 453.213C597.159 449.931 590.118 435.028 588.609 434.04C588.632 432.129 589.301 427.453 589.543 425.354C590.153 425.763 590.767 426.165 591.385 426.561C606.976 436.388 612.271 415.82 612.211 404.257C612.132 388.943 630.296 364.397 610.352 353.96C618.237 332.905 619.352 321.98 616.923 299.007C614.723 278.197 606.362 253.858 589.485 240.366ZM700.007 205.638C690.703 206.253 683.658 214.293 684.272 223.597C684.886 232.901 692.926 239.946 702.231 239.332C711.535 238.719 718.581 230.678 717.967 221.373C717.352 212.068 709.311 205.023 700.007 205.638ZM736.812 259.001C732.039 263.055 732.526 269.435 739.529 270.139C744.237 265.724 743.949 260.121 736.812 259.001ZM767.808 259.382C766.091 260.663 764.825 261.71 764.513 264.008C764.296 265.571 764.787 267.149 765.853 268.314C767.257 269.875 768.167 269.924 770.149 270.243C774.75 265.814 774.943 260.649 767.808 259.382ZM734.159 294.363C731.747 295.07 730.365 297.597 731.072 300.009C731.778 302.421 734.305 303.804 736.717 303.099C739.13 302.393 740.514 299.864 739.807 297.451C739.101 295.038 736.572 293.655 734.159 294.363ZM763.013 301.889C757.667 306.151 759.084 310.233 765.15 312.186C769.395 308.355 769.638 302.476 763.013 301.889ZM803.175 329.732C796.542 331.98 792.974 339.165 795.191 345.808C797.408 352.45 804.577 356.052 811.23 353.866C817.926 351.665 821.557 344.439 819.325 337.752C817.094 331.066 809.85 327.469 803.175 329.732ZM696.755 341.179C686.672 342.679 679.741 352.108 681.32 362.179C682.898 372.251 692.38 379.108 702.439 377.451C712.388 375.813 719.154 366.457 717.593 356.495C716.032 346.534 706.729 339.696 696.755 341.179ZM651.033 476.332C645.898 477.844 642.353 482.531 642.295 487.883C642.237 493.235 645.68 497.998 650.781 499.62C653.222 500.396 655.846 500.383 658.279 499.583C664.596 497.504 668.078 490.741 666.099 484.391C664.12 478.042 657.413 474.454 651.033 476.332Z" fill="#B9FBC0"/>
<path d="M387.217 360.325C381.605 342.545 378.002 332.263 377.928 312.605C377.807 284.223 389.016 256.966 409.069 236.88C426.9 218.914 450.56 207.903 475.788 205.831C481.641 205.294 488.526 205.443 494.466 205.464C517.457 207.288 535.787 211.656 551.059 229.93C552.894 232.126 555.57 235.232 556.529 237.895C556.757 252.496 551.439 259.99 542.414 271.016C555.099 274.637 564.032 279.878 570.594 291.771C574.765 299.331 577.312 310.628 577.474 319.122C577.675 329.639 577.386 332.411 585.852 339.975C591.731 345.229 595.787 355.906 595.503 363.809C595.304 366.813 595.197 368.076 595.545 371.147L596.17 371.388C599.243 364.713 602.578 362.25 606.584 356.541L606.37 355.83C605.265 355.685 605.081 355.731 604.014 355.92L603.027 356.101L601.987 355.332C606.577 350.155 609.378 350.756 611.614 341.03C617.318 316.224 614.426 282.653 601.662 260.396C595.152 248.645 584.606 237.029 570.218 236.628C567.599 236.555 561.568 237.684 559.911 236.736C568.684 229.233 581.193 235.602 589.487 240.369C606.364 253.861 614.725 278.2 616.925 299.01C619.354 321.983 618.239 332.908 610.354 353.963C630.298 364.4 612.134 388.946 612.213 404.26C612.273 415.823 606.978 436.391 591.387 426.564C590.769 426.168 590.155 425.766 589.545 425.357C589.303 427.456 588.634 432.132 588.611 434.043C584.322 460.918 578.122 485.592 576.834 513.163C583.347 515.709 602.281 532.13 607.503 537.91C610.202 540.896 612.274 543.985 614.255 547.474C619.962 550.256 624.606 554.431 630.183 557.114C651.975 567.599 681.578 578.798 701.891 591.303C705.872 593.15 710.918 596.404 714.772 598.736C718.344 582.068 719.106 571.084 718.951 554.159C718.551 546.729 718.492 542.91 716.753 535.621C715.861 529.765 712.76 520.631 710.189 515.391C711.729 515.807 712.576 516.247 714.016 515.638C715.282 520.675 717.872 526.053 719.299 531.875C719.989 535.872 720.78 540.963 721.789 544.868C723.475 563.23 722.629 583.753 718.104 601.678C728.383 608.31 738.83 614.804 744.702 626.018C747.98 632.28 751.15 640.742 750.263 647.933L749.52 648.696L748.212 648.405C746.576 645.322 745.312 637.863 744.008 634.17C738.98 619.936 729.145 612.607 717.03 604.926C710.723 624.017 702.056 637.618 692.737 655.251C689.971 660.485 683.994 671.676 682.001 677.16L681.414 679.008C682.206 679.964 682.696 680.334 683.631 681.141L681.18 680.304C676.931 683.603 662.943 728.125 660.328 736.325C656.778 747.454 657.152 754.33 662.941 764.374C661.268 766.122 661.924 765.576 659.103 766.097C648.143 748.227 656.754 733.181 662.629 715.194C671.471 688.119 683.193 663.03 697.24 638.321C703.538 627.243 710.397 614.546 713.757 602.311C709.279 599.394 704.111 596.447 699.488 593.685C687.738 587.594 678.048 582.518 666.042 576.988C650.836 569.983 630.141 562.245 617.027 552.641C622.288 563.546 635.536 609.344 619.374 616.996C613.14 619.947 590.464 621.071 582.59 621.694C591.8 628.648 608.515 639.789 610.291 651.535C612.047 663.145 597.787 680.852 590.997 689.775C583.61 699.21 576.449 709.033 568.288 717.821C554.055 733.148 538.782 746.119 529.365 765.282C525.081 773.998 521.948 781.864 518.783 791.046C518.422 792.091 517.616 793.06 516.585 793.504C514.573 791.65 518.585 782.214 519.598 779.482C524.102 767.245 530.461 755.774 538.453 745.47C545.67 736.123 554.59 728.333 562.529 719.636C573.426 707.7 607.323 668.602 607.237 653.447C607.209 648.645 603.766 644.137 600.624 640.753C593.1 632.649 583.203 625.772 574.17 619.45L575.037 619.299C584.713 617.653 614.922 618.361 621.142 611.575C626.138 606.123 622.107 579.611 620.586 571.947C615.347 545.544 598.077 530.968 576.714 515.941C584.902 534.487 583.662 560.405 575.136 578.119C565.248 598.663 561.479 613.854 555.444 635.518C551.966 647.566 548.24 659.541 544.267 671.434C528.217 718.811 507.557 764.992 496.684 814.091C496.474 815.042 496.152 815.485 495.577 816.222L494.659 816.34C492.316 813.791 495.892 804.23 496.847 800.702C500.566 786.424 504.894 772.31 509.818 758.401C509.093 756.766 508.344 755.117 507.638 753.475C500.637 733.982 491.456 714.259 484.057 694.677C472.512 664.12 462.84 633.221 451.466 602.679C448.401 594.45 447.329 595.389 443.282 588.591C439.371 582.023 434.097 568.789 432.599 561.275C429.631 546.395 427.661 528.537 434.038 514.395C415.423 537.872 398.562 556.487 389.314 585.791C382.448 607.548 381.439 625.588 411.273 621.784C416.262 621.148 428.317 617.417 432.456 618.368L433.148 619.034C432.173 621.137 426.502 624.797 424.578 626.602C415.032 635.55 399.889 647.927 405.532 662.742C413.308 683.157 429.673 697.418 444.734 712.626C456.008 723.986 467.17 735.458 478.216 747.041C482.265 751.211 490.841 758.456 492.316 763.56L491.307 763.985C488.877 762.989 477.588 750.516 474.917 747.774L444.794 717.098C429.831 701.788 402.595 678.322 401.093 654.887C400.417 644.355 417.64 629.007 424.913 621.965C419.309 622.923 413.393 624.407 407.769 624.909C364.261 628.79 387.954 577.989 397.749 558.522C392.814 560.667 383.59 565.029 378.854 566.553C361.38 572.173 347.56 575.898 330.916 583.857L320.611 588.649C320.805 595.875 320.935 603.102 321 610.33C321.44 630.455 322.823 637.652 332.431 655.555C340.646 671.829 347.336 688.897 355.171 705.335C358.575 712.477 366.615 723.624 367.24 731.105C370.293 767.658 337.482 776.06 310.015 780.012C282.357 783.181 230.972 779.381 217.582 749.295C211.156 734.855 217.174 720.766 223.077 707.107C227.848 697.411 233.369 688.225 238.459 678.718C242.529 671.117 246.298 663.129 250.091 655.374C254.025 647.685 259.719 637.495 265.062 630.667C277.797 614.39 299.763 597.083 317.966 587.233C316.033 567.088 317.441 546.384 316.194 526.781L315.943 521.751C315.926 518.744 315.699 515.249 315.576 512.205C315.306 504.551 315.502 488.114 314.747 481.533C313.618 480.658 311.934 480.714 310.419 480.559C322.423 479.582 315.941 479.039 320.525 473.341L320.33 477.19C318.508 480.906 316.58 479.983 317.499 484.034C317.545 491.334 317.459 505.573 318.332 512.576C318.517 517.579 318.729 522.582 318.97 527.582L319.142 534.015C319.202 538.755 319.251 562.804 319.848 565.949C319.992 572.576 320.131 578.95 320.54 585.567C323.452 584.175 327.464 582.106 330.362 580.929C338.587 577.128 344.74 574.635 353.332 571.759L359.112 569.928C362.668 568.599 368.876 566.862 372.667 565.675C381.242 562.64 393.146 556.328 399.822 554.355C408.357 540.961 418.902 529.859 427.881 517.035L432.208 511.668C432.725 511.165 433.397 510.582 433.773 509.968C435.249 507.551 432.969 488.854 432.232 485.581C430.618 478.418 421.904 465.613 418.545 457.944C416.882 454.147 412.324 437.613 409.704 436.022C391.364 437.535 379.324 401.108 378.247 387.01C377.399 375.914 374.422 365.338 387.217 360.325ZM416.188 366.964L415.502 367.26C418.497 365.235 420.897 364.267 421.75 360.867L423.271 360.752C427.115 359.01 430.861 357.407 434.956 356.349C454.186 351.377 480.859 353.983 490.412 373.927C497.448 369.352 501.464 369.793 508.985 373.036L509.606 372.371C509.608 371.99 509.618 371.608 509.636 371.226C509.832 367.619 515.841 362.101 518.581 359.833C539.474 342.542 569.138 348.629 585.688 368.078L592.846 365.697C592.349 357.979 589.868 348.484 584.569 342.635C581.37 339.104 577.106 336.105 575.583 331.451C574.31 327.468 574.587 322.875 574.309 318.734C573.322 304.044 568.577 288.455 555.706 279.919C550.381 276.389 546.336 275.208 540.181 273.7C505.643 307.331 479.551 274.299 442.469 285.245C410.59 294.656 423.049 352.104 394.837 362.237C400.013 366.073 407.206 373.012 412.612 375.421C414.597 372.343 415.174 370.349 416.188 366.964ZM605.535 361.83L604.766 361.886C603.656 363.282 602.236 364.568 602.062 366.091L601.64 366.659C596.424 373.818 596.782 385.176 594.157 387.007C593.225 384.507 593.528 373.567 593.055 369.401C590.759 370.712 589.244 371.517 587.139 373.159C586.376 380.976 585.933 385.634 582.28 392.629C569.648 416.816 535.019 423.936 516.747 401.263C515.544 399.749 514.357 398.221 513.188 396.68C512.229 403.793 512.53 407.513 513.807 414.331C515.412 422.906 525.231 435.821 515.395 442.241C509.256 446.247 495.373 450.81 489.591 444.171L490.495 443.041C491.429 443.455 493.705 444.862 494.695 445.442C497.971 445.618 499.932 445.584 502.936 444.808C526.888 438.62 516.227 431.445 511.651 414.656C509.712 407.543 511.572 396.277 510.522 388.653C510.064 385.326 509.172 379.059 506.056 376.71C503.204 375.24 494.821 374.034 492.937 377.943C491.504 381.67 491.154 385.972 490.365 389.926C487.615 403.704 476.542 414.342 462.963 418.137C453.129 420.944 442.579 419.681 433.685 414.633C422.503 408.27 418.156 398.006 414.809 386.139C414.07 385.848 410.819 384.57 410.471 384.113C405.282 377.117 400.747 371.153 393.785 365.709C389.502 362.359 384.521 361.799 381.792 367.117C377.777 374.94 381.592 390.126 383.445 398.282C386.101 409.977 392.646 424.624 403.001 431.39C404.335 432.197 407.311 433.528 408.924 433.052C410.115 429.301 407.858 423.55 408.281 418.996C410.953 423.023 414.253 437.34 416.299 443.163C421.083 456.902 427.514 470.012 435.451 482.204C438.364 486.711 444.775 495.885 448.451 499.275C460.228 509.448 480.13 525.801 495.569 528.833C524.533 534.523 545.996 519.406 562.876 497.525C579.405 476.1 582.656 457.173 586.002 431.142C586.716 425.59 586.869 418.764 587.937 413.481L589.012 412.896C590.93 413.902 589.198 419.411 591.409 422.442C594.584 426.793 599.638 427.153 603.574 423.314C611.255 415.415 607.648 404.246 610.122 394.707C611.97 389.783 613.673 384.485 615.738 379.645C618.258 373.739 617.969 358.263 609.961 357.144C608.282 357.667 606.85 360.198 605.535 361.83ZM253.131 656.171C248.776 664.658 244.519 673.364 240.085 681.768C234.864 691.664 229.373 701.042 224.504 711.176C218.913 724.897 214.291 734.069 220.407 748.721C230.945 773.968 281.1 780.725 303.763 777.503C319.003 777.8 344.219 771.318 355.006 760.323C361.434 753.773 365.689 741.777 364.234 732.627C362.753 723.317 355.704 714.139 351.889 705.537C346.224 693.032 340.883 680.448 335.132 668.012C331.174 658.197 323.598 647.153 320.886 637.008C317.229 623.332 318.161 604.749 318.021 590.566C288.877 606.276 268.081 626.712 253.131 656.171ZM481.807 208.714C469.365 209.62 460.182 210.925 448.56 215.238C404.616 231.547 377.108 276.095 381.46 322.622C382.114 329.619 385.946 352.142 390.355 357.591C406.49 364.655 414.225 323.862 416.418 313.906C427.214 279.55 450.212 273.868 483.709 283.615C514.415 292.549 541.325 278.449 552.34 248.395C555.941 238.173 552.604 236.702 546.378 229.698C531.463 212.918 503.892 206.606 481.807 208.714ZM546.244 353.195C530.014 354.763 508.764 364.708 512.701 383.711C514.706 393.386 517.221 398.937 525.101 405.018C532.273 410.527 541.367 412.901 550.316 411.601C550.723 411.545 551.13 411.487 551.536 411.425C570.106 408.481 584.993 392.113 583.98 373.033C583.601 365.897 574.053 361.439 568.555 358.73C560.708 354.863 555.231 352.395 546.244 353.195ZM448.875 357.26C450.818 357.369 452.772 357.288 454.474 358.153L452.853 357.988C457.306 359.043 460.191 359.271 464.761 359.728L466.427 360.019C466.03 356.032 451.768 356.859 448.875 357.26ZM446.874 357.75C439.536 358.552 433.357 359.546 426.576 362.731L426.331 363.203C427.768 363.179 427.726 363.198 429.088 362.757C435.95 360.257 442.206 359.271 449.346 357.829C448.679 357.805 447.489 357.723 446.874 357.75ZM468.45 359.792C469.921 361.096 470.321 360.948 470.439 362.379C468.514 363.134 464.706 361.919 462.482 361.574C452.333 360.001 441.911 361.632 432.089 364.167C427.364 365.387 420.678 366.648 419.112 371.896C414.467 387.462 424.108 405.636 437.807 413.066C460.575 422.345 481.98 409.596 487.826 386.507C491.234 373.047 479.471 363.963 468.45 359.792ZM577.349 479.866C566.611 500.424 548.832 522.633 525.857 529.906C511.984 534.297 494.487 534.465 481.562 527C462.459 515.967 447.631 505.978 435.164 487.375C437.244 498.69 439.175 512.107 435.512 523.046C438.064 527.698 441.544 532.565 444.597 536.964C459.744 557.078 485.078 583.474 509.629 590.297C549.333 574.262 574.639 543.042 574.833 501.713C574.859 496.18 578.189 484.588 577.349 479.866ZM575.71 521.357C574.309 539.644 556.934 561.563 543.704 573.742C533.669 582.979 522.969 586.099 513.05 593.391C521.581 599.377 525.821 605.876 532.085 614.119C535.448 618.847 538.516 623.777 541.272 628.882C548.194 617.505 556.447 607.238 563.373 595.827C576.138 574.799 582.525 549.089 577.128 524.694C576.86 523.484 576.604 522.163 575.71 521.357ZM433.419 525.764C428.657 571.889 451.952 596.418 477.438 630.274C477.935 630.934 478.509 631.542 479.065 632.154C481.485 625.431 483.234 619.909 486.814 613.702C492.94 604.576 496.182 599.306 505.097 592.636C483.553 585.125 457.365 559.499 443.522 541.077C440.641 537.243 435.52 528.086 433.419 525.764ZM507.396 594.455C499.877 599.891 494.087 606.862 489.454 614.886C487.42 618.421 485.717 622.136 484.366 625.985C483.462 628.643 482.25 634.673 480.148 635.902C475.661 634.346 459.606 611.823 455.987 606.761C462.627 623.923 468.032 640.955 474.108 658.233C481.125 678.154 488.55 697.93 496.379 717.547C500.549 728.164 506.494 743.574 511.389 753.615C516.055 740.402 520.108 726.921 525.341 713.919C532.455 696.248 538.418 678.418 544.544 660.41C550.903 641.415 555.109 624.579 560.625 605.625C556.995 610.535 553.492 615.536 550.119 620.625C547.937 623.968 544.569 631.358 541.079 632.521C539.573 632.176 539.093 631.681 538.179 629.994C532.746 619.955 522.844 604.664 513.542 598.016C510.514 601.321 503.026 610.143 501.559 614.674C494.705 635.834 495.977 664.179 495.993 686.491C495.997 690.876 497.897 705.777 496.4 708.043L495.401 708.266C494.438 707.575 493.992 707.418 493.925 705.987C492.58 677.483 491.74 647.925 496.68 619.736C498.409 609.873 504.909 604.958 510.074 596.993C510.878 595.781 508.237 594.842 507.396 594.455Z" fill="url(#paint0_linear_2243_42998)"/>
<path d="M702.233 239.333C692.928 239.947 684.888 232.902 684.274 223.598C683.66 214.294 690.705 206.254 700.009 205.639C709.313 205.024 717.354 212.069 717.969 221.374C718.583 230.679 711.537 238.72 702.233 239.333ZM699.818 211.604C693.857 212.364 689.608 217.765 690.273 223.737C690.938 229.71 696.271 234.044 702.253 233.474C706.208 233.097 709.653 230.617 711.265 226.986C712.878 223.355 712.408 219.137 710.036 215.95C707.665 212.763 703.759 211.102 699.818 211.604Z" fill="#58E3AA"/>
<path d="M416.417 313.904C414.224 323.86 406.489 364.653 390.354 357.589C385.945 352.14 382.113 329.617 381.459 322.62C377.107 276.093 404.615 231.545 448.559 215.236C460.181 210.923 469.364 209.618 481.806 208.712C503.891 206.604 531.462 212.916 546.377 229.696C552.603 236.7 555.94 238.171 552.339 248.393C541.324 278.447 514.414 292.547 483.708 283.613C450.211 273.866 427.213 279.548 416.417 313.904ZM400.809 288.94C405.411 281.842 409.799 277.253 418.507 274.915C421.294 274.167 423.632 274.182 426.542 273.243L426.901 272.468C423.886 270.808 416.816 273.091 413.773 274.406C408.125 276.848 404.725 279.835 400.926 284.507C394.137 294.217 390.971 305.711 390.936 317.498C390.929 319.654 390.707 323.245 391.759 325.088L392.231 324.995C393.078 310.451 393.605 302.348 400.809 288.94ZM479.885 223.737C467.655 224.329 456.179 227.242 445.454 233.309C441.691 235.437 430.538 242.652 429.786 247.023L430.78 247.329C433.412 245.63 435.896 243.49 438.298 241.467C451.708 230.173 469.173 225.652 486.622 226.129C501.766 227.503 513.206 230.712 525.266 240.608C529.214 243.847 532.711 247.777 536.307 250.807C527.353 230.947 499.84 223.501 479.885 223.737ZM480.39 240.199C463.193 241.475 447.074 249.408 439.072 265.28L438.875 265.683C441.864 263.69 444.792 260.428 447.299 257.776C454.277 250.392 462.15 245.934 472.121 243.689C486.21 241.284 499.391 243.37 509.952 253.844C511.048 254.931 513.769 258.494 514.819 258.823C514.974 257.177 513.751 254.025 512.643 252.838C503.608 243.166 493.046 240.701 480.39 240.199ZM410.28 296.392C406.903 301.7 401.115 323.782 404.305 328.608C405.391 325.647 406.166 316.83 406.897 312.938C407.503 309.71 411.055 298.539 410.672 296.866L410.28 296.392Z" fill="#F1C0E8"/>
<path d="M702.252 233.474C696.27 234.044 690.937 229.71 690.272 223.737C689.607 217.765 693.856 212.364 699.817 211.604C703.758 211.102 707.664 212.763 710.035 215.95C712.407 219.137 712.877 223.355 711.264 226.986C709.652 230.617 706.207 233.097 702.252 233.474Z" fill="#B9FBC0"/>
<path d="M486.621 226.132C469.172 225.655 451.707 230.176 438.297 241.47C435.895 243.493 433.411 245.633 430.779 247.332L429.785 247.026C430.537 242.655 441.69 235.44 445.453 233.312C456.178 227.245 467.654 224.332 479.884 223.74C499.839 223.504 527.352 230.95 536.306 250.81C532.71 247.78 529.213 243.85 525.265 240.611C513.205 230.715 501.765 227.506 486.621 226.132Z" fill="#262131"/>
<path d="M556.527 237.895L559.493 237.464L559.909 236.736C561.566 237.684 567.597 236.555 570.216 236.628C584.604 237.029 595.15 248.645 601.66 260.396C614.424 282.653 617.316 316.224 611.612 341.03C609.376 350.756 606.575 350.155 601.985 355.332C598.358 359.03 597.998 363.276 596.031 365.296L595.501 363.809C595.785 355.906 591.729 345.229 585.85 339.975C577.384 332.411 577.673 329.639 577.472 319.122C577.31 310.628 574.763 299.331 570.592 291.771C564.03 279.878 555.097 274.637 542.412 271.016C551.437 259.99 556.755 252.496 556.527 237.895ZM571.351 251.2C569.123 251.428 567.236 251.416 565.266 252.414L565.074 253.272C567.381 254.514 573.5 253.185 576.836 253.648C582.098 254.378 585.084 255.522 589.76 258.006C591.935 259.114 592.547 259.493 594.862 260.099C588.67 253.399 580.436 250.554 571.351 251.2ZM561.864 266.975C560.769 268.955 560.739 268.093 561.1 269.744C572.264 272.567 590.48 271.563 597.158 282.817C603.392 293.322 603.052 306.228 602.693 317.975C602.675 318.58 603.464 319.678 603.84 320.179C607.008 314.304 604.704 296.357 602.727 289.886C600.711 283.284 598.132 277.706 591.835 274.204C582.617 269.077 571.177 269.506 561.864 266.975Z" fill="#C9F8F2"/>
<path d="M438.875 265.683L439.072 265.28C447.074 249.408 463.193 241.475 480.39 240.199C493.046 240.701 503.608 243.166 512.643 252.838C513.751 254.025 514.974 257.177 514.819 258.823C513.769 258.494 511.048 254.931 509.952 253.844C499.391 243.37 486.21 241.284 472.121 243.689C462.15 245.934 454.277 250.392 447.299 257.776C444.792 260.428 441.864 263.69 438.875 265.683Z" fill="#262131"/>
<path d="M589.76 258.005C585.084 255.521 582.098 254.377 576.836 253.647C573.5 253.184 567.381 254.513 565.074 253.271L565.266 252.413C567.236 251.415 569.123 251.427 571.351 251.199C580.436 250.553 588.67 253.398 594.862 260.098C592.547 259.492 591.935 259.113 589.76 258.005Z" fill="#303838"/>
<path d="M739.53 270.142C732.527 269.438 732.04 263.058 736.813 259.004C743.95 260.124 744.238 265.727 739.53 270.142Z" fill="#8EECF5"/>
<path d="M770.149 270.244C768.167 269.925 767.257 269.876 765.853 268.315C764.787 267.15 764.296 265.572 764.513 264.009C764.825 261.711 766.091 260.664 767.808 259.383C774.943 260.65 774.75 265.815 770.149 270.244Z" fill="#58E3AA"/>
<path d="M603.841 320.177C603.465 319.676 602.676 318.578 602.694 317.973C603.053 306.226 603.393 293.32 597.159 282.815C590.481 271.561 572.265 272.565 561.101 269.742C560.74 268.091 560.77 268.953 561.865 266.973C571.178 269.504 582.618 269.075 591.836 274.202C598.133 277.704 600.712 283.282 602.728 289.884C604.705 296.355 607.009 314.302 603.841 320.177Z" fill="#303838"/>
<path d="M400.926 284.508C404.725 279.836 408.125 276.849 413.773 274.407C416.816 273.092 423.886 270.809 426.901 272.469L426.542 273.244C423.632 274.183 421.294 274.168 418.507 274.916C409.799 277.254 405.411 281.843 400.809 288.941C401.223 287.088 401.62 286.259 400.926 284.508Z" fill="#262131"/>
<path d="M421.749 360.866C420.896 364.266 418.496 365.234 415.501 367.259L416.187 366.963C415.173 370.348 414.596 372.342 412.611 375.42C407.205 373.011 400.012 366.072 394.836 362.236C423.048 352.103 410.589 294.655 442.468 285.244C479.55 274.298 505.642 307.33 540.18 273.699C546.335 275.207 550.38 276.388 555.705 279.918C568.576 288.454 573.321 304.043 574.308 318.733C574.586 322.874 574.309 327.467 575.582 331.45C577.105 336.104 581.369 339.103 584.568 342.634C589.867 348.483 592.348 357.978 592.845 365.696L585.687 368.077C569.137 348.628 539.473 342.541 518.58 359.832C515.84 362.1 509.831 367.618 509.635 371.225C509.617 371.607 509.607 371.989 509.605 372.37L508.984 373.035C501.463 369.792 497.447 369.351 490.411 373.926C480.858 353.982 454.185 351.376 434.955 356.348C430.86 357.406 427.114 359.009 423.27 360.751C427.675 354.903 433.179 352.376 440.222 350.868C456.497 347.384 467.038 348.758 480.909 357.307L481.616 357.094C480.506 346.179 431.321 341.192 421.749 360.866ZM548.986 343.692C539.334 344.803 520.129 348.699 514.778 358.054L515.086 358.642C517.51 358.549 518.931 356.077 521.248 354.518C527.436 350.356 536.456 347.766 543.6 346.516C552.754 345.173 561.476 344.412 570.167 349.457C572.651 350.898 576.204 355.976 578.032 356.519C578.805 353.587 575.342 350.179 573.202 348.63C566.072 343.472 557.492 342.843 548.986 343.692Z" fill="#FFFFFA"/>
<path d="M400.926 284.508C401.62 286.259 401.223 287.088 400.809 288.941C393.605 302.349 393.078 310.452 392.231 324.996L391.759 325.089C390.707 323.246 390.929 319.655 390.936 317.499C390.971 305.712 394.137 294.218 400.926 284.508Z" fill="url(#paint1_linear_2243_42998)"/>
<path d="M736.719 303.101C734.307 303.806 731.78 302.423 731.074 300.011C730.367 297.599 731.749 295.072 734.161 294.365C736.574 293.657 739.103 295.04 739.809 297.453C740.516 299.866 739.132 302.395 736.719 303.101Z" fill="#58E3AA"/>
<path d="M404.305 328.611C401.115 323.785 406.903 301.703 410.28 296.395L410.672 296.869C411.055 298.542 407.503 309.713 406.897 312.941C406.166 316.833 405.391 325.65 404.305 328.611Z" fill="#1B191D"/>
<path d="M765.15 312.188C759.084 310.235 757.667 306.153 763.013 301.891C769.638 302.478 769.395 308.357 765.15 312.188Z" fill="#8EECF5"/>
<path d="M282.775 330.147C279.347 330.888 275.971 328.697 275.251 325.265C274.532 321.832 276.744 318.47 280.181 317.772C283.587 317.08 286.913 319.268 287.626 322.67C288.34 326.072 286.173 329.412 282.775 330.147Z" fill="#D5E1F3"/>
<path d="M227.896 334.54C218.597 335.437 216.591 325.724 224.98 321.488C227.802 321.508 229.773 322.24 231.354 324.683C232.428 326.334 232.721 328.373 232.156 330.259C231.464 332.621 229.933 333.474 227.896 334.54Z" fill="#D5E1F3"/>
<path d="M811.232 353.869C804.579 356.055 797.41 352.453 795.193 345.811C792.976 339.168 796.544 331.983 803.177 329.735C809.852 327.472 817.096 331.069 819.327 337.755C821.559 344.442 817.928 351.668 811.232 353.869ZM805.189 335.2C802.892 335.883 801.146 337.757 800.627 340.096C800.107 342.435 800.896 344.872 802.687 346.463C804.478 348.055 806.991 348.551 809.252 347.759C812.637 346.575 814.457 342.907 813.354 339.495C812.25 336.084 808.625 334.177 805.189 335.2Z" fill="#58E3AA"/>
<path d="M809.251 347.757C806.99 348.549 804.477 348.053 802.686 346.461C800.895 344.87 800.106 342.433 800.626 340.094C801.145 337.755 802.891 335.881 805.188 335.198C808.624 334.175 812.249 336.082 813.353 339.493C814.456 342.905 812.636 346.573 809.251 347.757Z" fill="#B9FBC0"/>
<path d="M191.259 354.435C180.801 354.945 180.192 346.059 187.652 340.922C196.513 342.281 197.644 348.562 191.259 354.435Z" fill="#D5E1F3"/>
<path d="M265.155 353.314C262.953 353.888 260.613 353.234 259.029 351.601C257.446 349.967 256.864 347.606 257.507 345.424C258.15 343.241 259.918 341.573 262.134 341.059C265.497 340.278 268.863 342.344 269.689 345.696C270.515 349.048 268.495 352.442 265.155 353.314Z" fill="#D5E1F3"/>
<path d="M702.441 377.455C692.382 379.112 682.9 372.255 681.322 362.183C679.743 352.112 686.674 342.683 696.757 341.183C706.731 339.7 716.034 346.538 717.595 356.499C719.156 366.461 712.39 375.817 702.441 377.455ZM696.474 347.951C690.228 349.629 686.531 356.061 688.226 362.303C689.921 368.545 696.362 372.224 702.6 370.512C708.813 368.807 712.475 362.395 710.787 356.177C709.099 349.959 702.697 346.28 696.474 347.951Z" fill="#58E3AA"/>
<path d="M543.599 346.517C536.455 347.767 527.435 350.357 521.247 354.519C518.93 356.078 517.509 358.55 515.085 358.643L514.777 358.055C520.128 348.7 539.333 344.804 548.985 343.693C557.491 342.844 566.071 343.473 573.201 348.631C575.341 350.18 578.804 353.588 578.031 356.52C576.203 355.977 572.65 350.899 570.166 349.458C561.475 344.413 552.753 345.174 543.599 346.517Z" fill="#262131"/>
<path d="M421.748 360.865C431.32 341.191 480.505 346.178 481.615 357.093L480.908 357.306C467.037 348.757 456.496 347.383 440.221 350.867C433.178 352.375 427.674 354.902 423.269 360.75L421.748 360.865Z" fill="#262131"/>
<path d="M702.6 370.511C696.362 372.223 689.921 368.544 688.226 362.302C686.531 356.06 690.228 349.628 696.474 347.95C702.697 346.279 709.099 349.958 710.787 356.176C712.475 362.394 708.813 368.806 702.6 370.511Z" fill="#B9FBC0"/>
<path d="M551.535 411.423C551.129 411.485 550.722 411.543 550.315 411.599C541.366 412.899 532.272 410.525 525.1 405.016C517.22 398.935 514.705 393.384 512.7 383.709C508.763 364.706 530.013 354.761 546.243 353.193C555.23 352.393 560.707 354.861 568.554 358.728C574.052 361.437 583.6 365.895 583.979 373.031C584.992 392.111 570.105 408.479 551.535 411.423ZM539.511 362.61C533.979 363.8 520.934 368.419 521.406 375.272C523.013 375.424 527.684 371.439 529.272 370.272C533.669 367.038 536.726 365.901 542.125 365.004L542.791 365.051C552.461 365.804 555.477 369.91 562.22 370.975L562.686 370.543C559.009 366.031 551.471 363.173 545.735 362.593C543.665 362.397 541.58 362.403 539.511 362.61ZM542.375 367.824C539.405 368.824 537.774 372.01 538.699 375.004C539.625 377.998 542.769 379.708 545.785 378.857C547.805 378.288 549.356 376.668 549.839 374.626C550.322 372.585 549.659 370.442 548.108 369.029C546.558 367.615 544.363 367.154 542.375 367.824Z" fill="#FFFFFA"/>
<path d="M595.501 363.809L596.031 365.296C597.998 363.276 598.358 359.03 601.985 355.332L603.025 356.101L604.012 355.92C605.079 355.731 605.263 355.685 606.368 355.83C606.378 355.824 603.559 357.34 603.68 357.237C600.892 359.607 595.827 367.859 596.168 371.388L595.543 371.147C595.195 368.076 595.302 366.813 595.501 363.809Z" fill="#303838"/>
<path d="M308.334 368.394C305.448 368.589 302.52 369.049 300.266 366.873C296.313 363.058 298.468 358.901 302.047 355.947C310.384 355.82 314.654 361.484 308.334 368.394Z" fill="#D5E1F3"/>
<path d="M606.369 355.828L606.583 356.539C602.577 362.248 599.242 364.711 596.169 371.386C595.828 367.857 600.893 359.605 603.681 357.235C603.56 357.338 606.379 355.822 606.369 355.828Z" fill="#90DBF4"/>
<path d="M464.759 359.729C460.189 359.272 457.304 359.044 452.851 357.989L454.472 358.154C452.77 357.289 450.816 357.37 448.873 357.261C451.766 356.86 466.028 356.033 466.425 360.02L464.759 359.729Z" fill="#343451"/>
<path d="M605.534 361.831C606.849 360.199 608.281 357.668 609.96 357.145C617.968 358.264 618.257 373.74 615.737 379.646C613.672 384.486 611.969 389.784 610.121 394.708C607.647 404.247 611.254 415.416 603.573 423.315C599.637 427.154 594.583 426.794 591.408 422.443C589.197 419.412 590.929 413.903 589.011 412.897L587.936 413.482C586.868 418.765 586.715 425.591 586.001 431.143C582.655 457.174 579.404 476.101 562.875 497.526C545.995 519.407 524.532 534.523 495.568 528.833C480.129 525.801 460.227 509.449 448.45 499.276C444.774 495.886 438.363 486.712 435.45 482.205C427.513 470.013 421.082 456.903 416.298 443.164C414.252 437.341 410.952 423.024 408.28 418.997C407.857 423.551 410.114 429.302 408.923 433.053C407.31 433.529 404.334 432.198 403 431.391C392.645 424.625 386.1 409.978 383.444 398.283C381.591 390.127 377.776 374.941 381.791 367.118C384.52 361.8 389.501 362.36 393.784 365.71C400.746 371.154 405.281 377.118 410.47 384.114C410.818 384.571 414.069 385.849 414.808 386.14C418.155 398.007 422.502 408.271 433.684 414.634C442.578 419.682 453.128 420.945 462.962 418.138C476.541 414.343 487.614 403.705 490.364 389.927C491.153 385.973 491.503 381.671 492.936 377.944C494.82 374.035 503.203 375.241 506.055 376.711C509.171 379.06 510.063 385.327 510.521 388.654C511.571 396.278 509.711 407.544 511.65 414.657C516.226 431.446 526.887 438.621 502.935 444.809C499.931 445.585 497.97 445.619 494.694 445.443C493.704 444.863 491.428 443.456 490.494 443.042C485.547 441.134 477.747 443.37 474.56 438.328C472.848 435.621 475.359 432.726 474.669 430.109C471.58 430.305 472.355 435.402 472.79 437.546C474.495 445.937 484.4 442.087 489.59 444.172C495.372 450.811 509.255 446.248 515.394 442.242C525.23 435.822 515.411 422.907 513.806 414.332C512.529 407.514 512.228 403.794 513.187 396.681C514.356 398.222 515.543 399.75 516.746 401.264C535.018 423.937 569.647 416.817 582.279 392.63C585.932 385.635 586.375 380.977 587.138 373.16C589.243 371.518 590.758 370.713 593.054 369.402C593.527 373.568 593.224 384.508 594.156 387.008C596.781 385.177 596.423 373.819 601.639 366.66L602.061 366.092C603.736 364.708 607.624 362.837 609.865 365.263C616.927 372.907 602.757 392.802 607.45 398.558L607.956 398.053C608.877 387.183 622.633 365.005 605.534 361.831ZM384.368 374.266C383.688 376.161 383.442 375.854 383.942 377.35C385.491 378.17 386.644 378.381 387.068 379.985C388.596 385.767 384.397 399.987 390.11 403.861C390.978 402.083 389.298 397.469 389.292 394.472C389.286 390.937 389.541 387.707 389.62 384.254C389.58 382.051 389.152 381.399 390.157 379.986C393.737 380.434 396.87 389.411 398.823 392.415C399.976 390.86 398.963 386.956 398.103 385.247C395.378 379.833 390.876 374.787 384.368 374.266ZM548.191 448.791C548.784 450.417 553.711 457.071 554.962 458.625L556.048 459.09C555.571 455.139 552.348 449.528 548.191 448.791ZM548.733 455.501C535.108 463.135 528.397 462.214 513.532 462.689C508.428 462.853 504.618 467.372 498.026 466.226C497.9 467.437 498.279 467.595 498.959 468.903C503.656 468.07 507.567 465.539 512.161 464.648C518.327 463.453 525.087 464.431 531.257 463.53C536.395 462.78 544.747 459.551 548.896 456.44L549.142 455.599L548.733 455.501ZM547.762 460.432C535.119 469.248 512.391 475.584 496.941 474.364C489.123 473.747 474.465 472.13 467.197 469.55C470.372 468.923 495.449 464.594 495.874 464.004C492.218 461.783 472.856 467.545 467.468 467.648C467.16 467.654 466.655 468.102 466.393 468.314C465.786 474.65 494.964 475.873 499.853 475.927C504.074 475.984 508.294 475.711 512.473 475.108C515.914 474.613 518.985 473.93 522.353 473.112C529.703 470.776 536.143 467.715 543.306 464.92C538.19 476.742 528.689 484.546 517.14 489.971C508.328 494.111 489.48 492.56 482.18 486.765L481.78 486.969C482.058 488.221 482.451 488.681 483.64 489.309C505.172 500.687 527.332 491.438 540.607 472.408C543.163 468.744 545.244 463.958 548.223 460.824L547.762 460.432ZM462.023 463.939C459.737 465.865 452.758 471.707 457.337 474.273C458.009 473.386 458.45 473.201 458.352 472.415C457.834 468.286 461.967 467.251 462.339 464.266L462.023 463.939Z" fill="#FFFFFA"/>
<path d="M429.087 362.755C427.725 363.196 427.767 363.177 426.33 363.201L426.575 362.729C433.356 359.544 439.535 358.55 446.873 357.748C447.488 357.721 448.678 357.803 449.345 357.827C442.205 359.269 435.949 360.255 429.087 362.755Z" fill="#A6AEE5"/>
<path d="M437.806 413.063C424.107 405.633 414.466 387.459 419.111 371.893C420.677 366.645 427.363 365.384 432.088 364.164C441.91 361.629 452.332 359.998 462.481 361.571C464.705 361.916 468.513 363.131 470.438 362.376C470.32 360.945 469.92 361.093 468.449 359.789C479.47 363.96 491.233 373.044 487.825 386.504C481.979 409.593 460.574 422.342 437.806 413.063ZM474.278 376.459C472.058 372.762 470.232 370.353 465.921 367.841C457.535 362.956 441.745 361.226 435.782 370.567C435.134 371.583 434.541 373.553 434.928 374.798C436.431 374.545 436.14 374.409 437.455 373.16C437.884 371.662 437.895 371.386 438.693 370.01L439.052 370.571C439.793 370.773 457.29 368.092 459.87 367.575C466.321 369.717 469.133 372.138 474.278 376.459ZM456.96 370.653C440.335 378.674 468.01 387.531 462.567 372.079C460.266 370.171 459.893 369.961 456.96 370.653Z" fill="#FFFFFA"/>
<path d="M602.061 366.089C602.235 364.566 603.655 363.28 604.765 361.884L605.534 361.828C622.633 365.002 608.877 387.18 607.956 398.05L607.45 398.555C602.757 392.799 616.927 372.904 609.865 365.26C607.624 362.834 603.736 364.705 602.061 366.089Z" fill="#262131"/>
<path d="M542.126 365.007C536.727 365.904 533.67 367.041 529.273 370.275C527.685 371.442 523.014 375.427 521.407 375.275C520.935 368.422 533.98 363.803 539.512 362.613C541.581 362.406 543.666 362.4 545.736 362.596C551.472 363.176 559.01 366.034 562.687 370.546L562.221 370.978C555.478 369.913 552.462 365.807 542.792 365.054L542.126 365.007Z" fill="#262131"/>
<path d="M228.31 375.73C225.15 377.241 221.365 375.891 219.874 372.722C218.382 369.552 219.756 365.775 222.934 364.304C226.085 362.846 229.822 364.205 231.3 367.346C232.778 370.487 231.442 374.233 228.31 375.73Z" fill="#D5E1F3"/>
<path d="M438.693 370.011C437.895 371.387 437.884 371.663 437.455 373.161C436.14 374.41 436.431 374.546 434.928 374.799C434.541 373.554 435.134 371.584 435.782 370.568C441.745 361.227 457.535 362.957 465.921 367.842C470.232 370.354 472.058 372.763 474.278 376.46C469.133 372.139 466.321 369.718 459.87 367.576C457.29 368.093 439.793 370.774 439.052 370.572C443.109 366.916 453.51 366.618 458.728 367.439L458.868 367.019C453.581 363.348 443.336 365.532 438.693 370.011Z" fill="#262131"/>
<path d="M438.693 370.012C443.336 365.533 453.581 363.349 458.868 367.02L458.728 367.44C453.51 366.619 443.109 366.917 439.052 370.573L438.693 370.012Z" fill="#D5E1F3"/>
<path d="M545.784 378.859C542.768 379.71 539.624 378 538.698 375.006C537.773 372.012 539.404 368.826 542.374 367.826C544.362 367.156 546.557 367.617 548.107 369.031C549.658 370.444 550.321 372.587 549.838 374.628C549.355 376.67 547.804 378.29 545.784 378.859Z" fill="#262131"/>
<path d="M456.961 370.655C459.894 369.963 460.267 370.173 462.568 372.081C461.437 373.482 460.325 374.423 458.548 374.476C456.985 372.963 457.467 373.261 456.961 370.655Z" fill="#343451"/>
<path d="M159.037 383.24C149.998 386.404 147.986 377.441 152.734 371.048C162.139 370.164 166.892 376.117 159.037 383.24Z" fill="#D5E1F3"/>
<path d="M462.567 372.082C468.01 387.534 440.335 378.677 456.96 370.656C457.466 373.262 456.984 372.964 458.547 374.477C460.324 374.424 461.436 373.483 462.567 372.082Z" fill="#262131"/>
<path d="M389.62 384.254C389.541 387.707 389.286 390.937 389.292 394.472C389.298 397.469 390.978 402.083 390.11 403.861C384.397 399.987 388.596 385.767 387.068 379.985C386.644 378.381 385.491 378.17 383.942 377.35C383.442 375.854 383.688 376.161 384.368 374.266C390.876 374.787 395.378 379.833 398.103 385.247C398.963 386.956 399.976 390.86 398.823 392.415C396.87 389.411 393.737 380.434 390.157 379.986C389.152 381.399 389.58 382.051 389.62 384.254Z" fill="#262131"/>
<path d="M267.805 389.721C264.603 390.911 261.039 389.302 259.813 386.113C258.588 382.924 260.157 379.342 263.332 378.081C265.418 377.253 267.788 377.609 269.538 379.014C271.288 380.419 272.148 382.657 271.789 384.872C271.431 387.088 269.909 388.94 267.805 389.721Z" fill="#D5E1F3"/>
<path d="M192.059 390.647C184.479 391.669 181.654 383.796 187.324 378.493C190.003 378.229 191.633 377.873 193.778 379.773C194.985 380.826 195.668 382.355 195.647 383.957C195.631 387.365 194.338 388.505 192.059 390.647Z" fill="#D5E1F3"/>
<path d="M716.751 535.618C714.938 534.238 714.034 533.235 712.713 531.363C697.239 509.431 688.283 481.977 693.021 455.197C697.004 432.688 712.968 408.111 731.937 395.534C753.496 381.192 775.075 376.305 800.412 381.01C845.229 389.333 876.48 430.118 873.386 475.445C872.962 481.648 871.348 488.761 870.196 494.959C868.134 500.234 866.022 505.489 863.861 510.724C863.097 511.837 861.698 513.716 861.226 514.861C859.165 515.385 858.286 517.207 859.2 519.139C845.064 538.07 824.056 550.689 800.703 554.275C790.073 555.922 782.362 555.504 771.775 554.916C771.499 550.39 771.636 543.73 771.846 539.29L771.906 546.895C781.655 547.485 786.328 548.474 796.617 547.229C817.743 544.673 839.027 534.15 852.057 517.106C863.495 500.77 869.063 476.873 865.727 457.368C853.344 384.953 759.299 361.019 716.222 422.175C703.589 440.109 697.915 458.829 700.495 480.805C701.214 486.931 702.661 492.741 703.701 498.787C701.58 500.318 701.722 499.757 700.766 501.832C701.094 507.391 708.003 509.737 710.187 515.388C712.758 520.628 715.859 529.762 716.751 535.618Z" fill="#CBD0F6"/>
<path d="M272.516 455.546C270.329 455.961 267.168 456.463 265.104 457.06C260.285 443.87 260.819 429.319 266.591 416.518C272.554 403.59 281.641 392.996 295.657 388.432C353.895 369.467 393.768 444.027 340.867 478.159C334.428 482.313 325.192 484.315 317.498 484.031C316.579 479.98 318.507 480.903 320.329 477.187C321.674 476.963 323.012 476.697 324.341 476.389C336.475 473.551 345.626 467.509 352.203 456.771C357.817 447.577 359.475 436.504 356.801 426.069C354.292 416.219 345.31 403.524 336.456 398.764C314.297 386.853 287.557 393.23 275.251 415.804C267.046 430.855 268.234 440.046 272.516 455.546Z" fill="#FCD7A3"/>
<path d="M703.703 498.788C702.663 492.742 701.216 486.932 700.497 480.806C697.917 458.83 703.591 440.11 716.224 422.176C759.301 361.02 853.346 384.954 865.729 457.369C869.065 476.874 863.497 500.771 852.059 517.107C839.029 534.151 817.745 544.674 796.619 547.23C786.33 548.475 781.657 547.486 771.908 546.896L771.848 539.291C772 531.839 772.83 524.473 773.662 517.07C780.279 513.827 792.507 506.762 785.675 498.161C783.074 494.634 774.61 492.291 770.498 491.148C748.102 484.922 724.007 487.058 703.703 498.788ZM795.637 413.773C793.766 414.665 792.522 416.497 792.383 418.565C792.244 420.633 793.232 422.615 794.967 423.749C796.702 424.883 798.913 424.992 800.752 424.035C803.526 422.591 804.631 419.19 803.236 416.391C801.841 413.592 798.46 412.427 795.637 413.773ZM830.837 422.561C825.449 425.534 827.133 431.371 833.183 432.271C837.56 428.558 837.176 423.604 830.837 422.561ZM749.513 424.916C743.733 428.99 744.826 436.061 752.66 434.872C759.011 430.32 756.916 424.791 749.513 424.916ZM777.084 435.754C775.661 436.408 774.7 437.776 774.566 439.337C774.433 440.897 775.149 442.408 776.441 443.294C777.732 444.179 779.4 444.302 780.807 443.615C782.948 442.57 783.85 439.998 782.831 437.845C781.811 435.692 779.249 434.76 777.084 435.754ZM815.09 445.959C808.329 450.256 808.064 457.415 816.442 459.386C823.232 455.801 822.654 446.885 815.09 445.959ZM735.502 454.85C732.954 456.061 731.847 459.091 733.015 461.659C734.183 464.227 737.195 465.385 739.782 464.259C741.495 463.515 742.673 461.904 742.863 460.046C743.054 458.189 742.228 456.372 740.702 455.295C739.176 454.218 737.188 454.048 735.502 454.85ZM788.349 466.009C782.229 471.318 785.87 482.257 792.785 480.057C798.701 474.124 797.946 465.043 788.349 466.009ZM837.899 467.174C835.615 468.168 834.537 470.798 835.464 473.109C836.391 475.42 838.989 476.574 841.326 475.714C842.899 475.135 844.033 473.747 844.286 472.09C844.539 470.433 843.871 468.769 842.543 467.747C841.215 466.725 839.436 466.505 837.899 467.174ZM841.467 490.104C839.975 490.217 838.659 491.127 838.028 492.485C837.397 493.843 837.549 495.435 838.425 496.649C839.301 497.863 840.765 498.509 842.252 498.338C844.491 498.081 846.111 496.079 845.897 493.836C845.684 491.593 843.714 489.934 841.467 490.104ZM811.819 493.958C808.53 499.612 808.815 510.953 818.46 508.596C823.48 502.39 822.093 493.069 811.819 493.958Z" fill="#B9FBC0"/>
<path d="M272.517 455.55C268.235 440.05 267.047 430.859 275.252 415.808C287.558 393.234 314.298 386.857 336.457 398.768C345.311 403.528 354.293 416.223 356.802 426.073C359.476 436.508 357.818 447.581 352.204 456.775C345.627 467.513 336.476 473.555 324.342 476.393C323.013 476.701 321.675 476.967 320.33 477.191L320.525 473.342C324.193 464.48 320.17 460.071 311.69 457.811C298.743 454.362 285.76 454.091 272.517 455.55Z" fill="#FFCFD2"/>
<path d="M141.252 416.456C139.02 417.109 136.609 416.464 135.001 414.783C133.394 413.102 132.856 410.665 133.608 408.463C134.36 406.262 136.275 404.663 138.575 404.316C141.816 403.827 144.882 405.934 145.588 409.135C146.294 412.336 144.399 415.536 141.252 416.456Z" fill="#D5E1F3"/>
<path d="M230.058 420.051C220.579 420.382 217.631 411.857 226.336 407.965C233.725 408.609 237.222 415.434 230.058 420.051Z" fill="#D5E1F3"/>
<path d="M800.751 424.036C798.912 424.993 796.701 424.884 794.966 423.75C793.231 422.616 792.243 420.634 792.382 418.566C792.521 416.498 793.765 414.666 795.636 413.774C798.459 412.428 801.84 413.593 803.235 416.392C804.63 419.191 803.525 422.592 800.751 424.036Z" fill="#CBD0F6"/>
<path d="M183.671 426.081C174.644 426.229 173.354 417.285 181.571 413.977C188.855 414.605 192.038 422.129 183.671 426.081Z" fill="#D5E1F3"/>
<path d="M833.181 432.272C827.131 431.372 825.447 425.536 830.835 422.562C837.174 423.605 837.558 428.559 833.181 432.272Z" fill="#CBD0F6"/>
<path d="M752.66 434.872C744.826 436.061 743.733 428.99 749.513 424.916C756.916 424.791 759.011 430.32 752.66 434.872Z" fill="#CBD0F6"/>
<path d="M489.59 444.168C484.4 442.083 474.495 445.933 472.79 437.542C472.355 435.398 471.58 430.301 474.669 430.105C475.359 432.722 472.848 435.617 474.56 438.324C477.747 443.366 485.547 441.13 490.494 443.038L489.59 444.168Z" fill="#1B191D"/>
<path d="M588.609 434.043C590.118 435.031 597.159 449.934 598.891 453.216C624.755 502.215 664.694 538.902 718.949 554.159C719.104 571.084 718.342 582.068 714.77 598.736C710.916 596.404 705.87 593.15 701.889 591.303C681.576 578.798 651.973 567.599 630.181 557.114C624.604 554.431 619.96 550.256 614.253 547.474C612.272 543.985 610.2 540.896 607.501 537.91C602.279 532.13 583.345 515.709 576.832 513.163C578.12 485.592 584.32 460.918 588.609 434.043Z" fill="url(#paint2_linear_2243_42998)"/>
<path d="M780.806 443.614C779.399 444.301 777.731 444.178 776.44 443.293C775.148 442.407 774.432 440.896 774.565 439.336C774.699 437.775 775.66 436.407 777.083 435.753C779.248 434.759 781.81 435.691 782.83 437.844C783.849 439.997 782.947 442.569 780.806 443.614Z" fill="#A3C4F3"/>
<path d="M225.031 456.087C215.601 455.679 215.116 445.549 222.526 442.48C231.083 442.89 233.243 451.649 225.031 456.087Z" fill="#D5E1F3"/>
<path d="M816.441 459.388C808.063 457.417 808.328 450.258 815.089 445.961C822.653 446.887 823.231 455.803 816.441 459.388Z" fill="#CBD0F6"/>
<path d="M142.115 458.973C133.201 458.95 129.564 453.388 136.999 446.957C137.811 446.973 138.628 446.984 139.437 447.059C141.551 447.264 143.479 448.356 144.742 450.063C147.468 453.688 145.168 456.844 142.115 458.973Z" fill="#D5E1F3"/>
<path d="M556.048 459.088L554.962 458.623C553.711 457.069 548.784 450.415 548.191 448.789C552.348 449.526 555.571 455.137 556.048 459.088Z" fill="#1B191D"/>
<path d="M182.618 462.5C174.305 465.076 170.329 456.588 177.367 451.02C186.05 450.936 190.288 456.649 182.618 462.5Z" fill="#D5E1F3"/>
<path d="M265.104 457.061C267.168 456.464 270.329 455.962 272.516 455.547C285.759 454.088 298.742 454.359 311.689 457.808C320.169 460.068 324.192 464.477 320.524 473.339C315.94 479.037 322.422 479.58 310.418 480.557C303.388 480.668 296.45 480.161 289.5 480.145C279.561 480.122 271.553 480.215 261.633 479.086C262.282 487.952 262.028 497.753 261.818 506.679C261.683 511.653 261.627 516.628 261.65 521.604L261.805 531.726L261.576 541.91C261.413 557.37 261.432 572.831 261.633 588.291C261.757 593.968 263.131 625.282 261.336 629.027L260.662 629.325C258.247 624.88 259.357 561.999 258.734 551.882C258.47 545.227 258.851 536.593 258.967 529.799L258.944 522.007C258.714 517.414 258.839 512.325 258.857 507.692C259.07 503.211 259.065 498.232 259.161 493.708C259.172 488.739 259.137 483.769 259.055 478.801L258.398 478.454L257.701 478.097C255.596 477.003 253.758 476.191 253.237 473.65C250.668 461.119 254.63 460.079 265.104 457.061ZM256.464 466.435L255.538 467.015C253.738 475.358 259.358 476.304 266.075 476.785C275.6 477.534 284.548 477.418 294.071 477.386C299.092 477.546 312.446 478.564 316.461 477.114C318.371 474.674 318.034 470.377 318.111 467.2C306.303 467.404 293.95 466.718 282.098 466.301C277.818 465.736 260.746 465.94 256.464 466.435ZM279.808 457.695C271.184 458.761 264.375 459.615 256.237 462.956C269.302 463.817 284.048 463.481 297.547 464.053C304.088 464.358 311.827 464.851 318.244 463.975C309.001 458.517 289.552 456.113 279.808 457.695Z" fill="#1B191D"/>
<path d="M739.781 464.262C737.194 465.388 734.182 464.23 733.014 461.662C731.846 459.094 732.953 456.064 735.501 454.853C737.187 454.051 739.175 454.221 740.701 455.298C742.227 456.375 743.053 458.192 742.862 460.049C742.672 461.907 741.494 463.518 739.781 464.262Z" fill="#CBD0F6"/>
<path d="M498.959 468.902C498.279 467.594 497.9 467.436 498.026 466.225C504.618 467.371 508.428 462.852 513.532 462.688C528.397 462.213 535.108 463.134 548.733 455.5L549.142 455.598L548.896 456.439C544.747 459.55 536.395 462.779 531.257 463.529C525.087 464.43 518.327 463.452 512.161 464.647C507.567 465.538 503.656 468.069 498.959 468.902Z" fill="#1B191D"/>
<path d="M256.236 462.958C264.374 459.617 271.183 458.763 279.807 457.697C289.551 456.115 309 458.519 318.243 463.977C311.826 464.853 304.087 464.36 297.546 464.055C284.047 463.483 269.301 463.819 256.236 462.958Z" fill="#F1C0E8"/>
<path d="M467.196 469.548C474.464 472.128 489.122 473.745 496.94 474.362C512.39 475.582 535.118 469.246 547.761 460.43L548.222 460.822C545.243 463.956 543.162 468.742 540.606 472.406C527.331 491.436 505.171 500.685 483.639 489.307C482.45 488.679 482.057 488.219 481.779 486.967L482.179 486.763C489.479 492.558 508.327 494.109 517.139 489.969C528.688 484.544 538.189 476.74 543.305 464.918C536.142 467.713 529.702 470.774 522.352 473.11C518.984 473.928 515.913 474.611 512.472 475.106C508.293 475.709 504.073 475.982 499.852 475.925C494.963 475.871 465.785 474.648 466.392 468.312C466.654 468.1 467.159 467.652 467.467 467.646C472.855 467.543 492.217 461.781 495.873 464.002C495.448 464.592 470.371 468.921 467.196 469.548Z" fill="#1B191D"/>
<path d="M457.337 474.271C452.758 471.705 459.737 465.863 462.023 463.938L462.339 464.264C461.967 467.249 457.834 468.284 458.352 472.413C458.45 473.199 458.009 473.384 457.337 474.271Z" fill="#1B191D"/>
<path d="M256.465 466.435C260.747 465.94 277.819 465.736 282.099 466.301C283.9 471.027 290.06 473.7 293.685 477.256C293.814 477.3 293.943 477.343 294.072 477.386C284.549 477.418 275.601 477.534 266.076 476.785C267.076 474.75 265.509 471.415 269.281 468.803C269.931 468.353 270.669 467.577 271.11 466.858C269.419 466.34 259.399 466.601 256.465 466.435Z" fill="#CBD0F6"/>
<path d="M792.784 480.057C785.869 482.257 782.228 471.318 788.348 466.009C797.945 465.043 798.7 474.124 792.784 480.057Z" fill="#CBD0F6"/>
<path d="M266.076 476.788C259.359 476.307 253.739 475.36 255.539 467.017L256.465 466.438C259.399 466.603 269.419 466.343 271.11 466.861C270.669 467.58 269.931 468.355 269.281 468.805C265.509 471.417 267.076 474.753 266.076 476.788Z" fill="#F1C0E8"/>
<path d="M294.071 477.386C293.942 477.343 293.813 477.3 293.684 477.256C290.059 473.7 283.899 471.027 282.098 466.301C293.95 466.718 306.303 467.404 318.111 467.2C318.034 470.377 318.371 474.674 316.461 477.114C312.446 478.564 299.092 477.546 294.071 477.386Z" fill="#F1C0E8"/>
<path d="M841.325 475.715C838.988 476.575 836.39 475.421 835.463 473.11C834.536 470.799 835.614 468.169 837.898 467.175C839.435 466.506 841.214 466.726 842.542 467.748C843.87 468.77 844.538 470.434 844.285 472.091C844.032 473.748 842.898 475.136 841.325 475.715Z" fill="#CBD0F6"/>
<path d="M334.504 521.316C335.623 516.169 335.43 510.757 336.851 505.501C346.02 471.574 386.994 462.777 413.822 482.095C422.533 488.367 430.603 501.002 432.208 511.666L427.881 517.033C424.327 513.732 423.877 507.411 421.683 503.22C402.59 466.753 342.494 473.607 343.026 518.799C343.061 521.734 343.891 525.068 343.857 527.546C341.051 525.887 337.289 523.192 334.504 521.316Z" fill="#FCD7A3"/>
<path d="M650.782 499.623C645.681 498.001 642.238 493.238 642.296 487.886C642.354 482.534 645.899 477.847 651.034 476.335C657.414 474.457 664.121 478.045 666.1 484.394C668.079 490.744 664.597 497.507 658.28 499.586C655.847 500.386 653.223 500.399 650.782 499.623ZM651.812 482.012C643.898 486.815 647.428 494.862 656.691 493.938C664.636 488.569 660.307 481.902 651.812 482.012Z" fill="#58E3AA"/>
<path d="M261.633 479.086C271.553 480.215 279.561 480.122 289.5 480.145C296.45 480.161 303.388 480.668 310.418 480.557C311.933 480.712 313.617 480.656 314.746 481.531C315.501 488.112 315.305 504.549 315.575 512.203C311.567 511.801 303.652 508.457 299.159 507.448C286.489 504.605 274.534 505.771 261.818 506.679C262.028 497.753 262.282 487.952 261.633 479.086Z" fill="url(#paint3_linear_2243_42998)"/>
<path d="M161.568 489.699C158.994 479.89 168.393 474.731 173.75 485.161C172.827 492.163 166.356 495.523 161.568 489.699Z" fill="#90DBF4"/>
<path d="M343.856 527.547C343.89 525.069 343.06 521.735 343.025 518.8C342.493 473.608 402.589 466.754 421.682 503.221C423.876 507.412 424.326 513.733 427.88 517.034C418.901 529.858 408.356 540.96 399.821 554.354C393.145 556.327 381.241 562.639 372.666 565.674C366.974 551.982 355.302 536.768 343.856 527.547Z" fill="#FFCFD2"/>
<path d="M435.162 487.372C447.629 505.975 462.457 515.964 481.56 526.997C494.485 534.462 511.982 534.294 525.855 529.903C548.83 522.63 566.609 500.421 577.347 479.863C578.187 484.585 574.857 496.177 574.831 501.71C574.637 543.039 549.331 574.259 509.627 590.294C485.076 583.471 459.742 557.075 444.595 536.961C441.542 532.562 438.062 527.695 435.51 523.043C439.173 512.104 437.242 498.687 435.162 487.372Z" fill="#FFFFFA"/>
<path d="M656.691 493.935C647.428 494.859 643.898 486.812 651.812 482.009C660.307 481.899 664.636 488.566 656.691 493.935Z" fill="#B9FBC0"/>
<path d="M173.749 485.162C180.639 484.732 193.507 482.242 199.676 482.499C199.022 485.563 197.796 488.383 196.728 491.327C190.825 507.601 186.508 524.372 179.958 540.425C179.037 542.681 178.115 545.009 177.75 547.419C173.411 554.777 168.182 561.661 164.537 569.455C145.643 609.856 157.356 664.894 197.816 687.454C201.399 689.452 204.004 690.745 207.882 692.038C213.171 694.603 218.582 702.366 223.075 707.107C217.172 720.766 211.154 734.855 217.58 749.295C230.97 779.381 282.355 783.181 310.013 780.012C316.335 786.713 367.397 808.847 379.757 812.314C387.261 814.419 399.482 817.132 406.654 819.412C391.731 828.84 376.076 837.057 359.84 843.983C316.449 862.334 262.948 870.793 218.16 852.701C174.266 834.97 143.167 785.198 126.195 743.084C112.005 707.872 101.074 666.904 95.8119 629.333C93.6423 614.788 90.9774 600.034 92.0077 585.234C95.1829 539.624 119.885 506.779 161.567 489.7C166.355 495.524 172.826 492.164 173.749 485.162Z" fill="#C9F8F2"/>
<path d="M199.678 482.496L200.029 482.429C214.871 482.253 228.477 483.564 242.817 487.907C247.383 489.29 255.107 493.233 259.162 493.707C259.066 498.231 259.071 503.21 258.858 507.691L258.074 507.841C252.998 508.761 245.776 508.243 239.499 509.653C220.385 513.947 203.722 523.623 189.074 536.429C185.138 539.87 181.424 544.297 177.752 547.416C178.117 545.006 179.039 542.678 179.96 540.422C186.51 524.369 190.827 507.598 196.73 491.324C197.798 488.38 199.024 485.56 199.678 482.496Z" fill="#F1C0E8"/>
<path d="M703.703 498.79C724.007 487.06 748.102 484.924 770.498 491.15C774.61 492.293 783.074 494.636 785.675 498.163L785.823 499.114C786.063 500.575 786.407 501.41 786.933 502.777L786.48 503.47L785.002 503.747C784.23 502.721 784.227 502.585 783.642 501.416L782.988 501.339C763.946 486.844 722.886 488.499 703.9 502.521C705.536 504.372 709.959 509.544 711.774 510.755C719.271 515.757 731.818 517.674 740.516 518.32C749.447 518.984 760.912 517.132 769.099 513.642C769.596 515.209 769.776 515.313 769.363 516.926L768.586 517.654C748.573 524.241 733.391 521.983 714.016 515.638C712.576 516.247 711.729 515.807 710.189 515.391C708.005 509.74 701.096 507.394 700.768 501.835C701.724 499.76 701.582 500.321 703.703 498.79Z" fill="#303838"/>
<path d="M842.252 498.34C840.765 498.511 839.301 497.865 838.425 496.651C837.549 495.437 837.397 493.845 838.028 492.487C838.659 491.129 839.975 490.219 841.467 490.106C843.714 489.936 845.684 491.595 845.897 493.838C846.111 496.081 844.491 498.083 842.252 498.34Z" fill="#CBD0F6"/>
<path d="M703.898 502.518C722.884 488.496 763.944 486.841 782.986 501.336C783.932 506.458 781.697 506.917 777.663 509.334L777.061 508.927C776.786 507.131 776.821 505.231 775.791 504.067C771.885 504.998 773.014 511.653 769.097 513.639C760.91 517.129 749.445 518.981 740.514 518.317C731.816 517.671 719.269 515.754 711.772 510.752C709.957 509.541 705.534 504.369 703.898 502.518ZM740.556 499.945C734.086 504.25 735.947 508.325 742.761 509.806C749.397 506.657 747.147 500.91 740.556 499.945Z" fill="#B9FBC0"/>
<path d="M818.46 508.596C808.815 510.953 808.53 499.612 811.819 493.958C822.093 493.069 823.48 502.39 818.46 508.596Z" fill="#CBD0F6"/>
<path d="M785.674 498.16C792.506 506.761 780.278 513.826 773.661 517.069C772.829 524.472 771.999 531.838 771.847 539.29C771.637 543.73 771.5 550.39 771.776 554.916C772.543 569.775 773.441 590.925 777.083 605.167C778.773 611.771 790.267 627.209 794.744 633.615C799.953 641.057 805.069 648.562 810.091 656.131C821.363 673.839 825.105 684.443 833.703 703.114C839.402 715.866 845.899 727.588 848.353 741.497C852.571 765.409 833.511 782.072 813.514 790.692C769.91 809.34 690.015 807.016 659.168 766.573L659.102 766.094C661.923 765.573 661.267 766.119 662.94 764.371L664.484 766.532C672.119 776.485 683.727 782.642 695.502 787.388C731.541 801.916 775.712 800.887 811.744 786.825C823.59 782.202 837.901 772.043 842.449 759.79C849.819 739.933 837.805 723.668 830.343 706.475C827.055 698.004 822.907 686.222 818.398 678.725C815.086 680.567 812.208 681.984 808.778 683.61C801.148 686.447 793.231 688.137 785.305 689.989C770.216 692.04 754.316 694.177 739.039 692.561C735.607 690.491 732.049 692.113 729.83 690.185C732.614 689.35 734.567 690.294 737.759 689.468C767.066 689.985 776.138 689.55 804.992 681.428L809.134 679.911C812.158 678.566 814.193 677.563 817.081 675.953C809.775 661.569 797.342 645.315 788.535 631.696C783.976 624.646 774.645 612.848 772.738 605.045C768.965 589.599 768.485 570.521 767.596 554.592L767.538 547.043C767.563 544.019 768.872 518.501 768.585 517.651L769.362 516.923C769.775 515.31 769.595 515.206 769.098 513.639C773.015 511.653 771.886 504.998 775.792 504.067C776.822 505.231 776.787 507.131 777.062 508.927L777.664 509.334C781.698 506.917 783.933 506.458 782.987 501.336L783.641 501.413C784.226 502.582 784.229 502.718 785.001 503.744L786.479 503.467L786.932 502.774C786.406 501.407 786.062 500.572 785.822 499.111L785.674 498.16Z" fill="#58767B"/>
<path d="M742.762 509.806C735.948 508.325 734.087 504.25 740.557 499.945C747.148 500.91 749.398 506.657 742.762 509.806Z" fill="#A3C4F3"/>
<path d="M261.818 506.678C274.534 505.77 286.489 504.604 299.159 507.447C303.652 508.456 311.567 511.8 315.575 512.202C315.698 515.246 315.925 518.741 315.942 521.748C314.462 520.55 314.508 520.437 312.567 520.096C312.626 519.417 312.96 518.483 312.308 518.148C304.093 513.939 291.428 513.258 282.312 513.954C276.972 514.361 270.143 516.374 267.456 521.082C265.037 521.118 264.034 521.201 261.65 521.603C261.627 516.627 261.683 511.652 261.818 506.678Z" fill="#CBD0F6"/>
<path d="M177.75 547.416C181.422 544.297 185.136 539.87 189.072 536.429C203.72 523.623 220.383 513.947 239.497 509.653C245.774 508.243 252.996 508.761 258.072 507.841L258.856 507.691C258.838 512.324 258.713 517.413 258.943 522.006C225.317 522.073 199.4 536.895 180.189 564.108C158.489 594.844 163.294 633.83 185.079 663.159C191.473 671.768 202.984 682.552 208.121 691.22L207.882 692.035C204.004 690.742 201.399 689.449 197.816 687.451C157.356 664.891 145.643 609.853 164.537 569.452C168.182 561.658 173.411 554.774 177.75 547.416Z" fill="#90DBF4"/>
<path d="M861.226 514.864C861.698 513.719 863.097 511.84 863.861 510.727C871.735 526.728 880.233 545.737 884.899 562.87C890.691 584.138 889.923 614.565 882.709 635.272C878.225 648.142 868.782 668.711 860.157 679.221C852.581 674.576 844.172 666.2 836.014 662.983C829.03 660.228 816.91 653.571 810.09 656.134C805.068 648.565 799.952 641.06 794.743 633.618C790.266 627.212 778.772 611.774 777.082 605.17C773.44 590.928 772.542 569.778 771.775 554.919C782.362 555.507 790.073 555.925 800.703 554.278C824.056 550.692 845.064 538.073 859.2 519.142C866.941 532.728 870.488 548.301 869.393 563.899C868.963 570.326 868.099 576.416 868.733 582.869C868.902 588.525 874.204 594.931 874.381 600.3C874.931 617.008 853.546 626.569 856.775 645.104C857.477 649.131 860.488 656.078 865.62 654.827L865.809 654.036C864.988 652.874 861.099 647.178 860.76 646.209C856.019 632.649 872.233 620.954 876.249 609.416C880.562 597.023 873.434 591.774 872.064 581.203C871.529 577.075 872.694 566.729 872.985 562.105C874.053 545.139 868.123 530.201 861.226 514.864Z" fill="#C9F8F2"/>
<path d="M318.33 512.574C322.779 514.49 330.187 518.831 334.502 521.316C337.287 523.192 341.049 525.887 343.855 527.546C355.301 536.767 366.973 551.981 372.665 565.673C368.874 566.86 362.666 568.597 359.11 569.926C356.281 565.562 353.701 560.423 350.705 555.918C341.574 542.188 332.665 535.97 318.968 527.58C318.727 522.58 318.515 517.577 318.33 512.574Z" fill="#A3C4F3"/>
<path d="M312.566 520.097L312.101 520.048C302.339 518.928 293.4 515.569 282.72 516.538C276.835 517.071 271.246 522.324 267.455 521.083C270.142 516.375 276.971 514.362 282.311 513.955C291.427 513.259 304.092 513.94 312.307 518.149C312.959 518.484 312.625 519.418 312.566 520.097Z" fill="#1B191D"/>
<path d="M859.201 519.141C858.287 517.209 859.166 515.387 861.227 514.863C868.124 530.2 874.054 545.138 872.986 562.104C872.695 566.728 871.53 577.074 872.065 581.202C873.435 591.773 880.563 597.022 876.25 609.415C872.234 620.953 856.02 632.648 860.761 646.208C861.1 647.177 864.989 652.873 865.81 654.035L865.621 654.826C860.489 656.077 857.478 649.13 856.776 645.103C853.547 626.568 874.932 617.007 874.382 600.299C874.205 594.93 868.903 588.524 868.734 582.868C868.1 576.415 868.964 570.325 869.394 563.898C870.489 548.3 866.942 532.727 859.201 519.141Z" fill="#A6AEE5"/>
<path d="M507.636 753.475C502.746 755.114 498.675 763.474 492.314 763.56C490.839 758.456 482.263 751.211 478.214 747.041C467.168 735.458 456.006 723.986 444.732 712.626C429.671 697.418 413.306 683.157 405.53 662.742C399.887 647.927 415.03 635.55 424.576 626.602C426.5 624.797 432.171 621.137 433.146 619.034L432.454 618.368C428.315 617.417 416.26 621.148 411.271 621.784C381.437 625.588 382.446 607.548 389.312 585.791C398.56 556.487 415.421 537.872 434.036 514.395C427.659 528.537 429.629 546.395 432.597 561.275C434.095 568.789 439.369 582.023 443.28 588.591C447.327 595.389 448.399 594.45 451.464 602.679C462.838 633.221 472.51 664.12 484.055 694.677C491.454 714.259 500.635 733.982 507.636 753.475Z" fill="#CBD0F6"/>
<path d="M719.299 531.874C717.872 526.052 715.282 520.674 714.016 515.637C733.391 521.982 748.573 524.24 768.586 517.653C768.873 518.503 767.564 544.021 767.539 547.045C754.937 547.018 738.756 544.529 727.411 538.671C725.088 537.471 722.465 533.676 719.299 531.874Z" fill="#B9FBC0"/>
<path d="M267.456 521.086C271.247 522.327 276.836 517.074 282.721 516.541C293.401 515.572 302.34 518.931 312.102 520.051L312.567 520.1C314.508 520.441 314.462 520.554 315.942 521.752L316.193 526.782L315.684 530.127L315.057 529.816C302.782 523.836 289.602 524.546 276.473 528.255C274.734 528.746 272.166 530.004 270.823 531.203C268.229 532.026 264.49 531.94 261.805 531.729L261.65 521.607C264.034 521.205 265.037 521.122 267.456 521.086Z" fill="#FFCFD2"/>
<path d="M617.025 552.641C630.139 562.245 650.834 569.983 666.04 576.988C678.046 582.518 687.736 587.594 699.486 593.685C704.109 596.447 709.277 599.394 713.755 602.311C710.395 614.546 703.536 627.243 697.238 638.321C683.191 663.03 671.469 688.119 662.627 715.194C656.752 733.181 648.141 748.227 659.101 766.097L659.168 766.576C657.254 767.817 644.445 772.204 640.814 773.745C624.814 780.535 608.894 788.17 592.963 794.973C576.214 802.124 562.765 811.28 546.926 819.26C512.874 831.624 470.461 830.015 435.003 824.922C427.374 823.826 414.226 821.773 407.105 819.408C410.337 816.7 417.389 813.619 421.012 811.297C431.657 804.474 486.649 772.273 491.305 763.985L492.314 763.56C498.675 763.474 502.746 755.114 507.636 753.475C508.342 755.117 509.091 756.766 509.816 758.401C504.892 772.31 500.564 786.424 496.845 800.702C495.89 804.23 492.314 813.791 494.657 816.34L495.575 816.222C496.15 815.485 496.472 815.042 496.682 814.091C507.555 764.992 528.215 718.811 544.265 671.434C548.238 659.541 551.964 647.566 555.442 635.518C561.477 613.854 565.246 598.663 575.134 578.119C583.66 560.405 584.9 534.487 576.712 515.941C598.075 530.968 615.346 545.544 620.585 571.947C622.106 579.611 626.136 606.123 621.14 611.575C614.92 618.361 584.711 617.653 575.035 619.299L574.168 619.45C583.201 625.772 593.098 632.649 600.622 640.753C603.764 644.137 607.208 648.645 607.236 653.447C607.322 668.602 573.424 707.7 562.527 719.636C554.588 728.333 545.669 736.123 538.452 745.47C530.46 755.774 524.1 767.245 519.596 779.482C518.583 782.214 514.571 791.65 516.583 793.504C517.614 793.06 518.42 792.091 518.781 791.046C521.946 781.864 525.079 773.998 529.363 765.282C538.78 746.119 554.053 733.148 568.286 717.821C576.447 709.033 583.608 699.21 590.995 689.775C597.785 680.852 612.045 663.145 610.289 651.535C608.513 639.789 591.798 628.648 582.588 621.694C590.462 621.071 613.138 619.947 619.372 616.996C635.534 609.344 622.286 563.546 617.025 552.641Z" fill="#C9F8F2"/>
<path d="M513.049 593.389C522.968 586.097 533.668 582.977 543.703 573.74C556.933 561.561 574.308 539.642 575.709 521.355C576.603 522.161 576.859 523.482 577.127 524.692C582.524 549.087 576.137 574.797 563.372 595.825C556.446 607.236 548.193 617.503 541.271 628.88C538.515 623.775 535.447 618.845 532.084 614.117C525.82 605.874 521.58 599.375 513.049 593.389Z" fill="#FFFFFA"/>
<path d="M208.122 691.222C202.985 682.554 191.474 671.77 185.08 663.161C163.295 633.832 158.49 594.846 180.19 564.11C199.401 536.897 225.318 522.075 258.944 522.008L258.967 529.8C232.04 532.377 211.441 539.302 193.359 560.272C167.622 590.121 172.363 628.299 189.274 661.078C194.58 671.362 200.494 679.666 207.7 688.7C208.391 689.567 208.218 690.25 208.122 691.222Z" fill="#F1C0E8"/>
<path d="M316.193 526.781C317.44 546.384 316.032 567.088 317.965 587.233C299.762 597.083 277.796 614.39 265.061 630.667C259.718 637.495 254.024 647.685 250.09 655.374C249.668 655.392 249.246 655.411 248.824 655.43C219.473 654.064 200.021 633.734 199.915 603.944C199.822 590.385 205.214 577.363 214.865 567.838C226.43 556.384 242.779 551.788 258.734 551.884C259.357 562.001 258.247 624.882 260.662 629.327L261.336 629.029C263.131 625.284 261.757 593.97 261.633 588.293C261.432 572.833 261.413 557.372 261.576 541.912C263.896 541.311 263.983 541.309 266.333 541.619C269.214 543.416 280.623 542.836 283.007 539.969L282.571 539.204C280.635 538.035 279.188 538.256 276.901 538.217L276.095 537.829C274.72 534.301 274.033 532.876 270.823 531.202C272.166 530.003 274.734 528.745 276.473 528.254C289.602 524.545 302.782 523.835 315.057 529.815L315.684 530.126L316.193 526.781ZM265.512 561.754L264.673 562.637L264.806 563.713C266.82 565.089 277.017 564.711 280.362 565.026C281.133 563.654 281.019 564.359 280.775 562.85C278.352 561.097 268.91 561.686 265.512 561.754ZM267.814 582.137L267.128 583.555C267.464 584.447 267.341 584.731 268.122 584.889C272.246 585.72 278.163 585.346 282.467 585.574L283.344 584.644C282.418 581.256 270.887 582.042 267.814 582.137ZM277.763 599.709C274.181 599.978 266.548 600.323 264.417 603.471C266.558 604.386 267.025 604.233 269.439 604.191C272.999 603.766 280.118 603.472 282.769 601.745L283.048 601.142C281.392 599.144 280.124 599.492 277.763 599.709Z" fill="url(#paint4_linear_2243_42998)"/>
<path d="M479.064 632.152C478.508 631.54 477.934 630.932 477.437 630.272C451.951 596.416 428.656 571.887 433.418 525.762C435.519 528.084 440.64 537.241 443.521 541.075C457.364 559.497 483.552 585.123 505.096 592.634C496.181 599.304 492.939 604.574 486.813 613.7C483.233 619.907 481.484 625.429 479.064 632.152Z" fill="#FFFFFA"/>
<path d="M318.969 527.582C332.666 535.972 341.575 542.19 350.706 555.92C353.702 560.425 356.282 565.564 359.111 569.928L353.331 571.759C347.126 561.024 342.165 553.234 333.065 544.69C329.227 541.086 320.602 537.084 319.141 534.015L318.969 527.582Z" fill="#FFCFD2"/>
<path d="M208.122 691.223C208.218 690.251 208.391 689.568 207.7 688.701C200.494 679.667 194.58 671.363 189.274 661.079C172.363 628.3 167.622 590.122 193.359 560.273C211.441 539.303 232.04 532.378 258.967 529.801C258.851 536.595 258.47 545.229 258.734 551.884C242.779 551.788 226.43 556.384 214.865 567.838C205.214 577.363 199.822 590.385 199.915 603.944C200.021 633.734 219.473 654.064 248.824 655.43C249.246 655.411 249.668 655.392 250.09 655.374C246.297 663.129 242.528 671.117 238.458 678.718C233.368 688.225 227.847 697.411 223.076 707.107C218.583 702.366 213.172 694.603 207.883 692.038L208.122 691.223Z" fill="url(#paint5_linear_2243_42998)"/>
<path d="M261.805 531.725C264.49 531.936 268.229 532.022 270.823 531.199C274.033 532.873 274.72 534.298 276.095 537.826L276.901 538.214C273.521 538.252 270.288 537.873 267.4 539.389C266.69 540.446 266.666 540.403 266.333 541.616C263.983 541.306 263.896 541.308 261.576 541.909L261.805 531.725Z" fill="#CBD0F6"/>
<path d="M719.299 531.875C722.465 533.677 725.088 537.472 727.411 538.672C738.756 544.53 754.937 547.019 767.539 547.046L767.597 554.595C755.741 554.598 744.208 552.962 732.99 548.963C729.478 547.711 725.789 545.296 722.316 544.125L721.789 544.868C720.78 540.963 719.989 535.872 719.299 531.875Z" fill="#A6AEE5"/>
<path d="M319.141 534.016C320.602 537.085 329.227 541.087 333.065 544.691C342.165 553.235 347.126 561.025 353.331 571.76C344.739 574.636 338.586 577.129 330.361 580.93C327.247 576.518 324.176 567.389 319.847 565.95C319.25 562.805 319.201 538.756 319.141 534.016Z" fill="#CBD0F6"/>
<path d="M266.332 541.617C266.665 540.404 266.689 540.447 267.399 539.39C270.287 537.874 273.52 538.253 276.9 538.215C279.187 538.254 280.634 538.033 282.57 539.202L283.006 539.967C280.622 542.834 269.213 543.414 266.332 541.617Z" fill="#1B191D"/>
<path d="M721.788 544.868L722.315 544.125C725.788 545.296 729.477 547.711 732.989 548.963C744.207 552.962 755.74 554.598 767.596 554.595C768.485 570.524 768.965 589.602 772.738 605.048C774.645 612.851 783.976 624.649 788.535 631.699C797.342 645.318 809.775 661.572 817.081 675.956C814.193 677.566 812.158 678.569 809.134 679.914C806.971 677.862 800.16 674.625 797.208 673.641C763.822 649.414 729.627 649.367 703.814 684.152C696.393 682.603 688.993 680.058 682 677.16C683.993 671.676 689.97 660.485 692.736 655.251C702.055 637.618 710.722 624.017 717.029 604.926C729.144 612.607 738.979 619.936 744.007 634.17C745.311 637.863 746.575 645.322 748.211 648.405L749.519 648.696L750.262 647.933C751.149 640.742 747.979 632.28 744.701 626.018C738.829 614.804 728.382 608.31 718.103 601.678C722.628 583.753 723.474 563.23 721.788 544.868Z" fill="#C9F8F2"/>
<path d="M330.915 583.855C347.559 575.896 361.379 572.171 378.853 566.551C383.589 565.027 392.813 560.665 397.748 558.52C387.953 577.987 364.26 628.788 407.768 624.907C413.392 624.405 419.308 622.921 424.912 621.963C417.639 629.005 400.416 644.353 401.092 654.885C402.594 678.32 429.83 701.786 444.793 717.096L474.916 747.772C477.587 750.514 488.876 762.987 491.306 763.983C486.65 772.271 431.658 804.472 421.013 811.295C417.39 813.617 410.338 816.698 407.106 819.406L406.655 819.41C399.483 817.13 387.262 814.417 379.758 812.312C367.398 808.845 316.336 786.711 310.014 780.01C337.481 776.058 370.292 767.656 367.239 731.103C366.614 723.622 358.574 712.475 355.17 705.333C347.335 688.895 340.645 671.827 332.43 655.553C322.822 637.65 321.439 630.453 320.999 610.328C332.966 607.256 335.58 594.013 330.915 583.855Z" fill="#CBD0F6"/>
<path d="M280.363 565.027C277.018 564.712 266.821 565.09 264.807 563.714L264.674 562.638L265.513 561.755C268.911 561.687 278.353 561.098 280.776 562.851C281.02 564.36 281.134 563.655 280.363 565.027Z" fill="#1B191D"/>
<path d="M319.848 565.949C324.177 567.388 327.248 576.517 330.362 580.929C327.464 582.106 323.452 584.175 320.54 585.567C320.131 578.95 319.992 572.576 319.848 565.949Z" fill="#F1C0E8"/>
<path d="M282.468 585.575C278.164 585.347 272.247 585.721 268.123 584.89C267.342 584.732 267.465 584.448 267.129 583.556L267.815 582.138C270.888 582.043 282.419 581.257 283.345 584.645L282.468 585.575Z" fill="#1B191D"/>
<path d="M320.609 588.647L330.914 583.855C335.579 594.013 332.965 607.256 320.998 610.328C320.933 603.1 320.803 595.873 320.609 588.647Z" fill="#F1C0E8"/>
<path d="M302.936 651.46C298.016 651.846 289.594 652.723 284.888 652.505C283.035 651.191 280.063 651.567 277.898 651.712C274.072 652.515 267.516 653.398 264.913 655.903C261.548 655.37 256.642 655.925 253.131 656.171C268.081 626.712 288.877 606.276 318.021 590.566C318.161 604.749 317.229 623.332 320.886 637.008C323.598 647.153 331.174 658.197 335.132 668.012C340.883 680.448 346.224 693.032 351.889 705.537C355.704 714.139 362.753 723.317 364.234 732.627C365.689 741.777 361.434 753.773 355.006 760.323C344.219 771.318 319.003 777.8 303.763 777.503C300.253 772.317 295.248 775.588 292.385 768.388C307.937 767.341 327.382 765.125 340.903 756.974C346.866 753.379 349.474 746.336 350.953 739.841C353.817 727.257 343.971 715.609 339.433 704.618C332.881 688.791 327.874 671.596 319.422 656.651C317.904 653.967 312.277 652.173 309.396 651.669C306.597 651.227 305.79 651.284 302.936 651.46ZM289.944 637.672C284.817 638.508 265.781 639.772 266.403 646.731C267.933 648.369 268.921 648.396 271.293 648.454C273.07 648.485 274.847 648.463 276.623 648.387C284.394 647.698 293.004 647.116 300.686 646.181C299.263 638.495 298.382 636.53 289.944 637.672Z" fill="#CFBAF0"/>
<path d="M455.986 606.759C459.605 611.821 475.66 634.344 480.147 635.9C482.249 634.671 483.461 628.641 484.365 625.983C485.716 622.134 487.419 618.419 489.453 614.884C494.086 606.86 499.876 599.889 507.395 594.453C508.236 594.84 510.877 595.779 510.073 596.991C504.908 604.956 498.408 609.871 496.679 619.734C491.739 647.923 492.579 677.481 493.924 705.985C493.991 707.416 494.437 707.573 495.4 708.264L496.399 708.041C497.896 705.775 495.996 690.874 495.992 686.489C495.976 664.177 494.704 635.832 501.558 614.672C503.025 610.141 510.513 601.319 513.541 598.014C522.843 604.662 532.745 619.953 538.178 629.992C539.092 631.679 539.572 632.174 541.078 632.519C544.568 631.356 547.936 623.966 550.118 620.623C553.491 615.534 556.994 610.533 560.624 605.623C555.108 624.577 550.902 641.413 544.543 660.408C538.417 678.416 532.454 696.246 525.34 713.917C520.107 726.919 516.054 740.4 511.388 753.613C506.493 743.572 500.548 728.162 496.378 717.545C488.549 697.928 481.124 678.152 474.107 658.231C468.031 640.953 462.626 623.921 455.986 606.759ZM513.665 624.586C511.072 624.943 508.886 626.7 507.979 629.156C507.073 631.612 507.595 634.368 509.336 636.323C511.077 638.279 513.753 639.115 516.298 638.5C519.968 637.611 522.298 634.002 521.596 630.291C520.894 626.581 517.406 624.072 513.665 624.586ZM510.425 672.453C505.847 676.055 503.259 683.88 507.526 688.432C508.816 689.786 510.623 690.525 512.492 690.464C513.193 690.437 513.941 690.285 514.624 690.161C522.855 685.509 522.452 671.776 510.425 672.453Z" fill="#C9F8F2"/>
<path d="M269.44 604.191C267.026 604.233 266.559 604.386 264.418 603.471C266.549 600.323 274.182 599.978 277.764 599.709C280.125 599.492 281.393 599.144 283.049 601.142L282.77 601.745C280.119 603.472 273 603.766 269.44 604.191Z" fill="#1B191D"/>
<path d="M516.298 638.5C513.753 639.115 511.077 638.279 509.336 636.323C507.595 634.368 507.073 631.612 507.979 629.156C508.886 626.7 511.072 624.943 513.665 624.586C517.406 624.072 520.894 626.581 521.596 630.291C522.298 634.002 519.968 637.611 516.298 638.5ZM513.388 627.477C508.33 630.926 509.97 634.555 515.59 635.227C517.225 634.388 517.593 634.342 518.455 632.696C518.669 628.904 516.763 628.108 513.388 627.477Z" fill="#303838"/>
<path d="M515.59 635.227C509.97 634.555 508.33 630.926 513.388 627.477C516.763 628.108 518.669 628.904 518.455 632.696C517.593 634.342 517.225 634.388 515.59 635.227Z" fill="#C9F8F2"/>
<path d="M276.622 648.386C274.846 648.462 273.069 648.484 271.292 648.453C268.92 648.395 267.932 648.368 266.402 646.73C265.78 639.771 284.816 638.507 289.943 637.671C298.381 636.529 299.262 638.494 300.685 646.18C293.003 647.115 284.393 647.697 276.622 648.386ZM292.241 640.142C287.176 641.011 274.653 642.776 270.791 644.916L270.771 645.415L270.812 645.283L271.054 645.173C273.053 646.208 274.244 645.802 276.399 645.622C280.147 645.353 294.887 644.706 297.296 643.039C296.744 640.793 294.464 639.824 292.241 640.142Z" fill="#1B191D"/>
<path d="M276.399 645.621C274.244 645.801 273.053 646.207 271.054 645.172L270.812 645.282L270.771 645.414L270.791 644.915C274.653 642.775 287.176 641.01 292.241 640.141C294.464 639.823 296.744 640.792 297.296 643.038C294.887 644.705 280.147 645.352 276.399 645.621Z" fill="#CFBAF0"/>
<path d="M302.935 651.459C305.789 651.283 306.596 651.226 309.395 651.668C308.39 653.567 309.99 659.783 310.468 661.95C316.4 688.851 329.381 724.285 299.463 741.996C286.152 750.126 269.898 752.29 254.495 751.353C247.919 750.952 240.957 749.63 234.313 749.28C244.391 761.428 259.988 766.48 275.291 767.939C280.974 768.429 286.682 768.578 292.384 768.387C295.247 775.587 300.252 772.316 303.762 777.502C281.099 780.724 230.944 773.967 220.406 748.72C214.29 734.068 218.912 724.896 224.503 711.175C227.241 711.89 229.865 712.985 232.298 714.428C231.678 717.764 229.241 722.769 229.693 725.99L230.646 726.517C237.172 726.242 251.379 719.436 256.346 714.78C272.637 699.507 276.476 672.699 277.897 651.711C280.062 651.566 283.034 651.19 284.887 652.504C284.194 655.733 284.008 663.814 283.519 667.695C281.757 681.676 277.403 696.585 270.382 708.763C261.181 724.723 246.567 729.936 229.664 734.214C230.947 743.512 235 742.765 243.257 743.407C268.552 745.374 306.056 744.239 310.964 712.288C313.14 698.122 308.693 686.681 305.933 672.994C304.457 665.707 303.687 658.795 302.935 651.459Z" fill="#98F5E1"/>
<path d="M284.887 652.506C289.593 652.724 298.015 651.847 302.935 651.461C303.687 658.797 304.457 665.709 305.933 672.996C308.693 686.683 313.14 698.124 310.964 712.29C306.056 744.241 268.552 745.376 243.257 743.409C235 742.767 230.947 743.514 229.664 734.216C246.567 729.938 261.181 724.725 270.382 708.765C277.403 696.587 281.757 681.678 283.519 667.697C284.008 663.816 284.194 655.735 284.887 652.506Z" fill="#58E3AA"/>
<path d="M264.911 655.902C267.514 653.397 274.07 652.514 277.896 651.711C276.475 672.699 272.636 699.507 256.345 714.78C251.378 719.436 237.171 726.242 230.645 726.517L229.692 725.99C229.24 722.769 231.677 717.764 232.297 714.428C233.754 710.895 238.973 701.766 241.032 697.941C248.602 683.71 256.564 669.692 264.911 655.902Z" fill="#58E3AA"/>
<path d="M234.312 749.28C240.957 749.63 247.918 750.952 254.494 751.353C269.897 752.29 286.152 750.126 299.463 741.996C329.381 724.285 316.399 688.851 310.467 661.95C309.989 659.783 308.389 653.567 309.394 651.668C312.275 652.172 317.902 653.966 319.42 656.65C327.872 671.595 332.88 688.79 339.432 704.617C343.97 715.608 353.815 727.256 350.951 739.84C349.472 746.335 346.865 753.378 340.902 756.973C327.381 765.124 307.935 767.34 292.383 768.387C286.681 768.578 280.973 768.429 275.29 767.939C259.987 766.48 244.391 761.428 234.312 749.28Z" fill="#58E3AA"/>
<path d="M810.092 656.135C816.912 653.572 829.032 660.229 836.016 662.984C844.174 666.201 852.583 674.577 860.159 679.222L860.072 679.623C854.359 686.284 841.817 700.055 833.704 703.118C825.106 684.447 821.364 673.843 810.092 656.135Z" fill="#98F5E1"/>
<path d="M224.504 711.176C229.373 701.042 234.864 691.664 240.085 681.768C244.519 673.364 248.776 664.658 253.131 656.171C256.642 655.925 261.548 655.37 264.913 655.903C256.566 669.693 248.604 683.711 241.034 697.942C238.975 701.767 233.756 710.896 232.299 714.429C229.866 712.986 227.242 711.891 224.504 711.176Z" fill="#CBD0F6"/>
<path d="M703.814 684.15C729.627 649.365 763.822 649.412 797.208 673.639C799.312 675.819 802.786 679.624 804.992 681.429C776.138 689.551 767.066 689.986 737.759 689.469C735.731 689.076 731.995 688.881 729.818 688.701C734.867 680.726 740.176 667.867 743.13 658.972C742.765 659.117 742.403 659.268 742.043 659.425C731.694 663.925 724.613 669.262 718.105 678.44C716.337 680.932 714.505 683.171 713.392 686.024L713.103 686.081L703.814 684.15Z" fill="#FCD7A3"/>
<path d="M713.393 686.025C714.506 683.172 716.338 680.933 718.106 678.441C724.614 669.263 731.695 663.926 742.044 659.426C742.404 659.269 742.766 659.118 743.131 658.973C740.177 667.868 734.868 680.727 729.819 688.702C724.677 688.182 718.422 687.207 713.393 686.025Z" fill="#B9FBC0"/>
<path d="M514.624 690.162C513.941 690.286 513.193 690.438 512.492 690.465C510.623 690.526 508.816 689.787 507.526 688.433C503.259 683.881 505.847 676.056 510.425 672.454C522.452 671.777 522.855 685.51 514.624 690.162ZM511.966 674.742C508.056 678.843 505.623 686.8 513.581 687.727C518.041 683.483 519.024 676.799 511.966 674.742Z" fill="#303838"/>
<path d="M797.207 673.641C800.159 674.625 806.97 677.862 809.133 679.914L804.991 681.431C802.785 679.626 799.311 675.821 797.207 673.641Z" fill="#FFFFFA"/>
<path d="M513.582 687.727C505.624 686.8 508.057 678.843 511.967 674.742C519.025 676.799 518.042 683.483 513.582 687.727Z" fill="#C9F8F2"/>
<path d="M681.999 677.16C688.992 680.058 696.392 682.603 703.813 684.152L713.102 686.083L712.307 688.813C708.865 688.226 705.882 687.691 702.484 686.891C697.356 685.741 688.083 683.285 683.629 681.141C682.694 680.334 682.204 679.964 681.412 679.008L681.999 677.16Z" fill="url(#paint6_linear_2243_42998)"/>
<path d="M808.777 683.612C812.207 681.986 815.085 680.569 818.397 678.727C822.906 686.224 827.054 698.006 830.342 706.477C825.525 708.515 822.312 711.038 817.77 709.598C818.183 699.934 809.205 689.721 808.777 683.612Z" fill="#98F5E1"/>
<path d="M662.94 764.375C657.151 754.331 656.777 747.455 660.327 736.326C662.942 728.126 676.93 683.604 681.179 680.305L683.63 681.142C688.084 683.286 697.357 685.742 702.485 686.892C695.249 697.73 678.878 724.174 678.443 737.095C678.504 744.037 678.795 753.397 681.849 759.725C676.195 763.09 670.725 764.513 664.484 766.536L662.94 764.375Z" fill="#C9F8F2"/>
<path d="M833.704 703.116C841.817 700.053 854.359 686.282 860.072 679.621C878.333 701.387 882.348 727.381 880.094 754.93C874.799 819.635 811.342 863.062 750.057 865.478C695.882 867.612 645.336 843.208 594.245 829.501C586.058 827.263 577.783 825.357 569.442 823.788C565.275 823.012 549.89 820.412 546.928 819.259C562.767 811.279 576.216 802.123 592.965 794.972C608.896 788.169 624.815 780.534 640.815 773.744C644.446 772.203 657.255 767.816 659.169 766.575C690.016 807.018 769.911 809.342 813.515 790.694C833.512 782.074 852.572 765.411 848.354 741.499C845.9 727.59 839.403 715.868 833.704 703.116Z" fill="#FBF8CC"/>
<path d="M785.305 689.992C793.231 688.14 801.148 686.45 808.778 683.613C809.206 689.722 818.184 699.935 817.771 709.599C813.649 701.587 812.036 695.576 808.882 687.39L807.99 687.106C799.945 687.203 797.424 689.765 789.84 692.978L789.801 692.39L791.185 691.473L791.03 690.577L790.017 690.206C787.782 690.721 787.466 690.748 785.305 689.992Z" fill="#FBF8CC"/>
<path d="M713.104 686.08L713.393 686.023C718.422 687.205 724.677 688.18 729.819 688.7C731.996 688.88 735.732 689.075 737.76 689.468C734.568 690.294 732.615 689.35 729.831 690.185C732.05 692.113 735.608 690.491 739.04 692.561C735.894 692.569 731.623 691.997 728.393 691.656C724.309 690.937 720.211 690.3 716.101 689.745L712.309 688.81L713.104 686.08Z" fill="#55A894"/>
<path d="M702.485 686.891C705.883 687.691 708.866 688.226 712.308 688.813L716.1 689.748C707.883 701.282 698.903 710.166 689.663 720.775C685.511 725.542 681.934 733.093 678.443 737.094C678.878 724.173 695.249 697.729 702.485 686.891Z" fill="#FCD7A3"/>
<path d="M789.841 692.977C797.425 689.764 799.946 687.202 807.991 687.105C794.76 694.817 781.452 699.03 768.991 706.927C758.306 713.698 748.943 725.002 739.945 733.831C730.785 742.818 718.576 750.441 706.941 755.771C704.494 756.892 697.349 760.17 695.033 760.258C693.472 759.691 693.485 759.482 692.469 758.195C709.463 756.15 733.653 738.69 744.415 725.755C759.202 707.98 769.856 703.322 789.841 692.977Z" fill="url(#paint7_linear_2243_42998)"/>
<path d="M807.99 687.105L808.882 687.389C812.036 695.575 813.649 701.587 817.771 709.599C821.662 724.817 830.274 744.313 820.971 759.214C807.508 780.777 773.015 783.729 750.216 782.686C728.081 781.673 699.551 777.601 684.371 760.123C686.604 758.891 689.896 758.583 692.468 758.195C693.484 759.482 693.471 759.691 695.032 760.258C697.348 760.17 704.493 756.892 706.94 755.771C718.575 750.441 730.784 742.818 739.944 733.831C748.942 725.002 758.305 713.698 768.99 706.927C781.451 699.03 794.759 694.817 807.99 687.105ZM813.116 708.969C802.381 715.684 788.369 722.681 778.447 729.862C766.915 738.208 743.902 762.832 739.407 775.805L739.702 776.828C740.769 777.262 740.422 777.269 741.489 777.263C758.241 745.672 783.058 727.287 813.965 711.776C814.682 711.416 814.707 710.239 814.754 709.582C813.667 708.918 814.19 708.971 813.116 708.969Z" fill="#F1C0E8"/>
<path d="M716.1 689.746C720.21 690.301 724.308 690.938 728.392 691.657C724.554 701.268 716.404 706.661 708.95 713.727C698.791 723.358 685.771 735.214 679.969 748.075C680.427 752.149 680.673 754.309 682.577 758.101L681.849 759.722C678.795 753.394 678.504 744.034 678.443 737.092C681.934 733.091 685.511 725.54 689.663 720.773C698.903 710.164 707.883 701.28 716.1 689.746Z" fill="#FFFFFA"/>
<path d="M739.039 692.564C754.316 694.18 770.216 692.043 785.305 689.992C787.466 690.748 787.782 690.721 790.017 690.206L791.03 690.577L791.185 691.473L789.801 692.39L789.84 692.978C769.855 703.323 759.201 707.98 744.414 725.755C733.652 738.69 709.462 756.151 692.468 758.196C689.896 758.584 686.604 758.892 684.371 760.124L682.577 758.103C680.673 754.311 680.427 752.151 679.969 748.077C685.771 735.216 698.791 723.36 708.95 713.729C716.404 706.663 724.554 701.27 728.392 691.659C731.622 692 735.893 692.572 739.039 692.564Z" fill="url(#paint8_linear_2243_42998)"/>
<path d="M817.771 709.598C822.313 711.038 825.526 708.515 830.343 706.477C837.805 723.67 849.819 739.935 842.449 759.792C837.901 772.045 823.59 782.204 811.744 786.827C775.712 800.889 731.541 801.918 695.502 787.39C683.727 782.644 672.119 776.487 664.484 766.534C670.725 764.511 676.195 763.088 681.849 759.723L682.577 758.102L684.371 760.123C699.551 777.601 728.081 781.673 750.216 782.686C773.015 783.729 807.508 780.776 820.971 759.213C830.274 744.312 821.662 724.816 817.771 709.598Z" fill="#FBF8CC"/>
<path d="M741.488 777.263C740.421 777.269 740.768 777.262 739.701 776.828L739.406 775.805C743.901 762.832 766.914 738.208 778.446 729.862C788.368 722.681 802.38 715.684 813.115 708.969C814.189 708.971 813.666 708.918 814.753 709.582C814.706 710.239 814.681 711.416 813.964 711.776C783.057 727.287 758.24 745.672 741.488 777.263Z" fill="#FBF8CC"/>
<defs>
<linearGradient id="paint0_linear_2243_42998" x1="302.31" y1="464.496" x2="760.572" y2="616.034" gradientUnits="userSpaceOnUse">
<stop stop-color="#221521"/>
<stop offset="1" stop-color="#355A5C"/>
</linearGradient>
<linearGradient id="paint1_linear_2243_42998" x1="400.691" y1="306.844" x2="391.022" y2="300.981" gradientUnits="userSpaceOnUse">
<stop stop-color="#010100"/>
<stop offset="1" stop-color="#2A204A"/>
</linearGradient>
<linearGradient id="paint2_linear_2243_42998" x1="718.041" y1="517.063" x2="577.494" y2="516.933" gradientUnits="userSpaceOnUse">
<stop stop-color="#C4FEF6"/>
<stop offset="1" stop-color="#F0CDFD"/>
</linearGradient>
<linearGradient id="paint3_linear_2243_42998" x1="297.722" y1="474.581" x2="280.366" y2="512.91" gradientUnits="userSpaceOnUse">
<stop stop-color="#F6EAE9"/>
<stop offset="1" stop-color="#EFC3F4"/>
</linearGradient>
<linearGradient id="paint4_linear_2243_42998" x1="328.241" y1="568.328" x2="200.2" y2="613.146" gradientUnits="userSpaceOnUse">
<stop stop-color="#FCBDDB"/>
<stop offset="1" stop-color="#EEE1F6"/>
</linearGradient>
<linearGradient id="paint5_linear_2243_42998" x1="254.456" y1="620.6" x2="174.793" y2="606.275" gradientUnits="userSpaceOnUse">
<stop stop-color="#B5D1F6"/>
<stop offset="1" stop-color="#AADDF7"/>
</linearGradient>
<linearGradient id="paint6_linear_2243_42998" x1="695.535" y1="684.824" x2="697.089" y2="680.856" gradientUnits="userSpaceOnUse">
<stop stop-color="#3C8C79"/>
<stop offset="1" stop-color="#477F83"/>
</linearGradient>
<linearGradient id="paint7_linear_2243_42998" x1="734.715" y1="712.369" x2="761.317" y2="735.596" gradientUnits="userSpaceOnUse">
<stop stop-color="#FFFDAE"/>
<stop offset="1" stop-color="#FEFEE1"/>
</linearGradient>
<linearGradient id="paint8_linear_2243_42998" x1="767.515" y1="738.854" x2="701.022" y2="706.222" gradientUnits="userSpaceOnUse">
<stop stop-color="#F2CBDE"/>
<stop offset="1" stop-color="#EFB9EA"/>
</linearGradient>
</defs>
</svg>
