<svg width="1024" height="1024" viewBox="0 0 1024 1024" fill="none" xmlns="http://www.w3.org/2000/svg">
<path d="M377.639 257.782C381.157 250.722 383.778 243.316 387.036 236.177C412.84 179.795 454.238 130.764 514.539 110.24C581.537 87.4367 651.739 104.683 709.593 142.425C761.443 176.25 773.349 215.768 751.49 273.273L751.205 273.391C748.314 272.235 738.679 271.019 735.117 270.678C703.058 267.617 664.474 268.2 634.464 280.814C630.335 282.549 613.421 290.269 610.738 292.573C608.343 289.475 605.694 283.994 603.524 280.486C601.264 276.832 599.607 274.784 596.831 271.409C602.859 266.406 606.907 259.859 599.978 253.289C588.98 242.861 571.808 241.411 558.528 234.915C547.73 229.669 538.664 219.914 527.915 214.906C523.283 212.887 517.732 211.913 512.679 212.108C501.79 212.526 486.626 214.247 478.184 221.827C472.165 227.23 473.313 237.544 479.589 242.361C485.228 246.688 491.563 249.544 497.82 252.904C516.909 263.125 537.214 272.414 551.67 289.125C555.23 293.24 558.466 298.04 562.535 301.649C551.252 310.952 559.013 324.295 561.843 336.108C559.521 336.037 556.08 336.192 553.73 336.393C522.874 339.033 499.179 322.165 473.331 308.108L422.289 280.445C405.842 271.639 394.98 265.488 377.639 258.284V257.782Z" fill="#DFF9F1"/>
<path d="M596.829 271.408C599.605 274.783 601.262 276.831 603.522 280.485C605.692 283.993 608.341 289.474 610.736 292.572C616.706 292.296 620.24 293.709 620.652 300.397C621.834 319.574 631.855 336.354 637.214 354.572C640.416 365.454 639.48 371.817 638.175 382.906C634.053 411.748 628.186 440.312 620.606 468.443C616.385 485.277 611.111 503.853 606.394 520.682C605.066 522.002 604.9 521.948 603.21 522.638C605.492 510.399 611.852 490.977 615.323 478.146C623.084 450.432 629.232 422.291 633.736 393.865C635.08 384.95 637.631 370.502 636.002 361.835C632.561 343.527 621.549 326.611 619.021 307.861C617.662 301.079 618.842 295.342 610.125 294.538C594.738 293.119 577.046 295.058 563.984 303.806C556.42 308.871 559.694 318.428 561.52 325.718C564.886 339.161 570.161 352.64 569.027 366.778C565.872 399.203 544.629 427.211 528.195 454.253C509.224 484.47 485.546 518.507 457.485 540.99L455.076 539.734C469.337 527.169 479.295 516.8 491.36 502.257C507.974 482.075 525.928 453.827 539.398 431.163C540.155 430.239 544.116 423.753 544.843 422.494C556.185 402.837 568.196 380.436 566.305 357.058C565.798 350.802 563.396 342.252 561.841 336.106C559.011 324.293 551.25 310.95 562.533 301.647C558.464 298.038 555.228 293.238 551.668 289.123C537.212 272.412 516.907 263.123 497.818 252.902C491.561 249.542 485.226 246.686 479.587 242.359C473.311 237.542 472.163 227.228 478.182 221.825C486.624 214.245 501.788 212.524 512.677 212.106C517.73 211.911 523.281 212.886 527.913 214.905C538.662 219.913 547.728 229.667 558.526 234.913C571.806 241.409 588.978 242.859 599.976 253.287C606.905 259.857 602.857 266.405 596.829 271.408ZM506.905 215.206C497.301 216.158 475.081 219.42 477.01 233.267C477.218 234.764 477.635 236.776 478.929 237.715C486.821 227.676 491.045 225.761 503.487 223.907C522.968 221.003 535.634 230.932 550.493 241.655C557.003 246.239 564.469 250.648 570.883 255.454C574.712 258.26 577.883 260.706 581.012 264.335C586.862 265.039 590.549 266.509 595.28 270.114C600.648 263.995 603.968 259.59 595.525 253.313C583.74 244.551 567.198 242.917 554.347 235.846C536.245 225.632 529.812 212.423 506.905 215.206ZM504.447 226.683C494.248 228.095 486.681 230.503 481.044 239.883C485.064 243.584 494.625 248.302 499.737 250.931C522.006 262.383 541.551 271.562 557.538 291.796L560.938 296.394C558.404 280.493 559.478 269.448 576.928 263.9C569.665 257.063 560.507 251.974 552.228 246.399C536.994 236.141 527.384 226.008 507.993 226.478C506.809 226.511 505.627 226.58 504.447 226.683ZM575.785 267.008C558.041 273.606 562.828 286.59 563.883 300.735C572.131 296.383 576.668 294.829 585.809 292.843C593.513 291.909 598.999 291.427 606.888 291.731C599.959 277.351 593.566 266.874 575.785 267.008Z" fill="#5E423C"/>
<path d="M570.884 255.453C564.47 250.647 557.004 246.237 550.494 241.653C535.635 230.93 522.969 221.001 503.488 223.905C491.046 225.759 486.822 227.675 478.93 237.714C477.636 236.775 477.219 234.762 477.011 233.265C475.082 219.418 497.302 216.157 506.906 215.205C529.813 212.422 536.246 225.631 554.348 235.845C567.199 242.916 583.741 244.55 595.526 253.312C603.969 259.589 600.649 263.993 595.281 270.112C590.55 266.507 586.863 265.038 581.013 264.334C577.884 260.705 574.713 258.259 570.884 255.453Z" fill="#FFFFFA"/>
<path d="M200.192 566.97C197.723 566.175 191.512 562.16 189.365 560.407C152.452 530.286 123.743 487.404 105.995 443.492C86.8961 396.236 82.0902 340.337 103.458 293.057C115.755 265.239 138.789 243.583 167.311 233.023C178.413 228.894 191.277 226.253 203.08 224.47C259.18 215.994 317.711 231.266 368.626 254.34C371.563 255.671 374.651 256.413 377.638 257.78V258.282C360.98 308.554 350.172 360.327 359.683 413.487C362.1 426.997 365.415 434.147 368.78 446.118C350.709 471.281 338.383 488.267 332.235 520.02C330.955 525.811 327.976 533.057 326.091 538.91C320.586 556.008 313.721 574.531 312.167 592.55C308.116 593.242 299.441 593.806 296.95 596.184C289.893 589.545 278.098 580.875 270.404 574.534C246.674 554.973 219.934 534.641 200.149 511.037C192.416 501.95 186.246 491.641 181.893 480.531C179.115 473.464 177.665 467.151 176.377 459.745C176.226 458.876 175.583 458.203 174.911 457.652C172.836 457.454 173.684 457.172 172.185 458.159C170.174 462.549 174.532 474.358 176.035 478.918C185.126 506.504 205.941 526.759 227.173 545.647C246.691 563.011 268.188 578.473 288.103 595.615C262.653 595.909 241.148 590.171 218.527 578.906C215.751 577.523 211.44 574.417 208.617 574.601C206.106 569.597 204.011 556.276 200.186 554.517C198.191 554.715 199.014 554.33 197.584 555.608C196.626 558.868 198.937 563.584 200.192 566.97ZM258.991 423.269C252.44 435.066 297.495 496.716 310.556 496.392C311.77 494.42 311.81 494.999 311.785 493.021C307.743 488.866 302.765 485.278 298.877 481.529C282.219 465.462 269.628 446.089 262.553 424.028C262.308 423.264 259.762 423.303 258.991 423.269ZM302.198 425.28C297.832 438.039 319.195 464.89 331.959 467.453C332.151 466.611 333.055 464.029 332.424 463.511C325.198 457.582 317.295 453.047 312.718 444.392C309.526 438.355 307.756 432.425 305.527 426.033C305.302 425.388 302.789 425.316 302.198 425.28ZM211.93 459.162C210.914 459.965 209.971 460.311 210.073 461.725C210.317 465.101 213.631 469.743 215.427 472.529C227.011 490.502 241.345 507.777 258.414 520.784C265.504 526.187 278.867 536.007 286.98 539.047C288.767 537.711 288.691 538.21 289.194 536.489C288.356 533.831 285.66 532.813 283.286 531.504C268.284 523.234 250.081 508.265 238.956 495.55C232.708 488.389 226.974 480.795 221.797 472.826C220.013 470.082 214.59 459.942 211.93 459.162Z" fill="#FDE4CF"/>
<path d="M481.045 239.882C486.682 230.502 494.249 228.093 504.448 226.681C505.628 226.578 506.81 226.51 507.994 226.477C527.385 226.007 536.995 236.14 552.229 246.398C560.508 251.973 569.666 257.062 576.929 263.899C559.479 269.447 558.405 280.491 560.939 296.392L557.539 291.794C541.552 271.56 522.007 262.382 499.738 250.93C494.626 248.301 485.065 243.583 481.045 239.882Z" fill="#FFFFFA"/>
<path d="M377.637 258.281C394.978 265.485 405.84 271.636 422.287 280.442L473.329 308.105C499.177 322.162 522.872 339.03 553.728 336.39C556.078 336.189 559.519 336.034 561.841 336.105C563.396 342.251 565.798 350.8 566.305 357.056C568.196 380.434 556.185 402.835 544.843 422.492C544.116 423.751 540.155 430.238 539.398 431.162C522.878 434.961 470.699 467.713 455.966 478.191C449.366 474.911 414.08 460.139 408.164 459.525C414.596 448.86 426.268 431.747 435.309 423.261C442.172 416.819 475.795 405.247 475.416 394.552C471.733 386.277 453.835 397.383 448.531 399.805C451.394 388.538 457.159 378.348 463.77 368.846C465.767 365.977 471.904 358.09 468.498 354.784C464.45 350.854 458.126 359.217 455.554 362.175L453.364 359.513C454.41 358.295 454.311 357.561 453.736 356.344L452.286 355.901C450.581 356.197 450.605 356.351 449.358 357.495C442.945 362.9 442.996 374.081 444.326 381.635L445.258 381.721C448.451 377.226 460.872 353.912 466.803 357.221C467.808 361.568 444.584 389.571 446.674 400.739C448.857 403.38 450.658 401.698 453.267 400.534C457.125 398.812 468.841 392.419 472.789 394.687C472.917 396.044 472.52 396.634 471.682 397.702C464.446 406.927 445.601 412.59 435.636 419.919C420.042 431.389 388.003 485.409 380.992 504.421C379.379 508.798 378.958 513.655 378.325 518.256C365.053 509.199 350.733 509.721 336.162 515.223C340.904 483.492 370.32 445.949 392.42 423.761C400.058 416.094 405.543 413.029 411.671 403.694C418.544 393.224 417.562 364.735 422.36 357.979L423.4 357.725C425.708 361.258 418.696 381.565 422.097 382.326C423.71 378.71 427.116 360.034 425.799 356.017C423.63 353.802 420.235 355.235 419.465 357.345C414.322 371.451 416.234 387.729 410.041 401.68C407.085 408.09 394.801 417.66 389.455 423.454C382.469 431.024 375.413 438.22 368.779 446.117C365.414 434.146 362.099 426.996 359.682 413.486C350.171 360.326 360.979 308.553 377.637 258.281ZM443.397 356.974L444.735 353.207C445.944 349.791 446.121 348.188 443.219 345.697C436.181 344.002 431.875 360.984 428.875 365.931C428.704 365.396 428.837 365.689 428.404 365.09C426.644 369.519 422.731 379.731 426.786 383.357C429.434 383.439 430.203 383.366 432.824 382.936C433.772 381.548 436.889 372.809 437.743 370.672C439.515 366.231 441.538 361.894 443.803 357.683L443.397 356.974Z" fill="url(#paint0_linear_2243_43282)"/>
<path d="M563.883 300.735C562.828 286.59 558.041 273.607 575.785 267.009C593.566 266.875 599.959 277.352 606.888 291.732C598.999 291.428 593.513 291.91 585.809 292.844C576.668 294.83 572.131 296.383 563.883 300.735Z" fill="#FDE4CF"/>
<path d="M610.736 292.57C613.419 290.266 630.333 282.546 634.462 280.811C664.472 268.197 703.056 267.614 735.115 270.675C738.677 271.016 748.312 272.232 751.203 273.388C730.565 317.597 684.761 358.145 641.763 381.9C641.063 382.287 639.052 382.715 638.175 382.904C639.48 371.815 640.416 365.453 637.214 354.571C631.855 336.353 621.834 319.573 620.652 300.396C620.24 293.708 616.706 292.294 610.736 292.57Z" fill="#98F5E1"/>
<path d="M751.489 273.27C808.168 280.095 868.461 300.297 904.956 346.638C933.573 382.976 941.981 422.529 927.715 466.823C907.57 529.367 854.398 565.948 833.577 628.323C811.368 605.456 787.823 583.926 763.065 563.847C757.666 559.498 751.013 555.781 746.022 551.617C770.449 525.553 777.496 492.057 790.997 459.933C794.244 452.209 800.162 442.099 802.517 434.664C800.74 431.821 793.099 421.454 791.055 419.526C793.965 413.973 795.798 412.348 800.398 407.919C810.849 406.166 821.033 403.817 831.654 402.278C843.941 400.233 857.225 399.999 869.181 396.397C877.437 393.911 877.511 386.979 872.757 381.031C864.177 370.299 852.306 363.809 839.23 360.182C827.061 356.512 813.233 356.501 801.105 353.19C787.976 349.605 779.003 338.822 763.789 342.489C741.699 347.814 749.09 374.175 752.747 389.977C751.079 393.094 746.62 402.047 744.977 404.441C739.266 405.935 730.508 411.889 727.739 417.081C723.907 424.268 722.28 433.124 719.211 440.847C710.279 463.317 689.94 484.365 668.544 495.343C654.625 484.598 636.781 475.199 620.607 468.442C628.187 440.311 634.054 411.746 638.176 382.904C639.053 382.715 641.064 382.287 641.764 381.9C684.762 358.145 730.566 317.597 751.204 273.388L751.489 273.27Z" fill="#EEE3F9"/>
<path d="M603.211 522.639C601.789 524.036 590.62 527.89 588.188 528.683C579.637 531.472 519.405 554.62 518.178 560.227L519.298 561.162C520.909 560.874 523.247 559.342 524.752 558.547C553.556 543.331 584.911 533.146 615.243 521.399C636.855 513.029 659.093 505.495 678.593 492.689C689.094 485.672 698.527 477.175 706.6 467.462C712.728 460.089 717.701 451.829 721.349 442.964C725.056 433.763 726.433 422.501 732.683 414.943C735.303 411.776 739.92 409.941 743.066 407.626L743.697 407.155L747.071 406.353C756.65 404.023 767.799 405.085 776.298 410.355C787.135 417.075 791.664 426.346 799.354 435.2C790.396 451.924 784.752 465.932 778.164 483.805C772.753 498.483 765.735 520.045 757.367 533.101C743.551 553.65 722.235 569.055 703.291 584.464C673.447 608.739 641.756 631.138 608.347 650.201C592.687 659.137 571.248 669.147 553.973 674.259L554.244 672.465C553.549 668.317 549.973 657.884 548.564 653.792C535.267 615.734 512.071 581.905 481.362 555.785C476.933 552.075 472.067 549.12 467.065 546.282C464.849 545.024 458.956 542.532 457.486 540.991C485.547 518.508 509.225 484.471 528.196 454.254C544.63 427.212 565.873 399.203 569.028 366.778C570.162 352.64 564.887 339.162 561.521 325.719C559.695 318.429 556.421 308.872 563.985 303.807C577.047 295.059 594.739 293.12 610.126 294.539C618.843 295.343 617.663 301.08 619.022 307.862C621.55 326.612 632.562 343.527 636.003 361.835C637.632 370.502 635.081 384.951 633.737 393.866C629.233 422.292 623.085 450.433 615.324 478.147C611.853 490.978 605.493 510.4 603.211 522.639ZM581.159 315.843C577.271 317.713 571.952 320.638 569.604 324.361L569.497 325.643C570.758 326.001 570.139 325.955 571.375 325.621C574.553 322.491 580.81 319.715 582.666 317.581L582.502 316.563C582.23 316.411 581.414 315.929 581.159 315.843ZM740.322 425.165C738.156 425.444 736.35 425.402 734.682 426.689L734.374 427.525C736.56 428.619 744.307 427.339 747.549 427.239C749.931 427.339 751.334 427.647 753.434 426.557L753.205 425.965C749.216 424.621 744.449 424.527 740.322 425.165ZM473.006 533.652C473.356 534.762 473.141 534.968 474.554 535.482C479.315 537.211 482.617 537.565 487.234 539.847C490.732 541.576 499.131 548.717 501.255 549.145C502.224 541.55 480.189 532.963 473.006 533.652ZM510.804 577.394C511.075 578.609 510.889 579.063 511.969 579.671C514.89 581.315 522.053 583.192 525.187 583.324C525.281 582.426 525.576 581.769 525.07 581.376C522.86 579.658 513.274 577.639 510.804 577.394ZM579.37 637.24C581.112 642.708 589.908 648.759 595.623 648.587C593.924 646.394 582.038 637.658 579.37 637.24ZM560.609 644.201C560.599 646.131 560.268 646.321 561.783 647.886C564.777 650.979 571.097 655.304 575.451 655.469C575.313 654.391 575.522 653.908 574.157 653.254C570.869 651.679 563.222 644.583 560.609 644.201Z" fill="url(#paint1_linear_2243_43282)"/>
<path d="M571.374 325.622C570.138 325.956 570.757 326.002 569.496 325.644L569.603 324.362C571.951 320.639 577.27 317.714 581.158 315.844C581.413 315.93 582.229 316.412 582.501 316.564L582.665 317.582C580.809 319.716 574.552 322.492 571.374 325.622Z" fill="#5E423C"/>
<path d="M797.597 406.549C796.559 401.925 795.448 397.492 792.712 393.286C783.939 379.798 761.021 380.617 753.02 394.509C751.953 396.362 749.482 401.202 749.194 403.248L748.01 404.715L744.977 404.44C746.62 402.046 751.079 393.093 752.747 389.976C749.09 374.174 741.699 347.813 763.789 342.488C779.003 338.821 787.976 349.604 801.105 353.189C813.233 356.5 827.061 356.511 839.23 360.181C852.306 363.808 864.177 370.298 872.757 381.03C877.511 386.978 877.437 393.91 869.181 396.396C857.225 399.998 843.941 400.232 831.654 402.277C821.033 403.816 810.849 406.165 800.398 407.918C795.798 412.347 793.965 413.972 791.055 419.525C789.85 419.032 790.359 419.221 789.389 417.884C792.213 412.845 793.871 410.963 797.597 406.549ZM800.713 405.414C808.969 403.496 817.279 401.823 825.634 400.397C840.119 397.992 857.919 397.672 871.428 391.957C875.316 389.324 870.78 382.686 869.217 380.898C850.554 359.545 822.682 361.499 797.749 355.011C789.182 352.781 780.895 344.742 770.785 344.578C759.28 344.391 752.232 349.139 751.501 360.909C752.266 362.521 751.671 361.984 753.018 362.863L751.801 364.154C750.605 370.768 753.59 381.215 755.144 387.902C765.885 378.307 779.617 376.863 791.548 385.671C798.027 390.454 799.765 397.866 800.713 405.414Z" fill="url(#paint2_linear_2243_43282)"/>
<path d="M751.5 360.911C752.231 349.141 759.279 344.393 770.784 344.58C780.894 344.744 789.181 352.783 797.748 355.013C822.681 361.501 850.553 359.547 869.216 380.9C870.779 382.688 875.315 389.326 871.427 391.959C857.918 397.674 840.118 397.994 825.633 400.399C817.278 401.825 808.968 403.498 800.712 405.416C799.764 397.868 798.026 390.456 791.547 385.673C779.616 376.865 765.884 378.309 755.143 387.904C753.589 381.217 750.604 370.77 751.8 364.156L753.017 362.865C758.715 358.253 763.831 357.869 770.783 358.924C784.973 361.079 798.965 365.071 812.923 368.412C823.665 370.983 834.66 373.345 845.125 376.843C852.825 379.435 859.379 384.672 866.611 388.155C867.92 388.787 869.128 389.017 870.401 388.426L870.409 387.629C868.239 385.46 850.67 375.882 847.35 374.768C836.253 371.045 823.38 367.95 811.865 365.155C798.268 361.854 783.731 357.847 769.919 355.917C762.143 354.831 757.585 356.016 751.5 360.911Z" fill="#FFFFFA"/>
<path d="M443.397 356.974C438.43 361.531 436.596 376.82 431.163 382.278L430.706 381.888C431.739 373.662 440.271 358.326 443.247 349.382L442.391 348.321C437.161 348.461 430.095 369.826 428.778 374.704C428.113 377.167 429.278 381.576 427.731 382.807C422.813 379.961 428.264 369.986 428.875 365.931C431.875 360.984 436.181 344.002 443.219 345.697C446.121 348.188 445.944 349.791 444.735 353.207L443.397 356.974Z" fill="#5E423C"/>
<path d="M428.875 365.93C428.264 369.985 422.813 379.96 427.731 382.806C429.278 381.575 428.113 377.166 428.778 374.703C430.095 369.825 437.161 348.46 442.391 348.32L443.247 349.381C440.271 358.325 431.739 373.661 430.706 381.887L431.163 382.277C436.596 376.819 438.43 361.53 443.397 356.973L443.803 357.682C441.538 361.893 439.515 366.23 437.743 370.671C436.889 372.808 433.772 381.547 432.824 382.935C430.203 383.365 429.434 383.438 426.786 383.356C422.731 379.73 426.644 369.518 428.404 365.089C428.837 365.688 428.704 365.395 428.875 365.93Z" fill="#FDE4CF"/>
<path d="M444.326 381.636C442.996 374.082 442.945 362.901 449.358 357.496C450.204 358.867 450.143 358.767 450.107 360.389L451.135 361.382C448.003 367.638 444.955 368.008 445.952 376.463C449.192 370.351 451.152 367.531 455.554 362.176C458.126 359.218 464.45 350.855 468.498 354.785C471.904 358.091 465.767 365.978 463.77 368.847C457.159 378.349 451.394 388.539 448.531 399.806C453.835 397.384 471.733 386.278 475.416 394.553C475.795 405.248 442.172 416.82 435.309 423.262C426.268 431.748 414.596 448.861 408.164 459.526C398.581 475.022 381.328 500.814 381.052 519.762C381.041 520.554 382.591 522.143 382.707 523.788C381.78 523.274 381.709 522.999 381.021 522.182L379.59 522.353C378.883 522.097 378.811 522.134 378.272 521.72C371.034 516.163 363.257 513.797 354.113 513.713C348.036 513.657 339.76 515.038 335.234 519.564L332.234 520.02C338.382 488.267 350.708 471.281 368.779 446.118C375.413 438.221 382.469 431.025 389.455 423.455C394.801 417.661 407.085 408.091 410.041 401.681C416.234 387.73 414.322 371.452 419.465 357.346C420.235 355.236 423.63 353.803 425.799 356.018C427.116 360.035 423.71 378.711 422.097 382.327C418.696 381.566 425.708 361.259 423.4 357.726L422.36 357.98C417.562 364.736 418.544 393.225 411.671 403.695C405.543 413.03 400.058 416.095 392.42 423.762C370.32 445.95 340.904 483.493 336.162 515.224C350.733 509.722 365.053 509.2 378.325 518.257C378.958 513.656 379.379 508.799 380.992 504.422C388.003 485.41 420.042 431.39 435.636 419.92C445.601 412.591 464.446 406.928 471.682 397.703C472.52 396.635 472.917 396.045 472.789 394.688C468.841 392.42 457.125 398.813 453.267 400.535C450.658 401.699 448.857 403.381 446.674 400.74C444.584 389.572 467.808 361.569 466.803 357.222C460.872 353.913 448.451 377.227 445.258 381.722L444.326 381.636Z" fill="#5E423C"/>
<path d="M751.5 360.913C757.585 356.018 762.143 354.833 769.919 355.919C783.731 357.849 798.268 361.856 811.865 365.157C823.38 367.952 836.253 371.047 847.35 374.77C850.67 375.884 868.239 385.462 870.409 387.631L870.401 388.428C869.128 389.019 867.92 388.789 866.611 388.157C859.379 384.674 852.825 379.437 845.125 376.845C834.66 373.347 823.665 370.985 812.923 368.414C798.965 365.073 784.973 361.081 770.783 358.926C763.831 357.871 758.715 358.255 753.017 362.867C751.67 361.988 752.265 362.525 751.5 360.913Z" fill="#5E423C"/>
<path d="M449.359 357.496C450.606 356.352 450.582 356.198 452.287 355.902L453.737 356.345C454.312 357.562 454.411 358.296 453.365 359.514L451.136 361.382L450.108 360.389C450.144 358.767 450.205 358.867 449.359 357.496Z" fill="#5E423C"/>
<path d="M451.135 361.384L453.364 359.516L455.554 362.178C451.152 367.533 449.192 370.353 445.952 376.465C444.955 368.01 448.003 367.64 451.135 361.384Z" fill="#FDE4CF"/>
<path d="M749.193 403.249C749.481 401.203 751.952 396.363 753.019 394.51C761.02 380.618 783.938 379.799 792.711 393.287C795.447 397.493 796.558 401.926 797.596 406.55C793.87 410.964 792.212 412.846 789.388 417.885C778.34 405.716 765.698 399.855 749.193 403.249Z" fill="#FFFFFA"/>
<path d="M749.193 403.249C765.698 399.855 778.34 405.716 789.388 417.885C790.358 419.222 789.849 419.033 791.054 419.526C793.098 421.454 800.739 431.821 802.516 434.664C800.161 442.099 794.243 452.209 790.996 459.933C777.495 492.057 770.448 525.553 746.021 551.617C733.282 564.513 717.221 577.412 702.994 588.664C677.825 608.965 651.341 627.579 623.715 644.383C603.143 656.826 582.869 667.321 560.04 675.05C547.931 679.149 535.493 682.472 523.873 687.843C508.839 695.021 490.152 709.102 477.741 720.387C483.028 721.134 494.545 721.999 497.928 726.445C498.991 727.842 499.381 730.717 500.813 731.59C501.272 732.521 501.687 733.71 502.416 734.282L501.326 734.859C501.091 738.895 501.804 743.19 501.757 747.232C501.626 758.399 498.88 767.203 494.654 777.312C527.571 775.698 557.298 769.83 589.18 762.679C598.288 760.654 607.38 758.557 616.455 756.39C619.766 755.607 630.994 752.716 633.811 752.837C639.331 753.073 646.822 753.848 652.69 754.235C659.228 754.667 666.539 754.024 672.8 754.502C680.079 755.058 697.338 761.545 704.682 758.018L705.525 756.959C703.552 751.081 681.926 751.426 678.186 746.72L678.2 745.578C682.152 742.613 710.813 738.746 716.51 738.305C717.498 738.266 718.488 738.242 719.477 738.232C727.963 751.414 713.685 751.245 703.968 751.623C706.193 753.43 709.692 756.701 706.782 759.829C704.35 762.443 698.014 761.526 694.774 761.437C688.125 761.088 680.441 758.407 674.134 757.566C667.968 756.744 659.67 757.185 653.151 756.847C646.994 756.528 638.805 755.567 632.97 755.659C629.232 755.718 619.631 758.396 615.512 759.405L586.199 766.494C564.098 771.49 541.741 775.281 519.228 777.849C510.757 778.852 501.068 779.773 492.545 780.228C489.703 784.233 488.239 786.32 482.88 787.384C477.757 788.4 467.075 787.208 462.594 784.847L462.574 784.522C464.254 784.011 463.547 784.482 464.624 782.866C466.553 784.757 470.535 784.829 473.154 784.915C480.429 785.153 486.123 786.358 490.328 779.141C498.297 765.467 500.628 748.352 497.904 732.87C497.523 730.703 496.197 727.627 494.136 726.57C489.807 724.28 480.036 722.914 475.236 723.341C472.944 723.546 473.764 728.448 473.966 730.498C475.925 750.414 473.718 763.38 465.335 781.161L463.804 779.264C464.318 776.744 467.794 769.516 468.744 766.174C472.57 752.712 472.205 740.649 471.417 727L470.601 723.929C471.672 721.742 473.351 720.386 475.188 718.842C492.552 704.251 510.882 689.1 532.508 681.453C536.287 679.587 548.67 676.456 553.972 674.257C571.247 669.145 592.686 659.135 608.346 650.199C641.755 631.136 673.446 608.737 703.29 584.462C722.234 569.053 743.55 553.648 757.366 533.099C765.734 520.043 772.752 498.481 778.163 483.803C784.751 465.93 790.395 451.922 799.353 435.198C791.663 426.344 787.134 417.073 776.297 410.353C767.798 405.083 756.649 404.021 747.07 406.351L743.696 407.153L744.552 406.063C745.748 405.677 746.879 405.269 748.009 404.716L749.193 403.249ZM712.743 741.713C703.919 742.658 691.46 744.113 682.795 746.467C686 747.054 689.196 747.685 692.384 748.358C698.089 749.296 716.244 750.871 719.118 744.586C719.04 742.901 719.306 743.667 718.122 742.278C716.539 741.503 714.423 741.409 712.743 741.713Z" fill="#5E423C"/>
<path d="M744.977 404.441L748.01 404.716C746.88 405.269 745.749 405.677 744.553 406.063L743.697 407.153L743.066 407.624C739.92 409.939 735.303 411.774 732.683 414.941C726.433 422.499 725.056 433.761 721.349 442.962C717.701 451.827 712.728 460.087 706.6 467.46C698.527 477.173 689.094 485.67 678.593 492.687C659.093 505.493 636.855 513.027 615.243 521.397C584.911 533.144 553.556 543.329 524.752 558.545C523.247 559.34 520.909 560.872 519.298 561.16L518.178 560.225C519.405 554.618 579.637 531.47 588.188 528.681C590.62 527.888 601.789 524.034 603.211 522.637C604.901 521.947 605.067 522 606.395 520.68L606.885 520.972C614.27 521.053 659.41 500.36 668.544 495.343C689.94 484.365 710.279 463.317 719.211 440.847C722.28 433.124 723.907 424.268 727.739 417.081C730.508 411.889 739.266 405.935 744.977 404.441Z" fill="#5E423C"/>
<path d="M310.556 496.393C297.495 496.717 252.44 435.067 258.991 423.27C259.762 423.304 262.308 423.265 262.553 424.029C269.628 446.09 282.219 465.463 298.877 481.53C302.765 485.279 307.743 488.867 311.785 493.022C311.81 495 311.77 494.421 310.556 496.393Z" fill="#54EAC2"/>
<path d="M747.55 427.237C744.308 427.337 736.561 428.617 734.375 427.523L734.683 426.687C736.351 425.4 738.157 425.442 740.323 425.163C744.45 424.525 749.217 424.619 753.206 425.963L753.435 426.555C751.335 427.645 749.932 427.337 747.55 427.237Z" fill="#53433A"/>
<path d="M331.959 467.454C319.195 464.891 297.832 438.04 302.198 425.281C302.789 425.317 305.302 425.389 305.527 426.034C307.756 432.426 309.526 438.356 312.718 444.393C317.295 453.048 325.198 457.583 332.424 463.512C333.055 464.03 332.151 466.612 331.959 467.454Z" fill="#54EAC2"/>
<path d="M455.967 478.193C470.7 467.715 522.879 434.963 539.399 431.164C525.929 453.828 507.975 482.076 491.361 502.258C486.688 499.889 482.995 498.459 478.651 495.284C471.053 489.728 463.429 484.164 455.993 478.4L455.967 478.193Z" fill="#F6DFE7"/>
<path d="M288.103 595.615C268.188 578.473 246.691 563.011 227.173 545.647C205.941 526.759 185.126 506.504 176.035 478.918C174.532 474.358 170.174 462.549 172.185 458.159C173.684 457.172 172.836 457.454 174.911 457.652C175.583 458.203 176.226 458.876 176.377 459.745C177.665 467.151 179.115 473.464 181.893 480.531C186.246 491.641 192.416 501.95 200.149 511.037C219.934 534.641 246.674 554.973 270.404 574.534C278.098 580.875 289.893 589.545 296.95 596.184C301.376 600.397 307.611 606.765 312.053 610.56L312.362 611.087C312.521 612.946 312.664 615.577 313.004 617.347L312.659 617.697C305.099 612.126 296.573 601.974 288.103 595.615Z" fill="#54EAC2"/>
<path d="M408.165 459.527C414.081 460.141 449.367 474.913 455.967 478.193L455.993 478.4C432.841 494.297 409.788 514.07 392.463 536.305C391.022 538.154 383.929 548.883 382.359 548.722C381.592 544.944 382.312 542.714 381.924 539.316C381.866 534.293 382.362 528.835 382.708 523.789C382.592 522.144 381.042 520.555 381.053 519.763C381.329 500.815 398.582 475.023 408.165 459.527Z" fill="#FDE4CF"/>
<path d="M286.979 539.045C278.866 536.005 265.503 526.185 258.413 520.782C241.344 507.775 227.01 490.5 215.426 472.527C213.63 469.741 210.316 465.099 210.072 461.723C209.97 460.309 210.913 459.963 211.929 459.16C214.589 459.94 220.012 470.08 221.796 472.824C226.973 480.793 232.707 488.387 238.955 495.548C250.08 508.263 268.283 523.232 283.285 531.502C285.659 532.811 288.355 533.829 289.193 536.487C288.69 538.208 288.766 537.709 286.979 539.045Z" fill="#54EAC2"/>
<path d="M606.395 520.679C611.112 503.85 616.386 485.275 620.607 468.441C636.781 475.198 654.625 484.597 668.544 495.342C659.41 500.359 614.27 521.052 606.885 520.971L606.395 520.679Z" fill="#F6DFE7"/>
<path d="M381.924 539.314C382.312 542.712 381.592 544.942 382.359 548.72C383.929 548.881 391.022 538.152 392.463 536.303C409.788 514.068 432.841 494.295 455.993 478.398C463.429 484.162 471.053 489.726 478.651 495.282C482.995 498.457 486.688 499.887 491.361 502.256C479.296 516.799 469.338 527.168 455.077 539.733L453.721 540.951C429.8 559.692 413.156 567.33 384.792 578.507C382.352 567.483 380.599 550.194 381.924 539.314Z" fill="#FFCFD2"/>
<path d="M335.236 519.564C339.762 515.038 348.038 513.657 354.115 513.713C363.259 513.797 371.036 516.163 378.274 521.72C378.813 522.134 378.885 522.097 379.592 522.353C380.615 525.645 378.592 549.815 378.734 555.97C377.116 555.614 372.378 551.501 370.449 550.436C352.88 540.736 343.302 544.294 325.598 548.516C329 538.771 331.45 529.886 335.236 519.564Z" fill="#98F5E1"/>
<path d="M332.234 520.018L335.234 519.562C331.448 529.884 328.998 538.769 325.596 548.514C324.651 549.936 324.038 550.534 324 552.232C323.772 554.889 320.52 564.097 319.662 567.322C315.636 582.459 313.585 595.093 314.62 610.841L312.361 611.085L312.052 610.558C311.923 604.203 311.87 598.898 312.166 592.548C313.72 574.529 320.585 556.006 326.09 538.908C327.975 533.055 330.954 525.809 332.234 520.018Z" fill="#5E423C"/>
<path d="M379.591 522.355L381.022 522.184C381.71 523.001 381.781 523.276 382.708 523.79C382.362 528.836 381.866 534.294 381.924 539.317C380.599 550.197 382.352 567.486 384.792 578.51C413.156 567.333 429.8 559.695 453.721 540.954L455.27 541.278L455.51 542.081L454.315 543.359C452.998 545.503 442.735 552.762 440.03 554.453L437.754 556.332C431.426 559.718 425.331 563.6 418.844 566.673C409.919 570.901 337.649 601.454 333.417 600.53L333.061 599.527C334.565 597.346 376.447 582.302 382.193 579.929C380.829 573.697 380.367 565.438 379.174 560.469C377.344 556.842 379.193 558.202 378.733 555.972C378.591 549.817 380.614 525.647 379.591 522.355Z" fill="#5E423C"/>
<path d="M501.255 549.145C499.131 548.717 490.732 541.576 487.234 539.847C482.617 537.565 479.315 537.211 474.554 535.482C473.141 534.968 473.356 534.762 473.006 533.652C480.189 532.963 502.224 541.55 501.255 549.145Z" fill="#53433A"/>
<path d="M453.721 540.952L455.077 539.734L457.486 540.99C458.956 542.531 464.849 545.023 467.065 546.281C472.067 549.119 476.933 552.074 481.362 555.784C512.071 581.904 535.267 615.733 548.564 653.791C549.973 657.883 553.549 668.316 554.244 672.464C552.569 672.709 551.605 672.571 551.122 670.739C538.993 624.632 499.919 561.813 454.315 543.357L455.51 542.079L455.27 541.276L453.721 540.952Z" fill="#4E483D"/>
<path d="M454.314 543.355C499.918 561.811 538.992 624.63 551.121 670.737C551.604 672.569 552.568 672.707 554.243 672.462L553.972 674.256C548.67 676.455 536.287 679.586 532.508 681.452L531.725 679.657C532.127 677.04 531.431 674.294 530.674 671.753C517.225 626.606 480.321 578.151 440.029 554.449C442.734 552.758 452.997 545.499 454.314 543.355Z" fill="#90DBF4"/>
<path d="M324.002 552.235C324.04 550.537 324.653 549.939 325.598 548.517C343.302 544.295 352.88 540.737 370.449 550.437C372.378 551.502 377.116 555.615 378.734 555.971C379.194 558.201 377.345 556.841 379.175 560.468C361.479 543.597 345.526 544.326 324.002 552.235Z" fill="#5E423C"/>
<path d="M324.001 552.234C345.525 544.325 361.478 543.596 379.174 560.467C380.367 565.436 380.829 573.695 382.193 579.927C376.447 582.3 334.565 597.344 333.061 599.525L333.417 600.528C337.649 601.452 409.919 570.899 418.844 566.671C425.331 563.598 431.426 559.716 437.754 556.33C440.873 558.628 444.175 560.629 447.378 562.808C471.545 579.256 489.604 600.469 505.475 624.868C511.454 634.049 516.708 643.682 521.189 653.68C524.795 661.719 526.843 670.16 530.038 678.303C530.241 678.822 531.223 679.372 531.726 679.659L532.509 681.454C510.883 689.101 492.553 704.252 475.189 718.843C473.352 720.387 471.673 721.743 470.602 723.93C466.835 723.689 460.707 721.325 456.654 720.536C438.121 716.927 416.989 713.016 400.132 724.03C399.588 724.387 399.279 724.963 399.021 725.505L399.5 726.434C401.824 727.037 405.528 723.996 408.097 722.933C424.789 716.031 454.54 720.989 471.418 727.001C472.206 740.65 472.571 752.713 468.745 766.175C467.795 769.517 464.319 776.745 463.805 779.265L462.225 779.704C438.311 780.479 392.462 773.909 372.658 760.31C360.56 752.002 353.775 741.329 351.68 726.763C351.024 722.205 350.709 716.602 349.877 712.398L349.774 711.902C351.082 709.755 354.151 707.889 356.155 706.294C370.206 695.113 377.36 679.146 372.444 661.348C368.841 648.299 359.999 636.271 344.903 636.997C337.865 637.336 332.991 642.984 328.976 647.996L328.402 647.933C321.217 638.891 316.931 625.663 315.066 614.417L314.621 610.843C313.586 595.095 315.637 582.461 319.663 567.324C320.521 564.099 323.773 554.891 324.001 552.234Z" fill="#98F5E1"/>
<path d="M477.742 720.387C490.153 709.102 508.84 695.021 523.874 687.843C535.494 682.472 547.932 679.149 560.041 675.05C582.87 667.321 603.144 656.826 623.716 644.383C651.342 627.579 677.826 608.965 702.995 588.664C717.222 577.412 733.283 564.513 746.022 551.617C751.013 555.781 757.666 559.498 763.065 563.847C787.823 583.926 811.368 605.456 833.577 628.323L833.437 628.747C829.937 642.243 828.679 667.792 827.399 681.942C822.696 733.954 799.115 777.162 758.21 809.756C745.168 820.378 729.725 828.537 715.76 837.898C712.414 840.142 703.655 845.303 700.965 847.677L698.632 848.63C690.788 847.747 679.271 848.453 670.886 847.884C644.948 846.124 619.334 842.498 595.195 832.602C569.542 822.086 550.339 808.242 530.519 789.275C527.33 786.224 520.768 781.401 519.229 777.849C541.742 775.281 564.099 771.49 586.2 766.494L615.513 759.405C619.632 758.396 629.233 755.718 632.971 755.659C638.806 755.567 646.995 756.528 653.152 756.847C659.671 757.185 667.969 756.744 674.135 757.566C680.442 758.407 688.126 761.088 694.775 761.437C698.015 761.526 704.351 762.443 706.783 759.829C709.693 756.701 706.194 753.43 703.969 751.623C713.686 751.245 727.964 751.414 719.478 738.232C718.359 736.316 716.64 734.489 715.174 732.784L715.332 732.075C719.752 731.624 724.468 730.493 725.575 725.446C723.735 718.277 708.99 721.3 703.273 721.606C705.944 719.852 709.042 717.977 711.397 715.846C717.258 710.837 712.911 705.043 706.267 707.454C692.217 712.554 680.896 717.182 666.073 719.808C671.011 714.426 684.139 702.657 685.035 695.446C685.199 694.131 684.936 692.657 683.919 691.715C682.288 690.205 679.002 691.798 677.386 692.643C672.953 694.96 668.869 698.779 664.887 701.838C657.748 707.322 636.565 723.207 629.204 726.295C619.238 730.476 555.243 727.929 539.766 728.507C526.729 728.993 513.815 731.04 500.814 731.59C499.382 730.717 498.992 727.842 497.929 726.445C494.546 721.999 483.029 721.134 477.742 720.387Z" fill="#FFCFD2"/>
<path d="M200.192 566.969C198.937 563.583 196.626 558.867 197.584 555.607C199.014 554.329 198.191 554.714 200.186 554.516C204.011 556.275 206.106 569.596 208.617 574.6C215.701 589.91 228.582 605.603 240.893 617.165C244.735 620.773 251.766 626.025 254.261 630.04C254.419 631.575 254.628 630.935 253.756 632.064C247.829 632.876 234.321 618.673 230.236 614.408C216.39 599.955 207.65 585.52 200.192 566.969Z" fill="#54EAC2"/>
<path d="M437.754 556.328L440.03 554.449C480.322 578.151 517.226 626.605 530.675 671.752C531.432 674.293 532.128 677.04 531.726 679.657C531.223 679.37 530.241 678.82 530.038 678.301C526.843 670.158 524.795 661.717 521.189 653.678C516.708 643.68 511.454 634.047 505.475 624.866C489.604 600.467 471.545 579.254 447.378 562.806C444.175 560.627 440.873 558.626 437.754 556.328Z" fill="#4E483D"/>
<path d="M525.188 583.325C522.054 583.193 514.891 581.316 511.97 579.672C510.89 579.064 511.076 578.61 510.805 577.395C513.275 577.64 522.861 579.659 525.071 581.377C525.577 581.77 525.282 582.427 525.188 583.325Z" fill="#4E483D"/>
<path d="M202.808 645.253C201.771 645.377 200.396 645.48 199.587 644.856C192.725 639.559 181.373 624.235 177.419 617.053C175.384 613.367 173.786 609.455 172.656 605.399C170.708 598.496 168.6 586.258 172.217 579.742L175.002 580.506C177.554 583.064 175.488 588.089 175.657 591.478C176.714 612.712 191.176 627.264 203.639 642.648C203.994 643.085 203.084 644.642 202.808 645.253Z" fill="#54EAC2"/>
<path d="M296.949 596.185C299.44 593.807 308.115 593.243 312.166 592.551C311.87 598.901 311.923 604.206 312.052 610.561C307.61 606.766 301.375 600.398 296.949 596.185Z" fill="#FFFFFA"/>
<path d="M312.361 611.088L314.62 610.844L315.065 614.418C314.497 616.182 314.662 616.886 313.467 617.601L313.003 617.348C312.663 615.578 312.52 612.947 312.361 611.088Z" fill="#53433A"/>
<path d="M313.003 617.348L313.467 617.601C314.662 616.886 314.497 616.182 315.065 614.418C316.93 625.664 321.216 638.892 328.401 647.934C326.673 648.331 326.352 648.704 324.869 648.281C325.249 646.89 321.935 642.529 320.797 640.355C316.948 633.003 314.902 625.639 312.658 617.698L313.003 617.348Z" fill="#4E483D"/>
<path d="M833.437 628.746C881.739 675.931 899.192 729.418 846.396 783.178C814.054 816.111 768.729 839.47 722.884 845.792C716.536 846.578 709.625 847.671 703.231 847.705C702.476 847.709 701.72 847.699 700.965 847.676C703.655 845.302 712.414 840.141 715.76 837.897C729.725 828.536 745.168 820.377 758.21 809.755C799.115 777.161 822.696 733.953 827.399 681.941C828.679 667.791 829.937 642.242 833.437 628.746Z" fill="#F6DFE7"/>
<path d="M290.164 645.923C293.458 645.112 293.473 644.716 297.167 644.44C304.984 644.629 317.209 646.578 324.869 648.279C326.352 648.702 326.673 648.329 328.401 647.932L328.975 647.995C332.99 642.983 337.864 637.335 344.902 636.996C359.998 636.27 368.84 648.298 372.443 661.347C377.359 679.145 370.205 695.112 356.154 706.293C354.15 707.888 351.081 709.754 349.773 711.901C349.002 709.843 349.068 709.268 350.179 707.535C362.151 699.638 370.751 689.06 371.297 673.075C371.881 655.962 356.128 629.609 336.25 643.548C334.287 644.925 332.678 647.744 331.483 649.991C346.273 656.065 361.08 666.103 354.948 685.794C353.375 690.844 350.276 692.616 350.392 698.47L349.582 696.362L348.927 696.133C347.879 697.18 348.059 697.201 347.365 698.515C341.322 707.144 336.426 712.371 327.514 718.141C326.61 718.727 319.519 723.495 319.058 723.967L318.619 724.944L318.039 725.114C314.575 724.905 304.639 729.067 299.915 729.856C290.852 731.369 282.73 730.578 273.767 731.821C270.019 732.341 267.772 735.98 263.931 735.422L262.1 736.291C261.695 735.208 261.699 735.29 261.804 734.141C263.009 732.682 265.221 732.141 267.072 731.453L270.579 729.83C271.172 729.56 273.172 729.163 273.917 728.993L275.061 729.557C279.654 728.603 287.229 730.356 294.166 728.819L293.669 728.356C295.083 727.647 302.105 726.82 304.496 726.34C326.74 722.112 371.577 684.044 345.818 661.043C332.688 649.319 307.588 647.095 290.779 647.969L290.164 645.923Z" fill="url(#paint3_linear_2243_43282)"/>
<path d="M595.622 648.585C589.907 648.757 581.111 642.706 579.369 637.238C582.037 637.656 593.923 646.392 595.622 648.585Z" fill="#5E423C"/>
<path d="M350.393 698.473C350.277 692.619 353.376 690.847 354.949 685.797C361.081 666.106 346.274 656.068 331.484 649.994C332.679 647.747 334.288 644.928 336.251 643.551C356.129 629.612 371.882 655.965 371.298 673.078C370.752 689.063 362.152 699.641 350.18 707.538C350.166 704.515 350.237 701.492 350.393 698.473Z" fill="#98F5E1"/>
<path d="M297.168 644.442C293.474 644.718 293.459 645.114 290.165 645.925C289.197 646.033 286.517 646.416 285.723 646.279C278.914 644.877 260.654 646.57 254.096 648.148C247.371 649.883 239.907 652.406 234.551 657.027C232.415 658.907 230.631 660.485 228.629 662.518L226.141 665.455C225.566 666.379 224.574 667.841 224.175 668.784C223.43 670.203 222.737 671.427 222.127 672.914C221.229 675.132 220.349 677.209 219.627 679.495C218.908 682.656 218.063 686.026 217.591 689.206C217.183 694.53 217.049 698.725 218.709 703.923C221.091 714.134 227.743 726.219 234.994 733.771C237.603 736.342 240.037 738.813 243.425 740.371C243.503 740.489 243.581 740.606 243.658 740.723C252.269 747.352 269.656 747.032 279.541 745.496C291.802 743.611 303.766 740.448 312.925 731.589C314.862 729.715 318.85 727.773 318.04 725.116L318.62 724.946L319.059 723.969L322.463 726.156C310.797 737.413 302.782 743.737 286.441 746.667C275.134 748.695 264.391 750.317 253.038 747.112C252.101 746.855 251.171 746.57 250.251 746.259C235.83 741.468 227.556 731.576 221.09 718.142C213.954 703.32 212.622 691.804 217.956 676.33C221.948 666.702 225.864 660.252 234.476 653.954C247.948 644.102 262.7 643.95 278.69 643.829C284.494 643.785 291.437 643.54 297.168 644.442Z" fill="url(#paint4_linear_2243_43282)"/>
<path d="M575.452 655.467C571.098 655.302 564.778 650.977 561.784 647.884C560.269 646.319 560.6 646.129 560.61 644.199C563.223 644.581 570.87 651.677 574.158 653.252C575.523 653.906 575.314 654.389 575.452 655.467Z" fill="#53433A"/>
<path d="M285.723 646.276C273.971 647.415 265.731 650.416 257.317 658.869L253.847 659.033C253.305 655.394 255.091 652.932 254.878 648.824L254.096 648.145C260.654 646.567 278.914 644.874 285.723 646.276Z" fill="#F8D086"/>
<path d="M285.724 646.28C286.518 646.417 289.198 646.034 290.166 645.926L290.781 647.972C274.052 649.869 265.175 652.38 253.989 666.191C252.134 668.482 250.224 671.141 248.827 673.747C259.072 679.517 261.795 683.805 265.254 695.138C267.14 701.318 268.808 710.973 272.388 716.281C275.669 721.146 278.793 722.747 281.37 728.629C285.559 728.608 289.489 728.574 293.671 728.359L294.168 728.822C287.231 730.359 279.656 728.606 275.063 729.56L273.919 728.996C275.035 728.683 275.729 728.493 276.877 728.301L277.769 728.156C277.957 725.975 271.643 719.523 269.546 716.24L269.124 715.573C267.769 712.553 266.836 709.265 265.841 706.099C265.124 702.606 263.977 698.42 263.116 694.9C258.753 690.666 263.156 691.956 259.824 687.316C257.255 681.143 251.395 677.307 245.088 675.857C246.126 673.811 247.406 671.613 248.527 669.586L249.967 667.583L252.986 663.571C253.508 663.154 256.665 659.588 257.318 658.873C265.732 650.42 273.972 647.419 285.724 646.28Z" fill="#53433A"/>
<path d="M248.826 673.746C250.223 671.14 252.133 668.481 253.988 666.19C265.174 652.379 274.051 649.868 290.78 647.971C307.589 647.097 332.689 649.321 345.819 661.045C371.578 684.046 326.741 722.114 304.497 726.342C302.106 726.822 295.084 727.649 293.67 728.358C289.488 728.573 285.558 728.607 281.369 728.628C278.792 722.746 275.668 721.145 272.387 716.28C268.807 710.972 267.139 701.317 265.253 695.137C261.794 683.804 259.071 679.516 248.826 673.746ZM286.245 661.626C285.934 664.601 285.569 664.035 287.997 666.252C288.468 669.074 287.215 669.96 285.441 671.951C285.221 673.751 285.098 672.884 286 674.611C289.803 671.329 293.233 663.113 286.245 661.626ZM269.149 663.739C265.08 669.01 264.798 683.175 272.035 685.688C273.009 681.433 268.952 679.09 269.002 675.146C269.042 672.007 270.309 668.937 270.379 665.025C269.735 664.117 270.025 664.327 269.149 663.739ZM308.163 667.106C308.76 670.318 309.911 672.451 311.488 675.302C311.291 677.6 310.043 685.739 310.415 686.955L311.488 686.823C313.758 681.863 315.628 668.077 308.163 667.106ZM297.046 669.639C295.74 675.556 297.912 675.056 294.692 681.793C301.611 687.544 295.416 687.851 294.828 692.23C295.731 694.787 299.599 702.508 301.81 704.038C304.003 699.802 299.269 695.433 297.171 691.415C299.114 686.72 300.415 685.522 297.838 680.679C297.879 676.294 300.944 674.178 298.706 670.511C298.06 670.13 297.746 669.882 297.046 669.639ZM320.389 670.865C323.446 679.558 327.399 688.504 323.286 697.703C321.239 702.279 316.077 704.902 315.939 706.55L317.146 706.749C328.821 701.444 329.416 687.829 324.912 677.26C323.986 675.088 322.341 672.192 320.389 670.865ZM281.232 675.167C279.642 677.096 279.638 677.297 278.814 679.721C278.293 678.926 278.019 678.563 277.256 677.994C275.708 678.398 276.374 677.999 275.316 679.419C275.186 681.051 275.199 680.97 275.606 682.565C277.463 683.443 277.613 683.619 279.586 683.495C282.5 681.979 283.719 678.281 281.973 675.568L281.232 675.167ZM278.611 704.823C276.302 707.565 272.227 714.449 275.974 717.354C278.118 714.772 281.554 708.607 279.488 705.315L278.611 704.823Z" fill="#FDE4CF"/>
<path d="M234.551 657.027C239.907 652.406 247.371 649.883 254.096 648.148L254.878 648.827C255.091 652.935 253.305 655.397 253.847 659.036C251.484 659.86 251.132 659.945 248.634 659.987C243.718 659.667 239.027 659.146 234.551 657.027Z" fill="#FBF8CC"/>
<path d="M185.06 672.178C186.317 667.918 187.123 666.023 189.752 662.334C199.957 648.011 210.944 670.981 217.956 676.33C212.622 691.804 213.954 703.32 221.09 718.142C227.556 731.576 235.83 741.468 250.251 746.259C251.171 746.57 252.101 746.855 253.038 747.112L253.129 747.418C255.026 754.024 260.338 760.548 264.092 766.33C270.286 775.872 276.427 785.478 282.84 794.871C291.114 806.989 310.996 830.697 312.814 844.152C313.26 847.449 312.538 850.875 310.446 853.507C307.328 857.431 302.027 859.172 297.217 859.76C268.244 863.3 195.552 814.152 172.043 795.447C151.768 779.316 118.318 751.136 106.235 728.39C102.502 721.363 100.381 713.98 99.5204 706.082C98.1198 693.225 98.706 677.082 107.251 666.55C113.448 658.912 122.635 654.588 132.332 653.693C149.418 652.117 172.041 661.251 185.06 672.178ZM180.642 676.82C177.008 681.087 179.924 687.544 181.045 692.678C184.958 710.591 198.82 734.409 215.464 743.227C216.817 741.548 216.971 741.88 217.251 740.054C214.441 736.163 209.81 732.122 206.536 728.445C199.57 720.625 193.423 711.452 189.718 701.649C188.623 698.753 187.76 695.775 187.138 692.743C186.209 688.059 186.22 682.84 184.408 678.491C183.911 677.297 181.777 676.915 180.642 676.82Z" fill="#90DBF4"/>
<path d="M228.629 662.518C230.631 660.485 232.415 658.907 234.551 657.027C239.027 659.146 243.718 659.667 248.634 659.987L248.4 660.387C245.507 662.563 237.065 661.758 232.628 662.265C239.227 663.461 242.98 664.224 249.653 662.811C250.992 663.029 251.747 663.042 252.985 663.57L249.966 667.582C247.536 666.428 241.66 664.849 239.216 666.413C240.208 667.437 240.973 667.232 242.721 667.549C234.07 668.14 235.443 664.814 228.629 662.518Z" fill="#F1C772"/>
<path d="M248.634 659.986C251.132 659.944 251.484 659.859 253.847 659.035L257.317 658.871C256.664 659.586 253.507 663.152 252.985 663.569C251.747 663.041 250.992 663.028 249.653 662.81C249.198 662.147 248.763 661.135 248.4 660.386L248.634 659.986Z" fill="#EEBF66"/>
<path d="M232.629 662.265C237.066 661.758 245.508 662.563 248.401 660.387C248.764 661.136 249.199 662.148 249.654 662.811C242.981 664.224 239.228 663.461 232.629 662.265Z" fill="#EEBF66"/>
<path d="M286 674.61C285.098 672.883 285.221 673.75 285.441 671.95C287.215 669.959 288.468 669.073 287.997 666.251C285.569 664.034 285.934 664.6 286.245 661.625C293.233 663.112 289.803 671.328 286 674.61Z" fill="#5E423C"/>
<path d="M226.141 665.453L228.629 662.516C235.443 664.812 234.07 668.138 242.721 667.547C244.846 667.865 247.106 667.959 248.526 669.583C247.405 671.61 246.125 673.808 245.087 675.854C251.394 677.304 257.254 681.14 259.823 687.313C259.516 687.293 258.967 687.059 258.642 686.943C257.918 685.63 257.556 684.68 256.351 683.793L256.279 685.198L255.418 685.29C250.469 682.868 247.644 682.602 242.991 680.839C237.326 678.693 230.74 670.211 226.141 665.453Z" fill="#FBF8CC"/>
<path d="M272.035 685.687C264.798 683.174 265.08 669.009 269.149 663.738C270.025 664.326 269.735 664.116 270.379 665.024C270.309 668.936 269.042 672.006 269.002 675.145C268.952 679.089 273.009 681.432 272.035 685.687Z" fill="#53433A"/>
<path d="M224.176 668.782C224.575 667.839 225.567 666.377 226.142 665.453C230.741 670.211 237.327 678.693 242.992 680.839C247.645 682.602 250.47 682.868 255.419 685.29L256.28 685.198L256.352 683.793C257.557 684.68 257.919 685.63 258.643 686.943C258.968 687.059 259.517 687.293 259.824 687.313C263.156 691.953 258.753 690.663 263.116 694.897C257.63 696.184 251.594 691.698 246.617 689.856C238.678 686.918 234.102 681.954 227.867 676.752C226.978 673.847 226.434 670.357 224.176 668.782Z" fill="#F1C772"/>
<path d="M242.722 667.549C240.974 667.232 240.209 667.437 239.217 666.413C241.661 664.849 247.537 666.428 249.967 667.582L248.527 669.585C247.107 667.961 244.847 667.867 242.722 667.549Z" fill="#EEBF66"/>
<path d="M311.487 675.302C309.91 672.451 308.759 670.317 308.162 667.105C315.627 668.076 313.757 681.863 311.487 686.823L310.414 686.954C310.042 685.738 311.29 677.6 311.487 675.302Z" fill="#5E423C"/>
<path d="M222.127 672.911C222.737 671.424 223.43 670.2 224.175 668.781C226.433 670.356 226.977 673.846 227.866 676.751C234.101 681.953 238.677 686.917 246.616 689.855C251.593 691.697 257.629 696.183 263.115 694.896C263.976 698.416 265.123 702.602 265.84 706.095C264.989 707.375 265.485 707.121 264.353 707.677C263.637 705.992 261.054 700.973 259.187 700.317C256.217 699.274 253.034 700.705 249.735 701.004C247.521 700.302 245.21 699.021 243.107 697.964C237.865 691.687 233.239 689.829 226.672 685.202C225.281 683.401 224.25 682.053 223.045 680.13C222.831 677.201 222.654 675.799 222.127 672.911Z" fill="#FBF8CC"/>
<path d="M294.691 681.791C297.911 675.054 295.739 675.554 297.045 669.637C297.745 669.88 298.059 670.128 298.705 670.509C300.943 674.176 297.878 676.292 297.837 680.677C300.414 685.52 299.113 686.718 297.17 691.413C299.268 695.431 304.002 699.8 301.809 704.036C299.598 702.506 295.73 694.785 294.827 692.228C295.415 687.849 301.61 687.542 294.691 681.791Z" fill="#5E423C"/>
<path d="M317.146 706.747L315.939 706.548C316.077 704.9 321.239 702.277 323.286 697.701C327.399 688.502 323.446 679.556 320.389 670.863C322.341 672.19 323.986 675.086 324.912 677.258C329.416 687.827 328.821 701.442 317.146 706.747Z" fill="#53433A"/>
<path d="M219.627 679.495C220.349 677.209 221.229 675.132 222.127 672.914C222.654 675.802 222.831 677.204 223.045 680.133C221.814 680.13 220.82 679.799 219.627 679.495Z" fill="#F8D086"/>
<path d="M275.605 682.562C275.198 680.967 275.185 681.048 275.315 679.416C276.373 677.996 275.707 678.395 277.255 677.991C278.018 678.56 278.292 678.923 278.813 679.718C279.637 677.294 279.641 677.093 281.231 675.164L281.972 675.565C283.718 678.278 282.499 681.976 279.585 683.492C277.612 683.616 277.462 683.44 275.605 682.562Z" fill="#5E423C"/>
<path d="M215.464 743.227C198.82 734.409 184.958 710.591 181.045 692.678C179.924 687.544 177.008 681.087 180.642 676.82C181.777 676.915 183.911 677.297 184.408 678.491C186.22 682.84 186.209 688.059 187.138 692.743C187.76 695.775 188.623 698.753 189.718 701.649C193.423 711.452 199.57 720.625 206.536 728.445C209.81 732.122 214.441 736.163 217.251 740.054C216.971 741.88 216.817 741.548 215.464 743.227Z" fill="#54EAC2"/>
<path d="M217.592 689.203C218.064 686.023 218.909 682.653 219.628 679.492C220.821 679.796 221.815 680.127 223.046 680.13C224.251 682.053 225.282 683.401 226.673 685.202L227.581 688.404C224.428 687.257 223.237 684.382 221.481 681.667C220.654 682.664 220.717 683.153 220.37 684.499C220.679 686.15 222.11 688.601 222.693 690.792C221.572 689.932 220.862 688.291 219.904 687.051C218.482 687.349 218.731 687.622 217.592 689.203Z" fill="#F1C772"/>
<path d="M222.692 690.793C222.109 688.602 220.678 686.151 220.369 684.5C220.716 683.154 220.653 682.665 221.48 681.668C223.236 684.383 224.427 687.258 227.58 688.405C232.421 689.178 236.677 697.215 243.107 697.965C245.21 699.022 247.521 700.303 249.735 701.005C256.692 703.116 258.491 703.358 264.353 707.678C265.485 707.122 264.989 707.376 265.84 706.096C266.835 709.262 267.768 712.55 269.123 715.57C264.105 714.129 254.923 707.42 250.001 704.888C246.789 703.236 242.607 701.944 239.152 700.779C238.038 696.375 233.213 694.307 229.496 692.206L229.011 693.276L230.347 695.493L229.996 696.812C227.351 695.448 225.98 694.719 224.313 692.28L222.692 690.793Z" fill="#EEBF66"/>
<path d="M226.672 685.203C233.239 689.83 237.865 691.688 243.107 697.965C236.677 697.215 232.421 689.178 227.58 688.405L226.672 685.203Z" fill="#F8D086"/>
<path d="M217.591 689.207C218.73 687.626 218.481 687.353 219.903 687.055C220.861 688.295 221.571 689.936 222.692 690.796L224.313 692.283C225.98 694.722 227.351 695.451 229.996 696.815C232.055 698.619 236.415 700.764 239.152 700.782C242.607 701.947 246.789 703.239 250.001 704.891C254.923 707.423 264.105 714.132 269.123 715.573L269.545 716.24C271.642 719.523 277.956 725.975 277.768 728.156L276.876 728.301C275.728 728.493 275.034 728.683 273.918 728.996C273.173 729.166 271.173 729.563 270.58 729.833C270.091 729.356 250.728 723.086 248.106 722.288C249.026 721.45 248.737 721.975 248.916 720.682C246.931 717.501 238.83 716.782 235.426 717.644C227.907 713.884 223.916 706.467 218.709 703.924C217.049 698.726 217.183 694.531 217.591 689.207Z" fill="url(#paint5_linear_2243_43282)"/>
<path d="M500.814 731.59C513.815 731.04 526.729 728.993 539.766 728.507C555.243 727.929 619.238 730.476 629.204 726.295C636.565 723.207 657.748 707.322 664.887 701.838C668.869 698.779 672.953 694.96 677.386 692.643C679.002 691.798 682.288 690.205 683.919 691.715C684.936 692.657 685.199 694.131 685.035 695.446C684.139 702.657 671.011 714.426 666.073 719.808C680.896 717.182 692.217 712.554 706.267 707.454C712.911 705.043 717.258 710.837 711.397 715.846C709.042 717.977 705.944 719.852 703.273 721.606C708.99 721.3 723.735 718.277 725.575 725.446C724.468 730.493 719.752 731.624 715.332 732.075C713.657 731.985 712.889 732.764 711.242 733.872C705.76 733.937 684.082 734.938 680.45 731.861C679.997 726.553 713.417 718.049 710.15 710.221C709.28 709.882 707.916 709.557 706.976 709.883C699.686 712.41 669.691 726.059 663.559 721.358C662.042 715.183 685.333 699.577 681.756 694.276C680.525 694.227 679.616 694.312 678.601 695.164C663.729 707.656 645.837 717.568 630.795 729.547C602.44 731.663 577.441 730.683 549.213 730.627C535.637 730.6 515.846 732.684 502.417 734.282C501.688 733.71 501.273 732.521 500.814 731.59ZM715.368 723.725C699.292 724.898 697.653 725.036 682.676 729.902C685.633 730.25 688.707 730.654 691.66 730.932C696.869 731.026 721.155 731.561 721.994 725.609C720.282 723.199 718.337 723.472 715.368 723.725Z" fill="#5E423C"/>
<path d="M229.997 696.813L230.348 695.494L229.012 693.277L229.497 692.207C233.214 694.308 238.039 696.376 239.153 700.78C236.416 700.762 232.056 698.617 229.997 696.813Z" fill="#F1C772"/>
<path d="M502.416 734.283C515.845 732.685 535.636 730.601 549.212 730.628C577.44 730.684 602.439 731.664 630.794 729.548C645.836 717.569 663.728 707.657 678.6 695.165C679.615 694.313 680.524 694.228 681.755 694.277C685.332 699.578 662.041 715.184 663.558 721.359C669.69 726.06 699.685 712.411 706.975 709.884C707.915 709.558 709.279 709.883 710.149 710.222C713.416 718.05 679.996 726.554 680.449 731.862C684.081 734.939 705.759 733.938 711.241 733.873C713.648 735.574 714.429 736.222 716.51 738.306C710.813 738.747 682.152 742.614 678.2 745.579L678.186 746.721C681.926 751.427 703.552 751.082 705.525 756.96L704.682 758.019C697.338 761.546 680.079 755.059 672.8 754.503C666.539 754.025 659.228 754.668 652.69 754.236C646.822 753.849 639.331 753.074 633.811 752.838C630.994 752.717 619.766 755.608 616.455 756.391C607.38 758.558 598.288 760.655 589.18 762.68C557.298 769.831 527.571 775.699 494.654 777.313C498.88 767.204 501.626 758.4 501.757 747.233C501.804 743.191 501.091 738.896 501.326 734.86L502.416 734.283Z" fill="#FDE4CF"/>
<path d="M347.365 698.515C348.059 697.201 347.879 697.18 348.927 696.133L349.582 696.362L350.392 698.47C350.236 701.489 350.165 704.512 350.179 707.535C349.068 709.268 349.002 709.843 349.773 711.901L349.876 712.397C350.708 716.601 351.023 722.204 351.679 726.762C353.774 741.328 360.559 752.001 372.657 760.309C392.461 773.908 438.31 780.478 462.224 779.703C461.839 780.508 461.494 781.226 461.077 782.017L461.313 782.382C461.262 782.383 461.212 782.385 461.161 782.386C430.828 780.995 385.773 777.719 363.11 755.954C347.389 740.855 347.585 718.438 347.365 698.515Z" fill="url(#paint6_linear_2243_43282)"/>
<path d="M249.734 701.008C253.033 700.709 256.216 699.278 259.186 700.321C261.053 700.977 263.636 705.996 264.352 707.681C258.49 703.361 256.691 703.119 249.734 701.008Z" fill="#F8D086"/>
<path d="M218.709 703.922C223.916 706.465 227.907 713.882 235.426 717.642C240.463 720.415 242.465 721.119 248.106 722.286C250.728 723.084 270.091 729.354 270.58 729.831L267.073 731.454C262.778 730.839 259.938 730.816 256.089 728.671C254.386 727.939 253.733 727.528 251.857 727.429L251.261 727.963C252.021 729.466 253.683 730.135 255.211 731.004C257.146 732.967 259.849 733.017 260.76 734.566C259.487 735.611 255.499 734.252 253.756 733.807C246.254 731.896 242.372 732.139 234.994 733.77C227.743 726.218 221.091 714.133 218.709 703.922Z" fill="#FBF8CC"/>
<path d="M275.973 717.351C272.226 714.446 276.301 707.562 278.61 704.82L279.487 705.312C281.553 708.604 278.117 714.769 275.973 717.351Z" fill="#53433A"/>
<path d="M235.426 717.641C238.83 716.779 246.931 717.498 248.916 720.679C248.737 721.972 249.026 721.447 248.106 722.285C242.465 721.118 240.463 720.414 235.426 717.641Z" fill="#EEBF66"/>
<path d="M471.418 727C454.54 720.988 424.789 716.03 408.097 722.932C405.528 723.995 401.824 727.036 399.5 726.433L399.021 725.504C399.279 724.962 399.588 724.386 400.132 724.029C416.989 713.015 438.121 716.926 456.654 720.535C460.707 721.324 466.835 723.688 470.602 723.929L471.418 727Z" fill="url(#paint7_linear_2243_43282)"/>
<path d="M465.336 781.163C473.719 763.382 475.926 750.416 473.967 730.5C473.765 728.45 472.945 723.548 475.237 723.343C480.037 722.916 489.808 724.282 494.137 726.572C496.198 727.629 497.524 730.705 497.905 732.872C500.629 748.354 498.298 765.469 490.329 779.143C486.124 786.36 480.43 785.155 473.155 784.917C470.536 784.831 466.554 784.759 464.625 782.868L465.336 781.163Z" fill="#98F5E1"/>
<path d="M682.676 729.904C697.653 725.038 699.292 724.9 715.368 723.727C718.337 723.474 720.282 723.201 721.994 725.611C721.155 731.563 696.869 731.028 691.66 730.934C688.707 730.656 685.633 730.252 682.676 729.904Z" fill="#FDE4CF"/>
<path d="M263.932 735.421C267.773 735.979 270.02 732.34 273.768 731.82C282.731 730.577 290.853 731.368 299.916 729.855C304.64 729.066 314.576 724.904 318.04 725.113C318.85 727.77 314.862 729.712 312.925 731.586C303.766 740.445 291.802 743.608 279.541 745.493C269.656 747.029 252.269 747.349 243.658 740.72C243.581 740.603 243.503 740.486 243.425 740.368C242.255 739.036 241.764 738.53 240.838 736.967C241.81 737.417 242.355 738.47 242.889 738.603C245.92 739.357 252.683 740.23 255.47 739.306C258.739 738.339 262.411 739.882 265.136 737.799C265.178 736.207 265.329 737.012 263.932 735.421ZM292.796 735.8L266.435 737.493L266.147 738.147C267.012 739.383 267.416 739.436 268.754 740.147C270.933 740.235 291.802 736.96 294.121 735.842C293.211 735.596 293.652 735.594 292.796 735.8Z" fill="#F8D086"/>
<path d="M255.212 731.005C253.684 730.136 252.022 729.467 251.262 727.964L251.858 727.43C253.734 727.529 254.387 727.94 256.09 728.672L255.212 731.005Z" fill="#F8D086"/>
<path d="M256.089 728.672C259.938 730.817 262.778 730.84 267.073 731.455C265.222 732.143 263.01 732.684 261.805 734.143C261.7 735.292 261.696 735.21 262.101 736.293C258.792 737.373 253.651 737.148 250.101 737.044C246.846 735.756 244.81 735.283 241.321 735.467L241.013 735.819C244.916 737.923 247.513 736.836 250.458 737.939L255.47 739.309C252.683 740.233 245.92 739.36 242.889 738.606C242.355 738.473 241.81 737.42 240.838 736.97C241.764 738.533 242.255 739.039 243.425 740.371C240.037 738.813 237.603 736.342 234.994 733.771C242.372 732.14 246.254 731.897 253.756 733.808C255.499 734.253 259.487 735.612 260.76 734.567C259.849 733.018 257.146 732.968 255.211 731.005L256.089 728.672Z" fill="#F1C772"/>
<path d="M711.242 733.874C712.889 732.766 713.657 731.987 715.332 732.077L715.174 732.786C716.64 734.491 718.359 736.318 719.478 738.234C718.489 738.244 717.499 738.268 716.511 738.307C714.43 736.223 713.649 735.575 711.242 733.874Z" fill="#854D4D"/>
<path d="M250.459 737.94C247.514 736.837 244.917 737.924 241.014 735.82L241.322 735.468C244.811 735.284 246.847 735.757 250.102 737.045L250.459 737.94Z" fill="#F8D086"/>
<path d="M268.753 740.148C267.415 739.437 267.011 739.384 266.146 738.148L266.434 737.494L292.795 735.801C293.651 735.595 293.21 735.597 294.12 735.843C291.801 736.961 270.932 740.236 268.753 740.148Z" fill="#EEBF66"/>
<path d="M250.102 737.042C253.652 737.146 258.793 737.371 262.102 736.291L263.933 735.422C265.33 737.013 265.179 736.208 265.137 737.8C262.412 739.883 258.74 738.34 255.471 739.307L250.459 737.937L250.102 737.042Z" fill="#FBF8CC"/>
<path d="M682.797 746.47C691.462 744.116 703.921 742.661 712.745 741.716C714.425 741.412 716.541 741.506 718.124 742.281C719.308 743.67 719.042 742.904 719.12 744.589C716.246 750.874 698.091 749.299 692.386 748.361C689.198 747.688 686.002 747.057 682.797 746.47Z" fill="#FDE4CF"/>
<path d="M381.039 824.212C377.348 823.337 370.183 813.867 367.236 810.502C352.959 794.201 334.048 785.213 315.43 775.095C310.704 772.527 291.266 758.343 289.113 753.5L289.945 752.103C291.24 751.93 293.72 751.467 294.702 752.134C300.38 755.989 305.65 762.321 311.371 766.052C321.089 772.388 331.937 777.11 342.01 782.78C346.887 785.513 351.551 788.609 355.961 792.044C361.959 796.744 378.719 812.449 382.373 820.287C382.918 821.455 381.711 823.061 381.039 824.212Z" fill="#54EAC2"/>
<path d="M492.547 780.231C501.07 779.776 510.759 778.855 519.23 777.852C520.769 781.404 527.331 786.227 530.52 789.278C550.34 808.245 569.543 822.089 595.196 832.605C619.335 842.501 644.949 846.127 670.887 847.887C679.272 848.456 690.789 847.75 698.633 848.633C681.635 859.237 659.037 869.008 640.597 877.423C630.815 881.366 620.644 884.714 610.64 887.961C589.337 894.875 567.745 900.171 545.137 898.644C532.377 897.782 520.099 896.275 508.164 890.973C493.355 884.395 478.771 874.686 470.791 860.135C468.551 856.019 466.734 851.002 465.002 846.639C470.064 848.595 475.178 850.386 480.433 851.757C487.991 853.728 523.423 860.847 529.168 857.474C530.471 856.709 530.511 856.383 530.872 855.016C530.449 853.841 529.855 852.889 528.482 852.644C522.355 851.478 515.258 852.336 509.141 851.585C494.559 849.794 474.79 846.003 461.875 838.74C461.455 835.527 460.027 832.063 459.53 827.229C458.284 815.088 459.578 796.78 462.596 784.85C467.077 787.211 477.759 788.403 482.882 787.387C488.241 786.323 489.705 784.236 492.547 780.231Z" fill="#EEE3F9"/>
<path d="M462.225 779.705L463.805 779.266L465.336 781.163L464.625 782.868C463.548 784.484 464.255 784.013 462.575 784.524L461.314 782.384L461.078 782.019C461.495 781.228 461.84 780.51 462.225 779.705Z" fill="#5E423C"/>
<path d="M465.001 846.636C461.325 844.899 457.679 843.1 454.064 841.239C439.394 833.515 425.926 822.554 413.632 811.504C410.614 808.791 405.677 807.17 408.713 802.544C409.598 802.251 410.376 801.814 411.267 802.547C426.96 815.468 442.322 830.174 461.199 838.445L461.874 838.737C474.789 846 494.558 849.791 509.14 851.582C515.257 852.333 522.354 851.475 528.481 852.641C529.854 852.886 530.448 853.838 530.871 855.013C530.51 856.38 530.47 856.706 529.167 857.471C523.422 860.844 487.99 853.725 480.432 851.754C475.177 850.383 470.063 848.592 465.001 846.636Z" fill="#54EAC2"/>
<path d="M367.547 851.687C355.042 851.867 332.16 831.96 326.301 820.986C323.73 816.172 317.439 808.622 320.784 803.289C321.414 803.343 323.322 803.528 323.675 804.121C328.432 812.117 331.02 819.813 337.489 826.765C342.824 832.498 347.384 835.573 353.904 839.847C356.568 841.593 367.014 846.171 368.2 847.733C368.652 849.473 368.231 850.012 367.547 851.687Z" fill="#54EAC2"/>
<path d="M405.788 889.367C396.624 890.855 387.978 884.662 386.439 875.506C384.9 866.349 391.045 857.669 400.193 856.08C409.412 854.477 418.176 860.682 419.727 869.91C421.278 879.138 415.025 887.867 405.788 889.367Z" fill="#EEE3F9"/>
<defs>
<linearGradient id="paint0_linear_2243_43282" x1="504.537" y1="289.584" x2="325.395" y2="503.271" gradientUnits="userSpaceOnUse">
<stop stop-color="#CBF2D6"/>
<stop offset="1" stop-color="#F7ECD9"/>
</linearGradient>
<linearGradient id="paint1_linear_2243_43282" x1="493.758" y1="621.963" x2="710.438" y2="357.244" gradientUnits="userSpaceOnUse">
<stop stop-color="#C4DBEE"/>
<stop offset="1" stop-color="#DBDDF9"/>
</linearGradient>
<linearGradient id="paint2_linear_2243_43282" x1="830.792" y1="347.82" x2="773.62" y2="422.797" gradientUnits="userSpaceOnUse">
<stop stop-color="#62443F"/>
<stop offset="1" stop-color="#765440"/>
</linearGradient>
<linearGradient id="paint3_linear_2243_43282" x1="278.171" y1="674.228" x2="360.947" y2="708.91" gradientUnits="userSpaceOnUse">
<stop stop-color="#5D443B"/>
<stop offset="1" stop-color="#554D47"/>
</linearGradient>
<linearGradient id="paint4_linear_2243_43282" x1="305.578" y1="667.793" x2="229.307" y2="730.265" gradientUnits="userSpaceOnUse">
<stop stop-color="#714E3A"/>
<stop offset="1" stop-color="#514440"/>
</linearGradient>
<linearGradient id="paint5_linear_2243_43282" x1="239.678" y1="719.156" x2="248.779" y2="703.117" gradientUnits="userSpaceOnUse">
<stop stop-color="#EDBF68"/>
<stop offset="1" stop-color="#FBE8A0"/>
</linearGradient>
<linearGradient id="paint6_linear_2243_43282" x1="422.643" y1="726.745" x2="369.71" y2="765.008" gradientUnits="userSpaceOnUse">
<stop stop-color="#6C3F39"/>
<stop offset="1" stop-color="#58524B"/>
</linearGradient>
<linearGradient id="paint7_linear_2243_43282" x1="432.211" y1="714.311" x2="436.75" y2="732.968" gradientUnits="userSpaceOnUse">
<stop stop-color="#4A3D38"/>
<stop offset="1" stop-color="#535250"/>
</linearGradient>
</defs>
</svg>
