<svg width="1024" height="1024" viewBox="0 0 1024 1024" fill="none" xmlns="http://www.w3.org/2000/svg">
<path d="M542.406 93.948C548.24 88.2726 570.746 74.5764 578.126 71.0581C628.016 47.2733 681.797 56.0505 733.463 68.1825C763.289 75.1862 793.792 81.5885 821.811 94.8225C838.137 102.443 860.946 118.768 873.569 131.827C899.733 158.896 931.328 206.681 931.551 245.146C931.648 261.795 921.679 283.202 909.159 293.891C905.013 297.431 896.259 304.899 891.03 307.194C877.049 303.927 871.872 310.07 860.982 317.333C859.564 318.216 858.114 318.993 856.952 320.173C825.24 286.257 792.088 253.186 758.534 221.089C725.854 190.271 694.618 157.443 658.201 130.938C633.424 112.906 624.745 106.669 599.879 127.84C579.369 110.744 566.654 104.386 542.406 93.948Z" fill="#FBF8CC"/>
<path d="M81.673 529.199C67.6632 511.899 60.2777 497.122 52.7482 476.232C32.4524 419.923 48.2215 362.227 72.3527 309.943C89.7842 274.12 112.116 237.037 138.728 207.195C168.852 173.416 204.701 141.397 244.182 119.206C320.315 76.4141 409.607 59.7623 495.287 79.3218C509.729 82.6187 528.938 87.6178 542.191 93.9884C535.201 101.369 523.15 110.033 515.38 116.939C472.163 155.351 423.684 195.954 424.331 259.376C424.416 267.644 431.074 312.048 435.052 318.669C423.548 332.079 411.921 345.385 400.175 358.584C396.908 362.209 375.223 384.759 375.007 387.112C375.576 389.031 376.213 389.26 377.737 390.53L378.422 391.106C378.564 391.22 378.705 391.335 378.847 391.449C376.384 395.617 374.323 399.165 372.934 403.848C364.966 403.577 359.247 403.654 352.128 407.545C328.183 420.633 314.934 445.995 313.608 472.365C296.315 470.045 277.101 468.355 259.449 467.093C211.005 463.63 147.676 459.392 106.43 490.126C90.4326 502.047 87.0186 511.281 81.673 529.199ZM176.155 303.9C171.348 310.57 170.338 323.963 168.077 332.161C167.431 334.506 165.724 342.872 166.684 344.889C167.948 344.546 168.101 343.622 168.769 342.4C172.164 335.776 184.75 309.354 179.233 304.137C177.692 303.753 177.752 303.785 176.155 303.9ZM145.662 307.795C144.37 309.108 143.615 309.603 143.219 311.394C143.876 316.85 156.192 342.991 159.489 348.911L160.792 348.691C161.705 344.728 153.83 316.562 150.495 311.892C148.693 309.371 148.531 308.791 145.662 307.795ZM204.911 330.47C200.248 332.443 183.594 339.258 181.294 342.313C181.029 343.976 180.889 343.182 181.966 344.723C183.344 345.613 183.982 345.378 185.633 345.239C190.146 344.329 218.047 338.793 206.259 330.581C206.105 330.473 205.148 330.475 204.911 330.47ZM120.297 339.909C118.539 341.778 118.659 341.127 118.154 343.317C118.716 344.795 119.138 345.72 120.85 346.366C126.784 348.603 139.456 349.633 145.625 349.561L146.716 349.217C144.418 345.43 125.224 340.436 120.297 339.909ZM170.058 353.671L169.243 354.276C170.291 359.288 203.107 366.183 209.08 365.912C210.321 363.925 210.839 359.673 208.15 359.223C196.594 357.288 181.663 353.648 170.058 353.671ZM152.226 355.47C147.76 357.216 131.017 369.54 128.314 374.365C127.782 375.315 128.116 376.029 128.326 377.006C129.714 378.398 128.887 377.835 131.163 378.313C136.198 375.677 153.8 361.59 155.413 357.092C154.581 355.77 153.833 355.784 152.226 355.47ZM164.426 360.328C166.067 366.58 180.729 394.574 186.73 394.935C187.106 394.686 187.743 394.304 188.047 394.015C189.414 391.155 190.081 390.041 187.797 387.37C184.235 383.206 168.079 362.038 164.426 360.328ZM161.383 366.513C156.129 370.389 143.966 388.323 141.667 395.266C141.376 396.146 142.391 397.386 142.982 398.09C145.393 397.956 145.649 398.323 147.46 396.343C150.643 392.861 164.344 369.728 161.383 366.513Z" fill="#98F5E1"/>
<path d="M542.191 93.988L542.406 93.9453C566.654 104.383 579.369 110.741 599.879 127.837C595.89 131.76 591.571 135.942 587.982 140.231C563.293 169.739 541.196 201.145 519.834 233.106C504.962 255.355 490.654 278.056 474.808 299.609C473.023 302.036 471.314 304.416 469.733 306.989C465.887 303.148 461.266 298.256 457.13 294.887C446.99 303.245 442.628 311.575 435.052 318.669C431.074 312.048 424.416 267.644 424.331 259.376C423.684 195.954 472.163 155.351 515.38 116.939C523.15 110.033 535.201 101.369 542.191 93.988Z" fill="#9FF6B8"/>
<path d="M599.879 127.838C624.745 106.667 633.424 112.904 658.201 130.936C694.618 157.441 725.854 190.269 758.534 221.087C792.088 253.184 825.24 286.255 856.952 320.171C868.018 331.635 899.667 363.585 905.355 375.985C909.65 385.347 910.748 396.448 910.558 406.634C910.338 418.444 907.204 427.508 898.543 435.786C892.501 441.561 884.902 446.012 877.967 450.63L843.591 470.35C840.119 472.318 824.589 480.343 823.357 483.101C818.61 485.409 811.947 489.789 807.16 492.545C801.31 495.912 793.721 500.04 788.333 503.905C772.517 513.592 756.854 523.529 741.352 533.711C735.083 537.853 723.229 546.373 717.226 549.698C722.349 558.322 723.188 564.237 711.497 566.255C686.775 589.747 662.799 617.057 637.587 640.648C633.759 642.823 628.266 645.935 624.308 647.502C607.673 654.086 584.012 640.999 568.407 633.654C534.401 617.647 501.415 614.889 465.563 628.379C464.347 627.833 464.769 628.293 464.164 627.085C484.016 617.927 513.193 616.396 534.727 620.12C559.103 624.337 579.468 639.098 602.665 645.965C615.061 649.634 624.398 646.102 635.142 639.519C630.419 635.809 626.624 632.334 622.195 628.283C598.645 634.942 587.712 628.09 567.131 618.534C560.069 615.275 552.789 612.511 545.344 610.261C508.636 599.271 473.474 607.083 440.586 624.668L439.097 623.725C479.966 601.314 518.894 596.313 562.742 614.603C586.926 624.691 593.609 632.517 620.695 627.035C594.853 603.899 569.292 580.337 543.443 557.238C507.057 524.723 468.783 494.471 436.7 457.409C429.726 449.352 423.166 440.854 416.345 432.648C408.168 422.898 399.768 413.338 391.149 403.977C386.4 412.261 384.745 419.013 386.707 428.5L384.78 429.555C384.019 423.142 384.021 419.05 385.535 412.776C386.613 408.9 387.952 406.235 389.649 402.574C386.68 399.455 383.271 396.402 380.725 392.957C377.169 398.205 376.276 399.751 374.719 405.835C373.265 422.741 377.409 429.758 383.091 445.497C387.69 458.235 394.927 474.602 397.841 487.823C405.189 521.167 397.789 550.605 386.316 581.338L384.217 580.317C397.016 556.693 402.409 517.27 396.873 491.375C393.593 476.031 386.094 459.476 380.53 444.639C374.895 429.613 370.606 420.318 372.934 403.849C374.323 399.166 376.384 395.618 378.847 391.45C378.705 391.336 378.564 391.221 378.422 391.107L377.737 390.531C376.213 389.261 375.576 389.032 375.007 387.113C375.223 384.76 396.908 362.21 400.175 358.585C411.921 345.386 423.548 332.08 435.052 318.67C442.628 311.576 446.99 303.246 457.13 294.888C461.266 298.257 465.887 303.149 469.733 306.99C471.314 304.417 473.023 302.037 474.808 299.61C490.654 278.057 504.962 255.356 519.834 233.107C541.196 201.146 563.293 169.74 587.982 140.232C591.571 135.943 595.89 131.761 599.879 127.838ZM591.93 138.281C585.033 145.748 576.757 156.328 570.468 164.613C565.821 170.519 559.176 178.668 555.128 184.965C534.092 212.453 515.479 243.548 495.716 272.064C489.473 281.073 477.618 300.517 470.574 307.849L480.823 317.954C501.246 283.246 525.89 248.965 548.294 215.372C554.576 205.952 560.429 197.078 567.416 188.096C571.481 182.806 575.64 177.589 579.89 172.448L585.248 166.119L585.648 167.088C583.881 169.227 582.101 171.343 580.414 173.546C575.747 179.392 571.22 185.052 566.794 191.081C565.451 192.608 563.278 194.895 562.334 196.582C557.174 203.124 553.231 210.473 548.539 217.306C528.951 245.836 510.173 274.932 491.139 303.835C487.994 308.611 485.015 314.295 482.208 319.316L485.834 322.786C502.247 291.96 519.646 264.135 539.237 235.259C546.263 224.903 552.629 213.636 559.443 203.419L560.184 204.205C545.068 229.02 528.648 253.679 513.113 278.399C506.864 288.175 500.941 298.154 495.353 308.321C492.973 312.625 489.316 319.027 487.655 323.469C488.121 325.194 488.445 325.053 489.906 326.54C491.788 328.745 494.268 331.049 496.361 333.106C502.937 317.14 516.995 296.75 526.659 282.398C538.023 265.841 548.855 248.788 560.891 232.712C567.317 224.129 574.477 215.691 581.277 207.379L596.396 188.579C603.137 180.596 609.94 172.667 616.807 164.793C619.606 161.529 622.425 158.281 625.263 155.051C628.5 151.363 637.482 140.207 640.434 137.635C635.84 145.878 628.556 152.906 622.441 160.38C615.83 167.186 603.015 181.807 597.379 189.197C592.826 194.873 587.127 201.585 582.87 207.329C576.547 215.318 569.997 222.951 563.877 231.103C551.226 247.956 539.6 265.514 527.911 283.044C516.552 300.077 505.814 315.46 497.549 334.283C502.952 339.643 508.425 344.932 513.967 350.149C531.657 323.606 549.531 299.085 569.408 274.146C580.139 260.684 592.808 243.986 605.317 232.192L622.416 215.634C626.278 211.173 633.543 204.28 637.915 199.894C643.807 193.948 649.561 187.866 655.173 181.655C661.081 174.995 673.198 160.565 679.087 155.353C675.065 162.917 660.382 177.751 653.976 184.349C643.4 195.723 634.325 205.525 623.145 216.488C617.648 221.585 612.27 226.809 607.017 232.158C577.901 263.236 552.572 297.851 527.842 332.52C525.917 335.219 516.068 349.193 515.865 351.364C516.514 352.574 516.518 352.5 517.573 353.408C518.886 354.756 520.876 357.207 522.434 357.71L522.696 357.454C527.908 349.457 531.721 341.827 537.573 333.375C550.079 315.332 563.275 297.777 577.133 280.75C588.759 266.557 601.876 251.89 613.874 237.686L627.817 222.129L631.932 217.896L632.038 218.72C630.021 220.523 629.474 221.133 627.827 223.284L615.537 237.242C602.686 253.183 589.359 268.144 576.59 283.908C557.002 307.738 539.204 332.984 523.34 359.44C528.96 365.036 534.633 370.577 540.359 376.064C561.058 354.968 579.481 331.609 599.604 309.984C603.972 305.29 618.326 289.221 622.804 285.818C622.011 287.691 605.566 305.27 603.152 307.888C582.166 330.641 562.728 354.612 541.255 376.903C543.469 378.821 545.83 381.158 547.974 383.196C552.822 378.313 562.056 365.912 566.371 360.173C576.398 346.835 586.836 333.053 596.82 319.825C602.067 312.872 622.191 289.982 624.906 284.161C630.306 278.334 635.792 272.587 641.363 266.923L652.433 255.686C663.215 244.609 676.074 233.097 687.391 221.765C690.699 218.504 711.888 197.581 714.008 197.135C709.159 203.174 694.279 216.466 687.924 222.709C675.834 234.855 664.221 245.804 651.825 257.559C648.907 260.577 645.426 263.993 642.648 267.063C607.987 303.898 580.787 345.803 549.011 384.411C555.449 390.623 562.444 397.132 568.69 403.471C578.448 393.651 587.175 383.418 596.484 373.209C611.306 356.799 626.521 340.749 642.115 325.073C646.17 321.004 657.565 308.932 661.797 306.007C659.751 308.85 652.671 315.896 649.952 318.708L624.183 345.255C605.676 364.693 588.17 385.268 569.827 404.487L574.265 408.762C604.506 373.318 637.521 337.895 667.246 302.183C667.791 301.776 670.363 298.824 670.984 298.134L675.72 292.969C679.015 289.118 684.143 284.349 687.864 280.695L707.679 261.123C711.853 257.07 715.967 252.957 720.02 248.784C723.26 245.823 745.727 222.153 746.539 221.922C746.671 223.127 746.267 224.058 745.468 224.966C723.979 249.367 697.492 270.574 675.907 294.611L671.564 299.283C639.293 336.028 607.716 373.335 575.149 409.815C581.993 416.621 588.919 423.344 595.925 429.982C607.205 420.149 618.823 408.176 629.749 397.738C644.57 383.677 659.564 369.801 674.73 356.113C682.817 348.72 691.372 340.464 699.551 333.383C701.39 331.717 708.746 324.801 710.263 324.225C704.578 330.247 699.697 334.439 693.726 340.066C682.694 350.559 671.52 360.901 660.206 371.09C638.857 390.694 617.858 410.677 597.22 431.029L600.79 434.495L669.321 366.763C679.895 356.509 690.627 346.44 700.674 335.653C703.084 333.065 709.147 327.032 711.045 324.344C712.518 322.489 717.598 317.633 719.579 315.629C725.263 309.878 729.87 304.915 734.946 298.57C737.256 296.961 750.02 281.55 752.439 278.794C757.815 273.056 776.062 252.136 780.275 249.315C775.113 257.276 759.44 273.301 752.619 280.419C750.131 283.075 748.281 284.992 746.14 287.94C741.992 291.949 735.933 299.358 732.07 303.892C721.753 315.165 711.271 326.287 700.627 337.254C679.559 359.014 658.139 380.433 636.377 401.5C625.564 412.018 611.976 424.505 601.998 435.322C607.809 441.228 613.682 447.073 619.615 452.857C623.348 450.272 629.402 444.654 632.895 441.504C640.172 434.856 647.511 428.276 654.912 421.766C674.236 404.993 700.355 384.257 721.071 369.205C741.671 354.764 758.722 343.782 778.49 327.897L779.398 329.037C760.39 343.908 742.242 359.549 723.299 374.446C688.026 403.346 659.099 427.533 626.816 459.977C631.592 464.644 636.432 469.245 641.335 473.779C667.33 454.886 694.67 437.613 720.843 418.924C725.279 415.757 732.007 410.469 736.864 408.149C734.27 410.874 730.067 413.297 727.001 415.603C702.085 434.339 675.659 450.879 650.289 468.964C647.83 470.717 645.025 472.714 642.815 474.726L646.795 478.221C662.779 465.463 681.139 452.992 697.68 440.714C711.036 430.8 725.433 418.893 738.973 409.555L745.253 405.196C762.126 394.459 777.909 381.248 793.97 369.353C806.489 360.081 818.307 350.059 830.098 339.895C833.831 336.766 847.172 324.776 850.398 323.98C845.962 329.374 831.759 339.461 825.363 345.786C823.369 347.304 814.042 355.174 812.308 356.978C797.859 369.068 779.83 381.003 764.821 392.726C759.34 397.006 750.231 402.4 745.376 406.606C717.461 427.374 689.575 448.25 661.493 468.8C656.847 472.2 652.258 475.584 647.793 479.223C653.209 484.383 664.756 494.66 669.252 499.841C681.289 491.645 693.958 483.355 706.215 475.475C724.081 463.99 744.053 449.877 763.055 440.597L761.759 441.863C729.539 460.388 700.872 481.766 670.005 500.709L674.114 504.809C702.319 486.773 736.571 463.149 763.44 442.7C786.414 427.027 808.814 409.071 831.161 392.486C834.444 390.049 837.716 387.507 840.858 384.891C848.786 378.779 856.766 372.683 864.573 366.417C869.741 362.269 875.195 356.483 880.609 352.911C875.206 360.375 864.165 368.829 856.628 374.347C840.667 386.947 824.244 398.861 808.302 411.482C806.161 413.177 803.971 414.85 801.777 416.474L765.291 443.048C746.945 456.83 728.29 470.198 709.343 483.141C698.75 490.403 685.673 498.535 675.606 505.9C681.506 511.394 687.604 516.952 693.285 522.648C725.268 505.578 748.173 482.428 778.359 464.148C795.313 452.815 812.348 441.603 829.463 430.513C835.643 426.427 851.908 415.135 858.022 412.273L858.121 412.719C855.325 414.3 852.426 416.343 849.756 418.184C826.426 434.266 802.114 449.153 778.819 465.244C754.299 481.311 732.21 499.964 708.586 516.485L708.693 516.265C711.587 515.497 721.338 509.024 724.426 507.139C732.396 502.351 740.416 497.648 748.486 493.031C760.532 486.17 773.101 480.793 784.828 473.385L864.859 425.75C869.085 424.287 884.268 414.347 888.912 411.564L889.452 412.467C875.138 421.999 861.897 428.991 847.121 437.603C826.55 449.649 806.131 461.952 785.868 474.509C767.401 485.445 748.066 494.243 729.739 505.5C721.524 510.547 713.085 515.908 704.553 520.369C701.966 521.722 696.417 522.216 693.4 523.009C696.009 525.709 699.079 528.743 701.518 531.532C720.217 520.125 739.81 509.308 758.686 498.09C769.202 491.84 779.097 487.254 789.639 480.418C805.378 471.4 820.675 461.842 836.294 452.625C846.59 446.549 857.305 441.337 867.654 435.38C870.353 433.826 872.487 432.265 875.324 430.825C873.706 432.919 873.458 432.085 871.792 433.584C870.429 434.171 864.389 438.114 863.381 439.141C844.988 448.256 825.684 460.393 808.254 471.279C803.269 474.392 794.084 478.832 790.017 481.585C787.271 483.305 783.282 485.991 780.556 487.495L731.284 515.817C721.404 521.515 712.196 526.359 702.715 532.766C706.132 537.347 710.53 542.31 714.378 546.605C728.553 535.147 745.733 523.908 761.617 514.823C769.797 510.145 778.93 506.171 787.497 501.34C791.016 499.368 794.498 497.331 797.942 495.229C812.037 487.311 826.476 478.615 840.62 470.611C852.063 464.136 875.627 451.544 885.541 443.793C890.538 440.839 898.59 435.166 901.543 430.036C908.311 424.06 908.942 411.68 909.121 403.663C909.871 380.244 900.847 369.915 886.036 353.639C855.285 319.848 823.745 286.996 791.254 254.887C771.409 235.304 751.337 215.953 731.041 196.839C712.175 178.998 648.416 115.184 624.91 115.84C611.671 116.21 600.445 129.461 591.93 138.281ZM471.348 312.273L457.173 298.128C453.52 301.719 450.615 304.713 447.16 308.521C451.076 312.69 455.093 316.763 459.209 320.736C470.503 331.359 482.102 343.316 493.202 354.315L542.111 402.471L647.127 504.605C660.519 517.498 673.69 530.77 687.416 543.28C695.25 550.421 701.821 558.01 710.876 563.418C713.301 562.659 719.025 560.658 717.875 557.453C714.93 549.249 702.946 535.804 697.03 529.752C675.07 507.29 651.096 486.769 628.648 464.914L530.495 369.907C510.457 350.39 491.931 331.669 471.348 312.273ZM457.271 322.024C453.437 318.291 449.235 314.376 445.741 310.365C434.291 323.512 422.944 336.75 411.702 350.076C415.324 353.489 419.845 357.943 423.135 361.756L564.179 500.563L630.143 564.823C641.107 575.511 652.062 585.556 662.821 596.5C675.877 584.312 687.409 571.217 699.81 558.515C667.479 527.971 635.497 497.06 603.869 465.789L457.271 322.024ZM740.216 357.032C698.258 386.617 658.383 419.05 620.871 454.101L625.643 458.627C636.933 447.888 647.92 436.606 659.563 426.322C685.96 403.009 713.276 380.71 740.767 358.717C743.085 356.783 748.868 352.146 750.549 349.966L740.216 357.032ZM422.271 363.022C417.983 358.771 414.657 355.505 410.764 350.879L405.393 357.124C409.231 361.254 413.143 365.314 417.128 369.302C437.258 390.811 460.258 413.44 481.232 434.393L614.414 565.29C627.982 578.516 641.429 591.129 655.034 604.566C657.333 602.347 659.793 599.673 662.032 597.344C640.206 576.877 619.641 556.241 598.27 535.397L422.271 363.022ZM415.659 370.994C411.577 366.981 407.567 362.895 403.63 358.739C395.772 367.368 385.285 378.174 377.938 386.935C381.99 390.869 385.787 394.939 389.664 399.041C398.65 409.064 407.735 419.126 416.478 429.354C422.953 437.061 429.069 445.113 435.582 452.785C471.107 494.636 514.849 527.935 555.099 564.907C575.303 583.466 596.164 601.339 616.448 619.82C618.798 621.961 621.963 624.822 624.496 626.685C626.298 628.414 628.096 630.211 630.019 631.797C632.234 633.813 635.218 636.169 637.561 638.131C642.963 634.021 656.694 619.089 662.071 613.447C660.061 611.346 656.857 608.601 654.629 606.582C650.566 610.982 637.924 625.351 633.765 627.367C635.456 624.565 650.854 609.111 653.76 605.923C647.765 601.081 638.492 591.439 632.576 585.77L582.713 537.383C548.999 504.731 515.548 471.807 482.365 438.614C459.86 416.342 437.623 393.8 415.659 370.994ZM775.171 509.06C759.542 517.295 744.44 526.497 729.955 536.611C725.298 539.809 717.106 545.422 713.418 549.421C718.811 547.084 733.137 537.081 739.069 533.196C751.246 525.246 763.602 517.573 776.128 510.185C778.152 509.01 785.023 505.231 786.264 503.491C782.848 504.736 778.466 507.281 775.171 509.06ZM700.539 559.42C689.3 571.362 675.986 586.291 663.849 597.234C665.648 598.971 669.14 602.565 671.106 603.746L671.886 603.549L708.998 565.585C705.694 563.449 703.624 561.888 700.539 559.42ZM662.503 598.291C660.321 600.574 658.114 602.969 655.817 605.123C656.747 606.005 662.663 611.912 663.399 612.198L670.236 604.843C668.922 603.753 663.284 598.689 662.503 598.291Z" fill="#0B0B0A"/>
<path d="M591.93 138.282C600.445 129.462 611.671 116.211 624.91 115.841C648.416 115.185 712.175 178.999 731.041 196.84C751.337 215.954 771.409 235.305 791.254 254.888C823.745 286.997 855.285 319.849 886.036 353.64C900.847 369.916 909.871 380.245 909.121 403.664C908.942 411.681 908.311 424.061 901.543 430.037C899.366 430.458 890.025 441.616 886.15 441.455C886.33 438.09 895.266 431.59 895.344 427.512C893.736 425.596 894.523 427.174 891.629 425.89C891.239 420.873 893.933 422.222 892.033 416.822C891.828 415.713 891.789 412.511 891.74 411.227C895.492 408.652 903.626 403.008 905.717 399.178C904.19 398.882 892.768 408.735 888.926 411.12L887.684 410.733C885.971 408.926 886.94 407.81 885.884 406.045C885.08 404.703 882.355 404.974 881.403 404.702L881.397 403.758C883.632 402.251 893.163 393.737 893.203 391.613C890.629 390.851 884.949 399.825 880.306 400.741C880.266 399.883 878.963 396.359 878.599 395.296L878.175 394.685C876.174 391.839 875.683 390.778 872.329 390.194L873.008 388.606C875.866 385.474 887.026 375.676 887.339 373.051C884.679 373.515 873.818 385.026 871.92 387.505C870.546 382.295 861.424 376.318 856.628 374.348C864.165 368.83 875.206 360.376 880.609 352.912C875.195 356.484 869.741 362.27 864.573 366.418C856.766 372.684 848.786 378.78 840.858 384.892C839.536 383.826 838.843 383.308 837.69 382.016C837.645 379.822 838.813 378.789 840.143 376.612C835.509 379.634 830.097 383.423 825.078 385.493C826.221 383.436 827.254 382.527 826.875 380.657C828.333 378.439 843.807 364.739 846.552 362.38C848.602 361.93 848.476 358.232 847.983 357.184C848.036 357.298 850.644 353.57 850.925 353.147C852.963 350.696 858.84 346.73 859.973 344.446L859.585 343.681C856.535 344.198 851.805 350.906 848.623 353.366C845.976 352.876 839.695 351.912 837.303 352.553C834.911 349.135 836.814 348.074 831.987 346.092C828.071 345.321 828.657 347.349 825.363 345.787C831.759 339.462 845.962 329.375 850.398 323.981C847.172 324.777 833.831 336.767 830.098 339.896C827.446 335.491 825.893 336.784 821.433 338.094C818.925 339.002 818.579 339.138 816.566 340.869L814.086 340.635C816.162 338.608 818.631 338.806 818.977 334.87C817.869 332.355 816.868 332.113 814.448 330.578L814.483 330.145C819.11 325.855 829.51 316.508 832.315 311.436C830.398 311.852 816.136 326.185 812.465 328.634L810.644 327.765C811.648 326.78 812.646 325.926 812.481 324.534C810.323 324.158 806.203 326.265 804.009 327.246L803.312 326.672L803.868 325.183L803.603 324.753L800.486 325.219L798.853 324.147C796.399 322.994 794.367 320.425 792.785 318.298C797.869 314.025 817.84 296.327 820.783 291.815C816.063 294.595 810.071 300.757 805.92 304.51C799.167 310.618 790.53 318.688 783.108 323.919C784.411 319.903 791.858 317.133 793.065 314.117C793.041 310.706 788.946 307.184 786.472 304.663L785.171 305.027C786.5 302.999 787.418 301.924 789.009 300.08C791.818 297.655 803.735 287.165 804.657 284.167L803.991 283.657C802.135 283.936 790.092 296.501 785.854 298.911C782.83 300.301 773.942 305.482 771.793 305.788C771.731 305.078 771.661 304.369 771.583 303.66L773.668 303.756C775.549 301.483 780.395 295.713 778.56 292.834L777.715 292.886C775.718 295.012 774.811 295.908 773.235 298.445C771.68 300.14 769.45 303.177 767.418 303.489C766.083 303.896 765.708 303.915 764.554 304.719L763.439 304.242L764.588 303.298C766.539 301.712 771.521 297.337 772.377 295.182C770.605 293.413 769.637 295.388 768.024 293.733C768.014 291.09 768.134 290.503 766.575 288.43C769.58 285.819 772.991 283.142 776.095 280.606C779.707 277.745 788.088 272.077 790.272 268.821L789.942 268.69C784.888 272.236 779.87 276.226 774.968 280.004C770.68 283.184 767.519 285.67 763.552 289.284C760.091 285.743 756.577 283.312 752.619 280.42C759.44 273.302 775.113 257.277 780.275 249.316C776.062 252.137 757.815 273.057 752.439 278.795C750.289 276.555 744.866 273.977 744.629 273.58C741.589 268.485 739.992 266.634 735.707 262.385L736.073 261.551C739.663 257.82 743.288 254.123 746.947 250.46C749.515 247.617 754.088 243.648 757.14 240.425L757.006 240.065C752.802 242.603 749.301 245.837 745.572 249.033C742.236 252.097 738.853 255.109 735.425 258.07C733.935 258.787 734.531 258.576 733.084 258.775C729.525 259.264 726.338 261.376 723.414 263.279C722.785 263.537 708.466 272.264 708.092 272.595C708.161 273.4 708.015 273.069 708.443 273.622C706.106 274.584 705.268 275.228 703.997 277.389L704.136 278.163C706.585 278.92 711.294 274.205 715.654 273.662C719.19 272.26 722.841 270.489 725.543 267.763L725.981 267.57C728.564 266.41 731.833 264.106 734.05 263.55L734.26 263.85L732.74 264.969L733.037 265.589C735.435 265.341 733.987 264.011 736.432 264.143L736.86 264.808L735.905 266.629C736.865 268.796 738.107 268.543 740.251 268.44C741.315 269.764 740.964 268.995 741.026 270.942C735.406 276.454 729.443 281.641 723.694 287.024C720.992 289.554 718.333 291.275 715.934 294.164C719.312 293.162 738.494 278.469 741.774 274.347C741.864 274.234 742.146 272.927 742.2 272.653C743.701 273.28 744.148 274.164 745.133 275.472C748.266 275.994 748.266 275.648 749.896 277.902C750.749 283.516 734.791 294.271 734.946 298.571C729.87 304.916 725.263 309.879 719.579 315.63C717.598 317.634 712.518 322.49 711.045 324.345L710.263 324.226C708.746 324.802 701.39 331.718 699.551 333.384C698.103 331.394 697.377 330.041 696.219 327.899C693.236 322.382 679.596 298.487 675.907 294.612C697.492 270.575 723.979 249.368 745.468 224.967C746.267 224.059 746.671 223.128 746.539 221.923C745.727 222.154 723.26 245.824 720.02 248.785C716.438 249.425 716.823 247.49 712.985 245.961C711.375 246.324 711.718 246.52 710.418 248.302C708.406 248.051 706.491 246.371 705.287 244.79C701.048 239.219 705.648 240.558 706.28 236.54C709.968 231.363 723.895 219.497 725.196 212.226C719.04 219.624 710.403 230.778 703.596 237.148L703.101 237.16C699.465 234.134 700.419 232.183 701.593 228.06C699.501 229.507 698.909 230.768 696.268 230.748C694.386 229.968 693.059 229.872 691.323 229.233C692.023 228.053 692.108 228.105 692.207 226.765C691.504 224.861 689.646 223.921 687.924 222.71C694.279 216.467 709.159 203.175 714.008 197.136C711.888 197.582 690.699 218.505 687.391 221.766C681.473 217.594 678.322 220.287 674.361 216.797C677.268 213.584 687.073 203.125 688.832 199.822L688.417 199.688C686.377 200.922 680.804 207.428 678.44 209.82C675.763 211.678 668.341 213.999 666.277 210.179C663.58 205.189 671.422 200.071 672.325 196.328L671.798 195.802L668.805 196.443C669.305 194.212 670.533 195.64 670.801 192.843C676.404 187.131 685.728 178.012 689.685 171.13L689.311 171.022C685.352 174.096 680.309 180.146 676.713 183.961C673.602 187.262 670.235 190.552 667.2 193.815L664.359 194.444C664.019 192.908 664.251 191.373 664.31 189.759C663.141 189.989 661.965 190.188 660.785 190.357C658.072 187.588 657.207 187.244 654.654 184.961L653.976 184.35C660.382 177.752 675.065 162.918 679.087 155.354C673.198 160.566 661.081 174.996 655.173 181.656C654.555 180.625 654.265 180.25 653.56 179.283C651.74 178.992 652.128 179.198 650.107 180.121L648.917 178.987C646.828 177.548 646.338 177.722 643.779 177.651C643.484 176.669 643.446 176.417 643.366 175.422L643.299 174.533C641.701 172.635 641.051 171.815 639.192 170.229C639.995 169.221 643.819 165.968 645.175 164.455C650.402 158.625 657.019 150.259 659.89 143.038C652.516 149.224 647.928 160.816 639.124 167.195C637.319 167.005 635.409 166.843 633.634 166.529C632.043 168.124 630.755 170.044 628.889 170.341L628.209 168.449C627.627 167.794 627.289 167.328 626.764 166.628C626.944 163.988 628.185 163.865 628.744 161.551L628.011 161.119C625.044 162.002 624.42 162.781 622.441 160.381C628.556 152.907 635.84 145.879 640.434 137.636C637.482 140.208 628.5 151.364 625.263 155.052C619.127 152.511 609.166 161.657 600.953 158.567C597.424 154.808 604.031 152.46 605.413 148.478C608.122 143.961 621.719 130.804 622.976 126.431L622.534 125.68C620.991 126.15 616.162 132.925 614.697 134.74C611.312 138.902 607.741 142.909 603.995 146.748C599.878 142.735 596.147 144.515 591.93 138.282ZM710.656 264.326C707.254 267.143 705.199 269.214 702.806 272.95C702.827 273.322 702.826 273.897 702.919 274.229C705.031 272.165 710.479 267.46 710.947 265.004L710.656 264.326Z" fill="url(#paint0_linear_2247_8824)"/>
<path d="M603.995 146.748C607.741 142.909 611.312 138.902 614.697 134.74C616.162 132.925 620.991 126.15 622.534 125.68L622.976 126.431C621.719 130.804 608.122 143.961 605.413 148.478C603.021 150.649 600.665 152.858 598.346 155.106C594.021 159.002 589.787 162.997 585.648 167.089L585.248 166.12C588.828 160.411 598.876 151.141 603.995 146.748Z" fill="#CD8E66"/>
<path d="M570.469 164.613C576.758 156.328 585.034 145.748 591.931 138.281C596.148 144.514 599.879 142.734 603.996 146.747C598.877 151.14 588.829 160.41 585.249 166.119L579.891 172.448C577.854 169.922 573.364 166.08 570.469 164.613Z" fill="#B9FBC0"/>
<path d="M639.124 167.192C647.928 160.813 652.516 149.221 659.89 143.035C657.019 150.256 650.402 158.622 645.175 164.452C643.819 165.965 639.995 169.218 639.192 170.226C637.935 170.96 637.882 171.029 636.501 171.432L635.742 170.737L639.124 167.192Z" fill="#CD8E66"/>
<path d="M598.346 155.105C600.665 152.857 603.021 150.648 605.413 148.477C604.031 152.459 597.424 154.807 600.953 158.566C609.166 161.656 619.127 152.51 625.263 155.051C622.425 158.281 619.606 161.529 616.807 164.793C607.303 154.544 602.77 166.044 598.346 155.105Z" fill="#FBF8CC"/>
<path d="M585.648 167.088C589.787 162.996 594.021 159.001 598.346 155.105C602.77 166.044 607.303 154.544 616.807 164.793C609.94 172.667 603.137 180.596 596.396 188.579C593.941 185.752 592.529 184.12 589.73 181.671C591.984 179.099 597.489 173.364 598.568 170.562L598.098 170.507C594.629 173.873 590.771 178.626 587.565 182.368C584.314 179.346 583.978 176.489 580.414 173.546C582.101 171.343 583.881 169.227 585.648 167.088Z" fill="#B9FBC0"/>
<path d="M597.379 189.196C603.015 181.806 615.83 167.185 622.441 160.379C624.42 162.779 625.044 162 628.011 161.117L628.744 161.549C628.185 163.863 626.944 163.986 626.764 166.626C627.289 167.326 627.627 167.792 628.209 168.447C628.145 170.704 627.805 170.296 628.847 171.808C631.62 172.444 632.414 168.996 635.742 170.738L636.501 171.433C637.882 171.03 637.935 170.961 639.192 170.227C641.051 171.813 641.701 172.633 643.299 174.531L643.366 175.42C643.446 176.415 643.484 176.667 643.779 177.649C646.338 177.72 646.828 177.546 648.917 178.985C645.63 181.141 643.609 183.538 640.753 185.589L642.267 186.161C644.846 184.123 647.933 182.44 650.107 180.119C652.128 179.196 651.74 178.99 653.56 179.281C654.265 180.248 654.555 180.623 655.173 181.654C649.561 187.865 643.807 193.947 637.915 199.893C633.543 204.279 626.278 211.172 622.416 215.633C617.411 210.563 601.106 191.487 597.379 189.196Z" fill="#9FF6B8"/>
<path d="M555.129 184.965C559.177 178.668 565.822 170.519 570.469 164.613C573.364 166.08 577.854 169.922 579.891 172.448C575.641 177.589 571.482 182.806 567.417 188.096C564.168 185.945 563.706 186.625 560.176 188.171L555.129 184.965Z" fill="#98F5E1"/>
<path d="M633.634 166.527C635.409 166.841 637.319 167.003 639.124 167.193L635.742 170.738C632.414 168.996 631.62 172.444 628.847 171.808C627.805 170.296 628.145 170.704 628.209 168.447L628.889 170.339C630.755 170.042 632.043 168.122 633.634 166.527Z" fill="#FBF8CC"/>
<path d="M587.565 182.369C590.771 178.627 594.629 173.874 598.098 170.508L598.568 170.563C597.489 173.365 591.984 179.1 589.73 181.672C584.712 187.671 579.834 193.785 575.098 200.009C549.242 233.831 525.372 270.936 502.007 306.618C499.649 310.219 496.313 315.161 494.346 318.934C493.167 321.19 492.399 323.639 492.081 326.165C490.882 326.439 491.461 326.438 490.346 326.227C493.292 310.895 560.512 216.81 574.028 199.564C578.176 193.94 583.185 187.892 587.565 182.369Z" fill="#0B0B0A"/>
<path d="M670.8 192.841C669.871 193.585 669.517 193.779 668.758 194.656L667.199 193.813C670.234 190.55 673.601 187.26 676.712 183.959C680.308 180.144 685.351 174.094 689.31 171.02L689.684 171.128C685.727 178.01 676.403 187.129 670.8 192.841Z" fill="#CD8E66"/>
<path d="M580.414 173.547C583.978 176.49 584.314 179.347 587.565 182.369C583.185 187.892 578.176 193.94 574.028 199.564C572.554 199.387 566.401 198.196 565.356 197.324C565.106 195.629 566.487 193.329 566.794 191.082C571.22 185.053 575.747 179.393 580.414 173.547Z" fill="#98F5E1"/>
<path d="M648.918 178.984L650.108 180.118C647.934 182.439 644.847 184.122 642.268 186.16L640.754 185.588C643.61 183.537 645.631 181.14 648.918 178.984Z" fill="#CCE0CC"/>
<path d="M575.098 200.009C579.834 193.785 584.712 187.671 589.73 181.672C592.529 184.121 593.941 185.753 596.396 188.58L581.277 207.38C578.379 205.778 576.841 202.81 575.098 200.009Z" fill="#98F5E1"/>
<path d="M623.145 216.487C634.325 205.524 643.4 195.722 653.976 184.348L654.654 184.959C657.207 187.242 658.071 187.586 660.784 190.355C661.964 190.186 663.141 189.987 664.31 189.757C664.251 191.371 664.019 192.906 664.359 194.442C659.319 192.913 657.159 203.681 651.352 201.061C648.348 202.427 633.884 215.042 631.932 217.895L627.817 222.128C626.124 220.454 624.619 218.38 623.145 216.487Z" fill="#B9FBC0"/>
<path d="M470.574 307.849C477.618 300.517 489.473 281.073 495.716 272.064C515.479 243.548 534.092 212.453 555.128 184.965L560.175 188.171C563.705 186.625 564.167 185.945 567.416 188.096C560.429 197.078 554.576 205.952 548.294 215.372C525.89 248.965 501.246 283.246 480.823 317.954L470.574 307.849Z" fill="#9FF6B8"/>
<path d="M582.869 207.327C587.126 201.583 592.825 194.871 597.378 189.195C601.105 191.486 617.41 210.562 622.415 215.632L605.316 232.19C600.848 225.33 584.848 212.482 582.869 207.327Z" fill="#8EECF5"/>
<path d="M562.333 196.583C563.277 194.896 565.45 192.609 566.793 191.082C566.486 193.329 565.105 195.629 565.355 197.324C566.4 198.196 572.553 199.387 574.027 199.564C560.511 216.81 493.291 310.895 490.345 326.227L489.905 326.541C488.444 325.054 488.12 325.195 487.654 323.47C489.315 319.028 492.972 312.626 495.352 308.322C500.94 298.155 506.863 288.176 513.112 278.4C528.647 253.68 545.067 229.021 560.183 204.206C561.74 201.653 562.167 200.969 563.197 198.158C561.419 200.183 560.854 201.1 559.442 203.42C552.628 213.637 546.262 224.904 539.236 235.26C519.645 264.136 502.246 291.961 485.833 322.787L482.207 319.317C485.014 314.296 487.993 308.612 491.138 303.836C510.172 274.933 528.95 245.837 548.538 217.307C553.23 210.474 557.173 203.125 562.333 196.583Z" fill="#9FF6B8"/>
<path d="M668.759 194.659C669.518 193.782 669.872 193.588 670.801 192.844C670.533 195.641 669.305 194.213 668.805 196.444L671.798 195.803L672.325 196.329C671.422 200.072 663.58 205.19 666.277 210.18C668.341 214 675.763 211.679 678.44 209.821L676.863 211.758C672.262 211.624 673.596 212.109 669.651 213.108C668.468 212.327 668.661 212.477 667.308 211.958C661.519 214.175 660.703 223.78 649.137 229.26C650.926 227.013 655.349 223.469 655.55 221.849C653.84 221.676 654.123 222.04 653.215 221.214C655.09 217.184 663.793 214.59 664.801 209.51C664.277 208.158 664.124 207.928 664.5 206.517C665.697 205.356 667.31 203.89 667.506 202.284C666.478 200.581 667.055 200.751 665.801 200.422C664.143 201.86 663.459 202.354 661.464 203.259C662.81 200.194 666.247 198.096 668.759 194.659Z" fill="#CCE0CC"/>
<path d="M651.351 201.061C657.158 203.681 659.318 192.912 664.358 194.441L667.199 193.812L668.758 194.656C666.246 198.093 662.809 200.191 661.463 203.256C663.393 204.221 664.202 204.134 664.499 206.514C664.123 207.925 664.276 208.155 664.8 209.507C663.792 214.587 655.089 217.181 653.214 221.211C654.122 222.037 653.839 221.673 655.549 221.846C655.348 223.466 650.925 227.01 649.136 229.257C660.702 223.777 661.518 214.171 667.307 211.954C668.66 212.473 668.467 212.324 669.65 213.105C671.311 214.346 671.428 215.038 672.34 217.002L674.36 216.795C678.321 220.285 681.472 217.592 687.39 221.764C676.073 233.096 663.214 244.608 652.432 255.685C647.065 248.702 632.957 228.323 627.826 223.283C629.473 221.132 630.02 220.522 632.037 218.719C633.614 217.584 636.477 214.346 638.543 212.635C639.357 213.557 639.278 213.632 640.439 213.941C644.305 212.265 643.966 208.48 645.911 206.359C648.065 204.011 649.326 204.496 651.351 201.061ZM675.357 221.979C672.192 224.6 657.343 236.926 656.23 239.729L656.7 240.604C659.476 238.544 675.04 224.712 675.775 222.521L675.357 221.979Z" fill="#9FF6B8"/>
<path d="M559.443 203.418C560.855 201.098 561.42 200.181 563.198 198.156C562.168 200.967 561.741 201.651 560.184 204.204L559.443 203.418Z" fill="#174E30"/>
<path d="M678.441 209.82C680.805 207.428 686.378 200.921 688.418 199.688L688.833 199.822C687.074 203.125 677.269 213.584 674.362 216.797L672.342 217.004C673.501 215.356 675.472 213.31 676.864 211.757L678.441 209.82Z" fill="#AA5A46"/>
<path d="M490.346 326.226C491.461 326.437 490.882 326.438 492.081 326.164C492.399 323.638 493.167 321.189 494.346 318.933C496.313 315.16 499.649 310.218 502.007 306.617C525.372 270.935 549.242 233.83 575.098 200.008C576.841 202.809 578.379 205.777 581.277 207.379C574.477 215.691 567.317 224.129 560.891 232.712C548.855 248.788 538.023 265.841 526.659 282.398C516.995 296.75 502.937 317.14 496.361 333.106C494.268 331.049 491.788 328.745 489.906 326.54L490.346 326.226Z" fill="#9FF6B8"/>
<path d="M661.465 203.259C663.46 202.354 664.144 201.86 665.802 200.422C667.056 200.751 666.479 200.581 667.507 202.284C667.311 203.89 665.698 205.356 664.501 206.517C664.204 204.137 663.395 204.224 661.465 203.259Z" fill="#FBF8CC"/>
<path d="M631.932 217.896C633.884 215.043 648.348 202.429 651.352 201.062C649.327 204.497 648.066 204.013 645.912 206.361C643.967 208.482 644.306 212.267 640.44 213.943C639.279 213.634 639.358 213.559 638.544 212.637C636.478 214.348 633.615 217.586 632.038 218.721L631.932 217.896Z" fill="#B3EAB7"/>
<path d="M497.549 334.282C505.814 315.459 516.552 300.076 527.911 283.043C539.6 265.513 551.226 247.955 563.877 231.102C569.997 222.95 576.547 215.317 582.87 207.328C584.849 212.483 600.849 225.331 605.317 232.191C592.808 243.985 580.139 260.683 569.408 274.145C549.531 299.084 531.657 323.605 513.967 350.148C508.425 344.931 502.952 339.642 497.549 334.282Z" fill="#90DBF4"/>
<path d="M669.65 213.106C673.595 212.107 672.261 211.622 676.862 211.756C675.47 213.309 673.499 215.355 672.34 217.003C671.428 215.039 671.311 214.347 669.65 213.106Z" fill="#FBF8CC"/>
<path d="M703.596 237.149C710.403 230.779 719.04 219.625 725.196 212.227C723.895 219.498 709.968 231.364 706.28 236.541L700.576 241.702L699.063 242.976L698.195 242.445L703.596 237.149Z" fill="#CD8E66"/>
<path d="M607.018 232.158C612.271 226.809 617.649 221.585 623.146 216.488C624.62 218.381 626.125 220.455 627.818 222.129L613.875 237.686C611.263 235.737 609.434 234.338 607.018 232.158Z" fill="#8EECF5"/>
<path d="M656.7 240.605L656.23 239.73C657.343 236.927 672.192 224.601 675.357 221.98L675.775 222.523C675.04 224.714 659.476 238.545 656.7 240.605Z" fill="#D7F3FB"/>
<path d="M651.824 257.561C664.22 245.806 675.833 234.857 687.923 222.711C689.645 223.922 691.503 224.862 692.206 226.766C692.107 228.106 692.022 228.054 691.322 229.234C690.298 230.37 689.912 230.552 689.646 232.04C690.155 233.91 690.663 234.226 691.991 235.611C686.454 240.589 677.864 248.486 673.481 254.228L678.187 250.797L680.536 252.189L680.874 253.263C682.208 253.376 682.218 253.29 683.533 252.923L684.479 253.639C687.787 253.55 696.542 245.449 699.062 242.976L700.575 241.702C702.525 243.52 702.466 244.264 703.099 246.956C705.528 248.33 709.277 247.611 709.953 249.979C708.424 252.068 705.643 252.992 703.808 254.899C694.305 262.202 686.292 271.108 677.011 279.034C685.806 275.747 695.245 262.642 704.851 256.355C705.649 257.849 706.628 259.885 707.678 261.125L687.863 280.697C684.142 284.351 679.014 289.12 675.719 292.971C668.683 282.072 659.68 267.504 651.824 257.561Z" fill="#9FF6B8"/>
<path d="M615.537 237.243L627.827 223.285C632.958 228.325 647.066 248.704 652.433 255.687L641.363 266.924C637.858 264.294 633.835 257.617 630.601 253.975C625.608 248.352 620.663 242.762 615.537 237.243Z" fill="#8EECF5"/>
<path d="M691.992 235.609C690.664 234.224 690.155 233.908 689.646 232.038C689.912 230.55 690.299 230.368 691.323 229.232C693.059 229.871 694.386 229.967 696.268 230.747C698.909 230.767 699.501 229.506 701.593 228.059C700.419 232.182 699.465 234.133 703.101 237.159L700.654 237.191C698.671 235.721 701.021 236.301 698.163 233.113L697.414 232.159C696.365 232.971 696.74 232.643 696.081 233.94L695.833 234.079C693.849 234.053 693.586 234.442 691.992 235.609Z" fill="#FBF8CC"/>
<path d="M517.573 353.406C516.518 352.498 516.514 352.572 515.865 351.362C516.068 349.191 525.917 335.217 527.842 332.518C552.572 297.849 577.901 263.234 607.017 232.156C609.433 234.336 611.262 235.735 613.874 237.684C601.876 251.888 588.759 266.555 577.133 280.748C563.275 297.775 550.079 315.33 537.573 333.373C531.721 341.825 527.908 349.455 522.696 357.452C520.145 353.601 520.823 353.787 520.579 349.456C519.109 350.442 518.499 351.853 517.573 353.406Z" fill="#98F5E1"/>
<path d="M695.833 234.08L696.08 233.941C696.739 232.644 696.365 232.972 697.414 232.16L698.162 233.114C698.86 235.569 699.018 234.871 698.485 237.083C697.224 238.843 694.565 239.831 692.497 240.751C691.756 239.768 691.804 239.534 691.361 238.308L695.833 234.08Z" fill="#B9FBC0"/>
<path d="M698.162 233.113C701.02 236.301 698.67 235.721 700.653 237.191L703.1 237.159L703.595 237.147L698.194 242.443C694.44 245.837 691.274 249.042 686.529 250.907C688.03 246.712 692.851 246.426 693.167 241.868L692.275 241.588L692.497 240.75C694.565 239.83 697.224 238.842 698.485 237.082C699.018 234.87 698.86 235.568 698.162 233.113Z" fill="#B3EAB7"/>
<path d="M695.834 234.079L691.362 238.307C687.981 241.572 681.587 248.082 678.188 250.795L673.482 254.226C677.865 248.484 686.455 240.587 691.992 235.609C693.586 234.442 693.85 234.053 695.834 234.079Z" fill="#D7F3FB"/>
<path d="M523.34 359.44C539.204 332.984 557.002 307.738 576.59 283.908C589.359 268.144 602.686 253.183 615.537 237.242C620.663 242.761 625.608 248.351 630.601 253.974C633.835 257.616 637.858 264.293 641.363 266.923C635.792 272.587 630.306 278.334 624.906 284.161C624.357 284.562 623.175 285.345 622.804 285.818C618.326 289.221 603.972 305.29 599.604 309.984C579.481 331.609 561.058 354.968 540.359 376.064C534.633 370.577 528.96 365.036 523.34 359.44Z" fill="#90DBF4"/>
<path d="M700.576 241.7L706.28 236.539C705.648 240.557 701.048 239.218 705.287 244.789C706.491 246.37 708.406 248.05 710.418 248.301C711.718 246.519 711.375 246.323 712.985 245.96C716.823 247.489 716.438 249.424 720.02 248.784C715.967 252.957 711.853 257.07 707.679 261.123C706.629 259.883 705.65 257.847 704.852 256.353L703.809 254.897C705.644 252.99 708.425 252.066 709.954 249.977C709.278 247.609 705.529 248.328 703.1 246.954C702.467 244.262 702.526 243.518 700.576 241.7Z" fill="#FBF8CC"/>
<path d="M678.188 250.797C681.586 248.084 687.981 241.574 691.362 238.309C691.805 239.535 691.756 239.769 692.497 240.752L692.276 241.59C688.076 245.896 684.008 248.72 680.536 252.189L678.188 250.797Z" fill="#B3EAB7"/>
<path d="M745.572 249.031C749.301 245.835 752.802 242.601 757.006 240.062L757.14 240.423C754.088 243.646 749.515 247.615 746.947 250.458L745.572 249.031Z" fill="#D5725C"/>
<path d="M680.537 252.189C684.009 248.72 688.076 245.896 692.276 241.59L693.168 241.87C692.852 246.428 688.031 246.714 686.53 250.909L683.534 252.923C682.219 253.29 682.209 253.376 680.875 253.263L680.537 252.189Z" fill="#98F5E1"/>
<path d="M686.529 250.905C691.274 249.04 694.44 245.835 698.194 242.441L699.062 242.972C696.542 245.445 687.787 253.546 684.479 253.635L683.533 252.919L686.529 250.905Z" fill="#8BCA82"/>
<path d="M735.426 258.068C738.854 255.107 742.237 252.095 745.573 249.031L746.948 250.458C743.289 254.121 739.664 257.818 736.074 261.549C735.016 260.929 735.448 261.351 734.799 260.263L735.426 258.068Z" fill="#F1A594"/>
<path d="M677.012 279.033C686.293 271.107 694.306 262.201 703.809 254.898L704.852 256.354C695.246 262.641 685.807 275.746 677.012 279.033Z" fill="#D7F3FB"/>
<path d="M642.648 267.063C645.426 263.993 648.907 260.577 651.825 257.559C659.681 267.502 668.684 282.07 675.72 292.969L670.984 298.134C665.055 297.14 646.891 272.735 642.648 267.063Z" fill="#8EECF5"/>
<path d="M723.414 263.279C726.338 261.376 729.525 259.264 733.084 258.775C734.531 258.576 733.935 258.787 735.425 258.07L734.798 260.265C735.447 261.353 735.015 260.931 736.073 261.551L735.707 262.385C739.992 266.634 741.589 268.485 744.629 273.58C744.866 273.977 750.289 276.555 752.439 278.795C750.02 281.551 737.256 296.962 734.946 298.571C734.791 294.271 750.749 283.516 749.896 277.902C748.266 275.648 748.266 275.994 745.133 275.472C744.148 274.164 743.701 273.28 742.2 272.653C742.146 272.927 741.864 274.234 741.774 274.347C738.494 278.469 719.312 293.162 715.934 294.164C718.333 291.275 720.992 289.554 723.694 287.024C729.443 281.641 735.406 276.454 741.026 270.942C740.964 268.995 741.315 269.764 740.251 268.44C738.107 268.543 736.865 268.796 735.905 266.629L736.86 264.808L736.432 264.143C733.987 264.011 735.435 265.341 733.037 265.589L732.74 264.969L734.26 263.85L734.05 263.55C731.833 264.106 728.564 266.41 725.981 267.57L725.543 267.763C726.827 266.66 727.23 266.714 727.575 265.379C725.517 264.77 725.018 264.679 723.414 263.279Z" fill="#F4D5E3"/>
<path d="M708.443 273.62C708.015 273.067 708.161 273.398 708.092 272.593C708.466 272.262 722.785 263.535 723.414 263.277C725.018 264.677 725.517 264.768 727.575 265.377C727.23 266.712 726.827 266.658 725.543 267.761C722.841 270.487 719.19 272.258 715.654 273.66C711.997 273.085 712.135 271.957 708.443 273.62Z" fill="#FFCFD2"/>
<path d="M702.92 274.227C702.827 273.895 702.828 273.32 702.807 272.948C705.2 269.212 707.255 267.141 710.657 264.324L710.948 265.002C710.48 267.458 705.032 272.163 702.92 274.227Z" fill="#FFCFD2"/>
<path d="M549.012 384.411C580.788 345.803 607.988 303.897 642.649 267.062C646.892 272.734 665.056 297.14 670.985 298.134C670.364 298.824 667.792 301.776 667.247 302.183C665.262 302.375 663.393 304.541 661.798 306.007C657.566 308.932 646.171 321.004 642.116 325.073C626.522 340.749 611.307 356.799 596.485 373.209C587.176 383.418 578.449 393.651 568.691 403.471C562.445 397.132 555.45 390.623 549.012 384.411Z" fill="#90DBF4"/>
<path d="M774.969 280.001C779.871 276.223 784.889 272.234 789.943 268.688L790.273 268.819C788.089 272.075 779.708 277.743 776.096 280.604L774.969 280.001Z" fill="#29130F"/>
<path d="M715.653 273.661C711.293 274.204 706.584 278.919 704.135 278.162L703.996 277.388C705.267 275.227 706.105 274.583 708.442 273.621C712.134 271.958 711.996 273.086 715.653 273.661Z" fill="#F1C0E8"/>
<path d="M763.552 289.284C767.519 285.67 770.68 283.184 774.968 280.004L776.095 280.606C772.991 283.142 769.58 285.819 766.575 288.43C761.435 292.638 755.966 297.562 750.862 301.554L749.92 301.316C754.241 297.893 759.647 293.094 763.552 289.284Z" fill="#682822"/>
<path d="M746.14 287.939C748.281 284.991 750.131 283.074 752.619 280.418C756.577 283.31 760.091 285.741 763.552 289.282C759.647 293.092 754.241 297.891 749.92 301.314C747.962 302.652 743.689 305.633 742.432 307.52L742.917 307.757C745.26 306.714 749.232 303.512 750.862 301.552C755.966 297.56 761.435 292.636 766.575 288.428C768.134 290.501 768.014 291.088 768.024 293.731C769.637 295.386 770.605 293.411 772.377 295.18C771.521 297.335 766.539 301.71 764.588 303.296L763.439 304.24C754.006 310.398 741.078 320.703 734.286 329.26C737.907 327.243 742.182 322.908 745.521 320.206C751.534 315.339 758.366 309.123 764.554 304.717C765.708 303.913 766.083 303.894 767.418 303.487C769.03 305.696 767.162 305.938 768.526 308.521C772.454 307.864 781.91 301.978 785.841 299.763C786.214 299.932 787.042 300.275 787.352 300.478C779.468 311.439 767.527 320.149 757.864 329.854C756.417 331.233 754.524 332.738 753.77 334.515C755.435 334.325 757.534 332.064 758.831 330.847C761.408 328.246 770.885 321.065 774.641 320.674C772.785 322.849 769.916 324.898 767.633 326.934L768.158 327.235C772.804 325.224 779.941 317.307 782.531 313.147C780.843 308.907 782.647 309.079 785.171 305.025L786.472 304.661C788.946 307.182 793.041 310.704 793.065 314.115C791.858 317.131 784.411 319.901 783.108 323.917C781.509 325.456 780.226 326.508 778.49 327.896C758.722 343.781 741.671 354.763 721.071 369.204C716.629 360.658 706.329 344.813 700.627 337.253C711.271 326.286 721.753 315.164 732.07 303.891C735.933 299.357 741.992 291.948 746.14 287.939ZM736.05 304.348C737.809 303.496 750.082 294.365 752.034 292.864L752.12 292.039L752.603 292.351L752.591 291.847L752.84 292.094L752.967 291.74C750.963 291.981 748.864 293.755 747.092 294.96C744.054 297.286 736.918 299.836 735.69 303.402L736.05 304.348Z" fill="#F9AFD4"/>
<path d="M785.855 298.91C790.093 296.5 802.136 283.935 803.992 283.656L804.658 284.166C803.736 287.164 791.819 297.654 789.01 300.079L787.353 300.479C787.043 300.276 786.215 299.933 785.842 299.764L785.855 298.91Z" fill="#F6B0B8"/>
<path d="M622.805 285.817C623.176 285.344 624.358 284.561 624.907 284.16C622.192 289.981 602.068 312.871 596.821 319.824C586.837 333.052 576.399 346.834 566.372 360.172C562.057 365.911 552.823 378.312 547.975 383.195C545.831 381.157 543.47 378.82 541.256 376.902C562.729 354.611 582.167 330.64 603.153 307.887C605.567 305.269 622.012 287.69 622.805 285.817Z" fill="#F9AFD4"/>
<path d="M747.091 294.962C748.863 293.757 750.962 291.983 752.966 291.742L752.839 292.096L752.59 291.849L752.602 292.353L752.119 292.041L752.033 292.866C750.081 294.367 737.808 303.498 736.049 304.35L735.689 303.404C736.917 299.838 744.053 297.288 747.091 294.962Z" fill="#F4D5E3"/>
<path d="M773.234 298.443C774.81 295.906 775.717 295.01 777.714 292.884L778.559 292.832C780.394 295.711 775.548 301.481 773.667 303.754C774.613 300.882 775.361 300.515 773.234 298.443Z" fill="#FDD0BD"/>
<path d="M792.785 318.296C791.118 319.674 780.686 328.35 779.398 329.035L778.49 327.896C780.226 326.508 781.509 325.456 783.108 323.917C790.53 318.686 799.167 310.616 805.92 304.508C810.071 300.755 816.063 294.592 820.783 291.812C817.84 296.325 797.869 314.023 792.785 318.296Z" fill="#682822"/>
<path d="M675.907 294.609C679.596 298.484 693.236 322.379 696.219 327.896C695.913 327.868 694.654 327.72 694.526 327.607C690.019 323.616 673.776 303.179 671.564 299.281L675.907 294.609Z" fill="#D7F3FB"/>
<path d="M471.348 312.274C465.292 315.269 463.96 316.044 459.209 320.737C455.093 316.764 451.076 312.691 447.16 308.522C450.615 304.714 453.52 301.72 457.173 298.129L471.348 312.274Z" fill="#B9FBC0"/>
<path d="M575.148 409.813C607.715 373.333 639.292 336.026 671.563 299.281C673.775 303.179 690.018 323.616 694.525 327.607C694.653 327.72 695.912 327.868 696.218 327.896C697.376 330.038 698.102 331.391 699.55 333.381C691.371 340.462 682.816 348.718 674.729 356.111C659.563 369.799 644.569 383.675 629.748 397.736C618.822 408.174 607.204 420.147 595.924 429.98C588.918 423.342 581.992 416.619 575.148 409.813Z" fill="#90DBF4"/>
<path d="M767.418 303.489C769.45 303.177 771.68 300.14 773.235 298.445C775.362 300.517 774.614 300.884 773.668 303.756L771.583 303.66C771.661 304.369 771.731 305.078 771.793 305.788C773.942 305.482 782.83 300.301 785.854 298.911L785.841 299.765C781.91 301.98 772.454 307.866 768.526 308.523C767.162 305.94 769.03 305.698 767.418 303.489Z" fill="#FFCFD2"/>
<path d="M787.351 300.478L789.008 300.078C787.417 301.922 786.499 302.997 785.17 305.025C782.646 309.079 780.842 308.907 782.53 313.147C779.94 317.307 772.803 325.224 768.157 327.235L767.632 326.934C769.915 324.898 772.784 322.849 774.64 320.674C770.884 321.065 761.407 328.246 758.83 330.847L757.863 329.854C767.526 320.149 779.467 311.439 787.351 300.478Z" fill="#FFCFD2"/>
<path d="M750.862 301.554C749.232 303.514 745.26 306.716 742.917 307.759L742.432 307.522C743.689 305.635 747.962 302.654 749.92 301.316L750.862 301.554Z" fill="#ED98BE"/>
<path d="M661.796 306.008C663.391 304.542 665.26 302.376 667.245 302.184C637.52 337.896 604.505 373.319 574.264 408.763L569.826 404.488C588.169 385.269 605.675 364.694 624.182 345.256L649.951 318.709C652.67 315.897 659.75 308.851 661.796 306.008Z" fill="#F9AFD4"/>
<path d="M168.77 342.401C168.102 343.623 167.949 344.547 166.685 344.89C165.725 342.873 167.432 334.507 168.078 332.162C170.339 323.964 171.349 310.571 176.156 303.901C177.753 303.786 177.693 303.754 179.234 304.138C184.751 309.355 172.165 335.777 168.77 342.401Z" fill="#FFEDE1"/>
<path d="M734.285 329.262C741.077 320.705 754.005 310.4 763.438 304.242L764.553 304.719C758.365 309.125 751.533 315.341 745.52 320.208C742.181 322.91 737.906 327.245 734.285 329.262Z" fill="#F4D5E3"/>
<path d="M860.982 317.332C871.872 310.069 877.049 303.926 891.03 307.193L891.038 307.282C884.189 310.391 867.83 318.876 860.982 317.332Z" fill="#F1C0E8"/>
<path d="M860.982 317.331C867.83 318.875 884.189 310.39 891.038 307.281C948.805 324.5 975.862 390.064 982.523 445.131C987.521 486.457 985.552 516.6 977.2 557.534C974.251 572.214 970.677 586.762 966.489 601.137C952.314 648.354 925.693 707.314 895.643 746.584C878.881 744.176 857.893 742.714 841.141 744.829C853.52 750.585 877.374 751.835 891.174 752.007C886.682 758.285 881.372 764.912 876.491 770.914C872.828 775.418 868.595 779.518 865.284 784.329L843.434 750.446C842.75 749.401 842.408 748.711 841.38 748.472C839.249 758.098 855.889 780.31 860.378 788.426C855.739 795.871 825.798 820.948 816.713 826.235C811.497 829.271 801.501 834.027 796.913 837.123C790.294 839.507 782.686 843.287 775.754 845.832C765.246 849.689 749.784 852.731 738.566 852.787C719.276 852.884 701.422 848.902 683.415 842.608C635.97 826.025 602.996 793.854 571.13 756.5C558.507 740.79 545.458 725.722 531.853 710.868C511.53 688.679 487.495 670.935 465.914 650.062C460.959 645.27 456.263 640.098 451.311 635.238C455.202 632.729 461.205 630.257 465.563 628.379C501.415 614.889 534.401 617.647 568.407 633.654C584.012 640.999 607.673 654.086 624.308 647.502C628.266 645.935 633.759 642.823 637.587 640.648C646.711 646.972 656.756 651.851 667.368 655.111C696.08 664.177 724.72 660.54 752.249 648.06C761.023 644.082 763.656 639.405 770.14 632.953C783.402 619.756 792.663 604.984 797.758 586.904C806.304 557.54 802.454 530.54 788.333 503.905C793.721 500.04 801.31 495.912 807.16 492.545C811.947 489.789 818.61 485.409 823.357 483.101C832.36 480.769 874.591 459.106 877.967 450.63C884.902 446.012 892.501 441.561 898.543 435.786C907.204 427.508 910.338 418.444 910.558 406.634C910.748 396.448 909.65 385.347 905.355 375.985C899.667 363.585 868.018 331.635 856.952 320.171C858.114 318.991 859.564 318.214 860.982 317.331ZM838.442 689.809C836.693 691.289 836.057 691.633 835.99 694.408C835.684 707.157 834.758 730.538 839.85 741.725C840.928 737.012 842.972 694.28 841.122 690.946C839.97 690.356 839.67 690.167 838.442 689.809ZM885.958 710.362C877.926 714.962 848.473 734.837 844.078 741.769L844.622 742.037L845.167 741.777C851.644 739.139 891.333 718.695 887.595 711.336L885.958 710.362ZM809.37 718.826C808.803 719.653 807.546 721.415 807.969 722.272C811.414 729.254 830.01 742.828 836.23 744.864L836.861 743.764C835.673 739.852 816.959 722.689 812.548 719.376C811.887 718.88 810.283 718.848 809.37 718.826ZM837.767 747.401C829.911 755.069 823.469 781.943 819.811 792.635C818.801 795.589 816.272 802.526 815.893 805.744C815.804 806.506 816.961 808.089 817.485 808.816C819.123 808.455 820.536 808.335 821.352 806.425C828.543 789.59 834.275 765.807 838.195 748.122L837.767 747.401Z" fill="url(#paint1_linear_2247_8824)"/>
<path d="M159.489 348.913C156.192 342.993 143.876 316.852 143.219 311.396C143.615 309.605 144.37 309.11 145.662 307.797C148.531 308.793 148.693 309.373 150.495 311.894C153.83 316.564 161.705 344.73 160.792 348.693L159.489 348.913Z" fill="#FFEDE1"/>
<path d="M457.27 322.022C454.775 326.568 451.546 329.746 448.508 333.764C440.424 344.456 432.67 352.457 423.134 361.754C419.844 357.941 415.323 353.487 411.701 350.074C422.943 336.748 434.29 323.51 445.74 310.363C449.234 314.374 453.436 318.289 457.27 322.022Z" fill="#B9FBC0"/>
<path d="M812.465 328.632C816.136 326.183 830.398 311.85 832.315 311.434C829.51 316.506 819.11 325.853 814.483 330.143C813.713 329.821 813.111 329.416 812.385 328.989L812.465 328.632Z" fill="#F1A594"/>
<path d="M459.209 320.736C463.96 316.043 465.292 315.268 471.348 312.273C491.931 331.669 510.457 350.39 530.495 369.907L628.648 464.914C651.096 486.769 675.07 507.29 697.03 529.752C702.946 535.804 714.93 549.249 717.875 557.453C719.025 560.658 713.301 562.659 710.876 563.418C701.821 558.01 695.25 550.421 687.416 543.28C673.69 530.77 660.519 517.498 647.127 504.605L542.111 402.471L493.202 354.315C482.102 343.316 470.503 331.359 459.209 320.736Z" fill="#90DBF4"/>
<path d="M779.398 329.037C780.686 328.352 791.118 319.675 792.785 318.297C794.367 320.424 796.399 322.993 798.853 324.146C797.637 325.48 795.708 327.331 795.063 328.919L795.492 330.013L797.235 331.32C797.532 331.651 797.31 331.471 798.045 331.608C800.316 330.13 801.024 329.651 802.953 327.774L804.009 327.245C806.203 326.264 810.323 324.157 812.481 324.533C812.646 325.925 811.648 326.779 810.644 327.764C809.483 328.478 808.646 328.776 808.191 330.022C809.808 330.995 810.893 329.911 812.385 328.99C813.111 329.417 813.713 329.822 814.483 330.144L814.448 330.577C811.975 332.742 810.928 334.121 808.857 336.669C810.907 335.62 815.297 332.907 817.031 332.931L817.623 333.452C817.061 336.079 814.288 338.388 812.296 340.122L812.318 340.742C813.576 340.893 813.072 341.051 814.086 340.634L816.566 340.868C815.028 342.114 811.949 344.125 811.648 345.843C808.102 348.309 792.104 357.96 791.033 360.539C793.733 359.917 815.563 345.087 819.68 342.302L819.418 341.231C820.215 340.521 820.896 339.892 821.656 339.142L821.433 338.093C825.893 336.783 827.446 335.49 830.098 339.895C818.307 350.059 806.489 360.081 793.97 369.353C777.909 381.248 762.126 394.459 745.253 405.196L743.371 403.691C738.757 398.56 728.504 381.549 723.299 374.446C742.242 359.549 760.39 343.908 779.398 329.037Z" fill="#F9AFD4"/>
<path d="M423.135 361.755C432.671 352.458 440.425 344.457 448.509 333.765C451.547 329.747 454.776 326.569 457.271 322.023L603.869 465.788C635.497 497.059 667.479 527.97 699.81 558.514C687.409 571.216 675.877 584.311 662.821 596.499C652.062 585.555 641.107 575.51 630.143 564.822L564.179 500.562L423.135 361.755Z" fill="#90DBF4"/>
<path d="M597.221 431.031C617.859 410.679 638.858 390.696 660.207 371.092C671.521 360.903 682.695 350.561 693.727 340.068C699.698 334.441 704.579 330.249 710.264 324.227L711.046 324.346C709.148 327.034 703.085 333.067 700.675 335.655C690.628 346.442 679.896 356.511 669.322 366.765L600.791 434.497L597.221 431.031Z" fill="#F9AFD4"/>
<path d="M798.853 324.145L800.486 325.217C799.252 326.463 796.801 329.083 795.492 330.012L795.062 328.918C795.707 327.33 797.637 325.479 798.853 324.145Z" fill="#FDE4CF"/>
<path d="M795.492 330.015C796.801 329.086 799.252 326.466 800.486 325.22L803.603 324.754L803.868 325.184L803.312 326.673L804.009 327.247L802.953 327.776C800.398 328.341 798.54 328.837 797.235 331.322L795.492 330.015Z" fill="#F6B0B8"/>
<path d="M812.385 328.992C810.893 329.913 809.808 330.997 808.191 330.024C808.646 328.778 809.483 328.48 810.644 327.766L812.465 328.635L812.385 328.992Z" fill="#FFCFD2"/>
<path d="M797.234 331.319C798.539 328.834 800.397 328.338 802.952 327.773C801.023 329.65 800.315 330.129 798.044 331.607C797.309 331.47 797.531 331.65 797.234 331.319Z" fill="#FFCFD2"/>
<path d="M758.831 330.848C757.534 332.065 755.435 334.326 753.77 334.516C754.524 332.739 756.417 331.234 757.864 329.855L758.831 330.848Z" fill="#F4D5E3"/>
<path d="M185.633 345.242C183.982 345.381 183.344 345.616 181.966 344.726C180.889 343.185 181.029 343.979 181.294 342.316C183.594 339.261 200.248 332.446 204.911 330.473C205.148 330.478 206.105 330.476 206.259 330.584C218.047 338.796 190.146 344.332 185.633 345.242Z" fill="#FFEDE1"/>
<path d="M808.857 336.67C810.928 334.122 811.975 332.743 814.448 330.578C816.868 332.113 817.869 332.355 818.977 334.87C818.631 338.806 816.162 338.608 814.086 340.635C813.072 341.052 813.576 340.894 812.318 340.743L812.296 340.123C814.288 338.389 817.061 336.08 817.623 333.453L817.031 332.932C815.297 332.908 810.907 335.621 808.857 336.67Z" fill="#FFCFD2"/>
<path d="M601.998 435.322C611.976 424.505 625.564 412.018 636.377 401.5C658.139 380.433 679.559 359.014 700.627 337.254C706.329 344.814 716.629 360.659 721.071 369.205C700.355 384.257 674.236 404.993 654.912 421.766C647.511 428.276 640.172 434.856 632.895 441.504C629.402 444.654 623.348 450.272 619.615 452.857C613.682 447.073 607.809 441.228 601.998 435.322Z" fill="#90DBF4"/>
<path d="M816.566 340.869C818.579 339.138 818.925 339.002 821.433 338.094L821.656 339.143C820.896 339.893 820.215 340.522 819.418 341.232C816.725 342.928 814.442 344.318 811.648 345.844C811.949 344.126 815.028 342.115 816.566 340.869Z" fill="#ED98BE"/>
<path d="M145.625 349.562C139.456 349.634 126.784 348.604 120.85 346.367C119.138 345.721 118.716 344.796 118.154 343.318C118.659 341.128 118.539 341.779 120.297 339.91C125.224 340.437 144.418 345.431 146.716 349.218L145.625 349.562Z" fill="#FFEDE1"/>
<path d="M811.648 345.842C814.442 344.316 816.725 342.926 819.418 341.23L819.68 342.301C815.563 345.086 793.733 359.916 791.033 360.538C792.104 357.959 808.102 348.308 811.648 345.842Z" fill="#FFCFD2"/>
<path d="M848.623 353.365C851.805 350.905 856.535 344.197 859.585 343.68L859.973 344.445C858.84 346.729 852.963 350.695 850.925 353.146C847.328 355.278 846.835 356.504 844.118 359.577L842.885 357.907C844.915 356.377 846.679 355.028 848.623 353.365Z" fill="#F1A594"/>
<path d="M812.309 356.977C814.043 355.173 823.37 347.303 825.364 345.785C828.658 347.347 828.072 345.319 831.988 346.09C824.676 349.981 820.81 351.621 814.349 357.431L812.309 356.977Z" fill="#F6B0B8"/>
<path d="M831.988 346.09C836.815 348.072 834.912 349.133 837.304 352.551L837.499 352.826C829.489 358.12 819.613 363.873 812.24 368.931L811.956 368.339C813.326 366.751 814.368 365.248 812.857 363.471C811.289 362.752 811.401 362.807 810.516 361.314L814.349 357.431C820.81 351.621 824.676 349.981 831.988 346.09Z" fill="#FDE4CF"/>
<path d="M517.572 353.407C518.498 351.854 519.108 350.443 520.578 349.457C520.822 353.788 520.144 353.602 522.695 357.453L522.433 357.709C520.875 357.206 518.885 354.755 517.572 353.407Z" fill="#8BCA82"/>
<path d="M740.217 357.031L750.55 349.965C748.869 352.145 743.086 356.782 740.768 358.716L740.217 357.031Z" fill="#ED98BE"/>
<path d="M422.271 363.022C420.018 365.206 418.851 366.669 417.128 369.302C413.143 365.314 409.231 361.254 405.393 357.124L410.764 350.879C414.657 355.505 417.983 358.771 422.271 363.022Z" fill="#B9FBC0"/>
<path d="M837.303 352.553C839.695 351.912 845.976 352.876 848.623 353.366C846.679 355.029 844.915 356.378 842.885 357.908C841.257 355.728 840.04 353.474 837.498 352.828L837.303 352.553Z" fill="#FDD0BD"/>
<path d="M812.238 368.933C819.611 363.875 829.487 358.122 837.497 352.828C840.039 353.474 841.256 355.728 842.884 357.908L844.117 359.578C844.907 360.503 845.721 361.5 846.551 362.38C843.806 364.739 828.332 378.439 826.874 380.657C824.256 383.162 808.365 396.382 808.287 397.496C809.932 396.742 823.359 386.944 825.077 385.493C830.096 383.423 835.508 379.634 840.142 376.612C838.812 378.789 837.644 379.822 837.689 382.016C838.842 383.308 839.535 383.826 840.857 384.892C837.715 387.508 834.443 390.05 831.16 392.487C808.813 409.072 786.413 427.028 763.439 442.701L761.758 441.864L763.054 440.598L763.265 440.237C763.278 438.304 747.516 410.235 745.375 406.607C750.23 402.401 759.339 397.007 764.82 392.727C779.829 381.004 797.858 369.069 812.307 356.979L814.347 357.433L810.514 361.316C807.168 363.043 806.73 365.052 805.174 368.525C806.746 367.549 811.823 363.783 812.855 363.473C814.366 365.25 813.324 366.753 811.954 368.341C809.626 369.803 805.493 372.121 804.176 374.401C806.093 374.494 810.822 370.335 812.238 368.933Z" fill="#F9AFD4"/>
<path d="M209.079 365.913C203.106 366.184 170.29 359.289 169.242 354.277L170.057 353.672C181.662 353.649 196.593 357.289 208.149 359.224C210.838 359.674 210.32 363.926 209.079 365.913Z" fill="#FFEDE1"/>
<path d="M844.117 359.576C846.834 356.503 847.327 355.277 850.924 353.145C850.643 353.568 848.035 357.296 847.982 357.182C848.475 358.23 848.601 361.928 846.551 362.378C845.721 361.498 844.907 360.501 844.117 359.576Z" fill="#FDE4CF"/>
<path d="M131.162 378.316C128.886 377.838 129.713 378.401 128.325 377.009C128.115 376.032 127.781 375.318 128.313 374.368C131.016 369.543 147.759 357.219 152.225 355.473C153.832 355.787 154.58 355.773 155.412 357.095C153.799 361.593 136.197 375.68 131.162 378.316Z" fill="#FFEDE1"/>
<path d="M620.871 454.1C658.383 419.049 698.258 386.616 740.216 357.031L740.767 358.716C713.276 380.709 685.96 403.008 659.563 426.321C647.92 436.605 636.933 447.887 625.643 458.626L620.871 454.1Z" fill="url(#paint2_linear_2247_8824)"/>
<path d="M415.659 370.993C406.869 379.538 396.034 388.043 389.664 399.04C385.787 394.938 381.99 390.868 377.938 386.934C385.285 378.173 395.772 367.367 403.63 358.738C407.567 362.894 411.577 366.98 415.659 370.993Z" fill="#B9FBC0"/>
<path d="M188.047 394.015C187.743 394.304 187.106 394.686 186.73 394.935C180.729 394.574 166.067 366.58 164.426 360.328C168.079 362.038 184.235 383.206 187.797 387.37C190.081 390.041 189.414 391.155 188.047 394.015Z" fill="#FFEDE1"/>
<path d="M805.176 368.525C806.732 365.052 807.17 363.043 810.516 361.316C811.401 362.809 811.289 362.754 812.857 363.473C811.825 363.783 806.748 367.549 805.176 368.525Z" fill="#FFCFD2"/>
<path d="M417.129 369.303C418.852 366.67 420.019 365.207 422.272 363.023L598.271 535.398C619.642 556.242 640.207 576.878 662.033 597.345C659.794 599.674 657.334 602.348 655.035 604.567C641.43 591.13 627.983 578.517 614.415 565.291L481.233 434.394C460.259 413.441 437.259 390.812 417.129 369.303Z" fill="#98F5E1"/>
<path d="M142.982 398.093C142.391 397.389 141.376 396.149 141.667 395.269C143.966 388.326 156.129 370.392 161.383 366.516C164.344 369.731 150.643 392.864 147.46 396.346C145.649 398.326 145.393 397.959 142.982 398.093Z" fill="#FFEDE1"/>
<path d="M812.24 368.932C810.824 370.334 806.095 374.493 804.178 374.4C805.495 372.12 809.628 369.802 811.956 368.34L812.24 368.932Z" fill="#F1C0E8"/>
<path d="M389.664 399.039C396.034 388.042 406.869 379.537 415.659 370.992C437.623 393.798 459.86 416.34 482.365 438.612C515.548 471.805 548.999 504.729 582.713 537.381L632.576 585.768C638.492 591.437 647.765 601.079 653.76 605.921C650.854 609.109 635.456 624.563 633.765 627.365L630.485 627.091C628.089 626.679 626.962 626.704 624.496 626.683C621.963 624.82 618.798 621.959 616.448 619.818C596.164 601.337 575.303 583.464 555.099 564.905C514.849 527.933 471.107 494.634 435.582 452.783C429.069 445.111 422.953 437.059 416.478 429.352C407.735 419.124 398.65 409.062 389.664 399.039ZM409.981 392.021C405.539 394.223 402.844 398.08 405.244 403.037C406.107 404.812 407.658 406.157 409.537 406.761C411.286 407.305 412.32 407.022 414.064 406.678C424.245 401.143 420.504 391.036 409.981 392.021ZM600.755 572.524C588.394 576.09 589.589 590.238 603.057 590.739C606.096 589.618 608.386 588.58 609.888 585.46C610.899 583.393 611.027 581.004 610.242 578.841C609.404 576.472 607.31 574.431 605.006 573.485C603.65 572.936 602.215 572.611 600.755 572.524Z" fill="#98F5E1"/>
<path d="M871.92 387.505C873.818 385.026 884.679 373.515 887.339 373.051C887.026 375.676 875.866 385.474 873.008 388.606L871.92 387.505Z" fill="#F1A594"/>
<path d="M626.816 459.976C659.099 427.532 688.026 403.345 723.299 374.445C728.504 381.548 738.757 398.559 743.371 403.69C741.885 404.671 737.704 407.099 736.864 408.148C732.007 410.468 725.279 415.756 720.843 418.923C694.67 437.612 667.33 454.885 641.335 473.778C636.432 469.244 631.592 464.643 626.816 459.976Z" fill="#90DBF4"/>
<path d="M765.291 443.049L801.777 416.475C803.971 414.851 806.161 413.178 808.302 411.483C824.244 398.862 840.667 386.948 856.628 374.348C861.424 376.318 870.546 382.295 871.92 387.505L873.008 388.606L872.329 390.194C868.716 395.657 867.342 395.732 862.983 399.883C866.795 398.67 873.53 398.021 874.812 394.636L875.354 394.984L875.082 397.504L875.707 398.049L877.942 397.523C878.761 396.124 878.198 396.069 878.599 395.296C878.963 396.359 880.266 399.883 880.306 400.741C884.949 399.825 890.629 390.851 893.203 391.613C893.163 393.737 883.632 402.251 881.397 403.758C879.444 404.327 879.106 405.663 877.05 407.026C875.369 407.648 869.933 412.18 869.437 414.234L870.119 415.569C869.356 416.613 869.26 417.12 868.249 417.572L867.38 416.246C865.709 418.774 866.048 418.474 863.463 420.357C860.616 421.567 857.824 423.202 855.19 424.836C844.699 431.347 833.799 437.51 823.644 444.523L823.554 444.984C826.47 443.962 833.989 438.922 837.117 436.995L855.638 425.771C857.342 424.723 861.867 421.744 863.489 421.135C867.346 421.266 874.487 414.129 877.358 415.209C877.462 416.696 877.282 416.682 876.511 418.019C872.877 420.545 867.371 422.872 864.469 425.14L864.859 425.751L784.828 473.386L778.819 465.245C802.114 449.154 826.426 434.267 849.756 418.185C852.426 416.344 855.325 414.301 858.121 412.72L858.022 412.274C851.908 415.136 835.643 426.428 829.463 430.514C812.348 441.604 795.313 452.816 778.359 464.149C774.657 457.616 769.855 448.677 765.291 443.049ZM861.848 399.537C859.595 401.061 856.673 402.846 854.813 404.738L855.144 404.973C856.733 404.344 857.037 403.891 858.333 403.281C860.955 400.652 861.578 401.36 865.145 401.61C864.184 400.263 863.593 400.346 861.848 399.537ZM852.627 405.544C847.678 409.154 842.735 412.501 837.642 415.891C834.579 417.93 831.979 421.093 828.767 422.995C824.6 425.546 820.177 426.764 816.331 429.852L816.248 430.76L816.854 431.096C827.972 425.604 834.899 422.282 843.581 413.302C845.827 410.979 850.685 408.619 853.36 406.147L853.097 405.6L852.627 405.544Z" fill="#F9AFD4"/>
<path d="M825.077 385.492C823.359 386.943 809.932 396.741 808.287 397.495C808.365 396.381 824.256 383.161 826.874 380.656C827.253 382.526 826.22 383.435 825.077 385.492Z" fill="#F4D5E3"/>
<path d="M862.982 399.88C867.341 395.729 868.715 395.654 872.328 390.191C875.682 390.775 876.173 391.836 878.174 394.682L878.598 395.293C878.197 396.066 878.76 396.121 877.941 397.52L875.706 398.046L875.081 397.501L875.353 394.981L874.811 394.633C873.529 398.018 866.794 398.667 862.982 399.88Z" fill="#FFCFD2"/>
<path d="M414.063 406.681C412.319 407.025 411.285 407.308 409.536 406.764C407.657 406.16 406.106 404.815 405.243 403.04C402.843 398.083 405.538 394.226 409.98 392.024C420.503 391.039 424.244 401.146 414.063 406.681ZM410.504 393.983C403.916 398.459 406.04 405.871 413.569 404.657C420.947 400.177 418.503 393.771 410.504 393.983Z" fill="#0B0B0A"/>
<path d="M374.719 405.835C376.276 399.751 377.169 398.205 380.725 392.957C383.271 396.402 386.68 399.455 389.649 402.574C387.952 406.235 386.613 408.9 385.535 412.776C382.908 412.532 379.108 411.322 376.988 409.777C374.773 408.162 375.096 408.095 374.719 405.835Z" fill="#98F5E1"/>
<path d="M413.569 404.656C406.04 405.87 403.916 398.458 410.504 393.982C418.503 393.77 420.947 400.176 413.569 404.656Z" fill="#98F5E1"/>
<path d="M888.926 411.12C892.768 408.735 904.19 398.882 905.717 399.178C903.626 403.008 895.492 408.652 891.74 411.227L889.452 412.468L888.912 411.565L888.926 411.12Z" fill="#682822"/>
<path d="M858.333 403.279C857.037 403.889 856.732 404.342 855.143 404.971L854.812 404.736C856.673 402.844 859.595 401.059 861.848 399.535C863.593 400.344 864.184 400.261 865.145 401.608C861.578 401.358 860.955 400.65 858.333 403.279Z" fill="#ED98BE"/>
<path d="M313.609 472.368C314.935 445.998 328.184 420.636 352.129 407.548C359.248 403.657 364.967 403.58 372.935 403.851C370.607 420.32 374.896 429.615 380.531 444.641C386.095 459.478 393.594 476.033 396.874 491.377C402.41 517.272 397.017 556.695 384.218 580.319L383.841 580.391L372.163 571.925C365.614 565.046 353.793 556.66 346.329 549.029C330.311 532.653 318.403 515.126 314.474 492.047C313.458 486.074 313.587 478.455 313.609 472.368Z" fill="#9FF6B8"/>
<path d="M877.05 407.026C879.106 405.663 879.444 404.327 881.397 403.758L881.403 404.702C882.355 404.974 885.08 404.703 885.884 406.045C886.94 407.81 885.971 408.926 887.684 410.733L888.926 411.12L888.912 411.565C884.268 414.348 869.085 424.288 864.859 425.751L864.469 425.14C867.371 422.872 872.877 420.545 876.511 418.019C877.282 416.682 877.462 416.696 877.358 415.209C874.487 414.129 867.346 421.266 863.489 421.135L863.463 420.357C866.048 418.474 865.709 418.774 867.38 416.246L868.249 417.572C869.26 417.12 869.356 416.613 870.119 415.569L869.437 414.234C869.933 412.18 875.369 407.648 877.05 407.026ZM882.123 413.554L883.49 411.019C884.359 409.435 884.806 409.157 884.565 407.339C882.226 404.699 879.481 407.763 877.679 409.516C876.564 410.634 875.522 411.691 874.451 412.851C876.164 413.481 880.121 413.469 882.123 413.554Z" fill="#FFCFD2"/>
<path d="M736.863 408.149C737.703 407.1 741.884 404.672 743.37 403.691L745.252 405.196L738.972 409.555L736.863 408.149Z" fill="#ED98BE"/>
<path d="M386.707 428.5C384.745 419.013 386.4 412.261 391.149 403.977C399.768 413.338 408.168 422.898 416.345 432.648C423.166 440.854 429.726 449.352 436.7 457.409C468.783 494.471 507.057 524.723 543.443 557.238C569.292 580.337 594.853 603.899 620.695 627.035C593.609 632.517 586.926 624.691 562.742 614.603C518.894 596.313 479.966 601.314 439.097 623.725L438.62 623.9C424.585 613.723 408.359 599.864 394.726 588.754L394.843 588.382C397.878 581.718 400.525 574.884 402.772 567.915C410.654 543.125 414.22 505.387 408.065 479.997C405.697 470.226 401.524 461.797 396.936 452.989C392.63 443.273 390.039 439.359 386.707 428.5ZM406.991 431.868C405.906 433.784 406.005 432.866 406.082 434.678C407.262 435.765 407.202 435.685 408.72 436.251C409.184 434.05 409.097 433.136 406.991 431.868Z" fill="#90DBF4"/>
<path d="M816.854 431.095L816.248 430.759L816.331 429.851C820.177 426.763 824.6 425.545 828.767 422.994C831.979 421.092 834.579 417.929 837.642 415.89C842.735 412.5 847.678 409.153 852.627 405.543L853.097 405.599L853.36 406.146C850.685 408.618 845.827 410.978 843.581 413.301C834.899 422.281 827.972 425.603 816.854 431.095Z" fill="#F4D5E3"/>
<path d="M386.316 581.339C397.789 550.606 405.189 521.168 397.841 487.824C394.927 474.603 387.69 458.236 383.091 445.498C377.409 429.759 373.265 422.742 374.719 405.836C375.096 408.096 374.773 408.163 376.988 409.778C379.108 411.323 382.908 412.533 385.535 412.777C384.021 419.051 384.019 423.143 384.78 429.556C387.722 439.446 390.528 445.594 395.64 454.684C400.063 463.096 404.148 471.355 406.359 480.698C411.773 503.575 409.615 527.74 405.383 550.634C402.928 563.913 398.827 574.863 393.399 587.039L386.413 581.656L386.316 581.339Z" fill="url(#paint3_linear_2247_8824)"/>
<path d="M877.679 409.516C879.481 407.763 882.226 404.699 884.565 407.339C884.806 409.157 884.359 409.435 883.49 411.019L882.123 413.554C880.121 413.469 876.164 413.481 874.451 412.851C875.522 411.691 876.564 410.634 877.679 409.516Z" fill="#F6B0B8"/>
<path d="M647.793 479.222C652.258 475.583 656.847 472.199 661.493 468.799C689.575 448.249 717.461 427.373 745.376 406.605C747.517 410.233 763.279 438.302 763.266 440.235L763.055 440.596C744.053 449.876 724.081 463.989 706.215 475.474C693.958 483.354 681.289 491.644 669.252 499.84C664.756 494.659 653.209 484.382 647.793 479.222Z" fill="#90DBF4"/>
<path d="M736.863 408.148L738.972 409.554C725.432 418.892 711.035 430.799 697.679 440.713C681.138 452.991 662.778 465.462 646.794 478.22L642.814 474.725C645.024 472.713 647.829 470.716 650.288 468.963C675.658 450.878 702.084 434.338 727 415.602C730.066 413.296 734.269 410.873 736.863 408.148Z" fill="#F9AFD4"/>
<path d="M889.451 412.468L891.739 411.227C891.788 412.511 891.827 415.713 892.032 416.822C892.006 421.394 890.095 421.847 890.48 426.696C888.496 426.155 888.543 426.233 886.938 425.003L886.155 424.02C883.476 424.288 882.247 425.917 880.516 427.925C878.228 428.576 877.882 428.532 876.309 430.173C875.405 430.693 875.68 430.411 875.323 430.826C872.486 432.266 870.352 433.827 867.653 435.381C857.304 441.338 846.589 446.55 836.293 452.626C820.674 461.843 805.377 471.401 789.638 480.419C788.638 478.318 787.202 476.43 785.867 474.51C806.13 461.953 826.549 449.65 847.12 437.604C861.896 428.992 875.137 422 889.451 412.468Z" fill="url(#paint4_linear_2247_8824)"/>
<path d="M892.034 416.82C893.934 422.22 891.24 420.871 891.63 425.888C894.524 427.172 893.736 425.594 895.344 427.51C895.266 431.588 886.331 438.088 886.151 441.453C890.026 441.614 899.367 430.456 901.544 430.035C898.591 435.165 890.539 440.838 885.542 443.792L885.964 442.492C883.271 440.225 888.39 435.991 889.977 434.306C890.437 433.861 890.486 433.596 890.802 432.993C890.431 430.414 890.432 429.315 890.482 426.694C890.097 421.845 892.008 421.392 892.034 416.82Z" fill="#FDE4CF"/>
<path d="M863.49 421.133C861.868 421.742 857.343 424.721 855.639 425.769L837.118 436.993C833.99 438.92 826.471 443.96 823.555 444.982L823.645 444.521C833.8 437.508 844.7 431.345 855.191 424.834C857.825 423.2 860.617 421.565 863.464 420.355L863.49 421.133Z" fill="#805B67"/>
<path d="M886.94 425.003C885.278 426.208 883.555 427.423 881.93 428.67L881.437 428.745L880.518 427.925C882.249 425.917 883.478 424.288 886.157 424.02L886.94 425.003Z" fill="#FFCFD2"/>
<path d="M881.93 428.671C883.555 427.424 885.278 426.209 886.94 425.004C888.545 426.234 888.498 426.156 890.482 426.697C890.432 429.318 890.431 430.417 890.802 432.996C890.486 433.599 890.438 433.864 889.978 434.309L889.565 432.517C885.739 433.542 882.569 438.6 878.999 439.908L878.244 439.284C879.701 437.469 880.136 437.617 880.041 435.902C878.921 435.116 877.807 434.322 876.7 433.518L878.597 431.526C877.482 430.621 877.655 430.807 876.311 430.174C877.884 428.533 878.23 428.577 880.518 427.926L881.437 428.746L881.93 428.671C882.038 429.67 881.643 430.006 881.742 431.27L883.554 431.237C884.502 430.348 884.559 430.219 885.296 429.131C884.205 428.303 883.682 428.647 881.93 428.671Z" fill="url(#paint5_linear_2247_8824)"/>
<path d="M881.929 428.669C883.681 428.645 884.204 428.301 885.295 429.129C884.558 430.217 884.501 430.346 883.553 431.235L881.741 431.268C881.642 430.004 882.037 429.668 881.929 428.669Z" fill="#ED98BE"/>
<path d="M384.779 429.555L386.706 428.5C390.038 439.359 392.629 443.273 396.935 452.989L395.639 454.683C390.527 445.593 387.721 439.445 384.779 429.555Z" fill="#174E30"/>
<path d="M875.324 430.825C875.681 430.41 875.406 430.692 876.31 430.172C877.654 430.805 877.481 430.619 878.596 431.524L876.699 433.516L872.904 435.14L872.991 435.383C871.097 436.71 870.968 436.986 869.523 438.861C868.22 440.126 867.397 440.959 866.224 442.34C865.239 440.45 865.151 440.416 863.381 439.141C864.389 438.114 870.429 434.171 871.792 433.584C873.458 432.085 873.706 432.919 875.324 430.825Z" fill="#ED98BE"/>
<path d="M408.721 436.25C407.203 435.684 407.263 435.764 406.083 434.677C406.006 432.865 405.907 433.783 406.992 431.867C409.098 433.135 409.185 434.049 408.721 436.25Z" fill="#8EECF5"/>
<path d="M878.999 439.907C882.569 438.599 885.739 433.541 889.565 432.516L889.978 434.308C888.391 435.993 883.272 440.227 885.965 442.494L885.542 443.794C875.628 451.545 852.064 464.137 840.621 470.612C826.477 478.616 812.038 487.312 797.943 495.23C795.365 490.645 792.723 486.097 790.018 481.586C794.085 478.833 803.27 474.393 808.255 471.28C825.685 460.394 844.989 448.257 863.382 439.142C865.152 440.417 865.24 440.451 866.225 442.341C864.81 443.484 862.703 445.08 861.469 446.323L860.825 446.692C857.921 448.307 850.601 452.154 848.531 454.243L848.284 454.461C846.961 455.524 846.474 456.172 844.802 456.181L844.22 455.801L843.819 454.899C841.223 455.44 836.932 457.307 835.87 459.876C836.852 460.3 836.582 460.233 836.925 460.285L837.096 461.449C835.275 463.633 831.442 465.264 831.24 467.378C832.812 467.534 832.301 467.475 833.947 466.988L834.217 467.138C843.996 465.743 869.638 446.103 878.999 439.907Z" fill="#F9AFD4"/>
<path d="M872.905 435.14L876.7 433.516C877.807 434.32 878.921 435.114 880.041 435.9C880.136 437.615 879.701 437.467 878.244 439.282C876.077 440.877 874 442.537 871.619 443.773C865.923 444.34 865.918 447.945 861.469 446.322C862.703 445.079 864.81 443.483 866.225 442.34C867.398 440.959 868.221 440.126 869.524 438.861C871.496 438.708 873.078 437.418 872.992 435.383L872.905 435.14Z" fill="#F6B0B8"/>
<path d="M869.523 438.861C870.968 436.986 871.097 436.71 872.991 435.383C873.077 437.418 871.495 438.708 869.523 438.861Z" fill="#FFCFD2"/>
<path d="M871.617 443.772C873.998 442.536 876.075 440.876 878.242 439.281L878.997 439.905C869.636 446.101 843.994 465.741 834.215 467.136L833.945 466.986C836.288 465.458 837.136 465.726 839.994 463.502L839.805 462.433C840.395 460.88 840.975 460.956 842.706 459.821C842.395 459.864 847.029 458.18 848.201 457.893C852.524 457.79 868.657 446.97 871.617 443.772Z" fill="#A87F8C"/>
<path d="M670.006 500.709C700.873 481.766 729.54 460.388 761.76 441.863L763.441 442.7C736.572 463.149 702.32 486.773 674.115 504.809L670.006 500.709Z" fill="#F9AFD4"/>
<path d="M675.605 505.899C685.672 498.534 698.749 490.402 709.342 483.14C728.289 470.197 746.944 456.829 765.29 443.047C769.854 448.675 774.656 457.614 778.358 464.147C748.172 482.427 725.267 505.577 693.284 522.647C687.603 516.951 681.505 511.393 675.605 505.899Z" fill="#90DBF4"/>
<path d="M861.467 446.322C865.916 447.945 865.921 444.34 871.617 443.773C868.657 446.971 852.524 457.791 848.201 457.894C848.92 456.712 849.431 456.118 849.554 454.737L848.282 454.46L848.529 454.242C850.92 453.827 860.326 448.954 860.823 446.691L861.467 446.322Z" fill="#FFCFD2"/>
<path d="M848.529 454.242C850.599 452.153 857.919 448.306 860.823 446.691C860.326 448.954 850.92 453.827 848.529 454.242Z" fill="#805B67"/>
<path d="M823.357 483.1C824.589 480.342 840.119 472.317 843.591 470.349L877.967 450.629C874.591 459.105 832.36 480.768 823.357 483.1Z" fill="#ED98BE"/>
<path d="M395.639 454.682L396.935 452.988C401.523 461.796 405.696 470.225 408.064 479.996C414.219 505.386 410.653 543.124 402.771 567.914C400.524 574.883 397.877 581.717 394.842 588.381L393.445 587.381L393.398 587.037C398.826 574.861 402.927 563.911 405.382 550.632C409.614 527.738 411.772 503.573 406.358 480.696C404.147 471.353 400.062 463.094 395.639 454.682Z" fill="#0B0B0A"/>
<path d="M844.219 455.8L840.454 458.493C839.393 459.072 838.024 459.909 836.924 460.284C836.581 460.232 836.851 460.299 835.869 459.875C836.931 457.306 841.222 455.439 843.818 454.898L844.219 455.8Z" fill="#FFEDE1"/>
<path d="M848.282 454.461L849.554 454.738C849.431 456.119 848.92 456.713 848.201 457.895C847.029 458.182 842.395 459.866 842.706 459.823L840.453 458.494L844.218 455.801L844.8 456.181C846.472 456.172 846.959 455.524 848.282 454.461Z" fill="#F1C0E8"/>
<path d="M836.923 460.283C838.023 459.908 839.392 459.071 840.453 458.492L842.706 459.821C840.975 460.956 840.395 460.88 839.805 462.433L839.994 463.502C837.136 465.726 836.288 465.458 833.945 466.986C832.299 467.473 832.81 467.532 831.238 467.376C831.44 465.262 835.273 463.631 837.094 461.447L836.923 460.283Z" fill="#F4D5E3"/>
<path d="M81.6738 529.199C87.0194 511.281 90.4334 502.047 106.431 490.126C147.677 459.392 211.006 463.63 259.45 467.093C277.102 468.355 296.316 470.045 313.609 472.365C313.587 478.452 313.458 486.071 314.474 492.044C318.403 515.123 330.311 532.65 346.329 549.026C353.793 556.657 365.614 565.043 372.163 571.922C360.88 572.515 349.433 570.242 338.055 572.742C324.092 575.809 311.091 582.708 297.731 587.563C263.167 600.124 219.571 602.491 183.642 594.315C148.754 586.28 117.047 568.04 92.5628 541.919C89.9853 539.121 83.5676 532.225 81.6738 529.199Z" fill="#CCE0CC"/>
<path d="M784.828 473.383C773.101 480.791 760.532 486.168 748.486 493.029C740.416 497.646 732.396 502.349 724.426 507.137C721.338 509.022 711.587 515.495 708.693 516.263L708.586 516.483C732.21 499.962 754.299 481.309 778.819 465.242L784.828 473.383Z" fill="#90DBF4"/>
<path d="M693.4 523.008C696.417 522.215 701.966 521.721 704.553 520.368C713.085 515.907 721.524 510.546 729.739 505.499C748.066 494.242 767.401 485.444 785.868 474.508C787.203 476.428 788.639 478.316 789.639 480.417C779.097 487.253 769.202 491.839 758.686 498.089C739.81 509.307 720.217 520.124 701.518 531.531C699.079 528.742 696.009 525.708 693.4 523.008Z" fill="#90DBF4"/>
<path d="M780.557 487.496C783.283 485.992 787.272 483.306 790.018 481.586C792.723 486.097 795.365 490.645 797.943 495.23C794.499 497.332 791.017 499.369 787.498 501.341C784.887 497.475 780.826 492.08 780.557 487.496Z" fill="#90DBF4"/>
<path d="M702.715 532.767C712.196 526.36 721.404 521.516 731.284 515.818L780.556 487.496C780.825 492.08 784.886 497.475 787.497 501.341C778.93 506.172 769.797 510.146 761.617 514.824C745.733 523.909 728.553 535.148 714.378 546.606C710.53 542.311 706.132 537.348 702.715 532.767Z" fill="#90DBF4"/>
<path d="M775.172 509.061C778.467 507.282 782.849 504.737 786.265 503.492C785.024 505.232 778.153 509.011 776.129 510.186L775.172 509.061Z" fill="#CFBAF0"/>
<path d="M717.227 549.699C723.23 546.374 735.084 537.854 741.353 533.712C756.855 523.53 772.518 513.593 788.334 503.906C802.455 530.541 806.305 557.541 797.759 586.905C792.664 604.985 783.403 619.757 770.141 632.954C763.657 639.406 761.024 644.083 752.25 648.061C724.721 660.541 696.081 664.178 667.369 655.112C656.757 651.852 646.712 646.973 637.588 640.649C662.8 617.058 686.776 589.748 711.498 566.256C723.189 564.238 722.35 558.323 717.227 549.699Z" fill="#A3C4F3"/>
<path d="M713.418 549.42C717.106 545.421 725.298 539.808 729.955 536.61C744.44 526.496 759.542 517.294 775.171 509.059L776.128 510.184C763.602 517.572 751.246 525.245 739.069 533.195C733.137 537.08 718.811 547.083 713.418 549.42Z" fill="#A3C4F3"/>
<path d="M663.85 597.236C675.987 586.293 689.301 571.364 700.54 559.422C703.625 561.89 705.695 563.451 708.999 565.587L671.887 603.551L671.107 603.748C669.141 602.567 665.649 598.973 663.85 597.236Z" fill="#90DBF4"/>
<path d="M603.057 590.742C589.589 590.241 588.394 576.093 600.755 572.527C602.215 572.614 603.65 572.939 605.006 573.488C607.31 574.434 609.404 576.475 610.242 578.844C611.027 581.007 610.899 583.396 609.888 585.463C608.386 588.583 606.096 589.621 603.057 590.742ZM599.354 574.802C595.629 576.04 593.596 580.047 594.797 583.784C595.998 587.521 599.985 589.593 603.734 588.429C607.535 587.248 609.642 583.193 608.424 579.404C607.206 575.615 603.131 573.547 599.354 574.802Z" fill="#0B0B0A"/>
<path d="M603.733 588.428C599.984 589.592 595.997 587.52 594.796 583.783C593.595 580.046 595.628 576.039 599.353 574.801C603.13 573.546 607.205 575.614 608.423 579.403C609.641 583.192 607.534 587.247 603.733 588.428Z" fill="#98F5E1"/>
<path d="M383.84 580.388L384.217 580.316L386.316 581.337L386.413 581.654C364.447 627.614 326.351 655.057 287.072 685.019C278.286 691.721 267.731 697.825 259.879 705.52C212.24 742.72 129.142 809.584 117.929 873.985C116.362 882.986 117.394 895.585 123.576 902.656C128.311 908.072 134.974 910.649 142.058 911.1C173.949 913.131 213.5 886.483 236.641 866.397C267.442 839.662 294.351 805.274 319.888 773.537C323.223 769.392 334.961 755.044 337.042 751.217L338.113 749.448C345.975 738.863 355.031 728.862 362.885 718.431C386.014 687.715 414.229 653.527 448.393 634.273L449.555 636.262C439.045 643.198 430.871 648.659 421.393 656.954C400.319 675.399 384.179 696.514 367.039 718.371C358.223 729.596 349.239 740.687 340.09 751.643C323.413 772.479 307.427 796.128 290.897 816.071C256.921 855.499 217.241 897.134 165.674 911.764C147.244 917.066 120.826 916.023 115.827 892.804C109.607 863.911 128.772 830.85 145.771 808.679C178.528 766.777 220.785 728.8 263.32 697.107C303.381 667.258 341.9 641.162 371.673 600C375.851 594.223 380.064 586.605 383.84 580.388Z" fill="#AA5A46"/>
<path d="M259.879 705.522C267.731 697.827 278.286 691.723 287.072 685.021C326.351 655.059 364.447 627.616 386.413 581.656L393.399 587.039L393.446 587.383C368.084 629.047 337.132 663.168 297.981 691.898C290.395 697.465 282.891 704.852 275.446 710.185C272.742 705.824 266.231 709.914 259.879 705.522Z" fill="#FBF8CC"/>
<path d="M275.446 710.185C282.891 704.852 290.395 697.465 297.981 691.898C337.132 663.168 368.084 629.047 393.446 587.383L394.843 588.383L394.726 588.755C386.041 604.589 374.676 618.99 363.491 633.208C344.724 657.063 321.204 676.549 297.338 695.083C291.821 699.368 286.346 703.544 281.109 708.079C297.083 715.429 313.226 725.724 324.627 739.319C339.367 719.205 354.886 699.674 371.15 680.771C386.905 662.683 402.191 647.299 422.378 634.024C427.711 630.517 433.263 627.376 438.62 623.901L439.097 623.726L440.586 624.669L440.549 624.823C388.484 654.193 361.765 696.588 325.438 741.175C281.833 797.643 245.858 857.833 177.609 887.961C128.846 909.486 129.179 862.83 150.868 833.71C185.483 787.233 232.335 747.524 275.446 710.185ZM279.574 709.468C262.62 722.355 245.37 738.233 229.671 752.675C203.736 776.531 177.463 801.457 156.219 829.61C146.908 842.121 131.303 868.981 142.697 884.196C151.078 895.39 167.895 890.494 178.674 885.488C224.035 862.985 257.657 830.578 286.823 789.854C298.76 773.188 311.797 757.25 323.686 740.451C309.59 726.133 297.993 717.791 279.574 709.468Z" fill="#AA5A46"/>
<path d="M394.726 588.754C408.359 599.864 424.585 613.723 438.62 623.9C433.263 627.375 427.711 630.516 422.378 634.023C402.191 647.298 386.905 662.682 371.15 680.77C354.886 699.673 339.367 719.204 324.627 739.318C313.226 725.723 297.083 715.428 281.109 708.078C286.346 703.543 291.821 699.367 297.338 695.082C321.204 676.548 344.724 657.062 363.491 633.207C374.676 618.989 386.041 604.588 394.726 588.754Z" fill="#FBF8CC"/>
<path d="M655.816 605.121C658.113 602.967 660.32 600.572 662.502 598.289C663.283 598.687 668.921 603.751 670.235 604.841L663.398 612.196C662.662 611.91 656.746 606.003 655.816 605.121Z" fill="#90DBF4"/>
<path d="M440.586 624.669C473.474 607.084 508.636 599.272 545.344 610.262C552.789 612.512 560.069 615.276 567.131 618.535C587.712 628.091 598.645 634.943 622.195 628.284C626.624 632.335 630.419 635.81 635.142 639.52C624.398 646.103 615.061 649.635 602.665 645.966C579.468 639.099 559.103 624.338 534.727 620.121C513.193 616.397 484.016 617.928 464.164 627.086C459.952 628.332 455.059 630.755 451.128 632.764C448.102 629.995 443.959 627.197 440.549 624.823L440.586 624.669Z" fill="#A3C4F3"/>
<path d="M630.486 627.093L633.766 627.367C637.925 625.351 650.567 610.982 654.63 606.582C656.858 608.601 660.062 611.346 662.072 613.447C656.695 619.089 642.964 634.021 637.562 638.131C635.219 636.169 632.235 633.813 630.02 631.797C630.96 630.601 631.301 630.38 631.659 628.904L630.486 627.093Z" fill="#A3C4F3"/>
<path d="M325.438 741.172C361.764 696.585 388.484 654.19 440.549 624.82C443.959 627.194 448.102 629.992 451.128 632.761L448.393 634.272C414.229 653.526 386.014 687.714 362.885 718.43C355.031 728.861 345.975 738.862 338.113 749.447C335.158 747.073 335.105 746.073 331.034 745.827C329.611 745.21 326.688 742.338 325.438 741.172Z" fill="#FBF8CC"/>
<path d="M624.496 626.684C626.962 626.705 628.089 626.68 630.485 627.092L631.658 628.903C631.3 630.379 630.959 630.6 630.019 631.796C628.096 630.21 626.298 628.413 624.496 626.684Z" fill="#D7F3FB"/>
<path d="M451.128 632.764C455.059 630.755 459.952 628.332 464.164 627.086C464.769 628.294 464.347 627.834 465.563 628.38C461.205 630.258 455.202 632.73 451.311 635.239L449.555 636.264L448.393 634.275L451.128 632.764Z" fill="#581526"/>
<path d="M449.555 636.263L451.311 635.238C456.263 640.098 460.959 645.27 465.914 650.062C487.495 670.935 511.53 688.679 531.853 710.868C545.458 725.722 558.507 740.79 571.13 756.5C602.996 793.854 635.97 826.025 683.415 842.608C701.422 848.902 719.276 852.884 738.566 852.787C749.784 852.731 765.246 849.689 775.754 845.832C782.686 843.287 790.294 839.507 796.913 837.123C795.25 842.937 770.422 878.531 765.924 884.709C715.489 952.523 647.417 1002.63 562.209 959.387C474.642 914.951 442.902 828.641 368.101 771.061C359.17 764.186 349.203 758.369 340.09 751.644C349.239 740.688 358.223 729.597 367.039 718.372C384.179 696.515 400.319 675.4 421.393 656.955C430.871 648.66 439.045 643.199 449.555 636.263Z" fill="#FFEDE1"/>
<path d="M839.85 741.725C834.758 730.538 835.684 707.157 835.99 694.408C836.057 691.633 836.693 691.289 838.442 689.809C839.67 690.167 839.97 690.356 841.122 690.946C842.972 694.28 840.928 737.012 839.85 741.725Z" fill="#FFEDE1"/>
<path d="M337.041 751.217C334.96 755.044 323.222 769.392 319.887 773.537C294.35 805.274 267.441 839.662 236.64 866.397C213.499 886.483 173.948 913.131 142.057 911.1C134.973 910.649 128.31 908.072 123.575 902.656C117.393 895.585 116.361 882.986 117.928 873.985C129.141 809.584 212.239 742.72 259.878 705.52C266.23 709.912 272.741 705.822 275.445 710.183C232.334 747.522 185.482 787.231 150.867 833.708C129.178 862.828 128.845 909.484 177.608 887.959C245.857 857.831 281.832 797.641 325.437 741.173C326.687 742.339 329.61 745.211 331.033 745.828C332.979 747.686 334.983 749.483 337.041 751.217Z" fill="#FFEDE1"/>
<path d="M178.674 885.489C167.895 890.495 151.078 895.391 142.697 884.197C131.303 868.982 146.908 842.122 156.219 829.611C177.463 801.458 203.736 776.532 229.671 752.676C245.37 738.234 262.62 722.356 279.574 709.469C297.993 717.792 309.59 726.134 323.686 740.452C311.797 757.251 298.76 773.189 286.823 789.855C257.657 830.579 224.035 862.986 178.674 885.489ZM202.374 807.11C196.523 808.34 190.713 812.688 187.95 817.915C180.115 832.737 170.496 852.958 197.453 846.677C198.067 846.533 198.677 846.374 199.283 846.201C211.028 842.64 226.599 836.093 221.288 820.445C219.558 815.335 215.858 811.129 211.01 808.761C207.698 807.141 205.98 807.022 202.374 807.11Z" fill="url(#paint6_linear_2247_8824)"/>
<path d="M845.167 741.778L844.622 742.038L844.078 741.77C848.473 734.838 877.926 714.963 885.958 710.363L887.595 711.337C891.333 718.696 851.644 739.14 845.167 741.778Z" fill="#FFEDE1"/>
<path d="M836.229 744.862C830.009 742.826 811.413 729.252 807.968 722.27C807.545 721.413 808.802 719.651 809.369 718.824C810.282 718.846 811.886 718.878 812.547 719.374C816.958 722.687 835.672 739.85 836.86 743.762L836.229 744.862Z" fill="#FFEDE1"/>
<path d="M841.141 744.829C857.893 742.714 878.881 744.176 895.643 746.584C897.252 747.611 897.589 747.695 898.476 749.427C897.811 752.39 893.688 751.978 891.174 752.007C877.374 751.835 853.52 750.585 841.141 744.829Z" fill="#FFEDE1"/>
<path d="M331.033 745.828C335.104 746.074 335.157 747.074 338.112 749.448L337.041 751.217C334.983 749.483 332.979 747.686 331.033 745.828Z" fill="#FBF8CC"/>
<path d="M817.486 808.817C816.962 808.09 815.805 806.507 815.894 805.745C816.273 802.527 818.801 795.59 819.811 792.636C823.469 781.944 829.912 755.07 837.768 747.402L838.196 748.123C834.276 765.808 828.544 789.591 821.353 806.426C820.537 808.336 819.124 808.456 817.486 808.817Z" fill="#FFEDE1"/>
<path d="M860.379 788.427C855.89 780.311 839.25 758.099 841.381 748.473C842.409 748.712 842.751 749.402 843.435 750.447L865.285 784.33C866.609 786.899 868.245 789.84 864.789 791.513C862.309 791.033 862.181 790.483 860.379 788.427Z" fill="#FFEDE1"/>
<path d="M199.283 846.198C198.677 846.371 198.067 846.53 197.453 846.674C170.496 852.955 180.115 832.734 187.95 817.912C190.713 812.685 196.523 808.337 202.374 807.107C205.98 807.019 207.698 807.138 211.01 808.758C215.858 811.126 219.558 815.332 221.288 820.442C226.599 836.09 211.028 842.637 199.283 846.198ZM202.261 809.12C192.854 811.401 188.144 820.416 184.833 828.737C178.201 845.402 182.806 848.28 198.924 843.877C206.147 841.792 214.645 839.13 218.564 832.238C223.265 823.97 217.219 813.683 209.212 810.313C206.663 809.24 205.008 809.085 202.261 809.12Z" fill="#AA5A46"/>
<path d="M198.924 843.879C182.806 848.282 178.201 845.404 184.833 828.739C188.144 820.418 192.854 811.403 202.261 809.122C205.008 809.087 206.663 809.242 209.212 810.315C217.219 813.685 223.265 823.972 218.564 832.24C214.645 839.132 206.147 841.794 198.924 843.879Z" fill="#FFEDE1"/>
<path d="M337.712 859.828C337.311 859.83 336.805 859.638 336.383 859.52L336.27 858.687C341.162 852.684 354.937 846.248 362.23 843.977C364.03 844.464 363.319 843.985 364.45 845.446C360.55 852.115 345.341 858.696 337.712 859.828Z" fill="#FFEDE1"/>
<path d="M376.381 870.478C372.318 872.047 370.387 872.047 366.064 871.352C361.298 870.585 346.313 866.842 343.609 863.214C349.98 862.405 373.723 863.421 376.901 869.467L376.381 870.478Z" fill="#FFEDE1"/>
<path d="M334.235 901.401C328.328 895.795 320.383 880.877 319.19 872.454C318.949 870.752 319.7 870.422 320.719 869.352C321.425 869.389 323.062 869.347 323.534 870.026C328.701 877.472 335.097 888.951 336.052 898.022C336.23 899.715 335.117 900.465 334.235 901.401Z" fill="#FFEDE1"/>
<path d="M368.362 886.077C360.06 884.615 349.597 881.171 344.634 873.434C343.986 872.423 344.45 871.946 344.874 871.017C349.959 870.913 372.778 879.779 368.362 886.077Z" fill="#FFEDE1"/>
<defs>
<linearGradient id="paint0_linear_2247_8824" x1="783.146" y1="243.52" x2="701.918" y2="333.68" gradientUnits="userSpaceOnUse">
<stop stop-color="#FFFFCA"/>
<stop offset="1" stop-color="#F9A4D9"/>
</linearGradient>
<linearGradient id="paint1_linear_2247_8824" x1="555.463" y1="776.781" x2="1015.06" y2="443.905" gradientUnits="userSpaceOnUse">
<stop stop-color="#FCDFE8"/>
<stop offset="1" stop-color="#DFDCFF"/>
</linearGradient>
<linearGradient id="paint2_linear_2247_8824" x1="688.536" y1="412.893" x2="673.652" y2="398.938" gradientUnits="userSpaceOnUse">
<stop stop-color="#EB8AD7"/>
<stop offset="1" stop-color="#F5C1E9"/>
</linearGradient>
<linearGradient id="paint3_linear_2247_8824" x1="369.47" y1="496.32" x2="409.544" y2="498.887" gradientUnits="userSpaceOnUse">
<stop stop-color="#85F7CC"/>
<stop offset="1" stop-color="#9FF2F5"/>
</linearGradient>
<linearGradient id="paint4_linear_2247_8824" x1="853.251" y1="459.591" x2="829.801" y2="434.657" gradientUnits="userSpaceOnUse">
<stop stop-color="#F5B2C0"/>
<stop offset="1" stop-color="#FFAFDC"/>
</linearGradient>
<linearGradient id="paint5_linear_2247_8824" x1="886.055" y1="425.099" x2="880.056" y2="439.165" gradientUnits="userSpaceOnUse">
<stop stop-color="#FBC0C1"/>
<stop offset="1" stop-color="#E6A6CB"/>
</linearGradient>
<linearGradient id="paint6_linear_2247_8824" x1="314.395" y1="730.906" x2="137.878" y2="876.806" gradientUnits="userSpaceOnUse">
<stop stop-color="#FCDEE4"/>
<stop offset="1" stop-color="#FDF5E9"/>
</linearGradient>
</defs>
</svg>
