<svg width="1024" height="1024" viewBox="0 0 1024 1024" fill="none" xmlns="http://www.w3.org/2000/svg">
<path d="M297.809 239.619C312.57 201.505 344.586 158.811 372.742 129.373C404.211 97.7254 451.047 76.055 495.358 93.0309C545.92 112.401 564.873 166.432 577.277 214.476C580.087 225.362 583.933 243.471 588.494 253.388C567.283 273.053 546.867 293.558 527.297 314.856C509.149 334.798 492.696 354.887 475.134 374.858C474.624 373.685 455.005 353.083 451.853 348.99C447.584 343.446 442.301 336.307 437.966 330.3C433.546 324.177 428.038 317.45 423.293 311.304C418.672 305.321 413.903 298.701 409 292.993C385.018 265.078 351.311 246.468 315.022 240.583C310.65 239.873 302.713 239.981 297.809 239.619Z" fill="#B9FBC0"/>
<path d="M729.984 188.893C744.867 186.05 765.729 197.986 777.58 205.805C811.086 227.912 837.972 258.076 863.462 288.707C867.301 293.321 878.252 311.219 882.808 312.599C884.73 311.796 885.151 310.859 885.955 308.963C890.51 298.22 887.213 283.496 882.011 273.369C857.741 226.121 814.971 175.178 765.473 153.833C725.594 136.637 690.182 168.599 661.901 192.58C650.371 202.326 638.916 212.159 627.536 222.079C616.559 231.621 597.413 247.56 587.928 257.674C561.795 282.052 536.879 307.704 513.271 334.534C504.751 344.174 496.335 353.904 488.024 363.724C486.021 366.077 478.209 375.603 476.606 376.944L476.582 377.417C457.884 399.852 440.31 422.301 424.26 446.778C412.525 464.676 402.332 483.418 390.338 501.041C379.778 516.555 364.446 529.553 353.298 544.012C346.633 550.474 339.647 558.627 333.32 565.622L331.018 564.813C335.56 558.82 344.496 549.53 349.816 543.539C362.186 529.705 375.68 515.446 387.099 500.922C393.93 492.233 399.758 480.775 405.561 471.301C410.009 464.04 414.623 456.878 419.253 449.716C436.132 423.74 454.716 398.911 474.882 375.395L475.134 374.858C492.696 354.887 509.149 334.798 527.297 314.856C546.867 293.558 567.283 273.053 588.494 253.388C601.594 240.923 618.577 226.157 632.732 214.129C657.201 193.34 684.859 166.171 713.683 152.36C730.371 144.365 751.848 144.857 769.206 152.527C816.646 173.486 863.136 228.138 884.931 274.275C889.787 285.794 893.123 298.566 888.141 310.555C883.494 321.736 876.048 310.297 872.115 304.78C851.343 275.358 827.01 248.62 799.67 225.176C793.052 219.522 780.641 209.716 772.983 205.733C767.825 201.422 751.004 193.055 744.246 192.518L742.186 193.178C738.79 190.697 736.585 191.079 732.297 190.884L731.202 190.442C730.406 191.196 730.618 190.919 730.036 191.873C726.796 191.547 724.608 192.407 721.539 193.515L721.335 191.998L723.86 190.464C724.91 190.581 728.695 189.697 729.992 189.427L729.984 188.893Z" fill="#313E5A"/>
<path d="M729.984 188.893C724.399 189.086 718.86 190.203 714.19 193.354C703.307 200.698 693.021 211.599 683.272 220.568C667.307 234.965 651.539 249.579 635.972 264.405C624.982 274.951 614.111 286.291 603.175 296.621C598.597 287.531 591.978 267.908 587.928 257.674C597.413 247.56 616.559 231.621 627.536 222.079C638.916 212.159 650.371 202.326 661.901 192.58C690.182 168.599 725.594 136.637 765.473 153.833C814.971 175.178 857.741 226.121 882.011 273.369C887.213 283.496 890.51 298.22 885.955 308.963C885.151 310.859 884.73 311.796 882.808 312.599C878.252 311.219 867.301 293.321 863.462 288.707C837.972 258.076 811.086 227.912 777.58 205.805C765.729 197.986 744.867 186.05 729.984 188.893Z" fill="#8EECF5"/>
<path d="M603.176 296.623C614.112 286.293 624.983 274.953 635.973 264.407C651.54 249.581 667.308 234.967 683.273 220.57C693.022 211.601 703.308 200.7 714.191 193.356C718.861 190.205 724.4 189.088 729.985 188.895L729.993 189.429C728.696 189.699 724.911 190.583 723.861 190.466C711.083 193.285 689.932 216.096 679.209 225.863C600.242 297.774 525.933 374.64 456.733 455.993C449.042 464.919 439.227 474.476 433.064 484.292C431.487 486.832 430.09 489.479 428.886 492.215C431.435 489.839 440.156 477.256 443.957 472.966L508.831 399.519C509.429 400.938 509.526 400.472 509.383 401.709L508.022 403.077C508.046 406.534 515.877 413.605 517.53 416.64C517.773 417.806 517.864 418.298 518.272 419.408C518.344 421.123 519.526 422.861 520.718 424.022C528.28 435.621 536.447 445.926 544.981 456.739C557.95 473.151 571.166 489.366 584.625 505.379C601.908 526.263 618.327 549.058 638.082 567.624C640.284 569.693 643.197 572.584 645.966 573.711L646.747 573.402C647.014 569.015 638.524 558.569 635.599 554.707L637.058 554.448C639.78 558.239 642.545 561.998 645.353 565.726C647.244 568.633 649.923 571.826 647.919 575.328C640.821 579.954 610.953 554.118 605.135 548.593L604.436 547.645L602.105 545.967L601.767 546.255L603.035 548.532C608.491 556.115 632.268 588.335 627.341 596.035C619.583 601.382 592.673 576.689 586.585 571.099C572.645 558.435 554.526 537.198 541.333 522.672L541.5 521.764C545.277 524.664 555.121 535.467 558.818 539.606C574.876 557.582 590.543 574.989 610.566 588.801C613.28 590.673 619.873 593.764 623.065 595.333C594.52 565.542 564.628 539.182 536.15 509.057C536.064 508.567 536.176 508.852 535.519 508.388C526.537 499.456 519.778 492.386 511.409 482.88C502.556 472.824 485.415 448.228 478.577 436.11C474.873 440.437 471.13 444.728 467.346 448.985C475.906 459.891 486.625 474.334 494.288 486.022L493.579 487.63C483.806 474.583 477.045 463.285 466.37 450.357L462.982 454.4C472.916 467.295 481.406 482.734 491.382 496.286C492.763 498.046 494.345 500.182 495.791 501.84C498.146 505.439 501.2 508.572 503.205 511.627C503.331 514.003 506.785 517.277 508.494 519.202L507.752 519.971C500.888 513.877 484.525 489.863 478.755 482.172C476.25 478.833 470.327 468.066 467.849 466.087C466.024 463.551 463.574 459.084 461.817 457.344C459.064 457.072 454.238 463.844 452.267 466.115C457.573 477.736 465.352 489.035 472.653 499.488L471.487 500.472C462.835 488.841 458.422 479.737 451.432 467.683C449.187 469.94 446.935 472.154 444.816 474.531C447.163 479.677 463.614 503.56 467.545 508.294L467.869 509.19L466.622 510.373L464.737 508.121C457.393 500.411 448.529 485.356 443.487 476.028C440.888 479.366 436.76 484.11 434.654 487.392C437.908 493.78 446.428 506.448 450.509 513.018L449.426 514.061C445.795 509.082 436.301 492.541 433.302 490.663C431.649 490.716 432.478 490.496 430.916 491.937C429.511 498.154 443.156 515.716 446.591 521.981L445.249 523.04C443.788 521.244 440.933 516.219 439.807 515.072C436.902 512.112 430.413 497.383 428.221 496.019L428.375 495.102L429.486 495.004C429.883 493.571 429.898 494.296 429.198 492.777L428.348 492.765C426.627 494.601 426.883 496.355 425.268 498.034C429.251 483.497 448.617 463.422 458.856 451.621C473.877 434.181 489.089 416.905 504.488 399.797C517.129 387.558 531.907 370.544 544.118 357.467C564.082 336.088 581.942 316.784 603.176 296.623ZM496.683 415.573C503.469 427.122 519.726 449.75 528.627 460.515C529.298 463.157 530.882 465.367 532.572 467.515L531.898 468.541L529.248 465.066C528.516 463.726 526.859 461.68 525.923 460.37C515.651 445.993 505.262 431.768 495.725 416.884L492.425 420.459C499.714 433.252 512.766 449.585 521.679 461.768L521.032 463.139C514.087 455.13 507.926 445.256 501.458 436.774C497.873 432.072 494.916 426.493 491.319 421.8C488.541 424.7 486.212 427.297 483.598 430.349C493.728 447.044 507.266 463.355 519.274 478.854C528.343 490.175 537.507 501.452 546.624 512.741C551.227 518.441 556.278 526.029 560.981 531.283C574.595 546.493 590.328 559.42 604.417 574.262C607.039 577.025 624.304 594.352 626.134 595.419C626.777 594.991 627.141 594.991 627.283 594.155C628.336 587.967 603.236 549.768 597.991 543.322C594.631 539.193 590.747 535.523 587.371 531.419C583.947 525.99 568.636 508.548 563.87 502.949C555.534 492.508 546.829 482.367 537.772 472.545L537.307 471.982L534.891 469.139C534.176 467.997 533.809 467.157 533.23 465.953C544.334 477.832 555.103 490.019 565.525 502.501C584.743 525.09 602.508 547.593 626.915 564.792C631.937 568.332 637.266 572.154 642.841 574.731C634.097 565.223 626.574 559.359 618.224 548.644L617.766 548.053C588.151 512.888 559.178 477.187 530.861 440.969C522.894 430.631 513.446 414.131 506.117 405.416C502.805 408.643 499.657 412.033 496.683 415.573ZM515.64 476.656C508.33 467.607 501.171 458.437 494.167 449.149C492.21 446.507 483.464 433.602 482.269 432.623L481.384 432.748C480.778 433.737 480.225 435.779 480.623 436.48C487.674 448.917 503.392 471.283 511.957 481.409C522.62 494.461 537.356 508.545 549.385 520.621C552.143 523.452 554.964 526.221 557.845 528.927C555.52 525.494 553.187 522.629 550.599 519.411C548.517 516.086 541.332 508.002 538.578 504.695C530.871 495.399 523.225 486.052 515.64 476.656Z" fill="#281D40"/>
<path d="M428.885 492.214C430.089 489.478 431.486 486.831 433.063 484.291C439.226 474.475 449.041 464.918 456.732 455.992C525.932 374.639 600.241 297.773 679.208 225.862C689.931 216.095 711.082 193.284 723.86 190.465L721.335 191.999C712.176 196.613 686.001 222.417 677.001 230.693C619.134 283.9 560.63 340.258 508.83 399.518L443.956 472.965C440.155 477.255 431.434 489.838 428.885 492.214Z" fill="#90DBF4"/>
<path d="M732.296 190.883L731.235 191.359C731.339 191.956 749.666 211.363 751.636 213.526C774.735 238.792 797.545 264.32 820.061 290.107C826.356 297.332 832.587 304.613 838.753 311.949C844.294 318.652 849.733 327.454 856.496 332.365C858.378 333.732 865.107 338.091 867.187 337.761C867.725 337.331 868.272 337.19 868.273 336.43C868.279 329.681 825.192 284.473 818.218 276.589L776.37 228.528C765.449 216.169 754.75 203.941 742.185 193.177L744.245 192.517C750.187 198.212 761.46 208.217 768.583 212.09C776.858 218.286 785.203 224.425 792.783 231.478C811.335 248.739 868.318 310.497 871.851 332.249C872.155 334.124 872.096 336.227 870.859 337.781C870.139 338.687 869.172 339.29 868.022 339.468C862.318 340.352 851.165 330.52 847.131 326.893C842.102 322.371 837.15 317.626 832.532 312.685C829.319 309.247 826.196 305.03 822.582 302.08C821.61 300.448 811.391 290.864 809.205 288.886C796.8 277.659 784.235 265.318 771.497 254.526C762.288 246.724 752.397 239.022 743.015 231.2C742.859 230.93 742.157 230.498 741.85 230.278L740.638 229.216L741.436 228.607C748.322 233.603 754.254 238.98 760.845 244.266C781.654 260.952 801.516 279.767 821.035 297.982C827.552 304.063 834.023 312.596 841.061 319.266L841.601 319.737C843.629 321.841 845.691 323.91 847.786 325.945C845.712 322.476 843.82 320.211 841.278 317.043L840.806 316.462C818.247 289.86 795.247 263.635 771.814 237.799L744.857 208.382C741.474 204.726 732.539 195.497 730.035 191.872C730.617 190.918 730.405 191.195 731.201 190.441L732.296 190.883ZM763.621 210.47C762.45 209.464 760.711 207.66 759.34 207.513C759.705 208.99 761.585 210.457 762.787 211.603C775.4 225.118 787.774 238.856 799.901 252.81C817.471 273.26 834.57 293.797 853.142 313.428C859.686 320.346 864.789 328.489 870.971 335.311C867.082 318.519 854.976 304.41 844.628 291.012C827.751 269.16 809.234 248.374 788.788 229.797C780.728 222.474 772.53 216.704 763.621 210.47Z" fill="#061212"/>
<path d="M742.186 193.177C754.751 203.941 765.45 216.169 776.371 228.528L818.219 276.589C825.193 284.473 868.28 329.681 868.274 336.43C868.273 337.19 867.726 337.331 867.188 337.761C865.108 338.091 858.379 333.732 856.497 332.365C849.734 327.454 844.295 318.652 838.754 311.949C832.588 304.613 826.357 297.332 820.062 290.107C797.546 264.32 774.736 238.792 751.637 213.526C749.667 211.363 731.34 191.956 731.236 191.359L732.297 190.883C736.585 191.078 738.79 190.696 742.186 193.177Z" fill="#8EECF5"/>
<path d="M721.539 193.517C724.608 192.409 726.796 191.549 730.036 191.875C732.54 195.5 741.475 204.729 744.858 208.385L771.815 237.802C795.248 263.638 818.248 289.863 840.807 316.465L841.279 317.046C843.821 320.214 845.713 322.479 847.787 325.948C845.692 323.913 843.63 321.844 841.602 319.74L841.062 319.269C834.024 312.599 827.553 304.066 821.036 297.985C801.517 279.77 781.655 260.955 760.846 244.269C754.255 238.983 748.323 233.606 741.437 228.61C735.743 223.339 716.28 205.495 712.496 200.288C715.292 197.987 718.408 195.229 721.539 193.517Z" fill="url(#paint0_linear_2247_9015)"/>
<path d="M508.83 399.515C560.63 340.255 619.134 283.897 677.001 230.69C686.001 222.414 712.176 196.61 721.335 191.996L721.539 193.513C718.408 195.225 715.292 197.983 712.496 200.284L711.619 201.017C710.425 202.227 709.182 203.529 707.949 204.682C710.43 207.832 714.568 213.347 717.322 215.976C721.298 221.806 727.285 228.152 732.05 233.443C760.24 264.743 791.236 292.761 819.531 324.104C825.527 330.825 831.372 337.68 837.062 344.664C839.261 347.36 845.227 355.886 848.071 356.778C848.66 355.974 848.576 356.382 848.404 355.326C845.45 337.208 757.007 249.441 738.617 230.181L739.998 229.656L743.347 233.042C743.479 233.188 744.076 233.891 744.221 233.954C762.438 253.245 781.653 271.606 799.34 291.432C801.465 293.814 807.985 301.519 810.105 303.053C817.83 312.18 851.995 348.247 850.859 357.654C850.718 358.818 850.33 359.113 849.572 359.943C842.007 363.05 825.952 344.464 820.098 339.427C819.405 338.38 804.48 323.469 802.534 321.383C788.216 306.032 772.333 288.376 756.876 274.21C743.857 262.278 727.038 249.35 713.059 238.173C712.301 237.179 709.625 234.838 708.574 233.868L709.335 233.164C737.833 257.839 763.945 275.871 789.009 304.749C799.343 316.656 833.337 352.762 846.135 358.567C840.438 350.336 830.24 338.523 823.655 330.563L823.184 329.977L819.739 326.14L819.26 325.569C806.72 312.162 794.043 298.884 781.23 285.738C769.143 273.546 756.537 261.787 744.645 249.307C731.42 235.294 718.948 220.589 707.281 205.256C703.204 208.787 697.414 214.771 693.423 217.631L692.289 218.994C688.342 222.068 684.476 225.915 680.781 229.34L681.471 229.837C687.03 233.891 692.095 238.805 697.234 243.382C703.801 249.228 710.499 254.94 716.807 261.068C724.052 268.105 730.878 275.565 737.98 282.744C746.421 291.278 755.314 299.347 763.725 307.903C775.823 320.208 787.439 333.067 799.11 345.782C802.432 349.402 828.694 380.883 828.977 381.043L829.714 380.645C830.745 375.323 817.293 361.077 813.654 355.644C798.242 332.637 781.316 310.148 762.19 290.096C746.832 274.229 728.792 261.282 714.577 244.153C711.237 240.129 707.133 236.352 703.911 232.162C705.66 231.467 704.809 231.498 706.544 231.949C707.037 232.656 707.052 232.467 707.194 233.233C708.405 235.309 708.653 235.623 710.387 237.287L711.213 238.395L711.773 239.019C715.553 243.155 719.377 247.252 723.157 251.385C737.059 266.582 753.769 278.544 767.641 293.841C776.164 303.239 784.091 312.801 791.749 322.924C794.228 326.144 800.023 334.106 802.302 336.479L802.787 337.319C806.898 344.339 813.971 353.088 818.645 359.828C822.075 364.774 831.398 374.482 832.811 379.687C832.275 381.43 831.796 381.803 830.041 382.719C829.154 383.174 828.258 383.615 827.356 384.041C820.947 380.373 801.043 360.93 794.635 354.86C792.165 352.08 788.507 348.714 785.78 346.059L785.262 345.509L784.022 344.372L783.501 343.847L778.993 339.788L777.582 338.323L776.991 337.912C760.196 323.419 748.241 308.857 733.926 291.873C722.243 277.828 710.241 264.05 697.931 250.551C692.635 244.819 685.038 235.107 679.381 230.876L671.277 238.482C681.962 248.791 690.829 260.727 701.418 271.19C708.053 277.746 715.036 283.434 721.864 289.707C731.977 299.098 741.732 308.868 751.107 318.996C758.836 327.508 765.793 336.675 772.85 345.74C774.331 347.643 775.74 349.606 777.376 351.38C783.212 358.89 813.129 395.131 811.647 402.825C811.5 403.587 811.421 403.676 811.132 404.31C804.757 407.57 783.139 386.436 777.266 381.818L777.666 380.847C787.789 388.414 796.079 396.49 806.917 403.068C798.597 390.539 776.319 366.944 765.215 357.063L764.469 356.395C756.22 349.263 747.518 340.368 739.418 332.751C731.504 325.196 723.868 317.357 716.523 309.248C712.003 304.239 703.59 294.422 698.891 290.439C695.39 286.164 687.854 279.114 683.636 274.977C675.55 266.761 666.635 258.625 658.367 250.395L646.136 262.009C648.394 263.589 650.914 266.087 652.982 267.996C679.729 293.524 704.615 322.852 729.615 350.202L759.952 383.733C766.81 391.222 772.702 396.501 778.797 404.686C782.557 410.179 786.251 415.717 789.876 421.301L788.038 421.173L786.259 418.274C774.321 399.559 760.067 385.932 745.487 369.354C736.244 358.845 725.855 349.04 716.934 338.334C712.381 333.233 707.792 328.162 703.17 323.123C691.206 308.963 677.578 294.899 664.513 281.752C658.764 275.968 651.389 268.247 645.335 263.002L638.94 268.767C642.525 271.748 646.469 275.642 649.911 278.876C648.641 279.139 648.679 279.052 647.407 278.687L637.988 269.888C634.148 273.59 629.948 277.822 625.976 281.314C630.157 285 634.257 288.775 638.276 292.637C638.682 293.613 639.076 294.498 639.407 295.505C635.026 292.069 629.245 286.272 625.053 282.268L621.809 284.977C633.219 297.884 638.294 304.109 651.289 315.637L650.393 316.014C647.336 313.224 645.238 311.487 641.933 308.994C667.057 341.831 696.648 369.099 726.299 397.678C737.316 408.298 749.379 424.382 759.557 436.397L758.489 437.15C755.782 434.908 749.34 427.159 747.151 424.226C733.377 405.772 717.667 391.53 701.167 375.677C690.352 365.075 679.711 354.297 669.248 343.346C654.219 327.551 640.327 309.323 626.405 292.371C624.442 289.91 623.088 288.133 620.792 285.971L613.679 292.948L608.09 298.622C617.034 307.069 625.867 315.795 634.849 324.141C643.056 331.768 652.022 339.208 660.401 346.717L659.853 348.118C640.738 331.904 624.84 317.146 606.798 299.867L601.561 304.991C612.718 313.487 623.198 325.827 634.05 334.999C637.842 338.205 642.426 343.689 646.493 346.26C649.102 348.751 651.134 350.58 653.923 352.862C665.668 362.303 677.243 371.955 688.64 381.813C694.993 387.394 701.864 394.546 708.31 399.534L707.469 400.028C703.491 397.293 702.058 396.27 698.601 392.893L693.498 388.197L692.58 387.32C691.325 386.121 687.898 382.556 686.456 382.142C687.88 384.492 695.069 391.356 697.378 394.111L700.939 398.454L700.168 399.073C698.005 397.412 690.517 387.531 687.443 384.616C667.445 365.655 646.299 349.376 626.511 329.99C624.676 328.122 623.261 326.671 621.232 324.975C622.614 327.156 623.755 329.082 625.422 331.069C637.563 346.778 649.256 362.084 663.13 376.283C689.885 403.663 720.366 427.877 742.701 459.252C743.903 460.94 747.284 465.892 748.765 466.685C749.239 465.479 748.91 464.907 748.59 463.609L750.081 463.175C752.925 470.943 748.122 473.451 742.081 470.321C730.88 464.518 696.073 437.385 692.506 427.53C697.856 430.867 707.599 441.6 712.838 446.565C720.66 453.847 729.081 460.458 738.012 466.326C714.965 437.126 691.819 417.138 664.269 392.763C650.308 380.457 636.435 368.053 622.651 355.55C619.71 352.899 616.709 350.249 613.709 347.664C603.893 339.21 595.019 329.769 585.945 320.519L581.739 324.721C596.845 341.273 614.044 357.561 630.314 373.008C634.518 377 638.92 380.814 643.062 384.873L642.466 385.35L637.457 381.156L636.444 380.085C635.216 378.974 633.196 376.983 631.866 376.211L632.198 376.4L631.905 377.292C632.619 378.059 634.975 380.696 635.643 381.218C662.545 412.63 693.28 440.728 717.615 474.279C720.721 478.562 730.345 486.772 726.909 491.475C724.94 492.223 723.361 491.681 721.47 490.769C705.061 482.847 693.25 467.629 680.268 455.292C673.282 448.653 666.114 442.478 659.245 435.892C646.509 423.472 633.884 410.94 621.371 398.295C613.474 390.447 605.077 382.222 597.054 374.512C586.39 364.264 576.335 350.939 565.782 341.202L560.11 347.358C576.268 363.069 593.062 377.768 609.62 393.299C640.053 421.843 667.944 452.283 691.809 486.581C695.656 492.11 706.709 504.999 708.379 510.49C708.002 512.291 708.464 511.609 706.997 512.637C697.3 513.507 675.746 489.766 669.165 482.645C656.85 469.319 645.179 455.691 631.556 443.614C631.374 443.319 630.327 442.422 630.023 442.143L629.64 441.852C627.107 438.963 624.848 436.762 622.008 434.146C624.423 437.474 626.098 439.663 628.818 442.723L629.726 443.906L630.211 444.511C638.36 456.256 649.231 468.569 657.641 480.697C665.971 492.092 673.213 504.081 680.75 516.027C683.641 521.185 688.234 525.946 689.624 531.762C690.077 533.659 688.08 536.701 686.226 536.285C657.145 529.774 643.053 506.223 622.788 486.517C597.275 461.706 575.04 432.917 550.105 407.095C544.168 399.946 534.17 388.619 527.651 381.951L524.409 385.463C527.471 388.736 545.946 408.532 548.188 410.048C557.516 420.364 569.535 433.591 579.112 443.451L578.365 444.343C566.541 432.272 555.552 419.545 543.746 407.521L541.209 404.882L540.311 403.989C538.271 401.733 532.995 395.879 530.751 394.449C532.26 397.196 535.166 400.157 537.326 402.563L537.796 403.085L540.338 406.036L541.069 406.888L541.434 406.911C557.828 429.658 582.925 458.158 600.985 479.75C610.149 490.705 656.331 548.299 665.45 553.187L666.252 553.061C666.561 548.931 658.56 539.403 655.886 536.132L657.068 535.298C660.324 539.015 670.796 550.386 668.722 555.05C664.193 558.613 648.391 549.335 644.062 546.908C634.829 541.73 626.867 532.937 619.755 525.124L619.272 524.553C608.544 513.401 599.598 501.888 589.616 490.152C578.191 476.718 566.29 463.611 553.963 451.009C548.669 445.598 543.483 439.479 538.024 434.284C529.376 424.041 517.263 411.829 509.382 401.705C509.525 400.468 509.428 400.934 508.83 399.515ZM694.446 242.775C693.31 241.745 693.064 241.119 691.863 241.018C692.464 242.475 692.747 242.567 693.895 243.631C700.789 251.993 708.656 260.093 715.81 268.404C730.668 285.665 744.819 303.738 760.468 320.253C769.731 330.029 780.249 339.198 790.021 348.588C801.519 359.638 813.896 371.847 826.775 381.219C812.01 362.36 796.218 344.615 779.881 327.126C777.489 324.565 774.93 321.731 772.679 319.047L772.21 318.468C765.976 312.138 759.85 305.822 753.408 299.699C734.175 281.42 717.337 262.4 697.071 245.127C696.529 244.406 695.197 243.401 694.446 242.775ZM701.96 273.694C700.169 271.53 699.591 270.724 697.173 269.44L697.726 269.906L697.092 269.976L698.517 271.658C704.206 280.614 713.528 292.742 720.515 300.764C744.493 328.292 767.804 356.472 792.742 383.132C796.114 386.715 807.028 401.359 809.939 402.436L810.332 401.947C809.456 396.278 804.184 389.357 800.708 384.794C784.556 363.59 768.912 341.678 751.531 321.462C743.047 311.594 733.087 302.543 723.997 293.213C723.315 291.977 723.804 292.4 722.48 291.906C715.596 285.733 708.768 280.061 701.96 273.694ZM742.267 327.559C728.896 313.137 716.257 298.054 704.399 282.365C701.397 278.364 698.541 274.16 695.811 269.969C688.62 258.929 679.684 248.701 670.559 239.176C666.962 242.635 663.33 246.058 659.664 249.443C664.355 254.568 670.02 259.492 675.117 264.329C683.077 271.951 690.928 279.685 698.669 287.529C716.183 305.423 732.314 324.601 750.892 341.542C755.815 346.031 763.223 354.722 768.532 358.157C766.839 355.442 753.873 340.946 751.194 338.004L750.691 337.46C748.248 334.89 745.107 330.925 742.748 328.132L742.267 327.559ZM593.209 339.273C591.975 338.094 591.696 337.374 590.343 337.186C590.807 338.814 591.141 338.978 592.258 340.246C599.849 350.83 609.369 361.16 617.791 371.177C634.382 390.91 651.795 409.77 668.918 428.966L708.93 473.047C713.562 478.154 717.668 483.531 722.26 488.639C723.414 489.924 723.793 489.887 725.091 489.88C726.123 488.891 725.839 489.488 725.901 488C724.711 485.233 722.321 483.029 720.557 480.592C708.53 463.98 696.27 449.556 682.465 434.445L650.25 399.348C648.313 397.236 645.805 394.763 644.05 392.555C628.581 373.102 610.467 356.947 593.209 339.273ZM584.446 371.405L582.742 370.144L582.333 370.383C582.98 371.4 583.146 371.7 583.955 372.577C591.814 382.029 599.463 391.653 606.898 401.443C610.185 405.717 613.458 410.064 616.832 414.278C639.31 442.354 667.093 465.953 690.789 493.024C695.032 497.871 699.324 502.651 703.603 507.45C704.433 508.374 704.498 508.398 705.452 509.19L705.814 508.752L704.749 506.737C702.587 503.4 700.281 500.194 697.829 497.064C685.691 481.573 674.786 464.774 662.248 449.631L661.774 449.036C638.383 422.722 616.347 401.177 590.718 377.062L589.972 376.408C588.168 374.914 586.196 373.009 584.446 371.405ZM542.25 366.01C550.769 374.483 559.198 383.046 567.535 391.697L566.777 392.469L566.091 392.49C567.348 394.308 568.191 395.403 569.631 397.079L569.607 397.498L567.956 397.519C560.818 388.941 549.198 373.981 540.986 367.256C536.247 372.045 532.963 375.756 528.554 380.816C559.87 415.424 590.679 450.597 622.665 484.552C640.786 503.787 660.457 529.416 687.573 535.39C683.18 531.04 679.318 524.811 675.666 519.672C672.354 515.083 668.871 510.619 665.225 506.291C655.041 494.197 643.841 482.692 633.828 470.423C626.731 461.728 618.365 453.491 611.401 444.806L613.329 445.267C614.752 446.79 616.416 448.679 617.912 450.074C618.919 451.723 621.916 454.744 623.262 456.293C642.883 478.874 663.46 500.915 681.65 524.659C683.591 527.192 685.092 529.747 687.476 531.897C687.456 528.922 663.865 491.416 659.934 486.223C650.053 473.167 638.999 457.212 628.398 444.734C617.37 427.719 590.731 407.699 575.669 392.208C567.126 383.421 554.701 368.308 546.733 361.046C545.279 362.477 543.629 364.452 542.25 366.01ZM536.236 403.525C531.821 398.065 527.367 392.637 522.876 387.24C518.6 391.559 514.291 395.988 509.961 400.239C512.286 402.772 519.241 410.709 521.435 412.642C523.303 414.654 525.067 416.817 526.855 418.908C549.872 445.84 575.566 470.278 597.934 497.825C609.749 512.374 622.222 527.41 636.353 539.746C642.545 545.152 655.644 551.335 663.331 553.942C650.776 542.277 640.253 528.791 629.178 515.723C605.922 488.284 582.893 460.635 559.693 433.137C551.633 423.584 544.409 413.146 536.236 403.525ZM600.295 306.34C595.511 310.685 591.704 314.636 587.302 319.369C594.448 326.192 601.076 333.582 608.289 340.302C639.466 369.35 672.113 396.808 702.996 426.166C707.916 430.843 712.721 435.384 717.415 440.308C722.669 445.899 727.685 451.709 732.451 457.722C734.519 460.358 737.361 464.513 739.356 466.807C741.833 468.667 743.342 470.177 746.469 470.045C748.401 467.67 743.329 462.081 741.809 459.963C716.159 424.225 679.874 398.141 650.995 365.273C641.928 354.953 633.804 343.77 625.141 333.127C618.274 324.69 609.525 312.265 600.295 306.34ZM580.142 326.333C575.554 330.832 571.03 335.396 566.572 340.023C577.887 350.344 589.271 364.567 600.418 375.784C626.193 401.57 652.347 426.975 678.872 451.991C689.478 462.109 698.559 472.696 710.296 481.735C713.519 484.427 716.182 486.143 719.716 488.461C711.051 475.9 694.279 459.638 683.939 448.006C663.259 424.741 642.402 401.53 621.783 378.206C612.563 367.776 603.282 357.057 594.493 346.27C589.992 340.745 584.713 330.868 580.142 326.333ZM559.154 348.503C555.195 351.801 551.75 355.475 548.439 359.416C558.043 370.555 567.684 381.929 578.058 392.344C593.064 407.386 609.965 420.197 624.787 435.416C626.102 436.766 627.847 438.346 629.264 439.599C643.578 452.265 656.156 466.394 669.07 480.446C677.635 489.767 686.191 500.198 697.115 506.847C700.127 508.604 701.726 509.486 704.928 510.857C693.858 500.088 683.662 486.966 672.715 475.641L638.877 441.119C632.242 434.308 625.531 427.861 619.507 420.483C604.211 401.747 590.284 381.731 574.055 363.769C570.534 359.873 563.018 351.79 559.154 348.503Z" fill="#221628"/>
<path d="M744.246 192.52C751.004 193.057 767.825 201.424 772.983 205.735C769.312 205.963 760.963 197.788 755.676 197.749C754.564 198.632 754.967 198.068 754.728 199.669C755.356 201.453 756.387 202.022 757.824 203.256L758.478 203.824C761.804 206.669 765.223 208.317 768.55 211.087L768.584 212.093C761.461 208.22 750.188 198.215 744.246 192.52Z" fill="#8EECF5"/>
<path d="M711.619 201.018L712.496 200.285C716.28 205.492 735.743 223.336 741.437 228.607L740.639 229.216L739.998 229.657L738.617 230.182C734.316 227.086 726.642 216.513 722.426 214.428C719.229 209.725 714.825 208.068 711.619 201.018Z" fill="#1B3C42"/>
<path d="M707.949 204.685C709.182 203.532 710.425 202.23 711.619 201.02C714.825 208.07 719.229 209.727 722.426 214.43C719.404 213.216 714.134 207.116 711.917 204.506L710.617 205.091C709.961 208.46 716.891 211.761 717.322 215.979C714.568 213.35 710.43 207.835 707.949 204.685Z" fill="#98F5E1"/>
<path d="M717.323 215.977C716.892 211.759 709.962 208.458 710.618 205.089L711.918 204.504C714.135 207.114 719.405 213.214 722.427 214.428C726.643 216.513 734.317 227.086 738.618 230.182C757.008 249.442 845.451 337.209 848.405 355.327C848.577 356.383 848.661 355.975 848.072 356.779C845.228 355.887 839.262 347.361 837.063 344.665C831.373 337.681 825.528 330.826 819.532 324.105C791.237 292.762 760.241 264.744 732.051 233.444C727.286 228.153 721.299 221.807 717.323 215.977Z" fill="url(#paint1_linear_2247_9015)"/>
<path d="M693.424 217.633C697.415 214.773 703.205 208.789 707.282 205.258C718.949 220.591 731.421 235.296 744.646 249.309C756.538 261.789 769.144 273.548 781.231 285.74C794.044 298.886 806.721 312.164 819.261 325.571L819.74 326.142L823.185 329.979L823.656 330.565C830.241 338.525 840.439 350.338 846.136 358.569C833.338 352.764 799.344 316.658 789.01 304.751C763.946 275.873 737.834 257.841 709.336 233.166C703.571 228.011 698.505 223.504 693.424 217.633Z" fill="#8EECF5"/>
<path d="M763.623 210.473L762.789 211.606C761.587 210.46 759.707 208.993 759.342 207.516C760.713 207.663 762.452 209.467 763.623 210.473Z" fill="#6E999D"/>
<path d="M762.787 211.606L763.621 210.473C772.53 216.707 780.728 222.477 788.788 229.8C809.234 248.377 827.751 269.163 844.628 291.015C854.976 304.413 867.082 318.522 870.971 335.314C864.789 328.492 859.686 320.349 853.142 313.431C834.57 293.8 817.471 273.263 799.901 252.813C787.774 238.859 775.4 225.121 762.787 211.606Z" fill="#8EECF5"/>
<path d="M692.289 218.996L693.423 217.633C698.504 223.504 703.57 228.011 709.335 233.166L708.574 233.87L707.194 233.235C707.052 232.469 707.037 232.658 706.544 231.951C704.809 231.5 705.66 231.469 703.911 232.164C701.519 230.254 694.276 221.56 692.289 218.996Z" fill="#1B3C42"/>
<path d="M680.781 229.342C684.476 225.917 688.342 222.07 692.289 218.996C694.276 221.56 701.519 230.254 703.911 232.164C707.133 236.354 711.237 240.131 714.577 244.155C728.792 261.284 746.832 274.231 762.19 290.098C781.316 310.15 798.242 332.639 813.654 355.646C817.293 361.079 830.745 375.325 829.714 380.647L828.977 381.045C828.694 380.885 802.432 349.404 799.11 345.784C787.439 333.069 775.823 320.21 763.725 307.905C755.314 299.349 746.421 291.28 737.98 282.746C730.878 275.567 724.052 268.107 716.807 261.07C710.499 254.942 703.801 249.23 697.234 243.384C692.095 238.807 687.03 233.893 681.471 229.839L680.781 229.342Z" fill="#8EECF5"/>
<path d="M739.998 229.66L740.639 229.219L741.851 230.281C742.065 230.458 742.804 231.102 743.016 231.203C752.398 239.025 762.289 246.727 771.498 254.529C784.236 265.321 796.801 277.662 809.206 288.889C811.392 290.867 821.611 300.451 822.583 302.083C819.776 302.163 810.568 290.89 807.68 289.015C804.726 287.096 799.376 279.741 796.795 278.92C796.034 279.295 794.53 280.056 793.757 279.583C790.914 277.844 789.358 275.035 787.846 272.183C786.191 271.126 786.135 271.239 784.241 271.09L783.215 271.531C783.135 272.406 782.925 272.531 783.883 273.513C792.887 282.733 801.564 292.295 810.117 301.938C810.113 302.311 810.109 302.684 810.105 303.057C807.985 301.523 801.465 293.818 799.34 291.436C781.653 271.61 762.438 253.249 744.221 233.958L743.347 233.046L739.998 229.66Z" fill="#8EECF5"/>
<path d="M741.852 230.277C742.159 230.497 742.861 230.929 743.017 231.199C742.805 231.098 742.066 230.454 741.852 230.277Z" fill="#546B67"/>
<path d="M679.381 230.879C685.038 235.11 692.635 244.822 697.931 250.554C710.241 264.053 722.243 277.831 733.926 291.876C748.241 308.86 760.196 323.422 776.991 337.915L777.582 338.326L778.993 339.791C778.458 342.328 778.223 341.663 778.992 343.773C780.243 344.857 781.547 345.88 782.587 347.158L781.787 347.63C778.613 343.98 777.498 346.145 776.267 344.378L776.466 343.77C779.511 334.17 768.967 337.661 765.987 333.155C766.016 331.827 766.157 331.782 766.723 330.544C766.669 330.418 748.429 310.441 746.963 308.74C730.137 289.228 713.869 269.112 696.358 250.204C691.513 244.973 684.59 236.568 679.512 232.108C677.268 234.221 674.98 236.269 672.991 238.622C682.544 248.022 691.807 260.025 701.302 269.758C708.493 277.13 716.229 283.005 723.568 289.771C740.113 305.071 755.396 321.682 769.27 339.441C771.39 342.151 776.764 348.393 777.376 351.383C775.74 349.609 774.331 347.646 772.85 345.743C765.793 336.678 758.836 327.511 751.107 318.999C741.732 308.871 731.977 299.101 721.864 289.71C715.036 283.437 708.053 277.749 701.418 271.193C690.829 260.73 681.962 248.794 671.277 238.485L679.381 230.879Z" fill="#8EECF5"/>
<path d="M743.348 233.043L744.222 233.955C744.077 233.892 743.48 233.189 743.348 233.043Z" fill="#546B67"/>
<path d="M707.193 233.234L708.573 233.869C709.624 234.839 712.3 237.18 713.058 238.174C712.826 238.07 711.515 237.074 711.218 236.856L710.386 237.288C708.652 235.624 708.404 235.31 707.193 233.234Z" fill="#81BFBC"/>
<path d="M710.387 237.287L711.219 236.855C711.516 237.073 712.827 238.069 713.059 238.173C727.038 249.35 743.857 262.278 756.876 274.21C772.333 288.376 788.216 306.032 802.534 321.383C804.48 323.469 819.405 338.38 820.098 339.427C815.952 340.532 760.277 273.33 749.855 270.459C747.735 270.898 748.51 270.565 746.848 272.237C749.565 276.027 757.752 282.117 761.407 286.034C768.694 293.845 800.465 328.493 802.302 336.479C800.023 334.106 794.228 326.144 791.749 322.924C784.091 312.801 776.164 303.239 767.641 293.841C753.769 278.544 737.059 266.582 723.157 251.385C719.377 247.252 715.553 243.155 711.773 239.019L711.213 238.395L710.387 237.287Z" fill="#8EECF5"/>
<path d="M190.841 633.402C162.731 613.028 142.91 596.58 121.72 568.871C89.6836 526.977 81.0049 478.051 92.4932 427.116C103.478 378.415 130.354 341.038 165.366 306.511C200.021 272.154 247.329 239.599 297.809 239.617C302.713 239.979 310.65 239.871 315.022 240.581C351.311 246.466 385.018 265.076 409 292.991C413.903 298.699 418.672 305.319 423.293 311.302C428.038 317.448 433.546 324.175 437.966 330.298C442.301 336.305 447.584 343.444 451.853 348.988C455.005 353.081 474.624 373.683 475.134 374.856L474.882 375.393C454.716 398.909 436.132 423.738 419.253 449.714C414.623 456.876 410.009 464.038 405.561 471.299C399.758 480.773 393.93 492.231 387.099 500.92C375.68 515.444 362.186 529.703 349.816 543.537C311.005 528.188 215.773 605.351 190.841 633.402Z" fill="#EAE1F4"/>
<path d="M670.559 239.18C679.684 248.705 688.62 258.933 695.811 269.973C698.541 274.164 701.397 278.368 704.399 282.369C716.257 298.058 728.896 313.141 742.267 327.563L742.748 328.136C745.107 330.929 748.248 334.894 750.691 337.464L751.194 338.008C753.873 340.95 766.839 355.446 768.532 358.161C763.223 354.726 755.815 346.035 750.892 341.546C732.314 324.605 716.183 305.427 698.669 287.533C690.928 279.689 683.077 271.955 675.117 264.333C670.02 259.496 664.355 254.572 659.664 249.447C663.33 246.062 666.962 242.639 670.559 239.18Z" fill="#8EECF5"/>
<path d="M694.446 242.777L693.895 243.633C692.747 242.569 692.464 242.477 691.863 241.02C693.064 241.121 693.31 241.747 694.446 242.777Z" fill="#6E999D"/>
<path d="M693.895 243.633L694.445 242.777C695.443 243.876 695.801 244.558 697.07 245.129C717.336 262.402 734.175 281.422 753.408 299.701C759.85 305.824 765.976 312.14 772.21 318.47L772.679 319.049C774.93 321.733 777.488 324.567 779.88 327.128C796.217 344.617 812.01 362.362 826.775 381.221C813.896 371.849 801.519 359.64 790.021 348.59C780.249 339.2 769.731 330.031 760.468 320.255C744.819 303.74 730.668 285.667 715.81 268.406C708.656 260.095 700.789 251.995 693.895 243.633Z" fill="#8EECF5"/>
<path d="M694.445 242.777C695.196 243.403 696.528 244.408 697.07 245.129C695.801 244.558 695.443 243.876 694.445 242.777Z" fill="#6E999D"/>
<path d="M652.983 267.999C650.915 266.09 648.395 263.592 646.137 262.012L658.368 250.398C666.636 258.628 675.551 266.764 683.637 274.98C683.115 275.268 682.315 275.601 681.752 275.856C678.973 275.717 661.753 265.062 656.739 262.892C654.864 264.976 654.25 265.497 652.983 267.999Z" fill="#8EECF5"/>
<path d="M476.606 376.946C478.209 375.605 486.021 366.079 488.024 363.726C496.335 353.906 504.751 344.176 513.271 334.536C536.879 307.706 561.795 282.054 587.928 257.676C591.978 267.91 598.597 287.533 603.175 296.623C581.941 316.784 564.081 336.088 544.117 357.467C531.906 370.544 517.128 387.558 504.487 399.797C499.385 397.594 481.35 381.884 476.582 377.419L476.606 376.946Z" fill="#B9FBC0"/>
<path d="M649.91 278.878C646.468 275.644 642.524 271.75 638.939 268.769L645.334 263.004C651.388 268.249 658.763 275.97 664.512 281.754C677.577 294.901 691.205 308.965 703.169 323.125C703.6 324.535 704.118 325.339 704.8 326.646L704.495 327.59C701.303 326.342 686.236 309.69 680.008 306.106C679.158 304.612 678.667 304.57 677.14 303.525C676.551 302.158 671.72 298.296 670.105 297.455C662.99 291.52 656.912 284.731 649.91 278.878Z" fill="#EAE1F4"/>
<path d="M698.517 271.659L697.092 269.977L697.726 269.907L697.173 269.441C699.591 270.725 700.169 271.531 701.96 273.695C700.647 272.532 700.248 271.959 698.517 271.659Z" fill="#6E999D"/>
<path d="M637.989 269.891L647.408 278.69C661.641 292.5 675.367 307.497 689.033 321.897C696.921 330.208 705.192 337.72 713.32 345.748C723.529 355.886 733.542 366.217 743.356 376.737L775.141 410.442C778.835 414.348 783.515 420.04 787.333 423.507C788.587 425.042 789.037 425.088 789.342 426.763C785.394 425.482 779.827 422.008 776.705 419.257C751.922 397.417 728.726 373.847 704.548 351.328C682.834 331.104 659.773 312.973 638.277 292.64C634.258 288.778 630.158 285.003 625.977 281.317C629.949 277.825 634.149 273.593 637.989 269.891Z" fill="#EAE1F4"/>
<path d="M698.518 271.66C700.249 271.96 700.648 272.533 701.961 273.696C708.769 280.063 715.597 285.735 722.481 291.908C722.84 292.235 723.623 293.01 723.998 293.215C733.088 302.545 743.048 311.596 751.532 321.464C768.913 341.68 784.557 363.592 800.709 384.796C804.185 389.359 809.457 396.28 810.333 401.949L809.94 402.438C807.029 401.361 796.115 386.717 792.743 383.134C767.805 356.474 744.494 328.294 720.516 300.766C713.529 292.744 704.207 280.616 698.518 271.66Z" fill="#8EECF5"/>
<path d="M647.406 278.688C648.678 279.053 648.64 279.139 649.91 278.876C656.912 284.729 662.99 291.518 670.105 297.453L669.641 298.656C672.808 302.415 677.166 306.325 680.61 310.111C700.089 331.521 721.43 351.116 741.144 372.326C748.512 380.254 755.588 387.974 762.621 396.188C770.649 404.312 777.922 410.767 785.527 419.473L787.704 421.936L788.037 421.173L789.875 421.302C791.144 423.123 792.123 424.192 792.57 426.371C792.168 428.204 792.65 427.509 791.082 428.529C789.371 428.568 789.295 428.582 787.632 428.229C788.442 428.053 789.254 427.885 790.067 427.724L789.34 426.76C789.035 425.085 788.585 425.04 787.331 423.505C783.513 420.038 778.833 414.346 775.139 410.44L743.354 376.734C733.54 366.214 723.527 355.884 713.318 345.746C705.19 337.718 696.919 330.206 689.031 321.895C675.365 307.495 661.639 292.498 647.406 278.688Z" fill="#281D40"/>
<path d="M625.054 282.27C629.246 286.274 635.027 292.071 639.408 295.507C644.488 301.568 661.6 315.848 667.846 321.006C677.563 328.974 687.08 337.183 696.388 345.625C708.578 356.865 720.643 368.238 732.583 379.742C742.857 389.931 753.296 399.952 763.897 409.801C772.367 417.665 777.268 422.858 787.634 428.231C789.297 428.584 789.373 428.569 791.084 428.53C792.652 427.51 792.17 428.205 792.572 426.372C792.125 424.193 791.146 423.124 789.877 421.303C786.252 415.719 782.558 410.181 778.798 404.688C786.786 404.574 803.654 421.344 809.673 427.167C859.215 475.257 887.231 541.32 887.363 610.364C887.957 666.564 867.552 732.541 827.074 772.564C799.232 800.093 767.375 817.896 727.416 818.196C724.808 818.207 722.201 818.151 719.596 818.028C721.71 812.783 726.648 804.703 729.383 799.043C767.758 719.633 734.189 632.005 669.373 578.366C665.71 575.335 649.655 562.105 645.332 563.892L645.653 564.776L645.353 565.724C642.545 561.996 639.78 558.237 637.058 554.446C623.402 535.155 607.54 518.656 591.778 501.225C575.244 482.939 559.762 463.485 542.913 445.444C540.588 442.954 537.644 439.613 535.727 436.867C535.661 433.581 528.685 428.917 527.258 425.25C530.17 424.586 533.928 433.591 538.025 434.286C543.484 439.481 548.67 445.6 553.964 451.011C566.291 463.613 578.192 476.72 589.617 490.154C599.599 501.89 608.545 513.403 619.273 524.555L619.756 525.126C626.868 532.939 634.83 541.732 644.063 546.91C648.392 549.337 664.194 558.615 668.723 555.052C670.797 550.388 660.325 539.017 657.069 535.3C635.903 508.487 614.764 483.131 592.787 457.061L592.292 456.524C588.138 452.199 583.405 447.694 579.113 443.453C569.536 433.593 557.517 420.366 548.189 410.05C548.358 406.864 539.4 402.141 538.777 398.261L539.822 397.995C542.249 399.04 546.911 404.779 548.967 407.106L550.106 407.097C575.041 432.919 597.276 461.708 622.789 486.519C643.054 506.225 657.146 529.776 686.227 536.287C688.081 536.703 690.078 533.661 689.625 531.764C688.235 525.948 683.642 521.187 680.751 516.029C673.214 504.083 665.972 492.094 657.642 480.699C649.232 468.571 638.361 456.258 630.212 444.513L629.727 443.908L628.819 442.725L629.641 441.854L630.024 442.145C630.856 443.459 630.28 443.074 631.557 443.616C645.18 455.693 656.851 469.321 669.166 482.647C675.747 489.768 697.301 513.509 706.998 512.639C708.465 511.611 708.003 512.293 708.38 510.492C706.71 505.001 695.657 492.112 691.81 486.583C667.945 452.285 640.054 421.845 609.621 393.301C593.063 377.77 576.269 363.071 560.111 347.36L565.783 341.204C576.336 350.941 586.391 364.266 597.055 374.514C605.078 382.224 613.475 390.449 621.372 398.297C633.885 410.942 646.51 423.474 659.246 435.894C666.115 442.48 673.283 448.655 680.269 455.294C693.251 467.631 705.062 482.849 721.471 490.771C723.362 491.683 724.941 492.225 726.91 491.477C730.346 486.774 720.722 478.564 717.616 474.281C693.281 440.73 662.546 412.632 635.644 381.22L636.454 380.572L637.458 381.158L642.467 385.352L643.845 386.717C645.02 387.664 646.2 388.584 647.327 389.587L647.799 390.081C655.199 396.975 663.444 403.663 671.084 410.332C674.126 412.987 688.946 427.142 691.69 427.335L692.507 427.532C696.074 437.387 730.881 464.52 742.082 470.323C748.123 473.453 752.926 470.945 750.082 463.177C742.585 449.558 729.404 434.635 719.732 422.334C713.876 414.887 707.079 405.184 700.94 398.456L697.379 394.113L698.602 392.895C702.059 396.272 703.492 397.295 707.47 400.03C710.738 402.759 714.022 405.466 717.323 408.153C725.774 414.956 761.368 450.17 769.954 449.109C770.595 448.534 770.941 448.476 771.054 447.555C771.848 441.029 742.443 406.544 737.514 400.516C712.014 370.266 683.189 339.162 651.29 315.639C638.295 304.111 633.22 297.886 621.81 284.979L625.054 282.27Z" fill="#FDE4CF"/>
<path d="M620.793 285.973C623.089 288.135 624.443 289.912 626.406 292.373C621.994 295.924 618.435 296.125 613.68 292.95L620.793 285.973Z" fill="#FFEDE1"/>
<path d="M698.892 290.441C703.591 294.424 712.004 304.241 716.524 309.25C723.869 317.359 731.505 325.198 739.419 332.753C737.08 335.298 738.263 337.942 739.826 340.606C736.064 338.456 734.838 334.565 734.542 330.545L734.499 329.892C732.88 328.035 722.365 316.795 720.848 316.245C713.336 313.524 712.1 310.582 706.352 304.063C705.146 302.695 700.69 298.703 698.856 297.11L698.256 298.509C696.905 297.362 696.175 293.23 695.672 291.238L696.156 290.536C697.106 291.31 696.737 291.796 697.588 292.714C703.318 298.887 709.351 304.78 715.026 311.033C715.899 311.995 717.063 312.58 718.294 312.758C712.661 306.355 704.788 298.207 698.939 291.67C698.923 291.26 698.908 290.85 698.892 290.441Z" fill="#E7F3F3"/>
<path d="M722.48 291.906C723.804 292.4 723.315 291.977 723.997 293.213C723.622 293.008 722.839 292.233 722.48 291.906Z" fill="#3E5D60"/>
<path d="M626.405 292.371C640.327 309.323 654.219 327.551 669.248 343.346C679.711 354.297 690.352 365.075 701.167 375.677C717.667 391.53 733.377 405.772 747.151 424.226C749.34 427.159 755.782 434.908 758.489 437.15L762.797 442.354L763.25 442.867C763.773 443.488 764.167 444.064 764.642 444.722L764.213 444.95C755.49 440.512 728.89 415.52 721.171 407.349C701.217 383.483 683.551 367.224 660.401 346.717C652.022 339.208 643.056 331.768 634.849 324.141C625.867 315.795 617.034 307.069 608.09 298.622L613.679 292.948C618.434 296.123 621.993 295.922 626.405 292.371Z" fill="#FDE4CF"/>
<path d="M638.275 292.641C659.771 312.974 682.832 331.105 704.546 351.329C728.724 373.848 751.92 397.418 776.703 419.258C779.825 422.009 785.392 425.483 789.34 426.764L790.067 427.727C789.254 427.888 788.442 428.057 787.632 428.233C777.266 422.86 772.365 417.667 763.895 409.803C753.294 399.954 742.855 389.933 732.581 379.744C720.641 368.24 708.576 356.867 696.386 345.627C687.078 337.185 677.561 328.976 667.844 321.008C661.598 315.85 644.486 301.57 639.406 295.509C639.075 294.502 638.681 293.617 638.275 292.641Z" fill="#221628"/>
<path d="M785.529 419.472C777.924 410.766 770.651 404.312 762.623 396.187C755.59 387.973 748.514 380.253 741.146 372.325C721.432 351.115 700.091 331.52 680.612 310.11C677.168 306.324 672.81 302.415 669.643 298.656L670.107 297.453C671.722 298.294 676.553 302.156 677.142 303.523C677.884 304.575 678.595 305.954 680.01 306.104C685.453 312.585 707.34 332.148 715.141 338.294C715.267 338.393 716.626 338.341 716.935 338.334C725.856 349.04 736.245 358.845 745.488 369.354C760.068 385.932 774.322 399.559 786.26 418.274L785.529 419.472Z" fill="#CFBAF0"/>
<path d="M646.493 346.26C642.426 343.689 637.842 338.205 634.05 334.999C623.198 325.827 612.718 313.487 601.561 304.991L606.798 299.867C624.84 317.146 640.738 331.904 659.853 348.118C679.64 366.051 701.791 385.809 718.837 406.384L717.647 407.035C714.547 404.477 711.521 401.957 708.31 399.534C701.864 394.546 694.993 387.394 688.64 381.813C677.243 371.955 665.668 362.303 653.923 352.862C653.854 349.507 653.054 348.363 650.079 347.121C650.314 347.674 651.167 348.51 651.616 349.011C650.011 347.837 648.37 346.251 646.493 346.26Z" fill="#FDE4CF"/>
<path d="M677.141 303.523C678.668 304.568 679.159 304.61 680.009 306.104C678.594 305.954 677.883 304.575 677.141 303.523Z" fill="#B28EB5"/>
<path d="M587.303 319.373C591.705 314.64 595.512 310.689 600.296 306.344C609.526 312.269 618.275 324.694 625.142 333.131C633.805 343.774 641.929 354.957 650.996 365.277C679.875 398.145 716.16 424.229 741.81 459.967C743.33 462.085 748.402 467.674 746.47 470.049C743.343 470.181 741.834 468.671 739.357 466.811C737.362 464.517 734.52 460.362 732.452 457.726C727.686 451.713 722.67 445.903 717.416 440.312C712.722 435.388 707.917 430.847 702.997 426.17C672.114 396.812 639.467 369.354 608.29 340.306C601.077 333.586 594.449 326.196 587.303 319.373Z" fill="#FDE4CF"/>
<path d="M680.01 306.105C686.238 309.689 701.305 326.341 704.497 327.589L704.802 326.645C704.12 325.338 703.602 324.534 703.171 323.124C707.793 328.163 712.382 333.234 716.935 338.335C716.626 338.342 715.267 338.394 715.141 338.295C707.34 332.149 685.453 312.586 680.01 306.105Z" fill="#A06AAF"/>
<path d="M641.934 308.996C645.239 311.489 647.337 313.226 650.394 316.016C653.701 318.709 657.072 321.321 660.504 323.85L661.204 324.511L666.979 329.385L667.696 330.025L675.999 337.355L676.518 337.808C678.547 339.732 680.887 342.057 682.964 343.859L683.685 344.534C693.95 354.249 703.455 363.35 712.608 374.165C720.363 383.33 728.922 391.637 736.32 401.199C745.249 412.18 765.303 435.653 770.387 447.851C765.95 445.032 762.833 440.536 759.558 436.399C749.38 424.384 737.317 408.3 726.3 397.68C696.649 369.101 667.058 341.833 641.934 308.996Z" fill="#FFCFD2"/>
<path d="M650.393 316.018L651.289 315.641C683.188 339.164 712.013 370.268 737.513 400.518L736.319 401.201C728.921 391.639 720.362 383.332 712.607 374.167C703.454 363.352 693.949 354.251 683.684 344.536L682.963 343.861C680.886 342.059 678.546 339.734 676.517 337.81L675.998 337.357L667.695 330.027L666.978 329.387L661.203 324.513L660.503 323.852C657.071 321.323 653.7 318.711 650.393 316.018Z" fill="#281D40"/>
<path d="M643.061 384.874C638.919 380.815 634.517 377.001 630.313 373.009C614.043 357.562 596.844 341.274 581.738 324.722L585.944 320.52C595.018 329.77 603.892 339.211 613.708 347.665C616.708 350.25 619.709 352.9 622.65 355.551C636.434 368.054 650.307 380.458 664.268 392.764C691.818 417.139 714.964 437.127 738.011 466.327C729.08 460.459 720.659 453.848 712.837 446.566C707.598 441.601 697.855 430.868 692.505 427.531L691.688 427.334C689.634 424.229 647.957 388.128 643.061 384.874Z" fill="#FDE4CF"/>
<path d="M566.572 340.026C571.03 335.399 575.554 330.835 580.142 326.336C584.713 330.871 589.992 340.748 594.493 346.273C603.282 357.06 612.563 367.779 621.783 378.209C642.402 401.533 663.259 424.744 683.939 448.009C694.279 459.641 711.051 475.903 719.716 488.464C716.182 486.146 713.519 484.43 710.296 481.738C698.559 472.699 689.478 462.112 678.872 451.994C652.347 426.978 626.193 401.573 600.418 375.787C589.271 364.57 577.887 350.347 566.572 340.026Z" fill="#FDE4CF"/>
<path d="M626.511 329.992L625.422 331.071C623.755 329.084 622.614 327.158 621.232 324.977C623.261 326.673 624.676 328.124 626.511 329.992Z" fill="#F1C0E8"/>
<path d="M625.422 331.071L626.511 329.992C646.299 349.378 667.445 365.657 687.443 384.618C690.517 387.533 698.005 397.414 700.168 399.075C715.149 418.944 736.092 443.285 748.59 463.611C748.91 464.909 749.239 465.481 748.765 466.687C747.284 465.894 743.903 460.942 742.701 459.254C720.366 427.879 689.885 403.665 663.13 376.285C649.256 362.086 637.563 346.78 625.422 331.071Z" fill="url(#paint2_linear_2247_9015)"/>
<path d="M739.417 332.754C747.517 340.371 756.219 349.266 764.468 356.398L765.214 357.066C776.318 366.947 798.596 390.542 806.916 403.071C796.078 396.493 787.788 388.417 777.665 380.85C775.863 379.304 770.691 375.976 768.513 374.487C765.413 372.003 758.887 368.868 754.955 366.483C755.008 364.182 754.182 362.98 753.621 360.886C751.4 352.604 745.311 347.346 739.824 340.607C738.261 337.943 737.078 335.299 739.417 332.754Z" fill="#8EECF5"/>
<path d="M593.21 339.275L592.259 340.247C591.142 338.979 590.808 338.816 590.344 337.188C591.697 337.375 591.976 338.096 593.21 339.275Z" fill="#F1C0E8"/>
<path d="M592.258 340.246L593.209 339.273C610.467 356.947 628.581 373.102 644.05 392.555C645.805 394.763 648.313 397.236 650.25 399.348L682.465 434.445C696.27 449.556 708.53 463.98 720.557 480.592C722.321 483.029 724.711 485.233 725.901 488C725.839 489.488 726.123 488.891 725.091 489.88C723.793 489.887 723.414 489.924 722.26 488.639C717.668 483.531 713.562 478.154 708.93 473.047L668.918 428.966C651.795 409.77 634.382 390.91 617.791 371.177C609.369 361.16 599.849 350.83 592.258 340.246Z" fill="#FFCFD2"/>
<path d="M778.993 339.789L783.501 343.848L784.022 344.373L785.262 345.51L785.78 346.06C788.507 348.715 792.165 352.081 794.635 354.861C790.818 356.154 785.357 349.766 782.587 347.156C781.547 345.878 780.243 344.855 778.992 343.771C778.223 341.661 778.458 342.326 778.993 339.789Z" fill="#B9FBC0"/>
<path d="M646.492 346.262C648.369 346.253 650.01 347.839 651.615 349.013C651.166 348.512 650.313 347.676 650.078 347.123C653.053 348.365 653.853 349.509 653.922 352.864C651.133 350.582 649.101 348.753 646.492 346.262Z" fill="#FDE4CF"/>
<path d="M660.401 346.719C683.551 367.226 701.218 383.485 721.172 407.351L720.8 408.127L720.263 408.014L718.837 406.386C701.791 385.811 679.641 366.053 659.854 348.12L660.401 346.719Z" fill="#281D40"/>
<path d="M548.439 359.417C551.75 355.476 555.195 351.802 559.154 348.504C563.018 351.791 570.534 359.874 574.055 363.77C590.284 381.732 604.211 401.748 619.507 420.484C625.531 427.862 632.242 434.309 638.877 441.12L672.715 475.642C683.662 486.967 693.858 500.089 704.928 510.858C701.726 509.487 700.127 508.605 697.115 506.848C686.191 500.199 677.635 489.768 669.07 480.447C656.156 466.395 643.578 452.266 629.264 439.6C627.847 438.347 626.102 436.767 624.787 435.417C609.965 420.198 593.064 407.387 578.058 392.345C567.684 381.93 558.043 370.556 548.439 359.417Z" fill="#FBF8CC"/>
<path d="M567.535 391.698C559.198 383.047 550.769 374.484 542.25 366.011C543.629 364.453 545.279 362.478 546.733 361.047C554.701 368.309 567.126 383.422 575.669 392.209C590.731 407.7 617.37 427.72 628.398 444.735C624.704 443.892 619.682 444.327 616.494 446.441C616.846 447.96 616.614 447.374 617.798 448.622L617.912 450.075C616.416 448.68 614.752 446.791 613.329 445.268C597.513 426.913 585.684 408.802 567.535 391.698Z" fill="#FDE4CF"/>
<path d="M767.728 375.273C764.032 373.4 756.918 370.132 754.326 367.296L754.955 366.48C758.887 368.865 765.413 372 768.513 374.484L767.728 375.273Z" fill="#CE7E76"/>
<path d="M569.751 395.859L571.361 397.061L573.871 400.006L574.537 400.697C579.739 406.323 584.554 411.552 589.462 417.402C596.849 426.208 603.921 436.179 611.402 444.808C618.366 453.493 626.732 461.73 633.829 470.425C643.842 482.694 655.042 494.199 665.226 506.293C668.872 510.621 672.355 515.085 675.667 519.674C679.319 524.813 683.181 531.042 687.574 535.392C660.458 529.418 640.787 503.789 622.666 484.554C590.68 450.599 559.871 415.426 528.555 380.818C532.964 375.758 536.248 372.047 540.987 367.258C549.199 373.983 560.819 388.943 567.957 397.521C586.399 421.186 605.702 445.716 624.359 469.06C630.139 476.291 668.034 520.541 672.409 521.455C672.158 520.782 649.682 496.544 646.974 493.432C631.789 476.097 617.2 458.249 603.234 439.918C595.274 429.4 587.17 418.992 578.926 408.697C577.052 406.347 571.662 399.173 569.608 397.5L569.632 397.081L569.751 395.859Z" fill="#FDE4CF"/>
<path d="M584.445 371.406L583.954 372.578C583.145 371.701 582.979 371.401 582.332 370.384L582.741 370.145L584.445 371.406Z" fill="#F1C0E8"/>
<path d="M583.955 372.578L584.446 371.406C586.196 373.01 588.168 374.915 589.972 376.409L590.718 377.063C616.347 401.178 638.383 422.723 661.774 449.037L662.248 449.632C674.786 464.775 685.691 481.574 697.829 497.065C700.281 500.195 702.587 503.401 704.749 506.738L703.603 507.451C699.324 502.652 695.032 497.872 690.789 493.025C667.093 465.954 639.31 442.355 616.832 414.279C613.458 410.065 610.185 405.718 606.898 401.444C599.463 391.654 591.814 382.03 583.955 372.578Z" fill="#FFCFD2"/>
<path d="M767.729 375.273L768.513 374.484C770.691 375.973 775.864 379.301 777.666 380.847L777.266 381.818C773.88 379.295 771.303 377.512 767.729 375.273Z" fill="#605658"/>
<path d="M635.642 381.222C634.974 380.7 632.618 378.063 631.904 377.296L632.197 376.404L631.865 376.215C633.195 376.987 635.215 378.978 636.443 380.089L636.452 380.574L635.642 381.222Z" fill="#B28EB5"/>
<path d="M353.299 544.013C364.447 529.554 379.779 516.556 390.339 501.042C402.333 483.419 412.526 464.677 424.261 446.779C440.311 422.302 457.885 399.853 476.583 377.418C481.351 381.883 499.386 397.593 504.488 399.796C489.089 416.904 473.877 434.18 458.856 451.62C448.617 463.421 429.251 483.496 425.268 498.033C421.065 511.728 425.315 520.474 431.891 532.821C432.257 533.513 432.632 534.201 433.014 534.883C416.721 545.096 400.702 554.288 380.765 554.207C368.878 554.159 361.873 552.976 353.299 544.013Z" fill="url(#paint3_linear_2247_9015)"/>
<path d="M636.443 380.086L637.456 381.157L636.452 380.571L636.443 380.086Z" fill="#826B77"/>
<path d="M697.377 394.114C695.068 391.359 687.879 384.495 686.455 382.145C687.897 382.559 691.324 386.124 692.579 387.323C692.764 387.51 693.301 388.094 693.497 388.2L698.6 392.896L697.377 394.114Z" fill="#F1C0E8"/>
<path d="M550.104 407.097L548.965 407.106C546.909 404.779 542.247 399.04 539.82 397.995L538.775 398.261C539.398 402.141 548.356 406.864 548.187 410.05C545.945 408.534 527.47 388.738 524.408 385.465L527.65 381.953C534.169 388.621 544.167 399.948 550.104 407.097Z" fill="#B4F8D9"/>
<path d="M642.467 385.352L643.063 384.875L643.845 386.717L642.467 385.352Z" fill="#826B77"/>
<path d="M643.062 384.875C647.958 388.129 689.636 424.23 691.69 427.335C688.946 427.142 674.125 412.987 671.083 410.332C663.443 403.663 655.198 396.975 647.798 390.081L647.326 389.587C646.199 388.584 645.019 387.664 643.844 386.717L643.062 384.875Z" fill="#281D40"/>
<path d="M692.58 387.32L693.498 388.197C693.302 388.091 692.765 387.507 692.58 387.32Z" fill="#95708D"/>
<path d="M536.236 403.527L532.376 404.003C528.809 404.45 522.776 409.46 521.435 412.644C519.241 410.711 512.286 402.774 509.961 400.241C514.291 395.99 518.6 391.561 522.876 387.242C527.367 392.639 531.821 398.067 536.236 403.527Z" fill="#B9FBC0"/>
<path d="M567.535 391.699C585.684 408.803 597.513 426.914 613.329 445.269L611.401 444.808C603.92 436.179 596.848 426.208 589.461 417.402C584.553 411.552 579.738 406.323 574.536 400.697L573.87 400.006L571.36 397.061L569.743 395.271C568.791 394.295 567.782 393.393 566.777 392.471L567.535 391.699Z" fill="#1A1013"/>
<path d="M569.632 397.083C568.192 395.407 567.349 394.312 566.092 392.494L566.778 392.473C567.783 393.395 568.792 394.297 569.744 395.273L569.751 395.861L569.632 397.083Z" fill="#F1C0E8"/>
<path d="M537.325 402.563C535.165 400.157 532.259 397.196 530.75 394.449C532.994 395.879 538.27 401.733 540.31 403.989C540.584 404.302 540.89 404.756 541.208 404.882L543.745 407.521C542.46 406.95 542.865 407.105 541.433 406.911L541.068 406.888L540.337 406.036L537.795 403.085L537.325 402.563Z" fill="#81BFBC"/>
<path d="M569.742 395.27L571.359 397.06L569.749 395.858L569.742 395.27Z" fill="#826B77"/>
<path d="M567.955 397.521L569.606 397.5C571.66 399.173 577.05 406.347 578.924 408.697C587.168 418.992 595.272 429.4 603.232 439.918C617.198 458.249 631.787 476.097 646.972 493.432C649.68 496.544 672.156 520.782 672.407 521.455C668.032 520.541 630.137 476.291 624.357 469.06C605.7 445.716 586.397 421.186 567.955 397.521Z" fill="#281D40"/>
<path d="M700.168 399.076L700.939 398.457C707.078 405.185 713.875 414.888 719.731 422.335C729.403 434.636 742.584 449.559 750.081 463.178L748.59 463.612C736.092 443.286 715.149 418.945 700.168 399.076Z" fill="#221628"/>
<path d="M707.469 400.029L708.31 399.535C711.521 401.958 714.547 404.478 717.647 407.036L717.612 407.363L717.322 408.152C714.021 405.465 710.737 402.758 707.469 400.029Z" fill="#8A5E77"/>
<path d="M736.319 401.199L737.513 400.516C742.442 406.544 771.847 441.029 771.053 447.555C770.94 448.476 770.594 448.534 769.953 449.109C761.367 450.17 725.773 414.956 717.322 408.153L717.612 407.364L720.804 409.889C721.849 410.969 721.226 410.687 722.546 411.067C722.393 409.503 722.03 409.592 720.8 408.127L721.171 407.351C728.89 415.522 755.49 440.514 764.213 444.952L764.642 444.724C764.167 444.066 763.773 443.49 763.25 442.869L762.797 442.356L758.489 437.152L759.557 436.399C762.832 440.536 765.949 445.032 770.386 447.851C765.302 435.653 745.248 412.18 736.319 401.199Z" fill="#221628"/>
<path d="M517.529 416.638C515.876 413.603 508.045 406.532 508.021 403.075L509.382 401.707C517.263 411.831 529.376 424.043 538.024 434.286C533.927 433.591 530.17 424.586 527.258 425.25C528.685 428.917 535.661 433.581 535.727 436.867C532.367 433.831 521.683 421.12 517.529 416.638Z" fill="#8EECF5"/>
<path d="M521.436 412.644C522.777 409.46 528.81 404.45 532.377 404.003L536.237 403.527C544.41 413.148 551.634 423.586 559.694 433.139C582.894 460.637 605.923 488.286 629.179 515.725C640.254 528.793 650.777 542.279 663.332 553.944C655.645 551.337 642.546 545.154 636.354 539.748C622.223 527.412 609.75 512.376 597.935 497.827C575.567 470.28 549.873 445.842 526.856 418.91C525.068 416.819 523.304 414.656 521.436 412.644Z" fill="#FDE4CF"/>
<path d="M540.311 403.992L541.209 404.885C540.891 404.759 540.585 404.305 540.311 403.992Z" fill="#6E999D"/>
<path d="M528.626 460.513C519.725 449.748 503.468 427.12 496.682 415.571C499.656 412.031 502.804 408.641 506.116 405.414C513.445 414.129 522.893 430.629 530.86 440.967C559.177 477.185 588.15 512.886 617.765 548.051L618.223 548.642C626.573 559.357 634.096 565.221 642.84 574.729C637.265 572.152 631.936 568.33 626.914 564.79C602.507 547.591 584.742 525.088 565.524 502.499C555.102 490.017 544.333 477.83 533.229 465.951C532.551 463.708 530.42 461.946 528.626 460.513Z" fill="#FFCFD2"/>
<path d="M718.836 406.387L720.262 408.015C720.76 409.12 720.758 408.768 720.803 409.89L717.611 407.365L717.646 407.038L718.836 406.387Z" fill="#F1C0E8"/>
<path d="M541.434 406.914C542.866 407.108 542.461 406.953 543.746 407.524C555.552 419.548 566.541 432.275 578.365 444.346C582.671 448.824 588.181 453.971 592.066 458.72C602.842 471.889 614.367 484.527 625.227 497.587C632.917 506.834 639.745 516.942 647.576 526.117C649.045 527.907 654.387 534.836 655.886 536.135C658.56 539.406 666.561 548.934 666.252 553.064L665.45 553.19C656.331 548.302 610.149 490.708 600.985 479.753C582.925 458.161 557.828 429.661 541.434 406.914Z" fill="url(#paint4_linear_2247_9015)"/>
<path d="M720.264 408.016L720.801 408.129C722.031 409.594 722.394 409.505 722.547 411.069C721.227 410.689 721.85 410.971 720.805 409.891C720.76 408.769 720.762 409.121 720.264 408.016Z" fill="#A06AAF"/>
<path d="M518.271 419.405C517.863 418.295 517.772 417.803 517.529 416.637C521.683 421.119 532.366 433.83 535.726 436.866C537.643 439.612 540.587 442.953 542.912 445.443C559.761 463.484 575.243 482.938 591.777 501.224C607.539 518.655 623.401 535.154 637.057 554.445L635.598 554.704C620.159 534.989 604.231 516.374 587.196 498.036C584.288 494.69 581.296 491.363 578.445 487.97C560.633 466.772 541.469 446.555 523.706 425.342C521.939 423.323 520.127 421.343 518.271 419.405Z" fill="#221628"/>
<path d="M521.678 461.767C512.765 449.584 499.713 433.251 492.424 420.458L495.724 416.883C505.261 431.767 515.65 445.992 525.922 460.369C526.858 461.679 528.515 463.725 529.247 465.065C529.72 466.546 530.002 467.52 530.335 469.036L529.86 469.648C528.268 469.273 528.163 468.597 526.706 467.943C524.985 466.097 523.256 463.771 521.678 461.767Z" fill="#CFBAF0"/>
<path d="M786.258 418.277L788.037 421.176L787.704 421.939L785.527 419.475L786.258 418.277Z" fill="#F1C0E8"/>
<path d="M520.717 424.02C519.525 422.859 518.343 421.121 518.271 419.406C520.127 421.344 521.939 423.324 523.706 425.343C522.39 424.39 522.36 424.215 520.717 424.02Z" fill="#A3C4F3"/>
<path d="M491.319 421.797C494.916 426.49 497.873 432.069 501.458 436.771C507.926 445.253 514.087 455.127 521.032 463.136C523.339 466.197 525.688 469.225 528.08 472.221C525.332 473.88 520.54 476.211 519.274 478.851C507.266 463.352 493.728 447.041 483.598 430.346C486.212 427.294 488.541 424.697 491.319 421.797Z" fill="#CFBAF0"/>
<path d="M520.717 424.02C522.36 424.215 522.39 424.39 523.706 425.343C541.469 446.556 560.633 466.773 578.445 487.971C581.296 491.364 584.288 494.691 587.196 498.037C604.231 516.375 620.159 534.99 635.598 554.705C638.523 558.567 647.013 569.013 646.746 573.4L645.965 573.709C643.196 572.582 640.283 569.691 638.081 567.622C618.326 549.056 601.907 526.261 584.624 505.377C571.165 489.364 557.949 473.149 544.98 456.737C536.446 445.924 528.279 435.619 520.717 424.02Z" fill="#FFCFD2"/>
<path d="M511.957 481.407C503.392 471.281 487.674 448.915 480.623 436.478C480.225 435.777 480.778 433.735 481.384 432.746L482.269 432.621C483.464 433.6 492.21 446.505 494.167 449.147C501.171 458.435 508.33 467.605 515.64 476.654C514.619 478.382 513.67 480.38 511.957 481.407Z" fill="#CFBAF0"/>
<path d="M622.008 434.148C624.848 436.764 627.107 438.965 629.64 441.854L628.818 442.725C626.098 439.665 624.423 437.476 622.008 434.148Z" fill="#B28EB5"/>
<path d="M478.577 436.109C485.415 448.227 502.556 472.823 511.409 482.879C508.551 485.891 501.754 488.126 497.6 490.239L494.288 486.021C486.625 474.333 475.906 459.89 467.346 448.984C471.13 444.727 474.873 440.436 478.577 436.109Z" fill="#CFBAF0"/>
<path d="M630.023 442.145C630.327 442.424 631.374 443.321 631.556 443.616C630.279 443.074 630.855 443.459 630.023 442.145Z" fill="#B395A2"/>
<path d="M579.112 443.453C583.404 447.694 588.137 452.199 592.291 456.524L592.786 457.061C614.763 483.131 635.902 508.487 657.068 535.3L655.886 536.134C654.387 534.835 649.045 527.906 647.576 526.116C639.745 516.941 632.917 506.833 625.227 497.586C614.367 484.526 602.842 471.888 592.066 458.719C588.181 453.97 582.671 448.823 578.365 444.345L579.112 443.453Z" fill="#281D40"/>
<path d="M628.398 444.736C638.999 457.214 650.053 473.169 659.934 486.225C663.865 491.418 687.456 528.924 687.476 531.899C685.092 529.749 683.591 527.194 681.65 524.661C663.46 500.917 642.883 478.876 623.262 456.295C621.916 454.746 618.919 451.725 617.912 450.076L617.798 448.623C616.614 447.375 616.846 447.961 616.494 446.442C619.682 444.328 624.704 443.893 628.398 444.736Z" fill="#FFCFD2"/>
<path d="M466.368 450.355C477.043 463.283 483.804 474.581 493.577 487.628L495.901 490.77C494.447 492.556 492.884 494.569 491.38 496.284C481.404 482.732 472.914 467.293 462.98 454.398L466.368 450.355Z" fill="#CFBAF0"/>
<path d="M452.266 466.115C454.237 463.844 459.063 457.072 461.816 457.344C463.573 459.084 466.023 463.551 467.848 466.087C471.59 473.995 481.019 488.014 486.493 494.953C483.204 498.506 478.71 500.128 475.152 503.159L472.652 499.488C465.351 489.035 457.572 477.736 452.266 466.115Z" fill="#CFBAF0"/>
<path d="M528.625 460.512C530.419 461.945 532.55 463.707 533.228 465.95C533.807 467.154 534.174 467.994 534.889 469.136L534.367 470.186L532.57 467.512C530.88 465.364 529.296 463.154 528.625 460.512Z" fill="#A3C4F3"/>
<path d="M521.031 463.137L521.678 461.766C523.256 463.77 524.985 466.096 526.706 467.942C528.835 470.764 531.942 475.081 534.274 477.565C535.669 481.665 561.957 512.677 566.335 517.665C582.542 536.132 602.53 554.114 615.84 575.016C606.753 567.231 599.016 554.132 590.455 545.678C567.08 522.593 548.06 498.275 528.079 472.222C525.687 469.226 523.338 466.198 521.031 463.137Z" fill="#061212"/>
<path d="M529.246 465.062L531.896 468.538C532.581 469.618 534.915 473.133 535.287 474.095L534.996 474.768L532.942 473.902C533.546 475.195 534.114 476.147 534.273 477.564C531.941 475.08 528.834 470.762 526.705 467.94C528.162 468.594 528.267 469.271 529.859 469.646L530.334 469.034C530.001 467.518 529.719 466.543 529.246 465.062Z" fill="#90DBF4"/>
<path d="M467.848 466.086C470.326 468.065 476.249 478.832 478.754 482.171C484.524 489.862 500.887 513.877 507.751 519.971L508.493 519.201C506.784 517.276 503.33 514.002 503.204 511.626C514.029 524.609 523.318 535.895 535.757 547.461C542.269 553.517 551.886 560.545 557.427 566.528C558.636 567.884 559.175 568.69 560.801 569.534C560.537 568.098 559.333 567.042 558.291 565.765C543.319 549.47 528.575 530.356 514.093 513.467C509.268 507.84 504.793 501.415 499.813 495.92C498.702 494.271 497.143 492.373 495.902 490.771L493.578 487.629L494.287 486.021L497.599 490.239C520.363 521.335 548.857 552.144 573.75 581.778C577.034 585.688 601.855 614.822 603.557 615.81C606.413 610.138 591.119 592.039 588.035 587.459C581.886 578.327 574.667 569.064 569.311 559.461C573.417 563.717 580.308 574.606 582.668 576.713L582.935 577.167C586.513 583.139 611.84 613.444 603.355 617.411C599.096 616.727 592.072 611.162 588.572 608.398C583.874 604.395 579.028 599.904 574.406 595.765L568.709 591.012L559.493 581.521C561.13 581.179 561.102 580.992 561.36 579.583C567.919 588.674 576.417 595.5 584.752 602.909C587.632 605.469 596.52 613.634 600.004 614.08C599.614 613.438 599.44 613.085 598.961 612.507L598.407 611.988C595.07 607.721 590.626 603.724 587.279 599.466C572.146 580.215 554.423 565.549 536.225 549.492L535.554 548.849L531.281 544.704C529.705 542.865 520.062 533.26 518.347 531.828C520.313 534.988 525.435 540.413 528.044 543.311C528.74 544.064 529.804 545.297 530.528 545.944C532.659 548.049 534.143 549.645 536.096 551.903L535.194 553.96C522.047 537.728 507.609 522.553 494.976 505.903C492.186 502.225 489.324 498.599 486.493 494.952C481.019 488.013 471.59 473.994 467.848 466.086Z" fill="#061212"/>
<path d="M531.896 468.538L532.57 467.512L534.367 470.186C542.68 482.313 551.704 491.766 560.484 503.522C566.337 511.256 572.626 519.712 579.734 526.332L578.414 526.513C568.608 516.731 561.891 506.751 553.375 495.906C547.583 488.53 541.073 481.565 535.288 474.095C534.916 473.133 532.581 469.618 531.896 468.538Z" fill="#061212"/>
<path d="M451.43 467.68C458.42 479.734 462.833 488.838 471.485 500.469L473.07 502.897C471.234 504.404 469.023 506.404 467.543 508.291C463.612 503.557 447.161 479.674 444.814 474.528C446.933 472.151 449.185 469.937 451.43 467.68Z" fill="#CFBAF0"/>
<path d="M534.367 470.187L534.889 469.137L537.305 471.98L537.77 472.543C546.827 482.365 555.532 492.506 563.868 502.947L560.483 503.523C551.703 491.767 542.68 482.314 534.367 470.187Z" fill="#90DBF4"/>
<path d="M528.079 472.223C548.06 498.276 567.08 522.594 590.455 545.679C599.016 554.133 606.753 567.232 615.84 575.017C602.53 554.115 582.542 536.133 566.335 517.666C561.957 512.678 535.669 481.666 534.274 477.566C534.115 476.149 533.547 475.197 532.943 473.904L534.997 474.77L535.288 474.097C541.073 481.567 547.584 488.532 553.376 495.908C561.892 506.753 568.608 516.733 578.414 526.515L580.805 528.612L581.271 529.112C582.993 530.466 583.47 530.973 585.455 531.781C585.916 531.809 586.86 531.534 587.37 531.418C590.746 535.522 594.63 539.192 597.99 543.321C603.235 549.767 628.335 587.966 627.282 594.154C627.14 594.99 626.776 594.99 626.133 595.418C624.303 594.351 607.038 577.024 604.416 574.261C590.327 559.419 574.594 546.492 560.98 531.282C556.277 526.028 551.226 518.44 546.623 512.74C537.506 501.451 528.342 490.174 519.273 478.853C520.539 476.213 525.331 473.882 528.079 472.223Z" fill="#98F5E1"/>
<path d="M443.485 476.027C448.527 485.355 457.391 500.41 464.735 508.12C462.544 512.107 457.363 514.712 453.378 517.08L450.507 513.017C446.426 506.447 437.906 493.779 434.652 487.391C436.758 484.109 440.886 479.365 443.485 476.027Z" fill="#CFBAF0"/>
<path d="M515.638 476.652C523.223 486.048 530.869 495.395 538.576 504.691C541.33 507.998 548.515 516.083 550.597 519.408L549.383 520.617C537.354 508.541 522.618 494.457 511.955 481.405C513.668 480.378 514.617 478.38 515.638 476.652Z" fill="#98F5E1"/>
<path d="M511.409 482.879C519.778 492.385 526.537 499.455 535.519 508.387L536.15 509.056C564.628 539.181 594.52 565.541 623.065 595.332C619.873 593.763 613.28 590.672 610.566 588.8C590.543 574.988 574.876 557.581 558.818 539.605C555.121 535.466 545.277 524.663 541.5 521.763C540.65 520.382 540.565 520.004 539.246 519.053L538.987 519.645C539.952 521.198 540.073 521.335 541.333 522.671C554.526 537.197 572.645 558.434 586.585 571.098C587.455 575.11 595.583 579.089 598.766 583.172C603.774 589.596 601.96 588.475 597.896 595.391L597.129 595.468C593.389 592.036 585.909 577.642 582.669 576.713C580.309 574.606 573.418 563.717 569.312 559.461C574.668 569.064 581.887 578.327 588.036 587.459C591.12 592.039 606.414 610.138 603.558 615.81C601.856 614.822 577.035 585.688 573.751 581.778C548.858 552.144 520.364 521.335 497.6 490.239C501.754 488.126 508.551 485.891 511.409 482.879Z" fill="#98F5E1"/>
<path d="M446.591 521.978C443.156 515.713 429.511 498.151 430.916 491.934C432.478 490.493 431.649 490.713 433.302 490.66C436.301 492.538 445.795 509.079 449.426 514.058L451.85 517.422C450.675 518.77 448.382 521.598 447.166 522.658L446.591 521.978Z" fill="#CFBAF0"/>
<path d="M495.902 490.77C497.143 492.372 498.702 494.27 499.813 495.919L498.894 496.23L497.938 495.816C495.818 497.475 495.668 498.661 496.091 501.356L495.79 501.838C494.344 500.18 492.762 498.044 491.381 496.284C492.885 494.569 494.448 492.556 495.902 490.77Z" fill="#90DBF4"/>
<path d="M425.267 498.031C426.882 496.352 426.626 494.598 428.347 492.762L429.197 492.774C429.897 494.293 429.882 493.568 429.485 495.001L428.374 495.099L428.22 496.016C422.902 510.912 427.006 519.995 434.679 532.983C440.943 543.741 449.581 554.278 457.911 563.565L457.218 565.839C446.838 554.282 441.852 547.746 433.013 534.881C432.631 534.199 432.256 533.511 431.89 532.819C425.314 520.472 421.064 511.726 425.267 498.031Z" fill="#313E5A"/>
<path d="M486.493 494.949C489.324 498.596 492.186 502.222 494.976 505.9C507.609 522.55 522.047 537.725 535.194 553.957C543.139 563.718 551.002 572.331 559.493 581.518L568.709 591.009C567.896 595.41 568.231 596.794 569.273 601.163C569.685 602.882 570.126 604.98 570.665 606.635L571.652 610.496L573.713 617.204C573.224 619.475 573.661 619.067 572.256 620.446C563.47 611.011 553.569 602.284 545.233 592.468C535.441 580.939 526.347 567.72 516.493 556.251C501.117 538.353 488.101 522.884 475.152 503.155C478.71 500.124 483.204 498.502 486.493 494.949Z" fill="#98F5E1"/>
<path d="M499.812 495.919C504.792 501.414 509.267 507.839 514.092 513.466C528.574 530.355 543.318 549.469 558.29 565.764L557.426 566.527C551.885 560.544 542.268 553.516 535.756 547.46C523.317 535.894 514.028 524.608 503.203 511.625C501.198 508.57 498.144 505.437 495.789 501.838L496.09 501.356C495.667 498.661 495.817 497.475 497.937 495.816L498.893 496.23L499.812 495.919Z" fill="#98F5E1"/>
<path d="M428.22 496.016C430.412 497.38 436.901 512.109 439.806 515.069C440.932 516.216 443.787 521.241 445.248 523.037L446.301 524.583C442.596 528.32 440.528 529.922 435.849 532.369L435.12 532.756L434.679 532.983C427.006 519.995 422.902 510.912 428.22 496.016Z" fill="#CFBAF0"/>
<path d="M471.487 500.468L472.653 499.484L475.153 503.155C488.102 522.884 501.118 538.353 516.494 556.251C526.348 567.72 535.442 580.939 545.234 592.468C553.57 602.284 563.471 611.011 572.257 620.446L577.2 625.612C580.247 628.861 585.398 633.024 586.343 636.873C585.846 638.777 586.344 638.007 584.757 639.237C579.547 639.949 571.489 630.141 566.867 626.919C562.54 623.747 558.459 620.069 554.075 617.006C527.792 598.644 505.936 579.739 484.287 556.107L483.814 555.594C471.253 542.863 462.297 531.731 451.85 517.421L449.426 514.057L450.509 513.014L453.38 517.077C481.71 555.64 516.307 589.177 555.732 616.294C556.856 617.978 559.636 619.481 561.408 620.581C559.465 618.542 557.473 616.551 555.433 614.609L554.333 613.565C539.732 598.97 524.817 584.261 511.901 568.119C496.655 549.065 481.217 529.929 466.622 510.369L467.869 509.186C499.776 550.877 530.635 590.779 569.676 626.206C573.93 630.066 577.681 634.294 582.222 637.89C584.079 637.966 583.235 638.173 584.847 637.243C585.114 634.99 583.423 634.173 581.644 632.307C568.831 618.861 554.334 605.149 542.287 591.138C533.737 581.06 526.371 569.467 517.656 559.585C501.408 541.16 487.154 522.957 473.072 502.896L471.487 500.468Z" fill="#061212"/>
<path d="M467.545 508.292C469.025 506.405 471.236 504.405 473.072 502.898C487.154 522.959 501.408 541.162 517.656 559.587C526.371 569.469 533.737 581.062 542.287 591.14C554.334 605.151 568.831 618.863 581.644 632.309C583.423 634.175 585.114 634.992 584.847 637.245C583.235 638.175 584.079 637.968 582.222 637.892C577.681 634.296 573.93 630.068 569.676 626.208C530.635 590.781 499.776 550.879 467.869 509.188L467.545 508.292Z" fill="#98F5E1"/>
<path d="M560.484 503.521L563.869 502.945C568.635 508.544 583.946 525.986 587.37 531.415C586.86 531.531 585.916 531.806 585.455 531.778C583.805 529.783 581.689 528.059 579.735 526.331C572.627 519.711 566.337 511.255 560.484 503.521Z" fill="#8EECF5"/>
<path d="M703.604 507.451L704.75 506.738L705.815 508.753L705.453 509.191C704.499 508.399 704.434 508.375 703.604 507.451Z" fill="#CFBAF0"/>
<path d="M464.736 508.117L466.621 510.369C481.216 529.929 496.654 549.065 511.9 568.119C524.816 584.261 539.731 598.97 554.332 613.565C554.701 613.956 555.001 614.361 555.432 614.609L555.731 616.294C516.306 589.177 481.709 555.64 453.379 517.077C457.364 514.709 462.545 512.104 464.736 508.117Z" fill="#98F5E1"/>
<path d="M535.518 508.387C536.175 508.851 536.063 508.566 536.149 509.056L535.518 508.387Z" fill="#3E5D60"/>
<path d="M451.848 517.422C462.295 531.732 471.251 542.864 483.812 555.595L484.285 556.108C505.934 579.74 527.79 598.645 554.073 617.007C558.457 620.07 562.538 623.748 566.865 626.92C566.579 629.54 566.134 642.521 565.642 643.895C532.609 627.478 467.254 554.782 447.164 522.658C448.38 521.598 450.673 518.77 451.848 517.422Z" fill="#98F5E1"/>
<path d="M541.332 522.669C540.072 521.333 539.951 521.196 538.986 519.643L539.245 519.051C540.564 520.002 540.649 520.38 541.499 521.761L541.332 522.669Z" fill="#4BA6A1"/>
<path d="M550.599 519.41C553.187 522.628 555.52 525.492 557.845 528.925C554.964 526.219 552.143 523.45 549.385 520.619L550.599 519.41Z" fill="#8EECF5"/>
<path d="M445.248 523.039L446.59 521.98L447.165 522.66C467.255 554.784 532.61 627.48 565.643 643.897L565.411 646.224C560.548 646.93 555.643 648.283 550.759 648.719C533.444 650.263 521.954 644.359 507.721 636.052L507.679 634.167C527.919 646.116 537.189 649.724 560.728 645.522C548.692 638.097 536.61 630.665 524.686 623.063C499.691 607.129 477.706 587.15 457.218 565.841L457.911 563.567C485.305 592.955 510.868 613.211 544.893 634.063C549.712 637.283 555.732 640.713 560.152 644.136L560.745 644.6L561.273 644.181L562.215 644.175C562.66 644.82 546.401 633.54 545.62 633.001C536.519 626.132 528.82 617.875 520.493 610.165C492.075 583.853 469.072 555.834 446.301 524.585L445.248 523.039Z" fill="#061212"/>
<path d="M446.302 524.586C469.073 555.835 492.076 583.854 520.494 610.166C528.821 617.876 536.52 626.133 545.621 633.002L544.894 634.064C510.869 613.212 485.306 592.956 457.912 563.568C449.582 554.281 440.944 543.744 434.68 532.986L435.121 532.759L435.85 532.372C440.529 529.925 442.597 528.323 446.302 524.586Z" fill="#98F5E1"/>
<path d="M578.414 526.513L579.735 526.332C581.689 528.06 583.805 529.784 585.455 531.779C583.47 530.971 582.993 530.464 581.271 529.11L580.805 528.61L578.414 526.513Z" fill="#1B3C42"/>
<path d="M528.045 543.311C525.436 540.413 520.314 534.988 518.348 531.828C520.063 533.26 529.706 542.865 531.282 544.704L530.644 545.343L528.045 543.311Z" fill="#6E999D"/>
<path d="M353.299 544.013C361.873 552.976 368.878 554.159 380.765 554.207C400.702 554.288 416.721 545.096 433.014 534.883C441.853 547.748 446.839 554.284 457.219 565.841C477.707 587.15 499.692 607.129 524.687 623.063C536.611 630.665 548.693 638.097 560.729 645.522C537.19 649.724 527.92 646.116 507.68 634.167C444.482 600.264 428.505 647.456 407.505 696.78C398.113 718.838 386.928 742.461 374.786 763.127L373.428 765.237C371.169 763.493 366.147 757.777 363.937 755.37C332.547 721.169 293.905 695.744 254.026 672.62C250.999 670.865 248.062 668.352 244.656 667.458C242.725 666.951 241.838 666.531 240.141 665.53C270.36 631.858 303.305 599.406 333.321 565.623C339.648 558.628 346.634 550.475 353.299 544.013Z" fill="#98F5E1"/>
<path d="M190.841 633.404C215.773 605.353 311.005 528.19 349.816 543.539C344.496 549.53 335.56 558.82 331.018 564.813C326.303 569.021 318.546 577.77 314.014 582.582L279.061 619.884C245.819 655.356 213.317 687.834 184.871 727.862C154.512 770.581 142.2 809.597 181.682 852.109C198.407 870.118 220.955 889.207 246.606 891.165C266.347 892.219 279.847 879.047 293.421 866.736C326.905 836.368 352.4 804.813 376.11 766.303C384.723 770.543 410.825 800.855 418.85 809.348C425.712 816.611 434.05 824.625 441.153 831.956C448.162 839.189 455.977 844.912 462.971 851.608L462.941 851.811C461.151 852.777 454.137 858.341 452.008 859.961C447.124 863.714 442.076 867.249 436.879 870.555C397.783 895.94 361.45 914.901 314.439 920.209C267.378 925.522 224.785 914.233 187.745 884.149C154.326 856.618 130.619 819.448 125.873 776.013C120.774 729.342 142.824 690.205 171.157 655.207C177.256 647.672 184.639 640.917 190.841 633.404Z" fill="url(#paint5_linear_2247_9015)"/>
<path d="M528.045 543.309L530.644 545.341L530.529 545.942C529.805 545.295 528.741 544.062 528.045 543.309Z" fill="#3E5D60"/>
<path d="M530.642 545.342L531.28 544.703L535.553 548.848L536.224 549.491C554.422 565.548 572.145 580.214 587.278 599.465C590.625 603.723 595.069 607.72 598.406 611.987L598.96 612.506C599.439 613.084 599.613 613.437 600.003 614.079C596.519 613.633 587.631 605.468 584.751 602.908C576.416 595.499 567.918 588.673 561.359 579.582L560.845 578.693L560.483 579.111L560.028 579.655C558.501 578.137 554.865 572.871 552.903 570.62C547.367 564.267 541.773 558.124 536.095 551.902C534.142 549.644 532.658 548.048 530.527 545.943L530.642 545.342Z" fill="#98F5E1"/>
<path d="M603.034 548.53L601.766 546.253L602.104 545.965L604.435 547.643L604.431 548.5L603.034 548.53Z" fill="#E7F3F3"/>
<path d="M604.436 547.645L605.135 548.593L604.432 548.502L604.436 547.645Z" fill="#7D838C"/>
<path d="M603.034 548.53L604.431 548.5L605.134 548.591C610.952 554.116 640.82 579.952 647.918 575.326C649.922 571.824 647.243 568.631 645.352 565.724L645.652 564.776L645.331 563.892C649.654 562.105 665.709 575.335 669.372 578.366C734.188 632.005 767.757 719.633 729.382 799.043C726.647 804.703 721.709 812.783 719.595 818.028C715.254 826.343 709.696 833.367 704.032 840.734C685.861 864.37 664.398 880.513 636.445 890.685C573.927 913.436 513.354 889.801 462.941 851.811L462.971 851.608C475.404 842.932 498.101 818.644 508.745 806.677C516.445 798.019 522.13 788.278 528.46 779.308C550.683 747.82 559.172 715.164 562.752 677.327C563.36 670.894 565.964 652.367 565.411 646.223L565.643 643.896C566.135 642.522 566.58 629.541 566.866 626.921C571.488 630.143 579.546 639.951 584.756 639.239C586.343 638.009 585.845 638.779 586.342 636.875C585.397 633.026 580.246 628.863 577.199 625.614C581.98 620.242 585.334 614.759 588.572 608.397C592.072 611.161 599.096 616.726 603.355 617.41C611.84 613.443 586.513 583.138 582.935 577.166L582.668 576.712C585.908 577.641 593.388 592.035 597.128 595.467L597.895 595.39C601.959 588.474 603.773 589.595 598.765 583.171C595.582 579.088 587.454 575.109 586.584 571.097C592.672 576.687 619.582 601.38 627.34 596.033C632.267 588.333 608.49 556.113 603.034 548.53Z" fill="#B9FBC0"/>
<path d="M536.095 551.902C541.773 558.124 547.367 564.267 552.903 570.62C554.865 572.871 558.501 578.137 560.028 579.655L560.483 579.111L560.845 578.693L561.359 579.582C561.101 580.991 561.129 581.178 559.492 581.52C551.001 572.333 543.138 563.72 535.193 553.959L536.095 551.902Z" fill="#1B3C42"/>
<path d="M376.11 766.302C352.4 804.812 326.905 836.368 293.421 866.736C279.847 879.047 266.347 892.218 246.606 891.164C220.955 889.206 198.407 870.118 181.682 852.109C142.2 809.597 154.512 770.581 184.871 727.862C213.317 687.834 245.819 655.355 279.061 619.883L314.014 582.581C318.546 577.769 326.303 569.021 331.018 564.812L333.32 565.622C303.304 599.405 270.359 631.857 240.14 665.529C215.462 692.617 192.726 718.142 174.015 749.633C148.102 793.246 158.473 828.125 194.946 861.273C212.8 877.499 240.821 897 266.88 883.879C288.99 870.993 310.106 846.515 327.631 828.013C343.765 809.804 361.011 785.675 373.427 765.236L374.785 763.125L376.853 764.729L376.11 766.302Z" fill="#546B67"/>
<path d="M558.292 565.766C559.334 567.043 560.538 568.099 560.802 569.535C559.176 568.691 558.637 567.885 557.428 566.529L558.292 565.766Z" fill="#81BFBC"/>
<path d="M568.71 591.012L574.407 595.765C573.638 597.347 573.053 598.809 571.921 600.147L569.274 601.166C568.232 596.797 567.897 595.413 568.71 591.012Z" fill="#B9FBC0"/>
<path d="M574.406 595.766C579.028 599.905 583.874 604.396 588.572 608.399C585.334 614.761 581.98 620.244 577.199 625.616L572.256 620.45C573.661 619.071 573.224 619.479 573.713 617.208C575.538 615.728 574.949 614.655 575.75 612.157L576.001 611.395C576.417 610.522 576.934 609.03 577.298 608.08C578.165 603.821 575.497 603.438 572.119 602.934L571.92 600.148C573.052 598.81 573.637 597.348 574.406 595.766Z" fill="#98F5E1"/>
<path d="M569.273 601.164L571.92 600.145L572.119 602.931C571.63 604.338 571.362 605.312 570.665 606.636C570.126 604.981 569.685 602.883 569.273 601.164Z" fill="#B9FBC0"/>
<path d="M572.118 602.934C575.496 603.438 578.164 603.821 577.297 608.08C575.211 608.507 575.304 608.441 573.631 609.734L571.651 610.5L570.664 606.639C571.361 605.315 571.629 604.341 572.118 602.934Z" fill="#B4F8D9"/>
<path d="M573.633 609.732C575.306 608.439 575.213 608.505 577.299 608.078C576.935 609.028 576.418 610.52 576.002 611.393L573.633 609.732Z" fill="#FBF8CC"/>
<path d="M571.652 610.496L573.632 609.73L576.001 611.391L575.75 612.154C574.949 614.652 575.538 615.724 573.713 617.204L571.652 610.496Z" fill="#B9FBC0"/>
<path d="M554.332 613.566L555.432 614.61C555.001 614.362 554.701 613.957 554.332 613.566Z" fill="#546B67"/>
<path d="M555.432 614.609C557.472 616.551 559.464 618.542 561.407 620.581C559.635 619.481 556.855 617.978 555.731 616.294L555.432 614.609Z" fill="#6E999D"/>
<path d="M507.679 634.167L507.721 636.052C476.322 618.5 447.919 618.79 430.214 653.588C411.686 690.005 397.977 729.745 376.853 764.731L374.785 763.127C386.927 742.461 398.112 718.838 407.504 696.78C428.504 647.456 444.481 600.264 507.679 634.167Z" fill="url(#paint6_linear_2247_9015)"/>
<path d="M376.852 764.731C397.976 729.745 411.685 690.005 430.213 653.588C447.918 618.79 476.321 618.5 507.72 636.052C521.953 644.359 533.443 650.263 550.758 648.719C555.642 648.283 560.547 646.93 565.41 646.224C565.963 652.368 563.359 670.895 562.751 677.328C559.171 715.165 550.682 747.821 528.459 779.309C522.129 788.279 516.444 798.02 508.744 806.678C498.1 818.645 475.403 842.933 462.97 851.609C455.976 844.913 448.161 839.19 441.152 831.957C434.049 824.626 425.711 816.612 418.849 809.349C410.824 800.856 384.722 770.544 376.109 766.304L376.852 764.731Z" fill="#98F5E1"/>
<path d="M544.893 634.062L545.62 633C546.401 633.539 562.66 644.819 562.215 644.174L561.273 644.18L560.745 644.599L560.152 644.135C555.732 640.712 549.712 637.282 544.893 634.062Z" fill="#81BFBC"/>
<path d="M373.427 765.234C361.011 785.673 343.765 809.803 327.631 828.012C310.106 846.514 288.99 870.991 266.88 883.877C240.821 896.998 212.8 877.498 194.946 861.272C158.473 828.124 148.102 793.245 174.015 749.632C192.726 718.141 215.462 692.615 240.14 665.527C241.837 666.528 242.724 666.948 244.655 667.455C248.061 668.349 250.998 670.862 254.025 672.617C293.904 695.741 332.546 721.166 363.936 755.367C366.146 757.774 371.168 763.49 373.427 765.234Z" fill="#8EECF5"/>
<defs>
<linearGradient id="paint0_linear_2247_9015" x1="754.134" y1="273.693" x2="803.455" y2="246.648" gradientUnits="userSpaceOnUse">
<stop stop-color="#D6F8F9"/>
<stop offset="1" stop-color="#ACF8FE"/>
</linearGradient>
<linearGradient id="paint1_linear_2247_9015" x1="802.972" y1="267.91" x2="754.651" y2="292.768" gradientUnits="userSpaceOnUse">
<stop stop-color="#DCF2F5"/>
<stop offset="1" stop-color="#B9FFFF"/>
</linearGradient>
<linearGradient id="paint2_linear_2247_9015" x1="692.914" y1="391.367" x2="682.458" y2="402.195" gradientUnits="userSpaceOnUse">
<stop stop-color="#FEE3D1"/>
<stop offset="1" stop-color="#FAD4E1"/>
</linearGradient>
<linearGradient id="paint3_linear_2247_9015" x1="514.109" y1="419.606" x2="343.319" y2="525.086" gradientUnits="userSpaceOnUse">
<stop stop-color="#EFD9E9"/>
<stop offset="1" stop-color="#E1D7FD"/>
</linearGradient>
<linearGradient id="paint4_linear_2247_9015" x1="608.585" y1="475.619" x2="599.298" y2="482.709" gradientUnits="userSpaceOnUse">
<stop stop-color="#FFDAD2"/>
<stop offset="1" stop-color="#EFE4E0"/>
</linearGradient>
<linearGradient id="paint5_linear_2247_9015" x1="383.472" y1="556.979" x2="247.989" y2="915.301" gradientUnits="userSpaceOnUse">
<stop stop-color="#7FF2E0"/>
<stop offset="1" stop-color="#A1EBFF"/>
</linearGradient>
<linearGradient id="paint6_linear_2247_9015" x1="487.912" y1="709.05" x2="395.545" y2="685.24" gradientUnits="userSpaceOnUse">
<stop stop-color="#002A22"/>
<stop offset="1" stop-color="#4D5D59"/>
</linearGradient>
</defs>
</svg>
