<svg width="1024" height="1024" viewBox="0 0 1024 1024" fill="none" xmlns="http://www.w3.org/2000/svg">
<path d="M214.509 188.638C213.188 187.859 211.159 186.497 211.007 185.124C210.327 179 212.773 142.056 214.272 138.211C215.029 138.423 216.835 138.883 216.985 139.307C219.097 145.293 217.027 185.392 214.509 188.638Z" fill="#FEFEFE"/>
<path d="M538.83 224.305C595.273 177.323 664.092 137.86 740.57 144.488C793.651 149.088 825.36 174.148 858.253 213.765C871.613 229.891 884.633 246.295 897.304 262.968C935.761 312.901 967.934 362.234 962.138 428.301C956.592 491.519 911.709 544.792 872.881 592.413C867.758 598.745 862.448 604.923 856.959 610.939C855.486 612.575 848.23 620.452 847.206 622.06L845.263 623.097C839.924 598.889 828.796 576.566 813.485 557.255C810.13 553.023 806.018 547.332 801.997 543.805C801.855 525.989 801.86 508.172 802.01 490.356C802.086 464.161 804.215 438.865 782.101 420.62C774.925 414.699 767.623 408.846 760.451 402.937L725.566 373.938C725.326 359.643 724.034 340.749 722.921 326.407C708.209 326.261 688.552 327.789 673.623 328.625C657.656 317.512 638.456 301.696 622.718 289.542C594.512 268.111 566.547 246.364 538.83 224.305Z" fill="#98F5E1"/>
<path d="M194.733 191.772C187.976 185.489 164.178 159.778 160.258 151.735C160.63 150.199 161.198 150.19 162.69 148.91C165.614 149.394 192.814 183.059 196.786 188.285C196.609 190.147 196.214 189.999 194.733 191.772Z" fill="#FEFEFE"/>
<path d="M801.999 543.806C806.02 547.333 810.132 553.024 813.487 557.256C828.798 576.567 839.926 598.89 845.265 623.098C846.784 627.778 847.162 634.572 847.405 639.563C853.278 760.138 742.456 846.994 637.286 878.955C612.881 886.372 577.212 895.545 551.522 896.627C550.086 896.302 546.088 897.232 544.435 897.488C531.126 899.543 517.645 900.112 504.181 900.647C506.197 906.472 507.804 914.649 508.958 920.746C516.901 924.968 536.135 926.65 539.811 928.884C540.033 930.535 539.92 930.452 539.143 931.969C536.517 932.994 514.489 927.427 510.176 926.431C513.707 935.534 518.214 944.418 521.339 953.697C522.31 956.581 525.189 962.744 522.044 964.728L520.933 964.305C518.509 961.485 508.176 935.531 506.262 930.71C501.972 935.268 497.865 940.477 494.191 945.543C491.101 949.805 489.435 954.416 484.04 956.466L483.379 956.112C483.772 949.227 500.801 932.182 504.691 924.541C501.646 921.567 489.607 910.046 491.62 905.828C495.232 904.399 495.795 905.998 497.85 908.685C499.337 910.63 500.749 912.304 502.41 914.092C501.891 909.413 500.981 905.615 499.862 901.06C477.945 901.293 456.657 901.236 434.832 899.293C426.938 898.59 418.184 898.375 410.499 896.662C347.997 889.587 292.443 872.387 240.457 835.782C196.153 804.587 163.728 764.334 156.812 708.86C154.97 694.085 155.645 680.004 155.96 665.089C157.552 635.683 155.369 608.505 152.983 579.396C153.076 578.244 151.602 565.179 151.407 563.348C149.388 544.871 147.095 526.425 144.528 508.016C138.072 458.894 134.019 409.648 138.404 360.23C141.325 327.307 151.437 295.443 166.338 266.013C163.385 264.764 162.702 264.929 162.054 261.743C163.068 257.979 166.521 257.259 169.864 256.776C188.681 221.656 209.005 193.153 247.098 178.708C252.022 176.841 258.36 173.035 263.474 172.195C265.135 173.222 264.467 172.542 265.38 174.455C264.962 176.855 256.21 179.969 253.771 180.9C230.132 189.929 212.285 198.32 197.264 219.622C193.156 226.604 181.196 241.006 179.029 248.373C177.427 258.098 172.645 261.919 168.59 269.495C152.799 299.002 144.39 327.519 141.332 360.526C139.273 383.668 138.861 406.928 140.099 430.128C140.281 433.445 140.887 436.174 141.172 439.401C141.691 445.282 141.5 451.943 142.036 457.758C142.416 461.885 143.236 465.995 143.624 470.434C144.469 480.096 145.535 489.818 146.397 499.483C146.581 501.551 147.337 503.933 147.619 506.079C147.993 508.928 147.845 512.506 148.246 515.218C151.175 535.021 153.031 555.149 155.725 574.95C156.835 579.618 157.273 588.911 157.731 594.008C159.77 616.692 159.695 638.591 159.379 661.298C158.565 675.997 158.032 690.877 159.609 705.635C170.917 811.433 285.985 872.437 380.313 888.703C391.336 890.604 403.113 892.377 414.141 892.956C415.402 893.026 416.664 893.067 417.926 893.079C432.275 897.84 519.653 898.694 533.731 894.59C536.239 894.431 538.745 894.236 541.248 894.005C670.096 881.7 831.739 807.289 843.6 658.138C844.384 648.275 843.141 636.714 842.196 626.882C837.685 598.635 821.116 569.711 801.952 548.778L801.999 543.806Z" fill="#FEFEFE"/>
<path d="M144.676 216.341C142.005 216.776 138.978 216.19 139.908 212.769C141.657 211.106 147.59 210.154 150.143 209.727C162.509 207.658 174.871 203.264 187.275 201.658C189.12 201.471 189.318 201.289 191.013 202.081C192.218 203.554 191.984 202.758 191.979 204.467C190.806 206.024 149.827 215.604 144.676 216.341Z" fill="#FEFEFE"/>
<path d="M350.676 343.451C356.759 337.65 369.175 328.154 376.042 322.766L412.483 293.74L465.611 250.853C476.975 241.651 488.449 232.167 500.224 223.494C503.765 220.885 508.023 218.54 512.33 217.761C523.865 215.673 529.471 218.128 538.831 224.305C566.548 246.364 594.513 268.111 622.719 289.542C638.457 301.696 657.657 317.512 673.624 328.625C688.553 327.789 708.21 326.261 722.922 326.407C724.035 340.749 725.327 359.643 725.567 373.938L760.452 402.937C767.624 408.846 774.926 414.699 782.102 420.62C804.216 438.865 802.087 464.161 802.011 490.356C801.861 508.172 801.856 525.989 801.998 543.805L801.951 548.777C801.397 560.32 801.848 574.176 801.862 585.999C801.936 609.56 801.856 633.12 801.623 656.679C801.498 676.292 801.503 695.905 801.638 715.517C801.679 725.33 802.316 736.125 801.399 745.776C799.046 770.543 777.456 767.688 760.026 768.437L717.456 770.371L587.282 776.406L540.052 778.529C532.928 778.868 522.994 779.091 516.089 779.786C457.423 783.157 398.732 786.047 340.019 788.454C326.186 788.74 311.896 789.849 298.003 790.425C276.932 791.297 255.918 795.242 247.484 770.298C243.062 757.218 242.256 746.365 241.438 732.736C239.912 720.918 239.194 703.868 238.102 691.281L227.706 562.246C226.704 550.021 226.42 536.529 225.194 524.631C224.496 511.786 223.054 498.852 222.334 485.983C220.433 452.022 241.906 434.782 265.09 415.018C276.763 405.075 288.595 395.321 300.583 385.761C300.357 372.951 298.712 358.991 298.415 345.671C314.085 345.508 334.979 344.648 350.676 343.451ZM535.81 226.624C524.755 218.595 513.163 217.797 502.232 226.229C476.402 246.154 450.917 266.955 425.602 287.53L385.81 319.789C375.832 327.757 366.486 334.468 356.816 343.113L384.046 341.904C410.959 320.123 438.053 298.565 465.323 277.232C472.945 271.246 480.613 265.319 488.328 259.452C500.286 250.318 504.953 245.304 520.415 243.437C533.278 245.163 542.274 253.607 552.293 261.31L583.343 285.627C601.992 300.26 622.686 315.149 640.741 329.713C649.659 329.502 658.572 329.12 667.475 328.565C660.718 322.733 652.755 317.165 645.601 311.698L609.565 284.051C584.823 265.112 560.237 245.969 535.81 226.624ZM514.566 247.268C504.416 249.986 496.23 257.587 488 263.963C478.16 271.567 468.386 279.255 458.678 287.027C436.02 304.846 411.487 323.173 389.803 341.913C405.936 341.197 422.655 339.98 438.67 339.467L636.178 329.927C618.778 317.213 601.591 304.209 584.625 290.921C568.48 278.236 552.162 265.326 535.682 253.071C529.411 248.407 522.502 245.847 514.566 247.268ZM727.897 408.318C727.962 423.192 730.029 442.529 730.571 457.737C730.84 465.294 731.792 486.791 732.821 493.838L733.037 498.707C733.255 501.122 733.532 503.671 733.662 506.08C736.649 504.103 739.678 502.19 742.745 500.341L744.654 499.32C757.842 492.517 784.334 474.966 795.327 465.198C792.941 462.86 790.241 460.49 787.65 458.373C767.595 441.984 748.183 424.401 727.897 408.318ZM758.846 494.477L753.888 497.584C733.482 509.638 713.614 522.481 693.481 535.005L638.525 568.583C627.148 575.584 614.973 583.741 603.567 590.383L693.885 668.644C710.32 682.671 727.612 698.709 743.69 713.275C759.384 727.494 778.079 744.018 792.758 758.977C794.848 756.291 797.306 752.488 797.718 749.125C798.898 739.51 798.499 728.065 798.521 718.304L798.529 657.73C797.945 613.875 798.908 569.387 798.478 525.482C798.288 506.135 798.987 485.994 798.356 466.737C786.821 475.5 771.071 485.993 758.846 494.477ZM277.541 509.229C265.658 502.566 253.707 496.025 241.691 489.605C237.239 487.185 229.932 482.686 225.803 480.761C225.912 489.343 227.337 514.888 228.515 523.163C228.81 541.352 231.446 566.55 232.952 585.045L240.895 683.82L243.66 720.521C243.806 722.642 244.484 734.86 244.785 735.963C245.909 751.145 247.288 768.43 256.413 781.136C264.926 771.758 273.67 762.592 282.637 753.647C289.859 746.793 298.44 737.231 305.441 729.885L337.599 696.587L433.359 596.232C427.102 591.896 417.565 586.963 410.84 583.189C395.752 574.742 380.603 566.405 365.395 558.176L296.104 519.853C289.801 516.366 283.93 512.643 277.541 509.229ZM490.471 625.964L360.76 716.497L313.766 748.695C308.44 752.353 298.679 758.459 293.897 762.204C283.531 768.94 270.361 777.809 259.879 783.95C273.13 789.867 281.262 788.341 295.424 787.677C306.527 787.156 317.976 786.233 329.073 785.967L471.484 778.814L505.863 777.133C511.512 776.87 519.027 776.73 524.517 776.051C533.883 776.387 553.291 774.859 563.375 774.326C585.578 773.165 607.787 772.12 630 771.191L724.783 766.876C743.214 766.103 761.844 765.608 780.241 764.362C783.368 764.15 786.359 762.887 789.294 761.759C781.438 755.862 770.887 750.146 762.203 745.214C748.236 737.423 734.309 729.561 720.422 721.629C704.554 712.601 688.741 703.477 672.984 694.257C660.539 686.94 647.05 678.554 634.212 672.127C605.181 654.357 575.171 638.065 545.751 620.929C537.298 616.005 528.225 610.729 519.474 606.441C510.676 611.76 499.126 620.005 490.471 625.964ZM689.553 669.017C667.392 650.66 645.588 631.878 624.153 612.68C618.59 607.767 605.109 596.911 601.223 592.131C590.34 598.543 579.542 605.099 568.833 611.798C564.11 614.7 557.814 618.809 553.016 621.28L610.689 654.073C620.162 659.554 632.358 667.847 641.845 672.357C645.846 675.002 653.564 679.023 658.063 681.653C670.709 689.158 683.412 696.567 696.17 703.881L750.421 734.783C760.831 740.765 771.463 747.432 781.992 753.071C760.978 732.801 738.538 713.198 716.956 693.475C708.057 685.342 698.811 676.671 689.553 669.017ZM713.279 329.71C701.186 330.457 689.156 330.814 677.04 331.577C685.833 337.935 694.009 344.401 702.521 351.119L721.612 366.286C721.437 353.93 720.664 341.823 720.087 329.49C718.276 329.537 714.96 329.518 713.279 329.71ZM661.323 332.289L425.296 343.368C384.903 345.256 342.095 347.859 301.746 348.797C303.823 386.294 306.219 423.773 308.932 461.23L311.558 503.519C311.949 510.023 312.17 518.718 312.85 524.965L363.255 553.394C372.813 558.686 387.027 565.939 395.899 571.584C416.007 570.069 436.417 569.074 456.583 567.782L534.961 562.63L579.262 560.044C586.472 559.636 593.91 559.187 601.146 558.91C602.434 558.86 602.28 558.999 603.266 559.707L603.24 560.738C600.803 562.693 572.961 563.381 567.877 563.557C549.888 565.09 530.511 565.77 512.419 566.801L445.123 571.156C432.188 571.995 412.539 572.609 400.3 574.183C429.387 589.517 459.783 607.123 488.518 623.526C498.74 616.575 509.189 609.277 519.59 602.644C529.806 607.597 540.008 614.731 550.329 619.997C568.064 608.155 588.465 596.214 606.713 584.943L668.064 546.638C689.086 533.959 709.988 521.081 730.767 508.007C729.067 495.635 728.563 477.193 727.746 464.122L722.388 370.808C716.23 364.804 707.201 358.315 700.343 352.858C691.295 345.659 681.977 338.035 672.326 331.728L661.323 332.289ZM725.978 379.221C726.29 385.635 726.574 397.165 727.474 403.329C746.481 418.665 764.746 434.374 783.527 449.916C786.308 452.218 796.53 461.38 798.478 462.65C797.123 445.803 792.812 434.953 780.021 424.052C766.553 412.635 752.963 401.362 739.255 390.234C736.82 388.222 727.592 380.088 725.978 379.221ZM299.957 390.878C289.945 398.288 281.088 406.401 271.396 414.288C251.636 430.371 230.787 445.15 226.136 472.306C226.011 473.04 226.096 473.253 226.334 473.921C227.386 473.415 227.013 473.732 227.569 473.126C252.356 452.034 277.967 431.841 302.497 410.236C301.761 405.093 301.429 396.93 300.76 391.5C300.492 391.293 300.225 391.085 299.957 390.878ZM301.812 415.448L255.971 453.94C248.323 460.24 234.302 471.028 227.68 477.826C237.266 483.993 251.329 490.926 261.673 496.664C277.871 505.243 293.397 514.817 309.527 523.257C309.328 512.886 303.126 417.121 301.812 415.448ZM436.568 597.803C424.662 609.386 412.625 622.595 401.219 634.766L365.961 671.778C332.332 706.941 297.549 741.813 264.243 777.152C275.03 770.49 285.705 763.65 296.265 756.634C337.818 728.415 379.166 699.895 420.305 671.076L467.722 638.19C473.061 634.418 480.249 629.652 485.287 625.782C474.665 618.992 463.114 612.826 452.221 606.395C450.243 605.228 438.339 598.357 436.568 597.803Z" fill="#4E4148"/>
<path d="M356.816 343.114C366.486 334.469 375.832 327.758 385.81 319.79L425.602 287.531C450.917 266.956 476.402 246.155 502.232 226.23C513.163 217.798 524.755 218.596 535.81 226.625C531.137 231.365 524.409 238.186 520.415 243.438C504.953 245.305 500.286 250.319 488.328 259.453C480.613 265.32 472.945 271.247 465.323 277.233C438.053 298.566 410.959 320.124 384.046 341.905L356.816 343.114Z" fill="#F7F8EF"/>
<path d="M535.809 226.625C560.236 245.97 584.822 265.113 609.564 284.052L645.6 311.699C652.754 317.166 660.717 322.734 667.474 328.566C658.571 329.121 649.658 329.503 640.74 329.714C622.685 315.15 601.991 300.261 583.342 285.628L552.292 261.311C542.273 253.608 533.277 245.164 520.414 243.438C524.408 238.186 531.136 231.365 535.809 226.625Z" fill="#98F5E1"/>
<path d="M514.566 247.267C522.502 245.846 529.411 248.406 535.682 253.07C552.162 265.325 568.48 278.235 584.625 290.92C601.591 304.208 618.778 317.212 636.178 329.926L438.67 339.466C440.248 334.79 450.651 323.134 454.294 318.958C459.45 313.049 465.703 304.909 470.809 299.343C477.454 292.096 512.643 253.097 514.566 247.267Z" fill="#98F5E1"/>
<path d="M389.803 341.915C411.487 323.175 436.02 304.848 458.678 287.029C468.386 279.257 478.16 271.569 488 263.965C496.23 257.589 504.416 249.988 514.566 247.27C512.643 253.1 477.454 292.099 470.809 299.346C465.703 304.912 459.45 313.052 454.294 318.961C450.651 323.137 440.248 334.793 438.67 339.469C422.655 339.982 405.936 341.199 389.803 341.915Z" fill="#F7F8EF"/>
<path d="M677.039 331.575C689.155 330.812 701.185 330.455 713.278 329.708C714.959 329.516 718.275 329.535 720.086 329.488C720.663 341.821 721.436 353.928 721.611 366.284L702.52 351.117C694.008 344.399 685.832 337.933 677.039 331.575Z" fill="#CFBAF0"/>
<path d="M301.746 348.796C342.095 347.858 384.903 345.255 425.296 343.367L661.323 332.288L672.326 331.727C681.977 338.034 691.295 345.658 700.343 352.857C707.201 358.314 716.23 364.803 722.388 370.807L727.746 464.121C728.563 477.192 729.067 495.634 730.767 508.006C709.988 521.08 689.086 533.958 668.064 546.637L606.713 584.942C588.465 596.213 568.064 608.154 550.329 619.996C540.008 614.73 529.806 607.596 519.59 602.643C509.189 609.276 498.74 616.574 488.518 623.525C459.783 607.122 429.387 589.516 400.3 574.182C412.539 572.608 432.188 571.994 445.123 571.155L512.419 566.8C530.511 565.769 549.888 565.089 567.877 563.556C572.961 563.38 600.803 562.692 603.24 560.737L603.266 559.706C602.28 558.998 602.434 558.859 601.146 558.909C593.91 559.186 586.472 559.635 579.262 560.043L534.961 562.629L456.583 567.781C436.417 569.073 416.007 570.068 395.899 571.583C387.027 565.938 372.813 558.685 363.255 553.393L312.85 524.964C312.17 518.717 311.949 510.022 311.558 503.518L308.932 461.229C306.219 423.772 303.823 386.293 301.746 348.796ZM466.643 388.714C454.196 389.489 350.854 394.532 348.04 396.165L347.658 397.178C348.433 398.221 348.666 398.276 350.122 398.358C360.192 397.79 465.705 392.249 468.514 390.931L469.085 390.007L468.692 389.062C467.47 388.615 467.94 388.673 466.643 388.714ZM632.131 414.726L423.424 426.706L374.618 429.539C369.959 429.833 356.273 430.397 352.28 431.571L352.103 432.375C355.963 433.829 357.714 433.343 361.875 433.044C414.651 430.383 467.406 427.33 520.137 423.883L597.387 419.503C604.016 419.132 640.162 417.853 643.017 415.924C640.683 413.916 635.296 414.584 632.131 414.726ZM640.656 442.709C558.889 446.753 477.155 451.437 395.461 456.761C387.817 457.26 354.457 458.068 350.007 460.234L349.804 460.991C351.541 462.355 353.181 462.021 355.452 461.953C417.841 457.501 480.43 454.113 542.889 450.655C558.405 449.796 636.996 447.614 645.112 444.186L645.91 443.222C643.672 442.247 643.199 442.469 640.656 442.709ZM633.347 471.717L410.619 484.509L371.054 486.993C367.664 487.206 354.767 487.741 352.457 488.552L352.012 489.469C353.821 491.198 363.904 490.072 366.625 489.92L506.09 481.482C520.769 480.676 639.859 475.874 646.367 472.826C644.625 470.819 636.019 471.585 633.347 471.717ZM643.243 499.212C582.233 502.083 522.874 506.25 462.064 509.984C437.802 511.409 413.547 512.955 389.3 514.623C382.911 515.04 357.518 515.668 353.638 517.962L353.596 518.665C355.417 519.571 356.39 519.255 358.519 519.073C383.62 517.882 408.703 516.342 433.762 514.453L526.549 508.469C552.683 506.832 578.826 505.336 604.976 503.981C612.317 503.587 642.485 502.859 647.644 500.56C647.842 500.301 647.823 500.402 647.813 500.247L647.181 499.304C645.262 499.032 645.18 499.038 643.243 499.212ZM647.521 528.229C580.846 531.381 514.202 535.179 447.6 539.621L387.983 543.298C383.503 543.564 358.315 544.426 356.72 545.836C356.914 547.132 356.664 546.565 357.669 547.474C372.304 547.411 389.571 545.995 404.382 545.115L487.025 539.954C536.187 536.799 585.409 534.472 634.596 531.72C637.685 531.547 646.174 531.38 648.492 529.961L648.542 528.545L649.098 528.762L648.732 529.112C647.94 528.234 648.334 528.314 647.521 528.229Z" fill="url(#paint0_linear_2247_9385)"/>
<path d="M727.474 403.331C726.574 397.167 726.291 385.637 725.979 379.223C727.593 380.09 736.82 388.224 739.255 390.236C752.963 401.364 766.553 412.637 780.021 424.054C792.812 434.955 797.124 445.805 798.479 462.652C796.531 461.382 786.308 452.22 783.527 449.918C764.746 434.376 746.481 418.667 727.474 403.331Z" fill="#98F5E1"/>
<path d="M350.122 398.359C348.666 398.277 348.433 398.222 347.658 397.179L348.04 396.166C350.854 394.533 454.196 389.49 466.643 388.715C467.94 388.674 467.47 388.616 468.692 389.063L469.085 390.008L468.514 390.932C465.705 392.25 360.192 397.791 350.122 398.359Z" fill="#4E4148"/>
<path d="M227.569 473.127C227.013 473.733 227.386 473.416 226.334 473.922C226.096 473.254 226.011 473.041 226.136 472.307C230.787 445.151 251.636 430.372 271.396 414.289C281.088 406.402 289.945 398.289 299.957 390.879C300.225 391.086 300.492 391.294 300.76 391.501C301.429 396.931 301.761 405.094 302.497 410.237C277.967 431.842 252.356 452.035 227.569 473.127Z" fill="#F7F8EF"/>
<path d="M732.82 493.836C731.791 486.789 730.839 465.292 730.57 457.735C730.028 442.527 727.961 423.19 727.896 408.316C748.182 424.399 767.595 441.982 787.65 458.371C790.241 460.488 792.941 462.858 795.327 465.196C784.334 474.964 757.842 492.515 744.654 499.318C743.944 498.888 743.227 498.472 742.502 498.068C740.212 496.792 734.854 493.254 732.82 493.836Z" fill="#98F5E1"/>
<path d="M361.876 433.046C357.715 433.345 355.964 433.831 352.104 432.377L352.281 431.573C356.274 430.399 369.96 429.835 374.619 429.541L423.425 426.708L632.132 414.728C635.297 414.586 640.684 413.918 643.018 415.926C640.163 417.855 604.017 419.134 597.388 419.505L520.138 423.885C467.407 427.332 414.652 430.385 361.876 433.046Z" fill="#4E4148"/>
<path d="M227.68 477.827C234.302 471.029 248.323 460.241 255.971 453.941L301.812 415.449C303.126 417.122 309.328 512.887 309.527 523.258C293.397 514.818 277.871 505.244 261.673 496.665C251.329 490.927 237.266 483.994 227.68 477.827Z" fill="#F7F8EF"/>
<path d="M355.453 461.954C353.182 462.022 351.542 462.356 349.805 460.992L350.008 460.235C354.458 458.069 387.818 457.261 395.462 456.762C477.156 451.438 558.89 446.754 640.657 442.71C643.2 442.47 643.673 442.248 645.911 443.223L645.113 444.187C636.997 447.615 558.406 449.797 542.89 450.656C480.431 454.114 417.842 457.502 355.453 461.954Z" fill="#4E4148"/>
<path d="M758.846 494.478C771.071 485.994 786.821 475.501 798.356 466.738C798.987 485.995 798.288 506.136 798.478 525.483C798.908 569.388 797.945 613.876 798.529 657.731C795.421 658.397 789.918 659.856 787.102 660.199C781.466 648.689 775.289 637.452 768.591 626.525C758.24 609.254 743.06 586.391 739.028 566.449C737.254 557.25 737.622 547.766 740.103 538.732C742.712 528.877 747.352 519.432 751.852 510.314C753.745 506.481 759.07 499.11 759.76 495.794L758.846 494.478ZM776.494 520.945C778.958 525.495 793.858 542.449 798.085 545.082C798.205 540.953 798.627 541.186 795.795 538.262C792.013 534.357 780.718 522.975 776.494 520.945Z" fill="#98F5E1"/>
<path d="M366.625 489.921C363.904 490.073 353.821 491.199 352.012 489.47L352.457 488.553C354.767 487.742 367.664 487.207 371.054 486.994L410.619 484.51L633.347 471.718C636.019 471.586 644.625 470.82 646.367 472.827C639.859 475.875 520.769 480.677 506.09 481.483L366.625 489.921Z" fill="#4E4148"/>
<path d="M225.803 480.762C229.932 482.687 237.239 487.186 241.691 489.606C253.707 496.026 265.658 502.567 277.541 509.23C274.139 511.036 259.412 513.767 254.752 515.009C246.465 517.219 236.433 519.782 228.515 523.164C227.337 514.889 225.912 489.344 225.803 480.762Z" fill="#F7F8EF"/>
<path d="M732.82 493.838C734.854 493.256 740.211 496.794 742.501 498.07C743.226 498.474 743.943 498.89 744.653 499.32L742.744 500.341C740.313 499.393 735.636 498.56 733.036 498.707L732.82 493.838Z" fill="#90DBF4"/>
<path d="M753.889 497.584L758.847 494.477L759.761 495.793C759.071 499.109 753.746 506.48 751.853 510.313C747.353 519.431 742.713 528.876 740.104 538.731C737.623 547.765 737.255 557.249 739.029 566.448C743.061 586.39 758.241 609.253 768.592 626.524C775.29 637.451 781.467 648.688 787.103 660.198L782.097 661.419C782.076 661.363 782.055 661.308 782.035 661.252C766.08 624.741 730.767 591.865 732.989 549.494C733.948 531.21 746.311 514.124 753.935 498.311C753.92 498.068 753.904 497.826 753.889 497.584Z" fill="#8EECF5"/>
<path d="M603.566 590.385C614.972 583.743 627.147 575.586 638.524 568.585L693.48 535.007C713.613 522.483 733.481 509.64 753.887 497.586C753.902 497.828 753.918 498.07 753.933 498.313C746.309 514.126 733.946 531.212 732.987 549.496C730.765 591.867 766.078 624.743 782.033 661.254C782.053 661.31 782.074 661.365 782.095 661.421C762.021 665.585 736.806 665.69 716.272 667.372C711.025 667.802 698.102 667.817 693.884 668.646L603.566 590.385Z" fill="#90DBF4"/>
<path d="M733.037 498.708C735.637 498.561 740.314 499.394 742.745 500.342C739.678 502.191 736.649 504.104 733.662 506.081C733.532 503.672 733.255 501.123 733.037 498.708Z" fill="#8EECF5"/>
<path d="M358.519 519.074C356.39 519.256 355.417 519.572 353.596 518.666L353.638 517.963C357.518 515.669 382.911 515.041 389.3 514.624C413.547 512.956 437.802 511.41 462.064 509.985C522.874 506.251 582.233 502.084 643.243 499.213C645.18 499.039 645.262 499.033 647.181 499.305L647.813 500.248C647.823 500.403 647.842 500.302 647.644 500.561C642.485 502.86 612.317 503.588 604.976 503.982C578.826 505.337 552.683 506.833 526.549 508.47L433.762 514.454C408.703 516.343 383.62 517.883 358.519 519.074Z" fill="#4E4148"/>
<path d="M277.542 509.23C283.931 512.644 289.802 516.367 296.105 519.854L365.396 558.177C380.604 566.406 395.753 574.743 410.841 583.19C417.566 586.964 427.103 591.897 433.36 596.233L337.6 696.588L305.442 729.886C298.441 737.232 289.86 746.794 282.638 753.648C279.657 749.185 258.237 743.13 252.633 738.901C250.919 737.608 246.994 735.712 244.786 735.964C244.485 734.861 243.807 722.643 243.661 720.522L240.896 683.821L232.953 585.046C231.447 566.551 228.811 541.353 228.516 523.164C236.434 519.782 246.466 517.219 254.753 515.009C259.413 513.767 274.14 511.036 277.542 509.23Z" fill="#FFCFD2"/>
<path d="M798.085 545.082C793.858 542.449 778.958 525.495 776.494 520.945C780.718 522.975 792.013 534.357 795.795 538.262C798.627 541.186 798.205 540.953 798.085 545.082Z" fill="#FEFEFE"/>
<path d="M225.195 524.633C226.421 536.531 226.705 550.023 227.707 562.248L238.103 691.283C239.195 703.87 239.913 720.92 241.439 732.738C238.567 731.506 236.514 729.453 233.898 727.745C220.709 719.135 209.649 708.146 197.422 698.377C184.499 688.052 171.699 678.795 159.461 667.568L159.379 661.299C159.695 638.592 159.77 616.693 157.731 594.009C157.273 588.912 156.835 579.619 155.725 574.951C158.823 571.88 161.904 568.409 164.912 565.26C179.258 550.244 196.701 538.694 215.23 529.503C218.181 528.039 222.5 526.45 225.195 524.633Z" fill="#FFCFD2"/>
<path d="M357.67 547.475C356.665 546.566 356.915 547.133 356.721 545.837C358.316 544.427 383.504 543.565 387.984 543.299L447.601 539.622C514.203 535.18 580.847 531.382 647.522 528.23C648.335 528.315 647.941 528.235 648.733 529.113L649.099 528.763L648.543 528.547L648.493 529.962C646.175 531.381 637.686 531.548 634.597 531.721C585.41 534.473 536.188 536.801 487.026 539.956L404.383 545.117C389.572 545.997 372.305 547.412 357.67 547.475Z" fill="url(#paint1_linear_2247_9385)"/>
<path d="M801.951 548.777C821.115 569.71 837.684 598.634 842.195 626.881C833.139 635.41 813.483 653.764 801.623 656.679C801.856 633.12 801.936 609.56 801.862 585.999C801.848 574.176 801.397 560.32 801.951 548.777Z" fill="#98F5E1"/>
<path d="M125.006 635.572C125.415 624.347 144.513 586.368 152.982 579.395C155.368 608.504 157.551 635.682 155.959 665.088C150.965 662.084 129.782 640.418 125.006 635.572Z" fill="#FFCFD2"/>
<path d="M689.553 669.019C677.605 669.336 665.671 670.041 653.769 671.134C650.599 671.435 644.82 671.812 641.845 672.359C632.358 667.849 620.162 659.556 610.689 654.075L553.016 621.282C557.814 618.811 564.11 614.702 568.833 611.8C579.542 605.101 590.34 598.545 601.223 592.133C605.109 596.913 618.59 607.769 624.153 612.682C645.588 631.88 667.392 650.662 689.553 669.019Z" fill="#90DBF4"/>
<path d="M264.242 777.154C297.548 741.815 332.331 706.943 365.96 671.78L401.218 634.768C412.624 622.597 424.661 609.388 436.567 597.805C438.338 598.359 450.242 605.23 452.22 606.397C463.113 612.828 474.664 618.994 485.286 625.784C480.248 629.654 473.06 634.42 467.721 638.192L420.304 671.078C379.165 699.897 337.817 728.417 296.264 756.636C285.704 763.652 275.029 770.492 264.242 777.154Z" fill="#FFCFD2"/>
<path d="M490.471 625.964C499.126 620.005 510.676 611.76 519.474 606.441C528.225 610.729 537.298 616.005 545.751 620.929C575.171 638.065 605.181 654.357 634.212 672.127C630.568 673.202 622.314 673.82 618.271 674.256C609.438 675.153 600.623 676.222 591.832 677.461C568.507 680.966 549.729 685.775 527.28 690.882C526.348 688.19 525.879 682.11 524.685 678.124C518.306 656.835 507.406 640.236 490.471 625.964Z" fill="#90DBF4"/>
<path d="M845.264 623.096L847.207 622.059C852.034 637.847 851.872 642.09 852.75 658.375C854.887 694.489 847.286 730.73 830.172 762.772C806.582 806.936 761.942 847.044 716.602 868.178C677.489 886.41 629.186 897.952 586.11 899.263C581.895 899.392 553.656 897.992 551.521 896.625C577.211 895.543 612.88 886.37 637.285 878.953C742.455 846.992 853.277 760.136 847.404 639.561C847.161 634.57 846.783 627.776 845.264 623.096Z" fill="#FBF8CC"/>
<path d="M293.896 762.205C298.678 758.46 308.439 752.354 313.765 748.696L360.759 716.498L490.47 625.965C507.405 640.237 518.305 656.836 524.684 678.125C525.878 682.111 526.348 688.191 527.28 690.883C531.122 711.195 528.29 736.513 523.121 756.337C521.93 760.907 517.729 772.651 520.486 775.727C521.828 775.855 523.172 775.963 524.517 776.052C519.027 776.731 511.511 776.871 505.862 777.134L471.483 778.815L329.072 785.968L328.757 784.188C326.248 780.736 298.641 764.228 293.896 762.205Z" fill="url(#paint2_linear_2247_9385)"/>
<path d="M801.622 656.681C813.482 653.766 833.138 635.412 842.194 626.883C843.139 636.715 844.382 648.276 843.598 658.139C831.737 807.29 670.094 881.701 541.246 894.006C538.743 894.237 536.237 894.432 533.729 894.591C531.073 892.576 498.052 883.007 492.525 881.092C480.699 877.106 469.112 872.443 457.822 867.126C484.545 843.607 504.634 813.493 516.088 779.788C522.993 779.093 532.927 778.87 540.051 778.531L587.281 776.408L717.455 770.373L760.025 768.439C777.455 767.69 799.045 770.545 801.398 745.778C802.315 736.127 801.678 725.332 801.637 715.519C801.502 695.907 801.497 676.294 801.622 656.681Z" fill="#FBF8CC"/>
<path d="M125.006 635.57C129.782 640.416 150.965 662.082 155.959 665.086C155.644 680.001 154.969 694.082 156.811 708.857C163.727 764.331 196.152 804.584 240.456 835.779C292.442 872.384 347.996 889.584 410.498 896.659C410.425 896.891 409.971 897.504 409.811 897.74C403.781 899.923 395.144 903.287 389.16 904.685C365.968 910.105 339.17 910.657 315.623 907.3C301.106 905.231 287.912 900.207 274.403 895.233C233.019 879.996 192.892 854.449 166.347 818.743C134.016 775.256 116.56 723.792 120.272 669.378C121.159 656.369 122.993 648.336 125.006 635.57Z" fill="#F1C0E8"/>
<path d="M902.337 658.293C900.428 660.51 896.066 666.143 893.531 667.783C892.283 667.906 891.234 668.01 890.383 668.095C889.841 663.538 895.271 643.535 897.854 639.77C900.024 639.979 899.904 639.588 901.026 640.78C902.126 645.623 899.62 651.745 898.083 656.485C902.369 651.863 905.268 649.531 911.017 647.188C908.763 650.868 905.159 654.916 902.337 658.293Z" fill="#FEFEFE"/>
<path d="M890.95 676.879C890.328 676.387 889.702 675.901 889.071 675.419C888.424 674.944 887.777 674.469 887.13 673.994C883.745 675.128 872.364 684.701 869.627 681.983C871.806 675.145 883.845 674.53 883.67 669.215C883.407 661.237 869.683 657.677 869.119 649.844C874.251 650.55 888.814 660.642 888.367 666.456C887.832 673.419 888.298 674.994 895.265 671.579C897.969 670.254 915.997 675.639 917.195 678.256C913.186 682.939 897.66 675.895 893.324 673.43C896.012 679.415 896.305 685.89 896.725 692.378C896.886 694.938 897.189 698.68 894.297 699.781C890.633 697.539 890.971 681.359 890.95 676.879Z" fill="#FEFEFE"/>
<path d="M787.102 660.198C789.918 659.855 795.421 658.396 798.529 657.73L798.521 718.305C798.499 728.066 798.898 739.51 797.718 749.125C797.306 752.488 794.848 756.291 792.758 758.977C778.079 744.018 759.384 727.495 743.69 713.276C727.612 698.71 710.32 682.671 693.885 668.644C698.103 667.815 711.026 667.8 716.273 667.37C736.807 665.688 762.022 665.583 782.096 661.419L787.102 660.198Z" fill="#FBF8CC"/>
<path d="M417.926 893.078C416.664 893.066 415.402 893.025 414.141 892.955C403.113 892.376 391.336 890.603 380.313 888.702C285.985 872.436 170.917 811.432 159.609 705.634C158.032 690.876 158.565 675.996 159.379 661.297L159.461 667.566C171.699 678.793 184.499 688.05 197.422 698.375C209.649 708.144 220.709 719.133 233.898 727.743C236.514 729.451 238.567 731.504 241.439 732.736C242.257 746.365 243.063 757.218 247.485 770.298C255.919 795.242 276.933 791.297 298.004 790.425C311.897 789.849 326.187 788.74 340.02 788.454C341.871 792.58 354.189 800.639 358.491 803.83C389.87 827.109 422.524 849.673 457.551 867.145C445.038 878.717 433.166 885.961 417.926 893.078Z" fill="#F1C0E8"/>
<path d="M641.846 672.356C644.821 671.809 650.6 671.432 653.77 671.131C665.672 670.038 677.606 669.333 689.554 669.016C698.812 676.67 708.058 685.341 716.957 693.474C738.539 713.197 760.979 732.8 781.993 753.07C771.464 747.431 760.832 740.764 750.422 734.782L696.171 703.88C683.413 696.566 670.71 689.157 658.064 681.652C653.565 679.022 645.847 675.001 641.846 672.356Z" fill="#FBF8CC"/>
<path d="M634.213 672.129C647.051 678.556 660.54 686.942 672.985 694.259C688.742 703.479 704.555 712.603 720.423 721.631C734.31 729.563 748.237 737.425 762.204 745.216C770.888 750.148 781.439 755.864 789.295 761.761C786.36 762.889 783.369 764.152 780.242 764.364C761.845 765.61 743.215 766.105 724.784 766.878L630.001 771.193C607.788 772.122 585.579 773.167 563.376 774.328C553.292 774.861 533.884 776.389 524.518 776.053C523.173 775.964 521.829 775.856 520.487 775.728C517.73 772.652 521.932 760.908 523.123 756.338C528.292 736.514 531.123 711.196 527.281 690.884C549.73 685.777 568.508 680.968 591.833 677.463C600.624 676.224 609.439 675.155 618.272 674.258C622.315 673.822 630.569 673.204 634.213 672.129Z" fill="#FBF8CC"/>
<path d="M244.785 735.964C246.993 735.712 250.918 737.608 252.632 738.901C258.236 743.13 279.656 749.185 282.637 753.648C273.67 762.593 264.926 771.759 256.413 781.137C247.288 768.431 245.909 751.146 244.785 735.964Z" fill="#F1C0E8"/>
<path d="M259.879 783.949C270.361 777.808 283.531 768.939 293.897 762.203C298.642 764.226 326.249 780.734 328.758 784.186L329.073 785.966C317.976 786.232 306.527 787.155 295.424 787.676C281.262 788.34 273.13 789.866 259.879 783.949Z" fill="#F1C0E8"/>
<path d="M340.02 788.453C398.733 786.046 457.424 783.156 516.09 779.785C504.636 813.49 484.547 843.604 457.824 867.123L457.551 867.144C422.524 849.672 389.87 827.108 358.491 803.829C354.189 800.638 341.871 792.579 340.02 788.453Z" fill="#FDE4CF"/>
<path d="M457.551 867.146L457.824 867.125C469.114 872.442 480.701 877.105 492.527 881.091C498.054 883.006 531.075 892.575 533.731 894.59C519.653 898.694 432.275 897.84 417.926 893.079C433.166 885.962 445.038 878.718 457.551 867.146Z" fill="#FFEDE1"/>
<defs>
<linearGradient id="paint0_linear_2247_9385" x1="291.497" y1="384.065" x2="724.079" y2="523.784" gradientUnits="userSpaceOnUse">
<stop stop-color="#FFCDF6"/>
<stop offset="1" stop-color="#ABF5FF"/>
</linearGradient>
<linearGradient id="paint1_linear_2247_9385" x1="502.072" y1="532.669" x2="502.942" y2="542.476" gradientUnits="userSpaceOnUse">
<stop stop-color="#443D45"/>
<stop offset="1" stop-color="#614654"/>
</linearGradient>
<linearGradient id="paint2_linear_2247_9385" x1="455.78" y1="807.071" x2="389.969" y2="678.412" gradientUnits="userSpaceOnUse">
<stop stop-color="#F8EABB"/>
<stop offset="1" stop-color="#F6C2CA"/>
</linearGradient>
</defs>
</svg>
