<svg width="1024" height="1024" viewBox="0 0 1024 1024" fill="none" xmlns="http://www.w3.org/2000/svg">
<path d="M373.057 177.445C411.066 127.64 474.71 100.246 536.076 95.7901C586.191 92.1509 644.814 100.862 692.28 116.806C710.16 122.908 727.617 130.186 744.537 138.59C762.083 147.166 776.409 154.623 791.883 166.513C830.988 196.56 859.41 236.732 866.011 286.343C870.803 324.488 862.264 363.117 841.841 395.688L840.267 396.054C836.533 396.591 827.915 397.861 824.365 398.97C817.569 366.686 802.953 341.428 775.865 321.461C740.217 295.184 696.336 294.386 655.124 305.794C646.956 308.055 639.774 309.952 631.36 311.279C628.872 309.891 611.286 294.841 608.251 292.239C586.92 274.112 565.401 256.208 543.697 238.53C538.537 234.366 530.337 226.471 525.152 223.382C521.549 221.248 517.468 220.052 513.282 219.905C499.015 219.383 489.288 231.168 479.147 240.488C445.229 204.474 419.378 192.172 373.057 177.445Z" fill="#E6DEF6"/>
<path d="M149.443 524.173C145.734 521.58 142.468 512.112 140.54 507.917C117.946 458.785 107.707 411.137 127.244 358.612C150.413 296.32 216.687 213.225 277.721 185.614C306.405 172.637 342.853 166.159 373.055 177.445C419.376 192.172 445.227 204.474 479.145 240.488L403.307 308.517C390.434 320.128 376.126 332.697 363.81 344.883L286.508 345.06C286.651 355.944 286.747 367.947 287.453 378.765C216.456 391.794 151.034 448.551 149.443 524.173Z" fill="#FFCFD2"/>
<path d="M479.146 240.486C489.287 231.166 499.014 219.381 513.281 219.903C517.467 220.05 521.548 221.246 525.151 223.38C530.336 226.469 538.536 234.364 543.696 238.528C565.4 256.206 586.919 274.11 608.25 292.237C611.285 294.839 628.871 309.889 631.359 311.277C642.73 321.54 655.349 330.685 666.242 340.4C685.7 339.562 705.066 338.272 724.509 337.203C729.906 336.906 735.943 336.395 741.307 336.513C741.106 347.644 741.378 358.769 741.501 369.901C741.612 379.919 741.46 390.006 741.876 400.011L745.955 402.823C753.594 409.474 762.251 415.378 769.994 422.278C772.338 424.366 779.469 431.997 781.078 433.149C784.183 436.52 788.831 441.922 791.436 445.807L792.001 451.517C792.845 474.155 792.352 499.157 792.357 521.973L792.351 631.464C792.155 653.622 792.164 675.781 792.378 697.939L792.512 701.362L792.327 738.48C791.245 739.106 790.072 739.83 788.962 740.377L789.041 693.905C788.752 613.719 789.917 532.704 788.912 452.615C769.214 474.078 757.394 479.899 734.954 496.624C700.478 520.799 666.344 545.46 632.564 570.598C618.429 580.937 603.945 590.86 589.831 601.138C598.978 608.591 607.592 616.341 616.57 623.955C647.252 649.987 677.76 676.224 708.091 702.663L745.469 735.142C749.107 738.285 761.215 748.241 763.493 751.118L759.835 752.556C755.316 747.6 743.693 738.219 738.147 733.443L698.763 699.433L587.239 603.192L566.057 617.981C551.341 628.36 541.086 637.737 522.399 639.412C500.532 641.372 489.958 634.1 473.14 622.111C465.752 616.807 458.324 611.558 450.856 606.366C399.63 653.529 349.757 701.432 297.321 747.353L296.104 745.649C298.666 741.46 334.753 709.639 340.638 704.225L447.959 604.352C428.81 590.131 406.798 576.13 387.154 562.322L291.764 494.181C277.425 483.919 263.029 474.115 248.721 463.703L238.344 455.849C238.464 473.999 238.913 497.47 239.945 515.652L240.056 522.649L242.034 617.938C242.288 627.358 241.936 642.309 242.73 651.07L242.397 651.555C240.585 649.97 240.469 649.908 239.368 647.818C238.084 604.792 237.114 561.758 236.458 518.719L234.785 449.442C252.309 431.836 270.067 414.466 288.056 397.337L287.545 384.01L287.454 378.763C286.748 367.945 286.652 355.942 286.509 345.058L363.811 344.881C376.127 332.695 390.435 320.126 403.308 308.515L479.146 240.486ZM481.473 242.267C472.72 250.813 462.946 258.184 454.216 266.504C426.23 293.176 395.377 317.729 368.014 345.001C375.574 344.954 383.964 345.07 391.454 344.731C410.977 327.293 431.356 310.465 450.961 292.912C464.287 280.981 479.459 267.059 493.32 255.975C503.56 249.078 515.459 246.571 526.123 254.113C537.626 262.25 549.067 271.823 559.865 280.855C573.327 292.107 586.929 303.191 600.669 314.104C610.692 322.798 623.892 333.037 634.369 341.615C643.606 341.564 652.839 341.22 662.055 340.583C649.966 331.027 638.478 321.043 626.461 311.427C599.822 289.152 573.413 266.319 546.402 244.451C538.943 238.984 532.489 231.69 524.844 226.529C506.994 214.479 493.142 231.861 481.473 242.267ZM496.024 257.368C485.192 265.696 473.442 276.971 463.085 286.099L396.542 344.615C441.205 344.482 486.809 343.749 531.358 344.105C564.306 345.025 597.279 344.413 630.17 342.273C622.791 334.707 605.43 321.827 596.149 314.371C590.069 308.314 577.432 299.328 570.276 293.346C555.582 281.355 541.153 268.974 526.031 257.524C515.996 249.927 506.333 251.437 496.024 257.368ZM587.501 348.291C514.952 355.702 442.216 361.754 369.743 369.611L319.438 375.196C311.246 376.034 297.99 376.824 290.372 378.185C290.985 398.551 291.444 421.674 292.585 441.725C292.584 443.77 292.479 448.442 292.738 450.228C292.966 453.377 293.464 458.29 293.448 461.308C293.397 466.714 293.399 472.12 293.452 477.525C326.588 501.187 360.157 524.237 394.14 546.664C403.02 552.49 414.641 561.28 423.361 566.331C427.939 570.348 436.659 576.05 441.921 579.662C451.925 586.421 461.821 593.338 471.605 600.412C481.842 608.049 499.409 622.148 511.77 623.13C516.926 623.724 527.887 623.507 532.425 620.958C552.023 609.951 569.995 595.327 588.391 582.306C598.33 575.272 609.56 567.443 619.041 559.846C620.542 559.045 622.637 557.445 624.125 556.424C634.131 549.561 643.861 542.177 653.777 535.197L739.163 474.822C739.251 466.185 739.248 457.547 739.153 448.91C728.644 448.958 717.599 450.192 707.283 450.883C672.781 453.191 651.489 460.261 629.242 488.294C621.834 497.628 615.302 509.357 607.424 517.609C605.66 519.153 602.585 521.31 600.065 520.585C584.527 516.111 589.127 488.709 590.926 478.452C586.325 484.339 571.957 508.647 563.53 505.537C548.587 500.022 560.633 468.054 563.984 457.702C556.281 469.513 547.256 488.134 537.893 499.277C537.019 500.133 535.159 500.701 534.038 500.414C522.022 497.33 527.67 475.49 529.073 467.991C522.941 475.9 504.381 504.277 500.331 479.34C497.017 491.159 490.695 505.432 484.073 515.853C481.282 520.372 475.843 526.271 470.411 527.065C461.421 528.378 462.112 511.31 462.82 505.949C464.19 495.572 467.435 485.648 470.313 475.69C475.69 457.081 481.467 438.629 486.137 419.836C487.59 413.974 487.891 409.169 487.67 403.199C470.65 418.445 457.645 444.548 447.625 464.827C445.451 469.226 441.472 486.285 437.084 486.256L436.191 485.225C435.118 479.832 439.086 470.478 440.455 464.866C444.052 450.197 448.291 435.548 451.229 420.741C452.124 416.234 454.955 403.559 447.815 403.365C440.682 406.224 430.065 432.669 426.581 440.593C418.126 459.724 410.209 479.088 402.839 498.663C400.747 504.241 394.993 522.555 391.984 525.81L390.832 525.853L389.955 524.957C386.442 513.357 403.828 457.411 407.745 442.585C408.617 440.214 408.779 439.358 409.202 436.851C411.124 432.702 412.825 426.504 415.122 422.91C416.265 422.232 415.648 422.3 416.995 422.599C418.768 425.927 414.884 433.592 413.62 437.588C407.201 457.875 403.466 477.666 399.692 498.427L400.066 498.529C402.4 492.612 404.203 486.417 406.481 480.452C412.388 464.986 433.046 412.148 444.095 403.065C445.908 401.574 448.485 400.029 450.937 400.574C452.214 400.858 453.195 401.857 453.872 402.928C460.378 413.224 450.453 445.897 447.773 457.734C453.626 446.714 477.873 400.324 490.376 400.249C491.73 400.784 492.261 401.192 492.952 402.501C499.644 415.203 475.258 474.815 470.452 490.583C468.068 498.403 463.16 514.808 467.651 522.358C468.171 523.232 469.013 524.121 470.031 524.314C481.761 526.547 495.977 485.885 498.778 476.428C500.731 469.835 501.119 463.075 504.045 456.734C506.539 451.326 510.306 446.117 515.312 442.781C519.605 439.92 525.047 438.773 530.099 440.033C533.862 440.972 536.455 443.04 538.497 446.258C540.027 444.194 542.908 440.263 545.745 440.765C548.388 446.166 522.638 491.545 533.765 497.553C541.907 495.239 572.478 431.966 577.306 432.077C581.014 436.197 555.51 491.816 562.179 501.46C567.18 508.693 591.069 475.139 592.38 471.173C603.902 436.294 616.214 395.558 642.982 369.234C652.027 360.444 661.719 367.966 656.899 381.985C648.126 407.497 629.315 435.333 605.781 449.103C602.77 458.567 585.163 516.114 600.747 517C606.155 514.55 610.23 507.227 613.741 502.435C618.107 496.45 622.73 490.656 627.597 485.07C650.078 459.659 667.846 452.736 700.694 449.389C713.468 448.153 726.268 447.201 739.084 446.532C738.91 430.755 739.407 415.027 739.109 399.218C739.107 379.125 738.941 359.031 738.61 338.94C720.391 339.063 699.818 341.42 681.424 342.255C650.359 343.666 618.411 345 587.501 348.291ZM757.031 414.632C752.192 410.451 747.13 406.534 741.869 402.898C741.894 417.414 741.796 432.125 741.982 446.624C756.931 446.482 772.403 445.6 787.263 445.862C786.488 440.016 766.828 423.072 761.688 418.495C760.44 417.306 758.417 415.762 757.031 414.632ZM279.751 446.349C267.453 447.676 251.364 449.73 239.163 452.572C257.283 467.51 280.927 482.811 300.463 496.718C339.134 524.813 378.203 552.357 417.656 579.341L465.349 612.657C484.244 625.906 497.823 638.87 522.397 636.292C542.553 634.177 555.395 621.469 571.326 610.473C596.029 593.485 620.405 576.026 644.441 558.107C654.14 550.984 664.343 544.279 673.863 536.975C695.082 520.695 717.625 506.478 739.023 490.443L739.09 478.166C732.009 482.343 725.081 487.829 718.328 492.591C710.267 498.299 702.17 503.955 694.048 509.578C654.886 536.689 617.43 565.951 578.274 593.081C564.214 602.823 550.276 615.033 535.115 623.097C527.773 627.002 513.793 627.293 505.734 625.25C491.093 620.105 474.883 606.508 462.168 597.434L415.286 564.655C401.531 555.141 387.437 546.237 373.591 536.941C343.502 517.121 314 496.426 285.121 474.881C280.714 471.591 274.834 467.946 271.132 463.844C270.377 463.007 271.342 460.98 271.763 460.08C272.138 459.048 272.718 458.289 273.314 457.347C274.761 455.821 278.905 454.293 281.03 453.364C283.782 452.279 290.243 450.348 289.913 446.655C287.049 444.773 283.224 445.861 279.751 446.349ZM483.315 346.759L289.424 347.66C289.526 356.041 289.544 367.027 290.329 375.334C315.169 372.648 342.502 368.89 367.007 366.854C406.183 362.599 445.401 358.747 484.656 355.3C504.525 353.614 524.379 351.746 544.214 349.696C551.532 348.962 562.843 348.424 569.49 347.33C563.53 346.491 557.004 346.544 550.956 346.564C528.433 346.64 505.831 346.414 483.315 346.759ZM649.705 367.823C643.534 371.874 634.311 387.119 631.2 393.924C628.31 400.245 607.961 439.383 608.026 444.675C609.388 444.675 609.989 444.125 611.155 443.403C628.888 429.269 644.18 408.178 652.086 387.009C653.954 382.007 657.775 368.668 649.705 367.823ZM287.57 401.812C271.855 417.516 255.318 432.684 239.773 448.595L240.158 448.983L241.609 448.896C255.285 446.744 275.652 442.804 289.304 442.415C289.011 433.721 288.775 425.025 288.594 416.328C288.557 413.92 288.718 403.897 288.292 402.156L287.57 401.812ZM525.065 443.01C515.917 448.552 509.278 460.397 506.513 470.501C505.489 474.247 503.54 484.598 509.149 484.853C511.021 484.023 511.325 483.608 512.883 482.2C519.478 475.102 531.044 461.273 535.645 452.706C534.881 444.613 533.886 442.485 525.065 443.01ZM764.86 448.773C757.223 448.946 749.584 449.031 741.945 449.028L741.986 458.081C746.404 458.333 755.153 458.131 758.7 459.965C760.294 463.95 745.241 473.614 741.875 475.972C741.843 478.839 741.006 486.002 742.521 487.574C743.904 487.062 743.842 487.031 744.988 486.066C759.972 475.766 776.13 465.099 787.195 450.192L787.13 449.319C784.259 447.883 768.883 448.582 764.86 448.773ZM288.769 453.403C285.205 454.974 280.972 456.713 277.577 458.514L282.559 459.67L290.428 461.862C290.451 459.087 290.69 456.408 289.879 453.796C288.992 453.342 289.383 453.377 288.769 453.403ZM273.161 460.918C275.038 463.125 288.112 473.208 290.476 474.317L290.502 464.852C284.917 463.37 278.865 461.871 273.161 460.918ZM741.96 461.5L741.977 472.873C744.913 470.793 747.814 468.664 750.679 466.488C752.585 464.879 754.587 463.269 756.343 461.508C751.549 461.45 746.754 461.447 741.96 461.5Z" fill="#453634"/>
<path d="M481.473 242.269C493.142 231.863 506.994 214.481 524.844 226.531C532.489 231.692 538.943 238.986 546.402 244.453C573.413 266.321 599.822 289.154 626.461 311.429C621.529 313.279 606.394 312.889 600.669 314.106C586.929 303.193 573.327 292.109 559.865 280.857C549.067 271.825 537.626 262.252 526.123 254.115C515.459 246.573 503.56 249.08 493.32 255.977C489.185 249.737 486.782 247.515 481.473 242.269Z" fill="#E6DEF6"/>
<path d="M368.014 345.004C395.377 317.732 426.23 293.179 454.216 266.507C462.946 258.187 472.72 250.816 481.473 242.27C486.782 247.516 489.185 249.738 493.32 255.978C479.459 267.062 464.287 280.984 450.961 292.915C431.356 310.468 410.977 327.296 391.454 344.734C383.964 345.073 375.574 344.957 368.014 345.004Z" fill="#FFCFD2"/>
<path d="M496.023 257.371C506.332 251.44 515.995 249.93 526.03 257.527C541.152 268.977 555.581 281.358 570.275 293.349C577.431 299.331 590.068 308.317 596.148 314.374C584.974 318.212 578.109 318.789 565.649 323.811C558.077 318.207 549.227 312.807 542.04 306.707C525.116 292.344 509.999 274.53 496.023 257.371Z" fill="#E6DEF6"/>
<path d="M396.543 344.614L463.086 286.098C473.443 276.97 485.193 265.695 496.025 257.367C510.001 274.526 525.118 292.34 542.042 306.703C549.229 312.803 558.079 318.203 565.651 323.807C559.254 326.841 535.938 339.441 531.359 344.104C486.81 343.748 441.206 344.481 396.543 344.614Z" fill="#FFCFD2"/>
<path d="M631.359 311.277C639.773 309.95 646.955 308.053 655.123 305.792C696.335 294.384 740.216 295.182 775.864 321.459C802.952 341.426 817.568 366.684 824.364 398.968C823.02 399.404 821.671 399.823 820.316 400.223C813.733 401.23 774.673 411.045 771.479 415.16C765.479 412.251 751.669 403.371 745.955 402.823L741.876 400.011C741.46 390.006 741.612 379.919 741.501 369.901C741.378 358.769 741.106 347.644 741.307 336.513C735.943 336.395 729.906 336.906 724.509 337.203C705.066 338.272 685.7 339.562 666.242 340.4C655.349 330.685 642.73 321.54 631.359 311.277Z" fill="#CFBAF0"/>
<path d="M626.462 311.43C638.479 321.046 649.967 331.03 662.056 340.586C652.84 341.223 643.607 341.567 634.37 341.618C623.893 333.04 610.693 322.801 600.67 314.107C606.395 312.89 621.53 313.28 626.462 311.43Z" fill="#90DBF4"/>
<path d="M565.649 323.808C578.109 318.786 584.974 318.209 596.148 314.371C605.429 321.827 622.79 334.707 630.169 342.273C597.278 344.413 564.305 345.025 531.357 344.105C535.936 339.442 559.252 326.842 565.649 323.808Z" fill="#90DBF4"/>
<path d="M587.5 348.292C618.41 345.001 650.358 343.667 681.423 342.256C699.817 341.421 720.39 339.064 738.609 338.941C738.94 359.032 739.106 379.126 739.108 399.219C704.271 375.334 663.589 363.482 622.877 354.227C616.578 352.795 609.795 352.241 603.482 351.099C599.454 350.37 590.457 350.399 587.5 348.292Z" fill="#98F5E1"/>
<path d="M289.424 347.659L483.315 346.758C505.831 346.413 528.433 346.639 550.956 346.563C557.004 346.543 563.53 346.49 569.49 347.329C562.843 348.423 551.532 348.961 544.214 349.695C524.379 351.745 504.525 353.613 484.656 355.299C445.401 358.746 406.183 362.598 367.007 366.853C342.502 368.889 315.169 372.647 290.329 375.333C289.544 367.026 289.526 356.04 289.424 347.659Z" fill="#C8F8E5"/>
<path d="M290.371 378.187C297.989 376.826 311.245 376.036 319.437 375.198L369.742 369.613C442.215 361.756 514.951 355.704 587.5 348.293C590.457 350.4 599.454 350.371 603.482 351.1C609.795 352.242 616.578 352.796 622.877 354.228C663.589 363.483 704.271 375.335 739.108 399.22C739.406 415.029 738.909 430.757 739.083 446.534C726.267 447.203 713.467 448.155 700.693 449.391C667.845 452.738 650.077 459.661 627.596 485.072C622.729 490.658 618.106 496.452 613.74 502.437C610.229 507.229 606.154 514.552 600.746 517.002C585.162 516.116 602.769 458.569 605.78 449.105C629.314 435.335 648.125 407.499 656.898 381.987C661.718 367.968 652.026 360.446 642.981 369.236C616.213 395.56 603.901 436.296 592.379 471.175C591.068 475.141 567.179 508.695 562.178 501.462C555.509 491.818 581.013 436.199 577.305 432.079C572.477 431.968 541.906 495.241 533.764 497.555C522.637 491.547 548.387 446.168 545.744 440.767C542.907 440.265 540.026 444.196 538.496 446.26C536.454 443.042 533.861 440.974 530.098 440.035C525.046 438.775 519.604 439.922 515.311 442.783C510.305 446.119 506.538 451.328 504.044 456.736C501.118 463.077 500.73 469.837 498.777 476.43C495.976 485.887 481.76 526.549 470.03 524.316C469.012 524.123 468.17 523.234 467.65 522.36C463.159 514.81 468.067 498.405 470.451 490.585C475.257 474.817 499.643 415.205 492.951 402.503C492.26 401.194 491.729 400.786 490.375 400.251C477.872 400.326 453.625 446.716 447.772 457.736C450.452 445.899 460.377 413.226 453.871 402.93C453.194 401.859 452.213 400.86 450.936 400.576C448.484 400.031 445.907 401.576 444.094 403.067C433.045 412.15 412.387 464.988 406.48 480.454C404.202 486.419 402.399 492.614 400.065 498.531L399.691 498.429C403.465 477.668 407.2 457.877 413.619 437.59C414.883 433.594 418.767 425.929 416.994 422.601C415.647 422.302 416.264 422.234 415.121 422.912C412.824 426.506 411.123 432.704 409.201 436.853C405.09 442.123 400.223 448.181 395.104 452.441C394.264 452.815 390.29 455.756 389.397 456.414C372.695 468.719 353.11 466.746 333.92 461.589C320.677 458.031 306.219 453.704 293.116 447.962C293.074 445.405 292.987 444.249 292.584 441.727C291.443 421.676 290.984 398.553 290.371 378.187Z" fill="#C8F8E5"/>
<path d="M611.155 443.404C609.989 444.126 609.388 444.676 608.026 444.676C607.961 439.384 628.31 400.246 631.2 393.925C634.311 387.12 643.534 371.875 649.705 367.824C657.775 368.669 653.954 382.008 652.086 387.01C644.18 408.179 628.888 429.27 611.155 443.404Z" fill="#C8F8E5"/>
<path d="M149.443 524.174C151.034 448.552 216.456 391.795 287.453 378.766L287.544 384.013C282.386 386.624 275.634 388.364 270.041 390.115C263.468 392.144 256.993 394.479 250.638 397.114C206.522 415.634 178.273 444.586 161.074 489.792C157.208 499.952 153.241 525.628 155.746 536.493C156.458 542.441 157.93 549.962 161.439 554.924C162.344 559.133 157.788 563.961 154.652 557.303C150.818 541.805 149.488 540.837 149.443 524.174Z" fill="#FDFCFC"/>
<path d="M155.747 536.492C153.242 525.627 157.209 499.951 161.075 489.791C178.274 444.585 206.523 415.633 250.639 397.113C256.994 394.478 263.469 392.143 270.042 390.114C275.635 388.363 282.387 386.623 287.545 384.012L288.056 397.339C270.067 414.468 252.309 431.838 234.785 449.444L236.458 518.721C231.044 514.835 227.574 512.659 220.356 514.223C201.463 518.318 179.244 536.759 164.856 549.052L163.646 549.832C161.154 545.105 159.67 540.184 155.747 536.492Z" fill="#FFCFD2"/>
<path d="M840.267 396.054L841.841 395.688C878.627 392.123 910.205 391.915 940.637 417.401C1002.38 469.112 981.456 569.928 936.628 625.599C922.272 643.402 904.098 657.482 885.749 670.211C883.328 670.371 859.424 684.296 853.135 686.56C853.695 685.179 854.678 683.666 855.451 682.362C862.416 681.288 891.88 661.078 898.125 655.901C909.523 650.281 928.852 630.068 936.94 619.962C997.208 544.655 995.655 407.276 875.169 398.468C862.754 397.56 851.884 399.107 839.68 400.494C840.398 398.569 840.285 398.17 840.267 396.054Z" fill="#FAB58F"/>
<path d="M824.364 398.971C827.914 397.862 836.532 396.592 840.266 396.055C840.284 398.171 840.397 398.571 839.679 400.496L839.25 400.78C836.426 401.049 827.48 402.119 825.14 403.064L824.588 403.083C824.351 401.813 824.249 401.704 823.697 400.514C822.508 400.449 821.494 400.35 820.316 400.226C821.671 399.826 823.02 399.407 824.364 398.971Z" fill="#F6A295"/>
<path d="M839.251 400.778L839.68 400.494C851.884 399.107 862.754 397.559 875.169 398.467C995.655 407.275 997.208 544.655 936.94 619.962C928.852 630.068 909.523 650.28 898.125 655.9C899.074 654.92 899.978 653.897 900.832 652.833C912.527 638.28 920.985 615.639 918.264 596.758C912.688 558.879 888.225 528.495 865.453 499.379C847.703 476.682 829.581 459.333 807.225 441.438C812.815 436.402 822.855 425.488 826.614 419.208C829.267 416.307 837.26 404.354 839.251 400.778Z" fill="#FBF8CC"/>
<path d="M771.479 415.16C774.673 411.045 813.732 401.23 820.315 400.223C821.493 400.347 822.508 400.446 823.697 400.511C824.249 401.701 824.351 401.81 824.588 403.08C816.38 404.975 807.977 406.537 799.861 408.737C791.384 411.035 783.31 414.514 775.031 417.348L771.479 415.16Z" fill="#F38393"/>
<path d="M825.141 403.061C827.481 402.116 836.427 401.046 839.251 400.777C837.26 404.353 829.267 416.306 826.614 419.207C825.954 413.871 826.154 408.381 825.141 403.061Z" fill="#F1C0E8"/>
<path d="M241.609 448.897L240.158 448.984L239.773 448.596C255.318 432.685 271.855 417.517 287.57 401.812L288.292 402.157C288.718 403.898 288.557 413.921 288.594 416.329C288.775 425.026 289.011 433.721 289.304 442.415C275.652 442.804 255.285 446.745 241.609 448.897Z" fill="#C8F8E5"/>
<path d="M398.56 451.287C401.744 448.341 404.086 445.731 406.999 442.49L407.745 442.585C403.828 457.411 386.442 513.357 389.955 524.957L390.832 525.853L391.984 525.81C394.993 522.555 400.747 504.241 402.839 498.663C410.209 479.088 418.126 459.724 426.581 440.593C430.065 432.669 440.682 406.224 447.815 403.365C454.955 403.559 452.124 416.234 451.229 420.741C448.291 435.548 444.052 450.197 440.455 464.866C439.086 470.478 435.118 479.832 436.191 485.225L437.084 486.256C441.472 486.285 445.451 469.226 447.625 464.827C457.645 444.548 470.65 418.445 487.67 403.199C487.891 409.169 487.59 413.974 486.137 419.836C481.467 438.629 475.69 457.081 470.313 475.69C467.435 485.648 464.19 495.572 462.82 505.949C462.112 511.31 461.421 528.378 470.411 527.065C475.843 526.271 481.282 520.372 484.073 515.853C490.695 505.432 497.017 491.159 500.331 479.34C504.381 504.277 522.941 475.9 529.073 467.991C527.67 475.49 522.022 497.33 534.038 500.414C535.159 500.701 537.019 500.133 537.893 499.277C547.256 488.134 556.281 469.513 563.984 457.702C560.633 468.054 548.587 500.022 563.53 505.537C571.957 508.647 586.325 484.339 590.926 478.452C589.127 488.709 584.527 516.111 600.065 520.585C602.585 521.31 605.66 519.153 607.424 517.609C615.302 509.357 621.834 497.628 629.242 488.294C651.489 460.261 672.781 453.191 707.283 450.883C717.599 450.192 728.644 448.958 739.153 448.91C739.248 457.547 739.251 466.185 739.163 474.822L653.777 535.197C643.861 542.177 634.131 549.561 624.125 556.424C622.637 557.445 620.542 559.045 619.041 559.846C614.231 559.783 573.785 577.737 564.784 580.868C539.274 589.74 515.928 597.612 488.537 599.512C484.48 599.794 474.904 599.31 471.605 600.412C461.821 593.338 451.925 586.421 441.921 579.662C436.659 576.05 427.939 570.348 423.361 566.331C422.152 563.02 414.428 558.421 411.772 555.639C402.925 546.371 393.901 539.963 383.609 532.65C376.959 527.925 370.273 521.729 363.482 516.604C350.721 506.974 336.843 498.898 325.25 487.916C314.983 477.18 304.832 470.298 293.448 461.308C293.464 458.29 292.966 453.377 292.738 450.228C296.565 451.797 300.557 453.143 304.471 454.488C335.905 465.287 371.508 480.065 398.56 451.287Z" fill="#C8F8E5"/>
<path d="M745.955 402.824C751.669 403.372 765.479 412.252 771.479 415.161L775.032 417.349C784.358 425.071 796.947 433.167 807.224 441.438C829.58 459.333 847.702 476.682 865.452 499.379C888.224 528.495 912.687 558.879 918.263 596.758C920.984 615.639 912.526 638.28 900.831 652.833C899.977 653.897 899.073 654.92 898.124 655.9C891.879 661.077 862.415 681.287 855.45 682.361C860.592 669.727 865.619 657.599 868.329 644.347C881.952 577.726 855.095 512.421 811.469 462.667C807.547 458.194 785.414 434.068 781.078 433.15C779.469 431.998 772.338 424.367 769.994 422.279C762.251 415.379 753.594 409.475 745.955 402.824Z" fill="#83EEA0"/>
<path d="M775.031 417.349C783.31 414.515 791.383 411.036 799.86 408.738C807.976 406.538 816.379 404.976 824.587 403.081L825.139 403.062C826.152 408.383 825.952 413.872 826.612 419.208C822.853 425.488 812.813 436.402 807.223 441.438C796.946 433.167 784.357 425.071 775.031 417.349Z" fill="#CFBAF0"/>
<path d="M757.031 414.632C750.049 412.7 750.198 418.043 745.376 421.98C749.386 421.15 757.34 418.727 760.615 418.92C769.266 427.399 777.266 436.48 785.569 445.283C785.889 445.623 786.844 445.786 787.263 445.862C772.403 445.6 756.931 446.482 741.982 446.624C741.796 432.125 741.894 417.414 741.869 402.898C747.13 406.534 752.192 410.451 757.031 414.632Z" fill="#83EEA0"/>
<path d="M745.375 421.983C750.197 418.046 750.048 412.703 757.03 414.635C758.416 415.765 760.439 417.309 761.687 418.498L760.614 418.923C757.339 418.73 749.385 421.153 745.375 421.983Z" fill="#F38393"/>
<path d="M760.615 418.921L761.688 418.496C766.828 423.073 786.488 440.017 787.263 445.863C786.844 445.787 785.889 445.624 785.569 445.284C777.266 436.481 769.266 427.4 760.615 418.921Z" fill="#FDFCFC"/>
<path d="M781.078 433.148C785.414 434.066 807.547 458.192 811.469 462.665C855.095 512.419 881.952 577.724 868.329 644.345C865.619 657.597 860.592 669.725 855.45 682.359C854.677 683.663 853.694 685.177 853.134 686.558C851.826 689.118 850.546 691.313 849.093 693.786C847.191 695.526 844.535 701.295 842.73 703.455C839.533 707.282 835.766 710.848 832.408 714.57C821.662 724.929 811.778 734.385 798.809 742.038C797.058 743.071 794.114 744.909 792.582 746.154C791.701 746.596 790.109 747.307 789.401 747.876C786.465 749.316 770.833 756.451 768.557 756.531L765.341 758.172C738.775 765.626 710.506 768.843 685.542 754.608C668.952 745.148 651.361 731.391 631.154 737.032C612.641 742.2 597.57 765.913 589.745 782.661C589.084 783.95 588.437 785.245 587.804 786.548C584.839 792.716 581.776 798.837 578.616 804.908C560.791 840.608 529.534 867.781 491.701 880.467C457.943 891.591 421.14 888.76 389.482 872.603C372.077 863.925 367.63 857.759 354.608 845.852C349.118 840.371 335.459 821.679 330.966 814.682C292.628 824.413 241.154 824.636 203.71 810.735C174.858 800.024 153.94 782.221 141.412 753.858C130.559 729.286 128.543 695.513 138.001 670.262C144.772 656.794 152.076 645.962 165.759 638.751C179.9 631.298 194.488 630.219 210.09 633.288C213.935 634.044 220.431 636.562 224.581 637.829C227.177 639.446 237.841 645.967 239.368 647.817C240.469 649.907 240.585 649.969 242.397 651.554C254.337 662.834 259.996 674.231 267.395 688.591C274.96 703.276 282.504 717.906 289.516 732.877C290.642 735.237 295.974 744.181 296.104 745.648L297.321 747.352L297.946 748.001C303.652 757.38 308.462 768.147 313.757 777.8C314.985 780.039 320.122 789.69 321.475 791.152L323.345 794.044C325.236 797.581 329.199 802.105 331.611 805.584C336.722 812.954 341.613 820.177 347.131 827.254C351.458 832.805 356.661 837.785 360.983 843.026C370.217 853.75 388.753 866.662 401.615 871.64C432.698 883.671 467.999 884.019 498.753 870.751C526.052 858.974 551.509 838.038 566.843 812.478C568.718 809.354 571.659 804.571 572.97 801.344L580.641 786.78C581.429 785.752 582.104 784.226 582.713 783.032C592.228 762.006 605.199 737.376 629.32 730.511C649.912 724.651 667.711 735.877 684.69 746.176C708.776 760.785 733.385 759.663 759.835 752.555L763.493 751.117C765.999 749.028 783.329 744.385 788.962 740.376C790.072 739.829 791.245 739.105 792.327 738.479C802.48 733.222 823.062 716.113 830.248 706.904C833.052 703.469 835.578 700.339 838.004 696.62C840.072 694.623 840.673 693.853 842.361 691.508C843.29 690.44 843.993 689.255 844.777 688.065C846.853 684.994 848.638 680.523 850.207 677.152C882.164 608.467 859.209 529.433 811.433 474.381C805.244 467.25 798.128 459.271 792.001 451.516L791.436 445.806C788.831 441.921 784.183 436.519 781.078 433.148ZM239.608 656.584C233.829 650.295 222.061 643.017 213.831 640.674C193.664 634.933 173.48 637.892 157.936 652.257C150.454 659.101 144.885 667.776 141.778 677.427C140.474 680.975 139.433 688.65 138.991 692.512C136.564 713.714 139.253 734.91 148.467 754.317C160.91 780.523 181.439 796.695 208.265 806.448C241.194 818.421 293.636 818.767 327.267 809.681C324.211 806.029 319.227 795.927 316.823 794.404C316.019 793.426 315.451 792.433 314.773 791.363C311.523 784.739 306.437 776.803 302.895 770.089C300.854 766.222 294.96 754.578 292.632 751.753L291.433 749.241L291.028 748.129C276.029 719.677 261.549 686.038 242.538 660.419C241.92 658.924 240.711 657.81 239.608 656.584Z" fill="#FDFCFC"/>
<path d="M395.105 452.44C400.224 448.18 405.091 442.122 409.202 436.852C408.779 439.359 408.617 440.215 407.745 442.586L406.999 442.491C404.086 445.732 401.744 448.342 398.56 451.288C397.33 451.879 396.446 452.473 395.105 452.44Z" fill="#CF8A5E"/>
<path d="M292.584 441.727C292.987 444.249 293.074 445.405 293.116 447.962C306.219 453.704 320.677 458.031 333.92 461.589C353.11 466.746 372.695 468.719 389.397 456.414C390.29 455.756 394.264 452.815 395.104 452.441C396.445 452.474 397.329 451.88 398.559 451.289C371.507 480.067 335.904 465.289 304.47 454.49C300.556 453.145 296.564 451.799 292.737 450.23C292.478 448.444 292.583 443.772 292.584 441.727Z" fill="#FDE4CF"/>
<path d="M512.882 482.202C511.324 483.61 511.02 484.025 509.148 484.855C503.539 484.6 505.488 474.25 506.512 470.504C509.277 460.4 515.916 448.554 525.064 443.012C533.885 442.487 534.88 444.615 535.644 452.708C531.043 461.275 519.477 475.104 512.882 482.202Z" fill="#C8F8E5"/>
<path d="M279.752 446.348C283.225 445.86 287.05 444.772 289.914 446.654C290.244 450.347 283.783 452.278 281.031 453.363C280.227 450.933 280.078 448.877 279.752 446.348Z" fill="#C8F8E5"/>
<path d="M239.162 452.575C251.363 449.733 267.452 447.679 279.75 446.352C280.076 448.881 280.225 450.937 281.029 453.367C278.904 454.296 274.76 455.824 273.313 457.35C269.782 456.313 257.214 451.964 254.806 453.055L254.594 453.884C255.952 455.609 268.838 459.241 271.762 460.083C271.341 460.983 270.376 463.01 271.131 463.847C274.833 467.949 280.713 471.594 285.12 474.884C313.999 496.429 343.501 517.124 373.59 536.944C387.436 546.24 401.53 555.144 415.285 564.658L462.167 597.437C474.882 606.511 491.092 620.108 505.733 625.253C513.792 627.296 527.772 627.005 535.114 623.1C550.275 615.036 564.213 602.826 578.273 593.084C617.429 565.954 654.885 536.692 694.047 509.581C702.169 503.958 710.266 498.302 718.327 492.594C725.08 487.832 732.008 482.346 739.089 478.169L739.022 490.446C717.624 506.481 695.081 520.698 673.862 536.978C664.342 544.282 654.139 550.987 644.44 558.11C620.404 576.029 596.028 593.488 571.325 610.476C555.394 621.472 542.552 634.18 522.396 636.295C497.822 638.873 484.243 625.909 465.348 612.66L417.655 579.344C378.202 552.36 339.133 524.816 300.462 496.721C280.926 482.814 257.282 467.513 239.162 452.575Z" fill="#98F5E1"/>
<path d="M741.944 449.031C749.583 449.034 757.222 448.949 764.859 448.776C768.882 448.585 784.258 447.886 787.129 449.322L787.194 450.195C776.129 465.102 759.971 475.769 744.987 486.069C743.841 487.034 743.903 487.065 742.52 487.577C741.005 486.005 741.842 478.842 741.874 475.975C745.24 473.617 760.293 463.953 758.699 459.968C755.152 458.134 746.404 458.336 741.986 458.084L741.944 449.031Z" fill="#83EEA0"/>
<path d="M271.764 460.081C268.84 459.239 255.954 455.607 254.596 453.882L254.808 453.053C257.216 451.962 269.784 456.311 273.315 457.348C272.719 458.29 272.139 459.049 271.764 460.081Z" fill="#423E38"/>
<path d="M792 451.52C798.127 459.275 805.243 467.254 811.432 474.385C859.208 529.437 882.163 608.471 850.206 677.156C848.637 680.527 846.852 684.998 844.776 688.069C828.618 693.155 809.458 699.476 792.377 697.942C792.163 675.784 792.154 653.625 792.35 631.467L792.356 521.976C792.351 499.16 792.844 474.158 792 451.52Z" fill="#83EEA0"/>
<path d="M734.953 496.626C757.393 479.901 769.213 474.08 788.911 452.617C789.916 532.706 788.751 613.721 789.04 693.907C764.249 683.226 732.984 661.753 716.268 640.977C694.351 613.738 693.039 570.254 710.562 540.514C715.023 532.944 737.586 503.551 734.953 496.626Z" fill="#83EEA0"/>
<path d="M277.576 458.515C280.971 456.714 285.204 454.975 288.768 453.404C289.382 453.378 288.991 453.343 289.878 453.797C290.689 456.409 290.45 459.088 290.427 461.863L282.558 459.671L277.576 458.515Z" fill="#B9FBC0"/>
<path d="M238.344 455.852L248.721 463.706C249.135 472.86 247.388 510.736 240.137 515.526L239.945 515.655C238.913 497.473 238.464 474.002 238.344 455.852Z" fill="#FFEDE1"/>
<path d="M290.475 474.317C288.111 473.208 275.037 463.125 273.16 460.918C278.864 461.871 284.916 463.37 290.501 464.852L290.475 474.317Z" fill="#B9FBC0"/>
<path d="M293.447 461.309C304.831 470.299 314.982 477.181 325.249 487.917C336.842 498.899 350.72 506.975 363.481 516.605C370.272 521.73 376.958 527.926 383.608 532.651C393.9 539.964 402.924 546.372 411.771 555.64C414.427 558.422 422.151 563.021 423.36 566.332C414.64 561.281 403.019 552.491 394.139 546.665C360.156 524.238 326.587 501.188 293.451 477.526C293.398 472.121 293.396 466.715 293.447 461.309Z" fill="#98F5E1"/>
<path d="M741.978 472.876L741.961 461.503C746.755 461.45 751.55 461.453 756.344 461.511C754.588 463.272 752.586 464.882 750.68 466.491C747.815 468.667 744.914 470.796 741.978 472.876Z" fill="#83EEA0"/>
<path d="M248.721 463.703C263.029 474.115 277.425 483.919 291.764 494.181L387.154 562.322C406.798 576.13 428.81 590.131 447.959 604.352L340.638 704.225C334.753 709.639 298.666 741.46 296.104 745.649C295.974 744.182 290.642 735.238 289.516 732.878C282.504 717.907 274.96 703.277 267.395 688.592C259.996 674.232 254.337 662.835 242.397 651.555L242.73 651.07C256.354 651.254 266.395 649.408 271.14 635.099C282.17 601.843 262.851 547.211 240.056 522.649L239.945 515.652L240.137 515.523C247.388 510.733 249.135 472.857 248.721 463.703Z" fill="#98F5E1"/>
<path d="M589.83 601.139C603.944 590.861 618.428 580.938 632.563 570.599C666.343 545.461 700.477 520.8 734.953 496.625C737.586 503.55 715.023 532.943 710.562 540.513C693.039 570.253 694.351 613.737 716.268 640.976C732.984 661.752 764.249 683.225 789.04 693.906L788.961 740.378C783.328 744.387 765.998 749.03 763.492 751.119C761.214 748.242 749.106 738.286 745.468 735.143L708.09 702.664C677.759 676.225 647.251 649.988 616.569 623.956C607.591 616.342 598.977 608.592 589.83 601.139Z" fill="#98F5E1"/>
<path d="M164.855 549.051C179.243 536.758 201.462 518.317 220.355 514.222C227.573 512.658 231.043 514.834 236.457 518.72C237.113 561.759 238.083 604.793 239.367 647.819C237.84 645.969 227.176 639.448 224.58 637.831C207.015 614.92 190.577 591.168 175.322 566.659C172.931 562.846 166.232 552.656 164.855 549.051Z" fill="#8EECF5"/>
<path d="M240.057 522.648C262.852 547.21 282.171 601.842 271.141 635.098C266.396 649.407 256.355 651.253 242.731 651.069C241.937 642.308 242.289 627.357 242.035 617.937L240.057 522.648Z" fill="#8EECF5"/>
<path d="M155.746 536.492C159.669 540.184 161.153 545.105 163.645 549.832C162.071 551.895 162.042 552.446 161.439 554.923C157.93 549.961 156.458 542.44 155.746 536.492Z" fill="#E6DEF6"/>
<path d="M163.646 549.831L164.856 549.051C166.233 552.656 172.932 562.846 175.323 566.659C190.578 591.168 207.016 614.92 224.581 637.831C220.431 636.564 213.935 634.046 210.09 633.29C194.488 630.221 179.9 631.3 165.759 638.753C152.076 645.964 144.772 656.796 138.001 670.264C130.86 657.299 126.334 639.378 123.518 624.85C120.051 593.818 131.608 577.132 154.653 557.301C157.789 563.959 162.345 559.131 161.44 554.922C162.043 552.445 162.072 551.894 163.646 549.831Z" fill="#90DBF4"/>
<path d="M471.605 600.414C474.904 599.312 484.48 599.796 488.537 599.514C515.928 597.614 539.274 589.742 564.784 580.87C573.785 577.739 614.231 559.785 619.041 559.848C609.56 567.445 598.33 575.274 588.391 582.308C569.995 595.329 552.023 609.953 532.425 620.96C527.887 623.509 516.926 623.726 511.77 623.132C499.409 622.15 481.842 608.051 471.605 600.414Z" fill="#98F5E1"/>
<path d="M297.32 747.352C349.756 701.431 399.629 653.528 450.855 606.365C458.323 611.557 465.751 616.806 473.139 622.11C489.957 634.099 500.531 641.371 522.398 639.411C541.085 637.736 551.34 628.359 566.056 617.98L587.238 603.191L698.762 699.432L738.146 733.442C743.692 738.218 755.315 747.599 759.834 752.555C733.384 759.663 708.775 760.785 684.689 746.176C667.71 735.877 649.911 724.651 629.319 730.511C605.198 737.376 592.227 762.006 582.712 783.032C569.836 783.496 553.132 784.64 540.624 784.505C540.497 784.369 539.966 783.788 539.841 783.707C531.533 778.381 520.946 773.034 512.387 768.299C467.317 743.368 420.941 724.579 368.362 732.886C354.28 735.111 343.234 737.584 329.363 741.393C321.671 743.506 306.376 747.503 298.651 747.962L297.945 748.001L297.32 747.352Z" fill="#98F5E1"/>
<path d="M354.609 845.856C349.572 848.566 342.468 851.161 336.992 853.157C241.522 887.954 113.225 815.968 107.013 710.809C105.56 685.921 109.232 660.999 117.803 637.588C119.041 634.151 121.29 627.379 123.519 624.852C126.335 639.38 130.861 657.301 138.002 670.266C128.544 695.517 130.56 729.29 141.413 753.862C153.941 782.225 174.859 800.028 203.711 810.739C241.155 824.64 292.629 824.417 330.967 814.686C335.46 821.683 349.119 840.375 354.609 845.856Z" fill="#FBF8CC"/>
<path d="M239.607 656.587C238.906 658.852 239.428 673.02 239.438 676.454C239.5 698.903 240.481 721.458 240.578 743.903C195.966 732.284 169.867 713.248 141.777 677.43C144.884 667.779 150.453 659.104 157.935 652.26C173.479 637.895 193.663 634.936 213.83 640.677C222.06 643.02 233.828 650.298 239.607 656.587Z" fill="#90DBF4"/>
<path d="M240.578 743.902C240.481 721.457 239.5 698.902 239.438 676.453C239.428 673.019 238.906 658.851 239.607 656.586C240.71 657.812 241.919 658.926 242.537 660.421C242.467 685.846 243.525 711.44 243.866 736.879C243.907 739.92 244.003 743.369 244.238 746.399C244.623 761.503 244.531 776.595 244.956 791.692C258.431 779.556 271.353 766.858 285.038 754.949C287.148 753.113 289.402 751.156 291.432 749.243L292.631 751.755C277.693 766.544 262.014 779.645 247.288 794.163C270.014 793.383 291.74 791.729 314.772 791.365C315.45 792.435 316.018 793.428 316.822 794.406C297.318 795.857 277.397 795.621 257.847 797.067C253.74 797.371 246.292 798.011 242.692 796.145C240.721 792.53 240.748 751.333 240.578 743.902Z" fill="#453634"/>
<path d="M242.538 660.422C261.549 686.041 276.029 719.68 291.028 748.132C281.798 748.189 272.503 748.426 263.276 747.736C259.9 747.484 246.482 744.067 244.45 744.847L244.239 746.4C244.004 743.37 243.908 739.921 243.867 736.88C243.526 711.441 242.468 685.847 242.538 660.422Z" fill="#90DBF4"/>
<path d="M885.749 670.211C879.146 675.698 857.007 691.288 849.094 693.789C850.547 691.316 851.827 689.121 853.135 686.561C859.424 684.297 883.328 670.371 885.749 670.211Z" fill="#83EEA0"/>
<path d="M327.266 809.684C293.635 818.77 241.193 818.424 208.264 806.451C181.438 796.698 160.909 780.526 148.466 754.32C139.252 734.913 136.563 713.717 138.99 692.515C139.432 688.653 140.473 680.978 141.777 677.43C169.867 713.248 195.966 732.284 240.578 743.903C240.748 751.334 240.721 792.531 242.692 796.146C246.292 798.012 253.74 797.372 257.847 797.068C277.397 795.622 297.318 795.858 316.822 794.407C319.226 795.93 324.21 806.032 327.266 809.684Z" fill="#FBF8CC"/>
<path d="M792.379 697.939C809.46 699.473 828.62 693.152 844.778 688.066C843.994 689.256 843.291 690.441 842.362 691.509C838.656 692.03 831.661 695.464 826.875 696.694C813.996 700.03 805.854 701.691 792.513 701.362L792.379 697.939Z" fill="#F38393"/>
<path d="M826.875 696.697C831.661 695.467 838.656 692.033 842.362 691.512C840.674 693.857 840.073 694.627 838.005 696.624C834.736 697.501 831.488 698.453 828.263 699.48C827.957 698.511 827.376 697.607 826.875 696.697Z" fill="#83EEA0"/>
<path d="M792.511 701.363C805.852 701.692 813.994 700.031 826.873 696.695C827.374 697.605 827.955 698.509 828.261 699.478C829.005 701.982 829.764 704.334 830.247 706.906C823.061 716.115 802.479 733.224 792.326 738.481L792.511 701.363Z" fill="#90DBF4"/>
<path d="M828.262 699.477C831.487 698.45 834.735 697.498 838.004 696.621C835.578 700.34 833.052 703.47 830.248 706.905C829.765 704.333 829.006 701.981 828.262 699.477Z" fill="#FFEDE1"/>
<path d="M832.407 714.57C835.932 777.706 785.382 846.418 719.671 847.378C680.63 847.948 644.47 836.717 609.428 819.909C599.852 815.442 587.765 808.632 578.615 804.908C581.775 798.837 584.838 792.716 587.803 786.548C643.835 786.15 700.367 782.245 756.448 781.765C768.134 781.666 781.091 781.486 792.72 780.607C792.801 775.585 793.517 749.57 792.581 746.154C794.113 744.909 797.057 743.071 798.808 742.038C811.777 734.385 821.661 724.929 832.407 714.57Z" fill="#90DBF4"/>
<path d="M297.945 748.003L298.651 747.964C306.376 747.505 321.671 743.508 329.363 741.395C343.234 737.586 354.28 735.113 368.362 732.888C420.941 724.581 467.317 743.37 512.387 768.301C520.946 773.036 531.533 778.383 539.841 783.709C539.966 783.79 540.497 784.371 540.624 784.507L377.091 789.231L340.798 790.308C337.166 790.398 324.525 790.508 321.474 791.154C320.121 789.692 314.984 780.041 313.756 777.802C308.461 768.149 303.651 757.382 297.945 748.003Z" fill="#FFCFD2"/>
<path d="M589.744 782.663C597.569 765.915 612.64 742.202 631.153 737.034C651.36 731.393 668.951 745.15 685.541 754.61C710.505 768.845 738.774 765.628 765.34 758.174C771.601 763.193 781.159 772.213 786.918 777.931L708.581 779.782C669.537 781 628.696 782.699 589.744 782.663Z" fill="#98F5E1"/>
<path d="M244.238 746.399L244.449 744.846C246.481 744.066 259.899 747.483 263.275 747.735C272.502 748.425 281.797 748.188 291.027 748.131L291.432 749.243C289.402 751.156 287.148 753.113 285.038 754.949C271.353 766.858 258.431 779.556 244.956 791.692C244.531 776.595 244.623 761.503 244.238 746.399Z" fill="#FDE4CF"/>
<path d="M789.402 747.878C790.11 747.309 791.702 746.598 792.583 746.156C793.519 749.572 792.803 775.587 792.722 780.609C781.093 781.488 768.136 781.668 756.45 781.767C700.369 782.247 643.837 786.152 587.805 786.55C588.438 785.247 589.085 783.952 589.746 782.663C628.698 782.699 669.539 781 708.583 779.782L786.92 777.931C781.161 772.213 771.603 763.193 765.342 758.174L768.558 756.533C775.11 760.818 783.059 769.342 789.528 774.689C789.545 765.752 789.503 756.815 789.402 747.878Z" fill="#453634"/>
<path d="M768.557 756.534C770.833 756.454 786.465 749.319 789.401 747.879C789.502 756.816 789.544 765.753 789.527 774.69C783.058 769.343 775.109 760.819 768.557 756.534Z" fill="#8EECF5"/>
<path d="M292.632 751.754C294.96 754.579 300.854 766.223 302.895 770.09C306.437 776.804 311.523 784.74 314.773 791.364C291.741 791.728 270.015 793.382 247.289 794.162C262.015 779.644 277.694 766.543 292.632 751.754Z" fill="#FFCFD2"/>
<path d="M540.625 784.508C553.133 784.643 569.837 783.499 582.713 783.035C582.104 784.229 581.429 785.755 580.641 786.783C573.174 786.988 555.416 787.009 548.595 787.769L450.787 790.153L365.923 792.768C352.084 793.206 337.114 793.971 323.345 794.047L321.475 791.155C324.526 790.509 337.167 790.399 340.799 790.309L377.092 789.232L540.625 784.508Z" fill="#453634"/>
<path d="M548.596 787.767C555.417 787.007 573.175 786.986 580.642 786.781L572.971 801.345C565.716 797.824 556.114 791.837 548.596 787.767Z" fill="#A3C4F3"/>
<path d="M450.786 790.154L548.594 787.77C556.112 791.84 565.714 797.827 572.969 801.348C571.658 804.575 568.717 809.358 566.842 812.482C551.508 838.042 526.051 858.978 498.752 870.755C467.998 884.023 432.697 883.675 401.614 871.644C388.752 866.666 370.216 853.754 360.982 843.03C384.927 831.352 406.775 815.545 429.894 802.407C433.78 800.199 447.506 790.604 450.786 790.154Z" fill="#E6DEF6"/>
<path d="M323.346 794.046C337.115 793.97 352.085 793.205 365.924 792.767L450.788 790.152C447.508 790.602 433.782 800.197 429.896 802.405C406.777 815.543 384.929 831.35 360.984 843.028C356.662 837.787 351.459 832.807 347.132 827.256C341.614 820.179 336.723 812.956 331.612 805.586C329.2 802.107 325.237 797.583 323.346 794.046Z" fill="#FBF8CC"/>
</svg>
