<svg width="1024" height="1024" viewBox="0 0 1024 1024" fill="none" xmlns="http://www.w3.org/2000/svg">
<path d="M437.148 102.055C446.376 98.6936 455.622 94.3773 464.891 90.8312C525.373 67.692 590.903 50.4135 652.782 79.5209C675.955 90.4212 678.289 95.2743 696.938 109.018L696.994 109.257C693.967 111.904 689.475 118.492 686.937 122.022C675.601 137.788 664.248 155.167 654.8 172.126C648.893 183.713 628.201 211.143 618.181 218.059C613.666 216.157 585.999 204.056 582.548 205.262C581.717 205.552 581.718 205.813 581.27 206.493C582.035 207.484 596.035 212.404 598.81 213.665C602.467 215.327 607.735 217.307 611.561 218.973C611.956 220.271 612.525 220.51 613.554 221.308C609.768 225.587 605.803 229.751 601.895 233.922C597.203 231.561 592.427 229.052 587.587 227.042C590.844 229.72 595.944 232.574 599.662 234.81C592.895 242.338 581.196 252.033 573.477 259.676C564.708 268.358 557.049 277.703 548.685 286.112C503.927 279.095 459.047 265.511 415.708 283.249C412.679 284.488 402.128 287.964 400.095 289.274C402.04 289.628 424.743 281.028 429.13 279.751C470.087 267.823 508.337 282.523 548.422 286.705C543.998 294.124 532.758 304.254 527.841 312.077C506.434 309.176 486.681 302.122 465.074 300.018C442.385 297.809 422.958 306.885 401.456 311.709C399.029 312.254 396.875 312.215 394.468 312.634C400.347 314.527 426.225 305.85 433.62 303.858C466.882 294.899 494.786 307.9 527.832 312.726C521.37 324.991 510.471 340.48 507.652 354.45C478.647 356.834 456.59 362.922 431.112 377.434C417.952 379.141 406.432 381.714 393.532 384.652C390.244 385.401 380.841 385.691 378.813 386.395C384.317 386.433 389.089 386.451 394.545 385.497C403.753 383.887 419.845 378.802 429.105 378.668C416.682 386.746 408.854 392.426 398.025 402.69L397.104 402.878C393.649 403.567 381.882 404.471 380.637 404.933C387.882 406.18 392.762 403.601 397.011 404.091C383.32 418.903 372.528 439.938 365.424 458.803C361.807 458.487 350.914 458.449 348.736 457.379L348.268 455.615C348.888 428.989 349.649 401.788 351.186 375.577C353.554 335.177 354.474 290.988 387.097 262.038C397.851 252.495 409.087 244.565 421.524 237.244C425.131 235.024 437.484 228.825 439.883 226.754L439.472 226.345C435.507 227.329 430.537 230.256 426.784 232.078C395.101 247.464 363.834 273.035 355.999 309.22C345.794 356.358 347.293 407.727 345.502 455.822L328.818 455.994C328.965 438.211 329.703 420.475 330.112 402.702C330.883 369.205 331.152 297.136 345.88 268.789C360.317 241.002 392.215 227.741 419.933 217.066C428.378 213.813 436.831 210.307 445.47 207.609C464.55 229.151 530.622 224.349 557.261 219.006C565.931 217.267 580.081 212.451 579.271 200.813C577.544 176.022 587.327 138.761 562.265 122.785C537.899 110.602 495.044 111.345 469.081 118.206C468.982 117.875 468.336 116.078 468.331 116.074C462.1 110.447 443.37 105.852 437.148 102.055ZM446.679 322.212C428.851 323.05 413.709 330.041 396.165 331.904C393.084 332.231 386.546 331.504 384.096 332.275C400.578 335.488 421.886 326.572 439.899 323.531C455.498 322.003 470.851 323.267 486.008 327.235C490.582 328.432 498.425 331.264 502.245 331.854L502.153 331.329C487.307 325.999 462.567 320.404 446.679 322.212ZM429.313 348.748C409.43 350.025 398.206 358.912 381.404 358.463C382.792 358.808 385.786 359.567 387.078 359.404C399.258 357.859 408.371 352.788 421.03 350.642L421.642 350.532C432.311 348.675 447.048 349.165 457.78 350.69C461.498 351.219 470.304 354.279 472.786 353.587C461.369 349.899 441.103 347.247 429.313 348.748Z" fill="#F1C0E8"/>
<path d="M696.938 109.019C720.847 81.7388 745.254 68.1238 781.979 65.6049C819.018 62.5434 859.683 78.1215 886.945 103.395C959.194 170.372 968.92 284.221 920.218 367.683C917.53 372.289 915.206 377.54 912.43 382.052C904.642 372.11 886.611 350.68 874.661 345.851L874.622 345.348C874.965 343.687 875.056 342.082 875.211 340.399C883.562 249.761 842.642 183.935 747.255 175.353L746.924 175.127C732.494 148.428 718.641 130.576 696.994 109.258L696.938 109.019Z" fill="#EEECF1"/>
<path d="M108.059 387.16C98.1394 374.329 87.3028 357.541 81.1341 342.485C62.0815 295.984 57.1174 240.42 75.9333 193.194C94.3359 147.006 129.231 118.74 174.248 100.572C241.327 73.4996 320.725 72.9517 390.701 88.8131C406.755 92.4521 421.464 95.8765 436.688 102.055C416.406 111.768 394.055 121.888 374.101 132.251C312.279 164.358 250.191 202.58 199.371 250.537C185.849 263.297 168.823 284.219 157.349 298.974C147.311 311.88 136.547 331.639 127.901 345.725C124.316 351.564 109.348 385.759 108.059 387.16Z" fill="#FDE4CF"/>
<path d="M436.688 102.055L437.148 102.056C443.37 105.853 462.1 110.448 468.331 116.075C468.336 116.079 468.982 117.876 469.081 118.207C463.537 119.785 458.759 121.865 455.373 126.727C453.161 129.903 445.928 138.03 446.026 141.555C446.599 162.255 443.331 185.129 444.155 205.509C435.7 207.451 425.983 211.303 417.884 214.484C385.01 227.398 347.451 244.808 337.374 281.974C334.341 293.162 333.221 304.801 331.778 316.276C328.324 344.874 326.425 374.591 326.214 403.385L326.12 432.88C326.105 437.504 326.225 446.243 325.57 450.72C325.51 449.079 325.66 446.932 324.795 445.676C321.957 446.187 317.724 448.866 314.876 450.04C239.825 480.963 156.925 448.683 108.145 387.662L108.059 387.16C109.348 385.759 124.316 351.564 127.901 345.725C136.547 331.639 147.311 311.88 157.349 298.974C168.823 284.219 185.849 263.297 199.371 250.537C250.191 202.58 312.279 164.358 374.101 132.251C394.055 121.888 416.406 111.768 436.688 102.055Z" fill="#FFCFD2"/>
<path d="M654.801 172.127C664.249 155.168 675.602 137.789 686.938 122.023C689.476 118.493 693.968 111.905 696.995 109.258C718.642 130.576 732.496 148.428 746.926 175.127C738.235 174.4 727.3 173.227 718.719 173.061L677.077 172.607C670.189 172.531 661.53 172.693 654.801 172.127Z" fill="#EAD1F2"/>
<path d="M469.08 118.207C495.043 111.346 537.898 110.603 562.264 122.786C587.326 138.762 577.543 176.023 579.27 200.814C580.08 212.452 565.93 217.268 557.26 219.007C530.621 224.35 464.549 229.152 445.469 207.61C436.83 210.308 428.377 213.814 419.932 217.067C392.214 227.742 360.316 241.003 345.879 268.79C331.151 297.137 330.882 369.206 330.111 402.703C329.702 420.476 328.964 438.212 328.817 455.995C326.512 536.679 315.548 615.581 321.646 696.15C323.363 718.835 323 742.323 324.299 765.077C325.063 789.753 325.15 818.14 330.986 842.085C332.838 849.681 347.576 873.429 354.531 876.273L354.92 876.089L356.327 876.654L356.965 876.041C358.571 880.919 367.192 884.891 371.741 887.17C399.916 901.201 433.328 904.519 464.349 906.588C510.825 909.688 558.018 908.694 604.13 901.904C628.348 898.338 652.348 894.115 670.87 876.646C688.793 862.856 690.16 838.143 692.371 817.54C701.499 732.488 705.757 646.528 706.01 560.997C706.057 545.148 706.254 529.314 705.152 513.491C702.32 462.712 703.062 411.311 698.21 360.485C695.694 334.123 698.269 304.319 688.093 279.572C676.16 250.551 639.724 230.018 611.56 218.974C607.734 217.308 602.466 215.328 598.809 213.666C596.034 212.405 582.034 207.485 581.269 206.494C581.717 205.814 581.716 205.553 582.547 205.263C585.998 204.057 613.665 216.158 618.18 218.06C657.979 235.753 692.437 256.003 697.622 303.337C699.497 320.248 699.719 338.688 700.924 355.81C704.506 406.67 707.146 458.388 708.375 509.366L708.504 523.426C708.752 536.377 708.866 548.899 708.762 561.85C708.298 606.196 708.521 653.866 704.571 698.142C703.203 734.793 699.975 772.477 696.218 808.969C693.63 834.112 693.855 857.05 675.864 876.305C654.74 895.627 637.092 900.039 609.469 904.429C569.605 910.764 529.211 912.07 488.883 910.885C456.283 909.927 421.755 907.049 390.257 898.35C375.347 894.073 356.65 883.853 345.765 872.451C340.075 865.426 334.339 858.968 330.489 850.651C321.274 830.742 321.384 785.215 320.485 762.341C319.879 719.717 316.036 676.598 315.921 633.995C315.829 600.326 319.935 565.87 321.68 532.199C322.969 507.327 324.11 482.438 325.486 457.572L325.569 450.72C326.224 446.243 326.104 437.504 326.119 432.88L326.213 403.385C326.424 374.591 328.323 344.874 331.777 316.276C333.22 304.801 334.34 293.162 337.373 281.974C347.45 244.808 385.009 227.398 417.883 214.484C425.982 211.303 435.699 207.451 444.154 205.509C443.33 185.129 446.598 162.255 446.025 141.555C445.927 138.03 453.16 129.903 455.372 126.727C458.758 121.865 463.536 119.785 469.08 118.207ZM573.938 146.002C573.866 142.326 569.133 133.687 567.294 130.148C552.255 146.098 476.214 142.238 457.02 130.361C455.551 132.172 449.405 139.459 449.21 141.449C447.452 159.386 447.794 179.001 447.078 197.165C447.067 197.452 447.23 197.948 447.299 198.183C446.173 200.035 446.2 199.919 446.347 202.081C446.954 203.897 447.459 205.666 448.727 207.153C456.331 216.076 483.592 219.065 495.181 219.744C511.178 220.68 562.368 219.763 574.048 208.682C574.927 207.849 575.522 206.948 575.778 205.757C576.881 200.627 576.185 194.286 576.143 189.041L575.521 148.875L573.938 146.002ZM508.096 116.721C500.43 116.955 459.278 119.347 459.47 127.595C464.954 134.99 505.555 137.443 515.624 137.273C524.282 137.068 560.569 135.256 564.123 128.485C563.932 127.42 563.677 126.659 562.449 126.098C548.002 119.491 523.408 116.289 508.096 116.721Z" fill="#0A607A"/>
<path d="M515.625 137.274C505.556 137.444 464.955 134.991 459.471 127.596C459.279 119.348 500.431 116.956 508.097 116.722C523.409 116.29 548.003 119.492 562.45 126.099C563.678 126.66 563.933 127.421 564.124 128.486C560.57 135.257 524.283 137.069 515.625 137.274ZM530.126 129.341C532.055 128.883 533.317 128.477 534.32 126.849L533.593 125.95C527.801 123.575 490.987 119.012 491.291 127.136C492.652 128.59 492.323 128.154 494.497 128.825C503.433 130.63 521.319 131.617 530.126 129.341Z" fill="#F1C0E8"/>
<path d="M495.387 126.727L494.497 128.826C492.323 128.155 492.652 128.591 491.291 127.137C490.987 119.013 527.801 123.576 533.593 125.951L534.32 126.85C533.317 128.478 532.055 128.884 530.126 129.342C528.854 128.1 528.064 128.171 526.293 127.894L526.243 127.437C522.753 125.642 499.585 125.29 495.387 126.727Z" fill="#0A607A"/>
<path d="M495.387 126.725C499.585 125.288 522.753 125.64 526.243 127.435L526.293 127.892C519.175 128.121 501.934 127.982 495.387 126.725Z" fill="#EAD1F2"/>
<path d="M494.496 128.826L495.386 126.727C501.933 127.984 519.174 128.123 526.292 127.894C528.063 128.171 528.853 128.1 530.125 129.342C521.318 131.618 503.432 130.631 494.496 128.826Z" fill="#184B7A"/>
<path d="M573.939 146.002C550.695 156.469 502.118 157.58 476.52 153.278C468.621 151.951 461.144 149.864 453.662 147.028L447.922 144.867C470.345 161.539 522.27 159.828 549.511 156.119C558.669 154.872 567.062 152.47 575.522 148.875L576.144 189.041C576.186 194.286 576.882 200.627 575.779 205.757C575.523 206.948 574.928 207.849 574.049 208.682C562.369 219.763 511.179 220.68 495.182 219.744C483.593 219.065 456.332 216.076 448.728 207.153C447.46 205.666 446.955 203.897 446.348 202.081C446.678 200.737 446.606 200.788 447.441 199.704C451.461 201.247 456.713 204.394 460.488 205.713C464.406 207.082 473.634 209.212 478.061 209.831C505.182 213.625 537.448 212.841 563.801 205.112C568.105 203.85 572.42 201.007 575.856 198.558C568.86 200.156 562.243 203.188 554.906 204.445C518.988 210.602 481.508 212.194 447.3 198.183C447.231 197.948 447.068 197.452 447.079 197.165C447.795 179.001 447.453 159.386 449.211 141.449C449.406 139.459 455.552 132.172 457.021 130.361C476.215 142.238 552.256 146.098 567.295 130.148C569.134 133.687 573.867 142.326 573.939 146.002Z" fill="#F1C0E8"/>
<path d="M447.922 144.867L453.662 147.028C461.144 149.864 468.621 151.951 476.52 153.278C502.118 157.58 550.695 156.469 573.939 146.002L575.522 148.875C567.062 152.47 558.669 154.872 549.511 156.119C522.27 159.828 470.345 161.539 447.922 144.867Z" fill="url(#paint0_linear_2247_9760)"/>
<path d="M654.801 172.129C661.53 172.695 670.189 172.533 677.077 172.609L718.719 173.063C727.3 173.229 738.235 174.402 746.926 175.129L747.257 175.355C769.518 215.75 781.895 262.518 787.001 308.175C777.562 307.845 766.578 304.977 756.808 304.516C748.344 304.027 738.44 303.561 730.03 303.624C722.712 303.679 703.628 300.874 697.624 303.339C692.439 256.005 657.981 235.755 618.182 218.062C628.202 211.146 648.894 183.716 654.801 172.129Z" fill="#CFBAF0"/>
<path d="M747.256 175.355C842.643 183.937 883.562 249.763 875.211 340.401C875.056 342.084 874.966 343.689 874.623 345.35C867.784 341.181 862.039 337.265 854.877 333.366C834.145 322.083 811.785 314.182 788.878 308.72L787 308.175C781.894 262.518 769.517 215.75 747.256 175.355Z" fill="#EAD1F2"/>
<path d="M447.3 198.184C481.508 212.195 518.988 210.603 554.906 204.446C562.243 203.189 568.86 200.157 575.856 198.559C572.42 201.008 568.105 203.851 563.801 205.113C537.448 212.842 505.182 213.626 478.061 209.832C473.634 209.213 464.406 207.083 460.488 205.714C456.713 204.395 451.461 201.248 447.441 199.705C446.606 200.789 446.678 200.738 446.348 202.082C446.201 199.92 446.174 200.036 447.3 198.184Z" fill="url(#paint1_linear_2247_9760)"/>
<path d="M611.56 218.977C639.724 230.021 676.161 250.554 688.094 279.575C698.27 304.322 695.695 334.126 698.211 360.488C703.063 411.314 702.321 462.715 705.153 513.494C700.842 515.109 690.592 525.31 687.015 528.889C686.816 478.921 687.179 429.918 684.617 379.997C680.6 301.739 673.586 271.869 601.895 233.926C605.803 229.755 609.768 225.591 613.554 221.312C612.525 220.514 611.955 220.275 611.56 218.977Z" fill="url(#paint2_linear_2247_9760)"/>
<path d="M348.269 455.618C343.531 552.869 339.182 650.767 340.518 748.133C340.608 754.679 340.776 767.43 341.799 773.515C343.449 798.26 345.582 821.929 350.491 846.275C352.116 854.334 353.353 862.487 355.58 870.452L356.967 876.043L356.329 876.656L354.922 876.091C352.395 867.04 349.66 858.341 347.839 849.082C342.784 823.383 340.559 796.861 338.932 770.749C336.062 734.531 337.476 696.833 338.443 660.553C339.135 634.596 339.183 608.472 340.058 582.533L345.503 455.825C347.294 407.73 345.795 356.361 356 309.223C363.835 273.038 395.102 247.467 426.785 232.081C430.538 230.259 435.508 227.332 439.473 226.348L439.884 226.757C437.485 228.828 425.132 235.027 421.525 237.247C409.088 244.568 397.852 252.498 387.098 262.041C354.475 290.991 353.555 335.18 351.187 375.58C349.65 401.791 348.889 428.992 348.269 455.618Z" fill="url(#paint3_linear_2247_9760)"/>
<path d="M587.587 227.043C592.427 229.053 597.203 231.562 601.895 233.923C673.586 271.866 680.601 301.736 684.618 379.994C687.18 429.915 686.816 478.918 687.015 528.886C687.049 544.666 689.13 562.718 689.417 579.313C689.798 601.339 689.252 621.357 688.781 643.241L687.135 713.034C686.339 737.779 685.959 762.344 683.647 787.038C680.634 819.23 679.814 852.17 654.544 875.885C650.046 879.29 645.715 882.671 640.545 885.29C623.235 894.057 604.141 895.499 585.141 893.417C582.141 893.088 579.59 892.306 576.803 891.349C601.104 893.509 628.701 893.322 648.4 876.65C674.247 859.428 677.456 822.327 679.947 794.494C683.943 749.851 685.122 705.151 685.681 660.359C686.031 632.332 687.356 605.288 686.543 577.191C686.484 570.576 686.106 563.759 685.819 557.131C682.993 499.073 685.383 440.905 682.175 382.817C680.913 359.97 679.91 336.174 674.237 313.913C664.176 274.43 632.533 254.107 599.662 234.811C595.944 232.575 590.844 229.721 587.587 227.043Z" fill="#0A607A"/>
<path d="M599.662 234.812C632.533 254.108 664.176 274.432 674.237 313.915C679.91 336.176 680.913 359.971 682.175 382.818C685.383 440.906 682.993 499.075 685.819 557.133L685.259 557.237C685.035 558.346 684.984 558.505 684.555 559.553C682.799 560.829 683.189 560.981 681.437 560.99C679.777 559.188 680.267 559.465 679.646 556.698C679.151 551.471 680.825 536.29 681.316 530.48C685.372 482.5 677.402 428.618 640.665 394.192C644.642 392.588 661.867 396.247 664.364 395.715C661.932 393.672 643.328 393.004 639.396 393.028C635.915 389.148 618.927 377.811 613.676 374.356C618.558 370.65 644.991 365.738 651.829 365.428C655.761 365.25 664.124 365.198 667.134 364.718L666.99 364.26C661.761 363.453 652.559 364.574 647.221 364.903C641.992 365.226 616.334 370.565 613.558 373.975C609.069 372.785 595.528 365.75 588.376 363.257C563.094 354.447 534.356 353.449 507.652 354.452C510.471 340.482 521.37 324.994 527.832 312.729C532.77 313.929 541.397 314.489 546.561 315.007C569.425 317.302 592.319 316.61 615.229 315.637C620.948 315.394 636.296 314.971 640.853 313.322C626.765 313.457 610.883 314.885 596.538 315.261C572.204 315.9 552.067 315.247 527.841 312.08C532.758 304.257 543.998 294.127 548.422 286.708C553.344 287.446 558.27 288.051 563.212 288.637C585.946 291.333 608.328 296.114 631.28 296.231L630.528 295.77L632.654 296.119C632.475 296.112 632.295 296.104 632.116 296.097C604.258 294.05 576.466 289.211 548.685 286.115C557.049 277.706 564.708 268.361 573.477 259.679C581.196 252.036 592.895 242.34 599.662 234.812ZM519.029 335.292L518.764 335.704C551.547 339.893 605.475 346.92 637.322 335.644L636.79 335.235C610.862 340.791 584.469 342.385 558.056 339.46C555.155 339.138 518.814 335.171 519.029 335.292Z" fill="#CFBAF0"/>
<path d="M548.423 286.707C508.338 282.525 470.088 267.825 429.131 279.753C424.744 281.03 402.041 289.63 400.096 289.276C402.129 287.966 412.68 284.49 415.709 283.251C459.048 265.513 503.928 279.097 548.686 286.114C576.467 289.21 604.259 294.05 632.117 296.097C632.296 296.104 632.476 296.112 632.655 296.119L630.529 295.769L631.281 296.231C608.329 296.114 585.947 291.333 563.213 288.637C558.271 288.051 553.345 287.445 548.423 286.707Z" fill="#726980"/>
<path d="M527.833 312.728C494.787 307.902 466.883 294.901 433.621 303.86C426.226 305.852 400.348 314.529 394.469 312.636C396.876 312.217 399.03 312.256 401.457 311.711C422.959 306.887 442.386 297.811 465.075 300.02C486.682 302.124 506.435 309.178 527.842 312.079C552.068 315.246 572.205 315.9 596.539 315.261C610.884 314.885 626.766 313.457 640.854 313.322C636.297 314.971 620.949 315.394 615.23 315.637C592.32 316.61 569.426 317.302 546.562 315.007C541.398 314.489 532.771 313.928 527.833 312.728Z" fill="#726980"/>
<path d="M697.623 303.34C703.627 300.875 722.711 303.68 730.029 303.625C738.439 303.562 748.343 304.028 756.807 304.517C766.577 304.978 777.561 307.846 787 308.176L788.878 308.721C788.107 309.134 787.692 309.127 787.633 309.883C786.91 319.121 787.937 330.236 787.707 339.487C787.536 346.409 787.131 352.006 786.7 358.434C783.271 409.59 761.499 451.513 728.006 489.542C723.912 494.191 713.077 506.476 708.376 509.369C707.147 458.391 704.507 406.673 700.925 355.813C699.72 338.691 699.498 320.251 697.623 303.34Z" fill="#A3C4F3"/>
<path d="M708.375 509.367C713.076 506.474 723.911 494.189 728.005 489.54C761.498 451.511 783.27 409.588 786.699 358.432C787.13 352.004 787.535 346.407 787.706 339.485C787.936 330.234 786.909 319.119 787.632 309.881C787.691 309.125 788.106 309.132 788.877 308.719C811.784 314.181 834.144 322.082 854.876 333.365C862.038 337.264 867.783 341.18 874.622 345.349L874.661 345.852C871.068 364.865 867.096 383.029 860.599 401.33C847.788 437.417 825.528 470.343 795.824 494.643C777.652 509.517 757.629 523.474 733.619 526.186C724.619 527.203 717.176 525.36 708.504 523.427L708.375 509.367Z" fill="#90DBF4"/>
<path d="M439.899 323.533C421.886 326.574 400.578 335.49 384.096 332.277C386.546 331.506 393.084 332.233 396.165 331.906C413.709 330.043 428.851 323.052 446.679 322.214C462.567 320.406 487.307 326.001 502.153 331.331L502.245 331.856C498.425 331.266 490.582 328.434 486.008 327.237C470.851 323.269 455.498 322.005 439.899 323.533Z" fill="#7D777C"/>
<path d="M637.322 335.643C605.475 346.919 551.547 339.892 518.764 335.703L519.029 335.292C518.814 335.171 555.155 339.138 558.056 339.46C584.469 342.385 610.862 340.79 636.79 335.234L637.322 335.643Z" fill="#726980"/>
<path d="M874.663 345.852C886.613 350.681 904.643 372.111 912.431 382.053C955.646 440.043 945.925 525.073 906 582.171C901.273 579.307 894.836 573.163 889.585 569.726C840.806 537.803 784.202 537.355 730.622 556.581C725.277 558.499 714.54 562.667 708.764 561.851C708.868 548.9 708.754 536.378 708.506 523.427C717.178 525.36 724.621 527.203 733.621 526.186C757.631 523.474 777.654 509.517 795.826 494.643C825.53 470.343 847.79 437.417 860.601 401.33C867.098 383.029 871.07 364.865 874.663 345.852Z" fill="#98F5E1"/>
<path d="M381.404 358.467C398.206 358.916 409.43 350.029 429.313 348.752C441.103 347.251 461.369 349.903 472.786 353.591C470.304 354.283 461.498 351.223 457.78 350.694C447.048 349.169 432.311 348.679 421.642 350.536L421.03 350.646C408.371 352.792 399.258 357.863 387.078 359.408C385.786 359.571 382.792 358.812 381.404 358.467Z" fill="#7D777C"/>
<path d="M431.111 377.436C456.589 362.924 478.646 356.836 507.651 354.452C534.355 353.449 563.093 354.446 588.375 363.256C595.527 365.749 609.068 372.784 613.557 373.974L613.675 374.356C618.926 377.811 635.914 389.147 639.395 393.027L640.664 394.191C677.401 428.617 685.371 482.5 681.315 530.48C680.824 536.29 679.15 551.471 679.645 556.698C678.703 565.153 677.844 573.713 676.76 582.139C674.163 598.091 672.866 609.251 668.016 625.108C656.749 661.944 632.869 691.87 602.174 714.491C572.235 736.555 542.488 744.248 505.77 744.865C473.918 745.284 444.715 737.097 417.914 720.055C392.809 704.092 367.3 681.662 360.13 651.827C356.893 650.936 348.134 649.767 346.662 647.266C347.327 643.974 354.212 639.885 357.227 637.705C354.043 618.34 353.832 603.455 352.729 584.503C349.937 536.51 348.825 504.306 365.423 458.805C372.527 439.94 383.319 418.905 397.01 404.093L398.024 402.692C408.853 392.428 416.681 386.748 429.104 378.67C429.646 378.518 430.641 377.753 431.111 377.436ZM504.628 357.266C462.062 361.101 422.845 378.665 394.27 411.339C384.872 422.085 374.624 442.866 369.318 456.616C352.886 502.671 352.405 527.994 355.246 577.256C356.359 596.574 357.284 614.384 359.23 634.064C367.422 619.058 371.168 614.695 381.935 601.842C375.038 589.999 371.127 575.705 374.594 562.432C376.494 555.163 384.724 541.443 391.22 539.058C413.912 530.727 413.576 559.475 407.083 572.28C400.649 584.97 395.231 592.797 387.169 602.315C392.619 613.423 401.471 628.334 396.927 640.979C391.901 654.965 374.775 653.691 363.127 652.28C371.656 683.625 397.622 704.394 424.495 720.546C452.544 737.405 476.172 742.108 508.434 742.155C546.749 741.924 578.803 730.375 608.265 706.427C657.227 666.628 668.135 628.876 675.243 569.87C676.754 562.045 677.427 549.079 678.009 540.985C679.958 513.886 681.098 485.243 674.181 458.682C664.839 422.813 647.942 397.889 615.832 378.71C587.24 361.63 559.39 356.486 526.541 356.759C522.348 356.793 507.857 356.46 504.628 357.266ZM397.692 543.501C376.909 552.349 376.974 578.547 384.454 596.222C384.652 596.691 384.974 597.022 385.292 597.391C386.559 596.387 386.69 596.264 387.734 595.032C397.553 582.225 408.128 567.849 406.798 550.789C406.431 546.076 402.169 543.352 397.692 543.501ZM383.257 606.414C372.829 617.027 366.723 626.119 361.125 639.673C361.607 642.567 362.009 645.259 362.744 648.108C365.562 648.323 368.295 648.559 371.124 648.615C383.073 648.674 391.493 646.54 392.114 632.764C392.409 626.23 386.846 611.507 383.257 606.414Z" fill="#057179"/>
<path d="M504.63 357.266C507.859 356.46 522.35 356.793 526.543 356.759C559.392 356.486 587.242 361.63 615.834 378.71C647.944 397.889 664.841 422.813 674.183 458.682C681.1 485.243 679.96 513.886 678.011 540.985C677.429 549.079 676.756 562.045 675.245 569.87L674.655 569.006C672.748 568.439 671.212 567.614 669.572 568.091C665.737 563.762 660.512 570.255 657.309 573.139C659.548 564.992 662.919 554.067 650.905 550.692C648.465 550.006 645.373 551.52 643.458 552.892C631.924 562.078 636.906 570.606 619.53 574.013C619.259 564.982 612.927 551.032 602.037 560.264C600.534 561.537 600.679 566.176 597.775 566.88C594.269 570.054 590.983 587.779 590.416 592.75C590.206 594.592 590.227 598.334 590.316 599.695C582.463 605.563 580.024 613.909 567.326 613.991C577.735 607.945 581.738 598.323 585.059 587.352C586.799 581.604 588.876 567.795 583.545 564.136C575.883 558.877 565.925 576.532 562.552 580.746C563.142 576.771 565.678 565.389 564.508 562.432C563.159 561.084 563.933 561.496 562.146 561.071L560.724 561.595C558.884 565.771 558.725 569.56 557.723 573.668C554.947 585.05 553.302 604.767 547.466 614.648C544.248 619.342 543.067 621.541 538.449 624.949C537.675 612.848 539.746 599.993 543.166 588.388C549.744 566.059 538.61 561.748 527.746 582.736C527.736 572.49 524.051 567.591 516.165 577.722C511.345 565.893 506.582 573.905 502.56 580.285C502.573 577.465 502.824 576.181 501.553 573.668L500.595 573.11C495.21 575.404 494.73 601.82 493.205 607.617C491.976 612.285 487.667 623.381 481.713 622.602C480.292 621.824 479.679 620.876 479.278 619.343C477.167 611.282 488.864 581.542 481.911 578.075C480.711 577.477 480.129 577.644 478.931 577.962C477.872 579.137 477.982 579.196 477.531 580.753C475.153 581.261 473.154 579.1 470.966 580.652C465.538 584.504 461.056 590.417 458.092 596.341C454.336 603.09 448.915 631.498 439.296 630.516C431.218 624.74 446.809 590.899 436.951 582.566C436.087 581.836 433.936 581.155 432.884 580.779C437.512 569.318 443.321 553.43 440.181 540.301C439.149 536.832 434.276 537.018 431.84 538.436C428.496 540.382 426.593 545.169 425.216 548.586C417.952 566.607 415.811 585.921 412.965 604.99C411.032 617.944 408.48 631.131 408.448 644.241C408.444 646.331 409.767 648.115 411.37 649.299C415.504 649.436 413.994 636.463 414.546 632.894C416.175 622.367 421.217 592.069 431.256 587.606C433.338 587.816 432.517 587.398 433.925 588.616C437.249 597.765 422.19 628.526 436.47 635.591C444.099 639.365 450.836 625.461 452.624 619.725C456.297 636.525 464.875 633.556 472.308 620.821C473.611 623.572 474.737 626.744 477.895 627.706C484.137 629.606 488.964 622.851 491.783 618.425C491.514 621.83 490.823 626.071 494.879 627.65C501.411 624.686 497.508 583.029 509.305 578.008C513.773 581.299 505.331 609.755 508.069 615.467C509.591 616.599 508.767 616.348 510.604 616.322C513.359 614.037 513.935 603.203 514.525 599.218C515.833 590.381 517.132 584.961 522.023 577.453C522.807 584.074 522.207 590.036 521.546 596.654C521.26 599.513 520.327 606.187 522.612 608.157C527.824 606.226 526.478 591.74 529.118 587.323C531.095 584.013 535.084 577.08 538.382 575.277L539.218 575.483C540.937 580.225 526.193 618.51 535.517 626.011C536.768 626.365 537.043 626.513 538.324 626.542C536.739 639.797 536.11 654.282 534.553 667.606C534.111 671.392 533.814 677.94 532.68 681.179L532.054 681.526L530.977 681.931C530.542 683.716 531.37 697.084 531.751 699.722C530.25 698.987 529.671 698.501 528.036 698.77C520.818 706.675 521.281 713.09 517.511 722.622C514.956 729.082 511.739 736.047 508.436 742.155C476.174 742.108 452.546 737.405 424.497 720.546C397.624 704.394 371.658 683.625 363.129 652.28C374.777 653.691 391.903 654.965 396.929 640.979C401.473 628.334 392.621 613.423 387.171 602.315C395.233 592.797 400.651 584.97 407.085 572.28C413.578 559.475 413.914 530.727 391.222 539.058C384.726 541.443 376.496 555.163 374.596 562.432C371.129 575.705 375.04 589.999 381.937 601.842C371.17 614.695 367.424 619.058 359.232 634.064C357.286 614.384 356.361 596.574 355.248 577.256C352.407 527.994 352.888 502.671 369.32 456.616C379.628 459.665 392.185 461.256 402.811 463.244C418.428 466.165 434.081 469.22 449.672 472.288C463.108 474.931 479.69 476.864 492.558 480.488C492.614 478.375 492.544 476.277 492.45 474.167C491.882 461.451 491.776 448.712 491.969 435.986C495.292 436.132 498.867 436.222 502.162 436.461L494.438 482.115C493.146 490.528 485.149 550.736 463.477 523.782C461.967 521.905 461.713 515.194 458.793 513.696C457.01 514.201 457.61 513.686 456.751 515.057C456.664 518.025 458.798 523.082 460.318 525.597C468.491 539.127 483.399 535.49 489.426 522C495.422 508.578 497.257 494.548 499.71 480.155C500.106 481.014 500.076 481.471 501.166 481.7C505.992 482.71 509.396 482.794 514.197 484.374C511.562 496.812 507.152 509.785 504.673 522.208C504.332 523.916 507.658 524.682 509.219 524.481C511.286 522.682 517.483 500.979 521.585 497.229C524.138 494.895 530.201 481.522 533.461 480.026C535.166 482.209 531.072 513.714 533.892 518.941C534.847 520.712 535.943 528.377 541.116 525.702C546.013 523.171 549.663 513.664 551.797 508.834C568.503 540.709 598.617 481.245 594.934 477.141C593.171 478.275 591.063 484.117 589.502 486.49C585.718 492.244 569.2 521.474 559.994 509.786C557.739 506.923 558.466 500.339 559.184 496.447C570.017 492.787 585.087 485.974 578.874 470.698C576.984 466.052 569.312 464.145 565.314 467.19C558.57 472.327 554.889 483.262 552.687 491.228C551.76 494.668 551.741 498.898 550.756 502.381C549.182 506.689 545.186 518.401 541.438 520.62L540.404 520.354C535.753 513.442 540.337 487.033 540.615 478.414C540.686 476.225 538.134 474.383 536.613 473.034C537.362 470.429 538.806 468.898 539.947 466.452C546.712 451.702 557.062 434.587 552.332 417.849C551.194 413.821 545.697 409.468 541.818 411.699C535.747 415.192 531.718 425.763 528.963 432.031C523.331 432.093 517.056 432.356 511.472 431.753C509.353 431.524 509.45 430.826 508.155 428.898C506.348 428.018 507.291 428.22 505.197 428.388C503.586 429.178 503.417 429.926 502.582 431.531L487.761 431.415C489.307 431.222 491.97 431.2 492.833 430.318C495.023 409.843 496.065 389.697 502.508 369.841C503.355 367.231 505.811 359.829 505.762 357.792L504.63 357.266ZM606.289 423.642C603.405 426.434 600.889 431.939 601.934 435.922C603.764 433.139 604.065 429.033 605.517 425.747C606.896 424.692 606.149 424.891 607.691 424.703C608.947 425.853 608.57 425.927 608.931 428.088L609.354 427.989C609.79 426.822 609.713 426.961 609.908 425.712C608.643 423.605 608.53 423.279 606.289 423.642ZM609.847 434.21C607.857 435.251 606.098 436.955 604.24 437.245L603.022 436.818L602.695 437.329C605.431 439.155 607.596 437.021 609.784 435.234L610.253 436.608L610.582 436.024C611.67 434.742 613.913 432.478 614.168 430.999C612.594 431.34 611.11 433.034 609.847 434.21ZM558.946 415.258C558.392 417.86 555.885 430.5 557.478 431.784C558.598 428.097 560.766 419.605 559.694 415.966L558.946 415.258ZM572.577 415.69C572.649 420.238 570.283 430.038 570.883 431.288L571.32 431.22C572.249 427.441 574.454 419.965 573.679 416.479L572.577 415.69ZM566.106 416.325C564.507 419.946 563.56 427.423 564.258 431.386L565.065 431.848L565.543 431.692C562.809 427.455 568.786 420.187 566.106 416.325ZM578.585 416.287C578.587 420.875 579.641 427.894 577.072 431.684C577.79 432.298 577.638 432.119 578.585 432.465C580.423 429.707 581.26 418.088 578.585 416.287ZM587.195 417.706C585.919 421.23 583.076 428.416 582.574 431.821L582.917 432.302C584.366 429.856 586.015 423.332 587.054 422.42L587.324 423.063C587.406 424.927 587.371 432.792 587.82 433.857L588.797 434.354L589.897 433.85L590.099 432.957C588.959 432.633 589.529 432.742 588.391 432.618C587.988 428.653 590.242 420.525 587.195 417.706ZM597.22 420.61C596.138 422.058 596.089 421.955 596.011 423.803C595.903 426.356 593.701 433.451 594.261 435.639C596.755 430.073 597.585 427.765 598.643 421.777C597.982 420.694 598.446 421.095 597.22 420.61ZM619.308 430.772C617.908 436.121 616.798 441.52 610.466 438.646L610.192 439.161L610.659 440.043C616.138 440.925 618.934 438.761 620.456 433.113C620.75 432.025 620.205 431.452 619.308 430.772ZM403.282 651.876C401.956 655.087 398.793 658.933 398.057 661.51C398.533 662.575 398.212 662.208 398.839 662.745C400.164 660.138 403.384 655.016 403.795 652.744L403.282 651.876ZM409.273 657.957C407.023 660.114 402.996 664.807 403.078 667.974L403.483 668.068C405.523 663.573 407.058 662.398 409.657 658.43L409.273 657.957ZM415.35 658.396C413.718 661.307 408.482 669.004 408.721 671.599L409.531 672.386C410.75 667.495 414.827 662.983 415.815 659.04L415.35 658.396ZM423.344 661.696C421.053 664.602 413.522 675.674 417.42 678.667L419.267 678.647C418.627 677.947 418.052 677.311 417.388 676.634C417.695 674.73 422.125 664.45 423.564 663.348C424.473 663.452 425.069 663.529 425.963 663.715C425.641 662.42 424.607 662.086 423.344 661.696ZM436.514 667.651C435.262 670.901 429.748 684.103 430.5 686.715L431.174 686.721L431.52 686.245L431.857 685.371C433.225 681.876 433.566 681.26 436.116 678.575L435.088 677.718C435.889 674.518 438.419 671.127 437.58 668.438L436.514 667.651ZM446.576 672.757C445.655 675.383 440.79 688.702 441.073 690.202C442.092 690.383 441.706 690.445 442.239 690.316C443.459 686.457 443.431 684.426 446.484 682.262L445.218 681.714C445.766 678.839 447.21 675.862 447.326 673.566L446.576 672.757ZM451.741 673.373C449.66 677.744 447.359 685.919 445.783 690.814L446.272 691.639C447.532 688.798 452.711 676.418 452.271 673.932L451.741 673.373ZM458.243 675.842C456.657 679.633 453.509 689.801 453.61 693.714L454.071 694.127C456.594 691.419 453.634 690.496 459.99 691.986C461.017 693.567 461.192 695.063 461.615 696.911L462.079 696.858C462.946 693.757 463.236 692.973 463.015 689.625C462.948 686.155 462.846 682.791 462.69 679.324L462.34 679.189C460.903 683.394 461.035 687.395 459.98 691.112C458.255 690.798 457.515 690.822 456.14 689.721C455.903 685.196 460.2 678.087 458.243 675.842ZM473.359 680.125C473.138 683.676 471.687 697.62 473.19 699.377L474.19 699.885C474.628 695.412 475.792 685.218 474.481 681.08L473.359 680.125ZM522.333 682.49C513.116 690.357 526.592 689.728 522.864 700.174L521.987 700.749C520.263 700.217 519.578 699.43 518.213 698.26C518.034 699.867 518.257 700.107 518.779 701.629C520.563 702.19 520.927 702.456 522.726 701.895C525.554 699.83 525.189 696.154 525.211 692.921C518.389 686.854 522.318 687.088 525.179 682.69C523.794 682.419 523.747 682.426 522.333 682.49ZM484.538 682.783C475.092 692.777 483.329 706.717 489.348 699.218L489.5 698.062L489.063 697.672C482.063 706.387 480.52 689.249 484.517 685.138C485.68 684.782 485.598 684.753 486.773 685.028L487.201 684.416C486.414 683.122 486.201 682.882 484.538 682.783ZM493.113 683.228C492.646 686.2 491.151 698.322 493.035 700.224C494.131 697.648 495.124 684.832 493.113 683.228ZM501.476 683.922C501.413 687.11 500.844 698.193 502.085 700.453C503.223 699.677 503.013 699.018 503.469 697.241C503.102 694.835 502.216 687.523 503.284 685.409L504.854 684.694L504.717 684.148C503.664 684.072 502.521 683.964 501.476 683.922Z" fill="#B9FBC0"/>
<path d="M369.318 456.616C374.624 442.866 384.872 422.085 394.27 411.339C422.845 378.665 462.062 361.101 504.628 357.266L505.76 357.792C505.809 359.829 503.353 367.231 502.506 369.841C496.063 389.697 495.021 409.843 492.831 430.318C491.968 431.2 489.305 431.222 487.759 431.415C473.638 432.621 450.849 436.589 449.615 454.96C449.449 457.42 451.248 460.42 452.903 462.181C457.334 466.899 470.29 461.21 464.713 454.963C461.404 454.257 461.609 457.931 458.353 459.104C455.768 458.72 453.602 456.796 454.329 453.996C458.358 438.481 478.793 436.11 491.967 435.986C491.774 448.712 491.88 461.451 492.448 474.167C492.542 476.277 492.612 478.375 492.556 480.488C479.688 476.864 463.106 474.931 449.67 472.288C434.079 469.22 418.426 466.165 402.809 463.244C392.183 461.256 379.626 459.665 369.318 456.616Z" fill="#FBF8CC"/>
<path d="M613.559 373.974C616.335 370.564 641.993 365.225 647.222 364.902C652.56 364.573 661.762 363.452 666.991 364.259L667.135 364.718C664.125 365.198 655.762 365.249 651.83 365.427C644.992 365.737 618.559 370.65 613.677 374.356L613.559 373.974Z" fill="#726980"/>
<path d="M429.105 378.672C419.845 378.806 403.753 383.89 394.545 385.5C389.089 386.454 384.317 386.436 378.812 386.398C380.841 385.694 390.244 385.404 393.532 384.655C406.432 381.717 417.952 379.145 431.112 377.438C430.642 377.755 429.647 378.52 429.105 378.672Z" fill="#7D777C"/>
<path d="M108.144 387.664C156.924 448.685 239.824 480.965 314.875 450.042C317.723 448.868 321.956 446.189 324.794 445.678C325.659 446.934 325.509 449.081 325.569 450.722L325.486 457.574C318.918 457.609 306.914 460.609 300.253 462.574C258.194 474.982 220.382 499.781 189.523 530.537C154.278 565.663 131.78 611.643 119.871 659.605C116.498 658.48 106.593 645.253 103.743 641.349C73.3143 599.989 74.9263 546.721 81.4332 498.335C85.3056 468.627 92.02 439.356 101.276 410.866C103.456 404.158 107.24 394.347 108.144 387.664Z" fill="#F1C0E8"/>
<path d="M639.396 393.028C643.328 393.004 661.933 393.673 664.365 395.716C661.868 396.248 644.642 392.588 640.665 394.192L639.396 393.028Z" fill="#726980"/>
<path d="M397.011 404.092C392.762 403.602 387.882 406.181 380.637 404.934C381.882 404.472 393.649 403.568 397.104 402.879L398.025 402.691L397.011 404.092Z" fill="#7D777C"/>
<path d="M491.968 435.987C478.794 436.111 458.359 438.482 454.33 453.997C453.603 456.797 455.769 458.721 458.354 459.105C461.61 457.932 461.405 454.258 464.714 454.964C470.291 461.211 457.335 466.9 452.904 462.182C451.249 460.421 449.45 457.421 449.616 454.961C450.85 436.59 473.639 432.622 487.76 431.416L502.581 431.532C503.416 429.927 503.585 429.179 505.196 428.389C507.29 428.221 506.347 428.019 508.154 428.899C509.449 430.827 509.352 431.525 511.471 431.754C517.055 432.357 523.33 432.094 528.962 432.032C531.717 425.764 535.746 415.193 541.817 411.7C545.696 409.469 551.193 413.822 552.331 417.85C557.061 434.588 546.711 451.703 539.946 466.453C538.805 468.899 537.361 470.43 536.612 473.035C538.133 474.384 540.685 476.226 540.614 478.415C540.336 487.034 535.752 513.443 540.403 520.355L541.437 520.621C545.185 518.402 549.181 506.69 550.755 502.382C551.74 498.899 551.759 494.669 552.686 491.229C554.888 483.263 558.569 472.328 565.313 467.191C569.311 464.146 576.983 466.053 578.873 470.699C585.086 485.975 570.016 492.788 559.183 496.448C558.465 500.34 557.738 506.924 559.993 509.787C569.199 521.475 585.717 492.245 589.501 486.491C591.062 484.118 593.17 478.276 594.933 477.142C598.616 481.246 568.502 540.71 551.796 508.835C549.662 513.665 546.012 523.172 541.115 525.703C535.942 528.378 534.846 520.713 533.891 518.942C531.071 513.715 535.165 482.21 533.46 480.027C530.2 481.523 524.137 494.896 521.584 497.23C517.482 500.98 511.285 522.683 509.218 524.482C507.657 524.683 504.331 523.917 504.672 522.209C507.151 509.786 511.561 496.813 514.196 484.375C518.58 468.517 522.456 452.937 527.445 437.223C521.805 436.834 514.045 436.959 508.241 436.886C504.617 451.552 501.911 465.17 499.709 480.156C497.256 494.549 495.421 508.579 489.425 522.001C483.398 535.491 468.49 539.128 460.317 525.598C458.797 523.083 456.663 518.026 456.75 515.058C457.609 513.687 457.009 514.202 458.792 513.697C461.712 515.195 461.966 521.906 463.476 523.783C485.148 550.737 493.145 490.529 494.437 482.116L502.161 436.462C498.866 436.223 495.291 436.133 491.968 435.987ZM544.352 416.25C539.327 421.311 537.631 425.143 535.284 431.831C538.12 431.788 540.697 431.329 542.8 433.561C542.251 437.054 535.996 436.874 533.205 437.104C528.05 454.784 522.321 475.919 517.95 493.89L517.793 495.266L518.38 495.227C525.482 485.518 561.38 423.8 544.352 416.25ZM570.133 470.287C566.87 474.037 559.291 487.586 560.641 492.026C562.294 492.491 561.479 492.341 563.539 491.625C568.985 488.319 572.428 484.433 574.41 478.257C575.529 474.771 573.924 470.921 570.133 470.287Z" fill="#057179"/>
<path d="M557.477 431.784C555.884 430.5 558.391 417.86 558.945 415.258L559.693 415.966C560.765 419.605 558.597 428.097 557.477 431.784Z" fill="#117E7B"/>
<path d="M571.32 431.221L570.883 431.289C570.283 430.039 572.649 420.239 572.577 415.691L573.679 416.48C574.454 419.966 572.249 427.442 571.32 431.221Z" fill="#117E7B"/>
<path d="M535.284 431.831C537.631 425.143 539.327 421.311 544.352 416.25C561.38 423.8 525.482 485.518 518.38 495.227L517.793 495.266L517.95 493.89C522.321 475.919 528.05 454.784 533.205 437.104C535.996 436.874 542.251 437.054 542.8 433.561C540.697 431.329 538.12 431.788 535.284 431.831Z" fill="#B9FBC0"/>
<path d="M565.541 431.691L565.063 431.847L564.256 431.385C563.558 427.422 564.505 419.945 566.104 416.324C568.784 420.186 562.807 427.454 565.541 431.691Z" fill="#117E7B"/>
<path d="M578.583 432.463C577.636 432.117 577.788 432.296 577.07 431.682C579.639 427.892 578.585 420.873 578.583 416.285C581.258 418.086 580.421 429.705 578.583 432.463Z" fill="#117E7B"/>
<path d="M587.322 423.064L587.052 422.421C586.013 423.333 584.364 429.857 582.915 432.303L582.572 431.822C583.074 428.417 585.917 421.231 587.193 417.707C590.24 420.526 587.986 428.654 588.389 432.619C589.527 432.743 588.957 432.634 590.097 432.958L589.895 433.851L588.795 434.355L587.818 433.858C587.369 432.793 587.404 424.928 587.322 423.064Z" fill="#117E7B"/>
<path d="M594.259 435.638C593.699 433.45 595.901 426.355 596.009 423.802C596.087 421.954 596.136 422.057 597.218 420.609C598.444 421.094 597.98 420.693 598.641 421.776C597.583 427.764 596.753 430.072 594.259 435.638Z" fill="#117E7B"/>
<path d="M606.288 423.644C608.529 423.281 608.642 423.607 609.907 425.714C609.712 426.963 609.789 426.824 609.353 427.991L608.93 428.09C608.569 425.929 608.946 425.855 607.69 424.705C606.148 424.893 606.895 424.694 605.516 425.749C606.143 424.812 605.994 424.816 606.288 423.644Z" fill="#80C99F"/>
<path d="M605.516 425.746C604.064 429.032 603.763 433.138 601.933 435.921C600.888 431.938 603.404 426.433 606.288 423.641C605.994 424.813 606.143 424.809 605.516 425.746Z" fill="#117E7B"/>
<path d="M609.846 434.211C611.109 433.035 612.593 431.341 614.167 431C613.912 432.479 611.669 434.743 610.581 436.025L609.846 434.211Z" fill="#117E7B"/>
<path d="M610.658 440.044L610.191 439.162L610.465 438.647C616.797 441.521 617.907 436.122 619.307 430.773C620.204 431.453 620.749 432.026 620.455 433.114C618.933 438.762 616.137 440.926 610.658 440.044Z" fill="#49916E"/>
<path d="M610.58 436.025L610.251 436.609L609.782 435.235C607.594 437.022 605.429 439.156 602.693 437.33L603.02 436.819L604.238 437.246C606.096 436.956 607.855 435.252 609.845 434.211L610.58 436.025Z" fill="#80C99F"/>
<path d="M499.709 480.157C501.911 465.171 504.617 451.553 508.241 436.887C514.045 436.96 521.805 436.835 527.445 437.224C522.456 452.938 518.58 468.518 514.196 484.376C509.395 482.796 505.991 482.712 501.165 481.702C500.075 481.473 500.105 481.016 499.709 480.157Z" fill="#B9FBC0"/>
<path d="M341.797 773.514C340.774 767.429 340.606 754.678 340.516 748.132C339.18 650.766 343.529 552.868 348.267 455.617L348.735 457.381C350.913 458.451 361.806 458.489 365.423 458.805C348.825 504.306 349.937 536.51 352.729 584.503C353.832 603.455 354.043 618.34 357.227 637.705C354.212 639.885 347.327 643.974 346.662 647.266C348.134 649.767 356.893 650.936 360.13 651.827C367.3 681.662 392.809 704.092 417.914 720.055C444.715 737.097 473.918 745.284 505.77 744.865C503.703 754.965 485.387 777.159 478.042 785.378C476.313 787.314 469.506 794.804 468.749 796.228L467.143 796.284L466.696 796.823C462.01 804.945 445.721 816.371 439.33 823.045L438.999 823.138C434.179 820.189 420.691 813.732 418.3 809.967C417.849 809.628 401.889 804.954 399.888 804.389C397.763 803.391 393.416 800.38 391.23 799.091C388.584 797.53 378.659 792.897 377.569 790.749L378.04 789.408L379.366 789.373L379.401 788.994C376.722 787.586 364.347 783.776 361.235 783.351C357.449 783.709 347.275 774.486 341.797 773.514ZM472.342 748.24C467.02 748.733 462.292 749.98 457.169 750.54C453.949 750.892 448.258 750.326 444.778 750.333C445.978 751.165 446.123 750.989 447.671 751.211C457.04 752.163 464.821 750.865 473.953 748.53L473.609 748.153L472.342 748.24ZM409.455 753.656C414.348 757.295 427.484 756.361 433.062 754.62C430.368 753.943 423.704 754.866 420.391 754.82C416.047 754.76 413.782 754.454 409.455 753.656ZM400.521 769.422C407.064 774.336 417.361 774.777 425.201 773.414C422.183 772.394 413.667 772.943 410.003 772.417C406.655 771.935 403.534 770.106 400.521 769.422Z" fill="#8EECF5"/>
<path d="M328.818 455.996L345.502 455.824L340.057 582.532C339.182 608.471 339.134 634.595 338.442 660.552C337.475 696.832 336.061 734.53 338.931 770.748C334.43 769.835 329.478 766.508 324.3 765.078C323.001 742.324 323.364 718.836 321.647 696.151C315.549 615.582 326.513 536.68 328.818 455.996Z" fill="#8EECF5"/>
<path d="M119.871 659.605C131.78 611.643 154.278 565.663 189.523 530.537C220.382 499.781 258.194 474.982 300.253 462.574C306.914 460.609 318.918 457.609 325.486 457.574C324.11 482.44 322.969 507.329 321.68 532.201C319.935 565.872 315.829 600.328 315.921 633.997C316.036 676.6 319.879 719.719 320.485 762.343C308.589 759.216 288.816 749.777 276.849 745.159C231.593 727.699 186.066 707.346 145.652 680.317C137.424 674.814 127.543 666.514 119.863 660.171L119.871 659.605Z" fill="#8EECF5"/>
<path d="M563.54 491.623C561.48 492.339 562.295 492.489 560.642 492.024C559.292 487.584 566.871 474.035 570.134 470.285C573.925 470.919 575.53 474.769 574.411 478.255C572.429 484.431 568.986 488.317 563.54 491.623Z" fill="#B9FBC0"/>
<path d="M687.016 528.887C690.593 525.308 700.843 515.107 705.154 513.492C706.256 529.315 706.059 545.149 706.012 560.998C705.759 646.529 701.501 732.489 692.373 817.541C690.162 838.144 688.795 862.857 670.872 876.647C669.122 875.362 657.529 875.915 654.545 875.886C679.815 852.171 680.635 819.231 683.648 787.039C685.96 762.345 686.34 737.78 687.136 713.035L688.782 643.242C689.253 621.358 689.799 601.34 689.418 579.314C689.131 562.719 687.05 544.667 687.016 528.887Z" fill="#B9FBC0"/>
<path d="M547.465 614.648L548.755 614.975C546.178 620.077 543.56 623.846 538.323 626.542C537.042 626.513 536.767 626.365 535.516 626.011C526.192 618.51 540.936 580.225 539.217 575.483L538.381 575.277C535.083 577.08 531.094 584.013 529.117 587.323C526.477 591.74 527.823 606.226 522.611 608.157C520.326 606.187 521.259 599.513 521.545 596.654C522.206 590.036 522.806 584.074 522.022 577.453C517.131 584.961 515.832 590.381 514.524 599.218C513.934 603.203 513.358 614.037 510.603 616.322C508.766 616.348 509.59 616.599 508.068 615.467C505.33 609.755 513.772 581.299 509.304 578.008C497.507 583.029 501.41 624.686 494.878 627.65C490.822 626.071 491.513 621.83 491.782 618.425C488.963 622.851 484.136 629.606 477.894 627.706C474.736 626.744 473.61 623.572 472.307 620.821C464.874 633.556 456.296 636.525 452.623 619.725C450.835 625.461 444.098 639.365 436.469 635.591C422.189 628.526 437.248 597.765 433.924 588.616C432.516 587.398 433.337 587.816 431.255 587.606C421.216 592.069 416.174 622.367 414.545 632.894C413.993 636.463 415.503 649.436 411.369 649.299C409.766 648.115 408.443 646.331 408.447 644.241C408.479 631.131 411.031 617.944 412.964 604.99C415.81 585.921 417.951 566.607 425.215 548.586C426.592 545.169 428.495 540.382 431.839 538.436C434.275 537.018 439.148 536.832 440.18 540.301C443.32 553.43 437.511 569.318 432.883 580.779C433.935 581.155 436.086 581.836 436.95 582.566C446.808 590.899 431.217 624.74 439.295 630.516C448.914 631.498 454.335 603.09 458.091 596.341C461.055 590.417 465.537 584.504 470.965 580.652C473.153 579.1 475.152 581.261 477.53 580.753C477.981 579.196 477.871 579.137 478.93 577.962C480.128 577.644 480.71 577.477 481.91 578.075C488.863 581.542 477.166 611.282 479.277 619.343C479.678 620.876 480.291 621.824 481.712 622.602C487.666 623.381 491.975 612.285 493.204 607.617C494.729 601.82 495.209 575.404 500.594 573.11L501.552 573.668C502.823 576.181 502.572 577.465 502.559 580.285C506.581 573.905 511.344 565.893 516.164 577.722C524.05 567.591 527.735 572.49 527.745 582.736C538.609 561.748 549.743 566.059 543.165 588.388C539.745 599.993 537.674 612.848 538.448 624.949C543.066 621.541 544.247 619.342 547.465 614.648ZM434.316 541.271C427.062 549.512 421.766 579.37 421.023 590.741L421.393 591.592L422.115 590.759C430.744 577.537 438.5 561.533 436.946 545.183C436.804 543.692 435.601 542.012 434.316 541.271ZM474.203 584.313C466.023 591.268 453.936 617.517 460.98 626.518C470.561 621.252 476.601 595.763 475.81 585.734C475.019 584.355 475.598 584.745 474.203 584.313Z" fill="#057179"/>
<path d="M422.115 590.758L421.393 591.591L421.023 590.74C421.766 579.369 427.062 549.511 434.316 541.27C435.601 542.011 436.804 543.691 436.946 545.182C438.5 561.532 430.744 577.536 422.115 590.758Z" fill="#B9FBC0"/>
<path d="M387.735 595.033C386.691 596.265 386.56 596.388 385.293 597.392C384.975 597.023 384.653 596.692 384.455 596.223C376.975 578.548 376.91 552.35 397.693 543.502C402.17 543.353 406.432 546.077 406.799 550.79C408.129 567.85 397.554 582.226 387.735 595.033Z" fill="#B9FBC0"/>
<path d="M704.572 698.141C708.522 653.865 708.299 606.195 708.763 561.849C714.539 562.665 725.276 558.497 730.621 556.579C784.201 537.353 840.805 537.801 889.584 569.724C894.835 573.161 901.272 579.306 905.999 582.17L906.058 582.369C901.247 588.953 896.307 596.088 890.935 602.144C856.319 641.172 809.848 666.295 760.88 682.73C743.134 688.685 723.231 695.873 704.572 698.141Z" fill="#B9FBC0"/>
<path d="M657.307 573.137C660.51 570.253 665.735 563.76 669.57 568.089C665.718 574.018 662.815 575.681 655.857 577.608C653.83 585.1 650.933 596.42 643.525 599.7C628.936 606.158 630.263 582.523 631.144 575.501C625.933 577.939 624.269 578.693 618.48 579.24C616.035 588.241 612.429 602.036 604.122 607.069C596.873 611.461 592.423 605.991 590.314 599.693C590.225 598.332 590.204 594.59 590.414 592.748C590.981 587.777 594.267 570.052 597.773 566.878C600.677 566.174 600.532 561.535 602.035 560.262C612.925 551.03 619.257 564.98 619.528 574.011C636.904 570.604 631.922 562.076 643.456 552.89C645.371 551.518 648.463 550.004 650.903 550.69C662.917 554.065 659.546 564.99 657.307 573.137ZM649.214 555.458C646.989 556.922 644.102 558.647 643.159 561.189C644.555 563.249 646.401 562.032 646.592 563.167C647.298 567.383 644.823 569.184 648.592 572.853C649.898 572.851 651.098 573.18 651.896 571.91C654.646 567.534 656.38 559.837 652.12 555.913C650.683 555.405 650.752 555.448 649.214 555.458ZM608.097 561.815C603.399 568.439 604.819 571.171 612.359 573.758C616.503 572.402 612.914 563.715 608.097 561.815ZM640.535 566.754C635.766 571.555 633.376 596.608 642 595.69C643.197 594.868 643.482 594.745 644.474 593.648C648.068 588.115 649.521 584.469 651.303 578.034C639.716 577.443 644.842 571.489 640.535 566.754ZM601.321 572.805C599.65 578.042 592.344 601.433 600.59 603.369C602.709 602.825 603.206 602.439 604.888 600.919C609.531 593.926 610.61 587.372 612.216 579.166C606.633 577.354 605.685 576.766 601.321 572.805Z" fill="#057179"/>
<path d="M648.593 572.853C644.824 569.184 647.299 567.383 646.593 563.167C646.402 562.032 644.556 563.249 643.16 561.189C644.103 558.647 646.99 556.922 649.215 555.458C650.753 555.448 650.684 555.405 652.121 555.913C656.381 559.837 654.647 567.534 651.897 571.91C651.099 573.18 649.899 572.851 648.593 572.853Z" fill="#B9FBC0"/>
<path d="M679.647 556.699C680.268 559.466 679.778 559.189 681.438 560.991C683.19 560.982 682.8 560.83 684.556 559.554C684.985 558.506 685.036 558.346 685.26 557.237L685.82 557.133C686.107 563.761 686.485 570.578 686.544 577.193C681.082 578.786 681.339 582.079 676.762 582.14C677.846 573.714 678.705 565.154 679.647 556.699Z" fill="#FFEDE1"/>
<path d="M567.325 613.99C562.168 615.097 560.852 613.416 558.238 609.076C554.33 621.618 552.324 634.33 551.028 647.34C550.93 648.319 550.189 649.223 549.46 649.837C547.678 650.296 548.522 650.345 546.836 649.759C542.631 644.368 549.802 621.967 548.755 614.974L547.465 614.647C553.301 604.766 554.946 585.049 557.722 573.667C558.724 569.559 558.883 565.77 560.723 561.594L562.145 561.07C563.932 561.495 563.158 561.083 564.507 562.431C565.677 565.388 563.141 576.77 562.551 580.745C565.924 576.531 575.882 558.876 583.544 564.135C588.875 567.794 586.798 581.603 585.058 587.351C581.737 598.322 577.734 607.944 567.325 613.99ZM578.358 568.282C570.096 573.897 552.095 602.474 563.332 609.089C568.563 607.76 569.279 605.921 572.526 601.735C576.637 596.435 585.271 573.482 579.685 568.602L578.358 568.282Z" fill="#117E7B"/>
<path d="M612.36 573.759C604.82 571.172 603.4 568.44 608.098 561.816C612.915 563.716 616.504 572.403 612.36 573.759Z" fill="#B9FBC0"/>
<path d="M644.475 593.652C643.483 594.749 643.198 594.872 642.001 595.694C633.377 596.612 635.767 571.559 640.536 566.758C644.843 571.493 639.717 577.447 651.304 578.038C649.522 584.473 648.069 588.119 644.475 593.652Z" fill="#B9FBC0"/>
<path d="M669.572 568.092C671.212 567.615 672.748 568.44 674.655 569.007L675.245 569.871C668.137 628.877 657.229 666.629 608.267 706.428C578.805 730.376 546.751 741.925 508.436 742.156C511.739 736.048 514.956 729.083 517.511 722.623C521.281 713.091 520.818 706.676 528.036 698.771C529.671 698.502 530.25 698.988 531.751 699.723L532.079 700.291L532.687 700.214C533.138 697.778 532.688 693.796 532.52 691.197C535.78 690.785 536.724 690.555 539.799 689.408C540.243 692.348 540.716 696.808 542.557 699.145C542.339 696.23 541.018 681.956 539.5 680.858L538.842 681.596C538.418 683.405 539.405 686.664 539.848 688.637C537.998 689.299 534.791 690.089 532.804 690.648C532.308 687.036 532.066 685.157 532.054 681.527L532.68 681.18C533.814 677.941 534.111 671.393 534.553 667.607C536.11 654.283 536.739 639.798 538.324 626.543C543.561 623.847 546.179 620.078 548.756 614.976C549.803 621.969 542.632 644.37 546.837 649.761C548.523 650.347 547.679 650.298 549.461 649.839C550.19 649.225 550.931 648.321 551.029 647.342C552.325 634.332 554.331 621.62 558.239 609.078C560.853 613.418 562.169 615.099 567.326 613.992C580.024 613.91 582.463 605.564 590.316 599.696C592.425 605.994 596.875 611.464 604.124 607.072C612.431 602.039 616.037 588.244 618.482 579.243C624.271 578.696 625.935 577.942 631.146 575.504C630.265 582.526 628.938 606.161 643.527 599.703C650.935 596.423 653.832 585.103 655.859 577.611C662.817 575.684 665.72 574.021 669.572 568.092ZM627.546 635.133C625.908 634.166 625.229 633.554 623.328 633.515C621.066 635.259 622.08 637.136 619.946 639.07L618.207 638.473L617.725 639.1C621.1 642.384 627.7 646.584 632.265 650.933C633.648 649.856 635.164 648.96 635.723 647.32C634.65 648.003 634.272 648.195 633.111 648.721C631.265 648.638 629.837 646.992 628.354 645.713C629.26 643.672 630.156 641.646 631.098 639.621C630.54 637.545 629.142 636.561 627.546 635.133ZM609.296 645.972C613.587 650.474 619.216 655.398 624.493 658.683L628.183 655.996L628.792 655.165C622.987 655.948 615.668 647.653 609.296 645.972ZM602.622 652.871C604.041 655.911 612.277 665.523 615.048 667.708C614.272 665.091 608.984 660.434 607.989 657.392L608.546 657.115C609.314 657.568 609.735 657.743 610.395 658.329C612.619 661.54 614.922 663.457 617.834 666.063L618.028 665.933C617.054 664.575 614.874 661.964 614.764 660.5L615.537 659.913C611.516 658.726 604.661 653.302 602.622 652.871ZM595.282 660.132C597.912 666.217 599.942 670.984 603.885 676.494L604.484 676.67C604.186 674.323 599.736 668.293 598.242 664.654L598.245 663.706C600.864 663.944 605.825 668.933 609.747 669.099L610.255 668.65C608.599 667.106 597.486 660.952 595.282 660.132ZM587.507 664.355C587.972 667.487 597.721 677.178 600.568 679.141C598.429 674.033 594.483 664.241 587.507 664.355ZM583.339 668.333C582.959 672.233 591.468 683.162 589.539 684.65C588.63 685.352 587.985 685.506 586.905 685.8L585.877 685.55C583.088 680.889 579.784 674.349 575.595 671.125L575.411 671.594C576.783 674.604 582.322 682.443 584.587 685.977L584.793 687.145C586.878 687.508 589.815 685.67 591.768 684.665C589.709 680.335 587.658 675.893 585.543 671.602C589.22 673.542 596.003 677.238 596.8 681.556L597.318 681.695L597.816 680.965C595.684 677.286 587.01 669.871 583.339 668.333ZM567.554 673.718C568.642 678.468 572.054 686.818 573.938 691.484L580.739 688.931L579.726 688.099C577.658 688.699 576.918 689.125 574.967 690.114C572.921 684.619 571.008 679.61 568.703 674.214L567.554 673.718ZM562.956 675.585C561.195 676.203 556.175 677.665 555.3 678.889C556.05 679.616 556.62 680.124 557.421 680.794C558.267 684.985 559.567 692.335 561.142 696.04C563.274 695.53 568.614 694.542 569.708 692.799L569.659 692.443C566.748 693.555 565.554 693.975 562.468 694.664C561.391 691.449 560.871 689.561 560.155 686.247C561.796 685.981 562.968 685.936 564.396 685.086C562.914 684.991 561.593 684.953 560.126 684.709C559.189 682.455 558.728 680.564 558.089 678.225C559.867 677.661 562.283 677.243 563.345 676.059L562.956 675.585ZM551.064 679.148L545.719 680.334L545.822 680.874L547.191 681.384C548.451 685.765 548.814 693.06 550.211 698.636C553.713 698.393 554.968 698.249 558.394 697.447L558.902 696.505C557.416 696.086 553.479 697.414 551.539 697.878C550.803 694.287 548.193 683.199 549.594 680.302C550.813 679.973 550.959 679.982 552.038 679.336L551.064 679.148Z" fill="#FBF8CC"/>
<path d="M563.333 609.088C552.096 602.473 570.097 573.896 578.359 568.281L579.686 568.601C585.272 573.481 576.638 596.434 572.527 601.734C569.28 605.92 568.564 607.759 563.333 609.088Z" fill="#B9FBC0"/>
<path d="M604.89 600.923C603.208 602.443 602.711 602.829 600.592 603.373C592.346 601.437 599.652 578.046 601.323 572.809C605.687 576.77 606.635 577.358 612.218 579.17C610.612 587.376 609.533 593.93 604.89 600.923Z" fill="#F0FBD9"/>
<path d="M676.76 582.138C681.337 582.077 681.08 578.784 686.542 577.191C687.355 605.288 686.03 632.332 685.68 660.359C685.121 705.151 683.942 749.851 679.946 794.494C677.455 822.327 674.246 859.428 648.399 876.65C648.092 876.5 606.355 872.575 600.612 871.718C543.768 863.232 492.438 844.314 439.33 823.044C445.721 816.37 462.01 804.944 466.696 796.822C477.177 800.49 502.822 797.891 514.113 795.557C498.251 795.01 485.63 799.871 468.749 796.227C469.506 794.803 476.313 787.313 478.042 785.377C485.387 777.158 503.703 754.964 505.77 744.864C542.488 744.247 572.235 736.554 602.174 714.49C632.869 691.869 656.749 661.943 668.016 625.107C672.866 609.25 674.163 598.09 676.76 582.138ZM660.891 710.873C665.17 714.074 673.176 719.846 678.394 721.018C675.55 719.029 663.722 711.48 660.891 710.873ZM608.859 744.666C597.774 746.898 582.099 746.834 572.109 749.86L572.043 750.253L572.578 750.21C578.996 749.202 606.372 747.238 609.612 744.66L608.859 744.666ZM667.271 749.454C655.649 754.777 652.633 755.86 639.791 755.039L639.776 755.382L641.077 755.872C648.115 757.384 663.03 754.721 668.051 749.611L667.271 749.454ZM508.322 771.599C514.371 775.813 527.485 775.183 535.144 777.811C540.99 779.817 547.688 786.767 550.685 787.671C537.036 773.16 526.573 775.998 508.322 771.599ZM600.5 772.429C608.549 778.405 619.515 782.821 629.611 781.909C624.472 780.073 618.988 780.376 613.502 778.673C609.757 777.511 603.541 773.08 600.5 772.429ZM661.824 801.496C656.367 803.893 653.465 805.369 647.576 806.706C643.795 807.564 637.591 806.67 636.135 807.36L637.507 807.924C647.861 808.363 652.65 807.477 662.305 802.086C662.477 801.922 662.648 801.758 662.82 801.594L661.824 801.496ZM600.181 809.064C595.841 810.321 593.358 811.149 588.855 811.611C586.796 811.822 579.117 811.512 578.219 811.764C579.616 812.411 579.574 812.02 580.892 812.366C590.359 813.402 591.873 812.821 600.841 809.446L601.008 809.089L600.181 809.064ZM513.12 820.947C518.667 823.274 522.948 824.89 528.922 826.118C536.85 827.748 542.858 827.45 550.389 830.757C556.535 833.456 561.486 843.599 564.705 845.18C554.902 828.178 546.745 827.605 528.527 825.157C523.85 824.528 518.097 821.237 513.12 820.947ZM593.971 842.582C607.418 844.838 612.929 846.304 627.13 843.541C622.282 842.617 613.938 844.41 608.446 843.76C604.32 843.272 597.992 842.441 593.971 842.582Z" fill="#B9FBC0"/>
<path d="M704.572 698.143C723.231 695.875 743.134 688.686 760.88 682.731C809.848 666.296 856.319 641.173 890.935 602.145C896.307 596.089 901.247 588.955 906.058 582.371C908.89 584.054 911.464 588.239 913.55 590.862C953.123 640.617 948.39 710.668 915.81 762.609C911.567 769.372 907.268 776.407 902.265 782.693C898.282 787.794 891.861 793.304 889.076 798.777C882.342 793.156 875.186 787.218 867.589 782.788C834.567 763.532 785.567 755.513 758.092 788.457C740.249 809.852 738.706 841.86 747.148 867.427C727.49 873.439 710.124 875.932 689.509 876.292C685.567 876.361 679.564 876.825 675.865 876.306C693.856 857.051 693.631 834.113 696.219 808.97C699.976 772.478 703.204 734.794 704.572 698.143Z" fill="#FBF8CC"/>
<path d="M460.979 626.518C453.935 617.517 466.022 591.267 474.202 584.312C475.597 584.745 475.018 584.355 475.809 585.734C476.6 595.763 470.56 621.252 460.979 626.518Z" fill="#B9FBC0"/>
<path d="M361.127 639.673C366.725 626.119 372.831 617.027 383.259 606.414C386.848 611.507 392.411 626.23 392.116 632.764C391.495 646.54 383.075 648.674 371.126 648.615C368.297 648.559 365.564 648.323 362.746 648.108C362.011 645.259 361.609 642.567 361.127 639.673Z" fill="#B9FBC0"/>
<path d="M627.546 635.134C624.921 634.568 625.183 634.212 622.965 634.894C621.774 636.336 621.617 638.4 621.248 640.296L628.354 645.714C629.837 646.993 631.265 648.639 633.111 648.722C634.272 648.196 634.65 648.004 635.723 647.321C635.164 648.961 633.648 649.857 632.265 650.934C627.7 646.585 621.1 642.385 617.725 639.101L618.207 638.474L619.946 639.071C622.08 637.137 621.066 635.26 623.328 633.516C625.229 633.555 625.908 634.167 627.546 635.134Z" fill="#2C7052"/>
<path d="M621.246 640.295C621.615 638.399 621.772 636.335 622.963 634.893C625.181 634.211 624.919 634.567 627.544 635.133C629.14 636.561 630.538 637.545 631.096 639.621C630.154 641.646 629.258 643.672 628.352 645.713L621.246 640.295Z" fill="#F0FBD9"/>
<path d="M624.492 658.684C619.215 655.399 613.586 650.475 609.295 645.973C615.667 647.654 622.986 655.949 628.791 655.166L628.182 655.997L624.492 658.684Z" fill="#2C7052"/>
<path d="M398.839 662.744C398.212 662.207 398.533 662.574 398.057 661.509C398.793 658.932 401.956 655.086 403.282 651.875L403.795 652.743C403.384 655.015 400.164 660.137 398.839 662.744Z" fill="#117E7B"/>
<path d="M610.394 658.329C609.734 657.743 609.313 657.568 608.545 657.115L607.988 657.392C608.983 660.434 614.271 665.091 615.047 667.708C612.276 665.523 604.04 655.911 602.621 652.871C604.66 653.302 611.515 658.726 615.536 659.913L614.763 660.5C614.873 661.964 617.053 664.575 618.027 665.933L617.833 666.063C614.921 663.457 612.618 661.54 610.394 658.329Z" fill="#2C7052"/>
<path d="M403.482 668.068L403.077 667.974C402.995 664.807 407.022 660.114 409.272 657.957L409.656 658.43C407.057 662.398 405.522 663.573 403.482 668.068Z" fill="#117E7B"/>
<path d="M409.531 672.385L408.721 671.598C408.482 669.003 413.718 661.306 415.35 658.395L415.815 659.039C414.827 662.982 410.75 667.494 409.531 672.385Z" fill="#117E7B"/>
<path d="M345.767 872.454C338.376 875.895 318.595 879.283 310.339 880.316C242.94 888.752 163.748 857.348 129.607 796.699C113.453 768.004 110.091 730.28 113.689 698.12C115.046 685.504 116.407 672.334 119.865 660.172C127.545 666.515 137.426 674.815 145.654 680.318C186.068 707.347 231.595 727.7 276.851 745.16C288.818 749.778 308.591 759.217 320.487 762.344C321.386 785.218 321.276 830.745 330.491 850.654C334.341 858.971 340.077 865.429 345.767 872.454Z" fill="#98F5E1"/>
<path d="M598.241 664.655C599.735 668.294 604.185 674.324 604.483 676.671L603.884 676.495C599.941 670.985 597.911 666.218 595.281 660.133C597.485 660.953 608.598 667.107 610.254 668.651L609.746 669.1C605.824 668.934 600.863 663.945 598.244 663.707L598.241 664.655Z" fill="#2C7052"/>
<path d="M417.387 676.633C418.051 677.31 418.626 677.946 419.266 678.646L417.419 678.666C413.521 675.673 421.052 664.601 423.343 661.695C424.606 662.085 425.64 662.419 425.962 663.714C425.068 663.528 424.472 663.451 423.563 663.347C422.124 664.449 417.694 674.729 417.387 676.633Z" fill="#117E7B"/>
<path d="M600.567 679.139C597.72 677.176 587.971 667.485 587.506 664.353C594.482 664.239 598.428 674.031 600.567 679.139ZM588.636 665.403C590.186 667.689 596.23 674.501 598.603 675.707C596.589 671.784 592.977 666.795 588.636 665.403Z" fill="#2C7052"/>
<path d="M598.604 675.706C596.231 674.5 590.187 667.688 588.637 665.402C592.978 666.794 596.59 671.783 598.604 675.706Z" fill="#B9FBC0"/>
<path d="M431.52 686.246L431.174 686.722L430.5 686.716C429.748 684.104 435.262 670.902 436.514 667.652L437.58 668.439C438.419 671.128 435.889 674.519 435.088 677.719L436.116 678.576C433.566 681.261 433.225 681.877 431.857 685.372L431.52 686.246Z" fill="#117E7B"/>
<path d="M584.586 685.976C582.321 682.442 576.782 674.603 575.41 671.593L575.594 671.124C579.783 674.348 583.087 680.888 585.876 685.549L586.904 685.799C587.984 685.505 588.629 685.351 589.538 684.649C591.467 683.161 582.958 672.232 583.338 668.332C587.009 669.87 595.683 677.285 597.815 680.964L597.317 681.694L596.799 681.555C596.002 677.237 589.219 673.541 585.542 671.601C587.657 675.892 589.708 680.334 591.767 684.664C589.814 685.669 586.877 687.507 584.792 687.144L584.586 685.976Z" fill="#2C7052"/>
<path d="M442.238 690.317C441.705 690.446 442.091 690.384 441.072 690.203C440.789 688.703 445.654 675.384 446.575 672.758L447.325 673.567C447.209 675.863 445.765 678.84 445.217 681.715L446.483 682.263C443.43 684.427 443.458 686.458 442.238 690.317Z" fill="#117E7B"/>
<path d="M446.27 691.637L445.781 690.812C447.357 685.917 449.658 677.742 451.739 673.371L452.269 673.93C452.709 676.416 447.53 688.796 446.27 691.637Z" fill="#117E7B"/>
<path d="M573.937 691.485C572.053 686.819 568.641 678.469 567.553 673.719L568.702 674.215C571.007 679.611 572.92 684.62 574.966 690.115C576.917 689.126 577.657 688.7 579.725 688.1L580.738 688.932L573.937 691.485Z" fill="#2C7052"/>
<path d="M561.141 696.041C559.566 692.336 558.266 684.986 557.42 680.795C556.619 680.125 556.049 679.617 555.299 678.89C556.174 677.666 561.194 676.204 562.955 675.586L563.344 676.06C562.282 677.244 559.866 677.662 558.088 678.226C558.727 680.565 559.188 682.456 560.125 684.71C561.592 684.954 562.913 684.992 564.395 685.087C562.967 685.937 561.795 685.982 560.154 686.248C560.87 689.562 561.39 691.45 562.467 694.665C565.553 693.976 566.747 693.556 569.658 692.444L569.707 692.8C568.613 694.543 563.273 695.531 561.141 696.041Z" fill="#2C7052"/>
<path d="M463.015 689.627C463.236 692.975 462.946 693.759 462.079 696.86L461.615 696.913C461.192 695.065 461.017 693.569 459.99 691.988C453.634 690.498 456.594 691.421 454.071 694.129L453.61 693.716C453.509 689.803 456.657 679.635 458.243 675.844C460.2 678.089 455.903 685.198 456.14 689.723C457.515 690.824 458.255 690.8 459.98 691.114C461.035 687.397 460.903 683.396 462.34 679.191L462.69 679.326C462.846 682.793 462.948 686.157 463.015 689.627Z" fill="#117E7B"/>
<path d="M550.211 698.636C548.814 693.06 548.451 685.765 547.191 681.384L545.822 680.874L545.719 680.334L551.064 679.148L552.038 679.336C550.959 679.982 550.813 679.973 549.594 680.302C548.193 683.199 550.803 694.287 551.539 697.878C553.479 697.414 557.416 696.086 558.902 696.505L558.394 697.447C554.968 698.249 553.713 698.393 550.211 698.636Z" fill="#2C7052"/>
<path d="M474.189 699.885L473.189 699.377C471.686 697.62 473.137 683.676 473.358 680.125L474.48 681.08C475.791 685.218 474.627 695.412 474.189 699.885Z" fill="#117E7B"/>
<path d="M531.751 699.72C531.37 697.082 530.542 683.715 530.977 681.93L532.054 681.524C532.066 685.154 532.308 687.033 532.804 690.645C534.791 690.086 537.998 689.296 539.848 688.634C539.405 686.661 538.418 683.402 538.842 681.593L539.5 680.855C541.018 681.953 542.339 696.227 542.557 699.142C540.716 696.805 540.243 692.345 539.799 689.405C536.724 690.552 535.78 690.782 532.52 691.194C532.688 693.793 533.138 697.775 532.687 700.211L532.079 700.288L531.751 699.72Z" fill="#2C7052"/>
<path d="M518.777 701.629C518.255 700.107 518.032 699.867 518.211 698.26C519.576 699.43 520.261 700.217 521.985 700.749L522.862 700.174C526.59 689.728 513.114 690.357 522.331 682.49C523.745 682.426 523.792 682.419 525.177 682.69C522.316 687.088 518.387 686.854 525.209 692.921C525.187 696.154 525.552 699.83 522.724 701.895C520.925 702.456 520.561 702.19 518.777 701.629Z" fill="#117E7B"/>
<path d="M489.061 697.67L489.498 698.06L489.346 699.216C483.327 706.715 475.09 692.775 484.536 682.781C486.199 682.88 486.412 683.12 487.199 684.414L486.771 685.026C485.596 684.751 485.678 684.78 484.515 685.136C480.518 689.247 482.061 706.385 489.061 697.67Z" fill="#117E7B"/>
<path d="M493.034 700.223C491.15 698.321 492.645 686.199 493.112 683.227C495.123 684.831 494.13 697.647 493.034 700.223Z" fill="#117E7B"/>
<path d="M503.469 697.241C503.013 699.018 503.223 699.677 502.085 700.453C500.844 698.193 501.413 687.11 501.476 683.922C502.521 683.964 503.664 684.072 504.717 684.148L504.854 684.694L503.284 685.409C502.216 687.523 503.102 694.835 503.469 697.241Z" fill="#117E7B"/>
<path d="M678.396 721.02C673.178 719.848 665.172 714.076 660.893 710.875C663.724 711.482 675.552 719.031 678.396 721.02Z" fill="#2C7052"/>
<path d="M572.58 750.21L572.045 750.253L572.111 749.86C582.101 746.834 597.776 746.898 608.861 744.666L609.614 744.66C606.374 747.238 578.998 749.202 572.58 750.21Z" fill="#49916E"/>
<path d="M447.672 751.21C446.124 750.988 445.979 751.164 444.779 750.332C448.259 750.325 453.95 750.891 457.17 750.539C462.293 749.979 467.021 748.732 472.343 748.239L473.61 748.152L473.954 748.529C464.822 750.864 457.041 752.162 447.672 751.21Z" fill="#117E7B"/>
<path d="M641.078 755.871L639.777 755.381L639.792 755.038C652.634 755.859 655.65 754.776 667.272 749.453L668.052 749.61C663.031 754.72 648.116 757.383 641.078 755.871Z" fill="#49916E"/>
<path d="M433.062 754.62C427.484 756.361 414.348 757.295 409.455 753.656C413.782 754.454 416.047 754.76 420.391 754.82C423.704 754.866 430.368 753.943 433.062 754.62Z" fill="#117E7B"/>
<path d="M324.301 765.078C329.479 766.508 334.431 769.835 338.932 770.748C340.559 796.86 342.784 823.382 347.839 849.081C349.66 858.34 352.395 867.039 354.922 876.09L354.533 876.274C347.578 873.43 332.84 849.682 330.988 842.086C325.152 818.141 325.065 789.754 324.301 765.078Z" fill="#98F5E1"/>
<path d="M747.147 867.428C738.705 841.861 740.248 809.853 758.091 788.458C785.566 755.514 834.566 763.533 867.588 782.789C875.185 787.219 882.341 793.157 889.075 798.778C898.764 808.716 905.093 816.035 912.78 828.216C942.831 875.697 934.907 951.699 865.603 950.975C832.488 950.628 795.544 929.995 772.66 906.78C763.252 897.236 750.817 880.003 747.147 867.428Z" fill="#FFCFD2"/>
<path d="M425.201 773.414C417.361 774.777 407.064 774.336 400.521 769.422C403.534 770.106 406.655 771.935 410.003 772.417C413.667 772.943 422.183 772.394 425.201 773.414Z" fill="#117E7B"/>
<path d="M550.685 787.674C547.688 786.77 540.99 779.82 535.144 777.814C527.485 775.186 514.371 775.816 508.322 771.602C526.573 776.001 537.036 773.163 550.685 787.674Z" fill="#2C7052"/>
<path d="M629.611 781.91C619.515 782.822 608.549 778.406 600.5 772.43C603.541 773.081 609.757 777.512 613.502 778.674C618.988 780.377 624.472 780.074 629.611 781.91Z" fill="#2C7052"/>
<path d="M341.799 773.516C347.277 774.488 357.451 783.711 361.237 783.353C365.89 786.278 372.809 787.63 378.042 789.41L377.571 790.751C378.661 792.899 388.586 797.532 391.232 799.093C393.418 800.382 397.765 803.393 399.89 804.391C404.347 807.313 412.66 810.413 417.989 810.173L418.302 809.969C420.693 813.734 434.181 820.191 439.001 823.14C419.948 838.757 379.195 863.017 355.58 870.453C353.353 862.488 352.116 854.335 350.491 846.276C345.582 821.93 343.449 798.261 341.799 773.516Z" fill="#98F5E1"/>
<path d="M361.236 783.352C364.348 783.777 376.723 787.587 379.402 788.995L379.367 789.374L378.041 789.409C372.808 787.629 365.889 786.277 361.236 783.352Z" fill="#057179"/>
<path d="M466.697 796.824L467.144 796.285L468.75 796.229C485.631 799.873 498.252 795.012 514.114 795.559C502.823 797.893 477.178 800.492 466.697 796.824Z" fill="#2C7052"/>
<path d="M637.509 807.924L636.137 807.36C637.593 806.67 643.797 807.564 647.578 806.706C653.467 805.369 656.369 803.893 661.826 801.496L662.822 801.594C662.65 801.758 662.479 801.922 662.307 802.086C652.652 807.477 647.863 808.363 637.509 807.924Z" fill="#2C7052"/>
<path d="M399.889 804.391C401.89 804.956 417.85 809.63 418.301 809.969L417.988 810.173C412.659 810.413 404.346 807.313 399.889 804.391Z" fill="#057179"/>
<path d="M580.894 812.368C579.576 812.022 579.618 812.413 578.221 811.766C579.119 811.514 586.798 811.824 588.857 811.613C593.36 811.151 595.843 810.323 600.183 809.066L601.01 809.091L600.843 809.448C591.875 812.823 590.361 813.404 580.894 812.368Z" fill="#49916E"/>
<path d="M564.706 845.182C561.487 843.601 556.536 833.458 550.39 830.759C542.859 827.452 536.851 827.75 528.923 826.12C522.949 824.892 518.668 823.276 513.121 820.949C518.098 821.239 523.851 824.53 528.528 825.159C546.746 827.607 554.903 828.18 564.706 845.182Z" fill="#2C7052"/>
<path d="M438.999 823.14L439.33 823.047C492.438 844.317 543.768 863.235 600.612 871.721C606.355 872.578 648.092 876.503 648.399 876.653C628.7 893.325 601.103 893.512 576.802 891.352C579.589 892.309 582.14 893.091 585.14 893.42C604.14 895.502 623.234 894.06 640.544 885.293C645.714 882.674 650.045 879.293 654.543 875.888C657.527 875.917 669.12 875.364 670.87 876.649C652.348 894.118 628.348 898.341 604.13 901.907C558.018 908.697 510.825 909.691 464.349 906.591C433.328 904.522 399.916 901.204 371.741 887.173C367.192 884.894 358.571 880.922 356.965 876.044L355.578 870.453C379.193 863.017 419.946 838.757 438.999 823.14ZM396.223 870.38C411.544 880.492 422.082 881.669 440.077 877.68C437.568 876.313 425.119 879.344 418.254 878.348C407.609 876.803 403.521 872.313 396.223 870.38ZM476.312 875.402C488.915 884.669 499.262 883.296 514.119 884.137C516.676 884.282 521.35 886.421 523.797 886.438C513.224 879.973 502.785 883.66 491.227 881.156C485.523 879.92 480.808 876.651 476.312 875.402Z" fill="#F0FBD9"/>
<path d="M627.132 843.541C612.931 846.304 607.42 844.838 593.973 842.582C597.994 842.441 604.322 843.272 608.448 843.76C613.94 844.41 622.284 842.617 627.132 843.541Z" fill="#49916E"/>
<path d="M440.079 877.679C422.084 881.668 411.546 880.491 396.225 870.379C403.523 872.312 407.611 876.802 418.256 878.347C425.121 879.343 437.57 876.312 440.079 877.679Z" fill="#057179"/>
<path d="M523.797 886.434C521.35 886.417 516.677 884.278 514.12 884.133C499.263 883.292 488.915 884.665 476.312 875.398C480.808 876.647 485.524 879.916 491.228 881.152C502.786 883.656 513.224 879.969 523.797 886.434Z" fill="#057179"/>
<defs>
<linearGradient id="paint0_linear_2247_9760" x1="510.929" y1="136.783" x2="514.557" y2="160.373" gradientUnits="userSpaceOnUse">
<stop stop-color="#2B5261"/>
<stop offset="1" stop-color="#0F5481"/>
</linearGradient>
<linearGradient id="paint1_linear_2247_9760" x1="509.863" y1="195.931" x2="510.486" y2="211.056" gradientUnits="userSpaceOnUse">
<stop stop-color="#2E5E6C"/>
<stop offset="1" stop-color="#175480"/>
</linearGradient>
<linearGradient id="paint2_linear_2247_9760" x1="561.154" y1="276.844" x2="752.315" y2="461.478" gradientUnits="userSpaceOnUse">
<stop stop-color="#E8BDFA"/>
<stop offset="1" stop-color="#C3CDFD"/>
</linearGradient>
<linearGradient id="paint3_linear_2247_9760" x1="329.852" y1="554.649" x2="451.521" y2="549.358" gradientUnits="userSpaceOnUse">
<stop stop-color="#016B77"/>
<stop offset="1" stop-color="#2C5C88"/>
</linearGradient>
</defs>
</svg>
