<svg width="1024" height="1024" viewBox="0 0 1024 1024" fill="none" xmlns="http://www.w3.org/2000/svg">
<path d="M649.992 265.903C604.02 242.803 558.56 218.605 512.372 195.94C501.346 200.439 490.59 207.388 479.974 212.891L412.846 247.461C351.558 278.876 290.458 310.654 229.547 342.795C227.923 343.667 225.702 344.713 224.938 346.496C224.215 348.181 223.786 365.263 224.706 367.168C225.3 368.398 226.222 369.141 227.56 369.46C229.011 369.806 231.077 369.509 232.596 369.44C231.626 374.737 230.642 380.915 234.09 385.581C240.4 394.118 251.47 388.087 252.059 403.237C242.719 414.262 233.688 425.394 225.675 437.433C202.372 472.829 187.637 513.167 182.635 555.248C180.806 570.439 179.684 585.682 180.927 600.97C182.128 615.743 184.186 630.811 188.146 645.115C179.742 642.97 171.325 641.002 162.746 639.688C132.256 635.017 103.208 634.067 76.7598 615.842C53.7243 599.969 38.7423 571.73 33.9098 544.622C22.5414 480.852 41.1853 413.865 78.1241 361.313C95.6462 336.384 117.786 314.911 141.18 295.506C155.746 283.425 171.458 272.533 187.015 261.765C233.881 229.323 287.425 196.819 339.901 174.687C368.004 162.835 398.161 153.054 428.238 147.845C446.833 144.625 466.628 142.468 485.527 143.114C524.43 144.443 563.933 158.204 595.595 180.767C621.838 199.47 644.655 233.868 649.992 265.903Z" fill="#FCE2E5"/>
<path d="M512.372 195.941C558.56 218.606 604.02 242.804 649.992 265.904C653.757 267.797 657.499 269.795 661.327 271.555L755.387 320.293C766.295 325.892 777.135 331.622 787.905 337.482C793.409 340.455 799.562 343.281 804.634 346.942C804.614 354.367 803.993 361.881 803.358 369.278C793.248 374.61 795.949 378.664 788.931 385.158C783.3 390.368 766.336 400.791 763.217 405.994C763.168 407.164 763.14 408.159 763.351 409.318C763.46 413.467 764.745 421.843 761.302 424.844C759.334 426.559 757.281 426.504 754.819 426.645C754.699 435.802 754.98 445.15 754.375 454.278C751.407 458.924 748.103 461.327 743.13 463.557C745.303 525.948 746.105 588.449 747.61 650.864C748.101 671.223 747.569 691.859 748.628 712.168C752.76 715.432 756.249 718.024 756.866 723.652C757.45 728.983 756.498 734.624 756.661 740.034C755.768 740.199 754.833 740.259 753.93 740.363C752.794 739.198 753.017 737.838 752.852 736.249L752.157 734.637C747.443 733.463 734.215 734.583 728.665 734.599C711.262 734.581 693.859 734.442 676.458 734.184L676.572 740.491C676.822 741.931 677.052 742.999 676.595 744.437C668.417 744.603 660.172 744.193 651.995 743.979C646.515 740.241 636.001 745.773 630.142 741.752C633.664 739.555 647.293 742.143 652.632 740.267C652.771 740.218 652.906 740.161 653.043 740.108C658.977 740.28 664.891 740.419 670.828 740.336L671.229 732.956C669.104 729.59 667.61 726.019 668.643 721.989C669.798 717.48 673.655 714.805 677.448 712.622C678.098 709.827 677.449 698.631 677.455 694.91C677.417 676.11 677.488 657.309 677.667 638.51C678.474 631.421 678.393 624.088 678.575 616.959L679.362 582.958C680.088 542.964 680.081 502.874 681.843 462.911C678.385 462.718 674.013 462.51 671.301 460.073C668.492 457.548 668.431 454.045 668.205 450.556L620.556 450.474L620.57 456.684C617.275 460.663 614.372 461.667 609.46 462.654C610.434 481.781 610.83 500.93 611.766 520.058L607.467 519.778C607.479 517.691 607.332 515.617 607.204 513.536C606.848 496.199 606.146 478.87 605.1 461.561C587.811 461.384 570.521 461.473 553.235 461.829C552.068 477.531 552.614 493.734 552.43 509.486C552.22 511.449 552.067 513.436 551.785 515.388C551.666 513.437 551.695 511.553 550.795 509.772C549.546 509.546 549.813 509.628 548.867 510.277C547.974 512.445 548.707 514.571 548.067 516.782C547.95 514.187 547.981 511.574 547.952 508.976C548.024 504.615 548.243 500.25 548.402 495.891L549.021 462.119C548.555 462.102 548.089 462.082 547.624 462.059C542.84 461.815 540.87 460.871 537.642 457.293L537.284 450.653C520.344 450.663 503.427 450.971 486.481 450.782C486.036 453.451 485.551 456.624 483.718 458.747C481.242 461.615 477.64 461.542 474.171 461.698C474.389 473.185 474.505 484.673 474.516 496.162C474.519 501.622 474.653 507.022 474.997 512.472C476.416 533.284 475.903 710.62 477.88 712.027C478.014 712.123 479.277 712.574 479.362 712.607C480.918 713.209 481.531 713.695 482.554 714.98C483.106 720.444 483.252 725.937 483.47 731.422C485.184 731.44 487.236 731.21 488.715 732.153C488.851 734.094 486.844 736.404 486.68 739.543L484.343 739.442C483.639 738.693 483.568 738.423 483.285 737.47C482.798 736.443 482.659 735.425 481.456 735.073C479.763 734.578 407.509 734.906 401.969 735.657C401.213 736.925 401.466 737.812 401.515 739.266C402.246 740.195 402.757 740.446 403.959 740.58C409.444 741.19 415.793 740.454 421.372 740.438C436.206 740.403 451.04 740.282 465.872 740.074C468.838 740.532 471.889 740.594 474.884 740.775C464.594 741.855 453.692 741.043 443.32 741.019L389.565 741.017C375.319 740.899 361.064 741.03 346.817 741.094C339.319 741.128 331.673 741.466 324.196 741.028C323.185 740.969 322.818 740.754 322.041 740.153L329.096 740.022C339.354 739.985 349.611 740.036 359.868 740.176L359.781 734.379C350.533 733.658 341.058 734.052 331.779 734.046C320.623 733.971 309.482 734.525 298.324 734.547C294.412 734.554 290.171 734.822 286.291 734.391C285.764 734.071 285.29 733.639 284.71 733.43C282.402 732.601 267.592 733.066 265.258 733.628C261.187 734.609 263.712 737.228 261.956 739.991L261.463 739.332C261.181 736.486 261.536 734.052 262.006 731.255C263.374 731.264 264.73 731.189 266.095 731.111C271.232 727.768 266.677 719.221 268.926 714.028C269.546 712.596 270.5 712.482 271.826 711.903C273.409 711.817 273.977 712.087 275.094 710.903C275.463 709.619 275.721 708.484 275.66 707.139C275.554 704.773 275.572 702.412 275.573 700.044C276.238 691.476 276.104 682.764 276.215 674.167C276.271 657.719 276.47 641.272 276.812 624.827L280.751 463.221C279.729 462.86 278.703 462.496 277.707 462.067C274.79 460.809 272.765 458.612 271.67 455.628C270.68 452.93 269.837 431.896 270.864 429.936C271.196 429.302 271.728 429.126 272.421 429.014C273.639 428.817 274.699 428.989 275.573 429.792C276.367 434.777 275.621 440.491 275.626 445.561L348.04 445.946C348.027 440.257 348.149 434.569 348.404 428.885C355.434 428.888 403.368 428.318 406.46 429.638C407.689 430.163 407.474 430.89 407.752 432.041C407.179 436.504 407.459 441.279 407.413 445.786C432.337 445.652 457.263 445.654 482.187 445.792C482.204 439.139 482.148 432.486 482.019 425.834C457.947 425.178 433.729 425.865 409.634 425.749L320.881 425.461C303.758 425.412 286.495 425.923 269.391 425.425C267.452 425.368 265.282 425.61 263.984 423.997C260.86 420.114 262.807 408.079 263.152 403.188C259.455 403.247 255.757 403.264 252.059 403.238C251.47 388.088 240.4 394.119 234.09 385.582C230.642 380.916 231.626 374.738 232.596 369.441C231.077 369.51 229.011 369.807 227.56 369.461C226.222 369.142 225.3 368.399 224.706 367.169C223.786 365.264 224.215 348.182 224.938 346.497C225.702 344.714 227.923 343.668 229.547 342.796C290.458 310.655 351.558 278.877 412.846 247.462L479.974 212.892C490.59 207.389 501.346 200.44 512.372 195.941ZM490.625 233.368C496.901 230.608 503.076 227.625 509.14 224.426C528.158 234.5 547.643 243.621 566.848 253.325C616.446 278.559 666.308 303.269 716.428 327.451C732.409 335.171 748.061 343.691 763.858 351.796C772.111 356.03 780.398 360.493 789.003 363.981C792.451 365.379 795.472 365.179 799.128 365.014C799.54 360.059 799.678 354.91 800.581 350.029C751.294 323.243 701.514 297.374 651.266 272.436L512.336 201.196C503.795 205.331 495.591 210.202 487.227 214.685C476.689 220.333 465.959 225.68 455.32 231.137C431.221 243.501 406.517 255.051 382.916 268.335C367.049 277.295 350.682 285.383 334.488 293.733C320.524 300.934 306.725 308.467 292.663 315.475C278.109 322.694 263.697 330.196 249.435 337.977C242.868 341.555 235.595 344.982 229.534 349.357C229.397 354.39 229.083 359.484 229.237 364.514C243.81 364.162 258.395 364.529 272.97 364.596L353.047 364.985C368.781 365.068 384.884 365.767 400.589 364.964C405.787 365.295 411.196 365.001 416.413 364.995L448.981 364.954L546.883 364.976L681.595 364.836C713.878 364.947 746.293 365.74 778.56 365.011L593.394 272.309L536.39 243.909C527.319 239.378 518.377 234.543 509.189 230.257C483.297 241.837 457.71 254.427 432.184 266.799C416.693 274.307 400.61 281.152 385.687 289.745C379.541 292.173 373.58 295.504 367.685 298.486C358.257 303.283 348.8 308.023 339.315 312.706C319.08 322.495 298.974 332.548 279.002 342.863C270.588 347.202 262.012 351.373 253.794 356.075C252.707 356.698 251.792 357.243 250.567 357.57C248.621 358.091 245.802 358.739 243.955 357.677L244.075 356.758C250.121 350.656 271.458 341.719 280.284 337.138C332.82 310.142 385.684 283.791 438.866 258.091C455.976 249.665 473.781 242.283 490.625 233.368ZM301.42 369.277L237.159 369.501C236.378 373.366 236.194 377.114 236.563 381.046C243.852 389.919 252.253 384.457 256.528 398.724C270.74 399.053 284.955 399.236 299.171 399.272C309.379 399.355 319.673 399.707 329.874 399.397C339.329 399.76 348.874 399.528 358.338 399.546L411.677 399.547C437.906 399.506 464.468 400.308 490.646 399.072C496.066 399.819 502.343 399.192 507.867 399.167L545.518 399.01L697.675 398.785L738.916 398.858C746.565 398.876 754.674 398.331 762.239 399.351C772.565 391.951 787.41 381.769 793.522 370.529C780.188 368.711 765.93 369.928 752.473 369.953L688.707 369.587L544.978 369.437C525.248 369.485 505.438 368.976 485.721 369.483C479.804 368.698 473.063 369.245 467.061 369.222L429.93 369.098L301.42 369.277ZM419.715 404.038L267.376 403.815C266.994 409.417 266.891 415.035 267.07 420.647C285.72 421.681 304.69 420.949 323.38 421.016C355.915 421.443 388.453 421.599 420.99 421.483L647.203 421.45L716.074 421.319C728.367 421.314 740.916 421.813 753.186 421.189C754.904 421.102 756.773 421.275 758.031 419.922C760.826 416.916 759.492 407.666 759.356 403.589L419.715 404.038ZM470.682 521.946C470.67 501.888 469.502 481.627 470.334 461.6L416.947 461.905C416.812 485.722 416.356 509.535 415.577 533.34L412.663 637.383C411.908 662.444 410.592 687.85 410.915 712.904L421.48 712.912L425.223 520.195C425.405 512.326 424.978 475.213 426.407 471.356L427.403 470.67C428.617 471.08 429.075 471.295 429.689 472.549C431.165 475.56 426.018 691.827 425.593 712.928C430.358 712.892 435.132 712.923 439.895 712.799L439.478 555.414C439.485 537.952 439.905 520.528 440.101 503.071C440.198 494.519 439.579 485.679 440.231 477.178C440.342 475.731 440.45 474.359 441.42 473.218C442.616 473.07 442.916 472.976 444.002 473.455C445.642 478.642 443.678 537.74 443.633 546.993C443.441 602.285 443.561 657.577 443.992 712.868C448.511 712.834 453.041 712.868 457.556 712.697L456.605 542.118L456.543 496.728C456.555 490.332 456.072 483.543 456.535 477.186C456.644 475.69 457.236 474.816 458.195 473.732L459.43 473.362C460.429 474.066 460.77 474.452 460.928 475.709C461.585 480.956 460.93 487.212 460.91 492.554C460.864 504.473 460.997 516.431 460.733 528.346C460.124 546.608 460.594 565.033 460.562 583.314C460.367 626.378 460.781 669.443 461.803 712.495L472.411 712.493L471.563 579.423C471.345 560.302 471.854 541.035 470.682 521.946ZM410.082 538.056L408.917 537.596C408.792 535.088 410.775 532.287 410.88 529.396C411.323 517.207 411.485 505.006 411.826 492.814C412.106 482.81 412.648 472.798 412.568 462.788C408.837 461.501 405.197 460.176 403.413 456.36C402.527 454.464 402.553 452.541 402.556 450.488L352.544 450.494C351.679 454.648 350.381 457.942 346.743 460.413C345.238 461.435 343.461 462.163 341.803 462.891C341.225 475.398 341.842 488.018 342.016 500.535L343.45 576.727C343.629 601.817 344.032 626.905 344.66 651.987C344.898 666.48 344.64 681.231 345.745 695.675L346.066 711.745C349.21 711.804 352.883 711.507 355.857 712.54C354.902 717.997 355.529 724.7 355.492 730.293C356.232 730.241 356.972 730.199 357.713 730.169C359.556 730.101 361.819 730.079 363.105 731.665C364.772 733.72 364.183 737.775 364.115 740.269C372.157 740.683 388.659 741.271 396.16 740.209C398.487 737.932 395.301 734.813 396.73 732.496L399.23 732.206C402.186 729.291 398.831 719.745 401.291 715.357C402.497 713.204 404.27 712.841 406.498 712.245C407.311 694.297 411.489 541.53 410.082 538.056ZM280.38 693.406C279.86 699.347 279.832 705.481 279.976 711.445L288.517 711.504L288.643 703.607C289.449 681.001 289.254 658.363 289.664 635.75L291.501 546.281C291.765 523.2 291.212 499.872 292.313 476.834C292.371 475.61 292.275 474.705 293.064 473.693C294.462 473.351 294.784 473.468 296.186 473.867C297.672 477.62 296.445 511.314 296.351 518.213C296.059 557.936 295.413 597.655 294.411 637.366C293.971 659.541 292.549 682.109 293.388 704.256L293.175 711.4L306.354 711.44L306.442 704.514L306.603 703.914C306.68 702.727 306.701 701.681 307.214 700.582C307.373 703.416 306.571 707.962 308.063 710.427C308.439 711.048 308.431 710.865 309.216 711.027C310.189 707.478 309.724 702.238 309.872 698.516L310.59 698.423C310.899 702.654 310.491 707.129 310.39 711.382C314.64 711.422 318.929 711.584 323.166 711.215C323.77 655.048 324.064 598.877 324.047 542.707L323.954 493.415C323.924 487.895 323.19 482.094 323.421 476.637C323.492 474.978 323.801 474.156 325.024 473.051C326.31 473.002 326.452 473.028 327.554 473.689C328.439 475.087 328.477 476.734 328.534 478.347C328.714 483.487 328.412 488.674 328.435 493.822L328.516 537.762C328.557 595.605 327.516 653.456 327.885 711.3C332.261 711.441 336.668 711.298 341.046 711.264C341.186 628.146 336.755 545.119 337.746 461.971L285.546 462.064C284.625 473.869 284.556 485.654 284.318 497.483L283.257 555.046L281.973 615.375C281.251 641.343 280.267 667.429 280.38 693.406ZM281.415 715.983C277.99 716.232 274.603 716.43 271.168 716.421C271.144 720.332 270.374 725.821 272.859 729.027C276.553 731.443 283.99 729.974 288.426 730.021C302.882 730.083 317.317 729.472 331.77 729.603C338.317 730.286 345.268 729.894 351.867 729.93C351.826 725.272 351.603 720.609 351.548 715.947C348.791 715.896 346.034 715.982 343.277 716.04C335.865 715.484 328.097 715.863 320.648 715.846C307.57 715.747 294.492 715.793 281.415 715.983ZM715.044 717.585C706.19 717.454 688.708 716.487 680.762 717.984C678.254 718.457 675.599 719.539 673.691 721.266C672.604 722.249 671.616 723.636 671.748 725.174C671.859 726.457 672.683 727.54 673.72 728.248C676.838 730.377 682.129 730.169 685.765 729.885C701.637 729.975 717.51 729.969 733.382 729.867C738.752 729.806 745.725 730.482 750.903 729.384C752.064 729.138 752.492 728.413 753.131 727.491C753.28 726.614 753.425 725.867 753.109 724.996C751.83 721.468 748.411 719.284 745.326 717.528C735.237 717.411 725.135 717.551 715.044 717.585ZM485.976 425.999C485.988 429.853 486.054 433.717 485.949 437.569C495.1 437.363 504.212 436.885 513.375 436.813C520.714 436.756 529.191 437.569 536.359 436.342C536.977 435.351 536.756 435.319 536.578 434.224C535.092 433.236 494.907 433.811 489.117 433.745L487.763 433.537C487.029 432.395 487.033 432.449 487.27 431.113C490.565 427.926 519.415 429.348 525.515 429.387C528.651 429.408 532.752 429.976 535.728 429.01C536.937 428.617 537.195 428.337 537.606 427.17C536.62 426.139 535.447 426.215 534.065 426.195C518.052 425.96 501.991 425.997 485.976 425.999ZM541.545 425.944L541.482 445.813L616.332 445.316C616.383 438.888 616.517 432.448 616.361 426.022C591.442 425.894 566.46 425.513 541.545 425.944ZM619.723 426.218C619.644 427.431 619.264 428.416 620.061 429.38C636.05 429.95 652.29 429.361 668.314 429.413C668.276 428.025 668.549 427.333 667.586 426.257C652.647 425.192 634.925 426.126 619.723 426.218ZM728.011 426.249L672.425 426.458L672.396 445.991L693.875 445.844C701 445.809 744.873 446.661 749.298 444.694C751.222 439.759 750.084 431.631 749.999 426.313C742.67 426.167 735.34 426.146 728.011 426.249ZM351.947 433.504C352.009 434.936 351.773 436.337 352.608 437.525C369.529 436.404 386.692 436.978 403.653 437.01C403.568 435.748 403.791 434.594 402.922 433.638C396.451 433.14 389.822 433.459 383.331 433.49L351.947 433.504ZM619.551 433.578L619.986 435.997C622.579 437.435 662.091 436.737 668.472 436.708C668.36 435.42 668.577 434.598 667.628 433.657C661.918 433.107 656.009 433.407 650.272 433.421L619.551 433.578ZM389.855 441.758C384.827 441.776 355.151 440.993 352.585 442.322C351.829 443.469 351.837 443.635 351.84 445.02L352.565 445.868C356.958 446.017 361.354 446.065 365.75 446.011C371.174 446.024 400.541 447.065 403.153 445.268C403.405 444.135 403.566 443.548 403.121 442.453C400.173 440.3 393.481 441.546 389.855 441.758ZM485.979 441.526C485.968 442.896 485.68 444.58 486.554 445.716C492.011 446.623 498.291 446.01 503.838 445.977C514.888 445.944 525.938 445.848 536.987 445.69C537.074 444.32 537.383 442.872 536.63 441.653C520.598 440.594 502.37 441.601 485.979 441.526ZM620.603 441.743C620.127 442.982 620.279 443.756 620.44 445.037C621.17 445.92 620.745 445.765 621.629 445.844C627.498 446.375 633.577 446.116 639.479 446.143C648.96 446.223 658.442 446.229 667.923 446.163C667.988 444.757 668.339 442.979 667.612 441.725C661.808 441.254 655.879 441.544 650.053 441.574L620.603 441.743ZM607.261 449.721C592.986 450.316 578.699 450.566 564.412 450.47C556.97 450.463 549.002 449.753 541.64 450.584C540.947 451.433 541.03 451.604 541.131 452.666C541.234 453.747 541.741 455.341 542.635 456.001C544.778 457.585 548.327 457.068 550.875 457.007C564.583 456.952 578.292 456.973 592 457.07C598.312 457.121 605.332 457.984 611.552 457.189C612.823 457.027 613.979 456.664 614.902 455.713C616.174 454.404 616.404 452.708 616.468 450.978L615.853 449.871C613.164 449.28 610.015 449.659 607.261 449.721ZM298.747 450.248C292.592 450.254 281.561 449.353 275.996 450.616C275.333 451.945 275.489 452.637 275.543 454.1C276.555 455.741 277.694 456.353 279.557 456.815C286.627 458.569 315.18 457.439 324.375 457.415C329.285 457.438 342.721 458.967 345.996 455.586C347.368 454.17 347.662 453.002 347.648 451.113C346.997 450.259 347.051 450.274 345.975 450.12C340.905 449.391 335.148 449.988 330.004 450.023L298.747 450.248ZM414.225 450.248C412.211 450.273 409.301 449.832 407.594 450.857C407.142 452.281 407.427 453.352 407.711 454.766C408.918 456.323 410.354 456.721 412.232 456.955C418.096 457.686 424.714 457.039 430.671 457.069L478.084 456.985C479.551 456.515 480.564 456.404 481.486 455.01C482.245 453.862 482.237 452.55 482.254 451.24C481.385 450.169 480.917 450.37 479.571 450.234C472.641 449.537 465.169 450.099 458.182 450.128L414.225 450.248ZM672.259 450.44C672.37 452.427 672.339 454.208 673.317 455.991C674.839 457.147 675.765 457.251 677.662 457.409C690.14 458.447 704.254 457.452 716.891 457.368C725.572 457.311 735.221 458.205 743.761 457.032C745.395 456.808 746.514 456.288 747.856 455.362C748.847 453.776 749.763 452.249 750.518 450.536L672.259 450.44ZM686.421 461.662C684.5 545.592 683.224 629.534 682.593 713.483L693.867 713.501L694.58 585.055L694.881 515.018C694.923 502.552 694.627 490.021 694.96 477.564C695.011 475.675 694.989 473.269 695.8 471.553C696.988 471.171 696.978 471.326 698.113 471.891C698.81 472.79 699.264 473.453 699.343 474.62C699.795 481.282 699.261 488.388 699.302 495.106L699.253 549.781L698.484 713.554L712.168 713.472L710.405 524.537C710.355 518.119 709.379 475.94 710.239 473.381C710.349 473.054 710.65 472.827 710.856 472.55C712.248 472.515 712.25 472.573 713.358 473.434C716.014 478.828 714.597 492.198 714.606 498.624L716.665 713.322C720.627 713.34 724.614 713.448 728.572 713.251C728.193 651.657 727.451 590.066 726.347 528.48C726.161 511.541 725.067 494.436 725.317 477.517C725.345 475.612 725.396 473.639 726.559 472.051C727.786 471.72 727.828 471.901 728.973 472.285C731.077 477.437 729.956 491.137 730.162 497.468C731.289 537.136 731.956 576.816 732.161 616.499L733.472 713.361C736.947 713.346 740.436 713.391 743.908 713.241L740.517 548.749L739.57 497.13C739.42 488.41 739.553 479.656 739.093 470.947C738.956 468.358 738.932 465.017 737.888 462.624C732.442 460.515 695.526 461.65 686.421 461.662ZM404.763 716.695C404.211 721.634 403.827 726.512 404.019 731.486C428.967 731.609 453.917 731.58 478.865 731.399C478.659 726.334 478.551 721.647 476.924 716.785C452.966 715.932 428.751 716.653 404.763 716.695Z" fill="url(#paint0_linear_2252_20257)"/>
<path d="M490.625 233.367C487.864 231.965 485.994 232.415 483.11 233.372C474.602 236.198 466.256 240.207 457.911 243.521C446.923 247.885 435.703 251.788 424.87 256.52C415.51 260.61 406.071 266.243 396.293 269.098C392.253 270.277 388.208 271.006 384.136 269.588L382.916 268.334C406.517 255.05 431.221 243.5 455.32 231.136C465.959 225.679 476.689 220.332 487.227 214.684C495.591 210.201 503.795 205.33 512.336 201.195L651.266 272.435C701.514 297.373 751.294 323.242 800.581 350.028C799.678 354.909 799.54 360.058 799.128 365.013C795.472 365.178 792.451 365.378 789.003 363.98C780.398 360.492 772.111 356.029 763.858 351.795C748.061 343.69 732.409 335.17 716.428 327.45C666.308 303.268 616.446 278.558 566.848 253.324C547.643 243.62 528.158 234.499 509.14 224.425C503.076 227.624 496.901 230.607 490.625 233.367Z" fill="#98F5E1"/>
<path d="M385.687 289.746C400.61 281.153 416.693 274.308 432.184 266.8C457.71 254.428 483.297 241.838 509.189 230.258C518.377 234.544 527.319 239.379 536.39 243.91L593.394 272.31L778.56 365.012C746.293 365.741 713.878 364.948 681.595 364.837L546.883 364.977L448.981 364.955L416.413 364.996C411.196 365.002 405.787 365.296 400.589 364.965C395.566 363.328 377.828 364.465 371.623 364.5C372.001 363.476 373.518 360.55 373.465 359.64C373.393 358.411 372.569 358.738 373.017 357.205C378.932 353.763 389.997 358.339 396.578 355.397C400.965 354.354 413.986 355.128 419.068 355.125L480.018 355.184C562.787 354.761 645.558 355.153 728.32 356.357C731.381 356.393 736.622 356.775 738.941 354.508L738.73 353.435C733.731 348.183 719.63 343.576 712.688 340.235C681.399 325.177 649.622 311.081 618.39 295.927L546.35 260.356C534.706 254.702 523.007 248.402 510.932 243.765C500.695 246.001 490.531 252.342 481.192 257.022C465.674 264.799 449.823 271.947 434.207 279.535C426.741 283.163 419.347 287.913 411.566 290.754C404.496 290.934 370.044 312.519 365.15 311.849C362.16 311.44 359.534 308.2 356.163 307.692C355.777 308.021 355.154 308.643 354.671 308.872C353.499 309.428 352.993 309.122 351.816 308.778L351.658 308.04C356.351 303.555 382.577 293.755 385.261 290.331C385.409 290.141 385.545 289.941 385.687 289.746Z" fill="url(#paint1_linear_2252_20257)"/>
<path d="M382.916 268.338L384.136 269.592C388.208 271.01 392.253 270.281 396.293 269.102C406.071 266.247 415.51 260.614 424.87 256.524C435.703 251.792 446.923 247.889 457.911 243.525C466.256 240.211 474.602 236.202 483.11 233.376C485.994 232.419 487.864 231.969 490.625 233.371C473.781 242.286 455.976 249.668 438.866 258.094C385.684 283.794 332.82 310.145 280.284 337.141C271.458 341.722 250.121 350.659 244.075 356.761L243.955 357.68C245.802 358.742 248.621 358.094 250.567 357.573C251.792 357.246 252.707 356.701 253.794 356.078C262.012 351.376 270.588 347.205 279.002 342.866C298.974 332.551 319.08 322.498 339.315 312.709C348.8 308.026 358.257 303.286 367.685 298.489C373.58 295.507 379.541 292.176 385.687 289.748C385.545 289.943 385.409 290.143 385.261 290.333C382.577 293.757 356.351 303.557 351.658 308.042L351.816 308.78C352.993 309.124 353.499 309.43 354.671 308.874C355.154 308.645 355.777 308.023 356.163 307.694C359.534 308.202 362.16 311.442 365.15 311.851C370.044 312.521 404.496 290.936 411.566 290.756L411.086 291.04C402.318 296.14 392.706 300.325 383.6 304.82C356.177 318.359 328.162 330.799 301.268 345.348C296.102 348.143 289.745 349.679 285.043 353.09C285.095 354.026 284.879 353.948 285.547 354.465C286.764 355.408 288.363 355.567 289.854 355.655C298.424 356.159 307.376 355.519 315.988 355.416C333.944 355.181 351.903 355.135 369.86 355.278C378.697 355.294 387.783 354.814 396.578 355.399C389.997 358.341 378.932 353.765 373.017 357.207C372.569 358.74 373.393 358.413 373.465 359.642C373.518 360.552 372.001 363.478 371.623 364.502C377.828 364.467 395.566 363.33 400.589 364.967C384.884 365.77 368.781 365.071 353.047 364.988L272.97 364.599C258.395 364.532 243.81 364.165 229.237 364.517C229.083 359.487 229.397 354.393 229.534 349.36C235.595 344.985 242.868 341.558 249.435 337.98C263.697 330.199 278.109 322.697 292.663 315.478C306.725 308.47 320.524 300.937 334.488 293.736C350.682 285.386 367.049 277.298 382.916 268.338Z" fill="#CFBAF0"/>
<path d="M411.566 290.755C419.347 287.914 426.741 283.164 434.207 279.536C449.823 271.948 465.674 264.8 481.192 257.023C490.531 252.343 500.695 246.002 510.932 243.766C523.007 248.403 534.706 254.703 546.35 260.357L618.39 295.928C649.622 311.082 681.399 325.178 712.688 340.236C719.63 343.577 733.731 348.184 738.73 353.436L738.941 354.509C736.622 356.776 731.381 356.394 728.32 356.358C645.558 355.154 562.787 354.762 480.018 355.185L419.068 355.126C413.986 355.129 400.965 354.355 396.578 355.398C387.783 354.813 378.697 355.293 369.86 355.277C351.903 355.134 333.944 355.18 315.988 355.415C307.376 355.518 298.424 356.158 289.854 355.654C288.363 355.566 286.764 355.407 285.547 354.464C284.879 353.947 285.095 354.025 285.043 353.089C289.745 349.678 296.102 348.142 301.268 345.347C328.162 330.798 356.177 318.358 383.6 304.819C392.706 300.324 402.318 296.139 411.086 291.039L411.566 290.755ZM397.852 302.79C382.216 309.689 367.107 318.197 351.771 325.761C334.624 334.217 317.024 341.784 300.233 350.945C318.139 351.008 336.039 350.573 353.947 350.546C365.225 350.53 377.063 351.257 388.29 350.427C408.96 351.271 429.874 350.621 450.579 350.638L576.836 350.565C609.317 350.493 641.797 350.604 674.276 350.897C691.269 351.003 708.614 351.942 725.562 351.106C717.035 346.794 708.03 343.344 699.383 339.258L610.095 297.206C586.353 285.782 562.98 273.589 539.239 262.151C529.84 257.622 520.442 252.73 510.775 248.812C494.852 254.853 479.822 263.242 464.398 270.442C449.098 277.585 433.991 285.012 418.83 292.438C411.931 295.817 404.361 298.764 397.852 302.79Z" fill="url(#paint2_linear_2252_20257)"/>
<path d="M397.852 302.79C404.361 298.764 411.931 295.818 418.83 292.439C433.991 285.013 449.098 277.586 464.398 270.443C479.822 263.243 494.852 254.853 510.775 248.812C520.442 252.73 529.84 257.622 539.239 262.151C562.98 273.589 586.353 285.782 610.095 297.206L699.383 339.258C708.03 343.344 717.035 346.795 725.562 351.107C708.614 351.943 691.269 351.003 674.276 350.897C641.797 350.604 609.317 350.493 576.836 350.565L450.579 350.638C429.874 350.621 408.96 351.271 388.29 350.427C387.996 350.054 387.975 349.974 387.272 349.788C384.536 349.065 378.139 349.897 375.041 349.898L330.641 349.68C324.925 349.652 318.192 351.105 312.665 349.822L312.455 349.103C313.044 347.863 313.648 346.066 314.419 344.966C314.6 344.708 376.997 314.016 384.179 310.417C386.377 309.316 395.844 305.307 397.167 303.987C397.492 303.663 397.624 303.189 397.852 302.79ZM511.219 300.047C510.025 300.186 509.003 300.967 508.556 302.082C508.109 303.198 508.308 304.47 509.076 305.395C509.843 306.321 511.055 306.751 512.234 306.518C513.961 306.176 515.11 304.532 514.837 302.794C514.564 301.055 512.967 299.843 511.219 300.047Z" fill="#8EECF5"/>
<path d="M661.326 271.555C678.513 269.652 695.856 269.434 713.128 269.226C726.991 269.06 740.995 268.604 754.848 269.248C796.485 271.185 849.544 279.18 888.595 293.996C899.142 297.998 909.372 303.195 919.209 308.697C926.273 312.648 933.209 316.752 939.543 321.822C969.917 345.88 989.199 381.259 992.953 419.824C997.95 467.894 979.773 516.317 949.509 553.31C941.8 562.732 933.056 573.69 922.947 580.53C920.211 576.16 918.208 571.071 915.697 566.523C908.276 553.085 900.514 539.685 891.764 527.063C885.956 518.687 879.17 510.797 872.494 503.108C857.217 485.293 840.388 468.871 822.205 454.034C810.126 444.073 797.353 434.833 785.025 425.166C778.186 419.803 770.502 415.413 763.915 409.806L763.35 409.318C763.139 408.159 763.167 407.164 763.216 405.994C766.335 400.791 783.299 390.368 788.93 385.158C795.948 378.664 793.247 374.61 803.357 369.278C803.992 361.881 804.613 354.367 804.633 346.942C799.561 343.281 793.408 340.455 787.904 337.482C777.134 331.622 766.294 325.892 755.386 320.293L661.326 271.555Z" fill="#DFF1FA"/>
<path d="M512.234 306.518C511.055 306.751 509.843 306.32 509.076 305.394C508.308 304.469 508.109 303.198 508.556 302.082C509.003 300.967 510.025 300.185 511.219 300.046C512.967 299.842 514.564 301.055 514.837 302.794C515.11 304.532 513.961 306.176 512.234 306.518Z" fill="#76679F"/>
<path d="M300.232 350.944C317.023 341.783 334.623 334.216 351.77 325.76C367.106 318.196 382.215 309.688 397.851 302.789C397.623 303.188 397.491 303.662 397.166 303.986C395.843 305.306 386.376 309.314 384.178 310.415C376.996 314.014 314.599 344.707 314.418 344.965C313.647 346.065 313.043 347.862 312.454 349.102L312.664 349.82C318.191 351.103 324.924 349.65 330.64 349.678L375.04 349.897C378.138 349.896 384.535 349.063 387.271 349.786C387.974 349.972 387.995 350.053 388.289 350.426C377.062 351.256 365.224 350.529 353.946 350.545C336.038 350.572 318.138 351.007 300.232 350.944Z" fill="#CFBAF0"/>
<path d="M301.421 369.278L429.931 369.099L467.062 369.223C473.064 369.246 479.805 368.699 485.722 369.484C492.024 371.058 511.691 369.989 519.334 369.941C522.305 369.922 525.548 369.545 528.442 370.269C527.311 370.408 526.817 370.221 525.998 371.034C525.209 371.817 524.459 372.222 523.5 372.759L523.482 373.566C524.71 374.496 525.904 375.446 527.089 376.431C525.366 378.701 523.413 380.398 521.252 382.23C520.794 384.06 520.173 385.391 520.748 387.239C522.019 388.473 522.443 388.536 522.571 390.36C521.7 391.489 520.854 392.615 520.06 393.799L520.294 394.503C522.219 395.129 524.244 394.955 526.247 394.94L525.708 396.471C526.485 397.607 527.992 397.906 529.339 398.192C530.028 398.339 530.21 398.329 530.832 398.36C525.366 398.595 492.364 397.786 490.647 399.073C464.469 400.309 437.907 399.507 411.678 399.548L358.339 399.547C348.875 399.529 339.33 399.761 329.875 399.398L329.816 398.724C328.217 397.31 285.441 398.831 279.047 398.314C281.26 391.149 299.71 378.759 305.47 373.381C306.662 372.268 307.117 371.973 307.129 370.359C315.129 368.809 324.141 371.901 332.003 369.729C321.798 369.73 311.619 369.711 301.421 369.278Z" fill="#DFF1FA"/>
<path d="M237.16 369.501L301.421 369.277C311.619 369.71 321.798 369.729 332.003 369.728C324.141 371.9 315.129 368.808 307.129 370.358C307.117 371.972 306.662 372.267 305.47 373.38C299.71 378.758 281.26 391.148 279.047 398.313C285.441 398.83 328.217 397.309 329.816 398.723L329.875 399.397C319.674 399.707 309.38 399.355 299.172 399.272C284.956 399.236 270.741 399.053 256.529 398.724C252.254 384.457 243.853 389.919 236.564 381.046C236.195 377.114 236.379 373.366 237.16 369.501Z" fill="#FCE2E5"/>
<path d="M485.721 369.484C505.438 368.977 525.248 369.486 544.978 369.438L688.707 369.588L752.473 369.954C765.93 369.929 780.188 368.712 793.522 370.53C787.41 381.77 772.565 391.952 762.239 399.352C754.674 398.332 746.565 398.877 738.916 398.859L697.675 398.786L545.518 399.011L507.867 399.168C502.343 399.193 496.066 399.82 490.646 399.073C492.363 397.786 525.365 398.595 530.831 398.36C530.209 398.329 530.027 398.339 529.338 398.192C527.991 397.906 526.484 397.607 525.707 396.471L526.246 394.94C524.243 394.955 522.218 395.129 520.293 394.503L520.059 393.799C520.853 392.615 521.699 391.489 522.57 390.36C522.442 388.536 522.018 388.473 520.747 387.239C520.172 385.391 520.793 384.06 521.251 382.23C523.412 380.398 525.365 378.701 527.088 376.431C525.903 375.446 524.709 374.496 523.481 373.566L523.499 372.759C524.458 372.222 525.208 371.817 525.997 371.034C526.816 370.221 527.31 370.408 528.441 370.269C525.547 369.545 522.304 369.922 519.333 369.941C511.69 369.989 492.023 371.058 485.721 369.484Z" fill="#98F5E1"/>
<path d="M252.06 403.238C255.758 403.264 259.456 403.247 263.153 403.188C262.808 408.078 260.861 420.113 263.985 423.996C265.283 425.609 267.453 425.367 269.392 425.424C286.496 425.922 303.759 425.412 320.882 425.461L409.635 425.749C408.361 427.269 408.254 430.105 407.753 432.04C407.475 430.889 407.69 430.163 406.461 429.638C403.369 428.318 355.435 428.887 348.405 428.884C348.15 434.568 348.028 440.256 348.041 445.945L275.627 445.561C275.622 440.491 276.368 434.777 275.574 429.792C274.7 428.989 273.64 428.817 272.422 429.014C271.729 429.126 271.197 429.302 270.865 429.936C269.838 431.896 270.681 452.93 271.671 455.628C272.766 458.612 274.791 460.808 277.708 462.066C278.704 462.495 279.73 462.859 280.752 463.22L276.813 624.827C276.471 641.272 276.272 657.719 276.216 674.167C276.105 682.764 276.239 691.475 275.574 700.043C268.345 699.768 261.227 698.069 253.964 697.743L253.035 697.27C250.807 693.762 247.406 690.34 244.613 687.225C228.844 669.641 210.341 655.043 188.567 645.683L188.147 645.116C184.187 630.812 182.129 615.743 180.928 600.97C179.685 585.682 180.807 570.44 182.636 555.249C187.638 513.168 202.373 472.83 225.676 437.434C233.689 425.395 242.72 414.263 252.06 403.238Z" fill="url(#paint3_linear_2252_20257)"/>
<path d="M267.376 403.816L419.715 404.039C418.866 409.878 419.301 415.831 420.99 421.484C388.453 421.6 355.915 421.444 323.38 421.017C304.69 420.95 285.72 421.682 267.07 420.648C266.891 415.036 266.994 409.418 267.376 403.816Z" fill="#F1C0E8"/>
<path d="M419.715 404.039L759.356 403.59C759.492 407.667 760.826 416.917 758.031 419.923C756.773 421.276 754.904 421.103 753.186 421.19C740.916 421.814 728.367 421.315 716.074 421.32L647.203 421.451L420.99 421.484C419.301 415.831 418.866 409.878 419.715 404.039Z" fill="#98F5E1"/>
<path d="M763.352 409.32L763.917 409.808C770.504 415.415 778.188 419.805 785.027 425.168C797.355 434.835 810.128 444.075 822.207 454.036C840.39 468.873 857.219 485.295 872.496 503.11C879.172 510.799 885.958 518.689 891.766 527.065C900.516 539.687 908.278 553.087 915.699 566.525C918.21 571.073 920.213 576.162 922.949 580.532L922.97 580.953C909.6 590.193 897.585 598.27 881.835 603.317C867.893 607.785 852.936 610.332 838.569 613.108C808.018 619.012 772.306 626.411 765.78 662.222C763.735 673.438 763.342 685.451 764.888 696.756C765.931 704.387 773.839 734.195 771.999 738.312L768.418 740.112C765.461 740.538 759.247 741.415 756.662 740.036C756.499 734.626 757.451 728.985 756.867 723.654C756.25 718.026 752.761 715.434 748.629 712.17C747.57 691.861 748.102 671.225 747.611 650.866C746.106 588.451 745.304 525.95 743.131 463.559C748.104 461.329 751.408 458.926 754.376 454.28C754.981 445.152 754.7 435.804 754.82 426.647C757.282 426.506 759.335 426.561 761.303 424.846C764.746 421.845 763.461 413.469 763.352 409.32Z" fill="#FBF8CC"/>
<path d="M409.635 425.75C433.73 425.866 457.948 425.179 482.02 425.835C482.149 432.487 482.205 439.14 482.188 445.793C457.264 445.655 432.338 445.653 407.414 445.787C407.46 441.28 407.18 436.505 407.753 432.042C408.254 430.107 408.361 427.27 409.635 425.75Z" fill="#E3E7FB"/>
<path d="M485.949 437.569C486.054 433.717 485.988 429.853 485.976 425.999C501.991 425.997 518.052 425.96 534.065 426.195C535.447 426.215 536.62 426.139 537.606 427.17C537.195 428.337 536.937 428.617 535.728 429.01C532.752 429.976 528.651 429.408 525.515 429.387C519.415 429.348 490.565 427.926 487.27 431.113C487.033 432.449 487.029 432.395 487.763 433.537L489.117 433.745C494.907 433.811 535.092 433.236 536.578 434.224C536.756 435.319 536.977 435.351 536.359 436.342C529.191 437.569 520.714 436.756 513.375 436.813C504.212 436.885 495.1 437.363 485.949 437.569Z" fill="#E3E7FB"/>
<path d="M541.482 445.815L541.545 425.946C566.46 425.515 591.442 425.896 616.361 426.024C616.517 432.45 616.383 438.89 616.332 445.318L541.482 445.815Z" fill="#98F5E1"/>
<path d="M668.313 429.415C652.289 429.363 636.049 429.952 620.06 429.382C619.263 428.418 619.643 427.433 619.722 426.22C634.924 426.128 652.646 425.194 667.585 426.259C668.548 427.335 668.275 428.027 668.313 429.415Z" fill="#98F5E1"/>
<path d="M672.425 426.461L728.011 426.252C735.34 426.149 742.671 426.17 750 426.316C750.085 431.634 751.222 439.762 749.298 444.697C744.873 446.664 701 445.812 693.875 445.847L672.396 445.994L672.425 426.461Z" fill="#B9FBC0"/>
<path d="M403.653 437.012C386.692 436.98 369.529 436.406 352.608 437.527C351.773 436.339 352.009 434.938 351.947 433.506L383.331 433.492C389.822 433.461 396.451 433.142 402.922 433.64C403.791 434.596 403.568 435.75 403.653 437.012Z" fill="#F1C0E8"/>
<path d="M668.472 436.709C662.091 436.738 622.579 437.436 619.986 435.998L619.551 433.579L650.272 433.422C656.009 433.408 661.918 433.108 667.628 433.658C668.577 434.599 668.36 435.421 668.472 436.709Z" fill="#98F5E1"/>
<path d="M365.75 446.011C361.354 446.065 356.958 446.017 352.565 445.868L351.84 445.02C351.837 443.635 351.829 443.469 352.585 442.322C355.151 440.993 384.827 441.776 389.855 441.758C393.481 441.546 400.173 440.3 403.121 442.453C403.566 443.548 403.405 444.135 403.153 445.268C400.541 447.065 371.174 446.024 365.75 446.011Z" fill="#F1C0E8"/>
<path d="M536.988 445.693C525.939 445.851 514.889 445.947 503.839 445.98C498.292 446.013 492.012 446.626 486.555 445.719C485.681 444.583 485.969 442.899 485.98 441.529C502.371 441.604 520.599 440.597 536.631 441.656C537.384 442.875 537.075 444.323 536.988 445.693Z" fill="#E3E7FB"/>
<path d="M667.924 446.166C658.443 446.232 648.961 446.226 639.48 446.146C633.578 446.119 627.499 446.378 621.63 445.847C620.746 445.768 621.171 445.923 620.441 445.04C620.28 443.759 620.128 442.985 620.604 441.746L650.054 441.577C655.88 441.547 661.809 441.257 667.613 441.728C668.34 442.982 667.989 444.76 667.924 446.166Z" fill="#B9FBC0"/>
<path d="M550.875 457.01C548.327 457.071 544.778 457.588 542.635 456.004C541.741 455.344 541.234 453.75 541.131 452.669C541.03 451.607 540.947 451.436 541.64 450.587C549.002 449.756 556.97 450.466 564.412 450.473C578.699 450.569 592.986 450.319 607.261 449.724C610.015 449.662 613.164 449.283 615.853 449.874L616.468 450.981C616.404 452.711 616.174 454.407 614.902 455.716C613.979 456.667 612.823 457.03 611.552 457.192C605.332 457.987 598.312 457.124 592 457.073C578.292 456.976 564.583 456.955 550.875 457.01Z" fill="#98F5E1"/>
<path d="M324.375 457.417C315.18 457.441 286.628 458.571 279.558 456.817C277.695 456.355 276.555 455.743 275.543 454.102C275.489 452.639 275.333 451.947 275.996 450.618C281.561 449.355 292.593 450.256 298.748 450.25L330.004 450.025C335.148 449.99 340.906 449.393 345.976 450.122C347.052 450.276 346.998 450.261 347.649 451.115C347.663 453.004 347.368 454.172 345.996 455.588C342.721 458.969 329.285 457.44 324.375 457.417Z" fill="#FCA4D9"/>
<path d="M478.084 456.985L430.671 457.069C424.714 457.039 418.096 457.686 412.232 456.955C410.354 456.721 408.918 456.323 407.711 454.766C407.427 453.352 407.142 452.281 407.594 450.857C409.301 449.832 412.211 450.273 414.225 450.248L458.182 450.128C465.169 450.099 472.641 449.537 479.571 450.234C480.917 450.37 481.385 450.169 482.254 451.24C482.237 452.55 482.245 453.862 481.486 455.01C480.564 456.404 479.551 456.515 478.084 456.985Z" fill="#CFBAF0"/>
<path d="M412.567 462.788C412.647 472.798 412.105 482.81 411.825 492.814C411.484 505.006 411.322 517.207 410.879 529.396C410.774 532.287 408.791 535.088 408.916 537.596L410.081 538.056C405.708 543.35 403.396 548.568 400.041 554.413C398.363 557.335 396.311 560.039 394.625 562.959C391.258 568.791 388.747 576.349 387.136 582.905C384.284 585.285 382.103 589.609 380.418 592.902C370.888 611.529 368.102 630.847 363.289 650.853C361.657 657.396 359.758 663.869 357.596 670.256C355.68 675.749 353.434 681.121 350.868 686.342C349.843 688.426 346.158 693.982 345.744 695.675C344.639 681.231 344.897 666.48 344.659 651.987C344.031 626.905 343.628 601.817 343.449 576.727L342.015 500.535C341.841 488.018 341.224 475.398 341.802 462.891C343.46 462.163 345.237 461.435 346.742 460.413C350.38 457.942 351.678 454.648 352.543 450.494L402.555 450.488C402.552 452.541 402.526 454.464 403.412 456.36C405.196 460.176 408.836 461.501 412.567 462.788Z" fill="#CFBAF0"/>
<path d="M474.517 496.161C474.506 484.672 474.39 473.184 474.172 461.697C477.641 461.541 481.243 461.614 483.719 458.746C485.552 456.623 486.037 453.45 486.482 450.781C503.428 450.97 520.345 450.662 537.285 450.652L537.643 457.292C540.871 460.87 542.841 461.814 547.625 462.058C548.09 462.081 548.556 462.101 549.022 462.118L548.403 495.89C523.593 485.584 499.211 486.498 474.517 496.161Z" fill="#DFF1FA"/>
<path d="M611.767 520.061C610.831 500.933 610.435 481.784 609.461 462.657C614.373 461.67 617.276 460.666 620.571 456.687L620.557 450.477L668.206 450.559C668.432 454.048 668.493 457.551 671.302 460.076C674.014 462.513 678.386 462.721 681.844 462.914C680.082 502.877 680.089 542.967 679.363 582.961L678.576 616.962C678.394 624.091 678.475 631.424 677.668 638.513C676.209 635.438 675.667 631.432 674.79 628.108C673.218 622.144 671.548 616.243 669.312 610.486C657.041 578.889 635.502 545.533 611.977 521.202L611.767 520.061Z" fill="#FBF8CC"/>
<path d="M747.857 455.363C746.515 456.289 745.396 456.809 743.762 457.033C735.222 458.206 725.573 457.312 716.892 457.369C704.255 457.453 690.141 458.448 677.663 457.41C675.766 457.252 674.84 457.148 673.318 455.992C672.34 454.209 672.371 452.428 672.26 450.441L750.519 450.537C749.764 452.25 748.848 453.777 747.857 455.363Z" fill="#B9FBC0"/>
<path d="M470.334 461.602C469.502 481.629 470.67 501.89 470.682 521.948C470.561 523.561 470.79 524.907 469.524 526.113C467.666 527.881 463.2 528.017 460.733 528.348C460.997 516.433 460.864 504.475 460.91 492.556C460.93 487.214 461.585 480.958 460.928 475.711C460.77 474.454 460.429 474.068 459.43 473.364L458.195 473.734C457.236 474.818 456.644 475.692 456.535 477.188C456.072 483.545 456.555 490.334 456.543 496.73L456.605 542.12L457.556 712.699C453.041 712.87 448.511 712.836 443.992 712.87C443.561 657.579 443.441 602.287 443.633 546.995C443.678 537.742 445.642 478.644 444.002 473.457C442.916 472.978 442.616 473.072 441.42 473.22C440.45 474.361 440.342 475.733 440.231 477.18C439.579 485.681 440.198 494.521 440.101 503.073C439.905 520.53 439.485 537.954 439.478 555.416L439.895 712.801C435.132 712.925 430.358 712.894 425.593 712.93C426.018 691.829 431.165 475.562 429.689 472.551C429.075 471.297 428.617 471.082 427.403 470.672L426.407 471.358C424.978 475.215 425.405 512.328 425.223 520.197L421.48 712.914L410.915 712.906C410.592 687.852 411.908 662.446 412.663 637.385L415.577 533.342C416.356 509.537 416.812 485.724 416.947 461.907L470.334 461.602Z" fill="url(#paint4_linear_2252_20257)"/>
<path d="M552.431 509.486C552.615 493.734 552.069 477.531 553.236 461.829C570.522 461.473 587.812 461.384 605.101 461.561C606.147 478.87 606.849 496.199 607.205 513.536C607.333 515.617 607.48 517.691 607.468 519.778C607.323 527.702 608.032 535.741 608.391 543.659C609.007 557.22 609.54 570.784 609.989 584.352C611.384 627.284 612.208 670.159 615.18 713.024C610.615 713.091 606.04 713.011 601.473 712.993L598.963 512.343C598.844 507.726 598.837 472.925 598.17 471.822C598.016 471.567 597.739 471.411 597.523 471.205C596.036 471.405 595.969 471.406 594.91 472.46C593.556 476.125 594.998 519.792 595.101 527.991L596.642 656.938C596.863 675.524 597.527 694.103 597.521 712.692C592.543 712.69 587.532 712.811 582.559 712.609L583.029 548.116C583.052 530.6 582.94 513.084 582.693 495.57C582.611 487.752 583.363 479.164 582.284 471.484C581.134 470.813 580.911 471.033 579.578 471.268C578.536 472.975 578.488 474.885 578.45 476.84C578.012 499.203 578.966 521.742 578.981 544.13L578.918 712.882C574.883 712.211 570.559 712.522 566.47 712.545C566.762 659.026 566.674 605.505 566.205 551.987L566.265 501.22C566.306 492.728 566.971 483.71 566.323 475.262C566.174 473.325 566.076 472.75 564.794 471.318C563.152 471.975 562.611 474.994 562.428 476.54C561.997 480.176 562.426 484.028 562.435 487.697L562.454 512.728C562.463 529.654 563.581 709.772 562.787 711.69C562.668 711.979 562.412 712.189 562.224 712.438L559.81 712.69C556.287 712.379 552.593 712.574 549.049 712.56L550.643 614.554C551.397 579.541 552.663 544.514 552.431 509.486Z" fill="#98F5E1"/>
<path d="M682.594 713.484C683.225 629.535 684.501 545.593 686.422 461.663C695.527 461.651 732.443 460.516 737.889 462.625C738.933 465.018 738.957 468.359 739.094 470.948C739.554 479.657 739.421 488.411 739.571 497.131L740.518 548.75L743.909 713.242C740.437 713.392 736.948 713.347 733.473 713.362L732.162 616.5C731.957 576.817 731.29 537.137 730.163 497.469C729.957 491.138 731.078 477.438 728.974 472.286C727.829 471.902 727.787 471.721 726.56 472.052C725.397 473.64 725.346 475.613 725.318 477.518C725.068 494.437 726.162 511.542 726.348 528.481C727.452 590.067 728.194 651.658 728.573 713.252C724.615 713.449 720.628 713.341 716.666 713.323L714.607 498.625C714.598 492.199 716.015 478.829 713.359 473.435C712.251 472.574 712.249 472.516 710.857 472.551C710.651 472.828 710.35 473.055 710.24 473.382C709.38 475.941 710.356 518.12 710.406 524.538L712.169 713.473L698.485 713.555L699.254 549.782L699.303 495.107C699.262 488.389 699.796 481.283 699.344 474.621C699.265 473.454 698.811 472.791 698.114 471.892C696.979 471.327 696.989 471.172 695.801 471.554C694.99 473.27 695.012 475.676 694.961 477.565C694.628 490.022 694.924 502.553 694.882 515.019L694.581 585.056L693.868 713.502L682.594 713.484Z" fill="#B9FBC0"/>
<path d="M280.38 693.408C280.267 667.431 281.251 641.345 281.973 615.377L283.257 555.048L284.318 497.485C284.556 485.656 284.625 473.871 285.546 462.066L337.746 461.973C336.755 545.121 341.186 628.148 341.046 711.266C336.668 711.3 332.261 711.443 327.885 711.302C327.516 653.458 328.557 595.607 328.516 537.764L328.435 493.824C328.412 488.676 328.714 483.489 328.534 478.349C328.477 476.736 328.439 475.089 327.554 473.691C326.452 473.03 326.31 473.004 325.024 473.053C323.801 474.158 323.492 474.98 323.421 476.639C323.19 482.096 323.924 487.897 323.954 493.417L324.047 542.709C324.064 598.879 323.77 655.05 323.166 711.217C318.929 711.586 314.64 711.424 310.39 711.384C310.491 707.131 310.899 702.656 310.59 698.425C311.46 687.043 310.967 675.302 311.021 663.875L311.7 612.941C312.288 579.536 312.528 546.127 312.42 512.717C312.348 501.098 312.736 489.3 312.236 477.705C312.169 476.167 312.216 474.166 311.234 472.928C309.945 472.676 309.894 472.837 308.724 473.479C308.123 474.323 307.73 474.856 307.542 475.899C306.966 479.079 307.78 483.802 307.817 487.116L307.978 520.773C307.975 558.618 307.735 596.463 307.258 634.305C306.907 650.41 306.677 666.517 306.568 682.625C306.531 689.615 306.055 696.96 306.603 703.916L306.442 704.516C306.133 704.712 305.827 704.915 305.503 705.085C302.485 706.665 296.499 705.25 293.388 704.258C292.549 682.111 293.971 659.543 294.411 637.368C295.413 597.657 296.059 557.938 296.351 518.215C296.445 511.316 297.672 477.622 296.186 473.869C294.784 473.47 294.462 473.353 293.064 473.695C292.275 474.707 292.371 475.612 292.313 476.836C291.212 499.874 291.765 523.202 291.501 546.283L289.664 635.752C289.254 658.365 289.449 681.003 288.643 703.609C285.837 702.674 283.271 701.468 280.382 700.682C280.488 698.23 280.491 695.859 280.38 693.408Z" fill="#F1C0E8"/>
<path d="M548.066 516.785C548.706 514.574 547.973 512.448 548.866 510.28C549.812 509.631 549.545 509.549 550.794 509.775C551.694 511.556 551.665 513.44 551.784 515.391C552.066 513.439 552.219 511.452 552.429 509.489C552.661 544.517 551.395 579.544 550.641 614.557L549.047 712.563C552.591 712.577 556.285 712.382 559.808 712.693C565.301 713.204 573.651 714.262 578.916 712.885L578.979 544.133C578.964 521.745 578.01 499.206 578.448 476.843C578.486 474.888 578.534 472.978 579.576 471.271C580.909 471.036 581.132 470.816 582.282 471.487C583.361 479.167 582.609 487.755 582.691 495.573C582.938 513.087 583.05 530.603 583.027 548.119L582.557 712.612C587.53 712.814 592.541 712.693 597.519 712.695C597.525 694.106 596.861 675.527 596.64 656.941L595.099 527.994C594.996 519.795 593.554 476.128 594.908 472.463C595.967 471.409 596.034 471.408 597.521 471.208C597.737 471.414 598.014 471.57 598.168 471.825C598.835 472.928 598.842 507.729 598.961 512.346L601.471 712.996C606.038 713.014 610.613 713.094 615.178 713.027C612.206 670.162 611.382 627.287 609.987 584.355C609.538 570.787 609.005 557.223 608.389 543.662C608.03 535.744 607.321 527.705 607.466 519.781L611.765 520.061L611.975 521.202C612.503 537.258 613.159 553.31 613.941 569.356L616.014 629.694C616.993 655.277 617.305 681.033 618.96 706.576C619.059 708.095 619.032 712.14 620.019 713.26C619.992 714.622 620.113 716.108 619.634 717.399C594.493 716.503 568.964 717.122 543.811 717.467C542.565 715.938 541.749 714.087 540.402 712.514C541.753 712.487 543 712.435 544.332 712.164C545.032 711.36 545.095 710.804 545.172 709.778C545.724 702.402 545.489 694.78 545.607 687.376L546.225 645.667C546.691 602.725 546.948 559.713 548.066 516.785Z" fill="#46B596"/>
<path d="M559.809 712.692L562.223 712.44C562.411 712.191 562.667 711.981 562.786 711.692C563.58 709.774 562.462 529.656 562.453 512.73L562.434 487.699C562.425 484.03 561.996 480.178 562.427 476.542C562.61 474.996 563.151 471.977 564.793 471.32C566.075 472.752 566.173 473.327 566.322 475.264C566.97 483.712 566.305 492.73 566.264 501.222L566.204 551.989C566.673 605.507 566.761 659.028 566.469 712.547C570.558 712.524 574.882 712.213 578.917 712.884C573.652 714.261 565.302 713.203 559.809 712.692Z" fill="url(#paint5_linear_2252_20257)"/>
<path d="M310.591 698.423L309.873 698.516C309.725 702.238 310.19 707.478 309.217 711.027C308.432 710.865 308.44 711.048 308.064 710.427C306.572 707.962 307.374 703.416 307.215 700.582C306.702 701.681 306.681 702.727 306.604 703.914C306.056 696.958 306.532 689.613 306.569 682.623C306.678 666.515 306.908 650.408 307.259 634.303C307.736 596.461 307.976 558.616 307.979 520.771L307.818 487.114C307.781 483.8 306.967 479.077 307.543 475.897C307.731 474.854 308.124 474.321 308.725 473.477C309.895 472.835 309.946 472.674 311.235 472.926C312.217 474.164 312.17 476.165 312.237 477.703C312.737 489.298 312.349 501.096 312.421 512.715C312.529 546.125 312.289 579.534 311.701 612.939L311.022 663.873C310.968 675.3 311.461 687.041 310.591 698.423Z" fill="#76679F"/>
<path d="M474.516 496.162C499.21 486.499 523.592 485.585 548.402 495.891C548.243 500.25 548.024 504.615 547.952 508.976C528.789 500.147 506.032 499.83 486.294 507.088C482.414 508.515 478.482 510.236 474.997 512.472C474.653 507.022 474.519 501.622 474.516 496.162Z" fill="#FCA4D9"/>
<path d="M474.996 512.474C478.481 510.238 482.413 508.517 486.293 507.09C506.031 499.832 528.788 500.149 547.951 508.978C547.98 511.576 547.949 514.189 548.066 516.784C546.948 559.712 546.691 602.724 546.225 645.666L545.607 687.375C545.489 694.779 545.724 702.401 545.172 709.777C545.095 710.803 545.032 711.359 544.332 712.163C543 712.434 541.753 712.486 540.402 712.513L538.049 712.269C535.537 708.489 531.611 705.877 527.154 705.021C522.001 704.047 516.998 705.329 512.795 708.418C510.367 710.203 508.516 712.644 507.178 715.334C501.413 714.067 489.088 715.073 482.553 714.982C481.53 713.697 480.917 713.211 479.361 712.609C479.276 712.576 478.013 712.125 477.879 712.029C475.902 710.622 476.415 533.286 474.996 512.474Z" fill="#98F5E1"/>
<path d="M611.977 521.199C635.502 545.53 657.041 578.886 669.312 610.483C671.548 616.24 673.218 622.141 674.79 628.105C675.667 631.429 676.209 635.435 677.668 638.51C677.489 657.309 677.418 676.11 677.456 694.91C677.45 698.631 678.099 709.827 677.449 712.622C673.656 714.805 669.799 717.48 668.644 721.989C667.611 726.019 669.105 729.59 671.23 732.956L670.829 740.336C664.892 740.419 658.978 740.28 653.044 740.108C645.538 740.065 638.032 740.059 630.527 740.092C630.556 738.122 630.792 735.616 629.979 733.785C629.143 731.903 627.052 730.69 625.227 729.908C624.482 729.589 623.938 729.368 623.263 728.888C623.105 728.775 622.961 728.645 622.81 728.524C622.889 726.544 622.879 724.454 623.166 722.495C623.561 719.793 625.164 717.068 624.48 714.297C622.992 713.255 621.81 713.407 620.021 713.257C619.034 712.137 619.061 708.092 618.962 706.573C617.307 681.03 616.995 655.274 616.016 629.691L613.943 569.353C613.161 553.307 612.505 537.255 611.977 521.199Z" fill="#98F5E1"/>
<path d="M470.681 521.945C471.853 541.034 471.344 560.301 471.562 579.422L472.41 712.492L461.802 712.494C460.78 669.442 460.366 626.377 460.561 583.313C460.593 565.032 460.123 546.607 460.732 528.345C463.199 528.014 467.665 527.878 469.523 526.11C470.789 524.904 470.56 523.558 470.681 521.945Z" fill="#8EECF5"/>
<path d="M410.082 538.059C411.489 541.533 407.311 694.3 406.498 712.248C404.27 712.844 402.497 713.207 401.291 715.36C398.831 719.748 402.186 729.294 399.23 732.209L396.73 732.499C395.301 734.816 398.487 737.935 396.16 740.212C388.659 741.274 372.157 740.686 364.115 740.272C364.183 737.778 364.772 733.723 363.105 731.668C361.819 730.082 359.556 730.104 357.713 730.172C356.972 730.202 356.232 730.244 355.492 730.296C355.529 724.703 354.902 718 355.857 712.543C356.417 712.403 356.563 712.422 357.039 712.095C360.742 709.551 363.894 702.542 365.803 698.654C377.12 675.605 381.545 649.405 383.554 624.004C384.635 610.327 385.023 596.479 387.137 582.908C388.748 576.352 391.259 568.794 394.626 562.962C396.312 560.042 398.364 557.338 400.042 554.416C403.397 548.571 405.709 543.353 410.082 538.059Z" fill="#FFCFD2"/>
<path d="M771.998 738.312C773.838 734.195 765.93 704.387 764.887 696.756C763.341 685.451 763.734 673.438 765.779 662.222C772.305 626.411 808.017 619.012 838.568 613.108C852.935 610.332 867.892 607.785 881.834 603.317C897.584 598.27 909.599 590.193 922.969 580.953C947.856 640.577 959.051 696.15 952.241 760.87C949.987 782.284 945.89 804.236 937.704 824.211C924.203 857.151 903.09 886.465 869.309 900.731C817.602 922.569 786.42 898.424 739.029 885.84C717.842 880.214 695.579 878.213 673.709 877.957C682.374 873.978 692.428 872.148 701.508 869.048C720.391 862.575 738.242 853.412 754.508 841.842C757.651 839.645 762.304 837.029 764.019 833.529C776.237 833.348 848.697 833.97 853.104 831.547C853.54 830.818 853.873 830.479 853.93 829.61C854.208 825.391 848.491 810.353 845.337 807.187C842.359 804.198 839.807 804.349 835.842 804.28C831.51 799.835 818.336 789.592 812.766 786.511C809.702 778.931 806.077 771.541 799.602 766.238C797.166 764.242 796.065 763.461 792.883 763.769C789.277 760.893 774.515 742.661 771.998 738.312Z" fill="#B9FBC0"/>
<path d="M345.744 695.676C346.158 693.983 349.843 688.427 350.868 686.343C353.434 681.122 355.68 675.75 357.596 670.257C359.758 663.87 361.657 657.397 363.289 650.854C368.102 630.848 370.888 611.53 380.418 592.903C382.103 589.61 384.284 585.286 387.136 582.906C385.022 596.477 384.634 610.325 383.553 624.002C381.544 649.403 377.119 675.603 365.802 698.652C363.893 702.54 360.741 709.549 357.038 712.093C356.562 712.42 356.416 712.401 355.856 712.541C352.882 711.508 349.209 711.805 346.065 711.746L345.744 695.676Z" fill="#E3E7FB"/>
<path d="M188.566 645.684C210.34 655.044 228.843 669.643 244.612 687.227C247.405 690.342 250.806 693.764 253.034 697.272C239.195 697.664 225.826 698.931 212.227 701.57L211.835 701.523C201.033 684.509 194.177 664.926 188.566 645.684Z" fill="#FCE2E5"/>
<path d="M279.975 711.445C279.831 705.481 279.859 699.347 280.379 693.406C280.49 695.857 280.487 698.228 280.381 700.68C283.27 701.466 285.836 702.672 288.642 703.607L288.516 711.504L279.975 711.445Z" fill="#FCA4D9"/>
<path d="M212.227 701.571C225.826 698.932 239.195 697.665 253.034 697.273L253.963 697.745C256.391 700.261 265.042 711.664 267.37 712.443C267.578 718.338 267.498 724.233 267.454 730.13C265.417 730.2 263.313 729.974 261.618 731.243C259.83 733.836 260.421 737.569 260.445 740.614C254.609 740.692 248.221 741.93 242.486 741.374C241.693 737.922 227.333 723.772 224.083 719.674C219.798 714.271 215.107 707.879 212.227 701.571Z" fill="#FDE4CF"/>
<path d="M253.963 697.742C261.226 698.068 268.344 699.768 275.573 700.043C275.572 702.411 275.554 704.772 275.66 707.138C275.721 708.483 275.463 709.618 275.094 710.902C273.977 712.086 273.409 711.816 271.826 711.902C270.246 711.93 268.834 711.787 267.37 712.44C265.042 711.661 256.391 700.258 253.963 697.742Z" fill="#FFCFD2"/>
<path d="M430.299 871.156C419.239 874.292 407.958 876.952 396.743 879.486C373.25 885.006 349.313 888.433 325.215 889.727C261.565 892.858 186.383 879.672 131.944 845.091C113.719 833.514 95.9141 817.786 91.1632 795.865C88.4703 783.44 91.3282 770.538 98.1955 759.898C118.578 728.318 176.525 709.021 211.835 701.523L212.227 701.57C215.107 707.878 219.798 714.27 224.083 719.673C227.333 723.771 241.693 737.921 242.486 741.373C240.7 741.554 240.08 741.524 238.563 742.56C235.918 747.152 238.092 759.3 238.045 764.929C233.127 764.876 220.287 763.361 216.689 765.516C213.439 769.488 215.978 782.368 216.092 787.556C211.952 787.607 195.459 786.641 192.87 789.521C189.878 792.849 191.4 805.195 191.483 809.705C185.831 809.683 172.724 808.436 168.059 811.447C166.531 813.555 167.13 828.935 167.631 832.141C167.889 833.798 168.214 835.286 169.519 836.427C177.447 838.578 201.076 837.49 210.175 837.477L301.912 836.83C317.458 836.666 333.355 835.685 348.852 836.433C352.6 839.742 358.189 841.807 362.678 843.959C384.688 854.506 407.395 862.836 430.299 871.156Z" fill="#FBF8CC"/>
<path d="M293.389 704.258C296.5 705.25 302.486 706.665 305.504 705.085C305.828 704.915 306.134 704.712 306.443 704.516L306.355 711.442L293.176 711.402L293.389 704.258Z" fill="#FCA4D9"/>
<path d="M538.05 712.267C538.038 714.143 538.016 716.018 537.983 717.894C536.718 723.437 535.504 727.665 531.33 731.81L530.017 732.562C529.52 732.849 529.029 733.147 528.528 733.428C524.79 735.518 520.686 735.343 516.639 734.133C512.523 732.903 508.521 730.322 506.62 726.345C504.69 722.311 505.701 719.235 507.179 715.332C508.517 712.642 510.368 710.201 512.796 708.416C516.999 705.327 522.002 704.045 527.155 705.019C531.612 705.875 535.538 708.487 538.05 712.267Z" fill="#C68FF3"/>
<path d="M267.369 712.44C268.833 711.787 270.245 711.93 271.825 711.902C270.499 712.481 269.545 712.595 268.925 714.027C266.676 719.22 271.231 727.767 266.094 731.11C264.729 731.188 263.373 731.263 262.005 731.254C261.535 734.051 261.18 736.485 261.462 739.331L261.955 739.99C263.711 737.227 261.186 734.608 265.257 733.627C267.591 733.065 282.401 732.6 284.709 733.429C285.289 733.638 285.763 734.07 286.29 734.39L282.753 734.448C276.587 734.191 270.194 733.895 264.048 734.516C263.913 736.408 263.681 738.34 263.689 740.235C270.08 740.213 276.479 740.124 282.869 740.187C295.941 740.639 308.985 739.855 322.04 740.152C322.817 740.753 323.184 740.968 324.195 741.027C331.672 741.465 339.318 741.127 346.816 741.093C361.063 741.029 375.318 740.898 389.564 741.016L443.319 741.018C453.691 741.042 464.593 741.854 474.883 740.774C471.888 740.593 468.837 740.531 465.871 740.073C470.544 739.98 476.761 741.018 481.236 739.843C482.701 739.458 482.702 738.752 483.284 737.469C483.567 738.422 483.638 738.692 484.342 739.441L486.679 739.542C491.488 741.812 522.776 738.818 531.506 740.363C526.513 741.061 521.02 740.607 515.975 740.549C509.51 740.516 503.046 740.543 496.581 740.631C493.501 740.658 489.69 740.272 486.698 740.893C489.328 741.341 491.38 740.913 493.956 740.91L513.046 741.022L591.711 741.18C602.475 741.211 613.442 740.677 624.178 741.037C625.644 741.087 627.013 741.143 628.39 741.708L628.386 742.297C623.576 743.985 542.991 742.956 530.546 742.965C523.599 742.97 516.693 743.346 509.762 743.431C502.941 743.514 493.87 742.152 487.3 743.92C470.76 744.454 454.114 744.097 437.562 744.147C397.483 744.271 357.319 744.048 317.253 744.692C302.37 744.69 287.466 744.546 272.586 744.779C262.371 744.939 252.146 745.521 241.931 745.493C242.25 752.168 242.521 758.846 242.742 765.526L321.05 764.914C354.38 764.55 387.712 764.405 421.044 764.478L550.084 763.91L631.888 763.545C645.225 763.434 658.568 762.775 671.905 763.073C672.851 763.315 673.697 763.538 674.568 763.982L674.85 764.55C674.011 765.74 673.066 766.283 671.734 766.772L671.628 767.401L450.903 768.465C418.431 768.41 385.959 768.556 353.489 768.904C339.291 769.053 325.089 768.937 310.898 769.472C280.695 769.625 250.412 769.019 220.228 769.436C220.414 775.505 220.497 781.577 220.478 787.65C245.834 787.4 271.186 786.836 296.528 785.958C420.72 786.458 544.914 786.236 669.104 785.292C668.554 786.734 668.044 788.217 667.409 789.622L666.884 789.612C622.802 788.595 578.487 789.874 534.383 789.902C454.034 789.643 373.685 790.034 293.342 791.075C260.939 791.52 228.357 791.592 195.978 792.758L196.4 810.084L312.827 809.82L314.73 809.914C315.377 811.056 316.676 812.748 316.612 814.015L316.122 814.387L223.398 814.611C206.259 814.659 189.071 814.335 171.939 814.793C171.994 820.712 172.007 826.612 172.491 832.516C207.538 832.683 242.586 832.665 277.632 832.463C298.962 832.403 320.401 832.688 341.716 831.987C351.277 832.33 361.013 831.887 370.592 831.811L426.566 831.471C473.705 831.269 520.987 831.718 568.099 830.444C576.327 831.156 584.844 830.636 593.107 830.552L637.618 829.984L758.502 829.132C758.706 829.268 758.908 829.41 759.116 829.541C760.589 830.467 762.158 829.939 763.593 831.057L763.44 831.028C762.264 832.796 760.415 832.904 758.442 833.505L594.156 834.857C581.577 835.001 568.972 834.78 556.398 835.082C546.338 834.82 536.216 835.241 526.149 835.304C501.598 835.394 477.049 835.614 452.501 835.964L386.814 836.127C374.167 836.147 361.49 835.91 348.851 836.431C333.354 835.683 317.457 836.664 301.911 836.828L210.174 837.475C201.075 837.488 177.446 838.576 169.518 836.425C168.213 835.284 167.888 833.796 167.63 832.139C167.129 828.933 166.53 813.553 168.058 811.445C172.723 808.434 185.83 809.681 191.482 809.703C191.399 805.193 189.877 792.847 192.869 789.519C195.458 786.639 211.951 787.605 216.091 787.554C215.977 782.366 213.438 769.486 216.688 765.514C220.286 763.359 233.126 764.874 238.044 764.927C238.091 759.298 235.917 747.15 238.562 742.558C240.079 741.522 240.699 741.552 242.485 741.371C248.22 741.927 254.608 740.689 260.444 740.611C260.42 737.566 259.829 733.833 261.617 731.24C263.312 729.971 265.416 730.197 267.453 730.127C267.497 724.23 267.577 718.335 267.369 712.44Z" fill="#687C8E"/>
<path d="M537.983 717.897C538.016 716.021 538.038 714.146 538.05 712.27L540.403 712.514C541.75 714.087 542.566 715.938 543.812 717.467C545.353 721.305 545.445 725.049 543.808 728.9C543.361 729.952 542.795 730.962 542.242 731.96C540.761 732.873 538.935 733.762 537.733 735.023C536.555 735.406 535.845 735.567 535.213 736.766C534.625 737.883 534.945 738.357 535.44 739.356C536.984 740.164 538.459 740.403 540.199 740.469C548.421 740.781 556.838 740.168 565.093 740.191L607.327 740.233C613.125 740.23 621.044 741.193 626.553 739.782C627.937 739.807 628.499 739.527 629.568 740.507C629.457 741.73 629.137 742.553 628.668 743.67C604.948 744.12 581.179 743.696 557.451 743.756C534.075 743.814 510.672 744.387 487.301 743.924C493.871 742.156 502.942 743.518 509.763 743.435C516.694 743.35 523.6 742.974 530.547 742.969C542.992 742.96 623.577 743.989 628.387 742.301L628.391 741.712C627.014 741.147 625.645 741.091 624.179 741.041C613.443 740.681 602.476 741.215 591.712 741.184L513.047 741.026L493.957 740.914C491.381 740.917 489.329 741.345 486.699 740.897C489.691 740.276 493.502 740.662 496.582 740.635C503.047 740.547 509.511 740.52 515.976 740.553C521.021 740.611 526.514 741.065 531.507 740.367C531.451 737.472 531.533 735.617 533.289 733.224C533.67 732.991 534.049 732.755 534.427 732.518C537.098 730.83 539.837 728.952 540.444 725.6C540.983 722.619 539.563 720.282 537.983 717.897Z" fill="#536D78"/>
<path d="M620.02 713.258C621.809 713.408 622.991 713.256 624.479 714.298C625.163 717.069 623.56 719.794 623.165 722.496C622.878 724.455 622.888 726.545 622.809 728.525C621.702 729.232 620.78 729.881 619.458 730.119C619.51 726.331 619.494 722.543 619.41 718.757L619.635 717.397C620.114 716.106 619.993 714.62 620.02 713.258Z" fill="#536D78"/>
<path d="M482.555 714.981C489.09 715.072 501.415 714.066 507.18 715.333C505.702 719.236 504.691 722.312 506.621 726.346C508.522 730.323 512.524 732.904 516.64 734.134C520.687 735.344 524.791 735.519 528.529 733.429C529.03 733.148 529.521 732.85 530.018 732.563L531.331 731.811L533.29 733.222C531.534 735.615 531.452 737.47 531.508 740.365C522.778 738.82 491.49 741.814 486.681 739.544C486.845 736.405 488.852 734.095 488.716 732.154C487.237 731.211 485.185 731.441 483.471 731.423C483.253 725.938 483.107 720.445 482.555 714.981Z" fill="#A3C4F3"/>
<path d="M271.168 716.422C274.603 716.431 277.99 716.233 281.415 715.984C283.781 720.289 287.243 725.25 288.426 730.022C283.99 729.975 276.553 731.444 272.859 729.028C270.374 725.822 271.144 720.333 271.168 716.422Z" fill="#FFC5A7"/>
<path d="M281.414 715.986C294.491 715.796 307.569 715.75 320.647 715.849C328.096 715.866 335.864 715.487 343.276 716.043C343.575 716.143 343.872 716.25 344.172 716.345C346.364 717.036 348.498 716.268 350.579 717.373L351.034 718.268L350.632 719.281L349.292 718.256C346.897 718.622 341.025 727.225 339.312 729.338C336.813 729.404 334.255 729.356 331.769 729.606C317.316 729.475 302.881 730.086 288.425 730.024C287.242 725.252 283.78 720.291 281.414 715.986Z" fill="#F1C0E8"/>
<path d="M343.277 716.042C346.034 715.984 348.791 715.898 351.548 715.949C351.603 720.611 351.826 725.274 351.867 729.932C345.268 729.896 338.317 730.288 331.77 729.605C334.256 729.355 336.814 729.403 339.313 729.337C341.026 727.224 346.898 718.621 349.293 718.255L350.633 719.28L351.035 718.267L350.58 717.372C348.499 716.267 346.365 717.035 344.173 716.344C343.873 716.249 343.576 716.142 343.277 716.042Z" fill="#FCA4D9"/>
<path d="M404.019 731.487C403.827 726.513 404.211 721.635 404.763 716.696C428.751 716.654 452.966 715.933 476.924 716.786C478.551 721.648 478.659 726.335 478.865 731.4C453.917 731.581 428.967 731.61 404.019 731.487Z" fill="#CFBAF0"/>
<path d="M543.812 717.465C568.965 717.12 594.494 716.501 619.635 717.397L619.41 718.757C618.767 722.986 619.031 727.435 619.095 731.706C593.478 731.98 567.86 732.064 542.242 731.958C542.795 730.96 543.361 729.95 543.808 728.898C545.445 725.047 545.353 721.303 543.812 717.465Z" fill="#DFF1FA"/>
<path d="M685.765 729.884C682.129 730.168 676.838 730.376 673.72 728.247C672.683 727.539 671.859 726.456 671.748 725.173C671.616 723.635 672.604 722.248 673.691 721.265C675.599 719.538 678.254 718.456 680.762 717.983C688.708 716.486 706.19 717.453 715.044 717.584C705.065 718.471 694.778 718.041 684.755 718.025L684.636 718.631C683.993 721.759 680.869 725.686 680.967 728.435C682.171 729.899 683.94 729.706 685.765 729.884Z" fill="#9AD9C4"/>
<path d="M715.044 717.587C725.135 717.553 735.237 717.413 745.326 717.53C748.411 719.286 751.83 721.47 753.109 724.998C753.425 725.869 753.28 726.616 753.131 727.493C752.492 728.415 752.064 729.14 750.903 729.386C745.725 730.484 738.752 729.808 733.382 729.869C717.51 729.971 701.637 729.977 685.765 729.887C683.94 729.709 682.171 729.902 680.967 728.438C680.869 725.689 683.993 721.762 684.636 718.634L684.755 718.028C694.778 718.044 705.065 718.474 715.044 717.587Z" fill="#98F5E1"/>
<path d="M537.983 717.895C539.563 720.28 540.983 722.617 540.444 725.598C539.837 728.95 537.098 730.828 534.427 732.516C534.049 732.753 533.67 732.988 533.289 733.221L531.33 731.81C535.504 727.665 536.718 723.438 537.983 717.895Z" fill="#DFF1FA"/>
<path d="M619.094 731.707C619.03 727.436 618.766 722.987 619.409 718.758C619.493 722.544 619.509 726.332 619.457 730.12L619.875 731.521C622.386 732.388 624.122 732.779 625.7 735.017C606.907 735.326 588.111 735.46 569.316 735.422C558.841 735.419 548.181 735.761 537.732 735.022C538.934 733.761 540.76 732.872 542.241 731.959C567.859 732.065 593.477 731.981 619.094 731.707Z" fill="#5396A1"/>
<path d="M619.457 730.117C620.779 729.879 621.701 729.23 622.808 728.523C622.959 728.644 623.103 728.774 623.261 728.887C623.936 729.367 624.48 729.588 625.225 729.907C627.05 730.689 629.141 731.902 629.977 733.784C630.79 735.615 630.554 738.121 630.525 740.091C638.03 740.058 645.536 740.064 653.042 740.107C652.905 740.16 652.77 740.217 652.631 740.266C647.292 742.142 633.663 739.554 630.141 741.751C636 745.772 646.514 740.24 651.994 743.978C644.217 743.934 636.442 743.829 628.667 743.666C629.136 742.549 629.456 741.726 629.567 740.503C628.498 739.523 627.936 739.803 626.552 739.778C626.504 738.028 626.689 736.484 625.7 735.014C624.122 732.776 622.386 732.385 619.875 731.518L619.457 730.117Z" fill="#548A89"/>
<path d="M264.049 734.517C270.195 733.896 276.588 734.192 282.754 734.449C282.791 736.362 282.81 738.276 282.87 740.188C276.48 740.125 270.081 740.214 263.69 740.236C263.682 738.341 263.914 736.409 264.049 734.517Z" fill="#FFC5A7"/>
<path d="M286.291 734.391C290.171 734.822 294.412 734.554 298.324 734.547C309.482 734.525 320.623 733.971 331.779 734.046C330.235 734.637 330.089 734.687 329.16 736.042C329.005 737.451 328.944 738.615 329.096 740.022L322.041 740.153C308.986 739.856 295.942 740.64 282.87 740.188C282.81 738.276 282.791 736.362 282.754 734.449L286.291 734.391Z" fill="#FFCFD2"/>
<path d="M331.779 734.047C341.058 734.053 350.533 733.659 359.781 734.38L359.868 740.177C349.611 740.037 339.354 739.986 329.096 740.023C328.944 738.616 329.005 737.452 329.16 736.043C330.089 734.688 330.235 734.638 331.779 734.047Z" fill="#FCA4D9"/>
<path d="M676.457 734.184C693.858 734.442 711.261 734.581 728.664 734.599C734.214 734.583 747.442 733.463 752.156 734.637L752.851 736.249C752.674 737.541 752.75 739.309 751.912 740.303C743.08 741.076 733.855 740.553 724.965 740.547L676.571 740.491L676.457 734.184Z" fill="#98F5E1"/>
<path d="M465.872 740.076C451.04 740.284 436.206 740.405 421.372 740.44C415.793 740.456 409.444 741.192 403.959 740.582C402.757 740.448 402.246 740.197 401.515 739.268C401.466 737.814 401.213 736.927 401.969 735.659C407.509 734.908 479.763 734.58 481.456 735.075C482.659 735.427 482.798 736.445 483.285 737.472C482.703 738.755 482.702 739.461 481.237 739.846C476.762 741.021 470.545 739.983 465.872 740.076Z" fill="#90DBF4"/>
<path d="M626.554 739.78C621.045 741.191 613.126 740.228 607.328 740.231L565.094 740.189C556.839 740.166 548.422 740.779 540.2 740.467C538.46 740.401 536.985 740.162 535.441 739.354C534.946 738.355 534.626 737.881 535.214 736.764C535.846 735.565 536.556 735.404 537.734 735.021C548.183 735.76 558.843 735.418 569.318 735.421C588.113 735.459 606.909 735.325 625.702 735.016C626.691 736.486 626.506 738.03 626.554 739.78Z" fill="#98F5E1"/>
<path d="M752.852 736.25C753.017 737.839 752.794 739.199 753.93 740.364C754.833 740.26 755.768 740.2 756.661 740.035C759.246 741.414 765.46 740.537 768.417 740.111L770.285 744.869C757.803 744.029 744.952 744.9 732.421 744.915C713.965 744.938 695.519 744.401 677.063 744.554L676.595 744.438C677.052 743 676.822 741.932 676.572 740.492L724.966 740.548C733.856 740.554 743.081 741.077 751.913 740.304C752.751 739.31 752.675 737.542 752.852 736.25Z" fill="#46B596"/>
<path d="M768.418 740.113L771.999 738.312C774.516 742.661 789.278 760.894 792.884 763.77C790.576 764.938 789.005 764.532 786.598 763.98C785.685 760.477 773.362 748.597 770.286 744.871L768.418 740.113Z" fill="#1AD49A"/>
<path d="M487.301 743.922C510.672 744.385 534.075 743.812 557.451 743.754C581.179 743.694 604.948 744.118 628.668 743.668C636.443 743.831 644.218 743.936 651.995 743.98C660.172 744.194 668.417 744.604 676.595 744.438L677.063 744.554C677.149 750.705 676.917 756.708 676.395 762.84L671.906 763.075C658.569 762.777 645.226 763.436 631.889 763.547L550.085 763.912L421.045 764.48C387.713 764.407 354.381 764.552 321.051 764.916C321.103 762.149 321.045 759.397 320.97 756.631C319.097 753.352 316.461 751.633 314.14 748.819C313.229 747.715 313.027 747.134 313.127 745.735C314.486 744.691 315.571 744.85 317.254 744.694C357.32 744.05 397.484 744.273 437.563 744.149C454.115 744.099 470.761 744.456 487.301 743.922Z" fill="url(#paint6_linear_2252_20257)"/>
<path d="M241.932 745.495C252.147 745.523 262.372 744.941 272.587 744.781C287.467 744.548 302.371 744.692 317.254 744.694C315.571 744.85 314.486 744.691 313.127 745.735C313.027 747.134 313.229 747.715 314.14 748.819C316.461 751.633 319.097 753.352 320.97 756.631C321.045 759.397 321.103 762.149 321.051 764.916L242.743 765.528C242.522 758.848 242.251 752.17 241.932 745.495Z" fill="#FBF8CC"/>
<path d="M677.062 744.554C695.518 744.401 713.965 744.938 732.421 744.915C744.952 744.9 757.802 744.029 770.284 744.869C773.36 748.595 785.683 760.475 786.596 763.978C765.471 763.672 744.221 763.923 723.086 763.945C719.185 763.278 714.898 763.412 710.94 763.257C699.43 762.867 687.912 762.728 676.395 762.84C676.917 756.708 677.149 750.705 677.062 744.554Z" fill="#98F5E1"/>
<path d="M671.906 763.073L676.395 762.838C687.912 762.726 699.43 762.865 710.94 763.255C714.898 763.41 719.185 763.276 723.086 763.943C719.435 764.353 715.853 763.908 712.299 764.265L713.697 764.697L713.8 765.685L714.544 766.203L714.983 767.216C718.468 768.451 723.365 765.864 726.293 768.427C718.196 768.615 709.92 767.935 701.816 767.67C692.859 767.378 683.879 767.482 674.918 767.498L671.629 767.401L671.735 766.772C673.067 766.283 674.012 765.74 674.851 764.55L674.569 763.982C673.698 763.538 672.852 763.315 671.906 763.073Z" fill="#46B596"/>
<path d="M792.883 763.768C796.065 763.46 797.166 764.241 799.602 766.237C806.077 771.54 809.702 778.93 812.766 786.51C809.381 783.821 801.419 785.689 796.953 785.399C800.258 785.006 803.771 785.154 807.107 785.09C803.836 777.62 800.573 773.668 794.243 768.465C771.568 768.621 748.967 769.511 726.293 768.429C723.365 765.866 718.468 768.453 714.983 767.218L714.544 766.205L713.8 765.687L713.697 764.699L712.299 764.267C715.853 763.91 719.435 764.355 723.086 763.945C744.221 763.923 765.472 763.672 786.597 763.978C789.004 764.53 790.575 764.936 792.883 763.768Z" fill="url(#paint7_linear_2252_20257)"/>
<path d="M310.899 769.473C325.09 768.938 339.292 769.054 353.49 768.905C385.96 768.557 418.432 768.411 450.904 768.466L671.629 767.402L674.918 767.499C673.997 770.798 670.63 783.038 669.105 785.293C544.915 786.237 420.721 786.459 296.529 785.959C297.636 783.898 301.977 781.916 304.032 780.422C308.204 777.388 310.094 774.57 310.899 769.473Z" fill="url(#paint8_linear_2252_20257)"/>
<path d="M674.919 767.5C683.88 767.484 692.859 767.38 701.816 767.672C709.92 767.937 718.197 768.617 726.294 768.429C748.968 769.511 771.568 768.621 794.243 768.465C800.573 773.668 803.836 777.62 807.107 785.09C803.771 785.154 800.258 785.006 796.953 785.399C788.665 784.996 780.099 785.554 771.786 785.655C737.595 786.157 703.302 785.453 669.105 785.294C670.63 783.039 673.998 770.799 674.919 767.5Z" fill="#98F5E1"/>
<path d="M220.229 769.438C250.413 769.021 280.695 769.627 310.898 769.474C310.093 774.571 308.204 777.389 304.032 780.423C301.977 781.917 297.636 783.899 296.529 785.96C271.187 786.838 245.835 787.402 220.479 787.652C220.498 781.579 220.415 775.507 220.229 769.438Z" fill="url(#paint9_linear_2252_20257)"/>
<path d="M771.786 785.655C780.099 785.554 788.665 784.996 796.953 785.399C801.419 785.689 809.381 783.821 812.766 786.51C818.336 789.591 831.51 799.834 835.842 804.279C839.807 804.348 842.359 804.197 845.337 807.186C848.491 810.352 854.208 825.39 853.93 829.609C853.873 830.478 853.54 830.817 853.104 831.546C848.697 833.969 776.237 833.347 764.019 833.528L758.443 833.507C760.416 832.906 762.265 832.798 763.441 831.03L763.594 831.059C762.159 829.941 760.59 830.469 759.117 829.543C758.909 829.412 758.707 829.27 758.503 829.134L770.39 828.807C779.567 828.388 788.812 828.539 797.999 828.427C815.068 828.138 832.139 827.984 849.21 827.964C847.63 821.584 845.159 815.062 841.601 809.521C823.14 809.056 804.508 809.815 786.037 809.984L776.985 809.931C778.418 809.801 779.624 809.564 781.008 809.169C779.26 808.484 775.649 808.682 773.748 808.924C773.505 808.955 773.262 808.992 773.019 809.026L772.66 808.303L773.05 807.315C776.204 804.996 780.169 806.721 783.647 805.749L783.181 805.181L791.01 805.08L830.437 805.012C824.322 799.673 816.574 793.849 809.412 789.997L799.854 790.099C790.645 790.432 781.345 790.724 772.133 790.42C769.129 789.335 765.988 790.665 763.306 789.674C761.784 789.111 761.443 788.131 760.711 786.846C764.148 786.067 767.706 786.715 771.236 785.807C771.42 785.76 771.603 785.706 771.786 785.655Z" fill="#1AD49A"/>
<path d="M669.105 785.293C703.302 785.452 737.595 786.156 771.786 785.654C771.603 785.705 771.42 785.759 771.236 785.806C767.706 786.714 764.148 786.066 760.711 786.845C761.443 788.13 761.784 789.11 763.306 789.673C765.988 790.664 769.129 789.334 772.133 790.419C752.031 790.957 731.851 790.163 711.744 789.978C697.04 789.842 682.076 790.549 667.41 789.623C668.045 788.218 668.555 786.735 669.105 785.293Z" fill="#46B596"/>
<path d="M293.344 791.078C373.687 790.037 454.036 789.646 534.385 789.905C578.489 789.877 622.804 788.598 666.886 789.615C663.794 795.467 655.455 801.633 650.75 806.497C639.404 808.681 626.707 807.969 615.15 808.024L561.152 808.271L439.312 809.401C397.846 809.445 356.177 808.771 314.732 809.917L312.829 809.823C306.188 804.182 298.615 798.034 293.344 791.078Z" fill="#CFBAF0"/>
<path d="M666.886 789.613L667.411 789.623C682.077 790.549 697.041 789.842 711.745 789.978C731.852 790.163 752.032 790.957 772.134 790.419C781.346 790.723 790.646 790.431 799.855 790.098C798.843 795.804 792.916 799.366 791.011 805.079L783.182 805.18C756.684 805.14 730.187 805.274 703.691 805.582C686.044 805.843 668.401 806.649 650.75 806.495C655.455 801.631 663.794 795.465 666.886 789.613Z" fill="#98F5E1"/>
<path d="M799.854 790.098L809.412 789.996C816.574 793.848 824.322 799.672 830.437 805.011L791.01 805.079C792.915 799.366 798.842 795.804 799.854 790.098Z" fill="#98F5E1"/>
<path d="M195.979 792.761C228.358 791.595 260.939 791.523 293.342 791.078C298.613 798.034 306.187 804.182 312.828 809.823L196.401 810.087L195.979 792.761Z" fill="#FBF8CC"/>
<path d="M650.749 806.498C668.4 806.652 686.042 805.846 703.689 805.585C730.185 805.277 756.683 805.143 783.181 805.183L783.646 805.751C780.168 806.723 776.203 804.998 773.049 807.317L772.659 808.305L773.018 809.028C773.261 808.994 773.504 808.957 773.747 808.926C775.648 808.684 779.259 808.486 781.007 809.171C779.623 809.566 778.417 809.803 776.984 809.933C744.439 809.805 711.894 810.068 679.356 810.721C667.222 811.038 654.638 810.786 642.566 811.914L463.601 813.461C425.695 813.337 387.789 813.594 349.888 814.234C338.774 814.414 327.529 814.047 316.438 814.506L316.122 814.391L316.612 814.019C316.676 812.752 315.377 811.06 314.73 809.918C356.175 808.772 397.844 809.446 439.31 809.402L561.15 808.272L615.148 808.025C626.705 807.97 639.403 808.682 650.749 806.498Z" fill="url(#paint10_linear_2252_20257)"/>
<path d="M786.038 809.983C804.509 809.814 823.141 809.055 841.602 809.52C845.16 815.061 847.631 821.583 849.211 827.963C832.14 827.983 815.069 828.137 798 828.426C788.813 828.538 779.568 828.387 770.391 828.806C773.215 821.755 781.237 815.917 786.038 809.983Z" fill="#B9FBC0"/>
<path d="M642.567 811.911C654.639 810.783 667.223 811.035 679.357 810.718C711.895 810.065 744.44 809.802 776.985 809.93L786.037 809.983C781.236 815.917 773.214 821.755 770.39 828.806L758.503 829.133L637.619 829.985L593.108 830.553C584.845 830.637 576.328 831.157 568.1 830.445C572.811 827.764 580.544 827.273 585.917 826.272C597.007 824.205 634.903 817.749 642.567 811.911Z" fill="#98F5E1"/>
<path d="M316.439 814.502C327.53 814.043 338.775 814.41 349.889 814.23C387.79 813.59 425.696 813.333 463.602 813.457L642.567 811.91C634.903 817.748 597.007 824.204 585.917 826.271C580.544 827.272 572.811 827.763 568.1 830.444C520.988 831.718 473.706 831.269 426.567 831.471L370.593 831.811C361.014 831.887 351.278 832.33 341.717 831.987C335.739 825.748 321.33 821.424 316.439 814.502Z" fill="#F1C0E8"/>
<path d="M171.939 814.797C189.071 814.339 206.259 814.663 223.398 814.615L316.122 814.391L316.438 814.506C321.329 821.428 335.738 825.752 341.716 831.991C320.401 832.692 298.962 832.407 277.632 832.467C242.586 832.669 207.538 832.687 172.491 832.52C172.007 826.616 171.994 820.716 171.939 814.797Z" fill="#FBF8CC"/>
<path d="M556.399 835.085C568.973 834.783 581.578 835.004 594.157 834.86L758.443 833.508L764.019 833.529C762.304 837.029 757.651 839.645 754.508 841.842C738.242 853.412 720.391 862.575 701.508 869.048C692.428 872.148 682.374 873.978 673.709 877.957C667.788 878.334 661.658 879.982 655.82 881.104C644.738 883.234 633.539 885.432 622.353 886.921C563.268 894.783 487.799 894.69 432.002 871.697C436.394 869.145 460.537 864.365 467.767 862.443C490.251 856.464 512.557 849.181 534.637 841.877C541.782 839.513 549.492 838.013 556.399 835.085Z" fill="#98F5E1"/>
<path d="M348.852 836.434C361.491 835.913 374.168 836.15 386.815 836.13L452.502 835.967C477.05 835.617 501.599 835.397 526.15 835.307C536.217 835.244 546.339 834.823 556.399 835.085C549.492 838.013 541.782 839.513 534.637 841.877C512.557 849.181 490.251 856.464 467.767 862.443C460.537 864.365 436.394 869.145 432.002 871.697L430.299 871.157C407.395 862.837 384.688 854.507 362.678 843.96C358.189 841.808 352.6 839.743 348.852 836.434Z" fill="#F1C0E8"/>
<defs>
<linearGradient id="paint0_linear_2252_20257" x1="793.355" y1="549.086" x2="208.346" y2="432.781" gradientUnits="userSpaceOnUse">
<stop stop-color="#52A778"/>
<stop offset="1" stop-color="#7D4DA9"/>
</linearGradient>
<linearGradient id="paint1_linear_2252_20257" x1="725.954" y1="450.096" x2="380.755" y2="254.583" gradientUnits="userSpaceOnUse">
<stop stop-color="#8FFFED"/>
<stop offset="1" stop-color="#E9DCFF"/>
</linearGradient>
<linearGradient id="paint2_linear_2252_20257" x1="576.678" y1="456.028" x2="446.822" y2="250.973" gradientUnits="userSpaceOnUse">
<stop stop-color="#4F977F"/>
<stop offset="1" stop-color="#77619A"/>
</linearGradient>
<linearGradient id="paint3_linear_2252_20257" x1="430.122" y1="498.628" x2="168.644" y2="581.205" gradientUnits="userSpaceOnUse">
<stop stop-color="#F1CFFC"/>
<stop offset="1" stop-color="#E6E0FB"/>
</linearGradient>
<linearGradient id="paint4_linear_2252_20257" x1="393.46" y1="577.146" x2="480.817" y2="595.544" gradientUnits="userSpaceOnUse">
<stop stop-color="#F1D8FF"/>
<stop offset="1" stop-color="#B9EFFE"/>
</linearGradient>
<linearGradient id="paint5_linear_2252_20257" x1="543.686" y1="595.772" x2="584.73" y2="588.745" gradientUnits="userSpaceOnUse">
<stop stop-color="#3CBF96"/>
<stop offset="1" stop-color="#56A99F"/>
</linearGradient>
<linearGradient id="paint6_linear_2252_20257" x1="507.431" y1="702.507" x2="481.725" y2="803.878" gradientUnits="userSpaceOnUse">
<stop stop-color="#B7E9FB"/>
<stop offset="1" stop-color="#E2E3FF"/>
</linearGradient>
<linearGradient id="paint7_linear_2252_20257" x1="751.2" y1="789.51" x2="774.907" y2="751.384" gradientUnits="userSpaceOnUse">
<stop stop-color="#75B38D"/>
<stop offset="1" stop-color="#00CC9B"/>
</linearGradient>
<linearGradient id="paint8_linear_2252_20257" x1="501.688" y1="722.335" x2="472.97" y2="830.072" gradientUnits="userSpaceOnUse">
<stop stop-color="#B9F3FA"/>
<stop offset="1" stop-color="#ECD5FF"/>
</linearGradient>
<linearGradient id="paint9_linear_2252_20257" x1="221.153" y1="786.607" x2="306.856" y2="764.985" gradientUnits="userSpaceOnUse">
<stop stop-color="#FEF4B5"/>
<stop offset="1" stop-color="#FDE5CB"/>
</linearGradient>
<linearGradient id="paint10_linear_2252_20257" x1="544.863" y1="797.945" x2="544.05" y2="821.02" gradientUnits="userSpaceOnUse">
<stop stop-color="#509E7F"/>
<stop offset="1" stop-color="#745EAC"/>
</linearGradient>
</defs>
</svg>
