<svg width="1024" height="1024" viewBox="0 0 1024 1024" fill="none" xmlns="http://www.w3.org/2000/svg">
<path d="M127.734 651.359C113.684 640.439 96.7935 618.089 87.345 602.969C73.2062 580.344 65.5162 558.391 57.9707 533.506C41.1661 478.085 40.4405 424.317 55.7282 368.503C62.1629 347.428 70.5597 322.428 81.6277 303.194C115.392 244.52 161.499 187.696 219.205 151.933C291.249 107.284 369.607 109.075 442.685 149.369C479.125 169.461 511.339 194.857 548.656 213.306C563.263 220.494 585.501 226.559 601.463 230.543C598.085 232.228 579.745 237.003 574.556 238.771C545.022 248.833 516.186 259.783 487.442 271.948C484.488 273.199 472.128 277.924 470.312 279.398L470.102 280.812C449.537 284.279 428.472 287.761 408.028 291.761C373.639 298.489 339.402 305.664 304.911 311.94L276.503 361.054C273.735 365.866 270.975 370.693 268.317 375.567C260.406 390.069 250.973 403.679 241.783 417.382L241.227 417.5C233.885 418.996 215.219 419.583 210.485 423.322C208.11 427.562 208.796 436.146 210.162 440.82C213.933 453.719 224.805 458.318 236.813 460.202C236.59 464.713 236.523 468.056 236.683 472.562C241.454 472.333 245.751 472.058 250.513 471.622C250.537 476.856 251.304 504.36 250.1 506.243C248.376 506.766 247.776 506.552 247.105 508.182C245.954 510.98 246.019 514.029 245.613 516.918C245.276 519.314 247.625 523.879 248.689 526.244C250.06 526.634 250.77 526.767 252.147 527.009C253.207 528.951 252.104 557.044 252.081 561.604L251.48 673.409C246.206 674.514 240.758 676.436 235.551 677.346C220.92 679.903 201.723 684.31 187.125 683.726C186.824 678.908 186.63 674.287 186.474 669.472C244.512 656.524 245.35 583.321 212.826 544.805C192.476 519.748 156.954 515.589 132.107 536.803C109.974 555.7 102.087 585.596 108.883 613.552C112.527 628.54 118.324 637.118 128.207 648.417C128.428 649.584 128.499 649.345 128.361 650.467L127.878 650.698L127.734 651.359Z" fill="#F1C0E8"/>
<path d="M601.463 230.543C668.245 213.608 742.397 187.107 808.05 225.565C831.357 239.518 850.534 257.633 870.176 275.96C920.881 323.273 967.516 378.902 983.853 448.003C1001.97 524.623 989.764 619.069 928.788 674.107C913.941 686.779 898.243 692.745 879.423 697.562C876.069 698.42 869.45 699.965 866.286 700.206C867.643 685.228 869.167 672.538 872.73 657.927C916.063 649.696 939.748 605.678 932.25 564.008C925.112 524.337 892.152 491.73 849.989 499.449C807.272 507.271 793.208 568.89 799.774 604.976C804.984 633.607 827.535 652.889 855.526 658.2C855.02 673.145 854.546 688.833 854.481 703.767C848.63 704.2 842.654 705.911 836.844 707.029C825.662 709.181 814.163 711.447 802.82 712.491C800.667 712.689 795.331 713.066 793.288 712.752C791.649 709.806 790.381 711.564 788.055 709.596C787.562 704.656 788.314 685.77 788.368 679.423L788.962 608.794C789.161 583.761 789.62 558.718 789.11 533.688C789.06 531.197 788.995 528.838 789.294 526.357C790.092 525.825 790.929 525.419 791.796 525.014C792.724 523.253 791.662 519.878 792.126 519.583C795.011 517.75 794.894 512.787 795.489 508.874C793.506 508.409 791.164 508.082 789.129 507.746C789.411 495.955 789.372 483.763 789.482 471.94L800.976 471.998C808.405 461.129 814.151 455.576 825.673 449.8C825.619 444.152 824.313 435.209 823.56 429.435C812.491 423.009 799.945 416.114 789.261 409.285C787.798 401.019 784.044 392.293 781.069 384.413L771.165 357.746C768.97 351.86 752.359 308.086 750.366 306.696C721.373 286.459 690.771 269.132 663.109 246.266C657.086 246.699 648.575 248.563 642.412 249.711L609.878 255.598L470.102 280.812L470.312 279.398C472.128 277.924 484.488 273.199 487.442 271.948C516.186 259.783 545.022 248.833 574.556 238.771C579.745 237.003 598.085 232.228 601.463 230.543Z" fill="#98F5E1"/>
<path d="M304.912 311.94C339.403 305.664 373.64 298.489 408.029 291.761C428.473 287.761 449.538 284.279 470.103 280.812L609.879 255.598L642.413 249.711C648.576 248.563 657.087 246.699 663.11 246.266C690.772 269.132 721.374 286.459 750.367 306.696C752.36 308.086 768.971 351.86 771.166 357.746L781.07 384.413C784.045 392.293 787.799 401.019 789.262 409.285C799.946 416.114 812.492 423.009 823.561 429.435C824.314 435.209 825.62 444.152 825.674 449.8C814.152 455.576 808.406 461.129 800.977 471.998L789.483 471.94C789.373 483.763 789.412 495.955 789.13 507.746C791.165 508.082 793.507 508.409 795.49 508.874C794.895 512.787 795.012 517.75 792.127 519.583C791.663 519.878 792.725 523.253 791.797 525.014C790.93 525.419 790.093 525.825 789.295 526.357C788.996 528.838 789.061 531.197 789.111 533.688C789.621 558.718 789.162 583.761 788.963 608.794L788.369 679.423C788.315 685.77 787.563 704.656 788.056 709.596C790.382 711.564 791.65 709.806 793.289 712.752C792.562 724.238 792.967 740.591 792.911 752.439C773.296 763.173 750.17 770.978 729.312 778.881C717.921 783.197 700.858 787.942 690.856 794.553C686.161 792.796 675.074 791.176 669.817 790.298C643.286 785.868 616.418 784.339 589.722 781.564C585.736 781.149 570.687 779.939 567.507 779.187C548.194 777.269 528.297 775.909 508.907 774.711C502.344 778.871 476.802 791.947 472.139 791.122C456.047 788.276 345.846 777.028 342.537 773.473C342.036 769.437 347.079 762.981 349.338 759.681C344.045 759.305 336.653 758.131 331.224 757.459L298.525 753.643L268.226 750.273C261.88 749.568 254.168 748.911 248.056 747.657C247.782 742.973 247.159 698.407 247.783 696.431C248.599 696.061 248.983 695.906 249.853 695.615L250.588 695.377C251.848 692.883 251.478 677.319 251.481 673.409L252.082 561.604C252.105 557.044 253.208 528.951 252.148 527.009C250.771 526.767 250.061 526.634 248.69 526.244C247.626 523.879 245.277 519.314 245.614 516.918C246.02 514.029 245.955 510.98 247.106 508.182C247.777 506.552 248.377 506.766 250.101 506.243C251.305 504.36 250.538 476.856 250.514 471.622C245.752 472.058 241.455 472.333 236.684 472.562C236.524 468.056 236.591 464.713 236.814 460.202C224.806 458.318 213.934 453.719 210.163 440.82C208.797 436.146 208.111 427.562 210.486 423.322C215.22 419.583 233.886 418.996 241.228 417.5L241.784 417.382C250.974 403.679 260.407 390.069 268.318 375.567C270.976 370.693 273.736 365.866 276.504 361.054L304.912 311.94ZM458.23 285.064C452.475 285.601 446.598 286.7 440.894 287.663C399.883 294.589 359.258 303.709 318.361 311.267C314.328 312.012 310.287 312.751 306.219 313.276C285.343 348.88 267.071 382.808 244.061 417.158C281.475 411.473 320.552 409.949 358.114 405.005C363.121 404.578 368.196 404.073 373.191 403.535C430.954 397.323 488.838 390.491 546.304 382.006C546.931 351.078 546.48 319.269 546.52 288.261C539.741 288.918 528.804 291.317 521.887 292.691L478.749 301.32C438.685 309.172 399.598 316.148 359.435 322.956L358.221 322.164C361.377 320.951 370.021 319.674 373.645 319.06C382.62 317.539 391.487 316.24 400.404 314.249C407.795 313.168 415.227 311.461 422.609 310.206C464.343 303.107 506.135 293.585 547.914 287C548.802 318.266 548.43 350.243 548.315 381.576C566.62 378.396 588.642 376.184 607.24 373.623C635.874 369.68 665.13 366.049 693.855 362.84C685.407 335.235 676.909 307.419 669.42 279.564C667.918 273.98 664.273 251.669 662.481 248.905C657.381 248.336 625.294 254.855 617.833 256.151L514.509 274.713C495.847 278.123 476.812 281.315 458.23 285.064ZM356.375 406.863C341.361 408.172 216.827 419.973 212.07 424.438C209.593 426.763 210.243 432.442 210.682 435.485C211.165 438.829 212.027 441.882 213.458 444.956L296.356 435.594C301.188 435.066 329.706 432.128 332.403 431.194C338.871 430.5 345.423 429.601 351.877 428.752C420.048 419.786 488.051 410.817 556.424 403.433L661.557 392.239L691.612 389.129C697.395 388.544 705.412 387.988 710.911 386.739C711.287 381.008 713.455 367.818 708.704 364.075C704.049 362.637 656.596 369.175 648.91 370.164L557.239 382.198C505.151 389.473 453.292 396.636 401.006 402.49C386.223 404.145 371.021 404.934 356.375 406.863ZM326.788 433.771L247.358 442.745C236.665 443.892 224.924 445.536 214.302 446.344C219.306 453.216 227.92 457.858 235.244 458.406C243.622 459.034 303.319 453.838 308.325 452.228C330.067 450.349 353.137 447.502 374.995 445.274L600.257 421.37L667.656 413.962C676.285 413.055 685.007 412.081 693.646 411.231C695.81 411.018 698.188 412 700.181 412.846C704.516 404.298 705.911 398.613 711.484 389.022C612.549 398.314 512.413 409.799 413.871 422.488C385.342 426.162 355.078 429.578 326.788 433.771ZM685.943 444.775C685.768 441.513 685.526 438.163 685.568 434.903C677.492 435.291 667.923 435.622 659.934 436.435C660.312 440.518 660.64 444.472 660.903 448.563C661.781 459.199 663.148 470.932 663.587 481.475C671.702 480.796 680.032 480.341 688.166 479.899C686.933 468.878 686.439 455.946 685.943 444.775ZM658.913 447.934L657.901 436.469C620.522 439.029 583.262 442.194 545.967 445.767C542.72 446.078 539.301 446.489 536.057 446.602C535.865 450.156 535.498 454.618 535.49 458.109C535.262 468.257 535.363 478.138 535.469 488.281C541.193 489.569 557.178 488.066 563.607 487.647L606.27 484.859C619.192 484.127 632.288 484.003 645.171 483.235C650.11 482.941 655.836 481.541 661.485 481.064C661.357 472.099 659.696 457.379 658.913 447.934ZM507.989 450.064L506.537 450.505L505.967 449.584C502.717 449.158 471.716 452.451 466.088 452.943C441.116 455.127 415.826 456.816 390.903 459.279C390.662 463.209 390.467 466.795 390.433 470.729C390.271 480.245 390.254 490.158 390.717 499.653C394.674 499.602 398.801 499.183 402.739 498.732C433.079 495.254 463.484 494.163 493.969 492.894C499.813 492.651 506.381 491.16 512.248 490.463C519.373 489.616 526.59 488.824 533.685 487.792C533.526 477.728 533.566 467.696 533.588 457.633C533.591 454.463 533.954 450.118 534.128 446.866C527.105 447.262 516.066 448.399 508.789 449.188C508.522 449.48 508.255 449.772 507.989 450.064ZM301.196 454.857C280.598 456.846 258.993 459.319 238.433 460.427C238.213 464.657 238.122 466.92 238.483 471.1C253.182 470.421 276.73 468.03 291.845 466.228C328.752 463.695 368.049 459.701 404.986 456.405L536.193 445.013C587.374 440.303 636.915 435.555 688.269 432.984C689.958 427.011 691.468 419.301 692.961 413.073L301.196 454.857ZM662.084 501.054C674.463 499.993 682.711 499.35 695.192 499.533C695.727 497.08 696.246 494.595 696.817 492.153C685.037 491.878 670.971 492.318 659.233 493.641C660.026 496.483 660.525 498.769 661.887 501.4C662.052 503.48 662.412 502.783 661.463 503.975C656.867 505.069 630.795 505.962 624.838 506.262L567.135 508.628C559.33 508.88 546.18 509.711 538.86 509.241C537.705 509.043 537.12 508.72 536.238 509.106C534.371 509.19 532.47 509.208 530.644 509.572C529.136 512.917 535.323 514.152 534.534 516.25L533.705 516.737L534.918 517.001L535.201 518.861C534.67 518.846 534.211 519.042 533.658 519.196C532.467 521.551 533.366 531.398 533.441 534.504C534.913 595.35 534.805 657.112 532.661 717.886C559.052 718.92 585.429 720.689 611.764 722.636C630.159 723.996 648.595 725.223 666.904 727.511C670.677 683.147 671.634 630.008 671.036 585.424L669.248 507.687C667.344 507.878 666.886 508.031 665.013 507.471C663.485 506.152 662.867 503.066 662.084 501.054ZM391.77 511.711C389.067 511.34 367.36 512.269 365.912 513.277C366.216 513.984 366.869 515.928 367.354 516.002C372.864 516.836 380.448 515.062 386.337 515.446L390.153 515.835L390.298 516.324C384.381 517.631 372.492 516.162 367.948 518.629L367.549 519.51C368.064 520.463 368.511 521.812 369.603 521.877C376.208 522.268 383.841 522.246 390.373 522.309L390.281 523.99L372.619 523.944C372.318 539.865 372.509 555.99 372.435 571.934L372.42 705.028C379.575 705.724 386.728 705.747 393.801 706.456L393.558 624.26C393.46 613.4 393.522 602.217 393.291 591.335C393.255 589.675 392.803 588.285 391.862 586.93C390.563 586.257 390.524 586.251 389.099 585.906C387.736 582.884 388.323 565.737 388.899 561.583C388.997 560.874 390.428 559.14 390.45 558.212C390.717 547.043 390.441 535.864 390.779 524.69L392.162 525.014C392.88 527.879 392.415 552.119 392.771 558.015L401.375 557.598C402.785 537.424 407.634 527.515 423.231 514.87C418.006 515.017 401.788 516.364 397.678 515.517L397.504 514.857L396.786 514.556L395.247 515.941L393.338 514.771C393.284 514.149 392.149 512.355 391.77 511.711ZM445.244 585.658C433.743 586.447 420.895 585.84 409.003 586.413C410.698 627.788 410.31 670.982 412.447 712.236C418.798 712.515 441.196 714.081 446.299 713.665L448.261 714.177C450.098 713.965 452.94 714.252 454.867 714.376C455.13 671.632 454.021 628.533 454.145 585.875L447.006 585.84L445.244 585.658ZM691.438 734.712C691.399 733.997 691.604 732.723 690.944 732.448C686.774 730.712 681.552 730.738 677.041 730.262C626.497 724.926 575.689 721.619 524.928 719.144C519.652 718.886 514.281 718.57 509.009 718.456C508.873 722.005 508.707 725.51 508.75 729.062C528.885 730.237 549.344 732.232 569.499 733.745L642.976 738.8C653.507 739.571 664.361 740.881 674.832 741.462C680.29 742.194 685.831 742.719 691.328 743.036L691.438 734.712ZM660.092 742.122C615.254 737.855 569.917 736.189 525.034 732.026C519.755 731.536 514.218 731.069 508.942 730.807C508.98 744.547 509.222 759.353 508.767 773.058C531.498 773.954 553.602 776.721 575.996 778.101C599.816 780.825 624.151 782.469 648.06 785.218C662.838 786.917 675.985 789.664 690.471 791.792C691.017 776.26 691.312 760.338 691.366 744.8C681.989 744.643 670.089 742.649 660.092 742.122ZM665.945 251.489C672.749 290.894 684.641 324.227 695.93 362.335L709.683 361.5C728.759 374.503 749.609 383.694 768.856 396.442C774.723 400.328 780.729 403.867 786.475 407.979C786.035 400.898 753.486 316.231 748.511 307.184C724.996 292.986 701.481 277.111 679.064 261.268C674.928 258.345 670.105 253.957 665.945 251.489ZM713.213 366.315C714.026 372.81 712.87 383.122 712.519 389.91C720.608 394.8 729.179 399.329 737.585 403.688C763.928 417.352 789.215 433.062 816.109 445.645C818.394 446.714 820.832 447.857 823.251 448.561C823.872 444.896 822.312 435.464 821.712 431.194C809.727 423.169 796.31 416.167 783.96 408.604C773.519 402.211 763.403 395.07 752.848 388.881C739.939 381.311 725.43 374.806 713.213 366.315ZM712.409 392.13C707.926 399.956 705.512 407.038 701.574 414.195C723.861 424.625 779.823 449.432 806.179 460.764C806.545 460.713 806.912 460.663 807.278 460.612L807.877 460.113C812.225 455.813 815.342 453.413 820.317 449.846C789.399 435.481 761.855 418.789 731.741 403.065C727.413 400.805 715.657 393.467 712.409 392.13ZM694.849 413.734C693.419 419.874 691.91 427.21 690.275 433.202L691.01 433.482C698.97 436.542 708.211 441.4 715.897 445.097C728.174 451.003 741.236 456.586 753.491 462.012C767.061 468.02 774.081 471.248 789.053 469.808C791.91 469.533 797.046 470.801 799.912 469.541L805.614 462.493C779.401 452.576 753.159 439.189 727.3 428.222C718.526 424.5 702.984 416.391 694.849 413.734ZM687.416 435.207C687.466 449.253 688.614 465.396 689.812 479.39C693.602 479.459 695.191 479.48 698.893 480.164C698.385 466.136 697.862 452.166 697.592 438.131C693.792 436.678 691.491 435.788 687.416 435.207ZM699.582 439.703C699.608 453.498 700.505 467.363 700.555 481.114C706.239 483.364 706.636 484.254 704.648 490.041C711.306 491.354 718.502 494.502 725.153 496.316C739.735 500.292 756.389 505.098 771.331 507.323C771.538 507.06 771.745 506.796 771.952 506.533C771.938 497.858 771.514 479.382 771.154 471.7C746.624 461.25 723.62 451.419 699.582 439.703ZM386.309 459.722L367.522 461.323C367.504 467.278 367.464 496.969 369.193 500.663C369.853 500.766 370.1 500.901 370.674 500.756C376.7 500.351 382.824 499.998 388.836 499.525C388.594 495.699 388.574 459.698 388.536 459.63C387.729 459.626 387.065 459.551 386.309 459.722ZM363.337 461.729L270.907 469.756C270.89 478.03 270.348 499.362 271.146 506.634C272.555 507.594 274.175 507.261 276 507.125C301.233 506.269 326.741 504.136 351.999 503.048C356.97 502.833 362.185 501.599 366.684 501.374C365.913 488.382 365.271 474.882 365.744 461.862C364.609 461.354 364.595 461.488 363.337 461.729ZM266.562 470.219C261.689 470.659 256.837 471.091 251.97 471.618C251.996 477.969 251.805 500.924 252.661 505.802C253.844 506.559 254.804 506.404 256.231 506.426C260.756 506.597 264.978 506.847 269.493 507.197L269.441 482.392C269.437 480.096 269.594 472.117 269.221 470.234C267.874 469.906 267.944 469.961 266.562 470.219ZM773.051 471.839L774.152 506.901C777.964 506.979 783.753 507.447 787.177 507.39C787.134 495.548 787.515 483.752 787.477 471.958L773.051 471.839ZM689.774 481.717L653.768 483.629C654.718 487.246 655.303 488.867 657.13 492.232C658.968 491.873 660.749 491.457 662.621 491.388C670.27 490.675 677.876 490.568 685.528 490.266C688.745 490.139 694.893 490.212 697.646 489.671C698.974 487.622 698.59 484.663 698.515 482.187C694.795 481.682 693.513 481.583 689.774 481.717ZM699.946 483.209C699.502 485.4 698.593 488.252 699.365 490.193C700.934 491.083 700.491 490.8 702.545 490.787C703.212 489.106 704.086 487.547 703.757 485.836C702.784 484.306 701.612 483.995 699.946 483.209ZM649.073 484.722C621.782 486.489 594.154 486.616 566.876 489.217C561.019 489.776 545.657 489.791 540.716 491.178C540.505 492.987 540.729 494.175 540.496 495.749C539.912 499.707 538.572 503.619 538.195 507.598L550.625 507.461C576.558 506.506 602.71 505.845 628.595 504.368C637.221 503.876 651.889 503.672 659.815 502.439C658.494 498.889 653.822 488.259 651.11 484.772C650.82 484.399 649.633 484.634 649.073 484.722ZM530.442 490.215C524.089 490.727 504.778 491.513 500.776 495.555C500.161 497.487 500.157 496.563 500.657 498.425C502.835 500.233 506.196 499.59 509.15 499.46C518.325 499.427 529.485 498.886 538.293 499.092C539.776 492.002 538.487 489.136 530.442 490.215ZM703.522 492.301C703.426 495.252 703.397 498.372 703.091 501.295C719.982 506.004 754.429 514.206 771.515 515.668L771.614 509.154C757.454 506.655 746.607 504.314 732.744 500.474C726.384 498.712 708.668 492.601 703.522 492.301ZM698.371 493.108C697.8 495.122 696.781 497.624 697.347 499.508C698.47 500.716 699.19 500.651 700.834 500.929C701.315 497.19 702.594 494.167 698.371 493.108ZM486.183 495.278C459.484 496.043 433.006 497.168 406.437 500.053C402.89 500.438 399.193 500.844 395.641 501.118C395.235 503.8 392.452 514.839 397.6 514.476C403.811 514.038 409.791 513.572 416.046 513.421C425.432 512.851 429.314 510.276 437.276 507.563C453.893 501.902 467.057 505.712 482.913 510.722C485.134 511.424 499.421 509.566 503.079 509.15C501.486 503.902 498.532 499.449 497.851 494.878C493.989 495.008 490.033 495.094 486.183 495.278ZM502.791 501.046C503.312 502.705 504.473 507.175 505.498 508.201C504.996 508.37 507.908 507.443 507.266 507.446C516.862 507.398 526.335 506.947 535.938 507.228C536.759 505.735 537.044 502.722 537.322 500.915L502.791 501.046ZM381.385 501.712C378.647 501.907 375.734 502.086 373.007 502.277C365.94 502.77 353.926 501.754 363.693 511.46L372.623 510.929L392.326 509.77C392.921 506.753 393.38 504.486 393.671 501.419C389.705 501.438 385.291 501.36 381.385 501.712ZM676.36 501.712C673.065 501.984 669.158 502.211 665.946 502.729L665.44 503.376C666.423 506.907 682.192 505.521 686.125 505.491C688.483 505.508 691.035 505.767 693.148 504.91C694.425 503.349 693.99 504.227 694.337 502.107C692.289 500.695 679.296 501.298 676.36 501.712ZM700.737 503.189C700.459 505.712 700.857 505.742 699.571 507.48C697.345 508.411 694.74 507.534 692.004 507.502L693.458 729.923C712.903 724.881 732.701 719.6 752.255 715.077C758.627 713.667 766.486 711.698 772.8 710.607C772.509 695.484 772.873 679.624 773.014 664.455L773.648 600.4L774.209 562.003C774.356 550.319 774.405 538.367 773.077 526.701C772.743 523.764 771.278 520.889 770.65 517.715C750.344 514.736 731.162 510.522 711.308 505.38C707.809 504.474 704.321 503.682 700.737 503.189ZM352.756 504.719C325.498 505.911 298.18 508.08 270.962 508.961C270.698 514.349 268.428 522.969 275.741 522.646L283.061 522.364L337.268 519.563C345.948 519.141 357.332 518.938 365.658 517.996C364.313 515.364 364.118 514.647 361.725 512.855C359.578 511.246 359.279 511.302 359.01 508.761L358.942 508.06C358.796 506.676 358.844 506.572 357.897 505.48C355.439 504.198 355.925 504.639 352.756 504.719ZM450.386 507.201C435.381 508.703 424.147 513.973 414.217 525.719C406.192 535.211 404.491 545.549 403.245 557.52C420.665 557.375 438.182 556.004 455.707 555.962C471.265 555.611 487.314 555.298 502.887 555.222C502.456 547.946 501.88 542.637 498.771 535.958C489.712 516.496 472.275 504.358 450.386 507.201ZM670.907 507.554C671.403 540.71 672.887 573.604 672.981 606.84C673.097 647.665 671.28 687.09 668.775 727.747L688.47 729.79C690.31 729.964 690.096 730.257 691.357 729.46C691.926 723.42 691.503 711.457 691.485 705.067L691.378 659.069L690.452 507.48C683.87 507.428 677.486 507.393 670.907 507.554ZM248.681 507.949C247.504 511.833 247.409 513.503 247.407 517.653C254.436 518.124 261.479 518.407 268.517 518.725C269.337 517.523 269.021 510.808 269.086 508.73C262.925 508.37 254.153 508.465 248.681 507.949ZM773.977 508.624C773.907 510.973 773.802 513.329 773.864 515.676C776.811 515.865 790.361 517.195 792.124 515.892L793.499 510.287C786.471 509.256 781.194 508.839 773.977 508.624ZM525.476 509.218C518.767 509.498 512.057 509.732 505.361 510.225C505.903 512.396 505.731 513.363 507.188 514.611L510.622 514.387C518.359 513.748 523.425 513.603 531.066 514.086C530.093 512.518 528.963 510.289 527.501 509.312L525.476 509.218ZM500.18 511.205C494.573 511.789 488.618 512.307 483.064 513.107C493.482 521.713 501.235 531.867 503.909 545.388C504.202 547.924 504.38 552.789 505.273 554.656C506.748 555.242 506.928 554.981 508.654 554.76C510.286 553.201 509.599 523.963 509.634 519.621L505.454 518.082C505.006 515.798 504.78 513.193 503.423 511.437C501.775 510.735 502.209 510.973 500.18 511.205ZM514.383 515.716L510.316 515.984L510.539 516.034L509.148 516.571L509.279 517.002C514.726 518.2 521.936 517.666 527.625 517.463C530.271 517.349 530.106 517.752 532.059 516.551L531.71 516.057C526.335 515.177 519.894 515.554 514.383 515.716ZM773.392 517.515C773.453 519.489 773.263 520.432 774.429 522.004C778.157 524.48 785.209 523.637 790.093 523.626C790.323 522.174 790.818 520.429 790.32 519.151C787.194 518.246 777.31 517.779 773.392 517.515ZM525.383 519.22C520.706 519.416 516.195 519.547 511.514 519.605C511.478 529.169 510.949 545.486 511.576 554.534C512.51 555.129 512.638 555.177 513.363 556.03C514.121 565.464 514.295 574.956 514.98 584.477C513.432 586.269 511.003 584.791 510.99 586.253C510.922 593.982 510.819 605.388 510.707 612.729L509.092 690.037C509.027 693.827 508.295 714.478 509.398 716.205C510.862 716.798 511.874 716.643 513.45 716.614C519.444 717.108 524.886 717.438 530.896 717.658C532.315 665.685 532.808 613.796 532.543 561.808C532.471 547.528 531.586 533.238 531.183 518.96L525.383 519.22ZM248.146 519.588C248.709 521.111 249.155 522.958 250.374 523.907C253.923 525.023 265.703 525.471 269.644 525.148C269.399 522.746 269.756 522.368 268.562 520.688C264.518 519.684 253.038 519.76 248.146 519.588ZM355.186 520.289L299.732 523.091C295.028 523.32 276.407 523.89 272.496 524.783C272.184 525.941 272.233 525.701 272.148 526.865C270.852 527.475 270.96 527.261 270.073 528.369C269.402 533.503 269.69 540.731 269.751 546.021L269.99 572.127L271.007 671.407C271.105 679.911 271.528 688.368 271.523 696.871C278.4 697.433 286.316 698.28 293.123 698.602C317.806 700.52 346.338 703.964 370.522 705.107L370.523 567.732C370.544 562.595 371.502 526.735 370.875 524.439C369.444 523.836 369.041 523.752 367.574 523.391C366.276 521.951 365.901 521.431 364.837 519.799C361.868 519.919 358.079 519.972 355.186 520.289ZM775.275 524.956C776.45 550.434 775.949 573.505 775.569 598.992L775.299 649.154C775.07 668.933 774.541 690.295 774.98 710.069C777.173 710.134 783.986 710.497 785.984 710.332C786.614 697.115 786.693 683.258 786.576 670.011C786.152 622.114 788.606 573.463 786.996 525.625C783.266 525.383 778.961 525.003 775.275 524.956ZM254.382 527.404C253.246 553.346 253.529 581.204 253.521 607.233L253.026 657.709C252.95 670.047 253.168 683.368 252.735 695.606C258.691 696.084 263.78 696.446 269.767 696.553C269.938 682.439 269.251 667.658 269.109 653.448L268.057 527.487C263.547 528.164 258.952 527.611 254.382 527.404ZM486.255 557.25C473.47 557.491 398.255 557.533 391.64 560.325C389.671 563.468 390.463 573.735 390.55 578.023L416.118 577.274L478.744 576.371C489.614 576.206 501.791 575.56 512.509 575.794C512.239 569.662 512.159 563.09 511.811 557.05C503.412 556.977 494.651 556.957 486.255 557.25ZM489.382 577.726C459.137 578.526 429.014 577.92 398.634 579.51L398.448 584.987L415.379 584.55L482.875 583.648C489.564 583.531 496.205 583.505 502.893 583.675C504.315 583.711 505.297 583.05 506.277 582.099C508.794 576.345 502.154 577.346 498.515 577.384C495.636 577.414 492.227 577.465 489.382 577.726ZM508.521 577.437C508.496 579.862 508.078 581.228 509.157 583.093C510.556 583.699 511.454 583.554 512.973 583.533C512.94 581.587 513.211 579.321 512.085 577.876C510.673 577.261 510.046 577.398 508.521 577.437ZM390.074 579.479C390.061 581.802 389.68 582.5 390.743 584.302C392.53 585.17 394.644 584.806 396.689 584.929C396.768 583.181 397.121 581.277 396.161 579.943C394.424 579.116 392.075 579.424 390.074 579.479ZM484.382 585.247C474.887 585.392 465.231 585.443 455.759 585.912L456.524 714.46C460.195 714.568 464.504 714.588 468.117 714.871C477.347 715.205 486.515 715.574 495.755 715.616C495.496 677.862 494.366 640.197 493.46 602.453C493.323 596.772 493.292 591.222 492.938 585.54C490.085 585.387 487.236 585.176 484.382 585.247ZM494.509 585.432C495.302 597.137 495.314 610.042 495.608 621.844L497.056 680.495C497.247 690.271 497.01 706.779 497.841 716.055C500.575 716.226 503.318 716.588 505.963 716.032C506.705 715.207 506.5 715.625 506.749 714.877L507.881 658.409C508.552 634.988 509.615 608.865 509.155 585.489C504.258 585.429 499.409 585.358 494.509 585.432ZM394.957 586.208C394.212 589.545 394.968 608.098 395.023 612.577C395.417 644.925 395.113 677.484 395.994 709.786C396.797 710.668 396.349 710.375 397.266 710.767C397.597 709.631 397.836 708.518 397.821 707.328C397.532 683.701 397.141 660.014 397.025 636.388L396.587 600.734C396.54 598.141 396.617 589.297 396.231 587.116L394.957 586.208ZM397.84 586.509L398.661 654.246C399.013 673.099 399.781 692.667 399.539 711.493C403.08 711.73 406.978 712.065 410.494 712.099C409.772 670.393 407.676 628.007 407.532 586.419L397.84 586.509ZM248.994 697.425C248.938 701.111 248.903 704.309 249.094 707.988L328.405 714.769L358.258 717.468C374.787 718.884 374.442 720.312 389.499 713.488C391.675 712.49 392.425 712.365 393.832 710.553L394.154 709.308C392.118 707.204 378.778 707.173 374.731 706.885L339.562 704.062L287.454 699.664C275.204 698.671 261.276 697.234 248.994 697.425ZM249.171 709.443C249.682 721.729 249.161 734.176 249.42 746.499C271.931 749.807 295.658 751.496 318.287 754.467C328.048 755.749 340.081 756.575 349.571 758.54C351.714 753.885 356.279 746.708 359.178 742.239C363.95 735.075 369.939 726.787 375.627 720.28L249.171 709.443ZM774.201 712.134C748.45 716.743 718.784 725.53 693.206 731.839L693.165 741.904L706.893 737.442C717.644 734.089 728.463 731.495 739.314 728.521C757.166 723.629 774.627 718.56 792.192 712.707C787.643 712.254 778.827 711.569 774.201 712.134ZM393.918 713.475C375.581 721.611 376.092 721.07 364.149 737.988C368.353 738.599 373.213 739.427 377.393 739.758C378.24 733.851 379.111 729.221 377.17 723.457C405.28 725.142 434.837 726.874 462.877 729.415C470.5 729.911 491.538 730.914 498.004 732.166C500.57 728.011 504.132 721.915 507.064 718.2C498.675 718.291 489.177 717.602 480.694 717.275L426.952 714.737C421.917 714.455 397.237 712.989 393.918 713.475ZM790.51 715.032C759.924 726.68 722.752 732.632 693.249 743.964C693.196 749.392 692.152 789.267 693.016 790.357L693.267 790.37C703.397 785.724 716.229 781.543 726.913 777.689C747.714 770.183 771.31 761.572 791.094 751.675C791.216 744.309 792.012 722.09 791.152 715.655L790.51 715.032ZM506.378 722.398C500.695 731.457 495.117 741.596 489.521 750.578C486.196 755.916 478.23 763.056 473.997 768.783C474.132 774.14 474.142 784.371 474.769 789.529C480.719 787.221 487.759 783.401 493.629 780.599C497.027 778.978 503.41 776.059 506.425 774.249C507.588 765.184 506.747 751.319 507.017 741.756C507.128 737.836 507.18 725.83 506.768 722.829L506.378 722.398ZM380.088 725.535C380.017 730.894 379.932 734.511 379.277 739.901C415.415 742.512 452.009 746.629 488.016 749.112L490.587 744.761L496.861 733.788L380.088 725.535ZM362.742 739.729C360.026 743.639 355.987 749.479 354.211 753.868L354.429 754.552C355.885 755.125 355.96 755.165 357.498 755.395L364.56 756.098C365.134 752.008 366.659 744.097 365.507 740.439C364.422 739.604 364.175 739.785 362.742 739.729ZM367.767 740.372C367.309 745.277 366.592 751.228 366.399 756.073L435.287 763.63C445.89 764.807 462.152 767.213 472.073 767.628L478.667 760.487C481.31 757.405 483.948 754.403 486.369 751.138C458.864 748.15 431.258 746.516 403.734 743.737C392.206 742.573 379.12 742.072 367.767 740.372ZM352.951 756.06C350.548 763.092 346.068 764.654 343.901 772.529C358.384 775.46 378.165 777.604 393.064 779.412L465.382 788.258C467.813 788.616 470.23 788.986 472.67 789.274L472.421 770.013C445.938 766.439 418.809 764.062 392.272 760.784C380.118 759.282 364.556 758.454 352.951 756.06Z" fill="#180502"/>
<path d="M458.228 285.065C476.81 281.316 495.845 278.124 514.507 274.714L617.831 256.152C625.292 254.856 657.379 248.337 662.479 248.906C664.271 251.67 667.916 273.981 669.418 279.565C676.907 307.42 685.405 335.236 693.853 362.841C665.128 366.05 635.872 369.681 607.238 373.624C588.64 376.185 566.618 378.397 548.313 381.577C548.428 350.244 548.8 318.267 547.912 287.001C506.133 293.586 464.341 303.108 422.607 310.207C415.225 311.462 407.793 313.169 400.402 314.25C400.606 313.504 400.979 312.33 401.702 311.92C415.66 304.001 430.579 297.94 445.257 291.513C448.851 289.939 455.27 287.41 458.228 285.065Z" fill="#8EECF5"/>
<path d="M695.93 362.334C684.641 324.226 672.749 290.893 665.945 251.488C670.105 253.956 674.928 258.344 679.064 261.267C701.481 277.11 724.996 292.985 748.511 307.183C753.486 316.23 786.035 400.897 786.475 407.978C780.729 403.866 774.723 400.327 768.856 396.441C749.609 383.693 728.759 374.502 709.683 361.499L695.93 362.334Z" fill="#98F5E1"/>
<path d="M306.22 313.275C310.288 312.75 314.329 312.011 318.362 311.266C359.259 303.708 399.885 294.587 440.896 287.661C446.6 286.698 452.477 285.6 458.232 285.062C455.274 287.408 448.854 289.936 445.26 291.51C430.582 297.937 415.664 303.999 401.706 311.918C400.983 312.328 400.609 313.501 400.405 314.247C391.488 316.238 382.621 317.538 373.646 319.059C370.022 319.673 361.379 320.95 358.223 322.163C358.7 325.496 357.803 332.689 357.52 336.38C356.993 343.255 356.412 349.788 356.426 356.736C355.82 361.025 355.748 398.356 356.995 400.952L357.348 400.551L358.116 405.004C320.554 409.948 281.477 411.471 244.062 417.156C267.073 382.806 285.344 348.879 306.22 313.275Z" fill="#F1C0E8"/>
<path d="M359.435 322.957C399.598 316.149 438.685 309.173 478.749 301.321L521.887 292.692C528.804 291.318 539.741 288.919 546.52 288.262C546.48 319.27 546.931 351.079 546.304 382.007C488.838 390.492 430.954 397.324 373.191 403.536C368.196 404.074 363.121 404.579 358.114 405.006L357.347 400.553C357.451 397.98 357.414 395.118 357.321 392.527C356.906 380.9 357.442 369.322 357.452 357.71C357.641 346.093 359.277 334.331 359.435 322.957ZM378.633 336.257C386.766 335.016 395.555 332.789 403.747 331.465C437.75 325.971 470.983 316.837 505.247 313.462C510.814 312.914 517.704 311.727 523.379 311.408C524.469 311.347 524.595 311.901 525.094 312.617L525.589 319.85C522.164 326.345 502.36 337.73 497.235 344.73C495.843 346.631 491.435 350.184 489.375 351.344C477.501 346.476 455.226 334.271 444.951 332.863L444.466 332.792C448.421 335.134 452.893 336.74 457.127 338.758C466.548 343.248 476.359 348.285 486.021 352.197C477.604 358.52 460.492 370.654 453.907 377.674C461.829 373.715 480.363 358.943 488.169 352.937C501.201 359.173 514.863 366.102 527.873 372.136C528.165 354.697 526.459 337.412 526.528 320.629C526.41 318.149 526.145 315.501 525.944 313.011C525.963 310.939 526.368 310.625 525.338 309.5C521.094 309.547 516.839 310.392 512.624 310.76C476.176 313.939 440.905 323.258 404.912 329.329C395.593 330.901 386.441 333.171 377.025 334.521C376.357 349.723 376.148 368.421 376.4 383.755C376.295 386.977 375.916 390.018 377.087 392.989L377.652 393.486L377.475 393.098L378.741 392.18C378.781 390.531 378.703 389.785 378.525 388.19C391.634 380.258 398.631 376.224 411.307 366.629C422.111 369.05 430.483 376.159 442.527 377.916C436.896 373.586 420.434 367.567 413.284 364.999C417.646 360.93 443.263 338.646 444.021 334.682C442.822 334.882 441.364 335.704 440.504 336.546C421.799 354.838 402.338 374.208 378.494 385.95C378.188 376.114 378.535 364.762 378.6 354.816C382.99 356.728 398.095 365.747 401.444 364.929C399.506 361.97 382.982 354.393 378.86 352.989C378.542 347.229 378.587 342.013 378.633 336.257ZM455.998 345.781L456.148 346.577C456.329 347.495 456.632 348.528 456.973 349.364C460.43 357.83 448.481 365.648 441.367 360.974C437.617 358.51 437.843 353.201 437.545 349.26L437.018 349.153C436.142 350.458 436.013 350.56 435.455 352.087C438.578 372.476 459.345 365.373 459.548 350.105C459.569 348.53 457.659 346.315 455.998 345.781ZM385.853 364.934C380.566 368.258 380.331 376.053 387.434 376.139C394.062 372.676 392.872 365.25 385.853 364.934Z" fill="#FFEDE1"/>
<path d="M525.094 312.617C524.595 311.901 524.469 311.347 523.379 311.408C517.704 311.727 510.814 312.914 505.247 313.462C470.983 316.837 437.75 325.971 403.747 331.465C395.555 332.789 386.766 335.016 378.633 336.257C378.587 342.013 378.542 347.229 378.86 352.989C382.982 354.393 399.506 361.97 401.444 364.929C398.095 365.747 382.99 356.728 378.6 354.816C378.535 364.762 378.188 376.114 378.494 385.95C402.338 374.208 421.799 354.838 440.504 336.546C441.364 335.704 442.822 334.882 444.021 334.682C443.263 338.646 417.646 360.93 413.284 364.999C420.434 367.567 436.896 373.586 442.527 377.916C430.483 376.159 422.111 369.05 411.307 366.629C398.631 376.224 391.634 380.258 378.525 388.19C377.902 386.893 376.907 384.961 376.4 383.755C376.148 368.421 376.357 349.723 377.025 334.521C386.441 333.171 395.593 330.901 404.912 329.329C440.905 323.258 476.176 313.939 512.624 310.76C516.839 310.392 521.094 309.547 525.338 309.5C526.368 310.625 525.963 310.939 525.944 313.011L525.094 312.617Z" fill="#2D0B01"/>
<path d="M525.094 312.617L525.944 313.011C526.145 315.501 526.41 318.149 526.528 320.629L525.589 319.85L525.094 312.617Z" fill="#978581"/>
<path d="M525.588 319.848L526.527 320.627C526.458 337.41 528.164 354.695 527.872 372.134C514.862 366.1 501.2 359.171 488.168 352.935C480.362 358.941 461.828 373.713 453.906 377.672C460.491 370.652 477.603 358.518 486.02 352.195C476.358 348.283 466.547 343.246 457.126 338.756C452.892 336.738 448.42 335.132 444.465 332.79L444.95 332.861C455.225 334.269 477.5 346.474 489.374 351.342C491.434 350.182 495.842 346.629 497.234 344.728C502.359 337.728 522.163 326.343 525.588 319.848ZM524.128 325.391C520.378 328.235 491.415 349.667 491.118 351.818C493.749 353.745 500.404 356.524 503.646 357.997C511.421 361.501 518.404 364.785 525.997 368.651C525.968 356.614 525.703 344.581 525.285 332.551C525.205 330.248 525.211 327.936 524.745 325.671L524.128 325.391Z" fill="#461404"/>
<path d="M356.426 356.737C356.412 349.789 356.992 343.257 357.519 336.382C357.802 332.691 358.699 325.497 358.222 322.164L359.436 322.956C359.278 334.33 357.642 346.092 357.453 357.709L356.745 360.553L356.426 356.737Z" fill="#65313A"/>
<path d="M503.645 357.997C500.403 356.524 493.748 353.745 491.117 351.818C491.414 349.667 520.377 328.235 524.127 325.391L524.744 325.671C525.21 327.936 525.204 330.248 525.284 332.551C525.702 344.581 525.967 356.614 525.996 368.651C518.403 364.785 511.42 361.501 503.645 357.997ZM514.047 339.082C505.977 341.536 504.535 352.193 515.957 351.512C524.781 348.452 524.48 339.304 514.047 339.082Z" fill="#FFEDE1"/>
<path d="M515.961 351.512C504.539 352.193 505.981 341.536 514.051 339.082C524.484 339.304 524.785 348.452 515.961 351.512ZM512.904 340.947C510.314 343.33 509 344.71 510.491 348.218C512.85 350.241 513.846 349.865 516.827 349.425C523.109 345.415 519.486 340.83 512.904 340.947Z" fill="#461404"/>
<path d="M516.826 349.426C513.845 349.866 512.849 350.242 510.49 348.219C508.999 344.711 510.313 343.331 512.903 340.948C519.485 340.831 523.108 345.416 516.826 349.426Z" fill="#FDE4CF"/>
<path d="M435.453 352.087C436.011 350.56 436.14 350.458 437.016 349.153L437.543 349.26C437.841 353.201 437.615 358.51 441.365 360.974C448.479 365.648 460.428 357.83 456.971 349.364C456.63 348.528 456.327 347.495 456.146 346.577L455.996 345.781C457.657 346.315 459.567 348.53 459.546 350.105C459.343 365.373 438.576 372.476 435.453 352.087Z" fill="#461404"/>
<path d="M357.345 400.553L356.992 400.954C355.745 398.358 355.817 361.027 356.423 356.738L356.742 360.554L357.45 357.71C357.44 369.322 356.904 380.9 357.319 392.527C357.412 395.118 357.449 397.98 357.345 400.553Z" fill="#B37E93"/>
<path d="M356.374 406.865C371.02 404.936 386.222 404.147 401.005 402.492C453.291 396.638 505.15 389.475 557.238 382.2L648.909 370.166C656.595 369.177 704.048 362.639 708.703 364.077C713.454 367.82 711.286 381.01 710.91 386.741C705.411 387.99 697.394 388.546 691.611 389.131L661.556 392.241L556.423 403.435C488.05 410.819 420.047 419.788 351.876 428.754C345.422 429.603 338.87 430.502 332.402 431.196C335.275 424.79 351.591 413.988 356.374 406.865Z" fill="#8EECF5"/>
<path d="M387.435 376.139C380.332 376.053 380.567 368.258 385.854 364.934C392.873 365.25 394.063 372.676 387.435 376.139ZM385.49 366.786C383.633 369.618 382.755 371.29 385.708 373.704C386.544 373.855 387.332 374.021 388.174 374.109C389.98 371.485 390.677 369.634 388.132 367.206C386.947 366.917 386.694 366.815 385.49 366.786Z" fill="#2D0B01"/>
<path d="M712.52 389.911C712.871 383.123 714.027 372.811 713.214 366.316C725.431 374.807 739.94 381.312 752.849 388.882C763.404 395.071 773.52 402.212 783.961 408.605C796.311 416.168 809.728 423.17 821.713 431.195C822.313 435.465 823.873 444.897 823.252 448.562C820.833 447.858 818.395 446.715 816.11 445.646C789.216 433.063 763.929 417.353 737.586 403.689C729.18 399.33 720.609 394.801 712.52 389.911Z" fill="#8EECF5"/>
<path d="M388.172 374.108C387.33 374.02 386.542 373.854 385.706 373.703C382.753 371.289 383.631 369.617 385.488 366.785C386.692 366.814 386.945 366.916 388.13 367.205C390.675 369.633 389.978 371.484 388.172 374.108Z" fill="#FFEDE1"/>
<path d="M376.4 383.754C376.907 384.96 377.902 386.892 378.525 388.189C378.703 389.784 378.781 390.53 378.741 392.179L377.475 393.097L377.652 393.485L377.087 392.988C375.916 390.017 376.295 386.976 376.4 383.754Z" fill="#461404"/>
<path d="M326.789 433.772C355.079 429.579 385.343 426.163 413.872 422.489C512.414 409.8 612.55 398.315 711.485 389.023C705.912 398.614 704.517 404.299 700.182 412.847C698.189 412.001 695.811 411.019 693.647 411.232C685.008 412.082 676.286 413.056 667.657 413.963L600.258 421.371L374.996 445.275C353.138 447.503 330.068 450.35 308.326 452.229L307.809 451.377C309.082 446.456 323.213 441.814 326.789 433.772Z" fill="#8EECF5"/>
<path d="M701.574 414.194C705.512 407.037 707.926 399.955 712.409 392.129C715.657 393.466 727.413 400.804 731.741 403.064C761.855 418.788 789.399 435.48 820.317 449.845C815.342 453.412 812.225 455.812 807.877 460.112L807.278 460.611C806.912 460.662 806.545 460.712 806.179 460.763C779.823 449.431 723.861 424.624 701.574 414.194Z" fill="#8EECF5"/>
<path d="M213.46 444.956C212.029 441.882 211.167 438.829 210.684 435.485C210.245 432.442 209.595 426.763 212.072 424.438C216.829 419.973 341.363 408.172 356.377 406.863C351.594 413.986 335.278 424.788 332.405 431.194C329.708 432.128 301.19 435.066 296.358 435.594L213.46 444.956Z" fill="#CFBAF0"/>
<path d="M301.195 454.858L692.96 413.074C691.467 419.302 689.957 427.012 688.268 432.985C636.914 435.556 587.373 440.304 536.192 445.014L404.985 456.406C368.048 459.702 328.751 463.696 291.844 466.229C291.658 459.578 298.54 461.228 301.195 454.858Z" fill="#8EECF5"/>
<path d="M690.273 433.202C691.908 427.21 693.417 419.874 694.847 413.734C702.982 416.391 718.524 424.5 727.298 428.222C753.157 439.189 779.399 452.576 805.612 462.493L799.91 469.541C797.044 470.801 791.908 469.533 789.051 469.808C774.079 471.248 767.059 468.02 753.489 462.012C741.234 456.586 728.172 451.003 715.895 445.097C708.209 441.4 698.968 436.542 691.008 433.482L690.273 433.202Z" fill="#8EECF5"/>
<path d="M214.301 446.343C224.923 445.535 236.664 443.891 247.357 442.744L326.787 433.77C323.211 441.812 309.08 446.454 307.807 451.375L308.324 452.227C303.318 453.837 243.621 459.033 235.243 458.405C227.919 457.857 219.305 453.215 214.301 446.343Z" fill="#CFBAF0"/>
<path d="M685.943 444.774C682.808 444.354 673.741 447.006 669.966 447.528C666.886 447.955 664.072 448.284 660.903 448.562C660.64 444.471 660.312 440.517 659.934 436.434C667.923 435.621 677.492 435.29 685.568 434.902C685.526 438.162 685.768 441.512 685.943 444.774Z" fill="#FDE4CF"/>
<path d="M689.81 479.39C688.612 465.396 687.464 449.253 687.414 435.207C691.489 435.788 693.79 436.678 697.59 438.131C697.86 452.166 698.383 466.136 698.891 480.164C695.189 479.48 693.6 479.459 689.81 479.39Z" fill="#8EECF5"/>
<path d="M658.911 447.934C631.058 447.97 603.25 450.977 575.586 453.776C564.608 454.887 545.897 458.138 535.488 458.109C535.496 454.618 535.863 450.156 536.055 446.602C539.299 446.489 542.718 446.078 545.965 445.767C583.26 442.194 620.52 439.029 657.899 436.469L658.911 447.934Z" fill="#FDE4CF"/>
<path d="M700.555 481.114C700.505 467.363 699.608 453.498 699.582 439.703C723.62 451.419 746.624 461.25 771.154 471.7C771.514 479.382 771.938 497.858 771.952 506.533C771.745 506.796 771.538 507.06 771.331 507.323C756.389 505.098 739.735 500.292 725.153 496.316C718.502 494.502 711.306 491.354 704.648 490.041C706.636 484.254 706.239 483.364 700.555 481.114Z" fill="#8EECF5"/>
<path d="M660.902 448.563C664.071 448.285 666.885 447.956 669.965 447.529C673.74 447.007 682.807 444.355 685.942 444.775C686.438 455.946 686.932 468.878 688.165 479.899C680.031 480.341 671.701 480.796 663.586 481.475C663.147 470.932 661.78 459.199 660.902 448.563Z" fill="#FBF8CC"/>
<path d="M507.988 450.065C508.254 449.773 508.521 449.481 508.788 449.189C516.065 448.4 527.104 447.263 534.127 446.867C533.953 450.119 533.59 454.464 533.587 457.634C525.418 458.02 515.823 459.347 508.439 459.563L507.988 450.065Z" fill="#FDE4CF"/>
<path d="M535.489 458.109C545.898 458.138 564.609 454.887 575.587 453.776C603.251 450.977 631.059 447.97 658.912 447.934C659.695 457.379 661.356 472.099 661.484 481.064C655.835 481.541 650.109 482.941 645.17 483.235C632.287 484.003 619.191 484.127 606.269 484.859L563.606 487.647C557.177 488.066 541.192 489.569 535.468 488.281C535.362 478.138 535.261 468.257 535.489 458.109Z" fill="#FBF8CC"/>
<path d="M390.904 459.28C415.827 456.817 441.117 455.128 466.089 452.944C471.717 452.452 502.718 449.159 505.968 449.585L506.538 450.506C506.482 453.735 506.423 456.831 506.508 460.063C501.162 460.213 495.219 461.395 489.847 462.065C457.015 466.155 423.469 468.92 390.434 470.73C390.468 466.796 390.663 463.21 390.904 459.28Z" fill="#FDE4CF"/>
<path d="M506.538 450.504L507.99 450.062L508.441 459.561C508.524 465.41 509.588 484.11 508.388 488.668C506.572 486.08 506.573 464.235 506.508 460.061C506.423 456.829 506.482 453.733 506.538 450.504Z" fill="#461404"/>
<path d="M238.431 460.425C258.991 459.317 280.596 456.844 301.194 454.855C298.539 461.225 291.657 459.575 291.843 466.226C276.728 468.028 253.18 470.419 238.481 471.098C238.12 466.918 238.211 464.655 238.431 460.425Z" fill="#CFBAF0"/>
<path d="M508.439 459.562C515.823 459.346 525.418 458.019 533.587 457.633C533.565 467.696 533.525 477.728 533.684 487.792C526.589 488.824 519.372 489.616 512.247 490.463C506.38 491.16 499.812 492.651 493.968 492.894C463.483 494.163 433.078 495.254 402.738 498.732C398.8 499.183 394.673 499.602 390.716 499.653C390.253 490.158 390.27 480.245 390.432 470.729C423.467 468.919 457.013 466.154 489.845 462.064C495.217 461.394 501.16 460.212 506.506 460.062C506.571 464.236 506.57 486.081 508.386 488.669C509.586 484.111 508.522 465.411 508.439 459.562Z" fill="#FFEDE1"/>
<path d="M367.524 461.322L386.311 459.721C387.067 459.55 387.731 459.625 388.538 459.629C388.576 459.697 388.596 495.698 388.838 499.524C382.826 499.997 376.702 500.35 370.676 500.755C370.102 500.9 369.855 500.765 369.195 500.662C367.466 496.968 367.506 467.277 367.524 461.322Z" fill="#FDE4CF"/>
<path d="M270.906 469.757L363.336 461.73C364.594 461.489 364.608 461.355 365.743 461.863C365.27 474.883 365.912 488.383 366.683 501.375C362.184 501.6 356.969 502.834 351.998 503.049C326.74 504.137 301.232 506.27 275.999 507.126C274.174 507.262 272.554 507.595 271.145 506.635C270.347 499.363 270.889 478.031 270.906 469.757Z" fill="#FDE4CF"/>
<path d="M251.97 471.619C256.837 471.092 261.689 470.66 266.562 470.22C267.944 469.962 267.874 469.907 269.221 470.235C269.594 472.118 269.437 480.097 269.441 482.393L269.493 507.198C264.978 506.848 260.756 506.598 256.231 506.427C254.804 506.405 253.844 506.56 252.661 505.803C251.805 500.925 251.996 477.97 251.97 471.619Z" fill="#FDE4CF"/>
<path d="M774.152 506.902L773.051 471.84L787.477 471.959C787.515 483.753 787.134 495.549 787.177 507.391C783.753 507.448 777.964 506.98 774.152 506.902Z" fill="#8EECF5"/>
<path d="M653.77 483.63L689.776 481.718C693.515 481.584 694.797 481.683 698.517 482.188C698.592 484.664 698.976 487.623 697.648 489.672C694.895 490.213 688.747 490.14 685.53 490.267C677.878 490.569 670.271 490.676 662.622 491.389C660.75 491.458 658.97 491.874 657.132 492.233C655.305 488.868 654.72 487.247 653.77 483.63Z" fill="#FFEDE1"/>
<path d="M702.547 490.789C700.493 490.802 700.936 491.085 699.367 490.195C698.595 488.254 699.504 485.402 699.948 483.211C701.614 483.997 702.786 484.308 703.759 485.838C704.088 487.549 703.214 489.108 702.547 490.789Z" fill="#8EECF5"/>
<path d="M538.195 507.597C538.572 503.618 539.912 499.706 540.496 495.748C540.729 494.174 540.505 492.986 540.716 491.177C545.657 489.79 561.019 489.775 566.876 489.216C594.154 486.615 621.782 486.488 649.073 484.721C649.633 484.633 650.82 484.398 651.11 484.771C653.822 488.258 658.494 498.888 659.815 502.438C651.889 503.671 637.221 503.875 628.595 504.367C602.71 505.844 576.558 506.505 550.625 507.46L538.195 507.597Z" fill="#FFEDE1"/>
<path d="M509.15 499.462C506.196 499.592 502.835 500.235 500.657 498.427C500.157 496.565 500.161 497.489 500.776 495.557C504.778 491.515 524.089 490.729 530.442 490.217C538.487 489.138 539.776 492.004 538.293 499.094C529.485 498.888 518.325 499.429 509.15 499.462Z" fill="#FFEDE1"/>
<path d="M662.085 501.053L661.888 501.399C660.526 498.768 660.027 496.482 659.234 493.64C670.972 492.317 685.038 491.877 696.818 492.152C696.247 494.594 695.728 497.079 695.193 499.532C682.712 499.349 674.464 499.992 662.085 501.053Z" fill="#FFEDE1"/>
<path d="M703.09 501.295C703.396 498.372 703.425 495.252 703.521 492.301C708.667 492.601 726.383 498.712 732.743 500.474C746.606 504.314 757.453 506.655 771.613 509.154L771.514 515.668C754.428 514.206 719.981 506.004 703.09 501.295Z" fill="#8EECF5"/>
<path d="M700.832 500.93C699.188 500.652 698.468 500.717 697.345 499.509C696.779 497.625 697.798 495.123 698.369 493.109C702.592 494.168 701.313 497.191 700.832 500.93Z" fill="#8EECF5"/>
<path d="M395.642 501.119C399.194 500.845 402.891 500.439 406.438 500.054C433.007 497.169 459.485 496.044 486.184 495.279C490.034 495.095 493.99 495.009 497.852 494.879C498.533 499.45 501.487 503.903 503.08 509.151C499.422 509.567 485.135 511.425 482.914 510.723C467.058 505.713 453.894 501.903 437.277 507.564C429.315 510.277 425.433 512.852 416.047 513.422C409.792 513.573 403.812 514.039 397.601 514.477C392.453 514.84 395.236 503.801 395.642 501.119Z" fill="#FFEDE1"/>
<path d="M856.425 693.464L856.376 694.099C855.294 709.347 856.417 727.39 855.966 742.875C855.804 748.412 856.427 759.007 855.271 763.81C853.085 760.643 854.356 711.349 854.482 703.766C854.547 688.832 855.021 673.144 855.527 658.199C827.536 652.888 804.985 633.606 799.775 604.975C793.209 568.889 807.273 507.27 849.99 499.448C892.153 491.729 925.113 524.336 932.251 564.007C939.749 605.677 916.064 649.695 872.731 657.926C869.168 672.537 867.644 685.227 866.287 700.205C865.162 710.839 864.666 760.092 862.508 765.211L862.691 764.567L862.152 764.144C861.666 756.855 862.161 745.733 862.473 738.121C862.92 727.218 862.998 713.312 864.377 702.654C865.033 687.936 867.686 672.558 870.903 658.2C866.109 658.639 861.851 658.467 857.071 658.333C857.007 669.858 856.137 682.028 856.425 693.464ZM859.3 500.207C844.231 501.293 831.894 505.886 822.077 517.789C805.332 538.09 798.481 568.861 800.276 594.627C802.576 627.652 823.646 649.71 855.484 656.289C857.6 632.962 861.191 607.935 879.639 591.412C883.272 588.158 887.349 585.973 891.733 589.044C894.805 595.14 893.183 603.683 890.873 609.797C884.731 626.056 877.818 638.877 873.155 655.905C941.317 641.848 951.074 547.274 896.412 510.465C886.576 503.842 871.31 498.791 859.3 500.207ZM886.794 588.9C865.19 599.732 858.296 634.683 857.327 656.448L863.189 656.567C865.855 656.479 868.773 656.44 871.415 656.284C873.416 648.886 875.686 641.818 878.406 634.637C880.908 628.031 901.281 590.474 886.794 588.9Z" fill="#180502"/>
<path d="M855.482 656.29C823.644 649.711 802.574 627.653 800.274 594.628C798.479 568.862 805.33 538.091 822.075 517.79C831.892 505.887 844.229 501.294 859.298 500.208C871.308 498.792 886.574 503.843 896.41 510.466C951.072 547.275 941.315 641.849 873.153 655.906C877.816 638.878 884.729 626.057 890.871 609.798C893.181 603.684 894.803 595.141 891.731 589.045C887.347 585.974 883.27 588.159 879.637 591.413C861.189 607.936 857.598 632.963 855.482 656.29Z" fill="#B9FBC0"/>
<path d="M535.936 507.227C526.333 506.946 516.86 507.397 507.264 507.445C507.906 507.442 504.994 508.369 505.496 508.2C504.471 507.174 503.31 502.704 502.789 501.045L537.32 500.914C537.042 502.721 536.757 505.734 535.936 507.227Z" fill="#FFEDE1"/>
<path d="M661.886 501.401L662.083 501.055C662.866 503.067 663.484 506.153 665.012 507.472C666.885 508.032 667.343 507.879 669.247 507.688L671.035 585.425C671.633 630.009 670.676 683.148 666.903 727.512C648.594 725.224 630.158 723.997 611.763 722.637C585.428 720.69 559.051 718.921 532.66 717.887C534.804 657.113 534.912 595.351 533.44 534.505C533.365 531.399 532.466 521.552 533.657 519.197C534.21 519.043 534.669 518.847 535.2 518.862C541.29 516.622 537.074 513.72 538.859 509.242C546.179 509.712 559.329 508.881 567.134 508.629L624.837 506.263C630.794 505.963 656.866 505.07 661.462 503.976C662.411 502.784 662.051 503.481 661.886 501.401ZM632.561 543.767L581.396 544.481C574.064 544.575 556.998 544.579 550.308 545.553C549.399 558.422 550.237 580.913 550.129 594.872L549.845 628.228C549.792 635.484 549.589 645.249 550.354 652.332C557.722 652.824 565.769 653.511 573.088 653.573C595.34 655.03 630.707 656.229 652.881 655.741C653.356 631.288 653.702 606.867 653.549 582.409C653.47 569.639 653.78 556.159 653.365 543.469C646.442 543.534 639.476 543.557 632.561 543.767Z" fill="#8EECF5"/>
<path d="M363.693 511.459C353.926 501.753 365.94 502.769 373.007 502.276C375.734 502.085 378.648 501.906 381.386 501.711C385.292 501.359 389.705 501.437 393.671 501.418C393.38 504.485 392.921 506.752 392.326 509.769L372.623 510.928L363.693 511.459Z" fill="#FFEDE1"/>
<path d="M686.126 505.491C682.193 505.521 666.424 506.907 665.441 503.376L665.947 502.729C669.159 502.211 673.066 501.984 676.361 501.712C679.297 501.298 692.29 500.695 694.338 502.107C693.991 504.227 694.426 503.349 693.149 504.91C691.036 505.767 688.484 505.508 686.126 505.491Z" fill="#8EECF5"/>
<path d="M692.004 507.501C694.74 507.533 697.345 508.41 699.571 507.479C700.857 505.741 700.459 505.711 700.737 503.188C704.321 503.681 707.809 504.473 711.308 505.379C731.162 510.521 750.344 514.735 770.65 517.714C771.278 520.888 772.743 523.762 773.077 526.699C774.405 538.365 774.356 550.317 774.209 562.001L773.648 600.399L773.014 664.454C772.873 679.623 772.509 695.482 772.8 710.605C766.486 711.696 758.627 713.666 752.255 715.076C732.701 719.599 712.903 724.879 693.458 729.921L692.004 507.501ZM716.056 557.42C715.186 567.733 716.095 587.067 716.332 598.043C716.633 611.913 716.309 628.88 717.135 642.384C732.802 642.828 750.128 641.427 765.925 640.942L766.993 640.243C766.896 637.323 766.388 634.339 766.295 631.316C765.586 608.479 765.323 585.61 764.977 562.762C755.557 561.162 744.664 560.318 735.08 559.279C730.035 558.731 720.789 557.466 716.056 557.42Z" fill="#8EECF5"/>
<path d="M270.964 508.962C298.182 508.081 325.5 505.912 352.758 504.72C355.927 504.64 355.441 504.199 357.899 505.481C358.846 506.573 358.798 506.677 358.944 508.061L359.012 508.762C359.281 511.303 359.58 511.247 361.727 512.856C364.12 514.648 364.315 515.365 365.66 517.997C357.334 518.939 345.95 519.142 337.27 519.564L283.063 522.365L275.743 522.647C268.43 522.97 270.7 514.35 270.964 508.962Z" fill="#FDE4CF"/>
<path d="M403.246 557.52C404.492 545.549 406.193 535.211 414.218 525.719C424.148 513.973 435.382 508.702 450.387 507.2C472.276 504.357 489.713 516.496 498.772 535.958C501.881 542.637 502.457 547.945 502.888 555.221C487.315 555.297 471.266 555.61 455.708 555.961C438.183 556.003 420.666 557.375 403.246 557.52ZM450.876 510.712C427.668 512.631 410.56 529.182 409.717 552.767C423.518 552.502 442.819 550.666 455.376 550.971C466.004 551.218 486.721 550.649 497.296 549.632C494.18 534.956 489.971 526.144 477.059 517.177C470.233 512.437 459.157 509.696 450.876 510.712Z" fill="#FFEDE1"/>
<path d="M668.773 727.748C671.278 687.091 673.095 647.666 672.979 606.841C672.885 573.605 671.401 540.711 670.905 507.555C677.484 507.394 683.868 507.429 690.45 507.481L691.376 659.07L691.483 705.068C691.501 711.458 691.924 723.421 691.355 729.461C690.094 730.258 690.308 729.965 688.468 729.791L668.773 727.748Z" fill="#FFEDE1"/>
<path d="M247.406 517.653C247.408 513.503 247.503 511.833 248.68 507.949C254.152 508.465 262.924 508.37 269.085 508.73C269.02 510.808 269.336 517.523 268.516 518.725C261.478 518.407 254.435 518.124 247.406 517.653Z" fill="#FDE4CF"/>
<path d="M536.238 509.106C537.12 508.72 537.705 509.043 538.86 509.241C537.075 513.719 541.291 516.621 535.201 518.861L534.918 517.001L536.044 515.941C536.763 513.664 536.396 511.531 536.238 509.106Z" fill="#180502"/>
<path d="M773.863 515.677C773.801 513.33 773.906 510.974 773.976 508.625C781.193 508.84 786.47 509.257 793.498 510.288L792.123 515.893C790.36 517.196 776.81 515.866 773.863 515.677Z" fill="#FFEDE1"/>
<path d="M505.359 510.226C512.055 509.733 518.765 509.499 525.474 509.219L527.499 509.313C528.961 510.29 530.091 512.519 531.064 514.087C523.423 513.604 518.357 513.749 510.62 514.388L507.186 514.612C505.729 513.364 505.901 512.397 505.359 510.226Z" fill="#FFEDE1"/>
<path d="M534.918 517L533.705 516.736L534.534 516.249C535.323 514.151 529.136 512.916 530.644 509.571C532.47 509.207 534.371 509.189 536.238 509.105C536.396 511.53 536.763 513.663 536.044 515.94L534.918 517Z" fill="#FFEDE1"/>
<path d="M409.715 552.766C410.558 529.181 427.666 512.63 450.874 510.711C459.155 509.695 470.231 512.437 477.057 517.177C489.969 526.144 494.178 534.955 497.294 549.631C486.719 550.648 466.002 551.218 455.374 550.971C442.817 550.666 423.516 552.501 409.715 552.766ZM432.622 543.057C427.979 540.248 421.148 535.857 416.508 533.495C414.636 537.204 413.953 539.513 412.681 543.507C412.338 545.998 411.947 548.564 411.668 551.056C415.966 550.985 439.222 550.293 442.574 549.456L442.62 548.987C441.591 548.256 440.502 547.417 439.413 546.812L432.622 543.057ZM478.901 520.704C476.459 523.56 463.844 541.273 463.781 543.811C461.454 544.827 459.914 545.305 458.87 547.622L459.079 548.732C461.552 549.383 460.58 549.481 462.845 548.64C463.449 547.569 464.509 545.625 465.199 544.659C472.581 538.919 479.037 533.833 486.048 527.648C484.049 525.439 481.113 522.8 478.901 520.704ZM450.821 512.143C448.58 512.457 448.028 512.125 446.665 513.353C446.538 520.155 449.115 542.193 450.148 548.959C453.296 547.785 453.434 544.607 453.199 541.582C452.821 536.726 453.678 515.473 451.991 512.371L450.821 512.143ZM454.634 512.417C454.734 523.315 455.042 534.169 454.996 545.066C456.662 541.648 458.469 538.083 459.986 534.617C462.784 528.716 466.726 521.023 469.165 515.15C463.883 513.609 460.164 512.932 454.634 512.417ZM444.439 513.042C438.044 515.504 435.139 516.834 429.389 520.491C433.988 525.751 438.511 531.469 441.947 537.581C443.665 540.537 445.985 544.802 447.944 547.442C447.402 543.242 444.918 514.221 444.439 513.042ZM470.737 515.794C467.352 522.955 464.032 530.239 460.691 537.429C458.724 541.664 455.497 544.308 454.658 547.593L454.985 548.434C456.485 548.216 457.713 546.68 458.871 545.556C461.457 541.702 464.329 538.311 466.969 534.549C470.455 529.582 473.749 524.4 477.365 519.514C475.209 518.255 472.974 516.879 470.737 515.794ZM427.159 521.888L422.017 526.059C427.882 531.74 439.997 542.887 444.769 548.711C446.431 549.425 445.668 549.453 447.176 549.196L447.094 549.18C443.942 544.346 431.334 522.907 427.159 521.888ZM420.836 527.287C419.657 528.719 418.356 530.225 417.298 531.735C423.858 535.624 430.09 539.721 436.541 543.598L437.62 543.677C437.42 543.355 421.755 527.949 420.836 527.287ZM487.178 529.392C483.23 532.76 466.605 545.364 465.372 548.012L465.867 548.166L468.017 546.855C475.107 543.163 483.749 538.797 491.113 535.768C490.187 534.185 488.253 530.658 487.178 529.392ZM491.279 537.46C488.413 539.024 469.872 547.282 469.183 548.763C470.585 548.917 470.237 548.949 471.621 548.777C479.26 548.445 487.362 548.089 494.969 547.525C494.286 544.969 493.077 539.163 491.279 537.46Z" fill="#461404"/>
<path d="M483.062 513.109C488.616 512.309 494.571 511.791 500.178 511.207C502.207 510.975 501.774 510.737 503.422 511.439C504.779 513.195 505.005 515.8 505.453 518.084L509.633 519.623C509.598 523.965 510.284 553.203 508.652 554.762C506.926 554.983 506.747 555.244 505.272 554.658C504.379 552.791 504.201 547.926 503.908 545.39C501.234 531.869 493.481 521.715 483.062 513.109Z" fill="#FFEDE1"/>
<path d="M386.335 515.447C380.446 515.063 372.862 516.837 367.352 516.003C366.867 515.929 366.214 513.985 365.91 513.278C367.358 512.27 389.065 511.341 391.768 511.712C391.477 513.785 391.835 513.601 390.687 514.911C389.007 515.276 388.022 515.325 386.335 515.447Z" fill="#FFEDE1"/>
<path d="M391.769 511.711C392.148 512.355 393.283 514.149 393.337 514.771C393.043 517.221 392.203 520.077 394.062 521.956C396.272 521.349 395.521 517.786 395.246 515.941L396.785 514.556L397.503 514.857L397.677 515.517C397.588 517.743 397.819 522.36 396.335 523.691C395.024 524.864 393.709 524.502 392.161 525.014L390.778 524.69L390.28 523.99L390.372 522.309C390.464 519.919 390.513 518.683 390.297 516.324L390.152 515.835L386.336 515.446C388.023 515.324 389.008 515.275 390.688 514.91C391.836 513.6 391.478 513.784 391.769 511.711Z" fill="#461404"/>
<path d="M450.148 548.961C449.115 542.195 446.538 520.157 446.665 513.355C448.028 512.127 448.58 512.459 450.821 512.145L451.991 512.373C453.678 515.475 452.821 536.728 453.199 541.584C453.434 544.609 453.296 547.787 450.148 548.961Z" fill="#FFEDE1"/>
<path d="M454.999 545.067C455.045 534.17 454.737 523.316 454.637 512.418C460.167 512.933 463.886 513.61 469.168 515.151C466.729 521.024 462.787 528.717 459.989 534.618C458.472 538.084 456.665 541.649 454.999 545.067Z" fill="#FFEDE1"/>
<path d="M429.391 520.492C435.141 516.835 438.046 515.505 444.441 513.043C444.92 514.222 447.404 543.243 447.946 547.443C445.987 544.803 443.667 540.538 441.949 537.582C438.513 531.47 433.99 525.752 429.391 520.492Z" fill="#FFEDE1"/>
<path d="M397.676 515.518C401.786 516.365 418.004 515.018 423.229 514.871C407.632 527.516 402.783 537.425 401.373 557.599L392.769 558.016C392.413 552.12 392.878 527.88 392.16 525.015C393.708 524.503 395.023 524.865 396.334 523.692C397.818 522.361 397.587 517.744 397.676 515.518Z" fill="#FFEDE1"/>
<path d="M395.245 515.94C395.52 517.785 396.271 521.348 394.061 521.955C392.202 520.076 393.042 517.22 393.336 514.77L395.245 515.94Z" fill="#FFEDE1"/>
<path d="M527.625 517.463C521.936 517.666 514.726 518.2 509.279 517.002L509.148 516.571L510.539 516.034L510.316 515.984L514.383 515.716C519.894 515.554 526.335 515.177 531.71 516.057L532.059 516.551C530.106 517.752 530.271 517.349 527.625 517.463Z" fill="#FFEDE1"/>
<path d="M458.873 545.559C457.715 546.683 456.487 548.219 454.987 548.437L454.66 547.596C455.499 544.311 458.726 541.667 460.693 537.432C464.034 530.242 467.354 522.958 470.739 515.797C472.976 516.882 475.211 518.258 477.367 519.517C473.751 524.403 470.457 529.585 466.971 534.552C464.331 538.314 461.459 541.705 458.873 545.559Z" fill="#FFEDE1"/>
<path d="M390.375 522.309C383.843 522.246 376.21 522.268 369.605 521.877C368.513 521.812 368.066 520.463 367.551 519.51L367.95 518.629C372.494 516.162 384.383 517.631 390.3 516.324C390.516 518.683 390.467 519.919 390.375 522.309Z" fill="#FFEDE1"/>
<path d="M790.092 523.627C785.208 523.638 778.156 524.481 774.428 522.005C773.262 520.433 773.452 519.49 773.391 517.516C777.309 517.78 787.193 518.247 790.319 519.152C790.817 520.43 790.322 522.175 790.092 523.627Z" fill="#FFEDE1"/>
<path d="M511.513 519.606C516.194 519.548 520.705 519.417 525.382 519.221L531.182 518.961C531.585 533.239 532.47 547.529 532.542 561.809C532.807 613.797 532.314 665.686 530.895 717.659C524.885 717.439 519.443 717.109 513.449 716.615C511.873 716.644 510.861 716.799 509.397 716.206C508.294 714.479 509.026 693.828 509.091 690.038L510.706 612.73C510.818 605.389 510.921 593.983 510.989 586.254C511.002 584.792 513.431 586.27 514.979 584.478C514.294 574.957 514.12 565.465 513.362 556.031C512.637 555.178 512.509 555.13 511.575 554.535C510.948 545.487 511.477 529.17 511.513 519.606Z" fill="#FFEDE1"/>
<path d="M269.643 525.15C265.702 525.473 253.922 525.025 250.373 523.909C249.154 522.96 248.708 521.113 248.145 519.59C253.037 519.762 264.517 519.686 268.561 520.69C269.755 522.37 269.398 522.748 269.643 525.15Z" fill="#FFEDE1"/>
<path d="M271.522 696.873C271.527 688.37 271.104 679.913 271.006 671.409L269.989 572.129L269.75 546.023C269.689 540.733 269.401 533.505 270.072 528.371C270.959 527.263 270.851 527.477 272.147 526.867C272.232 525.703 272.183 525.943 272.495 524.785C276.406 523.892 295.027 523.322 299.731 523.093L355.185 520.291C358.078 519.974 361.867 519.921 364.836 519.801C365.9 521.433 366.275 521.953 367.573 523.393C369.04 523.754 369.443 523.838 370.874 524.441C371.501 526.737 370.543 562.597 370.522 567.734L370.521 705.109C346.337 703.966 317.805 700.522 293.122 698.604C286.315 698.282 278.399 697.435 271.522 696.873ZM329.187 552.723C316.249 553.177 295.419 553.169 283.492 554.534C282.988 572.853 283.151 591.157 282.909 609.477C282.818 616.366 281.758 623.535 281.994 630.369C282.048 631.911 282.583 633.77 283.603 634.952C285.918 637.634 308.24 636.985 313.118 637.379C319.209 637.544 354.378 639.444 356.959 637.076C358.301 631.305 358.117 616.841 358.216 610.049L358.482 552.529C349.208 552.474 338.328 552.256 329.187 552.723Z" fill="#FDE4CF"/>
<path d="M463.781 543.81C463.844 541.272 476.459 523.559 478.901 520.703C481.113 522.799 484.049 525.438 486.048 527.647C479.037 533.832 472.581 538.918 465.199 544.658L463.781 543.81Z" fill="#FFEDE1"/>
<path d="M422.02 526.062L427.162 521.891C431.337 522.91 443.945 544.349 447.097 549.183L447.179 549.199C445.671 549.456 446.434 549.428 444.772 548.714C440 542.89 427.885 531.743 422.02 526.062Z" fill="#FFEDE1"/>
<path d="M128.208 648.415C118.325 637.116 112.528 628.538 108.884 613.55C102.088 585.594 109.975 555.698 132.108 536.801C156.955 515.587 192.477 519.746 212.827 544.803C245.351 583.319 244.513 656.522 186.475 669.47C186.631 674.285 186.825 678.906 187.126 683.724C188.034 699.213 189.61 714.217 191.308 729.614C191.996 735.863 193.972 747.37 194.259 752.877L193.686 752.477C190.677 746.932 186.552 692.698 185.882 683.724C185.492 679.557 185.398 674.172 185.171 669.875C179.118 670.66 174.428 670.572 168.408 670.399C168.657 673.983 169.111 677.833 169.467 681.431C170.379 700.598 173.145 720.94 174.473 740.192C174.668 743.021 176.12 756.913 175.707 758.883C172.942 754.089 170.29 695.786 168.255 684.774L167.977 679.867C167.89 676.829 167.6 673.348 167.418 670.277C151.427 665.959 140.097 659.664 128.208 648.415ZM163.313 524.656C90.812 535.783 87.4229 649.977 167.173 668.714C166.23 656.195 162.808 615.605 177.245 611.436C182.515 613.141 185.246 617.701 185.781 622.929C187.278 637.557 185.688 653.17 186.532 667.903C202.867 663.882 213.976 657.293 223.099 642.433C244.299 607.898 229.484 553.744 196.067 532.148C187.993 526.931 172.859 523.12 163.313 524.656ZM175.558 613.33C167.626 620.991 167.916 633.977 167.543 644.461C167.321 650.664 167.557 663.035 168.541 668.973C172.03 669.137 174.697 669.248 178.179 669.092L185.087 668.298C184.647 657.209 184.78 646.563 185.069 635.474C185.245 628.745 185.462 612.598 175.558 613.33Z" fill="#180502"/>
<path d="M372.621 523.945L390.283 523.991L390.781 524.691C390.443 535.865 390.719 547.044 390.452 558.213C390.43 559.141 388.999 560.875 388.901 561.584C388.325 565.738 387.738 582.885 389.101 585.907C390.526 586.252 390.565 586.258 391.864 586.931C392.805 588.286 393.257 589.676 393.293 591.336C393.524 602.218 393.462 613.401 393.56 624.261L393.803 706.457C386.73 705.748 379.577 705.725 372.422 705.029L372.437 571.935C372.511 555.991 372.32 539.866 372.621 523.945Z" fill="#FFEDE1"/>
<path d="M167.173 668.714C87.4226 649.977 90.8117 535.783 163.313 524.656C172.859 523.12 187.993 526.931 196.067 532.148C229.484 553.744 244.299 607.898 223.099 642.433C213.976 657.293 202.867 663.882 186.532 667.903C185.688 653.17 187.278 637.557 185.781 622.929C185.246 617.701 182.515 613.141 177.245 611.436C162.808 615.605 166.23 656.195 167.173 668.714Z" fill="#CFBAF0"/>
<path d="M774.981 710.07C774.542 690.296 775.071 668.934 775.3 649.155L775.57 598.993C775.95 573.506 776.451 550.435 775.276 524.957C778.962 525.004 783.267 525.384 786.997 525.626C788.607 573.464 786.153 622.115 786.577 670.012C786.694 683.259 786.615 697.116 785.985 710.333C783.987 710.498 777.174 710.135 774.981 710.07Z" fill="#8EECF5"/>
<path d="M252.734 695.604C253.167 683.366 252.949 670.045 253.025 657.707L253.52 607.231C253.528 581.202 253.245 553.344 254.381 527.402C258.951 527.609 263.546 528.162 268.056 527.485L269.108 653.446C269.25 667.656 269.937 682.437 269.766 696.551C263.779 696.444 258.69 696.082 252.734 695.604Z" fill="#FDE4CF"/>
<path d="M417.301 531.737C418.359 530.227 419.66 528.721 420.839 527.289C421.758 527.951 437.423 543.357 437.623 543.679L436.544 543.6C430.093 539.723 423.861 535.626 417.301 531.737Z" fill="#FFEDE1"/>
<path d="M468.016 546.858L465.866 548.169L465.371 548.015C466.604 545.367 483.229 532.763 487.177 529.395C488.252 530.661 490.186 534.188 491.112 535.771C483.748 538.8 475.106 543.166 468.016 546.858Z" fill="#FFEDE1"/>
<path d="M414.759 542.557L412.684 543.508C413.956 539.514 414.639 537.205 416.511 533.496C421.151 535.858 427.982 540.249 432.625 543.058L439.416 546.813C437.121 547.562 435.566 547.935 433.169 547.241L431.718 545.384C428.729 545.031 415.949 542.227 414.759 542.557Z" fill="#FDE4CF"/>
<path d="M471.622 548.778C470.238 548.95 470.586 548.918 469.184 548.764C469.873 547.283 488.414 539.025 491.28 537.461C493.078 539.164 494.287 544.97 494.97 547.526C487.363 548.09 479.261 548.446 471.622 548.778Z" fill="#FFEDE1"/>
<path d="M414.758 542.558C415.948 542.228 428.728 545.032 431.717 545.385L433.168 547.242C427.231 546.064 420.269 544.999 414.758 542.558Z" fill="#FAC890"/>
<path d="M412.681 543.51L414.756 542.559C420.267 545 427.229 546.065 433.166 547.243C435.563 547.937 437.118 547.564 439.413 546.815C440.502 547.42 441.591 548.259 442.62 548.99L442.574 549.459C439.222 550.296 415.966 550.988 411.668 551.059C411.947 548.567 412.338 546.001 412.681 543.51Z" fill="#FFEDE1"/>
<path d="M550.308 545.553C556.998 544.579 574.064 544.575 581.396 544.481L632.561 543.767C639.476 543.557 646.442 543.534 653.365 543.469C653.78 556.159 653.47 569.639 653.549 582.409C653.702 606.867 653.356 631.288 652.881 655.741C630.707 656.229 595.34 655.03 573.088 653.573C565.769 653.511 557.722 652.824 550.354 652.332C549.589 645.249 549.792 635.484 549.845 628.228L550.129 594.872C550.237 580.913 549.399 558.422 550.308 545.553ZM643.495 545.227L585.499 546.056C576.523 546.146 560.328 545.994 551.872 546.853C552.012 577.788 551.201 609.621 551.664 640.284C555.401 640.44 559.142 640.58 562.875 640.808C590.684 641.979 623.698 643.064 651.453 642.214C651.79 609.892 652.193 577.299 651.744 544.987L643.495 545.227ZM551.79 642.302L552.055 650.459C564.155 651.514 644.673 655.604 651.015 653.419C651.24 650.1 651.419 647.28 651.402 643.956C618.539 644.701 584.656 643.523 551.79 642.302Z" fill="#180502"/>
<path d="M463.782 543.812L465.2 544.66C464.51 545.626 463.45 547.57 462.846 548.641C460.581 549.482 461.553 549.384 459.08 548.733L458.871 547.623C459.915 545.306 461.455 544.829 463.782 543.812Z" fill="#FFEDE1"/>
<path d="M551.872 546.85C560.328 545.991 576.523 546.143 585.499 546.053L643.495 545.224L651.744 544.984C652.193 577.296 651.79 609.889 651.453 642.211C623.698 643.061 590.684 641.976 562.875 640.805C559.142 640.577 555.401 640.437 551.664 640.281C551.201 609.618 552.012 577.785 551.872 546.85ZM614.184 554.248C595.374 554.413 576.297 554.461 557.519 555.205C557.214 565.411 558.164 576.17 558.379 586.427C558.704 601.999 558.948 617.586 559.082 633.163C568.113 632.609 580.43 633.782 589.749 633.992C607.384 634.567 627.217 635.479 644.737 634.972C645.426 618.304 644.719 600.017 644.606 583.279C644.557 576.101 644.886 560.858 644.021 554.321C634.47 554.053 623.789 554.039 614.184 554.248Z" fill="#FFEDE1"/>
<path d="M283.493 554.534C295.42 553.169 316.25 553.177 329.188 552.723C338.329 552.256 349.209 552.474 358.483 552.529L358.217 610.049C358.118 616.841 358.302 631.305 356.96 637.076C354.379 639.444 319.21 637.544 313.119 637.379C308.241 636.985 285.919 637.634 283.604 634.952C282.584 633.77 282.049 631.911 281.995 630.369C281.759 623.535 282.819 616.366 282.91 609.477C283.152 591.157 282.989 572.853 283.493 554.534ZM338.292 554.23C321.737 554.54 301.228 554.544 284.953 555.752L284.548 593.161C284.527 603.899 284.776 615.777 284.136 626.427C291.344 626.596 298.179 626.873 305.377 627.286C322.167 627.906 339.314 628.746 356.074 629.14C356.769 616.988 356.441 602.944 356.573 590.624C356.697 579.128 357.074 565.387 356.448 554.089C350.548 554.111 344.153 554.028 338.292 554.23ZM283.049 627.762C283.003 629.935 282.62 632.433 284.339 634.075C286.092 635.749 349.433 636.803 356.039 636.673C356.068 634.8 356.306 632.912 355.49 631.281C349.151 630.379 336.309 630.186 329.554 629.902L283.049 627.762Z" fill="#2D0B01"/>
<path d="M284.954 555.749C301.229 554.541 321.738 554.537 338.293 554.227C344.154 554.025 350.549 554.108 356.449 554.086C357.075 565.384 356.698 579.125 356.574 590.621C356.442 602.941 356.77 616.985 356.075 629.137C339.315 628.743 322.168 627.903 305.378 627.283C298.18 626.87 291.345 626.593 284.137 626.424C284.777 615.774 284.528 603.896 284.549 593.158L284.954 555.749ZM338.119 562.766C321.922 563.035 306.167 563.569 289.997 564.107C289.789 582.651 289.872 600.625 289.979 619.137C294.828 619.355 300.751 619.465 305.503 619.945C319.577 620.783 337.292 621.606 351.299 621.495C351.58 602.025 350.86 582.162 350.999 562.541L338.119 562.766Z" fill="#FDE4CF"/>
<path d="M557.521 555.206C576.299 554.462 595.376 554.414 614.186 554.249C623.791 554.04 634.472 554.054 644.023 554.322C644.888 560.859 644.559 576.102 644.608 583.28C644.721 600.018 645.428 618.305 644.739 634.973C627.219 635.48 607.386 634.568 589.751 633.993C580.432 633.783 568.115 632.61 559.084 633.164C558.95 617.587 558.706 602 558.381 586.428C558.166 576.171 557.216 565.412 557.521 555.206ZM610.667 556.238C593.785 556.42 575.717 556.217 558.974 556.958C560.036 582.09 560.498 605.823 560.969 630.959L593.282 632.392C608.871 632.889 627.727 633.806 643.087 633.2C643.537 610.703 642.967 588.196 642.876 565.698C642.864 562.601 642.772 559.515 642.521 556.428C632.727 555.7 620.575 556.078 610.667 556.238Z" fill="#180502"/>
<path d="M558.973 556.958C575.716 556.217 593.784 556.42 610.666 556.238C620.574 556.078 632.726 555.7 642.52 556.428C642.771 559.515 642.863 562.601 642.875 565.698C642.966 588.196 643.536 610.703 643.086 633.2C627.726 633.806 608.87 632.889 593.281 632.392L560.968 630.959C560.497 605.823 560.035 582.09 558.973 556.958Z" fill="#8EECF5"/>
<path d="M390.551 578.023C390.464 573.735 389.672 563.468 391.641 560.325C398.256 557.533 473.471 557.491 486.256 557.25C494.652 556.957 503.413 556.977 511.812 557.05C512.16 563.09 512.24 569.662 512.51 575.794C501.792 575.56 489.615 576.206 478.745 576.371L416.119 577.274L390.551 578.023Z" fill="#FFEDE1"/>
<path d="M717.136 642.387C716.31 628.883 716.634 611.916 716.333 598.046C716.096 587.07 715.187 567.735 716.057 557.422C720.79 557.468 730.036 558.733 735.081 559.281C744.665 560.32 755.558 561.164 764.978 562.764C765.324 585.612 765.587 608.481 766.296 631.318C766.389 634.341 766.897 637.326 766.994 640.246L765.926 640.945C750.129 641.43 732.803 642.831 717.136 642.387ZM717.794 559.442C717.465 565.783 717.672 572.559 717.897 578.931C718.622 599.414 718.273 620.029 718.985 640.491C725.207 640.506 762.435 640.197 765.186 638.16C767.411 630.012 761.994 631.31 756.025 631.36C747.195 631.435 738.213 631.394 729.4 631.634L723.463 631.969C723.089 611.16 722.571 589.612 722.467 568.81C725.513 569.443 728.602 569.736 731.695 570.033C742.189 571.039 752.643 572.34 763.097 573.698L763.043 564.144C750.618 562.462 737.94 561.672 725.478 560.183C723.035 559.891 720.216 559.543 717.794 559.442ZM724.47 571.461C724.777 590.465 724.613 610.828 725.548 629.698C738.36 629.576 751.152 629.43 763.965 629.496C763.782 611.631 763.723 593.458 763.098 575.614C751.779 574.212 735.617 571.851 724.47 571.461Z" fill="#180502"/>
<path d="M718.983 640.49C718.271 620.028 718.62 599.413 717.895 578.93C717.67 572.558 717.463 565.782 717.792 559.441C720.214 559.542 723.033 559.89 725.476 560.182C737.938 561.671 750.616 562.461 763.041 564.143L763.095 573.697C752.641 572.339 742.187 571.038 731.693 570.032C728.6 569.735 725.511 569.442 722.465 568.809C722.569 589.611 723.087 611.159 723.461 631.968L729.398 631.633C738.211 631.393 747.193 631.434 756.023 631.359C761.992 631.309 767.409 630.011 765.184 638.159C762.433 640.196 725.205 640.505 718.983 640.49Z" fill="#8EECF5"/>
<path d="M289.996 564.109C306.166 563.571 321.921 563.037 338.118 562.768L350.998 562.543C350.859 582.164 351.579 602.027 351.298 621.497C337.291 621.608 319.576 620.785 305.502 619.947C300.75 619.467 294.827 619.357 289.978 619.139C289.871 600.627 289.788 582.653 289.996 564.109ZM318.398 564.777L291.497 565.553L291.653 617.648C302.219 618.241 313.141 618.921 323.699 619.092C332.317 619.508 340.869 619.693 349.487 619.964C349.441 601.842 349.761 582.439 349.32 564.432C339.184 564.477 328.483 564.355 318.398 564.777Z" fill="#2D0B01"/>
<path d="M291.496 565.551L318.397 564.775C328.482 564.353 339.183 564.475 349.319 564.43C349.76 582.437 349.44 601.84 349.486 619.962C340.868 619.691 332.316 619.506 323.698 619.09C313.14 618.919 302.218 618.239 291.652 617.646L291.496 565.551Z" fill="#FDE4CF"/>
<path d="M725.547 629.698C724.612 610.828 724.776 590.465 724.469 571.461C735.616 571.851 751.778 574.212 763.097 575.614C763.722 593.458 763.781 611.631 763.964 629.496C751.151 629.43 738.359 629.576 725.547 629.698Z" fill="#8EECF5"/>
<path d="M398.635 579.508C429.015 577.918 459.138 578.524 489.383 577.724C492.228 577.463 495.637 577.412 498.516 577.382C502.155 577.344 508.795 576.343 506.278 582.097C505.298 583.048 504.316 583.709 502.894 583.673C496.206 583.503 489.565 583.529 482.876 583.646L415.38 584.548L398.449 584.985L398.635 579.508Z" fill="#FFEDE1"/>
<path d="M512.974 583.531C511.455 583.552 510.557 583.697 509.158 583.091C508.079 581.226 508.497 579.86 508.522 577.435C510.047 577.396 510.674 577.259 512.086 577.874C513.212 579.319 512.941 581.585 512.974 583.531Z" fill="#FFEDE1"/>
<path d="M396.688 584.93C394.643 584.807 392.529 585.171 390.742 584.303C389.679 582.501 390.06 581.803 390.073 579.48C392.074 579.425 394.423 579.117 396.16 579.944C397.12 581.278 396.767 583.182 396.688 584.93Z" fill="#FFEDE1"/>
<path d="M455.758 585.914C465.23 585.445 474.886 585.394 484.381 585.249C487.235 585.178 490.084 585.389 492.937 585.542C493.291 591.224 493.322 596.774 493.459 602.455C494.365 640.199 495.495 677.864 495.754 715.618C486.514 715.576 477.346 715.207 468.116 714.873C464.503 714.59 460.194 714.57 456.523 714.462L455.758 585.914Z" fill="#FFEDE1"/>
<path d="M497.84 716.053C497.009 706.777 497.246 690.269 497.055 680.493L495.607 621.842C495.313 610.04 495.301 597.135 494.508 585.43C499.408 585.356 504.257 585.427 509.154 585.487C509.614 608.863 508.551 634.986 507.88 658.407L506.748 714.875C506.499 715.623 506.704 715.205 505.962 716.03C503.317 716.586 500.574 716.224 497.84 716.053Z" fill="#FFEDE1"/>
<path d="M409.004 586.411C420.896 585.838 433.744 586.445 445.245 585.656C446.294 627.665 444.445 671.744 446.3 713.663C441.197 714.079 418.799 712.513 412.448 712.234C410.311 670.98 410.699 627.786 409.004 586.411ZM438.472 645.389C437.015 646.897 435.964 647.793 436.186 650.045C436.804 656.293 438.219 655.049 435.547 661.057C436.21 663.099 436.528 664.963 438.062 666.344C439.894 667.105 440.424 666.926 442.375 666.776C443.117 664.829 444.824 661.169 443.299 659.217C439.57 654.442 450.146 645.941 438.472 645.389Z" fill="#FFEDE1"/>
<path d="M445.242 585.656L447.004 585.838C447.634 616.663 447.017 647.351 447.548 678.158C447.754 690.162 448.011 702.171 448.259 714.175L446.297 713.663C444.442 671.744 446.291 627.665 445.242 585.656Z" fill="#461404"/>
<path d="M447.008 585.84L454.147 585.875C454.023 628.533 455.132 671.632 454.869 714.376C452.942 714.252 450.1 713.965 448.263 714.177C448.015 702.173 447.758 690.164 447.552 678.16C447.021 647.353 447.638 616.665 447.008 585.84Z" fill="#FFEDE1"/>
<path d="M397.264 710.766C396.347 710.374 396.795 710.667 395.992 709.785C395.111 677.483 395.415 644.924 395.021 612.576C394.966 608.097 394.21 589.544 394.955 586.207L396.229 587.115C396.615 589.296 396.538 598.14 396.585 600.733L397.023 636.387C397.139 660.013 397.53 683.7 397.819 707.327C397.834 708.517 397.595 709.63 397.264 710.766Z" fill="#FDE4CF"/>
<path d="M399.539 711.492C399.781 692.666 399.013 673.098 398.661 654.245L397.84 586.508L407.532 586.418C407.676 628.006 409.772 670.392 410.494 712.098C406.978 712.064 403.08 711.729 399.539 711.492Z" fill="#FFEDE1"/>
<path d="M857.328 656.45C858.297 634.685 865.191 599.734 886.795 588.902C901.282 590.476 880.909 628.033 878.407 634.639C875.687 641.82 873.417 648.888 871.416 656.286C868.774 656.442 865.856 656.481 863.19 656.569L857.328 656.45Z" fill="#B9FBC0"/>
<path d="M168.54 668.976C167.556 663.038 167.32 650.667 167.542 644.464C167.915 633.98 167.625 620.994 175.557 613.333C185.461 612.601 185.244 628.748 185.068 635.477C184.779 646.566 184.646 657.212 185.086 668.301L178.178 669.095C174.696 669.251 172.029 669.14 168.54 668.976Z" fill="#CFBAF0"/>
<path d="M356.038 636.673C349.432 636.803 286.091 635.749 284.338 634.075C282.619 632.433 283.002 629.935 283.048 627.762L329.553 629.902C336.308 630.186 349.15 630.379 355.489 631.281C356.305 632.912 356.067 634.8 356.038 636.673Z" fill="#FDE4CF"/>
<path d="M552.054 650.458L551.789 642.301C584.655 643.522 618.538 644.7 651.401 643.955C651.418 647.279 651.239 650.099 651.014 653.418C644.672 655.603 564.154 651.513 552.054 650.458Z" fill="#FFEDE1"/>
<path d="M435.547 661.059C438.219 655.051 436.804 656.295 436.186 650.047C435.964 647.795 437.015 646.899 438.472 645.391C450.146 645.943 439.57 654.444 443.299 659.219C444.824 661.171 443.117 664.831 442.375 666.778C440.424 666.928 439.894 667.107 438.062 666.346C436.528 664.965 436.21 663.101 435.547 661.059ZM438.813 647.179C437.376 650.217 437.214 652.637 440.964 654.047C442.873 650.741 443.232 648.09 438.813 647.179ZM438.81 657.721C437.41 660.724 436.917 663.66 440.898 664.929C441.795 662.705 442.115 662.275 442.137 659.952C441.213 658.071 441.07 657.911 438.81 657.721Z" fill="#461404"/>
<path d="M440.962 654.048C437.212 652.638 437.374 650.218 438.811 647.18C443.23 648.091 442.871 650.742 440.962 654.048Z" fill="#FFEDE1"/>
<path d="M127.734 651.36L127.878 650.699L128.361 650.468C128.499 649.346 128.428 649.585 128.207 648.418C140.096 659.667 151.426 665.962 167.417 670.28C167.599 673.351 167.889 676.832 167.976 679.87C161.424 677.54 133.981 656.734 127.734 651.36Z" fill="#CFBAF0"/>
<path d="M440.897 664.931C436.916 663.662 437.409 660.726 438.809 657.723C441.069 657.913 441.212 658.073 442.136 659.954C442.114 662.277 441.794 662.707 440.897 664.931Z" fill="#FFEDE1"/>
<path d="M856.425 693.463C856.137 682.027 857.007 669.857 857.071 658.332C861.851 658.466 866.109 658.638 870.903 658.199C867.686 672.557 865.033 687.935 864.377 702.653C862.845 703.11 858.491 703.079 856.677 703.125C856.718 699.598 856.756 696.962 856.425 693.463Z" fill="#98F5E1"/>
<path d="M169.465 681.435C169.109 677.837 168.655 673.987 168.406 670.403C174.426 670.576 179.116 670.664 185.169 669.879C185.396 674.176 185.49 679.561 185.88 683.728C179.706 684.188 175.333 683.009 169.465 681.435Z" fill="#CFBAF0"/>
<path d="M187.125 683.727C201.723 684.311 220.92 679.904 235.551 677.347C240.758 676.437 246.206 674.515 251.48 673.41C251.477 677.32 251.847 692.884 250.587 695.378L249.852 695.616C248.982 695.907 248.598 696.062 247.782 696.432C247.158 698.408 247.781 742.974 248.055 747.658C254.167 748.912 261.879 749.569 268.225 750.274L298.524 753.644L331.223 757.46C336.652 758.132 344.044 759.306 349.337 759.682C347.078 762.982 342.035 769.438 342.536 773.474C345.845 777.029 456.046 788.277 472.138 791.123C476.801 791.948 502.343 778.872 508.906 774.712C528.296 775.91 548.193 777.27 567.506 779.188C563.361 782.163 519.166 792.644 512.709 794.296C477.076 803.41 442.903 814.859 410.662 832.877C408.1 834.308 397.632 839.882 395.884 841.399C369.304 855.955 343.382 873.998 314.725 884.385C298.654 890.211 275.571 896.052 258.327 895.558C210.171 894.176 161.706 877.232 118.007 857.903C100.952 849.479 68.9728 834.74 63.2098 815.002C48.6193 765.029 105.301 718.601 143.987 697.454C152.655 692.716 159.504 688.004 168.254 684.777C170.289 695.789 172.941 754.092 175.706 758.886C176.119 756.916 174.667 743.024 174.472 740.195C173.144 720.943 170.378 700.601 169.466 681.434C175.334 683.008 179.707 684.187 185.881 683.727C186.551 692.701 190.676 746.935 193.685 752.48L194.258 752.88C193.971 747.373 191.995 735.866 191.307 729.617C189.609 714.22 188.033 699.216 187.125 683.727Z" fill="#FDE4CF"/>
<path d="M866.289 700.204C869.453 699.963 876.072 698.418 879.426 697.56C898.246 692.743 913.944 686.777 928.791 674.105C942.719 689.369 958.072 706.014 956.904 728.064C955.538 753.85 926.515 768.786 906.019 778.07C897.017 782.147 888.829 786.383 879.504 789.58C831.794 806.949 781.414 806.055 732.067 815.711C718.903 818.287 705.56 821.768 692.62 825.314C677.244 829.527 661.924 833.127 646.488 836.932C592.943 850.128 540.081 852.724 485.24 849.737C466.511 848.717 447.05 846.381 428.317 844.539C418.074 843.532 405.962 841.542 395.887 841.396C397.635 839.879 408.103 834.305 410.665 832.874C442.906 814.856 477.079 803.407 512.712 794.293C519.169 792.641 563.364 782.16 567.509 779.185C570.689 779.937 585.738 781.148 589.724 781.562C616.42 784.338 643.288 785.866 669.819 790.296C675.076 791.174 686.163 792.794 690.858 794.551C700.86 787.94 717.923 783.195 729.314 778.879C750.172 770.976 773.298 763.172 792.913 752.438C792.969 740.59 792.564 724.236 793.291 712.75C795.334 713.064 800.67 712.688 802.823 712.49C814.166 711.446 825.665 709.179 836.847 707.027C842.657 705.909 848.633 704.199 854.484 703.766C854.358 711.349 853.087 760.642 855.273 763.809C856.429 759.006 855.806 748.411 855.968 742.874C856.419 727.389 855.296 709.346 856.378 694.098L856.427 693.464C856.758 696.963 856.72 699.598 856.679 703.125C858.493 703.079 862.847 703.111 864.379 702.654C863 713.312 862.922 727.217 862.475 738.12C862.163 745.732 861.668 756.854 862.154 764.143L862.693 764.566L862.51 765.21C864.668 760.091 865.164 710.838 866.289 700.204Z" fill="#B9FBC0"/>
<path d="M249.094 707.986C248.903 704.307 248.938 701.109 248.994 697.423C261.276 697.232 275.204 698.67 287.454 699.663L339.562 704.061L374.73 706.884C378.777 707.172 392.118 707.202 394.154 709.306L393.832 710.551C392.425 712.363 391.675 712.488 389.499 713.486C374.442 720.31 374.787 718.883 358.258 717.467L328.405 714.767L249.094 707.986Z" fill="#FDE4CF"/>
<path d="M249.421 746.497C249.162 734.174 249.683 721.727 249.172 709.441L375.628 720.278C369.94 726.785 363.951 735.073 359.179 742.237C356.28 746.706 351.715 753.883 349.572 758.538C340.082 756.573 328.049 755.747 318.288 754.465C295.659 751.494 271.932 749.805 249.421 746.497Z" fill="#FDE4CF"/>
<path d="M693.205 731.84C718.783 725.531 748.449 716.744 774.2 712.135C778.826 711.57 787.642 712.255 792.191 712.708C774.626 718.561 757.165 723.63 739.313 728.522C728.462 731.496 717.643 734.09 706.892 737.443L693.164 741.905L693.205 731.84Z" fill="#FDE4CF"/>
<path d="M364.148 737.99C376.091 721.072 375.58 721.613 393.917 713.477C397.236 712.991 421.916 714.457 426.951 714.739L480.693 717.277C489.176 717.604 498.674 718.293 507.063 718.202C504.131 721.917 500.569 728.013 498.003 732.168C491.537 730.916 470.499 729.913 462.876 729.417C434.836 726.876 405.279 725.144 377.169 723.459C379.11 729.223 378.239 733.853 377.392 739.76C373.212 739.429 368.352 738.601 364.148 737.99Z" fill="#FFEDE1"/>
<path d="M693.25 743.963C722.753 732.631 759.925 726.679 790.511 715.031L791.153 715.654C792.013 722.089 791.217 744.308 791.095 751.674C771.311 761.571 747.715 770.182 726.914 777.688C716.23 781.542 703.398 785.723 693.268 790.369L693.017 790.356C692.153 789.266 693.197 749.391 693.25 743.963Z" fill="#8EECF5"/>
<path d="M691.437 734.713C691.213 735.602 691.068 737.08 690.439 737.375C686.401 739.266 677.903 737.84 674.831 741.463C664.36 740.882 653.506 739.572 642.975 738.801L569.498 733.746C549.343 732.233 528.884 730.238 508.749 729.063C508.706 725.511 508.872 722.006 509.008 718.457C514.28 718.571 519.651 718.887 524.927 719.145C575.688 721.62 626.496 724.927 677.04 730.263C681.551 730.739 686.773 730.713 690.943 732.449C691.603 732.724 691.398 733.998 691.437 734.713Z" fill="#FFEDE1"/>
<path d="M473.996 768.783C478.229 763.056 486.195 755.916 489.52 750.578C495.116 741.596 500.694 731.457 506.377 722.398L506.767 722.829C507.179 725.83 507.127 737.836 507.016 741.756C506.746 751.319 507.587 765.184 506.424 774.249C503.409 776.059 497.026 778.978 493.628 780.599C487.758 783.401 480.718 787.221 474.768 789.529C474.141 784.371 474.131 774.14 473.996 768.783Z" fill="#FFEDE1"/>
<path d="M379.277 739.901C379.932 734.511 380.017 730.894 380.088 725.535L496.861 733.788L490.587 744.761L488.016 749.112C452.009 746.629 415.415 742.512 379.277 739.901Z" fill="#FFEDE1"/>
<path d="M508.941 730.809C514.217 731.071 519.754 731.538 525.033 732.028C569.916 736.191 615.253 737.857 660.091 742.124C659.871 742.447 659.548 743 659.165 743.131C632.829 752.151 607.893 764.681 582.094 775.083C579.813 776.003 577.888 776.456 575.995 778.103C553.601 776.723 531.497 773.956 508.766 773.06C509.221 759.355 508.979 744.549 508.941 730.809Z" fill="#FFEDE1"/>
<path d="M674.832 741.461C677.904 737.838 686.402 739.264 690.44 737.373C691.069 737.078 691.214 735.6 691.438 734.711L691.328 743.035C685.831 742.718 680.29 742.193 674.832 741.461Z" fill="#FDE4CF"/>
<path d="M357.498 755.396C355.96 755.166 355.885 755.126 354.429 754.553L354.211 753.869C355.987 749.48 360.026 743.64 362.742 739.73C364.175 739.786 364.422 739.605 365.507 740.44C366.659 744.098 365.134 752.009 364.56 756.099L357.498 755.396Z" fill="#FFEDE1"/>
<path d="M366.398 756.072C366.591 751.227 367.308 745.276 367.766 740.371C379.119 742.071 392.205 742.572 403.733 743.736C431.257 746.515 458.863 748.149 486.368 751.137C483.947 754.402 481.309 757.404 478.666 760.486L472.072 767.627C462.151 767.212 445.889 764.806 435.286 763.629L366.398 756.072Z" fill="#FFEDE1"/>
<path d="M660.092 742.121C670.089 742.648 681.989 744.642 691.366 744.799C691.312 760.337 691.017 776.259 690.471 791.791C675.985 789.663 662.838 786.916 648.06 785.217C624.151 782.468 599.816 780.824 575.996 778.1C577.889 776.453 579.814 776 582.095 775.08C607.894 764.678 632.83 752.148 659.166 743.128C659.549 742.997 659.872 742.444 660.092 742.121Z" fill="#8EECF5"/>
<path d="M343.902 772.528C346.069 764.653 350.549 763.091 352.952 756.059C364.557 758.453 380.119 759.281 392.273 760.783C418.81 764.061 445.939 766.438 472.422 770.012L472.671 789.273C470.231 788.985 467.814 788.615 465.383 788.257L393.065 779.411C378.166 777.603 358.385 775.459 343.902 772.528Z" fill="#FFEDE1"/>
</svg>
