<svg width="1024" height="1024" viewBox="0 0 1024 1024" fill="none" xmlns="http://www.w3.org/2000/svg">
<path d="M397.035 149.835C419.612 132.276 444.073 118.533 469.381 105.068C543.76 65.4956 659.886 25.3427 723.863 104.266C747.085 132.913 756.687 173.75 751.785 209.787C748.925 230.815 742.707 252.3 735.495 272.269L735.203 272.701C712.083 277.404 678.369 293.664 657.317 304.573C651.256 307.714 639.978 315.897 635.149 317.479C623.618 298.09 610.156 283.601 590.941 271.521C560.017 252.076 520.608 244.739 484.92 252.771C481.63 244.252 478.194 233.712 473.774 225.653C459.802 200.172 439.379 177.261 415.727 160.378C409.518 155.947 403.38 153.754 397.407 150.069L397.035 149.835Z" fill="#90DBF4"/>
<path d="M138.987 499.162C138.165 497.17 137.357 495.172 136.581 493.162C110.563 425.814 94.8072 369.865 125.6 300.625C155.129 234.226 234.012 174.677 300.769 149.181C335.42 135.947 362.569 134.419 397.036 149.833L397.408 150.067C403.381 153.752 409.519 155.945 415.728 160.376C439.38 177.259 459.803 200.17 473.775 225.651C478.195 233.71 481.631 244.25 484.921 252.769C450.211 259.997 420.51 277.799 400.99 307.81C395.586 316.119 389.86 326.741 386.994 336.251C362.042 337.662 333.819 339.93 309.136 340.585C308.549 345.064 307.98 353.374 308.133 357.938C310.426 357.899 312.656 357.914 314.935 357.655C316.487 370.428 315.999 392.813 315.908 406.27C315.7 404.765 315.398 399.855 314.942 399.149C312.964 400.199 298.304 417.109 296.941 419.272C269.368 426.733 241.814 437.717 214.431 446.178C209.285 447.768 200.918 445.025 198.45 447.307C197.631 450.497 199.054 456.232 199.277 459.757C199.716 466.675 199.388 473.634 199.699 480.516C200.176 491.063 206.448 498.212 216.821 500.263C226.639 502.204 232.096 497.713 238.136 490.708C237.468 535.119 238.568 579.586 238.558 623.999C238.556 632.778 238.624 641.659 238.973 650.43C230.083 652.863 227.49 652.814 218.606 650.696C218.739 630.02 207.907 611.381 197.102 594.44C192.354 586.996 188.858 585.824 183.906 593.429C180.528 589.061 174.953 577.551 172.18 572.245C159.647 548.26 148.107 524.657 138.987 499.162Z" fill="#B9FBC0"/>
<path d="M484.922 252.771C520.61 244.739 560.019 252.076 590.943 271.521C610.158 283.601 623.62 298.09 635.151 317.479C638.249 322.706 640.799 327.949 643.514 333.376C650.847 333.603 695.811 335.514 699.461 338.046C701.915 345.457 705.993 347.73 709.069 355.262C707.081 358.673 700.108 370.428 698.921 373.33C695.896 380.728 695.534 400.985 696.036 409.166C702.89 412.684 708.902 417.475 715.634 421.395C747.144 439.746 784.311 448.505 820.123 453.685C823.559 454.183 827.421 454.362 830.194 456.395L830.002 456.935L829.454 457.13C827.796 457.738 827.264 457.776 826.198 459.185C825.303 461.657 825.989 465.328 825.955 468.108C825.806 480.086 828.99 498.355 815.779 504.734C810.42 507.321 805.36 507.253 800.089 505.745C790.678 503.052 789.277 492.169 784.413 490.831C780.722 493.454 781.013 508.654 780.818 513.505L779.795 540.292L776.814 645.291L773.815 741.5C764.648 741.12 755.805 741.045 746.642 740.986C724.313 740.642 702.435 740.497 680.106 740.791C675.4 763.538 673.674 788.188 678.517 810.98C679.505 814.985 686.795 833.638 675.488 828.084C674.286 827.493 672.843 822.166 672.3 820.656C666.998 802.508 665.732 791.341 665.237 772.577L652.149 772.509C651.438 782.175 650.799 791.968 649.916 801.61C644.586 802.622 644.139 802.587 638.971 800.951C637.54 793.899 638.076 778.717 636.178 773.451C634.885 773.041 633.416 773.27 632.024 773.353C627.554 776.473 630.395 835.319 626.4 840.979C625.693 841.98 624.687 842.717 623.441 842.825C622.184 842.933 621.013 842.408 620.154 841.499C619.377 840.677 618.874 839.423 618.754 838.305C618.385 834.868 618.926 830.801 619.063 827.312C619.326 820.615 619.504 813.928 619.592 807.226C620.23 805.616 621.228 791.966 621.41 789.477C621.527 786.764 621.85 783.681 622.08 780.942L623.024 780.5L623.702 781L624.042 785.046C624.087 793.197 618.882 836.16 622.583 840.282L623.383 840.264C624.307 839.428 625.04 838.856 625.141 837.479C626.689 816.356 625.954 795.046 628.808 774.005C629.247 773.852 628.967 773.991 629.472 773.342C627.615 771.564 623.477 771.799 621.419 773.373C619.931 777.258 620.671 784.795 620.392 789.157C619.811 791.023 618.98 804.91 618.933 807.64C616.813 808.891 614.673 808.664 612.095 808.934C609.089 811.431 607.643 813.339 604.072 810.561C603.194 808.974 604.58 773.64 604.626 768.393C598.563 766.508 590.761 763.549 584.873 761.163C584.218 767.107 584.329 801.066 582.298 803.242C581.199 803.497 580.484 803.68 579.414 804.03C578.032 806.076 578.828 809.03 578.268 811.396C577.597 814.233 573.189 816.978 570.434 816.101C569.549 815.037 569.463 814.796 569.539 813.259C570.333 797.322 570.983 781.361 571.808 765.423C571.996 761.781 573.062 757.835 573.477 754.187C573.999 749.601 574.334 744.995 574.693 740.395C574.555 737.983 575.955 734.366 578.105 733.181C582.053 731.008 607.445 730.241 609.077 728.317L607.675 727.528C606.696 725.281 608.592 718.791 609.215 716.355C590.383 725.494 565.925 728.248 545.388 729.47C537.364 729.75 529.287 730.084 521.263 730.159C521.739 741.698 525.141 792.214 533.16 799.82C539.509 805.843 557.43 807.132 558.202 817.518C558.4 820.173 556.767 822.546 554.989 824.351C545.139 834.355 525.828 834.204 512.652 834.019C501.755 833.866 483.989 833.549 475.761 825.239C474.628 824.094 473.6 822.517 473.57 820.858C473.541 819.225 475.659 817.332 476.802 816.387C480.52 813.312 485.193 811.512 489.151 808.764C502.089 799.784 505.544 784.845 507.313 769.989C508.909 756.587 508.56 743.523 507.471 730.096C489.996 729.802 474.788 728.879 457.412 727.406L457.505 745.033C460.49 747.664 464.004 749.276 464.745 752.885C463.467 756.134 461.197 756.223 457.985 757.277C458.187 763.835 460.886 804.776 458.753 807.38C455.401 808.613 455.973 806.983 453.661 808.888C453.405 809.811 453.118 810.671 452.698 811.533C450.541 812.503 448.559 812.524 446.272 811.962C444.725 810.13 444.44 767.512 444.34 761.836C438.899 764.023 432.485 766.414 427.195 768.751C424.979 769.792 422.766 770.813 420.583 771.923C419.936 777.821 419.7 790.679 420.407 796.72C420.364 801.188 421.376 808.7 419.525 811.937C417.9 813.272 413.837 813.261 412.194 811.876C411.344 807.984 411.796 804.811 411.696 799.316C411.596 793.829 411.913 782.771 411.613 776.74C411.361 776.453 411.11 776.166 410.858 775.879C408.995 775.75 409.89 775.616 408.097 776.44C406.483 778.611 407.797 831.142 406.404 837.922C405.709 841.303 399.9 840.604 397.462 840.434C397.579 826.155 397.802 811.708 397.553 797.446C397.456 793.18 397.165 787.475 397.444 783.322C397.334 780.93 397.664 778.374 396.492 776.576L395.651 776.386C393.626 778.526 394.466 792.182 394.53 795.894L394.772 796.734C393.101 798.102 381.249 800.661 378.704 801.15C377.746 794.239 377.951 778.508 377.682 770.556C372.441 770.298 366.806 769.799 361.564 769.384C359.797 784.62 360.137 799.903 356.475 814.988C355.785 817.83 357.152 823.935 352.797 824.487C350.996 824.715 350.176 824.751 348.752 823.822C348.383 821.171 352.67 799.587 353.124 794.292C353.946 784.717 353.923 778.249 353.865 768.466C347.681 766.731 346.197 763.581 347.893 757.486C350.928 756.309 351.197 753.925 352.693 750.795C350.726 747.569 350.708 746.267 349.538 742.799C349.5 742.687 347.349 738.748 347.099 738.255L273.515 738.256C262.277 738.343 250.969 738.6 239.73 738.739C237.733 738.764 237.584 738.507 236.43 737.446C237.352 735.968 239.449 733.071 239.608 731.583C240.393 724.227 239.746 715.498 239.672 707.99L238.974 650.432C238.625 641.661 238.557 632.78 238.559 624.001C238.569 579.588 237.469 535.121 238.137 490.71C232.097 497.715 226.64 502.206 216.822 500.265C206.449 498.214 200.177 491.065 199.7 480.518C199.389 473.636 199.717 466.677 199.278 459.759C199.055 456.234 197.632 450.499 198.451 447.309C200.919 445.027 209.286 447.77 214.432 446.18C241.815 437.719 269.369 426.735 296.942 419.274L316.532 415.414C316.199 412.461 316.082 409.256 315.909 406.272C316 392.815 316.488 370.43 314.936 357.657C312.657 357.916 310.427 357.901 308.134 357.94C307.981 353.376 308.55 345.066 309.137 340.587C333.82 339.932 362.043 337.664 386.995 336.253C389.861 326.743 395.587 316.121 400.991 307.812C420.511 277.801 450.212 259.999 484.922 252.771ZM636.401 335.24C631.043 334.798 625.736 334.537 620.365 334.358C551.538 332.067 482.5 332.517 413.746 336.522L341.84 340.87C331.949 341.432 320.789 342.416 310.986 342.611C310.54 347.281 310.354 351.328 310.183 355.995C321.301 354.738 332.36 354.746 343.531 354.427L392.581 352.834C473.452 349.766 554.848 349.553 635.767 346.978C657.224 346.495 679.839 347.103 700.97 346.295L696.87 339.267C680.211 336.976 653.647 336.074 636.401 335.24ZM631.049 357.785L617.875 358.016L617.774 373.972C622.288 373.789 627.127 373.501 631.62 373.506C637.826 373.49 644.346 373.227 650.576 373.064C650.589 367.933 650.467 362.635 650.406 357.491C644.021 357.494 637.449 357.68 631.049 357.785ZM694.468 388.837C694.623 385.466 696.044 376.03 695.003 373.983L693.355 373.905C690.835 376.621 692.88 387.95 693.14 391.984C693.319 394.485 693.823 397.725 694.154 400.275C694.502 395.998 694.541 393.143 694.468 388.837ZM597.012 421.389C548.524 421.965 501.118 422.072 452.006 419.046C415.224 416.779 370.392 411.685 332.906 412.348C325.646 412.476 310.301 423.187 302.235 424.993C279.246 433.557 252.443 442.515 228.152 446.616C273.215 449.921 314.66 444.343 359.638 444.617C390.6 444.806 421.687 445.755 452.651 446.275L612.355 448.57L735.782 452.361C759.454 453.148 786.626 454.772 810.096 454.523C802.055 452.66 792.966 451.344 784.641 449.413C747.952 440.903 727.682 432.278 696.766 412.037C661.83 418.006 632.292 419.652 597.012 421.389ZM229.374 443.436C227.759 443.846 223.055 444.697 222.349 445.795L222.06 445.56L222.151 445.623L222.697 445.418L222.826 445.892C225.231 445.582 226.765 445.304 229.127 444.752C254.142 439.239 279.029 431.757 302.848 422.414C306.01 421.174 309.017 420.05 312.092 418.583C295.288 420.805 279.706 426.476 263.774 432.036C252.352 436.022 240.903 439.778 229.374 443.436ZM639.067 496.375C622.26 473.744 626.089 502.483 606.628 503.64C596.274 504.256 591.085 500.834 584.625 493.241C577.472 484.836 574.792 482.901 566.636 492.232C557.812 502.327 546.508 506.964 534.385 498.374C529.878 495.403 524.814 487.118 520.731 486.312C513.826 487.605 502.855 509.146 483.903 496.7C479.051 493.514 469.572 482.335 465.976 484.551C454.234 492.224 446.647 508.986 429.36 500.539C427.947 499.849 424.289 497.488 423.222 496.178C405.082 473.902 410.316 493.314 388.55 502.382C388.619 508.119 389.925 548.166 387.549 550.072C386.473 550.936 384.921 551 383.597 551.205L383.335 605.86C383.147 622.358 382.66 639.351 382.894 655.821C382.301 665.654 382.543 695.604 383.677 704.586C385.688 706.467 397.036 714.012 399.855 715.228C402.013 717.087 403.048 717.904 404.832 720.206C405.428 724.876 405.542 725.976 407.126 730.459C409.842 729.926 411.399 729.642 414.222 729.441C412.966 725.677 411.402 721.528 410.993 717.618C411.036 701.473 409.457 681.698 408.563 665.401C407.219 614.54 405.033 565.463 405.564 514.447L552.979 514.505C578.773 514.528 604.686 514.275 630.466 514.591L630.44 608.73C630.466 623.039 630.052 640.157 630.609 654.261C630.327 667.25 631.261 680.635 631.078 693.675C631 699.245 631.046 705.496 631.482 711.013C637.033 713.364 641.842 715.44 647.248 718.131C649.423 703.18 652.485 688.143 655.954 673.457C656.786 669.935 660.424 667.401 661.792 664.287C661.986 663.844 660.793 659.017 661.127 658.164C661.975 648.102 662.05 638.139 662.159 628.039L663.05 562.874C655.008 559.71 655.92 554.548 655.996 547.024L665.742 546.934C675.225 546.894 684.655 546.85 694.14 546.985C706.898 547.305 719.553 547.427 732.314 547.52C735.793 547.525 750.404 547.131 752.331 548.496C752.345 551.616 751.496 557.808 749.796 560.531C748.925 561.926 745.983 560.152 746.009 563.506C746.246 594.271 744.477 625.736 745.136 656.451C747.35 656.435 749.623 656.404 751.827 656.288C756.423 656.044 756.304 658.246 756.234 661.789C756.219 665.185 756.187 667.483 755.831 670.853C742.338 670.948 727.579 670.749 714.206 671.334C709.263 671.308 694.014 671.035 689.979 671.8C690.535 674.086 692.465 675.022 691.837 677.901C687.473 697.912 684.712 718.454 680.617 738.485C709.86 739.112 742.237 739.002 771.494 738.665C771.778 733.977 772.485 723.229 772.089 718.699C772.681 714.174 772.687 701.12 772.833 696.061L774.23 649.844C774.537 647.52 774.54 639.757 774.617 636.858L775.387 613.01L777.698 536.995C778.173 523.972 778.395 507.686 779.858 494.911C772.305 502.328 765.42 507.084 754.241 505.39C743.907 502.464 741.426 496.61 734.629 489.924C729.773 493.768 726.073 499.433 720.535 502.375C700.734 512.896 693.053 492.133 685.382 490.721C680.952 489.906 674.535 498.777 670.827 501.344L670.307 501.697C665.32 504.374 663.832 504.619 658.289 505.389C648.727 504.259 646.079 503.073 639.067 496.375ZM386.522 512.102C386.457 509.08 386.458 505.636 386.271 502.65C366.439 501.825 367.571 492.937 353.994 484.489C343.508 491.629 338.847 504.786 322.808 502.144C310.739 500.155 306.181 490.816 297.552 484.901C286.097 493.367 284.783 501.453 268.771 504.392C268.412 511.255 268.84 519.699 269.583 526.548C299.368 512.45 316.362 508.482 349.904 513.917C365.705 518.024 372.205 520.827 386.523 527.914L386.522 512.102ZM266.24 504.154C253.589 500.795 253.133 494.587 243.65 487.795C242.787 487.178 242.048 487.706 241.313 488.047C239.341 491.458 240.196 505.861 240.236 510.429L240.417 548.428C240.566 581.39 240.671 615.349 241.416 648.257C241.657 673.717 241.565 701.257 242.496 726.628C248.281 714.647 254.843 700.507 262.434 689.379C263.259 688.17 266.272 686.29 267.57 685.493C268.377 684.206 268.149 683.147 268.104 681.592C268.692 677.025 268.382 663.516 268.374 658.572L268.307 612.877L268.536 577.931C268.622 572.164 269.07 562.411 268.597 556.947C268.733 541.613 266.886 520.188 266.24 504.154ZM694.371 549.339C682.279 549.26 670.046 549.074 657.968 549.334C658.078 551.4 658.186 557.416 659.507 558.349C664.52 561.893 686.049 560.583 692.552 560.722C699.363 560.797 710.108 561.18 716.73 560.658C721.934 560.572 742.866 560.817 748.413 558.205C749.736 557.582 749.626 552.027 749.669 550.034L726.102 549.554C715.473 549.358 705.007 549.123 694.371 549.339ZM374.069 569.824C369.835 562.87 366.934 557.888 361.273 551.941C339.083 528.63 300.031 533.476 289.329 565.226C287.725 569.986 288.318 594.072 288.235 599.857L287.306 685.514C301.411 685.414 323.4 684.875 337.004 686.144L337.276 686.832C340.158 694.195 341.95 702.092 343.914 709.522C345.623 715.986 348.874 736.231 351.343 740.658C353.64 737.104 341.753 694.411 339.842 688.87C337.732 682.751 330.983 676.906 337.654 671.164C344.311 669.442 359.928 670.661 365.998 674.47C369.83 676.875 371.154 679.11 373.074 683.054C375.027 688.566 376.043 693.516 376.912 699.27C377.363 702.252 377.964 706.585 380.532 708.421L381.238 708.193C381.597 706.723 380.6 685.208 380.574 681.781L381.04 579.551C378.903 579.335 378.556 579.407 376.717 578.428C374.623 575.485 376.339 573.569 374.069 569.824ZM628.545 669.893C628.477 665.457 628.483 660.8 628.328 656.387C595.476 656.569 562.019 657.571 529.18 656.692L529.126 668.389C555.279 668.87 584.438 671.557 608.257 682.865C616.064 688.058 613.515 694.34 613.561 703.023C618.796 705.676 623.79 707.878 629.211 710.094L628.545 669.893ZM688.905 681.441C689.726 678.536 690.444 674.402 686.84 673.056C686.383 674.676 687.62 679.046 687.999 681.141C687.372 683.675 686.741 686.184 686.186 688.736C682.188 706.8 679.208 724.868 674.249 742.699C672.914 747.499 672.984 751.538 670.987 756.241C664.337 752.107 654.68 752.508 646.915 752.637C644.043 752.685 644.944 767.541 644.968 770.124L673.393 770.31C674.839 752.626 678.973 734.873 682.034 717.315C682.976 711.916 685.98 692.775 687.188 689.022C687.623 686.436 688.275 683.983 688.905 681.441ZM627.042 757.544C625.967 757.958 624.308 758.274 624.17 759.588C623.853 762.62 621.807 769.817 626.159 770.457L626.96 769.918C626.071 766.504 625.656 762.868 626.823 759.481C631.006 757.589 638.279 756.951 642.219 754.315C638.261 754.36 632.172 756.866 627.574 757.479L627.042 757.544ZM404.746 761.536C402.729 758.504 400.373 757.753 396.707 757.119C383.005 754.746 368.858 754.366 355.066 753.311C353.901 754.225 354.327 753.661 353.979 755.18C356.465 756.678 397.259 755.966 404.006 761.906C404.389 763.796 404.624 765.805 405.6 767.434L405.957 766.901C405.83 764.419 405.596 763.898 404.746 761.536ZM391.95 797.128C392.053 792.813 392.799 774.468 391.698 771.666L389.802 770.937C389.807 774.433 389.299 794.875 390.701 796.658L391.95 797.128ZM402.585 771.548L402.078 771.612C399.051 771.977 397.384 771.418 394.81 772.208L394.706 772.798C397.324 774.47 402.383 775.46 405.125 773.806C404.057 772.358 404.148 772.442 402.585 771.548ZM405.284 778.92C403.883 775.28 399.571 775.204 399.082 780.178C399.634 782.767 399.596 789.525 399.699 792.497C400.086 803.663 399.917 814.834 399.875 826.012C399.864 829.182 399.623 834.16 400.118 837.226C400.232 837.933 400.631 837.929 401.366 838.314L402.654 837.874C405.554 835.04 404.477 827.345 404.495 823.068L404.741 795.205C404.809 790.201 404.595 783.796 405.284 778.92ZM381.509 788.684C381.471 783.504 382.729 775.674 381.512 771.096L380.669 770.624L379.985 771.307C379.256 773.162 379.972 785.632 380.004 789.098C379.962 791.91 379.726 794.116 380.563 796.79L381.099 796.554C381.819 793.809 381.579 791.525 381.509 788.684ZM510.399 251.733C475.77 253.342 439.37 266.336 415.689 292.422C405.087 304.102 394.362 320.642 389.595 335.759C392.951 335.548 396.738 335.393 400.037 335.002C407.961 308.355 424.417 289.892 448.755 276.839C470.56 265.143 492.28 259.332 517.055 259.767C562.928 261.319 612.238 286.599 627.227 332.432L640.883 333.145C621.451 294.394 599.77 273.396 557.899 258.578C544.088 253.691 525.35 251.177 510.399 251.733ZM502.664 262.153C491.493 264.043 476.984 277.047 470.69 286.018C461.486 299.134 455.814 316.259 456.827 332.325C476.908 331.619 497.277 331.049 517.376 330.982C533.4 330.74 549.454 330.893 565.482 330.981C565.602 309.13 561.317 290.996 545.956 274.554C533.031 260.72 520.505 260.916 502.664 262.153ZM489.91 264.13C462.469 269.902 429.504 285.43 414.353 309.683C410.232 316.28 404.428 326.394 402.733 334.025L403.196 334.735L403.718 334.715C419.492 333.695 438.9 332.445 454.589 332.476C454.821 307.842 463.248 285.595 483.221 270.047C484.614 268.963 490.917 264.984 491.259 264.096L489.91 264.13ZM536.863 264.413C560.563 280.666 567.704 303.319 567.544 330.968C586.476 331.194 605.986 331.344 624.863 332.444C622.359 326.369 619.296 318.697 615.828 313.182C604.652 295.411 584.814 280.845 565.703 272.729C559.335 270.025 543.787 265.25 536.863 264.413ZM634.953 349.24C548.627 350.97 462.211 352.542 375.919 355.441C356.525 356.093 336.52 356.24 317.194 357.463C317.36 359.522 317.494 362.192 317.88 364.168C326.07 363.599 334.294 363.314 342.501 363.115C357.343 362.756 372.37 361.488 387.2 361.429C475.831 356.971 565.154 357.332 653.896 355.205C671.328 354.788 688.74 354.534 706.177 354.499C705.257 352.694 704.276 350.627 703.191 348.942C681.623 348.714 656.415 348.526 634.953 349.24ZM691.417 356.571C691.389 359.867 690.193 372.062 694.217 371.938C696.015 370.636 697.236 369.382 699.167 368.226L700.46 365.737C702.032 362.728 703.598 359.676 705.213 356.693L691.417 356.571ZM663.703 357.268L652.604 357.456L653.058 372.918L676.229 372.094L689.537 371.778C689.409 366.968 689.38 361.647 688.991 356.89C680.514 356.914 672.178 357.066 663.703 357.268ZM600.118 358.262L584.011 358.482L583.908 375.303C588.721 375.076 593.621 374.894 598.422 374.612C603.932 374.477 609.895 374.446 615.362 374.095L615.298 358.057C610.28 358.12 605.121 358.118 600.118 358.262ZM565.615 358.778L546.392 359.265L546.303 376.532C551.193 376.41 555.985 376.271 560.876 376.028C567.672 375.807 574.75 375.482 581.525 375.452L581.587 358.47C576.429 358.516 570.721 358.447 565.615 358.778ZM522.762 359.725C518.641 359.831 514.447 359.983 510.331 360.015L510.229 377.536L532.281 376.939C536.198 376.801 540.175 376.622 544.088 376.537L544.329 359.309C537.592 359.422 529.372 359.332 522.762 359.725ZM498.159 360.261L471.82 360.615L471.843 378.989L480.8 378.604L508.013 377.708L508.025 360.022C504.798 360.089 501.364 360.103 498.159 360.261ZM466.016 360.723L434.033 361.658C434.024 365.545 433.519 376.933 434.823 379.682C435.877 380.386 436.051 380.199 437.376 380.12C447.754 379.793 459.446 379.708 469.68 379.094C469.696 376.362 470.138 362.056 469.092 360.755L466.016 360.723ZM418.661 362.271C411.982 362.477 405.142 362.616 398.485 362.96L398.495 381.542L411.562 381.029C418.305 380.823 425.297 380.52 432.021 380.469L431.969 361.887C427.607 362.004 422.998 362.048 418.661 362.271ZM390.639 363.278L361.705 364.449C361.692 368.728 361.457 378.642 361.971 382.504C363.1 383.248 364.663 382.911 366.125 382.823L396.33 381.756C396.354 378.798 396.931 364.738 395.609 363.174C393.682 363.121 392.561 363.135 390.639 363.278ZM356.116 364.717C347.244 365.122 338.503 365.499 329.619 365.711C329.574 369.888 329.276 379.731 329.726 383.427C330.932 384.242 331.244 383.911 333.037 383.876C341.854 383.421 350.707 383.229 359.535 382.991C359.586 377.902 359.894 370.09 359.41 365.223C358.423 364.311 357.956 364.688 356.116 364.717ZM319.981 366.286L318.311 366.639C317.372 369.464 318.093 411.275 319.264 413.992C321.497 414.285 325.085 412.591 326.196 410.497C324.747 409.7 324.304 409.516 322.689 409.185L322.481 408.786C323.973 407.96 325.728 407.564 327.383 407.095C326.912 393.373 327.107 379.678 327.267 365.952L319.981 366.286ZM674.835 374.25L653.27 374.955C653.623 388.227 654.796 402.137 655.653 415.448C660.717 414.87 665.829 414.325 670.881 413.687C678.206 412.761 686.59 411.887 693.702 410.106C691.167 398.93 691.032 385.491 689.7 373.969C684.768 374.048 679.759 374.079 674.835 374.25ZM645.837 375.276L617.807 376.003L617.543 418.211L624.122 417.932C633.869 417.313 643.863 416.813 653.544 415.687C652.622 404.461 651.857 393.225 651.279 381.976C651.169 379.845 651.11 377.713 650.729 375.61C649.344 374.834 647.5 375.176 645.837 375.276ZM612.483 376.232L583.872 377.237L583.656 405.448C583.631 408.404 583.361 416.707 583.779 419.227C585.041 419.524 585.102 419.596 586.376 419.525C596.128 419.475 606.07 418.46 615.449 418.461L615.544 390.59C615.554 387.268 615.807 379.399 615.222 376.552C614.094 375.908 613.839 376.114 612.483 376.232ZM570.99 377.779C562.836 378.033 554.401 378.41 546.266 378.522C546.042 392.185 546.07 405.896 546.038 419.565L556.251 419.584L581.417 419.517L581.527 377.446C578.138 377.537 574.337 377.558 570.99 377.779ZM539.638 378.727C529.862 379.091 519.989 379.538 510.215 379.646C510.133 386.532 510.629 413.385 509.658 418.213L509.094 418.261C507.21 412.566 508.027 387.44 508.015 379.723L485.019 380.7C481.911 380.82 474.979 380.907 472.381 381.408C471.637 382.866 471.829 383.736 471.883 385.375L471.889 417.993C494.943 419.473 520.708 419.437 543.758 419.609L543.979 394.62C544.031 390.322 544.333 383.284 543.874 379.362C542.755 378.328 541.14 378.596 539.638 378.727ZM453.231 381.782C447.061 381.975 440.474 382.074 434.349 382.44C434.312 386.589 434.564 412.272 433.364 414.182L432.566 414.442C431.364 412.361 431.977 386.782 432.008 382.581C420.879 382.845 409.533 383.418 398.449 383.555L398.42 401.375L398.373 412.949C421.89 415.174 446.108 416.605 469.689 417.849L469.664 381.335C464.509 381.451 458.287 381.447 453.231 381.782ZM380.2 384.278C374.093 384.468 367.798 384.586 361.71 384.878C361.705 392.675 361.964 402.803 361.568 410.467L379.625 411.564L396.384 412.761C396.023 403.128 396.177 393.35 396.232 383.7L380.2 384.278ZM352.053 385.28L329.517 386.083C329.496 388.24 329.418 390.44 329.457 392.591C329.569 398.639 327.792 409.529 336.376 409.991C344.06 410.081 351.89 410.092 359.552 410.452L359.466 385.012C357.085 385.095 354.407 385.134 352.053 385.28ZM335.181 447.228C300.024 447.97 265.675 451.602 230.462 449.096C221.181 448.436 209.675 448.905 200.31 448.899C201.066 455.613 201.515 461.446 201.893 468.196C231.106 468.009 259.282 466.515 288.389 465.646C421.04 461.687 554.641 464.626 687.251 464.88C733.042 465.192 778.262 465.543 824.014 467.527L824.01 457.587L686.046 453.161C660.888 452.4 635.76 451.159 610.578 450.621L497.302 449.039L393.988 447.3C374.591 447.065 354.555 446.667 335.181 447.228ZM490.844 465.748C434.762 465.893 378.23 465.663 322.2 466.78C281.656 467.589 242.559 469.98 201.801 470.25C201.881 478.639 201.249 487.471 207.83 493.852C211.442 497.353 215.968 498.762 220.939 498.595C227.295 498.381 230.237 496.102 234.318 491.586C236.232 489.468 239.129 485.084 242.24 485.043C245.027 485.006 247.27 486.938 249.024 488.903C253.716 494.16 258.773 501.716 266.508 502.167C273.305 502.563 279.383 498.95 284.219 494.491C287.516 491.451 293.269 483.349 298.035 483.699C305.87 484.273 317.671 510.309 336.865 497.203C341.375 494.124 349.917 482.398 354.744 483.084C363.469 484.323 373.775 509.333 392.813 497.961C397.749 495.012 407.424 482.109 412.429 483.444C421.719 485.922 427.584 507.484 445.04 499.112C453.218 495.19 461.876 480.108 469.481 482.635C480.354 486.249 486.065 504.467 502.2 496.891C507.559 494.375 517.679 482.703 521.863 484.248C525.024 485.416 527.596 488.849 529.842 491.25C540.515 502.676 551.348 504.894 562.993 493.226C568.744 487.465 574.072 478.361 582.04 487.215C588.916 494.553 593.74 502.207 604.667 501.93C620.905 503.274 624.268 472.49 637.997 491.359C646.194 502.625 657.211 507.246 669.782 499.487C675.368 495.809 677.811 490.425 684.509 487.475L685.158 487.769C693.895 491.813 696.663 500.941 706.678 502.78C713.099 503.959 717.379 502.121 722.55 498.372C729.583 493.273 733.333 482.052 741.171 493.486C748.921 504.792 761.548 507.235 772.308 498.596C776.388 495.406 779.993 490.719 784.154 487.653C786.631 485.828 790.392 493.999 791.392 495.188C795.582 501.864 801.494 506.172 809.547 504.59C826.371 501.287 824.128 482.764 824.017 469.596C722.937 465.47 621.269 467.504 520.101 465.912C510.456 465.76 500.482 465.629 490.844 465.748ZM315.694 514.25C294.617 516.136 287.471 521.257 269.45 528.84C269.928 535.563 270.367 541.903 270.534 548.638C288.844 530.642 314.181 522.285 339.621 526.168C355.483 528.547 367.275 533.829 378.896 544.915C380.361 546.313 383.498 549.238 385.757 547.911L386.264 547.613C386.974 544.389 386.626 534.599 386.586 530.564C365.173 518.97 340.244 511.523 315.694 514.25ZM407.667 516.561C407.545 528.242 407.391 539.884 407.522 551.567C429.373 551.403 453.947 551.688 475.589 550.857C476.369 542.268 475.837 525.999 475.816 516.536L407.667 516.561ZM477.987 516.59L477.982 550.885C500.599 550.279 525.939 549.94 548.574 550.14C548.804 540.449 549.564 525.887 549.23 516.544L477.987 516.59ZM551.469 516.561L550.729 550.167C576.205 550.053 602.547 549.614 627.971 550.123C628.75 543.726 628.316 524.1 628.361 516.608C602.743 516.429 577.059 516.834 551.469 516.561ZM321.106 527.699C300.411 529.697 285.531 536.784 270.602 551.506L270.834 571.606C273.987 571.779 277.577 571.898 280.684 572.224C284.409 568.125 286.685 562.844 289.681 558.188C299.026 543.66 311.366 534.728 329.022 535.382C352.386 536.658 365.348 550.089 376.571 569.079C376.949 569.719 378.891 570.202 379.621 570.366C380.325 570.118 380.852 570.12 380.978 569.512C381.97 564.716 381.534 555.056 381.501 550.128L381.103 549.831C378.877 548.141 376.897 546.243 374.858 544.336C361.005 531.381 339.848 525.622 321.106 527.699ZM556.402 552.242L550.539 552.345L550.46 562.083C574.557 562.36 599.346 563.216 623.251 563.33C625.766 563.364 625.941 563.782 627.753 562.707C629.307 559.747 628.276 556.228 628.344 552.363C604.681 551.92 580.09 551.939 556.402 552.242ZM490.71 552.767L477.634 552.961L477.537 562.386C496.817 562.236 515.814 561.857 535.126 562.042L548.301 562.141C548.353 558.899 548.441 555.595 548.454 552.359C529.645 552.449 509.412 552.199 490.71 552.767ZM466.77 553.238L407.572 553.635L407.715 563.661L417.251 563.484C436.14 563.061 456.331 562.405 475.168 562.488C475.304 559.334 475.475 556.203 475.46 553.047L466.77 553.238ZM734.18 562.283L732.81 562.579C731.298 566.681 732.389 647.151 732.417 656.5L741.962 656.478C742.211 656.217 742.46 655.955 742.71 655.694C743.625 629.918 743.081 585.332 743.84 561.721L734.18 562.283ZM665.467 562.618L663.866 656.488L671.974 656.471C672.215 656.212 672.455 655.953 672.696 655.695C673.757 624.754 672.679 593.752 673.206 562.807L665.467 562.618ZM675.272 562.642C675.211 572.408 675.161 582.359 675.466 592.119C680.401 587.284 694.637 572.759 699.543 569.169L700.115 569.196C700.701 571.301 678.457 592.117 675.377 594.85L675.437 617.664C682.12 611.38 711.254 578.585 716.773 578.011C716.877 579.465 713.183 582.661 711.983 583.706C698.962 595.049 688.008 609.446 675.275 620.908C675.32 628.941 675.382 636.812 675.112 644.849C678.085 641.768 681.885 638.042 684.63 634.856C694.972 623.551 705.289 612.133 716.371 601.553C719.251 598.804 724.563 593.406 727.744 591.366L728.68 591.415L728.786 590.888L728.49 590.984L728.731 591.479C725.589 596.387 720.461 600.586 716.304 604.663C705.17 615.584 694.38 627.077 683.846 638.575C699.51 638.552 714.446 638.056 730.003 637.799C729.936 614.928 729.035 584.809 730.204 562.496C723.354 562.613 716.299 563.198 709.605 563.216C698.244 563.248 686.655 562.493 675.272 562.642ZM491.407 564.238L477.515 564.453L477.501 653.663C485.617 653.77 493.861 653.934 501.985 653.895C505.22 653.879 505.455 653.331 505.989 650.435C508.074 648.917 510.296 650.875 511.055 648.739C512.632 644.301 509.635 630.241 516.679 630.5C517.737 630.539 519.021 631.757 519.704 632.509C521.154 637.082 519.69 639.527 521.403 643.59C521.513 645.508 521.577 647.694 521.817 649.574C523.851 649.699 526.045 649.566 527.678 650.658C528.384 652.044 528.811 653.601 530.414 653.927C534.787 654.818 541.319 654.507 545.864 654.508C545.812 625.103 547.188 593.52 548.271 564.087C529.325 563.973 510.352 563.896 491.407 564.238ZM550.323 564.204C549.082 589.645 548.897 615.372 548.115 640.839C547.977 645.343 547.942 649.926 548.018 654.43L628.265 654.449L628.344 565.366L550.323 564.204ZM456.637 564.768C440.957 564.982 423.319 564.948 407.817 565.758C408.843 594.893 409.176 624.364 410.466 653.402L426.211 653.323C442.455 653.407 459.22 653.329 475.434 653.73C475.498 624.437 475.926 593.589 475.245 564.38C469.239 564.487 462.59 564.471 456.637 564.768ZM285.048 571.718C281.714 574.904 282.433 574.627 282.352 579.405C281.849 609.405 281.373 639.41 281.473 669.416C281.49 674.321 281.147 680.361 281.66 685.158L283.272 686.414C284.754 685.197 284.882 685.616 284.922 683.96C285.112 676.169 285.154 668.202 285.232 660.42L285.655 611.738L286.1 584.623C286.142 581.746 286.418 574.647 286.082 572.305L285.048 571.718ZM377.619 572.265C377.859 574.987 377.41 574.905 378.799 576.708C379.576 576.925 380.47 577.203 381.244 577.376C381.32 575.48 381.696 574.15 380.892 572.691C379.371 572.181 379.188 572.267 377.619 572.265ZM270.563 573.991L270.597 647.33C270.643 660.332 270.978 673.14 270.757 686.158C273.397 686.027 276.591 685.947 279.176 685.707L280.133 574.585C276.932 574.31 273.774 573.963 270.563 573.991ZM515.135 633.204C514.457 633.561 514.024 634.254 514 635.019C513.976 635.784 514.366 636.502 515.019 636.901C515.673 637.299 516.49 637.314 517.159 636.942C518.176 636.375 518.548 635.096 517.994 634.073C517.439 633.049 516.165 632.662 515.135 633.204ZM722.007 640.281C711.887 640.595 701.641 640.835 691.513 640.959C691.538 645.892 691.429 651.652 691.791 656.509L699.524 656.641L729.867 656.557L730.032 640.002L722.007 640.281ZM681.911 641.017C679.163 643.592 677.214 645.358 674.855 648.269L674.71 656.492L683.12 656.518L689.727 656.52L689.509 641.044L681.911 641.017ZM514.033 643.221C513.721 645.511 513.384 647.646 512.984 649.923L519.44 650.171C519.452 648.239 519.781 645.761 518.718 644.309C516.823 643.092 515.914 643.619 514.033 643.221ZM507.972 651.992C507.947 653.989 507.588 654.052 508.544 655.304C513.136 655.792 521.614 655.448 526.5 655.299C526.367 653.141 526.741 653.554 525.552 652.469C520.873 651.518 513.286 652.172 507.972 651.992ZM410.437 655.362C410.668 664.935 411.131 679.022 412.21 688.374C420.101 671.044 469.407 668.501 486.847 668.453C493.331 668.391 499.708 668.347 506.192 668.435C506.073 664.596 506.063 659.837 505.783 656.082C473.971 655.926 442.266 655.184 410.437 655.362ZM508.534 657.397C508.574 666.454 508.77 676.042 508.473 685.054L526.479 684.963L526.459 657.508L508.534 657.397ZM712.839 658.739C705.198 658.808 668.718 658.15 664.557 659.716C663.83 661.669 664.053 663.176 664.111 665.266C671.04 666.633 680.491 668.049 687.477 669.218C690.015 669.642 702.35 669.177 705.75 669.082L753.893 668.468C753.904 665.348 753.998 661.708 753.856 658.632C740.479 658.629 726.141 658.405 712.839 658.739ZM661.795 667.999C654.432 675.873 648.651 726.455 646.306 740.25C654.603 745.08 659.855 749.692 669.309 748.193C671.342 743.623 673.112 737.277 674.25 732.219C677.895 715.881 681.809 699.448 684.759 682.98C685.109 681.026 684.885 675.069 684.032 673.693C680.977 668.767 666.629 668.387 661.795 667.999ZM484.44 670.719C465.099 671.704 432.494 672.469 416.641 686.135C415.743 686.909 415.441 687.933 415.265 689.081C415.787 690.942 417.062 692.332 418.752 693.059C453.381 707.966 524.103 708.156 559.381 704.625C571.058 703.527 583.283 702.128 594.612 698.945C598.382 697.886 601.285 696.408 604.65 694.84C615.986 689.557 605.905 683.953 599.363 681.762C576.86 673.337 552.808 671.939 529.056 670.803C529.13 676.511 529.2 681.795 529.588 687.502C526.071 687.512 503.36 687.989 501.976 686.978L502.029 685.714C504.29 683.841 506.001 686.764 506.243 682.614C506.463 678.836 506.39 674.363 506.269 670.593C498.992 670.538 491.711 670.411 484.44 670.719ZM338.74 673.127C338.033 673.953 336.649 675.135 337.18 676.279C343.608 690.135 347.21 704.385 350.405 719.293C351.858 726.077 352.65 733.463 354.437 740.227C364.766 741.376 366.714 741.498 376.891 739.063C378.791 738.617 378.728 738.976 379.695 737.759C379.369 729.742 377.785 719.876 376.562 711.873C375.057 702.03 373.979 685.602 367.067 678.085C362.487 673.103 345.183 672.502 338.74 673.127ZM285.418 688.77L265.751 689.029C263.54 691.701 262.532 693.49 260.765 696.471L313.301 696.551L337.965 696.513L335.576 688.567C319.35 688.494 301.481 688.089 285.418 688.77ZM412.519 690.893C412.91 698.872 413.055 715.446 413.902 722.147C428.467 723.336 435.839 728.339 453.485 728.412C453.459 731.89 452.841 741.278 454.349 743.753C455.324 742.756 455.098 736.882 455.078 735.099L454.95 727.471C447.716 726.457 420.278 722.315 415.816 718.59L415.686 717.631C415.957 717.524 416.229 717.417 416.501 717.31C459.517 728.629 505.165 728.472 549.317 726.747C552.26 726.632 555.629 726.517 558.478 726.168C570.805 724.978 599.48 720.525 609.872 712.058C611.946 710.369 611.191 697.965 611.353 693.765C606.628 696.947 602 699.157 596.561 700.875C559.314 712.644 478.473 710.072 440.247 702.64C431.642 700.967 418.186 698.317 412.519 690.893ZM258.998 699.061C257.953 701.16 256.742 703.433 255.902 705.602C278.881 706.442 302.286 705.42 325.302 705.875C329.531 705.958 333.878 705.828 338.104 705.634L339.961 705.455C340.681 703.397 339.568 701.152 338.846 698.882C312.629 698.946 285.098 699.466 258.998 699.061ZM614.557 707.184C613.43 710.976 608.793 724.784 610.72 727.164C616.046 733.743 634.948 733.99 641.89 732.536C643.435 732.024 644.512 732.015 645.122 730.5C646.238 727.732 646.058 724.004 646.61 721.031C638.957 716.526 623.383 710.599 614.557 707.184ZM254.684 707.94C253.357 710.525 251.592 713.747 250.428 716.34C279.903 717.224 310.884 716.569 340.626 716.876L342.262 716.818C343.566 714.774 341.896 710.414 341.271 708.065C313.354 709.245 282.696 708.534 254.684 707.94ZM383.591 708.32C384.503 712.784 387.898 712.456 391.886 713.075C389.717 711.858 385.653 709.175 383.591 708.32ZM378.943 709.962C379.095 715.676 381.971 730.969 382.644 738.609L387.521 737.093C388.504 733.83 384.327 728.006 382.15 725.725C382.041 720.274 383.214 713.683 378.943 709.962ZM384.181 712.917C384.312 713.893 384.619 716.614 384.824 717.439C391.716 718.739 396.804 719.654 402.795 723.454C400.057 715.43 391.462 715.2 384.181 712.917ZM249.09 718.994L245.602 726.323C277.69 726.107 310.05 725.674 342.126 726.03L343.989 725.927C345.185 724.08 344.12 721.643 343.593 719.535L249.09 718.994ZM384.746 720.191C385.471 726.522 387.974 730.426 390.894 736.051C394.71 735.03 394.811 735.349 395.964 731.621C397.348 731.165 399.783 730.509 400.385 729.15C403.098 723.031 388.213 720.605 384.746 720.191ZM420.418 725.552C420.532 727.138 420.441 729.071 421.352 730.267C427.733 732.484 434.317 732.803 440.651 736.499C442.178 737.39 449.795 740.918 451.058 740.87C451.151 737.772 451.343 734.164 451.275 731.104C441.11 730.026 430.256 728.398 420.418 725.552ZM244.91 728.556C243.112 731.239 241.691 733.252 240.287 736.17C273.343 735.768 309.747 735.336 342.751 736.024C345.035 736.092 345.058 736.487 346.558 735.46C347.154 733.794 345.907 730.705 345.373 728.85C333.366 728.099 318.922 728.445 306.71 728.46L244.91 728.556ZM510.113 730.196C512.052 760.082 513.654 803.004 481.575 816.072C478.847 817.184 476.799 818.643 476.342 821.69C478.633 831.478 511.018 831.602 518.876 831.555C529.055 831.339 545.273 830.44 553.314 822.772C556.768 819.478 554.871 813.862 551.304 811.376C545.85 807.574 538.408 807.015 533.021 803.084C527.004 798.259 525.427 786.631 523.887 779.495C520.995 763.416 519.809 746.51 518.892 730.228L510.113 730.196ZM604.987 731.297C599.219 731.822 582.906 732.957 578.519 735.48C580.456 736.147 584.361 735.589 586.469 735.357C589.525 734.944 611.121 732.595 612.435 731.436C609.754 730.723 607.747 730.936 604.987 731.297ZM411.068 732.075C397.767 735.238 383.674 741.632 370.937 746.593C367.286 748.016 357.521 749.172 354.899 750.795L354.987 751.344C357.909 752.397 364.004 752.12 367.288 752.364C377.034 753.087 397.205 752.706 405.246 757.696C408.774 763.839 407.912 766.432 407.114 773.45C411.509 773.636 437.368 761.196 443.757 759.108C447.962 757.734 457.305 754.672 461.703 753.163L462.122 752.538C460.978 749.355 446.302 741.818 442.777 740.087C434.475 736.011 420.421 731.094 411.068 732.075ZM614.053 734.198C601.724 735.566 589.734 737.113 577.445 738.901C576.739 744.537 576.329 749.36 575.945 755.018C586.923 758.759 598.346 763.508 609.371 767.547C614.216 770.205 615.567 770.285 621.086 770.699C621.286 765.804 621.488 761.015 621.518 756.111C628.781 754.609 635.46 753.007 642.562 750.894C642.849 748.027 643.099 744.96 643.449 742.118C640.816 740.527 639.197 738.635 637.063 736.429C631.136 736.401 616.567 733.632 614.053 734.198ZM376.892 741.183C371.224 742.589 366.476 743.903 360.526 743.485C357.856 743.298 355.325 742.069 353.981 743.954C353.937 746.091 353.943 746.01 354.606 748.056C358.686 747.412 374.824 744.111 377.157 741.257L376.892 741.183ZM645.616 742.764L645.072 750.19C648.163 749.282 651.973 747.632 654.817 749.059L656.141 750.763L657.625 750.136C655.699 747.515 648.724 744.457 645.616 742.764ZM574.983 757.41C573.61 764.291 573.554 780.802 573.254 788.461C573.024 794.318 571.932 807.977 572.185 813.251C573.655 813.37 573.755 813.164 575.161 812.581C577.632 808.574 578.029 766.823 578.334 759.408C578.366 758.617 575.659 757.648 574.983 757.41ZM641.524 757.539C637.583 758.751 632.597 760.134 628.806 761.549C628.657 763.664 627.823 769.162 629.937 770.241C633.597 770.218 638.874 770.03 642.397 770.343C642.436 767.959 642.819 759.409 642.162 757.707L641.524 757.539ZM352.956 758.046C351.418 759.07 350.363 759.486 349.798 761.204C349.942 762.533 349.932 762.944 350.985 763.905C355.542 768.063 392.922 769.267 401.125 769.55L403.21 769.41C404.517 765.167 400.029 762.364 396.519 761.72C382.325 759.113 367.31 757.83 352.956 758.046ZM454.111 758.29C451.923 761.493 453.996 793.066 453.52 798.879C453.401 800.332 453.684 804.065 454.447 805.359L455.706 805.934C456.095 805.519 456.484 805.105 456.872 804.69C457.334 801.256 456.999 791.75 456.833 788.836C456.537 783.623 456.162 761.708 454.968 758.77L454.111 758.29ZM581.536 759.331C580.854 761.664 579.256 797.873 579.737 800.59L580.253 801.107C581.643 798.18 582.698 764.777 582.227 760.166L581.536 759.331ZM449.442 759.796C447.907 760.483 447.419 760.37 446.682 761.541C446.931 775.112 447.477 788.687 447.751 802.259C447.802 804.743 447.559 808.603 449.044 810.526C451.346 809.262 451.989 808.646 451.57 805.617C450.666 799.086 451.87 763.4 450.276 760.105L449.442 759.796ZM356.336 768.489C356.503 783.133 355.811 794.979 353.101 809.535C352.559 812.446 350.554 819.964 351.806 822.237C352.075 822.168 352.8 822.009 353.012 821.894C355.312 809.287 359.399 782.754 359.143 769.617C358.198 768.704 357.651 768.759 356.336 768.489ZM607.065 769.279C606.837 781.794 606.616 794.206 605.738 806.695C605.641 808.079 605.666 807.969 606.5 808.929L609.088 809.497C609.275 805.055 610.606 771.758 609.341 770.491C608.656 769.806 607.951 769.605 607.065 769.279ZM384.608 770.937C384.252 776.104 382.854 792.981 384.307 797.209C385.249 797.768 385.197 797.744 386.272 797.96C386.649 797.535 387.026 797.11 387.403 796.685C387.87 789.146 387.636 781.174 387.446 773.609C387.42 772.576 387.324 772.336 386.995 771.653C386.22 771.418 385.382 771.143 384.608 770.937ZM612.265 772.141C612.084 778.469 611.053 800.306 611.684 805.35C613.199 806.744 615.015 806.208 616.833 805.478C618.171 799.897 618.498 779.889 618.505 773.259C616.316 772.938 614.414 772.706 612.265 772.141ZM639.352 772.263C639.598 776.939 640.021 796.895 641.858 799.207L643.624 799.619C641.457 794.137 643.99 777.912 641.683 772.671C641.568 772.41 639.891 772.304 639.352 772.263ZM645.132 772.504C645.222 778.445 645.364 791.366 645.711 797.854C645.32 798.314 644.93 798.774 644.54 799.234C645.919 799.592 646.226 799.681 647.634 799.791C648.016 794.761 649.848 777.105 649.625 773.084C648.118 772.217 646.903 772.46 645.132 772.504ZM667.599 772.644C667.764 783.769 671.036 817.985 677.239 826.182C678.487 826.638 678.411 826.633 679.736 826.63C678.48 820.356 676.649 814.299 675.444 807.987C673.188 796.176 672.866 784.877 673.372 772.961L667.599 772.644ZM417.516 773.017C415.516 773.934 414.981 773.757 414.008 775.283C413.752 779.245 413.685 807.578 414.42 810.187L415.563 811.149C416.032 810.884 417.77 810.076 417.734 809.653C417.36 805.342 418.39 774.711 417.516 773.017Z" fill="#010000"/>
<path d="M389.594 335.758C394.361 320.641 405.086 304.101 415.688 292.421C439.369 266.335 475.769 253.341 510.398 251.732C525.349 251.176 544.087 253.69 557.898 258.577C599.769 273.395 621.45 294.393 640.882 333.144L627.226 332.431C612.237 286.598 562.927 261.318 517.054 259.766C492.279 259.331 470.559 265.142 448.754 276.838C424.416 289.891 407.96 308.354 400.036 335.001C396.737 335.392 392.95 335.547 389.594 335.758Z" fill="#D2F6E8"/>
<path d="M456.827 332.324C455.814 316.258 461.486 299.133 470.69 286.017C476.984 277.046 491.493 264.042 502.664 262.152C520.505 260.915 533.032 260.719 545.957 274.553C561.318 290.995 565.603 309.129 565.483 330.98C549.455 330.892 533.4 330.739 517.376 330.981C497.277 331.048 476.908 331.618 456.827 332.324Z" fill="#D2F6E8"/>
<path d="M403.715 334.717L403.193 334.737L402.73 334.027C404.425 326.396 410.229 316.282 414.35 309.685C429.501 285.432 462.466 269.904 489.907 264.132L491.256 264.098C490.914 264.986 484.611 268.965 483.218 270.049C463.245 285.597 454.818 307.844 454.586 332.478C438.897 332.447 419.489 333.697 403.715 334.717Z" fill="#D2F6E8"/>
<path d="M567.544 330.969C567.704 303.32 560.563 280.667 536.863 264.414C543.787 265.251 559.335 270.026 565.703 272.73C584.814 280.846 604.652 295.412 615.828 313.183C619.296 318.698 622.359 326.37 624.863 332.445C605.986 331.345 586.476 331.195 567.544 330.969Z" fill="#D2F6E8"/>
<path d="M735.496 272.27C833.085 244.45 881.057 292.301 879.06 389.231C878.471 417.833 876.749 441.842 871.704 470.152C861.712 535.721 838.645 611.02 776.813 645.292L779.794 540.293L780.817 513.506C781.012 508.655 780.721 493.455 784.412 490.832C789.276 492.17 790.677 503.053 800.088 505.746C805.359 507.254 810.419 507.322 815.778 504.735C828.989 498.356 825.805 480.087 825.954 468.109C825.988 465.329 825.302 461.658 826.197 459.186C827.263 457.777 827.795 457.739 829.453 457.131L830.001 456.936L830.193 456.396C827.42 454.363 823.558 454.184 820.122 453.686C784.31 448.506 747.143 439.747 715.633 421.396C708.901 417.476 702.889 412.685 696.035 409.167C695.533 400.986 695.895 380.729 698.92 373.331C700.107 370.429 707.08 358.674 709.068 355.263C705.992 347.731 701.914 345.458 699.46 338.047C706.772 334.962 732 282.061 735.204 272.702L735.496 272.27Z" fill="#FFCFD2"/>
<path d="M635.148 317.477C639.977 315.895 651.255 307.712 657.316 304.571C678.368 293.662 712.082 277.402 735.202 272.699C731.998 282.058 706.77 334.959 699.458 338.044C695.808 335.512 650.844 333.601 643.511 333.374C640.796 327.947 638.246 322.704 635.148 317.477Z" fill="#F1C0E8"/>
<path d="M636.402 335.24C634.986 340.602 634.714 341.54 635.768 346.978C554.849 349.553 473.453 349.766 392.582 352.834L343.532 354.427C332.361 354.746 321.302 354.738 310.184 355.995C310.355 351.328 310.541 347.281 310.987 342.611C320.79 342.416 331.95 341.432 341.841 340.87L413.747 336.522C482.501 332.517 551.539 332.067 620.366 334.358C625.737 334.537 631.044 334.798 636.402 335.24Z" fill="#90DBF4"/>
<path d="M635.765 346.976C634.711 341.538 634.983 340.6 636.399 335.238C653.645 336.072 680.209 336.974 696.868 339.265L700.968 346.293C679.837 347.101 657.222 346.493 635.765 346.976Z" fill="#F1C0E8"/>
<path d="M317.191 357.465C336.517 356.242 356.522 356.095 375.916 355.443C462.208 352.544 548.624 350.972 634.95 349.242C656.412 348.528 681.62 348.716 703.188 348.944C704.273 350.629 705.254 352.696 706.174 354.501C688.737 354.536 671.325 354.79 653.893 355.207C565.151 357.334 475.828 356.973 387.197 361.431C372.367 361.49 357.34 362.758 342.498 363.117C334.291 363.316 326.067 363.601 317.877 364.17C317.491 362.194 317.357 359.524 317.191 357.465Z" fill="url(#paint0_linear_2261_3656)"/>
<path d="M700.461 365.736L699.168 368.225C697.237 369.381 696.016 370.635 694.218 371.937C690.194 372.061 691.39 359.866 691.418 356.57L705.214 356.692C703.599 359.675 702.033 362.727 700.461 365.736Z" fill="#F1C0E8"/>
<path d="M652.602 357.457L663.701 357.269C672.176 357.067 680.512 356.915 688.989 356.891C689.378 361.648 689.407 366.969 689.535 371.779L676.227 372.095L653.056 372.919L652.602 357.457Z" fill="#F1C0E8"/>
<path d="M631.047 357.786C637.447 357.681 644.019 357.495 650.404 357.492C650.465 362.636 650.587 367.934 650.574 373.065C644.344 373.228 637.824 373.491 631.618 373.507C631.267 368.205 631.166 363.091 631.047 357.786Z" fill="#F1C0E8"/>
<path d="M584.009 358.484L600.116 358.264C605.119 358.12 610.278 358.122 615.296 358.059L615.36 374.097C609.893 374.448 603.93 374.479 598.42 374.614C593.619 374.896 588.719 375.078 583.906 375.305L584.009 358.484Z" fill="#90DBF4"/>
<path d="M617.874 358.016L631.048 357.785C631.167 363.09 631.268 368.204 631.619 373.506C627.126 373.501 622.287 373.789 617.773 373.972L617.874 358.016Z" fill="#90DBF4"/>
<path d="M546.39 359.264L565.613 358.777C570.719 358.446 576.427 358.515 581.585 358.469L581.523 375.451C574.748 375.481 567.67 375.806 560.874 376.027C555.983 376.27 551.191 376.409 546.301 376.531L546.39 359.264Z" fill="#90DBF4"/>
<path d="M510.329 360.015C514.445 359.983 518.639 359.831 522.76 359.725C529.37 359.332 537.59 359.422 544.327 359.309L544.086 376.537C540.173 376.622 536.196 376.801 532.279 376.939L510.227 377.536L510.329 360.015Z" fill="#90DBF4"/>
<path d="M471.82 360.616L498.159 360.262C501.364 360.104 504.798 360.09 508.025 360.023L508.013 377.709L480.8 378.605L471.843 378.99L471.82 360.616Z" fill="#90DBF4"/>
<path d="M434.033 361.658L466.016 360.723L469.092 360.755C470.138 362.056 469.696 376.362 469.68 379.094C459.446 379.708 447.754 379.793 437.376 380.12C436.051 380.199 435.877 380.386 434.823 379.682C433.519 376.933 434.024 365.545 434.033 361.658Z" fill="#90DBF4"/>
<path d="M398.484 362.96C405.141 362.616 411.981 362.477 418.66 362.271C422.997 362.048 427.606 362.004 431.968 361.887L432.02 380.469C425.296 380.52 418.304 380.823 411.561 381.029L398.494 381.542L398.484 362.96Z" fill="#90DBF4"/>
<path d="M361.705 364.448L390.639 363.277C392.561 363.134 393.682 363.12 395.609 363.173C396.931 364.737 396.354 378.797 396.33 381.755L366.125 382.822C364.663 382.91 363.1 383.247 361.971 382.503C361.457 378.641 361.692 368.727 361.705 364.448Z" fill="#90DBF4"/>
<path d="M329.619 365.713C338.503 365.501 347.244 365.124 356.116 364.719C357.956 364.69 358.423 364.313 359.41 365.225C359.894 370.092 359.586 377.904 359.535 382.993C350.707 383.231 341.854 383.423 333.037 383.878C331.244 383.913 330.932 384.244 329.726 383.429C329.276 379.733 329.574 369.89 329.619 365.713Z" fill="#90DBF4"/>
<path d="M326.195 410.498C325.084 412.592 321.496 414.286 319.263 413.993C318.092 411.276 317.371 369.465 318.31 366.64L319.98 366.287L327.266 365.953C327.106 379.679 326.911 393.374 327.382 407.096C325.727 407.565 323.972 407.961 322.48 408.787L322.688 409.186C324.303 409.517 324.746 409.701 326.195 410.498Z" fill="#8EECF5"/>
<path d="M653.27 374.955L674.835 374.25C679.759 374.079 684.768 374.048 689.7 373.969C691.032 385.491 691.167 398.93 693.702 410.106C686.59 411.887 678.206 412.761 670.881 413.687C665.829 414.325 660.717 414.87 655.653 415.448C654.796 402.137 653.623 388.227 653.27 374.955Z" fill="#F1C0E8"/>
<path d="M694.466 388.838L693.827 391.994C693.247 392.107 693.463 392.185 693.138 391.985C692.878 387.951 690.833 376.622 693.353 373.906L695.001 373.984C696.042 376.031 694.621 385.467 694.466 388.838Z" fill="#F1C0E8"/>
<path d="M617.807 376.002L645.837 375.275C647.5 375.175 649.344 374.833 650.729 375.609C651.11 377.712 651.169 379.844 651.279 381.975C651.857 393.224 652.622 404.46 653.544 415.686C643.863 416.812 633.869 417.312 624.122 417.931L617.543 418.21L617.807 376.002Z" fill="#F1C0E8"/>
<path d="M583.872 377.238L612.483 376.233C613.839 376.115 614.094 375.909 615.222 376.553C615.807 379.4 615.554 387.269 615.544 390.591L615.449 418.462C606.07 418.461 596.128 419.476 586.376 419.526C585.102 419.597 585.041 419.525 583.779 419.228C583.361 416.708 583.631 408.405 583.656 405.449L583.872 377.238Z" fill="#90DBF4"/>
<path d="M546.263 378.521C554.398 378.409 562.833 378.032 570.987 377.778C574.334 377.557 578.135 377.536 581.524 377.445L581.414 419.516L556.248 419.583L546.035 419.564C546.067 405.895 546.039 392.184 546.263 378.521Z" fill="#90DBF4"/>
<path d="M510.215 379.648C519.989 379.54 529.862 379.093 539.638 378.729C541.14 378.598 542.755 378.33 543.874 379.364C544.333 383.286 544.031 390.324 543.979 394.622L543.758 419.611C520.708 419.439 494.943 419.475 471.889 417.995L471.883 385.377C471.829 383.738 471.637 382.868 472.381 381.41C474.979 380.909 481.911 380.822 485.019 380.702L508.015 379.725C508.027 387.442 507.21 412.568 509.094 418.263L509.658 418.215C510.629 413.387 510.133 386.534 510.215 379.648Z" fill="#90DBF4"/>
<path d="M434.347 382.441C440.472 382.075 447.059 381.976 453.229 381.783C458.285 381.448 464.507 381.452 469.662 381.336L469.687 417.85C446.106 416.606 421.888 415.175 398.371 412.95L398.418 401.376L398.447 383.556C409.531 383.419 420.877 382.846 432.006 382.582C431.975 386.783 431.362 412.362 432.564 414.443L433.362 414.183C434.562 412.273 434.31 386.59 434.347 382.441Z" fill="#90DBF4"/>
<path d="M361.708 384.877C367.796 384.585 374.091 384.467 380.198 384.277L396.23 383.699C396.175 393.349 396.021 403.127 396.382 412.76L379.623 411.563L361.566 410.466C361.962 402.802 361.703 392.674 361.708 384.877Z" fill="#90DBF4"/>
<path d="M329.516 386.083L352.052 385.28C354.406 385.134 357.084 385.095 359.465 385.012L359.551 410.452C351.889 410.092 344.059 410.081 336.375 409.991C327.791 409.529 329.568 398.639 329.456 392.591C329.417 390.44 329.495 388.24 329.516 386.083Z" fill="#90DBF4"/>
<path d="M693.141 391.983C693.466 392.183 693.25 392.105 693.83 391.992L694.469 388.836C694.542 393.142 694.503 395.997 694.155 400.274C693.824 397.724 693.32 394.484 693.141 391.983Z" fill="#767172"/>
<path d="M296.941 419.275C298.304 417.112 312.964 400.202 314.942 399.152C315.398 399.858 315.7 404.768 315.908 406.273C316.081 409.257 316.198 412.462 316.531 415.415L296.941 419.275Z" fill="#FFEDE1"/>
<path d="M228.152 446.616C252.443 442.515 279.246 433.557 302.235 424.993C310.301 423.187 325.646 412.476 332.906 412.348C370.392 411.685 415.224 416.779 452.006 419.046C501.118 422.072 548.524 421.965 597.012 421.389C599.217 432.584 611.259 443.209 612.355 448.57L452.651 446.275C421.687 445.755 390.6 444.806 359.638 444.617C314.66 444.343 273.215 449.921 228.152 446.616Z" fill="#D2F6E8"/>
<path d="M597.012 421.387C632.292 419.65 661.83 418.004 696.766 412.035C727.682 432.276 747.952 440.901 784.641 449.411C792.966 451.342 802.055 452.658 810.096 454.521C786.626 454.77 759.454 453.146 735.782 452.359L612.355 448.568C611.259 443.207 599.217 432.582 597.012 421.387Z" fill="#F1C0E8"/>
<path d="M229.372 443.435C240.901 439.777 252.35 436.021 263.772 432.035C279.704 426.475 295.286 420.804 312.09 418.582C309.015 420.049 306.008 421.173 302.846 422.413C279.027 431.756 254.14 439.238 229.125 444.751L229.372 443.435Z" fill="#D2F6E8"/>
<path d="M229.126 444.754C226.764 445.306 225.23 445.583 222.825 445.893L222.696 445.419L222.15 445.624L222.059 445.561L222.348 445.797C223.054 444.699 227.758 443.847 229.373 443.438L229.126 444.754Z" fill="#A3C4F3"/>
<path d="M200.309 448.898C209.674 448.904 221.18 448.435 230.461 449.095C265.674 451.601 300.023 447.969 335.18 447.227C354.554 446.666 374.59 447.064 393.987 447.299L497.301 449.038L610.577 450.62C635.759 451.158 660.887 452.399 686.045 453.16L824.009 457.586L824.013 467.526C778.261 465.542 733.041 465.191 687.25 464.879C554.64 464.625 421.039 461.686 288.388 465.645C259.281 466.514 231.105 468.008 201.892 468.195C201.514 461.445 201.065 455.612 200.309 448.898Z" fill="#FDF9F0"/>
<path d="M201.801 470.251C242.559 469.981 281.656 467.59 322.2 466.781C378.23 465.664 434.762 465.894 490.844 465.749C500.482 465.63 510.456 465.761 520.101 465.913C621.269 467.505 722.937 465.471 824.017 469.597C824.128 482.765 826.371 501.288 809.547 504.591C801.494 506.173 795.582 501.865 791.392 495.189C790.392 494 786.631 485.829 784.154 487.654C779.993 490.72 776.388 495.407 772.308 498.597C761.548 507.236 748.921 504.793 741.171 493.487C733.333 482.053 729.583 493.274 722.55 498.373C717.379 502.122 713.099 503.96 706.678 502.781C696.663 500.942 693.895 491.814 685.158 487.77L684.509 487.476C677.811 490.426 675.368 495.81 669.782 499.488C657.211 507.247 646.194 502.626 637.997 491.36C624.268 472.491 620.905 503.275 604.667 501.931C593.74 502.208 588.916 494.554 582.04 487.216C574.072 478.362 568.744 487.466 562.993 493.227C551.348 504.895 540.515 502.677 529.842 491.251C527.596 488.85 525.024 485.417 521.863 484.249C517.679 482.704 507.559 494.376 502.2 496.892C486.065 504.468 480.354 486.25 469.481 482.636C461.876 480.109 453.218 495.191 445.04 499.113C427.584 507.485 421.719 485.923 412.429 483.445C407.424 482.11 397.749 495.013 392.813 497.962C373.775 509.334 363.469 484.324 354.744 483.085C349.917 482.399 341.375 494.125 336.865 497.204C317.671 510.31 305.87 484.274 298.035 483.7C293.269 483.35 287.516 491.452 284.219 494.492C279.383 498.951 273.305 502.564 266.508 502.168C258.773 501.717 253.716 494.161 249.024 488.904C247.27 486.939 245.027 485.007 242.24 485.044C239.129 485.085 236.232 489.469 234.318 491.587C230.237 496.103 227.295 498.382 220.939 498.596C215.968 498.763 211.442 497.354 207.83 493.853C201.249 487.472 201.881 478.64 201.801 470.251Z" fill="#FDF9F0"/>
<path d="M871.703 470.152C898.254 472.585 920.814 484.007 937.642 505.253C1019.76 608.933 961.652 772.221 868.553 848.57C831.415 878.921 787.15 896.067 740.018 905.151C674.322 917.813 639.745 885.622 670.969 822.221C670.735 822.696 672.275 820.692 672.298 820.657C672.841 822.167 674.284 827.494 675.486 828.085C686.793 833.639 679.503 814.986 678.515 810.981C683.981 807.711 703.666 773.466 712.89 767.242C718.561 763.416 724.693 755.691 731.873 752.076C734.54 750.733 744.819 743.078 746.64 740.987C755.803 741.046 764.646 741.121 773.813 741.501L776.812 645.292C838.644 611.02 861.711 535.721 871.703 470.152ZM845.386 588.518C837.76 590.847 834.155 595.949 830.54 602.75C822.714 617.472 819.192 633.141 824.148 649.393C826.361 656.651 833.974 668.864 842.863 666.495C842.131 664.942 836.473 663.332 834.458 661.416C821.917 649.498 822.14 629.972 827.818 614.523C829.758 609.245 838.226 588.175 847.9 591.066C853.001 592.59 858.177 605.505 859.761 610.079C866.38 630.807 874.339 655.709 847.384 665.11C847.988 660.461 850.601 643.877 849.632 640.506L848.664 640.139C847.511 641.057 847.542 641.568 847.39 643.402C846.941 648.823 846.165 654.359 845.746 659.765C841.109 649.657 836.182 634.185 842.792 623.948C842.229 622.79 842.669 623.117 841.641 622.712C839.802 623.581 839.185 624.913 838.618 626.801C835.866 637.061 837.528 645.813 841.498 655.499C842.682 658.386 844.704 663.564 844.662 666.594C844.334 690.227 843.467 713.859 843.476 737.509C837.57 737.472 817.07 737.152 817.614 746.563C822.061 757.178 859.646 755.512 868.11 750.221C869.642 749.264 873.363 748.076 871.802 745.037C866.91 738.619 853.042 737.72 845.873 737.497C845.966 713.949 846.049 690.871 847.056 667.326C872.43 660.374 871.062 638.256 864.665 617.742C862.093 609.496 856.525 588.336 845.386 588.518Z" fill="#D2F6E8"/>
<path d="M388.55 502.381C410.316 493.313 405.082 473.901 423.222 496.177C424.289 497.487 427.947 499.848 429.36 500.538C446.647 508.985 454.234 492.223 465.976 484.55C469.572 482.334 479.051 493.513 483.903 496.699C502.855 509.145 513.826 487.604 520.731 486.311C524.814 487.117 529.878 495.402 534.385 498.373C546.508 506.963 557.812 502.326 566.636 492.231C574.792 482.9 577.472 484.835 584.625 493.24C591.085 500.833 596.274 504.255 606.628 503.639C626.089 502.482 622.26 473.743 639.067 496.374C632.954 503.316 631.498 505.173 630.466 514.59C604.686 514.274 578.773 514.527 552.979 514.504L405.564 514.446C405.033 565.462 407.219 614.539 408.563 665.4C398.512 666.15 395.397 663.244 383.11 665.904C383.125 662.379 383.094 659.336 382.894 655.82C382.66 639.35 383.147 622.357 383.335 605.859L383.597 551.204C384.921 550.999 386.473 550.935 387.549 550.071C389.925 548.165 388.619 508.118 388.55 502.381Z" fill="#FDF9F0"/>
<path d="M386.521 512.101C379.672 512.242 372.804 512.932 365.959 513.492C362.496 513.775 351.855 512.697 349.903 513.916C316.361 508.481 299.367 512.449 269.582 526.547C268.839 519.698 268.411 511.254 268.77 504.391C284.782 501.452 286.096 493.366 297.551 484.9C306.18 490.815 310.738 500.154 322.807 502.143C338.846 504.785 343.507 491.628 353.993 484.488C367.57 492.936 366.438 501.824 386.27 502.649C386.457 505.635 386.456 509.079 386.521 512.101Z" fill="#FDF9F0"/>
<path d="M240.415 548.429L240.234 510.43C240.194 505.862 239.339 491.459 241.311 488.048C242.046 487.707 242.785 487.179 243.648 487.796C253.131 494.588 253.587 500.796 266.238 504.155C266.884 520.189 268.731 541.614 268.595 556.948L268.306 561.675L267.836 561.856L262.424 556.369C255.292 549.091 249.993 548.534 240.415 548.429Z" fill="#D2F6E8"/>
<path d="M670.305 501.699L670.825 501.346C674.533 498.779 680.95 489.908 685.38 490.723C693.051 492.135 700.732 512.898 720.533 502.377C726.071 499.435 729.771 493.77 734.627 489.926C741.424 496.612 743.905 502.466 754.239 505.392C749.967 521.659 743.829 535.051 732.312 547.522C719.551 547.429 706.896 547.307 694.138 546.987C692.679 533.644 688.204 520.239 678.69 510.309C675.925 507.424 672.063 505.229 670.305 501.699Z" fill="#FDF9F0"/>
<path d="M754.24 505.389C765.419 507.083 772.304 502.327 779.857 494.91C778.394 507.685 778.172 523.971 777.697 536.994L775.385 613.009L774.616 636.857C774.539 639.756 774.536 647.519 774.229 649.843C771.224 650.147 760.087 654.96 757.041 656.528C756.58 658.441 756.63 660 756.232 661.788C756.302 658.245 756.422 656.043 751.826 656.287C749.622 656.403 747.349 656.434 745.135 656.45C744.476 625.735 746.245 594.27 746.008 563.505C745.982 560.151 748.923 561.925 749.794 560.53C751.494 557.807 752.344 551.615 752.33 548.495C750.403 547.13 735.792 547.524 732.312 547.519C743.83 535.048 749.968 521.656 754.24 505.389Z" fill="#FFCFD2"/>
<path d="M639.067 496.375C646.079 503.073 648.727 504.259 658.289 505.389C659.977 518.03 662.989 534.637 665.742 546.934L655.996 547.024C655.92 554.548 655.008 559.71 663.05 562.874L662.159 628.039L661.674 624.374C660.144 624.85 636.353 650.379 630.609 654.261C630.052 640.157 630.466 623.039 630.44 608.73L630.466 514.591C631.498 505.174 632.954 503.317 639.067 496.375Z" fill="#FFEDE1"/>
<path d="M397.052 797.306C396.657 799.83 397.335 802.007 395.712 804.19C391.593 809.731 385.915 813.809 380.93 818.564C362.782 835.467 338.807 844.573 317.346 856.588C299.574 866.581 282.281 876.756 263.22 884.12C212.779 903.607 156.834 898.509 112.398 866.907C75.514 840.677 59.6654 799.388 52.2298 756.323C50.1202 744.105 50.0311 731.252 49.7738 718.893C47.1084 644.675 77.0538 571.239 125.256 515.541C129.812 510.276 134.886 504.736 138.988 499.164C148.108 524.659 159.648 548.262 172.181 572.247C174.954 577.553 180.529 589.063 183.907 593.431C175.345 611.69 161.171 637.744 168.27 657.923C172.5 669.947 178.957 674.121 189.963 678.816C190.867 686.64 190.598 697.543 190.61 705.639L190.643 748.479C182.62 748.435 171.187 748.356 164.65 754.204C161.325 757.634 162.274 763.184 166.056 765.829C170.508 768.943 176.361 770.396 182.008 770.916C191.864 771.822 209.103 774.046 216.8 766.077C220.143 762.616 216.405 756.039 213.021 754.286C207.213 750.541 199.971 749.712 193.233 748.809C192.702 726.488 193.838 700.87 192.563 679.185C205.929 675.668 217.301 664.95 218.607 650.698C227.491 652.816 230.084 652.865 238.974 650.432L239.672 707.99C239.746 715.498 240.393 724.227 239.608 731.583C239.449 733.071 237.352 735.968 236.43 737.446C236.467 739.568 236.217 742.628 237.272 744.324C245.88 749.414 273.17 748.693 283.4 750.343C291.195 751.601 345.18 755.252 347.893 757.486C346.197 763.581 347.681 766.731 353.865 768.466C353.923 778.249 353.946 784.717 353.124 794.292C352.67 799.587 348.383 821.171 348.752 823.822C350.176 824.751 350.996 824.715 352.797 824.487C357.152 823.935 355.785 817.83 356.475 814.988C360.137 799.903 359.797 784.62 361.564 769.384C366.806 769.799 372.441 770.298 377.682 770.556C377.951 778.508 377.746 794.239 378.704 801.15C381.249 800.661 393.101 798.102 394.772 796.734L395.316 798.822C395.992 795.089 394.236 791.298 395.114 789.208C397.108 790.616 396.611 794.759 397.052 797.306Z" fill="#FBF8CC"/>
<path d="M658.289 505.387C663.832 504.617 665.32 504.372 670.307 501.695C672.065 505.225 675.927 507.42 678.692 510.305C688.206 520.235 692.681 533.64 694.14 546.983C684.655 546.848 675.225 546.892 665.742 546.932C662.989 534.635 659.977 518.028 658.289 505.387Z" fill="#8EECF5"/>
<path d="M349.902 513.917C351.854 512.698 362.495 513.776 365.958 513.493C372.803 512.933 379.671 512.243 386.52 512.102L386.521 527.914C372.203 520.827 365.703 518.024 349.902 513.917Z" fill="#8EECF5"/>
<path d="M269.449 528.841C287.47 521.258 294.616 516.137 315.693 514.251C340.243 511.524 365.172 518.971 386.585 530.565C386.625 534.6 386.973 544.39 386.263 547.614L385.756 547.912C383.497 549.239 380.36 546.314 378.895 544.916C367.274 533.83 355.482 528.548 339.62 526.169C314.18 522.286 288.843 530.643 270.533 548.639C270.366 541.904 269.927 535.564 269.449 528.841Z" fill="#D2F6E8"/>
<path d="M407.523 551.566C407.392 539.883 407.546 528.241 407.668 516.56L475.817 516.535C475.838 525.998 476.37 542.267 475.59 550.856C453.948 551.687 429.374 551.402 407.523 551.566Z" fill="#FBF8CC"/>
<path d="M477.98 550.884L477.985 516.589L549.228 516.543C549.562 525.886 548.802 540.448 548.572 550.139C525.937 549.939 500.597 550.278 477.98 550.884Z" fill="#FFEDE1"/>
<path d="M550.727 550.169L551.467 516.563C577.057 516.836 602.741 516.431 628.359 516.61C628.314 524.102 628.748 543.728 627.969 550.125C602.545 549.616 576.203 550.055 550.727 550.169Z" fill="#FFEDE1"/>
<path d="M270.602 551.507C285.531 536.785 300.411 529.698 321.106 527.7C339.848 525.623 361.005 531.382 374.858 544.337C376.897 546.244 378.877 548.142 381.103 549.832L381.501 550.129C381.534 555.057 381.97 564.717 380.978 569.513C380.852 570.121 380.325 570.119 379.621 570.367C378.891 570.203 376.949 569.72 376.571 569.08C365.348 550.09 352.386 536.659 329.022 535.383C311.366 534.729 299.026 543.661 289.681 558.189C286.685 562.845 284.409 568.126 280.684 572.225C277.577 571.899 273.987 571.78 270.834 571.607L270.602 551.507Z" fill="#FDF9F0"/>
<path d="M287.305 685.512L288.234 599.855C288.317 594.07 287.724 569.984 289.328 565.224C300.03 533.474 339.082 528.628 361.272 551.939C366.933 557.886 369.834 562.868 374.068 569.822C353.46 580.941 332.341 594.671 325.269 618.375C320.308 635.001 324.211 659.345 337.653 671.162C330.982 676.904 337.731 682.749 339.841 688.868C341.752 694.409 353.639 737.102 351.342 740.656C348.873 736.229 345.622 715.984 343.913 709.52C341.949 702.09 340.157 694.193 337.275 686.83L337.003 686.142C323.399 684.873 301.41 685.412 287.305 685.512Z" fill="#D2F6E8"/>
<path d="M240.414 548.43C249.992 548.535 255.291 549.092 262.423 556.37L267.835 561.857L268.305 561.676L268.594 556.949C269.067 562.413 268.619 572.166 268.533 577.933L268.304 612.879L268.371 658.574C268.379 663.518 268.689 677.027 268.101 681.594C267.667 676.912 267.915 667.239 267.912 662.188L267.825 625.954C261.544 632.322 250.961 646.403 241.413 648.259C240.668 615.351 240.563 581.392 240.414 548.43Z" fill="#8EECF5"/>
<path d="M657.969 549.333C670.047 549.073 682.28 549.259 694.372 549.338C693.739 553.021 692.721 557.086 692.553 560.721C686.05 560.582 664.521 561.892 659.508 558.348C658.187 557.415 658.079 551.399 657.969 549.333Z" fill="#F1C0E8"/>
<path d="M694.37 549.34C705.006 549.124 715.472 549.359 726.101 549.555L726.551 550.489C725.06 554.386 718.766 556.574 716.729 560.659C710.107 561.181 699.362 560.798 692.551 560.723C692.719 557.088 693.737 553.023 694.37 549.34Z" fill="#FDF9F0"/>
<path d="M726.102 549.555L749.669 550.035C749.626 552.028 749.736 557.583 748.413 558.206C742.866 560.818 721.934 560.573 716.73 560.659C718.767 556.574 725.061 554.386 726.552 550.489L726.102 549.555Z" fill="#FBF8CC"/>
<path d="M550.54 552.343L556.403 552.24C580.091 551.937 604.682 551.918 628.345 552.361C628.277 556.226 629.308 559.745 627.754 562.705C625.942 563.78 625.767 563.362 623.252 563.328C599.347 563.214 574.558 562.358 550.461 562.081L550.54 552.343Z" fill="#F1C0E8"/>
<path d="M477.632 552.961L490.708 552.767C509.41 552.199 529.643 552.449 548.452 552.359C548.439 555.595 548.351 558.899 548.299 562.141L535.124 562.042C515.812 561.857 496.815 562.236 477.535 562.386L477.632 552.961Z" fill="#F1C0E8"/>
<path d="M407.57 553.635L466.768 553.238L475.458 553.047C475.473 556.203 475.302 559.334 475.166 562.488C456.329 562.405 436.138 563.061 417.249 563.484L407.713 563.661L407.57 553.635Z" fill="#F1C0E8"/>
<path d="M732.415 656.502C732.387 647.153 731.296 566.683 732.808 562.581L734.178 562.285L743.838 561.723C743.079 585.334 743.623 629.92 742.708 655.696C742.458 655.957 742.209 656.219 741.96 656.48L732.415 656.502Z" fill="#FBF8CC"/>
<path d="M663.863 656.487L665.464 562.617L673.203 562.806C672.676 593.751 673.754 624.753 672.693 655.694C672.452 655.952 672.212 656.211 671.971 656.47L663.863 656.487Z" fill="url(#paint1_linear_2261_3656)"/>
<path d="M675.463 592.119C675.158 582.359 675.208 572.408 675.269 562.642C686.652 562.493 698.241 563.248 709.602 563.216C716.296 563.198 723.351 562.613 730.201 562.496C729.032 584.809 729.933 614.928 730 637.799C714.443 638.056 699.507 638.552 683.843 638.575C694.377 627.077 705.167 615.584 716.301 604.663C720.458 600.586 725.586 596.387 728.728 591.479L728.487 590.984L728.783 590.888L728.677 591.415L727.741 591.366C724.56 593.406 719.248 598.804 716.368 601.553C705.286 612.133 694.969 623.551 684.627 634.856C681.882 638.042 678.082 641.768 675.109 644.849C675.379 636.812 675.317 628.941 675.272 620.908C688.005 609.446 698.959 595.049 711.98 583.706C713.18 582.661 716.874 579.465 716.77 578.011C711.251 578.585 682.117 611.38 675.434 617.664L675.374 594.85C678.454 592.117 700.698 571.301 700.112 569.196L699.54 569.169C694.634 572.759 680.398 587.284 675.463 592.119Z" fill="#90DBF4"/>
<path d="M477.514 564.455L491.406 564.24C510.351 563.898 529.324 563.975 548.27 564.089C547.187 593.522 545.811 625.105 545.863 654.51C541.318 654.509 534.786 654.82 530.413 653.929C528.81 653.603 528.383 652.046 527.677 650.66C526.044 649.568 523.85 649.701 521.816 649.576C521.576 647.696 521.512 645.51 521.402 643.592C519.689 639.529 521.153 637.084 519.703 632.511C519.02 631.759 517.736 630.541 516.678 630.502C509.634 630.243 512.631 644.303 511.054 648.741C510.295 650.877 508.073 648.919 505.988 650.437C505.454 653.333 505.219 653.881 501.984 653.897C493.86 653.936 485.616 653.772 477.5 653.665L477.514 564.455Z" fill="#F1C0E8"/>
<path d="M548.016 654.429C547.94 649.925 547.975 645.342 548.113 640.838C548.895 615.371 549.08 589.644 550.321 564.203L628.342 565.365L628.263 654.448L548.016 654.429Z" fill="#F1C0E8"/>
<path d="M407.816 565.757C423.318 564.947 440.956 564.981 456.636 564.767C462.589 564.47 469.238 564.486 475.244 564.379C475.925 593.588 475.497 624.436 475.433 653.729C459.219 653.328 442.454 653.406 426.21 653.322L410.465 653.401C409.175 624.363 408.842 594.892 407.816 565.757Z" fill="#F1C0E8"/>
<path d="M374.066 569.824C376.336 573.569 374.62 575.485 376.714 578.428C378.553 579.407 378.9 579.335 381.037 579.551L380.571 681.781C378.42 681.723 374.718 681.464 373.071 683.054C371.151 679.11 369.827 676.875 365.995 674.47C359.925 670.661 344.308 669.442 337.651 671.164C324.209 659.347 320.306 635.003 325.267 618.377C332.339 594.673 353.458 580.943 374.066 569.824Z" fill="#8EECF5"/>
<path d="M283.271 686.415L281.659 685.159C281.146 680.362 281.489 674.322 281.472 669.417C281.372 639.411 281.848 609.406 282.351 579.406C282.432 574.628 281.713 574.905 285.047 571.719L286.081 572.306C286.417 574.648 286.141 581.747 286.099 584.624L285.654 611.739L285.231 660.421C285.153 668.203 285.111 676.17 284.921 683.961C284.881 685.617 284.753 685.198 283.271 686.415Z" fill="#D2F6E8"/>
<path d="M381.242 577.377C380.468 577.204 379.574 576.926 378.797 576.709C377.408 574.906 377.857 574.988 377.617 572.266C379.186 572.268 379.369 572.182 380.89 572.692C381.694 574.151 381.318 575.481 381.242 577.377Z" fill="#FDF9F0"/>
<path d="M270.757 686.157C270.978 673.139 270.642 660.331 270.596 647.329L270.562 573.99C273.773 573.962 276.931 574.309 280.132 574.584L279.175 685.706C276.59 685.946 273.397 686.026 270.757 686.157Z" fill="#D2F6E8"/>
<path d="M183.905 593.429C188.857 585.824 192.353 586.996 197.101 594.44C207.906 611.381 218.738 630.02 218.605 650.696C217.299 664.948 205.927 675.666 192.561 679.183C193.836 700.868 192.7 726.486 193.231 748.807C199.969 749.71 207.211 750.539 213.019 754.284C216.403 756.037 220.141 762.614 216.798 766.075C209.101 774.044 191.862 771.82 182.006 770.914C176.359 770.394 170.506 768.941 166.054 765.827C162.272 763.182 161.323 757.632 164.648 754.202C171.185 748.354 182.618 748.433 190.641 748.477L190.608 705.637C190.596 697.541 190.865 686.638 189.961 678.814C178.955 674.119 172.498 669.945 168.268 657.921C161.169 637.742 175.343 611.688 183.905 593.429ZM189.088 590.187C181.969 597.642 173.862 622.73 170.307 633.241C169.305 636.203 168.374 643.228 168.527 646.503C169.224 661.476 176.519 670.901 190.254 676.193C189.562 664.544 187.744 656.479 184.2 645.429C183.548 643.399 181.464 637.479 182.011 635.887L182.915 635.604L184.184 636.301L184.62 638.457C188.658 651.861 192.262 662.516 192.638 676.636C213.063 670.513 220.375 653.357 213.793 633.31C211.167 625.312 196.831 591.915 189.088 590.187ZM179.804 751.159C172.205 752.219 154.974 757.545 170.424 765.475C179.721 770.246 199.784 770.375 210.123 767.585C212.396 766.618 217.778 764.026 215.642 760.602C211.434 753.854 200.608 752.055 193.246 751.362C193.548 754.313 194.037 756.471 193.134 759.266L192.451 759.995C190.366 758.007 190.809 753.774 190.812 751.042C187.066 750.958 183.538 750.794 179.804 751.159Z" fill="#010000"/>
<path d="M847.386 665.109C874.341 655.708 866.382 630.806 859.763 610.078C858.179 605.504 853.003 592.589 847.902 591.065C838.228 588.174 829.76 609.244 827.82 614.522C822.142 629.971 821.919 649.497 834.46 661.415C836.475 663.331 842.133 664.941 842.865 666.494C833.976 668.863 826.363 656.65 824.15 649.392C819.194 633.14 822.716 617.471 830.542 602.749C834.157 595.948 837.762 590.846 845.388 588.517C856.527 588.335 862.095 609.495 864.667 617.741C871.064 638.255 872.432 660.373 847.058 667.325C846.051 690.87 845.968 713.948 845.875 737.496C853.044 737.719 866.912 738.618 871.804 745.036C873.365 748.075 869.644 749.263 868.112 750.22C859.648 755.511 822.063 757.177 817.616 746.562C817.072 737.151 837.572 737.471 843.478 737.508C843.469 713.858 844.336 690.226 844.664 666.593C844.706 663.563 842.684 658.385 841.5 655.498C837.53 645.812 835.868 637.06 838.62 626.8C839.187 624.912 839.804 623.58 841.643 622.711C842.671 623.116 842.231 622.789 842.794 623.947C836.184 634.184 841.111 649.656 845.748 659.764C846.167 654.358 846.943 648.822 847.392 643.401C847.544 641.567 847.513 641.056 848.666 640.138L849.634 640.505C850.603 643.876 847.99 660.46 847.386 665.109ZM833.931 740.193C830.186 740.584 823.038 741.293 820.431 744.232C819.546 749.937 835.97 751.982 839.965 752.242C846.657 752.678 852.86 751.902 859.38 750.498C862.606 749.619 867.368 748.935 868.997 746.166C867.753 741.4 850.038 740.288 845.909 739.993C845.319 742.124 845.325 742.914 843.779 744.331L843.275 743.904L842.981 740.316C841.152 739.517 836.033 740.001 833.931 740.193Z" fill="#010000"/>
<path d="M190.255 676.193C176.52 670.901 169.225 661.476 168.528 646.503C168.375 643.228 169.306 636.203 170.308 633.241C173.863 622.73 181.97 597.642 189.089 590.188C196.832 591.916 211.168 625.312 213.794 633.31C220.376 653.357 213.064 670.513 192.639 676.636C192.263 662.516 188.659 651.861 184.621 638.457L184.185 636.301L182.916 635.604L182.012 635.887C181.465 637.479 183.549 643.4 184.201 645.43C187.745 656.48 189.563 664.544 190.255 676.193Z" fill="#FBF8CC"/>
<path d="M630.608 654.262C636.352 650.38 660.143 624.851 661.673 624.375L662.158 628.04C662.049 638.14 661.974 648.103 661.126 658.165C660.792 659.018 661.985 663.845 661.791 664.288C660.423 667.402 656.785 669.936 655.953 673.458C652.484 688.144 649.422 703.181 647.247 718.132C641.841 715.441 637.032 713.365 631.481 711.014C631.045 705.497 630.999 699.246 631.077 693.676C631.26 680.636 630.326 667.251 630.608 654.262Z" fill="#FDF9F0"/>
<path d="M241.414 648.258C250.962 646.402 261.545 632.321 267.826 625.953L267.913 662.187C267.916 667.238 267.668 676.911 268.102 681.593C268.147 683.148 268.375 684.207 267.568 685.494C266.27 686.291 263.257 688.171 262.432 689.38C254.841 700.508 248.279 714.648 242.494 726.629C241.563 701.258 241.655 673.718 241.414 648.258Z" fill="#FDF9F0"/>
<path d="M517.156 636.944C516.487 637.316 515.67 637.301 515.016 636.903C514.363 636.504 513.973 635.786 513.997 635.021C514.021 634.256 514.454 633.563 515.132 633.206C516.162 632.664 517.436 633.051 517.991 634.075C518.545 635.098 518.173 636.377 517.156 636.944Z" fill="#F1C0E8"/>
<path d="M691.512 640.961C701.64 640.837 711.886 640.597 722.006 640.283L730.031 640.004L729.866 656.559L699.523 656.643L691.79 656.511C691.428 651.654 691.537 645.894 691.512 640.961Z" fill="#8EECF5"/>
<path d="M674.856 648.268C677.215 645.357 679.164 643.591 681.912 641.016L689.51 641.043L689.728 656.519L683.121 656.517L674.711 656.491L674.856 648.268Z" fill="#8EECF5"/>
<path d="M512.984 649.925C513.384 647.648 513.721 645.513 514.033 643.223C515.914 643.621 516.823 643.094 518.718 644.311C519.781 645.763 519.452 648.241 519.44 650.173L512.984 649.925Z" fill="#FFEDE1"/>
<path d="M756.231 661.789C756.629 660.001 756.578 658.442 757.039 656.529C760.085 654.961 771.222 650.148 774.227 649.844L772.83 696.061C772.684 701.12 772.678 714.174 772.086 718.699C771.801 716.446 771.852 712.763 771.813 710.39C757.509 704.858 748.716 694.85 736.816 685.907C730.813 681.395 718.827 676.642 714.203 671.334C727.576 670.749 742.335 670.948 755.828 670.853C756.184 667.483 756.216 665.185 756.231 661.789Z" fill="#FBF8CC"/>
<path d="M526.497 655.299C521.611 655.448 513.133 655.792 508.541 655.304C507.585 654.052 507.944 653.989 507.969 651.992C513.283 652.172 520.87 651.518 525.549 652.469C526.738 653.554 526.364 653.141 526.497 655.299Z" fill="#FFEDE1"/>
<path d="M412.211 688.375C411.132 679.023 410.669 664.936 410.438 655.363C442.267 655.185 473.972 655.927 505.784 656.083C506.064 659.838 506.074 664.597 506.193 668.436C499.709 668.348 493.332 668.392 486.848 668.454C469.408 668.502 420.102 671.045 412.211 688.375Z" fill="#FFCFD2"/>
<path d="M383.674 704.585C382.54 695.603 382.298 665.653 382.891 655.82C383.091 659.336 383.122 662.379 383.107 665.904C395.394 663.244 398.509 666.15 408.56 665.4C409.454 681.697 411.033 701.472 410.99 717.617C406.555 714.893 406.311 712.551 399.852 715.227C397.033 714.011 385.685 706.466 383.674 704.585Z" fill="#FBF8CC"/>
<path d="M628.544 669.893C623.766 669.911 612.747 673.057 607.613 674.387C608.142 677.857 608.237 679.348 608.256 682.865C584.437 671.557 555.278 668.87 529.125 668.389L529.179 656.692C562.018 657.571 595.475 656.569 628.327 656.387C628.482 660.8 628.476 665.457 628.544 669.893Z" fill="#FFCFD2"/>
<path d="M508.473 685.055C508.77 676.043 508.574 666.455 508.534 657.398L526.459 657.509L526.479 684.964L508.473 685.055Z" fill="#FDF9F0"/>
<path d="M664.109 665.265C664.051 663.175 663.828 661.668 664.555 659.715C668.716 658.149 705.196 658.807 712.837 658.738C726.139 658.404 740.477 658.628 753.854 658.631C753.996 661.707 753.902 665.347 753.891 668.467L705.748 669.081C702.348 669.176 690.013 669.641 687.475 669.217C680.489 668.048 671.038 666.632 664.109 665.265Z" fill="#FDF9F0"/>
<path d="M646.305 740.251C648.65 726.456 654.431 675.874 661.794 668C666.628 668.388 680.976 668.768 684.031 673.694C684.884 675.07 685.108 681.027 684.758 682.981C681.808 699.449 677.894 715.882 674.249 732.22C673.111 737.278 671.341 743.624 669.308 748.194C659.854 749.693 654.602 745.081 646.305 740.251Z" fill="#FDF9F0"/>
<path d="M607.613 674.389C612.747 673.059 623.766 669.913 628.544 669.895L629.21 710.096C623.789 707.88 618.795 705.678 613.56 703.025C613.514 694.342 616.063 688.06 608.256 682.867C608.237 679.35 608.142 677.859 607.613 674.389Z" fill="#F1C0E8"/>
<path d="M559.382 704.625C524.104 708.156 453.382 707.966 418.753 693.059C417.063 692.332 415.788 690.942 415.266 689.081C415.442 687.933 415.744 686.909 416.642 686.135C432.495 672.469 465.1 671.704 484.441 670.719C491.712 670.411 498.993 670.538 506.27 670.593C506.391 674.363 506.464 678.836 506.244 682.614C506.002 686.764 504.291 683.841 502.03 685.714L501.977 686.978C503.361 687.989 526.072 687.512 529.589 687.502C529.201 681.795 529.131 676.511 529.057 670.803C552.809 671.939 576.861 673.337 599.364 681.762C605.906 683.953 615.987 689.557 604.651 694.84C601.286 696.408 598.383 697.886 594.613 698.945C583.284 702.128 571.059 703.527 559.382 704.625Z" fill="#FDF9F0"/>
<path d="M680.617 738.485C684.712 718.454 687.473 697.912 691.837 677.901C692.465 675.022 690.535 674.086 689.979 671.8C694.014 671.035 709.263 671.308 714.206 671.334C718.83 676.642 730.816 681.395 736.819 685.907C748.719 694.85 757.512 704.858 771.816 710.39C771.855 712.763 771.804 716.446 772.089 718.699C772.485 723.229 771.778 733.977 771.494 738.665C742.237 739.002 709.86 739.112 680.617 738.485Z" fill="#FDF9F0"/>
<path d="M687.997 681.14C687.618 679.045 686.381 674.675 686.838 673.055C690.442 674.401 689.724 678.535 688.903 681.44L687.997 681.14Z" fill="#FFEDE1"/>
<path d="M354.434 740.228C352.647 733.464 351.855 726.078 350.402 719.294C347.207 704.386 343.605 690.136 337.177 676.28C336.646 675.136 338.03 673.954 338.737 673.128C345.18 672.503 362.484 673.104 367.064 678.086C373.976 685.603 375.054 702.031 376.559 711.874C377.782 719.877 379.366 729.743 379.692 737.76C378.725 738.977 378.788 738.618 376.888 739.064C366.711 741.499 364.763 741.377 354.434 740.228Z" fill="#FFEDE1"/>
<path d="M373.074 683.055C374.721 681.465 378.423 681.724 380.574 681.782C380.6 685.209 381.597 706.724 381.238 708.194L380.532 708.422C377.964 706.586 377.363 702.253 376.912 699.271C376.043 693.517 375.027 688.567 373.074 683.055Z" fill="#D2F6E8"/>
<path d="M687.997 681.141L688.903 681.441C688.273 683.983 687.621 686.436 687.186 689.022L686.184 688.736C686.739 686.184 687.37 683.675 687.997 681.141Z" fill="#A29B9F"/>
<path d="M265.752 689.031L285.419 688.772C301.482 688.091 319.351 688.496 335.577 688.569L337.966 696.515L313.302 696.553L260.766 696.473C262.533 693.492 263.541 691.703 265.752 689.031Z" fill="#FDE4CF"/>
<path d="M686.187 688.734L687.189 689.02C685.981 692.773 682.977 711.914 682.035 717.313C678.974 734.871 674.84 752.624 673.394 770.308L644.969 770.122C644.945 767.539 644.044 752.683 646.916 752.635C654.681 752.506 664.338 752.105 670.988 756.239C672.985 751.536 672.915 747.497 674.25 742.697C679.209 724.866 682.189 706.798 686.187 688.734Z" fill="#FDF9F0"/>
<path d="M413.903 722.148C413.056 715.447 412.911 698.874 412.52 690.895C418.187 698.319 431.643 700.969 440.248 702.642C478.474 710.074 559.315 712.646 596.562 700.877C602.001 699.159 606.629 696.949 611.354 693.767C611.192 697.967 611.946 710.371 609.872 712.06C599.48 720.527 570.806 724.98 558.479 726.17C555.63 726.519 552.261 726.634 549.318 726.749C505.166 728.474 459.518 728.631 416.502 717.312C416.23 717.419 415.958 717.526 415.687 717.633L415.817 718.592C420.279 722.317 447.717 726.459 454.951 727.473L455.079 735.101C455.099 736.884 455.325 742.758 454.35 743.755C452.842 741.28 453.46 731.892 453.486 728.414C435.84 728.341 428.468 723.337 413.903 722.148Z" fill="#FDF9F0"/>
<path d="M255.902 705.603C256.742 703.434 257.953 701.161 258.998 699.062C285.098 699.467 312.629 698.947 338.846 698.883C339.568 701.153 340.681 703.398 339.961 705.456L338.104 705.635C333.878 705.829 329.531 705.959 325.302 705.876C302.286 705.421 278.881 706.443 255.902 705.603Z" fill="#FBF8CC"/>
<path d="M641.887 732.536C634.945 733.99 616.043 733.743 610.717 727.164C608.79 724.784 613.427 710.976 614.554 707.184C623.38 710.599 638.954 716.526 646.607 721.031C646.055 724.004 646.235 727.732 645.119 730.5C644.509 732.015 643.432 732.024 641.887 732.536Z" fill="#FDF9F0"/>
<path d="M250.426 716.341C251.59 713.748 253.355 710.526 254.682 707.941C282.694 708.535 313.352 709.246 341.269 708.066C341.894 710.415 343.564 714.775 342.26 716.819L340.624 716.877C310.882 716.57 279.901 717.225 250.426 716.341Z" fill="#FDE4CF"/>
<path d="M391.885 713.075C387.897 712.456 384.502 712.784 383.59 708.32C385.652 709.175 389.716 711.858 391.885 713.075Z" fill="#FBF8CC"/>
<path d="M382.642 738.608C381.969 730.968 379.093 715.675 378.941 709.961C383.212 713.682 382.039 720.273 382.148 725.724C384.325 728.005 388.502 733.829 387.519 737.092L382.642 738.608Z" fill="#FFEDE1"/>
<path d="M384.823 717.44C384.618 716.615 384.311 713.894 384.18 712.918C391.461 715.201 400.056 715.431 402.794 723.455C396.803 719.655 391.715 718.74 384.823 717.44Z" fill="#FFEDE1"/>
<path d="M399.855 715.227C406.314 712.551 406.558 714.893 410.993 717.617C411.402 721.527 412.966 725.676 414.222 729.44C411.399 729.641 409.842 729.925 407.126 730.458C405.542 725.975 405.428 724.875 404.832 720.205C403.048 717.903 402.013 717.086 399.855 715.227Z" fill="#FDF9F0"/>
<path d="M545.387 729.47C565.924 728.248 590.382 725.494 609.214 716.355C608.591 718.791 606.695 725.282 607.674 727.529L609.076 728.318C607.444 730.242 582.052 731.009 578.104 733.182C575.954 734.367 574.554 737.984 574.692 740.396C566.829 741.571 555.868 760.087 549.163 741.969C547.415 737.248 546.104 734.593 545.387 729.47Z" fill="#FFCFD2"/>
<path d="M245.602 726.321L249.09 718.992L343.593 719.533C344.12 721.641 345.185 724.078 343.989 725.925L342.126 726.028C310.05 725.672 277.69 726.105 245.602 726.321Z" fill="#FBF8CC"/>
<path d="M390.894 736.051C387.974 730.426 385.471 726.522 384.746 720.191C388.213 720.605 403.098 723.031 400.385 729.15C399.783 730.509 397.348 731.165 395.964 731.621C394.811 735.349 394.71 735.03 390.894 736.051Z" fill="#FDF9F0"/>
<path d="M451.058 740.869C449.795 740.917 442.178 737.389 440.651 736.498C434.317 732.802 427.733 732.483 421.352 730.266C420.441 729.07 420.532 727.137 420.418 725.551C430.256 728.397 441.11 730.025 451.275 731.103C451.343 734.163 451.151 737.771 451.058 740.869Z" fill="#FFEDE1"/>
<path d="M240.285 736.17C241.689 733.252 243.11 731.239 244.908 728.556L306.708 728.46C318.92 728.445 333.364 728.099 345.371 728.85C345.905 730.705 347.152 733.794 346.556 735.46C345.056 736.487 345.033 736.092 342.749 736.024C309.745 735.336 273.341 735.768 240.285 736.17Z" fill="#FBF8CC"/>
<path d="M518.874 831.554C511.016 831.601 478.631 831.477 476.34 821.689C476.797 818.642 478.845 817.183 481.573 816.071C513.652 803.003 512.05 760.081 510.111 730.195L518.89 730.227C519.807 746.509 520.993 763.415 523.885 779.494C525.425 786.63 527.002 798.258 533.019 803.083C538.406 807.014 545.848 807.573 551.302 811.375C554.869 813.861 556.766 819.477 553.312 822.771C545.271 830.439 529.053 831.338 518.874 831.554Z" fill="#FDF9F0"/>
<path d="M586.47 735.359C584.362 735.591 580.457 736.149 578.52 735.482C582.907 732.959 599.22 731.824 604.988 731.299C607.748 730.938 609.755 730.725 612.436 731.438C611.122 732.597 589.526 734.946 586.47 735.359Z" fill="#FFEDE1"/>
<path d="M405.245 757.697C397.204 752.707 377.033 753.088 367.287 752.365C364.003 752.121 357.908 752.398 354.986 751.345L354.898 750.796C357.52 749.173 367.285 748.017 370.936 746.594C383.673 741.633 397.766 735.239 411.067 732.076C420.42 731.095 434.474 736.012 442.776 740.088C446.301 741.819 460.977 749.356 462.121 752.539L461.702 753.164C457.304 754.673 447.961 757.735 443.756 759.109C437.367 761.197 411.508 773.637 407.113 773.451C407.911 766.433 408.773 763.84 405.245 757.697Z" fill="#FDF9F0"/>
<path d="M577.445 738.9C589.734 737.112 601.724 735.565 614.053 734.197C616.567 733.631 631.136 736.4 637.063 736.428C639.197 738.634 640.816 740.526 643.449 742.117C643.099 744.959 642.849 748.026 642.562 750.893C635.46 753.006 628.781 754.608 621.518 756.11C621.488 761.014 621.286 765.803 621.086 770.698C615.567 770.284 614.216 770.204 609.371 767.546C598.346 763.507 586.923 758.758 575.945 755.017C576.329 749.359 576.739 744.536 577.445 738.9Z" fill="#FDF9F0"/>
<path d="M347.89 757.485C345.177 755.251 291.192 751.6 283.397 750.342C273.167 748.692 245.877 749.413 237.269 744.323C236.214 742.627 236.464 739.567 236.427 737.445C237.581 738.506 237.73 738.763 239.727 738.738C250.966 738.599 262.274 738.342 273.512 738.255L347.096 738.254C347.346 738.747 349.497 742.686 349.535 742.798C350.705 746.266 350.723 747.568 352.69 750.794C351.194 753.924 350.925 756.308 347.89 757.485Z" fill="#FED779"/>
<path d="M859.378 750.498C852.858 751.902 846.655 752.678 839.963 752.242C835.968 751.982 819.544 749.937 820.429 744.232C823.036 741.293 830.184 740.584 833.929 740.193C836.031 740.001 841.15 739.517 842.979 740.316L843.273 743.904L843.777 744.331C845.323 742.914 845.317 742.124 845.907 739.993C850.036 740.288 867.751 741.4 868.995 746.166C867.366 748.935 862.604 749.619 859.378 750.498Z" fill="#D2F6E8"/>
<path d="M680.106 740.791C702.435 740.497 724.313 740.642 746.642 740.986C744.821 743.077 734.542 750.732 731.875 752.075C724.695 755.69 718.563 763.415 712.892 767.241C703.668 773.465 683.983 807.71 678.517 810.98C673.674 788.188 675.4 763.538 680.106 740.791Z" fill="#FDF9F0"/>
<path d="M354.605 748.057C353.942 746.011 353.936 746.092 353.98 743.955C355.324 742.07 357.855 743.299 360.525 743.486C366.475 743.904 371.223 742.59 376.891 741.184L377.156 741.258C374.823 744.112 358.685 747.413 354.605 748.057Z" fill="#FFEDE1"/>
<path d="M645.07 750.192L645.614 742.766C648.722 744.459 655.697 747.517 657.623 750.138L656.139 750.765L654.815 749.061C651.971 747.634 648.161 749.284 645.07 750.192Z" fill="#FDF9F0"/>
<path d="M210.122 767.587C199.783 770.377 179.72 770.248 170.423 765.477C154.973 757.547 172.204 752.221 179.803 751.161C183.537 750.796 187.065 750.96 190.811 751.044C190.808 753.776 190.365 758.009 192.45 759.997L193.133 759.268C194.036 756.473 193.547 754.315 193.245 751.364C200.607 752.057 211.433 753.856 215.641 760.604C217.777 764.028 212.395 766.62 210.122 767.587Z" fill="#FBF8CC"/>
<path d="M404.004 761.908C397.257 755.968 356.463 756.68 353.977 755.182C354.325 753.663 353.899 754.226 355.064 753.312C368.856 754.367 383.003 754.748 396.705 757.121C400.371 757.755 402.727 758.506 404.744 761.538L404.004 761.908Z" fill="#FFEDE1"/>
<path d="M627.039 757.545L627.571 757.48C632.169 756.867 638.258 754.361 642.216 754.316C638.276 756.952 631.003 757.59 626.82 759.482L627.039 757.545Z" fill="#FDF9F0"/>
<path d="M575.158 812.581C573.752 813.164 573.652 813.37 572.182 813.251C571.929 807.977 573.021 794.318 573.251 788.461C573.551 780.802 573.607 764.291 574.98 757.41C575.656 757.648 578.363 758.617 578.331 759.408C578.026 766.823 577.629 808.574 575.158 812.581Z" fill="#FDF9F0"/>
<path d="M628.806 761.549C632.597 760.134 637.583 758.751 641.524 757.539L642.162 757.707C642.819 759.409 642.436 767.959 642.397 770.343C638.874 770.03 633.597 770.218 629.937 770.241C627.823 769.162 628.657 763.664 628.806 761.549Z" fill="#FDF9F0"/>
<path d="M401.124 769.551C392.921 769.268 355.541 768.064 350.984 763.906C349.931 762.945 349.941 762.534 349.797 761.205C350.362 759.487 351.417 759.071 352.955 758.047C367.309 757.831 382.324 759.114 396.518 761.721C400.028 762.365 404.516 765.168 403.209 769.411L401.124 769.551Z" fill="#FFEDE1"/>
<path d="M626.824 759.48C625.657 762.867 626.071 766.503 626.96 769.917L626.16 770.456C621.808 769.816 623.853 762.619 624.17 759.587C624.308 758.273 625.968 757.957 627.043 757.543L626.824 759.48Z" fill="#FFEDE1"/>
<path d="M455.705 805.933L454.446 805.358C453.683 804.064 453.4 800.331 453.519 798.878C453.995 793.065 451.922 761.492 454.11 758.289L454.967 758.769C456.161 761.707 456.536 783.622 456.832 788.835C456.998 791.749 457.333 801.255 456.871 804.689C456.483 805.104 456.094 805.518 455.705 805.933Z" fill="#FFEDE1"/>
<path d="M580.253 801.108L579.737 800.591C579.256 797.874 580.854 761.665 581.536 759.332L582.227 760.167C582.698 764.778 581.643 798.181 580.253 801.108Z" fill="#FFEDE1"/>
<path d="M449.042 810.527C447.557 808.604 447.8 804.744 447.749 802.26C447.475 788.688 446.929 775.113 446.68 761.542C447.417 760.371 447.905 760.484 449.44 759.797L450.274 760.106C451.868 763.401 450.664 799.087 451.568 805.618C451.987 808.647 451.344 809.263 449.042 810.527Z" fill="#FFEDE1"/>
<path d="M404.744 761.535C405.594 763.897 405.828 764.418 405.955 766.9L405.598 767.433C404.622 765.804 404.387 763.795 404.004 761.905L404.744 761.535Z" fill="#A29B9F"/>
<path d="M420.584 771.922C422.767 770.812 424.98 769.791 427.196 768.75C428.056 774.288 424.121 777.14 420.438 780.816C420.499 785.117 420.825 792.688 420.408 796.719C419.701 790.678 419.937 777.82 420.584 771.922Z" fill="#FBF8CC"/>
<path d="M353.013 821.893C352.801 822.008 352.076 822.167 351.807 822.236C350.555 819.963 352.56 812.445 353.102 809.534C355.812 794.978 356.504 783.132 356.337 768.488C357.652 768.758 358.199 768.703 359.144 769.616C359.4 782.753 355.313 809.286 353.013 821.893Z" fill="#FFEDE1"/>
<path d="M609.088 809.495L606.501 808.927C605.667 807.967 605.641 808.077 605.738 806.693C606.616 794.204 606.838 781.792 607.066 769.277C607.952 769.603 608.657 769.804 609.342 770.489C610.607 771.756 609.275 805.053 609.088 809.495Z" fill="#FFEDE1"/>
<path d="M380.001 789.099C379.969 785.633 379.253 773.163 379.982 771.308L380.666 770.625L381.509 771.097C382.726 775.675 381.468 783.505 381.506 788.685L380.001 789.099Z" fill="#FDF9F0"/>
<path d="M386.272 797.961C385.197 797.745 385.249 797.768 384.307 797.209C382.854 792.981 384.252 776.104 384.608 770.938C385.382 771.144 386.22 771.419 386.995 771.654C387.324 772.337 387.42 772.576 387.446 773.609C387.636 781.174 387.87 789.146 387.403 796.685C387.026 797.11 386.649 797.536 386.272 797.961Z" fill="#FDF9F0"/>
<path d="M389.801 770.938L391.697 771.667C392.798 774.469 392.052 792.813 391.949 797.128L390.7 796.659C389.298 794.876 389.806 774.434 389.801 770.938Z" fill="#FDF9F0"/>
<path d="M405.122 773.805C402.38 775.459 397.321 774.469 394.703 772.797L394.807 772.207C397.381 771.417 399.048 771.976 402.075 771.611L402.582 771.547C404.145 772.441 404.054 772.357 405.122 773.805Z" fill="#FDF9F0"/>
<path d="M616.832 805.478C615.014 806.208 613.198 806.744 611.683 805.35C611.052 800.306 612.083 778.469 612.264 772.141C614.413 772.706 616.315 772.938 618.504 773.259C618.497 779.889 618.17 799.897 616.832 805.478Z" fill="#FDF9F0"/>
<path d="M621.418 773.372C623.476 771.798 627.614 771.563 629.471 773.341C628.966 773.99 629.246 773.851 628.807 774.004C627.351 773.375 627.435 773.315 625.877 773.387C623.431 775.611 624.9 781.423 624.041 785.045L623.701 780.999L623.023 780.499L622.079 780.941C622.212 778.328 622.855 775.097 621.418 773.372Z" fill="#1B170E"/>
<path d="M643.624 799.618L641.858 799.206C640.021 796.894 639.598 776.938 639.352 772.262C639.891 772.303 641.568 772.409 641.683 772.67C643.99 777.911 641.457 794.136 643.624 799.618Z" fill="#FDF9F0"/>
<path d="M647.633 799.789C646.225 799.679 645.918 799.59 644.539 799.232C644.929 798.772 645.319 798.312 645.71 797.852C645.363 791.364 645.221 778.443 645.131 772.502C646.902 772.458 648.117 772.215 649.624 773.082C649.847 777.103 648.015 794.759 647.633 799.789Z" fill="#FFEDE1"/>
<path d="M679.735 826.631C678.41 826.634 678.486 826.639 677.238 826.183C671.035 817.986 667.763 783.77 667.598 772.645L673.371 772.962C672.865 784.878 673.187 796.177 675.443 807.988C676.648 814.3 678.479 820.357 679.735 826.631Z" fill="#FDF9F0"/>
<path d="M415.56 811.148L414.417 810.186C413.682 807.577 413.749 779.244 414.005 775.282C414.978 773.756 415.513 773.933 417.513 773.016C418.387 774.71 417.357 805.341 417.731 809.652C417.767 810.075 416.029 810.883 415.56 811.148Z" fill="#FDF9F0"/>
<path d="M620.391 789.155C620.67 784.793 619.93 777.256 621.418 773.371C622.855 775.096 622.212 778.327 622.079 780.94C621.849 783.679 621.526 786.762 621.409 789.475L620.923 789.673L620.391 789.155Z" fill="#FDF9F0"/>
<path d="M624.042 785.045C624.901 781.423 623.432 775.611 625.878 773.387C627.436 773.315 627.352 773.375 628.808 774.004C625.954 795.045 626.689 816.355 625.141 837.478C625.04 838.855 624.307 839.427 623.383 840.263L622.583 840.281C618.882 836.159 624.087 793.196 624.042 785.045Z" fill="#FDF9F0"/>
<path d="M394.527 795.895C394.463 792.183 393.623 778.527 395.648 776.387L396.489 776.577C397.661 778.375 397.331 780.931 397.441 783.323C397.162 787.476 397.453 793.181 397.55 797.447L397.049 797.307C396.608 794.76 397.105 790.617 395.111 789.209C394.233 791.299 395.989 795.09 395.313 798.823L394.769 796.735L394.527 795.895Z" fill="#FFEDE1"/>
<path d="M399.082 780.179C399.571 775.205 403.883 775.281 405.284 778.921C404.595 783.797 404.809 790.202 404.741 795.206L404.495 823.069C404.477 827.346 405.554 835.041 402.654 837.875L401.366 838.315C400.631 837.93 400.232 837.934 400.118 837.227C399.623 834.161 399.864 829.183 399.875 826.013C399.917 814.835 400.086 803.664 399.699 792.498C399.596 789.526 399.634 782.768 399.082 780.179Z" fill="#FDF9F0"/>
<path d="M380.004 789.098L381.509 788.684C381.579 791.525 381.819 793.809 381.099 796.554L380.563 796.79C379.726 794.116 379.962 791.91 380.004 789.098Z" fill="#FFEDE1"/>
<path d="M618.934 807.639C618.981 804.909 619.812 791.022 620.393 789.156L620.925 789.674L621.411 789.476C621.229 791.965 620.231 805.615 619.593 807.225L618.934 807.639Z" fill="#767172"/>
<defs>
<linearGradient id="paint0_linear_2261_3656" x1="511.335" y1="363.178" x2="510.537" y2="347.939" gradientUnits="userSpaceOnUse">
<stop stop-color="#DBE1FE"/>
<stop offset="1" stop-color="#A3F0FF"/>
</linearGradient>
<linearGradient id="paint1_linear_2261_3656" x1="674.899" y1="563.958" x2="662.638" y2="654.748" gradientUnits="userSpaceOnUse">
<stop stop-color="#FFDCCB"/>
<stop offset="1" stop-color="#FFFBEE"/>
</linearGradient>
</defs>
</svg>
