<svg width="1024" height="1024" viewBox="0 0 1024 1024" fill="none" xmlns="http://www.w3.org/2000/svg">
<path d="M488.707 169.714C490.237 168.856 491.63 168.044 493.234 167.314C495.931 149.747 496.801 130.683 500.442 113.097C502.348 103.888 521.76 100.854 527.323 108.638C530.221 112.693 530.536 122.185 531.524 127.078C533.423 139.403 534.596 152.234 537.712 164.379C538.259 166.511 542.012 167.24 543.222 169.096C546.323 175.03 551.872 190.788 553.152 197.102C558.538 216.056 560.999 224.969 564.748 244.622C581.136 251.233 600.649 256.81 608.135 274.539C612.586 285.081 614.894 331.489 612.795 343.473C610.798 345.975 609.434 348.326 607.247 350.766C599.947 355.183 588.803 359.197 580.362 361.296C580.3 367.097 578.74 381.064 583.148 384.834C596.855 396.559 618.401 393.006 634.208 398.526C655.956 406.122 656.406 427.899 639.916 441.422C623.501 453.6 589.065 464.645 568.563 466.751C520.861 473.124 477.15 467.098 431.649 453.544C421.812 450.613 411.53 449.123 401.984 445.176C385.626 438.413 363.71 423.463 385.501 406.928C400.24 394.663 417.117 390.867 435.633 388.312C451.643 386.102 452.711 383.237 451.214 368.162L450.785 359.505C443.061 357.626 435.039 355.097 427.549 352.428C425.894 351.887 423.707 351.464 421.968 351.068L420.805 346.643C420.758 346.477 420.712 346.31 420.665 346.143C416.937 326.673 416.685 302.838 420.276 283.458C421.281 278.036 423.612 272.002 426.269 267.589C436.372 250.808 448.004 250.084 465.064 245.702C469.694 233.456 485.205 174.863 488.707 169.714ZM582.528 284.009C580.823 283.342 576.47 284.641 574.366 285.103L575.83 332.002C576.011 339.536 575.783 349.159 576.254 356.471C579.111 355.822 581.862 355.37 584.48 354.095C585.439 353.453 586.089 353.329 587.188 352.944C589.117 353.106 592.739 351.329 594.649 350.527C594.105 326.49 594.253 304.487 592.91 280.208C590.72 280.868 585.181 282.198 583.948 283.67L582.528 284.009ZM560.154 287.453C556.64 287.937 553.027 288.481 549.507 288.842C550.476 302.525 550.684 315.595 550.941 329.305C551.052 340.021 551.188 350.518 551.564 361.234C553.651 360.919 555.83 360.611 557.921 360.38C562.245 359.902 562.246 358.308 562.185 354.704C562.574 356.49 562.513 357.301 563.51 358.706L564.444 358.494C565.744 359.252 572.017 357.536 573.96 357.111C574.177 335.211 573.146 307.38 571.993 285.483C568.865 286.068 565.572 286.789 562.409 286.981L560.154 287.453ZM504.397 291.136C500.473 290.884 496.901 290.596 492.995 290.163C492.982 295.986 493.287 305.861 492.897 311.343L492.314 310.515C492.191 307.755 492.136 292.36 491.8 291.309C491.162 299.405 491.242 306.594 491.262 314.704C491.267 316.797 491.256 323.059 490.928 324.866L490.524 324.967C490.806 322.936 490.628 315.822 490.617 313.511L490.503 289.778C486.924 289.367 482.552 288.513 478.941 287.906C478.68 299.876 479.245 312.057 478.925 324.152C478.393 319.456 478.873 301.993 477.99 299.247C477.341 301.304 477.553 309.104 477.418 312.14C476.786 304.192 476.953 295.675 476.749 287.66L467.417 286.265C466.583 297.042 467.58 312.289 467.785 323.363C467.996 334.745 467.797 347.669 468.543 358.867C471.711 359.316 474.773 359.716 477.952 360.076C477.806 350.111 477.306 339.244 477.568 329.4L478.353 336.808L478.664 336.618C478.823 335.036 478.959 333.497 479.081 331.912C479.924 337.09 479.936 353.735 480.15 360.112L490.864 361.052C490.902 359.344 490.875 355.749 491.072 354.201C491.319 352.703 491.532 351.413 491.677 349.891L492.032 349.479C492.504 351.425 492.52 352.257 492.402 354.206L492.967 354.793L493.411 361.066C498.577 361.495 502.847 361.263 508.138 362.139C508.351 352.687 508.453 343.464 508.459 334.01C508.605 322.763 508.96 302.858 507.878 292.258C506.906 291.129 506.341 291.433 504.397 291.136ZM452.538 303.264C452.27 297.385 452.833 289.665 452.971 283.558L444.477 281.083C441.393 304.502 441.757 329.05 442.561 352.644L452.197 355.815C452.234 351.927 452.08 343.041 452.478 339.471C453.656 341.115 453.566 341.11 454.043 343.13C454.65 344.819 454.506 354.108 454.505 356.471C458.234 357.237 462.2 357.887 465.963 358.569C466.006 336.83 465.217 315.05 465.037 293.306C465.016 290.803 464.956 288.414 464.722 285.919C461.561 285.376 458.163 284.638 454.993 284.015C454.76 291.721 454.651 299.873 453.972 307.514C452.968 306.413 452.858 304.8 452.538 303.264ZM535.594 327.294C535.654 316.001 535.781 301.694 535.179 290.539C531.288 290.902 527.38 291.299 523.48 291.517C523.514 305.953 523.557 320.252 523.88 334.684L524.101 362.526L536.109 362.5C536.276 353.118 536.338 336.51 535.594 327.294ZM509.967 291.509C510.018 305.412 510.553 319.375 510.582 333.468L510.637 362.038L521.944 362.402C521.943 353.008 521.813 344.025 521.517 334.636C521.528 320.412 521.192 305.838 521.026 291.587L509.967 291.509ZM548.612 333.598C548.483 318.872 548.221 303.82 547.328 289.12L537.204 290.467C537.086 302.742 537.24 322.247 537.932 334.611C537.987 343.937 538.219 353.111 538.478 362.428L548.85 361.417C548.923 352.158 548.937 342.849 548.612 333.598ZM431.769 276.79C425.336 293.491 425.736 318.098 427.046 336.005C427.5 339.09 427.93 342.199 428.458 345.271L428.498 336.293C428.594 318.236 429.435 294.739 431.769 276.79ZM453.021 360.152C453.164 362.792 453.464 365.747 453.679 368.407C454.331 372.912 454.848 376.631 454.383 381.207C452.99 384.238 450.7 387.585 447.174 388.412C425.709 393.444 409.678 393.645 390.736 407.005C355.711 431.707 413.268 445.285 432.059 450.528C467.268 460.352 503.68 468.694 541.058 466.554C569.522 465.65 597.405 459.982 623.455 448.144C637.328 441.84 654.982 429.606 646.826 411.898C644.431 406.697 638.188 403.052 632.957 401.215C619.615 396.528 585.122 397.918 577.764 383.278C577.262 377.16 577.556 368.138 577.583 361.761C539.139 369.601 502.342 369.53 463.907 362.022C460.329 361.323 456.625 360.777 453.021 360.152ZM509.364 109.669C506.635 111.346 505.641 112.1 505.036 115.395C502.328 130.161 501.065 145.198 498.367 159.972C497.858 162.761 497.168 165.689 496.78 168.489C503.729 170.069 514.223 170.193 521.382 169.594C525.894 169.28 529.272 168.749 533.648 167.407C531.095 150.453 527.672 133.507 525.746 116.411C524.827 108.251 515.745 108.774 509.364 109.669ZM537.483 171.088C523.829 174.971 506.471 176.24 492.908 171.355C489.448 177.619 485.033 204.017 482.329 213.28C478.555 226.21 475.942 233.818 470.53 246.421C477.739 249.722 484.81 251.249 492.614 252.558C514.446 255.361 539.711 255.524 560.02 245.921C555.728 224.908 547.548 190.993 539.136 171.35C537.996 170.832 538.552 170.87 537.483 171.088ZM562.234 248.582C540.596 260.795 504.295 259.806 480.4 253.682C476.932 252.793 472.202 251.095 468.712 249.992C457.683 255.677 459.652 262.404 470.324 266.861C474.978 268.447 479.567 269.441 484.444 270.065C500.997 272.181 552.172 273.646 565.744 267.148C568.571 265.795 571.504 263.731 572.613 260.663C573.203 259.03 573.24 257.227 572.355 255.684C570.405 252.285 565.414 250.697 562.234 248.582ZM454.81 255.664C443.896 258.117 439.049 262.715 434.679 272.898C447.883 281.208 472.796 283.885 488.445 286.206C515.337 290.196 543.128 287.073 569.624 282.026C574.644 281.069 579.759 279.938 584.627 278.242C594.088 275.645 603.392 273.246 589.979 265.21C586.676 263.231 583.552 261.283 580.126 259.437C580.14 262.139 580.481 265.154 578.278 267.03C564.058 279.147 525.044 276.532 507.532 276.485C491.348 275.237 469.938 275.855 457.01 265.015C455.281 263.565 454.544 259.844 454.723 257.806C454.785 257.104 454.956 256.365 454.81 255.664ZM599.432 275.975C598.115 277.147 596.745 278.412 595.412 279.547C597.268 294.974 597.103 311.635 597.488 327.152C597.565 330.278 597.401 345.614 597.813 347.697C599.26 348.099 598.505 348.064 600.131 347.336C601.741 346.588 603.325 346.169 604.071 344.688C605.485 333.956 605.518 282.213 599.432 275.975ZM434.684 276.899C431.82 295.185 430.576 329.656 431.54 348.261C433.868 349.209 436.446 350.322 438.775 351.197L439.531 351C439.947 348.885 439.685 346.565 439.591 344.403C438.651 322.755 440.551 301.583 441.731 280.051C439.366 279.036 436.98 278.057 434.684 276.899Z" fill="#494E6B"/>
<path d="M496.773 168.489C497.161 165.689 497.851 162.761 498.36 159.972C501.058 145.198 502.321 130.161 505.029 115.395C505.634 112.1 506.628 111.346 509.357 109.669C515.738 108.774 524.82 108.251 525.739 116.411C527.665 133.507 531.088 150.453 533.641 167.407C529.265 168.749 525.887 169.28 521.375 169.594C514.216 170.193 503.722 170.069 496.773 168.489Z" fill="#FFCFD2"/>
<path d="M184.203 597.34C184.388 597.847 165.145 574.33 163.815 572.624C145.739 549.435 133.613 526.128 121.768 499.454C100.569 451.717 87.884 400.612 94.4322 348.117C99.0453 311.143 114.255 275.607 137.587 246.459C146.422 235.421 159.153 225.257 170.202 216.444C180.111 208.541 190.457 202.936 200.829 196.267C225.719 179.815 252.506 167.531 279.429 154.863C319.376 136.067 363.866 123.721 408.323 129.657C432.302 132.858 457.022 141.895 475.741 157.361C480.696 161.455 484.741 164.402 488.706 169.714C485.204 174.863 469.693 233.456 465.063 245.702C448.003 250.084 436.371 250.808 426.268 267.589C423.611 272.002 421.28 278.036 420.275 283.458C416.684 302.838 416.936 326.673 420.664 346.143C420.711 346.31 420.757 346.477 420.804 346.643C416.134 349.627 407.748 351.929 402.243 354.902C375.907 369.125 362.209 392.257 357.325 421.2C350.503 422.159 336.46 431.888 330.308 435.716C284.474 464.235 247.768 497.149 215.377 540.592C206.137 552.985 187.219 582.087 184.493 596.804L184.203 597.34Z" fill="#F7EDF6"/>
<path d="M492.901 171.355C506.464 176.24 523.822 174.971 537.476 171.088C538.545 170.87 537.989 170.832 539.129 171.35C547.541 190.993 555.721 224.908 560.013 245.921C539.704 255.524 514.439 255.361 492.607 252.558C484.803 251.249 477.732 249.722 470.523 246.421C475.935 233.818 478.548 226.21 482.322 213.28C485.026 204.017 489.441 177.619 492.901 171.355ZM493.273 186.19C492.075 189.77 491.151 196.282 490.414 200.215L485.747 223.929C484.958 227.874 481.492 242.523 481.195 245.364C482.51 246.427 481.967 246.055 483.834 246.402C485.939 240.36 488.266 228.32 489.607 221.593C491.603 211.582 495.058 197.381 495.738 187.373C494.775 186.151 495.293 186.697 493.273 186.19ZM500.002 210.829C497.774 213.797 493.389 245.697 494.421 248.408L495.699 249.083C497.42 244.591 500.779 218.978 501.083 212.477C501.095 212.211 500.313 211.159 500.002 210.829Z" fill="url(#paint0_linear_41_7784)"/>
<path d="M483.834 246.402C481.967 246.055 482.51 246.427 481.195 245.364C481.492 242.523 484.958 227.874 485.747 223.929L490.414 200.215C491.151 196.282 492.075 189.77 493.273 186.19C495.293 186.697 494.775 186.151 495.738 187.373C495.058 197.381 491.603 211.582 489.607 221.593C488.266 228.32 485.939 240.36 483.834 246.402Z" fill="#524A60"/>
<path d="M553.148 197.102C564.372 207.265 578.164 218.448 587.195 230.724C595.988 242.677 602.512 254.927 611.61 267.277C613.636 271.094 618.995 276.672 622.182 279.957C640.177 298.505 664.732 315.448 689.471 323.002C701.874 326.79 716.57 329.619 729.5 330.058C746.4 330.631 763.096 327.878 780 326.579C814.681 323.915 847.538 328.198 876.069 349.878C883.908 355.835 889.351 362.045 895.586 369.523C897.207 371.467 901.244 376.718 902.702 378.107L902.831 378.88C901.339 391.781 903.304 406.08 901.808 419.624C894.33 487.331 858.745 544.98 809.162 590.287C805.208 593.899 800.981 598.104 797.304 602.102L796.832 602.165C752.55 600.344 718.699 609.68 682.021 634.764C681.92 615.704 681.349 596.544 681.004 577.42C680.168 530.967 680.62 483.955 676.394 437.66C674.39 415.706 669.806 393.721 658.515 374.592C647.576 356.062 633.3 348.53 612.791 343.473C614.89 331.489 612.582 285.081 608.131 274.539C600.645 256.81 581.132 251.233 564.744 244.622C560.995 224.969 558.534 216.056 553.148 197.102Z" fill="#F1C0E8"/>
<path d="M495.706 249.083L494.428 248.408C493.396 245.697 497.781 213.797 500.009 210.829C500.32 211.159 501.102 212.211 501.09 212.477C500.786 218.978 497.427 244.591 495.706 249.083Z" fill="#524A60"/>
<path d="M611.609 267.277C630.488 240.129 665.46 220.13 697.832 214.681C739.588 207.652 787.068 210.194 824.722 231.013C830.357 234.12 836.278 236.971 841.516 240.782C876.343 266.397 893.242 307.245 899.752 348.755C901.01 356.779 902.839 370.206 902.701 378.107C901.243 376.718 897.206 371.467 895.585 369.523C889.35 362.045 883.907 355.835 876.068 349.878C847.537 328.198 814.68 323.915 779.999 326.579C763.095 327.878 746.399 330.631 729.499 330.058C716.569 329.619 701.873 326.79 689.47 323.002C664.731 315.448 640.176 298.505 622.181 279.957C618.994 276.672 613.635 271.094 611.609 267.277Z" fill="#FFCFD2"/>
<path d="M468.707 249.992C472.197 251.095 476.927 252.793 480.395 253.682C504.29 259.806 540.591 260.795 562.229 248.582C565.409 250.697 570.4 252.285 572.35 255.684C573.235 257.227 573.198 259.03 572.608 260.663C571.499 263.731 568.566 265.795 565.739 267.148C552.167 273.646 500.992 272.181 484.439 270.065C479.562 269.441 474.973 268.447 470.319 266.861C459.647 262.404 457.678 255.677 468.707 249.992Z" fill="url(#paint1_linear_41_7784)"/>
<path d="M434.68 272.898C439.05 262.715 443.897 258.117 454.811 255.664C454.957 256.365 454.786 257.104 454.724 257.806C454.545 259.844 455.282 263.565 457.011 265.015C469.939 275.855 491.349 275.237 507.533 276.485C525.045 276.532 564.059 279.147 578.279 267.03C580.482 265.154 580.141 262.139 580.127 259.437C583.553 261.283 586.677 263.231 589.98 265.21C603.393 273.246 594.089 275.645 584.628 278.242C579.76 279.938 574.645 281.069 569.625 282.026C543.129 287.073 515.338 290.196 488.446 286.206C472.797 283.885 447.884 281.208 434.68 272.898Z" fill="#F1C0E8"/>
<path d="M595.406 279.547C596.739 278.412 598.109 277.147 599.426 275.975C605.512 282.213 605.479 333.956 604.065 344.688C603.319 346.169 601.735 346.588 600.125 347.336C598.499 348.064 599.254 348.099 597.807 347.697C597.395 345.614 597.559 330.278 597.482 327.152C597.097 311.635 597.262 294.974 595.406 279.547Z" fill="#F1C0E8"/>
<path d="M431.541 348.261C430.577 329.656 431.821 295.185 434.685 276.899C436.981 278.057 439.367 279.036 441.732 280.051C440.552 301.583 438.652 322.755 439.592 344.403C439.686 346.565 439.948 348.885 439.532 351L438.776 351.197C436.447 350.322 433.869 349.209 431.541 348.261Z" fill="#F1C0E8"/>
<path d="M427.046 336.005C425.736 318.098 425.336 293.491 431.769 276.79C429.435 294.739 428.594 318.236 428.498 336.293L427.046 336.005Z" fill="#F1C0E8"/>
<path d="M583.945 283.67C585.178 282.198 590.717 280.868 592.907 280.208C594.25 304.487 594.102 326.49 594.646 350.527C592.736 351.329 589.114 353.106 587.185 352.944C586.899 336.118 586.764 299.757 583.945 283.67Z" fill="#F1C0E8"/>
<path d="M452.971 283.558C452.833 289.665 452.27 297.385 452.538 303.264C452.432 313.942 451.875 329.046 452.478 339.471C452.08 343.041 452.234 351.927 452.197 355.815L442.561 352.644C441.757 329.05 441.393 304.502 444.477 281.083L452.971 283.558Z" fill="#F1C0E8"/>
<path d="M574.359 285.103C576.463 284.641 580.816 283.342 582.521 284.009C583.962 306.884 584.597 331.156 584.473 354.095C581.855 355.37 579.104 355.822 576.247 356.471C575.776 349.159 576.004 339.536 575.823 332.002L574.359 285.103Z" fill="#F1C0E8"/>
<path d="M453.969 307.514C454.648 299.873 454.757 291.721 454.99 284.015C458.16 284.638 461.558 285.376 464.719 285.919C464.953 288.414 465.013 290.803 465.034 293.306C465.214 315.05 466.003 336.83 465.96 358.569C462.197 357.887 458.231 357.237 454.502 356.471C454.503 354.108 454.647 344.819 454.04 343.13L453.969 307.514Z" fill="#F1C0E8"/>
<path d="M582.523 284.009L583.943 283.67C586.762 299.757 586.897 336.118 587.183 352.944C586.084 353.329 585.434 353.453 584.475 354.095C584.599 331.156 583.964 306.884 582.523 284.009Z" fill="#524A60"/>
<path d="M562.406 286.981C565.569 286.789 568.862 286.068 571.99 285.483C573.143 307.38 574.174 335.211 573.957 357.111C572.014 357.536 565.741 359.252 564.441 358.494C564.709 351.583 564.028 341.512 563.968 334.318C563.838 318.607 563.414 302.662 562.406 286.981Z" fill="#F1C0E8"/>
<path d="M476.746 287.66C476.95 295.675 476.783 304.192 477.415 312.14C477.453 317.678 477.36 323.921 477.565 329.4C477.303 339.244 477.803 350.111 477.949 360.076C474.77 359.716 471.708 359.316 468.54 358.867C467.794 347.669 467.993 334.745 467.782 323.363C467.577 312.289 466.58 297.042 467.414 286.265L476.746 287.66Z" fill="#F1C0E8"/>
<path d="M560.148 287.453L562.403 286.981C563.411 302.662 563.835 318.607 563.965 334.318C564.025 341.512 564.706 351.583 564.438 358.494L563.504 358.706C562.507 357.301 562.568 356.49 562.179 354.704C561.614 347.182 561.826 334.335 561.522 326.254C561.537 314.31 561.042 299.424 560.148 287.453Z" fill="#524A60"/>
<path d="M549.508 288.842C553.028 288.481 556.641 287.937 560.155 287.453C561.049 299.424 561.544 314.31 561.529 326.254C557.286 326.877 554.739 328.812 550.942 329.305C550.685 315.595 550.477 302.525 549.508 288.842Z" fill="#F7EDF6"/>
<path d="M478.922 324.152C479.242 312.057 478.677 299.876 478.938 287.906C482.549 288.513 486.921 289.367 490.5 289.778L490.614 313.511C490.625 315.822 490.803 322.936 490.521 324.967C490.351 327.542 490.27 329.514 490.283 332.121C486.645 331.901 482.739 331.59 479.123 331.583L478.922 324.152Z" fill="#F1C0E8"/>
<path d="M548.608 333.598C544.801 334.127 541.767 334.63 537.928 334.611C537.236 322.247 537.082 302.742 537.2 290.467L547.324 289.12C548.217 303.82 548.479 318.872 548.608 333.598Z" fill="#F7EDF6"/>
<path d="M504.391 291.136C502.841 294.01 504.598 326.371 504.999 331.462C505.052 332.132 505.973 333.382 506.45 333.988C503.251 332.21 496.901 331.487 493.007 330.852L492.891 311.343C493.281 305.861 492.976 295.986 492.989 290.163C496.895 290.596 500.467 290.884 504.391 291.136Z" fill="#E5DEF6"/>
<path d="M490.927 324.866C491.255 323.059 491.266 316.797 491.261 314.704C491.241 306.594 491.161 299.405 491.799 291.309C492.135 292.36 492.19 307.755 492.313 310.515L492.896 311.343L493.012 330.852C492.995 334.013 493.055 337.536 492.934 340.663C492.706 338.468 491.465 331.14 491.017 328.866C490.788 327.454 490.899 326.304 490.927 324.866Z" fill="#524A60"/>
<path d="M535.176 290.539C535.778 301.694 535.651 316.001 535.591 327.294C535.419 330.015 535.347 331.718 535.47 334.499C531.835 334.651 527.436 334.955 523.877 334.684C523.554 320.252 523.511 305.953 523.477 291.517C527.377 291.299 531.285 290.902 535.176 290.539Z" fill="#F7EDF6"/>
<path d="M506.453 333.988C505.976 333.382 505.055 332.132 505.002 331.462C504.601 326.371 502.844 294.01 504.394 291.136C506.338 291.433 506.903 291.129 507.875 292.258C508.957 302.858 508.602 322.763 508.456 334.01C507.103 334.461 507.759 334.422 506.453 333.988Z" fill="#F7EDF6"/>
<path d="M510.576 333.468C510.547 319.375 510.012 305.412 509.961 291.509L521.02 291.587C521.186 305.838 521.522 320.412 521.511 334.636C518.85 334.621 512.422 335.049 510.576 333.468Z" fill="#F7EDF6"/>
<path d="M477.414 312.14C477.549 309.104 477.337 301.304 477.986 299.247C478.869 301.993 478.389 319.456 478.921 324.152L479.122 331.583L479.077 331.912C478.955 333.497 478.819 335.036 478.66 336.618L478.349 336.808L477.564 329.4C477.359 323.921 477.452 317.678 477.414 312.14Z" fill="#14101E"/>
<path d="M452.531 303.264C452.851 304.8 452.961 306.413 453.965 307.514L454.036 343.13C453.559 341.11 453.649 341.115 452.471 339.471C451.868 329.046 452.425 313.942 452.531 303.264Z" fill="#14101E"/>
<path d="M490.521 324.967L490.925 324.866C490.897 326.304 490.786 327.454 491.015 328.866L491.069 354.201C490.872 355.749 490.899 359.344 490.861 361.052L480.147 360.112C479.933 353.735 479.921 337.09 479.078 331.912L479.123 331.583C482.739 331.59 486.645 331.901 490.283 332.121C490.27 329.514 490.351 327.542 490.521 324.967Z" fill="#CFBAF0"/>
<path d="M550.938 329.305C554.734 328.812 557.282 326.877 561.525 326.254C561.829 334.335 561.617 347.182 562.182 354.704C562.243 358.308 562.242 359.902 557.918 360.38C555.827 360.611 553.647 360.919 551.56 361.234C551.184 350.518 551.049 340.021 550.938 329.305Z" fill="#F1C0E8"/>
<path d="M535.589 327.294C536.333 336.51 536.271 353.118 536.104 362.5L524.096 362.526L523.875 334.684C527.434 334.955 531.833 334.651 535.468 334.499C535.345 331.718 535.417 330.015 535.589 327.294Z" fill="#CFBAF0"/>
<path d="M491.016 328.866C491.464 331.14 492.705 338.468 492.933 340.663C492.959 344.841 493.183 350.754 492.965 354.793L492.4 354.206C492.518 352.257 492.502 351.425 492.03 349.479L491.675 349.891C491.53 351.413 491.317 352.703 491.07 354.201L491.016 328.866Z" fill="#14101E"/>
<path d="M493.008 330.852C496.902 331.487 503.252 332.21 506.451 333.988C507.757 334.422 507.101 334.461 508.454 334.01C508.448 343.464 508.346 352.687 508.133 362.139C502.842 361.263 498.572 361.495 493.406 361.066L492.962 354.793C493.18 350.754 492.956 344.841 492.93 340.663C493.051 337.536 492.991 334.013 493.008 330.852Z" fill="#CFBAF0"/>
<path d="M510.578 333.468C512.424 335.049 518.852 334.621 521.513 334.636C521.809 344.025 521.939 353.008 521.94 362.402L510.633 362.038L510.578 333.468Z" fill="#CFBAF0"/>
<path d="M537.93 334.611C541.769 334.63 544.803 334.127 548.61 333.598C548.935 342.849 548.921 352.158 548.848 361.417L538.476 362.428C538.217 353.111 537.985 343.937 537.93 334.611Z" fill="#F1C0E8"/>
<path d="M427.047 336.005L428.499 336.293L428.459 345.271C427.931 342.199 427.501 339.09 427.047 336.005Z" fill="#E5DEF6"/>
<path d="M607.241 350.766C609.428 348.326 610.792 345.975 612.789 343.473C633.298 348.53 647.574 356.062 658.513 374.592C669.804 393.721 674.388 415.706 676.392 437.66C680.618 483.955 680.166 530.967 681.002 577.42C681.347 596.544 681.918 615.704 682.019 634.764L682.636 651.763C682.979 657.285 683.052 663.003 683.449 668.436C683.203 691.442 684.753 714.597 685.239 737.601C686.075 777.208 692.491 826.434 669.02 861.106C664.538 867.175 658.289 875.464 652.619 880.17C627.666 900.88 585.014 912.573 553.425 917.211C494.004 925.937 447.795 916.361 393.549 892.322C368.242 880.58 346.155 853.108 343.872 824.626C343.2 816.253 344.012 806.808 343.618 798.184C343.069 790.222 343.514 775.156 343.513 766.656L343.522 704.57C344.201 661.892 345.942 619.774 347.084 577.166C347.842 567.307 347.965 556.486 348.485 546.504L351.496 489.04C352.585 463.62 352.687 446.174 357.32 421.2C362.204 392.257 375.902 369.125 402.238 354.902C407.743 351.929 416.129 349.627 420.799 346.643L421.962 351.068C423.701 351.464 425.888 351.887 427.543 352.428L427.083 352.726C420.984 356.593 412.791 359.99 406.368 363.724C387.4 374.75 375.619 389.856 369.167 410.623C364.978 424.105 363.635 452.743 362.771 467.279L359.824 512.549C358.805 519.386 358.61 531.08 358.341 538.175L356.723 590.242L354.296 669.709C354.003 681.399 352.853 696.314 353.359 707.846C353.778 740.348 352.499 773.705 353.042 806.193C352.897 816.71 352.63 823.948 355.464 834.248C364.646 867.623 390.726 882.473 421.052 893.399C425.805 895.54 437.896 898.98 443.116 900.384C486.609 912.087 533.376 911.93 577.202 901.79C598.726 896.81 629.041 886.499 646.209 872.432C651.413 868.168 656.031 861.843 659.553 856.165C678.471 824.874 674.133 770.747 672.814 735.5L670.903 676.04C669.934 664.097 670.354 648.304 670.328 636.108C670.605 625.98 670.028 613.903 669.789 603.681L669.2 562.421L668.685 520.657C668.596 513.415 668.751 503.348 668.111 496.313C667.997 484.568 667.323 472.511 666.708 460.648C665.295 433.405 663.3 402.197 648.66 378.39C640.371 364.91 622.613 354.027 607.241 350.766Z" fill="#3D9FA6"/>
<path d="M580.357 361.296C588.798 359.197 599.942 355.183 607.242 350.766C622.614 354.027 640.372 364.91 648.661 378.39C663.301 402.197 665.296 433.405 666.709 460.648C667.324 472.511 667.998 484.568 668.112 496.313C668.058 498.475 668.403 498.805 667.453 500.388L666.166 500.596C664 499.863 660.341 496.466 658.059 494.816C657.679 483.786 657.239 472.761 656.436 461.742C655.984 455.543 655.081 447.952 649.776 443.861C647.237 441.903 643.289 441.148 640.187 441.924L639.911 441.422C656.401 427.899 655.951 406.122 634.203 398.526C618.396 393.006 596.85 396.559 583.143 384.834C578.735 381.064 580.295 367.097 580.357 361.296Z" fill="#F1C0E8"/>
<path d="M427.548 352.428C435.038 355.097 443.06 357.626 450.784 359.505L451.213 368.162L450.751 369.241C447.276 369.994 439.445 372.204 436.362 374.791C421.472 387.284 401.039 391.51 384.541 402.037C381.386 404.05 370.785 410.475 369.172 410.623C375.624 389.856 387.405 374.75 406.373 363.724C412.796 359.99 420.989 356.593 427.088 352.726L427.548 352.428Z" fill="#FFEDE1"/>
<path d="M453.674 368.407C453.459 365.747 453.159 362.792 453.016 360.152C456.62 360.777 460.324 361.323 463.902 362.022C502.337 369.53 539.134 369.601 577.578 361.761C577.551 368.138 577.257 377.16 577.759 383.278L576.587 383.963L575.868 383.66C572.109 381.35 566.948 380.014 562.567 379.616L564.125 379.104L564.457 378.39C563.332 376.824 559.789 376.004 557.89 375.293C537.636 367.709 518.216 376.402 498.285 376.058C488.311 375.98 478.923 370.354 469.294 368.474C464.811 367.599 458.393 368.177 453.674 368.407Z" fill="#F1C0E8"/>
<path d="M451.212 368.162C452.709 383.237 451.641 386.102 435.631 388.312C417.115 390.867 400.238 394.663 385.499 406.928C363.708 423.463 385.624 438.413 401.982 445.176C411.528 449.123 421.81 450.613 431.647 453.544C477.148 467.098 520.859 473.124 568.561 466.751C574.332 469.828 594.287 459.87 600.791 462.254C604.004 463.432 606.49 462.219 608.801 464.998L608.838 465.843C600.365 469.034 594.079 470.686 585.409 473.032C583.524 473.542 576.21 474.841 575.369 475.193L575.55 475.658C565.705 478.576 528.314 479.999 525.197 481.537L525.37 482.227C531.901 485.38 572.87 478.333 582.145 477.374L582.816 478.064C585.222 477.638 587.864 477.232 590.23 476.52C592.529 475.828 594.749 473.942 597.202 475.775C598.682 476.881 599.434 477.636 600.149 479.324C599.398 484.96 588.224 483.964 585.606 487.224C578.829 490.088 562.521 491.36 554.731 491.988C551.635 492.238 545.927 492.307 543.304 493.365L543.11 494.12C545.321 495.335 551.403 494.752 554.128 494.677C571.768 494.193 587.647 489.991 604.031 483.764L604.699 484.444C612.678 481.747 619.481 476.946 626.582 472.639C627.306 472.2 628.188 472.488 628.953 472.64C630.073 474.138 629.648 474.436 630.775 476.173C629.047 479.945 609.961 488.03 609.132 490.205C596.656 497.518 576.384 499.525 562.085 500.274C560.116 500.377 555.832 500.359 554.228 501.183C555.366 502.376 557.274 502.613 558.926 502.621C579.376 502.723 594.642 499.813 612.947 491.149C614.958 494.326 615.905 494.561 619.226 496.432C607.405 503.151 591.109 507.231 577.56 508.206C575.532 508.352 569.386 508.545 568.545 509.873C570.381 511.375 579.221 510.258 581.701 510.151C591.395 509.736 615.796 502.448 623.661 496.918C630.059 496.528 637.709 498.034 642.695 493.547C646.744 489.903 648.623 486.28 654.515 488.57C654.302 521.108 656.8 554.135 656.356 586.838C656.858 612.89 655.111 640.523 656.056 666.391C657.477 705.267 660.732 745.976 659.882 784.633C659.337 809.471 655.794 826.325 637.423 842.549C636.795 843.104 636.795 843.75 637.24 844.386C638.733 844.316 638.657 844.386 639.94 843.652C643.188 843.791 657.379 853.697 659.557 856.165C656.035 861.843 651.417 868.168 646.213 872.432C629.045 886.499 598.73 896.81 577.206 901.79C533.38 911.93 486.613 912.087 443.12 900.384C437.9 898.98 425.809 895.54 421.056 893.399C421.342 892.73 421.602 891.405 421.783 890.644C425.599 887.034 429.503 876.058 435.99 881.878C437.047 884.741 434.673 886.977 432.313 888.378C430.81 887.843 431.378 887.809 429.968 888.043L430.275 888.57C433.988 890.769 440.431 894.439 444.515 895.501C442.966 894.514 441.58 893.845 440.538 892.362L442.33 890.03C446.09 889.215 446.789 885.139 449.925 884.48C452.078 883.898 457.068 888.442 458.428 888.378C473.412 887.667 489.06 888.873 503.946 887.904C504.882 886.744 505.088 886.598 506.454 886C516.314 886.017 526.185 886.152 536.038 885.728C556.471 884.848 614.648 881.143 628.337 865.369C630.474 862.906 631.236 859.988 630.828 856.763C629.859 849.094 623.083 843.28 617.319 838.869C618.484 836.311 620.991 835.08 623.117 832.085L624.486 831.344L625.481 832.134C629.982 833.42 640.216 822.998 641.621 818.768L641.163 818.455C638.717 820.051 634.698 823.867 632.228 825.979C631.948 822.079 634.157 817.771 633.493 815.708C636.87 812.893 645.75 809.217 648.731 804.489L648.484 803.693C645.52 803.433 640.242 808.118 637.673 809.9C639.394 804.865 640.265 803.36 639.846 798.007C642.231 795.52 650.487 791.24 651.4 787.567L650.711 787.351C648.37 787.802 642.766 792.939 639.494 795.058C639.594 789.928 642.296 786.605 641.88 783.115C644.411 780.065 652.485 776.545 654.632 771.056L653.963 770.942C651.202 772.348 648.778 774.633 646.397 776.653C644.174 772.383 647.763 769.217 645.908 765.101C647.673 763.59 650.732 761.305 651.543 759.246L650.952 758.616C649.009 758.768 648.645 759.62 646.909 761.105C646.68 757.116 649.547 752.37 646.851 748.378C650.496 744.655 652.621 742.703 655.442 738.319C652.054 740.338 651.253 741.082 648.343 743.767C647.778 739.109 649.892 736.37 647.361 733.017C649.35 730.83 650.309 730.014 651.168 727.212L650.763 726.881C648.487 727.935 646.632 730.189 644.82 732.043C643.966 729.671 639.99 723.887 638.269 720.501C641.236 717.744 647.616 713.286 648.263 709.248C646.189 709.483 636.935 718.129 634.479 720.122C632.564 717.997 630.002 717.979 627.194 717.534C628.492 715.682 629.865 714.336 629.406 712.075C630.011 711.217 635.582 707.209 636.71 706.218C641.967 701.602 649.837 695.091 652.761 688.577L652.285 688.199C650.036 689.265 647.829 691.687 646.216 693.615C642.171 698.45 637.943 702.24 632.973 706.095C628.844 703.211 625.945 707.684 622.462 710.003C621.293 708.941 619.983 707.677 618.743 706.746C607.837 711.843 599.523 715.745 587.99 719.337C588.104 624.818 535.671 527.994 439.31 502.963C424.489 499.113 412.364 499.761 397.428 501.398C397.521 496.925 398.235 487.254 396.408 483.886L395.786 484.15C393.999 488.908 394.417 496.337 394.408 501.586C393.674 502.371 380.792 507.042 378.601 507.824L377.791 507.649L379.58 471.678C379.884 466.419 381.591 449.343 379.954 445.159L379.274 444.634C378.574 444.953 377.546 445.304 377.484 446.289C376.507 461.612 376.159 476.986 375.279 492.322C374.948 498.085 374.588 504.045 374.467 509.802C369.196 511.06 365.239 512.061 359.828 512.549L362.775 467.279C363.639 452.743 364.982 424.105 369.171 410.623C370.784 410.475 381.385 404.05 384.54 402.037C401.038 391.51 421.471 387.284 436.361 374.791C439.444 372.204 447.275 369.994 450.75 369.241L451.212 368.162ZM640.39 497.477C624.446 509.665 607.336 517.027 587.449 519.938C585.567 520.213 581.116 520.249 580.093 521.483L580.612 522.598C600.142 522.116 624.619 513.363 639.95 500.496C640.84 499.749 640.855 498.883 640.762 497.857L640.39 497.477ZM641.713 510.352C630.833 518.068 622.131 523.686 609.02 527.499C604.78 528.732 591.828 529.818 589.585 531.287L589.478 531.94L590.47 532.55C609.196 532.313 627.309 525.155 641.808 512.662C642.929 511.696 642.783 511.709 642.8 510.702L641.713 510.352ZM642.775 523.925C632.498 530.879 624.173 536.421 612.241 540.651C609.246 541.712 599.172 543.113 597.952 544.298L598.145 545.563C611.1 544.524 621.457 540.442 632.563 533.655C635.117 532.094 643.78 527.415 642.775 523.925ZM643.793 537.388C636.86 542.377 633.897 544.079 626.506 548.114C621.718 550.727 609.176 553.854 607.57 555.767C607.795 556.812 607.601 556.524 608.177 557.329C617.231 554.916 638.786 546.747 644.311 539.155C644.26 537.828 644.517 538.377 643.793 537.388ZM644.501 552.273C638.45 559.209 633.307 561.303 625.139 565.394C621.79 567.071 615.44 567.326 614.197 569.632C614.888 570.612 614.526 570.352 615.55 570.838C625.218 568.249 638.259 563.373 645.585 554.769C645.981 554.304 645.683 553.721 645.523 552.989L644.501 552.273ZM645.913 568.348C640.193 574.323 637.186 576.479 629.523 579.934C626.495 581.299 620.128 582.435 618.846 583.655L619.254 585.06C626.277 583.832 645.804 577.294 646.627 569.259L645.913 568.348ZM647.284 583.363C643.07 586.743 639.88 589.315 634.971 591.662C631.963 593.1 623.432 594.741 621.397 596.484C621.808 597.755 621.476 597.197 622.626 598.032C632.054 595.912 641.354 592.58 647.908 585.178L648.183 584.075L647.284 583.363ZM647.363 599.926C643.882 602.266 641.02 604.04 637.228 605.856C635.352 606.755 628.622 608.864 628.131 610.229L628.679 611.661C634.56 610.101 643.705 606.491 647.674 601.805C647.863 600.38 648.066 600.964 647.363 599.926ZM646.328 614.955C642.978 616.518 637.576 618.359 635.01 619.733L634.737 620.668L635.627 621.692C639.646 620.511 643.585 619.445 646.963 616.887L647.447 615.805C646.86 615.212 647.026 615.205 646.328 614.955ZM647.849 627.595C645.027 628.391 640.267 629.426 637.945 630.637C637.532 632.104 637.507 631.379 638.169 632.874C641.148 632.164 645.796 631.298 647.985 629.204L648.261 628.159L647.849 627.595ZM648.738 671.283C645.854 675.08 642.661 679.166 639.773 682.871C637.976 685.175 630.592 692.569 629.881 694.239C630.577 695.034 630.242 694.85 631.145 695.231C635.773 691.858 648.927 677.465 649.868 672.484C649.384 671.371 649.779 671.753 648.738 671.283Z" fill="url(#paint2_linear_41_7784)"/>
<path d="M453.68 368.407C458.399 368.177 464.817 367.599 469.3 368.474C478.929 370.354 488.317 375.98 498.291 376.058C512.971 378.274 531.197 377.552 546.102 377.937C551.597 378.078 557.607 379.515 562.573 379.616C566.954 380.014 572.115 381.35 575.874 383.66L575.367 385.07C573.489 386.506 527.34 383.64 519.966 384.822C507.674 386.46 497.041 388.721 484.583 388.265C473.825 387.872 463.843 381.813 454.384 381.207C454.849 376.631 454.332 372.912 453.68 368.407Z" fill="#90DBF4"/>
<path d="M498.289 376.058C518.22 376.402 537.64 367.709 557.894 375.293C559.793 376.004 563.336 376.824 564.461 378.39L564.129 379.104L562.571 379.616C557.605 379.515 551.595 378.078 546.1 377.937C531.195 377.552 512.969 378.274 498.289 376.058Z" fill="#CCF5EC"/>
<path d="M797.305 602.102C800.982 598.104 805.209 593.899 809.163 590.287C858.746 544.98 894.331 487.331 901.809 419.624C903.305 406.08 901.34 391.781 902.832 378.88C907.712 386.804 913.21 395.827 916.898 404.535C939.018 456.753 934.411 520.026 906.854 569.339C899.482 582.531 889.192 594.765 878.989 605.818C873.611 611.645 867.283 616.659 861.79 622.384L861.179 622.29C844.199 611.182 817.965 601.15 797.305 602.102Z" fill="#FFCFD2"/>
<path d="M541.055 466.554C503.677 468.694 467.265 460.352 432.056 450.528C413.265 445.285 355.708 431.707 390.733 407.005C409.675 393.645 425.706 393.444 447.171 388.412C450.697 387.585 452.987 384.238 454.38 381.207C463.839 381.813 473.821 387.872 484.579 388.265C497.037 388.721 507.67 386.46 519.962 384.822C527.336 383.64 573.485 386.506 575.363 385.07L575.87 383.66L576.589 383.963C578.101 387.187 574.728 395.393 574.497 399.396C574.363 401.728 574.7 402.913 574.807 405.081C572.499 404.455 571.741 403.965 569.7 404.851L569.186 405.555C572.848 409.337 592.856 407.587 602.128 413.359L602.211 414.004C604.482 415.52 608.743 418.085 609.838 420.477C608.684 422.038 604.419 422.286 601.875 425.122C596.03 431.638 596.796 440.138 590.524 446C589.083 447.347 585.593 449.689 583.747 451.147C573.679 452.255 545.348 456.405 541.055 466.554ZM462.368 401.209C447.601 402.558 432.375 406.163 422.413 418.064C420.193 420.716 417.11 425.26 417.243 428.753L417.548 429.136C419.55 428.743 420.058 427.355 420.92 425.642C436.234 399.878 464.64 407.267 468.992 402.351L468.673 401.496C466.79 400.845 464.345 400.93 462.368 401.209Z" fill="url(#paint3_linear_41_7784)"/>
<path d="M576.589 383.963L577.761 383.278C585.119 397.918 619.612 396.528 632.954 401.215C638.185 403.052 644.428 406.697 646.823 411.898C654.979 429.606 637.325 441.84 623.452 448.144C597.402 459.982 569.519 465.65 541.055 466.554C545.348 456.405 573.679 452.255 583.747 451.147C585.593 449.689 589.083 447.347 590.524 446C596.796 440.138 596.03 431.638 601.875 425.122C604.419 422.286 608.684 422.038 609.838 420.477C608.743 418.085 604.482 415.52 602.211 414.004L602.128 413.359C604.571 414.215 608.793 417.061 610.225 419.173C615.553 427.029 604.276 434.818 603.84 438.087L604.458 438.544C611.687 436.402 617.98 423.304 612.004 416.929C602.821 407.132 587.247 406.284 574.807 405.081C574.7 402.913 574.363 401.728 574.497 399.396C574.728 395.393 578.101 387.187 576.589 383.963Z" fill="#F1C0E8"/>
<path d="M420.923 425.642C420.061 427.355 419.553 428.743 417.551 429.136L417.246 428.753C417.113 425.26 420.196 420.716 422.416 418.064C432.378 406.163 447.604 402.558 462.371 401.209C464.348 400.93 466.793 400.845 468.676 401.496L468.995 402.351C464.643 407.267 436.237 399.878 420.923 425.642Z" fill="#494E6B"/>
<path d="M602.13 413.359C592.858 407.587 572.849 409.337 569.188 405.555L569.702 404.851C571.743 403.965 572.501 404.455 574.809 405.081C587.249 406.284 602.823 407.132 612.006 416.929C617.982 423.304 611.689 436.402 604.46 438.544L603.842 438.087C604.278 434.818 615.555 427.029 610.227 419.173C608.795 417.061 604.573 414.215 602.13 413.359Z" fill="#524A60"/>
<path d="M184.492 596.804C187.218 582.087 206.136 552.985 215.376 540.592C247.767 497.149 284.473 464.235 330.307 435.716C336.459 431.888 350.502 422.159 357.324 421.2C352.691 446.174 352.589 463.62 351.5 489.04L348.489 546.504C347.969 556.486 347.846 567.307 347.088 577.166C342.347 580.318 337.58 585.656 333.132 589.426C318.078 602.19 303.854 615.765 288.5 628.208C280.073 635.038 271.279 640.726 262.292 646.752C259.173 648.844 252.848 652.216 250.295 654.26L249.644 654.044C233.446 640.867 217.764 626.562 201.96 612.898C197.357 608.918 188.714 599.664 184.492 596.804Z" fill="#90DBF4"/>
<path d="M568.562 466.751C589.065 464.645 623.501 453.6 639.916 441.422L640.192 441.924C641.54 443.357 644.378 444.494 646.341 445.246C654.251 448.275 653.259 457.727 653.885 464.624C654.126 471.991 654.528 480.928 654.516 488.57C648.624 486.28 646.745 489.903 642.696 493.547C637.71 498.034 630.06 496.528 623.662 496.918C621.552 496.404 621.361 496.331 619.227 496.432C615.906 494.561 614.959 494.326 612.948 491.149C616.994 489.227 633.09 480.725 633.985 476.79L633.471 476.261C631.996 476.693 625.822 481.434 623.62 482.702C618.604 485.588 614.551 487.911 609.133 490.205C609.962 488.03 629.048 479.945 630.776 476.173C629.649 474.436 630.075 474.138 628.955 472.64C628.19 472.488 627.307 472.2 626.583 472.639C619.482 476.946 612.68 481.747 604.701 484.444L604.033 483.764C612.594 479.749 624.766 474.419 631.015 467.384L631.198 466.607C627.345 466.921 619.746 473.486 614.94 475.86C607.148 479.71 594.135 485.909 585.607 487.224C588.225 483.964 599.4 484.96 600.151 479.324C599.436 477.636 598.683 476.881 597.203 475.775C594.75 473.942 592.531 475.828 590.232 476.52C587.866 477.232 585.224 477.638 582.818 478.064L582.146 477.374C583.962 476.434 592.001 474.943 594.677 474.174C599.961 472.656 620.217 466.08 622.283 461.295L621.484 460.773C620.097 460.961 620.377 460.887 619.297 461.537C608.181 468.222 589.102 474.088 576.104 475.599L575.552 475.658L575.37 475.193C576.211 474.841 583.526 473.542 585.411 473.032C594.081 470.686 600.366 469.034 608.839 465.843L608.802 464.998C606.491 462.219 604.005 463.432 600.792 462.254C594.288 459.87 574.333 469.828 568.562 466.751Z" fill="#F1C0E8"/>
<path d="M640.186 441.924C643.288 441.148 647.236 441.903 649.775 443.861C655.08 447.952 655.983 455.543 656.435 461.742C657.238 472.761 657.678 483.786 658.058 494.816C659.805 542.324 659.136 587.026 659.683 634.216C659.792 649.688 659.78 665.528 660.503 680.959C661.078 709.654 663.501 738.334 663.451 767.063C663.406 792.811 664.301 827.672 639.936 843.652C638.653 844.386 638.729 844.316 637.236 844.386C636.791 843.75 636.791 843.104 637.419 842.549C655.79 826.325 659.333 809.471 659.878 784.633C660.728 745.976 657.473 705.267 656.052 666.391C655.107 640.523 656.854 612.89 656.352 586.838C656.796 554.135 654.298 521.108 654.511 488.57C654.523 480.928 654.12 471.991 653.879 464.624C653.253 457.727 654.246 448.275 646.336 445.246C644.373 444.494 641.534 443.357 640.186 441.924Z" fill="url(#paint4_linear_41_7784)"/>
<path d="M377.787 507.649C376.751 519.783 376.835 535.853 376.465 548.391L374.236 612.186L372.276 675.997C371.919 687.292 371.056 700.873 371.392 712.056C371.432 719.542 370.796 727.597 370.663 735.667C370.491 746.046 370.592 758.087 369.94 768.468C369.895 769.196 369.237 769.34 368.438 769.827L367.445 769.487C365.354 765.828 367.376 719.5 367.652 710.87C368.17 706.764 368.198 697.043 368.322 692.584L369.389 655.184C370.975 607.557 371.678 557.112 374.463 509.802C374.584 504.045 374.944 498.085 375.275 492.322C376.155 476.986 376.503 461.612 377.48 446.289C377.542 445.304 378.57 444.953 379.27 444.634L379.95 445.159C381.587 449.343 379.88 466.419 379.576 471.678L377.787 507.649Z" fill="url(#paint5_linear_41_7784)"/>
<path d="M575.548 475.658L576.1 475.599C589.098 474.088 608.177 468.222 619.293 461.537C620.373 460.887 620.093 460.961 621.48 460.773L622.279 461.295C620.213 466.08 599.957 472.656 594.673 474.174C591.997 474.943 583.959 476.434 582.143 477.374C572.868 478.333 531.899 485.38 525.368 482.227L525.195 481.537C528.312 479.999 565.703 478.576 575.548 475.658Z" fill="#515B69"/>
<path d="M604.03 483.764C587.646 489.991 571.767 494.193 554.127 494.677C551.402 494.752 545.32 495.335 543.109 494.12L543.303 493.365C545.926 492.307 551.634 492.238 554.73 491.988C562.52 491.36 578.828 490.088 585.605 487.224C594.133 485.909 607.146 479.71 614.938 475.86C619.744 473.486 627.343 466.921 631.196 466.607L631.012 467.384C624.763 474.419 612.591 479.749 604.03 483.764Z" fill="#494E6B"/>
<path d="M609.131 490.205C614.549 487.911 618.601 485.588 623.617 482.702C625.819 481.434 631.994 476.693 633.469 476.261L633.983 476.79C633.088 480.725 616.992 489.227 612.946 491.149C594.641 499.813 579.375 502.723 558.925 502.621C557.273 502.613 555.365 502.376 554.227 501.183C555.831 500.359 560.115 500.377 562.084 500.274C576.383 499.525 596.655 497.518 609.131 490.205Z" fill="#494E6B"/>
<path d="M394.41 501.586C394.419 496.337 394.001 488.908 395.788 484.15L396.41 483.886C398.237 487.254 397.523 496.925 397.43 501.398L397.17 561.631C397.16 563.441 397.228 564.311 396.133 565.394C394.121 565.377 394.882 565.747 393.61 564.661C393.124 561.534 393.686 546.991 393.762 543.306L394.41 501.586Z" fill="#387A79"/>
<path d="M658.062 494.816C660.345 496.466 664.004 499.863 666.17 500.596L667.457 500.388C668.407 498.805 668.062 498.475 668.116 496.313C668.756 503.348 668.601 513.415 668.69 520.657L669.205 562.421L669.794 603.681C670.033 613.903 670.61 625.98 670.333 636.108C669.703 637.818 669.986 643.291 670.019 645.457C665.638 642.314 660.391 639.793 659.688 634.216C659.141 587.026 659.809 542.324 658.062 494.816Z" fill="#8EECF5"/>
<path d="M619.228 496.432C621.362 496.331 621.553 496.404 623.663 496.918C615.798 502.448 591.397 509.736 581.703 510.151C579.223 510.258 570.383 511.375 568.547 509.873C569.388 508.545 575.534 508.352 577.562 508.206C591.111 507.231 607.407 503.151 619.228 496.432Z" fill="url(#paint6_linear_41_7784)"/>
<path d="M580.613 522.598L580.094 521.483C581.117 520.249 585.568 520.213 587.45 519.938C607.337 517.027 624.447 509.665 640.391 497.477L640.763 497.857C640.856 498.883 640.841 499.749 639.951 500.496C624.62 513.363 600.143 522.116 580.613 522.598Z" fill="#494E6B"/>
<path d="M377.792 507.649L378.602 507.824C380.793 507.042 393.675 502.371 394.409 501.586L393.761 543.306C393.685 546.991 393.123 561.534 393.609 564.661C394.881 565.747 394.12 565.377 396.132 565.394C397.227 564.311 397.159 563.441 397.169 561.631L397.429 501.398C412.365 499.761 424.49 499.113 439.311 502.963C535.672 527.994 588.105 624.818 587.991 719.337L587.369 719.694C572.103 723.604 553.695 728.5 537.895 729.904C496.982 733.541 450.746 730.547 410.455 722.863C404.509 721.729 394.146 719.933 388.985 718.152C388.25 690.397 390.454 662.019 389.391 634.197C389.356 633.293 388.463 632.819 387.84 632.449L387.097 632.909C385.485 636.619 386.061 658.438 386.011 663.889L385.488 716.691C383.59 716.349 373.78 712.838 371.397 712.056C371.061 700.873 371.924 687.292 372.281 675.997L374.241 612.186L376.47 548.391C376.84 535.853 376.756 519.783 377.792 507.649Z" fill="#5CF6D6"/>
<path d="M359.826 512.549C365.237 512.061 369.194 511.06 374.465 509.802C371.68 557.112 370.977 607.557 369.391 655.184L368.324 692.584C368.2 697.043 368.172 706.764 367.654 710.87C362.875 709.867 358.262 708.265 353.361 707.846C352.855 696.314 354.005 681.399 354.298 669.709L356.725 590.242L358.343 538.175C358.612 531.08 358.807 519.386 359.826 512.549Z" fill="#5CF6D6"/>
<path d="M590.469 532.55L589.477 531.94L589.584 531.287C591.827 529.818 604.779 528.732 609.019 527.499C622.13 523.686 630.832 518.068 641.712 510.352L642.799 510.702C642.782 511.709 642.928 511.696 641.807 512.662C627.308 525.155 609.195 532.313 590.469 532.55Z" fill="#515B69"/>
<path d="M598.146 545.563L597.953 544.298C599.173 543.113 609.247 541.712 612.242 540.651C624.174 536.421 632.499 530.879 642.776 523.925C643.781 527.415 635.118 532.094 632.564 533.655C621.458 540.442 611.101 544.524 598.146 545.563Z" fill="#494E6B"/>
<path d="M608.177 557.329C607.601 556.524 607.795 556.812 607.57 555.767C609.176 553.854 621.718 550.727 626.506 548.114C633.897 544.079 636.86 542.377 643.793 537.388C644.517 538.377 644.26 537.828 644.311 539.155C638.786 546.747 617.231 554.916 608.177 557.329Z" fill="#515B69"/>
<path d="M615.548 570.838C614.524 570.352 614.886 570.612 614.195 569.632C615.438 567.326 621.788 567.071 625.137 565.394C633.305 561.303 638.448 559.209 644.499 552.273L645.521 552.989C645.681 553.721 645.979 554.304 645.583 554.769C638.257 563.373 625.216 568.249 615.548 570.838Z" fill="#515B69"/>
<path d="M619.252 585.06L618.844 583.655C620.126 582.435 626.493 581.299 629.521 579.934C637.184 576.479 640.191 574.323 645.911 568.348L646.625 569.259C645.802 577.294 626.275 583.832 619.252 585.06Z" fill="url(#paint7_linear_41_7784)"/>
<path d="M250.297 654.26C252.85 652.216 259.175 648.844 262.294 646.752C271.281 640.726 280.075 635.038 288.502 628.208C303.856 615.765 318.08 602.19 333.134 589.426C337.582 585.656 342.349 580.318 347.09 577.166C345.948 619.774 344.207 661.892 343.528 704.57C338.327 703.222 331.94 700.217 326.899 698.08C300.401 686.847 273.619 671.147 250.297 654.26Z" fill="#5CF6D6"/>
<path d="M622.627 598.032C621.477 597.197 621.809 597.755 621.398 596.484C623.433 594.741 631.964 593.1 634.972 591.662C639.881 589.315 643.071 586.743 647.285 583.363L648.184 584.075L647.909 585.178C641.355 592.58 632.055 595.912 622.627 598.032Z" fill="#515B69"/>
<path d="M184.491 596.804C188.713 599.664 197.356 608.918 201.959 612.898C217.763 626.562 233.445 640.867 249.643 654.044L225.53 668.393C219.526 671.914 213.762 675.478 207.821 679.071C200.722 683.365 194.815 690.992 188.491 695.09L188.147 694.907C173.284 656.225 173.08 637.095 184.201 597.34L184.491 596.804Z" fill="#CCF5EC"/>
<path d="M628.681 611.661L628.133 610.229C628.624 608.864 635.354 606.755 637.23 605.856C641.022 604.04 643.884 602.266 647.365 599.926C648.068 600.964 647.865 600.38 647.676 601.805C643.707 606.491 634.562 610.101 628.681 611.661Z" fill="#515B69"/>
<path d="M682.023 634.764C718.701 609.68 752.552 600.344 796.834 602.165C786.004 611.25 762.865 624.808 750.489 632.263C738.053 639.753 719.179 651.091 706.186 656.825C706.069 657.039 705.695 657.65 705.672 657.851L704.209 657.685C696.727 655.694 690.122 653.999 682.64 651.763L682.023 634.764Z" fill="#B9FBC0"/>
<path d="M796.834 602.165L797.306 602.102C817.966 601.15 844.2 611.182 861.18 622.29C821.999 651.415 768.535 663.773 720.979 659.637C715.846 659.191 710.72 658.284 705.672 657.851C705.695 657.65 706.069 657.039 706.186 656.825C719.179 651.091 738.053 639.753 750.489 632.263C762.865 624.808 786.004 611.25 796.834 602.165Z" fill="#FBF8CC"/>
<path d="M635.624 621.692L634.734 620.668L635.007 619.733C637.573 618.359 642.975 616.518 646.325 614.955C647.023 615.205 646.857 615.212 647.444 615.805L646.96 616.887C643.582 619.445 639.643 620.511 635.624 621.692Z" fill="#515B69"/>
<path d="M705.671 657.851C710.719 658.284 715.845 659.191 720.978 659.637C768.534 663.773 821.998 651.415 861.179 622.29L861.79 622.384C867.929 626.587 875.351 632.032 880.434 637.416C926.062 685.747 928.854 758.256 891.179 812.502C866.759 847.664 828.061 873.548 785.391 881.322C753.804 887.092 721.13 883.544 691.266 871.81C683.531 868.771 676.403 864.844 669.023 861.106C692.494 826.434 686.078 777.208 685.242 737.601C684.756 714.597 683.206 691.442 683.452 668.436C691.887 664.016 695.34 663.757 704.208 657.685L705.671 657.851Z" fill="#B9FBC0"/>
<path d="M638.167 632.874C637.505 631.379 637.53 632.104 637.943 630.637C640.265 629.426 645.025 628.391 647.847 627.595L648.259 628.159L647.983 629.204C645.794 631.298 641.146 632.164 638.167 632.874Z" fill="#515B69"/>
<path d="M385.485 716.691L386.008 663.889C386.058 658.438 385.482 636.619 387.094 632.909L387.837 632.449C388.46 632.819 389.353 633.293 389.388 634.197C390.451 662.019 388.247 690.397 388.982 718.152C389.027 721.534 389.778 732.616 387.598 734.642L386.702 734.488C384.171 731.685 385.496 720.833 385.485 716.691Z" fill="#387A79"/>
<path d="M659.688 634.216C660.391 639.793 665.638 642.314 670.019 645.457C669.986 643.291 669.703 637.818 670.333 636.108C670.359 648.304 669.939 664.097 670.908 676.04C667.816 677.042 663.534 679.409 660.508 680.959C659.785 665.528 659.796 649.688 659.688 634.216Z" fill="#69EAE6"/>
<path d="M682.641 651.763C690.123 653.999 696.728 655.694 704.21 657.685C695.342 663.757 691.889 664.016 683.454 668.436C683.057 663.003 682.984 657.285 682.641 651.763Z" fill="#5CF6D6"/>
<path d="M188.492 695.09C194.816 690.992 200.723 683.365 207.822 679.071C213.763 675.478 219.527 671.914 225.531 668.393L249.644 654.044L250.295 654.26C273.617 671.147 300.399 686.847 326.897 698.08C331.938 700.217 338.325 703.222 343.526 704.57L343.517 766.656C343.518 775.156 343.073 790.222 343.622 798.184C341.491 797.959 338.837 797.122 336.825 796.397C299.794 783.06 263.94 767.214 231.98 743.895C212.952 730.011 199.344 716.421 188.492 695.09Z" fill="#98F5E1"/>
<path d="M631.147 695.231C630.244 694.85 630.579 695.034 629.883 694.239C630.594 692.569 637.978 685.175 639.775 682.871C642.663 679.166 645.856 675.08 648.74 671.283C649.781 671.753 649.386 671.371 649.87 672.484C648.929 677.465 635.775 691.858 631.147 695.231Z" fill="#515B69"/>
<path d="M660.504 680.959C663.53 679.409 667.812 677.042 670.904 676.04L672.815 735.5C674.134 770.747 678.473 824.874 659.555 856.165C657.377 853.697 643.185 843.791 639.938 843.652C664.302 827.672 663.407 792.811 663.452 767.063C663.502 738.334 661.079 709.654 660.504 680.959Z" fill="#98F5E1"/>
<path d="M629.407 712.075C625.012 714.875 615.345 720.622 610.372 720.031L609.938 719.375C611.099 717.836 613.399 717.183 615.285 716.434C621.913 713.802 627.266 710.402 632.974 706.095C637.944 702.24 642.172 698.45 646.217 693.615C647.83 691.687 650.037 689.265 652.286 688.199L652.762 688.577C649.838 695.091 641.968 701.602 636.711 706.218C635.583 707.209 630.012 711.217 629.407 712.075Z" fill="#416F73"/>
<path d="M393.548 892.322C390.485 893.788 380.952 894.521 376.899 895.116C357.528 897.962 335.655 901.125 315.963 901.51C274.553 902.319 222.73 898.431 190.948 869.026C170.529 850.135 162.718 821.831 162.577 794.865C162.447 769.992 160.573 736.615 172.686 714.384C176.539 707.313 182.713 700.714 188.143 694.907L188.487 695.09C199.339 716.421 212.947 730.011 231.975 743.895C263.935 767.214 299.789 783.06 336.82 796.397C338.832 797.122 341.486 797.959 343.617 798.184C344.011 806.808 343.199 816.253 343.871 824.626C346.154 853.108 368.241 880.58 393.548 892.322Z" fill="#FBF8CC"/>
<path d="M632.972 706.095C627.264 710.402 621.912 713.802 615.284 716.434C613.398 717.183 611.098 717.836 609.936 719.375L610.371 720.031C615.344 720.622 625.011 714.875 629.406 712.075C629.865 714.336 628.491 715.682 627.193 717.534C630.001 717.979 632.564 717.997 634.479 720.122C627.979 724.735 622.526 728.298 615.308 731.988C611.098 734.14 604.781 736.611 601 738.994L600.983 739.772C607.031 741.568 629.941 726.933 634.964 723.121L636.357 723.459C638.985 728.422 639.334 729.478 643.096 733.464C632.637 741.128 620.066 747.255 607.599 751.165C604.902 752.011 601.667 751.854 601.118 754.245C605.462 759.869 641.485 738.397 647.36 733.017C649.891 736.37 647.777 739.109 648.342 743.767C636.393 754.913 620.866 763.301 605.527 768.918C602.979 769.851 597.044 771.266 596.276 773.614C598.297 774.632 605.703 772.276 607.857 771.456C620.454 766.66 637.019 757.281 646.85 748.378C649.546 752.37 646.68 757.116 646.909 761.105C635.598 770.025 626.22 776.015 612.971 781.848C609.279 783.473 599.783 785.699 598.29 788.004L598.534 788.996C606.565 789.953 632.047 775.21 638.777 770.539C640.791 773.68 641.087 777.38 640.487 781.008C629.593 788.233 618.978 793.566 606.534 797.465C605.601 797.757 605.184 798.259 604.779 799.057L605.094 799.724C612.168 800.699 635.702 787.258 641.88 783.115C642.296 786.605 639.593 789.928 639.493 795.058C635.365 797.643 631.772 799.675 627.358 801.726C624.58 803.017 617.074 805.368 615.716 807.67C621.076 809.177 635.257 800.857 639.845 798.007C640.264 803.36 639.393 804.865 637.672 809.9L637.146 810.29C632.696 813.519 622.315 817.267 621.029 819.83L621.477 820.557L624.449 819.646C627.772 818.601 630.368 817.245 633.492 815.708C634.156 817.771 631.947 822.079 632.227 825.979C630.047 827.485 626.464 829.789 624.485 831.344L623.117 832.085C619.953 832.805 612.953 833.879 610.641 835.23C587.767 826.059 557.171 826.637 532.562 826.525C537.253 820.781 543.288 812.352 546.461 805.831C549.244 803.343 554.08 800.632 557.201 797.917C574.98 782.454 582.904 764.731 585.701 741.668C586.572 734.491 586.765 726.897 587.367 719.694L587.99 719.337C599.523 715.745 607.836 711.843 618.742 706.746C619.982 707.677 621.292 708.941 622.461 710.003C625.944 707.684 628.843 703.211 632.972 706.095Z" fill="#FFEDE1"/>
<path d="M353.36 707.846C358.261 708.265 362.874 709.867 367.653 710.87C367.377 719.5 365.355 765.828 367.446 769.487L368.439 769.827C369.238 769.34 369.896 769.196 369.941 768.468C370.593 758.087 370.492 746.046 370.664 735.667C370.797 727.597 371.433 719.542 371.393 712.056C373.776 712.838 383.586 716.349 385.484 716.691C385.495 720.833 384.17 731.685 386.701 734.488L387.597 734.642C389.777 732.616 389.026 721.534 388.981 718.152C394.142 719.933 404.505 721.729 410.451 722.863C450.742 730.547 496.979 733.541 537.892 729.904C553.692 728.5 572.099 723.604 587.365 719.694C586.763 726.897 586.569 734.491 585.698 741.668C582.901 764.731 574.978 782.454 557.199 797.917C554.078 800.632 549.242 803.343 546.459 805.831C540.205 808.877 534.003 811.893 527.519 814.451C483.894 831.663 437.82 821.709 393.616 812.565C390.073 811.832 375.042 806.946 373.326 807.392L370.839 806.925C369.744 806.02 356.588 803.122 354.036 802.49C353.178 803.377 353.282 804.675 353.043 806.193C352.5 773.705 353.779 740.348 353.36 707.846Z" fill="#98F5E1"/>
<path d="M634.965 723.121C629.942 726.933 607.032 741.568 600.984 739.772L601.001 738.994C604.782 736.611 611.099 734.14 615.309 731.988C622.527 728.298 627.979 724.735 634.479 720.122C636.935 718.129 646.189 709.483 648.263 709.248C647.616 713.286 641.236 717.744 638.269 720.501L634.965 723.121Z" fill="#416F73"/>
<path d="M634.961 723.121L638.265 720.501C639.986 723.887 643.962 729.671 644.816 732.043L643.093 733.464C639.331 729.478 638.981 728.422 636.353 723.459L634.961 723.121Z" fill="#CCF5EC"/>
<path d="M644.818 732.043C646.63 730.189 648.485 727.935 650.761 726.881L651.166 727.212C650.307 730.014 649.348 730.83 647.359 733.017C641.484 738.397 605.461 759.869 601.117 754.245C601.666 751.854 604.901 752.011 607.598 751.165C620.065 747.255 632.636 741.128 643.095 733.464L644.818 732.043Z" fill="url(#paint8_linear_41_7784)"/>
<path d="M648.339 743.767C651.249 741.082 652.05 740.338 655.438 738.319C652.617 742.703 650.492 744.655 646.847 748.378C637.016 757.281 620.45 766.66 607.853 771.456C605.699 772.276 598.294 774.632 596.273 773.614C597.041 771.266 602.976 769.851 605.524 768.918C620.863 763.301 636.39 754.913 648.339 743.767Z" fill="url(#paint9_linear_41_7784)"/>
<path d="M638.776 770.539C632.046 775.21 606.563 789.953 598.532 788.996L598.289 788.004C599.782 785.699 609.278 783.473 612.97 781.848C626.219 776.015 635.596 770.025 646.907 761.105C648.643 759.62 649.007 758.768 650.95 758.616L651.541 759.246C650.73 761.305 647.671 763.59 645.906 765.101C644.175 766.415 640.234 769.223 638.776 770.539Z" fill="url(#paint10_linear_41_7784)"/>
<path d="M638.773 770.539C640.231 769.223 644.172 766.415 645.903 765.101C647.758 769.217 644.169 772.383 646.392 776.653L640.483 781.008C641.083 777.38 640.787 773.68 638.773 770.539Z" fill="#CCF5EC"/>
<path d="M646.398 776.653C648.779 774.633 651.203 772.348 653.964 770.942L654.633 771.056C652.486 776.545 644.412 780.065 641.881 783.115C635.703 787.258 612.169 800.699 605.095 799.724L604.781 799.057C605.186 798.259 605.602 797.757 606.535 797.465C618.979 793.566 629.595 788.233 640.489 781.008L646.398 776.653Z" fill="url(#paint11_linear_41_7784)"/>
<path d="M639.849 798.007C635.261 800.857 621.079 809.177 615.719 807.67C617.077 805.368 624.584 803.017 627.362 801.726C631.776 799.675 635.369 797.643 639.497 795.058C642.769 792.939 648.373 787.802 650.714 787.351L651.403 787.567C650.49 791.24 642.234 795.52 639.849 798.007Z" fill="#416F73"/>
<path d="M353.042 806.193C353.281 804.675 353.177 803.377 354.035 802.49C356.587 803.122 369.743 806.02 370.838 806.925C367.481 817.52 374.193 843.917 383.274 852.365C383.919 852.966 385.12 852.498 385.907 852.196C386.124 851.068 386.11 850.534 385.182 849.405C378.056 840.732 374.259 828.822 373.526 817.713C373.31 814.441 373.551 810.425 373.325 807.392C375.041 806.946 390.072 811.832 393.615 812.565C437.819 821.709 483.893 831.663 527.518 814.451C534.002 811.893 540.204 808.877 546.458 805.831C543.285 812.352 537.249 820.781 532.559 826.525C506.833 826.623 425.766 832.676 408.166 850.604C405.201 853.624 403.228 857.451 403.43 861.759C403.615 865.677 405.397 869.491 408.328 872.099C413.832 876.998 422.077 878.185 429.094 879.142C426.175 884.337 423.359 884.381 421.779 890.644C421.598 891.405 421.338 892.73 421.052 893.399C390.726 882.473 364.646 867.623 355.464 834.248C352.63 823.948 352.897 816.71 353.042 806.193Z" fill="#FBF8CC"/>
<path d="M637.675 809.9C640.244 808.118 645.522 803.433 648.486 803.693L648.733 804.489C645.752 809.217 636.872 812.893 633.495 815.708C630.371 817.245 627.775 818.601 624.452 819.646L621.48 820.557L621.031 819.83C622.317 817.267 632.698 813.519 637.148 810.29L637.675 809.9Z" fill="#416F73"/>
<path d="M373.327 807.392C373.553 810.425 373.312 814.441 373.528 817.713C374.261 828.822 378.058 840.732 385.184 849.405C386.112 850.534 386.126 851.068 385.909 852.196C385.122 852.498 383.921 852.966 383.276 852.365C374.195 843.917 367.483 817.52 370.84 806.925L373.327 807.392Z" fill="#387A79"/>
<path d="M632.226 825.979C634.696 823.867 638.715 820.051 641.161 818.455L641.619 818.768C640.214 822.998 629.98 833.42 625.479 832.134L624.484 831.344C626.463 829.789 630.046 827.485 632.226 825.979Z" fill="#416F73"/>
<path d="M429.1 879.142C422.083 878.185 413.838 876.998 408.334 872.099C405.403 869.491 403.621 865.677 403.436 861.759C403.234 857.451 405.207 853.624 408.172 850.604C425.772 832.676 506.839 826.623 532.565 826.525C557.174 826.637 587.769 826.059 610.643 835.23C612.792 836.367 615.278 837.605 617.321 838.869C623.085 843.28 629.861 849.094 630.83 856.763C631.238 859.988 630.476 862.906 628.339 865.369C614.65 881.143 556.473 884.848 536.04 885.728C526.187 886.152 516.316 886.017 506.456 886C481 885.754 454.592 881.846 429.1 879.142ZM521.668 830.476C498.821 830.551 426.186 837.598 410.873 852.927C408.714 855.088 407.123 857.898 407.115 861.018C407.107 864.151 408.432 867.128 410.705 869.27C418.314 876.435 432.829 875.464 442.534 876.843C455.932 878.318 470.599 880.352 483.854 881.48C504.142 883.205 527.067 882.592 547.457 881.888C552.474 881.715 570.681 880.464 575.397 879.306C589.156 877.377 603.003 875.639 615.939 870.253C622.163 867.662 630.03 863.372 627.437 855.27C625.392 848.879 620.231 844.332 614.522 841.197C593.647 828.819 546.058 829.883 521.668 830.476Z" fill="#387A79"/>
<path d="M521.665 830.476C546.055 829.883 593.644 828.819 614.519 841.197C609.53 843.838 598.654 845.426 593.016 847.928C588.941 849.737 587.243 853.242 584.42 854.712C582.778 857.585 583.224 857.994 584.738 860.782C581.295 866.681 578.356 873.132 575.394 879.306C570.678 880.464 552.471 881.715 547.454 881.888C527.064 882.592 504.139 883.205 483.851 881.48C470.596 880.352 455.929 878.318 442.531 876.843C443.984 869.697 463.201 871.217 468.821 870.015C470.538 869.647 473.763 869.107 475.404 869.493C476.369 870.804 476.954 870.974 478.596 871.096C484.954 871.568 518.665 870.867 522.291 867.815C522.023 866.55 522.145 866.821 521.603 865.663C521.736 865.692 487.699 868.171 483.948 868.258L482.511 867.664C483.365 866.231 499.51 860.087 502.36 858.837C515.55 853.743 525.916 851.964 540.419 845.477C531.673 845.263 524.589 847.371 516.054 848.01C515.52 846.311 515.168 843.361 515.476 841.62C520.151 841.438 550.78 840.174 552.721 839.117C553.545 838.668 553.243 838.89 553.553 837.805L552.684 836.643C547.474 836.193 528.991 837.422 522.836 837.69C521.705 836.563 521.941 832.87 521.665 830.476ZM572.763 861.695C568.932 862.161 552.38 863.286 550.698 864.95C551.716 867.469 553.513 866.954 555.88 866.612C560.392 866.33 573.178 866.086 576.296 863.536L576.318 862.618C574.938 861.429 574.772 861.349 572.763 861.695Z" fill="url(#paint12_linear_41_7784)"/>
<path d="M442.528 876.843C432.823 875.464 418.308 876.435 410.699 869.27C408.426 867.128 407.101 864.151 407.109 861.018C407.117 857.898 408.708 855.088 410.867 852.927C426.18 837.598 498.815 830.551 521.662 830.476C521.938 832.87 521.702 836.563 522.833 837.69L521.872 837.822C513.866 838.883 505.689 838.817 497.663 839.841C487.992 841.074 437.3 850.218 432.238 857.195C432.052 857.452 431.954 857.763 431.812 858.047L432.249 859.053C434.698 859.961 440.44 856.997 443.029 856.043C466 847.577 491.179 843.653 515.473 841.62C515.165 843.361 515.517 846.311 516.051 848.01C511.626 851.569 504.51 853.56 501.86 857.414C502.013 858.508 501.816 858.046 502.357 858.837C499.507 860.087 483.362 866.231 482.508 867.664L483.945 868.258C481.318 868.317 477.329 867.979 475.401 869.493C473.76 869.107 470.535 869.647 468.818 870.015C463.198 871.217 443.981 869.697 442.528 876.843Z" fill="#FBF8CC"/>
<path d="M610.641 835.23C612.953 833.879 619.953 832.805 623.117 832.085C620.991 835.08 618.484 836.311 617.319 838.869C615.276 837.605 612.79 836.367 610.641 835.23Z" fill="#CCF5EC"/>
<path d="M522.833 837.69C528.988 837.422 547.472 836.193 552.682 836.643L553.55 837.805C553.24 838.89 553.543 838.668 552.719 839.117C550.778 840.174 520.149 841.438 515.474 841.62C491.18 843.653 466.001 847.577 443.03 856.043C440.441 856.997 434.699 859.961 432.25 859.053L431.812 858.047C431.955 857.763 432.052 857.452 432.238 857.195C437.3 850.218 487.992 841.074 497.663 839.841C505.689 838.817 513.866 838.883 521.872 837.822L522.833 837.69Z" fill="#387A79"/>
<path d="M614.516 841.197C620.225 844.332 625.386 848.879 627.431 855.27C630.024 863.372 622.157 867.662 615.933 870.253C602.997 875.639 589.15 877.377 575.391 879.306C578.353 873.132 581.292 866.681 584.735 860.782C591.101 865.674 596.763 860.065 600.301 854.495L599.812 853.674C595.771 852.627 595.099 857.84 591.429 859.258C587.934 860.607 588.62 856.796 584.417 854.712C587.24 853.242 588.938 849.737 593.013 847.928C598.651 845.426 609.527 843.838 614.516 841.197Z" fill="#98F5E1"/>
<path d="M502.356 858.837C501.815 858.046 502.012 858.508 501.859 857.414C504.509 853.56 511.625 851.569 516.05 848.01C524.585 847.371 531.669 845.263 540.415 845.477C525.912 851.964 515.546 853.743 502.356 858.837Z" fill="#B9FBC0"/>
<path d="M584.417 854.712C588.62 856.796 587.934 860.607 591.429 859.258C595.099 857.84 595.771 852.627 599.812 853.674L600.301 854.495C596.763 860.065 591.101 865.674 584.735 860.782C583.221 857.994 582.775 857.585 584.417 854.712Z" fill="#387A79"/>
<path d="M555.877 866.612C553.51 866.954 551.713 867.469 550.695 864.95C552.377 863.286 568.929 862.161 572.76 861.695C574.769 861.349 574.935 861.429 576.315 862.618L576.293 863.536C573.175 866.086 560.389 866.33 555.877 866.612Z" fill="#416F73"/>
<path d="M483.95 868.258C487.701 868.171 521.738 865.692 521.605 865.663C522.147 866.821 522.025 866.55 522.293 867.815C518.667 870.867 484.956 871.568 478.598 871.096C476.956 870.974 476.371 870.804 475.406 869.493C477.334 867.979 481.323 868.317 483.95 868.258Z" fill="#416F73"/>
<path d="M429.096 879.142C454.588 881.846 480.996 885.754 506.452 886C505.086 886.598 504.88 886.744 503.944 887.904C489.058 888.873 473.41 887.667 458.426 888.378C457.066 888.442 452.076 883.898 449.923 884.48C446.787 885.139 446.088 889.215 442.328 890.03L440.536 892.362C441.578 893.845 442.964 894.514 444.513 895.501C440.429 894.439 433.986 890.769 430.273 888.57L429.966 888.043C431.376 887.809 430.808 887.843 432.311 888.378C434.671 886.977 437.045 884.741 435.988 881.878C429.501 876.058 425.597 887.034 421.781 890.644C423.361 884.381 426.177 884.337 429.096 879.142Z" fill="#B9FBC0"/>
<defs>
<linearGradient id="paint0_linear_41_7784" x1="560.63" y1="215.254" x2="474.538" y2="209.077" gradientUnits="userSpaceOnUse">
<stop stop-color="#DEDAF5"/>
<stop offset="1" stop-color="#F2D2FB"/>
</linearGradient>
<linearGradient id="paint1_linear_41_7784" x1="516.811" y1="270.31" x2="517.131" y2="248.832" gradientUnits="userSpaceOnUse">
<stop stop-color="#F7C7F8"/>
<stop offset="1" stop-color="#EDDEFF"/>
</linearGradient>
<linearGradient id="paint2_linear_41_7784" x1="362.317" y1="850.576" x2="627.445" y2="471.333" gradientUnits="userSpaceOnUse">
<stop stop-color="#A8FDD6"/>
<stop offset="1" stop-color="#9AEEFF"/>
</linearGradient>
<linearGradient id="paint3_linear_41_7784" x1="599.69" y1="450.296" x2="392.339" y2="382.025" gradientUnits="userSpaceOnUse">
<stop stop-color="#BBDEF1"/>
<stop offset="1" stop-color="#86EFF5"/>
</linearGradient>
<linearGradient id="paint4_linear_41_7784" x1="633.565" y1="642.202" x2="668.566" y2="643.763" gradientUnits="userSpaceOnUse">
<stop stop-color="#595865"/>
<stop offset="1" stop-color="#448E96"/>
</linearGradient>
<linearGradient id="paint5_linear_41_7784" x1="375.346" y1="607.3" x2="370.967" y2="607.181" gradientUnits="userSpaceOnUse">
<stop stop-color="#41767D"/>
<stop offset="1" stop-color="#338D85"/>
</linearGradient>
<linearGradient id="paint6_linear_41_7784" x1="593.968" y1="498.98" x2="597.538" y2="507.519" gradientUnits="userSpaceOnUse">
<stop stop-color="#4F4D5C"/>
<stop offset="1" stop-color="#536172"/>
</linearGradient>
<linearGradient id="paint7_linear_41_7784" x1="634.022" y1="580.023" x2="632.002" y2="573.562" gradientUnits="userSpaceOnUse">
<stop stop-color="#53606D"/>
<stop offset="1" stop-color="#6D6777"/>
</linearGradient>
<linearGradient id="paint8_linear_41_7784" x1="625.499" y1="738.75" x2="628.299" y2="744.35" gradientUnits="userSpaceOnUse">
<stop stop-color="#4A636C"/>
<stop offset="1" stop-color="#40787A"/>
</linearGradient>
<linearGradient id="paint9_linear_41_7784" x1="623.153" y1="753.845" x2="626.757" y2="761.635" gradientUnits="userSpaceOnUse">
<stop stop-color="#4C6068"/>
<stop offset="1" stop-color="#3D7677"/>
</linearGradient>
<linearGradient id="paint10_linear_41_7784" x1="623.524" y1="770.257" x2="626.649" y2="777.659" gradientUnits="userSpaceOnUse">
<stop stop-color="#405E61"/>
<stop offset="1" stop-color="#3D7B7D"/>
</linearGradient>
<linearGradient id="paint11_linear_41_7784" x1="629.051" y1="783.954" x2="631.508" y2="788.497" gradientUnits="userSpaceOnUse">
<stop stop-color="#3E6061"/>
<stop offset="1" stop-color="#45787C"/>
</linearGradient>
<linearGradient id="paint12_linear_41_7784" x1="479.019" y1="824.371" x2="576.409" y2="891.734" gradientUnits="userSpaceOnUse">
<stop stop-color="#F6FCEC"/>
<stop offset="1" stop-color="white"/>
</linearGradient>
</defs>
</svg>
