<svg width="1024" height="1024" viewBox="0 0 1024 1024" fill="none" xmlns="http://www.w3.org/2000/svg">
<path d="M536.248 207.277C542.399 204.622 556.507 193.062 562.351 188.774C626.056 142.04 714.816 114.363 792.258 139.605C840.773 155.78 880.616 195.386 901.688 240.975C932.213 303.836 928.181 374.337 905.882 439.218C901.548 451.829 893.82 472.016 887.074 483.467C882.66 474.257 877.688 464.354 870.974 456.621C856.93 440.449 839.349 427.42 819.617 419.022C810.854 415.292 802.416 412.883 793.29 410.29C792.171 408.413 785.715 404.591 783.704 402.723C770.792 390.731 758.06 381.928 743.18 372.537C740.295 370.044 734.024 365.622 731.96 363.221L732.24 361.892L731.594 360.934C729.188 359.698 726.379 359.619 723.629 359.294C723.64 357.126 723.976 353.692 722.157 352.338C721 353.197 721.277 353.246 720.666 354.82C709.91 350.646 686.581 337.973 676.988 336.17L677.035 333.933C678.927 331.064 679.094 319.813 671.482 324.08C667.07 326.554 666.584 326.675 662.926 330.201C655.698 329.326 646.997 327.532 639.751 326.037C628.781 323.773 613.523 321.77 603.118 318.38C602.864 263.317 557.9 237.431 507.578 236.509C509.97 233.057 518.883 224.844 522.33 221.667C525.135 223.563 529.589 223.134 533.107 223.193C533.002 225.81 532.314 229.593 534.366 231.401L535.172 230.847C536.389 228.348 536.151 225.961 536.207 223.124C538.622 223.167 544.262 223.689 545.863 221.774L545.176 221.129C542.258 220.115 539.352 220.456 536.244 220.562C535.881 216.329 536.268 211.634 536.248 207.277ZM872.143 430.922C871.686 428.8 871.797 427.709 870.347 426.419C869.51 427.703 869.856 430.294 869.874 432.027C867.083 432.012 865.596 431.841 862.898 432.635C864.569 434.745 867.925 433.555 869.979 434.612C869.952 436.344 869.721 437.484 870.63 438.919C871.882 437.971 871.915 436.101 872.108 434.533C874.055 434.53 875.345 434.809 876.699 433.714C875.841 432.601 874.56 432.531 873.108 432.176C874.357 431.099 875.846 430.003 875.89 428.273C874.043 428.675 873.794 429.418 872.143 430.922ZM799.15 347.092C794.38 348.454 792.381 350.563 792.451 355.645L793.007 356.348C795.336 353.805 796.433 348.867 801.038 348.434C808.177 351.779 803.33 366.052 800.788 371.396C797.375 378.569 791.681 384.605 788.157 391.359C795.64 393.013 804.657 393.229 812.382 394.396C815.452 394.686 823.105 395.884 825.329 394.623L825.151 393.943C819.713 391.639 799.053 390.864 791.741 389.489C799.132 379.076 808.77 366.776 806.866 353.12C806.328 349.259 802.775 347.246 799.15 347.092Z" fill="#DFF0E7"/>
<path d="M197.935 415.972C197.908 415.842 197.88 415.712 197.852 415.582C191.258 341.322 196.73 248.264 265.337 203.768C329.472 162.172 399.846 187.55 456.776 225.929C460.884 228.698 473.469 237.922 474.359 242.33C446.731 253.384 428.481 269.863 415.929 297.515C406.369 318.573 407.574 346.506 409.122 369.546L409.225 378.026C405.766 377.913 389.889 376.99 388.12 378.093C388.14 378.916 387.953 379.73 388.479 379.921C393.54 381.751 403.569 380.752 409.102 381.381C406.061 402.63 400.186 417.119 385.697 433.38C356.353 405.284 317.328 396.028 277.601 396.455C260.679 396.637 244.773 400.3 228.212 402.892C226.031 399.438 222.092 396.128 218.171 399.487C215.43 401.834 214.927 405.211 214.224 408.564C208.893 410.475 202.8 413.041 197.935 415.972ZM352.212 288.407C333.259 298.928 329.365 345.302 302.369 359.271C298.682 361.179 294.296 362.537 290.181 361.259C286.823 360.217 284.263 357.472 282.766 354.369C279.557 347.714 280.984 338.839 283.495 332.145C286.892 323.091 293.993 314.011 302.972 309.972C305.074 309.027 308.202 308.083 310.481 308.948C311.679 309.402 312.617 310.071 313.076 311.317C313.822 313.343 312.923 315.76 311.851 317.492C308.465 322.96 301.303 326.273 295.252 327.78C293.462 328.227 290.718 328.428 289.293 329.567C294.19 333.291 311.508 324.25 314.075 318.9C316.052 314.782 317.769 310.001 312.665 306.582C301.4 301.456 287.483 315.315 283.061 324.56C280.233 330.473 278.707 335.083 277.452 340.886C276.675 347.157 270.289 353.96 265.557 357.912C263.092 359.971 256.448 363.045 256.621 365.9C263.027 369.352 275.223 349.669 277.813 344.828C278.109 349.312 278.876 353.712 281.669 357.429C293.321 372.937 310.692 358.925 319 347.732C325.113 339.497 329.232 329.9 334.01 320.85C331.811 333.054 329.769 345.966 326.244 357.921C326.096 359.661 326.35 361.459 327.295 362.998C328.373 364.756 330.404 364.694 332.482 364.956C346.373 366.702 365.92 345.793 356.757 332.733C354.404 329.379 348.704 330.086 344.649 331.177C354.029 322.24 358.342 313.468 358.749 300.406C358.907 295.337 358.775 288.223 352.212 288.407Z" fill="#FBF8CC"/>
<path d="M531.617 220.372C531.969 220.304 532.733 219.999 533.104 219.864C534.965 215.625 532.064 210.963 536.252 207.277C536.272 211.634 535.885 216.329 536.248 220.562C534.67 220.665 533 220.979 531.617 220.372Z" fill="#2C304A"/>
<path d="M522.328 221.667C525.344 219.101 527.861 220.001 531.611 220.372C532.994 220.979 534.664 220.665 536.242 220.562C539.35 220.456 542.256 220.115 545.174 221.129L545.861 221.774C544.26 223.689 538.62 223.167 536.205 223.124C536.149 225.961 536.387 228.348 535.17 230.847L534.364 231.401C532.312 229.593 533 225.81 533.105 223.193C529.587 223.134 525.133 223.563 522.328 221.667Z" fill="#2C304A"/>
<path d="M474.36 242.33C486.564 238.479 494.546 236.663 507.582 236.509C557.904 237.431 602.868 263.317 603.122 318.38L603.064 329.779L603.076 343.219C607.213 343.271 611.738 343.42 615.84 343.259C620.462 343.027 624.699 342.379 628.909 344.374L629.199 345.076C626.264 346.818 622.064 346.223 618.723 345.998C615.019 345.969 606.562 345.232 603.755 346.913C603.211 348.129 603.281 348.343 603.142 349.692C602.769 348.036 603.208 346.709 602.294 345.345C600.918 345.357 601.601 345.196 600.321 346.332C595.555 346.237 582.166 346.715 578.856 344.978L578.781 343.48L578.295 344.336L579.033 343.398C584.162 342.706 594.809 343.082 600.458 343.124L600.546 327.752C600.549 324.043 600.412 320.501 600.263 316.795L600.12 314.189C597.427 268.567 566.964 249.857 525.304 240.665C518.99 239.272 509.59 239.369 503.107 239.761C493.892 240.308 488.066 241.293 479.278 244.21C452.949 253.111 433.832 268.152 420.895 293.38C412.174 310.386 410.03 328.175 410.598 346.961C410.702 350.872 411.228 359.943 411.056 363.312L410.991 363.918C410.572 368.14 410.989 372.309 410.692 376.833L410.421 376.967C410.097 375.045 410.18 370.765 409.656 369.666L409.123 369.546C407.575 346.506 406.37 318.573 415.93 297.515C428.482 269.863 446.732 253.384 474.36 242.33Z" fill="#363344"/>
<path d="M503.105 239.761C509.588 239.369 518.988 239.272 525.302 240.665C566.962 249.857 597.425 268.567 600.118 314.189L600.261 316.795C592.197 314.081 583.735 311.37 577.164 305.821C571.539 301.071 567.385 295.376 560.755 292.074C552.468 280.526 553.303 269.396 538.375 262.316C524.612 255.789 509.477 254.607 495.079 259.286C494.335 257.194 494.328 256.835 492.859 255.268C495.557 250.592 504.833 244.028 504.367 240.484L503.105 239.761Z" fill="#F5ECF8"/>
<path d="M479.273 244.21C488.061 241.293 493.887 240.308 503.102 239.761L504.364 240.484C504.83 244.028 495.554 250.592 492.856 255.268C489.885 253.624 481.128 246.825 479.273 244.21Z" fill="#FBFAF7"/>
<path d="M411.051 363.312C411.223 359.943 410.697 350.872 410.593 346.961C410.025 328.175 412.169 310.386 420.89 293.38C433.827 268.152 452.944 253.111 479.273 244.21C481.128 246.825 489.885 253.624 492.856 255.268C494.325 256.835 494.332 257.194 495.076 259.286C441.192 277.573 425.779 328.086 417.805 378.501L411.554 378.297C411.595 374.01 411.673 367.408 411.051 363.312Z" fill="#FBF8CC"/>
<path d="M495.077 259.286C509.475 254.607 524.61 255.789 538.373 262.316C553.301 269.396 552.466 280.526 560.753 292.074C567.329 302.932 589.222 321.893 600.542 327.752L600.454 343.124C594.805 343.082 584.158 342.706 579.029 343.398L578.291 344.336L578.777 343.48L578.852 344.978C582.162 346.715 595.551 346.237 600.317 346.332C600.923 369.56 603.813 379.329 621.3 395.758C636.813 410.332 651.847 420.412 667.25 435.449L672.012 440.804C675.608 445.391 679.611 450.542 682.606 455.55C682.145 458.911 689.223 477.594 690.447 482.861C693.707 496.901 697.218 514.46 697.174 528.901C697.096 554.269 690.345 582.672 680.192 605.935C679.077 608.489 677.299 613.078 676.1 615.229C663.571 605.104 652.239 592.948 642.52 580.107C637.912 574.019 631.867 563.457 626.517 558.696C635.366 578.286 658.78 603.55 675.175 617.412C667.998 633.689 654.593 649.282 642.153 661.782C640.131 663.814 632.224 670.525 631.255 672.131C623.998 669.24 622.093 673.346 620.152 679.446C613.813 684.26 606.917 689.204 600.876 694.425C598.69 696.314 597.952 697.584 597.729 700.454C594.888 703.209 594.979 708.903 597.897 711.379C602.736 715.487 612.74 713.341 618.746 712.582C614.793 730.101 597.967 746.147 585.82 758.927C579.809 765.252 570.387 773.441 563.106 777.768C561.321 777.146 559.969 777.44 558.112 777.286C552.056 776.784 547.712 776.221 542.772 772.425C529.069 776.228 514.256 778.389 500.238 774.41C477.424 767.933 456.969 751.417 438.112 737.604C431.492 732.754 425.452 726.832 418.554 722.362L417.913 721.951C411.577 722.071 402.288 724.192 396.608 727.186L395.701 728.102C392.431 727.764 380.383 734.959 376.802 736.627C373.7 738.072 367.793 740.533 364.949 742.244C362.948 740.165 360.498 735.571 358.729 732.932C353.768 736.433 346.668 741.961 340.595 742.555C333.759 740.237 329.538 734.608 324.299 729.59C329.6 719.147 339.819 703.136 346.068 692.624C350.337 700.97 355 709.245 359.498 717.474C361.684 721.473 367.027 733.708 371.659 734.171C371.964 731.814 351.004 694.838 348.158 689.575C355.84 677.246 364.385 665.981 373.033 654.345C373.737 653.399 373.921 652.226 373.871 651.083C372.803 649.912 373.457 650.257 371.798 650.106C369.621 651.701 367.205 655.708 365.458 658.163C361.383 657.501 336.803 664.333 333.836 666.802C327.767 657.211 321.85 647.131 315.836 637.435C347.451 623.047 374.169 601.054 386.769 567.756C387.31 567.598 387.535 567.455 388.099 567.565C401.69 570.211 399.978 555.414 399.511 546.719C399.24 541.681 398.993 536.754 398.891 531.83C403.699 531.868 421.129 533.145 424.882 528.655C429.191 523.499 425.778 514.693 418.769 513.395C412.789 512.287 405.051 513.521 398.5 514.205C398.402 501.918 401.329 482.704 387.131 478.294C382.024 478.525 378.566 478.681 376.251 483.974C373.422 481.749 370.335 476.19 368.377 472.941C378.484 465.759 386.51 456.095 393.924 446.241C396.46 449.456 406.437 465.077 407.406 465.838C408.564 465.15 408.099 465.625 408.566 464.148C405.532 456.73 400.941 450.642 396.12 444.362C397.931 441.859 399.95 438.054 401.629 435.287C412.483 417.403 416.435 402.571 418.097 382.06C419.937 381.896 420.096 382.043 421.528 380.841L421.594 379.932C420.055 378.475 420.33 378.926 417.806 378.501C425.78 328.086 441.193 277.573 495.077 259.286ZM522.548 282.793C517.411 282.217 513.424 282.776 509.292 286.117C494.936 297.723 480.777 348.257 474.672 366.845C471.686 375.939 465.552 390.373 464.941 399.659C464.828 401.376 465.06 402.81 465.591 404.435C469.575 410.461 476.125 407.666 478.654 401.359C484.399 387.036 488.855 372.102 495.672 358.226C498.391 357.709 502.149 357.451 504.993 357.121C514.002 356.906 526.351 356.648 535.213 358.439C535.984 361.633 536.79 364.825 537.417 368.049C539.686 378.553 540.639 401.417 549.81 407.677C552.328 409.395 555.305 409.933 558.277 409.297C560.316 408.861 561.865 408.361 562.921 406.432C567.162 398.688 555.298 349.481 552.3 338.825C549.855 330.135 546.962 321.598 543.721 313.173C539.345 301.796 534.482 288.101 522.548 282.793ZM499.196 472.443C497.528 473.223 495.599 474.081 495.211 476.014C493.238 485.829 494 502.553 494.498 512.532C487.055 512.411 472.586 510.97 466.743 516.262C461.943 520.61 467.804 527.052 471.457 530.047C479.694 531.538 486.354 530.286 494.522 528.924C495.006 538.673 494.531 562.542 509.351 561.549C511.327 561.417 514.267 560.413 515.428 558.492C518.538 551.576 515.023 535.773 514.893 528.006C517.93 527.637 519.966 527.699 523.046 527.551C531.018 527.168 548.594 532.601 547.417 519.217C546.222 505.624 524.763 510.236 514.826 511.24C512.345 506.715 517.559 482.366 510.587 476.302C506.311 472.584 504.395 472.577 499.196 472.443ZM634.665 495.038C625.583 493.388 603.417 494.292 593.795 495.794C583.385 497.839 586.216 506.88 592.734 511.715C598.697 512.958 646.738 515.362 650.487 512.732C651.582 511.964 652.102 511.069 652.292 509.757C652.69 507.008 650.668 503.384 648.966 501.377C645.626 497.438 639.709 495.407 634.665 495.038ZM644.164 520.993C637.058 520.347 592.346 521.903 588.354 525.133C587.005 526.225 586.89 528.429 587.04 530.005C587.123 530.877 587.299 531.743 587.473 532.6C587.609 535.142 589.274 539.343 592.094 539.841C606.313 542.355 621.48 541.149 635.865 541.654C645.476 541.991 662.829 540.28 653.156 526.62C650.828 523.333 648.144 521.574 644.164 520.993ZM481.455 613.054C478.628 618.321 481.785 633.572 482.623 640.256C485.579 663.849 488.386 687.808 494.396 710.839C497.021 720.796 502.694 730.225 513.046 733.489C525.823 741.005 540.806 725.848 545.873 715.022C551.064 708.557 559.458 670.74 560.646 661.794C562.389 647.76 563.724 633.773 562.711 619.579C562.152 611.75 553.441 603.728 545.769 609.213C541.943 611.948 541.893 624.123 541.535 628.999C540.361 643.43 538.779 655.41 536.303 669.636C533.67 682.925 528.96 706.91 518.507 715.537C510.532 699.837 505.986 657.246 502.75 639.333C501.445 632.956 502.166 624.524 498.898 618.813C495.288 612.506 488.052 609.276 481.455 613.054ZM362.455 671.946C363.566 675.589 373.575 682.462 377.792 681.928C375.976 679.115 365.846 672.417 362.455 671.946ZM393.263 679.716C390.26 679.764 386.753 679.446 384.58 681.869C385.584 682.577 436.687 683.162 442.831 683.9C445.365 684.164 446.914 684.605 449.19 683.551L449.588 682.842C444.34 679.035 402.276 679.522 393.263 679.716ZM419.873 700.713C410.976 701.511 394.736 702.626 387.346 706.919C396.521 706.8 407.968 703.624 418.085 703.409C428.075 702.516 437.219 703.398 447.096 704.285C448.333 704.396 448.769 704.225 449.471 703.509C446.662 700.16 424.857 700.197 419.873 700.713Z" fill="url(#paint0_linear_41_7996)"/>
<path d="M465.592 404.435C465.061 402.81 464.829 401.376 464.942 399.659C465.553 390.373 471.687 375.939 474.673 366.845C480.778 348.257 494.937 297.723 509.293 286.117C513.425 282.776 517.412 282.217 522.549 282.793L521.455 284.073C516.349 283.665 513.872 284.324 509.734 287.69C501.636 294.278 488.672 326.658 486.27 336.418C483.003 345.064 479.72 355.07 477.035 363.946C473.813 374.596 465.996 392.635 466.368 403.26L465.592 404.435Z" fill="#0E161B"/>
<path d="M522.547 282.793C534.481 288.101 539.344 301.796 543.72 313.173C546.961 321.598 549.854 330.135 552.299 338.825C555.297 349.481 567.161 398.688 562.92 406.432C561.864 408.361 560.315 408.861 558.276 409.297C555.304 409.933 552.327 409.395 549.809 407.677C540.638 401.417 539.685 378.553 537.416 368.049L538.769 366.823C540.008 373.243 544.226 404.564 551.031 406.487C561.548 409.458 557.6 390.77 556.875 385.469C553.334 359.606 546.092 334.567 537.527 309.946C534.322 300.76 530.716 288.516 521.453 284.073L522.547 282.793Z" fill="url(#paint1_linear_41_7996)"/>
<path d="M486.267 336.418C488.669 326.658 501.633 294.278 509.731 287.69C513.869 284.324 516.346 283.665 521.452 284.073C530.715 288.516 534.321 300.76 537.526 309.946C546.091 334.567 553.333 359.606 556.874 385.469C557.599 390.77 561.547 409.458 551.03 406.487C544.225 404.564 540.007 373.243 538.768 366.823C537.923 363.105 537.088 360.066 535.996 356.407C527.007 354.833 513.16 355.31 503.937 355.47C501.121 355.603 498.454 355.713 495.644 356.028C494.36 355.606 493.105 355.202 491.813 354.805C490.83 356.778 490.647 357.323 489.225 358.945C488.755 357.649 489.417 355.682 489.747 354.222C488.572 352.227 487.626 352.201 485.279 351.187C481.82 346.103 487.173 340.745 486.267 336.418ZM506.207 345.073C512.576 344.743 519.748 344.116 525.998 345.094C528.831 345.533 531.294 346.294 534.047 347.064C531.855 338.797 523.504 305.286 517.132 302.332C515.931 301.775 514.981 301.933 513.824 302.483C508.567 304.981 496.271 339.833 493.619 347.213C497.628 346.75 502.19 345.806 506.207 345.073Z" fill="url(#paint2_linear_41_7996)"/>
<path d="M277.452 340.886C278.707 335.083 280.232 330.473 283.06 324.56C287.482 315.315 301.4 301.456 312.665 306.582C317.769 310.001 316.052 314.782 314.075 318.9C311.508 324.25 294.189 333.291 289.292 329.567C290.717 328.428 293.462 328.227 295.252 327.78C301.303 326.273 308.465 322.96 311.851 317.492C312.923 315.76 313.822 313.343 313.076 311.317C312.617 310.071 311.679 309.402 310.481 308.948C308.202 308.083 305.074 309.027 302.972 309.972C293.993 314.011 286.892 323.091 283.495 332.145C280.984 338.839 279.557 347.714 282.766 354.369C284.263 357.472 286.822 360.217 290.181 361.259C294.295 362.537 298.682 361.179 302.369 359.271C329.365 345.302 333.259 298.928 352.212 288.407C358.775 288.223 358.907 295.337 358.749 300.406C358.342 313.468 354.029 322.24 344.649 331.177C348.704 330.086 354.404 329.379 356.757 332.733C365.92 345.793 346.373 366.702 332.482 364.956C330.404 364.694 328.373 364.756 327.295 362.998C326.35 361.459 326.096 359.661 326.244 357.921C329.769 345.966 331.811 333.054 334.01 320.85C329.232 329.9 325.113 339.497 319 347.732C310.692 358.925 293.321 372.937 281.669 357.429C278.876 353.712 278.109 349.312 277.813 344.828C275.223 349.669 263.027 369.352 256.621 365.9C256.448 363.045 263.092 359.971 265.557 357.912C270.289 353.96 276.675 347.157 277.452 340.886ZM352.951 291.22C343.633 301.317 336.506 317.867 334.494 331.534C334.207 333.488 333.061 337.41 333.517 339.007C334.584 338.328 334.329 338.572 335.187 337.656C346.23 327.335 355.905 318.517 356.44 302.386C356.547 299.159 357.048 291.965 352.951 291.22ZM348.423 332.54C341.54 335.15 336.446 337.853 332.902 344.879C331.123 348.405 329.27 358.425 330.324 362.014C332.274 363.314 334.972 362.414 337.147 361.827C345.342 358.26 350.801 354.269 354.518 345.731C357.43 339.045 357.165 332.618 348.423 332.54Z" fill="#3B393E"/>
<path d="M335.182 337.656C334.324 338.572 334.579 338.328 333.512 339.007C333.056 337.41 334.202 333.488 334.489 331.534C336.501 317.867 343.628 301.317 352.946 291.22C357.043 291.965 356.542 299.159 356.435 302.386C355.9 318.517 346.225 327.335 335.182 337.656Z" fill="#FBF8CC"/>
<path d="M560.758 292.074C567.388 295.376 571.542 301.071 577.167 305.821C583.738 311.37 592.2 314.081 600.264 316.795C600.413 320.501 600.55 324.043 600.547 327.752C589.227 321.893 567.334 302.932 560.758 292.074Z" fill="#90DBF4"/>
<path d="M526.006 343.544L531.452 344.447C528.44 333.744 523.874 313.878 517.278 305.733C514.068 310.498 502.629 337.269 501.17 343.222L501.605 344.158C503.465 344.971 504.137 344.902 506.213 345.073C502.196 345.806 497.634 346.75 493.625 347.213C496.277 339.833 508.573 304.981 513.83 302.483C514.987 301.933 515.937 301.775 517.138 302.332C523.51 305.286 531.861 338.797 534.053 347.064C531.3 346.294 528.837 345.533 526.004 345.094L526.006 343.544Z" fill="url(#paint3_linear_41_7996)"/>
<path d="M526 343.544C520.556 342.896 506.793 342.587 501.599 344.158L501.164 343.222C502.623 337.269 514.062 310.498 517.272 305.733C523.868 313.878 528.434 333.744 531.446 344.447L526 343.544Z" fill="#98F5E1"/>
<path d="M603.121 318.38C613.526 321.77 628.784 323.773 639.754 326.037C647 327.532 655.701 329.326 662.929 330.201C652.923 342.898 644.274 367.103 646.113 383.071L646.185 383.659C646.816 384.153 618.763 346.077 618.721 345.998C622.062 346.223 626.263 346.818 629.198 345.076L628.908 344.374C624.698 342.379 620.461 343.027 615.839 343.259C612.265 342.425 606.389 332.582 603.062 329.779L603.121 318.38Z" fill="#F1C0E8"/>
<path d="M662.924 330.201C666.582 326.675 667.068 326.554 671.48 324.08C679.092 319.813 678.925 331.064 677.033 333.933L676.754 332.929L675.845 332.923C676.195 329.906 677.144 326.812 673.57 325.688C670.805 326.545 668.058 329.436 666.036 331.527C657.113 342.344 647.677 366.835 648.94 381.068C650.669 400.555 680.799 382.654 678.317 369.507C677.505 364.334 670.499 364.924 666.684 365.498C662.812 366.169 659.67 371.536 656.297 372.534L655.389 372.024C655.53 371.559 668.685 352.172 669.701 350.988L671.001 351.403C668.687 355.412 665.15 360.606 663.261 364.403C666.796 363.401 673.008 361.658 676.145 364.204C691.292 376.499 663.767 401.493 649.132 389.306L648.641 388.89C648.048 387.275 646.962 385.248 646.18 383.659L646.108 383.071C644.269 367.103 652.918 342.898 662.924 330.201Z" fill="#2C304A"/>
<path d="M666.039 331.527C668.061 329.436 670.808 326.544 673.573 325.688C677.147 326.811 676.198 329.906 675.848 332.923L675.299 335.881C670.48 334.998 669.776 334.906 666.039 331.527Z" fill="#90DBF4"/>
<path d="M603.062 329.779C606.389 332.582 612.265 342.425 615.839 343.259C611.737 343.42 607.212 343.271 603.075 343.219L603.062 329.779Z" fill="#8EECF5"/>
<path d="M669.703 350.988C668.687 352.172 655.532 371.559 655.391 372.024L656.299 372.534C659.672 371.536 662.814 366.169 666.686 365.498C670.501 364.924 677.507 364.334 678.319 369.507C680.801 382.654 650.671 400.555 648.942 381.068C647.679 366.835 657.115 342.344 666.038 331.527C669.775 334.906 670.479 334.998 675.298 335.881C673.823 342.341 672.684 345.033 669.703 350.988Z" fill="#F1C0E8"/>
<path d="M337.146 361.827C334.971 362.414 332.273 363.314 330.323 362.014C329.269 358.425 331.122 348.405 332.901 344.879C336.445 337.853 341.539 335.15 348.422 332.54C357.164 332.618 357.429 339.045 354.517 345.731C350.8 354.269 345.341 358.26 337.146 361.827Z" fill="#FBF8CC"/>
<path d="M675.847 332.923L676.756 332.929L677.035 333.933L676.988 336.17C675.35 342.277 673.94 345.788 671.003 351.403L669.703 350.988C672.684 345.033 673.823 342.341 675.298 335.881L675.847 332.923Z" fill="#0E161B"/>
<path d="M676.986 336.17C686.579 337.973 709.908 350.646 720.664 354.82C720.569 356.591 720.767 357.928 719.918 359.312C715.981 359.222 712.107 358.79 708.345 360.224L708.438 360.211C710.438 361.872 716.974 361.7 720.1 362.069C719.781 367.049 718.939 372.837 720.757 377.412L721.532 377.796C724.073 375.43 723.656 366.072 723.682 362.429C726.495 362.629 729.17 362.764 731.958 363.221C734.022 365.622 740.293 370.044 743.178 372.537C745.944 379.26 761.138 400.4 761.377 405.806C760.167 406.662 759.211 406.604 757.728 406.763C731.48 408.361 708.994 413.59 685.836 426.651C682.846 428.338 673.689 432.346 672.953 435.544C675.757 436.112 692.723 426.026 697.375 423.916C718.027 414.55 742.735 408.305 765.491 409.618C767.799 417.269 769.689 423.644 771.227 431.507C772.247 436.719 772.237 449.898 774.038 453.709C767.526 459.683 763.951 467.097 760.865 475.295C751.931 499.026 743.243 523.015 736.717 547.539C735.209 553.208 732.831 560.441 732.269 566.147C731.801 570.696 733.136 571.226 736.887 573.238C739.733 574.114 742.699 575.315 745.439 574.081C750.804 568.386 758.973 540.896 761.29 532.471C772.011 532.563 782.774 531.131 793.469 530.705C794.773 530.653 794.423 530.621 795.194 531.403C797.192 540.692 802.286 570.337 809.136 575.068C810.46 575.982 811.906 576.553 813.425 577.044C817.168 577.902 823.422 578.608 827.09 577.438C831.182 578.477 833.508 580.97 831.125 585.243C821.265 602.93 803.685 615.336 787.843 627.361C780.797 632.65 774.86 634.948 768.949 641.475L767.5 643.06C767.264 640.609 767.631 638.624 765.479 637.332L764.241 637.88C761.141 641.886 764.418 642.933 763.562 646.546C763.234 646.717 762.827 646.961 762.451 646.968C740.229 647.425 718.276 641.071 699.093 630.068C698.107 628.662 701.299 619.83 701.998 617.606C720.348 559.289 716.591 486.928 673.374 439.899C670.781 437.121 668.274 434.333 665.741 431.5C664.687 419.079 649.057 395.028 648.641 388.89L649.132 389.306C663.767 401.493 691.292 376.499 676.145 364.204C673.008 361.658 666.796 363.401 663.261 364.403C665.15 360.606 668.687 355.412 671.001 351.403C673.938 345.788 675.348 342.277 676.986 336.17Z" fill="#F1C0E8"/>
<path d="M486.266 336.418C487.172 340.745 481.819 346.103 485.278 351.187C487.625 352.201 488.571 352.227 489.746 354.222C489.416 355.682 488.754 357.649 489.224 358.945C490.646 357.323 490.829 356.778 491.812 354.805C493.104 355.202 494.359 355.606 495.643 356.028C492.957 356.635 491.979 356.51 490.43 359.234C483.271 371.823 479.501 386.477 473.402 399.531C472.663 401.115 470.682 403.911 468.86 404.104C467.903 404.205 467.299 403.852 466.364 403.26C465.992 392.635 473.809 374.596 477.031 363.946C479.716 355.07 482.999 345.064 486.266 336.418Z" fill="#98F5E1"/>
<path d="M501.602 344.158C506.796 342.587 520.559 342.896 526.003 343.544L526.001 345.094C519.751 344.116 512.579 344.743 506.21 345.073C504.134 344.902 503.462 344.971 501.602 344.158Z" fill="#072528"/>
<path d="M600.32 346.332C601.6 345.196 600.917 345.357 602.293 345.345C603.207 346.709 602.768 348.036 603.141 349.692L603.202 350.108C603.949 355.493 603.701 362.434 605.201 367.606C610.872 387.157 632.219 402.863 647.493 415.326C650.708 417.949 660.657 425.727 662.629 428.614L662.39 429.679C663.983 431.347 666.562 433.494 667.253 435.449C651.85 420.412 636.816 410.332 621.303 395.758C603.816 379.329 600.926 369.56 600.32 346.332Z" fill="#2C304A"/>
<path d="M603.141 349.692C603.28 348.343 603.21 348.129 603.754 346.913C606.561 345.232 615.018 345.969 618.722 345.998C618.764 346.077 646.816 384.153 646.185 383.659C646.967 385.248 648.053 387.275 648.646 388.89C649.062 395.028 664.692 419.079 665.746 431.5L662.629 428.614C660.657 425.727 650.708 417.949 647.493 415.326C632.219 402.863 610.872 387.157 605.201 367.606C603.701 362.434 603.949 355.493 603.202 350.108L603.141 349.692Z" fill="#8EECF5"/>
<path d="M788.156 391.359C791.68 384.605 797.374 378.569 800.787 371.396C803.329 366.052 808.176 351.779 801.037 348.434C796.432 348.867 795.335 353.805 793.006 356.348L792.45 355.645C792.38 350.563 794.379 348.454 799.149 347.092C802.774 347.246 806.327 349.259 806.865 353.12C808.769 366.776 799.131 379.076 791.74 389.489C799.052 390.864 819.712 391.639 825.15 393.943L825.328 394.623C823.104 395.884 815.451 394.686 812.381 394.396C804.656 393.229 795.639 393.013 788.156 391.359Z" fill="#0E161B"/>
<path d="M720.671 354.82C721.282 353.246 721.005 353.197 722.162 352.338C723.981 353.692 723.645 357.126 723.634 359.294C726.384 359.619 729.193 359.698 731.599 360.934L732.245 361.892L731.965 363.221C729.177 362.764 726.502 362.629 723.689 362.429C723.663 366.072 724.08 375.43 721.539 377.796L720.764 377.412C718.946 372.837 719.788 367.049 720.107 362.069C716.981 361.7 710.445 361.872 708.445 360.211L708.352 360.224C712.114 358.79 715.988 359.222 719.925 359.312C720.774 357.928 720.576 356.591 720.671 354.82Z" fill="#2C304A"/>
<path d="M495.649 356.028C498.459 355.713 501.126 355.603 503.942 355.47L504.996 357.121C502.152 357.451 498.394 357.709 495.675 358.226C488.858 372.102 484.402 387.036 478.657 401.359C476.128 407.666 469.578 410.461 465.594 404.435L466.37 403.26C467.305 403.852 467.909 404.205 468.866 404.104C470.688 403.911 472.669 401.115 473.408 399.531C479.507 386.477 483.277 371.823 490.436 359.234C491.985 356.51 492.963 356.635 495.649 356.028Z" fill="url(#paint4_linear_41_7996)"/>
<path d="M503.938 355.47C513.16 355.31 527.008 354.833 535.997 356.407C537.089 360.066 537.923 363.105 538.768 366.823L537.416 368.049C536.789 364.825 535.982 361.633 535.211 358.439C526.349 356.648 514 356.906 504.991 357.121L503.938 355.47Z" fill="#0E161B"/>
<path d="M411.056 363.312C411.678 367.409 411.6 374.01 411.559 378.297L417.81 378.501C420.334 378.926 420.059 378.475 421.598 379.932L421.531 380.841C420.099 382.043 419.94 381.896 418.1 382.06L411.608 381.482C410.296 399.483 403.728 415.027 392.469 428.977C390.878 430.949 389.043 433.211 387.574 435.248C390.409 438.286 393.245 441.369 396.124 444.362C400.945 450.642 405.535 456.73 408.569 464.148C408.102 465.625 408.568 465.151 407.41 465.839C406.441 465.078 396.463 449.456 393.927 446.241L385.985 437.723C380.333 444.018 367.367 457.74 360.906 463.072C344.306 477.884 329.213 491.106 311.003 504.086C304.192 508.941 297.786 514.387 290.606 518.904L289.928 516.88C313.195 500.905 338.99 480.687 359.296 461.235C365.719 455.764 379.249 442.051 384.229 435.544C379.426 430.697 373.598 425.643 367.786 422.072C325.331 395.991 275.864 395.698 228.981 405.801C229.519 409.018 229.928 412.176 227.2 414.434C222.121 418.639 218.001 414.913 214.945 411.324C210.645 413.147 203.706 416.024 199.86 418.51C157.803 443.828 141.001 480.313 142.994 528.867C143.121 531.958 143.233 537.104 143.928 539.941C145.269 556.033 152.253 576.116 160.779 589.823C187.588 632.922 238.95 647.935 287.092 641.983C296.446 640.676 302.409 639.119 311.454 636.708L312.42 638.115C304.951 640.748 295.709 642.705 287.798 643.924C255.906 650.994 215.179 641.852 188.59 623.229C161.816 604.478 146.95 577.046 141.28 545.312C138.639 526.958 139.599 504.168 144.01 486.266C151.917 454.17 170.053 432.792 197.935 415.972C202.8 413.041 208.893 410.475 214.224 408.564C214.927 405.211 215.431 401.834 218.172 399.487C222.093 396.128 226.032 399.438 228.213 402.892C244.774 400.3 260.679 396.637 277.601 396.455C317.328 396.028 356.353 405.284 385.697 433.38C400.186 417.119 406.062 402.631 409.103 381.382C403.57 380.753 393.54 381.751 388.479 379.921C387.953 379.73 388.14 378.916 388.12 378.093C389.889 376.99 405.766 377.913 409.225 378.026L409.122 369.546L409.656 369.666C410.18 370.765 410.097 375.045 410.421 376.967L410.691 376.833C410.988 372.309 410.572 368.14 410.991 363.918L411.056 363.312ZM219.675 401.078C218.366 402.442 218.088 402.602 217.459 404.44L217.583 405.546C219.927 407.074 220.841 406.198 223.368 405.193C225.434 404.29 225.442 404.695 226.353 403.137C224.897 400.765 222.153 400.92 219.675 401.078ZM226.007 406.5C223.707 407.306 220.646 408.11 218.889 409.63C217.907 411.982 218.655 412.077 220.571 413.717C224.832 414.324 228.268 410.901 226.655 406.818L226.007 406.5Z" fill="#3B393E"/>
<path d="M743.18 372.537C758.06 381.928 770.792 390.731 783.704 402.723C785.715 404.591 792.171 408.413 793.29 410.29C779.192 407.729 771.972 406.935 757.73 406.763C759.213 406.604 760.169 406.662 761.379 405.806C761.14 400.4 745.946 379.26 743.18 372.537Z" fill="#FFCFD2"/>
<path d="M411.605 381.482L418.097 382.06C416.435 402.571 412.483 417.403 401.629 435.287C399.95 438.054 397.931 441.859 396.12 444.362C393.241 441.369 390.405 438.286 387.57 435.248C389.039 433.211 390.875 430.949 392.466 428.977C403.725 415.027 410.293 399.483 411.605 381.482Z" fill="#FBF8CC"/>
<path d="M199.859 418.51C203.705 416.024 210.644 413.147 214.944 411.324C218 414.913 222.119 418.639 227.198 414.434C229.926 412.176 229.518 409.018 228.98 405.801C275.863 395.698 325.33 395.991 367.785 422.072C373.597 425.643 379.425 430.697 384.228 435.544C379.248 442.051 365.718 455.764 359.295 461.235C354.936 457.364 351.013 453.112 346.291 449.404C329.627 436.32 309.236 426.859 287.61 426.429C267.648 426.031 240.742 431.312 221.955 438.349C215.329 440.832 205.72 448.313 200.657 453.096C200.262 448.385 200.649 419.881 199.859 418.51Z" fill="#FBF8CC"/>
<path d="M223.361 405.193C220.834 406.198 219.921 407.074 217.577 405.546L217.453 404.441C218.082 402.603 218.36 402.443 219.669 401.079C222.147 400.921 224.891 400.765 226.347 403.137C225.436 404.695 225.427 404.29 223.361 405.193Z" fill="#FBF8CC"/>
<path d="M220.567 413.717C218.651 412.077 217.903 411.982 218.885 409.63C220.642 408.11 223.703 407.306 226.003 406.5L226.651 406.818C228.264 410.901 224.828 414.324 220.567 413.717Z" fill="#FBF8CC"/>
<path d="M765.491 409.618C742.735 408.305 718.027 414.55 697.375 423.916C692.723 426.026 675.757 436.112 672.953 435.544C673.689 432.346 682.846 428.338 685.836 426.651C708.994 413.59 731.48 408.361 757.728 406.763C771.97 406.935 779.19 407.729 793.288 410.29C802.414 412.883 810.852 415.292 819.615 419.022C839.347 427.42 856.928 440.449 870.972 456.621C877.686 464.354 882.658 474.257 887.072 483.467C901.016 518.147 893.442 560.748 873.963 591.994C870.232 597.979 866.13 603.551 861.745 609.069C844.581 627.213 827.415 641.026 802.438 646.606C791.199 649.117 779.912 649.604 768.451 649.869C767.825 649.884 767.858 654.493 767.852 655.169C767.428 653.669 766.284 646.722 766.977 645.695L767.796 646.582C772.192 648.184 787.686 646.095 792.729 645.437C819.837 641.9 848.108 623.698 864.136 601.455C887.172 571.504 897.971 526.917 886.446 490.33C872.598 451.628 840.085 427.62 801.928 415.645C790.339 412.084 777.496 410.712 765.491 409.618Z" fill="#363344"/>
<path d="M765.492 409.618C777.497 410.712 790.34 412.084 801.929 415.645L801.709 416.937C803.464 419.364 808.271 423.612 810.802 425.807C837.373 448.858 854.965 481.445 861.588 515.834C862.809 522.175 862.684 529.872 863.954 535.518C862.954 541.683 862.821 599.857 864.137 601.455C848.109 623.698 819.838 641.9 792.73 645.437C787.687 646.095 772.193 648.184 767.797 646.582L767.501 643.06L768.95 641.475C774.861 634.948 780.798 632.65 787.844 627.361C803.686 615.336 821.266 602.93 831.126 585.243C833.509 580.97 831.183 578.477 827.091 577.438C825.776 556.676 812.782 484.705 803.723 467.865C801.274 462.906 797.857 457.406 793.089 454.466C786.407 450.783 780.862 450.22 774.039 453.709C772.238 449.898 772.248 436.719 771.228 431.507C769.69 423.644 767.8 417.269 765.492 409.618ZM836.838 516.209C833.846 516.479 824.761 517.183 822.594 519.127L823.222 519.634L823.142 519.03C824.677 520.339 826.629 519.686 828.617 519.4C831.257 519.138 839.952 518.708 841.617 517.103C840.736 515.692 838.333 516.029 836.838 516.209Z" fill="#FFCFD2"/>
<path d="M863.956 535.518C862.686 529.872 862.811 522.175 861.59 515.834C854.967 481.445 837.375 448.858 810.804 425.807C808.273 423.612 803.466 419.364 801.711 416.937L801.931 415.645C840.088 427.62 872.601 451.628 886.449 490.33C884.721 492.019 884.177 494.208 883.227 496.411C878.509 507.365 872.755 517.897 867.293 528.496C866.13 530.752 865.128 533.398 863.956 535.518Z" fill="#DFF0E7"/>
<path d="M143.927 539.941C143.232 537.104 143.12 531.957 142.993 528.866C141 480.312 157.802 443.828 199.859 418.51C200.649 419.881 200.262 448.385 200.657 453.096C197.059 457.411 192.638 461.639 189.338 465.963C175.635 483.913 170.854 494.591 166.858 516.248C163.242 518.444 147.064 536.069 144.496 539.786L143.927 539.941Z" fill="#FBFAF7"/>
<path d="M869.874 432.027C869.856 430.294 869.51 427.703 870.347 426.419C871.797 427.709 871.686 428.8 872.143 430.922C872.557 432.083 872.18 431.714 873.108 432.176C874.56 432.531 875.841 432.601 876.699 433.714C875.345 434.809 874.055 434.53 872.108 434.533C871.915 436.101 871.882 437.971 870.63 438.919C869.721 437.484 869.952 436.344 869.979 434.612C867.925 433.555 864.569 434.745 862.898 432.635C865.596 431.841 867.083 432.012 869.874 432.027Z" fill="#0E161B"/>
<path d="M200.655 453.096C205.718 448.313 215.327 440.832 221.953 438.349C240.74 431.312 267.646 426.031 287.608 426.429C309.234 426.859 329.625 436.32 346.289 449.404C351.011 453.112 354.934 457.364 359.293 461.235C338.987 480.687 313.192 500.904 289.925 516.879C288.767 514.5 286.364 506.218 285.435 503.363C281.326 490.742 272.848 462.766 261.538 455.552C259.468 454.363 257.738 454.09 255.426 453.514C250.212 454.026 246.821 456.56 243.511 460.517C238.797 466.152 235.388 474.155 232.609 480.905C227.781 492.633 203.952 563.295 205.073 572.681C205.144 573.277 205.28 573.854 205.483 574.418C205.853 575.219 206.288 576.223 207.251 576.442C219.978 579.338 223.553 559.371 226.408 551.038C228.625 544.568 230.053 539.308 232.237 533.428C238.017 532.27 244.515 531.346 250.447 530.213C256.748 529.01 266.294 527.015 272.472 526.591C274.365 536.961 278.464 569.966 286.261 575.889C286.446 576.03 286.645 576.15 286.838 576.28C288.498 576.901 292.647 577.319 294.149 576.769C307.545 571.871 296.008 545.931 294.324 536.289C293.192 529.808 291.897 524.224 290.603 518.904C297.783 514.387 304.189 508.941 311 504.086C329.21 491.106 344.303 477.884 360.903 463.072C363.376 466.362 365.846 469.7 368.377 472.941C370.335 476.19 373.422 481.749 376.251 483.974C375.983 487.335 376.559 491.472 376.975 494.891C374.358 497.12 367.799 511.319 367.73 514.898C357.819 515.174 339.206 513.032 345.925 529.136C350.393 534.183 353.738 533.834 360.121 533.713C360.009 536.676 358.164 538.438 356.766 540.85C343.301 564.094 328.643 586.244 306.292 601.987C303.785 603.752 301.246 605.464 298.661 607.158C297.535 607.651 297.059 607.762 296.076 608.501L284.506 612.817C275.113 616.622 257.947 616.675 247.778 615.917C230.387 614.621 218.25 607.738 203.718 598.486C173.899 579.501 163.87 550.774 166.856 516.248C170.852 494.591 175.633 483.913 189.336 465.963C192.636 461.639 197.057 457.411 200.655 453.096ZM302.438 526.6C310.565 524.216 302.885 511.774 297.326 519.065C296.905 520.658 297.354 521.238 298.002 522.773L297.835 524.434C295.114 529.368 301.139 532.581 296.494 538.546L296.608 539.246C302.121 541.266 307.069 535.795 302.513 530.674C301.297 529.307 301.929 528.29 302.438 526.6Z" fill="#90DBF4"/>
<path d="M872.141 430.922C873.792 429.418 874.041 428.675 875.888 428.273C875.844 430.003 874.355 431.099 873.106 432.176C872.178 431.714 872.555 432.083 872.141 430.922Z" fill="#072528"/>
<path d="M667.254 435.449C666.563 433.494 663.984 431.347 662.391 429.679L662.63 428.614L665.747 431.5C668.28 434.333 670.787 437.121 673.38 439.899L672.016 440.804L667.254 435.449Z" fill="#110F1B"/>
<path d="M385.985 437.723L393.927 446.241C386.513 456.095 378.487 465.759 368.38 472.941C365.849 469.7 363.379 466.362 360.906 463.072C367.367 457.74 380.333 444.018 385.985 437.723Z" fill="#FBF8CC"/>
<path d="M673.375 439.899C716.592 486.928 720.349 559.289 701.999 617.606C701.3 619.83 698.108 628.662 699.094 630.068L697.697 631.833L696.843 632.954L695.955 631.822C694.939 632.626 694.624 633.143 693.826 634.161C695.529 629.643 694.799 630.289 690.832 628.073C685.187 624.92 680.241 621.373 675.174 617.412C658.779 603.55 635.365 578.286 626.516 558.696C631.866 563.457 637.911 574.019 642.519 580.107C652.238 592.948 663.57 605.104 676.099 615.229C683.658 620.768 687.542 623.78 695.955 628.047C698.44 620.125 701.019 612.144 703.045 604.089C713.502 562.507 712.675 517.618 695.054 478.043C691.763 470.651 687.449 461.917 682.605 455.55C679.61 450.542 675.607 445.391 672.011 440.804L673.375 439.899Z" fill="#2C304A"/>
<path d="M774.042 453.709C780.865 450.22 786.41 450.783 793.092 454.466L791.877 455.589C779.863 448.875 771.332 455.098 766.492 466.353C755.308 492.359 745.683 519.84 738.215 547.168C736.537 553.308 733.919 561.016 733.343 567.16L732.273 566.147C732.835 560.441 735.213 553.208 736.721 547.539C743.247 523.015 751.935 499.026 760.869 475.295C763.955 467.097 767.53 459.683 774.042 453.709Z" fill="#110F1B"/>
<path d="M733.344 567.16C733.92 561.016 736.538 553.308 738.216 547.168C745.684 519.84 755.309 492.359 766.493 466.353C771.333 455.098 779.864 448.875 791.878 455.589C796.143 459.198 798.371 462.642 800.786 467.725C804.215 475.683 809.419 496.547 810.598 504.921C812.014 514.983 824.21 568.82 821.989 574.631C820.302 575.509 819.06 575.459 817.169 575.629C814.666 575.604 812.086 575.355 809.946 573.929C803.829 569.853 798.039 539.026 796.311 530.699C796.052 528.294 796.432 528.572 795.221 526.84C791.385 526.61 785.936 527.199 781.904 527.44C773.667 527.933 765.524 528.567 757.26 528.818C755.255 534.572 744.542 569.341 741.205 570.915C740.206 571.386 739.402 571.333 738.319 571.356C735.352 570.224 734.752 569.985 733.344 567.16ZM783.935 475.055C778.549 456.767 768.622 484.294 767.09 489.714C764.688 498.215 762.353 506.733 761.154 515.51C762.779 515.489 764.378 515.617 765.878 515.138C774.729 514.854 783.429 515.057 792.429 514.657C789.313 501.639 787.21 488.241 783.935 475.055Z" fill="#F5ECF8"/>
<path d="M205.487 574.418C205.284 573.854 205.148 573.277 205.077 572.681C203.956 563.295 227.785 492.633 232.613 480.905C235.392 474.155 238.801 466.152 243.515 460.517C246.825 456.56 250.216 454.026 255.43 453.514L253.766 454.744C244.697 457.983 240.621 466.559 236.78 474.537C229.693 489.253 205.664 561.654 206.246 574.248L205.487 574.418Z" fill="#110F1B"/>
<path d="M255.43 453.514C257.742 454.09 259.472 454.363 261.542 455.552C261.252 458.641 263.012 457.838 262.213 459.007C259.051 455.63 258.429 455.427 253.766 454.744L255.43 453.514Z" fill="#522971"/>
<path d="M793.09 454.466C797.858 457.406 801.275 462.906 803.724 467.865L800.783 467.725C798.368 462.642 796.14 459.198 791.875 455.589L793.09 454.466Z" fill="#522971"/>
<path d="M206.245 574.248C205.663 561.654 229.692 489.253 236.779 474.537C240.62 466.559 244.696 457.983 253.765 454.744C258.428 455.427 259.05 455.63 262.212 459.007C265.929 464.852 269.227 470.694 271.897 477.11C278.439 492.828 298.28 554.835 295.1 569.325C294.706 571.12 293.954 572.407 292.323 573.342C290.83 574.197 288.962 574.532 287.284 574.823C280.632 570.131 275.056 534.852 273.101 525.72C272.545 523.797 272.946 524.051 271.656 523.089C265.223 523.236 233.123 528.529 227.123 530.415C224.055 539.101 217.194 570.202 209.959 573.831C208.726 574.45 207.584 574.454 206.245 574.248ZM256.646 472.73C244.999 467.745 238.428 492.825 235.448 500.554C233.686 505.124 230.743 514.51 230.796 519.06L231.3 519.946C231.714 519.961 232.568 520.019 232.944 519.976C244.889 518.503 259.516 516.733 271.344 516.503C268.54 503.989 266.009 492.866 262.208 480.629C260.696 476.871 260.149 474.746 256.646 472.73Z" fill="#FBFAF7"/>
<path d="M262.211 459.007C263.01 457.838 261.25 458.641 261.54 455.552C272.85 462.766 281.328 490.742 285.437 503.363C286.366 506.218 288.769 514.5 289.927 516.879L290.605 518.904C291.899 524.224 293.194 529.808 294.326 536.289C296.01 545.931 307.547 571.871 294.151 576.769C292.649 577.319 288.5 576.901 286.84 576.28C286.966 576.043 287.198 575.123 287.283 574.823C288.961 574.532 290.829 574.197 292.322 573.342C293.953 572.407 294.705 571.12 295.099 569.325C298.279 554.835 278.438 492.828 271.896 477.11C269.226 470.694 265.928 464.852 262.211 459.007Z" fill="#7B2FD7"/>
<path d="M676.102 615.229C677.301 613.078 679.079 608.489 680.194 605.935C690.347 582.672 697.098 554.269 697.176 528.901C697.22 514.46 693.709 496.901 690.449 482.861C689.225 477.594 682.147 458.911 682.608 455.55C687.452 461.917 691.766 470.651 695.057 478.043C712.678 517.618 713.505 562.507 703.048 604.089C701.022 612.144 698.443 620.125 695.958 628.047C687.545 623.78 683.661 620.768 676.102 615.229Z" fill="#F1C0E8"/>
<path d="M800.781 467.725L803.722 467.865C812.781 484.705 825.775 556.676 827.09 577.438C823.422 578.608 817.168 577.902 813.425 577.044C814.98 575.952 815.344 575.979 817.164 575.629C819.055 575.459 820.297 575.509 821.984 574.631C824.205 568.82 812.009 514.983 810.593 504.921C809.414 496.547 804.21 475.683 800.781 467.725Z" fill="#7B2FD7"/>
<path d="M783.929 475.055L782.454 476.486L781.54 475.015C775.671 475.996 767.369 507.337 766.242 513.542L765.872 515.138C764.372 515.617 762.773 515.489 761.148 515.51C762.347 506.733 764.682 498.215 767.084 489.714C768.616 484.294 778.543 456.767 783.929 475.055Z" fill="#7B2FD7"/>
<path d="M256.648 472.73C256.288 474.041 256.217 473.411 256.628 474.652C253.642 475.165 251.422 476.129 249.843 478.863C243.622 489.632 239.944 505.429 235.75 517.314C236.313 518.2 235.934 517.908 236.838 518.251C235.231 518.822 234.407 519.039 232.946 519.976C232.57 520.019 231.716 519.961 231.302 519.946L230.798 519.06C230.745 514.51 233.688 505.124 235.45 500.554C238.43 492.825 245.001 467.745 256.648 472.73Z" fill="#7B2FD7"/>
<path d="M494.502 512.532C494.004 502.553 493.242 485.829 495.215 476.014C495.603 474.081 497.532 473.223 499.2 472.443C504.399 472.577 506.315 472.584 510.591 476.302C517.563 482.366 512.349 506.715 514.83 511.24C524.767 510.236 546.226 505.624 547.421 519.217C548.598 532.601 531.022 527.168 523.05 527.551C519.97 527.699 517.934 527.637 514.897 528.006C515.027 535.773 518.542 551.576 515.432 558.492C514.271 560.413 511.331 561.417 509.355 561.549C494.535 562.542 495.01 538.673 494.526 528.924C486.358 530.286 479.698 531.538 471.461 530.047C467.808 527.052 461.947 520.61 466.747 516.262C472.59 510.97 487.059 512.411 494.502 512.532ZM501.423 473.711C499.484 474.201 498.113 474.297 496.759 475.716C494.748 480.9 495.879 506.975 496.094 514.521C491.623 514.445 471.478 513.15 469.109 516.876C459.001 532.778 490.014 525.286 496.469 524.292C496.808 530.753 497.011 553.35 502.188 556.694C516.19 565.737 510.27 530.029 509.263 524.38C514.508 524.144 538.251 525.385 540.444 521.704C549.135 507.115 521.987 512.366 514.879 512.7C514.162 512.949 510.052 513.272 509.032 513.37C507.557 502.308 510.834 486.432 507.173 476.222C506.6 474.624 503.25 474.116 501.423 473.711Z" fill="#2C304A"/>
<path d="M256.624 474.652C256.213 473.411 256.284 474.041 256.644 472.73C260.147 474.746 260.694 476.871 262.206 480.629L261.367 482.243C260.068 478.795 259.452 476.999 256.624 474.652Z" fill="#522971"/>
<path d="M496.095 514.521C495.88 506.975 494.749 480.9 496.76 475.716C498.114 474.297 499.485 474.201 501.424 473.711C503.251 474.116 506.601 474.624 507.174 476.222C510.835 486.432 507.558 502.308 509.033 513.37C510.053 513.272 514.163 512.949 514.88 512.7C521.988 512.366 549.136 507.115 540.445 521.704C538.252 525.385 514.509 524.144 509.264 524.38C510.271 530.029 516.191 565.737 502.189 556.694C497.012 553.35 496.809 530.753 496.47 524.292C490.015 525.286 459.002 532.778 469.11 516.876C471.479 513.15 491.624 514.445 496.095 514.521Z" fill="#98F5E1"/>
<path d="M766.242 513.542C767.369 507.337 775.671 475.996 781.54 475.015L782.454 476.486C785.03 486.571 788.721 502.62 790.376 512.871C782.528 512.993 773.846 513.589 766.242 513.542Z" fill="#F1C0E8"/>
<path d="M236.83 518.251C235.926 517.908 236.305 518.2 235.742 517.314C239.936 505.429 243.614 489.632 249.835 478.863C251.414 476.129 253.634 475.165 256.62 474.652C259.448 476.999 260.064 478.795 261.363 482.243C264.817 492.639 267.528 504.467 269.703 515.232C258.17 515.757 248.246 517.134 236.83 518.251Z" fill="#90DBF4"/>
<path d="M782.457 476.486L783.932 475.055C787.207 488.241 789.31 501.639 792.426 514.657C783.426 515.057 774.726 514.854 765.875 515.138L766.245 513.542C773.849 513.589 782.531 512.993 790.379 512.871C788.724 502.62 785.033 486.571 782.457 476.486Z" fill="#221236"/>
<path d="M376.255 483.974C378.57 478.681 382.028 478.525 387.135 478.294L386.762 479.858C380.168 478.901 377.052 482.103 377.622 488.708C378.43 498.048 380.517 507.068 381.033 516.495C371.283 516.476 340.943 512.026 346.9 528.007L345.929 529.136C339.21 513.032 357.823 515.174 367.734 514.898L379.567 514.518C379.581 508.661 378.017 500.778 376.979 494.891C376.563 491.472 375.987 487.335 376.255 483.974Z" fill="#0E161B"/>
<path d="M387.134 478.294C401.332 482.704 398.405 501.918 398.503 514.205C405.054 513.521 412.792 512.287 418.772 513.395C425.781 514.693 429.194 523.499 424.885 528.655C421.132 533.145 403.702 531.868 398.894 531.83C398.996 536.754 399.243 541.681 399.514 546.719C399.981 555.414 401.693 570.211 388.102 567.565C387.538 567.455 387.313 567.598 386.772 567.756L385.714 567.307C381.01 563.355 379.897 560.385 379.461 554.276C379.971 553.027 380.455 552.198 381.09 551.019C381.812 555.247 382.66 569.854 391.033 563.646C396.084 559.902 393.395 534.296 393.122 528.895C397.819 528.507 416.431 529.181 418.856 525.653C429.426 510.272 399.857 516.702 393.335 517.132C393.172 508.538 393.214 499.108 392.391 490.602C391.914 485.671 390.58 482.756 386.761 479.858L387.134 478.294Z" fill="#293E4D"/>
<path d="M381.026 516.495C380.51 507.068 378.423 498.048 377.615 488.708C377.045 482.103 380.161 478.901 386.755 479.858C390.574 482.756 391.908 485.671 392.385 490.602C393.208 499.108 393.166 508.538 393.329 517.132C399.851 516.702 429.42 510.272 418.85 525.653C416.425 529.181 397.813 528.507 393.116 528.895C393.389 534.296 396.078 559.902 391.027 563.646C382.654 569.854 381.806 555.247 381.084 551.019L380.859 544.378L381.022 528.295C370.637 528.363 360.256 530.141 349.954 529.691C349.203 529.658 347.559 528.49 346.893 528.007C340.936 512.026 371.276 516.476 381.026 516.495Z" fill="#98F5E1"/>
<path d="M261.37 482.243L262.209 480.629C266.01 492.866 268.541 503.989 271.345 516.503C259.517 516.733 244.89 518.503 232.945 519.976C234.406 519.039 235.23 518.822 236.837 518.251C248.253 517.134 258.177 515.757 269.71 515.232C267.535 504.467 264.824 492.639 261.37 482.243Z" fill="#110F1B"/>
<path d="M919.794 521.826C916.148 533.615 906.466 533.117 900.137 523.865C892.538 512.754 900.195 496.5 910.386 489.852C911.355 489.956 912.545 490.316 913.272 491.008C917.449 494.982 912.113 520.648 911.954 526.924L911.939 527.697C918.644 521.528 916.058 518.938 916.336 510.97L916.899 510.557C921.17 513.176 920.827 517.462 919.794 521.826ZM909.771 492.352C902.645 501.062 895.992 514.924 904.171 525.082C906.184 526.432 905.791 526.636 907.786 526.634C909.059 525.578 909.431 524.894 909.386 522.874C909.278 517.988 912.338 495.378 909.771 492.352Z" fill="#9761FD"/>
<path d="M863.957 535.518C865.129 533.398 866.131 530.752 867.294 528.496C872.756 517.897 878.51 507.365 883.228 496.411C884.178 494.208 884.722 492.019 886.45 490.33C897.975 526.917 887.176 571.504 864.14 601.455C862.824 599.857 862.957 541.683 863.957 535.518Z" fill="#FBFAF7"/>
<path d="M904.166 525.082C895.987 514.924 902.64 501.062 909.766 492.352C912.333 495.378 909.273 517.988 909.381 522.874C909.426 524.894 909.054 525.578 907.781 526.634C905.786 526.636 906.179 526.432 904.166 525.082Z" fill="#FBFAF7"/>
<path d="M117.316 545.4C109.26 545.172 106.454 536.286 105.664 529.7C104.228 518.527 108.633 507.543 118.414 501.468C123.091 498.563 126.311 497.798 129.71 493.311C131.045 493.346 130.982 493.327 132.231 493.79C132.747 496.059 130.878 508.812 130.572 512.474C129.61 524.01 130.724 535.928 130.249 547.112C127.429 543.43 126.795 541.443 125.133 537.161L124.932 537.717C123.061 542.77 121.987 543.266 117.316 545.4ZM125.222 501.437C117.852 506.323 115.889 507.473 113.977 516.564C112.767 522.315 111.566 540.192 119.242 541.722C122.647 539.975 122.905 539.317 124.4 535.73L124.169 535.185C122.859 536.449 122.876 536.318 122.54 538.091C122.042 536.798 123.9 530.535 123.612 529.49C122.181 524.293 125.943 504.255 125.222 501.437Z" fill="#9761FD"/>
<path d="M593.797 495.794C603.419 494.292 625.585 493.388 634.667 495.038L632.528 496.2C620.894 495.232 606.852 495.69 595.215 497.188L593.797 495.794Z" fill="#110F1B"/>
<path d="M367.734 514.898C367.803 511.319 374.362 497.12 376.979 494.891C378.017 500.778 379.581 508.661 379.567 514.518L367.734 514.898Z" fill="#98F5E1"/>
<path d="M634.664 495.038C639.708 495.407 645.625 497.438 648.965 501.377C650.667 503.384 652.689 507.008 652.291 509.757C652.101 511.069 651.581 511.964 650.486 512.732C646.737 515.362 598.696 512.958 592.733 511.715C586.215 506.88 583.384 497.839 593.794 495.794L595.212 497.188C583.372 499.88 590.587 508.749 592.385 508.921C604.028 510.031 627.024 509.701 639.41 509.519C646.931 509.408 648.769 505.845 645.17 501.185C642.552 497.795 636.869 496.74 632.525 496.2L634.664 495.038Z" fill="url(#paint5_linear_41_7996)"/>
<path d="M595.212 497.188C606.849 495.69 620.891 495.232 632.525 496.2C636.869 496.74 642.552 497.795 645.17 501.185C648.769 505.845 646.931 509.408 639.41 509.519C627.024 509.701 604.028 510.031 592.385 508.921C590.587 508.749 583.372 499.88 595.212 497.188Z" fill="#8EECF5"/>
<path d="M119.241 541.722C111.565 540.192 112.766 522.316 113.976 516.565C115.888 507.474 117.851 506.324 125.221 501.438C125.942 504.256 122.18 524.293 123.611 529.49C123.899 530.535 122.041 536.798 122.539 538.091C122.875 536.318 122.858 536.449 124.168 535.185L124.399 535.73C122.904 539.317 122.646 539.975 119.241 541.722Z" fill="#FBFAF7"/>
<path d="M828.617 519.4C826.629 519.686 824.677 520.339 823.142 519.03L823.222 519.633L822.594 519.127C824.761 517.183 833.846 516.478 836.838 516.208C838.333 516.028 840.736 515.692 841.617 517.103C839.952 518.708 831.257 519.138 828.617 519.4Z" fill="#363344"/>
<path d="M143.93 539.941L144.499 539.786C147.067 536.069 163.245 518.444 166.861 516.248C163.875 550.774 173.904 579.501 203.723 598.486C218.255 607.738 230.392 614.621 247.783 615.917C257.952 616.675 275.118 616.622 284.511 612.817C279.118 625.251 282.02 630.679 287.094 641.983C238.952 647.935 187.59 632.922 160.781 589.823C152.255 576.116 145.271 556.033 143.93 539.941Z" fill="#FFEDE1"/>
<path d="M298.004 522.773C297.356 521.238 296.907 520.658 297.328 519.065C302.887 511.774 310.567 524.216 302.44 526.6C300.091 527.292 299.788 528.144 297.836 527.753C298.983 526.16 298.699 526.631 300.693 525.674C302.882 524.545 303.688 523.273 303.047 520.906C301.671 519.755 302.453 520.067 300.589 520.023C298.691 521.043 299.286 520.711 298.004 522.773Z" fill="url(#paint6_linear_41_7996)"/>
<path d="M298.003 522.773C299.285 520.711 298.69 521.043 300.588 520.023C302.452 520.067 301.67 519.755 303.046 520.906C303.687 523.273 302.881 524.545 300.692 525.674L297.836 524.434L298.003 522.773Z" fill="#A3C4F3"/>
<path d="M587.476 532.6C587.302 531.743 587.126 530.877 587.043 530.005C586.893 528.429 587.008 526.225 588.357 525.133C592.349 521.903 637.061 520.347 644.167 520.993L642.15 522.138C632.964 522.129 622.999 522.956 613.796 523.414C608.649 523.67 592.704 523.639 589.476 526.742C588.456 528.593 588.657 529.405 588.65 531.613C588.205 532.055 587.983 532.407 587.476 532.6Z" fill="#0E161B"/>
<path d="M644.168 520.993C648.148 521.574 650.832 523.333 653.16 526.62C662.833 540.28 645.48 541.991 635.869 541.654C621.484 541.149 606.317 542.355 592.098 539.841C589.278 539.343 587.613 535.142 587.477 532.6C587.984 532.407 588.206 532.055 588.651 531.613C589.026 532.853 590.148 537.183 591.571 537.359C600.007 538.405 609.547 538.171 618.062 538.166C627.911 538.16 638.638 538.506 648.048 535.675C651.659 534.589 650.865 527.777 649.063 525.458C647.193 522.93 645.047 522.628 642.151 522.138L644.168 520.993Z" fill="url(#paint7_linear_41_7996)"/>
<path d="M588.645 531.613C588.652 529.405 588.451 528.592 589.471 526.741C592.699 523.638 608.644 523.67 613.791 523.414C622.994 522.956 632.959 522.129 642.145 522.138C645.041 522.628 647.186 522.93 649.056 525.458C650.858 527.777 651.652 534.589 648.041 535.675C638.631 538.506 627.905 538.16 618.056 538.166C609.541 538.171 600 538.405 591.564 537.359C590.141 537.183 589.02 532.853 588.645 531.613Z" fill="#90DBF4"/>
<path d="M273.099 525.72L272.473 526.591C266.295 527.015 256.749 529.01 250.448 530.213C244.516 531.346 238.018 532.27 232.238 533.428C230.054 539.308 228.626 544.568 226.409 551.038C223.554 559.371 219.979 579.338 207.252 576.442C206.289 576.223 205.854 575.219 205.484 574.418L206.243 574.248C207.582 574.454 208.724 574.45 209.957 573.831C217.192 570.202 224.053 539.101 227.121 530.415C233.121 528.529 265.221 523.236 271.654 523.089C272.944 524.051 272.543 523.797 273.099 525.72Z" fill="#7B2FD7"/>
<path d="M302.436 526.6C301.927 528.29 301.295 529.307 302.511 530.674C307.067 535.795 302.119 541.266 296.606 539.246L296.492 538.546C301.137 532.581 295.112 529.368 297.833 524.434L300.689 525.674C298.695 526.631 298.979 526.16 297.832 527.753C299.784 528.144 300.087 527.292 302.436 526.6Z" fill="#2C304A"/>
<path d="M272.477 526.591L273.103 525.72C275.058 534.852 280.634 570.131 287.286 574.823C287.201 575.123 286.969 576.043 286.843 576.28C286.65 576.15 286.451 576.03 286.266 575.889C278.469 569.966 274.37 536.961 272.477 526.591Z" fill="#221236"/>
<path d="M796.31 530.699L795.198 531.403C794.427 530.621 794.777 530.653 793.473 530.705C782.778 531.131 772.015 532.563 761.294 532.471C758.977 540.896 750.808 568.386 745.443 574.081C742.703 575.315 739.737 574.114 736.891 573.238L738.318 571.356C739.401 571.333 740.205 571.386 741.204 570.915C744.541 569.341 755.254 534.572 757.259 528.818C765.523 528.567 773.666 527.933 781.903 527.44C785.935 527.199 791.384 526.61 795.22 526.84C796.431 528.572 796.051 528.294 796.31 530.699Z" fill="#7B2FD7"/>
<path d="M346.901 528.007C347.567 528.49 349.211 529.658 349.962 529.691C360.264 530.141 370.645 528.363 381.03 528.295L380.867 544.378C380.208 543.172 380.288 534.651 380.215 532.424L379.862 532.427C373.005 532.509 366.836 533.626 360.126 533.713C353.743 533.834 350.398 534.183 345.93 529.136L346.901 528.007Z" fill="#293E4D"/>
<path d="M795.195 531.403L796.307 530.699C798.035 539.026 803.825 569.853 809.942 573.929C812.082 575.355 814.662 575.604 817.165 575.629C815.345 575.979 814.981 575.952 813.426 577.044C811.907 576.553 810.461 575.982 809.137 575.068C802.287 570.337 797.193 540.692 795.195 531.403Z" fill="#221236"/>
<path d="M379.856 532.427L380.209 532.424C380.282 534.651 380.202 543.172 380.861 544.378L381.086 551.019C380.451 552.198 379.967 553.027 379.457 554.276C379.281 548.765 378.864 537.646 379.856 532.427Z" fill="#072528"/>
<path d="M360.124 533.713C366.834 533.626 373.003 532.509 379.86 532.427C378.868 537.646 379.285 548.765 379.461 554.276C379.897 560.385 381.01 563.355 385.714 567.307C381.869 573.742 379.536 579.55 375.237 586.144C361.15 607.748 338.406 626.473 314.177 635.578C309.525 626.92 302.84 615.691 298.664 607.158C301.249 605.464 303.788 603.752 306.295 601.987C328.646 586.244 343.304 564.094 356.769 540.85C358.167 538.438 360.012 536.676 360.124 533.713Z" fill="#98F5E1"/>
<path d="M141.279 545.312C146.949 577.046 161.815 604.478 188.588 623.229C215.177 641.852 255.904 650.994 287.796 643.924C290.261 649.926 291.566 661.984 293.652 669.078C288.532 669.748 275.012 670.735 271.226 673.558C272.301 673.642 279.693 672.875 280.921 672.573C286.887 671.109 305.693 671.195 309.991 668.495C312.471 668.69 323.123 666.028 329.788 665.99C333.47 671.702 341.553 683.559 344.089 689.227L329.742 713.485C327.51 717.236 323.237 723.986 321.628 727.625C322.522 728.87 322.922 728.905 324.301 729.591C329.54 734.609 333.761 740.237 340.597 742.555L340.585 743.358C329.243 748.82 321.402 754.951 312.001 759.716C270.263 780.873 214.88 811.349 166.747 805.456C142.145 802.187 118.284 786.728 103.459 767.143C63.0744 713.789 87.5412 637.32 116.386 584.521C119.583 578.669 138.237 547.612 141.279 545.312ZM192.528 663.587L193.829 662.998L194.674 666.68C195.055 668.408 195.086 668.48 196.186 669.859L196.685 669.779C197.103 667.004 196.511 665.761 195.743 663.065C198.896 662.718 201.527 662.608 204.505 661.518L205.09 660.756C203.275 657.896 197.896 661.624 195.876 659.854C196.327 657.464 197.113 655.155 195.883 653.136L195.2 652.771C193.629 654.69 195.854 658.649 193.586 660.113L192.913 659.565C192.609 656.356 192.603 652.842 191.748 649.808C190.347 651.081 190.853 658.494 190.927 660.444C187.837 660.468 185.024 660.221 182.184 661.305L181.382 662.121C183.261 664.145 187.968 663.64 190.551 663.435C190.328 668.12 190.37 670.49 190.782 675.162C192.353 670.45 192.594 668.726 192.528 663.587ZM235.312 654.141C231.702 667.025 222.33 711.911 228.641 722.711C229.611 724.37 231.09 725.727 233.014 726.128C236.337 726.82 239.799 724.691 242.37 722.837C247.5 719.137 251.935 713.688 254.234 707.779C256.809 696.996 249.214 689.43 239.642 696.162C234.989 699.434 231.657 706.426 229.545 711.537C230.316 692.818 233.846 677.409 237.534 659.078C237.893 657.291 238.156 656.252 237.486 654.769C236.71 654.522 236.111 654.305 235.312 654.141ZM307.457 685.287C299.076 685.74 282.321 686.346 274.509 688.321L274.047 688.984L273.989 688.469L273.542 688.956C275.469 689.962 290.021 688.448 292.91 688.042C303.689 687.29 314.443 686.639 325.249 686.725C326.578 686.735 327.876 686.317 328.986 685.623C325.954 684.291 311.369 685.029 307.457 685.287Z" fill="#FFEDE1"/>
<path d="M736.888 573.237C733.137 571.225 731.801 570.695 732.269 566.146L733.34 567.159C734.748 569.984 735.348 570.224 738.315 571.356L736.888 573.237Z" fill="#522971"/>
<path d="M385.713 567.307L386.771 567.756C374.171 601.054 347.453 623.047 315.838 637.435C321.852 647.131 327.769 657.211 333.838 666.802C337.118 672.349 342.881 681.011 346.505 686.171C352.72 676.718 359.109 667.516 365.46 658.163C367.207 655.708 369.623 651.701 371.8 650.106C373.459 650.257 372.805 649.912 373.873 651.083C373.923 652.226 373.739 653.399 373.035 654.345C364.387 665.981 355.842 677.246 348.16 689.575C351.006 694.838 371.966 731.814 371.661 734.171C367.029 733.708 361.686 721.473 359.5 717.474C355.002 709.245 350.339 700.97 346.07 692.624C339.821 703.136 329.602 719.147 324.301 729.59C322.922 728.904 322.522 728.87 321.628 727.625C323.237 723.986 327.51 717.236 329.742 713.485L344.089 689.227C341.553 683.559 333.47 671.701 329.788 665.989L319.292 648.935C317.405 645.806 314.653 640.83 312.419 638.115L311.453 636.708C310.604 633.185 298.579 613.08 296.078 608.501C297.061 607.762 297.537 607.651 298.663 607.158C302.839 615.691 309.524 626.92 314.176 635.578C338.405 626.473 361.149 607.748 375.236 586.144C379.535 579.55 381.868 573.742 385.713 567.307Z" fill="#2C304A"/>
<path d="M541.539 628.999C541.897 624.123 541.947 611.948 545.773 609.213C553.445 603.728 562.156 611.75 562.715 619.579C563.728 633.773 562.393 647.76 560.65 661.794C559.462 670.74 551.068 708.557 545.877 715.022L544.919 714.499L543.167 716.173L542.549 715.769C539.764 710.088 546.409 703.074 546.162 696.451C547.213 690.941 549.124 685.496 550.45 680.032C553.042 669.353 561.988 620.221 556.581 612.093C555.401 610.319 553.491 608.94 551.353 608.644C549.807 608.43 548.273 608.833 547.045 609.809C542.996 613.029 543.446 623.969 543.01 628.999H541.539Z" fill="url(#paint8_linear_41_7996)"/>
<path d="M482.006 614.05C486.538 611.906 493.706 612.838 494.729 618.064C497.797 633.727 503.967 708.286 515.968 717.277C527.747 719.65 536.09 679.287 537.6 670.545L537.769 669.546C540.454 655.513 541.701 643.148 543.008 628.999C543.444 623.969 542.994 613.029 547.043 609.809C548.271 608.833 549.805 608.43 551.351 608.644C553.489 608.94 555.399 610.319 556.579 612.093C561.986 620.221 553.04 669.353 550.448 680.032C549.122 685.496 547.211 690.941 546.16 696.451C540.547 711.816 534.45 727.948 515.896 730.689C500.265 730.818 494.722 710.426 492.901 698.564C491.08 686.706 479.196 621.329 482.006 614.05Z" fill="#8EECF5"/>
<path d="M284.508 612.817L296.078 608.501C298.579 613.08 310.604 633.185 311.453 636.708C302.408 639.119 296.445 640.676 287.091 641.983C282.017 630.679 279.115 625.251 284.508 612.817Z" fill="#98F5E1"/>
<path d="M767.855 655.169C767.861 654.493 767.828 649.884 768.454 649.869C779.915 649.604 791.202 649.117 802.441 646.606C827.418 641.026 844.584 627.213 861.748 609.069C864.231 620.564 864.416 636.358 865.776 648.558C870.859 694.18 874.337 730.521 861.83 775.352C845.676 833.256 801.52 874.721 745.045 894.206C604.086 941.146 462.535 848.256 368.757 750.026C367.145 748.337 365.704 745.462 364.125 743.561L364.95 742.244C367.794 740.533 373.701 738.072 376.803 736.627C380.384 734.959 392.432 727.764 395.702 728.102C399.987 735.441 410.916 748.521 417.546 753.474C462.334 786.932 513.388 809.998 566.438 779.636C574.192 780.334 584.448 779.845 592.393 780.583C627.632 783.857 657.36 783.026 689.424 765.494C707.626 755.541 725.112 738.267 734.513 719.507C738.338 711.875 740.834 703.186 743.172 694.891C746.636 694.913 767.982 694.426 770.133 693.511L770.431 692.411C768.693 691.123 749.076 692.367 745.023 692.402C744.521 691.322 745.759 680.332 745.864 677.998L747.521 677.994C749.652 677.972 753.425 678.036 754.952 676.486C752.529 675.073 748.829 675.572 745.96 675.695C746.053 670.211 746.023 668.39 742.512 664.176C745.973 657.671 748.235 655.268 752.739 649.542C756.805 649.82 760.167 650.051 764.228 649.978C764.365 652.846 764.266 654.688 765.462 657.343L766.09 657.805L766.79 657.567C766.988 657.141 767.784 655.512 767.855 655.169ZM845.129 660.564C833.506 666.039 822.491 688.57 828.352 700.163C835.471 714.243 855.241 701.208 852.497 687.651L851.777 687.065C849.735 687.962 849.668 690.012 849.149 692.095C846.755 697.208 841.675 706.58 833.966 702.632C822.131 696.57 839.459 658.615 849.524 663.668C850.545 665.173 850.464 666.6 850.643 668.449L851.422 668.973C852.95 668.46 852.913 668.565 853.999 667.406C855.326 661.904 849.513 660.295 845.129 660.564ZM809.717 661.121C800.986 663.417 798.596 667.674 792.705 675.562C786.141 684.352 778.409 712.816 794.832 716.277C803.493 718.103 812.956 707.129 816.873 698.784C811.638 702.953 809.761 706.935 803.991 710.968C783.545 721.39 786.827 695.357 791.602 684.506C794.695 677.478 807.929 655.267 816.391 667.466C817.795 669.687 812.231 673.852 811.624 677.14L811.792 677.819C817.822 678.447 825.396 660.845 809.717 661.121ZM447.655 786.631C447.466 790.406 447.465 793.71 447.505 797.495C444.526 797.388 439.156 796.693 436.896 798.811C438.04 801.267 445.109 800.601 447.497 800.56C447.437 803.842 446.497 809.299 449.658 811.085C452.355 808.185 451.249 804.507 451.176 800.553C453.808 800.594 458.144 801.208 459.905 799.042C458.731 796.37 453.525 797.099 450.911 797.147C451.009 794.072 451.499 790.551 450.423 787.837C449.225 786.736 449.29 786.838 447.655 786.631Z" fill="#FDE4CF"/>
<path d="M481.453 613.054C488.05 609.276 495.286 612.506 498.896 618.813C502.164 624.524 501.443 632.956 502.748 639.333C505.984 657.246 510.53 699.837 518.505 715.537C528.958 706.91 533.668 682.925 536.301 669.636L537.765 669.546L537.596 670.545C536.086 679.287 527.743 719.65 515.964 717.277C503.963 708.286 497.793 633.727 494.725 618.064C493.702 612.838 486.534 611.906 482.002 614.05L481.453 613.054Z" fill="url(#paint9_linear_41_7996)"/>
<path d="M513.049 733.489C502.697 730.225 497.024 720.796 494.399 710.839C488.389 687.808 485.582 663.849 482.626 640.256C481.788 633.572 478.631 618.321 481.458 613.054L482.007 614.05C479.197 621.329 491.081 686.706 492.902 698.564C494.723 710.426 500.266 730.818 515.897 730.689L513.582 731.16C515.104 732.715 515.726 730.204 515.766 732.482C514.116 733.65 514.298 732.949 513.049 733.489Z" fill="#110F1B"/>
<path d="M631.258 672.131C632.227 670.525 640.134 663.814 642.156 661.782C654.596 649.282 668.001 633.689 675.178 617.412C680.245 621.373 685.191 624.92 690.836 628.073C694.803 630.289 695.533 629.643 693.83 634.161C691.179 639.914 688.911 646.389 686.278 651.934C680.63 663.827 672.318 678.304 663.633 688.32C658.712 689.344 654 691.178 649.183 692.415C643.637 693.255 638.09 694.202 632.555 695.119C633.338 687.58 635.121 678.695 631.258 672.131Z" fill="#F1C0E8"/>
<path d="M541.537 628.999H543.008C541.701 643.148 540.454 655.513 537.769 669.546L536.305 669.636C538.781 655.41 540.363 643.43 541.537 628.999Z" fill="#0E161B"/>
<path d="M697.695 631.833L699.092 630.068C718.275 641.071 740.228 647.425 762.45 646.968C762.826 646.961 763.233 646.717 763.561 646.546C764.417 642.933 761.14 641.886 764.24 637.88L765.478 637.332C767.63 638.624 767.263 640.609 767.499 643.06L767.795 646.582L766.976 645.695C766.283 646.722 767.427 653.669 767.851 655.169C767.78 655.512 766.984 657.141 766.786 657.567L766.086 657.805L765.458 657.343C764.262 654.688 764.361 652.846 764.224 649.978C760.163 650.051 756.801 649.82 752.735 649.542C734.116 647.323 713.514 642.34 697.695 631.833Z" fill="#363344"/>
<path d="M693.829 634.161C694.627 633.143 694.942 632.626 695.958 631.822L696.846 632.954C688.88 653.677 683.48 664.763 671.031 683.395C658.231 699.959 653.102 705.665 633.423 712.725C634.622 716.742 635.481 720.049 637.169 723.934C639.137 728.464 643.005 728.26 642.548 731.768C639.478 735.774 634.14 738.103 629.258 738.749C620.116 739.959 617.563 734.336 617.173 726.67L617.085 724.679C606.492 743.721 583.736 766.832 566.439 779.636C513.389 809.998 462.335 786.932 417.547 753.474C410.917 748.521 399.988 735.441 395.703 728.102L396.61 727.186C402.814 734.041 408.697 741.611 415.552 747.834C426.15 757.453 439.146 763.72 451.207 771.089C482.527 790.222 530.743 801.079 563.108 777.768C570.389 773.441 579.811 765.252 585.822 758.927C597.969 746.147 614.795 730.101 618.748 712.582C612.742 713.341 602.738 715.487 597.899 711.379C594.981 708.903 594.89 703.209 597.731 700.454C603.68 695.902 611.508 696.732 619.143 696.492C619.68 691.058 619.867 684.944 620.154 679.446C622.095 673.346 624 669.24 631.257 672.131C635.12 678.695 633.337 687.58 632.554 695.119C638.089 694.202 643.636 693.255 649.182 692.415C652.611 694.217 652.793 695.007 654.649 698.466C658.298 695.134 660.649 692.22 663.632 688.32C672.317 678.304 680.629 663.827 686.277 651.934C688.91 646.389 691.178 639.914 693.829 634.161ZM625.754 673.156C620.982 679.408 621.727 690.687 621.345 698.947C618.31 699.091 589.441 697.844 601.491 709.098C604.223 711.65 615.838 709.468 620.514 709.378C620.53 715.036 619.557 730.001 623.458 734.422C624.851 736 627.108 735.69 629.187 735.676C631.389 734.988 631.474 735.33 632.857 733.892C633.143 730.25 630.19 716.551 629.979 709.948C635.161 708.253 651.025 704.108 651.011 697.631C647.584 693.67 633.986 696.886 629.376 698.204C629.395 693.409 629.523 688.626 629.545 683.84C629.564 679.767 630.67 673.946 625.754 673.156Z" fill="#363344"/>
<path d="M696.846 632.954L697.7 631.833C713.519 642.34 734.121 647.323 752.74 649.542C748.236 655.268 745.974 657.671 742.513 664.176C728.802 656.885 728.521 661.862 716.863 663.491C709.395 664.534 672.55 683.926 671.031 683.395C683.48 664.763 688.88 653.677 696.846 632.954Z" fill="#F1C0E8"/>
<path d="M287.797 643.924C295.708 642.705 304.951 640.748 312.42 638.115C314.654 640.83 317.406 645.806 319.293 648.935L329.789 665.989C323.124 666.027 312.472 668.689 309.992 668.494C306.589 667.364 297.63 668.668 293.653 669.078C291.567 661.984 290.262 649.926 287.797 643.924Z" fill="#98F5E1"/>
<path d="M193.83 662.998L192.529 663.587L190.552 663.434C187.969 663.639 183.262 664.145 181.383 662.121L182.185 661.305C185.025 660.221 187.838 660.468 190.928 660.444C190.854 658.494 190.348 651.081 191.749 649.808C192.604 652.842 192.61 656.355 192.914 659.564L193.587 660.113C195.855 658.649 193.63 654.69 195.201 652.771L195.884 653.136C197.114 655.155 196.328 657.464 195.877 659.854C197.897 661.624 203.276 657.896 205.091 660.756L204.506 661.518C201.528 662.608 198.897 662.718 195.744 663.065L193.83 662.998Z" fill="url(#paint10_linear_41_7996)"/>
<path d="M254.231 707.778C251.932 713.687 247.497 719.137 242.367 722.837C239.796 724.691 236.334 726.82 233.011 726.128C231.087 725.727 229.608 724.369 228.638 722.71C222.327 711.91 231.699 667.024 235.309 654.14C236.108 654.304 236.707 654.522 237.483 654.769C238.153 656.252 237.89 657.291 237.531 659.078C233.843 677.409 230.313 692.818 229.542 711.537C231.654 706.426 234.986 699.434 239.639 696.162C249.211 689.43 256.806 696.995 254.231 707.778ZM244.131 696.002C239.925 697.974 238.098 700.028 235.779 704.015C233.366 708.163 227.452 720.449 232.637 723.71C234.438 723.844 234.918 723.511 236.575 722.848C242.974 718.507 249.66 711.987 251.425 704.151C252.596 698.957 248.923 696.265 244.131 696.002Z" fill="#3B393E"/>
<path d="M333.836 666.802C336.803 664.333 361.383 657.501 365.458 658.163C359.107 667.516 352.718 676.718 346.503 686.171C342.879 681.011 337.116 672.349 333.836 666.802Z" fill="#DFF0E7"/>
<path d="M671.03 683.395C672.549 683.926 709.394 664.534 716.862 663.491C728.52 661.862 728.801 656.885 742.512 664.176C746.023 668.39 746.053 670.211 745.96 675.695C742.251 675.638 723.822 675.438 722.12 676.656L721.971 677.441C723.532 678.536 742.933 678.022 745.864 677.998C745.759 680.332 744.521 691.322 745.023 692.402C741.412 692.441 721.876 692.311 719.852 694.019C721.453 696.535 739.325 694.911 743.172 694.891C740.834 703.186 738.338 711.875 734.513 719.507C725.112 738.267 707.626 755.541 689.424 765.494C657.36 783.026 627.632 783.857 592.393 780.583C584.448 779.845 574.192 780.334 566.438 779.636C583.735 766.832 606.49 743.721 617.083 724.679L617.172 726.67C617.562 734.336 620.115 739.959 629.257 738.749C634.139 738.103 639.477 735.774 642.547 731.768C643.004 728.26 639.136 728.464 637.168 723.934C635.48 720.049 634.621 716.742 633.422 712.725C653.101 705.665 658.23 699.959 671.03 683.395Z" fill="#90DBF4"/>
<path d="M849.148 692.095C849.667 690.012 849.734 687.962 851.776 687.065L852.496 687.651C855.24 701.208 835.47 714.243 828.351 700.163C822.49 688.57 833.505 666.039 845.128 660.564C849.512 660.295 855.325 661.904 853.998 667.406C852.912 668.565 852.949 668.46 851.421 668.973L850.642 668.449C850.463 666.6 850.544 665.173 849.523 663.668C839.458 658.615 822.13 696.57 833.965 702.632C841.674 706.58 846.754 697.208 849.148 692.095Z" fill="#3B393E"/>
<path d="M816.871 698.784C812.954 707.129 803.491 718.103 794.83 716.277C778.407 712.816 786.139 684.352 792.703 675.562C798.594 667.674 800.984 663.417 809.715 661.121C825.394 660.845 817.82 678.447 811.79 677.819L811.622 677.14C812.229 673.852 817.793 669.687 816.389 667.466C807.927 655.267 794.693 677.478 791.6 684.506C786.825 695.357 783.543 721.39 803.989 710.968C809.759 706.935 811.636 702.953 816.871 698.784Z" fill="#3B393E"/>
<path d="M193.828 662.998L195.742 663.065C196.51 665.761 197.102 667.004 196.684 669.779L196.185 669.859C195.085 668.48 195.054 668.408 194.673 666.68L193.828 662.998Z" fill="#3B393E"/>
<path d="M190.548 663.434L192.525 663.587C192.591 668.726 192.35 670.45 190.779 675.162C190.367 670.49 190.325 668.119 190.548 663.434Z" fill="#3B393E"/>
<path d="M293.653 669.078C297.63 668.668 306.589 667.364 309.992 668.494C305.694 671.194 286.888 671.108 280.922 672.572C279.694 672.874 272.302 673.642 271.227 673.558C275.013 670.735 288.533 669.748 293.653 669.078Z" fill="#110F1B"/>
<path d="M377.79 681.928C373.573 682.462 363.564 675.589 362.453 671.946C365.844 672.417 375.974 679.115 377.79 681.928Z" fill="url(#paint11_linear_41_7996)"/>
<path d="M621.342 698.947C621.724 690.687 620.979 679.408 625.751 673.156C630.667 673.946 629.561 679.767 629.542 683.84C629.52 688.626 629.392 693.409 629.373 698.204C633.983 696.886 647.581 693.67 651.008 697.631C651.022 704.108 635.158 708.253 629.976 709.948C630.187 716.551 633.14 730.25 632.854 733.892C631.471 735.33 631.386 734.988 629.184 735.676C627.105 735.69 624.848 736 623.455 734.422C619.554 730.001 620.527 715.036 620.511 709.378C615.835 709.468 604.22 711.65 601.488 709.098C589.438 697.844 618.307 699.091 621.342 698.947Z" fill="#CFBAF0"/>
<path d="M745.862 677.998C742.931 678.022 723.53 678.536 721.969 677.441L722.118 676.656C723.82 675.438 742.249 675.638 745.958 675.695C748.827 675.572 752.527 675.073 754.95 676.486C753.423 678.036 749.65 677.972 747.519 677.994L745.862 677.998Z" fill="#363344"/>
<path d="M442.829 683.9C436.685 683.162 385.582 682.577 384.578 681.869C386.751 679.446 390.258 679.764 393.261 679.716C402.274 679.522 444.338 679.035 449.586 682.842L449.188 683.551C446.912 684.605 445.363 684.164 442.829 683.9Z" fill="#2C304A"/>
<path d="M597.727 700.454C597.95 697.584 598.688 696.314 600.874 694.425C606.915 689.204 613.811 684.26 620.15 679.446C619.863 684.944 619.676 691.058 619.139 696.492C611.504 696.732 603.676 695.902 597.727 700.454Z" fill="#FBFAF7"/>
<path d="M292.907 688.041C290.018 688.447 275.466 689.962 273.539 688.956L273.986 688.468L274.044 688.984L274.506 688.321C282.318 686.346 299.073 685.74 307.454 685.287C311.366 685.029 325.951 684.291 328.983 685.623C327.873 686.317 326.575 686.735 325.246 686.725C314.44 686.639 303.686 687.289 292.907 688.041Z" fill="#110F1B"/>
<path d="M649.18 692.415C653.997 691.178 658.709 689.344 663.63 688.32C660.647 692.22 658.296 695.134 654.647 698.466C652.791 695.007 652.609 694.217 649.18 692.415Z" fill="#A3C4F3"/>
<path d="M743.172 694.891C739.325 694.911 721.453 696.535 719.852 694.019C721.876 692.311 741.412 692.441 745.023 692.402C749.076 692.367 768.693 691.123 770.431 692.411L770.133 693.511C767.982 694.426 746.636 694.913 743.172 694.891Z" fill="#3B393E"/>
<path d="M236.575 722.848C234.918 723.511 234.438 723.844 232.637 723.71C227.452 720.449 233.366 708.163 235.779 704.015C238.098 700.028 239.925 697.974 244.131 696.002C248.923 696.265 252.596 698.957 251.425 704.151C249.66 711.987 242.974 718.507 236.575 722.848Z" fill="#FFEDE1"/>
<path d="M515.895 730.689C534.449 727.948 540.546 711.816 546.159 696.451C546.406 703.074 539.761 710.088 542.546 715.769L543.164 716.173L544.916 714.499L545.874 715.022C540.807 725.848 525.824 741.005 513.047 733.489C514.296 732.949 514.114 733.65 515.764 732.482C515.724 730.204 515.102 732.715 513.58 731.16L515.895 730.689Z" fill="#2C304A"/>
<path d="M387.344 706.919C394.734 702.626 410.974 701.511 419.871 700.713C424.855 700.197 446.66 700.16 449.469 703.509C448.767 704.225 448.331 704.396 447.094 704.285C437.217 703.398 428.073 702.516 418.083 703.409C407.966 703.624 396.519 706.8 387.344 706.919Z" fill="#2C304A"/>
<path d="M396.609 727.186C402.289 724.192 411.578 722.071 417.914 721.951L418.555 722.362C425.453 726.832 431.493 732.754 438.113 737.604C456.97 751.417 477.425 767.933 500.239 774.41C514.257 778.389 529.07 776.228 542.773 772.425C547.713 776.221 552.057 776.784 558.113 777.286C559.97 777.44 561.322 777.146 563.107 777.768C530.742 801.079 482.526 790.222 451.206 771.089C439.145 763.72 426.149 757.453 415.551 747.834C408.696 741.611 402.813 734.041 396.609 727.186Z" fill="#FDE4CF"/>
<path d="M358.732 732.932C360.501 735.571 362.951 740.165 364.952 742.244L364.127 743.561C354.179 744.885 350.077 744.35 340.586 743.358L340.598 742.555C346.671 741.961 353.771 736.433 358.732 732.932Z" fill="#F5ECF8"/>
<path d="M447.507 797.495C447.467 793.71 447.468 790.406 447.657 786.631C449.292 786.838 449.227 786.736 450.425 787.837C451.501 790.551 451.011 794.072 450.913 797.147C453.527 797.099 458.733 796.37 459.907 799.042C458.146 801.208 453.81 800.594 451.178 800.553C451.251 804.507 452.357 808.185 449.66 811.085C446.499 809.299 447.439 803.842 447.499 800.56C445.111 800.601 438.042 801.267 436.898 798.811C439.158 796.693 444.528 797.388 447.507 797.495Z" fill="#3B393E"/>
<defs>
<linearGradient id="paint0_linear_41_7996" x1="340.87" y1="417.406" x2="649.444" y2="684.782" gradientUnits="userSpaceOnUse">
<stop stop-color="#A0FDCC"/>
<stop offset="1" stop-color="#A2E5F2"/>
</linearGradient>
<linearGradient id="paint1_linear_41_7996" x1="531.851" y1="347.479" x2="552.577" y2="342.736" gradientUnits="userSpaceOnUse">
<stop stop-color="#17283A"/>
<stop offset="1" stop-color="#2E415B"/>
</linearGradient>
<linearGradient id="paint2_linear_41_7996" x1="484.689" y1="353.278" x2="548.838" y2="342.775" gradientUnits="userSpaceOnUse">
<stop stop-color="#91FBE3"/>
<stop offset="1" stop-color="#F3EFF5"/>
</linearGradient>
<linearGradient id="paint3_linear_41_7996" x1="534.959" y1="329.366" x2="499.235" y2="322.612" gradientUnits="userSpaceOnUse">
<stop stop-color="#122635"/>
<stop offset="1" stop-color="#33405A"/>
</linearGradient>
<linearGradient id="paint4_linear_41_7996" x1="498.826" y1="383.668" x2="470.965" y2="377.847" gradientUnits="userSpaceOnUse">
<stop stop-color="#223749"/>
<stop offset="1" stop-color="#3F475C"/>
</linearGradient>
<linearGradient id="paint5_linear_41_7996" x1="617.62" y1="492.936" x2="620.571" y2="516.167" gradientUnits="userSpaceOnUse">
<stop stop-color="#0B1927"/>
<stop offset="1" stop-color="#39394B"/>
</linearGradient>
<linearGradient id="paint6_linear_41_7996" x1="304.856" y1="520.309" x2="299.405" y2="522.7" gradientUnits="userSpaceOnUse">
<stop stop-color="#282A30"/>
<stop offset="1" stop-color="#353549"/>
</linearGradient>
<linearGradient id="paint7_linear_41_7996" x1="619.716" y1="524.545" x2="622.541" y2="543.497" gradientUnits="userSpaceOnUse">
<stop stop-color="#192131"/>
<stop offset="1" stop-color="#383B56"/>
</linearGradient>
<linearGradient id="paint8_linear_41_7996" x1="532.928" y1="658.467" x2="559.431" y2="664.541" gradientUnits="userSpaceOnUse">
<stop stop-color="#0B0F14"/>
<stop offset="1" stop-color="#3F4661"/>
</linearGradient>
<linearGradient id="paint9_linear_41_7996" x1="533.743" y1="656.101" x2="494.292" y2="665.682" gradientUnits="userSpaceOnUse">
<stop/>
<stop offset="1" stop-color="#47526F"/>
</linearGradient>
<linearGradient id="paint10_linear_41_7996" x1="191.377" y1="649.512" x2="192.611" y2="662.393" gradientUnits="userSpaceOnUse">
<stop stop-color="#2E261F"/>
<stop offset="1" stop-color="#313035"/>
</linearGradient>
<linearGradient id="paint11_linear_41_7996" x1="376.456" y1="678.79" x2="365.476" y2="676.509" gradientUnits="userSpaceOnUse">
<stop stop-color="#F4DFC0"/>
<stop offset="1" stop-color="#DFE4D6"/>
</linearGradient>
</defs>
</svg>
