<svg width="1024" height="1024" viewBox="0 0 1024 1024" fill="none" xmlns="http://www.w3.org/2000/svg">
<path d="M562.04 444.214C576.109 429.12 591.182 414.527 604.928 399.302C618.624 384.131 629.472 368.414 644.467 353.927C656.558 342.246 669.641 330.474 681.279 318.536C706.697 292.464 731.354 265.159 753.076 235.921C765.27 219.161 777.352 201.176 788.279 183.533C792.618 176.762 794.496 168.418 798.499 161.552C803.191 153.507 809.133 155.345 815.457 159.383C815.946 160.035 816.635 161.028 817.173 161.591C841.469 201.94 824.377 237.039 803.516 274.122C766.019 340.78 714.403 398.116 663.395 454.616C652.082 467.147 639.81 478.924 628.384 491.38L573.329 550.473C585.664 573.283 601.127 584.496 620.691 599.996C633.378 609.994 647.673 618.959 660.355 628.809C697.313 657.511 729.368 689.824 734.87 738.754C738.721 773.002 728.811 807.463 708.149 835.15C706.666 837.138 703.77 840.525 701.829 841.988C672.763 867.946 643.059 878.914 604.449 870.719C569.023 864.136 534.715 839.669 518.171 807.449C499.885 771.834 492.95 723.876 492.423 684.178C489.325 691.861 485.24 699.76 481.475 707.531C442.643 787.679 364.372 902.786 259.557 854.499C214.222 833.614 192.705 778.443 197.849 731.155C200.142 710.073 205.545 694.991 214.899 676.417C225.616 656.15 237.719 643.599 254.522 628.706C292.275 595.478 343.43 587.715 389.885 573.572C400.288 570.405 419.481 564.908 428.46 559.606C449.454 547.207 468.965 527.202 487.096 510.884C483.285 498.891 481.241 485.123 479.721 472.624C471.541 405.349 482.035 341.486 493.885 275.595C496.132 264.433 498.191 252.122 501.312 241.131C513.851 196.97 530.741 147.745 569.436 119.634C575.691 115.09 617.465 94.1991 614.657 120.935C614.293 124.4 605.869 134.491 604.647 138.592C576.903 191.4 569.437 247.749 566.103 306.541C564.996 326.054 562.841 346.096 561.996 366.132C561.234 387.891 561.248 408.115 561.611 429.943C561.496 434.491 561.838 439.625 562.04 444.214ZM522.074 236.228L521.399 235.958C521.118 239.755 518.784 243.676 519.374 247.465C519.662 249.316 519.851 250.48 519.626 252.33C517.88 256.051 516.866 261.3 516.048 265.354C518.945 263.06 527.249 255.315 530.23 255.984C531.657 258.988 517.762 268.937 515.025 271.552C514.062 275.308 513.741 277.627 513.249 281.504C517.03 278.406 520.694 275.04 525.191 273.149L526.089 273.291C525.282 276.864 515.924 283.873 512.732 286.483C512.229 289.471 511.5 293.206 511.208 296.163C513.68 294.31 517.908 290.28 520.491 290.625C521.942 293.824 512.257 299.875 509.695 302.251L508.178 312.842C510.387 310.943 514.819 306.537 517.649 306.463C518.65 307.519 518.371 306.888 518.353 308.479C517.153 309.957 516.702 310.264 515.189 311.472C506.588 318.3 506.845 319.655 505.072 330.478C508.489 327.19 514.883 319.78 519.071 318.925C519.36 320.113 519.768 320.708 518.819 321.818C514.547 326.817 509.11 330.746 504.743 335.71C504.041 339.936 503.524 343.469 503.099 347.724C506.805 344.038 512.507 338.405 516.887 335.807L517.909 336.03C518.899 339.29 505.385 350.332 502.488 353.337C501.687 357.831 501.083 363.08 500.846 367.659C503.938 364.278 513.851 352.42 517.923 353.309C518.107 354.251 518.228 354.133 517.342 355.259C512.423 361.511 502.567 367.768 499.977 375.282C499.447 376.821 499.088 383.531 498.971 385.434C501.299 382.796 509.044 373.771 512.305 373.525L512.626 374.22C510.734 379.159 502.386 386.176 499.007 390.786C498.364 395.687 497.945 399.94 497.872 404.902C500.178 401.319 505.294 393.532 509.172 391.776L510.035 392.129C510.263 393.243 510.516 393.991 509.647 395.12C506.386 399.359 501.046 406.886 497.463 410.495C497.061 415.39 496.846 419.777 496.68 424.661C499.745 420.389 506.968 411.162 511.174 408.034L512.225 408.112C513.141 409.671 513.05 408.899 512.845 410.44C507.584 417.974 502.51 422.212 496.583 431.414C496.553 435.123 496.46 439.023 496.518 442.713C499.614 437.72 504.188 430.495 509.307 427.33L510.462 427.317C511.858 430.153 499.077 444.425 496.544 447.834C496.425 452.364 496.256 456.972 496.213 461.496C498.394 458.088 507.356 445.337 510.471 443.828C511.455 444.354 511.414 444.285 511.902 445.284C510.949 448.82 499.433 463.38 496.479 466.876C496.564 471.08 496.559 475.241 497.118 479.412C499.63 475.667 502.822 470.244 506.329 467.761L507.552 467.596L508.578 468.627C508.573 471.605 500.117 480.609 497.471 484.46C497.97 488.745 498.473 494.477 499.4 498.576C505.253 492.993 511.187 487.424 517.009 481.816C527.213 471.988 539.536 463.662 549.741 454.042C542.236 434.269 541.627 417.118 540.829 396.244C540.145 378.353 539.457 360.586 540.999 342.696C541.864 337.085 542.191 330.406 542.702 324.676C548.551 259.073 560.978 195.201 588.15 134.909C577.183 136.783 567.428 145.064 559.996 152.921C563.93 151.335 571.57 145.299 574.722 146.185C575.102 151.55 559.088 156.549 555.298 159.466C553.978 160.482 551.027 164.9 549.964 166.427C554.247 164.393 558.9 161.347 563.193 159.255C564.133 158.797 564.966 159.479 565.59 160.025C564.416 164.702 551.333 168.244 547.449 172.625C544.165 176.33 544.212 176.829 541.876 181.423C545.534 179.912 555.939 172.937 558.293 173.663L558.65 174.675C556.745 178.612 543.891 184.637 539.576 186.917C537.857 189.864 536.961 191.897 535.594 195.011C538.91 193.108 549.556 186.395 552.785 187.357L553.022 186.799L552.397 186.726L552.79 187.427C550.756 190.456 545.008 194.026 541.761 195.594C532.289 200.168 531.788 204.412 528.886 213.516C532.261 211.233 539.167 205.142 543.06 205.092L543.193 205.859C540.245 210.034 531.862 215.25 527.329 217.913L524.069 230.19C526.499 228.347 534.827 221.624 537.616 222.15L537.806 223.168C534.529 228.615 525.492 231.048 522.074 236.228ZM496.751 284.1C493.514 296.705 492.008 309.263 489.924 322.013C481.441 373.905 477.307 427.746 484.704 480.004C485.742 487.335 487.719 501.223 489.77 508.236C491.966 506.273 494.534 503.857 496.781 502.029C494.171 495.475 493.882 488.102 493.467 481.102C490.433 429.937 495.132 378.802 501.969 328.128C503.438 317.238 505.921 306.53 507.659 295.753C510.846 276.993 513.696 256.156 518.598 237.251C527.356 203.474 541.631 160.382 570.556 138.621C574.07 135.978 587.911 127.866 591.826 133.148C592.361 133.87 591.241 135.713 591.076 136.6C584.795 151.203 578.965 165.781 573.978 180.891C556.204 234.747 548.969 290.818 544.59 347.159C543.666 374.052 542.529 427.469 553.017 451.194C554.812 449.752 556.382 448.536 558.035 446.915C558.062 416.548 556.993 390.545 558.441 359.618L563.31 294.525C567.971 237.522 574.264 187.371 601.944 136.467C604.991 130.865 608.235 125.456 611.087 120.004C613.005 116.338 608.745 111.336 604.866 111.482C591.558 110.757 577.36 117.898 566.939 125.74C524.354 160.947 504.067 231.833 496.751 284.1ZM569.21 441.542C567.011 443.763 564.078 446.565 562.061 448.851C561.682 460.731 561.57 468.762 563.618 480.698C565.424 491.221 572.133 513.012 570.964 523.197C570.802 526.08 571.471 530.232 572.017 533.137C571.111 536.907 571.455 542.168 571.59 546.072C579.641 538.965 588.371 529.195 595.647 521.263C605.76 510.239 615.711 499.439 626.085 488.636C629.49 485.311 632.773 481.671 636.027 478.178C696.784 412.95 758.602 346.92 802.339 268.614C820.271 236.509 838.109 196.928 813.376 162.969C812.249 161.423 809.286 160.057 807.388 160.209C802.082 160.311 800.057 166.404 798.337 170.483C793.121 185.401 783.359 197.75 774.805 210.769C744.597 256.75 707.667 298.812 667.941 336.781C657.878 346.398 647.388 355.684 637.819 365.901C626.41 378.084 616.648 391.753 605.694 404.339C594.238 417.193 581.422 429.375 569.21 441.542ZM494.863 508.415C493.552 521.335 493.442 538.528 493.34 551.657C493.443 558.451 493.577 565.269 493.536 572.063C493.384 597.505 486.887 621.134 479.053 645.087C471.655 666.203 462.165 687.141 453.07 707.559C450.416 713.517 445.976 719.801 443.643 725.168C439.045 735.749 434.411 748.399 430.683 759.349C443.114 742.083 453.122 722.858 462.633 703.898C472.638 683.951 481.926 664.254 490.504 643.657C504.959 615.839 509.803 601.71 531.861 578.017C544.395 564.148 554.953 554.014 566.947 539.303C567.701 518.343 565.78 504.289 560.475 484.249C557.948 474.704 557.952 461.766 558.15 451.803C549.011 460.689 535.698 470.686 525.824 479.355C514.773 489.058 505.456 498.136 494.863 508.415ZM526.816 588.969C515.474 603.15 502.358 625.67 495.331 642.568C466.615 709.034 418.332 814.372 346.378 842.723C321.146 852.665 294.134 853.755 269.039 842.667C245.546 832.286 228.051 812.595 218.977 788.753C207.48 758.545 210.644 723.441 223.785 694.309C231.524 677.153 242.038 661.794 254.959 648.138C260.183 643.094 264.493 639.531 270.294 635.31C302.783 613.504 335.947 604.576 373.671 595.32C384.779 592.595 396.596 591.833 407.531 588.366C419.437 584.591 430.227 578.385 441.541 573.299C457.371 566.182 473.426 559.434 489.451 552.772C489.353 539.653 490.231 525.332 490.798 512.151C472.552 529.251 451.713 550.137 430.215 563.085C421.207 568.511 400.371 574.459 389.479 577.664C342.578 591.463 299.826 597.79 260.244 628.713C251.757 634.984 237.102 648.963 231.149 657.861C222.968 666.656 212.275 689.469 208.224 701.023C187.223 760.925 211.284 836.734 275.893 856.847C373.532 887.242 441.758 778.337 478.338 705.604C488.472 685.454 497.746 665.224 504.742 643.691C511.939 625.202 520.909 614.002 532.233 598.022C543.674 583.609 557.4 561.517 569.49 548.074L568.261 543.277C555.86 559.781 539.771 573.437 526.816 588.969ZM617.559 602.817C597.433 586.887 583.625 576.073 570.85 553.292C558.635 567.662 547.722 583.541 536.467 598.714C528.527 609.417 520.056 620.812 513.603 632.445C512.696 634.08 512.95 637.838 513.105 639.728C512.968 679.024 512.616 713.138 518.611 752.171C521.19 717.97 524.117 687.195 534.517 654.017C540.697 636.642 553.417 606.293 576.49 608.919C586.344 610.041 598.339 615.095 607.475 619.157C627.603 628.218 646.509 640.886 663.939 654.331C674.329 662.345 683.625 669.862 692.358 679.66C723.112 714.165 727.969 763.292 708.98 804.674C702.773 818.203 698.265 825.046 686.378 834.1C657.792 855.75 649.009 860.075 613.016 859.404C606.118 858.448 597.169 856.601 590.805 853.58C571.802 844.559 548.461 825.423 535.874 808.536C510.338 774.278 510.447 713.893 508.897 672.566C508.534 662.888 509.298 652.069 508.927 642.392C507.534 647.257 505.248 654.875 503.213 659.371C496.907 673.308 495.319 678.701 496.414 694.152C502.116 774.578 517.575 845.177 606.043 867.668C620.392 870.272 636.794 871.085 650.983 867.002C668.049 862.091 686.789 852.414 698.889 839.168C701.323 837.377 705.533 832.327 707.3 829.768C727.767 800.123 735.671 766.77 729.857 731.377C720.155 672.308 663.111 635.069 617.559 602.817ZM606.805 622.996C596.558 618.381 577.437 609.42 566.462 613.745C551.749 619.542 541.861 643.126 537.626 657.139C527.966 690.846 522.738 724.51 522.371 759.638C521.999 795.249 550.484 824.388 579.074 841.599C590.553 848.509 613.74 849.198 626.431 846.36C664.374 837.712 697.277 801.39 698.949 761.953C700.039 736.248 692.974 714.864 675.629 695.655C683.109 711.387 687.327 717.977 690.693 736.073C698.406 777.541 682.97 818.277 637.949 826.121C615.72 827.908 592.131 817.516 576.344 802.349C559.771 786.428 552.432 766.395 546.066 745.009C537.451 716.07 535.759 691.807 557.636 668.475C567.492 658.628 577.284 654.158 590.642 651.258C630.362 645.127 652.799 667.671 678.592 693.625C709.355 724.58 710.98 778.341 684.165 812.222C665.851 835.523 649.013 845.158 620.655 851.379C611.902 851.688 602.574 851.889 593.879 850.596C602.115 854.611 608.54 855.277 617.626 855.938C630.01 856.215 638.673 856.112 650.98 851.689C666.411 846.144 682.543 833.343 694.342 821.95C698.285 817.555 701.046 811.9 703.659 806.812C723.274 768.614 720.161 716.436 690.935 683.688C670.899 661.237 634.505 635.992 606.805 622.996ZM271.519 639.348C242.575 661.613 221.279 696.675 216.698 732.947C208.076 801.206 255.728 854.996 325.307 845.9C296.504 843.897 273.033 833.758 253.636 811.977C211.111 764.224 231.345 694.25 276.247 656.164C280.956 652.17 285.821 648.503 290.713 644.757C307.204 633.328 326.11 629.315 345.126 623.896C361.134 619.334 377.358 614.341 393.829 611.844C426.016 607.745 446.379 622.523 451.333 654.191C452.868 678.801 449.95 694.159 444.023 717.89C447.739 712.686 452.447 701.01 455.152 694.838C462.082 679.025 468.311 662.957 474.415 646.81C485.773 621.397 490.418 584.091 489.874 556.532C484.549 558.317 479.215 561.234 473.922 563.297C452.676 571.577 432.149 583.178 410.967 591.243C400.356 595.283 385.476 596.444 374.071 599.093C336.508 607.819 303.741 617.863 271.519 639.348ZM293.888 647.345C287.99 651.501 281.624 655.678 276.297 660.7C254.976 680.801 240.956 703.487 235.416 732.621C225.664 783.901 261.864 831.764 312.329 840.818C333.46 844.61 354.32 837.578 371.003 824.827C389.263 811.189 406.005 794.164 419.222 775.615C423.317 769.869 427.241 758.102 429.771 751.325C440.997 721.268 449.698 687.935 447.489 655.636C443.782 624.725 424.481 611.359 393.497 615.466C378.797 617.923 363.913 622.165 349.615 626.381C331.249 631.796 309.595 636.205 293.888 647.345ZM583.876 656.68C575.313 659.756 568.168 663.433 561.527 669.706C539.463 693.751 540.731 714.605 549.672 744.648C556.04 766.042 563.507 786.068 580.507 801.584C596.064 815.782 619.361 824.627 640.472 821.825C656.537 819.623 674.451 805.928 681.266 791.3C702.248 746.262 677.186 683.119 633.478 661.234C619.337 654.154 598.991 651.487 583.876 656.68Z" fill="#3A4E67"/>
<path d="M496.75 284.1C504.066 231.833 524.353 160.947 566.938 125.74C577.359 117.898 591.557 110.757 604.865 111.482C608.744 111.336 613.005 116.338 611.087 120.004C608.235 125.456 604.991 130.865 601.944 136.467C574.264 187.371 567.97 237.522 563.309 294.525L558.44 359.618C554.459 356.618 549.565 349.353 544.59 347.159C548.969 290.818 556.204 234.747 573.978 180.891C578.965 165.781 584.794 151.203 591.075 136.6C591.24 135.713 592.36 133.87 591.825 133.148C587.91 127.866 574.07 135.978 570.556 138.621C541.631 160.382 527.356 203.474 518.598 237.251C513.696 256.156 510.845 276.993 507.658 295.753C504.494 293.115 499.559 287.352 496.75 284.1Z" fill="#D1FAF5"/>
<path d="M815.455 159.383C809.131 155.345 803.189 153.507 798.497 161.552C794.494 168.418 792.615 176.762 788.276 183.533C777.349 201.176 765.268 219.161 753.074 235.921C731.352 265.159 706.694 292.464 681.276 318.536C669.638 330.474 656.556 342.246 644.465 353.927C629.47 368.414 618.622 384.131 604.926 399.302C591.18 414.527 576.107 429.12 562.038 444.214C561.836 439.625 561.494 434.491 561.609 429.943L562.196 429.846C565.061 426.99 576.012 388.322 577.389 382.203C588.669 349.205 593.45 310.089 598.678 275.548C602.984 247.098 604.627 220.801 616.759 194.018C632.545 159.166 668.951 127.424 707.007 120.106C742.835 113.353 785.769 124.243 810.077 152.723C812.107 155.1 814.285 156.358 815.455 159.383Z" fill="#FFCFD2"/>
<path d="M522.069 236.228C525.487 231.048 534.523 228.615 537.8 223.168L537.611 222.15C534.822 221.624 526.494 228.347 524.064 230.19L527.323 217.913C531.856 215.25 540.239 210.034 543.187 205.859L543.054 205.092C539.161 205.142 532.255 211.233 528.88 213.516C531.782 204.412 532.283 200.168 541.755 195.594C545.002 194.026 550.75 190.456 552.784 187.427L552.391 186.726L553.017 186.799L552.779 187.357C549.55 186.395 538.904 193.108 535.588 195.011C536.955 191.897 537.851 189.864 539.57 186.917C543.885 184.637 556.74 178.612 558.645 174.675L558.288 173.663C555.934 172.937 545.529 179.912 541.871 181.423C544.207 176.829 544.159 176.33 547.443 172.625C551.327 168.244 564.41 164.702 565.584 160.025C564.96 159.479 564.127 158.797 563.187 159.255C558.894 161.347 554.241 164.393 549.958 166.427C551.021 164.9 553.972 160.482 555.292 159.466C559.082 156.549 575.096 151.55 574.716 146.185C571.564 145.299 563.925 151.335 559.991 152.921C567.423 145.064 577.178 136.783 588.145 134.909C560.973 195.201 548.545 259.073 542.696 324.676C542.185 330.406 541.859 337.085 540.994 342.696C535.276 336.551 528.81 326.452 522.504 319.312C520.067 316.622 517.702 314.086 515.183 311.472C516.696 310.264 517.147 309.957 518.347 308.479C518.365 306.888 518.644 307.519 517.643 306.463C514.813 306.537 510.381 310.943 508.172 312.842L509.689 302.251C512.251 299.875 521.936 293.824 520.485 290.625C517.902 290.28 513.675 294.31 511.203 296.163C511.495 293.206 512.223 289.471 512.726 286.483C515.918 283.873 525.276 276.864 526.083 273.291L525.185 273.149C520.688 275.04 517.025 278.406 513.244 281.504C513.736 277.627 514.057 275.308 515.02 271.552C517.757 268.937 531.652 258.988 530.225 255.984C527.244 255.315 518.939 263.06 516.042 265.354C516.86 261.3 517.874 256.051 519.62 252.33C523.373 249.323 531.196 244.657 533.623 241.612L533.47 240.41L532.633 239.878C529.047 240.331 522.894 245.474 519.721 247.805C520.452 244.656 521.877 239.235 522.069 236.228Z" fill="#D1FAF5"/>
<path d="M254.521 628.706C251.633 625.815 240.113 619.638 235.884 617.073C195.498 592.285 160.171 556.966 130.065 520.632C68.6224 446.479 36.5909 337.547 86.3391 248.791C106.115 213.509 140.747 178.203 177.186 160.644C279.766 111.214 402.481 180.075 473.612 254.52C477.795 258.898 489.777 273.782 493.884 275.595C482.034 341.486 471.539 405.349 479.719 472.624C481.239 485.123 483.284 498.891 487.095 510.884C468.964 527.202 449.453 547.207 428.459 559.606C419.48 564.908 400.287 570.405 389.884 573.572C343.429 587.715 292.274 595.478 254.521 628.706Z" fill="#FBF8CC"/>
<path d="M569.203 441.542C581.415 429.375 594.232 417.193 605.688 404.339C616.642 391.753 626.403 378.084 637.812 365.901C647.381 355.684 657.871 346.398 667.934 336.781C707.66 298.812 744.591 256.75 774.799 210.769C783.353 197.75 793.115 185.401 798.331 170.483C800.051 166.404 802.076 160.311 807.382 160.209C809.28 160.057 812.243 161.423 813.37 162.969C838.103 196.928 820.265 236.509 802.333 268.614C758.596 346.92 696.778 412.95 636.021 478.178C632.767 481.671 629.484 485.311 626.079 488.636C624.4 486.287 617.573 483.726 614.593 482.415C620.686 476.026 626.281 468.566 632.08 461.843C678.847 407.624 730.326 357.468 770.197 297.595C777.45 286.702 785.421 275.712 791.361 264.05C798.779 249.486 804.149 233.612 807.956 217.744C809.552 211.006 816.273 181.239 805.785 179.162C803.352 180.815 796.883 196.048 794.425 200.025C753.768 265.847 696.11 319.595 644.155 376.357C630.799 390.948 618.323 407.044 604.934 421.768C598.347 429.011 581.046 446.041 577.463 453.73C576.494 450.219 572.115 444.073 569.203 441.542Z" fill="#FFCFD2"/>
<path d="M817.172 161.591C826.291 165.533 842.078 199.876 846.056 209.99C868.367 266.711 860.676 333.436 837.151 388.54C833.876 396.21 829.713 403.826 826.306 411.547L825.923 412.055C819.843 409.223 793.107 423.205 786.36 426.658C751.452 444.52 717.401 468.272 691.428 497.841C689.677 499.847 681.674 508.849 680.894 510.39L680.549 510.47C673.898 508.094 664.538 506.747 657.429 503.856C647.57 499.845 638.291 495.362 628.383 491.38C639.809 478.924 652.08 467.147 663.393 454.616C714.401 398.116 766.018 340.78 803.515 274.122C824.376 237.039 841.468 201.94 817.172 161.591Z" fill="#FFCFD2"/>
<path d="M807.185 184.114C805.914 186.632 804.494 189.341 803.39 191.937C802.241 194.639 804.34 192.266 805.612 195.057C804.454 198.648 802.787 197.648 799.876 198.575C798.4 199.045 797.195 201.822 796.448 203.243C798.378 202.918 799.856 202.362 801.475 203.266L802.216 204.354C801.424 208.505 797.49 207.386 794.676 206.414C792.477 208.848 791.964 210.71 790.221 212.756C792.876 214.54 796.111 211.631 798.03 214.418C797.518 215.818 797.591 215.74 796.391 216.619C793.618 217.329 791.114 217.162 788.243 217.168L785.197 220.733L783.839 223.014L784.069 223.753C782.165 224.36 781.408 225.524 780.203 227.123C778.42 230.092 776.597 232.635 774.599 235.459C773.149 235.46 773.852 235.39 772.366 236.343L771.706 237.64C772.275 238.313 771.987 238.138 772.422 238.354C770.274 240.652 767.91 244.412 766.161 247.13C769.095 247.337 771.258 247.283 773.88 248.684L774.444 249.429C772.263 251.709 765.826 251.063 762.695 250.969L755.583 260.141C758.828 260.047 761.76 259.684 764.696 261.111L765.067 262.072C761.811 264.396 756.717 263.922 752.792 263.76C749.957 266.527 747.642 268.996 744.978 271.936C748.375 271.899 752.839 271.332 755.402 273.462C754.206 276.521 745.334 275.248 742.592 274.828C739.868 278.128 736.882 281.611 734.344 285.025C737.754 284.765 742.139 284.174 745.235 285.699C744.196 288.252 733.374 288.841 730.589 289.156C727.455 292.148 724.872 294.831 721.918 298.01C726.489 297.956 732.734 297.582 736.877 299.343L737.086 299.96C733.651 302.262 723.734 301.444 719.223 301.301C716.468 304.393 713.381 307.713 710.746 310.864C714.162 310.899 719.556 310.52 722.229 312.436C720.942 315.247 710.271 314.322 707.154 314.192C704.201 317.364 700.353 321.28 697.727 324.612C701.33 324.653 709.409 324.249 712.149 326.026L712.389 326.89C711.656 327.829 712.037 327.736 711.17 327.835C705.733 328.456 700.395 327.382 694.855 327.913L685.117 338.3C688.743 338.137 697.93 337.388 700.464 339.617C698.634 342.995 686.022 341.812 682.051 341.65C679.562 344.192 676.937 346.798 674.534 349.403C678.53 349.515 691.318 349.38 693.961 351.719C691.474 354.599 675.826 353.012 671.486 352.809C668.244 356.093 665.313 359.194 662.214 362.612C661.236 363.415 660.828 363.637 660.115 364.665C658.706 366.708 654.051 370.969 652.045 372.878C655.071 372.574 662.968 371.851 665.449 372.756L665.84 373.605C663.206 376.568 653.525 376.248 648.996 376.859C644.949 380.763 641.34 384.663 637.724 388.963C643.165 388.012 657.321 384.171 661.887 386.686L662.221 387.489C660.148 389.752 638.578 392.387 634.243 392.918C632.305 395.306 630.323 397.824 628.351 400.166C631.527 400.043 638.912 399.266 641.124 400.919L641.27 401.959C638.661 405.275 629.616 402.802 625.868 403.457C624.71 403.66 619.321 410.788 618.345 412.031C623.332 412.106 630.741 411.832 635.233 413.536L635.571 414.12C631.728 416.832 620.634 415.491 615.569 415.507C612.064 419.315 609.01 422.664 605.736 426.702C604.269 428.176 604.221 428.16 603.23 429.948C601.222 431.035 596.554 436.539 594.717 438.582C598.914 438.492 614.566 437.474 617.397 439.609C613.813 442.685 597.119 441.769 592.194 441.472C588.473 445.561 582.858 452.936 579.104 456.069L577.468 453.73C581.051 446.041 598.352 429.011 604.939 421.768C618.328 407.044 630.804 390.948 644.16 376.357C696.115 319.595 753.773 265.847 794.43 200.025C796.888 196.048 803.357 180.815 805.79 179.162C816.278 181.239 809.557 211.006 807.961 217.744C804.154 233.612 798.784 249.486 791.366 264.05C785.426 275.712 777.455 286.702 770.202 297.595C730.331 357.468 678.852 407.624 632.085 461.843C626.286 468.566 620.691 476.026 614.598 482.415C605.094 492.275 577.947 521.302 572.016 533.137C571.47 530.232 570.8 526.08 570.962 523.197C571.239 524.554 571.218 524.67 571.817 525.896C584.235 509.286 597.58 495.339 611.328 479.91C613.016 478.172 614.705 476.093 616.263 474.216C654.017 428.754 696.394 387.465 733.195 341.194C752.295 317.179 771.555 290.899 787.092 264.317C793.33 253.645 797.782 238.87 801.645 227.106C806.227 213.15 808.698 198.862 807.185 184.114Z" fill="#3A4E67"/>
<path d="M796.446 203.243C797.193 201.822 798.398 199.045 799.874 198.575C802.785 197.648 804.452 198.648 805.61 195.057C804.338 192.266 802.239 194.639 803.388 191.937C804.492 189.341 805.912 186.632 807.183 184.114C808.696 198.862 806.225 213.15 801.643 227.106C797.78 238.87 793.328 253.645 787.09 264.317C771.553 290.899 752.293 317.179 733.193 341.194C696.392 387.465 654.015 428.754 616.261 474.216C614.703 476.093 613.014 478.172 611.326 479.91C609.352 478.198 607.155 476.754 605.04 475.226C596.325 468.927 587.592 462.671 579.102 456.069C582.856 452.936 588.471 445.561 592.192 441.472C597.117 441.769 613.811 442.685 617.395 439.609C614.564 437.474 598.912 438.492 594.715 438.582C596.552 436.539 601.22 431.035 603.228 429.948C608.15 430.305 625.454 430.046 628.481 426.407L627.947 425.702C623.319 424.505 611.07 426.214 605.734 426.702C609.008 422.664 612.062 419.315 615.567 415.507C620.632 415.491 631.726 416.832 635.569 414.12L635.231 413.536C630.739 411.832 623.33 412.106 618.343 412.031C619.319 410.788 624.708 403.66 625.866 403.457C629.614 402.802 638.659 405.275 641.268 401.959L641.122 400.919C638.91 399.266 631.525 400.043 628.349 400.166C630.321 397.824 632.303 395.306 634.241 392.918C638.576 392.387 660.146 389.752 662.219 387.489L661.885 386.686C657.319 384.171 643.163 388.012 637.722 388.963C641.338 384.663 644.947 380.763 648.994 376.859C653.523 376.248 663.204 376.568 665.838 373.605L665.447 372.756C662.966 371.851 655.069 372.574 652.043 372.878C654.049 370.969 658.704 366.708 660.113 364.665C663.317 366.906 675.447 368.297 678.464 365.639L678.313 364.808C674.936 362.634 666.365 362.689 662.212 362.612C665.311 359.194 668.242 356.093 671.484 352.809C675.824 353.012 691.472 354.599 693.959 351.719C691.316 349.38 678.528 349.515 674.532 349.403C676.935 346.798 679.56 344.192 682.049 341.65C686.02 341.812 698.632 342.995 700.462 339.617C697.928 337.388 688.741 338.137 685.115 338.3L694.853 327.913C700.393 327.382 705.731 328.456 711.168 327.835C712.035 327.736 711.654 327.829 712.387 326.89L712.147 326.026C709.407 324.249 701.328 324.653 697.725 324.612C700.351 321.28 704.199 317.364 707.152 314.192C710.269 314.322 720.94 315.247 722.227 312.436C719.554 310.52 714.16 310.899 710.744 310.864C713.379 307.713 716.466 304.393 719.221 301.301C723.732 301.444 733.649 302.262 737.084 299.96L736.875 299.343C732.732 297.582 726.487 297.956 721.916 298.01C724.87 294.831 727.453 292.148 730.587 289.156C733.372 288.841 744.194 288.252 745.233 285.699C742.137 284.174 737.752 284.765 734.342 285.025C736.88 281.611 739.866 278.128 742.59 274.828C745.332 275.248 754.204 276.521 755.4 273.462C752.837 271.332 748.373 271.899 744.976 271.936C747.64 268.996 749.955 266.527 752.79 263.76C756.715 263.922 761.809 264.396 765.065 262.072L764.694 261.111C761.758 259.684 758.826 260.047 755.581 260.141L762.693 250.969C765.824 251.063 772.261 251.709 774.442 249.429L773.878 248.684C771.256 247.283 769.093 247.337 766.159 247.13C767.908 244.412 770.272 240.652 772.42 238.354C775.007 238.864 782.258 239.595 783.26 236.458C781.265 234.327 777.294 235.208 774.597 235.459C776.595 232.635 778.418 230.092 780.201 227.123C783.544 227.96 788.777 228.753 790.62 224.993L790.043 224.091C788.105 223.159 786.289 223.58 784.067 223.753L783.837 223.014L785.195 220.733L788.241 217.168C791.112 217.162 793.616 217.329 796.389 216.619C797.589 215.74 797.516 215.818 798.028 214.418C796.109 211.631 792.874 214.54 790.219 212.756C791.962 210.71 792.475 208.848 794.674 206.414C797.488 207.386 801.422 208.505 802.214 204.354L801.473 203.266C799.854 202.362 798.376 202.918 796.446 203.243Z" fill="#FFCFD2"/>
<path d="M784.069 223.753C786.291 223.58 788.107 223.159 790.045 224.091L790.622 224.993C788.779 228.753 783.546 227.96 780.203 227.123C781.408 225.524 782.165 224.36 784.069 223.753Z" fill="#474D70"/>
<path d="M772.419 238.354C771.984 238.138 772.272 238.313 771.703 237.64L772.363 236.343C773.849 235.39 773.146 235.46 774.596 235.459C777.293 235.208 781.264 234.327 783.259 236.458C782.257 239.595 775.006 238.864 772.419 238.354Z" fill="#474D70"/>
<path d="M519.621 252.33C519.846 250.48 519.657 249.316 519.369 247.465C518.779 243.676 521.113 239.755 521.394 235.958L522.07 236.228C521.878 239.235 520.453 244.656 519.722 247.805C522.895 245.474 529.048 240.331 532.634 239.878L533.471 240.41L533.624 241.612C531.197 244.657 523.374 249.323 519.621 252.33Z" fill="#474D70"/>
<path d="M489.766 508.236C487.715 501.223 485.738 487.335 484.7 480.004C477.303 427.746 481.437 373.905 489.92 322.013C492.004 309.263 493.51 296.705 496.747 284.1C499.556 287.352 504.491 293.115 507.655 295.753C505.917 306.53 503.434 317.238 501.965 328.128C495.128 378.802 490.429 429.937 493.463 481.102C493.878 488.102 494.167 495.475 496.777 502.029C494.53 503.857 491.962 506.273 489.766 508.236Z" fill="#FBF8CC"/>
<path d="M505.07 330.478C506.843 319.655 506.586 318.3 515.187 311.472C517.706 314.086 520.071 316.622 522.508 319.312C528.814 326.452 535.28 336.551 540.998 342.696C539.456 360.586 540.143 378.353 540.827 396.244C541.625 417.118 542.234 434.269 549.739 454.042C539.534 463.662 527.212 471.988 517.008 481.816C511.186 487.424 505.251 492.993 499.398 498.576C498.471 494.477 497.968 488.745 497.469 484.46C500.115 480.609 508.571 471.605 508.576 468.627L507.55 467.596L506.328 467.761C502.821 470.244 499.629 475.667 497.117 479.412C496.558 475.241 496.562 471.08 496.477 466.876C499.431 463.38 510.947 448.82 511.9 445.284C511.412 444.285 511.453 444.354 510.469 443.828C507.354 445.337 498.392 458.088 496.211 461.496C496.254 456.972 496.423 452.364 496.542 447.834C499.075 444.425 511.856 430.153 510.46 427.317L509.306 427.33C504.187 430.495 499.612 437.72 496.516 442.713C496.458 439.023 496.551 435.123 496.581 431.414C502.508 422.212 507.582 417.974 512.843 410.44C513.048 408.899 513.14 409.671 512.224 408.112L511.172 408.034C506.966 411.162 499.743 420.389 496.678 424.661C496.844 419.777 497.059 415.39 497.461 410.495C501.044 406.886 506.384 399.359 509.645 395.12C510.514 393.991 510.261 393.243 510.033 392.129L509.17 391.776C505.292 393.532 500.177 401.319 497.871 404.902C497.944 399.94 498.362 395.687 499.005 390.786C502.384 386.176 510.733 379.159 512.625 374.22L512.303 373.525C509.042 373.771 501.298 382.796 498.97 385.434C499.087 383.531 499.445 376.821 499.975 375.282C502.565 367.768 512.421 361.511 517.34 355.259C518.226 354.133 518.106 354.251 517.922 353.309C513.85 352.42 503.937 364.278 500.845 367.659C501.082 363.08 501.686 357.831 502.487 353.337C505.384 350.332 518.897 339.29 517.907 336.03L516.885 335.807C512.505 338.405 506.803 344.038 503.097 347.724C503.522 343.469 504.039 339.936 504.741 335.71C509.108 330.746 514.545 326.817 518.817 321.818C519.766 320.708 519.358 320.113 519.069 318.925C514.881 319.78 508.487 327.19 505.07 330.478Z" fill="#FBF8CC"/>
<path d="M904.118 384.664C896.968 394.495 871.587 398.102 864.481 386.536C853.014 367.575 874.144 349.354 886.295 337.339C892.697 331.009 902.098 324.825 911.452 326.561C921.422 328.412 928.468 338.629 925.815 348.61C923.411 357.655 911.537 361.846 904.553 366.624C900.679 369.104 896.172 371.928 892.178 374.251C893.231 376.41 894.888 375.944 897.103 378.156L899.938 378.133C898.895 381.38 901.631 383.203 904.118 384.664ZM887.179 376.074C883.15 372.746 882.751 371.212 886.751 367.173C893.797 360.058 931.944 349.734 912.714 336.224C905.924 335.11 903.036 335.138 897.246 339.671C887.816 347.054 872.263 361.378 869.626 373.393C866.265 388.702 885.773 385.039 894.352 381.841L895.093 380.957C894.543 379.598 894.836 380.1 893.644 379.073C892.077 379.392 888.644 376.973 887.179 376.074Z" fill="#98F5E1"/>
<path d="M912.715 336.224C931.945 349.734 893.798 360.058 886.752 367.173C882.752 371.212 883.151 372.746 887.18 376.074C888.645 376.973 892.078 379.392 893.645 379.073C894.837 380.1 894.544 379.598 895.094 380.957L894.353 381.841C885.774 385.039 866.266 388.702 869.627 373.393C872.264 361.378 887.817 347.054 897.247 339.671C903.037 335.138 905.925 335.11 912.715 336.224Z" fill="#F9F5ED"/>
<path d="M544.585 347.159C549.56 349.353 554.454 356.618 558.435 359.618C556.987 390.545 558.056 416.548 558.029 446.915C556.376 448.536 554.807 449.752 553.012 451.194C542.524 427.469 543.661 374.052 544.585 347.159Z" fill="#FBF8CC"/>
<path d="M660.109 364.665C660.822 363.637 661.23 363.415 662.208 362.612C666.361 362.689 674.932 362.634 678.309 364.808L678.46 365.639C675.443 368.297 663.313 366.906 660.109 364.665Z" fill="#474D70"/>
<path d="M561.993 366.132C569.389 366.942 573.935 376.949 577.389 382.203C576.012 388.322 565.061 426.99 562.196 429.846L561.609 429.943C561.246 408.115 561.231 387.891 561.993 366.132Z" fill="#FBF8CC"/>
<path d="M904.119 384.664C901.632 383.203 898.896 381.38 899.939 378.133C902.473 378.636 901.995 378.177 903.713 379.667C904.436 381.246 904.29 382.917 904.119 384.664Z" fill="#7AE1C7"/>
<path d="M825.921 412.055L826.304 411.547C868.632 401.878 906.794 411.647 936.823 443.811C1003.16 514.801 978.618 626.721 930.822 700.61C889.346 764.729 822.678 822.921 747.53 842.287C736.175 845.213 713.067 845.474 701.826 841.988C703.767 840.525 706.662 837.138 708.145 835.15C728.807 807.463 738.717 773.002 734.866 738.754C729.364 689.824 697.309 657.511 660.351 628.809C647.669 618.959 633.375 609.994 620.688 599.996C623.345 594.468 633.36 580.547 637.198 574.661C651.159 553.246 665.749 531.326 680.547 510.47L680.892 510.39C732.464 519.137 779.201 482.53 807.37 442.966C814.394 433.101 820.068 422.619 825.921 412.055Z" fill="#F1C0E8"/>
<path d="M680.891 510.39C681.671 508.849 689.674 499.847 691.425 497.841C717.398 468.272 751.449 444.52 786.357 426.658C793.104 423.205 819.84 409.223 825.92 412.055C820.067 422.619 814.394 433.101 807.37 442.966C779.201 482.53 732.463 519.137 680.891 510.39Z" fill="#FEA8B2"/>
<path d="M603.227 429.948C604.218 428.16 604.266 428.176 605.733 426.702C611.069 426.214 623.318 424.505 627.946 425.702L628.48 426.407C625.453 430.046 608.149 430.305 603.227 429.948Z" fill="#474D70"/>
<path d="M562.056 448.851C564.073 446.565 567.005 443.763 569.204 441.542C572.116 444.073 576.495 450.219 577.464 453.73L579.1 456.069C587.59 462.671 596.323 468.927 605.038 475.226C607.153 476.754 609.35 478.198 611.324 479.91C597.576 495.339 584.231 509.286 571.813 525.896C571.214 524.67 571.235 524.554 570.958 523.197C572.127 513.012 565.418 491.221 563.612 480.698C561.564 468.762 561.677 460.731 562.056 448.851Z" fill="#FFEDE1"/>
<path d="M493.336 551.657C493.438 538.528 493.548 521.335 494.859 508.415C505.452 498.136 514.77 489.058 525.821 479.355C535.695 470.686 549.007 460.689 558.146 451.803C557.948 461.766 557.945 474.704 560.472 484.249C565.777 504.289 567.697 518.343 566.943 539.303C554.949 554.014 544.391 564.148 531.857 578.017C526.874 565.168 516.265 561.215 504.511 555.808C501.247 554.307 496.776 552.359 493.336 551.657ZM526.823 499.058C496.562 507.426 497.745 554.335 530.626 552.399C554.525 546.729 561.533 514.107 539.188 501.44C534.863 498.988 531.596 498.663 526.823 499.058Z" fill="#D1FAF5"/>
<path d="M572.011 533.137C577.942 521.302 605.089 492.275 614.593 482.415C617.573 483.726 624.4 486.287 626.079 488.636C615.705 499.439 605.754 510.239 595.641 521.263C588.365 529.195 579.634 538.965 571.583 546.072C571.448 542.168 571.105 536.907 572.011 533.137Z" fill="#FFEDE1"/>
<path d="M573.328 550.473L628.383 491.38C638.291 495.362 647.57 499.845 657.429 503.856C664.538 506.747 673.898 508.094 680.549 510.47C665.751 531.326 651.161 553.246 637.2 574.661C633.362 580.547 623.347 594.468 620.69 599.996C601.126 584.496 585.663 573.283 573.328 550.473Z" fill="#FFEDE1"/>
<path d="M530.624 552.399C497.743 554.335 496.56 507.426 526.821 499.058C531.594 498.663 534.861 498.988 539.186 501.44C561.531 514.107 554.523 546.729 530.624 552.399ZM527.808 502.568C501.095 512.513 502.307 549.501 530.306 548.491C550.88 542.916 556.15 515.383 536.647 504.668C533.44 502.906 531.394 502.366 527.808 502.568Z" fill="#3A4E67"/>
<path d="M530.305 548.491C502.306 549.501 501.094 512.513 527.807 502.568C531.393 502.366 533.439 502.906 536.646 504.668C556.149 515.383 550.879 542.916 530.305 548.491ZM538.676 520.402C533.993 503.003 516.818 510.359 516.31 519.874L516.871 520.421C518.278 520.169 518.164 520.023 519.462 519.157L519.871 520.038C522.633 526.074 521.633 527.399 529.081 530.637C528.014 531.814 526.747 533.11 525.856 534.388L522.722 536.62C520.785 536.277 518.629 535.705 516.743 536.064L516.342 536.629C517.431 539.777 519.322 540.128 522.286 539.656C523.121 541.213 522.52 540.779 523.827 541.465C527.575 540.135 536.556 533.167 538.175 529.682L534.992 528.788C537.174 525.837 537.755 523.803 538.676 520.402Z" fill="#F1C0E8"/>
<path d="M519.465 519.157C518.167 520.023 518.281 520.169 516.874 520.421L516.312 519.874C516.821 510.359 533.996 503.003 538.679 520.402C537.758 523.803 537.177 525.837 534.995 528.788C532.247 531.35 529.955 533.755 526.38 535.074L525.859 534.388C526.75 533.11 528.016 531.814 529.083 530.637C543.702 520.13 527.322 506.457 519.465 519.157Z" fill="#3A4E67"/>
<path d="M260.242 628.713C299.824 597.79 342.576 591.463 389.476 577.664C400.368 574.459 421.204 568.511 430.213 563.085C451.711 550.137 472.549 529.251 490.795 512.151C490.228 525.332 489.35 539.653 489.448 552.772C473.423 559.434 457.369 566.182 441.539 573.299C430.225 578.385 419.434 584.591 407.528 588.366C396.593 591.833 384.777 592.595 373.669 595.32C335.945 604.576 302.78 613.504 270.291 635.31C265.744 631.368 263.18 633.226 260.242 628.713Z" fill="#FBF8CC"/>
<path d="M519.469 519.157C527.326 506.457 543.707 520.13 529.088 530.637C521.64 527.399 522.64 526.074 519.878 520.038L519.469 519.157Z" fill="#F9F5ED"/>
<path d="M526.38 535.074C529.955 533.755 532.247 531.35 534.995 528.788L538.178 529.682C536.559 533.167 527.578 540.135 523.83 541.465C522.523 540.779 523.124 541.213 522.289 539.656C523.667 538.053 524.926 536.608 526.38 535.074Z" fill="#F9F5ED"/>
<path d="M522.288 539.656C519.324 540.128 517.433 539.777 516.344 536.629L516.745 536.064C518.631 535.705 520.787 536.277 522.724 536.62L525.858 534.388L526.379 535.074C524.925 536.608 523.666 538.053 522.288 539.656Z" fill="#474D70"/>
<path d="M526.812 588.969C539.767 573.437 555.857 559.781 568.258 543.277L569.487 548.074C557.397 561.517 543.671 583.609 532.23 598.022L530.357 595.605C528.175 592.792 528.051 592.237 526.812 588.969Z" fill="#F9F5ED"/>
<path d="M131.33 605.591C120.384 605.635 112.256 603.927 102.155 598.718C87.7459 591.522 74.7525 572.646 83.4293 556.691C86.2989 551.414 91.0923 549.494 96.506 548.125C113.808 546.861 126.882 561.687 136.51 574.07C145.731 585.928 153.856 602.6 131.33 605.591ZM97.0723 557.058C94.8463 558.003 90.6607 560.07 90.1761 562.744C85.9677 585.968 113.442 596.607 131.404 597.075C133.649 596.554 135.782 596.31 137.579 594.965C139.189 588.835 124.608 572.519 120.063 568.317C113.956 562.671 105.809 556.482 97.0723 557.058Z" fill="#8EECF5"/>
<path d="M493.334 551.657C496.774 552.359 501.245 554.307 504.509 555.808C516.263 561.215 526.872 565.168 531.855 578.017C509.797 601.71 504.953 615.839 490.498 643.657C488.181 643.889 480.331 645.179 479.047 645.087C486.881 621.134 493.378 597.505 493.53 572.063C493.571 565.269 493.437 558.451 493.334 551.657Z" fill="#FBF8CC"/>
<path d="M570.845 553.292C583.62 576.073 597.427 586.887 617.553 602.817C614.114 608.388 611.023 613.555 607.47 619.157C598.334 615.095 586.339 610.041 576.485 608.919C553.412 606.293 540.692 636.642 534.512 654.017C531.398 652.991 528.736 648.877 527.046 648.219C522.827 646.577 518.661 645.765 514.311 643.825C513.219 642.49 513.44 641.728 513.1 639.728C512.945 637.838 512.69 634.08 513.597 632.445C520.05 620.812 528.522 609.417 536.462 598.714C547.717 583.541 558.63 567.662 570.845 553.292Z" fill="#D1FAF5"/>
<path d="M271.516 639.348C303.738 617.863 336.505 607.819 374.068 599.093C385.473 596.444 400.352 595.283 410.963 591.243C432.145 583.178 452.672 571.577 473.918 563.297C479.211 561.234 484.545 558.317 489.87 556.532C490.414 584.091 485.769 621.397 474.411 646.81C467.371 648.361 458.918 652.245 451.329 654.191C446.375 622.523 426.013 607.745 393.826 611.844C377.355 614.341 361.131 619.334 345.123 623.896C326.107 629.315 307.2 633.328 290.709 644.757C285.396 643.668 275.882 642.05 271.516 639.348Z" fill="#FBF8CC"/>
<path d="M131.402 597.075C113.44 596.607 85.966 585.968 90.1744 562.744C90.659 560.07 94.8446 558.003 97.0706 557.058C105.807 556.482 113.954 562.671 120.061 568.317C124.606 572.519 139.187 588.835 137.577 594.965C135.78 596.31 133.647 596.554 131.402 597.075Z" fill="#F9F5ED"/>
<path d="M495.328 642.568C502.355 625.67 515.471 603.15 526.813 588.969C528.051 592.237 528.176 592.792 530.358 595.605L532.231 598.022C520.907 614.002 511.936 625.202 504.739 643.691C500.765 643.521 499.161 643.483 495.328 642.568Z" fill="#FBF8CC"/>
<path d="M179.634 610.843C172.805 609.598 165.141 604.837 172.432 597.847C179.067 599.937 187.507 603.549 179.634 610.843Z" fill="#CFBAF0"/>
<path d="M617.555 602.817C663.107 635.069 720.152 672.308 729.854 731.377C735.668 766.77 727.763 800.123 707.296 829.768C705.529 832.327 701.32 837.377 698.886 839.168C686.786 852.414 668.046 862.091 650.98 867.002C636.791 871.085 620.388 870.272 606.039 867.668C608.232 863.478 610.12 862.909 613.012 859.404C649.005 860.075 657.788 855.75 686.374 834.1C698.261 825.046 702.769 818.203 708.976 804.674C727.965 763.292 723.108 714.165 692.354 679.66C683.621 669.862 674.325 662.345 663.935 654.331C646.505 640.886 627.599 628.218 607.471 619.157C611.024 613.555 614.116 608.388 617.555 602.817Z" fill="#F1C0E8"/>
<path d="M537.625 657.139C541.86 643.126 551.748 619.542 566.461 613.745C577.436 609.42 596.557 618.381 606.804 622.996C602.322 630.305 593.841 643.838 590.641 651.258C577.283 654.158 567.491 658.628 557.635 668.475C551.188 665.508 542.903 661.735 537.625 657.139Z" fill="#D1FAF5"/>
<path d="M293.883 647.345C309.59 636.205 331.245 631.796 349.611 626.381C363.909 622.165 378.793 617.923 393.493 615.466C424.477 611.359 443.778 624.725 447.485 655.636C437.712 658.449 426.081 660.415 417.391 663.03C403.962 650.96 396.211 636.228 377.163 632.195C344.416 625.262 323.993 632.427 296.701 649.114C295.131 648.44 295.19 648.458 293.883 647.345Z" fill="#FBF8CC"/>
<path d="M130.199 628.336C123.982 630.311 108.559 625.96 114.041 615.946C118.818 616.159 132.524 618.974 133.019 624.652C132.276 626.707 131.917 626.834 130.199 628.336Z" fill="#CFBAF0"/>
<path d="M160.198 633.144C151.853 634.434 143.333 624.863 149.694 618.393C154.727 618.283 161.501 625.536 162.338 629.988C161.758 632.099 161.972 631.421 160.198 633.144Z" fill="#CFBAF0"/>
<path d="M606.804 622.996C634.504 635.992 670.898 661.237 690.934 683.688C720.16 716.436 723.273 768.614 703.658 806.812C701.045 811.9 698.284 817.555 694.341 821.95C682.542 833.343 666.411 846.144 650.98 851.689C638.673 856.112 630.009 856.215 617.625 855.938C618.233 854.585 619.747 852.641 620.655 851.379C649.013 845.158 665.851 835.523 684.165 812.222C710.98 778.341 709.354 724.58 678.591 693.625C652.798 667.671 630.361 645.127 590.641 651.258C593.841 643.838 602.322 630.305 606.804 622.996Z" fill="#F1C0E8"/>
<path d="M231.148 657.861C237.101 648.963 251.757 634.984 260.244 628.713C263.182 633.226 265.746 631.368 270.293 635.31C264.492 639.531 260.183 643.094 254.959 648.138C251.616 648.664 249.029 650.145 246.332 650.824C242.971 651.669 233.412 658.085 231.148 657.861Z" fill="#F9F5ED"/>
<path d="M296.7 649.114C323.992 632.427 344.415 625.262 377.162 632.195C396.21 636.228 403.961 650.96 417.39 663.03C446.4 690.728 416.146 734.684 398.428 759.594C390.029 771.402 381.837 781.87 372.362 792.506C311.426 860.912 221.61 800.871 243.539 717.804C252.389 684.389 267.066 666.939 296.7 649.114ZM302.626 649.732C295.71 653.973 288.261 658.303 281.924 663.35C246.778 691.345 231.001 746.087 255.861 785.804C275.816 817.684 316.343 828.887 348.486 807.866C369.523 794.109 385.067 772.353 399.061 751.844C409.464 736.449 420.145 721.206 424.182 702.737C428.186 684.414 423.848 674.749 410.926 662.119C401.824 651.189 390.96 639.676 376.892 635.892C348.768 628.329 326.887 636.475 302.626 649.732Z" fill="#355560"/>
<path d="M302.625 649.732C326.886 636.475 348.767 628.33 376.891 635.893C390.959 639.677 401.823 651.19 410.925 662.12C404.62 664.674 376.805 664.331 369.459 663.641C358.034 662.569 310.031 656.012 302.625 649.732Z" fill="#FBF8CC"/>
<path d="M325.304 845.9C255.725 854.996 208.073 801.206 216.694 732.947C221.275 696.675 242.572 661.613 271.516 639.348C275.882 642.05 285.396 643.668 290.709 644.757C285.817 648.503 280.953 652.17 276.244 656.164C231.342 694.25 211.108 764.224 253.633 811.977C273.03 833.758 296.501 843.897 325.304 845.9Z" fill="#98F5E1"/>
<path d="M513.103 639.729C513.443 641.729 513.222 642.491 514.314 643.826C518.664 645.766 522.83 646.577 527.049 648.219C528.739 648.877 531.401 652.992 534.515 654.018C524.115 687.196 521.188 717.971 518.609 752.172C512.614 713.139 512.966 679.025 513.103 639.729Z" fill="#98F5E1"/>
<path d="M254.954 648.138C242.033 661.794 231.518 677.153 223.779 694.309C210.638 723.441 207.475 758.545 218.972 788.753C228.046 812.595 245.54 832.286 269.033 842.667C294.128 853.755 321.141 852.665 346.373 842.723C418.327 814.372 466.609 709.034 495.325 642.568C499.158 643.483 500.762 643.521 504.736 643.691C497.74 665.224 488.466 685.454 478.332 705.604C441.752 778.337 373.526 887.242 275.887 856.847C211.278 836.734 187.218 760.925 208.219 701.023C212.27 689.469 222.962 666.656 231.143 657.861C233.407 658.085 242.966 651.669 246.327 650.824C249.024 650.145 251.611 648.664 254.954 648.138Z" fill="#98F5E1"/>
<path d="M479.049 645.087C480.333 645.179 488.183 643.889 490.5 643.657C481.922 664.254 472.634 683.951 462.629 703.898C453.118 722.858 443.111 742.083 430.68 759.349C434.408 748.399 439.041 735.749 443.639 725.168C445.972 719.801 450.413 713.517 453.067 707.559C462.162 687.141 471.651 666.203 479.049 645.087Z" fill="#98F5E1"/>
<path d="M508.926 642.392C509.297 652.069 508.533 662.888 508.896 672.566C510.446 713.893 510.337 774.278 535.873 808.536C548.46 825.423 571.801 844.559 590.804 853.58C597.168 856.601 606.117 858.448 613.015 859.404C610.123 862.909 608.235 863.478 606.042 867.668C517.574 845.177 502.115 774.578 496.413 694.152C495.318 678.701 496.906 673.308 503.212 659.371C505.247 654.875 507.533 647.257 508.926 642.392Z" fill="#98F5E1"/>
<path d="M447.486 655.636C449.695 687.935 440.993 721.268 429.768 751.325C427.238 758.102 423.314 769.869 419.219 775.615C406.002 794.164 389.26 811.189 371 824.827C354.317 837.578 333.457 844.61 312.326 840.818C261.861 831.764 225.661 783.901 235.413 732.621C240.953 703.487 254.972 680.801 276.293 660.7C281.62 655.678 287.986 651.501 293.884 647.345C295.191 648.458 295.132 648.44 296.702 649.114C267.068 666.939 252.391 684.389 243.541 717.804C221.612 800.871 311.428 860.912 372.364 792.506C381.839 781.87 390.031 771.402 398.43 759.594C416.148 734.684 446.402 690.728 417.392 663.03C426.082 660.415 437.713 658.449 447.486 655.636Z" fill="#98F5E1"/>
<path d="M451.326 654.191C458.915 652.245 467.368 648.361 474.408 646.81C468.304 662.957 462.075 679.025 455.145 694.838C452.44 701.01 447.732 712.686 444.016 717.89C449.943 694.159 452.861 678.801 451.326 654.191Z" fill="#98F5E1"/>
<path d="M410.925 662.119C423.847 674.749 428.185 684.414 424.181 702.737C420.144 721.206 409.463 736.449 399.06 751.844C385.066 772.353 369.522 794.109 348.485 807.866C316.342 828.887 275.815 817.684 255.86 785.804C231 746.087 246.777 691.345 281.923 663.35C288.26 658.303 295.709 653.973 302.625 649.732C310.031 656.012 358.034 662.569 369.459 663.641C376.805 664.331 404.62 664.673 410.925 662.119Z" fill="#98F5E1"/>
<path d="M583.874 656.68C598.989 651.487 619.335 654.154 633.476 661.234C677.184 683.119 702.246 746.262 681.264 791.3C674.449 805.928 656.535 819.623 640.47 821.825C657.673 759.574 632.618 716.91 580.721 682.543C578.114 680.817 575.286 679.058 572.758 677.214C574.896 673.73 584.62 659.692 583.874 656.68Z" fill="#F1C0E8"/>
<path d="M626.431 846.36C613.74 849.198 590.553 848.509 579.074 841.599C550.484 824.388 521.999 795.249 522.371 759.638C522.738 724.51 527.966 690.846 537.626 657.139C542.904 661.735 551.189 665.508 557.636 668.475C535.759 691.807 537.452 716.07 546.067 745.009C552.433 766.395 559.771 786.428 576.344 802.349C592.131 817.516 615.72 827.908 637.949 826.121C635.865 830.685 626.1 844.428 626.431 846.36Z" fill="#98F5E1"/>
<path d="M561.523 669.706C568.164 663.433 575.309 659.756 583.872 656.68C584.618 659.692 574.894 673.73 572.756 677.214C569.037 675.208 564.794 672.383 561.523 669.706Z" fill="#F9F5ED"/>
<path d="M640.466 821.825C619.355 824.627 596.059 815.782 580.501 801.584C563.501 786.068 556.034 766.042 549.666 744.648C540.725 714.605 539.457 693.751 561.521 669.706C564.792 672.383 569.035 675.208 572.754 677.214C575.282 679.058 578.11 680.817 580.717 682.543C632.614 716.91 657.669 759.574 640.466 821.825Z" fill="#98F5E1"/>
<path d="M604.446 870.719C581.577 894.603 553.183 919.961 521.494 931.299C474.805 948.005 413.273 947.294 365.227 935.194C315.671 921.592 254.881 901.361 217.555 864.762C185.141 832.978 171.923 782.557 184.176 739.298C188.688 723.371 201.021 684.888 214.896 676.417C205.542 694.991 200.138 710.073 197.845 731.155C192.701 778.443 214.218 833.614 259.553 854.499C364.368 902.786 442.639 787.679 481.471 707.531C485.236 699.76 489.321 691.861 492.419 684.178C492.946 723.876 499.881 771.834 518.167 807.449C534.711 839.669 569.02 864.136 604.446 870.719Z" fill="#98F5E1"/>
<path d="M637.948 826.121C682.969 818.277 698.405 777.541 690.692 736.073C687.326 717.977 683.108 711.387 675.628 695.655C692.973 714.864 700.039 736.248 698.949 761.953C697.277 801.39 664.373 837.712 626.43 846.36C626.099 844.428 635.864 830.685 637.948 826.121Z" fill="#F1C0E8"/>
<path d="M593.875 850.596C602.57 851.889 611.898 851.688 620.651 851.379C619.743 852.641 618.229 854.585 617.621 855.938C608.535 855.277 602.111 854.611 593.875 850.596Z" fill="#8EECF5"/>
<path d="M742.746 868.434C741.3 869.198 739.553 869.123 738.177 868.237C736.802 867.35 736.012 865.791 736.11 864.158C736.209 862.524 737.181 861.071 738.653 860.357C740.876 859.279 743.552 860.18 744.669 862.384C745.786 864.588 744.93 867.279 742.746 868.434Z" fill="#FDE4CF"/>
<path d="M720.793 883.075C708.862 881.953 709.067 868.853 719.699 866.055C731.096 867.559 731.056 878.675 720.793 883.075Z" fill="#FDE4CF"/>
<path d="M684.84 880.498C687.032 878.065 688.583 877.247 691.565 876.013C706.833 874.654 708.096 890.644 696.065 896.512C686.083 896.855 681.791 889.63 684.84 880.498Z" fill="#FDE4CF"/>
<path d="M744.035 894.103C735.678 893.227 736.855 887.954 741.973 883.338C749.344 883.983 749.228 889.847 744.035 894.103Z" fill="#FDE4CF"/>
<path d="M712.898 901.521C713.916 895.948 714.107 895.074 718.988 892.056C730.566 891.801 733.946 904.262 724.183 910.108C717.015 910.465 714.727 908.306 712.898 901.521Z" fill="#FDE4CF"/>
</svg>
