<svg width="1024" height="1024" viewBox="0 0 1024 1024" fill="none" xmlns="http://www.w3.org/2000/svg">
<path d="M193.348 725.507C192.595 725.365 191.214 725.066 190.57 724.756C110.391 685.695 85.034 597.155 68.9412 515.847C49.6997 418.63 45.019 299.407 120.375 223.179C123.837 219.677 127.635 216.526 131.483 213.426C194.354 162.778 281.052 140.689 359.353 164.289C368.963 167.185 378.352 170.073 387.671 173.735C394.292 176.305 401.039 180.204 407.619 182.668L408.218 182.889L408.317 183.333C381.234 187.323 353.001 204.357 337.127 226.589C323.139 246.18 324.21 252.705 317.642 272.48C297.136 272.569 260.611 271.193 246.336 286.493C235.898 297.681 236.272 306.893 236.435 321.116L240.081 508.093C223.79 513.704 211.063 520.507 196.712 529.866C116.131 582.417 146.891 663.172 193.348 725.507Z" fill="#F1C0E8"/>
<path d="M408.219 182.889C429.001 179.682 451.048 176.889 472.136 178.226C533.256 182.101 592.762 197.61 653.247 206.151C725.638 216.373 799.611 217.946 860.477 264.152C975.806 351.702 1007.27 550.631 907.875 661.286C876.532 696.182 839.004 718.572 792.868 728.068L792.54 727.955C782.882 701.543 748.574 694.188 724.769 686.22C724.532 685.814 724.296 685.409 724.059 685.004C747.472 684.227 778.853 689.164 783.912 655.213C785.468 644.77 784.178 630.743 784.037 619.873L783.271 554.547C782.686 498.057 784.205 441.499 783.277 384.881C782.406 354.531 781.864 321.533 776.059 291.772C771.101 266.351 720.18 268.258 700.942 268.379L658.579 268.839L545.238 270.248C544.085 270.148 543.712 270.102 542.693 269.395C499.33 239.289 455.02 208.05 408.318 183.333L408.219 182.889Z" fill="#98F5E1"/>
<path d="M317.641 272.48C324.209 252.705 323.138 246.18 337.126 226.589C353 204.357 381.233 187.323 408.316 183.333C455.018 208.05 499.328 239.289 542.691 269.395C543.71 270.102 544.083 270.148 545.236 270.248L317.641 272.48Z" fill="#CFBAF0"/>
<path d="M545.235 270.248L658.576 268.839L700.939 268.379C720.177 268.258 771.098 266.351 776.056 291.772C781.861 321.533 782.403 354.531 783.274 384.881C784.202 441.499 782.683 498.057 783.268 554.547L784.034 619.873C784.175 630.743 785.465 644.771 783.909 655.214C778.85 689.165 747.469 684.228 724.056 685.005C717.847 684.949 711.529 684.976 705.319 685.139C667.752 686.129 629.739 685.557 592.212 686.763C594.591 706.214 601.062 725.923 617.151 737.93C624.969 743.765 629.969 742.999 638.992 745.104C649.686 747.598 662.703 752.042 669.61 761.076L669.702 762.135C666.878 765.43 646.069 764.463 640.93 764.535L601.424 765.375C580.72 765.77 557.589 767.207 537.221 766.589C495.371 766.655 452.1 767.656 410.249 768.521L378.394 769.01C373.845 769.125 362.395 769.888 358.594 769.167C357.02 767.961 357.485 768.719 357.054 766.875C357.956 763.589 361.101 761.32 363.666 759.261C371.539 752.729 381.659 748.841 391.783 747.508C401.997 746.163 406.492 745.002 414.446 738.17C429.613 725.142 433.56 708.243 435.124 689.078C419.89 688.933 403.309 689.494 387.984 689.799L318.666 690.831C305.847 690.954 293.187 690.986 280.237 690.995C262.654 691.006 247.186 679.255 243.451 661.896C242.115 655.686 242.497 646.886 242.435 640.339L242.095 613.117L240.079 508.093L236.433 321.116C236.27 306.893 235.896 297.681 246.334 286.493C260.609 271.193 297.134 272.569 317.64 272.48L545.235 270.248ZM455.052 688.816C449.622 688.882 444.133 688.993 438.707 688.985C434.953 714.799 432.027 728.836 409.897 745.308L409.172 745.845C420.769 745.11 434.538 745.225 446.377 745.047L513.853 744.049C548.427 743.235 584.403 742.598 618.975 742.557C599.011 728.756 592.318 710.055 589.182 686.589C545.4 686.518 499.04 688.07 455.052 688.816ZM505.261 746.902C482.343 746.618 458.648 747.635 435.646 747.941C409.078 748.295 379.71 745.681 360.129 766.526L532.856 763.933L666.563 761.385C649.463 744.454 620.112 745.2 597.805 745.47L558.847 746.081C542.447 746.407 521.063 745.868 505.261 746.902ZM695.903 271.239L431.383 274.404L335.39 274.976C311.125 275.175 266.364 271.178 247.564 288.752C242.582 293.409 239.289 301.962 239.24 308.706C239.153 320.763 239.465 332.947 239.795 345.014L245.48 635.482L323.917 634.011L780.908 626.492C780.983 593.396 780.028 560.302 779.862 527.211C779.519 459.084 782.584 390.453 777.029 322.496C776.244 312.894 774.954 290.252 768.124 283.789C754.422 270.82 722.291 270.838 704.348 271.065L695.903 271.239ZM773.207 629.266L245.444 638.055C245.465 656.29 243.908 669.834 260.234 681.841C265.802 685.431 271.699 688.26 278.426 688.319C293.182 688.448 308.291 688.211 323.042 687.987L398.94 686.768L599.114 683.721L701.876 682.475L736.571 682.036C752.862 681.721 767.156 682.695 776.768 666.751C782.942 656.51 781.109 640.856 780.899 629.19L773.207 629.266Z" fill="#030100"/>
<path d="M245.481 635.481L239.796 345.014C239.466 332.947 239.154 320.763 239.241 308.706C239.29 301.962 242.583 293.409 247.565 288.752C266.365 271.178 311.126 275.175 335.391 274.976L431.384 274.404L695.904 271.239L704.349 271.065C722.292 270.838 754.423 270.82 768.125 283.789C774.955 290.252 776.245 312.894 777.03 322.496C782.585 390.453 779.52 459.083 779.863 527.21C780.029 560.301 780.984 593.395 780.909 626.491L323.918 634.011L245.481 635.481ZM278.407 297.659C268.869 299.189 265.698 302.751 265.558 312.759C265.413 323.052 265.741 333.386 265.858 343.679L266.402 395.292L268.162 507.963L269.387 576.944C269.53 586.58 269.139 602.972 270.022 612.119C273.425 615.914 319.416 613.639 327.909 613.512L436.485 611.647L737.122 607.326C743.241 607.191 749.413 607.001 755.53 607.028L752.562 447.999L750.689 338.715C750.43 325.876 750.668 312.732 750.175 299.963C705.059 299.195 659.605 299.566 614.464 299.235L278.407 297.659Z" fill="#8EECF5"/>
<path d="M737.124 607.326L436.487 611.647L327.911 613.512C319.418 613.639 273.427 615.914 270.024 612.119C269.141 602.972 269.532 586.58 269.389 576.944L268.164 507.963L266.404 395.292L265.86 343.679C265.743 333.386 265.415 323.052 265.56 312.759C265.7 302.751 268.871 299.189 278.409 297.659L614.466 299.235C659.607 299.566 705.061 299.195 750.177 299.963C750.67 312.732 750.432 325.876 750.691 338.715L752.564 447.999L755.532 607.028C749.415 607.001 743.243 607.191 737.124 607.326ZM466.731 323.59C475.458 323.925 486.019 323.549 494.961 323.452L550.125 322.809L747.716 321.515C747.611 315.237 747.445 308.835 747.459 302.568L424.401 300.919L335.668 300.308C317.756 300.118 291.601 299.404 274.029 300.488C271.633 302.191 268.545 304.471 268.31 307.613C267.621 316.805 268.2 327.653 268.315 336.876L269.163 402.633L272.499 611.351C276.853 611.41 281.233 611.497 285.584 611.469C285.254 549.183 283.567 486.05 282.164 423.748L280.857 371.591C280.616 363.316 279.818 347.184 280.462 339.383C281.733 338.455 282.452 338.442 284.218 338.446C304.117 338.487 324.068 338.481 343.966 338.44L484.958 338.011L645.592 337.415C675.082 337.28 707.02 336.389 736.362 336.998C736.54 368.903 737.396 400.507 737.988 432.397L740.688 604.661L753.218 604.477L747.979 323.699L410.749 326.731L313.223 327.636C307.82 327.682 281.688 328.435 278.648 327.558L278.292 326.871L278.771 325.445C282.017 324.818 287.387 325.805 290.925 325.705C333.324 324.5 376.34 325.703 418.686 324.045C421.367 324.212 424.321 324.251 427.015 324.163C440.06 323.734 453.745 324.527 466.731 323.59ZM735.744 422.858C735.273 395.37 735.218 366.35 734.31 339.02L282.275 340.878L285.377 455.926L288.195 611.483C319.871 611.541 352.978 610.663 384.65 610.053L518.88 607.693L664.657 605.684C689.181 605.385 714.075 605.516 738.585 604.737L736.807 484.644C736.427 464.015 736.327 443.506 735.744 422.858Z" fill="#030100"/>
<path d="M466.729 323.59C459.689 322.87 451.55 323.863 444.589 323.482C435.721 322.995 428.428 322.273 419.403 322.796C422.092 323.455 424.532 322.398 426.409 323.274C424.317 323.235 420.043 322.752 418.684 324.045C376.338 325.703 333.322 324.5 290.923 325.705C287.385 325.805 282.015 324.818 278.769 325.445L278.29 326.871L278.646 327.558C281.686 328.435 307.818 327.682 313.221 327.636L410.747 326.731L747.977 323.699L753.216 604.477L740.687 604.661L737.987 432.397C737.395 400.507 736.538 368.903 736.36 336.998C707.018 336.389 675.081 337.28 645.591 337.415L484.956 338.011L343.965 338.44C324.066 338.481 304.115 338.487 284.216 338.446C282.45 338.442 281.731 338.455 280.46 339.383C279.816 347.184 280.614 363.316 280.855 371.591L282.162 423.748C283.565 486.05 285.252 549.183 285.582 611.469C281.231 611.497 276.851 611.41 272.497 611.351L269.161 402.633L268.313 336.876C268.198 327.653 267.619 316.805 268.308 307.613C268.543 304.471 271.631 302.191 274.027 300.488C291.599 299.404 317.754 300.118 335.666 300.308L424.399 300.919L747.458 302.568C747.444 308.835 747.609 315.237 747.714 321.515L550.123 322.809L494.959 323.452C486.017 323.549 475.456 323.925 466.729 323.59ZM284.477 308.38C278.042 313.707 280.988 318.956 288.777 318.553C295.134 314.132 290.328 308.541 284.477 308.38ZM704.474 308.512C698.559 312.736 700.141 317.661 707.672 317.545C714.02 313.949 710.972 308.791 704.474 308.512ZM729.06 308.748C726.591 309.61 725.299 312.321 726.185 314.781C727.072 317.242 729.796 318.507 732.247 317.596C734.665 316.697 735.908 314.02 735.034 311.594C734.16 309.168 731.495 307.898 729.06 308.748ZM305.005 308.957C298.624 311.795 299.429 317.459 306.398 318.998C314.074 316.86 311.995 309.923 305.005 308.957ZM325.464 309.247C322.721 310.065 321.141 312.933 321.916 315.689C322.691 318.445 325.533 320.07 328.301 319.339C330.131 318.855 331.558 317.423 332.036 315.592C332.513 313.76 331.965 311.814 330.604 310.499C329.242 309.185 327.278 308.706 325.464 309.247ZM347.198 309.511C339.793 315.063 343.985 320.043 351.814 319.546C357.858 315.376 353.979 308.882 347.198 309.511Z" fill="url(#paint0_linear_41_16562)"/>
<path d="M288.782 318.553C280.993 318.956 278.047 313.707 284.482 308.38C290.333 308.541 295.139 314.132 288.782 318.553ZM285.619 310.959C284.587 311.266 283.823 312.139 283.655 313.203C283.487 314.267 283.946 315.332 284.834 315.942C285.722 316.551 286.881 316.596 287.813 316.057C289.039 315.348 289.541 313.834 288.981 312.533C288.421 311.233 286.977 310.556 285.619 310.959Z" fill="#030100"/>
<path d="M707.674 317.545C700.143 317.661 698.561 312.736 704.476 308.512C710.974 308.791 714.022 313.949 707.674 317.545ZM704.886 311.028C704.165 311.433 703.719 312.198 703.723 313.026C703.726 313.854 704.178 314.615 704.903 315.014C705.628 315.413 706.513 315.389 707.214 314.949C708.264 314.292 708.598 312.917 707.966 311.852C707.334 310.787 705.966 310.421 704.886 311.028Z" fill="#030100"/>
<path d="M732.248 317.596C729.797 318.507 727.073 317.242 726.186 314.781C725.3 312.321 726.592 309.61 729.061 308.748C731.496 307.898 734.161 309.168 735.035 311.594C735.909 314.02 734.666 316.697 732.248 317.596ZM729.636 311.202C728.544 311.712 728.064 313.005 728.561 314.103C729.057 315.202 730.345 315.696 731.449 315.212C732.175 314.894 732.673 314.211 732.754 313.423C732.836 312.635 732.487 311.864 731.842 311.404C731.197 310.945 730.354 310.868 729.636 311.202Z" fill="#030100"/>
<path d="M306.401 318.998C299.432 317.459 298.627 311.795 305.008 308.957C311.998 309.923 314.077 316.86 306.401 318.998ZM303.04 311.387C302.92 313.206 302.717 313.875 303.509 315.527C305.244 316.715 305.969 316.633 308.261 316.456C308.623 314.71 308.938 314.112 308.164 312.522C306.715 311.328 304.964 311.435 303.04 311.387Z" fill="#030100"/>
<path d="M328.301 319.339C325.533 320.07 322.691 318.445 321.916 315.689C321.141 312.933 322.721 310.065 325.464 309.247C327.278 308.706 329.242 309.185 330.604 310.499C331.965 311.814 332.513 313.76 332.036 315.592C331.558 317.423 330.131 318.855 328.301 319.339ZM325.43 311.746C324.061 312.694 323.72 314.571 324.669 315.939C325.617 317.307 327.495 317.646 328.862 316.696C330.228 315.748 330.566 313.873 329.619 312.507C328.672 311.141 326.797 310.8 325.43 311.746Z" fill="#030100"/>
<path d="M351.813 319.546C343.984 320.043 339.791 315.063 347.196 309.511C353.977 308.882 357.857 315.376 351.813 319.546ZM346.869 311.985C345.781 313.969 345.801 313.297 345.863 315.31C347.547 317.687 348.909 317.518 351.62 317.361C352.857 315.429 352.742 316.172 352.796 314.099C351.259 311.81 349.479 311.762 346.869 311.985Z" fill="#030100"/>
<path d="M287.809 316.057C286.877 316.596 285.718 316.551 284.83 315.942C283.942 315.332 283.483 314.267 283.651 313.203C283.819 312.139 284.583 311.266 285.615 310.959C286.973 310.556 288.417 311.233 288.977 312.533C289.537 313.834 289.035 315.348 287.809 316.057Z" fill="#FFEDE1"/>
<path d="M707.218 314.949C706.517 315.389 705.632 315.413 704.907 315.014C704.182 314.615 703.73 313.854 703.727 313.026C703.723 312.198 704.169 311.433 704.89 311.028C705.97 310.421 707.337 310.787 707.969 311.852C708.601 312.917 708.268 314.292 707.218 314.949Z" fill="#FBF8CC"/>
<path d="M731.451 315.212C730.347 315.696 729.059 315.202 728.563 314.103C728.066 313.005 728.546 311.712 729.638 311.202C730.356 310.868 731.199 310.945 731.844 311.404C732.489 311.864 732.838 312.635 732.756 313.423C732.675 314.211 732.177 314.894 731.451 315.212Z" fill="#FBF8CC"/>
<path d="M308.258 316.456C305.966 316.633 305.241 316.715 303.506 315.527C302.714 313.875 302.917 313.206 303.037 311.387C304.961 311.435 306.712 311.328 308.161 312.522C308.935 314.112 308.62 314.71 308.258 316.456Z" fill="#FFEDE1"/>
<path d="M328.863 316.696C327.496 317.646 325.618 317.307 324.67 315.939C323.721 314.571 324.062 312.694 325.431 311.746C326.798 310.8 328.673 311.141 329.62 312.507C330.567 313.873 330.229 315.748 328.863 316.696Z" fill="#FFEDE1"/>
<path d="M351.624 317.361C348.913 317.518 347.551 317.687 345.867 315.31C345.805 313.297 345.785 313.969 346.873 311.985C349.483 311.762 351.263 311.81 352.8 314.099C352.746 316.172 352.861 315.429 351.624 317.361Z" fill="#FFEDE1"/>
<path d="M418.688 324.045C420.046 322.752 424.32 323.235 426.412 323.274C424.535 322.398 422.095 323.455 419.406 322.796C428.431 322.273 435.724 322.995 444.592 323.482C451.553 323.863 459.692 322.87 466.732 323.59C453.746 324.527 440.061 323.734 427.016 324.163C424.322 324.251 421.368 324.212 418.688 324.045Z" fill="#FBF8CC"/>
<path d="M679.764 360.117C665.364 360.437 525.914 360.566 523.171 362.051L523.11 363.3C522.67 372.087 522.976 382.083 522.96 390.957C522.951 396.178 522.849 406.197 523.449 411.175C523.169 434.743 524.59 461.488 523.817 484.392C502.499 489.24 468.566 493.598 447.006 491.331C428.536 489.389 405.947 481.966 388.588 475.918C362.365 466.782 335.998 457.827 308.072 455.859C302.317 455.453 291.1 454.967 285.375 455.926L282.273 340.878L734.308 339.02C735.216 366.35 735.271 395.37 735.742 422.858C735.158 424.424 735.417 424.745 733.639 425.358C715.913 431.473 698.554 439.089 680.994 445.502C680.609 417.26 680.726 388.205 679.764 360.117Z" fill="#FBF8CC"/>
<path d="M524.549 363.437C523.757 368.053 524.537 372.796 523.864 377.426C523.574 374.109 523.559 365.193 523.109 363.3L523.17 362.051C525.913 360.566 665.363 360.437 679.763 360.117C680.725 388.205 680.608 417.26 680.993 445.502C681.697 492.292 681.62 540.082 682.841 586.738C662.373 587.354 641.037 587.169 620.509 587.284L524.596 588.031L523.816 484.392C524.589 461.488 523.168 434.743 523.448 411.175C523.722 407.95 523.869 404.915 524.006 401.682C524.399 404.737 524.317 412.536 525.004 413.867C525.952 428.469 525.481 447.555 525.683 462.512L526.753 585.563C541.712 585.894 557.963 585.543 573.001 585.491L680.509 584.419C680.893 561.017 680.186 536.188 679.93 512.687L677.808 362.011L524.549 363.437Z" fill="#030100"/>
<path d="M524.555 363.437L677.814 362.011L679.936 512.687C680.192 536.188 680.899 561.017 680.515 584.419L573.007 585.491C557.969 585.543 541.718 585.894 526.759 585.563L525.689 462.512C525.487 447.555 525.958 428.469 525.01 413.867C525.228 412.072 525.21 396.954 525.087 394.36C524.694 386.074 525.677 370.832 524.555 363.437ZM539.006 379.191L539.372 380.63C541.235 381.124 555.037 380.884 558.002 380.89C574.593 380.922 591.341 381.029 607.93 380.638L607.803 379.184C606.668 378.776 544.644 378.777 539.006 379.191ZM617.851 379.247L617.111 380.07L617.514 380.735C620.568 381.334 627.459 380.915 630.892 380.888C639.749 380.82 648.659 380.55 657.532 380.549L658.406 380.13L658.311 379.309C654.853 378.169 623.595 379.077 617.851 379.247ZM636.067 387.745C632.557 387.766 618.066 387.192 616.131 389.031C618.945 389.811 636.356 389.529 639.944 389.511C644.328 389.554 654.789 390.156 658.405 388.799C656.728 387.627 639.451 387.741 636.067 387.745ZM593.713 388.271C584.707 388.386 551.047 388.577 539.796 389.057C539.578 389.278 539.361 389.499 539.143 389.72L539.441 390.541C541.309 391.013 549.448 390.585 551.826 390.532C559.73 390.467 602.725 390.438 606.982 388.917C604.399 387.587 596.863 388.122 593.713 388.271ZM553.735 397.737C550 397.803 543.03 397.616 539.618 398.469L539.359 399.216C542.993 400.549 553.11 399.665 557.502 399.613L592.377 399.481C595.499 399.53 605.011 400.151 607.177 398.594L606.831 397.739C601.974 396.358 560.971 397.572 553.735 397.737ZM614.964 397.68C615.693 398.647 615.776 399.223 617.16 399.194C632.074 398.883 648.941 400.081 663.716 398.964L663.634 397.936C662.361 397.079 619.027 397.2 614.964 397.68ZM573.216 406.738C569.308 406.804 541.196 407.043 539.629 407.996C545.12 410.101 565.769 408.513 573.377 408.522C577.46 408.518 605.792 408.849 607.44 407.733C603.09 405.595 579.764 406.672 573.216 406.738ZM615.357 407.652C616.051 408.669 615.93 408.994 617.434 409.04C622.952 409.21 629.498 409.368 634.96 409.21C644.397 408.938 655.622 409.637 664.837 408.92L664.149 407.788C660.319 406.95 620.433 407.048 615.357 407.652ZM562.574 417.25C559.231 417.303 541.143 417.238 539.612 418.199C540.046 418.816 540.367 419.373 541.296 419.365C555.499 419.234 569.83 418.931 584.04 418.821C588.162 418.833 604.858 419.198 607.454 418.043C602.639 415.755 570.154 417.036 562.574 417.25ZM616.611 417.235L617.304 418.554C620.86 419.352 661.394 419.277 664.221 418.333C663.897 418.048 663.572 417.764 663.247 417.479C648.819 417.592 630.829 416.049 616.611 417.235ZM539.853 427.186C540.142 427.855 540.282 428.616 540.854 428.628C560.306 429.021 589.367 428.499 607.837 428.454L607.736 427.243C605.611 426.238 545.861 426.746 539.853 427.186ZM616.584 427.245C617.696 428.443 618.119 428.709 619.926 428.622C633.85 427.955 650.749 430.103 664.365 428.413L663.647 427.329C659.909 426.783 646.713 426.953 642.152 427.036C635.4 427.159 622.908 426.581 616.584 427.245ZM616.035 435.686L616.426 436.954C620.249 438.186 657.657 437.173 663.855 436.988L663.804 435.73C662.043 435.336 648.671 435.372 646.087 435.463C636.604 435.798 625.328 435.156 616.035 435.686ZM567.416 436.239C563.801 436.297 541.794 436.207 540.23 437.336C542.885 439.006 576.223 437.859 581.627 437.812C589.051 437.727 599.396 437.864 606.535 437.187L606.91 436.759L607.337 436.822C601.317 435.19 574.8 436.151 567.416 436.239ZM639.218 445.74C635.968 445.777 617.698 445.738 616.133 446.557C621.938 448.37 636.497 447.468 643.455 447.463C647.462 447.453 662.089 447.598 665.2 447.066L665.344 446.454C660.037 444.787 645.585 445.68 639.218 445.74ZM540.322 446.191L540.33 447.511C542.08 448.456 551.329 447.998 553.867 447.986L607.402 447.625L607.888 446.486C607.687 446.305 607.486 446.125 607.285 445.944C590.271 445.818 555.786 446.103 540.322 446.191ZM569.287 454.728C563.882 454.897 544.274 454.692 541.109 456.685C542.959 457.597 574.607 456.444 579.512 456.433C584.719 456.315 604.592 456.653 607.348 454.951C604.722 453.84 574.186 454.54 569.287 454.728ZM622.11 454.746C619.45 454.773 618.074 454.626 615.527 455.461C619.396 458.028 652.749 456.838 659.377 456.81C661.558 456.897 664.674 457.352 665.969 455.172C663.543 453.877 627.735 454.688 622.11 454.746ZM536.856 476.689C537.44 477.618 537.674 478.491 538.825 478.497C547.993 478.542 558.895 478.506 567.925 478.521L620.018 478.55C624.992 478.546 644.848 479.08 648.162 477.95C646.977 476.953 647.169 477.048 645.21 477.01C639.266 476.895 633.213 476.92 627.263 476.906L589.135 476.912C573.717 476.889 551.618 475.853 536.856 476.689ZM537.655 484.732L538.073 486.178C539.608 486.742 601.044 486.855 605.669 486.323C605.297 485.586 605.27 485.102 604.579 485.085C584.98 484.582 556.666 484.3 537.655 484.732ZM614.033 485.719C615.699 487.42 616.59 487.07 619.386 487.103L648.179 487.24C653.872 487.265 661.456 487.515 666.888 487.019L666.143 485.821C661.269 484.994 617.513 484.925 614.033 485.719ZM538.311 494.735L537.809 495.828C538.939 496.954 546.431 496.567 548.307 496.528C567.489 496.128 587.08 497.094 606.216 496.472L606.101 495.465C603.943 493.892 545.515 494.75 538.311 494.735ZM613.859 494.727L613.388 495.778C615.374 497.368 659.682 496.394 666.351 496.344L666.864 495.485C665.933 494.466 664.951 494.477 663.317 494.501C646.918 494.734 630.243 494.473 613.859 494.727ZM537.515 504.226L538.257 505.754C548.969 506.802 566.815 505.493 578.21 506.06C581.793 506.239 604.45 506.317 606.906 505.822C605.519 504.367 605.192 504.392 602.692 504.382C589.058 504.328 575.146 503.965 561.539 504.06C554.982 504.106 543.745 503.632 537.515 504.226ZM621.346 504.756C618.435 504.741 616.756 504.511 614.029 505.547L613.783 506.018C617.656 506.743 627.123 506.506 631.355 506.495L660.127 506.366C662.904 506.393 664.554 506.663 667.056 505.489L667.182 505.014C662.793 504.051 628.204 504.697 621.346 504.756ZM537.783 513.193L538.342 514.171C541.348 514.895 603.18 515.008 607.229 514.412C606.429 513.362 606.534 513.011 604.904 513.027C595.685 513.12 584.05 512.513 575.053 512.906C564.707 513.357 547.379 512.073 537.783 513.193ZM614.777 513.206L615.277 514.488C618.028 515.096 630.444 514.971 633.881 514.915C644.564 514.743 656.222 515.244 666.815 514.713L666.689 513.671C663.808 512.738 620.077 512.862 614.777 513.206ZM538.066 522.685C539.968 524.623 543.474 524.156 546.541 524.108C566.373 523.797 588.42 525.087 608.018 524.263L607.135 522.775C602.658 522.066 541.379 521.839 538.066 522.685ZM615.016 523.203C615.231 523.932 615.287 524.802 615.797 524.796C625.885 524.671 659.941 525.857 667.355 524.451L667.274 523.372C665.104 522.608 620.449 523.053 615.016 523.203ZM567.265 531.75C562.231 531.76 542.231 531.072 539.148 532.897C541.214 533.905 574.857 533.618 579.877 533.626C584.509 533.691 604.567 534.64 607.157 532.873C604.486 531.483 572.193 531.778 567.265 531.75ZM615.1 532.24L615.389 533.619C616.912 534.28 662.821 534.128 667.65 533.792L667.165 532.719C662.626 531.43 622.163 532.017 615.1 532.24ZM538.988 541.714C540.276 543.075 540.161 543.114 542.732 543.127C556.491 543.196 570.53 543.409 584.262 543.418C589.425 543.422 604.062 544.016 608.106 543.272C607.718 542.904 607.33 542.537 606.942 542.169C601.016 541.401 594.851 541.525 588.866 541.503C573.328 541.446 557.785 541.402 542.246 541.407C541.23 541.407 539.992 541.55 538.988 541.714ZM622.001 541.76C619.247 541.758 617.98 541.549 615.434 542.629L615.482 543.056C619.285 543.679 627.665 543.463 631.788 543.458L660.252 543.399C662.788 543.5 664.562 543.832 666.843 542.808L667.361 542.099C665.102 541.058 627.321 541.673 622.001 541.76ZM539.04 550.188L539.496 551.4C542.348 551.845 564.345 551.72 568.948 551.628C580.942 551.388 595.876 552.432 607.323 551.873L606.655 550.788C599.779 549.475 546.573 549.247 539.04 550.188ZM615.263 550.735L615.799 551.956C619.061 553.006 662.273 552.654 668.099 552.298L667.711 550.993C664.088 549.787 621.839 550.543 615.263 550.735ZM539.524 559.219L539.825 560.665C540.269 560.817 604.219 561.605 607.986 561.336L607.561 559.958C605.237 558.827 546.868 558.968 539.524 559.219Z" fill="url(#paint1_linear_41_16562)"/>
<path d="M523.114 363.3C523.564 365.193 523.579 374.109 523.869 377.426C524.542 372.796 523.762 368.053 524.554 363.437C525.676 370.832 524.693 386.074 525.086 394.36C525.209 396.954 525.227 412.072 525.009 413.867C524.322 412.536 524.404 404.737 524.011 401.682C523.874 404.915 523.727 407.95 523.453 411.175C522.853 406.197 522.955 396.178 522.964 390.957C522.98 382.083 522.674 372.087 523.114 363.3Z" fill="#312502"/>
<path d="M607.932 380.638C591.343 381.029 574.595 380.922 558.004 380.89C555.039 380.884 541.237 381.124 539.374 380.63L539.008 379.191C544.646 378.777 606.67 378.776 607.805 379.184L607.932 380.638Z" fill="#312502"/>
<path d="M657.53 380.549C648.657 380.55 639.747 380.82 630.89 380.888C627.457 380.915 620.566 381.334 617.512 380.735L617.109 380.07L617.849 379.247C623.593 379.077 654.851 378.169 658.309 379.309L658.404 380.13L657.53 380.549Z" fill="#030100"/>
<path d="M639.946 389.511C636.358 389.529 618.947 389.811 616.133 389.031C618.068 387.192 632.559 387.766 636.069 387.745C639.453 387.741 656.73 387.627 658.407 388.799C654.791 390.156 644.33 389.554 639.946 389.511Z" fill="#030100"/>
<path d="M551.824 390.533C549.446 390.586 541.307 391.013 539.439 390.541L539.141 389.72C539.359 389.499 539.576 389.278 539.794 389.057C551.045 388.577 584.705 388.386 593.711 388.271C596.861 388.122 604.397 387.587 606.98 388.917C602.723 390.438 559.728 390.468 551.824 390.533Z" fill="#030100"/>
<path d="M592.377 399.481L557.502 399.613C553.11 399.665 542.993 400.549 539.359 399.216L539.618 398.469C543.03 397.616 550 397.803 553.735 397.737C560.971 397.572 601.974 396.358 606.831 397.739L607.177 398.594C605.011 400.151 595.499 399.53 592.377 399.481Z" fill="#2C1801"/>
<path d="M663.713 398.964C648.938 400.081 632.071 398.883 617.157 399.194C615.773 399.223 615.69 398.647 614.961 397.68C619.024 397.2 662.358 397.079 663.631 397.936L663.713 398.964Z" fill="#030100"/>
<path d="M573.373 408.522C565.765 408.513 545.116 410.101 539.625 407.996C541.192 407.043 569.304 406.804 573.212 406.738C579.76 406.672 603.086 405.595 607.436 407.733C605.788 408.849 577.456 408.518 573.373 408.522Z" fill="#2C1801"/>
<path d="M664.832 408.92C655.617 409.637 644.392 408.938 634.955 409.21C629.493 409.368 622.947 409.21 617.429 409.04C615.925 408.994 616.046 408.669 615.352 407.652C620.428 407.048 660.314 406.95 664.144 407.788L664.832 408.92Z" fill="#030100"/>
<path d="M584.037 418.821C569.827 418.931 555.496 419.234 541.293 419.365C540.364 419.373 540.043 418.816 539.609 418.199C541.14 417.238 559.228 417.303 562.571 417.25C570.151 417.036 602.636 415.755 607.451 418.043C604.855 419.198 588.159 418.833 584.037 418.821Z" fill="#312502"/>
<path d="M664.219 418.333C661.392 419.277 620.858 419.352 617.302 418.554L616.609 417.235C630.827 416.049 648.817 417.592 663.245 417.479C663.57 417.764 663.895 418.048 664.219 418.333Z" fill="#312502"/>
<path d="M735.742 422.858C736.325 443.506 736.425 464.015 736.805 484.644L738.583 604.737C714.073 605.516 689.179 605.385 664.655 605.684L518.878 607.693L384.648 610.053C352.976 610.663 319.869 611.541 288.193 611.483L285.375 455.926C291.1 454.967 302.317 455.453 308.072 455.859C335.998 457.827 362.365 466.782 388.588 475.918C405.947 481.966 428.536 489.389 447.006 491.331C468.566 493.598 502.499 489.24 523.817 484.392L524.597 588.031L620.51 587.284C641.038 587.169 662.374 587.354 682.842 586.738C681.621 540.082 681.698 492.292 680.994 445.502C698.554 439.089 715.913 431.473 733.639 425.358C735.417 424.745 735.158 424.424 735.742 422.858Z" fill="#FDE4CF"/>
<path d="M607.836 428.454C589.366 428.499 560.305 429.021 540.853 428.628C540.281 428.616 540.141 427.855 539.852 427.186C545.86 426.746 605.61 426.238 607.735 427.243L607.836 428.454Z" fill="#030100"/>
<path d="M664.359 428.413C650.743 430.103 633.844 427.955 619.92 428.622C618.113 428.709 617.69 428.443 616.578 427.245C622.902 426.581 635.394 427.159 642.146 427.036C646.707 426.953 659.903 426.783 663.641 427.329L664.359 428.413Z" fill="#312502"/>
<path d="M663.851 436.988C657.653 437.173 620.245 438.186 616.422 436.954L616.031 435.686C625.324 435.156 636.6 435.798 646.083 435.463C648.667 435.372 662.039 435.336 663.8 435.73L663.851 436.988Z" fill="#030100"/>
<path d="M581.624 437.812C576.22 437.859 542.882 439.006 540.227 437.336C541.791 436.207 563.798 436.297 567.413 436.239C574.797 436.151 601.314 435.19 607.334 436.822L606.907 436.759L606.532 437.187C599.393 437.864 589.048 437.727 581.624 437.812Z" fill="#2C1801"/>
<path d="M643.455 447.463C636.497 447.468 621.938 448.37 616.133 446.557C617.698 445.738 635.968 445.777 639.218 445.74C645.585 445.68 660.037 444.787 665.344 446.454L665.2 447.066C662.089 447.598 647.462 447.453 643.455 447.463Z" fill="#030100"/>
<path d="M607.4 447.625L553.865 447.986C551.327 447.998 542.078 448.456 540.328 447.511L540.32 446.191C555.784 446.103 590.269 445.818 607.283 445.944C607.484 446.125 607.685 446.305 607.886 446.486L607.4 447.625Z" fill="#030100"/>
<path d="M579.512 456.433C574.607 456.444 542.959 457.597 541.109 456.685C544.274 454.692 563.882 454.897 569.287 454.728C574.186 454.54 604.722 453.84 607.348 454.951C604.592 456.653 584.719 456.315 579.512 456.433Z" fill="#2C1801"/>
<path d="M659.373 456.81C652.745 456.838 619.392 458.028 615.523 455.461C618.07 454.626 619.446 454.773 622.106 454.746C627.731 454.688 663.539 453.877 665.965 455.172C664.67 457.352 661.554 456.897 659.373 456.81Z" fill="#270600"/>
<path d="M648.158 477.95C644.844 479.08 624.988 478.546 620.014 478.55L567.921 478.521C558.891 478.506 547.989 478.542 538.821 478.497C537.67 478.491 537.436 477.618 536.852 476.689C551.614 475.853 573.713 476.889 589.131 476.912L627.259 476.906C633.209 476.92 639.262 476.895 645.206 477.01C647.165 477.048 646.973 476.953 648.158 477.95Z" fill="#030100"/>
<path d="M605.67 486.323C601.045 486.855 539.609 486.742 538.074 486.178L537.656 484.732C556.667 484.3 584.981 484.582 604.58 485.085C605.271 485.102 605.298 485.586 605.67 486.323Z" fill="#030100"/>
<path d="M666.886 487.019C661.454 487.515 653.87 487.265 648.177 487.24L619.384 487.103C616.588 487.07 615.697 487.42 614.031 485.719C617.511 484.925 661.267 484.994 666.141 485.821L666.886 487.019Z" fill="#030100"/>
<path d="M606.212 496.472C587.076 497.094 567.485 496.128 548.303 496.528C546.427 496.567 538.935 496.954 537.805 495.828L538.307 494.735C545.511 494.75 603.939 493.892 606.097 495.465L606.212 496.472Z" fill="#030100"/>
<path d="M666.346 496.344C659.677 496.394 615.369 497.368 613.383 495.778L613.854 494.727C630.238 494.473 646.913 494.734 663.312 494.501C664.946 494.477 665.928 494.466 666.859 495.485L666.346 496.344Z" fill="#030100"/>
<path d="M606.907 505.822C604.451 506.317 581.794 506.239 578.211 506.06C566.816 505.493 548.97 506.802 538.258 505.754L537.516 504.226C543.746 503.632 554.983 504.106 561.54 504.06C575.147 503.965 589.059 504.328 602.693 504.382C605.193 504.392 605.52 504.367 606.907 505.822Z" fill="#030100"/>
<path d="M660.125 506.366L631.353 506.495C627.121 506.506 617.654 506.743 613.781 506.018L614.027 505.547C616.754 504.511 618.433 504.741 621.344 504.756C628.202 504.697 662.791 504.051 667.18 505.014L667.054 505.489C664.552 506.663 662.902 506.393 660.125 506.366Z" fill="#030100"/>
<path d="M193.349 725.507C146.892 663.172 116.132 582.417 196.713 529.866C211.064 520.507 223.791 513.704 240.082 508.093L242.098 613.117L242.438 640.339C242.5 646.886 242.118 655.686 243.454 661.896C247.189 679.255 262.657 691.005 280.24 690.994C293.19 690.985 305.85 690.953 318.669 690.83L387.987 689.799C403.312 689.494 419.893 688.932 435.127 689.077C433.563 708.242 429.616 725.142 414.449 738.17C406.495 745.002 402 746.162 391.786 747.507C381.662 748.84 371.542 752.729 363.669 759.261C361.104 761.32 357.959 763.589 357.057 766.875C357.488 768.719 357.023 767.961 358.597 769.167C362.398 769.888 373.848 769.125 378.397 769.01L410.252 768.52C452.103 767.655 495.374 766.654 537.224 766.588C541.725 767.211 556.771 783.615 560.966 788.133C566.6 794.201 576.896 802.467 581.606 808.495C530.991 829.749 491.575 843.641 436.065 846.801C329.215 852.882 256.274 808.577 193.349 725.507Z" fill="#90DBF4"/>
<path d="M607.227 514.412C603.178 515.008 541.346 514.895 538.34 514.171L537.781 513.193C547.377 512.073 564.705 513.357 575.051 512.906C584.048 512.513 595.683 513.12 604.902 513.027C606.532 513.011 606.427 513.362 607.227 514.412Z" fill="#030100"/>
<path d="M666.811 514.713C656.218 515.244 644.56 514.743 633.877 514.915C630.44 514.971 618.024 515.096 615.273 514.488L614.773 513.206C620.073 512.862 663.804 512.738 666.685 513.671L666.811 514.713Z" fill="#030100"/>
<path d="M608.014 524.263C588.416 525.087 566.369 523.797 546.537 524.108C543.47 524.156 539.964 524.623 538.062 522.685C541.375 521.839 602.654 522.066 607.131 522.775L608.014 524.263Z" fill="#030100"/>
<path d="M667.355 524.451C659.941 525.857 625.885 524.671 615.797 524.796C615.287 524.802 615.231 523.932 615.016 523.203C620.449 523.053 665.104 522.608 667.274 523.372L667.355 524.451Z" fill="#030100"/>
<path d="M579.877 533.626C574.857 533.618 541.214 533.905 539.148 532.897C542.231 531.072 562.231 531.76 567.265 531.75C572.193 531.778 604.486 531.483 607.157 532.873C604.567 534.64 584.509 533.691 579.877 533.626Z" fill="#030100"/>
<path d="M667.652 533.792C662.823 534.128 616.914 534.28 615.391 533.619L615.102 532.24C622.165 532.017 662.628 531.43 667.167 532.719L667.652 533.792Z" fill="#030100"/>
<path d="M608.102 543.272C604.058 544.016 589.421 543.422 584.258 543.418C570.526 543.409 556.487 543.196 542.728 543.127C540.157 543.114 540.272 543.075 538.984 541.714C539.988 541.55 541.226 541.407 542.242 541.407C557.781 541.402 573.324 541.446 588.862 541.503C594.847 541.525 601.012 541.401 606.938 542.169C607.326 542.537 607.714 542.904 608.102 543.272Z" fill="#030100"/>
<path d="M660.248 543.399L631.784 543.458C627.661 543.463 619.281 543.679 615.478 543.056L615.43 542.629C617.976 541.549 619.243 541.758 621.997 541.76C627.317 541.673 665.098 541.058 667.357 542.099L666.839 542.808C664.558 543.832 662.784 543.5 660.248 543.399Z" fill="#030100"/>
<path d="M607.322 551.873C595.875 552.432 580.941 551.388 568.947 551.628C564.344 551.72 542.347 551.845 539.495 551.4L539.039 550.188C546.572 549.247 599.778 549.475 606.654 550.788L607.322 551.873Z" fill="#030100"/>
<path d="M668.094 552.298C662.268 552.654 619.056 553.006 615.794 551.956L615.258 550.735C621.834 550.543 664.083 549.787 667.706 550.993L668.094 552.298Z" fill="#030100"/>
<path d="M607.985 561.336C604.218 561.605 540.268 560.817 539.824 560.665L539.523 559.219C546.867 558.968 605.236 558.827 607.56 559.958L607.985 561.336Z" fill="#030100"/>
<path d="M245.446 638.054L773.209 629.266L780.901 629.189C781.111 640.855 782.944 656.51 776.77 666.751C767.158 682.695 752.864 681.721 736.573 682.036L701.878 682.475L599.116 683.721L398.942 686.767L323.044 687.987C308.293 688.211 293.184 688.448 278.428 688.319C271.701 688.26 265.804 685.43 260.236 681.84C243.91 669.833 245.467 656.289 245.446 638.054ZM511.826 641.597C491.261 647.496 499.347 670.889 519.944 669.293C524.043 667.78 529.143 664.858 530.408 660.587C534.757 645.911 523.535 640.772 511.826 641.597Z" fill="#8EECF5"/>
<path d="M519.945 669.293C499.348 670.889 491.262 647.496 511.827 641.597C523.536 640.772 534.758 645.911 530.409 660.587C529.144 664.858 524.044 667.78 519.945 669.293ZM515.164 644.175C497.939 645.989 498.385 663.756 515.853 666.651C532.437 666.173 533.93 644.66 515.164 644.175Z" fill="#030100"/>
<path d="M515.858 666.651C498.39 663.756 497.944 645.989 515.169 644.175C533.935 644.66 532.442 666.173 515.858 666.651Z" fill="#8EECF5"/>
<path d="M592.218 686.762C629.745 685.556 667.758 686.129 705.325 685.139C711.535 684.976 717.853 684.948 724.062 685.004C724.299 685.409 724.535 685.814 724.772 686.22C748.577 694.188 782.885 701.543 792.543 727.955C768.971 733.139 745.436 737.833 722.44 745.324C684.832 757.575 648.69 774.972 613.635 793.156C603.12 798.611 592.919 804.1 581.932 808.546L581.609 808.495C576.899 802.467 566.603 794.201 560.969 788.133C556.774 783.615 541.728 767.211 537.227 766.588C557.595 767.206 580.726 765.769 601.43 765.374L640.936 764.535C646.075 764.463 666.884 765.43 669.708 762.135L669.616 761.076C662.709 752.042 649.692 747.598 638.998 745.104C629.975 742.999 624.975 743.765 617.157 737.93C601.068 725.923 594.597 706.213 592.218 686.762Z" fill="#B9FBC0"/>
<path d="M455.055 688.816C499.043 688.07 545.403 686.518 589.185 686.589C592.321 710.055 599.014 728.755 618.978 742.556C584.406 742.597 548.43 743.235 513.856 744.049C512.422 741.115 505.567 735.967 502.857 733.298C496.811 727.345 488.944 720.27 482.97 714.49C477.592 709.287 458.445 693.878 455.055 688.816Z" fill="#B9FBC0"/>
<path d="M438.715 688.985C444.141 688.993 449.63 688.882 455.06 688.816C458.45 693.878 477.597 709.287 482.975 714.49C488.949 720.27 496.816 727.345 502.862 733.298C505.572 735.967 512.427 741.115 513.861 744.049L446.385 745.046C434.546 745.224 420.777 745.11 409.18 745.845L409.905 745.308C432.035 728.836 434.961 714.799 438.715 688.985Z" fill="#90DBF4"/>
<path d="M581.93 808.546C592.917 804.1 603.118 798.611 613.633 793.156C648.688 774.972 684.83 757.575 722.438 745.324C745.434 737.833 768.969 733.139 792.541 727.955L792.869 728.068C797.239 743.594 791.556 761.95 783.799 775.841C753.665 829.8 670.609 863.846 613.822 833.142C601.864 826.676 591.958 817.511 581.93 808.546Z" fill="#FBF8CC"/>
<path d="M505.266 746.902C521.068 745.868 542.452 746.406 558.852 746.08L597.81 745.47C620.117 745.2 649.468 744.454 666.568 761.385L532.861 763.933L533.786 762.996C532.927 760.042 520.275 750.335 517.212 747.031C513.12 747.097 509.363 747.201 505.266 746.902Z" fill="#B9FBC0"/>
<path d="M360.133 766.525C379.714 745.68 409.082 748.295 435.65 747.941C458.652 747.635 482.347 746.618 505.265 746.902C509.362 747.201 513.119 747.097 517.211 747.031C520.274 750.335 532.926 760.042 533.785 762.996L532.86 763.933L360.133 766.525Z" fill="#90DBF4"/>
<defs>
<linearGradient id="paint0_linear_41_16562" x1="528.406" y1="628.116" x2="489.698" y2="277.31" gradientUnits="userSpaceOnUse">
<stop stop-color="#FDCDBF"/>
<stop offset="1" stop-color="#FFF3D1"/>
</linearGradient>
<linearGradient id="paint1_linear_41_16562" x1="578.56" y1="353.734" x2="625.386" y2="593.472" gradientUnits="userSpaceOnUse">
<stop stop-color="#FFFFD1"/>
<stop offset="1" stop-color="#FDD3D8"/>
</linearGradient>
</defs>
</svg>
