<svg width="1024" height="1024" viewBox="0 0 1024 1024" fill="none" xmlns="http://www.w3.org/2000/svg">
<path d="M681.29 156.434C658.665 155.843 621.273 164.479 600.604 173.565C552.192 194.848 519.299 218.029 464.828 193.758C468.656 188.496 478.608 180.482 484.005 176.57C528.215 144.523 588.408 125.942 641.766 117.486C694.368 109.149 762.245 111.165 806.881 143.651C824.53 156.496 845.97 180.847 853.329 201.379C848.174 199.134 842.072 195.454 836.955 192.818C798.48 172.999 755.741 160.086 712.503 156.964C702.611 156.25 691.255 155.314 681.29 156.434Z" fill="#D4DCF7"/>
<path d="M330.291 148.82C277.679 147.075 221.672 159.761 181.348 196.093C163.06 212.57 155.516 227.678 146.192 249.493C145.754 248.946 145.36 248.423 145.212 247.715C144.115 242.464 160.636 207.43 164.368 201.386C182.814 171.512 212.693 145.812 247.47 137.688C270.575 132.291 295.696 134.627 317.777 143.144C322.02 144.78 326.425 146.407 330.291 148.82Z" fill="#FBF8CC"/>
<path d="M146.193 249.493C155.517 227.678 163.061 212.57 181.349 196.093C221.673 159.761 277.68 147.075 330.292 148.82C370.063 152.711 393.427 160.392 429.809 177.226C440.004 181.943 454.8 190.215 464.829 193.757C519.3 218.028 552.193 194.847 600.605 173.564C621.274 164.478 658.666 155.842 681.291 156.433C685.796 156.983 689.353 157.47 693.791 158.421C669.988 158.597 639.999 161.845 617.532 169.781C558.91 190.486 527.366 224.728 461.791 195.05C423.039 174.83 382.657 156.54 338.846 151.967C326.302 150.012 305.474 150.301 292.685 151.891C237.88 158.525 182.417 181.569 155.813 233.088C127.374 288.158 145.011 350.553 196.637 383.686C207.017 390.348 220.763 393.343 232.109 397.796L232.029 398.827C230.828 399.542 230.924 399.361 229.984 400.322C228.042 399.724 225.994 398.952 224.067 398.27C223.804 396.795 223.894 396.413 222.54 396.071C211.991 393.406 202.747 389.201 193.449 383.623C163.057 363.882 141.651 329.414 140.515 292.828C140.099 279.42 141.375 262.007 146.193 249.493Z" fill="url(#paint0_linear_2254_4172)"/>
<path d="M232.107 397.795C220.761 393.342 207.015 390.347 196.635 383.685C145.009 350.552 127.372 288.157 155.811 233.087C182.415 181.568 237.878 158.524 292.683 151.89C305.472 150.3 326.3 150.011 338.844 151.966C339.928 153.809 355.28 164.017 358.463 166.496C368.455 174.276 377.652 183.067 387.735 190.689C392.917 194.605 398.338 198.123 403.968 201.36C412.038 206 423.05 209.56 432.081 211.875C434.134 212.401 437.103 212.522 438.695 213.977C440.206 220.742 439.524 229.385 439.941 236.536C423.678 234.827 423.191 251.251 421.939 263.319C413.339 263.333 404.946 263.182 396.347 262.977C396.036 254.706 393.29 233.464 380.55 239.289L377.625 237.869C374.906 236.535 371.557 236.821 369.023 238.36C361.532 242.907 361.061 254.974 360.513 262.506L339.092 262.11C338.496 254.139 336.808 236.473 325.511 238.699C323.326 239.13 320.159 236.625 317.498 237.272C306.687 238.409 304.711 253.26 303.298 261.917C291.847 261.69 280.345 261.09 268.916 261.485C261.148 261.754 249.777 269.357 249.124 277.492C245.848 318.3 245.093 359.409 242.486 400.309C240.16 399.997 234.622 398.437 232.107 397.795Z" fill="#FBF8CC"/>
<path d="M338.846 151.969C382.657 156.542 423.039 174.832 461.791 195.052C456.402 199.875 451.019 204.845 445.285 209.258C443.005 211.013 439.594 212.074 438.697 213.98C437.105 212.525 434.136 212.404 432.083 211.878C423.052 209.563 412.04 206.003 403.97 201.363C398.34 198.126 392.919 194.608 387.737 190.692C377.654 183.07 368.457 174.279 358.465 166.499C355.282 164.02 339.93 153.812 338.846 151.969Z" fill="#E6DFD5"/>
<path d="M681.289 156.433C691.254 155.313 702.61 156.249 712.502 156.963C755.74 160.085 798.479 172.998 836.954 192.817C842.071 195.453 848.173 199.133 853.328 201.378L853.75 201.707C857.726 204.748 862.185 207.259 866.403 209.953C873.29 214.351 880.118 218.917 886.619 223.874C930.844 257.594 970.059 303.18 977.848 359.959C984.631 409.402 967.035 455.95 941.434 497.414C930.564 512.434 919.921 528.641 908.101 542.872C893.057 560.985 874.542 578.485 856.818 593.934C850.964 599.037 834.015 613.139 827.545 616.694L827.28 614.549C839.525 605.146 850.945 596.614 862.488 586.242C893.507 558.37 915.864 531.272 938.93 496.496C939.987 495.265 940.458 494.407 941.28 493.047C968.485 448.439 985.47 397.004 972.382 344.759C957.633 285.884 906.273 236.45 855.666 206.05C846.258 199.435 832.138 193.403 821.628 188.36C780.403 168.582 739.18 160.379 693.789 158.421C689.351 157.47 685.794 156.983 681.289 156.433Z" fill="url(#paint1_linear_2254_4172)"/>
<path d="M461.789 195.051C527.364 224.729 558.908 190.487 617.53 169.782C639.997 161.846 669.986 158.598 693.789 158.422C739.18 160.38 780.403 168.583 821.628 188.361C832.138 193.404 846.258 199.436 855.666 206.051C858.596 219.343 862.507 231.153 863.21 245.045C864.472 269.967 863.526 294.69 869.573 319.149C874.325 338.368 882.539 355.882 892.169 373.098C909.079 403.716 935.907 437.335 929.977 474.393C929.157 479.514 928.087 486.073 925.525 490.701C912.163 488.582 900.555 492.205 889.869 500.219C862.527 520.725 843.884 550.136 827.562 579.62C827.127 580.407 826.027 581.184 825.242 581.587C822.729 555.449 821.884 524.73 820.52 498.178L812.777 346.452C812.22 335.718 810.425 281.385 806.937 270.212C805.352 265.135 777.25 267.256 768.007 266.294L767.186 266.205C766.761 252.144 767.308 232.808 748.45 232.184C743.05 231.852 736.003 232.014 731.933 236.189C725.343 242.952 724.737 257.338 724.387 266.119L698.103 265.993L699.055 264.456C700.126 264.311 699.658 264.53 700.458 263.796C700.718 250.165 700.824 234.833 683.767 233.022C664.855 231.015 663.613 252.125 662.946 265.491L623.483 265.417C624.127 254.284 623.798 246.033 630.545 236.883C640.332 244.668 636.488 253.484 639.317 264.167L639.554 263.922C639.849 251.988 639.936 235.926 624.634 233.535C621.017 232.97 616.768 233.731 613.97 236.181C606.363 242.843 605.672 255.695 604.582 264.998L560.871 264.541C561.343 257.762 561.823 242.108 567.886 237.719C572.673 234.253 575.696 247.852 576.127 250.866C576.701 254.884 576.19 259.161 576.793 263.045L577.401 263.377C578.408 262.005 577.905 253.166 577.634 250.953C576.717 243.454 574.652 239.642 568.964 235.028C565.682 234.952 562.032 233.982 558.874 234.048C546.876 234.298 543.713 253.642 544.193 262.901C540.858 261.99 520.974 262.253 517.254 263.089C518.139 256.216 516.698 244.482 511.613 239.532C505.913 233.983 494.375 233.257 488.784 239.383C483.855 244.783 482.41 255.051 482.576 262.099C476.851 261.086 461.521 262.987 457.313 261.529L456.823 260.088C456.143 253.373 455.525 239.398 446.021 237.604C443.041 237.042 443.678 238.302 439.941 236.538C439.524 229.387 440.206 220.744 438.695 213.979C439.592 212.073 443.003 211.012 445.283 209.257C451.017 204.844 456.4 199.874 461.789 195.051Z" fill="#D4DCF7"/>
<path d="M855.668 206.051C906.275 236.451 957.635 285.885 972.384 344.76C985.472 397.005 968.487 448.44 941.282 493.048C940.46 494.408 939.989 495.266 938.932 496.497C933.761 493.341 931.246 492.64 925.527 490.701C928.089 486.073 929.159 479.514 929.979 474.393C935.909 437.335 909.081 403.716 892.171 373.098C882.541 355.882 874.327 338.368 869.575 319.149C863.528 294.69 864.474 269.967 863.212 245.045C862.509 231.153 858.598 219.343 855.668 206.051Z" fill="#E6DFD5"/>
<path d="M421.94 263.319C423.192 251.251 423.679 234.827 439.942 236.536C443.679 238.3 443.042 237.04 446.022 237.602C455.526 239.396 456.144 253.371 456.824 260.086C456.475 261.552 456.79 261.1 455.867 262.113L455.779 261.652C454.782 256.254 454.146 240.213 446.66 238.991C439.58 240.526 438.95 257.288 438.45 263.169C441.908 263.907 479.843 264.402 482.206 263.452L482.577 262.097C482.411 255.049 483.856 244.781 488.785 239.381C494.376 233.255 505.914 233.981 511.614 239.53C516.699 244.48 518.14 256.214 517.255 263.087L517.767 264.141C521.1 264.802 539.298 264.938 543.556 264.079C543.958 263.997 544.052 263.308 544.194 262.899C543.714 253.64 546.877 234.296 558.875 234.046C562.033 233.98 565.683 234.95 568.965 235.026C574.653 239.64 576.718 243.452 577.635 250.951C577.906 253.164 578.409 262.003 577.402 263.375L576.794 263.043C576.191 259.159 576.702 254.882 576.128 250.864C575.697 247.85 572.674 234.251 567.887 237.717C561.824 242.106 561.344 257.76 560.872 264.539L604.583 264.996C605.673 255.693 606.364 242.841 613.971 236.179C616.769 233.729 621.018 232.968 624.635 233.533C639.937 235.924 639.85 251.986 639.555 263.92L639.318 264.165C636.489 253.482 640.333 244.666 630.546 236.881C623.799 246.031 624.128 254.282 623.484 265.415L662.947 265.489C663.614 252.123 664.856 231.013 683.768 233.02C700.825 234.831 700.719 250.163 700.459 263.794C699.659 264.528 700.127 264.309 699.056 264.454C699.043 257.302 698.874 239.189 690.884 235.946C682.471 236.697 682.327 259.406 682.031 265.664C687.537 265.894 692.595 265.985 698.104 265.991L724.388 266.117C724.738 257.336 725.344 242.95 731.934 236.187C736.004 232.012 743.051 231.85 748.451 232.182C767.309 232.806 766.762 252.142 767.187 266.203L768.008 266.292C777.251 267.254 805.353 265.133 806.938 270.21C810.426 281.383 812.221 335.716 812.778 346.45L820.521 498.176C821.885 524.728 822.73 555.447 825.243 581.585C826.152 592.371 826.192 603.895 827.281 614.548L827.546 616.693C827.515 625.493 828.42 636.999 829.014 645.937C830.318 661.019 830.683 676.414 831.644 691.575C832.334 702.461 833.581 716.205 832.696 726.952C831.964 735.842 821.987 743.193 813.527 742.764C801.976 742.984 790.608 741.904 779.181 742C777.444 765.338 760.984 762.898 743.457 762.165C731.282 761.657 718.138 760.435 706.027 760.486L701.599 760.465C663.578 757.744 624.893 758.024 586.797 755.576C573.248 754.705 557.681 753.82 544.182 753.931C541.054 753.391 530.546 753.174 527.003 753.024L487.522 751.5L347.084 745.74L276.579 742.211C265.144 741.631 252.93 741.532 241.674 739.815C233.379 738.549 226.013 727.565 225.979 719.42C225.923 706.253 226.916 693.022 227.654 679.875L230.793 617.731L238.136 482.887C238.943 468.774 239.36 454.45 240.35 440.391L240.474 438.228C240.921 427.439 241.631 416.337 242.321 405.552L242.487 400.309C245.094 359.409 245.849 318.3 249.125 277.492C249.778 269.357 261.149 261.754 268.917 261.485C280.346 261.09 291.848 261.69 303.299 261.917C304.712 253.26 306.688 238.409 317.499 237.272C320.16 236.625 323.327 239.13 325.512 238.699C336.809 236.473 338.497 254.139 339.093 262.11L360.514 262.506C361.062 254.974 361.533 242.907 369.024 238.36C371.558 236.821 374.907 236.535 377.626 237.869L380.551 239.289C393.291 233.464 396.037 254.706 396.348 262.977C404.947 263.182 413.34 263.333 421.94 263.319ZM319.965 300.492C319.977 298.794 318.789 291.895 318.531 289.291C317.638 280.322 317.452 272.667 318.017 263.641L304.484 263.518C304.29 272.84 303.563 297.468 309.219 304.154C313.426 307.761 324.272 309.283 321.664 302.491C320.428 302.246 320.772 302.403 319.682 301.833L319.965 300.492ZM378.562 300.328C376.398 287.999 375.751 276.985 376.097 264.468L361.915 264.213C361.963 274.798 361.88 297.952 368.628 305.779C372.474 308.389 380.083 309.926 382.801 305.522C383.138 303.645 382.967 303.574 382.353 301.811C379.498 300.319 382.202 302.733 379.364 302.564L378.562 300.328ZM562.892 302.069C559.856 289.181 558.633 279.782 559.506 266.444L544.971 266.245C544.857 277.839 544.04 300.812 551.912 309.818C555.32 312.203 561.444 313.422 564.738 310.523C566.076 307.012 563.761 305.852 562.892 302.069ZM439.228 302.309C436.577 288.976 436.282 278.846 437.071 265.293L423.439 265.043C422.852 274.675 422.468 296.562 428.418 305.587C428.642 305.927 430.416 307.558 430.848 307.947C434.552 310.563 443.362 310.883 444.088 305.755C443.444 304.07 443.549 304.002 442.013 302.944C440.873 302.872 440.304 302.698 439.228 302.309ZM500.656 301.741C498.388 293.54 497.857 274.215 498.079 265.674C493.171 265.641 488.161 265.552 483.263 265.595C482.848 276.575 482.37 300.97 490.17 308.674C492.9 310.255 493.622 310.719 496.682 311.279C499.184 310.978 500.478 311.2 502.053 309.142C502.451 306.916 501.319 304.048 500.656 301.741ZM625.153 305.143C622.306 291.254 621.828 281.394 622.073 267.203L605.86 267.062C605.383 278.921 604.728 303.29 614.012 311.28C617.395 313.525 620.917 314.808 624.694 312.433C627.484 311.501 629.814 309.606 628.261 306.543L627.343 306.649L626.305 308.372L625.153 305.143ZM684.399 306.522C684.854 304.469 682.957 295.621 682.55 292.889C681.273 284.321 680.97 276.31 680.722 267.688C675.229 267.583 669.799 267.48 664.303 267.496C664.08 279.783 662.915 309.393 676.276 314.18C677.689 314.31 679.937 314.591 681.297 314.599C685.5 313.998 689.934 311.846 688.33 306.896L687.508 306.528C685.651 308.3 687.573 308.065 685.522 310.365C685.18 309.587 684.653 307.443 684.399 306.522ZM746.537 307.537C743.137 294.237 741.536 282.314 741.47 268.549L725.619 268.376C725.51 280.481 723.673 307.494 735.256 314.214C740.14 316.652 745.309 316.254 749.04 312.133C750.781 310.868 751.222 310.093 750.913 308.008C749.718 306.973 750.384 307.216 748.891 307.148C749.312 308.294 749.215 307.727 749.235 308.838C747.353 308.895 748.277 309.134 746.537 307.537ZM741.082 233.607C736.767 234.373 733.896 235.247 731.321 239.181C726.895 245.942 726.341 258.098 725.584 266.04L732.875 266.361L741.147 266.278C740.28 254.469 740.269 242.517 749.041 233.583C746.615 233.568 743.443 233.455 741.082 233.607ZM750.997 233.993C741.446 239.822 742.096 256.527 742.122 266.416C747.641 266.503 751.347 266.115 756.549 265.994L766.028 266.094C765.431 256.27 765.871 233.501 750.997 233.993ZM677.139 234.574C665.202 239.469 664.753 254.321 664.285 265.498L673.375 265.582L680.803 265.681C681.21 254.531 681.532 245.173 686.88 235.117C683.277 234.423 680.832 234.328 677.139 234.574ZM556.086 235.583C545.826 242.202 545.86 253.441 544.936 264.48L555.625 264.502C557.392 264.454 558.319 264.75 559.559 263.942C560.388 252.883 560.436 246.608 565.509 236.764C561.608 235.347 560.228 235.154 556.086 235.583ZM618.038 235.61C607.429 241.124 607.119 254.483 605.921 265.125L618.125 265.334C620.337 265.337 620.653 265.706 622.259 264.756C622.996 252.94 622.888 246.63 629.336 236.459C624.893 235.504 622.686 234.987 618.038 235.61ZM496.085 236.599C484.51 240.14 484.153 253.777 483.406 264.003L490.761 263.946L498.278 263.979C498.633 254.396 498.936 246.476 503.228 237.743C500.397 237.072 499.026 236.63 496.085 236.599ZM433.957 237.466C424.711 243.026 424.232 253.55 423.341 263.311L431.27 263.355L437.356 263.334C437.884 253.703 438.13 248.223 442.248 239.486C438.868 237.92 437.717 237.335 433.957 237.466ZM504.8 237.384C500.295 246.191 500.142 254.165 499.486 263.999C503.271 264.027 507.174 264.004 510.947 264.098L516.299 264.292C515.837 254.054 516.889 240.748 504.8 237.384ZM316.008 238.504C307.479 243.522 305.757 252.835 304.79 262.008L312.681 261.989C314.369 262.028 316.338 262.268 317.791 261.569C319.094 256.709 318.96 250.884 320.685 246.665L323.266 240.252C321.053 238.326 318.91 238.478 316.008 238.504ZM371.552 238.544C362.339 243.855 362.749 252.973 361.961 262.482L369.375 262.548L376.417 262.537C376.548 258.16 376.929 254.574 377.603 250.252C377.993 247.752 379.536 242.068 378.775 240.042C376.333 238.142 374.631 238.342 371.552 238.544ZM326.813 239.301C320.791 245.034 319.927 253.934 319.331 262.083L330.375 262.05L337.959 262.052C337.346 253.781 336.247 242.051 326.813 239.301ZM383.476 239.36C378.464 244.397 378.286 255.434 377.885 262.566L388.951 262.762L395.137 262.748C394.505 254.085 393.756 241.85 383.476 239.36ZM270.226 262.728C258.018 263.767 250.442 271.098 249.631 283.523C248.967 293.698 248.741 303.914 248.285 314.102L245.356 373.672L235.032 567.723L229.316 676.439L227.804 702.06C227.104 713.381 225.074 727.38 235.637 735.217C238.975 737.694 242.152 739.002 246.28 739.119C263.273 740.123 280.322 740.92 297.324 741.765L407.498 746.664L637.026 756.162L721.546 759.638C727.6 759.908 733.682 760.345 739.796 760.482C754.427 760.811 775.977 765.552 777.292 744.201C778.173 729.891 778.52 715.556 779.09 701.259L782.628 604.13L793.06 359.586C793.959 342.285 794.303 324.918 795.354 307.62C795.998 297.012 795.383 287.852 787.785 279.597C775.556 266.137 758.829 269.513 742.602 268.685C743.06 275.282 744.106 298.432 748.25 305.005C748.346 305.157 750.642 306.313 751.07 306.522C757.563 314.691 733.059 326.15 727.402 306.521C723.527 293.076 723.957 281.945 724.29 268.281C710.357 267.636 695.972 268.22 681.984 267.698C682.219 273.684 683.191 300.176 686.466 304.561L687.073 304.893C688.499 305.687 689.415 305.957 690.126 307.368C691.301 315.743 677.383 319.111 672.278 314.141C662.248 304.376 662.249 280.763 662.893 267.464C650.129 267.368 636.136 267.552 623.477 267.107C623.432 274.353 622.458 298.908 627.375 303.887C628.783 305.314 630.503 306.43 630.372 308.673C630.27 310.414 629.175 311.651 627.834 312.629C625.02 314.68 621.045 315.588 617.621 314.941C614.117 314.279 611.424 311.855 609.593 308.896C603.703 299.378 603.693 278.277 604.468 267.013C589.989 266.845 575.138 266.495 560.681 266.506C560.297 279.843 561.332 289.11 564.443 302.265L565.013 302.567C573.695 307.244 565.041 313.301 559.717 313.577C541.124 314.541 543.333 278.249 543.596 266.233C528.953 266.116 514.097 266.071 499.462 265.67C499.357 272.403 499.376 293.609 502.427 301.188C502.626 301.681 505.109 302.753 505.862 303.094C511.546 311.02 491.682 318.2 486.434 305.992C481.175 293.759 481.36 278.675 482.004 265.668L438.516 265.322C437.771 276.973 438.041 289.028 440.39 300.496C442.4 301.423 443.899 301.88 445.326 303.552C445.718 305.146 445.859 305.921 444.91 307.374C441.709 312.277 434.733 312.982 430.257 309.549C424.513 305.143 423.626 297.835 422.696 291.193C421.472 282.156 421.488 274.023 421.934 265.014L377.535 264.441C377.521 269.761 377.604 296.351 380.492 299.634C381.476 300.043 383.93 300.901 384.28 301.893C385.845 306.331 380.58 309.267 376.888 309.806C359.16 312.397 360.421 275.275 360.54 264.058L319.316 263.679C318.726 273.443 318.785 286.603 320.902 296.315C321.317 298.22 324.507 299.781 325.204 302.522C324.758 307.342 317.856 309.638 314.293 308.865C300.765 305.93 302.588 273.943 303.036 263.482C292.358 263.211 280.835 262.725 270.226 262.728ZM771.229 268.21C786.052 274.133 797.034 281.811 797.056 299.87C797.067 309.611 796.163 319.524 795.682 329.267L793.654 375.412L789.223 485.443L783.209 627.005C781.853 664.384 781.004 703.205 779.065 740.509C789.709 740.475 803.283 741.7 813.124 741.313C819.055 740.699 823.37 739.871 827.44 734.929C830.542 731.162 831.633 727.878 831.532 723.01C831.329 713.17 830.713 703.194 830.185 693.36L827.55 644.75L818.127 480.609L810.867 339.338L808.499 295.778C808.303 292.321 807.834 286.5 807.834 283.276C807.835 269.562 805.123 268.371 791.609 268.284C785.495 268.244 777.948 267.852 771.229 268.21Z" fill="#050404"/>
<path d="M725.584 266.043C726.341 258.101 726.895 245.945 731.321 239.184C733.896 235.25 736.767 234.376 741.082 233.61C743.443 233.458 746.615 233.571 749.041 233.586C740.269 242.52 740.28 254.472 741.147 266.281L732.875 266.364L725.584 266.043Z" fill="#D4DCF7"/>
<path d="M742.122 266.419C742.096 256.53 741.446 239.825 750.997 233.996C765.871 233.504 765.431 256.273 766.028 266.097L756.549 265.997C751.347 266.118 747.641 266.506 742.122 266.419Z" fill="#D4DCF7"/>
<path d="M664.285 265.5C664.753 254.323 665.202 239.471 677.139 234.576C680.832 234.33 683.277 234.425 686.88 235.119C681.532 245.175 681.21 254.533 680.803 265.683L673.375 265.584L664.285 265.5Z" fill="#D4DCF7"/>
<path d="M544.936 264.482C545.86 253.443 545.826 242.204 556.086 235.585C560.228 235.156 561.608 235.349 565.509 236.766C560.436 246.61 560.388 252.885 559.559 263.944C558.319 264.752 557.392 264.456 555.625 264.504L544.936 264.482Z" fill="#D4DCF7"/>
<path d="M605.922 265.127C607.12 254.485 607.43 241.126 618.039 235.612C622.687 234.989 624.894 235.506 629.337 236.461C622.889 246.632 622.997 252.942 622.26 264.758C620.654 265.708 620.338 265.339 618.126 265.336L605.922 265.127Z" fill="#D4DCF7"/>
<path d="M682.031 265.667C682.327 259.409 682.471 236.7 690.884 235.949C698.874 239.192 699.043 257.305 699.056 264.457L698.104 265.994C692.595 265.988 687.537 265.897 682.031 265.667Z" fill="#D4DCF7"/>
<path d="M483.406 264.006C484.153 253.78 484.51 240.143 496.085 236.602C499.026 236.633 500.397 237.075 503.228 237.746C498.936 246.479 498.633 254.399 498.278 263.982L490.761 263.949L483.406 264.006Z" fill="#D4DCF7"/>
<path d="M423.342 263.312C424.233 253.551 424.712 243.027 433.958 237.467C437.718 237.336 438.869 237.921 442.249 239.487C438.131 248.224 437.885 253.704 437.357 263.335L431.271 263.356L423.342 263.312Z" fill="#E6DFD5"/>
<path d="M499.486 264.002C500.142 254.168 500.295 246.194 504.8 237.387C516.889 240.751 515.837 254.057 516.299 264.295L510.947 264.101C507.174 264.007 503.271 264.03 499.486 264.002Z" fill="#D4DCF7"/>
<path d="M304.789 262.01C305.756 252.837 307.478 243.524 316.007 238.506C318.909 238.48 321.052 238.328 323.265 240.254L320.684 246.667C318.959 250.886 319.093 256.711 317.79 261.571C316.337 262.27 314.368 262.03 312.68 261.991L304.789 262.01Z" fill="#FBF8CC"/>
<path d="M361.961 262.485C362.749 252.976 362.339 243.858 371.552 238.547C374.631 238.345 376.333 238.145 378.775 240.045C379.536 242.071 377.993 247.755 377.603 250.255C376.929 254.577 376.548 258.163 376.417 262.54L369.375 262.551L361.961 262.485Z" fill="#FBF8CC"/>
<path d="M455.866 262.114C448.812 263.343 443.803 262.413 438.449 263.17C438.949 257.289 439.579 240.527 446.659 238.992C454.145 240.214 454.781 256.255 455.778 261.653L455.866 262.114Z" fill="#D4DCF7"/>
<path d="M319.33 262.087C319.926 253.938 320.79 245.038 326.812 239.305C336.246 242.055 337.345 253.785 337.958 262.056L330.374 262.054L319.33 262.087Z" fill="#FBF8CC"/>
<path d="M377.885 262.569C378.286 255.437 378.464 244.4 383.476 239.363C393.756 241.853 394.505 254.088 395.137 262.751L388.951 262.765L377.885 262.569Z" fill="#FBF8CC"/>
<path d="M456.823 260.09L457.313 261.531C461.521 262.989 476.851 261.088 482.576 262.101L482.205 263.456C479.842 264.406 441.907 263.911 438.449 263.173C443.803 262.416 448.812 263.346 455.866 262.117C456.789 261.104 456.474 261.556 456.823 260.09Z" fill="#F1D489"/>
<path d="M793.06 359.588L782.628 604.132L779.09 701.261C778.52 715.558 778.173 729.893 777.292 744.203C775.977 765.554 754.427 760.813 739.796 760.484C733.682 760.347 727.6 759.91 721.546 759.64L637.026 756.164L407.498 746.666L297.324 741.767C280.322 740.922 263.273 740.125 246.28 739.121C242.152 739.004 238.975 737.696 235.637 735.219C225.074 727.382 227.104 713.383 227.804 702.062L229.316 676.441L235.032 567.725L245.356 373.674L248.285 314.104C248.741 303.916 248.967 293.7 249.631 283.525C250.442 271.1 258.018 263.769 270.226 262.73C280.835 262.727 292.358 263.213 303.036 263.484C302.588 273.945 300.765 305.932 314.293 308.867C317.856 309.64 324.758 307.344 325.204 302.524C324.507 299.783 321.317 298.222 320.902 296.317C318.785 286.605 318.726 273.445 319.316 263.681L360.54 264.06C360.421 275.277 359.16 312.399 376.888 309.808C380.58 309.269 385.845 306.333 384.28 301.895C383.93 300.903 381.476 300.045 380.492 299.636C377.604 296.353 377.521 269.763 377.535 264.443L421.934 265.016C421.488 274.025 421.472 282.158 422.696 291.195C423.626 297.837 424.513 305.145 430.257 309.551C434.733 312.984 441.709 312.279 444.91 307.376C445.859 305.923 445.718 305.148 445.326 303.554C443.899 301.882 442.4 301.425 440.39 300.498C438.041 289.03 437.771 276.975 438.516 265.324L482.004 265.67C481.36 278.677 481.175 293.761 486.434 305.994C491.682 318.202 511.546 311.022 505.862 303.096C505.109 302.755 502.626 301.683 502.427 301.19C499.376 293.611 499.357 272.405 499.462 265.672C514.097 266.073 528.953 266.118 543.596 266.235C543.333 278.251 541.124 314.543 559.717 313.579C565.041 313.303 573.695 307.246 565.013 302.569L564.443 302.267C561.332 289.112 560.297 279.845 560.681 266.508C575.138 266.497 589.989 266.847 604.468 267.015C603.693 278.279 603.703 299.38 609.593 308.898C611.424 311.857 614.117 314.281 617.621 314.943C621.045 315.59 625.02 314.682 627.834 312.631C629.175 311.653 630.27 310.416 630.372 308.675C630.503 306.432 628.783 305.316 627.375 303.889C622.458 298.91 623.432 274.355 623.477 267.109C636.136 267.554 650.129 267.37 662.893 267.466C662.249 280.765 662.248 304.378 672.278 314.143C677.383 319.113 691.301 315.745 690.126 307.37C689.415 305.959 688.499 305.689 687.073 304.895L686.466 304.563C683.191 300.178 682.219 273.686 681.984 267.7C695.972 268.222 710.357 267.638 724.29 268.283C723.957 281.947 723.527 293.078 727.402 306.523C733.059 326.152 757.563 314.693 751.07 306.524C750.642 306.315 748.346 305.159 748.25 305.007C744.106 298.434 743.06 275.284 742.602 268.687C758.829 269.515 775.556 266.139 787.785 279.599C795.383 287.854 795.998 297.014 795.354 307.622C794.303 324.92 793.959 342.287 793.06 359.588ZM266.572 362.295C265.315 373.87 264.996 388.639 264.461 400.419L261.267 478.252L254.695 631.931C253.648 657.092 252.208 682.85 251.448 707.971L622.933 723.878L712.095 727.524C724.13 727.983 738.867 728.986 750.685 728.972C753.045 695.957 753.474 658.262 754.943 624.735L765.555 377.44L370.684 365.242C336.306 364.431 300.822 362.698 266.572 362.295Z" fill="#B9FBC0"/>
<path d="M517.256 263.088C520.976 262.252 540.86 261.989 544.195 262.9C544.053 263.309 543.959 263.998 543.557 264.08C539.299 264.939 521.101 264.803 517.768 264.142L517.256 263.088Z" fill="#FDE4CF"/>
<path d="M319.965 300.494C316.532 301.166 312.375 302.625 309.219 304.156C303.563 297.47 304.29 272.842 304.484 263.52L318.017 263.643C317.452 272.669 317.638 280.324 318.531 289.293C318.789 291.897 319.977 298.796 319.965 300.494Z" fill="#B9FBC0"/>
<path d="M378.561 300.33C374.67 302.01 371.829 302.977 368.627 305.781C361.879 297.954 361.962 274.8 361.914 264.215L376.096 264.47C375.75 276.987 376.397 288.001 378.561 300.33Z" fill="#B9FBC0"/>
<path d="M439.229 302.313C435.843 302.965 431.864 304.232 430.849 307.951C430.417 307.562 428.643 305.931 428.419 305.591C422.469 296.566 422.853 274.679 423.44 265.047L437.072 265.297C436.283 278.85 436.578 288.98 439.229 302.313Z" fill="#B9FBC0"/>
<path d="M500.656 301.743L495.575 304.236C492.764 305.927 492.4 306.315 490.17 308.676C482.37 300.972 482.848 276.577 483.263 265.597C488.161 265.554 493.171 265.643 498.079 265.676C497.857 274.217 498.388 293.542 500.656 301.743Z" fill="#B9FBC0"/>
<path d="M559.505 266.445C558.632 279.783 559.855 289.182 562.891 302.07C558.647 303.83 553.524 305.156 551.911 309.819C544.039 300.813 544.856 277.84 544.97 266.246L559.505 266.445Z" fill="#B9FBC0"/>
<path d="M625.153 305.143C622.026 305.937 615.978 307.355 614.189 310.009L614.012 311.281C604.728 303.291 605.382 278.922 605.859 267.062L622.072 267.203C621.827 281.394 622.306 291.254 625.153 305.143Z" fill="#B9FBC0"/>
<path d="M684.399 306.524C678.123 309.689 679.088 308.463 676.276 314.182C662.915 309.395 664.08 279.785 664.303 267.498C669.799 267.482 675.229 267.585 680.722 267.69C680.97 276.312 681.273 284.323 682.55 292.891C682.957 295.623 684.854 304.471 684.399 306.524Z" fill="#B9FBC0"/>
<path d="M779.065 740.511C781.004 703.207 781.852 664.386 783.208 627.007L789.223 485.445L793.654 375.414L795.682 329.269C796.163 319.526 797.067 309.613 797.056 299.872C797.034 281.813 786.052 274.135 771.229 268.212C777.948 267.854 785.495 268.246 791.609 268.286C805.123 268.373 807.834 269.564 807.833 283.278C807.833 286.502 808.303 292.323 808.499 295.78L810.867 339.34L818.127 480.611L827.549 644.752L830.185 693.362C830.713 703.196 831.328 713.172 831.531 723.012C831.632 727.88 830.542 731.164 827.44 734.931C823.37 739.873 819.055 740.701 813.124 741.315C803.283 741.702 789.709 740.477 779.065 740.511Z" fill="#98F5E1"/>
<path d="M746.537 307.54C744.845 308.208 743.336 308.827 741.676 309.572C738.963 310.776 736.591 311.47 735.255 314.217C723.672 307.497 725.51 280.484 725.619 268.379L741.469 268.552C741.535 282.317 743.137 294.24 746.537 307.54Z" fill="#B9FBC0"/>
<path d="M309.219 304.154C312.375 302.623 316.532 301.164 319.965 300.492L319.682 301.833C320.772 302.403 320.428 302.246 321.664 302.491C324.272 309.283 313.426 307.761 309.219 304.154Z" fill="#1BAEDA"/>
<path d="M368.629 305.779C371.831 302.975 374.672 302.008 378.563 300.328L379.365 302.564C382.203 302.733 379.499 300.319 382.354 301.811C382.968 303.574 383.139 303.645 382.802 305.522C380.084 309.926 372.475 308.389 368.629 305.779Z" fill="#1BAEDA"/>
<path d="M562.892 302.07C563.761 305.853 566.076 307.013 564.738 310.524C561.444 313.423 555.32 312.204 551.912 309.819C553.525 305.156 558.648 303.83 562.892 302.07Z" fill="#8EECF5"/>
<path d="M430.848 307.951C431.863 304.232 435.842 302.965 439.228 302.312C440.304 302.701 440.873 302.876 442.013 302.948C443.549 304.006 443.444 304.073 444.088 305.758C443.362 310.886 434.552 310.567 430.848 307.951Z" fill="#1BAEDA"/>
<path d="M495.576 304.235L500.657 301.742C501.32 304.049 502.452 306.917 502.054 309.143C500.479 311.201 499.185 310.979 496.683 311.28C495.432 308.151 495.286 307.579 495.576 304.235Z" fill="#90DBF4"/>
<path d="M490.17 308.674C492.4 306.313 492.764 305.925 495.575 304.234C495.285 307.578 495.431 308.15 496.682 311.279C493.622 310.719 492.9 310.255 490.17 308.674Z" fill="#8EECF5"/>
<path d="M614.012 311.282L614.19 310.01C615.979 307.356 622.026 305.939 625.153 305.145L626.305 308.374C625.776 309.73 625.261 311.095 624.694 312.435C620.917 314.81 617.395 313.527 614.012 311.282Z" fill="#90DBF4"/>
<path d="M626.304 308.376L627.342 306.653L628.26 306.547C629.813 309.61 627.483 311.505 624.693 312.437C625.26 311.097 625.775 309.732 626.304 308.376Z" fill="#C3F4F9"/>
<path d="M681.297 314.602C683.067 313.015 683.757 311.673 685.522 310.368C687.573 308.068 685.651 308.303 687.508 306.531L688.33 306.899C689.934 311.849 685.5 314.001 681.297 314.602Z" fill="#DCEAD4"/>
<path d="M741.676 309.569C743.336 308.824 744.845 308.205 746.537 307.537C748.277 309.134 747.353 308.895 749.235 308.838C749.215 307.727 749.312 308.294 748.891 307.148C750.384 307.216 749.718 306.973 750.913 308.008C751.222 310.093 750.781 310.868 749.04 312.133C746.16 312.697 744.329 315.078 741.634 313.494C740.926 311.839 741.237 311.323 741.676 309.569Z" fill="#90DBF4"/>
<path d="M676.275 314.181C679.087 308.462 678.122 309.688 684.398 306.523C684.652 307.444 685.179 309.588 685.521 310.366C683.756 311.671 683.066 313.013 681.296 314.6C679.936 314.592 677.688 314.311 676.275 314.181Z" fill="#1BAEDA"/>
<path d="M735.256 314.215C736.592 311.468 738.963 310.774 741.676 309.57C741.237 311.324 740.926 311.84 741.634 313.495C744.329 315.079 746.16 312.698 749.04 312.134C745.309 316.255 740.14 316.653 735.256 314.215Z" fill="#8EECF5"/>
<path d="M174.891 395.749C169.63 387.514 158.849 372.945 158.49 362.708L158.947 362.87L158.463 362.836L158.739 362.609C164.219 372.983 168.561 387.004 177.984 395.744C181.387 399.691 185.159 403.215 188.902 406.837C198.784 416.231 227.815 436.453 240.474 438.228L240.35 440.391C228.24 439.654 198.064 418.098 188.279 409.187C183.69 404.876 179.263 400.282 174.891 395.749Z" fill="#F1D489"/>
<path d="M251.447 707.973C252.207 682.852 253.647 657.094 254.694 631.933L261.266 478.254L264.46 400.421C264.995 388.641 265.314 373.872 266.571 362.297C300.821 362.7 336.305 364.433 370.683 365.244L765.554 377.442L754.942 624.737C753.473 658.264 753.044 695.959 750.684 728.974C738.866 728.988 724.129 727.985 712.094 727.526L622.932 723.88L251.447 707.973ZM267.537 363.626C267.269 373.618 266.576 384.008 266.443 393.9L344.964 396.142C345.301 386.547 345.945 375.649 345.944 366.15C320.41 365.274 292.856 365.145 267.537 363.626ZM347.286 366.234C346.502 375.06 346.504 387.082 346.236 396.154L402.836 397.901C406.867 398.047 426.397 398.954 428.563 398.499L429.946 368.072L347.286 366.234ZM431.618 367.998C430.501 377.872 430.358 388.873 430.091 398.828C457.362 399.678 484.49 400.204 511.763 401.575C512.091 391.155 512.394 380.932 513.066 370.521L431.618 367.998ZM514.525 370.495C513.633 380.343 513.482 391.65 513.333 401.599C540.79 403.059 568.948 402.874 596.424 404.46C596.846 394.126 597.417 383.469 597.637 373.152C571.323 372.531 540.549 372.24 514.525 370.495ZM599.196 373.116C598.829 383.025 598.725 394.773 598.009 404.475C624.813 405.278 653.405 405.945 680.146 407.542C680.863 397.139 681.1 386.086 681.49 375.623L623.071 373.733C615.226 373.47 606.928 373.504 599.196 373.116ZM682.955 375.828C682.436 386.429 682.24 396.98 681.693 407.58L762.545 410.612C762.932 400.031 763.536 389.342 764.057 378.75C737.306 377.978 709.688 377.115 682.955 375.828ZM266.306 395.355C265.035 416.153 264.714 436.713 263.587 457.37C289.957 458.65 316.358 458.893 342.707 460.033C343.941 441.37 344.713 416.49 345.024 397.571C318.995 396.889 292.264 395.808 266.306 395.355ZM346.276 397.576C345.648 417.68 344.303 440.073 344.387 460.004C371.734 460.801 399.421 462.348 426.797 463.493C427.448 443.784 428.709 419.71 428.485 400.259C401.034 398.926 373.61 398.744 346.276 397.576ZM429.975 400.368C429.489 421.405 428.606 442.457 428.297 463.492C436.495 463.736 507.048 466.478 508.68 465.778L508.925 465.435C509.871 445.342 511.256 423.038 511.55 403.024C484.427 401.813 457.124 400.638 429.975 400.368ZM513.051 403.353C512.35 423.646 510.501 446.411 510.452 466.389L569.094 468.802C573.376 468.967 589.924 469.858 593.563 469.439C594.712 448.562 594.894 426.725 596.436 406.03C569.363 405.114 539.955 403.56 513.051 403.353ZM597.872 406.25C596.429 427.093 596.502 448.903 594.966 469.56L677.483 473.217C678.29 452.087 679.627 430.051 680.109 409.039C653.012 407.834 624.981 406.636 597.872 406.25ZM681.766 409.075L678.962 473.449L759.919 476.773C761.256 457.486 762.504 431.187 762.602 412.058L706.712 409.99C698.85 409.69 689.477 409.627 681.766 409.075ZM263.557 458.854C262.637 479.304 261.442 500.37 260.792 520.803C287.081 521.626 313.913 522.051 340.131 523.291C341.062 519.206 341.032 509.057 341.275 504.486C342.028 490.344 341.896 475.506 342.793 461.411C316.396 460.161 289.884 460.13 263.557 458.854ZM344.064 461.449C343.388 481.605 342.068 503.473 341.936 523.45C369.495 524.267 397.485 525.799 424.794 526.5C426.039 508.069 426.172 483.678 426.661 464.783L377.304 462.633C366.572 462.192 354.693 461.478 344.064 461.449ZM428.19 464.912C427.382 485.41 426.441 505.848 426.393 526.362C433.485 526.573 504.765 529.991 506.377 529.404C507.04 509.116 507.755 488.032 508.836 467.781C482.656 466.559 454.363 465.263 428.19 464.912ZM510.504 467.913C509.51 487.435 508.083 510.666 507.989 530.009L568.233 532.449C571.16 532.558 588.203 533.382 590.517 532.946C591.654 512.927 591.982 490.872 593.493 471.261L510.504 467.913ZM594.864 471.364C593.67 491.739 593.096 512.802 592.208 533.25L674.926 536.924C675.879 516.306 676.362 495.489 677.466 474.921L629.357 472.762C618.143 472.256 606.01 471.458 594.864 471.364ZM678.994 474.96C678.267 487.758 677.807 500.8 677.34 513.618C677.071 521.013 676.454 529.701 676.477 537.014C703.195 537.786 730.134 539.34 756.924 540.284C758.695 520.458 758.637 498.515 759.71 478.438L678.994 474.96ZM260.689 522.148L258.022 583.195C284.2 583.743 311.654 585.104 337.928 586.123C339.103 565.872 339.114 544.836 340.508 524.859C314.981 523.329 286.451 522.825 260.689 522.148ZM341.909 524.971C341.437 531.012 341.192 537.474 341.11 543.535C340.919 557.745 339.786 572.077 339.505 586.26C366.023 587.295 396.102 588.858 422.457 589.043C422.949 569.352 424.51 547.069 424.556 527.923C396.755 526.645 369.666 525.854 341.909 524.971ZM426.077 527.919C425.461 547.39 423.84 570.076 424.047 589.18C450.487 590.326 477.551 590.821 503.889 592.315L506.326 531.423C498.733 530.604 490.95 530.249 483.314 529.982C464.289 529.317 445.11 528.111 426.077 527.919ZM507.998 531.507C506.741 549.753 505.684 574.044 505.413 592.452C532.927 593.281 560.373 594.949 587.978 595.627C588.874 575.505 589.372 555.022 590.532 534.962L536.707 532.799C527.625 532.402 516.927 531.624 507.998 531.507ZM592.012 534.981C590.34 554.315 590.485 576.208 589.454 595.883C616.719 596.391 645.148 597.657 672.411 598.891C672.811 578.67 674.39 558.617 675.022 538.548C649.232 537.45 617.484 534.872 592.012 534.981ZM676.493 538.511C675.56 557.711 674.079 579.946 673.942 599.131C700.349 599.816 728.244 601.678 754.457 601.69C755.65 581.796 755.899 561.674 756.98 541.705C730.262 540.997 703.229 539.706 676.493 538.511ZM257.968 584.47C257.019 603.179 257.063 624.613 255.542 643.103C282.037 643.794 309.24 645.722 335.519 646.224C336.779 626.851 337.067 607.144 337.959 587.729C311.975 586.917 283.479 584.697 257.968 584.47ZM339.52 587.79C338.756 606.307 338.478 628.079 337.135 646.372C363.258 647.043 393.984 648.085 420.137 649.778C420.709 646.189 420.635 641.415 420.682 637.729C420.88 622.085 422.406 606.191 422.507 590.576C395.167 589.777 366.732 589.11 339.52 587.79ZM424.045 590.843C423.524 610.289 421.922 630.583 421.967 649.967C446.871 650.872 476.926 652.984 501.435 653.051C502.068 633.392 503.102 613.598 503.625 593.982L424.045 590.843ZM505.178 593.988C504.317 613.052 503.09 634.244 502.982 653.261L561.746 655.75C566.681 655.931 581.065 656.778 585.19 656.378C586.143 636.819 587.296 616.961 587.811 597.415C564.085 595.986 540.054 595.788 516.298 594.402C512.69 594.191 508.787 594.014 505.178 593.988ZM589.426 597.493L586.71 656.495C614.3 657.774 641.933 659.317 669.523 660.228L672.461 600.508L621.003 598.435C610.943 598.076 599.409 597.441 589.426 597.493ZM673.814 600.499C672.877 619.759 671.514 641.175 671.425 660.301L751.898 663.388L753.436 624.393C753.69 618.106 753.773 609.503 754.454 603.421C728.726 602.54 699.159 600.507 673.814 600.499ZM255.561 644.537C255.004 665.197 253.671 685.873 252.95 706.507L333.181 710.195C334.591 690.423 334.774 667.789 335.542 647.721C309.095 647.017 282.067 645.575 255.561 644.537ZM336.998 647.838C336.077 668.291 335.24 689.669 334.905 710.14L389.284 712.508C393.888 712.73 415.23 713.991 417.976 713.422L420.396 651.496C394.405 649.847 362.79 648.168 336.998 647.838ZM421.961 651.517C420.906 672.248 420.408 693.131 419.508 713.891C445.186 714.704 473.401 716.881 498.737 716.937L501.358 654.683C475.186 654.007 447.961 651.92 421.961 651.517ZM502.963 654.82C501.842 674.455 500.558 697.679 500.423 717.167L582.523 720.616L585.132 658.025C557.852 657.026 530.163 655.527 502.963 654.82ZM586.804 658.159C585.762 676.988 584.063 702.465 583.947 720.885L666.946 724.047C669.242 704.487 668.395 681.934 669.516 661.924L612.721 659.25C604.611 658.897 594.616 658.801 586.804 658.159ZM671.026 661.882C669.855 682.474 669.699 703.481 668.766 724.153L726.675 726.659C730.122 726.797 746.803 727.691 749.406 727.301L751.867 664.799C725.047 664.057 697.748 662.392 671.026 661.882Z" fill="#050404"/>
<path d="M266.443 393.899C266.576 384.007 267.269 373.617 267.537 363.625C292.856 365.144 320.41 365.273 345.944 366.149C345.945 375.648 345.301 386.546 344.964 396.141L266.443 393.899ZM282.425 377.743C282.882 378.054 283.338 378.364 283.795 378.675C292.593 378.305 323.961 381.967 330.11 379.908C329.743 379.628 329.377 379.349 329.01 379.07C313.984 378.018 297.941 377.409 282.878 377.677C282.727 377.699 282.576 377.721 282.425 377.743Z" fill="#FFCFD2"/>
<path d="M346.236 396.15C346.504 387.078 346.502 375.056 347.286 366.23L429.946 368.068L428.563 398.495C426.397 398.95 406.867 398.043 402.836 397.897L346.236 396.15ZM362.753 379.711L362.711 381.184C364.092 381.981 404.931 382.933 410.678 382.783L410.157 381.7C407.086 380.723 400.924 381.096 397.396 380.857C386.712 380.132 373.23 380.813 362.753 379.711Z" fill="url(#paint2_linear_2254_4172)"/>
<path d="M430.092 398.826C430.359 388.871 430.502 377.87 431.619 367.996L513.067 370.519C512.395 380.93 512.092 391.153 511.764 401.573C484.491 400.202 457.363 399.676 430.092 398.826ZM445.982 382.71C446.366 383.04 446.749 383.37 447.132 383.7C462.46 384.935 478.384 385.538 493.759 385.505C494.091 385.505 495.282 385.301 495.47 385.27C494.286 383.996 494.445 383.91 492.069 383.914C484.139 383.926 475.772 383.398 467.941 383.203C462.956 383.079 449.965 382.035 445.982 382.71Z" fill="#FFCFD2"/>
<path d="M513.334 401.596C513.483 391.647 513.634 380.34 514.526 370.492C540.55 372.237 571.324 372.528 597.638 373.149C597.418 383.466 596.847 394.123 596.425 404.457C568.949 402.871 540.791 403.056 513.334 401.596ZM533.362 385.125L533.719 386.682C535.737 387.314 574.952 388.64 579.276 388.357L578.67 387.095C574.422 385.764 539.947 385.218 533.362 385.125Z" fill="#C3F4F9"/>
<path d="M598.01 404.472C598.726 394.77 598.83 383.022 599.197 373.113C606.929 373.501 615.227 373.467 623.072 373.73L681.491 375.62C681.101 386.083 680.864 397.136 680.147 407.539C653.406 405.942 624.814 405.275 598.01 404.472ZM616.363 388.21C617.709 389.697 617.979 389.678 620.521 389.768C629.475 390.087 638.708 390.386 647.636 390.592C651.54 390.682 661.892 391.27 665.309 390.59C665.016 390.279 664.722 389.969 664.428 389.658C651.056 388.329 636.884 388.606 623.457 387.957C620.819 387.829 617.867 387.867 616.363 388.21Z" fill="#C3F4F9"/>
<path d="M681.693 407.576C682.24 396.976 682.436 386.425 682.955 375.824C709.688 377.111 737.306 377.974 764.057 378.746C763.536 389.338 762.932 400.027 762.545 410.608L681.693 407.576ZM697.439 391.119L697.853 392.279C700.588 393.086 708.104 392.962 711.507 393.173C723.118 393.893 736.039 393.473 747.527 394.337L747.392 392.781C746.203 392.23 700.82 390.75 697.439 391.119Z" fill="#FFCFD2"/>
<path d="M330.111 379.907C323.962 381.966 292.594 378.304 283.796 378.674C283.339 378.363 282.883 378.053 282.426 377.742C282.577 377.72 282.728 377.698 282.879 377.676C297.942 377.408 313.985 378.017 329.011 379.069C329.378 379.348 329.744 379.627 330.111 379.907Z" fill="#050404"/>
<path d="M410.68 382.787C404.933 382.937 364.094 381.985 362.713 381.188L362.755 379.715C373.232 380.817 386.714 380.136 397.398 380.861C400.926 381.1 407.088 380.727 410.159 381.704L410.68 382.787Z" fill="#050404"/>
<path d="M495.47 385.27C495.282 385.301 494.091 385.505 493.759 385.505C478.384 385.538 462.46 384.935 447.132 383.7C446.749 383.37 446.366 383.04 445.982 382.71C449.965 382.035 462.956 383.079 467.941 383.203C475.772 383.398 484.139 383.926 492.069 383.914C494.445 383.91 494.286 383.996 495.47 385.27Z" fill="#050404"/>
<path d="M193.447 383.625C202.745 389.203 211.989 393.408 222.538 396.073C223.892 396.415 223.802 396.797 224.065 398.272C213.061 395.461 204.701 394.006 193.473 395.164L193.447 383.625Z" fill="#F1D489"/>
<path d="M579.275 388.357C574.951 388.64 535.736 387.314 533.718 386.682L533.361 385.125C539.946 385.218 574.421 385.764 578.669 387.095L579.275 388.357Z" fill="#050404"/>
<path d="M665.309 390.591C661.892 391.271 651.54 390.683 647.636 390.593C638.708 390.387 629.475 390.088 620.521 389.769C617.979 389.679 617.709 389.698 616.363 388.211C617.867 387.868 620.819 387.83 623.457 387.958C636.884 388.607 651.056 388.33 664.428 389.659C664.722 389.97 665.016 390.28 665.309 390.591Z" fill="#050404"/>
<path d="M747.527 394.339C736.039 393.475 723.118 393.895 711.507 393.175C708.104 392.964 700.588 393.088 697.853 392.281L697.439 391.121C700.82 390.752 746.203 392.232 747.392 392.783L747.527 394.339Z" fill="#050404"/>
<path d="M193.474 395.162C204.702 394.004 213.062 395.459 224.066 398.27C225.993 398.952 228.041 399.724 229.983 400.322C233.085 401.632 239.187 404.388 242.211 404.838L242.321 405.553C241.631 416.338 240.921 427.44 240.474 438.229C227.815 436.454 198.784 416.232 188.902 406.838C189.946 402.833 191.689 400.701 192.73 395.563L193.474 395.162Z" fill="#98F5E1"/>
<path d="M177.984 395.745C183.315 395.495 186.867 396.077 192.73 395.562C191.689 400.701 189.946 402.832 188.902 406.837C185.159 403.215 181.387 399.692 177.984 395.745Z" fill="#98F5E1"/>
<path d="M263.588 457.367C264.715 436.71 265.036 416.15 266.307 395.352C292.265 395.805 318.996 396.886 345.025 397.568C344.714 416.487 343.942 441.367 342.708 460.03C316.359 458.89 289.958 458.647 263.588 457.367Z" fill="#FDE2FE"/>
<path d="M108.665 453.952C121.594 425.532 143.204 402.39 174.892 395.75C179.264 400.283 183.691 404.877 188.28 409.188C183.016 422.931 179.813 432.403 172.861 445.74C155.298 479.434 130.639 507.662 107.568 537.591C103.516 542.848 94.8757 560.138 92.3762 562.496L92.1579 562.481C89.4106 523.603 93.1826 490.279 108.555 454.364C108.591 454.226 108.628 454.089 108.665 453.952Z" fill="#98F5E1"/>
<path d="M344.389 460.002C344.305 440.071 345.65 417.678 346.278 397.574C373.612 398.742 401.036 398.924 428.487 400.257C428.711 419.708 427.45 443.782 426.799 463.491C399.423 462.346 371.736 460.799 344.389 460.002Z" fill="#FDE2FE"/>
<path d="M232.027 398.828L232.107 397.797C234.622 398.439 240.16 399.999 242.486 400.311L242.32 405.554L242.21 404.839C241.987 399.922 237.008 400.799 232.588 399.055L232.027 398.828Z" fill="#E3AE7D"/>
<path d="M229.982 400.323C230.922 399.362 230.826 399.543 232.027 398.828L232.588 399.055C237.008 400.799 241.987 399.922 242.21 404.839C239.186 404.389 233.084 401.633 229.982 400.323Z" fill="#F1D489"/>
<path d="M428.299 463.491C428.608 442.456 429.491 421.404 429.977 400.367C457.126 400.637 484.429 401.812 511.552 403.023C511.258 423.037 509.873 445.341 508.927 465.434L508.682 465.777C507.05 466.477 436.497 463.735 428.299 463.491Z" fill="#FDE2FE"/>
<path d="M510.453 466.388C510.502 446.41 512.351 423.645 513.052 403.352C539.956 403.559 569.364 405.113 596.437 406.029C594.895 426.724 594.713 448.561 593.564 469.438C589.925 469.857 573.377 468.966 569.095 468.801L510.453 466.388Z" fill="#C3F4F9"/>
<path d="M594.967 469.556C596.503 448.899 596.43 427.089 597.873 406.246C624.982 406.632 653.013 407.83 680.11 409.035C679.628 430.047 678.291 452.083 677.484 473.213L594.967 469.556Z" fill="#C3F4F9"/>
<path d="M188.279 409.188C198.064 418.099 228.24 439.655 240.35 440.392C239.36 454.451 238.943 468.775 238.136 482.888L230.793 617.731L227.654 679.876C226.916 693.023 225.923 706.254 225.979 719.421C226.013 727.566 233.379 738.55 241.674 739.816C252.93 741.533 265.144 741.632 276.579 742.212L347.084 745.741L487.522 751.501L527.003 753.025C530.546 753.175 541.054 753.391 544.182 753.931C541.964 754.052 540.099 754.167 537.898 754.452C551.249 754.484 568.388 755.652 581.796 756.446C581.874 757.11 581.952 757.774 582.029 758.439C587.413 758.011 586.349 764.15 592.517 763.042L591.242 764.73C592.695 767.677 594.755 764.961 597.635 765.991C598.944 775.624 606.65 770.641 611.17 771.475L612.124 770.873C612.306 769.111 612.241 769.221 611.498 767.582L609.076 766.207L609.369 765.459C614.659 764.167 615.725 769.431 619.698 764.678C622.186 764.806 623.082 764.975 625.462 764.447L625.434 764.106C623.52 763.817 621.761 763.542 619.863 763.165L619.749 762.754C622.756 762.781 625.135 762.988 628.04 762.212C628.832 761.416 629.182 761.033 629.874 760.15C634.639 760.636 635.984 758.215 638.707 761.947L640.448 761.551C640.836 762.818 640.758 762.538 640.868 763.863C642.553 763.527 643.452 763.093 644.963 763.512L645.278 764.42L646.414 763.605L646.347 764.363C644.749 765.599 643.41 766.117 643.042 767.671L642.84 767.272C645.11 769.683 652.349 769.046 653.828 774.436C654.997 778.699 653.874 783.438 649.314 785.009C644.459 783.779 634.754 782.01 637.033 790.598C639.563 793.23 644.889 794.193 643.13 797.775C637.522 801.746 629.298 799.871 628.048 804.65L628.591 805.806C632.36 807.063 638.501 805.071 640.892 808.835L640.678 809.35C636.746 808.816 635.615 810.223 632.295 812.066C630.126 813.27 626.323 815.228 624.92 817.238L625.404 817.767C628.144 816.955 628.153 817.628 630.925 817.59C630.961 819.968 626.366 822.984 624.495 824.459C626.077 826.005 627.082 826.335 627.609 828.08C625.457 830.311 624.612 829.227 621.901 829.465L621.287 829.319C612.859 827.235 602.671 823.353 594.515 820.319C582.378 815.804 570.086 811.29 557.967 806.847C506.948 788.141 451.25 783.804 402.771 812.74C386.73 822.314 377.565 831.842 364.739 844.993C360.489 849.35 351.89 857.872 347 861.149L345.538 861.733C296.521 876.148 240.183 866.626 203.866 828.858C171.693 796.334 164.565 749.517 147.879 708.759C143.684 698.511 139.444 688.182 134.657 678.275C117.855 643.505 99.0838 609.651 93.5556 570.8C93.1362 567.853 92.3776 565.601 92.375 562.496C94.8745 560.138 103.515 542.847 107.567 537.59C130.638 507.661 155.297 479.434 172.86 445.74C179.812 432.403 183.015 422.931 188.279 409.188Z" fill="url(#paint3_linear_2254_4172)"/>
<path d="M678.963 473.448L681.767 409.074C689.478 409.626 698.851 409.689 706.713 409.989L762.603 412.057C762.505 431.186 761.257 457.485 759.92 476.772L678.963 473.448Z" fill="#B9FBC0"/>
<path d="M90.6338 565.123C89.8077 557.582 90.1508 551.045 89.9163 543.732C89.1481 519.775 92.5721 497.281 99.9541 474.501C101.804 468.792 105.166 458.845 108.663 453.953C108.626 454.09 108.589 454.227 108.553 454.365C93.181 490.28 89.409 523.604 92.1563 562.482L91.7549 564.966C90.8494 565.186 91.2267 565.193 90.6338 565.123Z" fill="#F1D489"/>
<path d="M260.793 520.801C261.443 500.368 262.638 479.302 263.558 458.852C289.885 460.128 316.397 460.159 342.794 461.409C341.897 475.504 342.029 490.342 341.276 504.484C341.033 509.055 341.063 519.204 340.132 523.289C313.914 522.049 287.082 521.624 260.793 520.801Z" fill="#FDE2FE"/>
<path d="M341.938 523.446C342.069 503.469 343.389 481.601 344.065 461.445C354.694 461.474 366.573 462.188 377.305 462.629L426.662 464.779C426.173 483.674 426.041 508.065 424.796 526.496C397.487 525.795 369.497 524.263 341.938 523.446Z" fill="#FDE2FE"/>
<path d="M426.395 526.36C426.443 505.846 427.384 485.408 428.192 464.91C454.365 465.261 482.658 466.557 508.838 467.779C507.757 488.03 507.042 509.114 506.379 529.402C504.767 529.989 433.487 526.571 426.395 526.36Z" fill="#FDE2FE"/>
<path d="M507.99 530.006C508.084 510.663 509.511 487.432 510.505 467.91L593.494 471.258C591.983 490.869 591.655 512.924 590.518 532.943C588.204 533.379 571.161 532.555 568.234 532.446L507.99 530.006Z" fill="#C3F4F9"/>
<path d="M592.209 533.249C593.097 512.801 593.671 491.738 594.865 471.363C606.011 471.457 618.144 472.255 629.358 472.761L677.467 474.92C676.363 495.488 675.88 516.305 674.927 536.923L592.209 533.249Z" fill="#C3F4F9"/>
<path d="M676.477 537.011C676.454 529.698 677.071 521.01 677.34 513.615C677.807 500.797 678.267 487.755 678.994 474.957L759.71 478.435C758.637 498.512 758.695 520.455 756.924 540.281C730.134 539.337 703.195 537.783 676.477 537.011Z" fill="#B9FBC0"/>
<path d="M825.242 581.587C826.027 581.184 827.127 580.407 827.562 579.62C843.884 550.136 862.527 520.725 889.869 500.219C900.555 492.205 912.163 488.582 925.525 490.701C931.244 492.64 933.759 493.341 938.93 496.497C915.864 531.273 893.507 558.371 862.488 586.243C850.945 596.615 839.525 605.147 827.28 614.55C826.191 603.897 826.151 592.373 825.242 581.587Z" fill="#F1C0E8"/>
<path d="M827.546 616.694C834.016 613.139 850.965 599.037 856.819 593.934C874.543 578.485 893.058 560.985 908.102 542.872C919.922 528.641 930.565 512.434 941.435 497.414C987.776 528.932 948.335 630.227 922.043 665.408C901.371 693.071 887.506 710.044 852.544 718.753C849.715 692.67 844.301 672.295 832.59 648.927C831.366 646.483 831.335 646.812 829.014 645.938C828.42 637 827.515 625.494 827.546 616.694Z" fill="#F1C0E8"/>
<path d="M258.023 583.192L260.69 522.145C286.452 522.822 314.982 523.326 340.509 524.856C339.115 544.833 339.104 565.869 337.929 586.12C311.655 585.101 284.201 583.74 258.023 583.192Z" fill="#B9FBC0"/>
<path d="M339.506 586.258C339.787 572.075 340.92 557.743 341.111 543.533C341.193 537.472 341.438 531.01 341.91 524.969C369.667 525.852 396.756 526.643 424.557 527.921C424.511 547.067 422.95 569.35 422.458 589.041C396.103 588.856 366.024 587.293 339.506 586.258Z" fill="#C3F4F9"/>
<path d="M424.047 589.179C423.84 570.075 425.461 547.389 426.077 527.918C445.11 528.11 464.289 529.316 483.314 529.981C490.95 530.248 498.733 530.603 506.326 531.422L503.889 592.314C477.551 590.82 450.487 590.325 424.047 589.179Z" fill="#C3F4F9"/>
<path d="M505.414 592.449C505.685 574.041 506.742 549.75 507.999 531.504C516.928 531.621 527.626 532.399 536.708 532.796L590.533 534.959C589.373 555.019 588.875 575.502 587.979 595.624C560.374 594.946 532.928 593.278 505.414 592.449Z" fill="#C3F4F9"/>
<path d="M589.455 595.882C590.486 576.207 590.341 554.314 592.013 534.98C617.485 534.871 649.233 537.449 675.023 538.547C674.391 558.616 672.812 578.669 672.412 598.89C645.149 597.656 616.72 596.39 589.455 595.882Z" fill="#C3F4F9"/>
<path d="M673.943 599.128C674.08 579.943 675.561 557.708 676.494 538.508C703.23 539.703 730.263 540.994 756.981 541.702C755.9 561.671 755.651 581.793 754.458 601.687C728.245 601.675 700.35 599.813 673.943 599.128Z" fill="#B9FBC0"/>
<path d="M92.1573 562.48L92.3757 562.495C92.3783 565.6 93.1369 567.852 93.5563 570.799C99.0845 609.651 117.855 643.505 134.657 678.275C139.444 688.182 143.684 698.51 147.879 708.758C164.565 749.516 171.693 796.333 203.866 828.857C240.183 866.625 296.521 876.147 345.538 861.732L345.161 862.016C343.326 863.373 342.196 863.949 340.171 865.006C340.845 865.479 343.072 864.83 344.018 864.656L340.401 867.029C338.993 867.123 339.217 867.083 337.787 866.865L336.909 866.52C327.232 869.034 319.406 869.409 309.791 870.111C254.294 874.292 202.448 846.526 177.996 795.853C164.517 767.919 156.796 737.885 145.553 708.882C129.71 668.013 105.162 631.418 94.9265 588.52C93.7801 583.715 92.1275 578.704 91.8804 573.808C91.7942 571.165 92.1934 569.657 90.7561 567.379L90.6348 565.121C91.2277 565.191 90.8504 565.184 91.7559 564.964L92.1573 562.48Z" fill="#FBF8CC"/>
<path d="M90.7557 567.383C92.193 569.661 91.7938 571.169 91.88 573.812C92.1271 578.708 93.7797 583.719 94.9261 588.524C105.162 631.422 129.71 668.017 145.553 708.886C156.796 737.889 164.517 767.923 177.996 795.857C202.448 846.53 254.294 874.296 309.791 870.115C319.406 869.413 327.232 869.038 336.909 866.524L337.787 866.868C335.197 869.227 334.005 869.901 331.03 871.725C299.488 879.63 282.356 890.015 246.894 882.706C182.522 870.024 146.38 815.875 128.398 756.977C123.962 742.45 114.603 709.702 106.519 698.078C106.653 696.426 107.021 694.213 107.248 692.523C108.571 685.775 110.391 645.418 106.955 639.633L106.369 639.651L106.698 639.456C104.787 642.265 108.063 685.068 105.102 690.918C104.109 689.441 102.295 684.804 101.504 682.852C85.3891 643.107 73.0646 609.433 90.7557 567.383Z" fill="#98F5E1"/>
<path d="M255.543 643.102C257.064 624.612 257.02 603.178 257.969 584.469C283.48 584.696 311.976 586.916 337.96 587.728C337.068 607.143 336.78 626.85 335.52 646.223C309.241 645.721 282.038 643.793 255.543 643.102Z" fill="#B9FBC0"/>
<path d="M337.137 646.371C338.48 628.078 338.758 606.306 339.522 587.789C366.734 589.109 395.169 589.776 422.509 590.575C422.408 606.19 420.882 622.084 420.684 637.728C420.637 641.414 420.711 646.188 420.139 649.777C393.986 648.084 363.26 647.042 337.137 646.371Z" fill="#C3F4F9"/>
<path d="M421.968 649.964C421.923 630.58 423.525 610.286 424.046 590.84L503.626 593.979C503.103 613.595 502.069 633.389 501.436 653.048C476.927 652.981 446.872 650.869 421.968 649.964Z" fill="#C3F4F9"/>
<path d="M502.982 653.257C503.09 634.24 504.317 613.048 505.178 593.984C508.787 594.01 512.69 594.187 516.298 594.398C540.054 595.784 564.085 595.982 587.811 597.411C587.296 616.957 586.143 636.815 585.19 656.374C581.065 656.774 566.681 655.927 561.746 655.746L502.982 653.257Z" fill="#C3F4F9"/>
<path d="M586.711 656.493L589.427 597.491C599.41 597.439 610.944 598.074 621.004 598.433L672.462 600.506L669.524 660.226C641.934 659.315 614.301 657.772 586.711 656.493Z" fill="#C3F4F9"/>
<path d="M671.426 660.298C671.515 641.172 672.878 619.756 673.815 600.496C699.16 600.504 728.727 602.537 754.455 603.418C753.774 609.5 753.691 618.103 753.437 624.39L751.899 663.385L671.426 660.298Z" fill="#B9FBC0"/>
<path d="M105.103 690.915C108.064 685.065 104.788 642.262 106.699 639.453L106.37 639.648L106.956 639.63C110.392 645.415 108.572 685.772 107.249 692.52L105.09 691.394L105.103 690.915Z" fill="#FBF8CC"/>
<path d="M252.951 706.505C253.672 685.871 255.005 665.195 255.562 644.535C282.068 645.573 309.096 647.015 335.543 647.719C334.775 667.787 334.592 690.421 333.182 710.193L252.951 706.505Z" fill="#B9FBC0"/>
<path d="M829.014 645.938C831.335 646.812 831.366 646.482 832.59 648.926C844.301 672.294 849.715 692.67 852.544 718.753C853.997 770.908 830.875 809.004 783.034 830.774C740.567 850.099 692.981 848.486 648.39 837.098C642.7 835.645 636.809 834.289 631.471 831.993C634.124 830.173 639.092 827.774 642.139 826.242C664.366 815.068 681.806 797.556 695.488 776.984C698.987 771.723 702.058 765.459 706.027 760.486C718.138 760.435 731.282 761.657 743.457 762.165C760.984 762.898 777.444 765.338 779.181 742C790.608 741.904 801.976 742.984 813.527 742.764C821.987 743.193 831.964 735.842 832.696 726.952C833.581 716.205 832.334 702.462 831.644 691.576C830.683 676.415 830.318 661.019 829.014 645.938Z" fill="#CFBAF0"/>
<path d="M334.906 710.138C335.241 689.667 336.078 668.289 336.999 647.836C362.791 648.166 394.406 649.845 420.397 651.494L417.977 713.42C415.231 713.989 393.889 712.728 389.285 712.506L334.906 710.138Z" fill="#C3F4F9"/>
<path d="M419.51 713.89C420.41 693.13 420.908 672.247 421.963 651.516C447.963 651.919 475.188 654.006 501.36 654.682L498.739 716.936C473.403 716.88 445.188 714.703 419.51 713.89Z" fill="#C3F4F9"/>
<path d="M500.424 717.163C500.559 697.675 501.843 674.451 502.964 654.816C530.164 655.523 557.853 657.022 585.133 658.021L582.524 720.612L500.424 717.163Z" fill="#C3F4F9"/>
<path d="M583.947 720.882C584.063 702.462 585.762 676.985 586.804 658.156C594.616 658.798 604.611 658.894 612.721 659.247L669.516 661.921C668.395 681.931 669.242 704.484 666.946 724.044L583.947 720.882Z" fill="#B9FBC0"/>
<path d="M668.768 724.15C669.701 703.478 669.857 682.471 671.028 661.879C697.75 662.389 725.049 664.054 751.869 664.796L749.408 727.298C746.805 727.688 730.124 726.794 726.677 726.656L668.768 724.15Z" fill="#B9FBC0"/>
<path d="M105.089 691.395L107.248 692.521C107.021 694.211 106.653 696.424 106.519 698.076C98.3476 781.649 111.149 891.366 213.829 906.156C250.028 911.37 300.462 893.068 330.833 871.893C330.899 871.836 330.964 871.779 331.03 871.723C334.005 869.899 335.197 869.225 337.787 866.866C339.217 867.084 338.993 867.125 340.401 867.031C333.624 873.721 324.077 879.316 315.697 883.891C285.977 900.12 251.527 911.448 217.338 908.755C185.772 906.269 157.295 890.854 137.26 866.458C113.763 837.757 103.826 792.881 102.034 756.49C101.048 736.458 103.24 711.4 105.089 691.395Z" fill="#E3AE7D"/>
<path d="M106.52 698.074C114.604 709.698 123.963 742.446 128.399 756.973C146.381 815.871 182.523 870.02 246.895 882.702C282.357 890.011 299.489 879.626 331.031 871.721C330.965 871.777 330.9 871.834 330.834 871.891C300.463 893.066 250.029 911.369 213.83 906.155C111.15 891.365 98.3486 781.648 106.52 698.074Z" fill="#E6DFD5"/>
<path d="M621.901 829.465C624.612 829.227 625.457 830.311 627.609 828.08C627.082 826.335 626.077 826.004 624.495 824.458C626.366 822.983 630.961 819.968 630.925 817.59C628.153 817.628 628.144 816.955 625.404 817.767L624.92 817.238C626.323 815.228 630.126 813.269 632.295 812.065C635.615 810.222 636.746 808.815 640.678 809.349L640.892 808.834C638.501 805.07 632.36 807.062 628.591 805.805L628.048 804.65C629.298 799.871 637.522 801.745 643.13 797.774C644.889 794.192 639.563 793.23 637.033 790.598C634.754 782.01 644.459 783.779 649.314 785.009C653.874 783.438 654.997 778.699 653.828 774.436C652.349 769.046 645.11 769.682 642.84 767.271L643.042 767.67C643.41 766.116 644.749 765.599 646.347 764.363L646.414 763.604L645.278 764.419L644.963 763.512C643.452 763.093 642.553 763.526 640.868 763.862C640.758 762.537 640.836 762.817 640.448 761.55L638.707 761.947C635.984 758.215 634.639 760.636 629.874 760.15C629.182 761.033 628.832 761.416 628.04 762.212C625.135 762.988 622.756 762.781 619.749 762.754L619.863 763.165C621.761 763.542 623.52 763.817 625.434 764.106L625.462 764.446C623.082 764.974 622.186 764.806 619.698 764.678C615.725 769.431 614.659 764.166 609.369 765.458L609.076 766.206L611.498 767.581C612.241 769.22 612.306 769.11 612.124 770.872L611.17 771.474C606.65 770.64 598.944 775.624 597.635 765.991C594.755 764.961 592.695 767.676 591.242 764.729L592.517 763.041C586.349 764.149 587.413 758.01 582.029 758.438C581.952 757.773 581.874 757.109 581.796 756.445C568.388 755.651 551.249 754.483 537.898 754.451C540.099 754.166 541.964 754.052 544.182 753.931C557.681 753.82 573.248 754.705 586.797 755.576C624.893 758.024 663.578 757.744 701.599 760.465C692.013 787.475 654.008 821.542 627.172 830.848L621.901 829.465Z" fill="#CFBAF0"/>
<path d="M701.6 760.469L706.028 760.49C702.059 765.463 698.988 771.727 695.489 776.988C681.807 797.56 664.367 815.072 642.14 826.246C639.093 827.778 634.125 830.177 631.472 831.997C598.025 845.081 575.944 830.647 544.664 820.053C527.682 814.302 505.221 810.314 487.559 812.077C460.653 814.762 437.711 826.884 413.861 838.304C395.541 847.077 376.39 855.975 356.83 861.317C354.808 861.869 345.361 864.708 344.019 864.66C343.073 864.834 340.846 865.483 340.172 865.01C342.197 863.953 343.327 863.376 345.162 862.019L345.539 861.736L347.001 861.152C358.595 859.548 369.253 854.755 380.141 850.677C415.85 837.303 448.144 813.364 486.953 809.834C508.007 807.919 529.572 812.037 549.185 819.143C577.9 829.547 596.115 840.295 627.173 830.852C654.009 821.546 692.014 787.479 701.6 760.469Z" fill="#E3AE7D"/>
<path d="M347 861.152C351.89 857.875 360.489 849.354 364.739 844.997C377.565 831.846 386.73 822.317 402.771 812.743C451.25 783.807 506.948 788.144 557.967 806.85C570.086 811.293 582.378 815.807 594.515 820.322C602.671 823.356 612.859 827.238 621.287 829.322L621.901 829.469L627.172 830.852C596.114 840.295 577.899 829.547 549.184 819.143C529.571 812.037 508.006 807.919 486.952 809.834C448.143 813.364 415.849 837.303 380.14 850.677C369.252 854.755 358.594 859.548 347 861.152Z" fill="#E6DFD5"/>
<defs>
<linearGradient id="paint0_linear_2254_4172" x1="657.973" y1="317.544" x2="152.248" y2="216.653" gradientUnits="userSpaceOnUse">
<stop stop-color="#DF9683"/>
<stop offset="1" stop-color="#FFB578"/>
</linearGradient>
<linearGradient id="paint1_linear_2254_4172" x1="710.755" y1="415.242" x2="942.617" y2="277.303" gradientUnits="userSpaceOnUse">
<stop stop-color="#F6A070"/>
<stop offset="1" stop-color="#E5B98D"/>
</linearGradient>
<linearGradient id="paint2_linear_2254_4172" x1="379.689" y1="356.959" x2="395.955" y2="407.491" gradientUnits="userSpaceOnUse">
<stop stop-color="#F7CCCB"/>
<stop offset="1" stop-color="#FEC0D3"/>
</linearGradient>
<linearGradient id="paint3_linear_2254_4172" x1="129.364" y1="699.446" x2="594.922" y2="566.642" gradientUnits="userSpaceOnUse">
<stop stop-color="#8EFCC2"/>
<stop offset="1" stop-color="#CBC4F0"/>
</linearGradient>
</defs>
</svg>
