<svg width="1024" height="1024" viewBox="0 0 1024 1024" fill="none" xmlns="http://www.w3.org/2000/svg">
<path d="M543.918 216.949C551.788 205.931 563.557 191.213 570.229 180.462C592.515 144.551 609.436 108.836 648.062 87.3782C662.518 79.3477 674.966 73.9766 691.744 71.2551C723.162 66.1589 761.441 74.191 787.164 93.0148C804.217 105.859 820.193 120.232 836.092 134.446C852.515 149.129 872.912 162.333 887.356 178.9C902.275 197.029 912.897 219.098 916.683 242.165C922.814 279.519 910.948 314.526 892.188 346.363C889.562 350.82 882.285 364.774 878.679 366.594C882.386 355.546 889.848 342.64 883.114 330.973C868.623 305.87 837.38 299.811 812.025 295.143L774.404 288.286L723.824 279.407C681.921 271.866 651.846 264.451 610.686 283.193C589.977 252.03 572.979 239.239 543.918 216.949Z" fill="#B9FBC0"/>
<path d="M111.885 357.429C109.748 355.182 107.967 352.339 106.316 349.714C66.5409 286.511 82.9955 208.455 146.896 168.142C201.078 133.961 273.093 144.87 315.423 193.791C319.525 198.531 323.666 203.099 326.981 208.499C308.351 224.943 291.717 243.172 273.386 259.976C238.08 292.342 197.236 323.413 177.848 368.96L177.668 368.954C176.523 367.855 171.643 364.992 170.132 364.233C152.921 355.59 130.867 351.635 112.219 357.386L111.885 357.429Z" fill="#B9FBC0"/>
<path d="M327.305 208.486C355.2 185.801 381.264 172.25 417.822 170.253C427.754 169.71 435.762 168.851 446.108 170.072C476.732 173.684 503.12 188.753 528.206 205.76C531.131 207.743 541.559 214.868 543.693 216.945C517.073 256.332 508.955 282.599 509.972 330.503L363.939 398.147L284.166 433.966C266.534 441.964 230.379 457.581 216.586 469.47C216.471 466.586 218.753 461.002 219.483 457.767C222.196 445.746 221.174 431.035 217.194 419.464C244.407 419.874 264.671 415.082 288.145 400.888C345.67 366.106 366.015 295.783 340.981 234.37C337.134 224.934 332.616 217.175 327.305 208.486Z" fill="#F1C0E8"/>
<path d="M326.983 208.499L327.306 208.484C332.617 217.173 337.135 224.932 340.982 234.368C366.016 295.781 345.671 366.104 288.146 400.886C264.672 415.08 244.408 419.872 217.195 419.462L216.852 419.158C207.895 394.563 198.093 384.365 177.85 368.96C197.238 323.413 238.082 292.342 273.388 259.976C291.719 243.172 308.353 224.943 326.983 208.499Z" fill="#FFCFD2"/>
<path d="M543.693 216.945L543.917 216.95C572.978 239.24 589.976 252.031 610.685 283.194C577.418 299.562 543.552 314.816 509.972 330.503C508.955 282.599 517.073 256.332 543.693 216.945Z" fill="#CFBAF0"/>
<path d="M610.685 283.194C651.845 264.452 681.92 271.867 723.823 279.408L774.403 288.287L812.024 295.144C837.379 299.812 868.622 305.871 883.113 330.974C889.847 342.641 882.385 355.547 878.678 366.595C873.261 375.477 870.158 379.532 863.052 387.34C865.125 395.928 863.732 407.123 860.911 415.452C852.913 439.069 833.66 451.061 814.316 464.651C806.801 470.274 799.166 475.347 791.261 480.405C798.325 502.741 805.281 524.6 811.739 547.126C818.437 542.559 826.511 535.606 832.998 530.443C841.289 523.844 850.708 516.851 858.614 509.934L887.037 487.883C896.01 480.822 906.923 470.058 918.388 468.749C940.789 466.191 932.953 489.157 923.297 498.958C910.967 511.474 897.8 521.255 883.876 531.743C876.89 536.689 870.383 541.573 863.635 546.829C816.509 581.55 770.948 618.401 724.258 653.723C712.154 662.88 700.391 672.409 688.19 681.47C642.058 717.214 594.713 752.177 547.421 786.328C525.444 802.198 502.555 820.549 479.066 833.67C462.505 842.921 433.241 828.267 437.784 806.549C441.82 787.253 461.127 779.2 477.39 789.742C493.989 776.724 511.288 765.295 528.185 752.873C564.761 725.984 603.128 699.671 639.084 672.074C638.476 668.439 637.793 664.684 637.246 661.053C618.282 653.555 598.453 643.642 580.038 634.732C573.671 631.652 567.14 627.38 560.376 624.079C549.064 630.256 540.39 636.146 528.173 640.902C512.916 692.644 477.681 718.784 422.758 713.654C397.912 711.333 377.409 703.043 354.594 693.396C338.493 686.423 322.331 677.942 308.483 667.113C298.817 674.156 288.034 680.423 278.049 687.053C256.495 701.367 233.787 714.983 212.331 729.272C193.389 741.253 161.438 764.975 139.378 764.397C135.317 762.189 131.697 763.276 126.819 758.845C115.998 749.018 114.277 735.549 123.78 724.288C134.49 714.976 144.026 715.584 154.833 723.925C160.313 720.879 166.165 717.095 171.708 713.893L214.895 689.323C239.658 675.365 264.404 662.267 288.985 647.719C283.825 640.497 281.471 636.395 277.601 628.449C266.346 602.763 265.888 577.395 267.449 549.85C250.377 543.258 239.079 538.23 224.363 526.926C208.628 514.098 204.973 503.351 208.193 483.615C210.707 476.855 211.867 474.923 216.586 469.47C230.379 457.581 266.534 441.964 284.166 433.966L363.939 398.147L509.972 330.503C543.552 314.816 577.418 299.562 610.685 283.194ZM613.089 284.177C592.812 292.83 570.845 303.987 550.626 313.456L411.895 377.943L304.91 426.382C278.633 438.246 252.489 449.696 227.346 463.786C197.393 480.572 211.021 505.593 235.35 517.953C280.851 541.07 330.044 555.093 377.932 572.223C390.214 576.566 407.707 583.463 420.063 585.759C430.37 589.733 454.185 592.478 465.215 592.712C488.522 593.106 514.407 589.638 535.976 580.126C574.481 563.145 612.098 539.507 647.485 516.923L746.545 453.52C773.625 436.208 801.099 419.088 827.748 401.171C842.282 391.331 856.71 382.676 869.529 370.582C884.69 356.279 890.238 337.969 873.87 321.655C878.794 336.143 871.032 350.023 860.393 359.582C843.34 374.906 822.125 386.156 802.907 398.644C758.445 427.536 712.808 454.636 667.765 482.581L641.086 498.873C637.384 501.094 628.484 506.116 625.584 508.615C624.999 510.649 624.42 513.139 623.102 514.729C622.793 513.162 623.56 511.228 624.03 509.61C596.729 524.52 571.579 542.604 544.966 558.211C516.992 574.615 481.673 581.925 449.682 577.422C437.869 575.759 426.909 572.802 415.339 569.493C378.623 557.547 341.98 546.304 305.96 532.199C287.797 525.086 268.92 518.932 251.795 509.377C243.793 504.912 227.979 494.552 230.71 483.52C231.961 478.815 246.619 470.701 250.831 468.556C270.801 458.384 291.399 449.033 311.764 439.698L382.478 406.789C450.027 375.352 517.527 343.156 584.055 309.642C595.915 303.667 608.119 298.29 620.025 292.245C622.102 291.726 627.019 289.549 629.337 288.63C656.12 278.018 683.358 284.645 710.716 289.795L754.991 297.937L800.692 306.266C819.903 309.91 858.392 315.956 860.652 342.481C861.448 351.821 855.29 360.108 849.245 366.745C858.983 359.758 870.753 347.623 873.35 335.505C874.398 331.612 874.426 324.213 871.511 320.905C855.17 302.363 821.742 299.119 798.994 294.988L742.201 284.756C702.657 277.731 659.831 265.356 620.689 280.632C618.276 281.574 615.267 282.787 613.089 284.177ZM618.981 310.663L609.343 315.873C616.816 331.656 623.42 345.942 630.337 362.084L632.554 367.848C645.553 369.292 670.022 375.344 683.458 378.358L791.184 403.345C798.218 399.512 804.902 395.013 812.103 390.504C828.39 380.304 868.329 359.803 856.909 334.972C848.014 315.63 815.41 311.131 796.159 307.495L739.739 297.243C723.877 294.442 708.022 291.364 692.15 288.563C668.317 284.357 647.612 282.823 624.763 292.326C627.772 297.403 628.493 299.46 629.974 305.172C626.162 306.925 622.702 308.718 618.981 310.663ZM866.957 505.815L858.803 512.043C848.241 520.041 837.95 528.516 827.485 536.651C822.127 540.816 817.726 544.792 812.011 548.507C813.187 552.354 815.411 556.939 812.786 560.472C806.875 564.762 804.54 564.839 800.831 557.722C790.471 566.049 778.63 574.315 767.854 582.225L721.815 616.193C701.248 631.176 680.591 646.023 659.738 660.605C656.776 662.676 653.856 664.823 650.795 666.746C651.791 672.972 652.644 676.367 650.865 682.436C656.899 678.873 665.106 672.323 670.928 667.993L705.12 642.485L813.154 561.527C818.834 557.966 825.556 552.377 831.098 548.353C842.754 539.891 854.444 530.855 866.451 522.91L877.675 515.055C885.887 509.587 925.117 479.436 928.249 472.714L927.634 471.823C915.31 465.377 898.717 481.21 889.667 488.112C882.213 493.795 874.165 499.825 866.957 505.815ZM865.724 525.313L753.613 608.414L652.385 684.164C641.924 691.948 631.813 699.888 621.25 707.585L530.828 773.683C522.5 779.801 506.377 789.467 499.794 796.094C479.977 794.287 462.155 815.449 469.533 834.44C473.301 833.895 476.076 833.462 479.472 831.534C489.955 825.583 500.566 818.065 510.369 811.037L558.764 775.926C590.145 753.534 621.058 729.914 651.818 706.641L767.658 618.165L831.495 568.689C843.485 559.472 857.821 548.18 870.225 539.742C883.855 529.829 921.344 502.817 927.848 489.759C929.938 485.562 931.78 479.498 930.205 474.938C927.815 476.408 924.954 479.347 922.88 481.332C905.247 498.217 885.665 511.326 865.724 525.313ZM758.064 531.048C749.19 528.674 738.522 525.946 729.879 522.876C697.505 541.26 666.758 563.304 634.069 581.909C636.624 593.67 638.604 605.476 641.141 617.15L646.814 644.927C652.674 648.274 659.074 651.579 665.075 654.694L757.947 587.638C760.241 586.163 762.982 584.115 765.179 582.433C776.656 573.647 789.243 565.359 800.314 556.121C799.17 551.627 797.17 542.828 794.989 539.134C786.345 536.15 768.036 533.434 758.064 531.048ZM441.306 592.537C411.638 587.448 383.874 576.304 355.479 566.54C315.957 552.951 275.238 539.551 237.599 521.357C226.149 515.822 213.211 504.953 208.725 492.703C207.673 515.677 228.007 530.752 247.134 539.11C291.882 558.664 339.629 572.435 386.108 587.313C403.449 592.811 420.95 596.825 438.151 602.347C467.966 609.954 493.782 610.699 523.411 600.904C543.551 594.246 559.169 584.188 577.022 573.159C590.475 564.848 603.744 556.45 617.047 547.892L682.346 506.494C709.073 489.317 736.07 472.589 762.588 455.083C764.753 453.654 766.799 452.276 768.892 450.739C768.08 448.089 767.631 445.689 767.087 442.986C747.528 455.018 728.985 467.303 709.692 479.714L661.777 510.146C637.295 525.918 613.743 540.862 588.37 555.074C565.329 567.98 543.446 581.101 517.664 588.267C491.778 595.462 467.652 596.493 441.306 592.537ZM483.623 610.581C457.473 611.122 441.746 606.104 417.329 598.678C395.859 612.751 373.94 625.614 352.186 639.201C342.91 644.994 332.647 650.571 323.603 656.613L330.576 660.686C344.474 668.297 358.068 674.47 372.751 680.31C427.132 701.939 481.383 707.882 506.918 644.018C507.596 642.546 508.647 639.37 509.25 637.727C512.452 626.345 514.582 617.73 515.717 605.736C504.756 608.211 494.889 609.976 483.623 610.581ZM629.29 619.118C627.515 608.74 625.794 598.428 623.688 588.108C610.379 595.738 595.126 604.588 581.697 611.91C585.945 614.31 600.429 621.858 604.948 623.691C614.073 628.213 623.647 632.619 632.873 637.042L629.29 619.118ZM596.563 622.073C591.111 618.998 585.342 616.399 580.293 612.824C574.139 615.87 568.389 619.293 562.457 622.741L567.958 625.69C587.9 637.131 615.449 649.716 636.78 658.715C635.87 652.549 634.374 645.496 633.201 639.306C621.134 634.284 608.33 627.753 596.563 622.073ZM622.152 293.4C554.348 326.144 486.689 359.983 418.46 391.854L315.066 440.301C294.667 449.806 273.879 458.956 253.766 469.149C248.176 471.983 235.138 478.587 232.575 484.317C230.816 488.246 234.993 494.163 237.874 497.076C257.755 485.021 276.027 477.191 296.845 466.959L422.037 406.634L560.465 338.535L603.09 317.087C609.94 313.562 621.068 307.292 627.826 304.318C626.53 300.118 625.878 297.257 623.144 293.744L622.152 293.4ZM607.423 317.004L599.77 321.002C603.193 327.757 608.232 335.624 612.21 342.197C616.969 350.06 621.687 358.35 626.579 366.063C627.84 367.787 627.038 367.23 629.037 367.842L629.844 367.378C630.309 363.797 610.361 320.642 607.423 317.004ZM597.242 321.934C572.013 335.152 546.423 347.226 521.134 360.146C522.584 375.385 525.518 393.323 527.826 408.541L543.311 400.144L569.209 386.428C589.331 375.64 601.391 368.511 625.659 367.743C621.167 361.734 599.46 323.045 597.242 321.934ZM518.86 361.001L510.585 365.296C514.319 379.392 518.35 393.572 522.439 407.575C523.4 409.996 522.742 409.387 524.714 410.275L525.68 409.879C527.188 406.19 521.603 383.626 521.219 378.146C521.052 375.77 519.735 362.022 518.86 361.001ZM508.828 366.045C490.561 374.325 472.515 383.85 454.512 392.771C433.973 402.948 413.079 412.683 392.662 423.038C393.437 427.417 405.133 472.686 406.197 473.662C434.238 459.014 461.882 443.387 489.898 428.662C500.399 423.142 511.376 416.677 521.952 411.515C518.714 401.358 515.666 391.286 512.934 380.977C512.287 378.535 509.842 367.618 508.828 366.045ZM875.235 367.518C868.581 374.297 860.131 381.985 852.186 387.274C827.398 403.776 802.73 420.661 777.308 436.179C778.2 438.416 779.223 440.828 780.012 443.083L780.809 443.624C785.566 441.114 791.066 437.495 795.641 434.527C821.915 417.481 850.167 400.533 870.366 376.153C871.665 374.584 875.343 369.36 875.235 367.518ZM627.78 369.234C601.04 370.112 590.668 376.569 568.236 388.65L531.88 408.002C463.671 444.462 395.472 481.844 327.217 518.294C320.226 522.027 311.709 526.813 304.494 529.69C322.773 536.38 340.617 542.307 358.722 548.793C383.308 535.262 407.331 520.847 431.788 507.077C489.693 474.477 547.556 441.545 606.83 411.475C614.411 407.629 625.109 402.063 633.178 399.815C628.035 402.404 622.696 404.53 617.641 407.168C555.792 439.453 494.575 473.321 433.731 507.468C417.437 516.613 401.398 526.016 385.192 535.285C377.964 539.419 367.373 545.863 360.052 549.243C366.319 551.506 378.042 555.67 384.5 557.362C400.473 562.544 420.583 568.787 436.855 572.855C458.391 559.059 482.815 545.59 505.046 532.923L575.464 492.247C593.071 482.12 610.291 471.332 627.893 461.193C631.781 458.954 635.582 456.547 639.695 454.733L639.349 454.777L639.733 455.113C628.686 462.426 616.946 468.856 605.774 475.953C587.577 487.511 568.865 497.801 550.252 508.609L481.472 548.079C467.181 556.363 452.487 565.411 438.164 573.462C472.507 580.766 510.587 575.083 541.141 558.104C565.141 544.768 588.817 528.352 612.385 514.076L725.099 445.053C745.981 432.209 766.84 419.255 787.699 406.365C788.419 405.92 789.245 405.328 789.95 404.836C751.738 396.737 714.084 386.515 675.916 378.353C663.372 375.67 639.474 369.399 627.78 369.234ZM861.308 388.925C841.508 407.376 805.209 431.742 781.094 445.495C783.509 454.141 786.121 462.867 788.678 471.479C789.301 473.689 789.985 476.399 790.727 478.529C796.469 474.838 802.262 471.04 807.762 467.135C829.52 451.688 854.786 437.38 860.878 409.073C861.678 405.356 863.022 392.2 861.308 388.925ZM390.346 424.001L380.813 428.491C385.575 441.525 393.379 461.358 398.999 473.962C399.949 475.744 399.508 475.592 400.983 476.295C402.639 475.929 403.015 475.617 404.444 474.783C403.261 470.722 390.747 424.506 390.346 424.001ZM378.52 429.448C340.268 447.515 302.262 467.097 263.94 484.85C265.557 491.459 270 512.296 272.136 517.566C278.216 520.002 284.245 522.43 290.381 524.722C294.186 526.145 298.274 527.766 302.127 528.969C313.644 523.904 329.696 515.411 340.992 509.252C359.478 499.171 381.129 488.53 399.004 477.758C392.367 464.469 385.33 443.911 379.127 429.689C378.925 429.608 378.723 429.528 378.52 429.448ZM775.601 437.546C773.21 439.094 770.8 440.558 768.603 442.365L789.592 513.608C793.841 528.263 798.194 543.163 803.271 557.571C803.846 559.203 804.998 560.162 806.402 561.087C808.879 560.294 810.586 559.89 811.827 557.542C812.126 551.656 776.881 438.721 775.601 437.546ZM768.823 452.87C761.673 458.065 753.534 463.307 746.038 468.02C706.297 493.009 666.949 519.316 627.113 544.063C627.72 548.344 632.774 578.324 634.073 580.251C635.308 580.009 635.241 580.021 636.326 579.373C663.433 562.713 690.294 545.403 717.228 528.434C735.712 516.787 764.317 501.064 779.852 486.536C778.658 482.662 770.258 453.926 768.823 452.87ZM262.472 485.523L250.856 491.54C252.62 494.867 260.635 511.51 262.223 512.947L270.117 516.909C269.204 513.524 262.784 485.928 262.472 485.523ZM779.933 488.971C768.222 498.121 755.638 506.97 743.007 514.815C748.556 516.102 754.086 517.393 759.655 518.597C769.208 520.67 781.417 523.656 790.905 524.582C789.439 519.995 781.432 490.598 779.933 488.971ZM249.119 492.55L238.951 498.833C243.554 502.835 247.578 505.387 252.822 508.516C254.947 509.629 257.145 510.838 259.328 511.811C257.898 508.923 250.361 493.658 249.119 492.55ZM740.935 515.883L730.917 522.152C749.479 525.852 768.356 531.83 787.56 535.371L794.474 536.917C793.449 533.46 792.402 529.65 791.23 526.274C780.312 525.285 768.841 522.448 758.104 520.035C753.361 518.97 745.307 517.323 740.935 515.883ZM624.836 545.41C622.304 547.013 619.762 548.695 617.128 550.112C619.953 566.753 624.431 583.23 627.642 599.775L637.099 650.251C638.263 656.643 640.964 676.446 643.892 680.928C653.105 683.499 650.339 672.1 649.39 666.876C642.084 626.659 631.823 586.41 625.826 545.98L624.836 545.41ZM268.912 550.214C267.415 584.666 270.18 626.406 295.684 652.181C325.969 682.788 387.009 708.66 429.942 711.105C497.014 714.925 522.877 667.728 531.852 609.935C532.458 606.435 533.044 602.604 533.754 599.152C528.442 601.249 523.419 603.226 518.006 605.078C515.756 625.162 511.604 643.379 501.077 661.415C462.525 727.47 382.216 688.978 330.687 663.243C288.841 642.345 275.312 602.59 280.166 558.007C280.281 556.944 280.475 555.91 280.695 554.863L268.912 550.214ZM615.321 551.406C599.987 561.145 584.341 570.881 568.906 580.461C559.044 586.582 546.702 594.156 536.127 598.297C533.845 611.778 531.844 625.382 528.607 638.668C530.906 637.853 533.414 637.052 535.589 635.987C549.634 628.676 563.711 619.902 577.782 612.264L605.777 597.033C610.965 594.179 618.507 590.205 623.277 586.875C620.628 575.505 618.149 564.191 616.177 552.686C616.105 552.269 615.662 551.691 615.321 551.406ZM282.062 555.371C277.652 584.473 283.681 615.983 302.332 639.182L355.737 609.035L387.829 590.548C352.648 579.618 316.612 568.098 282.062 555.371ZM390.249 591.074C383.171 596.304 368.587 604.085 360.636 608.589L303.738 640.668C305.412 642.234 308.873 645.627 310.533 646.875C330.357 633.029 353.386 621.849 373.674 608.405C381.06 603.511 390.37 599.033 397.02 593.243L390.249 591.074ZM399.352 593.98C390.534 600.574 381.604 605.772 372.231 611.503L334.451 634.279C327.417 638.461 318.298 643.555 311.72 648.198C315.202 650.785 318.314 653.046 321.93 655.43L325.9 652.905C355.572 634.732 385.39 617.02 414.744 598.248C411.6 597.26 402.125 594.157 399.352 593.98ZM647.254 647.724C648.362 653.488 649.48 659.028 650.759 664.756L657.655 659.761L663.017 656.121C657.449 653.442 652.248 650.129 647.254 647.724ZM290.16 649.487C258.945 668.071 225.777 685.077 194.266 703.379C186.892 707.663 162.586 722.437 155.925 724.657C156.9 725.651 161.045 730.516 161.505 730.802L161.749 730.793C183.045 724.912 195.263 717.152 213.703 705.957L247.211 685.798L277.986 667.547C282.977 664.585 292.059 659.402 296.531 656.053C295.596 655.049 290.922 649.856 290.16 649.487ZM297.657 657.548C292.194 661.365 284.91 665.444 279.043 668.928L247.944 687.397C229.815 698.203 211.871 709.135 193.839 720.095C186.73 724.416 177.959 727.584 170.107 730.313C166.254 731.653 160.53 732.613 157.256 735.183C150.597 742.203 148.153 752.76 146.186 761.832C149.86 761.172 151.586 760.841 155.116 759.673C177.613 751.536 193.609 738.718 213.545 726.337C245.163 706.701 275.907 685.813 307.53 666.225C304.225 663.356 300.889 660.497 297.657 657.548ZM639.208 674.397C601.759 702.338 563.886 729.128 526.13 756.579L497.497 777.126C491.936 781.112 484.288 786.332 479.321 790.815C481.157 792.732 482.974 794.603 484.714 796.612L489.872 794.513C493.419 793.786 495.578 793.606 499.253 793.904C507.647 786.489 523.449 776.807 533.144 769.651L606.151 716.282C620.999 705.396 636.201 694.524 650.491 682.936C639.549 684.644 642.973 681.296 639.208 674.397ZM139.045 719.156C110.686 722.805 114.414 759.229 140.215 762.31L145.073 762.15C146.259 749.946 149.949 739.3 159.098 730.853C153.516 724.58 148.436 719.776 139.634 719.191L139.045 719.156ZM459.41 787.138C430.537 794.018 432.689 832.137 466.525 834.673L467.189 834.214C464.898 824.642 465.176 819.317 470.255 810.742C473.49 805.28 477.893 801.364 483.108 797.836C476.609 790.1 469.959 786.375 459.41 787.138Z" fill="#020102"/>
<path d="M613.09 284.178C615.268 282.788 618.277 281.575 620.69 280.633C659.832 265.357 702.658 277.732 742.202 284.757L798.995 294.989C821.743 299.12 855.171 302.364 871.512 320.906C874.427 324.214 874.399 331.613 873.351 335.506C870.754 347.624 858.984 359.759 849.246 366.746C855.291 360.109 861.449 351.822 860.653 342.482C858.393 315.957 819.904 309.911 800.693 306.267L754.992 297.938L710.717 289.796C683.359 284.646 656.121 278.019 629.338 288.631C627.02 289.55 622.103 291.727 620.026 292.246L620.572 291.222C623.781 289.486 624.774 289.181 628.171 288.069C628.738 286.791 628.044 284.75 627.714 283.25C628.494 281.251 628.951 282.144 630.919 280.301C627.193 280.549 629.61 278.743 624.814 280.143C621.881 280.999 615.228 284.782 613.09 284.178Z" fill="#B9FBC0"/>
<path d="M420.064 585.757C407.708 583.461 390.215 576.563 377.933 572.22C330.045 555.09 280.852 541.067 235.351 517.95C211.022 505.59 197.394 480.569 227.347 463.783C252.49 449.693 278.634 438.243 304.911 426.379L411.896 377.94L550.627 313.453C570.846 303.984 592.813 292.827 613.09 284.174C615.228 284.778 621.881 280.995 624.814 280.139C629.61 278.739 627.193 280.545 630.919 280.297C628.951 282.14 628.494 281.247 627.714 283.246C628.044 284.746 628.738 286.787 628.171 288.065C624.774 289.177 623.781 289.482 620.572 291.218L620.026 292.242C608.12 298.287 595.916 303.664 584.056 309.639C517.528 343.153 450.028 375.349 382.479 406.786L311.765 439.695C291.4 449.03 270.802 458.381 250.832 468.553C246.62 470.698 231.962 478.812 230.711 483.517C227.98 494.549 243.794 504.909 251.796 509.374C268.921 518.929 287.798 525.083 305.961 532.196C341.981 546.301 378.624 557.544 415.34 569.49C422.146 576.817 478.152 582.404 487.717 578.126C490.307 579.817 488.086 580.327 491.055 580.437L490.996 580.988C489.421 581.592 486.587 582.735 485.084 583.244C483.051 583.932 478.773 582.961 476.217 583.953C475.313 585.447 475.375 584.701 475.605 586.187L476.349 586.598C477.138 586.213 477.202 586.048 478.082 586.06C478.255 588.387 477.907 588.675 478.997 590.369L482.777 590.852L482.42 591.041L482.078 590.74L482.626 590.811C479.018 594.034 444.593 590.581 438.853 589.402C435.511 588.715 430.18 586.96 426.464 586.749C425.567 586.713 423.558 585.364 420.568 585.236L420.064 585.757Z" fill="#CFBAF0"/>
<path d="M618.98 310.663C622.701 308.718 626.161 306.925 629.973 305.172C628.492 299.46 627.771 297.403 624.762 292.326C647.611 282.823 668.316 284.357 692.149 288.563C708.021 291.364 723.876 294.442 739.738 297.243L796.158 307.495C815.409 311.131 848.013 315.63 856.908 334.972C868.328 359.803 828.389 380.304 812.102 390.504C804.901 395.013 798.217 399.512 791.183 403.345L683.457 378.358C670.021 375.344 645.552 369.292 632.553 367.848L630.336 362.084C631.07 361.19 631.415 360.724 631.542 359.501C633.352 342.036 628.922 324.63 618.98 310.663Z" fill="#B9FBC0"/>
<path d="M237.874 497.074C234.993 494.161 230.816 488.244 232.575 484.315C235.138 478.585 248.176 471.981 253.766 469.147C273.879 458.954 294.667 449.804 315.066 440.299L418.46 391.852C486.689 359.981 554.348 326.142 622.152 293.398L623.144 293.742C625.878 297.255 626.53 300.116 627.826 304.316C621.068 307.29 609.94 313.56 603.09 317.085L560.465 338.533L422.037 406.632L296.845 466.957C276.027 477.189 257.755 485.019 237.874 497.074Z" fill="#F1C0E8"/>
<path d="M609.344 315.87L618.982 310.66C628.924 324.627 633.354 342.033 631.544 359.498C631.417 360.721 631.072 361.187 630.338 362.081C623.421 345.939 616.817 331.653 609.344 315.87Z" fill="#CFBAF0"/>
<path d="M599.77 321.002L607.422 317.004C610.36 320.642 630.309 363.797 629.844 367.378L629.036 367.842C627.037 367.23 627.839 367.787 626.578 366.063C621.686 358.35 616.969 350.06 612.21 342.197C608.232 335.624 603.193 327.757 599.77 321.002Z" fill="#CFBAF0"/>
<path d="M521.135 360.146C546.424 347.226 572.014 335.152 597.243 321.934C599.461 323.045 621.168 361.734 625.66 367.743C601.392 368.511 589.332 375.64 569.21 386.428L543.312 400.144L527.827 408.541C525.519 393.323 522.585 375.385 521.135 360.146Z" fill="#CFBAF0"/>
<path d="M415.34 569.49C426.91 572.799 437.87 575.756 449.683 577.419C481.674 581.922 516.993 574.612 544.967 558.208C571.58 542.601 596.73 524.517 624.031 509.607C623.561 511.225 622.794 513.159 623.103 514.726C624.421 513.136 625 510.646 625.585 508.612C628.485 506.113 637.385 501.091 641.087 498.87L667.766 482.578C712.809 454.633 758.446 427.533 802.908 398.641C822.126 386.153 843.341 374.903 860.394 359.579C871.033 350.02 878.795 336.14 873.871 321.652C890.239 337.966 884.691 356.276 869.53 370.579C856.711 382.673 842.283 391.328 827.749 401.168C801.1 419.085 773.626 436.205 746.546 453.517L647.486 516.92C612.099 539.504 574.482 563.143 535.977 580.124C514.408 589.636 488.523 593.103 465.216 592.709C454.186 592.475 430.371 589.731 420.064 585.757L420.568 585.236C423.558 585.364 425.567 586.713 426.464 586.749C430.18 586.96 435.511 588.715 438.853 589.402C444.593 590.581 479.018 594.034 482.626 590.811L482.078 590.74L482.42 591.041L482.777 590.852L478.997 590.369C477.907 588.675 478.255 588.387 478.082 586.06C477.202 586.048 477.138 586.213 476.349 586.598L475.605 586.187C475.375 584.701 475.313 585.447 476.217 583.953C478.773 582.961 483.051 583.932 485.084 583.244C486.587 582.735 489.421 581.592 490.996 580.988L491.055 580.437C488.086 580.327 490.307 579.817 487.717 578.126C478.152 582.404 422.146 576.817 415.34 569.49Z" fill="#FDE4CF"/>
<path d="M112.221 357.388C130.869 351.637 152.923 355.592 170.134 364.235C171.645 364.994 176.525 367.857 177.67 368.956C172.432 380.706 168.322 390.551 163.968 402.62C151.97 393.316 138.869 385.32 127.903 374.436C122.454 369.026 117.518 362.999 112.221 357.388Z" fill="#98F5E1"/>
<path d="M135.112 507.538C125.313 504.79 120.861 504.32 111.071 499.546C91.1573 489.94 76.7884 473.002 69.3987 452.289C56.1307 415.101 73.3013 370.594 111.886 357.43L112.22 357.387C117.517 362.998 122.453 369.025 127.902 374.435C138.868 385.319 151.969 393.315 163.967 402.619L163.932 402.912C161.369 407.814 158.912 417.934 157.286 423.56C151.796 442.564 147.496 462.052 142.947 481.299C141.533 487.284 138.421 502.976 135.68 507.682L135.112 507.538Z" fill="#8EECF5"/>
<path d="M510.586 365.295L518.861 361C519.736 362.021 521.053 375.769 521.22 378.145C521.604 383.625 527.189 406.189 525.681 409.878L524.715 410.274C522.743 409.386 523.401 409.995 522.44 407.574C518.351 393.571 514.32 379.391 510.586 365.295Z" fill="#F1C0E8"/>
<path d="M392.662 423.036C413.079 412.681 433.973 402.946 454.512 392.769C472.515 383.848 490.561 374.323 508.828 366.043C509.842 367.616 512.287 378.533 512.934 380.975C515.666 391.284 518.714 401.356 521.952 411.513C511.376 416.675 500.399 423.14 489.898 428.66C461.882 443.385 434.238 459.012 406.197 473.66C405.133 472.684 393.437 427.415 392.662 423.036Z" fill="#F1C0E8"/>
<path d="M777.309 436.177C802.731 420.659 827.399 403.774 852.187 387.272C860.132 381.983 868.582 374.295 875.236 367.516C875.344 369.358 871.666 374.582 870.367 376.151C850.168 400.531 821.916 417.479 795.642 434.525C791.067 437.493 785.567 441.112 780.81 443.622L780.013 443.081C779.224 440.826 778.201 438.414 777.309 436.177Z" fill="#FDE4CF"/>
<path d="M177.669 368.953L177.849 368.959C198.092 384.364 207.894 394.562 216.851 419.157C192.471 417.475 185.061 414.597 163.932 402.91L163.967 402.617C168.321 390.548 172.431 380.703 177.669 368.953Z" fill="#AD9EA9"/>
<path d="M304.494 529.69C311.709 526.813 320.226 522.027 327.217 518.294C395.472 481.844 463.671 444.462 531.88 408.002L568.236 388.65C590.668 376.569 601.04 370.112 627.78 369.234C639.474 369.399 663.372 375.67 675.916 378.353C714.084 386.515 751.738 396.737 789.95 404.836C789.245 405.328 788.419 405.92 787.699 406.365C766.84 419.255 745.981 432.209 725.099 445.053L612.385 514.076C588.817 528.352 565.141 544.768 541.141 558.104C510.587 575.083 472.507 580.767 438.164 573.463C452.487 565.412 467.181 556.363 481.472 548.079L550.252 508.609C568.865 497.801 587.577 487.511 605.774 475.953C616.946 468.856 628.686 462.426 639.733 455.113L639.349 454.777L639.695 454.733C635.582 456.547 631.781 458.954 627.893 461.193C610.291 471.332 593.071 482.12 575.464 492.247L505.046 532.923C482.815 545.59 458.391 559.06 436.855 572.856C420.583 568.788 400.473 562.544 384.5 557.362C378.042 555.67 366.319 551.506 360.052 549.243C367.373 545.863 377.964 539.419 385.192 535.285C401.398 526.016 417.437 516.613 433.731 507.468C494.575 473.321 555.792 439.453 617.641 407.168C622.696 404.53 628.035 402.404 633.178 399.815C625.109 402.063 614.411 407.629 606.83 411.475C547.556 441.545 489.693 474.477 431.788 507.077C407.331 520.847 383.308 535.262 358.722 548.793C340.617 542.307 322.773 536.38 304.494 529.69ZM691.392 425.421C690.005 427.92 688.875 429.584 688.286 432.389C688.629 433.485 688.361 433.098 688.88 433.67C690.001 431.114 691.173 428.759 691.803 426.047L691.392 425.421ZM646.244 450.356C644.854 451.182 642.854 452.081 642.094 453.309L643.29 453.389C644.819 452.487 646.259 451.996 646.967 450.625L646.244 450.356Z" fill="#FDE4CF"/>
<path d="M781.094 445.496C805.209 431.743 841.508 407.377 861.308 388.926C863.022 392.201 861.678 405.357 860.878 409.074C854.786 437.381 829.52 451.689 807.762 467.136C802.262 471.041 796.469 474.839 790.727 478.53C789.985 476.4 789.301 473.69 788.678 471.48C786.121 462.868 783.509 454.142 781.094 445.496Z" fill="#FDE4CF"/>
<path d="M135.68 507.68C138.421 502.974 141.533 487.282 142.947 481.297C147.496 462.05 151.796 442.562 157.286 423.558C158.912 417.932 161.369 407.812 163.932 402.91C185.061 414.597 192.471 417.475 216.851 419.157L217.194 419.461C221.174 431.032 222.196 445.743 219.483 457.764C218.753 460.999 216.471 466.583 216.586 469.467C211.867 474.92 210.707 476.852 208.193 483.612C206.011 483.946 200.814 490.304 198.437 492.014C179.481 505.648 158.476 511.904 135.68 507.68Z" fill="#A3C4F3"/>
<path d="M380.812 428.49L390.346 424C390.747 424.505 403.261 470.721 404.444 474.782C403.015 475.616 402.639 475.928 400.983 476.294C399.508 475.591 399.949 475.743 398.999 473.961C393.379 461.357 385.575 441.524 380.812 428.49Z" fill="#F1C0E8"/>
<path d="M688.879 433.671C688.36 433.099 688.628 433.486 688.285 432.39C688.874 429.585 690.004 427.921 691.391 425.422L691.802 426.048C691.172 428.76 690 431.115 688.879 433.671Z" fill="#020102"/>
<path d="M263.939 484.847C302.261 467.094 340.267 447.512 378.519 429.445C378.722 429.525 378.924 429.605 379.126 429.686C385.329 443.908 392.366 464.466 399.003 477.755C381.128 488.527 359.477 499.168 340.991 509.249C329.695 515.408 313.643 523.901 302.126 528.966C298.273 527.763 294.185 526.142 290.38 524.719C284.244 522.427 278.215 520 272.135 517.564C269.999 512.294 265.556 491.456 263.939 484.847Z" fill="#F1C0E8"/>
<path d="M768.604 442.366C770.801 440.559 773.211 439.095 775.602 437.547C776.882 438.722 812.127 551.657 811.828 557.543C810.587 559.891 808.879 560.296 806.402 561.089C804.998 560.164 803.846 559.204 803.271 557.572C798.194 543.164 793.841 528.264 789.592 513.609L768.604 442.366Z" fill="#FBF8CC"/>
<path d="M441.305 592.535C467.651 596.491 491.777 595.46 517.663 588.265C543.445 581.099 565.328 567.978 588.369 555.072C613.742 540.86 637.294 525.916 661.776 510.144L709.691 479.712C728.984 467.301 747.527 455.016 767.086 442.984C767.63 445.687 768.079 448.087 768.891 450.737C766.798 452.274 764.752 453.652 762.587 455.081C736.069 472.587 709.072 489.315 682.345 506.492L617.046 547.89C603.743 556.448 590.474 564.846 577.021 573.157C559.168 584.186 543.55 594.244 523.41 600.902C493.781 610.697 467.965 609.952 438.15 602.345C441.129 601.58 454.046 605.081 458.597 605.796C472.714 608.016 484.837 608.053 498.955 605.731C500.755 605.435 507.242 604.764 508.39 604.183L508.209 602.871C509.323 602.69 508.761 602.797 509.893 602.546L510.13 601.591C509.09 600.593 508.974 600.659 508.581 599.312C509.637 597.495 511.679 597.173 513.955 596.338C517.934 589.888 517.586 594.615 520.709 591.724C516.782 589.971 500.303 592.917 495.68 593.769C486.461 595.466 448.347 597.594 441.305 592.535Z" fill="#FDE4CF"/>
<path d="M643.29 453.388L642.094 453.308C642.854 452.08 644.854 451.181 646.244 450.355L646.967 450.624C646.259 451.995 644.819 452.486 643.29 453.388Z" fill="#BFB19C"/>
<path d="M627.113 544.06C666.949 519.313 706.297 493.006 746.038 468.017C753.534 463.304 761.673 458.062 768.823 452.867C770.258 453.923 778.658 482.659 779.852 486.533C764.317 501.061 735.712 516.784 717.228 528.431C690.294 545.4 663.433 562.71 636.326 579.37C635.241 580.018 635.308 580.007 634.073 580.249C632.774 578.322 627.72 548.341 627.113 544.06ZM739.788 485.704C738.132 486.78 734.517 488.991 733.159 490.176L733.207 490.853L732.8 490.515L732.531 491.023C732.754 490.744 732.978 490.464 733.201 490.184L733.894 490.562C736.385 489.103 738.341 487.842 740.721 486.238C745.231 482.727 752.727 477.376 755.254 472.596C753.233 473.524 742.452 483.465 739.788 485.704Z" fill="#FDE4CF"/>
<path d="M791.262 480.402C799.167 475.344 806.802 470.271 814.317 464.648C829.214 472.424 842.252 481.823 851.589 496.239C853.924 499.845 856.547 507.099 858.615 509.931C850.709 516.848 841.29 523.841 832.999 530.44C826.512 535.603 818.438 542.557 811.74 547.124C805.282 524.598 798.326 502.738 791.262 480.402Z" fill="#8EECF5"/>
<path d="M866.957 505.812C874.165 499.822 882.213 493.792 889.667 488.109C898.717 481.207 915.31 465.374 927.634 471.82L928.249 472.711C925.117 479.433 885.887 509.584 877.675 515.052C873.534 509.271 869.934 509.361 866.957 505.812Z" fill="#FDE4CF"/>
<path d="M739.787 485.706C742.451 483.467 753.232 473.526 755.253 472.598C752.726 477.378 745.23 482.729 740.72 486.24L739.787 485.706Z" fill="#020102"/>
<path d="M865.725 525.312C885.666 511.325 905.248 498.216 922.881 481.331C924.955 479.346 927.816 476.408 930.206 474.938C931.781 479.497 929.939 485.561 927.849 489.758C921.345 502.816 883.856 529.829 870.226 539.742C867.942 535.838 866.94 529.832 865.725 525.312Z" fill="#FDE4CF"/>
<path d="M135.68 507.681C158.476 511.905 179.481 505.649 198.437 492.015C200.814 490.305 206.011 483.947 208.193 483.613C204.973 503.349 208.628 514.096 224.363 526.924C223.241 532.431 226.287 539.396 227.822 544.538C236.201 572.602 248.56 598.697 268.828 620.223C271.776 623.353 272.592 628.24 277.601 628.448C281.471 636.394 283.825 640.495 288.985 647.717C264.404 662.265 239.658 675.363 214.895 689.321L171.708 713.891C166.165 717.093 160.313 720.877 154.833 723.923C144.026 715.582 134.49 714.974 123.78 724.286C122.294 718.153 117.893 706.587 115.706 700.175C98.8017 650.594 101.752 597.286 118.629 548.124C122.761 536.086 129.129 518.945 135.112 507.537L135.68 507.681Z" fill="#CFBAF0"/>
<path d="M250.855 491.54L262.471 485.523C262.783 485.928 269.203 513.524 270.116 516.909L262.222 512.947C260.634 511.51 252.619 494.867 250.855 491.54Z" fill="#CFBAF0"/>
<path d="M740.721 486.241C738.341 487.845 736.385 489.106 733.894 490.565L733.201 490.187C732.978 490.467 732.754 490.747 732.531 491.026L732.8 490.518L733.207 490.856L733.159 490.179C734.517 488.994 738.132 486.783 739.788 485.707L740.721 486.241Z" fill="#4D4138"/>
<path d="M743.008 514.813C755.639 506.968 768.223 498.119 779.934 488.969C781.433 490.596 789.44 519.994 790.906 524.581C781.418 523.655 769.209 520.668 759.656 518.595C754.087 517.391 748.557 516.1 743.008 514.813Z" fill="#8EECF5"/>
<path d="M238.951 498.834L249.119 492.551C250.361 493.659 257.898 508.924 259.328 511.812C257.145 510.839 254.947 509.63 252.822 508.517C247.578 505.388 243.554 502.836 238.951 498.834Z" fill="#F1C0E8"/>
<path d="M208.725 492.703C213.211 504.953 226.149 515.822 237.599 521.357C275.238 539.551 315.957 552.951 355.479 566.54C383.874 576.304 411.638 587.448 441.306 592.537C448.348 597.596 486.462 595.468 495.681 593.771C500.304 592.919 516.783 589.973 520.71 591.726C517.587 594.617 517.935 589.89 513.956 596.34C511.68 597.175 509.638 597.497 508.582 599.314C508.975 600.661 509.091 600.595 510.131 601.593L509.894 602.548C508.762 602.799 509.324 602.692 508.21 602.873L508.391 604.185C507.243 604.766 500.756 605.437 498.956 605.733C484.838 608.055 472.715 608.018 458.598 605.798C454.047 605.083 441.13 601.582 438.151 602.347C420.95 596.825 403.449 592.811 386.108 587.313C339.629 572.435 291.882 558.664 247.134 539.11C228.007 530.752 207.673 515.677 208.725 492.703Z" fill="#FFCFD2"/>
<path d="M858.803 512.04L866.957 505.812C869.934 509.362 873.534 509.272 877.675 515.053L866.451 522.908C864.08 519.258 861.268 515.784 858.803 512.04Z" fill="#B9FBC0"/>
<path d="M812.012 548.507C817.727 544.792 822.128 540.816 827.486 536.651C837.951 528.516 848.242 520.041 858.804 512.043C861.269 515.787 864.081 519.26 866.452 522.91C854.445 530.855 842.755 539.891 831.099 548.353C825.557 552.377 818.835 557.966 813.155 561.527L812.787 560.472C815.412 556.939 813.188 552.354 812.012 548.507Z" fill="#B9FBC0"/>
<path d="M730.918 522.153L740.936 515.883C745.308 517.323 753.362 518.971 758.105 520.036C768.842 522.449 780.313 525.285 791.231 526.274C792.403 529.65 793.45 533.46 794.475 536.917L787.561 535.371C768.357 531.83 749.48 525.853 730.918 522.153Z" fill="#FDE4CF"/>
<path d="M729.878 522.875C738.521 525.945 749.189 528.674 758.063 531.048C757.812 531.235 757.561 531.422 757.31 531.609C744.528 537.746 690.89 556.751 685.809 569.051C690.779 577.324 757.366 554.075 767.721 549.437C774.876 546.233 788.694 543.123 794.988 539.134C797.169 542.828 799.169 551.627 800.313 556.121C789.242 565.359 776.655 573.646 765.178 582.432C762.981 584.114 760.24 586.162 757.946 587.637C757.229 586.846 756.333 585.543 755.04 585.939C743.033 589.61 732.014 595.315 719.896 599.107C700.494 605.178 681.298 609.865 661.417 614.016C655.966 615.251 644.845 616.118 641.14 617.149C638.603 605.475 636.623 593.669 634.068 581.908C666.757 563.303 697.504 541.259 729.878 522.875Z" fill="#8EECF5"/>
<path d="M499.794 796.094C506.377 789.467 522.5 779.8 530.828 773.682L621.25 707.584C631.813 699.887 641.924 691.948 652.385 684.164L753.613 608.414L865.724 525.312C866.939 529.832 867.941 535.838 870.225 539.742C857.821 548.18 843.485 559.471 831.495 568.688L767.658 618.165L651.818 706.641C621.058 729.914 590.145 753.533 558.764 775.925L510.369 811.037C500.566 818.065 489.955 825.583 479.472 831.534C476.076 833.462 473.301 833.895 469.533 834.44C462.155 815.449 479.977 794.287 499.794 796.094Z" fill="#B9FBC0"/>
<path d="M224.364 526.926C239.08 538.23 250.378 543.259 267.45 549.851C265.889 577.396 266.347 602.764 277.602 628.45C272.593 628.242 271.777 623.355 268.829 620.225C248.561 598.699 236.202 572.604 227.823 544.54C226.288 539.398 223.242 532.433 224.364 526.926Z" fill="#F1C0E8"/>
<path d="M758.065 531.047C768.037 533.433 786.346 536.149 794.99 539.133C788.696 543.122 774.878 546.232 767.723 549.436C757.368 554.074 690.781 577.323 685.811 569.05C690.892 556.75 744.53 537.745 757.312 531.608C757.563 531.421 757.814 531.234 758.065 531.047Z" fill="#D6ECF3"/>
<path d="M863.635 546.828C870.383 541.572 876.89 536.688 883.876 531.742C886.525 533.249 888.399 533.34 890.973 534.474C948.155 559.651 982.673 624.491 969.559 685.912C957.981 740.141 919.783 772.016 869.744 789.938C849.613 797.148 826.473 796.243 805.486 793.9C806.289 791.915 807.337 789.824 808.317 787.896C839.651 726.225 857.206 657.572 862.742 588.768C863.826 575.29 864.732 560.188 863.635 546.828Z" fill="#B9FBC0"/>
<path d="M617.129 550.112C619.763 548.695 622.305 547.013 624.837 545.41L625.827 545.981C631.824 586.41 642.085 626.659 649.391 666.876C650.34 672.1 653.106 683.499 643.893 680.928C640.965 676.446 638.264 656.644 637.1 650.252L627.643 599.775C624.432 583.23 619.954 566.753 617.129 550.112Z" fill="#FDE4CF"/>
<path d="M688.189 681.47C700.39 672.409 712.153 662.879 724.257 653.722C770.947 618.4 816.508 581.549 863.634 546.828C864.731 560.188 863.825 575.29 862.741 588.768C857.205 657.572 839.65 726.225 808.316 787.896C807.336 789.824 806.288 791.915 805.485 793.9L805.022 794.092C786.565 790.529 775.054 786.855 758.739 777.253C718.609 753.634 699.805 725.615 688.189 681.47Z" fill="#98F5E1"/>
<path d="M531.852 609.936C522.877 667.729 497.014 714.926 429.942 711.106C387.009 708.661 325.969 682.789 295.684 652.182C270.18 626.407 267.415 584.667 268.912 550.215L280.695 554.864C280.475 555.911 280.281 556.945 280.166 558.008C275.312 602.591 288.841 642.346 330.687 663.244C382.216 688.979 462.525 727.471 501.077 661.416C511.604 643.38 515.756 625.163 518.006 605.079C523.419 603.227 528.442 601.25 533.754 599.153C533.044 602.605 532.458 606.436 531.852 609.936Z" fill="#CFBAF0"/>
<path d="M536.127 598.297C546.702 594.156 559.044 586.582 568.906 580.461C584.341 570.881 599.987 561.145 615.321 551.406C615.662 551.691 616.105 552.269 616.177 552.686C618.149 564.191 620.628 575.505 623.277 586.875C618.507 590.205 610.965 594.179 605.777 597.033L577.782 612.265C563.711 619.903 549.634 628.676 535.589 635.987C533.414 637.052 530.906 637.853 528.607 638.668C531.844 625.382 533.845 611.778 536.127 598.297ZM604.805 573.968C602.403 575.477 591.703 582.72 590.954 584.844L591.3 585.044C593.575 583.742 604.382 576.012 605.133 574.196L604.805 573.968Z" fill="#FDE4CF"/>
<path d="M302.333 639.181C283.682 615.982 277.653 584.473 282.063 555.371C316.613 568.098 352.649 579.618 387.83 590.548L355.738 609.034L302.333 639.181Z" fill="#F1C0E8"/>
<path d="M800.831 557.723C804.54 564.84 806.875 564.763 812.786 560.473L813.154 561.528L705.12 642.486L670.928 667.995C665.106 672.325 656.899 678.874 650.865 682.437C652.644 676.368 651.791 672.973 650.795 666.747C653.856 664.824 656.776 662.677 659.738 660.606C680.591 646.024 701.248 631.177 721.815 616.194L767.854 582.227C778.63 574.317 790.471 566.05 800.831 557.723Z" fill="#B9FBC0"/>
<path d="M591.299 585.045L590.953 584.845C591.702 582.721 602.402 575.478 604.804 573.969L605.132 574.197C604.381 576.013 593.574 583.743 591.299 585.045Z" fill="#020102"/>
<path d="M757.947 587.638L665.075 654.694C659.074 651.579 652.674 648.274 646.814 644.927L641.141 617.15C644.846 616.119 655.967 615.252 661.418 614.017C681.299 609.866 700.495 605.179 719.897 599.108C732.015 595.316 743.034 589.611 755.041 585.94C756.334 585.544 757.23 586.847 757.947 587.638Z" fill="#90DBF4"/>
<path d="M629.29 619.116C625.67 619.576 606.623 622.25 604.948 623.688C600.429 621.855 585.945 614.308 581.697 611.908C595.126 604.586 610.379 595.735 623.688 588.105C625.794 598.425 627.515 608.737 629.29 619.116Z" fill="#8EECF5"/>
<path d="M303.738 640.667L360.636 608.588C368.587 604.084 383.171 596.304 390.249 591.074L397.02 593.242C390.37 599.032 381.06 603.51 373.674 608.404C353.386 621.848 330.357 633.028 310.533 646.874C308.873 645.626 305.412 642.233 303.738 640.667Z" fill="#F1C0E8"/>
<path d="M311.721 648.198C318.299 643.555 327.418 638.461 334.452 634.279L372.232 611.503C381.605 605.772 390.535 600.574 399.353 593.98C402.126 594.157 411.601 597.259 414.745 598.247C385.391 617.019 355.573 634.731 325.901 652.904L321.931 655.43C318.315 653.046 315.203 650.785 311.721 648.198Z" fill="#F1C0E8"/>
<path d="M417.33 598.676C441.747 606.102 457.474 611.12 483.624 610.579C488.583 623.061 496.876 632.347 509.251 637.725C508.648 639.368 507.597 642.544 506.919 644.016C505.039 643.562 472.663 651.53 467.782 652.705C423.365 663.397 378.384 670.64 333.224 659.801C332.254 659.568 331.343 660.116 330.577 660.685L323.604 656.612C332.648 650.57 342.911 644.992 352.187 639.199C373.941 625.612 395.86 612.749 417.33 598.676Z" fill="#F1C0E8"/>
<path d="M483.623 610.579C494.889 609.974 504.756 608.209 515.717 605.734C514.582 617.728 512.452 626.343 509.25 637.725C496.875 632.347 488.582 623.061 483.623 610.579Z" fill="#FDE4CF"/>
<path d="M596.563 622.073C590.478 623.202 571.194 623.159 567.958 625.69L562.457 622.741C568.389 619.293 574.139 615.87 580.293 612.824C585.342 616.399 591.111 618.998 596.563 622.073Z" fill="#8EECF5"/>
<path d="M604.947 623.689C606.622 622.251 625.669 619.577 629.289 619.117L632.872 637.04C623.646 632.617 614.072 628.211 604.947 623.689Z" fill="#D6ECF3"/>
<path d="M567.957 625.687C571.193 623.156 590.477 623.199 596.562 622.07C608.329 627.75 621.133 634.281 633.2 639.303C634.373 645.493 635.869 652.546 636.779 658.712C615.448 649.713 587.899 637.128 567.957 625.687Z" fill="#D6ECF3"/>
<path d="M477.391 789.74C461.128 779.198 441.821 787.252 437.785 806.548C433.242 828.266 462.506 842.92 479.067 833.669C502.556 820.548 525.445 802.197 547.422 786.327C594.714 752.176 642.059 717.213 688.191 681.469C699.807 725.614 718.611 753.633 758.741 777.252C775.056 786.854 786.567 790.528 805.024 794.091C803.831 797.241 801.433 801.447 799.71 804.477C732.834 922.072 596.191 1002.04 459.561 971.931C447.821 969.344 435.533 966.972 424.48 963.098C392.57 951.914 361.591 937.786 331.388 922.661C312.389 913.121 292.785 904.855 274.24 894.437C218.437 862.395 173.867 818.49 139.379 764.396C161.439 764.974 193.39 741.252 212.332 729.271C217.588 733.121 253.512 729.798 261.91 728.548C287.308 724.769 320.762 712.674 343.529 700.728C347.135 698.836 352.135 696.722 354.595 693.394C377.41 703.041 397.913 711.331 422.759 713.652C477.682 718.782 512.917 692.642 528.174 640.9C540.391 636.144 549.065 630.255 560.377 624.078C567.141 627.379 573.672 631.65 580.039 634.73C598.454 643.64 618.283 653.554 637.247 661.052C637.794 664.683 638.477 668.437 639.085 672.072C603.129 699.669 564.762 725.982 528.186 752.871C511.289 765.293 493.99 776.722 477.391 789.74Z" fill="#90DBF4"/>
<path d="M330.576 660.688C331.342 660.119 332.253 659.571 333.223 659.804C378.383 670.643 423.364 663.4 467.781 652.708C472.662 651.533 505.038 643.565 506.918 644.019C481.383 707.883 427.132 701.94 372.751 680.311C358.068 674.471 344.474 668.299 330.576 660.688Z" fill="#90DBF4"/>
<path d="M650.759 664.755C649.48 659.027 648.362 653.487 647.254 647.723C652.248 650.128 657.449 653.442 663.017 656.121L657.655 659.76L650.759 664.755Z" fill="#D6ECF3"/>
<path d="M155.926 724.654C162.587 722.434 186.893 707.66 194.267 703.376C225.778 685.074 258.946 668.068 290.161 649.484C290.923 649.853 295.597 655.046 296.532 656.05C292.06 659.399 282.978 664.582 277.987 667.544L247.212 685.795L213.704 705.955C195.264 717.15 183.046 724.909 161.75 730.79L161.506 730.799C161.046 730.513 156.901 725.648 155.926 724.654Z" fill="#CFBAF0"/>
<path d="M146.186 761.83C148.153 752.758 150.597 742.201 157.256 735.181C160.53 732.611 166.254 731.651 170.107 730.311C177.959 727.582 186.73 724.414 193.839 720.093C211.871 709.133 229.815 698.201 247.944 687.395L279.043 668.927C284.91 665.443 292.194 661.364 297.657 657.547C300.889 660.496 304.225 663.355 307.53 666.224C275.907 685.812 245.163 706.699 213.545 726.335C193.609 738.716 177.613 751.534 155.116 759.671C151.586 760.839 149.86 761.17 146.186 761.83Z" fill="#CFBAF0"/>
<path d="M308.482 667.113C322.33 677.942 338.492 686.423 354.593 693.396C352.133 696.724 347.133 698.838 343.527 700.73C320.76 712.676 287.306 724.771 261.908 728.55C253.51 729.8 217.586 733.123 212.33 729.273C233.786 714.984 256.494 701.367 278.048 687.053C288.033 680.423 298.816 674.156 308.482 667.113Z" fill="#CFBAF0"/>
<path d="M479.32 790.816C484.287 786.333 491.935 781.113 497.496 777.127L526.129 756.58C563.885 729.129 601.758 702.339 639.207 674.398C642.972 681.297 639.548 684.645 650.49 682.937C636.2 694.525 620.998 705.396 606.15 716.282L533.143 769.651C523.448 776.807 507.646 786.49 499.252 793.905C495.577 793.607 493.418 793.787 489.871 794.514L484.713 796.613C482.973 794.604 481.156 792.733 479.32 790.816Z" fill="#B9FBC0"/>
<path d="M140.216 762.31C114.415 759.229 110.687 722.805 139.046 719.156L139.635 719.191C148.437 719.776 153.517 724.58 159.099 730.853C149.95 739.3 146.26 749.946 145.074 762.15L140.216 762.31Z" fill="#90DBF4"/>
<path d="M466.524 834.672C432.688 832.136 430.536 794.017 459.409 787.137C469.958 786.374 476.608 790.099 483.107 797.835C477.892 801.363 473.489 805.278 470.254 810.74C465.175 819.315 464.897 824.64 467.188 834.212L466.524 834.672Z" fill="#B9FBC0"/>
</svg>
