<svg width="1024" height="1024" viewBox="0 0 1024 1024" fill="none" xmlns="http://www.w3.org/2000/svg">
<path d="M214.426 449.15C211.405 446 207.988 441.119 204.979 437.468C163.296 386.899 79.5381 368.575 60.3618 300.416C51.6104 264.775 68.1317 232.836 92.0366 207.549C148.526 147.796 230.286 111.421 311.247 99.3299C409.908 84.5958 500.402 102.75 586.54 154.122C578.33 156.312 532.506 170.148 528.845 174.599C518.535 174.749 508.859 175.061 498.594 175.947C353.734 188.457 240.568 297.938 234.915 445.729C233.374 441.663 235.394 436.896 234.276 433.83C228.739 434.846 217.057 443.964 214.426 449.15Z" fill="#FCE1AE"/>
<path d="M586.541 154.12C613.731 149.414 630.359 147.944 657.681 147.812C789.509 147.176 902.931 245.762 926.346 374.463C947.667 493.778 884.076 615.193 777.98 672.639C762.874 679.345 748.219 686.04 732.275 690.49C729.295 691.322 724.423 693.034 721.503 693.53C721.059 691.784 718.986 687.417 718.142 685.534C725.335 670.227 724.527 663.136 712.073 651.416C720.029 641.054 730.964 630.381 739.685 619.443C774.866 575.448 795.253 522.659 799.369 466.629C809.636 326.857 701.727 198.374 564.382 177.732C552.351 175.924 540.983 175.396 528.846 174.597C532.507 170.146 578.331 156.31 586.541 154.12Z" fill="#B9FBC0"/>
<path d="M234.916 445.728C240.569 297.937 353.735 188.456 498.595 175.946C508.86 175.06 518.536 174.748 528.846 174.598C540.983 175.397 552.351 175.925 564.382 177.733C701.727 198.375 809.636 326.858 799.369 466.63C795.253 522.66 774.866 575.449 739.685 619.444C730.964 630.382 720.029 641.055 712.073 651.417C724.527 663.137 725.335 670.228 718.142 685.535C718.986 687.418 721.059 691.785 721.503 693.531C724.442 702.715 732.962 722.4 738.263 729.593C751.307 747.295 764.82 753.701 761.379 778.839C760.08 788.325 757.487 799.997 752.608 808.814C735.882 839.041 700.895 853.268 669.963 863.461C640.791 873.074 615.347 876.93 585.504 880.849C540.262 886.79 497.86 887.35 452.542 881.722C437.307 879.83 420.705 876.558 405.545 873.626C360.765 862.862 301.3 845.584 278.989 800.755C273.765 790.26 272.657 781.236 272.418 769.941C271.782 739.867 298.15 730.519 308.926 706.629C312.185 698.473 313.872 687.754 314.141 679.072C314.59 664.611 312.17 661.413 326.607 654.638C318.841 647.876 319.819 644.68 315.952 641.032C308.022 633.55 302.185 628.354 294.632 619.998C269.448 592.135 248.259 548.999 240.076 512.4C239.62 508.996 239.084 505.601 238.564 502.205C238.516 499.742 238.154 497.133 237.695 494.709C234.597 478.34 234.867 462.362 234.916 445.728ZM518.253 181.131C447.232 179.682 371.017 212.857 320.647 262.152C288.594 293.521 265.33 332.168 252.632 375.17C248.744 388.039 243.802 405.649 243.416 419.14C241.588 432.849 239.283 464.47 241.774 478.09C245.915 527.88 266.272 575.939 298.162 614.296C305.678 623.336 318.159 636.954 328.322 642.345C334.943 647.044 343.819 651.848 351.25 654.864C345.814 649.524 337.738 642.88 331.68 637.149C325.518 629.933 317.972 622.796 312.129 615.261C283.084 577.807 264.429 544.794 257.771 497.822L261.952 498.046C270.26 544.457 289.881 580.696 319.537 616.975C330.581 630.486 343.868 645.621 358.213 655.643C368.674 662.953 390.711 672.822 403.293 675.194C391.098 666.879 378.575 660.581 367.217 650.507C357.701 642.068 347.608 634.239 339.181 624.591C312.288 593.515 287.016 549.327 279.381 508.875L278.943 506.518C284.663 517.761 288.053 528.556 292.799 539.863C298.755 554.053 309.464 575.825 318.525 588.07C329.441 612.506 376.148 657.085 399.66 669.11C464.155 702.097 561.756 696.748 628.463 678.424C549.651 664.958 473.7 598.527 451.453 520.868C447.489 507.03 446.063 490.551 445.699 476.168C404.915 486.819 371.852 503.976 344.814 537.433C334.849 549.764 327.151 560.37 322.893 576.176C321.987 579.537 320.667 584.909 319.184 587.899C318.032 551.298 365.233 508.139 394.967 491.809C411.761 482.586 427.863 477.195 446.278 472.281C446.468 470.332 446.493 467.814 446.573 465.812C447.645 462.619 448.039 456.039 448.913 452.259C455.633 423.188 487.017 409.538 514.441 416.775C541.789 423.992 562.106 441.924 576.454 465.828C583.421 477.265 585.908 485.952 591.271 497.212C603.469 486.63 613.058 480.247 628.831 475.312C633.187 473.949 639.124 472.693 643.042 471.427C647.546 471.251 653.665 469.762 658.44 469.378C697.297 466.25 743.047 471.288 769.788 502.651C778.858 463.411 776.755 404.813 760.232 367.98C758.27 362.503 753.756 353.804 750.994 348.534C732.338 312.941 707.992 279.717 677.843 253.002C667.147 243.524 657.617 238.192 647.803 230.198C666.257 234.695 705.194 273.891 717.135 288.992C724.752 298.627 734.005 311.856 740.612 322.444C764.361 360.501 773.553 393.69 778.258 437.98C779.547 461.253 777.487 474.65 774.282 496.885C766.22 552.819 742.303 596.945 704.737 638.517C697.993 645.981 688.088 656.311 679.657 661.787C644.203 684.815 589.423 694.598 548.249 697.145C483.367 701.157 416.815 691.095 357.959 663.092C345.718 657.268 337.288 653.097 325.902 645.791C346.339 675.639 394.982 688.635 428.952 694.754C482.637 704.423 539.335 706.849 593.251 697.327C627.043 691.359 663.592 684.349 693.257 665.966C696.473 663.973 702.609 658.794 703.522 655.139C702.639 651.291 698.757 652.446 695.732 652.137C696.59 651.142 696.215 651.428 697.422 650.83C698.749 650.624 705.857 649.231 706.548 648.649C738.851 621.488 769.729 572.583 781.768 534.034C782.321 530.999 783.789 526.98 784.695 523.95C794.933 489.686 796.96 454.664 793.144 419.283C782.356 351.603 756.611 301.407 707.098 253.9C662.027 210.655 601.934 184.624 539.643 181.076C532.553 180.672 525.353 180.992 518.253 181.131ZM496.069 418.197C482.055 419.381 470.462 424.143 461.012 434.989C451.924 445.419 450.084 458.197 449.408 471.649C517.145 463.688 547.137 487.916 585.514 539.042L586.2 538.338C592.697 531.548 598.992 521.372 604.834 514.171C617.395 498.688 638.143 482.083 659.092 482.385C730.321 483.414 719.837 561.229 681.2 597.488C650.827 625.992 621.152 643.041 584.71 659.666L584.79 660.369C595.904 665.111 623.55 675.872 635.586 675.174C644.887 674.635 673.055 660.249 680.451 654.411C723.793 620.202 759.859 562.892 768.968 507.979C759.723 492.894 735.075 480.486 718.18 476.627C681.601 468.274 638.941 470.429 606.256 490.176C600.455 493.681 594.113 499.416 589.504 502.105C587.018 498.05 584.905 492.463 583.078 487.979C569.276 454.114 541.142 422.569 502.948 418.428C500.897 418.206 498.107 418.067 496.069 418.197ZM469.197 473.712C463.427 474.116 454.923 474.504 449.404 475.637C449.667 489.445 452.639 511.02 456.715 524.202C466.906 557.158 490.84 590.873 515.165 614.972C529.685 629.357 559.573 649.51 578.182 657.697C614.476 642.358 655.84 618.543 682.67 589.504C699.126 570.251 709.288 550.388 707.635 524.394C706.005 498.773 682.428 484.154 658.316 486.374C629.633 489.016 611.395 512.461 595.667 534.042C592.977 537.734 590.286 542.985 587.247 546.175C585.447 546.04 583.994 544.314 582.893 542.952C574.125 532.107 565.794 520.618 556.303 510.389C534.625 487.023 501.209 472.278 469.197 473.712ZM709.276 656.802C676.904 695.882 573.718 706.775 525.2 708.371C479.323 709.88 360.401 697.707 329.911 658.566C322.134 660.999 320.296 661.522 318.157 669.571C320.354 676.774 321.914 679.158 327.265 684.559C371.6 725.018 492.407 737.688 551.2 734.232C596.324 731.58 672.946 724.482 707.993 689.786C712.783 685.044 717.419 675.787 716.955 669.012C716.671 664.883 715.806 661.531 712.546 658.706C711.359 657.677 710.809 657.214 709.276 656.802ZM318.239 683.2C316.408 693.154 326.134 698.86 333.774 703.533C364.71 721.795 405.45 732.35 440.943 737.401C517.74 748.329 604.346 747.365 677.87 720.553C692.023 715.392 706.631 707.702 715.373 695.255C715.647 693.734 715.862 693.406 715.352 691.957L714.539 691.644C710.321 693.923 706.65 698.348 702.708 701.063C670.52 723.332 630.93 730.486 592.855 735.268C544.631 741.326 495.795 740.952 447.786 733.144C404.677 726.133 350.18 715.085 318.239 683.2ZM316.536 695.283C313.186 709.679 311.01 716.61 300.172 727.641C297.803 730.052 292.096 735.566 290.136 738.04C309.968 781.564 371.397 797.117 414.379 804.944C506.968 821.804 607.806 819.021 695.771 783.086C710.351 777.13 741.858 759.155 738.374 740.628C734.028 733.43 730.624 727.935 726.933 720.305C723.75 713.727 721.093 706.247 717.879 699.937C706.919 712.699 698.939 716.3 683.8 722.763C647.864 738.103 609.155 743.59 570.485 746.665C503.221 751.767 432.839 746.493 368.862 723.969C355.111 719.128 336.397 710.895 324.596 702.35C324.096 714.507 320.109 735.432 313.272 745.309C311.804 746.028 312.559 745.911 310.923 745.642C310.609 745.317 309.713 744.638 309.916 744.187C316.676 729.199 320.834 716.703 320.525 699.899C319.569 698.745 317.554 696.161 316.536 695.283ZM287.244 741.857C281.426 749.539 276.738 757.566 278.037 767.67C279.933 782.426 294.237 796.722 305.558 805.14C372.833 855.164 516.545 863.436 597.272 851.332C618.08 848.212 638.715 844.135 658.895 838.119C687.695 829.532 731.842 810.824 750.091 786.073C750.34 785.735 750.581 785.392 750.822 785.05C760.431 768.613 757.072 757.058 743.646 744.933C740.874 758.429 733.2 767.223 721.617 774.467C695.617 790.727 664.736 800.987 634.843 807.333C558.578 823.525 478.564 825.032 402.322 807.453C364.933 798.831 317.227 784.074 293.241 751.773C291.563 749.402 288.662 743.399 287.244 741.857ZM278.435 784.905C290.088 833.17 351.511 854.051 394.207 864.883C477.501 886.014 566.273 883.816 649.603 864.068C683.996 855.917 732.331 836.979 749.069 804.098C751.636 798.822 753.351 794.606 755.494 789.162C704.099 843.885 608.505 859.19 536.821 861.428C467.123 863.605 345.061 850.634 291.758 800.64C289.386 798.415 286.993 796.151 284.995 793.576C282.9 790.877 280.948 787.147 278.435 784.905Z" fill="#615F64"/>
<path d="M243.414 419.141C243.8 405.65 248.742 388.04 252.63 375.171C265.328 332.169 288.592 293.522 320.645 262.153C371.015 212.858 447.23 179.683 518.251 181.132C485.011 200.892 476.517 221.198 458.5 252.776C453.956 260.741 446.562 271.242 440.074 277.449C420.648 296.033 393.595 298.604 370.769 310.288C361.093 315.24 351.227 323.651 342.621 330.334C339.712 332.593 336.616 336.707 333.583 338.361C337.028 329.572 342.671 321.125 348.349 313.608C349.384 312.237 354.922 305.96 355.007 305.092C350 306.497 330.374 337.358 327.036 343.18C319.685 344.738 289.192 371.05 281.38 377.045C279.117 378.782 272.841 384.346 270.486 385.156C278.931 357.138 291.973 333.673 309.581 310.229C311.421 307.779 319.863 298.982 319.192 296.891C312.561 298.564 291.19 328.558 286.895 335.775C275.561 354.821 269.698 371.429 263.449 392.343C258.588 396.637 253.055 405.471 249.369 410.969C247.418 413.879 246.028 416.778 243.414 419.141ZM429.276 230.42C427.101 231.315 425.59 233.329 425.339 235.668C425.087 238.006 426.136 240.295 428.071 241.632C430.007 242.969 432.518 243.14 434.617 242.077C437.691 240.521 438.987 236.814 437.551 233.681C436.116 230.548 432.463 229.108 429.276 230.42ZM397.048 258.451C389.006 262.447 390.211 270.529 398.683 271.856C407.147 268.08 405.897 259.082 397.048 258.451Z" fill="#FCE1AE"/>
<path d="M518.252 181.131C525.352 180.992 532.552 180.672 539.642 181.076C601.933 184.624 662.026 210.655 707.097 253.9C756.61 301.407 782.355 351.603 793.143 419.283L792.148 420.901L791.405 420.819C787.729 426.104 783.657 432.556 778.647 436.731L778.257 437.98C773.552 393.69 764.36 360.501 740.611 322.444C734.004 311.856 724.751 298.627 717.134 288.992C705.193 273.891 666.256 234.695 647.802 230.198C657.616 238.192 667.146 243.524 677.842 253.002C707.991 279.717 732.337 312.941 750.993 348.534C753.755 353.804 758.269 362.503 760.231 367.98C758.468 367.118 758.296 365.924 757.552 363.909C754.774 362.262 753.793 365.192 751.189 366.246C749.699 366.849 746.918 366.984 745.89 367.817C743.35 369.874 738.142 365.66 736.47 366.34C737.439 369.742 743.588 379.058 743.184 382.105C736.797 371.11 732.636 360.267 725.11 349.307C711.439 329.399 697.318 309.601 677.665 295.009C674.635 292.759 671.196 289.673 667.529 288.895L666.776 289.418C667.165 290.543 671.25 293.101 672.47 294.064C685.883 304.824 697.614 318.248 707.628 332.219C715.061 342.589 727.004 357.022 731.712 368.917L730.762 368.637C729.616 367.044 729.198 366.353 728.311 364.601C722.757 364.863 710.689 380.085 707.351 385.106L707.415 385.904C708.38 386.635 709.226 387.099 709.849 388.064L709.786 388.194C702.815 387.036 701.814 393.236 701.78 398.506L701.497 398.797C701.386 398.526 696.424 390.427 696.265 390.257C695.078 390.823 695.113 390.987 694.289 392.059C692.154 390.618 689.572 387.925 687.712 387.187C676.959 389.649 663.519 386.973 652.518 387.791C647.21 388.186 633.136 395.184 628.773 391.705C614.649 380.446 612.675 385.723 598.697 387.776C599.931 389.221 599.744 388.496 600.051 390.074C595.829 390.45 595.089 390.298 591.779 392.948L590.467 391.849C585.123 394.504 586.078 396.531 584.262 401.944C585.984 402.213 585.237 402.386 586.616 401.635L586.996 400L587.767 399.578C588.907 401.629 587.713 403.36 588.446 404.675L588.936 404.285L589.478 404.351C589.732 405.769 589.684 405.769 589.513 407.219C591.377 407.488 591.063 405.228 592.898 406.118C593.314 407.041 594.846 410.619 595.318 411.217L595.706 410.962C595.315 403.529 594.446 399.419 599.654 393.125C606.805 384.483 617.855 395.755 615.64 403.547C614.384 398.62 613.298 394.574 608.717 391.616C604.512 388.902 600.512 392.243 598.742 395.992C592.262 409.713 600.386 427.504 605.934 439.934C615.591 436.379 620.65 432.379 628.469 425.675C626.337 431.111 613.308 437.982 608.228 440.691C606.52 441.602 607.196 439.371 605.636 440.911C609.185 446.44 623.513 459.044 622.817 466.249C620.787 469.608 617.663 471.301 615.016 473.892C613.879 475.005 615.784 476.282 611.695 477.747L611.765 478.471C614.694 477.833 612.656 476.085 614.54 477.208L614.39 478.869C612.779 479.769 611.905 479.817 610.114 480.154L609.644 479.844L610.863 478.54C609.09 477.715 608.251 478.37 606.704 477.266L606.798 476.237C609.116 475.12 610.018 475.553 611.225 474.027L610.963 473.595C608.958 474.357 608.966 474.337 607.252 475.61C605.026 475.792 603.434 476.027 601.205 475.724C598.642 471.956 601.655 471.115 596.281 470.601C594.66 469.4 593.821 467.976 592.631 466.392C584.542 455.627 588.253 456.732 576.015 451.167C574.957 451.958 574.86 452.063 573.981 453.055C572.4 452.861 570.301 451.573 568.815 450.796L568.364 451.576C572.196 458.506 577.679 465.018 581.541 472.803C583.124 475.993 590.546 493.595 591.592 494.949C595.788 492.378 599.67 488.324 603.451 485.968C612.436 480.37 632.88 470.664 643.041 471.427C639.123 472.693 633.186 473.949 628.83 475.312C613.057 480.247 603.468 486.63 591.27 497.212C585.907 485.952 583.42 477.265 576.453 465.828C562.105 441.924 541.788 423.992 514.44 416.775C487.016 409.538 455.632 423.188 448.912 452.259C448.038 456.039 447.644 462.619 446.572 465.812L446.033 465.198C445.096 458.977 450.472 443.434 453.835 437.534C455.675 434.305 463.407 426.776 463.719 425.585C459.007 424.481 458.491 420.431 452.519 420.629C448.404 420.765 438.471 421.694 435.464 418.618C433.925 417.044 432.23 414.202 430.426 413.031C427.552 411.165 369.847 406.362 365.117 407.31C357.165 408.905 335.916 415.054 329.791 415.056C327.615 413.707 327.007 410.25 326.329 407.778C325.077 408.633 325.126 408.622 323.683 409.071C322.492 407.656 321.301 405.832 320.305 404.372C319.768 403.586 318.005 405.216 316.446 404.224C316.3 399.891 316.742 394.636 317.247 390.324L316.759 389.828C314.69 392.041 316.19 399.114 315.332 401.157C311.509 410.25 309.989 418.375 310.061 428.256C310.081 431.124 310.85 434.676 309.084 437.155C307.906 406.858 319.561 365 333.584 338.36C336.617 336.706 339.713 332.592 342.622 330.333C351.228 323.65 361.094 315.239 370.77 310.287C393.596 298.603 420.649 296.032 440.075 277.448C446.563 271.241 453.957 260.74 458.501 252.775C476.518 221.197 485.012 200.891 518.252 181.131ZM556.221 208.357C550.723 211.364 549.386 216.897 556.261 218.493C561.762 216.076 562.237 210.236 556.221 208.357ZM503.418 218.876C502.138 219.248 501.164 220.292 500.883 221.596C500.602 222.9 501.059 224.252 502.073 225.119C503.087 225.985 504.494 226.226 505.738 225.745C507.551 225.044 508.49 223.04 507.868 221.199C507.246 219.358 505.284 218.334 503.418 218.876ZM606.891 229.406C605.833 229.705 605.021 230.555 604.772 231.626C604.523 232.696 604.875 233.818 605.692 234.553C606.509 235.288 607.662 235.521 608.7 235.16C610.242 234.625 611.079 232.961 610.589 231.405C610.1 229.848 608.461 228.963 606.891 229.406ZM482.445 262.455C481.104 262.83 480.072 263.901 479.748 265.254C479.424 266.607 479.858 268.03 480.882 268.972C481.907 269.913 483.362 270.226 484.683 269.788C486.66 269.133 487.753 267.021 487.145 265.029C486.537 263.037 484.45 261.894 482.445 262.455ZM516.047 268.383C512.683 269.563 510.904 273.238 512.063 276.608C513.223 279.979 516.886 281.781 520.263 280.642C523.67 279.493 525.491 275.791 524.322 272.392C523.153 268.992 519.439 267.193 516.047 268.383ZM591.226 278.511C589.907 278.727 588.814 279.649 588.378 280.912C587.942 282.176 588.234 283.576 589.138 284.56C590.043 285.543 591.414 285.951 592.709 285.623C594.597 285.143 595.771 283.262 595.374 281.356C594.976 279.45 593.147 278.195 591.226 278.511ZM643.51 280.349C640.059 284.848 641.131 288.393 647.424 287.945C649.627 283.584 649.517 280.142 643.51 280.349ZM425.856 301.901C421.03 307.657 422.617 312.255 430.404 312.35C434.821 307.607 432.928 301.711 425.856 301.901ZM552.193 303.749C550.828 303.895 549.65 304.771 549.118 306.037C548.586 307.303 548.785 308.757 549.636 309.834C550.488 310.911 551.858 311.44 553.212 311.214C555.222 310.879 556.602 309.006 556.326 306.987C556.051 304.967 554.219 303.533 552.193 303.749ZM392.845 317.339C389.868 318.145 388.041 321.138 388.684 324.154C389.327 327.171 392.216 329.158 395.263 328.679C397.387 328.346 399.153 326.866 399.852 324.834C400.552 322.801 400.072 320.548 398.604 318.978C397.136 317.408 394.92 316.777 392.845 317.339ZM490.985 330.58C483.018 331.18 477.054 338.136 477.677 346.101C478.3 354.066 485.274 360.011 493.237 359.364C501.167 358.721 507.082 351.782 506.462 343.85C505.841 335.917 498.919 329.982 490.985 330.58ZM687.582 329.95C680.188 334.327 680.469 342.044 689.483 343.134C698.176 340.155 695.435 330.01 687.582 329.95ZM617.31 332.431C608.299 336.171 609.113 344.789 617.841 345.995C627.573 343.136 624.277 333.034 617.31 332.431ZM459.05 341.976C454.657 347.082 456.946 350.234 463.3 350.171C465.306 345.668 465.273 341.706 459.05 341.976ZM534.638 350.892C532.846 352.065 532.304 354.445 533.411 356.278C534.518 358.11 536.878 358.738 538.749 357.698C540.021 356.991 540.806 355.645 540.795 354.19C540.783 352.734 539.978 351.401 538.695 350.714C537.412 350.026 535.856 350.095 534.638 350.892ZM394.987 378.842C393.378 379.183 392.088 380.382 391.631 381.962C391.174 383.542 391.624 385.245 392.803 386.392C393.981 387.539 395.696 387.944 397.263 387.444C399.524 386.723 400.823 384.356 400.216 382.061C399.609 379.767 397.309 378.351 394.987 378.842ZM539.627 390.35C537.727 391.208 536.889 393.449 537.759 395.343C538.63 397.238 540.876 398.061 542.765 397.178C544.636 396.303 545.45 394.082 544.588 392.205C543.725 390.328 541.509 389.5 539.627 390.35ZM329.727 397.712C327.807 397.906 326.148 399.139 325.41 400.923C324.672 402.706 324.973 404.751 326.194 406.245C327.416 407.74 329.359 408.442 331.254 408.074C334.004 407.539 335.848 404.936 335.439 402.164C335.031 399.392 332.515 397.431 329.727 397.712ZM433.365 406.259C431.218 406.66 429.795 408.717 430.177 410.869C430.559 413.02 432.603 414.461 434.758 414.099C436.94 413.732 438.405 411.656 438.018 409.476C437.631 407.297 435.541 405.852 433.365 406.259ZM571.436 413.794C569.998 414.185 568.883 415.322 568.519 416.768C568.155 418.214 568.599 419.743 569.68 420.769C570.762 421.795 572.312 422.158 573.737 421.718C575.889 421.055 577.111 418.788 576.483 416.625C575.855 414.462 573.609 413.202 571.436 413.794Z" fill="url(#paint0_linear_2293_78897)"/>
<path d="M556.26 218.491C549.385 216.895 550.722 211.362 556.22 208.355C562.236 210.234 561.761 216.074 556.26 218.491Z" fill="#E6DFD5"/>
<path d="M505.737 225.744C504.493 226.225 503.086 225.984 502.072 225.118C501.058 224.251 500.601 222.899 500.882 221.595C501.163 220.291 502.137 219.247 503.417 218.875C505.283 218.333 507.245 219.357 507.867 221.198C508.489 223.039 507.55 225.043 505.737 225.744Z" fill="#E6DFD5"/>
<path d="M608.7 235.161C607.662 235.522 606.509 235.289 605.692 234.554C604.875 233.819 604.523 232.697 604.772 231.627C605.021 230.556 605.833 229.706 606.891 229.407C608.461 228.964 610.1 229.849 610.589 231.406C611.079 232.962 610.242 234.626 608.7 235.161Z" fill="#E6DFD5"/>
<path d="M434.618 242.075C432.519 243.138 430.008 242.967 428.072 241.63C426.137 240.293 425.088 238.004 425.34 235.666C425.591 233.327 427.102 231.313 429.277 230.418C432.464 229.106 436.117 230.546 437.552 233.679C438.988 236.812 437.692 240.519 434.618 242.075Z" fill="#E6DFD5"/>
<path d="M398.685 271.854C390.213 270.527 389.008 262.445 397.05 258.449C405.899 259.08 407.149 268.078 398.685 271.854Z" fill="#E6DFD5"/>
<path d="M484.683 269.788C483.362 270.226 481.907 269.913 480.882 268.972C479.858 268.03 479.424 266.607 479.748 265.254C480.072 263.901 481.104 262.83 482.445 262.455C484.45 261.894 486.537 263.037 487.145 265.029C487.753 267.021 486.66 269.133 484.683 269.788Z" fill="#E6DFD5"/>
<path d="M520.263 280.642C516.886 281.781 513.223 279.979 512.063 276.608C510.904 273.238 512.683 269.563 516.047 268.383C519.439 267.193 523.153 268.992 524.322 272.392C525.491 275.791 523.67 279.493 520.263 280.642Z" fill="#E6DFD5"/>
<path d="M592.71 285.622C591.415 285.95 590.044 285.542 589.139 284.559C588.235 283.575 587.943 282.175 588.379 280.911C588.815 279.648 589.908 278.726 591.227 278.51C593.148 278.194 594.977 279.449 595.375 281.355C595.772 283.261 594.598 285.142 592.71 285.622Z" fill="#E6DFD5"/>
<path d="M647.424 287.945C641.131 288.393 640.059 284.848 643.51 280.349C649.517 280.142 649.627 283.584 647.424 287.945Z" fill="#E6DFD5"/>
<path d="M731.711 368.917C727.003 357.022 715.06 342.589 707.627 332.219C697.613 318.248 685.882 304.824 672.469 294.064C671.249 293.101 667.164 290.543 666.775 289.418L667.528 288.895C671.195 289.673 674.634 292.759 677.664 295.009C697.317 309.601 711.438 329.399 725.109 349.307C732.635 360.267 736.796 371.11 743.183 382.105C743.318 383.357 746.189 389.929 746.808 391.525C752.237 405.521 752.878 418.907 752.344 433.643C750.448 428.422 750.298 421.52 749.099 415.897C745.821 400.52 739.805 382.519 731.711 368.917Z" fill="#615F64"/>
<path d="M263.45 392.343C269.699 371.429 275.562 354.821 286.896 335.775C291.191 328.558 312.562 298.564 319.193 296.891C319.864 298.982 311.422 307.779 309.582 310.229C291.974 333.673 278.932 357.138 270.487 385.156C263.219 409.545 261.003 429.251 259.334 454.222C259.133 456.015 259.144 456.929 258.388 458.592C256.887 459.523 256.62 459.472 254.921 459.843C254.454 435.778 258.583 415.589 263.45 392.343Z" fill="#615F64"/>
<path d="M430.404 312.352C422.617 312.257 421.03 307.659 425.856 301.903C432.928 301.713 434.821 307.609 430.404 312.352Z" fill="#E6DFD5"/>
<path d="M553.213 311.213C551.859 311.439 550.489 310.91 549.637 309.833C548.786 308.756 548.587 307.302 549.119 306.036C549.651 304.77 550.829 303.894 552.194 303.748C554.22 303.532 556.052 304.966 556.327 306.986C556.603 309.005 555.223 310.878 553.213 311.213Z" fill="#E6DFD5"/>
<path d="M333.585 338.359C319.562 364.999 307.907 406.857 309.085 437.154C308.527 455.198 311.519 486.06 314.296 504.473L313.276 505.146C309.141 483.484 304.425 461.853 304.505 439.56C304.164 404.642 312.171 374.492 327.038 343.178C330.376 337.356 350.002 306.495 355.009 305.09C354.924 305.958 349.386 312.235 348.351 313.606C342.673 321.123 337.03 329.57 333.585 338.359Z" fill="url(#paint1_linear_2293_78897)"/>
<path d="M395.262 328.679C392.215 329.158 389.326 327.171 388.683 324.154C388.04 321.138 389.867 318.145 392.844 317.339C394.919 316.777 397.135 317.408 398.603 318.978C400.071 320.548 400.551 322.801 399.851 324.834C399.152 326.866 397.386 328.346 395.262 328.679Z" fill="#E6DFD5"/>
<path d="M493.238 359.365C485.275 360.012 478.301 354.067 477.678 346.102C477.055 338.137 483.018 331.181 490.985 330.581C498.919 329.983 505.842 335.918 506.463 343.851C507.083 351.783 501.168 358.722 493.238 359.365Z" fill="#E6DFD5"/>
<path d="M689.482 343.133C680.468 342.043 680.187 334.326 687.581 329.949C695.434 330.009 698.175 340.154 689.482 343.133Z" fill="#E6DFD5"/>
<path d="M617.841 345.994C609.113 344.788 608.299 336.17 617.31 332.43C624.277 333.033 627.573 343.135 617.841 345.994Z" fill="#E6DFD5"/>
<path d="M463.301 350.173C456.947 350.236 454.658 347.084 459.051 341.978C465.274 341.708 465.307 345.67 463.301 350.173Z" fill="#E6DFD5"/>
<path d="M270.487 385.156C272.842 384.346 279.118 378.782 281.381 377.045C289.193 371.05 319.686 344.738 327.037 343.18C312.17 374.494 304.163 404.644 304.504 439.562C298.716 440.685 289.819 442.727 284.625 445.493C275.825 450.18 270.458 458.153 259.326 458.674L259.334 454.222C261.003 429.251 263.219 409.545 270.487 385.156Z" fill="#B9FBC0"/>
<path d="M538.749 357.698C536.878 358.738 534.518 358.11 533.411 356.278C532.304 354.445 532.846 352.065 534.638 350.892C535.856 350.095 537.412 350.026 538.695 350.714C539.978 351.401 540.783 352.734 540.795 354.19C540.806 355.645 540.021 356.991 538.749 357.698Z" fill="#E6DFD5"/>
<path d="M743.183 382.106C743.587 379.059 737.438 369.743 736.469 366.341C738.141 365.661 743.349 369.875 745.889 367.818C746.917 366.985 749.698 366.85 751.188 366.247C753.792 365.193 754.773 362.263 757.551 363.91C758.295 365.925 758.467 367.119 760.23 367.981C776.753 404.814 778.856 463.412 769.786 502.652C743.045 471.289 697.295 466.251 658.438 469.379C653.663 469.763 647.544 471.252 643.04 471.428C632.879 470.665 612.435 480.371 603.45 485.969C599.669 488.325 595.787 492.379 591.591 494.95C590.545 493.596 583.123 475.994 581.54 472.804C577.678 465.019 572.195 458.507 568.363 451.577L568.814 450.797C570.3 451.574 572.399 452.862 573.98 453.056C574.859 452.064 574.956 451.959 576.014 451.168C588.252 456.733 584.541 455.628 592.63 466.393C593.82 467.977 594.659 469.401 596.28 470.602C601.654 471.116 598.641 471.957 601.204 475.725C603.433 476.028 605.025 475.793 607.251 475.611C608.965 474.338 608.957 474.358 610.962 473.596L611.224 474.028C610.017 475.554 609.115 475.121 606.797 476.238L606.703 477.267C608.25 478.371 609.089 477.716 610.862 478.541L609.643 479.845L610.113 480.155C611.904 479.818 612.778 479.77 614.389 478.87L614.539 477.209C612.655 476.086 614.693 477.834 611.764 478.472L611.694 477.748C615.783 476.283 613.878 475.006 615.015 473.893C617.662 471.302 620.786 469.609 622.816 466.25C623.512 459.045 609.184 446.441 605.635 440.912C607.195 439.372 606.519 441.603 608.227 440.692C613.307 437.983 626.336 431.112 628.468 425.676C636.019 418.27 639.872 414.366 639.465 403.306C637.794 400.134 635.666 397.137 631.854 396.318C623.971 394.626 620.952 402.915 616.486 405.944L615.76 405.315L615.639 403.548C617.854 395.756 606.804 384.484 599.653 393.126C594.445 399.42 595.314 403.53 595.705 410.963L595.317 411.218C594.845 410.62 593.313 407.042 592.897 406.119C591.062 405.229 591.376 407.489 589.512 407.22C589.683 405.77 589.731 405.77 589.477 404.352L588.935 404.286L588.445 404.676C587.712 403.361 588.906 401.63 587.766 399.579L586.995 400.001L586.615 401.636C585.236 402.387 585.983 402.214 584.261 401.945C586.077 396.532 585.122 394.505 590.466 391.85L591.778 392.949C595.088 390.299 595.828 390.451 600.05 390.075C599.743 388.497 599.93 389.222 598.696 387.777C612.674 385.724 614.648 380.447 628.772 391.706C633.135 395.185 647.209 388.187 652.517 387.792C663.518 386.974 676.958 389.65 687.711 387.188C689.571 387.926 692.153 390.619 694.288 392.06C695.112 390.988 695.077 390.824 696.264 390.258C696.423 390.428 701.385 398.527 701.496 398.798L701.779 398.507C703.967 401.33 705.538 403.885 709.487 403.02C712.119 400.214 709.856 397.929 708.049 395.409C709.437 393.956 710.015 393.429 711.067 391.753C711.152 389.611 711.175 390.334 709.785 388.195L709.848 388.065C709.225 387.1 708.379 386.636 707.414 385.905L707.35 385.107C710.688 380.086 722.756 364.864 728.31 364.602C729.197 366.354 729.615 367.045 730.761 368.638L731.711 368.918C739.805 382.52 745.821 400.521 749.099 415.898C750.298 421.521 750.448 428.423 752.344 433.644C752.878 418.908 752.237 405.522 746.808 391.526C746.189 389.93 743.318 383.358 743.183 382.106ZM655.082 436.229C653.152 437.146 652.313 439.44 653.196 441.386C654.078 443.332 656.357 444.211 658.318 443.363C659.618 442.801 660.514 441.581 660.66 440.173C660.807 438.764 660.181 437.386 659.025 436.568C657.869 435.751 656.361 435.621 655.082 436.229ZM700.126 440.332C694.294 444.394 694.772 450.677 702.031 451.162C708.467 448.267 706.158 440.793 700.126 440.332Z" fill="#98F5E1"/>
<path d="M397.263 387.445C395.696 387.945 393.981 387.54 392.803 386.393C391.624 385.246 391.174 383.543 391.631 381.963C392.088 380.383 393.378 379.184 394.987 378.843C397.309 378.352 399.609 379.768 400.216 382.062C400.823 384.357 399.524 386.724 397.263 387.445Z" fill="#E6DFD5"/>
<path d="M701.779 398.508C701.813 393.238 702.814 387.038 709.785 388.196C711.175 390.335 711.152 389.612 711.067 391.754C710.015 393.43 709.437 393.957 708.049 395.41C709.856 397.93 712.119 400.215 709.487 403.021C705.538 403.886 703.967 401.331 701.779 398.508Z" fill="#E6DFD5"/>
<path d="M309.084 437.155C310.85 434.676 310.081 431.124 310.061 428.256C309.989 418.375 311.509 410.25 315.332 401.157C316.19 399.114 314.69 392.041 316.759 389.828L317.247 390.324C316.742 394.636 316.3 399.891 316.446 404.224C318.005 405.216 319.768 403.586 320.305 404.372C321.301 405.832 322.492 407.656 323.683 409.071C325.126 408.622 325.077 408.633 326.329 407.778C327.007 410.25 327.615 413.707 329.791 415.056C335.916 415.054 357.165 408.905 365.117 407.31C369.847 406.362 427.552 411.165 430.426 413.031C432.23 414.202 433.925 417.044 435.464 418.618C438.471 421.694 448.404 420.765 452.519 420.629C458.491 420.431 459.007 424.481 463.719 425.585C463.407 426.776 455.675 434.305 453.835 437.534C450.472 443.434 445.096 458.977 446.033 465.198L446.572 465.812C446.492 467.814 446.467 470.332 446.277 472.281C427.862 477.195 411.76 482.586 394.966 491.809C365.232 508.139 318.031 551.298 319.183 587.899L318.524 588.07C309.463 575.825 298.754 554.053 292.798 539.863C288.052 528.556 284.662 517.761 278.942 506.518L279.38 508.875C287.015 549.327 312.287 593.515 339.18 624.591C347.607 634.239 357.7 642.068 367.216 650.507C378.574 660.581 391.097 666.879 403.292 675.194C390.71 672.822 368.673 662.953 358.212 655.643C343.867 645.621 330.58 630.486 319.536 616.975C289.88 580.696 270.259 544.457 261.951 498.046C260.21 483.989 259.335 472.677 259.326 458.673C270.458 458.152 275.825 450.179 284.625 445.492C289.819 442.726 298.716 440.684 304.504 439.561C304.424 461.854 309.14 483.485 313.275 505.147C313.655 506.847 313.792 508.209 314.777 509.629C315.234 508.194 314.607 506.063 314.295 504.474C311.518 486.061 308.526 455.199 309.084 437.155ZM348.663 451.208C346.798 451.77 345.385 453.301 344.975 455.206C344.565 457.111 345.223 459.088 346.692 460.367C348.162 461.647 350.211 462.026 352.041 461.357C354.76 460.364 356.196 457.388 355.282 454.642C354.368 451.895 351.435 450.374 348.663 451.208Z" fill="#C6E2F0"/>
<path d="M542.766 397.178C540.877 398.061 538.631 397.238 537.76 395.343C536.89 393.449 537.728 391.208 539.628 390.35C541.51 389.5 543.726 390.328 544.589 392.205C545.451 394.082 544.637 396.303 542.766 397.178Z" fill="#615F64"/>
<path d="M605.934 439.936C600.386 427.506 592.262 409.715 598.742 395.994C600.512 392.245 604.512 388.904 608.717 391.618C613.298 394.576 614.384 398.622 615.64 403.549L615.761 405.316L616.487 405.945C620.953 402.916 623.972 394.627 631.855 396.319C635.667 397.138 637.795 400.135 639.466 403.307C639.873 414.367 636.02 418.271 628.469 425.677C620.65 432.381 615.591 436.381 605.934 439.936ZM604.127 395.884C596.84 406.283 602.9 424.108 607.888 434.455C617.341 430.046 622.26 426.07 629.347 418.365C632.223 414.564 639.026 404.985 632.435 401.301C624.685 396.969 620.318 412.378 615.063 413.84C608.363 410.972 615.503 395.766 604.127 395.884Z" fill="#615F64"/>
<path d="M243.415 419.142C246.029 416.779 247.419 413.88 249.37 410.97C253.056 405.472 258.589 396.638 263.45 392.344C258.583 415.59 254.454 435.779 254.921 459.844L254.978 462.441C250.05 466.615 245.1 476.529 241.773 478.092C239.282 464.472 241.587 432.851 243.415 419.142Z" fill="#B9FBC0"/>
<path d="M607.889 434.455C602.901 424.108 596.841 406.282 604.128 395.883C615.504 395.765 608.364 410.972 615.064 413.84C620.319 412.378 624.686 396.969 632.436 401.301C639.027 404.985 632.224 414.564 629.348 418.365C622.261 426.07 617.342 430.046 607.889 434.455Z" fill="#B9FBC0"/>
<path d="M331.254 408.072C329.359 408.44 327.416 407.738 326.194 406.243C324.973 404.749 324.672 402.704 325.41 400.921C326.148 399.137 327.807 397.904 329.727 397.71C332.515 397.429 335.031 399.39 335.439 402.162C335.848 404.934 334.004 407.537 331.254 408.072Z" fill="#E6DFD5"/>
<path d="M434.758 414.1C432.603 414.462 430.559 413.021 430.177 410.87C429.795 408.718 431.218 406.661 433.365 406.26C435.541 405.853 437.631 407.298 438.018 409.477C438.405 411.657 436.94 413.733 434.758 414.1Z" fill="#E6DFD5"/>
<path d="M573.738 421.718C572.313 422.158 570.763 421.796 569.681 420.77C568.6 419.744 568.156 418.214 568.52 416.768C568.884 415.322 569.999 414.185 571.437 413.794C573.61 413.202 575.856 414.462 576.484 416.625C577.112 418.788 575.89 421.055 573.738 421.718Z" fill="#615F64"/>
<path d="M449.406 471.651C450.082 458.199 451.922 445.421 461.01 434.991C470.46 424.145 482.053 419.383 496.067 418.199C498.105 418.069 500.895 418.208 502.946 418.43C541.14 422.571 569.274 454.116 583.076 487.981C584.903 492.465 587.016 498.052 589.502 502.107C594.111 499.418 600.453 493.683 606.254 490.178C638.939 470.431 681.599 468.276 718.178 476.629C735.073 480.488 759.721 492.896 768.966 507.981C759.857 562.894 723.791 620.204 680.449 654.413C673.053 660.251 644.885 674.637 635.584 675.176C623.548 675.874 595.902 665.113 584.788 660.371L584.708 659.668C621.15 643.043 650.825 625.994 681.198 597.49C719.835 561.231 730.319 483.416 659.09 482.387C638.141 482.085 617.393 498.69 604.832 514.173C598.99 521.374 592.695 531.55 586.198 538.34L585.512 539.044C547.135 487.918 517.143 463.69 449.406 471.651ZM500.403 443.688C498.865 444.437 498.158 446.239 498.776 447.834C499.393 449.428 501.13 450.284 502.771 449.802C503.961 449.452 504.854 448.462 505.078 447.241C505.303 446.021 504.822 444.778 503.833 444.027C502.845 443.276 501.519 443.145 500.403 443.688ZM530.379 461.216C529.771 463.325 529.711 463.413 530.102 465.519C531.317 466.93 531.286 467.003 533.324 466.896C533.698 465.034 533.987 464.429 533.353 462.628C531.73 461.203 532.651 461.723 530.379 461.216ZM727.384 499.755C725.819 500.578 725.214 502.511 726.03 504.079C726.847 505.648 728.777 506.261 730.349 505.451C731.93 504.637 732.548 502.692 731.727 501.115C730.906 499.537 728.959 498.927 727.384 499.755ZM743.185 521.932C742.39 522.131 741.781 522.771 741.622 523.576C741.463 524.38 741.782 525.203 742.442 525.69C743.101 526.177 743.983 526.24 744.704 525.851C745.645 525.344 746.061 524.217 745.675 523.221C745.288 522.225 744.221 521.672 743.185 521.932ZM730.897 539.91C729.627 540.13 728.779 541.341 729.007 542.609C729.234 543.878 730.451 544.719 731.718 544.483C732.974 544.25 733.806 543.046 733.58 541.789C733.355 540.531 732.156 539.692 730.897 539.91ZM707.906 595.663C707.36 597.446 706.747 598.581 707.353 600.284C708.526 601.405 708.853 601.276 710.473 601.516C711.032 599.877 711.438 599.177 711.159 597.462C710.023 596.018 710.267 596.149 707.906 595.663ZM659.646 629.276C658.814 629.805 658.333 630.743 658.389 631.727C658.445 632.711 659.029 633.588 659.916 634.019C660.803 634.45 661.854 634.367 662.662 633.802C663.874 632.955 664.188 631.295 663.368 630.064C662.548 628.834 660.895 628.484 659.646 629.276Z" fill="#98F5E1"/>
<path d="M778.256 437.978L778.646 436.729C783.656 432.554 787.728 426.102 791.404 420.817L792.147 420.899L793.142 419.281C796.958 454.662 794.931 489.684 784.693 523.948C783.787 526.978 782.319 530.997 781.766 534.032C773.008 536.965 764.208 561.765 759.17 570.444C748.355 589.074 736.829 607.004 723.013 623.594C715.045 633.176 705.555 641.669 697.42 650.828C696.213 651.426 696.588 651.14 695.73 652.135C698.755 652.444 702.637 651.289 703.52 655.137C702.607 658.792 696.471 663.971 693.255 665.964C663.59 684.347 627.041 691.357 593.249 697.325C539.333 706.847 482.635 704.421 428.95 694.752C394.98 688.633 346.337 675.637 325.9 645.789C337.286 653.095 345.716 657.266 357.957 663.09C416.813 691.093 483.365 701.155 548.247 697.143C589.421 694.596 644.201 684.813 679.655 661.785C688.086 656.309 697.991 645.979 704.735 638.515C742.301 596.943 766.218 552.817 774.28 496.883C777.485 474.648 779.545 461.251 778.256 437.978Z" fill="#F6E9EC"/>
<path d="M214.426 449.148C217.057 443.962 228.739 434.844 234.276 433.828C235.394 436.894 233.374 441.661 234.915 445.727C234.866 462.361 234.596 478.339 237.694 494.708C238.153 497.132 238.515 499.741 238.563 502.204C237.122 500.505 234.997 491.68 234.079 488.729C229.608 474.346 223.161 461.405 214.426 449.148Z" fill="#FDE4CF"/>
<path d="M658.319 443.361C656.358 444.209 654.079 443.33 653.197 441.384C652.314 439.438 653.153 437.144 655.083 436.227C656.362 435.619 657.87 435.749 659.026 436.566C660.182 437.384 660.808 438.762 660.661 440.171C660.515 441.579 659.619 442.799 658.319 443.361Z" fill="#615F64"/>
<path d="M702.031 451.162C694.772 450.677 694.294 444.394 700.126 440.332C706.158 440.793 708.467 448.267 702.031 451.162Z" fill="#615F64"/>
<path d="M502.773 449.801C501.132 450.283 499.395 449.427 498.778 447.833C498.16 446.238 498.867 444.436 500.405 443.687C501.521 443.144 502.847 443.275 503.835 444.026C504.824 444.777 505.305 446.02 505.08 447.24C504.856 448.461 503.963 449.451 502.773 449.801Z" fill="#615F64"/>
<path d="M352.041 461.358C350.211 462.027 348.162 461.648 346.692 460.368C345.223 459.089 344.565 457.112 344.975 455.207C345.385 453.302 346.798 451.771 348.663 451.209C351.435 450.375 354.368 451.896 355.282 454.643C356.196 457.389 354.76 460.365 352.041 461.358Z" fill="#E6DFD5"/>
<path d="M254.922 459.844C256.621 459.473 256.888 459.524 258.389 458.593C259.145 456.93 259.134 456.016 259.335 454.223L259.327 458.675C259.336 472.679 260.211 483.991 261.952 498.048L257.771 497.824C256.037 485.522 255.225 474.868 254.979 462.441L254.922 459.844Z" fill="#6E6B9B"/>
<path d="M533.324 466.895C531.286 467.002 531.317 466.929 530.102 465.518C529.711 463.412 529.771 463.324 530.379 461.215C532.651 461.722 531.73 461.202 533.353 462.627C533.987 464.428 533.698 465.033 533.324 466.895Z" fill="#615F64"/>
<path d="M241.773 478.089C245.1 476.526 250.05 466.611 254.978 462.438C255.224 474.865 256.036 485.518 257.77 497.82C264.428 544.792 283.083 577.805 312.128 615.259C317.971 622.794 325.517 629.931 331.679 637.147L331.419 638.079C334.662 642.254 338.454 642.563 338.114 646.42L337.481 646.915C335.646 645.932 329.663 641.906 328.612 642.089L328.321 642.343C318.158 636.952 305.677 623.335 298.161 614.295C266.271 575.938 245.914 527.879 241.773 478.089Z" fill="#CFBAF0"/>
<path d="M449.402 475.638C454.921 474.505 463.425 474.117 469.195 473.713C501.207 472.279 534.623 487.024 556.301 510.39C565.792 520.619 574.123 532.108 582.891 542.953C583.992 544.315 585.445 546.041 587.245 546.176C590.284 542.986 592.975 537.735 595.665 534.043C611.393 512.462 629.631 489.017 658.314 486.375C682.426 484.155 706.003 498.774 707.633 524.395C709.286 550.389 699.124 570.252 682.668 589.505C655.838 618.544 614.474 642.359 578.18 657.698C559.571 649.511 529.683 629.358 515.163 614.973C490.838 590.874 466.904 557.159 456.713 524.203C452.637 511.021 449.665 489.446 449.402 475.638ZM480.437 507.385C479.6 508.21 479.554 509.544 480.33 510.425C481.107 511.307 482.437 511.428 483.36 510.702C484.005 510.194 484.317 509.372 484.17 508.564C484.023 507.757 483.441 507.097 482.659 506.85C481.876 506.603 481.021 506.809 480.437 507.385ZM635.537 515.324C634.044 516.533 633.488 516.771 632.877 518.602C633.326 521.67 635.234 521.64 637.932 521.802C639.709 519.966 639.323 520.818 639.938 518.462C639.072 515.781 638.332 515.646 635.537 515.324ZM516.374 521.819C514.461 522.39 513.339 524.368 513.831 526.303C514.323 528.238 516.254 529.44 518.207 529.028C519.544 528.746 520.619 527.754 521.007 526.444C521.396 525.134 521.035 523.717 520.068 522.751C519.101 521.786 517.683 521.428 516.374 521.819ZM671.302 525.599C669.976 525.893 669.126 527.19 669.384 528.523C669.642 529.857 670.915 530.742 672.255 530.519C673.155 530.37 673.902 529.744 674.207 528.885C674.512 528.026 674.327 527.069 673.723 526.386C673.119 525.703 672.192 525.402 671.302 525.599ZM483.581 534.892C482.725 535.238 482.13 536.029 482.035 536.948C481.941 537.866 482.362 538.762 483.13 539.275C483.897 539.788 484.886 539.835 485.698 539.396C486.862 538.768 487.333 537.34 486.77 536.143C486.207 534.945 484.807 534.397 483.581 534.892ZM630.022 545.976C628.251 546.733 627.406 548.765 628.117 550.555C628.829 552.346 630.838 553.243 632.646 552.578C633.858 552.132 634.732 551.064 634.93 549.788C635.128 548.512 634.619 547.229 633.599 546.437C632.579 545.645 631.21 545.468 630.022 545.976ZM559.797 559.803C558.19 560.478 557.423 562.319 558.077 563.935C558.731 565.551 560.562 566.341 562.186 565.709C563.256 565.292 564.018 564.332 564.183 563.196C564.347 562.06 563.887 560.923 562.979 560.221C562.071 559.518 560.855 559.359 559.797 559.803ZM610.482 576.76C609.519 577.419 609.269 578.732 609.922 579.699C610.576 580.666 611.887 580.923 612.858 580.275C613.836 579.622 614.096 578.298 613.437 577.323C612.779 576.348 611.453 576.096 610.482 576.76ZM572.452 581.731C571.117 582.094 570.327 583.47 570.687 584.806C571.048 586.142 572.421 586.934 573.758 586.578C575.1 586.22 575.895 584.84 575.534 583.5C575.173 582.159 573.792 581.367 572.452 581.731Z" fill="#98F5E1"/>
<path d="M319.182 587.899C320.665 584.909 321.985 579.537 322.891 576.176C327.149 560.37 334.847 549.764 344.812 537.433C371.85 503.976 404.913 486.819 445.697 476.168C446.061 490.551 447.487 507.03 451.451 520.868C473.698 598.527 549.649 664.958 628.461 678.424C561.754 696.748 464.153 702.097 399.658 669.11C376.146 657.085 329.439 612.506 318.523 588.07L319.182 587.899ZM418.459 510.106C416.54 510.883 415.616 513.069 416.395 514.986C417.174 516.904 419.36 517.827 421.277 517.046C423.192 516.267 424.113 514.084 423.335 512.168C422.557 510.253 420.375 509.33 418.459 510.106ZM378.743 528.247C377.617 528.482 376.73 529.35 376.47 530.47C376.209 531.591 376.623 532.761 377.53 533.468C378.437 534.176 379.672 534.292 380.696 533.767C382.012 533.092 382.625 531.548 382.132 530.154C381.639 528.76 380.191 527.945 378.743 528.247ZM413.124 580.869C411.918 581.032 410.896 581.84 410.46 582.976C410.023 584.112 410.241 585.396 411.027 586.325C411.813 587.254 413.044 587.68 414.236 587.437C415.997 587.078 417.157 585.387 416.857 583.615C416.556 581.843 414.905 580.628 413.124 580.869ZM446.557 584.033C445.38 585.391 444.822 585.759 444.662 587.541C445.866 590.725 448.22 590.72 451.29 590.621C452.504 588.983 452.646 588.908 452.821 586.953C451.621 583.556 449.794 583.616 446.557 584.033ZM384.249 597.494C382.135 598.127 380.895 600.312 381.436 602.451C381.978 604.59 384.108 605.922 386.268 605.473C387.75 605.164 388.943 604.068 389.376 602.618C389.809 601.167 389.411 599.596 388.34 598.527C387.27 597.457 385.699 597.061 384.249 597.494ZM355.899 609.376C355.04 611.299 354.782 611.549 354.988 613.551C356.42 615.773 356.962 615.608 359.532 615.602C360.345 613.391 360.416 614.09 360.098 611.983C358.997 610.408 357.749 609.95 355.899 609.376ZM480.942 609.165C479.816 610.788 479.454 611.056 479.418 613.052C480.672 615.311 481.398 615.134 483.87 615.017C485.153 613.058 485.085 613.783 484.96 611.811C483.954 610.276 482.731 609.609 480.942 609.165ZM451.561 640.494C442.901 643.857 447.154 651.623 455.538 651.813C462.932 647.305 458.43 640.825 451.561 640.494ZM487.858 642.838C486.3 643.617 485.651 645.499 486.398 647.073C487.146 648.646 489.015 649.332 490.603 648.617C491.659 648.141 492.375 647.131 492.476 645.977C492.576 644.823 492.045 643.705 491.087 643.054C490.129 642.403 488.894 642.32 487.858 642.838ZM544.279 663.894C543.043 665.672 542.801 665.807 542.788 667.863C544.183 670.989 546.273 671.128 549.417 671.134C553.019 666.388 549.143 663.676 544.279 663.894ZM498.515 675.73C497.41 676.236 496.661 677.296 496.555 678.507C496.449 679.718 497.001 680.892 498.002 681.582C499.002 682.272 500.297 682.372 501.391 681.842C503.057 681.036 503.763 679.039 502.975 677.364C502.188 675.69 500.199 674.961 498.515 675.73Z" fill="#F1C0E8"/>
<path d="M730.35 505.448C728.778 506.258 726.848 505.645 726.031 504.076C725.215 502.508 725.82 500.575 727.385 499.752C728.96 498.924 730.907 499.534 731.728 501.112C732.549 502.689 731.931 504.634 730.35 505.448Z" fill="#615F64"/>
<path d="M314.295 504.473C314.607 506.062 315.234 508.193 314.777 509.628C313.792 508.208 313.655 506.846 313.275 505.146L314.295 504.473Z" fill="#615F64"/>
<path d="M483.36 510.701C482.437 511.427 481.107 511.306 480.33 510.424C479.554 509.543 479.6 508.209 480.437 507.384C481.021 506.808 481.876 506.602 482.659 506.849C483.441 507.096 484.023 507.756 484.17 508.563C484.317 509.371 484.005 510.193 483.36 510.701Z" fill="#615F64"/>
<path d="M421.278 517.047C419.361 517.828 417.175 516.905 416.396 514.987C415.617 513.07 416.541 510.884 418.46 510.107C420.376 509.331 422.558 510.254 423.336 512.169C424.114 514.085 423.193 516.268 421.278 517.047Z" fill="#615F64"/>
<path d="M240.075 512.398C248.258 548.997 269.447 592.133 294.631 619.996C302.184 628.352 308.021 633.548 315.951 641.03C319.818 644.678 318.84 647.874 326.606 654.636C312.169 661.411 314.589 664.609 314.14 679.07C313.871 687.752 312.184 698.471 308.925 706.627C298.149 730.517 271.781 739.865 272.417 769.939C272.656 781.234 273.764 790.258 278.988 800.753C301.299 845.582 360.764 862.86 405.544 873.624C402.567 876.653 394.799 881.599 391.12 884.209C381.053 891.347 370.053 898.22 360.148 905.515C357.216 907.671 354.318 909.673 351.272 911.678C317.006 934.231 273.426 959.45 230.94 950.658C218.741 948.134 211.64 944.422 201.794 937.135C169.787 913.446 166.531 870.984 149.453 837.77C144.053 827.274 137.31 815.635 129.997 806.404C113.017 784.972 98.2737 767.071 99.4201 737.994C99.9768 723.876 101.865 716.189 107.044 702.682C130.676 641.049 194.28 609.98 226.991 554.741C232.438 545.533 236.658 534.029 238.571 523.476C239.273 519.606 239.261 516.042 240.075 512.398Z" fill="#90DBF4"/>
<path d="M637.934 521.802C635.236 521.64 633.328 521.67 632.879 518.602C633.49 516.771 634.046 516.533 635.539 515.324C638.334 515.646 639.074 515.781 639.94 518.462C639.325 520.818 639.711 519.966 637.934 521.802Z" fill="#615F64"/>
<path d="M518.208 529.029C516.255 529.441 514.324 528.239 513.832 526.304C513.34 524.369 514.462 522.391 516.375 521.82C517.684 521.429 519.102 521.787 520.069 522.752C521.036 523.718 521.397 525.135 521.008 526.445C520.62 527.755 519.545 528.747 518.208 529.029Z" fill="#615F64"/>
<path d="M744.704 525.85C743.983 526.239 743.101 526.176 742.442 525.689C741.782 525.202 741.463 524.379 741.622 523.575C741.781 522.77 742.39 522.13 743.185 521.931C744.221 521.671 745.288 522.224 745.675 523.22C746.061 524.216 745.645 525.343 744.704 525.85Z" fill="#615F64"/>
<path d="M672.257 530.518C670.917 530.741 669.644 529.856 669.386 528.522C669.128 527.189 669.978 525.892 671.304 525.598C672.194 525.401 673.121 525.702 673.725 526.385C674.329 527.068 674.514 528.025 674.209 528.884C673.904 529.743 673.157 530.369 672.257 530.518Z" fill="#615F64"/>
<path d="M380.698 533.766C379.674 534.291 378.439 534.175 377.532 533.467C376.625 532.76 376.211 531.59 376.472 530.469C376.732 529.349 377.619 528.481 378.745 528.246C380.193 527.944 381.641 528.759 382.134 530.153C382.627 531.547 382.014 533.091 380.698 533.766Z" fill="#615F64"/>
<path d="M697.422 650.831C705.557 641.672 715.047 633.179 723.015 623.597C736.831 607.007 748.357 589.077 759.172 570.447C764.21 561.768 773.01 536.968 781.768 534.035C769.729 572.584 738.851 621.489 706.548 648.65C705.857 649.232 698.749 650.625 697.422 650.831Z" fill="#90DBF4"/>
<path d="M485.699 539.397C484.887 539.836 483.898 539.789 483.131 539.276C482.363 538.763 481.942 537.867 482.036 536.949C482.131 536.03 482.726 535.239 483.582 534.893C484.808 534.398 486.208 534.946 486.771 536.144C487.334 537.341 486.863 538.769 485.699 539.397Z" fill="#615F64"/>
<path d="M731.719 544.482C730.452 544.718 729.235 543.877 729.008 542.608C728.78 541.34 729.628 540.129 730.898 539.909C732.157 539.691 733.356 540.53 733.581 541.788C733.807 543.045 732.975 544.249 731.719 544.482Z" fill="#615F64"/>
<path d="M632.648 552.576C630.84 553.241 628.831 552.344 628.119 550.553C627.408 548.763 628.253 546.731 630.024 545.974C631.212 545.466 632.581 545.643 633.601 546.435C634.621 547.227 635.13 548.51 634.932 549.786C634.734 551.062 633.86 552.13 632.648 552.576Z" fill="#615F64"/>
<path d="M562.186 565.709C560.562 566.341 558.731 565.551 558.077 563.935C557.423 562.319 558.19 560.478 559.797 559.803C560.855 559.359 562.071 559.518 562.979 560.221C563.887 560.923 564.347 562.06 564.183 563.196C564.018 564.332 563.256 565.292 562.186 565.709Z" fill="#615F64"/>
<path d="M612.858 580.272C611.887 580.92 610.576 580.663 609.922 579.696C609.269 578.729 609.519 577.416 610.482 576.757C611.453 576.093 612.779 576.346 613.437 577.321C614.096 578.296 613.836 579.619 612.858 580.272Z" fill="#E6DFD5"/>
<path d="M414.236 587.438C413.044 587.681 411.813 587.255 411.027 586.326C410.241 585.397 410.023 584.113 410.46 582.977C410.896 581.841 411.918 581.033 413.124 580.87C414.905 580.629 416.556 581.844 416.857 583.616C417.157 585.388 415.997 587.079 414.236 587.438Z" fill="#615F64"/>
<path d="M573.76 586.576C572.423 586.932 571.05 586.14 570.689 584.804C570.329 583.468 571.119 582.092 572.454 581.729C573.794 581.365 575.175 582.157 575.536 583.498C575.897 584.838 575.102 586.218 573.76 586.576Z" fill="#615F64"/>
<path d="M451.29 590.623C448.22 590.722 445.866 590.727 444.662 587.543C444.822 585.761 445.38 585.393 446.557 584.035C449.794 583.618 451.621 583.558 452.821 586.955C452.646 588.91 452.504 588.985 451.29 590.623Z" fill="#615F64"/>
<path d="M710.475 601.513C708.855 601.273 708.528 601.402 707.355 600.281C706.749 598.578 707.362 597.443 707.908 595.66C710.269 596.146 710.025 596.015 711.161 597.459C711.44 599.174 711.034 599.874 710.475 601.513Z" fill="#615F64"/>
<path d="M386.269 605.472C384.109 605.921 381.979 604.589 381.437 602.45C380.896 600.311 382.136 598.126 384.25 597.493C385.7 597.06 387.271 597.456 388.341 598.526C389.412 599.595 389.81 601.166 389.377 602.617C388.944 604.067 387.751 605.163 386.269 605.472Z" fill="#615F64"/>
<path d="M359.533 615.601C356.963 615.607 356.421 615.772 354.989 613.55C354.783 611.548 355.041 611.298 355.9 609.375C357.75 609.949 358.998 610.407 360.099 611.982C360.417 614.089 360.346 613.39 359.533 615.601Z" fill="#615F64"/>
<path d="M483.872 615.016C481.4 615.133 480.674 615.31 479.42 613.051C479.456 611.055 479.818 610.787 480.944 609.164C482.733 609.608 483.956 610.275 484.962 611.81C485.087 613.782 485.155 613.057 483.872 615.016Z" fill="#615F64"/>
<path d="M662.662 633.801C661.854 634.366 660.803 634.449 659.916 634.018C659.029 633.587 658.445 632.71 658.389 631.726C658.333 630.742 658.814 629.804 659.646 629.275C660.895 628.483 662.548 628.833 663.368 630.063C664.188 631.294 663.874 632.954 662.662 633.801Z" fill="#645C61"/>
<path d="M328.32 642.344L328.611 642.089C329.662 641.906 335.645 645.932 337.48 646.915L338.113 646.42C338.453 642.563 334.661 642.255 331.418 638.08L331.678 637.148C337.736 642.879 345.812 649.523 351.248 654.863C343.817 651.847 334.941 647.043 328.32 642.344Z" fill="#E6DFD5"/>
<path d="M455.539 651.811C447.155 651.621 442.902 643.855 451.562 640.492C458.431 640.823 462.933 647.303 455.539 651.811Z" fill="#615F64"/>
<path d="M490.605 648.617C489.017 649.332 487.148 648.646 486.4 647.073C485.653 645.499 486.302 643.617 487.86 642.838C488.896 642.32 490.131 642.403 491.089 643.054C492.047 643.705 492.578 644.823 492.478 645.977C492.377 647.131 491.661 648.141 490.605 648.617Z" fill="#E6DFD5"/>
<path d="M329.91 658.565C360.4 697.706 479.322 709.879 525.199 708.37C573.717 706.774 676.903 695.881 709.275 656.801C710.808 657.213 711.358 657.676 712.545 658.705C715.805 661.53 716.67 664.882 716.954 669.011C717.418 675.786 712.782 685.043 707.992 689.785C672.945 724.481 596.323 731.579 551.199 734.231C492.406 737.687 371.599 725.017 327.264 684.558C321.913 679.157 320.353 676.773 318.156 669.57C320.295 661.521 322.133 660.998 329.91 658.565Z" fill="url(#paint2_linear_2293_78897)"/>
<path d="M549.418 671.135C546.274 671.129 544.184 670.99 542.789 667.864C542.802 665.808 543.044 665.673 544.28 663.895C549.144 663.677 553.02 666.389 549.418 671.135Z" fill="#615F64"/>
<path d="M721.502 693.532C724.422 693.036 729.294 691.324 732.274 690.492C748.218 686.042 762.873 679.347 777.979 672.641C787.979 676.978 802.145 678.969 813.133 682.91C855.034 697.763 895.295 723.544 912.851 766.3C924.551 794.794 926.442 829.655 914.337 858.416C905.353 880.395 888.271 890.874 869.871 903.602C842.285 922.684 814.911 939.484 783.696 952.099C743.15 968.486 701.325 980.046 657.516 982.542C642.815 983.38 627.631 982.455 612.924 981.842C555.899 979.338 498.254 968.285 445.298 946.731C433.995 942.13 422.165 936.093 411.056 930.856C394.354 922.982 376.237 914.509 360.148 905.518C370.053 898.223 381.053 891.35 391.12 884.212C394.799 881.602 402.567 876.656 405.544 873.627C420.704 876.559 437.306 879.831 452.541 881.723C497.859 887.351 540.261 886.791 585.503 880.85C615.346 876.931 640.79 873.075 669.962 863.462C700.894 853.269 735.881 839.042 752.607 808.815C757.486 799.998 760.079 788.326 761.378 778.84C764.819 753.702 751.306 747.296 738.262 729.594C732.961 722.401 724.441 702.716 721.502 693.532Z" fill="#FFCFD2"/>
<path d="M501.392 681.84C500.298 682.37 499.003 682.27 498.003 681.58C497.002 680.89 496.45 679.716 496.556 678.505C496.662 677.294 497.411 676.234 498.516 675.728C500.2 674.959 502.189 675.688 502.976 677.362C503.764 679.037 503.058 681.034 501.392 681.84Z" fill="#615F64"/>
<path d="M715.373 695.254C706.631 707.701 692.023 715.391 677.87 720.552C604.346 747.364 517.74 748.328 440.943 737.4C405.45 732.349 364.71 721.794 333.774 703.532C326.134 698.859 316.408 693.153 318.239 683.199C350.18 715.084 404.677 726.132 447.786 733.143C495.795 740.951 544.631 741.325 592.855 735.267C630.93 730.485 670.52 723.331 702.708 701.062C706.65 698.347 710.321 693.922 714.539 691.643L715.352 691.956C715.862 693.405 715.647 693.733 715.373 695.254Z" fill="#F6E9EC"/>
<path d="M290.135 738.038C292.095 735.564 297.802 730.05 300.171 727.639C311.009 716.608 313.185 709.677 316.535 695.281C317.553 696.159 319.568 698.743 320.524 699.897C320.833 716.701 316.675 729.197 309.915 744.185C309.712 744.636 310.608 745.315 310.922 745.64C312.558 745.909 311.803 746.026 313.271 745.307C320.108 735.43 324.095 714.505 324.595 702.348C336.396 710.893 355.11 719.126 368.861 723.967C432.838 746.491 503.22 751.765 570.484 746.663C609.154 743.588 647.863 738.101 683.799 722.761C698.938 716.298 706.918 712.697 717.878 699.935C721.092 706.245 723.749 713.725 726.932 720.303C730.623 727.933 734.027 733.428 738.373 740.626C741.857 759.153 710.35 777.128 695.77 783.084C607.805 819.019 506.967 821.802 414.378 804.942C371.396 797.115 309.967 781.562 290.135 738.038ZM698.818 717.704C697.725 720.025 697.39 721.557 698.741 723.975C702.044 729.883 711.147 751.017 717.944 751.674C719.319 749.457 719.289 750.173 719.39 747.853C718.148 745.521 716.496 743.066 714.953 740.924C710.134 734.236 706.431 727.033 702.504 719.818C701.71 718.36 700.287 718.129 698.818 717.704ZM626.695 746.671C620.991 747.306 611.471 749.298 612.015 757.412C612.277 761.32 617.512 763.896 620.857 765.041C636.58 766.171 639.735 746.713 626.695 746.671ZM408 771.853C406.582 772.681 406.042 774.463 406.763 775.939C407.484 777.414 409.221 778.084 410.746 777.474C411.838 777.037 412.593 776.027 412.703 774.856C412.814 773.685 412.26 772.551 411.269 771.919C410.278 771.286 409.016 771.261 408 771.853ZM479.051 776.331C478.18 777.118 478.036 778.433 478.715 779.391C479.395 780.348 480.683 780.646 481.714 780.085C482.499 779.657 482.968 778.816 482.92 777.924C482.871 777.032 482.314 776.247 481.488 775.907C480.662 775.566 479.714 775.731 479.051 776.331ZM439.806 779.285C436.762 779.985 434.848 783.005 435.514 786.058C436.18 789.11 439.178 791.058 442.238 790.427C444.248 790.012 445.88 788.549 446.512 786.596C447.143 784.642 446.676 782.5 445.288 780.988C443.9 779.475 441.807 778.824 439.806 779.285ZM524.247 788.921C522.609 793.481 522.076 801.664 529.425 798.125L530.109 798.327L530.401 798.013C531.802 796.977 532.968 796.467 533.304 794.636C534.282 789.296 527.088 789.289 524.247 788.921Z" fill="url(#paint3_linear_2293_78897)"/>
<path d="M717.945 751.677C711.148 751.02 702.045 729.886 698.742 723.978C697.391 721.56 697.726 720.028 698.819 717.707C700.288 718.132 701.711 718.363 702.505 719.821C706.432 727.036 710.135 734.239 714.954 740.927C716.497 743.069 718.149 745.524 719.391 747.856C719.29 750.176 719.32 749.46 717.945 751.677Z" fill="#645C61"/>
<path d="M750.821 785.048C750.58 785.39 750.339 785.733 750.09 786.071C731.841 810.822 687.694 829.53 658.894 838.117C638.714 844.133 618.079 848.21 597.271 851.33C516.544 863.434 372.832 855.162 305.557 805.138C294.236 796.72 279.932 782.424 278.036 767.668C276.737 757.564 281.425 749.537 287.243 741.855C288.661 743.397 291.562 749.4 293.24 751.771C317.226 784.072 364.932 798.829 402.321 807.451C478.563 825.03 558.577 823.523 634.842 807.331C664.735 800.985 695.616 790.725 721.616 774.465C733.199 767.221 740.873 758.427 743.645 744.931C757.071 757.056 760.43 768.611 750.821 785.048ZM698.052 795.183C690.383 795.968 674.062 799.353 673.907 809.066C673.799 815.811 686.88 816.666 691.51 816.608C717.571 814.324 722.777 793.517 698.052 795.183ZM324.334 800.865C324.145 801.585 323.556 802.806 324.081 803.209C340.566 815.849 373.978 828.011 393.326 831.274L393.856 828.776C391.986 826.332 381.318 824.791 377.161 823.511C365.386 819.886 354.797 815.769 343.605 810.689C338.521 808.381 328.432 801.679 324.334 800.865ZM421.869 824.662C418.168 825.243 414.417 825.299 411.78 827.784C409.967 833.144 417.663 836.244 421.596 837.524C431.961 840.897 442.917 841.098 453.691 840.285C457.117 839.526 459.847 839.203 462.469 836.808C465.478 828.301 429.086 823.546 421.869 824.662Z" fill="url(#paint4_linear_2293_78897)"/>
<path d="M620.857 765.042C617.512 763.897 612.277 761.321 612.015 757.413C611.471 749.299 620.991 747.307 626.695 746.672C639.735 746.714 636.58 766.172 620.857 765.042ZM626.812 751.247C620.353 751.551 610.852 753.853 620.588 760.398C622.881 760.613 625.099 761.039 626.95 759.427C629.366 757.324 630.701 753.954 628.689 751.209C627.833 751.152 627.565 751.022 626.812 751.247Z" fill="#645C61"/>
<path d="M620.588 760.399C610.852 753.854 620.353 751.552 626.812 751.248C627.565 751.023 627.833 751.153 628.689 751.21C630.701 753.955 629.367 757.325 626.951 759.428C625.1 761.04 622.881 760.614 620.588 760.399Z" fill="#FADFFC"/>
<path d="M410.745 777.478C409.22 778.088 407.483 777.418 406.762 775.943C406.041 774.467 406.581 772.685 407.999 771.857C409.015 771.265 410.277 771.29 411.268 771.923C412.259 772.555 412.813 773.689 412.702 774.86C412.592 776.031 411.837 777.041 410.745 777.478Z" fill="#E6DFD5"/>
<path d="M481.713 780.088C480.682 780.649 479.394 780.351 478.714 779.394C478.035 778.436 478.179 777.121 479.05 776.334C479.713 775.734 480.661 775.569 481.487 775.91C482.313 776.25 482.87 777.035 482.919 777.927C482.967 778.819 482.498 779.66 481.713 780.088Z" fill="#F6E9EC"/>
<path d="M442.237 790.428C439.177 791.059 436.179 789.111 435.513 786.059C434.847 783.006 436.761 779.986 439.805 779.286C441.806 778.825 443.899 779.476 445.287 780.989C446.675 782.501 447.142 784.643 446.511 786.597C445.879 788.55 444.247 790.013 442.237 790.428Z" fill="#E6DFD5"/>
<path d="M749.068 804.099C732.33 836.98 683.995 855.918 649.602 864.069C566.272 883.817 477.5 886.015 394.206 864.884C351.51 854.052 290.087 833.171 278.434 784.906C280.947 787.148 282.899 790.878 284.994 793.577C286.992 796.152 289.385 798.416 291.757 800.641C345.06 850.635 467.122 863.606 536.82 861.429C608.504 859.191 704.098 843.886 755.493 789.163C753.35 794.607 751.635 798.823 749.068 804.099Z" fill="url(#paint5_linear_2293_78897)"/>
<path d="M530.4 798.014L530.108 798.328L529.424 798.126C522.075 801.665 522.608 793.482 524.246 788.922C527.087 789.29 534.281 789.297 533.303 794.637C532.967 796.468 531.801 796.978 530.4 798.014Z" fill="#E6DFD5"/>
<path d="M691.51 816.61C686.88 816.668 673.799 815.813 673.907 809.068C674.062 799.355 690.383 795.97 698.052 795.185C722.777 793.519 717.571 814.326 691.51 816.61ZM695.367 799.687C689.947 800.392 679.546 802.188 677.764 808.163C678.785 813.466 688.019 813.235 692.354 812.991C697.817 811.986 708.573 809.895 709.781 803.447C708.429 798.619 699.537 799.214 695.367 799.687Z" fill="#645C61"/>
<path d="M692.354 812.993C688.019 813.237 678.785 813.468 677.764 808.165C679.546 802.19 689.947 800.394 695.367 799.689C699.537 799.216 708.429 798.621 709.781 803.449C708.573 809.897 697.817 811.988 692.354 812.993Z" fill="#FADFFC"/>
<path d="M393.327 831.277C373.979 828.014 340.567 815.852 324.082 803.212C323.557 802.809 324.146 801.587 324.335 800.867C328.433 801.681 338.522 808.384 343.606 810.692C354.798 815.772 365.387 819.889 377.162 823.514C381.319 824.794 391.987 826.335 393.857 828.779L393.327 831.277Z" fill="#615F64"/>
<path d="M453.691 840.288C442.917 841.101 431.961 840.9 421.596 837.527C417.663 836.247 409.967 833.147 411.78 827.787C414.417 825.302 418.168 825.246 421.869 824.665C429.086 823.549 465.478 828.304 462.469 836.811C459.847 839.206 457.117 839.529 453.691 840.288ZM422.422 828.691C419.79 829.089 417.163 829.442 414.563 830.011C426.423 836.099 439.213 837.815 452.453 836.584C455.602 836.375 456.801 836.209 459.888 835.553C450.975 831.941 431.982 827.542 422.422 828.691Z" fill="#615F64"/>
<path d="M414.562 830.01C417.162 829.441 419.79 829.088 422.422 828.69C431.982 827.541 450.975 831.94 459.888 835.552C456.801 836.208 455.602 836.374 452.453 836.583C439.213 837.814 426.422 836.098 414.562 830.01Z" fill="#FADFFC"/>
<defs>
<linearGradient id="paint0_linear_2293_78897" x1="521.977" y1="487.472" x2="628.504" y2="202.426" gradientUnits="userSpaceOnUse">
<stop stop-color="#C3FFB4"/>
<stop offset="1" stop-color="#75F0EE"/>
</linearGradient>
<linearGradient id="paint1_linear_2293_78897" x1="331.936" y1="410.636" x2="307.343" y2="407.092" gradientUnits="userSpaceOnUse">
<stop stop-color="#5C6263"/>
<stop offset="1" stop-color="#635F6C"/>
</linearGradient>
<linearGradient id="paint2_linear_2293_78897" x1="429.352" y1="568.666" x2="609.96" y2="774.466" gradientUnits="userSpaceOnUse">
<stop stop-color="#FFEFC0"/>
<stop offset="1" stop-color="#F7DEEA"/>
</linearGradient>
<linearGradient id="paint3_linear_2293_78897" x1="421.353" y1="615.052" x2="608.431" y2="854.747" gradientUnits="userSpaceOnUse">
<stop stop-color="#FFEECC"/>
<stop offset="1" stop-color="#E7DCFF"/>
</linearGradient>
<linearGradient id="paint4_linear_2293_78897" x1="481.878" y1="671.702" x2="556.778" y2="875.001" gradientUnits="userSpaceOnUse">
<stop stop-color="#FFF7C2"/>
<stop offset="1" stop-color="#ECDAFF"/>
</linearGradient>
<linearGradient id="paint5_linear_2293_78897" x1="503.866" y1="735.269" x2="538.798" y2="888.251" gradientUnits="userSpaceOnUse">
<stop stop-color="#FFF8CD"/>
<stop offset="1" stop-color="#F3D9FF"/>
</linearGradient>
</defs>
</svg>
