<svg width="1024" height="1024" viewBox="0 0 1024 1024" fill="none" xmlns="http://www.w3.org/2000/svg">
<path d="M640.74 176.564C644.59 158.967 650.584 140.602 655.309 123.148C656.612 118.331 658.329 112.349 660.282 107.836C662.967 110.272 655.087 122.775 656.724 126.729C659.597 133.665 670.222 136.898 672.508 144.951C673.626 148.75 673.12 152.842 671.11 156.254C669.664 158.685 664.425 163.277 661.693 161.503C662.726 159.523 666.58 158.202 668.53 155.892C677.078 145.771 662.328 135.713 655.18 129.566C651.972 141.872 648.585 154.13 645.019 166.337C642.353 175.612 640.882 185.503 633.945 192.46C623.066 200.038 605.823 201.325 597.74 188.974C595.316 185.276 594.489 180.755 595.449 176.438C598.897 160.807 624.161 156.05 634.343 167.316C637.496 170.806 638.397 172.42 640.74 176.564ZM615.803 163.136C612.168 163.718 609.762 164.244 606.502 166.064C590.032 175.26 597.163 194.464 614.309 196.271C616.646 196.518 618.598 196.311 620.895 196.124C649.653 189.547 638.14 160.334 615.803 163.136Z" fill="#90DBF4"/>
<path d="M812.422 193.003C814.419 184.251 817.93 176.412 820.346 167.991C825.169 151.177 833.127 135.897 839.08 119.703C845.921 124.324 836.299 152.886 877.485 154.529C872.102 162.449 865.847 170.077 859.918 177.996C847.49 194.595 834.25 213.488 817.81 226.497C813.499 229.908 803.719 232.869 798.461 233.942C788.849 234.454 781.983 234.385 773.787 228.086C769.278 224.535 766.012 218.851 765.659 213.054C764.26 190.093 796.492 178.198 812.422 193.003ZM839.07 128.269C835.241 134.562 833.339 138.608 831.684 145.861C836.847 155.698 840.924 156.246 848.751 163.38C852.01 166.351 856.179 171.384 858.984 174.867L861.707 171.713C865.419 167.179 869.508 162.052 872.403 156.972C861.599 153.644 849.4 151.482 843.86 140.815C842.216 137.647 840.444 129.958 839.07 128.269ZM829.761 149.67C827.825 154.168 826.84 157.856 826.031 162.707C829.293 170.034 842.544 191.874 852.208 183.422C854.475 180.824 855.749 179.269 857.702 176.442C849.81 168.095 843.677 161.326 834.268 154.57C832.757 153.486 831.277 150.4 829.761 149.67ZM824.617 164.86C820.111 175.137 816.283 187.875 813.762 198.99C811.716 208.007 807.827 215.329 797.004 210.227C793.494 208.572 787.369 204.789 788.172 200.311L788.764 200.098C792.772 204.101 796.94 209.439 803.139 209.517C807.658 209.574 812.138 202.457 811.564 198.572C810.167 189.102 797.719 187.506 790.242 188.798C781.341 190.337 774.109 195.336 769.878 203.055C765.069 214.834 770.201 226.497 782.127 230.438C812.319 240.412 833.841 208.32 848.642 188.434C835.628 184.597 831.237 175.612 824.617 164.86Z" fill="#9AF18A"/>
<path d="M831.686 145.862C833.341 138.609 835.243 134.563 839.072 128.27C840.446 129.959 842.218 137.648 843.862 140.816C849.402 151.483 861.601 153.645 872.405 156.973C869.51 162.053 865.421 167.18 861.709 171.714L858.986 174.868C856.181 171.385 852.012 166.352 848.753 163.381C840.926 156.247 836.849 155.699 831.686 145.862Z" fill="#FFEDE1"/>
<path d="M519.62 185.461C512.77 186.621 485.858 192.39 487.237 202.272C486.167 205.79 484.549 298.548 484.985 304.981C484.349 315.485 484.663 329.336 484.636 340.03C449.633 351.371 421.676 366.489 390.218 384.977C386.525 380.763 382.784 376.26 378.413 372.593C359.143 356.421 332.666 344.243 308.3 338.322C298.91 336.041 286.741 335.163 277.069 334.348C243.32 331.504 203.696 343.339 177.757 365.22C172.794 369.407 161.326 381.202 157.521 386.117C162.062 353.424 164.206 320.885 169.684 288.304C174.772 258.049 180.103 238.796 197.837 213.176C225.905 172.627 269.144 156.681 315.483 148.395C336.667 144.616 358.154 142.807 379.671 142.993C423.97 142.979 456.161 148.133 495.952 169.337C503.978 173.613 511.994 180.134 519.62 185.461ZM357.629 250.706C347.648 251.472 333.841 252.938 324.066 253.058C319.093 268.299 315.184 282.669 310.726 298.061C307.427 294.419 305.123 292.299 299.715 291.934C295.298 291.658 290.949 293.13 287.608 296.034C282.334 300.695 282.225 307.131 287.254 312.003C287.552 312.29 287.855 312.572 288.164 312.849C300.652 320.292 308.227 309.997 311.713 299.011C315.367 287.491 318.507 275.975 321.941 264.402C335.026 263.415 348.118 262.509 361.214 261.687L364.357 250.342C362.628 250.429 359.211 250.492 357.629 250.706Z" fill="#F1C0E8"/>
<path d="M826.031 162.709C826.84 157.858 827.825 154.17 829.761 149.672C831.277 150.402 832.757 153.488 834.268 154.572C843.677 161.328 849.81 168.097 857.702 176.444C855.749 179.271 854.475 180.826 852.208 183.424C842.544 191.876 829.293 170.036 826.031 162.709Z" fill="#FFEDE1"/>
<path d="M620.896 196.122C618.599 196.309 616.647 196.516 614.31 196.269C597.164 194.462 590.033 175.258 606.503 166.062C609.763 164.242 612.169 163.716 615.804 163.134C638.141 160.332 649.654 189.545 620.896 196.122Z" fill="#FBF8CC"/>
<path d="M769.878 203.054C774.109 195.335 781.341 190.336 790.242 188.797C797.719 187.505 810.167 189.101 811.564 198.571C812.138 202.456 807.658 209.573 803.139 209.516C796.94 209.438 792.772 204.1 788.764 200.097L788.172 200.31C787.369 204.788 793.494 208.571 797.004 210.226C807.827 215.328 811.716 208.006 813.762 198.989C816.283 187.874 820.111 175.136 824.617 164.859C831.237 175.611 835.628 184.596 848.642 188.433C833.841 208.319 812.319 240.411 782.127 230.437C770.201 226.496 765.069 214.833 769.878 203.054Z" fill="#FFEDE1"/>
<path d="M487.239 202.272C485.86 192.39 512.772 186.621 519.622 185.461C528.152 184.652 548.814 183.171 553.255 195.705C553.557 196.557 553.062 197.413 552.583 198.105C550.83 197.697 547.031 192.247 543.639 190.911C529.929 185.514 499.22 188.97 491.059 202.228L491.044 203.505C489.781 203.078 488.513 202.667 487.239 202.272Z" fill="#403537"/>
<path d="M491.059 202.227C499.22 188.969 529.929 185.513 543.639 190.91C547.031 192.246 550.83 197.696 552.583 198.104L554.038 198.263C552.356 199.1 552.161 199.024 551.187 200.665L549.805 201.267C547.584 201.241 547.643 200.868 546.173 201.885C545.216 207.267 545.327 232.414 545.43 239.249C545.713 257.913 544.744 277.723 545.113 296.205C535.558 299.573 524.397 306.101 515.746 311.53C511.915 313.935 503.819 320.2 500.084 321.658L498.248 243.507L497.593 219.165C497.475 214.985 497.562 208.799 496.866 204.872C495.489 203.501 495.402 203.904 493.021 203.499C492.161 203.241 491.847 202.833 491.059 202.227ZM527.235 197.85L529.426 201.4L528.86 201.983C527.333 201.867 525.965 201.761 524.439 201.555L525.363 201.907C528.606 203.159 528.821 203.118 531.264 205.556C532.561 207.524 534.071 209.962 535.516 211.769C534.169 207.593 531.248 200.094 527.235 197.85Z" fill="#FBF8CC"/>
<path d="M531.263 205.558C528.82 203.12 528.605 203.161 525.362 201.909L524.438 201.557C525.964 201.763 527.332 201.869 528.859 201.985L529.424 201.402L527.234 197.852C531.247 200.096 534.168 207.595 535.515 211.771C534.07 209.964 532.56 207.526 531.263 205.558Z" fill="#FDE4CF"/>
<path d="M551.186 200.668C552.16 199.027 552.355 199.103 554.037 198.266C554.842 199.31 555.28 199.934 555.334 201.309C556.37 227.795 557.224 254.291 558.504 280.769C558.721 285.259 558.905 289.946 558.942 294.434C558.737 304.446 559.429 316.904 559.881 327.022C568.208 326.849 586.488 325.921 594.014 326.983C592.654 327.093 590.103 327.443 588.892 327.168C591.288 327.235 592.506 327.13 594.817 327.915C583.59 327.853 570.951 327.58 559.861 328.499C560.594 358.29 563.292 388.659 563.724 418.377C618.879 437.325 652.048 494.327 641.746 551.105C641.143 554.426 637.558 567.732 637.629 569.834L638.543 571.086C635.23 573.37 633.568 578.461 631.771 582.15C629.282 587.313 626.477 592.318 623.374 597.137C609.137 618.933 582.788 637.007 558.351 645.294C529.525 655.069 529.832 659.291 529.661 687.419L529.496 715.621C529.008 756.541 527.381 798.863 527.429 839.588C542.933 843.524 553.623 853.918 556.753 869.888C557.976 882.082 556.833 891.946 548.714 901.736C534.287 919.131 507.093 919.011 490.816 904.307C484.424 898.568 481.985 894.371 478.847 886.614C473.395 864.016 487.034 846.039 508.82 840.552L507.079 770.266C506.826 755.015 507.224 739.299 506.622 724.134C506.27 712.32 508.274 669.824 504.448 661.793C503.696 660.214 503.023 659.115 501.385 658.535L500.379 657.893L500.446 657.233C498.837 653.015 472.723 645.124 467.01 642.392C435.834 627.479 402.084 587.547 396.833 552.89C394.432 540.966 393.911 528.74 395.291 516.655C399.507 478.618 418.885 451.088 447.726 427.821C459.281 419.486 470.43 413.949 483.75 409.019C483.705 389.043 483.373 363.69 484.709 343.939L485.075 343.677C485.307 333.431 486.234 314.764 484.986 304.983C484.55 298.55 486.168 205.792 487.238 202.274C488.512 202.669 489.78 203.08 491.043 203.507C491.479 209.795 491.145 219.815 491.112 226.351L490.779 267.512C490.54 305.876 490.031 344.237 489.252 382.594L488.37 446.963C488.36 447.78 488.716 462.92 488.826 462.273L488.337 462.544C483.871 464.965 479.034 466.598 474.483 469.008C459.675 476.849 447.645 488.601 442.897 505.01C434.11 535.374 444.585 569.016 466.562 591.255C478.213 601.389 487.802 606.067 502.555 609.759L502.666 599.185C492.832 595.26 484.38 588.51 478.377 579.788C461.747 552.302 469.656 524.516 491.552 502.759C494.643 500.36 495.645 499.544 499.124 497.818C499.118 461.19 497.411 424.035 496.297 387.383C494.671 335.737 493.589 284.076 493.051 232.407C493.02 228.56 492.38 205.271 493.02 203.502C495.401 203.907 495.488 203.504 496.865 204.875C497.561 208.802 497.474 214.988 497.592 219.168L498.247 243.51L500.083 321.661C500.166 325.161 500.146 333.1 500.631 336.232L502.452 337.149C501.431 337.548 501.564 337.527 500.636 338.144C500.133 340.88 500.95 357.501 501.089 361.558L502.213 403.184C518.718 401.36 529.204 400.933 545.331 404.977C545.574 393.026 544.937 379.034 544.896 366.889C544.868 358.635 546.044 336.389 545.096 329.359L544.991 328.51C546.128 325.868 545.218 300.583 545.112 296.208C544.743 277.726 545.712 257.916 545.429 239.252C545.326 232.417 545.215 207.27 546.172 201.888C547.642 200.871 547.583 201.244 549.804 201.27C548.116 252.075 551.404 304.198 549.764 355.131C549.483 363.876 549.491 372.864 549.559 381.602L550.115 433.992C550.161 466.3 552.959 484.296 515.189 490.916C514.331 485.966 513.491 450.156 515.119 445.93C518.262 443.115 528.425 443.731 532.729 443.977C537.189 444.22 541.618 444.875 545.958 445.934L545.882 435.78C546.021 431.485 545.953 428.096 545.504 423.851C536.595 423.097 530.736 422.87 521.966 424.402C514.285 425.558 509.461 426.983 502.139 429.27C502.245 452.636 503.414 476.044 503.443 499.597C488.718 509.316 477.513 522.842 475.703 541.119C474.065 554.081 477.108 567.815 485.209 578.201C490.038 584.335 496.222 589.267 503.277 592.611L507.629 594.605C508.353 601.059 510.513 618.285 499.442 615.277C485.418 611.466 470.983 604.271 460.409 594.152C456.723 590.623 451.947 583.665 448.987 579.378C446.917 575.887 444.976 572.321 443.167 568.688C432.71 547.266 430.706 523.372 438.214 500.509C444.399 481.676 458.666 470.834 475.914 462.388C478.132 461.469 481.669 460.394 484.046 459.602C483.516 444.192 484.207 429.402 484.035 413.992C470.735 418.566 463.432 423.124 452.05 430.838C432.329 446.246 418.924 461.937 409.229 485.25C399.748 508.049 397.563 534.896 403.984 558.782C412.278 590.052 449.165 632.277 480.255 641.165C514.97 651.088 512.562 659.521 512.682 691.798L512.984 721.759C513.613 747.957 514.032 774.16 514.243 800.364C514.345 809.217 515.175 831.185 514.431 839.269C513.552 840.641 513.721 840.875 513.767 842.506L514.261 843.329C514.92 847.071 516.965 860.514 511.989 861.238C511.1 860.843 509.996 860.544 509.79 859.493C508.897 854.915 509.39 848.612 509.077 843.939C505.429 845.088 502.567 845.981 499.217 847.786C485.344 855.26 477.042 873.195 483.991 888.132C500.36 923.96 558.772 916.357 554.156 871.282C550.188 856.597 542.848 846.467 527.494 842.448C527.41 846.073 527.668 848.827 527.926 852.369C528.206 856.225 530.049 861.986 525.344 863.136L524.485 862.527C522.509 858.685 523.477 846.982 523.6 841.951L524.02 838.668C523.702 835.079 523.936 828.639 523.952 824.878L524.014 798.15L523.574 718.58C523.447 705.592 522.35 670.707 526.297 660.248C532.212 644.578 552.357 641.634 566.21 635.476C591.835 624.086 616.588 604.305 626.86 577.437C628.818 574.391 632.036 565.455 632.898 561.772C640.055 531.215 638.582 502.925 622.88 475.452C607.842 450.553 590.411 435.519 563.53 424.18C563.546 429.162 563.887 436.886 564.401 441.761C564.501 445.593 564.523 449.58 564.989 453.371C584.68 468.861 598.064 484.201 603.811 509.3C612.349 546.591 600.764 580.344 571.38 604.24C568.065 606.358 563.318 609.311 559.887 611.141C551.312 615.716 528.196 622.014 519.955 615.608C518.412 612.071 518.048 559.036 517.941 550.945C518.222 538.659 516.737 524.976 516.244 512.637C516.166 510.666 516.008 510.125 517.09 508.99C518.973 508.447 525.741 509.256 528.263 509.211C568.726 508.497 561.307 474.087 559.479 447.176C558.503 431.557 557.73 415.927 557.161 400.289C554.6 333.766 552.608 267.224 551.186 200.668ZM518.971 450.025L519.024 458.766L519.176 485.658C535.271 482.022 544.118 477.669 545.797 459.405C545.992 458.289 545.977 454.599 546.003 453.274C535.619 450.055 529.513 449.858 518.971 450.025ZM521.416 513.967C521.322 527.561 522.197 542.954 522.506 556.772C522.81 575.174 523.227 593.574 523.757 611.97C548.508 613.066 567.176 603.455 582.707 584.391C585.617 580.739 588.177 576.823 590.355 572.693C600.682 553.028 603.021 526.938 596.337 505.774C591.189 489.471 580.993 471.004 565.355 462.748C565.972 496.185 559.39 516.06 521.416 513.967ZM514.87 407.714C510.799 408.13 506.044 408.497 502.067 409.189C502.143 413.934 502.336 419.154 502.199 423.859C511.691 420.819 518.038 419.437 527.875 418.509C533.02 418.338 540.574 418.02 545.517 418.873L545.438 410.923C536.612 408.119 524.068 406.362 514.87 407.714Z" fill="#403537"/>
<path d="M549.804 201.266L551.186 200.664C552.608 267.22 554.6 333.762 557.161 400.285C557.73 415.923 558.503 431.553 559.479 447.172C561.307 474.083 568.726 508.493 528.263 509.207C525.741 509.252 518.973 508.443 517.09 508.986C516.008 510.121 516.166 510.662 516.244 512.633C516.737 524.972 518.222 538.655 517.941 550.941C516.265 550.447 508.879 541.061 506.982 538.906C506.813 535.162 506.838 518.944 505.253 517.17C502.102 516.89 497.747 520.022 495.367 521.875C488.561 527.173 483.988 538.154 482.618 546.522C478.999 546.338 480.285 544.551 477.282 542.517C476.346 541.883 476.417 541.967 475.703 541.115C477.513 522.838 488.718 509.312 503.443 499.593C503.414 476.04 502.245 452.632 502.139 429.266C509.461 426.979 514.285 425.554 521.966 424.398C529.818 425.212 537.613 425.342 545.403 426.118C545.416 429.091 545.268 432.984 545.882 435.776L545.958 445.93C541.618 444.871 537.189 444.216 532.729 443.973C528.425 443.727 518.262 443.111 515.119 445.926C513.491 450.152 514.331 485.962 515.189 490.912C552.959 484.292 550.161 466.296 550.115 433.988L549.559 381.598C549.491 372.86 549.483 363.872 549.764 355.127C551.404 304.194 548.116 252.071 549.804 201.266Z" fill="#D6F1ED"/>
<path d="M491.058 202.227C491.846 202.833 492.16 203.241 493.02 203.499C492.38 205.268 493.02 228.557 493.051 232.404C493.589 284.073 494.671 335.734 496.297 387.38C497.411 424.032 499.118 461.187 499.124 497.815C495.645 499.541 494.643 500.357 491.552 502.756C490.36 503.045 489.123 503.492 488.133 502.79C487.576 499.453 487.817 464.573 488.826 462.27C488.716 462.917 488.36 447.777 488.37 446.96L489.252 382.591C490.031 344.234 490.54 305.873 490.779 267.509L491.112 226.348C491.145 219.812 491.479 209.792 491.043 203.504L491.058 202.227Z" fill="#D6F1ED"/>
<path d="M729.61 214.384C731.517 213.598 731.55 213.17 733.067 213.641C733.966 216.23 731.105 221.679 730.231 224.95L728.092 224.518C728.991 221.795 729.458 219.279 730.031 216.485L729.61 214.384Z" fill="#54B0EC"/>
<path d="M680.247 245.952C681.37 244.283 683.024 238.867 684.074 236.542C691.62 219.825 714.714 220.159 729.61 214.387L730.031 216.488C721.189 218.816 712.455 220.732 703.809 223.811C690.327 228.614 686.232 233.926 682.444 247.46C687.891 244.636 693.439 241.534 699.344 239.869C706.643 237.81 714.877 236.927 722.007 234.474C726.169 232.431 726.715 228.649 728.092 224.521L730.231 224.953L725.706 237.653C724.41 237.395 724.473 237.461 723.434 236.664C721.159 236.99 718.709 237.915 716.346 238.438C708.968 240.071 695.466 241.782 689.315 246.751C686.776 248.226 685.054 249.425 682.147 250.033C682.24 248.769 682.275 247.686 682.307 246.425L681.777 245.869L680.217 246.429L680.247 245.952Z" fill="#90DBF4"/>
<path d="M682.443 247.46C686.231 233.926 690.326 228.614 703.808 223.811C712.454 220.732 721.188 218.816 730.03 216.488C729.457 219.282 728.99 221.798 728.091 224.521C726.714 228.649 726.168 232.431 722.006 234.474C714.876 236.927 706.642 237.81 699.343 239.869C693.438 241.534 687.89 244.636 682.443 247.46Z" fill="#FFEDE1"/>
<path d="M689.314 246.751C695.465 241.782 708.967 240.071 716.345 238.438C718.708 237.915 721.158 236.99 723.433 236.664C723.077 239.736 720.554 246.669 719.461 249.906C715.893 248.53 699.312 250.153 694.511 250.594C692.538 249.533 691.048 248.172 689.314 246.751Z" fill="#FFEDE1"/>
<path d="M723.435 236.664C724.474 237.461 724.411 237.395 725.707 237.653C724.538 241.159 723.401 244.674 722.295 248.2C720.169 255.094 717.997 261.973 715.78 268.838C711.448 281.396 706.647 285.963 694.097 289.875C692.192 288.31 690.695 288.394 688.211 288.072C701.997 286.232 708.665 281.717 713.049 268.144C715.375 262.513 717.49 255.762 719.463 249.906C720.556 246.669 723.079 239.736 723.435 236.664Z" fill="#41D3FD"/>
<path d="M558.941 294.433C567.694 294.165 569.587 286.48 575.489 280.769C589.162 267.539 609.147 255.349 627.308 249.612C640.454 245.459 667.219 241.934 680.246 245.952L680.216 246.429C679.399 249.205 679.047 250.882 677.597 253.415C671.755 258.287 663.207 262.718 663.045 271.077C662.709 288.347 681.413 291.304 694.095 289.875C706.645 285.963 711.446 281.396 715.778 268.838C721.957 275.638 727.491 282.991 733.422 289.755C764.396 325.078 782.774 365.06 780.763 412.796C778.506 466.383 747.99 508.767 715.114 548.564C713.28 550.785 702.169 563.912 702.072 565.914C700.519 566.552 697.058 567.822 695.883 568.761C684.944 573.491 674.614 580.57 667.072 589.882C662.64 594.385 658.222 600.801 655.699 606.623C655.413 606.041 654.009 601.891 653.619 600.94C652.149 597.358 647.738 589.488 647.224 586.052C645.86 576.923 649.002 575.478 643.651 566.831C649.819 561.625 657.099 554.764 662.118 548.371C704.251 504.093 749.056 416.38 697.372 361.19C674.781 337.066 626.577 327.01 594.013 326.982C586.487 325.92 568.207 326.848 559.88 327.021C559.428 316.903 558.736 304.445 558.941 294.433Z" fill="#FFCFD2"/>
<path d="M680.217 246.427L681.777 245.867L682.307 246.423C682.275 247.684 682.24 248.767 682.147 250.031C681.451 252.364 680.37 253.57 678.777 255.465L677.598 253.413C679.048 250.88 679.4 249.203 680.217 246.427Z" fill="#41D3FD"/>
<path d="M682.146 250.032C685.053 249.424 686.775 248.225 689.314 246.75C691.048 248.171 692.538 249.532 694.511 250.593C701.049 256.325 706.477 262.479 713.047 268.143C708.663 281.716 701.995 286.231 688.209 288.071C677.551 286.986 664.544 284.228 666.017 270.339C666.788 263.062 673.577 259.915 678.776 255.466C680.369 253.571 681.45 252.365 682.146 250.032Z" fill="#FFCFD2"/>
<path d="M722.293 248.199C734.103 248.724 746.073 247.575 758.193 250.062C793.966 257.401 828.027 279.34 852.608 305.782C880.649 335.946 889.608 372.217 896.582 411.407C898.002 419.388 901.004 436.929 900.506 444.64C899.198 464.882 887.276 487.822 874.038 502.944C870.215 507.311 861.786 515.228 859.192 519.458C850.135 518.485 843.384 517.651 834.519 515.609C836.859 513.221 840.111 510.396 842.817 508.311C848.937 504.092 855.888 495.093 852.75 486.967C842.964 461.617 802.951 476.688 812.752 503.164C815.416 510.359 823.707 513.381 830.113 516.292C818.758 526.037 810.046 536.67 799.445 546.547C796.019 546.412 775.463 551.905 773.389 553.484C770.143 553.924 766.887 554.283 763.623 554.56C743.83 554.396 720.756 559.562 702.072 565.913C702.169 563.911 713.28 550.784 715.114 548.563C747.99 508.766 778.506 466.382 780.763 412.795C782.774 365.059 764.396 325.077 733.422 289.754C727.491 282.99 721.957 275.637 715.778 268.837C717.995 261.972 720.167 255.093 722.293 248.199ZM817.87 349.247C819.094 352.695 820.028 355.571 821.735 358.817C822.031 358.947 822.636 359.247 822.918 359.293C822.378 356.817 820.196 350.337 817.87 349.247ZM847.506 364.52C845.634 365.549 839.763 368.6 838.904 370.313L839.261 370.552C842.081 368.903 845.263 367.2 847.762 365.136L847.506 364.52ZM806.834 369.208L805.4 369.798C806.316 370.688 808.332 370.533 809.794 370.509C810.886 370.481 811.977 370.436 813.067 370.372L814.114 370.122L813.914 369.511C811.274 368.929 809.534 369.011 806.834 369.208ZM821.568 380.294C820.349 382.786 816.986 388.704 818.052 391.32C819.065 388.837 822.359 382.307 821.568 380.294ZM834.448 380.364C835 383.666 835.379 385.51 837.338 388.204L838.857 388.819C837.982 387.171 835.222 381.026 834.448 380.364Z" fill="#FDE4CF"/>
<path d="M694.512 250.594C699.313 250.153 715.894 248.53 719.462 249.906C717.489 255.762 715.374 262.513 713.048 268.144C706.478 262.48 701.05 256.326 694.512 250.594Z" fill="#FDE4CF"/>
<path d="M324.067 253.06C333.842 252.94 347.649 251.474 357.63 250.708C359.212 250.494 362.629 250.431 364.358 250.344L361.215 261.689C348.119 262.511 335.027 263.417 321.942 264.404C318.508 275.977 315.368 287.493 311.714 299.013C308.228 309.999 300.653 320.294 288.165 312.851C287.856 312.574 287.553 312.292 287.255 312.005C282.226 307.133 282.335 300.697 287.609 296.036C290.95 293.132 295.299 291.659 299.716 291.935C305.124 292.3 307.428 294.421 310.727 298.063C315.185 282.671 319.094 268.301 324.067 253.06ZM353.467 252.292C344.085 253.177 333.983 253.475 324.936 254.421C324.149 257.281 323.373 260.363 322.425 263.156C324.74 262.934 327.058 262.731 329.377 262.549C337.56 261.952 352.823 260.313 360.182 260.458L362.422 251.795C359.561 251.95 356.284 252.047 353.467 252.292ZM294.063 294.069C279.301 300.684 284.874 315.766 299.684 312.377C302.913 311.135 306.049 309.284 307.615 306.01C308.58 303.987 308.647 301.651 307.802 299.575C305.428 293.795 299.29 293.657 294.063 294.069Z" fill="#5994DA"/>
<path d="M324.937 254.419C333.984 253.473 344.086 253.175 353.468 252.29C356.285 252.045 359.562 251.948 362.423 251.793L360.183 260.456C352.824 260.311 337.561 261.95 329.378 262.547C327.059 262.729 324.741 262.932 322.426 263.154C323.374 260.361 324.15 257.279 324.937 254.419Z" fill="#F1C0E8"/>
<path d="M694.095 289.874C681.413 291.303 662.709 288.346 663.045 271.076C663.207 262.717 671.755 258.286 677.597 253.414L678.776 255.466C673.577 259.915 666.788 263.062 666.017 270.339C664.544 284.228 677.551 286.986 688.209 288.071C690.693 288.393 692.19 288.309 694.095 289.874Z" fill="#90DBF4"/>
<path d="M299.685 312.374C284.875 315.763 279.302 300.681 294.064 294.066C299.291 293.654 305.429 293.792 307.803 299.572C308.648 301.648 308.581 303.984 307.616 306.007C306.05 309.281 302.914 311.132 299.685 312.374Z" fill="#F1C0E8"/>
<path d="M500.082 321.66C503.817 320.202 511.913 313.937 515.744 311.532C524.395 306.103 535.556 299.575 545.111 296.207C545.217 300.582 546.127 325.867 544.99 328.509C536.723 328.861 508.518 333.535 500.63 336.231C500.145 333.099 500.165 325.16 500.082 321.66Z" fill="#FFCFD2"/>
<path d="M484.987 304.98C486.235 314.761 485.308 333.428 485.076 343.674L484.71 343.936L484.187 342.523C482.562 342.424 476.185 344.847 474.345 345.51C449.212 354.57 425.518 367.268 402.355 380.464C398.784 382.498 395.121 384.924 391.505 386.794C328.181 427.114 231.417 503.246 246.309 589.096C248.28 597.372 250.5 605.917 254.358 613.523C295.928 695.488 429.585 686.374 500.38 657.89L501.386 658.533C489.276 663.999 475.187 667.565 462.293 670.723C386.694 689.24 265.831 685.392 244.871 590.586C229.055 502.103 325.687 426.766 390.22 384.975C421.678 366.487 449.635 351.37 484.638 340.029C484.665 329.335 484.351 315.484 484.987 304.98Z" fill="#66504C"/>
<path d="M594.818 327.912C592.507 327.127 591.289 327.232 588.893 327.165C590.104 327.44 592.655 327.09 594.015 326.98C626.579 327.008 674.783 337.064 697.374 361.188C749.058 416.378 704.253 504.091 662.12 548.369L661.488 547.001C702.065 503.605 746.371 420.251 698.546 364.431C675.533 337.571 629.013 329.805 594.818 327.912Z" fill="#151416"/>
<path d="M559.861 328.498C570.951 327.579 583.59 327.852 594.817 327.914C629.012 329.807 675.532 337.573 698.545 364.433C746.37 420.253 702.064 503.607 661.487 547.003C656.386 552.285 643.765 565.378 637.629 569.833C637.558 567.731 641.143 554.425 641.746 551.104C652.048 494.326 618.879 437.324 563.724 418.376C563.292 388.658 560.594 358.289 559.861 328.498Z" fill="#FFCFD2"/>
<path d="M500.631 336.23C508.519 333.534 536.724 328.86 544.991 328.508L545.096 329.357C529.59 331.921 517.927 333.441 502.452 337.147L500.631 336.23Z" fill="#151416"/>
<path d="M502.453 337.145C517.928 333.439 529.591 331.919 545.097 329.355C546.045 336.385 544.869 358.631 544.897 366.885C544.938 379.03 545.575 393.022 545.332 404.973C529.205 400.929 518.719 401.356 502.214 403.18L501.09 361.554C500.951 357.497 500.134 340.876 500.637 338.14C501.565 337.523 501.432 337.544 502.453 337.145Z" fill="#FFCFD2"/>
<path d="M157.522 386.116C161.327 381.201 172.795 369.406 177.758 365.219C203.697 343.338 243.321 331.503 277.07 334.347C286.742 335.162 298.911 336.04 308.301 338.321C332.667 344.242 359.144 356.42 378.414 372.592C382.785 376.259 386.526 380.761 390.219 384.975C325.686 426.766 229.054 502.103 244.87 590.586C240.187 593.697 236.665 599.685 232.917 604.029C227.77 600.056 221.526 596.525 216.134 592.351C149.11 540.468 126.886 465.524 157.431 386.342L157.522 386.116ZM217.39 431.886C216.501 430.239 214.321 425.43 212.508 425.321C211.961 427.045 212.539 428.89 212.893 430.721C213.615 436.202 214.069 439.76 214.029 445.266C211.47 448.417 209.201 450.779 207.636 454.527C208.426 454.406 208.091 454.565 208.66 454.091L208.278 453.546L209.177 453.623C211.566 451.187 213.008 449.239 215.071 446.527C215.12 448.442 215.101 451.793 215.444 453.557C215.523 454.972 215.478 456.283 215.986 457.59C217.231 468.288 219.924 479.031 212.55 488.355C208.968 492.93 203.675 495.845 197.894 496.428C192.558 496.968 187.231 495.318 183.135 491.855C176.637 486.383 175.109 476.756 180.841 470.137C189.086 460.616 211.168 464.597 201.729 478.7C199.647 481.811 190.984 479.517 187.48 479.743C193.349 482.368 201.627 484.847 204.785 476.875C205.772 474.394 205.701 471.617 204.587 469.19C200.856 461.27 190.294 462.087 183.775 465.894C174.98 471.031 173.001 480.387 178.364 489.038C191.012 506.577 217.6 497.156 218.758 476.146C219.094 470.042 218.044 463.941 217.145 458.073L217.487 458.144C224.215 465.826 234.532 464.913 235.846 453.682C236.883 444.814 222.836 438.692 217.39 431.886Z" fill="#98F5E1"/>
<path d="M391.504 386.794C395.12 384.924 398.783 382.497 402.354 380.463C425.517 367.267 449.211 354.569 474.344 345.509C476.184 344.846 482.561 342.423 484.186 342.522L484.709 343.936C483.373 363.687 483.705 389.039 483.75 409.015C470.43 413.945 459.281 419.482 447.726 427.817C422.539 415.241 411.862 406.11 391.504 386.794Z" fill="#F1C0E8"/>
<path d="M822.919 359.292C822.637 359.246 822.032 358.946 821.736 358.816C820.029 355.57 819.095 352.694 817.871 349.246C820.197 350.336 822.379 356.816 822.919 359.292Z" fill="#151416"/>
<path d="M830.114 516.293C823.708 513.382 815.417 510.36 812.753 503.165C802.952 476.689 842.965 461.618 852.751 486.968C855.889 495.094 848.938 504.093 842.818 508.312C840.112 510.397 836.86 513.222 834.52 515.61C843.385 517.652 850.136 518.486 859.193 519.459C882.406 519.821 908.83 517.829 926.543 500.654C953.567 474.451 932.011 435.726 923.687 406.148C919.833 392.406 915.732 370.053 920.543 356.402C920.522 372.062 919.947 382.525 923.569 398.102C931.159 430.74 957.093 472.422 928.145 501.725C911.048 519.031 877.021 522.904 853.983 520.779C851.104 520.476 833.082 517.087 831.729 517.742C830.037 519.592 828.215 521.293 826.353 522.97C818.706 529.857 811.665 537.298 804.568 544.747C801.635 547.74 797.444 551.775 794.955 554.99L794.078 555.934C793.352 555.33 792.691 554.867 791.925 554.308L791.92 553.842C794.466 551.934 797.186 548.901 799.446 546.548C810.047 536.671 818.759 526.038 830.114 516.293ZM829.344 476.099C817.193 479.821 810.751 487.343 814.225 500.798C815.813 506.952 828.165 517.768 833.815 513.33C840.785 506.882 851.069 501.183 851.686 491.598C851.911 487.851 850.54 484.185 847.913 481.504C842.872 476.298 836.222 475.37 829.344 476.099Z" fill="#7C65C9"/>
<path d="M839.261 370.552L838.904 370.313C839.763 368.6 845.634 365.549 847.506 364.52L847.762 365.136C845.263 367.2 842.081 368.903 839.261 370.552Z" fill="#151416"/>
<path d="M813.067 370.373C811.977 370.437 810.886 370.482 809.794 370.51C808.332 370.534 806.316 370.689 805.4 369.799L806.834 369.209C809.534 369.012 811.274 368.93 813.914 369.512L814.114 370.123L813.067 370.373Z" fill="#151416"/>
<path d="M818.053 391.319C816.987 388.703 820.35 382.785 821.569 380.293C822.36 382.306 819.066 388.836 818.053 391.319Z" fill="#151416"/>
<path d="M838.858 388.818L837.339 388.203C835.38 385.509 835.001 383.665 834.449 380.363C835.223 381.025 837.983 387.17 838.858 388.818Z" fill="#151416"/>
<path d="M251.205 743.407C208.35 716.653 164.648 671.066 138.791 627.563C121.938 599.21 99.5143 550.247 96.3844 517.426C95.1074 503.053 96.3724 488.568 100.121 474.634C107.873 446.138 123.814 417.622 145.292 397.835C148.065 395.28 154.483 388.018 157.432 386.344C126.887 465.526 149.111 540.47 216.135 592.353C221.527 596.527 227.771 600.058 232.918 604.031C224.176 618.072 217.253 629.85 214.337 646.393C208.383 680.178 222.734 709.909 251.685 727.634C251.642 731.155 251.488 735.235 251.581 738.708L251.205 743.407Z" fill="#FDE4CF"/>
<path d="M246.307 589.099C231.415 503.249 328.179 427.117 391.503 386.797C411.861 406.113 422.538 415.245 447.725 427.821C418.884 451.088 399.506 478.618 395.29 516.655C393.91 528.74 394.431 540.966 396.832 552.89C389.918 550.701 381.072 547.749 374.078 546.641C341.847 541.538 310.915 547.709 282.279 563.035C274.664 567.111 267.294 571.498 260.397 576.738C256.107 579.996 250.45 586.466 246.307 589.099Z" fill="#98F5E1"/>
<path d="M502.066 409.186C506.043 408.494 510.798 408.127 514.869 407.711C524.067 406.359 536.611 408.116 545.437 410.92L545.516 418.87C540.573 418.017 533.019 418.335 527.874 418.506C518.037 419.434 511.69 420.816 502.198 423.856C502.335 419.151 502.142 413.931 502.066 409.186Z" fill="#F1C0E8"/>
<path d="M452.051 430.834C463.433 423.12 470.736 418.562 484.036 413.988C484.208 429.398 483.517 444.188 484.047 459.598C481.67 460.39 478.133 461.465 475.915 462.384C475.076 460.417 473.7 452.388 472.969 449.803C469.872 438.848 460.732 436.749 452.44 431.104L452.051 430.834Z" fill="#8EECF5"/>
<path d="M521.967 424.399C530.737 422.867 536.596 423.094 545.505 423.848C545.954 428.093 546.022 431.482 545.883 435.777C545.269 432.985 545.417 429.092 545.404 426.119C537.614 425.343 529.819 425.213 521.967 424.399Z" fill="#C3BBA9"/>
<path d="M212.894 430.72C212.54 428.889 211.962 427.044 212.509 425.32C214.322 425.429 216.502 430.238 217.391 431.885C222.837 438.691 236.884 444.813 235.847 453.681C234.533 464.912 224.216 465.825 217.488 458.143L217.146 458.072C218.045 463.94 219.095 470.041 218.759 476.145C217.601 497.155 191.013 506.576 178.365 489.037C173.002 480.386 174.981 471.03 183.776 465.893C190.295 462.086 200.857 461.269 204.588 469.189C205.702 471.616 205.773 474.393 204.786 476.874C201.628 484.846 193.35 482.367 187.481 479.742C190.985 479.516 199.648 481.81 201.73 478.699C211.169 464.596 189.087 460.615 180.842 470.136C175.11 476.755 176.638 486.382 183.136 491.854C187.232 495.317 192.559 496.967 197.895 496.427C203.676 495.844 208.969 492.929 212.551 488.354C219.925 479.03 217.232 468.287 215.987 457.589C215.479 456.282 215.524 454.971 215.445 453.556C215.102 451.792 215.121 448.441 215.072 446.526C213.009 449.238 211.567 451.186 209.178 453.622L208.279 453.545L208.661 454.09C208.092 454.564 208.427 454.405 207.637 454.526C209.202 450.778 211.471 448.416 214.03 445.265C214.07 439.759 213.616 436.201 212.894 430.72ZM215.379 432.016L215.095 431.972C215.043 434.879 215.765 439.211 216.171 442.212C219.621 440.438 220.613 440.121 224.454 439.766C220.508 437.215 218.493 435.696 215.379 432.016ZM218.566 457.071C223.872 463.672 233.851 463.363 234.003 453.712C234.138 445.169 223.49 436.917 216.384 443.99C215.7 444.671 216.152 448.056 216.26 449.017L217.459 449.95C221.156 448.835 225.783 449.845 227.452 453.6C227.383 455.422 227.759 454.805 226.836 455.887C223.495 454.376 226.662 450.818 217.583 451.096C217.661 453.302 217.777 454.969 218.566 457.071Z" fill="#80EDB4"/>
<path d="M564.4 441.761C563.886 436.886 563.545 429.162 563.529 424.18C590.41 435.519 607.841 450.553 622.879 475.452C614.958 473.532 601.128 457.377 593.705 452.411C586.364 447.5 573.942 438.448 564.976 437.039C564.231 438.107 564.447 440.207 564.4 441.761Z" fill="#FFCFD2"/>
<path d="M403.984 558.78C397.563 534.894 399.748 508.047 409.229 485.248C418.924 461.935 432.329 446.244 452.05 430.836L452.439 431.106C460.731 436.751 469.871 438.85 472.968 449.805C473.699 452.39 475.075 460.419 475.914 462.386C458.666 470.832 444.399 481.674 438.214 500.507C430.706 523.37 432.71 547.264 443.167 568.686C444.976 572.319 446.917 575.885 448.987 579.376C444.118 581.689 411.963 560.588 403.984 558.78Z" fill="#98F5E1"/>
<path d="M215.094 431.973L215.378 432.017C218.492 435.697 220.507 437.216 224.453 439.767C220.612 440.122 219.62 440.439 216.17 442.213C215.764 439.212 215.042 434.88 215.094 431.973Z" fill="#98F5E1"/>
<path d="M564.4 441.757C564.447 440.203 564.231 438.103 564.976 437.035C573.942 438.444 586.364 447.496 593.705 452.407C601.128 457.373 614.958 473.528 622.879 475.448C638.581 502.921 640.054 531.211 632.897 561.768C632.035 565.451 628.817 574.387 626.859 577.433C623.95 578.772 620.367 582.955 617.323 585.125C605.427 593.61 594.03 601.662 579.148 603.784C576.782 604.122 573.665 604.665 571.379 604.236C600.763 580.34 612.348 546.587 603.81 509.296C598.063 484.197 584.679 468.857 564.988 453.367C564.522 449.576 564.5 445.589 564.4 441.757Z" fill="#F1C0E8"/>
<path d="M216.258 449.018C216.15 448.057 215.698 444.672 216.382 443.991C223.488 436.918 234.136 445.17 234.001 453.713C233.849 463.364 223.87 463.673 218.564 457.072C217.775 454.97 217.659 453.303 217.581 451.097C226.66 450.819 223.493 454.377 226.834 455.888C227.757 454.806 227.381 455.423 227.45 453.601C225.781 449.846 221.154 448.836 217.457 449.951L216.258 449.018Z" fill="#98F5E1"/>
<path d="M519.024 458.763L518.971 450.022C529.513 449.855 535.619 450.052 546.003 453.271C545.977 454.596 545.992 458.286 545.797 459.402C541.605 457.835 524.32 458.506 519.024 458.763Z" fill="#CFBAF0"/>
<path d="M519.023 458.763C524.319 458.506 541.604 457.835 545.796 459.402C544.117 477.666 535.27 482.019 519.175 485.655L519.023 458.763Z" fill="#D6F1ED"/>
<path d="M466.561 591.252C444.584 569.013 434.109 535.371 442.896 505.007C447.644 488.598 459.674 476.846 474.482 469.005C479.033 466.595 483.87 464.962 488.336 462.541L488.825 462.27C487.816 464.573 487.575 499.453 488.132 502.79C489.122 503.492 490.359 503.045 491.551 502.756C469.655 524.513 461.746 552.299 478.376 579.785C475.028 583.231 470.246 588.464 466.561 591.252Z" fill="#98F5E1"/>
<path d="M522.505 556.77C522.196 542.952 521.321 527.559 521.415 513.965C559.389 516.058 565.971 496.183 565.354 462.746C580.992 471.002 591.188 489.469 596.336 505.772C603.02 526.936 600.681 553.026 590.354 572.691C588.176 576.821 585.616 580.737 582.706 584.389C578.294 583.931 574.38 582.627 570.128 581.768C553.062 578.318 534.711 569.512 522.505 556.77Z" fill="#F1C0E8"/>
<path d="M833.816 513.328C828.166 517.766 815.814 506.95 814.226 500.796C810.752 487.341 817.194 479.819 829.345 476.097C836.223 475.368 842.873 476.296 847.914 481.502C850.541 484.183 851.912 487.849 851.687 491.596C851.07 501.181 840.786 506.88 833.816 513.328Z" fill="#FDE4CF"/>
<path d="M482.617 546.526C483.987 538.158 488.56 527.177 495.366 521.879C497.746 520.026 502.101 516.894 505.252 517.174C506.837 518.948 506.812 535.166 506.981 538.91C507.194 545.776 508.574 585.438 507.061 589.266C505.921 590.135 505.968 590.038 504.516 590.158C500.527 587.853 496.93 584.93 493.858 581.497C484.14 570.811 481.931 560.442 482.617 546.526ZM495.377 528.473C489.24 535.358 487.56 543.516 488.012 552.542C488.642 565.121 494.714 573.196 503.029 582.021C502.751 571.519 502.602 561.013 502.579 550.507C502.572 547.728 502.69 533.041 502.218 531.141L501.974 523.216C498.837 525.115 497.848 525.888 495.377 528.473Z" fill="#403537"/>
<path d="M831.729 517.74C833.082 517.085 851.104 520.474 853.983 520.777C852.351 523.667 848.815 525.237 845.931 527.156C834.13 535.009 821.219 541.285 807.617 545.312C806.285 545.706 805.862 545.473 804.568 544.745C811.665 537.296 818.706 529.855 826.353 522.968C828.215 521.291 830.037 519.59 831.729 517.74Z" fill="#FDE4CF"/>
<path d="M495.379 528.472C497.85 525.887 498.839 525.114 501.976 523.215L502.22 531.14C500.863 531.063 497.566 529.12 495.379 528.472Z" fill="#F1C0E8"/>
<path d="M503.03 582.021C494.715 573.196 488.643 565.121 488.013 552.542C487.561 543.516 489.241 535.358 495.378 528.473C497.565 529.121 500.862 531.064 502.219 531.141C502.691 533.041 502.573 547.728 502.58 550.507C502.603 561.013 502.752 571.519 503.03 582.021Z" fill="#CFBAF0"/>
<path d="M506.982 538.906C508.879 541.061 516.265 550.447 517.941 550.941C518.048 559.032 518.412 612.067 519.955 615.604C528.196 622.01 551.312 615.712 559.887 611.137C563.318 609.307 568.065 606.354 571.38 604.236C573.666 604.665 576.783 604.122 579.149 603.784C594.031 601.662 605.428 593.61 617.324 585.125C620.368 582.955 623.951 578.772 626.86 577.433C616.588 604.301 591.835 624.082 566.21 635.472C552.357 641.63 532.212 644.574 526.297 660.244C522.35 670.703 523.447 705.588 523.574 718.576C520.326 719.858 516.485 721.446 512.984 721.755L512.682 691.794C512.562 659.517 514.97 651.084 480.255 641.161C449.165 632.273 412.278 590.048 403.984 558.778C411.963 560.586 444.118 581.687 448.987 579.374C451.947 583.661 456.723 590.619 460.409 594.148C470.983 604.267 485.418 611.462 499.442 615.273C510.513 618.281 508.353 601.055 507.629 594.601L503.277 592.607L504.517 590.154C505.969 590.034 505.922 590.131 507.062 589.262C508.575 585.434 507.195 545.772 506.982 538.906Z" fill="#A3C4F3"/>
<path d="M503.277 592.609C496.222 589.265 490.038 584.333 485.209 578.199C477.108 567.813 474.065 554.079 475.703 541.117C476.417 541.969 476.346 541.885 477.282 542.519C480.285 544.553 478.999 546.34 482.618 546.524C481.932 560.44 484.141 570.809 493.859 581.495C496.931 584.928 500.528 587.851 504.517 590.156L503.277 592.609Z" fill="#8EECF5"/>
<path d="M246.309 589.099C250.452 586.466 256.109 579.996 260.399 576.738C267.296 571.498 274.666 567.111 282.281 563.035C310.917 547.709 341.849 541.538 374.08 546.641C381.074 547.749 389.92 550.701 396.834 552.89C402.085 587.547 435.835 627.479 467.011 642.392C472.724 645.124 498.838 653.015 500.447 657.233L500.38 657.893C429.585 686.377 295.928 695.491 254.358 613.526C250.5 605.92 248.28 597.375 246.309 589.099Z" fill="#A3C4F3"/>
<path d="M773.391 553.482C775.465 551.903 796.021 546.41 799.447 546.545C797.187 548.898 794.467 551.931 791.921 553.839C785.188 553.885 780.142 554.101 773.391 553.482Z" fill="#FFEDE1"/>
<path d="M637.629 569.834C643.765 565.379 656.386 552.286 661.487 547.004L662.119 548.372C657.1 554.765 649.82 561.626 643.652 566.832L638.543 571.086L637.629 569.834Z" fill="#433A53"/>
<path d="M763.625 554.56C766.889 554.283 770.145 553.924 773.391 553.484C780.142 554.103 785.188 553.887 791.921 553.841L791.926 554.307C761.451 585.823 727.856 611.901 689.583 632.944C685.027 635.449 674.062 642.574 669.845 643.718C669.311 641.448 665.189 632.361 664.055 629.757C666.175 625.166 668.088 617.461 670.438 612.342C675.337 601.666 683.517 587.543 690.522 578.247L690.68 577.854C709.145 567.34 731.206 562.223 751.777 557.456C755.658 556.557 759.87 555.815 763.625 554.56Z" fill="#B9FBC0"/>
<path d="M702.073 565.912C720.757 559.561 743.831 554.394 763.624 554.558C759.869 555.813 755.657 556.555 751.776 557.454C731.205 562.221 709.144 567.338 690.679 577.852C689.287 574.746 695.173 572.596 695.884 568.758C697.059 567.819 700.52 566.55 702.073 565.912Z" fill="#C5B96B"/>
<path d="M669.844 643.72C674.061 642.576 685.026 635.451 689.582 632.946C727.855 611.903 761.45 585.825 791.925 554.309C792.691 554.868 793.352 555.331 794.078 555.935C764.212 585.458 735.249 610.08 698.358 630.629C689.135 635.766 680.565 641.099 670.907 645.785L670.288 647.075L670.048 646.825L669.492 643.906L669.844 643.72Z" fill="#5994DA"/>
<path d="M794.078 555.932L794.955 554.988C804.265 556.217 813.69 557.385 822.865 559.019C873.138 567.974 923.655 602.614 914.689 660.425C907.668 705.692 872.232 745.407 836.76 772.536C811.05 791.547 769.791 809.176 737.982 813.264C727.211 814.648 713.003 813.843 702.132 812.27C676.208 808.519 660.499 798.225 639.945 783.84L639.993 783.568C642.612 778.574 644.678 769.675 646.09 763.967C655.285 726.784 659.313 689.567 661.068 651.407C663.378 650.082 667.665 647.386 670.048 646.822L670.288 647.072C678.999 665.72 689.026 684.125 698.09 702.591C703.698 714.016 717.06 733.558 714.64 745.998C713.703 750.802 710.864 755.022 706.769 757.701C703.01 760.188 698.575 761.218 694.14 760.242C690.081 759.371 686.534 756.924 684.279 753.439C679.853 746.493 680.299 736.105 688.212 731.97C691.024 730.477 694.319 730.18 697.352 731.146C704.001 733.333 707.163 741.921 700.735 744.852C699.006 744.641 698.48 743.916 697.136 742.754L696.611 742.293L696.131 742.946C696.145 744.715 695.84 743.98 697.04 745.237C707.609 749.287 707.629 733.743 699.247 729.724C692.283 726.384 685.157 731.057 681.969 737.145C679.789 741.257 679.442 746.097 681.013 750.478C684.537 760.179 695.261 765.252 704.915 760.8C709.832 758.522 713.616 754.35 715.405 749.235C719.75 736.889 708.744 719.909 703.165 708.854L682.054 667.52C678.307 660.247 674.318 653.228 670.907 645.782C680.565 641.096 689.135 635.763 698.358 630.626C735.249 610.077 764.212 585.455 794.078 555.932ZM726.126 648.279C725.036 652.851 724.403 657.156 719.928 659.54C713.349 663.046 706.083 665.016 703.625 673.095C702.767 675.915 703.682 680.935 705.292 683.579C705.496 683.911 705.707 684.238 705.926 684.56C708.314 685.149 711.543 684.93 713.869 684.123C728.3 679.117 729.178 661.524 726.793 648.923L726.126 648.279Z" fill="#B9FBC0"/>
<path d="M522.506 556.77C534.712 569.512 553.063 578.318 570.129 581.768C574.381 582.627 578.295 583.93 582.707 584.388C567.176 603.452 548.508 613.064 523.757 611.968C523.227 593.572 522.81 575.172 522.506 556.77Z" fill="#CFBAF0"/>
<path d="M638.543 571.082L643.652 566.828C649.003 575.475 645.861 576.92 647.225 586.049C647.739 589.485 652.15 597.355 653.62 600.937C654.01 601.888 655.414 606.038 655.7 606.62C657.48 626.792 650.897 637.014 638.613 653.394C634.582 658.769 627.253 662.067 625.514 665.858C620.465 669.116 616.396 672.075 611.576 675.658L607.314 678.186C598.125 682.566 589.88 687.722 581.044 692.189C564.778 700.412 546.556 709.223 529.496 715.617L529.661 687.415C529.832 659.287 529.525 655.065 558.351 645.29C582.788 637.003 609.137 618.929 623.374 597.133C626.477 592.314 629.282 587.309 631.771 582.146C633.568 578.457 635.23 573.366 638.543 571.082Z" fill="#A3C4F3"/>
<path d="M667.072 589.883C674.614 580.571 684.944 573.492 695.883 568.762C695.172 572.6 689.286 574.75 690.678 577.856L690.52 578.249C684.556 578.373 673.555 588.15 667.072 589.883Z" fill="#93B079"/>
<path d="M667.073 589.88C673.556 588.147 684.557 578.37 690.521 578.246C683.516 587.542 675.336 601.665 670.437 612.341C668.087 617.46 666.174 625.165 664.054 629.756L663.572 629.984C663.926 632.016 664.583 633.521 665.303 635.431C663.623 638.66 660.801 645.372 659.644 648.825C658.148 649.666 656.182 651.007 654.611 651.254L654.309 649.515C650.855 655.164 632.34 662.502 625.514 665.859C627.253 662.068 634.582 658.77 638.613 653.395C650.897 637.015 657.48 626.793 655.7 606.621C658.223 600.799 662.641 594.383 667.073 589.88Z" fill="#80EDB4"/>
<path d="M478.378 579.785C484.381 588.507 492.832 595.257 502.666 599.182L502.555 609.756C487.802 606.064 478.214 601.386 466.562 591.252C470.247 588.464 475.03 583.231 478.378 579.785Z" fill="#A3C4F3"/>
<path d="M92.7249 615.282C91.2325 615.453 89.7207 615.319 88.2818 614.888C74.5086 610.89 76.5514 592.595 89.6228 586.571C107.594 584.49 108.047 608.15 92.7249 615.282ZM92.5347 610.975C86.933 612.842 85.3385 610.555 82.2304 605.92C82.1972 603.338 82.3844 600.789 81.5184 598.408L80.961 598.236C78.3134 607.237 86.2728 617.814 95.1854 612.422C99.717 608.255 102.584 603.694 102.28 597.291C101.885 588.978 90.8056 584.079 85.4759 591.197C82.3306 595.398 82.8584 600.461 83.6765 605.287L83.919 605.653C86.6443 609.686 88.3432 609.863 93.0187 610.744L92.5347 610.975Z" fill="#9AF18A"/>
<path d="M92.5338 610.975L93.0178 610.744C88.3423 609.863 86.6434 609.686 83.9181 605.653L83.6756 605.287C82.8575 600.461 82.3297 595.398 85.475 591.197C90.8047 584.079 101.884 588.978 102.279 597.291C102.583 603.694 99.7161 608.255 95.1845 612.422L92.5338 610.975Z" fill="#FDE4CF"/>
<path d="M244.87 590.586C265.83 685.392 386.693 689.239 462.292 670.722C475.186 667.564 489.275 663.998 501.385 658.532C503.023 659.112 503.696 660.211 504.448 661.79C508.274 669.821 506.27 712.317 506.622 724.131C502.07 725.494 497.577 727.049 493.043 728.469C440.748 744.841 384.549 756.031 329.604 752.327L328.859 752.768C326.294 751.81 323.212 751.707 320.434 751.437C299.481 748.128 270.974 741.971 254.021 728.755C254.3 721.993 253.142 716.12 252.128 709.458C251.465 704.495 248.859 689.112 245.95 685.698L244.965 685.611L244.29 686.543C248.046 698.324 249.068 700.568 250.725 713.423C251.77 720.265 252.631 731.853 251.58 738.706C251.487 735.233 251.641 731.153 251.684 727.632C222.733 709.907 208.382 680.176 214.336 646.391C217.252 629.848 224.175 618.07 232.917 604.029C236.665 599.685 240.187 593.697 244.87 590.586Z" fill="#A3C4F3"/>
<path d="M82.229 605.918C85.3371 610.553 86.9316 612.84 92.5333 610.973L95.184 612.42C86.2714 617.812 78.312 607.235 80.9596 598.234L81.517 598.406C82.383 600.787 82.1958 603.336 82.229 605.918Z" fill="#FBF8CC"/>
<path d="M665.303 635.433C664.583 633.523 663.926 632.018 663.572 629.986L664.054 629.758C665.188 632.362 669.31 641.449 669.844 643.719L669.492 643.905L669.108 644.032C667.882 641.75 666.372 637.941 665.303 635.433Z" fill="#519E90"/>
<path d="M659.645 648.828C660.802 645.375 663.624 638.663 665.304 635.434C666.373 637.942 667.883 641.751 669.109 644.033C666.637 645.664 662.438 647.505 659.645 648.828Z" fill="#B9FBC0"/>
<path d="M669.108 644.029L669.492 643.902L670.048 646.821C667.665 647.385 663.378 650.081 661.068 651.406C658.632 652.529 656.215 653.439 654.193 655.158L653.726 656.539L652.294 656.113C641.843 659.036 622.589 672.101 611.576 675.658C616.396 672.075 620.465 669.116 625.514 665.858C632.34 662.501 650.855 655.163 654.309 649.514L654.611 651.253C656.182 651.006 658.148 649.665 659.644 648.824C662.437 647.501 666.636 645.66 669.108 644.029Z" fill="#4A95B6"/>
<path d="M670.287 647.071L670.906 645.781C674.317 653.227 678.306 660.246 682.053 667.519L703.164 708.853C708.743 719.908 719.749 736.888 715.404 749.234C713.615 754.349 709.831 758.521 704.914 760.799C695.26 765.251 684.536 760.178 681.012 750.477C679.441 746.096 679.788 741.256 681.968 737.144C685.156 731.056 692.282 726.383 699.246 729.723C707.628 733.742 707.608 749.286 697.039 745.236C695.839 743.979 696.144 744.714 696.13 742.945L696.61 742.292L697.135 742.753C698.479 743.915 699.005 744.64 700.734 744.851C707.162 741.92 704 733.332 697.351 731.145C694.318 730.179 691.023 730.476 688.211 731.969C680.298 736.104 679.852 746.492 684.278 753.438C686.533 756.923 690.08 759.37 694.139 760.241C698.574 761.217 703.009 760.187 706.768 757.7C710.863 755.021 713.702 750.801 714.639 745.997C717.059 733.557 703.697 714.015 698.089 702.59C689.025 684.124 678.998 665.719 670.287 647.071Z" fill="#4C6B70"/>
<path d="M705.927 684.562C705.708 684.24 705.497 683.913 705.293 683.581C703.683 680.937 702.768 675.917 703.626 673.097C706.084 665.018 713.35 663.048 719.929 659.542C724.404 657.158 725.037 652.853 726.127 648.281L726.794 648.925C729.179 661.526 728.301 679.119 713.87 684.125C711.544 684.932 708.315 685.151 705.927 684.562ZM725.881 653.426C721.384 662.937 715.792 660.814 708.587 667.071C703.556 671.441 703.61 678.151 706.376 683.879C719.061 684.39 725.763 675.517 726.594 663.529C726.731 661.558 726.569 655.068 725.881 653.426Z" fill="#93B079"/>
<path d="M653.727 656.539L654.194 655.158C656.216 653.439 658.633 652.529 661.069 651.406C659.314 689.566 655.286 726.783 646.091 763.966C644.679 769.674 642.613 778.573 639.994 783.567C636.871 781.539 631.195 776.168 628.297 773.526C631.354 761.297 635.361 748.941 638.525 736.572C645.312 710.25 650.39 683.516 653.727 656.539Z" fill="#80EDB4"/>
<path d="M706.375 683.879C703.609 678.151 703.555 671.441 708.586 667.071C715.791 660.814 721.383 662.937 725.88 653.426C726.568 655.068 726.73 661.558 726.593 663.529C725.762 675.517 719.06 684.39 706.375 683.879Z" fill="#B9FBC0"/>
<path d="M611.576 675.658C622.589 672.101 641.843 659.036 652.294 656.113C648.86 681.836 643.876 707.328 637.368 732.45C633.931 745.566 629.607 758.422 626.093 771.456C614.431 757.686 606.433 749.818 601.267 731.023C596.42 713.393 597.93 694.195 607.314 678.186L611.576 675.658Z" fill="#80EDB4"/>
<path d="M652.295 656.113L653.727 656.539C650.39 683.516 645.312 710.25 638.525 736.572C635.361 748.941 631.354 761.297 628.297 773.526C622.834 791.561 618.383 805.175 615.413 823.854C615.049 826.494 614.516 829.71 614.337 832.321C611.399 822.038 623.128 790.406 625.594 779.584C626.228 776.805 627.074 775.593 627.449 773.17L626.77 772.375C625.888 774.783 625.338 777.124 624.645 779.58C620.683 793.6 615.804 807.397 614.013 821.926C613.658 824.806 613.416 828.809 612.679 831.442C611.101 818.759 622.146 784.76 626.094 771.456C629.608 758.422 633.932 745.566 637.369 732.45C643.877 707.328 648.861 681.836 652.295 656.113Z" fill="#4A95B6"/>
<path d="M144.753 717.072C137.773 717.574 131.064 714.284 127.185 708.46C123.307 702.636 122.86 695.177 126.014 688.931C129.168 682.685 135.437 678.617 142.426 678.281C153.055 677.77 162.119 685.904 162.756 696.527C163.393 707.15 155.367 716.309 144.753 717.072ZM142.766 680.379C133.313 680.742 125.916 688.651 126.184 698.107C126.453 707.563 134.287 715.038 143.745 714.864C153.338 714.687 160.943 706.717 160.67 697.127C160.398 687.537 152.353 680.011 142.766 680.379Z" fill="#90DBF4"/>
<path d="M529.496 715.619C546.556 709.225 564.778 700.413 581.044 692.19C589.88 687.723 598.125 682.568 607.314 678.188C597.93 694.197 596.42 713.395 601.267 731.025C606.433 749.82 614.431 757.688 626.093 771.458C622.145 784.762 611.1 818.76 612.678 831.443L612.187 831.65L611.652 830.844C612.19 830.753 577.032 861.856 571.707 862.5C571.599 862.513 557.041 869.651 556.753 869.885C553.623 853.915 542.933 843.522 527.429 839.586C527.381 798.861 529.008 756.539 529.496 715.619Z" fill="#8EECF5"/>
<path d="M143.746 714.861C134.288 715.035 126.454 707.56 126.185 698.104C125.917 688.648 133.314 680.739 142.767 680.376C152.354 680.008 160.399 687.534 160.671 697.124C160.944 706.714 153.339 714.684 143.746 714.861Z" fill="#FFEDE1"/>
<path d="M250.724 713.425C249.067 700.57 248.045 698.326 244.289 686.545L244.964 685.613L245.949 685.7C248.858 689.114 251.464 704.497 252.127 709.46C250.959 711.187 250.986 711.3 250.724 713.425Z" fill="#54B0EC"/>
<path d="M252.129 709.461C253.143 716.123 254.301 721.996 254.022 728.758C253.981 734.761 254.095 739.557 253.263 745.503C252.04 751.031 250.938 756.147 247.676 760.909L246.014 760.317C249.404 753.554 249.909 750.888 251.205 743.408L251.581 738.709C252.632 731.856 251.771 720.268 250.726 713.426C250.988 711.301 250.961 711.188 252.129 709.461Z" fill="#90DBF4"/>
<path d="M512.984 721.757C516.485 721.448 520.326 719.86 523.574 718.578L524.014 798.148L523.952 824.876C523.936 828.637 523.702 835.077 524.02 838.666C522.639 839.67 516.52 839.281 514.431 839.267C515.175 831.183 514.345 809.215 514.243 800.362C514.032 774.158 513.613 747.955 512.984 721.757Z" fill="#8EECF5"/>
<path d="M329.604 752.329C384.549 756.033 440.748 744.843 493.043 728.471C497.577 727.051 502.07 725.496 506.622 724.133C507.224 739.298 506.826 755.014 507.079 770.265L508.82 840.551C487.034 846.038 473.394 864.015 478.846 886.613C473.816 886.199 466.913 884.389 461.906 883.06C428.278 874.137 397.667 853.859 369.357 834.272C360.422 828.09 352.188 820.766 342.958 814.547C343.825 798.162 339.159 778.946 334.103 763.559C333.112 760.545 331.479 754.557 329.604 752.329Z" fill="#8EECF5"/>
<path d="M254.021 728.758C270.974 741.974 299.481 748.131 320.434 751.44C322.161 770.441 320.658 770.567 311.125 785.958C305.816 783.796 297.986 776.688 293.021 773.515C279.716 765.012 266.825 753.387 253.262 745.503C254.094 739.557 253.98 734.761 254.021 728.758Z" fill="#FDE4CF"/>
<path d="M242.047 765.807L246.012 760.316L247.674 760.908C238.245 776.272 214.125 783.68 202.238 766C192.92 752.142 210.709 730.079 226.96 735.687C241.194 740.599 246.267 751.615 242.047 765.807ZM219.668 737.085C195.358 742.582 195.187 775.99 225.125 773.528C236.02 771.692 243.519 764.943 241.122 753.064C240.033 747.794 236.873 743.181 232.351 740.262C228.367 737.684 224.33 736.881 219.668 737.085Z" fill="#90DBF4"/>
<path d="M225.126 773.528C195.188 775.99 195.359 742.582 219.669 737.085C224.331 736.881 228.368 737.684 232.352 740.262C236.874 743.181 240.034 747.794 241.123 753.064C243.52 764.943 236.021 771.692 225.126 773.528Z" fill="#FFEDE1"/>
<path d="M320.434 751.438C323.212 751.708 326.294 751.81 328.859 752.768C330.853 760.483 333.598 768.248 335.853 775.958C339.497 788.416 340.743 799.123 341.086 812.042C330.769 803.696 321.095 793.946 311.125 785.956C320.658 770.565 322.161 770.438 320.434 751.438Z" fill="#8EECF5"/>
<path d="M328.86 752.769L329.605 752.328C331.48 754.556 333.113 760.544 334.104 763.558C339.16 778.945 343.826 798.161 342.959 814.546C342.497 818.9 342.136 823.426 341.285 827.712C336.989 849.359 322.666 865.825 300.393 868.887L299.838 867.41C329.016 863.262 340.26 838.948 341.087 812.042C340.744 799.123 339.498 788.416 335.854 775.958C333.599 768.248 330.854 760.484 328.86 752.769Z" fill="#90DBF4"/>
<path d="M612.679 831.446C613.416 828.813 613.658 824.81 614.013 821.93C615.804 807.401 620.683 793.604 624.645 779.584C625.338 777.128 625.888 774.787 626.77 772.379L627.449 773.174C627.074 775.597 626.228 776.809 625.594 779.588C623.128 790.41 611.399 822.042 614.337 832.325C615.827 846.875 615.224 859.141 627.213 869.812C645.542 886.125 680.752 872.334 677.72 846.587C675.654 829.039 650.543 815.185 639.02 834.012C634.618 841.206 636.032 848.454 642.468 853.746L639.885 854.841C633.16 848.682 633.013 837.18 638.651 830.389C642.326 826.013 647.619 823.316 653.32 822.916C666.857 821.989 680.18 835.739 680.17 848.689C680.155 867.112 664.378 878.956 647.088 878.826C619.356 878.616 611.724 855.088 612.188 831.652L612.679 831.446Z" fill="#5994DA"/>
<path d="M628.296 773.527C631.194 776.169 636.87 781.54 639.993 783.568L639.945 783.84C638.506 785.394 635.267 794.265 634.091 796.908C631.527 802.669 620.161 820.622 615.412 823.855C618.382 805.176 622.833 791.562 628.296 773.527Z" fill="#8EECF5"/>
<path d="M300.392 868.886C282.665 870.311 265.447 862.637 260.566 844.375C258.124 835.465 259.411 825.945 264.129 818.001C268.281 810.955 275.086 805.868 283.019 803.88C303.422 798.721 323.912 817.613 311.207 837.654C306.343 845.328 293.923 849.619 285.956 843.508C283.192 841.404 281.391 838.276 280.957 834.83C280.178 828.631 283.643 821.864 290.232 820.233C297.196 818.51 302.628 828.401 298.425 832.689C296.685 831.159 298.259 822.44 293.694 821.924C288.679 821.356 283.917 825.219 283.051 830.074C281.378 836.378 286.669 844.619 293.638 844.601C311.46 844.555 319.807 824.896 307.413 812.072C302.695 807.17 296.149 804.452 289.346 804.569C281.774 804.715 274.85 808.325 269.66 813.691C263.924 819.642 260.804 827.639 260.993 835.902C261.12 844.101 264.539 851.904 270.481 857.554C279.058 865.687 288.44 867.806 299.837 867.409L300.392 868.886Z" fill="#5994DA"/>
<path d="M642.468 853.744L643.083 853.959C646.823 855.232 648.696 855.178 652.45 853.355C654.871 852.167 656.709 850.051 657.548 847.488C660.915 837.365 649.086 837.909 647.048 835.214L647.376 834.635C650.048 833.991 652.012 834.391 654.412 835.8C669.903 844.9 652.123 863.333 639.885 854.839L642.468 853.744Z" fill="#54B0EC"/>
<path d="M514.43 839.265C516.519 839.279 522.638 839.668 524.019 838.664L523.599 841.947C520.893 841.674 517.064 840.938 514.823 842.445L514.26 843.325L513.766 842.502C513.72 840.871 513.551 840.637 514.43 839.265Z" fill="#66504C"/>
<path d="M514.26 843.327L514.823 842.447C517.064 840.94 520.893 841.676 523.599 841.949C523.476 846.98 522.508 858.683 524.484 862.525L525.343 863.134C530.048 861.984 528.205 856.223 527.925 852.367C527.667 848.825 527.409 846.071 527.493 842.446C542.847 846.465 550.187 856.595 554.155 871.28C539.238 879.334 522.929 884.484 506.092 886.457C498.65 887.297 491.317 887.452 483.99 888.13C477.041 873.193 485.343 855.258 499.216 847.784C502.566 845.979 505.428 845.086 509.076 843.937C509.389 848.61 508.896 854.913 509.789 859.491C509.995 860.542 511.099 860.841 511.988 861.236C516.964 860.512 514.919 847.069 514.26 843.327Z" fill="#8EECF5"/>
<path d="M483.99 888.131C491.317 887.453 498.65 887.298 506.092 886.458C522.929 884.485 539.238 879.335 554.155 871.281C558.771 916.356 500.359 923.959 483.99 888.131ZM523.943 895.635C519.782 896.482 513.421 897.375 510.271 899.933L509.859 900.982C510.833 902.647 511.536 902.856 513.569 903.376C513.938 903.471 514.309 903.56 514.681 903.645C519.261 903.574 526.586 903.9 528.572 898.666C528.43 896.964 528.739 897.689 527.622 896.409C526.197 895.854 525.443 895.383 523.943 895.635Z" fill="#FFEDE1"/>
<path d="M514.681 903.642C514.309 903.557 513.938 903.468 513.569 903.373C511.536 902.853 510.833 902.644 509.859 900.979L510.271 899.93C513.421 897.372 519.782 896.479 523.943 895.632C525.443 895.38 526.197 895.851 527.622 896.406C528.739 897.686 528.43 896.961 528.572 898.663C526.586 903.897 519.261 903.571 514.681 903.642Z" fill="#403537"/>
</svg>
