<svg width="1024" height="1024" viewBox="0 0 1024 1024" fill="none" xmlns="http://www.w3.org/2000/svg">
<path d="M445.189 158.434C453.368 149.549 461.062 143.823 470.781 136.793C508.131 109.529 552.833 94.1592 599.051 92.6879C682.958 89.3463 765.932 129.785 806.567 204.116C821.514 231.458 829.772 256.512 830.913 287.881C832.142 320.034 825.93 352.036 812.762 381.394C806.749 375.703 781.487 352.625 775.306 349.724C790.3 317.51 805.595 262.367 787.062 229.493C779.734 216.448 767.429 206.931 752.96 203.118C736.406 198.687 719.52 201.377 704.79 209.891C695.513 201.419 691.451 199.111 680.912 192.431C682.379 189.812 683.452 186.581 683.386 183.557C683.334 181.155 682.406 179.228 680.687 177.574C663.112 160.672 559.087 156.906 530.923 156.623C502.281 156.336 473.797 157.324 445.189 158.434Z" fill="#FFCFD2"/>
<path d="M426.591 159.454C407.165 161.241 364.263 163.251 348.312 177.321C347.413 178.114 346.443 180.567 346.777 181.784C348.744 188.955 353.809 197.656 356.904 204.663C353.126 212.723 349.408 233.018 349.383 241.987C343.692 230.124 339.731 225.078 329.752 216.511C299.12 190.068 245.524 195.854 232.382 237.8C222.737 268.585 232.33 304.321 242.851 333.772C252.286 360.182 268.449 385.034 287.261 405.59C286.39 407.081 285.95 408.485 284.318 409.006C277.489 411.187 270.357 412.907 263.563 415.153C236.254 424.181 208.461 433.68 183.218 447.648C180.836 448.966 174.864 452.414 172.885 453.974L172.619 453.876C163.774 443.997 155.993 436.14 147.964 425.334C109.871 374.07 90.679 313.11 100.423 249.184C107.703 202.531 134.547 154.244 172.92 126.101C243.537 74.3071 353.753 84.8047 414.847 147.084C418.479 150.786 423.68 155.334 426.591 159.454Z" fill="#B9FBC0"/>
<path d="M426.591 159.454C431.279 159.491 440.149 158.691 445.189 158.435C473.797 157.325 502.281 156.337 530.923 156.624C559.087 156.907 663.112 160.673 680.687 177.575C682.406 179.229 683.334 181.156 683.386 183.558C683.452 186.582 682.379 189.813 680.912 192.432C678.036 197.203 675.453 200.437 671.146 204.088C673.518 213.392 675.121 234.247 675.703 244.236C684.058 229.11 689.84 219.905 704.79 209.892C719.52 201.378 736.406 198.688 752.96 203.119C767.429 206.932 779.734 216.449 787.062 229.494C805.595 262.368 790.3 317.511 775.306 349.725C762.713 376.735 747.672 396.945 724.981 416.484C719.307 421.37 713.439 425.674 707.644 430.36C690.657 442.461 672.692 452.846 655.38 464.512C645.981 470.846 636.644 476.444 628.616 484.8C621.41 492.302 613.152 506.503 620.51 516.472C621.964 518.509 623.789 519.656 626.138 520.106C627.299 520.606 631.223 519.276 631.031 517.888C629.964 510.195 627.958 503.975 639.009 505.115C646.702 505.908 648.723 515.226 647.649 521.397C642.302 537.758 627.168 541.32 612.64 534.248C602.484 525.833 601.449 517.537 601.879 505.157C591.623 517.684 580.867 528.68 566.741 536.415C561.839 539.1 560.003 538.998 560.834 544.691C559.516 558.987 553.435 567.221 540.088 572.536C545.028 582.212 547.072 585.161 553.901 593.614C554.376 597.306 554.28 598.267 553.866 601.923C550.995 603.074 548.749 603.893 545.803 604.827C537.574 632.007 542.255 667.814 550.841 694.572C553.097 701.605 557.288 710.141 560.803 716.659C566.689 727.574 574.002 739.708 586.065 744.388C592.829 747.012 600.546 748.262 601.106 757.045C601.383 760.584 601.598 761.46 600.457 764.944C610.763 765.305 613.058 764.908 619.362 773.538C619.93 778.528 620.038 781.533 619.205 786.559C618.782 789.107 618.275 790.274 618.383 792.827C618.205 818.483 618.256 844.141 618.536 869.796C620.535 871.108 621.942 872.065 623.246 874.121C627.271 880.467 634.602 884.144 638.062 890.615C639.361 893.638 640.449 894.894 639.614 897.887C643.109 898.525 643.857 898.834 645.917 901.782C648.558 905.561 655.235 914.218 654.304 918.805C653.772 921.424 652.003 925.158 649.57 926.534C645.681 928.733 597.009 927.365 588.889 927.318C584.323 926.815 575.193 926.971 570.373 926.947L535.686 926.896L431.721 927.122C421.94 926.734 411.109 927.345 401.282 927.089C396.722 926.97 391.166 927.407 387.01 926.503C381.325 925.266 383.062 920.266 382.948 916.304C382.363 915.429 381.866 914.684 381.455 914.068C382.498 911.024 389.213 899.516 391.897 897.905C398.462 893.964 396.677 894.096 399.512 886.265C401.927 879.598 406.516 874.681 412.386 870.613C412.155 851.561 412.153 832.507 412.379 813.455C412.411 803.243 412.033 792.52 412.966 782.424C413.672 774.784 420.928 769.734 428.086 768.809C425.579 752.772 426.198 752.721 440.305 745.534C480.562 725.024 493.448 669.861 488.364 628.204C487.372 620.08 485.796 612.692 484.221 605.001L479.109 603.183C478.54 599.781 477.948 596.383 477.333 592.99L479.17 589.095C481.898 583.866 485.607 578.41 488.554 572.929C472.246 565.123 467.73 558.656 467.115 540.373C453.966 534.277 443.067 525.419 432.81 515.318C428.669 510.593 424.652 505.666 421.308 500.336C423.257 507.5 423.51 510.855 422.678 518.289C421.205 524.251 419.225 528.509 414.424 532.668C404.938 538.4 393.987 538.908 384.659 532.627C377.073 524.411 375.278 513.107 385.47 505.528C388.877 502.995 392.709 502.923 395.034 506.914C397.736 511.548 392.023 514.779 394.311 518.751C401.951 522.247 407.95 517.212 408.148 509.287C408.44 500.657 403.716 494.657 398.972 488.366C384.347 468.969 368.05 461.611 347.417 450.736C326.718 439.827 302.862 423.444 287.261 405.59C268.449 385.034 252.286 360.182 242.851 333.772C232.33 304.321 222.737 268.585 232.382 237.8C245.524 195.854 299.12 190.068 329.752 216.511C339.731 225.078 343.692 230.124 349.383 241.987C349.408 233.018 353.126 212.723 356.904 204.663C353.809 197.656 348.744 188.955 346.777 181.784C346.443 180.567 347.413 178.114 348.312 177.321C364.263 163.251 407.165 161.241 426.591 159.454ZM442.831 160.914C439.336 161.048 435.638 161.126 432.175 161.46C420.04 161.899 407.331 163.453 395.27 164.753C386.686 165.678 350.953 172.061 349.613 180.195C350.675 183.353 352.826 183.501 355.802 184.649C358.561 179.946 362.586 178.544 367.957 177.383C388.295 172.988 412.201 169.798 432.887 168.608C434.725 168.567 435.02 168.504 436.841 168.131C506.501 163.446 590.708 163.166 660.571 176.561C663.537 177.129 666.974 178.982 669.476 180.702L671.486 185.134C674.444 184.309 678.129 183.984 679.522 181.03C678.023 172.64 643.129 167.696 634.89 166.548C588.51 160.322 541.706 157.814 494.926 159.048C477.967 159.327 459.765 159.735 442.831 160.914ZM495.799 167.843C483.473 167.892 471.151 168.233 458.842 168.865C452.187 169.251 441.73 170.431 435.431 170.465C423.819 170.802 366.85 176.366 359.139 183.623L358.73 184.809C363.737 191.495 424.902 195.253 436.201 195.697C461.104 197.511 486.352 197.527 511.304 197.64C514.502 197.655 517.753 197.657 520.949 197.537C549.429 197.534 578.654 196.359 607.068 194.488C615.024 193.964 666.345 189.675 669.174 184.692L668.737 183.444C652.777 168.331 522.475 167.562 495.799 167.843ZM437.363 198.28C431.893 197.698 426.302 197.877 420.855 197.349C396.088 194.948 372.67 194.702 349.621 184.268C352.757 191.034 356.107 196.518 358.805 203.526C380.172 207.668 413.594 212.382 435.669 212.549C474.565 214.675 513.529 215.287 552.473 214.385C573.429 213.487 656.114 211.55 670.078 202.024C675.827 198.102 679.664 191.294 681.087 184.622C653.023 197.34 571.437 199.542 538.421 199.834C504.727 200.549 471.019 200.031 437.363 198.28ZM433.618 214.976C411.558 213.907 379.54 210.615 358.308 205.792C346.993 244.757 347.876 300.352 356.021 339.895C357.38 346.49 359.331 357.452 361.571 363.683C362.306 368.619 365.942 379.467 367.497 384.631C377.237 416.97 390.268 446.492 407.955 475.237C417.379 490.555 422.899 499.844 434.832 513.868C450.736 530.1 471.989 543.558 495.231 544.96C513.008 547.322 538.342 546.148 555.01 539.48C589.863 525.539 612.033 489.376 628.571 457.355C631.723 451.252 635.205 442.516 638.094 436.078C640.51 429.979 643.142 424.124 645.386 417.916C670.017 349.805 680.734 277.923 669.222 205.887C658.876 209.133 639.918 211.142 628.612 212.225C564.417 218.372 497.973 217.818 433.618 214.976ZM368.852 397.905C356.369 361.85 347.3 319.117 347.493 280.906C340.287 280.086 331.395 279.327 326.438 273.225C324.205 270.474 323.194 266.93 323.64 263.415C324.319 257.703 327.694 254.685 332.476 252.17C322.821 213.297 274.436 208.68 253.856 240.856C242.433 258.714 248.826 289.3 253.624 308.555C263.073 345.217 284.292 382.909 313.675 407.357C323.953 416.283 336.124 424.878 348.152 431.301C365.229 440.421 378.858 446.618 394.393 458.228C393.308 455.578 392.004 452.988 390.774 450.4C382.594 433.177 374.863 416.009 368.852 397.905ZM306.474 404.326C280.254 379.258 262.918 349.802 252.909 314.982C248.459 299.504 246.271 287.578 245.344 271.401C243.628 241.469 261.043 217.977 292.268 217.359C315.057 216.908 330.717 232.54 335.609 254.215C323.026 257.585 321.952 268.986 333.266 275.399C337.363 277.721 342.799 278.144 347.501 278.555C347.506 273.253 348.943 248.651 347.98 245.769C334.822 206.391 277.291 186.595 246.541 218.519C233.201 232.369 230.661 249.596 231.015 267.98C233.121 318.261 258.172 373.984 293.837 409.019C309.842 424.915 329.292 437.983 349.057 448.731C361.412 455.342 374.373 460.707 385.026 470.252C395.917 480.009 419.495 501.659 407.816 518.133C404.754 522.453 395.446 524.289 391.279 520.207C388.989 515.021 397.686 508.633 389.262 506.537C376.822 509.817 378.08 535.776 399.261 534.599C427.813 533.012 423.139 502.849 411.39 486.097C405.649 477.913 401.444 468.26 393.659 461.382C380.061 449.883 361.855 441.953 346.622 433.526C332.095 425.473 318.611 415.666 306.474 404.326ZM679.008 432.672C663.329 441.561 639.082 455.921 625.842 468.597C621.474 474.529 617.853 481.749 614.096 488.032C611.763 492.354 605.65 498.455 604.73 503.276C602.385 515.559 607.066 531.874 620.775 534.934C631.213 537.264 644.329 530.997 645.849 519.658C646.31 516.263 645.307 512.831 643.09 510.218C640.65 507.316 636.783 506.046 633.37 508.06C630.1 511.938 634.991 516.991 631.611 521.417C624.417 525.936 616.137 518.126 615.639 510.677C614.188 488.945 632.588 477.355 647.893 466.43C664.607 454.5 683.881 444.818 700.096 432.701C700.472 432.464 700.848 432.227 701.224 431.99C750.779 398.369 779.005 353.383 790.541 294.594C794.754 272.108 795.88 246.205 782.534 226.458C765.524 201.374 728.103 196.235 703.711 213.439C692.075 221.645 679.429 236.896 676.434 251.428C675.92 253.922 676.169 258.62 676.159 261.265C676.287 267.212 675.73 273.266 679.622 278.263C691.5 293.511 710.569 266.269 701.934 256.809C697.024 254.422 693.753 259.779 689.088 260.845L688.337 260.286C688.083 258.333 688.239 256.538 688.634 254.592C696.785 214.366 746.904 201.563 770.505 236.758C782.285 254.325 780.445 277.766 776.75 297.586C774.809 307.999 770.938 318.634 767.607 328.681C751.256 377.785 721.137 404.942 679.008 432.672ZM670.981 434.358C686.078 426.229 694.248 419.607 707.18 409.458C740.599 383.231 758.455 353.448 770.316 313.01C776.793 290.909 781.674 263.073 770.594 241.728C765.766 232.426 755.344 222.797 745.112 220.219C716.921 213.116 695.936 231.193 690.444 257.487C692.281 256.045 696.213 253.351 698.781 253.638C716.434 255.613 699.664 290.261 685.581 284.851C680.658 282.96 679.445 281.97 676.209 277.528C672.979 335.385 662.62 384.111 640.115 438.003C637.541 444.571 631.715 456.647 628.525 462.989C643.277 450.276 655.154 444.847 670.981 434.358ZM499.505 547.961C486.519 546.241 482.202 545.331 469.492 541.166C469.41 571.416 493.819 572.693 516.942 572.572C536.885 572.485 554.417 569.385 558.321 546.262C558.575 544.756 558.486 543.458 557.497 542.24C555.955 541.766 550.245 543.701 548.143 544.337C532.345 549.114 515.905 548.721 499.505 547.961ZM513.691 575.086C505.886 575.124 498.924 575.056 491.185 573.421C488.455 579.578 483.689 585.923 480.485 592.128C495.285 595.729 505.401 595.6 520.372 595.475C530.067 595.395 539.319 594.009 548.78 592.068C543.974 585.404 541.105 580.483 537.454 573.135C530.86 574.853 520.703 575.011 513.691 575.086ZM520.038 597.788C505.573 598.034 494.748 597.58 480.443 594.934C480.556 597.042 480.625 599.327 480.845 601.41C494.828 604.532 505.711 604.647 519.869 604.218C528.827 603.943 540.281 603.502 548.981 600.977C551.647 600.203 552.352 596.633 550.558 594.827C547.219 594.723 540.997 595.954 537.385 596.406C531.409 597.153 526.055 597.491 520.038 597.788ZM459.963 771.437C448.48 771.142 435.579 771.386 424.027 771.542C422.455 772.634 421.021 773.423 420.003 775.029C421.172 776.005 455.334 775.414 459.634 775.269L588.574 771.286C592.469 771.129 610.999 771.116 612.907 770.138L612.759 769.443C606.218 765.086 582.653 769.614 573.395 770.356C555.589 771.785 541.369 771.138 523.75 770.807C508.827 770.484 493.898 770.521 478.977 770.919C472.937 771.063 465.893 770.888 459.963 771.437ZM500.223 788.92C471.718 789.093 443.213 789.09 414.708 788.913C414.857 815.83 414.136 843.704 414.843 870.444C422.763 870.487 431.114 870.405 438.994 870.712L439.032 807.861C439.012 805.282 438.108 795.255 438.573 793.725C440.17 793.111 439.358 793.161 441.096 793.722L441.908 794.812C438.931 813.021 440.955 851.018 441.039 870.844L448.934 871.308C455.345 871.429 461.758 871.431 468.169 871.314C493.41 870.612 519.629 870.838 544.914 870.539C552.634 870.447 574.999 869.9 581.185 870.735C581.118 870.766 590.566 863.608 591.35 863.042C590.832 840.449 591.179 817.907 590.794 795.325C590.597 795.109 590.399 794.892 590.202 794.676C587.472 794.713 584.393 798.284 582.376 800.241C582.306 809.506 583.206 860.579 581.473 865.65C581.21 863.984 581.234 862.597 580.118 861.43C575.324 861.009 568.361 861.24 563.367 861.268L535.716 861.423L450.324 861.62L449.646 861.413C448.552 859.926 448.949 850.432 448.94 847.901C448.779 832.111 448.824 816.32 449.076 800.532C464.425 800.507 482.036 799.419 497.808 799.12C525.371 798.991 553.415 799.228 580.918 798.738C583.555 796.224 587.298 791.856 589.856 789.057C560.423 788.335 529.697 788.766 500.223 788.92ZM493.651 801.344C479.368 801.471 465.289 802.169 451.027 802.646L450.93 859.47C457.184 859.463 463.8 859.568 470.022 859.431L580.505 859.219L580.382 801.064C562.074 800.921 543.765 800.896 525.456 800.989C517.043 801 501.647 800.605 493.651 801.344ZM426.778 882.911C420.059 882.84 413.34 882.843 406.621 882.92C404.969 882.93 403.255 883.604 402.217 884.916L402.438 885.589C405.23 886.648 450.337 886.454 456.801 886.444L631.023 885.425C629.277 883.565 628.637 883.056 626.567 881.546C616.533 881.485 605.732 882.029 595.471 882.058L494.028 882.366C480.383 882.494 466.737 882.547 453.091 882.525C445.027 882.53 434.677 882.297 426.778 882.911ZM456.448 888.49C438.438 888.447 418.779 888.025 400.853 888.503C400.03 891.059 399.172 893.591 398.512 896.193C416.343 896.783 435.212 896.474 453.184 896.617C514.819 897.387 576.734 896.788 638.347 898.456C636.698 893.54 636.255 891.303 632.673 887.465C625.604 887.073 616.552 887.497 609.351 887.638L567.866 888.393C530.728 888.759 493.587 888.792 456.448 888.49ZM447.738 898.575C431.04 898.511 411.505 897.78 395.151 898.213C392.501 900.319 382.937 911.652 385.077 914.548C390.408 915.51 402.831 915.16 408.662 915.142L447.86 915.108L506.985 915.478C514.633 915.519 529.139 916.024 536.374 915.468C556.764 915.883 577.157 916.092 597.551 916.095C608.76 916.14 621.939 916.485 633.023 916.111C639.329 915.858 645.483 915.988 651.952 915.655C648.822 910.715 645.301 904.732 641.822 900.175C640.1 900.056 637.767 900.094 635.99 900.067C614.705 900.048 593.314 899.205 572.012 899.305C567.688 899.325 563.146 899.054 558.847 899.418C548.788 898.669 531.767 899.103 521.092 899.052L447.738 898.575ZM411.726 917.137C407.838 917.12 387.964 916.618 385.954 917.711C385.084 918.661 384.601 919.385 384.596 920.731C384.592 921.96 385.095 923.079 386.01 923.897C388.316 925.959 441.005 924.842 448.443 924.877C489.697 924.254 531.379 925.066 572.673 924.782C592.879 924.642 614.687 926.057 634.765 925.387C644.153 925.735 648.394 927.611 652.182 918.085L628.063 918.435C555.926 918.294 483.825 916.724 411.726 917.137ZM487.143 605.317C495.684 648.003 494.445 685.551 469.563 723.407C466.12 728.645 461.149 733.347 456.414 737.688C453.507 740.353 448.417 744.003 445.196 746.601C445.08 746.694 445.355 748.13 445.358 748.141C445.898 749.947 448.862 751.501 450.559 751.983C453.601 752.848 457.045 753.544 460.166 754.208C462.745 748.193 465.311 742.075 468.195 736.256C472.061 728.457 477.005 720.634 480.526 712.743C490.216 691.024 495.131 667.209 493.973 643.41C493.768 639.198 493.281 632.531 493.73 628.435L494.53 628.343C497.958 632.787 496.423 663.43 495.502 669.628C493.594 682.479 489.72 697.581 484.608 709.615C481.987 715.785 478.498 722.167 475.799 728.307C479.461 724.799 481.782 722.526 485.034 718.609C500.313 696.942 500.71 665.111 500.937 639.261C500.972 635.208 499.141 621.85 499.582 619.315L500.317 619.268C506.662 628.84 501.867 677.315 499.475 690.043C497.71 699.44 490.513 719.545 482.796 725.152C468.324 735.666 470.433 739.844 462.358 754.571C469.415 755.783 476.488 756.9 483.575 757.923C489.082 742.771 496.167 724.516 500.143 709.131C506.43 684.803 506.289 656.581 506.413 631.519C506.354 625.184 504.332 613.047 503.24 606.986C497.249 606.569 492.962 605.942 487.143 605.317ZM539.273 605.694L531.541 606.528C529.044 622.635 530.281 632.744 531.419 648.777C533.047 671.712 534.611 694.556 541.004 716.8C542.231 721.185 544.091 725.658 546.317 729.593C547.4 731.507 550.892 734.439 551.186 736.422C533.086 739.138 528.144 639.224 526.951 625.8C526.664 622.569 528.541 610.282 529.107 606.488L518.804 606.965C518.058 634.149 519.198 661.613 518.458 688.38C518.053 702.13 517.501 715.876 516.802 729.615C516.271 739.46 515.37 750.66 515.531 760.437C525.998 760.447 536.831 759.797 547.328 759.416C520.959 723.292 522.074 663.657 521.989 620.522C521.988 620.217 522.275 619.851 522.449 619.598L523.295 619.846C524.61 624.33 524.484 635.16 524.576 640.171C525.565 661.019 524.953 682.573 528.828 703.15C532.207 721.09 538.353 744.893 550.046 758.985C557.983 758.377 563.984 757.782 571.902 756.175C544.767 728.408 534.077 678.616 534.923 640.5C534.968 638.517 535.003 636.228 535.261 634.271C537.976 644.402 537.138 654.968 538.459 665.295C543.311 703.262 549.931 725.837 574.057 755.628C580.198 754.172 585 753.597 589.508 748.888C585.121 746.835 580.011 744.551 576.267 741.305C566.285 732.649 559.362 720.386 553.754 708.221C540.833 680.195 536.988 645.97 540.699 615.424C541.088 612.229 543.551 608.685 542.199 605.617C540.697 605.401 540.771 605.414 539.273 605.694ZM505.351 606.999C508.656 626.063 509.64 640.629 508.293 660.11C507.085 677.593 506.784 695.082 501.994 712.212C497.645 727.02 491.37 743.895 485.721 758.329L493.458 759.374C500.096 759.813 506.737 760.197 513.38 760.525C513.236 749.751 513.843 738.906 514.376 728.149C515.837 698.705 516.468 669.357 515.949 639.881C515.757 628.965 516.608 617.893 516.518 606.991L505.351 606.999ZM442.012 747.517C429.213 752.972 427.603 754.731 430.844 768.933C454.948 770.037 478.871 768.529 502.882 768.49C536.343 768.435 563.535 769.439 596.887 765.321C600.258 763.275 599.882 751.384 592.996 749.646C590.451 750.569 588.484 753.122 586.486 754.223C585.379 754.832 580.27 756.33 579.015 756.619C545.353 764.39 508.127 764.47 474.101 758.895C464.963 757.398 455.718 756.72 447.063 752.876C443.179 751.152 443.617 748.982 442.012 747.517ZM606.698 772.776L421.472 777.17C418.954 777.242 416.272 777.545 415.92 780.625C417.857 781.307 424.701 780.962 427.125 780.93C446.813 780.758 612.486 780.471 617.32 777.861C617.534 775.948 617.462 775.979 616.967 774.211C614.306 771.348 610.455 772.511 606.698 772.776ZM612.801 780.728C581.561 781.291 547.443 782.737 516.297 782.802C502.261 782.832 419.219 781.785 414.886 783.828L414.227 784.876C416.641 787.831 419.383 787.193 422.887 787.112C451.542 787.637 480.833 786.841 509.519 786.805L613.839 787.208C615.091 787.201 615.072 787.233 616.239 786.743C618.178 784.787 618.369 783.112 616.552 780.963C614.916 780.413 614.487 780.561 612.801 780.728ZM590.908 789.153C591.35 790.722 591.711 791.015 592.755 792.199C593.557 798.469 593.68 864.965 592.512 867.009C589.142 866.862 588.052 868.241 585.508 870.294C593.205 870.044 600.632 870.498 608.306 870.208L616.663 870.11C616.672 843.016 615.626 816.102 616.225 789.021C608.67 789.023 598.229 788.711 590.908 789.153ZM595.543 872.249C578.805 872.611 562.13 872.429 545.403 872.592C514.044 873.023 482.682 873.214 451.32 873.162C438.63 873.104 426.282 872.55 413.455 872.581C411.815 873.686 410.081 874.802 408.531 876.019C417.36 875.993 426.678 875.813 435.469 876.004C494.155 877.858 553.202 875.307 611.915 874.795C614.951 874.768 617.879 874.548 620.94 874.641L621.187 874.235C616.933 870.552 602.078 872.114 595.543 872.249ZM605.627 876.775C562.589 877.509 519.545 877.941 476.5 878.069C463.76 878.072 451.021 877.948 438.284 877.699C429.401 877.526 420.54 877.559 411.659 877.449C409.302 877.42 405.953 878.117 405.258 880.706C408.344 881.849 418.154 881.238 421.901 881.133C472.736 880.641 523.572 880.411 574.41 880.442C591.289 880.396 608.601 879.785 625.346 879.948L620.713 876.247C615.731 876.414 610.592 876.518 605.627 876.775Z" fill="black"/>
<path d="M442.832 160.913C459.766 159.734 477.968 159.326 494.927 159.047C541.707 157.813 588.511 160.321 634.891 166.547C643.13 167.695 678.024 172.64 679.523 181.03C678.13 183.984 674.445 184.308 671.487 185.133L669.477 180.702C666.975 178.982 663.538 177.128 660.572 176.56C590.709 163.165 506.502 163.446 436.842 168.131C439.475 165.358 440.738 164.071 442.832 160.913Z" fill="url(#paint0_linear_2293_91270)"/>
<path d="M432.174 161.46C435.637 161.126 439.335 161.048 442.83 160.914C440.736 164.072 439.473 165.358 436.84 168.131C435.019 168.504 434.724 168.567 432.886 168.608C432.243 165.483 432.065 164.735 432.174 161.46Z" fill="#FFEDE1"/>
<path d="M355.802 184.65C352.826 183.502 350.675 183.354 349.613 180.196C350.953 172.062 386.686 165.679 395.27 164.754C407.331 163.454 420.04 161.9 432.175 161.461C432.066 164.736 432.244 165.484 432.887 168.609C412.201 169.799 388.295 172.989 367.957 177.384C362.586 178.545 358.561 179.947 355.802 184.65Z" fill="#B9FBC0"/>
<path d="M495.799 167.845C522.475 167.564 652.777 168.333 668.737 183.446L669.174 184.694C666.345 189.677 615.024 193.966 607.068 194.49C578.654 196.361 549.429 197.536 520.949 197.539C520.713 196.182 520.843 196.603 520.267 195.394C512.611 190.054 505.929 183.136 499.461 176.416C496.434 173.271 495.567 171.987 495.799 167.845Z" fill="#FDE4CF"/>
<path d="M435.432 170.466C441.731 170.432 452.188 169.252 458.843 168.866C471.152 168.234 483.474 167.893 495.8 167.844C495.568 171.986 496.435 173.27 499.462 176.415C505.93 183.135 512.612 190.053 520.268 195.393C520.844 196.602 520.714 196.181 520.95 197.538C517.754 197.658 514.503 197.656 511.305 197.641C486.353 197.528 461.105 197.512 436.202 195.698C435.741 187.77 435.767 178.628 435.432 170.466Z" fill="#F1C0E8"/>
<path d="M436.201 195.697C424.902 195.253 363.737 191.495 358.73 184.809L359.139 183.623C366.85 176.366 423.819 170.802 435.431 170.465C435.766 178.627 435.74 187.769 436.201 195.697Z" fill="#B9FBC0"/>
<path d="M437.363 198.282C436.015 199.671 435.93 209.746 435.669 212.551C413.594 212.384 380.172 207.67 358.805 203.528C356.107 196.52 352.757 191.036 349.621 184.27C372.67 194.704 396.088 194.95 420.855 197.351C426.302 197.879 431.893 197.7 437.363 198.282Z" fill="#B9FBC0"/>
<path d="M538.422 199.833C571.438 199.541 653.024 197.339 681.088 184.621C679.665 191.293 675.828 198.101 670.079 202.023C656.115 211.549 573.43 213.486 552.474 214.384C551.107 207.92 540.768 208.258 538.422 199.833Z" fill="#FDE4CF"/>
<path d="M680.912 192.434C691.451 199.114 695.513 201.422 704.79 209.894C689.84 219.907 684.058 229.112 675.703 244.238C675.121 234.249 673.518 213.394 671.146 204.09C675.453 200.439 678.036 197.205 680.912 192.434Z" fill="#FDE4CF"/>
<path d="M435.67 212.55C435.931 209.745 436.016 199.67 437.364 198.281C471.02 200.032 504.728 200.55 538.422 199.835C540.768 208.26 551.107 207.922 552.474 214.386C513.53 215.288 474.566 214.676 435.67 212.55Z" fill="#F1C0E8"/>
<path d="M335.609 254.214C330.717 232.539 315.057 216.907 292.268 217.358C261.043 217.976 243.628 241.468 245.344 271.4C246.271 287.577 248.459 299.503 252.909 314.981C262.918 349.801 280.254 379.257 306.474 404.325C304.593 406.1 297.752 407.4 293.837 409.018C258.172 373.983 233.121 318.26 231.015 267.979C230.661 249.595 233.201 232.368 246.541 218.518C277.291 186.594 334.822 206.39 347.98 245.768C348.943 248.65 347.506 273.252 347.501 278.554C342.799 278.143 337.363 277.72 333.266 275.398C321.952 268.985 323.026 257.584 335.609 254.214Z" fill="#B9FBC0"/>
<path d="M679.008 432.673C721.137 404.943 751.256 377.786 767.607 328.682C770.938 318.635 774.809 308 776.75 297.587C780.445 277.767 782.285 254.326 770.505 236.759C746.904 201.564 696.785 214.367 688.634 254.593C688.239 256.539 688.083 258.334 688.337 260.287L689.088 260.846C693.753 259.78 697.024 254.423 701.934 256.81C710.569 266.27 691.5 293.512 679.622 278.264C675.73 273.267 676.287 267.213 676.159 261.266C676.169 258.621 675.92 253.923 676.434 251.429C679.429 236.897 692.075 221.646 703.711 213.44C728.103 196.236 765.524 201.375 782.534 226.459C795.88 246.206 794.754 272.109 790.541 294.595C779.005 353.384 750.779 398.37 701.224 431.991C700.848 432.228 700.472 432.465 700.096 432.702C694.981 430.436 684.336 435.333 679.008 432.673Z" fill="#FDE4CF"/>
<path d="M358.308 205.793C379.54 210.616 411.558 213.908 433.618 214.977C433.603 217.272 433.696 220.913 433.439 223.077C431.479 229.057 430.303 235.745 428.425 241.951C423.575 257.975 417.703 271.027 416.898 288.078C414.414 278.862 426 247.641 425.639 247.144C423.129 249.499 421.283 252.984 417.23 256.858C407.848 256.969 397.422 255.72 390.325 248.818C384.72 243.367 383.246 241.692 374.628 240.977C373.52 242.723 372.39 245.947 371.146 246.789C368.47 246.571 365.64 246.018 363.254 246.988C361.664 248.664 360.9 250.319 359.233 250.42L357.798 249.743C358.064 249.598 354.374 251.921 355.84 251.673C350.677 252.548 355.356 258.871 351.565 261.716C347.956 280.648 353.819 324.642 357.715 344.355C358.57 348.681 362.057 360.191 361.571 363.684C359.331 357.453 357.38 346.491 356.021 339.896C347.876 300.353 346.993 244.758 358.308 205.793Z" fill="#8BF0C2"/>
<path d="M433.618 214.976C497.973 217.818 564.417 218.372 628.612 212.225C639.918 211.142 658.876 209.133 669.222 205.887C680.734 277.923 670.017 349.805 645.386 417.916C643.142 424.124 640.51 429.979 638.094 436.078C625.271 431.636 599.239 411.749 588.68 402.656C577.903 393.376 567.025 381.788 555.694 372.209C559.282 368.078 563.904 361.258 567.681 356.539C570.661 381.685 582.585 372.451 593.175 358.249C601.834 346.636 607.25 338.037 611.265 324.01C614.924 325.852 620.502 326.185 624.936 327.198C622.94 335.587 606.677 369.097 620.066 371.858C628.25 370.159 651.423 337.028 650.478 331.384C649.531 330.893 649.436 330.483 648.675 331.665C644.858 337.595 625.395 372.306 618.781 368.346C615.455 361.717 625.322 339.842 627.327 332.414C630.862 319.318 617.112 326.401 613.052 320.936C612.543 315.796 616.663 308.806 613.471 304.521C605.297 299.983 601.101 316.175 608.441 323.141C604.456 338.337 595.605 351.962 585.277 363.796C571.825 379.21 569.855 359.421 572.73 348.672C583.957 340.914 593.463 333.027 598.972 319.673C599.624 318.282 600.049 314.657 598.858 313.432C587.215 301.459 574.263 329.047 571.694 337.113C570.475 340.941 568.916 349.35 568.117 350.415C563.358 356.76 556.218 368.289 550.359 372.779L549.152 372.381C540.788 364.144 561.402 322.745 559.835 316.663C553.973 312.719 534.135 340.28 530.546 345.229C531.865 338.946 535.451 325.995 535.647 320.216C534.978 318.939 535.458 319.397 534.171 318.78C530.677 320.382 527.403 340.962 526.383 345.565C523.268 343.951 520.528 336.583 514.382 332.909C515.507 329.548 518.896 321.184 517.949 318.198C513.908 315.484 502.391 327.19 499.688 330.139C497.578 328.001 495.747 325.636 493.856 323.302C492.103 319.263 486.51 314.036 483.322 310.947C485.785 308.097 486.693 303.361 483.161 300.942C482.15 300.239 480.879 300.026 479.694 300.359C477.577 300.95 476.898 302.432 476.048 304.229C473.472 301.737 473.777 301.677 470.404 301.88C471.881 297.745 473.893 295.187 470.254 292.125C467.174 288.91 464.757 284.442 462.132 280.844C449.169 263.076 442.827 242.503 433.439 223.076C433.696 220.912 433.603 217.271 433.618 214.976Z" fill="#FDE4CF"/>
<path d="M670.981 434.357C662.127 433.441 647.895 438.445 640.115 438.002C662.62 384.11 672.979 335.384 676.209 277.527C679.445 281.969 680.658 282.959 685.581 284.85C699.664 290.26 716.434 255.612 698.781 253.637C696.213 253.35 692.281 256.044 690.444 257.486C695.936 231.192 716.921 213.115 745.112 220.218C755.344 222.796 765.766 232.425 770.594 241.727C781.674 263.072 776.793 290.908 770.316 313.009C758.455 353.447 740.599 383.23 707.18 409.457C694.248 419.606 686.078 426.228 670.981 434.357Z" fill="#FDE4CF"/>
<path d="M347.492 280.906C347.299 319.117 356.368 361.85 368.851 397.905C364.508 402.561 358.361 401.111 352.086 401.815C340.422 403.124 327.076 402.497 315.623 405.181C314.862 405.36 314.074 406.731 313.674 407.357C284.291 382.909 263.072 345.217 253.623 308.555C248.825 289.3 242.432 258.714 253.855 240.856C274.435 208.68 322.82 213.297 332.475 252.17C327.693 254.685 324.318 257.703 323.639 263.415C323.193 266.93 324.204 270.474 326.437 273.225C331.394 279.327 340.286 280.086 347.492 280.906Z" fill="#B9FBC0"/>
<path d="M433.439 223.078C442.827 242.505 449.169 263.078 462.132 280.846C464.757 284.444 467.174 288.912 470.254 292.127C466.235 301.507 463.196 315.982 459.245 324.784C453.67 337.203 432.372 383.261 422.02 388.856C419.195 388.631 419.178 383.204 418.925 380.786C417.294 365.188 419.349 349.497 423.138 334.356C424.514 328.697 433.357 297.263 431.324 293.254L430.355 292.462C429.511 292.649 428.976 292.749 428.669 293.727C425.04 305.277 423.742 318.504 419.933 330.055C417.23 326.436 417.106 294.639 416.898 288.079C417.703 271.028 423.575 257.976 428.425 241.952C430.303 235.746 431.479 229.058 433.439 223.078Z" fill="#8EECF5"/>
<path d="M417.231 256.858C421.284 252.984 423.13 249.499 425.64 247.144C426.001 247.641 414.415 278.862 416.899 288.078C417.107 294.638 417.231 326.435 419.934 330.054C417.815 337.379 397.46 388.496 390.192 385.836C388.017 381.982 388.622 373.432 388.702 368.964C388.976 353.521 393.321 338.293 396.644 323.764C398.414 316.029 413.12 280.903 412.943 279.425C410.553 277.558 405.274 280.926 402.907 282.267C389.965 289.686 378.786 299.826 370.144 311.986C367.695 315.467 361.532 323.643 361.591 327.378C362.529 328.691 361.923 328.323 363.394 328.636C365.773 327.433 366.387 325.05 367.551 322.88C371.972 314.637 379.146 305.872 385.579 299.26C392.629 292.013 399.779 287.906 408.631 283.486C396.747 309.173 387.718 337.199 385.518 365.542C385.067 371.358 384.049 386.435 389.99 389.718C398.434 390.667 413.777 353.404 417.022 346.514C416.201 351.216 409.506 403.345 425.694 390.958C430.627 418.997 435.245 439.017 447.251 465.634C452.141 476.473 458.06 487.081 462.81 497.485C457.562 501.886 450.867 503.65 448.686 505.916C443.691 506.007 438.532 510.568 434.833 513.869C422.9 499.845 417.38 490.556 407.956 475.238C390.269 446.493 377.238 416.971 367.498 384.632C365.943 379.468 362.307 368.62 361.572 363.684C362.058 360.191 358.571 348.681 357.716 344.355C353.82 324.642 347.957 280.648 351.566 261.716C355.357 258.871 350.678 252.548 355.841 251.673C354.375 251.921 358.065 249.598 357.799 249.743L359.234 250.42C360.901 250.319 361.665 248.664 363.255 246.988C365.641 246.018 368.471 246.571 371.147 246.789C372.391 245.947 373.521 242.723 374.629 240.977C383.247 241.692 384.721 243.367 390.326 248.818C397.423 255.72 407.849 256.969 417.231 256.858Z" fill="#98F5E1"/>
<path d="M470.254 292.127C473.893 295.189 471.881 297.747 470.404 301.882C462.024 328.612 443.469 369.584 425.693 390.959C409.505 403.346 416.2 351.217 417.021 346.515C413.776 353.405 398.433 390.668 389.989 389.719C384.048 386.436 385.066 371.359 385.517 365.543C387.717 337.2 396.746 309.174 408.63 283.487C399.778 287.907 392.628 292.014 385.578 299.261C379.145 305.873 371.971 314.638 367.55 322.881C366.386 325.051 365.772 327.434 363.393 328.637C361.922 328.324 362.528 328.692 361.59 327.379C361.531 323.644 367.694 315.468 370.143 311.987C378.785 299.827 389.964 289.687 402.906 282.268C405.273 280.927 410.552 277.559 412.942 279.426C413.119 280.904 398.413 316.03 396.643 323.765C393.32 338.294 388.975 353.522 388.701 368.965C388.621 373.433 388.016 381.983 390.191 385.837C397.459 388.497 417.814 337.38 419.933 330.055C423.742 318.504 425.04 305.277 428.669 293.727C428.976 292.749 429.511 292.649 430.355 292.462L431.324 293.254C433.357 297.263 424.514 328.697 423.138 334.356C419.349 349.497 417.294 365.188 418.925 380.786C419.178 383.204 419.195 388.631 422.02 388.856C432.372 383.261 453.67 337.203 459.245 324.784C463.196 315.982 466.235 301.507 470.254 292.127Z" fill="black"/>
<path d="M476.049 304.231C476.899 302.434 477.578 300.952 479.695 300.361C480.88 300.028 482.151 300.241 483.162 300.944C486.694 303.363 485.786 308.099 483.323 310.949C478.18 309.873 477.884 308.98 476.049 304.231Z" fill="black"/>
<path d="M470.404 301.882C473.777 301.679 473.472 301.739 476.048 304.231C477.883 308.98 478.179 309.873 483.322 310.949C486.51 314.038 492.103 319.265 493.856 323.304L493.555 324.787C492.553 325.336 491.022 326.139 490.504 327.16C487.508 333.068 485.29 341.263 482.8 347.116C480.824 351.762 467.442 373.05 463.638 373.849C457.342 367.908 475.581 330.861 477.737 322.465C477.518 322.203 477.3 321.941 477.081 321.678C475.262 321.3 476.07 321.15 474.551 321.984C470.421 329.194 453.02 370.754 461.61 376.547C468.561 378.123 475.063 364.375 479.36 359.449C477.737 364.028 473.789 373.833 475.232 378.356L476.147 378.827C477.654 378.199 478.165 377.19 478.797 375.454C484.903 358.686 490.487 344.496 503.031 330.965C504.972 332.223 507.671 334.259 508.971 336.164C506.232 344.15 496.292 372.253 502.766 378.202C509.288 379.616 518.828 363.411 523.042 358.398C521.479 362.984 518.675 371.15 519.307 375.962L519.973 375.994C523.803 371.389 527.824 357.101 531.325 350.576C535.088 353.246 536.704 356.591 538.838 360.58C535.746 371.244 530.435 380.542 526.301 390.756C514.374 420.226 500.72 449.362 482.241 475.352C476.695 483.153 469.468 490.591 462.809 497.486C458.059 487.082 452.14 476.474 447.25 465.635C435.244 439.018 430.626 418.998 425.693 390.959C443.469 369.584 462.024 328.612 470.404 301.882Z" fill="#8EECF5"/>
<path d="M479.359 359.446C475.062 364.372 468.56 378.12 461.609 376.544C453.019 370.751 470.42 329.191 474.55 321.981C476.069 321.147 475.261 321.297 477.08 321.675C477.299 321.938 477.517 322.2 477.736 322.462C475.58 330.858 457.341 367.905 463.637 373.846C467.441 373.047 480.823 351.759 482.799 347.113C485.289 341.26 487.507 333.065 490.503 327.157C491.021 326.136 492.552 325.333 493.554 324.784C493.655 330.241 488.765 342.026 487.18 348.513C491.399 341.379 494.356 336.67 499.687 330.138C502.39 327.189 513.907 315.483 517.948 318.197C518.895 321.183 515.506 329.547 514.381 332.908C511.983 339.388 500.908 369.576 504.895 374.167C508.145 374.198 512.236 368.031 514.005 365.333C518.408 358.617 524.75 353.55 526.382 345.564C527.402 340.961 530.676 320.381 534.17 318.779C535.457 319.396 534.977 318.938 535.646 320.215C535.45 325.994 531.864 338.945 530.545 345.228C534.134 340.279 553.972 312.718 559.834 316.662C561.401 322.744 540.787 364.143 549.151 372.38L550.358 372.778C556.217 368.288 563.357 356.759 568.116 350.414C568.915 349.349 570.474 340.94 571.693 337.112C574.262 329.046 587.214 301.458 598.857 313.431C600.048 314.656 599.623 318.281 598.971 319.672C593.462 333.026 583.956 340.913 572.729 348.671C569.854 359.42 571.824 379.209 585.276 363.795C595.604 351.961 604.455 338.336 608.44 323.14C601.1 316.174 605.296 299.982 613.47 304.52C616.662 308.805 612.542 315.795 613.051 320.935C617.111 326.4 630.861 319.317 627.326 332.413C625.321 339.841 615.454 361.716 618.78 368.345C625.394 372.305 644.857 337.594 648.674 331.664C649.435 330.482 649.53 330.892 650.477 331.383C651.422 337.027 628.249 370.158 620.065 371.857C606.676 369.096 622.939 335.586 624.935 327.197C620.501 326.184 614.923 325.851 611.264 324.009C607.249 338.036 601.833 346.635 593.174 358.248C582.584 372.45 570.66 381.684 567.68 356.538C563.903 361.257 559.281 368.077 555.693 372.208C553.649 374.328 552.44 376.174 549.243 376.081C535.644 370.209 552.898 330.674 556.601 320.25C546.632 327.932 538.249 340.215 531.324 350.573C527.823 357.098 523.802 371.386 519.972 375.991L519.306 375.959C518.674 371.147 521.478 362.981 523.041 358.395C518.827 363.408 509.287 379.613 502.765 378.199C496.291 372.25 506.231 344.147 508.97 336.161C510.576 331.635 512.102 327.082 513.546 322.502C510.151 324.685 505.87 328.099 503.03 330.962C490.486 344.493 484.902 358.683 478.796 375.451C478.164 377.187 477.653 378.196 476.146 378.824L475.231 378.353C473.788 373.83 477.736 364.025 479.359 359.446ZM609.789 306.596C608.232 309.371 606.037 317.039 609.648 318.923C610.491 315.878 613.339 308.093 609.789 306.596ZM591.694 313.516C585.527 317.168 582.435 321.752 579.29 328.106C577.532 331.658 573.873 339.194 574.298 343.129L574.859 343.483L576.548 342.449C582.64 337.844 598.038 323.389 595.899 314.972C594.291 313.184 594.254 313.275 591.694 313.516Z" fill="black"/>
<path d="M609.648 318.925C606.037 317.041 608.232 309.373 609.789 306.598C613.339 308.095 610.491 315.88 609.648 318.925Z" fill="#FFEDE1"/>
<path d="M576.55 342.449L574.861 343.483L574.3 343.129C573.875 339.194 577.534 331.658 579.292 328.106C582.437 321.752 585.529 317.168 591.696 313.516C594.256 313.275 594.293 313.184 595.901 314.972C598.04 323.389 582.642 337.844 576.55 342.449Z" fill="#FDE4CF"/>
<path d="M531.326 350.577C538.251 340.219 546.634 327.936 556.603 320.254C552.9 330.678 535.646 370.213 549.245 376.085C552.442 376.178 553.651 374.332 555.695 372.212C567.026 381.791 577.904 393.379 588.681 402.659C599.24 411.752 625.272 431.639 638.095 436.081C635.206 442.519 631.724 451.255 628.572 457.358C612.034 489.379 589.864 525.542 555.011 539.483C538.343 546.151 513.009 547.325 495.232 544.963C488.896 533.576 459.932 515.223 448.686 505.918C450.867 503.652 457.562 501.888 462.81 497.487C469.469 490.592 476.696 483.154 482.242 475.353C500.721 449.363 514.375 420.227 526.302 390.757C530.436 380.543 535.747 371.245 538.839 360.581C536.705 356.592 535.089 353.247 531.326 350.577Z" fill="#F1C0E8"/>
<path d="M503.031 330.964C505.871 328.101 510.152 324.687 513.547 322.504C512.103 327.084 510.577 331.637 508.971 336.163C507.671 334.258 504.972 332.222 503.031 330.964Z" fill="#FFCFD2"/>
<path d="M493.857 323.305C495.748 325.639 497.579 328.004 499.689 330.142C494.358 336.674 491.401 341.383 487.182 348.517C488.767 342.03 493.657 330.245 493.556 324.788L493.857 323.305Z" fill="#DBECEA"/>
<path d="M514.383 332.91C520.529 336.584 523.269 343.952 526.384 345.566C524.752 353.552 518.41 358.619 514.007 365.335C512.238 368.033 508.147 374.2 504.897 374.169C500.91 369.578 511.985 339.39 514.383 332.91Z" fill="#8EECF5"/>
<path d="M707.645 430.362C713.44 425.676 719.308 421.372 724.982 416.486C747.673 396.947 762.714 376.737 775.307 349.727C781.488 352.628 806.75 375.706 812.763 381.397C807.641 392.732 801.166 403.75 794.382 414.174C792.718 416.73 784.818 427.176 784.163 428.434C774.848 428.916 711.817 432.031 707.645 430.362Z" fill="#FDE4CF"/>
<path d="M368.853 397.906C374.864 416.01 382.595 433.178 390.775 450.401C392.005 452.989 393.309 455.579 394.394 458.229C378.859 446.619 365.23 440.422 348.153 431.302C336.125 424.879 323.954 416.284 313.676 407.358C314.076 406.732 314.864 405.361 315.625 405.182C327.078 402.498 340.424 403.125 352.088 401.816C358.363 401.112 364.51 402.562 368.853 397.906Z" fill="#8BF0C2"/>
<path d="M306.475 404.328C318.612 415.668 332.096 425.475 346.623 433.528C361.856 441.955 380.062 449.885 393.66 461.384C401.445 468.262 405.65 477.915 411.391 486.099C423.14 502.851 427.814 533.014 399.262 534.601C378.081 535.778 376.823 509.819 389.263 506.539C397.687 508.635 388.99 515.023 391.28 520.209C395.447 524.291 404.755 522.455 407.817 518.135C419.496 501.661 395.918 480.011 385.027 470.254C374.374 460.709 361.413 455.344 349.058 448.733C329.293 437.985 309.843 424.917 293.838 409.021C297.753 407.403 304.594 406.103 306.475 404.328Z" fill="#8BF0C2"/>
<path d="M287.261 405.59C302.862 423.444 326.718 439.827 347.417 450.736C368.05 461.611 384.347 468.969 398.972 488.366C403.716 494.657 408.44 500.657 408.148 509.287C407.95 517.212 401.951 522.247 394.311 518.751C392.023 514.779 397.736 511.548 395.034 506.914C392.709 502.923 388.877 502.995 385.47 505.528C375.278 513.107 377.073 524.411 384.659 532.627C381.188 533.976 375.239 533.695 371.356 533.663C316.233 533.21 262.238 517.982 215.753 488.18C200.338 478.297 185.008 467.518 172.885 453.974C174.864 452.414 180.836 448.966 183.218 447.648C208.461 433.68 236.254 424.181 263.563 415.153C270.357 412.907 277.489 411.187 284.318 409.006C285.95 408.485 286.39 407.081 287.261 405.59Z" fill="#8BF0C2"/>
<path d="M784.162 428.435C796.458 427.393 809.354 427.472 821.606 427.02C852.639 425.876 884.104 425.551 909.053 447.332C945.215 478.905 946.823 527.224 940.609 570.858C932.394 631.095 907.114 687.724 867.754 734.057C845.053 760.642 818.687 783.864 789.447 803.026C781.601 808.192 773.465 812.751 765.4 817.549C743.422 830.708 720.621 842.442 697.139 852.679C679.863 860.114 662.425 867.37 644.1 871.776C645.858 845.002 641.543 828.694 626.723 806.119C624.123 802.158 621.101 796.251 618.383 792.83C618.275 790.277 618.782 789.11 619.205 786.562C620.038 781.536 619.93 778.531 619.362 773.541C613.058 764.911 610.763 765.308 600.457 764.947C601.598 761.463 601.383 760.587 601.106 757.048C600.546 748.265 592.829 747.015 586.065 744.391C574.002 739.711 566.689 727.577 560.803 716.662C557.288 710.144 553.097 701.608 550.841 694.575C542.255 667.817 537.574 632.01 545.803 604.83C548.749 603.896 550.995 603.077 553.866 601.926C554.28 598.27 554.376 597.309 553.901 593.617C547.072 585.164 545.028 582.215 540.088 572.539C553.435 567.224 559.516 558.99 560.834 544.694C577.436 543.939 596.707 537.292 612.64 534.251C627.168 541.323 642.302 537.761 647.649 521.4C655.63 520.41 667.412 514.352 674.954 511.043C711.763 494.895 745.197 472.683 772.272 442.802C775.232 439.535 782.173 432.04 784.162 428.435Z" fill="#CFBAF0"/>
<path d="M707.645 430.362C711.817 432.031 774.848 428.916 784.163 428.434C782.174 432.039 775.233 439.534 772.273 442.801C745.198 472.682 711.764 494.894 674.955 511.042C667.413 514.351 655.631 520.409 647.65 521.399C648.724 515.228 646.703 505.91 639.01 505.117C627.959 503.977 629.965 510.197 631.032 517.89C631.224 519.278 627.3 520.608 626.139 520.108C623.79 519.658 621.965 518.511 620.511 516.474C613.153 506.505 621.411 492.304 628.617 484.802C636.645 476.446 645.982 470.848 655.381 464.514C672.693 452.848 690.658 442.463 707.645 430.362Z" fill="#F1C0E8"/>
<path d="M700.096 432.704C683.881 444.821 664.607 454.503 647.893 466.433C632.588 477.358 614.188 488.948 615.639 510.68C616.137 518.129 624.417 525.939 631.611 521.42C634.991 516.994 630.1 511.941 633.37 508.063C636.783 506.049 640.65 507.319 643.09 510.221C645.307 512.834 646.31 516.266 645.849 519.661C644.329 531 631.213 537.267 620.775 534.937C607.066 531.877 602.385 515.562 604.73 503.279C605.65 498.458 611.763 492.357 614.096 488.035C617.853 481.752 621.474 474.532 625.842 468.6C639.082 455.924 663.329 441.564 679.008 432.675C684.336 435.335 694.981 430.438 700.096 432.704Z" fill="#F1C0E8"/>
<path d="M640.115 438.003C647.895 438.446 662.127 433.442 670.981 434.358C655.154 444.847 643.277 450.276 628.525 462.989C631.715 456.647 637.541 444.571 640.115 438.003Z" fill="#F1C0E8"/>
<path d="M381.454 914.071C374.603 913.943 366.672 912.407 359.798 911.649C272.443 902.016 172.703 868.003 120.153 792.622C107.562 774.344 97.662 754.353 90.7551 733.261C79.4997 698.607 75.9857 653.288 76.2027 616.825C76.3343 594.721 84.0545 566.702 92.6106 546.353C105.29 515.652 125.799 488.812 152.09 468.512C158.35 463.609 166.012 458.475 172.618 453.879L172.884 453.977C185.007 467.521 200.337 478.3 215.752 488.183C262.237 517.985 316.232 533.213 371.355 533.666C375.238 533.698 381.187 533.979 384.658 532.63C393.986 538.911 404.937 538.403 414.423 532.671C420.824 532.414 430.902 532.645 436.393 530.449C438.115 533.983 441.454 541.126 443.39 544.115C451.535 556.689 467.489 580.717 479.169 589.098L477.332 592.993C477.947 596.386 478.539 599.784 479.108 603.186L484.22 605.004C485.795 612.695 487.371 620.083 488.363 628.207C493.447 669.864 480.561 725.027 440.304 745.537C426.197 752.724 425.578 752.775 428.085 768.812C420.927 769.737 413.671 774.787 412.965 782.427C412.032 792.523 412.41 803.246 412.378 813.458C412.152 832.51 412.154 851.564 412.385 870.616C406.515 874.684 401.926 879.601 399.511 886.268C396.676 894.099 398.461 893.967 391.896 897.908C389.212 899.519 382.497 911.027 381.454 914.071Z" fill="#98F5E1"/>
<path d="M432.811 515.318L430.44 515.976C427.78 516.997 425.498 518.093 422.679 518.289C423.511 510.855 423.258 507.5 421.309 500.336C424.653 505.666 428.67 510.593 432.811 515.318Z" fill="#98F5E1"/>
<path d="M612.639 534.247C596.706 537.288 577.435 543.935 560.833 544.69C560.002 538.997 561.838 539.099 566.74 536.414C580.866 528.679 591.622 517.683 601.878 505.156C601.448 517.536 602.483 525.832 612.639 534.247Z" fill="#F1C0E8"/>
<path d="M434.832 513.867C438.531 510.566 443.69 506.005 448.685 505.914C459.931 515.219 488.895 533.572 495.231 544.959C471.989 543.557 450.736 530.099 434.832 513.867Z" fill="url(#paint1_linear_2293_91270)"/>
<path d="M430.439 515.978L432.81 515.32C443.067 525.421 453.966 534.279 467.115 540.375C467.73 558.658 472.246 565.125 488.554 572.931C485.607 578.412 481.898 583.868 479.17 589.097C467.49 580.716 451.536 556.688 443.391 544.114C441.455 541.125 438.116 533.982 436.394 530.448C434.818 526.213 430.564 519.367 430.439 515.978Z" fill="#DBECEA"/>
<path d="M422.678 518.29C425.497 518.094 427.779 516.998 430.439 515.977C430.564 519.366 434.818 526.212 436.394 530.447C430.903 532.643 420.825 532.412 414.424 532.669C419.225 528.51 421.205 524.252 422.678 518.29Z" fill="#8BF0C2"/>
<path d="M469.492 541.168C482.202 545.333 486.519 546.243 499.505 547.963C505.635 555.353 513.968 563.812 516.942 572.574C493.819 572.695 469.41 571.418 469.492 541.168Z" fill="#8EECF5"/>
<path d="M499.506 547.963C515.906 548.723 532.346 549.116 548.144 544.339C550.246 543.703 555.956 541.768 557.498 542.242C558.487 543.46 558.576 544.758 558.322 546.264C554.418 569.387 536.886 572.487 516.943 572.574C513.969 563.812 505.636 555.353 499.506 547.963Z" fill="#F1C0E8"/>
<path d="M513.691 575.088C520.703 575.013 530.86 574.855 537.454 573.137C541.105 580.485 543.974 585.406 548.78 592.07C539.319 594.011 530.067 595.397 520.372 595.477C519.729 591.543 515.153 581.169 513.691 575.088Z" fill="#F1C0E8"/>
<path d="M491.184 573.422C498.923 575.057 505.885 575.125 513.69 575.087C515.152 581.168 519.728 591.542 520.371 595.476C505.4 595.601 495.284 595.73 480.484 592.129C483.688 585.924 488.454 579.579 491.184 573.422Z" fill="#8EECF5"/>
<path d="M520.039 597.788C526.056 597.491 531.41 597.152 537.386 596.405C540.998 595.953 547.22 594.723 550.559 594.827C552.353 596.633 551.648 600.203 548.982 600.977C540.282 603.502 528.828 603.943 519.87 604.218C519.679 601.379 519.64 600.586 520.039 597.788Z" fill="#F1C0E8"/>
<path d="M480.443 594.934C494.748 597.58 505.573 598.034 520.038 597.788C519.639 600.586 519.678 601.379 519.869 604.218C505.711 604.647 494.828 604.532 480.845 601.41C480.625 599.327 480.556 597.042 480.443 594.934Z" fill="#DBECEA"/>
<path d="M460.166 754.207C457.045 753.543 453.601 752.847 450.559 751.982C448.862 751.5 445.898 749.946 445.358 748.14C445.355 748.129 445.081 746.693 445.197 746.6C448.418 744.002 453.507 740.352 456.414 737.687C461.149 733.346 466.12 728.644 469.563 723.406C494.445 685.55 495.684 648.002 487.143 605.316C492.962 605.941 497.249 606.568 503.24 606.985C504.332 613.046 506.354 625.183 506.413 631.518C506.289 656.58 506.43 684.802 500.143 709.13C496.167 724.515 489.082 742.77 483.575 757.922C476.488 756.899 469.415 755.782 462.358 754.57C470.433 739.843 468.324 735.665 482.796 725.151C490.513 719.544 497.71 699.439 499.475 690.042C501.867 677.314 506.662 628.839 500.317 619.267L499.582 619.314C499.141 621.849 500.972 635.207 500.937 639.26C500.71 665.11 500.313 696.941 485.034 718.608C481.782 722.525 479.461 724.798 475.799 728.306C478.498 722.166 481.987 715.784 484.608 709.614C489.72 697.58 493.594 682.478 495.502 669.627C496.423 663.429 497.958 632.786 494.53 628.342L493.73 628.434C493.281 632.53 493.768 639.197 493.973 643.409C495.131 667.208 490.216 691.023 480.526 712.742C477.005 720.633 472.061 728.456 468.195 736.255C465.311 742.074 462.745 748.192 460.166 754.207Z" fill="#DBECEA"/>
<path d="M531.541 606.529L539.273 605.695C540.771 605.415 540.697 605.402 542.199 605.618C543.551 608.686 541.088 612.23 540.699 615.425C536.988 645.971 540.833 680.196 553.754 708.222C559.362 720.387 566.285 732.65 576.267 741.306C580.011 744.552 585.121 746.836 589.508 748.889C585 753.598 580.198 754.173 574.057 755.629C549.931 725.838 543.311 703.263 538.459 665.296C537.138 654.969 537.976 644.403 535.261 634.272C535.003 636.229 534.968 638.518 534.923 640.501C534.077 678.617 544.767 728.409 571.902 756.176C563.984 757.783 557.983 758.378 550.046 758.986C538.353 744.894 532.207 721.091 528.828 703.151C524.953 682.574 525.565 661.02 524.576 640.172C524.484 635.161 524.61 624.331 523.295 619.847L522.449 619.599C522.275 619.852 521.988 620.218 521.989 620.523C522.074 663.658 520.959 723.293 547.328 759.417C536.831 759.798 525.998 760.448 515.531 760.438C515.37 750.661 516.271 739.461 516.802 729.616C517.501 715.877 518.053 702.131 518.458 688.381C519.198 661.614 518.058 634.15 518.804 606.966L529.107 606.489C528.541 610.283 526.664 622.57 526.951 625.801C528.144 639.225 533.086 739.139 551.186 736.423C550.892 734.44 547.4 731.508 546.317 729.594C544.091 725.659 542.231 721.186 541.004 716.801C534.611 694.557 533.047 671.713 531.419 648.778C530.281 632.745 529.044 622.636 531.541 606.529Z" fill="#E6DDE4"/>
<path d="M485.721 758.33C491.37 743.896 497.645 727.021 501.994 712.213C506.784 695.083 507.085 677.594 508.293 660.111C509.64 640.63 508.656 626.064 505.351 607L516.518 606.992C516.608 617.894 515.757 628.966 515.949 639.882C516.468 669.358 515.837 698.706 514.376 728.15C513.843 738.907 513.236 749.752 513.38 760.526C506.737 760.198 500.096 759.814 493.458 759.375L485.721 758.33Z" fill="#FFEDE1"/>
<path d="M430.845 768.936C427.604 754.734 429.214 752.975 442.013 747.52C443.618 748.985 443.18 751.155 447.064 752.879C455.719 756.723 464.964 757.401 474.102 758.898C508.128 764.473 545.354 764.393 579.016 756.622C580.271 756.333 585.38 754.835 586.487 754.226C588.485 753.125 590.452 750.571 592.997 749.648C599.883 751.386 600.259 763.278 596.888 765.324C563.536 769.442 536.344 768.438 502.883 768.493C478.872 768.532 454.949 770.04 430.845 768.936Z" fill="#DBECEA"/>
<path d="M459.964 771.437C465.894 770.888 472.938 771.063 478.978 770.919C493.899 770.521 508.828 770.484 523.751 770.807C541.37 771.138 555.59 771.785 573.396 770.356C582.654 769.614 606.219 765.086 612.76 769.443L612.908 770.138C611 771.116 592.47 771.129 588.575 771.286L459.635 775.269L459.968 774.72C453.997 773.171 435.702 776.599 431.01 773.754L430.807 772.823C433.438 771.508 462.37 772.516 468.19 771.875C465.281 771.796 462.873 771.706 459.964 771.437Z" fill="#A3C4F3"/>
<path d="M424.028 771.544C435.58 771.388 448.481 771.144 459.964 771.439C462.873 771.708 465.281 771.798 468.19 771.877C462.37 772.518 433.438 771.51 430.807 772.825L431.01 773.756C435.702 776.601 453.997 773.173 459.968 774.722L459.635 775.271C455.335 775.416 421.173 776.007 420.004 775.031C421.022 773.425 422.456 772.636 424.028 771.544Z" fill="#E6DDE4"/>
<path d="M427.125 780.932C424.701 780.964 417.857 781.309 415.92 780.627C416.272 777.547 418.954 777.244 421.472 777.172L606.698 772.778C610.455 772.513 614.306 771.35 616.967 774.213C617.462 775.981 617.534 775.95 617.32 777.863C612.486 780.473 446.813 780.76 427.125 780.932Z" fill="#8EECF5"/>
<path d="M422.887 787.114C419.383 787.195 416.641 787.834 414.227 784.879L414.886 783.83C419.219 781.787 502.261 782.834 516.297 782.804C547.443 782.739 581.561 781.294 612.801 780.731C614.487 780.564 614.916 780.416 616.552 780.966C618.369 783.115 618.178 784.79 616.239 786.746C615.072 787.236 615.091 787.203 613.839 787.21L509.519 786.808C480.833 786.844 451.542 787.639 422.887 787.114Z" fill="#8EECF5"/>
<path d="M500.224 788.921C529.698 788.767 560.424 788.336 589.857 789.058C587.299 791.857 583.556 796.225 580.919 798.739C553.416 799.229 525.372 798.992 497.809 799.121C498.653 795.264 499.893 793.182 500.224 788.921Z" fill="#8EECF5"/>
<path d="M414.709 788.914C443.214 789.091 471.719 789.094 500.224 788.921C499.893 793.182 498.653 795.264 497.809 799.121C482.037 799.42 464.426 800.508 449.077 800.533C448.825 816.321 448.78 832.112 448.941 847.902C448.95 850.433 448.553 859.927 449.647 861.414L450.325 861.621L450.327 861.968C448.903 863.462 448.706 868.206 448.46 870.507L448.935 871.309L441.04 870.845C440.956 851.019 438.932 813.022 441.909 794.813L441.097 793.723C439.359 793.162 440.171 793.112 438.574 793.726C438.109 795.256 439.013 805.283 439.033 807.862L438.995 870.713C431.115 870.406 422.764 870.488 414.844 870.445C414.137 843.705 414.858 815.831 414.709 788.914Z" fill="#98F5E1"/>
<path d="M585.508 870.296C588.052 868.243 589.142 866.864 592.512 867.011C593.68 864.967 593.557 798.471 592.755 792.201C591.711 791.017 591.35 790.724 590.908 789.155C598.229 788.713 608.67 789.025 616.225 789.023C615.626 816.104 616.672 843.018 616.663 870.112L608.306 870.21C600.632 870.5 593.205 870.046 585.508 870.296Z" fill="#8EECF5"/>
<path d="M618.383 792.828C621.101 796.249 624.123 802.156 626.723 806.117C641.543 828.692 645.858 845 644.1 871.774C643.746 877.104 642.27 887.063 638.062 890.616C634.602 884.145 627.271 880.468 623.246 874.122C621.942 872.066 620.535 871.109 618.536 869.797C618.256 844.142 618.205 818.484 618.383 792.828Z" fill="#98F5E1"/>
<path d="M581.474 865.65C583.207 860.579 582.307 809.506 582.377 800.241C584.394 798.284 587.473 794.713 590.203 794.676C590.4 794.892 590.598 795.109 590.795 795.325C591.18 817.907 590.833 840.449 591.351 863.042C590.567 863.608 581.119 870.766 581.186 870.735C580.945 868.268 580.811 867.963 581.474 865.65Z" fill="#8EECF5"/>
<path d="M493.65 801.345C501.646 800.606 517.042 801.001 525.455 800.99C543.764 800.897 562.073 800.922 580.382 801.065L580.504 859.22L470.021 859.432C473.609 854.625 477.458 840.37 481.264 834.608L482.125 834.904C483.634 833.329 481.773 831.752 483.248 829.192L484.293 828.931C485.114 831.077 485.672 832.763 486.853 834.752C486.749 830.746 486.324 828.946 487.036 824.884L487.382 824.605C488.518 824.455 488.08 824.463 489.239 824.797C489.008 828.157 488.4 832.184 491.301 834.499C496.51 834.762 497.007 825.419 493.951 822.162L494.981 821.752C496.27 818.903 498.042 805.352 497.854 802.244C496.853 801.154 495.653 801.494 493.65 801.345ZM511.381 821.66C509.136 821.734 509.602 821.365 508.317 822.553C506.646 827.9 510.785 832.226 505.212 833.694L505.481 834.458C507.11 834.77 506.996 834.754 508.615 834.361C509.594 832.723 508.892 831.457 509.27 829.562L510.418 828.948C511.999 830.782 512.054 831.485 512.836 833.866C513.364 834.175 513.503 834.347 514.059 834.45L514.583 834.224C516.378 834.456 516.608 834.733 518.15 834.135C518.438 831.249 518.675 824.952 517.468 822.428L516.043 822.104C514.646 821.828 512.842 821.763 511.381 821.66ZM522.372 834.39L523.439 833.48C525.214 833.953 526.997 834.399 528.786 834.817C529.186 833.416 528.727 833.629 528.086 832.304C526.321 828.657 528.778 824.076 525.252 821.433C523.33 821.314 521.501 821.673 520.226 823.258L520.884 823.06C521.901 822.76 521.508 822.868 522.65 822.625C523.146 825.087 521.704 832.311 520.299 834.362L520.965 834.881C521.426 834.746 522.021 834.636 522.372 834.39ZM537.284 820.763C537.736 823.648 538.453 827.366 538.366 830.269C538.306 832.276 536.031 835.031 537.08 835.964C539.911 832.451 540.649 823.511 537.284 820.763ZM497.383 821.142C496.776 825.409 496.773 831.004 498.356 835.053C498.678 831.413 498.781 825.704 498.439 822.087L497.383 821.142ZM500.119 821.168C500.063 824.007 499.893 826.865 499.862 829.694C499.817 833.935 499.841 835.917 504.337 834.396C501.147 833.286 501.585 833.287 501.28 829.544C501.057 826.792 503.225 822.328 500.119 821.168ZM529.646 823.051C530.251 823.765 530.822 824.436 531.453 825.127C532.196 828.519 531.361 833.601 532.358 834.854L533.152 834.9C532.979 831.533 533.514 825.646 533.254 823.868C532.019 822.882 531.458 822.958 529.646 823.051Z" fill="#8EECF5"/>
<path d="M451.027 802.646C465.289 802.169 479.368 801.471 493.651 801.344C495.654 801.493 496.854 801.153 497.855 802.243C498.043 805.351 496.271 818.902 494.982 821.751L493.952 822.161C491.114 822.083 490.855 822.522 489.24 824.796C488.081 824.462 488.519 824.454 487.383 824.604L487.037 824.883C486.371 822.96 485.872 821.854 483.597 821.6C480.231 823.496 481.749 830.901 481.265 834.607C477.459 840.369 473.61 854.624 470.022 859.431C463.8 859.568 457.184 859.463 450.93 859.47L451.027 802.646Z" fill="#98F5E1"/>
<path d="M537.081 835.963C536.032 835.03 538.306 832.275 538.366 830.268C538.453 827.365 537.737 823.647 537.285 820.762C540.65 823.51 539.912 832.45 537.081 835.963Z" fill="#082A27"/>
<path d="M498.357 835.052C496.774 831.003 496.777 825.408 497.384 821.141L498.44 822.086C498.782 825.703 498.679 831.412 498.357 835.052Z" fill="#026D67"/>
<path d="M504.338 834.396C499.842 835.917 499.818 833.935 499.863 829.694C499.894 826.865 500.064 824.007 500.12 821.168C503.226 822.328 501.058 826.792 501.281 829.544C501.586 833.287 501.148 833.286 504.338 834.396Z" fill="black"/>
<path d="M509.271 829.562C508.893 831.457 509.595 832.723 508.616 834.361C506.997 834.754 507.111 834.77 505.482 834.458L505.213 833.694C510.786 832.226 506.647 827.9 508.318 822.553C509.603 821.365 509.137 821.734 511.382 821.66C510.164 829.306 512.866 829.006 514.06 834.45C513.504 834.347 513.365 834.175 512.837 833.866C512.055 831.485 512 830.782 510.419 828.948L510.278 828.002C509.939 825.57 510.715 825.025 509.854 822.879C508.643 824.931 509.028 827.227 509.271 829.562Z" fill="#082A27"/>
<path d="M523.44 833.478L523.894 832.343L525.386 832.484C526.599 830.498 525.834 826.227 525.506 823.889L525.003 823.188C523.38 825.463 522.78 831.488 522.373 834.388C522.022 834.634 521.427 834.744 520.966 834.879L520.3 834.36C521.705 832.309 523.147 825.085 522.651 822.623C521.509 822.866 521.902 822.758 520.885 823.058L520.227 823.256C521.502 821.671 523.331 821.312 525.253 821.431C528.779 824.074 526.322 828.655 528.087 832.302C528.728 833.627 529.187 833.414 528.787 834.815C526.998 834.397 525.215 833.951 523.44 833.478Z" fill="black"/>
<path d="M481.266 834.609C481.75 830.903 480.232 823.498 483.598 821.602C485.873 821.856 486.372 822.962 487.038 824.885C486.326 828.947 486.751 830.747 486.855 834.753C485.674 832.764 485.116 831.078 484.295 828.932L483.25 829.193C481.775 831.753 483.636 833.33 482.127 834.905L481.266 834.609ZM482.783 822.624C482.625 824.407 482.201 826.156 483.127 827.579C484.14 828.087 484.187 828.144 485.284 828.379C485.524 826.561 485.979 825.152 485.143 823.613C484.021 822.847 484.112 822.853 482.783 822.624Z" fill="#082A27"/>
<path d="M489.24 824.796C490.855 822.522 491.114 822.083 493.952 822.161C497.008 825.418 496.511 834.761 491.302 834.498C488.401 832.183 489.009 828.156 489.24 824.796ZM491.441 823.121C490.572 825.268 489.517 829.728 490.562 831.961C490.944 832.777 491.162 833.26 492.026 833.487C492.768 833.683 492.464 833.657 493.136 833.597C494.113 830.058 496.296 824.353 491.441 823.121Z" fill="black"/>
<path d="M511.383 821.66C512.844 821.763 514.647 821.828 516.044 822.104C515.613 825.095 519.291 830.31 514.585 834.224L514.061 834.45C512.867 829.006 510.165 829.306 511.383 821.66Z" fill="#8EECF5"/>
<path d="M516.043 822.105L517.469 822.429C518.676 824.953 518.438 831.25 518.15 834.136C516.608 834.734 516.379 834.457 514.584 834.225C519.29 830.311 515.612 825.096 516.043 822.105Z" fill="black"/>
<path d="M485.283 828.376C484.186 828.141 484.139 828.084 483.126 827.576C482.2 826.153 482.624 824.404 482.782 822.621C484.111 822.85 484.02 822.844 485.142 823.61C485.978 825.149 485.523 826.558 485.283 828.376Z" fill="#8EECF5"/>
<path d="M510.42 828.948L509.272 829.562C509.029 827.227 508.644 824.931 509.855 822.879C510.716 825.025 509.94 825.57 510.279 828.002L510.42 828.948Z" fill="#90DBF4"/>
<path d="M523.44 833.481L522.373 834.391C522.78 831.491 523.38 825.466 525.003 823.191L525.506 823.892C525.834 826.23 526.599 830.501 525.386 832.487L523.894 832.346L523.44 833.481Z" fill="#8EECF5"/>
<path d="M533.153 834.9L532.359 834.854C531.362 833.601 532.196 828.519 531.453 825.127C530.822 824.436 530.251 823.765 529.646 823.051C531.458 822.958 532.02 822.882 533.255 823.868C533.515 825.646 532.98 831.533 533.153 834.9Z" fill="black"/>
<path d="M493.136 833.597C492.464 833.657 492.768 833.683 492.026 833.487C491.162 833.26 490.944 832.777 490.562 831.961C489.517 829.728 490.572 825.268 491.441 823.121C496.296 824.353 494.113 830.058 493.136 833.597Z" fill="#8EECF5"/>
<path d="M450.324 861.62L535.716 861.423L563.367 861.268C568.361 861.24 575.324 861.009 580.118 861.43C581.234 862.597 581.21 863.984 581.473 865.65C580.81 867.963 580.944 868.268 581.185 870.735C574.999 869.9 552.634 870.447 544.914 870.539C519.629 870.838 493.41 870.612 468.169 871.314C468.978 868.909 469.082 864.541 469.224 861.923C462.924 861.984 456.625 861.998 450.326 861.967L450.324 861.62Z" fill="#90DBF4"/>
<path d="M448.934 871.311L448.459 870.509C448.705 868.208 448.902 863.464 450.326 861.97C456.625 862.001 462.924 861.987 469.224 861.926C469.082 864.544 468.978 868.912 468.169 871.317C461.758 871.434 455.345 871.432 448.934 871.311Z" fill="#FFEDE1"/>
<path d="M413.455 872.584C426.282 872.553 438.63 873.107 451.32 873.165C482.682 873.217 514.044 873.026 545.403 872.595C562.13 872.432 578.805 872.614 595.543 872.252C602.078 872.117 616.933 870.555 621.187 874.238L620.94 874.644C617.879 874.551 614.951 874.771 611.915 874.798C553.202 875.31 494.155 877.861 435.469 876.007C426.678 875.816 417.36 875.996 408.531 876.022C410.081 874.805 411.815 873.689 413.455 872.584Z" fill="url(#paint2_linear_2293_91270)"/>
<path d="M421.901 881.132C418.154 881.237 408.344 881.848 405.258 880.705C405.953 878.116 409.302 877.419 411.659 877.448C420.54 877.558 429.401 877.525 438.284 877.698C451.021 877.947 463.76 878.071 476.5 878.068C519.545 877.94 562.589 877.508 605.627 876.774C610.592 876.517 615.731 876.413 620.713 876.246L625.346 879.947C608.601 879.784 591.289 880.395 574.41 880.441C523.572 880.41 472.736 880.64 421.901 881.132Z" fill="url(#paint3_linear_2293_91270)"/>
<path d="M426.777 882.913C434.676 882.299 445.026 882.532 453.09 882.527C466.736 882.549 480.382 882.496 494.027 882.368L595.47 882.06C605.731 882.031 616.532 881.487 626.566 881.548C628.636 883.058 629.276 883.567 631.022 885.427L456.8 886.446C456.872 885.347 456.778 884.982 456.664 883.877C454.941 882.378 431.861 883.344 427.364 882.968L426.777 882.913Z" fill="#98F5E1"/>
<path d="M456.801 886.443C450.337 886.453 405.23 886.647 402.438 885.588L402.217 884.915C403.255 883.603 404.969 882.929 406.621 882.919C413.34 882.842 420.059 882.839 426.778 882.91L427.365 882.965C431.862 883.341 454.942 882.375 456.665 883.874C456.779 884.979 456.873 885.344 456.801 886.443Z" fill="#DBECEA"/>
<path d="M456.448 888.492C493.587 888.794 530.728 888.761 567.866 888.395L609.351 887.64C616.552 887.499 625.604 887.075 632.673 887.467C636.255 891.305 636.698 893.542 638.347 898.458C576.734 896.79 514.819 897.389 453.184 896.619C453.749 893.387 455.522 892.438 456.448 888.492Z" fill="#98F5E1"/>
<path d="M400.853 888.503C418.779 888.025 438.438 888.447 456.448 888.49C455.522 892.436 453.749 893.385 453.184 896.617C435.212 896.474 416.343 896.783 398.512 896.193C399.172 893.591 400.03 891.059 400.853 888.503Z" fill="#DBECEA"/>
<path d="M395.151 898.214C411.505 897.781 431.04 898.512 447.738 898.576L451.013 899.063L451.332 899.5C450.226 904.112 448.291 910.654 447.86 915.109L408.662 915.143C402.831 915.161 390.408 915.511 385.077 914.549C382.937 911.653 392.501 900.32 395.151 898.214Z" fill="#FFEDE1"/>
<path d="M447.738 898.574L521.092 899.051C531.767 899.102 548.788 898.668 558.847 899.417C553.988 901.551 510.479 899.598 501.187 899.52L452.393 899.496C445.39 919.929 457.183 913.791 469.46 914.512C476.838 914.944 533.146 913.622 536.374 915.467C529.139 916.023 514.633 915.518 506.985 915.477L447.86 915.107C448.291 910.652 450.226 904.109 451.332 899.497L451.013 899.061L447.738 898.574Z" fill="#CFBAF0"/>
<path d="M558.848 899.418C563.147 899.054 567.689 899.325 572.013 899.305C593.315 899.205 614.706 900.048 635.991 900.067C634.339 904.974 632.083 910.97 633.024 916.111C621.94 916.485 608.761 916.14 597.552 916.095C577.158 916.092 556.765 915.883 536.375 915.468C533.147 913.623 476.839 914.945 469.461 914.513C457.184 913.792 445.391 919.93 452.394 899.497L501.188 899.521C510.48 899.599 553.989 901.552 558.848 899.418Z" fill="#A3C4F3"/>
<path d="M635.99 900.066C637.767 900.093 640.1 900.055 641.822 900.174C645.301 904.731 648.822 910.714 651.952 915.654C645.483 915.987 639.329 915.857 633.023 916.11C632.082 910.969 634.338 904.973 635.99 900.066Z" fill="#FFEDE1"/>
<path d="M448.443 924.878C441.005 924.843 388.316 925.96 386.01 923.898C385.095 923.08 384.592 921.961 384.596 920.732C384.601 919.386 385.084 918.661 385.954 917.711C387.964 916.618 407.838 917.121 411.726 917.138C416.965 918.061 440.759 917.551 447.292 917.546C447.985 919.606 450.031 922.657 450.131 924.12C449.389 924.502 449.232 924.609 448.443 924.878Z" fill="#FFEDE1"/>
<path d="M411.727 917.139C483.826 916.726 555.927 918.296 628.064 918.437C626.369 920.86 624.617 922.592 622.588 924.71C626.032 925.029 632.219 924.913 634.766 925.389C614.688 926.059 592.88 924.644 572.674 924.784C531.38 925.068 489.698 924.256 448.444 924.879C449.233 924.61 449.39 924.503 450.132 924.121C450.032 922.658 447.986 919.607 447.293 917.547C440.76 917.552 416.966 918.062 411.727 917.139Z" fill="#A3C4F3"/>
<path d="M628.064 918.436L652.183 918.086C648.395 927.612 644.154 925.736 634.766 925.388C632.219 924.912 626.032 925.028 622.588 924.709C624.617 922.591 626.369 920.859 628.064 918.436Z" fill="#FFEDE1"/>
<path d="M431.721 927.124L535.686 926.898L570.373 926.949C575.193 926.973 584.323 926.817 588.889 927.32C586.615 929.1 583.769 930.265 581.32 931.68C545.869 952.155 501.904 954.949 465.795 934.52C461.948 932.343 458.197 929.958 454.419 927.524C449.697 927.59 435.858 927.967 431.721 927.124Z" fill="#CFBAF0"/>
<defs>
<linearGradient id="paint0_linear_2293_91270" x1="562.813" y1="153.32" x2="556.286" y2="188.295" gradientUnits="userSpaceOnUse">
<stop stop-color="#EEC6AF"/>
<stop offset="1" stop-color="#FFBBDE"/>
</linearGradient>
<linearGradient id="paint1_linear_2293_91270" x1="441.088" y1="532.261" x2="487.263" y2="520.661" gradientUnits="userSpaceOnUse">
<stop stop-color="#F0FDFF"/>
<stop offset="1" stop-color="#CBFFFF"/>
</linearGradient>
<linearGradient id="paint2_linear_2293_91270" x1="514.744" y1="872.849" x2="514.761" y2="875.407" gradientUnits="userSpaceOnUse">
<stop stop-color="#91DEE8"/>
<stop offset="1" stop-color="#A0DDFA"/>
</linearGradient>
<linearGradient id="paint3_linear_2293_91270" x1="513.947" y1="876.255" x2="514.047" y2="880.988" gradientUnits="userSpaceOnUse">
<stop stop-color="#9EEEE1"/>
<stop offset="1" stop-color="#8DD2F0"/>
</linearGradient>
</defs>
</svg>
