<svg width="1024" height="1024" viewBox="0 0 1024 1024" fill="none" xmlns="http://www.w3.org/2000/svg">
<path d="M513.751 169.418C376.289 170.386 244.555 254.955 193.83 384.437C189.903 394.462 185.612 405.238 183.273 415.766C163.126 418.681 131.049 438.713 115.834 452.197C110.249 405.733 112.711 359.708 140.928 319.982C142.792 317.359 144.609 315.755 142.605 312.752C136.337 309.529 121.215 344.073 119.03 349.449C105.836 381.918 105.644 420.935 111.06 455.014C106.435 461.225 100.622 467.025 96.523 473.09C94.7964 468.027 93.991 462.163 93.0288 456.897C86.0268 418.572 90.4969 377.925 101.249 340.705C125.005 258.469 205.607 178.042 279.131 137.493C324.734 112.343 384.552 95.855 435.872 110.968C453.108 116.044 472.55 125.654 486.347 137.408C493.292 143.324 499.263 150.263 504.89 157.414C507.895 161.233 511.437 165.137 513.751 169.418Z" fill="#F1C0E8"/>
<path d="M630.011 162.756C633.085 156.362 679.476 143.781 689.329 142.729C700.406 141.546 721.127 139.241 732.119 140.161C759.109 142.419 787.261 149.9 811.589 161.845C900.162 203.834 954.012 302.119 945.61 399.258C944.598 410.957 941.459 423.276 938.782 434.681C934.685 453.086 928.945 470.61 919.238 486.891C917.543 489.733 915.116 495.564 913.671 498.84C908.204 511.232 896.518 524.114 891.196 535.855C883.685 528.29 867.977 517.91 857.582 515.774C857.197 378.812 775.834 253.274 650.103 197.968C633.775 190.785 617.463 184.595 600.08 180.405C602.834 177.265 617.364 169.2 621.501 167.042C626.3 168.745 637.756 166.308 643.018 165.407C689.266 157.48 736.645 160.136 781.617 173.611C786.215 174.988 795.57 179.567 800.116 177.831L800.574 176.79C800.237 175.759 799.469 174.21 798.432 173.814C749.067 154.966 680.471 150.362 630.011 162.756Z" fill="#FBF8CC"/>
<path d="M630.01 162.757C680.47 150.363 749.066 154.967 798.431 173.815C799.468 174.211 800.236 175.76 800.573 176.791L800.115 177.832C795.569 179.568 786.214 174.989 781.616 173.612C736.644 160.137 689.265 157.481 643.017 165.408C637.755 166.309 626.299 168.746 621.5 167.043C624.262 164.606 626.537 164.037 630.01 162.757Z" fill="#EFEEE3"/>
<path d="M183.273 415.763C185.612 405.235 189.903 394.459 193.83 384.434C244.555 254.952 376.289 170.383 513.751 169.415C547.254 168.979 567.897 172.098 600.08 180.405C617.463 184.595 633.775 190.785 650.103 197.968C775.834 253.274 857.197 378.812 857.582 515.774C857.161 669.886 752.938 807.409 605.148 848.489C590.102 852.671 576.222 856.066 560.663 857.837C512.565 865.314 461.524 860.621 415.07 846.295C404.717 843.103 394.429 839.381 384.281 835.592C368.663 828.754 354.221 822.153 339.361 813.604C276.031 777.172 223.719 719.773 194.697 652.609C188.018 637.153 183.353 620.914 178.982 604.747C163.851 540.654 164.206 478.936 183.273 415.763ZM519.898 173.117C367.701 169.837 231.633 267.481 186.012 412.717C165.565 477.81 165.042 547.53 184.508 612.923C214.539 713.808 289.324 795.261 387.282 833.781C441.325 855.032 499.886 862.182 557.453 854.558C727.355 832.059 854.417 687.357 854.765 515.973C855.085 358.528 747.946 221.178 595.159 183.163C570.522 177.033 545.28 173.664 519.898 173.117Z" fill="black"/>
<path d="M186.012 412.719C231.633 267.483 367.701 169.839 519.898 173.119C519.891 173.955 519.903 176.364 520.2 176.997C524.509 186.191 533.256 199.545 539.088 207.471C449.524 202.464 375.165 226.277 307.616 286.472C271.153 318.966 241.122 364.699 224.802 410.531C216.365 410.57 207.792 410.913 199.44 412.126C196.584 412.541 188.969 414.147 186.658 413.497L186.012 412.719Z" fill="#F1C0E8"/>
<path d="M519.898 173.117C545.28 173.664 570.522 177.033 595.159 183.163C593.466 188.477 573.814 204.047 568.614 211.411L568.584 211.339C558.274 209.692 549.532 208.086 539.088 207.469C533.256 199.543 524.509 186.189 520.2 176.995C519.903 176.362 519.891 173.953 519.898 173.117Z" fill="#E6DFD5"/>
<path d="M595.159 183.164C747.946 221.179 855.085 358.529 854.765 515.974C839.31 518.416 831.822 520.056 816.903 526.019C823.971 379.102 725.23 247.926 582.056 214.245C577.584 213.193 573.082 212.27 568.584 211.34L568.614 211.412C573.814 204.048 593.466 188.478 595.159 183.164Z" fill="#FBF8CC"/>
<path d="M224.802 410.532C241.122 364.7 271.153 318.967 307.616 286.473C375.165 226.278 449.524 202.465 539.088 207.472C549.532 208.089 558.274 209.695 568.584 211.342C573.082 212.272 577.584 213.195 582.056 214.247C725.23 247.928 823.971 379.104 816.903 526.021C812 611.578 778.139 686.333 714.1 744.085C671.427 782.568 620.236 808.589 563.451 817.787C552.642 819.538 541.031 821.265 530.046 821.717C491.703 824.217 463.915 820.103 427.328 810.445C355.989 789.288 293.071 740.434 253.049 677.966C245.619 666.368 239.554 654.433 233.677 641.991C200.866 566.91 197.303 487.812 224.802 410.532ZM523.527 209.871C411.648 205.665 306.49 263.213 249.721 359.711C192.951 456.21 193.734 576.082 251.759 671.83C309.785 767.579 415.686 823.748 527.501 818.081C684.032 810.148 808.955 684.657 816.177 528.091C823.972 359.137 692.542 216.224 523.527 209.871Z" fill="black"/>
<path d="M527.501 818.078C415.686 823.745 309.785 767.576 251.759 671.827C193.734 576.079 192.951 456.207 249.721 359.708C306.49 263.21 411.648 205.662 523.527 209.868C525.503 210.795 526.971 210.723 529.138 210.802C539.981 211.195 550.737 212.094 561.467 213.746C563.759 214.102 568.989 214.236 569.577 216.079C571.871 223.261 568.409 226.115 573.129 232.883L572.894 234.442C570.715 235.574 566.061 233.432 563.577 233.097C551.404 231.454 539.258 229.848 526.979 229.13C526.207 229.085 525.518 229.572 525.046 230.094C422.284 225.517 325.11 276.984 271.157 364.564C217.205 452.144 214.947 562.083 265.258 651.804C315.569 741.525 410.547 796.939 513.411 796.585C514.875 796.897 516.759 796.951 517.164 798.005C518.499 801.473 527.531 815.469 527.501 818.078Z" fill="#A3C4F3"/>
<path d="M523.527 209.867C692.542 216.22 823.972 359.133 816.177 528.087C811.114 530.021 803.221 536.469 799.073 540.093C797.921 541.1 795.014 543.976 794.072 544.641C802.775 466.688 778.779 388.614 727.796 329.005C676.814 269.396 603.406 233.584 525.046 230.093C525.518 229.571 526.207 229.084 526.979 229.129C539.258 229.847 551.404 231.453 563.577 233.096C566.061 233.431 570.715 235.573 572.894 234.441L573.129 232.882C568.409 226.114 571.871 223.26 569.577 216.078C568.989 214.235 563.759 214.101 561.467 213.745C550.737 212.093 539.981 211.194 529.138 210.801C526.971 210.722 525.503 210.794 523.527 209.867Z" fill="#B9FBC0"/>
<path d="M513.411 796.585C410.547 796.939 315.569 741.525 265.258 651.804C214.947 562.083 217.205 452.144 271.157 364.564C325.11 276.984 422.284 225.517 525.046 230.094C603.406 233.585 676.814 269.397 727.796 329.006C778.779 388.615 802.775 466.689 794.072 544.642C778.098 687.723 657.38 796.089 513.411 796.585ZM790.772 546.657C807.786 406.175 717.537 275.007 580.253 240.688C442.969 206.37 301.613 279.641 250.521 411.604C216.953 498.303 228.507 596 281.371 672.477C334.236 748.955 421.548 794.284 514.515 793.517C655.555 792.354 773.814 686.679 790.772 546.657Z" fill="black"/>
<path d="M250.521 411.605C301.613 279.642 442.969 206.371 580.253 240.689C717.537 275.008 807.786 406.176 790.772 546.658C781.818 549.187 769.645 554.584 760.576 557.739C758.715 558.386 755.785 560.3 753.544 561.247C750.55 561.515 747.027 562.215 744.022 562.72C709.501 568.527 676.07 554.36 643.292 545.825C629.147 542.141 614.895 537.668 600.615 534.543C595.257 533.37 581.886 529.266 577.008 529.66C568.755 526.328 541.054 518.449 532.506 517.252C532.41 513.626 532.195 512.249 531.532 508.681C551.679 495.077 571.289 479.869 591.107 465.75C594.622 463.246 597.906 460.867 601.605 458.611C607.386 462.673 614.769 463.515 620.049 458.135C634.3 443.614 645.734 426.354 659.086 410.994C659.535 410.477 660.26 409.025 660.599 408.36C641.38 413.467 620.023 420.543 601.397 427.783C593.539 430.837 591.776 438.247 593.297 446.176C588.695 448.896 584.144 452.096 579.811 455.273C562.052 468.29 543.947 480.817 526.141 493.768C524.215 495.169 521.672 496.912 519.63 498.074C518.122 488.3 518.617 479.719 518.1 470.124C517.024 450.166 517.88 427.596 516.427 407.949L515.247 409.215C517.979 406.885 519.776 404.222 520.175 400.564C520.719 395.587 507.786 358.858 505.21 351.963C503.488 356.864 502.058 362.715 500.938 367.807C498.591 378.482 495.792 389.105 493.622 399.799C492.943 403.144 497.969 407.915 500.044 410.229L499.762 410.798C497.06 416.425 501.024 462.804 500.421 472.44C500.157 476.651 501.165 491.582 501.654 496.541C494.15 499.906 491.206 504.116 488.873 511.993C463.894 517.973 437.284 521.79 412.054 527.28C397.857 513.889 385.476 498.044 371.079 484.499C342.252 457.375 310.528 436.89 274.007 421.54C267.467 418.792 257.068 413.463 250.521 411.605ZM509.404 242.44C509.331 246.054 508.515 253.873 510.217 256.668C511.291 257.322 512.173 257.091 513.462 257.005C513.441 253.245 514.291 245.356 512.597 242.855C511.13 242.364 510.921 242.448 509.404 242.44ZM534.557 250.884C533.677 251.099 532.984 251.773 532.742 252.645C532.5 253.518 532.749 254.453 533.393 255.089C534.037 255.726 534.974 255.965 535.844 255.713C537.15 255.336 537.915 253.983 537.565 252.669C537.214 251.355 535.878 250.562 534.557 250.884ZM483.301 251.168C482.625 252.981 482.386 253.303 482.599 255.267C483.548 256.701 483.981 257 485.85 256.965C486.642 255.155 487.007 254.712 486.745 252.738C485.58 251.309 485.279 251.18 483.301 251.168ZM562.497 255.237C561.421 255.82 560.948 257.114 561.396 258.254C561.843 259.393 563.07 260.02 564.255 259.716C565.163 259.482 565.854 258.747 566.032 257.827C566.209 256.907 565.84 255.967 565.084 255.413C564.328 254.859 563.321 254.791 562.497 255.237ZM455.85 256.455C454.985 256.683 454.31 257.359 454.085 258.225C453.86 259.091 454.121 260.011 454.766 260.63C455.412 261.25 456.342 261.472 457.198 261.212C458.486 260.82 459.224 259.469 458.857 258.173C458.49 256.877 457.153 256.114 455.85 256.455ZM591.367 262.292C590.562 262.579 589.973 263.278 589.826 264.121C589.68 264.963 589.999 265.819 590.66 266.361C591.322 266.903 592.224 267.047 593.021 266.738C594.23 266.269 594.838 264.915 594.386 263.7C593.934 262.484 592.589 261.857 591.367 262.292ZM429.536 264.026C428.704 264.373 428.136 265.155 428.063 266.054C427.989 266.952 428.423 267.816 429.188 268.294C429.952 268.771 430.919 268.783 431.694 268.323C432.783 267.678 433.187 266.299 432.619 265.168C432.051 264.037 430.704 263.538 429.536 264.026ZM509.697 266.296C509.721 271.644 509.95 312.974 510.867 314.75C512.143 315.657 512.208 315.532 513.798 315.761C515.003 312.867 514.151 272.092 513.378 266.9C512.153 266.109 511.181 266.292 509.697 266.296ZM617.826 272.114C617.055 272.469 616.533 273.212 616.462 274.058C616.391 274.905 616.781 275.724 617.483 276.203C618.184 276.682 619.09 276.746 619.852 276.372C621.011 275.803 621.498 274.408 620.943 273.242C620.388 272.076 618.998 271.573 617.826 272.114ZM403.818 274.055C402.963 274.261 402.292 274.924 402.077 275.777C401.863 276.63 402.14 277.532 402.797 278.118C403.454 278.703 404.381 278.875 405.204 278.564C406.371 278.124 406.995 276.852 406.628 275.659C406.262 274.467 405.031 273.765 403.818 274.055ZM647.727 273.157C645.292 277.1 638.922 286.374 638.768 290.434C639.34 291.509 640.008 292.353 641.43 292.311C643.729 288.552 650.761 278.222 650.441 274.465C649.433 273.246 649.642 273.621 647.727 273.157ZM376.826 274.668C375.911 277.221 375.99 277.326 377.28 280.042C378.401 282.401 382.822 290.904 384.858 291.793L385.727 291.788C386.359 290.852 387.143 290.3 386.673 289.141C385.295 285.736 380.508 275.481 376.826 274.668ZM661.849 297.715C660.963 297.916 660.263 298.596 660.036 299.476C659.809 300.357 660.093 301.29 660.772 301.895C661.45 302.5 662.41 302.675 663.259 302.349C664.447 301.892 665.081 300.594 664.711 299.376C664.34 298.157 663.091 297.432 661.849 297.715ZM390.755 297.689C390.226 298.796 389.547 299.502 390.135 300.567C392.623 305.078 410.103 338.619 411.458 339.882L413.628 340.012C414.528 337.222 412.593 333.979 411.025 331.331C406.426 323.568 397.832 304.405 392.625 298.149C391.85 297.919 391.555 297.793 390.755 297.689ZM358.484 299.889C357.789 300.502 357.483 301.444 357.684 302.349C357.886 303.253 358.563 303.976 359.452 304.237C360.341 304.497 361.302 304.254 361.96 303.601C362.937 302.632 362.965 301.062 362.025 300.057C361.084 299.052 359.515 298.978 358.484 299.889ZM630.208 303.131C627.365 309.048 610.211 339.319 610.312 342.679C611.683 344.114 610.881 343.511 613.082 344.177C615.475 339.418 633.225 306.859 633.031 304.838C631.73 303.831 631.704 303.788 630.208 303.131ZM684.703 315.17C683.442 315.456 682.654 316.715 682.948 317.975C683.242 319.234 684.505 320.014 685.763 319.713C687.011 319.415 687.784 318.164 687.492 316.914C687.201 315.665 685.954 314.885 684.703 315.17ZM336.546 318.905C335.516 319.671 335.306 321.13 336.079 322.156C336.852 323.182 338.311 323.384 339.333 322.605C340.346 321.833 340.546 320.387 339.779 319.369C339.013 318.352 337.568 318.144 336.546 318.905ZM706.242 336.758C705.38 336.654 704.535 337.058 704.074 337.794C703.612 338.529 703.616 339.465 704.084 340.197C704.552 340.928 705.399 341.325 706.261 341.214C707.385 341.07 708.226 340.111 708.221 338.978C708.216 337.844 707.367 336.892 706.242 336.758ZM318.319 338.411C317.493 338.813 316.966 339.649 316.96 340.567C316.954 341.486 317.47 342.329 318.291 342.741C319.112 343.154 320.096 343.065 320.829 342.512C321.822 341.763 322.084 340.383 321.435 339.322C320.786 338.261 319.437 337.867 318.319 338.411ZM721.933 358.76C721.207 359.149 720.748 359.899 720.729 360.722C720.709 361.545 721.133 362.315 721.839 362.738C722.545 363.162 723.425 363.173 724.141 362.768C725.233 362.151 725.624 360.77 725.019 359.672C724.414 358.574 723.038 358.167 721.933 358.76ZM298.585 360.299C298.109 362.162 298.003 362.117 298.749 363.978C300.21 365.408 300.805 365.696 302.944 365.841C303.608 363.519 303.677 364.594 303.016 362.496C301.758 361.18 300.344 360.795 298.585 360.299ZM276.711 375.218C276.013 377.333 275.777 376.926 276.305 378.67C278.205 380.082 285.404 384.688 287.162 385.452C296.392 389.461 326.932 413.468 334.984 414.779C335.748 412.824 335.986 413.185 335.444 411.699C330.216 407.686 279.837 375.799 276.711 375.218ZM744.242 376.893C727.562 386.308 711.819 398.127 694.824 407.164C693.636 407.796 692.504 408.913 691.792 410.061C691.96 411.733 691.64 410.949 693.224 412.285C693.689 412.313 694.316 412.401 694.729 412.309C700.286 408.84 746.582 380.802 747.336 378.982C746.585 377.306 747.117 378.082 745.24 376.903L744.242 376.893ZM273.21 403.357C272.93 405.713 272.692 404.976 273.613 406.882C275.379 408.22 276.697 408.095 278.774 407.702C278.983 403.863 276.412 403.803 273.21 403.357ZM748.354 406.775C747.263 407.346 746.794 408.66 747.276 409.794C747.758 410.928 749.029 411.502 750.198 411.113C751.042 410.831 751.657 410.1 751.789 409.219C751.921 408.339 751.548 407.459 750.823 406.943C750.097 406.427 749.143 406.362 748.354 406.775ZM758.108 432.174C757.313 432.608 756.839 433.463 756.893 434.368C756.947 435.273 757.518 436.065 758.359 436.403C759.2 436.74 760.162 436.561 760.826 435.944C761.691 435.14 761.821 433.818 761.131 432.86C760.44 431.902 759.145 431.608 758.108 432.174ZM765.396 459.806C764.337 460.499 764.02 461.908 764.68 462.988C765.34 464.068 766.739 464.428 767.839 463.801C768.581 463.378 769.033 462.585 769.021 461.732C769.008 460.878 768.531 460.099 767.777 459.698C767.023 459.298 766.111 459.339 765.396 459.806ZM768.422 487.742C767.535 488.58 767.454 489.963 768.237 490.898C769.02 491.834 770.395 491.997 771.375 491.272C772.064 490.762 772.413 489.913 772.282 489.067C772.151 488.22 771.563 487.516 770.753 487.238C769.943 486.961 769.044 487.155 768.422 487.742ZM708.009 511.977C707.703 514.284 707.4 513.774 708.372 515.322C711.461 516.197 739.926 516.441 743.826 516.116C744.774 514.169 744.756 515.084 744.328 513.314C742.039 511.154 712.863 511.907 708.009 511.977ZM765.031 513.05C765.068 515.446 764.645 515.535 765.811 516.99C770.171 518.553 774.421 517.21 779.271 516.971L779.388 514.993C776.968 512.342 768.846 513.265 765.031 513.05ZM766.701 539.826C765.707 541.277 765.378 541.545 765.216 543.323C766.38 545.456 767.526 545.214 769.828 545.424C771.342 543.775 771.213 544.386 771.549 542.482C770.253 540.319 769.096 540.245 766.701 539.826Z" fill="url(#paint0_linear_2293_93663)"/>
<path d="M513.462 257.003C512.173 257.089 511.291 257.32 510.217 256.666C508.515 253.871 509.33 246.052 509.403 242.438C510.92 242.446 511.13 242.362 512.597 242.853C514.291 245.354 513.441 253.243 513.462 257.003Z" fill="black"/>
<path d="M535.844 255.713C534.974 255.965 534.036 255.726 533.392 255.089C532.748 254.453 532.499 253.518 532.741 252.645C532.983 251.773 533.677 251.099 534.557 250.884C535.878 250.562 537.214 251.355 537.565 252.669C537.915 253.983 537.15 255.336 535.844 255.713Z" fill="black"/>
<path d="M485.85 256.965C483.981 257 483.548 256.701 482.599 255.267C482.386 253.303 482.625 252.981 483.301 251.168C485.279 251.18 485.58 251.309 486.745 252.738C487.007 254.712 486.642 255.155 485.85 256.965Z" fill="black"/>
<path d="M564.256 259.717C563.071 260.021 561.844 259.394 561.397 258.255C560.949 257.115 561.422 255.821 562.498 255.238C563.322 254.792 564.329 254.86 565.085 255.414C565.841 255.968 566.21 256.908 566.033 257.828C565.855 258.748 565.164 259.483 564.256 259.717Z" fill="black"/>
<path d="M457.198 261.213C456.342 261.473 455.412 261.251 454.766 260.631C454.121 260.012 453.86 259.092 454.085 258.226C454.31 257.36 454.985 256.684 455.85 256.456C457.153 256.115 458.49 256.878 458.857 258.174C459.224 259.47 458.486 260.821 457.198 261.213Z" fill="black"/>
<path d="M593.021 266.736C592.224 267.045 591.322 266.901 590.66 266.359C589.999 265.817 589.68 264.961 589.826 264.119C589.973 263.276 590.562 262.577 591.367 262.29C592.589 261.855 593.934 262.482 594.386 263.698C594.838 264.913 594.23 266.267 593.021 266.736Z" fill="black"/>
<path d="M431.694 268.324C430.919 268.784 429.952 268.772 429.188 268.295C428.423 267.817 427.989 266.953 428.063 266.055C428.136 265.156 428.704 264.374 429.536 264.027C430.704 263.539 432.051 264.038 432.619 265.169C433.187 266.3 432.783 267.679 431.694 268.324Z" fill="black"/>
<path d="M513.797 315.759C512.207 315.53 512.142 315.655 510.866 314.748C509.949 312.972 509.719 271.642 509.695 266.294C511.179 266.29 512.152 266.107 513.377 266.898C514.15 272.09 515.002 312.865 513.797 315.759Z" fill="black"/>
<path d="M619.85 276.374C619.088 276.748 618.183 276.684 617.482 276.205C616.78 275.726 616.39 274.907 616.461 274.06C616.532 273.214 617.053 272.471 617.824 272.116C618.996 271.575 620.386 272.078 620.941 273.244C621.496 274.41 621.009 275.805 619.85 276.374Z" fill="black"/>
<path d="M405.204 278.563C404.381 278.874 403.454 278.702 402.797 278.117C402.14 277.531 401.863 276.629 402.077 275.776C402.292 274.923 402.963 274.26 403.818 274.054C405.031 273.764 406.262 274.466 406.628 275.658C406.995 276.851 406.371 278.123 405.204 278.563Z" fill="black"/>
<path d="M641.43 292.31C640.008 292.352 639.34 291.508 638.768 290.433C638.922 286.373 645.292 277.099 647.727 273.156C649.642 273.62 649.434 273.245 650.442 274.464C650.762 278.221 643.729 288.551 641.43 292.31Z" fill="black"/>
<path d="M385.726 291.788L384.857 291.793C382.821 290.904 378.4 282.401 377.279 280.042C375.989 277.326 375.909 277.221 376.824 274.668C380.506 275.481 385.294 285.736 386.672 289.141C387.142 290.3 386.358 290.852 385.726 291.788Z" fill="black"/>
<path d="M663.259 302.347C662.41 302.673 661.45 302.498 660.772 301.893C660.093 301.288 659.809 300.355 660.036 299.474C660.263 298.594 660.963 297.914 661.849 297.713C663.091 297.43 664.34 298.155 664.711 299.374C665.081 300.592 664.447 301.89 663.259 302.347Z" fill="black"/>
<path d="M413.627 340.01L411.458 339.88C410.103 338.617 392.623 305.076 390.135 300.565C389.547 299.5 390.226 298.794 390.755 297.688C391.555 297.792 391.85 297.917 392.625 298.147C397.832 304.403 406.426 323.566 411.025 331.329C412.593 333.977 414.527 337.22 413.627 340.01Z" fill="black"/>
<path d="M361.959 303.599C361.301 304.252 360.341 304.495 359.452 304.235C358.563 303.974 357.886 303.251 357.684 302.347C357.483 301.442 357.789 300.5 358.484 299.887C359.515 298.976 361.084 299.05 362.025 300.055C362.965 301.06 362.936 302.63 361.959 303.599Z" fill="black"/>
<path d="M613.083 344.179C610.882 343.513 611.683 344.116 610.313 342.681C610.211 339.321 627.366 309.05 630.209 303.133C631.705 303.79 631.73 303.833 633.031 304.84C633.225 306.861 615.476 339.42 613.083 344.179Z" fill="black"/>
<path d="M111.06 455.013C105.644 420.934 105.836 381.917 119.03 349.448C121.215 344.072 136.337 309.528 142.605 312.751C144.609 315.754 142.792 317.358 140.928 319.981C112.711 359.707 110.249 405.732 115.834 452.196C116.737 456.75 122.19 478.564 121.029 480.475C119.408 481.185 120.236 481.108 118.45 480.605C114.331 476.89 112.142 461.145 111.06 455.013Z" fill="#EFEEE3"/>
<path d="M685.763 319.711C684.505 320.012 683.242 319.232 682.948 317.973C682.654 316.713 683.442 315.454 684.703 315.168C685.954 314.883 687.201 315.663 687.492 316.912C687.784 318.162 687.011 319.413 685.763 319.711Z" fill="black"/>
<path d="M339.334 322.604C338.312 323.383 336.853 323.181 336.08 322.155C335.307 321.129 335.517 319.67 336.547 318.904C337.569 318.143 339.014 318.351 339.78 319.368C340.547 320.386 340.347 321.832 339.334 322.604Z" fill="black"/>
<path d="M706.261 341.214C705.399 341.325 704.552 340.928 704.084 340.197C703.616 339.465 703.612 338.529 704.074 337.794C704.535 337.058 705.38 336.654 706.242 336.758C707.367 336.892 708.216 337.844 708.221 338.978C708.226 340.111 707.385 341.07 706.261 341.214Z" fill="black"/>
<path d="M320.828 342.513C320.095 343.066 319.111 343.155 318.29 342.742C317.469 342.33 316.953 341.487 316.959 340.568C316.965 339.65 317.492 338.814 318.318 338.412C319.436 337.868 320.785 338.262 321.434 339.323C322.083 340.384 321.821 341.764 320.828 342.513Z" fill="black"/>
<path d="M531.532 508.683C532.195 512.251 532.41 513.628 532.506 517.254C529.73 531.681 522.187 535.635 508.357 536.584C498.11 552.9 488.335 572.468 478.795 589.442L449.649 641.802C443.56 652.661 436.974 663.719 431.219 674.711C432.844 677.53 433.615 678.68 433.25 681.864C432.391 683.391 429.358 686.306 427.926 687.632C416.059 698.62 405.664 711.897 394.292 723.205C396.711 713.36 400.772 703.838 403.838 694.161C406.437 685.958 408.991 677.664 411.781 669.526C412.711 666.813 416.334 667.148 418.682 667.15C421.097 664.597 437.014 636.022 439.58 631.467L473.371 572.692C480.677 559.919 488.83 544.454 496.812 532.543C493.579 529.005 492.048 527.139 489.967 522.69C445.291 532.785 401.286 541.815 356.307 550.494L322.882 556.969C317.401 558.063 299.634 562.597 295.172 560.931C296.814 555.348 400.084 529.269 412.054 527.282C437.284 521.792 463.894 517.975 488.873 511.995C491.206 504.118 494.15 499.908 501.654 496.543C501.165 491.584 500.157 476.653 500.421 472.442C501.024 462.806 497.06 416.427 499.762 410.8L500.044 410.231C497.969 407.917 492.943 403.146 493.622 399.801C495.792 389.107 498.591 378.484 500.938 367.809C502.058 362.717 503.487 356.866 505.209 351.965C507.785 358.86 520.719 395.589 520.175 400.566C519.776 404.224 517.979 406.887 515.247 409.217L516.426 407.951C517.879 427.598 517.024 450.168 518.1 470.126C518.617 479.721 518.122 488.302 519.63 498.076C521.672 496.914 524.214 495.171 526.14 493.77C543.946 480.819 562.052 468.292 579.811 455.275C584.144 452.098 588.694 448.898 593.296 446.178C591.775 438.249 593.539 430.839 601.397 427.785C620.023 420.545 641.379 413.469 660.598 408.362C660.259 409.027 659.534 410.479 659.085 410.996C645.733 426.356 634.3 443.616 620.049 458.137C614.769 463.517 607.386 462.675 601.605 458.613C597.906 460.869 594.622 463.248 591.107 465.752C571.289 479.871 551.679 495.079 531.532 508.683ZM505.474 362.261C503.266 369.115 495.082 398.226 497.831 403.695C499.139 406.299 502.011 408.082 504.781 408.763C506.069 409.08 507.461 409.01 508.778 408.959C518.578 405.52 519.038 399.517 515.424 390.928C512.655 384.347 508.911 367.411 505.474 362.261ZM513.37 410.618C508.622 412.121 506.558 412.436 501.535 411.237L503.212 473.18C503.347 477.381 503.483 492.613 504.112 495.507C504.943 495.794 504.607 495.853 505.123 495.663C510.09 495.323 511.615 495.291 516.626 496.661C515.267 480.088 514.897 462.821 514.524 446.163C514.273 434.915 513.498 421.982 513.697 410.84L513.37 410.618ZM653.416 413.12L621.556 423.278C611.487 426.548 590.699 430.563 595.748 445.01C596.941 448.423 599.446 451.099 601.089 454.227C607.315 460.559 614.016 461.073 619.743 454.715C623.029 451.067 653.405 415.152 653.416 413.12ZM594.188 448.996C583.354 455.727 573.81 463.122 563.549 470.522C550.155 480.183 536.66 490.072 523.074 499.439C526.153 501.973 527.106 502.794 529.574 506.088L530.302 506.258C544.846 494.845 560.513 484.637 575.42 473.678C582.374 468.566 592.885 461.633 598.817 455.565L594.188 448.996ZM503.313 499.045C487.951 505.082 488.51 525.863 501.489 531.45L501.356 530.687C499.103 528.932 498.057 528.21 496.562 525.743C492.647 519.284 493.724 511.245 497.606 505.061C498.355 503.868 502.399 500.454 503.679 499.4L503.313 499.045ZM508.96 500.775C503.504 502.006 499.136 506.082 497.528 511.439C495.921 516.795 497.324 522.603 501.199 526.635C505.075 530.667 510.823 532.298 516.239 530.904C524.441 528.792 529.429 520.487 527.44 512.254C525.451 504.021 517.222 498.909 508.96 500.775ZM485.956 515.646C434.525 525.577 382.573 534.304 332.478 550.151C325.88 552.237 317.836 553.735 311.589 556.324L313.638 556.295C355.737 548.528 400.504 539.752 442.276 530.449L470.516 524.194C474.102 523.427 486.127 521.715 488.985 518.898C489.452 518.438 489.303 517.635 489.306 516.93C488.125 515.247 488.187 515.223 485.956 515.646ZM498.93 534.08C489.533 547.938 480.097 566.102 471.683 580.973L449.563 619.21C441.017 634.148 432.858 648.961 424.024 663.747C427.544 664.99 428.452 665.297 431.674 667.432C433.169 666.561 498.484 548.488 505.31 536.437C503.063 535.709 501.043 535.146 498.93 534.08ZM422.749 666.162L421.482 668.077C422.559 670.844 426.276 671.788 429.139 673.305C430.586 668.525 426.799 668.053 422.749 666.162ZM415.046 669.381C412.933 672.931 411.509 677.797 410.363 681.801C407.214 692.799 403.345 703.271 399.33 713.978L408.06 704.353C411.77 700.465 429.394 683.475 430.316 680.575C430.115 675.688 419.047 670.154 415.046 669.381Z" fill="black"/>
<path d="M724.139 362.769C723.423 363.174 722.543 363.163 721.837 362.739C721.131 362.316 720.707 361.546 720.727 360.723C720.746 359.9 721.206 359.15 721.932 358.761C723.037 358.168 724.413 358.575 725.018 359.673C725.623 360.771 725.231 362.152 724.139 362.769Z" fill="black"/>
<path d="M302.945 365.843C300.806 365.698 300.21 365.41 298.749 363.98C298.003 362.119 298.109 362.164 298.585 360.301C300.344 360.797 301.758 361.182 303.016 362.498C303.677 364.596 303.609 363.521 302.945 365.843Z" fill="black"/>
<path d="M508.779 408.956C507.462 409.007 506.07 409.077 504.782 408.76C502.012 408.079 499.14 406.296 497.832 403.692C495.083 398.223 503.267 369.112 505.475 362.258C508.912 367.408 512.656 384.344 515.425 390.925C519.039 399.514 518.579 405.517 508.779 408.956Z" fill="#FDE4CF"/>
<path d="M334.984 414.78C326.932 413.469 296.392 389.462 287.162 385.453C285.404 384.689 278.205 380.083 276.305 378.671C275.777 376.927 276.013 377.334 276.711 375.219C279.837 375.8 330.216 407.687 335.444 411.7C335.986 413.186 335.748 412.825 334.984 414.78Z" fill="black"/>
<path d="M694.73 412.311C694.317 412.403 693.689 412.315 693.224 412.287C691.64 410.951 691.961 411.735 691.793 410.063C692.505 408.915 693.637 407.798 694.825 407.166C711.82 398.129 727.562 386.31 744.242 376.895L745.24 376.905C747.117 378.084 746.586 377.308 747.337 378.984C746.583 380.804 700.287 408.842 694.73 412.311Z" fill="black"/>
<path d="M278.775 407.7C276.698 408.093 275.38 408.218 273.614 406.88C272.693 404.974 272.93 405.711 273.21 403.355C276.412 403.801 278.984 403.861 278.775 407.7Z" fill="black"/>
<path d="M750.198 411.112C749.029 411.501 747.757 410.927 747.275 409.793C746.793 408.659 747.263 407.345 748.354 406.774C749.143 406.361 750.096 406.426 750.822 406.942C751.547 407.458 751.921 408.338 751.789 409.218C751.657 410.099 751.042 410.83 750.198 411.112Z" fill="black"/>
<path d="M186.012 412.719L186.658 413.497C188.969 414.147 196.584 412.541 199.44 412.126C207.792 410.913 216.365 410.57 224.802 410.531C197.303 487.811 200.866 566.909 233.677 641.99C229.645 642.973 224.796 638.941 221.43 636.782C209.784 629.309 199.222 620.182 187.701 612.571C186.588 611.836 185.514 612.506 184.508 612.925C165.042 547.532 165.565 477.812 186.012 412.719Z" fill="#CFBAF0"/>
<path d="M501.535 411.236C506.558 412.435 508.622 412.12 513.37 410.617L513.697 410.839C513.498 421.981 514.273 434.914 514.524 446.162C514.897 462.82 515.267 480.087 516.626 496.66C511.615 495.29 510.09 495.322 505.123 495.662C504.607 495.852 504.943 495.793 504.112 495.506C503.483 492.612 503.347 477.38 503.212 473.179L501.535 411.236Z" fill="#FDE4CF"/>
<path d="M250.52 411.605C257.067 413.463 267.465 418.792 274.005 421.54C310.527 436.89 342.251 457.375 371.078 484.499C385.475 498.044 397.856 513.889 412.053 527.28C400.083 529.267 296.813 555.346 295.171 560.929C299.633 562.595 317.4 558.061 322.881 556.967L356.306 550.492C401.285 541.813 445.29 532.783 489.966 522.688C492.047 527.137 493.578 529.003 496.811 532.541C488.829 544.452 480.676 559.917 473.37 572.69L439.579 631.465C437.013 636.02 421.096 664.595 418.681 667.148C416.333 667.146 412.71 666.811 411.78 669.524C408.99 677.662 406.436 685.956 403.837 694.159C400.771 703.836 396.71 713.358 394.291 723.203C405.663 711.895 416.058 698.618 427.925 687.63C429.357 686.304 432.39 683.389 433.249 681.862C433.614 678.678 432.843 677.528 431.218 674.709C436.973 663.717 443.559 652.659 449.648 641.8L478.794 589.44C488.334 572.466 498.109 552.898 508.356 536.582C522.186 535.633 529.729 531.679 532.505 517.252C541.053 518.449 568.754 526.328 577.007 529.66C586.593 535.605 595.262 540.541 605.143 545.884C610.156 548.595 621.591 554.322 625.417 557.401C615.935 556.148 606.493 554.468 596.957 553.588C568.067 550.92 541.597 559.35 518.608 576.865C460.273 621.308 474.812 708.413 500.501 766.912C502.121 770.6 503.789 774.331 505.756 777.846C507.824 781.659 513.494 789.831 514.514 793.518C421.547 794.285 334.235 748.956 281.37 672.478C228.506 596.001 216.952 498.304 250.52 411.605ZM264.863 429.297C264.175 431.3 264.057 430.747 264.414 432.58C265.568 433.734 267.058 433.645 268.747 433.842C269.021 431.526 269.294 432.512 268.159 430.717C266.912 430.072 266.244 429.662 264.863 429.297ZM254.395 456.937C254.924 460.803 257.475 460.556 260.849 460.365L261.021 458.77C258.993 456.758 257.385 457.056 254.395 456.937ZM249.556 484.44L248.759 486.175C249.705 488.454 253.449 487.872 255.783 487.92L256.267 486.711C255.053 484.359 252.063 484.611 249.556 484.44ZM301.803 509.293C296.211 509.559 258.234 510.438 255.974 511.844L255.828 512.713C257.698 514.953 257.845 514.592 260.768 514.488C265.798 514.333 305.575 513.486 307.044 512.816L307.627 511.956C307.133 509.994 307.577 510.89 305.994 509.313C304.435 508.832 303.421 509.099 301.803 509.293ZM249.544 537.601L249.34 539.313C251.228 541.116 253.6 540.348 256.058 539.938L256.714 538.474C255.578 536.416 251.747 537.396 249.544 537.601ZM255.267 563.652C254.235 565.287 254.358 564.468 254.492 566.099C255.985 567.069 258.272 566.375 259.896 565.973L261.068 565.009L260.873 564.202C258.951 563.3 257.36 563.483 255.267 563.652ZM266.669 589.952C264.868 590.679 262.288 591.471 261.069 592.839L261.327 593.705L263.15 594.483C265.439 593.846 266.579 593.727 268.377 592.219L268.564 591.35C267.56 590.241 268.019 590.544 266.669 589.952ZM336.354 611.419C323.383 619.213 309.841 626.618 296.768 634.196C293.443 636.123 277.591 645.018 275.565 646.985C275.746 648.611 276.162 649.239 277.829 649.903C286 645.06 336.218 616.913 338.477 613.953C338.461 612.311 338.718 613.022 337.671 611.749L336.354 611.419ZM274.816 617.42C272.744 618.361 272.205 618.394 271.096 620.233L271.319 621.033C272.566 621.463 272.552 621.566 273.83 621.4C275.896 620.57 276.602 620.521 277.769 618.777L277.719 618.05C276.373 617.227 276.423 617.341 274.816 617.42ZM303.464 662.577C301.523 663.355 299.744 663.848 298.27 665.274L298.128 666.283C298.957 667.107 298.87 667.254 299.839 667.629C301.992 666.554 303.496 665.989 305.212 664.294L305.352 663.385C304.252 662.693 304.611 662.699 303.464 662.577ZM320.48 682.87C318.848 684.161 316.466 685.67 315.805 687.502C316.52 688.847 316.031 688.244 317.768 688.984C319.452 687.595 321.339 686.322 322.372 684.468L322.099 683.468C321.54 683.229 321.046 682.949 320.48 682.87ZM340.657 702.893C338.869 704.478 336.579 706.245 336.429 708.726C337.436 709.937 336.825 709.531 338.32 709.996C339.899 708.487 342.17 706.712 342.769 704.738C342.075 703.161 342.601 703.881 340.657 702.893ZM361.443 721.288C360.072 722.825 358.187 724.584 357.647 726.479C358.288 727.705 358.873 728.053 360.363 728.268C361.696 726.657 363.894 724.423 364.284 722.515C363.488 721.326 362.986 721.387 361.443 721.288ZM384.575 730.707C382.103 733.63 374.034 744.715 373.545 748.129C374.681 749.744 374.571 749.29 376.856 750.111C379.179 747.561 386.935 735.932 386.893 732.527C385.862 730.79 386.581 731.411 384.575 730.707ZM403.479 746.08C402.61 748.225 401.173 751.052 401.251 753.229C402.076 754.568 402.035 754.46 403.86 754.834C404.93 752.787 406.324 750.693 406.402 748.48C405.657 746.779 405.421 746.598 403.479 746.08ZM429.316 756.725C428.51 758.871 427.403 761.053 427.629 763.238C428.55 764.535 427.941 764.018 429.73 764.542C430.862 762.673 431.933 761.365 432.077 759.23C431.393 757.501 431.633 757.847 429.316 756.725ZM455.941 765.712C454.102 769.186 452.4 771.787 457.232 773.28C458.232 771.06 459.203 769.107 458.51 766.741C457.114 765.617 457.904 766.029 455.941 765.712ZM483.952 770.118C483.135 772.14 482.632 772.925 482.65 775.043C483.531 776.795 483.599 776.914 485.675 777.309C487.012 774.421 488.471 770.847 483.952 770.118Z" fill="#CFBAF0"/>
<path d="M601.09 454.224C599.447 451.096 596.942 448.42 595.749 445.007C590.7 430.56 611.488 426.545 621.557 423.275L653.417 413.117C653.406 415.149 623.03 451.064 619.744 454.712C614.017 461.07 607.316 460.556 601.09 454.224Z" fill="#FDE4CF"/>
<path d="M115.835 452.197C131.05 438.713 163.127 418.681 183.274 415.766C164.207 478.939 163.852 540.657 178.983 604.75C175.355 602.975 169.071 596.781 166.093 593.808C142.267 570.025 120.867 543.687 108.626 511.967C107.615 509.346 104.401 500.626 102.865 498.7L102.215 495.955C99.6112 488.556 98.1205 481.901 95.877 474.534L96.5238 473.09C100.623 467.025 106.436 461.225 111.061 455.014C112.143 461.146 114.332 476.891 118.451 480.606C120.237 481.109 119.409 481.186 121.03 480.476C122.191 478.565 116.738 456.751 115.835 452.197Z" fill="#CFBAF0"/>
<path d="M268.748 433.842C267.059 433.645 265.569 433.734 264.415 432.58C264.058 430.747 264.176 431.3 264.864 429.297C266.245 429.662 266.913 430.072 268.16 430.717C269.295 432.512 269.022 431.526 268.748 433.842Z" fill="black"/>
<path d="M760.825 435.944C760.161 436.561 759.2 436.74 758.359 436.403C757.518 436.065 756.947 435.273 756.893 434.368C756.839 433.463 757.313 432.608 758.108 432.174C759.145 431.608 760.44 431.901 761.131 432.859C761.821 433.817 761.69 435.14 760.825 435.944Z" fill="black"/>
<path d="M523.074 499.435C536.66 490.068 550.155 480.179 563.549 470.518C573.81 463.118 583.354 455.723 594.188 448.992L598.817 455.561C592.885 461.629 582.374 468.562 575.42 473.674C560.513 484.633 544.846 494.841 530.302 506.254L529.574 506.084C527.106 502.79 526.153 501.969 523.074 499.435Z" fill="#FDE4CF"/>
<path d="M260.85 460.365C257.476 460.556 254.925 460.803 254.396 456.938C257.386 457.057 258.994 456.758 261.022 458.77L260.85 460.365Z" fill="black"/>
<path d="M767.838 463.802C766.738 464.429 765.34 464.069 764.68 462.989C764.02 461.909 764.337 460.5 765.396 459.807C766.111 459.34 767.023 459.299 767.777 459.699C768.531 460.1 769.007 460.879 769.02 461.733C769.032 462.586 768.58 463.379 767.838 463.802Z" fill="black"/>
<path d="M95.8767 474.531C98.1202 481.898 99.6109 488.553 102.214 495.952C99.4881 496.349 97.9417 496.398 96.3755 499.008C48.4134 578.934 52.0759 690.649 116.311 760.99C121.116 766.252 144.609 788.569 151.164 787.85L152.499 787.091C153.328 782.782 141.294 776.857 137.919 774.058C62.3238 711.357 51.2376 600.575 92.8864 515.395C95.8584 509.316 99.7576 504.347 102.864 498.697C104.4 500.623 107.614 509.343 108.625 511.964C120.866 543.684 142.266 570.022 166.092 593.805C169.07 596.778 175.354 602.972 178.982 604.747C183.353 620.914 188.018 637.153 194.697 652.609C223.719 719.773 276.031 777.172 339.361 813.604C354.221 822.153 368.663 828.754 384.281 835.592C379.048 842.043 336.68 849.012 326.218 850.296C269.523 857.254 213.338 849.972 163.636 821.71C57.5192 761.368 26.0144 626.619 72.693 518.175C79.3809 502.637 85.3609 488.089 95.8767 474.531ZM167.198 791.177C166.117 793.133 166.153 792.447 166.22 794.441C168.587 798.657 178.464 803.201 183.136 803.677C183.94 802.204 184.287 801.954 184.139 800.304C182.337 797.005 170.962 791.419 167.198 791.177Z" fill="#8EECF5"/>
<path d="M255.784 487.921C253.45 487.873 249.706 488.455 248.76 486.176L249.557 484.441C252.064 484.612 255.054 484.36 256.268 486.712L255.784 487.921Z" fill="black"/>
<path d="M771.375 491.272C770.395 491.997 769.02 491.834 768.237 490.898C767.454 489.963 767.535 488.58 768.422 487.742C769.044 487.155 769.942 486.961 770.752 487.238C771.562 487.516 772.151 488.22 772.282 489.067C772.413 489.913 772.064 490.762 771.375 491.272Z" fill="black"/>
<path d="M102.864 498.698C99.7576 504.348 95.8584 509.317 92.8864 515.396C51.2376 600.576 62.3238 711.358 137.919 774.059C141.294 776.858 153.328 782.783 152.499 787.092L151.164 787.851C144.609 788.57 121.116 766.253 116.311 760.991C52.0759 690.65 48.4134 578.935 96.3755 499.009C97.9417 496.399 99.4881 496.35 102.214 495.953L102.864 498.698Z" fill="#EFEEE3"/>
<path d="M501.489 531.448C488.51 525.861 487.951 505.08 503.313 499.043L503.679 499.398C502.399 500.452 498.355 503.866 497.606 505.059C493.724 511.243 492.647 519.282 496.562 525.741C498.057 528.208 499.103 528.93 501.356 530.685L501.489 531.448Z" fill="#FDE4CF"/>
<path d="M516.238 530.904C510.822 532.298 505.074 530.667 501.198 526.635C497.323 522.603 495.92 516.795 497.527 511.439C499.135 506.082 503.503 502.006 508.959 500.775C517.221 498.909 525.45 504.021 527.439 512.254C529.428 520.487 524.44 528.792 516.238 530.904Z" fill="#FDE4CF"/>
<path d="M260.768 514.489C257.845 514.593 257.698 514.954 255.828 512.714L255.974 511.845C258.234 510.439 296.211 509.56 301.803 509.294C303.421 509.1 304.435 508.833 305.994 509.314C307.577 510.891 307.133 509.995 307.627 511.957L307.044 512.817C305.575 513.487 265.798 514.334 260.768 514.489Z" fill="black"/>
<path d="M743.825 516.115C739.925 516.44 711.461 516.196 708.372 515.321C707.4 513.773 707.703 514.283 708.009 511.976C712.863 511.906 742.039 511.153 744.328 513.313C744.756 515.083 744.773 514.168 743.825 516.115Z" fill="black"/>
<path d="M779.271 516.972C774.421 517.211 770.172 518.554 765.812 516.991C764.646 515.536 765.069 515.447 765.032 513.051C768.847 513.266 776.969 512.343 779.389 514.994L779.271 516.972Z" fill="black"/>
<path d="M313.639 556.292L311.59 556.321C317.837 553.732 325.881 552.234 332.479 550.148C382.574 534.301 434.526 525.574 485.957 515.643C488.188 515.22 488.126 515.244 489.307 516.927C489.304 517.632 489.453 518.435 488.986 518.895C486.128 521.712 474.103 523.424 470.517 524.191L442.277 530.446C400.505 539.749 355.738 548.525 313.639 556.292Z" fill="#E6DFD5"/>
<path d="M816.904 526.018C831.823 520.055 839.311 518.415 854.766 515.973C854.418 687.357 727.356 832.059 557.454 854.558C549.897 845.247 541.973 836.29 534.4 826.996C532.84 825.081 532.027 822.58 530.047 821.714C541.032 821.262 552.643 819.535 563.452 817.784C620.237 808.586 671.428 782.565 714.101 744.082C778.14 686.33 812.001 611.575 816.904 526.018Z" fill="#B9FBC0"/>
<path d="M857.581 515.773C867.976 517.909 883.684 528.289 891.195 535.854C987.829 628.678 989.857 764.083 897.751 861.025C877.865 881.45 850.898 897.547 824.388 907.736C801.568 916.507 773.403 927.989 748.999 931.247C681.048 940.32 609.258 907.558 562.229 859.575C561.633 858.966 561.188 858.472 560.662 857.836C576.221 856.065 590.101 852.67 605.147 848.488C752.937 807.408 857.16 669.885 857.581 515.773ZM889.095 557.312C887.651 562.772 894.829 566.854 898.836 569.721L899.795 569.791C900.377 568.508 901.546 566.755 900.965 565.371C898.983 560.647 894.036 557.679 889.095 557.312ZM917.152 613.702C916.541 614.698 915.574 615.751 916.208 616.871C922.42 627.855 926.967 638.559 931.41 650.345C947.052 691.751 941.875 738.172 925.052 778.379C903.099 830.844 860.431 876.634 806.838 897.186C802.185 898.97 782.901 905.151 781.576 908.351C782.211 910.133 782.921 910.152 784.838 910.307C794.84 907.961 803.888 904.171 813.479 900.243C900.814 864.48 963.273 758.893 941.567 665.11C937.856 649.075 930.018 627.48 919.84 614.404C919.392 613.903 917.888 613.766 917.152 613.702Z" fill="#B9FBC0"/>
<path d="M794.071 544.644C795.013 543.979 797.92 541.103 799.072 540.096C803.22 536.472 811.113 530.024 816.176 528.09C808.954 684.656 684.031 810.147 527.5 818.08C527.53 815.471 518.498 801.475 517.163 798.007C516.758 796.953 514.874 796.899 513.41 796.587C657.379 796.091 778.097 687.725 794.071 544.644Z" fill="#90DBF4"/>
<path d="M577.008 529.659C581.886 529.265 595.257 533.369 600.615 534.542C614.895 537.667 629.147 542.14 643.292 545.824C676.07 554.359 709.501 568.526 744.022 562.719C747.027 562.214 750.55 561.514 753.544 561.246C743.829 570.81 726.645 579.014 712.992 579.348C683.715 580.063 652.689 566.941 625.418 557.4C621.592 554.321 610.157 548.594 605.144 545.883C595.263 540.54 586.594 535.604 577.008 529.659Z" fill="#FDE4CF"/>
<path d="M424.023 663.745C432.857 648.959 441.016 634.146 449.562 619.208L471.682 580.971C480.096 566.1 489.532 547.936 498.929 534.078C501.042 535.144 503.062 535.707 505.309 536.435C498.483 548.486 433.168 666.559 431.673 667.43C428.451 665.295 427.543 664.988 424.023 663.745Z" fill="#E6DFD5"/>
<path d="M256.06 539.937C253.602 540.347 251.23 541.115 249.342 539.312L249.546 537.6C251.749 537.395 255.58 536.415 256.716 538.473L256.06 539.937Z" fill="black"/>
<path d="M769.827 545.422C767.525 545.212 766.379 545.454 765.215 543.321C765.377 541.543 765.706 541.275 766.7 539.824C769.095 540.243 770.253 540.317 771.549 542.48C771.213 544.384 771.341 543.773 769.827 545.422Z" fill="black"/>
<path d="M753.543 561.245C755.784 560.298 758.714 558.384 760.575 557.737C769.644 554.582 781.817 549.185 790.771 546.656C773.813 686.678 655.554 792.353 514.514 793.516C513.494 789.829 507.824 781.657 505.756 777.844C503.789 774.329 502.121 770.598 500.501 766.91C474.812 708.411 460.273 621.306 518.608 576.863C541.597 559.348 568.067 550.918 596.957 553.586C606.493 554.466 615.935 556.146 625.417 557.399C652.688 566.94 683.714 580.062 712.991 579.347C726.644 579.013 743.828 570.809 753.543 561.245ZM764.34 565.92C763.197 566.854 763.023 568.536 763.949 569.685C764.876 570.834 766.557 571.019 767.712 570.1C768.878 569.172 769.065 567.473 768.13 566.313C767.194 565.153 765.493 564.977 764.34 565.92ZM755.741 591.402C754.895 591.882 754.387 592.795 754.425 593.768C754.463 594.741 755.04 595.611 755.921 596.025C756.802 596.438 757.841 596.326 758.613 595.734C759.7 594.901 759.956 593.368 759.2 592.227C758.443 591.086 756.932 590.725 755.741 591.402ZM687.216 610.232C686.992 610.874 686.329 612.086 686.636 612.704C687.913 615.275 745.248 650.41 749.767 651.185C750.103 651.243 750.444 651.261 750.782 651.299C751.94 647.524 750.045 647.16 746.61 645.059C727.558 633.405 708.341 621.882 689.218 610.386C688.94 610.219 687.438 610.232 687.216 610.232ZM744.775 618.239C744.44 620.775 744.158 620.154 745.053 622.193C746.529 623.424 747.983 623.538 749.901 623.793C749.906 621.872 750.062 621.382 748.992 619.772C747.416 618.602 746.683 618.611 744.775 618.239ZM721.512 658.679C719.89 660.427 720.058 659.733 719.836 661.721C720.642 663.335 722.403 664.168 723.986 665.168C725.408 663.13 725.179 664.037 725.194 661.704C724.248 659.911 723.486 659.269 721.512 658.679ZM703.762 682.683C703.07 684.923 702.967 684.197 703.46 686.24C704.695 687.598 705.484 687.698 707.212 688.299C708.024 686.04 708.069 686.829 707.688 684.665C706.554 683.211 705.632 682.923 703.762 682.683ZM610.591 683.237C609.011 684.711 608.914 684.34 608.443 686.096C608.895 687.321 612.335 693.609 613.193 694.654C616.856 699.117 626.997 721.005 630.34 723.177C632.022 721.637 631.986 722.155 632.35 720.341C630.937 716.33 613.153 684.74 610.591 683.237ZM683.208 702.186C682.631 704.647 682.553 703.67 683.215 706.072C684.555 707.554 684.885 707.738 686.886 707.994C688.045 705.815 687.938 706.737 687.591 704.476C686.381 702.712 685.345 702.218 683.208 702.186ZM511.856 718.262C511.814 728.551 512.114 738.932 512.312 749.223C512.362 751.812 512.298 759.946 512.783 761.886C514.254 762.67 514.845 762.341 516.82 762.089C516.8 756.451 516.823 721.083 515.179 718.849C513.598 718.185 513.518 718.276 511.856 718.262ZM661.191 720.232C660.47 721.991 660.27 722.054 660.677 723.939C662.098 725.92 663.055 726.02 665.334 726.189C666.949 722.227 664.823 720.852 661.191 720.232ZM641.635 731.461C639.732 732.734 639.511 732.42 638.809 734.149C640.154 737.927 646.268 747.186 648.817 750.927C650.07 749.845 651.093 749.257 651.466 747.698C650.609 745.573 642.931 732.851 641.635 731.461ZM618.99 748.131C618.051 749.646 617.763 749.78 617.81 751.56C618.613 753.322 619.532 753.781 621.341 754.407C622.593 752.206 622.368 753.333 622.211 750.938C621.264 749.283 620.834 748.841 618.99 748.131ZM591.975 758.126C590.875 759.655 590.562 759.866 590.557 761.77C591.62 763.8 591.998 764.036 594.357 764.6C595.264 762.682 595.378 762.748 595.034 760.742C594.058 759.105 593.829 758.839 591.975 758.126ZM562.625 766.203C562.492 768.275 562.352 768.591 563.133 770.43C564.459 771.562 564.465 771.676 566.602 771.749C566.854 769.82 567.032 769.408 566.35 767.551C564.925 766.321 564.963 766.353 562.625 766.203ZM537.011 771.808C536.14 772.093 535.492 772.826 535.315 773.726C535.139 774.625 535.462 775.549 536.161 776.142C536.86 776.735 537.824 776.903 538.683 776.583C539.973 776.101 540.641 774.676 540.186 773.377C539.731 772.077 538.32 771.38 537.011 771.808ZM511.063 773.135C509.895 775.259 509.837 774.633 509.973 776.703C511.082 778.117 511.466 778.229 512.991 779.095C514.048 777.57 514.091 777.659 514.195 775.707C513.434 773.936 513.193 773.379 511.063 773.135Z" fill="#98F5E1"/>
<path d="M899.795 569.792L898.836 569.721C894.829 566.854 887.651 562.773 889.095 557.312C894.036 557.68 898.983 560.647 900.965 565.371C901.546 566.755 900.377 568.509 899.795 569.792Z" fill="#EFEEE3"/>
<path d="M259.896 565.972C258.272 566.374 255.985 567.068 254.492 566.098C254.358 564.467 254.235 565.286 255.267 563.651C257.36 563.482 258.951 563.299 260.873 564.201L261.068 565.008L259.896 565.972Z" fill="black"/>
<path d="M767.713 570.103C766.558 571.022 764.877 570.837 763.95 569.688C763.024 568.539 763.198 566.857 764.341 565.923C765.494 564.98 767.195 565.156 768.131 566.316C769.066 567.476 768.879 569.175 767.713 570.103Z" fill="black"/>
<path d="M263.151 594.484L261.328 593.706L261.07 592.84C262.289 591.472 264.869 590.68 266.67 589.953C268.02 590.545 267.561 590.242 268.565 591.351L268.378 592.22C266.58 593.728 265.44 593.847 263.151 594.484Z" fill="black"/>
<path d="M758.614 595.735C757.842 596.327 756.803 596.439 755.922 596.026C755.041 595.612 754.464 594.742 754.426 593.769C754.388 592.796 754.896 591.883 755.742 591.403C756.933 590.726 758.444 591.087 759.201 592.228C759.957 593.369 759.701 594.902 758.614 595.735Z" fill="black"/>
<path d="M750.782 651.302C750.444 651.264 750.103 651.246 749.767 651.188C745.248 650.413 687.913 615.278 686.636 612.707C686.329 612.089 686.992 610.877 687.216 610.235C687.438 610.235 688.94 610.222 689.218 610.389C708.341 621.885 727.558 633.408 746.61 645.062C750.045 647.163 751.94 647.527 750.782 651.302Z" fill="black"/>
<path d="M184.508 612.924C185.514 612.505 186.588 611.835 187.701 612.57C199.222 620.181 209.784 629.308 221.43 636.781C224.796 638.94 229.645 642.972 233.677 641.989C239.554 654.431 245.619 666.366 253.049 677.964C293.071 740.432 355.989 789.286 427.328 810.443C422.717 813.538 419.012 815.744 414.398 818.472C408.142 822.171 390.48 828.72 387.282 833.782C289.324 795.262 214.539 713.809 184.508 612.924Z" fill="#8EECF5"/>
<path d="M277.83 649.902C276.163 649.238 275.747 648.61 275.566 646.984C277.592 645.017 293.444 636.122 296.769 634.195C309.842 626.617 323.384 619.212 336.355 611.418L337.672 611.748C338.719 613.021 338.462 612.31 338.478 613.952C336.219 616.912 286.001 645.059 277.83 649.902Z" fill="black"/>
<path d="M784.838 910.308C782.921 910.153 782.211 910.134 781.576 908.352C782.901 905.152 802.185 898.971 806.838 897.187C860.431 876.635 903.099 830.845 925.052 778.38C941.875 738.173 947.052 691.752 931.41 650.346C926.967 638.56 922.42 627.856 916.208 616.872C915.574 615.752 916.541 614.699 917.152 613.703C917.888 613.767 919.392 613.904 919.84 614.405C930.018 627.481 937.856 649.076 941.567 665.111C963.273 758.894 900.814 864.481 813.479 900.244C803.888 904.172 794.84 907.962 784.838 910.308Z" fill="#EFEEE3"/>
<path d="M273.832 621.402C272.554 621.568 272.568 621.465 271.321 621.035L271.098 620.235C272.207 618.396 272.746 618.363 274.818 617.422C276.425 617.343 276.375 617.229 277.721 618.052L277.771 618.779C276.604 620.523 275.898 620.572 273.832 621.402Z" fill="black"/>
<path d="M749.901 623.796C747.983 623.541 746.529 623.427 745.053 622.196C744.158 620.157 744.44 620.778 744.775 618.242C746.683 618.614 747.416 618.605 748.992 619.775C750.062 621.385 749.906 621.875 749.901 623.796Z" fill="black"/>
<path d="M723.988 665.169C722.405 664.169 720.644 663.336 719.838 661.722C720.06 659.734 719.892 660.428 721.514 658.68C723.488 659.27 724.25 659.912 725.196 661.705C725.181 664.038 725.41 663.131 723.988 665.169Z" fill="black"/>
<path d="M299.84 667.63C298.871 667.255 298.958 667.108 298.129 666.284L298.271 665.275C299.745 663.849 301.524 663.356 303.465 662.578C304.612 662.7 304.253 662.694 305.353 663.386L305.213 664.295C303.497 665.99 301.993 666.555 299.84 667.63Z" fill="black"/>
<path d="M429.139 673.303C426.276 671.786 422.559 670.842 421.482 668.075L422.749 666.16C426.799 668.051 430.586 668.523 429.139 673.303Z" fill="#E1D9EC"/>
<path d="M399.33 713.976C403.345 703.269 407.214 692.797 410.363 681.799C411.509 677.795 412.933 672.929 415.046 669.379C419.047 670.152 430.115 675.686 430.316 680.573C429.394 683.473 411.77 700.463 408.06 704.351L399.33 713.976Z" fill="#CFBAF0"/>
<path d="M317.77 688.985C316.033 688.245 316.522 688.848 315.807 687.503C316.468 685.671 318.85 684.162 320.482 682.871C321.048 682.95 321.542 683.23 322.101 683.469L322.374 684.469C321.341 686.323 319.454 687.596 317.77 688.985Z" fill="black"/>
<path d="M707.213 688.3C705.485 687.699 704.696 687.599 703.461 686.241C702.968 684.198 703.071 684.924 703.763 682.684C705.633 682.924 706.555 683.212 707.689 684.666C708.07 686.83 708.025 686.041 707.213 688.3Z" fill="black"/>
<path d="M630.34 723.178C626.997 721.006 616.856 699.118 613.193 694.655C612.335 693.61 608.895 687.322 608.443 686.097C608.914 684.341 609.011 684.712 610.591 683.238C613.153 684.741 630.937 716.331 632.35 720.342C631.986 722.156 632.022 721.638 630.34 723.178Z" fill="black"/>
<path d="M686.888 707.995C684.887 707.739 684.557 707.555 683.217 706.073C682.555 703.671 682.633 704.648 683.21 702.188C685.347 702.22 686.383 702.714 687.593 704.478C687.94 706.739 688.047 705.816 686.888 707.995Z" fill="black"/>
<path d="M338.321 709.997C336.826 709.532 337.437 709.939 336.43 708.728C336.58 706.247 338.87 704.48 340.658 702.895C342.602 703.883 342.076 703.163 342.77 704.74C342.171 706.714 339.9 708.488 338.321 709.997Z" fill="black"/>
<path d="M516.821 762.093C514.846 762.345 514.255 762.674 512.784 761.89C512.299 759.95 512.363 751.816 512.313 749.227C512.115 738.936 511.815 728.555 511.857 718.266C513.519 718.28 513.599 718.189 515.18 718.853C516.824 721.087 516.801 756.455 516.821 762.093Z" fill="black"/>
<path d="M665.336 726.191C663.057 726.022 662.1 725.922 660.679 723.941C660.272 722.056 660.472 721.993 661.193 720.234C664.825 720.854 666.951 722.229 665.336 726.191Z" fill="black"/>
<path d="M360.364 728.269C358.874 728.054 358.289 727.706 357.648 726.48C358.188 724.585 360.073 722.826 361.444 721.289C362.987 721.388 363.489 721.327 364.285 722.516C363.895 724.424 361.697 726.658 360.364 728.269Z" fill="black"/>
<path d="M376.858 750.111C374.573 749.29 374.683 749.744 373.547 748.129C374.036 744.715 382.105 733.63 384.577 730.707C386.583 731.411 385.864 730.79 386.895 732.527C386.937 735.932 379.181 747.561 376.858 750.111Z" fill="black"/>
<path d="M648.819 750.931C646.27 747.19 640.156 737.931 638.811 734.153C639.513 732.424 639.734 732.738 641.637 731.465C642.933 732.855 650.611 745.577 651.468 747.702C651.095 749.261 650.072 749.849 648.819 750.931Z" fill="black"/>
<path d="M403.86 754.832C402.035 754.458 402.076 754.566 401.251 753.227C401.173 751.05 402.61 748.223 403.479 746.078C405.421 746.596 405.657 746.777 406.402 748.478C406.324 750.691 404.93 752.785 403.86 754.832Z" fill="black"/>
<path d="M621.342 754.409C619.533 753.783 618.614 753.324 617.811 751.562C617.764 749.782 618.053 749.648 618.992 748.133C620.836 748.843 621.265 749.285 622.212 750.94C622.369 753.335 622.594 752.208 621.342 754.409Z" fill="black"/>
<path d="M429.73 764.544C427.941 764.02 428.55 764.537 427.629 763.24C427.403 761.055 428.51 758.873 429.316 756.727C431.633 757.849 431.393 757.503 432.077 759.232C431.933 761.367 430.862 762.675 429.73 764.544Z" fill="black"/>
<path d="M594.359 764.603C592 764.039 591.622 763.803 590.559 761.773C590.564 759.869 590.877 759.658 591.977 758.129C593.831 758.842 594.06 759.108 595.036 760.745C595.38 762.751 595.266 762.685 594.359 764.603Z" fill="black"/>
<path d="M457.233 773.279C452.401 771.786 454.103 769.185 455.942 765.711C457.905 766.028 457.115 765.616 458.511 766.74C459.204 769.106 458.233 771.059 457.233 773.279Z" fill="black"/>
<path d="M566.602 771.749C564.465 771.676 564.459 771.562 563.133 770.43C562.352 768.591 562.492 768.275 562.625 766.203C564.963 766.353 564.925 766.321 566.35 767.551C567.032 769.408 566.854 769.82 566.602 771.749Z" fill="black"/>
<path d="M485.676 777.308C483.6 776.913 483.532 776.794 482.651 775.042C482.633 772.924 483.136 772.139 483.953 770.117C488.472 770.846 487.013 774.42 485.676 777.308Z" fill="black"/>
<path d="M538.685 776.585C537.826 776.905 536.862 776.737 536.163 776.144C535.464 775.551 535.141 774.627 535.317 773.728C535.494 772.828 536.142 772.095 537.013 771.81C538.322 771.382 539.733 772.079 540.188 773.379C540.643 774.678 539.975 776.103 538.685 776.585Z" fill="black"/>
<path d="M512.992 779.097C511.467 778.231 511.083 778.119 509.974 776.705C509.838 774.635 509.896 775.261 511.064 773.137C513.194 773.381 513.435 773.938 514.196 775.709C514.092 777.661 514.049 777.572 512.992 779.097Z" fill="black"/>
<path d="M183.136 803.68C178.464 803.204 168.587 798.66 166.22 794.444C166.153 792.45 166.117 793.136 167.198 791.18C170.962 791.422 182.337 797.008 184.139 800.307C184.287 801.957 183.94 802.207 183.136 803.68Z" fill="#EFEEE3"/>
<path d="M427.327 810.441C463.914 820.099 491.702 824.213 530.045 821.713C532.025 822.579 532.838 825.08 534.398 826.995C541.971 836.289 549.895 845.246 557.452 854.557C499.885 862.181 441.324 855.031 387.281 833.78C390.479 828.718 408.141 822.169 414.397 818.47C419.011 815.742 422.716 813.536 427.327 810.441Z" fill="#EFEEE3"/>
<defs>
<linearGradient id="paint0_linear_2293_93663" x1="792.702" y1="401.403" x2="253.458" y2="389.425" gradientUnits="userSpaceOnUse">
<stop stop-color="#FCF0B2"/>
<stop offset="1" stop-color="#F8B0D0"/>
</linearGradient>
</defs>
</svg>
