<svg width="1024" height="1024" viewBox="0 0 1024 1024" fill="none" xmlns="http://www.w3.org/2000/svg">
<path d="M416.083 205.881C413.328 202.966 407.847 199.764 404.3 197.503C392.283 189.838 379.559 184.813 366.265 179.943C358.529 177.11 349.417 174.372 342.288 170.47C337.488 167.842 332.256 162.839 329.839 157.853C326.365 150.686 326.86 143.594 329.193 136.258C333.04 124.164 346.914 113.557 357.793 108.1C368.407 102.775 383.083 100.077 394.73 97.3967C406.942 94.5872 418.574 92.1587 431.307 92.4402C466.306 93.2139 495.977 113.29 526.674 127.438C537.648 132.495 552.822 137.957 564.381 141.929C536.831 156.273 514.296 170.643 492.425 192.993C490.667 194.789 484.595 200.964 483.818 202.606C463.81 204.895 446.966 206.786 427.517 212.438C423.214 210.211 420.191 208.482 416.083 205.881Z" fill="#FBF8CC"/>
<path d="M708.416 125.945C710.807 123.931 717.85 122.002 721.131 120.957C770.916 105.097 824.055 99.9539 861.54 145.074C881.778 169.434 899.747 209.276 902.967 242.634C902.945 242.861 902.923 243.088 902.902 243.315C898.654 238.298 894.695 232.549 890.502 227.377C845.814 172.266 777.378 139.062 708.416 125.945Z" fill="#FBF8CC"/>
<path d="M564.379 141.926C575.25 138.342 584.466 134.239 595.958 131.092C631.342 121.403 672.321 119.418 708.415 125.943C777.377 139.06 845.813 172.264 890.501 227.375C894.694 232.547 898.653 238.296 902.901 243.313C907.464 250.157 912.803 257.607 916.79 264.727C943.184 311.853 957.736 385.269 922.746 431.553C913.69 442.148 898.17 453.579 884.792 458.052C849.694 471.89 815.736 487.304 800.43 524.455C787.152 556.684 787.109 593.016 794.912 626.84C804.169 662.642 819.42 690.673 821.958 728.473C821.665 760.967 814.865 782.226 793.939 808.095C754.289 857.11 687.8 872.392 627.737 862.456C624.141 861.857 618.62 861.756 616.555 858.352C617.068 854.751 624.401 856.282 627.027 856.789C655.363 862.261 679.66 861.086 707.882 854.878C756.333 844.219 797.839 808.847 813.193 761.197C816.288 751.543 816.541 740.022 816.398 729.9C816.631 704.531 804.458 674.735 796.459 651.188C791.184 635.658 786.59 619.152 785 603.001C782.641 579.027 783.271 556.797 790.841 533.876C802.587 498.312 819.145 486.019 848.233 466.193C861.472 457.17 883.62 438.136 893.235 426.177C896.729 422.081 902.915 413.252 905.699 408.647C914.63 391.709 921.36 372.556 918.716 353.133C918.396 350.787 916.785 342.83 916.814 340.094C917.207 339.769 917.599 339.445 917.992 339.121C920.239 338.764 919.196 338.629 921.247 339.458C923.965 342.885 924.447 357.194 924.585 361.912C925.115 380.059 918.337 397.359 909.166 412.736C901.245 425.034 897.959 428.995 888.141 439.923C882.159 444.585 877.011 450.169 871.068 454.906C869.303 456.314 864.705 459.055 864.142 460.816L864.163 460.065L863.717 460.814C867.246 460.439 882.741 453.061 886.518 451.126C900.107 444.475 909.994 439.125 919.384 426.663C929.156 414.253 933.8 398.912 936.422 383.493C943.315 342.946 927.816 288.983 903.947 255.638C899.592 249.382 895.016 242.827 890.413 236.78C844.123 175.97 766.881 139.259 692.137 129.58C660.832 124.488 602.593 129.963 574.15 144.781C548.37 155.372 524.84 170.67 504.409 189.548C501.396 192.332 494.071 199.068 491.898 202.182C488.964 202.485 486.753 202.546 483.816 202.603C484.593 200.961 490.665 194.786 492.423 192.99C514.294 170.64 536.829 156.27 564.379 141.926Z" fill="#B1AABD"/>
<path d="M574.15 144.781C602.593 129.963 660.832 124.488 692.137 129.58C688.819 131.811 676.397 135.816 672.136 137.296C641.619 147.893 614.026 153.34 581.803 146.743C579.769 146.327 576.014 145.579 574.15 144.781Z" fill="#E6DFD5"/>
<path d="M692.137 129.582C766.881 139.261 844.123 175.972 890.413 236.782C895.016 242.829 899.592 249.384 903.947 255.64C905.132 292.728 904.323 322.194 891.407 357.619C887.028 369.629 885.075 376.675 876.864 386.986C847.375 372.311 826.399 368.812 794.5 379.622C766.625 389.069 742.231 405.072 717.565 420.757C712.909 423.718 708.418 427.235 703.816 430.157C698.91 433.271 693.318 436.314 688.223 439.17C677.546 421.295 665.039 401.91 647.425 389.767C644.19 387.536 637.369 384.985 633.617 383.527C635.407 380.203 638.551 375.698 640.685 372.441C656.417 383.864 671.896 396.338 687.452 408.06C694.511 413.38 700.77 419.864 708.313 424.853C716.57 413.577 721.114 398.164 721.429 384.34C722.049 357.171 712.012 335.999 693.863 316.531C704.292 302.146 695.309 288.97 677.892 287.875C672.868 287.56 667.646 292.133 664.379 295.845L657.6 292.808C644.088 275.409 646.224 245.668 627.149 229.232C594.958 201.496 531.247 201.444 491.898 202.184C494.071 199.07 501.396 192.334 504.409 189.55C524.84 170.672 548.37 155.374 574.15 144.783C576.014 145.581 579.769 146.329 581.803 146.745C614.026 153.342 641.619 147.895 672.136 137.298C676.397 135.818 688.819 131.813 692.137 129.582ZM692.426 218.071C678.49 221.498 681.54 235.964 693.388 237.04C706.193 233.603 704.89 217.774 692.426 218.071ZM777.703 295.21C769.57 295.629 751.252 296.981 743.453 301.35C742.919 301.649 742.942 302.604 742.81 303.391C743.527 305.382 742.916 304.689 744.395 305.778C748.873 306.114 756.307 302.951 761.038 302.26C773.643 300.419 783.961 299.964 796.613 301.589C807.153 303.195 816.583 305.744 826.755 308.904C827.804 309.229 827.976 308.909 828.771 308.393C829.433 306.851 829.551 306.925 829.221 305.319C821.248 298.038 789.233 294.763 777.703 295.21ZM857.64 319.64C854.6 320.643 852.953 323.925 853.965 326.962C854.977 329.999 858.263 331.637 861.298 330.616C864.32 329.6 865.95 326.33 864.942 323.305C863.934 320.279 860.668 318.64 857.64 319.64Z" fill="#FBF8CC"/>
<path d="M272.783 173.963C271.621 172.74 271.607 172.58 270.833 171.139C270.69 162.636 291.71 151.714 298.436 148.918C299.904 149.991 300.435 150.734 300.551 152.556C299.239 155.845 286.345 160.488 282.821 164.021C280.309 166.539 275.365 172.698 272.783 173.963Z" fill="#B1AABD"/>
<path d="M246.888 183.195C244.953 183.583 244.389 183.882 242.589 183.075C240.303 180.458 240.986 178.505 242.948 175.918C248.159 176.067 249.612 178.966 246.888 183.195Z" fill="#B1AABD"/>
<path d="M249.814 204.657C255.272 201.251 263.601 198.051 269.494 195.301C298.595 181.723 325.01 177.393 356.668 185.057C371.771 188.713 384.648 192.693 399.327 198.58C404.177 200.525 411.679 204.272 416.081 205.88C420.189 208.481 423.212 210.21 427.515 212.437C423.808 213.89 419.822 215.543 416.083 216.866C385.363 227.735 371.399 255.273 364.919 285.263C359.153 286.482 354.133 287.795 348.516 289.598C340.879 274.412 322.796 276.689 316.541 292.15C314.613 296.914 317.948 302.427 320.763 306.343C301.937 323.908 287.291 341.738 284.432 368.45C266.763 370.695 239.455 380.925 224.834 391.442C225.046 373.483 223.188 359.912 219.926 342.209C216.559 323.938 211.134 300.556 211.636 281.846C212.808 260.218 214.045 234.109 230.838 218.317C236.452 213.038 244.699 209.975 249.814 204.657ZM266.966 232.547C258.749 238.554 261.29 248.044 271.605 247.503C279.212 242.377 277.576 232.112 266.966 232.547Z" fill="#90DBF4"/>
<path d="M220.875 220.583C226.445 215.38 237.974 204.665 246.015 202.79C247.405 202.466 248.725 203.737 249.814 204.657C244.699 209.975 236.452 213.038 230.838 218.317C214.045 234.109 212.808 260.218 211.636 281.846C211.134 300.556 216.559 323.938 219.926 342.209C223.188 359.912 225.046 373.483 224.834 391.442C222.212 435.823 199.19 468.322 158.237 485.876C176.918 523.318 207.606 545.638 228.786 580.064C254.311 621.55 243.221 672.292 244.938 717.945C245.238 725.998 246.038 738.533 247.68 746.372C258.891 823.474 325.371 876.713 396.45 897.298C406.706 900.269 415.703 903.116 426.348 904.843C483.95 917.633 554.746 915.053 604.086 879.042C609.853 874.833 613.937 869.845 618.962 864.986C621.171 865.749 621.915 865.8 623.193 867.796C609.011 889.964 570.317 905.519 545.228 911.027C503.558 920.175 460.47 919.411 419.033 909.251C416.091 908.533 409.048 906.631 406.18 906.571C403.561 905.201 398.694 904.02 395.745 903.104C316.7 878.553 256.319 828.113 241.574 744.233C239.596 730.674 238.65 714.24 239.066 700.79C240.445 656.115 246.255 611.645 217.692 573.13C200.935 550.534 180.024 530.548 163.905 507.318C159.836 501.455 156.326 494.431 152.98 488.005C101.2 510.881 92.8929 554.832 102 606.536C102.904 611.671 108.85 628.719 108.405 631.663C107.432 632.884 108.058 632.499 106.391 632.725C104.69 632.022 103.434 630.441 102.805 628.701C92.3491 599.773 89.2398 562.945 99.7102 533.964C109.342 507.304 126.367 494.878 150.759 483.977C146.012 476.13 142.296 468.709 138.518 460.361C152.344 455.439 173.432 439.21 180.313 426.414C185.322 419.618 188.933 409.403 191.392 401.555C202.858 364.959 187.01 332.77 179.797 297.303C176.687 282.011 177.311 272.465 177.301 257.382C181.061 230.146 195.143 207.929 220.329 195.914L223.158 201.038C202.247 209.634 187.87 228.756 184.276 250.989C175.023 299.456 205.873 339.242 200.045 387.161C198.932 396.313 194.993 408.22 191.513 416.897C180.855 439.178 167.222 451.634 145.812 463.036C148.413 469.234 151.78 476.424 155.056 482.293C192.319 462.502 215.88 440.381 218.963 395.632C219.09 381.848 218.608 369.9 216.618 356.195C213.336 332.409 206.521 309.163 206.525 284.986C206.529 261.508 208.662 241.149 220.875 220.583Z" fill="url(#paint0_linear_2293_94213)"/>
<path d="M491.898 202.183C531.247 201.443 594.958 201.495 627.149 229.231C646.224 245.667 644.088 275.408 657.6 292.807L664.379 295.844C667.646 292.132 672.868 287.559 677.892 287.874C695.309 288.969 704.292 302.145 693.863 316.53C712.012 335.998 722.049 357.17 721.429 384.339C721.114 398.163 716.57 413.576 708.313 424.852C700.77 419.863 694.511 413.379 687.452 408.059C671.896 396.337 656.417 383.863 640.685 372.44C638.551 375.697 635.407 380.202 633.617 383.526C637.369 384.984 644.19 387.535 647.425 389.766C665.039 401.909 677.546 421.294 688.223 439.169C729.177 517.209 719.246 610.86 661.408 677.332C655.24 684.42 648.166 690.874 641.342 697.324C645.905 710.67 649.045 722.692 652.768 736.169C654.94 743.953 662.706 764.68 657.406 771.302C640.696 792.178 624.957 764.16 614.565 752.479C606.708 743.393 601.403 736.526 594.571 728.856C590.783 730.321 587.208 731.962 583.5 733.597C564.652 741.905 543.916 746.652 523.48 748.68C519.097 749.216 510.513 749.381 507.291 749.933C465.788 750.03 439.429 741.892 402.674 723.793C401.002 726.504 399.056 729.357 397.299 732.042L395.62 733.847C393.039 734.314 378.634 757.806 375.263 758.372C375.399 753.907 392.656 736.465 393.789 729.943C394.779 727.896 395.862 726.031 396.979 724.056C397.342 723.382 397.479 722.79 397.721 722.05C396.444 719.625 384.727 713.338 381.642 711.537C381.173 711.001 373.574 705.474 372.505 704.687C370.179 703.271 364.31 694.613 360.242 694.094C358.378 692.906 351.12 685.48 349.394 683.521C311.688 640.753 287.38 582.837 290.646 525.257C293.056 482.775 311.089 439.895 338.428 407.486C347.583 396.634 357.624 387.547 368.064 378.105C365.438 374.554 362.899 371.265 360.141 367.815C353.742 371.482 346.733 377.156 340.951 381.795L315.638 402.084C309.929 406.74 302.058 413.555 296.026 417.512C285.731 403.228 282.73 385.709 284.432 368.449C287.291 341.737 301.937 323.907 320.763 306.342C317.948 302.426 314.613 296.913 316.541 292.149C322.796 276.688 340.879 274.411 348.516 289.597C354.133 287.794 359.153 286.481 364.919 285.262C371.399 255.272 385.363 227.734 416.083 216.865C419.822 215.542 423.808 213.889 427.515 212.436C446.964 206.784 463.808 204.893 483.816 202.604C486.753 202.547 488.964 202.486 491.898 202.183ZM488.471 205.487L478.753 206.382C464.227 207.887 442.353 210.895 428.591 215.729C405.261 223.302 390.459 232.175 378.678 254.845C374.337 263.196 370.178 275.235 368.106 284.571C371.533 284.487 375.131 284.338 378.542 284.318C386.308 253.475 405.881 231.426 437.353 224.059C447.06 221.33 461.519 219.15 471.431 217.704C474.673 217.436 477.755 217.162 480.984 216.772C516.083 213.208 554.755 215.75 588.4 224.289C616.347 231.381 626.927 244.555 632.91 271.263C633.954 275.925 637.485 286.24 639.86 290.14C644.061 290.987 649.082 291.578 653.379 292.19C642.005 271.257 640.649 244.775 623.524 229.958C594.576 204.912 524.259 203.972 488.471 205.487ZM475.268 220.493C473.386 220.608 466.038 221.248 464.615 221.767C456.327 223.01 449.045 224.647 440.87 226.254C419.269 232.763 401.266 242.303 390.711 262.934C387.211 269.775 383.789 276.598 381.879 284.126C396.163 285.273 405.694 286.814 418.349 293.836C427.593 300.226 434.958 309.577 440.192 319.474C419.397 331.445 397.659 341.956 378.15 355.507C382.541 358.975 383.741 360.275 386.653 365.133C419.323 344.832 447.355 335.318 485.609 330.689C488.793 330.389 493.032 330.315 496.302 330.162C496.534 324.208 496.421 317.503 496.432 311.496C490.713 309.805 485.643 308.495 480.167 306.066C475.763 302.592 474.341 299.593 476.064 294.086C483.31 287.267 495.234 286.001 504.431 286.395C512.014 286.721 527.537 289.587 532.495 295.517C542.211 307.136 522.999 310.491 516.806 311.426C516.523 317.754 516.549 324.161 516.508 330.5C526.036 331.455 534.124 332.649 543.567 334.265C568.607 340.21 599.97 349.72 617.49 369.292C619.326 365.781 621.153 362.673 623.182 359.265C607.175 346.617 586.613 333.717 569.767 321.138C570.799 319.652 571.464 318.917 572.74 317.662C590.813 299.888 610.322 289.993 635.79 289.965C633.875 284.915 632.034 279.84 630.551 274.645C626.79 261.468 624.278 248.421 613.231 239.233C591.158 220.875 531.835 217.894 503.418 218.465C494 218.655 484.637 219.571 475.268 220.493ZM460.025 338.169C352.234 361.361 274.051 465.929 297.919 576.587C309.007 627.997 341.433 681.39 386.142 710.354C391.722 713.905 400.13 718.941 406.161 721.235C410.799 724.452 420.872 729.07 426.302 731.312C463.013 746.475 501.926 750.07 540.896 742.995C554.805 740.47 572.65 735.983 585.167 729.293C590.975 727.581 609.101 717.169 614.518 713.612C660.104 683.674 694.032 636.183 705.249 582.643C715.356 535.889 708.502 484.775 686.195 442.424C677.513 426.002 662.572 405.148 647.517 393.778C644.209 391.28 638.215 389.432 634.63 387.47C631.529 385.865 628.662 382.692 625.795 380.891C617.281 375.542 612.232 366.399 603.936 361.177C567.888 338.489 523.299 330.298 481.203 334.45C474.115 335.149 466.984 336.713 460.025 338.169ZM371.982 355.387C380.867 349.627 389.809 343.616 398.993 338.366C410.617 331.721 424.906 325.481 435.897 317.97C430.171 309.749 424.275 300.548 415.205 295.818C389.815 282.577 354.972 285.192 331.909 302.019C308.369 319.193 291.818 339.377 287.374 368.423C286.018 384.342 288.109 399.537 296.575 413.403C312.062 402.027 326.66 387.741 342.368 376.325C352.28 369.121 361.844 362.277 371.982 355.387ZM598.326 726.681L601.467 730.338L619.618 752.288C624.95 758.845 629.103 764.21 635.396 770.245C642.414 776.976 655.278 775.5 655.362 764.882C655.429 756.382 650.753 744.817 648.789 736.111C644.914 724.074 642.285 712.165 637.953 699.854C624.102 712.073 614.467 718.158 598.326 726.681ZM332.905 282.555C322.148 285.824 313.875 293.845 323.525 303.959C325.167 302.818 327.209 301.481 328.723 300.233C334.169 296.402 338.974 293.226 344.937 290.24C341.644 284.958 339.386 282.887 332.905 282.555ZM498.067 289.699C493.941 290.031 477.174 291.62 478.712 298.823C479.885 304.316 491.424 306.829 496.489 308.291C496.976 298.165 502.718 297.464 511.59 299.762L512.148 300.034C516.271 302.091 516.017 303.402 517.327 307.625C521.71 307.944 533.219 305.307 531.968 300.61C529.462 291.197 504.451 289.33 498.067 289.699ZM674.966 291.12C671.53 293.02 670.12 294.21 667.656 297.307C677.119 302.885 681.6 305.692 690.234 312.898L691.338 313.761C693.189 312.824 693.545 311.422 694.222 309.48C698.366 297.6 685.374 289.776 674.966 291.12ZM626.281 293.684C605.643 296.087 588.637 305.741 574.267 320.527C600.127 338.209 626.925 357.901 651.991 376.742C660.676 383.269 676.65 394.871 684.27 401.585C691.062 406.791 701.086 415.622 707.384 419.856C740.082 370.754 695.635 295.044 638.168 293.387C634.563 293.283 629.815 293.137 626.281 293.684ZM503.404 302.066C502.238 302.656 500.249 303.39 500.005 304.723C498.712 311.791 499.571 322.984 499.664 330.106L510.124 330.355L512.518 330.331C513.614 329.084 514.084 306.122 511.69 303.669C510.061 302 505.86 301.947 503.404 302.066ZM375.397 357.376C371.436 359.973 367.295 362.793 363.295 365.284C364.662 367.54 368.91 375.242 371.589 375.626L384.037 367.014C382.419 364.825 377.713 358.531 375.397 357.376ZM625.929 361.327C623.637 364.948 621.861 367.973 619.82 371.741C621.684 373.209 630.073 380.026 631.567 380.698C633.586 377.154 635.555 373.68 637.704 370.209C634.478 367.751 629.153 363.415 625.929 361.327Z" fill="url(#paint1_linear_2293_94213)"/>
<path d="M488.473 205.489C524.261 203.974 594.578 204.914 623.526 229.96C640.651 244.777 642.007 271.259 653.381 292.192C649.084 291.58 644.063 290.989 639.862 290.142C637.487 286.242 633.956 275.927 632.912 271.265C626.929 244.557 616.349 231.383 588.402 224.291C554.757 215.752 516.085 213.21 480.986 216.774C480.122 216.609 480.242 216.594 479.428 216.21C480.326 212.104 486.838 209.109 488.473 205.489Z" fill="#FBF8CC"/>
<path d="M478.754 206.383L488.472 205.488C486.837 209.108 480.325 212.103 479.427 216.209C480.241 216.593 480.121 216.608 480.985 216.773C477.756 217.163 474.674 217.437 471.432 217.705C472.827 214.112 476.814 210.94 478.754 206.383Z" fill="#CCDDE8"/>
<path d="M428.592 215.73C442.354 210.896 464.228 207.888 478.754 206.383C476.814 210.94 472.827 214.112 471.432 217.705C461.52 219.151 447.061 221.331 437.354 224.06C434.455 220.978 431.535 219.073 428.592 215.73Z" fill="#FBF8CC"/>
<path d="M368.107 284.572C370.179 275.236 374.338 263.197 378.679 254.846C390.46 232.176 405.262 223.303 428.592 215.73C431.535 219.073 434.455 220.978 437.354 224.06C405.882 231.427 386.309 253.476 378.543 284.319C375.132 284.339 371.534 284.488 368.107 284.572Z" fill="#8EECF5"/>
<path d="M693.39 237.04C681.542 235.964 678.492 221.498 692.428 218.071C704.892 217.774 706.195 233.603 693.39 237.04ZM691.336 222.126C688.359 222.873 686.513 225.85 687.168 228.849C687.822 231.848 690.74 233.785 693.758 233.224C695.795 232.845 697.465 231.387 698.115 229.42C698.765 227.452 698.292 225.286 696.882 223.769C695.471 222.251 693.346 221.621 691.336 222.126Z" fill="#B1AABD"/>
<path d="M475.269 220.494C484.638 219.572 494.001 218.656 503.419 218.466C531.836 217.895 591.159 220.876 613.232 239.234C624.279 248.422 626.791 261.469 630.552 274.646C632.035 279.841 633.876 284.916 635.791 289.966C610.323 289.994 590.814 299.889 572.741 317.663C571.465 318.918 570.8 319.653 569.768 321.139C586.614 333.718 607.176 346.618 623.183 359.266C621.154 362.674 619.327 365.782 617.491 369.293C599.971 349.721 568.608 340.211 543.568 334.266C541.027 330.032 521.889 320.749 517.03 318.183L516.807 311.427C523 310.492 542.212 307.137 532.496 295.518C527.538 289.588 512.015 286.722 504.432 286.396C495.235 286.002 483.311 287.268 476.065 294.087C475.914 294.041 475.757 294.013 475.613 293.95C469.047 291.094 449.35 249.57 445.708 240.57C444.335 237.219 442.182 230.084 440.871 226.255C449.046 224.648 456.328 223.011 464.616 221.768C463.068 229.138 450.038 232.486 460.7 239.455C466.289 231.735 466.965 227.082 475.269 220.494Z" fill="#FBF8CC"/>
<path d="M464.616 221.766C466.039 221.247 473.387 220.607 475.269 220.492C466.965 227.08 466.289 231.733 460.7 239.453C450.038 232.484 463.068 229.136 464.616 221.766Z" fill="#B1AABD"/>
<path d="M184.278 250.988C189.866 245.548 214.728 223.102 220.877 220.582C208.664 241.148 206.531 261.507 206.527 284.985C206.523 309.162 213.338 332.408 216.62 356.194C218.61 369.899 219.092 381.847 218.965 395.631C212.496 398.104 195.329 416.227 191.515 416.896C194.995 408.219 198.934 396.312 200.047 387.16C205.875 339.241 175.025 299.455 184.278 250.988Z" fill="#90DBF4"/>
<path d="M693.757 233.222C690.739 233.783 687.821 231.846 687.167 228.847C686.512 225.848 688.358 222.871 691.335 222.124C693.345 221.619 695.47 222.249 696.881 223.767C698.291 225.284 698.764 227.45 698.114 229.418C697.464 231.385 695.794 232.843 693.757 233.222Z" fill="#FBF8CC"/>
<path d="M381.881 284.126C383.791 276.598 387.213 269.775 390.713 262.934C401.268 242.303 419.271 232.763 440.872 226.254C442.183 230.083 444.336 237.218 445.709 240.569C439.922 247.822 437.844 248.72 429.672 252.992C426.446 251.765 422.076 250.38 421.117 254.996L421.531 256.025C422.096 261.531 419.976 270.346 419.773 276.291C419.637 280.259 420.151 291.015 418.351 293.836C405.696 286.814 396.165 285.273 381.881 284.126Z" fill="#90DBF4"/>
<path d="M271.605 247.505C261.29 248.046 258.749 238.556 266.966 232.549C277.576 232.114 279.212 242.379 271.605 247.505ZM268.511 237.392C267.005 237.857 266.158 239.452 266.615 240.961C267.072 242.469 268.661 243.326 270.172 242.879C271.697 242.427 272.563 240.821 272.102 239.299C271.641 237.778 270.03 236.922 268.511 237.392Z" fill="#B1AABD"/>
<path d="M270.173 242.878C268.662 243.325 267.073 242.468 266.616 240.96C266.159 239.451 267.006 237.856 268.512 237.391C270.031 236.921 271.642 237.777 272.103 239.298C272.564 240.82 271.698 242.426 270.173 242.878Z" fill="#90DBF4"/>
<path d="M445.707 240.57C449.349 249.57 469.046 291.094 475.612 293.95C475.756 294.013 475.913 294.041 476.064 294.087C474.341 299.594 475.763 302.593 480.167 306.067C479.738 311.474 483.495 325.506 485.609 330.69C447.355 335.319 419.323 344.833 386.653 365.134C383.741 360.276 382.541 358.976 378.15 355.508C397.659 341.957 419.397 331.446 440.192 319.475C434.958 309.578 427.593 300.227 418.349 293.837C420.149 291.016 419.635 280.26 419.771 276.292C419.974 270.347 422.094 261.532 421.529 256.026C433.249 259.623 443.906 266.056 452.285 275.05C454.417 277.339 457.91 283.71 460.561 283.665C462.153 282.666 462.347 282.928 462.935 281.509C462.03 279.069 460.512 277.42 458.985 275.288C451.384 264.67 441.253 258.581 429.67 252.993C437.842 248.721 439.92 247.823 445.707 240.57Z" fill="#B9FBC0"/>
<path d="M421.529 256.025L421.115 254.996C422.074 250.38 426.444 251.765 429.67 252.992C441.253 258.58 451.384 264.669 458.985 275.287C460.512 277.419 462.03 279.068 462.935 281.508C462.347 282.927 462.153 282.665 460.561 283.664C457.91 283.709 454.417 277.338 452.285 275.049C443.906 266.055 433.249 259.622 421.529 256.025Z" fill="#98F5E1"/>
<path d="M903.948 255.641C927.817 288.986 943.316 342.949 936.423 383.496C933.801 398.915 929.157 414.255 919.385 426.665C915.929 421.701 912.913 417.497 909.167 412.738C918.338 397.361 925.116 380.062 924.586 361.915C924.448 357.197 923.966 342.888 921.248 339.461C919.197 338.632 920.24 338.767 917.993 339.124C917.6 339.448 917.208 339.772 916.815 340.097C916.786 342.833 918.397 350.79 918.717 353.136C921.361 372.559 914.631 391.711 905.7 408.649C901.325 405.737 895.659 401.302 891.814 397.813C886.645 393.338 882.854 390.446 876.865 386.987C885.076 376.676 887.029 369.63 891.408 357.62C904.324 322.195 905.133 292.729 903.948 255.641Z" fill="#E6DFD5"/>
<path d="M138.273 458.918C137.626 454.125 135.338 446.907 134.097 441.9C118.028 377.049 134.912 309.472 177.302 257.383C177.312 272.466 176.688 282.012 179.798 297.304C187.011 332.771 202.859 364.96 191.393 401.556C188.934 409.404 185.323 419.619 180.314 426.415C176.108 428.265 171.124 433.896 167.697 437.091C162.158 442.254 145.267 457.69 138.273 458.918Z" fill="#90DBF4"/>
<path d="M323.525 303.959C313.875 293.845 322.148 285.824 332.905 282.555C339.386 282.887 341.644 284.958 344.937 290.24C338.974 293.226 334.169 296.402 328.723 300.233C327.209 301.481 325.167 302.818 323.525 303.959Z" fill="#CCDDE8"/>
<path d="M371.983 355.388C371.797 355.308 369.259 354.252 369.223 354.255C362.635 354.763 352.806 358.466 346.228 359.684C333.843 361.978 322.23 363.504 309.868 365.269C302.642 366.301 294.336 368.113 287.375 368.424C291.819 339.378 308.37 319.194 331.91 302.02C354.973 285.193 389.816 282.578 415.206 295.819C424.276 300.549 430.172 309.75 435.898 317.971C424.907 325.482 410.618 331.722 398.994 338.367C389.81 343.617 380.868 349.628 371.983 355.388Z" fill="#8EECF5"/>
<path d="M496.49 308.291C491.425 306.829 479.886 304.316 478.713 298.823C477.175 291.62 493.942 290.031 498.068 289.699C504.452 289.33 529.463 291.197 531.969 300.61C533.22 305.307 521.711 307.944 517.328 307.625C516.018 303.402 516.272 302.091 512.149 300.034L511.591 299.762C502.719 297.464 496.977 298.165 496.49 308.291Z" fill="#FBF8CC"/>
<path d="M667.656 297.31C670.12 294.213 671.53 293.023 674.966 291.123C685.374 289.779 698.366 297.602 694.222 309.482C693.545 311.424 693.189 312.826 691.338 313.763L690.234 312.9C681.6 305.694 677.119 302.888 667.656 297.31Z" fill="#FBF8CC"/>
<path d="M574.268 320.528C588.638 305.742 605.644 296.088 626.282 293.685C629.816 293.138 634.564 293.284 638.169 293.388C695.636 295.045 740.083 370.755 707.385 419.857C701.087 415.623 691.063 406.792 684.271 401.586C676.651 394.872 660.677 383.27 651.992 376.743C626.926 357.902 600.128 338.21 574.268 320.528Z" fill="#FBF8CC"/>
<path d="M796.614 301.587C783.962 299.962 773.644 300.417 761.039 302.258C756.308 302.949 748.874 306.112 744.396 305.776C742.917 304.687 743.528 305.38 742.811 303.389C742.943 302.602 742.92 301.647 743.454 301.348C751.253 296.979 769.571 295.627 777.704 295.208C789.234 294.761 821.249 298.036 829.222 305.317C829.552 306.923 829.434 306.849 828.772 308.391C827.977 308.907 827.805 309.227 826.756 308.902C816.584 305.742 807.154 303.193 796.614 301.587Z" fill="#B1AABD"/>
<path d="M499.664 330.107C499.571 322.985 498.712 311.792 500.005 304.724C500.249 303.391 502.238 302.657 503.404 302.067C505.86 301.948 510.061 302.001 511.69 303.67C514.084 306.123 513.614 329.085 512.518 330.332L510.124 330.356L499.664 330.107Z" fill="#FBF8CC"/>
<path d="M480.169 306.066C485.645 308.495 490.715 309.805 496.434 311.496C496.423 317.503 496.536 324.208 496.304 330.162C493.034 330.315 488.795 330.389 485.611 330.689C483.497 325.505 479.74 311.473 480.169 306.066Z" fill="#FBF8CC"/>
<path d="M516.51 330.5C516.551 324.161 516.525 317.754 516.808 311.426L517.031 318.182C521.89 320.748 541.028 330.031 543.569 334.265C534.126 332.649 526.038 331.455 516.51 330.5Z" fill="#B9FBC0"/>
<path d="M861.299 330.617C858.264 331.638 854.978 330 853.966 326.963C852.954 323.926 854.601 320.644 857.641 319.641C860.669 318.641 863.935 320.28 864.943 323.306C865.951 326.331 864.321 329.601 861.299 330.617ZM858.856 323.146C857.659 323.494 856.942 324.715 857.221 325.929C857.5 327.143 858.678 327.929 859.907 327.72C860.766 327.573 861.474 326.963 861.745 326.135C862.017 325.307 861.808 324.396 861.202 323.769C860.596 323.142 859.693 322.903 858.856 323.146Z" fill="#B1AABD"/>
<path d="M859.906 327.718C858.677 327.927 857.499 327.141 857.22 325.927C856.941 324.713 857.658 323.492 858.855 323.144C859.692 322.901 860.595 323.14 861.201 323.767C861.807 324.394 862.016 325.305 861.744 326.133C861.473 326.961 860.765 327.571 859.906 327.718Z" fill="#FBF8CC"/>
<path d="M460.025 338.171C466.984 336.715 474.115 335.151 481.203 334.452C523.299 330.3 567.888 338.491 603.936 361.179C612.232 366.401 617.281 375.544 625.795 380.893C628.662 382.694 631.529 385.867 634.63 387.472C638.215 389.434 644.209 391.282 647.517 393.78C662.572 405.15 677.513 426.004 686.195 442.426C679.257 445.721 663.752 456.086 657.909 458.092C656.421 455.369 654.709 451.95 652.818 449.564C651.981 447.483 650.11 444.914 648.833 442.966C619.928 398.887 573.495 368.901 520.769 363.678C509.334 362.546 498.111 362.975 486.619 363.473C484.792 361.43 481.042 361.617 478.233 358.607C471.849 351.766 466.676 344.924 460.025 338.171Z" fill="#FBF8CC"/>
<path d="M406.162 721.238C400.131 718.944 391.723 713.908 386.143 710.357C341.434 681.393 309.008 628 297.92 576.59C274.052 465.932 352.235 361.364 460.026 338.172C466.677 344.925 471.85 351.767 478.234 358.608C481.043 361.618 484.793 361.431 486.62 363.474C408.617 373.361 347.593 427.107 330.055 504.599C328.884 509.774 327.533 516.38 327.404 521.606C326.089 525.793 326.295 534.613 326.217 539.302C325.282 595.508 352.201 643.919 395.722 678.031C396.255 682.662 399.803 694.578 401.153 699.849C402.664 705.749 404.427 716.088 406.162 721.238Z" fill="#98F5E1"/>
<path d="M287.374 368.423C294.335 368.112 302.641 366.3 309.867 365.268C322.229 363.503 333.842 361.977 346.227 359.683C352.805 358.465 362.634 354.762 369.222 354.254C369.258 354.251 371.796 355.307 371.982 355.387C361.844 362.277 352.28 369.121 342.368 376.325C326.66 387.741 312.062 402.027 296.575 413.403C288.109 399.537 286.018 384.342 287.374 368.423Z" fill="#B9FBC0"/>
<path d="M363.297 365.287C367.297 362.796 371.438 359.976 375.399 357.379C377.715 358.534 382.421 364.828 384.039 367.017L371.591 375.629C368.912 375.245 364.664 367.543 363.297 365.287Z" fill="#B9FBC0"/>
<path d="M619.82 371.742C621.861 367.974 623.637 364.949 625.929 361.328C629.153 363.416 634.478 367.752 637.704 370.21C635.555 373.681 633.586 377.155 631.567 380.699C630.073 380.027 621.684 373.21 619.82 371.742Z" fill="#FBF8CC"/>
<path d="M327.404 521.605C327.533 516.379 328.884 509.773 330.055 504.598C347.593 427.106 408.617 373.36 486.62 363.473C498.112 362.975 509.335 362.546 520.77 363.678C573.496 368.901 619.929 398.887 648.834 442.966C650.111 444.914 651.982 447.483 652.819 449.564L652.415 450.293C651.14 448.681 651.911 449.043 650.255 448.749C650.574 450.608 650.892 450.204 650.236 451.278C640.527 436.503 626.108 416.475 611.552 406.065C610.416 404.419 606.769 401.616 605.097 400.357C580.087 381.525 548.02 368.347 516.513 366.48C422.802 360.824 343.579 427.531 330.333 519.905L329.498 519.511C330.121 517.522 330.066 517.367 329.595 515.326C327.816 518.066 329.319 519.436 327.404 521.605Z" fill="black"/>
<path d="M330.334 519.904C343.58 427.53 422.803 360.823 516.514 366.479C514.539 371.301 512.12 372.467 511.066 377.873C478.778 375.038 442.778 385.5 416.149 403.82C415.061 403.095 413.942 402.037 412.52 402.422C408.694 403.456 402.601 407.931 404.12 412.434C396.091 418.649 385.048 428.274 379.065 436.275C374.976 440.171 369.778 448.412 366.667 453.355C349.961 479.896 341.672 508.036 340.623 539.406C339.382 576.54 357.662 620.438 383.209 647.446C412.123 678.014 454.871 698.61 497.236 699.536C542.787 700.532 582.684 684.006 615.545 652.66C637.889 631.347 657.211 595.117 660.741 564.331C664.286 565.85 669.843 569.379 672.132 570.117C670.048 580.558 668.611 588.606 664.999 598.885C655.302 625.908 638.645 649.294 617.185 668.126C543.042 733.186 431.035 722.216 368.147 647.113C337.321 610.299 326.121 567.725 330.334 519.904Z" fill="#8EECF5"/>
<path d="M516.512 366.48C548.019 368.347 580.086 381.525 605.096 400.357C606.768 401.616 610.415 404.419 611.551 406.065L610.436 406.037L609.847 405.384L609.204 405.201C609.372 408.559 606.768 412.288 604.771 415.021L606.653 416.889L606.537 417.615C604.013 416.282 593.127 406.78 589.282 404.36C565.22 389.212 539.479 379.665 511.064 377.874C512.118 372.468 514.537 371.302 516.512 366.48Z" fill="#FBF8CC"/>
<path d="M224.835 391.442C239.456 380.925 266.764 370.695 284.433 368.45C282.731 385.71 285.732 403.229 296.027 417.513C302.059 413.556 309.93 406.741 315.639 402.085L340.952 381.796C346.734 377.157 353.743 371.483 360.142 367.816C362.9 371.266 365.439 374.555 368.065 378.106C357.625 387.548 347.584 396.635 338.429 407.487C311.09 439.896 293.057 482.776 290.647 525.258C287.381 582.838 311.689 640.754 349.395 683.522C351.121 685.481 358.379 692.907 360.243 694.095C363.179 696.911 365.909 699.383 368.976 702.059C361.272 714.451 353.04 728.652 347.313 742.126C341.734 742.901 335.491 745.418 329.697 746.553C313.347 749.755 298.226 750.164 281.619 750.13C269.048 716.711 268.703 668.44 276.714 634.151C277.128 632.38 277.959 628.908 277.536 627.199C276.27 625.935 277.022 626.298 275.162 626.161C274.136 626.596 272.767 627.227 272.446 628.432C263.662 661.38 262.803 696.461 270.477 729.72C272.003 736.334 273.391 743.624 275.803 749.913C269.839 749.561 252.965 747.945 247.681 746.372C246.039 738.533 245.239 725.998 244.939 717.945C243.222 672.292 254.312 621.55 228.787 580.064C207.607 545.638 176.919 523.318 158.238 485.876C199.191 468.322 222.213 435.823 224.835 391.442Z" fill="#B9FBC0"/>
<path d="M688.225 439.17C693.32 436.314 698.912 433.271 703.818 430.157C708.42 427.235 712.911 423.718 717.567 420.757C742.233 405.072 766.627 389.069 794.502 379.622C826.401 368.812 847.377 372.311 876.866 386.986C882.855 390.445 886.646 393.337 891.815 397.812C891.467 401.514 891.822 423.356 893.237 426.179C883.622 438.138 861.474 457.171 848.235 466.194C819.147 486.02 802.589 498.313 790.843 533.877C783.273 556.798 782.643 579.028 785.002 603.002C786.592 619.153 791.186 635.66 796.461 651.189C804.46 674.736 816.633 704.533 816.4 729.902C809.492 731.821 804.773 733.641 797.484 735.236C799.414 707.861 794.571 682.325 783.54 657.282C781.714 653.137 777.702 643.433 773.666 641.601C771.734 642.478 771.924 645.187 772.732 646.778C787.082 675.036 794.902 703.927 792.12 736.192C783.169 738.756 771.61 739.891 762.351 740.82C724.678 744.6 690.026 741.779 652.77 736.17C649.047 722.693 645.907 710.671 641.344 697.325C648.168 690.875 655.242 684.421 661.41 677.333C719.248 610.861 729.179 517.21 688.225 439.17Z" fill="url(#paint2_linear_2293_94213)"/>
<path d="M416.148 403.821C442.777 385.501 478.777 375.039 511.065 377.874C539.48 379.665 565.221 389.212 589.283 404.36C593.128 406.78 604.014 416.282 606.538 417.615C611.998 423.001 627.236 437.983 630.271 444.129L629.992 444.881C628.096 443.33 628.327 442.172 627.033 441.952L626.778 442.84C627.651 444.13 628.378 445.252 629.192 446.579L628.696 447.055C626.603 445.392 619.912 435.914 617.619 433.328C576.511 386.967 509.611 368.054 450.927 389.524C430.329 397.059 412.397 408.811 395.9 423.622C389.868 428.861 385.798 433.339 380.582 439.265L380.414 438.183C381.258 437.173 383.373 434.664 383.401 433.426C381.885 434.739 381.02 435.795 379.064 436.276C385.047 428.275 396.09 418.65 404.119 412.435C407.724 410.095 412.56 406.402 416.148 403.821Z" fill="black"/>
<path d="M395.9 423.622C412.397 408.811 430.329 397.059 450.927 389.524C509.611 368.054 576.511 386.967 617.619 433.328C619.912 435.914 626.603 445.392 628.696 447.055C632.854 453.944 636.911 459.682 640.587 466.964C657.05 499.57 659.462 526.461 657.3 561.988C652.181 560.609 636.703 550.38 635.89 544.866C640.036 545.549 646.935 545.557 646.207 538.867C645.543 532.769 632.59 532.228 630.009 537.281C629.219 538.827 629.592 540.191 629.87 541.848C625.274 542.791 518.239 542.032 516.397 541.533C516.395 540.465 516.336 539.461 516.739 538.449C517.31 537.016 611.893 500.578 621.114 496.751L619.553 490.931C609.828 495.031 600.064 498.84 590.181 502.534C565.113 511.905 540.404 522.366 515.331 531.703C511.451 524.076 510.372 525.376 504.469 521.323L503.842 520.886C505.226 516.285 511.847 487.41 511.073 483.791C509.314 475.575 508.573 444.224 506.364 437.135L505.559 437.198C502.967 440.085 502.866 446.463 501.98 450.344C499.156 462.717 496.916 473.478 491.659 485.188C495.063 490.257 494.753 506.009 496.421 513.413C496.577 515.944 496.689 518.212 497.079 520.731C485.141 523.462 480.029 532.982 484.443 544.425C481.166 544.25 471.638 537.464 468.462 535.267C444.253 518.513 415.952 496.955 396.127 475.395L396.584 474.719C397.358 473.567 397.284 473.603 397.558 472.221C396.773 469.715 385.415 464.487 381.949 462.305C384.753 459.07 389.712 437.599 392.49 432.563C393.222 431.235 395.397 425.276 395.9 423.622ZM502.411 392.024C494.632 396.311 496.068 408.874 505.625 409.808C513.629 404.961 512.391 392.165 502.411 392.024ZM574.153 412.189C572.196 415.475 566.219 425.174 566.227 428.448C567.247 429.775 566.599 429.281 568.355 429.805C570.593 426.075 576.02 417.937 576.384 413.999C575.809 412.633 575.869 412.57 574.153 412.189ZM426.401 417.388C425.895 418.358 425.274 419.103 426.001 420.233C428.211 423.668 433.659 433.344 437.629 433.871C438.157 432.225 438.611 431.974 437.518 430.285C435.296 426.853 430.207 418.766 426.401 417.388ZM625.429 469.999C621.487 471.909 612.973 475.525 610.436 478.664C610.258 480.415 610.056 479.606 611.271 481.112C611.766 481.114 612.16 481.168 612.61 481.045C616.519 479.086 625.854 474.896 628.346 471.799L628.418 470.689C627.252 469.63 627.547 469.982 625.429 469.999Z" fill="#F1C0E8"/>
<path d="M505.625 409.807C496.068 408.873 494.632 396.31 502.411 392.023C512.391 392.164 513.629 404.96 505.625 409.807ZM503.688 395.648C502.399 398.529 500.472 405.079 505.278 405.711C506.665 402.35 507.731 397.554 503.688 395.648Z" fill="black"/>
<path d="M191.514 416.898C195.328 416.229 212.495 398.106 218.964 395.633C215.881 440.382 192.32 462.503 155.057 482.294C151.781 476.425 148.414 469.235 145.812 463.037C167.222 451.635 180.856 439.179 191.514 416.898Z" fill="#B9FBC0"/>
<path d="M505.278 405.711C500.472 405.079 502.399 398.529 503.688 395.648C507.731 397.554 506.665 402.35 505.278 405.711Z" fill="#F1C0E8"/>
<path d="M891.814 397.812C895.659 401.302 901.325 405.736 905.7 408.648C902.916 413.253 896.73 422.083 893.236 426.179C891.821 423.356 891.466 401.514 891.814 397.812Z" fill="#CFBAF0"/>
<path d="M404.119 412.434C402.6 407.931 408.693 403.456 412.519 402.422C413.941 402.037 415.06 403.095 416.148 403.82C412.56 406.401 407.724 410.094 404.119 412.434Z" fill="#CCDDE8"/>
<path d="M604.771 415.019C606.768 412.286 609.373 408.557 609.205 405.199L609.848 405.382L610.437 406.035L611.552 406.063C626.108 416.473 640.527 436.501 650.236 451.276C653.97 458.6 658.507 467.524 661.469 475.131C673.015 504.78 677.661 538.652 672.13 570.116C669.841 569.378 664.285 565.849 660.74 564.33C662.232 549.057 661.989 528.471 659.625 513.318C656.458 493.021 644.284 459.367 630.271 444.127C627.236 437.981 611.998 422.999 606.538 417.613L606.654 416.887L604.771 415.019Z" fill="url(#paint3_linear_2293_94213)"/>
<path d="M568.355 429.803C566.599 429.279 567.247 429.774 566.227 428.447C566.219 425.173 572.196 415.474 574.153 412.188C575.869 412.569 575.809 412.631 576.384 413.997C576.02 417.935 570.593 426.073 568.355 429.803Z" fill="black"/>
<path d="M888.142 439.926C897.96 428.998 901.246 425.036 909.167 412.738C912.913 417.497 915.929 421.701 919.385 426.665C909.995 439.127 900.108 444.478 886.519 451.129C885.964 448.149 887.438 443.116 888.142 439.926Z" fill="#CFBAF0"/>
<path d="M437.63 433.87C433.66 433.343 428.212 423.667 426.002 420.232C425.275 419.102 425.896 418.357 426.402 417.387C430.208 418.765 435.297 426.852 437.519 430.284C438.612 431.973 438.158 432.224 437.63 433.87Z" fill="black"/>
<path d="M380.583 439.264C385.799 433.338 389.869 428.86 395.901 423.621C395.398 425.275 393.223 431.234 392.491 432.562C389.713 437.598 384.754 459.069 381.95 462.304C380.296 463.364 380.844 462.67 380.106 464.338C381.499 468.121 392.505 472.642 396.585 474.718L396.128 475.394C415.953 496.954 444.254 518.512 468.463 535.266C471.639 537.463 481.167 544.249 484.444 544.424C485.481 546.137 486.828 547.559 488.142 549.079C482.327 554.559 470.956 565.7 464.884 569.804C462.653 579.238 459.577 588.149 456.203 597.22C455.286 599.687 450.677 610.241 451.228 612.06C454.182 612.198 475.076 584.808 482.209 580.822C483.243 572.399 488.182 560.475 491.325 552.157C501.475 556.316 514.092 553.748 516.07 541.564L516.398 541.532C518.24 542.031 625.275 542.79 629.871 541.847C632.546 543.792 632.81 543.899 635.891 544.865C636.704 550.379 652.182 560.608 657.301 561.987C649.76 628.748 594.667 681.645 529.68 693.568C418.194 714.668 316.492 607.086 350.575 496.499C357.975 472.49 366.488 459.418 380.583 439.264ZM364.095 529.558C352.945 534.349 356.182 542.357 367.04 544.148C377.491 542.072 375.8 529.354 364.095 529.558ZM392.458 599.938C388.553 601.946 377.53 606.871 376.222 610.452C376.963 611.533 376.577 611.236 377.669 611.829C380.694 610.425 392.501 604.669 393.681 602.241C393.355 600.55 393.697 601.317 392.458 599.938ZM611.652 602.672C611.505 604.009 611.092 605.024 612.148 605.917C615.614 608.848 623.416 613.366 627.766 613.514C627.911 612.705 628.354 611.781 627.754 611.226C624.332 608.053 616.115 603.225 611.652 602.672ZM565.706 645.239C564.324 649.079 570.111 663.006 574.978 663.71C575.932 660.132 570.014 646.085 565.706 645.239ZM440.587 647.183C438.835 650.027 433.276 661.807 433.321 664.756C434.294 665.413 434.66 665.7 435.725 666.167C437.649 662.103 442.716 652.602 442.667 648.806C441.837 647.308 442.43 647.917 440.587 647.183ZM504.139 662.889C496.718 667.876 496.284 680.222 505.199 682.613C511.418 677.796 513.031 665.153 504.139 662.889Z" fill="#8EECF5"/>
<path d="M138.274 458.917C145.268 457.689 162.159 442.253 167.698 437.09C171.125 433.895 176.109 428.264 180.315 426.414C173.434 439.21 152.346 455.439 138.52 460.361C142.298 468.709 146.014 476.13 150.761 483.977C126.369 494.878 109.344 507.304 99.7118 533.964C89.2414 562.945 92.3507 599.773 102.807 628.701C103.436 630.441 104.692 632.022 106.393 632.725C108.06 632.499 107.434 632.884 108.407 631.663C108.852 628.719 102.906 611.671 102.002 606.536C92.8945 554.832 101.202 510.881 152.982 488.005C156.328 494.431 159.838 501.455 163.907 507.318C180.026 530.548 200.937 550.534 217.694 573.13C246.257 611.645 240.447 656.115 239.068 700.79C238.652 714.24 239.598 730.674 241.576 744.233C238.049 744.082 231.171 740.824 227.684 739.163C200.789 726.352 171.054 700.926 139.296 704.17C126.44 705.484 120.447 713.833 113.659 722.883C85.643 665.352 68.8665 595.992 80.9343 532.125C83.0166 521.105 85.451 511.499 90.1576 501.208C100.943 477.624 114.456 467.524 138.274 458.917Z" fill="#B9FBC0"/>
<path d="M884.793 458.054C898.171 453.581 913.691 442.15 922.747 431.555C928.449 442.339 933.378 452.303 937.288 463.889C963.394 541.255 939.031 644.264 875.079 696.46C872.838 670.051 866.769 653.26 859.733 628.048C850.002 593.179 855.451 554.095 867.713 520.588C875.171 500.208 881.461 479.712 884.793 458.054Z" fill="#CFBAF0"/>
<path d="M660.74 564.332C657.21 595.118 637.888 631.348 615.544 652.661C582.683 684.007 542.786 700.533 497.235 699.537C454.87 698.611 412.122 678.015 383.208 647.447C357.661 620.439 339.381 576.541 340.622 539.407C341.671 508.037 349.96 479.897 366.666 453.356C369.777 448.413 374.975 440.172 379.064 436.276C381.02 435.795 381.885 434.739 383.401 433.426C383.373 434.664 381.258 437.173 380.414 438.183L380.582 439.265C366.487 459.419 357.974 472.491 350.574 496.5C316.491 607.087 418.193 714.669 529.679 693.569C594.666 681.646 649.759 628.749 657.3 561.988C659.462 526.461 657.05 499.57 640.587 466.964C636.911 459.682 632.854 453.944 628.696 447.055L629.192 446.579C628.378 445.252 627.651 444.13 626.778 442.84L627.033 441.952C628.327 442.172 628.096 443.33 629.992 444.881L630.271 444.129C644.284 459.369 656.458 493.023 659.625 513.32C661.989 528.473 662.232 549.059 660.74 564.332Z" fill="#272128"/>
<path d="M496.421 513.411C494.753 506.007 495.063 490.255 491.659 485.186C496.916 473.476 499.156 462.715 501.98 450.342C502.866 446.461 502.967 440.083 505.559 437.196L506.364 437.133C508.573 444.222 509.314 475.573 511.073 483.789C511.847 487.408 505.226 516.283 503.842 520.884L504.469 521.321C510.372 525.374 511.451 524.074 515.331 531.701C515.843 535.178 516.22 538.046 516.069 541.563C514.091 553.747 501.474 556.315 491.324 552.156C488.181 560.474 483.242 572.398 482.208 580.821C475.075 584.807 454.181 612.197 451.227 612.059C450.676 610.24 455.285 599.686 456.202 597.219C459.576 588.148 462.652 579.237 464.883 569.803C470.955 565.699 482.326 554.558 488.141 549.078C486.827 547.558 485.48 546.136 484.443 544.423C480.029 532.98 485.141 523.46 497.079 520.729C496.689 518.21 496.577 515.942 496.421 513.411ZM495.023 486.781C495.172 487.909 495.076 487.686 495.483 488.725L495.974 488.668C496.999 492.976 498.982 510.695 498.977 514.936C499.276 516.884 499.435 519.67 500.609 521.038C501.722 520.147 501.274 520.706 501.632 519.073C503.967 509.825 505.994 498.04 507.983 488.469L508.127 486.781C509.073 483.586 505.109 455.55 504.576 449.994C503.535 457.922 494.567 482.768 495.023 486.781ZM497.374 526.079C479.917 530.184 486.938 550.941 503.966 549.403C520.347 542.099 514.789 524.779 497.374 526.079ZM486.416 554.484C480.257 560.037 474.453 565.693 468.392 571.311L473.268 574.138L479.448 577.155C480.317 574.48 486.798 555.852 486.614 554.703L486.416 554.484ZM467.498 574.168L458.45 600.505C460.61 598.626 462.027 596.885 463.886 594.736C468.761 589.057 473.516 584.04 478.918 578.834C474.338 577.452 471.871 576.247 467.498 574.168Z" fill="url(#paint4_linear_2293_94213)"/>
<path d="M886.52 451.129C882.743 453.064 867.248 460.441 863.719 460.816L864.165 460.067L864.144 460.819C864.707 459.058 869.305 456.317 871.07 454.909C877.013 450.172 882.161 444.588 888.143 439.926C887.439 443.116 885.965 448.149 886.52 451.129Z" fill="#A3C4F3"/>
<path d="M657.91 458.092C663.753 456.086 679.258 445.721 686.196 442.426C708.503 484.777 715.357 535.891 705.25 582.645C694.636 580.372 685.307 575.464 675.361 571.36C682.87 533.101 674.189 492.946 657.91 458.092Z" fill="#CFBAF0"/>
<path d="M652.819 449.561C654.71 451.947 656.422 455.366 657.91 458.089C674.189 492.943 682.87 533.098 675.361 571.357C668.106 617.106 643.682 653.448 606.537 680.596C574.51 704.004 540.614 713.835 501.22 714.499C474.796 714.901 441.551 705.306 418.595 692.526C410.246 687.878 403.592 683.42 395.722 678.027C352.201 643.915 325.282 595.504 326.217 539.298C326.295 534.609 326.089 525.789 327.404 521.602C329.319 519.433 327.816 518.063 329.595 515.323C330.066 517.364 330.121 517.519 329.498 519.508L330.333 519.902C326.12 567.723 337.32 610.297 368.146 647.111C431.034 722.214 543.041 733.184 617.184 668.124C638.644 649.292 655.301 625.906 664.998 598.883C668.61 588.604 670.047 580.556 672.131 570.115C677.662 538.651 673.016 504.779 661.47 475.13C658.508 467.523 653.97 458.599 650.236 451.275C650.892 450.201 650.574 450.605 650.255 448.746C651.911 449.04 651.14 448.678 652.415 450.29L652.819 449.561Z" fill="#272128"/>
<path d="M495.023 486.783C494.567 482.77 503.535 457.924 504.576 449.996C505.109 455.552 509.073 483.588 508.127 486.783C503.613 486.904 499.547 487.051 495.023 486.783Z" fill="#FBF8CC"/>
<path d="M821.958 728.476C819.42 690.676 804.169 662.644 794.912 626.842C787.109 593.018 787.152 556.687 800.43 524.458C815.736 487.307 849.694 471.893 884.792 458.055C881.46 479.713 875.17 500.209 867.712 520.589C855.45 554.096 850.001 593.18 859.732 628.049C866.768 653.261 872.837 670.052 875.078 696.461C858.908 708.368 841.497 722.112 821.958 728.476Z" fill="#A3C4F3"/>
<path d="M396.584 474.719C392.504 472.643 381.498 468.122 380.105 464.339C380.843 462.671 380.295 463.365 381.949 462.305C385.415 464.487 396.773 469.715 397.558 472.221C397.284 473.603 397.358 473.567 396.584 474.719Z" fill="black"/>
<path d="M612.609 481.045C612.159 481.168 611.765 481.114 611.27 481.112C610.055 479.606 610.257 480.415 610.435 478.664C612.972 475.525 621.486 471.909 625.428 469.999C627.546 469.982 627.251 469.63 628.417 470.689L628.345 471.799C625.853 474.896 616.518 479.086 612.609 481.045Z" fill="black"/>
<path d="M495.974 488.668L495.483 488.725C495.076 487.686 495.172 487.909 495.023 486.781C499.547 487.049 503.613 486.902 508.127 486.781L507.983 488.469C505.508 488.356 497.752 487.831 495.974 488.668Z" fill="black"/>
<path d="M495.975 488.668C497.753 487.831 505.509 488.356 507.984 488.469C505.995 498.04 503.968 509.825 501.633 519.073C501.275 520.706 501.723 520.147 500.61 521.038C499.436 519.67 499.277 516.884 498.978 514.936C498.983 510.695 497 492.976 495.975 488.668Z" fill="#F1C0E8"/>
<path d="M515.33 531.702C540.403 522.365 565.112 511.904 590.18 502.533C600.063 498.839 609.827 495.03 619.552 490.93L621.113 496.75C611.892 500.577 517.309 537.015 516.738 538.448C516.335 539.46 516.394 540.464 516.396 541.532L516.068 541.564C516.219 538.047 515.842 535.179 515.33 531.702Z" fill="#272128"/>
<path d="M503.967 549.405C486.939 550.943 479.918 530.186 497.375 526.081C514.79 524.781 520.348 542.101 503.967 549.405Z" fill="#E6DFD5"/>
<path d="M367.038 544.147C356.18 542.356 352.943 534.348 364.093 529.557C375.798 529.353 377.489 542.071 367.038 544.147Z" fill="black"/>
<path d="M629.871 541.845C629.593 540.188 629.22 538.824 630.01 537.278C632.591 532.225 645.544 532.766 646.208 538.864C646.936 545.554 640.037 545.546 635.891 544.863C632.81 543.897 632.546 543.79 629.871 541.845ZM636.99 537.536C635.3 538.573 635.245 538.205 634.717 539.683C636.08 541.305 638.39 541.398 640.515 541.651C642.396 540.387 641.9 541.2 642.528 539.454C641.008 537.352 639.42 537.487 636.99 537.536Z" fill="black"/>
<path d="M640.515 541.652C638.39 541.399 636.08 541.306 634.717 539.684C635.245 538.206 635.3 538.574 636.99 537.537C639.42 537.488 641.008 537.353 642.528 539.455C641.9 541.201 642.396 540.388 640.515 541.652Z" fill="#F1C0E8"/>
<path d="M468.393 571.311C474.454 565.693 480.258 560.037 486.417 554.484L486.615 554.703C486.799 555.852 480.318 574.48 479.449 577.155L473.269 574.138L468.393 571.311Z" fill="url(#paint5_linear_2293_94213)"/>
<path d="M675.362 571.359C685.308 575.463 694.637 580.371 705.251 582.644C694.034 636.184 660.106 683.675 614.52 713.613C609.103 717.17 590.977 727.582 585.169 729.294C583.01 726.79 557.837 726.99 552.988 725.997C543.364 724.027 508.233 719.124 501.221 714.501C540.615 713.837 574.511 704.006 606.538 680.598C643.683 653.45 668.107 617.108 675.362 571.359Z" fill="#A3C4F3"/>
<path d="M458.449 600.505L467.497 574.168C471.87 576.247 474.337 577.452 478.917 578.834C473.515 584.04 468.76 589.057 463.885 594.736C462.026 596.885 460.609 598.626 458.449 600.505Z" fill="#8EECF5"/>
<path d="M377.668 611.828C376.576 611.235 376.962 611.533 376.221 610.452C377.529 606.871 388.552 601.945 392.457 599.938C393.696 601.316 393.354 600.55 393.68 602.241C392.5 604.669 380.693 610.424 377.668 611.828Z" fill="black"/>
<path d="M627.765 613.514C623.415 613.366 615.613 608.848 612.147 605.917C611.091 605.024 611.504 604.009 611.651 602.672C616.114 603.225 624.331 608.053 627.753 611.226C628.353 611.781 627.91 612.705 627.765 613.514Z" fill="black"/>
<path d="M275.803 749.912C273.391 743.623 272.003 736.333 270.477 729.719C262.803 696.46 263.662 661.379 272.446 628.431C272.767 627.226 274.136 626.595 275.162 626.16C277.022 626.297 276.27 625.934 277.536 627.198C277.959 628.907 277.128 632.379 276.714 634.15C268.703 668.439 269.048 716.71 281.619 750.129C285.876 760.558 290.57 771.021 296.492 780.668C318.705 816.848 353.739 847.497 392.895 864.003C420.653 875.704 451.182 882.51 481.195 883.897C483.989 884.026 494.676 884.337 496.979 883.634C531.311 882.644 559.667 874.541 588.947 857.844C589.719 857.404 591.613 859.678 591.772 861.208C590.331 864.205 573.709 872.137 570.225 873.637C544.993 884.501 517.324 888.788 489.996 889.4C487.766 889.45 484.923 889.405 482.755 889.624C455.671 889.705 414.611 879.916 389.668 869.085C349.793 851.769 315.401 821.017 292.167 784.355C285.847 774.383 280.09 760.834 275.803 749.912Z" fill="#B1AABD"/>
<path d="M792.119 736.193C794.901 703.928 787.081 675.037 772.731 646.779C771.923 645.188 771.733 642.479 773.665 641.602C777.701 643.434 781.713 653.138 783.539 657.283C794.57 682.326 799.413 707.862 797.483 735.237C789.961 797.875 744.774 841.558 680.041 840.239C676.623 840.17 671.481 839.987 671.738 835.523C672.603 834.493 674.324 833.895 675.643 834.003C738.653 839.134 783.972 796.725 792.119 736.193Z" fill="#B1AABD"/>
<path d="M574.978 663.709C570.111 663.005 564.324 649.078 565.706 645.238C570.014 646.084 575.932 660.131 574.978 663.709Z" fill="black"/>
<path d="M435.725 666.168C434.66 665.701 434.294 665.414 433.321 664.757C433.276 661.808 438.835 650.028 440.587 647.184C442.43 647.918 441.837 647.309 442.667 648.807C442.716 652.603 437.649 662.104 435.725 666.168Z" fill="black"/>
<path d="M505.197 682.615C496.282 680.224 496.716 667.878 504.137 662.891C513.029 665.155 511.416 677.798 505.197 682.615ZM504.209 667.344C501.822 671.885 502.205 673.663 504.367 678.249C505.797 675.377 506.77 669.801 504.209 667.344Z" fill="black"/>
<path d="M504.367 678.249C502.205 673.663 501.822 671.885 504.209 667.344C506.77 669.801 505.797 675.377 504.367 678.249Z" fill="#8EECF5"/>
<path d="M395.723 678.027C403.593 683.42 410.247 687.878 418.596 692.526C441.552 705.306 474.797 714.901 501.221 714.499C508.233 719.122 543.364 724.025 552.988 725.995C557.837 726.988 583.01 726.788 585.169 729.292C572.652 735.982 554.807 740.469 540.898 742.994C501.928 750.069 463.015 746.474 426.304 731.311C420.874 729.069 410.801 724.451 406.163 721.234C404.428 716.084 402.665 705.745 401.154 699.845C399.804 694.574 396.256 682.658 395.723 678.027Z" fill="#F1C0E8"/>
<path d="M360.243 694.094C364.311 694.613 370.18 703.271 372.506 704.687C366.208 714.109 356.665 729.818 352.443 740.315C348.826 748.389 343.188 761.8 345.789 770.699C342.729 771.951 344.135 770.98 342.713 773.266C338.763 764.001 344.176 750.99 347.313 742.125C353.04 728.651 361.272 714.45 368.976 702.058C365.909 699.382 363.179 696.91 360.243 694.094Z" fill="url(#paint6_linear_2293_94213)"/>
<path d="M821.96 728.476C841.499 722.112 858.91 708.368 875.08 696.461C874.792 708.716 874.729 719.097 872.773 731.296C867.031 767.1 848.186 802.792 821.897 827.756C784.284 863.472 728.929 877.642 678.132 876.263C667.039 875.962 631.774 872.939 623.195 867.797C621.917 865.801 621.173 865.75 618.964 864.987L619.194 864.475C618.518 862.977 616.369 861.293 614.827 860.976C603.821 858.708 593.313 856.156 582.747 852.155C572.338 848.213 560.711 844.824 550.851 839.605C545.21 837.596 533.587 831.435 527.669 828.531C477.441 803.884 436.561 771.4 397.301 732.044C399.058 729.359 401.004 726.506 402.676 723.795C439.431 741.894 465.79 750.032 507.293 749.935C510.026 750.234 511.837 750.054 514.545 749.881C523.138 756.426 534.76 768.46 542.647 776.327C562.176 795.804 581.144 810.436 606.323 822.025C614.555 825.814 624.16 830.195 633.212 832.167C634.73 832.498 635.237 831.862 636.171 831.082C637.522 826.393 623.243 823.789 619.164 822.15C585.815 808.751 559.352 785.758 534.658 760.269C532.664 758.211 523.878 750.658 523.482 748.682C543.918 746.654 564.654 741.907 583.502 733.599C587.21 731.964 590.785 730.323 594.573 728.858C601.405 736.528 606.71 743.395 614.567 752.481C624.959 764.162 640.698 792.18 657.408 771.304C662.708 764.682 654.942 743.955 652.77 736.171C690.026 741.78 724.678 744.601 762.351 740.821C771.61 739.892 783.169 738.757 792.12 736.193C783.973 796.725 738.654 839.134 675.644 834.003C674.325 833.895 672.604 834.493 671.739 835.523C671.482 839.987 676.624 840.17 680.042 840.239C744.775 841.558 789.962 797.875 797.484 735.237C804.773 733.642 809.492 731.822 816.4 729.903C816.543 740.025 816.29 751.546 813.195 761.2C797.841 808.85 756.335 844.221 707.884 854.88C679.662 861.088 655.365 862.264 627.029 856.792C624.403 856.285 617.07 854.753 616.557 858.354C618.622 861.758 624.143 861.86 627.739 862.459C687.802 872.395 754.291 857.113 793.941 808.098C814.867 782.229 821.667 760.97 821.96 728.476Z" fill="#F1C0E8"/>
<path d="M601.467 730.339L598.326 726.682C614.467 718.159 624.102 712.074 637.953 699.855C642.285 712.166 644.914 724.075 648.789 736.112C639.753 735.854 627.629 733.378 618.461 732.122C612.495 731.304 607.671 729.981 601.467 730.339Z" fill="#A3C4F3"/>
<path d="M113.658 722.883C120.446 713.833 126.439 705.484 139.295 704.17C171.053 700.926 200.788 726.352 227.683 739.163C231.17 740.824 238.048 744.082 241.575 744.233C256.32 828.113 316.701 878.553 395.746 903.104C398.695 904.02 403.562 905.201 406.181 906.571C386.414 908.404 357.574 903.614 338.446 898.308C259.592 876.434 184.952 828.58 137.591 761.106C129.002 748.87 121.302 735.473 113.658 722.883ZM172.427 750.559C167.725 750.748 163.498 753.48 161.393 757.689C159.289 761.898 159.64 766.919 162.311 770.794C164.981 774.669 169.548 776.785 174.23 776.316C181.18 775.622 186.318 769.529 185.83 762.563C185.342 755.596 179.405 750.279 172.427 750.559ZM216.567 789.796C215.227 790.354 214.584 791.884 215.121 793.232C215.659 794.579 217.179 795.246 218.535 794.728C219.43 794.387 220.071 793.589 220.214 792.642C220.356 791.694 219.977 790.744 219.221 790.154C218.466 789.565 217.451 789.428 216.567 789.796Z" fill="#FFCFD2"/>
<path d="M352.443 740.315C356.665 729.818 366.208 714.109 372.506 704.688C373.575 705.475 381.174 711.002 381.643 711.538C381.703 715.159 388.441 724.048 391.373 725.906C386.281 729.036 358.114 740.027 352.443 740.315Z" fill="#B9FBC0"/>
<path d="M381.643 711.539C384.728 713.34 396.445 719.627 397.722 722.052C397.48 722.792 397.343 723.384 396.98 724.058C394.274 723.961 393.743 724.727 391.373 725.907C388.441 724.049 381.703 715.16 381.643 711.539Z" fill="#98F5E1"/>
<path d="M391.373 725.904C393.743 724.724 394.274 723.958 396.98 724.055C395.863 726.03 394.78 727.895 393.79 729.942L393.516 730.279C386.761 738.675 357.857 786.933 345.789 770.698C343.188 761.799 348.826 748.388 352.443 740.314C358.114 740.026 386.281 729.034 391.373 725.904Z" fill="#FFCFD2"/>
<path d="M601.469 730.337C607.673 729.979 612.497 731.303 618.463 732.121C627.631 733.377 639.755 735.852 648.791 736.11C650.755 744.816 655.431 756.381 655.364 764.881C655.28 775.499 642.416 776.975 635.398 770.244C629.105 764.209 624.952 758.844 619.62 752.287L601.469 730.337Z" fill="#F1C0E8"/>
<path d="M345.789 770.701C357.857 786.936 386.761 738.678 393.516 730.282L393.79 729.945C392.657 736.467 375.4 753.909 375.264 758.374C378.635 757.808 393.04 734.316 395.621 733.849C393.344 740.617 373.533 762.704 368.539 769.138C363.682 775.396 348.278 783.951 342.713 773.268C344.135 770.982 342.729 771.953 345.789 770.701Z" fill="#594759"/>
<path d="M395.621 733.848L397.3 732.043C436.56 771.399 477.44 803.883 527.668 828.53C533.586 831.434 545.209 837.595 550.85 839.604C542.464 853.2 524.435 866.873 510.79 874.915C508.507 876.261 498.418 882.151 496.979 883.635C494.676 884.338 483.989 884.027 481.195 883.898C451.182 882.511 420.653 875.705 392.895 864.004C353.739 847.498 318.705 816.849 296.492 780.669C290.57 771.022 285.876 760.559 281.619 750.13C298.226 750.164 313.347 749.755 329.697 746.553C335.491 745.418 341.734 742.901 347.313 742.126C344.176 750.991 338.763 764.002 342.713 773.267C348.278 783.95 363.682 775.395 368.539 769.137C373.533 762.703 393.344 740.616 395.621 733.848Z" fill="#FFCFD2"/>
<path d="M247.682 746.371C252.966 747.944 269.84 749.56 275.804 749.912C280.091 760.834 285.848 774.383 292.168 784.355C315.402 821.017 349.794 851.769 389.669 869.085C414.612 879.916 455.672 889.705 482.756 889.624C478.308 890.489 473.211 892.966 468.858 894.486C458.246 898.191 447.521 901.013 436.343 902.368C433.645 902.706 428.484 903.368 426.35 904.842C415.705 903.115 406.708 900.268 396.452 897.297C325.373 876.712 258.893 823.473 247.682 746.371Z" fill="#FFCFD2"/>
<path d="M507.293 749.933C510.515 749.381 519.099 749.216 523.482 748.68C523.878 750.656 532.664 758.209 534.658 760.267C559.352 785.756 585.815 808.749 619.164 822.148C623.243 823.787 637.522 826.391 636.171 831.08C635.237 831.86 634.73 832.496 633.212 832.165C624.16 830.193 614.555 825.812 606.323 822.023C581.144 810.434 562.176 795.802 542.647 776.325C534.76 768.458 523.138 756.424 514.545 749.879C511.837 750.052 510.026 750.232 507.293 749.933Z" fill="#B1AABD"/>
<path d="M174.229 776.314C169.547 776.783 164.98 774.667 162.31 770.792C159.639 766.917 159.288 761.896 161.392 757.687C163.497 753.478 167.724 750.746 172.426 750.557C179.404 750.277 185.341 755.594 185.829 762.561C186.317 769.527 181.179 775.62 174.229 776.314ZM172.185 754.482C160.62 759.075 161.666 771.385 174.242 772.219C185.966 767.98 182.809 754.25 172.185 754.482Z" fill="#B1AABD"/>
<path d="M174.244 772.22C161.668 771.386 160.622 759.076 172.187 754.483C182.811 754.251 185.968 767.981 174.244 772.22Z" fill="#FFCFD2"/>
<path d="M218.535 794.73C217.179 795.248 215.659 794.58 215.121 793.233C214.584 791.885 215.227 790.356 216.567 789.798C217.451 789.43 218.466 789.566 219.221 790.155C219.977 790.745 220.356 791.696 220.214 792.644C220.071 793.591 219.43 794.389 218.535 794.73Z" fill="#272128"/>
<path d="M550.851 839.605C560.711 844.824 572.338 848.213 582.747 852.155C593.313 856.156 603.821 858.708 614.827 860.976C616.369 861.293 618.518 862.977 619.194 864.475L618.964 864.987C613.939 869.846 609.855 874.834 604.088 879.043C554.748 915.054 483.952 917.634 426.35 904.844C428.484 903.37 433.645 902.708 436.343 902.37C447.521 901.015 458.246 898.193 468.858 894.488C473.211 892.968 478.308 890.491 482.756 889.626C484.924 889.407 487.767 889.452 489.997 889.402C517.325 888.79 544.994 884.503 570.226 873.639C573.71 872.139 590.332 864.207 591.773 861.21C591.614 859.68 589.72 857.406 588.948 857.846C559.668 874.543 531.312 882.646 496.98 883.636C498.419 882.152 508.508 876.262 510.791 874.916C524.436 866.874 542.465 853.201 550.851 839.605Z" fill="#E6DFD5"/>
<path d="M197.767 866.101C193.136 867.289 188.415 864.511 187.206 859.886C185.997 855.26 188.754 850.527 193.374 849.298C198.024 848.061 202.792 850.839 204.009 855.493C205.226 860.148 202.427 864.904 197.767 866.101ZM193.664 852.873C191.918 853.48 190.636 854.984 190.312 856.805C189.989 858.626 190.675 860.479 192.106 861.651C193.536 862.823 195.488 863.131 197.21 862.455C199.801 861.438 201.101 858.535 200.135 855.925C199.17 853.315 196.293 851.958 193.664 852.873Z" fill="#594759"/>
<path d="M197.211 862.457C195.489 863.133 193.537 862.825 192.107 861.653C190.676 860.481 189.99 858.628 190.313 856.807C190.637 854.986 191.919 853.482 193.665 852.875C196.294 851.96 199.171 853.317 200.136 855.927C201.102 858.537 199.802 861.44 197.211 862.457Z" fill="#FFCFD2"/>
<defs>
<linearGradient id="paint0_linear_2293_94213" x1="128.283" y1="679.883" x2="453.368" y2="521.628" gradientUnits="userSpaceOnUse">
<stop stop-color="#9BB0B9"/>
<stop offset="1" stop-color="#BDB0C8"/>
</linearGradient>
<linearGradient id="paint1_linear_2293_94213" x1="442.921" y1="208.915" x2="585.822" y2="792.231" gradientUnits="userSpaceOnUse">
<stop/>
<stop offset="1" stop-color="#24191E"/>
</linearGradient>
<linearGradient id="paint2_linear_2293_94213" x1="740.943" y1="386.529" x2="795.591" y2="735.194" gradientUnits="userSpaceOnUse">
<stop stop-color="#D7B7F3"/>
<stop offset="1" stop-color="#B2C6FC"/>
</linearGradient>
<linearGradient id="paint3_linear_2293_94213" x1="605.903" y1="487.158" x2="672.108" y2="485.879" gradientUnits="userSpaceOnUse">
<stop stop-color="#FFF1B7"/>
<stop offset="1" stop-color="#E0BBFF"/>
</linearGradient>
<linearGradient id="paint4_linear_2293_94213" x1="506.783" y1="587.38" x2="450.259" y2="461.599" gradientUnits="userSpaceOnUse">
<stop stop-color="#000605"/>
<stop offset="1" stop-color="#210812"/>
</linearGradient>
<linearGradient id="paint5_linear_2293_94213" x1="473.636" y1="573.995" x2="487.309" y2="557.402" gradientUnits="userSpaceOnUse">
<stop stop-color="#E9F4D8"/>
<stop offset="1" stop-color="#BAF8E5"/>
</linearGradient>
<linearGradient id="paint6_linear_2293_94213" x1="349.534" y1="732.637" x2="363.461" y2="741.857" gradientUnits="userSpaceOnUse">
<stop stop-color="#151017"/>
<stop offset="1" stop-color="#4D355A"/>
</linearGradient>
</defs>
</svg>
