<svg width="1024" height="1024" viewBox="0 0 1024 1024" fill="none" xmlns="http://www.w3.org/2000/svg">
<path d="M516.918 185.24C496.931 185.469 480.844 188.396 465.663 202.876C454.493 213.529 454.416 230.789 454.51 245.804C438.759 249.438 424.446 252.88 409.235 258.49C333.012 286.603 272.825 346.673 239.501 420.174C219.241 423.622 193.873 431.768 174.888 439.858C171.873 441.183 168.576 442.56 165.637 443.996C163.342 439.534 159.865 434.573 157.258 430.089C128.622 380.832 122.103 319.669 148.985 267.829C184.152 200.012 250.481 141.554 322.557 115.968C388.904 92.4163 473.814 100.156 509.176 169.49C511.654 174.314 515.241 180.152 516.918 185.24ZM358.826 237.695C292.469 245.871 180.507 285.464 179.68 371.009C179.673 371.68 179.985 372.557 180.22 373.191L180.937 373.455C181.506 372.582 181.376 373.036 181.423 372.124C181.627 365.31 182.288 356.407 184.177 349.856C202.82 285.209 281.815 253.017 342.361 242.332C346.209 241.653 359.805 240.393 362.033 238.191L361.85 237.632C360.307 237.452 360.339 237.415 358.826 237.695ZM217.464 316.822C209.318 320.652 201.567 332.758 202.539 341.8L203.056 342.476L204.147 342.212C205.052 334.65 207.856 326.952 214.017 321.844C215.596 320.534 218.497 319.553 219.404 317.998C218.609 316.779 219.145 317.273 217.464 316.822ZM136.972 343.668C136.239 345.691 135.605 346.724 135.962 348.747C137.17 350.153 136.429 349.627 138.393 350.17C139.254 348.254 139.686 347.749 139.485 345.755C138.339 344.004 139.062 344.762 136.972 343.668Z" fill="#F1C0E8"/>
<path d="M653.668 247.179C651.726 246.624 650.602 244.828 649.402 243.268C625.804 212.564 597.103 183.508 560.861 168.276C556.762 166.553 548.318 164.001 544.982 161.558C547.885 161.336 552.138 162.764 554.908 163.815C593.362 178.403 624.088 207.403 648.933 239.436C650.768 241.801 652.961 244.255 653.668 247.179Z" fill="#010000"/>
<path d="M454.508 245.806C454.414 230.791 454.491 213.531 465.661 202.878C480.842 188.398 496.929 185.471 516.916 185.242C534.131 186.549 552.603 190.542 564.779 204.034C573.454 213.647 573.324 233.078 574.595 246.252C602.959 252.886 623.661 259.552 649.513 272.923C751.174 327.343 807.982 424.765 813.45 538.843C813.631 563.277 811.341 580.602 806.404 604.68C791.217 680.449 743.62 751.089 679.171 793.513C671.19 798.767 664.244 803.337 655.617 807.502C639.055 815.779 622.645 823.186 604.941 828.733C530.292 852.122 454.358 844.611 384.03 811.827C334.522 786.538 297.299 756.08 265.334 710.344C233.555 664.875 216.229 609.261 214.167 554.056C213.446 534.76 213.806 515.666 217.173 496.58C217.579 493.697 218.171 490.722 218.694 487.849C223.225 462.603 229.364 443.388 239.499 420.176C272.823 346.675 333.01 286.605 409.233 258.492C424.444 252.882 438.757 249.44 454.508 245.806ZM527.095 198.662C514.934 197.318 502.519 197.332 490.772 201.116C476.65 205.665 464.189 217.034 473.091 232.769C476.132 230.43 479.979 227.511 483.606 226.159C501.346 219.545 524.975 219.15 542.817 225.065C551.321 229.422 557.44 234.118 560.318 243.543C564.423 244.241 568.361 244.979 572.443 245.802C571.713 238.201 570.287 217.498 567.478 212.305C550.307 180.562 487.933 179.889 465.75 205.985C456.722 216.607 456.652 233.041 457.418 245.067C460.772 244.426 464.516 243.907 467.916 243.362C468.949 239.319 469.769 237.499 471.784 233.932C467.724 227.988 465.758 222.505 468.835 215.021C481.536 184.135 577.478 190.11 558.422 231.94C558.907 224.756 559.942 218.839 555.54 212.349C549.934 204.084 536.441 200.274 527.095 198.662ZM561.93 247.433C429.436 225.599 298.719 295.135 242.779 417.209C232.242 440.204 224.677 464.448 220.267 489.355C219.767 492.182 219.307 495.017 218.888 497.857C199.718 627.953 268.147 755.222 387.243 810.977C471.571 850.456 569.51 848.22 651.949 804.934C750.958 752.947 812.498 649.874 811.29 538.053C810.093 427.266 747.492 326.302 648.79 275.971C621.478 262.044 592.179 252.418 561.93 247.433ZM506.86 223.708C493.63 224.973 474.307 227.423 470.93 243.099C487.021 241.013 506.625 239.624 522.874 240.306C535.021 240.637 545.558 241.7 557.617 243.273C551.985 226.453 533.739 223.982 518.283 223.474C515.156 223.372 509.875 223.285 506.86 223.708Z" fill="#010000"/>
<path d="M527.096 198.661C536.442 200.273 549.935 204.083 555.541 212.348C559.943 218.838 558.908 224.755 558.423 231.939C577.479 190.109 481.537 184.134 468.836 215.02C465.759 222.504 467.725 227.987 471.785 233.931C469.77 237.498 468.95 239.318 467.917 243.361C464.517 243.906 460.773 244.425 457.419 245.066C456.653 233.04 456.723 216.606 465.751 205.984C487.934 179.888 550.308 180.561 567.479 212.304C570.288 217.497 571.714 238.2 572.444 245.801C568.362 244.978 564.424 244.24 560.319 243.542C557.441 234.117 551.322 229.421 542.818 225.064C541.262 216.221 528.443 204.536 527.096 198.661Z" fill="#F7E7EB"/>
<path d="M649.514 272.921C653.206 269.771 658.175 263.106 661.532 259.266C699.326 216.047 746.613 188.316 805.836 192.07C845.027 194.147 881.889 211.816 908.114 241.016C946.767 284.053 953.222 336.384 949.645 391.928C946.218 445.152 928.907 494.993 895.626 537.069C891.22 542.639 884.917 549.317 881.361 555.337L880.974 555.295C878.619 554.024 872.05 552.026 869.151 551.017C849.818 544.29 833.542 541.446 813.451 538.841C807.983 424.763 751.175 327.341 649.514 272.921Z" fill="#FBF8CC"/>
<path d="M473.092 232.767C464.19 217.032 476.651 205.663 490.773 201.114C502.52 197.33 514.935 197.316 527.096 198.66C528.443 204.535 541.262 216.22 542.818 225.063C524.976 219.148 501.347 219.543 483.607 226.157C479.98 227.509 476.133 230.428 473.092 232.767Z" fill="#F1C0E8"/>
<path d="M470.932 243.1C474.309 227.424 493.632 224.974 506.862 223.709C509.877 223.286 515.158 223.373 518.285 223.475C533.741 223.983 551.987 226.454 557.619 243.274C545.56 241.701 535.023 240.638 522.876 240.307C506.627 239.625 487.023 241.014 470.932 243.1Z" fill="#F1C0E8"/>
<path d="M181.423 372.125C181.376 373.037 181.506 372.583 180.937 373.456L180.22 373.192C179.985 372.558 179.673 371.681 179.68 371.01C180.507 285.465 292.47 245.872 358.827 237.696C360.34 237.416 360.307 237.453 361.85 237.633L362.034 238.192C359.806 240.394 346.21 241.654 342.362 242.333C281.816 253.018 202.82 285.21 184.177 349.857C182.288 356.408 181.627 365.311 181.423 372.125Z" fill="#010000"/>
<path d="M242.779 417.207C298.719 295.133 429.436 225.597 561.93 247.431C563.357 255.353 568.958 268.401 569.826 275.322C517.781 264.188 468.597 268.701 418.866 287.225C356.04 310.625 308.6 356.61 276.588 414.619C267.586 414.044 259.314 414.537 250.498 416.332C248.1 416.821 245.149 417.6 242.779 417.207Z" fill="#F1C0E8"/>
<path d="M561.932 247.434C592.181 252.419 621.48 262.045 648.792 275.972C645.921 279.771 633.171 292.424 629.24 295.974C610.334 287.258 590.31 279.455 569.828 275.325C568.96 268.404 563.359 255.356 561.932 247.434Z" fill="#E6DFD5"/>
<path d="M276.59 414.619C308.602 356.61 356.042 310.626 418.868 287.226C468.599 268.702 517.783 264.188 569.828 275.322C590.31 279.452 610.334 287.255 629.24 295.971C662.597 311.977 686.838 331.367 711.608 358.653C755.996 407.55 780.504 469.851 783.169 535.474C783.244 553.434 782.086 573.124 779.022 590.865C769.435 646.364 741.886 697.717 702.475 737.753C685.842 754.65 660.129 772.583 639.062 783.568C565.851 819.03 495.254 824.082 418.676 795.739C318.3 759.519 248.816 662.612 244.913 556.739C244.381 542.307 245.184 528.241 246.261 513.864C246.442 513.147 246.844 508.06 246.944 507.006C251.482 473.026 260.167 444.894 276.59 414.619ZM568.141 277.223C540.005 272.204 518.524 270.028 490.007 272.691C408.597 280.294 336.528 324.81 291.846 393.109C287.234 400.16 282.234 408.193 278.545 415.835C263.299 443.518 251.485 480.093 248.855 511.662C248.693 513.288 248.505 514.878 248.444 516.512C242.14 592.318 261.527 659.035 310.809 717.857C335.866 747.764 375.964 776.779 412.582 790.767L417.913 792.788C423.973 795.008 430.063 797.276 436.201 799.26C502.533 820.706 576.216 813.183 638.05 781.491C662.253 767.929 680.386 755.816 700.132 736.198C739.316 697.272 766.148 646.917 776.051 592.53C779.334 574.498 780.537 553.416 780.583 535.086C780.537 508.461 772.23 472.446 762.994 447.635C739.413 384.297 688.246 326.454 627.165 297.619C606.21 288.32 590.897 282.402 568.141 277.223Z" fill="#010000"/>
<path d="M278.545 415.836C282.234 408.194 287.234 400.16 291.846 393.109C336.528 324.81 408.597 280.294 490.007 272.691C518.524 270.028 540.005 272.205 568.141 277.224C568.457 283.417 568.285 283.651 570.75 289.201L568.359 289.83C504.66 274.752 438.893 287.205 383.261 321.139C347.831 342.75 312.91 380.9 293.27 417.56C290.013 417.433 281.379 416.999 278.545 415.836Z" fill="#F1C0E8"/>
<path d="M648.79 275.969C747.492 326.3 810.093 427.264 811.29 538.051C801.881 537.05 792.622 536.002 783.167 535.473C780.502 469.85 755.994 407.549 711.606 358.652C686.836 331.366 662.595 311.977 629.238 295.971C633.169 292.421 645.919 279.768 648.79 275.969Z" fill="#FBF8CC"/>
<path d="M568.141 277.223C590.897 282.402 606.21 288.32 627.165 297.619C624.836 300.585 621.77 304.728 619.211 307.352C598.956 298.467 589.723 295.423 568.359 289.829L570.75 289.2C568.285 283.65 568.457 283.416 568.141 277.223Z" fill="#F7E7EB"/>
<path d="M293.269 417.561C312.909 380.901 347.83 342.751 383.26 321.14C438.892 287.206 504.659 274.753 568.358 289.831C589.722 295.425 598.955 298.469 619.21 307.354C705.375 347.99 763.553 438.069 766.591 533.148C767.45 609.306 740.13 676.632 685.755 728.724C670.766 743.084 649.352 759.625 630.563 768.349C623.02 772.061 615.314 775.972 607.58 779.243C552.39 802.579 484.324 804.157 428.312 782.591L424.483 781.097C329.078 745.471 266.141 656.036 260.685 554.944C260.043 543.049 260.961 531.42 261.564 519.556L261.952 514.99C265.519 481.1 276.457 447.194 293.269 417.561ZM288.672 432.12C270.76 462.423 261 519.35 263.236 553.992C266.673 627.556 302.94 698.957 361.824 743.241C363.598 744.575 366.207 746.81 368.025 747.799C372.198 750.705 377.918 754.729 382.309 757.237C389.167 761.776 399.594 767.645 407.326 770.804C408.572 771.437 409.771 772.089 411.078 772.581C419.48 776.077 430.692 780.994 439.23 783.694C492.995 800.702 554.419 798.92 606.515 776.913C609.024 775.853 611.804 774.711 614.146 773.312C625.495 770.834 662.303 746.028 671.238 738.473C732.694 686.514 765.146 613.513 763.201 533.364C761.87 433.492 696.038 339.754 603.433 303.244C495.005 260.495 373.493 299.814 308.929 396.516C301.605 407.485 293.432 419.785 288.672 432.12Z" fill="#010000"/>
<path d="M288.672 432.119C293.432 419.784 301.605 407.484 308.929 396.515C373.493 299.813 495.005 260.494 603.433 303.243C696.038 339.753 761.87 433.491 763.201 533.363C761.434 533.395 761.01 533.705 759.701 532.96C758.83 531.905 758.967 531.593 757.956 531.608C754.694 531.656 746.313 532.222 744.042 534.054C735.154 535.771 723.157 532.88 716.317 540.33C715.741 542.582 716.266 543.661 715.699 546.544C714.004 542.411 715.867 523.122 717.231 518.481C721.878 517.864 731 517.804 733.969 513.881C736.044 511.139 736.106 506.983 733.141 504.386C728.894 500.666 717.576 505.904 715.828 499.873C715.113 492.268 715.761 482.884 715.339 474.946C721.057 474.856 752.801 476.29 737.761 462.718C732.846 458.283 700.116 461.169 696.243 468.587C695.074 470.825 697.324 480.723 697.028 483.716C696.442 505.734 695.626 528.805 696.44 550.788C690.27 552.197 677.819 555.886 672.111 558.509C671.469 541.173 671.378 523.968 671.6 506.625C671.709 498.162 670.999 483.668 672.978 475.865C678.076 475.267 688.83 476.245 692.323 472.071C693.347 470.847 693.759 468.981 693.33 467.431C692.753 465.345 690.829 463.864 688.95 463.004C680.97 459.351 640.927 462.901 632.427 466.405C630.403 467.239 627.194 468.898 626.576 471.221C626.204 472.616 626.787 474.409 627.635 475.527C629.003 477.332 631.376 477.929 633.522 478.108C639.428 478.599 645.405 476.984 651.31 477.004C653.009 502.545 650.373 528.8 654.578 554.419C654.971 556.815 655.283 559.529 656.033 561.841C647.783 565.313 638.761 567.331 629.9 571.156C607.232 578.68 586.104 591.832 567.326 606.436L566.651 606.229C560.859 604.416 555.51 605.294 549.759 604.802C534.606 603.504 516.699 606.367 501.998 604.792C510.49 589.942 515.687 576.26 512.865 559.122C516.637 561.87 534.01 571.923 537.792 571.536L538.129 570.593C529.804 545.346 539.621 497.155 547.52 472.084L553.48 470.936C554.085 482.579 551.085 482.24 550.63 490.662C549.628 504.921 552.183 517.743 553.599 531.758C556.432 559.783 587.175 585.73 608.324 554.939C620.988 536.501 619.778 508.073 620.555 486.422C620.766 480.531 621.459 472.567 620.541 466.649C618.689 459.367 610.761 459.927 605.634 461.792L604.974 462.039L604.26 461.979C600.991 466.114 601.434 490.417 601.536 497.062C601.254 497.747 601.494 497.386 600.583 497.949L599.526 497.515C598.409 494.862 597.599 492.015 597.564 489.126C600.452 484.709 595.937 476.987 595 472.327C594.171 468.201 589.799 463.547 590.086 459.623C590.892 457.705 592.897 456.937 594.846 455.542C596.132 452.636 592.663 449.966 592.294 446.969C591.72 442.303 585.578 423.324 592.804 421.989C594.396 423.697 594.817 424.509 596.963 424.743C597.622 422.535 597.327 421.074 598.516 419.324H599.312C600.229 420.424 600.353 420.746 601.624 421.419C602.906 419.888 602.33 418.28 603.841 416.114C607.245 417.074 612.428 421.352 616.357 422.563C618.818 423.322 631.208 426.662 632.704 426.37C636.462 422.045 631.192 413.665 626.897 412.361C626.562 413.912 628.704 414.244 628.569 415.969C626.513 416.782 624.478 416.695 622.24 416.807C621.021 413.506 617.386 413.262 616.099 409.828C617.587 407.312 617.618 409.01 619.888 406.816C618.747 405.228 614.745 405.063 613.561 403.695C610.789 400.492 612.887 389.576 612.523 385.914L610.939 386.921L610.329 386.622C610.4 384.31 612.602 383.124 612.506 382.795C611.24 378.446 607.114 377.33 607.72 372.374C604.803 369.497 603.13 371.692 601.556 370.786C595.635 367.378 602.794 348.348 596.871 345.546C595.244 345.95 595.312 346.107 593.7 345.876C592.445 343.684 593.435 339.677 594.925 337.704C596.571 336.652 597.107 336.86 598.945 337.001C600.629 335.647 599.936 333.049 602.064 331.08L602.791 332.231L603.099 332.05C603.057 331.61 602.836 329.42 602.901 329.231C603.4 327.773 607.707 323.699 608.895 322.97L608.794 324.618L609.235 324.784C612.177 321.892 614.724 314.03 616.004 310.164C614.53 308.112 604.483 304.722 601.799 303.642C486.962 257.437 355.275 309.595 297.14 417.331C296.06 419.333 289.893 431.649 289.019 432.772L288.672 432.119ZM614.376 317.729C613.172 319.814 608.154 327.821 608.525 329.537L609.438 330.184C611.052 328.207 617.162 319.557 614.376 317.729ZM635.788 326.353C632.793 329.456 608.038 364.893 607.944 366.675C607.901 367.494 608.638 368.289 609.224 368.775C609.643 369.122 610.087 369.437 610.523 369.761C615.179 365.85 632.565 336.569 637.33 329.276C637.371 327.729 637.201 327.458 635.788 326.353ZM656.285 342.257C654.292 344.726 649.097 350.439 649.327 353.433L650.025 354.035C651.673 351.864 657.389 344.964 657.244 342.847L656.285 342.257ZM675.117 360.337C672.905 362.857 669.057 366.488 667.412 368.769C667.502 370.086 667.274 369.508 668.31 370.45C670.166 368.593 675.978 363.333 676.149 361.114L675.117 360.337ZM695.33 378.313C693.193 380.037 685.696 385.261 685.491 387.165L686.336 388.146C688.514 386.359 694.977 381.453 696.126 379.228L695.33 378.313ZM711.455 397.994C709.167 399.676 700.455 405.378 699.308 406.573C699.341 407.864 699.154 407.302 699.77 408.288C702.331 406.63 710.889 401.46 711.974 399.229C711.883 398.995 711.586 398.157 711.455 397.994ZM724.388 421.913C717.343 425.288 686.577 438.419 683.108 443.217C682.926 445.537 683.718 445.811 685.409 447.31C688.964 445.858 725.416 425.263 726.175 424.006C726.005 422.779 725.781 422.329 724.388 421.913ZM734.915 442.461C731.756 443.809 724.577 446.582 722.017 448.538L721.728 449.466C722.179 450.189 722.056 450.172 722.684 450.682C725.884 449.024 734.417 445.803 735.712 443.489C735.444 443.098 735.259 442.731 734.915 442.461Z" fill="url(#paint0_linear_2293_114937)"/>
<path d="M263.236 553.991C261 519.349 270.76 462.422 288.672 432.119L289.019 432.772C289.893 431.649 296.06 419.333 297.14 417.331C355.275 309.595 486.962 257.437 601.799 303.642C604.483 304.722 614.53 308.112 616.004 310.164C614.724 314.03 612.177 321.892 609.235 324.784L608.794 324.618L608.895 322.97C607.707 323.699 603.4 327.773 602.901 329.231C602.836 329.42 603.057 331.61 603.099 332.05L602.791 332.231L602.064 331.08C599.936 333.049 600.629 335.647 598.945 337.001C597.107 336.86 596.571 336.652 594.925 337.704C593.435 339.677 592.445 343.684 593.7 345.876C595.312 346.107 595.244 345.95 596.871 345.546C602.794 348.348 595.635 367.378 601.556 370.786C603.13 371.692 604.803 369.497 607.72 372.374C607.114 377.33 611.24 378.446 612.506 382.795C612.602 383.124 610.4 384.31 610.329 386.622L610.939 386.921L612.523 385.914C612.887 389.576 610.789 400.492 613.561 403.695C614.745 405.063 618.747 405.228 619.888 406.816C617.618 409.01 617.587 407.312 616.099 409.828C617.386 413.262 621.021 413.506 622.24 416.807C624.478 416.695 626.513 416.782 628.569 415.969C628.704 414.244 626.562 413.912 626.897 412.361C631.192 413.665 636.462 422.045 632.704 426.37C631.208 426.662 618.818 423.322 616.357 422.563C612.428 421.352 607.245 417.074 603.841 416.114C602.33 418.28 602.906 419.888 601.624 421.419C600.353 420.746 600.229 420.424 599.312 419.324H598.516C597.327 421.074 597.622 422.535 596.963 424.743C594.817 424.509 594.396 423.697 592.804 421.989C585.578 423.324 591.72 442.303 592.294 446.969C592.663 449.966 596.132 452.636 594.846 455.542C592.897 456.937 590.892 457.705 590.086 459.623C589.799 463.547 594.171 468.201 595 472.327C595.937 476.987 600.452 484.709 597.564 489.126C597.599 492.015 598.409 494.862 599.526 497.515L600.583 497.949C601.494 497.386 601.254 497.747 601.536 497.062L601.381 499.235L600.533 499.24C600.485 499.361 599.647 501.495 599.639 501.422C600.077 505.506 599.206 510.063 599.337 514.083C599.742 526.483 597.675 538.729 589.716 548.682C585.1 554.454 580.897 550.988 577.159 546.847C569.097 532.266 569.771 498.216 568.364 481.479C568.025 477.457 567.253 466.016 568.562 462.488L568.956 462.987C568.5 464.547 567.342 467.298 568.187 468.581L570.23 468.528C571.702 467.351 571.091 468.098 571.672 465.884L571.885 467.245L572.411 467.6C574.278 466.305 574.279 465.594 574.711 463.492C575.205 464.833 575.699 465.97 576.269 467.27L576.999 467.508C578.933 465.402 578.456 462.934 581.157 460.263L580.771 459.847C578.876 459.916 577.133 460.722 575.337 461.393C575.793 459.889 576.625 457.544 576.687 456.051L576.053 455.792L574.404 456.954C572.795 454.845 576.108 442.918 575.916 440.351C575.806 438.873 575.389 436.541 575.251 434.61C574.816 435.243 575.043 437.417 574.879 438.273C573.428 445.849 571.562 449.551 571.513 457.508L570.663 457.537L571.242 458.527L571.473 457.963L570.716 457.652C568.935 450.179 572.849 449.496 572.571 442.476C572.546 441.843 572.226 437.086 572.127 436.822C571.201 434.353 572.757 430.968 572.665 430.011C568 432.281 568.38 433.76 567.402 438.245C564.921 434.488 570.682 418.529 571.708 414.031C571.894 413.214 574.698 402.527 574.827 402.348L575.606 402.746C576.725 405.639 575.584 415.958 576.999 420.625L577.664 420.796C577.899 417.36 581.102 415.496 581.243 411.743C581.609 413.271 581.663 413.794 582.447 415.199C584.403 413.992 584.445 408.775 584.592 406.497C584.877 402.079 584 398.34 581.971 394.431C581.642 395.216 581.343 395.956 581.032 396.746L580.446 396.534C577.67 392.548 581.677 391.461 577.678 388.291C574.147 388.865 558.443 417.507 554.119 422.019C549.777 426.55 544.971 429.394 540.3 433.163C533.08 438.99 527.429 449.513 526.658 458.735C523.058 460.314 516.769 459.67 514.049 462.506C509.304 467.452 511.028 481.487 510.858 488.118C510.532 500.824 510.939 513.466 510.733 526.097L511.32 526.363C511.158 528.478 511.514 528.479 510.431 529.82C503.292 528.139 479.932 478.877 472.416 472.219C468.409 468.67 461.939 462.903 455.861 466.64C454.041 467.969 453.073 469.718 452.749 471.999C452.12 477.911 454.099 484.587 454.421 490.502C454.932 499.902 455.233 508.934 455.755 518.373C456.223 527.668 457.079 536.566 457.058 545.901C457.045 551.591 454.683 560.657 457.463 565.577C459.213 568.675 466.082 568.66 468.308 566.18C471.934 562.139 470.852 552.69 471.14 547.519C471.54 534.662 470.089 516.297 472.186 503.87C476.031 510.322 479.833 516.647 484.063 522.853C489.625 531.015 494.278 539.821 499.207 548.392C491.972 549.821 488.286 551.851 484.171 558.574C476.437 571.211 468.885 590.58 464.453 604.676C456.21 604.219 447.015 604.646 438.697 604.843L396.698 605.823C388.273 605.971 379.868 605.813 371.455 605.838C369.125 605.845 362.302 605.733 360.184 605.995C336.211 605.73 311.973 603.605 288.026 602.268C285.827 602.145 280.991 602.974 278.938 603.763C278.108 605.13 278.307 604.371 278.612 606.175C279.827 607.536 279.094 607.108 280.896 607.484C284.115 605.875 297.091 603.564 299.824 604.672C306.044 607.193 302.338 625.108 307.994 628.866C309.479 628.944 316.652 628.494 317.279 627.332C318.821 624.467 322.41 618.984 326.285 619.282C333.296 619.821 334.731 616.437 340.169 612.995C340.533 612.765 346.402 614.251 347.276 614.193C353.668 611.618 355.023 609.197 362.857 609.012L364.517 606.967C368.485 606.897 386.248 607.393 388.5 606.665C395.663 606.289 404.205 606.57 411.512 606.428C416.648 606.329 430.962 605.357 435.492 606.282C435.286 607.015 435.153 607.446 434.913 608.146C436.079 608.467 437.055 608.714 438.237 608.969C449.899 620.109 451.381 602.707 462.285 605.647C463.041 608.004 456.466 627.707 455.232 631.696L442.762 672.922C441.752 676.253 437.604 685.261 439.413 687.931C440.975 688.339 440.21 688.34 441.79 687.889C445.016 684.955 458.24 665.794 461.868 660.943C472.876 646.222 484.316 631.545 495.241 616.751C496.844 614.579 501.1 608.689 501.794 606.493C506.594 604.897 562.733 604.906 565.136 606.844C559.867 612.325 554.345 617.483 549.106 622.823C510.016 662.662 475.179 705.859 443.539 751.799C442.313 753.579 440.51 755.992 438.165 755.529C430.258 754.874 422.737 752.624 414.717 752.283L414.37 749.811L413.609 749.291C409.393 750.189 412.284 752.443 408.933 754.064C407.211 754.897 404.249 757.525 403.364 759.174C403.379 761.989 405.592 764.393 407.744 766.021C408.075 764.886 408.452 764.237 407.565 763.195L408.704 762.111C410.026 760.251 410.778 758.627 411.805 756.606C414.353 755.969 413.381 756.657 414.83 754.474C414.815 760.618 415.206 767.831 411.078 772.58C409.771 772.088 408.572 771.436 407.326 770.803C404.819 766.907 388.814 762.272 385.239 757.46C385.34 751.034 417.098 720.588 412.817 712.47C407.966 709.462 404.153 719.891 401.517 722.475C396.607 727.287 387.926 749.084 383.061 752.16C380.144 751.183 375.252 745.993 373.354 745.512C367.336 743.987 363.318 748.191 362.17 738.484C360.19 739.531 362.574 739.683 360.116 740.386C358.292 739.642 356.833 737.364 354.828 736.117C352.026 734.376 338.954 724.407 344.061 721.035C345.526 722.205 345.206 723.596 346.06 724.944C348.141 728.226 353.274 728.886 356.164 730.039L354.901 732.319C355.941 733.175 355.335 732.838 357.225 732.702C359.043 730.822 357.612 730.969 358.216 729.794C360.227 725.881 365.354 727.934 368.247 725.19C371.975 728.666 361.861 732.476 362.074 737.921C363.417 738.941 362.641 738.548 364.738 738.601C367.34 736.87 368.277 735.096 370.03 733.158C377.706 724.672 367.068 721.994 366.149 713.134C366.018 711.872 370.241 706.883 369.655 705.282C367.278 698.864 361.687 695.136 361.372 688.029C361.227 684.748 355.189 679.066 353.718 675.552C352.104 671.7 351.289 668.082 350.019 664.199C348.479 659.49 340.527 651.095 344.243 646.538C345.348 646.111 344.86 646.364 345.727 645.818C344.404 643.816 341.727 643.19 339.878 642.005C339.458 641.737 340.115 640.732 338.341 639.188C337.368 639.359 337.205 639.518 336.396 640.053L335.569 640.608C333.847 639.758 334.065 637.934 331.906 635.824C328.573 634.44 326.217 637.175 322.682 638.499L322.008 638.747C322.014 636.305 322.416 639.075 323.067 636.534C321.368 634.271 315.384 632.644 312.581 631.968C312.292 633.548 312.216 632.76 313.112 634.361C318.597 636.95 314.029 638.355 316.345 640.97C318.474 639.909 319.669 639.274 322.008 638.747C315.989 642.809 305.702 647.215 300.117 651.86C299.279 652.557 298.166 663.604 296.283 665.377C294.429 663.643 290.047 653.965 288.725 651.263C277.281 627.886 269.922 601.497 266.051 575.822C264.945 568.489 264.82 561.781 263.936 554.508L263.236 553.991ZM357.552 475.505C354.614 476.718 353.743 486.176 351.365 489.189C349.703 489.703 334.635 486.72 333.083 485.932C332.137 483.256 331.201 480.569 330.167 477.926C328.812 474.463 326.803 470.723 323.16 469.263C321.001 468.397 318.607 468.366 316.483 469.347C313.409 470.767 311.271 473.691 310.255 476.856C306.486 488.6 300.972 559.228 306.367 568.76C307.156 570.153 308.353 571.192 309.973 571.474C311.651 571.766 313.644 571.221 314.954 570.128C317.095 568.341 317.592 565.718 318.07 563.097C319.215 556.812 318.869 549.725 319.156 543.321C319.65 532.284 320.323 521.23 321.325 510.227C323.525 520.802 326.504 543.08 337.955 547.207C342.258 548.758 350.643 546.612 352.769 542.277C357.977 531.655 360.549 518.443 363.652 506.886C364.891 524.103 366.325 541.296 368.2 558.565C369.001 565.947 372.187 577.429 382.355 575.918C387.624 574.76 388.981 569.023 388.874 564.581C388.326 546.166 385.767 527.827 383.826 509.491C382.131 496.584 381.66 483.501 378.865 470.765C377.639 465.578 372.778 459.295 366.761 461.311C362.365 462.783 359.301 471.559 357.552 475.505ZM512.953 291.584C511.584 295.775 512.057 345.399 513.604 348.917C514.785 349.706 514.716 349.641 516.131 349.877C516.566 349.281 517.257 348.385 517.272 347.584C517.611 329.661 516.212 311.968 514.956 294.125C514.843 292.527 514.344 292.146 512.953 291.584ZM537.501 296.713C536.93 299.421 534.991 307.265 536.309 309.339L537.313 310.037C538.325 307.19 538.796 301.114 538.803 298.026C538.148 296.914 538.588 297.346 537.501 296.713ZM484.981 297.61C485.259 300.704 485.603 308.282 487.335 310.357L488.457 310.659C488.239 306.954 487.566 302.044 486.614 298.469C485.613 297.685 486.161 297.964 484.981 297.61ZM563.808 300.131C563.064 302.775 560.45 310.81 561.368 312.83L562.592 313.259C563.334 310.437 565.254 303.958 565.284 301.3C564.521 300.278 565.036 300.624 563.808 300.131ZM459.397 301.249C458.469 303.934 460.376 313.731 462.884 315.419C463.04 311.82 461.658 305.747 460.704 302.178C460.161 301.741 460.015 301.552 459.397 301.249ZM589.63 307.129C588.411 309.858 585.117 318.185 585.857 320.874L586.961 321.416C587.84 318.311 591.176 309.909 590.572 307.67L589.63 307.129ZM433.56 310.155C433.58 313.202 435.953 322.312 439.297 323.242C439.281 320.386 436.411 311.44 433.56 310.155ZM407.457 320.382C407.141 322.642 412.304 330.769 413.71 332.769L414.473 333.153C414.723 330.439 409.993 321.371 407.457 320.382ZM389.99 329.334C389.431 330.4 388.69 331.393 389.26 332.69C391.911 338.726 407.463 366.846 411.308 369.573C411.81 369.648 412.631 369.796 413.111 369.819C413.63 368.988 414.943 367.485 414.322 366.501C409.875 359.452 405.598 352.236 401.301 345.112C399.191 341.612 393.465 330.513 389.99 329.334ZM367.967 343.398L367.32 344.812C368.478 347.585 373.985 354.627 376.046 357.391C376.51 355.951 376.732 355.817 375.825 354.145C374.505 351.715 369.813 344.853 367.967 343.398ZM347.643 361.295C347.916 364.176 353.871 369.797 356.245 372.247L357.805 372.677C357.465 369.92 350.443 361.851 347.643 361.295ZM329.054 382.947C331.382 385.482 338.372 392.08 341.618 392.154C339.98 389.189 332.768 382.737 329.054 382.947ZM585.255 399.116C585.182 401.818 584.679 403.367 586.745 405.306C586.789 403.514 587.044 401.453 586.305 399.904L585.255 399.116ZM314.291 404.969L314.217 406.44C316.972 408.556 323.896 413.235 327.244 413.704C326.112 411.2 317.019 405.859 314.291 404.969ZM301.467 422.124C300.68 424.307 300.272 424.317 300.658 426.228C304.855 429.158 329.348 442.441 333.195 442.842C333.782 440.772 334.088 441.015 333.47 439.429C327.115 434.316 309.49 426.087 301.467 422.124ZM292.016 446.998C292.396 448.345 292.097 448.361 293.563 449.068C296.396 450.435 301.198 452.631 304.273 452.63C302.924 449.984 294.846 447.1 292.016 446.998ZM417.918 463.649C390.719 468.457 390.804 487.745 411.244 479.837C411.657 502.779 413.471 529.329 415.098 552.426C411.267 552.868 406.661 553.125 403.933 556.159C400.362 560.132 404.939 565.223 408.346 567.212C413.239 570.068 417.767 570.54 423.165 570.486C430.223 569.906 439.672 568.191 444.184 562.382C451.011 553.594 439.996 550.864 433.576 550.613C433.211 529.226 432.315 508.05 429.881 486.791C429.563 484.013 429.29 481.153 429.158 478.361C432.585 477.883 442.691 476.929 440.466 471.49C437.259 463.651 424.526 462.837 417.918 463.649ZM282.299 469.396C282.526 470.533 282.347 470.981 283.109 471.338C286.736 473.036 292.005 474.465 295.824 475.65C295.35 473.938 295.788 474.113 294.056 473.256C291.383 471.932 285.092 469.723 282.299 469.396ZM277.808 496.585L277.544 498.217C279.308 499.713 287.047 500.405 289.416 500.431L289.075 499.012C287.019 497.878 280.817 497.372 277.808 496.585ZM273.414 521.656C275.679 523.803 285.48 524.566 288.473 523.829C286.506 521.924 276.147 521.26 273.414 521.656ZM284.22 542.216C280.532 542.366 272.706 542.445 269.544 543.222C268.292 544.713 268.757 543.851 268.468 546.064C269.852 548.491 275.321 547.338 278.006 547.089C282.64 546.825 289.208 546.793 293.246 544.794L293.623 544.054C291.675 541.847 286.973 542.15 284.22 542.216ZM286.138 571.779C283.634 572.024 277.613 572.151 276.097 573.727C276.626 574.56 276.284 574.318 276.993 574.608C279.23 574.379 285.269 573.986 286.804 572.84L286.789 572.09L286.138 571.779ZM298.06 626.012C294.962 627.428 290.221 628.806 287.932 630.187L287.565 631.194C288.21 632.283 287.755 631.93 288.756 632.505C291.489 631.14 296.632 629.202 298.603 627.775L298.866 626.801C298.696 626.623 298.244 626.108 298.06 626.012Z" fill="#CFBAF0"/>
<path d="M516.13 349.879C514.715 349.643 514.784 349.708 513.603 348.919C512.056 345.401 511.583 295.777 512.952 291.586C514.343 292.148 514.842 292.529 514.955 294.127C516.211 311.97 517.61 329.663 517.271 347.586C517.256 348.387 516.565 349.283 516.13 349.879Z" fill="#010000"/>
<path d="M537.314 310.039L536.31 309.341C534.992 307.267 536.931 299.423 537.502 296.715C538.589 297.348 538.149 296.916 538.804 298.028C538.797 301.116 538.326 307.192 537.314 310.039Z" fill="#010000"/>
<path d="M627.165 297.621C688.246 326.456 739.413 384.298 762.994 447.636C772.23 472.447 780.537 508.463 780.583 535.088C776.82 534.674 769.94 534.211 766.592 533.148C763.554 438.069 705.376 347.99 619.211 307.354C621.77 304.73 624.836 300.587 627.165 297.621Z" fill="#FBF8CC"/>
<path d="M488.456 310.658L487.334 310.356C485.602 308.281 485.258 300.703 484.98 297.609C486.16 297.963 485.612 297.684 486.613 298.468C487.565 302.043 488.238 306.953 488.456 310.658Z" fill="#010000"/>
<path d="M562.593 313.261L561.369 312.832C560.451 310.812 563.065 302.777 563.809 300.133C565.037 300.626 564.522 300.28 565.285 301.302C565.255 303.96 563.335 310.439 562.593 313.261Z" fill="#010000"/>
<path d="M462.884 315.42C460.376 313.732 458.469 303.935 459.397 301.25C460.015 301.553 460.161 301.742 460.704 302.179C461.658 305.748 463.04 311.821 462.884 315.42Z" fill="#010000"/>
<path d="M586.961 321.416L585.857 320.874C585.117 318.185 588.411 309.858 589.63 307.129L590.572 307.67C591.176 309.909 587.84 318.311 586.961 321.416Z" fill="#010000"/>
<path d="M439.298 323.243C435.954 322.313 433.581 313.203 433.561 310.156C436.412 311.441 439.282 320.387 439.298 323.243Z" fill="#010000"/>
<path d="M204.146 342.214L203.055 342.478L202.538 341.802C201.566 332.76 209.317 320.654 217.463 316.824C219.144 317.275 218.608 316.781 219.403 318C218.496 319.555 215.595 320.536 214.016 321.846C207.855 326.954 205.051 334.652 204.146 342.214Z" fill="#010000"/>
<path d="M609.438 330.185L608.525 329.538C608.154 327.822 613.172 319.815 614.376 317.73C617.162 319.558 611.052 328.208 609.438 330.185Z" fill="#010000"/>
<path d="M414.473 333.154L413.71 332.77C412.304 330.77 407.141 322.643 407.457 320.383C409.993 321.372 414.723 330.44 414.473 333.154Z" fill="#010000"/>
<path d="M610.522 369.76C610.086 369.436 609.642 369.121 609.223 368.774C608.637 368.288 607.9 367.493 607.943 366.674C608.037 364.892 632.792 329.455 635.787 326.352C637.2 327.457 637.37 327.728 637.329 329.275C632.564 336.568 615.178 365.849 610.522 369.76Z" fill="#010000"/>
<path d="M413.111 369.821C412.631 369.798 411.81 369.65 411.308 369.575C407.463 366.848 391.911 338.728 389.26 332.692C388.69 331.395 389.431 330.402 389.99 329.336C393.465 330.515 399.191 341.614 401.301 345.114C405.598 352.238 409.875 359.454 414.322 366.503C414.943 367.487 413.63 368.99 413.111 369.821Z" fill="#010000"/>
<path d="M650.026 354.036L649.328 353.434C649.098 350.44 654.293 344.727 656.286 342.258L657.245 342.848C657.39 344.965 651.674 351.865 650.026 354.036Z" fill="#010000"/>
<path d="M376.046 357.391C373.985 354.627 368.478 347.585 367.32 344.812L367.967 343.398C369.813 344.853 374.505 351.715 375.825 354.145C376.732 355.817 376.51 355.951 376.046 357.391Z" fill="#010000"/>
<path d="M138.393 350.17C136.429 349.627 137.17 350.153 135.962 348.747C135.605 346.724 136.239 345.691 136.972 343.668C139.062 344.762 138.339 344.004 139.485 345.755C139.686 347.749 139.254 348.254 138.393 350.17Z" fill="#010000"/>
<path d="M668.31 370.449C667.274 369.507 667.502 370.085 667.412 368.768C669.057 366.487 672.905 362.856 675.117 360.336L676.149 361.113C675.978 363.332 670.166 368.592 668.31 370.449Z" fill="#010000"/>
<path d="M124.753 369.09C122.58 369.672 120.336 368.431 119.674 366.28C119.012 364.13 120.169 361.842 122.293 361.1C123.739 360.596 125.345 360.922 126.48 361.95C127.615 362.978 128.097 364.544 127.737 366.033C127.377 367.522 126.232 368.694 124.753 369.09ZM122.443 362.775C121.225 363.376 120.671 364.81 121.168 366.074C121.665 367.338 123.048 368.01 124.349 367.62C125.293 367.337 125.997 366.547 126.17 365.577C126.343 364.607 125.956 363.622 125.168 363.03C124.381 362.438 123.327 362.34 122.443 362.775Z" fill="#010000"/>
<path d="M357.805 372.679L356.245 372.249C353.871 369.799 347.916 364.178 347.643 361.297C350.443 361.853 357.465 369.922 357.805 372.679Z" fill="#010000"/>
<path d="M124.349 367.618C123.048 368.008 121.665 367.336 121.168 366.072C120.671 364.808 121.225 363.374 122.443 362.773C123.327 362.338 124.381 362.436 125.168 363.028C125.956 363.62 126.343 364.605 126.17 365.575C125.997 366.545 125.293 367.335 124.349 367.618Z" fill="#E6DFD5"/>
<path d="M686.335 388.146L685.49 387.165C685.695 385.261 693.192 380.036 695.329 378.312L696.125 379.228C694.976 381.453 688.513 386.359 686.335 388.146Z" fill="#010000"/>
<path d="M341.619 392.153C338.373 392.079 331.383 385.481 329.055 382.946C332.769 382.736 339.981 389.188 341.619 392.153Z" fill="#010000"/>
<path d="M511.319 526.361L510.732 526.095C510.938 513.464 510.531 500.822 510.857 488.116C511.027 481.485 509.303 467.45 514.048 462.504C516.768 459.668 523.057 460.312 526.657 458.733C527.428 449.511 533.079 438.988 540.299 433.161C544.97 429.392 549.776 426.548 554.118 422.017C558.442 417.505 574.146 388.863 577.677 388.289C581.676 391.459 577.669 392.546 580.445 396.532L581.031 396.744C581.342 395.954 581.641 395.214 581.97 394.429C583.999 398.338 584.876 402.077 584.591 406.495C584.444 408.773 584.402 413.99 582.446 415.197C581.662 413.792 581.608 413.269 581.242 411.741C581.101 415.494 577.898 417.358 577.663 420.794L576.998 420.623C575.583 415.956 576.724 405.637 575.605 402.744L574.826 402.346C574.697 402.525 571.893 413.212 571.707 414.029C570.681 418.527 564.92 434.486 567.401 438.243C568.379 433.758 567.999 432.279 572.664 430.009C572.756 430.966 571.2 434.351 572.126 436.82C572.225 437.084 572.545 441.841 572.57 442.474C572.848 449.494 568.934 450.177 570.715 457.65L571.472 457.961L571.241 458.525L570.662 457.535L571.512 457.506C571.561 449.549 573.427 445.847 574.878 438.271C575.042 437.415 574.815 435.241 575.25 434.608C575.388 436.539 575.805 438.871 575.915 440.349C576.107 442.916 572.794 454.843 574.403 456.952L576.052 455.79L576.686 456.049C576.624 457.542 575.792 459.887 575.336 461.391C577.132 460.72 578.875 459.914 580.77 459.845L581.156 460.261C578.455 462.932 578.932 465.4 576.998 467.506L576.268 467.268C575.698 465.968 575.204 464.831 574.71 463.49C574.278 465.592 574.277 466.303 572.41 467.598L571.884 467.243L571.671 465.882C571.09 468.096 571.701 467.349 570.229 468.526L568.186 468.579C567.341 467.296 568.499 464.545 568.955 462.985L568.561 462.486C567.252 466.014 568.024 477.455 568.363 481.477C569.77 498.214 569.096 532.264 577.158 546.845L576.363 546.865C569.107 537.627 567.832 489.864 567.308 476.374C567.167 472.751 567.087 460.287 566.317 457.696L563.757 456.727C564.96 452.121 565.749 447.395 566.021 442.642C566.261 438.457 565.935 433.465 566.773 429.362C569.729 414.891 574.531 401.226 578.836 387.234C571.826 394.178 561.619 414.744 554.378 423.212C550.308 427.973 544.614 430.257 540.291 434.393C533.367 441.017 528.073 450.028 527.65 459.754C510.103 461.334 511.348 467.033 511.473 482.662L511.773 506.967C511.884 512.743 512.359 520.75 511.319 526.361Z" fill="#FFCFD2"/>
<path d="M604.973 462.037L605.633 461.79C610.76 459.925 618.688 459.365 620.54 466.647C621.458 472.565 620.765 480.529 620.554 486.42C619.777 508.071 620.987 536.499 608.323 554.937C587.174 585.728 556.431 559.781 553.598 531.756C552.182 517.741 549.627 504.919 550.629 490.66C551.084 482.238 554.084 482.577 553.479 470.934L547.519 472.082C539.62 497.153 529.803 545.344 538.128 570.591L537.791 571.534C534.009 571.921 516.636 561.868 512.864 559.12C515.686 576.258 510.489 589.94 501.997 604.79C498.993 609.113 496.331 613.987 493.109 618.253C482.579 632.194 471.76 645.93 461.371 659.979L449.212 676.714C447.546 679.052 442.747 687.002 440.079 687.171C439.419 684.517 447.07 661.678 448.409 657.287L464.452 604.674C468.884 590.578 476.436 571.209 484.17 558.572C488.285 551.849 491.971 549.819 499.206 548.39C494.277 539.819 489.624 531.013 484.062 522.851C479.832 516.645 476.03 510.32 472.185 503.868C470.088 516.295 471.539 534.66 471.139 547.517C470.851 552.688 471.933 562.137 468.307 566.178C466.081 568.658 459.212 568.673 457.462 565.575C454.682 560.655 457.044 551.589 457.057 545.899C457.078 536.564 456.222 527.666 455.754 518.371C455.232 508.932 454.931 499.9 454.42 490.5C454.098 484.585 452.119 477.909 452.748 471.997C453.072 469.716 454.04 467.967 455.86 466.638C461.938 462.901 468.408 468.668 472.415 472.217C479.931 478.875 503.291 528.137 510.43 529.818C511.513 528.477 511.157 528.476 511.319 526.361C512.359 520.75 511.884 512.743 511.773 506.967L511.473 482.662C511.348 467.033 510.103 461.334 527.65 459.754C528.073 450.028 533.367 441.017 540.291 434.393C544.614 430.257 550.308 427.973 554.378 423.212C561.619 414.744 571.826 394.178 578.836 387.234C574.531 401.226 569.729 414.891 566.773 429.362C565.935 433.465 566.261 438.457 566.021 442.642C565.749 447.395 564.96 452.121 563.757 456.727L566.317 457.696C567.087 460.287 567.167 472.751 567.308 476.374C567.832 489.864 569.107 537.627 576.363 546.865C578.09 550.007 581.987 553.558 585.932 552.898C588.393 552.273 590.432 549.088 591.841 547.217C599.491 537.077 600.384 524.114 601.347 511.903C602.422 498.285 602.585 484.604 602.836 470.956C602.875 468.818 602.944 465.872 603.971 464.009C604.394 463.243 604.616 462.872 604.973 462.037ZM551.476 429.601C546.55 432.947 540.791 436.844 537.403 441.852C532.09 449.704 528.186 456.143 534.768 464.369C534.257 468.87 533.068 473.934 531.987 478.366C527.543 496.586 524.705 515.04 521.81 533.549C521.298 536.817 518.138 538.091 515.408 539.553C500.385 527.191 491.934 507.571 481.806 490.857C477.919 483.82 466.609 462.304 456.381 470.68C454.753 472.013 457.323 491.328 457.405 495.586C457.834 517.873 461.008 540.168 459.242 562.446C459.035 565.05 463.081 565.07 465.125 564.932C466.525 563.436 467.537 562.04 467.681 559.942C469.115 538.931 467.468 516.925 469.534 495.907C477.674 505.571 484.395 520.09 491.798 530.603C494.867 534.962 497.911 542.666 501.609 546.258C510.619 555.011 522.567 562.141 533.832 567.115C528.711 541.187 534.676 512.723 539.77 487.164C541.077 481.283 542.371 475.365 544.623 469.757C545.132 468.489 547.778 468.747 548.909 468.819C558.492 469.435 561.515 454.172 562.561 447.211C563.191 443.019 564.312 435.812 561.827 432.84C557.09 431.607 555.833 431.96 551.476 429.601ZM563.14 459.824C560.23 464.288 557.099 481.487 553.591 487.224C551.992 489.838 554.923 511.295 554.64 515.243C555.119 523.841 556.093 531.79 558.352 540.1C565.679 567.058 596.065 577.203 609.234 547.553C617.897 528.049 617.671 502.945 618.32 481.748C618.638 474.647 621.306 460.639 608.966 463.47C606.117 464.123 605.722 466.987 605.542 469.443C605.108 491.317 605.324 513.619 600.762 535.13C599.127 541.519 593.303 554.173 586.576 555.634C579.465 557.178 572.85 548.981 571.293 542.654C565.47 518.991 564.924 493.677 563.982 469.388C563.888 466.982 564.471 461.365 563.14 459.824ZM525.43 462.656C521.625 463.282 519.416 463.325 516.371 465.73L516.099 466.662C517.5 467.91 522.384 467.904 525.43 468.823L530.194 471.16C533.238 468.868 531.287 461.196 526.535 462.564C526.6 462.545 525.376 462.66 525.43 462.656ZM514.502 470.087C513.242 487.603 515.837 506.394 514.708 523.986C514.531 526.743 513.095 532.792 514.703 534.952C516.353 535.588 515.484 535.49 517.415 534.935C519.845 532.788 519.615 530.412 519.966 527.113C520.99 518.909 522.222 510.214 523.734 502.1C525.488 492.682 528.109 483.004 529.794 473.6C522.857 470.833 521.934 470.51 514.502 470.087ZM499.378 551.133C493.935 551.996 490.807 553.638 487.818 558.584C467.324 592.487 457.292 640.635 444.783 678.246C446.979 675.476 448.504 673.437 450.454 670.497C458.002 660.095 465.44 649.995 473.233 639.441C489.248 617.751 514.032 591.866 510.545 562.731C509.818 556.657 505.612 551.734 499.378 551.133Z" fill="#010000"/>
<path d="M125.743 405.663C123.592 406.319 121.31 405.137 120.605 403.001C119.899 400.865 121.029 398.556 123.148 397.802C124.563 397.299 126.14 397.601 127.268 398.592C128.396 399.583 128.9 401.108 128.583 402.576C128.267 404.044 127.18 405.225 125.743 405.663ZM123.629 399.337C122.357 399.836 121.699 401.242 122.129 402.538C122.559 403.834 123.929 404.567 125.246 404.207C126.163 403.956 126.866 403.219 127.075 402.291C127.283 401.363 126.962 400.396 126.24 399.778C125.518 399.159 124.514 398.989 123.629 399.337Z" fill="#010000"/>
<path d="M699.769 408.286C699.153 407.3 699.34 407.862 699.307 406.571C700.454 405.376 709.166 399.674 711.454 397.992C711.585 398.155 711.882 398.993 711.973 399.227C710.888 401.458 702.33 406.628 699.769 408.286Z" fill="#010000"/>
<path d="M125.244 404.204C123.927 404.564 122.557 403.831 122.127 402.535C121.697 401.239 122.355 399.833 123.627 399.334C124.512 398.986 125.516 399.156 126.238 399.775C126.96 400.393 127.281 401.36 127.073 402.288C126.864 403.216 126.161 403.953 125.244 404.204Z" fill="#E6DFD5"/>
<path d="M586.745 405.307C584.679 403.368 585.182 401.819 585.255 399.117L586.305 399.905C587.044 401.454 586.789 403.515 586.745 405.307Z" fill="#FFCFD2"/>
<path d="M327.244 413.704C323.896 413.235 316.972 408.556 314.217 406.44L314.291 404.969C317.019 405.859 326.112 411.2 327.244 413.704Z" fill="#010000"/>
<path d="M242.78 417.206C245.15 417.599 248.101 416.82 250.499 416.331C259.315 414.536 267.587 414.043 276.589 414.618C260.166 444.893 251.481 473.025 246.943 507.005C242.419 505.689 224.567 492.855 220.268 489.352C224.678 464.445 232.243 440.201 242.78 417.206Z" fill="#A3C4F3"/>
<path d="M248.854 511.663C251.484 480.094 263.298 443.519 278.544 415.836C281.378 416.999 290.012 417.433 293.269 417.56C276.457 447.193 265.519 481.099 261.952 514.989L261.728 514.893C258.087 513.285 252.942 512.574 248.854 511.663Z" fill="#BAC3FB"/>
<path d="M174.887 439.86C193.872 431.77 219.24 423.624 239.5 420.176C229.365 443.388 223.226 462.603 218.695 487.849C218.041 487.755 216.529 487.481 216.045 487.176C206.09 480.882 178.379 449.184 174.887 439.86Z" fill="#A3C4F3"/>
<path d="M685.409 447.311C683.718 445.812 682.926 445.538 683.108 443.218C686.577 438.42 717.343 425.289 724.388 421.914C725.781 422.33 726.005 422.78 726.175 424.007C725.416 425.264 688.964 445.859 685.409 447.311Z" fill="#010000"/>
<path d="M333.194 442.843C329.347 442.442 304.854 429.159 300.657 426.229C300.271 424.318 300.679 424.308 301.466 422.125C309.489 426.088 327.114 434.317 333.469 439.43C334.087 441.016 333.781 440.773 333.194 442.843Z" fill="#010000"/>
<path d="M534.77 464.37C528.188 456.144 532.092 449.705 537.405 441.853C540.793 436.845 546.552 432.948 551.478 429.602C555.835 431.961 557.092 431.608 561.829 432.841C564.314 435.813 563.193 443.02 562.563 447.212C561.517 454.173 558.494 469.436 548.911 468.82C547.78 468.748 545.134 468.49 544.625 469.758C542.373 475.366 541.079 481.284 539.772 487.165C534.678 512.724 528.713 541.188 533.834 567.116C522.569 562.142 510.621 555.012 501.611 546.259C497.913 542.667 494.869 534.963 491.8 530.604C484.397 520.091 477.676 505.572 469.536 495.908C467.47 516.926 469.117 538.932 467.683 559.943C467.539 562.041 466.527 563.437 465.127 564.933C463.083 565.071 459.037 565.051 459.244 562.447C461.01 540.169 457.836 517.874 457.407 495.587C457.325 491.329 454.755 472.014 456.383 470.681C466.611 462.305 477.921 483.821 481.808 490.858C491.936 507.572 500.387 527.192 515.41 539.554C518.14 538.092 521.3 536.818 521.812 533.55C524.707 515.041 527.545 496.587 531.989 478.367C533.07 473.935 534.259 468.871 534.77 464.37Z" fill="#F1C0E8"/>
<path d="M127.201 443.329C125.845 443.816 124.333 443.534 123.244 442.592C122.154 441.65 121.657 440.195 121.942 438.783C122.227 437.372 123.251 436.223 124.62 435.778C126.694 435.105 128.924 436.22 129.629 438.283C130.334 440.346 129.253 442.593 127.201 443.329ZM124.799 437.243C123.575 437.791 123.013 439.216 123.534 440.452C124.055 441.688 125.468 442.28 126.715 441.785C127.545 441.456 128.132 440.703 128.249 439.818C128.366 438.932 127.995 438.053 127.279 437.518C126.564 436.984 125.615 436.879 124.799 437.243Z" fill="#010000"/>
<path d="M126.715 441.784C125.468 442.279 124.055 441.687 123.534 440.451C123.013 439.215 123.575 437.79 124.799 437.242C125.615 436.878 126.564 436.983 127.279 437.517C127.995 438.052 128.366 438.931 128.249 439.817C128.132 440.702 127.545 441.455 126.715 441.784Z" fill="#E6DFD5"/>
<path d="M165.637 443.997C168.576 442.561 171.873 441.184 174.888 439.859C178.38 449.183 206.091 480.881 216.046 487.175C216.53 487.48 218.042 487.754 218.696 487.848C218.173 490.721 217.581 493.696 217.175 496.579C212.004 493.157 209.844 492.448 203.427 487.763C192.338 479.668 171.665 456.36 165.637 443.997Z" fill="#BAC3FB"/>
<path d="M722.685 450.682C722.057 450.172 722.18 450.189 721.729 449.466L722.018 448.538C724.578 446.582 731.756 443.809 734.915 442.461C735.259 442.731 735.444 443.098 735.712 443.489C734.417 445.803 725.885 449.024 722.685 450.682Z" fill="#010000"/>
<path d="M384.031 811.825C370.904 816.467 350.597 825.905 337.306 831.503C288.757 851.955 242.239 859.425 191.757 839.984C134.789 817.476 94.1583 774.576 68.3978 720.342C18.358 614.993 56.071 493.324 165.636 443.996C171.664 456.359 192.337 479.667 203.426 487.762C209.843 492.447 212.003 493.156 217.174 496.578C213.807 515.664 213.447 534.758 214.168 554.054C216.23 609.259 233.556 664.873 265.335 710.342C297.3 756.078 334.523 786.536 384.031 811.825ZM139.132 474.664C137.61 475.078 136.439 476.295 136.083 477.831C135.726 479.367 136.242 480.975 137.426 482.017C138.609 483.059 140.269 483.367 141.748 482.82C143.899 482.023 145.041 479.674 144.341 477.49C143.64 475.306 141.345 474.061 139.132 474.664ZM138.196 509.859C135.995 510.679 134.881 513.133 135.712 515.33C136.543 517.527 139.002 518.629 141.195 517.787C143.372 516.951 144.465 514.513 143.64 512.331C142.815 510.15 140.382 509.045 138.196 509.859Z" fill="#90DBF4"/>
<path d="M304.273 452.628C301.198 452.629 296.396 450.433 293.563 449.066C292.097 448.359 292.396 448.343 292.016 446.996C294.846 447.098 302.924 449.982 304.273 452.628Z" fill="#010000"/>
<path d="M618.32 481.748C617.671 502.945 617.897 528.049 609.234 547.553C596.065 577.203 565.68 567.058 558.353 540.1C556.094 531.79 555.119 523.841 554.64 515.243C554.923 511.295 551.992 489.838 553.591 487.224C557.099 481.487 560.23 464.288 563.14 459.824C564.471 461.365 563.888 466.982 563.982 469.388C564.924 493.677 565.47 518.991 571.293 542.654C572.85 548.981 579.466 557.178 586.577 555.634C593.304 554.173 599.127 541.519 600.762 535.13C605.324 513.619 605.109 491.317 605.543 469.443C605.723 466.987 606.117 464.123 608.966 463.47C621.306 460.639 618.638 474.647 618.32 481.748Z" fill="#F7E7EB"/>
<path d="M717.232 518.48C715.868 523.121 714.005 542.41 715.7 546.543C721.454 546.534 751.219 542.725 739.261 557.343C738.13 558.726 732.371 559.78 730.351 560.177C719.679 559.506 698.096 566.1 696.441 550.787C695.627 528.804 696.443 505.733 697.029 483.715C697.325 480.722 695.075 470.824 696.244 468.586C700.117 461.168 732.847 458.282 737.762 462.717C752.802 476.289 721.058 474.855 715.34 474.945C715.762 482.883 715.114 492.267 715.829 499.872C717.577 505.903 728.895 500.665 733.142 504.385C736.107 506.982 736.045 511.138 733.97 513.88C731.001 517.803 721.879 517.863 717.232 518.48ZM724.317 463.702C717.888 464.302 703.891 464.832 699.501 469.377C699.897 495.917 698.449 522.363 699.651 548.878C699.75 551.063 700.579 554.494 701.917 556.286C708.863 559.218 735.159 559.216 739.677 552.302C738.975 548.627 728.822 549.254 725.735 549.279C713.94 549.874 710.763 550.811 712.073 536.436C712.5 531.753 711.8 518.939 716.071 515.773C719.287 513.388 733.88 517.225 732.265 508.198C727.505 501.371 711.409 513.324 712.535 494.853C712.894 488.962 712.474 478.067 711.786 472.084C718.281 472.001 732.786 472.663 737.495 469.464C737.831 468.804 738.277 468.37 738.029 467.744C735.86 462.27 728.285 463.29 724.317 463.702Z" fill="#010000"/>
<path d="M357.552 475.506C359.301 471.56 362.365 462.784 366.761 461.312C372.778 459.296 377.639 465.579 378.865 470.766C381.66 483.502 382.131 496.585 383.826 509.492C385.767 527.828 388.326 546.167 388.874 564.582C388.981 569.024 387.624 574.761 382.355 575.919C372.187 577.43 369.001 565.948 368.2 558.566C366.325 541.297 364.891 524.104 363.652 506.887C360.549 518.444 357.977 531.656 352.769 542.278C350.643 546.613 342.258 548.759 337.955 547.208C326.504 543.081 323.525 520.803 321.325 510.228C320.323 521.231 319.65 532.285 319.156 543.322C318.869 549.726 319.215 556.813 318.07 563.098C317.592 565.719 317.095 568.342 314.954 570.129C313.644 571.222 311.651 571.767 309.973 571.475C308.353 571.193 307.156 570.154 306.367 568.761C300.972 559.229 306.486 488.601 310.255 476.857C311.271 473.692 313.409 470.768 316.483 469.348C318.607 468.367 321.001 468.398 323.16 469.264C326.803 470.724 328.812 474.464 330.167 477.927C331.201 480.57 332.137 483.257 333.083 485.933C336.594 497.199 339.213 508.424 342.662 519.421C347.587 504.129 352.05 490.692 357.552 475.506ZM367.496 463.497C358.624 473.541 348.537 521.822 343.429 526.176C342.227 525.811 341.876 525.385 341.266 524.279C339.602 521.259 339.374 517.113 338.6 513.758C336.801 505.95 329.834 473.844 322.746 471.138C321.002 470.473 319.308 470.851 317.727 471.735C315.636 472.905 314.753 475.155 314.22 477.367C311.15 490.105 304.404 559.738 309.935 567.491C310.441 568.2 310.772 568.208 311.542 568.535C315.045 567.883 314.938 566.103 315.778 563.265C317.661 556.909 316.644 504.436 320.978 503.123L321.978 504.106C324.638 516.669 327.054 532.277 334.639 542.585C359.985 555.478 357.875 501.461 365.306 497.07C367.899 499.726 369.224 561.221 374.324 569.117C375.871 572.334 381.272 575.013 384.127 571.725C387.25 567.803 385.494 558.308 385.121 553.379C383.11 526.797 380.178 500.24 377.325 473.743C376.692 467.861 374.094 462.872 367.496 463.497Z" fill="#010000"/>
<path d="M601.535 497.063C601.433 490.418 600.99 466.115 604.259 461.98L604.973 462.04C604.616 462.875 604.394 463.246 603.971 464.012C602.944 465.875 602.875 468.821 602.836 470.959C602.585 484.607 602.422 498.288 601.347 511.906C600.384 524.117 599.491 537.08 591.841 547.22C590.432 549.091 588.393 552.276 585.932 552.901C581.987 553.561 578.09 550.01 576.363 546.868L577.158 546.848C580.896 550.989 585.099 554.455 589.715 548.683C597.674 538.73 599.741 526.484 599.336 514.084C599.205 510.064 600.076 505.507 599.638 501.423C599.646 501.496 600.484 499.362 600.532 499.241L601.38 499.236L601.535 497.063Z" fill="#FFCFD2"/>
<path d="M672.977 475.864C670.998 483.667 671.708 498.161 671.599 506.625C671.377 523.968 671.468 541.172 672.11 558.508C673.143 565.173 673.757 566.568 670.019 572.434C664.154 573.38 663.37 572.543 659.08 568.668C657.643 565.932 657.119 564.78 656.032 561.84C655.282 559.528 654.97 556.815 654.577 554.419C650.372 528.8 653.008 502.544 651.309 477.003C645.404 476.983 639.427 478.599 633.521 478.108C631.375 477.929 629.002 477.332 627.634 475.527C626.786 474.409 626.203 472.616 626.575 471.221C627.193 468.898 630.402 467.238 632.426 466.404C640.926 462.9 680.969 459.35 688.949 463.003C690.828 463.863 692.752 465.344 693.329 467.43C693.758 468.98 693.346 470.847 692.322 472.071C688.829 476.245 678.075 475.266 672.977 475.864ZM667.525 464.704C660.861 465.288 631.596 465.883 629.569 472.61C632.212 480.448 651.559 468.828 653.749 476.458C655.428 482.308 654.247 491.141 654.622 497.381C655.105 514.142 654.474 547.826 659.462 563.156C661.018 566.455 664.222 570.844 668.485 569.487C669.191 568.543 669.517 568.143 669.64 566.927C670.112 562.272 669.067 556.791 668.946 552.049C668.672 541.289 667.024 479.645 670.532 474.364C671.308 473.196 672.843 472.873 674.127 472.665C677.893 472.056 686.983 473.132 689.465 470.437C690.305 469.525 690.177 468.843 690.161 467.704C687.518 463.173 672.357 464.107 667.525 464.704Z" fill="#010000"/>
<path d="M525.431 468.824C522.385 467.905 517.501 467.91 516.1 466.662L516.372 465.73C519.417 463.325 521.626 463.282 525.431 462.656C525.377 462.66 526.601 462.545 526.536 462.564C531.288 461.196 533.239 468.868 530.195 471.16L525.431 468.824Z" fill="#F1C0E8"/>
<path d="M321.979 504.103L320.979 503.12C316.645 504.433 317.662 556.906 315.779 563.262C314.939 566.1 315.046 567.88 311.543 568.532C310.773 568.205 310.442 568.197 309.936 567.488C304.405 559.735 311.151 490.102 314.221 477.364C314.754 475.152 315.637 472.902 317.728 471.732C319.309 470.848 321.003 470.47 322.747 471.135C329.835 473.841 336.802 505.947 338.601 513.755C339.375 517.11 339.603 521.256 341.267 524.276C341.877 525.382 342.228 525.808 343.43 526.173C348.538 521.819 358.625 473.538 367.497 463.494C374.095 462.869 376.693 467.858 377.326 473.74C380.179 500.237 383.111 526.794 385.122 553.376C385.495 558.305 387.251 567.8 384.128 571.722C381.273 575.01 375.872 572.331 374.325 569.114C369.225 561.218 367.9 499.723 365.307 497.067C357.876 501.458 359.986 555.475 334.64 542.582C327.055 532.274 324.639 516.666 321.979 504.103Z" fill="#CFBAF0"/>
<path d="M411.244 479.836C390.804 487.744 390.719 468.456 417.918 463.648C424.526 462.836 437.259 463.65 440.466 471.489C442.691 476.928 432.585 477.882 429.158 478.36C429.29 481.152 429.563 484.012 429.881 486.79C432.315 508.049 433.211 529.225 433.576 550.612C439.996 550.863 451.011 553.593 444.184 562.381C439.672 568.19 430.223 569.905 423.165 570.485C417.767 570.539 413.239 570.067 408.346 567.211C404.939 565.222 400.362 560.131 403.933 556.158C406.661 553.124 411.267 552.867 415.098 552.425C413.471 529.328 411.657 502.778 411.244 479.836ZM418.67 466.157C412.872 466.927 399.389 470.281 399.441 477.424C402.204 481.98 409.73 475.395 413.55 475.85C414.717 477.873 414.096 489.008 414.309 492.77C415.499 513.691 416.638 534.697 418.58 555.561C415.166 555.928 407.996 555.99 406.096 558.321C404.003 565.693 415.884 567.406 420.76 567.796C427.515 567.839 442.651 565.743 443.069 557.168C440.793 552.625 434.861 553.76 430.564 554.154C430.531 526.989 429.344 502.686 425.869 475.641C428.488 475.094 435.54 474.119 437.296 473.172C438.571 466.477 423.289 465.522 418.67 466.157Z" fill="#010000"/>
<path d="M725.734 549.281C728.821 549.256 738.974 548.629 739.676 552.304C735.158 559.218 708.862 559.22 701.916 556.288C700.578 554.496 699.749 551.065 699.65 548.88C698.448 522.365 699.896 495.919 699.5 469.379C703.89 464.834 717.887 464.304 724.316 463.704C728.284 463.292 735.859 462.272 738.028 467.746C738.276 468.372 737.83 468.806 737.494 469.466C732.785 472.665 718.28 472.003 711.785 472.086C712.473 478.069 712.893 488.964 712.534 494.855C711.408 513.326 727.504 501.373 732.264 508.2C733.879 517.227 719.286 513.39 716.07 515.775C711.799 518.941 712.499 531.755 712.072 536.438C710.762 550.813 713.939 549.876 725.734 549.281Z" fill="#F7E7EB"/>
<path d="M659.463 563.155C654.475 547.825 655.106 514.142 654.623 497.381C654.248 491.141 655.429 482.307 653.75 476.457C651.56 468.827 632.213 480.448 629.57 472.61C631.597 465.883 660.862 465.287 667.526 464.703C672.358 464.106 687.519 463.173 690.162 467.704C690.178 468.843 690.306 469.525 689.466 470.437C686.984 473.132 677.894 472.056 674.128 472.665C672.844 472.873 671.309 473.196 670.533 474.364C667.025 479.645 668.673 541.289 668.947 552.049C669.068 556.791 670.113 562.272 669.641 566.927C669.518 568.143 669.192 568.543 668.486 569.487C664.223 570.844 661.019 566.454 659.463 563.155Z" fill="#F7E7EB"/>
<path d="M418.581 555.562C416.639 534.698 415.5 513.692 414.31 492.771C414.097 489.009 414.718 477.874 413.551 475.851C409.731 475.396 402.205 481.981 399.442 477.425C399.39 470.282 412.873 466.928 418.671 466.158C423.29 465.523 438.572 466.478 437.297 473.173C435.541 474.12 428.489 475.095 425.87 475.642C429.345 502.687 430.532 526.99 430.565 554.155C434.862 553.761 440.794 552.626 443.07 557.169C442.652 565.744 427.516 567.84 420.761 567.797C415.885 567.407 404.004 565.694 406.097 558.322C407.997 555.991 415.167 555.929 418.581 555.562Z" fill="#F1C0E8"/>
<path d="M295.824 475.649C292.005 474.464 286.736 473.035 283.109 471.337C282.347 470.98 282.526 470.532 282.299 469.395C285.092 469.722 291.383 471.931 294.056 473.255C295.788 474.112 295.35 473.937 295.824 475.649Z" fill="#010000"/>
<path d="M519.966 527.116C519.615 530.415 519.845 532.791 517.415 534.938C515.484 535.493 516.353 535.591 514.703 534.955C513.095 532.795 514.531 526.746 514.708 523.989C515.837 506.397 513.242 487.606 514.502 470.09C521.934 470.513 522.857 470.836 529.794 473.603C528.109 483.007 525.488 492.685 523.734 502.103C522.222 510.217 520.99 518.912 519.966 527.116Z" fill="#F1C0E8"/>
<path d="M141.749 482.819C140.27 483.366 138.61 483.058 137.427 482.016C136.243 480.974 135.727 479.366 136.084 477.83C136.44 476.294 137.611 475.077 139.133 474.663C141.346 474.06 143.641 475.305 144.342 477.489C145.042 479.673 143.9 482.022 141.749 482.819ZM139.551 476.267C138.642 476.541 137.957 477.292 137.769 478.223C137.581 479.153 137.92 480.112 138.651 480.717C139.383 481.322 140.388 481.476 141.267 481.117C142.539 480.598 143.179 479.17 142.721 477.875C142.262 476.579 140.867 475.871 139.551 476.267Z" fill="#010000"/>
<path d="M333.082 485.931C334.634 486.719 349.702 489.702 351.364 489.188C353.742 486.175 354.613 476.717 357.551 475.504C352.049 490.69 347.586 504.127 342.661 519.419C339.212 508.422 336.593 497.197 333.082 485.931Z" fill="url(#paint1_linear_2293_114937)"/>
<path d="M141.266 481.12C140.387 481.479 139.382 481.325 138.65 480.72C137.919 480.115 137.58 479.156 137.768 478.226C137.956 477.295 138.641 476.544 139.55 476.27C140.866 475.874 142.261 476.582 142.72 477.878C143.178 479.173 142.538 480.601 141.266 481.12Z" fill="#90DBF4"/>
<path d="M220.268 489.355C224.567 492.858 242.419 505.692 246.943 507.008C246.843 508.062 246.441 513.149 246.26 513.866C237.014 511.721 226.108 498.969 218.889 497.857C219.308 495.017 219.768 492.182 220.268 489.355Z" fill="#BAC3FB"/>
<path d="M289.417 500.432C287.048 500.406 279.309 499.714 277.545 498.218L277.809 496.586C280.818 497.373 287.02 497.879 289.076 499.013L289.417 500.432Z" fill="#010000"/>
<path d="M218.89 497.855C226.109 498.967 237.015 511.719 246.261 513.864C245.184 528.241 244.381 542.306 244.913 556.738C248.816 662.611 318.3 759.518 418.676 795.738C413.148 800.938 391.075 806.712 387.245 810.975C268.149 755.22 199.72 627.951 218.89 497.855Z" fill="#90DBF4"/>
<path d="M141.196 517.789C139.003 518.631 136.544 517.529 135.713 515.332C134.882 513.135 135.996 510.681 138.197 509.861C140.383 509.047 142.816 510.152 143.641 512.333C144.466 514.515 143.373 516.953 141.196 517.789ZM138.471 511.716C137.341 512.393 136.919 513.824 137.502 515.005C138.085 516.186 139.478 516.721 140.702 516.235C141.587 515.884 142.199 515.066 142.287 514.118C142.374 513.17 141.922 512.253 141.116 511.746C140.31 511.239 139.288 511.227 138.471 511.716Z" fill="#010000"/>
<path d="M140.702 516.233C139.478 516.719 138.085 516.184 137.502 515.003C136.919 513.822 137.341 512.391 138.471 511.714C139.288 511.225 140.31 511.237 141.116 511.744C141.922 512.251 142.374 513.168 142.287 514.116C142.199 515.064 141.587 515.882 140.702 516.233Z" fill="#90DBF4"/>
<path d="M248.854 511.664C252.942 512.575 258.087 513.286 261.728 514.894L261.952 514.99L261.564 519.556C257.369 518.316 252.768 516.746 248.443 516.513C248.504 514.879 248.692 513.29 248.854 511.664Z" fill="#CFBAF0"/>
<path d="M248.444 516.512C252.769 516.745 257.37 518.315 261.565 519.555C260.962 531.419 260.044 543.048 260.686 554.943C266.142 656.035 329.079 745.47 424.484 781.096C420.739 784.591 415.386 787.21 412.582 790.767C375.964 776.779 335.866 747.764 310.809 717.857C261.527 659.035 242.14 592.318 248.444 516.512Z" fill="url(#paint2_linear_2293_114937)"/>
<path d="M288.473 523.83C285.48 524.567 275.679 523.804 273.414 521.657C276.147 521.261 286.506 521.925 288.473 523.83Z" fill="#010000"/>
<path d="M744.043 534.056C746.314 532.224 754.695 531.658 757.957 531.61C758.968 531.595 758.831 531.907 759.702 532.962C755.687 534.318 749.536 534.673 745.287 534.734L744.043 534.056Z" fill="#010000"/>
<path d="M759.702 532.961C761.011 533.706 761.435 533.396 763.202 533.364C765.147 613.513 732.695 686.514 671.239 738.473C662.304 746.028 625.496 770.834 614.147 773.312C610.875 772.457 592.521 771.865 588.846 772.14C588.32 770.06 588.246 768.808 586.869 767.278L586.196 767.246C585.759 769.109 586.415 770.733 586.92 772.605C581.466 772.574 567.875 772.939 563.17 772.469L562.174 771.673L561.466 771.951C561.308 772.397 561 773.175 560.91 773.607C555.77 775.048 538.313 770.024 531.858 769.135C525.841 768.306 519.949 767.229 513.629 767.047C513.912 762.601 514.727 746.409 513.219 743.029C511.658 742.457 511.119 742.652 509.485 742.851C508.437 744.245 509.4 764.619 509.432 767.895C506.769 768.087 506.472 768.438 504.069 769.828C500.44 769.446 496.927 769.06 493.312 768.564C481.557 768.433 453.612 759.848 441.297 757.195C442.154 754.809 447.202 748.446 448.907 746.011C455.728 736.265 462.583 726.556 469.83 717.121C471.36 714.712 473.134 712.476 474.842 710.194C489.658 690.537 505.423 671.484 522.051 653.328C531.489 643.023 540.922 631.782 551.109 622.303C556.042 617.053 562.085 611.526 567.327 606.437C586.105 591.833 607.233 578.681 629.901 571.157C638.762 567.332 647.784 565.314 656.034 561.842C657.121 564.782 657.645 565.933 659.082 568.669C663.372 572.544 664.156 573.382 670.021 572.436C676.832 571.396 671.512 561.48 673.98 558.902C674.557 559.032 675.279 559.195 676.144 559.39C681.087 557.324 687.063 553.852 692.538 554.398C695.749 554.718 696.388 556.919 698.089 558.08C705.573 563.19 721.568 562.139 730.09 560.983L730.351 560.179C732.371 559.782 738.13 558.728 739.261 557.345C751.219 542.727 721.454 546.536 715.7 546.545C716.267 543.662 715.742 542.583 716.318 540.331C723.158 532.881 735.155 535.772 744.043 534.055L745.287 534.733C749.536 534.672 755.687 534.317 759.702 532.961ZM741.958 553.974L741.583 555.775C743.434 558.082 753.15 556.695 756.362 556.355L756.867 555.506C755.754 553.817 744.487 554.04 741.958 553.974ZM740.979 582.128C741.586 583.388 741.294 583.486 742.309 583.74C745.251 584.475 752.109 585.128 754.977 584.819L754.224 583.376C750.904 582.486 744.535 582.318 740.979 582.128ZM736.014 606.947L736.325 608.733C738.801 610.458 745.634 610.64 748.858 610.856L748.85 609.311C746.767 607.52 739.171 607.454 736.014 606.947ZM727.848 632.957L727.289 634.64C728.65 636.937 735.072 638.538 738.067 640.243C738.187 639.165 738.485 638.643 737.975 637.961C736.248 635.648 730.712 634.16 727.848 632.957ZM689.865 638.208C688.923 639.477 688.061 640.255 688.097 641.77C689.925 645.284 721.661 658.841 727.546 660.974L728.603 659.758C728.319 658.456 727.874 658.107 726.405 657.338C718.866 653.394 697.02 639.876 689.865 638.208ZM707.658 670.361C707.759 672.061 707.555 672.21 709.324 673.638C711.852 675.68 715.572 678.244 718.842 678.495C717.89 675.892 710.259 670.745 707.658 670.361ZM692.096 691.783C691.774 693.083 691.428 693.21 691.962 694.035C693.126 695.834 698.973 700.796 700.688 701.296L701.302 699.723C700.084 697.641 694.189 692.568 692.096 691.783ZM672.765 712.233C672.293 713.541 671.897 713.695 672.642 714.882C674.248 717.441 677.829 722.16 680.655 723.102C680.926 720.866 680.064 720.614 678.511 718.453C677.431 716.95 674.124 712.928 672.765 712.233ZM614.137 716.669C612.911 717.974 612.045 718.556 611.927 720.304C613.677 727.182 630.994 751.685 635.66 757.094L637.172 755.198C636.889 753.986 631.44 744.797 630.6 743.741C626.557 738.662 618.923 718.646 614.137 716.669ZM650.697 730.198C649.96 731.526 649.661 731.357 650.032 732.39C650.811 734.555 655.349 741.223 656.886 742.332C657.632 740.958 657.853 741.282 657.485 740.164C656.759 737.956 652.292 731.352 650.697 730.198ZM607.877 755.208C607.157 758.497 611.528 767.344 614.503 768.8C614.238 765.771 610.962 759.107 609.476 756.061C608.582 755.425 608.883 755.518 607.877 755.208Z" fill="#B9FBC0"/>
<path d="M766.591 533.148C769.939 534.211 776.818 534.674 780.581 535.088C780.535 553.418 779.332 574.499 776.049 592.531C766.146 646.918 739.314 697.273 700.13 736.199C680.384 755.817 662.252 767.93 638.049 781.492C634.996 776.783 632.711 773.562 630.562 768.349C649.351 759.625 670.766 743.084 685.755 728.724C740.13 676.632 767.45 609.306 766.591 533.148Z" fill="#97F8B7"/>
<path d="M783.168 535.473C792.623 536.002 801.882 537.05 811.291 538.051C812.499 649.872 750.959 752.945 651.95 804.932C647.563 797.835 643.553 790.616 639.061 783.567C660.128 772.582 685.841 754.649 702.474 737.752C741.885 697.716 769.434 646.363 779.021 590.864C782.085 573.123 783.243 553.433 783.168 535.473Z" fill="#97F8B7"/>
<path d="M813.45 538.844C833.541 541.449 849.817 544.293 869.15 551.02C872.049 552.029 878.618 554.027 880.973 555.298C865.122 573.775 842.904 590.873 820.485 600.423C815.687 602.467 811.609 604.211 806.404 604.681C811.341 580.603 813.631 563.278 813.45 538.844Z" fill="#B9FBC0"/>
<path d="M278.007 547.088C275.322 547.337 269.853 548.49 268.469 546.063C268.758 543.85 268.293 544.712 269.545 543.221C272.707 542.444 280.533 542.365 284.221 542.215C286.974 542.149 291.676 541.846 293.624 544.053L293.247 544.793C289.209 546.792 282.641 546.824 278.007 547.088Z" fill="#010000"/>
<path d="M672.111 558.51C677.819 555.887 690.27 552.198 696.44 550.789C698.095 566.102 719.677 559.508 730.349 560.179L730.089 560.983C721.567 562.139 705.572 563.19 698.088 558.08C696.387 556.919 695.747 554.718 692.536 554.398C687.061 553.852 681.086 557.324 676.143 559.39C675.278 559.195 674.556 559.032 673.979 558.902C671.511 561.48 676.831 571.396 670.02 572.436C673.758 566.57 673.144 565.175 672.111 558.51Z" fill="#97F8B7"/>
<path d="M444.783 678.25C457.292 640.639 467.324 592.491 487.818 558.588C490.807 553.642 493.935 552 499.378 551.137C505.612 551.738 509.818 556.661 510.545 562.735C514.032 591.87 489.248 617.755 473.233 639.445C465.44 649.999 458.002 660.099 450.454 670.501C448.504 673.441 446.979 675.48 444.783 678.25Z" fill="#8EECF5"/>
<path d="M263.236 553.992L263.936 554.509C264.82 561.782 264.945 568.49 266.051 575.823C269.922 601.498 277.281 627.887 288.725 651.264C290.047 653.966 294.429 663.644 296.283 665.378C298.166 663.605 299.279 652.558 300.117 651.861C305.702 647.216 315.989 642.81 322.008 638.748L322.682 638.5C326.217 637.176 328.573 634.441 331.906 635.825C334.065 637.935 333.847 639.759 335.569 640.609L336.396 640.054C337.205 639.519 337.368 639.36 338.341 639.189C340.115 640.733 339.458 641.738 339.878 642.006C341.727 643.191 344.404 643.817 345.727 645.819C344.86 646.365 345.348 646.112 344.243 646.539C340.527 651.096 348.479 659.491 350.019 664.2C351.289 668.083 352.104 671.701 353.718 675.553C355.189 679.067 361.227 684.749 361.372 688.03C361.687 695.137 367.278 698.865 369.655 705.283C370.241 706.884 366.018 711.873 366.149 713.135C367.068 721.995 377.706 724.673 370.03 733.159C368.277 735.097 367.34 736.871 364.738 738.602C362.641 738.549 363.417 738.942 362.074 737.922C361.861 732.477 371.975 728.667 368.247 725.191C365.354 727.935 360.227 725.882 358.216 729.795C357.612 730.97 359.043 730.823 357.225 732.703C355.335 732.839 355.941 733.176 354.901 732.32L356.164 730.04C353.274 728.887 348.141 728.227 346.06 724.945C345.206 723.597 345.526 722.206 344.061 721.036C338.954 724.408 352.026 734.377 354.828 736.118C356.833 737.365 358.292 739.643 360.116 740.387C362.574 739.684 360.19 739.532 362.17 738.485C363.318 748.192 367.336 743.988 373.354 745.513C375.252 745.994 380.144 751.184 383.061 752.161C387.926 749.085 396.607 727.288 401.517 722.476C404.153 719.892 407.966 709.463 412.817 712.471C417.098 720.589 385.34 751.035 385.239 757.461C388.814 762.273 404.819 766.908 407.326 770.804C399.594 767.645 389.167 761.776 382.309 757.237C382.529 756.929 383.243 755.958 383.189 755.687C382.184 750.601 372.272 744.855 368.025 747.799C366.207 746.81 363.598 744.575 361.824 743.241C302.94 698.957 266.673 627.556 263.236 553.992ZM330.929 635.978C325.775 637.752 303.11 649.643 300.103 653.522L299.925 654.713L300.819 655.719C301.246 655.679 301.698 655.684 302.067 655.538C307.248 653.048 330.01 642.296 333.166 638.778C333.163 637.128 332.554 636.609 330.929 635.978ZM320.635 669.907C318.351 671.504 311.468 675.962 310.192 678.084L310.574 678.826L311.253 678.941C313.483 677.433 321.163 672.76 321.745 670.673C321.364 670.371 321.047 670.037 320.635 669.907ZM336.514 688.936C333.558 691.256 329.19 694.372 326.885 697.171C326.818 698.632 326.725 697.907 327.559 699.312C329.665 697.469 335.838 692.39 337.049 690.212C336.826 689.421 336.968 689.386 336.514 688.936ZM353.466 708.853C351.352 710.886 344.195 717.218 343.606 719.48C344.475 720.132 344.077 719.975 344.695 720.159C347.025 718.205 353.811 712.255 354.183 709.447L353.466 708.853ZM410.463 712.223C406.238 717.162 384.905 749.166 385.15 753.492L386.014 753.591L386.805 752.769C388.19 750.559 394.635 739.738 396.04 739.068L397.211 739.153C399.952 736.122 411.949 718.662 412.536 714.5C412.058 713.183 411.965 712.854 410.463 712.223ZM371.732 725.881C369.718 728.244 364.447 734.023 363.231 736.529C363.479 737.501 363.297 737.274 363.853 738.022C366.241 736.059 372.132 730.24 372.427 727.256L371.732 725.881Z" fill="#8EECF5"/>
<path d="M756.361 556.354C753.149 556.694 743.433 558.081 741.582 555.774L741.957 553.973C744.486 554.039 755.753 553.816 756.866 555.505L756.361 556.354Z" fill="#010000"/>
<path d="M806.404 604.68C811.609 604.21 815.687 602.466 820.485 600.422C842.904 590.872 865.122 573.774 880.973 555.297L881.36 555.339C921.522 571.9 948.653 595.914 965.671 636.945C979.435 671.531 974.883 716.308 961.116 749.835C943.872 791.829 905.719 825.822 863.753 841.581C814.535 860.064 751.893 859.571 703.731 837.968C683.957 829.099 672.408 820.696 655.617 807.502C664.244 803.337 671.19 798.767 679.171 793.513C743.62 751.089 791.217 680.449 806.404 604.68ZM846.209 659.689C845.638 661.716 845.318 662.264 845.652 664.265C846.816 665.814 847.116 665.961 849.209 666.007C850.012 664.103 850.071 664.174 850.054 662.156C848.933 659.999 848.8 659.91 846.209 659.689ZM853.32 687.725C852.405 689.601 852.035 690.025 851.991 692.037C852.7 693.558 852.594 693.636 854.663 694.398C855.816 692.648 856.076 692.47 856.238 690.467C855.544 688.758 855.213 688.387 853.32 687.725ZM836.652 705.653C836.061 719.244 835.67 732.421 832.31 745.714C831.704 748.114 829.112 756.574 829.256 758.428L830.253 759.224C834.504 749.452 840.451 715.6 837.736 706.222L836.652 705.653ZM850.482 715.18C849.25 718.161 846.881 727.522 847.757 730.522L848.373 731.162C849.283 728.47 852.278 718.096 851.247 715.774L850.482 715.18ZM819.579 722.586C818.943 740.556 813.476 755.148 806.641 771.519C806.135 772.731 806.194 773.188 806.57 774.316L807.487 774.58C812.11 764.09 823.428 733.782 821.176 723.398C820.313 722.837 820.535 722.896 819.579 722.586ZM799.781 739.226C799.104 742.689 793.382 763.935 793.659 764.802L794.643 765.518C796.776 761.281 801.38 745.115 801.002 740.495C800.306 739.421 800.76 739.705 799.781 739.226ZM789.293 784.455C788.448 784.785 787.849 785.549 787.729 786.448C787.609 787.347 787.986 788.241 788.714 788.782C789.442 789.323 790.406 789.427 791.233 789.052C792.465 788.494 793.028 787.055 792.502 785.809C791.976 784.562 790.553 783.961 789.293 784.455ZM748.235 794.228C745.985 796.727 744.904 799.921 748.677 801.686C751.188 799.168 752.172 796.091 748.235 794.228Z" fill="#97F8B7"/>
<path d="M276.994 574.606C276.285 574.316 276.627 574.558 276.098 573.725C277.614 572.149 283.635 572.022 286.139 571.777L286.79 572.088L286.805 572.838C285.27 573.984 279.231 574.377 276.994 574.606Z" fill="#010000"/>
<path d="M754.977 584.82C752.109 585.129 745.25 584.476 742.308 583.741C741.293 583.487 741.586 583.389 740.979 582.129C744.535 582.319 750.904 582.487 754.224 583.377L754.977 584.82Z" fill="#010000"/>
<path d="M388.5 606.663C386.248 607.391 368.485 606.895 364.517 606.965L362.857 609.01C355.023 609.195 353.668 611.616 347.276 614.191C346.402 614.249 340.533 612.763 340.169 612.993C334.731 616.435 333.296 619.819 326.285 619.28C322.41 618.982 318.821 624.465 317.279 627.33C316.652 628.492 309.479 628.942 307.994 628.864C302.338 625.106 306.044 607.191 299.824 604.67C297.091 603.562 284.115 605.873 280.896 607.482C279.094 607.106 279.827 607.534 278.612 606.173C278.307 604.369 278.108 605.128 278.938 603.761C280.991 602.972 285.827 602.143 288.026 602.266C311.973 603.603 336.211 605.728 360.184 605.993C360.452 606.215 360.72 606.438 360.988 606.661C368.97 606.717 380.891 607.013 388.5 606.663ZM289.428 602.678C286.978 603.037 280.973 603.656 279.326 605.367L279.558 606.012L281.113 606.054C283.619 605.636 289.695 604.898 291.353 603.203L290.93 602.563L289.428 602.678Z" fill="#8EECF5"/>
<path d="M281.113 606.057L279.558 606.015L279.326 605.37C280.973 603.659 286.978 603.04 289.428 602.681L290.93 602.566L291.353 603.206C289.695 604.901 283.619 605.639 281.113 606.057Z" fill="#010000"/>
<path d="M360.184 605.995C362.302 605.733 369.125 605.845 371.455 605.838C379.868 605.813 388.273 605.971 396.698 605.823L438.697 604.843C447.015 604.646 456.21 604.219 464.453 604.676L448.41 657.289C447.071 661.68 439.42 684.519 440.08 687.173C442.748 687.004 447.547 679.054 449.213 676.716L461.372 659.981C471.761 645.932 482.58 632.196 493.11 618.255C496.332 613.989 498.994 609.115 501.998 604.792C516.699 606.367 534.606 603.504 549.759 604.802C555.51 605.294 560.859 604.416 566.651 606.229L567.326 606.436C562.084 611.525 556.041 617.052 551.108 622.302C540.921 631.781 531.488 643.022 522.05 653.327C505.422 671.483 489.657 690.536 474.841 710.193C473.133 712.475 471.359 714.711 469.829 717.12C462.582 726.555 455.727 736.264 448.906 746.01C447.201 748.445 442.153 754.808 441.296 757.194C437.208 756.373 418.021 752.468 415.244 753.433L414.83 754.474C413.381 756.657 414.353 755.969 411.805 756.606C412.541 754.925 414.222 752.086 412.948 750.586C411.661 751.647 411.41 752.902 410.813 754.499C407.398 755.495 405.178 757.105 404.223 760.658L404.736 761.901C405.875 762.305 406.682 762.482 407.908 762.088L408.704 762.111L407.565 763.195C408.452 764.237 408.075 764.886 407.744 766.021C405.592 764.393 403.379 761.989 403.364 759.174C404.249 757.525 407.211 754.897 408.933 754.064C412.284 752.443 409.393 750.189 413.609 749.291L414.37 749.811L414.717 752.283C422.737 752.624 430.258 754.874 438.165 755.529C440.51 755.992 442.313 753.579 443.539 751.799C475.179 705.859 510.016 662.662 549.106 622.823C554.345 617.483 559.867 612.325 565.136 606.844C562.733 604.906 506.594 604.897 501.794 606.493C501.1 608.689 496.844 614.579 495.241 616.751C484.316 631.545 472.876 646.222 461.868 660.943C458.24 665.794 445.016 684.955 441.79 687.889C440.21 688.34 440.975 688.339 439.413 687.931C437.604 685.261 441.752 676.253 442.762 672.922L455.232 631.696C456.466 627.707 463.041 608.004 462.285 605.647C451.381 602.707 449.899 620.109 438.237 608.969C437.055 608.714 436.079 608.467 434.913 608.146C435.153 607.446 435.286 607.015 435.492 606.282C430.962 605.357 416.648 606.329 411.512 606.428C404.205 606.57 395.663 606.289 388.5 606.665C380.891 607.015 368.97 606.719 360.988 606.663C360.72 606.44 360.452 606.217 360.184 605.995Z" fill="#90DBF4"/>
<path d="M748.858 610.854C745.634 610.638 738.801 610.456 736.325 608.731L736.014 606.945C739.171 607.452 746.767 607.518 748.85 609.309L748.858 610.854Z" fill="#010000"/>
<path d="M288.755 632.505C287.754 631.93 288.209 632.283 287.564 631.194L287.931 630.187C290.22 628.806 294.961 627.428 298.059 626.012C298.243 626.108 298.695 626.623 298.865 626.801L298.602 627.775C296.631 629.202 291.488 631.14 288.755 632.505Z" fill="#010000"/>
<path d="M322.008 638.748C319.669 639.275 318.474 639.91 316.345 640.971C314.029 638.356 318.597 636.951 313.112 634.362C312.216 632.761 312.292 633.549 312.581 631.969C315.384 632.645 321.368 634.272 323.067 636.535C322.416 639.076 322.014 636.306 322.008 638.748Z" fill="#8EECF5"/>
<path d="M738.065 640.243C735.07 638.538 728.648 636.937 727.287 634.64L727.846 632.957C730.71 634.16 736.246 635.648 737.973 637.961C738.483 638.643 738.185 639.165 738.065 640.243Z" fill="#010000"/>
<path d="M302.068 655.537C301.699 655.683 301.247 655.678 300.82 655.718L299.926 654.712L300.104 653.521C303.111 649.642 325.776 637.751 330.93 635.977C332.555 636.608 333.164 637.127 333.167 638.777C330.011 642.295 307.249 653.047 302.068 655.537Z" fill="#010000"/>
<path d="M727.546 660.973C721.661 658.84 689.925 645.283 688.097 641.769C688.061 640.254 688.923 639.476 689.865 638.207C697.02 639.875 718.866 653.393 726.405 657.337C727.874 658.106 728.319 658.455 728.603 659.757L727.546 660.973Z" fill="#010000"/>
<path d="M849.21 666.005C847.117 665.959 846.817 665.812 845.653 664.263C845.319 662.262 845.639 661.714 846.21 659.688C848.801 659.909 848.934 659.998 850.055 662.155C850.072 664.173 850.013 664.101 849.21 666.005Z" fill="#010000"/>
<path d="M311.252 678.94L310.573 678.825L310.191 678.083C311.467 675.961 318.35 671.503 320.634 669.906C321.046 670.036 321.363 670.37 321.744 670.672C321.162 672.759 313.482 677.432 311.252 678.94Z" fill="#010000"/>
<path d="M718.84 678.493C715.57 678.242 711.85 675.678 709.322 673.636C707.553 672.208 707.757 672.059 707.656 670.359C710.257 670.743 717.888 675.89 718.84 678.493Z" fill="#010000"/>
<path d="M854.664 694.396C852.595 693.634 852.701 693.556 851.992 692.035C852.036 690.023 852.406 689.599 853.321 687.723C855.214 688.385 855.545 688.756 856.239 690.465C856.077 692.468 855.817 692.646 854.664 694.396Z" fill="#010000"/>
<path d="M327.559 699.31C326.725 697.905 326.818 698.63 326.885 697.169C329.19 694.37 333.558 691.254 336.514 688.934C336.968 689.384 336.826 689.419 337.049 690.21C335.838 692.388 329.665 697.467 327.559 699.31Z" fill="#010000"/>
<path d="M700.687 701.294C698.972 700.794 693.125 695.832 691.961 694.033C691.427 693.208 691.773 693.081 692.095 691.781C694.188 692.566 700.083 697.639 701.301 699.721L700.687 701.294Z" fill="#010000"/>
<path d="M830.255 759.223L829.258 758.427C829.114 756.573 831.706 748.113 832.312 745.713C835.672 732.42 836.063 719.243 836.654 705.652L837.738 706.221C840.453 715.599 834.506 749.451 830.255 759.223Z" fill="#010000"/>
<path d="M344.694 720.158C344.076 719.974 344.474 720.131 343.605 719.479C344.194 717.217 351.351 710.885 353.465 708.852L354.182 709.446C353.81 712.254 347.024 718.204 344.694 720.158Z" fill="#010000"/>
<path d="M386.806 752.769L386.015 753.591L385.151 753.492C384.906 749.166 406.239 717.162 410.464 712.223C411.966 712.854 412.059 713.183 412.537 714.5C411.95 718.662 399.953 736.122 397.212 739.153L396.041 739.068C394.636 739.738 388.191 750.559 386.806 752.769Z" fill="#010000"/>
<path d="M680.654 723.099C677.828 722.157 674.247 717.438 672.641 714.879C671.896 713.692 672.292 713.538 672.764 712.23C674.123 712.925 677.43 716.948 678.51 718.451C680.063 720.612 680.925 720.863 680.654 723.099Z" fill="#010000"/>
<path d="M848.374 731.162L847.758 730.522C846.882 727.522 849.251 718.161 850.483 715.18L851.248 715.774C852.279 718.096 849.284 728.47 848.374 731.162Z" fill="#010000"/>
<path d="M635.659 757.093C630.993 751.684 613.676 727.181 611.926 720.303C612.044 718.555 612.91 717.973 614.136 716.668C618.922 718.645 626.556 738.661 630.599 743.74C631.439 744.796 636.888 753.985 637.171 755.197L635.659 757.093Z" fill="#010000"/>
<path d="M807.488 774.58L806.571 774.316C806.195 773.188 806.136 772.731 806.642 771.519C813.477 755.148 818.944 740.556 819.58 722.586C820.536 722.896 820.314 722.837 821.177 723.398C823.429 733.782 812.111 764.09 807.488 774.58Z" fill="#010000"/>
<path d="M363.852 738.02C363.296 737.272 363.478 737.499 363.23 736.527C364.446 734.021 369.717 728.242 371.731 725.879L372.426 727.254C372.131 730.238 366.24 736.057 363.852 738.02Z" fill="#010000"/>
<path d="M656.884 742.329C655.347 741.22 650.809 734.552 650.03 732.387C649.659 731.354 649.958 731.523 650.695 730.195C652.29 731.349 656.757 737.953 657.483 740.161C657.851 741.279 657.63 740.955 656.884 742.329Z" fill="#010000"/>
<path d="M794.644 765.519L793.66 764.803C793.383 763.936 799.105 742.69 799.782 739.227C800.761 739.706 800.307 739.422 801.003 740.496C801.381 745.116 796.777 761.282 794.644 765.519Z" fill="#010000"/>
<path d="M509.431 767.893C509.399 764.617 508.436 744.243 509.484 742.849C511.118 742.65 511.657 742.455 513.218 743.027C514.726 746.407 513.911 762.599 513.628 767.045C513.443 770.676 513.23 787.89 511.144 789.894L510.334 789.384C509.783 782.458 509.878 775.005 509.431 767.893Z" fill="#010000"/>
<path d="M368.025 747.797C372.272 744.853 382.184 750.599 383.189 755.685C383.243 755.956 382.529 756.927 382.309 757.235C377.918 754.727 372.198 750.703 368.025 747.797Z" fill="#E6DFD5"/>
<path d="M410.813 754.499C411.41 752.902 411.661 751.647 412.948 750.586C414.222 752.086 412.541 754.925 411.805 756.606C410.778 758.627 410.026 760.251 408.704 762.111L407.908 762.088C408.565 759.847 409.917 756.74 410.813 754.499Z" fill="#010000"/>
<path d="M414.83 754.475L415.244 753.434C418.021 752.469 437.208 756.374 441.296 757.195C453.611 759.848 481.556 768.433 493.311 768.564C496.926 769.06 500.439 769.446 504.068 769.828C506.471 768.438 506.768 768.087 509.431 767.895C509.878 775.007 509.783 782.46 510.334 789.386L511.144 789.896C513.23 787.892 513.443 770.678 513.628 767.047C519.948 767.229 525.84 768.306 531.857 769.135C538.312 770.024 555.769 775.048 560.909 773.607C561.931 776.626 562.89 783.111 564.82 784.37C565.806 781.764 563.877 775.266 563.169 772.469C567.874 772.939 581.465 772.574 586.919 772.605C587.367 774.784 587.424 776.509 588.933 778.021L589.679 777.914C590.258 776.125 589.377 774.044 588.845 772.14C592.52 771.865 610.874 772.457 614.146 773.312C611.804 774.711 609.024 775.853 606.515 776.913C554.419 798.92 492.995 800.702 439.23 783.694C430.692 780.994 419.48 776.077 411.078 772.581C415.206 767.832 414.815 760.619 414.83 754.475ZM437.581 761.227C435.725 764.599 433.206 768.887 432.286 772.578L432.53 773.412L433.373 773.779C434.776 771.275 439.06 764.339 438.673 761.973L437.581 761.227ZM460.187 769.791C459.256 772.53 456.259 780.469 457.23 782.889L458.249 783.671C459.19 781.149 461.802 772.655 460.953 770.294L460.187 769.791ZM484.673 775.066C484.055 777.784 481.971 785.207 483.179 787.29L484.64 787.912C485.157 785.118 486.964 777.522 485.833 775.45L484.673 775.066ZM537.111 775.339C535.604 777.388 535.916 787.235 538.308 788.964C539.19 786.378 538.521 779.297 538.174 776.344C537.762 775.906 537.604 775.66 537.111 775.339Z" fill="#E6DFD5"/>
<path d="M407.908 762.089C406.682 762.483 405.875 762.306 404.736 761.902L404.223 760.659C405.178 757.106 407.398 755.496 410.813 754.5C409.917 756.741 408.565 759.848 407.908 762.089Z" fill="#E6DFD5"/>
<path d="M614.502 768.799C611.527 767.343 607.156 758.496 607.876 755.207C608.882 755.517 608.581 755.424 609.475 756.06C610.961 759.106 614.237 765.77 614.502 768.799Z" fill="#010000"/>
<path d="M433.372 773.779L432.529 773.412L432.285 772.578C433.205 768.887 435.724 764.599 437.58 761.227L438.672 761.973C439.059 764.339 434.775 771.275 433.372 773.779Z" fill="#010000"/>
<path d="M586.92 772.605C586.415 770.733 585.759 769.109 586.196 767.246L586.869 767.278C588.246 768.808 588.32 770.06 588.846 772.14C589.378 774.044 590.259 776.125 589.68 777.914L588.934 778.021C587.425 776.509 587.368 774.784 586.92 772.605Z" fill="#010000"/>
<path d="M428.312 782.59C484.324 804.156 552.39 802.578 607.58 779.242C615.314 775.971 623.02 772.06 630.563 768.348C632.711 773.561 634.996 776.782 638.049 781.491C576.215 813.183 502.532 820.706 436.2 799.26C430.062 797.276 423.972 795.008 417.912 792.788C419.808 790.478 425.808 785.112 428.312 782.59Z" fill="#E6DFD5"/>
<path d="M458.249 783.669L457.23 782.887C456.259 780.467 459.256 772.528 460.187 769.789L460.953 770.292C461.802 772.653 459.19 781.147 458.249 783.669Z" fill="#010000"/>
<path d="M560.908 773.606C560.998 773.174 561.306 772.396 561.464 771.95L562.172 771.672L563.168 772.468C563.876 775.265 565.805 781.763 564.819 784.369C562.889 783.11 561.93 776.625 560.908 773.606Z" fill="#010000"/>
<path d="M484.64 787.912L483.179 787.29C481.971 785.207 484.055 777.784 484.673 775.066L485.833 775.45C486.964 777.522 485.157 785.118 484.64 787.912Z" fill="#010000"/>
<path d="M538.307 788.965C535.915 787.236 535.603 777.389 537.11 775.34C537.603 775.661 537.761 775.907 538.173 776.345C538.52 779.298 539.189 786.379 538.307 788.965Z" fill="#010000"/>
<path d="M424.482 781.098L428.311 782.592C425.807 785.114 419.807 790.48 417.911 792.79L412.58 790.769C415.384 787.212 420.737 784.593 424.482 781.098Z" fill="#90DBF4"/>
<path d="M418.675 795.737C495.253 824.08 565.85 819.028 639.061 783.566C643.553 790.615 647.563 797.834 651.95 804.931C569.511 848.217 471.572 850.453 387.244 810.974C391.074 806.711 413.147 800.937 418.675 795.737Z" fill="#E6DFD5"/>
<path d="M791.233 789.051C790.406 789.426 789.442 789.322 788.714 788.781C787.986 788.24 787.609 787.346 787.729 786.447C787.849 785.548 788.448 784.784 789.293 784.454C790.553 783.96 791.976 784.561 792.502 785.808C793.028 787.054 792.465 788.493 791.233 789.051Z" fill="#010000"/>
<path d="M748.677 801.685C744.904 799.92 745.985 796.726 748.235 794.227C752.172 796.09 751.188 799.167 748.677 801.685Z" fill="#010000"/>
<path d="M724.144 868.952C715.582 869.101 714.136 861.587 720.768 856.445C728.597 856.629 731.728 864.037 724.144 868.952Z" fill="#97F8B7"/>
<path d="M685.077 889.3C675.972 890.983 671.304 880.923 680.637 874.041C689.432 873.482 695.104 884.013 685.077 889.3Z" fill="#97F8B7"/>
<path d="M641.817 897.958C633.794 898.623 633.426 890.918 639.223 886.344C645.7 887.232 647.6 893.587 641.817 897.958Z" fill="#97F8B7"/>
<defs>
<linearGradient id="paint0_linear_2293_114937" x1="720.822" y1="401.035" x2="472.912" y2="552.675" gradientUnits="userSpaceOnUse">
<stop stop-color="#FFCBB6"/>
<stop offset="1" stop-color="#E4B6EA"/>
</linearGradient>
<linearGradient id="paint1_linear_2293_114937" x1="338.565" y1="486.853" x2="350.449" y2="512.598" gradientUnits="userSpaceOnUse">
<stop stop-color="#D6B3F4"/>
<stop offset="1" stop-color="#E0D7FF"/>
</linearGradient>
<linearGradient id="paint2_linear_2293_114937" x1="287.831" y1="687.334" x2="351.925" y2="637.064" gradientUnits="userSpaceOnUse">
<stop stop-color="#90E4F3"/>
<stop offset="1" stop-color="#A8DCFF"/>
</linearGradient>
</defs>
</svg>
