<svg width="1024" height="1024" viewBox="0 0 1024 1024" fill="none" xmlns="http://www.w3.org/2000/svg">
<path d="M438.59 210.49C441.953 201.607 444.781 192.492 449.558 184.211C464.462 158.38 494.303 135.63 521.261 123.485C541.788 114.236 567.634 107.924 590.184 110.671C599.134 111.762 608.049 114.53 616.453 117.73C624.205 120.682 632.209 123.944 639.337 128.197C661.856 141.634 679.105 161.673 700.555 176.52C706.729 180.793 713.404 184.264 720.117 187.6C745.922 200.421 773.17 201.868 801.245 204.502C834.754 207.646 867.92 223.379 889.795 249.267C904.08 266.172 914.188 286.373 923.204 306.432C939.893 343.567 947.725 413.993 943.589 454.372C942.226 467.678 936.27 492.581 931.514 505.098C930.151 508.685 928.88 512.141 925.226 513.86C922.692 502.113 916.802 490.056 908.591 481.233C885.439 456.357 844.003 449.798 811.379 449.997C800.666 450.062 789.83 451.878 779.157 451.371L778.369 451.329C768.182 435.758 758.365 419.773 748.892 403.758C737.754 384.927 726.998 363.513 711.585 347.834C693.236 329.17 672.612 323.069 647.104 322.773C646.181 316.984 643.927 312.066 639.912 307.789C636.017 303.64 631.336 301.326 625.809 300.255C615.874 298.329 602.369 299.489 591.969 299.513C565.722 299.573 539.319 300.393 513.097 299.688C516.187 299.621 519.218 299.493 522.293 299.172C517.796 293.077 510.658 288.022 504.948 283.095C499.071 277.966 493.292 272.726 487.613 267.379C469.09 249.962 453.478 231.054 438.59 210.49Z" fill="#FBF8CC"/>
<path d="M156.608 442.069C153.861 389.882 137.498 337.816 143.89 285.255C148.764 245.17 170.697 202.785 202.907 177.813C236.424 151.827 279.249 138.597 321.657 143.865C373.185 150.265 406.711 169.521 438.59 210.491C453.478 231.055 469.09 249.963 487.613 267.38C493.292 272.727 499.071 277.967 504.948 283.096C510.658 288.023 517.796 293.078 522.293 299.173C519.218 299.494 516.187 299.622 513.097 299.689C461.843 300.069 410.587 300.107 359.333 299.803L315.987 299.84C307.047 299.814 297.549 299.087 288.695 300.358C283.22 301.145 278.477 303.258 274.595 307.316C270.615 311.475 268.862 316.092 268.581 321.745C268.563 322.096 268.526 322.447 268.495 322.797C251.978 323.688 237.925 327.936 226.602 340.662C222.333 345.46 218.947 350.923 216.855 357.008C213.346 367.212 212.509 379.017 210.986 389.692L202.847 447.217C197.91 446.724 193.017 444.371 188.092 443.455C177.64 441.512 167.178 441.877 156.608 442.069Z" fill="#E5E4F8"/>
<path d="M268.495 322.8C268.526 322.45 268.563 322.099 268.581 321.748C268.862 316.095 270.615 311.478 274.595 307.319C278.477 303.261 283.22 301.148 288.695 300.361C297.549 299.09 307.047 299.817 315.987 299.843L359.333 299.806C410.587 300.11 461.843 300.072 513.097 299.692C539.319 300.397 565.722 299.577 591.969 299.517C602.369 299.493 615.874 298.333 625.809 300.259C631.336 301.33 636.017 303.644 639.912 307.793C643.927 312.07 646.181 316.988 647.104 322.777C672.612 323.073 693.236 329.174 711.585 347.838C726.998 363.517 737.754 384.931 748.892 403.762C758.365 419.777 768.182 435.762 778.369 451.333C780.773 455.052 783.212 459.748 786.547 462.678C790.514 466.162 797.203 468.524 801.992 470.807C811.372 475.168 820.698 479.645 829.968 484.238C849.105 493.943 859.312 501.898 865.452 523.52C869.927 539.282 869.252 555.007 870.831 571.083C871.247 582.36 871.521 593.664 872.195 604.928C874.951 604.894 876.902 604.729 878.922 606.856C880.643 608.668 881.095 611.05 880.943 613.475C880.701 617.328 878.949 621.86 875.952 624.407C874.813 625.375 873.493 626.142 872.198 626.882C871.811 639.355 872.573 656.514 862.493 665.829C849.585 677.758 822.017 677.09 805.196 676.066C803.617 675.97 800.203 675.656 799.153 674.344C797.067 671.737 798.098 655.132 797.54 650.757C793.266 617.182 769.3 589.468 735.917 582.37C715.793 578.133 694.81 582.051 677.571 593.265C661.806 603.653 649.379 621.06 645.664 639.682C644.438 645.825 643.152 665.298 641.194 669.114C634.657 670.841 618.018 668.883 610.704 668.515L559.23 665.914C548.814 665.357 538.226 664.378 527.798 664.432C520.796 664.613 513.549 663.846 506.545 663.494L466.205 661.47L423.487 659.365C415.36 658.998 407.02 659.002 398.932 658.184C397.258 658.015 395.507 657.917 394.199 656.76C392.436 653.777 393.025 649.845 393.12 646.515C393.677 627.119 387.155 609.627 373.678 595.538C360.064 581.306 340.015 573.896 320.499 573.654C300.973 573.411 282.81 579.731 268.826 593.523C254.818 607.339 249.047 623.892 248.961 643.293C252.888 643.427 256.774 643.767 260.685 644.141C262.166 630.999 265.721 618.156 274.33 607.825C283.843 596.407 298.472 589.448 313.172 588.169C329.772 586.724 346.069 591.28 358.788 602.187C370.574 612.415 377.853 626.877 379.048 642.436C380.176 657.923 375.15 673.23 365.061 685.033C354.616 697.094 339.557 703.945 323.716 704.939C307.864 705.835 292.309 700.369 280.503 689.751C267.915 678.393 261.195 662.799 260.413 645.978C245.65 644.054 217.887 646.453 206.264 637.981C200.894 634.067 198.334 628.773 197.385 622.352C193.115 622.316 186.437 623.204 182.88 620.409C181.053 618.974 180.194 616.734 179.974 614.477C179.619 610.844 180.862 606.717 183.294 603.975C186.943 599.861 191.587 599.623 196.69 599.44C195.433 570.238 193.456 541.351 194.668 512.105C196.556 490.43 200.161 468.821 202.847 447.22L210.986 389.695C212.509 379.02 213.346 367.215 216.855 357.011C218.947 350.926 222.333 345.463 226.602 340.665C237.925 327.939 251.978 323.691 268.495 322.8ZM525.524 301.829L521.077 301.622C521.187 308.671 521.206 315.736 521.427 322.782C527.848 322.94 534.272 322.969 540.694 322.869L540.492 314.799L540.577 301.712C535.563 301.656 530.538 301.78 525.524 301.829ZM544.587 324.763C523.613 325.423 502.475 324.515 481.48 324.523C428.416 324.37 375.352 324.492 322.29 324.891C309.301 324.958 296.312 324.948 283.323 324.863C274.289 324.834 264.685 324.186 255.785 325.898C245.334 328.014 235.808 333.352 228.548 341.162C223.596 346.437 220.307 351.949 218.173 358.863C215.801 366.546 214.954 374.876 213.805 382.822C212.096 394.691 210.45 406.568 208.868 418.455C205.505 443.049 200.963 467.756 198.861 492.488C210.117 493.052 222.005 494.383 233.244 494.089C243.471 495.34 254.186 495.359 264.489 495.883L322.364 498.711C379.356 501.324 436.333 504.258 493.292 507.514C493.425 494.519 493.673 481.525 494.033 468.535L495.401 413.635C495.609 404.566 494.882 385.874 497.207 378.322C499.308 371.501 503.314 367.13 509.548 363.86C510.792 363.715 512.318 362.964 513.519 362.529C530.808 360.992 548.783 362.293 566.151 362.599C618.198 364.952 670.45 363.837 722.523 365.027C718.088 357.856 712.283 351.002 706.019 345.364C696.31 336.627 683.731 329.997 670.998 327.061C659.336 324.373 647.541 324.867 635.669 324.851L599.074 324.882C580.993 324.863 562.639 323.891 544.587 324.763ZM602.525 365.537C577.013 364.743 551.497 364.085 525.978 363.561C518.458 363.461 510.176 363.439 504.522 369.204C501.514 372.271 499.536 376.323 498.695 380.516C497.182 388.064 497.973 396.534 497.685 404.231C496.855 425.988 496.289 447.754 495.985 469.525C495.574 482.143 494.96 494.823 495.118 507.446L542.659 510.434C560.42 511.766 578.197 512.882 595.985 513.779L599.863 418.973C600.648 401.187 602.132 383.315 602.525 365.537ZM542.963 512.267C527.025 511.229 510.997 509.824 495.033 509.365C494.687 522.664 493.857 536.106 494.049 549.397L535.25 551.553C542.3 551.894 549.516 552.503 556.57 552.444L594.622 554.536C594.971 541.564 595.159 528.543 595.918 515.588C578.254 514.699 560.601 513.592 542.963 512.267ZM557.187 554.349C536.205 552.799 515.013 551.945 493.984 551.215C493.419 564.93 493.343 578.661 492.944 592.382C492.68 601.463 491.337 614.642 492.826 623.208C493.486 627.022 495.248 630.56 497.894 633.385C507.096 643.185 528.592 641.909 541.501 642.139L542.169 642.186C550.895 642.784 567.468 644.523 575.437 643.046C579.326 642.325 583.128 640.604 586.063 637.924C588.57 635.642 590.345 632.67 591.164 629.38C593.093 621.764 592.325 612.577 592.624 604.734L594.547 556.463C582.241 555.133 569.562 555.058 557.187 554.349ZM540.663 643.961C526.825 643.109 505.996 645.667 496.04 634.249C493.7 631.565 491.808 628.17 491.102 624.658C489.193 615.166 490.753 601.294 491.103 591.328C491.559 577.888 491.877 564.443 492.057 550.997L306.615 540.606C269.821 538.526 232.895 535.698 196.061 534.609C196.003 545.793 196.189 557.231 197.085 568.38C201.432 568.324 210.191 567.149 213.505 570.407C216.675 573.524 215.348 580.654 214.957 584.652C214.868 585.563 214.774 586.468 214.653 587.375C209.128 586.945 203.597 586.981 198.059 586.956L198.574 599.455C203.025 599.577 209.69 599.012 213.678 600.901L213.846 601.641C207.669 605.605 185.526 593.229 182.215 610.491C181.706 613.146 181.749 615.795 183.46 618.025C184.765 619.725 186.24 620.006 188.248 620.206C194.372 620.817 201.226 619.07 207.018 621.471L207.308 622.042C204.773 622.874 202.195 622.616 199.569 622.444C200.495 628.376 202.814 633.261 207.852 636.84C216.978 643.321 235.908 642.579 247.085 643.183C247.488 622.846 253.075 605.987 268.041 591.603C282.662 577.552 302.047 571.435 322.118 571.941C341.877 572.44 361.793 580.257 375.464 594.728C388.428 608.451 394.842 624.947 394.783 643.732C394.777 645.78 394.259 654.993 395.839 655.896C397.793 657.013 509.697 661.956 523.083 662.406C525.41 662.495 527.739 662.548 530.068 662.564C546.426 663.991 563.013 664.46 579.42 665.282C599.634 666.296 619.957 667.555 640.192 667.918C641.104 661.794 641.273 655.556 642.076 649.408C644.29 632.454 650.714 617.122 662.13 604.282C675.855 589.053 695.123 579.975 715.605 579.087C736.89 577.839 757.779 585.221 773.553 599.565C788.304 613.018 797.26 632.043 799.348 651.793C800.121 659.105 799.901 666.516 800.221 673.859C805.995 674.232 811.778 674.444 817.563 674.493C831.33 674.572 850.846 674.864 861.191 664.229C870.619 654.537 870.584 639.787 870.369 627.19C862.549 629.702 853.912 630.72 845.746 631.371C837.99 631.989 820.661 634.286 814.88 629.032C812.92 627.249 811.559 624.729 811.489 622.048C811.391 618.31 813.956 615.412 817.374 614.224C821.394 612.826 826.778 613.281 831.032 613.109C839.029 612.786 864.113 612.085 869.296 606.565C871.508 599.996 869.326 577.036 868.902 569.225C861.184 572.261 851.881 574.971 843.494 574.669C838.358 574.484 834.385 571.643 829.578 570.477C827.237 569.909 824.525 570 822.113 569.876L596.449 556.474C595.064 573.033 594.951 589.849 594.449 606.456C594.233 613.609 594.815 622.125 593.218 629.099C592.36 632.845 590.05 636.488 587.276 639.113C579.417 646.55 568.865 645.136 558.981 644.734L540.663 643.961ZM292.761 301.685C285.79 302.419 279.412 304.381 274.793 310.03C272.784 312.488 269.861 317.842 270.521 321.144C270.651 321.794 270.702 321.815 270.975 322.319C275.12 323.966 292.107 322.828 297.626 322.907L317.516 322.952L317.959 301.883C309.671 301.674 301.031 301.087 292.761 301.685ZM320.054 301.741C319.757 308.753 319.531 315.885 319.803 322.898C348.015 322.835 376.269 322.201 404.475 322.683C404.81 315.75 404.538 308.718 404.341 301.781L320.054 301.741ZM502.892 301.749L450.942 301.991L450.792 322.489L468.626 322.533C485.502 322.446 502.379 322.446 519.255 322.532C519.17 315.621 519.188 308.691 518.979 301.784C513.607 301.668 508.264 301.601 502.892 301.749ZM542.806 301.752C542.681 308.734 542.424 315.784 542.773 322.76C558.544 322.634 574.315 322.611 590.086 322.692C590.303 315.718 590.587 308.743 590.472 301.764C574.635 301.205 558.659 301.634 542.806 301.752ZM594.055 301.755L592.937 302.223C591.797 308.594 592.452 316.176 592.373 322.697L643.606 322.669L644.543 322.225C644.413 317.397 641.408 312.175 638.022 308.859C628.078 299.122 607.18 301.54 594.055 301.755ZM406.301 301.85C406.458 308.787 406.54 315.726 406.548 322.664C420.596 322.712 434.777 323.132 448.809 322.645C448.825 315.745 448.976 308.819 448.835 301.922C434.658 302.038 420.479 302.014 406.301 301.85ZM604.544 365.496C604.367 374.443 603.584 383.378 603.095 392.312L601.027 435.753C599.851 461.773 599.538 487.936 597.951 513.92C669.917 518.45 741.826 523.83 813.665 530.06C815.435 523.492 817.542 517.414 823.851 513.863C830.272 510.25 837.604 511.425 844.611 510.664C848.665 510.224 852.577 509.231 856.47 508.045L852.929 503.221C850.518 500.16 848.249 497.454 845.138 495.062C834.412 486.816 810.338 477.207 797.317 470.695C793.16 468.615 788.447 466.639 784.689 463.885C780.366 468.834 775.594 472.508 768.752 472.841C762.455 473.148 756.282 470.558 751.712 466.301C743.254 458.423 729.688 433.151 722.769 421.839C718.424 414.734 713.275 407.642 709.697 400.128C708.714 398.064 707.683 395.647 707.721 393.313C707.769 390.333 709.189 387.306 711.426 385.35C715.335 381.932 721.245 381.327 726.202 381.861C729.069 382.17 731.965 382.954 734.709 383.828C731.386 378.334 728.096 372.392 723.961 367.484C710.835 366.256 697.362 367.234 684.167 366.965C657.653 366.425 631.062 365.421 604.544 365.496ZM718.555 384.117C715.271 385.451 711.823 387.07 710.271 390.5C709.128 393.024 709.644 394.914 710.691 397.34C714.984 407.289 722.24 417.035 727.921 426.303C735.22 438.208 742.714 452.974 751.649 463.447C753.922 466.111 756.233 467.967 759.527 469.294C763.901 471.056 768.3 471.066 772.865 470.231C777.309 468.239 780.401 466.05 783.055 461.836C772.074 445.766 761.647 429.324 751.791 412.541C746.853 404.315 741.925 394.079 735.972 386.697C729.989 384.35 724.963 383.652 718.555 384.117ZM198.559 494.177C196.282 506.853 196.401 520.018 196.186 532.859C202.298 532.995 208.406 533.3 214.502 533.773L215.345 533.431C215.928 529.191 215.777 524.719 215.892 520.436L216.463 495.071C210.49 494.889 204.521 494.591 198.559 494.177ZM218.5 495.297C218.512 508.194 218.169 521.089 217.472 533.968C272.737 536.271 328.057 539.897 383.28 543.141C419.53 545.27 455.916 546.746 492.119 549.374C492.83 535.96 492.696 522.507 493.19 509.083L296.25 499.147C270.362 497.915 244.401 496.055 218.5 495.297ZM857.084 509.58C854.163 510.993 851.336 511.855 848.192 512.633C852.312 522.813 854.679 533.087 855.567 544.033C855.971 549.005 855.275 568.818 856.091 570.759C857.291 571.095 857.957 570.818 859.114 570.48C862.327 569.483 865.479 568.496 868.56 567.135C868.144 550.196 867.496 531.342 860.77 515.594C860.106 514.042 859.025 511.23 857.845 510.109C857.621 509.897 857.337 509.757 857.084 509.58ZM832.671 513.213C827.636 513.846 823.326 515.557 820.047 519.603C814.993 525.843 814.604 535.375 815.646 543.03C816.906 552.286 821.459 561.587 829.042 567.265C831.677 569.239 834.783 570.754 837.902 571.788C843.212 572.75 848.266 572.913 853.58 571.82C855.194 553.101 854.427 529.943 846.089 512.944C841.596 513.226 837.172 513.306 832.671 513.213ZM597.877 515.766C596.857 528.486 596.576 541.763 596.518 554.527C619.255 556.386 642.118 557.277 664.895 558.607L745.87 563.609L796.637 566.608C806.035 567.165 815.558 568.032 824.968 568.008L825.432 567.307C823.385 564.168 820.699 561.477 818.696 558.32C813.897 550.756 813.028 540.488 813.467 531.778L739.544 526.486C692.311 522.793 645.172 518.694 597.877 515.766ZM197.161 569.99L198.082 584.997C203.042 585.141 208.042 585.416 213.001 585.407C213.722 580.518 213.647 575.544 212.781 570.678C207.592 569.962 202.39 569.961 197.161 569.99ZM312.963 589.473C281.558 593.325 259.244 621.938 263.16 653.335C267.076 684.732 295.734 706.987 327.123 703.007C358.422 699.039 380.6 670.481 376.695 639.174C372.79 607.867 344.277 585.631 312.963 589.473ZM873.953 606.464C864.282 614.126 843.616 614.51 831.309 614.858C827.022 614.98 822.263 614.5 818.132 615.767C815.67 616.522 813.783 617.961 813.326 620.627C812.98 622.647 814.197 625.427 815.498 626.92C816.611 628.197 818.025 628.953 819.504 629.728C828.744 631.363 865.344 629.224 872.827 624.238C876.036 622.1 878.025 618.904 878.611 615.101C878.942 612.954 879.213 609.558 877.747 607.778C876.881 606.725 875.232 606.537 873.953 606.464Z" fill="#010101"/>
<path d="M297.626 322.905C292.107 322.826 275.12 323.964 270.975 322.317C270.702 321.813 270.651 321.792 270.521 321.142C269.861 317.84 272.784 312.486 274.793 310.028C279.412 304.379 285.79 302.417 292.761 301.683C301.031 301.085 309.671 301.672 317.959 301.881L317.516 322.95L297.626 322.905Z" fill="#E5E4F8"/>
<path d="M319.802 322.895C319.53 315.882 319.756 308.75 320.053 301.738L404.34 301.778C404.537 308.715 404.809 315.747 404.474 322.68C376.268 322.198 348.014 322.832 319.802 322.895Z" fill="#E5E4F8"/>
<path d="M450.941 301.987L502.891 301.745C508.263 301.597 513.606 301.664 518.978 301.78C519.187 308.687 519.169 315.617 519.254 322.528C502.378 322.442 485.501 322.442 468.625 322.529L450.791 322.485L450.941 301.987Z" fill="#E5E4F8"/>
<path d="M521.076 301.621L525.523 301.828C527.508 304.762 537.338 313.926 540.491 314.798L540.693 322.868C534.271 322.968 527.847 322.939 521.426 322.781C521.205 315.735 521.186 308.67 521.076 301.621Z" fill="#E5E4F8"/>
<path d="M525.523 301.827C530.537 301.778 535.562 301.654 540.576 301.71L540.491 314.797C537.338 313.925 527.508 304.761 525.523 301.827Z" fill="#B9FBC0"/>
<path d="M542.772 322.757C542.423 315.781 542.68 308.731 542.805 301.749C558.658 301.631 574.634 301.202 590.471 301.761C590.586 308.74 590.302 315.715 590.085 322.689C574.314 322.608 558.543 322.631 542.772 322.757Z" fill="#B9FBC0"/>
<path d="M592.372 322.694C592.451 316.173 591.796 308.591 592.936 302.22L594.054 301.752C607.179 301.537 628.077 299.119 638.021 308.856C641.407 312.172 644.412 317.394 644.542 322.222L643.605 322.666L592.372 322.694Z" fill="#B9FBC0"/>
<path d="M406.548 322.662C406.54 315.724 406.458 308.785 406.301 301.848C420.479 302.012 434.658 302.036 448.835 301.92C448.976 308.817 448.825 315.743 448.809 322.643C434.777 323.13 420.596 322.71 406.548 322.662Z" fill="#FFCFD2"/>
<path d="M198.859 492.486C200.961 467.754 205.503 443.047 208.866 418.453C210.448 406.566 212.094 394.689 213.803 382.82C214.952 374.874 215.799 366.544 218.171 358.861C220.305 351.947 223.594 346.435 228.546 341.16C235.806 333.35 245.332 328.012 255.783 325.896C264.683 324.184 274.287 324.832 283.321 324.861C296.31 324.946 309.299 324.956 322.288 324.889C375.35 324.49 428.414 324.368 481.478 324.521C502.473 324.513 523.611 325.421 544.585 324.761C545.005 324.951 545.519 325.007 545.846 325.332C547.018 326.501 564.289 357.313 565.497 360.268C565.821 361.06 565.979 361.762 566.149 362.597C548.781 362.291 530.806 360.99 513.517 362.527C494.202 362.492 474.777 361.568 455.485 362.069L312.369 360.275C294.116 359.954 275.859 359.876 257.603 360.042C251.617 360.117 243.844 359.422 238.083 360.906C239.643 361.781 241.839 361.715 243.613 361.766C254.674 362.079 265.784 361.793 276.851 361.792L332.146 362.133C376.562 362.666 421.071 364.136 465.486 363.444C479.319 363.76 496.221 362.237 509.546 363.858C503.312 367.128 499.306 371.499 497.205 378.32C494.88 385.872 495.607 404.564 495.399 413.633L494.031 468.533C489.611 467.049 485.283 464.536 481.057 462.542C474.51 459.452 467.914 456.98 460.912 455.116C442.412 450.192 416.521 448.984 397.255 448.098C389.807 447.755 382.19 448.299 374.792 447.245C374.635 447.223 374.479 447.197 374.323 447.173C375.94 440.738 377.029 424.698 373.704 419.081C372.461 416.982 370.643 415.776 368.277 415.249C363.321 414.145 355.378 417.239 352.126 412.365C347.072 404.789 355.283 392.733 342.751 389.537C337.606 388.225 323.121 387.633 318.657 390.374C316.57 391.655 315.405 393.7 314.882 396.051C314.046 399.812 316.064 411.093 313.007 413.151C305.801 418.003 293.545 409.193 290.406 421.159C288.989 426.561 288.235 439.581 291.028 444.413C292.23 446.493 294.16 447.581 296.459 448.099C300.814 449.082 308.64 447.001 311.78 450.715C312.432 451.488 312.744 452.523 313.082 453.455C311.721 455 310.622 454.843 308.63 454.972C294.207 455.902 276.858 463.174 264.73 470.875C258.703 474.701 253.167 479.269 247.335 483.38C243.252 486.259 236.794 489.507 233.814 493.266C233.607 493.527 233.433 493.813 233.242 494.087C222.003 494.381 210.115 493.05 198.859 492.486Z" fill="#F1C0E8"/>
<path d="M544.586 324.761C562.638 323.889 580.992 324.861 599.073 324.88L635.668 324.849C647.54 324.865 659.335 324.371 670.997 327.059C683.73 329.995 696.309 336.625 706.018 345.362C712.282 351 718.087 357.854 722.522 365.025C670.449 363.835 618.197 364.95 566.15 362.597C565.98 361.762 565.822 361.06 565.498 360.268C564.29 357.313 547.019 326.501 545.847 325.332C545.52 325.007 545.006 324.951 544.586 324.761Z" fill="#B9FBC0"/>
<path d="M465.487 363.446C421.072 364.138 376.563 362.668 332.147 362.135L276.852 361.794C265.785 361.795 254.675 362.081 243.614 361.768C241.84 361.717 239.644 361.783 238.084 360.908C243.845 359.424 251.618 360.119 257.604 360.044C275.86 359.878 294.117 359.956 312.37 360.277L455.486 362.071L456.081 362.14C461.028 362.668 466.24 361.948 471.092 362.691L469.806 363.081L470.175 362.946L465.487 363.446Z" fill="#010101"/>
<path d="M455.486 362.07C474.778 361.569 494.203 362.493 513.518 362.528C512.317 362.963 510.791 363.714 509.547 363.859C496.222 362.238 479.32 363.761 465.487 363.445L470.175 362.945L469.806 363.08L471.092 362.69C466.24 361.947 461.028 362.667 456.081 362.139L455.486 362.07Z" fill="#5A5569"/>
<path d="M495.984 469.522C496.288 447.751 496.854 425.985 497.684 404.228C497.972 396.531 497.181 388.061 498.694 380.513C499.535 376.32 501.513 372.268 504.521 369.201C510.175 363.436 518.457 363.458 525.977 363.558C551.496 364.082 577.012 364.74 602.524 365.534C602.131 383.312 600.647 401.184 599.862 418.97L595.984 513.776C578.196 512.879 560.419 511.763 542.658 510.431C539.04 505.721 535.442 501.002 531.298 496.732C523.654 488.855 505.825 473.611 495.984 469.522ZM530.994 380.071C524.887 381.553 519.365 384.608 515.99 390.116C514.555 392.458 514.114 394.999 513.794 397.684C513.135 403.193 512.636 444.937 513.726 449.437C514.946 454.479 518.705 459.066 523.137 461.673C530.568 466.046 557.029 465.812 566.588 465.464C572.176 464.124 577.402 461.542 580.436 456.409C581.923 453.892 582.471 450.866 582.849 447.999C583.89 440.077 585.092 400.543 583.206 394.198C581.899 389.801 578.149 384.943 573.976 382.927C567.901 379.991 538.554 379.22 530.994 380.071ZM543.5 490.011C541.43 491.313 539.461 492.941 538.831 495.44C538.508 496.722 538.857 497.964 539.647 498.993C542.993 503.357 549.229 504.475 554.348 504.915C560.699 505.461 570.603 507.126 576.276 504.247C578.464 502.921 581.798 501.242 582.248 498.422C582.459 497.1 581.976 495.964 581.121 494.99C576.794 490.058 552.658 489.889 545.385 489.879C544.747 489.878 544.132 489.924 543.5 490.011Z" fill="#E6DFD5"/>
<path d="M597.949 513.916C599.536 487.932 599.849 461.769 601.025 435.749L603.093 392.308C603.582 383.374 604.365 374.439 604.542 365.492C631.06 365.417 657.651 366.421 684.165 366.961C697.36 367.23 710.833 366.252 723.959 367.48C728.094 372.388 731.384 378.33 734.707 383.824C731.963 382.95 729.067 382.166 726.2 381.857C721.243 381.323 715.333 381.928 711.424 385.346C709.187 387.302 707.767 390.329 707.719 393.309C707.681 395.643 708.712 398.06 709.695 400.124C713.273 407.638 718.422 414.73 722.767 421.835C729.686 433.147 743.252 458.419 751.71 466.297C756.28 470.554 762.453 473.144 768.75 472.837C775.592 472.504 780.364 468.83 784.687 463.881C788.445 466.635 793.158 468.611 797.315 470.691C810.336 477.203 834.41 486.812 845.136 495.058C848.247 497.45 850.516 500.156 852.927 503.217L856.468 508.041C852.575 509.227 848.663 510.22 844.609 510.66C837.602 511.421 830.27 510.246 823.849 513.859C817.54 517.41 815.433 523.488 813.663 530.056C741.824 523.826 669.915 518.446 597.949 513.916ZM634.795 381.656C628.703 382.527 624.096 384.215 620.281 389.352C618.204 392.147 617.178 394.951 616.537 398.339C615.169 405.575 613.277 447.572 614.424 454.013C615.436 459.698 619.054 464.628 623.798 467.831C626.627 469.742 629.629 470.593 632.957 471.14C641.663 472.572 651.127 472.366 659.965 472.912C678.508 474.056 697.013 475.284 715.579 476.053C720.821 476.605 727.153 477.503 731.589 473.925C733.545 472.348 734.864 469.7 735.098 467.204C735.385 464.156 733.775 460.475 732.438 457.763C729.9 452.614 726.526 447.728 723.486 442.86L707.571 417.532C702.494 409.501 697.166 398.762 690.902 391.916C684.037 384.412 676.361 382.499 666.593 382.168C656.076 381.812 645.305 381.21 634.795 381.656ZM614.006 493.137C611.494 493.895 609.009 494.934 607.633 497.311C606.766 498.81 606.427 500.865 607.128 502.476C608.271 505.097 611.578 506.509 614.154 507.2C622.848 509.533 633.85 508.629 642.873 508.78C644.984 508.267 647.835 506.196 649.011 504.353C649.804 503.109 650.117 501.316 649.713 499.899C649.099 497.743 647.065 496.3 645.103 495.451C638.935 492.783 621.212 492.841 614.006 493.137Z" fill="#B9FBC0"/>
<path d="M566.588 465.465C557.029 465.813 530.568 466.047 523.137 461.674C518.705 459.067 514.946 454.48 513.726 449.438C512.636 444.938 513.135 403.194 513.794 397.685C514.114 395 514.555 392.459 515.99 390.117C519.365 384.609 524.887 381.554 530.994 380.072C538.554 379.221 567.901 379.992 573.976 382.928C578.149 384.944 581.899 389.802 583.206 394.199C585.092 400.544 583.89 440.078 582.849 448C582.471 450.867 581.923 453.893 580.436 456.41C577.402 461.543 572.176 464.125 566.588 465.465ZM581.602 431.202C581.683 430.551 581.764 429.91 581.797 429.254C582.041 424.365 582.09 419.447 582.217 414.553C582.446 405.67 583.757 395.048 577.205 387.934C575.215 385.763 572.636 384.217 569.783 383.486C563.64 381.89 547.979 382.214 540.73 382.014C533.647 381.819 526.147 381.902 520.762 387.27C513.428 394.579 515.482 408.783 515.576 418.399C515.386 429.045 512.644 448.718 520.156 456.885C522.234 459.144 524.996 460.632 527.92 461.485C535.786 463.782 551.882 463.226 560.651 463.506C566.555 463.524 571.935 462.785 576.274 458.307C582.945 451.423 581.599 440.04 581.602 431.202Z" fill="#010101"/>
<path d="M715.579 476.055C697.013 475.286 678.508 474.058 659.965 472.914C651.127 472.368 641.663 472.574 632.957 471.142C629.629 470.595 626.627 469.744 623.798 467.833C619.054 464.63 615.436 459.7 614.424 454.015C613.277 447.574 615.169 405.577 616.537 398.341C617.178 394.953 618.204 392.149 620.281 389.354C624.096 384.217 628.703 382.529 634.795 381.658C645.305 381.212 656.076 381.814 666.593 382.17C676.361 382.501 684.037 384.414 690.902 391.918C697.166 398.764 702.494 409.503 707.571 417.534L723.486 442.862C726.526 447.73 729.9 452.616 732.438 457.765C733.775 460.477 735.385 464.158 735.098 467.206C734.864 469.702 733.545 472.35 731.589 473.927C727.153 477.505 720.821 476.607 715.579 476.055ZM633.538 383.589C628.243 384.837 623.908 387.039 621.007 391.844C619.603 394.169 618.778 396.777 618.326 399.443C617.286 405.584 617.632 412.317 617.294 418.552C616.768 428.252 615.707 438.144 615.736 447.85C615.741 449.768 615.928 451.631 616.416 453.49C617.867 459.025 621.386 463.971 626.379 466.83C628.785 468.208 631.347 468.828 634.06 469.233C641.542 470.349 649.381 470.338 656.947 470.823C676.725 472.092 696.633 472.81 716.375 474.329C720.91 474.575 726.553 475.37 730.299 472.13C731.708 470.912 733.109 468.67 733.145 466.765C733.195 464.151 731.534 460.703 730.339 458.39C725.02 448.097 718.086 438.241 711.945 428.411C705.852 418.657 694.741 398.234 686.972 391.191C683.952 388.453 680.684 386.544 676.753 385.425C668.288 383.014 642.964 383.243 633.538 383.589Z" fill="#010101"/>
<path d="M515.577 418.398C515.483 408.782 513.429 394.578 520.763 387.269C526.148 381.901 533.648 381.818 540.731 382.013C547.98 382.213 563.641 381.889 569.784 383.485C572.637 384.216 575.216 385.762 577.206 387.933C583.758 395.047 582.447 405.669 582.218 414.552C582.091 419.446 582.042 424.364 581.798 429.253C581.765 429.909 581.684 430.55 581.603 431.201C581.571 429.28 581.786 427.056 580.945 425.297C573.145 422.213 552.576 424.463 544.618 426.303C541.342 427.039 538.172 428.184 535.181 429.711C532.173 426.904 520.657 417.894 516.823 417.593C516.094 417.535 516.021 417.915 515.577 418.398Z" fill="#8EECF5"/>
<path d="M716.376 474.329C696.634 472.81 676.726 472.092 656.948 470.823C649.382 470.338 641.543 470.349 634.061 469.233C631.348 468.828 628.786 468.208 626.38 466.83C621.387 463.971 617.868 459.025 616.417 453.49C615.929 451.631 615.742 449.768 615.737 447.85C615.708 438.144 616.769 428.252 617.295 418.552C617.633 412.317 617.287 405.584 618.327 399.443C618.779 396.777 619.604 394.169 621.008 391.844C623.909 387.039 628.244 384.837 633.539 383.589C642.965 383.243 668.289 383.014 676.754 385.425C680.685 386.544 683.953 388.453 686.973 391.191C694.742 398.234 705.853 418.657 711.946 428.411C718.087 438.241 725.021 448.097 730.34 458.39C731.535 460.703 733.196 464.151 733.146 466.765C733.11 468.67 731.709 470.912 730.3 472.13C726.554 475.37 720.911 474.575 716.376 474.329Z" fill="#B9FBC0"/>
<path d="M772.865 470.23C768.3 471.065 763.901 471.055 759.527 469.293C756.233 467.966 753.922 466.11 751.649 463.446C742.714 452.973 735.219 438.207 727.92 426.302C722.239 417.034 714.984 407.288 710.691 397.339C709.644 394.913 709.128 393.023 710.271 390.499C711.823 387.069 715.271 385.45 718.555 384.116C724.963 383.651 729.989 384.349 735.972 386.696C741.925 394.078 746.852 404.314 751.79 412.54C761.646 429.323 772.074 445.765 783.055 461.835C780.401 466.049 777.309 468.238 772.865 470.23Z" fill="#B9FBC0"/>
<path d="M374.324 447.172C372.128 450.214 370.137 452.104 366.317 452.714C361.787 453.437 352.309 450.48 349.373 454.775C345.294 460.743 353.657 472.547 341.019 475.871C336.196 477.139 321.505 477.281 317.206 474.812C315.327 473.733 313.85 471.384 313.345 469.314C312.33 465.147 311.772 457.454 313.083 453.454C312.745 452.522 312.433 451.487 311.781 450.714C308.641 447 300.815 449.081 296.46 448.098C294.161 447.58 292.231 446.492 291.029 444.412C288.236 439.58 288.99 426.56 290.407 421.158C293.546 409.192 305.802 418.002 313.008 413.15C316.065 411.092 314.047 399.811 314.883 396.05C315.406 393.699 316.571 391.654 318.658 390.373C323.122 387.632 337.607 388.224 342.752 389.536C355.284 392.732 347.073 404.788 352.127 412.364C355.379 417.238 363.322 414.144 368.278 415.248C370.644 415.775 372.462 416.981 373.705 419.08C377.03 424.697 375.941 440.737 374.324 447.172ZM322.372 390.579C319.85 391.77 317.953 393.015 317.018 395.767C315.339 400.704 318.638 412.484 313.807 415.419C308.007 418.942 295.514 411.991 292.584 420.519C291.102 424.834 290.4 438.278 292.407 442.284C293.331 444.127 294.817 445.314 296.777 445.927C302.378 447.679 310.299 444.431 313.898 450.645C317.908 457.57 309.47 470.681 320.026 473.9C325.121 475.453 335.748 474.921 341.117 474.167C343.59 472.909 345.23 471.722 346.09 468.985C347.796 463.549 343.876 454.739 350.177 451.397C357.226 447.658 368.387 456.211 372.569 445.26C374.7 439.681 374.102 428.029 373.416 421.995C371.388 419.086 369.754 417.322 366.14 416.688C360.789 415.748 354.272 418.708 350.213 413.722C343.99 406.078 356.443 393.067 338.922 390.733C333.607 390.025 327.758 390.524 322.372 390.579Z" fill="#010101"/>
<path d="M341.116 474.169C335.747 474.923 325.12 475.455 320.025 473.902C309.469 470.683 317.907 457.572 313.897 450.647C310.298 444.433 302.377 447.681 296.776 445.929C294.816 445.316 293.33 444.129 292.406 442.286C290.399 438.28 291.101 424.836 292.583 420.521C295.513 411.993 308.006 418.944 313.806 415.421C318.637 412.486 315.338 400.706 317.017 395.769C317.952 393.017 319.849 391.772 322.371 390.581C327.757 390.526 333.606 390.027 338.921 390.735C356.442 393.069 343.989 406.08 350.212 413.724C354.271 418.71 360.788 415.75 366.139 416.69C369.753 417.324 371.387 419.088 373.415 421.997C374.101 428.031 374.699 439.683 372.568 445.262C368.386 456.213 357.225 447.66 350.176 451.399C343.875 454.741 347.795 463.551 346.089 468.987C345.229 471.724 343.589 472.911 341.116 474.169Z" fill="#8EECF5"/>
<path d="M515.576 418.401C516.02 417.918 516.093 417.538 516.822 417.596C520.656 417.897 532.172 426.907 535.18 429.714C538.171 428.187 541.341 427.042 544.617 426.306C543.247 428.845 541.74 431.361 540.752 434.077C543.172 443.695 548.605 449.516 555.111 456.69C557.091 458.874 559.185 460.931 560.651 463.508C551.882 463.228 535.786 463.784 527.92 461.487C524.996 460.634 522.234 459.146 520.156 456.887C512.644 448.72 515.386 429.047 515.576 418.401Z" fill="#F1C0E8"/>
<path d="M544.617 426.304C552.575 424.464 573.144 422.214 580.944 425.298C581.785 427.057 581.57 429.281 581.602 431.202C581.599 440.04 582.945 451.423 576.274 458.307C571.935 462.785 566.555 463.524 560.651 463.506C559.185 460.929 557.091 458.872 555.111 456.688C548.605 449.514 543.172 443.693 540.752 434.075C541.74 431.359 543.247 428.843 544.617 426.304Z" fill="#B9FBC0"/>
<path d="M119.978 596.657C116.012 592.827 112.55 588.163 109.226 583.769C97.2928 567.995 88.1842 551.621 85.0216 531.86C81.8616 512.116 86.0759 490.932 98.0502 474.739C112.491 455.209 133.159 445.694 156.606 442.069C167.176 441.877 177.638 441.512 188.09 443.455C193.015 444.371 197.908 446.724 202.845 447.217C200.159 468.818 196.554 490.427 194.666 512.102C193.022 512.288 191.566 512.479 190.186 513.453C181.496 519.582 175.331 529.136 168.265 536.946C159.008 547.18 149.482 556.751 140.856 567.59C135.599 574.197 125.28 586.957 121.742 594.119L119.978 596.657Z" fill="#90DBF4"/>
<path d="M313.082 453.454C311.771 457.454 312.329 465.147 313.344 469.314C313.849 471.384 315.326 473.733 317.205 474.812C321.504 477.281 336.195 477.139 341.018 475.871C353.656 472.547 345.293 460.743 349.372 454.775C352.308 450.48 361.786 453.437 366.316 452.714C370.136 452.104 372.127 450.214 374.323 447.172C374.479 447.196 374.635 447.222 374.792 447.244C382.19 448.298 389.807 447.754 397.255 448.097C416.521 448.983 442.412 450.191 460.912 455.115C467.914 456.979 474.51 459.451 481.057 462.541C485.283 464.535 489.611 467.048 494.031 468.532C493.671 481.522 493.423 494.516 493.29 507.511C436.331 504.255 379.354 501.321 322.362 498.708L264.487 495.88C254.184 495.356 243.469 495.337 233.242 494.086C233.433 493.812 233.607 493.526 233.814 493.265C236.794 489.506 243.252 486.258 247.335 483.379C253.167 479.268 258.703 474.7 264.73 470.874C276.858 463.173 294.207 455.901 308.63 454.971C310.622 454.842 311.721 454.999 313.082 453.454Z" fill="#8EECF5"/>
<path d="M778.367 451.332L779.155 451.374C789.828 451.881 800.664 450.065 811.377 450C844.001 449.801 885.437 456.36 908.589 481.236C916.8 490.059 922.69 502.116 925.224 513.863L926.239 518.181C926.293 525.588 919.919 535.164 914.84 540.272C907.363 547.794 896.84 553.71 887.662 558.903C885.038 560.388 872.663 565.698 871.415 567.303C870.762 568.145 870.849 570.044 870.829 571.083C869.25 555.007 869.925 539.281 865.45 523.519C859.31 501.897 849.103 493.942 829.966 484.237C820.696 479.644 811.37 475.167 801.99 470.806C797.201 468.523 790.512 466.161 786.545 462.677C783.21 459.747 780.771 455.051 778.367 451.332Z" fill="#FEED7B"/>
<path d="M495.984 469.523C505.825 473.612 523.654 488.856 531.298 496.733C535.442 501.003 539.04 505.722 542.658 510.432L495.117 507.444C494.959 494.821 495.573 482.141 495.984 469.523Z" fill="#8EECF5"/>
<path d="M576.276 504.247C570.603 507.126 560.699 505.461 554.348 504.915C549.229 504.475 542.993 503.357 539.647 498.993C538.857 497.964 538.508 496.722 538.831 495.44C539.461 492.941 541.43 491.313 543.5 490.011C544.132 489.924 544.747 489.878 545.385 489.879C552.658 489.889 576.794 490.058 581.121 494.99C581.976 495.964 582.459 497.1 582.248 498.422C581.798 501.242 578.464 502.921 576.276 504.247ZM543.776 492.02C542.459 493.078 541.62 493.744 541.004 495.343C541.088 496.691 541.02 497.144 542.061 498.136C545.582 501.495 571.159 500.511 577.531 501.234C578.7 500.327 579.428 499.83 579.839 498.327C579.626 497.002 579.582 496.529 578.552 495.554C574.859 492.058 549.665 491.926 543.776 492.02ZM544.955 501.665C549.899 504.363 567.12 505.252 572.536 503.683C573.016 503.544 573.487 503.376 573.96 503.213C573.685 502.928 573.498 502.515 573.134 502.358C570.629 501.271 554.71 501.575 550.932 501.511C548.946 501.477 546.934 501.479 544.955 501.665Z" fill="#010101"/>
<path d="M577.531 501.237C571.159 500.514 545.582 501.498 542.061 498.139C541.02 497.147 541.088 496.694 541.004 495.346C541.62 493.747 542.459 493.081 543.776 492.023C549.665 491.929 574.859 492.061 578.552 495.557C579.582 496.532 579.626 497.005 579.839 498.33C579.428 499.833 578.7 500.33 577.531 501.237Z" fill="#A3C4F3"/>
<path d="M642.874 508.782C633.851 508.631 622.849 509.535 614.155 507.202C611.579 506.511 608.272 505.099 607.129 502.478C606.428 500.867 606.767 498.812 607.634 497.313C609.01 494.936 611.495 493.897 614.007 493.139C621.213 492.843 638.936 492.785 645.104 495.453C647.066 496.302 649.1 497.745 649.714 499.901C650.118 501.318 649.805 503.111 649.012 504.355C647.836 506.198 644.985 508.269 642.874 508.782ZM613.734 495.11C612.032 496.022 609.613 497.342 608.996 499.294C609.376 500.419 609.376 500.657 610.48 501.24C615.25 503.761 636.557 503.157 643.378 503.8C644.918 503.93 645.566 504.13 646.986 503.457C647.527 502.314 647.653 501.977 647.27 500.677C646.79 499.044 644.877 497.308 643.307 496.752C637.88 494.829 619.909 494.773 613.734 495.11ZM612.371 504.598C613.203 505.181 613.948 505.679 614.948 505.93C619.421 507.057 638.959 507.816 643.401 506.927C643.621 506.882 643.84 506.83 644.059 506.782C640.261 504.314 617.843 504.243 612.371 504.598Z" fill="#010101"/>
<path d="M196.186 532.858C196.401 520.017 196.282 506.852 198.559 494.176C204.521 494.59 210.49 494.888 216.463 495.07L215.892 520.435C215.777 524.718 215.928 529.19 215.345 533.43L214.502 533.772C208.406 533.299 202.298 532.994 196.186 532.858Z" fill="#A3C4F3"/>
<path d="M643.378 503.801C636.557 503.158 615.25 503.762 610.48 501.241C609.376 500.658 609.376 500.42 608.996 499.295C609.613 497.343 612.032 496.023 613.734 495.111C619.909 494.774 637.88 494.83 643.307 496.753C644.877 497.309 646.79 499.045 647.27 500.678C647.653 501.978 647.527 502.315 646.986 503.458C645.566 504.131 644.918 503.931 643.378 503.801Z" fill="#8EECF5"/>
<path d="M217.471 533.968C218.168 521.089 218.511 508.194 218.499 495.297C244.4 496.055 270.361 497.915 296.249 499.147L493.189 509.083C492.695 522.507 492.829 535.96 492.118 549.374C455.915 546.746 419.529 545.27 383.279 543.141C328.056 539.897 272.736 536.271 217.471 533.968Z" fill="#A3C4F3"/>
<path d="M573.96 503.215C573.487 503.378 573.016 503.546 572.536 503.685C567.12 505.254 549.899 504.365 544.955 501.667C546.934 501.481 548.946 501.479 550.932 501.513C554.71 501.577 570.629 501.273 573.134 502.36C573.498 502.517 573.685 502.93 573.96 503.215Z" fill="#A3C4F3"/>
<path d="M644.059 506.781C643.84 506.829 643.621 506.881 643.401 506.926C638.959 507.815 619.421 507.056 614.948 505.929C613.948 505.678 613.203 505.18 612.371 504.597C617.843 504.242 640.261 504.313 644.059 506.781Z" fill="#90DBF4"/>
<path d="M495.032 509.363C510.996 509.822 527.024 511.227 542.962 512.265C551.352 523.407 554.584 538.883 556.569 552.442C549.515 552.501 542.299 551.892 535.249 551.551L494.048 549.395C493.856 536.104 494.686 522.662 495.032 509.363Z" fill="#A3C4F3"/>
<path d="M848.191 512.631C851.335 511.853 854.162 510.991 857.083 509.578C857.336 509.755 857.62 509.895 857.844 510.107C859.024 511.228 860.105 514.04 860.769 515.592C867.495 531.34 868.143 550.195 868.559 567.134C865.478 568.495 862.326 569.481 859.113 570.478C857.956 570.816 857.29 571.093 856.09 570.757C855.274 568.816 855.97 549.003 855.566 544.031C854.678 533.085 852.311 522.811 848.191 512.631Z" fill="#FEED7B"/>
<path d="M121.743 594.119C125.281 586.957 135.6 574.197 140.857 567.59C149.483 556.751 159.009 547.18 168.266 536.946C175.332 529.136 181.497 519.582 190.187 513.453C191.567 512.479 193.023 512.288 194.667 512.102C193.455 541.348 195.432 570.235 196.689 599.437C191.586 599.62 186.942 599.858 183.293 603.972C180.861 606.714 179.618 610.841 179.973 614.474C180.193 616.731 181.052 618.971 182.879 620.406C186.436 623.201 193.114 622.313 197.384 622.349C198.333 628.77 200.893 634.064 206.263 637.978C217.886 646.45 245.649 644.051 260.412 645.975C261.194 662.796 267.914 678.39 280.502 689.748C292.308 700.366 307.863 705.832 323.715 704.936C339.556 703.942 354.615 697.091 365.06 685.03C375.149 673.227 380.175 657.92 379.047 642.433C377.852 626.874 370.573 612.412 358.787 602.184C346.068 591.277 329.771 586.721 313.171 588.166C298.471 589.445 283.842 596.404 274.329 607.822C265.72 618.153 262.165 630.996 260.684 644.138C256.773 643.764 252.887 643.424 248.96 643.29C249.046 623.889 254.817 607.337 268.825 593.521C282.809 579.729 300.972 573.408 320.498 573.651C340.014 573.893 360.063 581.303 373.677 595.535C387.154 609.624 393.676 627.116 393.119 646.512C393.024 649.842 392.435 653.775 394.198 656.758C395.506 657.915 397.257 658.012 398.931 658.181C407.019 658.999 415.359 658.995 423.486 659.362L466.204 661.467L506.544 663.491C513.548 663.843 520.795 664.61 527.797 664.429C501.697 693.088 497.624 734.145 491.428 770.613C473.817 765.088 455.901 761.249 438.014 756.796C344.62 733.547 236.474 713.781 164.38 644.904C157.981 638.791 151.733 632.326 146.103 625.494C143.188 621.955 140.767 618.124 137.737 614.658C134.747 611.238 123.138 599.358 121.79 596.234C121.625 595.852 121.754 594.594 121.743 594.119Z" fill="#8EECF5"/>
<path d="M542.963 512.266C560.601 513.591 578.254 514.698 595.918 515.587C595.159 528.542 594.971 541.563 594.622 554.535L556.57 552.443C554.585 538.884 551.353 523.408 542.963 512.266Z" fill="#FFCFD2"/>
<path d="M837.901 571.785C834.782 570.751 831.677 569.236 829.042 567.262C821.458 561.584 816.906 552.283 815.646 543.027C814.604 535.372 814.993 525.84 820.047 519.6C823.326 515.554 827.635 513.843 832.67 513.21C837.171 513.303 841.595 513.223 846.088 512.941C854.426 529.94 855.193 553.099 853.579 571.818C848.265 572.911 843.211 572.747 837.901 571.785Z" fill="#B9FBC0"/>
<path d="M596.518 554.527C596.576 541.763 596.857 528.486 597.877 515.766C645.172 518.694 692.311 522.793 739.544 526.486L813.467 531.778C813.028 540.488 813.897 550.757 818.696 558.321C820.699 561.478 823.385 564.168 825.432 567.307L824.968 568.008C815.558 568.032 806.035 567.165 796.637 566.608L745.87 563.61L664.895 558.607C642.118 557.277 619.255 556.386 596.518 554.527Z" fill="#FFCFD2"/>
<path d="M926.241 518.18C927.672 531.138 927.156 544.237 924.71 557.042C919.021 588.181 904.894 616.637 898.128 647.261C893.794 666.875 891.106 687.35 888.578 707.277C886.726 721.883 885.451 736.841 881.565 751.073C879.01 760.429 874.733 768.753 868.708 776.361C847.043 803.722 814.474 818.051 780.426 821.855C746.2 825.679 712.539 821.676 678.778 815.827C666.441 813.689 653.854 810.283 641.374 809.334C641.782 808.561 642.171 807.8 642.533 807.004C648.607 793.66 651.458 777.267 645.904 763.242C641.001 750.86 630.409 742.093 618.41 736.894C597.761 727.947 570.646 729.665 550.019 737.814C532.05 744.914 518.173 758.026 510.506 775.793L510.138 776.054C503.954 774.177 497.677 772.628 491.42 771.018L491.429 770.614C497.625 734.146 501.698 693.089 527.798 664.43C538.226 664.376 548.814 665.355 559.23 665.912L610.704 668.513C618.018 668.881 634.657 670.839 641.194 669.112C643.152 665.296 644.438 645.823 645.664 639.68C649.379 621.058 661.806 603.651 677.571 593.263C694.81 582.049 715.793 578.131 735.917 582.368C769.3 589.466 793.266 617.18 797.54 650.755C798.098 655.13 797.067 671.735 799.153 674.342C800.203 675.654 803.617 675.968 805.196 676.064C822.017 677.088 849.585 677.756 862.493 665.827C872.573 656.512 871.811 639.353 872.198 626.88C873.493 626.14 874.813 625.373 875.952 624.405C878.949 621.858 880.701 617.326 880.943 613.473C881.095 611.048 880.643 608.666 878.922 606.854C876.902 604.727 874.951 604.892 872.195 604.926C871.521 593.662 871.247 582.359 870.831 571.082C870.851 570.043 870.764 568.144 871.417 567.302C872.665 565.697 885.04 560.387 887.664 558.902C896.842 553.709 907.365 547.793 914.842 540.271C919.921 535.163 926.295 525.587 926.241 518.18ZM718.598 597.019C684.783 597.868 658.065 625.982 658.939 659.797C659.814 693.612 687.949 720.307 721.763 719.407C755.54 718.508 782.201 690.41 781.327 656.632C780.454 622.854 752.377 596.172 718.598 597.019Z" fill="#FDE4CF"/>
<path d="M492.056 550.994C491.876 564.44 491.558 577.884 491.102 591.324C490.752 601.29 489.192 615.162 491.101 624.654C491.807 628.166 493.699 631.561 496.039 634.245C505.995 645.663 526.824 643.105 540.662 643.957C536.609 648.729 531.392 656.379 530.067 662.56C527.738 662.544 525.409 662.491 523.082 662.402C509.696 661.952 397.792 657.009 395.838 655.892C394.258 654.989 394.776 645.776 394.782 643.728C394.841 624.943 388.427 608.447 375.463 594.724C361.792 580.253 341.876 572.437 322.117 571.938C302.046 571.432 282.661 577.548 268.04 591.599C253.074 605.983 247.487 622.843 247.084 643.18C235.907 642.576 216.977 643.317 207.851 636.836C202.813 633.257 200.494 628.372 199.568 622.44C202.194 622.612 204.772 622.87 207.307 622.038L207.017 621.468C201.225 619.067 194.371 620.813 188.247 620.202C186.239 620.002 184.764 619.721 183.459 618.021C181.748 615.791 181.705 613.142 182.214 610.487C185.525 593.225 207.668 605.601 213.845 601.637L213.677 600.897C209.689 599.008 203.024 599.573 198.573 599.451L198.058 586.952C203.596 586.977 209.127 586.941 214.652 587.371C214.773 586.464 214.867 585.559 214.956 584.648C215.347 580.65 216.674 573.521 213.504 570.404C210.19 567.146 201.431 568.32 197.084 568.376C196.188 557.227 196.002 545.789 196.06 534.605C232.894 535.694 269.82 538.522 306.614 540.602L492.056 550.994Z" fill="#8EECF5"/>
<path d="M493.983 551.215C515.012 551.945 536.204 552.799 557.186 554.349C558.614 578.43 554.204 602.543 547.446 625.604C545.825 631.134 542.79 636.595 541.5 642.139C528.591 641.909 507.095 643.185 497.893 633.385C495.247 630.56 493.485 627.023 492.825 623.209C491.336 614.643 492.679 601.463 492.943 592.382C493.342 578.661 493.418 564.93 493.983 551.215Z" fill="#8EECF5"/>
<path d="M557.186 554.348C569.561 555.057 582.24 555.132 594.546 556.462L592.623 604.734C592.324 612.577 593.092 621.763 591.163 629.379C590.344 632.669 588.569 635.642 586.062 637.924C583.127 640.604 579.325 642.324 575.436 643.045C567.467 644.522 550.894 642.783 542.168 642.185L541.5 642.138C542.79 636.594 545.825 631.133 547.446 625.603C554.204 602.542 558.614 578.429 557.186 554.348Z" fill="#F1C0E8"/>
<path d="M540.661 643.96L558.979 644.734C568.863 645.136 579.415 646.549 587.274 639.112C590.048 636.487 592.358 632.844 593.216 629.098C594.813 622.124 594.231 613.608 594.447 606.455C594.949 589.848 595.062 573.032 596.447 556.473L822.111 569.875C824.523 569.999 827.235 569.908 829.576 570.476C834.383 571.642 838.356 574.483 843.492 574.668C851.879 574.97 861.182 572.26 868.9 569.224C869.324 577.035 871.506 599.995 869.294 606.564C864.111 612.084 839.027 612.786 831.03 613.109C826.776 613.281 821.392 612.825 817.372 614.223C813.954 615.411 811.389 618.309 811.487 622.047C811.557 624.728 812.918 627.248 814.878 629.031C820.659 634.285 837.988 631.988 845.744 631.37C853.91 630.719 862.547 629.701 870.367 627.189C870.582 639.786 870.617 654.536 861.189 664.228C850.844 674.863 831.328 674.571 817.561 674.492C811.776 674.443 805.993 674.231 800.219 673.858C799.899 666.515 800.119 659.104 799.346 651.792C797.258 632.042 788.302 613.017 773.551 599.564C757.777 585.22 736.888 577.838 715.603 579.086C695.121 579.974 675.853 589.052 662.128 604.281C650.712 617.121 644.288 632.453 642.074 649.407C641.271 655.555 641.102 661.793 640.19 667.917C619.955 667.554 599.632 666.295 579.418 665.281C563.011 664.459 546.424 663.99 530.066 662.563C531.391 656.382 536.608 648.732 540.661 643.96Z" fill="url(#paint0_linear_2293_116241)"/>
<path d="M198.081 584.996L197.16 569.989C202.389 569.96 207.591 569.961 212.78 570.677C213.646 575.543 213.721 580.517 213 585.406C208.041 585.415 203.041 585.14 198.081 584.996Z" fill="#98F5E1"/>
<path d="M327.122 703.005C295.733 706.985 267.075 684.73 263.159 653.333C259.243 621.936 281.557 593.323 312.962 589.471C344.276 585.629 372.789 607.865 376.694 639.172C380.599 670.479 358.421 699.037 327.122 703.005ZM315.292 616.907C299.985 619.736 289.834 634.393 292.569 649.717C295.304 665.042 309.898 675.283 325.239 672.643C340.714 669.98 351.065 655.229 348.306 639.771C345.548 624.312 330.733 614.052 315.292 616.907Z" fill="#98F5E1"/>
<path d="M121.743 594.121C121.754 594.596 121.625 595.854 121.79 596.236C123.138 599.36 134.747 611.24 137.737 614.66C140.767 618.126 143.188 621.957 146.103 625.496C151.733 632.328 157.981 638.793 164.38 644.906C236.474 713.783 344.62 733.549 438.014 756.798C455.901 761.251 473.817 765.09 491.428 770.615L491.419 771.019C489.23 778.723 488.597 787.349 486.916 795.267C482.109 817.906 474.036 840.251 461.918 860.044C450.874 878.083 435.825 890.542 415.036 895.514C394.255 900.483 373.623 896.971 353.336 891.724C307.36 879.834 265.602 857.537 225.306 832.877C212.703 825.165 200.861 816.147 189.072 807.263C153.69 780.602 111.356 745.533 100.748 700.361C92.5026 665.251 101.102 627.085 119.979 596.659L121.743 594.121Z" fill="#98F5E1"/>
<path d="M721.763 719.408C687.949 720.308 659.814 693.613 658.939 659.798C658.065 625.983 684.783 597.869 718.598 597.02C752.377 596.173 780.454 622.855 781.327 656.633C782.201 690.411 755.54 718.509 721.763 719.408ZM714.299 599.131C681.632 602.382 657.807 631.531 661.121 664.191C664.435 696.852 693.629 720.621 726.283 717.244C758.849 713.876 782.539 684.779 779.234 652.207C775.929 619.636 746.877 595.889 714.299 599.131Z" fill="#010101"/>
<path d="M726.282 717.241C693.628 720.618 664.434 696.849 661.12 664.188C657.806 631.528 681.631 602.379 714.298 599.128C746.876 595.886 775.928 619.633 779.233 652.204C782.538 684.776 758.848 713.873 726.282 717.241ZM714.203 629.585C698.718 632.697 688.732 647.825 691.955 663.287C695.179 678.748 710.379 688.625 725.816 685.29C741.097 681.989 750.853 666.977 747.662 651.673C744.471 636.368 729.53 626.505 714.203 629.585Z" fill="#FDE4CF"/>
<path d="M819.503 629.725C818.024 628.95 816.61 628.194 815.497 626.917C814.196 625.424 812.979 622.644 813.325 620.624C813.782 617.958 815.669 616.519 818.131 615.764C822.262 614.497 827.021 614.977 831.308 614.855C843.615 614.507 864.281 614.123 873.952 606.461C875.231 606.534 876.88 606.722 877.746 607.775C879.212 609.555 878.941 612.951 878.61 615.098C878.024 618.901 876.035 622.097 872.826 624.235C865.343 629.221 828.743 631.36 819.503 629.725Z" fill="#FDE4CF"/>
<path d="M325.238 672.643C309.897 675.283 295.303 665.042 292.568 649.717C289.833 634.393 299.984 619.736 315.291 616.907C330.732 614.052 345.547 624.312 348.305 639.771C351.064 655.229 340.713 669.98 325.238 672.643ZM314.853 618.993C300.688 622.043 291.629 635.941 294.557 650.132C297.484 664.322 311.303 673.501 325.518 670.697C339.909 667.858 349.225 653.831 346.262 639.466C343.299 625.1 329.192 615.906 314.853 618.993Z" fill="#010101"/>
<path d="M325.518 670.695C311.303 673.499 297.484 664.32 294.557 650.13C291.629 635.939 300.688 622.041 314.853 618.991C329.192 615.904 343.299 625.098 346.262 639.464C349.225 653.829 339.909 667.856 325.518 670.695Z" fill="#98F5E1"/>
<path d="M725.815 685.291C710.378 688.626 695.178 678.75 691.954 663.289C688.731 647.827 698.717 632.698 714.202 629.586C729.529 626.506 744.47 636.369 747.661 651.674C750.852 666.978 741.096 681.99 725.815 685.291ZM716.042 631.098C701.478 633.194 691.387 646.723 693.53 661.28C695.673 675.838 709.234 685.885 723.785 683.695C738.269 681.515 748.261 668.028 746.127 653.536C743.994 639.045 730.54 629.011 716.042 631.098Z" fill="#010101"/>
<path d="M723.786 683.696C709.235 685.886 695.674 675.839 693.531 661.281C691.388 646.724 701.479 633.195 716.043 631.099C730.541 629.012 743.995 639.047 746.128 653.538C748.262 668.03 738.27 681.516 723.786 683.696Z" fill="#FDE4CF"/>
<path d="M510.506 775.794C518.173 758.027 532.05 744.915 550.019 737.815C570.646 729.666 597.761 727.948 618.41 736.895C630.409 742.094 641.001 750.861 645.904 763.243C651.458 777.268 648.607 793.661 642.533 807.005C642.171 807.801 641.782 808.562 641.374 809.335L641.023 809.892C635.513 808.255 629.538 807.463 623.899 806.326C617.167 804.911 610.46 803.379 603.781 801.733C583.545 796.892 563.856 790.566 543.86 784.872C532.881 781.746 521.259 779.47 510.506 775.794Z" fill="#B9FBC0"/>
<path d="M510.136 776.054L510.504 775.793C521.257 779.469 532.879 781.745 543.858 784.871C563.854 790.565 583.543 796.891 603.779 801.732C610.458 803.378 617.165 804.91 623.897 806.325C629.536 807.462 635.511 808.254 641.021 809.891C630.709 827.848 619.263 839.39 600.385 848.516C582.688 857.07 560.361 860.172 541.524 853.555C528.017 848.811 516.134 839.387 509.959 826.31C502.051 809.566 504.047 792.96 510.136 776.054Z" fill="#98F5E1"/>
<defs>
<linearGradient id="paint0_linear_2293_116241" x1="869.716" y1="635.128" x2="538.477" y2="597.907" gradientUnits="userSpaceOnUse">
<stop stop-color="#FBE2AF"/>
<stop offset="1" stop-color="#FACBFF"/>
</linearGradient>
</defs>
</svg>
