<svg width="1024" height="1024" viewBox="0 0 1024 1024" fill="none" xmlns="http://www.w3.org/2000/svg">
<path d="M877.281 282.651C867.216 242.918 851.167 209.427 816.666 185.892C711.185 113.939 543.396 184.961 508.449 301.756C507.576 305.169 505.521 314.291 503.435 316.248L502.68 316.251C500.365 311.174 507.656 289.346 510.162 283.346C519.009 262.182 535.362 238.514 551.667 222.263C609.677 164.445 702.68 135.388 781.666 162.587C807.573 171.509 831.282 187.459 848.39 208.701C849.327 209.865 849.011 207.15 850.817 208.928C850.504 210.07 849.942 211.153 850.752 212.262C862.186 227.9 871.098 246.106 876.055 264.894C879.831 279.204 884.006 292.555 888.927 306.503C891.841 314.762 894.114 324.084 896.451 332.589L893.909 333.54C894.014 333.63 879.577 288.232 877.281 282.651Z" fill="#CFBAF0"/>
<path d="M508.449 301.757C543.396 184.962 711.185 113.94 816.666 185.893C851.167 209.428 867.216 242.919 877.281 282.652C875.824 282.542 875.51 282.85 874.721 281.684C871.343 276.689 868.53 271.149 865.388 266.012C863.483 262.874 860.04 260.433 857.987 257.493C854.326 252.25 851.271 246.269 847.365 241.203C841.167 233.165 833.422 226.547 825.312 220.523C820.246 216.759 815.41 212.614 810.023 209.311C714.436 155.727 584.572 193.524 531.024 288.854C529.222 292.062 523.021 302.614 522.624 305.978C518.083 303.727 512.681 304.108 508.449 301.757Z" fill="#FFEDE1"/>
<path d="M324.747 182.154C323.075 182.023 322.173 182.136 320.84 181.136L320.913 180.061C322.771 180.025 323.895 179.713 324.977 180.734L324.747 182.154Z" fill="#A1A6A0"/>
<path d="M332.385 181.815C332.106 182.42 332.33 182.095 331.527 182.634C329.978 182.488 330.551 182.842 329.607 181.848C330.104 181.718 331.77 181.804 332.385 181.815Z" fill="#907F7F"/>
<path d="M877.28 282.65C879.576 288.231 894.013 333.629 893.908 333.539C895.61 336.444 895.129 339.378 896.688 341.712C897.851 341.981 897.795 342.054 898.887 341.622L899.521 344.952L899.191 345.292C892.913 340.152 881.586 295.433 876.65 283.556C875.674 285.053 877.19 288.733 877.938 290.522C880.542 296.756 880.735 311.915 882.952 317.019C883.802 316.819 884.64 316.654 885.508 316.55L886.113 317.392C885.539 318.155 885.932 317.878 884.855 318.094L885.399 318.649L883.14 320.527C883.171 322.48 884.928 332.345 886.131 333.902C888.116 336.471 888.163 336.106 889.185 339.738L889.813 339.843L889.989 339.238C890.511 337.493 890.544 336.844 891.874 335.599L893.194 335.553C892.527 340.664 889.408 345.38 893.366 351.12C894.794 353.191 896.057 359.027 896.173 361.619C892.454 352.988 890.61 343.975 886.459 335.807C885.556 334.03 885.111 334.106 883.704 333.825C882.132 334.351 882.189 334.097 881.224 335.189L881.418 336.517C885.548 339.094 883.296 340.413 885.821 345.575C888.903 357.207 893.598 366.391 898.915 377.085C899.979 379.225 900.057 379.547 898.377 381.113L898.699 381.921C900.067 381.953 899.615 381.998 900.915 381.644C903.333 384.507 918.606 407.462 920.045 410.554L919.339 411.303C919.615 419.634 922.254 432.356 922.798 442.087C924.42 471.141 917.354 497.39 897.467 519.232C884.933 532.998 860.957 547.243 842.943 551.199C838.872 540.494 838.342 529.253 830.913 518.692C824.438 509.485 812.562 493.374 801.305 490.746C800.449 482.636 797.825 464.848 795.597 457.47C795.978 464.958 798.281 479.595 799.266 487.506C796.4 487.497 793.508 487.412 790.663 487.692L772.253 324.777C766.582 325.439 759.855 326.676 754.133 327.592C753.382 319.94 752.128 311.495 751.156 303.802C745.362 304.409 738.036 305.709 732.156 306.583L730.555 288.326C725.659 288.823 718.003 290.328 712.916 291.189L680.212 296.755C647.522 302.328 615.19 307.98 582.634 314.367C560.848 318.641 538.886 323.322 517.008 326.832C515.79 322.956 520.958 309.959 522.623 305.976C523.02 302.612 529.221 292.06 531.023 288.852C584.571 193.522 714.435 155.725 810.022 209.309C815.409 212.612 820.245 216.757 825.311 220.521C833.421 226.545 841.166 233.163 847.364 241.201C851.27 246.267 854.325 252.248 857.986 257.491C860.039 260.431 863.482 262.872 865.387 266.01C868.529 271.147 871.342 276.687 874.72 281.682C875.509 282.848 875.823 282.54 877.28 282.65Z" fill="#FAD7FC"/>
<path d="M312.783 197.95L309.689 197.895C308.276 196.81 308.818 197.534 308.459 195.344C310.945 195.855 311.759 195.591 312.783 197.95Z" fill="#A1A6A0"/>
<path d="M280.203 208.674C277.846 208.404 276.085 206.843 274.053 205.449C277.165 205.7 277.838 206.622 280.203 208.674Z" fill="#907F7F"/>
<path d="M358.392 216.942C355.661 216.402 355.077 216.897 353.566 214.573C354.563 214.463 355.562 214.499 356.57 214.496C358.269 215.557 357.601 214.836 358.392 216.942Z" fill="#A1A6A0"/>
<path d="M365.269 218.41L363.082 218.214C361.675 217.186 362.199 217.878 361.811 215.828C363.253 216.368 363.812 216.618 365.18 217.325L365.269 218.41Z" fill="#A1A6A0"/>
<path d="M266.809 222.338C265.301 221.656 265.005 222.214 263.375 221.3L263.7 220.627C265.173 220.422 266.35 220.337 267.287 221.497L266.809 222.338Z" fill="#A1A6A0"/>
<path d="M277.762 225.643C275.696 225.021 273.382 224.802 272.477 223.34L273.438 221.387C275.719 223.724 272.637 222.519 277.618 224.694L277.762 225.643Z" fill="#A1A6A0"/>
<path d="M358.231 225.556C355.522 225.292 354.826 225.62 354.367 222.902C356.937 223.45 357.34 223.1 358.231 225.556Z" fill="#A1A6A0"/>
<path d="M290.343 231.257C289.535 231.061 289.19 230.868 288.423 230.543C287.261 229.172 287.376 229.106 287.15 227.375C290.003 228.295 290.087 228.295 290.343 231.257Z" fill="#A1A6A0"/>
<path d="M304.398 234.337C301.397 234.818 301.473 234.978 299.559 232.629C302.461 232.232 302.688 231.963 304.398 234.337Z" fill="#A1A6A0"/>
<path d="M349.026 242.784C347.24 241.682 346.407 242.138 345.346 240.766C346.546 239.945 347.659 240.175 349.165 240.204L349.026 242.784Z" fill="#A1A6A0"/>
<path d="M349.164 240.203C350.352 240.888 351.365 241.497 352.623 242.065L353.053 242.882C351.629 243.538 350.605 243.107 349.025 242.783L349.164 240.203Z" fill="#FFEDE1"/>
<path d="M314.785 245.819C312.041 245.786 311.838 245.791 310.412 243.469C313.256 243.558 313.459 243.298 314.785 245.819Z" fill="#A1A6A0"/>
<path d="M303.81 249.994L303.769 251.135L302.868 251.415L301.606 250.678L301.398 249.582C302.214 249.729 301.806 249.604 302.622 249.968C303.452 249.693 303.057 249.665 303.81 249.994Z" fill="#A1A6A0"/>
<path d="M312.177 252.662C311.807 252.963 311.508 252.988 311.008 253.153C309.206 252.418 309.799 252.716 308.477 250.996C309.634 251.093 311.105 251.429 312.275 251.651L312.177 252.662Z" fill="#A1A6A0"/>
<path d="M247.905 257.385C247.138 257.182 247.593 257.352 246.613 256.709L246.635 255.23L247.29 255.117L247.905 257.385Z" fill="#907F7F"/>
<path d="M352.998 259.245L351.473 259.915C349.661 259.724 349.753 260.053 348.766 259.033L349.198 258.191L350.295 258.895L351.796 258.217L352.998 259.245Z" fill="#A1A6A0"/>
<path d="M320.505 266.415C320.053 266.102 320.269 266.338 320.096 265.547C321.283 264.288 322.217 263.223 323.326 261.895L324.042 263.018C323.561 264.727 322.211 265.224 320.505 266.415Z" fill="#7FC096"/>
<path d="M306.353 271.32C303.564 271.338 302.601 271.822 301.926 269.039C303.526 269.356 304.688 268.963 306.023 269.713L306.353 271.32Z" fill="#7FC096"/>
<path d="M309.646 274.84C308.576 273.838 308.956 274.418 308.674 272.964C309.336 271.475 310.89 270.93 312.413 270.086L312.939 270.774C312.484 272.853 311.528 274.072 309.646 274.84Z" fill="#7FC096"/>
<path d="M386.456 280.745L383.49 280.785C376.029 280.888 372.884 277.482 366.83 274.051C365.8 273.467 365.423 273.729 363.75 272.552C361.65 273.866 363.188 275.319 361.269 276.429C359.766 275.202 360.244 275.972 359.873 273.985C360.479 271.744 360.426 271.347 362.044 269.844L363.194 270.11L363.679 271.347L364.539 271.684L366.252 270.611C368.065 271.375 367.283 270.759 368.307 272.951C370.031 273.121 370.325 272.317 372.396 271.522C375.727 273.153 372.888 274.225 374.312 276.03C377.321 276.818 382.565 277.602 385.752 277.678C387.246 277.713 386.179 277.252 387.528 278.224C387.515 279.878 387.616 279.068 386.456 280.745Z" fill="#B9FBC0"/>
<path d="M333.457 277.471C331.337 277.514 330.549 277.913 329.064 277.002L328.74 275.466C331.303 275.468 332.043 275.244 333.457 277.471Z" fill="#7FC096"/>
<path d="M206.107 380.381C209.927 370.983 213.707 364.519 224.907 362.549C232.955 361.133 240.813 360.275 248.971 359.451C338.396 350.423 428.263 341.295 517.009 326.834C538.887 323.324 560.849 318.643 582.635 314.369C615.191 307.982 647.523 302.33 680.213 296.757L712.917 291.191C718.004 290.33 725.66 288.825 730.556 288.328L732.157 306.585C738.037 305.711 745.363 304.411 751.157 303.804C752.129 311.497 753.383 319.942 754.134 327.594C759.856 326.678 766.583 325.441 772.254 324.779L790.664 487.694C793.402 509.654 795.493 531.389 798.464 553.374C798.79 555.952 800.178 568.019 800.795 569.907C801.155 576.425 801.817 583.083 802.602 589.571C805.216 611.154 806.487 632.752 808.07 654.416C810.994 654.069 819.942 652.79 822.452 653.165L824.177 655.369C822.877 656.52 811.202 657.818 808.479 658.19C808.546 670.853 809.707 683.616 810.124 696.263C768.426 702.704 726.927 706.462 684.887 709.99C637.266 713.986 589.501 718.345 541.953 723.14C509.294 726.416 460.612 729.129 430.054 736.323C405.731 740.024 377.323 749.924 353.605 757.192C330.227 764.357 313.032 770.508 287.929 771.054C286.999 766.094 286.426 760.71 285.793 755.677L272.852 757.231C271.76 750.201 270.829 742.923 269.928 735.859C264.951 736.78 258.692 737.513 253.664 738.133C252.807 731.184 251.98 724.236 250.98 717.307L233.984 719.715C227.873 663.572 219.214 607.454 212.154 551.404C210.901 541.42 209.672 531.552 207.811 521.659C202.61 489.482 199.566 456.295 194.923 423.984C194.139 418.533 193.515 412.793 193.184 407.303C197.296 406.369 205.347 405.501 209.7 404.905C209.244 398.518 208.117 391.207 207.273 384.785L185.576 387.691C186.485 393.32 187.202 399.76 187.557 405.424L187.427 406.098C186.108 413.352 187.319 440.198 182.723 445.244C181.012 443.086 183.961 437.827 183.811 434.95C183.426 427.567 186.399 413.364 184.13 406.786C183.621 404.898 181.985 387.259 181.58 383.761C186.756 382.415 200.702 380.735 206.107 380.381ZM510.46 331.87C446.38 342.606 377.751 350.299 313.228 357.337L256.272 363.041C246.123 364.049 235.868 364.925 225.805 366.542C217.932 367.807 213.74 372.735 210.796 379.7L423.023 348.667L482.744 340.249C490.869 339.117 503.784 337.79 511.338 336.24C518.973 335.503 528.563 333.847 536.38 332.719L586.352 325.427C632.755 318.721 681.724 312.003 728.176 306.584C727.909 302.23 727.27 297.36 726.793 292.983C709.242 295.087 691.549 299.057 674.112 301.894C642.08 307.107 610.284 313.416 578.385 319.344C556.402 323.429 532.533 329.085 510.46 331.87ZM509.775 340.602L306.757 370.593C278.802 374.713 250.721 377.875 222.817 382.392C219.033 383.005 214.903 383.333 211.186 384.157L214.158 404.273C226.665 402.906 240.24 400.649 252.82 398.842L319.244 389.745L454.72 371.649C472.96 369.133 492.52 367.141 510.49 364.206C517.155 362.525 529.962 361.054 537.169 360.011L590.912 352.307C643.978 344.378 696.738 335.547 749.989 328.181C748.997 322.126 748.309 314.153 747.612 307.936L509.775 340.602ZM511.053 368.245C441.498 378.568 370.462 387.562 300.737 396.681L245.966 404.082C235.853 405.534 224.836 407.45 214.784 408.644C219.347 445.334 223.725 483.167 229.293 519.674C231.682 534.823 233.488 551.941 235.48 567.311L248.552 666.813C250.368 680.195 252.204 699.997 254.656 712.784C328.872 700.004 404.665 690.566 479.267 679.805C495.298 677.493 512.624 674.433 528.616 672.706C547.454 670.472 566.43 666.991 585.208 664.235C638.095 656.474 690.551 646.286 743.217 637.261C755.932 635.082 769.693 632.866 782.49 631.845C781.578 627.188 781.503 622.706 780.722 618.116L780.415 613.705C779.677 608.07 779.495 601.29 778.896 595.506C777.555 582.581 776.631 569.445 775.191 556.535L774.848 552.334C776.498 551.625 775.889 551.805 778.015 552.375L778.34 554.13C780.071 574.33 783.759 594.605 785.177 614.938C786.141 628.759 788.754 642.775 789.694 656.682C794.184 656.132 799.644 655.612 804.032 654.872C803.604 629.548 798.995 602.947 797.264 577.609C797.086 575.006 796.345 564.822 795.727 562.652C795.532 559.961 795.197 557.147 794.849 554.463C791.596 529.345 788.403 504.29 785.555 479.119C784.288 458.794 780.486 433.372 777.943 412.908L768.343 329.789L754.668 331.636L770.306 476.898C771.018 487.247 772.574 497.558 773.615 507.861C773.977 511.444 774.941 518.029 774.986 521.412C774.028 524.275 774.899 525.538 774.831 528.508L773.327 528.906C769.07 527.301 771.561 516.329 768.958 512.368C767.255 500.44 766.873 486.866 765.218 474.468C762.345 438.399 757.179 402.134 753.913 366.069C752.886 354.732 751.193 343.286 750.419 331.928L511.053 368.245ZM224.766 518.643L210.344 409.297L197.877 410.673C202.284 447.922 206.71 485.067 212.377 522.158C213.325 527.839 214.076 533.817 214.807 539.548C222.263 598.066 231.087 656.513 237.811 715.112C241.385 714.366 246.429 713.777 250.138 713.229C247.795 700.414 247.381 686.353 245.155 673.395C236.396 622.404 233.491 569.472 224.766 518.643ZM531.42 676.529C517.984 679.063 502.232 680.942 488.664 682.808L419.275 692.186C387.106 696.431 353.696 702.031 321.383 706.743L276.747 713.495C270.861 714.367 260.599 715.445 255.113 716.642C255.889 721.639 256.726 728.162 257.77 732.981C349.752 718.83 444.084 703.547 536.338 692.655C568.286 687.754 600.95 684.503 633.002 679.735C683.758 672.184 734.817 664.163 785.631 657.186C785.292 650.712 784.23 641.827 783.286 635.427C765.514 638.814 747.298 640.858 729.499 644.206C663.649 656.594 597.673 666.657 531.42 676.529ZM537.378 697.268C497.515 702.226 458.311 706.814 418.462 712.8L319.063 727.818C306.2 729.782 286.282 733.63 273.881 734.783C274.631 740.562 275.283 746.543 276.522 752.223C296.408 749.187 317.258 745.582 336.773 740.658C365.763 733.343 393.132 725.921 422.812 721.008C457.229 715.142 502.792 709.285 538.058 707.864C622.508 701.779 704.219 688.327 787.993 678.156C787.35 672.731 786.895 667.201 786.393 661.755C762.853 664.561 738.464 668.59 714.996 672.106L644.857 682.098C609.905 687.17 571.725 691.472 537.378 697.268ZM539.455 712.049C492.253 715.183 444.276 720.627 397.901 730.084C377.894 734.163 358.384 739.773 338.6 744.608C322.732 748.487 305.843 751.889 289.775 754.771L291.325 766.88C328.066 763.913 359.607 749.395 395.309 739.888C432.071 730.099 465.609 725.678 503.482 722.563C514.072 721.692 530.141 719.32 540.204 718.976C565.526 717.501 594.797 713.446 620.551 711.217C682.414 705.86 743.938 700.938 805.557 693.298L804.169 659.01L790.328 661.147C790.863 667.63 791.878 674.796 792.677 681.307C763.683 686.572 733.23 689.723 704.012 693.831C649.144 701.547 594.7 707.878 539.455 712.049Z" fill="#72847D"/>
<path d="M510.46 331.867C532.533 329.082 556.402 323.426 578.385 319.341C610.284 313.413 642.08 307.104 674.112 301.891C691.549 299.054 709.242 295.084 726.793 292.98C727.27 297.357 727.909 302.227 728.176 306.581C681.724 312 632.755 318.718 586.352 325.424L536.38 332.716C528.563 333.844 518.973 335.5 511.338 336.237L510.77 335.96C509.892 334.414 510.305 334.044 510.46 331.867Z" fill="#F1C0E8"/>
<path d="M310.186 302.164L308.538 301.805C307.03 300.656 307.049 300.143 306.518 298.328C307.446 298.497 308.323 298.78 309.233 299.039C310.359 300.439 310.005 300.034 310.186 302.164Z" fill="#7FC096"/>
<path d="M509.775 340.6L747.612 307.934C748.309 314.151 748.997 322.124 749.989 328.179C696.738 335.545 643.978 344.376 590.912 352.305L537.169 360.009C529.962 361.052 517.155 362.523 510.49 364.204C509.373 356.994 509.693 347.984 509.775 340.6Z" fill="#FAD7FC"/>
<path d="M320.809 312.078C318.812 311.683 317.553 312.035 315.911 311.014L315.559 309.41C318.703 310.49 319.488 309.908 320.809 312.078Z" fill="#7FC096"/>
<path d="M302.305 317.08C299.546 316.609 299.175 316.37 296.707 314.963C299.667 314.628 300.118 315.287 302.305 317.08Z" fill="#CFF8E1"/>
<path d="M770.306 476.898L754.668 331.636L768.343 329.789L777.943 412.908C780.486 433.372 784.288 458.794 785.555 479.119C779.211 480.257 776.264 478.72 770.306 476.898Z" fill="#FAD7FC"/>
<path d="M210.797 379.697C213.741 372.732 217.933 367.804 225.806 366.539C235.869 364.922 246.124 364.046 256.273 363.038L313.229 357.334C377.752 350.296 446.381 342.603 510.461 331.867C510.306 334.044 509.893 334.414 510.771 335.96L511.339 336.237C503.785 337.787 490.87 339.114 482.745 340.246L423.024 348.664L210.797 379.697Z" fill="#CFF8E1"/>
<path d="M511.053 368.243L750.419 331.926C751.193 343.284 752.886 354.73 753.913 366.067C757.179 402.132 762.345 438.397 765.218 474.466C720.204 450.13 697.008 475.8 654.452 486.666C627.563 493.532 592.615 492.901 564.602 500.247C559.246 501.651 543.595 498.895 537.076 499.812C535.671 499.906 535.833 495.765 535.843 494.647C536.206 479.044 537.768 463.179 538.086 447.468C539.467 449.855 540.611 452.351 541.78 454.848C548.321 468.825 554.601 482.911 560.824 497.033C565.958 495.202 575.398 493.735 580.977 492.725C582.792 471.179 584.443 450.555 586.859 429.001C588.249 416.593 590.336 400.431 590.911 388.283C585.433 388.485 577.047 390.037 571.15 390.68C569.177 413.157 566.706 431.106 565.91 453.999C559.061 436.878 552.067 419.86 544.885 402.877C543.912 400.575 543.073 398.077 542.299 395.703C536.542 397.286 527.259 397.961 522.224 399.715C517.055 395.932 512.084 374.743 511.053 368.243ZM611.613 457.964L609.925 457.854L608.889 459.413L608.406 458.222C606.161 456.996 601.24 458.769 598.517 459.462C608.854 495.209 654.728 496.4 664.772 461.286C670.763 440.343 641.753 429.184 627.482 422.797C622.43 420.536 612.281 414.006 614.445 405.721C619.525 394.918 631.303 399.912 635.478 408.325C642.091 406.862 648.228 405.796 654.888 404.108C654.814 403.96 654.744 403.811 654.668 403.665C650.191 394.997 643.322 385.161 633.504 382.172C626.082 379.912 615.618 381.058 608.855 384.814C603.111 388.003 597.563 394.448 595.822 400.815C594.351 406.191 594.457 411.864 596.185 417.166C603.397 439.291 633.393 442.526 639.774 454.149C640.988 456.36 641.5 459.175 640.667 461.603C639.99 463.576 638.442 464.989 636.581 465.852C633.679 467.197 630.373 467.228 627.41 466.06C622.575 464.155 619.749 460.293 617.694 455.733C615.104 455.913 612.725 455.485 611.613 457.964Z" fill="#FAD7FC"/>
<path d="M896.45 332.59L898.887 341.624C897.795 342.056 897.851 341.983 896.688 341.714C895.129 339.38 895.61 336.446 893.908 333.541L896.45 332.59Z" fill="#F1C0E8"/>
<path d="M885.822 345.574C883.297 340.412 885.549 339.093 881.419 336.516L881.225 335.188C882.19 334.096 882.133 334.35 883.705 333.824C885.112 334.105 885.557 334.029 886.46 335.806C890.611 343.974 892.455 352.987 896.174 361.618C896.657 363.033 898.222 367.233 898.306 368.456C897.138 368.165 895.655 363.421 894.082 361.072L895.876 365.68C893.285 362.661 886.127 343.601 885.328 338.506C885.138 337.292 885.399 337.78 884.822 336.093L884.335 336.856C884.303 339.051 885.545 342.506 886.209 344.74L885.822 345.574Z" fill="#F1C0E8"/>
<path d="M885.822 345.575L886.209 344.741C885.545 342.507 884.303 339.052 884.335 336.857L884.822 336.094C885.399 337.781 885.138 337.293 885.328 338.507C886.127 343.602 893.285 362.662 895.876 365.681L894.082 361.073C895.655 363.422 897.138 368.166 898.306 368.457L904.281 378.883C907.047 382.46 911.151 389.336 913.63 393.323C935.004 428.528 948.859 442.181 948.566 486.652C948.095 510.926 935.363 530.572 918.436 547.306C900.726 564.815 876.559 576.46 862.52 597.08C857.917 603.841 857.121 608.036 853.917 614.281L853.735 614.265C852.052 615.62 850.487 627.767 849.594 631.017C848.826 624.265 852.366 618.21 851.752 613.385C851.986 610.088 855.149 604.167 856.605 601.174C867.34 579.515 890.377 566.604 908.679 551.669C958.183 511.272 953.705 460.247 920.046 410.554C918.607 407.462 903.334 384.507 900.916 381.644C899.616 381.998 900.068 381.953 898.7 381.921L898.378 381.113C900.058 379.547 899.98 379.225 898.916 377.085C893.599 366.391 888.904 357.207 885.822 345.575Z" fill="#CFBAF0"/>
<path d="M211.186 384.157C214.903 383.333 219.033 383.005 222.817 382.392C250.721 377.875 278.802 374.713 306.757 370.593L509.775 340.602C509.693 347.986 509.373 356.996 510.49 364.206C492.52 367.141 472.96 369.133 454.72 371.649L319.244 389.745L252.82 398.842C240.24 400.649 226.665 402.906 214.158 404.273L211.186 384.157Z" fill="#CFF8E1"/>
<path d="M933.951 366.573L933.97 365.77C935.754 363.61 936.715 363.016 938.929 361.414C939.29 364.419 936.166 365.479 933.951 366.573Z" fill="#765E57"/>
<path d="M214.783 408.641C224.835 407.447 235.852 405.531 245.965 404.079L300.736 396.678C370.461 387.559 441.497 378.565 511.052 368.242C512.083 374.742 517.054 395.931 522.223 399.714C522.681 402.949 522.235 406.271 522.125 409.537C521.533 427.128 519.141 444.695 519.292 462.297C514.848 448.317 510.007 434.634 504.438 421.063C502.071 415.296 499.735 408.822 496.841 403.383C489.826 404.483 482.728 405.541 475.733 406.723C482.29 427.636 491.423 449.322 498.984 469.974C502.805 480.408 507.215 493.361 512.2 503.13C519.601 501.979 528.151 500.455 535.513 499.809C535.836 513.814 536.581 518.79 540.977 531.902C520.595 534.959 500.526 537.42 480.155 540.833C464.331 543.484 447.693 547.332 432.016 549.611C428.891 549.888 419.403 549.964 417.002 550.576C410.818 551.944 403.711 553.109 397.397 553.795C396.09 553.274 374.632 551.345 371.461 551.206C326.094 549.219 273.246 517.633 229.292 519.671C223.724 483.164 219.346 445.331 214.783 408.641ZM472.999 407.267C457.56 409.492 442.17 412.073 426.752 414.438C424.349 414.807 421.928 415.131 419.548 415.632C422.969 438.005 425.767 460.653 429.12 483.056C430.709 493.671 431.468 505.528 433.221 515.956C439.252 515.32 490.56 508.317 492.927 507.01C493.044 505.688 493.117 505.647 492.811 504.38C491.874 498.337 490.919 492.275 490.102 486.215C478.108 488.332 464.925 489.51 453.755 491.581C452.202 484.405 450.436 475.43 449.273 468.121C456.977 466.858 466.153 465.602 473.948 464.718L471.101 443.718C462.954 444.96 454.01 446.486 445.874 447.209C445.156 442.055 444.446 437.107 443.55 431.973C454.26 430.205 466.294 428.461 476.764 425.995C476.321 423.57 473.642 408.005 472.999 407.267ZM415.961 416.251C409.994 417.089 400.043 418.308 394.43 419.544C397.078 436.245 399.179 453.095 401.823 469.636C390.057 457.419 378.756 444.971 367.333 432.449C365.302 430.223 363.116 427.859 360.938 425.782C355.222 426.922 350.004 427.616 344.24 428.388C348.491 458.157 354.532 488.015 359.033 517.76C359.487 520.76 360.01 523.745 360.721 526.696L370.179 524.8C368.501 517.808 367.228 510.024 365.929 502.891L358.917 460.428C357.76 453.587 355.08 440.463 355.08 434.262C371.096 450.32 385.762 467.127 401.413 483.512C410.49 493.015 418.511 502.471 428.671 510.871C428.095 500.698 417.877 418.584 415.961 416.251ZM358.201 441.853C358.496 447.903 360.443 455.812 361.341 462.011C362.992 473.416 365.068 484.807 366.962 496.148C368.379 504.629 370.915 516.17 371.577 524.666C374.268 524.153 376.997 523.605 379.693 523.146C379.24 515.755 377.284 506.583 375.877 499.19L369.856 466.98C376.716 474.85 383.859 482.513 390.934 490.195C399.773 499.506 408.491 508.728 417.553 517.825C421.694 517.499 425.608 517.243 429.717 516.545C426.783 513.31 408.039 494.042 405.201 491.298C397.485 483.839 363.678 444.694 358.201 441.853Z" fill="#CFF8E1"/>
<path d="M904.281 378.885L906.538 377.477L907.348 377.823L907.794 379.06L906.876 380.696C908.088 383.647 909.833 385.078 911.369 387.706L911.894 387.571C912.074 384.813 910.926 381.319 911.605 379.872L912.41 379.921L912.636 380.766C912.873 379.669 913.098 378.631 913.367 377.538C915.036 382.074 915.401 388.807 913.63 393.325C911.151 389.338 907.047 382.462 904.281 378.885Z" fill="#FFEDE1"/>
<path d="M611.612 457.963C612.724 455.484 615.103 455.912 617.693 455.732C619.748 460.292 622.574 464.154 627.409 466.059C630.372 467.227 633.678 467.196 636.58 465.851C638.441 464.988 639.989 463.575 640.666 461.602C641.499 459.174 640.987 456.359 639.773 454.148C633.392 442.525 603.396 439.29 596.184 417.165C594.456 411.863 594.35 406.19 595.821 400.814C597.562 394.447 603.11 388.002 608.854 384.813C615.617 381.057 626.081 379.911 633.503 382.171C643.321 385.16 650.19 394.996 654.667 403.664C654.743 403.81 654.813 403.959 654.887 404.107C648.227 405.795 642.09 406.861 635.477 408.324C631.302 399.911 619.524 394.917 614.444 405.72C612.28 414.005 622.429 420.535 627.481 422.796C641.752 429.183 670.762 440.342 664.771 461.285C654.727 496.399 608.853 495.208 598.516 459.461C601.239 458.768 606.16 456.995 608.405 458.221L608.888 459.412C611.942 467.388 615.81 472.96 624.22 476.064C635.899 480.094 649.566 474.024 653.169 462.027C659.158 442.086 633.238 435.828 620.845 427.744C616.344 424.808 612.799 421.866 610.152 416.755C599.518 396.214 625.108 383.283 638.743 399.241C639.774 400.447 642.461 402.946 643.988 403.524L644.774 403.14C645.501 398.332 634.142 390.578 629.856 389.6C613.139 385.786 599.537 400.998 607.297 416.994C614.622 433.589 639.406 436.166 648.88 449.537C658.425 463.006 639.543 479.409 625.388 473.722C616.135 470.005 615.658 465.197 611.612 457.963Z" fill="#504A53"/>
<path d="M187.557 405.424C187.202 399.76 186.485 393.32 185.576 387.691L207.273 384.785C208.117 391.207 209.244 398.518 209.7 404.905C205.347 405.501 197.296 406.369 193.184 407.303C193.515 412.793 194.139 418.533 194.923 423.984C199.566 456.295 202.61 489.482 207.811 521.659L207.438 522.836C197.304 527.83 190.05 529.276 179.668 536.215L179.102 536.283C170.578 531.502 145.28 515.988 138.969 509.203C139.707 508.496 140.332 507.857 141.034 507.115L140.847 506.282C144.197 502.923 148.951 499.349 152.539 496.017C167.819 481.828 175.76 472.807 182.28 453.069C185.808 440.337 189.583 418.73 187.557 405.424Z" fill="#CFF8E1"/>
<path d="M522.224 399.717C527.259 397.963 536.542 397.288 542.299 395.705C543.073 398.079 543.912 400.577 544.885 402.879C552.067 419.862 559.061 436.88 565.91 454.001C566.706 431.108 569.177 413.159 571.15 390.682C577.047 390.039 585.433 388.487 590.911 388.285C590.336 400.433 588.249 416.595 586.859 429.003C584.443 450.557 582.792 471.181 580.977 492.727C575.398 493.737 565.958 495.204 560.824 497.035C554.601 482.913 548.321 468.827 541.78 454.85C540.611 452.353 539.467 449.857 538.086 447.47C537.768 463.181 536.206 479.046 535.843 494.649C535.511 496.752 535.52 497.658 535.514 499.812C528.152 500.458 519.602 501.982 512.201 503.133C507.216 493.364 502.806 480.411 498.985 469.977C491.424 449.325 482.291 427.639 475.734 406.726C482.729 405.544 489.827 404.486 496.842 403.386C499.736 408.825 502.072 415.299 504.439 421.066C510.008 434.637 514.849 448.32 519.293 462.3C519.142 444.698 521.534 427.131 522.126 409.54C522.236 406.274 522.682 402.952 522.224 399.717ZM537.371 412.949C536.429 410.813 534.789 407.003 532.896 405.699L532.21 406.102C531.059 410.796 531.204 415.323 530.956 420.095C529.744 443.471 527.107 466.733 525.676 490.111C524.086 490.322 520.648 490.643 519.33 491.228C517.852 488.341 514.585 477.841 513.332 474.236L513.939 473.497C514.215 474.148 514.648 475.244 515.196 475.737L514.802 474.986L515.134 474.636C513.93 469.733 511.371 463.985 510.714 459.208C511.008 455.876 509.756 455.445 507.76 453.6C502.727 448.947 494.405 412.231 488.556 411.718C488.343 412.616 488.374 412.598 488.705 413.486L516.546 490.19C518.162 494.719 522.816 492.192 527.358 491.81C528.512 481.216 532.694 416.69 534.751 412.436C538.425 422.828 545.468 436.451 549.787 447.279C555.365 460.129 560.538 473.18 566.559 485.833C567.747 488.33 570.208 487.952 572.108 486.619C573.014 484.823 573.428 482.335 573.669 480.33C576.44 457.156 578.491 433.886 581.435 410.732C582 406.292 582.825 400.964 582.93 396.569L582.325 395.979L581.391 396.186C579.542 399.829 579.316 408.9 578.811 413.358L574.073 455.464C573.164 464.177 572.073 478.511 570.095 486.568C566.619 481.35 563.034 471.503 560.518 465.502C555.669 453.936 550.729 442.218 545.562 430.798C543.375 425.965 539.933 417.276 537.371 412.949Z" fill="url(#paint0_linear_2293_128203)"/>
<path d="M608.888 459.413L609.924 457.854L611.612 457.964C615.658 465.198 616.135 470.006 625.388 473.723C639.543 479.41 658.425 463.007 648.88 449.538C639.406 436.167 614.622 433.59 607.297 416.995C599.537 400.999 613.139 385.787 629.856 389.601C634.142 390.579 645.501 398.333 644.774 403.141L643.988 403.525C642.461 402.947 639.774 400.448 638.743 399.242C625.108 383.284 599.518 396.215 610.152 416.756C612.799 421.867 616.344 424.809 620.845 427.745C633.238 435.829 659.158 442.087 653.169 462.028C649.566 474.025 635.899 480.095 624.22 476.065C615.81 472.961 611.942 467.389 608.888 459.413Z" fill="#ECDBE5"/>
<path d="M534.75 412.434C534.914 412.213 535.243 411.332 535.364 411.035L537.37 412.947C539.932 417.274 543.374 425.963 545.561 430.796C550.728 442.216 555.668 453.934 560.517 465.5C563.033 471.501 566.618 481.348 570.094 486.566C572.072 478.509 573.163 464.175 574.072 455.462L578.81 413.356C579.315 408.898 579.541 399.827 581.39 396.184L582.324 395.977L582.929 396.567C582.824 400.962 581.999 406.29 581.434 410.73C578.49 433.884 576.439 457.154 573.668 480.328C573.427 482.333 573.013 484.821 572.107 486.617C570.207 487.95 567.746 488.328 566.558 485.831C560.537 473.178 555.364 460.127 549.786 447.277C545.467 436.449 538.424 422.826 534.75 412.434Z" fill="#FCFCF8"/>
<path d="M537.372 412.949L535.366 411.037C535.245 411.334 534.916 412.215 534.752 412.436C532.695 416.69 528.513 481.216 527.359 491.81C522.817 492.192 518.163 494.719 516.547 490.19L518.305 491.712C518.553 491.606 519.162 491.382 519.331 491.228C520.649 490.643 524.087 490.322 525.677 490.111C527.108 466.733 529.745 443.471 530.957 420.095C531.205 415.323 531.06 410.796 532.211 406.102L532.897 405.699C534.79 407.003 536.43 410.813 537.372 412.949Z" fill="#E2FCF2"/>
<path d="M187.556 405.422C189.582 418.728 185.807 440.335 182.279 453.067C179.405 453.45 180.498 452.972 178.201 455.072C184.668 433.719 182.885 427.162 184.129 406.784C186.398 413.362 183.425 427.565 183.81 434.948C183.96 437.825 181.011 443.084 182.722 445.242C187.318 440.196 186.107 413.35 187.426 406.096L187.556 405.422Z" fill="#7FB1B6"/>
<path d="M419.549 415.635C421.929 415.134 424.35 414.81 426.753 414.441C442.171 412.076 457.561 409.495 473 407.27C473.643 408.008 476.322 423.573 476.765 425.998C466.295 428.464 454.261 430.208 443.551 431.976C444.447 437.11 445.157 442.058 445.875 447.212C454.011 446.489 462.955 444.963 471.102 443.721L473.949 464.721C466.154 465.605 456.978 466.861 449.274 468.124C450.437 475.433 452.203 484.408 453.756 491.584C464.926 489.513 478.109 488.335 490.103 486.218C490.92 492.278 491.875 498.34 492.812 504.383C493.118 505.65 493.045 505.691 492.928 507.013C490.561 508.32 439.253 515.323 433.222 515.959C431.469 505.531 430.71 493.674 429.121 483.059C425.768 460.656 422.97 438.008 419.549 415.635ZM469.082 417.242C459.811 418.048 440.05 421.269 430.436 423.248C432.368 431.372 433.631 442.939 434.845 451.524L442.101 505.212C447.476 504.597 483.246 500.005 485.88 498.301L485.818 497.632C482.917 496.26 465.199 499.768 460.003 500.391L444.744 502.563C442.303 488.84 439.919 473.919 438.355 460.059C444.518 459.234 463.328 457.231 467.937 455.371L468.126 454.827C464.58 453.836 444.877 457.244 438.208 457.487C436.043 446.539 434.708 435.677 432.74 424.761C437.742 424.028 467.529 420.07 470.407 418.263L470.252 417.341L469.082 417.242Z" fill="#355B57"/>
<path d="M210.344 409.297L224.766 518.643C223.446 520.592 215.041 521.941 212.377 522.158C206.71 485.067 202.284 447.922 197.877 410.673L210.344 409.297Z" fill="#CFF8E1"/>
<path d="M842.944 551.2C860.958 547.244 884.934 532.999 897.468 519.233C917.355 497.391 924.421 471.142 922.799 442.088C922.255 432.357 919.616 419.635 919.34 411.304L920.046 410.555C953.705 460.248 958.183 511.273 908.679 551.67C890.377 566.605 867.34 579.516 856.605 601.175C855.149 604.168 851.986 610.089 851.752 613.386C846.535 631.056 845.808 651.902 855.244 667.985C868.438 689.224 865.842 709.441 860.206 732.504C855.48 751.841 846.307 779.828 833.661 795.516C810.847 823.818 774.001 847.758 737.161 850.347C729.219 850.905 720.537 852.585 712.754 854.195C679.968 864.394 659.441 873.696 624.041 864.782C626.267 863.498 642.594 861.078 646.698 860.263L717.316 846.255C725.849 844.529 734.611 842.649 742.748 839.549C770.794 828.864 797.11 807.655 813.392 782.307C830.802 755.204 843.826 721.096 843.453 688.517C843.335 678.2 840.702 665.91 838.619 655.846C840.32 651.931 839.103 642.443 840.047 637.643C842.654 624.398 845.351 611.291 846.831 597.863C848.566 582.129 846.185 566.786 842.915 551.421L842.944 551.2Z" fill="#FCFCF8"/>
<path d="M510.713 459.209C510.449 460.884 510.578 461.046 509.821 462.534L509.28 462.561L509.274 463.064C510.309 466.747 511.808 470.725 513.331 474.237C514.584 477.842 517.851 488.342 519.329 491.229C519.16 491.383 518.551 491.607 518.303 491.713L516.545 490.191L488.704 413.487C488.373 412.599 488.342 412.617 488.555 411.719C494.404 412.232 502.726 448.948 507.759 453.601C509.755 455.446 511.007 455.877 510.713 459.209Z" fill="#E2FCF2"/>
<path d="M394.43 419.547C400.043 418.311 409.994 417.092 415.961 416.254C417.877 418.587 428.095 500.701 428.671 510.874C418.511 502.474 410.49 493.018 401.413 483.515C385.762 467.13 371.096 450.323 355.08 434.265C355.08 440.466 357.76 453.59 358.917 460.431L365.929 502.894C367.228 510.027 368.501 517.811 370.179 524.803L360.721 526.699C360.01 523.748 359.487 520.763 359.033 517.763C354.532 488.018 348.491 458.16 344.24 428.391C350.004 427.619 355.222 426.925 360.938 425.785C363.116 427.862 365.302 430.226 367.333 432.452C378.756 444.974 390.057 457.422 401.823 469.639C399.179 453.098 397.078 436.248 394.43 419.547ZM405.679 425.631C405.655 427.655 406.808 436.795 407.401 438.738C410.063 447.471 411.037 480.003 415.4 486.14C415.413 479.894 409.152 430.649 406.959 426.228L405.679 425.631Z" fill="#355B57"/>
<path d="M430.436 423.248C440.05 421.269 459.811 418.048 469.082 417.242L470.252 417.341L470.407 418.263C467.529 420.07 437.742 424.028 432.74 424.761C434.708 435.677 436.043 446.539 438.208 457.487C444.877 457.244 464.58 453.836 468.126 454.827L467.937 455.371C463.328 457.231 444.518 459.234 438.355 460.059C439.919 473.919 442.303 488.84 444.744 502.563L460.003 500.391C465.199 499.768 482.917 496.26 485.818 497.632L485.88 498.301C483.246 500.005 447.476 504.597 442.101 505.212L434.845 451.524C433.631 442.939 432.368 431.372 430.436 423.248Z" fill="#CFF8E1"/>
<path d="M415.401 486.138C411.038 480.001 410.064 447.469 407.402 438.736C406.809 436.793 405.656 427.653 405.68 425.629L406.96 426.226C409.153 430.647 415.414 479.892 415.401 486.138Z" fill="#E2FCF2"/>
<path d="M371.577 524.668C370.915 516.172 368.379 504.631 366.962 496.15C365.068 484.809 362.992 473.418 361.341 462.013C360.443 455.814 358.496 447.905 358.201 441.855C363.678 444.696 397.485 483.841 405.201 491.3C408.039 494.044 426.783 513.312 429.717 516.547C425.608 517.245 421.694 517.501 417.553 517.827C408.491 508.73 399.773 499.508 390.934 490.197C383.859 482.515 376.716 474.852 369.856 466.982L375.877 499.192C377.284 506.585 379.24 515.757 379.693 523.148C376.997 523.607 374.268 524.155 371.577 524.668Z" fill="#355B57"/>
<path d="M178.203 455.071C180.5 452.971 179.407 453.449 182.281 453.066C175.761 472.804 167.82 481.825 152.54 496.014C148.952 499.346 144.198 502.92 140.848 506.279C117.483 525.022 92.2651 551.793 88.8362 582.734C85.9723 608.577 98.1952 618.042 98.0846 640.09C97.3078 653.757 93.6333 671.715 91.7239 685.785C86.2781 725.913 95.9859 763.842 123.194 794.27C147.733 821.713 181.848 838.323 217.238 846.587C226.999 848.867 235.794 851.526 246.029 852.052L247.461 852.115C201.74 826.277 176.522 790.02 149.106 746.545C132.574 720.329 118.287 697.974 114.901 665.965C114.34 656.725 115.126 641.537 116.553 632.294C118.335 635.036 118.462 646.953 118.928 651.021C121.597 674.356 132.008 698.789 144.179 718.766C170.184 761.449 205.652 798.221 240.201 834.008C245.745 839.733 251.733 844.737 257.628 849.904C260.18 852.14 271.166 860.859 272.495 862.677L265.501 861.248C262.809 860.12 256.663 857.339 254 856.944C216.701 851.538 181.769 842.555 150.187 821.478C103.723 790.469 80.8396 741.044 88.6154 685.517C91.1801 667.202 97.032 645.236 93.7956 626.92C91.4917 618.116 86.6675 608.278 85.809 599.295C82.1617 561.128 106.514 532.074 133.364 508.408C145.694 497.538 159.377 487.312 169.17 473.971C173.187 468.498 175.816 461.37 178.203 455.071Z" fill="#8EECF5"/>
<path d="M799.267 487.509C798.282 479.598 795.979 464.961 795.598 457.473C797.826 464.851 800.45 482.639 801.306 490.749L809.758 551.154C808.609 552.036 809.025 551.865 807.716 552.334C805.772 530.925 802.088 508.853 799.267 487.509Z" fill="#907F7F"/>
<path d="M509.275 463.062L509.281 462.559L509.822 462.532C510.579 461.044 510.45 460.882 510.714 459.207C511.371 463.984 513.93 469.732 515.134 474.635L514.802 474.985L515.196 475.736C514.648 475.243 514.215 474.147 513.939 473.496C512.832 470.156 511.384 465.85 509.275 463.062Z" fill="#CFF8E1"/>
<path d="M509.275 463.062C511.384 465.851 512.832 470.156 513.939 473.496L513.332 474.235C511.809 470.723 510.31 466.746 509.275 463.062Z" fill="#7FB1B6"/>
<path d="M535.843 494.649C535.833 495.767 535.671 499.908 537.076 499.814C543.595 498.897 559.246 501.653 564.602 500.249C592.615 492.903 627.563 493.534 654.452 486.668C697.008 475.802 720.204 450.132 765.218 474.468C766.873 486.866 767.255 500.44 768.958 512.368C769.183 517.999 769.918 524.367 771.133 529.864C772.075 535.673 773.188 543.674 774.692 549.274L774.848 552.334L775.191 556.535C771.988 562.054 778.308 585.396 766.914 603.347C766.169 604.34 765.614 604.877 765.301 606.06C749.212 625.691 737.116 624.012 713.236 627.337C711.274 627.61 708.238 627.577 706.444 626.758C710.459 626.221 733.051 623.883 734.928 622.274C735.775 620.653 735.689 621.452 735.472 619.846C732.834 618.116 660.68 628.398 651.605 630.264C650.364 629.996 649.756 629.644 648.602 629.115L715.462 615.297C718.954 614.594 731.614 612.918 733.29 611.351C733.571 609.551 733.665 610.397 733.031 608.714C732.669 608.49 732.308 608.265 731.947 608.04C688.817 615.701 646.208 625.637 603.123 633.593L604.088 639.63C604.138 641.268 604.262 643.286 604.186 644.893C602.277 645.846 592.458 646.882 590.645 645.508L590.52 643.402C590.478 641.519 590.281 640.37 589.992 638.495C589.772 636.135 589.601 633.969 589.472 631.599C589.475 629.924 589.673 629.019 588.716 627.671C587.343 626.937 583.906 627.81 582.074 628.057C583.541 626.883 584.016 626.988 586.006 626.739L586.635 626.667C587.759 625.031 587.67 621.687 586.163 620.322C584.779 620.477 583.677 620.662 582.321 620.908L581.663 620.337C582.555 619.904 584.858 619.857 586.971 618.877C587.604 616.92 587.122 616.599 586.607 614.226C586.101 612.336 585.726 608.167 585.489 606.052L584.315 602.346C583.788 600.483 583.176 595.694 582.871 593.587C582.721 592.204 582.467 591.015 582.197 589.658C581.566 587.208 581.034 582.573 580.945 580.053C580.431 577.967 580.741 577.528 579.416 576.529C573.602 576.903 563.337 578.891 557.326 579.882L517.417 586.61C514.071 587.193 501.497 589.619 498.512 589.763L498.752 589.166C500.658 588.364 511.817 586.792 514.68 586.256C531.957 583.022 549.709 580.693 566.893 577.321C570.743 576.565 574.492 576.72 578.522 575.557C578.926 574.217 577.926 570.79 577.592 569.081C576.195 569.032 577.665 569.028 576.406 569.209C552.196 572.677 527.333 578.52 503.163 581.755L502.419 581.354C504.648 580.57 517.6 578.547 520.802 577.996L560.643 571.112C565.176 570.329 573.999 569.178 578.066 568.207L578.579 567.297C578.495 565.648 578.656 565.373 577.619 564.104C575.94 563.448 571.99 564.553 569.522 564.816L569.701 564.251C571.515 563.689 574.821 563.444 577.007 562.969C577.771 560.836 578.183 560.173 576.909 558.169C573.652 556.038 566.323 559.741 561.372 558.75C565.767 557.815 574.021 557.785 576.635 555.085C577.105 553.452 576.808 553.085 576.209 551.497L574.711 550.917L574.305 549.952C574.714 547.154 574.755 546.141 574.69 543.309C574.747 541.317 574.617 541.185 573.831 539.292C573.271 537.634 572.995 533.803 572.779 531.914C572.596 530.215 572.669 529.101 571.661 527.745C568.651 527.536 545.374 531.255 540.978 531.905C536.582 518.793 535.837 513.817 535.514 499.812C535.52 497.658 535.511 496.752 535.843 494.649ZM710.314 509.302C678.664 512.598 619.416 519.916 585.76 525.368C585.422 525.693 585.083 526.017 584.745 526.342C584.585 528.301 584.39 527.389 585.475 529.147C587.33 529.838 586.347 529.648 588.616 529.269C629.85 523.641 670.893 517.552 712.309 513.257C713.727 513.11 715.121 512.97 716.175 511.97C716.213 508.274 712.667 509.06 710.314 509.302ZM713.61 516.676L621.545 532.05C614.427 533.207 607.418 534.223 600.286 535.222C597.153 535.661 589.804 536.398 587.205 537.323C586.723 538.962 586.947 539.516 587.232 541.182C588.516 542.235 589.309 541.789 591.007 541.579C600.932 539.785 611.268 538.424 621.265 536.804L679.539 527.037C685.195 526.079 715.451 521.755 717.512 519.41C717.57 517.641 717.79 518.474 716.557 516.911C715.133 516.301 715.174 516.42 713.61 516.676ZM716.305 528.174C682.533 533.458 625.956 542.988 590.057 549.109C589.759 549.42 589.46 549.732 589.161 550.044C588.963 552.078 588.822 551.09 589.834 553.068C591.196 553.79 590.459 553.576 592.179 553.324L689.495 537.138C698.016 535.736 709.65 533.792 718.443 532.497C718.748 532.235 719.053 531.972 719.358 531.71C719.874 529.629 719.923 530.63 719.182 528.599C717.762 527.596 718.592 527.957 716.305 528.174ZM718.955 539.695C683.553 545.166 648.359 551.484 613.078 557.752C607.002 558.831 598.589 560.27 592.226 561.048C591.865 561.327 591.505 561.605 591.144 561.884C590.662 563.806 590.693 562.835 591.273 564.902L592.148 565.726L593.061 565.625C605.864 563.297 718.366 545.075 720.828 543.487C721.534 541.909 721.688 541.175 720.454 539.686C719.856 539.654 719.518 539.576 718.955 539.695ZM719.347 551.67C695.318 555.504 623.115 567.749 593.8 573.409C593.515 573.713 593.229 574.017 592.944 574.321C592.803 576.237 592.637 575.326 593.612 577.118C595.255 578.11 594.327 577.833 596.61 577.485L688.089 561.514L714.133 557.158C716.386 556.788 721.434 556.484 722.761 555.181C723.069 553.133 723.167 554.124 722.307 552.118C720.773 551.058 721.668 551.388 719.347 551.67ZM721.785 563.171C683.705 568.861 645.509 576.341 607.726 583.781C605.13 584.292 596.663 585.6 595.24 587.077C595.006 589.265 594.857 588.212 595.896 590.317C597.252 590.951 596.544 590.836 598.108 590.553C638.756 582.465 679.372 574.706 720.244 567.829C721.858 567.557 723.731 567.25 724.916 566.108C725.289 564.522 725.338 565.298 724.623 563.714C723.049 562.635 723.937 562.911 721.785 563.171ZM723.581 574.679C693.703 579.18 665.097 584.928 635.478 590.536L612.514 594.849C608.368 595.619 601.57 596.625 597.781 597.981C597.128 599.151 597.505 599.663 597.699 601.323C598.995 602.104 600.172 601.649 601.939 601.363C626.385 597.159 650.427 592.192 674.816 587.799L707.961 581.795C711.626 581.132 725.165 579.39 727.26 577.293C727.592 575.734 727.674 576.499 726.763 574.959C724.903 574.146 725.902 574.377 723.581 574.679ZM727.294 586.187C688.725 591.835 650.396 599.534 612.091 606.679C607.839 607.472 603.728 608.183 599.551 609.313C598.764 611.097 598.797 611.658 600.037 613.335C600.453 613.36 601.264 613.448 601.628 613.376L702.48 594.843C710.007 593.504 720.802 591.625 728.753 590.46C729.086 590.182 729.419 589.904 729.752 589.627C730.132 587.725 730.182 588.659 729.433 586.738C728.196 585.797 728.882 585.994 727.294 586.187ZM730.65 597.176L644.022 613.24L616.425 618.473C612.401 619.237 608.372 619.928 604.353 620.693C601.928 621.154 601.203 622.08 600.938 624.278C601.739 625.347 601.547 625.511 602.462 625.838L688.643 609.454C702.235 606.984 715.887 604.491 729.531 602.316C730.492 602.163 730.792 601.879 731.482 601.297C731.848 600.233 732.357 597.326 730.65 597.176Z" fill="#FDE4CF"/>
<path d="M770.307 476.898C776.265 478.72 779.212 480.257 785.556 479.119C788.404 504.29 791.597 529.345 794.85 554.463C795.198 557.147 795.533 559.961 795.728 562.652L794.996 563.168C790.178 560.721 783.423 555.827 778.341 554.13L778.016 552.375C777.102 544.283 776.313 528.404 774.987 521.412C774.942 518.029 773.978 511.444 773.616 507.861C772.575 497.558 771.019 487.247 770.307 476.898Z" fill="#FDE4CF"/>
<path d="M790.664 487.693C793.509 487.413 796.401 487.498 799.267 487.507C802.088 508.851 805.772 530.923 807.716 552.332L807.693 552.945C804.677 552.972 801.422 552.897 798.464 553.373C795.493 531.388 793.402 509.653 790.664 487.693Z" fill="#FDE4CF"/>
<path d="M801.307 490.746C812.564 493.374 824.44 509.485 830.915 518.692C838.344 529.253 838.874 540.494 842.945 551.199L842.916 551.42C830.918 554.082 822.24 554.44 810.163 553.519L809.759 551.151L801.307 490.746Z" fill="#FDE4CF"/>
<path d="M98.0837 640.092C98.1943 618.044 85.9714 608.579 88.8353 582.736C92.2642 551.795 117.482 525.024 140.847 506.281L141.034 507.114C140.332 507.856 139.707 508.495 138.969 509.202C145.28 515.987 170.578 531.501 179.102 536.282C172.67 541.899 165.662 546.795 159.687 553.061C141.406 572.233 123.762 596.343 117.927 622.598C117.461 624.693 116.336 630.392 116.552 632.296C115.125 641.539 114.339 656.727 114.9 665.967L114.279 667.611L113.936 667.487C109.15 659.284 105.908 648.772 102.115 640.04C101.506 638.638 100.906 637.509 99.5242 637.031C98.6954 638.066 98.5188 638.853 98.0837 640.092ZM121.226 579.872C119.927 582.613 118.231 585.237 119.01 588.174C119.748 586.078 121.533 581.858 121.226 579.872Z" fill="#FCFCF8"/>
<path d="M588.616 529.268C586.347 529.647 587.33 529.837 585.475 529.146C584.39 527.388 584.585 528.3 584.745 526.341C585.083 526.016 585.422 525.692 585.76 525.367C619.416 519.915 678.664 512.597 710.314 509.301C712.667 509.059 716.213 508.273 716.175 511.969C715.121 512.969 713.727 513.109 712.309 513.256C670.893 517.551 629.85 523.64 588.616 529.268Z" fill="#727466"/>
<path d="M768.957 512.367C771.56 516.328 769.069 527.3 773.326 528.905L774.83 528.507C774.898 525.537 774.027 524.274 774.985 521.411C776.311 528.403 777.1 544.282 778.014 552.374C775.888 551.804 776.497 551.624 774.847 552.333L774.691 549.273C775.579 546.758 774.83 532.354 773.488 530.175L771.132 529.863C769.917 524.366 769.182 517.998 768.957 512.367Z" fill="#907F7F"/>
<path d="M591.007 541.577C589.309 541.787 588.516 542.233 587.232 541.18C586.947 539.514 586.723 538.96 587.205 537.321C589.804 536.396 597.153 535.659 600.286 535.22C607.418 534.221 614.427 533.205 621.545 532.048L713.61 516.674C715.174 516.418 715.133 516.299 716.557 516.909C717.79 518.472 717.57 517.639 717.512 519.408C715.451 521.753 685.195 526.077 679.539 527.035L621.265 536.802C611.268 538.422 600.932 539.783 591.007 541.577Z" fill="#727466"/>
<path d="M224.766 518.641C233.491 569.47 236.396 622.402 245.155 673.393C247.381 686.351 247.795 700.412 250.138 713.227C246.429 713.775 241.385 714.364 237.811 715.11C231.087 656.511 222.263 598.064 214.807 539.546C214.076 533.815 213.325 527.837 212.377 522.156C215.041 521.939 223.446 520.59 224.766 518.641Z" fill="#90DBF4"/>
<path d="M229.293 519.673C273.247 517.635 326.095 549.221 371.462 551.208C374.633 551.347 396.091 553.276 397.398 553.797C387.083 555.744 376.672 556.874 366.302 558.507L304.718 568.393C296.593 569.672 280.803 571.244 274.163 572.867C273.24 574.258 273.603 575.15 273.847 577.153C273.999 579.923 274.044 582.482 274.709 585.188L275.412 589.986C275.757 592.448 276.191 597.406 277.33 599.282C277.542 600.755 277.723 602.27 278.027 603.721C278.476 606.768 279.463 609.611 280.362 612.564L281.392 617.181C281.7 619.36 281.919 621.62 282.571 623.707L283.484 628.863C283.459 631.505 283.658 632.164 284.304 634.754C284.612 636.271 284.819 636.985 285.271 638.426C288.197 640.219 375.102 623.521 385.606 622.325L386.273 622.989C398.391 620.963 410.45 618.551 422.508 616.228C424.052 615.931 426.029 616.18 427.252 617.197C427.183 618.256 427.173 618.316 426.419 619.01C423.614 621.593 392.961 626.957 386.881 627.947L386.993 628.703C383.933 629.92 368.065 632.605 363.801 633.369L305.562 643.227C302.352 643.769 289.695 645.725 287.367 647.03C286.658 648.715 286.889 648.221 287.215 650.314C290.152 651.752 418.439 627.493 428.319 624.219C429.081 622.81 428.595 622.605 428.056 620.504L428.561 620.35C431.526 620.53 437.357 619.147 440.192 618.065C451.12 616.735 463.079 613.271 474.274 612.004C476.285 612.452 559.829 598.994 568.732 597.303C570.049 599.34 569.742 601.269 569.081 603.461C566.382 604.672 553.968 605.722 550.387 606.377C534.727 609.238 518.605 611.475 502.902 614.208C497.787 615.097 481.032 617.07 477.405 619.24C472.452 620.321 443.447 624.727 442.22 626.482C442.372 628.083 442.424 628.59 442.805 630.206C444.072 632.731 444.268 634.839 444.48 637.663C444.095 639.176 444.317 640.651 445.381 641.775C449.961 641.591 454.589 640.386 459.127 639.671C467.936 638.284 477.293 636.256 486.111 635.293L486.805 635.856L459.241 640.427C455.018 641.136 449.752 642.461 445.725 642.705C446.175 644.604 446.538 646.312 446.892 648.23C449.137 649.452 483.074 642.92 489.813 642.363L489.889 642.928L462.332 647.335C458.619 647.927 450.569 649.004 447.403 649.897C446.784 651.631 447.209 652.487 447.607 654.543C448.274 656.958 448.715 660.275 449.32 662.226C449.409 663.871 449.34 664.071 449.91 665.658C452.266 666.504 511.671 655.888 520.105 654.71C522.955 657.069 527.532 669.149 528.616 672.705C512.624 674.432 495.298 677.492 479.267 679.804C404.665 690.565 328.872 700.003 254.656 712.783C252.204 699.996 250.368 680.194 248.552 666.812L235.48 567.31C233.488 551.94 231.682 534.822 229.293 519.673ZM427.275 631.623C403.803 636.351 379.269 641.876 355.827 646.128L312.911 653.732C308.49 654.512 289.762 657.132 287.823 659.314C287.826 661.232 287.565 660.351 288.807 661.991C290.188 662.395 290.169 662.283 291.611 661.984C327.928 655.401 364.211 649.133 400.279 641.292C404.753 640.32 427.326 636.382 430.112 634.699C430.956 633.35 430.829 634.049 430.611 632.556C429.283 631.323 429.248 631.356 427.275 631.623ZM431.558 642.717L292.713 667.328C291.17 667.601 290.333 667.823 289.235 668.936C288.887 670.305 289.252 671.627 290.139 672.713C326.32 665.958 362.406 660.975 398.843 653.572L420.816 649.004C423.481 648.443 431.194 647.548 432.616 645.518C432.728 644.499 432.458 643.332 431.558 642.717ZM433.63 653.244C417.955 655.259 295.291 675.492 290.913 677.93C290.136 678.991 290.192 678.914 290.068 680.231C290.766 681.337 290.522 681.422 291.383 681.783C297.524 680.347 303.9 679.265 310.116 678.168C350.6 671.021 391.252 665.003 431.637 657.282C432.99 657.024 434.155 656.328 434.754 655.091L434.218 653.604L434.911 654.59C434.35 653.381 434.787 653.82 433.63 653.244ZM434.761 663.683L341.346 679.128L309.802 684.389C306.456 684.944 293.521 686.596 291.677 688.22C291.005 689.876 291.059 689.051 291.515 690.782C292.624 691.66 291.979 691.376 293.64 691.274L402.128 673.304C406.303 672.591 434.901 668.327 436.324 667.24C436.991 665.662 436.86 666.503 436.414 664.608C435.285 663.57 435.831 663.651 434.761 663.683Z" fill="#90DBF4"/>
<path d="M207.811 521.656C209.672 531.549 210.901 541.417 212.154 551.401C201.883 549.587 191.29 541.174 181.721 537.252C180.485 536.745 180.891 537.204 179.668 536.212C190.05 529.273 197.304 527.827 207.438 522.833L207.811 521.656Z" fill="#90DBF4"/>
<path d="M432.017 549.612C447.694 547.333 464.332 543.485 480.156 540.834C500.527 537.421 520.596 534.96 540.978 531.903C545.374 531.253 568.651 527.534 571.661 527.743C572.669 529.099 572.596 530.213 572.779 531.912C533.567 539.092 492.392 541.218 453.283 550.216C447.011 551.659 438.462 553.147 432.539 554.903C431.875 553.486 432.033 551.274 432.017 549.612Z" fill="#72847D"/>
<path d="M592.178 553.321C590.458 553.573 591.195 553.787 589.833 553.065C588.821 551.087 588.962 552.075 589.16 550.041C589.459 549.729 589.758 549.417 590.056 549.106C625.955 542.985 682.532 533.455 716.304 528.171C718.591 527.954 717.761 527.593 719.181 528.596C719.922 530.627 719.873 529.626 719.357 531.707C719.052 531.969 718.747 532.232 718.442 532.494C709.649 533.789 698.015 535.733 689.494 537.135L592.178 553.321Z" fill="#727466"/>
<path d="M771.133 529.863L773.489 530.175C774.831 532.354 775.58 546.758 774.692 549.273C773.188 543.673 772.075 535.672 771.133 529.863Z" fill="#FFCFD2"/>
<path d="M432.539 554.905C438.462 553.149 447.011 551.661 453.283 550.218C492.392 541.22 533.567 539.094 572.779 531.914C572.995 533.803 573.271 537.634 573.831 539.292L473.461 556.046C465.691 557.31 457.949 558.803 450.204 560.132C447.709 560.56 440.764 561.936 438.57 561.992C436.312 561.702 436.117 562.074 433.602 561.386C432.444 559.668 432.764 557.385 432.539 554.905Z" fill="#F1C0E8"/>
<path d="M179.103 536.283L179.669 536.215C180.892 537.207 180.486 536.748 181.722 537.255C191.291 541.177 201.884 549.59 212.155 551.404C219.215 607.454 227.874 663.572 233.985 719.715L250.981 717.307C251.981 724.236 252.808 731.184 253.665 738.133C258.693 737.513 264.952 736.78 269.929 735.859C270.83 742.923 271.761 750.201 272.853 757.231L285.794 755.677C286.427 760.71 287 766.094 287.93 771.054C313.033 770.508 330.228 764.357 353.606 757.192C377.324 749.924 405.732 740.024 430.055 736.323C448.107 761.677 462.532 778.774 489.971 794.09C494.027 796.353 509.458 801.826 510.892 804.829C511.485 814.183 511.863 824.546 513.733 833.643C482.615 822.55 465.237 818.334 431.467 821.281C378.829 825.875 346.151 872.47 291.805 866.085C286.968 865.517 276.383 864.909 272.495 862.68C271.166 860.862 260.18 852.143 257.628 849.907C251.733 844.74 245.745 839.736 240.201 834.011C205.652 798.224 170.184 761.452 144.179 718.769C132.008 698.792 121.597 674.359 118.928 651.024C118.462 646.956 118.335 635.039 116.553 632.297C116.337 630.393 117.462 624.694 117.928 622.599C123.763 596.344 141.407 572.234 159.688 553.062C165.663 546.796 172.671 541.9 179.103 536.283Z" fill="#90DBF4"/>
<path d="M438.569 561.989C440.763 561.933 447.708 560.557 450.203 560.129C457.948 558.8 465.69 557.307 473.46 556.043L573.83 539.289C574.616 541.182 574.746 541.314 574.689 543.306C537.941 550.173 501.067 556.072 464.223 562.375C456.702 563.662 448.605 564.856 441.2 566.471C436.933 567.06 435.616 568.243 431.898 565.944L432.059 564.647C433.754 562.547 436.015 562.439 438.569 561.989Z" fill="#72847D"/>
<path d="M593.062 565.623L592.149 565.724L591.274 564.9C590.694 562.833 590.663 563.804 591.145 561.882C591.506 561.603 591.866 561.325 592.227 561.046C598.59 560.268 607.003 558.829 613.079 557.75C648.36 551.482 683.554 545.164 718.956 539.693C719.519 539.574 719.857 539.652 720.455 539.684C721.689 541.173 721.535 541.907 720.829 543.485C718.367 545.073 605.865 563.295 593.062 565.623Z" fill="#727466"/>
<path d="M441.2 566.474C448.605 564.859 456.702 563.665 464.223 562.378C501.067 556.075 537.941 550.176 574.689 543.309C574.754 546.141 574.713 547.154 574.304 549.952L574.71 550.917C571.414 552.305 558.337 554.337 554.211 555.064L501.293 563.847C484.773 566.579 466.984 570.445 450.774 572.872C448.937 572.024 436.57 574.396 434.401 575.265C433.678 574.025 433.28 570.089 434.121 568.798C436.796 567.827 438.96 568.08 441.2 566.474Z" fill="#F1C0E8"/>
<path d="M417.004 550.578C419.405 549.966 428.893 549.89 432.018 549.613C432.034 551.275 431.876 553.487 432.54 554.904C432.765 557.384 432.445 559.667 433.603 561.385C436.118 562.073 436.313 561.701 438.571 561.991C436.017 562.441 433.756 562.549 432.061 564.649L431.9 565.946C435.618 568.245 436.935 567.062 441.202 566.473C438.962 568.079 436.798 567.826 434.123 568.797C433.282 570.088 433.68 574.024 434.403 575.264C436.572 574.395 448.939 572.023 450.776 572.871C445.256 574.359 439.065 574.792 434.023 576.312C433.532 577.811 433.803 578.29 434.196 579.813C434.463 579.991 434.73 580.169 434.998 580.347C450.181 577.696 476.005 572.449 490.155 570.244L491.09 570.891C477.258 572.927 463.196 575.944 449.445 578.505C447.347 578.896 436.926 580.76 435.672 581.374C435.55 584.283 435.531 585.386 435.837 588.294C437.576 588.577 443.214 586.771 445.464 586.36C453.086 584.968 488.063 576.744 493.265 577.828C477.382 581.359 460.703 583.466 444.848 587.468C441.264 588.373 438.737 587.686 435.692 590.374C434.912 592.256 435.083 591.283 435.322 593.428L435.93 593.943C441.73 593.278 449.352 590.977 455.36 589.895C469.899 587.279 487.934 582.846 502.42 581.353L503.164 581.754C527.334 578.519 552.197 572.676 576.407 569.208C577.666 569.027 576.196 569.031 577.593 569.08C577.927 570.789 578.927 574.216 578.523 575.556C574.493 576.719 570.744 576.564 566.894 577.32C549.71 580.692 531.958 583.021 514.681 586.255C511.818 586.791 500.659 588.363 498.753 589.165L498.513 589.762C490.731 591.117 441.749 599.085 437.905 603.169C437.536 603.561 437.44 603.873 437.243 604.333L437.554 605.611C439.32 606.662 441.831 605.701 444.144 605.208L445.102 605.8C442.601 606.441 440.896 606.303 439.361 607.8C438.792 617.546 443.029 611.758 446.594 612.845C444.874 613.453 441.675 614.691 440.008 614.996C437.034 614.537 435.801 616.213 434.547 618.509C432.642 618.937 429.66 619.155 428.562 620.35L428.057 620.504C416.477 623.258 398.704 627.259 386.994 628.703L386.882 627.947C392.962 626.957 423.615 621.593 426.42 619.01C427.174 618.316 427.184 618.256 427.253 617.197C426.03 616.18 424.053 615.931 422.509 616.228C410.451 618.551 398.392 620.963 386.274 622.989L385.607 622.325L386.515 622.071C391.435 620.731 424.895 615.986 426.007 613.999C426.436 613.233 426.449 612.946 426.387 612.107C424.202 610.001 420.775 611.122 418.012 611.68C408.263 613.65 398.484 615.392 388.695 617.155L333.251 626.875C317.744 629.603 299.824 632.909 284.305 634.754C283.659 632.164 283.46 631.505 283.485 628.863C291.068 627.128 299.065 625.911 306.758 624.464C344.893 617.292 382.913 609.415 421.341 603.927C422.863 603.709 423.6 603.569 424.611 602.535C424.361 600.689 424.738 601.468 423.417 600.127C416.044 597.746 301.718 621.727 282.572 623.707C281.92 621.62 281.701 619.36 281.393 617.181C291.929 614.83 302.753 613.156 313.334 610.908C348.493 603.439 384.115 598.986 419.194 591.16C420.367 590.898 421.25 590.413 421.988 589.477C422.004 588.177 421.891 588.196 421.296 587.006C418.757 586.023 396.24 591.347 391.821 592.116L280.363 612.564C279.464 609.611 278.477 606.768 278.028 603.721C290.675 602.242 305.367 599.196 318.004 597.025L380.75 586.211C393.405 583.953 406.803 581.23 419.409 579.229C420.484 578.094 420.445 578.199 420.751 576.671L420.121 575.841C416.929 574.745 409.863 576.705 406.306 577.312L380.126 581.892L316.197 592.93C303.615 595.077 289.897 597.64 277.331 599.282C276.192 597.406 275.758 592.448 275.413 589.986C307.887 585.154 340.273 579.876 372.632 574.333L400.748 569.505C405.075 568.766 417.339 567.81 419.479 564.171L418.849 563.466C417.129 563.035 415.707 562.942 413.934 563.201C367.594 569.961 321.245 579.882 274.71 585.188C274.045 582.482 274 579.923 273.848 577.153C280.754 576.758 292.936 574.572 300.156 573.466L351.045 565.324C371.196 561.972 391.473 559.143 411.675 556.1C413.033 555.895 414.808 555.413 415.913 554.538C417.134 553.572 416.893 552.155 417.004 550.578Z" fill="#CFBAF0"/>
<path d="M397.397 553.797C403.711 553.111 410.818 551.946 417.002 550.578C416.891 552.155 417.132 553.572 415.911 554.538C414.806 555.413 413.031 555.895 411.673 556.1C391.471 559.143 371.194 561.972 351.043 565.324L300.154 573.466C292.934 574.572 280.752 576.758 273.846 577.153C273.602 575.15 273.239 574.258 274.162 572.867C280.802 571.244 296.592 569.672 304.717 568.393L366.301 558.507C376.671 556.874 387.082 555.744 397.397 553.797Z" fill="#72847D"/>
<path d="M809.758 551.152L810.162 553.52C812.407 564.086 813.07 575.608 814.837 586.387L814.958 591.317L814.063 588.876C813.354 590.076 813.546 589.625 813.259 590.988C812.812 588.352 812.355 585.009 811.645 582.487C810.484 572.769 809.109 562.624 807.693 552.945L807.716 552.332C809.025 551.863 808.609 552.034 809.758 551.152Z" fill="#7FC096"/>
<path d="M450.776 572.869C466.986 570.442 484.775 566.576 501.295 563.844L554.213 555.061C558.339 554.334 571.416 552.302 574.712 550.914L576.21 551.494C576.809 553.082 577.106 553.449 576.636 555.082C574.022 557.782 565.768 557.812 561.373 558.747L509.245 567.112C505.619 567.686 492.949 569.194 490.155 570.242C476.005 572.447 450.181 577.694 434.998 580.345C434.73 580.167 434.463 579.989 434.196 579.811C433.803 578.288 433.532 577.809 434.023 576.31C439.065 574.79 445.256 574.357 450.776 572.869Z" fill="#72847D"/>
<path d="M596.61 577.486C594.327 577.834 595.255 578.111 593.612 577.119C592.637 575.327 592.803 576.238 592.944 574.322C593.229 574.018 593.515 573.714 593.8 573.41C623.115 567.75 695.318 555.505 719.347 551.671C721.668 551.389 720.773 551.059 722.307 552.119C723.167 554.125 723.069 553.134 722.761 555.182C721.434 556.485 716.386 556.789 714.133 557.159L688.089 561.515L596.61 577.486Z" fill="#727466"/>
<path d="M810.162 553.521C822.239 554.442 830.917 554.084 842.915 551.422C846.185 566.787 848.566 582.13 846.831 597.864C845.351 611.292 842.654 624.399 840.047 637.644C839.103 642.444 840.32 651.932 838.619 655.847C830.498 634.784 825.638 604.784 814.837 586.388C813.07 575.609 812.407 564.087 810.162 553.521Z" fill="#FBF8CC"/>
<path d="M798.465 553.373C801.423 552.897 804.678 552.972 807.694 552.945C809.11 562.624 810.485 572.769 811.646 582.487C809.318 581.699 803.289 572.653 800.796 569.906C800.179 568.018 798.791 555.951 798.465 553.373Z" fill="#FBF8CC"/>
<path d="M778.34 554.129C783.422 555.826 790.177 560.72 794.995 563.167L795.727 562.651C796.345 564.821 797.086 575.005 797.264 577.608C798.995 602.946 803.604 629.547 804.032 654.871C799.644 655.611 794.184 656.131 789.694 656.681C788.754 642.774 786.141 628.758 785.177 614.937C783.759 594.604 780.071 574.329 778.34 554.129Z" fill="#B9FBC0"/>
<path d="M490.154 570.245C492.948 569.197 505.618 567.689 509.244 567.115L561.372 558.75C566.323 559.741 573.652 556.038 576.909 558.169C578.183 560.173 577.771 560.836 577.007 562.969C574.821 563.444 571.515 563.689 569.701 564.251L569.522 564.816C563.718 566.194 555.762 567.289 549.764 568.288L517 573.805C512.299 574.604 497.325 577.851 493.264 577.829C488.062 576.745 453.085 584.969 445.463 586.361C443.213 586.772 437.575 588.578 435.836 588.295C435.53 585.387 435.549 584.284 435.671 581.375C436.925 580.761 447.346 578.897 449.444 578.506C463.195 575.945 477.257 572.928 491.089 570.892L490.154 570.245Z" fill="#ECDBE5"/>
<path d="M775.191 556.535C776.631 569.445 777.555 582.581 778.896 595.506C779.495 601.29 779.677 608.07 780.415 613.705C777.93 611.147 770.157 605.676 766.914 603.347C778.308 585.396 771.988 562.054 775.191 556.535Z" fill="#B9FBC0"/>
<path d="M274.709 585.189C321.244 579.883 367.593 569.962 413.933 563.202C415.706 562.943 417.128 563.036 418.848 563.467L419.478 564.172C417.338 567.811 405.074 568.767 400.747 569.506L372.631 574.334C340.272 579.877 307.886 585.155 275.412 589.987L274.709 585.189Z" fill="#72847D"/>
<path d="M598.108 590.551C596.544 590.834 597.252 590.949 595.896 590.315C594.857 588.21 595.006 589.263 595.24 587.075C596.663 585.598 605.13 584.29 607.726 583.779C645.509 576.339 683.705 568.859 721.785 563.169C723.937 562.909 723.049 562.633 724.623 563.712C725.338 565.296 725.289 564.52 724.916 566.106C723.731 567.248 721.858 567.555 720.244 567.827C679.372 574.704 638.756 582.463 598.108 590.551Z" fill="#727466"/>
<path d="M493.265 577.828C497.326 577.85 512.3 574.603 517.001 573.804L549.765 568.287C555.763 567.288 563.719 566.193 569.523 564.815C571.991 564.552 575.941 563.447 577.62 564.103C578.657 565.372 578.496 565.647 578.58 567.296L578.067 568.206C574 569.177 565.177 570.328 560.644 571.111L520.803 577.995C517.601 578.546 504.649 580.569 502.42 581.353C487.934 582.846 469.899 587.279 455.36 589.895C449.352 590.977 441.73 593.278 435.93 593.943L435.322 593.428C435.083 591.283 434.912 592.256 435.692 590.374C438.737 587.686 441.264 588.373 444.848 587.468C460.703 583.466 477.382 581.359 493.265 577.828Z" fill="#72847D"/>
<path d="M800.795 569.906C803.288 572.653 809.317 581.699 811.645 582.487C812.355 585.009 812.812 588.352 813.259 590.988C815.021 600.883 816.401 612.728 817.925 622.765C818.863 628.947 822.7 648.452 822.452 653.164C819.942 652.789 810.994 654.068 808.07 654.415C806.487 632.751 805.216 611.153 802.602 589.57C801.817 583.082 801.155 576.424 800.795 569.906Z" fill="#B9FBC0"/>
<path d="M601.94 601.361C600.173 601.647 598.996 602.102 597.7 601.321C597.506 599.661 597.129 599.149 597.782 597.979C601.571 596.623 608.369 595.617 612.515 594.847L635.479 590.534C665.098 584.926 693.704 579.178 723.582 574.677C725.903 574.375 724.904 574.144 726.764 574.957C727.675 576.497 727.593 575.732 727.261 577.291C725.166 579.388 711.627 581.13 707.962 581.793L674.817 587.797C650.428 592.19 626.386 597.157 601.94 601.361Z" fill="#727466"/>
<path d="M277.33 599.284C289.896 597.642 303.614 595.079 316.196 592.932L380.125 581.894L406.305 577.314C409.862 576.707 416.928 574.747 420.12 575.843L420.75 576.673C420.444 578.201 420.483 578.096 419.408 579.231C406.802 581.232 393.404 583.955 380.749 586.213L318.003 597.027C305.366 599.198 290.674 602.244 278.027 603.723C277.723 602.272 277.542 600.757 277.33 599.284Z" fill="#72847D"/>
<path d="M498.512 589.761C501.497 589.617 514.071 587.191 517.417 586.608L557.326 579.88C563.337 578.889 573.602 576.901 579.416 576.527C580.741 577.526 580.431 577.965 580.945 580.051C579.525 581.555 579.221 581.322 577.066 581.717C533.485 589.704 487.072 594.512 444.143 605.207C441.83 605.7 439.319 606.661 437.553 605.61L437.242 604.332C437.439 603.872 437.535 603.56 437.904 603.168C441.748 599.084 490.73 591.116 498.512 589.761Z" fill="url(#paint1_linear_2293_128203)"/>
<path d="M580.945 580.051C581.034 582.571 581.566 587.206 582.197 589.656C545.765 595.278 509.359 600.757 473.079 607.33C464.066 608.963 455.486 611.104 446.593 612.844C443.028 611.757 438.791 617.545 439.36 607.799C440.895 606.302 442.6 606.44 445.101 605.799L444.143 605.207C487.072 594.512 533.485 589.704 577.066 581.717C579.221 581.322 579.525 581.555 580.945 580.051Z" fill="url(#paint2_linear_2293_128203)"/>
<path d="M119.009 588.173C118.23 585.236 119.926 582.612 121.225 579.871C121.532 581.857 119.747 586.077 119.009 588.173Z" fill="#FFEDE1"/>
<path d="M601.628 613.373C601.264 613.445 600.453 613.357 600.037 613.332C598.797 611.655 598.764 611.094 599.551 609.31C603.728 608.18 607.839 607.469 612.091 606.676C650.396 599.531 688.725 591.832 727.294 586.184C728.882 585.991 728.196 585.794 729.433 586.735C730.182 588.656 730.132 587.722 729.752 589.624C729.419 589.901 729.086 590.179 728.753 590.457C720.802 591.622 710.007 593.501 702.48 594.84L601.628 613.373Z" fill="#727466"/>
<path d="M280.361 612.565L391.819 592.117C396.238 591.348 418.755 586.024 421.294 587.007C421.889 588.197 422.002 588.178 421.986 589.478C421.248 590.414 420.365 590.899 419.192 591.161C384.113 598.987 348.491 603.44 313.332 610.909C302.751 613.157 291.927 614.831 281.391 617.182L280.361 612.565Z" fill="#72847D"/>
<path d="M814.836 586.387C825.637 604.783 830.497 634.783 838.618 655.846C840.701 665.91 843.334 678.2 843.452 688.517C843.825 721.096 830.801 755.204 813.391 782.307C797.109 807.655 770.793 828.864 742.747 839.549C734.61 842.649 725.848 844.529 717.315 846.255L646.697 860.263C642.593 861.078 626.266 863.498 624.04 864.782L619.044 863.608L619.158 862.871L618.247 862.268C616.09 859.374 613.428 852.206 611.824 848.524C609.127 842.33 607.255 838.47 603.525 832.941C584.794 805.178 560.675 815.1 535.565 810.29L533.523 809.577C544.02 786.188 543.065 748.207 541.952 723.139C589.5 718.344 637.265 713.985 684.886 709.989C726.926 706.461 768.425 702.703 810.123 696.262C809.706 683.615 808.545 670.852 808.478 658.189C811.201 657.817 822.876 656.519 824.176 655.368C824.083 653.195 823.686 650.441 823.361 648.27C820.517 629.29 817.606 610.326 814.957 591.317L814.836 586.387Z" fill="#B9FBC0"/>
<path d="M813.26 590.987C813.547 589.624 813.355 590.075 814.064 588.875L814.959 591.316C817.608 610.325 820.519 629.289 823.363 648.269C823.688 650.44 824.085 653.194 824.178 655.367L822.453 653.163C822.701 648.451 818.864 628.946 817.926 622.764C816.402 612.727 815.022 600.882 813.26 590.987Z" fill="#68A070"/>
<path d="M446.594 612.844C455.487 611.104 464.067 608.963 473.08 607.33C509.36 600.757 545.766 595.278 582.198 589.656C582.468 591.013 582.722 592.202 582.872 593.585C582.582 593.84 582.292 594.095 582.003 594.349C549.312 599.545 516.581 604.329 484.016 610.311C480.838 610.895 477.384 611.189 474.275 612.003C463.08 613.27 451.121 616.734 440.193 618.064L440.008 614.995C441.675 614.69 444.874 613.452 446.594 612.844Z" fill="#727466"/>
<path d="M582.87 593.586C583.175 595.693 583.787 600.482 584.314 602.345C558.613 605.656 532.775 610.629 507.143 614.412C498.425 615.699 485.79 618.467 477.404 619.24C481.031 617.07 497.786 615.097 502.901 614.208C518.604 611.475 534.726 609.238 550.386 606.377C553.967 605.722 566.381 604.672 569.08 603.461C569.741 601.269 570.048 599.34 568.731 597.303C559.828 598.994 476.284 612.452 474.273 612.004C477.382 611.19 480.836 610.896 484.014 610.312C516.579 604.33 549.31 599.546 582.001 594.35C582.29 594.096 582.58 593.841 582.87 593.586Z" fill="#FBF8CC"/>
<path d="M602.461 625.838C601.546 625.511 601.738 625.347 600.938 624.278C601.202 622.08 601.928 621.154 604.353 620.693C608.372 619.928 612.4 619.237 616.424 618.473L644.021 613.24L730.65 597.176C732.357 597.326 731.848 600.233 731.482 601.297C730.792 601.879 730.492 602.163 729.531 602.316C715.887 604.491 702.235 606.984 688.643 609.454L602.461 625.838Z" fill="#727466"/>
<path d="M282.57 623.707C301.716 621.727 416.042 597.746 423.415 600.127C424.736 601.468 424.359 600.689 424.609 602.535C423.598 603.569 422.861 603.709 421.339 603.927C382.911 609.415 344.891 617.292 306.756 624.464C299.063 625.911 291.066 627.128 283.483 628.863L282.57 623.707Z" fill="#72847D"/>
<path d="M477.406 619.239C485.792 618.466 498.427 615.698 507.145 614.411C532.777 610.628 558.615 605.655 584.316 602.344L585.49 606.05C583.439 607.783 560.992 610.594 557.009 611.21L502.664 619.922C498.205 620.618 483.786 622.42 480.151 623.737C468.127 625.664 454.523 628.549 442.806 630.205C442.425 628.589 442.373 628.082 442.221 626.481C443.448 624.726 472.453 620.32 477.406 619.239Z" fill="#727466"/>
<path d="M765.301 606.061C765.614 604.878 766.169 604.341 766.914 603.348C770.157 605.677 777.93 611.148 780.415 613.706L780.722 618.117C779.108 618.34 777.625 616.14 776.305 614.871C772.795 611.499 769.302 608.803 765.301 606.061Z" fill="#FBF8CC"/>
<path d="M585.489 606.051C585.726 608.166 586.101 612.335 586.607 614.225C555.526 620.001 524.412 624.904 493.141 629.479C489.767 629.973 486.26 630.712 482.885 631.057L482.2 630.588C479.364 630.707 476.207 629.492 477.285 625.73C477.628 624.531 479.957 624.519 481.214 624.282L480.15 623.738C483.785 622.421 498.204 620.619 502.663 619.923L557.008 611.211C560.991 610.595 583.438 607.784 585.489 606.051Z" fill="url(#paint3_linear_2293_128203)"/>
<path d="M765.302 606.059C769.303 608.801 772.795 611.497 776.305 614.869C777.625 616.138 779.108 618.338 780.722 618.115C781.503 622.705 781.578 627.187 782.49 631.844C769.693 632.865 755.932 635.081 743.217 637.26C690.551 646.285 638.095 656.473 585.208 664.234C566.43 666.99 547.455 670.471 528.617 672.705C527.533 669.149 522.955 657.069 520.105 654.71C523.301 653.784 540.809 651.226 544.897 650.618C559.901 648.386 575.569 645.365 590.521 643.401L590.646 645.507C592.459 646.881 602.277 645.845 604.186 644.892C606.802 642.541 612.816 640.825 616.238 639.938L615.057 639.933C617.99 638.701 618.614 639.91 621.479 637.864C622.938 637.357 633.686 636.498 636.212 636.183C659.928 633.224 682.789 630.44 706.444 626.757C708.238 627.576 711.275 627.609 713.237 627.336C737.117 624.011 749.213 625.69 765.302 606.059Z" fill="#B9FBC0"/>
<path d="M706.444 626.757C682.789 630.44 659.928 633.224 636.212 636.183C633.686 636.498 622.937 637.357 621.478 637.864C615.617 638.297 609.922 638.965 604.088 639.629L603.123 633.592C646.208 625.636 688.817 615.7 731.947 608.039C732.308 608.264 732.669 608.489 733.031 608.713C733.665 610.396 733.571 609.55 733.29 611.35C731.614 612.917 718.954 614.593 715.462 615.296L648.602 629.114C645.27 629.527 639.908 630.356 636.703 631.332C639.532 631.539 648.695 630.845 651.605 630.263C660.68 628.397 732.834 618.115 735.472 619.845C735.689 621.451 735.775 620.652 734.928 622.273C733.051 623.882 710.459 626.22 706.444 626.757Z" fill="url(#paint4_linear_2293_128203)"/>
<path d="M385.607 622.325C375.103 623.521 288.198 640.219 285.272 638.426C284.82 636.985 284.613 636.271 284.305 634.754C299.824 632.909 317.744 629.603 333.251 626.875L388.695 617.155C398.484 615.392 408.263 613.65 418.012 611.68C420.775 611.122 424.202 610.001 426.387 612.107C426.449 612.946 426.436 613.233 426.007 613.999C424.895 615.986 391.435 620.731 386.515 622.071L385.607 622.325Z" fill="#72847D"/>
<path d="M851.751 613.387C852.365 618.212 848.825 624.267 849.593 631.019C850.486 627.769 852.051 615.622 853.734 614.267L853.916 614.283C849.701 630.576 848.366 650.62 856.94 665.585C868.575 685.894 869.761 699.376 865.409 722.073C860.2 749.244 851.339 776.456 834.577 798.974C823.49 812.939 807.836 825.706 792.728 834.782C778.495 843.332 759.136 851.526 742.617 852.751C721.79 854.297 707.027 858.105 687.45 865.238C668.168 872.264 642.299 873.805 622.563 866.866C620.979 866.367 619.778 866.229 618.824 864.94L619.044 863.609L624.04 864.783C659.44 873.697 679.967 864.395 712.753 854.196C720.536 852.586 729.218 850.906 737.16 850.348C774 847.759 810.846 823.819 833.66 795.517C846.306 779.829 855.479 751.842 860.205 732.505C865.841 709.442 868.437 689.225 855.243 667.986C845.807 651.903 846.534 631.057 851.751 613.387Z" fill="#B9FBC0"/>
<path d="M482.886 631.059C486.261 630.714 489.768 629.975 493.142 629.481C524.413 624.906 555.527 620.003 586.608 614.227C587.123 616.6 587.605 616.921 586.972 618.878C584.859 619.858 582.556 619.905 581.664 620.338C555.995 623.206 529.602 629.69 503.842 632.622C501.161 632.927 487.628 634.638 486.112 635.295C477.294 636.258 467.937 638.286 459.128 639.673C454.59 640.388 449.962 641.593 445.382 641.777C444.318 640.653 444.096 639.178 444.481 637.665C456.918 635.233 470.756 633.765 482.886 631.059Z" fill="#727466"/>
<path d="M428.561 620.352C429.659 619.157 432.641 618.939 434.546 618.511C435.8 616.215 437.033 614.539 440.007 614.998L440.192 618.067C437.357 619.149 431.526 620.532 428.561 620.352Z" fill="#A3C4F3"/>
<path d="M486.111 635.292C487.627 634.635 501.16 632.924 503.841 632.619C529.601 629.687 555.994 623.203 581.663 620.335L582.321 620.906C583.677 620.66 584.779 620.475 586.163 620.32C587.67 621.685 587.759 625.029 586.635 626.665L586.006 626.737C584.016 626.986 583.541 626.881 582.074 628.055C573.087 630.176 559.274 631.751 549.766 633.267L489.889 642.927L489.813 642.362C483.074 642.919 449.137 649.451 446.892 648.229C446.538 646.311 446.175 644.603 445.725 642.704C449.752 642.46 455.018 641.135 459.241 640.426L486.805 635.855L486.111 635.292Z" fill="#CFF8E1"/>
<path d="M386.993 628.703C398.703 627.259 416.476 623.258 428.056 620.504C428.595 622.605 429.081 622.81 428.319 624.219C418.439 627.493 290.152 651.752 287.215 650.314C286.889 648.221 286.658 648.715 287.367 647.03C289.695 645.725 302.352 643.769 305.562 643.227L363.801 633.369C368.065 632.605 383.933 629.92 386.993 628.703Z" fill="#72847D"/>
<path d="M442.805 630.206C454.522 628.55 468.126 625.665 480.15 623.738L481.214 624.282C479.957 624.519 477.628 624.531 477.285 625.73C476.207 629.492 479.364 630.707 482.2 630.588L482.885 631.057C470.755 633.763 456.917 635.231 444.48 637.663C444.268 634.839 444.072 632.731 442.805 630.206Z" fill="#8EECF5"/>
<path d="M489.888 642.928L549.765 633.269C559.273 631.753 573.086 630.178 582.073 628.057C583.905 627.81 587.342 626.936 588.715 627.67C589.672 629.018 589.474 629.924 589.471 631.599C570.441 634.829 551.314 637.841 532.253 640.871C528.774 641.424 508.727 644.024 506.659 644.738C487.17 647.762 467.013 651.05 447.606 654.544C447.208 652.488 446.783 651.631 447.402 649.897C450.568 649.004 458.618 647.928 462.331 647.336L489.888 642.928Z" fill="#727466"/>
<path d="M651.605 630.262C648.695 630.844 639.532 631.538 636.703 631.331C639.908 630.355 645.27 629.526 648.602 629.113C649.756 629.642 650.364 629.994 651.605 630.262Z" fill="#B3C494"/>
<path d="M291.612 661.984C290.17 662.283 290.189 662.395 288.808 661.991C287.566 660.351 287.827 661.232 287.824 659.314C289.763 657.132 308.491 654.512 312.912 653.732L355.828 646.128C379.27 641.876 403.804 636.351 427.276 631.623C429.249 631.356 429.284 631.323 430.612 632.556C430.83 634.049 430.957 633.35 430.113 634.699C427.327 636.382 404.754 640.32 400.28 641.292C364.212 649.133 327.929 655.401 291.612 661.984Z" fill="#72847D"/>
<path d="M506.659 644.738C508.727 644.024 528.774 641.424 532.253 640.871C551.314 637.841 570.441 634.828 589.471 631.598C589.6 633.968 589.771 636.134 589.991 638.494C571.556 641.883 552.807 644.782 534.313 647.878C531.308 648.381 513.26 651.511 511.21 651.46C507.984 650.304 492.446 654.365 488.057 654.561C486.271 654.64 481.921 654.746 480.491 655.769C479.373 656.569 479.101 657.03 477.893 655.847C476.499 646.253 500.135 647.824 507.692 645.116L506.659 644.738Z" fill="#CFF8E1"/>
<path d="M531.42 676.528C597.673 666.656 663.649 656.593 729.499 644.205C747.298 640.857 765.514 638.813 783.286 635.426C784.23 641.826 785.292 650.711 785.631 657.185C734.817 664.162 683.758 672.183 633.002 679.734C600.95 684.502 568.286 687.753 536.338 692.654C534.181 686.708 534.493 682.502 531.42 676.528Z" fill="#B9FBC0"/>
<path d="M98.0847 640.092C98.5198 638.853 98.6964 638.066 99.5252 637.031C100.907 637.509 101.507 638.638 102.116 640.04C105.909 648.772 109.151 659.284 113.937 667.487L114.28 667.611L114.901 665.967C118.287 697.976 132.574 720.331 149.106 746.547C176.522 790.022 201.74 826.279 247.461 852.117L246.029 852.054C235.794 851.528 226.999 848.869 217.238 846.589C181.848 838.325 147.733 821.715 123.194 794.272C95.986 763.844 86.2782 725.915 91.724 685.787C93.6334 671.717 97.3079 653.759 98.0847 640.092Z" fill="#FFEDE1"/>
<path d="M604.088 639.628C609.922 638.964 615.617 638.296 621.478 637.863C618.613 639.909 617.99 638.7 615.057 639.932L616.238 639.937C612.816 640.824 606.802 642.54 604.186 644.891C604.262 643.284 604.138 641.266 604.088 639.628Z" fill="#FBF8CC"/>
<path d="M511.211 651.458C513.261 651.509 531.309 648.379 534.314 647.876C552.808 644.78 571.557 641.881 589.992 638.492C590.281 640.367 590.478 641.516 590.52 643.399C575.568 645.363 559.901 648.384 544.897 650.616C540.809 651.224 523.301 653.782 520.105 654.708C511.671 655.886 452.266 666.502 449.91 665.656C449.34 664.069 449.409 663.869 449.32 662.224C452.597 661.785 456.268 661.123 459.519 660.501C476.599 657.236 494.222 655.025 511.211 651.458Z" fill="#72847D"/>
<path d="M290.14 672.715C289.253 671.629 288.888 670.307 289.236 668.938C290.334 667.825 291.171 667.603 292.714 667.33L431.559 642.719C432.459 643.334 432.729 644.501 432.617 645.52C431.195 647.55 423.482 648.445 420.817 649.006L398.844 653.574C362.407 660.977 326.321 665.96 290.14 672.715Z" fill="#72847D"/>
<path d="M447.607 654.543C467.014 651.049 487.171 647.762 506.66 644.738L507.693 645.116C500.136 647.824 476.5 646.253 477.894 655.847C479.102 657.03 479.374 656.569 480.492 655.769C481.922 654.746 486.272 654.64 488.058 654.561C492.447 654.365 507.985 650.304 511.211 651.46C494.222 655.027 476.599 657.238 459.519 660.503C456.268 661.125 452.597 661.787 449.32 662.226C448.715 660.275 448.274 656.958 447.607 654.543Z" fill="#8EECF5"/>
<path d="M291.383 681.781C290.522 681.42 290.766 681.335 290.068 680.229C290.192 678.912 290.136 678.989 290.913 677.928C295.291 675.49 417.955 655.257 433.63 653.242C434.787 653.818 434.35 653.379 434.911 654.588L434.218 653.602L434.754 655.089C434.155 656.326 432.99 657.022 431.637 657.28C391.252 665.001 350.6 671.019 310.116 678.166C303.9 679.263 297.524 680.345 291.383 681.781Z" fill="#72847D"/>
<path d="M539.455 712.047C594.7 707.876 649.144 701.545 704.012 693.829C733.23 689.721 763.683 686.57 792.677 681.305C791.878 674.794 790.863 667.628 790.328 661.145L804.169 659.008L805.557 693.296C743.938 700.936 682.414 705.858 620.551 711.215C594.797 713.444 565.526 717.499 540.204 718.974C539.729 716.39 539.622 714.632 539.455 712.047Z" fill="#B9FBC0"/>
<path d="M537.379 697.267C571.726 691.471 609.906 687.169 644.858 682.097L714.997 672.105C738.465 668.589 762.854 664.56 786.394 661.754C786.896 667.2 787.351 672.73 787.994 678.155C704.22 688.326 622.509 701.778 538.059 707.863L537.379 697.267Z" fill="#B9FBC0"/>
<path d="M293.64 691.275C291.979 691.377 292.624 691.661 291.515 690.783C291.059 689.052 291.005 689.877 291.677 688.221C293.521 686.597 306.456 684.945 309.802 684.39L341.346 679.129L434.761 663.684C435.831 663.652 435.285 663.571 436.414 664.609C436.86 666.504 436.991 665.663 436.324 667.241C434.901 668.328 406.303 672.592 402.128 673.305L293.64 691.275Z" fill="#72847D"/>
<path d="M255.113 716.64C260.599 715.443 270.861 714.365 276.747 713.493L321.383 706.741C353.696 702.029 387.106 696.429 419.275 692.184L488.664 682.806C502.232 680.94 517.984 679.061 531.42 676.527C534.493 682.501 534.181 686.707 536.338 692.653C444.084 703.545 349.752 718.828 257.77 732.979C256.726 728.16 255.889 721.637 255.113 716.64Z" fill="url(#paint5_linear_2293_128203)"/>
<path d="M418.463 712.798C458.312 706.812 497.516 702.224 537.379 697.266L538.059 707.862C502.793 709.283 457.23 715.14 422.813 721.006C421.978 718.787 419.695 714.954 418.463 712.798Z" fill="#8EECF5"/>
<path d="M289.775 754.769C305.843 751.887 322.732 748.485 338.6 744.606C358.384 739.771 377.894 734.161 397.901 730.082C444.276 720.625 492.253 715.181 539.455 712.047C539.622 714.632 539.729 716.39 540.204 718.974C530.141 719.318 514.072 721.69 503.482 722.561C465.609 725.676 432.071 730.097 395.309 739.886C359.607 749.393 328.066 763.911 291.325 766.878L289.775 754.769Z" fill="url(#paint6_linear_2293_128203)"/>
<path d="M273.881 734.784C286.282 733.631 306.2 729.783 319.063 727.819L418.462 712.801C419.694 714.957 421.977 718.79 422.812 721.009C393.132 725.922 365.763 733.344 336.773 740.659C317.258 745.583 296.408 749.188 276.522 752.224C275.283 746.544 274.631 740.563 273.881 734.784Z" fill="#90DBF4"/>
<path d="M430.055 736.324C460.613 729.13 509.295 726.417 541.954 723.141C543.067 748.209 544.022 786.19 533.525 809.579C529.456 808.108 519.175 806.018 514.883 805.92C513.576 805.303 512.308 805.126 510.892 804.83C509.458 801.827 494.027 796.354 489.971 794.091C462.532 778.775 448.107 761.678 430.055 736.324Z" fill="url(#paint7_linear_2293_128203)"/>
<path d="M510.891 804.828C512.307 805.124 513.575 805.301 514.882 805.918C517.491 812.657 520.967 824.596 524.477 829.902C523.307 832.558 522.581 834.544 520.836 836.887L513.732 833.642C511.862 824.545 511.484 814.182 510.891 804.828Z" fill="#8EECF5"/>
<path d="M514.883 805.918C519.175 806.016 529.456 808.106 533.525 809.577C531.072 815.271 527.35 824.806 524.478 829.902C520.968 824.596 517.492 812.657 514.883 805.918Z" fill="#98F5E1"/>
<path d="M535.567 810.289C560.677 815.099 584.796 805.177 603.527 832.94C607.257 838.469 609.129 842.329 611.826 848.523C613.43 852.205 616.092 859.373 618.249 862.267C607.082 861.264 591.855 857.005 580.985 854.042L538.026 842.022C535.609 833.846 535.496 819.09 535.567 810.289Z" fill="#FBF8CC"/>
<path d="M272.494 862.678C276.382 864.907 286.967 865.515 291.804 866.083C346.15 872.468 378.828 825.873 431.466 821.279C465.236 818.332 482.614 822.548 513.732 833.641L520.836 836.886C504.167 866.139 468.29 896.714 435.322 905.72C384.683 919.553 326.128 896.121 282.066 872.02C278.84 870.256 267.685 863.525 265.5 861.249L272.494 862.678Z" fill="#A3C4F3"/>
<path d="M538.025 842.023L580.984 854.043C591.854 857.006 607.081 861.265 618.248 862.268L619.159 862.871L619.045 863.608L618.825 864.939C619.779 866.228 620.98 866.366 622.564 866.865C614.401 886.392 586.064 889.341 568.907 881.262C549.294 872.026 545.11 861.008 538.025 842.023Z" fill="#FFEDE1"/>
<defs>
<linearGradient id="paint0_linear_2293_128203" x1="591.268" y1="443.969" x2="478.286" y2="447.635" gradientUnits="userSpaceOnUse">
<stop stop-color="#4E4C51"/>
<stop offset="1" stop-color="#335152"/>
</linearGradient>
<linearGradient id="paint1_linear_2293_128203" x1="508.093" y1="582.75" x2="509.393" y2="599.557" gradientUnits="userSpaceOnUse">
<stop stop-color="#7A7967"/>
<stop offset="1" stop-color="#5D7B77"/>
</linearGradient>
<linearGradient id="paint2_linear_2293_128203" x1="509.998" y1="580.981" x2="509.51" y2="614.509" gradientUnits="userSpaceOnUse">
<stop stop-color="#C6DEB3"/>
<stop offset="1" stop-color="#DDD7D2"/>
</linearGradient>
<linearGradient id="paint3_linear_2293_128203" x1="584.51" y1="607.546" x2="477.882" y2="630.585" gradientUnits="userSpaceOnUse">
<stop stop-color="#DFDAB3"/>
<stop offset="1" stop-color="#AAEAD1"/>
</linearGradient>
<linearGradient id="paint4_linear_2293_128203" x1="657.964" y1="604.719" x2="682.79" y2="650.047" gradientUnits="userSpaceOnUse">
<stop stop-color="#657364"/>
<stop offset="1" stop-color="#7F9064"/>
</linearGradient>
<linearGradient id="paint5_linear_2293_128203" x1="488.868" y1="763.942" x2="301.206" y2="645.733" gradientUnits="userSpaceOnUse">
<stop stop-color="#95F4EA"/>
<stop offset="1" stop-color="#ABE3FE"/>
</linearGradient>
<linearGradient id="paint6_linear_2293_128203" x1="428.476" y1="768.381" x2="399.667" y2="705.468" gradientUnits="userSpaceOnUse">
<stop stop-color="#87F6EA"/>
<stop offset="1" stop-color="#B2E7F8"/>
</linearGradient>
<linearGradient id="paint7_linear_2293_128203" x1="548.015" y1="772.942" x2="437.426" y2="725.114" gradientUnits="userSpaceOnUse">
<stop stop-color="#83FED7"/>
<stop offset="1" stop-color="#A0ECFF"/>
</linearGradient>
</defs>
</svg>
