<svg width="1024" height="1024" viewBox="0 0 1024 1024" fill="none" xmlns="http://www.w3.org/2000/svg">
<path d="M178.424 279.64C173.872 264.135 171.076 233.847 172.554 217.8C174.106 200.943 179.658 180.287 186.121 164.462C187.238 161.729 190.384 156.917 191.9 153.934C203.015 131.798 218.917 113.492 237.691 97.6312C302.953 42.495 400.589 54.3204 461.829 109.533C472.662 119.3 482.5 129.803 491.815 140.91C475.455 149.719 455.061 164.236 451.301 183.489C454.493 179.449 455.974 174.52 458.92 170.587C467.723 158.834 481.456 148.993 494.465 142.418C496.079 145.993 496.875 146.398 499.936 148.869C484.646 152.535 471.558 160.542 461.951 172.981C455.727 181.039 455.763 182.88 446.791 188.612C422.307 209.519 414.583 237.392 424.201 268.139C406.357 245.499 414.538 219.608 432.215 199.255C435.573 195.39 442.056 191.541 444.9 187.897C435.199 190.914 423.798 205.262 419.38 214.092C413.515 225.812 409.58 240.485 413.553 253.475C415.67 260.395 420.475 265.541 424.146 271.585C426.22 275 428.016 278.759 429.837 282.312C429.447 283.919 428.685 286.666 428.758 288.269C429.168 297.287 437.094 310.452 435.845 319.381C434.798 326.869 426.333 340.127 423.294 347.573C416.297 364.712 420.308 378.846 426.157 395.533C417.97 395.547 412.734 395.856 404.932 398.458C404.179 396.621 403.652 386.022 403.145 383.234C400.214 367.121 397.012 352.533 389.819 337.688C372.507 301.959 349.181 280.177 311.335 266.941C277.12 254.975 242.489 254.61 208.178 266.272C198.743 269.479 187.498 275.236 178.424 279.64ZM323.224 170.125C318.774 170.726 313.062 172.395 311.858 177.389C312.653 180.278 315.276 180.115 317.792 179.699C321.125 178.515 328.929 175.745 328.52 171.498C327.137 170.106 325.109 170.072 323.224 170.125ZM290.696 187.029C286.413 188.833 282.721 192.207 282.821 197.205C284.146 199.977 286.154 200.13 288.984 199.509C297.857 196.249 302.038 186.404 290.696 187.029ZM330.715 196.102C327.247 197.254 322.336 198.644 324.028 203.14C327.175 206.123 329.6 205.739 333.812 205.474C336.937 204.581 338.381 204.398 340.159 201.767C340.975 196.444 334.594 195.849 330.715 196.102ZM258.666 200.534C254.931 201.468 249.355 203.835 249.09 208.365C250.4 210.296 251.819 209.634 253.94 209.245C256.606 208.158 264.68 204.689 262.756 201.203C260.88 200.422 260.749 200.477 258.666 200.534ZM310.51 207.29C307.919 209.768 305.856 213.337 308.819 216.416C309.8 216.623 309.956 216.768 310.908 216.68C312.665 214.365 314.461 212.463 314.357 209.487C313.254 207.526 312.876 207.49 310.51 207.29ZM343.51 221.515C339.486 222.668 334.146 224.375 334.513 229.41C335.501 230.629 334.911 230.099 336.76 230.595L337.69 230.347C340.774 228.54 344.736 226.415 346.908 223.594L347.067 222.485C345.843 221.502 345.388 221.553 343.51 221.515ZM292.314 224.981C290.846 227.822 288.22 234.777 291.474 236.972C292.443 236.798 292.83 236.787 293.745 236.445C295.763 233.51 298.722 228.214 295.528 225.275C294.125 225.048 293.726 224.985 292.314 224.981ZM251.662 228.17C249.568 236.252 256.206 243.512 264.939 241.734C271.017 231.001 257.98 230.831 251.662 228.17ZM325.27 233.81C322.287 238.087 319.747 241.152 324.979 245.087C328.201 242.495 329.566 237.999 327.576 234.253C326.455 233.719 326.523 233.773 325.27 233.81ZM294.888 252.114C291.881 253.579 289.694 254.312 290.325 258.135C292.519 260.154 293.771 259.683 296.62 259.005C299.278 257.964 302.069 256.996 301.391 253.661C299.262 251.459 297.801 251.951 294.888 252.114ZM331.537 255.364C328.627 257.699 326.13 263.002 331.079 263.822L331.547 263.652C333.717 261.609 337.066 259.254 334.905 256.23C333.243 255.477 333.351 255.494 331.537 255.364Z" fill="#FBF8CC"/>
<path d="M491.813 140.909C498.315 137.843 504.345 134.937 511.184 132.587C540.321 122.576 571.295 123.093 600.275 133.548C609.563 136.899 622.893 143.84 630.047 150.784C648.451 153.627 667.406 158.975 683.034 169.381C697.584 179.736 707.922 190.915 716.171 206.961C718.222 210.951 719.615 215.04 721.556 219.058C723.489 222.448 729.901 228.308 732.415 231.842C740.75 243.559 747.566 261.134 749.737 275.222C753.695 302.931 749.123 333.202 736.611 358.282C732.213 367.098 726.13 375.319 721.4 383.778C712.596 399.523 699.194 423.14 697.32 441.019C704.82 458.228 721.852 470.036 733.02 484.463C734.349 486.18 734.567 489.201 734.54 491.376L733.471 496.141C782.267 516.138 847.878 550.935 879.596 593.604C904.722 630.675 911.918 657.616 918.091 701.449C923.494 739.823 928.043 775.942 924.113 815.041C923.791 818.837 923.137 834.389 921.187 836.588L920.296 836.149C920.119 832.418 921.148 823.898 921.546 819.676C925.174 781.204 922.297 745.207 916.741 707.177C910.747 666.161 904.115 629.439 877.958 595.4C848.96 556.948 807.258 534.429 764.912 512.918C755.681 508.228 742.475 501.727 732.993 498.768C719.444 540.316 682.568 578.397 648.793 604.728C633.135 615.295 625.89 624.854 608.656 610.349C598.275 600.938 588.149 590.912 579.176 580.13C583.841 590.11 587.613 601.602 591.082 612.096C598.595 638.921 598.828 669.643 591.372 696.559C579.092 747.348 557.881 787.935 569.318 842.217C572.879 859.121 581.27 878.269 584.22 892.912C585.189 896.746 588.153 906.595 586.513 910.055L585.685 910.569C585.267 910.08 582.771 895.958 582.158 893.564C579.512 886.684 577.175 876.668 574.65 869.285C571.678 860.599 568.881 850.903 566.986 841.91C555.983 789.717 576.049 746.468 589.282 696.96C590.25 690.967 591.654 685.028 592.571 678.862C595.989 655.855 595.735 633.416 588.373 611.122C586.314 605.059 579.231 582.516 575.815 579.147C575.463 577.683 575.431 577.786 575.902 576.367C578.839 574.795 584.813 583.788 587.321 586.101C596.057 594.152 610.363 612.56 621.709 615.357C630.19 617.448 648.073 602.274 654.612 597.396C680.954 577.522 728.244 524.151 732.136 490.75C731.806 484.181 726.317 479.982 721.742 475.689C721.399 481.102 720.218 485.566 718.692 490.754C707.544 522.38 679.03 553.924 657.072 578.243C640.061 597.084 628.405 610.145 604.643 592.896C596.619 587.072 588.399 585.809 583.228 575.954C586.707 571.304 597.583 561.712 602.458 556.748C624.718 534.082 648.444 513.547 670.428 490.522C678.827 481.623 686.871 470.747 690.26 458.858C682.407 446.996 682.554 430.496 682.383 417.145C678.764 426.767 678.298 429.493 677.153 439.507C667.947 424.591 675.568 401.617 686.176 389.462C681.228 405.5 672.094 412.337 676.57 432.564C677.602 421.1 681.542 412.095 688.435 402.699C689.376 401.418 690.497 400.093 692.11 399.914L692.77 400.531L692.795 401.332C689.938 404.158 684.614 411.238 684.276 415.043C683.432 424.528 685.385 436.133 687.059 445.189C688.275 432.461 695.337 418.29 699.146 405.041L699.702 405.226C701.702 415.452 682.546 443.34 690.936 455.418C691.467 454.654 692.724 449.645 692.906 448.655C697.165 426.753 707.011 402.094 719.239 383.277C737.089 355.809 748.138 332.113 748.998 298.485C749.732 269.78 742.452 244.53 722.461 223.15C722.983 225.145 724.825 232.247 723.907 233.92C722.262 232.121 719.985 222.704 718.891 219.718C711.903 200.652 699.37 182.889 682.173 171.771C667.549 162.318 652.903 157.22 635.855 154.075C626.131 152.281 623.041 153.644 613.612 154.512C608.677 154.967 602.247 154.725 597.183 154.65C565.876 154.182 531.914 144.59 501.066 151.071C482.201 156.208 470.211 164.552 458.651 180.443C475.933 170.882 490.299 166.126 510.035 168.203C520.579 169.953 529.834 174.319 540.104 177.212C560.007 182.819 595.752 177.025 614.582 168.028C605.07 166.453 592.424 165.662 582.783 165.394C578.319 164.218 560.886 165.195 554.983 164.803L554.708 164.137C568.14 162.525 607.739 163.099 619.732 166.827L620.222 167.358C618.749 169.123 614.744 170.339 612.429 171.197C589.77 179.593 561.783 185.628 538.028 179.011C528.86 176.458 520.475 172.69 511.397 170.63C472.302 166.338 426.621 193.283 423.102 235.11C421.591 253.076 423.647 263.145 431.162 279.49C432.632 277.113 434.424 274.503 436.695 272.901C447.032 265.608 442.722 255.449 444.295 244.775C447.698 221.684 458.334 194.653 483 187.484C490.718 185.208 502.977 187.883 510.852 189.244C531.694 193.491 550.092 198.806 571.234 191.626C581.494 188.141 597.167 180.957 607.333 180.219L608.78 180.102C593.42 193.581 577.582 199.419 557.501 203.735C525.519 210.609 481.925 209.479 458.977 236.257C451.922 244.49 448.346 258.53 443.932 268.458C451.798 267.021 458.729 268.734 464.828 274.01C452.137 273.903 448.702 273.609 437.481 278.88C446.427 276.643 449.81 275.191 459.202 275.65C462.099 277.418 462.874 278.23 465.315 280.556L464.518 280.643C459.108 281.26 457.07 283.813 454.805 283.764C455.717 281.715 457.627 280.795 459.554 279.475C451.557 282.229 447.458 280.442 440.245 283.675C438.853 284.299 435.276 288.868 433.978 288.652C433.586 286.899 434.623 286.174 435.758 284.731C440.514 279.959 445.833 281.348 451.101 276.835C447.679 277.978 436.313 280.772 434.727 282.616L435.053 283.136L434.974 283.537C434.035 283.884 431.831 284.667 431.661 285.793C430.164 295.708 439.368 309.046 438.264 319.035C437.305 327.716 429.535 339.677 425.846 347.797C418.326 364.344 423.313 379.569 428.504 395.874C441.784 399.107 453.818 404.438 460.916 416.598C470.458 432.947 468.187 453.557 457.919 468.671C460.021 478.865 461.785 490.594 471.141 496.832C481.706 503.876 498.517 502.662 510.277 499.414C521.684 496.265 538.668 492.733 549.766 488.462C573.937 479.158 610.691 463.499 625.419 441.257C627.894 437.519 634.299 421.822 635.988 420.358L636.805 420.289C637.409 423.71 628.125 442.089 625.448 445.377C607.44 467.496 573.332 482.426 546.999 491.769C535.453 495.866 523.33 498.239 512.326 501.77C520.96 509.238 528.174 515.625 533.268 526.125C535.331 531.42 536.056 537.346 538.022 542.385C543.292 555.898 560.754 571.41 573.956 576.729L573.804 577.228C565.253 583.335 557.392 601.045 547.202 607.328C539.971 611.786 537.709 609.6 534.896 602.378C527.861 584.317 521.167 564.422 524.333 544.875C525.218 539.513 527.685 533.997 529.829 529.035C534.785 523.802 513.215 505.049 509.252 502.25C480.881 508.683 460.248 503.239 455.988 471.182C447.622 479.938 437.826 484.756 426.444 488.442C421.074 490.047 417.515 491.636 412.421 493.861C402.763 509.069 398.96 526.851 393.445 543.899C389.982 554.607 388.784 561.306 382.154 570.899C362.21 595.724 358.242 603.201 358.466 636.425C379.389 638.123 375.247 652.724 372.617 666.97C371.733 671.764 375.407 683.527 376.407 688.93C381.342 676.113 386.98 663.589 392.067 650.835C400.551 629.564 412.142 608.818 426.265 590.713C446.982 566.699 466.965 551.656 498.419 544.406C505.484 542.778 512.347 541.074 519.654 540.447C517.506 547.633 518.018 554.434 517.884 561.714C517.365 589.938 526.092 603.514 542.335 624.951C546.917 620.238 548.635 618.05 552.355 613.092C556.12 608.073 568.552 585.014 572.803 583.829C573.895 585.865 570.721 588.939 569.435 590.707C571.818 596.753 575.583 607.509 577.492 613.791C587.529 644.852 586.753 664.899 578.374 696.059C575.636 709.187 570.524 723.46 566.787 736.371C556.921 770.467 548.906 804.369 556.055 839.872C560.081 859.87 566.601 876.871 570.724 896.878C571.142 900.326 572.154 907.351 571.402 910.649L570.632 911.052L569.823 910.758C569.034 907.212 569.289 902.489 568.648 898.188C565.408 879.158 558.268 862.054 554.235 843.232C543.441 792.851 562.981 743.968 576.428 695.939C583.456 665.393 586.462 644.009 574.829 613.125C572.315 606.123 570.096 599.784 567.961 592.668C562.374 600.798 558.459 608.567 552.488 616.718C549.07 621.136 546.573 624.083 542.265 627.61C518.627 602.176 513.917 580.291 516.165 546.346C516.407 544.484 516.769 544.389 515.993 543.176C513.499 542.696 508.664 544.068 505.928 544.567C474.736 550.252 448.558 567.073 428.59 591.671C410.806 613.726 398.866 639.032 388.612 665.187C385.362 673.476 381.119 682.302 378.116 690.529C376.912 695.266 376.61 696.612 377.464 701.605L377.711 702.445C379.952 709.933 383.66 717.536 386.213 725.113C389.873 735.977 390.215 744.777 391.748 755.856C392.426 764.272 393.287 773.191 393.567 781.583C408.967 798.559 409.863 831.125 406.837 852.491C406.633 853.934 406.654 854.689 405.521 855.561C404.849 855.254 404.308 855.169 404.405 854.131C406.75 828.876 407.593 807.88 393.756 785.253C393.781 793.251 392.928 841.831 388.868 846.385L388.001 846.346C387.054 844.446 387.891 841.195 388.178 839.106C393.208 802.427 392.714 762.799 384.223 726.674C382.762 720.459 377.832 711.07 375.563 704.319L374.329 699.23C345.371 721.926 299.345 728.304 266.348 708.831C264.014 707.454 261.963 705.319 261.566 702.573C264.814 704.286 268.357 707.35 272.893 709.629C293.729 720.1 321.882 719.875 343.69 712.812C353.717 709.565 370 702.707 374.988 692.996C374.377 687.957 372.839 682.585 371.574 677.628L370.239 671.107C347.85 699.136 296.151 710.524 265.782 689.088C265.757 689.265 265.731 689.442 265.706 689.619L265.561 690.5C264.864 694.88 263.347 698.539 261.566 702.573C257.676 710.822 255.907 718.772 258.661 727.746C264.875 747.997 265.972 762.435 261.2 783.126C254.172 813.601 258.096 847.76 275.958 874.014C275.872 875.785 276.244 875.132 275.223 876.229L274.378 875.945C271.607 873.098 268.201 865.66 266.459 862.041C254.063 836.289 253.071 812.109 258.301 784.387C259.906 775.877 262.143 764.558 261.736 755.968C261.088 742.297 254.279 729.277 254.946 715.337C255.412 705.586 262.655 697.353 262.87 688.969C263.089 680.363 254.622 670.687 259.011 660.636C262.058 653.659 272.875 640.854 279.601 637.864C279.597 614.189 276.36 609.602 265.852 588.74C254.718 596.876 244.03 604.491 232.293 611.714C225.112 616.134 219.144 622.824 211.084 626.407C208.467 626.52 203.247 624.002 200.723 622.841C200.224 621.977 199.467 621.164 198.816 620.38C183.455 605.377 205.013 600.762 213.591 589.901C215.639 587.307 214.38 584.007 216.569 581.529C223.598 573.575 232.025 566.99 240.165 560.159C246.14 555.445 251.972 551.238 257.64 546.116C262.674 542.846 272.002 535.357 276.943 531.455C284.408 525.559 296.734 516.765 303.026 510.251C294.364 509.638 291.989 512.137 284.612 506.07C286.008 505.716 290.217 507.748 292.03 507.592C302.868 506.657 308.446 508.431 317.894 513.876C329.315 520.458 339.961 521.526 352.809 517.957C347.714 504.934 326.119 486.111 311.964 483.017C306.315 481.782 288.693 478.521 283.336 482.597C278.26 486.458 268.144 498.981 264.408 504.85C259.658 516.919 259.272 532.7 257.014 545.733C255.66 545.937 255.371 545.73 254.671 544.718C256.303 537.299 257.49 527.093 258.077 519.484C259.268 504.051 264.168 500.39 273.57 489.554C282.6 478.599 292.266 469.044 303.428 460.268C308.031 456.649 313.902 453.709 318.04 450.236C329.323 439.643 344.809 430.055 360.448 436.536C366.148 429.439 372.191 425.976 380.328 422.234C386.833 408.89 391.529 404.608 404.93 398.457C412.732 395.855 417.968 395.546 426.155 395.532C420.306 378.845 416.295 364.711 423.292 347.572C426.331 340.126 434.796 326.868 435.843 319.38C437.092 310.451 429.166 297.286 428.756 288.268C428.683 286.665 429.445 283.919 429.835 282.312C428.014 278.758 426.218 274.999 424.144 271.584C420.473 265.54 415.668 260.394 413.551 253.474C409.578 240.484 413.513 225.811 419.378 214.091C423.796 205.261 435.197 190.914 444.898 187.897C442.054 191.541 435.571 195.389 432.213 199.254C414.536 219.607 406.355 245.498 424.199 268.138C414.581 237.391 422.305 209.518 446.789 188.611C455.761 182.879 455.725 181.039 461.949 172.981C471.556 160.542 484.644 152.535 499.934 148.869C523.977 142.979 558.975 150.286 584.064 151.835C601.359 152.903 610.442 152.586 627.637 151.397C589.954 122.305 536.054 121.164 494.463 142.417C481.454 148.992 467.721 158.833 458.918 170.586C455.972 174.519 454.491 179.448 451.299 183.488C455.059 164.235 475.453 149.718 491.813 140.909ZM512.285 191.742C500.881 189.703 488.182 186.704 477.231 192.056C461.067 199.956 450.407 220.757 448.142 238.011C450.6 233.925 452.42 230.086 455.363 226.219C468.082 209.507 490.916 196.694 512.403 198.829C518.283 199.293 533.741 199.995 538.61 202.672C535.013 203.287 521.868 201.944 517.499 201.368C484.196 196.98 447.445 223.058 445.596 257.906C448.692 249.498 451.23 241.74 457.073 234.744C476.905 211.003 511.224 209.723 539.262 204.021C559.127 203.266 585.752 194.382 602.335 183.272C601.253 183.169 574.957 193.103 570.876 194.376C549.487 201.05 533.523 196.45 512.285 191.742ZM674.258 489.885C667.318 496.873 660.448 504.367 653.313 511.108C633.287 530.029 613.213 548.867 593.715 568.342C591.035 571.018 588.43 573.571 585.91 576.41C591.824 583.212 615.404 598.236 625.079 598.979C630.89 599.424 637.405 594.528 641.448 590.619C665.277 567.575 705.058 522.211 716.034 491.171C717.937 486.789 719.117 479.426 719.652 474.694C711.687 465.161 702.047 455.133 696.381 444.281C691.168 466.794 689.339 471.546 674.258 489.885ZM278.64 664.742C278.739 662.277 279.123 662.336 278.135 660.482L277.045 660.151C275.388 660.917 274.009 662.782 273.979 664.64C275.023 666.864 275.04 667.047 276.816 668.655L278.039 668.937C279.043 667.713 278.873 666.29 278.64 664.742ZM445.969 269.58C442.571 270.904 441.452 272.259 438.886 274.856C444.695 272.608 447.059 272.304 453.311 271.774C456.469 272.194 457.79 272.531 460.819 273.375C455.358 270.207 452.509 269.309 445.969 269.58ZM442.53 275.003C437.978 274.7 437.114 275.808 434.615 279.538L435.047 279.771L435.358 279.658C438.312 277.081 438.804 276.677 442.53 275.003ZM452.685 277.573L451.895 279.022C454.151 280.081 456.262 278.496 459.895 279.343L460.627 278.761C458.375 277.142 455.301 277.361 452.685 277.573ZM419.289 398.199C404.108 399.512 389.416 407.245 383.143 421.776C407.99 422.92 423.663 441.552 428.875 465.71C431.517 477.952 421.419 487.124 421.541 487.909C437.101 482.673 452.124 477.094 459.511 461.62C469.626 440.432 464.693 412.641 441.675 402.67C434.233 399.447 427.404 397.27 419.289 398.199ZM382.201 424.107C374.466 427.101 368.235 431.347 362.325 437.163C372.632 447.23 384.585 465.686 389.174 479.327C396.954 472.364 407.031 470.207 412.616 480.864C414.234 485.49 413.899 486.846 413.283 491.583C433.137 477.41 428.068 458.218 415.218 441.131C407.637 431.051 395.126 423.476 382.201 424.107ZM349.952 436.671C337.311 437.976 330.938 442.759 320.788 450.396C333.597 450.091 339.716 457.024 349.025 465.103C354.927 470.224 359.813 477.262 364.368 483.587C373.889 490.835 378.688 489.843 386.993 480.888C381.705 468.513 370.07 443.618 357.135 438.001C355.279 437.195 352.002 436.765 349.952 436.671ZM319.104 453.119C307.415 458.393 294.912 470.042 285.749 479.178C294.527 477.535 301.751 478.325 310.485 479.94C326.637 482.926 340.796 496.102 350.394 508.737C354.815 514.956 354.693 515.699 361.568 518.396C382.014 512.535 372.254 501.999 364.501 489.614C355.575 475.354 345.127 462.807 330.286 454.36C326.882 452.409 322.913 452.833 319.104 453.119ZM398.529 476.05C391.437 479.359 388.828 483.585 382.759 487.959C379.83 490.07 374.406 490.273 370.883 492.511C370.439 494.569 376.335 504.382 377.529 508.145C379.828 508.613 380.556 508.612 382.496 509.808L382.885 510.696C370.121 524.934 356.565 540.879 354.355 560.354C354.138 562.267 354.078 566.102 352.285 566.944C351.377 566.107 351.192 565.763 351.207 564.244C351.403 545.276 366.056 524.878 378.492 511.77L378.345 511.007L377.413 510.718C374.589 512.585 374.502 514.597 371.347 516.761C367.493 519.404 363.621 520.174 359.906 522.738L310.064 557.838C296.441 567.38 281.333 577.53 268.057 587.422L269.824 590.815C273.016 596.899 276.734 603.875 278.796 610.381C284.719 629.076 280.984 651.008 281.51 670.518C302.875 681.141 338.557 668.692 356.3 655.603C357.128 635.772 353.786 621.52 359.631 601.381C364.549 584.438 377.692 576.385 384.114 562.978C394.495 541.307 396.746 514.718 409.599 493.559C414.872 484.878 410.261 475.08 398.529 476.05ZM305.204 510.883C301.569 516.806 290.774 523.603 285.183 528.135C273.187 537.86 259.999 547.187 248.225 557.123C238.618 565.229 221.677 577.242 215.951 588.063C218.169 586.66 222.053 583.686 224.602 584.634C231.343 587.14 237.386 599.025 237.229 605.692C244.143 601.161 250.253 597.02 256.876 592.069L334.87 537.031C338.653 534.351 356.771 522.161 358.768 519.721C353.964 519.802 344.575 523.471 337.507 522.965C327.5 522.25 321.959 519.325 313.224 514.57C310.975 513.345 307.551 511.407 305.204 510.883ZM532.132 529.331C530.066 534.147 527.757 539.261 526.788 544.456C523.163 563.906 530.211 583.081 536.823 601.042C541.385 613.434 549.222 603.745 554.423 597.281C559.606 590.74 564.544 583.315 569.56 577.17C552.992 567.111 538.033 555.039 533.72 535.484C533.305 533.602 532.727 531.141 532.132 529.331ZM221.872 586.783C215.46 591.301 206.615 600.046 200.109 605.482C206.396 607.982 208.355 609.458 212.55 614.849C219.634 610.258 226.736 604.907 233.822 600.601C231.546 595.96 227.554 587.741 221.872 586.783ZM233.916 602.052C232.166 606.739 217.445 612.79 214.158 617.455C214.135 617.487 214.757 619.606 214.918 619.75C214.891 619.726 215.605 621.174 215.582 621.127C221.344 616.676 227.939 611.344 233.943 607.431C234.099 605.794 234.399 603.745 234.16 602.176L233.916 602.052ZM197.705 607.207C196.704 608.626 195.952 609.309 196.036 611.01L196.384 611.356C197.66 610.777 197.889 610.333 199.18 610.9C203.491 612.793 208.194 620.104 211.015 623.921C212.332 623.391 211.834 623.826 212.515 622.526C211.87 616.313 203.741 608.602 197.705 607.207ZM196.235 612.348C198.25 617.38 201.801 620.991 207.031 622.653C204.267 619.187 200.394 613.908 196.235 612.348ZM358.506 638.878C358.565 644.002 358.929 648.64 359.32 653.732C361.581 649.794 363.819 645.516 366.854 642.166C365.565 647.535 362.808 653.924 358.19 657.382C338.535 672.1 310.07 681.077 285.666 675.114C279.367 673.575 269.804 669.947 271.748 662.026C272.364 659.702 277.097 657.83 279.293 656.903C279.432 651.234 279.516 645.707 279.518 640.036C274.509 644.418 268.359 650.863 264.462 656.381C256.775 668.546 262.215 673.988 265.921 686.292C276.972 695.513 300.084 699.02 313.801 697.423C330.313 695.5 354.533 685.744 365.592 673.045C373.717 663.716 378.27 639.489 358.506 638.878Z" fill="#010000"/>
<path d="M494.465 142.417C536.056 121.164 589.956 122.305 627.639 151.397C610.444 152.586 601.361 152.903 584.066 151.835C558.977 150.286 523.979 142.979 499.936 148.869C496.875 146.398 496.079 145.992 494.465 142.417Z" fill="#FAF8F0"/>
<path d="M501.066 151.073C531.914 144.592 565.876 154.184 597.183 154.652C602.247 154.727 608.677 154.969 613.612 154.514C623.041 153.646 626.131 152.283 635.855 154.077C652.903 157.222 667.549 162.32 682.173 171.773C699.37 182.891 711.903 200.654 718.891 219.72C719.985 222.706 722.262 232.123 723.907 233.922C724.825 232.249 722.983 225.147 722.461 223.152C742.452 244.532 749.732 269.782 748.998 298.487C748.138 332.115 737.089 355.811 719.239 383.279C707.011 402.096 697.165 426.755 692.906 448.657C692.724 449.647 691.467 454.656 690.936 455.42C682.546 443.342 701.702 415.454 699.702 405.228L699.146 405.043C695.337 418.292 688.275 432.463 687.059 445.191C685.385 436.135 683.432 424.53 684.276 415.045C684.614 411.24 689.938 404.16 692.795 401.334L692.77 400.533L692.11 399.916C690.497 400.095 689.376 401.42 688.435 402.701C681.542 412.097 677.602 421.102 676.57 432.566C672.094 412.339 681.228 405.502 686.176 389.464C675.568 401.619 667.947 424.593 677.153 439.509C678.298 429.495 678.764 426.769 682.383 417.147C682.554 430.498 682.407 446.998 690.26 458.86C686.871 470.749 678.827 481.625 670.428 490.524C664.964 486.77 631.692 491.898 623.403 493.241C593.611 498.068 558.411 509.487 533.268 526.127C528.174 515.627 520.96 509.24 512.326 501.772C523.33 498.241 535.453 495.868 546.999 491.771C573.332 482.428 607.44 467.498 625.448 445.379C628.125 442.091 637.409 423.712 636.805 420.291L635.988 420.36C634.299 421.824 627.894 437.521 625.419 441.259C610.691 463.501 573.937 479.16 549.766 488.464C538.668 492.735 521.684 496.267 510.277 499.416C498.517 502.664 481.706 503.878 471.141 496.834C461.785 490.596 460.021 478.867 457.919 468.673C468.187 453.559 470.458 432.949 460.916 416.6C453.818 404.44 441.784 399.109 428.504 395.876C423.313 379.571 418.326 364.346 425.846 347.799C429.535 339.679 437.305 327.718 438.264 319.037C439.368 309.048 430.164 295.71 431.661 285.795C431.831 284.669 434.035 283.886 434.974 283.539L435.758 284.733C434.623 286.176 433.586 286.901 433.978 288.654C435.276 288.87 438.853 284.301 440.245 283.677C447.458 280.444 451.557 282.231 459.554 279.477C457.627 280.797 455.717 281.717 454.805 283.766C457.07 283.815 459.108 281.262 464.518 280.645L465.315 280.558C462.874 278.232 462.099 277.42 459.202 275.652C449.81 275.193 446.427 276.645 437.481 278.882C448.702 273.611 452.137 273.905 464.828 274.012C458.729 268.736 451.798 267.023 443.932 268.46C448.346 258.532 451.922 244.492 458.977 236.259C481.925 209.481 525.519 210.611 557.501 203.737C577.582 199.421 593.42 193.583 608.78 180.104L607.333 180.221C597.167 180.959 581.494 188.143 571.234 191.628C550.092 198.808 531.694 193.493 510.852 189.246C512.482 185.004 509.348 175.696 510.283 171.241L511.397 170.632C520.475 172.692 528.86 176.46 538.028 179.013C561.783 185.63 589.77 179.595 612.429 171.199C614.744 170.341 618.749 169.125 620.222 167.36L619.732 166.829C607.739 163.101 568.14 162.527 554.708 164.139C551.758 164.455 548.866 164.718 545.943 165.24C556.801 165.936 571.577 165.414 582.783 165.396C592.424 165.664 605.07 166.455 614.582 168.03C595.752 177.027 560.007 182.821 540.104 177.214C529.834 174.321 520.579 169.955 510.035 168.205C508.762 164.602 503.139 155.056 501.066 151.073ZM533.964 257.582C527.086 255.747 514.362 258.127 507.491 260.77L507.063 258.869C502.755 259.998 495.903 265.639 496.455 270.138C501.002 270.868 505.613 264.922 509.197 262.655C507.354 264.775 502.628 269.819 502.302 272.256C504.94 270.293 507.962 266.248 510.728 263.691C514.225 261.164 516.424 260.534 520.554 259.779L520.307 261.252C516.222 262.972 504.852 269.323 505.569 274.368L506.607 275.251C508.442 274.749 510.136 271.63 513.412 269.767L513.981 271.862L514.33 272.446C517.544 272.65 522.77 268.067 527.003 266.375L528.007 267.458C526.195 268.381 525.322 268.63 524.087 270.164L524.252 270.664C527.398 269.977 529.869 268.333 532.115 268.788C533.525 271.201 531.392 271.58 532.901 272.554C545.142 270.656 545.518 268.169 559.909 270.302L559.256 271.826C554.759 270.832 552.65 271.358 548.346 272.468L548.069 272.821C552.182 273.388 555.775 272.417 558.862 273.025L558.754 274.347C559.569 275.911 569.105 276.085 571.748 278.416L570.468 279.142C579.033 282.561 586.285 288.294 593.183 290.97L592.699 290.429C589.914 287.382 586.519 285.403 583.117 282.85C586.729 284.475 588.861 285.583 592.713 286.74C587.641 282.808 584.796 281.464 578.878 278.877C580.403 277.98 580.326 278.434 580.748 277.301C576.548 273.024 570.509 274.088 567.21 271.034C569.799 270.765 573.985 271.567 576.725 271.965C564.785 265.514 552.899 264.08 539.581 264.052L539.683 263.352C546.459 260.085 553.695 262.937 555.473 261.512L555.069 260.887C548.99 257.724 543.323 259.134 537.042 258.51L536.176 258.418L533.964 257.582ZM713.18 276.287C712.761 279.735 712.45 283.031 712.154 286.493C711.232 294.348 711.484 303.816 711.273 311.886C710.966 323.65 709.968 331.586 707.328 343.007C706.633 335.13 705.606 326.132 701.062 319.36C705.217 289.894 708.49 253.218 692.767 226.591C695.055 233.575 697.796 241.827 699.341 248.918C704.284 271.606 702.31 295.877 699.228 318.733C693.175 314.448 689.226 313.284 681.804 312.698C685.776 284.889 687.454 258.315 678.205 231.214C671.736 212.258 666.799 201.414 649.348 191.121L649.795 191.606C653.482 195.538 658.736 198.931 661.801 203.089C685.212 234.842 684.674 275.82 679.799 313.097C667.296 315.254 660.072 321.546 651.757 330.969C653.994 315.868 650.937 308.836 646.196 294.664C643.478 286.541 642.345 277.241 638.195 269.371C629.838 252.395 619.68 235.94 617.671 216.681C617.285 212.985 617.731 208.97 616.862 205.356C615.211 208.002 615.546 215.706 615.884 218.852C618.014 238.693 628.938 254.972 636.979 272.682C640.3 279.998 642.109 287.302 643.972 295.126C607.899 272.307 597.306 244.302 605.297 202.798C592.997 227.361 603.079 264.221 623.06 281.852C629.199 287.269 637.546 294.864 645.013 298.192C649.659 309.275 652.792 321.286 648.692 332.951C647.826 335.412 646.651 337.757 645.859 340.241L646.393 339.756C652.829 333.869 657.9 326.53 665.119 321.379C679.367 311.211 698.605 312.225 703.176 331.99C709.09 357.555 690.773 379.547 672.944 395.406C666.425 401.205 658.016 406.353 648.909 405.764C643.627 405.573 637.948 400.377 634.44 401.281C636.595 404.876 641.883 406.091 645.492 407.142C652.124 409.073 661.432 406.5 667.25 402.548C680.459 393.574 697.062 375.796 704.128 361.192C705.99 357.343 709.342 344.505 710.374 340.023C713.51 326.404 714.12 307.223 713.432 293.184C713.63 288.189 713.702 281.139 713.18 276.287ZM687.291 368.822C685.609 370.654 683.645 372.465 682.696 374.696L682.883 374.787C683.305 374.449 683.741 374.082 684.175 373.767L684.066 373.969C685.685 372.409 686.716 371.359 688.162 369.644C692.316 364.691 695.59 357.767 697.323 351.419C698.922 345.558 701.813 332.575 694.832 329.062C690.844 327.055 683.875 328.193 679.564 329.795C671.111 332.936 661.366 339.549 658.99 348.793C658.067 353.433 658.172 357.692 656.842 362.303C655.188 367.678 644.754 378.876 655.141 381.739C662.096 383.656 670.392 377.596 671.111 370.519C671.62 365.506 671.077 362.927 668.346 358.955L667.76 358.861C667.076 363.297 671.834 373.362 664.735 377.657C661.209 379.79 656.125 381.489 653.552 377.203C653.121 372.913 657.873 368.388 659.189 363.772C660.878 358.174 660.072 349.828 663.181 344.803C668.188 336.709 684.47 326.618 694.056 331.291C695.34 331.917 696.675 334.479 696.842 336.024C698.021 346.962 693.161 359.835 687.291 368.822ZM638.258 164.648L637.293 165.596C638.453 166.638 644.188 166.901 646.695 167.515C668.431 172.841 680.895 189.318 691.029 208.06L691.741 207.683C690.841 199.723 675.793 180.94 668.847 175.769C658.319 167.932 651.057 164.982 638.258 164.648ZM592.971 195.072C589.718 197.082 587.468 198.637 585.318 201.977C573.775 219.909 574.377 242.609 585.805 260.371C596.252 276.607 611.604 290.682 630.325 296.125C630.932 296.301 631.617 296.309 632.24 296.334L632.727 295.705C631.776 293.926 629.01 292.803 627.393 291.462C600.581 269.228 585.166 243.594 596.079 208.009L596.299 207.297C597.696 203.699 599.05 200.217 600.581 196.674C594.181 203.908 592.285 211.544 590.713 221.008C586.95 243.675 597.095 267.977 614.577 282.555C617.935 285.356 622.176 288.852 625.229 291.941C591.569 278.817 564.176 234.343 588.618 201.102C589.614 199.748 592.712 196.323 592.971 195.072ZM631.197 196.657C626.781 209.76 631.188 232.55 635.12 245.804C636.644 250.939 648.584 282.368 651.579 285.615C652.067 280.449 641.835 258.461 639.791 252.104C634.922 236.965 630.778 222.332 631.521 206.115C631.652 203.254 632.206 200.002 632.228 197.214L631.197 196.657ZM642.503 218.749C657.85 244.408 669.48 267.374 663.951 298.501C663.651 300.189 662.478 304.298 662.981 305.737C663.909 305.542 663.577 305.738 664.07 305.345C670.949 285.565 666.416 258.746 657.262 240.409C655.081 236.041 646.953 220.42 642.503 218.749ZM713.386 235.91C715.09 243.839 720.438 252.754 722.608 261.536C730.125 291.96 730.358 327.761 714.453 355.624C711.009 361.479 705.578 368.638 700.51 373.007C700.001 373.446 700.099 373.524 699.86 374.244L700.966 374.17C737.669 348.771 736.207 272.168 715.158 237.443C714.738 236.75 714.099 236.256 713.386 235.91ZM732.956 258.382C732.314 262.467 744.85 296.196 743.514 304.353C743.492 304.489 743.147 312.061 743.158 312.266C743.309 315.132 740.448 325.818 740.968 327.362L741.573 327.527C747.694 318.411 745.594 300.744 743.518 290.609C742.096 283.667 737.336 262.483 732.956 258.382ZM464.724 286.689C467.971 293.615 470.358 299.052 467.712 306.971C466.209 311.468 461.097 318.321 457.138 320.846C453.664 321.029 445.792 317.892 441.584 320.684C442.977 322.886 454.176 321.509 456.936 321.475C448.793 327.541 438.091 333.477 447.217 344.785C449.494 347.606 451.657 349.44 454.616 351.529C458.184 353.538 462.776 356.258 466.971 355.363L467.36 354.882C466.116 353.203 461.551 352.291 459.476 351.26C454.167 348.62 445.07 341.782 446.312 335.063C447.802 327.011 468.479 322.369 471.23 302.964C471.875 298.414 471.344 294.175 468.858 290.241C467.779 288.533 466.758 287.184 464.724 286.689ZM512.259 295.033C512.418 296.953 512.843 297.119 514.3 298.442C528.11 310.975 554.765 307.432 571.179 302.711L571.339 301.243C570.922 300.754 570.82 300.373 570.21 300.466C559.737 302.063 549.118 305.036 538.373 303.961C532.525 303.377 525.739 300.725 520.314 298.369C517.942 297.318 514.627 295.563 512.259 295.033ZM493.859 329.398C494.499 332.912 502.243 337.122 499.728 343.193C498.363 346.486 493.8 348.424 493.579 350.678C493.83 350.779 494.551 351.096 494.782 351.13C500.946 347.397 504.463 341.597 500.671 333.928C499.547 331.655 496.458 329.728 493.859 329.398ZM476.362 338.616C472.687 339.708 470.873 339.913 468.209 342.677L468.517 343.265C472.283 343.295 472.041 341.958 476.027 342.14C478.9 342.844 481.504 344.058 484.06 342.175L484.141 341.227C482.109 338.836 479.393 338.544 476.362 338.616ZM509.641 344.777C511.745 351.824 535.153 371.763 539.54 380.799C542.473 386.842 542.269 387.973 542.578 394.971C542.79 395.096 543.001 395.222 543.212 395.348L544.473 395.286C545.79 388.961 544.349 383.214 540.862 377.87C537.683 372.997 514.189 345.558 510.087 344.83C509.94 344.804 509.79 344.795 509.641 344.777ZM732.984 344.771C729.297 351.819 726.898 358.33 721.915 364.741C720.527 366.526 714.384 373.308 714.041 374.443L714.489 374.888C720.84 370.642 734.643 352.924 733.598 345.302L732.984 344.771ZM669.861 345.579C673.324 349.329 677.979 348.342 680.532 353.135C681.577 355.098 681.833 356.52 683.33 356.749C684.007 348.969 676.627 345.528 669.861 345.579ZM472.683 372.208C461.298 372.947 448.094 376.364 448.287 390.135C448.445 401.374 465.348 403.109 469.507 407.557C471.338 409.516 469.838 429.855 469.82 434.646C472.175 438.988 472.498 439.356 476.593 441.952L476.549 442.289C474.88 442.139 472.631 441.785 471.096 442.191L470.993 442.82C477.047 447.9 493.787 445.022 500.643 441.485C513.026 434.74 520.745 426.168 528.052 414.222C531.322 408.876 537.608 400.093 532.879 393.917C520.098 377.225 492.123 371.332 472.683 372.208ZM502.725 449.387C495.855 457.001 489.048 460.398 479.228 461.455C476.068 461.795 470.852 459.591 469.116 460.139C469.669 461.326 470.014 461.335 471.165 462.072C478.004 464.565 485.524 463.011 491.992 460.108C495.072 458.725 503.65 453.377 504.048 450.101C503.449 449.701 503.369 449.535 502.725 449.387Z" fill="url(#paint0_linear_2293_130010)"/>
<path d="M458.652 180.442C470.212 164.551 482.202 156.207 501.067 151.07C503.14 155.053 508.763 164.599 510.036 168.202C490.3 166.125 475.934 170.881 458.652 180.442Z" fill="#FBF8CC"/>
<path d="M683.035 169.383C689.31 166.471 696.98 165.076 703.802 163.786C739.978 156.949 786 161.168 820.566 173.77C874.675 193.497 928.706 240.424 952.925 293.085C958.887 306.048 967.424 329.3 970.188 343.34C979.13 388.77 976.706 438.184 960.511 481.713C948.175 514.868 927.578 546.943 902.615 571.838C900.565 573.882 892.72 581.823 890.75 583.012C887.36 566.668 887.561 565.869 879.11 550.232C862.204 518.284 825.696 505.638 792.5 498.499C779.94 495.747 768.2 493.302 755.301 492.89C751.256 492.76 737.517 492.355 734.541 491.378C734.568 489.203 734.35 486.182 733.021 484.465C721.853 470.038 704.821 458.23 697.321 441.021C699.195 423.142 712.597 399.525 721.401 383.78C726.131 375.321 732.214 367.1 736.612 358.284C749.124 333.204 753.696 302.933 749.738 275.224C747.567 261.136 740.751 243.561 732.416 231.844C729.902 228.31 723.49 222.45 721.557 219.06C719.616 215.042 718.223 210.953 716.172 206.963C707.923 190.917 697.585 179.738 683.035 169.383ZM876.821 231.607C855.034 236.088 819.992 256.639 807.521 275.243C806.547 276.696 806.005 277.425 806.143 279.064L807.17 279.297L808.22 278.623C825.812 263.379 841.677 249.964 863.069 240.222C865.573 239.082 878.067 233.417 879.192 231.731C877.979 231.414 878.063 231.424 876.821 231.607ZM910.456 240.116C873.532 249.028 830.619 277.524 804.031 304.777C803.382 305.443 803.176 306.572 803.259 307.468C804.417 307.847 803.798 307.757 805.36 307.01C816.076 300.67 825.432 292.002 835.309 284.292C853.348 270.209 870.607 261.051 891.581 252.112C898.154 249.311 905.694 246.516 912.399 243.865C913.157 243.565 913.352 242.65 913.565 241.994C912.805 240.347 913.38 240.967 911.756 240.095L910.456 240.116ZM916.303 265.572C886.899 272.64 861.771 285.506 838.71 305.141C836.529 306.998 827.014 314.395 826.235 316.45C828.12 315.817 828.436 315.404 830.019 314.107C853.69 298.024 876.021 284.032 903.195 274.513C906.03 273.519 922.097 269.71 923.007 268.03C922.286 266.192 922.819 266.994 921.189 265.647C918.883 265.238 918.672 265.296 916.303 265.572ZM910.122 293.612C883.468 300.368 858.825 313.594 836.684 329.798C828.663 335.669 821.444 341.522 817.266 350.732C818.497 349.929 820.952 348.437 822.017 347.599C842.093 331.8 859.972 319.527 883.056 308.891C889.069 306.12 913.08 298.208 915.745 295.662L915.962 294.626C914.276 292.826 912.324 293.289 910.122 293.612ZM780.243 417.157C779.202 424.81 784.542 433.882 776.621 440.767C772.438 444.403 762.656 441.647 761.086 447.516C762.795 450.527 782.283 456.597 780.256 464.698C779.146 469.139 774.984 472.637 775.233 477.191L775.948 477.743C783.625 476.218 786.649 465.007 795.311 463.471L797.244 466.055C799.157 468.66 804.731 473.22 808.157 472.464C810.335 469.459 805.748 463.937 804.032 461.295C803.245 437.598 815.781 443.295 818.239 435.301C816.343 432.095 804.642 436.239 798.888 434.413C789.214 431.343 787.895 419.365 780.243 417.157Z" fill="#FDE4CF"/>
<path d="M545.941 165.238C548.864 164.716 551.756 164.453 554.706 164.137L554.981 164.803C560.884 165.195 578.317 164.218 582.781 165.394C571.575 165.412 556.799 165.934 545.941 165.238Z" fill="#3D3E3A"/>
<path d="M691.029 208.06C680.895 189.318 668.431 172.841 646.695 167.515C644.188 166.901 638.453 166.638 637.293 165.596L638.258 164.648C651.057 164.982 658.319 167.932 668.847 175.769C675.793 180.94 690.841 199.723 691.741 207.683L691.029 208.06Z" fill="#010000"/>
<path d="M317.789 179.697C315.273 180.113 312.65 180.276 311.855 177.387C313.059 172.393 318.771 170.724 323.221 170.123C325.106 170.07 327.134 170.104 328.517 171.496C328.926 175.743 321.122 178.513 317.789 179.697Z" fill="#FAF8F0"/>
<path d="M511.395 170.631L510.281 171.24C509.346 175.695 512.48 185.003 510.85 189.245C502.975 187.884 490.716 185.209 482.998 187.485C458.332 194.654 447.696 221.685 444.293 244.776C442.72 255.45 447.03 265.609 436.693 272.902C434.422 274.504 432.63 277.114 431.16 279.491C423.645 263.146 421.589 253.077 423.1 235.111C426.619 193.284 472.3 166.339 511.395 170.631ZM450.922 203.432C440.74 212.576 432.93 228.666 431.161 242.343C430.892 244.426 430.776 246.075 432.262 247.616C433.764 245.845 433.665 241.582 434.176 239.04C437.033 224.849 442.649 215.659 451.236 204.291C451.062 203.522 451.243 203.768 450.922 203.432Z" fill="#FBF8CC"/>
<path d="M512.287 191.744C533.525 196.452 549.489 201.052 570.878 194.378C574.959 193.105 601.255 183.171 602.337 183.274C585.754 194.384 559.129 203.268 539.264 204.023L538.612 202.674C533.743 199.997 518.285 199.295 512.405 198.831C511.888 195.591 511.886 194.999 512.287 191.744Z" fill="#FFEDE1"/>
<path d="M288.981 199.508C286.151 200.129 284.143 199.976 282.818 197.204C282.718 192.206 286.41 188.832 290.693 187.028C302.035 186.403 297.854 196.248 288.981 199.508Z" fill="#FAF8F0"/>
<path d="M448.141 238.012C450.406 220.758 461.066 199.957 477.23 192.057C488.181 186.705 500.88 189.704 512.284 191.743C511.883 194.998 511.885 195.59 512.402 198.83C490.915 196.695 468.081 209.508 455.362 226.22C452.419 230.087 450.599 233.926 448.141 238.012Z" fill="#FBF8CC"/>
<path d="M712.154 286.493C713.689 288.328 712.817 290.567 713.433 293.184C714.121 307.223 713.511 326.404 710.375 340.023C709.343 344.505 705.99 357.343 704.128 361.192C697.062 375.796 680.459 393.574 667.25 402.548C661.432 406.5 652.125 409.073 645.493 407.142C641.884 406.091 636.596 404.876 634.441 401.281C637.949 400.377 643.627 405.573 648.909 405.764C658.016 406.353 666.425 401.205 672.944 395.406C690.773 379.547 709.091 357.555 703.177 331.99C698.606 312.225 679.368 311.211 665.12 321.379C657.901 326.53 652.83 333.869 646.394 339.756L645.86 340.241C646.652 337.757 647.827 335.412 648.693 332.951C652.793 321.286 649.66 309.275 645.014 298.192C637.547 294.864 629.199 287.269 623.06 281.852C603.079 264.221 592.997 227.361 605.297 202.798C597.306 244.302 607.899 272.307 643.972 295.126C642.109 287.302 640.301 279.998 636.98 272.682C628.939 254.972 618.014 238.693 615.884 218.852C615.546 215.706 615.211 208.002 616.862 205.356C617.731 208.97 617.286 212.985 617.672 216.681C619.681 235.94 629.839 252.395 638.196 269.371C642.346 277.241 643.478 286.541 646.196 294.664C650.937 308.836 653.995 315.868 651.758 330.969C660.073 321.546 667.297 315.254 679.8 313.097C684.675 275.82 685.214 234.842 661.803 203.089C658.738 198.931 653.482 195.538 649.795 191.606L649.349 191.121C666.8 201.414 671.737 212.258 678.206 231.214C687.455 258.315 685.777 284.889 681.805 312.698C689.227 313.284 693.176 314.448 699.229 318.733C702.311 295.877 704.284 271.606 699.341 248.918C697.796 241.827 695.057 233.575 692.769 226.591C708.492 253.218 705.218 289.894 701.063 319.36C705.607 326.132 706.633 335.13 707.328 343.007C709.968 331.586 710.967 323.65 711.274 311.886C711.485 303.816 711.232 294.348 712.154 286.493Z" fill="#010000"/>
<path d="M596.298 207.295L596.078 208.007C585.165 243.592 600.58 269.226 627.392 291.46C629.009 292.801 631.775 293.924 632.726 295.703L632.239 296.332C631.616 296.307 630.931 296.299 630.324 296.123C611.603 290.68 596.251 276.605 585.804 260.369C574.376 242.607 573.774 219.907 585.317 201.975C587.467 198.635 589.717 197.08 592.97 195.07C592.711 196.321 589.613 199.746 588.617 201.1C564.175 234.341 591.568 278.815 625.228 291.939C622.175 288.85 617.934 285.354 614.576 282.553C597.094 267.975 586.949 243.673 590.712 221.006C592.284 211.542 594.18 203.906 600.58 196.672C599.049 200.215 597.695 203.697 596.298 207.295Z" fill="#010000"/>
<path d="M333.808 205.474C329.596 205.739 327.171 206.123 324.024 203.14C322.332 198.644 327.243 197.254 330.711 196.102C334.59 195.849 340.971 196.444 340.155 201.767C338.377 204.398 336.933 204.581 333.808 205.474Z" fill="#FAF8F0"/>
<path d="M651.581 285.614C648.586 282.367 636.646 250.938 635.122 245.803C631.19 232.549 626.783 209.759 631.199 196.656L632.23 197.213C632.208 200.001 631.654 203.253 631.523 206.114C630.78 222.331 634.924 236.964 639.793 252.103C641.837 258.46 652.069 280.448 651.581 285.614Z" fill="#010000"/>
<path d="M253.94 209.244C251.819 209.633 250.4 210.295 249.09 208.364C249.355 203.834 254.931 201.467 258.666 200.533C260.749 200.476 260.88 200.421 262.756 201.202C264.68 204.688 256.606 208.157 253.94 209.244Z" fill="#FAF8F0"/>
<path d="M538.612 202.673L539.264 204.022C511.226 209.724 476.907 211.004 457.075 234.745C451.232 241.741 448.694 249.499 445.598 257.907C447.447 223.059 484.198 196.981 517.501 201.369C521.87 201.945 535.015 203.288 538.612 202.673Z" fill="#FBF8CC"/>
<path d="M432.265 247.618C430.779 246.077 430.895 244.428 431.164 242.345C432.933 228.668 440.743 212.578 450.925 203.434C451.246 203.77 451.065 203.524 451.239 204.293C442.652 215.661 437.036 224.851 434.179 239.042C433.668 241.584 433.767 245.847 432.265 247.618Z" fill="#010000"/>
<path d="M310.905 216.679C309.953 216.767 309.797 216.622 308.816 216.415C305.853 213.336 307.916 209.767 310.507 207.289C312.873 207.489 313.251 207.525 314.354 209.486C314.458 212.462 312.662 214.364 310.905 216.679Z" fill="#FAF8F0"/>
<path d="M664.071 305.342C663.578 305.735 663.91 305.539 662.982 305.734C662.479 304.295 663.652 300.186 663.952 298.498C669.481 267.371 657.851 244.405 642.504 218.746C646.954 220.417 655.082 236.038 657.263 240.406C666.417 258.743 670.95 285.562 664.071 305.342Z" fill="#010000"/>
<path d="M337.687 230.348L336.757 230.596C334.908 230.1 335.498 230.63 334.51 229.411C334.143 224.376 339.483 222.669 343.507 221.516C345.385 221.554 345.84 221.503 347.064 222.486L346.905 223.595C344.733 226.416 340.771 228.541 337.687 230.348Z" fill="#FAF8F0"/>
<path d="M293.743 236.444C292.828 236.786 292.441 236.797 291.472 236.971C288.218 234.776 290.844 227.821 292.312 224.98C293.724 224.984 294.123 225.047 295.526 225.274C298.72 228.213 295.761 233.509 293.743 236.444Z" fill="#FAF8F0"/>
<path d="M264.935 241.736C256.202 243.514 249.564 236.254 251.658 228.172C257.976 230.833 271.013 231.003 264.935 241.736Z" fill="#FAF8F0"/>
<path d="M808.219 278.621L807.169 279.295L806.142 279.062C806.004 277.423 806.546 276.694 807.52 275.241C819.991 256.637 855.033 236.086 876.82 231.605C878.062 231.422 877.978 231.412 879.191 231.729C878.066 233.415 865.572 239.08 863.068 240.22C841.676 249.962 825.811 263.377 808.219 278.621Z" fill="#FAF8F0"/>
<path d="M324.975 245.088C319.743 241.153 322.284 238.088 325.267 233.811C326.52 233.774 326.452 233.72 327.573 234.254C329.563 238 328.197 242.496 324.975 245.088Z" fill="#FAF8F0"/>
<path d="M700.965 374.17L699.859 374.244C700.098 373.524 700 373.446 700.509 373.007C705.577 368.638 711.008 361.479 714.452 355.624C730.357 327.761 730.124 291.96 722.607 261.536C720.437 252.754 715.089 243.839 713.385 235.91C714.098 236.256 714.737 236.75 715.157 237.443C736.206 272.168 737.668 348.771 700.965 374.17Z" fill="#010000"/>
<path d="M805.361 307.009C803.799 307.756 804.418 307.846 803.26 307.467C803.177 306.571 803.383 305.442 804.032 304.776C830.62 277.523 873.533 249.027 910.457 240.115L911.757 240.094C913.381 240.966 912.806 240.346 913.566 241.993C913.353 242.649 913.158 243.564 912.4 243.864C905.695 246.515 898.155 249.31 891.582 252.111C870.608 261.05 853.349 270.208 835.31 284.291C825.433 292.001 816.077 300.669 805.361 307.009Z" fill="#FAF8F0"/>
<path d="M296.619 259.003C293.77 259.681 292.518 260.152 290.324 258.133C289.693 254.31 291.88 253.577 294.887 252.112C297.8 251.949 299.261 251.457 301.39 253.659C302.068 256.994 299.277 257.962 296.619 259.003Z" fill="#FAF8F0"/>
<path d="M331.547 263.651L331.079 263.821C326.13 263.001 328.627 257.698 331.537 255.363C333.351 255.493 333.243 255.477 334.905 256.23C337.066 259.254 333.717 261.608 331.547 263.651Z" fill="#FAF8F0"/>
<path d="M507.489 260.769C514.36 258.126 527.084 255.746 533.962 257.581C530.524 257.97 522.364 259.875 520.552 259.778C516.422 260.533 514.223 261.163 510.726 263.69C507.96 266.247 504.938 270.292 502.3 272.255C502.626 269.818 507.352 264.774 509.195 262.654C505.611 264.921 501 270.867 496.453 270.137C495.901 265.638 502.753 259.997 507.061 258.868C503.608 262.562 502.208 263.173 499.087 267.506C500.999 265.996 505.961 262.278 507.489 260.769Z" fill="#010000"/>
<path d="M533.966 257.582L536.178 258.418C521.681 260.151 522.344 262.761 510.562 269.716C513.076 267 518.422 262.719 521.815 261.687L522.134 261.207L520.31 261.252L520.557 259.779C522.369 259.876 530.528 257.971 533.966 257.582Z" fill="#FAF8F0"/>
<path d="M178.422 279.64C187.496 275.236 198.741 269.479 208.176 266.272C242.487 254.61 277.118 254.976 311.333 266.942C349.179 280.178 372.505 301.96 389.817 337.688C397.01 352.533 400.212 367.121 403.143 383.234C403.65 386.022 404.177 396.621 404.93 398.458C391.529 404.609 386.833 408.891 380.328 422.235C372.191 425.977 366.148 429.44 360.448 436.537C344.809 430.056 329.323 439.644 318.04 450.237C316.604 448.917 300.608 444.533 297.117 443.267C282.658 438.023 271.633 433.033 258.647 424.771C223.928 402.681 207.271 368.473 193.55 331.191C187.243 314.052 182.024 298.006 178.266 279.972L178.422 279.64ZM288.995 267.626C287.282 271.906 284.704 276.923 286.237 281.294C287.269 282.338 287.659 282.218 289.138 282.445C290.572 279.671 292.197 272.545 291.551 269.247C291.337 268.153 289.98 267.84 288.995 267.626ZM266.441 271.564C262.928 272.529 256.853 274.707 256.527 279.029C257.251 280.244 257.08 280.431 258.935 280.91C263.243 280.138 271.049 277.872 267.929 271.676C267.572 271.642 266.761 271.537 266.441 271.564ZM326.458 287.88C323.589 294.358 324.934 302.392 333.38 298.5C334.494 297.201 334.921 296.918 335.185 295.215C334.347 291.148 330.571 287.995 326.458 287.88ZM290.423 295.784C289.029 299.945 288.891 309.29 293.811 311.191C295.719 311.201 295.739 311.034 297.359 310.116C302.107 301.903 296.666 301.928 292.717 298.015C291.674 296.982 291.75 296.638 290.423 295.784Z" fill="#B9FBC0"/>
<path d="M510.56 269.716C522.342 262.761 521.678 260.151 536.175 258.418L537.041 258.51C543.322 259.134 548.989 257.724 555.068 260.887L555.472 261.512C553.694 262.937 546.458 260.085 539.682 263.352C531.323 264.686 534.502 263.87 527.002 266.375C522.769 268.067 517.543 272.65 514.329 272.446L513.98 271.862C514.578 270.307 516.028 269.532 517.097 268.364C523.212 261.678 535.715 263.641 542.399 260.7C539.831 258.855 524.571 262.666 521.696 264.248C518.981 265.742 515.935 267.895 513.411 269.767C510.135 271.63 508.441 274.749 506.606 275.251L505.568 274.368C504.851 269.323 516.221 262.972 520.306 261.252L522.131 261.207L521.811 261.687C518.418 262.719 513.074 267 510.56 269.716Z" fill="#010000"/>
<path d="M741.574 327.528L740.969 327.363C740.449 325.819 743.31 315.133 743.159 312.267C743.148 312.062 743.494 304.49 743.516 304.354C744.852 296.197 732.315 262.468 732.957 258.383C737.337 262.484 742.097 283.668 743.519 290.61C745.595 300.745 747.695 318.412 741.574 327.528Z" fill="#010000"/>
<path d="M507.064 258.867L507.492 260.768C505.964 262.277 501.002 265.995 499.09 267.505C502.211 263.172 503.611 262.561 507.064 258.867Z" fill="#FAF8F0"/>
<path d="M513.41 269.767C515.934 267.895 518.98 265.742 521.695 264.248C524.57 262.666 539.83 258.855 542.398 260.7C535.714 263.641 523.211 261.678 517.096 268.364C516.027 269.532 514.577 270.307 513.979 271.862L513.41 269.767Z" fill="#FFEDE1"/>
<path d="M527.004 266.375C534.504 263.87 531.325 264.686 539.684 263.352L539.582 264.052C534.185 264.988 532.682 264.844 528.008 267.458L527.004 266.375Z" fill="#FFEDE1"/>
<path d="M528.006 267.457C532.68 264.843 534.183 264.987 539.58 264.051C552.898 264.079 564.784 265.513 576.724 271.964C573.984 271.566 569.798 270.764 567.209 271.033C570.508 274.087 576.547 273.023 580.747 277.3C578.292 277.05 575.042 274.923 570.317 274.376C565.621 272.428 566.191 270.801 559.908 270.301C545.517 268.168 545.141 270.655 532.9 272.553C531.391 271.579 533.524 271.2 532.114 268.787C529.868 268.332 527.397 269.976 524.251 270.663L524.086 270.163C525.321 268.629 526.194 268.38 528.006 267.457ZM544.175 266.46L542.814 267.739C543.367 268.146 561.59 268.915 563.92 269.171L564.702 269.002C561.57 266.679 548.165 266.374 544.175 266.46Z" fill="#010000"/>
<path d="M830.018 314.106C828.435 315.403 828.119 315.816 826.234 316.449C827.013 314.394 836.528 306.997 838.709 305.14C861.77 285.505 886.898 272.639 916.302 265.571C918.671 265.295 918.882 265.237 921.188 265.646C922.818 266.993 922.285 266.191 923.006 268.029C922.096 269.709 906.029 273.518 903.194 274.512C876.02 284.031 853.689 298.023 830.018 314.106Z" fill="#FAF8F0"/>
<path d="M563.922 269.173C561.592 268.917 543.369 268.148 542.816 267.741L544.177 266.462C548.167 266.376 561.572 266.681 564.704 269.004L563.922 269.173Z" fill="#FAF8F0"/>
<path d="M289.139 282.444C287.66 282.217 287.27 282.337 286.238 281.293C284.705 276.922 287.283 271.905 288.996 267.625C289.981 267.839 291.338 268.152 291.552 269.246C292.198 272.544 290.573 279.67 289.139 282.444Z" fill="#FAF8F0"/>
<path d="M438.887 274.857C441.453 272.26 442.572 270.905 445.97 269.581C452.51 269.31 455.359 270.208 460.82 273.376C457.791 272.532 456.47 272.195 453.312 271.775C447.06 272.305 444.696 272.609 438.887 274.857Z" fill="#FAF8F0"/>
<path d="M559.909 270.301C566.192 270.801 565.622 272.428 570.318 274.376C575.043 274.923 578.293 277.05 580.748 277.3C580.326 278.433 580.403 277.979 578.878 278.876C576.25 277.53 571.317 275.827 568.432 275.085C564.403 273.86 562.792 273.005 558.754 274.346L558.862 273.024L559.256 271.825L559.909 270.301Z" fill="#FFEDE1"/>
<path d="M258.935 280.909C257.08 280.43 257.251 280.243 256.527 279.028C256.853 274.706 262.928 272.528 266.441 271.563C266.761 271.536 267.572 271.641 267.929 271.675C271.049 277.871 263.243 280.137 258.935 280.909Z" fill="#FAF8F0"/>
<path d="M558.863 273.022C555.776 272.414 552.183 273.385 548.07 272.818L548.347 272.465C552.651 271.355 554.76 270.829 559.257 271.823L558.863 273.022Z" fill="#010000"/>
<path d="M593.183 290.971C586.285 288.295 579.033 282.562 570.468 279.143L571.748 278.417C569.105 276.086 559.569 275.912 558.754 274.348C562.792 273.007 564.403 273.862 568.432 275.087C571.317 275.829 576.25 277.532 578.878 278.878C584.796 281.465 587.641 282.809 592.713 286.741C588.861 285.584 586.729 284.476 583.117 282.851C586.519 285.404 589.914 287.383 592.699 290.43L593.183 290.971Z" fill="#010000"/>
<path d="M435.356 279.659L435.045 279.772L434.613 279.539C437.112 275.809 437.976 274.701 442.528 275.004C438.802 276.678 438.31 277.082 435.356 279.659Z" fill="#FAF8F0"/>
<path d="M434.974 283.538L435.053 283.137L434.727 282.617C436.313 280.773 447.679 277.979 451.101 276.836C445.833 281.349 440.514 279.96 435.758 284.732L434.974 283.538Z" fill="#FAF8F0"/>
<path d="M459.895 279.346C456.262 278.499 454.151 280.084 451.895 279.025L452.685 277.576C455.301 277.364 458.375 277.145 460.627 278.764L459.895 279.346Z" fill="#FAF8F0"/>
<path d="M712.152 286.491C712.448 283.029 712.759 279.733 713.178 276.285C713.7 281.137 713.628 288.187 713.43 293.182C712.814 290.565 713.687 288.326 712.152 286.491Z" fill="#0B070A"/>
<path d="M174.875 532.999C145.632 515.271 95.6689 486.319 82.5856 454.148C71.4396 426.742 72.4493 401.02 83.3551 374.043C98.749 335.964 119.885 315.009 154.329 293.578C162.27 288.637 169.619 283.651 178.267 279.973C182.025 298.007 187.244 314.053 193.551 331.192C207.272 368.474 223.929 402.682 258.648 424.772C271.634 433.034 282.659 438.024 297.118 443.268C300.609 444.534 316.605 448.918 318.041 450.238C313.903 453.711 308.032 456.651 303.429 460.27C292.267 469.046 282.601 478.601 273.571 489.556C264.169 500.392 259.269 504.053 258.078 519.486C257.491 527.095 256.304 537.301 254.672 544.72C255.372 545.732 255.661 545.939 257.015 545.735L257.641 546.118C251.973 551.24 246.141 555.447 240.166 560.161C239.614 559.515 238.621 558.622 237.788 558.388C219.951 553.395 202.682 546.845 186.031 538.717C182.212 536.853 178.599 535.113 174.875 532.999Z" fill="#98F5E1"/>
<path d="M456.938 321.474C454.178 321.508 442.979 322.885 441.586 320.683C445.794 317.891 453.666 321.028 457.14 320.845C461.099 318.32 466.211 311.467 467.714 306.97C470.36 299.051 467.973 293.614 464.726 286.688C466.76 287.183 467.781 288.532 468.86 290.24C471.346 294.174 471.877 298.413 471.232 302.963C468.481 322.368 447.804 327.01 446.314 335.062C445.072 341.781 454.169 348.619 459.478 351.259C461.553 352.29 466.118 353.202 467.362 354.881L466.973 355.362C462.778 356.257 458.186 353.537 454.618 351.528C451.659 349.439 449.496 347.605 447.219 344.784C438.093 333.476 448.795 327.54 456.938 321.474Z" fill="#010000"/>
<path d="M333.379 298.499C324.933 302.391 323.588 294.357 326.457 287.879C330.57 287.994 334.346 291.147 335.184 295.214C334.92 296.917 334.493 297.2 333.379 298.499Z" fill="#FAF8F0"/>
<path d="M817.266 350.732C821.444 341.522 828.663 335.669 836.684 329.798C858.825 313.594 883.468 300.368 910.122 293.612C912.324 293.289 914.276 292.826 915.962 294.626L915.745 295.662C913.08 298.208 889.069 306.12 883.056 308.891C859.972 319.527 842.093 331.8 822.017 347.599C820.952 348.437 818.497 349.929 817.266 350.732Z" fill="#FAF8F0"/>
<path d="M571.178 302.709C554.764 307.43 528.109 310.973 514.299 298.44C512.842 297.117 512.417 296.951 512.258 295.031C514.626 295.561 517.941 297.316 520.313 298.367C525.738 300.723 532.524 303.375 538.372 303.959C549.117 305.034 559.736 302.061 570.209 300.464C570.819 300.371 570.921 300.752 571.338 301.241L571.178 302.709Z" fill="#010000"/>
<path d="M297.358 310.117C295.738 311.035 295.718 311.202 293.81 311.192C288.89 309.291 289.028 299.946 290.422 295.785C291.749 296.639 291.673 296.983 292.716 298.016C296.665 301.929 302.106 301.904 297.358 310.117Z" fill="#FAF8F0"/>
<path d="M687.29 368.821C693.16 359.834 698.02 346.961 696.841 336.023C696.674 334.478 695.339 331.916 694.055 331.29C684.469 326.617 668.187 336.708 663.18 344.802C660.071 349.827 660.877 358.173 659.188 363.771C657.872 368.387 653.12 372.912 653.551 377.202C656.124 381.488 661.208 379.789 664.734 377.656C671.833 373.361 667.075 363.296 667.759 358.86L668.345 358.954C671.076 362.926 671.619 365.505 671.11 370.518C670.391 377.595 662.095 383.655 655.14 381.738C644.753 378.875 655.187 367.677 656.841 362.302C658.171 357.691 658.066 353.432 658.989 348.792C661.365 339.548 671.11 332.935 679.563 329.794C683.874 328.192 690.843 327.054 694.831 329.061C701.812 332.574 698.921 345.557 697.322 351.418C695.589 357.766 692.315 364.69 688.161 369.643L687.29 368.821Z" fill="#010000"/>
<path d="M494.781 351.13C494.55 351.096 493.829 350.779 493.578 350.678C493.799 348.424 498.362 346.486 499.727 343.193C502.242 337.122 494.498 332.912 493.858 329.398C496.457 329.728 499.546 331.655 500.67 333.928C504.462 341.597 500.945 347.397 494.781 351.13Z" fill="#010000"/>
<path d="M476.029 342.139C472.043 341.957 472.285 343.294 468.519 343.264L468.211 342.676C470.875 339.912 472.689 339.707 476.364 338.615C479.395 338.543 482.111 338.835 484.143 341.226L484.062 342.174C481.506 344.057 478.902 342.843 476.029 342.139Z" fill="#010000"/>
<path d="M544.473 395.286L543.212 395.348C543.001 395.222 542.79 395.096 542.578 394.971C542.269 387.973 542.473 386.842 539.54 380.799C535.153 371.763 511.745 351.824 509.641 344.777C509.79 344.795 509.94 344.804 510.087 344.83C514.189 345.558 537.683 372.997 540.862 377.87C544.349 383.214 545.79 388.961 544.473 395.286Z" fill="#010000"/>
<path d="M714.487 374.887L714.039 374.442C714.382 373.307 720.525 366.525 721.913 364.74C726.896 358.329 729.295 351.818 732.982 344.77L733.596 345.301C734.641 352.923 720.838 370.641 714.487 374.887Z" fill="#010000"/>
<path d="M683.328 356.749C681.831 356.52 681.575 355.098 680.53 353.135C677.977 348.342 673.322 349.329 669.859 345.579C676.625 345.528 684.005 348.969 683.328 356.749Z" fill="#010000"/>
<path d="M688.161 369.642C686.715 371.357 685.684 372.407 684.065 373.967L684.174 373.765C683.74 374.08 683.304 374.447 682.882 374.785L682.695 374.694C683.644 372.463 685.608 370.652 687.29 368.82L688.161 369.642Z" fill="#0B070A"/>
<path d="M469.82 434.647C469.838 429.856 471.338 409.517 469.507 407.558C465.348 403.11 448.445 401.375 448.287 390.136C448.094 376.365 461.298 372.948 472.683 372.209C492.123 371.333 520.098 377.226 532.879 393.918C537.608 400.094 531.322 408.877 528.052 414.223C520.745 426.169 513.026 434.741 500.643 441.486C493.787 445.023 477.047 447.901 470.993 442.821L471.096 442.192C472.631 441.786 474.88 442.14 476.549 442.29L476.593 441.953C472.498 439.357 472.175 438.989 469.82 434.647ZM468.258 375.153C465.032 375.642 452.792 377.825 453.796 383.256C454.206 385.476 458.14 389.048 460.617 388.26C471.461 385.941 482.185 385.59 493.064 384.387C498.106 383.431 506.332 381.607 511.023 381.233C496.772 376.095 483.6 373.52 468.258 375.153ZM452.399 382.761C451.239 385.57 450.606 390.831 451.957 393.68C455.911 402.024 469.226 400.421 472.372 407.905C473.203 409.884 472.715 414.647 472.545 416.962C482.411 396.124 495.683 397.559 515.36 396.129C520.301 395.851 525.396 395.404 530.191 394.123C515.447 379.583 511.963 383.845 493.731 386.396C482.868 387.916 470.921 388.999 459.947 390.577C453.079 391.201 453.83 386.01 452.399 382.761ZM530.343 396.611C511.517 400.737 489.836 394.276 477.659 411.93C472.944 418.765 472.326 426.819 472.561 434.869C474.271 437.6 474.951 438.537 477.494 440.547C498.953 450.646 521.836 422.881 530.211 405.981C530.964 404.461 533.734 396.752 530.343 396.611Z" fill="#010000"/>
<path d="M493.065 384.386C482.186 385.589 471.462 385.94 460.618 388.259C458.141 389.047 454.207 385.475 453.797 383.255C452.793 377.824 465.033 375.641 468.259 375.152C483.601 373.519 496.773 376.094 511.024 381.232C506.333 381.606 498.107 383.43 493.065 384.386Z" fill="#FAF8F0"/>
<path d="M472.545 416.959C472.715 414.644 473.203 409.881 472.372 407.902C469.226 400.418 455.911 402.021 451.957 393.677C450.606 390.828 451.239 385.567 452.399 382.758C453.83 386.007 453.079 391.198 459.947 390.574C470.921 388.996 482.868 387.913 493.731 386.393C511.963 383.842 515.447 379.58 530.191 394.12C525.396 395.401 520.301 395.848 515.36 396.126C495.683 397.556 482.411 396.121 472.545 416.959Z" fill="#FFEDE1"/>
<path d="M472.562 434.867C472.327 426.817 472.945 418.763 477.66 411.928C489.837 394.274 511.518 400.735 530.344 396.609C533.735 396.75 530.965 404.459 530.212 405.979C521.837 422.879 498.954 450.644 477.495 440.545C474.952 438.535 474.272 437.598 472.562 434.867Z" fill="#F1C0E8"/>
<path d="M383.145 421.777C389.418 407.246 404.11 399.513 419.291 398.2C427.406 397.271 434.235 399.448 441.677 402.671C464.695 412.642 469.628 440.433 459.513 461.621C452.126 477.095 437.103 482.674 421.543 487.91C421.421 487.125 431.519 477.953 428.877 465.711C423.665 441.553 407.992 422.921 383.145 421.777Z" fill="#90DBF4"/>
<path d="M795.311 463.47C786.649 465.006 783.625 476.217 775.948 477.742L775.233 477.19C774.984 472.636 779.146 469.138 780.256 464.697C782.283 456.596 762.795 450.526 761.086 447.515C762.656 441.646 772.438 444.402 776.621 440.766C784.542 433.881 779.202 424.809 780.243 417.156C787.895 419.364 789.214 431.342 798.888 434.412C804.642 436.238 816.343 432.094 818.239 435.3C815.781 443.294 803.245 437.597 804.032 461.294C805.748 463.936 810.335 469.458 808.157 472.463C804.731 473.219 799.157 468.659 797.244 466.054L795.311 463.47ZM787.621 436.272C784.478 440.633 781.849 444.598 777.935 448.334C780.511 452.08 781.828 455.377 783.646 459.492C785.23 458.622 786.967 457.614 788.569 456.818C791.374 456.969 793.99 457.035 796.752 457.61C797.702 452.006 798.92 445.489 799.557 439.898C795.401 439.226 791.579 437.696 787.621 436.272Z" fill="#FBF8CC"/>
<path d="M362.324 437.163C368.234 431.347 374.465 427.101 382.2 424.107C395.125 423.476 407.636 431.051 415.217 441.131C428.067 458.218 433.136 477.41 413.282 491.583C413.898 486.846 414.233 485.49 412.615 480.864C407.03 470.207 396.953 472.364 389.173 479.327C384.584 465.686 372.631 447.23 362.324 437.163Z" fill="#A3C4F3"/>
<path d="M320.789 450.397C330.939 442.76 337.312 437.977 349.953 436.672C352.003 436.766 355.28 437.196 357.136 438.002C370.071 443.619 381.706 468.514 386.994 480.889C378.689 489.844 373.89 490.836 364.369 483.588C359.814 477.263 354.928 470.225 349.026 465.104C339.717 457.025 333.598 450.092 320.789 450.397Z" fill="#CFFAF0"/>
<path d="M777.934 448.335C781.848 444.599 784.477 440.634 787.62 436.273C791.578 437.697 795.4 439.227 799.556 439.899C798.919 445.49 797.701 452.007 796.751 457.611C793.989 457.036 791.373 456.97 788.568 456.819C786.966 457.615 785.229 458.623 783.645 459.493C781.827 455.378 780.51 452.081 777.934 448.335Z" fill="#FDE4CF"/>
<path d="M674.258 489.885C689.339 471.546 691.168 466.794 696.381 444.281C702.047 455.133 711.687 465.161 719.652 474.694C719.117 479.426 717.937 486.789 716.034 491.171C711.351 491.672 702.682 490.604 697.581 490.251C691.561 489.835 683.028 489.845 677.365 488.938L676.674 488.824L675.113 490.16L674.258 489.885Z" fill="#F1C0E8"/>
<path d="M471.166 462.072C470.015 461.335 469.67 461.326 469.117 460.139C470.853 459.591 476.069 461.795 479.229 461.455C489.049 460.398 495.856 457.001 502.726 449.387C503.37 449.535 503.45 449.701 504.049 450.101C503.651 453.377 495.073 458.725 491.993 460.108C485.525 463.011 478.005 464.565 471.166 462.072Z" fill="#010000"/>
<path d="M285.75 479.179C294.913 470.043 307.416 458.394 319.105 453.12C322.914 452.834 326.883 452.41 330.287 454.361C345.128 462.808 355.576 475.355 364.502 489.615C372.255 502 382.015 512.536 361.569 518.397C354.694 515.7 354.816 514.957 350.395 508.738C340.797 496.103 326.638 482.927 310.486 479.941C301.752 478.326 294.528 477.536 285.75 479.179Z" fill="#CFFAF0"/>
<path d="M426.445 488.444C437.827 484.758 447.623 479.94 455.989 471.184C460.249 503.241 480.882 508.685 509.253 502.252C513.216 505.051 534.786 523.804 529.83 529.037C526.46 530.435 524.531 532.688 523.03 536.009C522.902 535.712 522.757 535.323 522.54 535.082C520.36 532.671 494.1 532.673 489.05 531.967C470.453 529.371 451.043 522.059 439.094 506.939C434.467 501.084 430.992 494.387 426.445 488.444Z" fill="#FAF8F0"/>
<path d="M377.531 508.146C376.337 504.383 370.441 494.57 370.885 492.512C374.408 490.274 379.832 490.071 382.761 487.96C388.83 483.586 391.439 479.36 398.531 476.051C410.263 475.081 414.874 484.879 409.601 493.56C396.748 514.719 394.497 541.308 384.116 562.979C377.694 576.386 364.551 584.439 359.633 601.382C353.788 621.521 357.13 635.773 356.302 655.604C338.559 668.693 302.877 681.142 281.512 670.519C280.986 651.009 284.721 629.077 278.798 610.382C276.736 603.876 273.018 596.9 269.826 590.816L268.059 587.423C281.335 577.531 296.443 567.381 310.066 557.839L359.908 522.739C363.623 520.175 367.495 519.405 371.349 516.762C374.504 514.598 374.591 512.586 377.415 510.719L378.347 511.008L378.494 511.771C366.058 524.879 351.405 545.277 351.209 564.245C351.194 565.764 351.379 566.108 352.287 566.945C354.08 566.103 354.14 562.268 354.357 560.355C356.567 540.88 370.123 524.935 382.887 510.697L382.498 509.809C380.558 508.613 379.83 508.614 377.531 508.146ZM323.674 554.425C324.932 558.353 327.648 561.198 328.989 564.601C332.426 573.324 335.878 585.541 332.109 594.612C328.715 602.835 314.911 604.208 314.469 607.981C315.512 608.765 314.921 608.54 316.25 608.635C323.011 605.296 331.737 602.78 334.77 595.054C338.37 585.88 333.894 557.181 323.674 554.425Z" fill="#CFFAF0"/>
<path d="M718.691 490.756C720.217 485.568 721.398 481.104 721.741 475.691C726.316 479.984 731.805 484.183 732.135 490.752L718.691 490.756Z" fill="#FFEDE1"/>
<path d="M257.016 545.736C259.274 532.703 259.66 516.922 264.41 504.853C268.146 498.984 278.262 486.461 283.338 482.6C288.695 478.524 306.317 481.785 311.966 483.02C326.121 486.114 347.716 504.937 352.811 517.96C339.963 521.529 329.317 520.461 317.896 513.879C308.448 508.434 302.87 506.66 292.032 507.595C290.219 507.751 286.01 505.719 284.614 506.073C291.991 512.14 294.366 509.641 303.028 510.254C296.736 516.768 284.41 525.562 276.945 531.458C272.004 535.36 262.676 542.849 257.642 546.119L257.016 545.736Z" fill="#CFFAF0"/>
<path d="M412.419 493.86C417.513 491.635 421.072 490.046 426.442 488.441C430.989 494.384 434.464 501.081 439.091 506.936C451.04 522.056 470.45 529.368 489.047 531.964C494.097 532.67 520.357 532.668 522.537 535.079C522.754 535.32 522.899 535.709 523.027 536.006C522.221 538.031 522.106 538.854 520.514 540.21L519.652 540.446C512.345 541.073 505.482 542.777 498.417 544.405C466.963 551.655 446.98 566.698 426.263 590.712C420.101 588.401 409.54 581.034 401.842 578.071C396.608 576.056 385.895 572.839 382.152 570.898C388.782 561.305 389.98 554.606 393.443 543.898C398.958 526.85 402.761 509.068 412.419 493.86Z" fill="#98F5E1"/>
<path d="M585.91 576.41C588.43 573.571 591.035 571.018 593.715 568.342C613.213 548.867 633.287 530.029 653.313 511.108C660.448 504.367 667.318 496.873 674.258 489.885L675.113 490.16L676.674 488.824L677.365 488.938C683.028 489.845 691.561 489.835 697.581 490.251C702.682 490.604 711.351 491.672 716.034 491.171C705.058 522.211 665.277 567.575 641.448 590.619C637.405 594.528 630.89 599.424 625.079 598.979C615.404 598.236 591.824 583.212 585.91 576.41Z" fill="#FFCFD2"/>
<path d="M533.27 526.124C558.413 509.484 593.613 498.065 623.405 493.238C631.694 491.895 664.966 486.767 670.43 490.521C648.446 513.546 624.72 534.081 602.46 556.747C597.585 561.711 586.708 571.303 583.229 575.953C588.4 585.808 596.621 587.071 604.645 592.895C628.407 610.144 640.062 597.083 657.073 578.242C679.031 553.923 707.545 522.379 718.693 490.753L732.138 490.749C728.246 524.15 680.956 577.521 654.614 597.395C648.075 602.273 630.192 617.447 621.711 615.356C610.365 612.559 596.059 594.151 587.323 586.1C584.815 583.787 578.841 574.794 575.904 576.366C575.433 577.785 575.465 577.682 575.817 579.146C573.51 577.774 576.194 578.727 573.958 576.728C560.756 571.409 543.293 555.897 538.023 542.384C536.057 537.345 535.333 531.419 533.27 526.124Z" fill="#F1C0E8"/>
<path d="M734.542 491.379C737.518 492.356 751.257 492.761 755.302 492.891C768.201 493.303 779.941 495.748 792.501 498.5C825.697 505.639 862.205 518.285 879.111 550.233C887.562 565.87 887.361 566.669 890.751 583.013C889.196 584.499 880.538 592.415 879.598 593.607C847.88 550.938 782.269 516.141 733.473 496.144L734.542 491.379Z" fill="#FFCFD2"/>
<path d="M877.958 595.402C872.831 599.099 866.024 604.12 860.548 607.013C841.2 617.238 816.271 625.552 794.851 629.63L793.148 629.78C787.304 626.883 779.821 628.631 775.089 626.378C784.24 612.252 801.933 599.806 817.117 592.75C819.952 591.432 833.554 586.745 834.145 584.848C831.982 584.083 823.482 587.53 821.234 588.444C801.282 596.559 785.831 608.353 772.907 625.564C767.523 625.26 753.517 622.285 747.807 621.214C728.064 617.511 708.302 613.404 688.538 610.068C683.76 609.261 650.565 605.532 648.793 604.73C682.568 578.399 719.444 540.318 732.993 498.77C742.475 501.729 755.681 508.23 764.912 512.92C807.258 534.431 848.96 556.95 877.958 595.402Z" fill="#FFCFD2"/>
<path d="M215.949 588.063C221.675 577.242 238.616 565.229 248.223 557.123C259.997 547.187 273.185 537.86 285.181 528.135C290.772 523.603 301.567 516.806 305.202 510.883C307.549 511.407 310.973 513.345 313.222 514.57C321.957 519.325 327.498 522.25 337.505 522.965C344.573 523.471 353.962 519.802 358.766 519.721C356.769 522.161 338.651 534.351 334.868 537.031L256.874 592.069C250.251 597.02 244.141 601.161 237.227 605.692C237.384 599.025 231.341 587.14 224.6 584.634C222.051 583.686 218.167 586.66 215.949 588.063Z" fill="#CFBAF0"/>
<path d="M523.03 536.007C524.531 532.686 526.46 530.433 529.83 529.035C527.686 533.997 525.219 539.513 524.334 544.875C521.168 564.422 527.862 584.317 534.897 602.378C537.71 609.6 539.972 611.786 547.203 607.328C557.393 601.045 565.254 583.335 573.805 577.228L573.957 576.729C576.193 578.728 573.509 577.775 575.816 579.147C579.232 582.516 586.315 605.059 588.374 611.122C586.7 613.363 580.517 613.434 577.493 613.791C575.584 607.509 571.819 596.753 569.436 590.707C570.722 588.939 573.896 585.865 572.804 583.829C568.553 585.014 556.121 608.073 552.356 613.092C548.636 618.05 546.918 620.238 542.336 624.951C526.093 603.514 517.366 589.938 517.885 561.714C518.019 554.434 517.507 547.633 519.655 540.447L520.517 540.211C522.109 538.855 522.224 538.032 523.03 536.007Z" fill="#FDE4CF"/>
<path d="M554.422 597.282C549.221 603.746 541.384 613.435 536.822 601.043C530.21 583.082 523.162 563.907 526.787 544.457C527.756 539.262 530.065 534.148 532.131 529.332C532.726 531.142 533.304 533.603 533.719 535.485C538.032 555.04 552.991 567.112 569.559 577.171C564.543 583.316 559.605 590.741 554.422 597.282Z" fill="#FFCFD2"/>
<path d="M174.875 532.996C178.599 535.11 182.212 536.85 186.031 538.714C202.682 546.842 219.951 553.392 237.788 558.385C238.621 558.619 239.614 559.512 240.166 560.158C232.026 566.989 223.599 573.574 216.57 581.528C214.381 584.006 215.64 587.306 213.592 589.9C205.014 600.761 183.456 605.376 198.817 620.379C194.711 620.322 191.578 623.573 188.626 626.573C167.732 647.807 154.111 667.299 154.116 698.101C154.123 746.288 182.806 776.796 203.272 816.751C214.275 838.231 220.469 859.751 222.547 883.795C216.388 882.285 168.51 844.197 159.247 837.476C115.532 805.762 81.6977 759.745 93.5821 702.797C102.922 658.042 134.901 636.221 155.171 597.468C163.892 580.632 169.879 562.468 171.104 543.551C171.207 542.127 174.063 535.863 174.722 533.55L174.875 532.996Z" fill="#CFBAF0"/>
<path d="M516.165 546.348C513.29 548.363 511.224 551.369 509.112 554.144C487.246 582.881 482.276 625.541 503.865 655.848C518.902 676.958 541.55 689.426 566.644 694.187C569.209 694.68 574.233 695.158 576.428 695.941C562.981 743.97 543.441 792.853 554.235 843.234C558.268 862.056 565.408 879.16 568.648 898.19C558.486 900.059 547.822 901.262 537.559 901.254C525.602 901.245 495.818 896.378 487.323 887.464C486.9 884.497 486.495 882.909 484.814 880.482C486.391 877.792 496.569 869.059 499.835 865.96C507.434 858.75 513.277 852.278 519.754 843.972C537.357 821.397 549.13 778.234 543.705 749.24C532.377 698.914 495.835 652.976 460.939 616.4C450.991 605.974 439.617 599.685 428.59 591.673C448.558 567.075 474.736 550.254 505.928 544.569C508.664 544.07 513.499 542.698 515.993 543.178C516.769 544.391 516.407 544.486 516.165 546.348Z" fill="#98F5E1"/>
<path d="M576.427 695.941C574.232 695.158 569.208 694.68 566.643 694.187C541.549 689.426 518.901 676.958 503.864 655.848C482.275 625.541 487.245 582.881 509.111 554.144C511.223 551.369 513.289 548.363 516.164 546.348C513.916 580.293 518.626 602.178 542.264 627.612C546.572 624.085 549.069 621.138 552.487 616.72C555.567 616.544 573.379 614.335 574.828 613.127C586.461 644.011 583.455 665.395 576.427 695.941Z" fill="#FFEDE1"/>
<path d="M316.25 608.636C314.921 608.541 315.512 608.766 314.469 607.982C314.911 604.209 328.715 602.836 332.109 594.613C335.878 585.542 332.426 573.325 328.989 564.602C327.648 561.199 324.932 558.354 323.674 554.426C333.894 557.182 338.37 585.881 334.77 595.055C331.737 602.781 323.011 605.297 316.25 608.636Z" fill="#010000"/>
<path d="M358.466 636.424C358.242 603.2 362.21 595.723 382.154 570.898C385.897 572.839 396.61 576.056 401.844 578.071C409.542 581.034 420.103 588.401 426.265 590.712C412.142 608.817 400.551 629.563 392.067 650.834C386.98 663.588 381.342 676.112 376.407 688.929C375.407 683.526 371.733 671.763 372.617 666.969C375.247 652.723 379.389 638.122 358.466 636.424Z" fill="#6AF6D6"/>
<path d="M579.176 580.133C588.149 590.915 598.275 600.941 608.656 610.352C605.387 612.264 595.43 611.997 591.082 612.099C587.613 601.605 583.841 590.113 579.176 580.133Z" fill="#FFCFD2"/>
<path d="M772.906 625.564C785.83 608.353 801.281 596.559 821.233 588.444C823.481 587.53 831.981 584.083 834.144 584.848C833.553 586.745 819.951 591.432 817.116 592.75C801.932 599.806 784.239 612.252 775.088 626.378C773.414 628.677 771.74 630.961 770.11 633.292C748.118 662.997 732.066 702.36 732.511 739.6C734.656 735.805 736.215 731.818 738.044 727.853C751.643 698.377 769.585 669.246 795.586 649.149C797.466 647.695 799.654 645.973 801.907 645.223L802.175 645.844C798.939 649.782 793.551 653.222 789.726 656.726C763.863 680.415 747.116 712.158 733.201 743.882C727.114 757.759 719.7 771.818 721.052 787.425C721.409 791.894 723.931 797.174 723.871 801.066C722.845 800.738 721.79 799.158 721.421 798.27C713.241 778.581 724.531 759.111 731.646 741.164C731.884 740.565 731.424 739.586 731.149 739.063C729.53 736.045 730.507 731.68 730.683 728.355C732.501 693.916 747.687 662.932 766.375 634.509C767.998 632.613 771.289 627.782 772.906 625.564Z" fill="#010000"/>
<path d="M200.109 605.484C206.615 600.048 215.46 591.303 221.872 586.785C227.554 587.743 231.546 595.962 233.822 600.603C226.736 604.909 219.634 610.26 212.55 614.851C208.355 609.46 206.396 607.984 200.109 605.484Z" fill="#F1C0E8"/>
<path d="M378.117 690.53C381.12 682.303 385.363 673.477 388.613 665.188C398.867 639.033 410.807 613.727 428.591 591.672C439.618 599.684 450.992 605.973 460.94 616.399C495.836 652.975 532.378 698.913 543.706 749.239C549.131 778.233 537.358 821.396 519.755 843.971C513.278 852.277 507.435 858.749 499.836 865.959C496.57 869.058 486.392 877.791 484.815 880.481L484.652 880.512L484.444 879.92C481.172 870.851 475.781 862.745 472.423 853.84C458.377 816.593 453.358 775.903 448.704 736.569C447.631 727.493 450.082 717.047 450.24 707.885C450.601 689.439 449.54 669.34 444.804 651.494C443.386 646.152 433.968 623.353 429.779 620.92C429.397 623.163 434.21 632.007 435.417 634.383C448.316 659.764 450.155 697.333 446.581 725.221C442.85 701.8 432.337 677.258 424.708 654.668C422.838 649.131 419.22 635.717 416.331 631.513L415.543 631.326C415.173 633.625 418.903 643.475 419.773 646.386C429.418 678.664 444.496 709.407 447.08 743.433C447.469 748.511 448.484 754.745 449.303 759.844C445.406 753.934 439.706 742.656 435.651 737.627C431.655 732.669 415.302 706.103 412.133 704.3C411.711 705.389 412.12 707.077 412.72 708.04C422.401 723.584 434.139 737.794 443.126 753.814C444.936 757.04 447.249 760.444 448.782 763.853C451.651 773.071 452.779 784.963 454.578 794.722C456.973 807.713 458.971 818.339 462.697 831.051C465.636 841.082 468.087 849.685 472.378 859.3C475.517 866.335 480.076 874.34 482.322 881.45C479.682 880.641 474.697 873.541 472.479 870.963C454.011 849.495 448.137 823.426 446.792 795.915C446.639 792.781 446.087 782.579 442.538 781.824C442.322 771.575 410.12 755.094 401.1 753.434C398.001 752.864 396.82 751.707 394.339 753.889C392.82 753.656 393.526 753.55 392.146 754.209C391.728 755.205 391.759 754.833 391.749 755.857C390.216 744.778 389.874 735.978 386.214 725.114C383.661 717.537 379.953 709.934 377.712 702.446L377.465 701.606C381.887 698.163 384.077 694.084 378.117 690.53Z" fill="#6AF6D6"/>
<path d="M567.961 592.668C570.096 599.784 572.315 606.123 574.829 613.125C573.38 614.333 555.568 616.542 552.488 616.718C558.459 608.567 562.374 600.798 567.961 592.668Z" fill="#FDE4CF"/>
<path d="M215.581 621.13C215.604 621.177 214.89 619.729 214.917 619.753C214.756 619.609 214.134 617.49 214.157 617.458C217.444 612.793 232.165 606.742 233.915 602.055L234.159 602.179C234.398 603.748 234.098 605.797 233.942 607.434C227.938 611.347 221.343 616.679 215.581 621.13Z" fill="#C0E4FD"/>
<path d="M608.656 610.352C625.89 624.857 633.135 615.297 648.793 604.73C650.565 605.532 683.76 609.261 688.538 610.068C708.302 613.404 728.064 617.511 747.807 621.214C753.517 622.285 767.523 625.261 772.907 625.565C771.29 627.783 767.999 632.613 766.376 634.509C760.359 632.331 734.434 643.034 727.83 646.026C715.613 651.562 705.203 659.133 693.812 665.646C659.998 684.977 630.778 696.537 591.372 696.561C598.828 669.645 598.595 638.924 591.082 612.099C595.43 611.997 605.387 612.264 608.656 610.352Z" fill="#FFEDE1"/>
<path d="M211.017 623.921C208.196 620.104 203.493 612.793 199.182 610.9C197.891 610.333 197.662 610.777 196.386 611.356L196.038 611.01C195.954 609.309 196.706 608.626 197.707 607.207C203.743 608.602 211.872 616.313 212.517 622.526C211.836 623.826 212.334 623.391 211.017 623.921Z" fill="#C0E4FD"/>
<path d="M588.373 611.121C595.735 633.415 595.989 655.854 592.571 678.861C591.654 685.027 590.25 690.966 589.282 696.959C585.944 696.544 581.787 696.326 578.374 696.058C586.753 664.898 587.529 644.851 577.492 613.79C580.516 613.433 586.699 613.362 588.373 611.121Z" fill="#FFEDE1"/>
<path d="M207.03 622.653C201.8 620.991 198.249 617.38 196.234 612.348C200.393 613.908 204.266 619.187 207.03 622.653Z" fill="#C0E4FD"/>
<path d="M198.814 620.38C199.465 621.164 200.222 621.977 200.721 622.841C132.82 679.139 155.07 729.375 196.161 791.806C222.488 831.806 239.397 882.759 222.563 929.199C220.361 935.766 208.879 965.171 204.863 970.412L204.279 970.335C203.05 962.267 211.917 946.07 214.464 937.755C219.611 920.944 223.989 901.399 222.544 883.796C220.466 859.752 214.272 838.232 203.269 816.752C182.803 776.797 154.12 746.289 154.113 698.102C154.108 667.3 167.729 647.808 188.623 626.574C191.575 623.574 194.708 620.323 198.814 620.38Z" fill="#3A4A81"/>
<path d="M446.578 725.223C450.152 697.335 448.313 659.766 435.414 634.385C434.207 632.009 429.394 623.165 429.776 620.922C433.965 623.355 443.383 646.154 444.801 651.496C449.537 669.342 450.598 689.441 450.237 707.887C450.079 717.049 447.628 727.495 448.701 736.571C453.355 775.905 458.374 816.595 472.42 853.842C475.778 862.747 481.169 870.853 484.441 879.922L484.649 880.514L483.278 881.836L482.319 881.452C480.073 874.342 475.514 866.337 472.375 859.302C468.084 849.687 465.633 841.084 462.694 831.053C458.968 818.341 456.97 807.715 454.575 794.724C452.776 784.965 451.648 773.073 448.779 763.855C447.246 760.446 444.933 757.042 443.123 753.816C434.136 737.796 422.398 723.586 412.717 708.042C412.117 707.079 411.708 705.391 412.13 704.302C415.299 706.105 431.652 732.671 435.648 737.629C439.703 742.658 445.403 753.936 449.3 759.846C448.481 754.747 447.466 748.513 447.077 743.435C444.493 709.409 429.415 678.666 419.77 646.388C418.9 643.477 415.17 633.627 415.54 631.328L416.328 631.515C419.217 635.719 422.835 649.133 424.705 654.67C432.334 677.26 442.847 701.802 446.578 725.223Z" fill="#010000"/>
<path d="M770.109 633.293C771.739 630.962 773.413 628.678 775.087 626.379C779.819 628.632 787.302 626.884 793.146 629.781C786.666 631.097 776.677 632.654 770.109 633.293Z" fill="#CFFAF0"/>
<path d="M793.146 629.779L794.849 629.629C803.22 632.204 812.192 634.463 820.163 638.176C843.41 649.005 868.969 669.391 881.113 691.984C890.609 709.652 892.196 734.033 886.086 752.758C878.51 775.975 858.412 795.425 837.044 806.139C806.727 821.341 779.13 820.04 746.622 819.695C741.988 819.646 730.622 819.959 726.356 820.548C726.74 818.024 728.113 806.563 729.232 805.656L730.643 806.205C730.722 804.32 728.876 804.333 729.337 801.376C733.075 777.4 769.938 731.687 783.808 710.124C784.633 708.84 785.41 708.063 784.588 706.568C781.205 708.17 743.989 763.42 740.626 770.1C737.494 776.324 731.917 785.376 729.461 792.991C726.43 802.384 725.606 812.548 723.841 822.37C715.425 819.19 671.418 842.875 662.901 848.53C638.317 864.852 613.212 884.715 584.218 892.913C581.268 878.27 572.877 859.122 569.316 842.218C557.879 787.936 579.09 747.349 591.37 696.56C630.776 696.536 659.996 684.976 693.81 665.645C705.201 659.132 715.611 651.56 727.828 646.024C734.432 643.032 760.357 632.33 766.374 634.508C747.686 662.931 732.5 693.915 730.682 728.354C730.506 731.679 729.529 736.044 731.148 739.062C731.423 739.585 731.883 740.564 731.645 741.163C724.53 759.11 713.24 778.58 721.42 798.269C721.789 799.157 722.844 800.737 723.87 801.065C723.93 797.173 721.408 791.893 721.051 787.424C719.699 771.817 727.113 757.758 733.2 743.881C747.115 712.157 763.862 680.414 789.725 656.725C793.55 653.221 798.938 649.781 802.174 645.843L801.906 645.222C799.653 645.972 797.465 647.694 795.585 649.148C769.584 669.245 751.642 698.376 738.043 727.852C736.214 731.817 734.655 735.804 732.51 739.599C732.065 702.359 748.117 662.996 770.109 633.291C776.677 632.652 786.666 631.095 793.146 629.779Z" fill="#98F5E1"/>
<path d="M359.318 653.733C358.927 648.641 358.563 644.003 358.504 638.879C378.268 639.49 373.715 663.717 365.59 673.046C354.531 685.745 330.311 695.501 313.799 697.424C300.082 699.021 276.97 695.514 265.919 686.293C262.213 673.989 256.773 668.547 264.46 656.382C268.357 650.864 274.507 644.419 279.516 640.037C279.514 645.708 279.43 651.235 279.291 656.904C277.095 657.831 272.362 659.703 271.746 662.027C269.802 669.948 279.365 673.576 285.664 675.115C310.068 681.078 338.533 672.101 358.188 657.383C362.806 653.925 365.563 647.536 366.852 642.167C363.817 645.517 361.579 649.795 359.318 653.733Z" fill="#8EECF5"/>
<path d="M273.98 664.641C274.01 662.783 275.389 660.918 277.046 660.152L278.136 660.483C279.124 662.337 278.74 662.278 278.641 664.743C276.814 664.418 275.714 664.021 273.98 664.641Z" fill="#8EECF5"/>
<path d="M273.98 664.642C275.714 664.022 276.814 664.419 278.641 664.744C278.874 666.292 279.044 667.715 278.04 668.939L276.817 668.657C275.041 667.049 275.024 666.866 273.98 664.642Z" fill="#CFFAF0"/>
<path d="M261.566 702.575C263.347 698.541 264.864 694.882 265.561 690.502L265.706 689.621C265.731 689.444 265.757 689.267 265.782 689.09C296.151 710.526 347.85 699.138 370.239 671.109L371.574 677.63C372.839 682.587 374.377 687.959 374.988 692.998C370 702.709 353.717 709.567 343.69 712.814C321.882 719.877 293.729 720.102 272.893 709.631C268.357 707.352 264.814 704.288 261.566 702.575Z" fill="#8EECF5"/>
<path d="M378.115 690.531C384.075 694.085 381.885 698.164 377.463 701.607C376.609 696.614 376.911 695.268 378.115 690.531Z" fill="#98F5E1"/>
<path d="M578.372 696.059C581.785 696.327 585.942 696.545 589.28 696.96C576.047 746.468 555.981 789.717 566.984 841.91C568.879 850.903 571.676 860.599 574.648 869.285C577.173 876.668 579.51 886.684 582.156 893.564C579.569 894.229 572.767 895.778 570.722 896.878C566.599 876.871 560.079 859.87 556.053 839.872C548.904 804.369 556.919 770.467 566.785 736.371C570.522 723.46 575.634 709.187 578.372 696.059Z" fill="#CFFAF0"/>
<path d="M275.957 874.014C258.095 847.76 254.171 813.601 261.199 783.126C265.971 762.435 264.874 747.997 258.66 727.746C255.906 718.772 257.675 710.822 261.565 702.573C261.962 705.319 264.013 707.454 266.347 708.831C299.344 728.304 345.37 721.926 374.328 699.23L375.562 704.319C370.177 711.81 365.608 719.912 360.588 727.654C353.509 738.571 346.012 749.31 338.502 759.94C321.828 783.538 272.974 835.783 277.617 864.923C277.937 866.928 278.806 868.707 279.733 870.49L278.233 869.915C276.935 871.364 276.283 872.022 275.957 874.014Z" fill="#8EECF5"/>
<path d="M279.735 870.491C278.808 868.708 277.938 866.929 277.618 864.924C272.975 835.784 321.829 783.539 338.503 759.941C346.013 749.311 353.51 738.571 360.589 727.654C365.609 719.912 370.178 711.811 375.563 704.32C377.832 711.071 382.762 720.46 384.223 726.675C392.714 762.8 393.208 802.428 388.178 839.107C387.891 841.196 387.054 844.447 388.001 846.347L388.868 846.386C392.928 841.832 393.781 793.252 393.756 785.254C407.593 807.881 406.75 828.877 404.405 854.132C404.308 855.17 404.849 855.255 405.521 855.562C406.654 854.69 406.633 853.935 406.837 852.492C409.863 831.126 408.967 798.56 393.567 781.584C393.287 773.192 392.426 764.273 391.748 755.857C391.758 754.833 391.727 755.205 392.145 754.209C393.525 753.55 392.819 753.656 394.338 753.889C407.955 758.297 419.344 762.328 431.1 771.246C434.076 773.504 439.978 780.459 442.537 781.824C446.086 782.579 446.638 792.781 446.791 795.915C448.136 823.426 454.01 849.495 472.478 870.963C474.696 873.541 479.681 880.641 482.321 881.45L483.28 881.834C478.567 888.048 469.206 893.337 462.385 897.011C460.496 898.029 456.347 900.043 454.915 901.307C420.979 916.255 385.72 921.553 349.429 911.637C326.515 905.377 295.813 888.442 279.735 870.491ZM411.516 775.999C413.646 778.941 416.779 781.097 418.76 783.82C425.29 792.796 429.94 803.129 434.271 813.305C435.364 815.872 435.946 820.29 439.038 820.413C438.731 817.953 437.747 815.327 436.781 813.046C433.383 805.019 421.21 775.004 411.516 775.999Z" fill="#A3C4F3"/>
<path d="M723.841 822.368C725.606 812.546 726.43 802.382 729.461 792.989C731.917 785.374 737.494 776.322 740.626 770.098C743.989 763.418 781.205 708.168 784.588 706.566C785.41 708.061 784.633 708.838 783.808 710.122C769.938 731.685 733.075 777.398 729.337 801.374C728.876 804.331 730.722 804.318 730.643 806.203L729.232 805.654C728.113 806.561 726.74 818.022 726.356 820.546C725.236 827.85 715.699 861.93 708.668 864.957C708.149 861.142 712.931 855.382 714.498 851.926C718.694 842.667 721.884 832.353 723.841 822.368Z" fill="#010000"/>
<path d="M394.34 753.889C396.821 751.707 398.002 752.864 401.101 753.434C410.121 755.094 442.323 771.575 442.539 781.824C439.98 780.459 434.078 773.504 431.102 771.246C419.346 762.328 407.957 758.297 394.34 753.889Z" fill="#010000"/>
<path d="M439.038 820.415C435.946 820.292 435.364 815.874 434.271 813.307C429.94 803.131 425.29 792.798 418.76 783.822C416.779 781.099 413.646 778.943 411.516 776.001C421.21 775.006 433.383 805.021 436.781 813.048C437.747 815.329 438.731 817.955 439.038 820.415Z" fill="#010000"/>
<path d="M484.65 880.511L484.813 880.48C486.494 882.907 486.899 884.495 487.322 887.462C485.02 887.114 482.861 886.822 480.589 886.29C474.15 891.211 462.716 899.379 454.914 901.307C456.346 900.043 460.495 898.028 462.384 897.01C469.205 893.336 478.566 888.047 483.279 881.833L484.65 880.511Z" fill="#C0E4FD"/>
<defs>
<linearGradient id="paint0_linear_2293_130010" x1="434.429" y1="279.742" x2="720.865" y2="390.93" gradientUnits="userSpaceOnUse">
<stop stop-color="#FAFFE9"/>
<stop offset="1" stop-color="#FDD0FE"/>
</linearGradient>
</defs>
</svg>
