<svg width="1024" height="1024" viewBox="0 0 1024 1024" fill="none" xmlns="http://www.w3.org/2000/svg">
<path d="M157.975 370.517C145.777 335.099 143.331 307.757 150.924 270.882C174.371 157.014 289.298 87.7343 401.417 110.666C436.142 117.768 456.202 143.136 474.049 171.498L473.939 171.824C470.949 172.914 464.234 178.397 461.371 180.475C411.797 216.451 374.834 266.532 326.375 303.587C322.751 306.357 306.152 316.168 304.928 318.311C291.607 321.913 286.043 325.049 274.56 332.334C269.726 332.878 260.6 335.907 254.857 337.082C228.669 342.44 205.231 346.21 180.631 357.541C171.654 361.676 165.084 366.967 157.975 370.517Z" fill="#C0F4EA"/>
<path d="M474.049 171.497C485.473 163.294 498.85 156.429 511.287 149.912C570.056 119.117 639.969 106.951 705.814 117.731C769.42 127.617 826.44 162.507 864.193 214.643C900.356 264.598 914.746 327.069 904.081 387.81C903.318 392.333 901.994 399.084 900.233 403.324C870.749 389.224 846.348 381.25 812.736 385.123C809.386 385.509 795.933 389.63 794.739 389.301C790.787 384.433 783.978 379.71 778.815 376.314C775.805 363.949 756.632 340.285 745.281 335.322C714.732 286.357 658.516 267.684 603.388 279.868C601.525 278.72 592.398 276.108 589.414 275.078C581.457 272.361 573.618 269.309 565.919 265.93C518.406 244.832 498.041 215.05 473.939 171.823L474.049 171.497Z" fill="#CFBAF0"/>
<path d="M304.929 318.311C306.153 316.168 322.752 306.357 326.376 303.587C374.835 266.532 411.798 216.451 461.372 180.475C464.235 178.397 470.95 172.914 473.94 171.824C498.042 215.051 518.407 244.833 565.92 265.931C573.619 269.31 581.458 272.362 589.415 275.079C592.399 276.109 601.526 278.721 603.389 279.869C551.813 294.943 516.812 324.458 482.985 365.155C480.09 362.721 473.361 360.38 469.731 359.059C445.305 350.171 418.169 347.616 392.525 351.886C389.42 352.404 381.405 354.097 378.784 355.354C365.033 351.126 355.452 350.828 342.282 357.765C333.752 362.358 326.4 368.863 320.803 376.772C303.547 401.175 288.03 458.994 278.604 487.963L261.675 489.432C261.491 489.054 260.669 487.473 260.447 487.33C256.538 484.803 238.173 472 235.134 474.441C233.077 471.443 230.48 463.832 229.382 460.207C212.768 405.333 245.407 341.974 298.533 321.815C306.323 318.859 311.868 319.187 318.872 317.14L318.71 316.449C314.673 316.151 308.906 317.487 304.929 318.311ZM313.923 332.579C264.145 346.821 232.061 404.687 246.609 454.691C247.147 456.54 247.963 459.157 249.116 460.656L250.129 460.71C248.514 454.383 246.545 447.479 245.677 440.996C242.686 418.65 248.494 396.331 259.703 376.921C269.387 360.152 286.729 345.995 304.049 337.568C306.1 336.57 315.411 333.765 315.63 332.545C315.022 332.533 314.507 332.479 313.923 332.579ZM312.46 361.005C291.841 372.475 278.987 393.637 272.084 415.667C270.562 420.523 266.792 439.036 269.806 443.074C271.143 440.082 270.102 433.646 270.607 429.999C274.13 404.524 288.194 378.067 310.125 363.869C311.118 363.226 313.009 362.229 312.46 361.005Z" fill="#8EECF5"/>
<path d="M603.388 279.87C658.516 267.686 714.732 286.359 745.281 335.324C751.016 346.949 755.119 354.976 757.262 368.101C764.765 369.917 772.007 372.677 778.815 376.316C783.978 379.712 790.787 384.435 794.739 389.303L793.921 390.064C761.896 359.927 720.086 361.954 685.32 386.468C672.528 373.159 648.737 370.597 635.187 383.827C631.786 387.147 629.908 391.644 627.245 394.541C626.518 394.391 626.955 394.432 625.929 394.563C623.938 395.19 622.978 395.113 621.187 394.219C619.997 392.112 620.203 390.154 622.668 389.285C628.126 389.85 626.64 394.109 631.926 386.409C638.579 376.716 647.535 375.209 658.545 373.33C658.119 372.371 657.483 371.996 656.649 371.237C661.06 373.784 663.918 374.096 668.766 375.571C675.631 377.66 679.922 380.13 685.656 384.279C694.436 378.633 699.358 375.165 709.107 371.563C708.913 371.081 708.714 370.601 708.511 370.124C699.401 348.591 683.063 332.951 661.488 324.528C604.311 302.208 568.847 335.182 519.81 356.578C509.737 360.06 497.859 365.676 488.576 368.563C486.005 368.772 483.444 368.809 481.271 370.183C472.466 375.749 463.965 383.277 455.68 389.708C443.098 399.583 429.961 408.73 416.335 417.105C416.668 420.796 417.042 423.276 417.715 426.928C429.678 419.089 440.313 411.794 453.054 405.17C469.898 396.414 492.196 388.047 508.019 378.336C518.413 373.928 529.243 370.604 540.221 375.045C554.246 380.549 560.1 398.54 554.538 411.956C551.084 420.286 542.615 425.23 534.766 428.16C523.964 432.193 511.968 433.831 503.512 424.39C501.088 421.684 500.578 419.76 498.753 417.265L498.337 416.531C499.412 414.026 498.162 411.544 498.289 408.204C498.747 396.194 504.489 385.813 513.618 378.386C503.698 382.788 493.742 388.242 483.866 392.76C465.015 401.384 432.213 416.097 417.391 430.943L416.453 430.533C413.397 403.726 413.183 382.255 390.525 363.559C368.708 345.558 338.117 353.864 322.937 375.909C306.535 399.729 297.616 434.327 287.848 461.554C284.595 470.62 282.471 480.328 279.265 489.301C259.941 491.056 245.003 492.599 226.315 498.407C172.764 515.049 133.445 565.162 136.096 622.279C135.901 641.401 145.512 669.75 159.289 683.529C166.786 691.027 172.625 694.488 182.315 698.092L182.034 699.183C186.123 710.659 201.556 726.791 211.988 733.489C210.113 727.133 208.362 720.74 206.736 714.316C206.212 712.228 204.404 704.28 203.687 702.566L203.066 701.519L208.077 701.466L208.118 702.393C207.757 709.526 214.533 729.276 216.855 736.923C282.581 776.778 352.057 733.222 409.19 701.531C432.965 688.343 486.309 673.142 513.611 674.038C514.451 674.096 514.58 674.008 515.424 673.872L516.187 672.718C522.749 674.823 525.108 675.376 531.888 676.15L530.028 677.169C484.133 670.861 427.437 693.613 388.688 716.226C335.983 746.984 278.257 772.493 218.491 741.724C218.782 742.468 219.078 743.209 219.379 743.949C238.383 790.609 280.153 806.661 327.619 804.715C352.036 803.816 376.135 798.872 398.934 790.086C449.057 770.993 494.827 736.615 550.133 730.418C576.188 727.236 601.733 733.687 627.01 739.793C700.628 757.577 762.088 738.153 792.727 663.597L792.905 662.302C794.607 661.706 797.023 660.534 798.733 659.772L799.031 660.587C794.722 662.855 792.306 670.364 790.089 674.896C788.151 678.872 786.032 682.758 783.739 686.542C774.081 702.569 762.859 715.842 747.412 726.721C709.803 751.491 671.717 751.469 629.376 742.527C609.596 738.35 586.683 731.944 566.498 731.979C505.11 732.086 453.722 772.62 398.346 793.196C371.378 803.217 348.311 807.356 319.874 808.123C298.861 807.224 285.467 806.533 265.299 797.42C239.728 785.866 223.237 765.042 213.664 738.943C203.017 732.526 191.022 720.823 184.563 710.402C177.188 698.504 178.391 698.86 166.416 691.338C150.38 681.265 140.62 657.902 136.849 639.921C134.334 628.806 134.31 620.167 134.616 609.02C137.27 582.668 143.873 564.071 160.092 542.462C178.935 517.356 205.524 501.876 235.588 494.072C244.033 491.879 253.05 490.666 261.674 489.433L278.603 487.964C288.029 458.995 303.546 401.176 320.802 376.773C326.399 368.864 333.751 362.359 342.281 357.766C355.451 350.829 365.032 351.127 378.783 355.355C395.732 363.839 405.418 374.537 411.543 392.874C413.938 400.109 415.363 407.629 415.782 415.239C432.821 404.509 447.113 394.602 462.808 381.782C469.242 376.526 477.23 371.067 482.984 365.156C516.811 324.459 551.812 294.944 603.388 279.87ZM613.749 279.799C566.857 287.622 521.009 322.541 491.231 358.482C513.738 341.61 534.493 325.12 559.761 312.524C583.927 300.476 606.699 291.424 634.183 290.48C657.236 290.289 668.142 293.641 688.218 304.357C710.317 319.258 725.074 341.362 731.949 367.022C740.423 365.626 747.141 366.651 755.481 367.874C753.142 354.527 749.041 344.513 741.707 333.009C741.17 332.166 738.018 327.462 737.401 326.865C733.366 320.355 720.986 308.35 714.676 303.74C684.354 281.591 650.114 275.098 613.749 279.799ZM629.677 292.701C583.985 296.916 541.929 321.212 506.857 349.316C499.406 355.286 491.457 359.87 484.308 366.618L484.47 367.077C488.634 367.761 525.958 351.798 532.085 348.828C546.321 341.927 561.348 333.984 575.891 327.264C581.947 324.466 588.136 321.966 594.436 319.774C620.5 311.775 648.684 314.58 672.66 327.559C689.125 336.473 705.027 353.052 710.44 371.266C717.612 369.218 722.895 367.98 730.442 367.003C726.391 347.323 710.841 324.683 695.296 311.869C678.621 298.123 651.368 290.052 629.677 292.701ZM525.773 376.621C517.733 378.009 511.439 380.815 506.701 387.807C494.362 406.016 498.223 431.348 525.909 426.403C534.807 424.054 544.927 420.958 549.827 412.424C556.19 401.343 551.182 385.007 539.932 379.094C535.114 376.561 530.991 376.389 525.773 376.621Z" fill="#020202"/>
<path d="M613.75 279.797C650.115 275.096 684.355 281.589 714.677 303.738C720.987 308.348 733.367 320.353 737.402 326.863C729.211 328.184 696.568 302.925 688.219 304.355C668.143 293.639 657.237 290.287 634.184 290.478C630.439 282.99 617.164 287.56 613.75 279.797Z" fill="#CFBAF0"/>
<path d="M491.232 358.484C521.01 322.543 566.858 287.624 613.75 279.801C617.164 287.564 630.439 282.994 634.184 290.482C606.7 291.426 583.928 300.478 559.762 312.526C534.494 325.122 513.739 341.612 491.232 358.484Z" fill="#A3C4F3"/>
<path d="M594.437 319.773C588.137 321.965 581.948 324.465 575.892 327.263C561.349 333.983 546.322 341.926 532.086 348.827C525.959 351.797 488.635 367.76 484.471 367.076L484.309 366.617C491.458 359.869 499.407 355.285 506.858 349.315C541.93 321.211 583.986 296.915 629.678 292.7C651.369 290.051 678.622 298.122 695.297 311.868C710.842 324.682 726.392 347.322 730.443 367.002C722.896 367.979 717.613 369.217 710.441 371.265C705.028 353.051 689.126 336.472 672.661 327.558C648.685 314.579 620.501 311.774 594.437 319.773Z" fill="#A3C4F3"/>
<path d="M688.219 304.355C696.568 302.925 729.211 328.184 737.402 326.863C738.019 327.46 741.171 332.164 741.708 333.007C749.042 344.511 753.143 354.525 755.482 367.872C747.142 366.649 740.424 365.624 731.95 367.02C725.075 341.36 710.318 319.256 688.219 304.355Z" fill="#A3C4F3"/>
<path d="M274.562 332.334C286.045 325.049 291.609 321.913 304.93 318.311C308.907 317.487 314.674 316.151 318.711 316.449L318.873 317.14C311.869 319.187 306.324 318.859 298.534 321.815C245.408 341.974 212.769 405.333 229.383 460.207C230.481 463.832 233.078 471.443 235.135 474.441C236.58 477.456 240.302 483.317 242.156 486.575C237.426 482.694 232.591 472.514 230.211 466.939C224.097 450.646 222.139 433.087 224.513 415.848C229.123 380.694 246.914 353.684 274.562 332.334Z" fill="#020202"/>
<path d="M620.99 351.721C608.297 344.851 579.793 342.764 565.735 346.97C555.908 349.91 552.985 354.064 546.725 361.336C544.201 360.467 542.129 359.579 539.471 359.386C531.74 357.312 524.971 358.053 519.811 356.579C568.848 335.183 604.312 302.209 661.489 324.529C683.064 332.952 699.402 348.592 708.512 370.125C708.715 370.602 708.914 371.082 709.108 371.564C699.359 375.166 694.437 378.634 685.657 384.28C679.923 380.131 675.632 377.661 668.767 375.572C663.919 374.097 661.061 373.785 656.65 371.238C650.438 367.398 645.333 363.581 638.767 360.029C633.165 356.999 627.034 354.878 621.702 352.097L620.99 351.721ZM632.201 339.805C631.123 340.085 630.298 340.954 630.076 342.045C629.853 343.137 630.271 344.26 631.153 344.94C632.035 345.62 633.228 345.738 634.227 345.245C635.568 344.583 636.191 343.013 635.669 341.611C635.147 340.209 633.649 339.429 632.201 339.805ZM671.514 352.119C670.509 352.46 669.779 353.333 669.621 354.382C669.463 355.431 669.904 356.48 670.764 357.101C671.624 357.723 672.759 357.812 673.705 357.332C675.032 356.66 675.613 355.076 675.037 353.705C674.461 352.334 672.923 351.642 671.514 352.119Z" fill="#A3C4F3"/>
<path d="M157.976 370.519C165.085 366.969 171.655 361.678 180.632 357.543C205.232 346.212 228.67 342.442 254.858 337.084C260.601 335.909 269.727 332.88 274.561 332.336C246.913 353.686 229.122 380.696 224.512 415.85C222.138 433.089 224.096 450.648 230.21 466.941C224.131 465.575 217.436 458.371 212.909 454.123C194.547 437.006 179.361 416.773 168.054 394.36C164.11 386.386 161.319 379.027 157.973 370.853L157.976 370.519Z" fill="#98F5E1"/>
<path d="M250.129 460.71L249.116 460.656C247.963 459.157 247.147 456.54 246.609 454.691C232.061 404.687 264.145 346.821 313.923 332.579C314.507 332.479 315.022 332.533 315.63 332.545C315.411 333.765 306.1 336.57 304.049 337.568C286.729 345.995 269.387 360.152 259.703 376.921C248.494 396.331 242.686 418.65 245.677 440.996C246.545 447.479 248.514 454.383 250.129 460.71Z" fill="#020202"/>
<path d="M745.281 335.324C756.632 340.287 775.805 363.951 778.815 376.316C772.007 372.677 764.765 369.917 757.262 368.101C755.119 354.976 751.016 346.949 745.281 335.324Z" fill="#A3C4F3"/>
<path d="M634.228 345.245C633.229 345.738 632.036 345.62 631.154 344.94C630.272 344.26 629.854 343.137 630.077 342.045C630.299 340.954 631.124 340.085 632.202 339.805C633.65 339.429 635.148 340.209 635.67 341.611C636.192 343.013 635.569 344.583 634.228 345.245Z" fill="#020202"/>
<path d="M620.99 351.72C603.732 346.281 577.53 342.636 560.155 350.492C555.326 352.675 551.155 357.656 547.967 361.896C561.35 369.489 570.958 380.993 570.513 397.245C570.364 400.629 570.398 403.231 570.512 406.623C570.205 410.514 568.977 413.756 567.553 417.342L566.964 416.457C572.22 403.21 570.518 386.483 562.161 374.797C556.069 366.279 548.566 363.756 539.471 359.385C542.129 359.578 544.201 360.466 546.725 361.335C552.985 354.063 555.908 349.909 565.735 346.969C579.793 342.763 608.297 344.85 620.99 351.72Z" fill="#020202"/>
<path d="M547.967 361.897C551.155 357.657 555.326 352.676 560.155 350.493C577.53 342.637 603.732 346.282 620.99 351.721L621.702 352.097C627.034 354.878 633.165 356.999 638.767 360.029C645.333 363.581 650.438 367.398 656.65 371.238C657.484 371.997 658.12 372.372 658.546 373.331C647.536 375.21 638.58 376.717 631.927 386.41C626.641 394.11 628.127 389.851 622.669 389.286C620.204 390.155 619.998 392.113 621.188 394.22C622.979 395.114 623.939 395.191 625.93 394.564L625.617 395.397C624.684 397.815 622.421 401.141 621.212 403.732C619.053 408.358 617.561 412.681 616.007 417.495C606.857 445.85 610.11 476.563 605.096 505.332C601.46 526.19 589.28 551.126 580.397 570.444C573.801 584.786 566.721 601.477 557.721 614.363C553.87 572.85 562.041 529.144 566.607 487.873C567.015 484.19 566.911 466.908 567.582 465.611C569.773 463.399 568.805 460.391 566.164 458.921C562.826 447.057 560.25 442.55 550.291 435.107C556.113 431.092 560.328 428.077 564.774 422.599C566.043 424.321 566.122 424.634 567.983 425.495C570.836 425.122 571.654 423.519 571.339 420.758C569.96 418.965 570.262 419.486 567.905 418.464L567.553 417.343C568.977 413.757 570.205 410.515 570.512 406.624C571.32 403.141 571.149 400.75 570.513 397.246C570.958 380.994 561.35 369.49 547.967 361.897ZM594.38 373.834C593.074 374.682 592.638 376.392 593.378 377.763C594.118 379.134 595.787 379.706 597.213 379.079C598.244 378.626 598.933 377.631 598.995 376.507C599.058 375.382 598.483 374.318 597.508 373.754C596.534 373.189 595.325 373.22 594.38 373.834ZM585.353 394.265C584.262 394.586 583.428 395.47 583.171 396.578C582.914 397.687 583.274 398.848 584.112 399.616C584.951 400.385 586.139 400.642 587.22 400.29C588.86 399.756 589.766 398.004 589.256 396.357C588.746 394.71 587.007 393.779 585.353 394.265ZM604.542 428.862C603.536 429.282 602.838 430.216 602.719 431.3C602.601 432.383 603.082 433.446 603.973 434.073C604.865 434.7 606.028 434.792 607.008 434.314C608.462 433.604 609.089 431.866 608.422 430.391C607.755 428.916 606.036 428.239 604.542 428.862ZM595.565 461.248C594.596 461.635 593.911 462.514 593.772 463.549C593.633 464.583 594.061 465.612 594.893 466.242C595.725 466.872 596.831 467.005 597.789 466.591C599.242 465.963 599.921 464.284 599.313 462.823C598.704 461.361 597.035 460.659 595.565 461.248ZM594.588 498.29C593.36 498.968 592.852 500.469 593.414 501.753C593.976 503.037 595.425 503.681 596.755 503.238C597.731 502.913 598.439 502.065 598.584 501.047C598.728 500.028 598.285 499.016 597.439 498.432C596.592 497.848 595.488 497.793 594.588 498.29ZM572.147 513.729C570.954 515.103 570.373 515.51 570.095 517.309C570.973 519.393 572.024 519.185 574.127 519.286C575.782 517.27 575.562 518.072 575.967 515.734C574.998 513.712 574.273 513.768 572.147 513.729ZM586.538 533.781C585.148 534.41 584.532 536.047 585.161 537.437C585.79 538.827 587.426 539.444 588.816 538.815C590.207 538.186 590.824 536.549 590.195 535.158C589.566 533.768 587.928 533.151 586.538 533.781Z" fill="#F1C0E8"/>
<path d="M378.783 355.354C381.404 354.097 389.419 352.404 392.524 351.886C418.168 347.616 445.304 350.171 469.73 359.059C473.36 360.38 480.089 362.721 482.984 365.155C477.23 371.066 469.242 376.525 462.808 381.781C447.113 394.601 432.821 404.508 415.782 415.238C415.363 407.628 413.938 400.108 411.543 392.873C405.418 374.536 395.732 363.838 378.783 355.354Z" fill="#FAECE9"/>
<path d="M673.706 357.332C672.76 357.812 671.625 357.723 670.765 357.101C669.905 356.48 669.464 355.431 669.622 354.382C669.78 353.333 670.51 352.46 671.515 352.119C672.924 351.642 674.462 352.334 675.038 353.705C675.614 355.076 675.033 356.66 673.706 357.332Z" fill="#020202"/>
<path d="M488.577 368.562C497.86 365.675 509.738 360.059 519.811 356.577C524.971 358.051 531.74 357.31 539.471 359.384C548.566 363.755 556.069 366.278 562.161 374.796C570.518 386.482 572.22 403.209 566.964 416.456L564.186 421.475C559.163 427.757 555.007 430.882 548.216 435.238C557.34 440.699 561.647 446.456 564.308 456.926C564.487 457.634 564.657 458.345 564.817 459.057L565.787 466.299C567.246 483.368 563.843 497.804 562.175 514.189C558.809 547.246 552.657 584.368 556.835 617.177C566.594 604.658 576.053 582.402 582.766 567.639C590.628 550.348 603.073 523.968 606.02 505.33C612.794 462.48 605.066 434.736 627.246 394.54C629.909 391.643 631.787 387.146 635.188 383.826C648.738 370.596 672.529 373.158 685.321 386.467C720.087 361.953 761.897 359.926 793.922 390.063L796.729 393.081C810.637 414.754 813.56 432.28 807.87 457.596C798.487 499.336 778.744 514.371 747.528 537.293C774.945 558.454 772.823 585.352 784.728 612.927C791.52 609.083 793.962 604.175 797.682 597.561L797.5 597.006C802.986 588.457 809.61 576.444 816.536 569.32C829.733 555.745 852.796 561.856 850.905 583.139L850.692 584.252C850.519 608.12 835.185 633.26 817.007 648.038C809.652 653.893 805.992 655.175 798.734 659.771C797.024 660.533 794.608 661.705 792.906 662.301C782.852 665.272 766.793 669.272 756.323 667.184C734.539 664.982 726.509 660.957 710.555 647.116C707.787 645.123 702.235 633.693 701.094 630.16C700.801 628.448 697.758 617.606 697.093 615.2C695.327 608.808 693.086 594.572 690.896 589.245C691.217 577.396 684.193 557.215 680.302 545.924L678.564 538.506C684.279 539.575 689.674 540.619 695.196 542.469C698.56 554.143 699.776 566.554 702.236 578.431C705.921 596.219 708.012 615.408 715.949 631.906C718.159 636.499 723.206 642.204 727.453 644.936C770.657 672.723 825.135 640.665 836.982 594.279C839.289 585.964 842.908 568.878 827.852 573.528C824.601 574.716 821.467 577.405 820.227 580.666C814.507 595.718 802.235 620.999 786.535 627.051C771.673 632.779 766.353 594.858 763.403 585.447C755.472 560.14 744.675 549.205 721.606 536.713C728.818 533.297 735.643 528.664 742.362 524.463C760.026 513.723 773.278 502.887 783.995 484.752C800.188 457.35 805.089 417.275 779.06 394.1C762.822 379.642 743.458 377.808 723.484 383.667C708.074 388.187 694.289 392.147 685.87 406.62C680.064 395.048 671.479 384.349 657.007 387.283C629.716 392.813 625.4 436.73 622.409 458.738C620.629 471.434 619.147 484.171 617.964 496.937C617.337 504.427 616.364 521.003 614.603 527.809C611.527 536.349 606.541 545.408 602.697 553.554C595.275 569.285 568.599 632.473 552.877 634.837C549.293 633.246 548.351 627.24 547.444 623.66C541.293 599.38 543.675 574.585 545.87 549.997C547.63 530.272 549.062 510.512 551.495 490.831C552.377 477.638 555.667 460.617 546.754 449.527C540.822 440.515 515.762 435.612 507.981 444.129C492.094 461.518 487.302 494.847 482.648 517.429C481.259 524.168 481.82 531.448 480.663 538.029C479.123 546.782 476.053 554.631 475.829 563.544C475.104 577.134 451.832 624.305 442.582 632.243C440.363 629.028 437.08 622.066 435.446 618.155C412.472 562.831 412.527 501.295 403.776 442.751C400.758 422.555 398.516 378.128 375.114 370.096C362.193 365.661 343.527 371.479 336.275 383.809C327.774 398.262 321.574 413.87 315.505 429.737C305.837 454.668 296.983 479.907 288.956 505.414C273.893 504.586 261.225 506.757 246.665 509.828C241.765 508.706 221.071 517.798 215.714 520.284C200.727 527.238 188.854 536.571 177.361 548.301C176.72 548.052 176.184 547.83 175.557 547.561C172.839 548.788 172.375 550.693 171.279 553.365L172.297 554.928L171.814 555.509C163.013 566.178 152.225 588.047 151.195 601.514C150.861 604.775 150.342 606.108 149.928 611.108C147.542 639.874 158.01 670.59 185.311 683.947C185.646 683.941 185.981 683.936 186.315 683.931L186.554 683.679C188.214 684.321 190.707 685.403 192.356 685.791C265.683 703.04 292.975 580.814 306.812 535.878C323.737 538.791 331.236 541.795 346.224 549.464C354.533 586.451 361.991 636.355 397.427 658.537C406.167 664.008 421.281 668.71 431.475 665.493C441.564 662.31 453.696 654.004 460.097 645.351C468.086 634.101 472.382 619.511 479.124 607.688L479.481 607.068C485.403 628.352 495.28 649.526 516.759 658.992C528.035 663.961 541.255 664.869 552.88 660.058C572.752 651.834 586.158 629.206 597.043 611.534C600.698 605.382 606.702 590.823 609.508 584.248C609.629 607.301 607.866 625.769 618.585 647.906C623.834 658.747 630.377 667.43 644.067 664.947C682.571 657.963 672.188 592.3 676.67 563.658C677.421 558.835 676.978 549.558 678.576 546.088C681.475 552.034 683.201 558.395 685.296 564.603C691.257 581.505 688.904 596.904 687.058 614.017C684.655 636.302 679.78 664.702 657.106 675.506C623.824 691.365 603.487 657.23 599.28 629.267C584.56 657.681 565.092 676.225 531.889 676.149C525.109 675.375 522.75 674.822 516.188 672.717C498.227 664.544 487.985 653.79 478.708 636.638C473.735 651.013 457.131 668.477 443.131 674.54C405.443 690.656 375.238 663.156 359.971 630.503C349.235 607.54 341.81 586.722 336.203 561.902C333.998 552.144 325.038 549.351 316.252 547.495C308.231 590.51 282.104 661.075 245.084 688.085C235.003 695.44 220.373 699.679 208.078 701.465L203.067 701.518C195.804 701.326 189.253 700.131 182.316 698.091C172.626 694.487 166.787 691.026 159.29 683.528C145.513 669.749 135.902 641.4 136.097 622.278C133.446 565.161 172.765 515.048 226.316 498.406C245.004 492.598 259.942 491.055 279.266 489.3C282.472 480.327 284.596 470.619 287.849 461.553C297.617 434.326 306.536 399.728 322.938 375.908C338.118 353.863 368.709 345.557 390.526 363.558C413.184 382.254 413.398 403.725 416.454 430.532L423.162 491.354C426.379 521.579 432.021 577.268 445.566 604.304C463.036 581.41 468.584 524.542 474.025 496.443C476.263 484.865 478.757 473.307 481.369 461.801C485.277 444.584 485.122 430.031 498.754 417.264C500.579 419.759 501.089 421.683 503.513 424.389C511.969 433.83 523.965 432.192 534.767 428.159C542.616 425.229 551.085 420.285 554.539 411.955C560.101 398.539 554.247 380.548 540.222 375.044C529.244 370.603 518.414 373.927 508.02 378.335C504.712 374.296 493.746 370.907 488.577 368.562Z" fill="url(#paint0_linear_2293_130233)"/>
<path d="M269.805 443.077C266.791 439.039 270.561 420.526 272.083 415.67C278.986 393.64 291.84 372.478 312.459 361.008C313.008 362.232 311.117 363.229 310.124 363.872C288.193 378.07 274.129 404.527 270.606 430.002C270.101 433.649 271.142 440.085 269.805 443.077Z" fill="#020202"/>
<path d="M186.555 683.679C184.581 681.947 179.137 679.507 176.361 677.247C133.846 642.622 148.303 575.499 185.248 541.695C202.901 525.542 222.137 517.295 246.666 509.828C261.226 506.757 273.894 504.586 288.957 505.414C296.984 479.907 305.838 454.668 315.506 429.737C321.575 413.87 327.775 398.262 336.276 383.809C343.528 371.479 362.194 365.661 375.115 370.096C398.517 378.128 400.759 422.555 403.777 442.751C412.528 501.295 412.473 562.831 435.447 618.155C437.081 622.066 440.364 629.028 442.583 632.243C451.833 624.305 475.105 577.134 475.83 563.544C476.054 554.631 479.124 546.782 480.664 538.029C481.821 531.448 481.26 524.168 482.649 517.429C487.303 494.847 492.095 461.518 507.982 444.129C515.763 435.612 540.823 440.515 546.755 449.527C555.668 460.617 552.378 477.638 551.496 490.831C549.063 510.512 547.631 530.272 545.871 549.997C543.676 574.585 541.294 599.38 547.445 623.66C548.352 627.24 549.294 633.246 552.878 634.837C568.6 632.473 595.276 569.285 602.698 553.554C606.542 545.408 611.528 536.349 614.604 527.809C616.365 521.003 617.338 504.427 617.965 496.937C619.148 484.171 620.63 471.434 622.41 458.738C625.401 436.73 629.717 392.813 657.008 387.283C671.48 384.349 680.065 395.048 685.871 406.62C694.29 392.147 708.075 388.187 723.485 383.667C743.459 377.808 762.823 379.642 779.061 394.1C805.09 417.275 800.189 457.35 783.996 484.752C773.279 502.887 760.027 513.723 742.363 524.463C735.644 528.664 728.819 533.297 721.607 536.713C744.676 549.205 755.473 560.14 763.404 585.447C766.354 594.858 771.674 632.779 786.536 627.051C802.236 620.999 814.508 595.718 820.228 580.666C821.468 577.405 824.602 574.716 827.853 573.528C842.909 568.878 839.29 585.964 836.983 594.279C825.136 640.665 770.658 672.723 727.454 644.936C723.207 642.204 718.16 636.499 715.95 631.906C708.013 615.408 705.922 596.219 702.237 578.431C699.777 566.554 698.561 554.143 695.197 542.469C689.675 540.619 684.28 539.575 678.565 538.506L680.303 545.924L678.577 546.088C676.979 549.558 677.422 558.835 676.671 563.658C672.189 592.3 682.572 657.963 644.068 664.947C630.378 667.43 623.835 658.747 618.586 647.906C607.867 625.769 609.63 607.301 609.509 584.248C606.703 590.823 600.699 605.382 597.044 611.534C586.159 629.206 572.753 651.834 552.881 660.058C541.256 664.869 528.036 663.961 516.76 658.992C495.281 649.526 485.404 628.352 479.482 607.068L479.125 607.688C472.383 619.511 468.087 634.101 460.098 645.351C453.697 654.004 441.565 662.31 431.476 665.493C421.282 668.71 406.168 664.008 397.428 658.537C361.992 636.355 354.534 586.451 346.225 549.464C331.237 541.795 323.738 538.791 306.813 535.878C292.976 580.814 265.684 703.04 192.357 685.791C190.708 685.403 188.215 684.321 186.555 683.679ZM341.229 500.615C340.268 480.35 340.137 461.03 341.143 440.781C341.64 430.782 341.731 420.845 343.183 410.863C334.358 429.017 330.877 449.013 324.898 468.128C320.689 481.586 317.263 495.204 313.691 508.838C325.147 511.969 331.981 514.502 342.527 520.413C342.313 516.841 342.14 505.514 340.486 503.174C341.405 502.581 341.064 502.854 341.627 501.759L341.229 500.615ZM362.714 372.142C354.252 373.45 345.709 376.308 340.699 383.659C330.971 397.93 325.162 416.567 318.876 432.55C309.345 456.787 301.487 481.504 292.772 505.84C298.595 506.426 304.312 507.018 310.07 508.126C313.313 487.049 338.035 410.106 349.109 392.787C348.017 405.856 346.354 419.547 345.758 432.589C343.531 481.357 344.295 530.177 356.493 577.738C362.01 599.25 366.441 615.907 378.911 635.023C389.013 649.229 398.839 658.323 416.789 661.991C427.473 664.174 436.134 660.266 444.811 654.106C449.106 651.103 452.966 647.522 456.283 643.464C462.593 635.675 475.643 612.073 477.627 601.826C478.152 599.111 475.951 579.685 475.727 574.195C472.551 584.632 453.974 638.117 441.523 636.097C432.985 630.921 421.757 592.696 419.3 581.978C406.665 526.858 405.023 470.032 395.502 414.404C392.271 395.531 387.195 370.152 362.714 372.142ZM737.535 384.175C719.399 386.54 691.478 395.505 686.461 415.909C685.289 420.675 686.623 427.645 686.065 432.563C684.179 449.187 684.392 466.713 682.523 483.221C685.227 475.069 687.074 467.136 689.06 458.797C692.527 444.238 694.825 429.201 706.286 418.55C720.824 405.039 742.215 405.749 751.232 424.979C757.725 439.044 757.115 458.315 751.984 472.627C749.553 479.42 746.172 485.834 741.942 491.678C727.532 510.745 717.803 518.488 695.373 525.4C702.813 527.751 710.837 532.237 717.244 534.036C724.226 531.815 730.012 527.331 736.186 523.677C753.973 513.19 767.417 503.186 778.73 485.292C790.691 466.374 797.6 443.612 791.151 421.473C784.682 399.269 761.364 380.793 737.535 384.175ZM656.306 390.582C648.181 393.078 643.253 398.404 639.327 405.719C626.546 429.538 622.644 480.382 619.659 508.308C618.874 515.659 618.825 523.575 617.376 530.775C615.669 539.254 609.027 549.411 605.293 557.309C596.907 575.048 572.148 633.418 554.623 639.616C553.45 640.031 551.901 640.177 550.771 639.564C546.134 637.043 542.741 618.049 541.951 612.761C537.151 580.641 541.668 542.06 545.327 509.641C546.907 495.643 549.949 480.377 548.605 466.351C547.992 459.957 545.895 453.181 540.493 449.224C534.946 445.162 523.937 442.769 517.238 444.132C511.9 445.218 508.485 448.852 505.713 453.313C489.035 480.145 480.815 546.034 481.042 577.877C481.116 588.207 481.97 598.808 484.375 608.858C488.45 625.888 497.701 644.035 513.049 653.483C523.128 659.688 534.131 662.105 545.744 659.333C567.864 654.054 580.889 632.704 591.913 614.498C601.838 598.108 606.567 579.713 615.697 563.108C614.91 570.263 614.294 577.436 613.852 584.621C612.264 604.575 613.277 623.821 620.362 642.781C622.144 647.549 624.179 652.622 627.493 656.56C630.648 660.307 634.447 661.755 639.237 662.107C645.129 662.539 650.624 661.127 655.045 657.084C676.181 637.757 669.963 562.664 675.543 533.076C680.346 534.244 695.497 537.031 698.292 540.182C700.156 542.285 701.869 553.568 702.485 557.038C704.843 571.076 707.446 585.071 710.294 599.017C715.625 624.19 718.986 642.704 747.292 649.88C763.93 654.097 781.924 650.785 796.45 641.893C815.349 630.315 828.852 611.68 833.969 590.116C835.41 584.091 837.427 571.046 826.772 578.347C823.611 580.514 819.926 590.927 817.693 595.987C812.135 608.585 791.049 641.655 773.863 627.087C768.696 622.707 764.538 605.238 762.848 598.509C755.426 567.114 743.834 550.409 714.138 536.966C698.01 529.665 694.372 527.904 676.47 525.015C677.34 501.939 680.031 478.75 681.269 455.738C682.12 439.927 686.888 408.501 675.519 396.472C671.798 392.519 666.605 390.285 661.176 390.302C659.608 390.299 657.868 390.449 656.306 390.582ZM724.664 413.609C699.758 418.377 696.403 445.208 691.702 465.673C688.63 479.047 684.945 492.25 682.621 505.813C682.063 508.968 679.21 519.938 682.879 521.85C688.624 524.294 699.176 520.67 704.633 518.268C725.407 508.185 740.692 490.115 749.208 468.656C757.094 448.784 753.172 411.994 724.664 413.609ZM273.357 509.705C208.866 515.499 150.544 557.965 155.149 628.181C156.996 656.344 179.251 686.402 209.839 683.79C226.393 682.381 241.491 671.194 251.599 658.469C278.322 623.155 290.878 577.127 302.051 535.184C296.402 534.344 291.401 533.945 285.679 534.217L280.691 550.62C272.273 577.762 263.15 605.812 249.683 630.933C248.02 634.035 245.897 637.079 243.832 639.926C234.444 652.359 218.293 662.412 202.223 658.731C173.904 651.343 175.124 613.415 182.459 591.447C189.866 569.05 205.87 555.656 226.237 545.406C265.465 527.157 306.718 527.504 345.659 546.109C344.669 539.581 344.494 531.792 343.431 525.918C325.438 513.997 294.839 506.924 273.357 509.705ZM279.971 535.757C227.895 540.431 177.831 566.817 183.217 626.715C183.941 634.755 186.208 641.549 191.483 647.775C205.079 661.27 224.937 655.155 236.372 642.33C255.128 621.292 262.149 590.998 271.521 565.128C272.505 562.383 281.041 536.78 279.971 535.757Z" fill="#020202"/>
<path d="M416.336 417.105C429.962 408.73 443.099 399.583 455.681 389.708C463.966 383.277 472.467 375.749 481.272 370.183C483.445 368.809 486.006 368.772 488.577 368.562C493.746 370.908 504.712 374.297 508.02 378.336C492.197 388.047 469.899 396.414 453.055 405.17C440.314 411.794 429.679 419.089 417.716 426.928C417.043 423.276 416.669 420.796 416.336 417.105Z" fill="#FAECE9"/>
<path d="M134.617 609.02C134.578 608.485 134.501 606.493 134.166 606.103C107.238 574.803 85.7317 534.03 87.0753 491.752C87.4686 479.375 89.0058 466.592 92.8869 454.887C102.73 425.2 121.112 399.076 145.731 379.786C148.782 377.39 154.717 372.502 157.973 370.852C161.319 379.026 164.11 386.385 168.054 394.359C179.361 416.772 194.547 437.005 212.909 454.122C217.436 458.37 224.131 465.574 230.21 466.94C232.59 472.515 237.425 482.695 242.155 486.576C240.301 483.318 236.579 477.457 235.134 474.442C238.173 472.001 256.538 484.804 260.447 487.331C260.669 487.474 261.491 489.055 261.675 489.433C253.051 490.666 244.034 491.879 235.589 494.072C205.525 501.876 178.936 517.356 160.093 542.462C143.874 564.071 137.271 582.668 134.617 609.02Z" fill="#C0F4EA"/>
<path d="M292.771 505.839C301.486 481.503 309.344 456.786 318.875 432.549C325.161 416.566 330.97 397.929 340.698 383.658C345.708 376.307 354.252 373.449 362.714 372.141C387.195 370.151 392.27 395.53 395.501 414.403C405.022 470.031 406.664 526.857 419.299 581.977C421.756 592.695 432.984 630.92 441.522 636.096C453.973 638.116 472.551 584.631 475.727 574.194C475.951 579.684 478.151 599.11 477.626 601.825C475.642 612.072 462.593 635.674 456.283 643.463C452.966 647.521 449.105 651.102 444.81 654.105C436.133 660.265 427.472 664.173 416.788 661.99C398.838 658.322 389.012 649.228 378.91 635.022C366.44 615.906 362.009 599.249 356.492 577.737C344.294 530.176 343.53 481.356 345.757 432.588C346.353 419.546 348.016 405.855 349.108 392.786C338.034 410.105 313.312 487.048 310.069 508.125C304.311 507.017 298.594 506.425 292.771 505.839Z" fill="#C0F4EA"/>
<path d="M597.214 379.08C595.788 379.707 594.119 379.135 593.379 377.764C592.639 376.393 593.075 374.683 594.381 373.835C595.326 373.221 596.535 373.19 597.509 373.755C598.484 374.319 599.059 375.383 598.996 376.508C598.934 377.632 598.245 378.627 597.214 379.08Z" fill="#020202"/>
<path d="M525.909 426.404C498.223 431.349 494.362 406.017 506.701 387.808C511.439 380.816 517.733 378.01 525.773 376.622C530.991 376.39 535.114 376.562 539.932 379.095C551.182 385.008 556.19 401.344 549.827 412.425C544.927 420.959 534.807 424.055 525.909 426.404Z" fill="#C0F4EA"/>
<path d="M498.339 416.532C485.561 425.34 483.657 447.231 480.57 461.129C477.672 474.173 474.847 487.406 472.295 500.524C464.881 503.157 447.014 518.406 440.871 524.627C438.069 527.464 432.305 533.562 429.419 535.37C425.952 510.95 424.022 485.606 420.964 461.075C420.367 456.278 418.511 433.371 417.393 430.944C432.215 416.098 465.017 401.385 483.868 392.761C493.744 388.243 503.7 382.789 513.62 378.387C504.491 385.814 498.749 396.195 498.291 408.205C498.164 411.545 499.414 414.027 498.339 416.532Z" fill="#FAECE9"/>
<path d="M682.521 483.221C684.39 466.713 684.178 449.187 686.064 432.563C686.622 427.645 685.288 420.675 686.46 415.909C691.477 395.505 719.398 386.54 737.534 384.175C761.363 380.793 784.681 399.269 791.15 421.473C797.599 443.612 790.69 466.374 778.729 485.292C767.416 503.186 753.972 513.19 736.185 523.677C730.011 527.331 724.224 531.815 717.242 534.036C710.835 532.237 702.812 527.751 695.372 525.4C717.802 518.488 727.53 510.745 741.94 491.678C746.17 485.834 749.551 479.42 751.982 472.627C757.113 458.315 757.724 439.044 751.231 424.979C742.214 405.749 720.822 405.039 706.284 418.55C694.823 429.201 692.526 444.238 689.059 458.797C687.073 467.136 685.225 475.069 682.521 483.221Z" fill="#98F5E1"/>
<path d="M794.74 389.303C795.934 389.632 809.387 385.511 812.737 385.125C846.349 381.252 870.75 389.226 900.234 403.326C910.662 411.177 918.756 417.155 926.746 427.827C949.473 458.184 943.277 495.911 921.073 524.573C913.691 534.103 907.663 540.44 898.933 548.82C895.642 551.706 884.599 561.642 881.663 563.402L881.474 563.21C879.973 562.803 878.591 565.581 875.776 566.812L874.846 566.315L874.847 566.312C875.265 565.256 879.152 562.223 880.435 561.011L880.339 560.241C881.443 558.417 896.778 546.043 899.788 543.341C921.779 521.551 942.284 492.652 936.536 459.878C932.591 437.39 918.94 421.834 900.765 409.002C874.675 393.691 846.126 385.869 815.768 389.173C809.775 389.825 803.836 390.932 798.287 393.349L796.729 393.082L793.922 390.064L794.74 389.303Z" fill="#332D2D"/>
<path d="M798.287 393.35C803.836 390.933 809.775 389.826 815.768 389.174C846.126 385.87 874.675 393.692 900.765 409.003C898.375 427.248 876.86 470.367 864.051 484.157C861.724 482.133 855.044 473.735 852.802 471.193C847.421 465.094 817.465 436.145 811.695 433.91C811.281 418.44 807.105 406.011 798.287 393.35Z" fill="#CFBAF0"/>
<path d="M615.697 563.111C606.567 579.716 601.838 598.111 591.913 614.501C580.889 632.707 567.864 654.057 545.744 659.336C534.131 662.108 523.128 659.691 513.049 653.486C497.701 644.038 488.45 625.891 484.375 608.861C481.97 598.811 481.116 588.21 481.042 577.88C480.815 546.037 489.035 480.148 505.713 453.316C508.485 448.855 511.9 445.221 517.238 444.135C523.937 442.772 534.946 445.165 540.493 449.227C545.895 453.184 547.992 459.96 548.605 466.354C549.949 480.38 546.907 495.646 545.327 509.644C541.668 542.063 537.151 580.644 541.951 612.764C542.741 618.052 546.134 637.046 550.771 639.567C551.901 640.18 553.45 640.034 554.623 639.619C572.148 633.421 596.907 575.051 605.293 557.312C609.027 549.414 615.669 539.257 617.376 530.778C618.825 523.578 618.874 515.662 619.659 508.311C622.644 480.385 626.546 429.541 639.327 405.722C643.253 398.407 648.181 393.081 656.306 390.585C657.868 390.452 659.608 390.302 661.176 390.305C666.605 390.288 671.798 392.522 675.519 396.475C686.888 408.504 682.12 439.93 681.269 455.741C680.031 478.753 677.34 501.942 676.47 525.018C694.372 527.907 698.01 529.668 714.138 536.969C743.834 550.412 755.426 567.117 762.848 598.512C764.538 605.241 768.696 622.71 773.863 627.09C791.049 641.658 812.135 608.588 817.693 595.99C819.926 590.93 823.611 580.517 826.772 578.35C837.427 571.049 835.41 584.094 833.969 590.119C828.852 611.683 815.349 630.318 796.45 641.896C781.924 650.788 763.93 654.1 747.292 649.883C718.986 642.707 715.625 624.193 710.294 599.02C707.446 585.074 704.843 571.079 702.485 557.041C701.869 553.571 700.156 542.288 698.292 540.185C695.497 537.034 680.346 534.247 675.543 533.079C669.963 562.667 676.181 637.76 655.045 657.087C650.624 661.13 645.129 662.542 639.237 662.11C634.447 661.758 630.648 660.31 627.493 656.563C624.179 652.625 622.144 647.552 620.362 642.784C613.277 623.824 612.264 604.578 613.852 584.624C614.294 577.439 614.91 570.266 615.697 563.111Z" fill="#C0F4EA"/>
<path d="M796.728 393.082L798.286 393.349C807.104 406.01 811.28 418.439 811.694 433.909C811.039 465.097 800.259 494.093 777.342 515.671C770.944 521.696 759.783 531.183 752.326 535.682C756.194 539.087 760.112 542.435 764.079 545.724C776.73 556.793 785.383 567.411 792.095 582.992C794.057 587.546 795.672 592.773 797.499 597.007L797.681 597.562C793.961 604.176 791.519 609.084 784.727 612.928C772.822 585.353 774.944 558.455 747.527 537.294C778.743 514.372 798.486 499.337 807.869 457.597C813.559 432.281 810.636 414.755 796.728 393.082ZM750.351 536.461C750.622 538.761 759.566 548.198 761.644 550.852C771.673 563.666 775.188 579.192 780.234 594.287C781.964 599.432 783.958 605.538 786.592 610.265C789.062 608.628 789.631 608.246 791.631 606.089C793.23 603.622 794.799 601.38 796.032 598.709C789.57 576.548 779.813 561.015 762.394 545.955C759.68 543.608 753.393 537.326 750.351 536.461Z" fill="#020202"/>
<path d="M587.22 400.291C586.139 400.643 584.951 400.385 584.112 399.616C583.274 398.848 582.914 397.688 583.171 396.579C583.428 395.471 584.262 394.587 585.353 394.266C587.007 393.78 588.746 394.71 589.256 396.357C589.766 398.004 588.86 399.757 587.22 400.291Z" fill="#020202"/>
<path d="M625.929 394.563C626.955 394.432 626.518 394.391 627.245 394.541C605.065 434.737 612.793 462.481 606.019 505.331C603.072 523.969 590.627 550.349 582.765 567.64C576.052 582.403 566.593 604.659 556.834 617.178C552.656 584.369 558.808 547.247 562.174 514.19C563.842 497.805 567.245 483.369 565.786 466.3L567.581 465.61C566.91 466.907 567.014 484.189 566.606 487.872C562.04 529.143 553.869 572.849 557.72 614.362C566.72 601.476 573.8 584.785 580.396 570.443C589.279 551.125 601.459 526.189 605.095 505.331C610.109 476.562 606.856 445.849 616.006 417.494C617.56 412.68 619.052 408.357 621.211 403.731C622.42 401.14 624.683 397.814 625.616 395.396L625.929 394.563Z" fill="#332D2D"/>
<path d="M570.514 397.246C571.15 400.75 571.321 403.141 570.513 406.624C570.399 403.232 570.365 400.63 570.514 397.246Z" fill="#7F6174"/>
<path d="M900.765 409.004C918.94 421.836 932.591 437.392 936.536 459.88C942.284 492.654 921.779 521.553 899.788 543.343C898.134 541.496 893.116 531.29 891.668 528.496C886.383 518.299 880.784 508.844 874.226 499.384C871.204 495.025 867.768 488.003 864.061 484.381L864.051 484.158C876.86 470.368 898.375 427.249 900.765 409.004Z" fill="#FFFFFA"/>
<path d="M343.181 410.863C341.729 420.845 341.638 430.782 341.141 440.781C340.135 461.03 340.266 480.35 341.227 500.615L340.841 501.801C338.969 501.58 333.548 498.143 330.231 497.032C333.154 485.362 335.283 473.985 336.638 462.024C337.431 455.022 339.151 448.586 338.714 441.431C338.03 443.208 335.148 465.932 334.737 468.883C333.357 478.584 331.486 488.209 329.131 497.72C334.025 499.372 336.058 500.361 340.484 503.174C342.138 505.514 342.311 516.841 342.525 520.413C331.979 514.502 325.145 511.969 313.689 508.838C317.261 495.204 320.687 481.586 324.896 468.128C330.875 449.013 334.356 429.017 343.181 410.863Z" fill="#FDE4CF"/>
<path d="M704.632 518.269C699.175 520.671 688.623 524.295 682.878 521.851C679.209 519.939 682.062 508.969 682.62 505.814C684.944 492.251 688.629 479.048 691.701 465.674C696.402 445.209 699.757 418.378 724.663 413.61C753.171 411.995 757.093 448.785 749.207 468.657C740.691 490.116 725.406 508.186 704.632 518.269ZM724.244 428.559C713.112 431.598 709.807 445.312 707.939 455.353C704.605 473.277 700.438 490.281 695.902 507.915C699.777 506.132 702.255 504.846 705.891 502.549C720.36 492.105 728.874 482.534 734.783 465.381C738.925 453.358 742.908 429.767 724.244 428.559Z" fill="#C0F4EA"/>
<path d="M472.293 500.523C474.845 487.405 477.67 474.172 480.568 461.128C483.655 447.23 485.559 425.339 498.337 416.531L498.753 417.265C485.121 430.032 485.276 444.585 481.368 461.802C478.756 473.308 476.262 484.866 474.024 496.444C468.583 524.543 463.035 581.411 445.565 604.305C432.02 577.269 426.378 521.58 423.161 491.355L416.453 430.533L417.391 430.943C418.509 433.37 420.365 456.277 420.962 461.074C424.02 485.605 425.95 510.949 429.417 535.369C432.936 556.498 436.785 583.14 445.625 602.35C460.61 581.662 468.262 526.456 472.293 500.523Z" fill="#332D2D"/>
<path d="M566.964 416.457L567.553 417.342L567.905 418.463C570.262 419.485 569.96 418.964 571.339 420.757C571.654 423.518 570.836 425.121 567.983 425.494C566.122 424.633 566.043 424.32 564.774 422.598L564.186 421.476L566.964 416.457Z" fill="#020202"/>
<path d="M548.217 435.24C555.008 430.884 559.164 427.759 564.187 421.477L564.775 422.599C560.329 428.077 556.114 431.092 550.292 435.107C560.251 442.55 562.827 447.057 566.165 458.921L564.818 459.059C564.658 458.347 564.488 457.636 564.309 456.928C561.648 446.458 557.341 440.701 548.217 435.24Z" fill="#020202"/>
<path d="M607.008 434.312C606.028 434.79 604.865 434.698 603.973 434.071C603.082 433.444 602.601 432.381 602.719 431.298C602.838 430.214 603.536 429.28 604.542 428.86C606.036 428.237 607.755 428.914 608.422 430.389C609.089 431.864 608.462 433.602 607.008 434.312Z" fill="#020202"/>
<path d="M695.902 507.915C700.438 490.281 704.605 473.277 707.939 455.353C709.807 445.312 713.112 431.598 724.244 428.559C742.908 429.767 738.925 453.358 734.783 465.381C728.874 482.534 720.36 492.105 705.891 502.549C702.255 504.846 699.777 506.132 695.902 507.915ZM723.05 430.538C711.458 435.764 709.503 455.104 706.978 466.343C703.959 479.773 701.538 492.683 697.565 505.926C700.685 504.157 703.438 502.659 706.349 500.553C712.974 495.583 716.823 491.639 722.177 485.351C730.575 475.488 747.607 431.841 723.05 430.538Z" fill="#020202"/>
<path d="M697.564 505.927C701.537 492.684 703.958 479.774 706.977 466.344C709.502 455.105 711.457 435.765 723.049 430.539C747.606 431.842 730.574 475.489 722.176 485.352C716.822 491.64 712.973 495.584 706.348 500.554C703.437 502.66 700.684 504.158 697.564 505.927Z" fill="#FAECE9"/>
<path d="M811.694 433.91C817.464 436.145 847.42 465.094 852.801 471.193C855.043 473.735 861.723 482.133 864.05 484.157L864.06 484.38C840.211 513.179 819.04 539.54 778.43 543.482C774.505 543.863 767.111 543.979 764.079 545.725C760.112 542.436 756.194 539.088 752.326 535.683C759.783 531.184 770.944 521.697 777.342 515.672C800.259 494.094 811.039 465.098 811.694 433.91Z" fill="#FDE4CF"/>
<path d="M341.229 500.618L341.627 501.762C341.064 502.857 341.405 502.584 340.486 503.177C336.06 500.364 334.027 499.375 329.133 497.723C331.488 488.212 333.359 478.587 334.739 468.886C335.15 465.935 338.032 443.211 338.716 441.434C339.153 448.589 337.433 455.025 336.64 462.027C335.285 473.988 333.156 485.365 330.233 497.035C333.55 498.146 338.971 501.583 340.843 501.804L341.229 500.618Z" fill="#332D2D"/>
<path d="M564.816 459.06L566.163 458.922C568.804 460.392 569.772 463.4 567.581 465.612L565.786 466.302L564.816 459.06Z" fill="#020202"/>
<path d="M597.789 466.59C596.831 467.004 595.725 466.871 594.893 466.241C594.061 465.611 593.633 464.582 593.772 463.548C593.911 462.513 594.596 461.634 595.565 461.247C597.035 460.658 598.704 461.36 599.313 462.822C599.921 464.283 599.242 465.962 597.789 466.59Z" fill="#020202"/>
<path d="M764.08 545.724C767.112 543.978 774.506 543.862 778.431 543.481C819.041 539.539 840.212 513.178 864.061 484.379C867.768 488.001 871.204 495.023 874.226 499.382C880.784 508.842 886.383 518.297 891.668 528.494C893.116 531.288 898.134 541.494 899.788 543.341C896.778 546.043 881.443 558.417 880.339 560.241C876.193 563.134 853.917 582.468 851.389 583.28L850.905 583.14C852.796 561.857 829.733 555.746 816.536 569.321C809.61 576.445 802.986 588.458 797.5 597.007C795.673 592.773 794.058 587.546 792.096 582.992C785.384 567.411 776.731 556.793 764.08 545.724Z" fill="#FBF8CC"/>
<path d="M596.755 503.239C595.425 503.682 593.976 503.038 593.414 501.754C592.852 500.47 593.36 498.969 594.588 498.291C595.488 497.794 596.592 497.849 597.439 498.433C598.285 499.017 598.728 500.029 598.584 501.048C598.439 502.066 597.731 502.914 596.755 503.239Z" fill="#020202"/>
<path d="M429.418 535.369C432.304 533.561 438.068 527.463 440.87 524.626C447.013 518.405 464.88 503.156 472.294 500.523C468.263 526.456 460.611 581.662 445.626 602.35C436.786 583.14 432.937 556.498 429.418 535.369Z" fill="#F1C0E8"/>
<path d="M246.666 509.83C222.137 517.297 202.901 525.544 185.248 541.697C148.303 575.501 133.846 642.624 176.361 677.249C179.137 679.509 184.581 681.949 186.555 683.681L186.316 683.933C185.982 683.938 185.647 683.943 185.312 683.949C158.011 670.592 147.543 639.876 149.929 611.11C150.343 606.11 150.862 604.777 151.196 601.516C152.226 588.049 163.014 566.18 171.815 555.511L172.298 554.93L171.28 553.367C172.376 550.695 172.84 548.79 175.558 547.563C176.185 547.832 176.721 548.054 177.362 548.303C188.855 536.573 200.728 527.24 215.715 520.286C221.072 517.8 241.766 508.708 246.666 509.83Z" fill="#C0F4EA"/>
<path d="M302.05 535.184C290.877 577.127 278.321 623.155 251.598 658.469C241.49 671.194 226.392 682.381 209.838 683.79C179.25 686.402 156.995 656.344 155.148 628.181C150.543 557.965 208.865 515.499 273.356 509.705C294.838 506.924 325.437 513.997 343.43 525.918C344.493 531.792 344.668 539.581 345.658 546.109C306.717 527.504 265.464 527.157 226.236 545.406C205.869 555.656 189.865 569.05 182.458 591.447C175.123 613.415 173.903 651.343 202.222 658.731C218.292 662.412 234.443 652.359 243.831 639.926C245.896 637.079 248.019 634.035 249.682 630.933C263.149 605.812 272.272 577.762 280.69 550.62L285.678 534.217C291.4 533.945 296.401 534.344 302.05 535.184Z" fill="#C0F4EA"/>
<path d="M574.128 519.284C572.025 519.183 570.974 519.391 570.096 517.307C570.374 515.508 570.955 515.101 572.148 513.727C574.274 513.766 574.999 513.71 575.968 515.732C575.563 518.07 575.783 517.268 574.128 519.284Z" fill="#020202"/>
<path d="M588.816 538.812C587.426 539.441 585.79 538.824 585.161 537.434C584.532 536.044 585.148 534.407 586.538 533.778C587.928 533.148 589.566 533.765 590.195 535.155C590.824 536.546 590.207 538.183 588.816 538.812Z" fill="#020202"/>
<path d="M191.481 647.776C186.206 641.55 183.939 634.756 183.215 626.716C177.829 566.818 227.893 540.432 279.969 535.758C281.039 536.781 272.503 562.384 271.519 565.129C262.147 590.999 255.126 621.293 236.37 642.331C224.935 655.156 205.077 661.271 191.481 647.776ZM221.489 571.523C204.468 583.239 189.531 614.308 200.334 634.868C200.542 635.265 201.152 636.011 201.496 636.287C208.932 646.163 221.284 639.225 226.544 631.379C241.586 608.944 251.712 580.176 261.705 555.233C245.397 559.078 234.982 561.047 221.489 571.523Z" fill="url(#paint1_linear_2293_130233)"/>
<path d="M786.593 610.265C783.959 605.538 781.965 599.432 780.235 594.287C775.189 579.192 771.674 563.666 761.645 550.852C759.567 548.198 750.623 538.761 750.352 536.461C753.394 537.326 759.681 543.608 762.395 545.955C779.814 561.015 789.571 576.548 796.033 598.709C794.8 601.38 793.231 603.622 791.632 606.089C789.632 608.246 789.063 608.628 786.593 610.265Z" fill="#FFCFD2"/>
<path d="M678.576 546.09L680.302 545.926C684.193 557.217 691.217 577.398 690.896 589.247L690.632 591.538C687.836 618.568 687.977 653.112 665.541 671.453C647.894 685.879 626.252 683.154 612.802 665C604.427 653.697 601.988 647.047 598.565 633.574C583.32 659.241 561.742 679.503 530.029 677.17L531.889 676.151C565.092 676.227 584.56 657.683 599.28 629.269C603.487 657.232 623.824 691.367 657.106 675.508C679.78 664.704 684.655 636.304 687.058 614.019C688.904 596.906 691.257 581.507 685.296 564.605C683.201 558.397 681.475 552.036 678.576 546.09Z" fill="#161712"/>
<path d="M317.46 548.795C315.249 555.193 313.646 562.51 311.818 569.109C308.434 581.329 305.005 592.997 300.199 604.731C287.269 638.148 267.25 680.783 232.598 695.865C227.532 698.07 213.544 702.995 208.119 702.393L208.078 701.466C220.373 699.68 235.003 695.441 245.084 688.086C282.104 661.076 308.231 590.511 316.252 547.496C325.038 549.352 333.998 552.145 336.203 561.903C341.81 586.723 349.235 607.541 359.971 630.504C375.238 663.157 405.443 690.657 443.131 674.541C457.131 668.478 473.735 651.014 478.708 636.639C487.985 653.791 498.227 664.545 516.188 672.718L515.425 673.872C514.581 674.008 514.452 674.096 513.612 674.038L514.184 673.493C513.898 672.969 501.944 665.895 500.11 664.482C491.098 657.541 484.675 649.33 479.191 639.455C471.817 654.503 457.966 669.073 442.556 676.03C430.151 681.586 416.037 681.942 403.367 677.02C374.663 666.146 363.433 640.799 351.938 615.099C343.635 596.493 339.902 576.85 333.434 557.75C331.808 552.948 322.064 550.278 317.46 548.795Z" fill="#332D2D"/>
<path d="M881.664 563.402C884.6 561.642 895.643 551.706 898.934 548.82C906.062 561.784 906.267 572.534 909.428 586.335C922.398 642.952 921.2 697.494 906.164 753.136C882.131 842.071 810.547 870.462 726.23 847.709C718.963 845.748 710.382 842.259 703.383 839.301C721.36 809.511 735.074 779.698 743.948 746.003C745.449 740.306 751.119 731.895 747.414 726.721C762.861 715.842 774.083 702.569 783.741 686.542C786.034 682.758 788.153 678.872 790.091 674.896C792.308 670.364 794.724 662.855 799.033 660.587C804.725 657.689 813.078 652.9 817.641 648.453C818.798 647.704 818.204 647.776 819.397 647.909C820.037 649.535 819.532 653.016 819.379 654.829C818.269 669.029 814.745 682.937 808.961 695.953C794.203 728.876 775.156 741.76 743.059 753.897C792.89 745.101 821.788 692.598 821.487 645.206C837.751 629.416 849.017 611.693 851.635 588.802C861.175 579.787 873.2 571.642 881.664 563.402Z" fill="#FBF8CC"/>
<path d="M300.199 604.733C305.005 592.999 308.434 581.331 311.818 569.111C313.646 562.512 315.249 555.195 317.46 548.797C322.064 550.28 331.808 552.95 333.434 557.752C339.902 576.852 343.635 596.495 351.938 615.101C338.812 613.823 325.679 608.642 312.652 607.008C311.616 606.877 310.185 607.465 309.248 607.837C308.565 605.458 308.478 604.459 306.05 603.623C304.075 604.02 303.917 604.381 302.392 605.856L300.199 604.733ZM319.809 566.522C316.842 567.847 314.644 569.004 315.161 572.796C316.082 573.787 316.173 574.18 317.433 574.404C319.393 572.18 321.948 569.964 321.978 567.143L321.358 566.502C321.098 566.5 320.017 566.465 319.809 566.522Z" fill="#FFCFD2"/>
<path d="M221.489 571.524C234.982 561.048 245.397 559.079 261.705 555.234C251.712 580.177 241.586 608.945 226.544 631.38C221.284 639.226 208.932 646.164 201.496 636.288C215.916 645.914 225.318 633.492 231.912 621.412C243.145 600.834 251.259 578.368 260.055 556.631C249.881 558.455 239.272 561.547 230.067 566.272C227.358 567.662 224.999 569.736 222.389 571.073L221.489 571.524Z" fill="#4F5560"/>
<path d="M201.496 636.286C201.152 636.01 200.542 635.264 200.334 634.867C189.531 614.307 204.468 583.238 221.489 571.522L222.389 571.071C224.999 569.734 227.358 567.66 230.067 566.27C239.272 561.545 249.881 558.453 260.055 556.629C251.259 578.366 243.145 600.832 231.912 621.41C225.318 633.49 215.916 645.912 201.496 636.286Z" fill="#A3C4F3"/>
<path d="M850.906 583.141L851.39 583.281C853.918 582.469 876.194 563.135 880.34 560.242L880.436 561.012C879.153 562.224 875.266 565.257 874.848 566.313L874.847 566.316L875.777 566.813C878.592 565.582 879.974 562.804 881.475 563.211L881.664 563.403C873.2 571.643 861.175 579.788 851.635 588.803C849.017 611.694 837.751 629.417 821.487 645.207C821.788 692.599 792.89 745.102 743.059 753.898C775.156 741.761 794.203 728.877 808.961 695.954C814.745 682.938 818.269 669.03 819.379 654.83C819.532 653.017 820.037 649.536 819.397 647.91C818.204 647.777 818.798 647.705 817.641 648.454L817.008 648.04C835.186 633.262 850.52 608.122 850.693 584.254L850.906 583.141Z" fill="#020202"/>
<path d="M317.434 574.403C316.174 574.179 316.083 573.786 315.162 572.795C314.645 569.003 316.843 567.846 319.81 566.521C320.018 566.464 321.099 566.499 321.359 566.501L321.979 567.142C321.949 569.963 319.394 572.179 317.434 574.403Z" fill="#020202"/>
<path d="M690.633 591.537L690.897 589.246C693.087 594.573 695.328 608.809 697.094 615.201C697.759 617.607 700.802 628.449 701.095 630.161C697.08 621.596 695.358 610.076 693.159 600.869C692.48 598.024 691.758 594.142 690.633 591.537Z" fill="#696D59"/>
<path d="M690.632 591.535C691.757 594.14 692.479 598.022 693.158 600.867C695.357 610.074 697.079 621.594 701.094 630.159C702.235 633.692 707.787 645.122 710.555 647.115C716.148 656.49 731.661 662.993 741.786 665.615C744.257 666.255 751.417 667.432 752.872 667.949C738.982 690.504 711.88 709.586 686.151 715.529C643.985 725.27 604.278 708.322 563.877 698.743C525.926 689.745 485.254 690.954 448.154 703.085C421.912 711.666 396.209 727.795 373.92 743.947C359.351 754.505 344.172 766.376 327.436 773.282L327.132 774.07L327.855 774.69C336.572 773.314 372.805 747.353 381.486 741.488C389.932 735.673 398.567 730.137 407.377 724.889C447.686 701.257 493.734 690.027 540.434 697.051C602.257 706.35 664.043 742.469 723.308 701.404C732.094 695.305 740.039 688.077 746.938 679.904C749.867 676.441 753.299 671.726 756.231 668.542C761.328 668.592 766.425 668.55 771.52 668.419C760.596 694.069 732.966 715.845 707.448 725.906C678.588 737.285 648.809 736.885 618.744 731.666C610.932 730.309 599.468 727.627 592.249 726.73C602.627 730.935 638.077 735.699 649.92 736.031C653.522 736.703 658.535 736.769 662.13 736.044C674.318 735.883 689.183 733.366 700.603 729.61C732.014 719.565 758.133 697.43 773.196 668.094C779.795 666.908 786.203 665.138 792.728 663.595C762.089 738.151 700.629 757.575 627.011 739.791C601.734 733.685 576.189 727.234 550.134 730.416C494.828 736.613 449.058 770.991 398.935 790.084C376.136 798.87 352.037 803.814 327.62 804.713C280.154 806.659 238.384 790.607 219.38 743.947C219.079 743.207 218.783 742.466 218.492 741.722C278.258 772.491 335.984 746.982 388.689 716.224C427.438 693.611 484.134 670.859 530.029 677.167C561.742 679.5 583.32 659.238 598.565 633.571C601.988 647.044 604.427 653.694 612.802 664.997C626.252 683.151 647.894 685.876 665.541 671.45C687.977 653.109 687.836 618.565 690.632 591.535ZM707.677 657.223C706.867 657.683 706.37 658.547 706.38 659.479C706.391 660.41 706.907 661.263 707.728 661.704C708.549 662.146 709.545 662.106 710.328 661.6C711.491 660.849 711.846 659.309 711.129 658.124C710.412 656.939 708.882 656.54 707.677 657.223ZM688.55 682.061C687.638 682.328 686.949 683.079 686.763 684.011C686.577 684.943 686.924 685.901 687.663 686.498C688.403 687.095 689.413 687.231 690.284 686.852C691.52 686.315 692.125 684.909 691.666 683.642C691.208 682.375 689.843 681.683 688.55 682.061ZM664.507 697.199C663.087 697.87 662.437 699.533 663.028 700.989C663.619 702.445 665.244 703.185 666.73 702.675C667.767 702.32 668.523 701.42 668.694 700.337C668.864 699.254 668.422 698.165 667.545 697.508C666.668 696.85 665.499 696.732 664.507 697.199Z" fill="url(#paint2_linear_2293_130233)"/>
<path d="M302.393 605.854C303.918 604.379 304.076 604.018 306.051 603.621C308.479 604.457 308.566 605.456 309.249 607.835C307.677 609.248 306.772 609.998 304.534 609.391C302.95 608.173 302.971 607.748 302.393 605.854Z" fill="#020202"/>
<path d="M300.199 604.73L302.392 605.853C302.97 607.747 302.949 608.172 304.533 609.39C306.771 609.997 307.676 609.247 309.248 607.834C310.185 607.462 311.616 606.874 312.652 607.005C325.679 608.639 338.812 613.82 351.938 615.098C363.433 640.798 374.663 666.145 403.367 677.019C416.037 681.941 430.151 681.585 442.556 676.029C457.966 669.072 471.817 654.502 479.191 639.454C484.675 649.329 491.098 657.54 500.11 664.481C501.944 665.894 513.898 672.968 514.184 673.492L513.612 674.037C486.31 673.141 432.966 688.342 409.191 701.53C352.058 733.221 282.582 776.777 216.856 736.922C214.534 729.275 207.758 709.525 208.119 702.392C213.544 702.994 227.532 698.069 232.598 695.864C267.25 680.782 287.269 638.147 300.199 604.73ZM331.115 628.761C330.142 629.087 329.431 629.928 329.272 630.943C329.112 631.957 329.531 632.975 330.358 633.584C331.184 634.193 332.281 634.29 333.203 633.837C334.501 633.198 335.083 631.662 334.532 630.323C333.982 628.985 332.488 628.302 331.115 628.761ZM292.666 642.712C291.416 643.346 290.616 644.615 290.582 646.016C290.548 647.417 291.286 648.723 292.503 649.418C293.72 650.112 295.22 650.082 296.408 649.339C298.137 648.259 298.709 646.01 297.707 644.235C296.705 642.46 294.483 641.789 292.666 642.712ZM323.713 660.295C322.358 661.167 321.975 662.977 322.859 664.323C323.744 665.67 325.557 666.037 326.895 665.14C328.217 664.254 328.578 662.47 327.704 661.14C326.831 659.811 325.05 659.434 323.713 660.295ZM370.882 664.726C369.847 664.843 368.959 665.518 368.568 666.484C368.177 667.45 368.347 668.553 369.009 669.357C369.672 670.161 370.721 670.539 371.744 670.34C373.243 670.05 374.244 668.627 374.013 667.119C373.781 665.61 372.399 664.554 370.882 664.726ZM280.58 667.717C278.63 667.924 277.21 669.662 277.397 671.614C277.583 673.567 279.306 675.005 281.26 674.84C282.543 674.732 283.669 673.942 284.208 672.773C284.747 671.604 284.616 670.235 283.866 669.189C283.115 668.143 281.86 667.58 280.58 667.717ZM251.113 689.258C250.018 689.807 249.308 690.907 249.258 692.131C249.207 693.355 249.826 694.509 250.872 695.146C251.918 695.783 253.228 695.802 254.292 695.195C255.877 694.291 256.454 692.288 255.593 690.679C254.731 689.07 252.745 688.44 251.113 689.258ZM302.142 694.069C300.291 694.765 299.336 696.813 299.994 698.678C300.651 700.542 302.679 701.539 304.557 700.92C305.806 700.509 306.736 699.453 306.986 698.162C307.237 696.87 306.769 695.544 305.764 694.695C304.759 693.846 303.374 693.606 302.142 694.069ZM348.679 696.132C347.621 696.081 346.621 696.623 346.086 697.538C345.551 698.453 345.569 699.59 346.133 700.488C346.697 701.385 347.713 701.895 348.77 701.81C350.266 701.69 351.411 700.429 351.387 698.929C351.363 697.428 350.178 696.205 348.679 696.132ZM262.99 716.196C261.457 716.794 260.692 718.516 261.275 720.055C261.858 721.594 263.572 722.376 265.117 721.809C266.13 721.436 266.865 720.548 267.042 719.484C267.219 718.419 266.811 717.341 265.973 716.661C265.135 715.981 263.996 715.803 262.99 716.196Z" fill="#FBF8CC"/>
<path d="M333.203 633.84C332.281 634.293 331.184 634.196 330.358 633.587C329.531 632.978 329.112 631.96 329.272 630.946C329.431 629.931 330.142 629.09 331.115 628.764C332.488 628.305 333.982 628.988 334.532 630.326C335.083 631.665 334.501 633.201 333.203 633.84Z" fill="#020202"/>
<path d="M136.851 639.922C140.622 657.903 150.382 681.266 166.418 691.339C178.393 698.861 177.19 698.505 184.565 710.403C191.024 720.824 203.019 732.527 213.666 738.944C223.239 765.043 239.73 785.867 265.301 797.421C285.469 806.534 298.863 807.225 319.876 808.124C318.42 808.973 313.231 808.5 311.358 808.411C310.307 812.789 309.15 816.415 309.372 820.966C310.306 840.104 324.806 852.197 339.712 861.856C341.725 863.16 345.446 865.399 347.111 866.853C304.839 879.98 245.865 881.288 202.911 870.179C190.954 867.087 182.133 862.88 171.233 857.566C143.546 844.067 121.485 824.438 105.721 797.696C92.5977 775.432 81.8139 734.849 87.9343 708.994C93.1143 687.111 107.869 665.713 124.13 650.533C127.408 647.473 133.071 642.135 136.851 639.922Z" fill="#FBF8CC"/>
<path d="M296.407 649.341C295.219 650.084 293.719 650.114 292.502 649.42C291.285 648.725 290.547 647.419 290.581 646.018C290.615 644.617 291.415 643.348 292.665 642.714C294.482 641.791 296.704 642.462 297.706 644.237C298.708 646.012 298.136 648.261 296.407 649.341Z" fill="#020202"/>
<path d="M710.555 647.117C726.509 660.958 734.539 664.983 756.323 667.185L753.227 667.433L752.872 667.951C751.417 667.434 744.257 666.257 741.786 665.617C731.661 662.995 716.148 656.492 710.555 647.117Z" fill="#7E9276"/>
<path d="M798.734 659.772C805.992 655.176 809.652 653.894 817.007 648.039L817.64 648.453C813.077 652.9 804.724 657.689 799.032 660.587L798.734 659.772Z" fill="#3D4237"/>
<path d="M710.327 661.601C709.544 662.107 708.548 662.147 707.727 661.705C706.906 661.264 706.39 660.411 706.379 659.48C706.369 658.548 706.866 657.684 707.676 657.224C708.881 656.541 710.411 656.94 711.128 658.125C711.845 659.31 711.49 660.85 710.327 661.601Z" fill="#020202"/>
<path d="M326.895 665.143C325.557 666.04 323.744 665.673 322.859 664.326C321.975 662.98 322.358 661.17 323.713 660.298C325.05 659.437 326.831 659.814 327.704 661.143C328.578 662.473 328.217 664.257 326.895 665.143Z" fill="#020202"/>
<path d="M756.324 667.184C766.794 669.272 782.853 665.272 792.907 662.301L792.729 663.596C786.204 665.139 779.796 666.909 773.197 668.095C758.134 697.431 732.015 719.566 700.604 729.611C689.184 733.367 674.319 735.884 662.131 736.045C658.616 735.752 653.468 735.849 649.921 736.032C638.078 735.7 602.628 730.936 592.25 726.731C599.469 727.628 610.933 730.31 618.745 731.667C648.81 736.886 678.589 737.286 707.449 725.907C732.967 715.846 760.597 694.07 771.521 668.42C766.426 668.551 761.329 668.593 756.232 668.543L756.324 667.184Z" fill="#332D2D"/>
<path d="M371.745 670.339C370.722 670.538 369.673 670.16 369.01 669.356C368.348 668.552 368.178 667.449 368.569 666.483C368.96 665.517 369.848 664.842 370.883 664.725C372.4 664.553 373.782 665.609 374.014 667.118C374.245 668.626 373.244 670.049 371.745 670.339Z" fill="#020202"/>
<path d="M281.26 674.843C279.306 675.008 277.583 673.57 277.397 671.617C277.21 669.665 278.63 667.927 280.58 667.72C281.86 667.583 283.115 668.146 283.866 669.192C284.616 670.238 284.747 671.607 284.208 672.776C283.669 673.945 282.543 674.735 281.26 674.843Z" fill="#020202"/>
<path d="M752.873 667.95L753.228 667.432L756.324 667.184L756.232 668.543C753.3 671.727 749.868 676.442 746.939 679.905C740.04 688.078 732.095 695.306 723.309 701.405C664.044 742.47 602.258 706.351 540.435 697.052C493.735 690.028 447.687 701.258 407.378 724.89C398.568 730.138 389.933 735.674 381.487 741.489C372.806 747.354 336.573 773.315 327.856 774.691L327.133 774.071L327.437 773.283C344.173 766.377 359.352 754.506 373.921 743.948C396.21 727.796 421.913 711.667 448.155 703.086C485.255 690.955 525.927 689.746 563.878 698.744C604.279 708.323 643.986 725.271 686.152 715.53C711.881 709.587 738.983 690.505 752.873 667.95Z" fill="#020202"/>
<path d="M690.283 686.855C689.412 687.234 688.402 687.098 687.662 686.501C686.923 685.904 686.576 684.946 686.762 684.014C686.948 683.082 687.637 682.331 688.549 682.064C689.842 681.686 691.207 682.378 691.665 683.645C692.124 684.912 691.519 686.318 690.283 686.855Z" fill="#020202"/>
<path d="M254.293 695.197C253.229 695.804 251.919 695.785 250.873 695.148C249.827 694.511 249.208 693.357 249.259 692.133C249.309 690.909 250.019 689.809 251.114 689.26C252.746 688.442 254.732 689.072 255.594 690.681C256.455 692.29 255.878 694.293 254.293 695.197Z" fill="#020202"/>
<path d="M304.556 700.919C302.678 701.538 300.65 700.541 299.993 698.677C299.335 696.812 300.29 694.764 302.141 694.068C303.373 693.605 304.758 693.845 305.763 694.694C306.768 695.543 307.236 696.869 306.985 698.161C306.735 699.452 305.805 700.508 304.556 700.919Z" fill="#020202"/>
<path d="M348.77 701.81C347.713 701.895 346.697 701.385 346.133 700.488C345.569 699.59 345.551 698.453 346.086 697.538C346.621 696.623 347.621 696.081 348.679 696.132C350.178 696.205 351.363 697.428 351.387 698.929C351.411 700.429 350.266 701.69 348.77 701.81Z" fill="#020202"/>
<path d="M666.73 702.677C665.244 703.187 663.619 702.447 663.028 700.991C662.437 699.535 663.087 697.871 664.507 697.2C665.499 696.733 666.668 696.852 667.545 697.51C668.422 698.167 668.864 699.255 668.694 700.338C668.523 701.421 667.767 702.322 666.73 702.677Z" fill="#020202"/>
<path d="M182.316 698.094C189.253 700.134 195.804 701.329 203.067 701.521L203.688 702.568C195.471 702.483 189.862 701.285 182.035 699.185L182.316 698.094Z" fill="#161712"/>
<path d="M182.035 699.184C189.862 701.284 195.471 702.482 203.688 702.567C204.405 704.281 206.213 712.229 206.737 714.317C208.363 720.741 210.114 727.134 211.989 733.49C201.557 726.792 186.124 710.66 182.035 699.184Z" fill="#FBF8CC"/>
<path d="M265.118 721.811C263.573 722.378 261.859 721.596 261.276 720.057C260.693 718.518 261.457 716.796 262.99 716.198C263.996 715.805 265.136 715.983 265.974 716.663C266.812 717.343 267.22 718.421 267.043 719.486C266.866 720.55 266.131 721.438 265.118 721.811Z" fill="#020202"/>
<path d="M319.875 808.125C348.312 807.358 371.379 803.219 398.347 793.198C453.723 772.622 505.111 732.088 566.499 731.981C586.684 731.946 609.597 738.352 629.377 742.529C671.718 751.471 709.804 751.493 747.413 726.723C751.118 731.897 745.448 740.308 743.947 746.005C735.073 779.7 721.359 809.513 703.382 839.303L702.989 839.812C697.835 846.591 692.512 856.349 687.352 863.651C659.04 903.719 624.722 931.374 574.627 937.648C510.36 945.698 448.642 921.487 393.021 892.095C383.166 886.943 373.403 881.62 363.734 876.128C360.883 874.51 349.307 867.666 347.11 866.854C345.445 865.4 341.724 863.161 339.711 861.857C324.805 852.198 310.305 840.105 309.371 820.967C309.149 816.416 310.306 812.79 311.357 808.412C313.23 808.501 318.419 808.974 319.875 808.125Z" fill="#FAECE9"/>
<path d="M649.92 736.033C653.467 735.85 658.615 735.753 662.13 736.046C658.535 736.771 653.522 736.705 649.92 736.033Z" fill="#938878"/>
<defs>
<linearGradient id="paint0_linear_2293_130233" x1="403.489" y1="336.355" x2="551.822" y2="748.632" gradientUnits="userSpaceOnUse">
<stop stop-color="#F3D8DA"/>
<stop offset="1" stop-color="#C9F2DF"/>
</linearGradient>
<linearGradient id="paint1_linear_2293_130233" x1="257.721" y1="601.645" x2="193.761" y2="576.76" gradientUnits="userSpaceOnUse">
<stop stop-color="#E4E7DD"/>
<stop offset="1" stop-color="#D1F0E2"/>
</linearGradient>
<linearGradient id="paint2_linear_2293_130233" x1="494.27" y1="622.933" x2="515.689" y2="778.981" gradientUnits="userSpaceOnUse">
<stop stop-color="#FFF7B2"/>
<stop offset="1" stop-color="#FEE5DD"/>
</linearGradient>
</defs>
</svg>
