<svg width="1024" height="1024" viewBox="0 0 1024 1024" fill="none" xmlns="http://www.w3.org/2000/svg">
<path d="M87.0123 566.659C84.5731 558.148 83.3126 530.696 82.6875 521.225C70.9571 343.505 183.566 153.859 364.735 115.04C459.289 94.7802 554.817 111.534 641.372 153.711C658.149 161.886 672.429 171.629 688.136 181.285C685.352 182.883 682.186 183.497 679.116 184.38C667.691 187.662 656.199 190.592 644.959 194.483C629.596 199.747 614.323 205.267 599.144 211.04C592.781 213.489 577.297 220.608 571.692 221.391C571.561 221.251 571.43 221.111 571.299 220.971C560.247 204.747 554.09 181.101 530.558 179.24C509.692 178.395 496.376 199.625 479.988 209.419C468.88 216.057 457.851 220.055 446.712 225.832C425.563 236.803 406.881 253.7 390.924 271.071C387.187 268.436 378.491 265.651 373.79 264.198C342.155 254.614 308.712 252.594 276.153 258.3C223.548 267.437 176.63 295.157 145.22 339.082C128.887 361.923 113.969 397.157 118.334 425.462C120.142 437.188 128.684 447.478 138.31 454.287C158.729 468.731 189.824 467.78 209.653 482.049C167.532 481.358 144.303 507.723 117.771 535.798C107.91 546.233 96.6688 555.292 87.4107 566.589L87.0123 566.659Z" fill="#FDE4CF"/>
<path d="M390.923 271.074C406.88 253.703 425.562 236.806 446.711 225.835C457.85 220.058 468.879 216.06 479.987 209.422C496.375 199.628 509.691 178.398 530.557 179.243C554.089 181.104 560.246 204.75 571.298 220.974C571.429 221.114 571.56 221.254 571.691 221.394C584.28 233.739 594.746 248.25 608.155 259.485C613.52 263.981 626.283 262.791 631.551 268.951C641.779 278.885 646.87 293.803 660.598 299.466C667.937 302.493 674.933 302.513 682.705 303.193C694.515 304.226 706.068 311.061 712.724 320.935C725.318 339.619 725.848 364.776 736.335 384.572C740.626 392.29 745.678 394.634 752.256 400.245C760.711 407.456 770.497 414.824 776.461 424.277C785.156 438.06 781.432 452.805 782.473 467.876C783.342 475.541 786.295 483.692 789.276 490.703C795.961 506.427 810.899 516.036 824.06 525.942C834.343 533.681 841.771 539.982 845.03 552.984C847.827 564.144 848.751 575.564 852.407 586.489C857.455 602.185 865.74 616.466 870.314 632.291C872.831 640.633 873.889 649.787 874.46 658.434C874.361 662.935 874.259 667.166 873.948 671.67C879.816 663.105 894.94 649.107 904.537 645.352L905.262 645.554C906.657 651.673 890.294 683.382 886.755 690.454C895.255 684.233 911.819 674.54 922.82 677.739C921.604 685.265 906.87 700.072 900.46 704.695C899.208 704.93 899.389 704.642 898.698 705.581C897.38 707.371 893.324 709.954 892.071 711.279C886.607 713.164 881.237 715.312 875.98 717.714C864.234 723.116 853.388 729.755 839.99 727.607C828.548 725.772 819.643 723.482 807.928 722.558C801.854 722.08 788.315 724.281 785.007 723.152L784.538 722.191L784.978 721.27C786.972 720.263 800.632 719.728 803.844 719.517C799.522 709.035 796.403 700.392 795.345 689.131C795.85 687.775 795.866 687.878 796.997 686.938C802.212 690.378 808.317 699.956 812.68 704.756C812.04 698.511 812.128 673.425 816.539 669.078L817.479 669.113C821.006 671.981 825.749 684.98 827.666 689.74C828.621 684.985 829.417 674.01 835.861 675.056L836.363 675.14C838.527 665.271 828.801 636.98 824.415 626.895C821.711 620.677 816.431 613 814.074 606.635C806.976 587.466 794.788 570.689 788.511 551.515C785.147 540.66 786.576 525.574 784.933 514.126C782.927 500.15 780.96 486.41 779.61 472.406C778.595 459.472 781.62 444.206 776.971 431.959C772.098 419.123 757.177 408.75 746.951 400.102C742.958 396.725 737.339 393.419 734.707 388.746C724.606 370.819 722.755 345.373 712.896 327.456C710.1 322.361 706.277 317.903 701.667 314.363C684.194 300.9 672.017 310.539 654.962 300.738C643.705 294.269 637.581 275.086 626.594 268.912C623.037 266.914 614.095 264.826 609.795 263.604C619.254 276.426 628.917 291.762 637.383 305.286C644.625 316.855 654.43 330.71 658.685 343.54C661.376 351.658 663.336 362.544 665.405 371.12C669.012 386.399 673.669 401.41 679.344 416.047C684.666 429.588 690.216 443.255 695.618 456.764C697.771 462.147 704.688 474.218 705.461 477.74C704.971 479.256 705.453 478.785 704.241 479.429C698.106 476.718 670.537 399.916 667.352 388.922C665.131 381.01 663.107 373.045 661.283 365.033C658.942 354.619 657.813 346.876 653.284 337.113C647.807 325.302 641.277 316.309 634.35 305.43C625.544 291.598 616.556 277.738 606.845 264.506C603.037 259.317 597.367 254.635 593.402 249.812C585.987 240.791 578.734 232.559 570.81 223.981C573.203 230.666 575.059 236.946 576.743 243.863C583.366 271.058 581.872 299.418 588.566 326.525C589.686 331.062 594.835 345.974 594.333 349.656L593.867 349.571C585.437 339.512 580.284 292.335 578.784 278.412C578.509 275.167 577.939 267.425 577.143 264.559C575.499 242.771 563.762 204.623 546.831 189.502C541.142 184.421 532.866 181.189 525.295 182.104C522.34 182.449 519.848 182.626 517.99 185.195C512.213 193.18 507.702 202.294 502.512 210.627C485.527 237.899 467.069 265.061 462.851 297.714C462.428 300.992 461.643 312.214 459.688 314.194L458.75 314.103C458.186 312.39 458.823 307.78 459.031 305.756C460.891 287.624 465.611 270.193 474.001 253.931C484.664 233.262 497.612 213.861 509.283 193.758C510.702 191.313 512.285 189.018 513.567 186.488C501.432 194.633 493.797 203.971 482.021 211.469C469.88 219.199 454.479 224.399 442.04 231.779C409.545 251.059 381.662 281.571 363.089 314.345C359.705 320.317 352.376 330.348 350.455 336.387C350.057 337.639 349.67 348.346 349.543 350.627C349.167 357.256 348.183 363.836 346.603 370.285C342.122 388.317 333.674 405.157 329.862 423.289C328.788 428.541 327.933 433.836 327.298 439.158C326.995 441.801 325.926 455.567 325.332 456.95L323.328 457.633C322.659 454.786 323.442 447.598 323.778 444.414C325.126 431.109 327.916 417.991 332.099 405.289C335.932 393.936 340.903 382.092 343.914 370.55C346.229 361.682 347.018 348.949 347.352 339.566C343.239 343.539 339.025 347.432 334.302 350.626C325.571 356.532 315.417 361.296 305.607 365.132C290.498 371.04 280.113 374.796 270.701 388.857C256.631 409.877 254.707 434.409 245.145 457.266C238.083 474.645 225.87 489.747 219.882 507.584C216.539 517.544 216.052 528.95 215.807 539.413C215.062 571.221 220.611 602.498 222.552 634.155C222.414 637.197 222.35 640.5 221.886 643.488C222.035 645.65 222.471 647.32 221.569 649.148C220.413 647.388 220.605 643.061 220.042 640.214C218.994 605.652 212.742 575.472 212.991 539.523C203.848 550.649 195.549 560.551 187.471 572.927C172.819 595.373 166.815 620.706 160.967 646.419C159.979 650.76 154.596 684.528 154.122 685.346C153.596 686.493 153.46 686.986 153.282 688.236L152.33 687.976C152.665 677.743 156.559 656.364 158.711 646.189C163.783 623.919 169.81 598.839 181.014 578.748C188.683 564.998 202.236 547.554 212.91 535.84C214.788 511.547 215.336 509.557 225.543 487.623C232.372 476.214 240.067 463.704 244.527 451.106C252.622 428.24 254.62 407.832 268.669 386.937C285.38 362.082 318.212 363.279 339.774 342.814C352.727 330.52 360.287 311.977 370.275 297.088C376.912 287.193 383.171 279.991 390.923 271.074ZM783.846 486.281C785.15 497.106 787.065 507.903 788.419 518.796C789.672 528.874 788.36 543.532 791.912 552.847C798.775 570.844 810.011 588.045 817.235 606.283C821.344 616.658 828.792 626.224 831.686 637.443C834.12 644.901 836.929 652.961 837.89 660.796C839.328 672.521 838.163 676.735 842.547 688.15C847.616 678.956 853.044 670.544 860.102 662.71C862.225 660.354 862.995 659.323 866.275 659.624C866.554 666.61 866.607 675.75 866.117 682.699C883.273 655.782 857.91 611.877 848.921 585.441C843.777 570.317 845.788 552.527 835.204 539.622C824.237 527.424 808.715 520.121 796.559 507.389C790.474 501.017 785.536 487.726 783.846 486.281ZM901.457 649.573C889.591 657.251 879.9 667.555 871.747 678.977C870.394 680.873 865.877 687.94 864.083 688.668C862.981 686.685 863.865 666.379 863.947 662.481C851.968 676.176 848.942 679.839 841.719 696.318C839.528 691.569 838.235 680.485 834.302 678.01C828.254 679.191 832.008 706.237 829.819 710.083C826.884 705.014 827.55 696.843 826.11 692.552C824.414 687.5 819.912 677.252 817.314 672.718C815.546 680.672 814.754 688.812 814.956 696.959C815.009 699.403 816.018 710.153 815.735 711.356L814.902 711.893C811.114 708.016 806.6 701.276 802.933 696.843C801.365 694.969 799.817 693.047 798.121 691.293C800.079 701.682 802.446 710.31 807.273 719.865C821.702 720.564 836.822 725.638 850.817 724.756C857.523 724.334 869.243 717.178 875.526 714.975C885.627 710.508 891.242 710.347 899.288 702.379C906.565 695.17 914.698 688.711 919.489 679.364C907.488 681.362 900.575 684.003 890.607 691.295C887.61 693.487 883.048 696.89 879.811 698.504C884.837 686.28 898.814 661.935 901.762 650.194L901.457 649.573Z" fill="#3A3645"/>
<path d="M688.135 181.285C691.502 182.263 698.504 188.694 701.756 191.056C773.437 243.12 829.668 316.351 866.232 396.718C868.01 400.626 872.808 409.678 873.353 413.707C867.451 410.94 861.095 406.618 855.177 403.514C819.283 384.692 776.258 372.886 736.335 384.569C725.848 364.773 725.318 339.616 712.724 320.932C706.068 311.058 694.515 304.223 682.705 303.19C674.933 302.51 667.937 302.49 660.598 299.463C646.87 293.8 641.779 278.882 631.551 268.948C626.283 262.788 613.52 263.978 608.155 259.482C594.746 248.247 584.28 233.736 571.691 221.391C577.296 220.608 592.78 213.489 599.143 211.04C614.322 205.267 629.595 199.747 644.958 194.483C656.198 190.592 667.69 187.662 679.115 184.38C682.185 183.497 685.351 182.883 688.135 181.285Z" fill="#FFCFD2"/>
<path d="M549.076 238.389L549.963 238.499C550.876 240.986 550.692 242.159 553.11 243.138L553.486 242.557C551.775 240.616 551.589 240.002 551.009 237.411L550.802 236.446C553.99 241.528 558.681 247.935 561.502 252.542C564.92 258.123 568.166 272.545 570.168 279.235C571.289 282.979 571.572 292.238 572.777 295.539L573.627 295.651C576.112 293.447 575.028 280.451 574.741 276.849L575.51 276.519L575.641 274.776L576.973 274.078C577.12 273.425 577.272 272.773 577.432 272.123C577.626 274.719 577.836 277.313 578.063 279.906L578.436 280.075L578.785 278.412C580.285 292.335 585.438 339.512 593.868 349.571L594.334 349.656C594.836 345.974 589.687 331.062 588.567 326.525C581.873 299.418 583.367 271.058 576.744 243.863C575.06 236.946 573.204 230.666 570.811 223.981C578.735 232.559 585.988 240.791 593.403 249.812C597.368 254.635 603.038 259.317 606.846 264.506C616.557 277.738 625.545 291.598 634.351 305.43C641.278 316.309 647.808 325.302 653.285 337.113C657.814 346.876 658.943 354.619 661.284 365.033C663.108 373.045 665.132 381.01 667.353 388.922C670.538 399.916 698.107 476.718 704.242 479.429C705.454 478.785 704.972 479.256 705.462 477.74C704.689 474.218 697.772 462.147 695.619 456.764C690.217 443.255 684.667 429.588 679.345 416.047C673.67 401.41 669.013 386.399 665.406 371.12C663.337 362.544 661.377 351.658 658.686 343.54C654.431 330.71 644.626 316.855 637.384 305.286C628.918 291.762 619.255 276.426 609.796 263.604C614.096 264.826 623.038 266.914 626.595 268.912C637.582 275.086 643.706 294.269 654.963 300.738C672.018 310.539 684.195 300.9 701.668 314.363C706.278 317.903 710.101 322.361 712.897 327.456C722.756 345.373 724.607 370.819 734.708 388.746C737.34 393.419 742.959 396.725 746.952 400.102C757.178 408.75 772.099 419.123 776.972 431.959C781.621 444.206 778.596 459.472 779.611 472.406C780.961 486.41 782.928 500.15 784.934 514.126C786.577 525.574 785.148 540.66 788.512 551.515C794.789 570.689 806.977 587.466 814.075 606.635C816.432 613 821.712 620.677 824.416 626.895C828.802 636.98 838.528 665.271 836.364 675.14L835.862 675.056C829.418 674.01 828.622 684.985 827.667 689.74C825.75 684.98 821.007 671.981 817.48 669.113L816.54 669.078C812.129 673.425 812.041 698.511 812.681 704.756C808.318 699.956 802.213 690.378 796.998 686.938C800.662 685.558 799.606 681.683 799.427 678.275C799.708 662.227 803.92 645.787 800.109 629.788C798.552 623.252 791.727 599.594 784.728 597.79L783.977 598.28L783.958 599.024L784.45 599.552C793.121 609.083 797.272 627.531 797.778 640.141C798.13 648.897 797.191 658.399 796.407 667.174C795.855 672.047 796.111 678.844 796.007 683.888C794.875 685.391 794.384 685.755 794.324 687.635L794.926 689.027L795.346 689.131C796.404 700.392 799.523 709.035 803.845 719.517C800.633 719.728 786.973 720.263 784.979 721.27L784.539 722.191L785.008 723.152C788.316 724.281 801.855 722.08 807.929 722.558C819.644 723.482 828.549 725.772 839.991 727.607C853.389 729.755 864.235 723.116 875.981 717.714C881.238 715.312 886.608 713.164 892.072 711.279L892.505 711.137C894.231 710.56 894.096 710.531 895.575 709.804C899.258 707.993 904.699 707.179 908.655 706.346C929.037 702.05 945.758 705.888 965.232 711.661C967.66 712.38 975.725 715.475 978.311 715.278C978.558 715.13 978.805 714.981 979.053 714.833C978.804 717.458 984.546 725.693 984.75 732.508C985.429 755.242 980.642 788.725 971.028 809.006C958.308 835.839 927.497 835.945 905.093 846.823C902.747 831.423 881.938 825.219 877.903 817.856C891.532 820.773 904.703 823.506 918.767 822.02C922.214 821.656 934.134 820.889 935.904 818.744L935.503 818.042C933.841 817.569 920.891 819.266 917.742 819.435C913.491 819.669 909.231 819.664 904.981 819.421C892.292 818.648 879.445 815.161 867.011 812.335C865.697 811.005 848.75 803.67 845.366 801.906C829.66 793.718 817.511 786.306 805.499 773.05C802.535 769.779 797.545 766.513 795.852 762.388C813.911 763.679 833.684 764.473 850.62 757.463C876.048 746.938 896.151 743.84 923.733 743.412C938.317 743.096 952.898 744.098 967.301 746.404C969.716 746.791 975.085 747.962 977.146 746.828L977.006 745.927C975.22 744.085 965.548 743.374 962.234 742.92C935.417 739.246 898.958 739.451 872.987 746.797C857.181 751.267 845.05 757.884 827.756 759.969C810.58 762.041 797.566 758.98 781.044 758.402C777.337 758.161 773.906 757.309 770.172 756.761C763.441 755.809 756.704 754.895 749.962 754.019C732.83 751.735 715.296 749.789 698.341 746.425C691.881 745.143 676.471 739.982 674.902 732.742C695.404 737.726 746.112 741.204 765.715 734.457C759.384 714.006 749.963 692.605 741.84 672.795C736.748 660.377 732.426 647.306 725.968 635.505C724.739 633.259 721.856 628.973 719.225 628.571C718.165 628.409 718.384 628.654 717.202 629.528C715.912 628.395 715.272 608.283 715.062 605.005C714.479 596.52 713.495 588.068 712.112 579.676C696.917 484.152 641.802 408.606 543.946 388.94C395.078 359.023 303.758 499.856 281.96 627.983C281.425 631.125 280.098 646.358 278.677 647.227L277.202 644.788L276.602 644.759C274.283 646.879 271.592 653.197 269.91 656.115C260.791 671.937 253.761 688.739 245.622 705.002C241.291 713.656 235.152 722.8 230.001 731.027C228.348 730.436 226.078 729.324 224.514 729.754C222.59 730.009 219.88 729.998 217.88 730.051C220.692 726.589 238.964 704.596 235.38 701.956C229.717 701.35 214.886 708.953 209.344 711.825C213.166 703.992 220.516 686.144 222.005 677.917C222.24 673.342 221.254 662.511 220.924 657.683C221 655.094 221.354 651.789 221.57 649.148C222.472 647.32 222.036 645.65 221.887 643.488C223.208 643.398 222.787 643.527 223.898 642.926C228.483 636.45 237.919 610.632 241.067 603.19C248.832 584.831 272.814 531.513 272.397 514.3C272.389 509.979 272.708 507.494 270.864 503.573L270.168 503.798C269.198 506.258 269.435 507.671 269.488 510.31C266.222 530.994 255.882 551.675 248.895 571.371C242.333 589.869 235.573 607.658 226.856 625.263C225.756 627.486 224.159 632.971 222.553 634.155C220.612 602.498 215.063 571.221 215.808 539.413C216.053 528.95 216.54 517.544 219.883 507.584C225.871 489.747 238.084 474.645 245.146 457.266C254.708 434.409 256.632 409.877 270.702 388.857C280.114 374.796 290.499 371.04 305.608 365.132C315.418 361.296 325.572 356.532 334.303 350.626C339.026 347.432 343.24 343.539 347.353 339.566C347.019 348.949 346.23 361.682 343.915 370.55C340.904 382.092 335.933 393.936 332.1 405.289C327.917 417.991 325.127 431.109 323.779 444.414C323.443 447.598 322.66 454.786 323.329 457.633C323.483 463.184 320.356 472.954 318.707 478.593C323.942 471.884 325.969 465.565 325.333 456.95C325.927 455.567 326.996 441.801 327.299 439.158C327.934 433.836 328.789 428.541 329.863 423.289C333.675 405.157 342.123 388.317 346.604 370.285C348.184 363.836 349.168 357.256 349.544 350.627C349.671 348.346 350.058 337.639 350.456 336.387C352.377 330.348 359.706 320.317 363.09 314.345C381.663 281.571 409.546 251.059 442.041 231.779C454.48 224.399 469.881 219.199 482.022 211.469C493.798 203.971 501.433 194.633 513.568 186.488C512.286 189.018 510.703 191.313 509.284 193.758C497.613 213.861 484.665 233.262 474.002 253.931C465.612 270.193 460.892 287.624 459.032 305.756C458.824 307.78 458.187 312.39 458.751 314.103L459.689 314.194C461.644 312.214 462.429 300.992 462.852 297.714C467.07 265.061 485.528 237.899 502.513 210.627C507.703 202.294 512.214 193.18 517.991 185.195C519.849 182.626 522.341 182.449 525.296 182.104C532.867 181.189 541.143 184.421 546.832 189.502C563.763 204.623 575.5 242.771 577.144 264.559L576.511 265.471C577.244 268.971 576.912 269.198 575.51 272.48L575.001 272.892L574.928 271.97C574.811 270.57 574.784 269.795 574.153 268.543L573.773 269.345C570.933 260.234 569.761 256.125 563.221 249.276C554.568 241.334 545.498 214.162 537.108 207.925C521.315 196.183 506.692 251.67 504.557 258.35C501.168 268.948 480.255 304.918 481.206 312.525L482.144 313.13C480.51 317.529 478.224 322.431 477.145 326.97C475.225 335.048 470.606 344.131 469.088 352.073L469.613 352.275C476.479 345.705 487.897 306.159 492.308 294.98C494.437 289.585 498.202 284.497 501.06 279.436C504.198 273.881 506.804 267.884 509.185 261.967C514.409 248.986 516.446 234.458 522.27 221.853C523.681 218.801 525.953 214.512 529.075 213.018C529.718 212.71 530.866 212.231 531.528 212.538C535.819 214.531 549.955 254.762 552.055 261.919C553.875 268.236 555.638 274.57 557.344 280.92C558.316 284.588 559.226 292.355 562.841 294.194L563.643 293.628C566.453 283.053 553.551 248.828 549.076 238.389ZM434.394 266.693C432.895 266.294 433.108 266.01 432.045 266.687C428.56 268.907 425.193 274.151 422.825 277.444C407.096 299.316 396.937 322.357 386.896 347.166C381.906 359.494 375.612 371.067 372.642 384.389C372.292 385.962 371.998 386.85 372.885 388.3C374.425 388.853 373.676 388.87 375.206 388.204C378.471 384.19 379.743 378.424 381.785 373.853C387.755 360.493 391.317 346.709 397.428 333.331C404.068 318.796 411.73 305.785 419.886 292.094C422.923 287.392 428.324 278.861 431.884 274.721C438.906 266.557 445.966 261.482 451.296 251.436C443.016 256.209 440.953 262.132 434.394 266.693ZM520.367 296.001C520.211 293.224 520.491 286.391 518.406 284.687L517.625 285.376C516.614 288.608 516.776 292.072 516.887 295.454C517.156 310.591 516.299 339.275 521.339 352.356C521.734 339.223 521.701 325.975 521.442 312.836C521.332 307.243 520.547 301.463 520.367 296.001ZM573.845 350.069C570.905 342.639 565.925 329.375 562.395 322.619C563.164 333.318 566.964 341.581 571.126 351.375C572.313 355.265 576.319 370.657 580.213 371.493C581.871 367.919 575.601 353.657 573.845 350.069ZM698.035 427.576C698.222 428.618 698.219 429.226 698.673 430.115C696.255 437.879 726.904 468.754 733.684 474.068C732.753 468.161 732.745 466.125 728.256 462.01C728.127 457.26 730.263 451.523 733.776 448.262C735.358 450.564 736.093 452.779 737.131 455.368C742.643 431.253 709.474 433.273 699.711 419.13C684.595 397.234 690.488 372.274 675.95 347.175C676.44 351.776 679.215 362.261 680.173 367.009C682.168 376.898 688.902 425.182 698.035 427.576ZM745.692 432.913C734.642 413.168 726.794 415.252 713.187 399.617C708.262 393.959 706.526 378.947 705.203 371.761C699.816 345.21 691.825 323.645 665.471 312.775C681.365 332.083 693.894 346.074 699.722 371.106C701.858 380.28 704.289 397.723 709.621 404.878C721.671 421.049 732.527 416.966 743.791 436.064C750.695 450.816 744.723 479.877 742.244 495.916C741.1 500.994 739.008 505.627 738.192 510.79C735.286 529.161 736.923 547.328 739.541 565.634C740.141 569.828 740.856 582.426 744.547 584.112C747.97 583.033 741.898 539.726 741.985 532.94C742.347 504.511 752.816 477.442 747.803 449.087C746.633 442.466 748.915 441.179 745.692 432.913ZM785.124 695.861L785.955 695.6C784.258 693.972 779.492 693.013 777.497 691.226C767.591 682.511 766.252 676.435 773.377 665.082C785.966 645.024 788.194 620.455 779.682 598.36C776.606 590.374 771.684 582.645 770.146 574.19C769.632 571.369 766.773 567.393 766.737 564.235C766.635 562.324 765.815 561.048 764.301 560.033L763.628 560.255C763.002 563.288 769.865 585.395 771.797 589.803C779.402 607.151 782.264 624.402 777.628 642.967C776.397 647.9 769.001 661.132 769.741 664.661L768.841 667.116C767.513 664.536 768.096 665.956 768.627 663.047C772.516 641.565 777.05 619.542 770.061 598.128C765.321 583.604 760.202 569.852 757.366 554.756C755.901 546.956 757.454 520.439 753.416 516.145C752.478 516.19 751.341 516.113 750.868 517.199C748.462 522.831 748.482 531.756 748.628 537.889C749.181 557.205 753.454 575.439 759.206 593.831C763.166 606.493 768.34 616.876 767.234 630.711C765.948 646.801 756.602 674.397 766.021 688.394C767.586 689.169 766.828 689.119 768.329 688.841C768.477 686.361 767.26 685.397 767.949 683.721L768.434 683.59C770.715 691.265 779.83 699.479 787.824 700.398L788.786 699.951C788.627 697.65 786.977 696.992 785.124 695.861ZM583.962 258.674C583.032 262.254 585.347 265.586 587.215 268.643C600.877 290.997 615.495 312.566 625.984 336.683C638.734 365.997 641.331 398.133 659.137 425.453C660.94 428.218 661.42 433.877 664.334 435.574C665.034 423.959 656.641 411.779 653.204 401.056C649.136 388.367 645.534 375.664 641.641 362.872C631.193 328.531 613.861 293.337 589.95 266.383C588.043 264.234 586.594 259.666 583.962 258.674ZM408.408 287.908C402.559 296.422 397 305.443 392.483 314.743C388.46 323.026 382.921 331.773 379.522 340.259C373.165 356.129 366.032 371.141 358.618 386.502C355.334 393.304 353.818 402.554 350.972 409.646C349.982 412.491 345.429 420.947 345.324 423.075L345.648 423.573C357.015 411.204 354.974 401.582 361.197 388.091C368.617 372.005 376.316 355.904 383.182 339.491C384.217 337.016 385.947 334.427 387.187 332.024C392.693 322.88 396.413 312.816 400.97 303.174C402.186 300.6 408.685 290.122 408.779 288.334L408.408 287.908ZM585.383 295.81C585.931 301.044 605.279 331.527 609.112 340.66C617.963 361.744 626.441 388.143 637.298 408.457C637.454 408.748 639.096 409.402 639.479 409.514C637.449 391.342 633.453 383.734 627.167 367.187C618.946 345.542 610.301 326.353 596.168 307.758C594.028 304.878 588.728 296.511 585.383 295.81ZM434.374 330.265C429.821 337.999 420.001 367.826 420.516 378.11C420.542 378.642 421.302 379.203 421.762 379.653C423.662 377.719 423.628 375.293 423.977 372.677C425.564 360.79 430.023 349.444 433.877 338.155C434.627 335.957 435.51 333.885 435.717 331.562C435.239 331.068 434.916 330.681 434.374 330.265ZM454.75 355.917C453.021 360.191 447.285 373.067 447.505 376.742C447.887 377.439 448.126 377.962 448.602 378.595C452.262 375.151 457.47 359.815 454.75 355.917ZM322.883 373.357C313.591 379.33 297.549 392.387 289.572 400.233C268.87 420.594 261.767 454.146 250.575 480.09C246.642 489.381 225.317 531.379 228.734 539.619L229.738 540.088C231.86 538.599 234.615 527.145 236.132 523.42C242.126 508.703 248.732 494.214 255.01 479.62C264.202 458.253 271.869 420.257 291.834 406.819C290.676 408.869 289.545 410.711 288.172 412.637C281.84 421.521 276.85 432.159 272.516 442.15C267.741 454.534 265.108 466.468 261.778 479.262C252.83 513.646 245.894 548.554 229.303 580.328C228.269 582.308 227.328 586.925 227.548 589.06L228.251 590.255L229.176 590.484C231.351 588.079 234.126 580.43 235.825 577.098C263.585 522.676 259.807 454.199 299.216 405.748C305.01 398.623 323.876 381.944 324.182 373.662C323.107 373.309 323.551 373.33 322.883 373.357ZM644.775 407.485C645.765 413.849 649.021 422.284 653.208 427.148L654.453 427.379C654.184 423.338 649.183 411.476 646.758 408.188C645.683 407.564 646.077 407.721 644.775 407.485ZM297.645 442.176C294.658 449.387 292.542 456.683 291.149 464.241C289.585 472.729 290.582 515.221 292.838 522.09C293.296 522.467 293.827 522.94 294.307 523.264C295.806 518.925 293.489 496.326 293.383 490.103C293.269 483.362 292.986 477.25 293.427 470.011C294.093 459.076 297.212 453.25 299.476 443.825C298.742 442.418 299.221 443.053 297.645 442.176ZM284.794 530.87C278.989 537.777 265.969 575.564 268.5 583.138C272.153 574.849 274.589 564.1 276.583 555.153C277.733 549.99 285.305 534.443 284.794 530.87ZM258.855 607.739C256.464 612.197 248.911 629.081 249.264 633.177L249.933 633.215C251.777 629.881 260.218 611.121 259.634 608.264L258.855 607.739ZM248.423 643.855C245.324 647.519 245.147 655.917 241.217 662.091C238.168 666.882 232.263 670.345 231.744 673.986L232.585 674.728C240.896 667.984 248.627 655.549 249.139 644.71L248.423 643.855ZM256.221 667.86C251.416 673.239 248.428 681.353 246.148 688.092C245.382 690.357 241.588 700.494 242.976 702.301C248.788 690.369 249.503 681.26 256.843 668.976C256.361 667.979 256.626 668.311 256.221 667.86Z" fill="url(#paint0_linear_2293_130882)"/>
<path d="M550.802 236.444C547.676 229.806 540.25 216.136 535.479 211.093C538.716 217.762 542.287 224.24 545.429 230.961C546.54 233.338 547.779 236.129 549.076 238.387C553.551 248.826 566.453 283.051 563.643 293.626L562.841 294.192C559.226 292.353 558.316 284.586 557.344 280.918C555.638 274.568 553.875 268.234 552.055 261.917C549.955 254.76 535.819 214.529 531.528 212.536C530.866 212.229 529.718 212.708 529.075 213.016C525.953 214.51 523.681 218.799 522.27 221.851C516.446 234.456 514.409 248.984 509.185 261.965C506.804 267.882 504.198 273.879 501.06 279.434C498.202 284.495 494.437 289.583 492.308 294.978C487.897 306.157 476.479 345.703 469.613 352.273L469.088 352.071C470.606 344.129 475.225 335.046 477.145 326.968C478.224 322.429 480.51 317.527 482.144 313.128L481.206 312.523C480.255 304.916 501.168 268.946 504.557 258.348C506.692 251.668 521.315 196.181 537.108 207.923C545.498 214.16 554.568 241.332 563.221 249.274C569.761 256.123 570.933 260.232 573.773 269.343L574.741 276.847C575.028 280.449 576.112 293.445 573.627 295.649L572.777 295.537C571.572 292.236 571.289 282.977 570.168 279.233C568.166 272.543 564.92 258.121 561.502 252.54C558.681 247.933 553.99 241.526 550.802 236.444Z" fill="#FCE56A"/>
<path d="M550.802 236.445L551.008 237.41C551.588 240.001 551.774 240.615 553.485 242.556L553.109 243.137C550.691 242.158 550.875 240.985 549.962 238.498L549.076 238.388C547.779 236.13 546.539 233.339 545.428 230.962C542.286 224.241 538.716 217.763 535.479 211.094C540.25 216.137 547.676 229.807 550.802 236.445Z" fill="#F1C0E8"/>
<path d="M434.394 266.691C440.953 262.13 443.016 256.207 451.296 251.434C445.966 261.48 438.906 266.555 431.884 274.719C428.324 278.859 422.923 287.39 419.886 292.092C419.555 291.104 419.425 290.514 419.184 289.502C420.427 283.797 430.202 271.116 434.394 266.691Z" fill="#FFFFFA"/>
<path d="M209.653 482.051C189.824 467.782 158.729 468.733 138.31 454.289C128.684 447.48 120.142 437.19 118.334 425.464C113.969 397.159 128.887 361.925 145.22 339.084C176.63 295.159 223.548 267.439 276.153 258.302C308.712 252.596 342.155 254.616 373.79 264.2C378.491 265.653 387.187 268.438 390.924 271.073C383.172 279.99 376.913 287.192 370.276 297.087C360.288 311.976 352.728 330.519 339.775 342.813C318.213 363.278 285.381 362.081 268.67 386.936C254.621 407.831 252.623 428.239 244.528 451.105C240.068 463.703 232.373 476.213 225.544 487.622C219.951 485.91 214.96 484.523 209.653 482.051Z" fill="#FCE56A"/>
<path d="M664.332 435.572C661.418 433.875 660.938 428.216 659.135 425.451C641.329 398.131 638.732 365.995 625.982 336.681C615.493 312.564 600.875 290.995 587.213 268.641C585.345 265.584 583.03 262.252 583.96 258.672C586.592 259.664 588.041 264.232 589.948 266.381C613.859 293.335 631.191 328.529 641.639 362.87C645.532 375.662 649.134 388.365 653.202 401.054C656.639 411.777 665.032 423.957 664.332 435.572Z" fill="#FCE56A"/>
<path d="M573.771 269.345L574.151 268.543C574.782 269.795 574.81 270.57 574.927 271.97L575 272.892L575.508 272.48C576.91 269.198 577.243 268.971 576.51 265.471L577.143 264.559C577.939 267.425 578.509 275.167 578.784 278.412L578.435 280.075L578.062 279.906C577.835 277.313 577.625 274.719 577.431 272.123C577.271 272.773 577.118 273.425 576.971 274.078L575.64 274.776L575.508 276.519L574.74 276.849L573.771 269.345Z" fill="#F1C0E8"/>
<path d="M419.885 292.092C411.729 305.783 404.067 318.794 397.427 333.329C391.316 346.707 387.754 360.491 381.784 373.851C379.742 378.422 378.47 384.188 375.205 388.202C373.675 388.868 374.424 388.851 372.884 388.298C371.997 386.848 372.291 385.96 372.641 384.387C375.611 371.065 381.905 359.492 386.895 347.164C396.936 322.355 407.095 299.314 422.824 277.442C425.192 274.149 428.559 268.905 432.044 266.685C433.107 266.008 432.894 266.292 434.393 266.691C430.201 271.116 420.426 283.797 419.183 289.502C419.424 290.514 419.554 291.104 419.885 292.092Z" fill="#FCE56A"/>
<path d="M516.886 295.454C516.775 292.072 516.613 288.608 517.624 285.376L518.405 284.688C520.49 286.391 520.21 293.224 520.366 296.001C519.114 295.236 518.363 295.416 516.886 295.454Z" fill="#FFFFFA"/>
<path d="M345.646 423.571L345.322 423.073C345.427 420.945 349.98 412.489 350.97 409.644C353.816 402.552 355.332 393.302 358.616 386.5C366.03 371.139 373.163 356.127 379.52 340.257C382.919 331.771 388.458 323.024 392.481 314.741C396.998 305.441 402.557 296.42 408.406 287.906L408.777 288.332C408.683 290.12 402.184 300.598 400.968 303.172C396.411 312.814 392.691 322.878 387.185 332.022C385.945 334.425 384.215 337.014 383.18 339.489C376.314 355.902 368.615 372.003 361.195 388.089C354.972 401.58 357.013 411.202 345.646 423.571Z" fill="#FFFFFA"/>
<path d="M516.887 295.452C518.364 295.414 519.115 295.234 520.367 295.999C520.547 301.461 521.332 307.241 521.442 312.834C521.701 325.973 521.734 339.221 521.339 352.354C516.299 339.273 517.156 310.589 516.887 295.452Z" fill="#FCE56A"/>
<path d="M639.479 409.513C639.096 409.401 637.454 408.747 637.298 408.456C626.441 388.142 617.963 361.743 609.112 340.659C605.279 331.526 585.931 301.043 585.383 295.809C588.728 296.51 594.028 304.877 596.168 307.757C610.301 326.352 618.946 345.541 627.167 367.186C633.453 383.733 637.449 391.341 639.479 409.513Z" fill="#FCE56A"/>
<path d="M665.471 312.773C691.825 323.643 699.816 345.208 705.203 371.759C706.526 378.945 708.262 393.957 713.187 399.615C726.794 415.25 734.642 413.166 745.692 432.911C744.894 434.991 745.288 434.934 743.791 436.062C732.527 416.964 721.671 421.047 709.621 404.876C704.289 397.721 701.858 380.278 699.722 371.104C693.894 346.072 681.365 332.081 665.471 312.773Z" fill="#FCE56A"/>
<path d="M573.845 350.067C572.169 350.541 572.027 350.267 571.126 351.373C566.964 341.579 563.164 333.316 562.395 322.617C565.925 329.373 570.905 342.637 573.845 350.067Z" fill="#FFFFFA"/>
<path d="M421.762 379.654C421.302 379.204 420.542 378.643 420.516 378.111C420.001 367.827 429.821 338 434.374 330.266C434.916 330.682 435.239 331.069 435.717 331.563C435.51 333.886 434.627 335.958 433.877 338.156C430.023 349.445 425.564 360.791 423.977 372.678C423.628 375.294 423.662 377.72 421.762 379.654Z" fill="#3A3645"/>
<path d="M571.125 351.372C572.026 350.266 572.168 350.54 573.844 350.066C575.6 353.654 581.87 367.916 580.212 371.49C576.318 370.654 572.312 355.262 571.125 351.372Z" fill="#FCE56A"/>
<path d="M698.034 427.577C688.901 425.183 682.167 376.899 680.172 367.01C679.214 362.262 676.439 351.777 675.949 347.176C690.487 372.275 684.594 397.235 699.71 419.131C709.473 433.274 742.642 431.254 737.13 455.369C736.092 452.78 735.357 450.565 733.775 448.263C728.242 441.478 706.936 432.927 698.034 427.577Z" fill="#FCE56A"/>
<path d="M448.601 378.592C448.125 377.959 447.886 377.436 447.504 376.739C447.284 373.064 453.02 360.188 454.749 355.914C457.469 359.812 452.261 375.148 448.601 378.592Z" fill="#FCE56A"/>
<path d="M291.834 406.819C271.869 420.257 264.202 458.253 255.01 479.62C248.732 494.214 242.126 508.703 236.132 523.42C234.615 527.145 231.86 538.599 229.738 540.088L228.734 539.619C225.317 531.379 246.642 489.381 250.575 480.09C261.767 454.146 268.87 420.594 289.572 400.233C297.549 392.387 313.591 379.33 322.883 373.357C323.551 373.33 323.107 373.309 324.182 373.662C323.876 381.944 305.01 398.623 299.216 405.748C259.807 454.199 263.585 522.676 235.825 577.098C234.126 580.43 231.351 588.079 229.176 590.484L228.251 590.255L227.548 589.06C227.328 586.925 228.269 582.308 229.303 580.328C245.894 548.554 252.83 513.646 261.778 479.262C265.108 466.468 267.741 454.534 272.516 442.15C276.85 432.159 281.84 421.521 288.172 412.637C289.545 410.711 290.676 408.869 291.834 406.819Z" fill="#FCE56A"/>
<path d="M736.336 384.57C776.259 372.887 819.284 384.693 855.178 403.515C861.096 406.619 867.452 410.941 873.354 413.708L874.742 415.547L875.004 416.393C877.439 424.115 881.178 431.489 883.814 439.088C891.255 460.716 897.817 482.637 903.482 504.796C908.678 525.598 912.128 548.32 915.58 569.504C917.721 582.638 918.851 596.146 920.915 609.315L920.536 610.481C914.172 617.904 907.836 625.46 901.39 632.802C893.39 641.914 883.524 650.306 874.461 658.432C873.89 649.785 872.832 640.631 870.315 632.289C865.741 616.464 857.456 602.183 852.408 586.487C848.752 575.562 847.828 564.142 845.031 552.982C841.772 539.98 834.344 533.679 824.061 525.94C810.9 516.034 795.962 506.425 789.277 490.701C786.296 483.69 783.343 475.539 782.474 467.874C781.433 452.803 785.157 438.058 776.462 424.275C770.498 414.822 760.712 407.454 752.257 400.243C745.679 394.632 740.627 392.288 736.336 384.57Z" fill="#CFBAF0"/>
<path d="M502.305 479.623C493.857 482.478 491.785 484.406 485.169 487.215L484.169 488.621C480.008 489.914 456.415 509.223 455.609 512.676C454.856 513.302 454.688 513.335 454.123 514.107C447.858 521.209 437.251 534.982 433.33 543.517L433.409 544.059L432.037 546.411C427.221 552.449 424.011 562.921 420.024 569.019L419.509 570.786C417.19 576.375 408.269 598.396 407.567 603.973L406.719 605.78C401.242 621.926 397.14 649.898 397.526 666.986C410.462 664.006 427.641 660.141 440.74 658.581L442.837 657.431C443.885 658.058 476.236 653.635 478.591 652.767L480.022 652.47C481.821 653.118 544.304 647.451 553.381 647.574C556.678 648.584 562.207 648.204 565.811 648.163C561.627 648.384 555.709 648.981 551.399 649.405C544.644 650.069 530.207 650.138 524.361 651.587L524.306 652.066C519.05 652.882 511.447 653.266 506.008 653.709C495.414 654.529 484.832 655.501 474.265 656.624C449.553 659.354 422.362 664.212 397.984 669.061L397.947 674.998C389.592 688.039 358.334 698.232 343.736 703.339C344.895 710.929 345.068 716.041 349.896 722.254L349.571 723.366C342.215 723.698 331.864 728.024 324.516 729.796C317.589 731.466 310.211 732.774 303.391 734.33C282.577 739.078 265.47 741.24 244.265 737.181C238.984 736.17 233.15 735.22 228.124 733.134C227.373 732.822 227.165 732.78 226.365 732.655L228.358 732.252L228.607 731.75C227.031 731.056 226.031 730.567 224.514 729.753C226.078 729.323 228.348 730.435 230.001 731.026C235.152 722.799 241.291 713.655 245.622 705.001C253.761 688.738 260.791 671.936 269.91 656.114C271.592 653.196 274.283 646.878 276.602 644.758L277.202 644.787L278.677 647.226C280.098 646.357 281.425 631.124 281.96 627.982C303.758 499.855 395.078 359.022 543.946 388.939C641.802 408.605 696.917 484.151 712.112 579.675C713.495 588.067 714.479 596.519 715.062 605.004C715.272 608.282 715.912 628.394 717.202 629.527C718.384 628.653 718.165 628.408 719.225 628.57C721.856 628.972 724.739 633.258 725.968 635.504C732.426 647.305 736.748 660.376 741.84 672.794C749.963 692.604 759.384 714.005 765.715 734.456C746.112 741.203 695.404 737.725 674.902 732.741C665.697 729.64 664.547 713.313 665.267 705.143C650.949 699.697 622.208 700.475 619.038 681.641C618.16 676.423 617.429 656.252 618.14 650.935C618.993 648.957 618.779 648.358 617.548 646.768C615.851 606.409 607.958 566.679 585.858 532.028C580.444 523.54 572.803 515.041 566.048 507.557C566.186 507.006 566.119 507.404 565.936 506.349C565.268 505.666 565.124 505.586 564.595 504.8L565.452 505.11L565.562 504.45L566.592 504.33C591.829 529.021 607.434 562.948 614.876 597.106C618.938 618.121 620.373 639.541 620.851 660.904C621.019 668.433 620.907 678.775 622.676 685.851C625.231 688.442 626.731 689.43 629.706 691.518C632.7 667.8 627.958 643.701 625.108 620.054C624.664 616.371 621.594 604.676 623.127 602.169L623.872 602.118C627.848 608.271 633.114 663.015 633.443 673.951C633.562 677.901 632.772 688.28 632.348 693.019C637.275 695.434 641.512 696.381 646.833 697.664C653.559 651.365 640.149 617.555 627.878 574.173C618.386 540.617 614.988 517.782 595.093 487.932C590.362 480.704 584.704 474.126 578.263 468.368C575.396 465.849 564.004 459.224 563.291 457.021L564.055 456.177C567.22 456.004 569.541 458.442 572.055 459.919C582.125 465.838 588.617 473.821 595.396 483.057C616.005 511.135 622.949 544.367 631.939 577.282C644.243 620.033 657.276 652.599 649.202 698.212C654.828 699.009 660.529 700.621 665.982 702.209C669.026 686.744 668.863 669.302 668.688 653.593C668.473 637.822 667.997 622.057 667.261 606.302C666.513 591.165 664.69 568.733 661.652 554C656.812 530.529 642.042 500.625 628.149 480.975C622.728 473.307 610.45 462.201 603.61 455.705C576.305 430.454 536.996 418.252 500.187 419.742C473.747 420.939 446.896 431.686 424.353 445.355C399.952 460.15 374.481 487.198 364.275 513.974C357.416 531.969 353.388 553.736 350.717 572.687C344.916 613.855 341.179 658.648 343.57 700.194C347.313 699.032 351.256 697.513 354.962 696.165C354.187 692.069 353.976 687.79 353.893 683.498C353.48 662.313 354.369 640.923 359.64 620.31C359.916 619.23 360.213 619.196 361.076 618.857L362.078 619.66C362.004 622.546 360.592 628.176 359.979 631.268C359.116 635.71 358.447 640.186 357.973 644.686C356.256 661.257 356.532 678.853 356.559 695.524L365.291 692.243C365.089 691.231 364.922 690.212 364.789 689.188C363.381 678.291 364.162 647.977 370.764 639.384C371.442 642.649 369.162 651.159 368.498 654.959C366.265 667.74 366.48 678.774 367.681 691.579C374.05 688.679 379.642 686.263 385.797 682.905C380.495 667.459 384.633 644.831 389.585 629.403C389.928 628.337 390.508 628.17 391.425 627.946C392.615 631.132 381.61 663.995 387.792 680.641C387.863 680.832 387.94 681.02 388.013 681.21C390.98 679.129 391.923 678.289 394.505 675.76C395.114 635.706 399.546 608.78 416.041 571.513C429.167 542.292 443.545 516.589 468.72 495.89C488.838 479.349 508.477 469.041 534.136 480.607C527.422 481.345 509.054 473.984 502.305 479.623ZM498.032 388.283C423.275 392.132 368.884 435.999 332.32 498.501C310.152 536.395 295.363 573.807 286.911 617.097C284.919 626.714 281.692 641.352 281.627 651.138C281.606 654.28 288.015 669.401 289.637 673.497C296.097 689.814 303.075 714.641 311.858 729.488C325.011 727.093 333.682 723.372 345.388 720.787C340.961 711.542 340.736 698.507 340.406 688.25C338.939 642.791 343.728 596.258 351.211 551.46C353.118 539.923 356.038 528.397 359.794 517.35C369.485 488.846 393.406 462.153 418.231 445.388C439.43 431.072 472.169 418.021 497.623 416.886C537.665 414.113 577.855 428.42 607.038 454.71C624.718 470.637 637.814 485.62 647.556 507.584C662.79 536.802 668.084 561.979 669.796 594.854C671.44 626.405 673.562 660.198 670.571 691.871C669.946 698.493 667.477 705.28 668.218 712.248C668.608 717.175 669.543 728.384 675.143 729.662C676.675 729.126 676.838 728.675 677.523 727.009C687.327 703.165 697.076 679.151 705.808 654.892C707.186 651.064 713.105 636.856 713.139 634.209C713.54 602.977 707.511 558.253 697.247 529.877C678.325 477.563 644.474 432.446 593.429 408.997C561.751 394.365 533.336 386.268 498.032 388.283ZM719.439 631.254C715.465 636.56 711.031 648.988 708.386 655.604L686.174 712.651C684.124 717.764 680.943 726.826 678.774 731.357C693.134 734.058 707.698 735.527 722.307 735.748C735.805 735.518 749.646 735.218 762.987 732.926C758.659 721.135 726.321 635.183 719.439 631.254ZM276.219 650.351C271.517 659.229 264.8 670.495 260.893 679.475C252.312 699.199 243.874 714.076 232.084 731.988C247.464 735.524 265.255 738.167 280.919 735.852C289.702 734.321 300.501 732.414 309.077 730.226C301.71 715.47 296.316 700.691 290.816 685.164C289.225 680.672 287.495 675.325 285.513 671.044C281.355 671.149 275.519 671.452 271.699 669.84L272.218 669.302L271.894 669.267C276.324 668.571 280.441 669.036 284.94 669.25C283.269 664.996 279.084 653.355 276.219 650.351Z" fill="#3D4343"/>
<path d="M311.856 729.486C303.073 714.639 296.095 689.812 289.635 673.495C288.013 669.399 281.604 654.278 281.625 651.136C281.69 641.35 284.917 626.712 286.909 617.095C295.361 573.805 310.15 536.393 332.318 498.499C368.882 435.997 423.273 392.13 498.03 388.281C533.334 386.266 561.749 394.363 593.427 408.995C644.472 432.444 678.323 477.561 697.245 529.875C707.509 558.251 713.538 602.975 713.137 634.207C713.103 636.854 707.184 651.062 705.806 654.89C697.074 679.149 687.325 703.163 677.521 727.007C676.836 728.673 676.673 729.124 675.141 729.66C669.541 728.382 668.606 717.173 668.216 712.246C667.475 705.278 669.944 698.491 670.569 691.869C673.56 660.196 671.438 626.403 669.794 594.852C668.082 561.977 662.788 536.8 647.554 507.582C637.812 485.618 624.716 470.635 607.036 454.708C577.853 428.418 537.663 414.111 497.621 416.884C472.167 418.019 439.428 431.07 418.229 445.386C393.404 462.151 369.483 488.844 359.792 517.348C356.036 528.395 353.116 539.921 351.209 551.458C343.726 596.256 338.937 642.789 340.404 688.248C340.734 698.505 340.959 711.54 345.386 720.785C333.68 723.37 325.009 727.091 311.856 729.486ZM313.295 685.007C313.402 687.254 312.991 688.096 315.928 688.336C320.576 688.715 327.893 698.166 331.545 698.924C328.983 693.635 319.104 685.913 313.295 685.007Z" fill="#E5FBFC"/>
<path d="M654.451 427.378L653.206 427.147C649.019 422.283 645.763 413.848 644.773 407.484C646.075 407.72 645.681 407.563 646.756 408.187C649.181 411.475 654.182 423.337 654.451 427.378Z" fill="#FBF8CC"/>
<path d="M874.74 415.547C883.422 420.995 890.863 426.485 899.177 432.175C924.101 449.235 944.908 467.786 951.898 498.634C959.317 531.379 947.207 569.338 929.532 597.091C926.814 601.272 923.939 605.35 920.913 609.315C918.849 596.146 917.719 582.638 915.578 569.504C912.126 548.32 908.676 525.598 903.48 504.796C897.815 482.637 891.253 460.716 883.812 439.088C881.176 431.489 877.437 424.115 875.002 416.393L874.74 415.547Z" fill="#D4DAFC"/>
<path d="M534.135 480.608C508.476 469.042 488.837 479.35 468.719 495.891C443.544 516.59 429.166 542.293 416.04 571.514C399.545 608.781 395.113 635.707 394.504 675.761C391.922 678.29 390.979 679.13 388.012 681.211C387.939 681.021 387.862 680.833 387.791 680.642C381.609 663.996 392.614 631.133 391.424 627.947C390.507 628.171 389.927 628.338 389.584 629.404C384.632 644.832 380.494 667.46 385.796 682.906C379.641 686.264 374.049 688.68 367.68 691.58C366.479 678.775 366.264 667.741 368.497 654.96C369.161 651.16 371.441 642.65 370.763 639.385C364.161 647.978 363.38 678.292 364.788 689.189C364.921 690.213 365.088 691.232 365.29 692.244L356.558 695.525C356.531 678.854 356.255 661.258 357.972 644.687C358.446 640.187 359.115 635.711 359.978 631.269C360.591 628.177 362.003 622.547 362.077 619.661L361.075 618.858C360.212 619.197 359.915 619.231 359.639 620.311C354.368 640.924 353.479 662.314 353.892 683.499C353.975 687.791 354.186 692.07 354.961 696.166C351.255 697.514 347.312 699.033 343.569 700.195C341.178 658.649 344.915 613.856 350.716 572.688C353.387 553.737 357.415 531.97 364.274 513.975C374.48 487.199 399.951 460.151 424.352 445.356C446.895 431.687 473.746 420.94 500.186 419.743C536.995 418.253 576.304 430.455 603.609 455.706C610.449 462.202 622.727 473.308 628.148 480.976C642.041 500.626 656.811 530.53 661.651 554.001C664.689 568.734 666.512 591.166 667.26 606.303C667.996 622.058 668.472 637.823 668.687 653.594C668.862 669.303 669.025 686.745 665.981 702.21C660.528 700.622 654.827 699.01 649.201 698.213C657.275 652.6 644.242 620.034 631.938 577.283C622.948 544.368 616.004 511.136 595.395 483.058C588.616 473.822 582.124 465.839 572.054 459.92C569.54 458.443 567.219 456.005 564.054 456.178L563.29 457.022C564.003 459.225 575.395 465.85 578.262 468.369C584.703 474.127 590.361 480.705 595.092 487.933C614.987 517.783 618.385 540.618 627.877 574.174C640.148 617.556 653.558 651.366 646.832 697.665C641.511 696.382 637.274 695.435 632.347 693.02C632.771 688.281 633.561 677.902 633.442 673.952C633.113 663.016 627.847 608.272 623.871 602.119L623.126 602.17C621.593 604.677 624.663 616.372 625.107 620.055C627.957 643.702 632.699 667.801 629.705 691.519C626.73 689.431 625.23 688.443 622.675 685.852C620.906 678.776 621.018 668.434 620.85 660.905C620.372 639.542 618.937 618.122 614.875 597.107C607.433 562.949 591.828 529.022 566.591 504.331C559.473 496.75 543.708 484.375 534.135 480.608ZM495.358 433.196C485.295 434.336 477.979 436.809 468.482 439.535C439.496 447.856 415.958 459.776 396.72 483.957C392.797 488.882 389.341 494.161 386.397 499.726C381.855 508.359 369.502 539.449 370.175 548.349L370.843 549.418L371.631 549.289C371.917 548.657 372.246 548.044 372.42 547.392C381.963 509.224 395.312 479.13 430.783 458.055C448.795 447.354 469.567 442.048 489.784 436.855C492.484 436.161 499.083 435.798 499.764 433.577C498.417 432.651 497.08 432.906 495.358 433.196ZM519.145 446.211C495.456 447.935 469.137 453.401 447.846 464.026C444.772 465.56 437.996 468.071 436.88 471.315L437.197 472.246C439.042 472.265 443.551 469.202 445.537 468.043C468.208 456.457 494.572 451.232 519.962 449.122C523.14 448.858 529.873 449.536 532.403 447.845L532.479 446.976C530.915 445.509 528.183 445.768 526.093 445.837C523.775 445.929 521.459 446.054 519.145 446.211ZM501.814 466.702C481.855 468.684 454.39 476.429 439.977 492.011C438.997 493.071 438.747 493.334 438.691 494.516C441.494 494.141 445.248 490.267 447.64 488.669C475.595 470 514.273 463.57 545.63 476.74C561.56 484.237 571.337 493.797 582.337 507.399C585.619 511.458 590.279 517.585 594.25 520.57C588.71 507.385 572.242 490.496 560.865 481.83C546.521 470.904 519.877 463.774 501.814 466.702ZM613.697 482.9C613.641 488.244 633.532 517.245 636.113 524.313C636.553 525.518 639.565 530.231 640.404 531.3C641.175 531.545 641.559 531.693 642.355 531.84C642.5 531.188 642.728 530.084 642.42 529.471C638.68 522.04 619.824 485.392 613.697 482.9ZM418.713 486.327C414.666 491.06 402.316 505.616 401.429 510.872C402.193 511.862 401.744 511.445 402.933 511.953C405.216 509.117 408.485 503.911 410.689 500.703C412.457 498.128 419.713 489.578 420.546 487.592L420.162 486.726L418.713 486.327ZM416.6 534.276C404.514 553.707 395.712 578.857 392.502 601.512C391.964 605.309 390.942 612.707 393.819 615.49C395.193 610.769 394.458 603.976 395.345 599.006C399.203 577.373 407.077 556.855 417.372 537.508C418.096 536.146 417.631 535.265 416.6 534.276ZM648.753 550.595C647.113 559.508 650.983 600.908 658.488 605.057C658.855 600.977 654.116 584.261 653.214 578.121C652.523 573.415 651.614 553.637 650.543 551.469C649.833 551.083 649.514 550.861 648.753 550.595ZM390.843 556.296C379.228 568.662 371.704 595.977 371.684 612.895C371.682 614.755 371.694 615.596 372.868 616.775L373.744 616.907C375.251 598.228 377.787 583.851 386.859 566.989C388.579 563.792 392.901 558.904 391.913 556.809L390.843 556.296Z" fill="#8EECF5"/>
<path d="M698.671 430.113C698.217 429.224 698.22 428.616 698.033 427.574C706.935 432.924 728.241 441.475 733.774 448.26C730.261 451.521 728.125 457.258 728.254 462.008C718.405 456.025 713.374 448.601 706.406 439.784C703.927 436.648 700.725 433.467 698.671 430.113Z" fill="#F1C0E8"/>
<path d="M733.684 474.066C726.904 468.752 696.255 437.877 698.673 430.113C700.727 433.467 703.929 436.648 706.408 439.784C713.376 448.601 718.407 456.025 728.256 462.008C732.745 466.123 732.753 468.159 733.684 474.066Z" fill="#FCE56A"/>
<path d="M372.42 547.392C372.246 548.044 371.917 548.657 371.631 549.289L370.843 549.418L370.175 548.349C369.502 539.449 381.855 508.359 386.397 499.726C389.341 494.161 392.797 488.882 396.72 483.957C415.958 459.776 439.496 447.856 468.482 439.535C477.979 436.809 485.295 434.336 495.358 433.196C497.08 432.906 498.417 432.651 499.764 433.577C499.083 435.798 492.484 436.161 489.784 436.855C469.567 442.048 448.795 447.354 430.783 458.055C395.312 479.13 381.963 509.224 372.42 547.392Z" fill="#3D4343"/>
<path d="M745.691 432.91C748.914 441.176 746.632 442.463 747.802 449.084C752.815 477.439 742.346 504.508 741.984 532.937C741.897 539.723 747.969 583.03 744.546 584.109C740.855 582.423 740.14 569.825 739.54 565.631C736.922 547.325 735.285 529.158 738.191 510.787C739.007 505.624 741.099 500.991 742.243 495.913C744.722 479.874 750.694 450.813 743.79 436.061C745.287 434.933 744.893 434.99 745.691 432.91Z" fill="#FBF8CC"/>
<path d="M294.305 523.264C293.825 522.94 293.294 522.467 292.836 522.09C290.58 515.221 289.583 472.729 291.147 464.241C292.54 456.683 294.656 449.387 297.643 442.176C299.219 443.053 298.74 442.418 299.474 443.825C297.21 453.25 294.091 459.076 293.425 470.011C292.984 477.25 293.267 483.362 293.381 490.103C293.487 496.326 295.804 518.925 294.305 523.264Z" fill="url(#paint1_linear_2293_130882)"/>
<path d="M445.538 468.041C443.552 469.2 439.043 472.263 437.198 472.244L436.881 471.313C437.997 468.069 444.773 465.558 447.847 464.024C469.138 453.399 495.457 447.933 519.146 446.209C521.46 446.052 523.776 445.927 526.094 445.835C528.184 445.766 530.916 445.507 532.48 446.974L532.404 447.843C529.874 449.534 523.141 448.856 519.963 449.12C494.573 451.23 468.209 456.455 445.538 468.041Z" fill="#3D4343"/>
<path d="M323.327 457.632L325.331 456.949C325.967 465.564 323.94 471.883 318.705 478.592C320.354 472.953 323.481 463.183 323.327 457.632Z" fill="#FFFFFA"/>
<path d="M545.63 476.737C514.273 463.567 475.595 469.997 447.64 488.666C445.248 490.264 441.494 494.138 438.691 494.513C438.747 493.331 438.997 493.068 439.977 492.008C454.39 476.426 481.855 468.681 501.814 466.699C519.877 463.771 546.521 470.901 560.865 481.827C572.242 490.493 588.71 507.382 594.25 520.567C590.279 517.582 585.619 511.455 582.337 507.396C571.337 493.794 561.56 484.234 545.63 476.737Z" fill="#3D4343"/>
<path d="M502.305 479.623C509.054 473.984 527.422 481.345 534.136 480.607C543.709 484.374 559.474 496.749 566.592 504.33L565.562 504.45L565.452 505.11L564.595 504.8C565.124 505.586 565.268 505.666 565.936 506.349C566.119 507.404 566.186 507.006 566.048 507.557C565.754 507.398 560.706 502.884 559.811 502.127C552.967 496.339 538.428 483.722 529.698 482.318L528.407 481.585C521.582 478.288 509.631 478.624 502.305 479.623Z" fill="#364236"/>
<path d="M485.167 487.216C491.783 484.407 493.855 482.479 502.303 479.624C509.629 478.625 521.58 478.289 528.405 481.586C509.699 507.712 513.842 530.641 510.806 561.529C509.438 572.21 506.757 589.185 507.049 599.775C506.839 604.519 505.796 623.221 507.663 626.528C509.515 624.253 508.627 618.212 508.673 614.999C508.732 610.838 509.132 606.351 509.076 602.252C510.143 596.127 509.703 587.072 511.009 580.247C515.541 556.747 526.445 533.762 543.338 516.631C548.629 511.266 555.639 508.57 560.86 503.669C560.112 503.878 559.369 504.102 558.631 504.343C541.799 509.891 527.71 530.815 520.075 545.876C517.454 551.045 515.469 557.815 512.986 562.609L512.523 563.488C513.388 558.099 513.454 551.941 513.818 546.493C515.655 518.935 513.766 505.712 529.696 482.319C538.426 483.723 552.965 496.34 559.809 502.128C560.704 502.885 565.752 507.399 566.046 507.558C572.801 515.042 580.442 523.541 585.856 532.029C607.956 566.68 615.849 606.41 617.546 646.769C596.387 646.667 574.495 646.381 553.379 647.575C544.302 647.452 481.819 653.119 480.02 652.471C481.956 647.586 479.163 619.712 478.01 613.368C477.003 607.915 475.612 602.541 473.849 597.284C466.774 575.873 454.204 554.461 433.407 544.06L433.328 543.518C437.249 534.983 447.856 521.21 454.121 514.108C481.06 536.265 492.118 562.987 491.879 597.113C491.846 601.804 491.015 618.576 491.361 621.012L492.145 621.235C494.812 618.105 493.888 587.696 493.368 582.038C492.869 576.657 491.99 571.319 490.738 566.062C486.703 549.333 470.2 521.582 455.607 512.677C456.413 509.224 480.006 489.915 484.167 488.622C496.765 512.065 497.846 528.356 497.311 554.729C497.205 559.986 496.065 566.745 495.975 571.565C495.009 576.43 494.857 580.294 495.262 585.228C496.234 581.934 497.254 578.088 497.394 574.637C501.311 549.637 501.827 507.281 485.167 487.216ZM525.682 626.712C526.038 624.249 526.299 620.326 526.407 617.844C527.88 583.997 540.929 552.577 572.56 536.861C575.684 535.308 579.232 534.471 582.143 532.367C576.704 528.504 554.134 546.125 549.949 550.299C530.15 570.044 524.214 596.917 524.004 623.982C523.78 627.503 523.169 634.764 524.452 637.874C525.123 633.637 525.476 630.974 525.682 626.712ZM593.72 559.938C575.41 565.981 558.628 583.399 549.664 600.186C544.139 610.533 540.895 629.082 541.051 640.801L541.512 641.56C542.041 641.506 542.386 641.53 542.848 641.339C545.014 612.89 549.832 594.618 572.606 575.142C575.882 572.333 579.358 569.765 583.006 567.459C585.405 565.964 594.304 561.499 595.298 560.332C594.51 559.643 594.983 559.87 593.72 559.938ZM606.033 592.162C590.905 594.504 577.911 604.024 569.171 616.29C566.559 619.955 555.866 636.88 555.493 641.027L556.17 641.216L556.909 640.716C566.259 627.875 571.052 611.864 585.611 602.72C590.402 599.711 594.649 597.441 600.157 595.846C601.616 595.382 607.902 593.719 607.772 592.174C607.203 592.152 606.576 592.085 606.033 592.162Z" fill="#48F0A9"/>
<path d="M87.4102 566.592C96.6683 555.295 107.909 546.236 117.77 535.801C144.302 507.726 167.531 481.361 209.652 482.052C214.959 484.524 219.95 485.911 225.543 487.623C215.336 509.557 214.788 511.547 212.91 535.84C202.236 547.554 188.683 564.998 181.014 578.748C169.81 598.839 163.783 623.919 158.711 646.189C156.559 656.364 152.665 677.743 152.33 687.976C150.485 685.342 148.835 682.051 145.316 682.974C144.167 688.344 147.443 712.13 148.689 718.159C143.347 713.177 133.895 702.812 126.254 703.442C119.993 685.293 112.294 667.917 106.255 650.097C97.0448 622.92 91.8173 594.829 87.4102 566.592Z" fill="#B9FBC0"/>
<path d="M528.406 481.586L529.697 482.319C513.767 505.712 515.656 518.935 513.819 546.493C513.455 551.941 513.389 558.099 512.524 563.488L511.347 563.724L510.807 561.529C513.843 530.641 509.7 507.712 528.406 481.586Z" fill="#111B0F"/>
<path d="M642.355 531.838C641.559 531.691 641.175 531.543 640.404 531.298C639.565 530.229 636.553 525.516 636.113 524.311C633.532 517.243 613.641 488.242 613.697 482.898C619.824 485.39 638.68 522.038 642.42 529.469C642.728 530.082 642.5 531.186 642.355 531.838Z" fill="#3D4343"/>
<path d="M402.934 511.95C401.745 511.442 402.194 511.859 401.43 510.869C402.317 505.613 414.667 491.057 418.714 486.324L420.163 486.723L420.547 487.589C419.714 489.575 412.458 498.125 410.69 500.7C408.486 503.908 405.217 509.114 402.934 511.95Z" fill="#3D4343"/>
<path d="M842.547 688.15C838.163 676.735 839.328 672.521 837.89 660.796C836.929 652.961 834.12 644.901 831.686 637.443C828.792 626.224 821.344 616.658 817.235 606.283C810.011 588.045 798.775 570.844 791.912 552.847C788.36 543.532 789.672 528.874 788.419 518.796C787.065 507.903 785.15 497.106 783.846 486.281C785.536 487.726 790.474 501.017 796.559 507.389C808.715 520.121 824.237 527.424 835.204 539.622C845.788 552.527 843.777 570.317 848.921 585.441C857.91 611.877 883.273 655.782 866.117 682.699C866.607 675.75 866.554 666.61 866.275 659.624C862.995 659.323 862.225 660.354 860.102 662.71C853.044 670.544 847.616 678.956 842.547 688.15ZM807.031 543.273C808.135 552.775 819.637 567.552 823.813 576.958C829.459 589.675 833.436 602.587 843.602 612.55C844.58 616.297 845.701 620.053 847.85 623.322C848.124 616.254 839.589 601.434 836.357 594.376C831.038 582.76 817.052 549.317 807.031 543.273Z" fill="#90DBF4"/>
<path d="M484.168 488.621L485.168 487.215C501.828 507.28 501.312 549.636 497.395 574.636C497.052 573.385 496.594 572.684 495.976 571.564C496.066 566.744 497.206 559.985 497.312 554.728C497.847 528.355 496.766 512.064 484.168 488.621Z" fill="#2A3A29"/>
<path d="M269.488 510.307C269.435 507.668 269.198 506.255 270.168 503.795L270.864 503.57C272.708 507.491 272.389 509.976 272.397 514.297C271.825 511.426 272.288 510.865 269.488 510.307Z" fill="#FCE56A"/>
<path d="M507.049 599.774C506.757 589.184 509.438 572.209 510.806 561.528L511.346 563.723L512.523 563.487L512.986 562.608C515.469 557.814 517.454 551.044 520.075 545.875C527.71 530.814 541.799 509.89 558.631 504.342C559.369 504.101 560.112 503.877 560.86 503.668C555.639 508.569 548.629 511.265 543.338 516.63C526.445 533.761 515.541 556.746 511.009 580.246C509.703 587.071 510.143 596.126 509.076 602.251C507.979 600.132 507.994 596.971 508.305 594.635C507.955 596.801 507.706 597.663 507.049 599.774Z" fill="url(#paint2_linear_2293_130882)"/>
<path d="M269.488 510.309C272.288 510.867 271.825 511.428 272.397 514.299C272.814 531.512 248.832 584.83 241.067 603.189C237.919 610.631 228.483 636.449 223.898 642.925C222.787 643.526 223.208 643.397 221.887 643.487C222.351 640.499 222.415 637.196 222.553 634.154C224.159 632.97 225.756 627.485 226.856 625.262C235.573 607.657 242.333 589.868 248.895 571.37C255.882 551.674 266.222 530.993 269.488 510.309Z" fill="#FCE56A"/>
<path d="M454.121 514.107C454.686 513.335 454.854 513.302 455.607 512.676C470.2 521.581 486.703 549.332 490.738 566.061C491.99 571.318 492.869 576.656 493.368 582.037C493.888 587.695 494.812 618.104 492.145 621.234L491.361 621.011C491.015 618.575 491.846 601.803 491.879 597.112C492.118 562.986 481.06 536.264 454.121 514.107Z" fill="#2A3A29"/>
<path d="M769.739 664.661C768.999 661.132 776.395 647.9 777.626 642.967C782.262 624.402 779.4 607.151 771.795 589.803C769.863 585.395 763 563.288 763.626 560.255L764.299 560.033C765.813 561.048 766.633 562.324 766.735 564.235C766.771 567.393 769.63 571.369 770.144 574.19C771.682 582.645 776.604 590.374 779.68 598.36C788.192 620.455 785.964 645.024 773.375 665.082C766.25 676.435 767.589 682.511 777.495 691.226C779.49 693.013 784.256 693.972 785.953 695.6L785.122 695.861C781.171 694.903 774.649 690.815 772.213 687.584C771.155 686.181 770.707 684.909 769.191 683.071L768.432 683.59L767.947 683.721C767.258 685.397 768.475 686.361 768.327 688.841C766.826 689.119 767.584 689.169 766.019 688.394C756.6 674.397 765.946 646.801 767.232 630.711C768.338 616.876 763.164 606.493 759.204 593.831C753.452 575.439 749.179 557.205 748.626 537.889C748.48 531.756 748.46 522.831 750.866 517.199C751.339 516.113 752.476 516.19 753.414 516.145C757.452 520.439 755.899 546.956 757.364 554.756C760.2 569.852 765.319 583.604 770.059 598.128C777.048 619.542 772.514 641.565 768.625 663.047C768.094 665.956 767.511 664.536 768.839 667.116C768.385 668.776 767.869 669.889 768.31 671.52L768.959 671.407C771.495 667.899 772.903 663.887 774.949 660.247C785.866 640.823 786.633 619.235 778.734 598.544C775.546 590.193 770.606 581.832 768.456 573.161C768.025 571.304 767.615 568.48 766.546 566.96C764.979 570.986 777.322 600.159 778.788 607.128C783.9 631.422 779.104 642.741 769.739 664.661ZM752.421 516.742C748.406 524.02 749.841 529.196 749.799 536.999C749.71 553.811 752.371 566.332 756.975 582.27C758.754 588.513 760.612 594.732 762.548 600.928C765.017 608.639 766.844 612.95 767.942 621.047C770.278 638.277 756.483 672.632 766.399 687.097C766.993 686.018 766.86 686.649 766.761 685.653C764.676 664.743 772.733 645.36 772.885 623.953C773.068 598.095 760.07 578.993 756.262 553.823C754.893 544.776 756.506 523.583 753.147 517.134L752.421 516.742Z" fill="#8EECF5"/>
<path d="M766.4 687.097C756.484 672.632 770.279 638.277 767.943 621.047C766.845 612.95 765.018 608.639 762.549 600.928C760.613 594.732 758.755 588.513 756.976 582.27C752.372 566.332 749.711 553.811 749.8 536.999C749.842 529.196 748.407 524.02 752.422 516.742L753.148 517.134C756.507 523.583 754.894 544.776 756.263 553.823C760.071 578.993 773.069 598.095 772.886 623.953C772.734 645.36 764.677 664.743 766.762 685.653C766.861 686.649 766.994 686.018 766.4 687.097Z" fill="#FBF8CC"/>
<path d="M268.498 583.135C265.967 575.561 278.987 537.774 284.792 530.867C285.303 534.44 277.731 549.987 276.581 555.15C274.587 564.097 272.151 574.846 268.498 583.135Z" fill="#FFFFFA"/>
<path d="M524.006 623.981C524.216 596.916 530.152 570.043 549.951 550.298C554.136 546.124 576.706 528.503 582.145 532.366C579.234 534.47 575.686 535.307 572.562 536.86C540.931 552.576 527.882 583.996 526.409 617.843C526.301 620.325 526.04 624.248 525.684 626.711L524.006 623.981Z" fill="#364236"/>
<path d="M393.819 615.487C390.942 612.704 391.964 605.306 392.502 601.509C395.712 578.854 404.514 553.704 416.6 534.273C417.631 535.262 418.096 536.143 417.372 537.505C407.077 556.852 399.203 577.37 395.345 599.003C394.458 603.973 395.193 610.766 393.819 615.487Z" fill="#3D4343"/>
<path d="M212.99 539.523C212.741 575.472 218.993 605.652 220.041 640.214C219.726 645.675 219.289 652.356 220.922 657.683C221.252 662.511 222.238 673.342 222.003 677.917C213.489 679.226 198.719 690.016 193.026 696.661C190.284 699.861 186.422 705.2 183.914 707.815C186.814 694.777 187.708 685.411 185.291 671.959C188.493 663.677 190.153 647.208 191.385 638.302C192.422 630.615 194.105 623.028 196.416 615.624C197.708 611.544 203.36 595.803 202.681 592.701L201.893 592.841C198.988 595.803 189.211 627.54 189.126 632.906C188.965 643.099 183.831 662.774 183.603 672.218C179.911 673.852 173.831 684.241 171.285 688.107C167.383 694.032 164.6 701.813 163.046 708.725C160.172 700.957 153.526 691.429 154.121 685.346C154.595 684.528 159.978 650.76 160.966 646.419C166.814 620.706 172.818 595.373 187.47 572.927C195.548 560.551 203.847 550.649 212.99 539.523ZM198.654 582.313C192.22 590.53 176.441 636.167 173.654 648.115C172.506 653.037 170.778 661.986 171.684 667.269C172.009 669.159 172.369 669.962 173.197 671.618C174.786 668.947 173.419 664.149 173.973 660.972C176.492 646.505 181.235 632.891 185.888 619.232C188.144 612.61 199.188 587.626 199.213 582.91L198.654 582.313ZM204.081 617.615C202.385 621.36 201.675 625.408 200.5 629.324C196.585 642.379 194.495 655.703 192.575 669.169C192.3 671.096 191.193 675.738 191.862 677.262L193.043 677.378C195.557 670.469 196.919 657.684 198.376 650.015C199.273 645.292 206.294 620.234 205.66 618.241L204.081 617.615Z" fill="#D6F8E1"/>
<path d="M843.602 612.55C833.436 602.587 829.459 589.675 823.813 576.958C819.637 567.552 808.135 552.775 807.031 543.273C817.052 549.317 831.038 582.76 836.357 594.376C839.589 601.434 848.124 616.254 847.85 623.322C845.701 620.053 844.58 616.297 843.602 612.55Z" fill="#FFFFFA"/>
<path d="M432.035 546.411L433.407 544.059C454.204 554.46 466.774 575.872 473.849 597.283C475.612 602.54 477.003 607.914 478.01 613.367C479.163 619.711 481.956 647.585 480.02 652.47L478.589 652.767C478.048 630.362 477.821 611.667 468.815 590.593C461.819 574.223 449.293 553.525 432.035 546.411Z" fill="#2A3A29"/>
<path d="M420.023 569.018C424.01 562.92 427.22 552.448 432.036 546.41C449.294 553.524 461.82 574.222 468.816 590.592C477.822 611.666 478.049 630.361 478.59 652.766C476.235 653.634 443.884 658.057 442.836 657.43C442.176 653.72 439.863 646.552 438.594 642.943C431.938 624.021 423.409 615.326 407.566 603.972C408.268 598.395 417.189 576.374 419.508 570.785C435.586 580.05 445.604 593.619 452.822 610.713C454.41 614.475 455.878 621.915 457.394 624.243L458.173 624.285C459.254 620.779 453.621 607.278 452.182 603.728C447.631 592.498 431.395 573.198 420.023 569.018Z" fill="#48F0A9"/>
<path d="M658.488 605.056C650.983 600.907 647.113 559.507 648.753 550.594C649.514 550.86 649.833 551.082 650.543 551.468C651.614 553.636 652.523 573.414 653.214 578.12C654.116 584.26 658.855 600.976 658.488 605.056Z" fill="#3D4343"/>
<path d="M373.744 616.908L372.868 616.776C371.694 615.597 371.682 614.756 371.684 612.896C371.704 595.978 379.228 568.663 390.843 556.297L391.913 556.81C392.901 558.905 388.579 563.793 386.859 566.99C377.787 583.852 375.251 598.229 373.744 616.908Z" fill="#3D4343"/>
<path d="M542.849 641.339C542.387 641.53 542.042 641.506 541.513 641.56L541.052 640.801C540.896 629.082 544.14 610.533 549.665 600.186C558.629 583.399 575.411 565.981 593.721 559.938C594.984 559.87 594.511 559.643 595.299 560.332C594.305 561.499 585.406 565.964 583.007 567.459C579.359 569.765 575.883 572.333 572.607 575.142C549.833 594.618 545.015 612.89 542.849 641.339Z" fill="#364236"/>
<path d="M87.0112 566.66L87.4096 566.59C91.8167 594.827 97.0443 622.918 106.255 650.095C112.294 667.915 119.993 685.291 126.254 703.44C126.723 708.908 132.071 719.199 134.23 725.063C129.182 721.847 120.328 715.066 114.598 715.333C113.925 715.776 113.433 715.879 113.325 716.561C112.663 720.772 119.905 732.877 122.138 736.121C116.749 735.347 110.989 735.346 105.657 734.379C34.5132 721.467 34.638 650.166 64.5688 598.67C71.4797 586.78 79.0401 577.225 87.0112 566.66Z" fill="#D6F8E1"/>
<path d="M769.74 664.662C779.105 642.742 783.901 631.423 778.789 607.129C777.323 600.16 764.98 570.987 766.547 566.961C767.616 568.481 768.026 571.305 768.457 573.162C770.607 581.833 775.547 590.194 778.735 598.545C786.634 619.236 785.867 640.824 774.95 660.248C772.904 663.888 771.496 667.9 768.96 671.408L768.311 671.521C767.87 669.89 768.386 668.777 768.84 667.117L769.74 664.662Z" fill="#FBF8CC"/>
<path d="M419.508 570.787L420.023 569.02C431.395 573.2 447.631 592.5 452.182 603.73C453.621 607.28 459.254 620.781 458.173 624.287L457.394 624.245C455.878 621.917 454.41 614.477 452.822 610.715C445.604 593.621 435.586 580.052 419.508 570.787Z" fill="#2A3A29"/>
<path d="M495.976 571.562C496.594 572.683 497.052 573.383 497.395 574.634C497.255 578.085 496.235 581.931 495.263 585.225C494.858 580.291 495.01 576.427 495.976 571.562Z" fill="#123F1E"/>
<path d="M173.198 671.617C172.37 669.961 172.01 669.158 171.685 667.268C170.779 661.985 172.507 653.037 173.655 648.115C176.442 636.167 192.221 590.53 198.655 582.312L199.214 582.909C199.189 587.625 188.145 612.61 185.889 619.232C181.236 632.891 176.493 646.504 173.974 660.971C173.42 664.148 174.787 668.946 173.198 671.617Z" fill="#FFFFFA"/>
<path d="M183.604 672.216C183.832 662.772 188.966 643.097 189.127 632.904C189.212 627.538 198.989 595.801 201.894 592.839L202.682 592.699C203.361 595.801 197.709 611.542 196.417 615.622C194.106 623.026 192.423 630.613 191.386 638.3C190.154 647.206 188.494 663.675 185.292 671.957L183.604 672.216Z" fill="#E5FBFC"/>
<path d="M556.91 640.715L556.171 641.215L555.494 641.026C555.867 636.879 566.56 619.954 569.172 616.289C577.912 604.023 590.906 594.503 606.034 592.161C606.577 592.084 607.204 592.151 607.773 592.173C607.903 593.718 601.617 595.381 600.158 595.845C594.65 597.44 590.403 599.71 585.612 602.719C571.053 611.863 566.26 627.874 556.91 640.715Z" fill="#364236"/>
<path d="M507.05 599.776C507.707 597.665 507.956 596.803 508.306 594.637C507.995 596.973 507.98 600.134 509.077 602.253C509.133 606.352 508.733 610.839 508.674 615C508.628 618.213 509.516 624.254 507.664 626.529C505.797 623.222 506.84 604.52 507.05 599.776Z" fill="#111B0F"/>
<path d="M796.406 667.173C797.19 658.398 798.129 648.896 797.777 640.14C797.271 627.53 793.12 609.082 784.449 599.551L783.957 599.023L783.976 598.279L784.727 597.789C791.726 599.593 798.551 623.251 800.108 629.787C803.919 645.786 799.707 662.226 799.426 678.274C798.861 680.202 799.14 682.508 797.211 683.272C796.037 680.882 796.434 670.514 796.406 667.173Z" fill="url(#paint3_linear_2293_130882)"/>
<path d="M406.719 605.78L407.567 603.973C423.41 615.327 431.939 624.022 438.595 642.944C439.864 646.553 442.177 653.721 442.837 657.431L440.74 658.581C431.53 629.568 431.387 625.138 406.719 605.78Z" fill="#2A3A29"/>
<path d="M397.525 666.987C397.139 649.899 401.241 621.927 406.718 605.781C431.386 625.139 431.529 629.569 440.739 658.582C427.64 660.142 410.461 664.007 397.525 666.987Z" fill="#48F0A9"/>
<path d="M249.933 633.214L249.264 633.176C248.911 629.08 256.464 612.196 258.855 607.738L259.634 608.263C260.218 611.12 251.777 629.88 249.933 633.214Z" fill="#FFFFFA"/>
<path d="M874.459 658.431C883.522 650.305 893.388 641.913 901.388 632.801C907.834 625.459 914.17 617.903 920.534 610.48C921.401 627.006 922.037 643.179 922.056 659.733C922.061 663.966 923.331 674.175 922.819 677.736C911.818 674.537 895.254 684.23 886.754 690.451C890.293 683.379 906.656 651.67 905.261 645.551L904.536 645.349C894.939 649.104 879.815 663.102 873.947 671.667C874.258 667.163 874.36 662.932 874.459 658.431Z" fill="#D4DAFC"/>
<path d="M193.045 677.376L191.864 677.26C191.195 675.736 192.302 671.094 192.577 669.167C194.497 655.701 196.587 642.377 200.502 629.322C201.677 625.406 202.387 621.358 204.083 617.613L205.662 618.239C206.296 620.232 199.275 645.29 198.378 650.013C196.921 657.682 195.559 670.467 193.045 677.376Z" fill="#E5FBFC"/>
<path d="M524.005 623.98L525.683 626.71C525.477 630.972 525.124 633.635 524.453 637.872C523.17 634.762 523.781 627.501 524.005 623.98Z" fill="#111B0F"/>
<path d="M678.773 731.357C680.942 726.826 684.123 717.764 686.173 712.651L708.385 655.604C711.03 648.988 715.464 636.56 719.438 631.254C726.32 635.183 758.658 721.135 762.986 732.926C749.645 735.218 735.804 735.518 722.306 735.748C707.697 735.527 693.133 734.058 678.773 731.357ZM715.331 649.719C716.64 656.909 720.413 661.035 728.077 660.373C727.192 659.682 725.598 658.582 724.509 658.437C719.733 657.802 719.373 650.316 715.331 649.719ZM703.492 678.813C701.113 688.81 712.544 689.227 719.208 688.86C724.73 693.754 726.582 694.383 734.185 692.612C731.271 690.284 729.331 691.102 725.402 691.5L720.244 686.648C717.123 686.858 713.049 687.242 710.024 687.04C705.714 683.861 705.488 680.364 703.492 678.813ZM730.31 702.989C730.254 703.704 729.957 704.776 730.449 705.254C733.752 708.464 741.216 709.964 745.62 709.309L745.085 708.351C737.447 706.461 737.245 706.824 730.31 702.989ZM697.769 707.315C698.307 709.728 697.849 709.153 699.325 710.835C707.092 712.942 701.721 718.029 708.58 721.045C712.557 722.793 719.787 722.956 724.059 722.252C720.925 719.351 713.414 721.947 709.187 719.509C705.081 717.141 706.724 713.178 703.892 710.23C703.784 710.117 698.238 707.37 697.769 707.315Z" fill="#D4DAFC"/>
<path d="M220.042 640.215C220.605 643.062 220.413 647.389 221.569 649.149C221.353 651.79 220.999 655.095 220.923 657.684C219.29 652.357 219.727 645.676 220.042 640.215Z" fill="#364236"/>
<path d="M232.583 674.728L231.742 673.986C232.261 670.345 238.166 666.882 241.215 662.091C245.145 655.917 245.322 647.519 248.421 643.855L249.137 644.71C248.625 655.549 240.894 667.984 232.583 674.728Z" fill="#FFFFFA"/>
<path d="M553.38 647.575C574.496 646.381 596.388 646.667 617.547 646.769C618.778 648.359 618.992 648.958 618.139 650.936L617.522 649.561C611.67 647.417 584.753 651.383 577.399 652.255L576.675 651.927L576.906 651.559C579.045 651.325 580.683 651.148 582.787 650.729L583.229 649.281L582.853 648.73L579.479 649.056C576.565 649.167 573.317 649.223 570.445 649.473C559.548 649.382 548.525 650.538 537.664 651.188C534.016 651.407 527.808 652.119 524.305 652.067L524.36 651.588C530.206 650.139 544.643 650.07 551.398 649.406C555.708 648.982 561.626 648.385 565.81 648.164C562.206 648.205 556.677 648.585 553.38 647.575Z" fill="url(#paint4_linear_2293_130882)"/>
<path d="M570.445 649.472C573.317 649.222 576.565 649.166 579.479 649.055C577.039 650.167 573.675 650.496 570.949 650.931L570.445 649.472Z" fill="#90DBF4"/>
<path d="M579.479 649.056L582.853 648.73L583.229 649.281L582.787 650.729C580.683 651.148 579.045 651.325 576.906 651.559L576.675 651.927L577.399 652.255C571.85 653.683 565.942 654.37 560.482 656.018C536.004 663.433 511.411 673.071 497.591 695.991C479.257 726.395 507.358 732.168 530.236 737.625C560.387 744.815 592.468 752.667 606.808 783.505C624.531 774.337 639.998 772.328 659.127 777.391C682.218 783.503 697.937 777.653 719.356 769.896C738.782 762.86 760.167 758.491 781.043 758.402C797.565 758.98 810.579 762.041 827.755 759.969C845.049 757.884 857.18 751.267 872.986 746.797C898.957 739.451 935.416 739.246 962.233 742.92C965.547 743.374 975.219 744.085 977.005 745.927L977.145 746.828C975.084 747.962 969.715 746.791 967.3 746.404C952.897 744.098 938.316 743.096 923.732 743.412C896.15 743.84 876.047 746.938 850.619 757.463C833.683 764.473 813.91 763.679 795.851 762.388C772.222 758.067 743.351 764.92 720.83 772.483C711.896 775.484 696.216 781.769 687.427 782.26C652.792 784.196 642.64 768.891 607.876 785.792C613.24 798.409 616.301 803.551 629.553 808.677C638.792 812.25 647.389 814.564 656.971 817.127C674.79 821.894 692.458 826.542 710.321 831.245C723.761 834.784 735.65 841.653 748.746 843.567C757.604 844.861 765.523 842.494 773.616 839.197C813.41 822.981 820.445 804.324 867.01 812.335C879.444 815.161 892.291 818.648 904.98 819.421C909.23 819.664 913.49 819.669 917.741 819.435C920.89 819.266 933.84 817.569 935.502 818.042L935.903 818.744C934.133 820.889 922.213 821.656 918.766 822.02C904.702 823.506 891.531 820.773 877.902 817.856C853.184 811.266 832.978 810.673 810.202 823.651C799.979 829.477 789.764 835.562 778.945 840.134C766.109 845.559 760.736 846.816 747.168 846.404C762.436 857.101 773.565 869.069 780.855 886.443C782.662 890.75 785.422 897.232 785.595 901.862C784.654 902.432 785.173 902.255 783.941 902.122L782.665 900.519C781.895 895.963 776.211 883.616 773.929 879.371C756.632 847.196 725.708 837.793 692.75 829.511C678.255 825.869 663.469 822.101 649.109 817.994C638.949 815.088 627.199 811.866 618.235 806.312C610.494 801.516 606.545 788.564 601.975 780.619C595.306 769.286 585.422 760.19 573.575 754.484C552.801 744.555 529.779 741.94 508.159 734.736C502.268 732.774 494.483 728.34 491.502 722.788C482.062 705.204 500.788 685.856 512.602 675.01C492.881 683.649 452.644 706.561 456.092 732.621C459.035 754.868 493.769 767.232 509.783 779.49C523.979 788.881 529.091 809.659 516.545 823.568C496.273 846.042 451.059 847.024 422.922 852.717C413.928 854.537 403.298 857.252 395.301 858.043C406.546 850.341 435.397 848.556 450.085 845.569C474.434 840.616 521.391 836.551 520.706 802.26C520.369 785.378 495.562 774.474 483.395 766.771C473.276 760.796 455.51 748.496 453.462 735.83C448.824 702.089 492.931 681.144 518.168 669.725C536.599 661.386 551.395 655.125 570.949 650.932C573.675 650.497 577.039 650.168 579.479 649.056Z" fill="#3D4343"/>
<path d="M577.399 652.255C584.753 651.383 611.67 647.417 617.522 649.561L618.139 650.936C617.428 656.253 618.159 676.424 619.037 681.642C622.207 700.476 650.948 699.698 665.266 705.144C664.546 713.314 665.696 729.641 674.901 732.742C676.47 739.982 691.88 745.143 698.34 746.425C715.295 749.789 732.829 751.735 749.961 754.019C756.703 754.895 763.44 755.809 770.171 756.761C773.905 757.309 777.336 758.161 781.043 758.402C760.167 758.491 738.782 762.86 719.356 769.896C697.937 777.653 682.218 783.503 659.127 777.391C639.998 772.328 624.531 774.337 606.808 783.505C592.468 752.667 560.387 744.815 530.236 737.625C507.358 732.168 479.257 726.395 497.591 695.991C511.411 673.071 536.004 663.433 560.482 656.018C565.942 654.37 571.85 653.683 577.399 652.255ZM652.374 715.434C648.982 714.239 644.514 721.654 642.953 724.171L643.167 724.304C645.239 722.121 647.297 719.925 649.343 717.718L649.776 718.077C649.496 719.668 648.739 722.214 649.262 723.431C651.002 723.204 650.65 723.078 652.263 721.777L652.729 720.614C653.571 719.526 653.875 719.335 654.262 718.045C653.472 717.109 653.052 716.448 652.374 715.434ZM584.896 675.05C582.809 676.027 579.494 677.784 581.096 680.485C582.618 677.985 583.056 677.526 585.144 675.45L584.896 675.05ZM594.682 710.869C593.051 715.614 586.203 715.951 587.393 721.952L587.953 722.403C588.544 721.6 588.435 721.993 588.508 721.311C590.488 714.122 598.185 714.938 596.947 711.281C595.658 710.899 595.988 710.905 594.682 710.869ZM581.429 714.296C578.771 716.042 577.359 716.804 576.332 719.858L576.735 720.347L577.143 719.68C579.899 716.043 580.291 717.573 583.192 715.601L582.889 714.744L581.429 714.296Z" fill="#B9FBC0"/>
<path d="M524.304 652.068C527.807 652.12 534.015 651.408 537.663 651.189C548.524 650.539 559.547 649.383 570.444 649.474L570.948 650.933C551.394 655.126 536.598 661.387 518.167 669.726C492.93 681.145 448.823 702.09 453.461 735.831C455.509 748.497 473.275 760.797 483.394 766.772C495.561 774.475 520.368 785.379 520.705 802.261C521.39 836.552 474.433 840.617 450.084 845.57C435.396 848.557 406.545 850.342 395.3 858.044C403.297 857.253 413.927 854.538 422.921 852.718C451.058 847.025 496.272 846.043 516.544 823.569C529.09 809.66 523.978 788.882 509.782 779.491C493.768 767.233 459.034 754.869 456.091 732.622C452.643 706.562 492.88 683.65 512.601 675.011C500.787 685.857 482.061 705.205 491.501 722.789C494.482 728.341 502.267 732.775 508.158 734.737C529.778 741.941 552.8 744.556 573.574 754.485C585.421 760.191 595.305 769.287 601.974 780.62C606.544 788.565 610.493 801.517 618.234 806.313C627.198 811.867 638.948 815.089 649.108 817.995C663.468 822.102 678.254 825.87 692.749 829.512C725.707 837.794 756.631 847.197 773.928 879.372C776.21 883.617 781.894 895.964 782.664 900.52C770.62 902.374 760.912 905.098 748.397 905.885C733.32 906.753 718.204 906.729 703.13 905.813C669.012 903.505 638.113 897.242 603.203 897.944C552.27 898.968 507.178 920.267 456.169 920.073C404.163 919.874 358.704 894.113 308.703 883.768C271.812 876 233.097 877.349 197.17 865.432C180.707 860.026 155.515 849.963 147.242 833.617C165.159 828.072 176.161 832.459 193.118 829.669C211.195 826.694 229.288 815.667 248.675 816.807C267.614 817.921 279.727 826.514 299.426 824.899C320.486 823.636 337.136 806.153 358.359 806.106C379.456 806.06 398.36 819.261 419.933 817.356C424.605 816.944 439.772 816.597 442.786 814.303L442.706 813.564C439.804 812.315 425.179 814.141 420.958 814.489C398.721 816.326 381.022 803.501 359.308 803.072C336.714 802.625 320.549 820.397 298.703 821.954C281.75 823.163 265.795 813.954 248.906 813.616C227.637 812.871 211.857 823.264 192.313 826.612C174.883 829.597 163.11 824.814 145.077 831.808C144.241 827.792 142.4 823.592 141.139 819.634C136.983 806.591 137.211 793.373 139.151 779.986C139.566 777.129 140.396 771.262 139.096 768.754C142.229 768.366 149.736 768.779 153.216 768.939C164.399 769.455 175.116 770.201 186.237 767.957C206.807 763.807 223.558 752.787 245.024 751.318C265.866 749.892 277.846 757.337 297.348 760.811C317.731 764.442 332.026 754.099 351.402 750.558C359.51 749.076 369.616 750.971 374.49 749.65L374.145 749.695L373.613 748.873C345.889 741.262 332.493 757.514 306.615 758.505C298.781 758.805 288.857 755.934 281.327 753.665C267.443 749.482 256.302 747.244 241.63 748.693C222.738 750.559 206.946 759.982 189.019 764.488C174.594 768.114 157.177 766.05 142.054 765.966C143.707 762.361 145.431 753.538 145.693 749.595C164.767 753.615 182.13 749.074 199.503 741.101C210.767 735.931 213.64 732.565 226.363 732.657C227.163 732.782 227.371 732.824 228.122 733.136C233.148 735.222 238.982 736.172 244.263 737.183C265.468 741.242 282.575 739.08 303.389 734.332C310.209 732.776 317.587 731.468 324.514 729.798C331.862 728.026 342.213 723.7 349.569 723.368L349.894 722.256C345.066 716.043 344.893 710.931 343.734 703.341C358.332 698.234 389.59 688.041 397.945 675L397.982 669.063C422.36 664.214 449.551 659.356 474.263 656.626C484.83 655.503 495.412 654.531 506.006 653.711C511.445 653.268 519.048 652.884 524.304 652.068ZM455.467 684.177L455.869 685.305C457.966 685.955 459.492 685.655 461.681 685.491C459.887 683.866 457.995 684.113 455.467 684.177ZM573.864 869.712C562.655 870.682 551.831 872.904 542.357 879.266C539.999 880.85 535.84 883.101 535.501 886.011L536.208 886.501C538.225 885.873 541.169 883.296 543.251 881.976C547.125 879.474 551.289 877.454 555.651 875.959C582.319 866.719 599.448 877.702 622.711 880.329C634.681 881.34 642.901 878.767 654.126 875.446C657.088 874.57 661.962 873.83 664.298 871.728C664.441 871.599 664.555 871.441 664.683 871.297L664.386 870.418C661.997 869.399 641.021 876.626 635.913 877.499C616.426 880.829 595.287 868.344 573.864 869.712Z" fill="#8EECF5"/>
<path d="M863.947 662.478C863.865 666.376 862.981 686.682 864.083 688.665C865.877 687.937 870.394 680.87 871.747 678.974C879.9 667.552 889.591 657.248 901.457 649.57L901.762 650.191C898.814 661.932 884.837 686.277 879.811 698.501C883.048 696.887 887.61 693.484 890.607 691.292C900.575 684 907.488 681.359 919.489 679.361C914.698 688.708 906.565 695.167 899.288 702.376C891.242 710.344 885.627 710.505 875.526 714.972C869.243 717.175 857.523 724.331 850.817 724.753C836.822 725.635 821.702 720.561 807.273 719.862C802.446 710.307 800.079 701.679 798.121 691.29C799.817 693.044 801.365 694.966 802.933 696.84C806.6 701.273 811.114 708.013 814.902 711.89L815.735 711.353C816.018 710.15 815.009 699.4 814.956 696.956C814.754 688.809 815.546 680.669 817.314 672.715C819.912 677.249 824.414 687.497 826.11 692.549C827.55 696.84 826.884 705.011 829.819 710.08C832.008 706.234 828.254 679.188 834.302 678.007C838.235 680.482 839.528 691.566 841.719 696.315C848.942 679.836 851.968 676.173 863.947 662.478Z" fill="#90DBF4"/>
<path d="M728.076 660.373C720.412 661.035 716.639 656.909 715.33 649.719C719.372 650.316 719.732 657.802 724.508 658.437C725.597 658.582 727.191 659.682 728.076 660.373Z" fill="#3D4343"/>
<path d="M232.082 731.989C243.872 714.077 252.31 699.2 260.891 679.476C264.798 670.496 271.515 659.23 276.217 650.352C279.082 653.356 283.267 664.997 284.938 669.251C280.439 669.037 276.322 668.572 271.892 669.268L272.216 669.303L271.697 669.841C275.517 671.453 281.353 671.15 285.511 671.045C287.493 675.326 289.223 680.673 290.814 685.165C296.314 700.692 301.708 715.471 309.075 730.227C300.499 732.415 289.7 734.322 280.917 735.853C265.253 738.168 247.462 735.525 232.082 731.989ZM268.61 686.57C266.137 687.452 265.384 687.435 262.751 687.34L261.809 687.905C265.426 691.79 273.338 687.454 277.99 689.204C277.86 689.154 279.311 689.424 279.215 689.408C281.8 689.301 284.497 689.508 286.351 687.596C284.434 686.05 271.712 686.387 268.61 686.57ZM291.033 712.082C286.806 712.97 281.017 716.317 277.413 716.2C270.718 715.981 253.084 710.447 247.252 715.938C248.56 717.029 249.167 716.938 250.955 716.776C263.739 714.352 267.14 718.723 279.005 718.636C279.606 718.632 293.769 713.34 294.228 712.926C293.305 711.928 292.478 712.099 291.033 712.082Z" fill="#E5FBFC"/>
<path d="M796.005 683.886C796.109 678.842 795.853 672.045 796.405 667.172C796.433 670.513 796.036 680.881 797.21 683.271C799.139 682.507 798.86 680.201 799.425 678.273C799.604 681.681 800.66 685.556 796.996 686.936C795.865 687.876 795.849 687.773 795.344 689.129L794.924 689.025L794.322 687.633C794.382 685.753 794.873 685.389 796.005 683.886Z" fill="#E5FBFC"/>
<path d="M242.974 702.3C241.586 700.493 245.38 690.356 246.146 688.091C248.426 681.352 251.414 673.238 256.219 667.859C256.624 668.31 256.359 667.978 256.841 668.975C249.501 681.259 248.786 690.368 242.974 702.3Z" fill="#FFFFFA"/>
<path d="M163.047 708.723C164.601 701.811 167.384 694.03 171.286 688.105C173.832 684.239 179.912 673.85 183.604 672.216L185.292 671.957C187.709 685.409 186.815 694.775 183.915 707.813C183.325 708.216 183.686 708.088 182.785 708.013C182.598 706.452 182.549 705.327 182.5 703.753C182.525 702.297 183.441 696.621 183.634 694.547C184.303 687.338 183.874 682.227 183.214 675.167C177.199 683.691 172.73 689.356 168.655 699.211C166.575 704.24 165.43 715.734 163.709 717.243L162.784 716.85C160.531 712.804 159.845 707.424 158.203 703.652C156.761 700.339 150.576 687.945 147.85 686.83L147.323 687.891C146.183 685.654 147.862 685.502 147.945 683.639L146.142 683.769L145.316 682.972C148.835 682.049 150.485 685.34 152.33 687.974L153.282 688.234C153.46 686.984 153.596 686.491 154.122 685.344C153.527 691.427 160.173 700.955 163.047 708.723Z" fill="#2A3A29"/>
<path d="M581.095 680.486C579.493 677.785 582.808 676.028 584.895 675.051L585.143 675.451C583.055 677.527 582.617 677.986 581.095 680.486Z" fill="#111B0F"/>
<path d="M147.323 687.892L147.85 686.831C150.576 687.946 156.761 700.34 158.203 703.653C159.845 707.425 160.531 712.805 162.784 716.851L163.709 717.244C165.43 715.735 166.575 704.241 168.655 699.212C172.73 689.357 177.199 683.692 183.214 675.168C183.874 682.228 184.303 687.339 183.634 694.548C183.441 696.622 182.525 702.298 182.5 703.754C181.708 707.184 178.957 716.735 180.451 719.299C181.249 718.773 185.076 710.811 186.248 709.091C194.58 696.858 205.086 687.629 218.543 681.631C216.586 687.943 214.261 694.135 211.58 700.175C209.877 704.1 206.124 712.169 205.16 715.985L205.859 716.876C207.441 716.631 211.616 713.209 214.272 711.894C220.834 708.643 226.472 706.789 233.35 704.444C231.046 708.167 226.921 713.376 224.815 716.84C215.167 732.707 205.814 735.806 189.162 742.604C172.628 749.354 152.093 751.065 135.242 743.985C124.254 739.368 119.812 728.147 115.74 717.504C126.995 720.941 133.594 729.731 138.843 731.194L139.59 730.736C139.545 730.148 130.504 708.364 129.631 706.029C138.001 711.378 145.525 719.98 152.344 723.979C151.345 713.686 148.71 698.748 147.323 687.892Z" fill="#B9FBC0"/>
<path d="M183.915 707.812C186.423 705.197 190.285 699.858 193.027 696.658C198.72 690.013 213.49 679.223 222.004 677.914C220.515 686.141 213.165 703.989 209.343 711.822C214.885 708.95 229.716 701.347 235.379 701.953C238.963 704.593 220.691 726.586 217.879 730.048C219.879 729.995 222.589 730.006 224.513 729.751C226.03 730.565 227.03 731.054 228.606 731.748L228.357 732.25L226.364 732.653C213.641 732.561 210.768 735.927 199.504 741.097C182.131 749.07 164.768 753.611 145.694 749.591C139.203 747.93 133.145 745.927 127.412 742.34C115.701 745.11 95.8459 748.828 85.1339 752.18C76.7701 754.219 68.4891 756.584 60.3097 759.269C55.9797 760.702 48.042 764.009 44.0728 764.57L43.9277 764.244C49.6174 761.227 55.2716 759.537 61.0639 757.06C81.8276 748.18 103.714 745.968 125.23 740.179L122.138 736.12C119.905 732.876 112.663 720.771 113.325 716.56C113.433 715.878 113.925 715.775 114.598 715.332C120.328 715.065 129.182 721.846 134.23 725.062C132.071 719.198 126.723 708.907 126.254 703.439C133.895 702.809 143.347 713.174 148.689 718.156C147.443 712.127 144.167 688.341 145.316 682.971L146.142 683.768L147.945 683.638C147.862 685.501 146.183 685.653 147.323 687.89C148.71 698.746 151.345 713.684 152.344 723.977C145.525 719.978 138.001 711.376 129.631 706.027C130.504 708.362 139.545 730.146 139.59 730.734L138.843 731.192C133.594 729.729 126.995 720.939 115.74 717.502C119.812 728.145 124.254 739.366 135.242 743.983C152.093 751.063 172.628 749.352 189.162 742.602C205.814 735.804 215.167 732.705 224.815 716.838C226.921 713.374 231.046 708.165 233.35 704.442C226.472 706.787 220.834 708.641 214.272 711.892C211.616 713.207 207.441 716.629 205.859 716.874L205.16 715.983C206.124 712.167 209.877 704.098 211.58 700.173C214.261 694.133 216.586 687.941 218.543 681.629C205.086 687.627 194.58 696.856 186.248 709.089C185.076 710.809 181.249 718.771 180.451 719.297C178.957 716.733 181.708 707.182 182.5 703.752C182.549 705.326 182.598 706.451 182.785 708.012C183.686 708.087 183.325 708.215 183.915 707.812Z" fill="#364236"/>
<path d="M922.821 677.738C924.169 679.826 924.987 686.759 925.564 689.667C926.339 693.57 928.607 698.603 928.867 702.193C922.928 702.233 918.879 702.429 913.033 703.191C910.797 703.482 902.273 704.764 900.461 704.694C906.871 700.071 921.605 685.264 922.821 677.738Z" fill="#D4DAFC"/>
<path d="M719.208 688.859C712.544 689.226 701.113 688.809 703.492 678.812C705.488 680.363 705.714 683.86 710.024 687.039C713.049 687.241 717.123 686.858 720.244 686.648L725.402 691.5C729.331 691.102 731.271 690.284 734.185 692.612C726.582 694.383 724.73 693.753 719.208 688.859Z" fill="#3D4343"/>
<path d="M768.434 683.589L769.193 683.07C770.709 684.908 771.157 686.18 772.215 687.583C774.651 690.814 781.173 694.902 785.124 695.86C786.977 696.991 788.627 697.649 788.786 699.95L787.824 700.397C779.83 699.478 770.715 691.264 768.434 683.589Z" fill="#D6F8E1"/>
<path d="M461.683 685.491C459.494 685.655 457.968 685.955 455.871 685.305L455.469 684.177C457.997 684.113 459.889 683.866 461.683 685.491Z" fill="#3D4343"/>
<path d="M331.547 698.925C327.895 698.167 320.578 688.716 315.93 688.337C312.993 688.097 313.404 687.255 313.297 685.008C319.106 685.914 328.985 693.636 331.547 698.925Z" fill="#3D4343"/>
<path d="M279.217 689.408C279.313 689.424 277.862 689.154 277.992 689.204C273.34 687.454 265.428 691.79 261.811 687.905L262.753 687.34C265.386 687.435 266.139 687.452 268.612 686.57C271.714 686.387 284.436 686.05 286.353 687.596C284.499 689.508 281.802 689.301 279.217 689.408Z" fill="#3D4343"/>
<path d="M900.459 704.692C902.271 704.762 910.795 703.48 913.031 703.189C918.877 702.427 922.926 702.231 928.865 702.191C939.68 702.866 972.096 707.811 979.051 714.83C978.803 714.978 978.556 715.127 978.309 715.275C975.723 715.472 967.658 712.377 965.23 711.658C945.756 705.885 929.035 702.047 908.653 706.343C904.697 707.176 899.256 707.99 895.573 709.801C894.094 710.528 894.229 710.557 892.503 711.134L892.07 711.276C893.323 709.951 897.379 707.368 898.697 705.578C899.388 704.639 899.207 704.927 900.459 704.692Z" fill="url(#paint5_linear_2293_130882)"/>
<path d="M745.62 709.308C741.216 709.963 733.752 708.463 730.449 705.253C729.957 704.775 730.254 703.703 730.31 702.988C737.245 706.823 737.447 706.46 745.085 708.35L745.62 709.308Z" fill="#3D4343"/>
<path d="M724.06 722.253C719.788 722.957 712.558 722.794 708.581 721.046C701.722 718.03 707.093 712.943 699.326 710.836C697.85 709.154 698.308 709.729 697.77 707.316C698.239 707.371 703.785 710.118 703.893 710.231C706.725 713.179 705.082 717.142 709.188 719.51C713.415 721.948 720.926 719.352 724.06 722.253Z" fill="#3D4343"/>
<path d="M588.509 721.309C588.436 721.991 588.545 721.598 587.954 722.401L587.394 721.95C586.204 715.949 593.052 715.612 594.683 710.867C595.989 710.903 595.659 710.897 596.948 711.279C598.186 714.936 590.489 714.12 588.509 721.309Z" fill="#111B0F"/>
<path d="M250.957 716.774C249.169 716.936 248.562 717.027 247.254 715.936C253.086 710.445 270.72 715.979 277.415 716.198C281.019 716.315 286.808 712.968 291.035 712.08C292.48 712.097 293.307 711.926 294.23 712.924C293.771 713.338 279.608 718.63 279.007 718.634C267.142 718.721 263.741 714.35 250.957 716.774Z" fill="#3D4343"/>
<path d="M577.143 719.681L576.735 720.348L576.332 719.859C577.359 716.805 578.771 716.043 581.429 714.297L582.889 714.745L583.192 715.602C580.291 717.574 579.899 716.044 577.143 719.681Z" fill="#111B0F"/>
<path d="M652.374 715.434C651.581 717.067 650.236 719.214 650.427 720.897C651.843 721.3 651.102 721.233 652.729 720.614L652.263 721.777C650.65 723.078 651.002 723.204 649.262 723.431C648.739 722.214 649.496 719.668 649.776 718.077L649.343 717.718C647.297 719.925 645.239 722.121 643.167 724.304L642.953 724.171C644.514 721.654 648.982 714.239 652.374 715.434Z" fill="#111B0F"/>
<path d="M652.729 720.614C651.102 721.233 651.843 721.3 650.427 720.897C650.236 719.214 651.581 717.067 652.374 715.434C653.052 716.448 653.472 717.109 654.262 718.045C653.875 719.335 653.571 719.526 652.729 720.614Z" fill="#98F5E1"/>
<path d="M127.411 742.344C133.144 745.931 139.202 747.934 145.693 749.595C145.431 753.538 143.707 762.361 142.054 765.966C127.44 766.375 115.272 768.081 102.354 775.608C100.599 776.631 97.8872 778.078 96.5046 779.466C95.9797 775.167 88.0925 763.082 87.3329 757.936C87.1531 756.718 86.0292 752.876 85.1328 752.184C95.8448 748.832 115.7 745.114 127.411 742.344Z" fill="#E5FBFC"/>
<path d="M96.5059 779.463C97.8885 778.075 100.601 776.628 102.356 775.605C115.274 768.078 127.442 766.372 142.056 765.963C157.179 766.047 174.596 768.111 189.021 764.485C206.948 759.979 222.74 750.556 241.632 748.69C256.304 747.241 267.445 749.479 281.329 753.662C288.859 755.931 298.783 758.802 306.617 758.502C332.495 757.511 345.891 741.259 373.615 748.87L374.147 749.692L374.492 749.647C369.618 750.968 359.512 749.073 351.404 750.555C332.028 754.096 317.733 764.439 297.35 760.808C277.848 757.334 265.868 749.889 245.026 751.315C223.56 752.784 206.809 763.804 186.239 767.954C175.118 770.198 164.401 769.452 153.218 768.936C149.738 768.776 142.231 768.363 139.098 768.751C127.608 769.395 119.879 770.594 108.913 774.777C106.797 775.584 97.8315 779.227 96.5059 779.463Z" fill="#364236"/>
<path d="M607.875 785.792C642.639 768.891 652.791 784.196 687.426 782.26C696.215 781.769 711.895 775.484 720.829 772.483C743.35 764.92 772.221 758.067 795.85 762.388C797.543 766.513 802.533 769.779 805.497 773.05C817.509 786.306 829.658 793.718 845.364 801.906C848.748 803.67 865.695 811.005 867.009 812.335C820.444 804.324 813.409 822.981 773.615 839.197C765.522 842.494 757.603 844.861 748.745 843.567C735.649 841.653 723.76 834.784 710.32 831.245C692.457 826.542 674.789 821.894 656.97 817.127C647.388 814.564 638.791 812.25 629.552 808.677C616.3 803.551 613.239 798.409 607.875 785.792Z" fill="#B9FBC0"/>
<path d="M125.561 846.534C130.964 839.492 137.093 835.43 145.078 831.807C163.111 824.813 174.884 829.596 192.314 826.611C211.858 823.263 227.638 812.87 248.907 813.615C265.796 813.953 281.751 823.162 298.704 821.953C320.55 820.396 336.715 802.624 359.309 803.071C381.023 803.5 398.722 816.325 420.959 814.488C425.18 814.14 439.805 812.314 442.707 813.563L442.787 814.302C439.773 816.596 424.606 816.943 419.934 817.355C398.361 819.26 379.457 806.059 358.36 806.105C337.137 806.152 320.487 823.635 299.427 824.898C279.728 826.513 267.615 817.92 248.676 816.806C229.289 815.666 211.196 826.693 193.119 829.668C176.162 832.458 165.16 828.071 147.243 833.616C137.794 837.397 133.652 840.535 125.561 846.534Z" fill="url(#paint6_linear_2293_130882)"/>
<path d="M747.168 846.402C760.736 846.814 766.109 845.557 778.945 840.132C789.764 835.56 799.979 829.475 810.202 823.649C832.978 810.671 853.184 811.264 877.902 817.854C881.937 825.217 902.746 831.421 905.092 846.821C877.287 859.973 857.005 875.449 827.598 887.731C819.727 890.949 811.68 893.721 803.497 896.034C799.593 897.141 788.303 899.601 785.595 901.86C785.422 897.23 782.662 890.748 780.855 886.441C773.565 869.067 762.436 857.099 747.168 846.402Z" fill="#B9FBC0"/>
<path d="M622.712 880.328C599.449 877.701 582.32 866.718 555.652 875.958C551.29 877.453 547.126 879.473 543.252 881.975C541.17 883.295 538.226 885.872 536.209 886.5L535.502 886.01C535.841 883.1 540 880.849 542.358 879.265C551.832 872.903 562.656 870.681 573.865 869.711C595.288 868.343 616.427 880.828 635.914 877.498C641.022 876.625 661.998 869.398 664.387 870.417L664.684 871.296C664.556 871.44 664.442 871.598 664.299 871.727C661.963 873.829 657.089 874.569 654.127 875.445C642.902 878.766 634.682 881.339 622.712 880.328Z" fill="#364236"/>
<defs>
<linearGradient id="paint0_linear_2293_130882" x1="509.074" y1="185.307" x2="626.019" y2="891.452" gradientUnits="userSpaceOnUse">
<stop stop-color="#FCCDEF"/>
<stop offset="1" stop-color="#C7F3FF"/>
</linearGradient>
<linearGradient id="paint1_linear_2293_130882" x1="301.573" y1="481.682" x2="289.393" y2="482.822" gradientUnits="userSpaceOnUse">
<stop stop-color="#2D313E"/>
<stop offset="1" stop-color="#3A3451"/>
</linearGradient>
<linearGradient id="paint2_linear_2293_130882" x1="540.025" y1="551.938" x2="519.058" y2="544.191" gradientUnits="userSpaceOnUse">
<stop stop-color="#1F2819"/>
<stop offset="1" stop-color="#3A3E35"/>
</linearGradient>
<linearGradient id="paint3_linear_2293_130882" x1="800.583" y1="640.795" x2="787.541" y2="641.126" gradientUnits="userSpaceOnUse">
<stop stop-color="#F7FCDC"/>
<stop offset="1" stop-color="#DEF4EA"/>
</linearGradient>
<linearGradient id="paint4_linear_2293_130882" x1="592.249" y1="647.453" x2="592.254" y2="649.988" gradientUnits="userSpaceOnUse">
<stop stop-color="#202A19"/>
<stop offset="1" stop-color="#353133"/>
</linearGradient>
<linearGradient id="paint5_linear_2293_130882" x1="940.158" y1="702.968" x2="936.713" y2="716.56" gradientUnits="userSpaceOnUse">
<stop stop-color="#3A3B3C"/>
<stop offset="1" stop-color="#4B475E"/>
</linearGradient>
<linearGradient id="paint6_linear_2293_130882" x1="283.315" y1="854.487" x2="287.508" y2="798.158" gradientUnits="userSpaceOnUse">
<stop stop-color="#34382F"/>
<stop offset="1" stop-color="#3F4E3E"/>
</linearGradient>
</defs>
</svg>
